<?xml version="1.0" encoding="UTF-8" standalone="no"?>
<!DOCTYPE svg PUBLIC "-//W3C//DTD SVG 1.1//EN"
 "http://www.w3.org/Graphics/SVG/1.1/DTD/svg11.dtd">
<!-- Generated by graphviz version 2.40.1 (20161225.0304)
 -->
<!-- Title: /home/travis/build/AliceO2Group/AliceO2/Detectors/Raw/src/RDHUtils.cxx Pages: 1 -->
<svg width="821pt" height="229pt"
 viewBox="0.00 0.00 820.50 229.00" xmlns="http://www.w3.org/2000/svg" xmlns:xlink="http://www.w3.org/1999/xlink">
<g id="graph0" class="graph" transform="scale(1 1) rotate(0) translate(4 225)">
<title>/home/travis/build/AliceO2Group/AliceO2/Detectors/Raw/src/RDHUtils.cxx</title>
<!-- Node0 -->
<g id="node1" class="node">
<title>Node0</title>
<polygon fill="#bfbfbf" stroke="#000000" points="510,-179.5 510,-220.5 686,-220.5 686,-179.5 510,-179.5"/>
<text text-anchor="start" x="518" y="-208.5" font-family="Helvetica,sans-Serif" font-size="10.00" fill="#000000">/home/travis/build</text>
<text text-anchor="start" x="518" y="-197.5" font-family="Helvetica,sans-Serif" font-size="10.00" fill="#000000">/AliceO2Group/AliceO2</text>
<text text-anchor="middle" x="598" y="-186.5" font-family="Helvetica,sans-Serif" font-size="10.00" fill="#000000">/Detectors/Raw/src/RDHUtils.cxx</text>
</g>
<!-- Node1 -->
<g id="node2" class="node">
<title>Node1</title>
<g id="a_node2"><a xlink:href="../../dd/da4/Logger_8h.html" target="_top" xlink:title="Framework/Logger.h">
<polygon fill="none" stroke="#000000" points="230.5,-123.5 230.5,-142.5 345.5,-142.5 345.5,-123.5 230.5,-123.5"/>
<text text-anchor="middle" x="288" y="-130.5" font-family="Helvetica,sans-Serif" font-size="10.00" fill="#000000">Framework/Logger.h</text>
</a>
</g>
</g>
<!-- Node0&#45;&gt;Node1 -->
<g id="edge1" class="edge">
<title>Node0&#45;&gt;Node1</title>
<path fill="none" stroke="#191970" d="M509.9956,-180.9797C455.9633,-169.3017 388.481,-154.7169 342.188,-144.7116"/>
<polygon fill="#191970" stroke="#191970" points="342.8674,-141.2777 332.3536,-142.5861 341.3886,-148.1197 342.8674,-141.2777"/>
</g>
<!-- Node2 -->
<g id="node3" class="node">
<title>Node2</title>
<g id="a_node3"><a xlink:href="../../d6/dec/Raw_2include_2DetectorsRaw_2RDHUtils_8h.html" target="_top" xlink:title="DetectorsRaw/RDHUtils.h">
<polygon fill="none" stroke="#000000" points="363.5,-123.5 363.5,-142.5 504.5,-142.5 504.5,-123.5 363.5,-123.5"/>
<text text-anchor="middle" x="434" y="-130.5" font-family="Helvetica,sans-Serif" font-size="10.00" fill="#000000">DetectorsRaw/RDHUtils.h</text>
</a>
</g>
</g>
<!-- Node0&#45;&gt;Node2 -->
<g id="edge2" class="edge">
<title>Node0&#45;&gt;Node2</title>
<path fill="none" stroke="#191970" d="M547.4564,-179.3511C521.2688,-168.6525 490.036,-155.8928 466.9761,-146.472"/>
<polygon fill="#191970" stroke="#191970" points="468.2132,-143.1966 457.6322,-142.6546 465.5658,-149.6767 468.2132,-143.1966"/>
</g>
<!-- Node14 -->
<g id="node15" class="node">
<title>Node14</title>
<polygon fill="none" stroke="#bfbfbf" points="522.5,-123.5 522.5,-142.5 597.5,-142.5 597.5,-123.5 522.5,-123.5"/>
<text text-anchor="middle" x="560" y="-130.5" font-family="Helvetica,sans-Serif" font-size="10.00" fill="#000000">FairLogger.h</text>
</g>
<!-- Node0&#45;&gt;Node14 -->
<g id="edge16" class="edge">
<title>Node0&#45;&gt;Node14</title>
<path fill="none" stroke="#191970" d="M586.1849,-179.168C581.1827,-170.3484 575.4013,-160.155 570.5455,-151.5933"/>
<polygon fill="#191970" stroke="#191970" points="573.525,-149.7521 565.5471,-142.7805 567.4362,-153.2056 573.525,-149.7521"/>
</g>
<!-- Node15 -->
<g id="node16" class="node">
<title>Node15</title>
<polygon fill="none" stroke="#bfbfbf" points="615,-123.5 615,-142.5 659,-142.5 659,-123.5 615,-123.5"/>
<text text-anchor="middle" x="637" y="-130.5" font-family="Helvetica,sans-Serif" font-size="10.00" fill="#000000">bitset</text>
</g>
<!-- Node0&#45;&gt;Node15 -->
<g id="edge17" class="edge">
<title>Node0&#45;&gt;Node15</title>
<path fill="none" stroke="#191970" d="M610.1261,-179.168C615.2599,-170.3484 621.1934,-160.155 626.177,-151.5933"/>
<polygon fill="#191970" stroke="#191970" points="629.301,-153.1837 631.3069,-142.7805 623.2513,-149.6622 629.301,-153.1837"/>
</g>
<!-- Node16 -->
<g id="node17" class="node">
<title>Node16</title>
<polygon fill="none" stroke="#bfbfbf" points="677,-123.5 677,-142.5 729,-142.5 729,-123.5 677,-123.5"/>
<text text-anchor="middle" x="703" y="-130.5" font-family="Helvetica,sans-Serif" font-size="10.00" fill="#000000">cassert</text>
</g>
<!-- Node0&#45;&gt;Node16 -->
<g id="edge18" class="edge">
<title>Node0&#45;&gt;Node16</title>
<path fill="none" stroke="#191970" d="M630.3602,-179.3511C646.0788,-169.3212 664.6363,-157.4797 679.0597,-148.2762"/>
<polygon fill="#191970" stroke="#191970" points="681.3223,-150.9843 687.8696,-142.6546 677.5569,-145.0833 681.3223,-150.9843"/>
</g>
<!-- Node17 -->
<g id="node18" class="node">
<title>Node17</title>
<polygon fill="none" stroke="#bfbfbf" points="747.5,-123.5 747.5,-142.5 812.5,-142.5 812.5,-123.5 747.5,-123.5"/>
<text text-anchor="middle" x="780" y="-130.5" font-family="Helvetica,sans-Serif" font-size="10.00" fill="#000000">exception</text>
</g>
<!-- Node0&#45;&gt;Node17 -->
<g id="edge19" class="edge">
<title>Node0&#45;&gt;Node17</title>
<path fill="none" stroke="#191970" d="M654.0911,-179.3511C683.4124,-168.557 718.4331,-155.6647 744.0878,-146.2204"/>
<polygon fill="#191970" stroke="#191970" points="745.5988,-149.3939 753.774,-142.6546 743.1805,-142.8249 745.5988,-149.3939"/>
</g>
<!-- Node3 -->
<g id="node4" class="node">
<title>Node3</title>
<g id="a_node4"><a xlink:href="../../df/d21/GPUCommonDef_8h.html" target="_top" xlink:title="GPUCommonDef.h">
<polygon fill="none" stroke="#000000" points="162.5,-62 162.5,-81 269.5,-81 269.5,-62 162.5,-62"/>
<text text-anchor="middle" x="216" y="-69" font-family="Helvetica,sans-Serif" font-size="10.00" fill="#000000">GPUCommonDef.h</text>
</a>
</g>
</g>
<!-- Node2&#45;&gt;Node3 -->
<g id="edge3" class="edge">
<title>Node2&#45;&gt;Node3</title>
<path fill="none" stroke="#191970" d="M399.9375,-123.3906C362.1023,-112.7169 300.9194,-95.4566 259.6115,-83.8033"/>
<polygon fill="#191970" stroke="#191970" points="260.398,-80.3886 249.8233,-81.0419 258.4973,-87.1256 260.398,-80.3886"/>
</g>
<!-- Node6 -->
<g id="node7" class="node">
<title>Node6</title>
<g id="a_node7"><a xlink:href="../../d2/d45/GPUCommonRtypes_8h.html" target="_top" xlink:title="GPUCommonRtypes.h">
<polygon fill="none" stroke="#000000" points="287.5,-62 287.5,-81 412.5,-81 412.5,-62 287.5,-62"/>
<text text-anchor="middle" x="350" y="-69" font-family="Helvetica,sans-Serif" font-size="10.00" fill="#000000">GPUCommonRtypes.h</text>
</a>
</g>
</g>
<!-- Node2&#45;&gt;Node6 -->
<g id="edge6" class="edge">
<title>Node2&#45;&gt;Node6</title>
<path fill="none" stroke="#191970" d="M420.875,-123.3906C407.56,-113.6421 386.7406,-98.3994 371.1053,-86.9521"/>
<polygon fill="#191970" stroke="#191970" points="373.1691,-84.1253 363.0328,-81.0419 369.0339,-89.7734 373.1691,-84.1253"/>
</g>
<!-- Node8 -->
<g id="node9" class="node">
<title>Node8</title>
<g id="a_node9"><a xlink:href="../../d9/d80/InteractionRecord_8h.html" target="_top" xlink:title="CommonDataFormat/Interaction\lRecord.h">
<polygon fill="none" stroke="#000000" points="431,-56.5 431,-86.5 605,-86.5 605,-56.5 431,-56.5"/>
<text text-anchor="start" x="439" y="-74.5" font-family="Helvetica,sans-Serif" font-size="10.00" fill="#000000">CommonDataFormat/Interaction</text>
<text text-anchor="middle" x="518" y="-63.5" font-family="Helvetica,sans-Serif" font-size="10.00" fill="#000000">Record.h</text>
</a>
</g>
</g>
<!-- Node2&#45;&gt;Node8 -->
<g id="edge8" class="edge">
<title>Node2&#45;&gt;Node8</title>
<path fill="none" stroke="#191970" d="M447.125,-123.3906C458.3881,-115.1444 475.0209,-102.9669 489.3434,-92.4807"/>
<polygon fill="#191970" stroke="#191970" points="491.4502,-95.276 497.4513,-86.5446 487.315,-89.628 491.4502,-95.276"/>
</g>
<!-- Node13 -->
<g id="node14" class="node">
<title>Node13</title>
<g id="a_node14"><a xlink:href="../../d4/d78/DataFormats_2Headers_2include_2Headers_2RAWDataHeader_8h.html" target="_top" xlink:title="Headers/RAWDataHeader.h">
<polygon fill="none" stroke="#000000" points="655.5,-62 655.5,-81 804.5,-81 804.5,-62 655.5,-62"/>
<text text-anchor="middle" x="730" y="-69" font-family="Helvetica,sans-Serif" font-size="10.00" fill="#000000">Headers/RAWDataHeader.h</text>
</a>
</g>
</g>
<!-- Node2&#45;&gt;Node13 -->
<g id="edge14" class="edge">
<title>Node2&#45;&gt;Node13</title>
<path fill="none" stroke="#191970" d="M479.9252,-123.4581C532.2067,-112.5956 617.6222,-94.8488 673.8269,-83.1711"/>
<polygon fill="#191970" stroke="#191970" points="674.8881,-86.5254 683.967,-81.0643 673.4641,-79.6718 674.8881,-86.5254"/>
</g>
<!-- Node4 -->
<g id="node5" class="node">
<title>Node4</title>
<g id="a_node5"><a xlink:href="../../d5/d93/GPUCommonDefSettings_8h.html" target="_top" xlink:title="GPUCommonDefSettings.h">
<polygon fill="none" stroke="#000000" points="0,-.5 0,-19.5 148,-19.5 148,-.5 0,-.5"/>
<text text-anchor="middle" x="74" y="-7.5" font-family="Helvetica,sans-Serif" font-size="10.00" fill="#000000">GPUCommonDefSettings.h</text>
</a>
</g>
</g>
<!-- Node3&#45;&gt;Node4 -->
<g id="edge4" class="edge">
<title>Node3&#45;&gt;Node4</title>
<path fill="none" stroke="#191970" d="M193.8125,-61.8906C170.0533,-51.6005 132.1595,-35.1888 105.3575,-23.5809"/>
<polygon fill="#191970" stroke="#191970" points="106.5991,-20.3045 96.0317,-19.5419 103.817,-26.7279 106.5991,-20.3045"/>
</g>
<!-- Node5 -->
<g id="node6" class="node">
<title>Node5</title>
<g id="a_node6"><a xlink:href="../../da/d5a/GPUCommonDefAPI_8h.html" target="_top" xlink:title="GPUCommonDefAPI.h">
<polygon fill="none" stroke="#000000" points="166,-.5 166,-19.5 290,-19.5 290,-.5 166,-.5"/>
<text text-anchor="middle" x="228" y="-7.5" font-family="Helvetica,sans-Serif" font-size="10.00" fill="#000000">GPUCommonDefAPI.h</text>
</a>
</g>
</g>
<!-- Node3&#45;&gt;Node5 -->
<g id="edge5" class="edge">
<title>Node3&#45;&gt;Node5</title>
<path fill="none" stroke="#191970" d="M217.875,-61.8906C219.5559,-53.276 222.074,-40.3708 224.1784,-29.5858"/>
<polygon fill="#191970" stroke="#191970" points="227.6186,-30.2301 226.0986,-19.7449 220.7482,-28.8895 227.6186,-30.2301"/>
</g>
<!-- Node7 -->
<g id="node8" class="node">
<title>Node7</title>
<polygon fill="none" stroke="#bfbfbf" points="320.5,-.5 320.5,-19.5 379.5,-19.5 379.5,-.5 320.5,-.5"/>
<text text-anchor="middle" x="350" y="-7.5" font-family="Helvetica,sans-Serif" font-size="10.00" fill="#000000">Rtypes.h</text>
</g>
<!-- Node6&#45;&gt;Node7 -->
<g id="edge7" class="edge">
<title>Node6&#45;&gt;Node7</title>
<path fill="none" stroke="#191970" d="M350,-61.8906C350,-53.3657 350,-40.6392 350,-29.9235"/>
<polygon fill="#191970" stroke="#191970" points="353.5001,-29.7448 350,-19.7449 346.5001,-29.7449 353.5001,-29.7448"/>
</g>
<!-- Node8&#45;&gt;Node7 -->
<g id="edge9" class="edge">
<title>Node8&#45;&gt;Node7</title>
<path fill="none" stroke="#191970" d="M476.9026,-56.4554C448.9943,-46.239 412.4492,-32.8609 385.7473,-23.0861"/>
<polygon fill="#191970" stroke="#191970" points="386.6278,-19.6813 376.034,-19.5303 384.2214,-26.2547 386.6278,-19.6813"/>
</g>
<!-- Node9 -->
<g id="node10" class="node">
<title>Node9</title>
<polygon fill="none" stroke="#bfbfbf" points="397.5,-.5 397.5,-19.5 446.5,-19.5 446.5,-.5 397.5,-.5"/>
<text text-anchor="middle" x="422" y="-7.5" font-family="Helvetica,sans-Serif" font-size="10.00" fill="#000000">iosfwd</text>
</g>
<!-- Node8&#45;&gt;Node9 -->
<g id="edge10" class="edge">
<title>Node8&#45;&gt;Node9</title>
<path fill="none" stroke="#191970" d="M494.2697,-56.2977C479.4638,-46.8127 460.4772,-34.6495 445.6807,-25.1705"/>
<polygon fill="#191970" stroke="#191970" points="447.3925,-22.1105 437.0841,-19.6633 443.6165,-28.0047 447.3925,-22.1105"/>
</g>
<!-- Node10 -->
<g id="node11" class="node">
<title>Node10</title>
<polygon fill="none" stroke="#bfbfbf" points="464.5,-.5 464.5,-19.5 511.5,-19.5 511.5,-.5 464.5,-.5"/>
<text text-anchor="middle" x="488" y="-7.5" font-family="Helvetica,sans-Serif" font-size="10.00" fill="#000000">cmath</text>
</g>
<!-- Node8&#45;&gt;Node10 -->
<g id="edge11" class="edge">
<title>Node8&#45;&gt;Node10</title>
<path fill="none" stroke="#191970" d="M510.5843,-56.2977C506.5501,-48.0277 501.5227,-37.7215 497.236,-28.9339"/>
<polygon fill="#191970" stroke="#191970" points="500.3334,-27.3001 492.8034,-19.8469 494.042,-30.3691 500.3334,-27.3001"/>
</g>
<!-- Node11 -->
<g id="node12" class="node">
<title>Node11</title>
<polygon fill="none" stroke="#bfbfbf" points="738,-.5 738,-19.5 788,-19.5 788,-.5 738,-.5"/>
<text text-anchor="middle" x="763" y="-7.5" font-family="Helvetica,sans-Serif" font-size="10.00" fill="#000000">cstdint</text>
</g>
<!-- Node8&#45;&gt;Node11 -->
<g id="edge12" class="edge">
<title>Node8&#45;&gt;Node11</title>
<path fill="none" stroke="#191970" d="M583.3113,-56.3894C622.7296,-47.0763 674.1679,-34.5851 728.0552,-20.1743"/>
<polygon fill="#191970" stroke="#191970" points="729.0377,-23.5345 737.786,-17.5581 727.2202,-16.7746 729.0377,-23.5345"/>
</g>
<!-- Node12 -->
<g id="node13" class="node">
<title>Node12</title>
<g id="a_node13"><a xlink:href="../../d4/dc6/LHCConstants_8h.html" target="_top" xlink:title="Header to collect LHC related constants. ">
<polygon fill="none" stroke="#000000" points="530,-.5 530,-19.5 720,-19.5 720,-.5 530,-.5"/>
<text text-anchor="middle" x="625" y="-7.5" font-family="Helvetica,sans-Serif" font-size="10.00" fill="#000000">CommonConstants/LHCConstants.h</text>
</a>
</g>
</g>
<!-- Node8&#45;&gt;Node12 -->
<g id="edge13" class="edge">
<title>Node8&#45;&gt;Node12</title>
<path fill="none" stroke="#191970" d="M544.1751,-56.4554C561.0887,-46.734 582.9829,-34.15 599.7172,-24.5317"/>
<polygon fill="#191970" stroke="#191970" points="601.493,-27.548 608.4188,-19.5303 598.0047,-21.4791 601.493,-27.548"/>
</g>
<!-- Node13&#45;&gt;Node11 -->
<g id="edge15" class="edge">
<title>Node13&#45;&gt;Node11</title>
<path fill="none" stroke="#191970" d="M735.1563,-61.8906C739.9232,-53.0068 747.1385,-39.5601 753.0297,-28.5811"/>
<polygon fill="#191970" stroke="#191970" points="756.1269,-30.2114 757.7711,-19.7449 749.9588,-26.9016 756.1269,-30.2114"/>
</g>
</g>
</svg>
