<?xml version="1.0" encoding="UTF-8" standalone="no"?>
<!DOCTYPE svg PUBLIC "-//W3C//DTD SVG 1.1//EN"
 "http://www.w3.org/Graphics/SVG/1.1/DTD/svg11.dtd">
<!-- Generated by graphviz version 2.40.1 (20161225.0304)
 -->
<!-- Title: /home/travis/build/AliceO2Group/AliceO2/Detectors/Base/include/DetectorsBase/MatLayerCyl.h Pages: 1 -->
<svg width="908pt" height="229pt"
 viewBox="0.00 0.00 908.00 229.00" xmlns="http://www.w3.org/2000/svg" xmlns:xlink="http://www.w3.org/1999/xlink">
<g id="graph0" class="graph" transform="scale(1 1) rotate(0) translate(4 225)">
<title>/home/travis/build/AliceO2Group/AliceO2/Detectors/Base/include/DetectorsBase/MatLayerCyl.h</title>
<!-- Node0 -->
<g id="node1" class="node">
<title>Node0</title>
<polygon fill="#bfbfbf" stroke="#000000" points="222,-168.5 222,-220.5 386,-220.5 386,-168.5 222,-168.5"/>
<text text-anchor="start" x="230" y="-208.5" font-family="Helvetica,sans-Serif" font-size="10.00" fill="#000000">/home/travis/build</text>
<text text-anchor="start" x="230" y="-197.5" font-family="Helvetica,sans-Serif" font-size="10.00" fill="#000000">/AliceO2Group/AliceO2</text>
<text text-anchor="start" x="230" y="-186.5" font-family="Helvetica,sans-Serif" font-size="10.00" fill="#000000">/Detectors/Base/include</text>
<text text-anchor="middle" x="304" y="-175.5" font-family="Helvetica,sans-Serif" font-size="10.00" fill="#000000">/DetectorsBase/MatLayerCyl.h</text>
</g>
<!-- Node1 -->
<g id="node2" class="node">
<title>Node1</title>
<polygon fill="none" stroke="#bfbfbf" points="8.5,-56.5 8.5,-75.5 55.5,-75.5 55.5,-56.5 8.5,-56.5"/>
<text text-anchor="middle" x="32" y="-63.5" font-family="Helvetica,sans-Serif" font-size="10.00" fill="#000000">cmath</text>
</g>
<!-- Node0&#45;&gt;Node1 -->
<g id="edge1" class="edge">
<title>Node0&#45;&gt;Node1</title>
<path fill="none" stroke="#191970" d="M221.8964,-182.8667C158.4271,-172.3051 77.4017,-154.8876 53,-132 40.2804,-120.0696 35.2328,-100.474 33.2468,-85.7275"/>
<polygon fill="#191970" stroke="#191970" points="36.713,-85.2114 32.2485,-75.6032 29.7467,-85.8984 36.713,-85.2114"/>
</g>
<!-- Node2 -->
<g id="node3" class="node">
<title>Node2</title>
<polygon fill="none" stroke="#bfbfbf" points="425,-56.5 425,-75.5 475,-75.5 475,-56.5 425,-56.5"/>
<text text-anchor="middle" x="450" y="-63.5" font-family="Helvetica,sans-Serif" font-size="10.00" fill="#000000">cstring</text>
</g>
<!-- Node0&#45;&gt;Node2 -->
<g id="edge2" class="edge">
<title>Node0&#45;&gt;Node2</title>
<path fill="none" stroke="#191970" d="M348.6086,-168.4316C364.6546,-158.0712 382.3868,-145.4227 397,-132 412.803,-117.4844 427.821,-98.0559 437.8084,-84.0412"/>
<polygon fill="#191970" stroke="#191970" points="440.7609,-85.926 443.6028,-75.7194 435.0163,-81.926 440.7609,-85.926"/>
</g>
<!-- Node3 -->
<g id="node4" class="node">
<title>Node3</title>
<g id="a_node4"><a xlink:href="../../df/d21/GPUCommonDef_8h.html" target="_top" xlink:title="GPUCommonDef.h">
<polygon fill="none" stroke="#000000" points="156.5,-56.5 156.5,-75.5 263.5,-75.5 263.5,-56.5 156.5,-56.5"/>
<text text-anchor="middle" x="210" y="-63.5" font-family="Helvetica,sans-Serif" font-size="10.00" fill="#000000">GPUCommonDef.h</text>
</a>
</g>
</g>
<!-- Node0&#45;&gt;Node3 -->
<g id="edge3" class="edge">
<title>Node0&#45;&gt;Node3</title>
<path fill="none" stroke="#191970" d="M261.1576,-168.2469C248.1451,-158.3587 234.9411,-146.0557 226,-132 217.1999,-118.166 213.2392,-99.8863 211.4569,-86.073"/>
<polygon fill="#191970" stroke="#191970" points="214.8984,-85.3148 210.4138,-75.7159 207.9336,-86.0164 214.8984,-85.3148"/>
</g>
<!-- Node6 -->
<g id="node7" class="node">
<title>Node6</title>
<g id="a_node7"><a xlink:href="../../db/dff/FlatObject_8h.html" target="_top" xlink:title="Definition of FlatObject class. ">
<polygon fill="none" stroke="#000000" points="517.5,-112.5 517.5,-131.5 592.5,-131.5 592.5,-112.5 517.5,-112.5"/>
<text text-anchor="middle" x="555" y="-119.5" font-family="Helvetica,sans-Serif" font-size="10.00" fill="#000000">FlatObject.h</text>
</a>
</g>
</g>
<!-- Node0&#45;&gt;Node6 -->
<g id="edge6" class="edge">
<title>Node0&#45;&gt;Node6</title>
<path fill="none" stroke="#191970" d="M386.1868,-170.7608C428.2181,-158.6203 477.6372,-144.3458 512.1032,-134.3905"/>
<polygon fill="#191970" stroke="#191970" points="513.2153,-137.7125 521.8513,-131.5748 511.2727,-130.9874 513.2153,-137.7125"/>
</g>
<!-- Node11 -->
<g id="node12" class="node">
<title>Node11</title>
<g id="a_node12"><a xlink:href="../../d2/d45/GPUCommonRtypes_8h.html" target="_top" xlink:title="GPUCommonRtypes.h">
<polygon fill="none" stroke="#000000" points="281.5,-56.5 281.5,-75.5 406.5,-75.5 406.5,-56.5 281.5,-56.5"/>
<text text-anchor="middle" x="344" y="-63.5" font-family="Helvetica,sans-Serif" font-size="10.00" fill="#000000">GPUCommonRtypes.h</text>
</a>
</g>
</g>
<!-- Node0&#45;&gt;Node11 -->
<g id="edge18" class="edge">
<title>Node0&#45;&gt;Node11</title>
<path fill="none" stroke="#191970" d="M349.5235,-168.3344C362.0702,-158.6577 374.1148,-146.4564 381,-132 389.2158,-114.7497 376.151,-95.7955 363.3357,-82.6423"/>
<polygon fill="#191970" stroke="#191970" points="365.6328,-79.9965 355.9818,-75.625 360.8003,-85.0608 365.6328,-79.9965"/>
</g>
<!-- Node16 -->
<g id="node17" class="node">
<title>Node16</title>
<g id="a_node17"><a xlink:href="../../d6/da2/GPUCommonMath_8h.html" target="_top" xlink:title="GPUCommonMath.h">
<polygon fill="none" stroke="#000000" points="62.5,-112.5 62.5,-131.5 177.5,-131.5 177.5,-112.5 62.5,-112.5"/>
<text text-anchor="middle" x="120" y="-119.5" font-family="Helvetica,sans-Serif" font-size="10.00" fill="#000000">GPUCommonMath.h</text>
</a>
</g>
</g>
<!-- Node0&#45;&gt;Node16 -->
<g id="edge19" class="edge">
<title>Node0&#45;&gt;Node16</title>
<path fill="none" stroke="#191970" d="M237.8317,-168.4283C209.3441,-157.2035 177.2607,-144.5619 153.7733,-135.3074"/>
<polygon fill="#191970" stroke="#191970" points="154.8561,-131.9722 144.2692,-131.5626 152.2899,-138.4849 154.8561,-131.9722"/>
</g>
<!-- Node18 -->
<g id="node19" class="node">
<title>Node18</title>
<g id="a_node19"><a xlink:href="../../db/dba/MatCell_8h.html" target="_top" xlink:title="Declarations for material properties of the cell (voxel) ">
<polygon fill="none" stroke="#000000" points="235.5,-112.5 235.5,-131.5 372.5,-131.5 372.5,-112.5 235.5,-112.5"/>
<text text-anchor="middle" x="304" y="-119.5" font-family="Helvetica,sans-Serif" font-size="10.00" fill="#000000">DetectorsBase/MatCell.h</text>
</a>
</g>
</g>
<!-- Node0&#45;&gt;Node18 -->
<g id="edge23" class="edge">
<title>Node0&#45;&gt;Node18</title>
<path fill="none" stroke="#191970" d="M304,-168.3258C304,-159.5142 304,-149.8397 304,-141.621"/>
<polygon fill="#191970" stroke="#191970" points="307.5001,-141.534 304,-131.534 300.5001,-141.534 307.5001,-141.534"/>
</g>
<!-- Node4 -->
<g id="node5" class="node">
<title>Node4</title>
<g id="a_node5"><a xlink:href="../../d5/d93/GPUCommonDefSettings_8h.html" target="_top" xlink:title="GPUCommonDefSettings.h">
<polygon fill="none" stroke="#000000" points="142,-.5 142,-19.5 290,-19.5 290,-.5 142,-.5"/>
<text text-anchor="middle" x="216" y="-7.5" font-family="Helvetica,sans-Serif" font-size="10.00" fill="#000000">GPUCommonDefSettings.h</text>
</a>
</g>
</g>
<!-- Node3&#45;&gt;Node4 -->
<g id="edge4" class="edge">
<title>Node3&#45;&gt;Node4</title>
<path fill="none" stroke="#191970" d="M211.0451,-56.2455C211.828,-48.9382 212.9256,-38.6944 213.8888,-29.7046"/>
<polygon fill="#191970" stroke="#191970" points="217.3815,-29.9587 214.9669,-19.6427 210.4214,-29.2129 217.3815,-29.9587"/>
</g>
<!-- Node5 -->
<g id="node6" class="node">
<title>Node5</title>
<g id="a_node6"><a xlink:href="../../da/d5a/GPUCommonDefAPI_8h.html" target="_top" xlink:title="GPUCommonDefAPI.h">
<polygon fill="none" stroke="#000000" points="0,-.5 0,-19.5 124,-19.5 124,-.5 0,-.5"/>
<text text-anchor="middle" x="62" y="-7.5" font-family="Helvetica,sans-Serif" font-size="10.00" fill="#000000">GPUCommonDefAPI.h</text>
</a>
</g>
</g>
<!-- Node3&#45;&gt;Node5 -->
<g id="edge5" class="edge">
<title>Node3&#45;&gt;Node5</title>
<path fill="none" stroke="#191970" d="M184.5579,-56.3733C160.2674,-47.1822 123.4792,-33.2624 96.5457,-23.0713"/>
<polygon fill="#191970" stroke="#191970" points="97.7016,-19.7666 87.1101,-19.5011 95.2243,-26.3136 97.7016,-19.7666"/>
</g>
<!-- Node6&#45;&gt;Node2 -->
<g id="edge9" class="edge">
<title>Node6&#45;&gt;Node2</title>
<path fill="none" stroke="#191970" d="M536.7104,-112.2455C520.2238,-103.4527 495.7648,-90.4079 477.0235,-80.4125"/>
<polygon fill="#191970" stroke="#191970" points="478.5506,-77.2604 468.08,-75.6427 475.2565,-83.4368 478.5506,-77.2604"/>
</g>
<!-- Node6&#45;&gt;Node3 -->
<g id="edge12" class="edge">
<title>Node6&#45;&gt;Node3</title>
<path fill="none" stroke="#191970" d="M517.4222,-115.9004C458.9132,-106.4033 345.3469,-87.9693 273.8274,-76.3604"/>
<polygon fill="#191970" stroke="#191970" points="274.0236,-72.8465 263.592,-74.699 272.902,-79.7561 274.0236,-72.8465"/>
</g>
<!-- Node7 -->
<g id="node8" class="node">
<title>Node7</title>
<polygon fill="none" stroke="#bfbfbf" points="634.5,-56.5 634.5,-75.5 687.5,-75.5 687.5,-56.5 634.5,-56.5"/>
<text text-anchor="middle" x="661" y="-63.5" font-family="Helvetica,sans-Serif" font-size="10.00" fill="#000000">cstddef</text>
</g>
<!-- Node6&#45;&gt;Node7 -->
<g id="edge7" class="edge">
<title>Node6&#45;&gt;Node7</title>
<path fill="none" stroke="#191970" d="M573.4638,-112.2455C590.1074,-103.4527 614.7993,-90.4079 633.7192,-80.4125"/>
<polygon fill="#191970" stroke="#191970" points="635.5408,-83.4086 642.7478,-75.6427 632.2709,-77.2193 635.5408,-83.4086"/>
</g>
<!-- Node8 -->
<g id="node9" class="node">
<title>Node8</title>
<polygon fill="none" stroke="#bfbfbf" points="706,-56.5 706,-75.5 764,-75.5 764,-56.5 706,-56.5"/>
<text text-anchor="middle" x="735" y="-63.5" font-family="Helvetica,sans-Serif" font-size="10.00" fill="#000000">memory</text>
</g>
<!-- Node6&#45;&gt;Node8 -->
<g id="edge8" class="edge">
<title>Node6&#45;&gt;Node8</title>
<path fill="none" stroke="#191970" d="M585.9431,-112.3733C616.4594,-102.8793 663.1941,-88.3396 696.184,-78.0761"/>
<polygon fill="#191970" stroke="#191970" points="697.4391,-81.3512 705.9479,-75.0384 695.3595,-74.6672 697.4391,-81.3512"/>
</g>
<!-- Node9 -->
<g id="node10" class="node">
<title>Node9</title>
<polygon fill="none" stroke="#bfbfbf" points="782,-56.5 782,-75.5 834,-75.5 834,-56.5 782,-56.5"/>
<text text-anchor="middle" x="808" y="-63.5" font-family="Helvetica,sans-Serif" font-size="10.00" fill="#000000">cassert</text>
</g>
<!-- Node6&#45;&gt;Node9 -->
<g id="edge10" class="edge">
<title>Node6&#45;&gt;Node9</title>
<path fill="none" stroke="#191970" d="M592.6004,-114.9008C634.151,-106.8719 703.252,-92.9784 771.604,-76.2266"/>
<polygon fill="#191970" stroke="#191970" points="772.8127,-79.5332 781.6799,-73.7346 771.1321,-72.7379 772.8127,-79.5332"/>
</g>
<!-- Node10 -->
<g id="node11" class="node">
<title>Node10</title>
<polygon fill="none" stroke="#bfbfbf" points="852,-56.5 852,-75.5 900,-75.5 900,-56.5 852,-56.5"/>
<text text-anchor="middle" x="876" y="-63.5" font-family="Helvetica,sans-Serif" font-size="10.00" fill="#000000">TFile.h</text>
</g>
<!-- Node6&#45;&gt;Node10 -->
<g id="edge11" class="edge">
<title>Node6&#45;&gt;Node10</title>
<path fill="none" stroke="#191970" d="M592.5939,-117.6518C646.0465,-111.1088 747.1804,-97.4004 842.1864,-75.9386"/>
<polygon fill="#191970" stroke="#191970" points="842.9861,-79.3462 851.9511,-73.6999 841.4218,-72.5232 842.9861,-79.3462"/>
</g>
<!-- Node6&#45;&gt;Node11 -->
<g id="edge13" class="edge">
<title>Node6&#45;&gt;Node11</title>
<path fill="none" stroke="#191970" d="M518.7278,-112.3733C483.0342,-102.9001 428.4121,-88.4032 389.7549,-78.1435"/>
<polygon fill="#191970" stroke="#191970" points="390.3621,-74.6835 379.7989,-75.5011 388.5664,-81.4493 390.3621,-74.6835"/>
</g>
<!-- Node13 -->
<g id="node14" class="node">
<title>Node13</title>
<g id="a_node14"><a xlink:href="../../df/d5b/GPUCommonLogger_8h.html" target="_top" xlink:title="GPUCommonLogger.h">
<polygon fill="none" stroke="#000000" points="493.5,-56.5 493.5,-75.5 616.5,-75.5 616.5,-56.5 493.5,-56.5"/>
<text text-anchor="middle" x="555" y="-63.5" font-family="Helvetica,sans-Serif" font-size="10.00" fill="#000000">GPUCommonLogger.h</text>
</a>
</g>
</g>
<!-- Node6&#45;&gt;Node13 -->
<g id="edge15" class="edge">
<title>Node6&#45;&gt;Node13</title>
<path fill="none" stroke="#191970" d="M555,-112.2455C555,-104.9382 555,-94.6944 555,-85.7046"/>
<polygon fill="#191970" stroke="#191970" points="558.5001,-85.6426 555,-75.6427 551.5001,-85.6427 558.5001,-85.6426"/>
</g>
<!-- Node12 -->
<g id="node13" class="node">
<title>Node12</title>
<polygon fill="none" stroke="#bfbfbf" points="314.5,-.5 314.5,-19.5 373.5,-19.5 373.5,-.5 314.5,-.5"/>
<text text-anchor="middle" x="344" y="-7.5" font-family="Helvetica,sans-Serif" font-size="10.00" fill="#000000">Rtypes.h</text>
</g>
<!-- Node11&#45;&gt;Node12 -->
<g id="edge14" class="edge">
<title>Node11&#45;&gt;Node12</title>
<path fill="none" stroke="#191970" d="M344,-56.2455C344,-48.9382 344,-38.6944 344,-29.7046"/>
<polygon fill="#191970" stroke="#191970" points="347.5001,-29.6426 344,-19.6427 340.5001,-29.6427 347.5001,-29.6426"/>
</g>
<!-- Node14 -->
<g id="node15" class="node">
<title>Node14</title>
<polygon fill="none" stroke="#bfbfbf" points="561,-.5 561,-19.5 621,-19.5 621,-.5 561,-.5"/>
<text text-anchor="middle" x="591" y="-7.5" font-family="Helvetica,sans-Serif" font-size="10.00" fill="#000000">iostream</text>
</g>
<!-- Node13&#45;&gt;Node14 -->
<g id="edge16" class="edge">
<title>Node13&#45;&gt;Node14</title>
<path fill="none" stroke="#191970" d="M561.2707,-56.2455C566.2264,-48.5367 573.283,-37.5598 579.2776,-28.2348"/>
<polygon fill="#191970" stroke="#191970" points="582.3376,-29.9471 584.8011,-19.6427 576.4494,-26.1618 582.3376,-29.9471"/>
</g>
<!-- Node15 -->
<g id="node16" class="node">
<title>Node15</title>
<polygon fill="none" stroke="#bfbfbf" points="497,-.5 497,-19.5 543,-19.5 543,-.5 497,-.5"/>
<text text-anchor="middle" x="520" y="-7.5" font-family="Helvetica,sans-Serif" font-size="10.00" fill="#000000">cstdio</text>
</g>
<!-- Node13&#45;&gt;Node15 -->
<g id="edge17" class="edge">
<title>Node13&#45;&gt;Node15</title>
<path fill="none" stroke="#191970" d="M548.9035,-56.2455C544.0855,-48.5367 537.2249,-37.5598 531.3968,-28.2348"/>
<polygon fill="#191970" stroke="#191970" points="534.2947,-26.2677 526.0267,-19.6427 528.3587,-29.9777 534.2947,-26.2677"/>
</g>
<!-- Node16&#45;&gt;Node1 -->
<g id="edge21" class="edge">
<title>Node16&#45;&gt;Node1</title>
<path fill="none" stroke="#191970" d="M104.6716,-112.2455C91.1697,-103.6534 71.2878,-91.0014 55.7314,-81.1018"/>
<polygon fill="#191970" stroke="#191970" points="57.4685,-78.0587 47.1528,-75.6427 53.7103,-83.9643 57.4685,-78.0587"/>
</g>
<!-- Node16&#45;&gt;Node3 -->
<g id="edge20" class="edge">
<title>Node16&#45;&gt;Node3</title>
<path fill="none" stroke="#191970" d="M135.6768,-112.2455C149.4856,-103.6534 169.8193,-91.0014 185.7292,-81.1018"/>
<polygon fill="#191970" stroke="#191970" points="187.8613,-83.8974 194.5028,-75.6427 184.1632,-77.954 187.8613,-83.8974"/>
</g>
<!-- Node17 -->
<g id="node18" class="node">
<title>Node17</title>
<polygon fill="none" stroke="#bfbfbf" points="74,-56.5 74,-75.5 138,-75.5 138,-56.5 74,-56.5"/>
<text text-anchor="middle" x="106" y="-63.5" font-family="Helvetica,sans-Serif" font-size="10.00" fill="#000000">algorithm</text>
</g>
<!-- Node16&#45;&gt;Node17 -->
<g id="edge22" class="edge">
<title>Node16&#45;&gt;Node17</title>
<path fill="none" stroke="#191970" d="M117.5614,-112.2455C115.7145,-104.8579 113.1172,-94.4689 110.8522,-85.4087"/>
<polygon fill="#191970" stroke="#191970" points="114.2316,-84.4952 108.4107,-75.6427 107.4406,-86.193 114.2316,-84.4952"/>
</g>
<!-- Node18&#45;&gt;Node3 -->
<g id="edge24" class="edge">
<title>Node18&#45;&gt;Node3</title>
<path fill="none" stroke="#191970" d="M287.6264,-112.2455C273.0692,-103.5731 251.569,-90.7645 234.8848,-80.825"/>
<polygon fill="#191970" stroke="#191970" points="236.5683,-77.7539 226.1859,-75.6427 232.9856,-83.7676 236.5683,-77.7539"/>
</g>
<!-- Node18&#45;&gt;Node11 -->
<g id="edge25" class="edge">
<title>Node18&#45;&gt;Node11</title>
<path fill="none" stroke="#191970" d="M310.9675,-112.2455C316.5311,-104.4564 324.478,-93.3308 331.1829,-83.9439"/>
<polygon fill="#191970" stroke="#191970" points="334.148,-85.8144 337.1124,-75.6427 328.4519,-81.7457 334.148,-85.8144"/>
</g>
</g>
</svg>
