<?xml version="1.0" encoding="UTF-8" standalone="no"?>
<!DOCTYPE svg PUBLIC "-//W3C//DTD SVG 1.1//EN"
 "http://www.w3.org/Graphics/SVG/1.1/DTD/svg11.dtd">
<!-- Generated by graphviz version 2.40.1 (20161225.0304)
 -->
<!-- Title: /home/travis/build/AliceO2Group/AliceO2/Detectors/Base/src/Ray.cxx Pages: 1 -->
<svg width="2239pt" height="352pt"
 viewBox="0.00 0.00 2238.51 352.00" xmlns="http://www.w3.org/2000/svg" xmlns:xlink="http://www.w3.org/1999/xlink">
<g id="graph0" class="graph" transform="scale(1 1) rotate(0) translate(4 348)">
<title>/home/travis/build/AliceO2Group/AliceO2/Detectors/Base/src/Ray.cxx</title>
<!-- Node0 -->
<g id="node1" class="node">
<title>Node0</title>
<polygon fill="#bfbfbf" stroke="#000000" points="1692.5,-302.5 1692.5,-343.5 1844.5,-343.5 1844.5,-302.5 1692.5,-302.5"/>
<text text-anchor="start" x="1700.5" y="-331.5" font-family="Helvetica,sans-Serif" font-size="10.00" fill="#000000">/home/travis/build</text>
<text text-anchor="start" x="1700.5" y="-320.5" font-family="Helvetica,sans-Serif" font-size="10.00" fill="#000000">/AliceO2Group/AliceO2</text>
<text text-anchor="middle" x="1768.5" y="-309.5" font-family="Helvetica,sans-Serif" font-size="10.00" fill="#000000">/Detectors/Base/src/Ray.cxx</text>
</g>
<!-- Node1 -->
<g id="node2" class="node">
<title>Node1</title>
<g id="a_node2"><a xlink:href="../../d4/d1b/Ray_8h.html" target="_top" xlink:title="DetectorsBase/Ray.h">
<polygon fill="none" stroke="#000000" points="1637,-246.5 1637,-265.5 1754,-265.5 1754,-246.5 1637,-246.5"/>
<text text-anchor="middle" x="1695.5" y="-253.5" font-family="Helvetica,sans-Serif" font-size="10.00" fill="#000000">DetectorsBase/Ray.h</text>
</a>
</g>
</g>
<!-- Node0&#45;&gt;Node1 -->
<g id="edge1" class="edge">
<title>Node0&#45;&gt;Node1</title>
<path fill="none" stroke="#191970" d="M1745.8025,-302.168C1735.4698,-292.6846 1723.4064,-281.6127 1713.6836,-272.689"/>
<polygon fill="#191970" stroke="#191970" points="1715.8904,-269.9637 1706.1563,-265.7805 1711.1571,-275.1209 1715.8904,-269.9637"/>
</g>
<!-- Node7 -->
<g id="node8" class="node">
<title>Node7</title>
<g id="a_node8"><a xlink:href="../../d6/da2/GPUCommonMath_8h.html" target="_top" xlink:title="GPUCommonMath.h">
<polygon fill="none" stroke="#000000" points="1828,-129 1828,-148 1943,-148 1943,-129 1828,-129"/>
<text text-anchor="middle" x="1885.5" y="-136" font-family="Helvetica,sans-Serif" font-size="10.00" fill="#000000">GPUCommonMath.h</text>
</a>
</g>
</g>
<!-- Node0&#45;&gt;Node7 -->
<g id="edge49" class="edge">
<title>Node0&#45;&gt;Node7</title>
<path fill="none" stroke="#191970" d="M1781.694,-302.1941C1804.7465,-265.8421 1851.9836,-191.3528 1873.8801,-156.8237"/>
<polygon fill="#191970" stroke="#191970" points="1876.9432,-158.5288 1879.3429,-148.2092 1871.0317,-154.7799 1876.9432,-158.5288"/>
</g>
<!-- Node2 -->
<g id="node3" class="node">
<title>Node2</title>
<g id="a_node3"><a xlink:href="../../d2/d45/GPUCommonRtypes_8h.html" target="_top" xlink:title="GPUCommonRtypes.h">
<polygon fill="none" stroke="#000000" points="1305,-62 1305,-81 1430,-81 1430,-62 1305,-62"/>
<text text-anchor="middle" x="1367.5" y="-69" font-family="Helvetica,sans-Serif" font-size="10.00" fill="#000000">GPUCommonRtypes.h</text>
</a>
</g>
</g>
<!-- Node1&#45;&gt;Node2 -->
<g id="edge2" class="edge">
<title>Node1&#45;&gt;Node2</title>
<path fill="none" stroke="#191970" d="M1636.8522,-247.6602C1579.9874,-238.9343 1498.2265,-224.5089 1469.5,-210 1436.3559,-193.2599 1429.7887,-183.6981 1407.5,-154 1392.7036,-134.2849 1381.1714,-108.2328 1374.3686,-90.7249"/>
<polygon fill="#191970" stroke="#191970" points="1377.5363,-89.2029 1370.7572,-81.0608 1370.9792,-91.6533 1377.5363,-89.2029"/>
</g>
<!-- Node4 -->
<g id="node5" class="node">
<title>Node4</title>
<g id="a_node5"><a xlink:href="../../df/d21/GPUCommonDef_8h.html" target="_top" xlink:title="GPUCommonDef.h">
<polygon fill="none" stroke="#000000" points="1448,-62 1448,-81 1555,-81 1555,-62 1448,-62"/>
<text text-anchor="middle" x="1501.5" y="-69" font-family="Helvetica,sans-Serif" font-size="10.00" fill="#000000">GPUCommonDef.h</text>
</a>
</g>
</g>
<!-- Node1&#45;&gt;Node4 -->
<g id="edge4" class="edge">
<title>Node1&#45;&gt;Node4</title>
<path fill="none" stroke="#191970" d="M1652.366,-246.4871C1581.3976,-229.8645 1445.0934,-193.5163 1417.5,-154 1409.612,-142.7037 1410.7692,-135.0218 1417.5,-123 1427.2304,-105.6208 1445.4868,-93.3969 1462.5004,-85.234"/>
<polygon fill="#191970" stroke="#191970" points="1464.0508,-88.3749 1471.7624,-81.1099 1461.2034,-81.9802 1464.0508,-88.3749"/>
</g>
<!-- Node1&#45;&gt;Node7 -->
<g id="edge7" class="edge">
<title>Node1&#45;&gt;Node7</title>
<path fill="none" stroke="#191970" d="M1716.3454,-246.4299C1734.8964,-237.6606 1762.5641,-223.9553 1785.5,-210 1814.2469,-192.5089 1845.5161,-169.4416 1865.2963,-154.3014"/>
<polygon fill="#191970" stroke="#191970" points="1867.4974,-157.0239 1873.2774,-148.1445 1863.2217,-151.4813 1867.4974,-157.0239"/>
</g>
<!-- Node10 -->
<g id="node11" class="node">
<title>Node10</title>
<g id="a_node11"><a xlink:href="../../da/df3/MatLayerCyl_8h.html" target="_top" xlink:title="Declarations for single cylindrical material layer class. ">
<polygon fill="none" stroke="#000000" points="1615,-190.5 1615,-209.5 1776,-209.5 1776,-190.5 1615,-190.5"/>
<text text-anchor="middle" x="1695.5" y="-197.5" font-family="Helvetica,sans-Serif" font-size="10.00" fill="#000000">DetectorsBase/MatLayerCyl.h</text>
</a>
</g>
</g>
<!-- Node1&#45;&gt;Node10 -->
<g id="edge11" class="edge">
<title>Node1&#45;&gt;Node10</title>
<path fill="none" stroke="#191970" d="M1695.5,-246.2455C1695.5,-238.9382 1695.5,-228.6944 1695.5,-219.7046"/>
<polygon fill="#191970" stroke="#191970" points="1699.0001,-219.6426 1695.5,-209.6427 1692.0001,-219.6427 1699.0001,-219.6426"/>
</g>
<!-- Node21 -->
<g id="node22" class="node">
<title>Node21</title>
<g id="a_node22"><a xlink:href="../../d9/d52/Common_2MathUtils_2include_2MathUtils_2Utils_8h.html" target="_top" xlink:title="MathUtils/Utils.h">
<polygon fill="none" stroke="#000000" points="1917.5,-190.5 1917.5,-209.5 2015.5,-209.5 2015.5,-190.5 1917.5,-190.5"/>
<text text-anchor="middle" x="1966.5" y="-197.5" font-family="Helvetica,sans-Serif" font-size="10.00" fill="#000000">MathUtils/Utils.h</text>
</a>
</g>
</g>
<!-- Node1&#45;&gt;Node21 -->
<g id="edge31" class="edge">
<title>Node1&#45;&gt;Node21</title>
<path fill="none" stroke="#191970" d="M1741.7786,-246.4369C1788.4505,-236.7925 1860.5449,-221.8948 1910.4331,-211.5858"/>
<polygon fill="#191970" stroke="#191970" points="1911.3274,-214.975 1920.4122,-209.5237 1909.9108,-208.1198 1911.3274,-214.975"/>
</g>
<!-- Node24 -->
<g id="node25" class="node">
<title>Node24</title>
<g id="a_node25"><a xlink:href="../../dd/d76/Cartesian3D_8h.html" target="_top" xlink:title="MathUtils/Cartesian3D.h">
<polygon fill="none" stroke="#000000" points="779,-190.5 779,-209.5 914,-209.5 914,-190.5 779,-190.5"/>
<text text-anchor="middle" x="846.5" y="-197.5" font-family="Helvetica,sans-Serif" font-size="10.00" fill="#000000">MathUtils/Cartesian3D.h</text>
</a>
</g>
</g>
<!-- Node1&#45;&gt;Node24 -->
<g id="edge37" class="edge">
<title>Node1&#45;&gt;Node24</title>
<path fill="none" stroke="#191970" d="M1636.8098,-252.1288C1487.3803,-242.2724 1092.4991,-216.2261 924.2271,-205.1269"/>
<polygon fill="#191970" stroke="#191970" points="924.4109,-201.6315 914.2022,-204.4656 923.9501,-208.6163 924.4109,-201.6315"/>
</g>
<!-- Node3 -->
<g id="node4" class="node">
<title>Node3</title>
<polygon fill="none" stroke="#bfbfbf" points="1293,-.5 1293,-19.5 1352,-19.5 1352,-.5 1293,-.5"/>
<text text-anchor="middle" x="1322.5" y="-7.5" font-family="Helvetica,sans-Serif" font-size="10.00" fill="#000000">Rtypes.h</text>
</g>
<!-- Node2&#45;&gt;Node3 -->
<g id="edge3" class="edge">
<title>Node2&#45;&gt;Node3</title>
<path fill="none" stroke="#191970" d="M1360.4688,-61.8906C1353.837,-52.8273 1343.7304,-39.0149 1335.6113,-27.9188"/>
<polygon fill="#191970" stroke="#191970" points="1338.3601,-25.7484 1329.6304,-19.7449 1332.7109,-29.882 1338.3601,-25.7484"/>
</g>
<!-- Node5 -->
<g id="node6" class="node">
<title>Node5</title>
<g id="a_node6"><a xlink:href="../../d5/d93/GPUCommonDefSettings_8h.html" target="_top" xlink:title="GPUCommonDefSettings.h">
<polygon fill="none" stroke="#000000" points="1547.5,-.5 1547.5,-19.5 1695.5,-19.5 1695.5,-.5 1547.5,-.5"/>
<text text-anchor="middle" x="1621.5" y="-7.5" font-family="Helvetica,sans-Serif" font-size="10.00" fill="#000000">GPUCommonDefSettings.h</text>
</a>
</g>
</g>
<!-- Node4&#45;&gt;Node5 -->
<g id="edge5" class="edge">
<title>Node4&#45;&gt;Node5</title>
<path fill="none" stroke="#191970" d="M1520.25,-61.8906C1539.976,-51.7811 1571.2312,-35.7628 1593.8,-24.1962"/>
<polygon fill="#191970" stroke="#191970" points="1595.5787,-27.2176 1602.8817,-19.5419 1592.386,-20.9881 1595.5787,-27.2176"/>
</g>
<!-- Node6 -->
<g id="node7" class="node">
<title>Node6</title>
<g id="a_node7"><a xlink:href="../../da/d5a/GPUCommonDefAPI_8h.html" target="_top" xlink:title="GPUCommonDefAPI.h">
<polygon fill="none" stroke="#000000" points="1405.5,-.5 1405.5,-19.5 1529.5,-19.5 1529.5,-.5 1405.5,-.5"/>
<text text-anchor="middle" x="1467.5" y="-7.5" font-family="Helvetica,sans-Serif" font-size="10.00" fill="#000000">GPUCommonDefAPI.h</text>
</a>
</g>
</g>
<!-- Node4&#45;&gt;Node6 -->
<g id="edge6" class="edge">
<title>Node4&#45;&gt;Node6</title>
<path fill="none" stroke="#191970" d="M1496.1875,-61.8906C1491.2761,-53.0068 1483.8421,-39.5601 1477.7725,-28.5811"/>
<polygon fill="#191970" stroke="#191970" points="1480.7888,-26.8031 1472.8874,-19.7449 1474.6627,-30.1899 1480.7888,-26.8031"/>
</g>
<!-- Node7&#45;&gt;Node4 -->
<g id="edge8" class="edge">
<title>Node7&#45;&gt;Node4</title>
<path fill="none" stroke="#191970" d="M1827.8368,-130.7054C1763.3855,-121.6554 1656.0463,-105.5726 1564.5,-87 1559.1186,-85.9082 1553.5021,-84.6702 1547.9353,-83.3812"/>
<polygon fill="#191970" stroke="#191970" points="1548.5685,-79.9342 1538.0301,-81.0265 1546.9495,-86.7445 1548.5685,-79.9342"/>
</g>
<!-- Node8 -->
<g id="node9" class="node">
<title>Node8</title>
<polygon fill="none" stroke="#bfbfbf" points="2149,-62 2149,-81 2196,-81 2196,-62 2149,-62"/>
<text text-anchor="middle" x="2172.5" y="-69" font-family="Helvetica,sans-Serif" font-size="10.00" fill="#000000">cmath</text>
</g>
<!-- Node7&#45;&gt;Node8 -->
<g id="edge9" class="edge">
<title>Node7&#45;&gt;Node8</title>
<path fill="none" stroke="#191970" d="M1925.4804,-128.9947C1934.3622,-126.9546 1943.7401,-124.8558 1952.5,-123 2035.2995,-105.4588 2059.0181,-113.1938 2139.5,-87 2141.3508,-86.3976 2143.2331,-85.7163 2145.1127,-84.9838"/>
<polygon fill="#191970" stroke="#191970" points="2146.5241,-88.1868 2154.3286,-81.0216 2143.7593,-81.7559 2146.5241,-88.1868"/>
</g>
<!-- Node9 -->
<g id="node10" class="node">
<title>Node9</title>
<polygon fill="none" stroke="#bfbfbf" points="2066.5,-62 2066.5,-81 2130.5,-81 2130.5,-62 2066.5,-62"/>
<text text-anchor="middle" x="2098.5" y="-69" font-family="Helvetica,sans-Serif" font-size="10.00" fill="#000000">algorithm</text>
</g>
<!-- Node7&#45;&gt;Node9 -->
<g id="edge10" class="edge">
<title>Node7&#45;&gt;Node9</title>
<path fill="none" stroke="#191970" d="M1919.9909,-128.947C1954.8797,-119.1029 2010.2562,-102.9809 2057.5,-87 2059.7504,-86.2388 2062.0617,-85.4327 2064.3855,-84.604"/>
<polygon fill="#191970" stroke="#191970" points="2065.6974,-87.851 2073.8853,-81.1273 2063.2915,-81.2774 2065.6974,-87.851"/>
</g>
<!-- Node10&#45;&gt;Node2 -->
<g id="edge26" class="edge">
<title>Node10&#45;&gt;Node2</title>
<path fill="none" stroke="#191970" d="M1614.8302,-194.1233C1544.4957,-187.6702 1448.9492,-175.2836 1417.5,-154 1395.0301,-138.7933 1380.9761,-109.7953 1373.6847,-90.5502"/>
<polygon fill="#191970" stroke="#191970" points="1376.9471,-89.2771 1370.3192,-81.0114 1370.3459,-91.6062 1376.9471,-89.2771"/>
</g>
<!-- Node10&#45;&gt;Node4 -->
<g id="edge14" class="edge">
<title>Node10&#45;&gt;Node4</title>
<path fill="none" stroke="#191970" d="M1677.7053,-190.4674C1661.2803,-181.5054 1636.3512,-167.4871 1615.5,-154 1613.1445,-152.4764 1555.4523,-110.6467 1523.065,-87.1495"/>
<polygon fill="#191970" stroke="#191970" points="1524.8175,-84.0969 1514.6681,-81.057 1520.7066,-89.7626 1524.8175,-84.0969"/>
</g>
<!-- Node10&#45;&gt;Node7 -->
<g id="edge27" class="edge">
<title>Node10&#45;&gt;Node7</title>
<path fill="none" stroke="#191970" d="M1725.1875,-190.3906C1757.8146,-179.8298 1810.3626,-162.8208 1846.3425,-151.1747"/>
<polygon fill="#191970" stroke="#191970" points="1847.5848,-154.4514 1856.021,-148.0419 1845.4291,-147.7916 1847.5848,-154.4514"/>
</g>
<!-- Node10&#45;&gt;Node8 -->
<g id="edge12" class="edge">
<title>Node10&#45;&gt;Node8</title>
<path fill="none" stroke="#191970" d="M1715.019,-190.4247C1732.3748,-181.652 1758.2234,-167.9447 1779.5,-154 1798.3115,-141.671 1798.6604,-131.4609 1819.5,-123 1952.1068,-69.1614 2001.7805,-125.9423 2139.5,-87 2141.4186,-86.4575 2143.3647,-85.8138 2145.3025,-85.1021"/>
<polygon fill="#191970" stroke="#191970" points="2146.8929,-88.2303 2154.7561,-81.1295 2144.181,-81.7769 2146.8929,-88.2303"/>
</g>
<!-- Node11 -->
<g id="node12" class="node">
<title>Node11</title>
<polygon fill="none" stroke="#bfbfbf" points="1998.5,-62 1998.5,-81 2048.5,-81 2048.5,-62 1998.5,-62"/>
<text text-anchor="middle" x="2023.5" y="-69" font-family="Helvetica,sans-Serif" font-size="10.00" fill="#000000">cstring</text>
</g>
<!-- Node10&#45;&gt;Node11 -->
<g id="edge13" class="edge">
<title>Node10&#45;&gt;Node11</title>
<path fill="none" stroke="#191970" d="M1705.3068,-190.4261C1724.6409,-171.7566 1767.3707,-131.5613 1785.5,-123 1868.7515,-83.6856 1901.5773,-114.3137 1989.5,-87 1991.405,-86.4082 1993.3429,-85.7349 1995.2784,-85.0083"/>
<polygon fill="#191970" stroke="#191970" points="1996.8815,-88.1323 2004.771,-81.0607 1994.1936,-81.6689 1996.8815,-88.1323"/>
</g>
<!-- Node12 -->
<g id="node13" class="node">
<title>Node12</title>
<g id="a_node13"><a xlink:href="../../db/dff/FlatObject_8h.html" target="_top" xlink:title="Definition of FlatObject class. ">
<polygon fill="none" stroke="#000000" points="1658,-129 1658,-148 1733,-148 1733,-129 1658,-129"/>
<text text-anchor="middle" x="1695.5" y="-136" font-family="Helvetica,sans-Serif" font-size="10.00" fill="#000000">FlatObject.h</text>
</a>
</g>
</g>
<!-- Node10&#45;&gt;Node12 -->
<g id="edge15" class="edge">
<title>Node10&#45;&gt;Node12</title>
<path fill="none" stroke="#191970" d="M1695.5,-190.3906C1695.5,-181.8657 1695.5,-169.1392 1695.5,-158.4235"/>
<polygon fill="#191970" stroke="#191970" points="1699.0001,-158.2448 1695.5,-148.2449 1692.0001,-158.2449 1699.0001,-158.2448"/>
</g>
<!-- Node20 -->
<g id="node21" class="node">
<title>Node20</title>
<g id="a_node21"><a xlink:href="../../db/dba/MatCell_8h.html" target="_top" xlink:title="Declarations for material properties of the cell (voxel) ">
<polygon fill="none" stroke="#000000" points="1426,-129 1426,-148 1563,-148 1563,-129 1426,-129"/>
<text text-anchor="middle" x="1494.5" y="-136" font-family="Helvetica,sans-Serif" font-size="10.00" fill="#000000">DetectorsBase/MatCell.h</text>
</a>
</g>
</g>
<!-- Node10&#45;&gt;Node20 -->
<g id="edge28" class="edge">
<title>Node10&#45;&gt;Node20</title>
<path fill="none" stroke="#191970" d="M1664.0938,-190.3906C1629.4302,-179.7846 1573.5119,-162.6753 1535.4375,-151.0257"/>
<polygon fill="#191970" stroke="#191970" points="1536.2722,-147.6209 1525.6857,-148.0419 1534.2241,-154.3146 1536.2722,-147.6209"/>
</g>
<!-- Node12&#45;&gt;Node2 -->
<g id="edge22" class="edge">
<title>Node12&#45;&gt;Node2</title>
<path fill="none" stroke="#191970" d="M1657.7304,-131.0677C1607.7591,-121.1963 1516.9483,-103.1259 1439.5,-87 1433.6459,-85.7811 1427.5279,-84.4903 1421.4378,-83.1945"/>
<polygon fill="#191970" stroke="#191970" points="1421.7771,-79.688 1411.2664,-81.0209 1420.3142,-86.5335 1421.7771,-79.688"/>
</g>
<!-- Node12&#45;&gt;Node4 -->
<g id="edge21" class="edge">
<title>Node12&#45;&gt;Node4</title>
<path fill="none" stroke="#191970" d="M1667.7045,-128.9005C1633.8504,-117.2086 1576.5293,-97.4122 1538.8453,-84.3976"/>
<polygon fill="#191970" stroke="#191970" points="1539.8387,-81.0379 1529.2439,-81.0817 1537.5535,-87.6544 1539.8387,-81.0379"/>
</g>
<!-- Node12&#45;&gt;Node11 -->
<g id="edge18" class="edge">
<title>Node12&#45;&gt;Node11</title>
<path fill="none" stroke="#191970" d="M1724.7344,-128.994C1732.1103,-126.815 1740.0513,-124.6554 1747.5,-123 1853.6494,-99.4095 1885.2303,-117.8551 1989.5,-87 1991.4128,-86.434 1993.3567,-85.7803 1995.2965,-85.0681"/>
<polygon fill="#191970" stroke="#191970" points="1996.8852,-88.1992 2004.7999,-81.1559 1994.2204,-81.7262 1996.8852,-88.1992"/>
</g>
<!-- Node13 -->
<g id="node14" class="node">
<title>Node13</title>
<polygon fill="none" stroke="#bfbfbf" points="1927,-62 1927,-81 1980,-81 1980,-62 1927,-62"/>
<text text-anchor="middle" x="1953.5" y="-69" font-family="Helvetica,sans-Serif" font-size="10.00" fill="#000000">cstddef</text>
</g>
<!-- Node12&#45;&gt;Node13 -->
<g id="edge16" class="edge">
<title>Node12&#45;&gt;Node13</title>
<path fill="none" stroke="#191970" d="M1725.9048,-128.9809C1732.9637,-126.8981 1740.4693,-124.7847 1747.5,-123 1822.7784,-103.891 1844.5883,-110.8551 1918.5,-87 1920.3973,-86.3876 1922.3306,-85.7059 1924.2653,-84.9796"/>
<polygon fill="#191970" stroke="#191970" points="1925.8571,-88.1102 1933.7919,-81.0895 1923.2108,-81.6297 1925.8571,-88.1102"/>
</g>
<!-- Node14 -->
<g id="node15" class="node">
<title>Node14</title>
<polygon fill="none" stroke="#bfbfbf" points="1573.5,-62 1573.5,-81 1631.5,-81 1631.5,-62 1573.5,-62"/>
<text text-anchor="middle" x="1602.5" y="-69" font-family="Helvetica,sans-Serif" font-size="10.00" fill="#000000">memory</text>
</g>
<!-- Node12&#45;&gt;Node14 -->
<g id="edge17" class="edge">
<title>Node12&#45;&gt;Node14</title>
<path fill="none" stroke="#191970" d="M1682.1754,-128.9005C1666.9822,-117.9549 1641.9297,-99.9064 1623.9716,-86.9688"/>
<polygon fill="#191970" stroke="#191970" points="1625.9595,-84.0872 1615.7999,-81.0817 1621.8677,-89.7668 1625.9595,-84.0872"/>
</g>
<!-- Node15 -->
<g id="node16" class="node">
<title>Node15</title>
<polygon fill="none" stroke="#bfbfbf" points="1649.5,-62 1649.5,-81 1701.5,-81 1701.5,-62 1649.5,-62"/>
<text text-anchor="middle" x="1675.5" y="-69" font-family="Helvetica,sans-Serif" font-size="10.00" fill="#000000">cassert</text>
</g>
<!-- Node12&#45;&gt;Node15 -->
<g id="edge19" class="edge">
<title>Node12&#45;&gt;Node15</title>
<path fill="none" stroke="#191970" d="M1692.6345,-128.9005C1689.6939,-119.0495 1685.0358,-103.4451 1681.3183,-90.9912"/>
<polygon fill="#191970" stroke="#191970" points="1684.5744,-89.6627 1678.3602,-81.0817 1677.8669,-91.665 1684.5744,-89.6627"/>
</g>
<!-- Node16 -->
<g id="node17" class="node">
<title>Node16</title>
<polygon fill="none" stroke="#bfbfbf" points="1719.5,-62 1719.5,-81 1767.5,-81 1767.5,-62 1719.5,-62"/>
<text text-anchor="middle" x="1743.5" y="-69" font-family="Helvetica,sans-Serif" font-size="10.00" fill="#000000">TFile.h</text>
</g>
<!-- Node12&#45;&gt;Node16 -->
<g id="edge20" class="edge">
<title>Node12&#45;&gt;Node16</title>
<path fill="none" stroke="#191970" d="M1702.3772,-128.9005C1709.7198,-118.6515 1721.5241,-102.1747 1730.6062,-89.4976"/>
<polygon fill="#191970" stroke="#191970" points="1733.6568,-91.2492 1736.6355,-81.0817 1727.9664,-87.1724 1733.6568,-91.2492"/>
</g>
<!-- Node17 -->
<g id="node18" class="node">
<title>Node17</title>
<g id="a_node18"><a xlink:href="../../df/d5b/GPUCommonLogger_8h.html" target="_top" xlink:title="GPUCommonLogger.h">
<polygon fill="none" stroke="#000000" points="1786,-62 1786,-81 1909,-81 1909,-62 1786,-62"/>
<text text-anchor="middle" x="1847.5" y="-69" font-family="Helvetica,sans-Serif" font-size="10.00" fill="#000000">GPUCommonLogger.h</text>
</a>
</g>
</g>
<!-- Node12&#45;&gt;Node17 -->
<g id="edge23" class="edge">
<title>Node12&#45;&gt;Node17</title>
<path fill="none" stroke="#191970" d="M1717.2779,-128.9005C1743.2384,-117.4574 1786.8113,-98.2509 1816.3346,-85.2374"/>
<polygon fill="#191970" stroke="#191970" points="1818.0237,-88.3178 1825.7625,-81.0817 1815.2003,-81.9125 1818.0237,-88.3178"/>
</g>
<!-- Node18 -->
<g id="node19" class="node">
<title>Node18</title>
<polygon fill="none" stroke="#bfbfbf" points="1852.5,-.5 1852.5,-19.5 1912.5,-19.5 1912.5,-.5 1852.5,-.5"/>
<text text-anchor="middle" x="1882.5" y="-7.5" font-family="Helvetica,sans-Serif" font-size="10.00" fill="#000000">iostream</text>
</g>
<!-- Node17&#45;&gt;Node18 -->
<g id="edge24" class="edge">
<title>Node17&#45;&gt;Node18</title>
<path fill="none" stroke="#191970" d="M1852.9688,-61.8906C1858.0246,-53.0068 1865.6772,-39.5601 1871.9254,-28.5811"/>
<polygon fill="#191970" stroke="#191970" points="1875.0498,-30.1672 1876.9541,-19.7449 1868.966,-26.7048 1875.0498,-30.1672"/>
</g>
<!-- Node19 -->
<g id="node20" class="node">
<title>Node19</title>
<polygon fill="none" stroke="#bfbfbf" points="1788.5,-.5 1788.5,-19.5 1834.5,-19.5 1834.5,-.5 1788.5,-.5"/>
<text text-anchor="middle" x="1811.5" y="-7.5" font-family="Helvetica,sans-Serif" font-size="10.00" fill="#000000">cstdio</text>
</g>
<!-- Node17&#45;&gt;Node19 -->
<g id="edge25" class="edge">
<title>Node17&#45;&gt;Node19</title>
<path fill="none" stroke="#191970" d="M1841.875,-61.8906C1836.6747,-53.0068 1828.8034,-39.5601 1822.3767,-28.5811"/>
<polygon fill="#191970" stroke="#191970" points="1825.2767,-26.6069 1817.2043,-19.7449 1819.2356,-30.1432 1825.2767,-26.6069"/>
</g>
<!-- Node20&#45;&gt;Node2 -->
<g id="edge30" class="edge">
<title>Node20&#45;&gt;Node2</title>
<path fill="none" stroke="#191970" d="M1476.304,-128.9005C1454.8962,-117.6067 1419.1542,-98.7506 1394.5107,-85.7497"/>
<polygon fill="#191970" stroke="#191970" points="1396.1401,-82.6522 1385.6622,-81.0817 1392.8738,-88.8434 1396.1401,-82.6522"/>
</g>
<!-- Node20&#45;&gt;Node4 -->
<g id="edge29" class="edge">
<title>Node20&#45;&gt;Node4</title>
<path fill="none" stroke="#191970" d="M1495.5029,-128.9005C1496.5217,-119.149 1498.1296,-103.7597 1499.4241,-91.3695"/>
<polygon fill="#191970" stroke="#191970" points="1502.9408,-91.3912 1500.4989,-81.0817 1495.9787,-90.6638 1502.9408,-91.3912"/>
</g>
<!-- Node21&#45;&gt;Node4 -->
<g id="edge34" class="edge">
<title>Node21&#45;&gt;Node4</title>
<path fill="none" stroke="#191970" d="M1917.2062,-195.8676C1840.5956,-188.9401 1696.8361,-173.7766 1649.5,-154 1628.4211,-145.1934 1627.9996,-134.9014 1608.5,-123 1584.5415,-108.3771 1555.8024,-94.7416 1534.1443,-85.1792"/>
<polygon fill="#191970" stroke="#191970" points="1535.3,-81.8652 1524.7341,-81.0834 1532.5064,-88.2835 1535.3,-81.8652"/>
</g>
<!-- Node21&#45;&gt;Node7 -->
<g id="edge35" class="edge">
<title>Node21&#45;&gt;Node7</title>
<path fill="none" stroke="#191970" d="M1953.8438,-190.3906C1941.1232,-180.7324 1921.2996,-165.6812 1906.2716,-154.271"/>
<polygon fill="#191970" stroke="#191970" points="1908.1484,-151.3015 1898.0674,-148.0419 1903.9154,-156.8766 1908.1484,-151.3015"/>
</g>
<!-- Node21&#45;&gt;Node8 -->
<g id="edge33" class="edge">
<title>Node21&#45;&gt;Node8</title>
<path fill="none" stroke="#191970" d="M2015.6682,-198.4782C2082.9572,-195.2417 2198.3915,-185.1752 2224.5,-154 2242.3496,-132.6864 2215.9074,-104.7727 2194.6488,-87.4946"/>
<polygon fill="#191970" stroke="#191970" points="2196.616,-84.5907 2186.5728,-81.2164 2192.3198,-90.1172 2196.616,-84.5907"/>
</g>
<!-- Node22 -->
<g id="node23" class="node">
<title>Node22</title>
<polygon fill="none" stroke="#bfbfbf" points="1961.5,-129 1961.5,-148 2003.5,-148 2003.5,-129 1961.5,-129"/>
<text text-anchor="middle" x="1982.5" y="-136" font-family="Helvetica,sans-Serif" font-size="10.00" fill="#000000">array</text>
</g>
<!-- Node21&#45;&gt;Node22 -->
<g id="edge32" class="edge">
<title>Node21&#45;&gt;Node22</title>
<path fill="none" stroke="#191970" d="M1969,-190.3906C1971.2412,-181.776 1974.5986,-168.8708 1977.4045,-158.0858"/>
<polygon fill="#191970" stroke="#191970" points="1980.8341,-158.804 1979.9648,-148.2449 1974.0596,-157.0414 1980.8341,-158.804"/>
</g>
<!-- Node23 -->
<g id="node24" class="node">
<title>Node23</title>
<g id="a_node24"><a xlink:href="../../d6/d84/MathConstants_8h.html" target="_top" xlink:title="useful math constants ">
<polygon fill="none" stroke="#000000" points="2021.5,-129 2021.5,-148 2215.5,-148 2215.5,-129 2021.5,-129"/>
<text text-anchor="middle" x="2118.5" y="-136" font-family="Helvetica,sans-Serif" font-size="10.00" fill="#000000">CommonConstants/MathConstants.h</text>
</a>
</g>
</g>
<!-- Node21&#45;&gt;Node23 -->
<g id="edge36" class="edge">
<title>Node21&#45;&gt;Node23</title>
<path fill="none" stroke="#191970" d="M1990.25,-190.3906C2015.7939,-180.0554 2056.6009,-163.5447 2085.311,-151.9284"/>
<polygon fill="#191970" stroke="#191970" points="2086.9596,-155.0371 2094.9168,-148.0419 2084.334,-148.5481 2086.9596,-155.0371"/>
</g>
<!-- Node24&#45;&gt;Node3 -->
<g id="edge43" class="edge">
<title>Node24&#45;&gt;Node3</title>
<path fill="none" stroke="#191970" d="M914.1626,-196.2136C1023.8113,-189.5206 1230.814,-174.3608 1257.5,-154 1294.7689,-125.5647 1276.2535,-98.2801 1296.5,-56 1300.9424,-46.723 1306.4811,-36.7481 1311.3035,-28.4663"/>
<polygon fill="#191970" stroke="#191970" points="1314.4329,-30.051 1316.5269,-19.6651 1308.4133,-26.4783 1314.4329,-30.051"/>
</g>
<!-- Node25 -->
<g id="node26" class="node">
<title>Node25</title>
<polygon fill="none" stroke="#bfbfbf" points="1084.5,-123.5 1084.5,-153.5 1248.5,-153.5 1248.5,-123.5 1084.5,-123.5"/>
<text text-anchor="start" x="1092.5" y="-141.5" font-family="Helvetica,sans-Serif" font-size="10.00" fill="#000000">Math/GenVector/Displacement</text>
<text text-anchor="middle" x="1166.5" y="-130.5" font-family="Helvetica,sans-Serif" font-size="10.00" fill="#000000">Vector3D.h</text>
</g>
<!-- Node24&#45;&gt;Node25 -->
<g id="edge38" class="edge">
<title>Node24&#45;&gt;Node25</title>
<path fill="none" stroke="#191970" d="M896.1489,-190.4581C944.6894,-181.1292 1019.6496,-166.7228 1078.337,-155.4438"/>
<polygon fill="#191970" stroke="#191970" points="1079.191,-158.8438 1088.3507,-153.5193 1077.8699,-151.9696 1079.191,-158.8438"/>
</g>
<!-- Node26 -->
<g id="node27" class="node">
<title>Node26</title>
<polygon fill="none" stroke="#bfbfbf" points="0,-129 0,-148 189,-148 189,-129 0,-129"/>
<text text-anchor="middle" x="94.5" y="-136" font-family="Helvetica,sans-Serif" font-size="10.00" fill="#000000">Math/GenVector/PositionVector3D.h</text>
</g>
<!-- Node24&#45;&gt;Node26 -->
<g id="edge39" class="edge">
<title>Node24&#45;&gt;Node26</title>
<path fill="none" stroke="#191970" d="M778.7107,-196.911C660.6061,-191.1447 409.5447,-177.1828 198.5,-154 187.0617,-152.7435 174.9509,-151.1661 163.1922,-149.5019"/>
<polygon fill="#191970" stroke="#191970" points="163.3735,-145.9917 152.9752,-148.0229 162.3706,-152.9195 163.3735,-145.9917"/>
</g>
<!-- Node27 -->
<g id="node28" class="node">
<title>Node27</title>
<polygon fill="none" stroke="#bfbfbf" points="207.5,-129 207.5,-148 367.5,-148 367.5,-129 207.5,-129"/>
<text text-anchor="middle" x="287.5" y="-136" font-family="Helvetica,sans-Serif" font-size="10.00" fill="#000000">Math/GenVector/Rotation3D.h</text>
</g>
<!-- Node24&#45;&gt;Node27 -->
<g id="edge40" class="edge">
<title>Node24&#45;&gt;Node27</title>
<path fill="none" stroke="#191970" d="M778.9914,-194.9901C687.535,-187.8388 519.2814,-173.3927 376.5,-154 367.3695,-152.7599 357.7424,-151.2726 348.3276,-149.717"/>
<polygon fill="#191970" stroke="#191970" points="348.6717,-146.2256 338.2283,-148.0106 347.5054,-153.1278 348.6717,-146.2256"/>
</g>
<!-- Node28 -->
<g id="node29" class="node">
<title>Node28</title>
<polygon fill="none" stroke="#bfbfbf" points="385.5,-129 385.5,-148 553.5,-148 553.5,-129 385.5,-129"/>
<text text-anchor="middle" x="469.5" y="-136" font-family="Helvetica,sans-Serif" font-size="10.00" fill="#000000">Math/GenVector/Transform3D.h</text>
</g>
<!-- Node24&#45;&gt;Node28 -->
<g id="edge41" class="edge">
<title>Node24&#45;&gt;Node28</title>
<path fill="none" stroke="#191970" d="M787.1976,-190.4756C729.7344,-181.2274 640.1273,-166.7556 562.5,-154 554.1414,-152.6265 545.3618,-151.1749 536.6729,-149.733"/>
<polygon fill="#191970" stroke="#191970" points="536.9839,-146.2367 526.5454,-148.0499 535.8363,-153.142 536.9839,-146.2367"/>
</g>
<!-- Node29 -->
<g id="node30" class="node">
<title>Node29</title>
<polygon fill="none" stroke="#bfbfbf" points="572,-129 572,-148 745,-148 745,-129 572,-129"/>
<text text-anchor="middle" x="658.5" y="-136" font-family="Helvetica,sans-Serif" font-size="10.00" fill="#000000">Math/GenVector/Translation3D.h</text>
</g>
<!-- Node24&#45;&gt;Node29 -->
<g id="edge42" class="edge">
<title>Node24&#45;&gt;Node29</title>
<path fill="none" stroke="#191970" d="M817.125,-190.3906C784.8414,-179.8298 732.8465,-162.8208 697.2453,-151.1747"/>
<polygon fill="#191970" stroke="#191970" points="698.2613,-147.8246 687.6687,-148.0419 696.0849,-154.4776 698.2613,-147.8246"/>
</g>
<!-- Node30 -->
<g id="node31" class="node">
<title>Node30</title>
<polygon fill="none" stroke="#bfbfbf" points="763.5,-129 763.5,-148 845.5,-148 845.5,-129 763.5,-129"/>
<text text-anchor="middle" x="804.5" y="-136" font-family="Helvetica,sans-Serif" font-size="10.00" fill="#000000">TGeoMatrix.h</text>
</g>
<!-- Node24&#45;&gt;Node30 -->
<g id="edge44" class="edge">
<title>Node24&#45;&gt;Node30</title>
<path fill="none" stroke="#191970" d="M839.9375,-190.3906C833.8092,-181.417 824.5015,-167.7879 816.9628,-156.7491"/>
<polygon fill="#191970" stroke="#191970" points="819.685,-154.529 811.155,-148.2449 813.9044,-158.4768 819.685,-154.529"/>
</g>
<!-- Node31 -->
<g id="node32" class="node">
<title>Node31</title>
<polygon fill="none" stroke="#bfbfbf" points="864,-129 864,-148 913,-148 913,-129 864,-129"/>
<text text-anchor="middle" x="888.5" y="-136" font-family="Helvetica,sans-Serif" font-size="10.00" fill="#000000">iosfwd</text>
</g>
<!-- Node24&#45;&gt;Node31 -->
<g id="edge45" class="edge">
<title>Node24&#45;&gt;Node31</title>
<path fill="none" stroke="#191970" d="M853.0625,-190.3906C859.1908,-181.417 868.4985,-167.7879 876.0372,-156.7491"/>
<polygon fill="#191970" stroke="#191970" points="879.0956,-158.4768 881.845,-148.2449 873.315,-154.529 879.0956,-158.4768"/>
</g>
<!-- Node32 -->
<g id="node33" class="node">
<title>Node32</title>
<g id="a_node33"><a xlink:href="../../d2/dd0/Cartesian2D_8h.html" target="_top" xlink:title="MathUtils/Cartesian2D.h">
<polygon fill="none" stroke="#000000" points="931,-129 931,-148 1066,-148 1066,-129 931,-129"/>
<text text-anchor="middle" x="998.5" y="-136" font-family="Helvetica,sans-Serif" font-size="10.00" fill="#000000">MathUtils/Cartesian2D.h</text>
</a>
</g>
</g>
<!-- Node24&#45;&gt;Node32 -->
<g id="edge46" class="edge">
<title>Node24&#45;&gt;Node32</title>
<path fill="none" stroke="#191970" d="M870.25,-190.3906C895.7939,-180.0554 936.6009,-163.5447 965.311,-151.9284"/>
<polygon fill="#191970" stroke="#191970" points="966.9596,-155.0371 974.9168,-148.0419 964.334,-148.5481 966.9596,-155.0371"/>
</g>
<!-- Node33 -->
<g id="node34" class="node">
<title>Node33</title>
<polygon fill="none" stroke="#bfbfbf" points="1000.5,-56.5 1000.5,-86.5 1164.5,-86.5 1164.5,-56.5 1000.5,-56.5"/>
<text text-anchor="start" x="1008.5" y="-74.5" font-family="Helvetica,sans-Serif" font-size="10.00" fill="#000000">Math/GenVector/Displacement</text>
<text text-anchor="middle" x="1082.5" y="-63.5" font-family="Helvetica,sans-Serif" font-size="10.00" fill="#000000">Vector2D.h</text>
</g>
<!-- Node32&#45;&gt;Node33 -->
<g id="edge47" class="edge">
<title>Node32&#45;&gt;Node33</title>
<path fill="none" stroke="#191970" d="M1010.5352,-128.9005C1022.2478,-119.5583 1040.4477,-105.0417 1055.6137,-92.945"/>
<polygon fill="#191970" stroke="#191970" points="1058.0314,-95.4936 1063.6667,-86.5218 1053.6665,-90.0212 1058.0314,-95.4936"/>
</g>
<!-- Node34 -->
<g id="node35" class="node">
<title>Node34</title>
<polygon fill="none" stroke="#bfbfbf" points="793,-62 793,-81 982,-81 982,-62 793,-62"/>
<text text-anchor="middle" x="887.5" y="-69" font-family="Helvetica,sans-Serif" font-size="10.00" fill="#000000">Math/GenVector/PositionVector2D.h</text>
</g>
<!-- Node32&#45;&gt;Node34 -->
<g id="edge48" class="edge">
<title>Node32&#45;&gt;Node34</title>
<path fill="none" stroke="#191970" d="M982.5964,-128.9005C964.133,-117.7559 933.4701,-99.2477 911.9668,-86.2682"/>
<polygon fill="#191970" stroke="#191970" points="913.7441,-83.2529 903.3741,-81.0817 910.1267,-89.2458 913.7441,-83.2529"/>
</g>
</g>
</svg>
