<?xml version="1.0" encoding="UTF-8" standalone="no"?>
<!DOCTYPE svg PUBLIC "-//W3C//DTD SVG 1.1//EN"
 "http://www.w3.org/Graphics/SVG/1.1/DTD/svg11.dtd">
<!-- Generated by graphviz version 2.40.1 (20161225.0304)
 -->
<!-- Title: GPUTPCGMMerger_CompareTracksAttachWeight Pages: 1 -->
<svg width="205pt" height="204pt"
 viewBox="0.00 0.00 205.00 204.00" xmlns="http://www.w3.org/2000/svg" xmlns:xlink="http://www.w3.org/1999/xlink">
<g id="graph0" class="graph" transform="scale(1 1) rotate(0) translate(4 200)">
<title>GPUTPCGMMerger_CompareTracksAttachWeight</title>
<!-- Node1 -->
<g id="node1" class="node">
<title>Node1</title>
<polygon fill="#bfbfbf" stroke="#000000" points="0,-.5 0,-90.5 197,-90.5 197,-.5 0,-.5"/>
<text text-anchor="start" x="8" y="-78.5" font-family="Helvetica,sans-Serif" font-size="10.00" fill="#000000">GPUTPCGMMerger_CompareTracks</text>
<text text-anchor="middle" x="98.5" y="-67.5" font-family="Helvetica,sans-Serif" font-size="10.00" fill="#000000">AttachWeight</text>
<polyline fill="none" stroke="#000000" points="0,-60.5 197,-60.5 "/>
<text text-anchor="middle" x="98.5" y="-48.5" font-family="Helvetica,sans-Serif" font-size="10.00" fill="#000000"> </text>
<polyline fill="none" stroke="#000000" points="0,-41.5 197,-41.5 "/>
<text text-anchor="start" x="8" y="-29.5" font-family="Helvetica,sans-Serif" font-size="10.00" fill="#000000">+ GPUTPCGMMerger_CompareTracks</text>
<text text-anchor="start" x="8" y="-18.5" font-family="Helvetica,sans-Serif" font-size="10.00" fill="#000000">AttachWeight()</text>
<text text-anchor="start" x="8" y="-7.5" font-family="Helvetica,sans-Serif" font-size="10.00" fill="#000000">+ operator()()</text>
</g>
<!-- Node2 -->
<g id="node2" class="node">
<title>Node2</title>
<polygon fill="none" stroke="#bfbfbf" points="77,-138.5 77,-195.5 120,-195.5 120,-138.5 77,-138.5"/>
<text text-anchor="middle" x="98.5" y="-183.5" font-family="Helvetica,sans-Serif" font-size="10.00" fill="#000000">const</text>
<polyline fill="none" stroke="#bfbfbf" points="77,-176.5 120,-176.5 "/>
<text text-anchor="middle" x="98.5" y="-164.5" font-family="Helvetica,sans-Serif" font-size="10.00" fill="#000000"> </text>
<polyline fill="none" stroke="#bfbfbf" points="77,-157.5 120,-157.5 "/>
<text text-anchor="middle" x="98.5" y="-145.5" font-family="Helvetica,sans-Serif" font-size="10.00" fill="#000000"> </text>
</g>
<!-- Node2&#45;&gt;Node1 -->
<g id="edge1" class="edge">
<title>Node2&#45;&gt;Node1</title>
<path fill="none" stroke="#404040" d="M98.5,-138.2062C98.5,-127.5748 98.5,-115.1181 98.5,-102.847"/>
<polygon fill="none" stroke="#404040" points="98.5001,-102.7124 94.5,-96.7125 98.5,-90.7124 102.5,-96.7124 98.5001,-102.7124"/>
<text text-anchor="middle" x="120.5" y="-112" font-family="Helvetica,sans-Serif" font-size="10.00" fill="#000000"> +mCmp</text>
</g>
</g>
</svg>
