<?xml version="1.0" encoding="UTF-8" standalone="no"?>
<!DOCTYPE svg PUBLIC "-//W3C//DTD SVG 1.1//EN"
 "http://www.w3.org/Graphics/SVG/1.1/DTD/svg11.dtd">
<!-- Generated by graphviz version 2.40.1 (20161225.0304)
 -->
<!-- Title: /home/travis/build/AliceO2Group/AliceO2/DataFormats/Detectors/FIT/FT0/src/DigitsTemp.cxx Pages: 1 -->
<!--zoomable 352 -->
<svg id="main" version="1.1" xmlns="http://www.w3.org/2000/svg" xmlns:xlink="http://www.w3.org/1999/xlink" xml:space="preserve" onload="init(evt)">
<style type="text/css"><![CDATA[
.edge:hover path { stroke: red; }
.edge:hover polygon { stroke: red; fill: red; }
]]></style>
<script type="text/javascript"><![CDATA[
var edges = document.getElementsByTagName('g');
if (edges && edges.length) {
  for (var i=0;i<edges.length;i++) {
    if (edges[i].id.substr(0,4)=='edge') {
      edges[i].setAttribute('class','edge');
    }
  }
}
]]></script>
        <defs>
                <circle id="rim" cx="0" cy="0" r="7"/>
                <circle id="rim2" cx="0" cy="0" r="3.5"/>
                <g id="zoomPlus">
                        <use xlink:href="#rim" fill="#404040">
                                <set attributeName="fill" to="#808080" begin="zoomplus.mouseover" end="zoomplus.mouseout"/>
                        </use>
                        <path d="M-4,0h8M0,-4v8" fill="none" stroke="white" stroke-width="1.5" pointer-events="none"/>
                </g>
                <g id="zoomMin">
                        <use xlink:href="#rim" fill="#404040">
                                <set attributeName="fill" to="#808080" begin="zoomminus.mouseover" end="zoomminus.mouseout"/>
                        </use>
                        <path d="M-4,0h8" fill="none" stroke="white" stroke-width="1.5" pointer-events="none"/>
                </g>
                <g id="dirArrow">
                        <path fill="none" stroke="white" stroke-width="1.5" d="M0,-3.0v7 M-2.5,-0.5L0,-3.0L2.5,-0.5"/>
                </g>
               <g id="resetDef">
                       <use xlink:href="#rim2" fill="#404040">
                               <set attributeName="fill" to="#808080" begin="reset.mouseover" end="reset.mouseout"/>
                       </use>
               </g>
        </defs>

<script type="text/javascript">
var viewWidth = 1298;
var viewHeight = 352;
var sectionId = 'dynsection-0';
</script>
<script xlink:href="../../svgpan.js"/>
<svg id="graph" class="graph">
<g id="viewport">
<title>/home/travis/build/AliceO2Group/AliceO2/DataFormats/Detectors/FIT/FT0/src/DigitsTemp.cxx</title>
<!-- Node0 -->
<g id="node1" class="node">
<title>Node0</title>
<polygon fill="#bfbfbf" stroke="#000000" points="648,-291.5 648,-343.5 797,-343.5 797,-291.5 648,-291.5"/>
<text text-anchor="start" x="656" y="-331.5" font-family="Helvetica,sans-Serif" font-size="10.00" fill="#000000">/home/travis/build</text>
<text text-anchor="start" x="656" y="-320.5" font-family="Helvetica,sans-Serif" font-size="10.00" fill="#000000">/AliceO2Group/AliceO2</text>
<text text-anchor="start" x="656" y="-309.5" font-family="Helvetica,sans-Serif" font-size="10.00" fill="#000000">/DataFormats/Detectors</text>
<text text-anchor="middle" x="722.5" y="-298.5" font-family="Helvetica,sans-Serif" font-size="10.00" fill="#000000">/FIT/FT0/src/DigitsTemp.cxx</text>
</g>
<!-- Node1 -->
<g id="node2" class="node">
<title>Node1</title>
<g id="a_node2"><a xlink:href="../../d5/d65/DigitsTemp_8h.html" target="_top" xlink:title="DataFormatsFT0/DigitsTemp.h">
<polygon fill="none" stroke="#000000" points="555.5,-235.5 555.5,-254.5 719.5,-254.5 719.5,-235.5 555.5,-235.5"/>
<text text-anchor="middle" x="637.5" y="-242.5" font-family="Helvetica,sans-Serif" font-size="10.00" fill="#000000">DataFormatsFT0/DigitsTemp.h</text>
</a>
</g>
</g>
<!-- Node0&#45;&gt;Node1 -->
<g id="edge1" class="edge">
<title>Node0&#45;&gt;Node1</title>
<path fill="none" stroke="#191970" d="M691.813,-291.3258C679.956,-281.2124 666.7663,-269.9624 656.3542,-261.0815"/>
<polygon fill="#191970" stroke="#191970" points="658.5575,-258.3606 648.6778,-254.534 654.0148,-263.6864 658.5575,-258.3606"/>
</g>
<!-- Node15 -->
<g id="node16" class="node">
<title>Node15</title>
<polygon fill="none" stroke="#bfbfbf" points="1229.5,-118 1229.5,-137 1289.5,-137 1289.5,-118 1229.5,-118"/>
<text text-anchor="middle" x="1259.5" y="-125" font-family="Helvetica,sans-Serif" font-size="10.00" fill="#000000">iostream</text>
</g>
<!-- Node0&#45;&gt;Node15 -->
<g id="edge25" class="edge">
<title>Node0&#45;&gt;Node15</title>
<path fill="none" stroke="#191970" d="M797.0918,-292.4354C894.7795,-259.3652 1071.182,-198.8057 1220.5,-143 1222.3939,-142.2922 1224.3355,-141.5557 1226.2921,-140.805"/>
<polygon fill="#191970" stroke="#191970" points="1228.0042,-143.8942 1236.0502,-137.0013 1225.4618,-137.3722 1228.0042,-143.8942"/>
</g>
<!-- Node2 -->
<g id="node3" class="node">
<title>Node2</title>
<g id="a_node3"><a xlink:href="../../d9/d80/InteractionRecord_8h.html" target="_top" xlink:title="CommonDataFormat/Interaction\lRecord.h">
<polygon fill="none" stroke="#000000" points="199.5,-112.5 199.5,-142.5 373.5,-142.5 373.5,-112.5 199.5,-112.5"/>
<text text-anchor="start" x="207.5" y="-130.5" font-family="Helvetica,sans-Serif" font-size="10.00" fill="#000000">CommonDataFormat/Interaction</text>
<text text-anchor="middle" x="286.5" y="-119.5" font-family="Helvetica,sans-Serif" font-size="10.00" fill="#000000">Record.h</text>
</a>
</g>
</g>
<!-- Node1&#45;&gt;Node2 -->
<g id="edge2" class="edge">
<title>Node1&#45;&gt;Node2</title>
<path fill="none" stroke="#191970" d="M555.2824,-238.9064C505.2317,-233.0224 440.8728,-221.5023 387.5,-199 358.7459,-186.877 330.1067,-165.4933 310.7086,-149.2602"/>
<polygon fill="#191970" stroke="#191970" points="312.8632,-146.4975 302.9876,-142.6606 308.315,-151.8186 312.8632,-146.4975"/>
</g>
<!-- Node3 -->
<g id="node4" class="node">
<title>Node3</title>
<polygon fill="none" stroke="#bfbfbf" points="548,-.5 548,-19.5 607,-19.5 607,-.5 548,-.5"/>
<text text-anchor="middle" x="577.5" y="-7.5" font-family="Helvetica,sans-Serif" font-size="10.00" fill="#000000">Rtypes.h</text>
</g>
<!-- Node1&#45;&gt;Node3 -->
<g id="edge24" class="edge">
<title>Node1&#45;&gt;Node3</title>
<path fill="none" stroke="#191970" d="M580.2237,-235.4828C528.7621,-223.5694 456.128,-197.647 421.5,-143 386.5644,-87.8677 481.7393,-43.4719 538.5388,-22.7232"/>
<polygon fill="#191970" stroke="#191970" points="539.732,-26.0136 547.9786,-19.362 537.3839,-19.4192 539.732,-26.0136"/>
</g>
<!-- Node4 -->
<g id="node5" class="node">
<title>Node4</title>
<polygon fill="none" stroke="#bfbfbf" points="0,-56.5 0,-75.5 49,-75.5 49,-56.5 0,-56.5"/>
<text text-anchor="middle" x="24.5" y="-63.5" font-family="Helvetica,sans-Serif" font-size="10.00" fill="#000000">iosfwd</text>
</g>
<!-- Node1&#45;&gt;Node4 -->
<g id="edge23" class="edge">
<title>Node1&#45;&gt;Node4</title>
<path fill="none" stroke="#191970" d="M555.4246,-236.0993C496.8975,-228.7564 416.6493,-216.6542 347.5,-199 275.7187,-180.6739 259.0637,-171.0608 190.5,-143 141.2611,-122.8482 85.4051,-96.1103 52.661,-80.027"/>
<polygon fill="#191970" stroke="#191970" points="54.1852,-76.8763 43.6684,-75.5922 51.089,-83.1543 54.1852,-76.8763"/>
</g>
<!-- Node8 -->
<g id="node9" class="node">
<title>Node8</title>
<g id="a_node9"><a xlink:href="../../df/d5d/common_2include_2CommonDataFormat_2TimeStamp_8h.html" target="_top" xlink:title="CommonDataFormat/TimeStamp.h">
<polygon fill="none" stroke="#000000" points="834,-118 834,-137 1021,-137 1021,-118 834,-118"/>
<text text-anchor="middle" x="927.5" y="-125" font-family="Helvetica,sans-Serif" font-size="10.00" fill="#000000">CommonDataFormat/TimeStamp.h</text>
</a>
</g>
</g>
<!-- Node1&#45;&gt;Node8 -->
<g id="edge8" class="edge">
<title>Node1&#45;&gt;Node8</title>
<path fill="none" stroke="#191970" d="M661.2319,-235.3845C712.7662,-214.5042 835.0253,-164.9682 894.2306,-140.9799"/>
<polygon fill="#191970" stroke="#191970" points="895.8931,-144.0827 903.8469,-137.0836 893.2644,-137.595 895.8931,-144.0827"/>
</g>
<!-- Node10 -->
<g id="node11" class="node">
<title>Node10</title>
<g id="a_node11"><a xlink:href="../../d0/d0a/DataFormats_2Detectors_2FIT_2FT0_2include_2DataFormatsFT0_2Digit_8h.html" target="_top" xlink:title="DataFormatsFT0/Digit.h">
<polygon fill="none" stroke="#000000" points="571.5,-179.5 571.5,-198.5 703.5,-198.5 703.5,-179.5 571.5,-179.5"/>
<text text-anchor="middle" x="637.5" y="-186.5" font-family="Helvetica,sans-Serif" font-size="10.00" fill="#000000">DataFormatsFT0/Digit.h</text>
</a>
</g>
</g>
<!-- Node1&#45;&gt;Node10 -->
<g id="edge11" class="edge">
<title>Node1&#45;&gt;Node10</title>
<path fill="none" stroke="#191970" d="M637.5,-235.2455C637.5,-227.9382 637.5,-217.6944 637.5,-208.7046"/>
<polygon fill="#191970" stroke="#191970" points="641.0001,-208.6426 637.5,-198.6427 634.0001,-208.6427 641.0001,-208.6426"/>
</g>
<!-- Node12 -->
<g id="node13" class="node">
<title>Node12</title>
<g id="a_node13"><a xlink:href="../../dc/d44/FIT_2FT0_2include_2DataFormatsFT0_2ChannelData_8h.html" target="_top" xlink:title="DataFormatsFT0/ChannelData.h">
<polygon fill="none" stroke="#000000" points="1039.5,-118 1039.5,-137 1211.5,-137 1211.5,-118 1039.5,-118"/>
<text text-anchor="middle" x="1125.5" y="-125" font-family="Helvetica,sans-Serif" font-size="10.00" fill="#000000">DataFormatsFT0/ChannelData.h</text>
</a>
</g>
</g>
<!-- Node1&#45;&gt;Node12 -->
<g id="edge22" class="edge">
<title>Node1&#45;&gt;Node12</title>
<path fill="none" stroke="#191970" d="M677.0217,-235.484C765.449,-214.1926 979.0887,-162.7527 1076.0999,-139.3945"/>
<polygon fill="#191970" stroke="#191970" points="1077.0477,-142.7664 1085.9505,-137.0227 1075.409,-135.9609 1077.0477,-142.7664"/>
</g>
<!-- Node2&#45;&gt;Node3 -->
<g id="edge3" class="edge">
<title>Node2&#45;&gt;Node3</title>
<path fill="none" stroke="#191970" d="M319.9656,-112.4986C342.7065,-102.2761 373.4535,-88.3986 400.5,-76 419.6599,-67.2168 423.9501,-63.877 443.5,-56 474.8562,-43.3661 511.1676,-31.0389 538.0754,-22.3307"/>
<polygon fill="#191970" stroke="#191970" points="539.4462,-25.5667 547.8977,-19.1773 537.3064,-18.9017 539.4462,-25.5667"/>
</g>
<!-- Node2&#45;&gt;Node4 -->
<g id="edge4" class="edge">
<title>Node2&#45;&gt;Node4</title>
<path fill="none" stroke="#191970" d="M214.5899,-112.4893C172.0299,-103.3176 116.8689,-90.9343 59.338,-76.1012"/>
<polygon fill="#191970" stroke="#191970" points="59.8902,-72.6285 49.3314,-73.5024 58.1305,-79.4038 59.8902,-72.6285"/>
</g>
<!-- Node5 -->
<g id="node6" class="node">
<title>Node5</title>
<polygon fill="none" stroke="#bfbfbf" points="344,-56.5 344,-75.5 391,-75.5 391,-56.5 344,-56.5"/>
<text text-anchor="middle" x="367.5" y="-63.5" font-family="Helvetica,sans-Serif" font-size="10.00" fill="#000000">cmath</text>
</g>
<!-- Node2&#45;&gt;Node5 -->
<g id="edge5" class="edge">
<title>Node2&#45;&gt;Node5</title>
<path fill="none" stroke="#191970" d="M306.5225,-112.2977C318.586,-103.1384 333.9388,-91.4816 346.2211,-82.1562"/>
<polygon fill="#191970" stroke="#191970" points="348.6829,-84.6816 354.5309,-75.8469 344.4499,-79.1065 348.6829,-84.6816"/>
</g>
<!-- Node6 -->
<g id="node7" class="node">
<title>Node6</title>
<polygon fill="none" stroke="#bfbfbf" points="67.5,-56.5 67.5,-75.5 117.5,-75.5 117.5,-56.5 67.5,-56.5"/>
<text text-anchor="middle" x="92.5" y="-63.5" font-family="Helvetica,sans-Serif" font-size="10.00" fill="#000000">cstdint</text>
</g>
<!-- Node2&#45;&gt;Node6 -->
<g id="edge6" class="edge">
<title>Node2&#45;&gt;Node6</title>
<path fill="none" stroke="#191970" d="M239.0423,-112.4554C204.425,-101.4814 158.3003,-86.8594 127.1162,-76.9737"/>
<polygon fill="#191970" stroke="#191970" points="128.1402,-73.6267 117.5501,-73.9411 126.0249,-80.2995 128.1402,-73.6267"/>
</g>
<!-- Node7 -->
<g id="node8" class="node">
<title>Node7</title>
<g id="a_node8"><a xlink:href="../../d4/dc6/LHCConstants_8h.html" target="_top" xlink:title="Header to collect LHC related constants. ">
<polygon fill="none" stroke="#000000" points="135.5,-56.5 135.5,-75.5 325.5,-75.5 325.5,-56.5 135.5,-56.5"/>
<text text-anchor="middle" x="230.5" y="-63.5" font-family="Helvetica,sans-Serif" font-size="10.00" fill="#000000">CommonConstants/LHCConstants.h</text>
</a>
</g>
</g>
<!-- Node2&#45;&gt;Node7 -->
<g id="edge7" class="edge">
<title>Node2&#45;&gt;Node7</title>
<path fill="none" stroke="#191970" d="M272.6573,-112.2977C264.641,-103.4941 254.5238,-92.3833 246.21,-83.2529"/>
<polygon fill="#191970" stroke="#191970" points="248.7869,-80.8845 239.4663,-75.8469 243.6112,-85.5974 248.7869,-80.8845"/>
</g>
<!-- Node9 -->
<g id="node10" class="node">
<title>Node9</title>
<g id="a_node10"><a xlink:href="../../d2/d45/GPUCommonRtypes_8h.html" target="_top" xlink:title="GPUCommonRtypes.h">
<polygon fill="none" stroke="#000000" points="648,-56.5 648,-75.5 773,-75.5 773,-56.5 648,-56.5"/>
<text text-anchor="middle" x="710.5" y="-63.5" font-family="Helvetica,sans-Serif" font-size="10.00" fill="#000000">GPUCommonRtypes.h</text>
</a>
</g>
</g>
<!-- Node8&#45;&gt;Node9 -->
<g id="edge9" class="edge">
<title>Node8&#45;&gt;Node9</title>
<path fill="none" stroke="#191970" d="M893.5938,-117.8906C855.9321,-107.2169 795.0298,-89.9566 753.9115,-78.3033"/>
<polygon fill="#191970" stroke="#191970" points="754.7436,-74.9013 744.1682,-75.5419 752.8349,-81.6361 754.7436,-74.9013"/>
</g>
<!-- Node9&#45;&gt;Node3 -->
<g id="edge10" class="edge">
<title>Node9&#45;&gt;Node3</title>
<path fill="none" stroke="#191970" d="M687.6365,-56.3733C666.095,-47.3032 633.6162,-33.6279 609.5044,-23.4755"/>
<polygon fill="#191970" stroke="#191970" points="610.6397,-20.156 600.0652,-19.5011 607.9233,-26.6075 610.6397,-20.156"/>
</g>
<!-- Node10&#45;&gt;Node2 -->
<g id="edge12" class="edge">
<title>Node10&#45;&gt;Node2</title>
<path fill="none" stroke="#191970" d="M583.0414,-179.4581C529.5785,-170.0907 446.8965,-155.6037 382.4067,-144.3042"/>
<polygon fill="#191970" stroke="#191970" points="382.674,-140.7978 372.22,-142.5193 381.4659,-147.6927 382.674,-140.7978"/>
</g>
<!-- Node10&#45;&gt;Node3 -->
<g id="edge18" class="edge">
<title>Node10&#45;&gt;Node3</title>
<path fill="none" stroke="#191970" d="M625.7108,-179.3564C616.1756,-170.8444 603.2615,-157.5528 596.5,-143 579.1289,-105.612 576.6877,-56.4514 576.8409,-29.5971"/>
<polygon fill="#191970" stroke="#191970" points="580.3411,-29.6171 577.0295,-19.5531 573.3423,-29.4856 580.3411,-29.6171"/>
</g>
<!-- Node10&#45;&gt;Node8 -->
<g id="edge15" class="edge">
<title>Node10&#45;&gt;Node8</title>
<path fill="none" stroke="#191970" d="M682.4943,-179.4581C733.716,-168.5956 817.4001,-150.8488 872.4655,-139.1711"/>
<polygon fill="#191970" stroke="#191970" points="873.3438,-142.5628 882.4001,-137.0643 871.8916,-135.7151 873.3438,-142.5628"/>
</g>
<!-- Node11 -->
<g id="node12" class="node">
<title>Node11</title>
<g id="a_node12"><a xlink:href="../../de/d64/RangeReference_8h.html" target="_top" xlink:title="Class to refer to the 1st entry and N elements of some group in the continuous container. ">
<polygon fill="none" stroke="#000000" points="605.5,-118 605.5,-137 815.5,-137 815.5,-118 605.5,-118"/>
<text text-anchor="middle" x="710.5" y="-125" font-family="Helvetica,sans-Serif" font-size="10.00" fill="#000000">CommonDataFormat/RangeReference.h</text>
</a>
</g>
</g>
<!-- Node10&#45;&gt;Node11 -->
<g id="edge13" class="edge">
<title>Node10&#45;&gt;Node11</title>
<path fill="none" stroke="#191970" d="M648.9063,-179.3906C660.1969,-169.8786 677.6967,-155.1357 691.1619,-143.7917"/>
<polygon fill="#191970" stroke="#191970" points="693.5402,-146.3646 698.9329,-137.2449 689.0301,-141.0111 693.5402,-146.3646"/>
</g>
<!-- Node10&#45;&gt;Node12 -->
<g id="edge16" class="edge">
<title>Node10&#45;&gt;Node12</title>
<path fill="none" stroke="#191970" d="M703.6756,-182.1776C781.878,-173.9017 915.8674,-159.052 1030.5,-143 1039.9579,-141.6756 1049.9273,-140.1701 1059.7087,-138.6303"/>
<polygon fill="#191970" stroke="#191970" points="1060.4808,-142.0515 1069.8044,-137.0195 1059.3778,-135.1389 1060.4808,-142.0515"/>
</g>
<!-- Node13 -->
<g id="node14" class="node">
<title>Node13</title>
<polygon fill="none" stroke="#bfbfbf" points="430,-118 430,-137 487,-137 487,-118 430,-118"/>
<text text-anchor="middle" x="458.5" y="-125" font-family="Helvetica,sans-Serif" font-size="10.00" fill="#000000">gsl/span</text>
</g>
<!-- Node10&#45;&gt;Node13 -->
<g id="edge19" class="edge">
<title>Node10&#45;&gt;Node13</title>
<path fill="none" stroke="#191970" d="M606.196,-179.497C577.4757,-170.6109 533.8521,-156.6907 496.5,-143 494.6436,-142.3196 492.7432,-141.6045 490.83,-140.8704"/>
<polygon fill="#191970" stroke="#191970" points="491.8906,-137.5263 481.3039,-137.1121 489.3216,-144.0379 491.8906,-137.5263"/>
</g>
<!-- Node14 -->
<g id="node15" class="node">
<title>Node14</title>
<polygon fill="none" stroke="#bfbfbf" points="505.5,-118 505.5,-137 549.5,-137 549.5,-118 505.5,-118"/>
<text text-anchor="middle" x="527.5" y="-125" font-family="Helvetica,sans-Serif" font-size="10.00" fill="#000000">bitset</text>
</g>
<!-- Node10&#45;&gt;Node14 -->
<g id="edge20" class="edge">
<title>Node10&#45;&gt;Node14</title>
<path fill="none" stroke="#191970" d="M620.3125,-179.3906C602.3918,-169.3713 574.0905,-153.5483 553.4477,-142.0071"/>
<polygon fill="#191970" stroke="#191970" points="555.0033,-138.867 544.5668,-137.0419 551.5872,-144.9769 555.0033,-138.867"/>
</g>
<!-- Node10&#45;&gt;Node15 -->
<g id="edge21" class="edge">
<title>Node10&#45;&gt;Node15</title>
<path fill="none" stroke="#191970" d="M703.5966,-186.2739C834.808,-180.4534 1123.8346,-165.4824 1220.5,-143 1223.3608,-142.3346 1226.2877,-141.4945 1229.189,-140.5511"/>
<polygon fill="#191970" stroke="#191970" points="1230.6182,-143.7556 1238.8207,-137.0497 1228.2267,-137.1768 1230.6182,-143.7556"/>
</g>
<!-- Node11&#45;&gt;Node9 -->
<g id="edge14" class="edge">
<title>Node11&#45;&gt;Node9</title>
<path fill="none" stroke="#191970" d="M710.5,-117.8906C710.5,-109.3657 710.5,-96.6392 710.5,-85.9235"/>
<polygon fill="#191970" stroke="#191970" points="714.0001,-85.7448 710.5,-75.7449 707.0001,-85.7449 714.0001,-85.7448"/>
</g>
<!-- Node12&#45;&gt;Node3 -->
<g id="edge17" class="edge">
<title>Node12&#45;&gt;Node3</title>
<path fill="none" stroke="#191970" d="M1081.1191,-117.984C976.6516,-95.5845 716.5601,-39.8167 617.0673,-18.4839"/>
<polygon fill="#191970" stroke="#191970" points="617.6334,-15.0258 607.1218,-16.3514 616.1658,-21.8702 617.6334,-15.0258"/>
</g>
</g>
</svg>
        <g id="navigator" transform="translate(0 0)" fill="#404254">
                <rect fill="#f2f5e9" fill-opacity="0.5" stroke="#606060" stroke-width=".5" x="0" y="0" width="60" height="60"/>
                <use id="zoomplus" xlink:href="#zoomPlus" x="17" y="9" onmousedown="handleZoom(evt,'in')"/>
                <use id="zoomminus" xlink:href="#zoomMin" x="42" y="9" onmousedown="handleZoom(evt,'out')"/>
                <use id="reset" xlink:href="#resetDef" x="30" y="36" onmousedown="handleReset()"/>
                <g id="arrowUp" xlink:href="#dirArrow" transform="translate(30 24)" onmousedown="handlePan(0,-1)">
                  <use xlink:href="#rim" fill="#404040">
                        <set attributeName="fill" to="#808080" begin="arrowUp.mouseover" end="arrowUp.mouseout"/>
                  </use>
                  <path fill="none" stroke="white" stroke-width="1.5" d="M0,-3.0v7 M-2.5,-0.5L0,-3.0L2.5,-0.5"/>
                </g>
                <g id="arrowRight" xlink:href="#dirArrow" transform="rotate(90) translate(36 -43)" onmousedown="handlePan(1,0)">
                  <use xlink:href="#rim" fill="#404040">
                        <set attributeName="fill" to="#808080" begin="arrowRight.mouseover" end="arrowRight.mouseout"/>
                  </use>
                  <path fill="none" stroke="white" stroke-width="1.5" d="M0,-3.0v7 M-2.5,-0.5L0,-3.0L2.5,-0.5"/>
                </g>
                <g id="arrowDown" xlink:href="#dirArrow" transform="rotate(180) translate(-30 -48)" onmousedown="handlePan(0,1)">
                  <use xlink:href="#rim" fill="#404040">
                        <set attributeName="fill" to="#808080" begin="arrowDown.mouseover" end="arrowDown.mouseout"/>
                  </use>
                  <path fill="none" stroke="white" stroke-width="1.5" d="M0,-3.0v7 M-2.5,-0.5L0,-3.0L2.5,-0.5"/>
                </g>
                <g id="arrowLeft" xlink:href="#dirArrow" transform="rotate(270) translate(-36 17)" onmousedown="handlePan(-1,0)">
                  <use xlink:href="#rim" fill="#404040">
                        <set attributeName="fill" to="#808080" begin="arrowLeft.mouseover" end="arrowLeft.mouseout"/>
                  </use>
                  <path fill="none" stroke="white" stroke-width="1.5" d="M0,-3.0v7 M-2.5,-0.5L0,-3.0L2.5,-0.5"/>
                </g>
        </g>
        <svg viewBox="0 0 15 15" width="100%" height="30px" preserveAspectRatio="xMaxYMin meet">
         <g id="arrow_out" transform="scale(0.3 0.3)">
          <a xlink:href="DigitsTemp_8cxx__incl_org.svg" target="_base">
           <rect id="button" ry="5" rx="5" y="6" x="6" height="38" width="38"
                fill="#f2f5e9" fill-opacity="0.5" stroke="#606060" stroke-width="1.0"/>
           <path id="arrow"
             d="M 11.500037,31.436501 C 11.940474,20.09759 22.043105,11.32322 32.158766,21.979434 L 37.068811,17.246167 C 37.068811,17.246167 37.088388,32 37.088388,32 L 22.160133,31.978069 C 22.160133,31.978069 26.997745,27.140456 26.997745,27.140456 C 18.528582,18.264221 13.291696,25.230495 11.500037,31.436501 z"
             style="fill:#404040;"/>
          </a>
         </g>
        </svg>
</svg>
