<?xml version="1.0" encoding="UTF-8" standalone="no"?>
<!DOCTYPE svg PUBLIC "-//W3C//DTD SVG 1.1//EN"
 "http://www.w3.org/Graphics/SVG/1.1/DTD/svg11.dtd">
<!-- Generated by graphviz version 2.40.1 (20161225.0304)
 -->
<!-- Title: /home/travis/build/AliceO2Group/AliceO2/Detectors/PHOS/reconstruction/src/FullCluster.cxx Pages: 1 -->
<svg width="938pt" height="441pt"
 viewBox="0.00 0.00 937.50 441.00" xmlns="http://www.w3.org/2000/svg" xmlns:xlink="http://www.w3.org/1999/xlink">
<g id="graph0" class="graph" transform="scale(1 1) rotate(0) translate(4 437)">
<title>/home/travis/build/AliceO2Group/AliceO2/Detectors/PHOS/reconstruction/src/FullCluster.cxx</title>
<!-- Node0 -->
<g id="node1" class="node">
<title>Node0</title>
<polygon fill="#bfbfbf" stroke="#000000" points="341.5,-380.5 341.5,-432.5 511.5,-432.5 511.5,-380.5 341.5,-380.5"/>
<text text-anchor="start" x="349.5" y="-420.5" font-family="Helvetica,sans-Serif" font-size="10.00" fill="#000000">/home/travis/build</text>
<text text-anchor="start" x="349.5" y="-409.5" font-family="Helvetica,sans-Serif" font-size="10.00" fill="#000000">/AliceO2Group/AliceO2</text>
<text text-anchor="start" x="349.5" y="-398.5" font-family="Helvetica,sans-Serif" font-size="10.00" fill="#000000">/Detectors/PHOS/reconstruction</text>
<text text-anchor="middle" x="426.5" y="-387.5" font-family="Helvetica,sans-Serif" font-size="10.00" fill="#000000">/src/FullCluster.cxx</text>
</g>
<!-- Node1 -->
<g id="node2" class="node">
<title>Node1</title>
<g id="a_node2"><a xlink:href="../../d8/d50/DataFormats_2Detectors_2PHOS_2include_2DataFormatsPHOS_2Cluster_8h.html" target="_top" xlink:title="DataFormatsPHOS/Cluster.h">
<polygon fill="none" stroke="#000000" points="19.5,-252 19.5,-271 171.5,-271 171.5,-252 19.5,-252"/>
<text text-anchor="middle" x="95.5" y="-259" font-family="Helvetica,sans-Serif" font-size="10.00" fill="#000000">DataFormatsPHOS/Cluster.h</text>
</a>
</g>
</g>
<!-- Node0&#45;&gt;Node1 -->
<g id="edge1" class="edge">
<title>Node0&#45;&gt;Node1</title>
<path fill="none" stroke="#191970" d="M341.4879,-395.1206C293.2671,-386.1374 233.0492,-370.5306 184.5,-344 153.8774,-327.2657 125.6241,-297.6501 109.4932,-278.8269"/>
<polygon fill="#191970" stroke="#191970" points="112.0687,-276.4507 102.9698,-271.0229 106.6979,-280.9401 112.0687,-276.4507"/>
</g>
<!-- Node7 -->
<g id="node8" class="node">
<title>Node7</title>
<g id="a_node8"><a xlink:href="../../d3/d32/PHOS_2reconstruction_2include_2PHOSReconstruction_2FullCluster_8h.html" target="_top" xlink:title="PHOSReconstruction\l/FullCluster.h">
<polygon fill="none" stroke="#000000" points="193.5,-313.5 193.5,-343.5 309.5,-343.5 309.5,-313.5 193.5,-313.5"/>
<text text-anchor="start" x="201.5" y="-331.5" font-family="Helvetica,sans-Serif" font-size="10.00" fill="#000000">PHOSReconstruction</text>
<text text-anchor="middle" x="251.5" y="-320.5" font-family="Helvetica,sans-Serif" font-size="10.00" fill="#000000">/FullCluster.h</text>
</a>
</g>
</g>
<!-- Node0&#45;&gt;Node7 -->
<g id="edge7" class="edge">
<title>Node0&#45;&gt;Node7</title>
<path fill="none" stroke="#191970" d="M367.7407,-380.3101C343.8679,-369.6697 316.7841,-357.5981 294.7689,-347.7856"/>
<polygon fill="#191970" stroke="#191970" points="295.9139,-344.464 285.3552,-343.5897 293.0641,-350.8577 295.9139,-344.464"/>
</g>
<!-- Node10 -->
<g id="node11" class="node">
<title>Node10</title>
<g id="a_node11"><a xlink:href="../../d7/d7f/PHOS_2base_2include_2PHOSBase_2Geometry_8h.html" target="_top" xlink:title="PHOSBase/Geometry.h">
<polygon fill="none" stroke="#000000" points="363,-319 363,-338 490,-338 490,-319 363,-319"/>
<text text-anchor="middle" x="426.5" y="-326" font-family="Helvetica,sans-Serif" font-size="10.00" fill="#000000">PHOSBase/Geometry.h</text>
</a>
</g>
</g>
<!-- Node0&#45;&gt;Node10 -->
<g id="edge13" class="edge">
<title>Node0&#45;&gt;Node10</title>
<path fill="none" stroke="#191970" d="M426.5,-380.0928C426.5,-369.6735 426.5,-357.911 426.5,-348.2512"/>
<polygon fill="#191970" stroke="#191970" points="430.0001,-348.0838 426.5,-338.0839 423.0001,-348.0839 430.0001,-348.0838"/>
</g>
<!-- Node14 -->
<g id="node15" class="node">
<title>Node14</title>
<g id="a_node15"><a xlink:href="../../df/d62/PHOSSimParams_8h.html" target="_top" xlink:title="PHOSBase/PHOSSimParams.h">
<polygon fill="none" stroke="#000000" points="508,-319 508,-338 669,-338 669,-319 508,-319"/>
<text text-anchor="middle" x="588.5" y="-326" font-family="Helvetica,sans-Serif" font-size="10.00" fill="#000000">PHOSBase/PHOSSimParams.h</text>
</a>
</g>
</g>
<!-- Node0&#45;&gt;Node14 -->
<g id="edge17" class="edge">
<title>Node0&#45;&gt;Node14</title>
<path fill="none" stroke="#191970" d="M480.8943,-380.3101C507.1574,-367.665 537.6184,-352.9985 559.4134,-342.5046"/>
<polygon fill="#191970" stroke="#191970" points="560.9866,-345.6318 568.4782,-338.1401 557.9498,-339.3248 560.9866,-345.6318"/>
</g>
<!-- Node26 -->
<g id="node27" class="node">
<title>Node26</title>
<polygon fill="none" stroke="#bfbfbf" points="687,-319 687,-338 762,-338 762,-319 687,-319"/>
<text text-anchor="middle" x="724.5" y="-326" font-family="Helvetica,sans-Serif" font-size="10.00" fill="#000000">FairLogger.h</text>
</g>
<!-- Node0&#45;&gt;Node26 -->
<g id="edge31" class="edge">
<title>Node0&#45;&gt;Node26</title>
<path fill="none" stroke="#191970" d="M511.7334,-386.9442C560.5083,-375.3377 622.7097,-359.8322 677.5,-344 680.6366,-343.0936 683.8777,-342.1148 687.123,-341.1051"/>
<polygon fill="#191970" stroke="#191970" points="688.3101,-344.4002 696.7717,-338.0243 686.1809,-337.7318 688.3101,-344.4002"/>
</g>
<!-- Node2 -->
<g id="node3" class="node">
<title>Node2</title>
<g id="a_node3"><a xlink:href="../../d3/d98/DataFormats_2Detectors_2PHOS_2include_2DataFormatsPHOS_2Digit_8h.html" target="_top" xlink:title="DataFormatsPHOS/Digit.h">
<polygon fill="none" stroke="#000000" points="51.5,-185 51.5,-204 193.5,-204 193.5,-185 51.5,-185"/>
<text text-anchor="middle" x="122.5" y="-192" font-family="Helvetica,sans-Serif" font-size="10.00" fill="#000000">DataFormatsPHOS/Digit.h</text>
</a>
</g>
</g>
<!-- Node1&#45;&gt;Node2 -->
<g id="edge2" class="edge">
<title>Node1&#45;&gt;Node2</title>
<path fill="none" stroke="#191970" d="M99.3684,-251.9005C103.3784,-241.95 109.7539,-226.1292 114.797,-213.6147"/>
<polygon fill="#191970" stroke="#191970" points="118.1472,-214.6651 118.6387,-204.0817 111.6546,-212.0486 118.1472,-214.6651"/>
</g>
<!-- Node3 -->
<g id="node4" class="node">
<title>Node3</title>
<polygon fill="none" stroke="#bfbfbf" points="0,-118 0,-137 47,-137 47,-118 0,-118"/>
<text text-anchor="middle" x="23.5" y="-125" font-family="Helvetica,sans-Serif" font-size="10.00" fill="#000000">cmath</text>
</g>
<!-- Node2&#45;&gt;Node3 -->
<g id="edge3" class="edge">
<title>Node2&#45;&gt;Node3</title>
<path fill="none" stroke="#191970" d="M108.3157,-184.9005C92.0689,-173.9052 65.2309,-155.7422 46.0966,-142.7927"/>
<polygon fill="#191970" stroke="#191970" points="47.9014,-139.7879 37.658,-137.0817 43.978,-145.5851 47.9014,-139.7879"/>
</g>
<!-- Node4 -->
<g id="node5" class="node">
<title>Node4</title>
<g id="a_node5"><a xlink:href="../../df/d5d/common_2include_2CommonDataFormat_2TimeStamp_8h.html" target="_top" xlink:title="CommonDataFormat/TimeStamp.h">
<polygon fill="none" stroke="#000000" points="65,-118 65,-137 252,-137 252,-118 65,-118"/>
<text text-anchor="middle" x="158.5" y="-125" font-family="Helvetica,sans-Serif" font-size="10.00" fill="#000000">CommonDataFormat/TimeStamp.h</text>
</a>
</g>
</g>
<!-- Node2&#45;&gt;Node4 -->
<g id="edge4" class="edge">
<title>Node2&#45;&gt;Node4</title>
<path fill="none" stroke="#191970" d="M127.6579,-184.9005C133.0579,-174.8505 141.6755,-158.8122 148.4306,-146.2403"/>
<polygon fill="#191970" stroke="#191970" points="151.7016,-147.5472 153.3516,-137.0817 145.5353,-144.234 151.7016,-147.5472"/>
</g>
<!-- Node5 -->
<g id="node6" class="node">
<title>Node5</title>
<g id="a_node6"><a xlink:href="../../d2/d45/GPUCommonRtypes_8h.html" target="_top" xlink:title="GPUCommonRtypes.h">
<polygon fill="none" stroke="#000000" points="156,-56.5 156,-75.5 281,-75.5 281,-56.5 156,-56.5"/>
<text text-anchor="middle" x="218.5" y="-63.5" font-family="Helvetica,sans-Serif" font-size="10.00" fill="#000000">GPUCommonRtypes.h</text>
</a>
</g>
</g>
<!-- Node4&#45;&gt;Node5 -->
<g id="edge5" class="edge">
<title>Node4&#45;&gt;Node5</title>
<path fill="none" stroke="#191970" d="M167.875,-117.8906C176.9799,-108.5581 190.9974,-94.1902 201.9757,-82.9374"/>
<polygon fill="#191970" stroke="#191970" points="204.5148,-85.3468 208.9928,-75.7449 199.5043,-80.4586 204.5148,-85.3468"/>
</g>
<!-- Node6 -->
<g id="node7" class="node">
<title>Node6</title>
<polygon fill="none" stroke="#bfbfbf" points="189,-.5 189,-19.5 248,-19.5 248,-.5 189,-.5"/>
<text text-anchor="middle" x="218.5" y="-7.5" font-family="Helvetica,sans-Serif" font-size="10.00" fill="#000000">Rtypes.h</text>
</g>
<!-- Node5&#45;&gt;Node6 -->
<g id="edge6" class="edge">
<title>Node5&#45;&gt;Node6</title>
<path fill="none" stroke="#191970" d="M218.5,-56.2455C218.5,-48.9382 218.5,-38.6944 218.5,-29.7046"/>
<polygon fill="#191970" stroke="#191970" points="222.0001,-29.6426 218.5,-19.6427 215.0001,-29.6427 222.0001,-29.6426"/>
</g>
<!-- Node7&#45;&gt;Node1 -->
<g id="edge10" class="edge">
<title>Node7&#45;&gt;Node1</title>
<path fill="none" stroke="#191970" d="M216.4906,-313.4639C189.7262,-301.969 153.1411,-286.2561 127.2277,-275.1266"/>
<polygon fill="#191970" stroke="#191970" points="128.431,-271.8343 117.8614,-271.1039 125.6685,-278.2662 128.431,-271.8343"/>
</g>
<!-- Node7&#45;&gt;Node2 -->
<g id="edge9" class="edge">
<title>Node7&#45;&gt;Node2</title>
<path fill="none" stroke="#191970" d="M239.5047,-313.3674C225.8282,-296.4051 202.5085,-268.352 180.5,-246 168.3358,-233.6459 153.7367,-220.692 142.2286,-210.8664"/>
<polygon fill="#191970" stroke="#191970" points="144.3726,-208.0959 134.4742,-204.318 139.8562,-213.4441 144.3726,-208.0959"/>
</g>
<!-- Node8 -->
<g id="node9" class="node">
<title>Node8</title>
<polygon fill="none" stroke="#bfbfbf" points="227.5,-252 227.5,-271 275.5,-271 275.5,-252 227.5,-252"/>
<text text-anchor="middle" x="251.5" y="-259" font-family="Helvetica,sans-Serif" font-size="10.00" fill="#000000">gsl/gsl</text>
</g>
<!-- Node7&#45;&gt;Node8 -->
<g id="edge8" class="edge">
<title>Node7&#45;&gt;Node8</title>
<path fill="none" stroke="#191970" d="M251.5,-313.2967C251.5,-303.7699 251.5,-291.3954 251.5,-281.1306"/>
<polygon fill="#191970" stroke="#191970" points="255.0001,-281.0549 251.5,-271.055 248.0001,-281.055 255.0001,-281.0549"/>
</g>
<!-- Node9 -->
<g id="node10" class="node">
<title>Node9</title>
<g id="a_node10"><a xlink:href="../../d7/dcd/MCCompLabel_8h.html" target="_top" xlink:title="SimulationDataFormat\l/MCCompLabel.h">
<polygon fill="none" stroke="#000000" points="232,-179.5 232,-209.5 359,-209.5 359,-179.5 232,-179.5"/>
<text text-anchor="start" x="240" y="-197.5" font-family="Helvetica,sans-Serif" font-size="10.00" fill="#000000">SimulationDataFormat</text>
<text text-anchor="middle" x="295.5" y="-186.5" font-family="Helvetica,sans-Serif" font-size="10.00" fill="#000000">/MCCompLabel.h</text>
</a>
</g>
</g>
<!-- Node7&#45;&gt;Node9 -->
<g id="edge11" class="edge">
<title>Node7&#45;&gt;Node9</title>
<path fill="none" stroke="#191970" d="M263.8326,-313.2205C271.0547,-303.4425 279.6776,-290.1615 284.5,-277 291.2693,-258.5247 293.9495,-236.3616 294.9754,-219.6614"/>
<polygon fill="#191970" stroke="#191970" points="298.4763,-219.719 295.4371,-209.5695 291.4836,-219.3991 298.4763,-219.719"/>
</g>
<!-- Node9&#45;&gt;Node5 -->
<g id="edge12" class="edge">
<title>Node9&#45;&gt;Node5</title>
<path fill="none" stroke="#191970" d="M290.8393,-179.4478C285.1526,-162.3121 274.5343,-133.8665 260.5,-112 253.7717,-101.5168 244.5951,-91.1545 236.5355,-82.9267"/>
<polygon fill="#191970" stroke="#191970" points="238.8445,-80.2881 229.267,-75.7579 233.9291,-85.2719 238.8445,-80.2881"/>
</g>
<!-- Node11 -->
<g id="node12" class="node">
<title>Node11</title>
<polygon fill="none" stroke="#bfbfbf" points="331.5,-252 331.5,-271 375.5,-271 375.5,-252 331.5,-252"/>
<text text-anchor="middle" x="353.5" y="-259" font-family="Helvetica,sans-Serif" font-size="10.00" fill="#000000">string</text>
</g>
<!-- Node10&#45;&gt;Node11 -->
<g id="edge14" class="edge">
<title>Node10&#45;&gt;Node11</title>
<path fill="none" stroke="#191970" d="M416.0409,-318.9005C404.4403,-308.2535 385.5171,-290.8856 371.5195,-278.0385"/>
<polygon fill="#191970" stroke="#191970" points="373.6737,-275.2649 363.9397,-271.0817 368.9404,-280.4221 373.6737,-275.2649"/>
</g>
<!-- Node12 -->
<g id="node13" class="node">
<title>Node12</title>
<polygon fill="none" stroke="#bfbfbf" points="393.5,-252 393.5,-271 477.5,-271 477.5,-252 393.5,-252"/>
<text text-anchor="middle" x="435.5" y="-259" font-family="Helvetica,sans-Serif" font-size="10.00" fill="#000000">RStringView.h</text>
</g>
<!-- Node10&#45;&gt;Node12 -->
<g id="edge15" class="edge">
<title>Node10&#45;&gt;Node12</title>
<path fill="none" stroke="#191970" d="M427.7895,-318.9005C429.0994,-309.149 431.1666,-293.7597 432.831,-281.3695"/>
<polygon fill="#191970" stroke="#191970" points="436.3503,-281.4586 434.2129,-271.0817 429.4127,-280.5266 436.3503,-281.4586"/>
</g>
<!-- Node13 -->
<g id="node14" class="node">
<title>Node13</title>
<polygon fill="none" stroke="#bfbfbf" points="495.5,-252 495.5,-271 551.5,-271 551.5,-252 495.5,-252"/>
<text text-anchor="middle" x="523.5" y="-259" font-family="Helvetica,sans-Serif" font-size="10.00" fill="#000000">TMath.h</text>
</g>
<!-- Node10&#45;&gt;Node13 -->
<g id="edge16" class="edge">
<title>Node10&#45;&gt;Node13</title>
<path fill="none" stroke="#191970" d="M440.3977,-318.9005C456.3164,-307.9052 482.6121,-289.7422 501.3599,-276.7927"/>
<polygon fill="#191970" stroke="#191970" points="503.3892,-279.6448 509.628,-271.0817 499.4108,-273.8852 503.3892,-279.6448"/>
</g>
<!-- Node15 -->
<g id="node16" class="node">
<title>Node15</title>
<g id="a_node16"><a xlink:href="../../db/d2c/ConfigurableParam_8h.html" target="_top" xlink:title="CommonUtils/Configurable\lParam.h">
<polygon fill="none" stroke="#000000" points="514.5,-179.5 514.5,-209.5 662.5,-209.5 662.5,-179.5 514.5,-179.5"/>
<text text-anchor="start" x="522.5" y="-197.5" font-family="Helvetica,sans-Serif" font-size="10.00" fill="#000000">CommonUtils/Configurable</text>
<text text-anchor="middle" x="588.5" y="-186.5" font-family="Helvetica,sans-Serif" font-size="10.00" fill="#000000">Param.h</text>
</a>
</g>
</g>
<!-- Node14&#45;&gt;Node15 -->
<g id="edge18" class="edge">
<title>Node14&#45;&gt;Node15</title>
<path fill="none" stroke="#191970" d="M588.5,-318.8631C588.5,-298.3397 588.5,-249.7457 588.5,-219.7388"/>
<polygon fill="#191970" stroke="#191970" points="592.0001,-219.611 588.5,-209.611 585.0001,-219.6111 592.0001,-219.611"/>
</g>
<!-- Node22 -->
<g id="node23" class="node">
<title>Node22</title>
<g id="a_node23"><a xlink:href="../../da/d6b/ConfigurableParamHelper_8h.html" target="_top" xlink:title="CommonUtils/Configurable\lParamHelper.h">
<polygon fill="none" stroke="#000000" points="645.5,-246.5 645.5,-276.5 793.5,-276.5 793.5,-246.5 645.5,-246.5"/>
<text text-anchor="start" x="653.5" y="-264.5" font-family="Helvetica,sans-Serif" font-size="10.00" fill="#000000">CommonUtils/Configurable</text>
<text text-anchor="middle" x="719.5" y="-253.5" font-family="Helvetica,sans-Serif" font-size="10.00" fill="#000000">ParamHelper.h</text>
</a>
</g>
</g>
<!-- Node14&#45;&gt;Node22 -->
<g id="edge25" class="edge">
<title>Node14&#45;&gt;Node22</title>
<path fill="none" stroke="#191970" d="M607.2691,-318.9005C626.4654,-309.0826 656.8355,-293.5498 681.1449,-281.1167"/>
<polygon fill="#191970" stroke="#191970" points="682.8197,-284.1914 690.1291,-276.5218 679.6322,-277.9592 682.8197,-284.1914"/>
</g>
<!-- Node16 -->
<g id="node17" class="node">
<title>Node16</title>
<polygon fill="none" stroke="#bfbfbf" points="308,-118 308,-137 355,-137 355,-118 308,-118"/>
<text text-anchor="middle" x="331.5" y="-125" font-family="Helvetica,sans-Serif" font-size="10.00" fill="#000000">vector</text>
</g>
<!-- Node15&#45;&gt;Node16 -->
<g id="edge19" class="edge">
<title>Node15&#45;&gt;Node16</title>
<path fill="none" stroke="#191970" d="M514.248,-181.5599C470.0917,-172.8503 413.3439,-159.8694 364.5,-143 362.8547,-142.4318 361.1821,-141.8067 359.507,-141.1437"/>
<polygon fill="#191970" stroke="#191970" points="360.6273,-137.815 350.0594,-137.061 357.8505,-144.2408 360.6273,-137.815"/>
</g>
<!-- Node17 -->
<g id="node18" class="node">
<title>Node17</title>
<polygon fill="none" stroke="#bfbfbf" points="373.5,-118 373.5,-137 411.5,-137 411.5,-118 373.5,-118"/>
<text text-anchor="middle" x="392.5" y="-125" font-family="Helvetica,sans-Serif" font-size="10.00" fill="#000000">map</text>
</g>
<!-- Node15&#45;&gt;Node17 -->
<g id="edge20" class="edge">
<title>Node15&#45;&gt;Node17</title>
<path fill="none" stroke="#191970" d="M528.7289,-179.4437C496.1502,-170.4297 455.4598,-157.8433 420.5,-143 419.5027,-142.5766 418.4949,-142.1277 417.4839,-141.6597"/>
<polygon fill="#191970" stroke="#191970" points="419.0018,-138.5052 408.5001,-137.1035 415.8355,-144.7482 419.0018,-138.5052"/>
</g>
<!-- Node18 -->
<g id="node19" class="node">
<title>Node18</title>
<polygon fill="none" stroke="#bfbfbf" points="430,-118 430,-137 523,-137 523,-118 430,-118"/>
<text text-anchor="middle" x="476.5" y="-125" font-family="Helvetica,sans-Serif" font-size="10.00" fill="#000000">unordered_map</text>
</g>
<!-- Node15&#45;&gt;Node18 -->
<g id="edge21" class="edge">
<title>Node15&#45;&gt;Node18</title>
<path fill="none" stroke="#191970" d="M563.365,-179.4639C544.8268,-168.3741 519.726,-153.3584 501.2738,-142.32"/>
<polygon fill="#191970" stroke="#191970" points="502.9328,-139.2341 492.5543,-137.1039 499.3392,-145.2412 502.9328,-139.2341"/>
</g>
<!-- Node19 -->
<g id="node20" class="node">
<title>Node19</title>
<polygon fill="none" stroke="#bfbfbf" points="541,-112.5 541,-142.5 654,-142.5 654,-112.5 541,-112.5"/>
<text text-anchor="start" x="549" y="-130.5" font-family="Helvetica,sans-Serif" font-size="10.00" fill="#000000">boost/property_tree</text>
<text text-anchor="middle" x="597.5" y="-119.5" font-family="Helvetica,sans-Serif" font-size="10.00" fill="#000000">/ptree.hpp</text>
</g>
<!-- Node15&#45;&gt;Node19 -->
<g id="edge22" class="edge">
<title>Node15&#45;&gt;Node19</title>
<path fill="none" stroke="#191970" d="M590.5422,-179.2967C591.6009,-171.4156 592.9213,-161.5857 594.1265,-152.6135"/>
<polygon fill="#191970" stroke="#191970" points="597.6033,-153.0201 595.4658,-142.6432 590.6656,-152.0882 597.6033,-153.0201"/>
</g>
<!-- Node20 -->
<g id="node21" class="node">
<title>Node20</title>
<polygon fill="none" stroke="#bfbfbf" points="751,-118 751,-137 808,-137 808,-118 751,-118"/>
<text text-anchor="middle" x="779.5" y="-125" font-family="Helvetica,sans-Serif" font-size="10.00" fill="#000000">typeinfo</text>
</g>
<!-- Node15&#45;&gt;Node20 -->
<g id="edge23" class="edge">
<title>Node15&#45;&gt;Node20</title>
<path fill="none" stroke="#191970" d="M635.6411,-179.4772C666.0287,-169.5858 706.2987,-156.089 741.5,-143 743.3532,-142.3109 745.2511,-141.5891 747.1624,-140.8497"/>
<polygon fill="#191970" stroke="#191970" points="748.6758,-144.0148 756.6832,-137.0771 746.0971,-137.5071 748.6758,-144.0148"/>
</g>
<!-- Node21 -->
<g id="node22" class="node">
<title>Node21</title>
<polygon fill="none" stroke="#bfbfbf" points="672.5,-118 672.5,-137 732.5,-137 732.5,-118 672.5,-118"/>
<text text-anchor="middle" x="702.5" y="-125" font-family="Helvetica,sans-Serif" font-size="10.00" fill="#000000">iostream</text>
</g>
<!-- Node15&#45;&gt;Node21 -->
<g id="edge24" class="edge">
<title>Node15&#45;&gt;Node21</title>
<path fill="none" stroke="#191970" d="M614.0838,-179.4639C632.9531,-168.3741 658.5021,-153.3584 677.2839,-142.32"/>
<polygon fill="#191970" stroke="#191970" points="679.3111,-145.1883 686.159,-137.1039 675.7643,-139.1534 679.3111,-145.1883"/>
</g>
<!-- Node22&#45;&gt;Node15 -->
<g id="edge26" class="edge">
<title>Node22&#45;&gt;Node15</title>
<path fill="none" stroke="#191970" d="M690.101,-246.4639C671.5226,-236.9619 647.309,-224.5779 627.1801,-214.283"/>
<polygon fill="#191970" stroke="#191970" points="628.751,-211.1552 618.2541,-209.7177 625.5635,-217.3874 628.751,-211.1552"/>
</g>
<!-- Node22&#45;&gt;Node20 -->
<g id="edge29" class="edge">
<title>Node22&#45;&gt;Node20</title>
<path fill="none" stroke="#191970" d="M713.0822,-246.318C706.8307,-229.0632 699.7145,-200.5085 710.5,-179 718.5248,-162.9968 734.1431,-150.6956 748.4934,-142.135"/>
<polygon fill="#191970" stroke="#191970" points="750.6066,-144.9649 757.6479,-137.0484 747.2067,-138.846 750.6066,-144.9649"/>
</g>
<!-- Node23 -->
<g id="node24" class="node">
<title>Node23</title>
<polygon fill="none" stroke="#bfbfbf" points="719,-185 719,-204 776,-204 776,-185 719,-185"/>
<text text-anchor="middle" x="747.5" y="-192" font-family="Helvetica,sans-Serif" font-size="10.00" fill="#000000">TClass.h</text>
</g>
<!-- Node22&#45;&gt;Node23 -->
<g id="edge27" class="edge">
<title>Node22&#45;&gt;Node23</title>
<path fill="none" stroke="#191970" d="M725.8536,-246.2967C729.9197,-236.5672 735.227,-223.8675 739.5687,-213.4784"/>
<polygon fill="#191970" stroke="#191970" points="742.8802,-214.6313 743.5069,-204.055 736.4215,-211.9321 742.8802,-214.6313"/>
</g>
<!-- Node24 -->
<g id="node25" class="node">
<title>Node24</title>
<polygon fill="none" stroke="#bfbfbf" points="794,-185 794,-204 863,-204 863,-185 794,-185"/>
<text text-anchor="middle" x="828.5" y="-192" font-family="Helvetica,sans-Serif" font-size="10.00" fill="#000000">type_traits</text>
</g>
<!-- Node22&#45;&gt;Node24 -->
<g id="edge28" class="edge">
<title>Node22&#45;&gt;Node24</title>
<path fill="none" stroke="#191970" d="M743.9617,-246.4639C761.921,-235.4247 786.2089,-220.4954 804.1434,-209.4715"/>
<polygon fill="#191970" stroke="#191970" points="806.1893,-212.3223 812.8757,-204.1039 802.5236,-206.3588 806.1893,-212.3223"/>
</g>
<!-- Node25 -->
<g id="node26" class="node">
<title>Node25</title>
<polygon fill="none" stroke="#bfbfbf" points="881.5,-185 881.5,-204 929.5,-204 929.5,-185 881.5,-185"/>
<text text-anchor="middle" x="905.5" y="-192" font-family="Helvetica,sans-Serif" font-size="10.00" fill="#000000">TFile.h</text>
</g>
<!-- Node22&#45;&gt;Node25 -->
<g id="edge30" class="edge">
<title>Node22&#45;&gt;Node25</title>
<path fill="none" stroke="#191970" d="M768.9421,-246.4421C799.1643,-236.8481 838.4298,-223.6832 872.5,-210 873.895,-209.4397 875.3152,-208.85 876.7439,-208.2412"/>
<polygon fill="#191970" stroke="#191970" points="878.4159,-211.3277 886.1192,-204.0538 875.5612,-204.9362 878.4159,-211.3277"/>
</g>
</g>
</svg>
