<?xml version="1.0" encoding="UTF-8" standalone="no"?>
<!DOCTYPE svg PUBLIC "-//W3C//DTD SVG 1.1//EN"
 "http://www.w3.org/Graphics/SVG/1.1/DTD/svg11.dtd">
<!-- Generated by graphviz version 2.40.1 (20161225.0304)
 -->
<!-- Title: /home/travis/build/AliceO2Group/AliceO2/Detectors/TOF/reconstruction/include/TOFReconstruction/DataReader.h Pages: 1 -->
<svg width="1286pt" height="452pt"
 viewBox="0.00 0.00 1286.49 452.00" xmlns="http://www.w3.org/2000/svg" xmlns:xlink="http://www.w3.org/1999/xlink">
<g id="graph0" class="graph" transform="scale(1 1) rotate(0) translate(4 448)">
<title>/home/travis/build/AliceO2Group/AliceO2/Detectors/TOF/reconstruction/include/TOFReconstruction/DataReader.h</title>
<!-- Node0 -->
<g id="node1" class="node">
<title>Node0</title>
<polygon fill="#bfbfbf" stroke="#000000" points="218.995,-380.5 218.995,-443.5 379.995,-443.5 379.995,-380.5 218.995,-380.5"/>
<text text-anchor="start" x="226.995" y="-431.5" font-family="Helvetica,sans-Serif" font-size="10.00" fill="#000000">/home/travis/build</text>
<text text-anchor="start" x="226.995" y="-420.5" font-family="Helvetica,sans-Serif" font-size="10.00" fill="#000000">/AliceO2Group/AliceO2</text>
<text text-anchor="start" x="226.995" y="-409.5" font-family="Helvetica,sans-Serif" font-size="10.00" fill="#000000">/Detectors/TOF/reconstruction</text>
<text text-anchor="start" x="226.995" y="-398.5" font-family="Helvetica,sans-Serif" font-size="10.00" fill="#000000">/include/TOFReconstruction</text>
<text text-anchor="middle" x="299.495" y="-387.5" font-family="Helvetica,sans-Serif" font-size="10.00" fill="#000000">/DataReader.h</text>
</g>
<!-- Node1 -->
<g id="node2" class="node">
<title>Node1</title>
<g id="a_node2"><a xlink:href="../../d1/d90/Detectors_2TOF_2base_2include_2TOFBase_2Digit_8h.html" target="_top" xlink:title="TOFBase/Digit.h">
<polygon fill="none" stroke="#000000" points="251.995,-324.5 251.995,-343.5 346.995,-343.5 346.995,-324.5 251.995,-324.5"/>
<text text-anchor="middle" x="299.495" y="-331.5" font-family="Helvetica,sans-Serif" font-size="10.00" fill="#000000">TOFBase/Digit.h</text>
</a>
</g>
</g>
<!-- Node0&#45;&gt;Node1 -->
<g id="edge1" class="edge">
<title>Node0&#45;&gt;Node1</title>
<path fill="none" stroke="#191970" d="M299.495,-380.2744C299.495,-371.3302 299.495,-361.8568 299.495,-353.8269"/>
<polygon fill="#191970" stroke="#191970" points="302.9951,-353.6425 299.495,-343.6426 295.9951,-353.6426 302.9951,-353.6425"/>
</g>
<!-- Node2 -->
<g id="node3" class="node">
<title>Node2</title>
<polygon fill="none" stroke="#bfbfbf" points="273.995,-73 273.995,-92 322.995,-92 322.995,-73 273.995,-73"/>
<text text-anchor="middle" x="298.495" y="-80" font-family="Helvetica,sans-Serif" font-size="10.00" fill="#000000">iosfwd</text>
</g>
<!-- Node1&#45;&gt;Node2 -->
<g id="edge2" class="edge">
<title>Node1&#45;&gt;Node2</title>
<path fill="none" stroke="#191970" d="M294.8101,-324.4115C290.6348,-315.2959 284.8336,-301.0744 282.495,-288 270.3894,-220.3221 285.4657,-138.4828 293.7428,-101.8565"/>
<polygon fill="#191970" stroke="#191970" points="297.1769,-102.5423 296.0557,-92.007 290.3623,-100.942 297.1769,-102.5423"/>
</g>
<!-- Node3 -->
<g id="node4" class="node">
<title>Node3</title>
<polygon fill="none" stroke="#bfbfbf" points="196.995,-73 196.995,-92 255.995,-92 255.995,-73 196.995,-73"/>
<text text-anchor="middle" x="226.495" y="-80" font-family="Helvetica,sans-Serif" font-size="10.00" fill="#000000">Rtypes.h</text>
</g>
<!-- Node1&#45;&gt;Node3 -->
<g id="edge3" class="edge">
<title>Node1&#45;&gt;Node3</title>
<path fill="none" stroke="#191970" d="M251.7113,-329.6215C174.8049,-322.0871 30.6088,-305.7588 15.495,-288 -51.1112,-209.7375 116.9079,-127.7021 192.2113,-96.0531"/>
<polygon fill="#191970" stroke="#191970" points="193.8623,-99.1577 201.7639,-92.0997 191.1855,-92.6897 193.8623,-99.1577"/>
</g>
<!-- Node4 -->
<g id="node5" class="node">
<title>Node4</title>
<g id="a_node5"><a xlink:href="../../d4/d54/Geo_8h.html" target="_top" xlink:title="TOFBase/Geo.h">
<polygon fill="none" stroke="#000000" points="290.995,-263 290.995,-282 381.995,-282 381.995,-263 290.995,-263"/>
<text text-anchor="middle" x="336.495" y="-270" font-family="Helvetica,sans-Serif" font-size="10.00" fill="#000000">TOFBase/Geo.h</text>
</a>
</g>
</g>
<!-- Node1&#45;&gt;Node4 -->
<g id="edge4" class="edge">
<title>Node1&#45;&gt;Node4</title>
<path fill="none" stroke="#191970" d="M305.2762,-324.3906C310.621,-315.5068 318.7109,-302.0601 325.3161,-291.0811"/>
<polygon fill="#191970" stroke="#191970" points="328.4761,-292.618 330.6322,-282.2449 322.4779,-289.0093 328.4761,-292.618"/>
</g>
<!-- Node23 -->
<g id="node24" class="node">
<title>Node23</title>
<g id="a_node24"><a xlink:href="../../de/d64/RangeReference_8h.html" target="_top" xlink:title="Class to refer to the 1st entry and N elements of some group in the continuous container. ">
<polygon fill="none" stroke="#000000" points="24.495,-263 24.495,-282 234.495,-282 234.495,-263 24.495,-263"/>
<text text-anchor="middle" x="129.495" y="-270" font-family="Helvetica,sans-Serif" font-size="10.00" fill="#000000">CommonDataFormat/RangeReference.h</text>
</a>
</g>
</g>
<!-- Node1&#45;&gt;Node23 -->
<g id="edge32" class="edge">
<title>Node1&#45;&gt;Node23</title>
<path fill="none" stroke="#191970" d="M272.9325,-324.3906C243.9894,-313.92 197.5256,-297.1111 165.3593,-285.4745"/>
<polygon fill="#191970" stroke="#191970" points="166.4652,-282.1526 155.871,-282.0419 164.0839,-288.7351 166.4652,-282.1526"/>
</g>
<!-- Node25 -->
<g id="node26" class="node">
<title>Node25</title>
<polygon fill="none" stroke="#bfbfbf" points="399.995,-263 399.995,-282 456.995,-282 456.995,-263 399.995,-263"/>
<text text-anchor="middle" x="428.495" y="-270" font-family="Helvetica,sans-Serif" font-size="10.00" fill="#000000">gsl/span</text>
</g>
<!-- Node1&#45;&gt;Node25 -->
<g id="edge35" class="edge">
<title>Node1&#45;&gt;Node25</title>
<path fill="none" stroke="#191970" d="M319.6512,-324.3906C341.046,-314.1908 375.057,-297.9763 399.3652,-286.3875"/>
<polygon fill="#191970" stroke="#191970" points="400.9598,-289.5047 408.4803,-282.0419 397.9474,-283.186 400.9598,-289.5047"/>
</g>
<!-- Node26 -->
<g id="node27" class="node">
<title>Node26</title>
<polygon fill="none" stroke="#bfbfbf" points="474.995,-257.5 474.995,-287.5 581.995,-287.5 581.995,-257.5 474.995,-257.5"/>
<text text-anchor="start" x="482.995" y="-275.5" font-family="Helvetica,sans-Serif" font-size="10.00" fill="#000000">boost/serialization</text>
<text text-anchor="middle" x="528.495" y="-264.5" font-family="Helvetica,sans-Serif" font-size="10.00" fill="#000000">/base_object.hpp</text>
</g>
<!-- Node1&#45;&gt;Node26 -->
<g id="edge36" class="edge">
<title>Node1&#45;&gt;Node26</title>
<path fill="none" stroke="#191970" d="M335.2762,-324.3906C369.864,-315.1018 423.0264,-300.8245 464.8382,-289.5956"/>
<polygon fill="#191970" stroke="#191970" points="465.91,-292.9319 474.66,-286.9579 464.0944,-286.1714 465.91,-292.9319"/>
</g>
<!-- Node4&#45;&gt;Node3 -->
<g id="edge5" class="edge">
<title>Node4&#45;&gt;Node3</title>
<path fill="none" stroke="#191970" d="M330.8888,-262.8167C313.5338,-232.8398 260.4752,-141.1931 237.4018,-101.3391"/>
<polygon fill="#191970" stroke="#191970" points="240.2612,-99.2923 232.2218,-92.3917 234.2032,-102.7996 240.2612,-99.2923"/>
</g>
<!-- Node5 -->
<g id="node6" class="node">
<title>Node5</title>
<g id="a_node6"><a xlink:href="../../d4/dc6/LHCConstants_8h.html" target="_top" xlink:title="Header to collect LHC related constants. ">
<polygon fill="none" stroke="#000000" points="341.495,-73 341.495,-92 531.495,-92 531.495,-73 341.495,-73"/>
<text text-anchor="middle" x="436.495" y="-80" font-family="Helvetica,sans-Serif" font-size="10.00" fill="#000000">CommonConstants/LHCConstants.h</text>
</a>
</g>
</g>
<!-- Node4&#45;&gt;Node5 -->
<g id="edge6" class="edge">
<title>Node4&#45;&gt;Node5</title>
<path fill="none" stroke="#191970" d="M339.6547,-262.6657C347.3562,-239.3645 368.4628,-179.3491 395.495,-134 402.7364,-121.8519 412.5574,-109.4143 420.772,-99.8059"/>
<polygon fill="#191970" stroke="#191970" points="423.5083,-101.9941 427.4722,-92.1687 418.2463,-97.3777 423.5083,-101.9941"/>
</g>
<!-- Node6 -->
<g id="node7" class="node">
<title>Node6</title>
<g id="a_node7"><a xlink:href="../../d1/dec/HBFUtils_8h.html" target="_top" xlink:title="DetectorsRaw/HBFUtils.h">
<polygon fill="none" stroke="#000000" points="601.995,-201.5 601.995,-220.5 740.995,-220.5 740.995,-201.5 601.995,-201.5"/>
<text text-anchor="middle" x="671.495" y="-208.5" font-family="Helvetica,sans-Serif" font-size="10.00" fill="#000000">DetectorsRaw/HBFUtils.h</text>
</a>
</g>
</g>
<!-- Node4&#45;&gt;Node6 -->
<g id="edge7" class="edge">
<title>Node4&#45;&gt;Node6</title>
<path fill="none" stroke="#191970" d="M368.0429,-262.9564C375.6782,-260.828 383.8445,-258.7009 391.495,-257 458.5216,-242.0986 535.5636,-229.7876 591.846,-221.6635"/>
<polygon fill="#191970" stroke="#191970" points="592.3494,-225.1272 601.7527,-220.2458 591.3577,-218.1978 592.3494,-225.1272"/>
</g>
<!-- Node6&#45;&gt;Node3 -->
<g id="edge8" class="edge">
<title>Node6&#45;&gt;Node3</title>
<path fill="none" stroke="#191970" d="M601.85,-205.0126C545.243,-198.8187 463.8551,-186.8706 395.495,-165 341.4362,-147.7048 282.8658,-115.8558 250.839,-97.1941"/>
<polygon fill="#191970" stroke="#191970" points="252.5528,-94.1416 242.1605,-92.0799 248.9988,-100.1723 252.5528,-94.1416"/>
</g>
<!-- Node7 -->
<g id="node8" class="node">
<title>Node7</title>
<g id="a_node8"><a xlink:href="../../db/d2c/ConfigurableParam_8h.html" target="_top" xlink:title="CommonUtils/Configurable\lParam.h">
<polygon fill="none" stroke="#000000" points="863.495,-67.5 863.495,-97.5 1011.495,-97.5 1011.495,-67.5 863.495,-67.5"/>
<text text-anchor="start" x="871.495" y="-85.5" font-family="Helvetica,sans-Serif" font-size="10.00" fill="#000000">CommonUtils/Configurable</text>
<text text-anchor="middle" x="937.495" y="-74.5" font-family="Helvetica,sans-Serif" font-size="10.00" fill="#000000">Param.h</text>
</a>
</g>
</g>
<!-- Node6&#45;&gt;Node7 -->
<g id="edge9" class="edge">
<title>Node6&#45;&gt;Node7</title>
<path fill="none" stroke="#191970" d="M741.2008,-208.3163C810.1029,-204.0581 908.7146,-193.0991 933.495,-165 947.0529,-149.6263 946.7171,-125.6988 943.7762,-107.5634"/>
<polygon fill="#191970" stroke="#191970" points="947.1932,-106.7998 941.829,-97.6633 940.3248,-108.1508 947.1932,-106.7998"/>
</g>
<!-- Node14 -->
<g id="node15" class="node">
<title>Node14</title>
<g id="a_node15"><a xlink:href="../../da/d6b/ConfigurableParamHelper_8h.html" target="_top" xlink:title="CommonUtils/Configurable\lParamHelper.h">
<polygon fill="none" stroke="#000000" points="1008.495,-134.5 1008.495,-164.5 1156.495,-164.5 1156.495,-134.5 1008.495,-134.5"/>
<text text-anchor="start" x="1016.495" y="-152.5" font-family="Helvetica,sans-Serif" font-size="10.00" fill="#000000">CommonUtils/Configurable</text>
<text text-anchor="middle" x="1082.495" y="-141.5" font-family="Helvetica,sans-Serif" font-size="10.00" fill="#000000">ParamHelper.h</text>
</a>
</g>
</g>
<!-- Node6&#45;&gt;Node14 -->
<g id="edge16" class="edge">
<title>Node6&#45;&gt;Node14</title>
<path fill="none" stroke="#191970" d="M735.2628,-201.4581C805.9323,-190.8835 920.2025,-173.7846 998.2089,-162.1122"/>
<polygon fill="#191970" stroke="#191970" points="999.1174,-165.5153 1008.4893,-160.5738 998.0814,-158.5923 999.1174,-165.5153"/>
</g>
<!-- Node18 -->
<g id="node19" class="node">
<title>Node18</title>
<g id="a_node19"><a xlink:href="../../d9/d80/InteractionRecord_8h.html" target="_top" xlink:title="CommonDataFormat/Interaction\lRecord.h">
<polygon fill="none" stroke="#000000" points="404.495,-134.5 404.495,-164.5 578.495,-164.5 578.495,-134.5 404.495,-134.5"/>
<text text-anchor="start" x="412.495" y="-152.5" font-family="Helvetica,sans-Serif" font-size="10.00" fill="#000000">CommonDataFormat/Interaction</text>
<text text-anchor="middle" x="491.495" y="-141.5" font-family="Helvetica,sans-Serif" font-size="10.00" fill="#000000">Record.h</text>
</a>
</g>
</g>
<!-- Node6&#45;&gt;Node18 -->
<g id="edge22" class="edge">
<title>Node6&#45;&gt;Node18</title>
<path fill="none" stroke="#191970" d="M643.37,-201.3906C617.2047,-192.4508 577.5159,-178.8905 545.2723,-167.8739"/>
<polygon fill="#191970" stroke="#191970" points="546.1225,-164.4658 535.5279,-164.5446 543.8592,-171.0898 546.1225,-164.4658"/>
</g>
<!-- Node21 -->
<g id="node22" class="node">
<title>Node21</title>
<g id="a_node22"><a xlink:href="../../d4/d78/DataFormats_2Headers_2include_2Headers_2RAWDataHeader_8h.html" target="_top" xlink:title="Headers/RAWDataHeader.h">
<polygon fill="none" stroke="#000000" points="596.995,-140 596.995,-159 745.995,-159 745.995,-140 596.995,-140"/>
<text text-anchor="middle" x="671.495" y="-147" font-family="Helvetica,sans-Serif" font-size="10.00" fill="#000000">Headers/RAWDataHeader.h</text>
</a>
</g>
</g>
<!-- Node6&#45;&gt;Node21 -->
<g id="edge28" class="edge">
<title>Node6&#45;&gt;Node21</title>
<path fill="none" stroke="#191970" d="M671.495,-201.3906C671.495,-192.8657 671.495,-180.1392 671.495,-169.4235"/>
<polygon fill="#191970" stroke="#191970" points="674.9951,-169.2448 671.495,-159.2449 667.9951,-169.2449 674.9951,-169.2448"/>
</g>
<!-- Node22 -->
<g id="node23" class="node">
<title>Node22</title>
<g id="a_node23"><a xlink:href="../../de/da4/Triggers_8h.html" target="_top" xlink:title="Definition of the 32 Central Trigger System (CTS) Trigger Types defined in https://twiki.cern.ch/twiki/pub/ALICE/NoteForFEDevelopers/CTS_CRU_FE_interface.pdf. ">
<polygon fill="none" stroke="#000000" points="764.495,-140 764.495,-159 924.495,-159 924.495,-140 764.495,-140"/>
<text text-anchor="middle" x="844.495" y="-147" font-family="Helvetica,sans-Serif" font-size="10.00" fill="#000000">CommonConstants/Triggers.h</text>
</a>
</g>
</g>
<!-- Node6&#45;&gt;Node22 -->
<g id="edge30" class="edge">
<title>Node6&#45;&gt;Node22</title>
<path fill="none" stroke="#191970" d="M698.5262,-201.3906C727.9801,-190.92 775.2639,-174.1111 807.9977,-162.4745"/>
<polygon fill="#191970" stroke="#191970" points="809.4036,-165.6893 817.6536,-159.0419 807.0588,-159.0937 809.4036,-165.6893"/>
</g>
<!-- Node8 -->
<g id="node9" class="node">
<title>Node8</title>
<polygon fill="none" stroke="#bfbfbf" points="852.995,-6 852.995,-25 899.995,-25 899.995,-6 852.995,-6"/>
<text text-anchor="middle" x="876.495" y="-13" font-family="Helvetica,sans-Serif" font-size="10.00" fill="#000000">vector</text>
</g>
<!-- Node7&#45;&gt;Node8 -->
<g id="edge10" class="edge">
<title>Node7&#45;&gt;Node8</title>
<path fill="none" stroke="#191970" d="M923.6531,-67.2967C914.2413,-56.9591 901.7767,-43.2684 892.0261,-32.5588"/>
<polygon fill="#191970" stroke="#191970" points="894.5146,-30.0931 885.1943,-25.055 889.3385,-34.8057 894.5146,-30.0931"/>
</g>
<!-- Node9 -->
<g id="node10" class="node">
<title>Node9</title>
<polygon fill="none" stroke="#bfbfbf" points="918.495,-6 918.495,-25 956.495,-25 956.495,-6 918.495,-6"/>
<text text-anchor="middle" x="937.495" y="-13" font-family="Helvetica,sans-Serif" font-size="10.00" fill="#000000">map</text>
</g>
<!-- Node7&#45;&gt;Node9 -->
<g id="edge11" class="edge">
<title>Node7&#45;&gt;Node9</title>
<path fill="none" stroke="#191970" d="M937.495,-67.2967C937.495,-57.7699 937.495,-45.3954 937.495,-35.1306"/>
<polygon fill="#191970" stroke="#191970" points="940.9951,-35.0549 937.495,-25.055 933.9951,-35.055 940.9951,-35.0549"/>
</g>
<!-- Node10 -->
<g id="node11" class="node">
<title>Node10</title>
<polygon fill="none" stroke="#bfbfbf" points="974.995,-6 974.995,-25 1067.995,-25 1067.995,-6 974.995,-6"/>
<text text-anchor="middle" x="1021.495" y="-13" font-family="Helvetica,sans-Serif" font-size="10.00" fill="#000000">unordered_map</text>
</g>
<!-- Node7&#45;&gt;Node10 -->
<g id="edge12" class="edge">
<title>Node7&#45;&gt;Node10</title>
<path fill="none" stroke="#191970" d="M956.5559,-67.2967C970.0247,-56.5537 988.0335,-42.1895 1001.6698,-31.3129"/>
<polygon fill="#191970" stroke="#191970" points="1003.8803,-34.0268 1009.5156,-25.055 999.5154,-28.5544 1003.8803,-34.0268"/>
</g>
<!-- Node11 -->
<g id="node12" class="node">
<title>Node11</title>
<polygon fill="none" stroke="#bfbfbf" points="642.995,-.5 642.995,-30.5 755.995,-30.5 755.995,-.5 642.995,-.5"/>
<text text-anchor="start" x="650.995" y="-18.5" font-family="Helvetica,sans-Serif" font-size="10.00" fill="#000000">boost/property_tree</text>
<text text-anchor="middle" x="699.495" y="-7.5" font-family="Helvetica,sans-Serif" font-size="10.00" fill="#000000">/ptree.hpp</text>
</g>
<!-- Node7&#45;&gt;Node11 -->
<g id="edge13" class="edge">
<title>Node7&#45;&gt;Node11</title>
<path fill="none" stroke="#191970" d="M884.0831,-67.4639C848.2276,-57.3701 800.8191,-44.024 763.0261,-33.3848"/>
<polygon fill="#191970" stroke="#191970" points="763.7141,-29.9425 753.1398,-30.6017 761.8172,-36.6806 763.7141,-29.9425"/>
</g>
<!-- Node12 -->
<g id="node13" class="node">
<title>Node12</title>
<polygon fill="none" stroke="#bfbfbf" points="1085.995,-6 1085.995,-25 1142.995,-25 1142.995,-6 1085.995,-6"/>
<text text-anchor="middle" x="1114.495" y="-13" font-family="Helvetica,sans-Serif" font-size="10.00" fill="#000000">typeinfo</text>
</g>
<!-- Node7&#45;&gt;Node12 -->
<g id="edge14" class="edge">
<title>Node7&#45;&gt;Node12</title>
<path fill="none" stroke="#191970" d="M979.9514,-67.434C1007.8039,-57.4148 1044.9573,-43.7927 1077.495,-31 1079.2936,-30.2928 1081.1371,-29.5569 1082.9945,-28.8066"/>
<polygon fill="#191970" stroke="#191970" points="1084.3341,-32.0402 1092.2551,-25.004 1081.6752,-25.5648 1084.3341,-32.0402"/>
</g>
<!-- Node13 -->
<g id="node14" class="node">
<title>Node13</title>
<polygon fill="none" stroke="#bfbfbf" points="774.495,-6 774.495,-25 834.495,-25 834.495,-6 774.495,-6"/>
<text text-anchor="middle" x="804.495" y="-13" font-family="Helvetica,sans-Serif" font-size="10.00" fill="#000000">iostream</text>
</g>
<!-- Node7&#45;&gt;Node13 -->
<g id="edge15" class="edge">
<title>Node7&#45;&gt;Node13</title>
<path fill="none" stroke="#191970" d="M907.6472,-67.4639C885.231,-56.1715 854.7344,-40.8086 832.7212,-29.7192"/>
<polygon fill="#191970" stroke="#191970" points="834.065,-26.4772 823.5595,-25.1039 830.9156,-32.7287 834.065,-26.4772"/>
</g>
<!-- Node14&#45;&gt;Node7 -->
<g id="edge17" class="edge">
<title>Node14&#45;&gt;Node7</title>
<path fill="none" stroke="#191970" d="M1049.9542,-134.4639C1029.1319,-124.8426 1001.9146,-112.2663 979.4714,-101.896"/>
<polygon fill="#191970" stroke="#191970" points="980.7236,-98.6191 970.1777,-97.6017 977.7874,-104.9735 980.7236,-98.6191"/>
</g>
<!-- Node14&#45;&gt;Node12 -->
<g id="edge20" class="edge">
<title>Node14&#45;&gt;Node12</title>
<path fill="none" stroke="#191970" d="M1072.3249,-134.4762C1062.2619,-117.6116 1049.676,-89.6456 1059.495,-67 1065.8599,-52.3206 1078.6979,-39.9121 1090.3706,-30.9554"/>
<polygon fill="#191970" stroke="#191970" points="1092.4862,-33.7451 1098.555,-25.0606 1088.395,-28.065 1092.4862,-33.7451"/>
</g>
<!-- Node15 -->
<g id="node16" class="node">
<title>Node15</title>
<polygon fill="none" stroke="#bfbfbf" points="1067.995,-73 1067.995,-92 1124.995,-92 1124.995,-73 1067.995,-73"/>
<text text-anchor="middle" x="1096.495" y="-80" font-family="Helvetica,sans-Serif" font-size="10.00" fill="#000000">TClass.h</text>
</g>
<!-- Node14&#45;&gt;Node15 -->
<g id="edge18" class="edge">
<title>Node14&#45;&gt;Node15</title>
<path fill="none" stroke="#191970" d="M1085.6718,-134.2967C1087.6625,-124.7699 1090.2482,-112.3954 1092.3931,-102.1306"/>
<polygon fill="#191970" stroke="#191970" points="1095.879,-102.5595 1094.4984,-92.055 1089.027,-101.1277 1095.879,-102.5595"/>
</g>
<!-- Node16 -->
<g id="node17" class="node">
<title>Node16</title>
<polygon fill="none" stroke="#bfbfbf" points="1142.995,-73 1142.995,-92 1211.995,-92 1211.995,-73 1142.995,-73"/>
<text text-anchor="middle" x="1177.495" y="-80" font-family="Helvetica,sans-Serif" font-size="10.00" fill="#000000">type_traits</text>
</g>
<!-- Node14&#45;&gt;Node16 -->
<g id="edge19" class="edge">
<title>Node14&#45;&gt;Node16</title>
<path fill="none" stroke="#191970" d="M1104.052,-134.2967C1119.4282,-123.4524 1140.0364,-108.9182 1155.5088,-98.006"/>
<polygon fill="#191970" stroke="#191970" points="1157.792,-100.6787 1163.9469,-92.055 1153.7576,-94.9582 1157.792,-100.6787"/>
</g>
<!-- Node17 -->
<g id="node18" class="node">
<title>Node17</title>
<polygon fill="none" stroke="#bfbfbf" points="1230.495,-73 1230.495,-92 1278.495,-92 1278.495,-73 1230.495,-73"/>
<text text-anchor="middle" x="1254.495" y="-80" font-family="Helvetica,sans-Serif" font-size="10.00" fill="#000000">TFile.h</text>
</g>
<!-- Node14&#45;&gt;Node17 -->
<g id="edge21" class="edge">
<title>Node14&#45;&gt;Node17</title>
<path fill="none" stroke="#191970" d="M1126.0638,-134.4227C1153.6442,-124.6168 1189.929,-111.2332 1221.495,-98 1222.8449,-97.4341 1224.2202,-96.8439 1225.6053,-96.2385"/>
<polygon fill="#191970" stroke="#191970" points="1227.0521,-99.4256 1234.723,-92.1174 1224.169,-93.0469 1227.0521,-99.4256"/>
</g>
<!-- Node18&#45;&gt;Node2 -->
<g id="edge24" class="edge">
<title>Node18&#45;&gt;Node2</title>
<path fill="none" stroke="#191970" d="M440.1324,-134.4989C408.7317,-124.9256 367.927,-111.7626 332.495,-98 330.9152,-97.3864 329.3037,-96.7366 327.6836,-96.0643"/>
<polygon fill="#191970" stroke="#191970" points="329.035,-92.8355 318.4682,-92.0653 326.2483,-99.2569 329.035,-92.8355"/>
</g>
<!-- Node18&#45;&gt;Node3 -->
<g id="edge23" class="edge">
<title>Node18&#45;&gt;Node3</title>
<path fill="none" stroke="#191970" d="M411.7352,-134.4585C368.1018,-125.4489 313.3411,-112.862 265.495,-98 263.2054,-97.2888 260.86,-96.5043 258.511,-95.6772"/>
<polygon fill="#191970" stroke="#191970" points="259.5606,-92.3331 248.968,-92.115 257.1126,-98.8912 259.5606,-92.3331"/>
</g>
<!-- Node18&#45;&gt;Node5 -->
<g id="edge27" class="edge">
<title>Node18&#45;&gt;Node5</title>
<path fill="none" stroke="#191970" d="M479.0146,-134.2967C470.6118,-124.0605 459.5101,-110.5366 450.7577,-99.8746"/>
<polygon fill="#191970" stroke="#191970" points="453.3889,-97.5635 444.3386,-92.055 447.9783,-102.005 453.3889,-97.5635"/>
</g>
<!-- Node19 -->
<g id="node20" class="node">
<title>Node19</title>
<polygon fill="none" stroke="#bfbfbf" points="549.995,-73 549.995,-92 596.995,-92 596.995,-73 549.995,-73"/>
<text text-anchor="middle" x="573.495" y="-80" font-family="Helvetica,sans-Serif" font-size="10.00" fill="#000000">cmath</text>
</g>
<!-- Node18&#45;&gt;Node19 -->
<g id="edge25" class="edge">
<title>Node18&#45;&gt;Node19</title>
<path fill="none" stroke="#191970" d="M510.1021,-134.2967C523.1261,-123.6551 540.4989,-109.4602 553.764,-98.6217"/>
<polygon fill="#191970" stroke="#191970" points="556.2716,-101.0926 561.8008,-92.055 551.8425,-95.6719 556.2716,-101.0926"/>
</g>
<!-- Node20 -->
<g id="node21" class="node">
<title>Node20</title>
<polygon fill="none" stroke="#bfbfbf" points="646.495,-73 646.495,-92 696.495,-92 696.495,-73 646.495,-73"/>
<text text-anchor="middle" x="671.495" y="-80" font-family="Helvetica,sans-Serif" font-size="10.00" fill="#000000">cstdint</text>
</g>
<!-- Node18&#45;&gt;Node20 -->
<g id="edge26" class="edge">
<title>Node18&#45;&gt;Node20</title>
<path fill="none" stroke="#191970" d="M531.8905,-134.4639C563.4599,-122.7131 606.8712,-106.5544 636.8645,-95.3902"/>
<polygon fill="#191970" stroke="#191970" points="638.3344,-98.5778 646.4852,-91.8092 635.8924,-92.0175 638.3344,-98.5778"/>
</g>
<!-- Node21&#45;&gt;Node20 -->
<g id="edge29" class="edge">
<title>Node21&#45;&gt;Node20</title>
<path fill="none" stroke="#191970" d="M671.495,-139.9005C671.495,-130.149 671.495,-114.7597 671.495,-102.3695"/>
<polygon fill="#191970" stroke="#191970" points="674.9951,-102.0816 671.495,-92.0817 667.9951,-102.0817 674.9951,-102.0816"/>
</g>
<!-- Node22&#45;&gt;Node20 -->
<g id="edge31" class="edge">
<title>Node22&#45;&gt;Node20</title>
<path fill="none" stroke="#191970" d="M819.7083,-139.9005C789.7757,-128.3082 739.2711,-108.7486 705.6595,-95.7313"/>
<polygon fill="#191970" stroke="#191970" points="706.8248,-92.4294 696.2357,-92.0817 704.2968,-98.957 706.8248,-92.4294"/>
</g>
<!-- Node24 -->
<g id="node25" class="node">
<title>Node24</title>
<g id="a_node25"><a xlink:href="../../d2/d45/GPUCommonRtypes_8h.html" target="_top" xlink:title="GPUCommonRtypes.h">
<polygon fill="none" stroke="#000000" points="87.995,-201.5 87.995,-220.5 212.995,-220.5 212.995,-201.5 87.995,-201.5"/>
<text text-anchor="middle" x="150.495" y="-208.5" font-family="Helvetica,sans-Serif" font-size="10.00" fill="#000000">GPUCommonRtypes.h</text>
</a>
</g>
</g>
<!-- Node23&#45;&gt;Node24 -->
<g id="edge33" class="edge">
<title>Node23&#45;&gt;Node24</title>
<path fill="none" stroke="#191970" d="M132.7762,-262.8906C135.7485,-254.1862 140.2164,-241.1015 143.922,-230.2494"/>
<polygon fill="#191970" stroke="#191970" points="147.2482,-231.3394 147.1675,-220.7449 140.6237,-229.0773 147.2482,-231.3394"/>
</g>
<!-- Node24&#45;&gt;Node3 -->
<g id="edge34" class="edge">
<title>Node24&#45;&gt;Node3</title>
<path fill="none" stroke="#191970" d="M156.2073,-201.3416C168.8064,-180.0393 199.1585,-128.7203 215.5519,-101.0025"/>
<polygon fill="#191970" stroke="#191970" points="218.6382,-102.6595 220.7164,-92.2705 212.6131,-99.096 218.6382,-102.6595"/>
</g>
</g>
</svg>
