<?xml version="1.0" encoding="UTF-8" standalone="no"?>
<!DOCTYPE svg PUBLIC "-//W3C//DTD SVG 1.1//EN"
 "http://www.w3.org/Graphics/SVG/1.1/DTD/svg11.dtd">
<!-- Generated by graphviz version 2.40.1 (20161225.0304)
 -->
<!-- Title: /home/travis/build/AliceO2Group/AliceO2/Framework/Core/include/Framework/Expressions.h Pages: 1 -->
<svg width="1409pt" height="173pt"
 viewBox="0.00 0.00 1409.00 173.00" xmlns="http://www.w3.org/2000/svg" xmlns:xlink="http://www.w3.org/1999/xlink">
<g id="graph0" class="graph" transform="scale(1 1) rotate(0) translate(4 169)">
<title>/home/travis/build/AliceO2Group/AliceO2/Framework/Core/include/Framework/Expressions.h</title>
<!-- Node0 -->
<g id="node1" class="node">
<title>Node0</title>
<polygon fill="#bfbfbf" stroke="#000000" points="764,-112.5 764,-164.5 908,-164.5 908,-112.5 764,-112.5"/>
<text text-anchor="start" x="772" y="-152.5" font-family="Helvetica,sans-Serif" font-size="10.00" fill="#000000">/home/travis/build</text>
<text text-anchor="start" x="772" y="-141.5" font-family="Helvetica,sans-Serif" font-size="10.00" fill="#000000">/AliceO2Group/AliceO2</text>
<text text-anchor="start" x="772" y="-130.5" font-family="Helvetica,sans-Serif" font-size="10.00" fill="#000000">/Framework/Core/include</text>
<text text-anchor="middle" x="836" y="-119.5" font-family="Helvetica,sans-Serif" font-size="10.00" fill="#000000">/Framework/Expressions.h</text>
</g>
<!-- Node1 -->
<g id="node2" class="node">
<title>Node1</title>
<g id="a_node2"><a xlink:href="../../dd/dc2/BasicOps_8h.html" target="_top" xlink:title="Framework/BasicOps.h">
<polygon fill="none" stroke="#000000" points="0,-56.5 0,-75.5 128,-75.5 128,-56.5 0,-56.5"/>
<text text-anchor="middle" x="64" y="-63.5" font-family="Helvetica,sans-Serif" font-size="10.00" fill="#000000">Framework/BasicOps.h</text>
</a>
</g>
</g>
<!-- Node0&#45;&gt;Node1 -->
<g id="edge1" class="edge">
<title>Node0&#45;&gt;Node1</title>
<path fill="none" stroke="#191970" d="M763.9399,-133.1792C638.844,-123.6953 373.1729,-102.4654 138.1793,-76.0901"/>
<polygon fill="#191970" stroke="#191970" points="138.402,-72.5931 128.0728,-74.9504 137.6176,-79.549 138.402,-72.5931"/>
</g>
<!-- Node2 -->
<g id="node3" class="node">
<title>Node2</title>
<g id="a_node3"><a xlink:href="../../d9/de8/CompilerBuiltins_8h.html" target="_top" xlink:title="Framework/CompilerBuiltins.h">
<polygon fill="none" stroke="#000000" points="146,-56.5 146,-75.5 310,-75.5 310,-56.5 146,-56.5"/>
<text text-anchor="middle" x="228" y="-63.5" font-family="Helvetica,sans-Serif" font-size="10.00" fill="#000000">Framework/CompilerBuiltins.h</text>
</a>
</g>
</g>
<!-- Node0&#45;&gt;Node2 -->
<g id="edge2" class="edge">
<title>Node0&#45;&gt;Node2</title>
<path fill="none" stroke="#191970" d="M763.8668,-129.8986C652.4991,-116.6187 438.9174,-91.1505 317.7359,-76.7004"/>
<polygon fill="#191970" stroke="#191970" points="318.0832,-73.2171 307.7391,-75.5084 317.2544,-80.1679 318.0832,-73.2171"/>
</g>
<!-- Node3 -->
<g id="node4" class="node">
<title>Node3</title>
<g id="a_node4"><a xlink:href="../../dd/dce/Pack_8h.html" target="_top" xlink:title="Framework/Pack.h">
<polygon fill="none" stroke="#000000" points="328.5,-56.5 328.5,-75.5 433.5,-75.5 433.5,-56.5 328.5,-56.5"/>
<text text-anchor="middle" x="381" y="-63.5" font-family="Helvetica,sans-Serif" font-size="10.00" fill="#000000">Framework/Pack.h</text>
</a>
</g>
</g>
<!-- Node0&#45;&gt;Node3 -->
<g id="edge3" class="edge">
<title>Node0&#45;&gt;Node3</title>
<path fill="none" stroke="#191970" d="M763.9195,-127.0855C687.2496,-114.9332 562.1204,-95.0686 443.7313,-76.1146"/>
<polygon fill="#191970" stroke="#191970" points="444.1916,-72.6438 433.7639,-74.5184 443.0846,-79.5557 444.1916,-72.6438"/>
</g>
<!-- Node7 -->
<g id="node8" class="node">
<title>Node7</title>
<g id="a_node8"><a xlink:href="../../d1/d00/CheckTypes_8h.html" target="_top" xlink:title="Framework/CheckTypes.h">
<polygon fill="none" stroke="#000000" points="452,-56.5 452,-75.5 592,-75.5 592,-56.5 452,-56.5"/>
<text text-anchor="middle" x="522" y="-63.5" font-family="Helvetica,sans-Serif" font-size="10.00" fill="#000000">Framework/CheckTypes.h</text>
</a>
</g>
</g>
<!-- Node0&#45;&gt;Node7 -->
<g id="edge7" class="edge">
<title>Node0&#45;&gt;Node7</title>
<path fill="none" stroke="#191970" d="M763.9621,-121.867C705.7394,-108.4239 625.2088,-89.83 573.3571,-77.8579"/>
<polygon fill="#191970" stroke="#191970" points="573.9154,-74.3948 563.3843,-75.5553 572.3405,-81.2154 573.9154,-74.3948"/>
</g>
<!-- Node8 -->
<g id="node9" class="node">
<title>Node8</title>
<polygon fill="none" stroke="#bfbfbf" points="610.5,-56.5 610.5,-75.5 711.5,-75.5 711.5,-56.5 610.5,-56.5"/>
<text text-anchor="middle" x="661" y="-63.5" font-family="Helvetica,sans-Serif" font-size="10.00" fill="#000000">arrow/type_fwd.h</text>
</g>
<!-- Node0&#45;&gt;Node8 -->
<g id="edge8" class="edge">
<title>Node0&#45;&gt;Node8</title>
<path fill="none" stroke="#191970" d="M772.821,-112.3258C745.8715,-101.161 715.5784,-88.6111 693.3266,-79.3924"/>
<polygon fill="#191970" stroke="#191970" points="694.5913,-76.128 684.0131,-75.534 691.9121,-82.595 694.5913,-76.128"/>
</g>
<!-- Node9 -->
<g id="node10" class="node">
<title>Node9</title>
<polygon fill="none" stroke="#bfbfbf" points="729.5,-56.5 729.5,-75.5 810.5,-75.5 810.5,-56.5 729.5,-56.5"/>
<text text-anchor="middle" x="770" y="-63.5" font-family="Helvetica,sans-Serif" font-size="10.00" fill="#000000">arrow/table.h</text>
</g>
<!-- Node0&#45;&gt;Node9 -->
<g id="edge9" class="edge">
<title>Node0&#45;&gt;Node9</title>
<path fill="none" stroke="#191970" d="M812.1725,-112.3258C803.3304,-102.613 793.534,-91.8518 785.6102,-83.1476"/>
<polygon fill="#191970" stroke="#191970" points="787.9992,-80.5727 778.6792,-75.534 782.8229,-85.285 787.9992,-80.5727"/>
</g>
<!-- Node10 -->
<g id="node11" class="node">
<title>Node10</title>
<polygon fill="none" stroke="#bfbfbf" points="828.5,-56.5 828.5,-75.5 975.5,-75.5 975.5,-56.5 828.5,-56.5"/>
<text text-anchor="middle" x="902" y="-63.5" font-family="Helvetica,sans-Serif" font-size="10.00" fill="#000000">gandiva/selection_vector.h</text>
</g>
<!-- Node0&#45;&gt;Node10 -->
<g id="edge10" class="edge">
<title>Node0&#45;&gt;Node10</title>
<path fill="none" stroke="#191970" d="M859.8275,-112.3258C868.6696,-102.613 878.466,-91.8518 886.3898,-83.1476"/>
<polygon fill="#191970" stroke="#191970" points="889.1771,-85.285 893.3208,-75.534 884.0008,-80.5727 889.1771,-85.285"/>
</g>
<!-- Node11 -->
<g id="node12" class="node">
<title>Node11</title>
<polygon fill="none" stroke="#bfbfbf" points="994,-56.5 994,-75.5 1086,-75.5 1086,-56.5 994,-56.5"/>
<text text-anchor="middle" x="1040" y="-63.5" font-family="Helvetica,sans-Serif" font-size="10.00" fill="#000000">gandiva/node.h</text>
</g>
<!-- Node0&#45;&gt;Node11 -->
<g id="edge11" class="edge">
<title>Node0&#45;&gt;Node11</title>
<path fill="none" stroke="#191970" d="M908.2099,-112.8372C940.4278,-101.3872 976.9924,-88.3924 1003.4204,-79.0001"/>
<polygon fill="#191970" stroke="#191970" points="1004.7721,-82.2343 1013.0226,-75.5875 1002.4279,-75.6384 1004.7721,-82.2343"/>
</g>
<!-- Node12 -->
<g id="node13" class="node">
<title>Node12</title>
<polygon fill="none" stroke="#bfbfbf" points="1104.5,-56.5 1104.5,-75.5 1193.5,-75.5 1193.5,-56.5 1104.5,-56.5"/>
<text text-anchor="middle" x="1149" y="-63.5" font-family="Helvetica,sans-Serif" font-size="10.00" fill="#000000">gandiva/filter.h</text>
</g>
<!-- Node0&#45;&gt;Node12 -->
<g id="edge12" class="edge">
<title>Node0&#45;&gt;Node12</title>
<path fill="none" stroke="#191970" d="M908.2015,-121.776C966.2564,-108.3288 1046.3711,-89.7719 1097.9365,-77.8278"/>
<polygon fill="#191970" stroke="#191970" points="1098.9016,-81.197 1107.8539,-75.5307 1097.322,-74.3776 1098.9016,-81.197"/>
</g>
<!-- Node13 -->
<g id="node14" class="node">
<title>Node13</title>
<polygon fill="none" stroke="#bfbfbf" points="1211.5,-56.5 1211.5,-75.5 1262.5,-75.5 1262.5,-56.5 1211.5,-56.5"/>
<text text-anchor="middle" x="1237" y="-63.5" font-family="Helvetica,sans-Serif" font-size="10.00" fill="#000000">variant</text>
</g>
<!-- Node0&#45;&gt;Node13 -->
<g id="edge13" class="edge">
<title>Node0&#45;&gt;Node13</title>
<path fill="none" stroke="#191970" d="M908.2259,-128.7577C980.3482,-118.4508 1094.4542,-100.5793 1201.4654,-76.1651"/>
<polygon fill="#191970" stroke="#191970" points="1202.5074,-79.5168 1211.4654,-73.8595 1200.9347,-72.6957 1202.5074,-79.5168"/>
</g>
<!-- Node14 -->
<g id="node15" class="node">
<title>Node14</title>
<polygon fill="none" stroke="#bfbfbf" points="1281,-56.5 1281,-75.5 1325,-75.5 1325,-56.5 1281,-56.5"/>
<text text-anchor="middle" x="1303" y="-63.5" font-family="Helvetica,sans-Serif" font-size="10.00" fill="#000000">string</text>
</g>
<!-- Node0&#45;&gt;Node14 -->
<g id="edge14" class="edge">
<title>Node0&#45;&gt;Node14</title>
<path fill="none" stroke="#191970" d="M908.0574,-131.9543C992.9555,-123.397 1138.2229,-106.1105 1270.8439,-75.956"/>
<polygon fill="#191970" stroke="#191970" points="1271.8166,-79.3237 1280.7755,-73.6679 1270.245,-72.5024 1271.8166,-79.3237"/>
</g>
<!-- Node15 -->
<g id="node16" class="node">
<title>Node15</title>
<polygon fill="none" stroke="#bfbfbf" points="1343,-56.5 1343,-75.5 1401,-75.5 1401,-56.5 1343,-56.5"/>
<text text-anchor="middle" x="1372" y="-63.5" font-family="Helvetica,sans-Serif" font-size="10.00" fill="#000000">memory</text>
</g>
<!-- Node0&#45;&gt;Node15 -->
<g id="edge15" class="edge">
<title>Node0&#45;&gt;Node15</title>
<path fill="none" stroke="#191970" d="M908.2206,-132.4623C1003.4374,-123.8291 1176.2335,-105.8388 1332.3706,-76.1149"/>
<polygon fill="#191970" stroke="#191970" points="1333.4719,-79.4673 1342.63,-74.14 1332.1487,-72.5934 1333.4719,-79.4673"/>
</g>
<!-- Node4 -->
<g id="node5" class="node">
<title>Node4</title>
<polygon fill="none" stroke="#bfbfbf" points="287.5,-.5 287.5,-19.5 340.5,-19.5 340.5,-.5 287.5,-.5"/>
<text text-anchor="middle" x="314" y="-7.5" font-family="Helvetica,sans-Serif" font-size="10.00" fill="#000000">cstddef</text>
</g>
<!-- Node3&#45;&gt;Node4 -->
<g id="edge4" class="edge">
<title>Node3&#45;&gt;Node4</title>
<path fill="none" stroke="#191970" d="M369.3295,-56.2455C359.4339,-47.9746 345.0373,-35.9416 333.4099,-26.2232"/>
<polygon fill="#191970" stroke="#191970" points="335.4542,-23.3703 325.5368,-19.6427 330.965,-28.7413 335.4542,-23.3703"/>
</g>
<!-- Node5 -->
<g id="node6" class="node">
<title>Node5</title>
<polygon fill="none" stroke="#bfbfbf" points="358.5,-.5 358.5,-19.5 403.5,-19.5 403.5,-.5 358.5,-.5"/>
<text text-anchor="middle" x="381" y="-7.5" font-family="Helvetica,sans-Serif" font-size="10.00" fill="#000000">utility</text>
</g>
<!-- Node3&#45;&gt;Node5 -->
<g id="edge5" class="edge">
<title>Node3&#45;&gt;Node5</title>
<path fill="none" stroke="#191970" d="M381,-56.2455C381,-48.9382 381,-38.6944 381,-29.7046"/>
<polygon fill="#191970" stroke="#191970" points="384.5001,-29.6426 381,-19.6427 377.5001,-29.6427 384.5001,-29.6426"/>
</g>
<!-- Node6 -->
<g id="node7" class="node">
<title>Node6</title>
<polygon fill="none" stroke="#bfbfbf" points="422,-.5 422,-19.5 468,-19.5 468,-.5 422,-.5"/>
<text text-anchor="middle" x="445" y="-7.5" font-family="Helvetica,sans-Serif" font-size="10.00" fill="#000000">cstdio</text>
</g>
<!-- Node3&#45;&gt;Node6 -->
<g id="edge6" class="edge">
<title>Node3&#45;&gt;Node6</title>
<path fill="none" stroke="#191970" d="M392.1479,-56.2455C401.5087,-48.0549 415.0858,-36.1749 426.1349,-26.5069"/>
<polygon fill="#191970" stroke="#191970" points="428.7588,-28.8618 433.9798,-19.6427 424.1492,-23.5937 428.7588,-28.8618"/>
</g>
</g>
</svg>
