<?xml version="1.0" encoding="UTF-8" standalone="no"?>
<!DOCTYPE svg PUBLIC "-//W3C//DTD SVG 1.1//EN"
 "http://www.w3.org/Graphics/SVG/1.1/DTD/svg11.dtd">
<!-- Generated by graphviz version 2.40.1 (20161225.0304)
 -->
<!-- Title: /home/travis/build/AliceO2Group/AliceO2/GPU/TPCFastTransformation/devtools/IrregularSpline2D3D.cxx Pages: 1 -->
<!--zoomable 341 -->
<svg id="main" version="1.1" xmlns="http://www.w3.org/2000/svg" xmlns:xlink="http://www.w3.org/1999/xlink" xml:space="preserve" onload="init(evt)">
<style type="text/css"><![CDATA[
.edge:hover path { stroke: red; }
.edge:hover polygon { stroke: red; fill: red; }
]]></style>
<script type="text/javascript"><![CDATA[
var edges = document.getElementsByTagName('g');
if (edges && edges.length) {
  for (var i=0;i<edges.length;i++) {
    if (edges[i].id.substr(0,4)=='edge') {
      edges[i].setAttribute('class','edge');
    }
  }
}
]]></script>
        <defs>
                <circle id="rim" cx="0" cy="0" r="7"/>
                <circle id="rim2" cx="0" cy="0" r="3.5"/>
                <g id="zoomPlus">
                        <use xlink:href="#rim" fill="#404040">
                                <set attributeName="fill" to="#808080" begin="zoomplus.mouseover" end="zoomplus.mouseout"/>
                        </use>
                        <path d="M-4,0h8M0,-4v8" fill="none" stroke="white" stroke-width="1.5" pointer-events="none"/>
                </g>
                <g id="zoomMin">
                        <use xlink:href="#rim" fill="#404040">
                                <set attributeName="fill" to="#808080" begin="zoomminus.mouseover" end="zoomminus.mouseout"/>
                        </use>
                        <path d="M-4,0h8" fill="none" stroke="white" stroke-width="1.5" pointer-events="none"/>
                </g>
                <g id="dirArrow">
                        <path fill="none" stroke="white" stroke-width="1.5" d="M0,-3.0v7 M-2.5,-0.5L0,-3.0L2.5,-0.5"/>
                </g>
               <g id="resetDef">
                       <use xlink:href="#rim2" fill="#404040">
                               <set attributeName="fill" to="#808080" begin="reset.mouseover" end="reset.mouseout"/>
                       </use>
               </g>
        </defs>

<script type="text/javascript">
var viewWidth = 868;
var viewHeight = 341;
var sectionId = 'dynsection-0';
</script>
<script xlink:href="../../svgpan.js"/>
<svg id="graph" class="graph">
<g id="viewport">
<title>/home/travis/build/AliceO2Group/AliceO2/GPU/TPCFastTransformation/devtools/IrregularSpline2D3D.cxx</title>
<!-- Node0 -->
<g id="node1" class="node">
<title>Node0</title>
<polygon fill="#bfbfbf" stroke="#000000" points="607.5,-280.5 607.5,-332.5 790.5,-332.5 790.5,-280.5 607.5,-280.5"/>
<text text-anchor="start" x="615.5" y="-320.5" font-family="Helvetica,sans-Serif" font-size="10.00" fill="#000000">/home/travis/build</text>
<text text-anchor="start" x="615.5" y="-309.5" font-family="Helvetica,sans-Serif" font-size="10.00" fill="#000000">/AliceO2Group/AliceO2</text>
<text text-anchor="start" x="615.5" y="-298.5" font-family="Helvetica,sans-Serif" font-size="10.00" fill="#000000">/GPU/TPCFastTransformation</text>
<text text-anchor="middle" x="699" y="-287.5" font-family="Helvetica,sans-Serif" font-size="10.00" fill="#000000">/devtools/IrregularSpline2D3D.cxx</text>
</g>
<!-- Node1 -->
<g id="node2" class="node">
<title>Node1</title>
<g id="a_node2"><a xlink:href="../../d8/d4b/IrregularSpline2D3D_8h.html" target="_top" xlink:title="Definition of IrregularSpline2D3D class. ">
<polygon fill="none" stroke="#000000" points="537,-224.5 537,-243.5 661,-243.5 661,-224.5 537,-224.5"/>
<text text-anchor="middle" x="599" y="-231.5" font-family="Helvetica,sans-Serif" font-size="10.00" fill="#000000">IrregularSpline2D3D.h</text>
</a>
</g>
</g>
<!-- Node0&#45;&gt;Node1 -->
<g id="edge1" class="edge">
<title>Node0&#45;&gt;Node1</title>
<path fill="none" stroke="#191970" d="M662.8977,-280.3258C648.672,-270.0122 632.8158,-258.5165 620.4575,-249.5567"/>
<polygon fill="#191970" stroke="#191970" points="622.3009,-246.5701 612.1503,-243.534 618.1921,-252.2374 622.3009,-246.5701"/>
</g>
<!-- Node15 -->
<g id="node16" class="node">
<title>Node15</title>
<polygon fill="none" stroke="#bfbfbf" points="712,-.5 712,-19.5 772,-19.5 772,-.5 712,-.5"/>
<text text-anchor="middle" x="742" y="-7.5" font-family="Helvetica,sans-Serif" font-size="10.00" fill="#000000">iostream</text>
</g>
<!-- Node0&#45;&gt;Node15 -->
<g id="edge23" class="edge">
<title>Node0&#45;&gt;Node15</title>
<path fill="none" stroke="#191970" d="M771.963,-280.3263C814.5615,-259.8636 860,-226.6373 860,-178 860,-178 860,-178 860,-122 860,-91.4754 860.8521,-79.1872 841,-56 825.7467,-38.1843 802.1065,-26.8437 781.7522,-19.8812"/>
<polygon fill="#191970" stroke="#191970" points="782.6655,-16.4991 772.0751,-16.8058 780.5453,-23.1703 782.6655,-16.4991"/>
</g>
<!-- Node2 -->
<g id="node3" class="node">
<title>Node2</title>
<g id="a_node3"><a xlink:href="../../d4/de4/IrregularSpline1D_8h.html" target="_top" xlink:title="Definition of IrregularSpline1D class. ">
<polygon fill="none" stroke="#000000" points="588,-168.5 588,-187.5 698,-187.5 698,-168.5 588,-168.5"/>
<text text-anchor="middle" x="643" y="-175.5" font-family="Helvetica,sans-Serif" font-size="10.00" fill="#000000">IrregularSpline1D.h</text>
</a>
</g>
</g>
<!-- Node1&#45;&gt;Node2 -->
<g id="edge2" class="edge">
<title>Node1&#45;&gt;Node2</title>
<path fill="none" stroke="#191970" d="M606.6642,-224.2455C612.8473,-216.3761 621.7063,-205.101 629.1289,-195.6542"/>
<polygon fill="#191970" stroke="#191970" points="631.9975,-197.6683 635.4236,-187.6427 626.4932,-193.3435 631.9975,-197.6683"/>
</g>
<!-- Node3 -->
<g id="node4" class="node">
<title>Node3</title>
<g id="a_node4"><a xlink:href="../../df/d21/GPUCommonDef_8h.html" target="_top" xlink:title="GPUCommonDef.h">
<polygon fill="none" stroke="#000000" points="87.5,-56.5 87.5,-75.5 194.5,-75.5 194.5,-56.5 87.5,-56.5"/>
<text text-anchor="middle" x="141" y="-63.5" font-family="Helvetica,sans-Serif" font-size="10.00" fill="#000000">GPUCommonDef.h</text>
</a>
</g>
</g>
<!-- Node1&#45;&gt;Node3 -->
<g id="edge22" class="edge">
<title>Node1&#45;&gt;Node3</title>
<path fill="none" stroke="#191970" d="M573.0637,-224.4862C495.5333,-196.0471 265.4156,-111.6372 176.5619,-79.0445"/>
<polygon fill="#191970" stroke="#191970" points="177.5287,-75.6712 166.935,-75.5133 175.118,-82.243 177.5287,-75.6712"/>
</g>
<!-- Node6 -->
<g id="node7" class="node">
<title>Node6</title>
<g id="a_node7"><a xlink:href="../../db/dff/FlatObject_8h.html" target="_top" xlink:title="Definition of FlatObject class. ">
<polygon fill="none" stroke="#000000" points="517.5,-112.5 517.5,-131.5 592.5,-131.5 592.5,-112.5 517.5,-112.5"/>
<text text-anchor="middle" x="555" y="-119.5" font-family="Helvetica,sans-Serif" font-size="10.00" fill="#000000">FlatObject.h</text>
</a>
</g>
</g>
<!-- Node1&#45;&gt;Node6 -->
<g id="edge21" class="edge">
<title>Node1&#45;&gt;Node6</title>
<path fill="none" stroke="#191970" d="M594.5324,-224.2028C590.358,-214.9398 584.032,-200.6186 579,-188 572.7994,-172.4509 566.3466,-154.5964 561.6955,-141.3818"/>
<polygon fill="#191970" stroke="#191970" points="564.9902,-140.2 558.391,-131.9113 558.381,-142.5062 564.9902,-140.2"/>
</g>
<!-- Node2&#45;&gt;Node3 -->
<g id="edge3" class="edge">
<title>Node2&#45;&gt;Node3</title>
<path fill="none" stroke="#191970" d="M600.1998,-168.4509C508.5069,-147.9936 293.3567,-99.9919 193.5565,-77.7258"/>
<polygon fill="#191970" stroke="#191970" points="194.2141,-74.2865 183.6919,-75.5249 192.6898,-81.1185 194.2141,-74.2865"/>
</g>
<!-- Node2&#45;&gt;Node6 -->
<g id="edge6" class="edge">
<title>Node2&#45;&gt;Node6</title>
<path fill="none" stroke="#191970" d="M627.6716,-168.2455C614.1697,-159.6534 594.2878,-147.0014 578.7314,-137.1018"/>
<polygon fill="#191970" stroke="#191970" points="580.4685,-134.0587 570.1528,-131.6427 576.7103,-139.9643 580.4685,-134.0587"/>
</g>
<!-- Node7 -->
<g id="node8" class="node">
<title>Node7</title>
<polygon fill="none" stroke="#bfbfbf" points="702.5,-56.5 702.5,-75.5 755.5,-75.5 755.5,-56.5 702.5,-56.5"/>
<text text-anchor="middle" x="729" y="-63.5" font-family="Helvetica,sans-Serif" font-size="10.00" fill="#000000">cstddef</text>
</g>
<!-- Node2&#45;&gt;Node7 -->
<g id="edge18" class="edge">
<title>Node2&#45;&gt;Node7</title>
<path fill="none" stroke="#191970" d="M650.3323,-168.4509C664.7396,-149.688 696.9383,-107.7548 715.3644,-83.758"/>
<polygon fill="#191970" stroke="#191970" points="718.372,-85.588 721.6862,-75.5249 712.8199,-81.3248 718.372,-85.588"/>
</g>
<!-- Node8 -->
<g id="node9" class="node">
<title>Node8</title>
<polygon fill="none" stroke="#bfbfbf" points="774,-56.5 774,-75.5 832,-75.5 832,-56.5 774,-56.5"/>
<text text-anchor="middle" x="803" y="-63.5" font-family="Helvetica,sans-Serif" font-size="10.00" fill="#000000">memory</text>
</g>
<!-- Node2&#45;&gt;Node8 -->
<g id="edge19" class="edge">
<title>Node2&#45;&gt;Node8</title>
<path fill="none" stroke="#191970" d="M656.6415,-168.4509C684.3903,-149.0268 747.6138,-104.7703 781.1579,-81.2895"/>
<polygon fill="#191970" stroke="#191970" points="783.2078,-84.1269 789.393,-75.5249 779.1935,-78.3922 783.2078,-84.1269"/>
</g>
<!-- Node9 -->
<g id="node10" class="node">
<title>Node9</title>
<polygon fill="none" stroke="#bfbfbf" points="634,-56.5 634,-75.5 684,-75.5 684,-56.5 634,-56.5"/>
<text text-anchor="middle" x="659" y="-63.5" font-family="Helvetica,sans-Serif" font-size="10.00" fill="#000000">cstring</text>
</g>
<!-- Node2&#45;&gt;Node9 -->
<g id="edge20" class="edge">
<title>Node2&#45;&gt;Node9</title>
<path fill="none" stroke="#191970" d="M644.3642,-168.4509C646.9737,-150.184 652.7207,-109.9553 656.1861,-85.6976"/>
<polygon fill="#191970" stroke="#191970" points="659.6898,-85.9194 657.6393,-75.5249 652.7602,-84.9294 659.6898,-85.9194"/>
</g>
<!-- Node4 -->
<g id="node5" class="node">
<title>Node4</title>
<g id="a_node5"><a xlink:href="../../d5/d93/GPUCommonDefSettings_8h.html" target="_top" xlink:title="GPUCommonDefSettings.h">
<polygon fill="none" stroke="#000000" points="142,-.5 142,-19.5 290,-19.5 290,-.5 142,-.5"/>
<text text-anchor="middle" x="216" y="-7.5" font-family="Helvetica,sans-Serif" font-size="10.00" fill="#000000">GPUCommonDefSettings.h</text>
</a>
</g>
</g>
<!-- Node3&#45;&gt;Node4 -->
<g id="edge4" class="edge">
<title>Node3&#45;&gt;Node4</title>
<path fill="none" stroke="#191970" d="M154.064,-56.2455C165.3562,-47.814 181.8845,-35.4729 195.0271,-25.6598"/>
<polygon fill="#191970" stroke="#191970" points="197.1669,-28.4301 203.0857,-19.6427 192.9789,-22.8211 197.1669,-28.4301"/>
</g>
<!-- Node5 -->
<g id="node6" class="node">
<title>Node5</title>
<g id="a_node6"><a xlink:href="../../da/d5a/GPUCommonDefAPI_8h.html" target="_top" xlink:title="GPUCommonDefAPI.h">
<polygon fill="none" stroke="#000000" points="0,-.5 0,-19.5 124,-19.5 124,-.5 0,-.5"/>
<text text-anchor="middle" x="62" y="-7.5" font-family="Helvetica,sans-Serif" font-size="10.00" fill="#000000">GPUCommonDefAPI.h</text>
</a>
</g>
</g>
<!-- Node3&#45;&gt;Node5 -->
<g id="edge5" class="edge">
<title>Node3&#45;&gt;Node5</title>
<path fill="none" stroke="#191970" d="M127.2393,-56.2455C115.3448,-47.814 97.935,-35.4729 84.0915,-25.6598"/>
<polygon fill="#191970" stroke="#191970" points="85.7854,-22.5704 75.6031,-19.6427 81.7372,-28.2811 85.7854,-22.5704"/>
</g>
<!-- Node6&#45;&gt;Node3 -->
<g id="edge12" class="edge">
<title>Node6&#45;&gt;Node3</title>
<path fill="none" stroke="#191970" d="M517.295,-117.3989C454.721,-109.6891 325.2261,-93.4205 204.7397,-76.0747"/>
<polygon fill="#191970" stroke="#191970" points="204.9991,-72.5759 194.6012,-74.6094 203.9977,-79.5039 204.9991,-72.5759"/>
</g>
<!-- Node6&#45;&gt;Node7 -->
<g id="edge7" class="edge">
<title>Node6&#45;&gt;Node7</title>
<path fill="none" stroke="#191970" d="M584.9117,-112.3733C614.722,-102.7791 660.5426,-88.0323 692.4828,-77.7527"/>
<polygon fill="#191970" stroke="#191970" points="693.8806,-80.9797 702.3274,-74.5843 691.736,-74.3163 693.8806,-80.9797"/>
</g>
<!-- Node6&#45;&gt;Node8 -->
<g id="edge8" class="edge">
<title>Node6&#45;&gt;Node8</title>
<path fill="none" stroke="#191970" d="M592.6636,-114.2439C632.7187,-105.8862 698.1639,-91.9202 763.868,-76.2024"/>
<polygon fill="#191970" stroke="#191970" points="765.0814,-79.5105 773.9853,-73.7685 763.4441,-72.7046 765.0814,-79.5105"/>
</g>
<!-- Node6&#45;&gt;Node9 -->
<g id="edge9" class="edge">
<title>Node6&#45;&gt;Node9</title>
<path fill="none" stroke="#191970" d="M573.1154,-112.2455C589.445,-103.4527 613.671,-90.4079 632.2339,-80.4125"/>
<polygon fill="#191970" stroke="#191970" points="633.9468,-83.4654 641.0922,-75.6427 630.6281,-77.3021 633.9468,-83.4654"/>
</g>
<!-- Node10 -->
<g id="node11" class="node">
<title>Node10</title>
<polygon fill="none" stroke="#bfbfbf" points="213,-56.5 213,-75.5 265,-75.5 265,-56.5 213,-56.5"/>
<text text-anchor="middle" x="239" y="-63.5" font-family="Helvetica,sans-Serif" font-size="10.00" fill="#000000">cassert</text>
</g>
<!-- Node6&#45;&gt;Node10 -->
<g id="edge10" class="edge">
<title>Node6&#45;&gt;Node10</title>
<path fill="none" stroke="#191970" d="M517.4629,-117.2663C465.1774,-110.365 367.3313,-96.3366 275.0621,-76.0431"/>
<polygon fill="#191970" stroke="#191970" points="275.8112,-72.6243 265.2893,-73.8651 274.2884,-79.4567 275.8112,-72.6243"/>
</g>
<!-- Node11 -->
<g id="node12" class="node">
<title>Node11</title>
<polygon fill="none" stroke="#bfbfbf" points="283,-56.5 283,-75.5 331,-75.5 331,-56.5 283,-56.5"/>
<text text-anchor="middle" x="307" y="-63.5" font-family="Helvetica,sans-Serif" font-size="10.00" fill="#000000">TFile.h</text>
</g>
<!-- Node6&#45;&gt;Node11 -->
<g id="edge11" class="edge">
<title>Node6&#45;&gt;Node11</title>
<path fill="none" stroke="#191970" d="M517.4915,-114.961C476.4309,-107.0383 408.4738,-93.2918 341.0289,-76.1114"/>
<polygon fill="#191970" stroke="#191970" points="341.6419,-72.6552 331.085,-73.552 339.8969,-79.4342 341.6419,-72.6552"/>
</g>
<!-- Node12 -->
<g id="node13" class="node">
<title>Node12</title>
<g id="a_node13"><a xlink:href="../../d2/d45/GPUCommonRtypes_8h.html" target="_top" xlink:title="GPUCommonRtypes.h">
<polygon fill="none" stroke="#000000" points="349.5,-56.5 349.5,-75.5 474.5,-75.5 474.5,-56.5 349.5,-56.5"/>
<text text-anchor="middle" x="412" y="-63.5" font-family="Helvetica,sans-Serif" font-size="10.00" fill="#000000">GPUCommonRtypes.h</text>
</a>
</g>
</g>
<!-- Node6&#45;&gt;Node12 -->
<g id="edge13" class="edge">
<title>Node6&#45;&gt;Node12</title>
<path fill="none" stroke="#191970" d="M530.4174,-112.3733C507.0504,-103.2226 471.7138,-89.3844 445.7216,-79.2057"/>
<polygon fill="#191970" stroke="#191970" points="446.8495,-75.8886 436.2618,-75.5011 444.297,-82.4066 446.8495,-75.8886"/>
</g>
<!-- Node14 -->
<g id="node15" class="node">
<title>Node14</title>
<g id="a_node15"><a xlink:href="../../df/d5b/GPUCommonLogger_8h.html" target="_top" xlink:title="GPUCommonLogger.h">
<polygon fill="none" stroke="#000000" points="492.5,-56.5 492.5,-75.5 615.5,-75.5 615.5,-56.5 492.5,-56.5"/>
<text text-anchor="middle" x="554" y="-63.5" font-family="Helvetica,sans-Serif" font-size="10.00" fill="#000000">GPUCommonLogger.h</text>
</a>
</g>
</g>
<!-- Node6&#45;&gt;Node14 -->
<g id="edge15" class="edge">
<title>Node6&#45;&gt;Node14</title>
<path fill="none" stroke="#191970" d="M554.8258,-112.2455C554.6953,-104.9382 554.5124,-94.6944 554.3519,-85.7046"/>
<polygon fill="#191970" stroke="#191970" points="557.8503,-85.5786 554.1722,-75.6427 550.8514,-85.7036 557.8503,-85.5786"/>
</g>
<!-- Node13 -->
<g id="node14" class="node">
<title>Node13</title>
<polygon fill="none" stroke="#bfbfbf" points="382.5,-.5 382.5,-19.5 441.5,-19.5 441.5,-.5 382.5,-.5"/>
<text text-anchor="middle" x="412" y="-7.5" font-family="Helvetica,sans-Serif" font-size="10.00" fill="#000000">Rtypes.h</text>
</g>
<!-- Node12&#45;&gt;Node13 -->
<g id="edge14" class="edge">
<title>Node12&#45;&gt;Node13</title>
<path fill="none" stroke="#191970" d="M412,-56.2455C412,-48.9382 412,-38.6944 412,-29.7046"/>
<polygon fill="#191970" stroke="#191970" points="415.5001,-29.6426 412,-19.6427 408.5001,-29.6427 415.5001,-29.6426"/>
</g>
<!-- Node14&#45;&gt;Node15 -->
<g id="edge16" class="edge">
<title>Node14&#45;&gt;Node15</title>
<path fill="none" stroke="#191970" d="M586.3184,-56.3733C618.4239,-46.8099 667.717,-32.1268 702.212,-21.8517"/>
<polygon fill="#191970" stroke="#191970" points="703.3793,-25.1561 711.9639,-18.9469 701.3809,-18.4474 703.3793,-25.1561"/>
</g>
<!-- Node16 -->
<g id="node17" class="node">
<title>Node16</title>
<polygon fill="none" stroke="#bfbfbf" points="531,-.5 531,-19.5 577,-19.5 577,-.5 531,-.5"/>
<text text-anchor="middle" x="554" y="-7.5" font-family="Helvetica,sans-Serif" font-size="10.00" fill="#000000">cstdio</text>
</g>
<!-- Node14&#45;&gt;Node16 -->
<g id="edge17" class="edge">
<title>Node14&#45;&gt;Node16</title>
<path fill="none" stroke="#191970" d="M554,-56.2455C554,-48.9382 554,-38.6944 554,-29.7046"/>
<polygon fill="#191970" stroke="#191970" points="557.5001,-29.6426 554,-19.6427 550.5001,-29.6427 557.5001,-29.6426"/>
</g>
</g>
</svg>
        <g id="navigator" transform="translate(0 0)" fill="#404254">
                <rect fill="#f2f5e9" fill-opacity="0.5" stroke="#606060" stroke-width=".5" x="0" y="0" width="60" height="60"/>
                <use id="zoomplus" xlink:href="#zoomPlus" x="17" y="9" onmousedown="handleZoom(evt,'in')"/>
                <use id="zoomminus" xlink:href="#zoomMin" x="42" y="9" onmousedown="handleZoom(evt,'out')"/>
                <use id="reset" xlink:href="#resetDef" x="30" y="36" onmousedown="handleReset()"/>
                <g id="arrowUp" xlink:href="#dirArrow" transform="translate(30 24)" onmousedown="handlePan(0,-1)">
                  <use xlink:href="#rim" fill="#404040">
                        <set attributeName="fill" to="#808080" begin="arrowUp.mouseover" end="arrowUp.mouseout"/>
                  </use>
                  <path fill="none" stroke="white" stroke-width="1.5" d="M0,-3.0v7 M-2.5,-0.5L0,-3.0L2.5,-0.5"/>
                </g>
                <g id="arrowRight" xlink:href="#dirArrow" transform="rotate(90) translate(36 -43)" onmousedown="handlePan(1,0)">
                  <use xlink:href="#rim" fill="#404040">
                        <set attributeName="fill" to="#808080" begin="arrowRight.mouseover" end="arrowRight.mouseout"/>
                  </use>
                  <path fill="none" stroke="white" stroke-width="1.5" d="M0,-3.0v7 M-2.5,-0.5L0,-3.0L2.5,-0.5"/>
                </g>
                <g id="arrowDown" xlink:href="#dirArrow" transform="rotate(180) translate(-30 -48)" onmousedown="handlePan(0,1)">
                  <use xlink:href="#rim" fill="#404040">
                        <set attributeName="fill" to="#808080" begin="arrowDown.mouseover" end="arrowDown.mouseout"/>
                  </use>
                  <path fill="none" stroke="white" stroke-width="1.5" d="M0,-3.0v7 M-2.5,-0.5L0,-3.0L2.5,-0.5"/>
                </g>
                <g id="arrowLeft" xlink:href="#dirArrow" transform="rotate(270) translate(-36 17)" onmousedown="handlePan(-1,0)">
                  <use xlink:href="#rim" fill="#404040">
                        <set attributeName="fill" to="#808080" begin="arrowLeft.mouseover" end="arrowLeft.mouseout"/>
                  </use>
                  <path fill="none" stroke="white" stroke-width="1.5" d="M0,-3.0v7 M-2.5,-0.5L0,-3.0L2.5,-0.5"/>
                </g>
        </g>
        <svg viewBox="0 0 15 15" width="100%" height="30px" preserveAspectRatio="xMaxYMin meet">
         <g id="arrow_out" transform="scale(0.3 0.3)">
          <a xlink:href="IrregularSpline2D3D_8cxx__incl_org.svg" target="_base">
           <rect id="button" ry="5" rx="5" y="6" x="6" height="38" width="38"
                fill="#f2f5e9" fill-opacity="0.5" stroke="#606060" stroke-width="1.0"/>
           <path id="arrow"
             d="M 11.500037,31.436501 C 11.940474,20.09759 22.043105,11.32322 32.158766,21.979434 L 37.068811,17.246167 C 37.068811,17.246167 37.088388,32 37.088388,32 L 22.160133,31.978069 C 22.160133,31.978069 26.997745,27.140456 26.997745,27.140456 C 18.528582,18.264221 13.291696,25.230495 11.500037,31.436501 z"
             style="fill:#404040;"/>
          </a>
         </g>
        </svg>
</svg>
