<?xml version="1.0" encoding="UTF-8" standalone="no"?>
<!DOCTYPE svg PUBLIC "-//W3C//DTD SVG 1.1//EN"
 "http://www.w3.org/Graphics/SVG/1.1/DTD/svg11.dtd">
<!-- Generated by graphviz version 2.40.1 (20161225.0304)
 -->
<!-- Title: /home/travis/build/AliceO2Group/AliceO2/Framework/Core/include/Framework/TableTreeHelpers.h Pages: 1 -->
<svg width="2154pt" height="341pt"
 viewBox="0.00 0.00 2154.00 341.00" xmlns="http://www.w3.org/2000/svg" xmlns:xlink="http://www.w3.org/1999/xlink">
<g id="graph0" class="graph" transform="scale(1 1) rotate(0) translate(4 337)">
<title>/home/travis/build/AliceO2Group/AliceO2/Framework/Core/include/Framework/TableTreeHelpers.h</title>
<!-- Node0 -->
<g id="node1" class="node">
<title>Node0</title>
<polygon fill="#bfbfbf" stroke="#000000" points="1263,-280.5 1263,-332.5 1432,-332.5 1432,-280.5 1263,-280.5"/>
<text text-anchor="start" x="1271" y="-320.5" font-family="Helvetica,sans-Serif" font-size="10.00" fill="#000000">/home/travis/build</text>
<text text-anchor="start" x="1271" y="-309.5" font-family="Helvetica,sans-Serif" font-size="10.00" fill="#000000">/AliceO2Group/AliceO2</text>
<text text-anchor="start" x="1271" y="-298.5" font-family="Helvetica,sans-Serif" font-size="10.00" fill="#000000">/Framework/Core/include</text>
<text text-anchor="middle" x="1347.5" y="-287.5" font-family="Helvetica,sans-Serif" font-size="10.00" fill="#000000">/Framework/TableTreeHelpers.h</text>
</g>
<!-- Node1 -->
<g id="node2" class="node">
<title>Node1</title>
<polygon fill="none" stroke="#bfbfbf" points="1180.5,-224.5 1180.5,-243.5 1228.5,-243.5 1228.5,-224.5 1180.5,-224.5"/>
<text text-anchor="middle" x="1204.5" y="-231.5" font-family="Helvetica,sans-Serif" font-size="10.00" fill="#000000">TFile.h</text>
</g>
<!-- Node0&#45;&gt;Node1 -->
<g id="edge1" class="edge">
<title>Node0&#45;&gt;Node1</title>
<path fill="none" stroke="#191970" d="M1295.8737,-280.3258C1274.5434,-269.5115 1250.6497,-257.3976 1232.6469,-248.2703"/>
<polygon fill="#191970" stroke="#191970" points="1233.8069,-244.9343 1223.305,-243.534 1230.6415,-251.1777 1233.8069,-244.9343"/>
</g>
<!-- Node2 -->
<g id="node3" class="node">
<title>Node2</title>
<polygon fill="none" stroke="#bfbfbf" points="1247,-224.5 1247,-243.5 1332,-243.5 1332,-224.5 1247,-224.5"/>
<text text-anchor="middle" x="1289.5" y="-231.5" font-family="Helvetica,sans-Serif" font-size="10.00" fill="#000000">TTreeReader.h</text>
</g>
<!-- Node0&#45;&gt;Node2 -->
<g id="edge2" class="edge">
<title>Node0&#45;&gt;Node2</title>
<path fill="none" stroke="#191970" d="M1326.5607,-280.3258C1318.8705,-270.7131 1310.3588,-260.0735 1303.4339,-251.4174"/>
<polygon fill="#191970" stroke="#191970" points="1306.1072,-249.1563 1297.1272,-243.534 1300.6411,-253.5292 1306.1072,-249.1563"/>
</g>
<!-- Node3 -->
<g id="node4" class="node">
<title>Node3</title>
<polygon fill="none" stroke="#bfbfbf" points="1350,-224.5 1350,-243.5 1463,-243.5 1463,-224.5 1350,-224.5"/>
<text text-anchor="middle" x="1406.5" y="-231.5" font-family="Helvetica,sans-Serif" font-size="10.00" fill="#000000">TTreeReaderValue.h</text>
</g>
<!-- Node0&#45;&gt;Node3 -->
<g id="edge3" class="edge">
<title>Node0&#45;&gt;Node3</title>
<path fill="none" stroke="#191970" d="M1368.8004,-280.3258C1376.6231,-270.7131 1385.2815,-260.0735 1392.3258,-251.4174"/>
<polygon fill="#191970" stroke="#191970" points="1395.144,-253.4995 1398.7413,-243.534 1389.7146,-249.0811 1395.144,-253.4995"/>
</g>
<!-- Node4 -->
<g id="node5" class="node">
<title>Node4</title>
<g id="a_node5"><a xlink:href="../../d5/d98/TableBuilder_8h.html" target="_top" xlink:title="TableBuilder.h">
<polygon fill="none" stroke="#000000" points="1481,-224.5 1481,-243.5 1566,-243.5 1566,-224.5 1481,-224.5"/>
<text text-anchor="middle" x="1523.5" y="-231.5" font-family="Helvetica,sans-Serif" font-size="10.00" fill="#000000">TableBuilder.h</text>
</a>
</g>
</g>
<!-- Node0&#45;&gt;Node4 -->
<g id="edge4" class="edge">
<title>Node0&#45;&gt;Node4</title>
<path fill="none" stroke="#191970" d="M1411.04,-280.3258C1438.1435,-269.161 1468.6097,-256.6111 1490.9887,-247.3924"/>
<polygon fill="#191970" stroke="#191970" points="1492.4423,-250.5791 1500.3554,-243.534 1489.776,-244.1067 1492.4423,-250.5791"/>
</g>
<!-- Node5 -->
<g id="node6" class="node">
<title>Node5</title>
<g id="a_node6"><a xlink:href="../../de/d33/ASoA_8h.html" target="_top" xlink:title="Framework/ASoA.h">
<polygon fill="none" stroke="#000000" points="1110.5,-168.5 1110.5,-187.5 1218.5,-187.5 1218.5,-168.5 1110.5,-168.5"/>
<text text-anchor="middle" x="1164.5" y="-175.5" font-family="Helvetica,sans-Serif" font-size="10.00" fill="#000000">Framework/ASoA.h</text>
</a>
</g>
</g>
<!-- Node4&#45;&gt;Node5 -->
<g id="edge5" class="edge">
<title>Node4&#45;&gt;Node5</title>
<path fill="none" stroke="#191970" d="M1480.9589,-225.6709C1477.7608,-225.0901 1474.581,-224.5268 1471.5,-224 1387.8411,-209.6945 1290.9323,-195.5818 1228.7346,-186.8382"/>
<polygon fill="#191970" stroke="#191970" points="1229.0669,-183.3507 1218.6779,-185.4288 1228.0953,-190.2829 1229.0669,-183.3507"/>
</g>
<!-- Node11 -->
<g id="node12" class="node">
<title>Node11</title>
<g id="a_node12"><a xlink:href="../../de/d9b/FunctionalHelpers_8h.html" target="_top" xlink:title="Framework/FunctionalHelpers.h">
<polygon fill="none" stroke="#000000" points="235.5,-112.5 235.5,-131.5 405.5,-131.5 405.5,-112.5 235.5,-112.5"/>
<text text-anchor="middle" x="320.5" y="-119.5" font-family="Helvetica,sans-Serif" font-size="10.00" fill="#000000">Framework/FunctionalHelpers.h</text>
</a>
</g>
</g>
<!-- Node4&#45;&gt;Node11 -->
<g id="edge50" class="edge">
<title>Node4&#45;&gt;Node11</title>
<path fill="none" stroke="#191970" d="M1480.7321,-225.2288C1477.6162,-224.7578 1474.5147,-224.3396 1471.5,-224 1240.1591,-197.9389 646.9113,-256.7821 424.5,-188 391.5768,-177.8183 358.8917,-154.3014 339.1915,-138.2731"/>
<polygon fill="#191970" stroke="#191970" points="341.2592,-135.4399 331.34,-131.7169 336.7725,-140.813 341.2592,-135.4399"/>
</g>
<!-- Node12 -->
<g id="node13" class="node">
<title>Node12</title>
<polygon fill="none" stroke="#bfbfbf" points="0,-56.5 0,-75.5 65,-75.5 65,-56.5 0,-56.5"/>
<text text-anchor="middle" x="32.5" y="-63.5" font-family="Helvetica,sans-Serif" font-size="10.00" fill="#000000">functional</text>
</g>
<!-- Node4&#45;&gt;Node12 -->
<g id="edge58" class="edge">
<title>Node4&#45;&gt;Node12</title>
<path fill="none" stroke="#191970" d="M1480.7327,-225.2238C1477.6166,-224.754 1474.5149,-224.3374 1471.5,-224 1229.9873,-196.9698 617.3308,-232.9315 378.5,-188 256.8997,-165.1232 120.6112,-106.7145 61.9475,-79.8728"/>
<polygon fill="#191970" stroke="#191970" points="63.11,-76.5546 52.5634,-75.5442 60.1779,-82.911 63.11,-76.5546"/>
</g>
<!-- Node19 -->
<g id="node20" class="node">
<title>Node19</title>
<polygon fill="none" stroke="#bfbfbf" points="1181,-56.5 1181,-75.5 1262,-75.5 1262,-56.5 1181,-56.5"/>
<text text-anchor="middle" x="1221.5" y="-63.5" font-family="Helvetica,sans-Serif" font-size="10.00" fill="#000000">arrow/table.h</text>
</g>
<!-- Node4&#45;&gt;Node19 -->
<g id="edge56" class="edge">
<title>Node4&#45;&gt;Node19</title>
<path fill="none" stroke="#191970" d="M1513.8706,-224.3618C1486.3852,-196.9279 1408.6341,-119.8819 1394.5,-112 1373.5992,-100.3446 1315.2374,-86.0653 1272.0498,-76.537"/>
<polygon fill="#191970" stroke="#191970" points="1272.775,-73.113 1262.2587,-74.4004 1271.2825,-79.952 1272.775,-73.113"/>
</g>
<!-- Node24 -->
<g id="node25" class="node">
<title>Node24</title>
<polygon fill="none" stroke="#bfbfbf" points="777.5,-56.5 777.5,-75.5 821.5,-75.5 821.5,-56.5 777.5,-56.5"/>
<text text-anchor="middle" x="799.5" y="-63.5" font-family="Helvetica,sans-Serif" font-size="10.00" fill="#000000">string</text>
</g>
<!-- Node4&#45;&gt;Node24 -->
<g id="edge60" class="edge">
<title>Node4&#45;&gt;Node24</title>
<path fill="none" stroke="#191970" d="M1480.9873,-225.4907C1477.7826,-224.9516 1474.5936,-224.447 1471.5,-224 1291.7674,-198.0317 779.5689,-268.2411 659.5,-132 653.6229,-125.3313 654.2871,-119.1999 659.5,-112 659.9147,-111.4272 726.6165,-89.6777 767.7897,-76.2941"/>
<polygon fill="#191970" stroke="#191970" points="768.9732,-79.5898 777.4021,-73.1708 766.8099,-72.9324 768.9732,-79.5898"/>
</g>
<!-- Node25 -->
<g id="node26" class="node">
<title>Node25</title>
<polygon fill="none" stroke="#bfbfbf" points="1280.5,-56.5 1280.5,-75.5 1338.5,-75.5 1338.5,-56.5 1280.5,-56.5"/>
<text text-anchor="middle" x="1309.5" y="-63.5" font-family="Helvetica,sans-Serif" font-size="10.00" fill="#000000">memory</text>
</g>
<!-- Node4&#45;&gt;Node25 -->
<g id="edge61" class="edge">
<title>Node4&#45;&gt;Node25</title>
<path fill="none" stroke="#191970" d="M1516.3644,-224.3076C1509.6943,-215.1186 1499.5787,-200.8474 1491.5,-188 1470.8408,-155.1462 1478.4871,-136.6363 1448.5,-112 1440.5219,-105.4455 1386.6776,-88.681 1348.4025,-77.3071"/>
<polygon fill="#191970" stroke="#191970" points="1349.1403,-73.8756 1338.5583,-74.3982 1347.1565,-80.5886 1349.1403,-73.8756"/>
</g>
<!-- Node35 -->
<g id="node36" class="node">
<title>Node35</title>
<g id="a_node36"><a xlink:href="../../db/d4f/StructToTuple_8h.html" target="_top" xlink:title="Framework/StructToTuple.h">
<polygon fill="none" stroke="#000000" points="1501,-168.5 1501,-187.5 1648,-187.5 1648,-168.5 1501,-168.5"/>
<text text-anchor="middle" x="1574.5" y="-175.5" font-family="Helvetica,sans-Serif" font-size="10.00" fill="#000000">Framework/StructToTuple.h</text>
</a>
</g>
</g>
<!-- Node4&#45;&gt;Node35 -->
<g id="edge46" class="edge">
<title>Node4&#45;&gt;Node35</title>
<path fill="none" stroke="#191970" d="M1532.3835,-224.2455C1539.6966,-216.2155 1550.2391,-204.6394 1558.9467,-195.0781"/>
<polygon fill="#191970" stroke="#191970" points="1561.5727,-197.3928 1565.7183,-187.6427 1556.3972,-192.6795 1561.5727,-197.3928"/>
</g>
<!-- Node36 -->
<g id="node37" class="node">
<title>Node36</title>
<polygon fill="none" stroke="#bfbfbf" points="1881,-112.5 1881,-131.5 1922,-131.5 1922,-112.5 1881,-112.5"/>
<text text-anchor="middle" x="1901.5" y="-119.5" font-family="Helvetica,sans-Serif" font-size="10.00" fill="#000000">tuple</text>
</g>
<!-- Node4&#45;&gt;Node36 -->
<g id="edge62" class="edge">
<title>Node4&#45;&gt;Node36</title>
<path fill="none" stroke="#191970" d="M1555.7003,-224.4781C1583.1762,-215.9924 1623.5147,-202.6733 1657.5,-188 1675.0219,-180.4348 1677.5457,-174.4723 1695.5,-168 1768.5636,-141.6615 1791.1139,-150.6799 1866.5,-132 1867.9568,-131.639 1869.4446,-131.2589 1870.945,-130.8664"/>
<polygon fill="#191970" stroke="#191970" points="1872.1117,-134.1761 1880.8369,-128.166 1870.2681,-127.4232 1872.1117,-134.1761"/>
</g>
<!-- Node37 -->
<g id="node38" class="node">
<title>Node37</title>
<g id="a_node38"><a xlink:href="../../d7/dbe/VariantHelpers_8h.html" target="_top" xlink:title="Framework/VariantHelpers.h">
<polygon fill="none" stroke="#000000" points="434,-168.5 434,-187.5 589,-187.5 589,-168.5 434,-168.5"/>
<text text-anchor="middle" x="511.5" y="-175.5" font-family="Helvetica,sans-Serif" font-size="10.00" fill="#000000">Framework/VariantHelpers.h</text>
</a>
</g>
</g>
<!-- Node4&#45;&gt;Node37 -->
<g id="edge51" class="edge">
<title>Node4&#45;&gt;Node37</title>
<path fill="none" stroke="#191970" d="M1480.7289,-225.2569C1477.6138,-224.7794 1474.5133,-224.352 1471.5,-224 1098.1423,-180.3881 1001.6108,-212.2878 626.5,-188 617.6146,-187.4247 608.3495,-186.7479 599.1042,-186.0221"/>
<polygon fill="#191970" stroke="#191970" points="599.3469,-182.5304 589.0986,-185.2178 598.786,-189.5079 599.3469,-182.5304"/>
</g>
<!-- Node38 -->
<g id="node39" class="node">
<title>Node38</title>
<polygon fill="none" stroke="#bfbfbf" points="1704.5,-168.5 1704.5,-187.5 1760.5,-187.5 1760.5,-168.5 1704.5,-168.5"/>
<text text-anchor="middle" x="1732.5" y="-175.5" font-family="Helvetica,sans-Serif" font-size="10.00" fill="#000000">sstream</text>
</g>
<!-- Node4&#45;&gt;Node38 -->
<g id="edge53" class="edge">
<title>Node4&#45;&gt;Node38</title>
<path fill="none" stroke="#191970" d="M1559.4284,-224.3733C1597.1407,-214.2685 1656.1853,-198.448 1694.6158,-188.1508"/>
<polygon fill="#191970" stroke="#191970" points="1695.6413,-191.4995 1704.3947,-185.5306 1693.8296,-184.7381 1695.6413,-191.4995"/>
</g>
<!-- Node39 -->
<g id="node40" class="node">
<title>Node39</title>
<polygon fill="none" stroke="#bfbfbf" points="1778.5,-168.5 1778.5,-187.5 1846.5,-187.5 1846.5,-168.5 1778.5,-168.5"/>
<text text-anchor="middle" x="1812.5" y="-175.5" font-family="Helvetica,sans-Serif" font-size="10.00" fill="#000000">arrow/stl.h</text>
</g>
<!-- Node4&#45;&gt;Node39 -->
<g id="edge54" class="edge">
<title>Node4&#45;&gt;Node39</title>
<path fill="none" stroke="#191970" d="M1566.2751,-226.5854C1613.4201,-218.2835 1691.7295,-204.1127 1768.432,-188.1605"/>
<polygon fill="#191970" stroke="#191970" points="1769.1908,-191.5776 1778.2623,-186.1042 1767.7575,-184.7259 1769.1908,-191.5776"/>
</g>
<!-- Node40 -->
<g id="node41" class="node">
<title>Node40</title>
<polygon fill="none" stroke="#bfbfbf" points="1865,-168.5 1865,-187.5 1974,-187.5 1974,-168.5 1865,-168.5"/>
<text text-anchor="middle" x="1919.5" y="-175.5" font-family="Helvetica,sans-Serif" font-size="10.00" fill="#000000">arrow/type_traits.h</text>
</g>
<!-- Node4&#45;&gt;Node40 -->
<g id="edge55" class="edge">
<title>Node4&#45;&gt;Node40</title>
<path fill="none" stroke="#191970" d="M1566.2471,-228.3181C1627.6468,-220.1038 1744.6229,-204.2576 1854.7462,-188.0913"/>
<polygon fill="#191970" stroke="#191970" points="1855.3129,-191.5457 1864.6967,-186.6269 1854.2937,-184.6203 1855.3129,-191.5457"/>
</g>
<!-- Node41 -->
<g id="node42" class="node">
<title>Node41</title>
<polygon fill="none" stroke="#bfbfbf" points="1992,-168.5 1992,-187.5 2081,-187.5 2081,-168.5 1992,-168.5"/>
<text text-anchor="middle" x="2036.5" y="-175.5" font-family="Helvetica,sans-Serif" font-size="10.00" fill="#000000">arrow/builder.h</text>
</g>
<!-- Node4&#45;&gt;Node41 -->
<g id="edge57" class="edge">
<title>Node4&#45;&gt;Node41</title>
<path fill="none" stroke="#191970" d="M1566.1405,-230.9797C1645.8683,-225.0628 1823.1145,-210.6379 1981.7853,-188.1536"/>
<polygon fill="#191970" stroke="#191970" points="1982.323,-191.6124 1991.7262,-186.7308 1981.3311,-184.683 1982.323,-191.6124"/>
</g>
<!-- Node42 -->
<g id="node43" class="node">
<title>Node42</title>
<polygon fill="none" stroke="#bfbfbf" points="2099,-168.5 2099,-187.5 2146,-187.5 2146,-168.5 2099,-168.5"/>
<text text-anchor="middle" x="2122.5" y="-175.5" font-family="Helvetica,sans-Serif" font-size="10.00" fill="#000000">vector</text>
</g>
<!-- Node4&#45;&gt;Node42 -->
<g id="edge59" class="edge">
<title>Node4&#45;&gt;Node42</title>
<path fill="none" stroke="#191970" d="M1566.0114,-231.7769C1676.5413,-225.807 1971.9188,-208.5936 2088.7996,-187.9043"/>
<polygon fill="#191970" stroke="#191970" points="2089.6967,-191.2974 2098.8847,-186.0217 2088.4122,-184.4163 2089.6967,-191.2974"/>
</g>
<!-- Node6 -->
<g id="node7" class="node">
<title>Node6</title>
<g id="a_node7"><a xlink:href="../../dd/dce/Pack_8h.html" target="_top" xlink:title="Framework/Pack.h">
<polygon fill="none" stroke="#000000" points="266,-56.5 266,-75.5 371,-75.5 371,-56.5 266,-56.5"/>
<text text-anchor="middle" x="318.5" y="-63.5" font-family="Helvetica,sans-Serif" font-size="10.00" fill="#000000">Framework/Pack.h</text>
</a>
</g>
</g>
<!-- Node5&#45;&gt;Node6 -->
<g id="edge6" class="edge">
<title>Node5&#45;&gt;Node6</title>
<path fill="none" stroke="#191970" d="M1110.3454,-175.1492C986.1376,-168.3777 683.7491,-150.5044 583.5,-132 552.521,-126.2818 545.9619,-120.0293 515.5,-112 467.3875,-99.3183 412.1955,-86.5854 372.4935,-77.7416"/>
<polygon fill="#191970" stroke="#191970" points="373.0132,-74.2719 362.4925,-75.5231 371.4972,-81.1057 373.0132,-74.2719"/>
</g>
<!-- Node10 -->
<g id="node11" class="node">
<title>Node10</title>
<g id="a_node11"><a xlink:href="../../d1/d00/CheckTypes_8h.html" target="_top" xlink:title="Framework/CheckTypes.h">
<polygon fill="none" stroke="#000000" points="389.5,-56.5 389.5,-75.5 529.5,-75.5 529.5,-56.5 389.5,-56.5"/>
<text text-anchor="middle" x="459.5" y="-63.5" font-family="Helvetica,sans-Serif" font-size="10.00" fill="#000000">Framework/CheckTypes.h</text>
</a>
</g>
</g>
<!-- Node5&#45;&gt;Node10 -->
<g id="edge10" class="edge">
<title>Node5&#45;&gt;Node10</title>
<path fill="none" stroke="#191970" d="M1110.4657,-177.1022C1017.4167,-174.6652 821.3347,-165.6138 659.5,-132 599.0677,-119.4479 531.3723,-94.7523 492.2685,-79.3858"/>
<polygon fill="#191970" stroke="#191970" points="493.3161,-76.036 482.7303,-75.5991 490.7332,-82.542 493.3161,-76.036"/>
</g>
<!-- Node5&#45;&gt;Node11 -->
<g id="edge11" class="edge">
<title>Node5&#45;&gt;Node11</title>
<path fill="none" stroke="#191970" d="M1110.4201,-174.4118C970.1587,-165.1053 593.2745,-140.0988 415.6243,-128.3116"/>
<polygon fill="#191970" stroke="#191970" points="415.7166,-124.8101 405.5067,-127.6403 415.2531,-131.7947 415.7166,-124.8101"/>
</g>
<!-- Node13 -->
<g id="node14" class="node">
<title>Node13</title>
<g id="a_node14"><a xlink:href="../../d9/de8/CompilerBuiltins_8h.html" target="_top" xlink:title="Framework/CompilerBuiltins.h">
<polygon fill="none" stroke="#000000" points="83.5,-56.5 83.5,-75.5 247.5,-75.5 247.5,-56.5 83.5,-56.5"/>
<text text-anchor="middle" x="165.5" y="-63.5" font-family="Helvetica,sans-Serif" font-size="10.00" fill="#000000">Framework/CompilerBuiltins.h</text>
</a>
</g>
</g>
<!-- Node5&#45;&gt;Node13 -->
<g id="edge14" class="edge">
<title>Node5&#45;&gt;Node13</title>
<path fill="none" stroke="#191970" d="M1110.0723,-175.6526C975.3763,-169.6004 629.1646,-152.4963 515.5,-132 484.4977,-126.4096 478.2162,-118.9938 447.5,-112 381.5676,-96.9878 305.8934,-84.9204 249.5463,-76.9181"/>
<polygon fill="#191970" stroke="#191970" points="250.0022,-73.4479 239.6121,-75.5209 249.0272,-80.3796 250.0022,-73.4479"/>
</g>
<!-- Node14 -->
<g id="node15" class="node">
<title>Node14</title>
<g id="a_node15"><a xlink:href="../../db/d31/Traits_8h.html" target="_top" xlink:title="Framework/Traits.h">
<polygon fill="none" stroke="#000000" points="1715,-112.5 1715,-131.5 1824,-131.5 1824,-112.5 1715,-112.5"/>
<text text-anchor="middle" x="1769.5" y="-119.5" font-family="Helvetica,sans-Serif" font-size="10.00" fill="#000000">Framework/Traits.h</text>
</a>
</g>
</g>
<!-- Node5&#45;&gt;Node14 -->
<g id="edge15" class="edge">
<title>Node5&#45;&gt;Node14</title>
<path fill="none" stroke="#191970" d="M1218.6215,-174.4036C1315.4543,-167.7355 1524.6759,-152.2681 1700.5,-132 1701.9655,-131.8311 1703.4479,-131.6555 1704.9421,-131.4745"/>
<polygon fill="#191970" stroke="#191970" points="1705.4445,-134.9389 1714.925,-130.2092 1704.5643,-127.9944 1705.4445,-134.9389"/>
</g>
<!-- Node16 -->
<g id="node17" class="node">
<title>Node16</title>
<g id="a_node17"><a xlink:href="../../d0/d91/Expressions_8h.html" target="_top" xlink:title="Framework/Expressions.h">
<polygon fill="none" stroke="#000000" points="669,-112.5 669,-131.5 810,-131.5 810,-112.5 669,-112.5"/>
<text text-anchor="middle" x="739.5" y="-119.5" font-family="Helvetica,sans-Serif" font-size="10.00" fill="#000000">Framework/Expressions.h</text>
</a>
</g>
</g>
<!-- Node5&#45;&gt;Node16 -->
<g id="edge17" class="edge">
<title>Node5&#45;&gt;Node16</title>
<path fill="none" stroke="#191970" d="M1110.2418,-170.8507C1036.8065,-161.1745 905.2049,-143.8341 820.1663,-132.629"/>
<polygon fill="#191970" stroke="#191970" points="820.4052,-129.1303 810.0336,-131.2938 819.4907,-136.0703 820.4052,-129.1303"/>
</g>
<!-- Node5&#45;&gt;Node19 -->
<g id="edge39" class="edge">
<title>Node5&#45;&gt;Node19</title>
<path fill="none" stroke="#191970" d="M1218.6777,-173.9017C1275.0794,-168.3763 1357.8977,-156.2876 1377.5,-132 1383.0827,-125.0829 1382.8228,-119.119 1377.5,-112 1370.9313,-103.2147 1314.8565,-88.1456 1271.7978,-77.6585"/>
<polygon fill="#191970" stroke="#191970" points="1272.544,-74.2381 1262.0021,-75.2963 1270.9029,-81.0431 1272.544,-74.2381"/>
</g>
<!-- Node20 -->
<g id="node21" class="node">
<title>Node20</title>
<polygon fill="none" stroke="#bfbfbf" points="1016,-56.5 1016,-75.5 1163,-75.5 1163,-56.5 1016,-56.5"/>
<text text-anchor="middle" x="1089.5" y="-63.5" font-family="Helvetica,sans-Serif" font-size="10.00" fill="#000000">gandiva/selection_vector.h</text>
</g>
<!-- Node5&#45;&gt;Node20 -->
<g id="edge44" class="edge">
<title>Node5&#45;&gt;Node20</title>
<path fill="none" stroke="#191970" d="M1110.1698,-173.6766C1026.4349,-166.4563 873.745,-150.8605 857.5,-132 851.699,-125.265 851.8588,-118.8695 857.5,-112 867.2861,-100.0831 945.4659,-86.3133 1008.4069,-76.9681"/>
<polygon fill="#191970" stroke="#191970" points="1008.9789,-80.4217 1018.3649,-75.5072 1007.9628,-73.4959 1008.9789,-80.4217"/>
</g>
<!-- Node26 -->
<g id="node27" class="node">
<title>Node26</title>
<g id="a_node27"><a xlink:href="../../d0/d92/Kernels_8h.html" target="_top" xlink:title="Framework/Kernels.h">
<polygon fill="none" stroke="#000000" points="1501,-112.5 1501,-131.5 1620,-131.5 1620,-112.5 1501,-112.5"/>
<text text-anchor="middle" x="1560.5" y="-119.5" font-family="Helvetica,sans-Serif" font-size="10.00" fill="#000000">Framework/Kernels.h</text>
</a>
</g>
</g>
<!-- Node5&#45;&gt;Node26 -->
<g id="edge30" class="edge">
<title>Node5&#45;&gt;Node26</title>
<path fill="none" stroke="#191970" d="M1218.7318,-170.3309C1289.3808,-160.3401 1413.0132,-142.8567 1490.6209,-131.8819"/>
<polygon fill="#191970" stroke="#191970" points="1491.3755,-135.3101 1500.7869,-130.4443 1490.3953,-128.3791 1491.3755,-135.3101"/>
</g>
<!-- Node27 -->
<g id="node28" class="node">
<title>Node27</title>
<polygon fill="none" stroke="#bfbfbf" points="1741,-56.5 1741,-75.5 1874,-75.5 1874,-56.5 1741,-56.5"/>
<text text-anchor="middle" x="1807.5" y="-63.5" font-family="Helvetica,sans-Serif" font-size="10.00" fill="#000000">arrow/compute/kernel.h</text>
</g>
<!-- Node5&#45;&gt;Node27 -->
<g id="edge43" class="edge">
<title>Node5&#45;&gt;Node27</title>
<path fill="none" stroke="#191970" d="M1218.5332,-174.9392C1323.9306,-168.5938 1553.3048,-152.84 1629.5,-132 1649.8305,-126.4395 1652.9411,-119.8547 1672.5,-112 1703.5707,-99.5222 1739.4844,-87.3917 1766.4555,-78.7231"/>
<polygon fill="#191970" stroke="#191970" points="1767.8611,-81.9486 1776.3258,-75.5768 1765.7351,-75.2792 1767.8611,-81.9486"/>
</g>
<!-- Node30 -->
<g id="node31" class="node">
<title>Node30</title>
<polygon fill="none" stroke="#bfbfbf" points="1892.5,-56.5 1892.5,-75.5 2002.5,-75.5 2002.5,-56.5 1892.5,-56.5"/>
<text text-anchor="middle" x="1947.5" y="-63.5" font-family="Helvetica,sans-Serif" font-size="10.00" fill="#000000">arrow/util/variant.h</text>
</g>
<!-- Node5&#45;&gt;Node30 -->
<g id="edge41" class="edge">
<title>Node5&#45;&gt;Node30</title>
<path fill="none" stroke="#191970" d="M1218.7386,-175.4204C1330.2463,-169.7237 1581.7024,-154.7439 1664.5,-132 1684.4365,-126.5236 1686.852,-118.4352 1706.5,-112 1738.4043,-101.5506 1822.3921,-86.529 1882.2268,-76.5276"/>
<polygon fill="#191970" stroke="#191970" points="1883.0634,-79.9367 1892.354,-74.8441 1881.9154,-73.0314 1883.0634,-79.9367"/>
</g>
<!-- Node31 -->
<g id="node32" class="node">
<title>Node31</title>
<g id="a_node32"><a xlink:href="../../d1/dc1/ArrowCompatibility_8h.html" target="_top" xlink:title="Framework/ArrowCompatibility.h">
<polygon fill="none" stroke="#000000" points="866.5,-112.5 866.5,-131.5 1042.5,-131.5 1042.5,-112.5 866.5,-112.5"/>
<text text-anchor="middle" x="954.5" y="-119.5" font-family="Helvetica,sans-Serif" font-size="10.00" fill="#000000">Framework/ArrowCompatibility.h</text>
</a>
</g>
</g>
<!-- Node5&#45;&gt;Node31 -->
<g id="edge37" class="edge">
<title>Node5&#45;&gt;Node31</title>
<path fill="none" stroke="#191970" d="M1128.3997,-168.3733C1092.8752,-158.9001 1038.512,-144.4032 1000.0381,-134.1435"/>
<polygon fill="#191970" stroke="#191970" points="1000.6934,-130.696 990.1292,-131.5011 998.8897,-137.4596 1000.6934,-130.696"/>
</g>
<!-- Node32 -->
<g id="node33" class="node">
<title>Node32</title>
<polygon fill="none" stroke="#bfbfbf" points="1060.5,-112.5 1060.5,-131.5 1140.5,-131.5 1140.5,-112.5 1060.5,-112.5"/>
<text text-anchor="middle" x="1100.5" y="-119.5" font-family="Helvetica,sans-Serif" font-size="10.00" fill="#000000">arrow/array.h</text>
</g>
<!-- Node5&#45;&gt;Node32 -->
<g id="edge40" class="edge">
<title>Node5&#45;&gt;Node32</title>
<path fill="none" stroke="#191970" d="M1153.3521,-168.2455C1143.9913,-160.0549 1130.4142,-148.1749 1119.3651,-138.5069"/>
<polygon fill="#191970" stroke="#191970" points="1121.3508,-135.5937 1111.5202,-131.6427 1116.7412,-140.8618 1121.3508,-135.5937"/>
</g>
<!-- Node33 -->
<g id="node34" class="node">
<title>Node33</title>
<polygon fill="none" stroke="#bfbfbf" points="1159,-112.5 1159,-131.5 1298,-131.5 1298,-112.5 1159,-112.5"/>
<text text-anchor="middle" x="1228.5" y="-119.5" font-family="Helvetica,sans-Serif" font-size="10.00" fill="#000000">arrow/compute/context.h</text>
</g>
<!-- Node5&#45;&gt;Node33 -->
<g id="edge42" class="edge">
<title>Node5&#45;&gt;Node33</title>
<path fill="none" stroke="#191970" d="M1175.6479,-168.2455C1185.0087,-160.0549 1198.5858,-148.1749 1209.6349,-138.5069"/>
<polygon fill="#191970" stroke="#191970" points="1212.2588,-140.8618 1217.4798,-131.6427 1207.6492,-135.5937 1212.2588,-140.8618"/>
</g>
<!-- Node34 -->
<g id="node35" class="node">
<title>Node34</title>
<polygon fill="none" stroke="#bfbfbf" points="1316.5,-112.5 1316.5,-131.5 1368.5,-131.5 1368.5,-112.5 1316.5,-112.5"/>
<text text-anchor="middle" x="1342.5" y="-119.5" font-family="Helvetica,sans-Serif" font-size="10.00" fill="#000000">cassert</text>
</g>
<!-- Node5&#45;&gt;Node34 -->
<g id="edge45" class="edge">
<title>Node5&#45;&gt;Node34</title>
<path fill="none" stroke="#191970" d="M1195.0993,-168.3733C1226.0873,-158.6242 1273.9867,-143.5547 1306.7147,-133.2583"/>
<polygon fill="#191970" stroke="#191970" points="1307.8604,-136.5671 1316.349,-130.2273 1305.7596,-129.8897 1307.8604,-136.5671"/>
</g>
<!-- Node7 -->
<g id="node8" class="node">
<title>Node7</title>
<polygon fill="none" stroke="#bfbfbf" points="225,-.5 225,-19.5 278,-19.5 278,-.5 225,-.5"/>
<text text-anchor="middle" x="251.5" y="-7.5" font-family="Helvetica,sans-Serif" font-size="10.00" fill="#000000">cstddef</text>
</g>
<!-- Node6&#45;&gt;Node7 -->
<g id="edge7" class="edge">
<title>Node6&#45;&gt;Node7</title>
<path fill="none" stroke="#191970" d="M306.8295,-56.2455C296.9339,-47.9746 282.5373,-35.9416 270.9099,-26.2232"/>
<polygon fill="#191970" stroke="#191970" points="272.9542,-23.3703 263.0368,-19.6427 268.465,-28.7413 272.9542,-23.3703"/>
</g>
<!-- Node8 -->
<g id="node9" class="node">
<title>Node8</title>
<polygon fill="none" stroke="#bfbfbf" points="296,-.5 296,-19.5 341,-19.5 341,-.5 296,-.5"/>
<text text-anchor="middle" x="318.5" y="-7.5" font-family="Helvetica,sans-Serif" font-size="10.00" fill="#000000">utility</text>
</g>
<!-- Node6&#45;&gt;Node8 -->
<g id="edge8" class="edge">
<title>Node6&#45;&gt;Node8</title>
<path fill="none" stroke="#191970" d="M318.5,-56.2455C318.5,-48.9382 318.5,-38.6944 318.5,-29.7046"/>
<polygon fill="#191970" stroke="#191970" points="322.0001,-29.6426 318.5,-19.6427 315.0001,-29.6427 322.0001,-29.6426"/>
</g>
<!-- Node9 -->
<g id="node10" class="node">
<title>Node9</title>
<polygon fill="none" stroke="#bfbfbf" points="359.5,-.5 359.5,-19.5 405.5,-19.5 405.5,-.5 359.5,-.5"/>
<text text-anchor="middle" x="382.5" y="-7.5" font-family="Helvetica,sans-Serif" font-size="10.00" fill="#000000">cstdio</text>
</g>
<!-- Node6&#45;&gt;Node9 -->
<g id="edge9" class="edge">
<title>Node6&#45;&gt;Node9</title>
<path fill="none" stroke="#191970" d="M329.6479,-56.2455C339.0087,-48.0549 352.5858,-36.1749 363.6349,-26.5069"/>
<polygon fill="#191970" stroke="#191970" points="366.2588,-28.8618 371.4798,-19.6427 361.6492,-23.5937 366.2588,-28.8618"/>
</g>
<!-- Node11&#45;&gt;Node6 -->
<g id="edge12" class="edge">
<title>Node11&#45;&gt;Node6</title>
<path fill="none" stroke="#191970" d="M320.1516,-112.2455C319.8907,-104.9382 319.5248,-94.6944 319.2037,-85.7046"/>
<polygon fill="#191970" stroke="#191970" points="322.6992,-85.5113 318.8444,-75.6427 315.7036,-85.7613 322.6992,-85.5113"/>
</g>
<!-- Node11&#45;&gt;Node12 -->
<g id="edge13" class="edge">
<title>Node11&#45;&gt;Node12</title>
<path fill="none" stroke="#191970" d="M265.1451,-112.4466C217.4304,-104.0309 146.4652,-91.0851 75.0948,-76.0454"/>
<polygon fill="#191970" stroke="#191970" points="75.5325,-72.5604 65.0239,-73.9096 74.0802,-79.4081 75.5325,-72.5604"/>
</g>
<!-- Node15 -->
<g id="node16" class="node">
<title>Node15</title>
<polygon fill="none" stroke="#bfbfbf" points="2021,-56.5 2021,-75.5 2090,-75.5 2090,-56.5 2021,-56.5"/>
<text text-anchor="middle" x="2055.5" y="-63.5" font-family="Helvetica,sans-Serif" font-size="10.00" fill="#000000">type_traits</text>
</g>
<!-- Node14&#45;&gt;Node15 -->
<g id="edge16" class="edge">
<title>Node14&#45;&gt;Node15</title>
<path fill="none" stroke="#191970" d="M1822.481,-112.4906C1869.3762,-103.9465 1939.9209,-90.785 2010.9194,-76.0644"/>
<polygon fill="#191970" stroke="#191970" points="2011.8623,-79.4432 2020.9382,-73.9772 2010.4346,-72.5903 2011.8623,-79.4432"/>
</g>
<!-- Node16&#45;&gt;Node6 -->
<g id="edge20" class="edge">
<title>Node16&#45;&gt;Node6</title>
<path fill="none" stroke="#191970" d="M668.9045,-113.641C598.6361,-105.1645 487.45,-91.3316 381.184,-76.0613"/>
<polygon fill="#191970" stroke="#191970" points="381.6448,-72.5917 371.2473,-74.6271 380.6448,-79.5199 381.6448,-72.5917"/>
</g>
<!-- Node16&#45;&gt;Node10 -->
<g id="edge21" class="edge">
<title>Node16&#45;&gt;Node10</title>
<path fill="none" stroke="#191970" d="M691.6844,-112.4369C643.3619,-102.7724 568.6628,-87.8326 517.1064,-77.5213"/>
<polygon fill="#191970" stroke="#191970" points="517.6106,-74.0529 507.1184,-75.5237 516.2377,-80.9169 517.6106,-74.0529"/>
</g>
<!-- Node16&#45;&gt;Node13 -->
<g id="edge19" class="edge">
<title>Node16&#45;&gt;Node13</title>
<path fill="none" stroke="#191970" d="M668.6736,-115.5786C576.5335,-107.1522 410.267,-91.6996 257.8525,-76.1276"/>
<polygon fill="#191970" stroke="#191970" points="258.1387,-72.6387 247.8342,-75.1018 257.4256,-79.6023 258.1387,-72.6387"/>
</g>
<!-- Node17 -->
<g id="node18" class="node">
<title>Node17</title>
<g id="a_node18"><a xlink:href="../../dd/dc2/BasicOps_8h.html" target="_top" xlink:title="Framework/BasicOps.h">
<polygon fill="none" stroke="#000000" points="1356.5,-56.5 1356.5,-75.5 1484.5,-75.5 1484.5,-56.5 1356.5,-56.5"/>
<text text-anchor="middle" x="1420.5" y="-63.5" font-family="Helvetica,sans-Serif" font-size="10.00" fill="#000000">Framework/BasicOps.h</text>
</a>
</g>
</g>
<!-- Node16&#45;&gt;Node17 -->
<g id="edge18" class="edge">
<title>Node16&#45;&gt;Node17</title>
<path fill="none" stroke="#191970" d="M810.3107,-115.8692C825.8554,-114.5596 842.2308,-113.2079 857.5,-112 1071.8897,-95.0407 1128.6252,-98.7116 1346.2825,-76.0707"/>
<polygon fill="#191970" stroke="#191970" points="1346.8523,-79.5302 1356.4335,-75.0079 1346.1234,-72.5683 1346.8523,-79.5302"/>
</g>
<!-- Node18 -->
<g id="node19" class="node">
<title>Node18</title>
<polygon fill="none" stroke="#bfbfbf" points="548,-56.5 548,-75.5 649,-75.5 649,-56.5 548,-56.5"/>
<text text-anchor="middle" x="598.5" y="-63.5" font-family="Helvetica,sans-Serif" font-size="10.00" fill="#000000">arrow/type_fwd.h</text>
</g>
<!-- Node16&#45;&gt;Node18 -->
<g id="edge22" class="edge">
<title>Node16&#45;&gt;Node18</title>
<path fill="none" stroke="#191970" d="M715.2612,-112.3733C692.2211,-103.2226 657.3786,-89.3844 631.7499,-79.2057"/>
<polygon fill="#191970" stroke="#191970" points="633.0082,-75.9395 622.4225,-75.5011 630.4244,-82.4452 633.0082,-75.9395"/>
</g>
<!-- Node16&#45;&gt;Node19 -->
<g id="edge23" class="edge">
<title>Node16&#45;&gt;Node19</title>
<path fill="none" stroke="#191970" d="M810.3434,-115.2504C910.1802,-105.6084 1088.3611,-87.8909 1170.8504,-75.9435"/>
<polygon fill="#191970" stroke="#191970" points="1171.5225,-79.382 1180.8959,-74.4433 1170.4885,-72.4588 1171.5225,-79.382"/>
</g>
<!-- Node16&#45;&gt;Node20 -->
<g id="edge24" class="edge">
<title>Node16&#45;&gt;Node20</title>
<path fill="none" stroke="#191970" d="M799.2695,-112.4369C860.4277,-102.6516 955.386,-87.4582 1019.895,-77.1368"/>
<polygon fill="#191970" stroke="#191970" points="1020.6556,-80.5597 1029.9771,-75.5237 1019.5497,-73.6476 1020.6556,-80.5597"/>
</g>
<!-- Node21 -->
<g id="node22" class="node">
<title>Node21</title>
<polygon fill="none" stroke="#bfbfbf" points="667.5,-56.5 667.5,-75.5 759.5,-75.5 759.5,-56.5 667.5,-56.5"/>
<text text-anchor="middle" x="713.5" y="-63.5" font-family="Helvetica,sans-Serif" font-size="10.00" fill="#000000">gandiva/node.h</text>
</g>
<!-- Node16&#45;&gt;Node21 -->
<g id="edge25" class="edge">
<title>Node16&#45;&gt;Node21</title>
<path fill="none" stroke="#191970" d="M734.9711,-112.2455C731.4666,-104.6973 726.5073,-94.0158 722.2377,-84.8197"/>
<polygon fill="#191970" stroke="#191970" points="725.3627,-83.2389 717.977,-75.6427 719.0136,-86.1867 725.3627,-83.2389"/>
</g>
<!-- Node22 -->
<g id="node23" class="node">
<title>Node22</title>
<polygon fill="none" stroke="#bfbfbf" points="840,-56.5 840,-75.5 929,-75.5 929,-56.5 840,-56.5"/>
<text text-anchor="middle" x="884.5" y="-63.5" font-family="Helvetica,sans-Serif" font-size="10.00" fill="#000000">gandiva/filter.h</text>
</g>
<!-- Node16&#45;&gt;Node22 -->
<g id="edge26" class="edge">
<title>Node16&#45;&gt;Node22</title>
<path fill="none" stroke="#191970" d="M764.4264,-112.3733C788.1202,-103.2226 823.9511,-89.3844 850.3068,-79.2057"/>
<polygon fill="#191970" stroke="#191970" points="851.8314,-82.3689 859.8989,-75.5011 849.3094,-75.8389 851.8314,-82.3689"/>
</g>
<!-- Node23 -->
<g id="node24" class="node">
<title>Node23</title>
<polygon fill="none" stroke="#bfbfbf" points="947,-56.5 947,-75.5 998,-75.5 998,-56.5 947,-56.5"/>
<text text-anchor="middle" x="972.5" y="-63.5" font-family="Helvetica,sans-Serif" font-size="10.00" fill="#000000">variant</text>
</g>
<!-- Node16&#45;&gt;Node23 -->
<g id="edge27" class="edge">
<title>Node16&#45;&gt;Node23</title>
<path fill="none" stroke="#191970" d="M783.3021,-112.484C821.4049,-104.058 878.3205,-91.1177 937.0957,-76.0095"/>
<polygon fill="#191970" stroke="#191970" points="938.1214,-79.3594 946.9261,-73.4665 936.3682,-72.5825 938.1214,-79.3594"/>
</g>
<!-- Node16&#45;&gt;Node24 -->
<g id="edge28" class="edge">
<title>Node16&#45;&gt;Node24</title>
<path fill="none" stroke="#191970" d="M749.9512,-112.2455C758.7269,-104.0549 771.4554,-92.1749 781.814,-82.5069"/>
<polygon fill="#191970" stroke="#191970" points="784.2461,-85.0246 789.1686,-75.6427 779.4699,-79.9072 784.2461,-85.0246"/>
</g>
<!-- Node16&#45;&gt;Node25 -->
<g id="edge29" class="edge">
<title>Node16&#45;&gt;Node25</title>
<path fill="none" stroke="#191970" d="M810.2182,-115.9487C941.1546,-104.7353 1212.6011,-81.443 1270.0039,-75.3085"/>
<polygon fill="#191970" stroke="#191970" points="1270.7232,-78.7467 1280.2239,-74.0575 1269.8727,-71.7985 1270.7232,-78.7467"/>
</g>
<!-- Node26&#45;&gt;Node17 -->
<g id="edge31" class="edge">
<title>Node26&#45;&gt;Node17</title>
<path fill="none" stroke="#191970" d="M1536.4331,-112.3733C1513.6572,-103.2629 1479.2656,-89.5062 1453.851,-79.3404"/>
<polygon fill="#191970" stroke="#191970" points="1454.8375,-75.9654 1444.2528,-75.5011 1452.2377,-82.4648 1454.8375,-75.9654"/>
</g>
<!-- Node26&#45;&gt;Node24 -->
<g id="edge36" class="edge">
<title>Node26&#45;&gt;Node24</title>
<path fill="none" stroke="#191970" d="M1500.8318,-118.6459C1341.2601,-109.6248 911.8571,-84.9963 831.71,-75.3518"/>
<polygon fill="#191970" stroke="#191970" points="832.0797,-71.8687 821.6787,-73.8857 831.0673,-78.7952 832.0797,-71.8687"/>
</g>
<!-- Node26&#45;&gt;Node27 -->
<g id="edge32" class="edge">
<title>Node26&#45;&gt;Node27</title>
<path fill="none" stroke="#191970" d="M1602.6802,-112.4369C1644.9523,-102.8529 1710.1062,-88.0812 1755.5417,-77.78"/>
<polygon fill="#191970" stroke="#191970" points="1756.5152,-81.1482 1765.4938,-75.5237 1754.9674,-74.3215 1756.5152,-81.1482"/>
</g>
<!-- Node28 -->
<g id="node29" class="node">
<title>Node28</title>
<polygon fill="none" stroke="#bfbfbf" points="1636.5,-56.5 1636.5,-75.5 1722.5,-75.5 1722.5,-56.5 1636.5,-56.5"/>
<text text-anchor="middle" x="1679.5" y="-63.5" font-family="Helvetica,sans-Serif" font-size="10.00" fill="#000000">arrow/status.h</text>
</g>
<!-- Node26&#45;&gt;Node28 -->
<g id="edge33" class="edge">
<title>Node26&#45;&gt;Node28</title>
<path fill="none" stroke="#191970" d="M1580.9568,-112.3733C1599.9738,-103.4241 1628.5175,-89.9917 1649.9976,-79.8835"/>
<polygon fill="#191970" stroke="#191970" points="1651.7522,-82.926 1659.3101,-75.5011 1648.7716,-76.5923 1651.7522,-82.926"/>
</g>
<!-- Node29 -->
<g id="node30" class="node">
<title>Node29</title>
<polygon fill="none" stroke="#bfbfbf" points="1502.5,-56.5 1502.5,-75.5 1618.5,-75.5 1618.5,-56.5 1502.5,-56.5"/>
<text text-anchor="middle" x="1560.5" y="-63.5" font-family="Helvetica,sans-Serif" font-size="10.00" fill="#000000">arrow/util/visibility.h</text>
</g>
<!-- Node26&#45;&gt;Node29 -->
<g id="edge34" class="edge">
<title>Node26&#45;&gt;Node29</title>
<path fill="none" stroke="#191970" d="M1560.5,-112.2455C1560.5,-104.9382 1560.5,-94.6944 1560.5,-85.7046"/>
<polygon fill="#191970" stroke="#191970" points="1564.0001,-85.6426 1560.5,-75.6427 1557.0001,-85.6427 1564.0001,-85.6426"/>
</g>
<!-- Node26&#45;&gt;Node30 -->
<g id="edge35" class="edge">
<title>Node26&#45;&gt;Node30</title>
<path fill="none" stroke="#191970" d="M1620.0668,-113.7628C1682.753,-105.0387 1784.5848,-90.71 1882.2981,-76.1649"/>
<polygon fill="#191970" stroke="#191970" points="1882.975,-79.6028 1892.3493,-74.6658 1881.9423,-72.6794 1882.975,-79.6028"/>
</g>
<!-- Node31&#45;&gt;Node19 -->
<g id="edge38" class="edge">
<title>Node31&#45;&gt;Node19</title>
<path fill="none" stroke="#191970" d="M1000.0956,-112.4369C1047.6113,-102.471 1121.872,-86.8958 1171.1012,-76.5705"/>
<polygon fill="#191970" stroke="#191970" points="1171.8339,-79.9931 1180.9025,-74.5148 1170.397,-73.1422 1171.8339,-79.9931"/>
</g>
<!-- Node35&#45;&gt;Node14 -->
<g id="edge47" class="edge">
<title>Node35&#45;&gt;Node14</title>
<path fill="none" stroke="#191970" d="M1608.0217,-168.3733C1640.8683,-158.9404 1691.0595,-144.5265 1726.7578,-134.2747"/>
<polygon fill="#191970" stroke="#191970" points="1727.7703,-137.6255 1736.4157,-131.5011 1725.8381,-130.8974 1727.7703,-137.6255"/>
</g>
<!-- Node35&#45;&gt;Node15 -->
<g id="edge49" class="edge">
<title>Node35&#45;&gt;Node15</title>
<path fill="none" stroke="#191970" d="M1640.9365,-168.4995C1705.4909,-158.8546 1798.7129,-143.7142 1833.5,-132 1851.9611,-125.7834 1854.2695,-118.8632 1872.5,-112 1885.443,-107.1274 1960.937,-88.6677 2010.8289,-76.6661"/>
<polygon fill="#191970" stroke="#191970" points="2011.841,-80.0226 2020.7472,-74.2841 2010.2063,-73.2161 2011.841,-80.0226"/>
</g>
<!-- Node35&#45;&gt;Node36 -->
<g id="edge48" class="edge">
<title>Node35&#45;&gt;Node36</title>
<path fill="none" stroke="#191970" d="M1648.1662,-168.9282C1707.4883,-161.016 1792.8338,-148.2625 1866.5,-132 1867.9656,-131.6765 1869.4605,-131.3269 1870.9667,-130.9589"/>
<polygon fill="#191970" stroke="#191970" points="1872.1023,-134.2791 1880.8785,-128.3437 1870.3164,-127.5107 1872.1023,-134.2791"/>
</g>
<!-- Node37&#45;&gt;Node13 -->
<g id="edge52" class="edge">
<title>Node37&#45;&gt;Node13</title>
<path fill="none" stroke="#191970" d="M500.7458,-168.4181C483.7286,-153.8096 448.9749,-126.1739 414.5,-112 384.3625,-99.6094 305.6287,-86.1435 244.6883,-77.0028"/>
<polygon fill="#191970" stroke="#191970" points="245.0932,-73.5246 234.6875,-75.5173 244.0647,-80.4486 245.0932,-73.5246"/>
</g>
</g>
</svg>
