<?xml version="1.0" encoding="UTF-8" standalone="no"?>
<!DOCTYPE svg PUBLIC "-//W3C//DTD SVG 1.1//EN"
 "http://www.w3.org/Graphics/SVG/1.1/DTD/svg11.dtd">
<!-- Generated by graphviz version 2.40.1 (20161225.0304)
 -->
<!-- Title: /home/travis/build/AliceO2Group/AliceO2/GPU/GPUTracking/ctest/testGPUTracking.cxx Pages: 1 -->
<svg width="1664pt" height="464pt"
 viewBox="0.00 0.00 1663.68 464.00" xmlns="http://www.w3.org/2000/svg" xmlns:xlink="http://www.w3.org/1999/xlink">
<g id="graph0" class="graph" transform="scale(1 1) rotate(0) translate(4 460)">
<title>/home/travis/build/AliceO2Group/AliceO2/GPU/GPUTracking/ctest/testGPUTracking.cxx</title>
<!-- Node0 -->
<g id="node1" class="node">
<title>Node0</title>
<polygon fill="#bfbfbf" stroke="#000000" points="265.5,-403.5 265.5,-455.5 397.5,-455.5 397.5,-403.5 265.5,-403.5"/>
<text text-anchor="start" x="273.5" y="-443.5" font-family="Helvetica,sans-Serif" font-size="10.00" fill="#000000">/home/travis/build</text>
<text text-anchor="start" x="273.5" y="-432.5" font-family="Helvetica,sans-Serif" font-size="10.00" fill="#000000">/AliceO2Group/AliceO2</text>
<text text-anchor="start" x="273.5" y="-421.5" font-family="Helvetica,sans-Serif" font-size="10.00" fill="#000000">/GPU/GPUTracking/ctest</text>
<text text-anchor="middle" x="331.5" y="-410.5" font-family="Helvetica,sans-Serif" font-size="10.00" fill="#000000">/testGPUTracking.cxx</text>
</g>
<!-- Node1 -->
<g id="node2" class="node">
<title>Node1</title>
<polygon fill="none" stroke="#bfbfbf" points="89.5,-347.5 89.5,-366.5 221.5,-366.5 221.5,-347.5 89.5,-347.5"/>
<text text-anchor="middle" x="155.5" y="-354.5" font-family="Helvetica,sans-Serif" font-size="10.00" fill="#000000">boost/test/unit_test.hpp</text>
</g>
<!-- Node0&#45;&gt;Node1 -->
<g id="edge1" class="edge">
<title>Node0&#45;&gt;Node1</title>
<path fill="none" stroke="#191970" d="M267.96,-403.3258C240.8565,-392.161 210.3903,-379.6111 188.0113,-370.3924"/>
<polygon fill="#191970" stroke="#191970" points="189.224,-367.1067 178.6446,-366.534 186.5577,-373.5791 189.224,-367.1067"/>
</g>
<!-- Node2 -->
<g id="node3" class="node">
<title>Node2</title>
<g id="a_node3"><a xlink:href="../../d4/db1/TPCFastTransform_8h.html" target="_top" xlink:title="Definition of TPCFastTransform class. ">
<polygon fill="none" stroke="#000000" points="357,-347.5 357,-366.5 470,-366.5 470,-347.5 357,-347.5"/>
<text text-anchor="middle" x="413.5" y="-354.5" font-family="Helvetica,sans-Serif" font-size="10.00" fill="#000000">TPCFastTransform.h</text>
</a>
</g>
</g>
<!-- Node0&#45;&gt;Node2 -->
<g id="edge2" class="edge">
<title>Node0&#45;&gt;Node2</title>
<path fill="none" stroke="#191970" d="M361.1039,-403.3258C372.4292,-393.3126 385.0148,-382.1851 395.0121,-373.346"/>
<polygon fill="#191970" stroke="#191970" points="397.5433,-375.7799 402.7167,-366.534 392.9067,-370.5357 397.5433,-375.7799"/>
</g>
<!-- Node26 -->
<g id="node27" class="node">
<title>Node26</title>
<g id="a_node27"><a xlink:href="../../dc/dae/GPUO2Interface_8h.html" target="_top" xlink:title="GPUO2Interface.h">
<polygon fill="none" stroke="#000000" points="354.5,-179.5 354.5,-198.5 458.5,-198.5 458.5,-179.5 354.5,-179.5"/>
<text text-anchor="middle" x="406.5" y="-186.5" font-family="Helvetica,sans-Serif" font-size="10.00" fill="#000000">GPUO2Interface.h</text>
</a>
</g>
</g>
<!-- Node0&#45;&gt;Node26 -->
<g id="edge36" class="edge">
<title>Node0&#45;&gt;Node26</title>
<path fill="none" stroke="#191970" d="M324.7517,-403.3948C318.6575,-374.9106 312.4622,-328.383 325.5,-291 337.7389,-255.9076 367.6494,-223.8323 387.4961,-205.3645"/>
<polygon fill="#191970" stroke="#191970" points="389.9817,-207.8357 395.0537,-198.5337 385.288,-202.6425 389.9817,-207.8357"/>
</g>
<!-- Node28 -->
<g id="node29" class="node">
<title>Node28</title>
<g id="a_node29"><a xlink:href="../../d8/de7/GPUO2InterfaceConfiguration_8h.html" target="_top" xlink:title="GPUO2InterfaceConfiguration.h">
<polygon fill="none" stroke="#000000" points="922,-235.5 922,-254.5 1091,-254.5 1091,-235.5 922,-235.5"/>
<text text-anchor="middle" x="1006.5" y="-242.5" font-family="Helvetica,sans-Serif" font-size="10.00" fill="#000000">GPUO2InterfaceConfiguration.h</text>
</a>
</g>
</g>
<!-- Node0&#45;&gt;Node28 -->
<g id="edge42" class="edge">
<title>Node0&#45;&gt;Node28</title>
<path fill="none" stroke="#191970" d="M397.7596,-411.389C534.6341,-373.9767 845.4865,-289.0103 961.6214,-257.2668"/>
<polygon fill="#191970" stroke="#191970" points="962.8711,-260.5537 971.5944,-254.5409 961.0254,-253.8014 962.8711,-260.5537"/>
</g>
<!-- Node3 -->
<g id="node4" class="node">
<title>Node3</title>
<g id="a_node4"><a xlink:href="../../db/dff/FlatObject_8h.html" target="_top" xlink:title="Definition of FlatObject class. ">
<polygon fill="none" stroke="#000000" points="679,-118 679,-137 754,-137 754,-118 679,-118"/>
<text text-anchor="middle" x="716.5" y="-125" font-family="Helvetica,sans-Serif" font-size="10.00" fill="#000000">FlatObject.h</text>
</a>
</g>
</g>
<!-- Node2&#45;&gt;Node3 -->
<g id="edge3" class="edge">
<title>Node2&#45;&gt;Node3</title>
<path fill="none" stroke="#191970" d="M470.3611,-347.8268C509.7128,-340.4459 562.832,-328.41 607.5,-311 654.9612,-292.5013 680.2098,-298.0117 707.5,-255 728.5128,-221.882 724.8001,-173.7169 720.4877,-147.0698"/>
<polygon fill="#191970" stroke="#191970" points="723.903,-146.2877 718.6732,-137.0736 717.0156,-147.538 723.903,-146.2877"/>
</g>
<!-- Node17 -->
<g id="node18" class="node">
<title>Node17</title>
<g id="a_node18"><a xlink:href="../../d5/dde/TPCFastTransformGeo_8h.html" target="_top" xlink:title="Definition of TPCFastTransformGeo class. ">
<polygon fill="none" stroke="#000000" points="566.5,-235.5 566.5,-254.5 698.5,-254.5 698.5,-235.5 566.5,-235.5"/>
<text text-anchor="middle" x="632.5" y="-242.5" font-family="Helvetica,sans-Serif" font-size="10.00" fill="#000000">TPCFastTransformGeo.h</text>
</a>
</g>
</g>
<!-- Node2&#45;&gt;Node17 -->
<g id="edge17" class="edge">
<title>Node2&#45;&gt;Node17</title>
<path fill="none" stroke="#191970" d="M470.25,-351.2072C505.3241,-345.4226 549.8966,-333.9012 583.5,-311 601.1062,-299.0011 614.8423,-278.5501 623.2343,-263.5864"/>
<polygon fill="#191970" stroke="#191970" points="626.3604,-265.1622 627.9642,-254.6895 620.1796,-261.8762 626.3604,-265.1622"/>
</g>
<!-- Node18 -->
<g id="node19" class="node">
<title>Node18</title>
<g id="a_node19"><a xlink:href="../../d8/d93/TPCFastSpaceChargeCorrection_8h.html" target="_top" xlink:title="Definition of TPCFastSpaceChargeCorrection class. ">
<polygon fill="none" stroke="#000000" points="396.5,-291.5 396.5,-310.5 574.5,-310.5 574.5,-291.5 396.5,-291.5"/>
<text text-anchor="middle" x="485.5" y="-298.5" font-family="Helvetica,sans-Serif" font-size="10.00" fill="#000000">TPCFastSpaceChargeCorrection.h</text>
</a>
</g>
</g>
<!-- Node2&#45;&gt;Node18 -->
<g id="edge20" class="edge">
<title>Node2&#45;&gt;Node18</title>
<path fill="none" stroke="#191970" d="M426.0414,-347.2455C436.7787,-338.8943 452.4473,-326.7076 465.0047,-316.9408"/>
<polygon fill="#191970" stroke="#191970" points="467.3575,-319.5449 473.1023,-310.6427 463.0599,-314.0194 467.3575,-319.5449"/>
</g>
<!-- Node22 -->
<g id="node23" class="node">
<title>Node22</title>
<g id="a_node23"><a xlink:href="../../d6/da2/GPUCommonMath_8h.html" target="_top" xlink:title="GPUCommonMath.h">
<polygon fill="none" stroke="#000000" points="3,-118 3,-137 118,-137 118,-118 3,-118"/>
<text text-anchor="middle" x="60.5" y="-125" font-family="Helvetica,sans-Serif" font-size="10.00" fill="#000000">GPUCommonMath.h</text>
</a>
</g>
</g>
<!-- Node2&#45;&gt;Node22 -->
<g id="edge31" class="edge">
<title>Node2&#45;&gt;Node22</title>
<path fill="none" stroke="#191970" d="M393.5428,-347.4517C375.4508,-338.5895 348.2207,-324.7325 325.5,-311 231.1847,-253.9952 125.157,-176.104 81.2501,-143.1947"/>
<polygon fill="#191970" stroke="#191970" points="83.1803,-140.2671 73.0841,-137.0551 78.9736,-145.8621 83.1803,-140.2671"/>
</g>
<!-- Node25 -->
<g id="node26" class="node">
<title>Node25</title>
<polygon fill="none" stroke="#bfbfbf" points="334.5,-291.5 334.5,-310.5 378.5,-310.5 378.5,-291.5 334.5,-291.5"/>
<text text-anchor="middle" x="356.5" y="-298.5" font-family="Helvetica,sans-Serif" font-size="10.00" fill="#000000">string</text>
</g>
<!-- Node2&#45;&gt;Node25 -->
<g id="edge35" class="edge">
<title>Node2&#45;&gt;Node25</title>
<path fill="none" stroke="#191970" d="M403.5714,-347.2455C395.3162,-339.1352 383.3791,-327.4075 373.5918,-317.7919"/>
<polygon fill="#191970" stroke="#191970" points="375.9011,-315.1542 366.3149,-310.6427 370.9954,-320.1476 375.9011,-315.1542"/>
</g>
<!-- Node4 -->
<g id="node5" class="node">
<title>Node4</title>
<polygon fill="none" stroke="#bfbfbf" points="459,-56.5 459,-75.5 512,-75.5 512,-56.5 459,-56.5"/>
<text text-anchor="middle" x="485.5" y="-63.5" font-family="Helvetica,sans-Serif" font-size="10.00" fill="#000000">cstddef</text>
</g>
<!-- Node3&#45;&gt;Node4 -->
<g id="edge4" class="edge">
<title>Node3&#45;&gt;Node4</title>
<path fill="none" stroke="#191970" d="M680.6597,-117.9581C637.4858,-106.4638 565.3585,-87.261 521.9251,-75.6976"/>
<polygon fill="#191970" stroke="#191970" points="522.6259,-72.2623 512.062,-73.0717 520.8249,-79.0267 522.6259,-72.2623"/>
</g>
<!-- Node5 -->
<g id="node6" class="node">
<title>Node5</title>
<polygon fill="none" stroke="#bfbfbf" points="885.5,-56.5 885.5,-75.5 943.5,-75.5 943.5,-56.5 885.5,-56.5"/>
<text text-anchor="middle" x="914.5" y="-63.5" font-family="Helvetica,sans-Serif" font-size="10.00" fill="#000000">memory</text>
</g>
<!-- Node3&#45;&gt;Node5 -->
<g id="edge5" class="edge">
<title>Node3&#45;&gt;Node5</title>
<path fill="none" stroke="#191970" d="M747.4375,-117.8906C782.0829,-107.1296 838.2825,-89.6736 875.8071,-78.0182"/>
<polygon fill="#191970" stroke="#191970" points="876.8791,-81.3503 885.3908,-75.0415 874.8027,-74.6654 876.8791,-81.3503"/>
</g>
<!-- Node6 -->
<g id="node7" class="node">
<title>Node6</title>
<polygon fill="none" stroke="#bfbfbf" points="961.5,-56.5 961.5,-75.5 1011.5,-75.5 1011.5,-56.5 961.5,-56.5"/>
<text text-anchor="middle" x="986.5" y="-63.5" font-family="Helvetica,sans-Serif" font-size="10.00" fill="#000000">cstring</text>
</g>
<!-- Node3&#45;&gt;Node6 -->
<g id="edge6" class="edge">
<title>Node3&#45;&gt;Node6</title>
<path fill="none" stroke="#191970" d="M754.2985,-120.1156C799.0564,-111.1819 876.0476,-95.2205 951.1964,-76.2067"/>
<polygon fill="#191970" stroke="#191970" points="952.48,-79.4913 961.3042,-73.6275 950.7493,-72.7087 952.48,-79.4913"/>
</g>
<!-- Node7 -->
<g id="node8" class="node">
<title>Node7</title>
<polygon fill="none" stroke="#bfbfbf" points="1173.5,-56.5 1173.5,-75.5 1225.5,-75.5 1225.5,-56.5 1173.5,-56.5"/>
<text text-anchor="middle" x="1199.5" y="-63.5" font-family="Helvetica,sans-Serif" font-size="10.00" fill="#000000">cassert</text>
</g>
<!-- Node3&#45;&gt;Node7 -->
<g id="edge7" class="edge">
<title>Node3&#45;&gt;Node7</title>
<path fill="none" stroke="#191970" d="M754.0726,-120.0619C769.0912,-117.2633 786.5731,-114.2237 802.5,-112 959.3455,-90.1018 1003.8725,-105.6624 1163.0944,-75.9717"/>
<polygon fill="#191970" stroke="#191970" points="1164.0754,-79.3482 1173.2483,-74.0465 1162.7714,-72.4707 1164.0754,-79.3482"/>
</g>
<!-- Node8 -->
<g id="node9" class="node">
<title>Node8</title>
<polygon fill="none" stroke="#bfbfbf" points="697.5,-56.5 697.5,-75.5 745.5,-75.5 745.5,-56.5 697.5,-56.5"/>
<text text-anchor="middle" x="721.5" y="-63.5" font-family="Helvetica,sans-Serif" font-size="10.00" fill="#000000">TFile.h</text>
</g>
<!-- Node3&#45;&gt;Node8 -->
<g id="edge8" class="edge">
<title>Node3&#45;&gt;Node8</title>
<path fill="none" stroke="#191970" d="M717.2813,-117.8906C717.9743,-109.3657 719.009,-96.6392 719.8802,-85.9235"/>
<polygon fill="#191970" stroke="#191970" points="723.3858,-85.9956 720.7077,-75.7449 716.4088,-85.4283 723.3858,-85.9956"/>
</g>
<!-- Node9 -->
<g id="node10" class="node">
<title>Node9</title>
<g id="a_node10"><a xlink:href="../../df/d21/GPUCommonDef_8h.html" target="_top" xlink:title="GPUCommonDef.h">
<polygon fill="none" stroke="#000000" points="245,-56.5 245,-75.5 352,-75.5 352,-56.5 245,-56.5"/>
<text text-anchor="middle" x="298.5" y="-63.5" font-family="Helvetica,sans-Serif" font-size="10.00" fill="#000000">GPUCommonDef.h</text>
</a>
</g>
</g>
<!-- Node3&#45;&gt;Node9 -->
<g id="edge9" class="edge">
<title>Node3&#45;&gt;Node9</title>
<path fill="none" stroke="#191970" d="M678.8844,-120.7523C662.7716,-117.9317 643.7316,-114.6915 626.5,-112 534.9575,-97.7016 428.7102,-83.179 362.5345,-74.3789"/>
<polygon fill="#191970" stroke="#191970" points="362.6397,-70.8622 352.2662,-73.0166 361.719,-77.8014 362.6397,-70.8622"/>
</g>
<!-- Node12 -->
<g id="node13" class="node">
<title>Node12</title>
<g id="a_node13"><a xlink:href="../../d2/d45/GPUCommonRtypes_8h.html" target="_top" xlink:title="GPUCommonRtypes.h">
<polygon fill="none" stroke="#000000" points="1030,-56.5 1030,-75.5 1155,-75.5 1155,-56.5 1030,-56.5"/>
<text text-anchor="middle" x="1092.5" y="-63.5" font-family="Helvetica,sans-Serif" font-size="10.00" fill="#000000">GPUCommonRtypes.h</text>
</a>
</g>
</g>
<!-- Node3&#45;&gt;Node12 -->
<g id="edge12" class="edge">
<title>Node3&#45;&gt;Node12</title>
<path fill="none" stroke="#191970" d="M754.1461,-120.5382C769.1749,-117.8051 786.6445,-114.686 802.5,-112 876.4998,-99.4639 961.3046,-86.132 1020.0089,-77.0663"/>
<polygon fill="#191970" stroke="#191970" points="1020.5783,-80.52 1029.9281,-75.5367 1019.5115,-73.6017 1020.5783,-80.52"/>
</g>
<!-- Node14 -->
<g id="node15" class="node">
<title>Node14</title>
<g id="a_node15"><a xlink:href="../../df/d5b/GPUCommonLogger_8h.html" target="_top" xlink:title="GPUCommonLogger.h">
<polygon fill="none" stroke="#000000" points="556,-56.5 556,-75.5 679,-75.5 679,-56.5 556,-56.5"/>
<text text-anchor="middle" x="617.5" y="-63.5" font-family="Helvetica,sans-Serif" font-size="10.00" fill="#000000">GPUCommonLogger.h</text>
</a>
</g>
</g>
<!-- Node3&#45;&gt;Node14 -->
<g id="edge14" class="edge">
<title>Node3&#45;&gt;Node14</title>
<path fill="none" stroke="#191970" d="M701.0313,-117.8906C685.0479,-107.9616 659.8897,-92.333 641.3567,-80.8201"/>
<polygon fill="#191970" stroke="#191970" points="643.2015,-77.8457 632.8601,-75.5419 639.5076,-83.7918 643.2015,-77.8457"/>
</g>
<!-- Node10 -->
<g id="node11" class="node">
<title>Node10</title>
<g id="a_node11"><a xlink:href="../../d5/d93/GPUCommonDefSettings_8h.html" target="_top" xlink:title="GPUCommonDefSettings.h">
<polygon fill="none" stroke="#000000" points="147.5,-.5 147.5,-19.5 295.5,-19.5 295.5,-.5 147.5,-.5"/>
<text text-anchor="middle" x="221.5" y="-7.5" font-family="Helvetica,sans-Serif" font-size="10.00" fill="#000000">GPUCommonDefSettings.h</text>
</a>
</g>
</g>
<!-- Node9&#45;&gt;Node10 -->
<g id="edge10" class="edge">
<title>Node9&#45;&gt;Node10</title>
<path fill="none" stroke="#191970" d="M285.0876,-56.2455C273.4943,-47.814 256.5252,-35.4729 243.0322,-25.6598"/>
<polygon fill="#191970" stroke="#191970" points="244.9047,-22.6938 234.7587,-19.6427 240.7874,-28.355 244.9047,-22.6938"/>
</g>
<!-- Node11 -->
<g id="node12" class="node">
<title>Node11</title>
<g id="a_node12"><a xlink:href="../../da/d5a/GPUCommonDefAPI_8h.html" target="_top" xlink:title="GPUCommonDefAPI.h">
<polygon fill="none" stroke="#000000" points="313.5,-.5 313.5,-19.5 437.5,-19.5 437.5,-.5 313.5,-.5"/>
<text text-anchor="middle" x="375.5" y="-7.5" font-family="Helvetica,sans-Serif" font-size="10.00" fill="#000000">GPUCommonDefAPI.h</text>
</a>
</g>
</g>
<!-- Node9&#45;&gt;Node11 -->
<g id="edge11" class="edge">
<title>Node9&#45;&gt;Node11</title>
<path fill="none" stroke="#191970" d="M311.9124,-56.2455C323.5057,-47.814 340.4748,-35.4729 353.9678,-25.6598"/>
<polygon fill="#191970" stroke="#191970" points="356.2126,-28.355 362.2413,-19.6427 352.0953,-22.6938 356.2126,-28.355"/>
</g>
<!-- Node13 -->
<g id="node14" class="node">
<title>Node13</title>
<polygon fill="none" stroke="#bfbfbf" points="1063,-.5 1063,-19.5 1122,-19.5 1122,-.5 1063,-.5"/>
<text text-anchor="middle" x="1092.5" y="-7.5" font-family="Helvetica,sans-Serif" font-size="10.00" fill="#000000">Rtypes.h</text>
</g>
<!-- Node12&#45;&gt;Node13 -->
<g id="edge13" class="edge">
<title>Node12&#45;&gt;Node13</title>
<path fill="none" stroke="#191970" d="M1092.5,-56.2455C1092.5,-48.9382 1092.5,-38.6944 1092.5,-29.7046"/>
<polygon fill="#191970" stroke="#191970" points="1096.0001,-29.6426 1092.5,-19.6427 1089.0001,-29.6427 1096.0001,-29.6426"/>
</g>
<!-- Node15 -->
<g id="node16" class="node">
<title>Node15</title>
<polygon fill="none" stroke="#bfbfbf" points="627.5,-.5 627.5,-19.5 687.5,-19.5 687.5,-.5 627.5,-.5"/>
<text text-anchor="middle" x="657.5" y="-7.5" font-family="Helvetica,sans-Serif" font-size="10.00" fill="#000000">iostream</text>
</g>
<!-- Node14&#45;&gt;Node15 -->
<g id="edge15" class="edge">
<title>Node14&#45;&gt;Node15</title>
<path fill="none" stroke="#191970" d="M624.4675,-56.2455C630.0311,-48.4564 637.978,-37.3308 644.6829,-27.9439"/>
<polygon fill="#191970" stroke="#191970" points="647.648,-29.8144 650.6124,-19.6427 641.9519,-25.7457 647.648,-29.8144"/>
</g>
<!-- Node16 -->
<g id="node17" class="node">
<title>Node16</title>
<polygon fill="none" stroke="#bfbfbf" points="563.5,-.5 563.5,-19.5 609.5,-19.5 609.5,-.5 563.5,-.5"/>
<text text-anchor="middle" x="586.5" y="-7.5" font-family="Helvetica,sans-Serif" font-size="10.00" fill="#000000">cstdio</text>
</g>
<!-- Node14&#45;&gt;Node16 -->
<g id="edge16" class="edge">
<title>Node14&#45;&gt;Node16</title>
<path fill="none" stroke="#191970" d="M612.1002,-56.2455C607.8773,-48.617 601.8827,-37.7881 596.7559,-28.5267"/>
<polygon fill="#191970" stroke="#191970" points="599.7432,-26.6965 591.8379,-19.6427 593.619,-30.0867 599.7432,-26.6965"/>
</g>
<!-- Node17&#45;&gt;Node5 -->
<g id="edge19" class="edge">
<title>Node17&#45;&gt;Node5</title>
<path fill="none" stroke="#191970" d="M644.8133,-235.4785C668.0647,-217.4843 720.0045,-177.2187 763.5,-143 780.9022,-129.3094 783.403,-123.2061 802.5,-112 825.7152,-98.3773 853.7282,-86.8736 875.9309,-78.7774"/>
<polygon fill="#191970" stroke="#191970" points="877.128,-82.0665 885.3716,-75.4112 874.777,-75.4731 877.128,-82.0665"/>
</g>
<!-- Node17&#45;&gt;Node9 -->
<g id="edge18" class="edge">
<title>Node17&#45;&gt;Node9</title>
<path fill="none" stroke="#191970" d="M566.4008,-238.3474C456.3138,-227.1135 246.851,-205.0174 241.5,-199 210.6567,-164.3153 254.0248,-110.4182 280.5496,-83.1077"/>
<polygon fill="#191970" stroke="#191970" points="283.2228,-85.3845 287.8247,-75.8413 278.276,-80.4318 283.2228,-85.3845"/>
</g>
<!-- Node18&#45;&gt;Node3 -->
<g id="edge29" class="edge">
<title>Node18&#45;&gt;Node3</title>
<path fill="none" stroke="#191970" d="M495.3362,-291.1098C508.8277,-277.7525 534.0744,-253.4915 557.5,-235 602.9671,-199.1096 660.0031,-162.3919 691.93,-142.5204"/>
<polygon fill="#191970" stroke="#191970" points="693.9541,-145.3838 700.6155,-137.1451 690.2703,-139.4315 693.9541,-145.3838"/>
</g>
<!-- Node18&#45;&gt;Node9 -->
<g id="edge30" class="edge">
<title>Node18&#45;&gt;Node9</title>
<path fill="none" stroke="#191970" d="M439.0342,-291.4645C364.1986,-275.0784 222.3235,-239.4137 192.5,-199 169.5345,-167.8795 169.1726,-144.2652 190.5,-112 200.9302,-96.2206 217.9932,-85.8364 235.5086,-79.0096"/>
<polygon fill="#191970" stroke="#191970" points="236.9826,-82.201 245.2467,-75.5712 234.6519,-75.6004 236.9826,-82.201"/>
</g>
<!-- Node18&#45;&gt;Node17 -->
<g id="edge28" class="edge">
<title>Node18&#45;&gt;Node17</title>
<path fill="none" stroke="#191970" d="M510.7702,-291.3733C534.8966,-282.1822 571.4362,-268.2624 598.1877,-258.0713"/>
<polygon fill="#191970" stroke="#191970" points="599.4607,-261.3318 607.5596,-254.5011 596.9687,-254.7904 599.4607,-261.3318"/>
</g>
<!-- Node19 -->
<g id="node20" class="node">
<title>Node19</title>
<g id="a_node20"><a xlink:href="../../dd/d27/Spline2D_8h.html" target="_top" xlink:title="Definition of Spline2D class. ">
<polygon fill="none" stroke="#000000" points="441,-235.5 441,-254.5 510,-254.5 510,-235.5 441,-235.5"/>
<text text-anchor="middle" x="475.5" y="-242.5" font-family="Helvetica,sans-Serif" font-size="10.00" fill="#000000">Spline2D.h</text>
</a>
</g>
</g>
<!-- Node18&#45;&gt;Node19 -->
<g id="edge21" class="edge">
<title>Node18&#45;&gt;Node19</title>
<path fill="none" stroke="#191970" d="M483.7581,-291.2455C482.4533,-283.9382 480.624,-273.6944 479.0187,-264.7046"/>
<polygon fill="#191970" stroke="#191970" points="482.4254,-263.8717 477.2219,-254.6427 475.5344,-265.1022 482.4254,-263.8717"/>
</g>
<!-- Node19&#45;&gt;Node3 -->
<g id="edge26" class="edge">
<title>Node19&#45;&gt;Node3</title>
<path fill="none" stroke="#191970" d="M492.3868,-235.376C515.8855,-222.1138 559.9133,-197.7349 598.5,-179 626.9529,-165.1853 660.0039,-150.9079 683.8766,-140.9"/>
<polygon fill="#191970" stroke="#191970" points="685.3022,-144.0977 693.1852,-137.019 682.6084,-137.6368 685.3022,-144.0977"/>
</g>
<!-- Node19&#45;&gt;Node9 -->
<g id="edge27" class="edge">
<title>Node19&#45;&gt;Node9</title>
<path fill="none" stroke="#191970" d="M440.8219,-241.5087C371.9713,-234.2269 223.3497,-216.6268 208.5,-199 183.5875,-169.4284 188.3175,-144.9815 208.5,-112 217.8409,-96.7354 234.0228,-86.3326 250.1126,-79.3404"/>
<polygon fill="#191970" stroke="#191970" points="251.5187,-82.548 259.523,-75.6067 248.9371,-76.0414 251.5187,-82.548"/>
</g>
<!-- Node20 -->
<g id="node21" class="node">
<title>Node20</title>
<g id="a_node21"><a xlink:href="../../de/da6/Spline1D_8h.html" target="_top" xlink:title="Definition of Spline1D class. ">
<polygon fill="none" stroke="#000000" points="477,-179.5 477,-198.5 546,-198.5 546,-179.5 477,-179.5"/>
<text text-anchor="middle" x="511.5" y="-186.5" font-family="Helvetica,sans-Serif" font-size="10.00" fill="#000000">Spline1D.h</text>
</a>
</g>
</g>
<!-- Node19&#45;&gt;Node20 -->
<g id="edge22" class="edge">
<title>Node19&#45;&gt;Node20</title>
<path fill="none" stroke="#191970" d="M481.7707,-235.2455C486.7264,-227.5367 493.783,-216.5598 499.7776,-207.2348"/>
<polygon fill="#191970" stroke="#191970" points="502.8376,-208.9471 505.3011,-198.6427 496.9494,-205.1618 502.8376,-208.9471"/>
</g>
<!-- Node20&#45;&gt;Node3 -->
<g id="edge24" class="edge">
<title>Node20&#45;&gt;Node3</title>
<path fill="none" stroke="#191970" d="M543.5313,-179.3906C578.8846,-168.7846 635.9157,-151.6753 674.7478,-140.0257"/>
<polygon fill="#191970" stroke="#191970" points="676.1212,-143.2678 684.6937,-137.0419 674.1097,-136.5631 676.1212,-143.2678"/>
</g>
<!-- Node20&#45;&gt;Node9 -->
<g id="edge23" class="edge">
<title>Node20&#45;&gt;Node9</title>
<path fill="none" stroke="#191970" d="M476.6849,-180.9837C421.2407,-168.1848 318.933,-144.42 317.5,-143 302.4168,-128.0535 298.6111,-103.1713 297.9692,-85.7484"/>
<polygon fill="#191970" stroke="#191970" points="301.4683,-85.5377 297.9175,-75.5557 294.4684,-85.5733 301.4683,-85.5377"/>
</g>
<!-- Node21 -->
<g id="node22" class="node">
<title>Node21</title>
<polygon fill="none" stroke="#bfbfbf" points="327,-118 327,-137 392,-137 392,-118 327,-118"/>
<text text-anchor="middle" x="359.5" y="-125" font-family="Helvetica,sans-Serif" font-size="10.00" fill="#000000">functional</text>
</g>
<!-- Node20&#45;&gt;Node21 -->
<g id="edge25" class="edge">
<title>Node20&#45;&gt;Node21</title>
<path fill="none" stroke="#191970" d="M487.75,-179.3906C462.2061,-169.0554 421.3991,-152.5447 392.689,-140.9284"/>
<polygon fill="#191970" stroke="#191970" points="393.666,-137.5481 383.0832,-137.0419 391.0404,-144.0371 393.666,-137.5481"/>
</g>
<!-- Node22&#45;&gt;Node9 -->
<g id="edge32" class="edge">
<title>Node22&#45;&gt;Node9</title>
<path fill="none" stroke="#191970" d="M97.4264,-117.9581C138.9402,-107.2308 206.4365,-89.7895 251.6353,-78.11"/>
<polygon fill="#191970" stroke="#191970" points="252.6807,-81.4549 261.487,-75.5643 250.9293,-74.6775 252.6807,-81.4549"/>
</g>
<!-- Node23 -->
<g id="node24" class="node">
<title>Node23</title>
<polygon fill="none" stroke="#bfbfbf" points="0,-56.5 0,-75.5 47,-75.5 47,-56.5 0,-56.5"/>
<text text-anchor="middle" x="23.5" y="-63.5" font-family="Helvetica,sans-Serif" font-size="10.00" fill="#000000">cmath</text>
</g>
<!-- Node22&#45;&gt;Node23 -->
<g id="edge33" class="edge">
<title>Node22&#45;&gt;Node23</title>
<path fill="none" stroke="#191970" d="M54.7188,-117.8906C49.374,-109.0068 41.2841,-95.5601 34.6789,-84.5811"/>
<polygon fill="#191970" stroke="#191970" points="37.5171,-82.5093 29.3628,-75.7449 31.5189,-86.118 37.5171,-82.5093"/>
</g>
<!-- Node24 -->
<g id="node25" class="node">
<title>Node24</title>
<polygon fill="none" stroke="#bfbfbf" points="65.5,-56.5 65.5,-75.5 129.5,-75.5 129.5,-56.5 65.5,-56.5"/>
<text text-anchor="middle" x="97.5" y="-63.5" font-family="Helvetica,sans-Serif" font-size="10.00" fill="#000000">algorithm</text>
</g>
<!-- Node22&#45;&gt;Node24 -->
<g id="edge34" class="edge">
<title>Node22&#45;&gt;Node24</title>
<path fill="none" stroke="#191970" d="M66.2813,-117.8906C71.626,-109.0068 79.7159,-95.5601 86.3211,-84.5811"/>
<polygon fill="#191970" stroke="#191970" points="89.4811,-86.118 91.6372,-75.7449 83.4829,-82.5093 89.4811,-86.118"/>
</g>
<!-- Node26&#45;&gt;Node5 -->
<g id="edge37" class="edge">
<title>Node26&#45;&gt;Node5</title>
<path fill="none" stroke="#191970" d="M435.5203,-179.387C483.8338,-163.6436 584.0042,-132.1067 670.5,-112 757.9351,-91.675 783.9367,-95.5404 875.1647,-76.1468"/>
<polygon fill="#191970" stroke="#191970" points="876.0664,-79.5328 885.1008,-73.9984 874.587,-72.6909 876.0664,-79.5328"/>
</g>
<!-- Node26&#45;&gt;Node9 -->
<g id="edge38" class="edge">
<title>Node26&#45;&gt;Node9</title>
<path fill="none" stroke="#191970" d="M367.6145,-179.4838C335.7324,-170.8019 294.3185,-157.1953 284.5,-143 272.7227,-125.9727 279.9253,-101.9356 287.6862,-85.2658"/>
<polygon fill="#191970" stroke="#191970" points="291.0028,-86.4659 292.4258,-75.9671 284.7662,-83.2871 291.0028,-86.4659"/>
</g>
<!-- Node27 -->
<g id="node28" class="node">
<title>Node27</title>
<g id="a_node28"><a xlink:href="../../d4/dc5/GPUDataTypes_8h.html" target="_top" xlink:title="GPUDataTypes.h">
<polygon fill="none" stroke="#000000" points="410.5,-118 410.5,-137 508.5,-137 508.5,-118 410.5,-118"/>
<text text-anchor="middle" x="459.5" y="-125" font-family="Helvetica,sans-Serif" font-size="10.00" fill="#000000">GPUDataTypes.h</text>
</a>
</g>
</g>
<!-- Node26&#45;&gt;Node27 -->
<g id="edge39" class="edge">
<title>Node26&#45;&gt;Node27</title>
<path fill="none" stroke="#191970" d="M414.7813,-179.3906C422.6693,-170.2376 434.7314,-156.2409 444.3412,-145.09"/>
<polygon fill="#191970" stroke="#191970" points="447.2251,-147.1049 451.102,-137.2449 441.9225,-142.5352 447.2251,-147.1049"/>
</g>
<!-- Node27&#45;&gt;Node4 -->
<g id="edge41" class="edge">
<title>Node27&#45;&gt;Node4</title>
<path fill="none" stroke="#191970" d="M463.5625,-117.8906C467.2424,-109.1862 472.7742,-96.1015 477.362,-85.2494"/>
<polygon fill="#191970" stroke="#191970" points="480.71,-86.3185 481.3802,-75.7449 474.2625,-83.5927 480.71,-86.3185"/>
</g>
<!-- Node27&#45;&gt;Node9 -->
<g id="edge40" class="edge">
<title>Node27&#45;&gt;Node9</title>
<path fill="none" stroke="#191970" d="M434.3438,-117.8906C407.051,-107.4652 363.308,-90.7559 332.8603,-79.1252"/>
<polygon fill="#191970" stroke="#191970" points="334.0702,-75.8408 323.4796,-75.5419 331.5723,-82.3799 334.0702,-75.8408"/>
</g>
<!-- Node28&#45;&gt;Node5 -->
<g id="edge43" class="edge">
<title>Node28&#45;&gt;Node5</title>
<path fill="none" stroke="#191970" d="M1004.7835,-235.2207C1002.2196,-221.9891 996.6827,-197.87 987.5,-179 978.8639,-161.2532 972.4274,-159.4354 961.5,-143 948.4308,-123.3431 934.4593,-100.1422 925.178,-84.3838"/>
<polygon fill="#191970" stroke="#191970" points="928.1274,-82.4942 920.0551,-75.632 922.0863,-86.0304 928.1274,-82.4942"/>
</g>
<!-- Node28&#45;&gt;Node27 -->
<g id="edge58" class="edge">
<title>Node28&#45;&gt;Node27</title>
<path fill="none" stroke="#191970" d="M946.1701,-235.4639C893.1388,-226.8204 813.9628,-213.2814 745.5,-199 641.6627,-177.3395 616.0566,-170.0831 513.5,-143 509.6837,-141.9922 505.7245,-140.9157 501.763,-139.8174"/>
<polygon fill="#191970" stroke="#191970" points="502.5651,-136.4072 491.991,-137.069 500.6699,-143.1458 502.5651,-136.4072"/>
</g>
<!-- Node29 -->
<g id="node30" class="node">
<title>Node29</title>
<polygon fill="none" stroke="#bfbfbf" points="970.5,-118 970.5,-137 1012.5,-137 1012.5,-118 970.5,-118"/>
<text text-anchor="middle" x="991.5" y="-125" font-family="Helvetica,sans-Serif" font-size="10.00" fill="#000000">array</text>
</g>
<!-- Node28&#45;&gt;Node29 -->
<g id="edge44" class="edge">
<title>Node28&#45;&gt;Node29</title>
<path fill="none" stroke="#191970" d="M1011.4801,-235.0914C1017.3438,-222.1201 1025.6691,-198.7147 1020.5,-179 1017.3771,-167.0893 1010.8098,-155.029 1004.7135,-145.5764"/>
<polygon fill="#191970" stroke="#191970" points="1007.4502,-143.3777 998.9191,-137.0952 1001.6704,-147.3266 1007.4502,-143.3777"/>
</g>
<!-- Node30 -->
<g id="node31" class="node">
<title>Node30</title>
<polygon fill="none" stroke="#bfbfbf" points="1482,-56.5 1482,-75.5 1529,-75.5 1529,-56.5 1482,-56.5"/>
<text text-anchor="middle" x="1505.5" y="-63.5" font-family="Helvetica,sans-Serif" font-size="10.00" fill="#000000">vector</text>
</g>
<!-- Node28&#45;&gt;Node30 -->
<g id="edge45" class="edge">
<title>Node28&#45;&gt;Node30</title>
<path fill="none" stroke="#191970" d="M1091.2069,-237.2612C1254.0399,-221.5263 1597.7949,-183.8176 1632.5,-143 1662.8429,-107.3129 1586.163,-83.4992 1539.0766,-72.679"/>
<polygon fill="#191970" stroke="#191970" points="1539.7632,-69.2463 1529.2437,-70.5075 1538.2536,-76.0816 1539.7632,-69.2463"/>
</g>
<!-- Node31 -->
<g id="node32" class="node">
<title>Node31</title>
<polygon fill="none" stroke="#bfbfbf" points="1605.5,-56.5 1605.5,-75.5 1653.5,-75.5 1653.5,-56.5 1605.5,-56.5"/>
<text text-anchor="middle" x="1629.5" y="-63.5" font-family="Helvetica,sans-Serif" font-size="10.00" fill="#000000">gsl/gsl</text>
</g>
<!-- Node28&#45;&gt;Node31 -->
<g id="edge46" class="edge">
<title>Node28&#45;&gt;Node31</title>
<path fill="none" stroke="#191970" d="M1091.2164,-242.6094C1187.0967,-238.5695 1347.5035,-227.7654 1482.5,-199 1559.0652,-182.6853 1603.7835,-206.5484 1649.5,-143 1661.9061,-125.7548 1652.1844,-101.4357 1642.4464,-84.7686"/>
<polygon fill="#191970" stroke="#191970" points="1645.1768,-82.5373 1636.878,-75.9508 1639.2581,-86.2749 1645.1768,-82.5373"/>
</g>
<!-- Node32 -->
<g id="node33" class="node">
<title>Node32</title>
<g id="a_node33"><a xlink:href="../../dd/dc6/GPUSettings_8h.html" target="_top" xlink:title="GPUSettings.h">
<polygon fill="none" stroke="#000000" points="250.5,-179.5 250.5,-198.5 336.5,-198.5 336.5,-179.5 250.5,-179.5"/>
<text text-anchor="middle" x="293.5" y="-186.5" font-family="Helvetica,sans-Serif" font-size="10.00" fill="#000000">GPUSettings.h</text>
</a>
</g>
</g>
<!-- Node28&#45;&gt;Node32 -->
<g id="edge47" class="edge">
<title>Node28&#45;&gt;Node32</title>
<path fill="none" stroke="#191970" d="M921.9194,-242.3759C797.8581,-237.8017 559.1421,-226.2492 346.6631,-199.0054"/>
<polygon fill="#191970" stroke="#191970" points="346.9325,-195.5111 336.5654,-197.6962 346.0323,-202.453 346.9325,-195.5111"/>
</g>
<!-- Node33 -->
<g id="node34" class="node">
<title>Node33</title>
<g id="a_node34"><a xlink:href="../../d4/d50/GPUDisplayConfig_8h.html" target="_top" xlink:title="GPUDisplayConfig.h">
<polygon fill="none" stroke="#000000" points="864.5,-179.5 864.5,-198.5 978.5,-198.5 978.5,-179.5 864.5,-179.5"/>
<text text-anchor="middle" x="921.5" y="-186.5" font-family="Helvetica,sans-Serif" font-size="10.00" fill="#000000">GPUDisplayConfig.h</text>
</a>
</g>
</g>
<!-- Node28&#45;&gt;Node33 -->
<g id="edge49" class="edge">
<title>Node28&#45;&gt;Node33</title>
<path fill="none" stroke="#191970" d="M991.6941,-235.2455C978.7744,-226.7337 959.8069,-214.2375 944.8448,-204.3801"/>
<polygon fill="#191970" stroke="#191970" points="946.4124,-201.2216 936.1362,-198.6427 942.5613,-207.067 946.4124,-201.2216"/>
</g>
<!-- Node36 -->
<g id="node37" class="node">
<title>Node36</title>
<g id="a_node37"><a xlink:href="../../d8/d93/GPUQAConfig_8h.html" target="_top" xlink:title="GPUQAConfig.h">
<polygon fill="none" stroke="#000000" points="754.5,-179.5 754.5,-198.5 846.5,-198.5 846.5,-179.5 754.5,-179.5"/>
<text text-anchor="middle" x="800.5" y="-186.5" font-family="Helvetica,sans-Serif" font-size="10.00" fill="#000000">GPUQAConfig.h</text>
</a>
</g>
</g>
<!-- Node28&#45;&gt;Node36 -->
<g id="edge55" class="edge">
<title>Node28&#45;&gt;Node36</title>
<path fill="none" stroke="#191970" d="M971.0873,-235.3733C936.2395,-225.9001 882.9118,-211.4032 845.1707,-201.1435"/>
<polygon fill="#191970" stroke="#191970" points="846.0185,-197.747 835.4506,-198.5011 844.1822,-204.5019 846.0185,-197.747"/>
</g>
<!-- Node37 -->
<g id="node38" class="node">
<title>Node37</title>
<g id="a_node38"><a xlink:href="../../d6/d20/GPUHostDataTypes_8h.html" target="_top" xlink:title="GPUHostDataTypes.h">
<polygon fill="none" stroke="#000000" points="1072.5,-179.5 1072.5,-198.5 1192.5,-198.5 1192.5,-179.5 1072.5,-179.5"/>
<text text-anchor="middle" x="1132.5" y="-186.5" font-family="Helvetica,sans-Serif" font-size="10.00" fill="#000000">GPUHostDataTypes.h</text>
</a>
</g>
</g>
<!-- Node28&#45;&gt;Node37 -->
<g id="edge59" class="edge">
<title>Node28&#45;&gt;Node37</title>
<path fill="none" stroke="#191970" d="M1028.1602,-235.3733C1048.4772,-226.3435 1079.064,-212.7494 1101.875,-202.6111"/>
<polygon fill="#191970" stroke="#191970" points="1103.4059,-205.7609 1111.1225,-198.5011 1100.5628,-199.3642 1103.4059,-205.7609"/>
</g>
<!-- Node39 -->
<g id="node40" class="node">
<title>Node39</title>
<g id="a_node40"><a xlink:href="../../d0/dda/DataFormats_2Detectors_2TPC_2include_2DataFormatsTPC_2Constants_8h.html" target="_top" xlink:title="DataFormatsTPC/Constants.h">
<polygon fill="none" stroke="#000000" points="1464,-118 1464,-137 1623,-137 1623,-118 1464,-118"/>
<text text-anchor="middle" x="1543.5" y="-125" font-family="Helvetica,sans-Serif" font-size="10.00" fill="#000000">DataFormatsTPC/Constants.h</text>
</a>
</g>
</g>
<!-- Node28&#45;&gt;Node39 -->
<g id="edge78" class="edge">
<title>Node28&#45;&gt;Node39</title>
<path fill="none" stroke="#191970" d="M1049.9901,-235.484C1147.5915,-214.128 1383.8151,-162.4404 1490.1076,-139.1827"/>
<polygon fill="#191970" stroke="#191970" points="1490.9586,-142.5794 1499.9793,-137.0227 1489.4623,-135.7412 1490.9586,-142.5794"/>
</g>
<!-- Node32&#45;&gt;Node22 -->
<g id="edge48" class="edge">
<title>Node32&#45;&gt;Node22</title>
<path fill="none" stroke="#191970" d="M257.3494,-179.4581C216.7931,-168.7533 150.9069,-151.3628 106.6593,-139.6837"/>
<polygon fill="#191970" stroke="#191970" points="107.2975,-136.2323 96.7354,-137.0643 105.511,-143.0005 107.2975,-136.2323"/>
</g>
<!-- Node33&#45;&gt;Node9 -->
<g id="edge50" class="edge">
<title>Node33&#45;&gt;Node9</title>
<path fill="none" stroke="#191970" d="M864.2684,-180.2885C861.3034,-179.8497 858.367,-179.418 855.5,-179 741.3692,-162.3607 705.982,-184.8369 598.5,-143 575.8677,-134.1905 575.9548,-121.2525 553.5,-112 491.5007,-86.4532 415.2464,-75.0609 362.3582,-70.0009"/>
<polygon fill="#191970" stroke="#191970" points="362.3785,-66.4885 352.1033,-69.0711 361.7463,-73.4599 362.3785,-66.4885"/>
</g>
<!-- Node34 -->
<g id="node35" class="node">
<title>Node34</title>
<g id="a_node35"><a xlink:href="../../da/d08/qconfig_8h.html" target="_top" xlink:title="utils/qconfig.h">
<polygon fill="none" stroke="#000000" points="811,-118 811,-137 896,-137 896,-118 811,-118"/>
<text text-anchor="middle" x="853.5" y="-125" font-family="Helvetica,sans-Serif" font-size="10.00" fill="#000000">utils/qconfig.h</text>
</a>
</g>
</g>
<!-- Node33&#45;&gt;Node34 -->
<g id="edge51" class="edge">
<title>Node33&#45;&gt;Node34</title>
<path fill="none" stroke="#191970" d="M910.875,-179.3906C900.4569,-169.9683 884.3636,-155.4134 871.8696,-144.1137"/>
<polygon fill="#191970" stroke="#191970" points="874.0392,-141.3568 864.2748,-137.2449 869.3438,-146.5484 874.0392,-141.3568"/>
</g>
<!-- Node34&#45;&gt;Node30 -->
<g id="edge52" class="edge">
<title>Node34&#45;&gt;Node30</title>
<path fill="none" stroke="#191970" d="M896.2449,-120.639C916.0543,-117.6463 939.9339,-114.3027 961.5,-112 1185.0054,-88.1354 1247.5171,-117.4243 1471.7801,-75.9481"/>
<polygon fill="#191970" stroke="#191970" points="1472.7073,-79.3353 1481.8903,-74.051 1471.4163,-72.4553 1472.7073,-79.3353"/>
</g>
<!-- Node34&#45;&gt;Node34 -->
<g id="edge54" class="edge">
<title>Node34&#45;&gt;Node34</title>
<path fill="none" stroke="#191970" d="M875.8388,-137.0334C894.5005,-141.1075 914,-137.9297 914,-127.5 914,-118.9444 900.8785,-115.2687 885.8618,-116.4729"/>
<polygon fill="#191970" stroke="#191970" points="885.2136,-113.0307 875.8388,-117.9666 886.2455,-119.9542 885.2136,-113.0307"/>
</g>
<!-- Node35 -->
<g id="node36" class="node">
<title>Node35</title>
<g id="a_node36"><a xlink:href="../../d8/de9/qconfigoptions_8h.html" target="_top" xlink:title="qconfigoptions.h">
<polygon fill="none" stroke="#000000" points="770,-56.5 770,-75.5 867,-75.5 867,-56.5 770,-56.5"/>
<text text-anchor="middle" x="818.5" y="-63.5" font-family="Helvetica,sans-Serif" font-size="10.00" fill="#000000">qconfigoptions.h</text>
</a>
</g>
</g>
<!-- Node34&#45;&gt;Node35 -->
<g id="edge53" class="edge">
<title>Node34&#45;&gt;Node35</title>
<path fill="none" stroke="#191970" d="M848.0313,-117.8906C842.9754,-109.0068 835.3228,-95.5601 829.0746,-84.5811"/>
<polygon fill="#191970" stroke="#191970" points="832.034,-82.7048 824.0459,-75.7449 825.9502,-86.1672 832.034,-82.7048"/>
</g>
<!-- Node36&#45;&gt;Node9 -->
<g id="edge56" class="edge">
<title>Node36&#45;&gt;Node9</title>
<path fill="none" stroke="#191970" d="M754.091,-186.0779C704.4287,-181.6067 624.1987,-170.4588 560.5,-143 538.8648,-133.6737 539.052,-121.5171 517.5,-112 467.8781,-90.0876 407.2389,-78.394 362.3611,-72.2906"/>
<polygon fill="#191970" stroke="#191970" points="362.5417,-68.7847 352.1735,-70.964 361.6377,-75.7261 362.5417,-68.7847"/>
</g>
<!-- Node36&#45;&gt;Node34 -->
<g id="edge57" class="edge">
<title>Node36&#45;&gt;Node34</title>
<path fill="none" stroke="#191970" d="M808.7813,-179.3906C816.6693,-170.2376 828.7314,-156.2409 838.3412,-145.09"/>
<polygon fill="#191970" stroke="#191970" points="841.2251,-147.1049 845.102,-137.2449 835.9225,-142.5352 841.2251,-147.1049"/>
</g>
<!-- Node37&#45;&gt;Node5 -->
<g id="edge63" class="edge">
<title>Node37&#45;&gt;Node5</title>
<path fill="none" stroke="#191970" d="M1116.4593,-179.4081C1101.6592,-170.4053 1079.2116,-156.3602 1060.5,-143 1042.4799,-130.1335 1040.505,-123.3615 1021.5,-112 999.4755,-98.8334 972.9935,-87.4169 951.8853,-79.2508"/>
<polygon fill="#191970" stroke="#191970" points="952.8914,-75.8893 942.2999,-75.6215 950.4127,-82.4358 952.8914,-75.8893"/>
</g>
<!-- Node37&#45;&gt;Node9 -->
<g id="edge60" class="edge">
<title>Node37&#45;&gt;Node9</title>
<path fill="none" stroke="#191970" d="M1072.3313,-185.039C965.1192,-177.6436 745.2736,-160.86 670.5,-143 633.4116,-134.1413 627.3208,-121.9122 590.5,-112 513.3223,-91.2237 421.9784,-78.7016 362.2683,-72.0801"/>
<polygon fill="#191970" stroke="#191970" points="362.5514,-68.5903 352.2319,-70.9897 361.7953,-75.5494 362.5514,-68.5903"/>
</g>
<!-- Node37&#45;&gt;Node29 -->
<g id="edge62" class="edge">
<title>Node37&#45;&gt;Node29</title>
<path fill="none" stroke="#191970" d="M1110.1451,-179.3563C1088.6782,-170.082 1055.3454,-155.6459 1026.5,-143 1024.9518,-142.3213 1023.3657,-141.6244 1021.7645,-140.9196"/>
<polygon fill="#191970" stroke="#191970" points="1023.1498,-137.7053 1012.5879,-136.8694 1020.3232,-144.1093 1023.1498,-137.7053"/>
</g>
<!-- Node37&#45;&gt;Node30 -->
<g id="edge61" class="edge">
<title>Node37&#45;&gt;Node30</title>
<path fill="none" stroke="#191970" d="M1192.755,-183.2163C1264.2511,-175.6725 1378.6623,-161.2569 1417.5,-143 1425.5939,-139.1952 1464.2437,-104.142 1487.5465,-82.6641"/>
<polygon fill="#191970" stroke="#191970" points="1490.1058,-85.0647 1495.0737,-75.7068 1485.3544,-79.9242 1490.1058,-85.0647"/>
</g>
<!-- Node38 -->
<g id="node39" class="node">
<title>Node38</title>
<polygon fill="none" stroke="#bfbfbf" points="1214.5,-118 1214.5,-137 1262.5,-137 1262.5,-118 1214.5,-118"/>
<text text-anchor="middle" x="1238.5" y="-125" font-family="Helvetica,sans-Serif" font-size="10.00" fill="#000000">mutex</text>
</g>
<!-- Node37&#45;&gt;Node38 -->
<g id="edge64" class="edge">
<title>Node37&#45;&gt;Node38</title>
<path fill="none" stroke="#191970" d="M1149.0625,-179.3906C1166.2537,-169.4165 1193.3582,-153.6908 1213.2266,-142.1633"/>
<polygon fill="#191970" stroke="#191970" points="1215.1606,-145.0877 1222.0538,-137.0419 1211.6477,-139.033 1215.1606,-145.0877"/>
</g>
<!-- Node37&#45;&gt;Node39 -->
<g id="edge65" class="edge">
<title>Node37&#45;&gt;Node39</title>
<path fill="none" stroke="#191970" d="M1192.6339,-180.6937C1256.6218,-171.7634 1360.7933,-156.9621 1450.5,-143 1459.196,-141.6465 1468.3414,-140.1779 1477.3639,-138.7022"/>
<polygon fill="#191970" stroke="#191970" points="1478.1693,-142.1168 1487.4679,-137.0388 1477.0322,-135.2097 1478.1693,-142.1168"/>
</g>
<!-- Node40 -->
<g id="node41" class="node">
<title>Node40</title>
<g id="a_node41"><a xlink:href="../../db/d14/MCTruthContainer_8h.html" target="_top" xlink:title="Definition of a container to keep Monte Carlo truth external to simulation objects. ">
<polygon fill="none" stroke="#000000" points="1281,-112.5 1281,-142.5 1408,-142.5 1408,-112.5 1281,-112.5"/>
<text text-anchor="start" x="1289" y="-130.5" font-family="Helvetica,sans-Serif" font-size="10.00" fill="#000000">SimulationDataFormat</text>
<text text-anchor="middle" x="1344.5" y="-119.5" font-family="Helvetica,sans-Serif" font-size="10.00" fill="#000000">/MCTruthContainer.h</text>
</a>
</g>
</g>
<!-- Node37&#45;&gt;Node40 -->
<g id="edge66" class="edge">
<title>Node37&#45;&gt;Node40</title>
<path fill="none" stroke="#191970" d="M1165.625,-179.3906C1196.8404,-170.3352 1244.398,-156.539 1282.631,-145.4479"/>
<polygon fill="#191970" stroke="#191970" points="1284.0101,-148.6922 1292.639,-142.5446 1282.0598,-141.9693 1284.0101,-148.6922"/>
</g>
<!-- Node44 -->
<g id="node45" class="node">
<title>Node44</title>
<g id="a_node45"><a xlink:href="../../d7/dcd/MCCompLabel_8h.html" target="_top" xlink:title="SimulationDataFormat\l/MCCompLabel.h">
<polygon fill="none" stroke="#000000" points="1069,-112.5 1069,-142.5 1196,-142.5 1196,-112.5 1069,-112.5"/>
<text text-anchor="start" x="1077" y="-130.5" font-family="Helvetica,sans-Serif" font-size="10.00" fill="#000000">SimulationDataFormat</text>
<text text-anchor="middle" x="1132.5" y="-119.5" font-family="Helvetica,sans-Serif" font-size="10.00" fill="#000000">/MCCompLabel.h</text>
</a>
</g>
</g>
<!-- Node37&#45;&gt;Node44 -->
<g id="edge76" class="edge">
<title>Node37&#45;&gt;Node44</title>
<path fill="none" stroke="#191970" d="M1132.5,-179.3906C1132.5,-172.2234 1132.5,-162.0862 1132.5,-152.671"/>
<polygon fill="#191970" stroke="#191970" points="1136.0001,-152.5446 1132.5,-142.5446 1129.0001,-152.5446 1136.0001,-152.5446"/>
</g>
<!-- Node40&#45;&gt;Node5 -->
<g id="edge74" class="edge">
<title>Node40&#45;&gt;Node5</title>
<path fill="none" stroke="#191970" d="M1280.867,-113.6098C1277.7048,-113.0386 1274.5694,-112.4978 1271.5,-112 1133.8262,-89.6693 1094.5022,-101.6552 953.7297,-76.0054"/>
<polygon fill="#191970" stroke="#191970" points="954.3334,-72.5577 943.863,-74.1768 953.0578,-79.4405 954.3334,-72.5577"/>
</g>
<!-- Node40&#45;&gt;Node6 -->
<g id="edge73" class="edge">
<title>Node40&#45;&gt;Node6</title>
<path fill="none" stroke="#191970" d="M1280.8473,-113.7255C1277.6903,-113.1237 1274.5614,-112.5448 1271.5,-112 1160.9793,-92.3314 1131.2756,-99.4734 1021.5,-76 1021.3996,-75.9785 1021.299,-75.9569 1021.1983,-75.9352"/>
<polygon fill="#191970" stroke="#191970" points="1022.1752,-72.5706 1011.6325,-73.6208 1020.529,-79.3743 1022.1752,-72.5706"/>
</g>
<!-- Node40&#45;&gt;Node7 -->
<g id="edge69" class="edge">
<title>Node40&#45;&gt;Node7</title>
<path fill="none" stroke="#191970" d="M1309.029,-112.4554C1285.2598,-102.374 1254.232,-89.2139 1231.2715,-79.4755"/>
<polygon fill="#191970" stroke="#191970" points="1232.5427,-76.2129 1221.9699,-75.5303 1229.8094,-82.6572 1232.5427,-76.2129"/>
</g>
<!-- Node40&#45;&gt;Node12 -->
<g id="edge67" class="edge">
<title>Node40&#45;&gt;Node12</title>
<path fill="none" stroke="#191970" d="M1282.8539,-112.4554C1239.3317,-101.8339 1181.8067,-87.7951 1141.4283,-77.9408"/>
<polygon fill="#191970" stroke="#191970" points="1142.0958,-74.5011 1131.5511,-75.5303 1140.4361,-81.3015 1142.0958,-74.5011"/>
</g>
<!-- Node40&#45;&gt;Node30 -->
<g id="edge75" class="edge">
<title>Node40&#45;&gt;Node30</title>
<path fill="none" stroke="#191970" d="M1383.885,-112.4554C1411.0058,-102.0956 1446.6373,-88.4848 1472.3137,-78.6768"/>
<polygon fill="#191970" stroke="#191970" points="1473.8767,-81.8264 1481.9694,-74.9884 1471.3788,-75.2873 1473.8767,-81.8264"/>
</g>
<!-- Node40&#45;&gt;Node31 -->
<g id="edge71" class="edge">
<title>Node40&#45;&gt;Node31</title>
<path fill="none" stroke="#191970" d="M1408.1048,-113.7747C1466.0623,-101.2681 1549.4451,-83.275 1595.5725,-73.3212"/>
<polygon fill="#191970" stroke="#191970" points="1596.3352,-76.7373 1605.372,-71.2066 1594.8587,-69.8947 1596.3352,-76.7373"/>
</g>
<!-- Node41 -->
<g id="node42" class="node">
<title>Node41</title>
<polygon fill="none" stroke="#bfbfbf" points="1243.5,-56.5 1243.5,-75.5 1293.5,-75.5 1293.5,-56.5 1243.5,-56.5"/>
<text text-anchor="middle" x="1268.5" y="-63.5" font-family="Helvetica,sans-Serif" font-size="10.00" fill="#000000">cstdint</text>
</g>
<!-- Node40&#45;&gt;Node41 -->
<g id="edge68" class="edge">
<title>Node40&#45;&gt;Node41</title>
<path fill="none" stroke="#191970" d="M1325.7135,-112.2977C1314.3947,-103.1384 1299.9895,-91.4816 1288.4654,-82.1562"/>
<polygon fill="#191970" stroke="#191970" points="1290.6439,-79.4167 1280.6686,-75.8469 1286.2405,-84.8583 1290.6439,-79.4167"/>
</g>
<!-- Node42 -->
<g id="node43" class="node">
<title>Node42</title>
<polygon fill="none" stroke="#bfbfbf" points="1312,-56.5 1312,-75.5 1377,-75.5 1377,-56.5 1312,-56.5"/>
<text text-anchor="middle" x="1344.5" y="-63.5" font-family="Helvetica,sans-Serif" font-size="10.00" fill="#000000">stdexcept</text>
</g>
<!-- Node40&#45;&gt;Node42 -->
<g id="edge70" class="edge">
<title>Node40&#45;&gt;Node42</title>
<path fill="none" stroke="#191970" d="M1344.5,-112.2977C1344.5,-104.3834 1344.5,-94.6043 1344.5,-86.0759"/>
<polygon fill="#191970" stroke="#191970" points="1348.0001,-85.8469 1344.5,-75.8469 1341.0001,-85.847 1348.0001,-85.8469"/>
</g>
<!-- Node43 -->
<g id="node44" class="node">
<title>Node43</title>
<polygon fill="none" stroke="#bfbfbf" points="1395,-56.5 1395,-75.5 1464,-75.5 1464,-56.5 1395,-56.5"/>
<text text-anchor="middle" x="1429.5" y="-63.5" font-family="Helvetica,sans-Serif" font-size="10.00" fill="#000000">type_traits</text>
</g>
<!-- Node40&#45;&gt;Node43 -->
<g id="edge72" class="edge">
<title>Node40&#45;&gt;Node43</title>
<path fill="none" stroke="#191970" d="M1365.5112,-112.2977C1378.2934,-103.0495 1394.5946,-91.2551 1407.5448,-81.8853"/>
<polygon fill="#191970" stroke="#191970" points="1409.8403,-84.5445 1415.8904,-75.8469 1405.737,-78.8732 1409.8403,-84.5445"/>
</g>
<!-- Node44&#45;&gt;Node12 -->
<g id="edge77" class="edge">
<title>Node44&#45;&gt;Node12</title>
<path fill="none" stroke="#191970" d="M1122.6124,-112.2977C1117.1178,-103.8498 1110.2414,-93.2773 1104.4473,-84.369"/>
<polygon fill="#191970" stroke="#191970" points="1107.2908,-82.3215 1098.9045,-75.8469 1101.4228,-86.1381 1107.2908,-82.3215"/>
</g>
</g>
</svg>
