<?xml version="1.0" encoding="UTF-8" standalone="no"?>
<!DOCTYPE svg PUBLIC "-//W3C//DTD SVG 1.1//EN"
 "http://www.w3.org/Graphics/SVG/1.1/DTD/svg11.dtd">
<!-- Generated by graphviz version 2.40.1 (20161225.0304)
 -->
<!-- Title: /home/travis/build/AliceO2Group/AliceO2/Detectors/TPC/base/src/Digit.cxx Pages: 1 -->
<svg width="229pt" height="285pt"
 viewBox="0.00 0.00 228.50 285.00" xmlns="http://www.w3.org/2000/svg" xmlns:xlink="http://www.w3.org/1999/xlink">
<g id="graph0" class="graph" transform="scale(1 1) rotate(0) translate(4 281)">
<title>/home/travis/build/AliceO2Group/AliceO2/Detectors/TPC/base/src/Digit.cxx</title>
<!-- Node0 -->
<g id="node1" class="node">
<title>Node0</title>
<polygon fill="#bfbfbf" stroke="#000000" points="0,-224.5 0,-276.5 132,-276.5 132,-224.5 0,-224.5"/>
<text text-anchor="start" x="8" y="-264.5" font-family="Helvetica,sans-Serif" font-size="10.00" fill="#000000">/home/travis/build</text>
<text text-anchor="start" x="8" y="-253.5" font-family="Helvetica,sans-Serif" font-size="10.00" fill="#000000">/AliceO2Group/AliceO2</text>
<text text-anchor="start" x="8" y="-242.5" font-family="Helvetica,sans-Serif" font-size="10.00" fill="#000000">/Detectors/TPC/base/src</text>
<text text-anchor="middle" x="66" y="-231.5" font-family="Helvetica,sans-Serif" font-size="10.00" fill="#000000">/Digit.cxx</text>
</g>
<!-- Node1 -->
<g id="node2" class="node">
<title>Node1</title>
<g id="a_node2"><a xlink:href="../../d0/d4f/Detectors_2TPC_2base_2include_2TPCBase_2Digit_8h.html" target="_top" xlink:title="TPCBase/Digit.h">
<polygon fill="none" stroke="#000000" points="18.5,-168.5 18.5,-187.5 113.5,-187.5 113.5,-168.5 18.5,-168.5"/>
<text text-anchor="middle" x="66" y="-175.5" font-family="Helvetica,sans-Serif" font-size="10.00" fill="#000000">TPCBase/Digit.h</text>
</a>
</g>
</g>
<!-- Node0&#45;&gt;Node1 -->
<g id="edge1" class="edge">
<title>Node0&#45;&gt;Node1</title>
<path fill="none" stroke="#191970" d="M66,-224.3258C66,-215.5142 66,-205.8397 66,-197.621"/>
<polygon fill="#191970" stroke="#191970" points="69.5001,-197.534 66,-187.534 62.5001,-197.534 69.5001,-197.534"/>
</g>
<!-- Node2 -->
<g id="node3" class="node">
<title>Node2</title>
<g id="a_node3"><a xlink:href="../../d2/d45/GPUCommonRtypes_8h.html" target="_top" xlink:title="GPUCommonRtypes.h">
<polygon fill="none" stroke="#000000" points="3.5,-56.5 3.5,-75.5 128.5,-75.5 128.5,-56.5 3.5,-56.5"/>
<text text-anchor="middle" x="66" y="-63.5" font-family="Helvetica,sans-Serif" font-size="10.00" fill="#000000">GPUCommonRtypes.h</text>
</a>
</g>
</g>
<!-- Node1&#45;&gt;Node2 -->
<g id="edge2" class="edge">
<title>Node1&#45;&gt;Node2</title>
<path fill="none" stroke="#191970" d="M53.2752,-168.2466C43.4593,-159.8582 30.6367,-146.7955 25,-132 18.0952,-113.8757 31.8797,-95.2908 45.2916,-82.48"/>
<polygon fill="#191970" stroke="#191970" points="47.8298,-84.907 52.986,-75.6515 43.1834,-79.6714 47.8298,-84.907"/>
</g>
<!-- Node4 -->
<g id="node5" class="node">
<title>Node4</title>
<g id="a_node5"><a xlink:href="../../df/d5d/common_2include_2CommonDataFormat_2TimeStamp_8h.html" target="_top" xlink:title="CommonDataFormat/TimeStamp.h">
<polygon fill="none" stroke="#000000" points="33.5,-112.5 33.5,-131.5 220.5,-131.5 220.5,-112.5 33.5,-112.5"/>
<text text-anchor="middle" x="127" y="-119.5" font-family="Helvetica,sans-Serif" font-size="10.00" fill="#000000">CommonDataFormat/TimeStamp.h</text>
</a>
</g>
</g>
<!-- Node1&#45;&gt;Node4 -->
<g id="edge4" class="edge">
<title>Node1&#45;&gt;Node4</title>
<path fill="none" stroke="#191970" d="M76.6254,-168.2455C85.5473,-160.0549 98.488,-148.1749 109.0192,-138.5069"/>
<polygon fill="#191970" stroke="#191970" points="111.4968,-140.9837 116.4964,-131.6427 106.7629,-135.8271 111.4968,-140.9837"/>
</g>
<!-- Node3 -->
<g id="node4" class="node">
<title>Node3</title>
<polygon fill="none" stroke="#bfbfbf" points="36.5,-.5 36.5,-19.5 95.5,-19.5 95.5,-.5 36.5,-.5"/>
<text text-anchor="middle" x="66" y="-7.5" font-family="Helvetica,sans-Serif" font-size="10.00" fill="#000000">Rtypes.h</text>
</g>
<!-- Node2&#45;&gt;Node3 -->
<g id="edge3" class="edge">
<title>Node2&#45;&gt;Node3</title>
<path fill="none" stroke="#191970" d="M66,-56.2455C66,-48.9382 66,-38.6944 66,-29.7046"/>
<polygon fill="#191970" stroke="#191970" points="69.5001,-29.6426 66,-19.6427 62.5001,-29.6427 69.5001,-29.6426"/>
</g>
<!-- Node4&#45;&gt;Node2 -->
<g id="edge5" class="edge">
<title>Node4&#45;&gt;Node2</title>
<path fill="none" stroke="#191970" d="M116.3746,-112.2455C107.4527,-104.0549 94.512,-92.1749 83.9808,-82.5069"/>
<polygon fill="#191970" stroke="#191970" points="86.2371,-79.8271 76.5036,-75.6427 81.5032,-84.9837 86.2371,-79.8271"/>
</g>
</g>
</svg>
