<?xml version="1.0" encoding="UTF-8" standalone="no"?>
<!DOCTYPE svg PUBLIC "-//W3C//DTD SVG 1.1//EN"
 "http://www.w3.org/Graphics/SVG/1.1/DTD/svg11.dtd">
<!-- Generated by graphviz version 2.40.1 (20161225.0304)
 -->
<!-- Title: /home/travis/build/AliceO2Group/AliceO2/DataFormats/Detectors/EMCAL/include/DataFormatsEMCAL/EventHandler.h Pages: 1 -->
<svg width="1515pt" height="374pt"
 viewBox="0.00 0.00 1515.00 374.00" xmlns="http://www.w3.org/2000/svg" xmlns:xlink="http://www.w3.org/1999/xlink">
<g id="graph0" class="graph" transform="scale(1 1) rotate(0) translate(4 370)">
<title>/home/travis/build/AliceO2Group/AliceO2/DataFormats/Detectors/EMCAL/include/DataFormatsEMCAL/EventHandler.h</title>
<!-- Node0 -->
<g id="node1" class="node">
<title>Node0</title>
<polygon fill="#bfbfbf" stroke="#000000" points="647,-302.5 647,-365.5 837,-365.5 837,-302.5 647,-302.5"/>
<text text-anchor="start" x="655" y="-353.5" font-family="Helvetica,sans-Serif" font-size="10.00" fill="#000000">/home/travis/build</text>
<text text-anchor="start" x="655" y="-342.5" font-family="Helvetica,sans-Serif" font-size="10.00" fill="#000000">/AliceO2Group/AliceO2</text>
<text text-anchor="start" x="655" y="-331.5" font-family="Helvetica,sans-Serif" font-size="10.00" fill="#000000">/DataFormats/Detectors</text>
<text text-anchor="start" x="655" y="-320.5" font-family="Helvetica,sans-Serif" font-size="10.00" fill="#000000">/EMCAL/include/DataFormatsEMCAL</text>
<text text-anchor="middle" x="742" y="-309.5" font-family="Helvetica,sans-Serif" font-size="10.00" fill="#000000">/EventHandler.h</text>
</g>
<!-- Node1 -->
<g id="node2" class="node">
<title>Node1</title>
<polygon fill="none" stroke="#bfbfbf" points="230.5,-56.5 230.5,-75.5 295.5,-75.5 295.5,-56.5 230.5,-56.5"/>
<text text-anchor="middle" x="263" y="-63.5" font-family="Helvetica,sans-Serif" font-size="10.00" fill="#000000">exception</text>
</g>
<!-- Node0&#45;&gt;Node1 -->
<g id="edge1" class="edge">
<title>Node0&#45;&gt;Node1</title>
<path fill="none" stroke="#191970" d="M646.802,-321.8684C475.6118,-297.8582 127.0597,-238.2153 57,-143 48.8345,-131.9026 48.3844,-122.7517 57,-112 77.0744,-86.9486 166.1636,-74.6409 220.3961,-69.3676"/>
<polygon fill="#191970" stroke="#191970" points="220.7873,-72.8464 230.4197,-68.4341 220.1382,-65.8765 220.7873,-72.8464"/>
</g>
<!-- Node2 -->
<g id="node3" class="node">
<title>Node2</title>
<polygon fill="none" stroke="#bfbfbf" points="904.5,-246.5 904.5,-265.5 957.5,-265.5 957.5,-246.5 904.5,-246.5"/>
<text text-anchor="middle" x="931" y="-253.5" font-family="Helvetica,sans-Serif" font-size="10.00" fill="#000000">iterator</text>
</g>
<!-- Node0&#45;&gt;Node2 -->
<g id="edge2" class="edge">
<title>Node0&#45;&gt;Node2</title>
<path fill="none" stroke="#191970" d="M818.3287,-302.4992C846.2256,-290.9863 876.318,-278.5672 898.3801,-269.4622"/>
<polygon fill="#191970" stroke="#191970" points="900.0065,-272.5774 907.915,-265.5271 897.336,-266.1068 900.0065,-272.5774"/>
</g>
<!-- Node3 -->
<g id="node4" class="node">
<title>Node3</title>
<polygon fill="none" stroke="#bfbfbf" points="1080.5,-185 1080.5,-204 1137.5,-204 1137.5,-185 1080.5,-185"/>
<text text-anchor="middle" x="1109" y="-192" font-family="Helvetica,sans-Serif" font-size="10.00" fill="#000000">gsl/span</text>
</g>
<!-- Node0&#45;&gt;Node3 -->
<g id="edge3" class="edge">
<title>Node0&#45;&gt;Node3</title>
<path fill="none" stroke="#191970" d="M796.6693,-302.4951C839.8381,-277.6592 893.2716,-247.0284 896,-246 970.7109,-217.8398 995.7062,-233.5366 1072,-210 1074.1629,-209.3328 1076.3729,-208.5851 1078.5833,-207.7882"/>
<polygon fill="#191970" stroke="#191970" points="1080.0789,-210.9621 1088.1308,-204.0761 1077.5421,-204.4378 1080.0789,-210.9621"/>
</g>
<!-- Node4 -->
<g id="node5" class="node">
<title>Node4</title>
<polygon fill="none" stroke="#bfbfbf" points="466.5,-.5 466.5,-19.5 525.5,-19.5 525.5,-.5 466.5,-.5"/>
<text text-anchor="middle" x="496" y="-7.5" font-family="Helvetica,sans-Serif" font-size="10.00" fill="#000000">Rtypes.h</text>
</g>
<!-- Node0&#45;&gt;Node4 -->
<g id="edge4" class="edge">
<title>Node0&#45;&gt;Node4</title>
<path fill="none" stroke="#191970" d="M646.8938,-325.9276C446.6752,-307.6523 0,-259.5876 0,-194.5 0,-194.5 0,-194.5 0,-127.5 0,-33.8671 338.9125,-14.7441 456.4376,-10.9276"/>
<polygon fill="#191970" stroke="#191970" points="456.5696,-14.4253 466.4583,-10.6222 456.3563,-7.4285 456.5696,-14.4253"/>
</g>
<!-- Node5 -->
<g id="node6" class="node">
<title>Node5</title>
<polygon fill="none" stroke="#bfbfbf" points="975.5,-246.5 975.5,-265.5 1054.5,-265.5 1054.5,-246.5 975.5,-246.5"/>
<text text-anchor="middle" x="1015" y="-253.5" font-family="Helvetica,sans-Serif" font-size="10.00" fill="#000000">fmt/format.h</text>
</g>
<!-- Node0&#45;&gt;Node5 -->
<g id="edge5" class="edge">
<title>Node0&#45;&gt;Node5</title>
<path fill="none" stroke="#191970" d="M837.0989,-306.8289C882.9533,-293.7276 935.6926,-278.6592 971.7708,-268.3512"/>
<polygon fill="#191970" stroke="#191970" points="972.8316,-271.6882 981.4853,-265.5756 970.9085,-264.9576 972.8316,-271.6882"/>
</g>
<!-- Node6 -->
<g id="node7" class="node">
<title>Node6</title>
<g id="a_node7"><a xlink:href="../../d5/dd3/DataFormats_2Detectors_2EMCAL_2include_2DataFormatsEMCAL_2Cell_8h.html" target="_top" xlink:title="DataFormatsEMCAL/Cell.h">
<polygon fill="none" stroke="#000000" points="486.5,-185 486.5,-204 629.5,-204 629.5,-185 486.5,-185"/>
<text text-anchor="middle" x="558" y="-192" font-family="Helvetica,sans-Serif" font-size="10.00" fill="#000000">DataFormatsEMCAL/Cell.h</text>
</a>
</g>
</g>
<!-- Node0&#45;&gt;Node6 -->
<g id="edge6" class="edge">
<title>Node0&#45;&gt;Node6</title>
<path fill="none" stroke="#191970" d="M646.9939,-306.0393C625.2026,-296.1395 603.5925,-283.0656 587,-266 573.0398,-251.6418 565.4946,-229.6694 561.6328,-213.8725"/>
<polygon fill="#191970" stroke="#191970" points="565.0521,-213.1247 559.5142,-204.0924 558.2107,-214.6067 565.0521,-213.1247"/>
</g>
<!-- Node11 -->
<g id="node12" class="node">
<title>Node11</title>
<g id="a_node12"><a xlink:href="../../dc/d27/DataFormats_2Detectors_2EMCAL_2include_2DataFormatsEMCAL_2Cluster_8h.html" target="_top" xlink:title="DataFormatsEMCAL/Cluster.h">
<polygon fill="none" stroke="#000000" points="905,-185 905,-204 1063,-204 1063,-185 905,-185"/>
<text text-anchor="middle" x="984" y="-192" font-family="Helvetica,sans-Serif" font-size="10.00" fill="#000000">DataFormatsEMCAL/Cluster.h</text>
</a>
</g>
</g>
<!-- Node0&#45;&gt;Node11 -->
<g id="edge14" class="edge">
<title>Node0&#45;&gt;Node11</title>
<path fill="none" stroke="#191970" d="M780.1619,-302.449C803.0041,-284.4908 833.1261,-262.3826 862,-246 889.3617,-230.4754 922.3291,-216.8332 947.0921,-207.4965"/>
<polygon fill="#191970" stroke="#191970" points="948.3289,-210.7708 956.4875,-204.0116 945.8945,-204.2078 948.3289,-210.7708"/>
</g>
<!-- Node18 -->
<g id="node19" class="node">
<title>Node18</title>
<g id="a_node19"><a xlink:href="../../d3/d6e/DataFormats_2Detectors_2EMCAL_2include_2DataFormatsEMCAL_2Digit_8h.html" target="_top" xlink:title="DataFormatsEMCAL/Digit.h">
<polygon fill="none" stroke="#000000" points="281,-185 281,-204 429,-204 429,-185 281,-185"/>
<text text-anchor="middle" x="355" y="-192" font-family="Helvetica,sans-Serif" font-size="10.00" fill="#000000">DataFormatsEMCAL/Digit.h</text>
</a>
</g>
</g>
<!-- Node0&#45;&gt;Node18 -->
<g id="edge24" class="edge">
<title>Node0&#45;&gt;Node18</title>
<path fill="none" stroke="#191970" d="M654.1837,-302.3453C571.3337,-272.4807 451.1965,-229.1755 391.5036,-207.6583"/>
<polygon fill="#191970" stroke="#191970" points="392.3639,-204.248 381.7695,-204.1495 389.9901,-210.8332 392.3639,-204.248"/>
</g>
<!-- Node21 -->
<g id="node22" class="node">
<title>Node21</title>
<g id="a_node22"><a xlink:href="../../dd/df3/EventData_8h.html" target="_top" xlink:title="DataFormatsEMCAL/EventData.h">
<polygon fill="none" stroke="#000000" points="596,-246.5 596,-265.5 772,-265.5 772,-246.5 596,-246.5"/>
<text text-anchor="middle" x="684" y="-253.5" font-family="Helvetica,sans-Serif" font-size="10.00" fill="#000000">DataFormatsEMCAL/EventData.h</text>
</a>
</g>
</g>
<!-- Node0&#45;&gt;Node21 -->
<g id="edge31" class="edge">
<title>Node0&#45;&gt;Node21</title>
<path fill="none" stroke="#191970" d="M718.4092,-302.2744C711.2232,-292.6106 703.5779,-282.3289 697.3234,-273.9177"/>
<polygon fill="#191970" stroke="#191970" points="699.9458,-271.5787 691.1701,-265.6426 694.3286,-275.7557 699.9458,-271.5787"/>
</g>
<!-- Node24 -->
<g id="node25" class="node">
<title>Node24</title>
<g id="a_node25"><a xlink:href="../../d9/d38/EMCAL_2include_2DataFormatsEMCAL_2TriggerRecord_8h.html" target="_top" xlink:title="DataFormatsEMCAL/Trigger\lRecord.h">
<polygon fill="none" stroke="#000000" points="725.5,-179.5 725.5,-209.5 874.5,-209.5 874.5,-179.5 725.5,-179.5"/>
<text text-anchor="start" x="733.5" y="-197.5" font-family="Helvetica,sans-Serif" font-size="10.00" fill="#000000">DataFormatsEMCAL/Trigger</text>
<text text-anchor="middle" x="800" y="-186.5" font-family="Helvetica,sans-Serif" font-size="10.00" fill="#000000">Record.h</text>
</a>
</g>
</g>
<!-- Node0&#45;&gt;Node24 -->
<g id="edge41" class="edge">
<title>Node0&#45;&gt;Node24</title>
<path fill="none" stroke="#191970" d="M762.4322,-302.3612C769.0221,-291.1905 775.9265,-278.3345 781,-266 787.1516,-251.0443 791.8481,-233.5047 795.0328,-219.5404"/>
<polygon fill="#191970" stroke="#191970" points="798.4764,-220.175 797.1725,-209.6607 791.6351,-218.6933 798.4764,-220.175"/>
</g>
<!-- Node6&#45;&gt;Node4 -->
<g id="edge8" class="edge">
<title>Node6&#45;&gt;Node4</title>
<path fill="none" stroke="#191970" d="M550.8397,-184.7325C543.8174,-174.7215 533.2773,-158.4724 527,-143 511.3235,-104.3604 502.5553,-56.0385 498.6024,-29.5753"/>
<polygon fill="#191970" stroke="#191970" points="502.0663,-29.0737 497.1969,-19.6642 495.1357,-30.0566 502.0663,-29.0737"/>
</g>
<!-- Node7 -->
<g id="node8" class="node">
<title>Node7</title>
<polygon fill="none" stroke="#bfbfbf" points="536,-118 536,-137 580,-137 580,-118 536,-118"/>
<text text-anchor="middle" x="558" y="-125" font-family="Helvetica,sans-Serif" font-size="10.00" fill="#000000">bitset</text>
</g>
<!-- Node6&#45;&gt;Node7 -->
<g id="edge7" class="edge">
<title>Node6&#45;&gt;Node7</title>
<path fill="none" stroke="#191970" d="M558,-184.9005C558,-175.149 558,-159.7597 558,-147.3695"/>
<polygon fill="#191970" stroke="#191970" points="561.5001,-147.0816 558,-137.0817 554.5001,-147.0817 561.5001,-147.0816"/>
</g>
<!-- Node8 -->
<g id="node9" class="node">
<title>Node8</title>
<g id="a_node9"><a xlink:href="../../dd/dda/DataFormats_2Detectors_2EMCAL_2include_2DataFormatsEMCAL_2Constants_8h.html" target="_top" xlink:title="DataFormatsEMCAL/Constants.h">
<polygon fill="none" stroke="#000000" points="268.5,-118 268.5,-137 441.5,-137 441.5,-118 268.5,-118"/>
<text text-anchor="middle" x="355" y="-125" font-family="Helvetica,sans-Serif" font-size="10.00" fill="#000000">DataFormatsEMCAL/Constants.h</text>
</a>
</g>
</g>
<!-- Node6&#45;&gt;Node8 -->
<g id="edge9" class="edge">
<title>Node6&#45;&gt;Node8</title>
<path fill="none" stroke="#191970" d="M528.915,-184.9005C493.3396,-173.1589 432.9992,-153.2436 393.5755,-140.2318"/>
<polygon fill="#191970" stroke="#191970" points="394.6241,-136.8923 384.031,-137.0817 392.4302,-143.5396 394.6241,-136.8923"/>
</g>
<!-- Node8&#45;&gt;Node1 -->
<g id="edge12" class="edge">
<title>Node8&#45;&gt;Node1</title>
<path fill="none" stroke="#191970" d="M340.625,-117.8906C325.9069,-108.0519 302.8168,-92.6167 285.6411,-81.1351"/>
<polygon fill="#191970" stroke="#191970" points="287.5327,-78.1896 277.2741,-75.5419 283.6425,-84.0091 287.5327,-78.1896"/>
</g>
<!-- Node8&#45;&gt;Node4 -->
<g id="edge10" class="edge">
<title>Node8&#45;&gt;Node4</title>
<path fill="none" stroke="#191970" d="M349.1452,-117.639C341.1628,-102.7661 329.331,-74.383 343,-56 356.6173,-37.6865 415.9451,-23.9102 456.5924,-16.405"/>
<polygon fill="#191970" stroke="#191970" points="457.2586,-19.8414 466.4848,-14.633 456.0243,-12.9511 457.2586,-19.8414"/>
</g>
<!-- Node9 -->
<g id="node10" class="node">
<title>Node9</title>
<polygon fill="none" stroke="#bfbfbf" points="732.5,-56.5 732.5,-75.5 781.5,-75.5 781.5,-56.5 732.5,-56.5"/>
<text text-anchor="middle" x="757" y="-63.5" font-family="Helvetica,sans-Serif" font-size="10.00" fill="#000000">iosfwd</text>
</g>
<!-- Node8&#45;&gt;Node9 -->
<g id="edge11" class="edge">
<title>Node8&#45;&gt;Node9</title>
<path fill="none" stroke="#191970" d="M415.8594,-117.9764C429.0858,-115.958 443.0067,-113.8728 456,-112 571.3908,-95.368 604.1759,-100.6626 722.4303,-75.8424"/>
<polygon fill="#191970" stroke="#191970" points="723.1759,-79.2622 732.2291,-73.7586 721.7198,-72.4153 723.1759,-79.2622"/>
</g>
<!-- Node10 -->
<g id="node11" class="node">
<title>Node10</title>
<polygon fill="none" stroke="#bfbfbf" points="418,-56.5 418,-75.5 468,-75.5 468,-56.5 418,-56.5"/>
<text text-anchor="middle" x="443" y="-63.5" font-family="Helvetica,sans-Serif" font-size="10.00" fill="#000000">cstdint</text>
</g>
<!-- Node8&#45;&gt;Node10 -->
<g id="edge13" class="edge">
<title>Node8&#45;&gt;Node10</title>
<path fill="none" stroke="#191970" d="M368.75,-117.8906C382.6991,-108.1421 404.5098,-92.8994 420.8897,-81.4521"/>
<polygon fill="#191970" stroke="#191970" points="423.1548,-84.1392 429.3466,-75.5419 419.1449,-78.4015 423.1548,-84.1392"/>
</g>
<!-- Node11&#45;&gt;Node9 -->
<g id="edge16" class="edge">
<title>Node11&#45;&gt;Node9</title>
<path fill="none" stroke="#191970" d="M966.9381,-184.8416C927.4849,-162.508 829.7473,-107.1807 782.8773,-80.6486"/>
<polygon fill="#191970" stroke="#191970" points="784.3769,-77.4756 773.9502,-75.5952 780.9284,-83.5673 784.3769,-77.4756"/>
</g>
<!-- Node12 -->
<g id="node13" class="node">
<title>Node12</title>
<polygon fill="none" stroke="#bfbfbf" points="1403,-118 1403,-137 1445,-137 1445,-118 1403,-118"/>
<text text-anchor="middle" x="1424" y="-125" font-family="Helvetica,sans-Serif" font-size="10.00" fill="#000000">array</text>
</g>
<!-- Node11&#45;&gt;Node12 -->
<g id="edge15" class="edge">
<title>Node11&#45;&gt;Node12</title>
<path fill="none" stroke="#191970" d="M1035.099,-184.9383C1047.1752,-182.8344 1060.0231,-180.7225 1072,-179 1214.5361,-158.5 1256.1809,-184.7454 1394,-143 1395.4728,-142.5539 1396.959,-142.0363 1398.4403,-141.4666"/>
<polygon fill="#191970" stroke="#191970" points="1400.2894,-144.4713 1407.9528,-137.1554 1397.3998,-138.0955 1400.2894,-144.4713"/>
</g>
<!-- Node13 -->
<g id="node14" class="node">
<title>Node13</title>
<polygon fill="none" stroke="#bfbfbf" points="1463,-118 1463,-137 1507,-137 1507,-118 1463,-118"/>
<text text-anchor="middle" x="1485" y="-125" font-family="Helvetica,sans-Serif" font-size="10.00" fill="#000000">string</text>
</g>
<!-- Node11&#45;&gt;Node13 -->
<g id="edge17" class="edge">
<title>Node11&#45;&gt;Node13</title>
<path fill="none" stroke="#191970" d="M1034.1505,-184.9487C1046.4953,-182.7961 1059.7011,-180.6599 1072,-179 1240.9978,-156.191 1290.055,-189.9311 1454,-143 1455.7101,-142.5105 1457.4387,-141.9273 1459.1586,-141.2786"/>
<polygon fill="#191970" stroke="#191970" points="1460.9989,-144.2917 1468.7264,-137.0435 1458.1655,-137.8907 1460.9989,-144.2917"/>
</g>
<!-- Node14 -->
<g id="node15" class="node">
<title>Node14</title>
<polygon fill="none" stroke="#bfbfbf" points="1337.5,-118 1337.5,-137 1384.5,-137 1384.5,-118 1337.5,-118"/>
<text text-anchor="middle" x="1361" y="-125" font-family="Helvetica,sans-Serif" font-size="10.00" fill="#000000">vector</text>
</g>
<!-- Node11&#45;&gt;Node14 -->
<g id="edge18" class="edge">
<title>Node11&#45;&gt;Node14</title>
<path fill="none" stroke="#191970" d="M1036.5327,-184.9403C1048.1971,-182.9032 1060.5084,-180.8195 1072,-179 1185.4836,-161.0319 1217.8811,-175.7902 1328,-143 1329.9109,-142.431 1331.8512,-141.7673 1333.7847,-141.0409"/>
<polygon fill="#191970" stroke="#191970" points="1335.3899,-144.1619 1343.2283,-137.0338 1332.6555,-137.718 1335.3899,-144.1619"/>
</g>
<!-- Node15 -->
<g id="node16" class="node">
<title>Node15</title>
<g id="a_node16"><a xlink:href="../../df/d5d/common_2include_2CommonDataFormat_2TimeStamp_8h.html" target="_top" xlink:title="CommonDataFormat/TimeStamp.h">
<polygon fill="none" stroke="#000000" points="903.5,-118 903.5,-137 1090.5,-137 1090.5,-118 903.5,-118"/>
<text text-anchor="middle" x="997" y="-125" font-family="Helvetica,sans-Serif" font-size="10.00" fill="#000000">CommonDataFormat/TimeStamp.h</text>
</a>
</g>
</g>
<!-- Node11&#45;&gt;Node15 -->
<g id="edge19" class="edge">
<title>Node11&#45;&gt;Node15</title>
<path fill="none" stroke="#191970" d="M985.8626,-184.9005C987.774,-175.0495 990.8017,-159.4451 993.2181,-146.9912"/>
<polygon fill="#191970" stroke="#191970" points="996.6719,-147.5653 995.1409,-137.0817 989.8001,-146.2319 996.6719,-147.5653"/>
</g>
<!-- Node17 -->
<g id="node18" class="node">
<title>Node17</title>
<g id="a_node18"><a xlink:href="../../de/d64/RangeReference_8h.html" target="_top" xlink:title="Class to refer to the 1st entry and N elements of some group in the continuous container. ">
<polygon fill="none" stroke="#000000" points="1109,-118 1109,-137 1319,-137 1319,-118 1109,-118"/>
<text text-anchor="middle" x="1214" y="-125" font-family="Helvetica,sans-Serif" font-size="10.00" fill="#000000">CommonDataFormat/RangeReference.h</text>
</a>
</g>
</g>
<!-- Node11&#45;&gt;Node17 -->
<g id="edge22" class="edge">
<title>Node11&#45;&gt;Node17</title>
<path fill="none" stroke="#191970" d="M1016.9534,-184.9005C1057.6021,-173.0594 1126.7873,-152.9054 1171.4242,-139.9025"/>
<polygon fill="#191970" stroke="#191970" points="1172.4857,-143.2389 1181.1077,-137.0817 1170.5279,-136.5182 1172.4857,-143.2389"/>
</g>
<!-- Node16 -->
<g id="node17" class="node">
<title>Node16</title>
<g id="a_node17"><a xlink:href="../../d2/d45/GPUCommonRtypes_8h.html" target="_top" xlink:title="GPUCommonRtypes.h">
<polygon fill="none" stroke="#000000" points="934.5,-56.5 934.5,-75.5 1059.5,-75.5 1059.5,-56.5 934.5,-56.5"/>
<text text-anchor="middle" x="997" y="-63.5" font-family="Helvetica,sans-Serif" font-size="10.00" fill="#000000">GPUCommonRtypes.h</text>
</a>
</g>
</g>
<!-- Node15&#45;&gt;Node16 -->
<g id="edge20" class="edge">
<title>Node15&#45;&gt;Node16</title>
<path fill="none" stroke="#191970" d="M997,-117.8906C997,-109.3657 997,-96.6392 997,-85.9235"/>
<polygon fill="#191970" stroke="#191970" points="1000.5001,-85.7448 997,-75.7449 993.5001,-85.7449 1000.5001,-85.7448"/>
</g>
<!-- Node16&#45;&gt;Node4 -->
<g id="edge21" class="edge">
<title>Node16&#45;&gt;Node4</title>
<path fill="none" stroke="#191970" d="M934.3083,-58.9925C829.6025,-47.2889 622.0994,-24.0949 535.4545,-14.4101"/>
<polygon fill="#191970" stroke="#191970" points="535.8292,-10.9303 525.5022,-13.2977 535.0515,-17.8869 535.8292,-10.9303"/>
</g>
<!-- Node17&#45;&gt;Node16 -->
<g id="edge23" class="edge">
<title>Node17&#45;&gt;Node16</title>
<path fill="none" stroke="#191970" d="M1180.0938,-117.8906C1142.4321,-107.2169 1081.5298,-89.9566 1040.4115,-78.3033"/>
<polygon fill="#191970" stroke="#191970" points="1041.2436,-74.9013 1030.6682,-75.5419 1039.3349,-81.6361 1041.2436,-74.9013"/>
</g>
<!-- Node18&#45;&gt;Node4 -->
<g id="edge27" class="edge">
<title>Node18&#45;&gt;Node4</title>
<path fill="none" stroke="#191970" d="M321.4555,-184.8598C298.7583,-176.8523 269.4765,-163.4245 250,-143 221.8723,-113.5031 194.6641,-87.1071 221,-56 236.0362,-38.2397 383.6436,-21.2065 456.1783,-13.8287"/>
<polygon fill="#191970" stroke="#191970" points="456.7104,-17.293 466.3107,-12.8113 456.011,-10.328 456.7104,-17.293"/>
</g>
<!-- Node18&#45;&gt;Node8 -->
<g id="edge29" class="edge">
<title>Node18&#45;&gt;Node8</title>
<path fill="none" stroke="#191970" d="M355,-184.9005C355,-175.149 355,-159.7597 355,-147.3695"/>
<polygon fill="#191970" stroke="#191970" points="358.5001,-147.0816 355,-137.0817 351.5001,-147.0817 358.5001,-147.0816"/>
</g>
<!-- Node18&#45;&gt;Node9 -->
<g id="edge25" class="edge">
<title>Node18&#45;&gt;Node9</title>
<path fill="none" stroke="#191970" d="M371.4701,-184.7575C401.4002,-167.4795 467.1602,-131.4619 527,-112 608.2647,-85.5701 634.9688,-95.7342 722.3938,-75.9095"/>
<polygon fill="#191970" stroke="#191970" points="723.2559,-79.3025 732.1978,-73.6198 721.6638,-72.4859 723.2559,-79.3025"/>
</g>
<!-- Node18&#45;&gt;Node15 -->
<g id="edge28" class="edge">
<title>Node18&#45;&gt;Node15</title>
<path fill="none" stroke="#191970" d="M427.2126,-184.99C443.5732,-182.9288 460.876,-180.8224 477,-179 621.3103,-162.6898 788.4791,-146.6395 893.4861,-136.9021"/>
<polygon fill="#191970" stroke="#191970" points="893.8164,-140.3865 903.4512,-135.9796 893.1711,-133.4163 893.8164,-140.3865"/>
</g>
<!-- Node19 -->
<g id="node20" class="node">
<title>Node19</title>
<polygon fill="none" stroke="#bfbfbf" points="352.5,-56.5 352.5,-75.5 399.5,-75.5 399.5,-56.5 352.5,-56.5"/>
<text text-anchor="middle" x="376" y="-63.5" font-family="Helvetica,sans-Serif" font-size="10.00" fill="#000000">cmath</text>
</g>
<!-- Node18&#45;&gt;Node19 -->
<g id="edge26" class="edge">
<title>Node18&#45;&gt;Node19</title>
<path fill="none" stroke="#191970" d="M317.7864,-184.8623C296.5617,-177.2485 271.7216,-164.2613 259,-143 251.9258,-131.177 251.2421,-123.3861 259,-112 268.7441,-97.6988 311.3088,-83.4649 342.2952,-74.7022"/>
<polygon fill="#191970" stroke="#191970" points="343.5839,-77.9776 352.2957,-71.948 341.7253,-71.2289 343.5839,-77.9776"/>
</g>
<!-- Node20 -->
<g id="node21" class="node">
<title>Node20</title>
<polygon fill="none" stroke="#bfbfbf" points="66.5,-112.5 66.5,-142.5 173.5,-142.5 173.5,-112.5 66.5,-112.5"/>
<text text-anchor="start" x="74.5" y="-130.5" font-family="Helvetica,sans-Serif" font-size="10.00" fill="#000000">boost/serialization</text>
<text text-anchor="middle" x="120" y="-119.5" font-family="Helvetica,sans-Serif" font-size="10.00" fill="#000000">/base_object.hpp</text>
</g>
<!-- Node18&#45;&gt;Node20 -->
<g id="edge30" class="edge">
<title>Node18&#45;&gt;Node20</title>
<path fill="none" stroke="#191970" d="M321.3302,-184.9005C285.2254,-174.6068 227.0863,-158.031 182.5454,-145.3321"/>
<polygon fill="#191970" stroke="#191970" points="183.2647,-141.8978 172.6883,-142.5218 181.3454,-148.6295 183.2647,-141.8978"/>
</g>
<!-- Node21&#45;&gt;Node3 -->
<g id="edge32" class="edge">
<title>Node21&#45;&gt;Node3</title>
<path fill="none" stroke="#191970" d="M772.3666,-252.528C851.8678,-247.7608 971.3058,-236.5021 1072,-210 1074.4752,-209.3486 1077.0022,-208.5647 1079.5151,-207.6999"/>
<polygon fill="#191970" stroke="#191970" points="1080.9089,-210.9142 1088.9983,-204.0722 1078.4078,-204.3762 1080.9089,-210.9142"/>
</g>
<!-- Node21&#45;&gt;Node6 -->
<g id="edge39" class="edge">
<title>Node21&#45;&gt;Node6</title>
<path fill="none" stroke="#191970" d="M664.3125,-246.3906C643.5078,-236.2359 610.489,-220.1196 586.7681,-208.5416"/>
<polygon fill="#191970" stroke="#191970" points="588.0712,-205.283 577.5493,-204.0419 585.0007,-211.5736 588.0712,-205.283"/>
</g>
<!-- Node21&#45;&gt;Node11 -->
<g id="edge40" class="edge">
<title>Node21&#45;&gt;Node11</title>
<path fill="none" stroke="#191970" d="M730.5458,-246.4581C783.6438,-235.573 870.463,-217.7751 927.422,-206.0985"/>
<polygon fill="#191970" stroke="#191970" points="928.2516,-209.5013 937.345,-204.0643 926.8458,-202.6439 928.2516,-209.5013"/>
</g>
<!-- Node22 -->
<g id="node23" class="node">
<title>Node22</title>
<g id="a_node23"><a xlink:href="../../d9/d80/InteractionRecord_8h.html" target="_top" xlink:title="CommonDataFormat/Interaction\lRecord.h">
<polygon fill="none" stroke="#000000" points="598,-112.5 598,-142.5 772,-142.5 772,-112.5 598,-112.5"/>
<text text-anchor="start" x="606" y="-130.5" font-family="Helvetica,sans-Serif" font-size="10.00" fill="#000000">CommonDataFormat/Interaction</text>
<text text-anchor="middle" x="685" y="-119.5" font-family="Helvetica,sans-Serif" font-size="10.00" fill="#000000">Record.h</text>
</a>
</g>
</g>
<!-- Node21&#45;&gt;Node22 -->
<g id="edge33" class="edge">
<title>Node21&#45;&gt;Node22</title>
<path fill="none" stroke="#191970" d="M684.0752,-246.3416C684.2282,-226.6745 684.5804,-181.4221 684.8033,-152.7784"/>
<polygon fill="#191970" stroke="#191970" points="688.3037,-152.7286 684.8817,-142.7016 681.3039,-152.674 688.3037,-152.7286"/>
</g>
<!-- Node22&#45;&gt;Node4 -->
<g id="edge34" class="edge">
<title>Node22&#45;&gt;Node4</title>
<path fill="none" stroke="#191970" d="M739.6807,-112.491C775.3994,-100.0054 811.8609,-80.3659 791,-56 774.6,-36.8445 612.6756,-20.2312 535.9425,-13.3636"/>
<polygon fill="#191970" stroke="#191970" points="535.9735,-9.8528 525.7045,-12.46 535.358,-16.8257 535.9735,-9.8528"/>
</g>
<!-- Node22&#45;&gt;Node9 -->
<g id="edge35" class="edge">
<title>Node22&#45;&gt;Node9</title>
<path fill="none" stroke="#191970" d="M702.7978,-112.2977C713.4167,-103.2274 726.9031,-91.7077 737.7667,-82.4285"/>
<polygon fill="#191970" stroke="#191970" points="740.1413,-85.0031 745.4719,-75.8469 735.5949,-79.6805 740.1413,-85.0031"/>
</g>
<!-- Node22&#45;&gt;Node10 -->
<g id="edge37" class="edge">
<title>Node22&#45;&gt;Node10</title>
<path fill="none" stroke="#191970" d="M625.8001,-112.4554C579.4295,-100.6711 516.5062,-84.6803 477.8829,-74.8649"/>
<polygon fill="#191970" stroke="#191970" points="478.6938,-71.4598 468.1398,-72.3888 476.9697,-78.2441 478.6938,-71.4598"/>
</g>
<!-- Node22&#45;&gt;Node19 -->
<g id="edge36" class="edge">
<title>Node22&#45;&gt;Node19</title>
<path fill="none" stroke="#191970" d="M598.8074,-112.4821C536.4134,-101.4253 456.4201,-86.8236 409.7117,-75.929"/>
<polygon fill="#191970" stroke="#191970" points="410.2483,-72.4584 399.7072,-73.5239 408.6121,-79.2645 410.2483,-72.4584"/>
</g>
<!-- Node23 -->
<g id="node24" class="node">
<title>Node23</title>
<g id="a_node24"><a xlink:href="../../d4/dc6/LHCConstants_8h.html" target="_top" xlink:title="Header to collect LHC related constants. ">
<polygon fill="none" stroke="#000000" points="524,-56.5 524,-75.5 714,-75.5 714,-56.5 524,-56.5"/>
<text text-anchor="middle" x="619" y="-63.5" font-family="Helvetica,sans-Serif" font-size="10.00" fill="#000000">CommonConstants/LHCConstants.h</text>
</a>
</g>
</g>
<!-- Node22&#45;&gt;Node23 -->
<g id="edge38" class="edge">
<title>Node22&#45;&gt;Node23</title>
<path fill="none" stroke="#191970" d="M668.6854,-112.2977C659.0467,-103.3163 646.8309,-91.9334 636.9241,-82.702"/>
<polygon fill="#191970" stroke="#191970" points="639.2696,-80.1036 629.5674,-75.8469 634.4975,-85.2249 639.2696,-80.1036"/>
</g>
<!-- Node24&#45;&gt;Node4 -->
<g id="edge43" class="edge">
<title>Node24&#45;&gt;Node4</title>
<path fill="none" stroke="#191970" d="M806.9163,-179.4224C818.6102,-151.4076 838.2205,-91.0028 808,-56 790.4288,-35.6483 616.1294,-19.4456 535.9643,-13.0071"/>
<polygon fill="#191970" stroke="#191970" points="536.0036,-9.4994 525.7586,-12.1994 535.4513,-16.4775 536.0036,-9.4994"/>
</g>
<!-- Node24&#45;&gt;Node9 -->
<g id="edge42" class="edge">
<title>Node24&#45;&gt;Node9</title>
<path fill="none" stroke="#191970" d="M797.688,-179.2619C794.8636,-162.4467 789.3982,-134.7509 781,-112 777.5024,-102.525 772.4646,-92.5256 767.9068,-84.2787"/>
<polygon fill="#191970" stroke="#191970" points="770.907,-82.4746 762.8977,-75.539 764.8337,-85.9555 770.907,-82.4746"/>
</g>
<!-- Node24&#45;&gt;Node17 -->
<g id="edge45" class="edge">
<title>Node24&#45;&gt;Node17</title>
<path fill="none" stroke="#191970" d="M874.9723,-182.3668C951.751,-169.9413 1070.1208,-150.7848 1144.7498,-138.7072"/>
<polygon fill="#191970" stroke="#191970" points="1145.6688,-142.1041 1154.9811,-137.0514 1144.5504,-135.194 1145.6688,-142.1041"/>
</g>
<!-- Node24&#45;&gt;Node22 -->
<g id="edge44" class="edge">
<title>Node24&#45;&gt;Node22</title>
<path fill="none" stroke="#191970" d="M774.1918,-179.4639C758.1763,-170.1332 737.3906,-158.0232 719.9144,-147.8415"/>
<polygon fill="#191970" stroke="#191970" points="721.5225,-144.7276 711.12,-142.7177 717.9986,-150.776 721.5225,-144.7276"/>
</g>
</g>
</svg>
