<?xml version="1.0" encoding="UTF-8" standalone="no"?>
<!DOCTYPE svg PUBLIC "-//W3C//DTD SVG 1.1//EN"
 "http://www.w3.org/Graphics/SVG/1.1/DTD/svg11.dtd">
<!-- Generated by graphviz version 2.40.1 (20161225.0304)
 -->
<!-- Title: /home/travis/build/AliceO2Group/AliceO2/GPU/TPCFastTransformation/devtools/IrregularSpline2D3DCalibrator.h Pages: 1 -->
<svg width="849pt" height="341pt"
 viewBox="0.00 0.00 849.00 341.00" xmlns="http://www.w3.org/2000/svg" xmlns:xlink="http://www.w3.org/1999/xlink">
<g id="graph0" class="graph" transform="scale(1 1) rotate(0) translate(4 337)">
<title>/home/travis/build/AliceO2Group/AliceO2/GPU/TPCFastTransformation/devtools/IrregularSpline2D3DCalibrator.h</title>
<!-- Node0 -->
<g id="node1" class="node">
<title>Node0</title>
<polygon fill="#bfbfbf" stroke="#000000" points="380.5,-280.5 380.5,-332.5 599.5,-332.5 599.5,-280.5 380.5,-280.5"/>
<text text-anchor="start" x="388.5" y="-320.5" font-family="Helvetica,sans-Serif" font-size="10.00" fill="#000000">/home/travis/build</text>
<text text-anchor="start" x="388.5" y="-309.5" font-family="Helvetica,sans-Serif" font-size="10.00" fill="#000000">/AliceO2Group/AliceO2</text>
<text text-anchor="start" x="388.5" y="-298.5" font-family="Helvetica,sans-Serif" font-size="10.00" fill="#000000">/GPU/TPCFastTransformation</text>
<text text-anchor="middle" x="490" y="-287.5" font-family="Helvetica,sans-Serif" font-size="10.00" fill="#000000">/devtools/IrregularSpline2D3DCalibrator.h</text>
</g>
<!-- Node1 -->
<g id="node2" class="node">
<title>Node1</title>
<g id="a_node2"><a xlink:href="../../df/d21/GPUCommonDef_8h.html" target="_top" xlink:title="GPUCommonDef.h">
<polygon fill="none" stroke="#000000" points="97.5,-56.5 97.5,-75.5 204.5,-75.5 204.5,-56.5 97.5,-56.5"/>
<text text-anchor="middle" x="151" y="-63.5" font-family="Helvetica,sans-Serif" font-size="10.00" fill="#000000">GPUCommonDef.h</text>
</a>
</g>
</g>
<!-- Node0&#45;&gt;Node1 -->
<g id="edge1" class="edge">
<title>Node0&#45;&gt;Node1</title>
<path fill="none" stroke="#191970" d="M380.3864,-281.1795C349.4884,-271.7819 316.54,-259.5224 288,-244 226.1585,-210.3655 210.9481,-193.1088 176,-132 167.5524,-117.2289 160.913,-99.061 156.606,-85.5287"/>
<polygon fill="#191970" stroke="#191970" points="159.9141,-84.3767 153.6619,-75.8233 153.2155,-86.4087 159.9141,-84.3767"/>
</g>
<!-- Node4 -->
<g id="node5" class="node">
<title>Node4</title>
<g id="a_node5"><a xlink:href="../../d8/d4b/IrregularSpline2D3D_8h.html" target="_top" xlink:title="Definition of IrregularSpline2D3D class. ">
<polygon fill="none" stroke="#000000" points="297,-224.5 297,-243.5 421,-243.5 421,-224.5 297,-224.5"/>
<text text-anchor="middle" x="359" y="-231.5" font-family="Helvetica,sans-Serif" font-size="10.00" fill="#000000">IrregularSpline2D3D.h</text>
</a>
</g>
</g>
<!-- Node0&#45;&gt;Node4 -->
<g id="edge4" class="edge">
<title>Node0&#45;&gt;Node4</title>
<path fill="none" stroke="#191970" d="M442.706,-280.3258C423.3466,-269.6116 401.6822,-257.6218 385.2444,-248.5246"/>
<polygon fill="#191970" stroke="#191970" points="386.6712,-245.314 376.227,-243.534 383.2816,-251.4386 386.6712,-245.314"/>
</g>
<!-- Node8 -->
<g id="node9" class="node">
<title>Node8</title>
<polygon fill="none" stroke="#bfbfbf" points="783,-56.5 783,-75.5 841,-75.5 841,-56.5 783,-56.5"/>
<text text-anchor="middle" x="812" y="-63.5" font-family="Helvetica,sans-Serif" font-size="10.00" fill="#000000">memory</text>
</g>
<!-- Node0&#45;&gt;Node8 -->
<g id="edge24" class="edge">
<title>Node0&#45;&gt;Node8</title>
<path fill="none" stroke="#191970" d="M490.4804,-280.3012C492.0404,-262.7652 496.5923,-240.0452 509,-224 544.9613,-177.4962 706.8284,-108.3057 778.1139,-79.4228"/>
<polygon fill="#191970" stroke="#191970" points="779.5814,-82.6049 787.5488,-75.6213 776.9654,-76.1121 779.5814,-82.6049"/>
</g>
<!-- Node17 -->
<g id="node18" class="node">
<title>Node17</title>
<polygon fill="none" stroke="#bfbfbf" points="518,-224.5 518,-243.5 550,-243.5 550,-224.5 518,-224.5"/>
<text text-anchor="middle" x="534" y="-231.5" font-family="Helvetica,sans-Serif" font-size="10.00" fill="#000000">list</text>
</g>
<!-- Node0&#45;&gt;Node17 -->
<g id="edge25" class="edge">
<title>Node0&#45;&gt;Node17</title>
<path fill="none" stroke="#191970" d="M505.885,-280.3258C511.5366,-271.0135 517.7731,-260.7375 522.9334,-252.2347"/>
<polygon fill="#191970" stroke="#191970" points="526.0176,-253.8987 528.2138,-243.534 520.0335,-250.2669 526.0176,-253.8987"/>
</g>
<!-- Node18 -->
<g id="node19" class="node">
<title>Node18</title>
<polygon fill="none" stroke="#bfbfbf" points="568.5,-224.5 568.5,-243.5 633.5,-243.5 633.5,-224.5 568.5,-224.5"/>
<text text-anchor="middle" x="601" y="-231.5" font-family="Helvetica,sans-Serif" font-size="10.00" fill="#000000">functional</text>
</g>
<!-- Node0&#45;&gt;Node18 -->
<g id="edge26" class="edge">
<title>Node0&#45;&gt;Node18</title>
<path fill="none" stroke="#191970" d="M530.0735,-280.3258C546.1707,-269.8119 564.1486,-258.0696 577.9768,-249.0377"/>
<polygon fill="#191970" stroke="#191970" points="579.9447,-251.9328 586.4031,-243.534 576.1168,-246.0721 579.9447,-251.9328"/>
</g>
<!-- Node2 -->
<g id="node3" class="node">
<title>Node2</title>
<g id="a_node3"><a xlink:href="../../d5/d93/GPUCommonDefSettings_8h.html" target="_top" xlink:title="GPUCommonDefSettings.h">
<polygon fill="none" stroke="#000000" points="0,-.5 0,-19.5 148,-19.5 148,-.5 0,-.5"/>
<text text-anchor="middle" x="74" y="-7.5" font-family="Helvetica,sans-Serif" font-size="10.00" fill="#000000">GPUCommonDefSettings.h</text>
</a>
</g>
</g>
<!-- Node1&#45;&gt;Node2 -->
<g id="edge2" class="edge">
<title>Node1&#45;&gt;Node2</title>
<path fill="none" stroke="#191970" d="M137.5876,-56.2455C125.9943,-47.814 109.0252,-35.4729 95.5322,-25.6598"/>
<polygon fill="#191970" stroke="#191970" points="97.4047,-22.6938 87.2587,-19.6427 93.2874,-28.355 97.4047,-22.6938"/>
</g>
<!-- Node3 -->
<g id="node4" class="node">
<title>Node3</title>
<g id="a_node4"><a xlink:href="../../da/d5a/GPUCommonDefAPI_8h.html" target="_top" xlink:title="GPUCommonDefAPI.h">
<polygon fill="none" stroke="#000000" points="166,-.5 166,-19.5 290,-19.5 290,-.5 166,-.5"/>
<text text-anchor="middle" x="228" y="-7.5" font-family="Helvetica,sans-Serif" font-size="10.00" fill="#000000">GPUCommonDefAPI.h</text>
</a>
</g>
</g>
<!-- Node1&#45;&gt;Node3 -->
<g id="edge3" class="edge">
<title>Node1&#45;&gt;Node3</title>
<path fill="none" stroke="#191970" d="M164.4124,-56.2455C176.0057,-47.814 192.9748,-35.4729 206.4678,-25.6598"/>
<polygon fill="#191970" stroke="#191970" points="208.7126,-28.355 214.7413,-19.6427 204.5953,-22.6938 208.7126,-28.355"/>
</g>
<!-- Node4&#45;&gt;Node1 -->
<g id="edge23" class="edge">
<title>Node4&#45;&gt;Node1</title>
<path fill="none" stroke="#191970" d="M323.0232,-224.4299C299.7736,-217.0485 269.728,-205.1672 247,-188 208.4788,-158.9036 176.8658,-110.7986 161.352,-84.5288"/>
<polygon fill="#191970" stroke="#191970" points="164.24,-82.5305 156.2136,-75.6149 158.1755,-86.0265 164.24,-82.5305"/>
</g>
<!-- Node5 -->
<g id="node6" class="node">
<title>Node5</title>
<g id="a_node6"><a xlink:href="../../d4/de4/IrregularSpline1D_8h.html" target="_top" xlink:title="Definition of IrregularSpline1D class. ">
<polygon fill="none" stroke="#000000" points="256,-168.5 256,-187.5 366,-187.5 366,-168.5 256,-168.5"/>
<text text-anchor="middle" x="311" y="-175.5" font-family="Helvetica,sans-Serif" font-size="10.00" fill="#000000">IrregularSpline1D.h</text>
</a>
</g>
</g>
<!-- Node4&#45;&gt;Node5 -->
<g id="edge5" class="edge">
<title>Node4&#45;&gt;Node5</title>
<path fill="none" stroke="#191970" d="M350.639,-224.2455C343.825,-216.2958 334.0319,-204.8706 325.8848,-195.3656"/>
<polygon fill="#191970" stroke="#191970" points="328.4305,-192.9575 319.2651,-187.6427 323.1157,-197.513 328.4305,-192.9575"/>
</g>
<!-- Node6 -->
<g id="node7" class="node">
<title>Node6</title>
<g id="a_node7"><a xlink:href="../../db/dff/FlatObject_8h.html" target="_top" xlink:title="Definition of FlatObject class. ">
<polygon fill="none" stroke="#000000" points="348.5,-112.5 348.5,-131.5 423.5,-131.5 423.5,-112.5 348.5,-112.5"/>
<text text-anchor="middle" x="386" y="-119.5" font-family="Helvetica,sans-Serif" font-size="10.00" fill="#000000">FlatObject.h</text>
</a>
</g>
</g>
<!-- Node4&#45;&gt;Node6 -->
<g id="edge22" class="edge">
<title>Node4&#45;&gt;Node6</title>
<path fill="none" stroke="#191970" d="M362.9234,-224.277C366.5097,-215.0664 371.7374,-200.7806 375,-188 378.9113,-172.6786 381.7732,-154.9899 383.5958,-141.7836"/>
<polygon fill="#191970" stroke="#191970" points="387.1137,-141.8714 384.9303,-131.504 380.172,-140.9702 387.1137,-141.8714"/>
</g>
<!-- Node5&#45;&gt;Node1 -->
<g id="edge6" class="edge">
<title>Node5&#45;&gt;Node1</title>
<path fill="none" stroke="#191970" d="M297.3585,-168.4509C269.6097,-149.0268 206.3862,-104.7703 172.8421,-81.2895"/>
<polygon fill="#191970" stroke="#191970" points="174.8065,-78.3922 164.607,-75.5249 170.7922,-84.1269 174.8065,-78.3922"/>
</g>
<!-- Node5&#45;&gt;Node6 -->
<g id="edge7" class="edge">
<title>Node5&#45;&gt;Node6</title>
<path fill="none" stroke="#191970" d="M324.064,-168.2455C335.3562,-159.814 351.8845,-147.4729 365.0271,-137.6598"/>
<polygon fill="#191970" stroke="#191970" points="367.1669,-140.4301 373.0857,-131.6427 362.9789,-134.8211 367.1669,-140.4301"/>
</g>
<!-- Node7 -->
<g id="node8" class="node">
<title>Node7</title>
<polygon fill="none" stroke="#bfbfbf" points="222.5,-56.5 222.5,-75.5 275.5,-75.5 275.5,-56.5 222.5,-56.5"/>
<text text-anchor="middle" x="249" y="-63.5" font-family="Helvetica,sans-Serif" font-size="10.00" fill="#000000">cstddef</text>
</g>
<!-- Node5&#45;&gt;Node7 -->
<g id="edge19" class="edge">
<title>Node5&#45;&gt;Node7</title>
<path fill="none" stroke="#191970" d="M305.7139,-168.4509C295.4188,-149.8533 272.5223,-108.4919 259.1837,-84.3964"/>
<polygon fill="#191970" stroke="#191970" points="262.178,-82.5787 254.2727,-75.5249 256.0538,-85.969 262.178,-82.5787"/>
</g>
<!-- Node5&#45;&gt;Node8 -->
<g id="edge20" class="edge">
<title>Node5&#45;&gt;Node8</title>
<path fill="none" stroke="#191970" d="M337.6273,-168.4282C362.272,-159.4392 399.8475,-145.4032 432,-132 451.8272,-123.7348 455.317,-117.8005 476,-112 601.3155,-76.8554 641.0285,-99.8473 772.581,-76.0313"/>
<polygon fill="#191970" stroke="#191970" points="773.4453,-79.4304 782.6326,-74.1537 772.16,-72.5494 773.4453,-79.4304"/>
</g>
<!-- Node9 -->
<g id="node10" class="node">
<title>Node9</title>
<polygon fill="none" stroke="#bfbfbf" points="294,-56.5 294,-75.5 344,-75.5 344,-56.5 294,-56.5"/>
<text text-anchor="middle" x="319" y="-63.5" font-family="Helvetica,sans-Serif" font-size="10.00" fill="#000000">cstring</text>
</g>
<!-- Node5&#45;&gt;Node9 -->
<g id="edge21" class="edge">
<title>Node5&#45;&gt;Node9</title>
<path fill="none" stroke="#191970" d="M311.6821,-168.4509C312.9869,-150.184 315.8603,-109.9553 317.593,-85.6976"/>
<polygon fill="#191970" stroke="#191970" points="321.0982,-85.7489 318.3197,-75.5249 314.116,-85.2501 321.0982,-85.7489"/>
</g>
<!-- Node6&#45;&gt;Node1 -->
<g id="edge13" class="edge">
<title>Node6&#45;&gt;Node1</title>
<path fill="none" stroke="#191970" d="M348.2432,-113.0026C308.2809,-103.4797 245.018,-88.4043 200.9509,-77.9032"/>
<polygon fill="#191970" stroke="#191970" points="201.5616,-74.4508 191.0226,-75.5373 199.9389,-81.2601 201.5616,-74.4508"/>
</g>
<!-- Node6&#45;&gt;Node7 -->
<g id="edge8" class="edge">
<title>Node6&#45;&gt;Node7</title>
<path fill="none" stroke="#191970" d="M362.4489,-112.3733C340.1609,-103.2629 306.5063,-89.5062 281.6363,-79.3404"/>
<polygon fill="#191970" stroke="#191970" points="282.8247,-76.0451 272.2438,-75.5011 280.1761,-82.5247 282.8247,-76.0451"/>
</g>
<!-- Node6&#45;&gt;Node8 -->
<g id="edge9" class="edge">
<title>Node6&#45;&gt;Node8</title>
<path fill="none" stroke="#191970" d="M423.7105,-114.3658C428.5097,-113.5068 433.363,-112.6931 438,-112 583.3469,-90.2764 624.5349,-102.6291 772.7223,-76.0044"/>
<polygon fill="#191970" stroke="#191970" points="773.4314,-79.4328 782.6401,-74.1935 772.174,-72.5467 773.4314,-79.4328"/>
</g>
<!-- Node6&#45;&gt;Node9 -->
<g id="edge10" class="edge">
<title>Node6&#45;&gt;Node9</title>
<path fill="none" stroke="#191970" d="M374.3295,-112.2455C364.4339,-103.9746 350.0373,-91.9416 338.4099,-82.2232"/>
<polygon fill="#191970" stroke="#191970" points="340.4542,-79.3703 330.5368,-75.6427 335.965,-84.7413 340.4542,-79.3703"/>
</g>
<!-- Node10 -->
<g id="node11" class="node">
<title>Node10</title>
<polygon fill="none" stroke="#bfbfbf" points="713,-56.5 713,-75.5 765,-75.5 765,-56.5 713,-56.5"/>
<text text-anchor="middle" x="739" y="-63.5" font-family="Helvetica,sans-Serif" font-size="10.00" fill="#000000">cassert</text>
</g>
<!-- Node6&#45;&gt;Node10 -->
<g id="edge11" class="edge">
<title>Node6&#45;&gt;Node10</title>
<path fill="none" stroke="#191970" d="M423.7298,-114.4896C428.5259,-113.6099 433.3731,-112.7574 438,-112 552.5138,-93.2548 585.4453,-100.0481 702.6406,-76.0434"/>
<polygon fill="#191970" stroke="#191970" points="703.6506,-79.4083 712.728,-73.9447 702.2247,-72.5551 703.6506,-79.4083"/>
</g>
<!-- Node11 -->
<g id="node12" class="node">
<title>Node11</title>
<polygon fill="none" stroke="#bfbfbf" points="362,-56.5 362,-75.5 410,-75.5 410,-56.5 362,-56.5"/>
<text text-anchor="middle" x="386" y="-63.5" font-family="Helvetica,sans-Serif" font-size="10.00" fill="#000000">TFile.h</text>
</g>
<!-- Node6&#45;&gt;Node11 -->
<g id="edge12" class="edge">
<title>Node6&#45;&gt;Node11</title>
<path fill="none" stroke="#191970" d="M386,-112.2455C386,-104.9382 386,-94.6944 386,-85.7046"/>
<polygon fill="#191970" stroke="#191970" points="389.5001,-85.6426 386,-75.6427 382.5001,-85.6427 389.5001,-85.6426"/>
</g>
<!-- Node12 -->
<g id="node13" class="node">
<title>Node12</title>
<g id="a_node13"><a xlink:href="../../d2/d45/GPUCommonRtypes_8h.html" target="_top" xlink:title="GPUCommonRtypes.h">
<polygon fill="none" stroke="#000000" points="428.5,-56.5 428.5,-75.5 553.5,-75.5 553.5,-56.5 428.5,-56.5"/>
<text text-anchor="middle" x="491" y="-63.5" font-family="Helvetica,sans-Serif" font-size="10.00" fill="#000000">GPUCommonRtypes.h</text>
</a>
</g>
</g>
<!-- Node6&#45;&gt;Node12 -->
<g id="edge14" class="edge">
<title>Node6&#45;&gt;Node12</title>
<path fill="none" stroke="#191970" d="M404.2896,-112.2455C420.7762,-103.4527 445.2352,-90.4079 463.9765,-80.4125"/>
<polygon fill="#191970" stroke="#191970" points="465.7435,-83.4368 472.92,-75.6427 462.4494,-77.2604 465.7435,-83.4368"/>
</g>
<!-- Node14 -->
<g id="node15" class="node">
<title>Node14</title>
<g id="a_node15"><a xlink:href="../../df/d5b/GPUCommonLogger_8h.html" target="_top" xlink:title="GPUCommonLogger.h">
<polygon fill="none" stroke="#000000" points="571.5,-56.5 571.5,-75.5 694.5,-75.5 694.5,-56.5 571.5,-56.5"/>
<text text-anchor="middle" x="633" y="-63.5" font-family="Helvetica,sans-Serif" font-size="10.00" fill="#000000">GPUCommonLogger.h</text>
</a>
</g>
</g>
<!-- Node6&#45;&gt;Node14 -->
<g id="edge16" class="edge">
<title>Node6&#45;&gt;Node14</title>
<path fill="none" stroke="#191970" d="M423.514,-113.4948C465.508,-103.9739 533.834,-88.483 580.9746,-77.7952"/>
<polygon fill="#191970" stroke="#191970" points="582.0119,-81.149 590.9905,-75.5244 580.4641,-74.3222 582.0119,-81.149"/>
</g>
<!-- Node13 -->
<g id="node14" class="node">
<title>Node13</title>
<polygon fill="none" stroke="#bfbfbf" points="461.5,-.5 461.5,-19.5 520.5,-19.5 520.5,-.5 461.5,-.5"/>
<text text-anchor="middle" x="491" y="-7.5" font-family="Helvetica,sans-Serif" font-size="10.00" fill="#000000">Rtypes.h</text>
</g>
<!-- Node12&#45;&gt;Node13 -->
<g id="edge15" class="edge">
<title>Node12&#45;&gt;Node13</title>
<path fill="none" stroke="#191970" d="M491,-56.2455C491,-48.9382 491,-38.6944 491,-29.7046"/>
<polygon fill="#191970" stroke="#191970" points="494.5001,-29.6426 491,-19.6427 487.5001,-29.6427 494.5001,-29.6426"/>
</g>
<!-- Node15 -->
<g id="node16" class="node">
<title>Node15</title>
<polygon fill="none" stroke="#bfbfbf" points="571,-.5 571,-19.5 631,-19.5 631,-.5 571,-.5"/>
<text text-anchor="middle" x="601" y="-7.5" font-family="Helvetica,sans-Serif" font-size="10.00" fill="#000000">iostream</text>
</g>
<!-- Node14&#45;&gt;Node15 -->
<g id="edge17" class="edge">
<title>Node14&#45;&gt;Node15</title>
<path fill="none" stroke="#191970" d="M627.426,-56.2455C623.0669,-48.617 616.8789,-37.7881 611.5867,-28.5267"/>
<polygon fill="#191970" stroke="#191970" points="614.5104,-26.5886 606.5101,-19.6427 608.4327,-30.0616 614.5104,-26.5886"/>
</g>
<!-- Node16 -->
<g id="node17" class="node">
<title>Node16</title>
<polygon fill="none" stroke="#bfbfbf" points="649,-.5 649,-19.5 695,-19.5 695,-.5 649,-.5"/>
<text text-anchor="middle" x="672" y="-7.5" font-family="Helvetica,sans-Serif" font-size="10.00" fill="#000000">cstdio</text>
</g>
<!-- Node14&#45;&gt;Node16 -->
<g id="edge18" class="edge">
<title>Node14&#45;&gt;Node16</title>
<path fill="none" stroke="#191970" d="M639.7933,-56.2455C645.2178,-48.4564 652.9661,-37.3308 659.5033,-27.9439"/>
<polygon fill="#191970" stroke="#191970" points="662.4417,-29.849 665.2846,-19.6427 656.6975,-25.8485 662.4417,-29.849"/>
</g>
</g>
</svg>
