<?xml version="1.0" encoding="UTF-8" standalone="no"?>
<!DOCTYPE svg PUBLIC "-//W3C//DTD SVG 1.1//EN"
 "http://www.w3.org/Graphics/SVG/1.1/DTD/svg11.dtd">
<!-- Generated by graphviz version 2.40.1 (20161225.0304)
 -->
<!-- Title: /home/travis/build/AliceO2Group/AliceO2/GPU/TPCFastTransformation/Spline2D.h Pages: 1 -->
<svg width="849pt" height="285pt"
 viewBox="0.00 0.00 849.00 285.00" xmlns="http://www.w3.org/2000/svg" xmlns:xlink="http://www.w3.org/1999/xlink">
<g id="graph0" class="graph" transform="scale(1 1) rotate(0) translate(4 281)">
<title>/home/travis/build/AliceO2Group/AliceO2/GPU/TPCFastTransformation/Spline2D.h</title>
<!-- Node0 -->
<g id="node1" class="node">
<title>Node0</title>
<polygon fill="#bfbfbf" stroke="#000000" points="221.5,-224.5 221.5,-276.5 376.5,-276.5 376.5,-224.5 221.5,-224.5"/>
<text text-anchor="start" x="229.5" y="-264.5" font-family="Helvetica,sans-Serif" font-size="10.00" fill="#000000">/home/travis/build</text>
<text text-anchor="start" x="229.5" y="-253.5" font-family="Helvetica,sans-Serif" font-size="10.00" fill="#000000">/AliceO2Group/AliceO2</text>
<text text-anchor="start" x="229.5" y="-242.5" font-family="Helvetica,sans-Serif" font-size="10.00" fill="#000000">/GPU/TPCFastTransformation</text>
<text text-anchor="middle" x="299" y="-231.5" font-family="Helvetica,sans-Serif" font-size="10.00" fill="#000000">/Spline2D.h</text>
</g>
<!-- Node1 -->
<g id="node2" class="node">
<title>Node1</title>
<g id="a_node2"><a xlink:href="../../de/da6/Spline1D_8h.html" target="_top" xlink:title="Definition of Spline1D class. ">
<polygon fill="none" stroke="#000000" points="264.5,-168.5 264.5,-187.5 333.5,-187.5 333.5,-168.5 264.5,-168.5"/>
<text text-anchor="middle" x="299" y="-175.5" font-family="Helvetica,sans-Serif" font-size="10.00" fill="#000000">Spline1D.h</text>
</a>
</g>
</g>
<!-- Node0&#45;&gt;Node1 -->
<g id="edge1" class="edge">
<title>Node0&#45;&gt;Node1</title>
<path fill="none" stroke="#191970" d="M299,-224.3258C299,-215.5142 299,-205.8397 299,-197.621"/>
<polygon fill="#191970" stroke="#191970" points="302.5001,-197.534 299,-187.534 295.5001,-197.534 302.5001,-197.534"/>
</g>
<!-- Node2 -->
<g id="node3" class="node">
<title>Node2</title>
<g id="a_node3"><a xlink:href="../../df/d21/GPUCommonDef_8h.html" target="_top" xlink:title="GPUCommonDef.h">
<polygon fill="none" stroke="#000000" points="97.5,-56.5 97.5,-75.5 204.5,-75.5 204.5,-56.5 97.5,-56.5"/>
<text text-anchor="middle" x="151" y="-63.5" font-family="Helvetica,sans-Serif" font-size="10.00" fill="#000000">GPUCommonDef.h</text>
</a>
</g>
</g>
<!-- Node0&#45;&gt;Node2 -->
<g id="edge19" class="edge">
<title>Node0&#45;&gt;Node2</title>
<path fill="none" stroke="#191970" d="M278.1091,-224.457C247.5349,-186.3425 191.3962,-116.3588 165.183,-83.6808"/>
<polygon fill="#191970" stroke="#191970" points="167.8996,-81.4739 158.9121,-75.8635 162.4393,-85.854 167.8996,-81.4739"/>
</g>
<!-- Node5 -->
<g id="node6" class="node">
<title>Node5</title>
<g id="a_node6"><a xlink:href="../../db/dff/FlatObject_8h.html" target="_top" xlink:title="Definition of FlatObject class. ">
<polygon fill="none" stroke="#000000" points="353.5,-112.5 353.5,-131.5 428.5,-131.5 428.5,-112.5 353.5,-112.5"/>
<text text-anchor="middle" x="391" y="-119.5" font-family="Helvetica,sans-Serif" font-size="10.00" fill="#000000">FlatObject.h</text>
</a>
</g>
</g>
<!-- Node0&#45;&gt;Node5 -->
<g id="edge18" class="edge">
<title>Node0&#45;&gt;Node5</title>
<path fill="none" stroke="#191970" d="M317.6176,-224.4961C335.6269,-199.3418 362.4402,-161.8906 378.1791,-139.9075"/>
<polygon fill="#191970" stroke="#191970" points="381.2127,-141.6826 384.1883,-131.5142 375.5211,-137.6076 381.2127,-141.6826"/>
</g>
<!-- Node1&#45;&gt;Node2 -->
<g id="edge2" class="edge">
<title>Node1&#45;&gt;Node2</title>
<path fill="none" stroke="#191970" d="M286.3816,-168.4509C260.8232,-149.1094 202.7293,-105.1465 171.6016,-81.5904"/>
<polygon fill="#191970" stroke="#191970" points="173.6726,-78.7684 163.5865,-75.5249 169.4485,-84.3503 173.6726,-78.7684"/>
</g>
<!-- Node1&#45;&gt;Node5 -->
<g id="edge5" class="edge">
<title>Node1&#45;&gt;Node5</title>
<path fill="none" stroke="#191970" d="M315.0252,-168.2455C329.1408,-159.6534 349.9263,-147.0014 366.1899,-137.1018"/>
<polygon fill="#191970" stroke="#191970" points="368.4363,-139.8319 375.1585,-131.6427 364.7966,-133.8525 368.4363,-139.8319"/>
</g>
<!-- Node16 -->
<g id="node17" class="node">
<title>Node16</title>
<polygon fill="none" stroke="#bfbfbf" points="266.5,-112.5 266.5,-131.5 331.5,-131.5 331.5,-112.5 266.5,-112.5"/>
<text text-anchor="middle" x="299" y="-119.5" font-family="Helvetica,sans-Serif" font-size="10.00" fill="#000000">functional</text>
</g>
<!-- Node1&#45;&gt;Node16 -->
<g id="edge17" class="edge">
<title>Node1&#45;&gt;Node16</title>
<path fill="none" stroke="#191970" d="M299,-168.2455C299,-160.9382 299,-150.6944 299,-141.7046"/>
<polygon fill="#191970" stroke="#191970" points="302.5001,-141.6426 299,-131.6427 295.5001,-141.6427 302.5001,-141.6426"/>
</g>
<!-- Node3 -->
<g id="node4" class="node">
<title>Node3</title>
<g id="a_node4"><a xlink:href="../../d5/d93/GPUCommonDefSettings_8h.html" target="_top" xlink:title="GPUCommonDefSettings.h">
<polygon fill="none" stroke="#000000" points="0,-.5 0,-19.5 148,-19.5 148,-.5 0,-.5"/>
<text text-anchor="middle" x="74" y="-7.5" font-family="Helvetica,sans-Serif" font-size="10.00" fill="#000000">GPUCommonDefSettings.h</text>
</a>
</g>
</g>
<!-- Node2&#45;&gt;Node3 -->
<g id="edge3" class="edge">
<title>Node2&#45;&gt;Node3</title>
<path fill="none" stroke="#191970" d="M137.5876,-56.2455C125.9943,-47.814 109.0252,-35.4729 95.5322,-25.6598"/>
<polygon fill="#191970" stroke="#191970" points="97.4047,-22.6938 87.2587,-19.6427 93.2874,-28.355 97.4047,-22.6938"/>
</g>
<!-- Node4 -->
<g id="node5" class="node">
<title>Node4</title>
<g id="a_node5"><a xlink:href="../../da/d5a/GPUCommonDefAPI_8h.html" target="_top" xlink:title="GPUCommonDefAPI.h">
<polygon fill="none" stroke="#000000" points="166,-.5 166,-19.5 290,-19.5 290,-.5 166,-.5"/>
<text text-anchor="middle" x="228" y="-7.5" font-family="Helvetica,sans-Serif" font-size="10.00" fill="#000000">GPUCommonDefAPI.h</text>
</a>
</g>
</g>
<!-- Node2&#45;&gt;Node4 -->
<g id="edge4" class="edge">
<title>Node2&#45;&gt;Node4</title>
<path fill="none" stroke="#191970" d="M164.4124,-56.2455C176.0057,-47.814 192.9748,-35.4729 206.4678,-25.6598"/>
<polygon fill="#191970" stroke="#191970" points="208.7126,-28.355 214.7413,-19.6427 204.5953,-22.6938 208.7126,-28.355"/>
</g>
<!-- Node5&#45;&gt;Node2 -->
<g id="edge11" class="edge">
<title>Node5&#45;&gt;Node2</title>
<path fill="none" stroke="#191970" d="M353.236,-113.1884C312.3686,-103.6527 246.9827,-88.396 201.6707,-77.8232"/>
<polygon fill="#191970" stroke="#191970" points="202.2873,-74.3731 191.7536,-75.5092 200.6967,-81.19 202.2873,-74.3731"/>
</g>
<!-- Node6 -->
<g id="node7" class="node">
<title>Node6</title>
<polygon fill="none" stroke="#bfbfbf" points="222.5,-56.5 222.5,-75.5 275.5,-75.5 275.5,-56.5 222.5,-56.5"/>
<text text-anchor="middle" x="249" y="-63.5" font-family="Helvetica,sans-Serif" font-size="10.00" fill="#000000">cstddef</text>
</g>
<!-- Node5&#45;&gt;Node6 -->
<g id="edge6" class="edge">
<title>Node5&#45;&gt;Node6</title>
<path fill="none" stroke="#191970" d="M366.5893,-112.3733C343.3858,-103.2226 308.2962,-89.3844 282.4858,-79.2057"/>
<polygon fill="#191970" stroke="#191970" points="283.6789,-75.9139 273.0921,-75.5011 281.1108,-82.4258 283.6789,-75.9139"/>
</g>
<!-- Node7 -->
<g id="node8" class="node">
<title>Node7</title>
<polygon fill="none" stroke="#bfbfbf" points="294,-56.5 294,-75.5 352,-75.5 352,-56.5 294,-56.5"/>
<text text-anchor="middle" x="323" y="-63.5" font-family="Helvetica,sans-Serif" font-size="10.00" fill="#000000">memory</text>
</g>
<!-- Node5&#45;&gt;Node7 -->
<g id="edge7" class="edge">
<title>Node5&#45;&gt;Node7</title>
<path fill="none" stroke="#191970" d="M379.1553,-112.2455C369.112,-103.9746 354.5005,-91.9416 342.6996,-82.2232"/>
<polygon fill="#191970" stroke="#191970" points="344.6533,-79.298 334.709,-75.6427 340.2033,-84.7015 344.6533,-79.298"/>
</g>
<!-- Node8 -->
<g id="node9" class="node">
<title>Node8</title>
<polygon fill="none" stroke="#bfbfbf" points="370,-56.5 370,-75.5 420,-75.5 420,-56.5 370,-56.5"/>
<text text-anchor="middle" x="395" y="-63.5" font-family="Helvetica,sans-Serif" font-size="10.00" fill="#000000">cstring</text>
</g>
<!-- Node5&#45;&gt;Node8 -->
<g id="edge8" class="edge">
<title>Node5&#45;&gt;Node8</title>
<path fill="none" stroke="#191970" d="M391.6967,-112.2455C392.2187,-104.9382 392.9504,-94.6944 393.5925,-85.7046"/>
<polygon fill="#191970" stroke="#191970" points="397.0898,-85.8667 394.3112,-75.6427 390.1076,-85.3679 397.0898,-85.8667"/>
</g>
<!-- Node9 -->
<g id="node10" class="node">
<title>Node9</title>
<polygon fill="none" stroke="#bfbfbf" points="438,-56.5 438,-75.5 490,-75.5 490,-56.5 438,-56.5"/>
<text text-anchor="middle" x="464" y="-63.5" font-family="Helvetica,sans-Serif" font-size="10.00" fill="#000000">cassert</text>
</g>
<!-- Node5&#45;&gt;Node9 -->
<g id="edge9" class="edge">
<title>Node5&#45;&gt;Node9</title>
<path fill="none" stroke="#191970" d="M403.7156,-112.2455C414.602,-103.8943 430.4883,-91.7076 443.22,-81.9408"/>
<polygon fill="#191970" stroke="#191970" points="445.6261,-84.5063 451.4301,-75.6427 441.3654,-78.9523 445.6261,-84.5063"/>
</g>
<!-- Node10 -->
<g id="node11" class="node">
<title>Node10</title>
<polygon fill="none" stroke="#bfbfbf" points="508,-56.5 508,-75.5 556,-75.5 556,-56.5 508,-56.5"/>
<text text-anchor="middle" x="532" y="-63.5" font-family="Helvetica,sans-Serif" font-size="10.00" fill="#000000">TFile.h</text>
</g>
<!-- Node5&#45;&gt;Node10 -->
<g id="edge10" class="edge">
<title>Node5&#45;&gt;Node10</title>
<path fill="none" stroke="#191970" d="M415.2388,-112.3733C438.2789,-103.2226 473.1214,-89.3844 498.7501,-79.2057"/>
<polygon fill="#191970" stroke="#191970" points="500.0756,-82.4452 508.0775,-75.5011 497.4918,-75.9395 500.0756,-82.4452"/>
</g>
<!-- Node11 -->
<g id="node12" class="node">
<title>Node11</title>
<g id="a_node12"><a xlink:href="../../d2/d45/GPUCommonRtypes_8h.html" target="_top" xlink:title="GPUCommonRtypes.h">
<polygon fill="none" stroke="#000000" points="574.5,-56.5 574.5,-75.5 699.5,-75.5 699.5,-56.5 574.5,-56.5"/>
<text text-anchor="middle" x="637" y="-63.5" font-family="Helvetica,sans-Serif" font-size="10.00" fill="#000000">GPUCommonRtypes.h</text>
</a>
</g>
</g>
<!-- Node5&#45;&gt;Node11 -->
<g id="edge12" class="edge">
<title>Node5&#45;&gt;Node11</title>
<path fill="none" stroke="#191970" d="M428.6299,-113.4338C470.5111,-103.8999 538.4493,-88.4343 585.303,-77.7684"/>
<polygon fill="#191970" stroke="#191970" points="586.2838,-81.1348 595.2575,-75.5024 584.73,-74.3094 586.2838,-81.1348"/>
</g>
<!-- Node13 -->
<g id="node14" class="node">
<title>Node13</title>
<g id="a_node14"><a xlink:href="../../df/d5b/GPUCommonLogger_8h.html" target="_top" xlink:title="GPUCommonLogger.h">
<polygon fill="none" stroke="#000000" points="717.5,-56.5 717.5,-75.5 840.5,-75.5 840.5,-56.5 717.5,-56.5"/>
<text text-anchor="middle" x="779" y="-63.5" font-family="Helvetica,sans-Serif" font-size="10.00" fill="#000000">GPUCommonLogger.h</text>
</a>
</g>
</g>
<!-- Node5&#45;&gt;Node13 -->
<g id="edge14" class="edge">
<title>Node5&#45;&gt;Node13</title>
<path fill="none" stroke="#191970" d="M428.5556,-116.5796C492.8193,-107.3044 624.8995,-88.2413 707.2911,-76.3497"/>
<polygon fill="#191970" stroke="#191970" points="707.9352,-79.7931 717.3327,-74.9004 706.9352,-72.8649 707.9352,-79.7931"/>
</g>
<!-- Node12 -->
<g id="node13" class="node">
<title>Node12</title>
<polygon fill="none" stroke="#bfbfbf" points="607.5,-.5 607.5,-19.5 666.5,-19.5 666.5,-.5 607.5,-.5"/>
<text text-anchor="middle" x="637" y="-7.5" font-family="Helvetica,sans-Serif" font-size="10.00" fill="#000000">Rtypes.h</text>
</g>
<!-- Node11&#45;&gt;Node12 -->
<g id="edge13" class="edge">
<title>Node11&#45;&gt;Node12</title>
<path fill="none" stroke="#191970" d="M637,-56.2455C637,-48.9382 637,-38.6944 637,-29.7046"/>
<polygon fill="#191970" stroke="#191970" points="640.5001,-29.6426 637,-19.6427 633.5001,-29.6427 640.5001,-29.6426"/>
</g>
<!-- Node14 -->
<g id="node15" class="node">
<title>Node14</title>
<polygon fill="none" stroke="#bfbfbf" points="717,-.5 717,-19.5 777,-19.5 777,-.5 717,-.5"/>
<text text-anchor="middle" x="747" y="-7.5" font-family="Helvetica,sans-Serif" font-size="10.00" fill="#000000">iostream</text>
</g>
<!-- Node13&#45;&gt;Node14 -->
<g id="edge15" class="edge">
<title>Node13&#45;&gt;Node14</title>
<path fill="none" stroke="#191970" d="M773.426,-56.2455C769.0669,-48.617 762.8789,-37.7881 757.5867,-28.5267"/>
<polygon fill="#191970" stroke="#191970" points="760.5104,-26.5886 752.5101,-19.6427 754.4327,-30.0616 760.5104,-26.5886"/>
</g>
<!-- Node15 -->
<g id="node16" class="node">
<title>Node15</title>
<polygon fill="none" stroke="#bfbfbf" points="795,-.5 795,-19.5 841,-19.5 841,-.5 795,-.5"/>
<text text-anchor="middle" x="818" y="-7.5" font-family="Helvetica,sans-Serif" font-size="10.00" fill="#000000">cstdio</text>
</g>
<!-- Node13&#45;&gt;Node15 -->
<g id="edge16" class="edge">
<title>Node13&#45;&gt;Node15</title>
<path fill="none" stroke="#191970" d="M785.7933,-56.2455C791.2178,-48.4564 798.9661,-37.3308 805.5033,-27.9439"/>
<polygon fill="#191970" stroke="#191970" points="808.4417,-29.849 811.2846,-19.6427 802.6975,-25.8485 808.4417,-29.849"/>
</g>
</g>
</svg>
