<?xml version="1.0" encoding="UTF-8" standalone="no"?>
<!DOCTYPE svg PUBLIC "-//W3C//DTD SVG 1.1//EN"
 "http://www.w3.org/Graphics/SVG/1.1/DTD/svg11.dtd">
<!-- Generated by graphviz version 2.40.1 (20161225.0304)
 -->
<!-- Title: /home/travis/build/AliceO2Group/AliceO2/GPU/TPCFastTransformation/test/testSplines.cxx Pages: 1 -->
<svg width="840pt" height="341pt"
 viewBox="0.00 0.00 840.00 341.00" xmlns="http://www.w3.org/2000/svg" xmlns:xlink="http://www.w3.org/1999/xlink">
<g id="graph0" class="graph" transform="scale(1 1) rotate(0) translate(4 337)">
<title>/home/travis/build/AliceO2Group/AliceO2/GPU/TPCFastTransformation/test/testSplines.cxx</title>
<!-- Node0 -->
<g id="node1" class="node">
<title>Node0</title>
<polygon fill="#bfbfbf" stroke="#000000" points="162.5,-280.5 162.5,-332.5 317.5,-332.5 317.5,-280.5 162.5,-280.5"/>
<text text-anchor="start" x="170.5" y="-320.5" font-family="Helvetica,sans-Serif" font-size="10.00" fill="#000000">/home/travis/build</text>
<text text-anchor="start" x="170.5" y="-309.5" font-family="Helvetica,sans-Serif" font-size="10.00" fill="#000000">/AliceO2Group/AliceO2</text>
<text text-anchor="start" x="170.5" y="-298.5" font-family="Helvetica,sans-Serif" font-size="10.00" fill="#000000">/GPU/TPCFastTransformation</text>
<text text-anchor="middle" x="240" y="-287.5" font-family="Helvetica,sans-Serif" font-size="10.00" fill="#000000">/test/testSplines.cxx</text>
</g>
<!-- Node1 -->
<g id="node2" class="node">
<title>Node1</title>
<polygon fill="none" stroke="#bfbfbf" points="80,-224.5 80,-243.5 212,-243.5 212,-224.5 80,-224.5"/>
<text text-anchor="middle" x="146" y="-231.5" font-family="Helvetica,sans-Serif" font-size="10.00" fill="#000000">boost/test/unit_test.hpp</text>
</g>
<!-- Node0&#45;&gt;Node1 -->
<g id="edge1" class="edge">
<title>Node0&#45;&gt;Node1</title>
<path fill="none" stroke="#191970" d="M206.0638,-280.3258C192.8215,-270.1123 178.0761,-258.7396 166.5094,-249.8184"/>
<polygon fill="#191970" stroke="#191970" points="168.4173,-246.8699 158.3613,-243.534 164.1422,-252.4128 168.4173,-246.8699"/>
</g>
<!-- Node2 -->
<g id="node3" class="node">
<title>Node2</title>
<g id="a_node3"><a xlink:href="../../de/da6/Spline1D_8h.html" target="_top" xlink:title="Definition of Spline1D class. ">
<polygon fill="none" stroke="#000000" points="205.5,-168.5 205.5,-187.5 274.5,-187.5 274.5,-168.5 205.5,-168.5"/>
<text text-anchor="middle" x="240" y="-175.5" font-family="Helvetica,sans-Serif" font-size="10.00" fill="#000000">Spline1D.h</text>
</a>
</g>
</g>
<!-- Node0&#45;&gt;Node2 -->
<g id="edge2" class="edge">
<title>Node0&#45;&gt;Node2</title>
<path fill="none" stroke="#191970" d="M240,-280.4961C240,-256.0156 240,-219.8881 240,-197.7068"/>
<polygon fill="#191970" stroke="#191970" points="243.5001,-197.5141 240,-187.5142 236.5001,-197.5142 243.5001,-197.5141"/>
</g>
<!-- Node18 -->
<g id="node19" class="node">
<title>Node18</title>
<g id="a_node19"><a xlink:href="../../dd/d27/Spline2D_8h.html" target="_top" xlink:title="Definition of Spline2D class. ">
<polygon fill="none" stroke="#000000" points="268.5,-224.5 268.5,-243.5 337.5,-243.5 337.5,-224.5 268.5,-224.5"/>
<text text-anchor="middle" x="303" y="-231.5" font-family="Helvetica,sans-Serif" font-size="10.00" fill="#000000">Spline2D.h</text>
</a>
</g>
</g>
<!-- Node0&#45;&gt;Node18 -->
<g id="edge19" class="edge">
<title>Node0&#45;&gt;Node18</title>
<path fill="none" stroke="#191970" d="M262.7444,-280.3258C271.1846,-270.613 280.5357,-259.8518 288.0993,-251.1476"/>
<polygon fill="#191970" stroke="#191970" points="290.7979,-253.3781 294.7153,-243.534 285.5141,-248.7866 290.7979,-253.3781"/>
</g>
<!-- Node3 -->
<g id="node4" class="node">
<title>Node3</title>
<g id="a_node4"><a xlink:href="../../df/d21/GPUCommonDef_8h.html" target="_top" xlink:title="GPUCommonDef.h">
<polygon fill="none" stroke="#000000" points="85.5,-56.5 85.5,-75.5 192.5,-75.5 192.5,-56.5 85.5,-56.5"/>
<text text-anchor="middle" x="139" y="-63.5" font-family="Helvetica,sans-Serif" font-size="10.00" fill="#000000">GPUCommonDef.h</text>
</a>
</g>
</g>
<!-- Node2&#45;&gt;Node3 -->
<g id="edge3" class="edge">
<title>Node2&#45;&gt;Node3</title>
<path fill="none" stroke="#191970" d="M230.9577,-168.1568C222.4316,-158.8612 209.3093,-144.518 198,-132 183.1538,-115.5671 166.3281,-96.7232 154.4549,-83.3888"/>
<polygon fill="#191970" stroke="#191970" points="157.0262,-81.0133 147.7642,-75.8689 151.7966,-85.6664 157.0262,-81.0133"/>
</g>
<!-- Node6 -->
<g id="node7" class="node">
<title>Node6</title>
<g id="a_node7"><a xlink:href="../../db/dff/FlatObject_8h.html" target="_top" xlink:title="Definition of FlatObject class. ">
<polygon fill="none" stroke="#000000" points="338.5,-112.5 338.5,-131.5 413.5,-131.5 413.5,-112.5 338.5,-112.5"/>
<text text-anchor="middle" x="376" y="-119.5" font-family="Helvetica,sans-Serif" font-size="10.00" fill="#000000">FlatObject.h</text>
</a>
</g>
</g>
<!-- Node2&#45;&gt;Node6 -->
<g id="edge6" class="edge">
<title>Node2&#45;&gt;Node6</title>
<path fill="none" stroke="#191970" d="M263.3792,-168.3733C285.5045,-159.2629 318.9134,-145.5062 343.6019,-135.3404"/>
<polygon fill="#191970" stroke="#191970" points="345.0117,-138.5451 352.9258,-131.5011 342.3464,-132.0723 345.0117,-138.5451"/>
</g>
<!-- Node17 -->
<g id="node18" class="node">
<title>Node17</title>
<polygon fill="none" stroke="#bfbfbf" points="207.5,-112.5 207.5,-131.5 272.5,-131.5 272.5,-112.5 207.5,-112.5"/>
<text text-anchor="middle" x="240" y="-119.5" font-family="Helvetica,sans-Serif" font-size="10.00" fill="#000000">functional</text>
</g>
<!-- Node2&#45;&gt;Node17 -->
<g id="edge18" class="edge">
<title>Node2&#45;&gt;Node17</title>
<path fill="none" stroke="#191970" d="M240,-168.2455C240,-160.9382 240,-150.6944 240,-141.7046"/>
<polygon fill="#191970" stroke="#191970" points="243.5001,-141.6426 240,-131.6427 236.5001,-141.6427 243.5001,-141.6426"/>
</g>
<!-- Node4 -->
<g id="node5" class="node">
<title>Node4</title>
<g id="a_node5"><a xlink:href="../../d5/d93/GPUCommonDefSettings_8h.html" target="_top" xlink:title="GPUCommonDefSettings.h">
<polygon fill="none" stroke="#000000" points="142,-.5 142,-19.5 290,-19.5 290,-.5 142,-.5"/>
<text text-anchor="middle" x="216" y="-7.5" font-family="Helvetica,sans-Serif" font-size="10.00" fill="#000000">GPUCommonDefSettings.h</text>
</a>
</g>
</g>
<!-- Node3&#45;&gt;Node4 -->
<g id="edge4" class="edge">
<title>Node3&#45;&gt;Node4</title>
<path fill="none" stroke="#191970" d="M152.4124,-56.2455C164.0057,-47.814 180.9748,-35.4729 194.4678,-25.6598"/>
<polygon fill="#191970" stroke="#191970" points="196.7126,-28.355 202.7413,-19.6427 192.5953,-22.6938 196.7126,-28.355"/>
</g>
<!-- Node5 -->
<g id="node6" class="node">
<title>Node5</title>
<g id="a_node6"><a xlink:href="../../da/d5a/GPUCommonDefAPI_8h.html" target="_top" xlink:title="GPUCommonDefAPI.h">
<polygon fill="none" stroke="#000000" points="0,-.5 0,-19.5 124,-19.5 124,-.5 0,-.5"/>
<text text-anchor="middle" x="62" y="-7.5" font-family="Helvetica,sans-Serif" font-size="10.00" fill="#000000">GPUCommonDefAPI.h</text>
</a>
</g>
</g>
<!-- Node3&#45;&gt;Node5 -->
<g id="edge5" class="edge">
<title>Node3&#45;&gt;Node5</title>
<path fill="none" stroke="#191970" d="M125.5876,-56.2455C113.9943,-47.814 97.0252,-35.4729 83.5322,-25.6598"/>
<polygon fill="#191970" stroke="#191970" points="85.4047,-22.6938 75.2587,-19.6427 81.2874,-28.355 85.4047,-22.6938"/>
</g>
<!-- Node6&#45;&gt;Node3 -->
<g id="edge12" class="edge">
<title>Node6&#45;&gt;Node3</title>
<path fill="none" stroke="#191970" d="M338.4466,-113.1266C298.16,-103.6074 233.9634,-88.4386 189.3258,-77.8913"/>
<polygon fill="#191970" stroke="#191970" points="190.0892,-74.4754 179.5523,-75.582 188.4795,-81.2878 190.0892,-74.4754"/>
</g>
<!-- Node7 -->
<g id="node8" class="node">
<title>Node7</title>
<polygon fill="none" stroke="#bfbfbf" points="210.5,-56.5 210.5,-75.5 263.5,-75.5 263.5,-56.5 210.5,-56.5"/>
<text text-anchor="middle" x="237" y="-63.5" font-family="Helvetica,sans-Serif" font-size="10.00" fill="#000000">cstddef</text>
</g>
<!-- Node6&#45;&gt;Node7 -->
<g id="edge7" class="edge">
<title>Node6&#45;&gt;Node7</title>
<path fill="none" stroke="#191970" d="M352.105,-112.3733C329.4918,-103.2629 295.3458,-89.5062 270.1127,-79.3404"/>
<polygon fill="#191970" stroke="#191970" points="271.1666,-75.9917 260.5831,-75.5011 268.5507,-82.4845 271.1666,-75.9917"/>
</g>
<!-- Node8 -->
<g id="node9" class="node">
<title>Node8</title>
<polygon fill="none" stroke="#bfbfbf" points="282,-56.5 282,-75.5 340,-75.5 340,-56.5 282,-56.5"/>
<text text-anchor="middle" x="311" y="-63.5" font-family="Helvetica,sans-Serif" font-size="10.00" fill="#000000">memory</text>
</g>
<!-- Node6&#45;&gt;Node8 -->
<g id="edge8" class="edge">
<title>Node6&#45;&gt;Node8</title>
<path fill="none" stroke="#191970" d="M364.6779,-112.2455C355.0777,-103.9746 341.1108,-91.9416 329.8305,-82.2232"/>
<polygon fill="#191970" stroke="#191970" points="332.053,-79.5182 322.1924,-75.6427 327.484,-84.8214 332.053,-79.5182"/>
</g>
<!-- Node9 -->
<g id="node10" class="node">
<title>Node9</title>
<polygon fill="none" stroke="#bfbfbf" points="358,-56.5 358,-75.5 408,-75.5 408,-56.5 358,-56.5"/>
<text text-anchor="middle" x="383" y="-63.5" font-family="Helvetica,sans-Serif" font-size="10.00" fill="#000000">cstring</text>
</g>
<!-- Node6&#45;&gt;Node9 -->
<g id="edge9" class="edge">
<title>Node6&#45;&gt;Node9</title>
<path fill="none" stroke="#191970" d="M377.2193,-112.2455C378.1327,-104.9382 379.4132,-94.6944 380.5369,-85.7046"/>
<polygon fill="#191970" stroke="#191970" points="384.0272,-85.9996 381.7947,-75.6427 377.0813,-85.1313 384.0272,-85.9996"/>
</g>
<!-- Node10 -->
<g id="node11" class="node">
<title>Node10</title>
<polygon fill="none" stroke="#bfbfbf" points="426,-56.5 426,-75.5 478,-75.5 478,-56.5 426,-56.5"/>
<text text-anchor="middle" x="452" y="-63.5" font-family="Helvetica,sans-Serif" font-size="10.00" fill="#000000">cassert</text>
</g>
<!-- Node6&#45;&gt;Node10 -->
<g id="edge10" class="edge">
<title>Node6&#45;&gt;Node10</title>
<path fill="none" stroke="#191970" d="M389.2382,-112.2455C400.681,-103.814 417.4296,-91.4729 430.7475,-81.6598"/>
<polygon fill="#191970" stroke="#191970" points="432.9391,-84.3924 438.9135,-75.6427 428.7867,-78.757 432.9391,-84.3924"/>
</g>
<!-- Node11 -->
<g id="node12" class="node">
<title>Node11</title>
<polygon fill="none" stroke="#bfbfbf" points="496,-56.5 496,-75.5 544,-75.5 544,-56.5 496,-56.5"/>
<text text-anchor="middle" x="520" y="-63.5" font-family="Helvetica,sans-Serif" font-size="10.00" fill="#000000">TFile.h</text>
</g>
<!-- Node6&#45;&gt;Node11 -->
<g id="edge11" class="edge">
<title>Node6&#45;&gt;Node11</title>
<path fill="none" stroke="#191970" d="M400.7545,-112.3733C424.2849,-103.2226 459.8687,-89.3844 486.0426,-79.2057"/>
<polygon fill="#191970" stroke="#191970" points="487.5171,-82.3877 495.5685,-75.5011 484.9799,-75.8636 487.5171,-82.3877"/>
</g>
<!-- Node12 -->
<g id="node13" class="node">
<title>Node12</title>
<g id="a_node13"><a xlink:href="../../d2/d45/GPUCommonRtypes_8h.html" target="_top" xlink:title="GPUCommonRtypes.h">
<polygon fill="none" stroke="#000000" points="562.5,-56.5 562.5,-75.5 687.5,-75.5 687.5,-56.5 562.5,-56.5"/>
<text text-anchor="middle" x="625" y="-63.5" font-family="Helvetica,sans-Serif" font-size="10.00" fill="#000000">GPUCommonRtypes.h</text>
</a>
</g>
</g>
<!-- Node6&#45;&gt;Node12 -->
<g id="edge13" class="edge">
<title>Node6&#45;&gt;Node12</title>
<path fill="none" stroke="#191970" d="M413.5474,-113.5556C455.9114,-104.028 525.1039,-88.4666 572.7333,-77.7548"/>
<polygon fill="#191970" stroke="#191970" points="573.5639,-81.1555 582.5522,-75.5465 572.0279,-74.326 573.5639,-81.1555"/>
</g>
<!-- Node14 -->
<g id="node15" class="node">
<title>Node14</title>
<g id="a_node15"><a xlink:href="../../df/d5b/GPUCommonLogger_8h.html" target="_top" xlink:title="GPUCommonLogger.h">
<polygon fill="none" stroke="#000000" points="705.5,-56.5 705.5,-75.5 828.5,-75.5 828.5,-56.5 705.5,-56.5"/>
<text text-anchor="middle" x="767" y="-63.5" font-family="Helvetica,sans-Serif" font-size="10.00" fill="#000000">GPUCommonLogger.h</text>
</a>
</g>
</g>
<!-- Node6&#45;&gt;Node14 -->
<g id="edge15" class="edge">
<title>Node6&#45;&gt;Node14</title>
<path fill="none" stroke="#191970" d="M413.846,-116.5796C478.6985,-107.2913 612.0863,-88.1871 695.0902,-76.2991"/>
<polygon fill="#191970" stroke="#191970" points="695.8019,-79.733 705.2046,-74.8505 694.8094,-72.8037 695.8019,-79.733"/>
</g>
<!-- Node13 -->
<g id="node14" class="node">
<title>Node13</title>
<polygon fill="none" stroke="#bfbfbf" points="595.5,-.5 595.5,-19.5 654.5,-19.5 654.5,-.5 595.5,-.5"/>
<text text-anchor="middle" x="625" y="-7.5" font-family="Helvetica,sans-Serif" font-size="10.00" fill="#000000">Rtypes.h</text>
</g>
<!-- Node12&#45;&gt;Node13 -->
<g id="edge14" class="edge">
<title>Node12&#45;&gt;Node13</title>
<path fill="none" stroke="#191970" d="M625,-56.2455C625,-48.9382 625,-38.6944 625,-29.7046"/>
<polygon fill="#191970" stroke="#191970" points="628.5001,-29.6426 625,-19.6427 621.5001,-29.6427 628.5001,-29.6426"/>
</g>
<!-- Node15 -->
<g id="node16" class="node">
<title>Node15</title>
<polygon fill="none" stroke="#bfbfbf" points="772,-.5 772,-19.5 832,-19.5 832,-.5 772,-.5"/>
<text text-anchor="middle" x="802" y="-7.5" font-family="Helvetica,sans-Serif" font-size="10.00" fill="#000000">iostream</text>
</g>
<!-- Node14&#45;&gt;Node15 -->
<g id="edge16" class="edge">
<title>Node14&#45;&gt;Node15</title>
<path fill="none" stroke="#191970" d="M773.0965,-56.2455C777.9145,-48.5367 784.7751,-37.5598 790.6032,-28.2348"/>
<polygon fill="#191970" stroke="#191970" points="793.6413,-29.9777 795.9733,-19.6427 787.7053,-26.2677 793.6413,-29.9777"/>
</g>
<!-- Node16 -->
<g id="node17" class="node">
<title>Node16</title>
<polygon fill="none" stroke="#bfbfbf" points="708,-.5 708,-19.5 754,-19.5 754,-.5 708,-.5"/>
<text text-anchor="middle" x="731" y="-7.5" font-family="Helvetica,sans-Serif" font-size="10.00" fill="#000000">cstdio</text>
</g>
<!-- Node14&#45;&gt;Node16 -->
<g id="edge17" class="edge">
<title>Node14&#45;&gt;Node16</title>
<path fill="none" stroke="#191970" d="M760.7293,-56.2455C755.7736,-48.5367 748.717,-37.5598 742.7224,-28.2348"/>
<polygon fill="#191970" stroke="#191970" points="745.5506,-26.1618 737.1989,-19.6427 739.6624,-29.9471 745.5506,-26.1618"/>
</g>
<!-- Node18&#45;&gt;Node2 -->
<g id="edge20" class="edge">
<title>Node18&#45;&gt;Node2</title>
<path fill="none" stroke="#191970" d="M292.0262,-224.2455C282.8118,-216.0549 269.4468,-204.1749 258.5703,-194.5069"/>
<polygon fill="#191970" stroke="#191970" points="260.6474,-191.6704 250.848,-187.6427 255.9968,-196.9023 260.6474,-191.6704"/>
</g>
<!-- Node18&#45;&gt;Node3 -->
<g id="edge22" class="edge">
<title>Node18&#45;&gt;Node3</title>
<path fill="none" stroke="#191970" d="M304.3904,-224.3808C307.083,-201.7891 310.4635,-144.7811 282,-112 270.3284,-98.5579 230.4359,-86.3705 195.7421,-77.9224"/>
<polygon fill="#191970" stroke="#191970" points="196.1896,-74.4317 185.6521,-75.5324 194.5761,-81.2432 196.1896,-74.4317"/>
</g>
<!-- Node18&#45;&gt;Node6 -->
<g id="edge21" class="edge">
<title>Node18&#45;&gt;Node6</title>
<path fill="none" stroke="#191970" d="M309.2239,-224.4509C321.3995,-205.7707 348.5443,-164.1238 364.2182,-140.0761"/>
<polygon fill="#191970" stroke="#191970" points="367.2635,-141.8137 369.7918,-131.5249 361.3992,-137.9913 367.2635,-141.8137"/>
</g>
</g>
</svg>
