<?xml version="1.0" encoding="UTF-8" standalone="no"?>
<!DOCTYPE svg PUBLIC "-//W3C//DTD SVG 1.1//EN"
 "http://www.w3.org/Graphics/SVG/1.1/DTD/svg11.dtd">
<!-- Generated by graphviz version 2.40.1 (20161225.0304)
 -->
<!-- Title: /home/travis/build/AliceO2Group/AliceO2/Detectors/ITSMFT/MFT/tracking/src/TrackExtrap.cxx Pages: 1 -->
<!--zoomable 620 -->
<svg id="main" version="1.1" xmlns="http://www.w3.org/2000/svg" xmlns:xlink="http://www.w3.org/1999/xlink" xml:space="preserve" onload="init(evt)">
<style type="text/css"><![CDATA[
.edge:hover path { stroke: red; }
.edge:hover polygon { stroke: red; fill: red; }
]]></style>
<script type="text/javascript"><![CDATA[
var edges = document.getElementsByTagName('g');
if (edges && edges.length) {
  for (var i=0;i<edges.length;i++) {
    if (edges[i].id.substr(0,4)=='edge') {
      edges[i].setAttribute('class','edge');
    }
  }
}
]]></script>
        <defs>
                <circle id="rim" cx="0" cy="0" r="7"/>
                <circle id="rim2" cx="0" cy="0" r="3.5"/>
                <g id="zoomPlus">
                        <use xlink:href="#rim" fill="#404040">
                                <set attributeName="fill" to="#808080" begin="zoomplus.mouseover" end="zoomplus.mouseout"/>
                        </use>
                        <path d="M-4,0h8M0,-4v8" fill="none" stroke="white" stroke-width="1.5" pointer-events="none"/>
                </g>
                <g id="zoomMin">
                        <use xlink:href="#rim" fill="#404040">
                                <set attributeName="fill" to="#808080" begin="zoomminus.mouseover" end="zoomminus.mouseout"/>
                        </use>
                        <path d="M-4,0h8" fill="none" stroke="white" stroke-width="1.5" pointer-events="none"/>
                </g>
                <g id="dirArrow">
                        <path fill="none" stroke="white" stroke-width="1.5" d="M0,-3.0v7 M-2.5,-0.5L0,-3.0L2.5,-0.5"/>
                </g>
               <g id="resetDef">
                       <use xlink:href="#rim2" fill="#404040">
                               <set attributeName="fill" to="#808080" begin="reset.mouseover" end="reset.mouseout"/>
                       </use>
               </g>
        </defs>

<script type="text/javascript">
var viewWidth = 2661;
var viewHeight = 620;
var sectionId = 'dynsection-0';
</script>
<script xlink:href="../../svgpan.js"/>
<svg id="graph" class="graph">
<g id="viewport">
<title>/home/travis/build/AliceO2Group/AliceO2/Detectors/ITSMFT/MFT/tracking/src/TrackExtrap.cxx</title>
<!-- Node0 -->
<g id="node1" class="node">
<title>Node0</title>
<polygon fill="#bfbfbf" stroke="#000000" points="2052,-559.5 2052,-611.5 2209,-611.5 2209,-559.5 2052,-559.5"/>
<text text-anchor="start" x="2060" y="-599.5" font-family="Helvetica,sans-Serif" font-size="10.00" fill="#000000">/home/travis/build</text>
<text text-anchor="start" x="2060" y="-588.5" font-family="Helvetica,sans-Serif" font-size="10.00" fill="#000000">/AliceO2Group/AliceO2</text>
<text text-anchor="start" x="2060" y="-577.5" font-family="Helvetica,sans-Serif" font-size="10.00" fill="#000000">/Detectors/ITSMFT/MFT</text>
<text text-anchor="middle" x="2130.5" y="-566.5" font-family="Helvetica,sans-Serif" font-size="10.00" fill="#000000">/tracking/src/TrackExtrap.cxx</text>
</g>
<!-- Node1 -->
<g id="node2" class="node">
<title>Node1</title>
<g id="a_node2"><a xlink:href="../../dc/d52/ITSMFT_2MFT_2tracking_2include_2MFTTracking_2TrackExtrap_8h.html" target="_top" xlink:title="MFTTracking/TrackExtrap.h">
<polygon fill="none" stroke="#000000" points="1540.5,-503.5 1540.5,-522.5 1686.5,-522.5 1686.5,-503.5 1540.5,-503.5"/>
<text text-anchor="middle" x="1613.5" y="-510.5" font-family="Helvetica,sans-Serif" font-size="10.00" fill="#000000">MFTTracking/TrackExtrap.h</text>
</a>
</g>
</g>
<!-- Node0&#45;&gt;Node1 -->
<g id="edge1" class="edge">
<title>Node0&#45;&gt;Node1</title>
<path fill="none" stroke="#191970" d="M2051.9788,-574.4888C1954.4443,-560.8113 1789.0468,-537.6173 1691.6738,-523.9625"/>
<polygon fill="#191970" stroke="#191970" points="1691.9867,-520.4722 1681.5975,-522.5495 1691.0145,-527.4044 1691.9867,-520.4722"/>
</g>
<!-- Node4 -->
<g id="node5" class="node">
<title>Node4</title>
<g id="a_node5"><a xlink:href="../../d3/d5b/TrackParamMFT_8h.html" target="_top" xlink:title="Definition of the MFT track parameters for internal use. ">
<polygon fill="none" stroke="#000000" points="1743,-503.5 1743,-522.5 1906,-522.5 1906,-503.5 1743,-503.5"/>
<text text-anchor="middle" x="1824.5" y="-510.5" font-family="Helvetica,sans-Serif" font-size="10.00" fill="#000000">MFTTracking/TrackParamMFT.h</text>
</a>
</g>
</g>
<!-- Node0&#45;&gt;Node4 -->
<g id="edge4" class="edge">
<title>Node0&#45;&gt;Node4</title>
<path fill="none" stroke="#191970" d="M2051.6974,-566.8294C1995.8186,-553.5902 1922.5176,-536.2231 1874.4951,-524.8452"/>
<polygon fill="#191970" stroke="#191970" points="1875.1842,-521.4117 1864.6466,-522.5119 1873.5703,-528.2231 1875.1842,-521.4117"/>
</g>
<!-- Node5 -->
<g id="node6" class="node">
<title>Node5</title>
<polygon fill="none" stroke="#bfbfbf" points="1676.5,-447.5 1676.5,-466.5 1732.5,-466.5 1732.5,-447.5 1676.5,-447.5"/>
<text text-anchor="middle" x="1704.5" y="-454.5" font-family="Helvetica,sans-Serif" font-size="10.00" fill="#000000">TMath.h</text>
</g>
<!-- Node0&#45;&gt;Node5 -->
<g id="edge61" class="edge">
<title>Node0&#45;&gt;Node5</title>
<path fill="none" stroke="#191970" d="M2051.6431,-581.7895C1950.701,-575.585 1783.0384,-559.9262 1734.5,-523 1719.8295,-511.8392 1712.1261,-491.8478 1708.2196,-476.7822"/>
<polygon fill="#191970" stroke="#191970" points="1711.6026,-475.8722 1706.0009,-466.8793 1704.772,-477.4027 1711.6026,-475.8722"/>
</g>
<!-- Node32 -->
<g id="node33" class="node">
<title>Node32</title>
<g id="a_node33"><a xlink:href="../../d6/d84/MathConstants_8h.html" target="_top" xlink:title="useful math constants ">
<polygon fill="none" stroke="#000000" points="1865.5,-118 1865.5,-137 2059.5,-137 2059.5,-118 1865.5,-118"/>
<text text-anchor="middle" x="1962.5" y="-125" font-family="Helvetica,sans-Serif" font-size="10.00" fill="#000000">CommonConstants/MathConstants.h</text>
</a>
</g>
</g>
<!-- Node0&#45;&gt;Node32 -->
<g id="edge55" class="edge">
<title>Node0&#45;&gt;Node32</title>
<path fill="none" stroke="#191970" d="M2051.8862,-561.9699C2031.5244,-552.6417 2011.2141,-539.9705 1996.5,-523 1976.4211,-499.842 1976.5,-487.6506 1976.5,-457 1976.5,-457 1976.5,-457 1976.5,-261.5 1976.5,-220.7493 1970.0161,-173.4033 1965.8734,-147.312"/>
<polygon fill="#191970" stroke="#191970" points="1969.2898,-146.5167 1964.2167,-137.2154 1962.3822,-147.6502 1969.2898,-146.5167"/>
</g>
<!-- Node44 -->
<g id="node45" class="node">
<title>Node44</title>
<polygon fill="none" stroke="#bfbfbf" points="2005,-503.5 2005,-522.5 2130,-522.5 2130,-503.5 2005,-503.5"/>
<text text-anchor="middle" x="2067.5" y="-510.5" font-family="Helvetica,sans-Serif" font-size="10.00" fill="#000000">TGeoGlobalMagField.h</text>
</g>
<!-- Node0&#45;&gt;Node44 -->
<g id="edge56" class="edge">
<title>Node0&#45;&gt;Node44</title>
<path fill="none" stroke="#191970" d="M2107.7556,-559.3258C2099.3154,-549.613 2089.9643,-538.8518 2082.4007,-530.1476"/>
<polygon fill="#191970" stroke="#191970" points="2084.9859,-527.7866 2075.7847,-522.534 2079.7021,-532.3781 2084.9859,-527.7866"/>
</g>
<!-- Node45 -->
<g id="node46" class="node">
<title>Node45</title>
<polygon fill="none" stroke="#bfbfbf" points="2148.5,-503.5 2148.5,-522.5 2240.5,-522.5 2240.5,-503.5 2148.5,-503.5"/>
<text text-anchor="middle" x="2194.5" y="-510.5" font-family="Helvetica,sans-Serif" font-size="10.00" fill="#000000">TGeoManager.h</text>
</g>
<!-- Node0&#45;&gt;Node45 -->
<g id="edge57" class="edge">
<title>Node0&#45;&gt;Node45</title>
<path fill="none" stroke="#191970" d="M2153.6055,-559.3258C2162.1796,-549.613 2171.6791,-538.8518 2179.3628,-530.1476"/>
<polygon fill="#191970" stroke="#191970" points="2182.0897,-532.3472 2186.0838,-522.534 2176.8419,-527.7146 2182.0897,-532.3472"/>
</g>
<!-- Node46 -->
<g id="node47" class="node">
<title>Node46</title>
<polygon fill="none" stroke="#bfbfbf" points="2259,-503.5 2259,-522.5 2350,-522.5 2350,-503.5 2259,-503.5"/>
<text text-anchor="middle" x="2304.5" y="-510.5" font-family="Helvetica,sans-Serif" font-size="10.00" fill="#000000">TGeoMaterial.h</text>
</g>
<!-- Node0&#45;&gt;Node46 -->
<g id="edge58" class="edge">
<title>Node0&#45;&gt;Node46</title>
<path fill="none" stroke="#191970" d="M2193.318,-559.3258C2220.1135,-548.161 2250.2335,-535.6111 2272.3582,-526.3924"/>
<polygon fill="#191970" stroke="#191970" points="2273.7338,-529.611 2281.6184,-522.534 2271.0414,-523.1494 2273.7338,-529.611"/>
</g>
<!-- Node47 -->
<g id="node48" class="node">
<title>Node47</title>
<polygon fill="none" stroke="#bfbfbf" points="2368,-503.5 2368,-522.5 2445,-522.5 2445,-503.5 2368,-503.5"/>
<text text-anchor="middle" x="2406.5" y="-510.5" font-family="Helvetica,sans-Serif" font-size="10.00" fill="#000000">TGeoNode.h</text>
</g>
<!-- Node0&#45;&gt;Node47 -->
<g id="edge59" class="edge">
<title>Node0&#45;&gt;Node47</title>
<path fill="none" stroke="#191970" d="M2209.2212,-564.8214C2258.0901,-551.9845 2319.2041,-535.931 2360.3556,-525.1213"/>
<polygon fill="#191970" stroke="#191970" points="2361.3269,-528.4849 2370.1096,-522.5591 2359.5484,-521.7146 2361.3269,-528.4849"/>
</g>
<!-- Node48 -->
<g id="node49" class="node">
<title>Node48</title>
<polygon fill="none" stroke="#bfbfbf" points="2463,-503.5 2463,-522.5 2544,-522.5 2544,-503.5 2463,-503.5"/>
<text text-anchor="middle" x="2503.5" y="-510.5" font-family="Helvetica,sans-Serif" font-size="10.00" fill="#000000">TGeoShape.h</text>
</g>
<!-- Node0&#45;&gt;Node48 -->
<g id="edge60" class="edge">
<title>Node0&#45;&gt;Node48</title>
<path fill="none" stroke="#191970" d="M2209.1111,-570.5809C2272.3815,-558.5164 2363.8762,-540.9433 2452.8687,-523.3109"/>
<polygon fill="#191970" stroke="#191970" points="2453.737,-526.7069 2462.8648,-521.3279 2452.3749,-519.8407 2453.737,-526.7069"/>
</g>
<!-- Node49 -->
<g id="node50" class="node">
<title>Node49</title>
<polygon fill="none" stroke="#bfbfbf" points="2562,-503.5 2562,-522.5 2653,-522.5 2653,-503.5 2562,-503.5"/>
<text text-anchor="middle" x="2607.5" y="-510.5" font-family="Helvetica,sans-Serif" font-size="10.00" fill="#000000">FairMQLogger.h</text>
</g>
<!-- Node0&#45;&gt;Node49 -->
<g id="edge62" class="edge">
<title>Node0&#45;&gt;Node49</title>
<path fill="none" stroke="#191970" d="M2209.3746,-574.7209C2292.193,-563.2041 2426.4625,-543.9715 2551.7016,-523.2593"/>
<polygon fill="#191970" stroke="#191970" points="2552.5638,-526.6642 2561.8555,-521.5735 2551.4172,-519.7587 2552.5638,-526.6642"/>
</g>
<!-- Node2 -->
<g id="node3" class="node">
<title>Node2</title>
<polygon fill="none" stroke="#bfbfbf" points="1517,-447.5 1517,-466.5 1570,-466.5 1570,-447.5 1517,-447.5"/>
<text text-anchor="middle" x="1543.5" y="-454.5" font-family="Helvetica,sans-Serif" font-size="10.00" fill="#000000">cstddef</text>
</g>
<!-- Node1&#45;&gt;Node2 -->
<g id="edge2" class="edge">
<title>Node1&#45;&gt;Node2</title>
<path fill="none" stroke="#191970" d="M1601.3069,-503.2455C1590.8679,-494.8943 1575.6345,-482.7076 1563.426,-472.9408"/>
<polygon fill="#191970" stroke="#191970" points="1565.5485,-470.1566 1555.5533,-466.6427 1561.1756,-475.6227 1565.5485,-470.1566"/>
</g>
<!-- Node3 -->
<g id="node4" class="node">
<title>Node3</title>
<polygon fill="none" stroke="#bfbfbf" points="1588.5,-447.5 1588.5,-466.5 1658.5,-466.5 1658.5,-447.5 1588.5,-447.5"/>
<text text-anchor="middle" x="1623.5" y="-454.5" font-family="Helvetica,sans-Serif" font-size="10.00" fill="#000000">TMatrixD.h</text>
</g>
<!-- Node1&#45;&gt;Node3 -->
<g id="edge3" class="edge">
<title>Node1&#45;&gt;Node3</title>
<path fill="none" stroke="#191970" d="M1615.2419,-503.2455C1616.5467,-495.9382 1618.376,-485.6944 1619.9813,-476.7046"/>
<polygon fill="#191970" stroke="#191970" points="1623.4656,-477.1022 1621.7781,-466.6427 1616.5746,-475.8717 1623.4656,-477.1022"/>
</g>
<!-- Node4&#45;&gt;Node3 -->
<g id="edge5" class="edge">
<title>Node4&#45;&gt;Node3</title>
<path fill="none" stroke="#191970" d="M1789.9469,-503.3733C1756.0896,-493.9404 1704.354,-479.5265 1667.5574,-469.2747"/>
<polygon fill="#191970" stroke="#191970" points="1668.1747,-465.8135 1657.6022,-466.5011 1666.296,-472.5566 1668.1747,-465.8135"/>
</g>
<!-- Node4&#45;&gt;Node5 -->
<g id="edge6" class="edge">
<title>Node4&#45;&gt;Node5</title>
<path fill="none" stroke="#191970" d="M1803.8713,-503.3733C1784.6081,-494.3838 1755.6514,-480.8706 1733.9581,-470.7471"/>
<polygon fill="#191970" stroke="#191970" points="1735.4015,-467.5584 1724.8595,-466.5011 1732.4413,-473.9017 1735.4015,-467.5584"/>
</g>
<!-- Node6 -->
<g id="node7" class="node">
<title>Node6</title>
<g id="a_node7"><a xlink:href="../../d1/d62/DataFormats_2Detectors_2ITSMFT_2common_2include_2DataFormatsITSMFT_2Cluster_8h.html" target="_top" xlink:title="DataFormatsITSMFT/Cluster.h">
<polygon fill="none" stroke="#000000" points="1788.5,-447.5 1788.5,-466.5 1948.5,-466.5 1948.5,-447.5 1788.5,-447.5"/>
<text text-anchor="middle" x="1868.5" y="-454.5" font-family="Helvetica,sans-Serif" font-size="10.00" fill="#000000">DataFormatsITSMFT/Cluster.h</text>
</a>
</g>
</g>
<!-- Node4&#45;&gt;Node6 -->
<g id="edge7" class="edge">
<title>Node4&#45;&gt;Node6</title>
<path fill="none" stroke="#191970" d="M1832.1642,-503.2455C1838.3473,-495.3761 1847.2063,-484.101 1854.6289,-474.6542"/>
<polygon fill="#191970" stroke="#191970" points="1857.4975,-476.6683 1860.9236,-466.6427 1851.9932,-472.3435 1857.4975,-476.6683"/>
</g>
<!-- Node43 -->
<g id="node44" class="node">
<title>Node43</title>
<g id="a_node44"><a xlink:href="../../dc/de5/Detectors_2ITSMFT_2MFT_2base_2include_2MFTBase_2Constants_8h.html" target="_top" xlink:title="MFTBase/Constants.h">
<polygon fill="none" stroke="#000000" points="1214,-386 1214,-405 1335,-405 1335,-386 1214,-386"/>
<text text-anchor="middle" x="1274.5" y="-393" font-family="Helvetica,sans-Serif" font-size="10.00" fill="#000000">MFTBase/Constants.h</text>
</a>
</g>
</g>
<!-- Node4&#45;&gt;Node43 -->
<g id="edge53" class="edge">
<title>Node4&#45;&gt;Node43</title>
<path fill="none" stroke="#191970" d="M1815.9526,-503.2795C1802.051,-488.2187 1772.9188,-459.6631 1741.5,-447 1584.154,-383.5831 1529.5928,-433.897 1361.5,-411 1352.569,-409.7835 1343.1553,-408.309 1333.9506,-406.759"/>
<polygon fill="#191970" stroke="#191970" points="1334.5268,-403.3068 1324.0774,-405.0561 1333.337,-410.2049 1334.5268,-403.3068"/>
</g>
<!-- Node7 -->
<g id="node8" class="node">
<title>Node7</title>
<g id="a_node8"><a xlink:href="../../d4/de2/BaseCluster_8h.html" target="_top" xlink:title="ReconstructionDataFormats\l/BaseCluster.h">
<polygon fill="none" stroke="#000000" points="1370.5,-380.5 1370.5,-410.5 1522.5,-410.5 1522.5,-380.5 1370.5,-380.5"/>
<text text-anchor="start" x="1378.5" y="-398.5" font-family="Helvetica,sans-Serif" font-size="10.00" fill="#000000">ReconstructionDataFormats</text>
<text text-anchor="middle" x="1446.5" y="-387.5" font-family="Helvetica,sans-Serif" font-size="10.00" fill="#000000">/BaseCluster.h</text>
</a>
</g>
</g>
<!-- Node6&#45;&gt;Node7 -->
<g id="edge8" class="edge">
<title>Node6&#45;&gt;Node7</title>
<path fill="none" stroke="#191970" d="M1803.0255,-447.4581C1730.4275,-436.8781 1613.0162,-419.7672 1532.9192,-408.0943"/>
<polygon fill="#191970" stroke="#191970" points="1533.2534,-404.6061 1522.8532,-406.6273 1532.2439,-411.5329 1533.2534,-404.6061"/>
</g>
<!-- Node8 -->
<g id="node9" class="node">
<title>Node8</title>
<polygon fill="none" stroke="#bfbfbf" points="1271,-319 1271,-338 1334,-338 1334,-319 1271,-319"/>
<text text-anchor="middle" x="1302.5" y="-326" font-family="Helvetica,sans-Serif" font-size="10.00" fill="#000000">TObject.h</text>
</g>
<!-- Node7&#45;&gt;Node8 -->
<g id="edge9" class="edge">
<title>Node7&#45;&gt;Node8</title>
<path fill="none" stroke="#191970" d="M1414.1836,-380.4639C1389.6957,-369.0702 1356.3016,-353.5327 1332.4216,-342.4219"/>
<polygon fill="#191970" stroke="#191970" points="1333.6844,-339.1492 1323.1413,-338.1039 1330.7314,-345.4958 1333.6844,-339.1492"/>
</g>
<!-- Node9 -->
<g id="node10" class="node">
<title>Node9</title>
<polygon fill="none" stroke="#bfbfbf" points="1762.5,-185 1762.5,-204 1806.5,-204 1806.5,-185 1762.5,-185"/>
<text text-anchor="middle" x="1784.5" y="-192" font-family="Helvetica,sans-Serif" font-size="10.00" fill="#000000">bitset</text>
</g>
<!-- Node7&#45;&gt;Node9 -->
<g id="edge10" class="edge">
<title>Node7&#45;&gt;Node9</title>
<path fill="none" stroke="#191970" d="M1522.7966,-388.3224C1564.7148,-381.6503 1616.2165,-368.7872 1656.5,-344 1711.3548,-310.2469 1754.8263,-245.1447 1773.937,-213.1601"/>
<polygon fill="#191970" stroke="#191970" points="1777.0507,-214.7688 1779.0715,-204.3685 1771.006,-211.2386 1777.0507,-214.7688"/>
</g>
<!-- Node10 -->
<g id="node11" class="node">
<title>Node10</title>
<polygon fill="none" stroke="#bfbfbf" points="1352.5,-319 1352.5,-338 1408.5,-338 1408.5,-319 1352.5,-319"/>
<text text-anchor="middle" x="1380.5" y="-326" font-family="Helvetica,sans-Serif" font-size="10.00" fill="#000000">iomanip</text>
</g>
<!-- Node7&#45;&gt;Node10 -->
<g id="edge11" class="edge">
<title>Node7&#45;&gt;Node10</title>
<path fill="none" stroke="#191970" d="M1431.5236,-380.2967C1421.2405,-369.8578 1407.5892,-355.9997 1396.9947,-345.2446"/>
<polygon fill="#191970" stroke="#191970" points="1399.4235,-342.7228 1389.9124,-338.055 1394.4367,-347.6352 1399.4235,-342.7228"/>
</g>
<!-- Node11 -->
<g id="node12" class="node">
<title>Node11</title>
<polygon fill="none" stroke="#bfbfbf" points="1616,-319 1616,-338 1647,-338 1647,-319 1616,-319"/>
<text text-anchor="middle" x="1631.5" y="-326" font-family="Helvetica,sans-Serif" font-size="10.00" fill="#000000">ios</text>
</g>
<!-- Node7&#45;&gt;Node11 -->
<g id="edge12" class="edge">
<title>Node7&#45;&gt;Node11</title>
<path fill="none" stroke="#191970" d="M1506.431,-380.4074C1537.3602,-371.6105 1575.2632,-359.2362 1607.5,-344 1608.0606,-343.7351 1608.6236,-343.459 1609.1875,-343.1737"/>
<polygon fill="#191970" stroke="#191970" points="1611.2408,-346.0298 1618.1534,-338.0007 1607.7426,-339.9666 1611.2408,-346.0298"/>
</g>
<!-- Node12 -->
<g id="node13" class="node">
<title>Node12</title>
<polygon fill="none" stroke="#bfbfbf" points="0,-185 0,-204 49,-204 49,-185 0,-185"/>
<text text-anchor="middle" x="24.5" y="-192" font-family="Helvetica,sans-Serif" font-size="10.00" fill="#000000">iosfwd</text>
</g>
<!-- Node7&#45;&gt;Node12 -->
<g id="edge13" class="edge">
<title>Node7&#45;&gt;Node12</title>
<path fill="none" stroke="#191970" d="M1370.4944,-383.7842C1361.7326,-382.4829 1352.9234,-381.1967 1344.5,-380 773.7032,-298.9108 612.6417,-369.0956 58.5,-210 56.5359,-209.4361 54.5403,-208.7763 52.5508,-208.0527"/>
<polygon fill="#191970" stroke="#191970" points="53.4068,-204.6203 42.8272,-204.0522 50.7435,-211.0938 53.4068,-204.6203"/>
</g>
<!-- Node13 -->
<g id="node14" class="node">
<title>Node13</title>
<g id="a_node14"><a xlink:href="../../d4/d20/DetMatrixCache_8h.html" target="_top" xlink:title="DetectorsCommonDataFormats\l/DetMatrixCache.h">
<polygon fill="none" stroke="#000000" points="1427,-313.5 1427,-343.5 1598,-343.5 1598,-313.5 1427,-313.5"/>
<text text-anchor="start" x="1435" y="-331.5" font-family="Helvetica,sans-Serif" font-size="10.00" fill="#000000">DetectorsCommonDataFormats</text>
<text text-anchor="middle" x="1512.5" y="-320.5" font-family="Helvetica,sans-Serif" font-size="10.00" fill="#000000">/DetMatrixCache.h</text>
</a>
</g>
</g>
<!-- Node7&#45;&gt;Node13 -->
<g id="edge14" class="edge">
<title>Node7&#45;&gt;Node13</title>
<path fill="none" stroke="#191970" d="M1461.4764,-380.2967C1469.9993,-371.6446 1480.836,-360.6438 1490.3283,-351.0076"/>
<polygon fill="#191970" stroke="#191970" points="1493.0585,-353.2234 1497.5828,-343.6432 1488.0717,-348.311 1493.0585,-353.2234"/>
</g>
<!-- Node33 -->
<g id="node34" class="node">
<title>Node33</title>
<g id="a_node34"><a xlink:href="../../dd/d76/Cartesian3D_8h.html" target="_top" xlink:title="MathUtils/Cartesian3D.h">
<polygon fill="none" stroke="#000000" points="805,-252 805,-271 940,-271 940,-252 805,-252"/>
<text text-anchor="middle" x="872.5" y="-259" font-family="Helvetica,sans-Serif" font-size="10.00" fill="#000000">MathUtils/Cartesian3D.h</text>
</a>
</g>
</g>
<!-- Node7&#45;&gt;Node33 -->
<g id="edge52" class="edge">
<title>Node7&#45;&gt;Node33</title>
<path fill="none" stroke="#191970" d="M1382.0484,-380.4538C1266.8331,-353.5569 1027.8462,-297.7655 923.3101,-273.3616"/>
<polygon fill="#191970" stroke="#191970" points="923.8577,-269.8954 913.3239,-271.0303 922.2663,-276.7121 923.8577,-269.8954"/>
</g>
<!-- Node14 -->
<g id="node15" class="node">
<title>Node14</title>
<g id="a_node15"><a xlink:href="../../df/d5b/GPUCommonLogger_8h.html" target="_top" xlink:title="GPUCommonLogger.h">
<polygon fill="none" stroke="#000000" points="1786,-252 1786,-271 1909,-271 1909,-252 1786,-252"/>
<text text-anchor="middle" x="1847.5" y="-259" font-family="Helvetica,sans-Serif" font-size="10.00" fill="#000000">GPUCommonLogger.h</text>
</a>
</g>
</g>
<!-- Node13&#45;&gt;Node14 -->
<g id="edge15" class="edge">
<title>Node13&#45;&gt;Node14</title>
<path fill="none" stroke="#191970" d="M1587.6805,-313.4639C1648.8815,-301.2237 1733.9953,-284.2009 1789.8893,-273.0221"/>
<polygon fill="#191970" stroke="#191970" points="1790.8542,-276.3986 1799.9736,-271.0053 1789.4813,-269.5345 1790.8542,-276.3986"/>
</g>
<!-- Node17 -->
<g id="node18" class="node">
<title>Node17</title>
<g id="a_node18"><a xlink:href="../../d2/d45/GPUCommonRtypes_8h.html" target="_top" xlink:title="GPUCommonRtypes.h">
<polygon fill="none" stroke="#000000" points="1222,-252 1222,-271 1347,-271 1347,-252 1222,-252"/>
<text text-anchor="middle" x="1284.5" y="-259" font-family="Helvetica,sans-Serif" font-size="10.00" fill="#000000">GPUCommonRtypes.h</text>
</a>
</g>
</g>
<!-- Node13&#45;&gt;Node17 -->
<g id="edge18" class="edge">
<title>Node13&#45;&gt;Node17</title>
<path fill="none" stroke="#191970" d="M1461.3323,-313.4639C1420.7162,-301.5284 1364.6253,-285.0456 1326.5873,-273.8678"/>
<polygon fill="#191970" stroke="#191970" points="1327.4275,-270.4667 1316.8463,-271.0053 1325.4539,-277.1828 1327.4275,-270.4667"/>
</g>
<!-- Node19 -->
<g id="node20" class="node">
<title>Node19</title>
<polygon fill="none" stroke="#bfbfbf" points="1570.5,-118 1570.5,-137 1612.5,-137 1612.5,-118 1570.5,-118"/>
<text text-anchor="middle" x="1591.5" y="-125" font-family="Helvetica,sans-Serif" font-size="10.00" fill="#000000">array</text>
</g>
<!-- Node13&#45;&gt;Node19 -->
<g id="edge20" class="edge">
<title>Node13&#45;&gt;Node19</title>
<path fill="none" stroke="#191970" d="M1564.703,-313.4592C1582.3991,-305.5907 1600.2628,-293.9444 1610.5,-277 1635.4314,-235.734 1614.626,-176.4144 1601.0103,-146.4133"/>
<polygon fill="#191970" stroke="#191970" points="1604.0372,-144.6287 1596.5808,-137.1019 1597.716,-147.6357 1604.0372,-144.6287"/>
</g>
<!-- Node20 -->
<g id="node21" class="node">
<title>Node20</title>
<polygon fill="none" stroke="#bfbfbf" points="1365,-252 1365,-271 1412,-271 1412,-252 1365,-252"/>
<text text-anchor="middle" x="1388.5" y="-259" font-family="Helvetica,sans-Serif" font-size="10.00" fill="#000000">vector</text>
</g>
<!-- Node13&#45;&gt;Node20 -->
<g id="edge21" class="edge">
<title>Node13&#45;&gt;Node20</title>
<path fill="none" stroke="#191970" d="M1484.672,-313.4639C1463.8664,-302.2222 1435.5946,-286.9463 1415.0927,-275.8686"/>
<polygon fill="#191970" stroke="#191970" points="1416.7361,-272.7784 1406.2744,-271.1039 1413.4085,-278.9369 1416.7361,-272.7784"/>
</g>
<!-- Node21 -->
<g id="node22" class="node">
<title>Node21</title>
<g id="a_node22"><a xlink:href="../../d6/d31/DetID_8h.html" target="_top" xlink:title="DetectorsCommonDataFormats\l/DetID.h">
<polygon fill="none" stroke="#000000" points="1430,-246.5 1430,-276.5 1601,-276.5 1601,-246.5 1430,-246.5"/>
<text text-anchor="start" x="1438" y="-264.5" font-family="Helvetica,sans-Serif" font-size="10.00" fill="#000000">DetectorsCommonDataFormats</text>
<text text-anchor="middle" x="1515.5" y="-253.5" font-family="Helvetica,sans-Serif" font-size="10.00" fill="#000000">/DetID.h</text>
</a>
</g>
</g>
<!-- Node13&#45;&gt;Node21 -->
<g id="edge22" class="edge">
<title>Node13&#45;&gt;Node21</title>
<path fill="none" stroke="#191970" d="M1513.1807,-313.2967C1513.5298,-305.5013 1513.9642,-295.7991 1514.3624,-286.9064"/>
<polygon fill="#191970" stroke="#191970" points="1517.871,-286.7898 1514.8219,-276.6432 1510.878,-286.4766 1517.871,-286.7898"/>
</g>
<!-- Node13&#45;&gt;Node33 -->
<g id="edge40" class="edge">
<title>Node13&#45;&gt;Node33</title>
<path fill="none" stroke="#191970" d="M1426.834,-314.2499C1423.6855,-313.813 1420.5663,-313.3946 1417.5,-313 1251.6993,-291.6652 1056.4517,-275.3357 950.4934,-267.2052"/>
<polygon fill="#191970" stroke="#191970" points="950.447,-263.6916 940.2096,-266.4204 949.9143,-270.6713 950.447,-263.6916"/>
</g>
<!-- Node15 -->
<g id="node16" class="node">
<title>Node15</title>
<polygon fill="none" stroke="#bfbfbf" points="1888.5,-185 1888.5,-204 1948.5,-204 1948.5,-185 1888.5,-185"/>
<text text-anchor="middle" x="1918.5" y="-192" font-family="Helvetica,sans-Serif" font-size="10.00" fill="#000000">iostream</text>
</g>
<!-- Node14&#45;&gt;Node15 -->
<g id="edge16" class="edge">
<title>Node14&#45;&gt;Node15</title>
<path fill="none" stroke="#191970" d="M1857.6726,-251.9005C1868.9553,-241.2535 1887.3601,-223.8856 1900.9742,-211.0385"/>
<polygon fill="#191970" stroke="#191970" points="1903.4754,-213.4905 1908.3463,-204.0817 1898.6712,-208.3994 1903.4754,-213.4905"/>
</g>
<!-- Node16 -->
<g id="node17" class="node">
<title>Node16</title>
<polygon fill="none" stroke="#bfbfbf" points="1824.5,-185 1824.5,-204 1870.5,-204 1870.5,-185 1824.5,-185"/>
<text text-anchor="middle" x="1847.5" y="-192" font-family="Helvetica,sans-Serif" font-size="10.00" fill="#000000">cstdio</text>
</g>
<!-- Node14&#45;&gt;Node16 -->
<g id="edge17" class="edge">
<title>Node14&#45;&gt;Node16</title>
<path fill="none" stroke="#191970" d="M1847.5,-251.9005C1847.5,-242.149 1847.5,-226.7597 1847.5,-214.3695"/>
<polygon fill="#191970" stroke="#191970" points="1851.0001,-214.0816 1847.5,-204.0817 1844.0001,-214.0817 1851.0001,-214.0816"/>
</g>
<!-- Node18 -->
<g id="node19" class="node">
<title>Node18</title>
<polygon fill="none" stroke="#bfbfbf" points="1267,-185 1267,-204 1326,-204 1326,-185 1267,-185"/>
<text text-anchor="middle" x="1296.5" y="-192" font-family="Helvetica,sans-Serif" font-size="10.00" fill="#000000">Rtypes.h</text>
</g>
<!-- Node17&#45;&gt;Node18 -->
<g id="edge19" class="edge">
<title>Node17&#45;&gt;Node18</title>
<path fill="none" stroke="#191970" d="M1286.2193,-251.9005C1287.9837,-242.0495 1290.7785,-226.4451 1293.009,-213.9912"/>
<polygon fill="#191970" stroke="#191970" points="1296.466,-214.5421 1294.7839,-204.0817 1289.5756,-213.308 1296.466,-214.5421"/>
</g>
<!-- Node21&#45;&gt;Node9 -->
<g id="edge25" class="edge">
<title>Node21&#45;&gt;Node9</title>
<path fill="none" stroke="#191970" d="M1601.1925,-248.3213C1647.1287,-239.9264 1704.25,-227.3315 1753.5,-210 1754.919,-209.5006 1756.3565,-208.951 1757.7953,-208.3656"/>
<polygon fill="#191970" stroke="#191970" points="1759.4629,-211.4527 1767.1286,-204.1392 1756.5753,-205.076 1759.4629,-211.4527"/>
</g>
<!-- Node21&#45;&gt;Node18 -->
<g id="edge23" class="edge">
<title>Node21&#45;&gt;Node18</title>
<path fill="none" stroke="#191970" d="M1457.4908,-246.4803C1421.993,-236.9002 1375.8035,-223.7366 1335.5,-210 1333.3707,-209.2743 1331.1878,-208.4982 1328.9951,-207.6943"/>
<polygon fill="#191970" stroke="#191970" points="1330.0464,-204.3496 1319.4555,-204.0634 1327.5563,-210.8918 1330.0464,-204.3496"/>
</g>
<!-- Node21&#45;&gt;Node19 -->
<g id="edge24" class="edge">
<title>Node21&#45;&gt;Node19</title>
<path fill="none" stroke="#191970" d="M1532.1484,-246.0744C1541.7647,-236.4474 1553.5019,-223.3759 1561.5,-210 1573.4338,-190.0421 1581.7991,-164.5682 1586.6104,-147.2431"/>
<polygon fill="#191970" stroke="#191970" points="1590.0998,-147.7361 1589.2607,-137.1745 1583.3304,-145.9542 1590.0998,-147.7361"/>
</g>
<!-- Node22 -->
<g id="node23" class="node">
<title>Node22</title>
<polygon fill="none" stroke="#bfbfbf" points="1500.5,-185 1500.5,-204 1552.5,-204 1552.5,-185 1500.5,-185"/>
<text text-anchor="middle" x="1526.5" y="-192" font-family="Helvetica,sans-Serif" font-size="10.00" fill="#000000">cassert</text>
</g>
<!-- Node21&#45;&gt;Node22 -->
<g id="edge26" class="edge">
<title>Node21&#45;&gt;Node22</title>
<path fill="none" stroke="#191970" d="M1517.9961,-246.2967C1519.5602,-236.7699 1521.5918,-224.3954 1523.2771,-214.1306"/>
<polygon fill="#191970" stroke="#191970" points="1526.7649,-214.4899 1524.9313,-204.055 1519.8573,-213.3558 1526.7649,-214.4899"/>
</g>
<!-- Node23 -->
<g id="node24" class="node">
<title>Node23</title>
<polygon fill="none" stroke="#bfbfbf" points="1344.5,-185 1344.5,-204 1394.5,-204 1394.5,-185 1344.5,-185"/>
<text text-anchor="middle" x="1369.5" y="-192" font-family="Helvetica,sans-Serif" font-size="10.00" fill="#000000">cstdint</text>
</g>
<!-- Node21&#45;&gt;Node23 -->
<g id="edge27" class="edge">
<title>Node21&#45;&gt;Node23</title>
<path fill="none" stroke="#191970" d="M1482.7348,-246.4639C1457.9068,-235.0702 1424.0488,-219.5327 1399.8372,-208.4219"/>
<polygon fill="#191970" stroke="#191970" points="1400.9764,-205.0938 1390.4279,-204.1039 1398.0568,-211.4559 1400.9764,-205.0938"/>
</g>
<!-- Node24 -->
<g id="node25" class="node">
<title>Node24</title>
<polygon fill="none" stroke="#bfbfbf" points="1413,-185 1413,-204 1482,-204 1482,-185 1413,-185"/>
<text text-anchor="middle" x="1447.5" y="-192" font-family="Helvetica,sans-Serif" font-size="10.00" fill="#000000">type_traits</text>
</g>
<!-- Node21&#45;&gt;Node24 -->
<g id="edge28" class="edge">
<title>Node21&#45;&gt;Node24</title>
<path fill="none" stroke="#191970" d="M1500.0697,-246.2967C1489.475,-235.8578 1475.4101,-221.9997 1464.4946,-211.2446"/>
<polygon fill="#191970" stroke="#191970" points="1466.7773,-208.5804 1457.1976,-204.055 1461.8644,-213.5666 1466.7773,-208.5804"/>
</g>
<!-- Node25 -->
<g id="node26" class="node">
<title>Node25</title>
<g id="a_node26"><a xlink:href="../../d9/d52/Common_2MathUtils_2include_2MathUtils_2Utils_8h.html" target="_top" xlink:title="MathUtils/Utils.h">
<polygon fill="none" stroke="#000000" points="1646.5,-185 1646.5,-204 1744.5,-204 1744.5,-185 1646.5,-185"/>
<text text-anchor="middle" x="1695.5" y="-192" font-family="Helvetica,sans-Serif" font-size="10.00" fill="#000000">MathUtils/Utils.h</text>
</a>
</g>
</g>
<!-- Node21&#45;&gt;Node25 -->
<g id="edge29" class="edge">
<title>Node21&#45;&gt;Node25</title>
<path fill="none" stroke="#191970" d="M1555.8955,-246.4639C1587.2787,-234.7824 1630.3644,-218.7449 1660.3372,-207.5884"/>
<polygon fill="#191970" stroke="#191970" points="1661.8125,-210.7739 1669.9634,-204.0053 1659.3706,-204.2136 1661.8125,-210.7739"/>
</g>
<!-- Node25&#45;&gt;Node19 -->
<g id="edge30" class="edge">
<title>Node25&#45;&gt;Node19</title>
<path fill="none" stroke="#191970" d="M1680.5993,-184.9005C1663.4547,-173.8554 1635.0832,-155.5776 1614.9655,-142.6172"/>
<polygon fill="#191970" stroke="#191970" points="1616.6751,-139.5552 1606.373,-137.0817 1612.884,-145.4397 1616.6751,-139.5552"/>
</g>
<!-- Node26 -->
<g id="node27" class="node">
<title>Node26</title>
<polygon fill="none" stroke="#bfbfbf" points="1617,-56.5 1617,-75.5 1664,-75.5 1664,-56.5 1617,-56.5"/>
<text text-anchor="middle" x="1640.5" y="-63.5" font-family="Helvetica,sans-Serif" font-size="10.00" fill="#000000">cmath</text>
</g>
<!-- Node25&#45;&gt;Node26 -->
<g id="edge31" class="edge">
<title>Node25&#45;&gt;Node26</title>
<path fill="none" stroke="#191970" d="M1687.4379,-184.8514C1679.5268,-174.9328 1667.6399,-158.7541 1660.5,-143 1652.1502,-124.5762 1646.8084,-102.0318 1643.7656,-86.1112"/>
<polygon fill="#191970" stroke="#191970" points="1647.1373,-85.0788 1641.9462,-75.8428 1640.2447,-86.3001 1647.1373,-85.0788"/>
</g>
<!-- Node27 -->
<g id="node28" class="node">
<title>Node27</title>
<g id="a_node28"><a xlink:href="../../df/d21/GPUCommonDef_8h.html" target="_top" xlink:title="GPUCommonDef.h">
<polygon fill="none" stroke="#000000" points="1765,-56.5 1765,-75.5 1872,-75.5 1872,-56.5 1765,-56.5"/>
<text text-anchor="middle" x="1818.5" y="-63.5" font-family="Helvetica,sans-Serif" font-size="10.00" fill="#000000">GPUCommonDef.h</text>
</a>
</g>
</g>
<!-- Node25&#45;&gt;Node27 -->
<g id="edge32" class="edge">
<title>Node25&#45;&gt;Node27</title>
<path fill="none" stroke="#191970" d="M1727.4085,-184.8607C1748.868,-176.8535 1776.28,-163.4259 1793.5,-143 1807.1908,-126.7604 1813.4297,-102.8604 1816.2437,-86.0038"/>
<polygon fill="#191970" stroke="#191970" points="1819.7743,-86.0284 1817.6942,-75.6398 1812.8418,-85.0581 1819.7743,-86.0284"/>
</g>
<!-- Node30 -->
<g id="node31" class="node">
<title>Node30</title>
<g id="a_node31"><a xlink:href="../../d6/da2/GPUCommonMath_8h.html" target="_top" xlink:title="GPUCommonMath.h">
<polygon fill="none" stroke="#000000" points="1669,-118 1669,-137 1784,-137 1784,-118 1669,-118"/>
<text text-anchor="middle" x="1726.5" y="-125" font-family="Helvetica,sans-Serif" font-size="10.00" fill="#000000">GPUCommonMath.h</text>
</a>
</g>
</g>
<!-- Node25&#45;&gt;Node30 -->
<g id="edge35" class="edge">
<title>Node25&#45;&gt;Node30</title>
<path fill="none" stroke="#191970" d="M1699.9415,-184.9005C1704.5916,-174.8505 1712.0123,-158.8122 1717.8291,-146.2403"/>
<polygon fill="#191970" stroke="#191970" points="1721.0439,-147.627 1722.0667,-137.0817 1714.691,-144.6876 1721.0439,-147.627"/>
</g>
<!-- Node25&#45;&gt;Node32 -->
<g id="edge39" class="edge">
<title>Node25&#45;&gt;Node32</title>
<path fill="none" stroke="#191970" d="M1730.7435,-184.9635C1738.2476,-182.9661 1746.1305,-180.8925 1753.5,-179 1807.9525,-165.0166 1870.5821,-149.6831 1912.9736,-139.4153"/>
<polygon fill="#191970" stroke="#191970" points="1913.8675,-142.8001 1922.7642,-137.0468 1912.2216,-135.9964 1913.8675,-142.8001"/>
</g>
<!-- Node28 -->
<g id="node29" class="node">
<title>Node28</title>
<g id="a_node29"><a xlink:href="../../d5/d93/GPUCommonDefSettings_8h.html" target="_top" xlink:title="GPUCommonDefSettings.h">
<polygon fill="none" stroke="#000000" points="1667.5,-.5 1667.5,-19.5 1815.5,-19.5 1815.5,-.5 1667.5,-.5"/>
<text text-anchor="middle" x="1741.5" y="-7.5" font-family="Helvetica,sans-Serif" font-size="10.00" fill="#000000">GPUCommonDefSettings.h</text>
</a>
</g>
</g>
<!-- Node27&#45;&gt;Node28 -->
<g id="edge33" class="edge">
<title>Node27&#45;&gt;Node28</title>
<path fill="none" stroke="#191970" d="M1805.0876,-56.2455C1793.4943,-47.814 1776.5252,-35.4729 1763.0322,-25.6598"/>
<polygon fill="#191970" stroke="#191970" points="1764.9047,-22.6938 1754.7587,-19.6427 1760.7874,-28.355 1764.9047,-22.6938"/>
</g>
<!-- Node29 -->
<g id="node30" class="node">
<title>Node29</title>
<g id="a_node30"><a xlink:href="../../da/d5a/GPUCommonDefAPI_8h.html" target="_top" xlink:title="GPUCommonDefAPI.h">
<polygon fill="none" stroke="#000000" points="1833.5,-.5 1833.5,-19.5 1957.5,-19.5 1957.5,-.5 1833.5,-.5"/>
<text text-anchor="middle" x="1895.5" y="-7.5" font-family="Helvetica,sans-Serif" font-size="10.00" fill="#000000">GPUCommonDefAPI.h</text>
</a>
</g>
</g>
<!-- Node27&#45;&gt;Node29 -->
<g id="edge34" class="edge">
<title>Node27&#45;&gt;Node29</title>
<path fill="none" stroke="#191970" d="M1831.9124,-56.2455C1843.5057,-47.814 1860.4748,-35.4729 1873.9678,-25.6598"/>
<polygon fill="#191970" stroke="#191970" points="1876.2126,-28.355 1882.2413,-19.6427 1872.0953,-22.6938 1876.2126,-28.355"/>
</g>
<!-- Node30&#45;&gt;Node26 -->
<g id="edge37" class="edge">
<title>Node30&#45;&gt;Node26</title>
<path fill="none" stroke="#191970" d="M1713.0625,-117.8906C1699.4305,-108.1421 1678.1154,-92.8994 1662.1078,-81.4521"/>
<polygon fill="#191970" stroke="#191970" points="1664.0132,-78.5118 1653.8431,-75.5419 1659.9414,-84.2057 1664.0132,-78.5118"/>
</g>
<!-- Node30&#45;&gt;Node27 -->
<g id="edge36" class="edge">
<title>Node30&#45;&gt;Node27</title>
<path fill="none" stroke="#191970" d="M1740.875,-117.8906C1755.5931,-108.0519 1778.6832,-92.6167 1795.8589,-81.1351"/>
<polygon fill="#191970" stroke="#191970" points="1797.8575,-84.0091 1804.2259,-75.5419 1793.9673,-78.1896 1797.8575,-84.0091"/>
</g>
<!-- Node31 -->
<g id="node32" class="node">
<title>Node31</title>
<polygon fill="none" stroke="#bfbfbf" points="1682.5,-56.5 1682.5,-75.5 1746.5,-75.5 1746.5,-56.5 1682.5,-56.5"/>
<text text-anchor="middle" x="1714.5" y="-63.5" font-family="Helvetica,sans-Serif" font-size="10.00" fill="#000000">algorithm</text>
</g>
<!-- Node30&#45;&gt;Node31 -->
<g id="edge38" class="edge">
<title>Node30&#45;&gt;Node31</title>
<path fill="none" stroke="#191970" d="M1724.625,-117.8906C1722.9441,-109.276 1720.426,-96.3708 1718.3216,-85.5858"/>
<polygon fill="#191970" stroke="#191970" points="1721.7518,-84.8895 1716.4014,-75.7449 1714.8814,-86.2301 1721.7518,-84.8895"/>
</g>
<!-- Node33&#45;&gt;Node12 -->
<g id="edge48" class="edge">
<title>Node33&#45;&gt;Node12</title>
<path fill="none" stroke="#191970" d="M804.9131,-258.6345C622.6519,-250.7079 129.926,-227.893 58.5,-210 56.3015,-209.4492 54.0698,-208.7601 51.8549,-207.9807"/>
<polygon fill="#191970" stroke="#191970" points="52.989,-204.6635 42.4074,-204.134 50.3493,-211.1467 52.989,-204.6635"/>
</g>
<!-- Node33&#45;&gt;Node18 -->
<g id="edge46" class="edge">
<title>Node33&#45;&gt;Node18</title>
<path fill="none" stroke="#191970" d="M940.2365,-257.4798C1017.9027,-251.716 1148.5423,-238.4765 1257.5,-210 1260.1192,-209.3155 1262.7997,-208.5031 1265.4685,-207.6145"/>
<polygon fill="#191970" stroke="#191970" points="1266.7575,-210.8699 1274.9519,-204.1541 1264.358,-204.294 1266.7575,-210.8699"/>
</g>
<!-- Node34 -->
<g id="node35" class="node">
<title>Node34</title>
<polygon fill="none" stroke="#bfbfbf" points="67.5,-179.5 67.5,-209.5 231.5,-209.5 231.5,-179.5 67.5,-179.5"/>
<text text-anchor="start" x="75.5" y="-197.5" font-family="Helvetica,sans-Serif" font-size="10.00" fill="#000000">Math/GenVector/Displacement</text>
<text text-anchor="middle" x="149.5" y="-186.5" font-family="Helvetica,sans-Serif" font-size="10.00" fill="#000000">Vector3D.h</text>
</g>
<!-- Node33&#45;&gt;Node34 -->
<g id="edge41" class="edge">
<title>Node33&#45;&gt;Node34</title>
<path fill="none" stroke="#191970" d="M804.9558,-257.9393C690.9412,-251.5018 452.8888,-236.2234 241.8219,-210.1004"/>
<polygon fill="#191970" stroke="#191970" points="242.1486,-206.6141 231.792,-208.8483 241.2814,-213.5602 242.1486,-206.6141"/>
</g>
<!-- Node35 -->
<g id="node36" class="node">
<title>Node35</title>
<polygon fill="none" stroke="#bfbfbf" points="250,-185 250,-204 439,-204 439,-185 250,-185"/>
<text text-anchor="middle" x="344.5" y="-192" font-family="Helvetica,sans-Serif" font-size="10.00" fill="#000000">Math/GenVector/PositionVector3D.h</text>
</g>
<!-- Node33&#45;&gt;Node35 -->
<g id="edge42" class="edge">
<title>Node33&#45;&gt;Node35</title>
<path fill="none" stroke="#191970" d="M804.7042,-253.8939C720.7587,-244.3357 573.4388,-227.1028 447.5,-210 437.2478,-208.6077 426.4333,-207.0636 415.8201,-205.5049"/>
<polygon fill="#191970" stroke="#191970" points="416.136,-202.0136 405.731,-204.0106 415.1103,-208.9381 416.136,-202.0136"/>
</g>
<!-- Node36 -->
<g id="node37" class="node">
<title>Node36</title>
<polygon fill="none" stroke="#bfbfbf" points="610.5,-185 610.5,-204 770.5,-204 770.5,-185 610.5,-185"/>
<text text-anchor="middle" x="690.5" y="-192" font-family="Helvetica,sans-Serif" font-size="10.00" fill="#000000">Math/GenVector/Rotation3D.h</text>
</g>
<!-- Node33&#45;&gt;Node36 -->
<g id="edge43" class="edge">
<title>Node33&#45;&gt;Node36</title>
<path fill="none" stroke="#191970" d="M846.4238,-251.9005C814.7989,-240.2584 761.3456,-220.5805 725.9876,-207.5641"/>
<polygon fill="#191970" stroke="#191970" points="727.1213,-204.2519 716.5278,-204.0817 724.703,-210.8209 727.1213,-204.2519"/>
</g>
<!-- Node37 -->
<g id="node38" class="node">
<title>Node37</title>
<polygon fill="none" stroke="#bfbfbf" points="788.5,-185 788.5,-204 956.5,-204 956.5,-185 788.5,-185"/>
<text text-anchor="middle" x="872.5" y="-192" font-family="Helvetica,sans-Serif" font-size="10.00" fill="#000000">Math/GenVector/Transform3D.h</text>
</g>
<!-- Node33&#45;&gt;Node37 -->
<g id="edge44" class="edge">
<title>Node33&#45;&gt;Node37</title>
<path fill="none" stroke="#191970" d="M872.5,-251.9005C872.5,-242.149 872.5,-226.7597 872.5,-214.3695"/>
<polygon fill="#191970" stroke="#191970" points="876.0001,-214.0816 872.5,-204.0817 869.0001,-214.0817 876.0001,-214.0816"/>
</g>
<!-- Node38 -->
<g id="node39" class="node">
<title>Node38</title>
<polygon fill="none" stroke="#bfbfbf" points="975,-185 975,-204 1148,-204 1148,-185 975,-185"/>
<text text-anchor="middle" x="1061.5" y="-192" font-family="Helvetica,sans-Serif" font-size="10.00" fill="#000000">Math/GenVector/Translation3D.h</text>
</g>
<!-- Node33&#45;&gt;Node38 -->
<g id="edge45" class="edge">
<title>Node33&#45;&gt;Node38</title>
<path fill="none" stroke="#191970" d="M899.5791,-251.9005C932.4203,-240.2584 987.9296,-220.5805 1024.6475,-207.5641"/>
<polygon fill="#191970" stroke="#191970" points="1026.2153,-210.7218 1034.4711,-204.0817 1023.8764,-204.1241 1026.2153,-210.7218"/>
</g>
<!-- Node39 -->
<g id="node40" class="node">
<title>Node39</title>
<polygon fill="none" stroke="#bfbfbf" points="1166.5,-185 1166.5,-204 1248.5,-204 1248.5,-185 1166.5,-185"/>
<text text-anchor="middle" x="1207.5" y="-192" font-family="Helvetica,sans-Serif" font-size="10.00" fill="#000000">TGeoMatrix.h</text>
</g>
<!-- Node33&#45;&gt;Node39 -->
<g id="edge47" class="edge">
<title>Node33&#45;&gt;Node39</title>
<path fill="none" stroke="#191970" d="M936.9537,-251.9922C994.8073,-242.9421 1081.8575,-228.0465 1156.5,-210 1160.3861,-209.0605 1164.413,-207.9966 1168.4226,-206.8771"/>
<polygon fill="#191970" stroke="#191970" points="1169.6366,-210.1692 1178.2636,-204.0189 1167.6842,-203.447 1169.6366,-210.1692"/>
</g>
<!-- Node40 -->
<g id="node41" class="node">
<title>Node40</title>
<g id="a_node41"><a xlink:href="../../d2/dd0/Cartesian2D_8h.html" target="_top" xlink:title="MathUtils/Cartesian2D.h">
<polygon fill="none" stroke="#000000" points="457,-185 457,-204 592,-204 592,-185 457,-185"/>
<text text-anchor="middle" x="524.5" y="-192" font-family="Helvetica,sans-Serif" font-size="10.00" fill="#000000">MathUtils/Cartesian2D.h</text>
</a>
</g>
</g>
<!-- Node33&#45;&gt;Node40 -->
<g id="edge49" class="edge">
<title>Node33&#45;&gt;Node40</title>
<path fill="none" stroke="#191970" d="M821.5221,-251.9829C767.0276,-241.7694 678.1091,-224.9895 601.5,-210 594.9363,-208.7157 588.0613,-207.3546 581.2352,-205.9933"/>
<polygon fill="#191970" stroke="#191970" points="581.8034,-202.5377 571.3111,-204.0074 580.4299,-209.4016 581.8034,-202.5377"/>
</g>
<!-- Node41 -->
<g id="node42" class="node">
<title>Node41</title>
<polygon fill="none" stroke="#bfbfbf" points="344.5,-112.5 344.5,-142.5 508.5,-142.5 508.5,-112.5 344.5,-112.5"/>
<text text-anchor="start" x="352.5" y="-130.5" font-family="Helvetica,sans-Serif" font-size="10.00" fill="#000000">Math/GenVector/Displacement</text>
<text text-anchor="middle" x="426.5" y="-119.5" font-family="Helvetica,sans-Serif" font-size="10.00" fill="#000000">Vector2D.h</text>
</g>
<!-- Node40&#45;&gt;Node41 -->
<g id="edge50" class="edge">
<title>Node40&#45;&gt;Node41</title>
<path fill="none" stroke="#191970" d="M510.459,-184.9005C496.5412,-175.3853 474.772,-160.5023 456.888,-148.2755"/>
<polygon fill="#191970" stroke="#191970" points="458.7026,-145.2763 448.4721,-142.5218 454.7519,-151.0549 458.7026,-145.2763"/>
</g>
<!-- Node42 -->
<g id="node43" class="node">
<title>Node42</title>
<polygon fill="none" stroke="#bfbfbf" points="527,-118 527,-137 716,-137 716,-118 527,-118"/>
<text text-anchor="middle" x="621.5" y="-125" font-family="Helvetica,sans-Serif" font-size="10.00" fill="#000000">Math/GenVector/PositionVector2D.h</text>
</g>
<!-- Node40&#45;&gt;Node42 -->
<g id="edge51" class="edge">
<title>Node40&#45;&gt;Node42</title>
<path fill="none" stroke="#191970" d="M538.3977,-184.9005C554.3164,-173.9052 580.6121,-155.7422 599.3599,-142.7927"/>
<polygon fill="#191970" stroke="#191970" points="601.3892,-145.6448 607.628,-137.0817 597.4108,-139.8852 601.3892,-145.6448"/>
</g>
<!-- Node43&#45;&gt;Node18 -->
<g id="edge54" class="edge">
<title>Node43&#45;&gt;Node18</title>
<path fill="none" stroke="#191970" d="M1264.5305,-385.6864C1240.9405,-361.2351 1185.6967,-295.972 1213.5,-246 1219.533,-235.1567 1245.7919,-219.881 1267.1808,-208.784"/>
<polygon fill="#191970" stroke="#191970" points="1268.9474,-211.8122 1276.275,-204.1599 1265.7747,-205.5725 1268.9474,-211.8122"/>
</g>
</g>
</svg>
        <g id="navigator" transform="translate(0 0)" fill="#404254">
                <rect fill="#f2f5e9" fill-opacity="0.5" stroke="#606060" stroke-width=".5" x="0" y="0" width="60" height="60"/>
                <use id="zoomplus" xlink:href="#zoomPlus" x="17" y="9" onmousedown="handleZoom(evt,'in')"/>
                <use id="zoomminus" xlink:href="#zoomMin" x="42" y="9" onmousedown="handleZoom(evt,'out')"/>
                <use id="reset" xlink:href="#resetDef" x="30" y="36" onmousedown="handleReset()"/>
                <g id="arrowUp" xlink:href="#dirArrow" transform="translate(30 24)" onmousedown="handlePan(0,-1)">
                  <use xlink:href="#rim" fill="#404040">
                        <set attributeName="fill" to="#808080" begin="arrowUp.mouseover" end="arrowUp.mouseout"/>
                  </use>
                  <path fill="none" stroke="white" stroke-width="1.5" d="M0,-3.0v7 M-2.5,-0.5L0,-3.0L2.5,-0.5"/>
                </g>
                <g id="arrowRight" xlink:href="#dirArrow" transform="rotate(90) translate(36 -43)" onmousedown="handlePan(1,0)">
                  <use xlink:href="#rim" fill="#404040">
                        <set attributeName="fill" to="#808080" begin="arrowRight.mouseover" end="arrowRight.mouseout"/>
                  </use>
                  <path fill="none" stroke="white" stroke-width="1.5" d="M0,-3.0v7 M-2.5,-0.5L0,-3.0L2.5,-0.5"/>
                </g>
                <g id="arrowDown" xlink:href="#dirArrow" transform="rotate(180) translate(-30 -48)" onmousedown="handlePan(0,1)">
                  <use xlink:href="#rim" fill="#404040">
                        <set attributeName="fill" to="#808080" begin="arrowDown.mouseover" end="arrowDown.mouseout"/>
                  </use>
                  <path fill="none" stroke="white" stroke-width="1.5" d="M0,-3.0v7 M-2.5,-0.5L0,-3.0L2.5,-0.5"/>
                </g>
                <g id="arrowLeft" xlink:href="#dirArrow" transform="rotate(270) translate(-36 17)" onmousedown="handlePan(-1,0)">
                  <use xlink:href="#rim" fill="#404040">
                        <set attributeName="fill" to="#808080" begin="arrowLeft.mouseover" end="arrowLeft.mouseout"/>
                  </use>
                  <path fill="none" stroke="white" stroke-width="1.5" d="M0,-3.0v7 M-2.5,-0.5L0,-3.0L2.5,-0.5"/>
                </g>
        </g>
        <svg viewBox="0 0 15 15" width="100%" height="30px" preserveAspectRatio="xMaxYMin meet">
         <g id="arrow_out" transform="scale(0.3 0.3)">
          <a xlink:href="ITSMFT_2MFT_2tracking_2src_2TrackExtrap_8cxx__incl_org.svg" target="_base">
           <rect id="button" ry="5" rx="5" y="6" x="6" height="38" width="38"
                fill="#f2f5e9" fill-opacity="0.5" stroke="#606060" stroke-width="1.0"/>
           <path id="arrow"
             d="M 11.500037,31.436501 C 11.940474,20.09759 22.043105,11.32322 32.158766,21.979434 L 37.068811,17.246167 C 37.068811,17.246167 37.088388,32 37.088388,32 L 22.160133,31.978069 C 22.160133,31.978069 26.997745,27.140456 26.997745,27.140456 C 18.528582,18.264221 13.291696,25.230495 11.500037,31.436501 z"
             style="fill:#404040;"/>
          </a>
         </g>
        </svg>
</svg>
