<?xml version="1.0" encoding="UTF-8" standalone="no"?>
<!DOCTYPE svg PUBLIC "-//W3C//DTD SVG 1.1//EN"
 "http://www.w3.org/Graphics/SVG/1.1/DTD/svg11.dtd">
<!-- Generated by graphviz version 2.40.1 (20161225.0304)
 -->
<!-- Title: /home/travis/build/AliceO2Group/AliceO2/Detectors/TOF/compression/src/Compressor.cxx Pages: 1 -->
<svg width="1802pt" height="374pt"
 viewBox="0.00 0.00 1802.00 374.00" xmlns="http://www.w3.org/2000/svg" xmlns:xlink="http://www.w3.org/1999/xlink">
<g id="graph0" class="graph" transform="scale(1 1) rotate(0) translate(4 370)">
<title>/home/travis/build/AliceO2Group/AliceO2/Detectors/TOF/compression/src/Compressor.cxx</title>
<!-- Node0 -->
<g id="node1" class="node">
<title>Node0</title>
<polygon fill="#bfbfbf" stroke="#000000" points="1410,-313.5 1410,-365.5 1564,-365.5 1564,-313.5 1410,-313.5"/>
<text text-anchor="start" x="1418" y="-353.5" font-family="Helvetica,sans-Serif" font-size="10.00" fill="#000000">/home/travis/build</text>
<text text-anchor="start" x="1418" y="-342.5" font-family="Helvetica,sans-Serif" font-size="10.00" fill="#000000">/AliceO2Group/AliceO2</text>
<text text-anchor="start" x="1418" y="-331.5" font-family="Helvetica,sans-Serif" font-size="10.00" fill="#000000">/Detectors/TOF/compression</text>
<text text-anchor="middle" x="1487" y="-320.5" font-family="Helvetica,sans-Serif" font-size="10.00" fill="#000000">/src/Compressor.cxx</text>
</g>
<!-- Node1 -->
<g id="node2" class="node">
<title>Node1</title>
<g id="a_node2"><a xlink:href="../../d4/da7/Compressor_8h.html" target="_top" xlink:title="TOF raw data compressor. ">
<polygon fill="none" stroke="#000000" points="543.5,-201.5 543.5,-220.5 712.5,-220.5 712.5,-201.5 543.5,-201.5"/>
<text text-anchor="middle" x="628" y="-208.5" font-family="Helvetica,sans-Serif" font-size="10.00" fill="#000000">TOFCompression/Compressor.h</text>
</a>
</g>
</g>
<!-- Node0&#45;&gt;Node1 -->
<g id="edge1" class="edge">
<title>Node0&#45;&gt;Node1</title>
<path fill="none" stroke="#191970" d="M1409.6344,-327.9267C1245.2941,-303.3426 863.2713,-246.1948 701.9745,-222.066"/>
<polygon fill="#191970" stroke="#191970" points="702.0819,-218.5432 691.6741,-220.5252 701.0462,-225.4662 702.0819,-218.5432"/>
</g>
<!-- Node9 -->
<g id="node10" class="node">
<title>Node9</title>
<g id="a_node10"><a xlink:href="../../d4/d54/Geo_8h.html" target="_top" xlink:title="TOFBase/Geo.h">
<polygon fill="none" stroke="#000000" points="1208.5,-257.5 1208.5,-276.5 1299.5,-276.5 1299.5,-257.5 1208.5,-257.5"/>
<text text-anchor="middle" x="1254" y="-264.5" font-family="Helvetica,sans-Serif" font-size="10.00" fill="#000000">TOFBase/Geo.h</text>
</a>
</g>
</g>
<!-- Node0&#45;&gt;Node9 -->
<g id="edge11" class="edge">
<title>Node0&#45;&gt;Node9</title>
<path fill="none" stroke="#191970" d="M1409.738,-315.4593C1371.2485,-303.4829 1326.2892,-289.4934 1294.5986,-279.6326"/>
<polygon fill="#191970" stroke="#191970" points="1295.389,-276.2131 1284.8006,-276.5839 1293.3092,-282.897 1295.389,-276.2131"/>
</g>
<!-- Node19 -->
<g id="node20" class="node">
<title>Node19</title>
<polygon fill="none" stroke="#bfbfbf" points="1095,-6 1095,-25 1155,-25 1155,-6 1095,-6"/>
<text text-anchor="middle" x="1125" y="-13" font-family="Helvetica,sans-Serif" font-size="10.00" fill="#000000">iostream</text>
</g>
<!-- Node0&#45;&gt;Node19 -->
<g id="edge47" class="edge">
<title>Node0&#45;&gt;Node19</title>
<path fill="none" stroke="#191970" d="M1564.2097,-328.6195C1630.6909,-314.3808 1716,-282.232 1716,-211 1716,-211 1716,-211 1716,-149.5 1716,-111.8735 1725.3592,-91.7287 1697,-67 1657.0664,-32.1787 1289.1172,-19.6778 1165.3799,-16.4376"/>
<polygon fill="#191970" stroke="#191970" points="1165.2834,-12.9341 1155.1972,-16.1776 1165.1046,-19.9318 1165.2834,-12.9341"/>
</g>
<!-- Node28 -->
<g id="node29" class="node">
<title>Node28</title>
<g id="a_node29"><a xlink:href="../../d6/dec/Raw_2include_2DetectorsRaw_2RDHUtils_8h.html" target="_top" xlink:title="DetectorsRaw/RDHUtils.h">
<polygon fill="none" stroke="#000000" points="1416.5,-201.5 1416.5,-220.5 1557.5,-220.5 1557.5,-201.5 1416.5,-201.5"/>
<text text-anchor="middle" x="1487" y="-208.5" font-family="Helvetica,sans-Serif" font-size="10.00" fill="#000000">DetectorsRaw/RDHUtils.h</text>
</a>
</g>
</g>
<!-- Node0&#45;&gt;Node28 -->
<g id="edge38" class="edge">
<title>Node0&#45;&gt;Node28</title>
<path fill="none" stroke="#191970" d="M1487,-313.4961C1487,-289.0156 1487,-252.8881 1487,-230.7068"/>
<polygon fill="#191970" stroke="#191970" points="1490.5001,-230.5141 1487,-220.5142 1483.5001,-230.5142 1490.5001,-230.5141"/>
</g>
<!-- Node33 -->
<g id="node34" class="node">
<title>Node33</title>
<polygon fill="none" stroke="#bfbfbf" points="1744,-257.5 1744,-276.5 1794,-276.5 1794,-257.5 1744,-257.5"/>
<text text-anchor="middle" x="1769" y="-264.5" font-family="Helvetica,sans-Serif" font-size="10.00" fill="#000000">cstring</text>
</g>
<!-- Node0&#45;&gt;Node33 -->
<g id="edge46" class="edge">
<title>Node0&#45;&gt;Node33</title>
<path fill="none" stroke="#191970" d="M1564.0577,-319.6891C1619.4985,-305.4357 1691.6724,-286.8803 1733.9141,-276.0203"/>
<polygon fill="#191970" stroke="#191970" points="1734.9127,-279.3775 1743.7262,-273.4977 1733.1696,-272.598 1734.9127,-279.3775"/>
</g>
<!-- Node2 -->
<g id="node3" class="node">
<title>Node2</title>
<polygon fill="none" stroke="#bfbfbf" points="269.5,-140 269.5,-159 324.5,-159 324.5,-140 269.5,-140"/>
<text text-anchor="middle" x="297" y="-147" font-family="Helvetica,sans-Serif" font-size="10.00" fill="#000000">fstream</text>
</g>
<!-- Node1&#45;&gt;Node2 -->
<g id="edge2" class="edge">
<title>Node1&#45;&gt;Node2</title>
<path fill="none" stroke="#191970" d="M543.3183,-201.9526C485.2274,-194.6706 406.7089,-182.7002 339,-165 336.0133,-164.2192 332.9423,-163.3076 329.8852,-162.3246"/>
<polygon fill="#191970" stroke="#191970" points="330.8819,-158.966 320.2872,-159.0139 328.5993,-165.5834 330.8819,-158.966"/>
</g>
<!-- Node3 -->
<g id="node4" class="node">
<title>Node3</title>
<polygon fill="none" stroke="#bfbfbf" points="0,-140 0,-159 44,-159 44,-140 0,-140"/>
<text text-anchor="middle" x="22" y="-147" font-family="Helvetica,sans-Serif" font-size="10.00" fill="#000000">string</text>
</g>
<!-- Node1&#45;&gt;Node3 -->
<g id="edge3" class="edge">
<title>Node1&#45;&gt;Node3</title>
<path fill="none" stroke="#191970" d="M543.4876,-208.2015C406.6636,-203.0061 142.8985,-190.0485 53,-165 51.2864,-164.5225 49.5552,-163.9487 47.8333,-163.307"/>
<polygon fill="#191970" stroke="#191970" points="48.8228,-159.9184 38.2604,-159.0901 46.0009,-166.3244 48.8228,-159.9184"/>
</g>
<!-- Node4 -->
<g id="node5" class="node">
<title>Node4</title>
<polygon fill="none" stroke="#bfbfbf" points="820,-73 820,-92 870,-92 870,-73 820,-73"/>
<text text-anchor="middle" x="845" y="-80" font-family="Helvetica,sans-Serif" font-size="10.00" fill="#000000">cstdint</text>
</g>
<!-- Node1&#45;&gt;Node4 -->
<g id="edge4" class="edge">
<title>Node1&#45;&gt;Node4</title>
<path fill="none" stroke="#191970" d="M649.8042,-201.443C668.4874,-192.8866 695.8131,-179.4854 718,-165 736.2506,-153.0846 738.0658,-146.3865 756,-134 775.8885,-120.2637 799.6354,-106.6513 817.5957,-96.8742"/>
<polygon fill="#191970" stroke="#191970" points="819.2624,-99.952 826.4093,-92.1307 815.9449,-93.788 819.2624,-99.952"/>
</g>
<!-- Node5 -->
<g id="node6" class="node">
<title>Node5</title>
<g id="a_node6"><a xlink:href="../../d4/d78/DataFormats_2Headers_2include_2Headers_2RAWDataHeader_8h.html" target="_top" xlink:title="Headers/RAWDataHeader.h">
<polygon fill="none" stroke="#000000" points="943.5,-140 943.5,-159 1092.5,-159 1092.5,-140 943.5,-140"/>
<text text-anchor="middle" x="1018" y="-147" font-family="Helvetica,sans-Serif" font-size="10.00" fill="#000000">Headers/RAWDataHeader.h</text>
</a>
</g>
</g>
<!-- Node1&#45;&gt;Node5 -->
<g id="edge5" class="edge">
<title>Node1&#45;&gt;Node5</title>
<path fill="none" stroke="#191970" d="M695.8609,-201.4591C757.9374,-192.5747 852.2709,-178.6796 934,-165 941.713,-163.709 949.8127,-162.2922 957.8126,-160.8561"/>
<polygon fill="#191970" stroke="#191970" points="958.6407,-164.2631 967.8557,-159.0349 957.3916,-157.3755 958.6407,-164.2631"/>
</g>
<!-- Node6 -->
<g id="node7" class="node">
<title>Node6</title>
<g id="a_node7"><a xlink:href="../../d6/de8/RawDataFormat_8h.html" target="_top" xlink:title="TOF raw data format. ">
<polygon fill="none" stroke="#000000" points="62.5,-140 62.5,-159 251.5,-159 251.5,-140 62.5,-140"/>
<text text-anchor="middle" x="157" y="-147" font-family="Helvetica,sans-Serif" font-size="10.00" fill="#000000">DataFormatsTOF/RawDataFormat.h</text>
</a>
</g>
</g>
<!-- Node1&#45;&gt;Node6 -->
<g id="edge7" class="edge">
<title>Node1&#45;&gt;Node6</title>
<path fill="none" stroke="#191970" d="M547.1606,-201.4843C472.549,-192.5618 358.7058,-178.5938 260,-165 249.8183,-163.5978 239.0806,-162.0542 228.5357,-160.5011"/>
<polygon fill="#191970" stroke="#191970" points="228.9146,-157.0191 218.5092,-159.0134 227.8872,-163.9433 228.9146,-157.0191"/>
</g>
<!-- Node8 -->
<g id="node9" class="node">
<title>Node8</title>
<g id="a_node9"><a xlink:href="../../da/d2e/CompressedDataFormat_8h.html" target="_top" xlink:title="DataFormatsTOF/Compressed\lDataFormat.h">
<polygon fill="none" stroke="#000000" points="547,-134.5 547,-164.5 709,-164.5 709,-134.5 547,-134.5"/>
<text text-anchor="start" x="555" y="-152.5" font-family="Helvetica,sans-Serif" font-size="10.00" fill="#000000">DataFormatsTOF/Compressed</text>
<text text-anchor="middle" x="628" y="-141.5" font-family="Helvetica,sans-Serif" font-size="10.00" fill="#000000">DataFormat.h</text>
</a>
</g>
</g>
<!-- Node1&#45;&gt;Node8 -->
<g id="edge9" class="edge">
<title>Node1&#45;&gt;Node8</title>
<path fill="none" stroke="#191970" d="M628,-201.3906C628,-194.2234 628,-184.0862 628,-174.671"/>
<polygon fill="#191970" stroke="#191970" points="631.5001,-174.5446 628,-164.5446 624.5001,-174.5446 631.5001,-174.5446"/>
</g>
<!-- Node5&#45;&gt;Node4 -->
<g id="edge6" class="edge">
<title>Node5&#45;&gt;Node4</title>
<path fill="none" stroke="#191970" d="M993.2133,-139.9005C963.2808,-128.3082 912.7761,-108.7486 879.1645,-95.7313"/>
<polygon fill="#191970" stroke="#191970" points="880.3298,-92.4294 869.7407,-92.0817 877.8018,-98.957 880.3298,-92.4294"/>
</g>
<!-- Node7 -->
<g id="node8" class="node">
<title>Node7</title>
<polygon fill="none" stroke="#bfbfbf" points="130.5,-73 130.5,-92 183.5,-92 183.5,-73 130.5,-73"/>
<text text-anchor="middle" x="157" y="-80" font-family="Helvetica,sans-Serif" font-size="10.00" fill="#000000">stdint.h</text>
</g>
<!-- Node6&#45;&gt;Node7 -->
<g id="edge8" class="edge">
<title>Node6&#45;&gt;Node7</title>
<path fill="none" stroke="#191970" d="M157,-139.9005C157,-130.149 157,-114.7597 157,-102.3695"/>
<polygon fill="#191970" stroke="#191970" points="160.5001,-102.0816 157,-92.0817 153.5001,-102.0817 160.5001,-102.0816"/>
</g>
<!-- Node8&#45;&gt;Node4 -->
<g id="edge10" class="edge">
<title>Node8&#45;&gt;Node4</title>
<path fill="none" stroke="#191970" d="M676.699,-134.4639C717.2471,-121.9444 773.9999,-104.4217 810.1302,-93.2662"/>
<polygon fill="#191970" stroke="#191970" points="811.221,-96.5926 819.7434,-90.2981 809.1559,-89.9041 811.221,-96.5926"/>
</g>
<!-- Node10 -->
<g id="node11" class="node">
<title>Node10</title>
<polygon fill="none" stroke="#bfbfbf" points="1320.5,-73 1320.5,-92 1379.5,-92 1379.5,-73 1320.5,-73"/>
<text text-anchor="middle" x="1350" y="-80" font-family="Helvetica,sans-Serif" font-size="10.00" fill="#000000">Rtypes.h</text>
</g>
<!-- Node9&#45;&gt;Node10 -->
<g id="edge12" class="edge">
<title>Node9&#45;&gt;Node10</title>
<path fill="none" stroke="#191970" d="M1269.0391,-257.319C1292.2585,-241.363 1335.9369,-207.0793 1353,-165 1361.2176,-144.7346 1358.574,-119.3198 1355.0968,-102.0925"/>
<polygon fill="#191970" stroke="#191970" points="1358.449,-101.0519 1352.7972,-92.0905 1351.627,-102.6205 1358.449,-101.0519"/>
</g>
<!-- Node11 -->
<g id="node12" class="node">
<title>Node11</title>
<g id="a_node12"><a xlink:href="../../d4/dc6/LHCConstants_8h.html" target="_top" xlink:title="Header to collect LHC related constants. ">
<polygon fill="none" stroke="#000000" points="980,-73 980,-92 1170,-92 1170,-73 980,-73"/>
<text text-anchor="middle" x="1075" y="-80" font-family="Helvetica,sans-Serif" font-size="10.00" fill="#000000">CommonConstants/LHCConstants.h</text>
</a>
</g>
</g>
<!-- Node9&#45;&gt;Node11 -->
<g id="edge13" class="edge">
<title>Node9&#45;&gt;Node11</title>
<path fill="none" stroke="#191970" d="M1241.5757,-257.263C1219.7264,-239.8684 1173.4733,-201.8189 1139,-165 1119.5561,-144.2331 1099.8997,-117.9233 1087.5987,-100.6711"/>
<polygon fill="#191970" stroke="#191970" points="1090.1895,-98.2713 1081.5696,-92.1111 1084.4665,-102.3022 1090.1895,-98.2713"/>
</g>
<!-- Node12 -->
<g id="node13" class="node">
<title>Node12</title>
<g id="a_node13"><a xlink:href="../../d1/dec/HBFUtils_8h.html" target="_top" xlink:title="DetectorsRaw/HBFUtils.h">
<polygon fill="none" stroke="#000000" points="948.5,-201.5 948.5,-220.5 1087.5,-220.5 1087.5,-201.5 948.5,-201.5"/>
<text text-anchor="middle" x="1018" y="-208.5" font-family="Helvetica,sans-Serif" font-size="10.00" fill="#000000">DetectorsRaw/HBFUtils.h</text>
</a>
</g>
</g>
<!-- Node9&#45;&gt;Node12 -->
<g id="edge14" class="edge">
<title>Node9&#45;&gt;Node12</title>
<path fill="none" stroke="#191970" d="M1213.6983,-257.4369C1173.3936,-247.8731 1111.3179,-233.1432 1067.9182,-222.845"/>
<polygon fill="#191970" stroke="#191970" points="1068.6734,-219.4271 1058.1355,-220.5237 1067.0572,-226.238 1068.6734,-219.4271"/>
</g>
<!-- Node12&#45;&gt;Node5 -->
<g id="edge35" class="edge">
<title>Node12&#45;&gt;Node5</title>
<path fill="none" stroke="#191970" d="M1018,-201.3906C1018,-192.8657 1018,-180.1392 1018,-169.4235"/>
<polygon fill="#191970" stroke="#191970" points="1021.5001,-169.2448 1018,-159.2449 1014.5001,-169.2449 1021.5001,-169.2448"/>
</g>
<!-- Node12&#45;&gt;Node10 -->
<g id="edge15" class="edge">
<title>Node12&#45;&gt;Node10</title>
<path fill="none" stroke="#191970" d="M1087.6168,-204.9221C1174.3568,-196.7184 1313.3898,-181.2478 1331,-165 1348.167,-149.1612 1351.3422,-121.1948 1351.2816,-102.2615"/>
<polygon fill="#191970" stroke="#191970" points="1354.7732,-101.9496 1350.9378,-92.0733 1347.7771,-102.1857 1354.7732,-101.9496"/>
</g>
<!-- Node13 -->
<g id="node14" class="node">
<title>Node13</title>
<g id="a_node14"><a xlink:href="../../db/d2c/ConfigurableParam_8h.html" target="_top" xlink:title="CommonUtils/Configurable\lParam.h">
<polygon fill="none" stroke="#000000" points="279,-67.5 279,-97.5 427,-97.5 427,-67.5 279,-67.5"/>
<text text-anchor="start" x="287" y="-85.5" font-family="Helvetica,sans-Serif" font-size="10.00" fill="#000000">CommonUtils/Configurable</text>
<text text-anchor="middle" x="353" y="-74.5" font-family="Helvetica,sans-Serif" font-size="10.00" fill="#000000">Param.h</text>
</a>
</g>
</g>
<!-- Node12&#45;&gt;Node13 -->
<g id="edge16" class="edge">
<title>Node12&#45;&gt;Node13</title>
<path fill="none" stroke="#191970" d="M948.2858,-208.2494C785.728,-201.5385 393.6382,-183.5147 372,-165 355.8496,-151.181 351.8829,-126.6472 351.4885,-107.9145"/>
<polygon fill="#191970" stroke="#191970" points="354.9908,-107.719 351.604,-97.6801 347.9913,-107.6399 354.9908,-107.719"/>
</g>
<!-- Node20 -->
<g id="node21" class="node">
<title>Node20</title>
<g id="a_node21"><a xlink:href="../../da/d6b/ConfigurableParamHelper_8h.html" target="_top" xlink:title="CommonUtils/Configurable\lParamHelper.h">
<polygon fill="none" stroke="#000000" points="381,-134.5 381,-164.5 529,-164.5 529,-134.5 381,-134.5"/>
<text text-anchor="start" x="389" y="-152.5" font-family="Helvetica,sans-Serif" font-size="10.00" fill="#000000">CommonUtils/Configurable</text>
<text text-anchor="middle" x="455" y="-141.5" font-family="Helvetica,sans-Serif" font-size="10.00" fill="#000000">ParamHelper.h</text>
</a>
</g>
</g>
<!-- Node12&#45;&gt;Node20 -->
<g id="edge23" class="edge">
<title>Node12&#45;&gt;Node20</title>
<path fill="none" stroke="#191970" d="M948.2169,-206.2712C856.6042,-199.6259 690.5992,-186.0823 539.114,-165.0814"/>
<polygon fill="#191970" stroke="#191970" points="539.5466,-161.6079 529.1579,-163.6873 538.5759,-168.5403 539.5466,-161.6079"/>
</g>
<!-- Node24 -->
<g id="node25" class="node">
<title>Node24</title>
<g id="a_node25"><a xlink:href="../../d9/d80/InteractionRecord_8h.html" target="_top" xlink:title="CommonDataFormat/Interaction\lRecord.h">
<polygon fill="none" stroke="#000000" points="1148,-134.5 1148,-164.5 1322,-164.5 1322,-134.5 1148,-134.5"/>
<text text-anchor="start" x="1156" y="-152.5" font-family="Helvetica,sans-Serif" font-size="10.00" fill="#000000">CommonDataFormat/Interaction</text>
<text text-anchor="middle" x="1235" y="-141.5" font-family="Helvetica,sans-Serif" font-size="10.00" fill="#000000">Record.h</text>
</a>
</g>
</g>
<!-- Node12&#45;&gt;Node24 -->
<g id="edge29" class="edge">
<title>Node12&#45;&gt;Node24</title>
<path fill="none" stroke="#191970" d="M1051.9063,-201.3906C1083.9938,-192.2967 1132.9517,-178.4215 1172.1709,-167.3064"/>
<polygon fill="#191970" stroke="#191970" points="1173.2491,-170.6388 1181.9158,-164.5446 1171.3404,-163.904 1173.2491,-170.6388"/>
</g>
<!-- Node27 -->
<g id="node28" class="node">
<title>Node27</title>
<g id="a_node28"><a xlink:href="../../de/da4/Triggers_8h.html" target="_top" xlink:title="Definition of the 32 Central Trigger System (CTS) Trigger Types defined in https://twiki.cern.ch/twiki/pub/ALICE/NoteForFEDevelopers/CTS_CRU_FE_interface.pdf. ">
<polygon fill="none" stroke="#000000" points="765,-140 765,-159 925,-159 925,-140 765,-140"/>
<text text-anchor="middle" x="845" y="-147" font-family="Helvetica,sans-Serif" font-size="10.00" fill="#000000">CommonConstants/Triggers.h</text>
</a>
</g>
</g>
<!-- Node12&#45;&gt;Node27 -->
<g id="edge36" class="edge">
<title>Node12&#45;&gt;Node27</title>
<path fill="none" stroke="#191970" d="M990.9688,-201.3906C961.5149,-190.92 914.2311,-174.1111 881.4973,-162.4745"/>
<polygon fill="#191970" stroke="#191970" points="882.4361,-159.0937 871.8414,-159.0419 880.0914,-165.6893 882.4361,-159.0937"/>
</g>
<!-- Node14 -->
<g id="node15" class="node">
<title>Node14</title>
<polygon fill="none" stroke="#bfbfbf" points="124.5,-6 124.5,-25 171.5,-25 171.5,-6 124.5,-6"/>
<text text-anchor="middle" x="148" y="-13" font-family="Helvetica,sans-Serif" font-size="10.00" fill="#000000">vector</text>
</g>
<!-- Node13&#45;&gt;Node14 -->
<g id="edge17" class="edge">
<title>Node13&#45;&gt;Node14</title>
<path fill="none" stroke="#191970" d="M294.9526,-67.4319C261.2702,-58.1175 218.2702,-45.2425 181,-31 179.4147,-30.3942 177.7994,-29.7452 176.1779,-29.0688"/>
<polygon fill="#191970" stroke="#191970" points="177.5484,-25.848 166.9873,-25.0039 174.717,-32.2498 177.5484,-25.848"/>
</g>
<!-- Node15 -->
<g id="node16" class="node">
<title>Node15</title>
<polygon fill="none" stroke="#bfbfbf" points="190,-6 190,-25 228,-25 228,-6 190,-6"/>
<text text-anchor="middle" x="209" y="-13" font-family="Helvetica,sans-Serif" font-size="10.00" fill="#000000">map</text>
</g>
<!-- Node13&#45;&gt;Node15 -->
<g id="edge18" class="edge">
<title>Node13&#45;&gt;Node15</title>
<path fill="none" stroke="#191970" d="M316.827,-67.4102C293.7501,-57.5462 263.336,-44.104 237,-31 236.3098,-30.6566 235.6122,-30.3048 234.9099,-29.9467"/>
<polygon fill="#191970" stroke="#191970" points="236.226,-26.6828 225.7521,-25.0861 232.9442,-32.8659 236.226,-26.6828"/>
</g>
<!-- Node16 -->
<g id="node17" class="node">
<title>Node16</title>
<polygon fill="none" stroke="#bfbfbf" points="246.5,-6 246.5,-25 339.5,-25 339.5,-6 246.5,-6"/>
<text text-anchor="middle" x="293" y="-13" font-family="Helvetica,sans-Serif" font-size="10.00" fill="#000000">unordered_map</text>
</g>
<!-- Node13&#45;&gt;Node16 -->
<g id="edge19" class="edge">
<title>Node13&#45;&gt;Node16</title>
<path fill="none" stroke="#191970" d="M339.3851,-67.2967C330.1276,-56.9591 317.8673,-43.2684 308.2765,-32.5588"/>
<polygon fill="#191970" stroke="#191970" points="310.8353,-30.1696 301.5567,-25.055 305.6206,-34.8394 310.8353,-30.1696"/>
</g>
<!-- Node17 -->
<g id="node18" class="node">
<title>Node17</title>
<polygon fill="none" stroke="#bfbfbf" points="357.5,-.5 357.5,-30.5 470.5,-30.5 470.5,-.5 357.5,-.5"/>
<text text-anchor="start" x="365.5" y="-18.5" font-family="Helvetica,sans-Serif" font-size="10.00" fill="#000000">boost/property_tree</text>
<text text-anchor="middle" x="414" y="-7.5" font-family="Helvetica,sans-Serif" font-size="10.00" fill="#000000">/ptree.hpp</text>
</g>
<!-- Node13&#45;&gt;Node17 -->
<g id="edge20" class="edge">
<title>Node13&#45;&gt;Node17</title>
<path fill="none" stroke="#191970" d="M366.8418,-67.2967C374.6411,-58.7303 384.5366,-47.8614 393.247,-38.2943"/>
<polygon fill="#191970" stroke="#191970" points="396.0687,-40.3939 400.2129,-30.6432 390.8926,-35.6813 396.0687,-40.3939"/>
</g>
<!-- Node18 -->
<g id="node19" class="node">
<title>Node18</title>
<polygon fill="none" stroke="#bfbfbf" points="488.5,-6 488.5,-25 545.5,-25 545.5,-6 488.5,-6"/>
<text text-anchor="middle" x="517" y="-13" font-family="Helvetica,sans-Serif" font-size="10.00" fill="#000000">typeinfo</text>
</g>
<!-- Node13&#45;&gt;Node18 -->
<g id="edge21" class="edge">
<title>Node13&#45;&gt;Node18</title>
<path fill="none" stroke="#191970" d="M389.8048,-67.4639C418.0656,-55.9183 456.742,-40.1176 484.0046,-28.9798"/>
<polygon fill="#191970" stroke="#191970" points="485.5583,-32.126 493.4919,-25.1039 482.9109,-25.6459 485.5583,-32.126"/>
</g>
<!-- Node13&#45;&gt;Node19 -->
<g id="edge22" class="edge">
<title>Node13&#45;&gt;Node19</title>
<path fill="none" stroke="#191970" d="M427.1633,-72.4225C442.6254,-70.4836 458.8325,-68.5705 474,-67 704.6308,-43.1199 982.2413,-24.5268 1084.58,-18.0138"/>
<polygon fill="#191970" stroke="#191970" points="1085.0179,-21.4931 1094.7767,-17.368 1084.5754,-14.5071 1085.0179,-21.4931"/>
</g>
<!-- Node20&#45;&gt;Node13 -->
<g id="edge24" class="edge">
<title>Node20&#45;&gt;Node13</title>
<path fill="none" stroke="#191970" d="M432.1092,-134.4639C418.1648,-125.3044 400.1433,-113.4667 384.8238,-103.4038"/>
<polygon fill="#191970" stroke="#191970" points="386.447,-100.2826 376.1673,-97.7177 382.6039,-106.1333 386.447,-100.2826"/>
</g>
<!-- Node20&#45;&gt;Node18 -->
<g id="edge27" class="edge">
<title>Node20&#45;&gt;Node18</title>
<path fill="none" stroke="#191970" d="M456.3332,-134.49C458.3221,-117.393 463.0806,-88.9828 474,-67 480.3962,-54.1233 490.6215,-41.6908 499.4962,-32.2679"/>
<polygon fill="#191970" stroke="#191970" points="502.0095,-34.7039 506.5195,-25.1169 497.0153,-29.7989 502.0095,-34.7039"/>
</g>
<!-- Node21 -->
<g id="node22" class="node">
<title>Node21</title>
<polygon fill="none" stroke="#bfbfbf" points="483.5,-73 483.5,-92 540.5,-92 540.5,-73 483.5,-73"/>
<text text-anchor="middle" x="512" y="-80" font-family="Helvetica,sans-Serif" font-size="10.00" fill="#000000">TClass.h</text>
</g>
<!-- Node20&#45;&gt;Node21 -->
<g id="edge25" class="edge">
<title>Node20&#45;&gt;Node21</title>
<path fill="none" stroke="#191970" d="M467.9342,-134.2967C476.6426,-124.0605 488.148,-110.5366 497.2186,-99.8746"/>
<polygon fill="#191970" stroke="#191970" points="500.0571,-101.9395 503.8711,-92.055 494.7255,-97.4036 500.0571,-101.9395"/>
</g>
<!-- Node22 -->
<g id="node23" class="node">
<title>Node22</title>
<polygon fill="none" stroke="#bfbfbf" points="558.5,-73 558.5,-92 627.5,-92 627.5,-73 558.5,-73"/>
<text text-anchor="middle" x="593" y="-80" font-family="Helvetica,sans-Serif" font-size="10.00" fill="#000000">type_traits</text>
</g>
<!-- Node20&#45;&gt;Node22 -->
<g id="edge26" class="edge">
<title>Node20&#45;&gt;Node22</title>
<path fill="none" stroke="#191970" d="M485.9699,-134.4639C509.3331,-123.1209 541.1559,-107.6707 564.0194,-96.5703"/>
<polygon fill="#191970" stroke="#191970" points="565.7516,-99.62 573.2188,-92.1039 562.6943,-93.323 565.7516,-99.62"/>
</g>
<!-- Node23 -->
<g id="node24" class="node">
<title>Node23</title>
<polygon fill="none" stroke="#bfbfbf" points="646,-73 646,-92 694,-92 694,-73 646,-73"/>
<text text-anchor="middle" x="670" y="-80" font-family="Helvetica,sans-Serif" font-size="10.00" fill="#000000">TFile.h</text>
</g>
<!-- Node20&#45;&gt;Node23 -->
<g id="edge28" class="edge">
<title>Node20&#45;&gt;Node23</title>
<path fill="none" stroke="#191970" d="M517.7256,-134.4546C553.1897,-125.279 598.0855,-112.5337 637,-98 638.5899,-97.4062 640.2087,-96.7668 641.833,-96.0978"/>
<polygon fill="#191970" stroke="#191970" points="643.2854,-99.2826 651.0319,-92.0547 640.4688,-92.8743 643.2854,-99.2826"/>
</g>
<!-- Node24&#45;&gt;Node4 -->
<g id="edge33" class="edge">
<title>Node24&#45;&gt;Node4</title>
<path fill="none" stroke="#191970" d="M1147.9618,-134.5473C1063.6733,-120.0669 940.087,-98.8355 880.1643,-88.5411"/>
<polygon fill="#191970" stroke="#191970" points="880.5299,-85.0527 870.0816,-86.8089 879.3446,-91.9516 880.5299,-85.0527"/>
</g>
<!-- Node24&#45;&gt;Node10 -->
<g id="edge30" class="edge">
<title>Node24&#45;&gt;Node10</title>
<path fill="none" stroke="#191970" d="M1260.8082,-134.4639C1279.9299,-123.3234 1305.8517,-108.2212 1324.8218,-97.1691"/>
<polygon fill="#191970" stroke="#191970" points="1326.6371,-100.1622 1333.5157,-92.1039 1323.1132,-94.1138 1326.6371,-100.1622"/>
</g>
<!-- Node24&#45;&gt;Node11 -->
<g id="edge34" class="edge">
<title>Node24&#45;&gt;Node11</title>
<path fill="none" stroke="#191970" d="M1199.0929,-134.4639C1171.5214,-122.9183 1133.7883,-107.1176 1107.1906,-95.9798"/>
<polygon fill="#191970" stroke="#191970" points="1108.5106,-92.7381 1097.9347,-92.1039 1105.8068,-99.1949 1108.5106,-92.7381"/>
</g>
<!-- Node25 -->
<g id="node26" class="node">
<title>Node25</title>
<polygon fill="none" stroke="#bfbfbf" points="1188.5,-73 1188.5,-92 1237.5,-92 1237.5,-73 1188.5,-73"/>
<text text-anchor="middle" x="1213" y="-80" font-family="Helvetica,sans-Serif" font-size="10.00" fill="#000000">iosfwd</text>
</g>
<!-- Node24&#45;&gt;Node25 -->
<g id="edge31" class="edge">
<title>Node24&#45;&gt;Node25</title>
<path fill="none" stroke="#191970" d="M1230.0079,-134.2967C1226.8464,-124.6685 1222.7298,-112.1318 1219.3385,-101.8038"/>
<polygon fill="#191970" stroke="#191970" points="1222.5825,-100.464 1216.1375,-92.055 1215.9319,-102.6478 1222.5825,-100.464"/>
</g>
<!-- Node26 -->
<g id="node27" class="node">
<title>Node26</title>
<polygon fill="none" stroke="#bfbfbf" points="1255.5,-73 1255.5,-92 1302.5,-92 1302.5,-73 1255.5,-73"/>
<text text-anchor="middle" x="1279" y="-80" font-family="Helvetica,sans-Serif" font-size="10.00" fill="#000000">cmath</text>
</g>
<!-- Node24&#45;&gt;Node26 -->
<g id="edge32" class="edge">
<title>Node24&#45;&gt;Node26</title>
<path fill="none" stroke="#191970" d="M1244.9843,-134.2967C1251.5735,-124.2631 1260.237,-111.0709 1267.1717,-100.5113"/>
<polygon fill="#191970" stroke="#191970" points="1270.1613,-102.3349 1272.7251,-92.055 1264.3102,-98.4924 1270.1613,-102.3349"/>
</g>
<!-- Node27&#45;&gt;Node4 -->
<g id="edge37" class="edge">
<title>Node27&#45;&gt;Node4</title>
<path fill="none" stroke="#191970" d="M845,-139.9005C845,-130.149 845,-114.7597 845,-102.3695"/>
<polygon fill="#191970" stroke="#191970" points="848.5001,-102.0816 845,-92.0817 841.5001,-102.0817 848.5001,-102.0816"/>
</g>
<!-- Node28&#45;&gt;Node5 -->
<g id="edge45" class="edge">
<title>Node28&#45;&gt;Node5</title>
<path fill="none" stroke="#191970" d="M1416.2782,-201.7262C1331.6394,-190.6276 1190.1454,-172.0734 1100.5747,-160.328"/>
<polygon fill="#191970" stroke="#191970" points="1100.8265,-156.8312 1090.4563,-159.0012 1099.9163,-163.7717 1100.8265,-156.8312"/>
</g>
<!-- Node28&#45;&gt;Node24 -->
<g id="edge44" class="edge">
<title>Node28&#45;&gt;Node24</title>
<path fill="none" stroke="#191970" d="M1447.9015,-201.4581C1410.2931,-192.2799 1352.5456,-178.1867 1306.6771,-166.9926"/>
<polygon fill="#191970" stroke="#191970" points="1307.3295,-163.5492 1296.7848,-164.5784 1305.6698,-170.3496 1307.3295,-163.5492"/>
</g>
<!-- Node29 -->
<g id="node30" class="node">
<title>Node29</title>
<g id="a_node30"><a xlink:href="../../df/d21/GPUCommonDef_8h.html" target="_top" xlink:title="GPUCommonDef.h">
<polygon fill="none" stroke="#000000" points="1559.5,-140 1559.5,-159 1666.5,-159 1666.5,-140 1559.5,-140"/>
<text text-anchor="middle" x="1613" y="-147" font-family="Helvetica,sans-Serif" font-size="10.00" fill="#000000">GPUCommonDef.h</text>
</a>
</g>
</g>
<!-- Node28&#45;&gt;Node29 -->
<g id="edge39" class="edge">
<title>Node28&#45;&gt;Node29</title>
<path fill="none" stroke="#191970" d="M1506.6875,-201.3906C1527.4922,-191.2359 1560.511,-175.1196 1584.2319,-163.5416"/>
<polygon fill="#191970" stroke="#191970" points="1585.9993,-166.5736 1593.4507,-159.0419 1582.9288,-160.283 1585.9993,-166.5736"/>
</g>
<!-- Node32 -->
<g id="node33" class="node">
<title>Node32</title>
<g id="a_node33"><a xlink:href="../../d2/d45/GPUCommonRtypes_8h.html" target="_top" xlink:title="GPUCommonRtypes.h">
<polygon fill="none" stroke="#000000" points="1416.5,-140 1416.5,-159 1541.5,-159 1541.5,-140 1416.5,-140"/>
<text text-anchor="middle" x="1479" y="-147" font-family="Helvetica,sans-Serif" font-size="10.00" fill="#000000">GPUCommonRtypes.h</text>
</a>
</g>
</g>
<!-- Node28&#45;&gt;Node32 -->
<g id="edge42" class="edge">
<title>Node28&#45;&gt;Node32</title>
<path fill="none" stroke="#191970" d="M1485.75,-201.3906C1484.6411,-192.8657 1482.9856,-180.1392 1481.5917,-169.4235"/>
<polygon fill="#191970" stroke="#191970" points="1485.0284,-168.7098 1480.2676,-159.2449 1478.0869,-169.6128 1485.0284,-168.7098"/>
</g>
<!-- Node30 -->
<g id="node31" class="node">
<title>Node30</title>
<g id="a_node31"><a xlink:href="../../d5/d93/GPUCommonDefSettings_8h.html" target="_top" xlink:title="GPUCommonDefSettings.h">
<polygon fill="none" stroke="#000000" points="1398,-73 1398,-92 1546,-92 1546,-73 1398,-73"/>
<text text-anchor="middle" x="1472" y="-80" font-family="Helvetica,sans-Serif" font-size="10.00" fill="#000000">GPUCommonDefSettings.h</text>
</a>
</g>
</g>
<!-- Node29&#45;&gt;Node30 -->
<g id="edge40" class="edge">
<title>Node29&#45;&gt;Node30</title>
<path fill="none" stroke="#191970" d="M1592.7981,-139.9005C1568.821,-128.5072 1528.6479,-109.4178 1501.2679,-96.4075"/>
<polygon fill="#191970" stroke="#191970" points="1502.6987,-93.2123 1492.1644,-92.0817 1499.6944,-99.5348 1502.6987,-93.2123"/>
</g>
<!-- Node31 -->
<g id="node32" class="node">
<title>Node31</title>
<g id="a_node32"><a xlink:href="../../da/d5a/GPUCommonDefAPI_8h.html" target="_top" xlink:title="GPUCommonDefAPI.h">
<polygon fill="none" stroke="#000000" points="1564,-73 1564,-92 1688,-92 1688,-73 1564,-73"/>
<text text-anchor="middle" x="1626" y="-80" font-family="Helvetica,sans-Serif" font-size="10.00" fill="#000000">GPUCommonDefAPI.h</text>
</a>
</g>
</g>
<!-- Node29&#45;&gt;Node31 -->
<g id="edge41" class="edge">
<title>Node29&#45;&gt;Node31</title>
<path fill="none" stroke="#191970" d="M1614.8626,-139.9005C1616.774,-130.0495 1619.8017,-114.4451 1622.2181,-101.9912"/>
<polygon fill="#191970" stroke="#191970" points="1625.6719,-102.5653 1624.1409,-92.0817 1618.8001,-101.2319 1625.6719,-102.5653"/>
</g>
<!-- Node32&#45;&gt;Node10 -->
<g id="edge43" class="edge">
<title>Node32&#45;&gt;Node10</title>
<path fill="none" stroke="#191970" d="M1460.5174,-139.9005C1438.7725,-128.6067 1402.4677,-109.7506 1377.436,-96.7497"/>
<polygon fill="#191970" stroke="#191970" points="1378.9359,-93.5849 1368.4483,-92.0817 1375.7095,-99.797 1378.9359,-93.5849"/>
</g>
</g>
</svg>
