<?xml version="1.0" encoding="UTF-8" standalone="no"?>
<!DOCTYPE svg PUBLIC "-//W3C//DTD SVG 1.1//EN"
 "http://www.w3.org/Graphics/SVG/1.1/DTD/svg11.dtd">
<!-- Generated by graphviz version 2.40.1 (20161225.0304)
 -->
<!-- Title: /home/travis/build/AliceO2Group/AliceO2/GPU/TPCFastTransformation/TPCFastTransform.h Pages: 1 -->
<svg width="956pt" height="397pt"
 viewBox="0.00 0.00 956.00 397.00" xmlns="http://www.w3.org/2000/svg" xmlns:xlink="http://www.w3.org/1999/xlink">
<g id="graph0" class="graph" transform="scale(1 1) rotate(0) translate(4 393)">
<title>/home/travis/build/AliceO2Group/AliceO2/GPU/TPCFastTransformation/TPCFastTransform.h</title>
<!-- Node0 -->
<g id="node1" class="node">
<title>Node0</title>
<polygon fill="#bfbfbf" stroke="#000000" points="622.5,-336.5 622.5,-388.5 777.5,-388.5 777.5,-336.5 622.5,-336.5"/>
<text text-anchor="start" x="630.5" y="-376.5" font-family="Helvetica,sans-Serif" font-size="10.00" fill="#000000">/home/travis/build</text>
<text text-anchor="start" x="630.5" y="-365.5" font-family="Helvetica,sans-Serif" font-size="10.00" fill="#000000">/AliceO2Group/AliceO2</text>
<text text-anchor="start" x="630.5" y="-354.5" font-family="Helvetica,sans-Serif" font-size="10.00" fill="#000000">/GPU/TPCFastTransformation</text>
<text text-anchor="middle" x="700" y="-343.5" font-family="Helvetica,sans-Serif" font-size="10.00" fill="#000000">/TPCFastTransform.h</text>
</g>
<!-- Node1 -->
<g id="node2" class="node">
<title>Node1</title>
<g id="a_node2"><a xlink:href="../../db/dff/FlatObject_8h.html" target="_top" xlink:title="Definition of FlatObject class. ">
<polygon fill="none" stroke="#000000" points="339.5,-112.5 339.5,-131.5 414.5,-131.5 414.5,-112.5 339.5,-112.5"/>
<text text-anchor="middle" x="377" y="-119.5" font-family="Helvetica,sans-Serif" font-size="10.00" fill="#000000">FlatObject.h</text>
</a>
</g>
</g>
<!-- Node0&#45;&gt;Node1 -->
<g id="edge1" class="edge">
<title>Node0&#45;&gt;Node1</title>
<path fill="none" stroke="#191970" d="M622.3014,-352.5039C578.8781,-343.9799 525.5187,-328.3713 485,-300 427.5985,-259.8074 395.2,-178.411 382.8541,-141.2656"/>
<polygon fill="#191970" stroke="#191970" points="386.1567,-140.1018 379.7795,-131.6412 379.4887,-142.232 386.1567,-140.1018"/>
</g>
<!-- Node15 -->
<g id="node16" class="node">
<title>Node15</title>
<g id="a_node16"><a xlink:href="../../d5/dde/TPCFastTransformGeo_8h.html" target="_top" xlink:title="Definition of TPCFastTransformGeo class. ">
<polygon fill="none" stroke="#000000" points="630,-168.5 630,-187.5 762,-187.5 762,-168.5 630,-168.5"/>
<text text-anchor="middle" x="696" y="-175.5" font-family="Helvetica,sans-Serif" font-size="10.00" fill="#000000">TPCFastTransformGeo.h</text>
</a>
</g>
</g>
<!-- Node0&#45;&gt;Node15 -->
<g id="edge15" class="edge">
<title>Node0&#45;&gt;Node15</title>
<path fill="none" stroke="#191970" d="M699.4354,-336.457C698.6301,-299.3157 697.1688,-231.9117 696.4391,-198.2556"/>
<polygon fill="#191970" stroke="#191970" points="699.9299,-197.7852 696.2138,-187.8635 692.9315,-197.937 699.9299,-197.7852"/>
</g>
<!-- Node16 -->
<g id="node17" class="node">
<title>Node16</title>
<g id="a_node17"><a xlink:href="../../d8/d93/TPCFastSpaceChargeCorrection_8h.html" target="_top" xlink:title="Definition of TPCFastSpaceChargeCorrection class. ">
<polygon fill="none" stroke="#000000" points="494,-280.5 494,-299.5 672,-299.5 672,-280.5 494,-280.5"/>
<text text-anchor="middle" x="583" y="-287.5" font-family="Helvetica,sans-Serif" font-size="10.00" fill="#000000">TPCFastSpaceChargeCorrection.h</text>
</a>
</g>
</g>
<!-- Node0&#45;&gt;Node16 -->
<g id="edge18" class="edge">
<title>Node0&#45;&gt;Node16</title>
<path fill="none" stroke="#191970" d="M657.7603,-336.3258C640.793,-325.8119 621.8433,-314.0696 607.2677,-305.0377"/>
<polygon fill="#191970" stroke="#191970" points="608.7298,-301.8262 598.3859,-299.534 605.0427,-307.7765 608.7298,-301.8262"/>
</g>
<!-- Node20 -->
<g id="node21" class="node">
<title>Node20</title>
<g id="a_node21"><a xlink:href="../../d6/da2/GPUCommonMath_8h.html" target="_top" xlink:title="GPUCommonMath.h">
<polygon fill="none" stroke="#000000" points="732.5,-280.5 732.5,-299.5 847.5,-299.5 847.5,-280.5 732.5,-280.5"/>
<text text-anchor="middle" x="790" y="-287.5" font-family="Helvetica,sans-Serif" font-size="10.00" fill="#000000">GPUCommonMath.h</text>
</a>
</g>
</g>
<!-- Node0&#45;&gt;Node20 -->
<g id="edge29" class="edge">
<title>Node0&#45;&gt;Node20</title>
<path fill="none" stroke="#191970" d="M732.4921,-336.3258C745.1709,-326.1123 759.2888,-314.7396 770.3634,-305.8184"/>
<polygon fill="#191970" stroke="#191970" points="772.5728,-308.533 778.1647,-299.534 768.1815,-303.0817 772.5728,-308.533"/>
</g>
<!-- Node23 -->
<g id="node24" class="node">
<title>Node23</title>
<polygon fill="none" stroke="#bfbfbf" points="866,-280.5 866,-299.5 910,-299.5 910,-280.5 866,-280.5"/>
<text text-anchor="middle" x="888" y="-287.5" font-family="Helvetica,sans-Serif" font-size="10.00" fill="#000000">string</text>
</g>
<!-- Node0&#45;&gt;Node23 -->
<g id="edge33" class="edge">
<title>Node0&#45;&gt;Node23</title>
<path fill="none" stroke="#191970" d="M767.6067,-336.4283C797.9538,-324.7253 832.2947,-311.4821 856.5112,-302.1433"/>
<polygon fill="#191970" stroke="#191970" points="857.8363,-305.3836 865.9072,-298.5198 855.3176,-298.8524 857.8363,-305.3836"/>
</g>
<!-- Node2 -->
<g id="node3" class="node">
<title>Node2</title>
<polygon fill="none" stroke="#bfbfbf" points="144.5,-56.5 144.5,-75.5 197.5,-75.5 197.5,-56.5 144.5,-56.5"/>
<text text-anchor="middle" x="171" y="-63.5" font-family="Helvetica,sans-Serif" font-size="10.00" fill="#000000">cstddef</text>
</g>
<!-- Node1&#45;&gt;Node2 -->
<g id="edge2" class="edge">
<title>Node1&#45;&gt;Node2</title>
<path fill="none" stroke="#191970" d="M341.491,-112.4658C309.1018,-103.7527 259.6624,-90.4121 207.4991,-76.1245"/>
<polygon fill="#191970" stroke="#191970" points="208.3004,-72.7151 197.7308,-73.4466 206.4496,-79.4661 208.3004,-72.7151"/>
</g>
<!-- Node3 -->
<g id="node4" class="node">
<title>Node3</title>
<polygon fill="none" stroke="#bfbfbf" points="564,-56.5 564,-75.5 622,-75.5 622,-56.5 564,-56.5"/>
<text text-anchor="middle" x="593" y="-63.5" font-family="Helvetica,sans-Serif" font-size="10.00" fill="#000000">memory</text>
</g>
<!-- Node1&#45;&gt;Node3 -->
<g id="edge3" class="edge">
<title>Node1&#45;&gt;Node3</title>
<path fill="none" stroke="#191970" d="M414.1728,-112.4446C448.1515,-103.6989 500.0584,-90.3104 554.1869,-76.2046"/>
<polygon fill="#191970" stroke="#191970" points="555.164,-79.5669 563.9574,-73.6569 553.3978,-72.7934 555.164,-79.5669"/>
</g>
<!-- Node4 -->
<g id="node5" class="node">
<title>Node4</title>
<polygon fill="none" stroke="#bfbfbf" points="216,-56.5 216,-75.5 266,-75.5 266,-56.5 216,-56.5"/>
<text text-anchor="middle" x="241" y="-63.5" font-family="Helvetica,sans-Serif" font-size="10.00" fill="#000000">cstring</text>
</g>
<!-- Node1&#45;&gt;Node4 -->
<g id="edge4" class="edge">
<title>Node1&#45;&gt;Node4</title>
<path fill="none" stroke="#191970" d="M353.6208,-112.3733C331.4955,-103.2629 298.0866,-89.5062 273.3981,-79.3404"/>
<polygon fill="#191970" stroke="#191970" points="274.6536,-76.0723 264.0742,-75.5011 271.9883,-82.5451 274.6536,-76.0723"/>
</g>
<!-- Node5 -->
<g id="node6" class="node">
<title>Node5</title>
<polygon fill="none" stroke="#bfbfbf" points="284,-56.5 284,-75.5 336,-75.5 336,-56.5 284,-56.5"/>
<text text-anchor="middle" x="310" y="-63.5" font-family="Helvetica,sans-Serif" font-size="10.00" fill="#000000">cassert</text>
</g>
<!-- Node1&#45;&gt;Node5 -->
<g id="edge5" class="edge">
<title>Node1&#45;&gt;Node5</title>
<path fill="none" stroke="#191970" d="M365.3295,-112.2455C355.4339,-103.9746 341.0373,-91.9416 329.4099,-82.2232"/>
<polygon fill="#191970" stroke="#191970" points="331.4542,-79.3703 321.5368,-75.6427 326.965,-84.7413 331.4542,-79.3703"/>
</g>
<!-- Node6 -->
<g id="node7" class="node">
<title>Node6</title>
<polygon fill="none" stroke="#bfbfbf" points="354,-56.5 354,-75.5 402,-75.5 402,-56.5 354,-56.5"/>
<text text-anchor="middle" x="378" y="-63.5" font-family="Helvetica,sans-Serif" font-size="10.00" fill="#000000">TFile.h</text>
</g>
<!-- Node1&#45;&gt;Node6 -->
<g id="edge6" class="edge">
<title>Node1&#45;&gt;Node6</title>
<path fill="none" stroke="#191970" d="M377.1742,-112.2455C377.3047,-104.9382 377.4876,-94.6944 377.6481,-85.7046"/>
<polygon fill="#191970" stroke="#191970" points="381.1486,-85.7036 377.8278,-75.6427 374.1497,-85.5786 381.1486,-85.7036"/>
</g>
<!-- Node7 -->
<g id="node8" class="node">
<title>Node7</title>
<g id="a_node8"><a xlink:href="../../df/d21/GPUCommonDef_8h.html" target="_top" xlink:title="GPUCommonDef.h">
<polygon fill="none" stroke="#000000" points="640.5,-56.5 640.5,-75.5 747.5,-75.5 747.5,-56.5 640.5,-56.5"/>
<text text-anchor="middle" x="694" y="-63.5" font-family="Helvetica,sans-Serif" font-size="10.00" fill="#000000">GPUCommonDef.h</text>
</a>
</g>
</g>
<!-- Node1&#45;&gt;Node7 -->
<g id="edge7" class="edge">
<title>Node1&#45;&gt;Node7</title>
<path fill="none" stroke="#191970" d="M414.6826,-113.8408C417.8313,-113.2021 420.9684,-112.5805 424,-112 462.4802,-104.6316 563.2989,-87.6886 630.255,-76.5508"/>
<polygon fill="#191970" stroke="#191970" points="630.9951,-79.9759 640.2858,-74.8835 629.8472,-73.0707 630.9951,-79.9759"/>
</g>
<!-- Node10 -->
<g id="node11" class="node">
<title>Node10</title>
<g id="a_node11"><a xlink:href="../../d2/d45/GPUCommonRtypes_8h.html" target="_top" xlink:title="GPUCommonRtypes.h">
<polygon fill="none" stroke="#000000" points="420.5,-56.5 420.5,-75.5 545.5,-75.5 545.5,-56.5 420.5,-56.5"/>
<text text-anchor="middle" x="483" y="-63.5" font-family="Helvetica,sans-Serif" font-size="10.00" fill="#000000">GPUCommonRtypes.h</text>
</a>
</g>
</g>
<!-- Node1&#45;&gt;Node10 -->
<g id="edge10" class="edge">
<title>Node1&#45;&gt;Node10</title>
<path fill="none" stroke="#191970" d="M395.4638,-112.2455C412.1074,-103.4527 436.7993,-90.4079 455.7192,-80.4125"/>
<polygon fill="#191970" stroke="#191970" points="457.5408,-83.4086 464.7478,-75.6427 454.2709,-77.2193 457.5408,-83.4086"/>
</g>
<!-- Node12 -->
<g id="node13" class="node">
<title>Node12</title>
<g id="a_node13"><a xlink:href="../../df/d5b/GPUCommonLogger_8h.html" target="_top" xlink:title="GPUCommonLogger.h">
<polygon fill="none" stroke="#000000" points="3.5,-56.5 3.5,-75.5 126.5,-75.5 126.5,-56.5 3.5,-56.5"/>
<text text-anchor="middle" x="65" y="-63.5" font-family="Helvetica,sans-Serif" font-size="10.00" fill="#000000">GPUCommonLogger.h</text>
</a>
</g>
</g>
<!-- Node1&#45;&gt;Node12 -->
<g id="edge12" class="edge">
<title>Node1&#45;&gt;Node12</title>
<path fill="none" stroke="#191970" d="M339.3655,-115.2451C286.9814,-105.8428 191.3997,-88.6871 128.034,-77.3138"/>
<polygon fill="#191970" stroke="#191970" points="128.6134,-73.8619 118.1523,-75.5402 127.3767,-80.7518 128.6134,-73.8619"/>
</g>
<!-- Node8 -->
<g id="node9" class="node">
<title>Node8</title>
<g id="a_node9"><a xlink:href="../../d5/d93/GPUCommonDefSettings_8h.html" target="_top" xlink:title="GPUCommonDefSettings.h">
<polygon fill="none" stroke="#000000" points="723,-.5 723,-19.5 871,-19.5 871,-.5 723,-.5"/>
<text text-anchor="middle" x="797" y="-7.5" font-family="Helvetica,sans-Serif" font-size="10.00" fill="#000000">GPUCommonDefSettings.h</text>
</a>
</g>
</g>
<!-- Node7&#45;&gt;Node8 -->
<g id="edge8" class="edge">
<title>Node7&#45;&gt;Node8</title>
<path fill="none" stroke="#191970" d="M711.9412,-56.2455C728.04,-47.4928 751.8879,-34.527 770.2391,-24.5496"/>
<polygon fill="#191970" stroke="#191970" points="772.1507,-27.4942 779.2644,-19.6427 768.8071,-21.3444 772.1507,-27.4942"/>
</g>
<!-- Node9 -->
<g id="node10" class="node">
<title>Node9</title>
<g id="a_node10"><a xlink:href="../../da/d5a/GPUCommonDefAPI_8h.html" target="_top" xlink:title="GPUCommonDefAPI.h">
<polygon fill="none" stroke="#000000" points="581,-.5 581,-19.5 705,-19.5 705,-.5 581,-.5"/>
<text text-anchor="middle" x="643" y="-7.5" font-family="Helvetica,sans-Serif" font-size="10.00" fill="#000000">GPUCommonDefAPI.h</text>
</a>
</g>
</g>
<!-- Node7&#45;&gt;Node9 -->
<g id="edge9" class="edge">
<title>Node7&#45;&gt;Node9</title>
<path fill="none" stroke="#191970" d="M685.1165,-56.2455C677.8034,-48.2155 667.2609,-36.6394 658.5533,-27.0781"/>
<polygon fill="#191970" stroke="#191970" points="661.1028,-24.6795 651.7817,-19.6427 655.9273,-29.3928 661.1028,-24.6795"/>
</g>
<!-- Node11 -->
<g id="node12" class="node">
<title>Node11</title>
<polygon fill="none" stroke="#bfbfbf" points="453.5,-.5 453.5,-19.5 512.5,-19.5 512.5,-.5 453.5,-.5"/>
<text text-anchor="middle" x="483" y="-7.5" font-family="Helvetica,sans-Serif" font-size="10.00" fill="#000000">Rtypes.h</text>
</g>
<!-- Node10&#45;&gt;Node11 -->
<g id="edge11" class="edge">
<title>Node10&#45;&gt;Node11</title>
<path fill="none" stroke="#191970" d="M483,-56.2455C483,-48.9382 483,-38.6944 483,-29.7046"/>
<polygon fill="#191970" stroke="#191970" points="486.5001,-29.6426 483,-19.6427 479.5001,-29.6427 486.5001,-29.6426"/>
</g>
<!-- Node13 -->
<g id="node14" class="node">
<title>Node13</title>
<polygon fill="none" stroke="#bfbfbf" points="0,-.5 0,-19.5 60,-19.5 60,-.5 0,-.5"/>
<text text-anchor="middle" x="30" y="-7.5" font-family="Helvetica,sans-Serif" font-size="10.00" fill="#000000">iostream</text>
</g>
<!-- Node12&#45;&gt;Node13 -->
<g id="edge13" class="edge">
<title>Node12&#45;&gt;Node13</title>
<path fill="none" stroke="#191970" d="M58.9035,-56.2455C54.0855,-48.5367 47.2249,-37.5598 41.3968,-28.2348"/>
<polygon fill="#191970" stroke="#191970" points="44.2947,-26.2677 36.0267,-19.6427 38.3587,-29.9777 44.2947,-26.2677"/>
</g>
<!-- Node14 -->
<g id="node15" class="node">
<title>Node14</title>
<polygon fill="none" stroke="#bfbfbf" points="78,-.5 78,-19.5 124,-19.5 124,-.5 78,-.5"/>
<text text-anchor="middle" x="101" y="-7.5" font-family="Helvetica,sans-Serif" font-size="10.00" fill="#000000">cstdio</text>
</g>
<!-- Node12&#45;&gt;Node14 -->
<g id="edge14" class="edge">
<title>Node12&#45;&gt;Node14</title>
<path fill="none" stroke="#191970" d="M71.2707,-56.2455C76.2264,-48.5367 83.283,-37.5598 89.2776,-28.2348"/>
<polygon fill="#191970" stroke="#191970" points="92.3376,-29.9471 94.8011,-19.6427 86.4494,-26.1618 92.3376,-29.9471"/>
</g>
<!-- Node15&#45;&gt;Node3 -->
<g id="edge17" class="edge">
<title>Node15&#45;&gt;Node3</title>
<path fill="none" stroke="#191970" d="M687.2183,-168.4509C669.8111,-149.5227 630.7183,-107.014 608.7515,-83.1279"/>
<polygon fill="#191970" stroke="#191970" points="611.1049,-80.5163 601.7595,-75.5249 605.9524,-85.2547 611.1049,-80.5163"/>
</g>
<!-- Node15&#45;&gt;Node7 -->
<g id="edge16" class="edge">
<title>Node15&#45;&gt;Node7</title>
<path fill="none" stroke="#191970" d="M695.8295,-168.4509C695.5033,-150.184 694.7849,-109.9553 694.3517,-85.6976"/>
<polygon fill="#191970" stroke="#191970" points="697.8482,-85.4608 694.1701,-75.5249 690.8493,-85.5858 697.8482,-85.4608"/>
</g>
<!-- Node16&#45;&gt;Node1 -->
<g id="edge27" class="edge">
<title>Node16&#45;&gt;Node1</title>
<path fill="none" stroke="#191970" d="M551.3505,-280.4978C529.1804,-272.8715 499.5973,-260.6777 477,-244 437.3575,-214.7422 404.0462,-166.3546 387.7458,-140.1741"/>
<polygon fill="#191970" stroke="#191970" points="390.7207,-138.3299 382.5298,-131.6099 384.7423,-141.9711 390.7207,-138.3299"/>
</g>
<!-- Node16&#45;&gt;Node7 -->
<g id="edge28" class="edge">
<title>Node16&#45;&gt;Node7</title>
<path fill="none" stroke="#191970" d="M584.8887,-280.4274C589.2829,-259.322 601.3394,-207.527 621,-168 636.9665,-135.8999 662.5888,-102.9012 678.8438,-83.4361"/>
<polygon fill="#191970" stroke="#191970" points="681.5811,-85.6197 685.383,-75.7305 676.2439,-81.0904 681.5811,-85.6197"/>
</g>
<!-- Node16&#45;&gt;Node15 -->
<g id="edge26" class="edge">
<title>Node16&#45;&gt;Node15</title>
<path fill="none" stroke="#191970" d="M592.6343,-280.4509C611.8149,-261.4401 654.9948,-218.6423 679.0338,-194.816"/>
<polygon fill="#191970" stroke="#191970" points="681.7515,-197.0503 686.3901,-187.5249 676.8238,-192.0786 681.7515,-197.0503"/>
</g>
<!-- Node17 -->
<g id="node18" class="node">
<title>Node17</title>
<g id="a_node18"><a xlink:href="../../dd/d27/Spline2D_8h.html" target="_top" xlink:title="Definition of Spline2D class. ">
<polygon fill="none" stroke="#000000" points="485.5,-224.5 485.5,-243.5 554.5,-243.5 554.5,-224.5 485.5,-224.5"/>
<text text-anchor="middle" x="520" y="-231.5" font-family="Helvetica,sans-Serif" font-size="10.00" fill="#000000">Spline2D.h</text>
</a>
</g>
</g>
<!-- Node16&#45;&gt;Node17 -->
<g id="edge19" class="edge">
<title>Node16&#45;&gt;Node17</title>
<path fill="none" stroke="#191970" d="M572.0262,-280.2455C562.8118,-272.0549 549.4468,-260.1749 538.5703,-250.5069"/>
<polygon fill="#191970" stroke="#191970" points="540.6474,-247.6704 530.848,-243.6427 535.9968,-252.9023 540.6474,-247.6704"/>
</g>
<!-- Node17&#45;&gt;Node1 -->
<g id="edge24" class="edge">
<title>Node17&#45;&gt;Node1</title>
<path fill="none" stroke="#191970" d="M506.5648,-224.3024C493.9172,-215.1098 474.5046,-200.8362 458,-188 436.5395,-171.3095 412.4443,-151.5403 396.1549,-138.018"/>
<polygon fill="#191970" stroke="#191970" points="398.3283,-135.2733 388.4034,-131.5655 393.8499,-140.6532 398.3283,-135.2733"/>
</g>
<!-- Node17&#45;&gt;Node7 -->
<g id="edge25" class="edge">
<title>Node17&#45;&gt;Node7</title>
<path fill="none" stroke="#191970" d="M526.9685,-224.3832C542.928,-202.7456 584.0005,-149.2177 626,-112 639.0875,-100.4025 655.2489,-89.356 668.5318,-80.996"/>
<polygon fill="#191970" stroke="#191970" points="670.5133,-83.8862 677.1947,-75.6637 666.844,-77.925 670.5133,-83.8862"/>
</g>
<!-- Node18 -->
<g id="node19" class="node">
<title>Node18</title>
<g id="a_node19"><a xlink:href="../../de/da6/Spline1D_8h.html" target="_top" xlink:title="Definition of Spline1D class. ">
<polygon fill="none" stroke="#000000" points="466.5,-168.5 466.5,-187.5 535.5,-187.5 535.5,-168.5 466.5,-168.5"/>
<text text-anchor="middle" x="501" y="-175.5" font-family="Helvetica,sans-Serif" font-size="10.00" fill="#000000">Spline1D.h</text>
</a>
</g>
</g>
<!-- Node17&#45;&gt;Node18 -->
<g id="edge20" class="edge">
<title>Node17&#45;&gt;Node18</title>
<path fill="none" stroke="#191970" d="M516.6905,-224.2455C514.1567,-216.7776 510.5823,-206.2427 507.485,-197.1137"/>
<polygon fill="#191970" stroke="#191970" points="510.7991,-195.9879 504.2716,-187.6427 504.1702,-198.237 510.7991,-195.9879"/>
</g>
<!-- Node18&#45;&gt;Node1 -->
<g id="edge22" class="edge">
<title>Node18&#45;&gt;Node1</title>
<path fill="none" stroke="#191970" d="M479.6836,-168.3733C459.7784,-159.3838 429.8564,-145.8706 407.44,-135.7471"/>
<polygon fill="#191970" stroke="#191970" points="408.5925,-132.4272 398.0382,-131.5011 405.7113,-138.8068 408.5925,-132.4272"/>
</g>
<!-- Node18&#45;&gt;Node7 -->
<g id="edge21" class="edge">
<title>Node18&#45;&gt;Node7</title>
<path fill="none" stroke="#191970" d="M505.6195,-168.4305C513.0188,-154.0915 528.8712,-127.1057 550,-112 573.6638,-95.0819 603.8307,-84.1906 630.4334,-77.2787"/>
<polygon fill="#191970" stroke="#191970" points="631.5583,-80.6064 640.4336,-74.8202 629.8872,-73.8088 631.5583,-80.6064"/>
</g>
<!-- Node19 -->
<g id="node20" class="node">
<title>Node19</title>
<polygon fill="none" stroke="#bfbfbf" points="432.5,-112.5 432.5,-131.5 497.5,-131.5 497.5,-112.5 432.5,-112.5"/>
<text text-anchor="middle" x="465" y="-119.5" font-family="Helvetica,sans-Serif" font-size="10.00" fill="#000000">functional</text>
</g>
<!-- Node18&#45;&gt;Node19 -->
<g id="edge23" class="edge">
<title>Node18&#45;&gt;Node19</title>
<path fill="none" stroke="#191970" d="M494.7293,-168.2455C489.7736,-160.5367 482.717,-149.5598 476.7224,-140.2348"/>
<polygon fill="#191970" stroke="#191970" points="479.5506,-138.1618 471.1989,-131.6427 473.6624,-141.9471 479.5506,-138.1618"/>
</g>
<!-- Node20&#45;&gt;Node7 -->
<g id="edge30" class="edge">
<title>Node20&#45;&gt;Node7</title>
<path fill="none" stroke="#191970" d="M790.0675,-280.3907C789.8882,-259.2123 787.6337,-207.2807 771,-168 756.7678,-134.3906 729.0324,-101.858 711.0241,-82.896"/>
<polygon fill="#191970" stroke="#191970" points="713.4488,-80.3689 703.9695,-75.6366 708.4287,-85.2474 713.4488,-80.3689"/>
</g>
<!-- Node21 -->
<g id="node22" class="node">
<title>Node21</title>
<polygon fill="none" stroke="#bfbfbf" points="818.5,-224.5 818.5,-243.5 865.5,-243.5 865.5,-224.5 818.5,-224.5"/>
<text text-anchor="middle" x="842" y="-231.5" font-family="Helvetica,sans-Serif" font-size="10.00" fill="#000000">cmath</text>
</g>
<!-- Node20&#45;&gt;Node21 -->
<g id="edge31" class="edge">
<title>Node20&#45;&gt;Node21</title>
<path fill="none" stroke="#191970" d="M799.0577,-280.2455C806.5142,-272.2155 817.2634,-260.6394 826.1417,-251.0781"/>
<polygon fill="#191970" stroke="#191970" points="828.8063,-253.3522 833.0461,-243.6427 823.6768,-248.589 828.8063,-253.3522"/>
</g>
<!-- Node22 -->
<g id="node23" class="node">
<title>Node22</title>
<polygon fill="none" stroke="#bfbfbf" points="884,-224.5 884,-243.5 948,-243.5 948,-224.5 884,-224.5"/>
<text text-anchor="middle" x="916" y="-231.5" font-family="Helvetica,sans-Serif" font-size="10.00" fill="#000000">algorithm</text>
</g>
<!-- Node20&#45;&gt;Node22 -->
<g id="edge32" class="edge">
<title>Node20&#45;&gt;Node22</title>
<path fill="none" stroke="#191970" d="M811.6602,-280.3733C831.9772,-271.3435 862.564,-257.7494 885.375,-247.6111"/>
<polygon fill="#191970" stroke="#191970" points="886.9059,-250.7609 894.6225,-243.5011 884.0628,-244.3642 886.9059,-250.7609"/>
</g>
</g>
</svg>
