<?xml version="1.0" encoding="UTF-8" standalone="no"?>
<!DOCTYPE svg PUBLIC "-//W3C//DTD SVG 1.1//EN"
 "http://www.w3.org/Graphics/SVG/1.1/DTD/svg11.dtd">
<!-- Generated by graphviz version 2.40.1 (20161225.0304)
 -->
<!-- Title: /home/travis/build/AliceO2Group/AliceO2/Detectors/TPC/workflow/src Pages: 1 -->
<svg width="800pt" height="727pt"
 viewBox="0.00 0.00 800.00 727.00" xmlns="http://www.w3.org/2000/svg" xmlns:xlink="http://www.w3.org/1999/xlink">
<g id="graph0" class="graph" transform="scale(1 1) rotate(0) translate(4 723)">
<title>/home/travis/build/AliceO2Group/AliceO2/Detectors/TPC/workflow/src</title>
<g id="clust1" class="cluster">
<title>clusterdir_9cc61f72f781098a662027b321784562</title>
<g id="a_clust1"><a xlink:href="dir_9cc61f72f781098a662027b321784562.html" target="_top" xlink:title="workflow">
<polygon fill="#ddddee" stroke="#000000" points="567,-640 567,-711 637,-711 637,-640 567,-640"/>
<text text-anchor="middle" x="602" y="-699" font-family="Helvetica,sans-Serif" font-size="10.00" fill="#000000">workflow</text>
</a>
</g>
</g>
<!-- dir_e9646061f272132c5cb2e771d1ee355f -->
<g id="node1" class="node">
<title>dir_e9646061f272132c5cb2e771d1ee355f</title>
<g id="a_node1"><a xlink:href="dir_e9646061f272132c5cb2e771d1ee355f.html" target="_top" xlink:title="src">
<polygon fill="#eeeeff" stroke="#000000" points="629,-684 575,-684 575,-648 629,-648 629,-684"/>
<text text-anchor="middle" x="602" y="-663.5" font-family="Helvetica,sans-Serif" font-size="10.00" fill="#000000">src</text>
</a>
</g>
</g>
<!-- dir_4995562033b321477cfe3c34a14a5189 -->
<g id="node2" class="node">
<title>dir_4995562033b321477cfe3c34a14a5189</title>
<g id="a_node2"><a xlink:href="dir_4995562033b321477cfe3c34a14a5189.html" target="_top" xlink:title="calibration">
<polygon fill="none" stroke="#ff0000" points="186,-684 118,-684 118,-648 186,-648 186,-684"/>
<text text-anchor="middle" x="152" y="-663.5" font-family="Helvetica,sans-Serif" font-size="10.00" fill="#000000">calibration</text>
</a>
</g>
</g>
<!-- dir_e9646061f272132c5cb2e771d1ee355f&#45;&gt;dir_4995562033b321477cfe3c34a14a5189 -->
<g id="edge1" class="edge">
<title>dir_e9646061f272132c5cb2e771d1ee355f&#45;&gt;dir_4995562033b321477cfe3c34a14a5189</title>
<path fill="none" stroke="#000000" d="M574.7994,-666C448.7068,-666 322.6142,-666 196.5216,-666"/>
<polygon fill="#000000" stroke="#000000" points="196.2774,-662.5001 186.2773,-666 196.2773,-669.5001 196.2774,-662.5001"/>
<g id="a_edge1&#45;headlabel"><a xlink:href="dir_000404_000582.html" target="_top" xlink:title="1">
<text text-anchor="middle" x="199.872" y="-657.1607" font-family="Helvetica,sans-Serif" font-size="10.00" fill="#000000">1</text>
</a>
</g>
</g>
<!-- dir_1ccc0e6feb2a9e42d8edde27429c6d63 -->
<g id="node3" class="node">
<title>dir_1ccc0e6feb2a9e42d8edde27429c6d63</title>
<g id="a_node3"><a xlink:href="dir_1ccc0e6feb2a9e42d8edde27429c6d63.html" target="_top" xlink:title="include">
<polygon fill="none" stroke="#ff0000" points="722,-324 668,-324 668,-288 722,-288 722,-324"/>
<text text-anchor="middle" x="695" y="-303.5" font-family="Helvetica,sans-Serif" font-size="10.00" fill="#000000">include</text>
</a>
</g>
</g>
<!-- dir_e9646061f272132c5cb2e771d1ee355f&#45;&gt;dir_1ccc0e6feb2a9e42d8edde27429c6d63 -->
<g id="edge2" class="edge">
<title>dir_e9646061f272132c5cb2e771d1ee355f&#45;&gt;dir_1ccc0e6feb2a9e42d8edde27429c6d63</title>
<path fill="none" stroke="#000000" d="M629.123,-656.2511C649.3427,-647.6266 676.1051,-633.1056 692,-612 716.9045,-578.9312 716,-563.3978 716,-522 716,-522 716,-522 716,-450 716,-409.2729 707.673,-362.7384 701.5061,-333.8595"/>
<polygon fill="#000000" stroke="#000000" points="704.9177,-333.0768 699.3512,-324.0621 698.0811,-334.5806 704.9177,-333.0768"/>
<g id="a_edge2&#45;headlabel"><a xlink:href="dir_000404_000386.html" target="_top" xlink:title="18">
<text text-anchor="middle" x="708.4628" y="-333.4776" font-family="Helvetica,sans-Serif" font-size="10.00" fill="#000000">18</text>
</a>
</g>
</g>
<!-- dir_677b030cc750909e4cd27413873678d8 -->
<g id="node4" class="node">
<title>dir_677b030cc750909e4cd27413873678d8</title>
<g id="a_node4"><a xlink:href="dir_677b030cc750909e4cd27413873678d8.html" target="_top" xlink:title="base">
<polygon fill="none" stroke="#ff0000" points="342,-540 288,-540 288,-504 342,-504 342,-540"/>
<text text-anchor="middle" x="315" y="-519.5" font-family="Helvetica,sans-Serif" font-size="10.00" fill="#000000">base</text>
</a>
</g>
</g>
<!-- dir_e9646061f272132c5cb2e771d1ee355f&#45;&gt;dir_677b030cc750909e4cd27413873678d8 -->
<g id="edge3" class="edge">
<title>dir_e9646061f272132c5cb2e771d1ee355f&#45;&gt;dir_677b030cc750909e4cd27413873678d8</title>
<path fill="none" stroke="#000000" d="M574.724,-663.0427C518.161,-656.4326 390.5642,-638.8962 357,-612 337.7503,-596.5745 326.8989,-570.2827 321.0709,-550.087"/>
<polygon fill="#000000" stroke="#000000" points="324.3916,-548.9525 318.4633,-540.1715 317.6218,-550.7329 324.3916,-548.9525"/>
<g id="a_edge3&#45;headlabel"><a xlink:href="dir_000404_000050.html" target="_top" xlink:title="13">
<text text-anchor="middle" x="328.0517" y="-549.2068" font-family="Helvetica,sans-Serif" font-size="10.00" fill="#000000">13</text>
</a>
</g>
</g>
<!-- dir_4ab6b4cc6a7edbff49100e9123df213f -->
<g id="node5" class="node">
<title>dir_4ab6b4cc6a7edbff49100e9123df213f</title>
<g id="a_node5"><a xlink:href="dir_4ab6b4cc6a7edbff49100e9123df213f.html" target="_top" xlink:title="Common">
<polygon fill="none" stroke="#ff0000" points="345.5,-468 284.5,-468 284.5,-432 345.5,-432 345.5,-468"/>
<text text-anchor="middle" x="315" y="-447.5" font-family="Helvetica,sans-Serif" font-size="10.00" fill="#000000">Common</text>
</a>
</g>
</g>
<!-- dir_e9646061f272132c5cb2e771d1ee355f&#45;&gt;dir_4ab6b4cc6a7edbff49100e9123df213f -->
<g id="edge4" class="edge">
<title>dir_e9646061f272132c5cb2e771d1ee355f&#45;&gt;dir_4ab6b4cc6a7edbff49100e9123df213f</title>
<path fill="none" stroke="#000000" d="M574.7671,-664.1603C536.0607,-660.294 464.5643,-648.3936 417,-612 372.3242,-577.8165 381.2744,-551.4121 351,-504 345.3293,-495.1193 338.9978,-485.521 333.2448,-476.9144"/>
<polygon fill="#000000" stroke="#000000" points="335.9916,-474.7266 327.511,-468.376 330.1803,-478.6291 335.9916,-474.7266"/>
<g id="a_edge4&#45;headlabel"><a xlink:href="dir_000404_000027.html" target="_top" xlink:title="2">
<text text-anchor="middle" x="340.3527" y="-473.6279" font-family="Helvetica,sans-Serif" font-size="10.00" fill="#000000">2</text>
</a>
</g>
</g>
<!-- dir_a5de047958dd458e809773c6ffaa8478 -->
<g id="node6" class="node">
<title>dir_a5de047958dd458e809773c6ffaa8478</title>
<g id="a_node6"><a xlink:href="dir_a5de047958dd458e809773c6ffaa8478.html" target="_top" xlink:title="reconstruction">
<polygon fill="none" stroke="#ff0000" points="512,-612 426,-612 426,-576 512,-576 512,-612"/>
<text text-anchor="middle" x="469" y="-591.5" font-family="Helvetica,sans-Serif" font-size="10.00" fill="#000000">reconstruction</text>
</a>
</g>
</g>
<!-- dir_e9646061f272132c5cb2e771d1ee355f&#45;&gt;dir_a5de047958dd458e809773c6ffaa8478 -->
<g id="edge5" class="edge">
<title>dir_e9646061f272132c5cb2e771d1ee355f&#45;&gt;dir_a5de047958dd458e809773c6ffaa8478</title>
<path fill="none" stroke="#000000" d="M574.7645,-651.256C556.493,-641.3646 532.0601,-628.1378 511.2811,-616.889"/>
<polygon fill="#000000" stroke="#000000" points="512.7886,-613.7252 502.3282,-612.0423 509.456,-619.881 512.7886,-613.7252"/>
<g id="a_edge5&#45;headlabel"><a xlink:href="dir_000404_000366.html" target="_top" xlink:title="6">
<text text-anchor="middle" x="517.3014" y="-610.4395" font-family="Helvetica,sans-Serif" font-size="10.00" fill="#000000">6</text>
</a>
</g>
</g>
<!-- dir_37c90836491b695b472bf98d1be8336b -->
<g id="node7" class="node">
<title>dir_37c90836491b695b472bf98d1be8336b</title>
<g id="a_node7"><a xlink:href="dir_37c90836491b695b472bf98d1be8336b.html" target="_top" xlink:title="Base">
<polygon fill="none" stroke="#ff0000" points="277,-180 223,-180 223,-144 277,-144 277,-180"/>
<text text-anchor="middle" x="250" y="-159.5" font-family="Helvetica,sans-Serif" font-size="10.00" fill="#000000">Base</text>
</a>
</g>
</g>
<!-- dir_e9646061f272132c5cb2e771d1ee355f&#45;&gt;dir_37c90836491b695b472bf98d1be8336b -->
<g id="edge6" class="edge">
<title>dir_e9646061f272132c5cb2e771d1ee355f&#45;&gt;dir_37c90836491b695b472bf98d1be8336b</title>
<path fill="none" stroke="#000000" d="M574.6672,-663.2646C513.6568,-656.7425 368.5523,-638.796 328,-612 188.4337,-519.778 225.9317,-273.9278 243.4384,-190.3036"/>
<polygon fill="#000000" stroke="#000000" points="246.8681,-191.0025 245.5596,-180.4888 240.026,-189.5237 246.8681,-191.0025"/>
<g id="a_edge6&#45;headlabel"><a xlink:href="dir_000404_000276.html" target="_top" xlink:title="1">
<text text-anchor="middle" x="248.884" y="-192.6157" font-family="Helvetica,sans-Serif" font-size="10.00" fill="#000000">1</text>
</a>
</g>
</g>
<!-- dir_8ba487e25de5ee77e05e9dce7582cb98 -->
<g id="node8" class="node">
<title>dir_8ba487e25de5ee77e05e9dce7582cb98</title>
<g id="a_node8"><a xlink:href="dir_8ba487e25de5ee77e05e9dce7582cb98.html" target="_top" xlink:title="Algorithm">
<polygon fill="none" stroke="#ff0000" points="455.5,-36 390.5,-36 390.5,0 455.5,0 455.5,-36"/>
<text text-anchor="middle" x="423" y="-15.5" font-family="Helvetica,sans-Serif" font-size="10.00" fill="#000000">Algorithm</text>
</a>
</g>
</g>
<!-- dir_e9646061f272132c5cb2e771d1ee355f&#45;&gt;dir_8ba487e25de5ee77e05e9dce7582cb98 -->
<g id="edge7" class="edge">
<title>dir_e9646061f272132c5cb2e771d1ee355f&#45;&gt;dir_8ba487e25de5ee77e05e9dce7582cb98</title>
<path fill="none" stroke="#000000" d="M629.0567,-661.4693C659.7942,-655.1117 709.9614,-640.918 743,-612 777.2707,-582.0035 792,-567.5442 792,-522 792,-522 792,-522 792,-162 792,-92.6641 563.0435,-43.2117 465.8306,-25.3396"/>
<polygon fill="#000000" stroke="#000000" points="466.2101,-21.8515 455.7463,-23.5123 464.962,-28.7393 466.2101,-21.8515"/>
<g id="a_edge7&#45;headlabel"><a xlink:href="dir_000404_000000.html" target="_top" xlink:title="4">
<text text-anchor="middle" x="470.2533" y="-17.1985" font-family="Helvetica,sans-Serif" font-size="10.00" fill="#000000">4</text>
</a>
</g>
</g>
<!-- dir_f511f1e9c03c071966ae594f00bbc5e0 -->
<g id="node9" class="node">
<title>dir_f511f1e9c03c071966ae594f00bbc5e0</title>
<g id="a_node9"><a xlink:href="dir_f511f1e9c03c071966ae594f00bbc5e0.html" target="_top" xlink:title="GPU">
<polygon fill="none" stroke="#ff0000" points="460,-396 406,-396 406,-360 460,-360 460,-396"/>
<text text-anchor="middle" x="433" y="-375.5" font-family="Helvetica,sans-Serif" font-size="10.00" fill="#000000">GPU</text>
</a>
</g>
</g>
<!-- dir_e9646061f272132c5cb2e771d1ee355f&#45;&gt;dir_f511f1e9c03c071966ae594f00bbc5e0 -->
<g id="edge8" class="edge">
<title>dir_e9646061f272132c5cb2e771d1ee355f&#45;&gt;dir_f511f1e9c03c071966ae594f00bbc5e0</title>
<path fill="none" stroke="#000000" d="M591.4283,-647.9843C562.6787,-598.9909 482.9481,-463.1186 448.8258,-404.9694"/>
<polygon fill="#000000" stroke="#000000" points="451.6475,-402.8622 443.5677,-396.0089 445.6101,-406.405 451.6475,-402.8622"/>
<g id="a_edge8&#45;headlabel"><a xlink:href="dir_000404_000140.html" target="_top" xlink:title="3">
<text text-anchor="middle" x="455.9154" y="-402.0255" font-family="Helvetica,sans-Serif" font-size="10.00" fill="#000000">3</text>
</a>
</g>
</g>
<!-- dir_bcbb2cf9a3d3d83e5515c82071a07177 -->
<g id="node10" class="node">
<title>dir_bcbb2cf9a3d3d83e5515c82071a07177</title>
<g id="a_node10"><a xlink:href="dir_bcbb2cf9a3d3d83e5515c82071a07177.html" target="_top" xlink:title="Framework">
<polygon fill="none" stroke="#ff0000" points="385.5,-108 314.5,-108 314.5,-72 385.5,-72 385.5,-108"/>
<text text-anchor="middle" x="350" y="-87.5" font-family="Helvetica,sans-Serif" font-size="10.00" fill="#000000">Framework</text>
</a>
</g>
</g>
<!-- dir_e9646061f272132c5cb2e771d1ee355f&#45;&gt;dir_bcbb2cf9a3d3d83e5515c82071a07177 -->
<g id="edge9" class="edge">
<title>dir_e9646061f272132c5cb2e771d1ee355f&#45;&gt;dir_bcbb2cf9a3d3d83e5515c82071a07177</title>
<path fill="none" stroke="#000000" d="M629.4818,-658.8979C654.6497,-651.1324 691.462,-636.4227 715,-612 745.252,-580.6111 754,-565.5941 754,-522 754,-522 754,-522 754,-234 754,-181.9317 724.2022,-169.8433 679,-144 631.4507,-116.8148 474.4001,-100.3119 395.7367,-93.5544"/>
<polygon fill="#000000" stroke="#000000" points="395.8908,-90.0551 385.6323,-92.703 395.3031,-97.0304 395.8908,-90.0551"/>
<g id="a_edge9&#45;headlabel"><a xlink:href="dir_000404_000013.html" target="_top" xlink:title="59">
<text text-anchor="middle" x="399.7111" y="-85.0275" font-family="Helvetica,sans-Serif" font-size="10.00" fill="#000000">59</text>
</a>
</g>
</g>
<!-- dir_26637d1bd82229bc9ed97f7e706be743 -->
<g id="node11" class="node">
<title>dir_26637d1bd82229bc9ed97f7e706be743</title>
<g id="a_node11"><a xlink:href="dir_26637d1bd82229bc9ed97f7e706be743.html" target="_top" xlink:title="Raw">
<polygon fill="none" stroke="#ff0000" points="520,-324 466,-324 466,-288 520,-288 520,-324"/>
<text text-anchor="middle" x="493" y="-303.5" font-family="Helvetica,sans-Serif" font-size="10.00" fill="#000000">Raw</text>
</a>
</g>
</g>
<!-- dir_e9646061f272132c5cb2e771d1ee355f&#45;&gt;dir_26637d1bd82229bc9ed97f7e706be743 -->
<g id="edge10" class="edge">
<title>dir_e9646061f272132c5cb2e771d1ee355f&#45;&gt;dir_26637d1bd82229bc9ed97f7e706be743</title>
<path fill="none" stroke="#000000" d="M596.4448,-647.6526C578.6598,-588.9129 523.0359,-405.2013 501.57,-334.3047"/>
<polygon fill="#000000" stroke="#000000" points="504.7917,-332.8671 498.544,-324.3104 498.0921,-334.8956 504.7917,-332.8671"/>
<g id="a_edge10&#45;headlabel"><a xlink:href="dir_000404_000555.html" target="_top" xlink:title="1">
<text text-anchor="middle" x="508.5508" y="-332.9847" font-family="Helvetica,sans-Serif" font-size="10.00" fill="#000000">1</text>
</a>
</g>
</g>
<!-- dir_2171f7ec022c5423887b07c69b2f5b48 -->
<g id="node12" class="node">
<title>dir_2171f7ec022c5423887b07c69b2f5b48</title>
<g id="a_node12"><a xlink:href="dir_2171f7ec022c5423887b07c69b2f5b48.html" target="_top" xlink:title="DataFormats">
<polygon fill="none" stroke="#ff0000" points="435,-252 355,-252 355,-216 435,-216 435,-252"/>
<text text-anchor="middle" x="395" y="-231.5" font-family="Helvetica,sans-Serif" font-size="10.00" fill="#000000">DataFormats</text>
</a>
</g>
</g>
<!-- dir_e9646061f272132c5cb2e771d1ee355f&#45;&gt;dir_2171f7ec022c5423887b07c69b2f5b48 -->
<g id="edge11" class="edge">
<title>dir_e9646061f272132c5cb2e771d1ee355f&#45;&gt;dir_2171f7ec022c5423887b07c69b2f5b48</title>
<path fill="none" stroke="#000000" d="M619.2456,-647.6186C641.6688,-621.719 678,-572.0348 678,-522 678,-522 678,-522 678,-450 678,-358.786 626.2099,-341.0367 552,-288 520.0154,-265.1411 477.5476,-251.3116 444.8458,-243.3788"/>
<polygon fill="#000000" stroke="#000000" points="445.5651,-239.9528 435.0329,-241.1027 443.9834,-246.7717 445.5651,-239.9528"/>
<g id="a_edge11&#45;headlabel"><a xlink:href="dir_000404_000076.html" target="_top" xlink:title="38">
<text text-anchor="middle" x="449.7083" y="-235.499" font-family="Helvetica,sans-Serif" font-size="10.00" fill="#000000">38</text>
</a>
</g>
</g>
<!-- dir_4995562033b321477cfe3c34a14a5189&#45;&gt;dir_677b030cc750909e4cd27413873678d8 -->
<g id="edge14" class="edge">
<title>dir_4995562033b321477cfe3c34a14a5189&#45;&gt;dir_677b030cc750909e4cd27413873678d8</title>
<path fill="none" stroke="#000000" d="M172.6441,-647.7623C201.5483,-622.2272 254.1788,-575.7316 286.7121,-546.9906"/>
<polygon fill="#000000" stroke="#000000" points="289.3465,-549.3335 294.5236,-540.0896 284.7119,-544.0874 289.3465,-549.3335"/>
<g id="a_edge14&#45;headlabel"><a xlink:href="dir_000582_000050.html" target="_top" xlink:title="25">
<text text-anchor="middle" x="288.5324" y="-551.3412" font-family="Helvetica,sans-Serif" font-size="10.00" fill="#000000">25</text>
</a>
</g>
</g>
<!-- dir_4995562033b321477cfe3c34a14a5189&#45;&gt;dir_4ab6b4cc6a7edbff49100e9123df213f -->
<g id="edge15" class="edge">
<title>dir_4995562033b321477cfe3c34a14a5189&#45;&gt;dir_4ab6b4cc6a7edbff49100e9123df213f</title>
<path fill="none" stroke="#000000" d="M163.1858,-647.6752C174.6514,-629.2038 193.2644,-600.0633 211,-576 237.4219,-540.1512 270.5538,-500.8803 292.2265,-475.8695"/>
<polygon fill="#000000" stroke="#000000" points="294.913,-478.1139 298.8373,-468.2726 289.6325,-473.5187 294.913,-478.1139"/>
<g id="a_edge15&#45;headlabel"><a xlink:href="dir_000582_000027.html" target="_top" xlink:title="13">
<text text-anchor="middle" x="294.6952" y="-480.1894" font-family="Helvetica,sans-Serif" font-size="10.00" fill="#000000">13</text>
</a>
</g>
</g>
<!-- dir_4995562033b321477cfe3c34a14a5189&#45;&gt;dir_a5de047958dd458e809773c6ffaa8478 -->
<g id="edge16" class="edge">
<title>dir_4995562033b321477cfe3c34a14a5189&#45;&gt;dir_a5de047958dd458e809773c6ffaa8478</title>
<path fill="none" stroke="#000000" d="M186.2257,-658.2263C241.3895,-645.697 350.3744,-620.9433 415.7554,-606.0934"/>
<polygon fill="#000000" stroke="#000000" points="416.8829,-609.4265 425.8593,-603.7985 415.3325,-602.6004 416.8829,-609.4265"/>
<g id="a_edge16&#45;headlabel"><a xlink:href="dir_000582_000366.html" target="_top" xlink:title="6">
<text text-anchor="middle" x="414.0064" y="-610.4914" font-family="Helvetica,sans-Serif" font-size="10.00" fill="#000000">6</text>
</a>
</g>
</g>
<!-- dir_4995562033b321477cfe3c34a14a5189&#45;&gt;dir_37c90836491b695b472bf98d1be8336b -->
<g id="edge17" class="edge">
<title>dir_4995562033b321477cfe3c34a14a5189&#45;&gt;dir_37c90836491b695b472bf98d1be8336b</title>
<path fill="none" stroke="#000000" d="M123.8202,-647.8002C90.0616,-623.5315 38,-577.1626 38,-522 38,-522 38,-522 38,-450 38,-342.4114 27.2858,-295.2966 100,-216 101.0108,-214.8977 169.0963,-190.6461 213.1805,-175.0217"/>
<polygon fill="#000000" stroke="#000000" points="214.4741,-178.2766 222.7316,-171.6385 212.1368,-171.6784 214.4741,-178.2766"/>
<g id="a_edge17&#45;headlabel"><a xlink:href="dir_000582_000276.html" target="_top" xlink:title="1">
<text text-anchor="middle" x="212.0338" y="-179.6531" font-family="Helvetica,sans-Serif" font-size="10.00" fill="#000000">1</text>
</a>
</g>
</g>
<!-- dir_4995562033b321477cfe3c34a14a5189&#45;&gt;dir_bcbb2cf9a3d3d83e5515c82071a07177 -->
<g id="edge18" class="edge">
<title>dir_4995562033b321477cfe3c34a14a5189&#45;&gt;dir_bcbb2cf9a3d3d83e5515c82071a07177</title>
<path fill="none" stroke="#000000" d="M117.566,-653.3716C96.4496,-644.3223 69.9278,-630.4685 51,-612 18.0933,-579.8919 0,-567.9758 0,-522 0,-522 0,-522 0,-234 0,-168.94 209.4442,-118.3657 304.2927,-98.7984"/>
<polygon fill="#000000" stroke="#000000" points="305.0879,-102.2084 314.1887,-96.7837 303.6914,-95.3491 305.0879,-102.2084"/>
<g id="a_edge18&#45;headlabel"><a xlink:href="dir_000582_000013.html" target="_top" xlink:title="11">
<text text-anchor="middle" x="302.1319" y="-103.2076" font-family="Helvetica,sans-Serif" font-size="10.00" fill="#000000">11</text>
</a>
</g>
</g>
<!-- dir_4995562033b321477cfe3c34a14a5189&#45;&gt;dir_2171f7ec022c5423887b07c69b2f5b48 -->
<g id="edge19" class="edge">
<title>dir_4995562033b321477cfe3c34a14a5189&#45;&gt;dir_2171f7ec022c5423887b07c69b2f5b48</title>
<path fill="none" stroke="#000000" d="M143.9412,-647.7668C132.7866,-620.8248 114,-568.5405 114,-522 114,-522 114,-522 114,-450 114,-334.9338 263.9404,-272.7172 344.7654,-247.5383"/>
<polygon fill="#000000" stroke="#000000" points="346.1879,-250.7642 354.7396,-244.5096 344.154,-244.0662 346.1879,-250.7642"/>
<g id="a_edge19&#45;headlabel"><a xlink:href="dir_000582_000076.html" target="_top" xlink:title="21">
<text text-anchor="middle" x="343.5733" y="-252.0253" font-family="Helvetica,sans-Serif" font-size="10.00" fill="#000000">21</text>
</a>
</g>
</g>
<!-- dir_1ccc0e6feb2a9e42d8edde27429c6d63&#45;&gt;dir_bcbb2cf9a3d3d83e5515c82071a07177 -->
<g id="edge12" class="edge">
<title>dir_1ccc0e6feb2a9e42d8edde27429c6d63&#45;&gt;dir_bcbb2cf9a3d3d83e5515c82071a07177</title>
<path fill="none" stroke="#000000" d="M696.2403,-287.8018C697.4532,-254.0964 694.7814,-181.9428 654,-144 617.2208,-109.7808 471.3348,-96.7223 395.8262,-92.1819"/>
<polygon fill="#000000" stroke="#000000" points="395.8421,-88.6771 385.6574,-91.5965 395.4397,-95.6656 395.8421,-88.6771"/>
<g id="a_edge12&#45;headlabel"><a xlink:href="dir_000386_000013.html" target="_top" xlink:title="14">
<text text-anchor="middle" x="399.5939" y="-83.5491" font-family="Helvetica,sans-Serif" font-size="10.00" fill="#000000">14</text>
</a>
</g>
</g>
<!-- dir_1ccc0e6feb2a9e42d8edde27429c6d63&#45;&gt;dir_2171f7ec022c5423887b07c69b2f5b48 -->
<g id="edge13" class="edge">
<title>dir_1ccc0e6feb2a9e42d8edde27429c6d63&#45;&gt;dir_2171f7ec022c5423887b07c69b2f5b48</title>
<path fill="none" stroke="#000000" d="M667.8479,-299.4835C617.4652,-287.3916 508.8283,-261.3188 444.8766,-245.9704"/>
<polygon fill="#000000" stroke="#000000" points="445.5529,-242.5334 435.0121,-243.6029 443.9192,-249.3401 445.5529,-242.5334"/>
<g id="a_edge13&#45;headlabel"><a xlink:href="dir_000386_000076.html" target="_top" xlink:title="4">
<text text-anchor="middle" x="449.7108" y="-238.1113" font-family="Helvetica,sans-Serif" font-size="10.00" fill="#000000">4</text>
</a>
</g>
</g>
<!-- dir_677b030cc750909e4cd27413873678d8&#45;&gt;dir_4ab6b4cc6a7edbff49100e9123df213f -->
<g id="edge20" class="edge">
<title>dir_677b030cc750909e4cd27413873678d8&#45;&gt;dir_4ab6b4cc6a7edbff49100e9123df213f</title>
<path fill="none" stroke="#000000" d="M315,-503.8314C315,-496.131 315,-486.9743 315,-478.4166"/>
<polygon fill="#000000" stroke="#000000" points="318.5001,-478.4132 315,-468.4133 311.5001,-478.4133 318.5001,-478.4132"/>
<g id="a_edge20&#45;headlabel"><a xlink:href="dir_000050_000027.html" target="_top" xlink:title="12">
<text text-anchor="middle" x="321.3393" y="-479.5079" font-family="Helvetica,sans-Serif" font-size="10.00" fill="#000000">12</text>
</a>
</g>
</g>
<!-- dir_677b030cc750909e4cd27413873678d8&#45;&gt;dir_f511f1e9c03c071966ae594f00bbc5e0 -->
<g id="edge21" class="edge">
<title>dir_677b030cc750909e4cd27413873678d8&#45;&gt;dir_f511f1e9c03c071966ae594f00bbc5e0</title>
<path fill="none" stroke="#000000" d="M329.9448,-503.7623C350.6033,-478.5518 388.004,-432.9103 411.6165,-404.0952"/>
<polygon fill="#000000" stroke="#000000" points="414.5455,-406.0428 418.1766,-396.0896 409.1311,-401.606 414.5455,-406.0428"/>
<g id="a_edge21&#45;headlabel"><a xlink:href="dir_000050_000140.html" target="_top" xlink:title="1">
<text text-anchor="middle" x="414.4633" y="-408.1227" font-family="Helvetica,sans-Serif" font-size="10.00" fill="#000000">1</text>
</a>
</g>
</g>
<!-- dir_677b030cc750909e4cd27413873678d8&#45;&gt;dir_bcbb2cf9a3d3d83e5515c82071a07177 -->
<g id="edge22" class="edge">
<title>dir_677b030cc750909e4cd27413873678d8&#45;&gt;dir_bcbb2cf9a3d3d83e5515c82071a07177</title>
<path fill="none" stroke="#000000" d="M296.5146,-503.634C287.164,-493.6767 276.1096,-480.8121 268,-468 189.0539,-343.2757 105.3814,-261.2909 195,-144 208.5856,-126.2195 263.8376,-109.9317 304.52,-99.9969"/>
<polygon fill="#000000" stroke="#000000" points="305.3411,-103.3993 314.2544,-97.6717 303.7148,-96.5908 305.3411,-103.3993"/>
<g id="a_edge22&#45;headlabel"><a xlink:href="dir_000050_000013.html" target="_top" xlink:title="1">
<text text-anchor="middle" x="302.5045" y="-104.4959" font-family="Helvetica,sans-Serif" font-size="10.00" fill="#000000">1</text>
</a>
</g>
</g>
<!-- dir_677b030cc750909e4cd27413873678d8&#45;&gt;dir_26637d1bd82229bc9ed97f7e706be743 -->
<g id="edge23" class="edge">
<title>dir_677b030cc750909e4cd27413873678d8&#45;&gt;dir_26637d1bd82229bc9ed97f7e706be743</title>
<path fill="none" stroke="#000000" d="M342.2695,-507.4228C377.307,-487.2174 437.37,-447.3155 469,-396 480.6157,-377.155 486.6714,-352.7289 489.7919,-334.0794"/>
<polygon fill="#000000" stroke="#000000" points="493.264,-334.5255 491.2751,-324.1191 486.3403,-333.4945 493.264,-334.5255"/>
<g id="a_edge23&#45;headlabel"><a xlink:href="dir_000050_000555.html" target="_top" xlink:title="1">
<text text-anchor="middle" x="495.5429" y="-335.9991" font-family="Helvetica,sans-Serif" font-size="10.00" fill="#000000">1</text>
</a>
</g>
</g>
<!-- dir_677b030cc750909e4cd27413873678d8&#45;&gt;dir_2171f7ec022c5423887b07c69b2f5b48 -->
<g id="edge24" class="edge">
<title>dir_677b030cc750909e4cd27413873678d8&#45;&gt;dir_2171f7ec022c5423887b07c69b2f5b48</title>
<path fill="none" stroke="#000000" d="M296.8424,-503.7286C288.451,-493.9911 279.3877,-481.2949 275,-468 269.9856,-452.8061 270.8645,-447.4563 275,-432 293.2266,-363.8792 342.8275,-296.1375 372.2417,-260.2468"/>
<polygon fill="#000000" stroke="#000000" points="375.194,-262.1707 378.9002,-252.2452 369.8133,-257.6932 375.194,-262.1707"/>
<g id="a_edge24&#45;headlabel"><a xlink:href="dir_000050_000076.html" target="_top" xlink:title="15">
<text text-anchor="middle" x="375.0772" y="-264.2499" font-family="Helvetica,sans-Serif" font-size="10.00" fill="#000000">15</text>
</a>
</g>
</g>
<!-- dir_4ab6b4cc6a7edbff49100e9123df213f&#45;&gt;dir_f511f1e9c03c071966ae594f00bbc5e0 -->
<g id="edge25" class="edge">
<title>dir_4ab6b4cc6a7edbff49100e9123df213f&#45;&gt;dir_f511f1e9c03c071966ae594f00bbc5e0</title>
<path fill="none" stroke="#000000" d="M338.824,-431.8314C355.4897,-421.0195 377.9041,-407.337 396.7446,-396.4721"/>
<polygon fill="#000000" stroke="#000000" points="398.7094,-399.381 405.6657,-391.3897 395.2443,-393.2988 398.7094,-399.381"/>
<g id="a_edge25&#45;headlabel"><a xlink:href="dir_000027_000140.html" target="_top" xlink:title="3">
<text text-anchor="middle" x="396.9915" y="-401.1273" font-family="Helvetica,sans-Serif" font-size="10.00" fill="#000000">3</text>
</a>
</g>
</g>
<!-- dir_4ab6b4cc6a7edbff49100e9123df213f&#45;&gt;dir_bcbb2cf9a3d3d83e5515c82071a07177 -->
<g id="edge26" class="edge">
<title>dir_4ab6b4cc6a7edbff49100e9123df213f&#45;&gt;dir_bcbb2cf9a3d3d83e5515c82071a07177</title>
<path fill="none" stroke="#000000" d="M294.6133,-431.9146C247.1662,-382.1106 139.641,-240.274 205,-144 226.5953,-112.1901 270.1891,-99.1183 304.083,-93.7468"/>
<polygon fill="#000000" stroke="#000000" points="304.8408,-97.1747 314.2552,-92.3147 303.8649,-90.243 304.8408,-97.1747"/>
<g id="a_edge26&#45;headlabel"><a xlink:href="dir_000027_000013.html" target="_top" xlink:title="2">
<text text-anchor="middle" x="301.6771" y="-97.9872" font-family="Helvetica,sans-Serif" font-size="10.00" fill="#000000">2</text>
</a>
</g>
</g>
<!-- dir_4ab6b4cc6a7edbff49100e9123df213f&#45;&gt;dir_2171f7ec022c5423887b07c69b2f5b48 -->
<g id="edge27" class="edge">
<title>dir_4ab6b4cc6a7edbff49100e9123df213f&#45;&gt;dir_2171f7ec022c5423887b07c69b2f5b48</title>
<path fill="none" stroke="#000000" d="M317.7372,-431.9555C328.2863,-394.0762 360.6362,-306.0818 380.2309,-261.274"/>
<polygon fill="#000000" stroke="#000000" points="383.4264,-262.7018 384.3245,-252.1451 377.0391,-259.8376 383.4264,-262.7018"/>
<g id="a_edge27&#45;headlabel"><a xlink:href="dir_000027_000076.html" target="_top" xlink:title="2">
<text text-anchor="middle" x="384.5463" y="-264.6434" font-family="Helvetica,sans-Serif" font-size="10.00" fill="#000000">2</text>
</a>
</g>
</g>
<!-- dir_a5de047958dd458e809773c6ffaa8478&#45;&gt;dir_677b030cc750909e4cd27413873678d8 -->
<g id="edge28" class="edge">
<title>dir_a5de047958dd458e809773c6ffaa8478&#45;&gt;dir_677b030cc750909e4cd27413873678d8</title>
<path fill="none" stroke="#000000" d="M430.1393,-575.8314C406.0186,-564.5541 375.2177,-550.1537 351.5432,-539.0851"/>
<polygon fill="#000000" stroke="#000000" points="352.7409,-535.7815 342.1997,-534.7168 349.7762,-542.1227 352.7409,-535.7815"/>
<g id="a_edge28&#45;headlabel"><a xlink:href="dir_000366_000050.html" target="_top" xlink:title="43">
<text text-anchor="middle" x="357.1997" y="-532.2318" font-family="Helvetica,sans-Serif" font-size="10.00" fill="#000000">43</text>
</a>
</g>
</g>
<!-- dir_a5de047958dd458e809773c6ffaa8478&#45;&gt;dir_4ab6b4cc6a7edbff49100e9123df213f -->
<g id="edge29" class="edge">
<title>dir_a5de047958dd458e809773c6ffaa8478&#45;&gt;dir_4ab6b4cc6a7edbff49100e9123df213f</title>
<path fill="none" stroke="#000000" d="M453.6974,-575.9356C437.4415,-557.1573 410.6048,-527.3078 385,-504 373.6745,-493.6905 360.5433,-483.214 348.7345,-474.2668"/>
<polygon fill="#000000" stroke="#000000" points="350.5192,-471.2311 340.4143,-468.0465 346.3277,-476.8375 350.5192,-471.2311"/>
<g id="a_edge29&#45;headlabel"><a xlink:href="dir_000366_000027.html" target="_top" xlink:title="2">
<text text-anchor="middle" x="355.0982" y="-468.6095" font-family="Helvetica,sans-Serif" font-size="10.00" fill="#000000">2</text>
</a>
</g>
</g>
<!-- dir_a5de047958dd458e809773c6ffaa8478&#45;&gt;dir_f511f1e9c03c071966ae594f00bbc5e0 -->
<g id="edge30" class="edge">
<title>dir_a5de047958dd458e809773c6ffaa8478&#45;&gt;dir_f511f1e9c03c071966ae594f00bbc5e0</title>
<path fill="none" stroke="#000000" d="M465.9926,-575.9555C459.7191,-538.3144 445.1978,-451.1867 437.6874,-406.1246"/>
<polygon fill="#000000" stroke="#000000" points="441.1206,-405.4336 436.0242,-396.1451 434.2159,-406.5844 441.1206,-405.4336"/>
<g id="a_edge30&#45;headlabel"><a xlink:href="dir_000366_000140.html" target="_top" xlink:title="11">
<text text-anchor="middle" x="444.5121" y="-406.0125" font-family="Helvetica,sans-Serif" font-size="10.00" fill="#000000">11</text>
</a>
</g>
</g>
<!-- dir_a5de047958dd458e809773c6ffaa8478&#45;&gt;dir_bcbb2cf9a3d3d83e5515c82071a07177 -->
<g id="edge31" class="edge">
<title>dir_a5de047958dd458e809773c6ffaa8478&#45;&gt;dir_bcbb2cf9a3d3d83e5515c82071a07177</title>
<path fill="none" stroke="#000000" d="M498.0078,-575.9341C546.7949,-543.0497 640,-468.3965 640,-378 640,-378 640,-378 640,-234 640,-126.1862 477.22,-99.0933 395.5716,-92.2851"/>
<polygon fill="#000000" stroke="#000000" points="395.7978,-88.7922 385.5597,-91.5181 395.2631,-95.7718 395.7978,-88.7922"/>
<g id="a_edge31&#45;headlabel"><a xlink:href="dir_000366_000013.html" target="_top" xlink:title="1">
<text text-anchor="middle" x="399.5988" y="-83.7357" font-family="Helvetica,sans-Serif" font-size="10.00" fill="#000000">1</text>
</a>
</g>
</g>
<!-- dir_a5de047958dd458e809773c6ffaa8478&#45;&gt;dir_26637d1bd82229bc9ed97f7e706be743 -->
<g id="edge32" class="edge">
<title>dir_a5de047958dd458e809773c6ffaa8478&#45;&gt;dir_26637d1bd82229bc9ed97f7e706be743</title>
<path fill="none" stroke="#000000" d="M471.5734,-575.7586C476.3677,-540.9124 486.5799,-462.4322 491,-396 492.3662,-375.4666 492.8561,-352.2462 493.0097,-334.535"/>
<polygon fill="#000000" stroke="#000000" points="496.5109,-334.3119 493.0667,-324.2925 489.511,-334.2728 496.5109,-334.3119"/>
<g id="a_edge32&#45;headlabel"><a xlink:href="dir_000366_000555.html" target="_top" xlink:title="1">
<text text-anchor="middle" x="499.3302" y="-335.4222" font-family="Helvetica,sans-Serif" font-size="10.00" fill="#000000">1</text>
</a>
</g>
</g>
<!-- dir_a5de047958dd458e809773c6ffaa8478&#45;&gt;dir_2171f7ec022c5423887b07c69b2f5b48 -->
<g id="edge33" class="edge">
<title>dir_a5de047958dd458e809773c6ffaa8478&#45;&gt;dir_2171f7ec022c5423887b07c69b2f5b48</title>
<path fill="none" stroke="#000000" d="M480.9538,-575.9669C512.6385,-525.6957 592.1607,-381.5492 529,-288 510.2749,-260.2657 474.6715,-246.7726 444.8685,-240.2097"/>
<polygon fill="#000000" stroke="#000000" points="445.5088,-236.7685 435.0165,-238.2391 444.1358,-243.6325 445.5088,-236.7685"/>
<g id="a_edge33&#45;headlabel"><a xlink:href="dir_000366_000076.html" target="_top" xlink:title="37">
<text text-anchor="middle" x="449.5904" y="-232.1893" font-family="Helvetica,sans-Serif" font-size="10.00" fill="#000000">37</text>
</a>
</g>
</g>
<!-- dir_37c90836491b695b472bf98d1be8336b&#45;&gt;dir_4ab6b4cc6a7edbff49100e9123df213f -->
<g id="edge34" class="edge">
<title>dir_37c90836491b695b472bf98d1be8336b&#45;&gt;dir_4ab6b4cc6a7edbff49100e9123df213f</title>
<path fill="none" stroke="#000000" d="M254.0645,-180.0089C265.0518,-228.6912 295.4071,-363.1886 308.6658,-421.9345"/>
<polygon fill="#000000" stroke="#000000" points="305.3182,-423.0002 310.934,-431.9843 312.1464,-421.4591 305.3182,-423.0002"/>
<g id="a_edge34&#45;headlabel"><a xlink:href="dir_000276_000027.html" target="_top" xlink:title="16">
<text text-anchor="middle" x="301.7573" y="-417.6189" font-family="Helvetica,sans-Serif" font-size="10.00" fill="#000000">16</text>
</a>
</g>
</g>
<!-- dir_37c90836491b695b472bf98d1be8336b&#45;&gt;dir_f511f1e9c03c071966ae594f00bbc5e0 -->
<g id="edge35" class="edge">
<title>dir_37c90836491b695b472bf98d1be8336b&#45;&gt;dir_f511f1e9c03c071966ae594f00bbc5e0</title>
<path fill="none" stroke="#000000" d="M265.3729,-180.1451C297.8773,-218.5109 373.6636,-307.9636 411.173,-352.237"/>
<polygon fill="#000000" stroke="#000000" points="408.5776,-354.5881 417.7123,-359.9555 413.9185,-350.0631 408.5776,-354.5881"/>
<g id="a_edge35&#45;headlabel"><a xlink:href="dir_000276_000140.html" target="_top" xlink:title="14">
<text text-anchor="middle" x="404.0877" y="-351.1808" font-family="Helvetica,sans-Serif" font-size="10.00" fill="#000000">14</text>
</a>
</g>
</g>
<!-- dir_37c90836491b695b472bf98d1be8336b&#45;&gt;dir_bcbb2cf9a3d3d83e5515c82071a07177 -->
<g id="edge36" class="edge">
<title>dir_37c90836491b695b472bf98d1be8336b&#45;&gt;dir_bcbb2cf9a3d3d83e5515c82071a07177</title>
<path fill="none" stroke="#000000" d="M275.2342,-143.8314C287.788,-134.7927 303.1283,-123.7476 316.6391,-114.0198"/>
<polygon fill="#000000" stroke="#000000" points="318.7036,-116.8463 324.7739,-108.1628 314.6134,-111.1655 318.7036,-116.8463"/>
<g id="a_edge36&#45;headlabel"><a xlink:href="dir_000276_000013.html" target="_top" xlink:title="1">
<text text-anchor="middle" x="317.4454" y="-118.7508" font-family="Helvetica,sans-Serif" font-size="10.00" fill="#000000">1</text>
</a>
</g>
</g>
<!-- dir_37c90836491b695b472bf98d1be8336b&#45;&gt;dir_2171f7ec022c5423887b07c69b2f5b48 -->
<g id="edge37" class="edge">
<title>dir_37c90836491b695b472bf98d1be8336b&#45;&gt;dir_2171f7ec022c5423887b07c69b2f5b48</title>
<path fill="none" stroke="#000000" d="M277.1387,-172.9842C299.176,-183.0733 330.3747,-198.3468 355.1949,-211.0882"/>
<polygon fill="#000000" stroke="#000000" points="353.8727,-214.3448 364.3628,-215.8314 357.0894,-208.1276 353.8727,-214.3448"/>
<g id="a_edge37&#45;headlabel"><a xlink:href="dir_000276_000076.html" target="_top" xlink:title="10">
<text text-anchor="middle" x="349.3754" y="-212.7148" font-family="Helvetica,sans-Serif" font-size="10.00" fill="#000000">10</text>
</a>
</g>
</g>
<!-- dir_8ba487e25de5ee77e05e9dce7582cb98&#45;&gt;dir_2171f7ec022c5423887b07c69b2f5b48 -->
<g id="edge38" class="edge">
<title>dir_8ba487e25de5ee77e05e9dce7582cb98&#45;&gt;dir_2171f7ec022c5423887b07c69b2f5b48</title>
<path fill="none" stroke="#000000" d="M424.603,-36.1451C423.1649,-73.8741 412.1234,-161.0083 403.3462,-205.9956"/>
<polygon fill="#000000" stroke="#000000" points="399.8843,-205.4537 401.285,-215.9555 406.739,-206.8723 399.8843,-205.4537"/>
<g id="a_edge38&#45;headlabel"><a xlink:href="dir_000000_000076.html" target="_top" xlink:title="8">
<text text-anchor="middle" x="397.8323" y="-198.8583" font-family="Helvetica,sans-Serif" font-size="10.00" fill="#000000">8</text>
</a>
</g>
</g>
<!-- dir_f511f1e9c03c071966ae594f00bbc5e0&#45;&gt;dir_4ab6b4cc6a7edbff49100e9123df213f -->
<g id="edge39" class="edge">
<title>dir_f511f1e9c03c071966ae594f00bbc5e0&#45;&gt;dir_4ab6b4cc6a7edbff49100e9123df213f</title>
<path fill="none" stroke="#000000" d="M409.3639,-396.0467C393.5813,-406.2917 372.5845,-419.1441 354.3534,-429.7347"/>
<polygon fill="#000000" stroke="#000000" points="352.5868,-426.7131 345.6608,-434.7307 356.0749,-432.7821 352.5868,-426.7131"/>
<g id="a_edge39&#45;headlabel"><a xlink:href="dir_000140_000027.html" target="_top" xlink:title="2">
<text text-anchor="middle" x="354.2885" y="-419.9603" font-family="Helvetica,sans-Serif" font-size="10.00" fill="#000000">2</text>
</a>
</g>
</g>
<!-- dir_f511f1e9c03c071966ae594f00bbc5e0&#45;&gt;dir_26637d1bd82229bc9ed97f7e706be743 -->
<g id="edge40" class="edge">
<title>dir_f511f1e9c03c071966ae594f00bbc5e0&#45;&gt;dir_26637d1bd82229bc9ed97f7e706be743</title>
<path fill="none" stroke="#000000" d="M442.1881,-359.8314C448.4151,-351.3694 456.747,-341.1489 464.9111,-331.8971"/>
<polygon fill="#000000" stroke="#000000" points="467.5677,-334.1776 471.6796,-324.4133 462.376,-329.4822 467.5677,-334.1776"/>
<g id="a_edge40&#45;headlabel"><a xlink:href="dir_000140_000555.html" target="_top" xlink:title="1">
<text text-anchor="middle" x="467.2623" y="-336.2481" font-family="Helvetica,sans-Serif" font-size="10.00" fill="#000000">1</text>
</a>
</g>
</g>
<!-- dir_f511f1e9c03c071966ae594f00bbc5e0&#45;&gt;dir_2171f7ec022c5423887b07c69b2f5b48 -->
<g id="edge41" class="edge">
<title>dir_f511f1e9c03c071966ae594f00bbc5e0&#45;&gt;dir_2171f7ec022c5423887b07c69b2f5b48</title>
<path fill="none" stroke="#000000" d="M423.5141,-359.7623C414.5335,-335.0928 402.5946,-290.8598 396.9097,-261.9731"/>
<polygon fill="#000000" stroke="#000000" points="400.3455,-261.3035 395.1154,-252.0896 393.4581,-262.554 400.3455,-261.3035"/>
<g id="a_edge41&#45;headlabel"><a xlink:href="dir_000140_000076.html" target="_top" xlink:title="12">
<text text-anchor="middle" x="403.7811" y="-261.8332" font-family="Helvetica,sans-Serif" font-size="10.00" fill="#000000">12</text>
</a>
</g>
</g>
<!-- dir_bcbb2cf9a3d3d83e5515c82071a07177&#45;&gt;dir_4ab6b4cc6a7edbff49100e9123df213f -->
<g id="edge42" class="edge">
<title>dir_bcbb2cf9a3d3d83e5515c82071a07177&#45;&gt;dir_4ab6b4cc6a7edbff49100e9123df213f</title>
<path fill="none" stroke="#000000" d="M314.1913,-94.5237C284.2915,-100.3388 243.6187,-113.6285 223,-144 160.96,-235.3851 254.6915,-367.8228 296.6934,-423.6333"/>
<polygon fill="#000000" stroke="#000000" points="294.1339,-426.0514 302.9585,-431.9146 299.7163,-421.828 294.1339,-426.0514"/>
<g id="a_edge42&#45;headlabel"><a xlink:href="dir_000013_000027.html" target="_top" xlink:title="9">
<text text-anchor="middle" x="289.7009" y="-422.3977" font-family="Helvetica,sans-Serif" font-size="10.00" fill="#000000">9</text>
</a>
</g>
</g>
<!-- dir_bcbb2cf9a3d3d83e5515c82071a07177&#45;&gt;dir_8ba487e25de5ee77e05e9dce7582cb98 -->
<g id="edge43" class="edge">
<title>dir_bcbb2cf9a3d3d83e5515c82071a07177&#45;&gt;dir_8ba487e25de5ee77e05e9dce7582cb98</title>
<path fill="none" stroke="#000000" d="M368.421,-71.8314C377.1529,-63.219 387.7317,-52.7851 397.2423,-43.4048"/>
<polygon fill="#000000" stroke="#000000" points="399.923,-45.6769 404.5849,-36.1628 395.0075,-40.6931 399.923,-45.6769"/>
<g id="a_edge43&#45;headlabel"><a xlink:href="dir_000013_000000.html" target="_top" xlink:title="1">
<text text-anchor="middle" x="399.3575" y="-47.7225" font-family="Helvetica,sans-Serif" font-size="10.00" fill="#000000">1</text>
</a>
</g>
</g>
<!-- dir_bcbb2cf9a3d3d83e5515c82071a07177&#45;&gt;dir_2171f7ec022c5423887b07c69b2f5b48 -->
<g id="edge44" class="edge">
<title>dir_bcbb2cf9a3d3d83e5515c82071a07177&#45;&gt;dir_2171f7ec022c5423887b07c69b2f5b48</title>
<path fill="none" stroke="#000000" d="M360.3113,-108.0896C370.4754,-132.6805 384.5707,-176.905 391.6878,-205.8531"/>
<polygon fill="#000000" stroke="#000000" points="388.3154,-206.8051 393.9739,-215.7623 395.1362,-205.2314 388.3154,-206.8051"/>
<g id="a_edge44&#45;headlabel"><a xlink:href="dir_000013_000076.html" target="_top" xlink:title="82">
<text text-anchor="middle" x="384.7408" y="-201.4407" font-family="Helvetica,sans-Serif" font-size="10.00" fill="#000000">82</text>
</a>
</g>
</g>
<!-- dir_26637d1bd82229bc9ed97f7e706be743&#45;&gt;dir_4ab6b4cc6a7edbff49100e9123df213f -->
<g id="edge45" class="edge">
<title>dir_26637d1bd82229bc9ed97f7e706be743&#45;&gt;dir_4ab6b4cc6a7edbff49100e9123df213f</title>
<path fill="none" stroke="#000000" d="M465.9061,-318.3233C445.8445,-328.1192 418.3974,-342.9734 397,-360 373.3707,-378.8026 350.5779,-404.647 335.0465,-423.8186"/>
<polygon fill="#000000" stroke="#000000" points="332.1438,-421.845 328.6492,-431.847 337.6183,-426.2073 332.1438,-421.845"/>
<g id="a_edge45&#45;headlabel"><a xlink:href="dir_000555_000027.html" target="_top" xlink:title="6">
<text text-anchor="middle" x="332.1634" y="-414.7644" font-family="Helvetica,sans-Serif" font-size="10.00" fill="#000000">6</text>
</a>
</g>
</g>
<!-- dir_26637d1bd82229bc9ed97f7e706be743&#45;&gt;dir_f511f1e9c03c071966ae594f00bbc5e0 -->
<g id="edge46" class="edge">
<title>dir_26637d1bd82229bc9ed97f7e706be743&#45;&gt;dir_f511f1e9c03c071966ae594f00bbc5e0</title>
<path fill="none" stroke="#000000" d="M483.6316,-324.4133C477.3643,-332.9088 469.0141,-343.1366 460.8534,-352.3696"/>
<polygon fill="#000000" stroke="#000000" points="458.2134,-350.0706 454.0929,-359.8314 463.401,-354.7706 458.2134,-350.0706"/>
<g id="a_edge46&#45;headlabel"><a xlink:href="dir_000555_000140.html" target="_top" xlink:title="2">
<text text-anchor="middle" x="458.5228" y="-343.0004" font-family="Helvetica,sans-Serif" font-size="10.00" fill="#000000">2</text>
</a>
</g>
</g>
<!-- dir_26637d1bd82229bc9ed97f7e706be743&#45;&gt;dir_bcbb2cf9a3d3d83e5515c82071a07177 -->
<g id="edge47" class="edge">
<title>dir_26637d1bd82229bc9ed97f7e706be743&#45;&gt;dir_bcbb2cf9a3d3d83e5515c82071a07177</title>
<path fill="none" stroke="#000000" d="M483.704,-287.8031C474.1769,-269.4312 458.7151,-240.3666 444,-216 424.1185,-183.0783 419.1765,-174.6914 396,-144 388.8405,-134.5191 380.5448,-124.5155 372.9858,-115.7294"/>
<polygon fill="#000000" stroke="#000000" points="375.51,-113.2983 366.3048,-108.0528 370.2297,-117.8939 375.51,-113.2983"/>
<g id="a_edge47&#45;headlabel"><a xlink:href="dir_000555_000013.html" target="_top" xlink:title="24">
<text text-anchor="middle" x="380.0115" y="-111.6459" font-family="Helvetica,sans-Serif" font-size="10.00" fill="#000000">24</text>
</a>
</g>
</g>
<!-- dir_26637d1bd82229bc9ed97f7e706be743&#45;&gt;dir_2171f7ec022c5423887b07c69b2f5b48 -->
<g id="edge48" class="edge">
<title>dir_26637d1bd82229bc9ed97f7e706be743&#45;&gt;dir_2171f7ec022c5423887b07c69b2f5b48</title>
<path fill="none" stroke="#000000" d="M468.2705,-287.8314C456.0838,-278.8779 441.2177,-267.9558 428.0688,-258.2955"/>
<polygon fill="#000000" stroke="#000000" points="429.8527,-255.263 419.7216,-252.1628 425.7082,-260.9042 429.8527,-255.263"/>
<g id="a_edge48&#45;headlabel"><a xlink:href="dir_000555_000076.html" target="_top" xlink:title="11">
<text text-anchor="middle" x="434.4306" y="-252.6032" font-family="Helvetica,sans-Serif" font-size="10.00" fill="#000000">11</text>
</a>
</g>
</g>
<!-- dir_2171f7ec022c5423887b07c69b2f5b48&#45;&gt;dir_4ab6b4cc6a7edbff49100e9123df213f -->
<g id="edge49" class="edge">
<title>dir_2171f7ec022c5423887b07c69b2f5b48&#45;&gt;dir_4ab6b4cc6a7edbff49100e9123df213f</title>
<path fill="none" stroke="#000000" d="M392.2347,-252.1451C381.6694,-290.0333 349.4249,-377.7445 329.8405,-422.5628"/>
<polygon fill="#000000" stroke="#000000" points="326.5267,-421.3987 325.6291,-431.9555 332.9141,-424.2627 326.5267,-421.3987"/>
<g id="a_edge49&#45;headlabel"><a xlink:href="dir_000076_000027.html" target="_top" xlink:title="33">
<text text-anchor="middle" x="325.4066" y="-414.4571" font-family="Helvetica,sans-Serif" font-size="10.00" fill="#000000">33</text>
</a>
</g>
</g>
<!-- dir_2171f7ec022c5423887b07c69b2f5b48&#45;&gt;dir_37c90836491b695b472bf98d1be8336b -->
<g id="edge50" class="edge">
<title>dir_2171f7ec022c5423887b07c69b2f5b48&#45;&gt;dir_37c90836491b695b472bf98d1be8336b</title>
<path fill="none" stroke="#000000" d="M354.7971,-216.937C333.2945,-206.7942 307.1001,-193.8478 286.229,-183.0707"/>
<polygon fill="#000000" stroke="#000000" points="287.8315,-179.9592 277.3455,-178.4449 284.5985,-186.1679 287.8315,-179.9592"/>
<g id="a_edge50&#45;headlabel"><a xlink:href="dir_000076_000276.html" target="_top" xlink:title="1">
<text text-anchor="middle" x="292.3311" y="-176.601" font-family="Helvetica,sans-Serif" font-size="10.00" fill="#000000">1</text>
</a>
</g>
</g>
<!-- dir_2171f7ec022c5423887b07c69b2f5b48&#45;&gt;dir_8ba487e25de5ee77e05e9dce7582cb98 -->
<g id="edge51" class="edge">
<title>dir_2171f7ec022c5423887b07c69b2f5b48&#45;&gt;dir_8ba487e25de5ee77e05e9dce7582cb98</title>
<path fill="none" stroke="#000000" d="M393.3932,-215.9555C394.8141,-178.3144 405.8492,-91.1867 414.6304,-46.1246"/>
<polygon fill="#000000" stroke="#000000" points="418.0964,-46.6465 416.6927,-36.1451 411.2412,-45.2298 418.0964,-46.6465"/>
<g id="a_edge51&#45;headlabel"><a xlink:href="dir_000076_000000.html" target="_top" xlink:title="2">
<text text-anchor="middle" x="420.1495" y="-48.2413" font-family="Helvetica,sans-Serif" font-size="10.00" fill="#000000">2</text>
</a>
</g>
</g>
<!-- dir_2171f7ec022c5423887b07c69b2f5b48&#45;&gt;dir_f511f1e9c03c071966ae594f00bbc5e0 -->
<g id="edge52" class="edge">
<title>dir_2171f7ec022c5423887b07c69b2f5b48&#45;&gt;dir_f511f1e9c03c071966ae594f00bbc5e0</title>
<path fill="none" stroke="#000000" d="M404.4319,-252.0896C413.4007,-276.6805 425.3462,-320.905 431.056,-349.8531"/>
<polygon fill="#000000" stroke="#000000" points="427.6255,-350.5511 432.8604,-359.7623 434.5122,-349.297 427.6255,-350.5511"/>
<g id="a_edge52&#45;headlabel"><a xlink:href="dir_000076_000140.html" target="_top" xlink:title="11">
<text text-anchor="middle" x="424.1883" y="-345.0233" font-family="Helvetica,sans-Serif" font-size="10.00" fill="#000000">11</text>
</a>
</g>
</g>
<!-- dir_2171f7ec022c5423887b07c69b2f5b48&#45;&gt;dir_bcbb2cf9a3d3d83e5515c82071a07177 -->
<g id="edge53" class="edge">
<title>dir_2171f7ec022c5423887b07c69b2f5b48&#45;&gt;dir_bcbb2cf9a3d3d83e5515c82071a07177</title>
<path fill="none" stroke="#000000" d="M384.6275,-215.7623C374.4477,-191.0928 360.3586,-146.8598 353.2695,-117.9731"/>
<polygon fill="#000000" stroke="#000000" points="356.6486,-117.0497 350.9947,-108.0896 349.827,-118.6199 356.6486,-117.0497"/>
<g id="a_edge53&#45;headlabel"><a xlink:href="dir_000076_000013.html" target="_top" xlink:title="7">
<text text-anchor="middle" x="360.2217" y="-117.4159" font-family="Helvetica,sans-Serif" font-size="10.00" fill="#000000">7</text>
</a>
</g>
</g>
</g>
</svg>
