<?xml version="1.0" encoding="UTF-8" standalone="no"?>
<!DOCTYPE svg PUBLIC "-//W3C//DTD SVG 1.1//EN"
 "http://www.w3.org/Graphics/SVG/1.1/DTD/svg11.dtd">
<!-- Generated by graphviz version 2.40.1 (20161225.0304)
 -->
<!-- Title: /home/travis/build/AliceO2Group/AliceO2/DataFormats/Detectors/TPC Pages: 1 -->
<svg width="422pt" height="447pt"
 viewBox="0.00 0.00 422.18 447.00" xmlns="http://www.w3.org/2000/svg" xmlns:xlink="http://www.w3.org/1999/xlink">
<g id="graph0" class="graph" transform="scale(1 1) rotate(0) translate(4 443)">
<title>/home/travis/build/AliceO2Group/AliceO2/DataFormats/Detectors/TPC</title>
<g id="clust1" class="cluster">
<title>clusterdir_2801adc79bf3c286b1b479858d2cade4</title>
<g id="a_clust1"><a xlink:href="dir_2801adc79bf3c286b1b479858d2cade4.html" target="_top" xlink:title="Detectors">
<polygon fill="#ddddee" stroke="#000000" points="148.681,-272 148.681,-431 378.681,-431 378.681,-272 148.681,-272"/>
<text text-anchor="middle" x="263.681" y="-419" font-family="Helvetica,sans-Serif" font-size="10.00" fill="#000000">Detectors</text>
</a>
</g>
</g>
<g id="clust2" class="cluster">
<title>clusterdir_87e4e27fa2128902da5e37b3e7ab3f52</title>
<g id="a_clust2"><a xlink:href="dir_87e4e27fa2128902da5e37b3e7ab3f52.html" target="_top">
<polygon fill="#eeeeff" stroke="#000000" points="156.681,-280 156.681,-404 370.681,-404 370.681,-280 156.681,-280"/>
</a>
</g>
</g>
<!-- dir_87e4e27fa2128902da5e37b3e7ab3f52 -->
<g id="node1" class="node">
<title>dir_87e4e27fa2128902da5e37b3e7ab3f52</title>
<text text-anchor="middle" x="335.681" y="-375.5" font-family="Helvetica,sans-Serif" font-size="10.00" fill="#000000">TPC</text>
</g>
<!-- dir_6f22cbd49ee75d810f2bfe3ea5accc3c -->
<g id="node2" class="node">
<title>dir_6f22cbd49ee75d810f2bfe3ea5accc3c</title>
<g id="a_node2"><a xlink:href="dir_6f22cbd49ee75d810f2bfe3ea5accc3c.html" target="_top" xlink:title="include">
<polygon fill="#ffffff" stroke="#ff0000" points="252.681,-324 198.681,-324 198.681,-288 252.681,-288 252.681,-324"/>
<text text-anchor="middle" x="225.681" y="-303.5" font-family="Helvetica,sans-Serif" font-size="10.00" fill="#000000">include</text>
</a>
</g>
</g>
<!-- dir_d269712cc31e133b892a3b3f6424741a -->
<g id="node5" class="node">
<title>dir_d269712cc31e133b892a3b3f6424741a</title>
<g id="a_node5"><a xlink:href="dir_d269712cc31e133b892a3b3f6424741a.html" target="_top" xlink:title="Reconstruction">
<polygon fill="none" stroke="#ff0000" points="116.181,-324 27.181,-324 27.181,-288 116.181,-288 116.181,-324"/>
<text text-anchor="middle" x="71.681" y="-303.5" font-family="Helvetica,sans-Serif" font-size="10.00" fill="#000000">Reconstruction</text>
</a>
</g>
</g>
<!-- dir_6f22cbd49ee75d810f2bfe3ea5accc3c&#45;&gt;dir_d269712cc31e133b892a3b3f6424741a -->
<g id="edge10" class="edge">
<title>dir_6f22cbd49ee75d810f2bfe3ea5accc3c&#45;&gt;dir_d269712cc31e133b892a3b3f6424741a</title>
<path fill="none" stroke="#000000" d="M198.3099,-306C174.3602,-306 150.4105,-306 126.4608,-306"/>
<polygon fill="#000000" stroke="#000000" points="126.1966,-302.5001 116.1966,-306 126.1966,-309.5001 126.1966,-302.5001"/>
<g id="a_edge10&#45;headlabel"><a xlink:href="dir_000162_000233.html" target="_top" xlink:title="2">
<text text-anchor="middle" x="129.7912" y="-297.1607" font-family="Helvetica,sans-Serif" font-size="10.00" fill="#000000">2</text>
</a>
</g>
</g>
<!-- dir_4ab6b4cc6a7edbff49100e9123df213f -->
<g id="node6" class="node">
<title>dir_4ab6b4cc6a7edbff49100e9123df213f</title>
<g id="a_node6"><a xlink:href="dir_4ab6b4cc6a7edbff49100e9123df213f.html" target="_top" xlink:title="Common">
<polygon fill="none" stroke="#ff0000" points="102.181,-252 41.181,-252 41.181,-216 102.181,-216 102.181,-252"/>
<text text-anchor="middle" x="71.681" y="-231.5" font-family="Helvetica,sans-Serif" font-size="10.00" fill="#000000">Common</text>
</a>
</g>
</g>
<!-- dir_6f22cbd49ee75d810f2bfe3ea5accc3c&#45;&gt;dir_4ab6b4cc6a7edbff49100e9123df213f -->
<g id="edge11" class="edge">
<title>dir_6f22cbd49ee75d810f2bfe3ea5accc3c&#45;&gt;dir_4ab6b4cc6a7edbff49100e9123df213f</title>
<path fill="none" stroke="#000000" d="M198.5034,-293.2936C174.4041,-282.0264 138.8942,-265.4243 111.5744,-252.6515"/>
<polygon fill="#000000" stroke="#000000" points="112.826,-249.373 102.2848,-248.3083 109.8613,-255.7142 112.826,-249.373"/>
<g id="a_edge11&#45;headlabel"><a xlink:href="dir_000162_000027.html" target="_top" xlink:title="2">
<text text-anchor="middle" x="117.2848" y="-245.8234" font-family="Helvetica,sans-Serif" font-size="10.00" fill="#000000">2</text>
</a>
</g>
</g>
<!-- dir_183e7c4434404fe9096e1bd8673e1fcf -->
<g id="node7" class="node">
<title>dir_183e7c4434404fe9096e1bd8673e1fcf</title>
<g id="a_node7"><a xlink:href="dir_183e7c4434404fe9096e1bd8673e1fcf.html" target="_top" xlink:title="Headers">
<polygon fill="none" stroke="#ff0000" points="292.181,-108 235.181,-108 235.181,-72 292.181,-72 292.181,-108"/>
<text text-anchor="middle" x="263.681" y="-87.5" font-family="Helvetica,sans-Serif" font-size="10.00" fill="#000000">Headers</text>
</a>
</g>
</g>
<!-- dir_6f22cbd49ee75d810f2bfe3ea5accc3c&#45;&gt;dir_183e7c4434404fe9096e1bd8673e1fcf -->
<g id="edge12" class="edge">
<title>dir_6f22cbd49ee75d810f2bfe3ea5accc3c&#45;&gt;dir_183e7c4434404fe9096e1bd8673e1fcf</title>
<path fill="none" stroke="#000000" d="M229.1606,-287.5156C231.1086,-277.0916 233.5642,-263.8254 235.681,-252 244.0401,-205.3023 253.3479,-150.9531 258.8487,-118.573"/>
<polygon fill="#000000" stroke="#000000" points="262.3395,-118.9215 260.5614,-108.4769 255.4381,-117.7507 262.3395,-118.9215"/>
<g id="a_edge12&#45;headlabel"><a xlink:href="dir_000162_000080.html" target="_top" xlink:title="1">
<text text-anchor="middle" x="264.5377" y="-120.4403" font-family="Helvetica,sans-Serif" font-size="10.00" fill="#000000">1</text>
</a>
</g>
</g>
<!-- dir_8ba487e25de5ee77e05e9dce7582cb98 -->
<g id="node8" class="node">
<title>dir_8ba487e25de5ee77e05e9dce7582cb98</title>
<g id="a_node8"><a xlink:href="dir_8ba487e25de5ee77e05e9dce7582cb98.html" target="_top" xlink:title="Algorithm">
<polygon fill="none" stroke="#ff0000" points="414.181,-252 349.181,-252 349.181,-216 414.181,-216 414.181,-252"/>
<text text-anchor="middle" x="381.681" y="-231.5" font-family="Helvetica,sans-Serif" font-size="10.00" fill="#000000">Algorithm</text>
</a>
</g>
</g>
<!-- dir_6f22cbd49ee75d810f2bfe3ea5accc3c&#45;&gt;dir_8ba487e25de5ee77e05e9dce7582cb98 -->
<g id="edge13" class="edge">
<title>dir_6f22cbd49ee75d810f2bfe3ea5accc3c&#45;&gt;dir_8ba487e25de5ee77e05e9dce7582cb98</title>
<path fill="none" stroke="#000000" d="M248.7611,-287.9727C256.6799,-282.3438 265.7926,-276.4501 274.681,-272 299.8159,-259.4159 308.2163,-261.4733 334.681,-252 336.2929,-251.423 337.9333,-250.8289 339.5886,-250.2237"/>
<polygon fill="#000000" stroke="#000000" points="340.9788,-253.441 349.1339,-246.6775 338.541,-246.8792 340.9788,-253.441"/>
<g id="a_edge13&#45;headlabel"><a xlink:href="dir_000162_000000.html" target="_top" xlink:title="1">
<text text-anchor="middle" x="338.598" y="-254.8543" font-family="Helvetica,sans-Serif" font-size="10.00" fill="#000000">1</text>
</a>
</g>
</g>
<!-- dir_047746f9f311f49446db9474b7431d0d -->
<g id="node9" class="node">
<title>dir_047746f9f311f49446db9474b7431d0d</title>
<g id="a_node9"><a xlink:href="dir_047746f9f311f49446db9474b7431d0d.html" target="_top" xlink:title="simulation">
<polygon fill="none" stroke="#ff0000" points="178.681,-108 110.681,-108 110.681,-72 178.681,-72 178.681,-108"/>
<text text-anchor="middle" x="144.681" y="-87.5" font-family="Helvetica,sans-Serif" font-size="10.00" fill="#000000">simulation</text>
</a>
</g>
</g>
<!-- dir_6f22cbd49ee75d810f2bfe3ea5accc3c&#45;&gt;dir_047746f9f311f49446db9474b7431d0d -->
<g id="edge14" class="edge">
<title>dir_6f22cbd49ee75d810f2bfe3ea5accc3c&#45;&gt;dir_047746f9f311f49446db9474b7431d0d</title>
<path fill="none" stroke="#000000" d="M217.8848,-287.7777C207.5526,-263.4008 188.9653,-218.7492 174.681,-180 167.026,-159.2342 159.1416,-135.4714 153.3777,-117.5793"/>
<polygon fill="#000000" stroke="#000000" points="156.7084,-116.5035 150.3279,-108.0454 150.0412,-118.6363 156.7084,-116.5035"/>
<g id="a_edge14&#45;headlabel"><a xlink:href="dir_000162_000247.html" target="_top" xlink:title="2">
<text text-anchor="middle" x="160.5078" y="-116.5622" font-family="Helvetica,sans-Serif" font-size="10.00" fill="#000000">2</text>
</a>
</g>
</g>
<!-- dir_7924ba4398ae4560cd37376e44666c6d -->
<g id="node10" class="node">
<title>dir_7924ba4398ae4560cd37376e44666c6d</title>
<g id="a_node10"><a xlink:href="dir_7924ba4398ae4560cd37376e44666c6d.html" target="_top" xlink:title="common">
<polygon fill="none" stroke="#ff0000" points="174.181,-36 115.181,-36 115.181,0 174.181,0 174.181,-36"/>
<text text-anchor="middle" x="144.681" y="-15.5" font-family="Helvetica,sans-Serif" font-size="10.00" fill="#000000">common</text>
</a>
</g>
</g>
<!-- dir_6f22cbd49ee75d810f2bfe3ea5accc3c&#45;&gt;dir_7924ba4398ae4560cd37376e44666c6d -->
<g id="edge15" class="edge">
<title>dir_6f22cbd49ee75d810f2bfe3ea5accc3c&#45;&gt;dir_7924ba4398ae4560cd37376e44666c6d</title>
<path fill="none" stroke="#000000" d="M241.603,-287.9158C276.257,-246.2839 351.5491,-141.8875 301.681,-72 287.7994,-52.5457 226.0252,-35.6367 184.2291,-26.1385"/>
<polygon fill="#000000" stroke="#000000" points="184.8568,-22.6927 174.336,-23.9429 183.3401,-29.5265 184.8568,-22.6927"/>
<g id="a_edge15&#45;headlabel"><a xlink:href="dir_000162_000077.html" target="_top" xlink:title="1">
<text text-anchor="middle" x="188.9812" y="-18.1996" font-family="Helvetica,sans-Serif" font-size="10.00" fill="#000000">1</text>
</a>
</g>
</g>
<!-- dir_f511f1e9c03c071966ae594f00bbc5e0 -->
<g id="node11" class="node">
<title>dir_f511f1e9c03c071966ae594f00bbc5e0</title>
<g id="a_node11"><a xlink:href="dir_f511f1e9c03c071966ae594f00bbc5e0.html" target="_top" xlink:title="GPU">
<polygon fill="none" stroke="#ff0000" points="237.681,-180 183.681,-180 183.681,-144 237.681,-144 237.681,-180"/>
<text text-anchor="middle" x="210.681" y="-159.5" font-family="Helvetica,sans-Serif" font-size="10.00" fill="#000000">GPU</text>
</a>
</g>
</g>
<!-- dir_6f22cbd49ee75d810f2bfe3ea5accc3c&#45;&gt;dir_f511f1e9c03c071966ae594f00bbc5e0 -->
<g id="edge16" class="edge">
<title>dir_6f22cbd49ee75d810f2bfe3ea5accc3c&#45;&gt;dir_f511f1e9c03c071966ae594f00bbc5e0</title>
<path fill="none" stroke="#000000" d="M225.347,-287.6688C224.854,-269.4401 223.6425,-240.7052 220.681,-216 219.6756,-207.6132 218.1685,-198.5639 216.6272,-190.3152"/>
<polygon fill="#000000" stroke="#000000" points="220.0438,-189.5488 214.692,-180.4051 213.1735,-190.8905 220.0438,-189.5488"/>
<g id="a_edge16&#45;headlabel"><a xlink:href="dir_000162_000140.html" target="_top" xlink:title="4">
<text text-anchor="middle" x="223.5193" y="-190.0327" font-family="Helvetica,sans-Serif" font-size="10.00" fill="#000000">4</text>
</a>
</g>
</g>
<!-- dir_99a7a708919c9221801ca7c93b79d194 -->
<g id="node3" class="node">
<title>dir_99a7a708919c9221801ca7c93b79d194</title>
<g id="a_node3"><a xlink:href="dir_99a7a708919c9221801ca7c93b79d194.html" target="_top" xlink:title="src">
<polygon fill="#ffffff" stroke="#000000" points="290.681,-396 236.681,-396 236.681,-360 290.681,-360 290.681,-396"/>
<text text-anchor="middle" x="263.681" y="-375.5" font-family="Helvetica,sans-Serif" font-size="10.00" fill="#000000">src</text>
</a>
</g>
</g>
<!-- dir_99a7a708919c9221801ca7c93b79d194&#45;&gt;dir_6f22cbd49ee75d810f2bfe3ea5accc3c -->
<g id="edge1" class="edge">
<title>dir_99a7a708919c9221801ca7c93b79d194&#45;&gt;dir_6f22cbd49ee75d810f2bfe3ea5accc3c</title>
<path fill="none" stroke="#000000" d="M254.092,-359.8314C249.8492,-351.7925 244.7689,-342.1666 240.085,-333.2918"/>
<polygon fill="#000000" stroke="#000000" points="243.1621,-331.6235 235.3991,-324.4133 236.9714,-334.8908 243.1621,-331.6235"/>
<g id="a_edge1&#45;headlabel"><a xlink:href="dir_000241_000162.html" target="_top" xlink:title="8">
<text text-anchor="middle" x="247.3509" y="-330.9772" font-family="Helvetica,sans-Serif" font-size="10.00" fill="#000000">8</text>
</a>
</g>
</g>
<!-- dir_99a7a708919c9221801ca7c93b79d194&#45;&gt;dir_8ba487e25de5ee77e05e9dce7582cb98 -->
<g id="edge2" class="edge">
<title>dir_99a7a708919c9221801ca7c93b79d194&#45;&gt;dir_8ba487e25de5ee77e05e9dce7582cb98</title>
<path fill="none" stroke="#000000" d="M278.6258,-359.7623C299.2843,-334.5518 336.685,-288.9103 360.2975,-260.0952"/>
<polygon fill="#000000" stroke="#000000" points="363.2265,-262.0428 366.8575,-252.0896 357.8121,-257.606 363.2265,-262.0428"/>
<g id="a_edge2&#45;headlabel"><a xlink:href="dir_000241_000000.html" target="_top" xlink:title="1">
<text text-anchor="middle" x="363.1443" y="-264.1227" font-family="Helvetica,sans-Serif" font-size="10.00" fill="#000000">1</text>
</a>
</g>
</g>
<!-- dir_99a7a708919c9221801ca7c93b79d194&#45;&gt;dir_047746f9f311f49446db9474b7431d0d -->
<g id="edge3" class="edge">
<title>dir_99a7a708919c9221801ca7c93b79d194&#45;&gt;dir_047746f9f311f49446db9474b7431d0d</title>
<path fill="none" stroke="#000000" d="M236.5168,-363.3825C233.5835,-362.1177 230.6027,-360.9576 227.681,-360 137.6959,-330.5078 78.7219,-396.3955 17.681,-324 -39.1419,-256.6072 59.1776,-159.7622 113.0243,-114.7472"/>
<polygon fill="#000000" stroke="#000000" points="115.4401,-117.292 120.9383,-108.2355 110.9925,-111.8866 115.4401,-117.292"/>
<g id="a_edge3&#45;headlabel"><a xlink:href="dir_000241_000247.html" target="_top" xlink:title="2">
<text text-anchor="middle" x="114.4684" y="-119.2684" font-family="Helvetica,sans-Serif" font-size="10.00" fill="#000000">2</text>
</a>
</g>
</g>
<!-- dir_eefe8374d82063b4a715141da5bc342d -->
<g id="node4" class="node">
<title>dir_eefe8374d82063b4a715141da5bc342d</title>
<g id="a_node4"><a xlink:href="dir_eefe8374d82063b4a715141da5bc342d.html" target="_top" xlink:title="test">
<polygon fill="#ffffff" stroke="#000000" points="218.681,-396 164.681,-396 164.681,-360 218.681,-360 218.681,-396"/>
<text text-anchor="middle" x="191.681" y="-375.5" font-family="Helvetica,sans-Serif" font-size="10.00" fill="#000000">test</text>
</a>
</g>
</g>
<!-- dir_eefe8374d82063b4a715141da5bc342d&#45;&gt;dir_6f22cbd49ee75d810f2bfe3ea5accc3c -->
<g id="edge9" class="edge">
<title>dir_eefe8374d82063b4a715141da5bc342d&#45;&gt;dir_6f22cbd49ee75d810f2bfe3ea5accc3c</title>
<path fill="none" stroke="#000000" d="M200.2606,-359.8314C204.0168,-351.8771 208.5067,-342.369 212.6607,-333.5723"/>
<polygon fill="#000000" stroke="#000000" points="215.8806,-334.9503 216.9858,-324.4133 209.5508,-331.9612 215.8806,-334.9503"/>
<g id="a_edge9&#45;headlabel"><a xlink:href="dir_000243_000162.html" target="_top" xlink:title="4">
<text text-anchor="middle" x="216.9131" y="-336.9131" font-family="Helvetica,sans-Serif" font-size="10.00" fill="#000000">4</text>
</a>
</g>
</g>
<!-- dir_d269712cc31e133b892a3b3f6424741a&#45;&gt;dir_4ab6b4cc6a7edbff49100e9123df213f -->
<g id="edge4" class="edge">
<title>dir_d269712cc31e133b892a3b3f6424741a&#45;&gt;dir_4ab6b4cc6a7edbff49100e9123df213f</title>
<path fill="none" stroke="#000000" d="M65.7286,-287.8314C64.9782,-280.131 64.7573,-270.9743 65.0659,-262.4166"/>
<polygon fill="#000000" stroke="#000000" points="68.5602,-262.6161 65.705,-252.4133 61.5744,-262.1697 68.5602,-262.6161"/>
<g id="a_edge4&#45;headlabel"><a xlink:href="dir_000233_000027.html" target="_top" xlink:title="8">
<text text-anchor="middle" x="71.1646" y="-263.8844" font-family="Helvetica,sans-Serif" font-size="10.00" fill="#000000">8</text>
</a>
</g>
</g>
<!-- dir_d269712cc31e133b892a3b3f6424741a&#45;&gt;dir_7924ba4398ae4560cd37376e44666c6d -->
<g id="edge5" class="edge">
<title>dir_d269712cc31e133b892a3b3f6424741a&#45;&gt;dir_7924ba4398ae4560cd37376e44666c6d</title>
<path fill="none" stroke="#000000" d="M53.5234,-287.7286C45.132,-277.9911 36.0687,-265.2949 31.681,-252 26.6665,-236.8061 28.8262,-231.7433 31.681,-216 43.8767,-148.7448 47.4147,-128.6365 85.681,-72 92.9081,-61.3034 102.6673,-51.2541 112.1662,-42.7928"/>
<polygon fill="#000000" stroke="#000000" points="114.694,-45.2366 120.0228,-36.0794 110.1466,-39.9148 114.694,-45.2366"/>
<g id="a_edge5&#45;headlabel"><a xlink:href="dir_000233_000077.html" target="_top" xlink:title="4">
<text text-anchor="middle" x="113.8057" y="-47.2303" font-family="Helvetica,sans-Serif" font-size="10.00" fill="#000000">4</text>
</a>
</g>
</g>
<!-- dir_d269712cc31e133b892a3b3f6424741a&#45;&gt;dir_f511f1e9c03c071966ae594f00bbc5e0 -->
<g id="edge6" class="edge">
<title>dir_d269712cc31e133b892a3b3f6424741a&#45;&gt;dir_f511f1e9c03c071966ae594f00bbc5e0</title>
<path fill="none" stroke="#000000" d="M89.2854,-287.7623C113.8294,-262.3354 158.4351,-216.1253 186.2046,-187.3569"/>
<polygon fill="#000000" stroke="#000000" points="188.7926,-189.7153 193.2195,-180.0896 183.7562,-184.8537 188.7926,-189.7153"/>
<g id="a_edge6&#45;headlabel"><a xlink:href="dir_000233_000140.html" target="_top" xlink:title="1">
<text text-anchor="middle" x="188.339" y="-191.7734" font-family="Helvetica,sans-Serif" font-size="10.00" fill="#000000">1</text>
</a>
</g>
</g>
<!-- dir_4ab6b4cc6a7edbff49100e9123df213f&#45;&gt;dir_d269712cc31e133b892a3b3f6424741a -->
<g id="edge7" class="edge">
<title>dir_4ab6b4cc6a7edbff49100e9123df213f&#45;&gt;dir_d269712cc31e133b892a3b3f6424741a</title>
<path fill="none" stroke="#000000" d="M77.657,-252.4133C78.3881,-260.0593 78.6013,-269.1084 78.2965,-277.5726"/>
<polygon fill="#000000" stroke="#000000" points="74.7858,-277.6264 77.6334,-287.8314 81.7712,-278.078 74.7858,-277.6264"/>
<g id="a_edge7&#45;headlabel"><a xlink:href="dir_000027_000233.html" target="_top" xlink:title="1">
<text text-anchor="middle" x="72.1842" y="-271.3562" font-family="Helvetica,sans-Serif" font-size="10.00" fill="#000000">1</text>
</a>
</g>
</g>
<!-- dir_4ab6b4cc6a7edbff49100e9123df213f&#45;&gt;dir_f511f1e9c03c071966ae594f00bbc5e0 -->
<g id="edge8" class="edge">
<title>dir_4ab6b4cc6a7edbff49100e9123df213f&#45;&gt;dir_f511f1e9c03c071966ae594f00bbc5e0</title>
<path fill="none" stroke="#000000" d="M100.8042,-215.8314C122.2819,-204.1148 151.494,-189.0269 174.4647,-177.807"/>
<polygon fill="#000000" stroke="#000000" points="176.0861,-180.9108 183.5673,-173.4086 173.0405,-174.608 176.0861,-180.9108"/>
<g id="a_edge8&#45;headlabel"><a xlink:href="dir_000027_000140.html" target="_top" xlink:title="3">
<text text-anchor="middle" x="174.0847" y="-182.5311" font-family="Helvetica,sans-Serif" font-size="10.00" fill="#000000">3</text>
</a>
</g>
</g>
<!-- dir_8ba487e25de5ee77e05e9dce7582cb98&#45;&gt;dir_183e7c4434404fe9096e1bd8673e1fcf -->
<g id="edge17" class="edge">
<title>dir_8ba487e25de5ee77e05e9dce7582cb98&#45;&gt;dir_183e7c4434404fe9096e1bd8673e1fcf</title>
<path fill="none" stroke="#000000" d="M366.7362,-215.7623C346.0776,-190.5518 308.6769,-144.9103 285.0645,-116.0952"/>
<polygon fill="#000000" stroke="#000000" points="287.5499,-113.606 278.5044,-108.0896 282.1355,-118.0428 287.5499,-113.606"/>
<g id="a_edge17&#45;headlabel"><a xlink:href="dir_000000_000080.html" target="_top" xlink:title="8">
<text text-anchor="middle" x="292.0243" y="-112.0868" font-family="Helvetica,sans-Serif" font-size="10.00" fill="#000000">8</text>
</a>
</g>
</g>
<!-- dir_047746f9f311f49446db9474b7431d0d&#45;&gt;dir_4ab6b4cc6a7edbff49100e9123df213f -->
<g id="edge18" class="edge">
<title>dir_047746f9f311f49446db9474b7431d0d&#45;&gt;dir_4ab6b4cc6a7edbff49100e9123df213f</title>
<path fill="none" stroke="#000000" d="M135.5106,-108.0896C122.935,-132.8962 100.2309,-177.6824 85.5655,-206.6113"/>
<polygon fill="#000000" stroke="#000000" points="82.3264,-205.2603 80.9265,-215.7623 88.5699,-208.4255 82.3264,-205.2603"/>
<g id="a_edge18&#45;headlabel"><a xlink:href="dir_000247_000027.html" target="_top" xlink:title="5">
<text text-anchor="middle" x="81.4192" y="-198.2704" font-family="Helvetica,sans-Serif" font-size="10.00" fill="#000000">5</text>
</a>
</g>
</g>
<!-- dir_047746f9f311f49446db9474b7431d0d&#45;&gt;dir_7924ba4398ae4560cd37376e44666c6d -->
<g id="edge19" class="edge">
<title>dir_047746f9f311f49446db9474b7431d0d&#45;&gt;dir_7924ba4398ae4560cd37376e44666c6d</title>
<path fill="none" stroke="#000000" d="M144.681,-71.8314C144.681,-64.131 144.681,-54.9743 144.681,-46.4166"/>
<polygon fill="#000000" stroke="#000000" points="148.1811,-46.4132 144.681,-36.4133 141.1811,-46.4133 148.1811,-46.4132"/>
<g id="a_edge19&#45;headlabel"><a xlink:href="dir_000247_000077.html" target="_top" xlink:title="2">
<text text-anchor="middle" x="151.0203" y="-47.5079" font-family="Helvetica,sans-Serif" font-size="10.00" fill="#000000">2</text>
</a>
</g>
</g>
<!-- dir_047746f9f311f49446db9474b7431d0d&#45;&gt;dir_f511f1e9c03c071966ae594f00bbc5e0 -->
<g id="edge20" class="edge">
<title>dir_047746f9f311f49446db9474b7431d0d&#45;&gt;dir_f511f1e9c03c071966ae594f00bbc5e0</title>
<path fill="none" stroke="#000000" d="M167.2821,-108.1628C175.8426,-116.6038 185.3716,-126.7956 193.387,-136.0303"/>
<polygon fill="#000000" stroke="#000000" points="190.8511,-138.4521 199.9788,-143.8314 196.1979,-133.9341 190.8511,-138.4521"/>
<g id="a_edge20&#45;headlabel"><a xlink:href="dir_000247_000140.html" target="_top" xlink:title="2">
<text text-anchor="middle" x="186.3624" y="-135.039" font-family="Helvetica,sans-Serif" font-size="10.00" fill="#000000">2</text>
</a>
</g>
</g>
<!-- dir_7924ba4398ae4560cd37376e44666c6d&#45;&gt;dir_4ab6b4cc6a7edbff49100e9123df213f -->
<g id="edge21" class="edge">
<title>dir_7924ba4398ae4560cd37376e44666c6d&#45;&gt;dir_4ab6b4cc6a7edbff49100e9123df213f</title>
<path fill="none" stroke="#000000" d="M126.2194,-36.4491C117.4683,-46.2319 107.6472,-58.9149 101.681,-72 81.7444,-115.725 75.0547,-171.8323 72.8113,-205.2369"/>
<polygon fill="#000000" stroke="#000000" points="69.2926,-205.4586 72.2082,-215.6444 76.2809,-205.8636 69.2926,-205.4586"/>
<g id="a_edge21&#45;headlabel"><a xlink:href="dir_000077_000027.html" target="_top" xlink:title="2">
<text text-anchor="middle" x="66.666" y="-199.2058" font-family="Helvetica,sans-Serif" font-size="10.00" fill="#000000">2</text>
</a>
</g>
</g>
<!-- dir_7924ba4398ae4560cd37376e44666c6d&#45;&gt;dir_f511f1e9c03c071966ae594f00bbc5e0 -->
<g id="edge22" class="edge">
<title>dir_7924ba4398ae4560cd37376e44666c6d&#45;&gt;dir_f511f1e9c03c071966ae594f00bbc5e0</title>
<path fill="none" stroke="#000000" d="M162.342,-36.1358C171.1017,-46.03 181.1726,-58.9078 187.681,-72 197.4029,-91.5565 203.2753,-115.6075 206.6504,-133.9253"/>
<polygon fill="#000000" stroke="#000000" points="203.2318,-134.6993 208.3593,-143.9707 210.1326,-133.5253 203.2318,-134.6993"/>
<g id="a_edge22&#45;headlabel"><a xlink:href="dir_000077_000140.html" target="_top" xlink:title="2">
<text text-anchor="middle" x="199.8299" y="-129.1317" font-family="Helvetica,sans-Serif" font-size="10.00" fill="#000000">2</text>
</a>
</g>
</g>
<!-- dir_f511f1e9c03c071966ae594f00bbc5e0&#45;&gt;dir_6f22cbd49ee75d810f2bfe3ea5accc3c -->
<g id="edge25" class="edge">
<title>dir_f511f1e9c03c071966ae594f00bbc5e0&#45;&gt;dir_6f22cbd49ee75d810f2bfe3ea5accc3c</title>
<path fill="none" stroke="#000000" d="M212.5653,-180.0896C215.1156,-204.5727 219.6932,-248.5174 222.7092,-277.4713"/>
<polygon fill="#000000" stroke="#000000" points="219.2639,-278.1788 223.7812,-287.7623 226.2262,-277.4535 219.2639,-278.1788"/>
<g id="a_edge25&#45;headlabel"><a xlink:href="dir_000140_000162.html" target="_top" xlink:title="6">
<text text-anchor="middle" x="216.0676" y="-272.3976" font-family="Helvetica,sans-Serif" font-size="10.00" fill="#000000">6</text>
</a>
</g>
</g>
<!-- dir_f511f1e9c03c071966ae594f00bbc5e0&#45;&gt;dir_4ab6b4cc6a7edbff49100e9123df213f -->
<g id="edge23" class="edge">
<title>dir_f511f1e9c03c071966ae594f00bbc5e0&#45;&gt;dir_4ab6b4cc6a7edbff49100e9123df213f</title>
<path fill="none" stroke="#000000" d="M183.6695,-179.0138C163.0839,-190.2995 134.5822,-205.0724 111.4254,-216.4635"/>
<polygon fill="#000000" stroke="#000000" points="109.6499,-213.4352 102.1929,-220.9613 112.7157,-219.7281 109.6499,-213.4352"/>
<g id="a_edge23&#45;headlabel"><a xlink:href="dir_000140_000027.html" target="_top" xlink:title="2">
<text text-anchor="middle" x="111.638" y="-206.8084" font-family="Helvetica,sans-Serif" font-size="10.00" fill="#000000">2</text>
</a>
</g>
</g>
<!-- dir_f511f1e9c03c071966ae594f00bbc5e0&#45;&gt;dir_183e7c4434404fe9096e1bd8673e1fcf -->
<g id="edge24" class="edge">
<title>dir_f511f1e9c03c071966ae594f00bbc5e0&#45;&gt;dir_183e7c4434404fe9096e1bd8673e1fcf</title>
<path fill="none" stroke="#000000" d="M224.0551,-143.8314C230.0972,-135.6232 237.3572,-125.7606 244.003,-116.7323"/>
<polygon fill="#000000" stroke="#000000" points="247.0172,-118.5415 250.1268,-108.4133 241.3799,-114.3918 247.0172,-118.5415"/>
<g id="a_edge24&#45;headlabel"><a xlink:href="dir_000140_000080.html" target="_top" xlink:title="1">
<text text-anchor="middle" x="247.1729" y="-120.6195" font-family="Helvetica,sans-Serif" font-size="10.00" fill="#000000">1</text>
</a>
</g>
</g>
<!-- dir_f511f1e9c03c071966ae594f00bbc5e0&#45;&gt;dir_047746f9f311f49446db9474b7431d0d -->
<g id="edge26" class="edge">
<title>dir_f511f1e9c03c071966ae594f00bbc5e0&#45;&gt;dir_047746f9f311f49446db9474b7431d0d</title>
<path fill="none" stroke="#000000" d="M188.074,-143.8314C179.5784,-135.454 170.1296,-125.3531 162.1533,-116.1749"/>
<polygon fill="#000000" stroke="#000000" points="164.7159,-113.785 155.5838,-108.4133 159.3728,-118.3074 164.7159,-113.785"/>
<g id="a_edge26&#45;headlabel"><a xlink:href="dir_000140_000247.html" target="_top" xlink:title="4">
<text text-anchor="middle" x="169.2053" y="-112.1945" font-family="Helvetica,sans-Serif" font-size="10.00" fill="#000000">4</text>
</a>
</g>
</g>
</g>
</svg>
