<?xml version="1.0" encoding="UTF-8" standalone="no"?>
<!DOCTYPE svg PUBLIC "-//W3C//DTD SVG 1.1//EN"
 "http://www.w3.org/Graphics/SVG/1.1/DTD/svg11.dtd">
<!-- Generated by graphviz version 2.40.1 (20161225.0304)
 -->
<!-- Title: /home/travis/build/AliceO2Group/AliceO2/Detectors/TPC/reconstruction/include Pages: 1 -->
<svg width="235pt" height="375pt"
 viewBox="0.00 0.00 235.00 375.00" xmlns="http://www.w3.org/2000/svg" xmlns:xlink="http://www.w3.org/1999/xlink">
<g id="graph0" class="graph" transform="scale(1 1) rotate(0) translate(4 371)">
<title>/home/travis/build/AliceO2Group/AliceO2/Detectors/TPC/reconstruction/include</title>
<g id="clust1" class="cluster">
<title>clusterdir_a5de047958dd458e809773c6ffaa8478</title>
<g id="a_clust1"><a xlink:href="dir_a5de047958dd458e809773c6ffaa8478.html" target="_top" xlink:title="reconstruction">
<polygon fill="#ddddee" stroke="#000000" points="8,-272 8,-359 219,-359 219,-272 8,-272"/>
<text text-anchor="middle" x="113.5" y="-347" font-family="Helvetica,sans-Serif" font-size="10.00" fill="#000000">reconstruction</text>
</a>
</g>
</g>
<g id="clust2" class="cluster">
<title>clusterdir_396d171119822f66a36fe1ebf998d1a3</title>
<g id="a_clust2"><a xlink:href="dir_396d171119822f66a36fe1ebf998d1a3.html" target="_top">
<polygon fill="#eeeeff" stroke="#000000" points="16,-280 16,-332 211,-332 211,-280 16,-280"/>
</a>
</g>
</g>
<!-- dir_396d171119822f66a36fe1ebf998d1a3 -->
<g id="node1" class="node">
<title>dir_396d171119822f66a36fe1ebf998d1a3</title>
<text text-anchor="middle" x="176" y="-303.5" font-family="Helvetica,sans-Serif" font-size="10.00" fill="#000000">include</text>
</g>
<!-- dir_1dfaa3fb6e801ddc70b8194facd2138d -->
<g id="node2" class="node">
<title>dir_1dfaa3fb6e801ddc70b8194facd2138d</title>
<g id="a_node2"><a xlink:href="dir_1dfaa3fb6e801ddc70b8194facd2138d.html" target="_top" xlink:title="TPCReconstruction">
<polygon fill="#ffffff" stroke="#000000" points="130.5,-324 23.5,-324 23.5,-288 130.5,-288 130.5,-324"/>
<text text-anchor="middle" x="77" y="-303.5" font-family="Helvetica,sans-Serif" font-size="10.00" fill="#000000">TPCReconstruction</text>
</a>
</g>
</g>
<!-- dir_677b030cc750909e4cd27413873678d8 -->
<g id="node3" class="node">
<title>dir_677b030cc750909e4cd27413873678d8</title>
<g id="a_node3"><a xlink:href="dir_677b030cc750909e4cd27413873678d8.html" target="_top" xlink:title="base">
<polygon fill="none" stroke="#ff0000" points="77,-252 23,-252 23,-216 77,-216 77,-252"/>
<text text-anchor="middle" x="50" y="-231.5" font-family="Helvetica,sans-Serif" font-size="10.00" fill="#000000">base</text>
</a>
</g>
</g>
<!-- dir_1dfaa3fb6e801ddc70b8194facd2138d&#45;&gt;dir_677b030cc750909e4cd27413873678d8 -->
<g id="edge8" class="edge">
<title>dir_1dfaa3fb6e801ddc70b8194facd2138d&#45;&gt;dir_677b030cc750909e4cd27413873678d8</title>
<path fill="none" stroke="#000000" d="M70.1868,-287.8314C67.2356,-279.9617 63.7142,-270.5712 60.445,-261.8533"/>
<polygon fill="#000000" stroke="#000000" points="63.6934,-260.5476 56.905,-252.4133 57.1391,-263.0055 63.6934,-260.5476"/>
<g id="a_edge8&#45;headlabel"><a xlink:href="dir_000368_000050.html" target="_top" xlink:title="10">
<text text-anchor="middle" x="67.614" y="-260.4164" font-family="Helvetica,sans-Serif" font-size="10.00" fill="#000000">10</text>
</a>
</g>
</g>
<!-- dir_4ab6b4cc6a7edbff49100e9123df213f -->
<g id="node4" class="node">
<title>dir_4ab6b4cc6a7edbff49100e9123df213f</title>
<g id="a_node4"><a xlink:href="dir_4ab6b4cc6a7edbff49100e9123df213f.html" target="_top" xlink:title="Common">
<polygon fill="none" stroke="#ff0000" points="101.5,-180 40.5,-180 40.5,-144 101.5,-144 101.5,-180"/>
<text text-anchor="middle" x="71" y="-159.5" font-family="Helvetica,sans-Serif" font-size="10.00" fill="#000000">Common</text>
</a>
</g>
</g>
<!-- dir_1dfaa3fb6e801ddc70b8194facd2138d&#45;&gt;dir_4ab6b4cc6a7edbff49100e9123df213f -->
<g id="edge9" class="edge">
<title>dir_1dfaa3fb6e801ddc70b8194facd2138d&#45;&gt;dir_4ab6b4cc6a7edbff49100e9123df213f</title>
<path fill="none" stroke="#000000" d="M81.3496,-287.6833C85.0836,-269.4656 89.3721,-240.7389 86,-216 84.8228,-207.3639 82.6329,-198.1599 80.283,-189.8427"/>
<polygon fill="#000000" stroke="#000000" points="83.6257,-188.8042 77.3948,-180.2353 76.922,-190.8195 83.6257,-188.8042"/>
<g id="a_edge9&#45;headlabel"><a xlink:href="dir_000368_000027.html" target="_top" xlink:title="2">
<text text-anchor="middle" x="87.3795" y="-188.9292" font-family="Helvetica,sans-Serif" font-size="10.00" fill="#000000">2</text>
</a>
</g>
</g>
<!-- dir_f511f1e9c03c071966ae594f00bbc5e0 -->
<g id="node5" class="node">
<title>dir_f511f1e9c03c071966ae594f00bbc5e0</title>
<g id="a_node5"><a xlink:href="dir_f511f1e9c03c071966ae594f00bbc5e0.html" target="_top" xlink:title="GPU">
<polygon fill="none" stroke="#ff0000" points="153,-108 99,-108 99,-72 153,-72 153,-108"/>
<text text-anchor="middle" x="126" y="-87.5" font-family="Helvetica,sans-Serif" font-size="10.00" fill="#000000">GPU</text>
</a>
</g>
</g>
<!-- dir_1dfaa3fb6e801ddc70b8194facd2138d&#45;&gt;dir_f511f1e9c03c071966ae594f00bbc5e0 -->
<g id="edge10" class="edge">
<title>dir_1dfaa3fb6e801ddc70b8194facd2138d&#45;&gt;dir_f511f1e9c03c071966ae594f00bbc5e0</title>
<path fill="none" stroke="#000000" d="M87.5721,-287.9976C100.8506,-264.2225 122.8787,-220.6066 131,-180 135.0857,-159.5717 133.57,-136.0518 131.1737,-118.1799"/>
<polygon fill="#000000" stroke="#000000" points="134.6083,-117.4835 129.6536,-108.1186 127.6868,-118.5292 134.6083,-117.4835"/>
<g id="a_edge10&#45;headlabel"><a xlink:href="dir_000368_000140.html" target="_top" xlink:title="1">
<text text-anchor="middle" x="137.9526" y="-118.1136" font-family="Helvetica,sans-Serif" font-size="10.00" fill="#000000">1</text>
</a>
</g>
</g>
<!-- dir_2171f7ec022c5423887b07c69b2f5b48 -->
<g id="node6" class="node">
<title>dir_2171f7ec022c5423887b07c69b2f5b48</title>
<g id="a_node6"><a xlink:href="dir_2171f7ec022c5423887b07c69b2f5b48.html" target="_top" xlink:title="DataFormats">
<polygon fill="none" stroke="#ff0000" points="102,-36 22,-36 22,0 102,0 102,-36"/>
<text text-anchor="middle" x="62" y="-15.5" font-family="Helvetica,sans-Serif" font-size="10.00" fill="#000000">DataFormats</text>
</a>
</g>
</g>
<!-- dir_1dfaa3fb6e801ddc70b8194facd2138d&#45;&gt;dir_2171f7ec022c5423887b07c69b2f5b48 -->
<g id="edge11" class="edge">
<title>dir_1dfaa3fb6e801ddc70b8194facd2138d&#45;&gt;dir_2171f7ec022c5423887b07c69b2f5b48</title>
<path fill="none" stroke="#000000" d="M46.0239,-287.8776C33.6431,-278.8263 20.7418,-266.6581 14,-252 -1.0851,-219.2016 -7.6116,-184.439 30,-72 33.148,-62.5891 38.1055,-53.0406 43.1868,-44.6432"/>
<polygon fill="#000000" stroke="#000000" points="46.2446,-46.3576 48.6693,-36.0439 40.3421,-42.5944 46.2446,-46.3576"/>
<g id="a_edge11&#45;headlabel"><a xlink:href="dir_000368_000076.html" target="_top" xlink:title="17">
<text text-anchor="middle" x="46.7062" y="-48.4149" font-family="Helvetica,sans-Serif" font-size="10.00" fill="#000000">17</text>
</a>
</g>
</g>
<!-- dir_677b030cc750909e4cd27413873678d8&#45;&gt;dir_4ab6b4cc6a7edbff49100e9123df213f -->
<g id="edge1" class="edge">
<title>dir_677b030cc750909e4cd27413873678d8&#45;&gt;dir_4ab6b4cc6a7edbff49100e9123df213f</title>
<path fill="none" stroke="#000000" d="M55.2992,-215.8314C57.5698,-208.0463 60.2746,-198.7729 62.794,-190.1347"/>
<polygon fill="#000000" stroke="#000000" points="66.1894,-190.9933 65.6295,-180.4133 59.4694,-189.0332 66.1894,-190.9933"/>
<g id="a_edge1&#45;headlabel"><a xlink:href="dir_000050_000027.html" target="_top" xlink:title="12">
<text text-anchor="middle" x="67.9087" y="-192.7391" font-family="Helvetica,sans-Serif" font-size="10.00" fill="#000000">12</text>
</a>
</g>
</g>
<!-- dir_677b030cc750909e4cd27413873678d8&#45;&gt;dir_f511f1e9c03c071966ae594f00bbc5e0 -->
<g id="edge2" class="edge">
<title>dir_677b030cc750909e4cd27413873678d8&#45;&gt;dir_f511f1e9c03c071966ae594f00bbc5e0</title>
<path fill="none" stroke="#000000" d="M77.1248,-215.9653C89.0478,-206.6316 102.1071,-194.2118 110,-180 120.499,-161.0957 124.3544,-136.8185 125.6641,-118.2435"/>
<polygon fill="#000000" stroke="#000000" points="129.17,-118.2113 126.172,-108.0494 122.1786,-117.8628 129.17,-118.2113"/>
<g id="a_edge2&#45;headlabel"><a xlink:href="dir_000050_000140.html" target="_top" xlink:title="1">
<text text-anchor="middle" x="131.8269" y="-119.4427" font-family="Helvetica,sans-Serif" font-size="10.00" fill="#000000">1</text>
</a>
</g>
</g>
<!-- dir_677b030cc750909e4cd27413873678d8&#45;&gt;dir_2171f7ec022c5423887b07c69b2f5b48 -->
<g id="edge3" class="edge">
<title>dir_677b030cc750909e4cd27413873678d8&#45;&gt;dir_2171f7ec022c5423887b07c69b2f5b48</title>
<path fill="none" stroke="#000000" d="M41.9083,-215.9165C37.7439,-205.6179 33.1082,-192.3436 31,-180 22.9522,-132.8804 38.5818,-78.328 50.4314,-46.0724"/>
<polygon fill="#000000" stroke="#000000" points="53.819,-47.0117 54.1111,-36.4209 47.2782,-44.518 53.819,-47.0117"/>
<g id="a_edge3&#45;headlabel"><a xlink:href="dir_000050_000076.html" target="_top" xlink:title="15">
<text text-anchor="middle" x="55.1915" y="-48.882" font-family="Helvetica,sans-Serif" font-size="10.00" fill="#000000">15</text>
</a>
</g>
</g>
<!-- dir_4ab6b4cc6a7edbff49100e9123df213f&#45;&gt;dir_f511f1e9c03c071966ae594f00bbc5e0 -->
<g id="edge4" class="edge">
<title>dir_4ab6b4cc6a7edbff49100e9123df213f&#45;&gt;dir_f511f1e9c03c071966ae594f00bbc5e0</title>
<path fill="none" stroke="#000000" d="M78.9264,-143.8314C84.5094,-135.454 92.0357,-125.3531 99.4838,-116.1749"/>
<polygon fill="#000000" stroke="#000000" points="102.2404,-118.3344 105.9583,-108.4133 96.865,-113.8504 102.2404,-118.3344"/>
<g id="a_edge4&#45;headlabel"><a xlink:href="dir_000027_000140.html" target="_top" xlink:title="3">
<text text-anchor="middle" x="102.1181" y="-120.4134" font-family="Helvetica,sans-Serif" font-size="10.00" fill="#000000">3</text>
</a>
</g>
</g>
<!-- dir_4ab6b4cc6a7edbff49100e9123df213f&#45;&gt;dir_2171f7ec022c5423887b07c69b2f5b48 -->
<g id="edge5" class="edge">
<title>dir_4ab6b4cc6a7edbff49100e9123df213f&#45;&gt;dir_2171f7ec022c5423887b07c69b2f5b48</title>
<path fill="none" stroke="#000000" d="M65.187,-143.7623C61.1921,-119.201 58.1702,-75.2474 58.2747,-46.3541"/>
<polygon fill="#000000" stroke="#000000" points="61.7791,-46.1552 58.4723,-36.0896 54.7804,-46.0204 61.7791,-46.1552"/>
<g id="a_edge5&#45;headlabel"><a xlink:href="dir_000027_000076.html" target="_top" xlink:title="2">
<text text-anchor="middle" x="64.5487" y="-47.3037" font-family="Helvetica,sans-Serif" font-size="10.00" fill="#000000">2</text>
</a>
</g>
</g>
<!-- dir_f511f1e9c03c071966ae594f00bbc5e0&#45;&gt;dir_4ab6b4cc6a7edbff49100e9123df213f -->
<g id="edge6" class="edge">
<title>dir_f511f1e9c03c071966ae594f00bbc5e0&#45;&gt;dir_4ab6b4cc6a7edbff49100e9123df213f</title>
<path fill="none" stroke="#000000" d="M117.9103,-108.4133C112.2898,-116.8239 104.7456,-126.9323 97.2991,-136.0923"/>
<polygon fill="#000000" stroke="#000000" points="94.5584,-133.9138 90.8312,-143.8314 99.9296,-138.4027 94.5584,-133.9138"/>
<g id="a_edge6&#45;headlabel"><a xlink:href="dir_000140_000027.html" target="_top" xlink:title="2">
<text text-anchor="middle" x="94.6849" y="-126.8348" font-family="Helvetica,sans-Serif" font-size="10.00" fill="#000000">2</text>
</a>
</g>
</g>
<!-- dir_f511f1e9c03c071966ae594f00bbc5e0&#45;&gt;dir_2171f7ec022c5423887b07c69b2f5b48 -->
<g id="edge7" class="edge">
<title>dir_f511f1e9c03c071966ae594f00bbc5e0&#45;&gt;dir_2171f7ec022c5423887b07c69b2f5b48</title>
<path fill="none" stroke="#000000" d="M103.8977,-71.8314C95.6348,-63.454 86.4665,-53.3531 78.7452,-44.1749"/>
<polygon fill="#000000" stroke="#000000" points="81.4341,-41.9341 72.3913,-36.4133 76.0175,-46.3683 81.4341,-41.9341"/>
<g id="a_edge7&#45;headlabel"><a xlink:href="dir_000140_000076.html" target="_top" xlink:title="12">
<text text-anchor="middle" x="85.908" y="-40.4171" font-family="Helvetica,sans-Serif" font-size="10.00" fill="#000000">12</text>
</a>
</g>
</g>
<!-- dir_2171f7ec022c5423887b07c69b2f5b48&#45;&gt;dir_4ab6b4cc6a7edbff49100e9123df213f -->
<g id="edge12" class="edge">
<title>dir_2171f7ec022c5423887b07c69b2f5b48&#45;&gt;dir_4ab6b4cc6a7edbff49100e9123df213f</title>
<path fill="none" stroke="#000000" d="M67.7889,-36.0896C71.7877,-60.5727 74.8178,-104.5174 74.7259,-133.4713"/>
<polygon fill="#000000" stroke="#000000" points="71.2211,-133.6985 74.5333,-143.7623 78.2199,-133.8296 71.2211,-133.6985"/>
<g id="a_edge12&#45;headlabel"><a xlink:href="dir_000076_000027.html" target="_top" xlink:title="33">
<text text-anchor="middle" x="68.4495" y="-127.5515" font-family="Helvetica,sans-Serif" font-size="10.00" fill="#000000">33</text>
</a>
</g>
</g>
<!-- dir_2171f7ec022c5423887b07c69b2f5b48&#45;&gt;dir_f511f1e9c03c071966ae594f00bbc5e0 -->
<g id="edge13" class="edge">
<title>dir_2171f7ec022c5423887b07c69b2f5b48&#45;&gt;dir_f511f1e9c03c071966ae594f00bbc5e0</title>
<path fill="none" stroke="#000000" d="M84.3434,-36.4133C92.54,-44.7389 101.6014,-54.7282 109.2458,-63.8144"/>
<polygon fill="#000000" stroke="#000000" points="106.7623,-66.3063 115.8025,-71.8314 112.1809,-61.8747 106.7623,-66.3063"/>
<g id="a_edge13&#45;headlabel"><a xlink:href="dir_000076_000140.html" target="_top" xlink:title="11">
<text text-anchor="middle" x="102.2888" y="-62.8213" font-family="Helvetica,sans-Serif" font-size="10.00" fill="#000000">11</text>
</a>
</g>
</g>
</g>
</svg>
