<?xml version="1.0" encoding="UTF-8" standalone="no"?>
<!DOCTYPE svg PUBLIC "-//W3C//DTD SVG 1.1//EN"
 "http://www.w3.org/Graphics/SVG/1.1/DTD/svg11.dtd">
<!-- Generated by graphviz version 2.40.1 (20161225.0304)
 -->
<!-- Title: /home/travis/build/AliceO2Group/AliceO2/Detectors/ITSMFT/common/simulation Pages: 1 -->
<svg width="506pt" height="519pt"
 viewBox="0.00 0.00 506.00 519.00" xmlns="http://www.w3.org/2000/svg" xmlns:xlink="http://www.w3.org/1999/xlink">
<g id="graph0" class="graph" transform="scale(1 1) rotate(0) translate(4 515)">
<title>/home/travis/build/AliceO2Group/AliceO2/Detectors/ITSMFT/common/simulation</title>
<g id="clust1" class="cluster">
<title>clusterdir_85bf31a2e8d306e7598ffcb73f8df6bf</title>
<g id="a_clust1"><a xlink:href="dir_85bf31a2e8d306e7598ffcb73f8df6bf.html" target="_top" xlink:title="common">
<polygon fill="#ddddee" stroke="#000000" points="10,-344 10,-503 254,-503 254,-344 10,-344"/>
<text text-anchor="middle" x="132" y="-491" font-family="Helvetica,sans-Serif" font-size="10.00" fill="#000000">common</text>
</a>
</g>
</g>
<g id="clust2" class="cluster">
<title>clusterdir_948e043a2a9c0d8c3d26178da976c005</title>
<g id="a_clust2"><a xlink:href="dir_948e043a2a9c0d8c3d26178da976c005.html" target="_top">
<polygon fill="#eeeeff" stroke="#000000" points="18,-352 18,-476 246,-476 246,-352 18,-352"/>
</a>
</g>
</g>
<!-- dir_948e043a2a9c0d8c3d26178da976c005 -->
<g id="node1" class="node">
<title>dir_948e043a2a9c0d8c3d26178da976c005</title>
<text text-anchor="middle" x="204" y="-447.5" font-family="Helvetica,sans-Serif" font-size="10.00" fill="#000000">simulation</text>
</g>
<!-- dir_aece0de4a924a7db153b75165d0988be -->
<g id="node2" class="node">
<title>dir_aece0de4a924a7db153b75165d0988be</title>
<g id="a_node2"><a xlink:href="dir_aece0de4a924a7db153b75165d0988be.html" target="_top" xlink:title="include">
<polygon fill="#ffffff" stroke="#ff0000" points="152,-396 98,-396 98,-360 152,-360 152,-396"/>
<text text-anchor="middle" x="125" y="-375.5" font-family="Helvetica,sans-Serif" font-size="10.00" fill="#000000">include</text>
</a>
</g>
</g>
<!-- dir_2174d8cbbd82d5c404dd04814f845a3a -->
<g id="node5" class="node">
<title>dir_2174d8cbbd82d5c404dd04814f845a3a</title>
<g id="a_node5"><a xlink:href="dir_2174d8cbbd82d5c404dd04814f845a3a.html" target="_top" xlink:title="reconstruction">
<polygon fill="none" stroke="#ff0000" points="348,-396 262,-396 262,-360 348,-360 348,-396"/>
<text text-anchor="middle" x="305" y="-375.5" font-family="Helvetica,sans-Serif" font-size="10.00" fill="#000000">reconstruction</text>
</a>
</g>
</g>
<!-- dir_aece0de4a924a7db153b75165d0988be&#45;&gt;dir_2174d8cbbd82d5c404dd04814f845a3a -->
<g id="edge17" class="edge">
<title>dir_aece0de4a924a7db153b75165d0988be&#45;&gt;dir_2174d8cbbd82d5c404dd04814f845a3a</title>
<path fill="none" stroke="#000000" d="M152.0703,-378C185.2748,-378 218.4792,-378 251.6837,-378"/>
<polygon fill="#000000" stroke="#000000" points="251.9886,-381.5001 261.9885,-378 251.9885,-374.5001 251.9886,-381.5001"/>
<g id="a_edge17&#45;headlabel"><a xlink:href="dir_000063_000357.html" target="_top" xlink:title="5">
<text text-anchor="middle" x="248.3939" y="-381.8393" font-family="Helvetica,sans-Serif" font-size="10.00" fill="#000000">5</text>
</a>
</g>
</g>
<!-- dir_4ab6b4cc6a7edbff49100e9123df213f -->
<g id="node6" class="node">
<title>dir_4ab6b4cc6a7edbff49100e9123df213f</title>
<g id="a_node6"><a xlink:href="dir_4ab6b4cc6a7edbff49100e9123df213f.html" target="_top" xlink:title="Common">
<polygon fill="none" stroke="#ff0000" points="355.5,-252 294.5,-252 294.5,-216 355.5,-216 355.5,-252"/>
<text text-anchor="middle" x="325" y="-231.5" font-family="Helvetica,sans-Serif" font-size="10.00" fill="#000000">Common</text>
</a>
</g>
</g>
<!-- dir_aece0de4a924a7db153b75165d0988be&#45;&gt;dir_4ab6b4cc6a7edbff49100e9123df213f -->
<g id="edge18" class="edge">
<title>dir_aece0de4a924a7db153b75165d0988be&#45;&gt;dir_4ab6b4cc6a7edbff49100e9123df213f</title>
<path fill="none" stroke="#000000" d="M149.1479,-359.8544C173.6483,-341.5224 212.7394,-312.4882 247,-288 260.9594,-278.0224 276.4747,-267.2226 289.9678,-257.9223"/>
<polygon fill="#000000" stroke="#000000" points="292.2494,-260.6011 298.506,-252.0509 288.283,-254.8332 292.2494,-260.6011"/>
<g id="a_edge18&#45;headlabel"><a xlink:href="dir_000063_000027.html" target="_top" xlink:title="3">
<text text-anchor="middle" x="290.8963" y="-262.4773" font-family="Helvetica,sans-Serif" font-size="10.00" fill="#000000">3</text>
</a>
</g>
</g>
<!-- dir_7c9998090bca7c4aa89c05dd66fe73f5 -->
<g id="node8" class="node">
<title>dir_7c9998090bca7c4aa89c05dd66fe73f5</title>
<g id="a_node8"><a xlink:href="dir_7c9998090bca7c4aa89c05dd66fe73f5.html" target="_top" xlink:title="base">
<polygon fill="none" stroke="#ff0000" points="179,-36 125,-36 125,0 179,0 179,-36"/>
<text text-anchor="middle" x="152" y="-15.5" font-family="Helvetica,sans-Serif" font-size="10.00" fill="#000000">base</text>
</a>
</g>
</g>
<!-- dir_aece0de4a924a7db153b75165d0988be&#45;&gt;dir_7c9998090bca7c4aa89c05dd66fe73f5 -->
<g id="edge19" class="edge">
<title>dir_aece0de4a924a7db153b75165d0988be&#45;&gt;dir_7c9998090bca7c4aa89c05dd66fe73f5</title>
<path fill="none" stroke="#000000" d="M118.068,-359.9064C100.5507,-311.2434 58.74,-174.3301 100,-72 104.3225,-61.2796 111.9044,-51.4983 119.9639,-43.2948"/>
<polygon fill="#000000" stroke="#000000" points="122.573,-45.644 127.4199,-36.2228 117.7558,-40.5652 122.573,-45.644"/>
<g id="a_edge19&#45;headlabel"><a xlink:href="dir_000063_000463.html" target="_top" xlink:title="2">
<text text-anchor="middle" x="121.9189" y="-47.6777" font-family="Helvetica,sans-Serif" font-size="10.00" fill="#000000">2</text>
</a>
</g>
</g>
<!-- dir_26637d1bd82229bc9ed97f7e706be743 -->
<g id="node10" class="node">
<title>dir_26637d1bd82229bc9ed97f7e706be743</title>
<g id="a_node10"><a xlink:href="dir_26637d1bd82229bc9ed97f7e706be743.html" target="_top" xlink:title="Raw">
<polygon fill="none" stroke="#ff0000" points="310,-324 256,-324 256,-288 310,-288 310,-324"/>
<text text-anchor="middle" x="283" y="-303.5" font-family="Helvetica,sans-Serif" font-size="10.00" fill="#000000">Raw</text>
</a>
</g>
</g>
<!-- dir_aece0de4a924a7db153b75165d0988be&#45;&gt;dir_26637d1bd82229bc9ed97f7e706be743 -->
<g id="edge20" class="edge">
<title>dir_aece0de4a924a7db153b75165d0988be&#45;&gt;dir_26637d1bd82229bc9ed97f7e706be743</title>
<path fill="none" stroke="#000000" d="M152.2679,-363.8656C164.6161,-357.5947 179.4527,-350.239 193,-344 210.3853,-335.9934 229.9323,-327.6614 246.3567,-320.8468"/>
<polygon fill="#000000" stroke="#000000" points="247.7162,-324.0721 255.6264,-317.0237 245.0473,-317.6009 247.7162,-324.0721"/>
<g id="a_edge20&#45;headlabel"><a xlink:href="dir_000063_000555.html" target="_top" xlink:title="1">
<text text-anchor="middle" x="245.4757" y="-325.5674" font-family="Helvetica,sans-Serif" font-size="10.00" fill="#000000">1</text>
</a>
</g>
</g>
<!-- dir_2171f7ec022c5423887b07c69b2f5b48 -->
<g id="node11" class="node">
<title>dir_2171f7ec022c5423887b07c69b2f5b48</title>
<g id="a_node11"><a xlink:href="dir_2171f7ec022c5423887b07c69b2f5b48.html" target="_top" xlink:title="DataFormats">
<polygon fill="none" stroke="#ff0000" points="319,-108 239,-108 239,-72 319,-72 319,-108"/>
<text text-anchor="middle" x="279" y="-87.5" font-family="Helvetica,sans-Serif" font-size="10.00" fill="#000000">DataFormats</text>
</a>
</g>
</g>
<!-- dir_aece0de4a924a7db153b75165d0988be&#45;&gt;dir_2171f7ec022c5423887b07c69b2f5b48 -->
<g id="edge21" class="edge">
<title>dir_aece0de4a924a7db153b75165d0988be&#45;&gt;dir_2171f7ec022c5423887b07c69b2f5b48</title>
<path fill="none" stroke="#000000" d="M132.997,-359.9475C150.8778,-320.0812 196.1369,-221.8859 242,-144 247.4494,-134.7457 253.9174,-124.9654 259.9094,-116.3085"/>
<polygon fill="#000000" stroke="#000000" points="262.8009,-118.2811 265.6874,-108.087 257.0739,-114.2561 262.8009,-118.2811"/>
<g id="a_edge21&#45;headlabel"><a xlink:href="dir_000063_000076.html" target="_top" xlink:title="7">
<text text-anchor="middle" x="263.057" y="-120.3546" font-family="Helvetica,sans-Serif" font-size="10.00" fill="#000000">7</text>
</a>
</g>
</g>
<!-- dir_36f9785b6e7879c93ce113c7573e321a -->
<g id="node3" class="node">
<title>dir_36f9785b6e7879c93ce113c7573e321a</title>
<g id="a_node3"><a xlink:href="dir_36f9785b6e7879c93ce113c7573e321a.html" target="_top" xlink:title="src">
<polygon fill="#ffffff" stroke="#000000" points="152,-468 98,-468 98,-432 152,-432 152,-468"/>
<text text-anchor="middle" x="125" y="-447.5" font-family="Helvetica,sans-Serif" font-size="10.00" fill="#000000">src</text>
</a>
</g>
</g>
<!-- dir_36f9785b6e7879c93ce113c7573e321a&#45;&gt;dir_aece0de4a924a7db153b75165d0988be -->
<g id="edge8" class="edge">
<title>dir_36f9785b6e7879c93ce113c7573e321a&#45;&gt;dir_aece0de4a924a7db153b75165d0988be</title>
<path fill="none" stroke="#000000" d="M125,-431.8314C125,-424.131 125,-414.9743 125,-406.4166"/>
<polygon fill="#000000" stroke="#000000" points="128.5001,-406.4132 125,-396.4133 121.5001,-406.4133 128.5001,-406.4132"/>
<g id="a_edge8&#45;headlabel"><a xlink:href="dir_000066_000063.html" target="_top" xlink:title="11">
<text text-anchor="middle" x="131.3393" y="-407.5079" font-family="Helvetica,sans-Serif" font-size="10.00" fill="#000000">11</text>
</a>
</g>
</g>
<!-- dir_36f9785b6e7879c93ce113c7573e321a&#45;&gt;dir_2174d8cbbd82d5c404dd04814f845a3a -->
<g id="edge6" class="edge">
<title>dir_36f9785b6e7879c93ce113c7573e321a&#45;&gt;dir_2174d8cbbd82d5c404dd04814f845a3a</title>
<path fill="none" stroke="#000000" d="M152.3769,-435.9409C155.2687,-434.5672 158.1817,-433.229 161,-432 190.8839,-418.9685 225.0202,-406.0834 252.5538,-396.1696"/>
<polygon fill="#000000" stroke="#000000" points="253.7623,-399.4545 261.9997,-392.7915 251.4051,-392.8634 253.7623,-399.4545"/>
<g id="a_edge6&#45;headlabel"><a xlink:href="dir_000066_000357.html" target="_top" xlink:title="1">
<text text-anchor="middle" x="251.3337" y="-400.8384" font-family="Helvetica,sans-Serif" font-size="10.00" fill="#000000">1</text>
</a>
</g>
</g>
<!-- dir_36f9785b6e7879c93ce113c7573e321a&#45;&gt;dir_4ab6b4cc6a7edbff49100e9123df213f -->
<g id="edge7" class="edge">
<title>dir_36f9785b6e7879c93ce113c7573e321a&#45;&gt;dir_4ab6b4cc6a7edbff49100e9123df213f</title>
<path fill="none" stroke="#000000" d="M152.176,-435.4181C155.107,-434.1464 158.0841,-432.9749 161,-432 244.9981,-403.9168 300.3111,-464.0494 357,-396 389.0883,-357.4812 362.4058,-295.9937 342.2717,-260.8911"/>
<polygon fill="#000000" stroke="#000000" points="345.1942,-258.9575 337.0776,-252.1479 339.1761,-262.5328 345.1942,-258.9575"/>
<g id="a_edge7&#45;headlabel"><a xlink:href="dir_000066_000027.html" target="_top" xlink:title="2">
<text text-anchor="middle" x="349.4711" y="-258.0978" font-family="Helvetica,sans-Serif" font-size="10.00" fill="#000000">2</text>
</a>
</g>
</g>
<!-- dir_37c90836491b695b472bf98d1be8336b -->
<g id="node7" class="node">
<title>dir_37c90836491b695b472bf98d1be8336b</title>
<g id="a_node7"><a xlink:href="dir_37c90836491b695b472bf98d1be8336b.html" target="_top" xlink:title="Base">
<polygon fill="none" stroke="#ff0000" points="387,-36 333,-36 333,0 387,0 387,-36"/>
<text text-anchor="middle" x="360" y="-15.5" font-family="Helvetica,sans-Serif" font-size="10.00" fill="#000000">Base</text>
</a>
</g>
</g>
<!-- dir_36f9785b6e7879c93ce113c7573e321a&#45;&gt;dir_37c90836491b695b472bf98d1be8336b -->
<g id="edge9" class="edge">
<title>dir_36f9785b6e7879c93ce113c7573e321a&#45;&gt;dir_37c90836491b695b472bf98d1be8336b</title>
<path fill="none" stroke="#000000" d="M152.14,-435.3071C155.078,-434.057 158.0666,-432.9209 161,-432 266.8445,-398.772 308.8447,-445.7533 408,-396 458.5606,-370.6301 498,-362.5685 498,-306 498,-306 498,-306 498,-162 498,-103.0888 437.0498,-58.8799 396.1621,-35.8508"/>
<polygon fill="#000000" stroke="#000000" points="397.7185,-32.7129 387.2644,-30.992 394.3636,-38.8566 397.7185,-32.7129"/>
<g id="a_edge9&#45;headlabel"><a xlink:href="dir_000066_000276.html" target="_top" xlink:title="2">
<text text-anchor="middle" x="402.2341" y="-29.4437" font-family="Helvetica,sans-Serif" font-size="10.00" fill="#000000">2</text>
</a>
</g>
</g>
<!-- dir_36f9785b6e7879c93ce113c7573e321a&#45;&gt;dir_7c9998090bca7c4aa89c05dd66fe73f5 -->
<g id="edge10" class="edge">
<title>dir_36f9785b6e7879c93ce113c7573e321a&#45;&gt;dir_7c9998090bca7c4aa89c05dd66fe73f5</title>
<path fill="none" stroke="#000000" d="M97.8769,-434.8373C61.1134,-412.0501 0,-365.2582 0,-306 0,-306 0,-306 0,-162 0,-98.5382 70.6908,-54.6632 115.6556,-33.1743"/>
<polygon fill="#000000" stroke="#000000" points="117.2208,-36.3066 124.8254,-28.9296 114.2803,-29.9542 117.2208,-36.3066"/>
<g id="a_edge10&#45;headlabel"><a xlink:href="dir_000066_000463.html" target="_top" xlink:title="3">
<text text-anchor="middle" x="115.1514" y="-37.8932" font-family="Helvetica,sans-Serif" font-size="10.00" fill="#000000">3</text>
</a>
</g>
</g>
<!-- dir_bcbb2cf9a3d3d83e5515c82071a07177 -->
<g id="node9" class="node">
<title>dir_bcbb2cf9a3d3d83e5515c82071a07177</title>
<g id="a_node9"><a xlink:href="dir_bcbb2cf9a3d3d83e5515c82071a07177.html" target="_top" xlink:title="Framework">
<polygon fill="none" stroke="#ff0000" points="459.5,-180 388.5,-180 388.5,-144 459.5,-144 459.5,-180"/>
<text text-anchor="middle" x="424" y="-159.5" font-family="Helvetica,sans-Serif" font-size="10.00" fill="#000000">Framework</text>
</a>
</g>
</g>
<!-- dir_36f9785b6e7879c93ce113c7573e321a&#45;&gt;dir_bcbb2cf9a3d3d83e5515c82071a07177 -->
<g id="edge11" class="edge">
<title>dir_36f9785b6e7879c93ce113c7573e321a&#45;&gt;dir_bcbb2cf9a3d3d83e5515c82071a07177</title>
<path fill="none" stroke="#000000" d="M152.1589,-435.3663C155.0933,-434.1047 158.0758,-432.9497 161,-432 253.9819,-401.8022 306.3605,-462.523 378,-396 435.5201,-342.588 433.0727,-239.948 427.932,-190.2891"/>
<polygon fill="#000000" stroke="#000000" points="431.3977,-189.7894 426.7795,-180.254 424.4434,-190.5881 431.3977,-189.7894"/>
<g id="a_edge11&#45;headlabel"><a xlink:href="dir_000066_000013.html" target="_top" xlink:title="1">
<text text-anchor="middle" x="434.6285" y="-190.5366" font-family="Helvetica,sans-Serif" font-size="10.00" fill="#000000">1</text>
</a>
</g>
</g>
<!-- dir_36f9785b6e7879c93ce113c7573e321a&#45;&gt;dir_26637d1bd82229bc9ed97f7e706be743 -->
<g id="edge12" class="edge">
<title>dir_36f9785b6e7879c93ce113c7573e321a&#45;&gt;dir_26637d1bd82229bc9ed97f7e706be743</title>
<path fill="none" stroke="#000000" d="M145.0108,-431.7623C173.0284,-406.2272 224.0445,-359.7316 255.5798,-330.9906"/>
<polygon fill="#000000" stroke="#000000" points="258.1183,-333.4125 263.1517,-324.0896 253.4031,-328.2389 258.1183,-333.4125"/>
<g id="a_edge12&#45;headlabel"><a xlink:href="dir_000066_000555.html" target="_top" xlink:title="1">
<text text-anchor="middle" x="257.3741" y="-335.4323" font-family="Helvetica,sans-Serif" font-size="10.00" fill="#000000">1</text>
</a>
</g>
</g>
<!-- dir_36f9785b6e7879c93ce113c7573e321a&#45;&gt;dir_2171f7ec022c5423887b07c69b2f5b48 -->
<g id="edge13" class="edge">
<title>dir_36f9785b6e7879c93ce113c7573e321a&#45;&gt;dir_2171f7ec022c5423887b07c69b2f5b48</title>
<path fill="none" stroke="#000000" d="M109.0095,-431.9169C101.3462,-422.0371 92.9834,-409.1563 89,-396 82.3028,-373.8805 82.4315,-366.158 89,-344 119.1315,-242.3555 150.122,-224.5936 219,-144 227.7649,-133.7443 238.4222,-123.5658 248.3092,-114.8567"/>
<polygon fill="#000000" stroke="#000000" points="250.7293,-117.3916 256.0225,-108.2137 246.1612,-112.0875 250.7293,-117.3916"/>
<g id="a_edge13&#45;headlabel"><a xlink:href="dir_000066_000076.html" target="_top" xlink:title="2">
<text text-anchor="middle" x="249.8584" y="-119.3887" font-family="Helvetica,sans-Serif" font-size="10.00" fill="#000000">2</text>
</a>
</g>
</g>
<!-- dir_74a2cd511ae2b2930045e15d010bedac -->
<g id="node4" class="node">
<title>dir_74a2cd511ae2b2930045e15d010bedac</title>
<g id="a_node4"><a xlink:href="dir_74a2cd511ae2b2930045e15d010bedac.html" target="_top" xlink:title="test">
<polygon fill="#ffffff" stroke="#000000" points="80,-468 26,-468 26,-432 80,-432 80,-468"/>
<text text-anchor="middle" x="53" y="-447.5" font-family="Helvetica,sans-Serif" font-size="10.00" fill="#000000">test</text>
</a>
</g>
</g>
<!-- dir_74a2cd511ae2b2930045e15d010bedac&#45;&gt;dir_aece0de4a924a7db153b75165d0988be -->
<g id="edge16" class="edge">
<title>dir_74a2cd511ae2b2930045e15d010bedac&#45;&gt;dir_aece0de4a924a7db153b75165d0988be</title>
<path fill="none" stroke="#000000" d="M71.1686,-431.8314C79.7152,-423.2848 90.0557,-412.9443 99.3802,-403.6198"/>
<polygon fill="#000000" stroke="#000000" points="101.9905,-405.9592 106.5867,-396.4133 97.0408,-401.0095 101.9905,-405.9592"/>
<g id="a_edge16&#45;headlabel"><a xlink:href="dir_000471_000063.html" target="_top" xlink:title="1">
<text text-anchor="middle" x="101.4564" y="-408.0087" font-family="Helvetica,sans-Serif" font-size="10.00" fill="#000000">1</text>
</a>
</g>
</g>
<!-- dir_2174d8cbbd82d5c404dd04814f845a3a&#45;&gt;dir_4ab6b4cc6a7edbff49100e9123df213f -->
<g id="edge1" class="edge">
<title>dir_2174d8cbbd82d5c404dd04814f845a3a&#45;&gt;dir_4ab6b4cc6a7edbff49100e9123df213f</title>
<path fill="none" stroke="#000000" d="M310.6589,-359.687C313.6325,-349.3166 317.0544,-336.0469 319,-324 322.3238,-303.4197 323.8132,-279.9059 324.4773,-262.0749"/>
<polygon fill="#000000" stroke="#000000" points="327.9767,-262.1447 324.7869,-252.0415 320.98,-261.9288 327.9767,-262.1447"/>
<g id="a_edge1&#45;headlabel"><a xlink:href="dir_000357_000027.html" target="_top" xlink:title="5">
<text text-anchor="middle" x="330.7039" y="-263.3251" font-family="Helvetica,sans-Serif" font-size="10.00" fill="#000000">5</text>
</a>
</g>
</g>
<!-- dir_2174d8cbbd82d5c404dd04814f845a3a&#45;&gt;dir_7c9998090bca7c4aa89c05dd66fe73f5 -->
<g id="edge2" class="edge">
<title>dir_2174d8cbbd82d5c404dd04814f845a3a&#45;&gt;dir_7c9998090bca7c4aa89c05dd66fe73f5</title>
<path fill="none" stroke="#000000" d="M272.4184,-359.8765C258.7301,-350.7536 243.7535,-338.5296 234,-324 174.0999,-234.7685 157.8679,-103.4723 153.5396,-46.3174"/>
<polygon fill="#000000" stroke="#000000" points="157.0232,-45.9567 152.8426,-36.2216 150.0398,-46.4389 157.0232,-45.9567"/>
<g id="a_edge2&#45;headlabel"><a xlink:href="dir_000357_000463.html" target="_top" xlink:title="4">
<text text-anchor="middle" x="160.1032" y="-46.8473" font-family="Helvetica,sans-Serif" font-size="10.00" fill="#000000">4</text>
</a>
</g>
</g>
<!-- dir_2174d8cbbd82d5c404dd04814f845a3a&#45;&gt;dir_bcbb2cf9a3d3d83e5515c82071a07177 -->
<g id="edge3" class="edge">
<title>dir_2174d8cbbd82d5c404dd04814f845a3a&#45;&gt;dir_bcbb2cf9a3d3d83e5515c82071a07177</title>
<path fill="none" stroke="#000000" d="M319.8993,-359.7645C338.6848,-336.0887 371.0512,-292.94 392,-252 402.2142,-232.0385 410.5658,-208.0557 416.1728,-189.8683"/>
<polygon fill="#000000" stroke="#000000" points="419.563,-190.7474 419.0749,-180.1638 412.8564,-188.7418 419.563,-190.7474"/>
<g id="a_edge3&#45;headlabel"><a xlink:href="dir_000357_000013.html" target="_top" xlink:title="6">
<text text-anchor="middle" x="421.2533" y="-192.5048" font-family="Helvetica,sans-Serif" font-size="10.00" fill="#000000">6</text>
</a>
</g>
</g>
<!-- dir_2174d8cbbd82d5c404dd04814f845a3a&#45;&gt;dir_26637d1bd82229bc9ed97f7e706be743 -->
<g id="edge4" class="edge">
<title>dir_2174d8cbbd82d5c404dd04814f845a3a&#45;&gt;dir_26637d1bd82229bc9ed97f7e706be743</title>
<path fill="none" stroke="#000000" d="M299.4485,-359.8314C297.0697,-352.0463 294.2362,-342.7729 291.5967,-334.1347"/>
<polygon fill="#000000" stroke="#000000" points="294.8958,-332.954 288.6263,-324.4133 288.2013,-334.9996 294.8958,-332.954"/>
<g id="a_edge4&#45;headlabel"><a xlink:href="dir_000357_000555.html" target="_top" xlink:title="3">
<text text-anchor="middle" x="298.6614" y="-333.062" font-family="Helvetica,sans-Serif" font-size="10.00" fill="#000000">3</text>
</a>
</g>
</g>
<!-- dir_2174d8cbbd82d5c404dd04814f845a3a&#45;&gt;dir_2171f7ec022c5423887b07c69b2f5b48 -->
<g id="edge5" class="edge">
<title>dir_2174d8cbbd82d5c404dd04814f845a3a&#45;&gt;dir_2171f7ec022c5423887b07c69b2f5b48</title>
<path fill="none" stroke="#000000" d="M277.0391,-359.862C265.446,-350.6621 253.2598,-338.3809 247,-324 216.6477,-254.27 247.073,-162.7516 266.1408,-117.6179"/>
<polygon fill="#000000" stroke="#000000" points="269.4571,-118.7687 270.2411,-108.2029 263.0393,-115.9737 269.4571,-118.7687"/>
<g id="a_edge5&#45;headlabel"><a xlink:href="dir_000357_000076.html" target="_top" xlink:title="32">
<text text-anchor="middle" x="270.625" y="-120.698" font-family="Helvetica,sans-Serif" font-size="10.00" fill="#000000">32</text>
</a>
</g>
</g>
<!-- dir_4ab6b4cc6a7edbff49100e9123df213f&#45;&gt;dir_bcbb2cf9a3d3d83e5515c82071a07177 -->
<g id="edge14" class="edge">
<title>dir_4ab6b4cc6a7edbff49100e9123df213f&#45;&gt;dir_bcbb2cf9a3d3d83e5515c82071a07177</title>
<path fill="none" stroke="#000000" d="M344.0295,-215.8314C355.5769,-206.7927 370.6125,-195.7476 384.5666,-186.0198"/>
<polygon fill="#000000" stroke="#000000" points="386.8221,-188.7163 393.0743,-180.1628 382.8527,-182.9505 386.8221,-188.7163"/>
<g id="a_edge14&#45;headlabel"><a xlink:href="dir_000027_000013.html" target="_top" xlink:title="2">
<text text-anchor="middle" x="385.4713" y="-190.5932" font-family="Helvetica,sans-Serif" font-size="10.00" fill="#000000">2</text>
</a>
</g>
</g>
<!-- dir_4ab6b4cc6a7edbff49100e9123df213f&#45;&gt;dir_2171f7ec022c5423887b07c69b2f5b48 -->
<g id="edge15" class="edge">
<title>dir_4ab6b4cc6a7edbff49100e9123df213f&#45;&gt;dir_2171f7ec022c5423887b07c69b2f5b48</title>
<path fill="none" stroke="#000000" d="M314.5009,-215.7623C304.1497,-191.0928 289.7534,-146.8598 282.4638,-117.9731"/>
<polygon fill="#000000" stroke="#000000" points="285.8331,-117.0123 280.1203,-108.0896 279.022,-118.6274 285.8331,-117.0123"/>
<g id="a_edge15&#45;headlabel"><a xlink:href="dir_000027_000076.html" target="_top" xlink:title="2">
<text text-anchor="middle" x="289.425" y="-117.3549" font-family="Helvetica,sans-Serif" font-size="10.00" fill="#000000">2</text>
</a>
</g>
</g>
<!-- dir_37c90836491b695b472bf98d1be8336b&#45;&gt;dir_4ab6b4cc6a7edbff49100e9123df213f -->
<g id="edge22" class="edge">
<title>dir_37c90836491b695b472bf98d1be8336b&#45;&gt;dir_4ab6b4cc6a7edbff49100e9123df213f</title>
<path fill="none" stroke="#000000" d="M357.0598,-36.1451C350.9463,-73.8741 336.8274,-161.0083 329.5378,-205.9956"/>
<polygon fill="#000000" stroke="#000000" points="326.0685,-205.5244 327.9239,-215.9555 332.9784,-206.6441 326.0685,-205.5244"/>
<g id="a_edge22&#45;headlabel"><a xlink:href="dir_000276_000027.html" target="_top" xlink:title="16">
<text text-anchor="middle" x="323.8407" y="-199.0219" font-family="Helvetica,sans-Serif" font-size="10.00" fill="#000000">16</text>
</a>
</g>
</g>
<!-- dir_37c90836491b695b472bf98d1be8336b&#45;&gt;dir_bcbb2cf9a3d3d83e5515c82071a07177 -->
<g id="edge23" class="edge">
<title>dir_37c90836491b695b472bf98d1be8336b&#45;&gt;dir_bcbb2cf9a3d3d83e5515c82071a07177</title>
<path fill="none" stroke="#000000" d="M368.0398,-36.0896C379.065,-60.8962 398.9699,-105.6824 411.8272,-134.6113"/>
<polygon fill="#000000" stroke="#000000" points="408.6346,-136.0457 415.8944,-143.7623 415.0313,-133.2027 408.6346,-136.0457"/>
<g id="a_edge23&#45;headlabel"><a xlink:href="dir_000276_000013.html" target="_top" xlink:title="1">
<text text-anchor="middle" x="404.5802" y="-131.414" font-family="Helvetica,sans-Serif" font-size="10.00" fill="#000000">1</text>
</a>
</g>
</g>
<!-- dir_37c90836491b695b472bf98d1be8336b&#45;&gt;dir_2171f7ec022c5423887b07c69b2f5b48 -->
<g id="edge24" class="edge">
<title>dir_37c90836491b695b472bf98d1be8336b&#45;&gt;dir_2171f7ec022c5423887b07c69b2f5b48</title>
<path fill="none" stroke="#000000" d="M345.5186,-36.1628C336.4075,-45.0301 324.4204,-55.8295 313.0889,-65.4219"/>
<polygon fill="#000000" stroke="#000000" points="310.8368,-62.7426 305.3921,-71.8314 315.3163,-68.1217 310.8368,-62.7426"/>
<g id="a_edge24&#45;headlabel"><a xlink:href="dir_000276_000076.html" target="_top" xlink:title="10">
<text text-anchor="middle" x="311.7822" y="-55.7605" font-family="Helvetica,sans-Serif" font-size="10.00" fill="#000000">10</text>
</a>
</g>
</g>
<!-- dir_7c9998090bca7c4aa89c05dd66fe73f5&#45;&gt;dir_4ab6b4cc6a7edbff49100e9123df213f -->
<g id="edge25" class="edge">
<title>dir_7c9998090bca7c4aa89c05dd66fe73f5&#45;&gt;dir_4ab6b4cc6a7edbff49100e9123df213f</title>
<path fill="none" stroke="#000000" d="M166.5329,-36.1451C197.1973,-74.4313 268.609,-163.5927 304.1445,-207.9608"/>
<polygon fill="#000000" stroke="#000000" points="301.5645,-210.3383 310.5477,-215.9555 307.0281,-205.9623 301.5645,-210.3383"/>
<g id="a_edge25&#45;headlabel"><a xlink:href="dir_000463_000027.html" target="_top" xlink:title="4">
<text text-anchor="middle" x="297.1013" y="-206.8076" font-family="Helvetica,sans-Serif" font-size="10.00" fill="#000000">4</text>
</a>
</g>
</g>
<!-- dir_7c9998090bca7c4aa89c05dd66fe73f5&#45;&gt;dir_2171f7ec022c5423887b07c69b2f5b48 -->
<g id="edge26" class="edge">
<title>dir_7c9998090bca7c4aa89c05dd66fe73f5&#45;&gt;dir_2171f7ec022c5423887b07c69b2f5b48</title>
<path fill="none" stroke="#000000" d="M179.3,-30.4952C198.3329,-40.436 223.7285,-54.6247 244.1847,-66.6538"/>
<polygon fill="#000000" stroke="#000000" points="242.5195,-69.7355 252.9049,-71.8314 246.0932,-63.7165 242.5195,-69.7355"/>
<g id="a_edge26&#45;headlabel"><a xlink:href="dir_000463_000076.html" target="_top" xlink:title="2">
<text text-anchor="middle" x="237.9791" y="-67.8417" font-family="Helvetica,sans-Serif" font-size="10.00" fill="#000000">2</text>
</a>
</g>
</g>
<!-- dir_bcbb2cf9a3d3d83e5515c82071a07177&#45;&gt;dir_4ab6b4cc6a7edbff49100e9123df213f -->
<g id="edge27" class="edge">
<title>dir_bcbb2cf9a3d3d83e5515c82071a07177&#45;&gt;dir_4ab6b4cc6a7edbff49100e9123df213f</title>
<path fill="none" stroke="#000000" d="M405.1818,-180.0032C393.5557,-189.1125 378.3387,-200.2914 364.2471,-210.1101"/>
<polygon fill="#000000" stroke="#000000" points="361.9156,-207.4657 355.6607,-216.0171 365.8831,-213.2328 361.9156,-207.4657"/>
<g id="a_edge27&#45;headlabel"><a xlink:href="dir_000013_000027.html" target="_top" xlink:title="9">
<text text-anchor="middle" x="363.2679" y="-200.5892" font-family="Helvetica,sans-Serif" font-size="10.00" fill="#000000">9</text>
</a>
</g>
</g>
<!-- dir_bcbb2cf9a3d3d83e5515c82071a07177&#45;&gt;dir_2171f7ec022c5423887b07c69b2f5b48 -->
<g id="edge28" class="edge">
<title>dir_bcbb2cf9a3d3d83e5515c82071a07177&#45;&gt;dir_2171f7ec022c5423887b07c69b2f5b48</title>
<path fill="none" stroke="#000000" d="M388.3632,-147.0816C367.1646,-137.1702 340.3306,-123.9672 318.501,-112.7557"/>
<polygon fill="#000000" stroke="#000000" points="319.9726,-109.5764 309.4828,-108.088 316.7549,-115.793 319.9726,-109.5764"/>
<g id="a_edge28&#45;headlabel"><a xlink:href="dir_000013_000076.html" target="_top" xlink:title="82">
<text text-anchor="middle" x="324.47" y="-106.2071" font-family="Helvetica,sans-Serif" font-size="10.00" fill="#000000">82</text>
</a>
</g>
</g>
<!-- dir_26637d1bd82229bc9ed97f7e706be743&#45;&gt;dir_4ab6b4cc6a7edbff49100e9123df213f -->
<g id="edge29" class="edge">
<title>dir_26637d1bd82229bc9ed97f7e706be743&#45;&gt;dir_4ab6b4cc6a7edbff49100e9123df213f</title>
<path fill="none" stroke="#000000" d="M293.5984,-287.8314C298.2877,-279.7925 303.9028,-270.1666 309.0798,-261.2918"/>
<polygon fill="#000000" stroke="#000000" points="312.2434,-262.8146 314.2589,-252.4133 306.1969,-259.2875 312.2434,-262.8146"/>
<g id="a_edge29&#45;headlabel"><a xlink:href="dir_000555_000027.html" target="_top" xlink:title="6">
<text text-anchor="middle" x="312.8847" y="-264.8502" font-family="Helvetica,sans-Serif" font-size="10.00" fill="#000000">6</text>
</a>
</g>
</g>
<!-- dir_26637d1bd82229bc9ed97f7e706be743&#45;&gt;dir_bcbb2cf9a3d3d83e5515c82071a07177 -->
<g id="edge30" class="edge">
<title>dir_26637d1bd82229bc9ed97f7e706be743&#45;&gt;dir_bcbb2cf9a3d3d83e5515c82071a07177</title>
<path fill="none" stroke="#000000" d="M310.1263,-291.9129C327.155,-282.2055 348.8656,-268.168 365,-252 383.5999,-233.3614 399.6023,-207.9671 410.2298,-188.9048"/>
<polygon fill="#000000" stroke="#000000" points="413.3075,-190.5712 415.003,-180.1129 407.1557,-187.2313 413.3075,-190.5712"/>
<g id="a_edge30&#45;headlabel"><a xlink:href="dir_000555_000013.html" target="_top" xlink:title="24">
<text text-anchor="middle" x="414.0877" y="-192.585" font-family="Helvetica,sans-Serif" font-size="10.00" fill="#000000">24</text>
</a>
</g>
</g>
<!-- dir_26637d1bd82229bc9ed97f7e706be743&#45;&gt;dir_2171f7ec022c5423887b07c69b2f5b48 -->
<g id="edge31" class="edge">
<title>dir_26637d1bd82229bc9ed97f7e706be743&#45;&gt;dir_2171f7ec022c5423887b07c69b2f5b48</title>
<path fill="none" stroke="#000000" d="M282.6658,-287.9555C281.9703,-250.3938 280.3621,-163.5541 279.5261,-118.4103"/>
<polygon fill="#000000" stroke="#000000" points="283.0207,-118.0785 279.336,-108.1451 276.0219,-118.2082 283.0207,-118.0785"/>
<g id="a_edge31&#45;headlabel"><a xlink:href="dir_000555_000076.html" target="_top" xlink:title="11">
<text text-anchor="middle" x="285.9259" y="-119.12" font-family="Helvetica,sans-Serif" font-size="10.00" fill="#000000">11</text>
</a>
</g>
</g>
<!-- dir_2171f7ec022c5423887b07c69b2f5b48&#45;&gt;dir_4ab6b4cc6a7edbff49100e9123df213f -->
<g id="edge32" class="edge">
<title>dir_2171f7ec022c5423887b07c69b2f5b48&#45;&gt;dir_4ab6b4cc6a7edbff49100e9123df213f</title>
<path fill="none" stroke="#000000" d="M289.4369,-108.0896C299.7718,-132.6805 314.1742,-176.905 321.4923,-205.8531"/>
<polygon fill="#000000" stroke="#000000" points="318.1299,-206.8425 323.8472,-215.7623 324.9402,-205.224 318.1299,-206.8425"/>
<g id="a_edge32&#45;headlabel"><a xlink:href="dir_000076_000027.html" target="_top" xlink:title="33">
<text text-anchor="middle" x="314.5365" y="-201.5018" font-family="Helvetica,sans-Serif" font-size="10.00" fill="#000000">33</text>
</a>
</g>
</g>
<!-- dir_2171f7ec022c5423887b07c69b2f5b48&#45;&gt;dir_37c90836491b695b472bf98d1be8336b -->
<g id="edge33" class="edge">
<title>dir_2171f7ec022c5423887b07c69b2f5b48&#45;&gt;dir_37c90836491b695b472bf98d1be8336b</title>
<path fill="none" stroke="#000000" d="M293.4873,-71.8314C302.5998,-62.9632 314.5873,-52.1637 325.9185,-42.5718"/>
<polygon fill="#000000" stroke="#000000" points="328.1701,-45.2515 333.615,-36.1628 323.6908,-39.8723 328.1701,-45.2515"/>
<g id="a_edge33&#45;headlabel"><a xlink:href="dir_000076_000276.html" target="_top" xlink:title="1">
<text text-anchor="middle" x="327.2247" y="-47.2335" font-family="Helvetica,sans-Serif" font-size="10.00" fill="#000000">1</text>
</a>
</g>
</g>
<!-- dir_2171f7ec022c5423887b07c69b2f5b48&#45;&gt;dir_7c9998090bca7c4aa89c05dd66fe73f5 -->
<g id="edge34" class="edge">
<title>dir_2171f7ec022c5423887b07c69b2f5b48&#45;&gt;dir_7c9998090bca7c4aa89c05dd66fe73f5</title>
<path fill="none" stroke="#000000" d="M241.0001,-71.8314C223.8586,-62.6221 203.8006,-51.3301 187.0269,-41.4706"/>
<polygon fill="#000000" stroke="#000000" points="188.4711,-38.2577 178.0854,-36.1628 184.8979,-44.2771 188.4711,-38.2577"/>
<g id="a_edge34&#45;headlabel"><a xlink:href="dir_000076_000463.html" target="_top" xlink:title="1">
<text text-anchor="middle" x="193.0114" y="-35.151" font-family="Helvetica,sans-Serif" font-size="10.00" fill="#000000">1</text>
</a>
</g>
</g>
<!-- dir_2171f7ec022c5423887b07c69b2f5b48&#45;&gt;dir_bcbb2cf9a3d3d83e5515c82071a07177 -->
<g id="edge35" class="edge">
<title>dir_2171f7ec022c5423887b07c69b2f5b48&#45;&gt;dir_bcbb2cf9a3d3d83e5515c82071a07177</title>
<path fill="none" stroke="#000000" d="M319.1727,-107.0487C339.5314,-116.6515 364.1021,-128.7706 384.379,-139.1827"/>
<polygon fill="#000000" stroke="#000000" points="382.8728,-142.3441 393.3628,-143.8314 386.0899,-136.1271 382.8728,-142.3441"/>
<g id="a_edge35&#45;headlabel"><a xlink:href="dir_000076_000013.html" target="_top" xlink:title="7">
<text text-anchor="middle" x="378.3755" y="-140.7138" font-family="Helvetica,sans-Serif" font-size="10.00" fill="#000000">7</text>
</a>
</g>
</g>
</g>
</svg>
