<?xml version="1.0" encoding="UTF-8" standalone="no"?>
<!DOCTYPE svg PUBLIC "-//W3C//DTD SVG 1.1//EN"
 "http://www.w3.org/Graphics/SVG/1.1/DTD/svg11.dtd">
<!-- Generated by graphviz version 2.40.1 (20161225.0304)
 -->
<!-- Title: /home/travis/build/AliceO2Group/AliceO2/DataFormats/Detectors/TPC/include Pages: 1 -->
<svg width="372pt" height="375pt"
 viewBox="0.00 0.00 372.00 375.00" xmlns="http://www.w3.org/2000/svg" xmlns:xlink="http://www.w3.org/1999/xlink">
<g id="graph0" class="graph" transform="scale(1 1) rotate(0) translate(4 371)">
<title>/home/travis/build/AliceO2Group/AliceO2/DataFormats/Detectors/TPC/include</title>
<g id="clust1" class="cluster">
<title>clusterdir_87e4e27fa2128902da5e37b3e7ab3f52</title>
<g id="a_clust1"><a xlink:href="dir_87e4e27fa2128902da5e37b3e7ab3f52.html" target="_top" xlink:title="TPC">
<polygon fill="#ddddee" stroke="#000000" points="133.5,-272 133.5,-359 335.5,-359 335.5,-272 133.5,-272"/>
<text text-anchor="middle" x="234.5" y="-347" font-family="Helvetica,sans-Serif" font-size="10.00" fill="#000000">TPC</text>
</a>
</g>
</g>
<g id="clust2" class="cluster">
<title>clusterdir_6f22cbd49ee75d810f2bfe3ea5accc3c</title>
<g id="a_clust2"><a xlink:href="dir_6f22cbd49ee75d810f2bfe3ea5accc3c.html" target="_top">
<polygon fill="#eeeeff" stroke="#000000" points="141.5,-280 141.5,-332 327.5,-332 327.5,-280 141.5,-280"/>
</a>
</g>
</g>
<!-- dir_6f22cbd49ee75d810f2bfe3ea5accc3c -->
<g id="node1" class="node">
<title>dir_6f22cbd49ee75d810f2bfe3ea5accc3c</title>
<text text-anchor="middle" x="292.5" y="-303.5" font-family="Helvetica,sans-Serif" font-size="10.00" fill="#000000">include</text>
</g>
<!-- dir_4e2a5e5ba58223c96ff5b40c7fcc0e28 -->
<g id="node2" class="node">
<title>dir_4e2a5e5ba58223c96ff5b40c7fcc0e28</title>
<g id="a_node2"><a xlink:href="dir_4e2a5e5ba58223c96ff5b40c7fcc0e28.html" target="_top" xlink:title="DataFormatsTPC">
<polygon fill="#ffffff" stroke="#000000" points="247.5,-324 149.5,-324 149.5,-288 247.5,-288 247.5,-324"/>
<text text-anchor="middle" x="198.5" y="-303.5" font-family="Helvetica,sans-Serif" font-size="10.00" fill="#000000">DataFormatsTPC</text>
</a>
</g>
</g>
<!-- dir_d269712cc31e133b892a3b3f6424741a -->
<g id="node3" class="node">
<title>dir_d269712cc31e133b892a3b3f6424741a</title>
<g id="a_node3"><a xlink:href="dir_d269712cc31e133b892a3b3f6424741a.html" target="_top" xlink:title="Reconstruction">
<polygon fill="none" stroke="#ff0000" points="89,-324 0,-324 0,-288 89,-288 89,-324"/>
<text text-anchor="middle" x="44.5" y="-303.5" font-family="Helvetica,sans-Serif" font-size="10.00" fill="#000000">Reconstruction</text>
</a>
</g>
</g>
<!-- dir_4e2a5e5ba58223c96ff5b40c7fcc0e28&#45;&gt;dir_d269712cc31e133b892a3b3f6424741a -->
<g id="edge12" class="edge">
<title>dir_4e2a5e5ba58223c96ff5b40c7fcc0e28&#45;&gt;dir_d269712cc31e133b892a3b3f6424741a</title>
<path fill="none" stroke="#000000" d="M149.3176,-306C132.6717,-306 116.0259,-306 99.38,-306"/>
<polygon fill="#000000" stroke="#000000" points="99.0157,-302.5001 89.0156,-306 99.0156,-309.5001 99.0157,-302.5001"/>
<g id="a_edge12&#45;headlabel"><a xlink:href="dir_000163_000233.html" target="_top" xlink:title="2">
<text text-anchor="middle" x="102.6102" y="-297.1607" font-family="Helvetica,sans-Serif" font-size="10.00" fill="#000000">2</text>
</a>
</g>
</g>
<!-- dir_4ab6b4cc6a7edbff49100e9123df213f -->
<g id="node4" class="node">
<title>dir_4ab6b4cc6a7edbff49100e9123df213f</title>
<g id="a_node4"><a xlink:href="dir_4ab6b4cc6a7edbff49100e9123df213f.html" target="_top" xlink:title="Common">
<polygon fill="none" stroke="#ff0000" points="75,-252 14,-252 14,-216 75,-216 75,-252"/>
<text text-anchor="middle" x="44.5" y="-231.5" font-family="Helvetica,sans-Serif" font-size="10.00" fill="#000000">Common</text>
</a>
</g>
</g>
<!-- dir_4e2a5e5ba58223c96ff5b40c7fcc0e28&#45;&gt;dir_4ab6b4cc6a7edbff49100e9123df213f -->
<g id="edge13" class="edge">
<title>dir_4e2a5e5ba58223c96ff5b40c7fcc0e28&#45;&gt;dir_4ab6b4cc6a7edbff49100e9123df213f</title>
<path fill="none" stroke="#000000" d="M159.6393,-287.8314C136.615,-277.0667 107.504,-263.4564 84.3144,-252.6145"/>
<polygon fill="#000000" stroke="#000000" points="85.6393,-249.3703 75.0981,-248.3056 82.6745,-255.7115 85.6393,-249.3703"/>
<g id="a_edge13&#45;headlabel"><a xlink:href="dir_000163_000027.html" target="_top" xlink:title="2">
<text text-anchor="middle" x="90.098" y="-245.8207" font-family="Helvetica,sans-Serif" font-size="10.00" fill="#000000">2</text>
</a>
</g>
</g>
<!-- dir_183e7c4434404fe9096e1bd8673e1fcf -->
<g id="node5" class="node">
<title>dir_183e7c4434404fe9096e1bd8673e1fcf</title>
<g id="a_node5"><a xlink:href="dir_183e7c4434404fe9096e1bd8673e1fcf.html" target="_top" xlink:title="Headers">
<polygon fill="none" stroke="#ff0000" points="284,-108 227,-108 227,-72 284,-72 284,-108"/>
<text text-anchor="middle" x="255.5" y="-87.5" font-family="Helvetica,sans-Serif" font-size="10.00" fill="#000000">Headers</text>
</a>
</g>
</g>
<!-- dir_4e2a5e5ba58223c96ff5b40c7fcc0e28&#45;&gt;dir_183e7c4434404fe9096e1bd8673e1fcf -->
<g id="edge14" class="edge">
<title>dir_4e2a5e5ba58223c96ff5b40c7fcc0e28&#45;&gt;dir_183e7c4434404fe9096e1bd8673e1fcf</title>
<path fill="none" stroke="#000000" d="M212.0694,-287.9506C218.9688,-277.8778 226.8564,-264.8081 231.5,-252 247.7814,-207.0924 253.0294,-151.3547 254.7135,-118.344"/>
<polygon fill="#000000" stroke="#000000" points="258.2224,-118.211 255.1588,-108.0688 251.229,-117.9078 258.2224,-118.211"/>
<g id="a_edge14&#45;headlabel"><a xlink:href="dir_000163_000080.html" target="_top" xlink:title="1">
<text text-anchor="middle" x="260.9035" y="-119.4251" font-family="Helvetica,sans-Serif" font-size="10.00" fill="#000000">1</text>
</a>
</g>
</g>
<!-- dir_8ba487e25de5ee77e05e9dce7582cb98 -->
<g id="node6" class="node">
<title>dir_8ba487e25de5ee77e05e9dce7582cb98</title>
<g id="a_node6"><a xlink:href="dir_8ba487e25de5ee77e05e9dce7582cb98.html" target="_top" xlink:title="Algorithm">
<polygon fill="none" stroke="#ff0000" points="349,-252 284,-252 284,-216 349,-216 349,-252"/>
<text text-anchor="middle" x="316.5" y="-231.5" font-family="Helvetica,sans-Serif" font-size="10.00" fill="#000000">Algorithm</text>
</a>
</g>
</g>
<!-- dir_4e2a5e5ba58223c96ff5b40c7fcc0e28&#45;&gt;dir_8ba487e25de5ee77e05e9dce7582cb98 -->
<g id="edge15" class="edge">
<title>dir_4e2a5e5ba58223c96ff5b40c7fcc0e28&#45;&gt;dir_8ba487e25de5ee77e05e9dce7582cb98</title>
<path fill="none" stroke="#000000" d="M228.2764,-287.8314C243.3693,-278.6221 261.8757,-267.3301 278.0343,-257.4706"/>
<polygon fill="#000000" stroke="#000000" points="280.0198,-260.3593 286.7331,-252.1628 276.3737,-254.3838 280.0198,-260.3593"/>
<g id="a_edge15&#45;headlabel"><a xlink:href="dir_000163_000000.html" target="_top" xlink:title="1">
<text text-anchor="middle" x="278.4301" y="-262.1552" font-family="Helvetica,sans-Serif" font-size="10.00" fill="#000000">1</text>
</a>
</g>
</g>
<!-- dir_047746f9f311f49446db9474b7431d0d -->
<g id="node7" class="node">
<title>dir_047746f9f311f49446db9474b7431d0d</title>
<g id="a_node7"><a xlink:href="dir_047746f9f311f49446db9474b7431d0d.html" target="_top" xlink:title="simulation">
<polygon fill="none" stroke="#ff0000" points="155.5,-108 87.5,-108 87.5,-72 155.5,-72 155.5,-108"/>
<text text-anchor="middle" x="121.5" y="-87.5" font-family="Helvetica,sans-Serif" font-size="10.00" fill="#000000">simulation</text>
</a>
</g>
</g>
<!-- dir_4e2a5e5ba58223c96ff5b40c7fcc0e28&#45;&gt;dir_047746f9f311f49446db9474b7431d0d -->
<g id="edge16" class="edge">
<title>dir_4e2a5e5ba58223c96ff5b40c7fcc0e28&#45;&gt;dir_047746f9f311f49446db9474b7431d0d</title>
<path fill="none" stroke="#000000" d="M199.171,-287.93C199.5962,-256.8378 197.2431,-191.9438 173.5,-144 168.2286,-133.3555 160.1067,-123.4375 151.8368,-115.0808"/>
<polygon fill="#000000" stroke="#000000" points="154.2455,-112.5414 144.5991,-108.1599 149.4077,-117.6007 154.2455,-112.5414"/>
<g id="a_edge16&#45;headlabel"><a xlink:href="dir_000163_000247.html" target="_top" xlink:title="2">
<text text-anchor="middle" x="158.8057" y="-110.4736" font-family="Helvetica,sans-Serif" font-size="10.00" fill="#000000">2</text>
</a>
</g>
</g>
<!-- dir_7924ba4398ae4560cd37376e44666c6d -->
<g id="node8" class="node">
<title>dir_7924ba4398ae4560cd37376e44666c6d</title>
<g id="a_node8"><a xlink:href="dir_7924ba4398ae4560cd37376e44666c6d.html" target="_top" xlink:title="common">
<polygon fill="none" stroke="#ff0000" points="151,-36 92,-36 92,0 151,0 151,-36"/>
<text text-anchor="middle" x="121.5" y="-15.5" font-family="Helvetica,sans-Serif" font-size="10.00" fill="#000000">common</text>
</a>
</g>
</g>
<!-- dir_4e2a5e5ba58223c96ff5b40c7fcc0e28&#45;&gt;dir_7924ba4398ae4560cd37376e44666c6d -->
<g id="edge17" class="edge">
<title>dir_4e2a5e5ba58223c96ff5b40c7fcc0e28&#45;&gt;dir_7924ba4398ae4560cd37376e44666c6d</title>
<path fill="none" stroke="#000000" d="M224.9931,-287.938C234.5709,-282.1031 245.6932,-276.0914 256.5,-272 299.7039,-255.6432 329.1445,-287.6704 358.5,-252 368.6672,-239.6457 361.8667,-231.6418 358.5,-216 343.7248,-147.3541 346.0349,-118.5902 293.5,-72 256.4711,-39.1612 199.5597,-26.2876 161.4576,-21.2439"/>
<polygon fill="#000000" stroke="#000000" points="161.5874,-17.7345 151.2418,-20.0189 160.7539,-24.6847 161.5874,-17.7345"/>
<g id="a_edge17&#45;headlabel"><a xlink:href="dir_000163_000077.html" target="_top" xlink:title="1">
<text text-anchor="middle" x="165.4945" y="-12.8433" font-family="Helvetica,sans-Serif" font-size="10.00" fill="#000000">1</text>
</a>
</g>
</g>
<!-- dir_f511f1e9c03c071966ae594f00bbc5e0 -->
<g id="node9" class="node">
<title>dir_f511f1e9c03c071966ae594f00bbc5e0</title>
<g id="a_node9"><a xlink:href="dir_f511f1e9c03c071966ae594f00bbc5e0.html" target="_top" xlink:title="GPU">
<polygon fill="none" stroke="#ff0000" points="164.5,-180 110.5,-180 110.5,-144 164.5,-144 164.5,-180"/>
<text text-anchor="middle" x="137.5" y="-159.5" font-family="Helvetica,sans-Serif" font-size="10.00" fill="#000000">GPU</text>
</a>
</g>
</g>
<!-- dir_4e2a5e5ba58223c96ff5b40c7fcc0e28&#45;&gt;dir_f511f1e9c03c071966ae594f00bbc5e0 -->
<g id="edge18" class="edge">
<title>dir_4e2a5e5ba58223c96ff5b40c7fcc0e28&#45;&gt;dir_f511f1e9c03c071966ae594f00bbc5e0</title>
<path fill="none" stroke="#000000" d="M190.7743,-287.7623C180.2782,-262.9846 161.4219,-218.4714 149.1891,-189.5939"/>
<polygon fill="#000000" stroke="#000000" points="152.2864,-187.9323 145.163,-180.0896 145.8408,-190.6628 152.2864,-187.9323"/>
<g id="a_edge18&#45;headlabel"><a xlink:href="dir_000163_000140.html" target="_top" xlink:title="4">
<text text-anchor="middle" x="156.3028" y="-187.6347" font-family="Helvetica,sans-Serif" font-size="10.00" fill="#000000">4</text>
</a>
</g>
</g>
<!-- dir_d269712cc31e133b892a3b3f6424741a&#45;&gt;dir_4ab6b4cc6a7edbff49100e9123df213f -->
<g id="edge1" class="edge">
<title>dir_d269712cc31e133b892a3b3f6424741a&#45;&gt;dir_4ab6b4cc6a7edbff49100e9123df213f</title>
<path fill="none" stroke="#000000" d="M38.5476,-287.8314C37.7972,-280.131 37.5763,-270.9743 37.8849,-262.4166"/>
<polygon fill="#000000" stroke="#000000" points="41.3792,-262.6161 38.524,-252.4133 34.3935,-262.1697 41.3792,-262.6161"/>
<g id="a_edge1&#45;headlabel"><a xlink:href="dir_000233_000027.html" target="_top" xlink:title="8">
<text text-anchor="middle" x="43.9836" y="-263.8844" font-family="Helvetica,sans-Serif" font-size="10.00" fill="#000000">8</text>
</a>
</g>
</g>
<!-- dir_d269712cc31e133b892a3b3f6424741a&#45;&gt;dir_7924ba4398ae4560cd37376e44666c6d -->
<g id="edge2" class="edge">
<title>dir_d269712cc31e133b892a3b3f6424741a&#45;&gt;dir_7924ba4398ae4560cd37376e44666c6d</title>
<path fill="none" stroke="#000000" d="M26.3424,-287.7286C17.951,-277.9911 8.8877,-265.2949 4.5,-252 -.5144,-236.8061 1.4555,-231.7077 4.5,-216 17.6288,-148.2643 23.1861,-128.7002 62.5,-72 69.8557,-61.3913 79.65,-51.3661 89.1416,-42.8998"/>
<polygon fill="#000000" stroke="#000000" points="91.6699,-45.3424 96.9832,-36.1761 87.1135,-40.0283 91.6699,-45.3424"/>
<g id="a_edge2&#45;headlabel"><a xlink:href="dir_000233_000077.html" target="_top" xlink:title="4">
<text text-anchor="middle" x="90.7893" y="-47.3376" font-family="Helvetica,sans-Serif" font-size="10.00" fill="#000000">4</text>
</a>
</g>
</g>
<!-- dir_d269712cc31e133b892a3b3f6424741a&#45;&gt;dir_f511f1e9c03c071966ae594f00bbc5e0 -->
<g id="edge3" class="edge">
<title>dir_d269712cc31e133b892a3b3f6424741a&#45;&gt;dir_f511f1e9c03c071966ae594f00bbc5e0</title>
<path fill="none" stroke="#000000" d="M58.2516,-287.778C65.9057,-277.4361 75.4787,-264.1646 83.5,-252 97.1671,-231.2733 111.5825,-207.1154 122.0783,-189.0497"/>
<polygon fill="#000000" stroke="#000000" points="125.2142,-190.6182 127.1849,-180.2083 119.1526,-187.1172 125.2142,-190.6182"/>
<g id="a_edge3&#45;headlabel"><a xlink:href="dir_000233_000140.html" target="_top" xlink:title="1">
<text text-anchor="middle" x="125.875" y="-192.651" font-family="Helvetica,sans-Serif" font-size="10.00" fill="#000000">1</text>
</a>
</g>
</g>
<!-- dir_4ab6b4cc6a7edbff49100e9123df213f&#45;&gt;dir_d269712cc31e133b892a3b3f6424741a -->
<g id="edge4" class="edge">
<title>dir_4ab6b4cc6a7edbff49100e9123df213f&#45;&gt;dir_d269712cc31e133b892a3b3f6424741a</title>
<path fill="none" stroke="#000000" d="M50.476,-252.4133C51.2071,-260.0593 51.4203,-269.1084 51.1155,-277.5726"/>
<polygon fill="#000000" stroke="#000000" points="47.6048,-277.6264 50.4524,-287.8314 54.5902,-278.078 47.6048,-277.6264"/>
<g id="a_edge4&#45;headlabel"><a xlink:href="dir_000027_000233.html" target="_top" xlink:title="1">
<text text-anchor="middle" x="45.0032" y="-271.3562" font-family="Helvetica,sans-Serif" font-size="10.00" fill="#000000">1</text>
</a>
</g>
</g>
<!-- dir_4ab6b4cc6a7edbff49100e9123df213f&#45;&gt;dir_f511f1e9c03c071966ae594f00bbc5e0 -->
<g id="edge5" class="edge">
<title>dir_4ab6b4cc6a7edbff49100e9123df213f&#45;&gt;dir_f511f1e9c03c071966ae594f00bbc5e0</title>
<path fill="none" stroke="#000000" d="M62.0154,-215.8314C73.3864,-206.3097 88.4428,-194.5615 102.1662,-184.4722"/>
<polygon fill="#000000" stroke="#000000" points="104.4489,-187.1404 110.4938,-178.4393 100.3422,-181.4717 104.4489,-187.1404"/>
<g id="a_edge5&#45;headlabel"><a xlink:href="dir_000027_000140.html" target="_top" xlink:title="3">
<text text-anchor="middle" x="103.2036" y="-189.0486" font-family="Helvetica,sans-Serif" font-size="10.00" fill="#000000">3</text>
</a>
</g>
</g>
<!-- dir_8ba487e25de5ee77e05e9dce7582cb98&#45;&gt;dir_183e7c4434404fe9096e1bd8673e1fcf -->
<g id="edge6" class="edge">
<title>dir_8ba487e25de5ee77e05e9dce7582cb98&#45;&gt;dir_183e7c4434404fe9096e1bd8673e1fcf</title>
<path fill="none" stroke="#000000" d="M308.7743,-215.7623C298.2782,-190.9846 279.4219,-146.4714 267.1891,-117.5939"/>
<polygon fill="#000000" stroke="#000000" points="270.2864,-115.9323 263.163,-108.0896 263.8408,-118.6628 270.2864,-115.9323"/>
<g id="a_edge6&#45;headlabel"><a xlink:href="dir_000000_000080.html" target="_top" xlink:title="8">
<text text-anchor="middle" x="274.3028" y="-115.6347" font-family="Helvetica,sans-Serif" font-size="10.00" fill="#000000">8</text>
</a>
</g>
</g>
<!-- dir_047746f9f311f49446db9474b7431d0d&#45;&gt;dir_4ab6b4cc6a7edbff49100e9123df213f -->
<g id="edge7" class="edge">
<title>dir_047746f9f311f49446db9474b7431d0d&#45;&gt;dir_4ab6b4cc6a7edbff49100e9123df213f</title>
<path fill="none" stroke="#000000" d="M111.8271,-108.0896C98.5624,-132.8962 74.6143,-177.6824 59.1453,-206.6113"/>
<polygon fill="#000000" stroke="#000000" points="55.8811,-205.2934 54.2521,-215.7623 62.054,-208.5943 55.8811,-205.2934"/>
<g id="a_edge7&#45;headlabel"><a xlink:href="dir_000247_000027.html" target="_top" xlink:title="5">
<text text-anchor="middle" x="55.0723" y="-198.2847" font-family="Helvetica,sans-Serif" font-size="10.00" fill="#000000">5</text>
</a>
</g>
</g>
<!-- dir_047746f9f311f49446db9474b7431d0d&#45;&gt;dir_7924ba4398ae4560cd37376e44666c6d -->
<g id="edge8" class="edge">
<title>dir_047746f9f311f49446db9474b7431d0d&#45;&gt;dir_7924ba4398ae4560cd37376e44666c6d</title>
<path fill="none" stroke="#000000" d="M121.5,-71.8314C121.5,-64.131 121.5,-54.9743 121.5,-46.4166"/>
<polygon fill="#000000" stroke="#000000" points="125.0001,-46.4132 121.5,-36.4133 118.0001,-46.4133 125.0001,-46.4132"/>
<g id="a_edge8&#45;headlabel"><a xlink:href="dir_000247_000077.html" target="_top" xlink:title="2">
<text text-anchor="middle" x="127.8393" y="-47.5079" font-family="Helvetica,sans-Serif" font-size="10.00" fill="#000000">2</text>
</a>
</g>
</g>
<!-- dir_047746f9f311f49446db9474b7431d0d&#45;&gt;dir_f511f1e9c03c071966ae594f00bbc5e0 -->
<g id="edge9" class="edge">
<title>dir_047746f9f311f49446db9474b7431d0d&#45;&gt;dir_f511f1e9c03c071966ae594f00bbc5e0</title>
<path fill="none" stroke="#000000" d="M131.5678,-108.4133C134.0251,-116.1442 136.2715,-125.3097 137.8506,-133.8545"/>
<polygon fill="#000000" stroke="#000000" points="134.408,-134.4943 139.4149,-143.8314 141.3235,-133.4099 134.408,-134.4943"/>
<g id="a_edge9&#45;headlabel"><a xlink:href="dir_000247_000140.html" target="_top" xlink:title="2">
<text text-anchor="middle" x="131.0463" y="-128.8828" font-family="Helvetica,sans-Serif" font-size="10.00" fill="#000000">2</text>
</a>
</g>
</g>
<!-- dir_7924ba4398ae4560cd37376e44666c6d&#45;&gt;dir_4ab6b4cc6a7edbff49100e9123df213f -->
<g id="edge10" class="edge">
<title>dir_7924ba4398ae4560cd37376e44666c6d&#45;&gt;dir_4ab6b4cc6a7edbff49100e9123df213f</title>
<path fill="none" stroke="#000000" d="M103.6047,-36.0224C94.7808,-45.8857 84.7233,-58.7699 78.5,-72 57.8597,-115.8795 49.6573,-172.2962 46.4636,-205.6589"/>
<polygon fill="#000000" stroke="#000000" points="42.9757,-205.3694 45.5933,-215.6358 49.9492,-205.9778 42.9757,-205.3694"/>
<g id="a_edge10&#45;headlabel"><a xlink:href="dir_000077_000027.html" target="_top" xlink:title="2">
<text text-anchor="middle" x="40.4595" y="-199.0417" font-family="Helvetica,sans-Serif" font-size="10.00" fill="#000000">2</text>
</a>
</g>
</g>
<!-- dir_7924ba4398ae4560cd37376e44666c6d&#45;&gt;dir_f511f1e9c03c071966ae594f00bbc5e0 -->
<g id="edge11" class="edge">
<title>dir_7924ba4398ae4560cd37376e44666c6d&#45;&gt;dir_f511f1e9c03c071966ae594f00bbc5e0</title>
<path fill="none" stroke="#000000" d="M140.9956,-36.0337C150.0103,-45.7106 159.7551,-58.4243 164.5,-72 171.8334,-92.9818 163.7126,-117.1233 154.5105,-135.1178"/>
<polygon fill="#000000" stroke="#000000" points="151.4233,-133.4683 149.676,-143.9181 157.5585,-136.8388 151.4233,-133.4683"/>
<g id="a_edge11&#45;headlabel"><a xlink:href="dir_000077_000140.html" target="_top" xlink:title="2">
<text text-anchor="middle" x="150.6655" y="-126.4508" font-family="Helvetica,sans-Serif" font-size="10.00" fill="#000000">2</text>
</a>
</g>
</g>
<!-- dir_f511f1e9c03c071966ae594f00bbc5e0&#45;&gt;dir_4e2a5e5ba58223c96ff5b40c7fcc0e28 -->
<g id="edge22" class="edge">
<title>dir_f511f1e9c03c071966ae594f00bbc5e0&#45;&gt;dir_4e2a5e5ba58223c96ff5b40c7fcc0e28</title>
<path fill="none" stroke="#000000" d="M138.8985,-180.0005C140.893,-198.7265 145.6085,-228.534 156.5,-252 161.0752,-261.8573 167.7453,-271.5667 174.4284,-279.9746"/>
<polygon fill="#000000" stroke="#000000" points="171.9477,-282.465 181.0386,-287.906 177.325,-277.9833 171.9477,-282.465"/>
<g id="a_edge22&#45;headlabel"><a xlink:href="dir_000140_000163.html" target="_top" xlink:title="6">
<text text-anchor="middle" x="167.4653" y="-279.0214" font-family="Helvetica,sans-Serif" font-size="10.00" fill="#000000">6</text>
</a>
</g>
</g>
<!-- dir_f511f1e9c03c071966ae594f00bbc5e0&#45;&gt;dir_4ab6b4cc6a7edbff49100e9123df213f -->
<g id="edge19" class="edge">
<title>dir_f511f1e9c03c071966ae594f00bbc5e0&#45;&gt;dir_4ab6b4cc6a7edbff49100e9123df213f</title>
<path fill="none" stroke="#000000" d="M119.9915,-180.1628C109.3006,-189.1154 95.3501,-200.0374 82.3125,-209.6982"/>
<polygon fill="#000000" stroke="#000000" points="79.9289,-207.1051 73.9202,-215.8314 84.0591,-212.7568 79.9289,-207.1051"/>
<g id="a_edge19&#45;headlabel"><a xlink:href="dir_000140_000027.html" target="_top" xlink:title="2">
<text text-anchor="middle" x="81.1558" y="-200.1919" font-family="Helvetica,sans-Serif" font-size="10.00" fill="#000000">2</text>
</a>
</g>
</g>
<!-- dir_f511f1e9c03c071966ae594f00bbc5e0&#45;&gt;dir_183e7c4434404fe9096e1bd8673e1fcf -->
<g id="edge20" class="edge">
<title>dir_f511f1e9c03c071966ae594f00bbc5e0&#45;&gt;dir_183e7c4434404fe9096e1bd8673e1fcf</title>
<path fill="none" stroke="#000000" d="M164.5716,-145.4817C180.4478,-135.7946 200.7378,-123.4142 218.1215,-112.8072"/>
<polygon fill="#000000" stroke="#000000" points="220.1951,-115.6421 226.9084,-107.4457 216.549,-109.6666 220.1951,-115.6421"/>
<g id="a_edge20&#45;headlabel"><a xlink:href="dir_000140_000080.html" target="_top" xlink:title="1">
<text text-anchor="middle" x="218.6054" y="-117.4381" font-family="Helvetica,sans-Serif" font-size="10.00" fill="#000000">1</text>
</a>
</g>
</g>
<!-- dir_f511f1e9c03c071966ae594f00bbc5e0&#45;&gt;dir_047746f9f311f49446db9474b7431d0d -->
<g id="edge21" class="edge">
<title>dir_f511f1e9c03c071966ae594f00bbc5e0&#45;&gt;dir_047746f9f311f49446db9474b7431d0d</title>
<path fill="none" stroke="#000000" d="M127.5101,-143.8314C125.0485,-136.131 122.7928,-126.9743 121.1997,-118.4166"/>
<polygon fill="#000000" stroke="#000000" points="124.6367,-117.7428 119.6158,-108.4133 117.7229,-118.8376 124.6367,-117.7428"/>
<g id="a_edge21&#45;headlabel"><a xlink:href="dir_000140_000247.html" target="_top" xlink:title="4">
<text text-anchor="middle" x="128.0031" y="-118.3492" font-family="Helvetica,sans-Serif" font-size="10.00" fill="#000000">4</text>
</a>
</g>
</g>
</g>
</svg>
