<?xml version="1.0" encoding="UTF-8" standalone="no"?>
<!DOCTYPE svg PUBLIC "-//W3C//DTD SVG 1.1//EN"
 "http://www.w3.org/Graphics/SVG/1.1/DTD/svg11.dtd">
<!-- Generated by graphviz version 2.40.1 (20161225.0304)
 -->
<!-- Title: /home/travis/build/AliceO2Group/AliceO2/Detectors/MUON/MID/Workflow/src Pages: 1 -->
<!--zoomable 439 -->
<svg id="main" version="1.1" xmlns="http://www.w3.org/2000/svg" xmlns:xlink="http://www.w3.org/1999/xlink" xml:space="preserve" onload="init(evt)">
<style type="text/css"><![CDATA[
.edge:hover path { stroke: red; }
.edge:hover polygon { stroke: red; fill: red; }
]]></style>
<script type="text/javascript"><![CDATA[
var edges = document.getElementsByTagName('g');
if (edges && edges.length) {
  for (var i=0;i<edges.length;i++) {
    if (edges[i].id.substr(0,4)=='edge') {
      edges[i].setAttribute('class','edge');
    }
  }
}
]]></script>
        <defs>
                <circle id="rim" cx="0" cy="0" r="7"/>
                <circle id="rim2" cx="0" cy="0" r="3.5"/>
                <g id="zoomPlus">
                        <use xlink:href="#rim" fill="#404040">
                                <set attributeName="fill" to="#808080" begin="zoomplus.mouseover" end="zoomplus.mouseout"/>
                        </use>
                        <path d="M-4,0h8M0,-4v8" fill="none" stroke="white" stroke-width="1.5" pointer-events="none"/>
                </g>
                <g id="zoomMin">
                        <use xlink:href="#rim" fill="#404040">
                                <set attributeName="fill" to="#808080" begin="zoomminus.mouseover" end="zoomminus.mouseout"/>
                        </use>
                        <path d="M-4,0h8" fill="none" stroke="white" stroke-width="1.5" pointer-events="none"/>
                </g>
                <g id="dirArrow">
                        <path fill="none" stroke="white" stroke-width="1.5" d="M0,-3.0v7 M-2.5,-0.5L0,-3.0L2.5,-0.5"/>
                </g>
               <g id="resetDef">
                       <use xlink:href="#rim2" fill="#404040">
                               <set attributeName="fill" to="#808080" begin="reset.mouseover" end="reset.mouseout"/>
                       </use>
               </g>
        </defs>

<script type="text/javascript">
var viewWidth = 514;
var viewHeight = 439;
var sectionId = 'dynsection-0';
</script>
<script xlink:href="svgpan.js"/>
<svg id="graph" class="graph">
<g id="viewport">
<title>/home/travis/build/AliceO2Group/AliceO2/Detectors/MUON/MID/Workflow/src</title>
<g id="clust1" class="cluster">
<title>clusterdir_541a9f579a56d3c8f641580c9f97913d</title>
<g id="a_clust1"><a xlink:href="dir_541a9f579a56d3c8f641580c9f97913d.html" target="_top" xlink:title="Workflow">
<polygon fill="#ddddee" stroke="#000000" points="170,-352 170,-423 240,-423 240,-352 170,-352"/>
<text text-anchor="middle" x="205" y="-411" font-family="Helvetica,sans-Serif" font-size="10.00" fill="#000000">Workflow</text>
</a>
</g>
</g>
<!-- dir_d175ccbdd0bad50605561880a8518417 -->
<g id="node1" class="node">
<title>dir_d175ccbdd0bad50605561880a8518417</title>
<g id="a_node1"><a xlink:href="dir_d175ccbdd0bad50605561880a8518417.html" target="_top" xlink:title="src">
<polygon fill="#eeeeff" stroke="#000000" points="232,-396 178,-396 178,-360 232,-360 232,-396"/>
<text text-anchor="middle" x="205" y="-375.5" font-family="Helvetica,sans-Serif" font-size="10.00" fill="#000000">src</text>
</a>
</g>
</g>
<!-- dir_4ab6b4cc6a7edbff49100e9123df213f -->
<g id="node2" class="node">
<title>dir_4ab6b4cc6a7edbff49100e9123df213f</title>
<g id="a_node2"><a xlink:href="dir_4ab6b4cc6a7edbff49100e9123df213f.html" target="_top" xlink:title="Common">
<polygon fill="none" stroke="#ff0000" points="185.5,-252 124.5,-252 124.5,-216 185.5,-216 185.5,-252"/>
<text text-anchor="middle" x="155" y="-231.5" font-family="Helvetica,sans-Serif" font-size="10.00" fill="#000000">Common</text>
</a>
</g>
</g>
<!-- dir_d175ccbdd0bad50605561880a8518417&#45;&gt;dir_4ab6b4cc6a7edbff49100e9123df213f -->
<g id="edge21" class="edge">
<title>dir_d175ccbdd0bad50605561880a8518417&#45;&gt;dir_4ab6b4cc6a7edbff49100e9123df213f</title>
<path fill="none" stroke="#000000" d="M189.8333,-359.6324C182.3954,-349.6747 173.9857,-336.8101 169,-324 161.3172,-304.2599 157.8414,-280.5356 156.2734,-262.4017"/>
<polygon fill="#000000" stroke="#000000" points="159.7468,-261.9046 155.5382,-252.1816 152.7648,-262.407 159.7468,-261.9046"/>
<g id="a_edge21&#45;headlabel"><a xlink:href="dir_000402_000027.html" target="_top" xlink:title="3">
<text text-anchor="middle" x="162.8366" y="-262.7863" font-family="Helvetica,sans-Serif" font-size="10.00" fill="#000000">3</text>
</a>
</g>
</g>
<!-- dir_754f2fe7806627988f6bd801b7f2fe5b -->
<g id="node3" class="node">
<title>dir_754f2fe7806627988f6bd801b7f2fe5b</title>
<g id="a_node3"><a xlink:href="dir_754f2fe7806627988f6bd801b7f2fe5b.html" target="_top" xlink:title="Clustering">
<polygon fill="none" stroke="#ff0000" points="354,-252 288,-252 288,-216 354,-216 354,-252"/>
<text text-anchor="middle" x="321" y="-231.5" font-family="Helvetica,sans-Serif" font-size="10.00" fill="#000000">Clustering</text>
</a>
</g>
</g>
<!-- dir_d175ccbdd0bad50605561880a8518417&#45;&gt;dir_754f2fe7806627988f6bd801b7f2fe5b -->
<g id="edge22" class="edge">
<title>dir_d175ccbdd0bad50605561880a8518417&#45;&gt;dir_754f2fe7806627988f6bd801b7f2fe5b</title>
<path fill="none" stroke="#000000" d="M232.1672,-360.8285C245.9027,-351.1981 262.1298,-338.2654 274,-324 289.65,-305.1921 302.1464,-280.3209 310.308,-261.4907"/>
<polygon fill="#000000" stroke="#000000" points="313.5398,-262.8344 314.1747,-252.2586 307.0832,-260.1301 313.5398,-262.8344"/>
<g id="a_edge22&#45;headlabel"><a xlink:href="dir_000402_000416.html" target="_top" xlink:title="5">
<text text-anchor="middle" x="314.7701" y="-264.7467" font-family="Helvetica,sans-Serif" font-size="10.00" fill="#000000">5</text>
</a>
</g>
</g>
<!-- dir_37c90836491b695b472bf98d1be8336b -->
<g id="node4" class="node">
<title>dir_37c90836491b695b472bf98d1be8336b</title>
<g id="a_node4"><a xlink:href="dir_37c90836491b695b472bf98d1be8336b.html" target="_top" xlink:title="Base">
<polygon fill="none" stroke="#ff0000" points="189,-36 135,-36 135,0 189,0 189,-36"/>
<text text-anchor="middle" x="162" y="-15.5" font-family="Helvetica,sans-Serif" font-size="10.00" fill="#000000">Base</text>
</a>
</g>
</g>
<!-- dir_d175ccbdd0bad50605561880a8518417&#45;&gt;dir_37c90836491b695b472bf98d1be8336b -->
<g id="edge23" class="edge">
<title>dir_d175ccbdd0bad50605561880a8518417&#45;&gt;dir_37c90836491b695b472bf98d1be8336b</title>
<path fill="none" stroke="#000000" d="M177.8672,-375.7177C142.3584,-371.3892 80.0655,-359.0103 41,-324 8.2666,-294.6644 0,-277.9551 0,-234 0,-234 0,-234 0,-162 0,-95.2873 77.6935,-51.914 125.4713,-31.5486"/>
<polygon fill="#000000" stroke="#000000" points="126.9742,-34.7148 134.8848,-27.667 124.3057,-28.2434 126.9742,-34.7148"/>
<g id="a_edge23&#45;headlabel"><a xlink:href="dir_000402_000276.html" target="_top" xlink:title="2">
<text text-anchor="middle" x="124.7333" y="-36.21" font-family="Helvetica,sans-Serif" font-size="10.00" fill="#000000">2</text>
</a>
</g>
</g>
<!-- dir_2bb5eb61d33140858f79122ad9ee2c7f -->
<g id="node5" class="node">
<title>dir_2bb5eb61d33140858f79122ad9ee2c7f</title>
<g id="a_node5"><a xlink:href="dir_2bb5eb61d33140858f79122ad9ee2c7f.html" target="_top" xlink:title="include">
<polygon fill="none" stroke="#ff0000" points="122,-324 68,-324 68,-288 122,-288 122,-324"/>
<text text-anchor="middle" x="95" y="-303.5" font-family="Helvetica,sans-Serif" font-size="10.00" fill="#000000">include</text>
</a>
</g>
</g>
<!-- dir_d175ccbdd0bad50605561880a8518417&#45;&gt;dir_2bb5eb61d33140858f79122ad9ee2c7f -->
<g id="edge24" class="edge">
<title>dir_d175ccbdd0bad50605561880a8518417&#45;&gt;dir_2bb5eb61d33140858f79122ad9ee2c7f</title>
<path fill="none" stroke="#000000" d="M177.809,-360.2022C163.6622,-350.9425 146.1843,-339.5025 130.937,-329.5224"/>
<polygon fill="#000000" stroke="#000000" points="132.5433,-326.3907 122.2594,-323.8425 128.7097,-332.2476 132.5433,-326.3907"/>
<g id="a_edge24&#45;headlabel"><a xlink:href="dir_000402_000380.html" target="_top" xlink:title="21">
<text text-anchor="middle" x="137.1058" y="-323.4837" font-family="Helvetica,sans-Serif" font-size="10.00" fill="#000000">21</text>
</a>
</g>
</g>
<!-- dir_55bb03bc4479a61c5f6db133927cb48c -->
<g id="node6" class="node">
<title>dir_55bb03bc4479a61c5f6db133927cb48c</title>
<g id="a_node6"><a xlink:href="dir_55bb03bc4479a61c5f6db133927cb48c.html" target="_top" xlink:title="Raw">
<polygon fill="none" stroke="#ff0000" points="232,-324 178,-324 178,-288 232,-288 232,-324"/>
<text text-anchor="middle" x="205" y="-303.5" font-family="Helvetica,sans-Serif" font-size="10.00" fill="#000000">Raw</text>
</a>
</g>
</g>
<!-- dir_d175ccbdd0bad50605561880a8518417&#45;&gt;dir_55bb03bc4479a61c5f6db133927cb48c -->
<g id="edge25" class="edge">
<title>dir_d175ccbdd0bad50605561880a8518417&#45;&gt;dir_55bb03bc4479a61c5f6db133927cb48c</title>
<path fill="none" stroke="#000000" d="M205,-359.8314C205,-352.131 205,-342.9743 205,-334.4166"/>
<polygon fill="#000000" stroke="#000000" points="208.5001,-334.4132 205,-324.4133 201.5001,-334.4133 208.5001,-334.4132"/>
<g id="a_edge25&#45;headlabel"><a xlink:href="dir_000402_000419.html" target="_top" xlink:title="4">
<text text-anchor="middle" x="211.3393" y="-335.5079" font-family="Helvetica,sans-Serif" font-size="10.00" fill="#000000">4</text>
</a>
</g>
</g>
<!-- dir_2810eaf0225063d73e08d8eeeb8a37b8 -->
<g id="node7" class="node">
<title>dir_2810eaf0225063d73e08d8eeeb8a37b8</title>
<g id="a_node7"><a xlink:href="dir_2810eaf0225063d73e08d8eeeb8a37b8.html" target="_top" xlink:title="Simulation">
<polygon fill="none" stroke="#ff0000" points="411.5,-324 342.5,-324 342.5,-288 411.5,-288 411.5,-324"/>
<text text-anchor="middle" x="377" y="-303.5" font-family="Helvetica,sans-Serif" font-size="10.00" fill="#000000">Simulation</text>
</a>
</g>
</g>
<!-- dir_d175ccbdd0bad50605561880a8518417&#45;&gt;dir_2810eaf0225063d73e08d8eeeb8a37b8 -->
<g id="edge26" class="edge">
<title>dir_d175ccbdd0bad50605561880a8518417&#45;&gt;dir_2810eaf0225063d73e08d8eeeb8a37b8</title>
<path fill="none" stroke="#000000" d="M232.2539,-366.5914C259.295,-355.2719 301.1793,-337.7389 332.9487,-324.4401"/>
<polygon fill="#000000" stroke="#000000" points="334.5829,-327.5503 342.4558,-320.4603 331.8799,-321.0932 334.5829,-327.5503"/>
<g id="a_edge26&#45;headlabel"><a xlink:href="dir_000402_000181.html" target="_top" xlink:title="9">
<text text-anchor="middle" x="332.3634" y="-329.0574" font-family="Helvetica,sans-Serif" font-size="10.00" fill="#000000">9</text>
</a>
</g>
</g>
<!-- dir_c6781640d5720511e35c6e7f87460ee7 -->
<g id="node8" class="node">
<title>dir_c6781640d5720511e35c6e7f87460ee7</title>
<g id="a_node8"><a xlink:href="dir_c6781640d5720511e35c6e7f87460ee7.html" target="_top" xlink:title="Tracking">
<polygon fill="none" stroke="#ff0000" points="505.5,-252 448.5,-252 448.5,-216 505.5,-216 505.5,-252"/>
<text text-anchor="middle" x="477" y="-231.5" font-family="Helvetica,sans-Serif" font-size="10.00" fill="#000000">Tracking</text>
</a>
</g>
</g>
<!-- dir_d175ccbdd0bad50605561880a8518417&#45;&gt;dir_c6781640d5720511e35c6e7f87460ee7 -->
<g id="edge27" class="edge">
<title>dir_d175ccbdd0bad50605561880a8518417&#45;&gt;dir_c6781640d5720511e35c6e7f87460ee7</title>
<path fill="none" stroke="#000000" d="M232.328,-373.789C283.3919,-365.5023 390.8505,-345.9634 421,-324 442.4749,-308.3559 457.5388,-281.7321 466.5926,-261.4887"/>
<polygon fill="#000000" stroke="#000000" points="469.8752,-262.7126 470.5562,-252.1397 463.4305,-259.9803 469.8752,-262.7126"/>
<g id="a_edge27&#45;headlabel"><a xlink:href="dir_000402_000494.html" target="_top" xlink:title="2">
<text text-anchor="middle" x="471.0863" y="-264.6303" font-family="Helvetica,sans-Serif" font-size="10.00" fill="#000000">2</text>
</a>
</g>
</g>
<!-- dir_bcbb2cf9a3d3d83e5515c82071a07177 -->
<g id="node9" class="node">
<title>dir_bcbb2cf9a3d3d83e5515c82071a07177</title>
<g id="a_node9"><a xlink:href="dir_bcbb2cf9a3d3d83e5515c82071a07177.html" target="_top" xlink:title="Framework">
<polygon fill="none" stroke="#ff0000" points="99.5,-180 28.5,-180 28.5,-144 99.5,-144 99.5,-180"/>
<text text-anchor="middle" x="64" y="-159.5" font-family="Helvetica,sans-Serif" font-size="10.00" fill="#000000">Framework</text>
</a>
</g>
</g>
<!-- dir_d175ccbdd0bad50605561880a8518417&#45;&gt;dir_bcbb2cf9a3d3d83e5515c82071a07177 -->
<g id="edge28" class="edge">
<title>dir_d175ccbdd0bad50605561880a8518417&#45;&gt;dir_bcbb2cf9a3d3d83e5515c82071a07177</title>
<path fill="none" stroke="#000000" d="M177.7122,-371.8256C139.4328,-362.5482 72.8992,-343.9603 59,-324 31.3129,-284.2394 43.1329,-224.6764 53.8401,-189.9373"/>
<polygon fill="#000000" stroke="#000000" points="57.3071,-190.5949 57.0824,-180.0025 50.6525,-188.4232 57.3071,-190.5949"/>
<g id="a_edge28&#45;headlabel"><a xlink:href="dir_000402_000013.html" target="_top" xlink:title="50">
<text text-anchor="middle" x="58.8911" y="-192.393" font-family="Helvetica,sans-Serif" font-size="10.00" fill="#000000">50</text>
</a>
</g>
</g>
<!-- dir_2171f7ec022c5423887b07c69b2f5b48 -->
<g id="node10" class="node">
<title>dir_2171f7ec022c5423887b07c69b2f5b48</title>
<g id="a_node10"><a xlink:href="dir_2171f7ec022c5423887b07c69b2f5b48.html" target="_top" xlink:title="DataFormats">
<polygon fill="none" stroke="#ff0000" points="236,-108 156,-108 156,-72 236,-72 236,-108"/>
<text text-anchor="middle" x="196" y="-87.5" font-family="Helvetica,sans-Serif" font-size="10.00" fill="#000000">DataFormats</text>
</a>
</g>
</g>
<!-- dir_d175ccbdd0bad50605561880a8518417&#45;&gt;dir_2171f7ec022c5423887b07c69b2f5b48 -->
<g id="edge29" class="edge">
<title>dir_d175ccbdd0bad50605561880a8518417&#45;&gt;dir_2171f7ec022c5423887b07c69b2f5b48</title>
<path fill="none" stroke="#000000" d="M220.9905,-359.9169C228.6538,-350.0371 237.0166,-337.1563 241,-324 263.1234,-250.9315 229.9661,-161.6097 209.7321,-117.438"/>
<polygon fill="#000000" stroke="#000000" points="212.8176,-115.7748 205.3924,-108.2172 206.484,-118.7557 212.8176,-115.7748"/>
<g id="a_edge29&#45;headlabel"><a xlink:href="dir_000402_000076.html" target="_top" xlink:title="21">
<text text-anchor="middle" x="216.9172" y="-115.3182" font-family="Helvetica,sans-Serif" font-size="10.00" fill="#000000">21</text>
</a>
</g>
</g>
<!-- dir_4ab6b4cc6a7edbff49100e9123df213f&#45;&gt;dir_bcbb2cf9a3d3d83e5515c82071a07177 -->
<g id="edge1" class="edge">
<title>dir_4ab6b4cc6a7edbff49100e9123df213f&#45;&gt;dir_bcbb2cf9a3d3d83e5515c82071a07177</title>
<path fill="none" stroke="#000000" d="M126.0845,-215.8314C114.128,-207.0485 100.466,-196.3712 88.9526,-186.8489"/>
<polygon fill="#000000" stroke="#000000" points="90.9097,-183.9215 81.004,-180.1628 86.4037,-189.2784 90.9097,-183.9215"/>
<g id="a_edge1&#45;headlabel"><a xlink:href="dir_000027_000013.html" target="_top" xlink:title="2">
<text text-anchor="middle" x="95.4882" y="-181.5625" font-family="Helvetica,sans-Serif" font-size="10.00" fill="#000000">2</text>
</a>
</g>
</g>
<!-- dir_4ab6b4cc6a7edbff49100e9123df213f&#45;&gt;dir_2171f7ec022c5423887b07c69b2f5b48 -->
<g id="edge2" class="edge">
<title>dir_4ab6b4cc6a7edbff49100e9123df213f&#45;&gt;dir_2171f7ec022c5423887b07c69b2f5b48</title>
<path fill="none" stroke="#000000" d="M155.5195,-215.7623C160.0928,-190.9846 172.5089,-146.4714 182.697,-117.5939"/>
<polygon fill="#000000" stroke="#000000" points="186.0255,-118.6832 186.1912,-108.0896 179.4555,-116.2677 186.0255,-118.6832"/>
<g id="a_edge2&#45;headlabel"><a xlink:href="dir_000027_000076.html" target="_top" xlink:title="2">
<text text-anchor="middle" x="187.4501" y="-120.5367" font-family="Helvetica,sans-Serif" font-size="10.00" fill="#000000">2</text>
</a>
</g>
</g>
<!-- dir_754f2fe7806627988f6bd801b7f2fe5b&#45;&gt;dir_2171f7ec022c5423887b07c69b2f5b48 -->
<g id="edge3" class="edge">
<title>dir_754f2fe7806627988f6bd801b7f2fe5b&#45;&gt;dir_2171f7ec022c5423887b07c69b2f5b48</title>
<path fill="none" stroke="#000000" d="M314.5657,-215.8805C307.0405,-196.5125 293.1327,-165.6715 274,-144 263.8148,-132.4633 250.6737,-122.1545 238.0911,-113.714"/>
<polygon fill="#000000" stroke="#000000" points="239.8125,-110.6593 229.5126,-108.1769 236.0164,-116.5406 239.8125,-110.6593"/>
<g id="a_edge3&#45;headlabel"><a xlink:href="dir_000416_000076.html" target="_top" xlink:title="5">
<text text-anchor="middle" x="244.3724" y="-107.7231" font-family="Helvetica,sans-Serif" font-size="10.00" fill="#000000">5</text>
</a>
</g>
</g>
<!-- dir_37c90836491b695b472bf98d1be8336b&#45;&gt;dir_4ab6b4cc6a7edbff49100e9123df213f -->
<g id="edge4" class="edge">
<title>dir_37c90836491b695b472bf98d1be8336b&#45;&gt;dir_4ab6b4cc6a7edbff49100e9123df213f</title>
<path fill="none" stroke="#000000" d="M155.6052,-36.2353C152.3154,-46.5813 148.6558,-59.8526 147,-72 140.6445,-118.6256 145.9953,-173.4094 150.4774,-205.8328"/>
<polygon fill="#000000" stroke="#000000" points="147.0427,-206.5354 151.946,-215.9273 153.9698,-205.5275 147.0427,-206.5354"/>
<g id="a_edge4&#45;headlabel"><a xlink:href="dir_000276_000027.html" target="_top" xlink:title="16">
<text text-anchor="middle" x="143.7156" y="-200.8869" font-family="Helvetica,sans-Serif" font-size="10.00" fill="#000000">16</text>
</a>
</g>
</g>
<!-- dir_37c90836491b695b472bf98d1be8336b&#45;&gt;dir_bcbb2cf9a3d3d83e5515c82071a07177 -->
<g id="edge5" class="edge">
<title>dir_37c90836491b695b472bf98d1be8336b&#45;&gt;dir_bcbb2cf9a3d3d83e5515c82071a07177</title>
<path fill="none" stroke="#000000" d="M144.0519,-36.1459C134.5405,-46.247 122.9976,-59.3129 114,-72 99.8236,-91.9894 86.4908,-116.3816 77.164,-134.7274"/>
<polygon fill="#000000" stroke="#000000" points="74.012,-133.2052 72.6686,-143.7145 80.2725,-136.3367 74.012,-133.2052"/>
<g id="a_edge5&#45;headlabel"><a xlink:href="dir_000276_000013.html" target="_top" xlink:title="1">
<text text-anchor="middle" x="73.0807" y="-126.2202" font-family="Helvetica,sans-Serif" font-size="10.00" fill="#000000">1</text>
</a>
</g>
</g>
<!-- dir_37c90836491b695b472bf98d1be8336b&#45;&gt;dir_2171f7ec022c5423887b07c69b2f5b48 -->
<g id="edge6" class="edge">
<title>dir_37c90836491b695b472bf98d1be8336b&#45;&gt;dir_2171f7ec022c5423887b07c69b2f5b48</title>
<path fill="none" stroke="#000000" d="M176.6712,-36.4133C181.1576,-44.3141 185.7985,-53.7132 189.5579,-62.417"/>
<polygon fill="#000000" stroke="#000000" points="186.3734,-63.8778 193.3728,-71.8314 192.861,-61.2489 186.3734,-63.8778"/>
<g id="a_edge6&#45;headlabel"><a xlink:href="dir_000276_000076.html" target="_top" xlink:title="10">
<text text-anchor="middle" x="182.3921" y="-59.1125" font-family="Helvetica,sans-Serif" font-size="10.00" fill="#000000">10</text>
</a>
</g>
</g>
<!-- dir_2bb5eb61d33140858f79122ad9ee2c7f&#45;&gt;dir_bcbb2cf9a3d3d83e5515c82071a07177 -->
<g id="edge7" class="edge">
<title>dir_2bb5eb61d33140858f79122ad9ee2c7f&#45;&gt;dir_bcbb2cf9a3d3d83e5515c82071a07177</title>
<path fill="none" stroke="#000000" d="M91.0738,-287.7623C85.763,-263.0928 76.2406,-218.8598 70.022,-189.9731"/>
<polygon fill="#000000" stroke="#000000" points="73.4205,-189.129 67.8943,-180.0896 66.5773,-190.6023 73.4205,-189.129"/>
<g id="a_edge7&#45;headlabel"><a xlink:href="dir_000380_000013.html" target="_top" xlink:title="10">
<text text-anchor="middle" x="76.9527" y="-189.5456" font-family="Helvetica,sans-Serif" font-size="10.00" fill="#000000">10</text>
</a>
</g>
</g>
<!-- dir_55bb03bc4479a61c5f6db133927cb48c&#45;&gt;dir_4ab6b4cc6a7edbff49100e9123df213f -->
<g id="edge8" class="edge">
<title>dir_55bb03bc4479a61c5f6db133927cb48c&#45;&gt;dir_4ab6b4cc6a7edbff49100e9123df213f</title>
<path fill="none" stroke="#000000" d="M192.3829,-287.8314C186.6828,-279.6232 179.8337,-269.7606 173.5641,-260.7323"/>
<polygon fill="#000000" stroke="#000000" points="176.3658,-258.6306 167.787,-252.4133 170.6162,-262.6234 176.3658,-258.6306"/>
<g id="a_edge8&#45;headlabel"><a xlink:href="dir_000419_000027.html" target="_top" xlink:title="1">
<text text-anchor="middle" x="180.7482" y="-257.4636" font-family="Helvetica,sans-Serif" font-size="10.00" fill="#000000">1</text>
</a>
</g>
</g>
<!-- dir_55bb03bc4479a61c5f6db133927cb48c&#45;&gt;dir_2171f7ec022c5423887b07c69b2f5b48 -->
<g id="edge9" class="edge">
<title>dir_55bb03bc4479a61c5f6db133927cb48c&#45;&gt;dir_2171f7ec022c5423887b07c69b2f5b48</title>
<path fill="none" stroke="#000000" d="M204.427,-287.5311C203.4689,-257.4516 201.4077,-196.0112 199,-144 198.6196,-135.7828 198.1482,-126.8655 197.6927,-118.6896"/>
<polygon fill="#000000" stroke="#000000" points="201.1748,-118.2749 197.1119,-108.4901 194.1861,-118.6729 201.1748,-118.2749"/>
<g id="a_edge9&#45;headlabel"><a xlink:href="dir_000419_000076.html" target="_top" xlink:title="17">
<text text-anchor="middle" x="204.2138" y="-119.2023" font-family="Helvetica,sans-Serif" font-size="10.00" fill="#000000">17</text>
</a>
</g>
</g>
<!-- dir_2810eaf0225063d73e08d8eeeb8a37b8&#45;&gt;dir_4ab6b4cc6a7edbff49100e9123df213f -->
<g id="edge10" class="edge">
<title>dir_2810eaf0225063d73e08d8eeeb8a37b8&#45;&gt;dir_4ab6b4cc6a7edbff49100e9123df213f</title>
<path fill="none" stroke="#000000" d="M342.3125,-294.75C302.4597,-281.8248 237.1696,-260.6496 195.1508,-247.0219"/>
<polygon fill="#000000" stroke="#000000" points="196.1108,-243.6538 185.5188,-243.898 193.9512,-250.3124 196.1108,-243.6538"/>
<g id="a_edge10&#45;headlabel"><a xlink:href="dir_000181_000027.html" target="_top" xlink:title="6">
<text text-anchor="middle" x="200.406" y="-239.5619" font-family="Helvetica,sans-Serif" font-size="10.00" fill="#000000">6</text>
</a>
</g>
</g>
<!-- dir_2810eaf0225063d73e08d8eeeb8a37b8&#45;&gt;dir_754f2fe7806627988f6bd801b7f2fe5b -->
<g id="edge11" class="edge">
<title>dir_2810eaf0225063d73e08d8eeeb8a37b8&#45;&gt;dir_754f2fe7806627988f6bd801b7f2fe5b</title>
<path fill="none" stroke="#000000" d="M362.8688,-287.8314C356.4189,-279.5386 348.6555,-269.557 341.5748,-260.4533"/>
<polygon fill="#000000" stroke="#000000" points="344.2236,-258.158 335.3214,-252.4133 338.6981,-262.4556 344.2236,-258.158"/>
<g id="a_edge11&#45;headlabel"><a xlink:href="dir_000181_000416.html" target="_top" xlink:title="5">
<text text-anchor="middle" x="348.6716" y="-256.7523" font-family="Helvetica,sans-Serif" font-size="10.00" fill="#000000">5</text>
</a>
</g>
</g>
<!-- dir_2810eaf0225063d73e08d8eeeb8a37b8&#45;&gt;dir_37c90836491b695b472bf98d1be8336b -->
<g id="edge12" class="edge">
<title>dir_2810eaf0225063d73e08d8eeeb8a37b8&#45;&gt;dir_37c90836491b695b472bf98d1be8336b</title>
<path fill="none" stroke="#000000" d="M381.6185,-287.9645C385.5266,-269.4681 389.4162,-240.0788 382,-216 370.6063,-179.0074 359.1375,-172.55 333,-144 292.713,-99.9944 235.0488,-61.2853 198.0628,-38.7543"/>
<polygon fill="#000000" stroke="#000000" points="199.5018,-35.5355 189.1283,-33.3812 195.8942,-41.5343 199.5018,-35.5355"/>
<g id="a_edge12&#45;headlabel"><a xlink:href="dir_000181_000276.html" target="_top" xlink:title="3">
<text text-anchor="middle" x="204.0455" y="-32.4548" font-family="Helvetica,sans-Serif" font-size="10.00" fill="#000000">3</text>
</a>
</g>
</g>
<!-- dir_2810eaf0225063d73e08d8eeeb8a37b8&#45;&gt;dir_c6781640d5720511e35c6e7f87460ee7 -->
<g id="edge13" class="edge">
<title>dir_2810eaf0225063d73e08d8eeeb8a37b8&#45;&gt;dir_c6781640d5720511e35c6e7f87460ee7</title>
<path fill="none" stroke="#000000" d="M402.2342,-287.8314C414.788,-278.7927 430.1283,-267.7476 443.6391,-258.0198"/>
<polygon fill="#000000" stroke="#000000" points="445.7036,-260.8463 451.7739,-252.1628 441.6134,-255.1655 445.7036,-260.8463"/>
<g id="a_edge13&#45;headlabel"><a xlink:href="dir_000181_000494.html" target="_top" xlink:title="1">
<text text-anchor="middle" x="444.4454" y="-262.7508" font-family="Helvetica,sans-Serif" font-size="10.00" fill="#000000">1</text>
</a>
</g>
</g>
<!-- dir_2810eaf0225063d73e08d8eeeb8a37b8&#45;&gt;dir_2171f7ec022c5423887b07c69b2f5b48 -->
<g id="edge14" class="edge">
<title>dir_2810eaf0225063d73e08d8eeeb8a37b8&#45;&gt;dir_2171f7ec022c5423887b07c69b2f5b48</title>
<path fill="none" stroke="#000000" d="M377.1414,-287.8805C376.6275,-269.0574 373.9224,-239.1717 363,-216 339.5824,-166.3198 285.5587,-131.3668 245.2586,-111.0771"/>
<polygon fill="#000000" stroke="#000000" points="246.6326,-107.853 236.1118,-106.6026 243.5566,-114.1409 246.6326,-107.853"/>
<g id="a_edge14&#45;headlabel"><a xlink:href="dir_000181_000076.html" target="_top" xlink:title="25">
<text text-anchor="middle" x="251.1092" y="-104.3821" font-family="Helvetica,sans-Serif" font-size="10.00" fill="#000000">25</text>
</a>
</g>
</g>
<!-- dir_c6781640d5720511e35c6e7f87460ee7&#45;&gt;dir_2171f7ec022c5423887b07c69b2f5b48 -->
<g id="edge15" class="edge">
<title>dir_c6781640d5720511e35c6e7f87460ee7&#45;&gt;dir_2171f7ec022c5423887b07c69b2f5b48</title>
<path fill="none" stroke="#000000" d="M457.3252,-215.8782C434.7881,-195.9279 396.0474,-164.0326 358,-144 322.3403,-125.2245 278.8729,-111.1626 245.9446,-102.1024"/>
<polygon fill="#000000" stroke="#000000" points="246.6499,-98.6678 236.0841,-99.4516 244.8325,-105.4278 246.6499,-98.6678"/>
<g id="a_edge15&#45;headlabel"><a xlink:href="dir_000494_000076.html" target="_top" xlink:title="8">
<text text-anchor="middle" x="250.8584" y="-94.3591" font-family="Helvetica,sans-Serif" font-size="10.00" fill="#000000">8</text>
</a>
</g>
</g>
<!-- dir_bcbb2cf9a3d3d83e5515c82071a07177&#45;&gt;dir_4ab6b4cc6a7edbff49100e9123df213f -->
<g id="edge16" class="edge">
<title>dir_bcbb2cf9a3d3d83e5515c82071a07177&#45;&gt;dir_4ab6b4cc6a7edbff49100e9123df213f</title>
<path fill="none" stroke="#000000" d="M92.9076,-180.1628C104.8634,-188.9449 118.5254,-199.622 130.0397,-209.1448"/>
<polygon fill="#000000" stroke="#000000" points="128.0835,-212.0729 137.9893,-215.8314 132.5894,-206.7159 128.0835,-212.0729"/>
<g id="a_edge16&#45;headlabel"><a xlink:href="dir_000013_000027.html" target="_top" xlink:title="9">
<text text-anchor="middle" x="123.505" y="-209.4319" font-family="Helvetica,sans-Serif" font-size="10.00" fill="#000000">9</text>
</a>
</g>
</g>
<!-- dir_bcbb2cf9a3d3d83e5515c82071a07177&#45;&gt;dir_2171f7ec022c5423887b07c69b2f5b48 -->
<g id="edge17" class="edge">
<title>dir_bcbb2cf9a3d3d83e5515c82071a07177&#45;&gt;dir_2171f7ec022c5423887b07c69b2f5b48</title>
<path fill="none" stroke="#000000" d="M91.3568,-143.8314C107.639,-134.4516 128.668,-122.9112 147.6344,-112.9244"/>
<polygon fill="#000000" stroke="#000000" points="149.5066,-115.8952 156.7497,-108.1628 146.2656,-109.6907 149.5066,-115.8952"/>
<g id="a_edge17&#45;headlabel"><a xlink:href="dir_000013_000076.html" target="_top" xlink:title="82">
<text text-anchor="middle" x="147.6351" y="-117.5761" font-family="Helvetica,sans-Serif" font-size="10.00" fill="#000000">82</text>
</a>
</g>
</g>
<!-- dir_2171f7ec022c5423887b07c69b2f5b48&#45;&gt;dir_4ab6b4cc6a7edbff49100e9123df213f -->
<g id="edge18" class="edge">
<title>dir_2171f7ec022c5423887b07c69b2f5b48&#45;&gt;dir_4ab6b4cc6a7edbff49100e9123df213f</title>
<path fill="none" stroke="#000000" d="M195.5078,-108.0896C190.9658,-132.7884 178.5609,-177.2933 168.364,-206.2331"/>
<polygon fill="#000000" stroke="#000000" points="165.0264,-205.1687 164.8659,-215.7623 171.5977,-207.581 165.0264,-205.1687"/>
<g id="a_edge18&#45;headlabel"><a xlink:href="dir_000076_000027.html" target="_top" xlink:title="33">
<text text-anchor="middle" x="163.5998" y="-198.3158" font-family="Helvetica,sans-Serif" font-size="10.00" fill="#000000">33</text>
</a>
</g>
</g>
<!-- dir_2171f7ec022c5423887b07c69b2f5b48&#45;&gt;dir_37c90836491b695b472bf98d1be8336b -->
<g id="edge19" class="edge">
<title>dir_2171f7ec022c5423887b07c69b2f5b48&#45;&gt;dir_37c90836491b695b472bf98d1be8336b</title>
<path fill="none" stroke="#000000" d="M181.468,-71.8314C176.9848,-63.9617 172.3365,-54.5712 168.559,-45.8533"/>
<polygon fill="#000000" stroke="#000000" points="171.7291,-44.3575 164.7191,-36.4133 165.245,-46.9951 171.7291,-44.3575"/>
<g id="a_edge19&#45;headlabel"><a xlink:href="dir_000076_000276.html" target="_top" xlink:title="1">
<text text-anchor="middle" x="175.7134" y="-44.1175" font-family="Helvetica,sans-Serif" font-size="10.00" fill="#000000">1</text>
</a>
</g>
</g>
<!-- dir_2171f7ec022c5423887b07c69b2f5b48&#45;&gt;dir_bcbb2cf9a3d3d83e5515c82071a07177 -->
<g id="edge20" class="edge">
<title>dir_2171f7ec022c5423887b07c69b2f5b48&#45;&gt;dir_bcbb2cf9a3d3d83e5515c82071a07177</title>
<path fill="none" stroke="#000000" d="M168.8624,-108.0423C151.4841,-118.0591 128.6348,-130.5693 108.6593,-141.0211"/>
<polygon fill="#000000" stroke="#000000" points="106.9784,-137.9501 99.7137,-145.6621 110.202,-144.1637 106.9784,-137.9501"/>
<g id="a_edge20&#45;headlabel"><a xlink:href="dir_000076_000013.html" target="_top" xlink:title="7">
<text text-anchor="middle" x="108.8617" y="-131.2745" font-family="Helvetica,sans-Serif" font-size="10.00" fill="#000000">7</text>
</a>
</g>
</g>
</g>
</svg>
        <g id="navigator" transform="translate(0 0)" fill="#404254">
                <rect fill="#f2f5e9" fill-opacity="0.5" stroke="#606060" stroke-width=".5" x="0" y="0" width="60" height="60"/>
                <use id="zoomplus" xlink:href="#zoomPlus" x="17" y="9" onmousedown="handleZoom(evt,'in')"/>
                <use id="zoomminus" xlink:href="#zoomMin" x="42" y="9" onmousedown="handleZoom(evt,'out')"/>
                <use id="reset" xlink:href="#resetDef" x="30" y="36" onmousedown="handleReset()"/>
                <g id="arrowUp" xlink:href="#dirArrow" transform="translate(30 24)" onmousedown="handlePan(0,-1)">
                  <use xlink:href="#rim" fill="#404040">
                        <set attributeName="fill" to="#808080" begin="arrowUp.mouseover" end="arrowUp.mouseout"/>
                  </use>
                  <path fill="none" stroke="white" stroke-width="1.5" d="M0,-3.0v7 M-2.5,-0.5L0,-3.0L2.5,-0.5"/>
                </g>
                <g id="arrowRight" xlink:href="#dirArrow" transform="rotate(90) translate(36 -43)" onmousedown="handlePan(1,0)">
                  <use xlink:href="#rim" fill="#404040">
                        <set attributeName="fill" to="#808080" begin="arrowRight.mouseover" end="arrowRight.mouseout"/>
                  </use>
                  <path fill="none" stroke="white" stroke-width="1.5" d="M0,-3.0v7 M-2.5,-0.5L0,-3.0L2.5,-0.5"/>
                </g>
                <g id="arrowDown" xlink:href="#dirArrow" transform="rotate(180) translate(-30 -48)" onmousedown="handlePan(0,1)">
                  <use xlink:href="#rim" fill="#404040">
                        <set attributeName="fill" to="#808080" begin="arrowDown.mouseover" end="arrowDown.mouseout"/>
                  </use>
                  <path fill="none" stroke="white" stroke-width="1.5" d="M0,-3.0v7 M-2.5,-0.5L0,-3.0L2.5,-0.5"/>
                </g>
                <g id="arrowLeft" xlink:href="#dirArrow" transform="rotate(270) translate(-36 17)" onmousedown="handlePan(-1,0)">
                  <use xlink:href="#rim" fill="#404040">
                        <set attributeName="fill" to="#808080" begin="arrowLeft.mouseover" end="arrowLeft.mouseout"/>
                  </use>
                  <path fill="none" stroke="white" stroke-width="1.5" d="M0,-3.0v7 M-2.5,-0.5L0,-3.0L2.5,-0.5"/>
                </g>
        </g>
        <svg viewBox="0 0 15 15" width="100%" height="30px" preserveAspectRatio="xMaxYMin meet">
         <g id="arrow_out" transform="scale(0.3 0.3)">
          <a xlink:href="dir_d175ccbdd0bad50605561880a8518417_dep_org.svg" target="_base">
           <rect id="button" ry="5" rx="5" y="6" x="6" height="38" width="38"
                fill="#f2f5e9" fill-opacity="0.5" stroke="#606060" stroke-width="1.0"/>
           <path id="arrow"
             d="M 11.500037,31.436501 C 11.940474,20.09759 22.043105,11.32322 32.158766,21.979434 L 37.068811,17.246167 C 37.068811,17.246167 37.088388,32 37.088388,32 L 22.160133,31.978069 C 22.160133,31.978069 26.997745,27.140456 26.997745,27.140456 C 18.528582,18.264221 13.291696,25.230495 11.500037,31.436501 z"
             style="fill:#404040;"/>
          </a>
         </g>
        </svg>
</svg>
