<?xml version="1.0" encoding="UTF-8" standalone="no"?>
<!DOCTYPE svg PUBLIC "-//W3C//DTD SVG 1.1//EN"
 "http://www.w3.org/Graphics/SVG/1.1/DTD/svg11.dtd">
<!-- Generated by graphviz version 2.40.1 (20161225.0304)
 -->
<!-- Title: /home/travis/build/AliceO2Group/AliceO2/Detectors/TPC/reconstruction/test Pages: 1 -->
<svg width="144pt" height="367pt"
 viewBox="0.00 0.00 144.18 367.00" xmlns="http://www.w3.org/2000/svg" xmlns:xlink="http://www.w3.org/1999/xlink">
<g id="graph0" class="graph" transform="scale(1 1) rotate(0) translate(4 363)">
<title>/home/travis/build/AliceO2Group/AliceO2/Detectors/TPC/reconstruction/test</title>
<g id="clust1" class="cluster">
<title>clusterdir_a5de047958dd458e809773c6ffaa8478</title>
<g id="a_clust1"><a xlink:href="dir_a5de047958dd458e809773c6ffaa8478.html" target="_top" xlink:title="reconstruction">
<polygon fill="#ddddee" stroke="#000000" points="21.8955,-280 21.8955,-351 107.8955,-351 107.8955,-280 21.8955,-280"/>
<text text-anchor="middle" x="64.8955" y="-339" font-family="Helvetica,sans-Serif" font-size="10.00" fill="#000000">reconstruction</text>
</a>
</g>
</g>
<!-- dir_064d7f478c030df51e47c94b08ab25b1 -->
<g id="node1" class="node">
<title>dir_064d7f478c030df51e47c94b08ab25b1</title>
<g id="a_node1"><a xlink:href="dir_064d7f478c030df51e47c94b08ab25b1.html" target="_top" xlink:title="test">
<polygon fill="#eeeeff" stroke="#000000" points="91.8955,-324 37.8955,-324 37.8955,-288 91.8955,-288 91.8955,-324"/>
<text text-anchor="middle" x="64.8955" y="-303.5" font-family="Helvetica,sans-Serif" font-size="10.00" fill="#000000">test</text>
</a>
</g>
</g>
<!-- dir_677b030cc750909e4cd27413873678d8 -->
<g id="node2" class="node">
<title>dir_677b030cc750909e4cd27413873678d8</title>
<g id="a_node2"><a xlink:href="dir_677b030cc750909e4cd27413873678d8.html" target="_top" xlink:title="base">
<polygon fill="none" stroke="#ff0000" points="64.8955,-180 10.8955,-180 10.8955,-144 64.8955,-144 64.8955,-180"/>
<text text-anchor="middle" x="37.8955" y="-159.5" font-family="Helvetica,sans-Serif" font-size="10.00" fill="#000000">base</text>
</a>
</g>
</g>
<!-- dir_064d7f478c030df51e47c94b08ab25b1&#45;&gt;dir_677b030cc750909e4cd27413873678d8 -->
<g id="edge6" class="edge">
<title>dir_064d7f478c030df51e47c94b08ab25b1&#45;&gt;dir_677b030cc750909e4cd27413873678d8</title>
<path fill="none" stroke="#000000" d="M61.476,-287.7623C56.8504,-263.0928 48.5567,-218.8598 43.1405,-189.9731"/>
<polygon fill="#000000" stroke="#000000" points="46.5704,-189.2733 41.2873,-180.0896 39.6902,-190.5634 46.5704,-189.2733"/>
<g id="a_edge6&#45;headlabel"><a xlink:href="dir_000598_000050.html" target="_top" xlink:title="8">
<text text-anchor="middle" x="50.0234" y="-189.7831" font-family="Helvetica,sans-Serif" font-size="10.00" fill="#000000">8</text>
</a>
</g>
</g>
<!-- dir_396d171119822f66a36fe1ebf998d1a3 -->
<g id="node3" class="node">
<title>dir_396d171119822f66a36fe1ebf998d1a3</title>
<g id="a_node3"><a xlink:href="dir_396d171119822f66a36fe1ebf998d1a3.html" target="_top" xlink:title="include">
<polygon fill="none" stroke="#ff0000" points="119.8955,-252 65.8955,-252 65.8955,-216 119.8955,-216 119.8955,-252"/>
<text text-anchor="middle" x="92.8955" y="-231.5" font-family="Helvetica,sans-Serif" font-size="10.00" fill="#000000">include</text>
</a>
</g>
</g>
<!-- dir_064d7f478c030df51e47c94b08ab25b1&#45;&gt;dir_396d171119822f66a36fe1ebf998d1a3 -->
<g id="edge7" class="edge">
<title>dir_064d7f478c030df51e47c94b08ab25b1&#45;&gt;dir_396d171119822f66a36fe1ebf998d1a3</title>
<path fill="none" stroke="#000000" d="M71.9611,-287.8314C75.0215,-279.9617 78.6734,-270.5712 82.0637,-261.8533"/>
<polygon fill="#000000" stroke="#000000" points="85.3723,-263.0019 85.7348,-252.4133 78.8483,-260.4647 85.3723,-263.0019"/>
<g id="a_edge7&#45;headlabel"><a xlink:href="dir_000598_000367.html" target="_top" xlink:title="6">
<text text-anchor="middle" x="86.7157" y="-264.8812" font-family="Helvetica,sans-Serif" font-size="10.00" fill="#000000">6</text>
</a>
</g>
</g>
<!-- dir_f511f1e9c03c071966ae594f00bbc5e0 -->
<g id="node4" class="node">
<title>dir_f511f1e9c03c071966ae594f00bbc5e0</title>
<g id="a_node4"><a xlink:href="dir_f511f1e9c03c071966ae594f00bbc5e0.html" target="_top" xlink:title="GPU">
<polygon fill="none" stroke="#ff0000" points="102.8955,-108 48.8955,-108 48.8955,-72 102.8955,-72 102.8955,-108"/>
<text text-anchor="middle" x="75.8955" y="-87.5" font-family="Helvetica,sans-Serif" font-size="10.00" fill="#000000">GPU</text>
</a>
</g>
</g>
<!-- dir_064d7f478c030df51e47c94b08ab25b1&#45;&gt;dir_f511f1e9c03c071966ae594f00bbc5e0 -->
<g id="edge8" class="edge">
<title>dir_064d7f478c030df51e47c94b08ab25b1&#45;&gt;dir_f511f1e9c03c071966ae594f00bbc5e0</title>
<path fill="none" stroke="#000000" d="M92.0048,-290.9972C105.7998,-281.7409 121.238,-268.4801 128.8955,-252 150.3008,-205.9326 119.169,-148.8053 96.3327,-116.1639"/>
<polygon fill="#000000" stroke="#000000" points="99.1461,-114.0814 90.4528,-108.0252 93.472,-118.1807 99.1461,-114.0814"/>
<g id="a_edge8&#45;headlabel"><a xlink:href="dir_000598_000140.html" target="_top" xlink:title="3">
<text text-anchor="middle" x="103.5526" y="-112.8324" font-family="Helvetica,sans-Serif" font-size="10.00" fill="#000000">3</text>
</a>
</g>
</g>
<!-- dir_2171f7ec022c5423887b07c69b2f5b48 -->
<g id="node5" class="node">
<title>dir_2171f7ec022c5423887b07c69b2f5b48</title>
<g id="a_node5"><a xlink:href="dir_2171f7ec022c5423887b07c69b2f5b48.html" target="_top" xlink:title="DataFormats">
<polygon fill="none" stroke="#ff0000" points="115.8955,-36 35.8955,-36 35.8955,0 115.8955,0 115.8955,-36"/>
<text text-anchor="middle" x="75.8955" y="-15.5" font-family="Helvetica,sans-Serif" font-size="10.00" fill="#000000">DataFormats</text>
</a>
</g>
</g>
<!-- dir_064d7f478c030df51e47c94b08ab25b1&#45;&gt;dir_2171f7ec022c5423887b07c69b2f5b48 -->
<g id="edge9" class="edge">
<title>dir_064d7f478c030df51e47c94b08ab25b1&#45;&gt;dir_2171f7ec022c5423887b07c69b2f5b48</title>
<path fill="none" stroke="#000000" d="M50.2413,-287.7005C28.4983,-258.3519 -8.67,-198.511 1.8955,-144 8.4599,-110.1321 13.1938,-101.6103 30.8955,-72 36.6849,-62.316 44.1618,-52.5837 51.3523,-44.101"/>
<polygon fill="#000000" stroke="#000000" points="54.1447,-46.2246 58.094,-36.3933 48.8759,-41.616 54.1447,-46.2246"/>
<g id="a_edge9&#45;headlabel"><a xlink:href="dir_000598_000076.html" target="_top" xlink:title="9">
<text text-anchor="middle" x="53.9153" y="-48.2995" font-family="Helvetica,sans-Serif" font-size="10.00" fill="#000000">9</text>
</a>
</g>
</g>
<!-- dir_677b030cc750909e4cd27413873678d8&#45;&gt;dir_f511f1e9c03c071966ae594f00bbc5e0 -->
<g id="edge1" class="edge">
<title>dir_677b030cc750909e4cd27413873678d8&#45;&gt;dir_f511f1e9c03c071966ae594f00bbc5e0</title>
<path fill="none" stroke="#000000" d="M47.4845,-143.8314C51.7273,-135.7925 56.8076,-126.1666 61.4915,-117.2918"/>
<polygon fill="#000000" stroke="#000000" points="64.6051,-118.8908 66.1774,-108.4133 58.4144,-115.6235 64.6051,-118.8908"/>
<g id="a_edge1&#45;headlabel"><a xlink:href="dir_000050_000140.html" target="_top" xlink:title="1">
<text text-anchor="middle" x="65.4384" y="-120.895" font-family="Helvetica,sans-Serif" font-size="10.00" fill="#000000">1</text>
</a>
</g>
</g>
<!-- dir_677b030cc750909e4cd27413873678d8&#45;&gt;dir_2171f7ec022c5423887b07c69b2f5b48 -->
<g id="edge2" class="edge">
<title>dir_677b030cc750909e4cd27413873678d8&#45;&gt;dir_2171f7ec022c5423887b07c69b2f5b48</title>
<path fill="none" stroke="#000000" d="M35.3946,-143.9321C33.4945,-125.4098 32.3368,-96.0003 39.8955,-72 42.9603,-62.269 48.3607,-52.6661 54.0612,-44.3181"/>
<polygon fill="#000000" stroke="#000000" points="56.9725,-46.2657 60.025,-36.1201 51.3119,-42.1477 56.9725,-46.2657"/>
<g id="a_edge2&#45;headlabel"><a xlink:href="dir_000050_000076.html" target="_top" xlink:title="15">
<text text-anchor="middle" x="57.1539" y="-48.3428" font-family="Helvetica,sans-Serif" font-size="10.00" fill="#000000">15</text>
</a>
</g>
</g>
<!-- dir_396d171119822f66a36fe1ebf998d1a3&#45;&gt;dir_677b030cc750909e4cd27413873678d8 -->
<g id="edge3" class="edge">
<title>dir_396d171119822f66a36fe1ebf998d1a3&#45;&gt;dir_677b030cc750909e4cd27413873678d8</title>
<path fill="none" stroke="#000000" d="M79.0167,-215.8314C72.682,-207.5386 65.0571,-197.557 58.1029,-188.4533"/>
<polygon fill="#000000" stroke="#000000" points="60.813,-186.2353 51.9612,-180.4133 55.2503,-190.4847 60.813,-186.2353"/>
<g id="a_edge3&#45;headlabel"><a xlink:href="dir_000367_000050.html" target="_top" xlink:title="10">
<text text-anchor="middle" x="65.2513" y="-184.8683" font-family="Helvetica,sans-Serif" font-size="10.00" fill="#000000">10</text>
</a>
</g>
</g>
<!-- dir_396d171119822f66a36fe1ebf998d1a3&#45;&gt;dir_f511f1e9c03c071966ae594f00bbc5e0 -->
<g id="edge4" class="edge">
<title>dir_396d171119822f66a36fe1ebf998d1a3&#45;&gt;dir_f511f1e9c03c071966ae594f00bbc5e0</title>
<path fill="none" stroke="#000000" d="M90.7425,-215.7623C87.8429,-191.201 82.6539,-147.2474 79.2429,-118.3541"/>
<polygon fill="#000000" stroke="#000000" points="82.6795,-117.6103 78.0311,-108.0896 75.7278,-118.431 82.6795,-117.6103"/>
<g id="a_edge4&#45;headlabel"><a xlink:href="dir_000367_000140.html" target="_top" xlink:title="1">
<text text-anchor="middle" x="85.9205" y="-118.3473" font-family="Helvetica,sans-Serif" font-size="10.00" fill="#000000">1</text>
</a>
</g>
</g>
<!-- dir_396d171119822f66a36fe1ebf998d1a3&#45;&gt;dir_2171f7ec022c5423887b07c69b2f5b48 -->
<g id="edge5" class="edge">
<title>dir_396d171119822f66a36fe1ebf998d1a3&#45;&gt;dir_2171f7ec022c5423887b07c69b2f5b48</title>
<path fill="none" stroke="#000000" d="M99.804,-215.5941C110.2126,-185.0872 127.1588,-122.4111 111.8955,-72 108.9391,-62.2355 103.5703,-52.6229 97.8656,-44.2762"/>
<polygon fill="#000000" stroke="#000000" points="100.6084,-42.0973 91.886,-36.0831 94.9541,-46.2239 100.6084,-42.0973"/>
<g id="a_edge5&#45;headlabel"><a xlink:href="dir_000367_000076.html" target="_top" xlink:title="17">
<text text-anchor="middle" x="105.0209" y="-40.827" font-family="Helvetica,sans-Serif" font-size="10.00" fill="#000000">17</text>
</a>
</g>
</g>
<!-- dir_f511f1e9c03c071966ae594f00bbc5e0&#45;&gt;dir_2171f7ec022c5423887b07c69b2f5b48 -->
<g id="edge10" class="edge">
<title>dir_f511f1e9c03c071966ae594f00bbc5e0&#45;&gt;dir_2171f7ec022c5423887b07c69b2f5b48</title>
<path fill="none" stroke="#000000" d="M69.9431,-71.8314C69.1927,-64.131 68.9718,-54.9743 69.2804,-46.4166"/>
<polygon fill="#000000" stroke="#000000" points="72.7747,-46.6161 69.9195,-36.4133 65.789,-46.1697 72.7747,-46.6161"/>
<g id="a_edge10&#45;headlabel"><a xlink:href="dir_000140_000076.html" target="_top" xlink:title="12">
<text text-anchor="middle" x="75.3792" y="-47.8844" font-family="Helvetica,sans-Serif" font-size="10.00" fill="#000000">12</text>
</a>
</g>
</g>
<!-- dir_2171f7ec022c5423887b07c69b2f5b48&#45;&gt;dir_f511f1e9c03c071966ae594f00bbc5e0 -->
<g id="edge11" class="edge">
<title>dir_2171f7ec022c5423887b07c69b2f5b48&#45;&gt;dir_f511f1e9c03c071966ae594f00bbc5e0</title>
<path fill="none" stroke="#000000" d="M81.8715,-36.4133C82.6027,-44.0593 82.8158,-53.1084 82.511,-61.5726"/>
<polygon fill="#000000" stroke="#000000" points="79.0003,-61.6264 81.8479,-71.8314 85.9857,-62.078 79.0003,-61.6264"/>
<g id="a_edge11&#45;headlabel"><a xlink:href="dir_000076_000140.html" target="_top" xlink:title="11">
<text text-anchor="middle" x="76.3987" y="-55.3562" font-family="Helvetica,sans-Serif" font-size="10.00" fill="#000000">11</text>
</a>
</g>
</g>
</g>
</svg>
