<?xml version="1.0" encoding="UTF-8" standalone="no"?>
<!DOCTYPE svg PUBLIC "-//W3C//DTD SVG 1.1//EN"
 "http://www.w3.org/Graphics/SVG/1.1/DTD/svg11.dtd">
<!-- Generated by graphviz version 2.40.1 (20161225.0304)
 -->
<!-- Title: /home/travis/build/AliceO2Group/AliceO2/Detectors/TPC/reconstruction/include/TPCReconstruction Pages: 1 -->
<svg width="159pt" height="367pt"
 viewBox="0.00 0.00 159.35 367.00" xmlns="http://www.w3.org/2000/svg" xmlns:xlink="http://www.w3.org/1999/xlink">
<g id="graph0" class="graph" transform="scale(1 1) rotate(0) translate(4 363)">
<title>/home/travis/build/AliceO2Group/AliceO2/Detectors/TPC/reconstruction/include/TPCReconstruction</title>
<g id="clust1" class="cluster">
<title>clusterdir_396d171119822f66a36fe1ebf998d1a3</title>
<g id="a_clust1"><a xlink:href="dir_396d171119822f66a36fe1ebf998d1a3.html" target="_top" xlink:title="include">
<polygon fill="#ddddee" stroke="#000000" points="14.3534,-280 14.3534,-351 136.3534,-351 136.3534,-280 14.3534,-280"/>
<text text-anchor="middle" x="75.3534" y="-339" font-family="Helvetica,sans-Serif" font-size="10.00" fill="#000000">include</text>
</a>
</g>
</g>
<!-- dir_1dfaa3fb6e801ddc70b8194facd2138d -->
<g id="node1" class="node">
<title>dir_1dfaa3fb6e801ddc70b8194facd2138d</title>
<g id="a_node1"><a xlink:href="dir_1dfaa3fb6e801ddc70b8194facd2138d.html" target="_top" xlink:title="TPCReconstruction">
<polygon fill="#eeeeff" stroke="#000000" points="128.8534,-324 21.8534,-324 21.8534,-288 128.8534,-288 128.8534,-324"/>
<text text-anchor="middle" x="75.3534" y="-303.5" font-family="Helvetica,sans-Serif" font-size="10.00" fill="#000000">TPCReconstruction</text>
</a>
</g>
</g>
<!-- dir_677b030cc750909e4cd27413873678d8 -->
<g id="node2" class="node">
<title>dir_677b030cc750909e4cd27413873678d8</title>
<g id="a_node2"><a xlink:href="dir_677b030cc750909e4cd27413873678d8.html" target="_top" xlink:title="base">
<polygon fill="none" stroke="#ff0000" points="75.3534,-252 21.3534,-252 21.3534,-216 75.3534,-216 75.3534,-252"/>
<text text-anchor="middle" x="48.3534" y="-231.5" font-family="Helvetica,sans-Serif" font-size="10.00" fill="#000000">base</text>
</a>
</g>
</g>
<!-- dir_1dfaa3fb6e801ddc70b8194facd2138d&#45;&gt;dir_677b030cc750909e4cd27413873678d8 -->
<g id="edge8" class="edge">
<title>dir_1dfaa3fb6e801ddc70b8194facd2138d&#45;&gt;dir_677b030cc750909e4cd27413873678d8</title>
<path fill="none" stroke="#000000" d="M68.5401,-287.8314C65.589,-279.9617 62.0675,-270.5712 58.7983,-261.8533"/>
<polygon fill="#000000" stroke="#000000" points="62.0468,-260.5476 55.2583,-252.4133 55.4925,-263.0055 62.0468,-260.5476"/>
<g id="a_edge8&#45;headlabel"><a xlink:href="dir_000368_000050.html" target="_top" xlink:title="10">
<text text-anchor="middle" x="65.9674" y="-260.4164" font-family="Helvetica,sans-Serif" font-size="10.00" fill="#000000">10</text>
</a>
</g>
</g>
<!-- dir_4ab6b4cc6a7edbff49100e9123df213f -->
<g id="node3" class="node">
<title>dir_4ab6b4cc6a7edbff49100e9123df213f</title>
<g id="a_node3"><a xlink:href="dir_4ab6b4cc6a7edbff49100e9123df213f.html" target="_top" xlink:title="Common">
<polygon fill="none" stroke="#ff0000" points="99.8534,-180 38.8534,-180 38.8534,-144 99.8534,-144 99.8534,-180"/>
<text text-anchor="middle" x="69.3534" y="-159.5" font-family="Helvetica,sans-Serif" font-size="10.00" fill="#000000">Common</text>
</a>
</g>
</g>
<!-- dir_1dfaa3fb6e801ddc70b8194facd2138d&#45;&gt;dir_4ab6b4cc6a7edbff49100e9123df213f -->
<g id="edge9" class="edge">
<title>dir_1dfaa3fb6e801ddc70b8194facd2138d&#45;&gt;dir_4ab6b4cc6a7edbff49100e9123df213f</title>
<path fill="none" stroke="#000000" d="M79.703,-287.6833C83.437,-269.4656 87.7255,-240.7389 84.3534,-216 83.1762,-207.3639 80.9862,-198.1599 78.6364,-189.8427"/>
<polygon fill="#000000" stroke="#000000" points="81.979,-188.8042 75.7482,-180.2353 75.2754,-190.8195 81.979,-188.8042"/>
<g id="a_edge9&#45;headlabel"><a xlink:href="dir_000368_000027.html" target="_top" xlink:title="2">
<text text-anchor="middle" x="85.7329" y="-188.9292" font-family="Helvetica,sans-Serif" font-size="10.00" fill="#000000">2</text>
</a>
</g>
</g>
<!-- dir_f511f1e9c03c071966ae594f00bbc5e0 -->
<g id="node4" class="node">
<title>dir_f511f1e9c03c071966ae594f00bbc5e0</title>
<g id="a_node4"><a xlink:href="dir_f511f1e9c03c071966ae594f00bbc5e0.html" target="_top" xlink:title="GPU">
<polygon fill="none" stroke="#ff0000" points="151.3534,-108 97.3534,-108 97.3534,-72 151.3534,-72 151.3534,-108"/>
<text text-anchor="middle" x="124.3534" y="-87.5" font-family="Helvetica,sans-Serif" font-size="10.00" fill="#000000">GPU</text>
</a>
</g>
</g>
<!-- dir_1dfaa3fb6e801ddc70b8194facd2138d&#45;&gt;dir_f511f1e9c03c071966ae594f00bbc5e0 -->
<g id="edge10" class="edge">
<title>dir_1dfaa3fb6e801ddc70b8194facd2138d&#45;&gt;dir_f511f1e9c03c071966ae594f00bbc5e0</title>
<path fill="none" stroke="#000000" d="M85.9255,-287.9976C99.204,-264.2225 121.232,-220.6066 129.3534,-180 133.439,-159.5717 131.9233,-136.0518 129.5271,-118.1799"/>
<polygon fill="#000000" stroke="#000000" points="132.9617,-117.4835 128.007,-108.1186 126.0402,-118.5292 132.9617,-117.4835"/>
<g id="a_edge10&#45;headlabel"><a xlink:href="dir_000368_000140.html" target="_top" xlink:title="1">
<text text-anchor="middle" x="136.306" y="-118.1136" font-family="Helvetica,sans-Serif" font-size="10.00" fill="#000000">1</text>
</a>
</g>
</g>
<!-- dir_2171f7ec022c5423887b07c69b2f5b48 -->
<g id="node5" class="node">
<title>dir_2171f7ec022c5423887b07c69b2f5b48</title>
<g id="a_node5"><a xlink:href="dir_2171f7ec022c5423887b07c69b2f5b48.html" target="_top" xlink:title="DataFormats">
<polygon fill="none" stroke="#ff0000" points="100.3534,-36 20.3534,-36 20.3534,0 100.3534,0 100.3534,-36"/>
<text text-anchor="middle" x="60.3534" y="-15.5" font-family="Helvetica,sans-Serif" font-size="10.00" fill="#000000">DataFormats</text>
</a>
</g>
</g>
<!-- dir_1dfaa3fb6e801ddc70b8194facd2138d&#45;&gt;dir_2171f7ec022c5423887b07c69b2f5b48 -->
<g id="edge11" class="edge">
<title>dir_1dfaa3fb6e801ddc70b8194facd2138d&#45;&gt;dir_2171f7ec022c5423887b07c69b2f5b48</title>
<path fill="none" stroke="#000000" d="M44.3773,-287.8776C31.9965,-278.8263 19.0952,-266.6581 12.3534,-252 -2.7318,-219.2016 -9.2582,-184.439 28.3534,-72 31.5014,-62.5891 36.4588,-53.0406 41.5401,-44.6432"/>
<polygon fill="#000000" stroke="#000000" points="44.5979,-46.3576 47.0227,-36.0439 38.6955,-42.5944 44.5979,-46.3576"/>
<g id="a_edge11&#45;headlabel"><a xlink:href="dir_000368_000076.html" target="_top" xlink:title="17">
<text text-anchor="middle" x="45.0596" y="-48.4149" font-family="Helvetica,sans-Serif" font-size="10.00" fill="#000000">17</text>
</a>
</g>
</g>
<!-- dir_677b030cc750909e4cd27413873678d8&#45;&gt;dir_4ab6b4cc6a7edbff49100e9123df213f -->
<g id="edge1" class="edge">
<title>dir_677b030cc750909e4cd27413873678d8&#45;&gt;dir_4ab6b4cc6a7edbff49100e9123df213f</title>
<path fill="none" stroke="#000000" d="M53.6526,-215.8314C55.9232,-208.0463 58.6279,-198.7729 61.1474,-190.1347"/>
<polygon fill="#000000" stroke="#000000" points="64.5428,-190.9933 63.9828,-180.4133 57.8228,-189.0332 64.5428,-190.9933"/>
<g id="a_edge1&#45;headlabel"><a xlink:href="dir_000050_000027.html" target="_top" xlink:title="12">
<text text-anchor="middle" x="66.262" y="-192.7391" font-family="Helvetica,sans-Serif" font-size="10.00" fill="#000000">12</text>
</a>
</g>
</g>
<!-- dir_677b030cc750909e4cd27413873678d8&#45;&gt;dir_f511f1e9c03c071966ae594f00bbc5e0 -->
<g id="edge2" class="edge">
<title>dir_677b030cc750909e4cd27413873678d8&#45;&gt;dir_f511f1e9c03c071966ae594f00bbc5e0</title>
<path fill="none" stroke="#000000" d="M75.4781,-215.9653C87.4012,-206.6316 100.4605,-194.2118 108.3534,-180 118.8523,-161.0957 122.7078,-136.8185 124.0175,-118.2435"/>
<polygon fill="#000000" stroke="#000000" points="127.5233,-118.2113 124.5254,-108.0494 120.532,-117.8628 127.5233,-118.2113"/>
<g id="a_edge2&#45;headlabel"><a xlink:href="dir_000050_000140.html" target="_top" xlink:title="1">
<text text-anchor="middle" x="130.1803" y="-119.4427" font-family="Helvetica,sans-Serif" font-size="10.00" fill="#000000">1</text>
</a>
</g>
</g>
<!-- dir_677b030cc750909e4cd27413873678d8&#45;&gt;dir_2171f7ec022c5423887b07c69b2f5b48 -->
<g id="edge3" class="edge">
<title>dir_677b030cc750909e4cd27413873678d8&#45;&gt;dir_2171f7ec022c5423887b07c69b2f5b48</title>
<path fill="none" stroke="#000000" d="M40.2617,-215.9165C36.0972,-205.6179 31.4616,-192.3436 29.3534,-180 21.3056,-132.8804 36.9351,-78.328 48.7848,-46.0724"/>
<polygon fill="#000000" stroke="#000000" points="52.1723,-47.0117 52.4644,-36.4209 45.6316,-44.518 52.1723,-47.0117"/>
<g id="a_edge3&#45;headlabel"><a xlink:href="dir_000050_000076.html" target="_top" xlink:title="15">
<text text-anchor="middle" x="53.5448" y="-48.882" font-family="Helvetica,sans-Serif" font-size="10.00" fill="#000000">15</text>
</a>
</g>
</g>
<!-- dir_4ab6b4cc6a7edbff49100e9123df213f&#45;&gt;dir_f511f1e9c03c071966ae594f00bbc5e0 -->
<g id="edge4" class="edge">
<title>dir_4ab6b4cc6a7edbff49100e9123df213f&#45;&gt;dir_f511f1e9c03c071966ae594f00bbc5e0</title>
<path fill="none" stroke="#000000" d="M77.2798,-143.8314C82.8628,-135.454 90.389,-125.3531 97.8372,-116.1749"/>
<polygon fill="#000000" stroke="#000000" points="100.5937,-118.3344 104.3117,-108.4133 95.2184,-113.8504 100.5937,-118.3344"/>
<g id="a_edge4&#45;headlabel"><a xlink:href="dir_000027_000140.html" target="_top" xlink:title="3">
<text text-anchor="middle" x="100.4715" y="-120.4134" font-family="Helvetica,sans-Serif" font-size="10.00" fill="#000000">3</text>
</a>
</g>
</g>
<!-- dir_4ab6b4cc6a7edbff49100e9123df213f&#45;&gt;dir_2171f7ec022c5423887b07c69b2f5b48 -->
<g id="edge5" class="edge">
<title>dir_4ab6b4cc6a7edbff49100e9123df213f&#45;&gt;dir_2171f7ec022c5423887b07c69b2f5b48</title>
<path fill="none" stroke="#000000" d="M63.5403,-143.7623C59.5454,-119.201 56.5236,-75.2474 56.6281,-46.3541"/>
<polygon fill="#000000" stroke="#000000" points="60.1325,-46.1552 56.8257,-36.0896 53.1337,-46.0204 60.1325,-46.1552"/>
<g id="a_edge5&#45;headlabel"><a xlink:href="dir_000027_000076.html" target="_top" xlink:title="2">
<text text-anchor="middle" x="62.9021" y="-47.3037" font-family="Helvetica,sans-Serif" font-size="10.00" fill="#000000">2</text>
</a>
</g>
</g>
<!-- dir_f511f1e9c03c071966ae594f00bbc5e0&#45;&gt;dir_4ab6b4cc6a7edbff49100e9123df213f -->
<g id="edge6" class="edge">
<title>dir_f511f1e9c03c071966ae594f00bbc5e0&#45;&gt;dir_4ab6b4cc6a7edbff49100e9123df213f</title>
<path fill="none" stroke="#000000" d="M116.2637,-108.4133C110.6431,-116.8239 103.099,-126.9323 95.6525,-136.0923"/>
<polygon fill="#000000" stroke="#000000" points="92.9118,-133.9138 89.1846,-143.8314 98.283,-138.4027 92.9118,-133.9138"/>
<g id="a_edge6&#45;headlabel"><a xlink:href="dir_000140_000027.html" target="_top" xlink:title="2">
<text text-anchor="middle" x="93.0383" y="-126.8348" font-family="Helvetica,sans-Serif" font-size="10.00" fill="#000000">2</text>
</a>
</g>
</g>
<!-- dir_f511f1e9c03c071966ae594f00bbc5e0&#45;&gt;dir_2171f7ec022c5423887b07c69b2f5b48 -->
<g id="edge7" class="edge">
<title>dir_f511f1e9c03c071966ae594f00bbc5e0&#45;&gt;dir_2171f7ec022c5423887b07c69b2f5b48</title>
<path fill="none" stroke="#000000" d="M102.2511,-71.8314C93.9881,-63.454 84.8199,-53.3531 77.0986,-44.1749"/>
<polygon fill="#000000" stroke="#000000" points="79.7874,-41.9341 70.7447,-36.4133 74.3709,-46.3683 79.7874,-41.9341"/>
<g id="a_edge7&#45;headlabel"><a xlink:href="dir_000140_000076.html" target="_top" xlink:title="12">
<text text-anchor="middle" x="84.2614" y="-40.4171" font-family="Helvetica,sans-Serif" font-size="10.00" fill="#000000">12</text>
</a>
</g>
</g>
<!-- dir_2171f7ec022c5423887b07c69b2f5b48&#45;&gt;dir_4ab6b4cc6a7edbff49100e9123df213f -->
<g id="edge12" class="edge">
<title>dir_2171f7ec022c5423887b07c69b2f5b48&#45;&gt;dir_4ab6b4cc6a7edbff49100e9123df213f</title>
<path fill="none" stroke="#000000" d="M66.1423,-36.0896C70.1411,-60.5727 73.1711,-104.5174 73.0793,-133.4713"/>
<polygon fill="#000000" stroke="#000000" points="69.5745,-133.6985 72.8867,-143.7623 76.5733,-133.8296 69.5745,-133.6985"/>
<g id="a_edge12&#45;headlabel"><a xlink:href="dir_000076_000027.html" target="_top" xlink:title="33">
<text text-anchor="middle" x="66.8029" y="-127.5515" font-family="Helvetica,sans-Serif" font-size="10.00" fill="#000000">33</text>
</a>
</g>
</g>
<!-- dir_2171f7ec022c5423887b07c69b2f5b48&#45;&gt;dir_f511f1e9c03c071966ae594f00bbc5e0 -->
<g id="edge13" class="edge">
<title>dir_2171f7ec022c5423887b07c69b2f5b48&#45;&gt;dir_f511f1e9c03c071966ae594f00bbc5e0</title>
<path fill="none" stroke="#000000" d="M82.6967,-36.4133C90.8934,-44.7389 99.9547,-54.7282 107.5992,-63.8144"/>
<polygon fill="#000000" stroke="#000000" points="105.1157,-66.3063 114.1559,-71.8314 110.5343,-61.8747 105.1157,-66.3063"/>
<g id="a_edge13&#45;headlabel"><a xlink:href="dir_000076_000140.html" target="_top" xlink:title="11">
<text text-anchor="middle" x="100.6422" y="-62.8213" font-family="Helvetica,sans-Serif" font-size="10.00" fill="#000000">11</text>
</a>
</g>
</g>
</g>
</svg>
