<?xml version="1.0" encoding="UTF-8" standalone="no"?>
<!DOCTYPE svg PUBLIC "-//W3C//DTD SVG 1.1//EN"
 "http://www.w3.org/Graphics/SVG/1.1/DTD/svg11.dtd">
<!-- Generated by graphviz version 2.40.1 (20161225.0304)
 -->
<!-- Title: /home/travis/build/AliceO2Group/AliceO2/Detectors/ITSMFT/common/simulation/src Pages: 1 -->
<!--zoomable 583 -->
<svg id="main" version="1.1" xmlns="http://www.w3.org/2000/svg" xmlns:xlink="http://www.w3.org/1999/xlink" xml:space="preserve" onload="init(evt)">
<style type="text/css"><![CDATA[
.edge:hover path { stroke: red; }
.edge:hover polygon { stroke: red; fill: red; }
]]></style>
<script type="text/javascript"><![CDATA[
var edges = document.getElementsByTagName('g');
if (edges && edges.length) {
  for (var i=0;i<edges.length;i++) {
    if (edges[i].id.substr(0,4)=='edge') {
      edges[i].setAttribute('class','edge');
    }
  }
}
]]></script>
        <defs>
                <circle id="rim" cx="0" cy="0" r="7"/>
                <circle id="rim2" cx="0" cy="0" r="3.5"/>
                <g id="zoomPlus">
                        <use xlink:href="#rim" fill="#404040">
                                <set attributeName="fill" to="#808080" begin="zoomplus.mouseover" end="zoomplus.mouseout"/>
                        </use>
                        <path d="M-4,0h8M0,-4v8" fill="none" stroke="white" stroke-width="1.5" pointer-events="none"/>
                </g>
                <g id="zoomMin">
                        <use xlink:href="#rim" fill="#404040">
                                <set attributeName="fill" to="#808080" begin="zoomminus.mouseover" end="zoomminus.mouseout"/>
                        </use>
                        <path d="M-4,0h8" fill="none" stroke="white" stroke-width="1.5" pointer-events="none"/>
                </g>
                <g id="dirArrow">
                        <path fill="none" stroke="white" stroke-width="1.5" d="M0,-3.0v7 M-2.5,-0.5L0,-3.0L2.5,-0.5"/>
                </g>
               <g id="resetDef">
                       <use xlink:href="#rim2" fill="#404040">
                               <set attributeName="fill" to="#808080" begin="reset.mouseover" end="reset.mouseout"/>
                       </use>
               </g>
        </defs>

<script type="text/javascript">
var viewWidth = 498;
var viewHeight = 583;
var sectionId = 'dynsection-0';
</script>
<script xlink:href="svgpan.js"/>
<svg id="graph" class="graph">
<g id="viewport">
<title>/home/travis/build/AliceO2Group/AliceO2/Detectors/ITSMFT/common/simulation/src</title>
<g id="clust1" class="cluster">
<title>clusterdir_948e043a2a9c0d8c3d26178da976c005</title>
<g id="a_clust1"><a xlink:href="dir_948e043a2a9c0d8c3d26178da976c005.html" target="_top" xlink:title="simulation">
<polygon fill="#ddddee" stroke="#000000" points="171,-496 171,-567 241,-567 241,-496 171,-496"/>
<text text-anchor="middle" x="206" y="-555" font-family="Helvetica,sans-Serif" font-size="10.00" fill="#000000">simulation</text>
</a>
</g>
</g>
<!-- dir_36f9785b6e7879c93ce113c7573e321a -->
<g id="node1" class="node">
<title>dir_36f9785b6e7879c93ce113c7573e321a</title>
<g id="a_node1"><a xlink:href="dir_36f9785b6e7879c93ce113c7573e321a.html" target="_top" xlink:title="src">
<polygon fill="#eeeeff" stroke="#000000" points="233,-540 179,-540 179,-504 233,-504 233,-540"/>
<text text-anchor="middle" x="206" y="-519.5" font-family="Helvetica,sans-Serif" font-size="10.00" fill="#000000">src</text>
</a>
</g>
</g>
<!-- dir_2174d8cbbd82d5c404dd04814f845a3a -->
<g id="node2" class="node">
<title>dir_2174d8cbbd82d5c404dd04814f845a3a</title>
<g id="a_node2"><a xlink:href="dir_2174d8cbbd82d5c404dd04814f845a3a.html" target="_top" xlink:title="reconstruction">
<polygon fill="none" stroke="#ff0000" points="304,-396 218,-396 218,-360 304,-360 304,-396"/>
<text text-anchor="middle" x="261" y="-375.5" font-family="Helvetica,sans-Serif" font-size="10.00" fill="#000000">reconstruction</text>
</a>
</g>
</g>
<!-- dir_36f9785b6e7879c93ce113c7573e321a&#45;&gt;dir_2174d8cbbd82d5c404dd04814f845a3a -->
<g id="edge6" class="edge">
<title>dir_36f9785b6e7879c93ce113c7573e321a&#45;&gt;dir_2174d8cbbd82d5c404dd04814f845a3a</title>
<path fill="none" stroke="#000000" d="M212.9658,-503.7623C222.4295,-478.9846 239.4311,-434.4714 250.4607,-405.5939"/>
<polygon fill="#000000" stroke="#000000" points="253.7923,-406.6803 254.0908,-396.0896 247.253,-404.1826 253.7923,-406.6803"/>
<g id="a_edge6&#45;headlabel"><a xlink:href="dir_000066_000357.html" target="_top" xlink:title="1">
<text text-anchor="middle" x="255.1622" y="-408.5513" font-family="Helvetica,sans-Serif" font-size="10.00" fill="#000000">1</text>
</a>
</g>
</g>
<!-- dir_4ab6b4cc6a7edbff49100e9123df213f -->
<g id="node3" class="node">
<title>dir_4ab6b4cc6a7edbff49100e9123df213f</title>
<g id="a_node3"><a xlink:href="dir_4ab6b4cc6a7edbff49100e9123df213f.html" target="_top" xlink:title="Common">
<polygon fill="none" stroke="#ff0000" points="254.5,-252 193.5,-252 193.5,-216 254.5,-216 254.5,-252"/>
<text text-anchor="middle" x="224" y="-231.5" font-family="Helvetica,sans-Serif" font-size="10.00" fill="#000000">Common</text>
</a>
</g>
</g>
<!-- dir_36f9785b6e7879c93ce113c7573e321a&#45;&gt;dir_4ab6b4cc6a7edbff49100e9123df213f -->
<g id="edge7" class="edge">
<title>dir_36f9785b6e7879c93ce113c7573e321a&#45;&gt;dir_4ab6b4cc6a7edbff49100e9123df213f</title>
<path fill="none" stroke="#000000" d="M191.003,-503.9246C159.1306,-463.1807 90.8855,-361.9622 133,-288 143.9646,-268.7438 164.7993,-255.6453 183.7688,-247.1769"/>
<polygon fill="#000000" stroke="#000000" points="185.2743,-250.3415 193.1672,-243.2737 182.5895,-243.8768 185.2743,-250.3415"/>
<g id="a_edge7&#45;headlabel"><a xlink:href="dir_000066_000027.html" target="_top" xlink:title="2">
<text text-anchor="middle" x="183.0435" y="-251.8423" font-family="Helvetica,sans-Serif" font-size="10.00" fill="#000000">2</text>
</a>
</g>
</g>
<!-- dir_aece0de4a924a7db153b75165d0988be -->
<g id="node4" class="node">
<title>dir_aece0de4a924a7db153b75165d0988be</title>
<g id="a_node4"><a xlink:href="dir_aece0de4a924a7db153b75165d0988be.html" target="_top" xlink:title="include">
<polygon fill="none" stroke="#ff0000" points="351,-468 297,-468 297,-432 351,-432 351,-468"/>
<text text-anchor="middle" x="324" y="-447.5" font-family="Helvetica,sans-Serif" font-size="10.00" fill="#000000">include</text>
</a>
</g>
</g>
<!-- dir_36f9785b6e7879c93ce113c7573e321a&#45;&gt;dir_aece0de4a924a7db153b75165d0988be -->
<g id="edge8" class="edge">
<title>dir_36f9785b6e7879c93ce113c7573e321a&#45;&gt;dir_aece0de4a924a7db153b75165d0988be</title>
<path fill="none" stroke="#000000" d="M233.0716,-505.4817C249.2954,-495.5825 270.1285,-482.8707 287.7593,-472.113"/>
<polygon fill="#000000" stroke="#000000" points="289.9324,-474.8872 296.6458,-466.6907 286.2863,-468.9117 289.9324,-474.8872"/>
<g id="a_edge8&#45;headlabel"><a xlink:href="dir_000066_000063.html" target="_top" xlink:title="11">
<text text-anchor="middle" x="288.3428" y="-476.6831" font-family="Helvetica,sans-Serif" font-size="10.00" fill="#000000">11</text>
</a>
</g>
</g>
<!-- dir_37c90836491b695b472bf98d1be8336b -->
<g id="node5" class="node">
<title>dir_37c90836491b695b472bf98d1be8336b</title>
<g id="a_node5"><a xlink:href="dir_37c90836491b695b472bf98d1be8336b.html" target="_top" xlink:title="Base">
<polygon fill="none" stroke="#ff0000" points="157,-36 103,-36 103,0 157,0 157,-36"/>
<text text-anchor="middle" x="130" y="-15.5" font-family="Helvetica,sans-Serif" font-size="10.00" fill="#000000">Base</text>
</a>
</g>
</g>
<!-- dir_36f9785b6e7879c93ce113c7573e321a&#45;&gt;dir_37c90836491b695b472bf98d1be8336b -->
<g id="edge9" class="edge">
<title>dir_36f9785b6e7879c93ce113c7573e321a&#45;&gt;dir_37c90836491b695b472bf98d1be8336b</title>
<path fill="none" stroke="#000000" d="M178.7577,-517.9234C146.2575,-511.8787 91.7177,-497.8654 55,-468 18.6331,-438.42 0,-424.8778 0,-378 0,-378 0,-378 0,-162 0,-105.7186 55.3904,-61.5568 93.8593,-37.6729"/>
<polygon fill="#000000" stroke="#000000" points="95.9843,-40.479 102.7477,-32.3239 92.3749,-34.4813 95.9843,-40.479"/>
<g id="a_edge9&#45;headlabel"><a xlink:href="dir_000066_000276.html" target="_top" xlink:title="2">
<text text-anchor="middle" x="94.3684" y="-42.2652" font-family="Helvetica,sans-Serif" font-size="10.00" fill="#000000">2</text>
</a>
</g>
</g>
<!-- dir_7c9998090bca7c4aa89c05dd66fe73f5 -->
<g id="node6" class="node">
<title>dir_7c9998090bca7c4aa89c05dd66fe73f5</title>
<g id="a_node6"><a xlink:href="dir_7c9998090bca7c4aa89c05dd66fe73f5.html" target="_top" xlink:title="base">
<polygon fill="none" stroke="#ff0000" points="346,-36 292,-36 292,0 346,0 346,-36"/>
<text text-anchor="middle" x="319" y="-15.5" font-family="Helvetica,sans-Serif" font-size="10.00" fill="#000000">base</text>
</a>
</g>
</g>
<!-- dir_36f9785b6e7879c93ce113c7573e321a&#45;&gt;dir_7c9998090bca7c4aa89c05dd66fe73f5 -->
<g id="edge10" class="edge">
<title>dir_36f9785b6e7879c93ce113c7573e321a&#45;&gt;dir_7c9998090bca7c4aa89c05dd66fe73f5</title>
<path fill="none" stroke="#000000" d="M233.2311,-520.7699C304.314,-515.9569 490,-492.4326 490,-378 490,-378 490,-378 490,-162 490,-92.3209 405.8999,-49.5517 355.6576,-30.2181"/>
<polygon fill="#000000" stroke="#000000" points="356.6883,-26.8673 346.0955,-26.6628 354.2488,-33.4285 356.6883,-26.8673"/>
<g id="a_edge10&#45;headlabel"><a xlink:href="dir_000066_000463.html" target="_top" xlink:title="3">
<text text-anchor="middle" x="361.0471" y="-22.9587" font-family="Helvetica,sans-Serif" font-size="10.00" fill="#000000">3</text>
</a>
</g>
</g>
<!-- dir_bcbb2cf9a3d3d83e5515c82071a07177 -->
<g id="node7" class="node">
<title>dir_bcbb2cf9a3d3d83e5515c82071a07177</title>
<g id="a_node7"><a xlink:href="dir_bcbb2cf9a3d3d83e5515c82071a07177.html" target="_top" xlink:title="Framework">
<polygon fill="none" stroke="#ff0000" points="101.5,-180 30.5,-180 30.5,-144 101.5,-144 101.5,-180"/>
<text text-anchor="middle" x="66" y="-159.5" font-family="Helvetica,sans-Serif" font-size="10.00" fill="#000000">Framework</text>
</a>
</g>
</g>
<!-- dir_36f9785b6e7879c93ce113c7573e321a&#45;&gt;dir_bcbb2cf9a3d3d83e5515c82071a07177 -->
<g id="edge11" class="edge">
<title>dir_36f9785b6e7879c93ce113c7573e321a&#45;&gt;dir_bcbb2cf9a3d3d83e5515c82071a07177</title>
<path fill="none" stroke="#000000" d="M178.634,-512.9154C131.0292,-495.187 38,-451.1801 38,-378 38,-378 38,-378 38,-306 38,-265.1713 48.9803,-219.0082 57.1887,-190.2028"/>
<polygon fill="#000000" stroke="#000000" points="60.6027,-190.9987 60.0619,-180.4177 53.8862,-189.0265 60.6027,-190.9987"/>
<g id="a_edge11&#45;headlabel"><a xlink:href="dir_000066_000013.html" target="_top" xlink:title="1">
<text text-anchor="middle" x="62.3142" y="-192.7476" font-family="Helvetica,sans-Serif" font-size="10.00" fill="#000000">1</text>
</a>
</g>
</g>
<!-- dir_26637d1bd82229bc9ed97f7e706be743 -->
<g id="node8" class="node">
<title>dir_26637d1bd82229bc9ed97f7e706be743</title>
<g id="a_node8"><a xlink:href="dir_26637d1bd82229bc9ed97f7e706be743.html" target="_top" xlink:title="Raw">
<polygon fill="none" stroke="#ff0000" points="196,-324 142,-324 142,-288 196,-288 196,-324"/>
<text text-anchor="middle" x="169" y="-303.5" font-family="Helvetica,sans-Serif" font-size="10.00" fill="#000000">Raw</text>
</a>
</g>
</g>
<!-- dir_36f9785b6e7879c93ce113c7573e321a&#45;&gt;dir_26637d1bd82229bc9ed97f7e706be743 -->
<g id="edge12" class="edge">
<title>dir_36f9785b6e7879c93ce113c7573e321a&#45;&gt;dir_26637d1bd82229bc9ed97f7e706be743</title>
<path fill="none" stroke="#000000" d="M202.2444,-503.6832C197.2861,-479.2019 188.433,-434.4349 182,-396 178.5523,-375.4012 175.1963,-352.0575 172.7579,-334.3068"/>
<polygon fill="#000000" stroke="#000000" points="176.2141,-333.7468 171.4001,-324.3088 169.2777,-334.6889 176.2141,-333.7468"/>
<g id="a_edge12&#45;headlabel"><a xlink:href="dir_000066_000555.html" target="_top" xlink:title="1">
<text text-anchor="middle" x="179.5111" y="-334.4267" font-family="Helvetica,sans-Serif" font-size="10.00" fill="#000000">1</text>
</a>
</g>
</g>
<!-- dir_2171f7ec022c5423887b07c69b2f5b48 -->
<g id="node9" class="node">
<title>dir_2171f7ec022c5423887b07c69b2f5b48</title>
<g id="a_node9"><a xlink:href="dir_2171f7ec022c5423887b07c69b2f5b48.html" target="_top" xlink:title="DataFormats">
<polygon fill="none" stroke="#ff0000" points="255,-108 175,-108 175,-72 255,-72 255,-108"/>
<text text-anchor="middle" x="215" y="-87.5" font-family="Helvetica,sans-Serif" font-size="10.00" fill="#000000">DataFormats</text>
</a>
</g>
</g>
<!-- dir_36f9785b6e7879c93ce113c7573e321a&#45;&gt;dir_2171f7ec022c5423887b07c69b2f5b48 -->
<g id="edge13" class="edge">
<title>dir_36f9785b6e7879c93ce113c7573e321a&#45;&gt;dir_2171f7ec022c5423887b07c69b2f5b48</title>
<path fill="none" stroke="#000000" d="M233.2662,-518.9569C297.3153,-510.1436 452,-478.4594 452,-378 452,-378 452,-378 452,-306 452,-221.6199 417.6668,-198.2052 353,-144 327.6906,-122.785 293.0656,-109.2684 264.8308,-101.0639"/>
<polygon fill="#000000" stroke="#000000" points="265.7074,-97.675 255.136,-98.3795 263.8394,-104.4212 265.7074,-97.675"/>
<g id="a_edge13&#45;headlabel"><a xlink:href="dir_000066_000076.html" target="_top" xlink:title="2">
<text text-anchor="middle" x="269.9293" y="-93.3978" font-family="Helvetica,sans-Serif" font-size="10.00" fill="#000000">2</text>
</a>
</g>
</g>
<!-- dir_2174d8cbbd82d5c404dd04814f845a3a&#45;&gt;dir_4ab6b4cc6a7edbff49100e9123df213f -->
<g id="edge1" class="edge">
<title>dir_2174d8cbbd82d5c404dd04814f845a3a&#45;&gt;dir_4ab6b4cc6a7edbff49100e9123df213f</title>
<path fill="none" stroke="#000000" d="M256.3139,-359.7623C249.9752,-335.0928 238.6098,-290.8598 231.1875,-261.9731"/>
<polygon fill="#000000" stroke="#000000" points="234.5266,-260.904 228.648,-252.0896 227.7468,-262.6461 234.5266,-260.904"/>
<g id="a_edge1&#45;headlabel"><a xlink:href="dir_000357_000027.html" target="_top" xlink:title="5">
<text text-anchor="middle" x="238.171" y="-261.1789" font-family="Helvetica,sans-Serif" font-size="10.00" fill="#000000">5</text>
</a>
</g>
</g>
<!-- dir_2174d8cbbd82d5c404dd04814f845a3a&#45;&gt;dir_7c9998090bca7c4aa89c05dd66fe73f5 -->
<g id="edge2" class="edge">
<title>dir_2174d8cbbd82d5c404dd04814f845a3a&#45;&gt;dir_7c9998090bca7c4aa89c05dd66fe73f5</title>
<path fill="none" stroke="#000000" d="M278.4725,-359.6598C301.1907,-333.808 338,-284.179 338,-234 338,-234 338,-234 338,-162 338,-121.5282 330.532,-75.2037 324.96,-46.2725"/>
<polygon fill="#000000" stroke="#000000" points="328.3177,-45.2111 322.9368,-36.0844 321.4517,-46.5746 328.3177,-45.2111"/>
<g id="a_edge2&#45;headlabel"><a xlink:href="dir_000357_000463.html" target="_top" xlink:title="4">
<text text-anchor="middle" x="331.8026" y="-45.6839" font-family="Helvetica,sans-Serif" font-size="10.00" fill="#000000">4</text>
</a>
</g>
</g>
<!-- dir_2174d8cbbd82d5c404dd04814f845a3a&#45;&gt;dir_bcbb2cf9a3d3d83e5515c82071a07177 -->
<g id="edge3" class="edge">
<title>dir_2174d8cbbd82d5c404dd04814f845a3a&#45;&gt;dir_bcbb2cf9a3d3d83e5515c82071a07177</title>
<path fill="none" stroke="#000000" d="M217.7321,-368.5866C190.4401,-360.7014 156.1081,-346.939 133,-324 95.6117,-286.8854 78.1527,-225.8982 70.7656,-190.2892"/>
<polygon fill="#000000" stroke="#000000" points="74.1302,-189.2553 68.7856,-180.1074 67.259,-190.5916 74.1302,-189.2553"/>
<g id="a_edge3&#45;headlabel"><a xlink:href="dir_000357_000013.html" target="_top" xlink:title="6">
<text text-anchor="middle" x="77.6034" y="-189.7418" font-family="Helvetica,sans-Serif" font-size="10.00" fill="#000000">6</text>
</a>
</g>
</g>
<!-- dir_2174d8cbbd82d5c404dd04814f845a3a&#45;&gt;dir_26637d1bd82229bc9ed97f7e706be743 -->
<g id="edge4" class="edge">
<title>dir_2174d8cbbd82d5c404dd04814f845a3a&#45;&gt;dir_26637d1bd82229bc9ed97f7e706be743</title>
<path fill="none" stroke="#000000" d="M237.7845,-359.8314C226.453,-350.9632 212.6536,-340.1637 200.3973,-330.5718"/>
<polygon fill="#000000" stroke="#000000" points="202.2402,-327.5697 192.2081,-324.1628 197.926,-333.0822 202.2402,-327.5697"/>
<g id="a_edge4&#45;headlabel"><a xlink:href="dir_000357_000555.html" target="_top" xlink:title="3">
<text text-anchor="middle" x="206.8208" y="-325.0491" font-family="Helvetica,sans-Serif" font-size="10.00" fill="#000000">3</text>
</a>
</g>
</g>
<!-- dir_2174d8cbbd82d5c404dd04814f845a3a&#45;&gt;dir_2171f7ec022c5423887b07c69b2f5b48 -->
<g id="edge5" class="edge">
<title>dir_2174d8cbbd82d5c404dd04814f845a3a&#45;&gt;dir_2171f7ec022c5423887b07c69b2f5b48</title>
<path fill="none" stroke="#000000" d="M262.9517,-359.914C265.8083,-329.8671 270.0658,-267.8371 263,-216 258.5145,-183.0927 255.1537,-174.9079 243,-144 239.4621,-135.0029 234.8739,-125.535 230.439,-117.0837"/>
<polygon fill="#000000" stroke="#000000" points="233.3931,-115.1881 225.5611,-108.053 227.2341,-118.5149 233.3931,-115.1881"/>
<g id="a_edge5&#45;headlabel"><a xlink:href="dir_000357_000076.html" target="_top" xlink:title="32">
<text text-anchor="middle" x="237.5995" y="-114.5015" font-family="Helvetica,sans-Serif" font-size="10.00" fill="#000000">32</text>
</a>
</g>
</g>
<!-- dir_4ab6b4cc6a7edbff49100e9123df213f&#45;&gt;dir_bcbb2cf9a3d3d83e5515c82071a07177 -->
<g id="edge14" class="edge">
<title>dir_4ab6b4cc6a7edbff49100e9123df213f&#45;&gt;dir_bcbb2cf9a3d3d83e5515c82071a07177</title>
<path fill="none" stroke="#000000" d="M193.4997,-222.432C169.3636,-212.191 135.5358,-196.9556 108.7359,-184.3448"/>
<polygon fill="#000000" stroke="#000000" points="110.1126,-181.1241 99.5769,-180.0061 107.1159,-187.4502 110.1126,-181.1241"/>
<g id="a_edge14&#45;headlabel"><a xlink:href="dir_000027_000013.html" target="_top" xlink:title="2">
<text text-anchor="middle" x="114.5767" y="-177.597" font-family="Helvetica,sans-Serif" font-size="10.00" fill="#000000">2</text>
</a>
</g>
</g>
<!-- dir_4ab6b4cc6a7edbff49100e9123df213f&#45;&gt;dir_2171f7ec022c5423887b07c69b2f5b48 -->
<g id="edge15" class="edge">
<title>dir_4ab6b4cc6a7edbff49100e9123df213f&#45;&gt;dir_2171f7ec022c5423887b07c69b2f5b48</title>
<path fill="none" stroke="#000000" d="M218.187,-215.7623C214.1921,-191.201 211.1702,-147.2474 211.2747,-118.3541"/>
<polygon fill="#000000" stroke="#000000" points="214.7791,-118.1552 211.4723,-108.0896 207.7804,-118.0204 214.7791,-118.1552"/>
<g id="a_edge15&#45;headlabel"><a xlink:href="dir_000027_000076.html" target="_top" xlink:title="2">
<text text-anchor="middle" x="217.5487" y="-119.3037" font-family="Helvetica,sans-Serif" font-size="10.00" fill="#000000">2</text>
</a>
</g>
</g>
<!-- dir_aece0de4a924a7db153b75165d0988be&#45;&gt;dir_2174d8cbbd82d5c404dd04814f845a3a -->
<g id="edge16" class="edge">
<title>dir_aece0de4a924a7db153b75165d0988be&#45;&gt;dir_2174d8cbbd82d5c404dd04814f845a3a</title>
<path fill="none" stroke="#000000" d="M308.1024,-431.8314C300.7722,-423.454 291.934,-413.3531 283.9031,-404.1749"/>
<polygon fill="#000000" stroke="#000000" points="286.3307,-401.6343 277.1116,-396.4133 281.0627,-406.2438 286.3307,-401.6343"/>
<g id="a_edge16&#45;headlabel"><a xlink:href="dir_000063_000357.html" target="_top" xlink:title="5">
<text text-anchor="middle" x="290.8345" y="-399.9698" font-family="Helvetica,sans-Serif" font-size="10.00" fill="#000000">5</text>
</a>
</g>
</g>
<!-- dir_aece0de4a924a7db153b75165d0988be&#45;&gt;dir_4ab6b4cc6a7edbff49100e9123df213f -->
<g id="edge17" class="edge">
<title>dir_aece0de4a924a7db153b75165d0988be&#45;&gt;dir_4ab6b4cc6a7edbff49100e9123df213f</title>
<path fill="none" stroke="#000000" d="M324.3494,-431.7849C324.1227,-413.1453 322.1243,-383.644 313,-360 298.1865,-321.6136 269.0993,-283.9214 248.2057,-259.9151"/>
<polygon fill="#000000" stroke="#000000" points="250.7207,-257.476 241.4665,-252.3173 245.4838,-262.121 250.7207,-257.476"/>
<g id="a_edge17&#45;headlabel"><a xlink:href="dir_000063_000027.html" target="_top" xlink:title="3">
<text text-anchor="middle" x="255.23" y="-255.7811" font-family="Helvetica,sans-Serif" font-size="10.00" fill="#000000">3</text>
</a>
</g>
</g>
<!-- dir_aece0de4a924a7db153b75165d0988be&#45;&gt;dir_7c9998090bca7c4aa89c05dd66fe73f5 -->
<g id="edge18" class="edge">
<title>dir_aece0de4a924a7db153b75165d0988be&#45;&gt;dir_7c9998090bca7c4aa89c05dd66fe73f5</title>
<path fill="none" stroke="#000000" d="M345.6445,-431.7669C355.7366,-422.1312 367.0306,-409.5128 374,-396 388.9832,-366.9492 385.4233,-356.4908 389,-324 401.4324,-211.0634 388.1537,-177.5097 346,-72 342.44,-63.0893 337.9733,-53.646 333.7037,-45.1906"/>
<polygon fill="#000000" stroke="#000000" points="336.7283,-43.4197 329.0258,-36.1449 330.5105,-46.6352 336.7283,-43.4197"/>
<g id="a_edge18&#45;headlabel"><a xlink:href="dir_000063_000463.html" target="_top" xlink:title="2">
<text text-anchor="middle" x="340.9014" y="-42.8084" font-family="Helvetica,sans-Serif" font-size="10.00" fill="#000000">2</text>
</a>
</g>
</g>
<!-- dir_aece0de4a924a7db153b75165d0988be&#45;&gt;dir_26637d1bd82229bc9ed97f7e706be743 -->
<g id="edge19" class="edge">
<title>dir_aece0de4a924a7db153b75165d0988be&#45;&gt;dir_26637d1bd82229bc9ed97f7e706be743</title>
<path fill="none" stroke="#000000" d="M296.5779,-443.1183C270.9941,-435.4447 233.2308,-420.7396 209,-396 192.1649,-378.8113 181.752,-353.3277 175.7875,-333.8607"/>
<polygon fill="#000000" stroke="#000000" points="179.0939,-332.6916 172.9912,-324.0308 172.361,-334.6069 179.0939,-332.6916"/>
<g id="a_edge19&#45;headlabel"><a xlink:href="dir_000063_000555.html" target="_top" xlink:title="1">
<text text-anchor="middle" x="182.8082" y="-332.8722" font-family="Helvetica,sans-Serif" font-size="10.00" fill="#000000">1</text>
</a>
</g>
</g>
<!-- dir_aece0de4a924a7db153b75165d0988be&#45;&gt;dir_2171f7ec022c5423887b07c69b2f5b48 -->
<g id="edge20" class="edge">
<title>dir_aece0de4a924a7db153b75165d0988be&#45;&gt;dir_2171f7ec022c5423887b07c69b2f5b48</title>
<path fill="none" stroke="#000000" d="M335.2832,-431.6673C350.5768,-405.0239 376,-353.5783 376,-306 376,-306 376,-306 376,-234 376,-173.3548 311.751,-131.8655 264.4269,-109.5311"/>
<polygon fill="#000000" stroke="#000000" points="265.7618,-106.2931 255.2118,-105.3197 262.8521,-112.6597 265.7618,-106.2931"/>
<g id="a_edge20&#45;headlabel"><a xlink:href="dir_000063_000076.html" target="_top" xlink:title="7">
<text text-anchor="middle" x="270.2113" y="-102.7048" font-family="Helvetica,sans-Serif" font-size="10.00" fill="#000000">7</text>
</a>
</g>
</g>
<!-- dir_37c90836491b695b472bf98d1be8336b&#45;&gt;dir_4ab6b4cc6a7edbff49100e9123df213f -->
<g id="edge21" class="edge">
<title>dir_37c90836491b695b472bf98d1be8336b&#45;&gt;dir_4ab6b4cc6a7edbff49100e9123df213f</title>
<path fill="none" stroke="#000000" d="M136.9049,-36.0404C143.9628,-54.2907 155.3671,-83.2625 166,-108 180.6916,-142.1801 198.7741,-180.9943 210.8043,-206.4012"/>
<polygon fill="#000000" stroke="#000000" points="207.8012,-208.2366 215.253,-215.768 214.1243,-205.2335 207.8012,-208.2366"/>
<g id="a_edge21&#45;headlabel"><a xlink:href="dir_000276_000027.html" target="_top" xlink:title="16">
<text text-anchor="middle" x="203.6944" y="-203.7077" font-family="Helvetica,sans-Serif" font-size="10.00" fill="#000000">16</text>
</a>
</g>
</g>
<!-- dir_37c90836491b695b472bf98d1be8336b&#45;&gt;dir_bcbb2cf9a3d3d83e5515c82071a07177 -->
<g id="edge22" class="edge">
<title>dir_37c90836491b695b472bf98d1be8336b&#45;&gt;dir_bcbb2cf9a3d3d83e5515c82071a07177</title>
<path fill="none" stroke="#000000" d="M121.9602,-36.0896C110.935,-60.8962 91.0301,-105.6824 78.1728,-134.6113"/>
<polygon fill="#000000" stroke="#000000" points="74.9687,-133.2027 74.1056,-143.7623 81.3654,-136.0457 74.9687,-133.2027"/>
<g id="a_edge22&#45;headlabel"><a xlink:href="dir_000276_000013.html" target="_top" xlink:title="1">
<text text-anchor="middle" x="73.834" y="-126.2648" font-family="Helvetica,sans-Serif" font-size="10.00" fill="#000000">1</text>
</a>
</g>
</g>
<!-- dir_37c90836491b695b472bf98d1be8336b&#45;&gt;dir_2171f7ec022c5423887b07c69b2f5b48 -->
<g id="edge23" class="edge">
<title>dir_37c90836491b695b472bf98d1be8336b&#45;&gt;dir_2171f7ec022c5423887b07c69b2f5b48</title>
<path fill="none" stroke="#000000" d="M157.0751,-35.9134C168.3547,-44.726 181.2412,-55.4921 192.0514,-65.0919"/>
<polygon fill="#000000" stroke="#000000" points="189.7389,-67.7196 199.5033,-71.8314 194.4342,-62.5278 189.7389,-67.7196"/>
<g id="a_edge23&#45;headlabel"><a xlink:href="dir_000276_000076.html" target="_top" xlink:title="10">
<text text-anchor="middle" x="185.1684" y="-64.9143" font-family="Helvetica,sans-Serif" font-size="10.00" fill="#000000">10</text>
</a>
</g>
</g>
<!-- dir_7c9998090bca7c4aa89c05dd66fe73f5&#45;&gt;dir_4ab6b4cc6a7edbff49100e9123df213f -->
<g id="edge24" class="edge">
<title>dir_7c9998090bca7c4aa89c05dd66fe73f5&#45;&gt;dir_4ab6b4cc6a7edbff49100e9123df213f</title>
<path fill="none" stroke="#000000" d="M311.0195,-36.1451C294.3557,-74.0333 255.779,-161.7445 236.0673,-206.5628"/>
<polygon fill="#000000" stroke="#000000" points="232.7584,-205.3926 231.9362,-215.9555 239.1661,-208.2108 232.7584,-205.3926"/>
<g id="a_edge24&#45;headlabel"><a xlink:href="dir_000463_000027.html" target="_top" xlink:title="4">
<text text-anchor="middle" x="231.6066" y="-198.4591" font-family="Helvetica,sans-Serif" font-size="10.00" fill="#000000">4</text>
</a>
</g>
</g>
<!-- dir_7c9998090bca7c4aa89c05dd66fe73f5&#45;&gt;dir_2171f7ec022c5423887b07c69b2f5b48 -->
<g id="edge25" class="edge">
<title>dir_7c9998090bca7c4aa89c05dd66fe73f5&#45;&gt;dir_2171f7ec022c5423887b07c69b2f5b48</title>
<path fill="none" stroke="#000000" d="M298.7166,-36.1628C286.4283,-45.2859 270.4425,-56.4541 255.6971,-66.2489"/>
<polygon fill="#000000" stroke="#000000" points="253.6337,-63.4167 247.196,-71.8314 257.476,-69.2679 253.6337,-63.4167"/>
<g id="a_edge25&#45;headlabel"><a xlink:href="dir_000463_000076.html" target="_top" xlink:title="2">
<text text-anchor="middle" x="255.0799" y="-56.5703" font-family="Helvetica,sans-Serif" font-size="10.00" fill="#000000">2</text>
</a>
</g>
</g>
<!-- dir_bcbb2cf9a3d3d83e5515c82071a07177&#45;&gt;dir_4ab6b4cc6a7edbff49100e9123df213f -->
<g id="edge26" class="edge">
<title>dir_bcbb2cf9a3d3d83e5515c82071a07177&#45;&gt;dir_4ab6b4cc6a7edbff49100e9123df213f</title>
<path fill="none" stroke="#000000" d="M101.5253,-175.7121C125.9868,-186.2039 158.4065,-200.8594 183.7988,-212.85"/>
<polygon fill="#000000" stroke="#000000" points="182.6214,-216.1657 193.1553,-217.3008 185.6284,-209.8445 182.6214,-216.1657"/>
<g id="a_edge26&#45;headlabel"><a xlink:href="dir_000013_000027.html" target="_top" xlink:title="9">
<text text-anchor="middle" x="178.1557" y="-214.6856" font-family="Helvetica,sans-Serif" font-size="10.00" fill="#000000">9</text>
</a>
</g>
</g>
<!-- dir_bcbb2cf9a3d3d83e5515c82071a07177&#45;&gt;dir_2171f7ec022c5423887b07c69b2f5b48 -->
<g id="edge27" class="edge">
<title>dir_bcbb2cf9a3d3d83e5515c82071a07177&#45;&gt;dir_2171f7ec022c5423887b07c69b2f5b48</title>
<path fill="none" stroke="#000000" d="M97.6466,-143.8314C117.4142,-133.8072 143.186,-121.3153 165.5799,-110.8892"/>
<polygon fill="#000000" stroke="#000000" points="167.3349,-113.9339 174.9432,-106.5606 164.3975,-107.58 167.3349,-113.9339"/>
<g id="a_edge27&#45;headlabel"><a xlink:href="dir_000013_000076.html" target="_top" xlink:title="82">
<text text-anchor="middle" x="165.2635" y="-115.5194" font-family="Helvetica,sans-Serif" font-size="10.00" fill="#000000">82</text>
</a>
</g>
</g>
<!-- dir_26637d1bd82229bc9ed97f7e706be743&#45;&gt;dir_4ab6b4cc6a7edbff49100e9123df213f -->
<g id="edge28" class="edge">
<title>dir_26637d1bd82229bc9ed97f7e706be743&#45;&gt;dir_4ab6b4cc6a7edbff49100e9123df213f</title>
<path fill="none" stroke="#000000" d="M182.8788,-287.8314C189.2136,-279.5386 196.8384,-269.557 203.7926,-260.4533"/>
<polygon fill="#000000" stroke="#000000" points="206.6452,-262.4847 209.9343,-252.4133 201.0825,-258.2353 206.6452,-262.4847"/>
<g id="a_edge28&#45;headlabel"><a xlink:href="dir_000555_000027.html" target="_top" xlink:title="6">
<text text-anchor="middle" x="206.7195" y="-264.5647" font-family="Helvetica,sans-Serif" font-size="10.00" fill="#000000">6</text>
</a>
</g>
</g>
<!-- dir_26637d1bd82229bc9ed97f7e706be743&#45;&gt;dir_bcbb2cf9a3d3d83e5515c82071a07177 -->
<g id="edge29" class="edge">
<title>dir_26637d1bd82229bc9ed97f7e706be743&#45;&gt;dir_bcbb2cf9a3d3d83e5515c82071a07177</title>
<path fill="none" stroke="#000000" d="M155.955,-287.7623C137.9999,-262.66 105.5561,-217.3017 84.9313,-188.4671"/>
<polygon fill="#000000" stroke="#000000" points="87.6036,-186.1869 78.9391,-180.0896 81.9101,-190.2594 87.6036,-186.1869"/>
<g id="a_edge29&#45;headlabel"><a xlink:href="dir_000555_000013.html" target="_top" xlink:title="24">
<text text-anchor="middle" x="92.0041" y="-184.9588" font-family="Helvetica,sans-Serif" font-size="10.00" fill="#000000">24</text>
</a>
</g>
</g>
<!-- dir_26637d1bd82229bc9ed97f7e706be743&#45;&gt;dir_2171f7ec022c5423887b07c69b2f5b48 -->
<g id="edge30" class="edge">
<title>dir_26637d1bd82229bc9ed97f7e706be743&#45;&gt;dir_2171f7ec022c5423887b07c69b2f5b48</title>
<path fill="none" stroke="#000000" d="M171.5884,-287.9958C174.3047,-269.7738 178.8854,-240.8234 184,-216 190.9921,-182.0639 200.7726,-143.4231 207.4669,-117.9812"/>
<polygon fill="#000000" stroke="#000000" points="210.8636,-118.8266 210.0428,-108.2636 204.0973,-117.033 210.8636,-118.8266"/>
<g id="a_edge30&#45;headlabel"><a xlink:href="dir_000555_000076.html" target="_top" xlink:title="11">
<text text-anchor="middle" x="212.6872" y="-120.5287" font-family="Helvetica,sans-Serif" font-size="10.00" fill="#000000">11</text>
</a>
</g>
</g>
<!-- dir_2171f7ec022c5423887b07c69b2f5b48&#45;&gt;dir_4ab6b4cc6a7edbff49100e9123df213f -->
<g id="edge31" class="edge">
<title>dir_2171f7ec022c5423887b07c69b2f5b48&#45;&gt;dir_4ab6b4cc6a7edbff49100e9123df213f</title>
<path fill="none" stroke="#000000" d="M220.7889,-108.0896C224.7877,-132.5727 227.8178,-176.5174 227.7259,-205.4713"/>
<polygon fill="#000000" stroke="#000000" points="224.2211,-205.6985 227.5333,-215.7623 231.2199,-205.8296 224.2211,-205.6985"/>
<g id="a_edge31&#45;headlabel"><a xlink:href="dir_000076_000027.html" target="_top" xlink:title="33">
<text text-anchor="middle" x="221.4495" y="-199.5515" font-family="Helvetica,sans-Serif" font-size="10.00" fill="#000000">33</text>
</a>
</g>
</g>
<!-- dir_2171f7ec022c5423887b07c69b2f5b48&#45;&gt;dir_37c90836491b695b472bf98d1be8336b -->
<g id="edge32" class="edge">
<title>dir_2171f7ec022c5423887b07c69b2f5b48&#45;&gt;dir_37c90836491b695b472bf98d1be8336b</title>
<path fill="none" stroke="#000000" d="M187.5985,-71.8314C176.4829,-63.1337 163.8496,-52.5783 153.1947,-43.1265"/>
<polygon fill="#000000" stroke="#000000" points="155.256,-40.2718 145.4904,-36.1628 150.5621,-45.4649 155.256,-40.2718"/>
<g id="a_edge32&#45;headlabel"><a xlink:href="dir_000076_000276.html" target="_top" xlink:title="1">
<text text-anchor="middle" x="159.8266" y="-38.0758" font-family="Helvetica,sans-Serif" font-size="10.00" fill="#000000">1</text>
</a>
</g>
</g>
<!-- dir_2171f7ec022c5423887b07c69b2f5b48&#45;&gt;dir_7c9998090bca7c4aa89c05dd66fe73f5 -->
<g id="edge33" class="edge">
<title>dir_2171f7ec022c5423887b07c69b2f5b48&#45;&gt;dir_7c9998090bca7c4aa89c05dd66fe73f5</title>
<path fill="none" stroke="#000000" d="M235.2912,-71.8314C248.927,-61.7082 267.1131,-49.0684 283.1052,-38.5811"/>
<polygon fill="#000000" stroke="#000000" points="285.2269,-41.3771 291.7212,-33.0059 281.4241,-35.5001 285.2269,-41.3771"/>
<g id="a_edge33&#45;headlabel"><a xlink:href="dir_000076_000463.html" target="_top" xlink:title="1">
<text text-anchor="middle" x="283.7515" y="-43.2136" font-family="Helvetica,sans-Serif" font-size="10.00" fill="#000000">1</text>
</a>
</g>
</g>
<!-- dir_2171f7ec022c5423887b07c69b2f5b48&#45;&gt;dir_bcbb2cf9a3d3d83e5515c82071a07177 -->
<g id="edge34" class="edge">
<title>dir_2171f7ec022c5423887b07c69b2f5b48&#45;&gt;dir_bcbb2cf9a3d3d83e5515c82071a07177</title>
<path fill="none" stroke="#000000" d="M183.4336,-108.128C162.3643,-118.8139 134.4483,-132.3149 111.074,-143.1278"/>
<polygon fill="#000000" stroke="#000000" points="109.3295,-140.0774 101.701,-147.4297 112.2495,-146.4393 109.3295,-140.0774"/>
<g id="a_edge34&#45;headlabel"><a xlink:href="dir_000076_000013.html" target="_top" xlink:title="7">
<text text-anchor="middle" x="111.4121" y="-133.4976" font-family="Helvetica,sans-Serif" font-size="10.00" fill="#000000">7</text>
</a>
</g>
</g>
</g>
</svg>
        <g id="navigator" transform="translate(0 0)" fill="#404254">
                <rect fill="#f2f5e9" fill-opacity="0.5" stroke="#606060" stroke-width=".5" x="0" y="0" width="60" height="60"/>
                <use id="zoomplus" xlink:href="#zoomPlus" x="17" y="9" onmousedown="handleZoom(evt,'in')"/>
                <use id="zoomminus" xlink:href="#zoomMin" x="42" y="9" onmousedown="handleZoom(evt,'out')"/>
                <use id="reset" xlink:href="#resetDef" x="30" y="36" onmousedown="handleReset()"/>
                <g id="arrowUp" xlink:href="#dirArrow" transform="translate(30 24)" onmousedown="handlePan(0,-1)">
                  <use xlink:href="#rim" fill="#404040">
                        <set attributeName="fill" to="#808080" begin="arrowUp.mouseover" end="arrowUp.mouseout"/>
                  </use>
                  <path fill="none" stroke="white" stroke-width="1.5" d="M0,-3.0v7 M-2.5,-0.5L0,-3.0L2.5,-0.5"/>
                </g>
                <g id="arrowRight" xlink:href="#dirArrow" transform="rotate(90) translate(36 -43)" onmousedown="handlePan(1,0)">
                  <use xlink:href="#rim" fill="#404040">
                        <set attributeName="fill" to="#808080" begin="arrowRight.mouseover" end="arrowRight.mouseout"/>
                  </use>
                  <path fill="none" stroke="white" stroke-width="1.5" d="M0,-3.0v7 M-2.5,-0.5L0,-3.0L2.5,-0.5"/>
                </g>
                <g id="arrowDown" xlink:href="#dirArrow" transform="rotate(180) translate(-30 -48)" onmousedown="handlePan(0,1)">
                  <use xlink:href="#rim" fill="#404040">
                        <set attributeName="fill" to="#808080" begin="arrowDown.mouseover" end="arrowDown.mouseout"/>
                  </use>
                  <path fill="none" stroke="white" stroke-width="1.5" d="M0,-3.0v7 M-2.5,-0.5L0,-3.0L2.5,-0.5"/>
                </g>
                <g id="arrowLeft" xlink:href="#dirArrow" transform="rotate(270) translate(-36 17)" onmousedown="handlePan(-1,0)">
                  <use xlink:href="#rim" fill="#404040">
                        <set attributeName="fill" to="#808080" begin="arrowLeft.mouseover" end="arrowLeft.mouseout"/>
                  </use>
                  <path fill="none" stroke="white" stroke-width="1.5" d="M0,-3.0v7 M-2.5,-0.5L0,-3.0L2.5,-0.5"/>
                </g>
        </g>
        <svg viewBox="0 0 15 15" width="100%" height="30px" preserveAspectRatio="xMaxYMin meet">
         <g id="arrow_out" transform="scale(0.3 0.3)">
          <a xlink:href="dir_36f9785b6e7879c93ce113c7573e321a_dep_org.svg" target="_base">
           <rect id="button" ry="5" rx="5" y="6" x="6" height="38" width="38"
                fill="#f2f5e9" fill-opacity="0.5" stroke="#606060" stroke-width="1.0"/>
           <path id="arrow"
             d="M 11.500037,31.436501 C 11.940474,20.09759 22.043105,11.32322 32.158766,21.979434 L 37.068811,17.246167 C 37.068811,17.246167 37.088388,32 37.088388,32 L 22.160133,31.978069 C 22.160133,31.978069 26.997745,27.140456 26.997745,27.140456 C 18.528582,18.264221 13.291696,25.230495 11.500037,31.436501 z"
             style="fill:#404040;"/>
          </a>
         </g>
        </svg>
</svg>
