<?xml version="1.0" encoding="UTF-8" standalone="no"?>
<!DOCTYPE svg PUBLIC "-//W3C//DTD SVG 1.1//EN"
 "http://www.w3.org/Graphics/SVG/1.1/DTD/svg11.dtd">
<!-- Generated by graphviz version 2.40.1 (20161225.0304)
 -->
<!-- Title: /home/travis/build/AliceO2Group/AliceO2/Detectors/TPC/base Pages: 1 -->
<!--zoomable 591 -->
<svg id="main" version="1.1" xmlns="http://www.w3.org/2000/svg" xmlns:xlink="http://www.w3.org/1999/xlink" xml:space="preserve" onload="init(evt)">
<style type="text/css"><![CDATA[
.edge:hover path { stroke: red; }
.edge:hover polygon { stroke: red; fill: red; }
]]></style>
<script type="text/javascript"><![CDATA[
var edges = document.getElementsByTagName('g');
if (edges && edges.length) {
  for (var i=0;i<edges.length;i++) {
    if (edges[i].id.substr(0,4)=='edge') {
      edges[i].setAttribute('class','edge');
    }
  }
}
]]></script>
        <defs>
                <circle id="rim" cx="0" cy="0" r="7"/>
                <circle id="rim2" cx="0" cy="0" r="3.5"/>
                <g id="zoomPlus">
                        <use xlink:href="#rim" fill="#404040">
                                <set attributeName="fill" to="#808080" begin="zoomplus.mouseover" end="zoomplus.mouseout"/>
                        </use>
                        <path d="M-4,0h8M0,-4v8" fill="none" stroke="white" stroke-width="1.5" pointer-events="none"/>
                </g>
                <g id="zoomMin">
                        <use xlink:href="#rim" fill="#404040">
                                <set attributeName="fill" to="#808080" begin="zoomminus.mouseover" end="zoomminus.mouseout"/>
                        </use>
                        <path d="M-4,0h8" fill="none" stroke="white" stroke-width="1.5" pointer-events="none"/>
                </g>
                <g id="dirArrow">
                        <path fill="none" stroke="white" stroke-width="1.5" d="M0,-3.0v7 M-2.5,-0.5L0,-3.0L2.5,-0.5"/>
                </g>
               <g id="resetDef">
                       <use xlink:href="#rim2" fill="#404040">
                               <set attributeName="fill" to="#808080" begin="reset.mouseover" end="reset.mouseout"/>
                       </use>
               </g>
        </defs>

<script type="text/javascript">
var viewWidth = 382;
var viewHeight = 591;
var sectionId = 'dynsection-0';
</script>
<script xlink:href="svgpan.js"/>
<svg id="graph" class="graph">
<g id="viewport">
<title>/home/travis/build/AliceO2Group/AliceO2/Detectors/TPC/base</title>
<g id="clust1" class="cluster">
<title>clusterdir_a597e8e061b11201a1dff411feb10d0b</title>
<g id="a_clust1"><a xlink:href="dir_a597e8e061b11201a1dff411feb10d0b.html" target="_top" xlink:title="TPC">
<polygon fill="#ddddee" stroke="#000000" points="15,-416 15,-575 245,-575 245,-416 15,-416"/>
<text text-anchor="middle" x="130" y="-563" font-family="Helvetica,sans-Serif" font-size="10.00" fill="#000000">TPC</text>
</a>
</g>
</g>
<g id="clust2" class="cluster">
<title>clusterdir_677b030cc750909e4cd27413873678d8</title>
<g id="a_clust2"><a xlink:href="dir_677b030cc750909e4cd27413873678d8.html" target="_top">
<polygon fill="#eeeeff" stroke="#000000" points="23,-424 23,-548 237,-548 237,-424 23,-424"/>
</a>
</g>
</g>
<!-- dir_677b030cc750909e4cd27413873678d8 -->
<g id="node1" class="node">
<title>dir_677b030cc750909e4cd27413873678d8</title>
<text text-anchor="middle" x="202" y="-519.5" font-family="Helvetica,sans-Serif" font-size="10.00" fill="#000000">base</text>
</g>
<!-- dir_8878d5c3559bc3ebfb711a18a96e91b8 -->
<g id="node2" class="node">
<title>dir_8878d5c3559bc3ebfb711a18a96e91b8</title>
<g id="a_node2"><a xlink:href="dir_8878d5c3559bc3ebfb711a18a96e91b8.html" target="_top" xlink:title="include">
<polygon fill="#ffffff" stroke="#ff0000" points="177,-468 123,-468 123,-432 177,-432 177,-468"/>
<text text-anchor="middle" x="150" y="-447.5" font-family="Helvetica,sans-Serif" font-size="10.00" fill="#000000">include</text>
</a>
</g>
</g>
<!-- dir_4ab6b4cc6a7edbff49100e9123df213f -->
<g id="node5" class="node">
<title>dir_4ab6b4cc6a7edbff49100e9123df213f</title>
<g id="a_node5"><a xlink:href="dir_4ab6b4cc6a7edbff49100e9123df213f.html" target="_top" xlink:title="Common">
<polygon fill="none" stroke="#ff0000" points="223.5,-324 162.5,-324 162.5,-288 223.5,-288 223.5,-324"/>
<text text-anchor="middle" x="193" y="-303.5" font-family="Helvetica,sans-Serif" font-size="10.00" fill="#000000">Common</text>
</a>
</g>
</g>
<!-- dir_8878d5c3559bc3ebfb711a18a96e91b8&#45;&gt;dir_4ab6b4cc6a7edbff49100e9123df213f -->
<g id="edge4" class="edge">
<title>dir_8878d5c3559bc3ebfb711a18a96e91b8&#45;&gt;dir_4ab6b4cc6a7edbff49100e9123df213f</title>
<path fill="none" stroke="#000000" d="M155.446,-431.7623C162.8126,-407.0928 176.021,-362.8598 184.6469,-333.9731"/>
<polygon fill="#000000" stroke="#000000" points="188.0906,-334.673 187.5982,-324.0896 181.3832,-332.6701 188.0906,-334.673"/>
<g id="a_edge4&#45;headlabel"><a xlink:href="dir_000051_000027.html" target="_top" xlink:title="8">
<text text-anchor="middle" x="189.7827" y="-336.4297" font-family="Helvetica,sans-Serif" font-size="10.00" fill="#000000">8</text>
</a>
</g>
</g>
<!-- dir_6af676bf18881990e4083e191d0e63e0 -->
<g id="node6" class="node">
<title>dir_6af676bf18881990e4083e191d0e63e0</title>
<g id="a_node6"><a xlink:href="dir_6af676bf18881990e4083e191d0e63e0.html" target="_top" xlink:title="CCDB">
<polygon fill="none" stroke="#ff0000" points="251,-396 197,-396 197,-360 251,-360 251,-396"/>
<text text-anchor="middle" x="224" y="-375.5" font-family="Helvetica,sans-Serif" font-size="10.00" fill="#000000">CCDB</text>
</a>
</g>
</g>
<!-- dir_8878d5c3559bc3ebfb711a18a96e91b8&#45;&gt;dir_6af676bf18881990e4083e191d0e63e0 -->
<g id="edge5" class="edge">
<title>dir_8878d5c3559bc3ebfb711a18a96e91b8&#45;&gt;dir_6af676bf18881990e4083e191d0e63e0</title>
<path fill="none" stroke="#000000" d="M168.6733,-431.8314C177.5249,-423.219 188.2486,-412.7851 197.8895,-403.4048"/>
<polygon fill="#000000" stroke="#000000" points="200.6061,-405.645 205.3326,-396.1628 195.7246,-400.6279 200.6061,-405.645"/>
<g id="a_edge5&#45;headlabel"><a xlink:href="dir_000051_000019.html" target="_top" xlink:title="2">
<text text-anchor="middle" x="200.0098" y="-407.6866" font-family="Helvetica,sans-Serif" font-size="10.00" fill="#000000">2</text>
</a>
</g>
</g>
<!-- dir_f511f1e9c03c071966ae594f00bbc5e0 -->
<g id="node7" class="node">
<title>dir_f511f1e9c03c071966ae594f00bbc5e0</title>
<g id="a_node7"><a xlink:href="dir_f511f1e9c03c071966ae594f00bbc5e0.html" target="_top" xlink:title="GPU">
<polygon fill="none" stroke="#ff0000" points="158,-252 104,-252 104,-216 158,-216 158,-252"/>
<text text-anchor="middle" x="131" y="-231.5" font-family="Helvetica,sans-Serif" font-size="10.00" fill="#000000">GPU</text>
</a>
</g>
</g>
<!-- dir_8878d5c3559bc3ebfb711a18a96e91b8&#45;&gt;dir_f511f1e9c03c071966ae594f00bbc5e0 -->
<g id="edge6" class="edge">
<title>dir_8878d5c3559bc3ebfb711a18a96e91b8&#45;&gt;dir_f511f1e9c03c071966ae594f00bbc5e0</title>
<path fill="none" stroke="#000000" d="M148.4128,-431.9555C145.1017,-394.3144 137.4377,-307.1867 133.4739,-262.1246"/>
<polygon fill="#000000" stroke="#000000" points="136.959,-261.7999 132.5961,-252.1451 129.9859,-262.4133 136.959,-261.7999"/>
<g id="a_edge6&#45;headlabel"><a xlink:href="dir_000051_000140.html" target="_top" xlink:title="1">
<text text-anchor="middle" x="140.1022" y="-262.6319" font-family="Helvetica,sans-Serif" font-size="10.00" fill="#000000">1</text>
</a>
</g>
</g>
<!-- dir_bcbb2cf9a3d3d83e5515c82071a07177 -->
<g id="node8" class="node">
<title>dir_bcbb2cf9a3d3d83e5515c82071a07177</title>
<g id="a_node8"><a xlink:href="dir_bcbb2cf9a3d3d83e5515c82071a07177.html" target="_top" xlink:title="Framework">
<polygon fill="none" stroke="#ff0000" points="324.5,-36 253.5,-36 253.5,0 324.5,0 324.5,-36"/>
<text text-anchor="middle" x="289" y="-15.5" font-family="Helvetica,sans-Serif" font-size="10.00" fill="#000000">Framework</text>
</a>
</g>
</g>
<!-- dir_8878d5c3559bc3ebfb711a18a96e91b8&#45;&gt;dir_bcbb2cf9a3d3d83e5515c82071a07177 -->
<g id="edge7" class="edge">
<title>dir_8878d5c3559bc3ebfb711a18a96e91b8&#45;&gt;dir_bcbb2cf9a3d3d83e5515c82071a07177</title>
<path fill="none" stroke="#000000" d="M177.0196,-445.7003C236.5968,-434.5222 374,-398.694 374,-306 374,-306 374,-306 374,-162 374,-115.4968 340.719,-70.8088 315.807,-43.8723"/>
<polygon fill="#000000" stroke="#000000" points="318.1469,-41.2543 308.7144,-36.4296 313.0794,-46.0835 318.1469,-41.2543"/>
<g id="a_edge7&#45;headlabel"><a xlink:href="dir_000051_000013.html" target="_top" xlink:title="1">
<text text-anchor="middle" x="322.6822" y="-39.3977" font-family="Helvetica,sans-Serif" font-size="10.00" fill="#000000">1</text>
</a>
</g>
</g>
<!-- dir_26637d1bd82229bc9ed97f7e706be743 -->
<g id="node9" class="node">
<title>dir_26637d1bd82229bc9ed97f7e706be743</title>
<g id="a_node9"><a xlink:href="dir_26637d1bd82229bc9ed97f7e706be743.html" target="_top" xlink:title="Raw">
<polygon fill="none" stroke="#ff0000" points="102,-180 48,-180 48,-144 102,-144 102,-180"/>
<text text-anchor="middle" x="75" y="-159.5" font-family="Helvetica,sans-Serif" font-size="10.00" fill="#000000">Raw</text>
</a>
</g>
</g>
<!-- dir_8878d5c3559bc3ebfb711a18a96e91b8&#45;&gt;dir_26637d1bd82229bc9ed97f7e706be743 -->
<g id="edge8" class="edge">
<title>dir_8878d5c3559bc3ebfb711a18a96e91b8&#45;&gt;dir_26637d1bd82229bc9ed97f7e706be743</title>
<path fill="none" stroke="#000000" d="M140.5298,-431.8128C123.3549,-397.6871 87.6746,-321.2419 75,-252 71.2547,-231.5392 71.4046,-208.0206 72.4115,-190.1574"/>
<polygon fill="#000000" stroke="#000000" points="75.9086,-190.3181 73.101,-180.1021 68.925,-189.8392 75.9086,-190.3181"/>
<g id="a_edge8&#45;headlabel"><a xlink:href="dir_000051_000555.html" target="_top" xlink:title="1">
<text text-anchor="middle" x="78.4954" y="-191.5985" font-family="Helvetica,sans-Serif" font-size="10.00" fill="#000000">1</text>
</a>
</g>
</g>
<!-- dir_2171f7ec022c5423887b07c69b2f5b48 -->
<g id="node10" class="node">
<title>dir_2171f7ec022c5423887b07c69b2f5b48</title>
<g id="a_node10"><a xlink:href="dir_2171f7ec022c5423887b07c69b2f5b48.html" target="_top" xlink:title="DataFormats">
<polygon fill="none" stroke="#ff0000" points="235,-108 155,-108 155,-72 235,-72 235,-108"/>
<text text-anchor="middle" x="195" y="-87.5" font-family="Helvetica,sans-Serif" font-size="10.00" fill="#000000">DataFormats</text>
</a>
</g>
</g>
<!-- dir_8878d5c3559bc3ebfb711a18a96e91b8&#45;&gt;dir_2171f7ec022c5423887b07c69b2f5b48 -->
<g id="edge9" class="edge">
<title>dir_8878d5c3559bc3ebfb711a18a96e91b8&#45;&gt;dir_2171f7ec022c5423887b07c69b2f5b48</title>
<path fill="none" stroke="#000000" d="M177.2106,-445.1019C203.5306,-438.761 241.9992,-424.8897 260,-396 316.5894,-305.1792 247.5666,-172.8954 212.7656,-116.772"/>
<polygon fill="#000000" stroke="#000000" points="215.6019,-114.7087 207.2992,-108.1273 209.6855,-118.4499 215.6019,-114.7087"/>
<g id="a_edge9&#45;headlabel"><a xlink:href="dir_000051_000076.html" target="_top" xlink:title="13">
<text text-anchor="middle" x="219.9228" y="-113.7294" font-family="Helvetica,sans-Serif" font-size="10.00" fill="#000000">13</text>
</a>
</g>
</g>
<!-- dir_e043ce4ff46f8ac51f0381d61fc98f07 -->
<g id="node3" class="node">
<title>dir_e043ce4ff46f8ac51f0381d61fc98f07</title>
<g id="a_node3"><a xlink:href="dir_e043ce4ff46f8ac51f0381d61fc98f07.html" target="_top" xlink:title="src">
<polygon fill="#ffffff" stroke="#000000" points="157,-540 103,-540 103,-504 157,-504 157,-540"/>
<text text-anchor="middle" x="130" y="-519.5" font-family="Helvetica,sans-Serif" font-size="10.00" fill="#000000">src</text>
</a>
</g>
</g>
<!-- dir_e043ce4ff46f8ac51f0381d61fc98f07&#45;&gt;dir_8878d5c3559bc3ebfb711a18a96e91b8 -->
<g id="edge12" class="edge">
<title>dir_e043ce4ff46f8ac51f0381d61fc98f07&#45;&gt;dir_8878d5c3559bc3ebfb711a18a96e91b8</title>
<path fill="none" stroke="#000000" d="M135.0468,-503.8314C137.2094,-496.0463 139.7853,-486.7729 142.1848,-478.1347"/>
<polygon fill="#000000" stroke="#000000" points="145.581,-478.9852 144.8852,-468.4133 138.8364,-477.1117 145.581,-478.9852"/>
<g id="a_edge12&#45;headlabel"><a xlink:href="dir_000157_000051.html" target="_top" xlink:title="36">
<text text-anchor="middle" x="147.3547" y="-480.7086" font-family="Helvetica,sans-Serif" font-size="10.00" fill="#000000">36</text>
</a>
</g>
</g>
<!-- dir_1a7fbcdc62c8ea7270ef7614154c8eb7 -->
<g id="node4" class="node">
<title>dir_1a7fbcdc62c8ea7270ef7614154c8eb7</title>
<g id="a_node4"><a xlink:href="dir_1a7fbcdc62c8ea7270ef7614154c8eb7.html" target="_top" xlink:title="test">
<polygon fill="#ffffff" stroke="#000000" points="85,-540 31,-540 31,-504 85,-504 85,-540"/>
<text text-anchor="middle" x="58" y="-519.5" font-family="Helvetica,sans-Serif" font-size="10.00" fill="#000000">test</text>
</a>
</g>
</g>
<!-- dir_1a7fbcdc62c8ea7270ef7614154c8eb7&#45;&gt;dir_8878d5c3559bc3ebfb711a18a96e91b8 -->
<g id="edge14" class="edge">
<title>dir_1a7fbcdc62c8ea7270ef7614154c8eb7&#45;&gt;dir_8878d5c3559bc3ebfb711a18a96e91b8</title>
<path fill="none" stroke="#000000" d="M81.2155,-503.8314C92.547,-494.9632 106.3464,-484.1637 118.6027,-474.5718"/>
<polygon fill="#000000" stroke="#000000" points="121.074,-477.0822 126.7919,-468.1628 116.7598,-471.5697 121.074,-477.0822"/>
<g id="a_edge14&#45;headlabel"><a xlink:href="dir_000581_000051.html" target="_top" xlink:title="18">
<text text-anchor="middle" x="119.9931" y="-479.0335" font-family="Helvetica,sans-Serif" font-size="10.00" fill="#000000">18</text>
</a>
</g>
</g>
<!-- dir_1a7fbcdc62c8ea7270ef7614154c8eb7&#45;&gt;dir_4ab6b4cc6a7edbff49100e9123df213f -->
<g id="edge13" class="edge">
<title>dir_1a7fbcdc62c8ea7270ef7614154c8eb7&#45;&gt;dir_4ab6b4cc6a7edbff49100e9123df213f</title>
<path fill="none" stroke="#000000" d="M66.591,-503.9555C77.0086,-482.5216 95.4823,-445.9051 114,-416 132.3582,-386.3525 155.9606,-354.1367 172.569,-332.2795"/>
<polygon fill="#000000" stroke="#000000" points="175.4893,-334.2224 178.7846,-324.1531 169.9292,-329.9697 175.4893,-334.2224"/>
<g id="a_edge13&#45;headlabel"><a xlink:href="dir_000581_000027.html" target="_top" xlink:title="4">
<text text-anchor="middle" x="175.5607" y="-336.3025" font-family="Helvetica,sans-Serif" font-size="10.00" fill="#000000">4</text>
</a>
</g>
</g>
<!-- dir_1a7fbcdc62c8ea7270ef7614154c8eb7&#45;&gt;dir_2171f7ec022c5423887b07c69b2f5b48 -->
<g id="edge15" class="edge">
<title>dir_1a7fbcdc62c8ea7270ef7614154c8eb7&#45;&gt;dir_2171f7ec022c5423887b07c69b2f5b48</title>
<path fill="none" stroke="#000000" d="M45.4149,-503.8478C28.3566,-477.4241 0,-426.2435 0,-378 0,-378 0,-378 0,-234 0,-190.4059 7.0305,-173.6377 39,-144 68.0471,-117.0715 111.1971,-103.4801 144.7572,-96.6736"/>
<polygon fill="#000000" stroke="#000000" points="145.6605,-100.065 154.8383,-94.7718 144.3628,-93.1864 145.6605,-100.065"/>
<g id="a_edge15&#45;headlabel"><a xlink:href="dir_000581_000076.html" target="_top" xlink:title="2">
<text text-anchor="middle" x="142.6545" y="-101.0214" font-family="Helvetica,sans-Serif" font-size="10.00" fill="#000000">2</text>
</a>
</g>
</g>
<!-- dir_4ab6b4cc6a7edbff49100e9123df213f&#45;&gt;dir_f511f1e9c03c071966ae594f00bbc5e0 -->
<g id="edge1" class="edge">
<title>dir_4ab6b4cc6a7edbff49100e9123df213f&#45;&gt;dir_f511f1e9c03c071966ae594f00bbc5e0</title>
<path fill="none" stroke="#000000" d="M171.4024,-287.8314C163.4533,-279.5386 154.664,-269.557 147.2448,-260.4533"/>
<polygon fill="#000000" stroke="#000000" points="149.831,-258.0814 140.8799,-252.4133 144.3427,-262.4263 149.831,-258.0814"/>
<g id="a_edge1&#45;headlabel"><a xlink:href="dir_000027_000140.html" target="_top" xlink:title="3">
<text text-anchor="middle" x="154.2883" y="-256.6374" font-family="Helvetica,sans-Serif" font-size="10.00" fill="#000000">3</text>
</a>
</g>
</g>
<!-- dir_4ab6b4cc6a7edbff49100e9123df213f&#45;&gt;dir_bcbb2cf9a3d3d83e5515c82071a07177 -->
<g id="edge2" class="edge">
<title>dir_4ab6b4cc6a7edbff49100e9123df213f&#45;&gt;dir_bcbb2cf9a3d3d83e5515c82071a07177</title>
<path fill="none" stroke="#000000" d="M193.4131,-287.6892C196.926,-277.3195 202.567,-264.0498 207,-252 234.0585,-178.4504 259.9632,-89.6287 275.7222,-45.567"/>
<polygon fill="#000000" stroke="#000000" points="279.0323,-46.7069 279.2159,-36.1137 272.4663,-44.2803 279.0323,-46.7069"/>
<g id="a_edge2&#45;headlabel"><a xlink:href="dir_000027_000013.html" target="_top" xlink:title="2">
<text text-anchor="middle" x="280.4494" y="-48.5629" font-family="Helvetica,sans-Serif" font-size="10.00" fill="#000000">2</text>
</a>
</g>
</g>
<!-- dir_4ab6b4cc6a7edbff49100e9123df213f&#45;&gt;dir_2171f7ec022c5423887b07c69b2f5b48 -->
<g id="edge3" class="edge">
<title>dir_4ab6b4cc6a7edbff49100e9123df213f&#45;&gt;dir_2171f7ec022c5423887b07c69b2f5b48</title>
<path fill="none" stroke="#000000" d="M189.2212,-287.9555C186.1112,-250.3144 186.6587,-163.1867 190.0157,-118.1246"/>
<polygon fill="#000000" stroke="#000000" points="193.5041,-118.409 190.8769,-108.1451 186.53,-117.8071 193.5041,-118.409"/>
<g id="a_edge3&#45;headlabel"><a xlink:href="dir_000027_000076.html" target="_top" xlink:title="2">
<text text-anchor="middle" x="196.0239" y="-119.7343" font-family="Helvetica,sans-Serif" font-size="10.00" fill="#000000">2</text>
</a>
</g>
</g>
<!-- dir_6af676bf18881990e4083e191d0e63e0&#45;&gt;dir_4ab6b4cc6a7edbff49100e9123df213f -->
<g id="edge10" class="edge">
<title>dir_6af676bf18881990e4083e191d0e63e0&#45;&gt;dir_4ab6b4cc6a7edbff49100e9123df213f</title>
<path fill="none" stroke="#000000" d="M216.1774,-359.8314C212.7891,-351.9617 208.7459,-342.5712 204.9924,-333.8533"/>
<polygon fill="#000000" stroke="#000000" points="208.0973,-332.214 200.9279,-324.4133 201.6679,-334.9822 208.0973,-332.214"/>
<g id="a_edge10&#45;headlabel"><a xlink:href="dir_000019_000027.html" target="_top" xlink:title="4">
<text text-anchor="middle" x="212.1266" y="-331.8928" font-family="Helvetica,sans-Serif" font-size="10.00" fill="#000000">4</text>
</a>
</g>
</g>
<!-- dir_6af676bf18881990e4083e191d0e63e0&#45;&gt;dir_bcbb2cf9a3d3d83e5515c82071a07177 -->
<g id="edge11" class="edge">
<title>dir_6af676bf18881990e4083e191d0e63e0&#45;&gt;dir_bcbb2cf9a3d3d83e5515c82071a07177</title>
<path fill="none" stroke="#000000" d="M251.1121,-360.104C284.2588,-335.8283 336,-289.1085 336,-234 336,-234 336,-234 336,-162 336,-119.6562 317.4068,-73.6118 303.6094,-45.273"/>
<polygon fill="#000000" stroke="#000000" points="306.5809,-43.3907 298.9675,-36.0228 300.3245,-46.5304 306.5809,-43.3907"/>
<g id="a_edge11&#45;headlabel"><a xlink:href="dir_000019_000013.html" target="_top" xlink:title="2">
<text text-anchor="middle" x="310.7308" y="-42.8301" font-family="Helvetica,sans-Serif" font-size="10.00" fill="#000000">2</text>
</a>
</g>
</g>
<!-- dir_f511f1e9c03c071966ae594f00bbc5e0&#45;&gt;dir_4ab6b4cc6a7edbff49100e9123df213f -->
<g id="edge16" class="edge">
<title>dir_f511f1e9c03c071966ae594f00bbc5e0&#45;&gt;dir_4ab6b4cc6a7edbff49100e9123df213f</title>
<path fill="none" stroke="#000000" d="M152.8319,-252.4133C160.7973,-260.7389 169.5812,-270.7282 176.9732,-279.8144"/>
<polygon fill="#000000" stroke="#000000" points="174.3615,-282.1546 183.3072,-287.8314 179.8541,-277.815 174.3615,-282.1546"/>
<g id="a_edge16&#45;headlabel"><a xlink:href="dir_000140_000027.html" target="_top" xlink:title="2">
<text text-anchor="middle" x="169.9053" y="-278.5942" font-family="Helvetica,sans-Serif" font-size="10.00" fill="#000000">2</text>
</a>
</g>
</g>
<!-- dir_f511f1e9c03c071966ae594f00bbc5e0&#45;&gt;dir_26637d1bd82229bc9ed97f7e706be743 -->
<g id="edge17" class="edge">
<title>dir_f511f1e9c03c071966ae594f00bbc5e0&#45;&gt;dir_26637d1bd82229bc9ed97f7e706be743</title>
<path fill="none" stroke="#000000" d="M110.9164,-215.8314C103.7324,-207.6232 95.8632,-197.7606 89.2447,-188.7323"/>
<polygon fill="#000000" stroke="#000000" points="91.985,-186.5459 83.3454,-180.4133 86.2749,-190.5951 91.985,-186.5459"/>
<g id="a_edge17&#45;headlabel"><a xlink:href="dir_000140_000555.html" target="_top" xlink:title="1">
<text text-anchor="middle" x="96.3803" y="-185.3357" font-family="Helvetica,sans-Serif" font-size="10.00" fill="#000000">1</text>
</a>
</g>
</g>
<!-- dir_f511f1e9c03c071966ae594f00bbc5e0&#45;&gt;dir_2171f7ec022c5423887b07c69b2f5b48 -->
<g id="edge18" class="edge">
<title>dir_f511f1e9c03c071966ae594f00bbc5e0&#45;&gt;dir_2171f7ec022c5423887b07c69b2f5b48</title>
<path fill="none" stroke="#000000" d="M134.4325,-215.7623C143.0005,-190.8764 162.6599,-146.0822 177.4833,-117.2165"/>
<polygon fill="#000000" stroke="#000000" points="180.7281,-118.5669 182.3019,-108.0896 174.5379,-115.2987 180.7281,-118.5669"/>
<g id="a_edge18&#45;headlabel"><a xlink:href="dir_000140_000076.html" target="_top" xlink:title="12">
<text text-anchor="middle" x="181.5607" y="-120.5713" font-family="Helvetica,sans-Serif" font-size="10.00" fill="#000000">12</text>
</a>
</g>
</g>
<!-- dir_bcbb2cf9a3d3d83e5515c82071a07177&#45;&gt;dir_4ab6b4cc6a7edbff49100e9123df213f -->
<g id="edge19" class="edge">
<title>dir_bcbb2cf9a3d3d83e5515c82071a07177&#45;&gt;dir_4ab6b4cc6a7edbff49100e9123df213f</title>
<path fill="none" stroke="#000000" d="M288.8245,-36.1137C281.9918,-75.6985 254.1662,-172.7212 225,-252 221.7791,-260.7549 217.9206,-270.1538 213.8807,-278.6165"/>
<polygon fill="#000000" stroke="#000000" points="210.6801,-277.189 209.2669,-287.6892 216.9197,-280.3621 210.6801,-277.189"/>
<g id="a_edge19&#45;headlabel"><a xlink:href="dir_000013_000027.html" target="_top" xlink:title="9">
<text text-anchor="middle" x="209.7787" y="-270.1979" font-family="Helvetica,sans-Serif" font-size="10.00" fill="#000000">9</text>
</a>
</g>
</g>
<!-- dir_bcbb2cf9a3d3d83e5515c82071a07177&#45;&gt;dir_2171f7ec022c5423887b07c69b2f5b48 -->
<g id="edge20" class="edge">
<title>dir_bcbb2cf9a3d3d83e5515c82071a07177&#45;&gt;dir_2171f7ec022c5423887b07c69b2f5b48</title>
<path fill="none" stroke="#000000" d="M271.2392,-36.1628C260.424,-45.1154 246.3218,-56.0374 233.15,-65.6982"/>
<polygon fill="#000000" stroke="#000000" points="230.7231,-63.1341 224.6726,-71.8314 234.8261,-68.8055 230.7231,-63.1341"/>
<g id="a_edge20&#45;headlabel"><a xlink:href="dir_000013_000076.html" target="_top" xlink:title="82">
<text text-anchor="middle" x="231.9712" y="-56.2268" font-family="Helvetica,sans-Serif" font-size="10.00" fill="#000000">82</text>
</a>
</g>
</g>
<!-- dir_26637d1bd82229bc9ed97f7e706be743&#45;&gt;dir_4ab6b4cc6a7edbff49100e9123df213f -->
<g id="edge21" class="edge">
<title>dir_26637d1bd82229bc9ed97f7e706be743&#45;&gt;dir_4ab6b4cc6a7edbff49100e9123df213f</title>
<path fill="none" stroke="#000000" d="M74.7826,-180.0191C75.4347,-199.5848 79.1662,-230.8627 95,-252 109.3775,-271.1932 132.6775,-284.4327 152.9514,-292.9974"/>
<polygon fill="#000000" stroke="#000000" points="151.7232,-296.2755 162.3087,-296.7199 154.3107,-289.7713 151.7232,-296.2755"/>
<g id="a_edge21&#45;headlabel"><a xlink:href="dir_000555_000027.html" target="_top" xlink:title="6">
<text text-anchor="middle" x="147.3336" y="-295.085" font-family="Helvetica,sans-Serif" font-size="10.00" fill="#000000">6</text>
</a>
</g>
</g>
<!-- dir_26637d1bd82229bc9ed97f7e706be743&#45;&gt;dir_f511f1e9c03c071966ae594f00bbc5e0 -->
<g id="edge22" class="edge">
<title>dir_26637d1bd82229bc9ed97f7e706be743&#45;&gt;dir_f511f1e9c03c071966ae594f00bbc5e0</title>
<path fill="none" stroke="#000000" d="M95.2974,-180.4133C102.4948,-188.654 110.3583,-198.5245 116.9518,-207.536"/>
<polygon fill="#000000" stroke="#000000" points="114.1881,-209.6897 122.8212,-215.8314 119.9024,-205.6465 114.1881,-209.6897"/>
<g id="a_edge22&#45;headlabel"><a xlink:href="dir_000555_000140.html" target="_top" xlink:title="2">
<text text-anchor="middle" x="109.7942" y="-205.8952" font-family="Helvetica,sans-Serif" font-size="10.00" fill="#000000">2</text>
</a>
</g>
</g>
<!-- dir_26637d1bd82229bc9ed97f7e706be743&#45;&gt;dir_bcbb2cf9a3d3d83e5515c82071a07177 -->
<g id="edge23" class="edge">
<title>dir_26637d1bd82229bc9ed97f7e706be743&#45;&gt;dir_bcbb2cf9a3d3d83e5515c82071a07177</title>
<path fill="none" stroke="#000000" d="M85.2719,-143.6867C97.4038,-123.5646 119.3436,-91.516 146,-72 175.2411,-50.5916 213.978,-36.6572 243.7586,-28.3148"/>
<polygon fill="#000000" stroke="#000000" points="244.7407,-31.6752 253.4881,-25.6974 242.9222,-24.9155 244.7407,-31.6752"/>
<g id="a_edge23&#45;headlabel"><a xlink:href="dir_000555_000013.html" target="_top" xlink:title="24">
<text text-anchor="middle" x="242.0071" y="-32.8507" font-family="Helvetica,sans-Serif" font-size="10.00" fill="#000000">24</text>
</a>
</g>
</g>
<!-- dir_26637d1bd82229bc9ed97f7e706be743&#45;&gt;dir_2171f7ec022c5423887b07c69b2f5b48 -->
<g id="edge24" class="edge">
<title>dir_26637d1bd82229bc9ed97f7e706be743&#45;&gt;dir_2171f7ec022c5423887b07c69b2f5b48</title>
<path fill="none" stroke="#000000" d="M102.2299,-145.6621C118.1291,-136.1226 138.4567,-123.926 156.0293,-113.3824"/>
<polygon fill="#000000" stroke="#000000" points="158.1552,-116.1886 164.9294,-108.0423 154.5537,-110.1861 158.1552,-116.1886"/>
<g id="a_edge24&#45;headlabel"><a xlink:href="dir_000555_000076.html" target="_top" xlink:title="11">
<text text-anchor="middle" x="156.5337" y="-117.9726" font-family="Helvetica,sans-Serif" font-size="10.00" fill="#000000">11</text>
</a>
</g>
</g>
<!-- dir_2171f7ec022c5423887b07c69b2f5b48&#45;&gt;dir_4ab6b4cc6a7edbff49100e9123df213f -->
<g id="edge25" class="edge">
<title>dir_2171f7ec022c5423887b07c69b2f5b48&#45;&gt;dir_4ab6b4cc6a7edbff49100e9123df213f</title>
<path fill="none" stroke="#000000" d="M198.7871,-108.1451C201.884,-145.7945 201.3397,-232.6409 197.9965,-277.7103"/>
<polygon fill="#000000" stroke="#000000" points="194.4852,-277.6917 197.113,-287.9555 201.4594,-278.2932 194.4852,-277.6917"/>
<g id="a_edge25&#45;headlabel"><a xlink:href="dir_000076_000027.html" target="_top" xlink:title="33">
<text text-anchor="middle" x="191.9652" y="-271.3665" font-family="Helvetica,sans-Serif" font-size="10.00" fill="#000000">33</text>
</a>
</g>
</g>
<!-- dir_2171f7ec022c5423887b07c69b2f5b48&#45;&gt;dir_f511f1e9c03c071966ae594f00bbc5e0 -->
<g id="edge26" class="edge">
<title>dir_2171f7ec022c5423887b07c69b2f5b48&#45;&gt;dir_f511f1e9c03c071966ae594f00bbc5e0</title>
<path fill="none" stroke="#000000" d="M191.6185,-108.0896C183.0945,-132.8962 163.4476,-177.6824 148.6052,-206.6113"/>
<polygon fill="#000000" stroke="#000000" points="145.3481,-205.2843 143.7788,-215.7623 151.5397,-208.5499 145.3481,-205.2843"/>
<g id="a_edge26&#45;headlabel"><a xlink:href="dir_000076_000140.html" target="_top" xlink:title="11">
<text text-anchor="middle" x="144.5136" y="-198.2803" font-family="Helvetica,sans-Serif" font-size="10.00" fill="#000000">11</text>
</a>
</g>
</g>
<!-- dir_2171f7ec022c5423887b07c69b2f5b48&#45;&gt;dir_bcbb2cf9a3d3d83e5515c82071a07177 -->
<g id="edge27" class="edge">
<title>dir_2171f7ec022c5423887b07c69b2f5b48&#45;&gt;dir_bcbb2cf9a3d3d83e5515c82071a07177</title>
<path fill="none" stroke="#000000" d="M212.7678,-71.8314C223.5844,-62.8779 237.6872,-51.9558 250.8585,-42.2955"/>
<polygon fill="#000000" stroke="#000000" points="253.285,-44.86 259.3356,-36.1628 249.182,-39.1885 253.285,-44.86"/>
<g id="a_edge27&#45;headlabel"><a xlink:href="dir_000076_000013.html" target="_top" xlink:title="7">
<text text-anchor="middle" x="252.0368" y="-46.7673" font-family="Helvetica,sans-Serif" font-size="10.00" fill="#000000">7</text>
</a>
</g>
</g>
</g>
</svg>
        <g id="navigator" transform="translate(0 0)" fill="#404254">
                <rect fill="#f2f5e9" fill-opacity="0.5" stroke="#606060" stroke-width=".5" x="0" y="0" width="60" height="60"/>
                <use id="zoomplus" xlink:href="#zoomPlus" x="17" y="9" onmousedown="handleZoom(evt,'in')"/>
                <use id="zoomminus" xlink:href="#zoomMin" x="42" y="9" onmousedown="handleZoom(evt,'out')"/>
                <use id="reset" xlink:href="#resetDef" x="30" y="36" onmousedown="handleReset()"/>
                <g id="arrowUp" xlink:href="#dirArrow" transform="translate(30 24)" onmousedown="handlePan(0,-1)">
                  <use xlink:href="#rim" fill="#404040">
                        <set attributeName="fill" to="#808080" begin="arrowUp.mouseover" end="arrowUp.mouseout"/>
                  </use>
                  <path fill="none" stroke="white" stroke-width="1.5" d="M0,-3.0v7 M-2.5,-0.5L0,-3.0L2.5,-0.5"/>
                </g>
                <g id="arrowRight" xlink:href="#dirArrow" transform="rotate(90) translate(36 -43)" onmousedown="handlePan(1,0)">
                  <use xlink:href="#rim" fill="#404040">
                        <set attributeName="fill" to="#808080" begin="arrowRight.mouseover" end="arrowRight.mouseout"/>
                  </use>
                  <path fill="none" stroke="white" stroke-width="1.5" d="M0,-3.0v7 M-2.5,-0.5L0,-3.0L2.5,-0.5"/>
                </g>
                <g id="arrowDown" xlink:href="#dirArrow" transform="rotate(180) translate(-30 -48)" onmousedown="handlePan(0,1)">
                  <use xlink:href="#rim" fill="#404040">
                        <set attributeName="fill" to="#808080" begin="arrowDown.mouseover" end="arrowDown.mouseout"/>
                  </use>
                  <path fill="none" stroke="white" stroke-width="1.5" d="M0,-3.0v7 M-2.5,-0.5L0,-3.0L2.5,-0.5"/>
                </g>
                <g id="arrowLeft" xlink:href="#dirArrow" transform="rotate(270) translate(-36 17)" onmousedown="handlePan(-1,0)">
                  <use xlink:href="#rim" fill="#404040">
                        <set attributeName="fill" to="#808080" begin="arrowLeft.mouseover" end="arrowLeft.mouseout"/>
                  </use>
                  <path fill="none" stroke="white" stroke-width="1.5" d="M0,-3.0v7 M-2.5,-0.5L0,-3.0L2.5,-0.5"/>
                </g>
        </g>
        <svg viewBox="0 0 15 15" width="100%" height="30px" preserveAspectRatio="xMaxYMin meet">
         <g id="arrow_out" transform="scale(0.3 0.3)">
          <a xlink:href="dir_677b030cc750909e4cd27413873678d8_dep_org.svg" target="_base">
           <rect id="button" ry="5" rx="5" y="6" x="6" height="38" width="38"
                fill="#f2f5e9" fill-opacity="0.5" stroke="#606060" stroke-width="1.0"/>
           <path id="arrow"
             d="M 11.500037,31.436501 C 11.940474,20.09759 22.043105,11.32322 32.158766,21.979434 L 37.068811,17.246167 C 37.068811,17.246167 37.088388,32 37.088388,32 L 22.160133,31.978069 C 22.160133,31.978069 26.997745,27.140456 26.997745,27.140456 C 18.528582,18.264221 13.291696,25.230495 11.500037,31.436501 z"
             style="fill:#404040;"/>
          </a>
         </g>
        </svg>
</svg>
