<?xml version="1.0" encoding="UTF-8" standalone="no"?>
<!DOCTYPE svg PUBLIC "-//W3C//DTD SVG 1.1//EN"
 "http://www.w3.org/Graphics/SVG/1.1/DTD/svg11.dtd">
<!-- Generated by graphviz version 2.40.1 (20161225.0304)
 -->
<!-- Title: /home/travis/build/AliceO2Group/AliceO2/Detectors/MUON/MID Pages: 1 -->
<svg width="712pt" height="663pt"
 viewBox="0.00 0.00 712.00 663.00" xmlns="http://www.w3.org/2000/svg" xmlns:xlink="http://www.w3.org/1999/xlink">
<g id="graph0" class="graph" transform="scale(1 1) rotate(0) translate(4 659)">
<title>/home/travis/build/AliceO2Group/AliceO2/Detectors/MUON/MID</title>
<g id="clust1" class="cluster">
<title>clusterdir_1cc233fd3b1202b9dad36810b41b97af</title>
<g id="a_clust1"><a xlink:href="dir_1cc233fd3b1202b9dad36810b41b97af.html" target="_top" xlink:title="MUON">
<polygon fill="#ddddee" stroke="#000000" points="126,-272 126,-647 386,-647 386,-272 126,-272"/>
<text text-anchor="middle" x="256" y="-635" font-family="Helvetica,sans-Serif" font-size="10.00" fill="#000000">MUON</text>
</a>
</g>
</g>
<g id="clust2" class="cluster">
<title>clusterdir_9e24c537087392bd208449d0b48c466c</title>
<g id="a_clust2"><a xlink:href="dir_9e24c537087392bd208449d0b48c466c.html" target="_top">
<polygon fill="#eeeeff" stroke="#000000" points="134,-280 134,-620 378,-620 378,-280 134,-280"/>
</a>
</g>
</g>
<!-- dir_9e24c537087392bd208449d0b48c466c -->
<g id="node1" class="node">
<title>dir_9e24c537087392bd208449d0b48c466c</title>
<text text-anchor="middle" x="298" y="-591.5" font-family="Helvetica,sans-Serif" font-size="10.00" fill="#000000">MID</text>
</g>
<!-- dir_b5547b1068d53f0f904ee5a2a84992af -->
<g id="node2" class="node">
<title>dir_b5547b1068d53f0f904ee5a2a84992af</title>
<g id="a_node2"><a xlink:href="dir_b5547b1068d53f0f904ee5a2a84992af.html" target="_top" xlink:title="Base">
<polygon fill="#ffffff" stroke="#ff0000" points="330,-324 276,-324 276,-288 330,-288 330,-324"/>
<text text-anchor="middle" x="303" y="-303.5" font-family="Helvetica,sans-Serif" font-size="10.00" fill="#000000">Base</text>
</a>
</g>
</g>
<!-- dir_4ab6b4cc6a7edbff49100e9123df213f -->
<g id="node9" class="node">
<title>dir_4ab6b4cc6a7edbff49100e9123df213f</title>
<g id="a_node9"><a xlink:href="dir_4ab6b4cc6a7edbff49100e9123df213f.html" target="_top" xlink:title="Common">
<polygon fill="none" stroke="#ff0000" points="333.5,-252 272.5,-252 272.5,-216 333.5,-216 333.5,-252"/>
<text text-anchor="middle" x="303" y="-231.5" font-family="Helvetica,sans-Serif" font-size="10.00" fill="#000000">Common</text>
</a>
</g>
</g>
<!-- dir_b5547b1068d53f0f904ee5a2a84992af&#45;&gt;dir_4ab6b4cc6a7edbff49100e9123df213f -->
<g id="edge33" class="edge">
<title>dir_b5547b1068d53f0f904ee5a2a84992af&#45;&gt;dir_4ab6b4cc6a7edbff49100e9123df213f</title>
<path fill="none" stroke="#000000" d="M303,-287.8314C303,-280.131 303,-270.9743 303,-262.4166"/>
<polygon fill="#000000" stroke="#000000" points="306.5001,-262.4132 303,-252.4133 299.5001,-262.4133 306.5001,-262.4132"/>
<g id="a_edge33&#45;headlabel"><a xlink:href="dir_000547_000027.html" target="_top" xlink:title="1">
<text text-anchor="middle" x="309.3393" y="-263.5079" font-family="Helvetica,sans-Serif" font-size="10.00" fill="#000000">1</text>
</a>
</g>
</g>
<!-- dir_754f2fe7806627988f6bd801b7f2fe5b -->
<g id="node3" class="node">
<title>dir_754f2fe7806627988f6bd801b7f2fe5b</title>
<g id="a_node3"><a xlink:href="dir_754f2fe7806627988f6bd801b7f2fe5b.html" target="_top" xlink:title="Clustering">
<polygon fill="#ffffff" stroke="#ff0000" points="330,-468 264,-468 264,-432 330,-432 330,-468"/>
<text text-anchor="middle" x="297" y="-447.5" font-family="Helvetica,sans-Serif" font-size="10.00" fill="#000000">Clustering</text>
</a>
</g>
</g>
<!-- dir_754f2fe7806627988f6bd801b7f2fe5b&#45;&gt;dir_b5547b1068d53f0f904ee5a2a84992af -->
<g id="edge3" class="edge">
<title>dir_754f2fe7806627988f6bd801b7f2fe5b&#45;&gt;dir_b5547b1068d53f0f904ee5a2a84992af</title>
<path fill="none" stroke="#000000" d="M297.7599,-431.7623C298.7833,-407.201 300.6147,-363.2474 301.8186,-334.3541"/>
<polygon fill="#000000" stroke="#000000" points="305.3268,-334.2267 302.2463,-324.0896 298.3329,-333.9352 305.3268,-334.2267"/>
<g id="a_edge3&#45;headlabel"><a xlink:href="dir_000416_000547.html" target="_top" xlink:title="8">
<text text-anchor="middle" x="308.0141" y="-335.4364" font-family="Helvetica,sans-Serif" font-size="10.00" fill="#000000">8</text>
</a>
</g>
</g>
<!-- dir_2171f7ec022c5423887b07c69b2f5b48 -->
<g id="node13" class="node">
<title>dir_2171f7ec022c5423887b07c69b2f5b48</title>
<g id="a_node13"><a xlink:href="dir_2171f7ec022c5423887b07c69b2f5b48.html" target="_top" xlink:title="DataFormats">
<polygon fill="none" stroke="#ff0000" points="478,-108 398,-108 398,-72 478,-72 478,-108"/>
<text text-anchor="middle" x="438" y="-87.5" font-family="Helvetica,sans-Serif" font-size="10.00" fill="#000000">DataFormats</text>
</a>
</g>
</g>
<!-- dir_754f2fe7806627988f6bd801b7f2fe5b&#45;&gt;dir_2171f7ec022c5423887b07c69b2f5b48 -->
<g id="edge4" class="edge">
<title>dir_754f2fe7806627988f6bd801b7f2fe5b&#45;&gt;dir_2171f7ec022c5423887b07c69b2f5b48</title>
<path fill="none" stroke="#000000" d="M330.2693,-447.6392C394.4995,-442.4098 532.2373,-427.7161 566,-396 596.1729,-367.6561 590,-347.3978 590,-306 590,-306 590,-306 590,-234 590,-192.6022 593.1751,-175.2296 566,-144 546.0646,-121.0903 514.7742,-107.6533 488.1215,-99.9131"/>
<polygon fill="#000000" stroke="#000000" points="488.7342,-96.453 478.167,-97.2176 486.9046,-103.2097 488.7342,-96.453"/>
<g id="a_edge4&#45;headlabel"><a xlink:href="dir_000416_000076.html" target="_top" xlink:title="5">
<text text-anchor="middle" x="492.9459" y="-92.1519" font-family="Helvetica,sans-Serif" font-size="10.00" fill="#000000">5</text>
</a>
</g>
</g>
<!-- dir_55bb03bc4479a61c5f6db133927cb48c -->
<g id="node4" class="node">
<title>dir_55bb03bc4479a61c5f6db133927cb48c</title>
<g id="a_node4"><a xlink:href="dir_55bb03bc4479a61c5f6db133927cb48c.html" target="_top" xlink:title="Raw">
<polygon fill="#ffffff" stroke="#ff0000" points="370,-396 316,-396 316,-360 370,-360 370,-396"/>
<text text-anchor="middle" x="343" y="-375.5" font-family="Helvetica,sans-Serif" font-size="10.00" fill="#000000">Raw</text>
</a>
</g>
</g>
<!-- dir_55bb03bc4479a61c5f6db133927cb48c&#45;&gt;dir_b5547b1068d53f0f904ee5a2a84992af -->
<g id="edge17" class="edge">
<title>dir_55bb03bc4479a61c5f6db133927cb48c&#45;&gt;dir_b5547b1068d53f0f904ee5a2a84992af</title>
<path fill="none" stroke="#000000" d="M332.9063,-359.8314C328.4403,-351.7925 323.0925,-342.1666 318.1621,-333.2918"/>
<polygon fill="#000000" stroke="#000000" points="321.1456,-331.4551 313.2296,-324.4133 315.0265,-334.8546 321.1456,-331.4551"/>
<g id="a_edge17&#45;headlabel"><a xlink:href="dir_000419_000547.html" target="_top" xlink:title="7">
<text text-anchor="middle" x="325.3732" y="-330.7185" font-family="Helvetica,sans-Serif" font-size="10.00" fill="#000000">7</text>
</a>
</g>
</g>
<!-- dir_55bb03bc4479a61c5f6db133927cb48c&#45;&gt;dir_4ab6b4cc6a7edbff49100e9123df213f -->
<g id="edge16" class="edge">
<title>dir_55bb03bc4479a61c5f6db133927cb48c&#45;&gt;dir_4ab6b4cc6a7edbff49100e9123df213f</title>
<path fill="none" stroke="#000000" d="M315.9745,-366.8087C298.5298,-357.9893 277.2456,-343.8482 267,-324 256.3992,-303.4635 258.445,-293.4694 267,-272 268.7114,-267.7051 271.1644,-263.6164 273.9966,-259.8217"/>
<polygon fill="#000000" stroke="#000000" points="276.8286,-261.8951 280.6618,-252.018 271.5058,-257.3489 276.8286,-261.8951"/>
<g id="a_edge16&#45;headlabel"><a xlink:href="dir_000419_000027.html" target="_top" xlink:title="1">
<text text-anchor="middle" x="276.653" y="-263.9724" font-family="Helvetica,sans-Serif" font-size="10.00" fill="#000000">1</text>
</a>
</g>
</g>
<!-- dir_26637d1bd82229bc9ed97f7e706be743 -->
<g id="node12" class="node">
<title>dir_26637d1bd82229bc9ed97f7e706be743</title>
<g id="a_node12"><a xlink:href="dir_26637d1bd82229bc9ed97f7e706be743.html" target="_top" xlink:title="Raw">
<polygon fill="none" stroke="#ff0000" points="448,-324 394,-324 394,-288 448,-288 448,-324"/>
<text text-anchor="middle" x="421" y="-303.5" font-family="Helvetica,sans-Serif" font-size="10.00" fill="#000000">Raw</text>
</a>
</g>
</g>
<!-- dir_55bb03bc4479a61c5f6db133927cb48c&#45;&gt;dir_26637d1bd82229bc9ed97f7e706be743 -->
<g id="edge18" class="edge">
<title>dir_55bb03bc4479a61c5f6db133927cb48c&#45;&gt;dir_26637d1bd82229bc9ed97f7e706be743</title>
<path fill="none" stroke="#000000" d="M362.6827,-359.8314C372.1051,-351.1337 383.5401,-340.5783 393.7796,-331.1265"/>
<polygon fill="#000000" stroke="#000000" points="396.3495,-333.5175 401.3236,-324.1628 391.6016,-328.3738 396.3495,-333.5175"/>
<g id="a_edge18&#45;headlabel"><a xlink:href="dir_000419_000555.html" target="_top" xlink:title="2">
<text text-anchor="middle" x="395.634" y="-335.5419" font-family="Helvetica,sans-Serif" font-size="10.00" fill="#000000">2</text>
</a>
</g>
</g>
<!-- dir_55bb03bc4479a61c5f6db133927cb48c&#45;&gt;dir_2171f7ec022c5423887b07c69b2f5b48 -->
<g id="edge19" class="edge">
<title>dir_55bb03bc4479a61c5f6db133927cb48c&#45;&gt;dir_2171f7ec022c5423887b07c69b2f5b48</title>
<path fill="none" stroke="#000000" d="M370.1514,-371.9301C408.6373,-362.7134 475.9559,-344.1208 490,-324 535.7885,-258.3996 519.9161,-218.1959 490,-144 485.6775,-133.2796 478.0956,-123.4983 470.0361,-115.2948"/>
<polygon fill="#000000" stroke="#000000" points="472.2442,-112.5652 462.5801,-108.2228 467.427,-117.644 472.2442,-112.5652"/>
<g id="a_edge19&#45;headlabel"><a xlink:href="dir_000419_000076.html" target="_top" xlink:title="17">
<text text-anchor="middle" x="476.8061" y="-110.4788" font-family="Helvetica,sans-Serif" font-size="10.00" fill="#000000">17</text>
</a>
</g>
</g>
<!-- dir_2810eaf0225063d73e08d8eeeb8a37b8 -->
<g id="node5" class="node">
<title>dir_2810eaf0225063d73e08d8eeeb8a37b8</title>
<g id="a_node5"><a xlink:href="dir_2810eaf0225063d73e08d8eeeb8a37b8.html" target="_top" xlink:title="Simulation">
<polygon fill="#ffffff" stroke="#ff0000" points="258.5,-540 189.5,-540 189.5,-504 258.5,-504 258.5,-540"/>
<text text-anchor="middle" x="224" y="-519.5" font-family="Helvetica,sans-Serif" font-size="10.00" fill="#000000">Simulation</text>
</a>
</g>
</g>
<!-- dir_2810eaf0225063d73e08d8eeeb8a37b8&#45;&gt;dir_b5547b1068d53f0f904ee5a2a84992af -->
<g id="edge25" class="edge">
<title>dir_2810eaf0225063d73e08d8eeeb8a37b8&#45;&gt;dir_b5547b1068d53f0f904ee5a2a84992af</title>
<path fill="none" stroke="#000000" d="M202.479,-503.923C192.1953,-494.235 180.5193,-481.5245 173,-468 149.3174,-425.4037 126.0181,-399.9039 154,-360 167.1516,-341.245 226.2278,-324.043 265.9251,-314.3079"/>
<polygon fill="#000000" stroke="#000000" points="266.8995,-317.6735 275.8083,-311.9392 265.2679,-310.8663 266.8995,-317.6735"/>
<g id="a_edge25&#45;headlabel"><a xlink:href="dir_000181_000547.html" target="_top" xlink:title="10">
<text text-anchor="middle" x="264.0655" y="-318.7723" font-family="Helvetica,sans-Serif" font-size="10.00" fill="#000000">10</text>
</a>
</g>
</g>
<!-- dir_2810eaf0225063d73e08d8eeeb8a37b8&#45;&gt;dir_754f2fe7806627988f6bd801b7f2fe5b -->
<g id="edge21" class="edge">
<title>dir_2810eaf0225063d73e08d8eeeb8a37b8&#45;&gt;dir_754f2fe7806627988f6bd801b7f2fe5b</title>
<path fill="none" stroke="#000000" d="M242.421,-503.8314C251.1529,-495.219 261.7317,-484.7851 271.2423,-475.4048"/>
<polygon fill="#000000" stroke="#000000" points="273.923,-477.6769 278.5849,-468.1628 269.0075,-472.6931 273.923,-477.6769"/>
<g id="a_edge21&#45;headlabel"><a xlink:href="dir_000181_000416.html" target="_top" xlink:title="5">
<text text-anchor="middle" x="273.3575" y="-479.7225" font-family="Helvetica,sans-Serif" font-size="10.00" fill="#000000">5</text>
</a>
</g>
</g>
<!-- dir_3ffb816f6d71c6665c34f0fe3ab9978a -->
<g id="node6" class="node">
<title>dir_3ffb816f6d71c6665c34f0fe3ab9978a</title>
<g id="a_node6"><a xlink:href="dir_3ffb816f6d71c6665c34f0fe3ab9978a.html" target="_top" xlink:title="TestingSimTools">
<polygon fill="#ffffff" stroke="#ff0000" points="257.5,-396 162.5,-396 162.5,-360 257.5,-360 257.5,-396"/>
<text text-anchor="middle" x="210" y="-375.5" font-family="Helvetica,sans-Serif" font-size="10.00" fill="#000000">TestingSimTools</text>
</a>
</g>
</g>
<!-- dir_2810eaf0225063d73e08d8eeeb8a37b8&#45;&gt;dir_3ffb816f6d71c6665c34f0fe3ab9978a -->
<g id="edge24" class="edge">
<title>dir_2810eaf0225063d73e08d8eeeb8a37b8&#45;&gt;dir_3ffb816f6d71c6665c34f0fe3ab9978a</title>
<path fill="none" stroke="#000000" d="M203.5974,-503.5625C194.5059,-493.9675 184.7838,-481.4441 180,-468 172.4771,-446.8579 181.4599,-422.7267 191.5099,-404.777"/>
<polygon fill="#000000" stroke="#000000" points="194.6316,-406.3771 196.7809,-396.0025 188.6311,-402.7724 194.6316,-406.3771"/>
<g id="a_edge24&#45;headlabel"><a xlink:href="dir_000181_000560.html" target="_top" xlink:title="2">
<text text-anchor="middle" x="195.2145" y="-408.4205" font-family="Helvetica,sans-Serif" font-size="10.00" fill="#000000">2</text>
</a>
</g>
</g>
<!-- dir_c6781640d5720511e35c6e7f87460ee7 -->
<g id="node7" class="node">
<title>dir_c6781640d5720511e35c6e7f87460ee7</title>
<g id="a_node7"><a xlink:href="dir_c6781640d5720511e35c6e7f87460ee7.html" target="_top" xlink:title="Tracking">
<polygon fill="#ffffff" stroke="#ff0000" points="245.5,-468 188.5,-468 188.5,-432 245.5,-432 245.5,-468"/>
<text text-anchor="middle" x="217" y="-447.5" font-family="Helvetica,sans-Serif" font-size="10.00" fill="#000000">Tracking</text>
</a>
</g>
</g>
<!-- dir_2810eaf0225063d73e08d8eeeb8a37b8&#45;&gt;dir_c6781640d5720511e35c6e7f87460ee7 -->
<g id="edge23" class="edge">
<title>dir_2810eaf0225063d73e08d8eeeb8a37b8&#45;&gt;dir_c6781640d5720511e35c6e7f87460ee7</title>
<path fill="none" stroke="#000000" d="M222.2336,-503.8314C221.485,-496.131 220.5947,-486.9743 219.7627,-478.4166"/>
<polygon fill="#000000" stroke="#000000" points="223.2415,-478.0276 218.7902,-468.4133 216.2744,-478.7051 223.2415,-478.0276"/>
<g id="a_edge23&#45;headlabel"><a xlink:href="dir_000181_000494.html" target="_top" xlink:title="1">
<text text-anchor="middle" x="226.4152" y="-478.8307" font-family="Helvetica,sans-Serif" font-size="10.00" fill="#000000">1</text>
</a>
</g>
</g>
<!-- dir_2810eaf0225063d73e08d8eeeb8a37b8&#45;&gt;dir_4ab6b4cc6a7edbff49100e9123df213f -->
<g id="edge20" class="edge">
<title>dir_2810eaf0225063d73e08d8eeeb8a37b8&#45;&gt;dir_4ab6b4cc6a7edbff49100e9123df213f</title>
<path fill="none" stroke="#000000" d="M189.2825,-504.9285C174.5818,-495.9439 158.6532,-483.5362 149,-468 123.5116,-426.9782 118.7749,-404.7246 137,-360 159.4204,-304.9801 221.3783,-268.7019 262.9269,-249.7599"/>
<polygon fill="#000000" stroke="#000000" points="264.5028,-252.8901 272.2363,-245.6483 261.6747,-246.4868 264.5028,-252.8901"/>
<g id="a_edge20&#45;headlabel"><a xlink:href="dir_000181_000027.html" target="_top" xlink:title="6">
<text text-anchor="middle" x="262.3616" y="-254.4395" font-family="Helvetica,sans-Serif" font-size="10.00" fill="#000000">6</text>
</a>
</g>
</g>
<!-- dir_37c90836491b695b472bf98d1be8336b -->
<g id="node10" class="node">
<title>dir_37c90836491b695b472bf98d1be8336b</title>
<g id="a_node10"><a xlink:href="dir_37c90836491b695b472bf98d1be8336b.html" target="_top" xlink:title="Base">
<polygon fill="none" stroke="#ff0000" points="431,-36 377,-36 377,0 431,0 431,-36"/>
<text text-anchor="middle" x="404" y="-15.5" font-family="Helvetica,sans-Serif" font-size="10.00" fill="#000000">Base</text>
</a>
</g>
</g>
<!-- dir_2810eaf0225063d73e08d8eeeb8a37b8&#45;&gt;dir_37c90836491b695b472bf98d1be8336b -->
<g id="edge22" class="edge">
<title>dir_2810eaf0225063d73e08d8eeeb8a37b8&#45;&gt;dir_37c90836491b695b472bf98d1be8336b</title>
<path fill="none" stroke="#000000" d="M258.7568,-518.5549C331.8678,-510.9387 499.0961,-491.4717 551,-468 664.2193,-416.8005 704,-358.2578 704,-234 704,-234 704,-234 704,-162 704,-104.2423 520.9893,-48.8625 440.8481,-27.3804"/>
<polygon fill="#000000" stroke="#000000" points="441.7149,-23.9893 431.1521,-24.8125 439.9228,-30.7561 441.7149,-23.9893"/>
<g id="a_edge22&#45;headlabel"><a xlink:href="dir_000181_000276.html" target="_top" xlink:title="3">
<text text-anchor="middle" x="445.9166" y="-19.6649" font-family="Helvetica,sans-Serif" font-size="10.00" fill="#000000">3</text>
</a>
</g>
</g>
<!-- dir_2810eaf0225063d73e08d8eeeb8a37b8&#45;&gt;dir_2171f7ec022c5423887b07c69b2f5b48 -->
<g id="edge26" class="edge">
<title>dir_2810eaf0225063d73e08d8eeeb8a37b8&#45;&gt;dir_2171f7ec022c5423887b07c69b2f5b48</title>
<path fill="none" stroke="#000000" d="M258.7945,-517.2446C356.7902,-502.8854 628,-456.0911 628,-378 628,-378 628,-378 628,-234 628,-190.5807 621.5818,-173.7964 590,-144 562.2455,-117.8145 520.9764,-104.2058 488.4412,-97.204"/>
<polygon fill="#000000" stroke="#000000" points="488.7055,-93.6875 478.2129,-95.1553 487.3307,-100.5512 488.7055,-93.6875"/>
<g id="a_edge26&#45;headlabel"><a xlink:href="dir_000181_000076.html" target="_top" xlink:title="25">
<text text-anchor="middle" x="492.7877" y="-89.1095" font-family="Helvetica,sans-Serif" font-size="10.00" fill="#000000">25</text>
</a>
</g>
</g>
<!-- dir_3ffb816f6d71c6665c34f0fe3ab9978a&#45;&gt;dir_b5547b1068d53f0f904ee5a2a84992af -->
<g id="edge31" class="edge">
<title>dir_3ffb816f6d71c6665c34f0fe3ab9978a&#45;&gt;dir_b5547b1068d53f0f904ee5a2a84992af</title>
<path fill="none" stroke="#000000" d="M233.4678,-359.8314C245.0327,-350.8779 259.1404,-339.9558 271.6183,-330.2955"/>
<polygon fill="#000000" stroke="#000000" points="273.775,-333.0521 279.5397,-324.1628 269.4898,-327.5171 273.775,-333.0521"/>
<g id="a_edge31&#45;headlabel"><a xlink:href="dir_000560_000547.html" target="_top" xlink:title="3">
<text text-anchor="middle" x="272.6708" y="-334.9977" font-family="Helvetica,sans-Serif" font-size="10.00" fill="#000000">3</text>
</a>
</g>
</g>
<!-- dir_3ffb816f6d71c6665c34f0fe3ab9978a&#45;&gt;dir_4ab6b4cc6a7edbff49100e9123df213f -->
<g id="edge30" class="edge">
<title>dir_3ffb816f6d71c6665c34f0fe3ab9978a&#45;&gt;dir_4ab6b4cc6a7edbff49100e9123df213f</title>
<path fill="none" stroke="#000000" d="M214.7341,-359.6946C221.1589,-337.3502 234.2747,-299.1886 255,-272 258.6325,-267.2347 262.9928,-262.7254 267.5844,-258.5904"/>
<polygon fill="#000000" stroke="#000000" points="270.0254,-261.1114 275.4421,-252.0059 265.5294,-255.7461 270.0254,-261.1114"/>
<g id="a_edge30&#45;headlabel"><a xlink:href="dir_000560_000027.html" target="_top" xlink:title="1">
<text text-anchor="middle" x="269.0938" y="-263.0963" font-family="Helvetica,sans-Serif" font-size="10.00" fill="#000000">1</text>
</a>
</g>
</g>
<!-- dir_3ffb816f6d71c6665c34f0fe3ab9978a&#45;&gt;dir_2171f7ec022c5423887b07c69b2f5b48 -->
<g id="edge32" class="edge">
<title>dir_3ffb816f6d71c6665c34f0fe3ab9978a&#45;&gt;dir_2171f7ec022c5423887b07c69b2f5b48</title>
<path fill="none" stroke="#000000" d="M257.5502,-369.1852C327.529,-355.9886 450.7123,-331.8109 457,-324 505.1995,-264.1246 472.0745,-165.4796 451.2861,-117.6782"/>
<polygon fill="#000000" stroke="#000000" points="454.3574,-115.9734 447.071,-108.2819 447.9706,-118.8385 454.3574,-115.9734"/>
<g id="a_edge32&#45;headlabel"><a xlink:href="dir_000560_000076.html" target="_top" xlink:title="3">
<text text-anchor="middle" x="458.4192" y="-115.591" font-family="Helvetica,sans-Serif" font-size="10.00" fill="#000000">3</text>
</a>
</g>
</g>
<!-- dir_c6781640d5720511e35c6e7f87460ee7&#45;&gt;dir_b5547b1068d53f0f904ee5a2a84992af -->
<g id="edge28" class="edge">
<title>dir_c6781640d5720511e35c6e7f87460ee7&#45;&gt;dir_b5547b1068d53f0f904ee5a2a84992af</title>
<path fill="none" stroke="#000000" d="M236.9103,-431.9328C246.9249,-422.0573 258.6709,-409.1756 267,-396 279.2913,-376.5566 288.7202,-352.2184 294.8393,-333.7555"/>
<polygon fill="#000000" stroke="#000000" points="298.192,-334.7618 297.8955,-324.1712 291.5228,-332.6352 298.192,-334.7618"/>
<g id="a_edge28&#45;headlabel"><a xlink:href="dir_000494_000547.html" target="_top" xlink:title="6">
<text text-anchor="middle" x="299.8051" y="-336.5491" font-family="Helvetica,sans-Serif" font-size="10.00" fill="#000000">6</text>
</a>
</g>
</g>
<!-- dir_c6781640d5720511e35c6e7f87460ee7&#45;&gt;dir_3ffb816f6d71c6665c34f0fe3ab9978a -->
<g id="edge27" class="edge">
<title>dir_c6781640d5720511e35c6e7f87460ee7&#45;&gt;dir_3ffb816f6d71c6665c34f0fe3ab9978a</title>
<path fill="none" stroke="#000000" d="M215.2336,-431.8314C214.485,-424.131 213.5947,-414.9743 212.7627,-406.4166"/>
<polygon fill="#000000" stroke="#000000" points="216.2415,-406.0276 211.7902,-396.4133 209.2744,-406.7051 216.2415,-406.0276"/>
<g id="a_edge27&#45;headlabel"><a xlink:href="dir_000494_000560.html" target="_top" xlink:title="4">
<text text-anchor="middle" x="219.4152" y="-406.8307" font-family="Helvetica,sans-Serif" font-size="10.00" fill="#000000">4</text>
</a>
</g>
</g>
<!-- dir_c6781640d5720511e35c6e7f87460ee7&#45;&gt;dir_2171f7ec022c5423887b07c69b2f5b48 -->
<g id="edge29" class="edge">
<title>dir_c6781640d5720511e35c6e7f87460ee7&#45;&gt;dir_2171f7ec022c5423887b07c69b2f5b48</title>
<path fill="none" stroke="#000000" d="M245.8393,-435.7556C248.9033,-434.418 251.9967,-433.1389 255,-432 389.0711,-381.1577 552,-449.3876 552,-306 552,-306 552,-306 552,-234 552,-189.8588 537.8229,-178.2685 510,-144 500.8069,-132.6771 488.7453,-122.4321 477.1295,-113.9843"/>
<polygon fill="#000000" stroke="#000000" points="478.999,-111.0208 468.7974,-108.1609 474.9889,-116.7584 478.999,-111.0208"/>
<g id="a_edge29&#45;headlabel"><a xlink:href="dir_000494_000076.html" target="_top" xlink:title="8">
<text text-anchor="middle" x="483.5718" y="-108.2528" font-family="Helvetica,sans-Serif" font-size="10.00" fill="#000000">8</text>
</a>
</g>
</g>
<!-- dir_541a9f579a56d3c8f641580c9f97913d -->
<g id="node8" class="node">
<title>dir_541a9f579a56d3c8f641580c9f97913d</title>
<g id="a_node8"><a xlink:href="dir_541a9f579a56d3c8f641580c9f97913d.html" target="_top" xlink:title="Workflow">
<polygon fill="#ffffff" stroke="#ff0000" points="208,-612 146,-612 146,-576 208,-576 208,-612"/>
<text text-anchor="middle" x="177" y="-591.5" font-family="Helvetica,sans-Serif" font-size="10.00" fill="#000000">Workflow</text>
</a>
</g>
</g>
<!-- dir_541a9f579a56d3c8f641580c9f97913d&#45;&gt;dir_754f2fe7806627988f6bd801b7f2fe5b -->
<g id="edge9" class="edge">
<title>dir_541a9f579a56d3c8f641580c9f97913d&#45;&gt;dir_754f2fe7806627988f6bd801b7f2fe5b</title>
<path fill="none" stroke="#000000" d="M208.4042,-582.2051C228.0713,-573.3423 252.5317,-559.3856 268,-540 282.2544,-522.1358 289.5817,-497.0846 293.3004,-477.9465"/>
<polygon fill="#000000" stroke="#000000" points="296.7642,-478.4554 295.0161,-468.0058 289.8662,-477.2648 296.7642,-478.4554"/>
<g id="a_edge9&#45;headlabel"><a xlink:href="dir_000379_000416.html" target="_top" xlink:title="5">
<text text-anchor="middle" x="298.9508" y="-479.9806" font-family="Helvetica,sans-Serif" font-size="10.00" fill="#000000">5</text>
</a>
</g>
</g>
<!-- dir_541a9f579a56d3c8f641580c9f97913d&#45;&gt;dir_55bb03bc4479a61c5f6db133927cb48c -->
<g id="edge11" class="edge">
<title>dir_541a9f579a56d3c8f641580c9f97913d&#45;&gt;dir_55bb03bc4479a61c5f6db133927cb48c</title>
<path fill="none" stroke="#000000" d="M208.1313,-581.8962C229.9202,-572.4963 258.9572,-558.0374 281,-540 312.8012,-513.9774 324.4759,-506.4388 339,-468 346.4403,-448.309 347.163,-424.4472 346.175,-406.2424"/>
<polygon fill="#000000" stroke="#000000" points="349.6641,-405.9651 345.4334,-396.2516 342.6833,-406.4833 349.6641,-405.9651"/>
<g id="a_edge11&#45;headlabel"><a xlink:href="dir_000379_000419.html" target="_top" xlink:title="4">
<text text-anchor="middle" x="352.7616" y="-406.8397" font-family="Helvetica,sans-Serif" font-size="10.00" fill="#000000">4</text>
</a>
</g>
</g>
<!-- dir_541a9f579a56d3c8f641580c9f97913d&#45;&gt;dir_2810eaf0225063d73e08d8eeeb8a37b8 -->
<g id="edge12" class="edge">
<title>dir_541a9f579a56d3c8f641580c9f97913d&#45;&gt;dir_2810eaf0225063d73e08d8eeeb8a37b8</title>
<path fill="none" stroke="#000000" d="M188.8601,-575.8314C194.1629,-567.7079 200.5237,-557.9637 206.3673,-549.0118"/>
<polygon fill="#000000" stroke="#000000" points="209.4448,-550.7003 211.9802,-540.4133 203.5831,-546.8739 209.4448,-550.7003"/>
<g id="a_edge12&#45;headlabel"><a xlink:href="dir_000379_000181.html" target="_top" xlink:title="9">
<text text-anchor="middle" x="209.8575" y="-552.7623" font-family="Helvetica,sans-Serif" font-size="10.00" fill="#000000">9</text>
</a>
</g>
</g>
<!-- dir_541a9f579a56d3c8f641580c9f97913d&#45;&gt;dir_c6781640d5720511e35c6e7f87460ee7 -->
<g id="edge13" class="edge">
<title>dir_541a9f579a56d3c8f641580c9f97913d&#45;&gt;dir_c6781640d5720511e35c6e7f87460ee7</title>
<path fill="none" stroke="#000000" d="M175.0087,-575.9041C173.6062,-557.3596 173.1695,-527.9326 181,-504 184.1725,-494.3036 189.6045,-484.7108 195.3008,-476.3615"/>
<polygon fill="#000000" stroke="#000000" points="198.2121,-478.3087 201.2488,-468.1584 192.5451,-474.1995 198.2121,-478.3087"/>
<g id="a_edge13&#45;headlabel"><a xlink:href="dir_000379_000494.html" target="_top" xlink:title="2">
<text text-anchor="middle" x="198.4006" y="-480.3855" font-family="Helvetica,sans-Serif" font-size="10.00" fill="#000000">2</text>
</a>
</g>
</g>
<!-- dir_541a9f579a56d3c8f641580c9f97913d&#45;&gt;dir_4ab6b4cc6a7edbff49100e9123df213f -->
<g id="edge8" class="edge">
<title>dir_541a9f579a56d3c8f641580c9f97913d&#45;&gt;dir_4ab6b4cc6a7edbff49100e9123df213f</title>
<path fill="none" stroke="#000000" d="M153.0644,-575.9237C123.1973,-551.1078 76,-503.4385 76,-450 76,-450 76,-450 76,-378 76,-319.2442 106.2044,-304.7297 155,-272 187.0653,-250.4922 230.5092,-241.1574 262.0285,-237.1062"/>
<polygon fill="#000000" stroke="#000000" points="262.696,-240.5523 272.2269,-235.9248 261.8905,-233.5988 262.696,-240.5523"/>
<g id="a_edge8&#45;headlabel"><a xlink:href="dir_000379_000027.html" target="_top" xlink:title="3">
<text text-anchor="middle" x="259.452" y="-241.2863" font-family="Helvetica,sans-Serif" font-size="10.00" fill="#000000">3</text>
</a>
</g>
</g>
<!-- dir_541a9f579a56d3c8f641580c9f97913d&#45;&gt;dir_37c90836491b695b472bf98d1be8336b -->
<g id="edge10" class="edge">
<title>dir_541a9f579a56d3c8f641580c9f97913d&#45;&gt;dir_37c90836491b695b472bf98d1be8336b</title>
<path fill="none" stroke="#000000" d="M145.7657,-586.1046C118.9772,-578.0727 80.6029,-563.4284 54,-540 18.9927,-509.17 0,-496.6476 0,-450 0,-450 0,-450 0,-162 0,-84.5104 267.0476,-37.8374 366.9103,-23.093"/>
<polygon fill="#000000" stroke="#000000" points="367.4718,-26.5483 376.8651,-21.6477 366.4659,-19.6209 367.4718,-26.5483"/>
<g id="a_edge10&#45;headlabel"><a xlink:href="dir_000379_000276.html" target="_top" xlink:title="2">
<text text-anchor="middle" x="364.3224" y="-27.3745" font-family="Helvetica,sans-Serif" font-size="10.00" fill="#000000">2</text>
</a>
</g>
</g>
<!-- dir_bcbb2cf9a3d3d83e5515c82071a07177 -->
<g id="node11" class="node">
<title>dir_bcbb2cf9a3d3d83e5515c82071a07177</title>
<g id="a_node11"><a xlink:href="dir_bcbb2cf9a3d3d83e5515c82071a07177.html" target="_top" xlink:title="Framework">
<polygon fill="none" stroke="#ff0000" points="353.5,-180 282.5,-180 282.5,-144 353.5,-144 353.5,-180"/>
<text text-anchor="middle" x="318" y="-159.5" font-family="Helvetica,sans-Serif" font-size="10.00" fill="#000000">Framework</text>
</a>
</g>
</g>
<!-- dir_541a9f579a56d3c8f641580c9f97913d&#45;&gt;dir_bcbb2cf9a3d3d83e5515c82071a07177 -->
<g id="edge14" class="edge">
<title>dir_541a9f579a56d3c8f641580c9f97913d&#45;&gt;dir_bcbb2cf9a3d3d83e5515c82071a07177</title>
<path fill="none" stroke="#000000" d="M145.8057,-579.0814C104.8239,-557.0522 38,-511.6758 38,-450 38,-450 38,-450 38,-306 38,-202.0256 192.5769,-173.0621 272.0271,-165.0422"/>
<polygon fill="#000000" stroke="#000000" points="272.6237,-168.5017 282.2534,-164.0838 271.9704,-161.5323 272.6237,-168.5017"/>
<g id="a_edge14&#45;headlabel"><a xlink:href="dir_000379_000013.html" target="_top" xlink:title="60">
<text text-anchor="middle" x="269.3097" y="-169.164" font-family="Helvetica,sans-Serif" font-size="10.00" fill="#000000">60</text>
</a>
</g>
</g>
<!-- dir_541a9f579a56d3c8f641580c9f97913d&#45;&gt;dir_2171f7ec022c5423887b07c69b2f5b48 -->
<g id="edge15" class="edge">
<title>dir_541a9f579a56d3c8f641580c9f97913d&#45;&gt;dir_2171f7ec022c5423887b07c69b2f5b48</title>
<path fill="none" stroke="#000000" d="M208.115,-587.5307C274.2844,-572.9335 432.594,-533.5093 551,-468 595.2176,-443.5362 616.4138,-441.2055 639,-396 689.2321,-295.4622 698.665,-222.2577 618,-144 599.4018,-125.9569 534.5827,-109.5146 488.0621,-99.6332"/>
<polygon fill="#000000" stroke="#000000" points="488.6465,-96.1798 478.1427,-97.566 487.2183,-103.0326 488.6465,-96.1798"/>
<g id="a_edge15&#45;headlabel"><a xlink:href="dir_000379_000076.html" target="_top" xlink:title="21">
<text text-anchor="middle" x="492.7447" y="-91.6336" font-family="Helvetica,sans-Serif" font-size="10.00" fill="#000000">21</text>
</a>
</g>
</g>
<!-- dir_4ab6b4cc6a7edbff49100e9123df213f&#45;&gt;dir_bcbb2cf9a3d3d83e5515c82071a07177 -->
<g id="edge1" class="edge">
<title>dir_4ab6b4cc6a7edbff49100e9123df213f&#45;&gt;dir_bcbb2cf9a3d3d83e5515c82071a07177</title>
<path fill="none" stroke="#000000" d="M300.8327,-215.8314C301.6959,-208.0463 303.4105,-198.7729 305.5339,-190.1347"/>
<polygon fill="#000000" stroke="#000000" points="308.9306,-190.982 308.1879,-180.4133 302.1777,-189.1384 308.9306,-190.982"/>
<g id="a_edge1&#45;headlabel"><a xlink:href="dir_000027_000013.html" target="_top" xlink:title="2">
<text text-anchor="middle" x="310.723" y="-192.6975" font-family="Helvetica,sans-Serif" font-size="10.00" fill="#000000">2</text>
</a>
</g>
</g>
<!-- dir_4ab6b4cc6a7edbff49100e9123df213f&#45;&gt;dir_2171f7ec022c5423887b07c69b2f5b48 -->
<g id="edge2" class="edge">
<title>dir_4ab6b4cc6a7edbff49100e9123df213f&#45;&gt;dir_2171f7ec022c5423887b07c69b2f5b48</title>
<path fill="none" stroke="#000000" d="M316.5585,-215.9652C327.2613,-205.7909 341.8511,-192.6205 354,-180 373.6938,-159.5417 394.2143,-134.6289 410.2621,-116.2056"/>
<polygon fill="#000000" stroke="#000000" points="413.3041,-118.0486 417.3016,-108.2368 408.0579,-113.4142 413.3041,-118.0486"/>
<g id="a_edge2&#45;headlabel"><a xlink:href="dir_000027_000076.html" target="_top" xlink:title="2">
<text text-anchor="middle" x="413.0522" y="-120.1223" font-family="Helvetica,sans-Serif" font-size="10.00" fill="#000000">2</text>
</a>
</g>
</g>
<!-- dir_37c90836491b695b472bf98d1be8336b&#45;&gt;dir_4ab6b4cc6a7edbff49100e9123df213f -->
<g id="edge5" class="edge">
<title>dir_37c90836491b695b472bf98d1be8336b&#45;&gt;dir_4ab6b4cc6a7edbff49100e9123df213f</title>
<path fill="none" stroke="#000000" d="M376.7668,-34.3919C345.0656,-55.2695 294.4477,-94.6349 274,-144 265.4405,-164.6644 274.2069,-188.8264 284.2812,-206.9094"/>
<polygon fill="#000000" stroke="#000000" points="281.4422,-208.981 289.5837,-215.7608 287.4471,-205.3837 281.4422,-208.981"/>
<g id="a_edge5&#45;headlabel"><a xlink:href="dir_000276_000027.html" target="_top" xlink:title="16">
<text text-anchor="middle" x="277.1593" y="-204.8565" font-family="Helvetica,sans-Serif" font-size="10.00" fill="#000000">16</text>
</a>
</g>
</g>
<!-- dir_37c90836491b695b472bf98d1be8336b&#45;&gt;dir_bcbb2cf9a3d3d83e5515c82071a07177 -->
<g id="edge6" class="edge">
<title>dir_37c90836491b695b472bf98d1be8336b&#45;&gt;dir_bcbb2cf9a3d3d83e5515c82071a07177</title>
<path fill="none" stroke="#000000" d="M393.1965,-36.0896C378.317,-61.0041 351.4013,-106.0722 334.1323,-134.9877"/>
<polygon fill="#000000" stroke="#000000" points="331.0145,-133.3822 328.892,-143.7623 337.0243,-136.9715 331.0145,-133.3822"/>
<g id="a_edge6&#45;headlabel"><a xlink:href="dir_000276_000013.html" target="_top" xlink:title="1">
<text text-anchor="middle" x="330.4199" y="-126.3403" font-family="Helvetica,sans-Serif" font-size="10.00" fill="#000000">1</text>
</a>
</g>
</g>
<!-- dir_37c90836491b695b472bf98d1be8336b&#45;&gt;dir_2171f7ec022c5423887b07c69b2f5b48 -->
<g id="edge7" class="edge">
<title>dir_37c90836491b695b472bf98d1be8336b&#45;&gt;dir_2171f7ec022c5423887b07c69b2f5b48</title>
<path fill="none" stroke="#000000" d="M418.6712,-36.4133C423.1576,-44.3141 427.7985,-53.7132 431.5579,-62.417"/>
<polygon fill="#000000" stroke="#000000" points="428.3734,-63.8778 435.3728,-71.8314 434.861,-61.2489 428.3734,-63.8778"/>
<g id="a_edge7&#45;headlabel"><a xlink:href="dir_000276_000076.html" target="_top" xlink:title="10">
<text text-anchor="middle" x="424.3921" y="-59.1125" font-family="Helvetica,sans-Serif" font-size="10.00" fill="#000000">10</text>
</a>
</g>
</g>
<!-- dir_bcbb2cf9a3d3d83e5515c82071a07177&#45;&gt;dir_4ab6b4cc6a7edbff49100e9123df213f -->
<g id="edge34" class="edge">
<title>dir_bcbb2cf9a3d3d83e5515c82071a07177&#45;&gt;dir_4ab6b4cc6a7edbff49100e9123df213f</title>
<path fill="none" stroke="#000000" d="M320.1399,-180.4133C319.259,-188.2292 317.5313,-197.5113 315.3994,-206.136"/>
<polygon fill="#000000" stroke="#000000" points="312.01,-205.2615 312.7375,-215.8314 318.7602,-207.1149 312.01,-205.2615"/>
<g id="a_edge34&#45;headlabel"><a xlink:href="dir_000013_000027.html" target="_top" xlink:title="9">
<text text-anchor="middle" x="310.2237" y="-198.5435" font-family="Helvetica,sans-Serif" font-size="10.00" fill="#000000">9</text>
</a>
</g>
</g>
<!-- dir_bcbb2cf9a3d3d83e5515c82071a07177&#45;&gt;dir_2171f7ec022c5423887b07c69b2f5b48 -->
<g id="edge35" class="edge">
<title>dir_bcbb2cf9a3d3d83e5515c82071a07177&#45;&gt;dir_2171f7ec022c5423887b07c69b2f5b48</title>
<path fill="none" stroke="#000000" d="M342.3287,-143.8314C356.9138,-134.5368 375.8062,-123.1208 392.9828,-113.1971"/>
<polygon fill="#000000" stroke="#000000" points="394.8371,-116.1686 401.7768,-108.1628 391.3594,-110.0936 394.8371,-116.1686"/>
<g id="a_edge35&#45;headlabel"><a xlink:href="dir_000013_000076.html" target="_top" xlink:title="82">
<text text-anchor="middle" x="393.1281" y="-117.9185" font-family="Helvetica,sans-Serif" font-size="10.00" fill="#000000">82</text>
</a>
</g>
</g>
<!-- dir_26637d1bd82229bc9ed97f7e706be743&#45;&gt;dir_4ab6b4cc6a7edbff49100e9123df213f -->
<g id="edge36" class="edge">
<title>dir_26637d1bd82229bc9ed97f7e706be743&#45;&gt;dir_4ab6b4cc6a7edbff49100e9123df213f</title>
<path fill="none" stroke="#000000" d="M402.3832,-287.9676C396.1814,-282.4645 389.0504,-276.6462 382,-272 369.831,-263.9806 355.7123,-256.6437 342.8052,-250.6009"/>
<polygon fill="#000000" stroke="#000000" points="344.2174,-247.3982 333.6661,-246.4382 341.3157,-253.7685 344.2174,-247.3982"/>
<g id="a_edge36&#45;headlabel"><a xlink:href="dir_000555_000027.html" target="_top" xlink:title="6">
<text text-anchor="middle" x="348.6655" y="-243.8043" font-family="Helvetica,sans-Serif" font-size="10.00" fill="#000000">6</text>
</a>
</g>
</g>
<!-- dir_26637d1bd82229bc9ed97f7e706be743&#45;&gt;dir_bcbb2cf9a3d3d83e5515c82071a07177 -->
<g id="edge37" class="edge">
<title>dir_26637d1bd82229bc9ed97f7e706be743&#45;&gt;dir_bcbb2cf9a3d3d83e5515c82071a07177</title>
<path fill="none" stroke="#000000" d="M407.955,-287.7623C389.9999,-262.66 357.5561,-217.3017 336.9313,-188.4671"/>
<polygon fill="#000000" stroke="#000000" points="339.6036,-186.1869 330.9391,-180.0896 333.9101,-190.2594 339.6036,-186.1869"/>
<g id="a_edge37&#45;headlabel"><a xlink:href="dir_000555_000013.html" target="_top" xlink:title="24">
<text text-anchor="middle" x="344.0041" y="-184.9588" font-family="Helvetica,sans-Serif" font-size="10.00" fill="#000000">24</text>
</a>
</g>
</g>
<!-- dir_26637d1bd82229bc9ed97f7e706be743&#45;&gt;dir_2171f7ec022c5423887b07c69b2f5b48 -->
<g id="edge38" class="edge">
<title>dir_26637d1bd82229bc9ed97f7e706be743&#45;&gt;dir_2171f7ec022c5423887b07c69b2f5b48</title>
<path fill="none" stroke="#000000" d="M422.4202,-287.9555C425.3827,-250.3144 432.2399,-163.1867 435.7865,-118.1246"/>
<polygon fill="#000000" stroke="#000000" points="439.2764,-118.3889 436.5719,-108.1451 432.298,-117.8396 439.2764,-118.3889"/>
<g id="a_edge38&#45;headlabel"><a xlink:href="dir_000555_000076.html" target="_top" xlink:title="11">
<text text-anchor="middle" x="441.825" y="-119.6952" font-family="Helvetica,sans-Serif" font-size="10.00" fill="#000000">11</text>
</a>
</g>
</g>
<!-- dir_2171f7ec022c5423887b07c69b2f5b48&#45;&gt;dir_4ab6b4cc6a7edbff49100e9123df213f -->
<g id="edge39" class="edge">
<title>dir_2171f7ec022c5423887b07c69b2f5b48&#45;&gt;dir_4ab6b4cc6a7edbff49100e9123df213f</title>
<path fill="none" stroke="#000000" d="M430.8241,-108.2368C418.5193,-126.8935 394.71,-156.4084 372,-180 362.3189,-190.0569 351.0877,-200.4631 340.4482,-209.4241"/>
<polygon fill="#000000" stroke="#000000" points="337.981,-206.9207 332.463,-215.9652 342.4168,-212.3359 337.981,-206.9207"/>
<g id="a_edge39&#45;headlabel"><a xlink:href="dir_000076_000027.html" target="_top" xlink:title="33">
<text text-anchor="middle" x="338.9626" y="-199.9465" font-family="Helvetica,sans-Serif" font-size="10.00" fill="#000000">33</text>
</a>
</g>
</g>
<!-- dir_2171f7ec022c5423887b07c69b2f5b48&#45;&gt;dir_37c90836491b695b472bf98d1be8336b -->
<g id="edge40" class="edge">
<title>dir_2171f7ec022c5423887b07c69b2f5b48&#45;&gt;dir_37c90836491b695b472bf98d1be8336b</title>
<path fill="none" stroke="#000000" d="M423.468,-71.8314C418.9848,-63.9617 414.3365,-54.5712 410.559,-45.8533"/>
<polygon fill="#000000" stroke="#000000" points="413.7291,-44.3575 406.7191,-36.4133 407.245,-46.9951 413.7291,-44.3575"/>
<g id="a_edge40&#45;headlabel"><a xlink:href="dir_000076_000276.html" target="_top" xlink:title="1">
<text text-anchor="middle" x="417.7134" y="-44.1175" font-family="Helvetica,sans-Serif" font-size="10.00" fill="#000000">1</text>
</a>
</g>
</g>
<!-- dir_2171f7ec022c5423887b07c69b2f5b48&#45;&gt;dir_bcbb2cf9a3d3d83e5515c82071a07177 -->
<g id="edge41" class="edge">
<title>dir_2171f7ec022c5423887b07c69b2f5b48&#45;&gt;dir_bcbb2cf9a3d3d83e5515c82071a07177</title>
<path fill="none" stroke="#000000" d="M413.7898,-108.0931C399.0317,-117.5014 379.8324,-129.0988 362.4622,-139.1233"/>
<polygon fill="#000000" stroke="#000000" points="360.5228,-136.2004 353.5787,-144.2022 363.9972,-142.2774 360.5228,-136.2004"/>
<g id="a_edge41&#45;headlabel"><a xlink:href="dir_000076_000013.html" target="_top" xlink:title="7">
<text text-anchor="middle" x="362.2342" y="-129.4515" font-family="Helvetica,sans-Serif" font-size="10.00" fill="#000000">7</text>
</a>
</g>
</g>
</g>
</svg>
