<?xml version="1.0" encoding="UTF-8" standalone="no"?>
<!DOCTYPE svg PUBLIC "-//W3C//DTD SVG 1.1//EN"
 "http://www.w3.org/Graphics/SVG/1.1/DTD/svg11.dtd">
<!-- Generated by graphviz version 2.40.1 (20161225.0304)
 -->
<!-- Title: /home/travis/build/AliceO2Group/AliceO2/Detectors/TPC/simulation Pages: 1 -->
<!--zoomable 519 -->
<svg id="main" version="1.1" xmlns="http://www.w3.org/2000/svg" xmlns:xlink="http://www.w3.org/1999/xlink" xml:space="preserve" onload="init(evt)">
<style type="text/css"><![CDATA[
.edge:hover path { stroke: red; }
.edge:hover polygon { stroke: red; fill: red; }
]]></style>
<script type="text/javascript"><![CDATA[
var edges = document.getElementsByTagName('g');
if (edges && edges.length) {
  for (var i=0;i<edges.length;i++) {
    if (edges[i].id.substr(0,4)=='edge') {
      edges[i].setAttribute('class','edge');
    }
  }
}
]]></script>
        <defs>
                <circle id="rim" cx="0" cy="0" r="7"/>
                <circle id="rim2" cx="0" cy="0" r="3.5"/>
                <g id="zoomPlus">
                        <use xlink:href="#rim" fill="#404040">
                                <set attributeName="fill" to="#808080" begin="zoomplus.mouseover" end="zoomplus.mouseout"/>
                        </use>
                        <path d="M-4,0h8M0,-4v8" fill="none" stroke="white" stroke-width="1.5" pointer-events="none"/>
                </g>
                <g id="zoomMin">
                        <use xlink:href="#rim" fill="#404040">
                                <set attributeName="fill" to="#808080" begin="zoomminus.mouseover" end="zoomminus.mouseout"/>
                        </use>
                        <path d="M-4,0h8" fill="none" stroke="white" stroke-width="1.5" pointer-events="none"/>
                </g>
                <g id="dirArrow">
                        <path fill="none" stroke="white" stroke-width="1.5" d="M0,-3.0v7 M-2.5,-0.5L0,-3.0L2.5,-0.5"/>
                </g>
               <g id="resetDef">
                       <use xlink:href="#rim2" fill="#404040">
                               <set attributeName="fill" to="#808080" begin="reset.mouseover" end="reset.mouseout"/>
                       </use>
               </g>
        </defs>

<script type="text/javascript">
var viewWidth = 574;
var viewHeight = 519;
var sectionId = 'dynsection-0';
</script>
<script xlink:href="svgpan.js"/>
<svg id="graph" class="graph">
<g id="viewport">
<title>/home/travis/build/AliceO2Group/AliceO2/Detectors/TPC/simulation</title>
<g id="clust1" class="cluster">
<title>clusterdir_a597e8e061b11201a1dff411feb10d0b</title>
<g id="a_clust1"><a xlink:href="dir_a597e8e061b11201a1dff411feb10d0b.html" target="_top" xlink:title="TPC">
<polygon fill="#ddddee" stroke="#000000" points="8,-344 8,-503 324,-503 324,-344 8,-344"/>
<text text-anchor="middle" x="166" y="-491" font-family="Helvetica,sans-Serif" font-size="10.00" fill="#000000">TPC</text>
</a>
</g>
</g>
<g id="clust2" class="cluster">
<title>clusterdir_7f309bec8670bb3fb666e7e061b24659</title>
<g id="a_clust2"><a xlink:href="dir_7f309bec8670bb3fb666e7e061b24659.html" target="_top">
<polygon fill="#eeeeff" stroke="#000000" points="16,-352 16,-476 316,-476 316,-352 16,-352"/>
</a>
</g>
</g>
<!-- dir_7f309bec8670bb3fb666e7e061b24659 -->
<g id="node1" class="node">
<title>dir_7f309bec8670bb3fb666e7e061b24659</title>
<text text-anchor="middle" x="274" y="-447.5" font-family="Helvetica,sans-Serif" font-size="10.00" fill="#000000">simulation</text>
</g>
<!-- dir_a3959ed40b1558172144f5e1a56e443f -->
<g id="node2" class="node">
<title>dir_a3959ed40b1558172144f5e1a56e443f</title>
<g id="a_node2"><a xlink:href="dir_a3959ed40b1558172144f5e1a56e443f.html" target="_top" xlink:title="include">
<polygon fill="#ffffff" stroke="#ff0000" points="207,-396 153,-396 153,-360 207,-360 207,-396"/>
<text text-anchor="middle" x="180" y="-375.5" font-family="Helvetica,sans-Serif" font-size="10.00" fill="#000000">include</text>
</a>
</g>
</g>
<!-- dir_677b030cc750909e4cd27413873678d8 -->
<g id="node6" class="node">
<title>dir_677b030cc750909e4cd27413873678d8</title>
<g id="a_node6"><a xlink:href="dir_677b030cc750909e4cd27413873678d8.html" target="_top" xlink:title="base">
<polygon fill="none" stroke="#ff0000" points="386,-396 332,-396 332,-360 386,-360 386,-396"/>
<text text-anchor="middle" x="359" y="-375.5" font-family="Helvetica,sans-Serif" font-size="10.00" fill="#000000">base</text>
</a>
</g>
</g>
<!-- dir_a3959ed40b1558172144f5e1a56e443f&#45;&gt;dir_677b030cc750909e4cd27413873678d8 -->
<g id="edge18" class="edge">
<title>dir_a3959ed40b1558172144f5e1a56e443f&#45;&gt;dir_677b030cc750909e4cd27413873678d8</title>
<path fill="none" stroke="#000000" d="M207.2695,-378C245.355,-378 283.4404,-378 321.5258,-378"/>
<polygon fill="#000000" stroke="#000000" points="321.736,-381.5001 331.7359,-378 321.7359,-374.5001 321.736,-381.5001"/>
<g id="a_edge18&#45;headlabel"><a xlink:href="dir_000305_000050.html" target="_top" xlink:title="27">
<text text-anchor="middle" x="318.1413" y="-381.8393" font-family="Helvetica,sans-Serif" font-size="10.00" fill="#000000">27</text>
</a>
</g>
</g>
<!-- dir_4ab6b4cc6a7edbff49100e9123df213f -->
<g id="node7" class="node">
<title>dir_4ab6b4cc6a7edbff49100e9123df213f</title>
<g id="a_node7"><a xlink:href="dir_4ab6b4cc6a7edbff49100e9123df213f.html" target="_top" xlink:title="Common">
<polygon fill="none" stroke="#ff0000" points="271.5,-324 210.5,-324 210.5,-288 271.5,-288 271.5,-324"/>
<text text-anchor="middle" x="241" y="-303.5" font-family="Helvetica,sans-Serif" font-size="10.00" fill="#000000">Common</text>
</a>
</g>
</g>
<!-- dir_a3959ed40b1558172144f5e1a56e443f&#45;&gt;dir_4ab6b4cc6a7edbff49100e9123df213f -->
<g id="edge19" class="edge">
<title>dir_a3959ed40b1558172144f5e1a56e443f&#45;&gt;dir_4ab6b4cc6a7edbff49100e9123df213f</title>
<path fill="none" stroke="#000000" d="M195.3929,-359.8314C202.4904,-351.454 211.048,-341.3531 218.824,-332.1749"/>
<polygon fill="#000000" stroke="#000000" points="221.6061,-334.3056 225.3999,-324.4133 216.2652,-329.7807 221.6061,-334.3056"/>
<g id="a_edge19&#45;headlabel"><a xlink:href="dir_000305_000027.html" target="_top" xlink:title="5">
<text text-anchor="middle" x="221.4488" y="-336.3836" font-family="Helvetica,sans-Serif" font-size="10.00" fill="#000000">5</text>
</a>
</g>
</g>
<!-- dir_37c90836491b695b472bf98d1be8336b -->
<g id="node8" class="node">
<title>dir_37c90836491b695b472bf98d1be8336b</title>
<g id="a_node8"><a xlink:href="dir_37c90836491b695b472bf98d1be8336b.html" target="_top" xlink:title="Base">
<polygon fill="none" stroke="#ff0000" points="245,-36 191,-36 191,0 245,0 245,-36"/>
<text text-anchor="middle" x="218" y="-15.5" font-family="Helvetica,sans-Serif" font-size="10.00" fill="#000000">Base</text>
</a>
</g>
</g>
<!-- dir_a3959ed40b1558172144f5e1a56e443f&#45;&gt;dir_37c90836491b695b472bf98d1be8336b -->
<g id="edge20" class="edge">
<title>dir_a3959ed40b1558172144f5e1a56e443f&#45;&gt;dir_37c90836491b695b472bf98d1be8336b</title>
<path fill="none" stroke="#000000" d="M162.7544,-359.6186C140.3312,-333.719 104,-284.0348 104,-234 104,-234 104,-234 104,-162 104,-110.5591 149.2736,-66.7654 182.7591,-41.4096"/>
<polygon fill="#000000" stroke="#000000" points="184.9971,-44.1084 190.9836,-35.367 180.8525,-38.4672 184.9971,-44.1084"/>
<g id="a_edge20&#45;headlabel"><a xlink:href="dir_000305_000276.html" target="_top" xlink:title="1">
<text text-anchor="middle" x="183.7813" y="-46.0248" font-family="Helvetica,sans-Serif" font-size="10.00" fill="#000000">1</text>
</a>
</g>
</g>
<!-- dir_f511f1e9c03c071966ae594f00bbc5e0 -->
<g id="node9" class="node">
<title>dir_f511f1e9c03c071966ae594f00bbc5e0</title>
<g id="a_node9"><a xlink:href="dir_f511f1e9c03c071966ae594f00bbc5e0.html" target="_top" xlink:title="GPU">
<polygon fill="none" stroke="#ff0000" points="348,-252 294,-252 294,-216 348,-216 348,-252"/>
<text text-anchor="middle" x="321" y="-231.5" font-family="Helvetica,sans-Serif" font-size="10.00" fill="#000000">GPU</text>
</a>
</g>
</g>
<!-- dir_a3959ed40b1558172144f5e1a56e443f&#45;&gt;dir_f511f1e9c03c071966ae594f00bbc5e0 -->
<g id="edge21" class="edge">
<title>dir_a3959ed40b1558172144f5e1a56e443f&#45;&gt;dir_f511f1e9c03c071966ae594f00bbc5e0</title>
<path fill="none" stroke="#000000" d="M207.163,-369.1271C229.5063,-360.628 260.6913,-345.8429 281,-324 297.2841,-306.4858 307.7144,-281.2451 313.8266,-261.9483"/>
<polygon fill="#000000" stroke="#000000" points="317.23,-262.7815 316.7126,-252.1993 310.5179,-260.7945 317.23,-262.7815"/>
<g id="a_edge21&#45;headlabel"><a xlink:href="dir_000305_000140.html" target="_top" xlink:title="1">
<text text-anchor="middle" x="318.9322" y="-264.5342" font-family="Helvetica,sans-Serif" font-size="10.00" fill="#000000">1</text>
</a>
</g>
</g>
<!-- dir_2171f7ec022c5423887b07c69b2f5b48 -->
<g id="node11" class="node">
<title>dir_2171f7ec022c5423887b07c69b2f5b48</title>
<g id="a_node11"><a xlink:href="dir_2171f7ec022c5423887b07c69b2f5b48.html" target="_top" xlink:title="DataFormats">
<polygon fill="none" stroke="#ff0000" points="361,-108 281,-108 281,-72 361,-72 361,-108"/>
<text text-anchor="middle" x="321" y="-87.5" font-family="Helvetica,sans-Serif" font-size="10.00" fill="#000000">DataFormats</text>
</a>
</g>
</g>
<!-- dir_a3959ed40b1558172144f5e1a56e443f&#45;&gt;dir_2171f7ec022c5423887b07c69b2f5b48 -->
<g id="edge22" class="edge">
<title>dir_a3959ed40b1558172144f5e1a56e443f&#45;&gt;dir_2171f7ec022c5423887b07c69b2f5b48</title>
<path fill="none" stroke="#000000" d="M182.911,-359.968C186.2395,-341.4743 192.489,-312.0872 202,-288 228.0451,-222.0394 274.8846,-152.7348 301.3664,-116.1751"/>
<polygon fill="#000000" stroke="#000000" points="304.2435,-118.1701 307.3217,-108.0323 298.5933,-114.0378 304.2435,-118.1701"/>
<g id="a_edge22&#45;headlabel"><a xlink:href="dir_000305_000076.html" target="_top" xlink:title="9">
<text text-anchor="middle" x="304.4133" y="-120.2476" font-family="Helvetica,sans-Serif" font-size="10.00" fill="#000000">9</text>
</a>
</g>
</g>
<!-- dir_685cddb227eacf501f568a534e55085f -->
<g id="node3" class="node">
<title>dir_685cddb227eacf501f568a534e55085f</title>
<g id="a_node3"><a xlink:href="dir_685cddb227eacf501f568a534e55085f.html" target="_top" xlink:title="run">
<polygon fill="#ffffff" stroke="#000000" points="222,-468 168,-468 168,-432 222,-432 222,-468"/>
<text text-anchor="middle" x="195" y="-447.5" font-family="Helvetica,sans-Serif" font-size="10.00" fill="#000000">run</text>
</a>
</g>
</g>
<!-- dir_685cddb227eacf501f568a534e55085f&#45;&gt;dir_677b030cc750909e4cd27413873678d8 -->
<g id="edge1" class="edge">
<title>dir_685cddb227eacf501f568a534e55085f&#45;&gt;dir_677b030cc750909e4cd27413873678d8</title>
<path fill="none" stroke="#000000" d="M222.0164,-436.2043C225.0311,-434.7508 228.0703,-433.3224 231,-432 269.8905,-414.4451 280.8401,-412.9453 320,-396 320.8384,-395.6372 321.6858,-395.2679 322.5396,-394.8936"/>
<polygon fill="#000000" stroke="#000000" points="324.0975,-398.0311 331.7999,-390.7561 321.2419,-391.64 324.0975,-398.0311"/>
<g id="a_edge1&#45;headlabel"><a xlink:href="dir_000599_000050.html" target="_top" xlink:title="3">
<text text-anchor="middle" x="321.9738" y="-399.5896" font-family="Helvetica,sans-Serif" font-size="10.00" fill="#000000">3</text>
</a>
</g>
</g>
<!-- dir_685cddb227eacf501f568a534e55085f&#45;&gt;dir_f511f1e9c03c071966ae594f00bbc5e0 -->
<g id="edge2" class="edge">
<title>dir_685cddb227eacf501f568a534e55085f&#45;&gt;dir_f511f1e9c03c071966ae594f00bbc5e0</title>
<path fill="none" stroke="#000000" d="M222.2114,-435.5211C225.1355,-434.2293 228.1013,-433.0249 231,-432 301.3558,-407.1232 348.2303,-454.1497 395,-396 429.0507,-353.664 381.4968,-293.1254 348.3189,-259.3163"/>
<polygon fill="#000000" stroke="#000000" points="350.6402,-256.6888 341.0794,-252.1235 345.7065,-261.6546 350.6402,-256.6888"/>
<g id="a_edge2&#45;headlabel"><a xlink:href="dir_000599_000140.html" target="_top" xlink:title="4">
<text text-anchor="middle" x="355.1913" y="-254.7082" font-family="Helvetica,sans-Serif" font-size="10.00" fill="#000000">4</text>
</a>
</g>
</g>
<!-- dir_26637d1bd82229bc9ed97f7e706be743 -->
<g id="node10" class="node">
<title>dir_26637d1bd82229bc9ed97f7e706be743</title>
<g id="a_node10"><a xlink:href="dir_26637d1bd82229bc9ed97f7e706be743.html" target="_top" xlink:title="Raw">
<polygon fill="none" stroke="#ff0000" points="412,-180 358,-180 358,-144 412,-144 412,-180"/>
<text text-anchor="middle" x="385" y="-159.5" font-family="Helvetica,sans-Serif" font-size="10.00" fill="#000000">Raw</text>
</a>
</g>
</g>
<!-- dir_685cddb227eacf501f568a534e55085f&#45;&gt;dir_26637d1bd82229bc9ed97f7e706be743 -->
<g id="edge3" class="edge">
<title>dir_685cddb227eacf501f568a534e55085f&#45;&gt;dir_26637d1bd82229bc9ed97f7e706be743</title>
<path fill="none" stroke="#000000" d="M222.1887,-435.4559C225.1173,-434.1768 228.0903,-432.9932 231,-432 309.4478,-405.2222 361.3462,-460.021 414,-396 463.1401,-336.2512 423.9258,-237.1986 400.0257,-189.4307"/>
<polygon fill="#000000" stroke="#000000" points="403.0247,-187.6092 395.338,-180.3178 396.8,-190.8113 403.0247,-187.6092"/>
<g id="a_edge3&#45;headlabel"><a xlink:href="dir_000599_000555.html" target="_top" xlink:title="2">
<text text-anchor="middle" x="407.1938" y="-187.0069" font-family="Helvetica,sans-Serif" font-size="10.00" fill="#000000">2</text>
</a>
</g>
</g>
<!-- dir_685cddb227eacf501f568a534e55085f&#45;&gt;dir_2171f7ec022c5423887b07c69b2f5b48 -->
<g id="edge4" class="edge">
<title>dir_685cddb227eacf501f568a534e55085f&#45;&gt;dir_2171f7ec022c5423887b07c69b2f5b48</title>
<path fill="none" stroke="#000000" d="M222.1665,-435.3897C225.0994,-434.1235 228.0795,-432.9611 231,-432 382.1006,-382.2756 566,-465.072 566,-306 566,-306 566,-306 566,-234 566,-190.5807 560.8359,-172.4084 528,-144 504.7137,-123.8536 424.7508,-107.1507 371.3005,-97.8826"/>
<polygon fill="#000000" stroke="#000000" points="371.764,-94.4112 361.3186,-96.1843 370.5899,-101.3121 371.764,-94.4112"/>
<g id="a_edge4&#45;headlabel"><a xlink:href="dir_000599_000076.html" target="_top" xlink:title="3">
<text text-anchor="middle" x="375.7839" y="-89.715" font-family="Helvetica,sans-Serif" font-size="10.00" fill="#000000">3</text>
</a>
</g>
</g>
<!-- dir_72815adbd439f00f784a5a4eca496fde -->
<g id="node4" class="node">
<title>dir_72815adbd439f00f784a5a4eca496fde</title>
<g id="a_node4"><a xlink:href="dir_72815adbd439f00f784a5a4eca496fde.html" target="_top" xlink:title="src">
<polygon fill="#ffffff" stroke="#000000" points="78,-468 24,-468 24,-432 78,-432 78,-468"/>
<text text-anchor="middle" x="51" y="-447.5" font-family="Helvetica,sans-Serif" font-size="10.00" fill="#000000">src</text>
</a>
</g>
</g>
<!-- dir_72815adbd439f00f784a5a4eca496fde&#45;&gt;dir_a3959ed40b1558172144f5e1a56e443f -->
<g id="edge7" class="edge">
<title>dir_72815adbd439f00f784a5a4eca496fde&#45;&gt;dir_a3959ed40b1558172144f5e1a56e443f</title>
<path fill="none" stroke="#000000" d="M78.0426,-434.9064C97.221,-424.2022 123.1608,-409.7242 144.076,-398.0506"/>
<polygon fill="#000000" stroke="#000000" points="145.9668,-401.0036 152.993,-393.0737 142.5552,-394.8912 145.9668,-401.0036"/>
<g id="a_edge7&#45;headlabel"><a xlink:href="dir_000325_000305.html" target="_top" xlink:title="19">
<text text-anchor="middle" x="144.2117" y="-402.7347" font-family="Helvetica,sans-Serif" font-size="10.00" fill="#000000">19</text>
</a>
</g>
</g>
<!-- dir_72815adbd439f00f784a5a4eca496fde&#45;&gt;dir_677b030cc750909e4cd27413873678d8 -->
<g id="edge5" class="edge">
<title>dir_72815adbd439f00f784a5a4eca496fde&#45;&gt;dir_677b030cc750909e4cd27413873678d8</title>
<path fill="none" stroke="#000000" d="M78.1481,-435.3329C81.0846,-434.0778 84.0705,-432.9335 87,-432 186.8384,-400.1873 219.6769,-426.2495 320,-396 320.7229,-395.782 321.4496,-395.5531 322.1787,-395.3146"/>
<polygon fill="#000000" stroke="#000000" points="323.5343,-398.5444 331.6752,-391.7638 321.0827,-391.9877 323.5343,-398.5444"/>
<g id="a_edge5&#45;headlabel"><a xlink:href="dir_000325_000050.html" target="_top" xlink:title="15">
<text text-anchor="middle" x="321.1617" y="-399.9627" font-family="Helvetica,sans-Serif" font-size="10.00" fill="#000000">15</text>
</a>
</g>
</g>
<!-- dir_72815adbd439f00f784a5a4eca496fde&#45;&gt;dir_4ab6b4cc6a7edbff49100e9123df213f -->
<g id="edge6" class="edge">
<title>dir_72815adbd439f00f784a5a4eca496fde&#45;&gt;dir_4ab6b4cc6a7edbff49100e9123df213f</title>
<path fill="none" stroke="#000000" d="M62.7808,-431.8731C78.7,-408.6473 109.1336,-368.473 144,-344 161.0659,-332.0213 182.4319,-323.1252 200.7644,-316.9645"/>
<polygon fill="#000000" stroke="#000000" points="201.8567,-320.2899 210.3122,-313.9059 199.7212,-313.6236 201.8567,-320.2899"/>
<g id="a_edge6&#45;headlabel"><a xlink:href="dir_000325_000027.html" target="_top" xlink:title="3">
<text text-anchor="middle" x="199.2997" y="-321.5903" font-family="Helvetica,sans-Serif" font-size="10.00" fill="#000000">3</text>
</a>
</g>
</g>
<!-- dir_72815adbd439f00f784a5a4eca496fde&#45;&gt;dir_2171f7ec022c5423887b07c69b2f5b48 -->
<g id="edge8" class="edge">
<title>dir_72815adbd439f00f784a5a4eca496fde&#45;&gt;dir_2171f7ec022c5423887b07c69b2f5b48</title>
<path fill="none" stroke="#000000" d="M78.2728,-435.6875C81.185,-434.3632 84.1311,-433.1058 87,-432 142.541,-410.592 163.0234,-423.1402 216,-396 302.3294,-351.773 320.6531,-328.7251 380,-252 411.4129,-211.3887 447.3015,-188.094 421,-144 409.8383,-125.2876 389.6985,-112.6708 370.4032,-104.3727"/>
<polygon fill="#000000" stroke="#000000" points="371.627,-101.0928 361.0419,-100.6383 369.0332,-107.5945 371.627,-101.0928"/>
<g id="a_edge8&#45;headlabel"><a xlink:href="dir_000325_000076.html" target="_top" xlink:title="4">
<text text-anchor="middle" x="376.0177" y="-97.2874" font-family="Helvetica,sans-Serif" font-size="10.00" fill="#000000">4</text>
</a>
</g>
</g>
<!-- dir_ac3b77a1b17a4594b18b160ef67742fa -->
<g id="node5" class="node">
<title>dir_ac3b77a1b17a4594b18b160ef67742fa</title>
<g id="a_node5"><a xlink:href="dir_ac3b77a1b17a4594b18b160ef67742fa.html" target="_top" xlink:title="test">
<polygon fill="#ffffff" stroke="#000000" points="150,-468 96,-468 96,-432 150,-432 150,-468"/>
<text text-anchor="middle" x="123" y="-447.5" font-family="Helvetica,sans-Serif" font-size="10.00" fill="#000000">test</text>
</a>
</g>
</g>
<!-- dir_ac3b77a1b17a4594b18b160ef67742fa&#45;&gt;dir_a3959ed40b1558172144f5e1a56e443f -->
<g id="edge24" class="edge">
<title>dir_ac3b77a1b17a4594b18b160ef67742fa&#45;&gt;dir_a3959ed40b1558172144f5e1a56e443f</title>
<path fill="none" stroke="#000000" d="M137.3835,-431.8314C143.9486,-423.5386 151.8507,-413.557 159.0578,-404.4533"/>
<polygon fill="#000000" stroke="#000000" points="161.9599,-406.4262 165.4228,-396.4133 156.4716,-402.0813 161.9599,-406.4262"/>
<g id="a_edge24&#45;headlabel"><a xlink:href="dir_000600_000305.html" target="_top" xlink:title="8">
<text text-anchor="middle" x="161.9549" y="-408.5069" font-family="Helvetica,sans-Serif" font-size="10.00" fill="#000000">8</text>
</a>
</g>
</g>
<!-- dir_ac3b77a1b17a4594b18b160ef67742fa&#45;&gt;dir_677b030cc750909e4cd27413873678d8 -->
<g id="edge23" class="edge">
<title>dir_ac3b77a1b17a4594b18b160ef67742fa&#45;&gt;dir_677b030cc750909e4cd27413873678d8</title>
<path fill="none" stroke="#000000" d="M150.2155,-435.5328C153.1388,-434.2387 156.1033,-433.0306 159,-432 228.0807,-407.4224 250.5439,-419.4956 320,-396 320.7152,-395.7581 321.4349,-395.5071 322.1575,-395.2482"/>
<polygon fill="#000000" stroke="#000000" points="323.5801,-398.4496 331.5988,-391.5249 321.012,-391.9376 323.5801,-398.4496"/>
<g id="a_edge23&#45;headlabel"><a xlink:href="dir_000600_000050.html" target="_top" xlink:title="9">
<text text-anchor="middle" x="321.2777" y="-399.9095" font-family="Helvetica,sans-Serif" font-size="10.00" fill="#000000">9</text>
</a>
</g>
</g>
<!-- dir_677b030cc750909e4cd27413873678d8&#45;&gt;dir_4ab6b4cc6a7edbff49100e9123df213f -->
<g id="edge9" class="edge">
<title>dir_677b030cc750909e4cd27413873678d8&#45;&gt;dir_4ab6b4cc6a7edbff49100e9123df213f</title>
<path fill="none" stroke="#000000" d="M340.3832,-359.9676C334.1814,-354.4645 327.0504,-348.6462 320,-344 307.831,-335.9806 293.7123,-328.6437 280.8052,-322.6009"/>
<polygon fill="#000000" stroke="#000000" points="282.2174,-319.3982 271.6661,-318.4382 279.3157,-325.7685 282.2174,-319.3982"/>
<g id="a_edge9&#45;headlabel"><a xlink:href="dir_000050_000027.html" target="_top" xlink:title="12">
<text text-anchor="middle" x="286.6655" y="-315.8043" font-family="Helvetica,sans-Serif" font-size="10.00" fill="#000000">12</text>
</a>
</g>
</g>
<!-- dir_677b030cc750909e4cd27413873678d8&#45;&gt;dir_f511f1e9c03c071966ae594f00bbc5e0 -->
<g id="edge10" class="edge">
<title>dir_677b030cc750909e4cd27413873678d8&#45;&gt;dir_f511f1e9c03c071966ae594f00bbc5e0</title>
<path fill="none" stroke="#000000" d="M354.1873,-359.7623C347.6773,-335.0928 336.0047,-290.8598 328.3818,-261.9731"/>
<polygon fill="#000000" stroke="#000000" points="331.7094,-260.8656 325.7736,-252.0896 324.9411,-262.6517 331.7094,-260.8656"/>
<g id="a_edge10&#45;headlabel"><a xlink:href="dir_000050_000140.html" target="_top" xlink:title="1">
<text text-anchor="middle" x="335.3718" y="-261.1168" font-family="Helvetica,sans-Serif" font-size="10.00" fill="#000000">1</text>
</a>
</g>
</g>
<!-- dir_677b030cc750909e4cd27413873678d8&#45;&gt;dir_26637d1bd82229bc9ed97f7e706be743 -->
<g id="edge11" class="edge">
<title>dir_677b030cc750909e4cd27413873678d8&#45;&gt;dir_26637d1bd82229bc9ed97f7e706be743</title>
<path fill="none" stroke="#000000" d="M362.6934,-359.7248C367.4827,-335.2896 375.7271,-290.5734 380,-252 382.2794,-231.4232 383.5382,-208.0788 384.2225,-190.3222"/>
<polygon fill="#000000" stroke="#000000" points="387.7206,-190.4358 384.5704,-180.3202 380.7248,-190.1924 387.7206,-190.4358"/>
<g id="a_edge11&#45;headlabel"><a xlink:href="dir_000050_000555.html" target="_top" xlink:title="1">
<text text-anchor="middle" x="390.4333" y="-191.6269" font-family="Helvetica,sans-Serif" font-size="10.00" fill="#000000">1</text>
</a>
</g>
</g>
<!-- dir_677b030cc750909e4cd27413873678d8&#45;&gt;dir_2171f7ec022c5423887b07c69b2f5b48 -->
<g id="edge12" class="edge">
<title>dir_677b030cc750909e4cd27413873678d8&#45;&gt;dir_2171f7ec022c5423887b07c69b2f5b48</title>
<path fill="none" stroke="#000000" d="M386.1038,-371.7979C424.1245,-362.486 490.2067,-343.8555 504,-324 549.6422,-258.2977 551.8993,-208.0754 504,-144 488.0297,-122.6363 419.7315,-106.7815 371.2626,-97.959"/>
<polygon fill="#000000" stroke="#000000" points="371.7043,-94.4828 361.2468,-96.1837 370.4825,-101.3753 371.7043,-94.4828"/>
<g id="a_edge12&#45;headlabel"><a xlink:href="dir_000050_000076.html" target="_top" xlink:title="15">
<text text-anchor="middle" x="375.7392" y="-89.8144" font-family="Helvetica,sans-Serif" font-size="10.00" fill="#000000">15</text>
</a>
</g>
</g>
<!-- dir_4ab6b4cc6a7edbff49100e9123df213f&#45;&gt;dir_f511f1e9c03c071966ae594f00bbc5e0 -->
<g id="edge13" class="edge">
<title>dir_4ab6b4cc6a7edbff49100e9123df213f&#45;&gt;dir_f511f1e9c03c071966ae594f00bbc5e0</title>
<path fill="none" stroke="#000000" d="M255.235,-287.8314C264.1378,-279.0485 275.8344,-268.3712 286.9366,-258.8489"/>
<polygon fill="#000000" stroke="#000000" points="289.4777,-261.2844 294.8673,-252.1628 284.9657,-255.9326 289.4777,-261.2844"/>
<g id="a_edge13&#45;headlabel"><a xlink:href="dir_000027_000140.html" target="_top" xlink:title="3">
<text text-anchor="middle" x="288.5596" y="-263.2721" font-family="Helvetica,sans-Serif" font-size="10.00" fill="#000000">3</text>
</a>
</g>
</g>
<!-- dir_4ab6b4cc6a7edbff49100e9123df213f&#45;&gt;dir_2171f7ec022c5423887b07c69b2f5b48 -->
<g id="edge14" class="edge">
<title>dir_4ab6b4cc6a7edbff49100e9123df213f&#45;&gt;dir_2171f7ec022c5423887b07c69b2f5b48</title>
<path fill="none" stroke="#000000" d="M243.7372,-287.9555C254.2863,-250.0762 286.6362,-162.0818 306.2309,-117.274"/>
<polygon fill="#000000" stroke="#000000" points="309.4264,-118.7018 310.3245,-108.1451 303.0391,-115.8376 309.4264,-118.7018"/>
<g id="a_edge14&#45;headlabel"><a xlink:href="dir_000027_000076.html" target="_top" xlink:title="2">
<text text-anchor="middle" x="310.5463" y="-120.6434" font-family="Helvetica,sans-Serif" font-size="10.00" fill="#000000">2</text>
</a>
</g>
</g>
<!-- dir_37c90836491b695b472bf98d1be8336b&#45;&gt;dir_4ab6b4cc6a7edbff49100e9123df213f -->
<g id="edge15" class="edge">
<title>dir_37c90836491b695b472bf98d1be8336b&#45;&gt;dir_4ab6b4cc6a7edbff49100e9123df213f</title>
<path fill="none" stroke="#000000" d="M219.4382,-36.0089C223.326,-84.6912 234.0671,-219.1886 238.7587,-277.9345"/>
<polygon fill="#000000" stroke="#000000" points="235.2762,-278.2947 239.5612,-287.9843 242.254,-277.7374 235.2762,-278.2947"/>
<g id="a_edge15&#45;headlabel"><a xlink:href="dir_000276_000027.html" target="_top" xlink:title="16">
<text text-anchor="middle" x="232.1599" y="-272.4375" font-family="Helvetica,sans-Serif" font-size="10.00" fill="#000000">16</text>
</a>
</g>
</g>
<!-- dir_37c90836491b695b472bf98d1be8336b&#45;&gt;dir_f511f1e9c03c071966ae594f00bbc5e0 -->
<g id="edge16" class="edge">
<title>dir_37c90836491b695b472bf98d1be8336b&#45;&gt;dir_f511f1e9c03c071966ae594f00bbc5e0</title>
<path fill="none" stroke="#000000" d="M226.6525,-36.1451C244.7575,-74.1129 286.7207,-162.1133 308.0509,-206.8447"/>
<polygon fill="#000000" stroke="#000000" points="304.932,-208.4357 312.3954,-215.9555 311.2504,-205.4227 304.932,-208.4357"/>
<g id="a_edge16&#45;headlabel"><a xlink:href="dir_000276_000140.html" target="_top" xlink:title="14">
<text text-anchor="middle" x="300.822" y="-203.9131" font-family="Helvetica,sans-Serif" font-size="10.00" fill="#000000">14</text>
</a>
</g>
</g>
<!-- dir_37c90836491b695b472bf98d1be8336b&#45;&gt;dir_2171f7ec022c5423887b07c69b2f5b48 -->
<g id="edge17" class="edge">
<title>dir_37c90836491b695b472bf98d1be8336b&#45;&gt;dir_2171f7ec022c5423887b07c69b2f5b48</title>
<path fill="none" stroke="#000000" d="M245.0704,-33.0059C259.7491,-42.4477 277.7662,-54.8509 292.6259,-65.6751"/>
<polygon fill="#000000" stroke="#000000" points="290.8379,-68.7056 300.9611,-71.8314 294.9967,-63.0749 290.8379,-68.7056"/>
<g id="a_edge17&#45;headlabel"><a xlink:href="dir_000276_000076.html" target="_top" xlink:title="10">
<text text-anchor="middle" x="286.2596" y="-66.3539" font-family="Helvetica,sans-Serif" font-size="10.00" fill="#000000">10</text>
</a>
</g>
</g>
<!-- dir_f511f1e9c03c071966ae594f00bbc5e0&#45;&gt;dir_4ab6b4cc6a7edbff49100e9123df213f -->
<g id="edge25" class="edge">
<title>dir_f511f1e9c03c071966ae594f00bbc5e0&#45;&gt;dir_4ab6b4cc6a7edbff49100e9123df213f</title>
<path fill="none" stroke="#000000" d="M306.7709,-252.1628C297.8693,-260.9449 286.1732,-271.622 275.0707,-281.1448"/>
<polygon fill="#000000" stroke="#000000" points="272.5292,-278.7097 267.1398,-287.8314 277.0412,-284.0615 272.5292,-278.7097"/>
<g id="a_edge25&#45;headlabel"><a xlink:href="dir_000140_000027.html" target="_top" xlink:title="2">
<text text-anchor="middle" x="273.4472" y="-271.722" font-family="Helvetica,sans-Serif" font-size="10.00" fill="#000000">2</text>
</a>
</g>
</g>
<!-- dir_f511f1e9c03c071966ae594f00bbc5e0&#45;&gt;dir_26637d1bd82229bc9ed97f7e706be743 -->
<g id="edge26" class="edge">
<title>dir_f511f1e9c03c071966ae594f00bbc5e0&#45;&gt;dir_26637d1bd82229bc9ed97f7e706be743</title>
<path fill="none" stroke="#000000" d="M331.1975,-215.8314C337.8946,-207.3694 346.7943,-197.1489 355.4724,-187.8971"/>
<polygon fill="#000000" stroke="#000000" points="358.2563,-190.0511 362.6566,-180.4133 353.2065,-185.2034 358.2563,-190.0511"/>
<g id="a_edge26&#45;headlabel"><a xlink:href="dir_000140_000555.html" target="_top" xlink:title="1">
<text text-anchor="middle" x="357.8152" y="-192.1105" font-family="Helvetica,sans-Serif" font-size="10.00" fill="#000000">1</text>
</a>
</g>
</g>
<!-- dir_f511f1e9c03c071966ae594f00bbc5e0&#45;&gt;dir_2171f7ec022c5423887b07c69b2f5b48 -->
<g id="edge27" class="edge">
<title>dir_f511f1e9c03c071966ae594f00bbc5e0&#45;&gt;dir_2171f7ec022c5423887b07c69b2f5b48</title>
<path fill="none" stroke="#000000" d="M316.3268,-215.7623C313.867,-191.201 313.5923,-147.2474 315.5026,-118.3541"/>
<polygon fill="#000000" stroke="#000000" points="319.0152,-118.3416 316.3417,-108.0896 312.0385,-117.7712 319.0152,-118.3416"/>
<g id="a_edge27&#45;headlabel"><a xlink:href="dir_000140_000076.html" target="_top" xlink:title="12">
<text text-anchor="middle" x="321.5522" y="-119.6556" font-family="Helvetica,sans-Serif" font-size="10.00" fill="#000000">12</text>
</a>
</g>
</g>
<!-- dir_26637d1bd82229bc9ed97f7e706be743&#45;&gt;dir_4ab6b4cc6a7edbff49100e9123df213f -->
<g id="edge28" class="edge">
<title>dir_26637d1bd82229bc9ed97f7e706be743&#45;&gt;dir_4ab6b4cc6a7edbff49100e9123df213f</title>
<path fill="none" stroke="#000000" d="M383.6375,-180.3259C381.2653,-200.1603 374.7703,-231.6721 357,-252 337.3168,-274.5161 306.2547,-288.2845 281.2255,-296.2788"/>
<polygon fill="#000000" stroke="#000000" points="280.1885,-292.9357 271.6178,-299.1641 282.2019,-299.64 280.1885,-292.9357"/>
<g id="a_edge28&#45;headlabel"><a xlink:href="dir_000555_000027.html" target="_top" xlink:title="6">
<text text-anchor="middle" x="282.8147" y="-286.6826" font-family="Helvetica,sans-Serif" font-size="10.00" fill="#000000">6</text>
</a>
</g>
</g>
<!-- dir_26637d1bd82229bc9ed97f7e706be743&#45;&gt;dir_f511f1e9c03c071966ae594f00bbc5e0 -->
<g id="edge29" class="edge">
<title>dir_26637d1bd82229bc9ed97f7e706be743&#45;&gt;dir_f511f1e9c03c071966ae594f00bbc5e0</title>
<path fill="none" stroke="#000000" d="M374.6087,-180.4133C367.8694,-188.9088 358.9509,-199.1366 350.2773,-208.3696"/>
<polygon fill="#000000" stroke="#000000" points="347.5106,-206.1972 343.1023,-215.8314 352.5564,-211.049 347.5106,-206.1972"/>
<g id="a_edge29&#45;headlabel"><a xlink:href="dir_000555_000140.html" target="_top" xlink:title="2">
<text text-anchor="middle" x="347.9555" y="-199.1382" font-family="Helvetica,sans-Serif" font-size="10.00" fill="#000000">2</text>
</a>
</g>
</g>
<!-- dir_26637d1bd82229bc9ed97f7e706be743&#45;&gt;dir_2171f7ec022c5423887b07c69b2f5b48 -->
<g id="edge30" class="edge">
<title>dir_26637d1bd82229bc9ed97f7e706be743&#45;&gt;dir_2171f7ec022c5423887b07c69b2f5b48</title>
<path fill="none" stroke="#000000" d="M368.8501,-143.8314C361.3283,-135.3694 352.2435,-125.1489 344.0196,-115.8971"/>
<polygon fill="#000000" stroke="#000000" points="346.627,-113.5621 337.3673,-108.4133 341.3951,-118.2127 346.627,-113.5621"/>
<g id="a_edge30&#45;headlabel"><a xlink:href="dir_000555_000076.html" target="_top" xlink:title="11">
<text text-anchor="middle" x="351.1372" y="-111.8624" font-family="Helvetica,sans-Serif" font-size="10.00" fill="#000000">11</text>
</a>
</g>
</g>
<!-- dir_2171f7ec022c5423887b07c69b2f5b48&#45;&gt;dir_4ab6b4cc6a7edbff49100e9123df213f -->
<g id="edge31" class="edge">
<title>dir_2171f7ec022c5423887b07c69b2f5b48&#45;&gt;dir_4ab6b4cc6a7edbff49100e9123df213f</title>
<path fill="none" stroke="#000000" d="M318.2347,-108.1451C307.6694,-146.0333 275.4249,-233.7445 255.8405,-278.5628"/>
<polygon fill="#000000" stroke="#000000" points="252.5267,-277.3987 251.6291,-287.9555 258.9141,-280.2627 252.5267,-277.3987"/>
<g id="a_edge31&#45;headlabel"><a xlink:href="dir_000076_000027.html" target="_top" xlink:title="33">
<text text-anchor="middle" x="251.4066" y="-270.4571" font-family="Helvetica,sans-Serif" font-size="10.00" fill="#000000">33</text>
</a>
</g>
</g>
<!-- dir_2171f7ec022c5423887b07c69b2f5b48&#45;&gt;dir_37c90836491b695b472bf98d1be8336b -->
<g id="edge32" class="edge">
<title>dir_2171f7ec022c5423887b07c69b2f5b48&#45;&gt;dir_37c90836491b695b472bf98d1be8336b</title>
<path fill="none" stroke="#000000" d="M289.0564,-71.8314C275.3754,-62.8779 259.5941,-51.9558 246.3337,-42.2955"/>
<polygon fill="#000000" stroke="#000000" points="248.1543,-39.289 238.0311,-36.1628 243.9953,-44.9195 248.1543,-39.289"/>
<g id="a_edge32&#45;headlabel"><a xlink:href="dir_000076_000276.html" target="_top" xlink:title="1">
<text text-anchor="middle" x="252.7325" y="-36.6408" font-family="Helvetica,sans-Serif" font-size="10.00" fill="#000000">1</text>
</a>
</g>
</g>
<!-- dir_2171f7ec022c5423887b07c69b2f5b48&#45;&gt;dir_f511f1e9c03c071966ae594f00bbc5e0 -->
<g id="edge33" class="edge">
<title>dir_2171f7ec022c5423887b07c69b2f5b48&#45;&gt;dir_f511f1e9c03c071966ae594f00bbc5e0</title>
<path fill="none" stroke="#000000" d="M325.6583,-108.0896C328.1269,-132.5727 328.4104,-176.5174 326.5089,-205.4713"/>
<polygon fill="#000000" stroke="#000000" points="322.9942,-205.5118 325.6732,-215.7623 329.9712,-206.0785 322.9942,-205.5118"/>
<g id="a_edge33&#45;headlabel"><a xlink:href="dir_000076_000140.html" target="_top" xlink:title="11">
<text text-anchor="middle" x="320.4551" y="-199.1992" font-family="Helvetica,sans-Serif" font-size="10.00" fill="#000000">11</text>
</a>
</g>
</g>
</g>
</svg>
        <g id="navigator" transform="translate(0 0)" fill="#404254">
                <rect fill="#f2f5e9" fill-opacity="0.5" stroke="#606060" stroke-width=".5" x="0" y="0" width="60" height="60"/>
                <use id="zoomplus" xlink:href="#zoomPlus" x="17" y="9" onmousedown="handleZoom(evt,'in')"/>
                <use id="zoomminus" xlink:href="#zoomMin" x="42" y="9" onmousedown="handleZoom(evt,'out')"/>
                <use id="reset" xlink:href="#resetDef" x="30" y="36" onmousedown="handleReset()"/>
                <g id="arrowUp" xlink:href="#dirArrow" transform="translate(30 24)" onmousedown="handlePan(0,-1)">
                  <use xlink:href="#rim" fill="#404040">
                        <set attributeName="fill" to="#808080" begin="arrowUp.mouseover" end="arrowUp.mouseout"/>
                  </use>
                  <path fill="none" stroke="white" stroke-width="1.5" d="M0,-3.0v7 M-2.5,-0.5L0,-3.0L2.5,-0.5"/>
                </g>
                <g id="arrowRight" xlink:href="#dirArrow" transform="rotate(90) translate(36 -43)" onmousedown="handlePan(1,0)">
                  <use xlink:href="#rim" fill="#404040">
                        <set attributeName="fill" to="#808080" begin="arrowRight.mouseover" end="arrowRight.mouseout"/>
                  </use>
                  <path fill="none" stroke="white" stroke-width="1.5" d="M0,-3.0v7 M-2.5,-0.5L0,-3.0L2.5,-0.5"/>
                </g>
                <g id="arrowDown" xlink:href="#dirArrow" transform="rotate(180) translate(-30 -48)" onmousedown="handlePan(0,1)">
                  <use xlink:href="#rim" fill="#404040">
                        <set attributeName="fill" to="#808080" begin="arrowDown.mouseover" end="arrowDown.mouseout"/>
                  </use>
                  <path fill="none" stroke="white" stroke-width="1.5" d="M0,-3.0v7 M-2.5,-0.5L0,-3.0L2.5,-0.5"/>
                </g>
                <g id="arrowLeft" xlink:href="#dirArrow" transform="rotate(270) translate(-36 17)" onmousedown="handlePan(-1,0)">
                  <use xlink:href="#rim" fill="#404040">
                        <set attributeName="fill" to="#808080" begin="arrowLeft.mouseover" end="arrowLeft.mouseout"/>
                  </use>
                  <path fill="none" stroke="white" stroke-width="1.5" d="M0,-3.0v7 M-2.5,-0.5L0,-3.0L2.5,-0.5"/>
                </g>
        </g>
        <svg viewBox="0 0 15 15" width="100%" height="30px" preserveAspectRatio="xMaxYMin meet">
         <g id="arrow_out" transform="scale(0.3 0.3)">
          <a xlink:href="dir_7f309bec8670bb3fb666e7e061b24659_dep_org.svg" target="_base">
           <rect id="button" ry="5" rx="5" y="6" x="6" height="38" width="38"
                fill="#f2f5e9" fill-opacity="0.5" stroke="#606060" stroke-width="1.0"/>
           <path id="arrow"
             d="M 11.500037,31.436501 C 11.940474,20.09759 22.043105,11.32322 32.158766,21.979434 L 37.068811,17.246167 C 37.068811,17.246167 37.088388,32 37.088388,32 L 22.160133,31.978069 C 22.160133,31.978069 26.997745,27.140456 26.997745,27.140456 C 18.528582,18.264221 13.291696,25.230495 11.500037,31.436501 z"
             style="fill:#404040;"/>
          </a>
         </g>
        </svg>
</svg>
