<?xml version="1.0" encoding="UTF-8" standalone="no"?>
<!DOCTYPE svg PUBLIC "-//W3C//DTD SVG 1.1//EN"
 "http://www.w3.org/Graphics/SVG/1.1/DTD/svg11.dtd">
<!-- Generated by graphviz version 2.40.1 (20161225.0304)
 -->
<!-- Title: /home/travis/build/AliceO2Group/AliceO2/Detectors/MUON/MID/Raw/test Pages: 1 -->
<svg width="177pt" height="295pt"
 viewBox="0.00 0.00 177.00 295.00" xmlns="http://www.w3.org/2000/svg" xmlns:xlink="http://www.w3.org/1999/xlink">
<g id="graph0" class="graph" transform="scale(1 1) rotate(0) translate(4 291)">
<title>/home/travis/build/AliceO2Group/AliceO2/Detectors/MUON/MID/Raw/test</title>
<g id="clust1" class="cluster">
<title>clusterdir_55bb03bc4479a61c5f6db133927cb48c</title>
<g id="a_clust1"><a xlink:href="dir_55bb03bc4479a61c5f6db133927cb48c.html" target="_top" xlink:title="Raw">
<polygon fill="#ddddee" stroke="#000000" points="91,-208 91,-279 161,-279 161,-208 91,-208"/>
<text text-anchor="middle" x="126" y="-267" font-family="Helvetica,sans-Serif" font-size="10.00" fill="#000000">Raw</text>
</a>
</g>
</g>
<!-- dir_afdedb4ee6548c342d3449f0674fa36d -->
<g id="node1" class="node">
<title>dir_afdedb4ee6548c342d3449f0674fa36d</title>
<g id="a_node1"><a xlink:href="dir_afdedb4ee6548c342d3449f0674fa36d.html" target="_top" xlink:title="test">
<polygon fill="#eeeeff" stroke="#000000" points="153,-252 99,-252 99,-216 153,-216 153,-252"/>
<text text-anchor="middle" x="126" y="-231.5" font-family="Helvetica,sans-Serif" font-size="10.00" fill="#000000">test</text>
</a>
</g>
</g>
<!-- dir_c79384bd87b5c57290ef89b923823ea3 -->
<g id="node2" class="node">
<title>dir_c79384bd87b5c57290ef89b923823ea3</title>
<g id="a_node2"><a xlink:href="dir_c79384bd87b5c57290ef89b923823ea3.html" target="_top" xlink:title="include">
<polygon fill="none" stroke="#ff0000" points="54,-180 0,-180 0,-144 54,-144 54,-180"/>
<text text-anchor="middle" x="27" y="-159.5" font-family="Helvetica,sans-Serif" font-size="10.00" fill="#000000">include</text>
</a>
</g>
</g>
<!-- dir_afdedb4ee6548c342d3449f0674fa36d&#45;&gt;dir_c79384bd87b5c57290ef89b923823ea3 -->
<g id="edge3" class="edge">
<title>dir_afdedb4ee6548c342d3449f0674fa36d&#45;&gt;dir_c79384bd87b5c57290ef89b923823ea3</title>
<path fill="none" stroke="#000000" d="M101.0181,-215.8314C88.7072,-206.8779 73.6893,-195.9558 60.4063,-186.2955"/>
<polygon fill="#000000" stroke="#000000" points="62.1199,-183.214 51.9739,-180.1628 58.0027,-188.8752 62.1199,-183.214"/>
<g id="a_edge3&#45;headlabel"><a xlink:href="dir_000559_000420.html" target="_top" xlink:title="10">
<text text-anchor="middle" x="66.6969" y="-180.532" font-family="Helvetica,sans-Serif" font-size="10.00" fill="#000000">10</text>
</a>
</g>
</g>
<!-- dir_b5547b1068d53f0f904ee5a2a84992af -->
<g id="node3" class="node">
<title>dir_b5547b1068d53f0f904ee5a2a84992af</title>
<g id="a_node3"><a xlink:href="dir_b5547b1068d53f0f904ee5a2a84992af.html" target="_top" xlink:title="Base">
<polygon fill="none" stroke="#ff0000" points="126,-180 72,-180 72,-144 126,-144 126,-180"/>
<text text-anchor="middle" x="99" y="-159.5" font-family="Helvetica,sans-Serif" font-size="10.00" fill="#000000">Base</text>
</a>
</g>
</g>
<!-- dir_afdedb4ee6548c342d3449f0674fa36d&#45;&gt;dir_b5547b1068d53f0f904ee5a2a84992af -->
<g id="edge4" class="edge">
<title>dir_afdedb4ee6548c342d3449f0674fa36d&#45;&gt;dir_b5547b1068d53f0f904ee5a2a84992af</title>
<path fill="none" stroke="#000000" d="M119.1868,-215.8314C116.2356,-207.9617 112.7142,-198.5712 109.445,-189.8533"/>
<polygon fill="#000000" stroke="#000000" points="112.6934,-188.5476 105.905,-180.4133 106.1391,-191.0055 112.6934,-188.5476"/>
<g id="a_edge4&#45;headlabel"><a xlink:href="dir_000559_000547.html" target="_top" xlink:title="4">
<text text-anchor="middle" x="116.614" y="-188.4164" font-family="Helvetica,sans-Serif" font-size="10.00" fill="#000000">4</text>
</a>
</g>
</g>
<!-- dir_26637d1bd82229bc9ed97f7e706be743 -->
<g id="node4" class="node">
<title>dir_26637d1bd82229bc9ed97f7e706be743</title>
<g id="a_node4"><a xlink:href="dir_26637d1bd82229bc9ed97f7e706be743.html" target="_top" xlink:title="Raw">
<polygon fill="none" stroke="#ff0000" points="150,-108 96,-108 96,-72 150,-72 150,-108"/>
<text text-anchor="middle" x="123" y="-87.5" font-family="Helvetica,sans-Serif" font-size="10.00" fill="#000000">Raw</text>
</a>
</g>
</g>
<!-- dir_afdedb4ee6548c342d3449f0674fa36d&#45;&gt;dir_26637d1bd82229bc9ed97f7e706be743 -->
<g id="edge5" class="edge">
<title>dir_afdedb4ee6548c342d3449f0674fa36d&#45;&gt;dir_26637d1bd82229bc9ed97f7e706be743</title>
<path fill="none" stroke="#000000" d="M130.0706,-215.7176C133.5928,-197.526 137.7244,-168.8186 135,-144 134.0716,-135.5425 132.3486,-126.4715 130.4922,-118.2246"/>
<polygon fill="#000000" stroke="#000000" points="133.8544,-117.2356 128.1191,-108.3273 127.0473,-118.8678 133.8544,-117.2356"/>
<g id="a_edge5&#45;headlabel"><a xlink:href="dir_000559_000555.html" target="_top" xlink:title="1">
<text text-anchor="middle" x="137.4534" y="-117.5692" font-family="Helvetica,sans-Serif" font-size="10.00" fill="#000000">1</text>
</a>
</g>
</g>
<!-- dir_2171f7ec022c5423887b07c69b2f5b48 -->
<g id="node5" class="node">
<title>dir_2171f7ec022c5423887b07c69b2f5b48</title>
<g id="a_node5"><a xlink:href="dir_2171f7ec022c5423887b07c69b2f5b48.html" target="_top" xlink:title="DataFormats">
<polygon fill="none" stroke="#ff0000" points="163,-36 83,-36 83,0 163,0 163,-36"/>
<text text-anchor="middle" x="123" y="-15.5" font-family="Helvetica,sans-Serif" font-size="10.00" fill="#000000">DataFormats</text>
</a>
</g>
</g>
<!-- dir_afdedb4ee6548c342d3449f0674fa36d&#45;&gt;dir_2171f7ec022c5423887b07c69b2f5b48 -->
<g id="edge6" class="edge">
<title>dir_afdedb4ee6548c342d3449f0674fa36d&#45;&gt;dir_2171f7ec022c5423887b07c69b2f5b48</title>
<path fill="none" stroke="#000000" d="M135.5228,-215.7478C150.04,-185.4619 174.4707,-123.0961 159,-72 156.0436,-62.2355 150.6748,-52.6229 144.97,-44.2762"/>
<polygon fill="#000000" stroke="#000000" points="147.7129,-42.0973 138.9905,-36.0831 142.0586,-46.2239 147.7129,-42.0973"/>
<g id="a_edge6&#45;headlabel"><a xlink:href="dir_000559_000076.html" target="_top" xlink:title="4">
<text text-anchor="middle" x="152.1253" y="-40.827" font-family="Helvetica,sans-Serif" font-size="10.00" fill="#000000">4</text>
</a>
</g>
</g>
<!-- dir_c79384bd87b5c57290ef89b923823ea3&#45;&gt;dir_26637d1bd82229bc9ed97f7e706be743 -->
<g id="edge1" class="edge">
<title>dir_c79384bd87b5c57290ef89b923823ea3&#45;&gt;dir_26637d1bd82229bc9ed97f7e706be743</title>
<path fill="none" stroke="#000000" d="M51.2249,-143.8314C63.1628,-134.8779 77.7256,-123.9558 90.606,-114.2955"/>
<polygon fill="#000000" stroke="#000000" points="92.8829,-116.9629 98.7829,-108.1628 88.6829,-111.3629 92.8829,-116.9629"/>
<g id="a_edge1&#45;headlabel"><a xlink:href="dir_000420_000555.html" target="_top" xlink:title="1">
<text text-anchor="middle" x="91.7108" y="-118.891" font-family="Helvetica,sans-Serif" font-size="10.00" fill="#000000">1</text>
</a>
</g>
</g>
<!-- dir_c79384bd87b5c57290ef89b923823ea3&#45;&gt;dir_2171f7ec022c5423887b07c69b2f5b48 -->
<g id="edge2" class="edge">
<title>dir_c79384bd87b5c57290ef89b923823ea3&#45;&gt;dir_2171f7ec022c5423887b07c69b2f5b48</title>
<path fill="none" stroke="#000000" d="M39.1585,-143.7623C55.8933,-118.66 86.1322,-73.3017 105.3553,-44.4671"/>
<polygon fill="#000000" stroke="#000000" points="108.3054,-46.3516 110.9403,-36.0896 102.481,-42.4687 108.3054,-46.3516"/>
<g id="a_edge2&#45;headlabel"><a xlink:href="dir_000420_000076.html" target="_top" xlink:title="11">
<text text-anchor="middle" x="108.6739" y="-48.4174" font-family="Helvetica,sans-Serif" font-size="10.00" fill="#000000">11</text>
</a>
</g>
</g>
<!-- dir_26637d1bd82229bc9ed97f7e706be743&#45;&gt;dir_2171f7ec022c5423887b07c69b2f5b48 -->
<g id="edge7" class="edge">
<title>dir_26637d1bd82229bc9ed97f7e706be743&#45;&gt;dir_2171f7ec022c5423887b07c69b2f5b48</title>
<path fill="none" stroke="#000000" d="M123,-71.8314C123,-64.131 123,-54.9743 123,-46.4166"/>
<polygon fill="#000000" stroke="#000000" points="126.5001,-46.4132 123,-36.4133 119.5001,-46.4133 126.5001,-46.4132"/>
<g id="a_edge7&#45;headlabel"><a xlink:href="dir_000555_000076.html" target="_top" xlink:title="11">
<text text-anchor="middle" x="129.3393" y="-47.5079" font-family="Helvetica,sans-Serif" font-size="10.00" fill="#000000">11</text>
</a>
</g>
</g>
</g>
</svg>
