<?xml version="1.0" encoding="UTF-8" standalone="no"?>
<!DOCTYPE svg PUBLIC "-//W3C//DTD SVG 1.1//EN"
 "http://www.w3.org/Graphics/SVG/1.1/DTD/svg11.dtd">
<!-- Generated by graphviz version 2.40.1 (20161225.0304)
 -->
<!-- Title: Graphical Class Hierarchy Pages: 1 -->
<svg width="365pt" height="284pt"
 viewBox="0.00 0.00 365.00 284.00" xmlns="http://www.w3.org/2000/svg" xmlns:xlink="http://www.w3.org/1999/xlink">
<g id="graph0" class="graph" transform="scale(1 1) rotate(0) translate(4 280)">
<title>Graphical Class Hierarchy</title>
<!-- Node0 -->
<g id="node1" class="node">
<title>Node0</title>
<g id="a_node1"><a xlink:href="de/dac/structo2_1_1soa_1_1CombinationsIndexPolicyBase.html" target="_top" xlink:title="o2::soa::CombinationsIndex\lPolicyBase\&lt; Ts... \&gt;">
<polygon fill="none" stroke="#000000" points="0,-122.5 0,-152.5 152,-152.5 152,-122.5 0,-122.5"/>
<text text-anchor="start" x="8" y="-140.5" font-family="Helvetica,sans-Serif" font-size="10.00" fill="#000000">o2::soa::CombinationsIndex</text>
<text text-anchor="middle" x="76" y="-129.5" font-family="Helvetica,sans-Serif" font-size="10.00" fill="#000000">PolicyBase&lt; Ts... &gt;</text>
</a>
</g>
</g>
<!-- Node1 -->
<g id="node2" class="node">
<title>Node1</title>
<g id="a_node2"><a xlink:href="d3/d63/structo2_1_1soa_1_1CombinationsBlockFullIndexPolicy.html" target="_top" xlink:title="o2::soa::CombinationsBlock\lFullIndexPolicy\&lt; Ts \&gt;">
<polygon fill="none" stroke="#000000" points="196.5,-245.5 196.5,-275.5 348.5,-275.5 348.5,-245.5 196.5,-245.5"/>
<text text-anchor="start" x="204.5" y="-263.5" font-family="Helvetica,sans-Serif" font-size="10.00" fill="#000000">o2::soa::CombinationsBlock</text>
<text text-anchor="middle" x="272.5" y="-252.5" font-family="Helvetica,sans-Serif" font-size="10.00" fill="#000000">FullIndexPolicy&lt; Ts &gt;</text>
</a>
</g>
</g>
<!-- Node0&#45;&gt;Node1 -->
<g id="edge1" class="edge">
<title>Node0&#45;&gt;Node1</title>
<path fill="none" stroke="#191970" d="M95.6715,-159.9948C116.4849,-182.4613 151.3349,-216.4555 188,-236.5 194.1554,-239.8651 200.827,-242.7958 207.6305,-245.3395"/>
<polygon fill="#191970" stroke="#191970" points="98.2342,-157.6107 88.9149,-152.5706 93.0571,-162.3222 98.2342,-157.6107"/>
</g>
<!-- Node2 -->
<g id="node3" class="node">
<title>Node2</title>
<g id="a_node3"><a xlink:href="d6/d38/structo2_1_1soa_1_1CombinationsBlockStrictlyUpperIndexPolicy.html" target="_top" xlink:title="o2::soa::CombinationsBlock\lStrictlyUpperIndexPolicy\&lt; Ts \&gt;">
<polygon fill="none" stroke="#000000" points="188,-196.5 188,-226.5 357,-226.5 357,-196.5 188,-196.5"/>
<text text-anchor="start" x="196" y="-214.5" font-family="Helvetica,sans-Serif" font-size="10.00" fill="#000000">o2::soa::CombinationsBlock</text>
<text text-anchor="middle" x="272.5" y="-203.5" font-family="Helvetica,sans-Serif" font-size="10.00" fill="#000000">StrictlyUpperIndexPolicy&lt; Ts &gt;</text>
</a>
</g>
</g>
<!-- Node0&#45;&gt;Node2 -->
<g id="edge2" class="edge">
<title>Node0&#45;&gt;Node2</title>
<path fill="none" stroke="#191970" d="M115.7213,-156.9019C136.8809,-166.8092 163.5265,-178.6134 188,-187.5 196.7441,-190.6751 206.1189,-193.6997 215.3272,-196.4653"/>
<polygon fill="#191970" stroke="#191970" points="116.9493,-153.6111 106.4129,-152.5006 113.9571,-159.9394 116.9493,-153.6111"/>
</g>
<!-- Node3 -->
<g id="node4" class="node">
<title>Node3</title>
<g id="a_node4"><a xlink:href="d1/d4d/structo2_1_1soa_1_1CombinationsBlockUpperIndexPolicy.html" target="_top" xlink:title="o2::soa::CombinationsBlock\lUpperIndexPolicy\&lt; Ts \&gt;">
<polygon fill="none" stroke="#000000" points="196.5,-147.5 196.5,-177.5 348.5,-177.5 348.5,-147.5 196.5,-147.5"/>
<text text-anchor="start" x="204.5" y="-165.5" font-family="Helvetica,sans-Serif" font-size="10.00" fill="#000000">o2::soa::CombinationsBlock</text>
<text text-anchor="middle" x="272.5" y="-154.5" font-family="Helvetica,sans-Serif" font-size="10.00" fill="#000000">UpperIndexPolicy&lt; Ts &gt;</text>
</a>
</g>
</g>
<!-- Node0&#45;&gt;Node3 -->
<g id="edge3" class="edge">
<title>Node0&#45;&gt;Node3</title>
<path fill="none" stroke="#191970" d="M162.5107,-148.5065C173.7626,-149.938 185.2227,-151.396 196.2896,-152.804"/>
<polygon fill="#191970" stroke="#191970" points="162.6151,-144.9916 152.2533,-147.2014 161.7316,-151.9356 162.6151,-144.9916"/>
</g>
<!-- Node4 -->
<g id="node5" class="node">
<title>Node4</title>
<g id="a_node5"><a xlink:href="d0/db2/structo2_1_1soa_1_1CombinationsFullIndexPolicy.html" target="_top" xlink:title="o2::soa::CombinationsFull\lIndexPolicy\&lt; Ts \&gt;">
<polygon fill="none" stroke="#000000" points="201.5,-98.5 201.5,-128.5 343.5,-128.5 343.5,-98.5 201.5,-98.5"/>
<text text-anchor="start" x="209.5" y="-116.5" font-family="Helvetica,sans-Serif" font-size="10.00" fill="#000000">o2::soa::CombinationsFull</text>
<text text-anchor="middle" x="272.5" y="-105.5" font-family="Helvetica,sans-Serif" font-size="10.00" fill="#000000">IndexPolicy&lt; Ts &gt;</text>
</a>
</g>
</g>
<!-- Node0&#45;&gt;Node4 -->
<g id="edge4" class="edge">
<title>Node0&#45;&gt;Node4</title>
<path fill="none" stroke="#191970" d="M162.2023,-126.9715C175.3072,-125.3709 188.7025,-123.7348 201.4364,-122.1795"/>
<polygon fill="#191970" stroke="#191970" points="161.7552,-123.5 152.2533,-128.1866 162.6039,-130.4484 161.7552,-123.5"/>
</g>
<!-- Node5 -->
<g id="node6" class="node">
<title>Node5</title>
<g id="a_node6"><a xlink:href="de/ddd/structo2_1_1soa_1_1CombinationsStrictlyUpperIndexPolicy.html" target="_top" xlink:title="o2::soa::CombinationsStrictly\lUpperIndexPolicy\&lt; Ts \&gt;">
<polygon fill="none" stroke="#000000" points="192.5,-49.5 192.5,-79.5 352.5,-79.5 352.5,-49.5 192.5,-49.5"/>
<text text-anchor="start" x="200.5" y="-67.5" font-family="Helvetica,sans-Serif" font-size="10.00" fill="#000000">o2::soa::CombinationsStrictly</text>
<text text-anchor="middle" x="272.5" y="-56.5" font-family="Helvetica,sans-Serif" font-size="10.00" fill="#000000">UpperIndexPolicy&lt; Ts &gt;</text>
</a>
</g>
</g>
<!-- Node0&#45;&gt;Node5 -->
<g id="edge5" class="edge">
<title>Node0&#45;&gt;Node5</title>
<path fill="none" stroke="#191970" d="M117.6541,-118.2679C138.5388,-108.9806 164.3587,-98.03 188,-89.5 197.6417,-86.0212 208.0246,-82.6509 218.1002,-79.5706"/>
<polygon fill="#191970" stroke="#191970" points="116.1239,-115.1183 108.4312,-122.4034 118.9879,-121.5056 116.1239,-115.1183"/>
</g>
<!-- Node6 -->
<g id="node7" class="node">
<title>Node6</title>
<g id="a_node7"><a xlink:href="d4/d13/structo2_1_1soa_1_1CombinationsUpperIndexPolicy.html" target="_top" xlink:title="o2::soa::CombinationsUpper\lIndexPolicy\&lt; Ts \&gt;">
<polygon fill="none" stroke="#000000" points="195,-.5 195,-30.5 350,-30.5 350,-.5 195,-.5"/>
<text text-anchor="start" x="203" y="-18.5" font-family="Helvetica,sans-Serif" font-size="10.00" fill="#000000">o2::soa::CombinationsUpper</text>
<text text-anchor="middle" x="272.5" y="-7.5" font-family="Helvetica,sans-Serif" font-size="10.00" fill="#000000">IndexPolicy&lt; Ts &gt;</text>
</a>
</g>
</g>
<!-- Node0&#45;&gt;Node6 -->
<g id="edge6" class="edge">
<title>Node0&#45;&gt;Node6</title>
<path fill="none" stroke="#191970" d="M96.4336,-114.9054C117.4223,-92.9705 152.0256,-60.1857 188,-40.5 194.9788,-36.6811 202.6089,-33.3822 210.3378,-30.5495"/>
<polygon fill="#191970" stroke="#191970" points="93.639,-112.7682 89.3395,-122.4514 98.7391,-117.5628 93.639,-112.7682"/>
</g>
</g>
</svg>
