<?xml version="1.0" encoding="UTF-8" standalone="no"?>
<!DOCTYPE svg PUBLIC "-//W3C//DTD SVG 1.1//EN"
 "http://www.w3.org/Graphics/SVG/1.1/DTD/svg11.dtd">
<!-- Generated by graphviz version 2.40.1 (20161225.0304)
 -->
<!-- Title: Graphical Class Hierarchy Pages: 1 -->
<svg width="564pt" height="872pt"
 viewBox="0.00 0.00 564.00 872.00" xmlns="http://www.w3.org/2000/svg" xmlns:xlink="http://www.w3.org/1999/xlink">
<g id="graph0" class="graph" transform="scale(1 1) rotate(0) translate(4 868)">
<title>Graphical Class Hierarchy</title>
<!-- Node0 -->
<g id="node1" class="node">
<title>Node0</title>
<g id="a_node1"><a xlink:href="d3/d60/classGPUCA__NAMESPACE_1_1gpu_1_1GPUKernelTemplate.html" target="_top" xlink:title="GPUCA_NAMESPACE::gpu\l::GPUKernelTemplate">
<polygon fill="none" stroke="#000000" points="0,-416.5 0,-446.5 140,-446.5 140,-416.5 0,-416.5"/>
<text text-anchor="start" x="8" y="-434.5" font-family="Helvetica,sans-Serif" font-size="10.00" fill="#000000">GPUCA_NAMESPACE::gpu</text>
<text text-anchor="middle" x="70" y="-423.5" font-family="Helvetica,sans-Serif" font-size="10.00" fill="#000000">::GPUKernelTemplate</text>
</a>
</g>
</g>
<!-- Node1 -->
<g id="node2" class="node">
<title>Node1</title>
<g id="a_node2"><a xlink:href="d8/dba/classGPUCA__NAMESPACE_1_1gpu_1_1GPUITSFitterKernel.html" target="_top" xlink:title="GPUCA_NAMESPACE::gpu\l::GPUITSFitterKernel">
<polygon fill="none" stroke="#000000" points="187,-833.5 187,-863.5 327,-863.5 327,-833.5 187,-833.5"/>
<text text-anchor="start" x="195" y="-851.5" font-family="Helvetica,sans-Serif" font-size="10.00" fill="#000000">GPUCA_NAMESPACE::gpu</text>
<text text-anchor="middle" x="257" y="-840.5" font-family="Helvetica,sans-Serif" font-size="10.00" fill="#000000">::GPUITSFitterKernel</text>
</a>
</g>
</g>
<!-- Node0&#45;&gt;Node1 -->
<g id="edge1" class="edge">
<title>Node0&#45;&gt;Node1</title>
<path fill="none" stroke="#191970" d="M73.5215,-456.4987C84.9687,-534.3782 123.4456,-770.6364 176,-824.5 179.3801,-827.9643 183.2347,-830.9342 187.3853,-833.4797"/>
<polygon fill="#191970" stroke="#191970" points="76.9845,-455.9911 72.087,-446.5962 70.0569,-456.9947 76.9845,-455.9911"/>
</g>
<!-- Node2 -->
<g id="node3" class="node">
<title>Node2</title>
<g id="a_node3"><a xlink:href="da/d27/classGPUCA__NAMESPACE_1_1gpu_1_1GPUMemClean16.html" target="_top" xlink:title="GPUCA_NAMESPACE::gpu\l::GPUMemClean16">
<polygon fill="none" stroke="#000000" points="187,-784.5 187,-814.5 327,-814.5 327,-784.5 187,-784.5"/>
<text text-anchor="start" x="195" y="-802.5" font-family="Helvetica,sans-Serif" font-size="10.00" fill="#000000">GPUCA_NAMESPACE::gpu</text>
<text text-anchor="middle" x="257" y="-791.5" font-family="Helvetica,sans-Serif" font-size="10.00" fill="#000000">::GPUMemClean16</text>
</a>
</g>
</g>
<!-- Node0&#45;&gt;Node2 -->
<g id="edge2" class="edge">
<title>Node0&#45;&gt;Node2</title>
<path fill="none" stroke="#191970" d="M74.57,-456.6307C88.0117,-527.9466 129.4093,-729.4122 176,-775.5 179.4409,-778.9038 183.3407,-781.8289 187.5239,-784.3421"/>
<polygon fill="#191970" stroke="#191970" points="77.9952,-455.9058 72.724,-446.7153 71.1135,-457.187 77.9952,-455.9058"/>
</g>
<!-- Node3 -->
<g id="node4" class="node">
<title>Node3</title>
<g id="a_node4"><a xlink:href="d1/d49/classGPUCA__NAMESPACE_1_1gpu_1_1GPUTPCCFChargeMapFiller.html" target="_top" xlink:title="GPUCA_NAMESPACE::gpu\l::GPUTPCCFChargeMapFiller">
<polygon fill="none" stroke="#000000" points="181,-735.5 181,-765.5 333,-765.5 333,-735.5 181,-735.5"/>
<text text-anchor="start" x="189" y="-753.5" font-family="Helvetica,sans-Serif" font-size="10.00" fill="#000000">GPUCA_NAMESPACE::gpu</text>
<text text-anchor="middle" x="257" y="-742.5" font-family="Helvetica,sans-Serif" font-size="10.00" fill="#000000">::GPUTPCCFChargeMapFiller</text>
</a>
</g>
</g>
<!-- Node0&#45;&gt;Node3 -->
<g id="edge3" class="edge">
<title>Node0&#45;&gt;Node3</title>
<path fill="none" stroke="#191970" d="M71.6276,-456.8101C76.6556,-513.5307 96.8168,-651.6989 176,-726.5 179.625,-729.9244 183.7159,-732.8625 188.085,-735.3832"/>
<polygon fill="#191970" stroke="#191970" points="75.0968,-456.2841 70.8108,-446.5949 68.1191,-456.8421 75.0968,-456.2841"/>
</g>
<!-- Node4 -->
<g id="node5" class="node">
<title>Node4</title>
<g id="a_node5"><a xlink:href="dd/db2/classGPUCA__NAMESPACE_1_1gpu_1_1GPUTPCCFClusterizer.html" target="_top" xlink:title="GPUCA_NAMESPACE::gpu\l::GPUTPCCFClusterizer">
<polygon fill="none" stroke="#000000" points="187,-686.5 187,-716.5 327,-716.5 327,-686.5 187,-686.5"/>
<text text-anchor="start" x="195" y="-704.5" font-family="Helvetica,sans-Serif" font-size="10.00" fill="#000000">GPUCA_NAMESPACE::gpu</text>
<text text-anchor="middle" x="257" y="-693.5" font-family="Helvetica,sans-Serif" font-size="10.00" fill="#000000">::GPUTPCCFClusterizer</text>
</a>
</g>
</g>
<!-- Node0&#45;&gt;Node4 -->
<g id="edge4" class="edge">
<title>Node0&#45;&gt;Node4</title>
<path fill="none" stroke="#191970" d="M73.6736,-456.7105C82.255,-506.4037 108.2833,-617.3853 176,-677.5 179.8389,-680.908 184.1422,-683.8327 188.7111,-686.3426"/>
<polygon fill="#191970" stroke="#191970" points="77.1222,-456.1115 72.0568,-446.806 70.2137,-457.2393 77.1222,-456.1115"/>
</g>
<!-- Node5 -->
<g id="node6" class="node">
<title>Node5</title>
<g id="a_node6"><a xlink:href="df/d90/classGPUCA__NAMESPACE_1_1gpu_1_1GPUTPCCFDecodeZS.html" target="_top" xlink:title="GPUCA_NAMESPACE::gpu\l::GPUTPCCFDecodeZS">
<polygon fill="none" stroke="#000000" points="187,-637.5 187,-667.5 327,-667.5 327,-637.5 187,-637.5"/>
<text text-anchor="start" x="195" y="-655.5" font-family="Helvetica,sans-Serif" font-size="10.00" fill="#000000">GPUCA_NAMESPACE::gpu</text>
<text text-anchor="middle" x="257" y="-644.5" font-family="Helvetica,sans-Serif" font-size="10.00" fill="#000000">::GPUTPCCFDecodeZS</text>
</a>
</g>
</g>
<!-- Node0&#45;&gt;Node5 -->
<g id="edge5" class="edge">
<title>Node0&#45;&gt;Node5</title>
<path fill="none" stroke="#191970" d="M76.5498,-456.3312C88.8653,-498.1461 119.465,-582.5381 176,-628.5 180.2108,-631.9233 184.8964,-634.8583 189.8316,-637.3748"/>
<polygon fill="#191970" stroke="#191970" points="79.9046,-455.332 73.8081,-446.667 73.1703,-457.2426 79.9046,-455.332"/>
</g>
<!-- Node6 -->
<g id="node7" class="node">
<title>Node6</title>
<g id="a_node7"><a xlink:href="d9/d9a/classGPUCA__NAMESPACE_1_1gpu_1_1GPUTPCCFDeconvolution.html" target="_top" xlink:title="GPUCA_NAMESPACE::gpu\l::GPUTPCCFDeconvolution">
<polygon fill="none" stroke="#000000" points="184.5,-588.5 184.5,-618.5 329.5,-618.5 329.5,-588.5 184.5,-588.5"/>
<text text-anchor="start" x="192.5" y="-606.5" font-family="Helvetica,sans-Serif" font-size="10.00" fill="#000000">GPUCA_NAMESPACE::gpu</text>
<text text-anchor="middle" x="257" y="-595.5" font-family="Helvetica,sans-Serif" font-size="10.00" fill="#000000">::GPUTPCCFDeconvolution</text>
</a>
</g>
</g>
<!-- Node0&#45;&gt;Node6 -->
<g id="edge6" class="edge">
<title>Node0&#45;&gt;Node6</title>
<path fill="none" stroke="#191970" d="M81.1107,-455.9721C97.3065,-488.9119 130.5001,-547.109 176,-579.5 180.7794,-582.9024 186.0427,-585.8275 191.5221,-588.3413"/>
<polygon fill="#191970" stroke="#191970" points="84.1081,-454.1273 76.6353,-446.6168 77.7935,-457.1481 84.1081,-454.1273"/>
</g>
<!-- Node7 -->
<g id="node8" class="node">
<title>Node7</title>
<g id="a_node8"><a xlink:href="d0/dad/classGPUCA__NAMESPACE_1_1gpu_1_1GPUTPCCFMCLabelFlattener.html" target="_top" xlink:title="GPUCA_NAMESPACE::gpu\l::GPUTPCCFMCLabelFlattener">
<polygon fill="none" stroke="#000000" points="177.5,-539.5 177.5,-569.5 336.5,-569.5 336.5,-539.5 177.5,-539.5"/>
<text text-anchor="start" x="185.5" y="-557.5" font-family="Helvetica,sans-Serif" font-size="10.00" fill="#000000">GPUCA_NAMESPACE::gpu</text>
<text text-anchor="middle" x="257" y="-546.5" font-family="Helvetica,sans-Serif" font-size="10.00" fill="#000000">::GPUTPCCFMCLabelFlattener</text>
</a>
</g>
</g>
<!-- Node0&#45;&gt;Node7 -->
<g id="edge7" class="edge">
<title>Node0&#45;&gt;Node7</title>
<path fill="none" stroke="#191970" d="M88.6713,-454.2524C108.2382,-476.6913 140.9611,-510.4539 176,-530.5 181.9834,-533.9232 188.5,-536.8983 195.1523,-539.4746"/>
<polygon fill="#191970" stroke="#191970" points="91.2377,-451.8682 82.0777,-446.5442 85.9183,-456.4184 91.2377,-451.8682"/>
</g>
<!-- Node8 -->
<g id="node9" class="node">
<title>Node8</title>
<g id="a_node9"><a xlink:href="db/d60/classGPUCA__NAMESPACE_1_1gpu_1_1GPUTPCCFNoiseSuppression.html" target="_top" xlink:title="GPUCA_NAMESPACE::gpu\l::GPUTPCCFNoiseSuppression">
<polygon fill="none" stroke="#000000" points="176.5,-490.5 176.5,-520.5 337.5,-520.5 337.5,-490.5 176.5,-490.5"/>
<text text-anchor="start" x="184.5" y="-508.5" font-family="Helvetica,sans-Serif" font-size="10.00" fill="#000000">GPUCA_NAMESPACE::gpu</text>
<text text-anchor="middle" x="257" y="-497.5" font-family="Helvetica,sans-Serif" font-size="10.00" fill="#000000">::GPUTPCCFNoiseSuppression</text>
</a>
</g>
</g>
<!-- Node0&#45;&gt;Node8 -->
<g id="edge8" class="edge">
<title>Node0&#45;&gt;Node8</title>
<path fill="none" stroke="#8b1a1a" d="M107.7959,-451.0522C127.7596,-460.9362 152.859,-472.6731 176,-481.5 184.3593,-484.6885 193.3338,-487.7202 202.1559,-490.4887"/>
<polygon fill="#8b1a1a" stroke="#8b1a1a" points="109.2347,-447.8585 98.7255,-446.5145 106.1028,-454.1188 109.2347,-447.8585"/>
</g>
<!-- Node9 -->
<g id="node10" class="node">
<title>Node9</title>
<g id="a_node10"><a xlink:href="db/d88/classGPUCA__NAMESPACE_1_1gpu_1_1GPUTPCCFPeakFinder.html" target="_top" xlink:title="GPUCA_NAMESPACE::gpu\l::GPUTPCCFPeakFinder">
<polygon fill="none" stroke="#000000" points="187,-441.5 187,-471.5 327,-471.5 327,-441.5 187,-441.5"/>
<text text-anchor="start" x="195" y="-459.5" font-family="Helvetica,sans-Serif" font-size="10.00" fill="#000000">GPUCA_NAMESPACE::gpu</text>
<text text-anchor="middle" x="257" y="-448.5" font-family="Helvetica,sans-Serif" font-size="10.00" fill="#000000">::GPUTPCCFPeakFinder</text>
</a>
</g>
</g>
<!-- Node0&#45;&gt;Node9 -->
<g id="edge9" class="edge">
<title>Node0&#45;&gt;Node9</title>
<path fill="none" stroke="#191970" d="M150.2699,-442.2313C162.4079,-443.854 174.8494,-445.5173 186.7539,-447.1088"/>
<polygon fill="#191970" stroke="#191970" points="150.5396,-438.7363 140.1639,-440.8802 149.6119,-445.6745 150.5396,-438.7363"/>
</g>
<!-- Node10 -->
<g id="node11" class="node">
<title>Node10</title>
<g id="a_node11"><a xlink:href="d0/d6b/classGPUCA__NAMESPACE_1_1gpu_1_1GPUTPCCompressionKernels.html" target="_top" xlink:title="GPUCA_NAMESPACE::gpu\l::GPUTPCCompressionKernels">
<polygon fill="none" stroke="#000000" points="176,-392.5 176,-422.5 338,-422.5 338,-392.5 176,-392.5"/>
<text text-anchor="start" x="184" y="-410.5" font-family="Helvetica,sans-Serif" font-size="10.00" fill="#000000">GPUCA_NAMESPACE::gpu</text>
<text text-anchor="middle" x="257" y="-399.5" font-family="Helvetica,sans-Serif" font-size="10.00" fill="#000000">::GPUTPCCompressionKernels</text>
</a>
</g>
</g>
<!-- Node0&#45;&gt;Node10 -->
<g id="edge10" class="edge">
<title>Node0&#45;&gt;Node10</title>
<path fill="none" stroke="#191970" d="M150.3393,-421.1891C158.7557,-420.1089 167.3173,-419.0101 175.744,-417.9286"/>
<polygon fill="#191970" stroke="#191970" points="149.637,-417.7504 140.1639,-422.495 150.5281,-424.6935 149.637,-417.7504"/>
</g>
<!-- Node11 -->
<g id="node12" class="node">
<title>Node11</title>
<g id="a_node12"><a xlink:href="d8/dc8/classGPUCA__NAMESPACE_1_1gpu_1_1GPUTPCConvertKernel.html" target="_top" xlink:title="GPUCA_NAMESPACE::gpu\l::GPUTPCConvertKernel">
<polygon fill="none" stroke="#000000" points="187,-343.5 187,-373.5 327,-373.5 327,-343.5 187,-343.5"/>
<text text-anchor="start" x="195" y="-361.5" font-family="Helvetica,sans-Serif" font-size="10.00" fill="#000000">GPUCA_NAMESPACE::gpu</text>
<text text-anchor="middle" x="257" y="-350.5" font-family="Helvetica,sans-Serif" font-size="10.00" fill="#000000">::GPUTPCConvertKernel</text>
</a>
</g>
</g>
<!-- Node0&#45;&gt;Node11 -->
<g id="edge11" class="edge">
<title>Node0&#45;&gt;Node11</title>
<path fill="none" stroke="#191970" d="M109.8991,-411.9958C129.556,-402.7579 153.7596,-391.9294 176,-383.5 185.2204,-380.0053 195.1627,-376.6275 204.8175,-373.5447"/>
<polygon fill="#191970" stroke="#191970" points="108.1787,-408.938 100.6431,-416.3855 111.1783,-415.2628 108.1787,-408.938"/>
</g>
<!-- Node12 -->
<g id="node13" class="node">
<title>Node12</title>
<g id="a_node13"><a xlink:href="da/dd0/classGPUCA__NAMESPACE_1_1gpu_1_1GPUTPCGMMergerGeneral.html" target="_top" xlink:title="GPUCA_NAMESPACE::gpu\l::GPUTPCGMMergerGeneral">
<polygon fill="none" stroke="#000000" points="182,-294.5 182,-324.5 332,-324.5 332,-294.5 182,-294.5"/>
<text text-anchor="start" x="190" y="-312.5" font-family="Helvetica,sans-Serif" font-size="10.00" fill="#000000">GPUCA_NAMESPACE::gpu</text>
<text text-anchor="middle" x="257" y="-301.5" font-family="Helvetica,sans-Serif" font-size="10.00" fill="#000000">::GPUTPCGMMergerGeneral</text>
</a>
</g>
</g>
<!-- Node0&#45;&gt;Node12 -->
<g id="edge12" class="edge">
<title>Node0&#45;&gt;Node12</title>
<path fill="none" stroke="#191970" d="M89.1427,-408.9405C108.8565,-387.0324 141.4932,-354.2678 176,-334.5 182.6404,-330.6959 189.9252,-327.4057 197.3186,-324.5777"/>
<polygon fill="#191970" stroke="#191970" points="86.4828,-406.6649 82.4848,-416.4765 91.7288,-411.2995 86.4828,-406.6649"/>
</g>
<!-- Node15 -->
<g id="node16" class="node">
<title>Node15</title>
<g id="a_node16"><a xlink:href="d2/d8c/classGPUCA__NAMESPACE_1_1gpu_1_1GPUTPCNeighboursCleaner.html" target="_top" xlink:title="GPUCA_NAMESPACE::gpu\l::GPUTPCNeighboursCleaner">
<polygon fill="none" stroke="#000000" points="179.5,-245.5 179.5,-275.5 334.5,-275.5 334.5,-245.5 179.5,-245.5"/>
<text text-anchor="start" x="187.5" y="-263.5" font-family="Helvetica,sans-Serif" font-size="10.00" fill="#000000">GPUCA_NAMESPACE::gpu</text>
<text text-anchor="middle" x="257" y="-252.5" font-family="Helvetica,sans-Serif" font-size="10.00" fill="#000000">::GPUTPCNeighboursCleaner</text>
</a>
</g>
</g>
<!-- Node0&#45;&gt;Node15 -->
<g id="edge15" class="edge">
<title>Node0&#45;&gt;Node15</title>
<path fill="none" stroke="#191970" d="M81.5028,-406.9325C97.9486,-374.4369 131.2145,-317.5465 176,-285.5 181.3859,-281.6461 187.3811,-278.3746 193.605,-275.5999"/>
<polygon fill="#191970" stroke="#191970" points="78.2267,-405.6626 76.9448,-416.1796 84.5054,-408.7575 78.2267,-405.6626"/>
</g>
<!-- Node16 -->
<g id="node17" class="node">
<title>Node16</title>
<g id="a_node17"><a xlink:href="d7/dd4/classGPUCA__NAMESPACE_1_1gpu_1_1GPUTPCNeighboursFinder.html" target="_top" xlink:title="GPUCA_NAMESPACE::gpu\l::GPUTPCNeighboursFinder">
<polygon fill="none" stroke="#000000" points="183.5,-196.5 183.5,-226.5 330.5,-226.5 330.5,-196.5 183.5,-196.5"/>
<text text-anchor="start" x="191.5" y="-214.5" font-family="Helvetica,sans-Serif" font-size="10.00" fill="#000000">GPUCA_NAMESPACE::gpu</text>
<text text-anchor="middle" x="257" y="-203.5" font-family="Helvetica,sans-Serif" font-size="10.00" fill="#000000">::GPUTPCNeighboursFinder</text>
</a>
</g>
</g>
<!-- Node0&#45;&gt;Node16 -->
<g id="edge16" class="edge">
<title>Node0&#45;&gt;Node16</title>
<path fill="none" stroke="#191970" d="M76.8522,-406.4168C89.4717,-364.9306 120.3261,-282.0884 176,-236.5 180.6685,-232.6772 185.9193,-229.4376 191.4461,-226.6925"/>
<polygon fill="#191970" stroke="#191970" points="73.4215,-405.678 73.9668,-416.2588 80.1388,-407.6474 73.4215,-405.678"/>
</g>
<!-- Node17 -->
<g id="node18" class="node">
<title>Node17</title>
<g id="a_node18"><a xlink:href="d1/d4a/classGPUCA__NAMESPACE_1_1gpu_1_1GPUTPCStartHitsFinder.html" target="_top" xlink:title="GPUCA_NAMESPACE::gpu\l::GPUTPCStartHitsFinder">
<polygon fill="none" stroke="#000000" points="187,-147.5 187,-177.5 327,-177.5 327,-147.5 187,-147.5"/>
<text text-anchor="start" x="195" y="-165.5" font-family="Helvetica,sans-Serif" font-size="10.00" fill="#000000">GPUCA_NAMESPACE::gpu</text>
<text text-anchor="middle" x="257" y="-154.5" font-family="Helvetica,sans-Serif" font-size="10.00" fill="#000000">::GPUTPCStartHitsFinder</text>
</a>
</g>
</g>
<!-- Node0&#45;&gt;Node17 -->
<g id="edge17" class="edge">
<title>Node0&#45;&gt;Node17</title>
<path fill="none" stroke="#191970" d="M73.8519,-406.2456C82.7075,-356.9154 109.1372,-247.3568 176,-187.5 180.2764,-183.6717 185.1297,-180.4296 190.285,-177.684"/>
<polygon fill="#191970" stroke="#191970" points="70.3584,-405.9122 72.1343,-416.3571 77.2596,-407.0845 70.3584,-405.9122"/>
</g>
<!-- Node18 -->
<g id="node19" class="node">
<title>Node18</title>
<g id="a_node19"><a xlink:href="dc/d09/classGPUCA__NAMESPACE_1_1gpu_1_1GPUTPCStartHitsSorter.html" target="_top" xlink:title="GPUCA_NAMESPACE::gpu\l::GPUTPCStartHitsSorter">
<polygon fill="none" stroke="#000000" points="187,-98.5 187,-128.5 327,-128.5 327,-98.5 187,-98.5"/>
<text text-anchor="start" x="195" y="-116.5" font-family="Helvetica,sans-Serif" font-size="10.00" fill="#000000">GPUCA_NAMESPACE::gpu</text>
<text text-anchor="middle" x="257" y="-105.5" font-family="Helvetica,sans-Serif" font-size="10.00" fill="#000000">::GPUTPCStartHitsSorter</text>
</a>
</g>
</g>
<!-- Node0&#45;&gt;Node18 -->
<g id="edge18" class="edge">
<title>Node0&#45;&gt;Node18</title>
<path fill="none" stroke="#191970" d="M71.7814,-406.0247C77.1085,-349.5661 97.8162,-213.0361 176,-138.5 180.0478,-134.6411 184.6786,-131.3769 189.6302,-128.616"/>
<polygon fill="#191970" stroke="#191970" points="68.2755,-405.9443 70.9085,-416.2067 75.2499,-406.5422 68.2755,-405.9443"/>
</g>
<!-- Node19 -->
<g id="node20" class="node">
<title>Node19</title>
<g id="a_node20"><a xlink:href="d7/d66/classGPUCA__NAMESPACE_1_1gpu_1_1GPUTPCTrackletSelector.html" target="_top" xlink:title="GPUCA_NAMESPACE::gpu\l::GPUTPCTrackletSelector">
<polygon fill="none" stroke="#000000" points="187,-49.5 187,-79.5 327,-79.5 327,-49.5 187,-49.5"/>
<text text-anchor="start" x="195" y="-67.5" font-family="Helvetica,sans-Serif" font-size="10.00" fill="#000000">GPUCA_NAMESPACE::gpu</text>
<text text-anchor="middle" x="257" y="-56.5" font-family="Helvetica,sans-Serif" font-size="10.00" fill="#000000">::GPUTPCTrackletSelector</text>
</a>
</g>
</g>
<!-- Node0&#45;&gt;Node19 -->
<g id="edge19" class="edge">
<title>Node0&#45;&gt;Node19</title>
<path fill="none" stroke="#191970" d="M74.616,-406.5396C88.1814,-335.7033 129.8787,-135.5666 176,-89.5 179.8527,-85.6519 184.2838,-82.3939 189.0455,-79.6358"/>
<polygon fill="#191970" stroke="#191970" points="71.1728,-405.9117 72.7525,-416.3881 78.0507,-407.2132 71.1728,-405.9117"/>
</g>
<!-- Node20 -->
<g id="node21" class="node">
<title>Node20</title>
<g id="a_node21"><a xlink:href="d1/d08/classGPUCA__NAMESPACE_1_1gpu_1_1GPUTRDTrackerKernels.html" target="_top" xlink:title="GPUCA_NAMESPACE::gpu\l::GPUTRDTrackerKernels">
<polygon fill="none" stroke="#000000" points="187,-.5 187,-30.5 327,-30.5 327,-.5 187,-.5"/>
<text text-anchor="start" x="195" y="-18.5" font-family="Helvetica,sans-Serif" font-size="10.00" fill="#000000">GPUCA_NAMESPACE::gpu</text>
<text text-anchor="middle" x="257" y="-7.5" font-family="Helvetica,sans-Serif" font-size="10.00" fill="#000000">::GPUTRDTrackerKernels</text>
</a>
</g>
</g>
<!-- Node0&#45;&gt;Node20 -->
<g id="edge20" class="edge">
<title>Node0&#45;&gt;Node20</title>
<path fill="none" stroke="#191970" d="M73.6368,-406.1753C85.3018,-328.2796 124.0707,-94.2595 176,-40.5 179.6809,-36.6893 183.9284,-33.4561 188.5103,-30.7131"/>
<polygon fill="#191970" stroke="#191970" points="70.1113,-406.0914 72.114,-416.4953 77.0363,-407.1133 70.1113,-406.0914"/>
</g>
<!-- Node13 -->
<g id="node14" class="node">
<title>Node13</title>
<g id="a_node14"><a xlink:href="dd/d4c/classGPUCA__NAMESPACE_1_1gpu_1_1GPUTPCGMMergerFollowLoopers.html" target="_top" xlink:title="GPUCA_NAMESPACE::gpu\l::GPUTPCGMMergerFollowLoopers">
<polygon fill="none" stroke="#000000" points="374,-318.5 374,-348.5 556,-348.5 556,-318.5 374,-318.5"/>
<text text-anchor="start" x="382" y="-336.5" font-family="Helvetica,sans-Serif" font-size="10.00" fill="#000000">GPUCA_NAMESPACE::gpu</text>
<text text-anchor="middle" x="465" y="-325.5" font-family="Helvetica,sans-Serif" font-size="10.00" fill="#000000">::GPUTPCGMMergerFollowLoopers</text>
</a>
</g>
</g>
<!-- Node12&#45;&gt;Node13 -->
<g id="edge13" class="edge">
<title>Node12&#45;&gt;Node13</title>
<path fill="none" stroke="#191970" d="M342.3331,-319.3461C352.674,-320.5393 363.2696,-321.7619 373.6925,-322.9645"/>
<polygon fill="#191970" stroke="#191970" points="342.4281,-315.8339 332.0928,-318.1646 341.6256,-322.7878 342.4281,-315.8339"/>
</g>
<!-- Node14 -->
<g id="node15" class="node">
<title>Node14</title>
<g id="a_node15"><a xlink:href="db/d09/classGPUCA__NAMESPACE_1_1gpu_1_1GPUTPCGMMergerTrackFit.html" target="_top" xlink:title="GPUCA_NAMESPACE::gpu\l::GPUTPCGMMergerTrackFit">
<polygon fill="none" stroke="#000000" points="390.5,-269.5 390.5,-299.5 539.5,-299.5 539.5,-269.5 390.5,-269.5"/>
<text text-anchor="start" x="398.5" y="-287.5" font-family="Helvetica,sans-Serif" font-size="10.00" fill="#000000">GPUCA_NAMESPACE::gpu</text>
<text text-anchor="middle" x="465" y="-276.5" font-family="Helvetica,sans-Serif" font-size="10.00" fill="#000000">::GPUTPCGMMergerTrackFit</text>
</a>
</g>
</g>
<!-- Node12&#45;&gt;Node14 -->
<g id="edge14" class="edge">
<title>Node12&#45;&gt;Node14</title>
<path fill="none" stroke="#191970" d="M342.4362,-299.2312C358.3319,-297.3207 374.8256,-295.3383 390.3663,-293.4704"/>
<polygon fill="#191970" stroke="#191970" points="341.6036,-295.806 332.0928,-300.4744 342.439,-302.756 341.6036,-295.806"/>
</g>
</g>
</svg>
