<?xml version="1.0" encoding="UTF-8" standalone="no"?>
<!DOCTYPE svg PUBLIC "-//W3C//DTD SVG 1.1//EN"
 "http://www.w3.org/Graphics/SVG/1.1/DTD/svg11.dtd">
<!-- Generated by graphviz version 2.40.1 (20161225.0304)
 -->
<!-- Title: Graphical Class Hierarchy Pages: 1 -->
<svg width="440pt" height="256pt"
 viewBox="0.00 0.00 440.00 256.00" xmlns="http://www.w3.org/2000/svg" xmlns:xlink="http://www.w3.org/1999/xlink">
<g id="graph0" class="graph" transform="scale(1 1) rotate(0) translate(4 252)">
<title>Graphical Class Hierarchy</title>
<!-- Node0 -->
<g id="node1" class="node">
<title>Node0</title>
<g id="a_node1"><a xlink:href="d4/d06/classFairModule.html" target="_top" xlink:title="FairModule">
<polygon fill="none" stroke="#000000" points="0,-133.5 0,-152.5 69,-152.5 69,-133.5 0,-133.5"/>
<text text-anchor="middle" x="34.5" y="-140.5" font-family="Helvetica,sans-Serif" font-size="10.00" fill="#000000">FairModule</text>
</a>
</g>
</g>
<!-- Node1 -->
<g id="node2" class="node">
<title>Node1</title>
<g id="a_node2"><a xlink:href="d3/d82/classo2_1_1passive_1_1Hall.html" target="_top" xlink:title="o2::passive::Hall">
<polygon fill="none" stroke="#000000" points="125.5,-152.5 125.5,-171.5 223.5,-171.5 223.5,-152.5 125.5,-152.5"/>
<text text-anchor="middle" x="174.5" y="-159.5" font-family="Helvetica,sans-Serif" font-size="10.00" fill="#000000">o2::passive::Hall</text>
</a>
</g>
</g>
<!-- Node0&#45;&gt;Node1 -->
<g id="edge1" class="edge">
<title>Node0&#45;&gt;Node1</title>
<path fill="none" stroke="#191970" d="M79.4076,-149.0946C94.0224,-151.078 110.3191,-153.2897 125.2351,-155.314"/>
<polygon fill="#191970" stroke="#191970" points="79.4866,-145.5733 69.1068,-147.6966 78.5452,-152.5097 79.4866,-145.5733"/>
</g>
<!-- Node2 -->
<g id="node3" class="node">
<title>Node2</title>
<g id="a_node3"><a xlink:href="d6/dfc/classo2_1_1passive_1_1PassiveBase.html" target="_top" xlink:title="a common base class for passive modules &#45; implementing generic functions ">
<polygon fill="none" stroke="#000000" points="105,-114.5 105,-133.5 244,-133.5 244,-114.5 105,-114.5"/>
<text text-anchor="middle" x="174.5" y="-121.5" font-family="Helvetica,sans-Serif" font-size="10.00" fill="#000000">o2::passive::PassiveBase</text>
</a>
</g>
</g>
<!-- Node0&#45;&gt;Node2 -->
<g id="edge2" class="edge">
<title>Node0&#45;&gt;Node2</title>
<path fill="none" stroke="#191970" d="M79.1369,-136.9421C87.3128,-135.8326 96.0225,-134.6505 104.7275,-133.4691"/>
<polygon fill="#191970" stroke="#191970" points="78.5452,-133.4903 69.1068,-138.3034 79.4866,-140.4267 78.5452,-133.4903"/>
</g>
<!-- Node3 -->
<g id="node4" class="node">
<title>Node3</title>
<g id="a_node4"><a xlink:href="d7/d12/classo2_1_1passive_1_1Absorber.html" target="_top" xlink:title="o2::passive::Absorber">
<polygon fill="none" stroke="#000000" points="295,-228.5 295,-247.5 417,-247.5 417,-228.5 295,-228.5"/>
<text text-anchor="middle" x="356" y="-235.5" font-family="Helvetica,sans-Serif" font-size="10.00" fill="#000000">o2::passive::Absorber</text>
</a>
</g>
</g>
<!-- Node2&#45;&gt;Node3 -->
<g id="edge3" class="edge">
<title>Node2&#45;&gt;Node3</title>
<path fill="none" stroke="#191970" d="M237.5846,-138.3714C239.8364,-139.774 241.9869,-141.3125 244,-143 272.6432,-167.0106 251.0958,-195.3043 280,-219 284.733,-222.8802 290.1504,-225.9833 295.8654,-228.4627"/>
<polygon fill="#191970" stroke="#191970" points="238.9568,-135.1394 228.4733,-133.6076 235.7134,-141.3427 238.9568,-135.1394"/>
</g>
<!-- Node4 -->
<g id="node5" class="node">
<title>Node4</title>
<g id="a_node5"><a xlink:href="d9/d93/classo2_1_1passive_1_1Compensator.html" target="_top" xlink:title="o2::passive::Compensator">
<polygon fill="none" stroke="#000000" points="284.5,-190.5 284.5,-209.5 427.5,-209.5 427.5,-190.5 284.5,-190.5"/>
<text text-anchor="middle" x="356" y="-197.5" font-family="Helvetica,sans-Serif" font-size="10.00" fill="#000000">o2::passive::Compensator</text>
</a>
</g>
</g>
<!-- Node2&#45;&gt;Node4 -->
<g id="edge4" class="edge">
<title>Node2&#45;&gt;Node4</title>
<path fill="none" stroke="#191970" d="M232.5053,-137.1915C236.5035,-138.9033 240.3782,-140.8308 244,-143 263.9584,-154.9539 259.912,-169.2652 280,-181 286.6938,-184.9103 294.1746,-188.0213 301.76,-190.495"/>
<polygon fill="#191970" stroke="#191970" points="233.6045,-133.8649 223.0136,-133.5765 231.113,-140.4065 233.6045,-133.8649"/>
</g>
<!-- Node5 -->
<g id="node6" class="node">
<title>Node5</title>
<g id="a_node6"><a xlink:href="d2/d54/classo2_1_1passive_1_1Dipole.html" target="_top" xlink:title="o2::passive::Dipole">
<polygon fill="none" stroke="#000000" points="301,-152.5 301,-171.5 411,-171.5 411,-152.5 301,-152.5"/>
<text text-anchor="middle" x="356" y="-159.5" font-family="Helvetica,sans-Serif" font-size="10.00" fill="#000000">o2::passive::Dipole</text>
</a>
</g>
</g>
<!-- Node2&#45;&gt;Node5 -->
<g id="edge5" class="edge">
<title>Node2&#45;&gt;Node5</title>
<path fill="none" stroke="#191970" d="M230.2921,-135.681C256.0312,-141.0699 286.1992,-147.3861 310.5292,-152.4799"/>
<polygon fill="#191970" stroke="#191970" points="230.8052,-132.2126 220.3001,-133.589 229.3706,-139.064 230.8052,-132.2126"/>
</g>
<!-- Node6 -->
<g id="node7" class="node">
<title>Node6</title>
<g id="a_node7"><a xlink:href="de/db8/classo2_1_1passive_1_1FrameStructure.html" target="_top" xlink:title="o2::passive::FrameStructure">
<polygon fill="none" stroke="#000000" points="280,-114.5 280,-133.5 432,-133.5 432,-114.5 280,-114.5"/>
<text text-anchor="middle" x="356" y="-121.5" font-family="Helvetica,sans-Serif" font-size="10.00" fill="#000000">o2::passive::FrameStructure</text>
</a>
</g>
</g>
<!-- Node2&#45;&gt;Node6 -->
<g id="edge6" class="edge">
<title>Node2&#45;&gt;Node6</title>
<path fill="none" stroke="#191970" d="M254.4003,-124C262.8694,-124 271.4664,-124 279.8905,-124"/>
<polygon fill="#191970" stroke="#191970" points="254.1536,-120.5001 244.1536,-124 254.1535,-127.5001 254.1536,-120.5001"/>
</g>
<!-- Node7 -->
<g id="node8" class="node">
<title>Node7</title>
<g id="a_node8"><a xlink:href="d2/dc7/classo2_1_1passive_1_1Magnet.html" target="_top" xlink:title="o2::passive::Magnet">
<polygon fill="none" stroke="#000000" points="299,-76.5 299,-95.5 413,-95.5 413,-76.5 299,-76.5"/>
<text text-anchor="middle" x="356" y="-83.5" font-family="Helvetica,sans-Serif" font-size="10.00" fill="#000000">o2::passive::Magnet</text>
</a>
</g>
</g>
<!-- Node2&#45;&gt;Node7 -->
<g id="edge7" class="edge">
<title>Node2&#45;&gt;Node7</title>
<path fill="none" stroke="#191970" d="M230.2921,-112.319C256.0312,-106.9301 286.1992,-100.6139 310.5292,-95.5201"/>
<polygon fill="#191970" stroke="#191970" points="229.3706,-108.936 220.3001,-114.411 230.8052,-115.7874 229.3706,-108.936"/>
</g>
<!-- Node8 -->
<g id="node9" class="node">
<title>Node8</title>
<g id="a_node9"><a xlink:href="d0/d9b/classo2_1_1passive_1_1Pipe.html" target="_top" xlink:title="o2::passive::Pipe">
<polygon fill="none" stroke="#000000" points="306.5,-38.5 306.5,-57.5 405.5,-57.5 405.5,-38.5 306.5,-38.5"/>
<text text-anchor="middle" x="356" y="-45.5" font-family="Helvetica,sans-Serif" font-size="10.00" fill="#000000">o2::passive::Pipe</text>
</a>
</g>
</g>
<!-- Node2&#45;&gt;Node8 -->
<g id="edge8" class="edge">
<title>Node2&#45;&gt;Node8</title>
<path fill="none" stroke="#191970" d="M198.0815,-109.029C218.9388,-96.3389 250.5465,-78.4296 280,-67 289.5095,-63.3098 299.9701,-60.151 310.0084,-57.5291"/>
<polygon fill="#191970" stroke="#191970" points="195.9712,-106.2185 189.3012,-114.4503 199.6488,-112.1747 195.9712,-106.2185"/>
</g>
<!-- Node9 -->
<g id="node10" class="node">
<title>Node9</title>
<g id="a_node10"><a xlink:href="dc/d7a/classo2_1_1passive_1_1Shil.html" target="_top" xlink:title="o2::passive::Shil">
<polygon fill="none" stroke="#000000" points="308,-.5 308,-19.5 404,-19.5 404,-.5 308,-.5"/>
<text text-anchor="middle" x="356" y="-7.5" font-family="Helvetica,sans-Serif" font-size="10.00" fill="#000000">o2::passive::Shil</text>
</a>
</g>
</g>
<!-- Node2&#45;&gt;Node9 -->
<g id="edge9" class="edge">
<title>Node2&#45;&gt;Node9</title>
<path fill="none" stroke="#191970" d="M188.9854,-106.5157C207.7557,-85.016 242.5431,-48.9323 280,-29 288.5245,-24.4637 298.1665,-20.9822 307.6504,-18.3193"/>
<polygon fill="#191970" stroke="#191970" points="186.2248,-104.3587 182.3885,-114.2346 191.5461,-108.9066 186.2248,-104.3587"/>
</g>
</g>
</svg>
