<?xml version="1.0" encoding="UTF-8" standalone="no"?>
<!DOCTYPE svg PUBLIC "-//W3C//DTD SVG 1.1//EN"
 "http://www.w3.org/Graphics/SVG/1.1/DTD/svg11.dtd">
<!-- Generated by graphviz version 2.40.1 (20161225.0304)
 -->
<!-- Title: o2::soa::CombinationsStrictlyUpperIndexPolicy&lt; Ts &gt; Pages: 1 -->
<svg width="449pt" height="608pt"
 viewBox="0.00 0.00 449.40 608.00" xmlns="http://www.w3.org/2000/svg" xmlns:xlink="http://www.w3.org/1999/xlink">
<g id="graph0" class="graph" transform="scale(1 1) rotate(0) translate(4 604)">
<title>o2::soa::CombinationsStrictlyUpperIndexPolicy&lt; Ts &gt;</title>
<!-- Node3 -->
<g id="node1" class="node">
<title>Node3</title>
<polygon fill="#bfbfbf" stroke="#000000" points="202.9021,-.5 202.9021,-101.5 362.9021,-101.5 362.9021,-.5 202.9021,-.5"/>
<text text-anchor="start" x="210.9021" y="-89.5" font-family="Helvetica,sans-Serif" font-size="10.00" fill="#000000">o2::soa::CombinationsStrictly</text>
<text text-anchor="middle" x="282.9021" y="-78.5" font-family="Helvetica,sans-Serif" font-size="10.00" fill="#000000">UpperIndexPolicy&lt; Ts &gt;</text>
<polyline fill="none" stroke="#000000" points="202.9021,-71.5 362.9021,-71.5 "/>
<text text-anchor="middle" x="282.9021" y="-59.5" font-family="Helvetica,sans-Serif" font-size="10.00" fill="#000000"> </text>
<polyline fill="none" stroke="#000000" points="202.9021,-52.5 362.9021,-52.5 "/>
<text text-anchor="start" x="210.9021" y="-40.5" font-family="Helvetica,sans-Serif" font-size="10.00" fill="#000000">+ CombinationsStrictlyUpper</text>
<text text-anchor="start" x="210.9021" y="-29.5" font-family="Helvetica,sans-Serif" font-size="10.00" fill="#000000">IndexPolicy()</text>
<text text-anchor="start" x="210.9021" y="-18.5" font-family="Helvetica,sans-Serif" font-size="10.00" fill="#000000">+ moveToEnd()</text>
<text text-anchor="start" x="210.9021" y="-7.5" font-family="Helvetica,sans-Serif" font-size="10.00" fill="#000000">+ addOne()</text>
</g>
<!-- Node4 -->
<g id="node2" class="node">
<title>Node4</title>
<g id="a_node2"><a xlink:href="../../de/dac/structo2_1_1soa_1_1CombinationsIndexPolicyBase.html" target="_top" xlink:title="{o2::soa::CombinationsIndex\lPolicyBase\&lt; Ts... \&gt;\n||+ CombinationsIndexPolicyBase()\l+ moveToEnd()\l+ addOne()\l}">
<polygon fill="none" stroke="#000000" points="191.4021,-139.5 191.4021,-229.5 374.4021,-229.5 374.4021,-139.5 191.4021,-139.5"/>
<text text-anchor="start" x="199.4021" y="-217.5" font-family="Helvetica,sans-Serif" font-size="10.00" fill="#000000">o2::soa::CombinationsIndex</text>
<text text-anchor="middle" x="282.9021" y="-206.5" font-family="Helvetica,sans-Serif" font-size="10.00" fill="#000000">PolicyBase&lt; Ts... &gt;</text>
<polyline fill="none" stroke="#000000" points="191.4021,-199.5 374.4021,-199.5 "/>
<text text-anchor="middle" x="282.9021" y="-187.5" font-family="Helvetica,sans-Serif" font-size="10.00" fill="#000000"> </text>
<polyline fill="none" stroke="#000000" points="191.4021,-180.5 374.4021,-180.5 "/>
<text text-anchor="start" x="199.4021" y="-168.5" font-family="Helvetica,sans-Serif" font-size="10.00" fill="#000000">+ CombinationsIndexPolicyBase()</text>
<text text-anchor="start" x="199.4021" y="-157.5" font-family="Helvetica,sans-Serif" font-size="10.00" fill="#000000">+ moveToEnd()</text>
<text text-anchor="start" x="199.4021" y="-146.5" font-family="Helvetica,sans-Serif" font-size="10.00" fill="#000000">+ addOne()</text>
</a>
</g>
</g>
<!-- Node4&#45;&gt;Node3 -->
<g id="edge1" class="edge">
<title>Node4&#45;&gt;Node3</title>
<path fill="none" stroke="#191970" d="M282.9021,-129.175C282.9021,-120.0608 282.9021,-110.6537 282.9021,-101.661"/>
<polygon fill="none" stroke="#191970" points="279.4022,-129.303 282.9021,-139.303 286.4022,-129.303 279.4022,-129.303"/>
</g>
<!-- Node5 -->
<g id="node3" class="node">
<title>Node5</title>
<g id="a_node3"><a xlink:href="../../d7/d86/structo2_1_1soa_1_1generate__tuple__type.html" target="_top" xlink:title="{o2::soa::generate_tuple\l_type\&lt; uint64_t, sizeof...(Ts)\&gt;\n||}">
<polygon fill="none" stroke="#000000" points="8.9021,-415.5 8.9021,-483.5 172.9021,-483.5 172.9021,-415.5 8.9021,-415.5"/>
<text text-anchor="start" x="16.9021" y="-471.5" font-family="Helvetica,sans-Serif" font-size="10.00" fill="#000000">o2::soa::generate_tuple</text>
<text text-anchor="middle" x="90.9021" y="-460.5" font-family="Helvetica,sans-Serif" font-size="10.00" fill="#000000">_type&lt; uint64_t, sizeof...(Ts)&gt;</text>
<polyline fill="none" stroke="#000000" points="8.9021,-453.5 172.9021,-453.5 "/>
<text text-anchor="middle" x="90.9021" y="-441.5" font-family="Helvetica,sans-Serif" font-size="10.00" fill="#000000"> </text>
<polyline fill="none" stroke="#000000" points="8.9021,-434.5 172.9021,-434.5 "/>
<text text-anchor="middle" x="90.9021" y="-422.5" font-family="Helvetica,sans-Serif" font-size="10.00" fill="#000000"> </text>
</a>
</g>
</g>
<!-- Node5&#45;&gt;Node4 -->
<g id="edge2" class="edge">
<title>Node5&#45;&gt;Node4</title>
<path fill="none" stroke="#404040" d="M48.1296,-415.246C34.8781,-402.0464 21.9218,-385.8205 14.9021,-368 .0792,-330.3698 -8.572,-309.9351 14.9021,-277 34.8451,-249.0192 112.7488,-224.0456 179.4601,-207.1216"/>
<polygon fill="none" stroke="#404040" points="179.6964,-207.0628 184.5513,-201.7308 191.3404,-204.1614 186.4856,-209.4934 179.6964,-207.0628"/>
<text text-anchor="middle" x="50.4021" y="-320" font-family="Helvetica,sans-Serif" font-size="10.00" fill="#000000"> +mMaxOffset</text>
</g>
<!-- Node9 -->
<g id="node7" class="node">
<title>Node9</title>
<g id="a_node7"><a xlink:href="../../de/dac/structo2_1_1soa_1_1CombinationsIndexPolicyBase.html" target="_top" xlink:title="{o2::soa::CombinationsIndex\lPolicyBase\&lt; Ts \&gt;\n||+ CombinationsIndexPolicyBase()\l+ moveToEnd()\l+ addOne()\l}">
<polygon fill="none" stroke="#000000" points="95.4021,-277.5 95.4021,-367.5 278.4021,-367.5 278.4021,-277.5 95.4021,-277.5"/>
<text text-anchor="start" x="103.4021" y="-355.5" font-family="Helvetica,sans-Serif" font-size="10.00" fill="#000000">o2::soa::CombinationsIndex</text>
<text text-anchor="middle" x="186.9021" y="-344.5" font-family="Helvetica,sans-Serif" font-size="10.00" fill="#000000">PolicyBase&lt; Ts &gt;</text>
<polyline fill="none" stroke="#000000" points="95.4021,-337.5 278.4021,-337.5 "/>
<text text-anchor="middle" x="186.9021" y="-325.5" font-family="Helvetica,sans-Serif" font-size="10.00" fill="#000000"> </text>
<polyline fill="none" stroke="#000000" points="95.4021,-318.5 278.4021,-318.5 "/>
<text text-anchor="start" x="103.4021" y="-306.5" font-family="Helvetica,sans-Serif" font-size="10.00" fill="#000000">+ CombinationsIndexPolicyBase()</text>
<text text-anchor="start" x="103.4021" y="-295.5" font-family="Helvetica,sans-Serif" font-size="10.00" fill="#000000">+ moveToEnd()</text>
<text text-anchor="start" x="103.4021" y="-284.5" font-family="Helvetica,sans-Serif" font-size="10.00" fill="#000000">+ addOne()</text>
</a>
</g>
</g>
<!-- Node5&#45;&gt;Node9 -->
<g id="edge7" class="edge">
<title>Node5&#45;&gt;Node9</title>
<path fill="none" stroke="#404040" d="M116.6283,-415.4663C125.48,-403.7563 135.6301,-390.3285 145.4127,-377.387"/>
<polygon fill="none" stroke="#404040" points="145.5581,-377.1947 145.9852,-369.9962 152.7942,-367.6219 152.3671,-374.8203 145.5581,-377.1947"/>
<text text-anchor="middle" x="174.4021" y="-389" font-family="Helvetica,sans-Serif" font-size="10.00" fill="#000000"> +mMaxOffset</text>
</g>
<!-- Node6 -->
<g id="node4" class="node">
<title>Node6</title>
<g id="a_node4"><a xlink:href="../../d7/d86/structo2_1_1soa_1_1generate__tuple__type.html" target="_top" xlink:title="{o2::soa::generate_tuple\l_type\&lt; T, N, REST \&gt;\n||}">
<polygon fill="none" stroke="#000000" points="25.4021,-531.5 25.4021,-599.5 156.4021,-599.5 156.4021,-531.5 25.4021,-531.5"/>
<text text-anchor="start" x="33.4021" y="-587.5" font-family="Helvetica,sans-Serif" font-size="10.00" fill="#000000">o2::soa::generate_tuple</text>
<text text-anchor="middle" x="90.9021" y="-576.5" font-family="Helvetica,sans-Serif" font-size="10.00" fill="#000000">_type&lt; T, N, REST &gt;</text>
<polyline fill="none" stroke="#000000" points="25.4021,-569.5 156.4021,-569.5 "/>
<text text-anchor="middle" x="90.9021" y="-557.5" font-family="Helvetica,sans-Serif" font-size="10.00" fill="#000000"> </text>
<polyline fill="none" stroke="#000000" points="25.4021,-550.5 156.4021,-550.5 "/>
<text text-anchor="middle" x="90.9021" y="-538.5" font-family="Helvetica,sans-Serif" font-size="10.00" fill="#000000"> </text>
</a>
</g>
</g>
<!-- Node6&#45;&gt;Node5 -->
<g id="edge3" class="edge">
<title>Node6&#45;&gt;Node5</title>
<path fill="none" stroke="#ffa500" d="M90.9021,-521.1851C90.9021,-508.8048 90.9021,-495.5422 90.9021,-483.833"/>
<polygon fill="#ffa500" stroke="#ffa500" points="87.4022,-521.3235 90.9021,-531.3236 94.4022,-521.3236 87.4022,-521.3235"/>
<text text-anchor="middle" x="152.9021" y="-505" font-family="Helvetica,sans-Serif" font-size="10.00" fill="#000000"> &lt; uint64_t, sizeof...(Ts)&gt;</text>
</g>
<!-- Node7 -->
<g id="node5" class="node">
<title>Node7</title>
<polygon fill="none" stroke="#bfbfbf" points="326.4021,-415.5 326.4021,-483.5 441.4021,-483.5 441.4021,-415.5 326.4021,-415.5"/>
<text text-anchor="start" x="334.4021" y="-471.5" font-family="Helvetica,sans-Serif" font-size="10.00" fill="#000000">tuple&lt; typename Ts</text>
<text text-anchor="middle" x="383.9021" y="-460.5" font-family="Helvetica,sans-Serif" font-size="10.00" fill="#000000">::iterator... &gt;</text>
<polyline fill="none" stroke="#bfbfbf" points="326.4021,-453.5 441.4021,-453.5 "/>
<text text-anchor="middle" x="383.9021" y="-441.5" font-family="Helvetica,sans-Serif" font-size="10.00" fill="#000000"> </text>
<polyline fill="none" stroke="#bfbfbf" points="326.4021,-434.5 441.4021,-434.5 "/>
<text text-anchor="middle" x="383.9021" y="-422.5" font-family="Helvetica,sans-Serif" font-size="10.00" fill="#000000"> </text>
</g>
<!-- Node7&#45;&gt;Node4 -->
<g id="edge4" class="edge">
<title>Node7&#45;&gt;Node4</title>
<path fill="none" stroke="#404040" d="M380.8802,-415.1988C376.7975,-379.4702 367.6184,-322.4703 347.9021,-277 342.4065,-264.3258 335.0195,-251.6289 327.1965,-239.8796"/>
<polygon fill="none" stroke="#404040" points="327.0687,-239.6947 320.3668,-237.033 320.2461,-229.8229 326.948,-232.4846 327.0687,-239.6947"/>
<text text-anchor="middle" x="401.9021" y="-320" font-family="Helvetica,sans-Serif" font-size="10.00" fill="#000000"> +mCurrent</text>
</g>
<!-- Node7&#45;&gt;Node9 -->
<g id="edge8" class="edge">
<title>Node7&#45;&gt;Node9</title>
<path fill="none" stroke="#404040" d="M331.1097,-415.4663C311.4317,-402.7805 288.6265,-388.0786 267.0408,-374.163"/>
<polygon fill="none" stroke="#404040" points="266.9801,-374.1239 259.7698,-374.2348 256.8943,-367.6219 264.1045,-367.5109 266.9801,-374.1239"/>
<text text-anchor="middle" x="325.9021" y="-389" font-family="Helvetica,sans-Serif" font-size="10.00" fill="#000000"> +mCurrent</text>
</g>
<!-- Node8 -->
<g id="node6" class="node">
<title>Node8</title>
<polygon fill="none" stroke="#bfbfbf" points="221.9021,-421 221.9021,-478 259.9021,-478 259.9021,-421 221.9021,-421"/>
<text text-anchor="middle" x="240.9021" y="-466" font-family="Helvetica,sans-Serif" font-size="10.00" fill="#000000">bool</text>
<polyline fill="none" stroke="#bfbfbf" points="221.9021,-459 259.9021,-459 "/>
<text text-anchor="middle" x="240.9021" y="-447" font-family="Helvetica,sans-Serif" font-size="10.00" fill="#000000"> </text>
<polyline fill="none" stroke="#bfbfbf" points="221.9021,-440 259.9021,-440 "/>
<text text-anchor="middle" x="240.9021" y="-428" font-family="Helvetica,sans-Serif" font-size="10.00" fill="#000000"> </text>
</g>
<!-- Node8&#45;&gt;Node4 -->
<g id="edge5" class="edge">
<title>Node8&#45;&gt;Node4</title>
<path fill="none" stroke="#404040" d="M260.1041,-424.2552C270.562,-408.8892 282.4538,-388.3536 287.9021,-368 298.9338,-326.7882 297.0609,-278.5003 292.763,-241.8058"/>
<polygon fill="none" stroke="#404040" points="292.7541,-241.7356 288.0233,-236.2931 291.2276,-229.833 295.9583,-235.2755 292.7541,-241.7356"/>
<text text-anchor="middle" x="319.9021" y="-320" font-family="Helvetica,sans-Serif" font-size="10.00" fill="#000000"> +mIsEnd</text>
</g>
<!-- Node8&#45;&gt;Node9 -->
<g id="edge9" class="edge">
<title>Node8&#45;&gt;Node9</title>
<path fill="none" stroke="#404040" d="M228.7834,-420.9987C223.5326,-408.6496 217.1899,-393.7323 211.0465,-379.2841"/>
<polygon fill="none" stroke="#404040" points="210.8827,-378.8986 204.8538,-374.9422 206.1871,-367.8554 212.2159,-371.8118 210.8827,-378.8986"/>
<text text-anchor="middle" x="240.9021" y="-389" font-family="Helvetica,sans-Serif" font-size="10.00" fill="#000000"> +mIsEnd</text>
</g>
<!-- Node9&#45;&gt;Node4 -->
<g id="edge6" class="edge">
<title>Node9&#45;&gt;Node4</title>
<path fill="none" stroke="#ffa500" d="M224.1597,-268.9422C233.1597,-256.0048 242.6907,-242.3038 251.3975,-229.7879"/>
<polygon fill="#ffa500" stroke="#ffa500" points="221.1736,-267.1058 218.3361,-277.3136 226.9199,-271.1033 221.1736,-267.1058"/>
<text text-anchor="middle" x="259.4021" y="-251" font-family="Helvetica,sans-Serif" font-size="10.00" fill="#000000"> &lt; Ts... &gt;</text>
</g>
</g>
</svg>
