<?xml version="1.0" encoding="UTF-8" standalone="no"?>
<!DOCTYPE svg PUBLIC "-//W3C//DTD SVG 1.1//EN"
 "http://www.w3.org/Graphics/SVG/1.1/DTD/svg11.dtd">
<!-- Generated by graphviz version 2.40.1 (20161225.0304)
 -->
<!-- Title: GPUCA_NAMESPACE::gpu::GPUParam Pages: 1 -->
<svg width="1148pt" height="903pt"
 viewBox="0.00 0.00 1148.00 903.00" xmlns="http://www.w3.org/2000/svg" xmlns:xlink="http://www.w3.org/1999/xlink">
<g id="graph0" class="graph" transform="scale(1 1) rotate(0) translate(4 899)">
<title>GPUCA_NAMESPACE::gpu::GPUParam</title>
<!-- Node1 -->
<g id="node1" class="node">
<title>Node1</title>
<polygon fill="#bfbfbf" stroke="#000000" points="491,-.5 491,-277.5 631,-277.5 631,-.5 491,-.5"/>
<text text-anchor="start" x="499" y="-265.5" font-family="Helvetica,sans-Serif" font-size="10.00" fill="#000000">GPUCA_NAMESPACE::gpu</text>
<text text-anchor="middle" x="561" y="-254.5" font-family="Helvetica,sans-Serif" font-size="10.00" fill="#000000">::GPUParam</text>
<polyline fill="none" stroke="#000000" points="491,-247.5 631,-247.5 "/>
<text text-anchor="start" x="499" y="-235.5" font-family="Helvetica,sans-Serif" font-size="10.00" fill="#000000">+ RMax</text>
<text text-anchor="start" x="499" y="-224.5" font-family="Helvetica,sans-Serif" font-size="10.00" fill="#000000">+ ErrX</text>
<text text-anchor="start" x="499" y="-213.5" font-family="Helvetica,sans-Serif" font-size="10.00" fill="#000000">+ ErrY</text>
<text text-anchor="start" x="499" y="-202.5" font-family="Helvetica,sans-Serif" font-size="10.00" fill="#000000">+ ErrZ</text>
<text text-anchor="start" x="499" y="-191.5" font-family="Helvetica,sans-Serif" font-size="10.00" fill="#000000">+ BzkG</text>
<text text-anchor="start" x="499" y="-180.5" font-family="Helvetica,sans-Serif" font-size="10.00" fill="#000000">+ ConstBz</text>
<text text-anchor="start" x="499" y="-169.5" font-family="Helvetica,sans-Serif" font-size="10.00" fill="#000000">+ y</text>
<text text-anchor="start" x="499" y="-158.5" font-family="Helvetica,sans-Serif" font-size="10.00" fill="#000000">+ X</text>
<text text-anchor="start" x="499" y="-147.5" font-family="Helvetica,sans-Serif" font-size="10.00" fill="#000000">+ Y</text>
<polyline fill="none" stroke="#000000" points="491,-140.5 631,-140.5 "/>
<text text-anchor="start" x="499" y="-128.5" font-family="Helvetica,sans-Serif" font-size="10.00" fill="#000000">+ SetDefaults()</text>
<text text-anchor="start" x="499" y="-117.5" font-family="Helvetica,sans-Serif" font-size="10.00" fill="#000000">+ SetDefaults()</text>
<text text-anchor="start" x="499" y="-106.5" font-family="Helvetica,sans-Serif" font-size="10.00" fill="#000000">+ UpdateEventSettings()</text>
<text text-anchor="start" x="499" y="-95.5" font-family="Helvetica,sans-Serif" font-size="10.00" fill="#000000">+ LoadClusterErrors()</text>
<text text-anchor="start" x="499" y="-84.5" font-family="Helvetica,sans-Serif" font-size="10.00" fill="#000000">+ GPUd()</text>
<text text-anchor="start" x="499" y="-73.5" font-family="Helvetica,sans-Serif" font-size="10.00" fill="#000000">+ GPUd()</text>
<text text-anchor="start" x="499" y="-62.5" font-family="Helvetica,sans-Serif" font-size="10.00" fill="#000000">+ GPUd()</text>
<text text-anchor="start" x="499" y="-51.5" font-family="Helvetica,sans-Serif" font-size="10.00" fill="#000000">+ GPUd()</text>
<text text-anchor="start" x="499" y="-40.5" font-family="Helvetica,sans-Serif" font-size="10.00" fill="#000000">+ GPUd()</text>
<text text-anchor="start" x="499" y="-29.5" font-family="Helvetica,sans-Serif" font-size="10.00" fill="#000000">+ GPUd()</text>
<text text-anchor="start" x="499" y="-18.5" font-family="Helvetica,sans-Serif" font-size="10.00" fill="#000000">+ GPUd()</text>
<text text-anchor="start" x="499" y="-7.5" font-family="Helvetica,sans-Serif" font-size="10.00" fill="#000000">+ GPUd()</text>
</g>
<!-- Node2 -->
<g id="node2" class="node">
<title>Node2</title>
<g id="a_node2"><a xlink:href="../../d0/d8d/structGPUCA__NAMESPACE_1_1gpu_1_1GPUSettingsRec.html" target="_top" xlink:title="{GPUCA_NAMESPACE::gpu\l::GPUSettingsRec\n|+ dEdxTruncLow\l+ tpcRejectionMode\l+ tpcCompressionSortOrder\l+ dropLoopers\l|+ GPUSettingsRec()\l+ SetDefaults()\l+ SetMinTrackPt()\l}">
<polygon fill="none" stroke="#000000" points="213.5,-435.5 213.5,-558.5 366.5,-558.5 366.5,-435.5 213.5,-435.5"/>
<text text-anchor="start" x="221.5" y="-546.5" font-family="Helvetica,sans-Serif" font-size="10.00" fill="#000000">GPUCA_NAMESPACE::gpu</text>
<text text-anchor="middle" x="290" y="-535.5" font-family="Helvetica,sans-Serif" font-size="10.00" fill="#000000">::GPUSettingsRec</text>
<polyline fill="none" stroke="#000000" points="213.5,-528.5 366.5,-528.5 "/>
<text text-anchor="start" x="221.5" y="-516.5" font-family="Helvetica,sans-Serif" font-size="10.00" fill="#000000">+ dEdxTruncLow</text>
<text text-anchor="start" x="221.5" y="-505.5" font-family="Helvetica,sans-Serif" font-size="10.00" fill="#000000">+ tpcRejectionMode</text>
<text text-anchor="start" x="221.5" y="-494.5" font-family="Helvetica,sans-Serif" font-size="10.00" fill="#000000">+ tpcCompressionSortOrder</text>
<text text-anchor="start" x="221.5" y="-483.5" font-family="Helvetica,sans-Serif" font-size="10.00" fill="#000000">+ dropLoopers</text>
<polyline fill="none" stroke="#000000" points="213.5,-476.5 366.5,-476.5 "/>
<text text-anchor="start" x="221.5" y="-464.5" font-family="Helvetica,sans-Serif" font-size="10.00" fill="#000000">+ GPUSettingsRec()</text>
<text text-anchor="start" x="221.5" y="-453.5" font-family="Helvetica,sans-Serif" font-size="10.00" fill="#000000">+ SetDefaults()</text>
<text text-anchor="start" x="221.5" y="-442.5" font-family="Helvetica,sans-Serif" font-size="10.00" fill="#000000">+ SetMinTrackPt()</text>
</a>
</g>
</g>
<!-- Node2&#45;&gt;Node1 -->
<g id="edge1" class="edge">
<title>Node2&#45;&gt;Node1</title>
<path fill="none" stroke="#404040" d="M315.015,-435.4105C330.2326,-401.3593 351.4496,-359.1589 376,-325 406.5075,-282.5526 446.8455,-240.7798 482.0672,-207.6088"/>
<polygon fill="none" stroke="#404040" points="482.1283,-207.5518 483.7867,-200.534 490.9026,-199.3656 489.2442,-206.3835 482.1283,-207.5518"/>
<text text-anchor="middle" x="410.5" y="-299" font-family="Helvetica,sans-Serif" font-size="10.00" fill="#000000"> +rec</text>
</g>
<!-- Node3 -->
<g id="node3" class="node">
<title>Node3</title>
<polygon fill="none" stroke="#bfbfbf" points="0,-837.5 0,-894.5 38,-894.5 38,-837.5 0,-837.5"/>
<text text-anchor="middle" x="19" y="-882.5" font-family="Helvetica,sans-Serif" font-size="10.00" fill="#000000">char</text>
<polyline fill="none" stroke="#bfbfbf" points="0,-875.5 38,-875.5 "/>
<text text-anchor="middle" x="19" y="-863.5" font-family="Helvetica,sans-Serif" font-size="10.00" fill="#000000"> </text>
<polyline fill="none" stroke="#bfbfbf" points="0,-856.5 38,-856.5 "/>
<text text-anchor="middle" x="19" y="-844.5" font-family="Helvetica,sans-Serif" font-size="10.00" fill="#000000"> </text>
</g>
<!-- Node3&#45;&gt;Node1 -->
<g id="edge6" class="edge">
<title>Node3&#45;&gt;Node1</title>
<path fill="none" stroke="#404040" d="M13.8251,-837.4348C-.3987,-749.3017 -30.8336,-478.3461 100,-325 197.2579,-211.0069 374.6451,-166.0818 478.7328,-148.9729"/>
<polygon fill="none" stroke="#404040" points="478.8903,-148.9481 484.1899,-144.0579 490.7423,-147.069 485.4426,-151.9592 478.8903,-148.9481"/>
<text text-anchor="middle" x="152" y="-522" font-family="Helvetica,sans-Serif" font-size="10.00" fill="#000000"> +earlyTpcTransform</text>
<text text-anchor="middle" x="152" y="-511" font-family="Helvetica,sans-Serif" font-size="10.00" fill="#000000">+ContinuousTracking</text>
<text text-anchor="middle" x="152" y="-500" font-family="Helvetica,sans-Serif" font-size="10.00" fill="#000000">+AssumeConstantBz</text>
<text text-anchor="middle" x="152" y="-489" font-family="Helvetica,sans-Serif" font-size="10.00" fill="#000000">+ToyMCEventsFlag</text>
<text text-anchor="middle" x="152" y="-478" font-family="Helvetica,sans-Serif" font-size="10.00" fill="#000000">+dodEdx</text>
<text text-anchor="middle" x="152" y="-467" font-family="Helvetica,sans-Serif" font-size="10.00" fill="#000000">+resetTimers</text>
</g>
<!-- Node3&#45;&gt;Node2 -->
<g id="edge2" class="edge">
<title>Node3&#45;&gt;Node2</title>
<path fill="none" stroke="#404040" d="M19.6392,-837.3608C21.2286,-792.5688 26.762,-708.7948 46,-687 65.5538,-664.8475 84.3345,-683.6413 110,-669 155.6649,-642.9497 198.5702,-602.8263 231.0299,-567.8831"/>
<polygon fill="none" stroke="#404040" points="231.375,-567.5061 232.4746,-560.3793 239.4761,-558.6533 238.3765,-565.78 231.375,-567.5061"/>
<text text-anchor="middle" x="109.5" y="-811" font-family="Helvetica,sans-Serif" font-size="10.00" fill="#000000"> +NonConsecutiveIDs</text>
<text text-anchor="middle" x="109.5" y="-800" font-family="Helvetica,sans-Serif" font-size="10.00" fill="#000000">+fitPropagateBzOnly</text>
<text text-anchor="start" x="46" y="-789" font-family="Helvetica,sans-Serif" font-size="10.00" fill="#000000">+loopInterpolationInExtra</text>
<text text-anchor="middle" x="109.5" y="-778" font-family="Helvetica,sans-Serif" font-size="10.00" fill="#000000">Pass</text>
<text text-anchor="middle" x="109.5" y="-767" font-family="Helvetica,sans-Serif" font-size="10.00" fill="#000000">+RejectMode</text>
<text text-anchor="middle" x="109.5" y="-756" font-family="Helvetica,sans-Serif" font-size="10.00" fill="#000000">+ForceEarlyTPCTransform</text>
<text text-anchor="middle" x="109.5" y="-745" font-family="Helvetica,sans-Serif" font-size="10.00" fill="#000000">+NWays</text>
<text text-anchor="middle" x="109.5" y="-734" font-family="Helvetica,sans-Serif" font-size="10.00" fill="#000000">+NWaysOuter</text>
<text text-anchor="middle" x="109.5" y="-723" font-family="Helvetica,sans-Serif" font-size="10.00" fill="#000000">+GlobalTracking</text>
<text text-anchor="middle" x="109.5" y="-712" font-family="Helvetica,sans-Serif" font-size="10.00" fill="#000000">+retryRefit</text>
<text text-anchor="middle" x="109.5" y="-701" font-family="Helvetica,sans-Serif" font-size="10.00" fill="#000000">+fitInProjections</text>
<text text-anchor="middle" x="109.5" y="-690" font-family="Helvetica,sans-Serif" font-size="10.00" fill="#000000">...</text>
</g>
<!-- Node4 -->
<g id="node4" class="node">
<title>Node4</title>
<g id="a_node4"><a xlink:href="../../d4/dc3/classfloat.html" target="_top" xlink:title="{float\n||}">
<polygon fill="none" stroke="#000000" points="542,-837.5 542,-894.5 580,-894.5 580,-837.5 542,-837.5"/>
<text text-anchor="middle" x="561" y="-882.5" font-family="Helvetica,sans-Serif" font-size="10.00" fill="#000000">float</text>
<polyline fill="none" stroke="#000000" points="542,-875.5 580,-875.5 "/>
<text text-anchor="middle" x="561" y="-863.5" font-family="Helvetica,sans-Serif" font-size="10.00" fill="#000000"> </text>
<polyline fill="none" stroke="#000000" points="542,-856.5 580,-856.5 "/>
<text text-anchor="middle" x="561" y="-844.5" font-family="Helvetica,sans-Serif" font-size="10.00" fill="#000000"> </text>
</a>
</g>
</g>
<!-- Node4&#45;&gt;Node1 -->
<g id="edge7" class="edge">
<title>Node4&#45;&gt;Node1</title>
<path fill="none" stroke="#404040" d="M561,-837.0521C561,-746.8909 561,-466.5934 561,-289.8169"/>
<polygon fill="none" stroke="#404040" points="561.0001,-289.7991 557,-283.7991 561,-277.7991 565,-283.799 561.0001,-289.7991"/>
<text text-anchor="middle" x="596" y="-549.5" font-family="Helvetica,sans-Serif" font-size="10.00" fill="#000000"> #ParamS0Par</text>
<text text-anchor="middle" x="596" y="-538.5" font-family="Helvetica,sans-Serif" font-size="10.00" fill="#000000">+ErrY2</text>
<text text-anchor="middle" x="596" y="-527.5" font-family="Helvetica,sans-Serif" font-size="10.00" fill="#000000">+const</text>
<text text-anchor="middle" x="596" y="-516.5" font-family="Helvetica,sans-Serif" font-size="10.00" fill="#000000">+PadPitch</text>
<text text-anchor="middle" x="596" y="-505.5" font-family="Helvetica,sans-Serif" font-size="10.00" fill="#000000">+DAlpha</text>
<text text-anchor="middle" x="596" y="-494.5" font-family="Helvetica,sans-Serif" font-size="10.00" fill="#000000">+DzDs</text>
<text text-anchor="middle" x="596" y="-483.5" font-family="Helvetica,sans-Serif" font-size="10.00" fill="#000000">+sinPhi</text>
<text text-anchor="middle" x="596" y="-472.5" font-family="Helvetica,sans-Serif" font-size="10.00" fill="#000000">#ParamRMS0</text>
<text text-anchor="middle" x="596" y="-461.5" font-family="Helvetica,sans-Serif" font-size="10.00" fill="#000000">+x</text>
<text text-anchor="middle" x="596" y="-450.5" font-family="Helvetica,sans-Serif" font-size="10.00" fill="#000000">+RMin</text>
<text text-anchor="middle" x="596" y="-439.5" font-family="Helvetica,sans-Serif" font-size="10.00" fill="#000000">...</text>
</g>
<!-- Node4&#45;&gt;Node2 -->
<g id="edge3" class="edge">
<title>Node4&#45;&gt;Node2</title>
<path fill="none" stroke="#404040" d="M541.6423,-864.7888C492.0394,-861.268 362.2929,-849.2962 334,-819 329.7689,-814.4693 310.6004,-664.321 299.0047,-570.682"/>
<polygon fill="none" stroke="#404040" points="298.9972,-570.6207 294.2915,-565.1566 297.5254,-558.7113 302.2311,-564.1754 298.9972,-570.6207"/>
<text text-anchor="middle" x="398.5" y="-794.5" font-family="Helvetica,sans-Serif" font-size="10.00" fill="#000000"> +tpcRejectQPt</text>
<text text-anchor="start" x="334" y="-783.5" font-family="Helvetica,sans-Serif" font-size="10.00" fill="#000000">+ClusterError2Correction</text>
<text text-anchor="middle" x="398.5" y="-772.5" font-family="Helvetica,sans-Serif" font-size="10.00" fill="#000000">Z</text>
<text text-anchor="middle" x="398.5" y="-761.5" font-family="Helvetica,sans-Serif" font-size="10.00" fill="#000000">+NeighboursSearchArea</text>
<text text-anchor="middle" x="398.5" y="-750.5" font-family="Helvetica,sans-Serif" font-size="10.00" fill="#000000">+TrackReferenceX</text>
<text text-anchor="middle" x="398.5" y="-739.5" font-family="Helvetica,sans-Serif" font-size="10.00" fill="#000000">+SearchWindowDZDR</text>
<text text-anchor="middle" x="398.5" y="-728.5" font-family="Helvetica,sans-Serif" font-size="10.00" fill="#000000">+MaxTrackQPt</text>
<text text-anchor="middle" x="398.5" y="-717.5" font-family="Helvetica,sans-Serif" font-size="10.00" fill="#000000">+HitPickUpFactor</text>
<text text-anchor="middle" x="398.5" y="-706.5" font-family="Helvetica,sans-Serif" font-size="10.00" fill="#000000">+ClusterError2CorrectionY</text>
</g>
<!-- Node7 -->
<g id="node7" class="node">
<title>Node7</title>
<g id="a_node7"><a xlink:href="../../dc/dc1/structGPUCA__NAMESPACE_1_1gpu_1_1GPUParamSlice.html" target="_top" xlink:title="{GPUCA_NAMESPACE::gpu\l::GPUParamSlice\n||}">
<polygon fill="none" stroke="#000000" points="385,-463 385,-531 525,-531 525,-463 385,-463"/>
<text text-anchor="start" x="393" y="-519" font-family="Helvetica,sans-Serif" font-size="10.00" fill="#000000">GPUCA_NAMESPACE::gpu</text>
<text text-anchor="middle" x="455" y="-508" font-family="Helvetica,sans-Serif" font-size="10.00" fill="#000000">::GPUParamSlice</text>
<polyline fill="none" stroke="#000000" points="385,-501 525,-501 "/>
<text text-anchor="middle" x="455" y="-489" font-family="Helvetica,sans-Serif" font-size="10.00" fill="#000000"> </text>
<polyline fill="none" stroke="#000000" points="385,-482 525,-482 "/>
<text text-anchor="middle" x="455" y="-470" font-family="Helvetica,sans-Serif" font-size="10.00" fill="#000000"> </text>
</a>
</g>
</g>
<!-- Node4&#45;&gt;Node7 -->
<g id="edge9" class="edge">
<title>Node4&#45;&gt;Node7</title>
<path fill="none" stroke="#404040" d="M541.9807,-859.4779C524.5236,-852.4135 499.5301,-839.3457 487,-819 472.867,-796.0515 461.9413,-626.5733 457.3559,-543.1392"/>
<polygon fill="none" stroke="#404040" points="457.3476,-542.9842 453.0298,-537.2087 456.7003,-531.0017 461.0181,-536.7772 457.3476,-542.9842"/>
<text text-anchor="middle" x="517" y="-783.5" font-family="Helvetica,sans-Serif" font-size="10.00" fill="#000000"> +AngleMax</text>
<text text-anchor="middle" x="517" y="-772.5" font-family="Helvetica,sans-Serif" font-size="10.00" fill="#000000">+ZMin</text>
<text text-anchor="middle" x="517" y="-761.5" font-family="Helvetica,sans-Serif" font-size="10.00" fill="#000000">+ZMax</text>
<text text-anchor="middle" x="517" y="-750.5" font-family="Helvetica,sans-Serif" font-size="10.00" fill="#000000">+Alpha</text>
<text text-anchor="middle" x="517" y="-739.5" font-family="Helvetica,sans-Serif" font-size="10.00" fill="#000000">+SinAlpha</text>
<text text-anchor="middle" x="517" y="-728.5" font-family="Helvetica,sans-Serif" font-size="10.00" fill="#000000">+CosAlpha</text>
<text text-anchor="middle" x="517" y="-717.5" font-family="Helvetica,sans-Serif" font-size="10.00" fill="#000000">+AngleMin</text>
</g>
<!-- Node8 -->
<g id="node8" class="node">
<title>Node8</title>
<g id="a_node8"><a xlink:href="../../d0/d97/classGPUCA__NAMESPACE_1_1gpu_1_1GPUTPCGMPolynomialField.html" target="_top" xlink:title="{GPUCA_NAMESPACE::gpu\l::GPUTPCGMPolynomialField\n||+ GPUTPCGMPolynomialField()\l+ Reset()\l+ SetFieldNominal()\l+ SetFieldTpc()\l+ SetFieldTrd()\l+ SetFieldIts()\l+ GPUdi()\l+ GPUd()\l+ GPUd()\l+ GPUd()\l+ GPUd()\l+ GPUd()\l+ GPUd()\l+ Print()\l+ GPUd()\l+ GPUd()\l+ GPUd()\l+ GetCoefmTpcBx()\l+ GetCoefmTpcBy()\l+ GetCoefmTpcBz()\l+ GetCoefmTrdBx()\l+ GetCoefmTrdBy()\l+ GetCoefmTrdBz()\l+ GetCoefmItsBx()\l+ GetCoefmItsBy()\l+ GetCoefmItsBz()\l}">
<polygon fill="none" stroke="#000000" points="649,-325.5 649,-668.5 817,-668.5 817,-325.5 649,-325.5"/>
<text text-anchor="start" x="657" y="-656.5" font-family="Helvetica,sans-Serif" font-size="10.00" fill="#000000">GPUCA_NAMESPACE::gpu</text>
<text text-anchor="middle" x="733" y="-645.5" font-family="Helvetica,sans-Serif" font-size="10.00" fill="#000000">::GPUTPCGMPolynomialField</text>
<polyline fill="none" stroke="#000000" points="649,-638.5 817,-638.5 "/>
<text text-anchor="middle" x="733" y="-626.5" font-family="Helvetica,sans-Serif" font-size="10.00" fill="#000000"> </text>
<polyline fill="none" stroke="#000000" points="649,-619.5 817,-619.5 "/>
<text text-anchor="start" x="657" y="-607.5" font-family="Helvetica,sans-Serif" font-size="10.00" fill="#000000">+ GPUTPCGMPolynomialField()</text>
<text text-anchor="start" x="657" y="-596.5" font-family="Helvetica,sans-Serif" font-size="10.00" fill="#000000">+ Reset()</text>
<text text-anchor="start" x="657" y="-585.5" font-family="Helvetica,sans-Serif" font-size="10.00" fill="#000000">+ SetFieldNominal()</text>
<text text-anchor="start" x="657" y="-574.5" font-family="Helvetica,sans-Serif" font-size="10.00" fill="#000000">+ SetFieldTpc()</text>
<text text-anchor="start" x="657" y="-563.5" font-family="Helvetica,sans-Serif" font-size="10.00" fill="#000000">+ SetFieldTrd()</text>
<text text-anchor="start" x="657" y="-552.5" font-family="Helvetica,sans-Serif" font-size="10.00" fill="#000000">+ SetFieldIts()</text>
<text text-anchor="start" x="657" y="-541.5" font-family="Helvetica,sans-Serif" font-size="10.00" fill="#000000">+ GPUdi()</text>
<text text-anchor="start" x="657" y="-530.5" font-family="Helvetica,sans-Serif" font-size="10.00" fill="#000000">+ GPUd()</text>
<text text-anchor="start" x="657" y="-519.5" font-family="Helvetica,sans-Serif" font-size="10.00" fill="#000000">+ GPUd()</text>
<text text-anchor="start" x="657" y="-508.5" font-family="Helvetica,sans-Serif" font-size="10.00" fill="#000000">+ GPUd()</text>
<text text-anchor="start" x="657" y="-497.5" font-family="Helvetica,sans-Serif" font-size="10.00" fill="#000000">+ GPUd()</text>
<text text-anchor="start" x="657" y="-486.5" font-family="Helvetica,sans-Serif" font-size="10.00" fill="#000000">+ GPUd()</text>
<text text-anchor="start" x="657" y="-475.5" font-family="Helvetica,sans-Serif" font-size="10.00" fill="#000000">+ GPUd()</text>
<text text-anchor="start" x="657" y="-464.5" font-family="Helvetica,sans-Serif" font-size="10.00" fill="#000000">+ Print()</text>
<text text-anchor="start" x="657" y="-453.5" font-family="Helvetica,sans-Serif" font-size="10.00" fill="#000000">+ GPUd()</text>
<text text-anchor="start" x="657" y="-442.5" font-family="Helvetica,sans-Serif" font-size="10.00" fill="#000000">+ GPUd()</text>
<text text-anchor="start" x="657" y="-431.5" font-family="Helvetica,sans-Serif" font-size="10.00" fill="#000000">+ GPUd()</text>
<text text-anchor="start" x="657" y="-420.5" font-family="Helvetica,sans-Serif" font-size="10.00" fill="#000000">+ GetCoefmTpcBx()</text>
<text text-anchor="start" x="657" y="-409.5" font-family="Helvetica,sans-Serif" font-size="10.00" fill="#000000">+ GetCoefmTpcBy()</text>
<text text-anchor="start" x="657" y="-398.5" font-family="Helvetica,sans-Serif" font-size="10.00" fill="#000000">+ GetCoefmTpcBz()</text>
<text text-anchor="start" x="657" y="-387.5" font-family="Helvetica,sans-Serif" font-size="10.00" fill="#000000">+ GetCoefmTrdBx()</text>
<text text-anchor="start" x="657" y="-376.5" font-family="Helvetica,sans-Serif" font-size="10.00" fill="#000000">+ GetCoefmTrdBy()</text>
<text text-anchor="start" x="657" y="-365.5" font-family="Helvetica,sans-Serif" font-size="10.00" fill="#000000">+ GetCoefmTrdBz()</text>
<text text-anchor="start" x="657" y="-354.5" font-family="Helvetica,sans-Serif" font-size="10.00" fill="#000000">+ GetCoefmItsBx()</text>
<text text-anchor="start" x="657" y="-343.5" font-family="Helvetica,sans-Serif" font-size="10.00" fill="#000000">+ GetCoefmItsBy()</text>
<text text-anchor="start" x="657" y="-332.5" font-family="Helvetica,sans-Serif" font-size="10.00" fill="#000000">+ GetCoefmItsBz()</text>
</a>
</g>
</g>
<!-- Node4&#45;&gt;Node8 -->
<g id="edge12" class="edge">
<title>Node4&#45;&gt;Node8</title>
<path fill="none" stroke="#404040" d="M568.0102,-837.2246C569.3965,-831.2163 570.7941,-824.912 572,-819 583.9013,-760.6508 558.4779,-734.0362 595,-687 606.9561,-671.6019 620.5758,-682.1146 635,-669 636.8118,-667.3527 638.5987,-665.6639 640.3606,-663.9371"/>
<polygon fill="none" stroke="#404040" points="640.639,-663.6479 641.919,-656.5513 648.9621,-655.0035 647.682,-662.1001 640.639,-663.6479"/>
<text text-anchor="middle" x="614" y="-767" font-family="Helvetica,sans-Serif" font-size="10.00" fill="#000000"> +const</text>
<text text-anchor="middle" x="614" y="-756" font-family="Helvetica,sans-Serif" font-size="10.00" fill="#000000">+f</text>
<text text-anchor="middle" x="614" y="-745" font-family="Helvetica,sans-Serif" font-size="10.00" fill="#000000">+y</text>
<text text-anchor="middle" x="614" y="-734" font-family="Helvetica,sans-Serif" font-size="10.00" fill="#000000">+z</text>
</g>
<!-- Node9 -->
<g id="node9" class="node">
<title>Node9</title>
<g id="a_node9"><a xlink:href="../../d0/d52/classGPUCA__NAMESPACE_1_1gpu_1_1GPUTPCGeometry.html" target="_top" xlink:title="{GPUCA_NAMESPACE::gpu\l::GPUTPCGeometry\n||+ GPUd()\l+ GPUd()\l+ GPUd()\l+ GPUd()\l+ GPUd()\l+ GPUd()\l+ GPUd()\l+ GPUd()\l+ GPUd()\l+ GPUd()\l+ GPUd()\l+ GPUd()\l+ PadWidth()\l+ GPUd()\l+ return()\l}">
<polygon fill="none" stroke="#000000" points="1000,-386 1000,-608 1140,-608 1140,-386 1000,-386"/>
<text text-anchor="start" x="1008" y="-596" font-family="Helvetica,sans-Serif" font-size="10.00" fill="#000000">GPUCA_NAMESPACE::gpu</text>
<text text-anchor="middle" x="1070" y="-585" font-family="Helvetica,sans-Serif" font-size="10.00" fill="#000000">::GPUTPCGeometry</text>
<polyline fill="none" stroke="#000000" points="1000,-578 1140,-578 "/>
<text text-anchor="middle" x="1070" y="-566" font-family="Helvetica,sans-Serif" font-size="10.00" fill="#000000"> </text>
<polyline fill="none" stroke="#000000" points="1000,-559 1140,-559 "/>
<text text-anchor="start" x="1008" y="-547" font-family="Helvetica,sans-Serif" font-size="10.00" fill="#000000">+ GPUd()</text>
<text text-anchor="start" x="1008" y="-536" font-family="Helvetica,sans-Serif" font-size="10.00" fill="#000000">+ GPUd()</text>
<text text-anchor="start" x="1008" y="-525" font-family="Helvetica,sans-Serif" font-size="10.00" fill="#000000">+ GPUd()</text>
<text text-anchor="start" x="1008" y="-514" font-family="Helvetica,sans-Serif" font-size="10.00" fill="#000000">+ GPUd()</text>
<text text-anchor="start" x="1008" y="-503" font-family="Helvetica,sans-Serif" font-size="10.00" fill="#000000">+ GPUd()</text>
<text text-anchor="start" x="1008" y="-492" font-family="Helvetica,sans-Serif" font-size="10.00" fill="#000000">+ GPUd()</text>
<text text-anchor="start" x="1008" y="-481" font-family="Helvetica,sans-Serif" font-size="10.00" fill="#000000">+ GPUd()</text>
<text text-anchor="start" x="1008" y="-470" font-family="Helvetica,sans-Serif" font-size="10.00" fill="#000000">+ GPUd()</text>
<text text-anchor="start" x="1008" y="-459" font-family="Helvetica,sans-Serif" font-size="10.00" fill="#000000">+ GPUd()</text>
<text text-anchor="start" x="1008" y="-448" font-family="Helvetica,sans-Serif" font-size="10.00" fill="#000000">+ GPUd()</text>
<text text-anchor="start" x="1008" y="-437" font-family="Helvetica,sans-Serif" font-size="10.00" fill="#000000">+ GPUd()</text>
<text text-anchor="start" x="1008" y="-426" font-family="Helvetica,sans-Serif" font-size="10.00" fill="#000000">+ GPUd()</text>
<text text-anchor="start" x="1008" y="-415" font-family="Helvetica,sans-Serif" font-size="10.00" fill="#000000">+ PadWidth()</text>
<text text-anchor="start" x="1008" y="-404" font-family="Helvetica,sans-Serif" font-size="10.00" fill="#000000">+ GPUd()</text>
<text text-anchor="start" x="1008" y="-393" font-family="Helvetica,sans-Serif" font-size="10.00" fill="#000000">+ return()</text>
</a>
</g>
</g>
<!-- Node4&#45;&gt;Node9 -->
<g id="edge16" class="edge">
<title>Node4&#45;&gt;Node9</title>
<path fill="none" stroke="#404040" d="M580.3548,-865.0401C634.9514,-861.96 788.6326,-850.6106 826,-819 873.5446,-778.7801 825.104,-726.8007 873,-687 912.1134,-654.4975 945.1251,-699.2575 986,-669 1003.7731,-655.8435 1017.982,-637.9059 1029.2788,-618.5614"/>
<polygon fill="none" stroke="#404040" points="1029.2992,-618.5244 1028.692,-611.3389 1035.0913,-608.0148 1035.6984,-615.2003 1029.2992,-618.5244"/>
<text text-anchor="middle" x="890" y="-756" font-family="Helvetica,sans-Serif" font-size="10.00" fill="#000000"> +time</text>
<text text-anchor="middle" x="890" y="-745" font-family="Helvetica,sans-Serif" font-size="10.00" fill="#000000">+z</text>
</g>
<!-- Node5 -->
<g id="node5" class="node">
<title>Node5</title>
<polygon fill="none" stroke="#bfbfbf" points="823.5,-837.5 823.5,-894.5 852.5,-894.5 852.5,-837.5 823.5,-837.5"/>
<text text-anchor="middle" x="838" y="-882.5" font-family="Helvetica,sans-Serif" font-size="10.00" fill="#000000">int</text>
<polyline fill="none" stroke="#bfbfbf" points="823.5,-875.5 852.5,-875.5 "/>
<text text-anchor="middle" x="838" y="-863.5" font-family="Helvetica,sans-Serif" font-size="10.00" fill="#000000"> </text>
<polyline fill="none" stroke="#bfbfbf" points="823.5,-856.5 852.5,-856.5 "/>
<text text-anchor="middle" x="838" y="-844.5" font-family="Helvetica,sans-Serif" font-size="10.00" fill="#000000"> </text>
</g>
<!-- Node5&#45;&gt;Node1 -->
<g id="edge10" class="edge">
<title>Node5&#45;&gt;Node1</title>
<path fill="none" stroke="#404040" d="M852.8226,-855.5516C863.4579,-847.0799 876.9385,-834.0958 883,-819 904.8604,-764.5583 887.5765,-745.4879 883,-687 870.2946,-524.6252 912.1684,-463.2101 826,-325 782.7475,-255.625 703.1016,-205.0408 642.3782,-174.2894"/>
<polygon fill="none" stroke="#404040" points="642.0221,-174.1128 634.8694,-175.0285 631.273,-168.7782 638.4257,-167.8625 642.0221,-174.1128"/>
<text text-anchor="middle" x="935.5" y="-522" font-family="Helvetica,sans-Serif" font-size="10.00" fill="#000000"> +type</text>
<text text-anchor="middle" x="935.5" y="-511" font-family="Helvetica,sans-Serif" font-size="10.00" fill="#000000">+const</text>
<text text-anchor="start" x="882" y="-500" font-family="Helvetica,sans-Serif" font-size="10.00" fill="#000000">+continuousMaxTime</text>
<text text-anchor="middle" x="935.5" y="-489" font-family="Helvetica,sans-Serif" font-size="10.00" fill="#000000">Bin</text>
<text text-anchor="middle" x="935.5" y="-478" font-family="Helvetica,sans-Serif" font-size="10.00" fill="#000000">+z</text>
<text text-anchor="middle" x="935.5" y="-467" font-family="Helvetica,sans-Serif" font-size="10.00" fill="#000000">+debugLevel</text>
</g>
<!-- Node5&#45;&gt;Node2 -->
<g id="edge4" class="edge">
<title>Node5&#45;&gt;Node2</title>
<path fill="none" stroke="#404040" d="M823.2797,-864.3773C783.4816,-859.6798 675.1801,-844.7398 652,-819 612.336,-774.9562 676.4133,-727.3531 633,-687 591.0665,-648.0224 423.6188,-700.7826 376,-669 342.0479,-646.339 320.9099,-606.0894 308.0907,-570.2212"/>
<polygon fill="none" stroke="#404040" points="308.0584,-570.1255 302.3475,-565.7226 304.2152,-558.7575 309.9261,-563.1605 308.0584,-570.1255"/>
<text text-anchor="middle" x="703" y="-750.5" font-family="Helvetica,sans-Serif" font-size="10.00" fill="#000000"> +MinNTrackClusters</text>
</g>
<!-- Node5&#45;&gt;Node8 -->
<g id="edge13" class="edge">
<title>Node5&#45;&gt;Node8</title>
<path fill="none" stroke="#404040" d="M823.4666,-858.2141C810.1044,-850.2348 790.9115,-836.5288 781,-819 777.0882,-812.0817 767.3458,-749.0679 757.6524,-680.5936"/>
<polygon fill="none" stroke="#404040" points="757.6459,-680.5472 752.8479,-675.164 755.9717,-668.6646 760.7697,-674.0478 757.6459,-680.5472"/>
<text text-anchor="middle" x="803.5" y="-761.5" font-family="Helvetica,sans-Serif" font-size="10.00" fill="#000000"> +NITSM</text>
<text text-anchor="middle" x="803.5" y="-750.5" font-family="Helvetica,sans-Serif" font-size="10.00" fill="#000000">+NTPCM</text>
<text text-anchor="middle" x="803.5" y="-739.5" font-family="Helvetica,sans-Serif" font-size="10.00" fill="#000000">+NTRDM</text>
</g>
<!-- Node5&#45;&gt;Node9 -->
<g id="edge17" class="edge">
<title>Node5&#45;&gt;Node9</title>
<path fill="none" stroke="#404040" d="M852.5283,-859.5634C868.5574,-851.858 894.2914,-837.6252 911,-819 962.6467,-761.4289 1001.5754,-684.0426 1027.9843,-619.5637"/>
<polygon fill="none" stroke="#404040" points="1028.1202,-619.2263 1026.653,-612.166 1032.6058,-608.0962 1034.0731,-615.1565 1028.1202,-619.2263"/>
<text text-anchor="middle" x="1015" y="-756" font-family="Helvetica,sans-Serif" font-size="10.00" fill="#000000"> +const</text>
<text text-anchor="middle" x="1015" y="-745" font-family="Helvetica,sans-Serif" font-size="10.00" fill="#000000">+row</text>
</g>
<!-- Node6 -->
<g id="node6" class="node">
<title>Node6</title>
<polygon fill="none" stroke="#bfbfbf" points="154.5,-837.5 154.5,-894.5 215.5,-894.5 215.5,-837.5 154.5,-837.5"/>
<text text-anchor="middle" x="185" y="-882.5" font-family="Helvetica,sans-Serif" font-size="10.00" fill="#000000">unsigned</text>
<polyline fill="none" stroke="#bfbfbf" points="154.5,-875.5 215.5,-875.5 "/>
<text text-anchor="middle" x="185" y="-863.5" font-family="Helvetica,sans-Serif" font-size="10.00" fill="#000000"> </text>
<polyline fill="none" stroke="#bfbfbf" points="154.5,-856.5 215.5,-856.5 "/>
<text text-anchor="middle" x="185" y="-844.5" font-family="Helvetica,sans-Serif" font-size="10.00" fill="#000000"> </text>
</g>
<!-- Node6&#45;&gt;Node2 -->
<g id="edge5" class="edge">
<title>Node6&#45;&gt;Node2</title>
<path fill="none" stroke="#404040" d="M180.891,-837.2325C176.7373,-801.3967 172.6488,-738.5975 186,-687 196.7566,-645.4297 218.6088,-603.1422 239.5182,-569.0479"/>
<polygon fill="none" stroke="#404040" points="239.6016,-568.9145 239.3911,-561.7065 245.9637,-558.7399 246.1742,-565.9479 239.6016,-568.9145"/>
<text text-anchor="middle" x="249" y="-805.5" font-family="Helvetica,sans-Serif" font-size="10.00" fill="#000000"> +bz0Pt</text>
<text text-anchor="middle" x="249" y="-794.5" font-family="Helvetica,sans-Serif" font-size="10.00" fill="#000000">+tpcCompressionModes</text>
<text text-anchor="middle" x="249" y="-783.5" font-family="Helvetica,sans-Serif" font-size="10.00" fill="#000000">+tpcZSthreshold</text>
<text text-anchor="middle" x="249" y="-772.5" font-family="Helvetica,sans-Serif" font-size="10.00" fill="#000000">+mergerCovSource</text>
<text text-anchor="middle" x="249" y="-761.5" font-family="Helvetica,sans-Serif" font-size="10.00" fill="#000000">+fwdTPCDigitsAsClusters</text>
<text text-anchor="middle" x="249" y="-750.5" font-family="Helvetica,sans-Serif" font-size="10.00" fill="#000000">+tpcSigBitsWidth</text>
<text text-anchor="middle" x="249" y="-739.5" font-family="Helvetica,sans-Serif" font-size="10.00" fill="#000000">+dEdxTruncHigh</text>
<text text-anchor="middle" x="249" y="-728.5" font-family="Helvetica,sans-Serif" font-size="10.00" fill="#000000">+mergerInterpolateErrors</text>
<text text-anchor="middle" x="249" y="-717.5" font-family="Helvetica,sans-Serif" font-size="10.00" fill="#000000">+tpcSigBitsCharge</text>
<text text-anchor="middle" x="249" y="-706.5" font-family="Helvetica,sans-Serif" font-size="10.00" fill="#000000">+DisableRefitAttachment</text>
<text text-anchor="middle" x="249" y="-695.5" font-family="Helvetica,sans-Serif" font-size="10.00" fill="#000000">...</text>
</g>
<!-- Node7&#45;&gt;Node1 -->
<g id="edge8" class="edge">
<title>Node7&#45;&gt;Node1</title>
<path fill="none" stroke="#404040" d="M455.8797,-462.8194C457.7267,-422.2103 463.4296,-352.8102 481,-296 482.6906,-290.5339 484.5611,-285.0285 486.5763,-279.5187"/>
<polygon fill="none" stroke="#404040" points="486.6138,-279.4207 485.0237,-272.3871 490.9047,-268.2141 492.4948,-275.2477 486.6138,-279.4207"/>
<text text-anchor="middle" x="514" y="-299" font-family="Helvetica,sans-Serif" font-size="10.00" fill="#000000"> +SliceParam</text>
</g>
<!-- Node8&#45;&gt;Node1 -->
<g id="edge11" class="edge">
<title>Node8&#45;&gt;Node1</title>
<path fill="none" stroke="#404040" d="M650.5265,-325.34C644.6516,-313.1121 638.7548,-300.8385 632.9459,-288.7479"/>
<polygon fill="none" stroke="#404040" points="632.8359,-288.5187 626.632,-284.8428 627.6391,-277.7023 633.843,-281.3783 632.8359,-288.5187"/>
<text text-anchor="middle" x="680.5" y="-299" font-family="Helvetica,sans-Serif" font-size="10.00" fill="#000000"> +polynomialField</text>
</g>
<!-- Node9&#45;&gt;Node1 -->
<g id="edge14" class="edge">
<title>Node9&#45;&gt;Node1</title>
<path fill="none" stroke="#404040" d="M1029.9102,-385.6171C1018.2546,-363.575 1003.7482,-342.022 986,-325 888.4477,-231.4395 736.1522,-180.6131 642.8113,-156.6996"/>
<polygon fill="none" stroke="#404040" points="642.8064,-156.6985 636.0132,-159.1178 631.1672,-153.7777 637.9604,-151.3584 642.8064,-156.6985"/>
<text text-anchor="middle" x="995" y="-299" font-family="Helvetica,sans-Serif" font-size="10.00" fill="#000000"> +tpcGeometry</text>
</g>
<!-- Node10 -->
<g id="node10" class="node">
<title>Node10</title>
<polygon fill="none" stroke="#bfbfbf" points="1045,-837.5 1045,-894.5 1095,-894.5 1095,-837.5 1045,-837.5"/>
<text text-anchor="middle" x="1070" y="-882.5" font-family="Helvetica,sans-Serif" font-size="10.00" fill="#000000">double</text>
<polyline fill="none" stroke="#bfbfbf" points="1045,-875.5 1095,-875.5 "/>
<text text-anchor="middle" x="1070" y="-863.5" font-family="Helvetica,sans-Serif" font-size="10.00" fill="#000000"> </text>
<polyline fill="none" stroke="#bfbfbf" points="1045,-856.5 1095,-856.5 "/>
<text text-anchor="middle" x="1070" y="-844.5" font-family="Helvetica,sans-Serif" font-size="10.00" fill="#000000"> </text>
</g>
<!-- Node10&#45;&gt;Node9 -->
<g id="edge15" class="edge">
<title>Node10&#45;&gt;Node9</title>
<path fill="none" stroke="#404040" d="M1070,-837.3522C1070,-791.2217 1070,-697.8242 1070,-620.5195"/>
<polygon fill="none" stroke="#404040" points="1070.0001,-620.2605 1066,-614.2605 1070,-608.2605 1074,-614.2605 1070.0001,-620.2605"/>
<text text-anchor="middle" x="1089" y="-756" font-family="Helvetica,sans-Serif" font-size="10.00" fill="#000000"> +const</text>
<text text-anchor="middle" x="1089" y="-745" font-family="Helvetica,sans-Serif" font-size="10.00" fill="#000000">+row</text>
</g>
</g>
</svg>
