<?xml version="1.0" encoding="UTF-8" standalone="no"?>
<!DOCTYPE svg PUBLIC "-//W3C//DTD SVG 1.1//EN"
 "http://www.w3.org/Graphics/SVG/1.1/DTD/svg11.dtd">
<!-- Generated by graphviz version 2.40.1 (20161225.0304)
 -->
<!-- Title: ATask Pages: 1 -->
<!--zoomable 1036 -->
<svg id="main" version="1.1" xmlns="http://www.w3.org/2000/svg" xmlns:xlink="http://www.w3.org/1999/xlink" xml:space="preserve" onload="init(evt)">
<style type="text/css"><![CDATA[
.edge:hover path { stroke: red; }
.edge:hover polygon { stroke: red; fill: red; }
]]></style>
<script type="text/javascript"><![CDATA[
var edges = document.getElementsByTagName('g');
if (edges && edges.length) {
  for (var i=0;i<edges.length;i++) {
    if (edges[i].id.substr(0,4)=='edge') {
      edges[i].setAttribute('class','edge');
    }
  }
}
]]></script>
        <defs>
                <circle id="rim" cx="0" cy="0" r="7"/>
                <circle id="rim2" cx="0" cy="0" r="3.5"/>
                <g id="zoomPlus">
                        <use xlink:href="#rim" fill="#404040">
                                <set attributeName="fill" to="#808080" begin="zoomplus.mouseover" end="zoomplus.mouseout"/>
                        </use>
                        <path d="M-4,0h8M0,-4v8" fill="none" stroke="white" stroke-width="1.5" pointer-events="none"/>
                </g>
                <g id="zoomMin">
                        <use xlink:href="#rim" fill="#404040">
                                <set attributeName="fill" to="#808080" begin="zoomminus.mouseover" end="zoomminus.mouseout"/>
                        </use>
                        <path d="M-4,0h8" fill="none" stroke="white" stroke-width="1.5" pointer-events="none"/>
                </g>
                <g id="dirArrow">
                        <path fill="none" stroke="white" stroke-width="1.5" d="M0,-3.0v7 M-2.5,-0.5L0,-3.0L2.5,-0.5"/>
                </g>
               <g id="resetDef">
                       <use xlink:href="#rim2" fill="#404040">
                               <set attributeName="fill" to="#808080" begin="reset.mouseover" end="reset.mouseout"/>
                       </use>
               </g>
        </defs>

<script type="text/javascript">
var viewWidth = 1808;
var viewHeight = 1036;
var sectionId = 'dynsection-1';
</script>
<script xlink:href="../../svgpan.js"/>
<svg id="graph" class="graph">
<g id="viewport">
<title>ATask</title>
<!-- Node2 -->
<g id="node1" class="node">
<title>Node2</title>
<polygon fill="#bfbfbf" stroke="#000000" points="737.5,-.5 737.5,-299.5 810.5,-299.5 810.5,-.5 737.5,-.5"/>
<text text-anchor="middle" x="774" y="-287.5" font-family="Helvetica,sans-Serif" font-size="10.00" fill="#000000">ATask</text>
<polyline fill="none" stroke="#000000" points="737.5,-280.5 810.5,-280.5 "/>
<text text-anchor="middle" x="774" y="-268.5" font-family="Helvetica,sans-Serif" font-size="10.00" fill="#000000"> </text>
<polyline fill="none" stroke="#000000" points="737.5,-261.5 810.5,-261.5 "/>
<text text-anchor="start" x="745.5" y="-249.5" font-family="Helvetica,sans-Serif" font-size="10.00" fill="#000000">+ process()</text>
<text text-anchor="start" x="745.5" y="-238.5" font-family="Helvetica,sans-Serif" font-size="10.00" fill="#000000">+ process()</text>
<text text-anchor="start" x="745.5" y="-227.5" font-family="Helvetica,sans-Serif" font-size="10.00" fill="#000000">+ init()</text>
<text text-anchor="start" x="745.5" y="-216.5" font-family="Helvetica,sans-Serif" font-size="10.00" fill="#000000">+ process()</text>
<text text-anchor="start" x="745.5" y="-205.5" font-family="Helvetica,sans-Serif" font-size="10.00" fill="#000000">+ process()</text>
<text text-anchor="start" x="745.5" y="-194.5" font-family="Helvetica,sans-Serif" font-size="10.00" fill="#000000">+ process()</text>
<text text-anchor="start" x="745.5" y="-183.5" font-family="Helvetica,sans-Serif" font-size="10.00" fill="#000000">+ process()</text>
<text text-anchor="start" x="745.5" y="-172.5" font-family="Helvetica,sans-Serif" font-size="10.00" fill="#000000">+ process()</text>
<text text-anchor="start" x="745.5" y="-161.5" font-family="Helvetica,sans-Serif" font-size="10.00" fill="#000000">+ init()</text>
<text text-anchor="start" x="745.5" y="-150.5" font-family="Helvetica,sans-Serif" font-size="10.00" fill="#000000">+ process()</text>
<text text-anchor="start" x="745.5" y="-139.5" font-family="Helvetica,sans-Serif" font-size="10.00" fill="#000000">+ process()</text>
<text text-anchor="start" x="745.5" y="-128.5" font-family="Helvetica,sans-Serif" font-size="10.00" fill="#000000">+ process()</text>
<text text-anchor="start" x="745.5" y="-117.5" font-family="Helvetica,sans-Serif" font-size="10.00" fill="#000000">+ process()</text>
<text text-anchor="start" x="745.5" y="-106.5" font-family="Helvetica,sans-Serif" font-size="10.00" fill="#000000">+ init()</text>
<text text-anchor="start" x="745.5" y="-95.5" font-family="Helvetica,sans-Serif" font-size="10.00" fill="#000000">+ process()</text>
<text text-anchor="start" x="745.5" y="-84.5" font-family="Helvetica,sans-Serif" font-size="10.00" fill="#000000">+ process()</text>
<text text-anchor="start" x="745.5" y="-73.5" font-family="Helvetica,sans-Serif" font-size="10.00" fill="#000000">+ ATask()</text>
<text text-anchor="start" x="745.5" y="-62.5" font-family="Helvetica,sans-Serif" font-size="10.00" fill="#000000">+ init()</text>
<text text-anchor="start" x="745.5" y="-51.5" font-family="Helvetica,sans-Serif" font-size="10.00" fill="#000000">+ run()</text>
<text text-anchor="start" x="745.5" y="-40.5" font-family="Helvetica,sans-Serif" font-size="10.00" fill="#000000">+ ATask()</text>
<text text-anchor="start" x="745.5" y="-29.5" font-family="Helvetica,sans-Serif" font-size="10.00" fill="#000000">+ init()</text>
<text text-anchor="start" x="745.5" y="-18.5" font-family="Helvetica,sans-Serif" font-size="10.00" fill="#000000">+ run()</text>
<text text-anchor="start" x="745.5" y="-7.5" font-family="Helvetica,sans-Serif" font-size="10.00" fill="#000000">+ process()</text>
</g>
<!-- Node3 -->
<g id="node2" class="node">
<title>Node3</title>
<g id="a_node2"><a xlink:href="../../de/dac/classo2_1_1framework_1_1Task.html" target="_top" xlink:title="{o2::framework::Task\n||+ ~Task()\l+ init()\l+ run()\l+ endOfStream()\l}">
<polygon fill="none" stroke="#000000" points="0,-397 0,-487 116,-487 116,-397 0,-397"/>
<text text-anchor="middle" x="58" y="-475" font-family="Helvetica,sans-Serif" font-size="10.00" fill="#000000">o2::framework::Task</text>
<polyline fill="none" stroke="#000000" points="0,-468 116,-468 "/>
<text text-anchor="middle" x="58" y="-456" font-family="Helvetica,sans-Serif" font-size="10.00" fill="#000000"> </text>
<polyline fill="none" stroke="#000000" points="0,-449 116,-449 "/>
<text text-anchor="start" x="8" y="-437" font-family="Helvetica,sans-Serif" font-size="10.00" fill="#000000">+ ~Task()</text>
<text text-anchor="start" x="8" y="-426" font-family="Helvetica,sans-Serif" font-size="10.00" fill="#000000">+ init()</text>
<text text-anchor="start" x="8" y="-415" font-family="Helvetica,sans-Serif" font-size="10.00" fill="#000000">+ run()</text>
<text text-anchor="start" x="8" y="-404" font-family="Helvetica,sans-Serif" font-size="10.00" fill="#000000">+ endOfStream()</text>
</a>
</g>
</g>
<!-- Node3&#45;&gt;Node2 -->
<g id="edge1" class="edge">
<title>Node3&#45;&gt;Node2</title>
<path fill="none" stroke="#191970" d="M92.4668,-388.9792C101.8973,-377.5169 112.898,-366.3476 125,-358 328.8016,-217.4231 633.0418,-167.6886 737.3641,-154.212"/>
<polygon fill="none" stroke="#191970" points="89.6401,-386.9114 86.1947,-396.9304 95.136,-391.2467 89.6401,-386.9114"/>
</g>
<!-- Node4 -->
<g id="node3" class="node">
<title>Node4</title>
<g id="a_node3"><a xlink:href="../../d6/d86/structo2_1_1framework_1_1Produces.html" target="_top" xlink:title="{o2::framework::Produces\l\&lt; aod::Uno \&gt;\n||}">
<polygon fill="none" stroke="#000000" points="134,-408 134,-476 272,-476 272,-408 134,-408"/>
<text text-anchor="start" x="142" y="-464" font-family="Helvetica,sans-Serif" font-size="10.00" fill="#000000">o2::framework::Produces</text>
<text text-anchor="middle" x="203" y="-453" font-family="Helvetica,sans-Serif" font-size="10.00" fill="#000000">&lt; aod::Uno &gt;</text>
<polyline fill="none" stroke="#000000" points="134,-446 272,-446 "/>
<text text-anchor="middle" x="203" y="-434" font-family="Helvetica,sans-Serif" font-size="10.00" fill="#000000"> </text>
<polyline fill="none" stroke="#000000" points="134,-427 272,-427 "/>
<text text-anchor="middle" x="203" y="-415" font-family="Helvetica,sans-Serif" font-size="10.00" fill="#000000"> </text>
</a>
</g>
</g>
<!-- Node4&#45;&gt;Node2 -->
<g id="edge2" class="edge">
<title>Node4&#45;&gt;Node2</title>
<path fill="none" stroke="#404040" d="M229.0881,-407.6647C243.0759,-391.0102 261.4372,-371.6971 281,-358 427.7485,-255.2527 633.1586,-189.2739 725.5807,-162.9723"/>
<polygon fill="none" stroke="#404040" points="725.7782,-162.9168 730.4721,-157.4425 737.3306,-159.6698 732.6368,-165.1441 725.7782,-162.9168"/>
<text text-anchor="middle" x="373" y="-326.5" font-family="Helvetica,sans-Serif" font-size="10.00" fill="#000000"> +table_uno</text>
</g>
<!-- Node5 -->
<g id="node4" class="node">
<title>Node5</title>
<g id="a_node4"><a xlink:href="../../d6/d86/structo2_1_1framework_1_1Produces.html" target="_top" xlink:title="{o2::framework::Produces\&lt; T \&gt;\n||}">
<polygon fill="none" stroke="#000000" points="571.5,-623 571.5,-680 738.5,-680 738.5,-623 571.5,-623"/>
<text text-anchor="middle" x="655" y="-668" font-family="Helvetica,sans-Serif" font-size="10.00" fill="#000000">o2::framework::Produces&lt; T &gt;</text>
<polyline fill="none" stroke="#000000" points="571.5,-661 738.5,-661 "/>
<text text-anchor="middle" x="655" y="-649" font-family="Helvetica,sans-Serif" font-size="10.00" fill="#000000"> </text>
<polyline fill="none" stroke="#000000" points="571.5,-642 738.5,-642 "/>
<text text-anchor="middle" x="655" y="-630" font-family="Helvetica,sans-Serif" font-size="10.00" fill="#000000"> </text>
</a>
</g>
</g>
<!-- Node5&#45;&gt;Node4 -->
<g id="edge3" class="edge">
<title>Node5&#45;&gt;Node4</title>
<path fill="none" stroke="#ffa500" d="M561.3996,-633.7098C482.0987,-615.5745 367.7801,-582.0019 281,-526 260.5998,-512.8351 241.9288,-493.1406 227.972,-476.13"/>
<polygon fill="#ffa500" stroke="#ffa500" points="560.8534,-637.1743 571.3776,-635.9526 562.3886,-630.3447 560.8534,-637.1743"/>
<text text-anchor="middle" x="363" y="-547" font-family="Helvetica,sans-Serif" font-size="10.00" fill="#000000"> &lt; aod::Uno &gt;</text>
</g>
<!-- Node6 -->
<g id="node5" class="node">
<title>Node6</title>
<g id="a_node5"><a xlink:href="../../d6/d86/structo2_1_1framework_1_1Produces.html" target="_top" xlink:title="{o2::framework::Produces\l\&lt; aod::EtaPhiPt \&gt;\n||}">
<polygon fill="none" stroke="#000000" points="290,-408 290,-476 428,-476 428,-408 290,-408"/>
<text text-anchor="start" x="298" y="-464" font-family="Helvetica,sans-Serif" font-size="10.00" fill="#000000">o2::framework::Produces</text>
<text text-anchor="middle" x="359" y="-453" font-family="Helvetica,sans-Serif" font-size="10.00" fill="#000000">&lt; aod::EtaPhiPt &gt;</text>
<polyline fill="none" stroke="#000000" points="290,-446 428,-446 "/>
<text text-anchor="middle" x="359" y="-434" font-family="Helvetica,sans-Serif" font-size="10.00" fill="#000000"> </text>
<polyline fill="none" stroke="#000000" points="290,-427 428,-427 "/>
<text text-anchor="middle" x="359" y="-415" font-family="Helvetica,sans-Serif" font-size="10.00" fill="#000000"> </text>
</a>
</g>
</g>
<!-- Node5&#45;&gt;Node6 -->
<g id="edge5" class="edge">
<title>Node5&#45;&gt;Node6</title>
<path fill="none" stroke="#ffa500" d="M583.5325,-618.4198C538.8922,-595.8743 481.6249,-563.3921 437,-526 419.1529,-511.0456 401.3267,-492.2147 387.2302,-476.1744"/>
<polygon fill="#ffa500" stroke="#ffa500" points="582.0608,-621.597 592.5707,-622.9363 585.19,-615.3353 582.0608,-621.597"/>
<text text-anchor="middle" x="521.5" y="-547" font-family="Helvetica,sans-Serif" font-size="10.00" fill="#000000"> &lt; aod::EtaPhiPt &gt;</text>
</g>
<!-- Node7 -->
<g id="node6" class="node">
<title>Node7</title>
<g id="a_node6"><a xlink:href="../../d6/d86/structo2_1_1framework_1_1Produces.html" target="_top" xlink:title="{o2::framework::Produces\l\&lt; aod::Due \&gt;\n||}">
<polygon fill="none" stroke="#000000" points="446,-408 446,-476 584,-476 584,-408 446,-408"/>
<text text-anchor="start" x="454" y="-464" font-family="Helvetica,sans-Serif" font-size="10.00" fill="#000000">o2::framework::Produces</text>
<text text-anchor="middle" x="515" y="-453" font-family="Helvetica,sans-Serif" font-size="10.00" fill="#000000">&lt; aod::Due &gt;</text>
<polyline fill="none" stroke="#000000" points="446,-446 584,-446 "/>
<text text-anchor="middle" x="515" y="-434" font-family="Helvetica,sans-Serif" font-size="10.00" fill="#000000"> </text>
<polyline fill="none" stroke="#000000" points="446,-427 584,-427 "/>
<text text-anchor="middle" x="515" y="-415" font-family="Helvetica,sans-Serif" font-size="10.00" fill="#000000"> </text>
</a>
</g>
</g>
<!-- Node5&#45;&gt;Node7 -->
<g id="edge7" class="edge">
<title>Node5&#45;&gt;Node7</title>
<path fill="none" stroke="#ffa500" d="M625.5775,-614.642C611.8528,-596.9453 595.588,-575.2321 582,-555 564.7064,-529.2505 546.8781,-498.9682 533.9639,-476.2364"/>
<polygon fill="#ffa500" stroke="#ffa500" points="623.176,-617.2536 632.0882,-622.9827 628.694,-612.9463 623.176,-617.2536"/>
<text text-anchor="middle" x="617" y="-547" font-family="Helvetica,sans-Serif" font-size="10.00" fill="#000000"> &lt; aod::Due &gt;</text>
</g>
<!-- Node8 -->
<g id="node7" class="node">
<title>Node8</title>
<g id="a_node7"><a xlink:href="../../d6/d86/structo2_1_1framework_1_1Produces.html" target="_top" xlink:title="{o2::framework::Produces\l\&lt; aod::EtaPhis \&gt;\n||}">
<polygon fill="none" stroke="#000000" points="602,-408 602,-476 740,-476 740,-408 602,-408"/>
<text text-anchor="start" x="610" y="-464" font-family="Helvetica,sans-Serif" font-size="10.00" fill="#000000">o2::framework::Produces</text>
<text text-anchor="middle" x="671" y="-453" font-family="Helvetica,sans-Serif" font-size="10.00" fill="#000000">&lt; aod::EtaPhis &gt;</text>
<polyline fill="none" stroke="#000000" points="602,-446 740,-446 "/>
<text text-anchor="middle" x="671" y="-434" font-family="Helvetica,sans-Serif" font-size="10.00" fill="#000000"> </text>
<polyline fill="none" stroke="#000000" points="602,-427 740,-427 "/>
<text text-anchor="middle" x="671" y="-415" font-family="Helvetica,sans-Serif" font-size="10.00" fill="#000000"> </text>
</a>
</g>
</g>
<!-- Node5&#45;&gt;Node8 -->
<g id="edge9" class="edge">
<title>Node5&#45;&gt;Node8</title>
<path fill="none" stroke="#ffa500" d="M654.0823,-612.5192C653.9248,-592.0855 654.2368,-566.6593 656,-544 657.7635,-521.337 661.4689,-496.0569 664.7555,-476.3338"/>
<polygon fill="#ffa500" stroke="#ffa500" points="650.5847,-612.7504 654.2022,-622.7085 657.5842,-612.6679 650.5847,-612.7504"/>
<text text-anchor="middle" x="699" y="-547" font-family="Helvetica,sans-Serif" font-size="10.00" fill="#000000"> &lt; aod::EtaPhis &gt;</text>
</g>
<!-- Node20 -->
<g id="node19" class="node">
<title>Node20</title>
<g id="a_node19"><a xlink:href="../../d6/d86/structo2_1_1framework_1_1Produces.html" target="_top" xlink:title="{o2::framework::Produces\l\&lt; aod::Tre \&gt;\n||}">
<polygon fill="none" stroke="#000000" points="758,-408 758,-476 896,-476 896,-408 758,-408"/>
<text text-anchor="start" x="766" y="-464" font-family="Helvetica,sans-Serif" font-size="10.00" fill="#000000">o2::framework::Produces</text>
<text text-anchor="middle" x="827" y="-453" font-family="Helvetica,sans-Serif" font-size="10.00" fill="#000000">&lt; aod::Tre &gt;</text>
<polyline fill="none" stroke="#000000" points="758,-446 896,-446 "/>
<text text-anchor="middle" x="827" y="-434" font-family="Helvetica,sans-Serif" font-size="10.00" fill="#000000"> </text>
<polyline fill="none" stroke="#000000" points="758,-427 896,-427 "/>
<text text-anchor="middle" x="827" y="-415" font-family="Helvetica,sans-Serif" font-size="10.00" fill="#000000"> </text>
</a>
</g>
</g>
<!-- Node5&#45;&gt;Node20 -->
<g id="edge28" class="edge">
<title>Node5&#45;&gt;Node20</title>
<path fill="none" stroke="#ffa500" d="M688.7775,-615.5703C705.2229,-597.6946 725.0537,-575.5621 742,-555 763.2333,-529.2361 785.8955,-498.9547 802.4758,-476.227"/>
<polygon fill="#ffa500" stroke="#ffa500" points="686.1711,-613.2338 681.9551,-622.9537 691.3123,-617.9844 686.1711,-613.2338"/>
<text text-anchor="middle" x="782" y="-547" font-family="Helvetica,sans-Serif" font-size="10.00" fill="#000000"> &lt; aod::Tre &gt;</text>
</g>
<!-- Node21 -->
<g id="node20" class="node">
<title>Node21</title>
<g id="a_node20"><a xlink:href="../../d6/d86/structo2_1_1framework_1_1Produces.html" target="_top" xlink:title="{o2::framework::Produces\l\&lt; aod::FooBars \&gt;\n||}">
<polygon fill="none" stroke="#000000" points="914,-408 914,-476 1052,-476 1052,-408 914,-408"/>
<text text-anchor="start" x="922" y="-464" font-family="Helvetica,sans-Serif" font-size="10.00" fill="#000000">o2::framework::Produces</text>
<text text-anchor="middle" x="983" y="-453" font-family="Helvetica,sans-Serif" font-size="10.00" fill="#000000">&lt; aod::FooBars &gt;</text>
<polyline fill="none" stroke="#000000" points="914,-446 1052,-446 "/>
<text text-anchor="middle" x="983" y="-434" font-family="Helvetica,sans-Serif" font-size="10.00" fill="#000000"> </text>
<polyline fill="none" stroke="#000000" points="914,-427 1052,-427 "/>
<text text-anchor="middle" x="983" y="-415" font-family="Helvetica,sans-Serif" font-size="10.00" fill="#000000"> </text>
</a>
</g>
</g>
<!-- Node5&#45;&gt;Node21 -->
<g id="edge30" class="edge">
<title>Node5&#45;&gt;Node21</title>
<path fill="none" stroke="#ffa500" d="M711.0374,-617.5484C749.7672,-594.9302 802.949,-565.5213 852,-544 874.7807,-534.0049 884.1222,-539.5271 905,-526 925.3761,-512.798 944.046,-493.1017 958.0082,-476.0994"/>
<polygon fill="#ffa500" stroke="#ffa500" points="708.8612,-614.7675 702.0109,-622.8497 712.4062,-620.8035 708.8612,-614.7675"/>
<text text-anchor="middle" x="896.5" y="-547" font-family="Helvetica,sans-Serif" font-size="10.00" fill="#000000"> &lt; aod::FooBars &gt;</text>
</g>
<!-- Node23 -->
<g id="node22" class="node">
<title>Node23</title>
<g id="a_node22"><a xlink:href="../../d6/d86/structo2_1_1framework_1_1Produces.html" target="_top" xlink:title="{o2::framework::Produces\l\&lt; aod::EtaPhi \&gt;\n||}">
<polygon fill="none" stroke="#000000" points="1070,-408 1070,-476 1208,-476 1208,-408 1070,-408"/>
<text text-anchor="start" x="1078" y="-464" font-family="Helvetica,sans-Serif" font-size="10.00" fill="#000000">o2::framework::Produces</text>
<text text-anchor="middle" x="1139" y="-453" font-family="Helvetica,sans-Serif" font-size="10.00" fill="#000000">&lt; aod::EtaPhi &gt;</text>
<polyline fill="none" stroke="#000000" points="1070,-446 1208,-446 "/>
<text text-anchor="middle" x="1139" y="-434" font-family="Helvetica,sans-Serif" font-size="10.00" fill="#000000"> </text>
<polyline fill="none" stroke="#000000" points="1070,-427 1208,-427 "/>
<text text-anchor="middle" x="1139" y="-415" font-family="Helvetica,sans-Serif" font-size="10.00" fill="#000000"> </text>
</a>
</g>
</g>
<!-- Node5&#45;&gt;Node23 -->
<g id="edge33" class="edge">
<title>Node5&#45;&gt;Node23</title>
<path fill="none" stroke="#ffa500" d="M748.1897,-623.196C804.6093,-605.2876 877.6623,-580.722 941,-555 951.4985,-550.7365 953.2257,-547.5083 964,-544 1005.6925,-530.4241 1022.5827,-547.1348 1061,-526 1082.7957,-514.0094 1101.9032,-493.7012 1115.7512,-476.0568"/>
<polygon fill="#ffa500" stroke="#ffa500" points="747.0504,-619.8854 738.57,-626.2362 749.1599,-626.56 747.0504,-619.8854"/>
<text text-anchor="middle" x="1004.5" y="-547" font-family="Helvetica,sans-Serif" font-size="10.00" fill="#000000"> &lt; aod::EtaPhi &gt;</text>
</g>
<!-- Node6&#45;&gt;Node2 -->
<g id="edge4" class="edge">
<title>Node6&#45;&gt;Node2</title>
<path fill="none" stroke="#404040" d="M387.1021,-407.6713C401.1695,-391.5957 419.0081,-372.7799 437,-358 532.1143,-279.8661 659.0153,-209.2875 726.7237,-173.911"/>
<polygon fill="none" stroke="#404040" points="726.8151,-173.8636 730.2975,-167.549 737.4657,-168.3348 733.9833,-174.6493 726.8151,-173.8636"/>
<text text-anchor="middle" x="515" y="-326.5" font-family="Helvetica,sans-Serif" font-size="10.00" fill="#000000"> +etaphipt</text>
</g>
<!-- Node7&#45;&gt;Node2 -->
<g id="edge6" class="edge">
<title>Node7&#45;&gt;Node2</title>
<path fill="none" stroke="#404040" d="M545.2175,-407.9324C590.5632,-356.8091 676.4976,-259.9255 729.167,-200.5453"/>
<polygon fill="none" stroke="#404040" points="729.3603,-200.3273 730.3493,-193.1843 737.3232,-191.3499 736.3342,-198.4929 729.3603,-200.3273"/>
<text text-anchor="middle" x="652" y="-326.5" font-family="Helvetica,sans-Serif" font-size="10.00" fill="#000000"> +table_due</text>
</g>
<!-- Node8&#45;&gt;Node2 -->
<g id="edge8" class="edge">
<title>Node8&#45;&gt;Node2</title>
<path fill="none" stroke="#404040" d="M683.017,-407.9324C695.3756,-372.8964 715.3153,-316.3683 733.3826,-265.1485"/>
<polygon fill="none" stroke="#404040" points="733.4538,-264.9465 731.6775,-257.9575 737.4456,-253.6299 739.2219,-260.6188 733.4538,-264.9465"/>
<text text-anchor="middle" x="735.5" y="-326.5" font-family="Helvetica,sans-Serif" font-size="10.00" fill="#000000"> +etaphi</text>
</g>
<!-- Node9 -->
<g id="node8" class="node">
<title>Node9</title>
<g id="a_node8"><a xlink:href="../../d4/d79/structo2_1_1framework_1_1OutputObj.html" target="_top" xlink:title="{o2::framework::OutputObj\l\&lt; TH1F \&gt;\n||+ spec()\l+ OutputObj()\l+ OutputObj()\l+ setObject()\l+ setObject()\l+ setObject()\l+ setHash()\l+ operator&#45;\&gt;()\l+ operator*()\l+ ref()\l}">
<polygon fill="none" stroke="#000000" points="1226.5,-358.5 1226.5,-525.5 1369.5,-525.5 1369.5,-358.5 1226.5,-358.5"/>
<text text-anchor="start" x="1234.5" y="-513.5" font-family="Helvetica,sans-Serif" font-size="10.00" fill="#000000">o2::framework::OutputObj</text>
<text text-anchor="middle" x="1298" y="-502.5" font-family="Helvetica,sans-Serif" font-size="10.00" fill="#000000">&lt; TH1F &gt;</text>
<polyline fill="none" stroke="#000000" points="1226.5,-495.5 1369.5,-495.5 "/>
<text text-anchor="middle" x="1298" y="-483.5" font-family="Helvetica,sans-Serif" font-size="10.00" fill="#000000"> </text>
<polyline fill="none" stroke="#000000" points="1226.5,-476.5 1369.5,-476.5 "/>
<text text-anchor="start" x="1234.5" y="-464.5" font-family="Helvetica,sans-Serif" font-size="10.00" fill="#000000">+ spec()</text>
<text text-anchor="start" x="1234.5" y="-453.5" font-family="Helvetica,sans-Serif" font-size="10.00" fill="#000000">+ OutputObj()</text>
<text text-anchor="start" x="1234.5" y="-442.5" font-family="Helvetica,sans-Serif" font-size="10.00" fill="#000000">+ OutputObj()</text>
<text text-anchor="start" x="1234.5" y="-431.5" font-family="Helvetica,sans-Serif" font-size="10.00" fill="#000000">+ setObject()</text>
<text text-anchor="start" x="1234.5" y="-420.5" font-family="Helvetica,sans-Serif" font-size="10.00" fill="#000000">+ setObject()</text>
<text text-anchor="start" x="1234.5" y="-409.5" font-family="Helvetica,sans-Serif" font-size="10.00" fill="#000000">+ setObject()</text>
<text text-anchor="start" x="1234.5" y="-398.5" font-family="Helvetica,sans-Serif" font-size="10.00" fill="#000000">+ setHash()</text>
<text text-anchor="start" x="1234.5" y="-387.5" font-family="Helvetica,sans-Serif" font-size="10.00" fill="#000000">+ operator&#45;&gt;()</text>
<text text-anchor="start" x="1234.5" y="-376.5" font-family="Helvetica,sans-Serif" font-size="10.00" fill="#000000">+ operator*()</text>
<text text-anchor="start" x="1234.5" y="-365.5" font-family="Helvetica,sans-Serif" font-size="10.00" fill="#000000">+ ref()</text>
</a>
</g>
</g>
<!-- Node9&#45;&gt;Node2 -->
<g id="edge10" class="edge">
<title>Node9&#45;&gt;Node2</title>
<path fill="none" stroke="#404040" d="M1226.32,-365.0803C1223.2415,-362.6112 1220.1299,-360.2405 1217,-358 1086.3187,-264.4536 906.904,-195.5913 822.1138,-166.0061"/>
<polygon fill="none" stroke="#404040" points="821.892,-165.9295 814.9146,-167.7508 810.5499,-162.0106 817.5272,-160.1894 821.892,-165.9295"/>
<text text-anchor="middle" x="1201" y="-332" font-family="Helvetica,sans-Serif" font-size="10.00" fill="#000000"> +phiH</text>
<text text-anchor="middle" x="1201" y="-321" font-family="Helvetica,sans-Serif" font-size="10.00" fill="#000000">+etaH</text>
</g>
<!-- Node10 -->
<g id="node9" class="node">
<title>Node10</title>
<polygon fill="none" stroke="#bfbfbf" points="1161.5,-805 1161.5,-862 1300.5,-862 1300.5,-805 1161.5,-805"/>
<text text-anchor="middle" x="1231" y="-850" font-family="Helvetica,sans-Serif" font-size="10.00" fill="#000000">OutputObjHandlingPolicy</text>
<polyline fill="none" stroke="#bfbfbf" points="1161.5,-843 1300.5,-843 "/>
<text text-anchor="middle" x="1231" y="-831" font-family="Helvetica,sans-Serif" font-size="10.00" fill="#000000"> </text>
<polyline fill="none" stroke="#bfbfbf" points="1161.5,-824 1300.5,-824 "/>
<text text-anchor="middle" x="1231" y="-812" font-family="Helvetica,sans-Serif" font-size="10.00" fill="#000000"> </text>
</g>
<!-- Node10&#45;&gt;Node9 -->
<g id="edge11" class="edge">
<title>Node10&#45;&gt;Node9</title>
<path fill="none" stroke="#404040" d="M1228.4823,-804.9029C1224.9905,-756.459 1221.0648,-655.4768 1240,-573 1242.7414,-561.059 1246.5752,-548.8632 1250.9795,-536.9528"/>
<polygon fill="none" stroke="#404040" points="1251.0273,-536.8292 1249.4634,-529.7897 1255.3599,-525.6386 1256.9238,-532.6781 1251.0273,-536.8292"/>
<text text-anchor="middle" x="1260.5" y="-649" font-family="Helvetica,sans-Serif" font-size="10.00" fill="#000000"> +policy</text>
</g>
<!-- Node18 -->
<g id="node17" class="node">
<title>Node18</title>
<g id="a_node17"><a xlink:href="../../d4/d79/structo2_1_1framework_1_1OutputObj.html" target="_top" xlink:title="{o2::framework::OutputObj\&lt; T \&gt;\n||+ OutputObj()\l+ OutputObj()\l+ setObject()\l+ setObject()\l+ setObject()\l+ setHash()\l+ spec()\l+ operator&#45;\&gt;()\l+ operator*()\l+ ref()\l}">
<polygon fill="none" stroke="#000000" points="1290,-573.5 1290,-729.5 1462,-729.5 1462,-573.5 1290,-573.5"/>
<text text-anchor="middle" x="1376" y="-717.5" font-family="Helvetica,sans-Serif" font-size="10.00" fill="#000000">o2::framework::OutputObj&lt; T &gt;</text>
<polyline fill="none" stroke="#000000" points="1290,-710.5 1462,-710.5 "/>
<text text-anchor="middle" x="1376" y="-698.5" font-family="Helvetica,sans-Serif" font-size="10.00" fill="#000000"> </text>
<polyline fill="none" stroke="#000000" points="1290,-691.5 1462,-691.5 "/>
<text text-anchor="start" x="1298" y="-679.5" font-family="Helvetica,sans-Serif" font-size="10.00" fill="#000000">+ OutputObj()</text>
<text text-anchor="start" x="1298" y="-668.5" font-family="Helvetica,sans-Serif" font-size="10.00" fill="#000000">+ OutputObj()</text>
<text text-anchor="start" x="1298" y="-657.5" font-family="Helvetica,sans-Serif" font-size="10.00" fill="#000000">+ setObject()</text>
<text text-anchor="start" x="1298" y="-646.5" font-family="Helvetica,sans-Serif" font-size="10.00" fill="#000000">+ setObject()</text>
<text text-anchor="start" x="1298" y="-635.5" font-family="Helvetica,sans-Serif" font-size="10.00" fill="#000000">+ setObject()</text>
<text text-anchor="start" x="1298" y="-624.5" font-family="Helvetica,sans-Serif" font-size="10.00" fill="#000000">+ setHash()</text>
<text text-anchor="start" x="1298" y="-613.5" font-family="Helvetica,sans-Serif" font-size="10.00" fill="#000000">+ spec()</text>
<text text-anchor="start" x="1298" y="-602.5" font-family="Helvetica,sans-Serif" font-size="10.00" fill="#000000">+ operator&#45;&gt;()</text>
<text text-anchor="start" x="1298" y="-591.5" font-family="Helvetica,sans-Serif" font-size="10.00" fill="#000000">+ operator*()</text>
<text text-anchor="start" x="1298" y="-580.5" font-family="Helvetica,sans-Serif" font-size="10.00" fill="#000000">+ ref()</text>
</a>
</g>
</g>
<!-- Node10&#45;&gt;Node18 -->
<g id="edge22" class="edge">
<title>Node10&#45;&gt;Node18</title>
<path fill="none" stroke="#404040" d="M1253.9757,-804.6616C1268.2162,-786.7873 1287.3397,-762.784 1306.2172,-739.0894"/>
<polygon fill="none" stroke="#404040" points="1306.2324,-739.0704 1306.8426,-731.8851 1313.7099,-729.6849 1313.0996,-736.8701 1306.2324,-739.0704"/>
<text text-anchor="middle" x="1314.5" y="-751" font-family="Helvetica,sans-Serif" font-size="10.00" fill="#000000"> +policy</text>
</g>
<!-- Node11 -->
<g id="node10" class="node">
<title>Node11</title>
<g id="a_node10"><a xlink:href="../../d3/d87/classuint32__t.html" target="_top" xlink:title="{uint32_t\n||}">
<polygon fill="none" stroke="#000000" points="1087,-805 1087,-862 1143,-862 1143,-805 1087,-805"/>
<text text-anchor="middle" x="1115" y="-850" font-family="Helvetica,sans-Serif" font-size="10.00" fill="#000000">uint32_t</text>
<polyline fill="none" stroke="#000000" points="1087,-843 1143,-843 "/>
<text text-anchor="middle" x="1115" y="-831" font-family="Helvetica,sans-Serif" font-size="10.00" fill="#000000"> </text>
<polyline fill="none" stroke="#000000" points="1087,-824 1143,-824 "/>
<text text-anchor="middle" x="1115" y="-812" font-family="Helvetica,sans-Serif" font-size="10.00" fill="#000000"> </text>
</a>
</g>
</g>
<!-- Node11&#45;&gt;Node9 -->
<g id="edge12" class="edge">
<title>Node11&#45;&gt;Node9</title>
<path fill="none" stroke="#404040" d="M1112.3294,-804.9262C1109.0009,-754.3083 1108.3883,-647.2364 1153,-573 1171.1778,-542.7511 1190.4334,-549.2304 1217,-526 1217.0953,-525.9167 1217.1907,-525.8332 1217.286,-525.7497"/>
<polygon fill="none" stroke="#404040" points="1217.2633,-525.7701 1219.0469,-518.783 1226.1825,-517.742 1224.3989,-524.7291 1217.2633,-525.7701"/>
<text text-anchor="middle" x="1187" y="-649" font-family="Helvetica,sans-Serif" font-size="10.00" fill="#000000"> +mTaskHash</text>
</g>
<!-- Node11&#45;&gt;Node18 -->
<g id="edge21" class="edge">
<title>Node11&#45;&gt;Node18</title>
<path fill="none" stroke="#404040" d="M1129.8728,-804.8949C1136.0196,-795.0995 1143.862,-784.6841 1153,-777 1177.2114,-756.6407 1188.3973,-759.1522 1218,-748 1243.2577,-738.4847 1252.0998,-742.5408 1276,-730 1277.0047,-729.4728 1278.0094,-728.9352 1279.0136,-728.3877"/>
<polygon fill="none" stroke="#404040" points="1279.3554,-728.1897 1282.5415,-721.7206 1289.7384,-722.1735 1286.5523,-728.6426 1279.3554,-728.1897"/>
<text text-anchor="middle" x="1252" y="-751" font-family="Helvetica,sans-Serif" font-size="10.00" fill="#000000"> +mTaskHash</text>
</g>
<!-- Node12 -->
<g id="node11" class="node">
<title>Node12</title>
<polygon fill="none" stroke="#bfbfbf" points="1437.5,-954 1437.5,-1011 1466.5,-1011 1466.5,-954 1437.5,-954"/>
<text text-anchor="middle" x="1452" y="-999" font-family="Helvetica,sans-Serif" font-size="10.00" fill="#000000">int</text>
<polyline fill="none" stroke="#bfbfbf" points="1437.5,-992 1466.5,-992 "/>
<text text-anchor="middle" x="1452" y="-980" font-family="Helvetica,sans-Serif" font-size="10.00" fill="#000000"> </text>
<polyline fill="none" stroke="#bfbfbf" points="1437.5,-973 1466.5,-973 "/>
<text text-anchor="middle" x="1452" y="-961" font-family="Helvetica,sans-Serif" font-size="10.00" fill="#000000"> </text>
</g>
<!-- Node12&#45;&gt;Node9 -->
<g id="edge13" class="edge">
<title>Node12&#45;&gt;Node9</title>
<path fill="none" stroke="#404040" d="M1437.3271,-981.1504C1374.0445,-975.0079 1125.5218,-947.4779 1078,-890 987.8244,-780.932 1022.2804,-685.6037 1108,-573 1137.8331,-533.8104 1168.1424,-551.4686 1215.9137,-525.7455"/>
<polygon fill="none" stroke="#404040" points="1216.0475,-525.6665 1219.1783,-519.1705 1226.3788,-519.5619 1223.248,-526.058 1216.0475,-525.6665"/>
<text text-anchor="middle" x="1043" y="-751" font-family="Helvetica,sans-Serif" font-size="10.00" fill="#000000"> +label</text>
</g>
<!-- Node14 -->
<g id="node13" class="node">
<title>Node14</title>
<g id="a_node13"><a xlink:href="../../da/d96/structo2_1_1framework_1_1InputSpec.html" target="_top" xlink:title="{o2::framework::InputSpec\n||+ InputSpec()\l+ InputSpec()\l+ InputSpec()\l+ InputSpec()\l+ InputSpec()\l+ operator==()\l}">
<polygon fill="none" stroke="#000000" points="1562,-777.5 1562,-889.5 1704,-889.5 1704,-777.5 1562,-777.5"/>
<text text-anchor="middle" x="1633" y="-877.5" font-family="Helvetica,sans-Serif" font-size="10.00" fill="#000000">o2::framework::InputSpec</text>
<polyline fill="none" stroke="#000000" points="1562,-870.5 1704,-870.5 "/>
<text text-anchor="middle" x="1633" y="-858.5" font-family="Helvetica,sans-Serif" font-size="10.00" fill="#000000"> </text>
<polyline fill="none" stroke="#000000" points="1562,-851.5 1704,-851.5 "/>
<text text-anchor="start" x="1570" y="-839.5" font-family="Helvetica,sans-Serif" font-size="10.00" fill="#000000">+ InputSpec()</text>
<text text-anchor="start" x="1570" y="-828.5" font-family="Helvetica,sans-Serif" font-size="10.00" fill="#000000">+ InputSpec()</text>
<text text-anchor="start" x="1570" y="-817.5" font-family="Helvetica,sans-Serif" font-size="10.00" fill="#000000">+ InputSpec()</text>
<text text-anchor="start" x="1570" y="-806.5" font-family="Helvetica,sans-Serif" font-size="10.00" fill="#000000">+ InputSpec()</text>
<text text-anchor="start" x="1570" y="-795.5" font-family="Helvetica,sans-Serif" font-size="10.00" fill="#000000">+ InputSpec()</text>
<text text-anchor="start" x="1570" y="-784.5" font-family="Helvetica,sans-Serif" font-size="10.00" fill="#000000">+ operator==()</text>
</a>
</g>
</g>
<!-- Node12&#45;&gt;Node14 -->
<g id="edge18" class="edge">
<title>Node12&#45;&gt;Node14</title>
<path fill="none" stroke="#404040" d="M1466.506,-970.5586C1485.9058,-954.5886 1521.7473,-925.0837 1555.2201,-897.5287"/>
<polygon fill="none" stroke="#404040" points="1555.3181,-897.4481 1557.4082,-890.5465 1564.5827,-889.8214 1562.4927,-896.723 1555.3181,-897.4481"/>
<text text-anchor="middle" x="1566" y="-911" font-family="Helvetica,sans-Serif" font-size="10.00" fill="#000000"> +binding</text>
</g>
<!-- Node12&#45;&gt;Node18 -->
<g id="edge23" class="edge">
<title>Node12&#45;&gt;Node18</title>
<path fill="none" stroke="#404040" d="M1450.4233,-953.8324C1447.7258,-913.7328 1440.8909,-838.8627 1425,-777 1421.9571,-765.1541 1418.113,-752.9116 1413.9219,-740.9286"/>
<polygon fill="none" stroke="#404040" points="1413.8857,-740.8282 1408.0865,-736.5423 1409.8122,-729.5407 1415.6114,-733.8266 1413.8857,-740.8282"/>
<text text-anchor="middle" x="1462" y="-831" font-family="Helvetica,sans-Serif" font-size="10.00" fill="#000000"> +label</text>
</g>
<!-- Node13 -->
<g id="node12" class="node">
<title>Node13</title>
<polygon fill="none" stroke="#bfbfbf" points="1506,-805 1506,-862 1544,-862 1544,-805 1506,-805"/>
<text text-anchor="middle" x="1525" y="-850" font-family="Helvetica,sans-Serif" font-size="10.00" fill="#000000">bool</text>
<polyline fill="none" stroke="#bfbfbf" points="1506,-843 1544,-843 "/>
<text text-anchor="middle" x="1525" y="-831" font-family="Helvetica,sans-Serif" font-size="10.00" fill="#000000"> </text>
<polyline fill="none" stroke="#bfbfbf" points="1506,-824 1544,-824 "/>
<text text-anchor="middle" x="1525" y="-812" font-family="Helvetica,sans-Serif" font-size="10.00" fill="#000000"> </text>
</g>
<!-- Node13&#45;&gt;Node9 -->
<g id="edge14" class="edge">
<title>Node13&#45;&gt;Node9</title>
<path fill="none" stroke="#404040" d="M1527.1284,-804.851C1529.4279,-752.68 1526.864,-641.2754 1471,-573 1444.0818,-540.1013 1419.767,-551.2707 1379.7211,-525.6891"/>
<polygon fill="none" stroke="#404040" points="1379.6348,-525.6293 1372.425,-525.4938 1369.7771,-518.7864 1376.9869,-518.9219 1379.6348,-525.6293"/>
<text text-anchor="middle" x="1556" y="-649" font-family="Helvetica,sans-Serif" font-size="10.00" fill="#000000"> +isdangling</text>
</g>
<!-- Node13&#45;&gt;Node18 -->
<g id="edge25" class="edge">
<title>Node13&#45;&gt;Node18</title>
<path fill="none" stroke="#404040" d="M1512.3053,-804.888C1507.027,-795.2044 1500.1983,-784.8631 1492,-777 1479.6602,-765.1647 1471.0439,-770.0545 1458,-759 1450.8231,-752.9177 1443.8836,-746.1051 1437.283,-738.9399"/>
<polygon fill="none" stroke="#404040" points="1437.0629,-738.6911 1430.0913,-736.848 1429.1113,-729.7038 1436.0829,-731.5469 1437.0629,-738.6911"/>
<text text-anchor="middle" x="1489" y="-751" font-family="Helvetica,sans-Serif" font-size="10.00" fill="#000000"> +isdangling</text>
</g>
<!-- Node14&#45;&gt;Node9 -->
<g id="edge15" class="edge">
<title>Node14&#45;&gt;Node9</title>
<path fill="none" stroke="#404040" d="M1631.1483,-777.3159C1627.7282,-709.7139 1618.0727,-601.6994 1591,-573 1527.3626,-505.5389 1468.006,-567.9028 1380.4289,-525.851"/>
<polygon fill="none" stroke="#404040" points="1380.2396,-525.752 1373.069,-526.515 1369.6067,-520.1894 1376.7774,-519.4264 1380.2396,-525.752"/>
<text text-anchor="middle" x="1644" y="-649" font-family="Helvetica,sans-Serif" font-size="10.00" fill="#000000"> +spec</text>
</g>
<!-- Node14&#45;&gt;Node18 -->
<g id="edge26" class="edge">
<title>Node14&#45;&gt;Node18</title>
<path fill="none" stroke="#404040" d="M1563.3258,-777.3915C1550.4015,-767.4018 1536.9055,-757.2422 1524,-748 1507.5309,-736.2058 1489.7099,-724.0749 1472.3305,-712.5658"/>
<polygon fill="none" stroke="#404040" points="1472.1839,-712.4693 1464.9728,-712.5095 1462.1623,-705.8686 1469.3733,-705.8284 1472.1839,-712.4693"/>
<text text-anchor="middle" x="1553" y="-751" font-family="Helvetica,sans-Serif" font-size="10.00" fill="#000000"> +spec</text>
</g>
<!-- Node15 -->
<g id="node14" class="node">
<title>Node15</title>
<polygon fill="none" stroke="#bfbfbf" points="1700,-954 1700,-1011 1788,-1011 1788,-954 1700,-954"/>
<text text-anchor="middle" x="1744" y="-999" font-family="Helvetica,sans-Serif" font-size="10.00" fill="#000000">enum Lifetime</text>
<polyline fill="none" stroke="#bfbfbf" points="1700,-992 1788,-992 "/>
<text text-anchor="middle" x="1744" y="-980" font-family="Helvetica,sans-Serif" font-size="10.00" fill="#000000"> </text>
<polyline fill="none" stroke="#bfbfbf" points="1700,-973 1788,-973 "/>
<text text-anchor="middle" x="1744" y="-961" font-family="Helvetica,sans-Serif" font-size="10.00" fill="#000000"> </text>
</g>
<!-- Node15&#45;&gt;Node14 -->
<g id="edge16" class="edge">
<title>Node15&#45;&gt;Node14</title>
<path fill="none" stroke="#404040" d="M1722.5981,-953.7713C1711.0639,-938.2885 1696.3218,-918.4995 1682.1409,-899.4639"/>
<polygon fill="none" stroke="#404040" points="1681.9653,-899.2281 1675.1731,-896.8062 1674.7963,-889.6049 1681.5885,-892.0269 1681.9653,-899.2281"/>
<text text-anchor="middle" x="1720" y="-911" font-family="Helvetica,sans-Serif" font-size="10.00" fill="#000000"> +lifetime</text>
</g>
<!-- Node16 -->
<g id="node15" class="node">
<title>Node16</title>
<polygon fill="none" stroke="#bfbfbf" points="1518,-937.5 1518,-1027.5 1682,-1027.5 1682,-937.5 1518,-937.5"/>
<text text-anchor="start" x="1526" y="-1015.5" font-family="Helvetica,sans-Serif" font-size="10.00" fill="#000000">variant&lt; o2::framework</text>
<text text-anchor="start" x="1526" y="-1004.5" font-family="Helvetica,sans-Serif" font-size="10.00" fill="#000000">::ConcreteDataMatcher,</text>
<text text-anchor="start" x="1526" y="-993.5" font-family="Helvetica,sans-Serif" font-size="10.00" fill="#000000"> o2::framework::data_matcher</text>
<text text-anchor="middle" x="1600" y="-982.5" font-family="Helvetica,sans-Serif" font-size="10.00" fill="#000000">::DataDescriptorMatcher &gt;</text>
<polyline fill="none" stroke="#bfbfbf" points="1518,-975.5 1682,-975.5 "/>
<text text-anchor="middle" x="1600" y="-963.5" font-family="Helvetica,sans-Serif" font-size="10.00" fill="#000000"> </text>
<polyline fill="none" stroke="#bfbfbf" points="1518,-956.5 1682,-956.5 "/>
<text text-anchor="middle" x="1600" y="-944.5" font-family="Helvetica,sans-Serif" font-size="10.00" fill="#000000"> </text>
</g>
<!-- Node16&#45;&gt;Node14 -->
<g id="edge17" class="edge">
<title>Node16&#45;&gt;Node14</title>
<path fill="none" stroke="#404040" d="M1609.9906,-937.3907C1612.4947,-926.0845 1615.237,-913.7027 1617.9282,-901.5514"/>
<polygon fill="none" stroke="#404040" points="1617.9968,-901.2414 1615.3889,-894.5184 1620.5917,-889.5254 1623.1996,-896.2484 1617.9968,-901.2414"/>
<text text-anchor="middle" x="1642" y="-911" font-family="Helvetica,sans-Serif" font-size="10.00" fill="#000000"> +matcher</text>
</g>
<!-- Node17 -->
<g id="node16" class="node">
<title>Node17</title>
<polygon fill="none" stroke="#bfbfbf" points="1684,-623 1684,-680 1800,-680 1800,-623 1684,-623"/>
<text text-anchor="middle" x="1742" y="-668" font-family="Helvetica,sans-Serif" font-size="10.00" fill="#000000">shared_ptr&lt; TH1F &gt;</text>
<polyline fill="none" stroke="#bfbfbf" points="1684,-661 1800,-661 "/>
<text text-anchor="middle" x="1742" y="-649" font-family="Helvetica,sans-Serif" font-size="10.00" fill="#000000"> </text>
<polyline fill="none" stroke="#bfbfbf" points="1684,-642 1800,-642 "/>
<text text-anchor="middle" x="1742" y="-630" font-family="Helvetica,sans-Serif" font-size="10.00" fill="#000000"> </text>
</g>
<!-- Node17&#45;&gt;Node9 -->
<g id="edge19" class="edge">
<title>Node17&#45;&gt;Node9</title>
<path fill="none" stroke="#404040" d="M1725.5525,-622.9512C1709.0468,-597.3089 1681.07,-561.1393 1646,-544 1542.5862,-493.4598 1490.2651,-570.8715 1380.6873,-525.8919"/>
<polygon fill="none" stroke="#404040" points="1380.5271,-525.8213 1373.4235,-527.062 1369.5461,-520.9821 1376.6497,-519.7414 1380.5271,-525.8213"/>
<text text-anchor="middle" x="1683" y="-547" font-family="Helvetica,sans-Serif" font-size="10.00" fill="#000000"> +object</text>
</g>
<!-- Node18&#45;&gt;Node9 -->
<g id="edge20" class="edge">
<title>Node18&#45;&gt;Node9</title>
<path fill="none" stroke="#ffa500" d="M1343.3846,-563.8983C1338.6759,-551.2514 1333.8397,-538.2616 1329.1604,-525.6937"/>
<polygon fill="#ffa500" stroke="#ffa500" points="1340.1864,-565.3396 1346.9557,-573.4899 1346.7465,-562.8972 1340.1864,-565.3396"/>
<text text-anchor="middle" x="1364.5" y="-547" font-family="Helvetica,sans-Serif" font-size="10.00" fill="#000000"> &lt; TH1F &gt;</text>
</g>
<!-- Node19 -->
<g id="node18" class="node">
<title>Node19</title>
<polygon fill="none" stroke="#bfbfbf" points="1318.5,-805 1318.5,-862 1415.5,-862 1415.5,-805 1318.5,-805"/>
<text text-anchor="middle" x="1367" y="-850" font-family="Helvetica,sans-Serif" font-size="10.00" fill="#000000">shared_ptr&lt; T &gt;</text>
<polyline fill="none" stroke="#bfbfbf" points="1318.5,-843 1415.5,-843 "/>
<text text-anchor="middle" x="1367" y="-831" font-family="Helvetica,sans-Serif" font-size="10.00" fill="#000000"> </text>
<polyline fill="none" stroke="#bfbfbf" points="1318.5,-824 1415.5,-824 "/>
<text text-anchor="middle" x="1367" y="-812" font-family="Helvetica,sans-Serif" font-size="10.00" fill="#000000"> </text>
</g>
<!-- Node19&#45;&gt;Node18 -->
<g id="edge24" class="edge">
<title>Node19&#45;&gt;Node18</title>
<path fill="none" stroke="#404040" d="M1366.8275,-804.9851C1366.8534,-788.3551 1367.1034,-766.9801 1368,-748 1368.0968,-745.9508 1368.2026,-743.8777 1368.3162,-741.7877"/>
<polygon fill="none" stroke="#404040" points="1368.3239,-741.6582 1364.692,-735.4285 1369.0456,-729.6799 1372.6775,-735.9096 1368.3239,-741.6582"/>
<text text-anchor="middle" x="1389" y="-751" font-family="Helvetica,sans-Serif" font-size="10.00" fill="#000000"> +object</text>
</g>
<!-- Node20&#45;&gt;Node2 -->
<g id="edge27" class="edge">
<title>Node20&#45;&gt;Node2</title>
<path fill="none" stroke="#404040" d="M820.8165,-407.9324C816.3444,-383.2937 809.9431,-348.0261 803.3044,-311.4504"/>
<polygon fill="none" stroke="#404040" points="803.2859,-311.3481 798.2786,-306.159 801.1427,-299.541 806.15,-304.7302 803.2859,-311.3481"/>
<text text-anchor="middle" x="835.5" y="-326.5" font-family="Helvetica,sans-Serif" font-size="10.00" fill="#000000"> +table_tre</text>
</g>
<!-- Node21&#45;&gt;Node2 -->
<g id="edge29" class="edge">
<title>Node21&#45;&gt;Node2</title>
<path fill="none" stroke="#404040" d="M958.616,-407.9324C924.1598,-359.7927 860.662,-271.0779 817.8816,-211.3083"/>
<polygon fill="none" stroke="#404040" points="817.659,-210.9972 810.9141,-208.4463 810.6746,-201.2391 817.4195,-203.79 817.659,-210.9972"/>
<text text-anchor="middle" x="933.5" y="-326.5" font-family="Helvetica,sans-Serif" font-size="10.00" fill="#000000"> +foobars</text>
</g>
<!-- Node22 -->
<g id="node21" class="node">
<title>Node22</title>
<polygon fill="none" stroke="#bfbfbf" points="1387.5,-413.5 1387.5,-470.5 1432.5,-470.5 1432.5,-413.5 1387.5,-413.5"/>
<text text-anchor="middle" x="1410" y="-458.5" font-family="Helvetica,sans-Serif" font-size="10.00" fill="#000000">size_t</text>
<polyline fill="none" stroke="#bfbfbf" points="1387.5,-451.5 1432.5,-451.5 "/>
<text text-anchor="middle" x="1410" y="-439.5" font-family="Helvetica,sans-Serif" font-size="10.00" fill="#000000"> </text>
<polyline fill="none" stroke="#bfbfbf" points="1387.5,-432.5 1432.5,-432.5 "/>
<text text-anchor="middle" x="1410" y="-420.5" font-family="Helvetica,sans-Serif" font-size="10.00" fill="#000000"> </text>
</g>
<!-- Node22&#45;&gt;Node2 -->
<g id="edge31" class="edge">
<title>Node22&#45;&gt;Node2</title>
<path fill="none" stroke="#404040" d="M1405.8262,-413.2751C1401.8045,-395.2291 1394.0042,-372.6718 1379,-358 1218.8341,-201.3821 935.5144,-162.4399 822.5099,-152.9657"/>
<polygon fill="none" stroke="#404040" points="822.4974,-152.9648 816.201,-156.4798 810.5346,-152.0198 816.831,-148.5047 822.4974,-152.9648"/>
<text text-anchor="middle" x="1372.5" y="-332" font-family="Helvetica,sans-Serif" font-size="10.00" fill="#000000"> +count</text>
<text text-anchor="middle" x="1372.5" y="-321" font-family="Helvetica,sans-Serif" font-size="10.00" fill="#000000">+cnt</text>
</g>
<!-- Node23&#45;&gt;Node2 -->
<g id="edge32" class="edge">
<title>Node23&#45;&gt;Node2</title>
<path fill="none" stroke="#404040" d="M1110.038,-407.8427C1095.918,-391.9866 1078.2826,-373.3048 1061,-358 981.8508,-287.909 879.6735,-218.2133 821.0263,-179.9515"/>
<polygon fill="none" stroke="#404040" points="820.662,-179.715 813.4514,-179.8023 810.5975,-173.18 817.8081,-173.0926 820.662,-179.715"/>
<text text-anchor="middle" x="1060.5" y="-326.5" font-family="Helvetica,sans-Serif" font-size="10.00" fill="#000000"> +etaphi</text>
</g>
</g>
</svg>
        <g id="navigator" transform="translate(0 0)" fill="#404254">
                <rect fill="#f2f5e9" fill-opacity="0.5" stroke="#606060" stroke-width=".5" x="0" y="0" width="60" height="60"/>
                <use id="zoomplus" xlink:href="#zoomPlus" x="17" y="9" onmousedown="handleZoom(evt,'in')"/>
                <use id="zoomminus" xlink:href="#zoomMin" x="42" y="9" onmousedown="handleZoom(evt,'out')"/>
                <use id="reset" xlink:href="#resetDef" x="30" y="36" onmousedown="handleReset()"/>
                <g id="arrowUp" xlink:href="#dirArrow" transform="translate(30 24)" onmousedown="handlePan(0,-1)">
                  <use xlink:href="#rim" fill="#404040">
                        <set attributeName="fill" to="#808080" begin="arrowUp.mouseover" end="arrowUp.mouseout"/>
                  </use>
                  <path fill="none" stroke="white" stroke-width="1.5" d="M0,-3.0v7 M-2.5,-0.5L0,-3.0L2.5,-0.5"/>
                </g>
                <g id="arrowRight" xlink:href="#dirArrow" transform="rotate(90) translate(36 -43)" onmousedown="handlePan(1,0)">
                  <use xlink:href="#rim" fill="#404040">
                        <set attributeName="fill" to="#808080" begin="arrowRight.mouseover" end="arrowRight.mouseout"/>
                  </use>
                  <path fill="none" stroke="white" stroke-width="1.5" d="M0,-3.0v7 M-2.5,-0.5L0,-3.0L2.5,-0.5"/>
                </g>
                <g id="arrowDown" xlink:href="#dirArrow" transform="rotate(180) translate(-30 -48)" onmousedown="handlePan(0,1)">
                  <use xlink:href="#rim" fill="#404040">
                        <set attributeName="fill" to="#808080" begin="arrowDown.mouseover" end="arrowDown.mouseout"/>
                  </use>
                  <path fill="none" stroke="white" stroke-width="1.5" d="M0,-3.0v7 M-2.5,-0.5L0,-3.0L2.5,-0.5"/>
                </g>
                <g id="arrowLeft" xlink:href="#dirArrow" transform="rotate(270) translate(-36 17)" onmousedown="handlePan(-1,0)">
                  <use xlink:href="#rim" fill="#404040">
                        <set attributeName="fill" to="#808080" begin="arrowLeft.mouseover" end="arrowLeft.mouseout"/>
                  </use>
                  <path fill="none" stroke="white" stroke-width="1.5" d="M0,-3.0v7 M-2.5,-0.5L0,-3.0L2.5,-0.5"/>
                </g>
        </g>
        <svg viewBox="0 0 15 15" width="100%" height="30px" preserveAspectRatio="xMaxYMin meet">
         <g id="arrow_out" transform="scale(0.3 0.3)">
          <a xlink:href="structATask__coll__graph_org.svg" target="_base">
           <rect id="button" ry="5" rx="5" y="6" x="6" height="38" width="38"
                fill="#f2f5e9" fill-opacity="0.5" stroke="#606060" stroke-width="1.0"/>
           <path id="arrow"
             d="M 11.500037,31.436501 C 11.940474,20.09759 22.043105,11.32322 32.158766,21.979434 L 37.068811,17.246167 C 37.068811,17.246167 37.088388,32 37.088388,32 L 22.160133,31.978069 C 22.160133,31.978069 26.997745,27.140456 26.997745,27.140456 C 18.528582,18.264221 13.291696,25.230495 11.500037,31.436501 z"
             style="fill:#404040;"/>
          </a>
         </g>
        </svg>
</svg>
