<?xml version="1.0" encoding="UTF-8" standalone="no"?>
<!DOCTYPE svg PUBLIC "-//W3C//DTD SVG 1.1//EN"
 "http://www.w3.org/Graphics/SVG/1.1/DTD/svg11.dtd">
<!-- Generated by graphviz version 2.40.1 (20161225.0304)
 -->
<!-- Title: /home/travis/build/AliceO2Group/AliceO2/GPU/TPCFastTransformation/devtools/SemiregularSpline2D3D.cxx Pages: 1 -->
<svg width="849pt" height="285pt"
 viewBox="0.00 0.00 849.00 285.00" xmlns="http://www.w3.org/2000/svg" xmlns:xlink="http://www.w3.org/1999/xlink">
<g id="graph0" class="graph" transform="scale(1 1) rotate(0) translate(4 281)">
<title>/home/travis/build/AliceO2Group/AliceO2/GPU/TPCFastTransformation/devtools/SemiregularSpline2D3D.cxx</title>
<!-- Node0 -->
<g id="node1" class="node">
<title>Node0</title>
<polygon fill="#bfbfbf" stroke="#000000" points="287.5,-224.5 287.5,-276.5 488.5,-276.5 488.5,-224.5 287.5,-224.5"/>
<text text-anchor="start" x="295.5" y="-264.5" font-family="Helvetica,sans-Serif" font-size="10.00" fill="#000000">/home/travis/build</text>
<text text-anchor="start" x="295.5" y="-253.5" font-family="Helvetica,sans-Serif" font-size="10.00" fill="#000000">/AliceO2Group/AliceO2</text>
<text text-anchor="start" x="295.5" y="-242.5" font-family="Helvetica,sans-Serif" font-size="10.00" fill="#000000">/GPU/TPCFastTransformation</text>
<text text-anchor="middle" x="388" y="-231.5" font-family="Helvetica,sans-Serif" font-size="10.00" fill="#000000">/devtools/SemiregularSpline2D3D.cxx</text>
</g>
<!-- Node1 -->
<g id="node2" class="node">
<title>Node1</title>
<g id="a_node2"><a xlink:href="../../d3/d05/SemiregularSpline2D3D_8h.html" target="_top" xlink:title="Definition of SemiregularSpline2D3D class. ">
<polygon fill="none" stroke="#000000" points="317,-168.5 317,-187.5 459,-187.5 459,-168.5 317,-168.5"/>
<text text-anchor="middle" x="388" y="-175.5" font-family="Helvetica,sans-Serif" font-size="10.00" fill="#000000">SemiregularSpline2D3D.h</text>
</a>
</g>
</g>
<!-- Node0&#45;&gt;Node1 -->
<g id="edge1" class="edge">
<title>Node0&#45;&gt;Node1</title>
<path fill="none" stroke="#191970" d="M388,-224.3258C388,-215.5142 388,-205.8397 388,-197.621"/>
<polygon fill="#191970" stroke="#191970" points="391.5001,-197.534 388,-187.534 384.5001,-197.534 391.5001,-197.534"/>
</g>
<!-- Node2 -->
<g id="node3" class="node">
<title>Node2</title>
<g id="a_node3"><a xlink:href="../../df/d21/GPUCommonDef_8h.html" target="_top" xlink:title="GPUCommonDef.h">
<polygon fill="none" stroke="#000000" points="97.5,-56.5 97.5,-75.5 204.5,-75.5 204.5,-56.5 97.5,-56.5"/>
<text text-anchor="middle" x="151" y="-63.5" font-family="Helvetica,sans-Serif" font-size="10.00" fill="#000000">GPUCommonDef.h</text>
</a>
</g>
</g>
<!-- Node1&#45;&gt;Node2 -->
<g id="edge2" class="edge">
<title>Node1&#45;&gt;Node2</title>
<path fill="none" stroke="#191970" d="M316.6323,-169.3911C282.4969,-162.8975 242.1655,-151.5934 210,-132 190.217,-119.9493 173.2777,-99.2112 162.6908,-84.1921"/>
<polygon fill="#191970" stroke="#191970" points="165.4537,-82.0297 156.9513,-75.7084 159.6559,-85.9522 165.4537,-82.0297"/>
</g>
<!-- Node5 -->
<g id="node6" class="node">
<title>Node5</title>
<g id="a_node6"><a xlink:href="../../d2/d57/RegularSpline1D_8h.html" target="_top" xlink:title="Definition of IrregularSpline1D class. ">
<polygon fill="none" stroke="#000000" points="219,-112.5 219,-131.5 325,-131.5 325,-112.5 219,-112.5"/>
<text text-anchor="middle" x="272" y="-119.5" font-family="Helvetica,sans-Serif" font-size="10.00" fill="#000000">RegularSpline1D.h</text>
</a>
</g>
</g>
<!-- Node1&#45;&gt;Node5 -->
<g id="edge5" class="edge">
<title>Node1&#45;&gt;Node5</title>
<path fill="none" stroke="#191970" d="M368.0589,-168.3733C349.5214,-159.4241 321.6972,-145.9917 300.7587,-135.8835"/>
<polygon fill="#191970" stroke="#191970" points="302.2081,-132.6967 291.6809,-131.5011 299.1648,-139.0006 302.2081,-132.6967"/>
</g>
<!-- Node6 -->
<g id="node7" class="node">
<title>Node6</title>
<g id="a_node7"><a xlink:href="../../db/dff/FlatObject_8h.html" target="_top" xlink:title="Definition of FlatObject class. ">
<polygon fill="none" stroke="#000000" points="350.5,-112.5 350.5,-131.5 425.5,-131.5 425.5,-112.5 350.5,-112.5"/>
<text text-anchor="middle" x="388" y="-119.5" font-family="Helvetica,sans-Serif" font-size="10.00" fill="#000000">FlatObject.h</text>
</a>
</g>
</g>
<!-- Node1&#45;&gt;Node6 -->
<g id="edge7" class="edge">
<title>Node1&#45;&gt;Node6</title>
<path fill="none" stroke="#191970" d="M388,-168.2455C388,-160.9382 388,-150.6944 388,-141.7046"/>
<polygon fill="#191970" stroke="#191970" points="391.5001,-141.6426 388,-131.6427 384.5001,-141.6427 391.5001,-141.6426"/>
</g>
<!-- Node17 -->
<g id="node18" class="node">
<title>Node17</title>
<polygon fill="none" stroke="#bfbfbf" points="443,-112.5 443,-131.5 487,-131.5 487,-112.5 443,-112.5"/>
<text text-anchor="middle" x="465" y="-119.5" font-family="Helvetica,sans-Serif" font-size="10.00" fill="#000000">Vc/Vc</text>
</g>
<!-- Node1&#45;&gt;Node17 -->
<g id="edge19" class="edge">
<title>Node1&#45;&gt;Node17</title>
<path fill="none" stroke="#191970" d="M401.4124,-168.2455C413.0057,-159.814 429.9748,-147.4729 443.4678,-137.6598"/>
<polygon fill="#191970" stroke="#191970" points="445.7126,-140.355 451.7413,-131.6427 441.5953,-134.6938 445.7126,-140.355"/>
</g>
<!-- Node18 -->
<g id="node19" class="node">
<title>Node18</title>
<polygon fill="none" stroke="#bfbfbf" points="505.5,-112.5 505.5,-131.5 588.5,-131.5 588.5,-112.5 505.5,-112.5"/>
<text text-anchor="middle" x="547" y="-119.5" font-family="Helvetica,sans-Serif" font-size="10.00" fill="#000000">Vc/SimdArray</text>
</g>
<!-- Node1&#45;&gt;Node18 -->
<g id="edge20" class="edge">
<title>Node1&#45;&gt;Node18</title>
<path fill="none" stroke="#191970" d="M415.3331,-168.3733C441.5434,-159.1419 481.2984,-145.1402 510.2668,-134.9375"/>
<polygon fill="#191970" stroke="#191970" points="511.7542,-138.1244 520.0236,-131.5011 509.4288,-131.5219 511.7542,-138.1244"/>
</g>
<!-- Node3 -->
<g id="node4" class="node">
<title>Node3</title>
<g id="a_node4"><a xlink:href="../../d5/d93/GPUCommonDefSettings_8h.html" target="_top" xlink:title="GPUCommonDefSettings.h">
<polygon fill="none" stroke="#000000" points="0,-.5 0,-19.5 148,-19.5 148,-.5 0,-.5"/>
<text text-anchor="middle" x="74" y="-7.5" font-family="Helvetica,sans-Serif" font-size="10.00" fill="#000000">GPUCommonDefSettings.h</text>
</a>
</g>
</g>
<!-- Node2&#45;&gt;Node3 -->
<g id="edge3" class="edge">
<title>Node2&#45;&gt;Node3</title>
<path fill="none" stroke="#191970" d="M137.5876,-56.2455C125.9943,-47.814 109.0252,-35.4729 95.5322,-25.6598"/>
<polygon fill="#191970" stroke="#191970" points="97.4047,-22.6938 87.2587,-19.6427 93.2874,-28.355 97.4047,-22.6938"/>
</g>
<!-- Node4 -->
<g id="node5" class="node">
<title>Node4</title>
<g id="a_node5"><a xlink:href="../../da/d5a/GPUCommonDefAPI_8h.html" target="_top" xlink:title="GPUCommonDefAPI.h">
<polygon fill="none" stroke="#000000" points="166,-.5 166,-19.5 290,-19.5 290,-.5 166,-.5"/>
<text text-anchor="middle" x="228" y="-7.5" font-family="Helvetica,sans-Serif" font-size="10.00" fill="#000000">GPUCommonDefAPI.h</text>
</a>
</g>
</g>
<!-- Node2&#45;&gt;Node4 -->
<g id="edge4" class="edge">
<title>Node2&#45;&gt;Node4</title>
<path fill="none" stroke="#191970" d="M164.4124,-56.2455C176.0057,-47.814 192.9748,-35.4729 206.4678,-25.6598"/>
<polygon fill="#191970" stroke="#191970" points="208.7126,-28.355 214.7413,-19.6427 204.5953,-22.6938 208.7126,-28.355"/>
</g>
<!-- Node5&#45;&gt;Node2 -->
<g id="edge6" class="edge">
<title>Node5&#45;&gt;Node2</title>
<path fill="none" stroke="#191970" d="M251.1994,-112.3733C231.7757,-103.3838 202.5776,-89.8706 180.7036,-79.7471"/>
<polygon fill="#191970" stroke="#191970" points="182.0745,-76.5249 171.5292,-75.5011 179.1344,-82.8776 182.0745,-76.5249"/>
</g>
<!-- Node6&#45;&gt;Node2 -->
<g id="edge13" class="edge">
<title>Node6&#45;&gt;Node2</title>
<path fill="none" stroke="#191970" d="M350.4466,-113.1266C310.16,-103.6074 245.9634,-88.4386 201.3258,-77.8913"/>
<polygon fill="#191970" stroke="#191970" points="202.0892,-74.4754 191.5523,-75.582 200.4795,-81.2878 202.0892,-74.4754"/>
</g>
<!-- Node7 -->
<g id="node8" class="node">
<title>Node7</title>
<polygon fill="none" stroke="#bfbfbf" points="222.5,-56.5 222.5,-75.5 275.5,-75.5 275.5,-56.5 222.5,-56.5"/>
<text text-anchor="middle" x="249" y="-63.5" font-family="Helvetica,sans-Serif" font-size="10.00" fill="#000000">cstddef</text>
</g>
<!-- Node6&#45;&gt;Node7 -->
<g id="edge8" class="edge">
<title>Node6&#45;&gt;Node7</title>
<path fill="none" stroke="#191970" d="M364.105,-112.3733C341.4918,-103.2629 307.3458,-89.5062 282.1127,-79.3404"/>
<polygon fill="#191970" stroke="#191970" points="283.1666,-75.9917 272.5831,-75.5011 280.5507,-82.4845 283.1666,-75.9917"/>
</g>
<!-- Node8 -->
<g id="node9" class="node">
<title>Node8</title>
<polygon fill="none" stroke="#bfbfbf" points="294,-56.5 294,-75.5 352,-75.5 352,-56.5 294,-56.5"/>
<text text-anchor="middle" x="323" y="-63.5" font-family="Helvetica,sans-Serif" font-size="10.00" fill="#000000">memory</text>
</g>
<!-- Node6&#45;&gt;Node8 -->
<g id="edge9" class="edge">
<title>Node6&#45;&gt;Node8</title>
<path fill="none" stroke="#191970" d="M376.6779,-112.2455C367.0777,-103.9746 353.1108,-91.9416 341.8305,-82.2232"/>
<polygon fill="#191970" stroke="#191970" points="344.053,-79.5182 334.1924,-75.6427 339.484,-84.8214 344.053,-79.5182"/>
</g>
<!-- Node9 -->
<g id="node10" class="node">
<title>Node9</title>
<polygon fill="none" stroke="#bfbfbf" points="370,-56.5 370,-75.5 420,-75.5 420,-56.5 370,-56.5"/>
<text text-anchor="middle" x="395" y="-63.5" font-family="Helvetica,sans-Serif" font-size="10.00" fill="#000000">cstring</text>
</g>
<!-- Node6&#45;&gt;Node9 -->
<g id="edge10" class="edge">
<title>Node6&#45;&gt;Node9</title>
<path fill="none" stroke="#191970" d="M389.2193,-112.2455C390.1327,-104.9382 391.4132,-94.6944 392.5369,-85.7046"/>
<polygon fill="#191970" stroke="#191970" points="396.0272,-85.9996 393.7947,-75.6427 389.0813,-85.1313 396.0272,-85.9996"/>
</g>
<!-- Node10 -->
<g id="node11" class="node">
<title>Node10</title>
<polygon fill="none" stroke="#bfbfbf" points="438,-56.5 438,-75.5 490,-75.5 490,-56.5 438,-56.5"/>
<text text-anchor="middle" x="464" y="-63.5" font-family="Helvetica,sans-Serif" font-size="10.00" fill="#000000">cassert</text>
</g>
<!-- Node6&#45;&gt;Node10 -->
<g id="edge11" class="edge">
<title>Node6&#45;&gt;Node10</title>
<path fill="none" stroke="#191970" d="M401.2382,-112.2455C412.681,-103.814 429.4296,-91.4729 442.7475,-81.6598"/>
<polygon fill="#191970" stroke="#191970" points="444.9391,-84.3924 450.9135,-75.6427 440.7867,-78.757 444.9391,-84.3924"/>
</g>
<!-- Node11 -->
<g id="node12" class="node">
<title>Node11</title>
<polygon fill="none" stroke="#bfbfbf" points="508,-56.5 508,-75.5 556,-75.5 556,-56.5 508,-56.5"/>
<text text-anchor="middle" x="532" y="-63.5" font-family="Helvetica,sans-Serif" font-size="10.00" fill="#000000">TFile.h</text>
</g>
<!-- Node6&#45;&gt;Node11 -->
<g id="edge12" class="edge">
<title>Node6&#45;&gt;Node11</title>
<path fill="none" stroke="#191970" d="M412.7545,-112.3733C436.2849,-103.2226 471.8687,-89.3844 498.0426,-79.2057"/>
<polygon fill="#191970" stroke="#191970" points="499.5171,-82.3877 507.5685,-75.5011 496.9799,-75.8636 499.5171,-82.3877"/>
</g>
<!-- Node12 -->
<g id="node13" class="node">
<title>Node12</title>
<g id="a_node13"><a xlink:href="../../d2/d45/GPUCommonRtypes_8h.html" target="_top" xlink:title="GPUCommonRtypes.h">
<polygon fill="none" stroke="#000000" points="574.5,-56.5 574.5,-75.5 699.5,-75.5 699.5,-56.5 574.5,-56.5"/>
<text text-anchor="middle" x="637" y="-63.5" font-family="Helvetica,sans-Serif" font-size="10.00" fill="#000000">GPUCommonRtypes.h</text>
</a>
</g>
</g>
<!-- Node6&#45;&gt;Node12 -->
<g id="edge14" class="edge">
<title>Node6&#45;&gt;Node12</title>
<path fill="none" stroke="#191970" d="M425.5474,-113.5556C467.9114,-104.028 537.1039,-88.4666 584.7333,-77.7548"/>
<polygon fill="#191970" stroke="#191970" points="585.5639,-81.1555 594.5522,-75.5465 584.0279,-74.326 585.5639,-81.1555"/>
</g>
<!-- Node14 -->
<g id="node15" class="node">
<title>Node14</title>
<g id="a_node15"><a xlink:href="../../df/d5b/GPUCommonLogger_8h.html" target="_top" xlink:title="GPUCommonLogger.h">
<polygon fill="none" stroke="#000000" points="717.5,-56.5 717.5,-75.5 840.5,-75.5 840.5,-56.5 717.5,-56.5"/>
<text text-anchor="middle" x="779" y="-63.5" font-family="Helvetica,sans-Serif" font-size="10.00" fill="#000000">GPUCommonLogger.h</text>
</a>
</g>
</g>
<!-- Node6&#45;&gt;Node14 -->
<g id="edge16" class="edge">
<title>Node6&#45;&gt;Node14</title>
<path fill="none" stroke="#191970" d="M425.6053,-113.5574C428.4407,-113.0029 431.2625,-112.4765 434,-112 551.8141,-91.4913 584.5852,-92.4951 707.2632,-76.08"/>
<polygon fill="#191970" stroke="#191970" points="707.9894,-79.5138 717.4313,-74.7073 707.0529,-72.5767 707.9894,-79.5138"/>
</g>
<!-- Node13 -->
<g id="node14" class="node">
<title>Node13</title>
<polygon fill="none" stroke="#bfbfbf" points="607.5,-.5 607.5,-19.5 666.5,-19.5 666.5,-.5 607.5,-.5"/>
<text text-anchor="middle" x="637" y="-7.5" font-family="Helvetica,sans-Serif" font-size="10.00" fill="#000000">Rtypes.h</text>
</g>
<!-- Node12&#45;&gt;Node13 -->
<g id="edge15" class="edge">
<title>Node12&#45;&gt;Node13</title>
<path fill="none" stroke="#191970" d="M637,-56.2455C637,-48.9382 637,-38.6944 637,-29.7046"/>
<polygon fill="#191970" stroke="#191970" points="640.5001,-29.6426 637,-19.6427 633.5001,-29.6427 640.5001,-29.6426"/>
</g>
<!-- Node15 -->
<g id="node16" class="node">
<title>Node15</title>
<polygon fill="none" stroke="#bfbfbf" points="717,-.5 717,-19.5 777,-19.5 777,-.5 717,-.5"/>
<text text-anchor="middle" x="747" y="-7.5" font-family="Helvetica,sans-Serif" font-size="10.00" fill="#000000">iostream</text>
</g>
<!-- Node14&#45;&gt;Node15 -->
<g id="edge17" class="edge">
<title>Node14&#45;&gt;Node15</title>
<path fill="none" stroke="#191970" d="M773.426,-56.2455C769.0669,-48.617 762.8789,-37.7881 757.5867,-28.5267"/>
<polygon fill="#191970" stroke="#191970" points="760.5104,-26.5886 752.5101,-19.6427 754.4327,-30.0616 760.5104,-26.5886"/>
</g>
<!-- Node16 -->
<g id="node17" class="node">
<title>Node16</title>
<polygon fill="none" stroke="#bfbfbf" points="795,-.5 795,-19.5 841,-19.5 841,-.5 795,-.5"/>
<text text-anchor="middle" x="818" y="-7.5" font-family="Helvetica,sans-Serif" font-size="10.00" fill="#000000">cstdio</text>
</g>
<!-- Node14&#45;&gt;Node16 -->
<g id="edge18" class="edge">
<title>Node14&#45;&gt;Node16</title>
<path fill="none" stroke="#191970" d="M785.7933,-56.2455C791.2178,-48.4564 798.9661,-37.3308 805.5033,-27.9439"/>
<polygon fill="#191970" stroke="#191970" points="808.4417,-29.849 811.2846,-19.6427 802.6975,-25.8485 808.4417,-29.849"/>
</g>
</g>
</svg>
