<?xml version="1.0" encoding="UTF-8" standalone="no"?>
<!DOCTYPE svg PUBLIC "-//W3C//DTD SVG 1.1//EN"
 "http://www.w3.org/Graphics/SVG/1.1/DTD/svg11.dtd">
<!-- Generated by graphviz version 2.40.1 (20161225.0304)
 -->
<!-- Title: /home/travis/build/AliceO2Group/AliceO2/Framework/Core/src/AnalysisHelpers.cxx Pages: 1 -->
<svg width="2503pt" height="341pt"
 viewBox="0.00 0.00 2503.00 341.00" xmlns="http://www.w3.org/2000/svg" xmlns:xlink="http://www.w3.org/1999/xlink">
<g id="graph0" class="graph" transform="scale(1 1) rotate(0) translate(4 337)">
<title>/home/travis/build/AliceO2Group/AliceO2/Framework/Core/src/AnalysisHelpers.cxx</title>
<!-- Node0 -->
<g id="node1" class="node">
<title>Node0</title>
<polygon fill="#bfbfbf" stroke="#000000" points="310,-280.5 310,-332.5 471,-332.5 471,-280.5 310,-280.5"/>
<text text-anchor="start" x="318" y="-320.5" font-family="Helvetica,sans-Serif" font-size="10.00" fill="#000000">/home/travis/build</text>
<text text-anchor="start" x="318" y="-309.5" font-family="Helvetica,sans-Serif" font-size="10.00" fill="#000000">/AliceO2Group/AliceO2</text>
<text text-anchor="start" x="318" y="-298.5" font-family="Helvetica,sans-Serif" font-size="10.00" fill="#000000">/Framework/Core/src/Analysis</text>
<text text-anchor="middle" x="390.5" y="-287.5" font-family="Helvetica,sans-Serif" font-size="10.00" fill="#000000">Helpers.cxx</text>
</g>
<!-- Node1 -->
<g id="node2" class="node">
<title>Node1</title>
<g id="a_node2"><a xlink:href="../../db/d34/AnalysisHelpers_8h.html" target="_top" xlink:title="Framework/AnalysisHelpers.h">
<polygon fill="none" stroke="#000000" points="214,-224.5 214,-243.5 375,-243.5 375,-224.5 214,-224.5"/>
<text text-anchor="middle" x="294.5" y="-231.5" font-family="Helvetica,sans-Serif" font-size="10.00" fill="#000000">Framework/AnalysisHelpers.h</text>
</a>
</g>
</g>
<!-- Node0&#45;&gt;Node1 -->
<g id="edge1" class="edge">
<title>Node0&#45;&gt;Node1</title>
<path fill="none" stroke="#191970" d="M355.8418,-280.3258C342.3177,-270.1123 327.2586,-258.7396 315.4457,-249.8184"/>
<polygon fill="#191970" stroke="#191970" points="317.2137,-246.7676 307.1243,-243.534 312.995,-252.3536 317.2137,-246.7676"/>
</g>
<!-- Node2 -->
<g id="node3" class="node">
<title>Node2</title>
<polygon fill="none" stroke="#bfbfbf" points="121.5,-168.5 121.5,-187.5 249.5,-187.5 249.5,-168.5 121.5,-168.5"/>
<text text-anchor="middle" x="185.5" y="-175.5" font-family="Helvetica,sans-Serif" font-size="10.00" fill="#000000">ROOT/RDataFrame.hxx</text>
</g>
<!-- Node0&#45;&gt;Node2 -->
<g id="edge72" class="edge">
<title>Node0&#45;&gt;Node2</title>
<path fill="none" stroke="#191970" d="M309.8068,-287.3364C266.8031,-275.62 219.6924,-259.874 204.5,-244 192.6745,-231.644 188.1359,-212.4142 186.4309,-197.8925"/>
<polygon fill="#191970" stroke="#191970" points="189.9167,-197.5752 185.6057,-187.8972 182.9404,-198.1513 189.9167,-197.5752"/>
</g>
<!-- Node4 -->
<g id="node5" class="node">
<title>Node4</title>
<g id="a_node5"><a xlink:href="../../de/d35/RCombinedDS_8h.html" target="_top" xlink:title="Framework/RCombinedDS.h">
<polygon fill="none" stroke="#000000" points="411.5,-224.5 411.5,-243.5 563.5,-243.5 563.5,-224.5 411.5,-224.5"/>
<text text-anchor="middle" x="487.5" y="-231.5" font-family="Helvetica,sans-Serif" font-size="10.00" fill="#000000">Framework/RCombinedDS.h</text>
</a>
</g>
</g>
<!-- Node0&#45;&gt;Node4 -->
<g id="edge5" class="edge">
<title>Node0&#45;&gt;Node4</title>
<path fill="none" stroke="#191970" d="M425.5192,-280.3258C439.3182,-270.0122 454.6987,-258.5165 466.6862,-249.5567"/>
<polygon fill="#191970" stroke="#191970" points="468.8296,-252.3243 474.7442,-243.534 464.6389,-246.7174 468.8296,-252.3243"/>
</g>
<!-- Node8 -->
<g id="node9" class="node">
<title>Node8</title>
<g id="a_node9"><a xlink:href="../../d5/d98/TableBuilder_8h.html" target="_top" xlink:title="Framework/TableBuilder.h">
<polygon fill="none" stroke="#000000" points="1111.5,-224.5 1111.5,-243.5 1253.5,-243.5 1253.5,-224.5 1111.5,-224.5"/>
<text text-anchor="middle" x="1182.5" y="-231.5" font-family="Helvetica,sans-Serif" font-size="10.00" fill="#000000">Framework/TableBuilder.h</text>
</a>
</g>
</g>
<!-- Node0&#45;&gt;Node8 -->
<g id="edge11" class="edge">
<title>Node0&#45;&gt;Node8</title>
<path fill="none" stroke="#191970" d="M471.1675,-299.1157C622.8222,-285.2331 948.8389,-255.3894 1101.0734,-241.4538"/>
<polygon fill="#191970" stroke="#191970" points="1101.6483,-244.9159 1111.2876,-240.5188 1101.0101,-237.9451 1101.6483,-244.9159"/>
</g>
<!-- Node44 -->
<g id="node45" class="node">
<title>Node44</title>
<g id="a_node45"><a xlink:href="../../dc/d03/TableConsumer_8h.html" target="_top" xlink:title="Framework/TableConsumer.h">
<polygon fill="none" stroke="#000000" points="0,-224.5 0,-243.5 157,-243.5 157,-224.5 0,-224.5"/>
<text text-anchor="middle" x="78.5" y="-231.5" font-family="Helvetica,sans-Serif" font-size="10.00" fill="#000000">Framework/TableConsumer.h</text>
</a>
</g>
</g>
<!-- Node0&#45;&gt;Node44 -->
<g id="edge70" class="edge">
<title>Node0&#45;&gt;Node44</title>
<path fill="none" stroke="#191970" d="M309.7465,-287.7352C252.9399,-274.5349 178.6286,-257.2671 129.7759,-245.9151"/>
<polygon fill="#191970" stroke="#191970" points="130.2859,-242.4404 119.7532,-243.5861 128.7015,-249.2587 130.2859,-242.4404"/>
</g>
<!-- Node45 -->
<g id="node46" class="node">
<title>Node45</title>
<polygon fill="none" stroke="#bfbfbf" points="1271.5,-224.5 1271.5,-243.5 1387.5,-243.5 1387.5,-224.5 1271.5,-224.5"/>
<text text-anchor="middle" x="1329.5" y="-231.5" font-family="Helvetica,sans-Serif" font-size="10.00" fill="#000000">ROOT/RArrowDS.hxx</text>
</g>
<!-- Node0&#45;&gt;Node45 -->
<g id="edge73" class="edge">
<title>Node0&#45;&gt;Node45</title>
<path fill="none" stroke="#191970" d="M471.2346,-302.7839C623.6404,-295.3154 964.3267,-276.462 1261.3279,-244.0546"/>
<polygon fill="#191970" stroke="#191970" points="1261.8726,-247.5159 1271.4307,-242.9451 1261.1084,-240.5578 1261.8726,-247.5159"/>
</g>
<!-- Node1&#45;&gt;Node1 -->
<g id="edge2" class="edge">
<title>Node1&#45;&gt;Node1</title>
<path fill="none" stroke="#191970" d="M336.254,-243.5001C364.8878,-246.3269 393,-243.1602 393,-234 393,-225.9133 371.0905,-222.4977 346.2547,-223.7531"/>
<polygon fill="#191970" stroke="#191970" points="345.9655,-220.2648 336.254,-224.4999 346.4869,-227.2454 345.9655,-220.2648"/>
</g>
<!-- Node1&#45;&gt;Node2 -->
<g id="edge3" class="edge">
<title>Node1&#45;&gt;Node2</title>
<path fill="none" stroke="#191970" d="M275.5136,-224.2455C258.3208,-215.4125 232.7762,-202.2887 213.2868,-192.2758"/>
<polygon fill="#191970" stroke="#191970" points="214.763,-189.0993 204.2688,-187.6427 211.5641,-195.3257 214.763,-189.0993"/>
</g>
<!-- Node3 -->
<g id="node4" class="node">
<title>Node3</title>
<polygon fill="none" stroke="#bfbfbf" points="481.5,-56.5 481.5,-75.5 525.5,-75.5 525.5,-56.5 481.5,-56.5"/>
<text text-anchor="middle" x="503.5" y="-63.5" font-family="Helvetica,sans-Serif" font-size="10.00" fill="#000000">string</text>
</g>
<!-- Node1&#45;&gt;Node3 -->
<g id="edge4" class="edge">
<title>Node1&#45;&gt;Node3</title>
<path fill="none" stroke="#191970" d="M298.6763,-224.0448C304.8757,-210.1754 317.6205,-184.8485 334.5,-168 375.3566,-127.2184 435.6164,-95.9432 472.0557,-79.3209"/>
<polygon fill="#191970" stroke="#191970" points="473.5243,-82.4982 481.223,-75.2194 470.6655,-76.1085 473.5243,-82.4982"/>
</g>
<!-- Node4&#45;&gt;Node2 -->
<g id="edge6" class="edge">
<title>Node4&#45;&gt;Node2</title>
<path fill="none" stroke="#191970" d="M435.9275,-224.4369C383.591,-214.7321 302.568,-199.708 246.9388,-189.3926"/>
<polygon fill="#191970" stroke="#191970" points="247.3303,-185.9056 236.8598,-187.5237 246.054,-192.7883 247.3303,-185.9056"/>
</g>
<!-- Node4&#45;&gt;Node3 -->
<g id="edge9" class="edge">
<title>Node4&#45;&gt;Node3</title>
<path fill="none" stroke="#191970" d="M488.4061,-224.4862C490.9353,-197.9293 498.1128,-122.5651 501.5795,-86.1655"/>
<polygon fill="#191970" stroke="#191970" points="505.1001,-86.1147 502.564,-75.8279 498.1316,-85.451 505.1001,-86.1147"/>
</g>
<!-- Node5 -->
<g id="node6" class="node">
<title>Node5</title>
<polygon fill="none" stroke="#bfbfbf" points="344,-168.5 344,-187.5 475,-187.5 475,-168.5 344,-168.5"/>
<text text-anchor="middle" x="409.5" y="-175.5" font-family="Helvetica,sans-Serif" font-size="10.00" fill="#000000">ROOT/RDataSource.hxx</text>
</g>
<!-- Node4&#45;&gt;Node5 -->
<g id="edge7" class="edge">
<title>Node4&#45;&gt;Node5</title>
<path fill="none" stroke="#191970" d="M473.9134,-224.2455C462.1695,-215.814 444.9801,-203.4729 431.3118,-193.6598"/>
<polygon fill="#191970" stroke="#191970" points="433.0954,-190.6316 422.9309,-187.6427 429.0129,-196.3179 433.0954,-190.6316"/>
</g>
<!-- Node6 -->
<g id="node7" class="node">
<title>Node6</title>
<polygon fill="none" stroke="#bfbfbf" points="346.5,-56.5 346.5,-75.5 404.5,-75.5 404.5,-56.5 346.5,-56.5"/>
<text text-anchor="middle" x="375.5" y="-63.5" font-family="Helvetica,sans-Serif" font-size="10.00" fill="#000000">memory</text>
</g>
<!-- Node4&#45;&gt;Node6 -->
<g id="edge8" class="edge">
<title>Node4&#45;&gt;Node6</title>
<path fill="none" stroke="#191970" d="M432.1116,-224.4924C393.3369,-216.5774 346.4163,-204.0259 334.5,-188 310.6468,-155.9204 340.1575,-109.0945 360.0949,-83.8007"/>
<polygon fill="#191970" stroke="#191970" points="363.0113,-85.7639 366.6446,-75.8115 357.598,-81.3259 363.0113,-85.7639"/>
</g>
<!-- Node7 -->
<g id="node8" class="node">
<title>Node7</title>
<polygon fill="none" stroke="#bfbfbf" points="532,-168.5 532,-187.5 579,-187.5 579,-168.5 532,-168.5"/>
<text text-anchor="middle" x="555.5" y="-175.5" font-family="Helvetica,sans-Serif" font-size="10.00" fill="#000000">vector</text>
</g>
<!-- Node4&#45;&gt;Node7 -->
<g id="edge10" class="edge">
<title>Node4&#45;&gt;Node7</title>
<path fill="none" stroke="#191970" d="M499.3447,-224.2455C509.388,-215.9746 523.9995,-203.9416 535.8004,-194.2232"/>
<polygon fill="#191970" stroke="#191970" points="538.2967,-196.7015 543.791,-187.6427 533.8467,-191.298 538.2967,-196.7015"/>
</g>
<!-- Node8&#45;&gt;Node3 -->
<g id="edge67" class="edge">
<title>Node8&#45;&gt;Node3</title>
<path fill="none" stroke="#191970" d="M1111.2497,-226.4939C1007.7095,-214.2183 810.5519,-185.661 650.5,-132 630.1332,-125.1716 626.0848,-120.8243 606.5,-112 582.2995,-101.0961 554.8532,-88.8441 534.3814,-79.7279"/>
<polygon fill="#191970" stroke="#191970" points="535.7795,-76.5192 525.2203,-75.6505 532.9331,-82.9144 535.7795,-76.5192"/>
</g>
<!-- Node8&#45;&gt;Node6 -->
<g id="edge68" class="edge">
<title>Node8&#45;&gt;Node6</title>
<path fill="none" stroke="#191970" d="M1111.4611,-229.8067C1030.2891,-224.1178 893.7794,-211.8086 778.5,-188 639.9843,-159.3924 480.6423,-104.3378 411.0795,-79.1549"/>
<polygon fill="#191970" stroke="#191970" points="412.0748,-75.7926 401.4807,-75.6628 409.6816,-82.3708 412.0748,-75.7926"/>
</g>
<!-- Node8&#45;&gt;Node7 -->
<g id="edge66" class="edge">
<title>Node8&#45;&gt;Node7</title>
<path fill="none" stroke="#191970" d="M1111.2787,-232.5515C1000.0271,-229.3668 778.569,-219.3174 593.5,-188 592.0286,-187.751 590.5313,-187.4716 589.0231,-187.1687"/>
<polygon fill="#191970" stroke="#191970" points="589.6011,-183.7108 579.0737,-184.9041 588.0475,-190.5362 589.6011,-183.7108"/>
</g>
<!-- Node9 -->
<g id="node10" class="node">
<title>Node9</title>
<g id="a_node10"><a xlink:href="../../de/d33/ASoA_8h.html" target="_top" xlink:title="Framework/ASoA.h">
<polygon fill="none" stroke="#000000" points="1304.5,-168.5 1304.5,-187.5 1412.5,-187.5 1412.5,-168.5 1304.5,-168.5"/>
<text text-anchor="middle" x="1358.5" y="-175.5" font-family="Helvetica,sans-Serif" font-size="10.00" fill="#000000">Framework/ASoA.h</text>
</a>
</g>
</g>
<!-- Node8&#45;&gt;Node9 -->
<g id="edge12" class="edge">
<title>Node8&#45;&gt;Node9</title>
<path fill="none" stroke="#191970" d="M1212.7555,-224.3733C1242.1483,-215.021 1286.9292,-200.7725 1319.0934,-190.5385"/>
<polygon fill="#191970" stroke="#191970" points="1320.1713,-193.8685 1328.6393,-187.5011 1318.0488,-187.198 1320.1713,-193.8685"/>
</g>
<!-- Node15 -->
<g id="node16" class="node">
<title>Node15</title>
<g id="a_node16"><a xlink:href="../../de/d9b/FunctionalHelpers_8h.html" target="_top" xlink:title="Framework/FunctionalHelpers.h">
<polygon fill="none" stroke="#000000" points="1780.5,-112.5 1780.5,-131.5 1950.5,-131.5 1950.5,-112.5 1780.5,-112.5"/>
<text text-anchor="middle" x="1865.5" y="-119.5" font-family="Helvetica,sans-Serif" font-size="10.00" fill="#000000">Framework/FunctionalHelpers.h</text>
</a>
</g>
</g>
<!-- Node8&#45;&gt;Node15 -->
<g id="edge57" class="edge">
<title>Node8&#45;&gt;Node15</title>
<path fill="none" stroke="#191970" d="M1240.4376,-224.4993C1366.0067,-203.9081 1662.7361,-155.2497 1797.1795,-133.2034"/>
<polygon fill="#191970" stroke="#191970" points="1798.0489,-136.6076 1807.3507,-131.5355 1796.9161,-129.6999 1798.0489,-136.6076"/>
</g>
<!-- Node16 -->
<g id="node17" class="node">
<title>Node16</title>
<polygon fill="none" stroke="#bfbfbf" points="2343,-56.5 2343,-75.5 2408,-75.5 2408,-56.5 2343,-56.5"/>
<text text-anchor="middle" x="2375.5" y="-63.5" font-family="Helvetica,sans-Serif" font-size="10.00" fill="#000000">functional</text>
</g>
<!-- Node8&#45;&gt;Node16 -->
<g id="edge65" class="edge">
<title>Node8&#45;&gt;Node16</title>
<path fill="none" stroke="#191970" d="M1253.566,-224.7799C1256.5822,-224.4951 1259.5699,-224.233 1262.5,-224 1378.5357,-214.7717 2204.3426,-237.9137 2309.5,-188 2339.3768,-173.8188 2343.0682,-161.2504 2358.5,-132 2366.0916,-117.6103 2370.4324,-99.6382 2372.8245,-86.0832"/>
<polygon fill="#191970" stroke="#191970" points="2376.328,-86.3302 2374.404,-75.9115 2369.4109,-85.256 2376.328,-86.3302"/>
</g>
<!-- Node23 -->
<g id="node24" class="node">
<title>Node23</title>
<polygon fill="none" stroke="#bfbfbf" points="1208,-56.5 1208,-75.5 1289,-75.5 1289,-56.5 1208,-56.5"/>
<text text-anchor="middle" x="1248.5" y="-63.5" font-family="Helvetica,sans-Serif" font-size="10.00" fill="#000000">arrow/table.h</text>
</g>
<!-- Node8&#45;&gt;Node23 -->
<g id="edge63" class="edge">
<title>Node8&#45;&gt;Node23</title>
<path fill="none" stroke="#191970" d="M1253.5805,-224.9432C1320.0684,-215.7427 1410.7371,-201.032 1421.5,-188 1438.2898,-167.6705 1417.4256,-128.5687 1399.5,-112 1384.6747,-98.2969 1336.8987,-85.1302 1299.0104,-76.4214"/>
<polygon fill="#191970" stroke="#191970" points="1299.6449,-72.9768 1289.1205,-74.1963 1298.1083,-79.806 1299.6449,-72.9768"/>
</g>
<!-- Node37 -->
<g id="node38" class="node">
<title>Node37</title>
<g id="a_node38"><a xlink:href="../../db/d4f/StructToTuple_8h.html" target="_top" xlink:title="Framework/StructToTuple.h">
<polygon fill="none" stroke="#000000" points="2130,-168.5 2130,-187.5 2277,-187.5 2277,-168.5 2130,-168.5"/>
<text text-anchor="middle" x="2203.5" y="-175.5" font-family="Helvetica,sans-Serif" font-size="10.00" fill="#000000">Framework/StructToTuple.h</text>
</a>
</g>
</g>
<!-- Node8&#45;&gt;Node37 -->
<g id="edge53" class="edge">
<title>Node8&#45;&gt;Node37</title>
<path fill="none" stroke="#191970" d="M1253.5705,-224.8335C1256.5854,-224.534 1259.5717,-224.2542 1262.5,-224 1427.6706,-209.6603 1921.345,-189.1852 2119.6638,-181.2842"/>
<polygon fill="#191970" stroke="#191970" points="2119.8841,-184.7783 2129.7371,-180.8836 2119.6059,-177.7839 2119.8841,-184.7783"/>
</g>
<!-- Node38 -->
<g id="node39" class="node">
<title>Node38</title>
<polygon fill="none" stroke="#bfbfbf" points="2308,-112.5 2308,-131.5 2349,-131.5 2349,-112.5 2308,-112.5"/>
<text text-anchor="middle" x="2328.5" y="-119.5" font-family="Helvetica,sans-Serif" font-size="10.00" fill="#000000">tuple</text>
</g>
<!-- Node8&#45;&gt;Node38 -->
<g id="edge69" class="edge">
<title>Node8&#45;&gt;Node38</title>
<path fill="none" stroke="#191970" d="M1253.5662,-224.7828C1256.5823,-224.4972 1259.57,-224.2342 1262.5,-224 1375.9862,-214.9304 2187.6781,-244.5298 2286.5,-188 2304.1247,-177.918 2315.4879,-157.103 2321.8921,-141.5291"/>
<polygon fill="#191970" stroke="#191970" points="2325.3137,-142.3731 2325.5496,-131.7808 2318.7598,-139.9141 2325.3137,-142.3731"/>
</g>
<!-- Node39 -->
<g id="node40" class="node">
<title>Node39</title>
<g id="a_node40"><a xlink:href="../../d7/dbe/VariantHelpers_8h.html" target="_top" xlink:title="Framework/VariantHelpers.h">
<polygon fill="none" stroke="#000000" points="1969,-112.5 1969,-131.5 2124,-131.5 2124,-112.5 1969,-112.5"/>
<text text-anchor="middle" x="2046.5" y="-119.5" font-family="Helvetica,sans-Serif" font-size="10.00" fill="#000000">Framework/VariantHelpers.h</text>
</a>
</g>
</g>
<!-- Node8&#45;&gt;Node39 -->
<g id="edge58" class="edge">
<title>Node8&#45;&gt;Node39</title>
<path fill="none" stroke="#191970" d="M1253.559,-224.7942C1325.2265,-215.5091 1439.0435,-200.7621 1537.5,-188 1687.4374,-168.5648 1862.2177,-145.8996 1963.0448,-132.8236"/>
<polygon fill="#191970" stroke="#191970" points="1963.7006,-136.2679 1973.1674,-131.5108 1962.8003,-129.326 1963.7006,-136.2679"/>
</g>
<!-- Node40 -->
<g id="node41" class="node">
<title>Node40</title>
<polygon fill="none" stroke="#bfbfbf" points="909.5,-168.5 909.5,-187.5 965.5,-187.5 965.5,-168.5 909.5,-168.5"/>
<text text-anchor="middle" x="937.5" y="-175.5" font-family="Helvetica,sans-Serif" font-size="10.00" fill="#000000">sstream</text>
</g>
<!-- Node8&#45;&gt;Node40 -->
<g id="edge60" class="edge">
<title>Node8&#45;&gt;Node40</title>
<path fill="none" stroke="#191970" d="M1136.505,-224.467C1096.4078,-216.0128 1036.4618,-203.0292 975.5314,-188.1779"/>
<polygon fill="#191970" stroke="#191970" points="976.2927,-184.761 965.7469,-185.7788 974.6257,-191.5596 976.2927,-184.761"/>
</g>
<!-- Node41 -->
<g id="node42" class="node">
<title>Node41</title>
<polygon fill="none" stroke="#bfbfbf" points="983.5,-168.5 983.5,-187.5 1051.5,-187.5 1051.5,-168.5 983.5,-168.5"/>
<text text-anchor="middle" x="1017.5" y="-175.5" font-family="Helvetica,sans-Serif" font-size="10.00" fill="#000000">arrow/stl.h</text>
</g>
<!-- Node8&#45;&gt;Node41 -->
<g id="edge61" class="edge">
<title>Node8&#45;&gt;Node41</title>
<path fill="none" stroke="#191970" d="M1154.1355,-224.3733C1126.8173,-215.1016 1085.3204,-201.0178 1055.2262,-190.804"/>
<polygon fill="#191970" stroke="#191970" points="1056.0887,-187.4008 1045.4944,-187.5011 1053.839,-194.0294 1056.0887,-187.4008"/>
</g>
<!-- Node42 -->
<g id="node43" class="node">
<title>Node42</title>
<polygon fill="none" stroke="#bfbfbf" points="1070,-168.5 1070,-187.5 1179,-187.5 1179,-168.5 1070,-168.5"/>
<text text-anchor="middle" x="1124.5" y="-175.5" font-family="Helvetica,sans-Serif" font-size="10.00" fill="#000000">arrow/type_traits.h</text>
</g>
<!-- Node8&#45;&gt;Node42 -->
<g id="edge62" class="edge">
<title>Node8&#45;&gt;Node42</title>
<path fill="none" stroke="#191970" d="M1172.3972,-224.2455C1163.9972,-216.1352 1151.8506,-204.4075 1141.8916,-194.7919"/>
<polygon fill="#191970" stroke="#191970" points="1144.1122,-192.0707 1134.4871,-187.6427 1139.25,-197.1066 1144.1122,-192.0707"/>
</g>
<!-- Node43 -->
<g id="node44" class="node">
<title>Node43</title>
<polygon fill="none" stroke="#bfbfbf" points="1197,-168.5 1197,-187.5 1286,-187.5 1286,-168.5 1197,-168.5"/>
<text text-anchor="middle" x="1241.5" y="-175.5" font-family="Helvetica,sans-Serif" font-size="10.00" fill="#000000">arrow/builder.h</text>
</g>
<!-- Node8&#45;&gt;Node43 -->
<g id="edge64" class="edge">
<title>Node8&#45;&gt;Node43</title>
<path fill="none" stroke="#191970" d="M1192.777,-224.2455C1201.3218,-216.1352 1213.6778,-204.4075 1223.8085,-194.7919"/>
<polygon fill="#191970" stroke="#191970" points="1226.4972,-197.0655 1231.3408,-187.6427 1221.6782,-191.9884 1226.4972,-197.0655"/>
</g>
<!-- Node10 -->
<g id="node11" class="node">
<title>Node10</title>
<g id="a_node11"><a xlink:href="../../dd/dce/Pack_8h.html" target="_top" xlink:title="Framework/Pack.h">
<polygon fill="none" stroke="#000000" points="2037,-56.5 2037,-75.5 2142,-75.5 2142,-56.5 2037,-56.5"/>
<text text-anchor="middle" x="2089.5" y="-63.5" font-family="Helvetica,sans-Serif" font-size="10.00" fill="#000000">Framework/Pack.h</text>
</a>
</g>
</g>
<!-- Node9&#45;&gt;Node10 -->
<g id="edge13" class="edge">
<title>Node9&#45;&gt;Node10</title>
<path fill="none" stroke="#191970" d="M1412.7247,-172.2758C1493.1949,-163.4809 1640.2419,-146.1748 1691.5,-132 1713.3803,-125.9493 1716.5798,-117.9046 1738.5,-112 1860.3088,-79.1883 1897.4846,-93.529 2026.4824,-76.0704"/>
<polygon fill="#191970" stroke="#191970" points="2027.3329,-79.4858 2036.7545,-74.6397 2026.3672,-72.5527 2027.3329,-79.4858"/>
</g>
<!-- Node14 -->
<g id="node15" class="node">
<title>Node14</title>
<g id="a_node15"><a xlink:href="../../d1/d00/CheckTypes_8h.html" target="_top" xlink:title="Framework/CheckTypes.h">
<polygon fill="none" stroke="#000000" points="1878.5,-56.5 1878.5,-75.5 2018.5,-75.5 2018.5,-56.5 1878.5,-56.5"/>
<text text-anchor="middle" x="1948.5" y="-63.5" font-family="Helvetica,sans-Serif" font-size="10.00" fill="#000000">Framework/CheckTypes.h</text>
</a>
</g>
</g>
<!-- Node9&#45;&gt;Node14 -->
<g id="edge17" class="edge">
<title>Node9&#45;&gt;Node14</title>
<path fill="none" stroke="#191970" d="M1412.6007,-173.7771C1472.6421,-168.1314 1571.9587,-155.9274 1654.5,-132 1675.9117,-125.7931 1679.1813,-118.5191 1700.5,-112 1732.9778,-102.0685 1817.1474,-87.2841 1878.4433,-77.1739"/>
<polygon fill="#191970" stroke="#191970" points="1879.1538,-80.6042 1888.4548,-75.5305 1878.0199,-73.6967 1879.1538,-80.6042"/>
</g>
<!-- Node9&#45;&gt;Node15 -->
<g id="edge18" class="edge">
<title>Node9&#45;&gt;Node15</title>
<path fill="none" stroke="#191970" d="M1412.7579,-172.007C1498.0115,-162.5904 1664.4834,-144.203 1770.0712,-132.5405"/>
<polygon fill="#191970" stroke="#191970" points="1770.5392,-136.0101 1780.0945,-131.4333 1769.7707,-129.0525 1770.5392,-136.0101"/>
</g>
<!-- Node17 -->
<g id="node18" class="node">
<title>Node17</title>
<g id="a_node18"><a xlink:href="../../d9/de8/CompilerBuiltins_8h.html" target="_top" xlink:title="Framework/CompilerBuiltins.h">
<polygon fill="none" stroke="#000000" points="2160.5,-56.5 2160.5,-75.5 2324.5,-75.5 2324.5,-56.5 2160.5,-56.5"/>
<text text-anchor="middle" x="2242.5" y="-63.5" font-family="Helvetica,sans-Serif" font-size="10.00" fill="#000000">Framework/CompilerBuiltins.h</text>
</a>
</g>
</g>
<!-- Node9&#45;&gt;Node17 -->
<g id="edge21" class="edge">
<title>Node9&#45;&gt;Node17</title>
<path fill="none" stroke="#191970" d="M1412.6757,-173.352C1500.6258,-165.4561 1670.4814,-148.6534 1728.5,-132 1748.7591,-126.1849 1751.1581,-117.5184 1771.5,-112 1932.1096,-68.4299 1980.8843,-92.3132 2150.1692,-76.0943"/>
<polygon fill="#191970" stroke="#191970" points="2150.5599,-79.5728 2160.166,-75.1036 2149.8695,-72.607 2150.5599,-79.5728"/>
</g>
<!-- Node18 -->
<g id="node19" class="node">
<title>Node18</title>
<g id="a_node19"><a xlink:href="../../db/d31/Traits_8h.html" target="_top" xlink:title="Framework/Traits.h">
<polygon fill="none" stroke="#000000" points="2142,-112.5 2142,-131.5 2251,-131.5 2251,-112.5 2142,-112.5"/>
<text text-anchor="middle" x="2196.5" y="-119.5" font-family="Helvetica,sans-Serif" font-size="10.00" fill="#000000">Framework/Traits.h</text>
</a>
</g>
</g>
<!-- Node9&#45;&gt;Node18 -->
<g id="edge22" class="edge">
<title>Node9&#45;&gt;Node18</title>
<path fill="none" stroke="#191970" d="M1412.6786,-176.613C1537.6569,-173.0195 1855.939,-161.6164 2131.7045,-132.1037"/>
<polygon fill="#191970" stroke="#191970" points="2132.3421,-135.5552 2141.9082,-131.0012 2131.5901,-128.5957 2132.3421,-135.5552"/>
</g>
<!-- Node20 -->
<g id="node21" class="node">
<title>Node20</title>
<g id="a_node21"><a xlink:href="../../d0/d91/Expressions_8h.html" target="_top" xlink:title="Framework/Expressions.h">
<polygon fill="none" stroke="#000000" points="1469,-112.5 1469,-131.5 1610,-131.5 1610,-112.5 1469,-112.5"/>
<text text-anchor="middle" x="1539.5" y="-119.5" font-family="Helvetica,sans-Serif" font-size="10.00" fill="#000000">Framework/Expressions.h</text>
</a>
</g>
</g>
<!-- Node9&#45;&gt;Node20 -->
<g id="edge24" class="edge">
<title>Node9&#45;&gt;Node20</title>
<path fill="none" stroke="#191970" d="M1389.615,-168.3733C1419.8429,-159.021 1465.896,-144.7725 1498.9739,-134.5385"/>
<polygon fill="#191970" stroke="#191970" points="1500.2723,-137.8005 1508.791,-131.5011 1498.2033,-131.1133 1500.2723,-137.8005"/>
</g>
<!-- Node9&#45;&gt;Node23 -->
<g id="edge46" class="edge">
<title>Node9&#45;&gt;Node23</title>
<path fill="none" stroke="#191970" d="M1367.5835,-168.2919C1379.1487,-154.7159 1396.1936,-129.7355 1383.5,-112 1373.2693,-97.7057 1332.8596,-85.1173 1298.8942,-76.7396"/>
<polygon fill="#191970" stroke="#191970" points="1299.5995,-73.3097 1289.0593,-74.3842 1297.9691,-80.1171 1299.5995,-73.3097"/>
</g>
<!-- Node24 -->
<g id="node25" class="node">
<title>Node24</title>
<polygon fill="none" stroke="#bfbfbf" points="1713,-56.5 1713,-75.5 1860,-75.5 1860,-56.5 1713,-56.5"/>
<text text-anchor="middle" x="1786.5" y="-63.5" font-family="Helvetica,sans-Serif" font-size="10.00" fill="#000000">gandiva/selection_vector.h</text>
</g>
<!-- Node9&#45;&gt;Node24 -->
<g id="edge51" class="edge">
<title>Node9&#45;&gt;Node24</title>
<path fill="none" stroke="#191970" d="M1412.7149,-172.6217C1466.1983,-166.3487 1549.8267,-153.9274 1619.5,-132 1639.605,-125.6726 1643.0482,-120.1163 1662.5,-112 1691.1819,-100.0323 1724.1977,-87.8608 1748.9469,-79.0464"/>
<polygon fill="#191970" stroke="#191970" points="1750.4139,-82.24 1758.6728,-75.6036 1748.078,-75.6412 1750.4139,-82.24"/>
</g>
<!-- Node28 -->
<g id="node29" class="node">
<title>Node28</title>
<g id="a_node29"><a xlink:href="../../d0/d92/Kernels_8h.html" target="_top" xlink:title="Framework/Kernels.h">
<polygon fill="none" stroke="#000000" points="1023,-112.5 1023,-131.5 1142,-131.5 1142,-112.5 1023,-112.5"/>
<text text-anchor="middle" x="1082.5" y="-119.5" font-family="Helvetica,sans-Serif" font-size="10.00" fill="#000000">Framework/Kernels.h</text>
</a>
</g>
</g>
<!-- Node9&#45;&gt;Node28 -->
<g id="edge37" class="edge">
<title>Node9&#45;&gt;Node28</title>
<path fill="none" stroke="#191970" d="M1311.3675,-168.4369C1263.7353,-158.7724 1190.1033,-143.8326 1139.2834,-133.5213"/>
<polygon fill="#191970" stroke="#191970" points="1139.9344,-130.0821 1129.4381,-131.5237 1138.5424,-136.9423 1139.9344,-130.0821"/>
</g>
<!-- Node29 -->
<g id="node30" class="node">
<title>Node29</title>
<polygon fill="none" stroke="#bfbfbf" points="544,-56.5 544,-75.5 677,-75.5 677,-56.5 544,-56.5"/>
<text text-anchor="middle" x="610.5" y="-63.5" font-family="Helvetica,sans-Serif" font-size="10.00" fill="#000000">arrow/compute/kernel.h</text>
</g>
<!-- Node9&#45;&gt;Node29 -->
<g id="edge50" class="edge">
<title>Node9&#45;&gt;Node29</title>
<path fill="none" stroke="#191970" d="M1304.2492,-169.042C1301.2934,-168.6623 1298.3625,-168.3112 1295.5,-168 1160.9449,-153.3733 812.9967,-182.691 687.5,-132 662.155,-121.7626 639.232,-99.6688 625.1146,-83.8642"/>
<polygon fill="#191970" stroke="#191970" points="627.3925,-81.1453 618.2181,-75.8462 622.0856,-85.7099 627.3925,-81.1453"/>
</g>
<!-- Node32 -->
<g id="node33" class="node">
<title>Node32</title>
<polygon fill="none" stroke="#bfbfbf" points="933.5,-56.5 933.5,-75.5 1043.5,-75.5 1043.5,-56.5 933.5,-56.5"/>
<text text-anchor="middle" x="988.5" y="-63.5" font-family="Helvetica,sans-Serif" font-size="10.00" fill="#000000">arrow/util/variant.h</text>
</g>
<!-- Node9&#45;&gt;Node32 -->
<g id="edge48" class="edge">
<title>Node9&#45;&gt;Node32</title>
<path fill="none" stroke="#191970" d="M1312.7961,-168.4195C1278.2864,-160.5049 1230.101,-147.987 1189.5,-132 1171.7418,-125.0076 1169.2255,-119.075 1151.5,-112 1115.6144,-97.6765 1073.6217,-85.9375 1041.2467,-77.9037"/>
<polygon fill="#191970" stroke="#191970" points="1042.0703,-74.502 1031.5255,-75.5306 1040.4102,-81.3023 1042.0703,-74.502"/>
</g>
<!-- Node33 -->
<g id="node34" class="node">
<title>Node33</title>
<g id="a_node34"><a xlink:href="../../d1/dc1/ArrowCompatibility_8h.html" target="_top" xlink:title="Framework/ArrowCompatibility.h">
<polygon fill="none" stroke="#000000" points="1198.5,-112.5 1198.5,-131.5 1374.5,-131.5 1374.5,-112.5 1198.5,-112.5"/>
<text text-anchor="middle" x="1286.5" y="-119.5" font-family="Helvetica,sans-Serif" font-size="10.00" fill="#000000">Framework/ArrowCompatibility.h</text>
</a>
</g>
</g>
<!-- Node9&#45;&gt;Node33 -->
<g id="edge44" class="edge">
<title>Node9&#45;&gt;Node33</title>
<path fill="none" stroke="#191970" d="M1345.9586,-168.2455C1335.2213,-159.8943 1319.5527,-147.7076 1306.9953,-137.9408"/>
<polygon fill="#191970" stroke="#191970" points="1308.9401,-135.0194 1298.8977,-131.6427 1304.6425,-140.5449 1308.9401,-135.0194"/>
</g>
<!-- Node34 -->
<g id="node35" class="node">
<title>Node34</title>
<polygon fill="none" stroke="#bfbfbf" points="696.5,-112.5 696.5,-131.5 776.5,-131.5 776.5,-112.5 696.5,-112.5"/>
<text text-anchor="middle" x="736.5" y="-119.5" font-family="Helvetica,sans-Serif" font-size="10.00" fill="#000000">arrow/array.h</text>
</g>
<!-- Node9&#45;&gt;Node34 -->
<g id="edge47" class="edge">
<title>Node9&#45;&gt;Node34</title>
<path fill="none" stroke="#191970" d="M1304.2448,-169.0817C1301.2901,-168.6918 1298.3607,-168.3276 1295.5,-168 1070.1851,-142.1993 1011.2542,-162.2992 786.5,-132 786.3986,-131.9863 786.297,-131.9726 786.1954,-131.9587"/>
<polygon fill="#191970" stroke="#191970" points="786.958,-128.535 776.5419,-130.473 785.8931,-135.4535 786.958,-128.535"/>
</g>
<!-- Node35 -->
<g id="node36" class="node">
<title>Node35</title>
<polygon fill="none" stroke="#bfbfbf" points="795,-112.5 795,-131.5 934,-131.5 934,-112.5 795,-112.5"/>
<text text-anchor="middle" x="864.5" y="-119.5" font-family="Helvetica,sans-Serif" font-size="10.00" fill="#000000">arrow/compute/context.h</text>
</g>
<!-- Node9&#45;&gt;Node35 -->
<g id="edge49" class="edge">
<title>Node9&#45;&gt;Node35</title>
<path fill="none" stroke="#191970" d="M1304.2315,-169.1901C1301.2802,-168.7721 1298.3552,-168.3723 1295.5,-168 1142.7577,-148.0825 1101.4233,-149.7945 944.2995,-132.0642"/>
<polygon fill="#191970" stroke="#191970" points="944.6073,-128.5767 934.2759,-130.9246 943.8165,-135.5319 944.6073,-128.5767"/>
</g>
<!-- Node36 -->
<g id="node37" class="node">
<title>Node36</title>
<polygon fill="none" stroke="#bfbfbf" points="952.5,-112.5 952.5,-131.5 1004.5,-131.5 1004.5,-112.5 952.5,-112.5"/>
<text text-anchor="middle" x="978.5" y="-119.5" font-family="Helvetica,sans-Serif" font-size="10.00" fill="#000000">cassert</text>
</g>
<!-- Node9&#45;&gt;Node36 -->
<g id="edge52" class="edge">
<title>Node9&#45;&gt;Node36</title>
<path fill="none" stroke="#191970" d="M1304.2195,-169.2782C1301.2713,-168.8375 1298.3502,-168.4087 1295.5,-168 1170.8651,-150.1287 1137.9202,-156.9136 1014.5,-132 1014.4007,-131.9799 1014.3012,-131.9598 1014.2016,-131.9395"/>
<polygon fill="#191970" stroke="#191970" points="1015.2715,-128.5944 1004.7408,-129.758 1013.6986,-135.4154 1015.2715,-128.5944"/>
</g>
<!-- Node11 -->
<g id="node12" class="node">
<title>Node11</title>
<polygon fill="none" stroke="#bfbfbf" points="1996,-.5 1996,-19.5 2049,-19.5 2049,-.5 1996,-.5"/>
<text text-anchor="middle" x="2022.5" y="-7.5" font-family="Helvetica,sans-Serif" font-size="10.00" fill="#000000">cstddef</text>
</g>
<!-- Node10&#45;&gt;Node11 -->
<g id="edge14" class="edge">
<title>Node10&#45;&gt;Node11</title>
<path fill="none" stroke="#191970" d="M2077.8295,-56.2455C2067.9339,-47.9746 2053.5373,-35.9416 2041.9099,-26.2232"/>
<polygon fill="#191970" stroke="#191970" points="2043.9542,-23.3703 2034.0368,-19.6427 2039.465,-28.7413 2043.9542,-23.3703"/>
</g>
<!-- Node12 -->
<g id="node13" class="node">
<title>Node12</title>
<polygon fill="none" stroke="#bfbfbf" points="2067,-.5 2067,-19.5 2112,-19.5 2112,-.5 2067,-.5"/>
<text text-anchor="middle" x="2089.5" y="-7.5" font-family="Helvetica,sans-Serif" font-size="10.00" fill="#000000">utility</text>
</g>
<!-- Node10&#45;&gt;Node12 -->
<g id="edge15" class="edge">
<title>Node10&#45;&gt;Node12</title>
<path fill="none" stroke="#191970" d="M2089.5,-56.2455C2089.5,-48.9382 2089.5,-38.6944 2089.5,-29.7046"/>
<polygon fill="#191970" stroke="#191970" points="2093.0001,-29.6426 2089.5,-19.6427 2086.0001,-29.6427 2093.0001,-29.6426"/>
</g>
<!-- Node13 -->
<g id="node14" class="node">
<title>Node13</title>
<polygon fill="none" stroke="#bfbfbf" points="2130.5,-.5 2130.5,-19.5 2176.5,-19.5 2176.5,-.5 2130.5,-.5"/>
<text text-anchor="middle" x="2153.5" y="-7.5" font-family="Helvetica,sans-Serif" font-size="10.00" fill="#000000">cstdio</text>
</g>
<!-- Node10&#45;&gt;Node13 -->
<g id="edge16" class="edge">
<title>Node10&#45;&gt;Node13</title>
<path fill="none" stroke="#191970" d="M2100.6479,-56.2455C2110.0087,-48.0549 2123.5858,-36.1749 2134.6349,-26.5069"/>
<polygon fill="#191970" stroke="#191970" points="2137.2588,-28.8618 2142.4798,-19.6427 2132.6492,-23.5937 2137.2588,-28.8618"/>
</g>
<!-- Node15&#45;&gt;Node10 -->
<g id="edge19" class="edge">
<title>Node15&#45;&gt;Node10</title>
<path fill="none" stroke="#191970" d="M1903.7525,-112.4369C1941.8467,-102.9133 2000.4313,-88.2672 2041.5987,-77.9753"/>
<polygon fill="#191970" stroke="#191970" points="2042.5528,-81.3446 2051.4053,-75.5237 2040.855,-74.5536 2042.5528,-81.3446"/>
</g>
<!-- Node15&#45;&gt;Node16 -->
<g id="edge20" class="edge">
<title>Node15&#45;&gt;Node16</title>
<path fill="none" stroke="#191970" d="M1950.6921,-112.9964C1954.0038,-112.6578 1957.2824,-112.3246 1960.5,-112 2122.9705,-95.6088 2167.4866,-103.0468 2332.5617,-75.953"/>
<polygon fill="#191970" stroke="#191970" points="2333.2799,-79.3817 2342.5722,-74.2922 2332.1342,-72.4761 2333.2799,-79.3817"/>
</g>
<!-- Node19 -->
<g id="node20" class="node">
<title>Node19</title>
<polygon fill="none" stroke="#bfbfbf" points="2426,-56.5 2426,-75.5 2495,-75.5 2495,-56.5 2426,-56.5"/>
<text text-anchor="middle" x="2460.5" y="-63.5" font-family="Helvetica,sans-Serif" font-size="10.00" fill="#000000">type_traits</text>
</g>
<!-- Node18&#45;&gt;Node19 -->
<g id="edge23" class="edge">
<title>Node18&#45;&gt;Node19</title>
<path fill="none" stroke="#191970" d="M2243.9897,-112.448C2286.6022,-103.8021 2351.1138,-90.5292 2415.8186,-76.3391"/>
<polygon fill="#191970" stroke="#191970" points="2416.7676,-79.7141 2425.7819,-74.147 2415.2634,-72.8776 2416.7676,-79.7141"/>
</g>
<!-- Node20&#45;&gt;Node3 -->
<g id="edge35" class="edge">
<title>Node20&#45;&gt;Node3</title>
<path fill="none" stroke="#191970" d="M1468.8506,-117.1465C1442.1188,-115.3954 1411.4135,-113.4863 1383.5,-112 1009.6765,-92.0952 908.0389,-141.6925 535.6387,-75.7245"/>
<polygon fill="#191970" stroke="#191970" points="536.1281,-72.2566 525.6682,-73.9423 534.8963,-79.1474 536.1281,-72.2566"/>
</g>
<!-- Node20&#45;&gt;Node6 -->
<g id="edge36" class="edge">
<title>Node20&#45;&gt;Node6</title>
<path fill="none" stroke="#191970" d="M1468.8528,-117.1034C1442.1213,-115.3473 1411.4157,-113.4461 1383.5,-112 978.8377,-91.0377 876.6808,-104.7911 472.5,-76 453.443,-74.6425 432.3379,-72.5386 414.6937,-70.6101"/>
<polygon fill="#191970" stroke="#191970" points="415.0726,-67.1308 404.7466,-69.5019 414.2975,-74.0877 415.0726,-67.1308"/>
</g>
<!-- Node20&#45;&gt;Node10 -->
<g id="edge27" class="edge">
<title>Node20&#45;&gt;Node10</title>
<path fill="none" stroke="#191970" d="M1610.3748,-116.7928C1703.4367,-109.6262 1872.1224,-95.505 2026.6144,-76.0375"/>
<polygon fill="#191970" stroke="#191970" points="2027.2899,-79.4799 2036.769,-74.7475 2026.4077,-72.5357 2027.2899,-79.4799"/>
</g>
<!-- Node20&#45;&gt;Node14 -->
<g id="edge28" class="edge">
<title>Node20&#45;&gt;Node14</title>
<path fill="none" stroke="#191970" d="M1609.3449,-112.4369C1681.4008,-102.571 1793.6075,-87.2078 1869.0157,-76.8829"/>
<polygon fill="#191970" stroke="#191970" points="1869.5104,-80.3479 1878.9432,-75.5237 1868.5608,-73.4126 1869.5104,-80.3479"/>
</g>
<!-- Node20&#45;&gt;Node17 -->
<g id="edge26" class="edge">
<title>Node20&#45;&gt;Node17</title>
<path fill="none" stroke="#191970" d="M1610.2439,-117.4768C1722.3822,-110.1312 1948.0981,-94.6322 2149.9701,-76.1157"/>
<polygon fill="#191970" stroke="#191970" points="2150.5364,-79.5784 2160.173,-75.1754 2149.8939,-72.608 2150.5364,-79.5784"/>
</g>
<!-- Node21 -->
<g id="node22" class="node">
<title>Node21</title>
<g id="a_node22"><a xlink:href="../../dd/dc2/BasicOps_8h.html" target="_top" xlink:title="Framework/BasicOps.h">
<polygon fill="none" stroke="#000000" points="1061.5,-56.5 1061.5,-75.5 1189.5,-75.5 1189.5,-56.5 1061.5,-56.5"/>
<text text-anchor="middle" x="1125.5" y="-63.5" font-family="Helvetica,sans-Serif" font-size="10.00" fill="#000000">Framework/BasicOps.h</text>
</a>
</g>
</g>
<!-- Node20&#45;&gt;Node21 -->
<g id="edge25" class="edge">
<title>Node20&#45;&gt;Node21</title>
<path fill="none" stroke="#191970" d="M1468.8013,-112.4369C1393.8753,-102.302 1276.0606,-86.3657 1199.7955,-76.0496"/>
<polygon fill="#191970" stroke="#191970" points="1200.1609,-72.5673 1189.782,-74.6951 1199.2226,-79.5041 1200.1609,-72.5673"/>
</g>
<!-- Node22 -->
<g id="node23" class="node">
<title>Node22</title>
<polygon fill="none" stroke="#bfbfbf" points="1376,-56.5 1376,-75.5 1477,-75.5 1477,-56.5 1376,-56.5"/>
<text text-anchor="middle" x="1426.5" y="-63.5" font-family="Helvetica,sans-Serif" font-size="10.00" fill="#000000">arrow/type_fwd.h</text>
</g>
<!-- Node20&#45;&gt;Node22 -->
<g id="edge29" class="edge">
<title>Node20&#45;&gt;Node22</title>
<path fill="none" stroke="#191970" d="M1520.0746,-112.3733C1502.0979,-103.4644 1475.1559,-90.1127 1454.791,-80.0203"/>
<polygon fill="#191970" stroke="#191970" points="1456.1861,-76.8055 1445.6719,-75.5011 1453.0778,-83.0776 1456.1861,-76.8055"/>
</g>
<!-- Node20&#45;&gt;Node23 -->
<g id="edge30" class="edge">
<title>Node20&#45;&gt;Node23</title>
<path fill="none" stroke="#191970" d="M1488.6972,-112.4375C1442.0986,-103.636 1370.8868,-90.1097 1299.2602,-76.136"/>
<polygon fill="#191970" stroke="#191970" points="1299.6387,-72.6438 1289.1532,-74.1617 1298.2966,-79.514 1299.6387,-72.6438"/>
</g>
<!-- Node20&#45;&gt;Node24 -->
<g id="edge31" class="edge">
<title>Node20&#45;&gt;Node24</title>
<path fill="none" stroke="#191970" d="M1581.6802,-112.4369C1623.9523,-102.8529 1689.1062,-88.0812 1734.5417,-77.78"/>
<polygon fill="#191970" stroke="#191970" points="1735.5152,-81.1482 1744.4938,-75.5237 1733.9674,-74.3215 1735.5152,-81.1482"/>
</g>
<!-- Node25 -->
<g id="node26" class="node">
<title>Node25</title>
<polygon fill="none" stroke="#bfbfbf" points="1495.5,-56.5 1495.5,-75.5 1587.5,-75.5 1587.5,-56.5 1495.5,-56.5"/>
<text text-anchor="middle" x="1541.5" y="-63.5" font-family="Helvetica,sans-Serif" font-size="10.00" fill="#000000">gandiva/node.h</text>
</g>
<!-- Node20&#45;&gt;Node25 -->
<g id="edge32" class="edge">
<title>Node20&#45;&gt;Node25</title>
<path fill="none" stroke="#191970" d="M1539.8484,-112.2455C1540.1093,-104.9382 1540.4752,-94.6944 1540.7963,-85.7046"/>
<polygon fill="#191970" stroke="#191970" points="1544.2964,-85.7613 1541.1556,-75.6427 1537.3008,-85.5113 1544.2964,-85.7613"/>
</g>
<!-- Node26 -->
<g id="node27" class="node">
<title>Node26</title>
<polygon fill="none" stroke="#bfbfbf" points="1606,-56.5 1606,-75.5 1695,-75.5 1695,-56.5 1606,-56.5"/>
<text text-anchor="middle" x="1650.5" y="-63.5" font-family="Helvetica,sans-Serif" font-size="10.00" fill="#000000">gandiva/filter.h</text>
</g>
<!-- Node20&#45;&gt;Node26 -->
<g id="edge33" class="edge">
<title>Node20&#45;&gt;Node26</title>
<path fill="none" stroke="#191970" d="M1558.5816,-112.3733C1576.2402,-103.4644 1602.7053,-90.1127 1622.7098,-80.0203"/>
<polygon fill="#191970" stroke="#191970" points="1624.3158,-83.1303 1631.6674,-75.5011 1621.1628,-76.8806 1624.3158,-83.1303"/>
</g>
<!-- Node27 -->
<g id="node28" class="node">
<title>Node27</title>
<polygon fill="none" stroke="#bfbfbf" points="1307,-56.5 1307,-75.5 1358,-75.5 1358,-56.5 1307,-56.5"/>
<text text-anchor="middle" x="1332.5" y="-63.5" font-family="Helvetica,sans-Serif" font-size="10.00" fill="#000000">variant</text>
</g>
<!-- Node20&#45;&gt;Node27 -->
<g id="edge34" class="edge">
<title>Node20&#45;&gt;Node27</title>
<path fill="none" stroke="#191970" d="M1503.2118,-112.4863C1470.4099,-103.844 1420.5469,-90.6018 1367.9495,-76.0918"/>
<polygon fill="#191970" stroke="#191970" points="1368.6712,-72.6601 1358.1001,-73.3685 1366.8057,-79.4069 1368.6712,-72.6601"/>
</g>
<!-- Node28&#45;&gt;Node3 -->
<g id="edge43" class="edge">
<title>Node28&#45;&gt;Node3</title>
<path fill="none" stroke="#191970" d="M1022.6931,-113.075C1019.5865,-112.692 1016.508,-112.3306 1013.5,-112 804.6044,-89.0403 745.8318,-116.1846 535.802,-75.8258"/>
<polygon fill="#191970" stroke="#191970" points="536.1702,-72.3317 525.6851,-73.8524 534.83,-79.2022 536.1702,-72.3317"/>
</g>
<!-- Node28&#45;&gt;Node21 -->
<g id="edge38" class="edge">
<title>Node28&#45;&gt;Node21</title>
<path fill="none" stroke="#191970" d="M1089.99,-112.2455C1096.0326,-104.3761 1104.6903,-93.101 1111.9441,-83.6542"/>
<polygon fill="#191970" stroke="#191970" points="1114.7815,-85.7058 1118.0958,-75.6427 1109.2295,-81.4426 1114.7815,-85.7058"/>
</g>
<!-- Node28&#45;&gt;Node29 -->
<g id="edge39" class="edge">
<title>Node28&#45;&gt;Node29</title>
<path fill="none" stroke="#191970" d="M1022.678,-113.2021C1019.5753,-112.7859 1016.5018,-112.3826 1013.5,-112 871.7199,-93.9271 833.3638,-93.5461 687.449,-76.0906"/>
<polygon fill="#191970" stroke="#191970" points="687.5645,-72.5794 677.218,-74.8599 686.7284,-79.5293 687.5645,-72.5794"/>
</g>
<!-- Node30 -->
<g id="node31" class="node">
<title>Node30</title>
<polygon fill="none" stroke="#bfbfbf" points="695.5,-56.5 695.5,-75.5 781.5,-75.5 781.5,-56.5 695.5,-56.5"/>
<text text-anchor="middle" x="738.5" y="-63.5" font-family="Helvetica,sans-Serif" font-size="10.00" fill="#000000">arrow/status.h</text>
</g>
<!-- Node28&#45;&gt;Node30 -->
<g id="edge40" class="edge">
<title>Node28&#45;&gt;Node30</title>
<path fill="none" stroke="#191970" d="M1022.843,-113.2043C965.9526,-104.6799 877.6083,-91.0888 791.5477,-76.1405"/>
<polygon fill="#191970" stroke="#191970" points="792.0624,-72.6775 781.6096,-74.4064 790.8591,-79.5733 792.0624,-72.6775"/>
</g>
<!-- Node31 -->
<g id="node32" class="node">
<title>Node31</title>
<polygon fill="none" stroke="#bfbfbf" points="799.5,-56.5 799.5,-75.5 915.5,-75.5 915.5,-56.5 799.5,-56.5"/>
<text text-anchor="middle" x="857.5" y="-63.5" font-family="Helvetica,sans-Serif" font-size="10.00" fill="#000000">arrow/util/visibility.h</text>
</g>
<!-- Node28&#45;&gt;Node31 -->
<g id="edge41" class="edge">
<title>Node28&#45;&gt;Node31</title>
<path fill="none" stroke="#191970" d="M1044.0768,-112.4369C1005.8125,-102.9133 946.9663,-88.2672 905.6151,-77.9753"/>
<polygon fill="#191970" stroke="#191970" points="906.3141,-74.5426 895.7647,-75.5237 904.6234,-81.3353 906.3141,-74.5426"/>
</g>
<!-- Node28&#45;&gt;Node32 -->
<g id="edge42" class="edge">
<title>Node28&#45;&gt;Node32</title>
<path fill="none" stroke="#191970" d="M1066.1264,-112.2455C1051.5692,-103.5731 1030.069,-90.7645 1013.3848,-80.825"/>
<polygon fill="#191970" stroke="#191970" points="1015.0683,-77.7539 1004.6859,-75.6427 1011.4856,-83.7676 1015.0683,-77.7539"/>
</g>
<!-- Node33&#45;&gt;Node23 -->
<g id="edge45" class="edge">
<title>Node33&#45;&gt;Node23</title>
<path fill="none" stroke="#191970" d="M1279.8809,-112.2455C1274.5954,-104.4564 1267.0459,-93.3308 1260.6762,-83.9439"/>
<polygon fill="#191970" stroke="#191970" points="1263.5545,-81.9522 1255.0432,-75.6427 1257.7621,-85.8827 1263.5545,-81.9522"/>
</g>
<!-- Node37&#45;&gt;Node18 -->
<g id="edge54" class="edge">
<title>Node37&#45;&gt;Node18</title>
<path fill="none" stroke="#191970" d="M2202.2807,-168.2455C2201.3673,-160.9382 2200.0868,-150.6944 2198.9631,-141.7046"/>
<polygon fill="#191970" stroke="#191970" points="2202.4187,-141.1313 2197.7053,-131.6427 2195.4728,-141.9996 2202.4187,-141.1313"/>
</g>
<!-- Node37&#45;&gt;Node19 -->
<g id="edge56" class="edge">
<title>Node37&#45;&gt;Node19</title>
<path fill="none" stroke="#191970" d="M2214.864,-168.3423C2232.1059,-154.1351 2266.3833,-127.6026 2299.5,-112 2320.1065,-102.2915 2375.8207,-87.2304 2415.9353,-77.0087"/>
<polygon fill="#191970" stroke="#191970" points="2416.9314,-80.3671 2425.7669,-74.5205 2415.2138,-73.581 2416.9314,-80.3671"/>
</g>
<!-- Node37&#45;&gt;Node38 -->
<g id="edge55" class="edge">
<title>Node37&#45;&gt;Node38</title>
<path fill="none" stroke="#191970" d="M2224.9883,-168.3733C2245.2662,-159.2888 2275.8562,-145.5844 2298.5286,-135.4272"/>
<polygon fill="#191970" stroke="#191970" points="2300.0124,-138.5977 2307.7075,-131.315 2297.1505,-132.2094 2300.0124,-138.5977"/>
</g>
<!-- Node39&#45;&gt;Node17 -->
<g id="edge59" class="edge">
<title>Node39&#45;&gt;Node17</title>
<path fill="none" stroke="#191970" d="M2080.1936,-112.3733C2113.2087,-102.9404 2163.6573,-88.5265 2199.5386,-78.2747"/>
<polygon fill="#191970" stroke="#191970" points="2200.5924,-81.6137 2209.2461,-75.5011 2198.6693,-74.8831 2200.5924,-81.6137"/>
</g>
<!-- Node44&#45;&gt;Node6 -->
<g id="edge71" class="edge">
<title>Node44&#45;&gt;Node6</title>
<path fill="none" stroke="#191970" d="M81.1497,-224.1055C85.4491,-209.8419 95.2506,-183.5158 112.5,-168 177.7983,-109.2644 280.677,-82.765 336.4377,-72.1611"/>
<polygon fill="#191970" stroke="#191970" points="337.0737,-75.6029 346.2814,-70.3619 335.8151,-68.717 337.0737,-75.6029"/>
</g>
</g>
</svg>
