<?xml version="1.0" encoding="UTF-8" standalone="no"?>
<!DOCTYPE svg PUBLIC "-//W3C//DTD SVG 1.1//EN"
 "http://www.w3.org/Graphics/SVG/1.1/DTD/svg11.dtd">
<!-- Generated by graphviz version 2.40.1 (20161225.0304)
 -->
<!-- Title: /home/travis/build/AliceO2Group/AliceO2/GPU/TPCFastTransformation/SplineHelper2D.cxx Pages: 1 -->
<svg width="971pt" height="397pt"
 viewBox="0.00 0.00 970.68 397.00" xmlns="http://www.w3.org/2000/svg" xmlns:xlink="http://www.w3.org/1999/xlink">
<g id="graph0" class="graph" transform="scale(1 1) rotate(0) translate(4 393)">
<title>/home/travis/build/AliceO2Group/AliceO2/GPU/TPCFastTransformation/SplineHelper2D.cxx</title>
<!-- Node0 -->
<g id="node1" class="node">
<title>Node0</title>
<polygon fill="#bfbfbf" stroke="#000000" points="357.1847,-336.5 357.1847,-388.5 512.1847,-388.5 512.1847,-336.5 357.1847,-336.5"/>
<text text-anchor="start" x="365.1847" y="-376.5" font-family="Helvetica,sans-Serif" font-size="10.00" fill="#000000">/home/travis/build</text>
<text text-anchor="start" x="365.1847" y="-365.5" font-family="Helvetica,sans-Serif" font-size="10.00" fill="#000000">/AliceO2Group/AliceO2</text>
<text text-anchor="start" x="365.1847" y="-354.5" font-family="Helvetica,sans-Serif" font-size="10.00" fill="#000000">/GPU/TPCFastTransformation</text>
<text text-anchor="middle" x="434.6847" y="-343.5" font-family="Helvetica,sans-Serif" font-size="10.00" fill="#000000">/SplineHelper2D.cxx</text>
</g>
<!-- Node1 -->
<g id="node2" class="node">
<title>Node1</title>
<g id="a_node2"><a xlink:href="../../d0/d1e/SplineHelper2D_8h.html" target="_top" xlink:title="Definition of SplineHelper2D class. ">
<polygon fill="none" stroke="#000000" points="206.1847,-280.5 206.1847,-299.5 307.1847,-299.5 307.1847,-280.5 206.1847,-280.5"/>
<text text-anchor="middle" x="256.6847" y="-287.5" font-family="Helvetica,sans-Serif" font-size="10.00" fill="#000000">SplineHelper2D.h</text>
</a>
</g>
</g>
<!-- Node0&#45;&gt;Node1 -->
<g id="edge1" class="edge">
<title>Node0&#45;&gt;Node1</title>
<path fill="none" stroke="#191970" d="M370.6741,-336.4283C343.2385,-325.2536 312.3552,-312.6748 289.6616,-303.4316"/>
<polygon fill="#191970" stroke="#191970" points="290.744,-300.0933 280.1625,-299.5626 288.1035,-306.5762 290.744,-300.0933"/>
</g>
<!-- Node23 -->
<g id="node24" class="node">
<title>Node23</title>
<polygon fill="none" stroke="#bfbfbf" points="325.6847,-280.5 325.6847,-299.5 381.6847,-299.5 381.6847,-280.5 325.6847,-280.5"/>
<text text-anchor="middle" x="353.6847" y="-287.5" font-family="Helvetica,sans-Serif" font-size="10.00" fill="#000000">TMath.h</text>
</g>
<!-- Node0&#45;&gt;Node23 -->
<g id="edge37" class="edge">
<title>Node0&#45;&gt;Node23</title>
<path fill="none" stroke="#191970" d="M405.4419,-336.3258C394.2546,-326.3126 381.8226,-315.1851 371.9471,-306.346"/>
<polygon fill="#191970" stroke="#191970" points="374.122,-303.5954 364.3365,-299.534 369.4535,-308.8113 374.122,-303.5954"/>
</g>
<!-- Node24 -->
<g id="node25" class="node">
<title>Node24</title>
<polygon fill="none" stroke="#bfbfbf" points="399.6847,-280.5 399.6847,-299.5 469.6847,-299.5 469.6847,-280.5 399.6847,-280.5"/>
<text text-anchor="middle" x="434.6847" y="-287.5" font-family="Helvetica,sans-Serif" font-size="10.00" fill="#000000">TMatrixD.h</text>
</g>
<!-- Node0&#45;&gt;Node24 -->
<g id="edge38" class="edge">
<title>Node0&#45;&gt;Node24</title>
<path fill="none" stroke="#191970" d="M434.6847,-336.3258C434.6847,-327.5142 434.6847,-317.8397 434.6847,-309.621"/>
<polygon fill="#191970" stroke="#191970" points="438.1848,-309.534 434.6847,-299.534 431.1848,-309.534 438.1848,-309.534"/>
</g>
<!-- Node25 -->
<g id="node26" class="node">
<title>Node25</title>
<polygon fill="none" stroke="#bfbfbf" points="487.6847,-280.5 487.6847,-299.5 557.6847,-299.5 557.6847,-280.5 487.6847,-280.5"/>
<text text-anchor="middle" x="522.6847" y="-287.5" font-family="Helvetica,sans-Serif" font-size="10.00" fill="#000000">TVectorD.h</text>
</g>
<!-- Node0&#45;&gt;Node25 -->
<g id="edge39" class="edge">
<title>Node0&#45;&gt;Node25</title>
<path fill="none" stroke="#191970" d="M466.4547,-336.3258C478.7303,-326.2124 492.3855,-314.9624 503.1651,-306.0815"/>
<polygon fill="#191970" stroke="#191970" points="505.6199,-308.594 511.1124,-299.534 501.1688,-303.1913 505.6199,-308.594"/>
</g>
<!-- Node26 -->
<g id="node27" class="node">
<title>Node26</title>
<polygon fill="none" stroke="#bfbfbf" points="575.6847,-280.5 575.6847,-299.5 661.6847,-299.5 661.6847,-280.5 575.6847,-280.5"/>
<text text-anchor="middle" x="618.6847" y="-287.5" font-family="Helvetica,sans-Serif" font-size="10.00" fill="#000000">TDecompBK.h</text>
</g>
<!-- Node0&#45;&gt;Node26 -->
<g id="edge40" class="edge">
<title>Node0&#45;&gt;Node26</title>
<path fill="none" stroke="#191970" d="M500.853,-336.4283C529.3406,-325.2035 561.4241,-312.5619 584.9114,-303.3074"/>
<polygon fill="#191970" stroke="#191970" points="586.3948,-306.4849 594.4156,-299.5626 583.8286,-299.9722 586.3948,-306.4849"/>
</g>
<!-- Node2 -->
<g id="node3" class="node">
<title>Node2</title>
<polygon fill="none" stroke="#bfbfbf" points="17.1847,-168.5 17.1847,-187.5 64.1847,-187.5 64.1847,-168.5 17.1847,-168.5"/>
<text text-anchor="middle" x="40.6847" y="-175.5" font-family="Helvetica,sans-Serif" font-size="10.00" fill="#000000">cmath</text>
</g>
<!-- Node1&#45;&gt;Node2 -->
<g id="edge2" class="edge">
<title>Node1&#45;&gt;Node2</title>
<path fill="none" stroke="#191970" d="M233.9322,-280.3643C213.2705,-271.4432 182.083,-257.549 155.6847,-244 123.8252,-227.6479 88.2197,-206.7973 65.186,-192.9539"/>
<polygon fill="#191970" stroke="#191970" points="66.7933,-189.8358 56.424,-187.6612 63.1739,-195.8275 66.7933,-189.8358"/>
</g>
<!-- Node3 -->
<g id="node4" class="node">
<title>Node3</title>
<polygon fill="none" stroke="#bfbfbf" points="82.1847,-168.5 82.1847,-187.5 129.1847,-187.5 129.1847,-168.5 82.1847,-168.5"/>
<text text-anchor="middle" x="105.6847" y="-175.5" font-family="Helvetica,sans-Serif" font-size="10.00" fill="#000000">vector</text>
</g>
<!-- Node1&#45;&gt;Node3 -->
<g id="edge3" class="edge">
<title>Node1&#45;&gt;Node3</title>
<path fill="none" stroke="#191970" d="M240.0158,-280.4044C224.9313,-271.5104 202.2943,-257.6333 183.6847,-244 162.4347,-228.4323 139.5918,-208.7171 124.1544,-194.9047"/>
<polygon fill="#191970" stroke="#191970" points="126.1653,-192.0048 116.3971,-187.9022 121.4748,-197.2009 126.1653,-192.0048"/>
</g>
<!-- Node4 -->
<g id="node5" class="node">
<title>Node4</title>
<g id="a_node5"><a xlink:href="../../df/d21/GPUCommonDef_8h.html" target="_top" xlink:title="GPUCommonDef.h">
<polygon fill="none" stroke="#000000" points="138.1847,-56.5 138.1847,-75.5 245.1847,-75.5 245.1847,-56.5 138.1847,-56.5"/>
<text text-anchor="middle" x="191.6847" y="-63.5" font-family="Helvetica,sans-Serif" font-size="10.00" fill="#000000">GPUCommonDef.h</text>
</a>
</g>
</g>
<!-- Node1&#45;&gt;Node4 -->
<g id="edge4" class="edge">
<title>Node1&#45;&gt;Node4</title>
<path fill="none" stroke="#191970" d="M219.1722,-280.4399C155.4452,-263.3189 30.6879,-225.6795 7.6847,-188 -27.0313,-131.1346 70.2319,-95.2449 136.2498,-78.0635"/>
<polygon fill="#191970" stroke="#191970" points="137.3085,-81.4061 146.1477,-75.5651 135.5952,-74.619 137.3085,-81.4061"/>
</g>
<!-- Node7 -->
<g id="node8" class="node">
<title>Node7</title>
<polygon fill="none" stroke="#bfbfbf" points="335.1847,-.5 335.1847,-19.5 394.1847,-19.5 394.1847,-.5 335.1847,-.5"/>
<text text-anchor="middle" x="364.6847" y="-7.5" font-family="Helvetica,sans-Serif" font-size="10.00" fill="#000000">Rtypes.h</text>
</g>
<!-- Node1&#45;&gt;Node7 -->
<g id="edge7" class="edge">
<title>Node1&#45;&gt;Node7</title>
<path fill="none" stroke="#191970" d="M307.5338,-281.0025C443.9386,-256.6963 807.6847,-190.6901 807.6847,-178 807.6847,-178 807.6847,-178 807.6847,-122 807.6847,-91.4754 812.0454,-75.6477 788.6847,-56 759.6054,-31.5424 504.5516,-16.7315 404.6095,-11.8219"/>
<polygon fill="#191970" stroke="#191970" points="404.4782,-8.3116 394.3209,-11.3247 404.1403,-15.3034 404.4782,-8.3116"/>
</g>
<!-- Node8 -->
<g id="node9" class="node">
<title>Node8</title>
<polygon fill="none" stroke="#bfbfbf" points="147.6847,-168.5 147.6847,-187.5 207.6847,-187.5 207.6847,-168.5 147.6847,-168.5"/>
<text text-anchor="middle" x="177.6847" y="-175.5" font-family="Helvetica,sans-Serif" font-size="10.00" fill="#000000">TString.h</text>
</g>
<!-- Node1&#45;&gt;Node8 -->
<g id="edge8" class="edge">
<title>Node1&#45;&gt;Node8</title>
<path fill="none" stroke="#191970" d="M238.674,-280.4236C225.2325,-272.3933 207.4077,-259.7241 196.6847,-244 187.2492,-230.1638 182.448,-211.6432 180.0361,-197.7432"/>
<polygon fill="#191970" stroke="#191970" points="183.4865,-197.1496 178.5711,-187.764 176.5608,-198.1663 183.4865,-197.1496"/>
</g>
<!-- Node9 -->
<g id="node10" class="node">
<title>Node9</title>
<g id="a_node10"><a xlink:href="../../de/da6/Spline1D_8h.html" target="_top" xlink:title="Definition of Spline1D class. ">
<polygon fill="none" stroke="#000000" points="378.1847,-168.5 378.1847,-187.5 447.1847,-187.5 447.1847,-168.5 378.1847,-168.5"/>
<text text-anchor="middle" x="412.6847" y="-175.5" font-family="Helvetica,sans-Serif" font-size="10.00" fill="#000000">Spline1D.h</text>
</a>
</g>
</g>
<!-- Node1&#45;&gt;Node9 -->
<g id="edge9" class="edge">
<title>Node1&#45;&gt;Node9</title>
<path fill="none" stroke="#191970" d="M290.9569,-280.3972C313.2643,-272.9736 342.1144,-261.0572 363.6847,-244 380.0559,-231.0541 393.7139,-211.3594 402.4157,-196.8521"/>
<polygon fill="#191970" stroke="#191970" points="405.678,-198.1993 407.6206,-187.784 399.607,-194.7146 405.678,-198.1993"/>
</g>
<!-- Node20 -->
<g id="node21" class="node">
<title>Node20</title>
<polygon fill="none" stroke="#bfbfbf" points="317.1847,-112.5 317.1847,-131.5 382.1847,-131.5 382.1847,-112.5 317.1847,-112.5"/>
<text text-anchor="middle" x="349.6847" y="-119.5" font-family="Helvetica,sans-Serif" font-size="10.00" fill="#000000">functional</text>
</g>
<!-- Node1&#45;&gt;Node20 -->
<g id="edge36" class="edge">
<title>Node1&#45;&gt;Node20</title>
<path fill="none" stroke="#191970" d="M274.431,-280.3803C287.6676,-272.3267 305.2038,-259.6473 315.6847,-244 336.9074,-212.3161 344.9795,-167.5661 347.9788,-141.997"/>
<polygon fill="#191970" stroke="#191970" points="351.4947,-142.0185 349.0289,-131.7146 344.5309,-141.3073 351.4947,-142.0185"/>
</g>
<!-- Node21 -->
<g id="node22" class="node">
<title>Node21</title>
<g id="a_node22"><a xlink:href="../../dd/d27/Spline2D_8h.html" target="_top" xlink:title="Definition of Spline2D class. ">
<polygon fill="none" stroke="#000000" points="429.1847,-224.5 429.1847,-243.5 498.1847,-243.5 498.1847,-224.5 429.1847,-224.5"/>
<text text-anchor="middle" x="463.6847" y="-231.5" font-family="Helvetica,sans-Serif" font-size="10.00" fill="#000000">Spline2D.h</text>
</a>
</g>
</g>
<!-- Node1&#45;&gt;Node21 -->
<g id="edge24" class="edge">
<title>Node1&#45;&gt;Node21</title>
<path fill="none" stroke="#191970" d="M292.2693,-280.3733C327.3924,-270.8714 381.1978,-256.3153 419.1415,-246.0503"/>
<polygon fill="#191970" stroke="#191970" points="420.1701,-249.398 428.909,-243.4079 418.342,-242.6409 420.1701,-249.398"/>
</g>
<!-- Node22 -->
<g id="node23" class="node">
<title>Node22</title>
<g id="a_node23"><a xlink:href="../../d2/da7/SplineHelper1D_8h.html" target="_top" xlink:title="Definition of SplineHelper1D class. ">
<polygon fill="none" stroke="#000000" points="206.1847,-224.5 206.1847,-243.5 307.1847,-243.5 307.1847,-224.5 206.1847,-224.5"/>
<text text-anchor="middle" x="256.6847" y="-231.5" font-family="Helvetica,sans-Serif" font-size="10.00" fill="#000000">SplineHelper1D.h</text>
</a>
</g>
</g>
<!-- Node1&#45;&gt;Node22 -->
<g id="edge28" class="edge">
<title>Node1&#45;&gt;Node22</title>
<path fill="none" stroke="#191970" d="M256.6847,-280.2455C256.6847,-272.9382 256.6847,-262.6944 256.6847,-253.7046"/>
<polygon fill="#191970" stroke="#191970" points="260.1848,-253.6426 256.6847,-243.6427 253.1848,-253.6427 260.1848,-253.6426"/>
</g>
<!-- Node5 -->
<g id="node6" class="node">
<title>Node5</title>
<g id="a_node6"><a xlink:href="../../d5/d93/GPUCommonDefSettings_8h.html" target="_top" xlink:title="GPUCommonDefSettings.h">
<polygon fill="none" stroke="#000000" points="143.6847,-.5 143.6847,-19.5 291.6847,-19.5 291.6847,-.5 143.6847,-.5"/>
<text text-anchor="middle" x="217.6847" y="-7.5" font-family="Helvetica,sans-Serif" font-size="10.00" fill="#000000">GPUCommonDefSettings.h</text>
</a>
</g>
</g>
<!-- Node4&#45;&gt;Node5 -->
<g id="edge5" class="edge">
<title>Node4&#45;&gt;Node5</title>
<path fill="none" stroke="#191970" d="M196.2136,-56.2455C199.7181,-48.6973 204.6774,-38.0158 208.947,-28.8197"/>
<polygon fill="#191970" stroke="#191970" points="212.1711,-30.1867 213.2078,-19.6427 205.8221,-27.2389 212.1711,-30.1867"/>
</g>
<!-- Node6 -->
<g id="node7" class="node">
<title>Node6</title>
<g id="a_node7"><a xlink:href="../../da/d5a/GPUCommonDefAPI_8h.html" target="_top" xlink:title="GPUCommonDefAPI.h">
<polygon fill="none" stroke="#000000" points="1.6847,-.5 1.6847,-19.5 125.6847,-19.5 125.6847,-.5 1.6847,-.5"/>
<text text-anchor="middle" x="63.6847" y="-7.5" font-family="Helvetica,sans-Serif" font-size="10.00" fill="#000000">GPUCommonDefAPI.h</text>
</a>
</g>
</g>
<!-- Node4&#45;&gt;Node6 -->
<g id="edge6" class="edge">
<title>Node4&#45;&gt;Node6</title>
<path fill="none" stroke="#191970" d="M169.6807,-56.3733C149.0413,-47.3435 117.969,-33.7494 94.7958,-23.6111"/>
<polygon fill="#191970" stroke="#191970" points="95.966,-20.3028 85.4016,-19.5011 93.1603,-26.7159 95.966,-20.3028"/>
</g>
<!-- Node9&#45;&gt;Node4 -->
<g id="edge10" class="edge">
<title>Node9&#45;&gt;Node4</title>
<path fill="none" stroke="#191970" d="M412.4698,-168.3607C411.6042,-153.9306 407.7805,-126.8274 391.6847,-112 371.9698,-93.8386 306.3362,-81.1349 255.5739,-73.7474"/>
<polygon fill="#191970" stroke="#191970" points="256.0296,-70.2771 245.6377,-72.3408 255.0483,-77.208 256.0296,-70.2771"/>
</g>
<!-- Node10 -->
<g id="node11" class="node">
<title>Node10</title>
<g id="a_node11"><a xlink:href="../../db/dff/FlatObject_8h.html" target="_top" xlink:title="Definition of FlatObject class. ">
<polygon fill="none" stroke="#000000" points="504.1847,-112.5 504.1847,-131.5 579.1847,-131.5 579.1847,-112.5 504.1847,-112.5"/>
<text text-anchor="middle" x="541.6847" y="-119.5" font-family="Helvetica,sans-Serif" font-size="10.00" fill="#000000">FlatObject.h</text>
</a>
</g>
</g>
<!-- Node9&#45;&gt;Node10 -->
<g id="edge11" class="edge">
<title>Node9&#45;&gt;Node10</title>
<path fill="none" stroke="#191970" d="M434.8606,-168.3733C455.6613,-159.3435 486.9764,-145.7494 510.3306,-135.6111"/>
<polygon fill="#191970" stroke="#191970" points="512.019,-138.6938 519.7982,-131.5011 509.2315,-132.2727 512.019,-138.6938"/>
</g>
<!-- Node9&#45;&gt;Node20 -->
<g id="edge23" class="edge">
<title>Node9&#45;&gt;Node20</title>
<path fill="none" stroke="#191970" d="M401.711,-168.2455C392.4965,-160.0549 379.1315,-148.1749 368.255,-138.5069"/>
<polygon fill="#191970" stroke="#191970" points="370.3321,-135.6704 360.5327,-131.6427 365.6816,-140.9023 370.3321,-135.6704"/>
</g>
<!-- Node10&#45;&gt;Node4 -->
<g id="edge17" class="edge">
<title>Node10&#45;&gt;Node4</title>
<path fill="none" stroke="#191970" d="M503.9409,-114.5724C499.1472,-113.6789 494.3044,-112.8005 489.6847,-112 409.1097,-98.0384 315.9086,-83.9875 255.4927,-75.155"/>
<polygon fill="#191970" stroke="#191970" points="255.7456,-71.6549 245.3453,-73.6755 254.7356,-78.5817 255.7456,-71.6549"/>
</g>
<!-- Node11 -->
<g id="node12" class="node">
<title>Node11</title>
<polygon fill="none" stroke="#bfbfbf" points="582.1847,-56.5 582.1847,-75.5 635.1847,-75.5 635.1847,-56.5 582.1847,-56.5"/>
<text text-anchor="middle" x="608.6847" y="-63.5" font-family="Helvetica,sans-Serif" font-size="10.00" fill="#000000">cstddef</text>
</g>
<!-- Node10&#45;&gt;Node11 -->
<g id="edge12" class="edge">
<title>Node10&#45;&gt;Node11</title>
<path fill="none" stroke="#191970" d="M553.3552,-112.2455C563.2508,-103.9746 577.6474,-91.9416 589.2748,-82.2232"/>
<polygon fill="#191970" stroke="#191970" points="591.7197,-84.7413 597.148,-75.6427 587.2305,-79.3703 591.7197,-84.7413"/>
</g>
<!-- Node12 -->
<g id="node13" class="node">
<title>Node12</title>
<polygon fill="none" stroke="#bfbfbf" points="653.6847,-56.5 653.6847,-75.5 711.6847,-75.5 711.6847,-56.5 653.6847,-56.5"/>
<text text-anchor="middle" x="682.6847" y="-63.5" font-family="Helvetica,sans-Serif" font-size="10.00" fill="#000000">memory</text>
</g>
<!-- Node10&#45;&gt;Node12 -->
<g id="edge13" class="edge">
<title>Node10&#45;&gt;Node12</title>
<path fill="none" stroke="#191970" d="M565.9235,-112.3733C588.9637,-103.2226 623.8061,-89.3844 649.4348,-79.2057"/>
<polygon fill="#191970" stroke="#191970" points="650.7604,-82.4452 658.7623,-75.5011 648.1765,-75.9395 650.7604,-82.4452"/>
</g>
<!-- Node13 -->
<g id="node14" class="node">
<title>Node13</title>
<polygon fill="none" stroke="#bfbfbf" points="729.6847,-56.5 729.6847,-75.5 779.6847,-75.5 779.6847,-56.5 729.6847,-56.5"/>
<text text-anchor="middle" x="754.6847" y="-63.5" font-family="Helvetica,sans-Serif" font-size="10.00" fill="#000000">cstring</text>
</g>
<!-- Node10&#45;&gt;Node13 -->
<g id="edge14" class="edge">
<title>Node10&#45;&gt;Node13</title>
<path fill="none" stroke="#191970" d="M579.4997,-112.6848C613.7414,-104.1603 665.8025,-90.9779 719.7309,-76.2019"/>
<polygon fill="#191970" stroke="#191970" points="720.7487,-79.552 729.4614,-73.5238 718.8911,-72.803 720.7487,-79.552"/>
</g>
<!-- Node14 -->
<g id="node15" class="node">
<title>Node14</title>
<polygon fill="none" stroke="#bfbfbf" points="445.6847,-56.5 445.6847,-75.5 497.6847,-75.5 497.6847,-56.5 445.6847,-56.5"/>
<text text-anchor="middle" x="471.6847" y="-63.5" font-family="Helvetica,sans-Serif" font-size="10.00" fill="#000000">cassert</text>
</g>
<!-- Node10&#45;&gt;Node14 -->
<g id="edge15" class="edge">
<title>Node10&#45;&gt;Node14</title>
<path fill="none" stroke="#191970" d="M529.4917,-112.2455C519.0526,-103.8943 503.8193,-91.7076 491.6108,-81.9408"/>
<polygon fill="#191970" stroke="#191970" points="493.7332,-79.1566 483.7381,-75.6427 489.3603,-84.6227 493.7332,-79.1566"/>
</g>
<!-- Node15 -->
<g id="node16" class="node">
<title>Node15</title>
<polygon fill="none" stroke="#bfbfbf" points="515.6847,-56.5 515.6847,-75.5 563.6847,-75.5 563.6847,-56.5 515.6847,-56.5"/>
<text text-anchor="middle" x="539.6847" y="-63.5" font-family="Helvetica,sans-Serif" font-size="10.00" fill="#000000">TFile.h</text>
</g>
<!-- Node10&#45;&gt;Node15 -->
<g id="edge16" class="edge">
<title>Node10&#45;&gt;Node15</title>
<path fill="none" stroke="#191970" d="M541.3364,-112.2455C541.0754,-104.9382 540.7095,-94.6944 540.3885,-85.7046"/>
<polygon fill="#191970" stroke="#191970" points="543.8839,-85.5113 540.0291,-75.6427 536.8884,-85.7613 543.8839,-85.5113"/>
</g>
<!-- Node16 -->
<g id="node17" class="node">
<title>Node16</title>
<g id="a_node17"><a xlink:href="../../d2/d45/GPUCommonRtypes_8h.html" target="_top" xlink:title="GPUCommonRtypes.h">
<polygon fill="none" stroke="#000000" points="302.1847,-56.5 302.1847,-75.5 427.1847,-75.5 427.1847,-56.5 302.1847,-56.5"/>
<text text-anchor="middle" x="364.6847" y="-63.5" font-family="Helvetica,sans-Serif" font-size="10.00" fill="#000000">GPUCommonRtypes.h</text>
</a>
</g>
</g>
<!-- Node10&#45;&gt;Node16 -->
<g id="edge18" class="edge">
<title>Node10&#45;&gt;Node16</title>
<path fill="none" stroke="#191970" d="M511.2573,-112.3733C481.6975,-103.021 436.6622,-88.7725 404.3152,-78.5385"/>
<polygon fill="#191970" stroke="#191970" points="405.3051,-75.1807 394.7151,-75.5011 403.1935,-81.8546 405.3051,-75.1807"/>
</g>
<!-- Node17 -->
<g id="node18" class="node">
<title>Node17</title>
<g id="a_node18"><a xlink:href="../../df/d5b/GPUCommonLogger_8h.html" target="_top" xlink:title="GPUCommonLogger.h">
<polygon fill="none" stroke="#000000" points="836.1847,-56.5 836.1847,-75.5 959.1847,-75.5 959.1847,-56.5 836.1847,-56.5"/>
<text text-anchor="middle" x="897.6847" y="-63.5" font-family="Helvetica,sans-Serif" font-size="10.00" fill="#000000">GPUCommonLogger.h</text>
</a>
</g>
</g>
<!-- Node10&#45;&gt;Node17 -->
<g id="edge20" class="edge">
<title>Node10&#45;&gt;Node17</title>
<path fill="none" stroke="#191970" d="M579.4459,-116.06C638.2384,-106.8118 752.6187,-88.8194 827.0371,-77.1131"/>
<polygon fill="#191970" stroke="#191970" points="827.9281,-80.5161 837.2627,-75.5046 826.8403,-73.6011 827.9281,-80.5161"/>
</g>
<!-- Node16&#45;&gt;Node7 -->
<g id="edge19" class="edge">
<title>Node16&#45;&gt;Node7</title>
<path fill="none" stroke="#191970" d="M364.6847,-56.2455C364.6847,-48.9382 364.6847,-38.6944 364.6847,-29.7046"/>
<polygon fill="#191970" stroke="#191970" points="368.1848,-29.6426 364.6847,-19.6427 361.1848,-29.6427 368.1848,-29.6426"/>
</g>
<!-- Node18 -->
<g id="node19" class="node">
<title>Node18</title>
<polygon fill="none" stroke="#bfbfbf" points="902.6847,-.5 902.6847,-19.5 962.6847,-19.5 962.6847,-.5 902.6847,-.5"/>
<text text-anchor="middle" x="932.6847" y="-7.5" font-family="Helvetica,sans-Serif" font-size="10.00" fill="#000000">iostream</text>
</g>
<!-- Node17&#45;&gt;Node18 -->
<g id="edge21" class="edge">
<title>Node17&#45;&gt;Node18</title>
<path fill="none" stroke="#191970" d="M903.7813,-56.2455C908.5993,-48.5367 915.4599,-37.5598 921.288,-28.2348"/>
<polygon fill="#191970" stroke="#191970" points="924.326,-29.9777 926.6581,-19.6427 918.39,-26.2677 924.326,-29.9777"/>
</g>
<!-- Node19 -->
<g id="node20" class="node">
<title>Node19</title>
<polygon fill="none" stroke="#bfbfbf" points="838.6847,-.5 838.6847,-19.5 884.6847,-19.5 884.6847,-.5 838.6847,-.5"/>
<text text-anchor="middle" x="861.6847" y="-7.5" font-family="Helvetica,sans-Serif" font-size="10.00" fill="#000000">cstdio</text>
</g>
<!-- Node17&#45;&gt;Node19 -->
<g id="edge22" class="edge">
<title>Node17&#45;&gt;Node19</title>
<path fill="none" stroke="#191970" d="M891.414,-56.2455C886.4583,-48.5367 879.4017,-37.5598 873.4071,-28.2348"/>
<polygon fill="#191970" stroke="#191970" points="876.2353,-26.1618 867.8836,-19.6427 870.3471,-29.9471 876.2353,-26.1618"/>
</g>
<!-- Node21&#45;&gt;Node4 -->
<g id="edge27" class="edge">
<title>Node21&#45;&gt;Node4</title>
<path fill="none" stroke="#191970" d="M464.3271,-224.1847C464.8273,-210.9122 464.4191,-186.747 456.6847,-168 444.5076,-138.4843 438.9049,-128.6889 411.6847,-112 385.9268,-96.2076 310.8261,-82.6886 255.506,-74.4716"/>
<polygon fill="#191970" stroke="#191970" points="255.8238,-70.9809 245.423,-72.9996 254.8125,-77.9075 255.8238,-70.9809"/>
</g>
<!-- Node21&#45;&gt;Node9 -->
<g id="edge25" class="edge">
<title>Node21&#45;&gt;Node9</title>
<path fill="none" stroke="#191970" d="M454.8012,-224.2455C447.4882,-216.2155 436.9456,-204.6394 428.238,-195.0781"/>
<polygon fill="#191970" stroke="#191970" points="430.7875,-192.6795 421.4664,-187.6427 425.6121,-197.3928 430.7875,-192.6795"/>
</g>
<!-- Node21&#45;&gt;Node10 -->
<g id="edge26" class="edge">
<title>Node21&#45;&gt;Node10</title>
<path fill="none" stroke="#191970" d="M470.335,-224.4509C483.402,-205.688 512.6055,-163.7548 529.3176,-139.758"/>
<polygon fill="#191970" stroke="#191970" points="532.2085,-141.7312 535.0513,-131.5249 526.4642,-137.7307 532.2085,-141.7312"/>
</g>
<!-- Node22&#45;&gt;Node2 -->
<g id="edge29" class="edge">
<title>Node22&#45;&gt;Node2</title>
<path fill="none" stroke="#191970" d="M215.5803,-224.4445C180.2907,-216.0798 127.8603,-203.2716 74.0994,-188.3"/>
<polygon fill="#191970" stroke="#191970" points="74.9785,-184.9116 64.4048,-185.5803 73.0877,-191.6514 74.9785,-184.9116"/>
</g>
<!-- Node22&#45;&gt;Node3 -->
<g id="edge30" class="edge">
<title>Node22&#45;&gt;Node3</title>
<path fill="none" stroke="#191970" d="M230.7269,-224.3733C205.3432,-214.9594 166.5828,-200.5847 138.9502,-190.3369"/>
<polygon fill="#191970" stroke="#191970" points="139.9117,-186.9606 129.3187,-186.7649 137.4776,-193.5238 139.9117,-186.9606"/>
</g>
<!-- Node22&#45;&gt;Node4 -->
<g id="edge31" class="edge">
<title>Node22&#45;&gt;Node4</title>
<path fill="none" stroke="#191970" d="M253.0038,-224.4862C242.6399,-197.6994 213.0637,-121.2565 199.1245,-85.2289"/>
<polygon fill="#191970" stroke="#191970" points="202.3598,-83.8912 195.4872,-75.8279 195.8314,-86.4171 202.3598,-83.8912"/>
</g>
<!-- Node22&#45;&gt;Node7 -->
<g id="edge32" class="edge">
<title>Node22&#45;&gt;Node7</title>
<path fill="none" stroke="#191970" d="M256.128,-224.1136C255.0068,-195.4043 255.25,-110.6111 292.6847,-56 302.1788,-42.1498 317.3552,-31.5538 331.332,-24.0423"/>
<polygon fill="#191970" stroke="#191970" points="332.9092,-27.167 340.2718,-19.5484 329.7652,-20.9127 332.9092,-27.167"/>
</g>
<!-- Node22&#45;&gt;Node8 -->
<g id="edge33" class="edge">
<title>Node22&#45;&gt;Node8</title>
<path fill="none" stroke="#191970" d="M242.924,-224.2455C231.0295,-215.814 213.6197,-203.4729 199.7762,-193.6598"/>
<polygon fill="#191970" stroke="#191970" points="201.4701,-190.5704 191.2878,-187.6427 197.4219,-196.2811 201.4701,-190.5704"/>
</g>
<!-- Node22&#45;&gt;Node9 -->
<g id="edge34" class="edge">
<title>Node22&#45;&gt;Node9</title>
<path fill="none" stroke="#191970" d="M283.5021,-224.3733C309.2179,-215.1419 348.2227,-201.1402 376.6446,-190.9375"/>
<polygon fill="#191970" stroke="#191970" points="377.9879,-194.174 386.2173,-187.5011 375.6228,-187.5857 377.9879,-194.174"/>
</g>
<!-- Node22&#45;&gt;Node20 -->
<g id="edge35" class="edge">
<title>Node22&#45;&gt;Node20</title>
<path fill="none" stroke="#191970" d="M264.6139,-224.4509C280.2624,-205.6054 315.3205,-163.3849 335.2017,-139.4419"/>
<polygon fill="#191970" stroke="#191970" points="338.08,-141.4543 341.7757,-131.5249 332.6946,-136.9824 338.08,-141.4543"/>
</g>
</g>
</svg>
