<?xml version="1.0" encoding="UTF-8" standalone="no"?>
<!DOCTYPE svg PUBLIC "-//W3C//DTD SVG 1.1//EN"
 "http://www.w3.org/Graphics/SVG/1.1/DTD/svg11.dtd">
<!-- Generated by graphviz version 2.40.1 (20161225.0304)
 -->
<!-- Title: /home/travis/build/AliceO2Group/AliceO2/GPU/GPUTracking/TPCClusterFinder/GPUTPCCFMCLabelFlattener.h Pages: 1 -->
<svg width="1778pt" height="565pt"
 viewBox="0.00 0.00 1777.50 565.00" xmlns="http://www.w3.org/2000/svg" xmlns:xlink="http://www.w3.org/1999/xlink">
<g id="graph0" class="graph" transform="scale(1 1) rotate(0) translate(4 561)">
<title>/home/travis/build/AliceO2Group/AliceO2/GPU/GPUTracking/TPCClusterFinder/GPUTPCCFMCLabelFlattener.h</title>
<!-- Node0 -->
<g id="node1" class="node">
<title>Node0</title>
<polygon fill="#bfbfbf" stroke="#000000" points="189.5,-504.5 189.5,-556.5 380.5,-556.5 380.5,-504.5 189.5,-504.5"/>
<text text-anchor="start" x="197.5" y="-544.5" font-family="Helvetica,sans-Serif" font-size="10.00" fill="#000000">/home/travis/build</text>
<text text-anchor="start" x="197.5" y="-533.5" font-family="Helvetica,sans-Serif" font-size="10.00" fill="#000000">/AliceO2Group/AliceO2</text>
<text text-anchor="start" x="197.5" y="-522.5" font-family="Helvetica,sans-Serif" font-size="10.00" fill="#000000">/GPU/GPUTracking/TPCClusterFinder</text>
<text text-anchor="middle" x="285" y="-511.5" font-family="Helvetica,sans-Serif" font-size="10.00" fill="#000000">/GPUTPCCFMCLabelFlattener.h</text>
</g>
<!-- Node1 -->
<g id="node2" class="node">
<title>Node1</title>
<g id="a_node2"><a xlink:href="../../d9/de5/GPUGeneralKernels_8h.html" target="_top" xlink:title="GPUGeneralKernels.h">
<polygon fill="none" stroke="#000000" points="116.5,-280.5 116.5,-299.5 237.5,-299.5 237.5,-280.5 116.5,-280.5"/>
<text text-anchor="middle" x="177" y="-287.5" font-family="Helvetica,sans-Serif" font-size="10.00" fill="#000000">GPUGeneralKernels.h</text>
</a>
</g>
</g>
<!-- Node0&#45;&gt;Node1 -->
<g id="edge1" class="edge">
<title>Node0&#45;&gt;Node1</title>
<path fill="none" stroke="#191970" d="M270.5157,-504.3C264.5567,-493.2126 257.7244,-480.0877 252,-468 225.0618,-411.1173 197.3097,-341.9645 184.4168,-309.1086"/>
<polygon fill="#191970" stroke="#191970" points="187.6709,-307.8197 180.7728,-299.7781 181.1505,-310.3662 187.6709,-307.8197"/>
</g>
<!-- Node14 -->
<g id="node15" class="node">
<title>Node14</title>
<g id="a_node15"><a xlink:href="../../d9/db0/clusterFinderDefs_8h.html" target="_top" xlink:title="clusterFinderDefs.h">
<polygon fill="none" stroke="#000000" points="252,-168.5 252,-187.5 362,-187.5 362,-168.5 252,-168.5"/>
<text text-anchor="middle" x="307" y="-175.5" font-family="Helvetica,sans-Serif" font-size="10.00" fill="#000000">clusterFinderDefs.h</text>
</a>
</g>
</g>
<!-- Node0&#45;&gt;Node14 -->
<g id="edge15" class="edge">
<title>Node0&#45;&gt;Node14</title>
<path fill="none" stroke="#191970" d="M278.7787,-504.0892C273.2375,-478.2286 266,-437.6315 266,-402 266,-402 266,-402 266,-290 266,-255.3444 283.5245,-218.1312 295.6592,-196.5174"/>
<polygon fill="#191970" stroke="#191970" points="298.7581,-198.1511 300.773,-187.7496 292.7114,-194.6243 298.7581,-198.1511"/>
</g>
<!-- Node15 -->
<g id="node16" class="node">
<title>Node15</title>
<g id="a_node16"><a xlink:href="../../d6/d4b/GPUTPCClusterFinder_8h.html" target="_top" xlink:title="GPUTPCClusterFinder.h">
<polygon fill="none" stroke="#000000" points="294,-280.5 294,-299.5 422,-299.5 422,-280.5 294,-280.5"/>
<text text-anchor="middle" x="358" y="-287.5" font-family="Helvetica,sans-Serif" font-size="10.00" fill="#000000">GPUTPCClusterFinder.h</text>
</a>
</g>
</g>
<!-- Node0&#45;&gt;Node15 -->
<g id="edge17" class="edge">
<title>Node0&#45;&gt;Node15</title>
<path fill="none" stroke="#191970" d="M292.9512,-504.3045C307.7046,-455.6991 339.0024,-352.588 352.0718,-309.5305"/>
<polygon fill="#191970" stroke="#191970" points="355.4921,-310.3124 355.0475,-299.7269 348.7939,-308.2792 355.4921,-310.3124"/>
</g>
<!-- Node19 -->
<g id="node20" class="node">
<title>Node19</title>
<g id="a_node20"><a xlink:href="../../db/df8/GPUConstantMem_8h.html" target="_top" xlink:title="GPUConstantMem.h">
<polygon fill="none" stroke="#000000" points="547,-448.5 547,-467.5 661,-467.5 661,-448.5 547,-448.5"/>
<text text-anchor="middle" x="604" y="-455.5" font-family="Helvetica,sans-Serif" font-size="10.00" fill="#000000">GPUConstantMem.h</text>
</a>
</g>
</g>
<!-- Node0&#45;&gt;Node19 -->
<g id="edge27" class="edge">
<title>Node0&#45;&gt;Node19</title>
<path fill="none" stroke="#191970" d="M380.7105,-508.7476C436.9619,-495.9632 505.8867,-480.2985 552.1514,-469.7838"/>
<polygon fill="#191970" stroke="#191970" points="552.9798,-473.1848 561.9555,-467.5556 551.4284,-466.3589 552.9798,-473.1848"/>
</g>
<!-- Node2 -->
<g id="node3" class="node">
<title>Node2</title>
<g id="a_node3"><a xlink:href="../../d2/d6d/GPUDef_8h.html" target="_top" xlink:title="GPUDef.h">
<polygon fill="none" stroke="#000000" points="358.5,-112.5 358.5,-131.5 421.5,-131.5 421.5,-112.5 358.5,-112.5"/>
<text text-anchor="middle" x="390" y="-119.5" font-family="Helvetica,sans-Serif" font-size="10.00" fill="#000000">GPUDef.h</text>
</a>
</g>
</g>
<!-- Node1&#45;&gt;Node2 -->
<g id="edge2" class="edge">
<title>Node1&#45;&gt;Node2</title>
<path fill="none" stroke="#191970" d="M179.4637,-280.4745C185.8763,-257.5837 205.2692,-199.0827 243,-168 273.0777,-143.2219 316.5469,-131.7476 348.4146,-126.4599"/>
<polygon fill="#191970" stroke="#191970" points="348.9627,-129.9169 358.322,-124.9515 347.9091,-122.9966 348.9627,-129.9169"/>
</g>
<!-- Node12 -->
<g id="node13" class="node">
<title>Node12</title>
<g id="a_node13"><a xlink:href="../../d4/dc5/GPUDataTypes_8h.html" target="_top" xlink:title="GPUDataTypes.h">
<polygon fill="none" stroke="#000000" points="478,-224.5 478,-243.5 576,-243.5 576,-224.5 478,-224.5"/>
<text text-anchor="middle" x="527" y="-231.5" font-family="Helvetica,sans-Serif" font-size="10.00" fill="#000000">GPUDataTypes.h</text>
</a>
</g>
</g>
<!-- Node1&#45;&gt;Node12 -->
<g id="edge12" class="edge">
<title>Node1&#45;&gt;Node12</title>
<path fill="none" stroke="#191970" d="M236.7695,-280.4369C301.3562,-270.103 403.6391,-253.7377 467.9459,-243.4487"/>
<polygon fill="#191970" stroke="#191970" points="468.6077,-246.8874 477.9291,-241.8513 467.5017,-239.9753 468.6077,-246.8874"/>
</g>
<!-- Node3 -->
<g id="node4" class="node">
<title>Node3</title>
<g id="a_node4"><a xlink:href="../../df/d21/GPUCommonDef_8h.html" target="_top" xlink:title="GPUCommonDef.h">
<polygon fill="none" stroke="#000000" points="675.5,-56.5 675.5,-75.5 782.5,-75.5 782.5,-56.5 675.5,-56.5"/>
<text text-anchor="middle" x="729" y="-63.5" font-family="Helvetica,sans-Serif" font-size="10.00" fill="#000000">GPUCommonDef.h</text>
</a>
</g>
</g>
<!-- Node2&#45;&gt;Node3 -->
<g id="edge3" class="edge">
<title>Node2&#45;&gt;Node3</title>
<path fill="none" stroke="#191970" d="M421.6246,-114.8712C426.4314,-113.8613 431.3407,-112.8714 436,-112 458.0846,-107.8695 586.2482,-87.9894 665.5808,-75.7551"/>
<polygon fill="#191970" stroke="#191970" points="666.1298,-79.2119 675.4798,-74.2291 665.0633,-72.2936 666.1298,-79.2119"/>
</g>
<!-- Node6 -->
<g id="node7" class="node">
<title>Node6</title>
<g id="a_node7"><a xlink:href="../../d2/d37/GPUDefConstantsAndSettings_8h.html" target="_top" xlink:title="GPUDefConstantsAndSettings.h">
<polygon fill="none" stroke="#000000" points="483.5,-56.5 483.5,-75.5 654.5,-75.5 654.5,-56.5 483.5,-56.5"/>
<text text-anchor="middle" x="569" y="-63.5" font-family="Helvetica,sans-Serif" font-size="10.00" fill="#000000">GPUDefConstantsAndSettings.h</text>
</a>
</g>
</g>
<!-- Node2&#45;&gt;Node6 -->
<g id="edge6" class="edge">
<title>Node2&#45;&gt;Node6</title>
<path fill="none" stroke="#191970" d="M420.7712,-112.3733C450.665,-103.021 496.2093,-88.7725 528.9217,-78.5385"/>
<polygon fill="#191970" stroke="#191970" points="530.1315,-81.8273 538.6303,-75.5011 528.0414,-75.1466 530.1315,-81.8273"/>
</g>
<!-- Node7 -->
<g id="node8" class="node">
<title>Node7</title>
<g id="a_node8"><a xlink:href="../../dc/de9/GPUDefGPUParameters_8h.html" target="_top" xlink:title="GPUDefGPUParameters.h">
<polygon fill="none" stroke="#000000" points="0,-56.5 0,-75.5 140,-75.5 140,-56.5 0,-56.5"/>
<text text-anchor="middle" x="70" y="-63.5" font-family="Helvetica,sans-Serif" font-size="10.00" fill="#000000">GPUDefGPUParameters.h</text>
</a>
</g>
</g>
<!-- Node2&#45;&gt;Node7 -->
<g id="edge7" class="edge">
<title>Node2&#45;&gt;Node7</title>
<path fill="none" stroke="#191970" d="M358.4414,-116.4772C306.6237,-107.4091 202.4934,-89.1863 134.5524,-77.2967"/>
<polygon fill="#191970" stroke="#191970" points="134.841,-73.7941 124.3873,-75.5178 133.6343,-80.6893 134.841,-73.7941"/>
</g>
<!-- Node9 -->
<g id="node10" class="node">
<title>Node9</title>
<g id="a_node10"><a xlink:href="../../d3/d4c/GPUDefOpenCL12Templates_8h.html" target="_top" xlink:title="GPUDefOpenCL12Templates.h">
<polygon fill="none" stroke="#000000" points="158,-56.5 158,-75.5 322,-75.5 322,-56.5 158,-56.5"/>
<text text-anchor="middle" x="240" y="-63.5" font-family="Helvetica,sans-Serif" font-size="10.00" fill="#000000">GPUDefOpenCL12Templates.h</text>
</a>
</g>
</g>
<!-- Node2&#45;&gt;Node9 -->
<g id="edge9" class="edge">
<title>Node2&#45;&gt;Node9</title>
<path fill="none" stroke="#191970" d="M364.2141,-112.3733C339.5953,-103.1822 302.31,-89.2624 275.0125,-79.0713"/>
<polygon fill="#191970" stroke="#191970" points="276.042,-75.7198 265.4494,-75.5011 273.5937,-82.2777 276.042,-75.7198"/>
</g>
<!-- Node10 -->
<g id="node11" class="node">
<title>Node10</title>
<g id="a_node11"><a xlink:href="../../d2/d45/GPUCommonRtypes_8h.html" target="_top" xlink:title="GPUCommonRtypes.h">
<polygon fill="none" stroke="#000000" points="340.5,-56.5 340.5,-75.5 465.5,-75.5 465.5,-56.5 340.5,-56.5"/>
<text text-anchor="middle" x="403" y="-63.5" font-family="Helvetica,sans-Serif" font-size="10.00" fill="#000000">GPUCommonRtypes.h</text>
</a>
</g>
</g>
<!-- Node2&#45;&gt;Node10 -->
<g id="edge10" class="edge">
<title>Node2&#45;&gt;Node10</title>
<path fill="none" stroke="#191970" d="M392.2644,-112.2455C393.9794,-104.8579 396.3912,-94.4689 398.4944,-85.4087"/>
<polygon fill="#191970" stroke="#191970" points="401.9095,-86.1751 400.7615,-75.6427 395.0908,-84.5922 401.9095,-86.1751"/>
</g>
<!-- Node4 -->
<g id="node5" class="node">
<title>Node4</title>
<g id="a_node5"><a xlink:href="../../d5/d93/GPUCommonDefSettings_8h.html" target="_top" xlink:title="GPUCommonDefSettings.h">
<polygon fill="none" stroke="#000000" points="578,-.5 578,-19.5 726,-19.5 726,-.5 578,-.5"/>
<text text-anchor="middle" x="652" y="-7.5" font-family="Helvetica,sans-Serif" font-size="10.00" fill="#000000">GPUCommonDefSettings.h</text>
</a>
</g>
</g>
<!-- Node3&#45;&gt;Node4 -->
<g id="edge4" class="edge">
<title>Node3&#45;&gt;Node4</title>
<path fill="none" stroke="#191970" d="M715.5876,-56.2455C703.9943,-47.814 687.0252,-35.4729 673.5322,-25.6598"/>
<polygon fill="#191970" stroke="#191970" points="675.4047,-22.6938 665.2587,-19.6427 671.2874,-28.355 675.4047,-22.6938"/>
</g>
<!-- Node5 -->
<g id="node6" class="node">
<title>Node5</title>
<g id="a_node6"><a xlink:href="../../da/d5a/GPUCommonDefAPI_8h.html" target="_top" xlink:title="GPUCommonDefAPI.h">
<polygon fill="none" stroke="#000000" points="744,-.5 744,-19.5 868,-19.5 868,-.5 744,-.5"/>
<text text-anchor="middle" x="806" y="-7.5" font-family="Helvetica,sans-Serif" font-size="10.00" fill="#000000">GPUCommonDefAPI.h</text>
</a>
</g>
</g>
<!-- Node3&#45;&gt;Node5 -->
<g id="edge5" class="edge">
<title>Node3&#45;&gt;Node5</title>
<path fill="none" stroke="#191970" d="M742.4124,-56.2455C754.0057,-47.814 770.9748,-35.4729 784.4678,-25.6598"/>
<polygon fill="#191970" stroke="#191970" points="786.7126,-28.355 792.7413,-19.6427 782.5953,-22.6938 786.7126,-28.355"/>
</g>
<!-- Node8 -->
<g id="node9" class="node">
<title>Node8</title>
<g id="a_node9"><a xlink:href="../../d6/dff/GPUDefMacros_8h.html" target="_top" xlink:title="GPUDefMacros.h">
<polygon fill="none" stroke="#000000" points="21,-.5 21,-19.5 119,-19.5 119,-.5 21,-.5"/>
<text text-anchor="middle" x="70" y="-7.5" font-family="Helvetica,sans-Serif" font-size="10.00" fill="#000000">GPUDefMacros.h</text>
</a>
</g>
</g>
<!-- Node7&#45;&gt;Node8 -->
<g id="edge8" class="edge">
<title>Node7&#45;&gt;Node8</title>
<path fill="none" stroke="#191970" d="M70,-56.2455C70,-48.9382 70,-38.6944 70,-29.7046"/>
<polygon fill="#191970" stroke="#191970" points="73.5001,-29.6426 70,-19.6427 66.5001,-29.6427 73.5001,-29.6426"/>
</g>
<!-- Node11 -->
<g id="node12" class="node">
<title>Node11</title>
<polygon fill="none" stroke="#bfbfbf" points="373.5,-.5 373.5,-19.5 432.5,-19.5 432.5,-.5 373.5,-.5"/>
<text text-anchor="middle" x="403" y="-7.5" font-family="Helvetica,sans-Serif" font-size="10.00" fill="#000000">Rtypes.h</text>
</g>
<!-- Node10&#45;&gt;Node11 -->
<g id="edge11" class="edge">
<title>Node10&#45;&gt;Node11</title>
<path fill="none" stroke="#191970" d="M403,-56.2455C403,-48.9382 403,-38.6944 403,-29.7046"/>
<polygon fill="#191970" stroke="#191970" points="406.5001,-29.6426 403,-19.6427 399.5001,-29.6427 406.5001,-29.6426"/>
</g>
<!-- Node12&#45;&gt;Node3 -->
<g id="edge13" class="edge">
<title>Node12&#45;&gt;Node3</title>
<path fill="none" stroke="#191970" d="M527.2542,-224.1687C528.3966,-201.1189 534.5293,-143.1923 567,-112 581.371,-98.1948 626.3721,-86.0487 665.3077,-77.7092"/>
<polygon fill="#191970" stroke="#191970" points="666.5004,-81.0358 675.5743,-75.5662 665.0701,-74.1834 666.5004,-81.0358"/>
</g>
<!-- Node13 -->
<g id="node14" class="node">
<title>Node13</title>
<polygon fill="none" stroke="#bfbfbf" points="609.5,-168.5 609.5,-187.5 662.5,-187.5 662.5,-168.5 609.5,-168.5"/>
<text text-anchor="middle" x="636" y="-175.5" font-family="Helvetica,sans-Serif" font-size="10.00" fill="#000000">cstddef</text>
</g>
<!-- Node12&#45;&gt;Node13 -->
<g id="edge14" class="edge">
<title>Node12&#45;&gt;Node13</title>
<path fill="none" stroke="#191970" d="M545.9864,-224.2455C563.1792,-215.4125 588.7238,-202.2887 608.2132,-192.2758"/>
<polygon fill="#191970" stroke="#191970" points="609.9359,-195.3257 617.2312,-187.6427 606.737,-189.0993 609.9359,-195.3257"/>
</g>
<!-- Node14&#45;&gt;Node2 -->
<g id="edge16" class="edge">
<title>Node14&#45;&gt;Node2</title>
<path fill="none" stroke="#191970" d="M321.4575,-168.2455C334.0732,-159.7337 352.5944,-147.2375 367.2045,-137.3801"/>
<polygon fill="#191970" stroke="#191970" points="369.3761,-140.1371 375.7082,-131.6427 365.4609,-134.3343 369.3761,-140.1371"/>
</g>
<!-- Node15&#45;&gt;Node2 -->
<g id="edge18" class="edge">
<title>Node15&#45;&gt;Node2</title>
<path fill="none" stroke="#191970" d="M359.8121,-280.4862C364.8925,-253.8144 379.3501,-177.9117 386.2486,-141.695"/>
<polygon fill="#191970" stroke="#191970" points="389.695,-142.3062 388.128,-131.8279 382.8186,-140.9963 389.695,-142.3062"/>
</g>
<!-- Node15&#45;&gt;Node12 -->
<g id="edge24" class="edge">
<title>Node15&#45;&gt;Node12</title>
<path fill="none" stroke="#191970" d="M387.0521,-280.3733C415.1543,-271.0613 457.9054,-256.8953 488.7607,-246.671"/>
<polygon fill="#191970" stroke="#191970" points="489.9355,-249.969 498.327,-243.5011 487.7336,-243.3243 489.9355,-249.969"/>
</g>
<!-- Node16 -->
<g id="node17" class="node">
<title>Node16</title>
<g id="a_node17"><a xlink:href="../../d6/d57/GPUProcessor_8h.html" target="_top" xlink:title="GPUProcessor.h">
<polygon fill="none" stroke="#000000" points="632.5,-224.5 632.5,-243.5 725.5,-243.5 725.5,-224.5 632.5,-224.5"/>
<text text-anchor="middle" x="679" y="-231.5" font-family="Helvetica,sans-Serif" font-size="10.00" fill="#000000">GPUProcessor.h</text>
</a>
</g>
</g>
<!-- Node15&#45;&gt;Node16 -->
<g id="edge19" class="edge">
<title>Node15&#45;&gt;Node16</title>
<path fill="none" stroke="#191970" d="M412.8171,-280.4369C471.3008,-270.2341 563.4855,-254.1521 622.5773,-243.8432"/>
<polygon fill="#191970" stroke="#191970" points="623.238,-247.2809 632.4877,-242.1143 622.0349,-240.385 623.238,-247.2809"/>
</g>
<!-- Node18 -->
<g id="node19" class="node">
<title>Node18</title>
<g id="a_node19"><a xlink:href="../../d6/deb/GPU_2GPUTracking_2TPCClusterFinder_2Digit_8h.html" target="_top" xlink:title="Digit.h">
<polygon fill="none" stroke="#000000" points="303.5,-224.5 303.5,-243.5 352.5,-243.5 352.5,-224.5 303.5,-224.5"/>
<text text-anchor="middle" x="328" y="-231.5" font-family="Helvetica,sans-Serif" font-size="10.00" fill="#000000">Digit.h</text>
</a>
</g>
</g>
<!-- Node15&#45;&gt;Node18 -->
<g id="edge25" class="edge">
<title>Node15&#45;&gt;Node18</title>
<path fill="none" stroke="#191970" d="M352.7744,-280.2455C348.6877,-272.617 342.8865,-261.7881 337.925,-252.5267"/>
<polygon fill="#191970" stroke="#191970" points="340.9732,-250.8047 333.1657,-243.6427 334.8028,-254.1103 340.9732,-250.8047"/>
</g>
<!-- Node16&#45;&gt;Node2 -->
<g id="edge21" class="edge">
<title>Node16&#45;&gt;Node2</title>
<path fill="none" stroke="#191970" d="M681.195,-224.4637C683.8674,-210.1682 686.4076,-183.2384 672,-168 655.6848,-150.744 505.9891,-133.5651 431.5845,-126.0033"/>
<polygon fill="#191970" stroke="#191970" points="431.9069,-122.5181 421.6071,-125.0011 431.2072,-129.4831 431.9069,-122.5181"/>
</g>
<!-- Node16&#45;&gt;Node3 -->
<g id="edge20" class="edge">
<title>Node16&#45;&gt;Node3</title>
<path fill="none" stroke="#191970" d="M681.8315,-224.4862C689.7695,-197.8144 712.3596,-121.9117 723.1384,-85.695"/>
<polygon fill="#191970" stroke="#191970" points="726.577,-86.4108 726.075,-75.8279 719.8678,-84.414 726.577,-86.4108"/>
</g>
<!-- Node16&#45;&gt;Node13 -->
<g id="edge22" class="edge">
<title>Node16&#45;&gt;Node13</title>
<path fill="none" stroke="#191970" d="M671.51,-224.2455C665.4674,-216.3761 656.8097,-205.101 649.5559,-195.6542"/>
<polygon fill="#191970" stroke="#191970" points="652.2705,-193.4426 643.4042,-187.6427 646.7185,-197.7058 652.2705,-193.4426"/>
</g>
<!-- Node17 -->
<g id="node18" class="node">
<title>Node17</title>
<polygon fill="none" stroke="#bfbfbf" points="880,-112.5 880,-131.5 944,-131.5 944,-112.5 880,-112.5"/>
<text text-anchor="middle" x="912" y="-119.5" font-family="Helvetica,sans-Serif" font-size="10.00" fill="#000000">algorithm</text>
</g>
<!-- Node16&#45;&gt;Node17 -->
<g id="edge23" class="edge">
<title>Node16&#45;&gt;Node17</title>
<path fill="none" stroke="#191970" d="M698.8654,-224.4509C740.0485,-204.6548 834.8889,-159.0663 882.9504,-135.9638"/>
<polygon fill="#191970" stroke="#191970" points="884.6883,-139.0118 892.1848,-131.5249 881.6557,-132.7028 884.6883,-139.0118"/>
</g>
<!-- Node18&#45;&gt;Node14 -->
<g id="edge26" class="edge">
<title>Node18&#45;&gt;Node14</title>
<path fill="none" stroke="#191970" d="M324.3421,-224.2455C321.5416,-216.7776 317.591,-206.2427 314.1676,-197.1137"/>
<polygon fill="#191970" stroke="#191970" points="317.4045,-195.777 310.616,-187.6427 310.8501,-198.2349 317.4045,-195.777"/>
</g>
<!-- Node19&#45;&gt;Node12 -->
<g id="edge66" class="edge">
<title>Node19&#45;&gt;Node12</title>
<path fill="none" stroke="#191970" d="M607.404,-448.2656C616.6617,-419.9684 639.5021,-336.1808 607,-280 598.4293,-265.1854 583.0807,-254.7247 568.1035,-247.5639"/>
<polygon fill="#191970" stroke="#191970" points="569.4537,-244.3342 558.89,-243.5223 566.6417,-250.7446 569.4537,-244.3342"/>
</g>
<!-- Node20 -->
<g id="node21" class="node">
<title>Node20</title>
<g id="a_node21"><a xlink:href="../../d6/d25/GPUTPCTracker_8h.html" target="_top" xlink:title="GPUTPCTracker.h">
<polygon fill="none" stroke="#000000" points="756,-392.5 756,-411.5 856,-411.5 856,-392.5 756,-392.5"/>
<text text-anchor="middle" x="806" y="-399.5" font-family="Helvetica,sans-Serif" font-size="10.00" fill="#000000">GPUTPCTracker.h</text>
</a>
</g>
</g>
<!-- Node19&#45;&gt;Node20 -->
<g id="edge28" class="edge">
<title>Node19&#45;&gt;Node20</title>
<path fill="none" stroke="#191970" d="M638.725,-448.3733C672.7508,-438.9404 724.7437,-424.5265 761.7234,-414.2747"/>
<polygon fill="#191970" stroke="#191970" points="763.0266,-417.5455 771.7281,-411.5011 761.1565,-410.7999 763.0266,-417.5455"/>
</g>
<!-- Node29 -->
<g id="node30" class="node">
<title>Node29</title>
<g id="a_node30"><a xlink:href="../../df/d13/GPUParam_8h.html" target="_top" xlink:title="GPUParam.h">
<polygon fill="none" stroke="#000000" points="1480.5,-280.5 1480.5,-299.5 1557.5,-299.5 1557.5,-280.5 1480.5,-280.5"/>
<text text-anchor="middle" x="1519" y="-287.5" font-family="Helvetica,sans-Serif" font-size="10.00" fill="#000000">GPUParam.h</text>
</a>
</g>
</g>
<!-- Node19&#45;&gt;Node29 -->
<g id="edge65" class="edge">
<title>Node19&#45;&gt;Node29</title>
<path fill="none" stroke="#191970" d="M659.0201,-448.467C711.8605,-439.2729 793.9228,-424.8927 865,-412 1091.5193,-370.9116 1361.7664,-319.848 1470.3306,-299.2507"/>
<polygon fill="#191970" stroke="#191970" points="1471.1532,-302.6572 1480.3252,-297.3539 1469.8479,-295.7799 1471.1532,-302.6572"/>
</g>
<!-- Node37 -->
<g id="node38" class="node">
<title>Node37</title>
<g id="a_node38"><a xlink:href="../../d7/d4f/GPUTRDDef_8h.html" target="_top" xlink:title="GPUTRDDef.h">
<polygon fill="none" stroke="#000000" points="439.5,-392.5 439.5,-411.5 522.5,-411.5 522.5,-392.5 439.5,-392.5"/>
<text text-anchor="middle" x="481" y="-399.5" font-family="Helvetica,sans-Serif" font-size="10.00" fill="#000000">GPUTRDDef.h</text>
</a>
</g>
</g>
<!-- Node19&#45;&gt;Node37 -->
<g id="edge67" class="edge">
<title>Node19&#45;&gt;Node37</title>
<path fill="none" stroke="#191970" d="M582.8555,-448.3733C563.1108,-439.3838 533.4302,-425.8706 511.1945,-415.7471"/>
<polygon fill="#191970" stroke="#191970" points="512.42,-412.4594 501.8685,-411.5011 509.5194,-418.8302 512.42,-412.4594"/>
</g>
<!-- Node38 -->
<g id="node39" class="node">
<title>Node38</title>
<g id="a_node39"><a xlink:href="../../da/d28/GPUO2FakeClasses_8h.html" target="_top" xlink:title="GPUO2FakeClasses.h">
<polygon fill="none" stroke="#000000" points="478,-280.5 478,-299.5 598,-299.5 598,-280.5 478,-280.5"/>
<text text-anchor="middle" x="538" y="-287.5" font-family="Helvetica,sans-Serif" font-size="10.00" fill="#000000">GPUO2FakeClasses.h</text>
</a>
</g>
</g>
<!-- Node19&#45;&gt;Node38 -->
<g id="edge69" class="edge">
<title>Node19&#45;&gt;Node38</title>
<path fill="none" stroke="#191970" d="M600.2625,-448.4862C589.7391,-421.6994 559.7079,-345.2565 545.5542,-309.2289"/>
<polygon fill="#191970" stroke="#191970" points="548.7752,-307.8556 541.861,-299.8279 542.2599,-310.4152 548.7752,-307.8556"/>
</g>
<!-- Node20&#45;&gt;Node16 -->
<g id="edge64" class="edge">
<title>Node20&#45;&gt;Node16</title>
<path fill="none" stroke="#191970" d="M755.9578,-395.1173C731.4878,-389.0328 703.9414,-377.5743 688,-356 665.8024,-325.9587 669.8569,-279.6127 674.5695,-253.544"/>
<polygon fill="#191970" stroke="#191970" points="678.0046,-254.2151 676.5549,-243.7199 671.1433,-252.8284 678.0046,-254.2151"/>
</g>
<!-- Node21 -->
<g id="node22" class="node">
<title>Node21</title>
<g id="a_node22"><a xlink:href="../../da/dab/GPUTPCDef_8h.html" target="_top" xlink:title="GPUTPCDef.h">
<polygon fill="none" stroke="#000000" points="920,-168.5 920,-187.5 1002,-187.5 1002,-168.5 920,-168.5"/>
<text text-anchor="middle" x="961" y="-175.5" font-family="Helvetica,sans-Serif" font-size="10.00" fill="#000000">GPUTPCDef.h</text>
</a>
</g>
</g>
<!-- Node20&#45;&gt;Node21 -->
<g id="edge29" class="edge">
<title>Node20&#45;&gt;Node21</title>
<path fill="none" stroke="#191970" d="M770.4402,-392.3459C752.2535,-385.4075 731.7363,-374.0179 721,-356 713.8824,-344.0551 703.5597,-307.3846 722,-280 764.1064,-217.4703 853.0727,-193.1129 909.7851,-183.7365"/>
<polygon fill="#191970" stroke="#191970" points="910.6357,-187.1465 919.9806,-182.1542 909.5621,-180.2293 910.6357,-187.1465"/>
</g>
<!-- Node22 -->
<g id="node23" class="node">
<title>Node22</title>
<polygon fill="none" stroke="#bfbfbf" points="730,-336.5 730,-355.5 790,-355.5 790,-336.5 730,-336.5"/>
<text text-anchor="middle" x="760" y="-343.5" font-family="Helvetica,sans-Serif" font-size="10.00" fill="#000000">iostream</text>
</g>
<!-- Node20&#45;&gt;Node22 -->
<g id="edge31" class="edge">
<title>Node20&#45;&gt;Node22</title>
<path fill="none" stroke="#191970" d="M797.9874,-392.2455C791.5232,-384.3761 782.2615,-373.101 774.5017,-363.6542"/>
<polygon fill="#191970" stroke="#191970" points="776.9727,-361.1484 767.9208,-355.6427 771.5636,-365.5916 776.9727,-361.1484"/>
</g>
<!-- Node23 -->
<g id="node24" class="node">
<title>Node23</title>
<g id="a_node24"><a xlink:href="../../dd/d7b/GPUTPCHitId_8h.html" target="_top" xlink:title="GPUTPCHitId.h">
<polygon fill="none" stroke="#000000" points="808.5,-336.5 808.5,-355.5 897.5,-355.5 897.5,-336.5 808.5,-336.5"/>
<text text-anchor="middle" x="853" y="-343.5" font-family="Helvetica,sans-Serif" font-size="10.00" fill="#000000">GPUTPCHitId.h</text>
</a>
</g>
</g>
<!-- Node20&#45;&gt;Node23 -->
<g id="edge32" class="edge">
<title>Node20&#45;&gt;Node23</title>
<path fill="none" stroke="#191970" d="M814.1868,-392.2455C820.8589,-384.2958 830.4479,-372.8706 838.4253,-363.3656"/>
<polygon fill="#191970" stroke="#191970" points="841.1592,-365.5525 844.907,-355.6427 835.7974,-361.0524 841.1592,-365.5525"/>
</g>
<!-- Node24 -->
<g id="node25" class="node">
<title>Node24</title>
<g id="a_node25"><a xlink:href="../../df/d4a/GPUTPCSliceData_8h.html" target="_top" xlink:title="GPUTPCSliceData.h">
<polygon fill="none" stroke="#000000" points="915,-336.5 915,-355.5 1027,-355.5 1027,-336.5 915,-336.5"/>
<text text-anchor="middle" x="971" y="-343.5" font-family="Helvetica,sans-Serif" font-size="10.00" fill="#000000">GPUTPCSliceData.h</text>
</a>
</g>
</g>
<!-- Node20&#45;&gt;Node24 -->
<g id="edge33" class="edge">
<title>Node20&#45;&gt;Node24</title>
<path fill="none" stroke="#191970" d="M834.3645,-392.3733C861.6827,-383.1016 903.1796,-369.0178 933.2738,-358.804"/>
<polygon fill="#191970" stroke="#191970" points="934.661,-362.0294 943.0056,-355.5011 932.4113,-355.4008 934.661,-362.0294"/>
</g>
<!-- Node34 -->
<g id="node35" class="node">
<title>Node34</title>
<g id="a_node35"><a xlink:href="../../de/d15/GPUTPCTrackParam_8h.html" target="_top" xlink:title="GPUTPCTrackParam.h">
<polygon fill="none" stroke="#000000" points="1060,-280.5 1060,-299.5 1182,-299.5 1182,-280.5 1060,-280.5"/>
<text text-anchor="middle" x="1121" y="-287.5" font-family="Helvetica,sans-Serif" font-size="10.00" fill="#000000">GPUTPCTrackParam.h</text>
</a>
</g>
</g>
<!-- Node20&#45;&gt;Node34 -->
<g id="edge56" class="edge">
<title>Node20&#45;&gt;Node34</title>
<path fill="none" stroke="#191970" d="M856.042,-398.6542C904.0558,-393.9328 977.6708,-382.6672 1036,-356 1062.3343,-343.9604 1087.9367,-322.3083 1104.0414,-307.0954"/>
<polygon fill="#191970" stroke="#191970" points="1106.8093,-309.2866 1111.5509,-299.812 1101.9358,-304.2618 1106.8093,-309.2866"/>
</g>
<!-- Node36 -->
<g id="node37" class="node">
<title>Node36</title>
<g id="a_node37"><a xlink:href="../../db/d6e/GPUTPCTracklet_8h.html" target="_top" xlink:title="GPUTPCTracklet.h">
<polygon fill="none" stroke="#000000" points="1576,-280.5 1576,-299.5 1680,-299.5 1680,-280.5 1576,-280.5"/>
<text text-anchor="middle" x="1628" y="-287.5" font-family="Helvetica,sans-Serif" font-size="10.00" fill="#000000">GPUTPCTracklet.h</text>
</a>
</g>
</g>
<!-- Node20&#45;&gt;Node36 -->
<g id="edge61" class="edge">
<title>Node20&#45;&gt;Node36</title>
<path fill="none" stroke="#191970" d="M856.3832,-395.7645C976.9639,-380.73 1291.8715,-340.8076 1565.6419,-300.1718"/>
<polygon fill="#191970" stroke="#191970" points="1566.3961,-303.5982 1575.7723,-298.665 1565.3662,-296.6744 1566.3961,-303.5982"/>
</g>
<!-- Node21&#45;&gt;Node2 -->
<g id="edge30" class="edge">
<title>Node21&#45;&gt;Node2</title>
<path fill="none" stroke="#191970" d="M919.9351,-173.9726C814.8831,-163.6698 537.2333,-136.4397 431.5989,-126.0798"/>
<polygon fill="#191970" stroke="#191970" points="431.925,-122.595 421.6311,-125.1022 431.2417,-129.5616 431.925,-122.595"/>
</g>
<!-- Node24&#45;&gt;Node21 -->
<g id="edge34" class="edge">
<title>Node24&#45;&gt;Node21</title>
<path fill="none" stroke="#191970" d="M951.1802,-336.4075C937.2961,-328.5986 919.575,-316.2194 910,-300 897.2189,-278.3496 903.7823,-269.0783 902,-244 901.3699,-235.1335 898.0993,-231.9873 902,-224 908.4041,-210.8865 920.5521,-200.4229 932.1685,-192.8092"/>
<polygon fill="#191970" stroke="#191970" points="934.1098,-195.7252 940.8439,-187.5457 930.4789,-189.7405 934.1098,-195.7252"/>
</g>
<!-- Node25 -->
<g id="node26" class="node">
<title>Node25</title>
<g id="a_node26"><a xlink:href="../../d8/dff/GPUTPCRow_8h.html" target="_top" xlink:title="GPUTPCRow.h">
<polygon fill="none" stroke="#000000" points="918.5,-280.5 918.5,-299.5 1003.5,-299.5 1003.5,-280.5 918.5,-280.5"/>
<text text-anchor="middle" x="961" y="-287.5" font-family="Helvetica,sans-Serif" font-size="10.00" fill="#000000">GPUTPCRow.h</text>
</a>
</g>
</g>
<!-- Node24&#45;&gt;Node25 -->
<g id="edge35" class="edge">
<title>Node24&#45;&gt;Node25</title>
<path fill="none" stroke="#191970" d="M969.2581,-336.2455C967.9533,-328.9382 966.124,-318.6944 964.5187,-309.7046"/>
<polygon fill="#191970" stroke="#191970" points="967.9254,-308.8717 962.7219,-299.6427 961.0344,-310.1022 967.9254,-308.8717"/>
</g>
<!-- Node27 -->
<g id="node28" class="node">
<title>Node27</title>
<g id="a_node28"><a xlink:href="../../d6/da2/GPUCommonMath_8h.html" target="_top" xlink:title="GPUCommonMath.h">
<polygon fill="none" stroke="#000000" points="1035.5,-168.5 1035.5,-187.5 1150.5,-187.5 1150.5,-168.5 1035.5,-168.5"/>
<text text-anchor="middle" x="1093" y="-175.5" font-family="Helvetica,sans-Serif" font-size="10.00" fill="#000000">GPUCommonMath.h</text>
</a>
</g>
</g>
<!-- Node24&#45;&gt;Node27 -->
<g id="edge39" class="edge">
<title>Node24&#45;&gt;Node27</title>
<path fill="none" stroke="#191970" d="M980.8255,-336.1764C989.6625,-327.1288 1002.7868,-313.1545 1013,-300 1040.1674,-265.0087 1067.5549,-220.8834 1082.1806,-196.4381"/>
<polygon fill="#191970" stroke="#191970" points="1085.3731,-197.9165 1087.4652,-187.5302 1079.3528,-194.3449 1085.3731,-197.9165"/>
</g>
<!-- Node24&#45;&gt;Node29 -->
<g id="edge43" class="edge">
<title>Node24&#45;&gt;Node29</title>
<path fill="none" stroke="#191970" d="M1027.0703,-340.2702C1134.8037,-329.2609 1369.0312,-305.3253 1470.5066,-294.9555"/>
<polygon fill="#191970" stroke="#191970" points="1470.8891,-298.4348 1480.4815,-293.9362 1470.1774,-291.471 1470.8891,-298.4348"/>
</g>
<!-- Node33 -->
<g id="node34" class="node">
<title>Node33</title>
<g id="a_node34"><a xlink:href="../../d5/da6/GPUMemoryResource_8h.html" target="_top" xlink:title="GPUMemoryResource.h">
<polygon fill="none" stroke="#000000" points="730.5,-280.5 730.5,-299.5 861.5,-299.5 861.5,-280.5 730.5,-280.5"/>
<text text-anchor="middle" x="796" y="-287.5" font-family="Helvetica,sans-Serif" font-size="10.00" fill="#000000">GPUMemoryResource.h</text>
</a>
</g>
</g>
<!-- Node24&#45;&gt;Node33 -->
<g id="edge53" class="edge">
<title>Node24&#45;&gt;Node33</title>
<path fill="none" stroke="#191970" d="M940.9164,-336.3733C911.8166,-327.0613 867.5477,-312.8953 835.597,-302.671"/>
<polygon fill="#191970" stroke="#191970" points="836.282,-299.2155 825.691,-299.5011 834.1485,-305.8824 836.282,-299.2155"/>
</g>
<!-- Node25&#45;&gt;Node21 -->
<g id="edge36" class="edge">
<title>Node25&#45;&gt;Node21</title>
<path fill="none" stroke="#191970" d="M943.9433,-280.377C931.6911,-272.4014 916.1292,-259.8248 909,-244 900.326,-224.746 918.0907,-206.1625 935.1662,-193.6481"/>
<polygon fill="#191970" stroke="#191970" points="937.6084,-196.2183 943.889,-187.6858 933.6583,-190.4393 937.6084,-196.2183"/>
</g>
<!-- Node26 -->
<g id="node27" class="node">
<title>Node26</title>
<g id="a_node27"><a xlink:href="../../d3/da7/GPUTPCGrid_8h.html" target="_top" xlink:title="GPUTPCGrid.h">
<polygon fill="none" stroke="#000000" points="918,-224.5 918,-243.5 1004,-243.5 1004,-224.5 918,-224.5"/>
<text text-anchor="middle" x="961" y="-231.5" font-family="Helvetica,sans-Serif" font-size="10.00" fill="#000000">GPUTPCGrid.h</text>
</a>
</g>
</g>
<!-- Node25&#45;&gt;Node26 -->
<g id="edge37" class="edge">
<title>Node25&#45;&gt;Node26</title>
<path fill="none" stroke="#191970" d="M961,-280.2455C961,-272.9382 961,-262.6944 961,-253.7046"/>
<polygon fill="#191970" stroke="#191970" points="964.5001,-253.6426 961,-243.6427 957.5001,-253.6427 964.5001,-253.6426"/>
</g>
<!-- Node26&#45;&gt;Node21 -->
<g id="edge38" class="edge">
<title>Node26&#45;&gt;Node21</title>
<path fill="none" stroke="#191970" d="M961,-224.2455C961,-216.9382 961,-206.6944 961,-197.7046"/>
<polygon fill="#191970" stroke="#191970" points="964.5001,-197.6426 961,-187.6427 957.5001,-197.6427 964.5001,-197.6426"/>
</g>
<!-- Node27&#45;&gt;Node3 -->
<g id="edge40" class="edge">
<title>Node27&#45;&gt;Node3</title>
<path fill="none" stroke="#191970" d="M1093.275,-168.1961C1093.1051,-153.5509 1090.4357,-126.1706 1074,-112 1053.13,-94.0062 886.8375,-78.3 792.9592,-70.7572"/>
<polygon fill="#191970" stroke="#191970" points="792.964,-67.2467 782.7182,-69.9437 792.4096,-74.2247 792.964,-67.2467"/>
</g>
<!-- Node27&#45;&gt;Node17 -->
<g id="edge42" class="edge">
<title>Node27&#45;&gt;Node17</title>
<path fill="none" stroke="#191970" d="M1061.885,-168.3733C1031.6571,-159.021 985.604,-144.7725 952.5261,-134.5385"/>
<polygon fill="#191970" stroke="#191970" points="953.2967,-131.1133 942.709,-131.5011 951.2277,-137.8005 953.2967,-131.1133"/>
</g>
<!-- Node28 -->
<g id="node29" class="node">
<title>Node28</title>
<polygon fill="none" stroke="#bfbfbf" points="1017.5,-112.5 1017.5,-131.5 1064.5,-131.5 1064.5,-112.5 1017.5,-112.5"/>
<text text-anchor="middle" x="1041" y="-119.5" font-family="Helvetica,sans-Serif" font-size="10.00" fill="#000000">cmath</text>
</g>
<!-- Node27&#45;&gt;Node28 -->
<g id="edge41" class="edge">
<title>Node27&#45;&gt;Node28</title>
<path fill="none" stroke="#191970" d="M1083.9423,-168.2455C1076.4858,-160.2155 1065.7366,-148.6394 1056.8583,-139.0781"/>
<polygon fill="#191970" stroke="#191970" points="1059.3232,-136.589 1049.9539,-131.6427 1054.1937,-141.3522 1059.3232,-136.589"/>
</g>
<!-- Node29&#45;&gt;Node2 -->
<g id="edge46" class="edge">
<title>Node29&#45;&gt;Node2</title>
<path fill="none" stroke="#191970" d="M1541.7286,-280.4321C1568.1179,-268.0136 1605.7715,-245.394 1587,-224 1548.0229,-179.5774 639.5289,-133.8495 431.9641,-123.9589"/>
<polygon fill="#191970" stroke="#191970" points="431.936,-120.4537 421.7813,-123.4757 431.6041,-127.4458 431.936,-120.4537"/>
</g>
<!-- Node29&#45;&gt;Node3 -->
<g id="edge44" class="edge">
<title>Node29&#45;&gt;Node3</title>
<path fill="none" stroke="#191970" d="M1541.8615,-280.4884C1567.8893,-268.3063 1604.6542,-246.1148 1587,-224 1446.8167,-48.3978 1315.2867,-150.9834 1094,-112 989.0188,-93.5058 865.7827,-79.5743 792.7158,-72.117"/>
<polygon fill="#191970" stroke="#191970" points="793.0475,-68.6328 782.7458,-71.108 792.3425,-75.5972 793.0475,-68.6328"/>
</g>
<!-- Node29&#45;&gt;Node27 -->
<g id="edge45" class="edge">
<title>Node29&#45;&gt;Node27</title>
<path fill="none" stroke="#191970" d="M1535.7594,-280.4836C1556.8567,-267.3464 1588.3609,-243.1118 1571,-224 1543.9767,-194.2512 1286.4612,-183.2194 1161.017,-179.5863"/>
<polygon fill="#191970" stroke="#191970" points="1160.8532,-176.0804 1150.7586,-179.2972 1160.656,-183.0776 1160.8532,-176.0804"/>
</g>
<!-- Node30 -->
<g id="node31" class="node">
<title>Node30</title>
<g id="a_node31"><a xlink:href="../../dd/dc6/GPUSettings_8h.html" target="_top" xlink:title="GPUSettings.h">
<polygon fill="none" stroke="#000000" points="1476,-224.5 1476,-243.5 1562,-243.5 1562,-224.5 1476,-224.5"/>
<text text-anchor="middle" x="1519" y="-231.5" font-family="Helvetica,sans-Serif" font-size="10.00" fill="#000000">GPUSettings.h</text>
</a>
</g>
</g>
<!-- Node29&#45;&gt;Node30 -->
<g id="edge47" class="edge">
<title>Node29&#45;&gt;Node30</title>
<path fill="none" stroke="#191970" d="M1519,-280.2455C1519,-272.9382 1519,-262.6944 1519,-253.7046"/>
<polygon fill="#191970" stroke="#191970" points="1522.5001,-253.6426 1519,-243.6427 1515.5001,-253.6427 1522.5001,-253.6426"/>
</g>
<!-- Node31 -->
<g id="node32" class="node">
<title>Node31</title>
<g id="a_node32"><a xlink:href="../../d6/d1b/GPUTPCGeometry_8h.html" target="_top" xlink:title="GPUTPCGeometry.h">
<polygon fill="none" stroke="#000000" points="1656.5,-112.5 1656.5,-131.5 1769.5,-131.5 1769.5,-112.5 1656.5,-112.5"/>
<text text-anchor="middle" x="1713" y="-119.5" font-family="Helvetica,sans-Serif" font-size="10.00" fill="#000000">GPUTPCGeometry.h</text>
</a>
</g>
</g>
<!-- Node29&#45;&gt;Node31 -->
<g id="edge49" class="edge">
<title>Node29&#45;&gt;Node31</title>
<path fill="none" stroke="#191970" d="M1551.7423,-280.497C1583.219,-270.8836 1628.0161,-255.7979 1642,-244 1675.2541,-215.9443 1696.5321,-168.1256 1706.4512,-141.4492"/>
<polygon fill="#191970" stroke="#191970" points="1709.8531,-142.3287 1709.9059,-131.734 1703.2577,-139.9834 1709.8531,-142.3287"/>
</g>
<!-- Node32 -->
<g id="node33" class="node">
<title>Node32</title>
<g id="a_node33"><a xlink:href="../../d9/d9c/GPUTPCGMPolynomialField_8h.html" target="_top" xlink:title="GPUTPCGMPolynomialField.h">
<polygon fill="none" stroke="#000000" points="1300,-224.5 1300,-243.5 1458,-243.5 1458,-224.5 1300,-224.5"/>
<text text-anchor="middle" x="1379" y="-231.5" font-family="Helvetica,sans-Serif" font-size="10.00" fill="#000000">GPUTPCGMPolynomialField.h</text>
</a>
</g>
</g>
<!-- Node29&#45;&gt;Node32 -->
<g id="edge51" class="edge">
<title>Node29&#45;&gt;Node32</title>
<path fill="none" stroke="#191970" d="M1494.9331,-280.3733C1472.1572,-271.2629 1437.7656,-257.5062 1412.351,-247.3404"/>
<polygon fill="#191970" stroke="#191970" points="1413.3375,-243.9654 1402.7528,-243.5011 1410.7377,-250.4648 1413.3375,-243.9654"/>
</g>
<!-- Node30&#45;&gt;Node27 -->
<g id="edge48" class="edge">
<title>Node30&#45;&gt;Node27</title>
<path fill="none" stroke="#191970" d="M1475.9091,-225.4807C1472.898,-224.9571 1469.906,-224.4576 1467,-224 1360.3778,-207.2106 1235.8417,-192.9554 1160.7701,-184.9418"/>
<polygon fill="#191970" stroke="#191970" points="1160.8261,-181.4281 1150.5124,-183.8528 1160.087,-188.389 1160.8261,-181.4281"/>
</g>
<!-- Node31&#45;&gt;Node3 -->
<g id="edge50" class="edge">
<title>Node31&#45;&gt;Node3</title>
<path fill="none" stroke="#191970" d="M1656.4728,-113.5731C1651.5842,-112.9856 1646.7089,-112.4493 1642,-112 1324.1678,-81.6722 942.0579,-70.6031 792.962,-67.2528"/>
<polygon fill="#191970" stroke="#191970" points="792.7087,-63.7465 782.6338,-67.0248 792.5541,-70.7448 792.7087,-63.7465"/>
</g>
<!-- Node32&#45;&gt;Node21 -->
<g id="edge52" class="edge">
<title>Node32&#45;&gt;Node21</title>
<path fill="none" stroke="#191970" d="M1302.7215,-224.4882C1231.3826,-215.4841 1121.896,-201.3883 1027,-188 1022.2305,-187.3271 1017.27,-186.6091 1012.3063,-185.8784"/>
<polygon fill="#191970" stroke="#191970" points="1012.5793,-182.3806 1002.1732,-184.3711 1011.5493,-189.3044 1012.5793,-182.3806"/>
</g>
<!-- Node33&#45;&gt;Node3 -->
<g id="edge54" class="edge">
<title>Node33&#45;&gt;Node3</title>
<path fill="none" stroke="#191970" d="M793.1211,-280.375C782.9414,-246.3415 748.5203,-131.262 734.7569,-85.247"/>
<polygon fill="#191970" stroke="#191970" points="738.0871,-84.1668 731.8682,-75.5891 731.3807,-86.1728 738.0871,-84.1668"/>
</g>
<!-- Node33&#45;&gt;Node16 -->
<g id="edge55" class="edge">
<title>Node33&#45;&gt;Node16</title>
<path fill="none" stroke="#191970" d="M775.887,-280.3733C757.1897,-271.4241 729.1256,-257.9917 708.0066,-247.8835"/>
<polygon fill="#191970" stroke="#191970" points="709.3817,-244.6614 698.8506,-243.5011 706.3595,-250.9755 709.3817,-244.6614"/>
</g>
<!-- Node34&#45;&gt;Node21 -->
<g id="edge59" class="edge">
<title>Node34&#45;&gt;Node21</title>
<path fill="none" stroke="#191970" d="M1107.3585,-280.4509C1079.6097,-261.0268 1016.3862,-216.7703 982.8421,-193.2895"/>
<polygon fill="#191970" stroke="#191970" points="984.8065,-190.3922 974.607,-187.5249 980.7922,-196.1269 984.8065,-190.3922"/>
</g>
<!-- Node34&#45;&gt;Node27 -->
<g id="edge60" class="edge">
<title>Node34&#45;&gt;Node27</title>
<path fill="none" stroke="#191970" d="M1118.6127,-280.4509C1114.0253,-262.1013 1103.8977,-221.5908 1097.8423,-197.3693"/>
<polygon fill="#191970" stroke="#191970" points="1101.2022,-196.3774 1095.3812,-187.5249 1094.4112,-198.0752 1101.2022,-196.3774"/>
</g>
<!-- Node35 -->
<g id="node36" class="node">
<title>Node35</title>
<g id="a_node36"><a xlink:href="../../df/d00/GPUTPCBaseTrackParam_8h.html" target="_top" xlink:title="GPUTPCBaseTrackParam.h">
<polygon fill="none" stroke="#000000" points="1136,-224.5 1136,-243.5 1282,-243.5 1282,-224.5 1136,-224.5"/>
<text text-anchor="middle" x="1209" y="-231.5" font-family="Helvetica,sans-Serif" font-size="10.00" fill="#000000">GPUTPCBaseTrackParam.h</text>
</a>
</g>
</g>
<!-- Node34&#45;&gt;Node35 -->
<g id="edge57" class="edge">
<title>Node34&#45;&gt;Node35</title>
<path fill="none" stroke="#191970" d="M1136.3284,-280.2455C1149.8303,-271.6534 1169.7122,-259.0014 1185.2686,-249.1018"/>
<polygon fill="#191970" stroke="#191970" points="1187.2897,-251.9643 1193.8472,-243.6427 1183.5315,-246.0587 1187.2897,-251.9643"/>
</g>
<!-- Node35&#45;&gt;Node21 -->
<g id="edge58" class="edge">
<title>Node35&#45;&gt;Node21</title>
<path fill="none" stroke="#191970" d="M1166.6491,-224.4369C1123.9486,-214.7948 1057.9943,-199.9019 1012.3414,-189.5932"/>
<polygon fill="#191970" stroke="#191970" points="1012.8757,-186.1258 1002.3504,-187.3372 1011.3339,-192.9539 1012.8757,-186.1258"/>
</g>
<!-- Node36&#45;&gt;Node21 -->
<g id="edge63" class="edge">
<title>Node36&#45;&gt;Node21</title>
<path fill="none" stroke="#191970" d="M1622.9268,-280.2227C1614.4716,-265.0841 1595.9339,-236.4237 1571,-224 1462.5621,-169.9691 1147.4445,-201.0863 1027,-188 1022.2115,-187.4797 1017.2381,-186.8648 1012.2662,-186.1997"/>
<polygon fill="#191970" stroke="#191970" points="1012.5113,-182.6999 1002.1223,-184.7781 1011.5398,-189.6322 1012.5113,-182.6999"/>
</g>
<!-- Node36&#45;&gt;Node35 -->
<g id="edge62" class="edge">
<title>Node36&#45;&gt;Node35</title>
<path fill="none" stroke="#191970" d="M1575.7751,-281.3163C1572.8079,-280.861 1569.8671,-280.4191 1567,-280 1515.6546,-272.4949 1380.909,-255.448 1292.1632,-244.3464"/>
<polygon fill="#191970" stroke="#191970" points="1292.4719,-240.8578 1282.1149,-243.0902 1291.6035,-247.8037 1292.4719,-240.8578"/>
</g>
<!-- Node37&#45;&gt;Node3 -->
<g id="edge68" class="edge">
<title>Node37&#45;&gt;Node3</title>
<path fill="none" stroke="#191970" d="M476.4258,-392.3613C467.8027,-373.278 450,-329.1405 450,-290 450,-290 450,-290 450,-178 450,-131.2773 586.4549,-95.1277 668.5061,-77.6141"/>
<polygon fill="#191970" stroke="#191970" points="669.408,-81.0011 678.4752,-75.5205 667.9693,-74.1506 669.408,-81.0011"/>
</g>
<!-- Node38&#45;&gt;Node3 -->
<g id="edge70" class="edge">
<title>Node38&#45;&gt;Node3</title>
<path fill="none" stroke="#191970" d="M551.697,-280.2567C562.433,-271.8742 576.8717,-258.8145 585,-244 601.6041,-213.7377 582.8775,-197.3782 601,-168 625.4997,-128.2837 671.2423,-97.5476 700.8902,-80.6146"/>
<polygon fill="#191970" stroke="#191970" points="702.861,-83.5237 709.9033,-75.608 699.4619,-77.4044 702.861,-83.5237"/>
</g>
<!-- Node38&#45;&gt;Node12 -->
<g id="edge71" class="edge">
<title>Node38&#45;&gt;Node12</title>
<path fill="none" stroke="#191970" d="M536.0839,-280.2455C534.6486,-272.9382 532.6364,-262.6944 530.8705,-253.7046"/>
<polygon fill="#191970" stroke="#191970" points="534.256,-252.7805 528.8941,-243.6427 527.3873,-254.1298 534.256,-252.7805"/>
</g>
</g>
</svg>
