<?xml version="1.0" encoding="UTF-8" standalone="no"?>
<!DOCTYPE svg PUBLIC "-//W3C//DTD SVG 1.1//EN"
 "http://www.w3.org/Graphics/SVG/1.1/DTD/svg11.dtd">
<!-- Generated by graphviz version 2.40.1 (20161225.0304)
 -->
<!-- Title: /home/travis/build/AliceO2Group/AliceO2/GPU/TPCFastTransformation/devtools/IrregularSpline1D.cxx Pages: 1 -->
<svg width="938pt" height="285pt"
 viewBox="0.00 0.00 937.50 285.00" xmlns="http://www.w3.org/2000/svg" xmlns:xlink="http://www.w3.org/1999/xlink">
<g id="graph0" class="graph" transform="scale(1 1) rotate(0) translate(4 281)">
<title>/home/travis/build/AliceO2Group/AliceO2/GPU/TPCFastTransformation/devtools/IrregularSpline1D.cxx</title>
<!-- Node0 -->
<g id="node1" class="node">
<title>Node0</title>
<polygon fill="#bfbfbf" stroke="#000000" points="730,-224.5 730,-276.5 900,-276.5 900,-224.5 730,-224.5"/>
<text text-anchor="start" x="738" y="-264.5" font-family="Helvetica,sans-Serif" font-size="10.00" fill="#000000">/home/travis/build</text>
<text text-anchor="start" x="738" y="-253.5" font-family="Helvetica,sans-Serif" font-size="10.00" fill="#000000">/AliceO2Group/AliceO2</text>
<text text-anchor="start" x="738" y="-242.5" font-family="Helvetica,sans-Serif" font-size="10.00" fill="#000000">/GPU/TPCFastTransformation</text>
<text text-anchor="middle" x="815" y="-231.5" font-family="Helvetica,sans-Serif" font-size="10.00" fill="#000000">/devtools/IrregularSpline1D.cxx</text>
</g>
<!-- Node1 -->
<g id="node2" class="node">
<title>Node1</title>
<g id="a_node2"><a xlink:href="../../d4/de4/IrregularSpline1D_8h.html" target="_top" xlink:title="Definition of IrregularSpline1D class. ">
<polygon fill="none" stroke="#000000" points="422,-168.5 422,-187.5 532,-187.5 532,-168.5 422,-168.5"/>
<text text-anchor="middle" x="477" y="-175.5" font-family="Helvetica,sans-Serif" font-size="10.00" fill="#000000">IrregularSpline1D.h</text>
</a>
</g>
</g>
<!-- Node0&#45;&gt;Node1 -->
<g id="edge1" class="edge">
<title>Node0&#45;&gt;Node1</title>
<path fill="none" stroke="#191970" d="M729.7083,-232.2052C667.4256,-218.8457 584.8498,-201.1335 531.3242,-189.6524"/>
<polygon fill="#191970" stroke="#191970" points="531.8621,-186.1882 521.3504,-187.513 530.3939,-193.0325 531.8621,-186.1882"/>
</g>
<!-- Node14 -->
<g id="node15" class="node">
<title>Node14</title>
<polygon fill="none" stroke="#bfbfbf" points="774,-.5 774,-19.5 834,-19.5 834,-.5 774,-.5"/>
<text text-anchor="middle" x="804" y="-7.5" font-family="Helvetica,sans-Serif" font-size="10.00" fill="#000000">iostream</text>
</g>
<!-- Node0&#45;&gt;Node14 -->
<g id="edge22" class="edge">
<title>Node0&#45;&gt;Node14</title>
<path fill="none" stroke="#191970" d="M811.5512,-224.3947C810.2096,-213.2081 808.8041,-199.9834 808,-188 804.1494,-130.616 803.7831,-62.618 803.8703,-29.7477"/>
<polygon fill="#191970" stroke="#191970" points="807.3706,-29.6764 803.9151,-19.661 800.3707,-29.6453 807.3706,-29.6764"/>
</g>
<!-- Node16 -->
<g id="node17" class="node">
<title>Node16</title>
<polygon fill="none" stroke="#bfbfbf" points="817.5,-168.5 817.5,-187.5 864.5,-187.5 864.5,-168.5 817.5,-168.5"/>
<text text-anchor="middle" x="841" y="-175.5" font-family="Helvetica,sans-Serif" font-size="10.00" fill="#000000">cmath</text>
</g>
<!-- Node0&#45;&gt;Node16 -->
<g id="edge20" class="edge">
<title>Node0&#45;&gt;Node16</title>
<path fill="none" stroke="#191970" d="M824.3866,-224.3258C827.6185,-215.3139 831.174,-205.3995 834.1636,-197.063"/>
<polygon fill="#191970" stroke="#191970" points="837.4997,-198.1285 837.5809,-187.534 830.9106,-195.7655 837.4997,-198.1285"/>
</g>
<!-- Node17 -->
<g id="node18" class="node">
<title>Node17</title>
<polygon fill="none" stroke="#bfbfbf" points="882.5,-168.5 882.5,-187.5 929.5,-187.5 929.5,-168.5 882.5,-168.5"/>
<text text-anchor="middle" x="906" y="-175.5" font-family="Helvetica,sans-Serif" font-size="10.00" fill="#000000">vector</text>
</g>
<!-- Node0&#45;&gt;Node17 -->
<g id="edge21" class="edge">
<title>Node0&#45;&gt;Node17</title>
<path fill="none" stroke="#191970" d="M847.8531,-224.3258C860.6728,-214.1123 874.9476,-202.7396 886.1452,-193.8184"/>
<polygon fill="#191970" stroke="#191970" points="888.3929,-196.5027 894.0332,-187.534 884.031,-191.0278 888.3929,-196.5027"/>
</g>
<!-- Node2 -->
<g id="node3" class="node">
<title>Node2</title>
<g id="a_node3"><a xlink:href="../../df/d21/GPUCommonDef_8h.html" target="_top" xlink:title="GPUCommonDef.h">
<polygon fill="none" stroke="#000000" points="637.5,-56.5 637.5,-75.5 744.5,-75.5 744.5,-56.5 637.5,-56.5"/>
<text text-anchor="middle" x="691" y="-63.5" font-family="Helvetica,sans-Serif" font-size="10.00" fill="#000000">GPUCommonDef.h</text>
</a>
</g>
</g>
<!-- Node1&#45;&gt;Node2 -->
<g id="edge2" class="edge">
<title>Node1&#45;&gt;Node2</title>
<path fill="none" stroke="#191970" d="M495.2455,-168.4509C532.9123,-148.7375 619.4503,-103.4465 663.7641,-80.2543"/>
<polygon fill="#191970" stroke="#191970" points="665.5637,-83.2629 672.8007,-75.5249 662.3178,-77.0609 665.5637,-83.2629"/>
</g>
<!-- Node5 -->
<g id="node6" class="node">
<title>Node5</title>
<g id="a_node6"><a xlink:href="../../db/dff/FlatObject_8h.html" target="_top" xlink:title="Definition of FlatObject class. ">
<polygon fill="none" stroke="#000000" points="378.5,-112.5 378.5,-131.5 453.5,-131.5 453.5,-112.5 378.5,-112.5"/>
<text text-anchor="middle" x="416" y="-119.5" font-family="Helvetica,sans-Serif" font-size="10.00" fill="#000000">FlatObject.h</text>
</a>
</g>
</g>
<!-- Node1&#45;&gt;Node5 -->
<g id="edge5" class="edge">
<title>Node1&#45;&gt;Node5</title>
<path fill="none" stroke="#191970" d="M466.3746,-168.2455C457.4527,-160.0549 444.512,-148.1749 433.9808,-138.5069"/>
<polygon fill="#191970" stroke="#191970" points="436.2371,-135.8271 426.5036,-131.6427 431.5032,-140.9837 436.2371,-135.8271"/>
</g>
<!-- Node6 -->
<g id="node7" class="node">
<title>Node6</title>
<polygon fill="none" stroke="#bfbfbf" points="566.5,-56.5 566.5,-75.5 619.5,-75.5 619.5,-56.5 566.5,-56.5"/>
<text text-anchor="middle" x="593" y="-63.5" font-family="Helvetica,sans-Serif" font-size="10.00" fill="#000000">cstddef</text>
</g>
<!-- Node1&#45;&gt;Node6 -->
<g id="edge17" class="edge">
<title>Node1&#45;&gt;Node6</title>
<path fill="none" stroke="#191970" d="M486.8901,-168.4509C506.6656,-149.3574 551.2921,-106.2697 575.9041,-82.5063"/>
<polygon fill="#191970" stroke="#191970" points="578.372,-84.9888 583.1349,-75.5249 573.5098,-79.9529 578.372,-84.9888"/>
</g>
<!-- Node7 -->
<g id="node8" class="node">
<title>Node7</title>
<polygon fill="none" stroke="#bfbfbf" points="0,-56.5 0,-75.5 58,-75.5 58,-56.5 0,-56.5"/>
<text text-anchor="middle" x="29" y="-63.5" font-family="Helvetica,sans-Serif" font-size="10.00" fill="#000000">memory</text>
</g>
<!-- Node1&#45;&gt;Node7 -->
<g id="edge18" class="edge">
<title>Node1&#45;&gt;Node7</title>
<path fill="none" stroke="#191970" d="M428.3535,-168.4555C384.8474,-159.7029 319.4295,-146.008 263,-132 193.7284,-114.8041 113.8765,-91.5298 67.6434,-77.7092"/>
<polygon fill="#191970" stroke="#191970" points="68.6107,-74.3454 58.0268,-74.8258 66.6002,-81.0505 68.6107,-74.3454"/>
</g>
<!-- Node8 -->
<g id="node9" class="node">
<title>Node8</title>
<polygon fill="none" stroke="#bfbfbf" points="76,-56.5 76,-75.5 126,-75.5 126,-56.5 76,-56.5"/>
<text text-anchor="middle" x="101" y="-63.5" font-family="Helvetica,sans-Serif" font-size="10.00" fill="#000000">cstring</text>
</g>
<!-- Node1&#45;&gt;Node8 -->
<g id="edge19" class="edge">
<title>Node1&#45;&gt;Node8</title>
<path fill="none" stroke="#191970" d="M444.9425,-168.4509C374.8916,-147.5847 208.6378,-98.0623 135.9883,-76.4221"/>
<polygon fill="#191970" stroke="#191970" points="136.9612,-73.0599 126.3782,-73.5595 134.9628,-79.7686 136.9612,-73.0599"/>
</g>
<!-- Node3 -->
<g id="node4" class="node">
<title>Node3</title>
<g id="a_node4"><a xlink:href="../../d5/d93/GPUCommonDefSettings_8h.html" target="_top" xlink:title="GPUCommonDefSettings.h">
<polygon fill="none" stroke="#000000" points="608,-.5 608,-19.5 756,-19.5 756,-.5 608,-.5"/>
<text text-anchor="middle" x="682" y="-7.5" font-family="Helvetica,sans-Serif" font-size="10.00" fill="#000000">GPUCommonDefSettings.h</text>
</a>
</g>
</g>
<!-- Node2&#45;&gt;Node3 -->
<g id="edge3" class="edge">
<title>Node2&#45;&gt;Node3</title>
<path fill="none" stroke="#191970" d="M689.4323,-56.2455C688.2579,-48.9382 686.6116,-38.6944 685.1668,-29.7046"/>
<polygon fill="#191970" stroke="#191970" points="688.5922,-28.9606 683.5497,-19.6427 681.6809,-30.0714 688.5922,-28.9606"/>
</g>
<!-- Node4 -->
<g id="node5" class="node">
<title>Node4</title>
<g id="a_node5"><a xlink:href="../../da/d5a/GPUCommonDefAPI_8h.html" target="_top" xlink:title="GPUCommonDefAPI.h">
<polygon fill="none" stroke="#000000" points="466,-.5 466,-19.5 590,-19.5 590,-.5 466,-.5"/>
<text text-anchor="middle" x="528" y="-7.5" font-family="Helvetica,sans-Serif" font-size="10.00" fill="#000000">GPUCommonDefAPI.h</text>
</a>
</g>
</g>
<!-- Node2&#45;&gt;Node4 -->
<g id="edge4" class="edge">
<title>Node2&#45;&gt;Node4</title>
<path fill="none" stroke="#191970" d="M662.9793,-56.3733C635.9922,-47.1016 594.9983,-33.0178 565.2689,-22.804"/>
<polygon fill="#191970" stroke="#191970" points="566.2497,-19.4403 555.6551,-19.5011 563.9752,-26.0605 566.2497,-19.4403"/>
</g>
<!-- Node5&#45;&gt;Node2 -->
<g id="edge11" class="edge">
<title>Node5&#45;&gt;Node2</title>
<path fill="none" stroke="#191970" d="M453.661,-114.3309C500.2324,-104.8472 579.9573,-88.6123 634.0278,-77.6016"/>
<polygon fill="#191970" stroke="#191970" points="635.0463,-80.9661 644.1467,-75.541 633.6494,-74.1069 635.0463,-80.9661"/>
</g>
<!-- Node5&#45;&gt;Node6 -->
<g id="edge6" class="edge">
<title>Node5&#45;&gt;Node6</title>
<path fill="none" stroke="#191970" d="M446.4274,-112.3733C477.0621,-102.6809 524.3183,-87.7298 556.8466,-77.4384"/>
<polygon fill="#191970" stroke="#191970" points="557.9556,-80.7586 566.434,-74.4051 555.844,-74.0846 557.9556,-80.7586"/>
</g>
<!-- Node5&#45;&gt;Node7 -->
<g id="edge7" class="edge">
<title>Node5&#45;&gt;Node7</title>
<path fill="none" stroke="#191970" d="M378.3026,-118.607C315.7865,-112.6391 186.6018,-98.8634 68.3214,-76.0659"/>
<polygon fill="#191970" stroke="#191970" points="68.8592,-72.6048 58.3736,-74.1218 67.5166,-79.4749 68.8592,-72.6048"/>
</g>
<!-- Node5&#45;&gt;Node8 -->
<g id="edge8" class="edge">
<title>Node5&#45;&gt;Node8</title>
<path fill="none" stroke="#191970" d="M378.4424,-117.3571C326.1328,-110.5625 228.2577,-96.662 135.9379,-75.9964"/>
<polygon fill="#191970" stroke="#191970" points="136.6863,-72.5774 126.1596,-73.777 135.1369,-79.4037 136.6863,-72.5774"/>
</g>
<!-- Node9 -->
<g id="node10" class="node">
<title>Node9</title>
<polygon fill="none" stroke="#bfbfbf" points="496,-56.5 496,-75.5 548,-75.5 548,-56.5 496,-56.5"/>
<text text-anchor="middle" x="522" y="-63.5" font-family="Helvetica,sans-Serif" font-size="10.00" fill="#000000">cassert</text>
</g>
<!-- Node5&#45;&gt;Node9 -->
<g id="edge9" class="edge">
<title>Node5&#45;&gt;Node9</title>
<path fill="none" stroke="#191970" d="M434.4638,-112.2455C451.1074,-103.4527 475.7993,-90.4079 494.7192,-80.4125"/>
<polygon fill="#191970" stroke="#191970" points="496.5408,-83.4086 503.7478,-75.6427 493.2709,-77.2193 496.5408,-83.4086"/>
</g>
<!-- Node10 -->
<g id="node11" class="node">
<title>Node10</title>
<polygon fill="none" stroke="#bfbfbf" points="288,-56.5 288,-75.5 336,-75.5 336,-56.5 288,-56.5"/>
<text text-anchor="middle" x="312" y="-63.5" font-family="Helvetica,sans-Serif" font-size="10.00" fill="#000000">TFile.h</text>
</g>
<!-- Node5&#45;&gt;Node10 -->
<g id="edge10" class="edge">
<title>Node5&#45;&gt;Node10</title>
<path fill="none" stroke="#191970" d="M397.8846,-112.2455C381.555,-103.4527 357.329,-90.4079 338.7661,-80.4125"/>
<polygon fill="#191970" stroke="#191970" points="340.3719,-77.3021 329.9078,-75.6427 337.0532,-83.4654 340.3719,-77.3021"/>
</g>
<!-- Node11 -->
<g id="node12" class="node">
<title>Node11</title>
<g id="a_node12"><a xlink:href="../../d2/d45/GPUCommonRtypes_8h.html" target="_top" xlink:title="GPUCommonRtypes.h">
<polygon fill="none" stroke="#000000" points="144.5,-56.5 144.5,-75.5 269.5,-75.5 269.5,-56.5 144.5,-56.5"/>
<text text-anchor="middle" x="207" y="-63.5" font-family="Helvetica,sans-Serif" font-size="10.00" fill="#000000">GPUCommonRtypes.h</text>
</a>
</g>
</g>
<!-- Node5&#45;&gt;Node11 -->
<g id="edge12" class="edge">
<title>Node5&#45;&gt;Node11</title>
<path fill="none" stroke="#191970" d="M380.0716,-112.3733C344.7163,-102.9001 290.612,-88.4032 252.3212,-78.1435"/>
<polygon fill="#191970" stroke="#191970" points="253.0247,-74.7086 242.4595,-75.5011 251.213,-81.4701 253.0247,-74.7086"/>
</g>
<!-- Node13 -->
<g id="node14" class="node">
<title>Node13</title>
<g id="a_node14"><a xlink:href="../../df/d5b/GPUCommonLogger_8h.html" target="_top" xlink:title="GPUCommonLogger.h">
<polygon fill="none" stroke="#000000" points="354.5,-56.5 354.5,-75.5 477.5,-75.5 477.5,-56.5 354.5,-56.5"/>
<text text-anchor="middle" x="416" y="-63.5" font-family="Helvetica,sans-Serif" font-size="10.00" fill="#000000">GPUCommonLogger.h</text>
</a>
</g>
</g>
<!-- Node5&#45;&gt;Node13 -->
<g id="edge14" class="edge">
<title>Node5&#45;&gt;Node13</title>
<path fill="none" stroke="#191970" d="M416,-112.2455C416,-104.9382 416,-94.6944 416,-85.7046"/>
<polygon fill="#191970" stroke="#191970" points="419.5001,-85.6426 416,-75.6427 412.5001,-85.6427 419.5001,-85.6426"/>
</g>
<!-- Node12 -->
<g id="node13" class="node">
<title>Node12</title>
<polygon fill="none" stroke="#bfbfbf" points="177.5,-.5 177.5,-19.5 236.5,-19.5 236.5,-.5 177.5,-.5"/>
<text text-anchor="middle" x="207" y="-7.5" font-family="Helvetica,sans-Serif" font-size="10.00" fill="#000000">Rtypes.h</text>
</g>
<!-- Node11&#45;&gt;Node12 -->
<g id="edge13" class="edge">
<title>Node11&#45;&gt;Node12</title>
<path fill="none" stroke="#191970" d="M207,-56.2455C207,-48.9382 207,-38.6944 207,-29.7046"/>
<polygon fill="#191970" stroke="#191970" points="210.5001,-29.6426 207,-19.6427 203.5001,-29.6427 210.5001,-29.6426"/>
</g>
<!-- Node13&#45;&gt;Node14 -->
<g id="edge15" class="edge">
<title>Node13&#45;&gt;Node14</title>
<path fill="none" stroke="#191970" d="M477.5678,-57.2857C480.7573,-56.8476 483.916,-56.4168 487,-56 607.2091,-39.7518 640.8914,-43.3089 763.6738,-20.0673"/>
<polygon fill="#191970" stroke="#191970" points="764.6852,-23.4373 773.8486,-18.1192 763.3688,-16.5622 764.6852,-23.4373"/>
</g>
<!-- Node15 -->
<g id="node16" class="node">
<title>Node15</title>
<polygon fill="none" stroke="#bfbfbf" points="393,-.5 393,-19.5 439,-19.5 439,-.5 393,-.5"/>
<text text-anchor="middle" x="416" y="-7.5" font-family="Helvetica,sans-Serif" font-size="10.00" fill="#000000">cstdio</text>
</g>
<!-- Node13&#45;&gt;Node15 -->
<g id="edge16" class="edge">
<title>Node13&#45;&gt;Node15</title>
<path fill="none" stroke="#191970" d="M416,-56.2455C416,-48.9382 416,-38.6944 416,-29.7046"/>
<polygon fill="#191970" stroke="#191970" points="419.5001,-29.6426 416,-19.6427 412.5001,-29.6427 419.5001,-29.6426"/>
</g>
</g>
</svg>
