<?xml version="1.0" encoding="UTF-8" standalone="no"?>
<!DOCTYPE svg PUBLIC "-//W3C//DTD SVG 1.1//EN"
 "http://www.w3.org/Graphics/SVG/1.1/DTD/svg11.dtd">
<!-- Generated by graphviz version 2.40.1 (20161225.0304)
 -->
<!-- Title: /home/travis/build/AliceO2Group/AliceO2/GPU/GPUTracking/TPCClusterFinder/GPUTPCCFChargeMapFiller.cxx Pages: 1 -->
<svg width="1741pt" height="621pt"
 viewBox="0.00 0.00 1741.00 621.00" xmlns="http://www.w3.org/2000/svg" xmlns:xlink="http://www.w3.org/1999/xlink">
<g id="graph0" class="graph" transform="scale(1 1) rotate(0) translate(4 617)">
<title>/home/travis/build/AliceO2Group/AliceO2/GPU/GPUTracking/TPCClusterFinder/GPUTPCCFChargeMapFiller.cxx</title>
<!-- Node0 -->
<g id="node1" class="node">
<title>Node0</title>
<polygon fill="#bfbfbf" stroke="#000000" points="91,-560.5 91,-612.5 282,-612.5 282,-560.5 91,-560.5"/>
<text text-anchor="start" x="99" y="-600.5" font-family="Helvetica,sans-Serif" font-size="10.00" fill="#000000">/home/travis/build</text>
<text text-anchor="start" x="99" y="-589.5" font-family="Helvetica,sans-Serif" font-size="10.00" fill="#000000">/AliceO2Group/AliceO2</text>
<text text-anchor="start" x="99" y="-578.5" font-family="Helvetica,sans-Serif" font-size="10.00" fill="#000000">/GPU/GPUTracking/TPCClusterFinder</text>
<text text-anchor="middle" x="186.5" y="-567.5" font-family="Helvetica,sans-Serif" font-size="10.00" fill="#000000">/GPUTPCCFChargeMapFiller.cxx</text>
</g>
<!-- Node1 -->
<g id="node2" class="node">
<title>Node1</title>
<g id="a_node2"><a xlink:href="../../dc/d10/GPUTPCCFChargeMapFiller_8h.html" target="_top" xlink:title="GPUTPCCFChargeMapFiller.h">
<polygon fill="none" stroke="#000000" points="229,-504.5 229,-523.5 384,-523.5 384,-504.5 229,-504.5"/>
<text text-anchor="middle" x="306.5" y="-511.5" font-family="Helvetica,sans-Serif" font-size="10.00" fill="#000000">GPUTPCCFChargeMapFiller.h</text>
</a>
</g>
</g>
<!-- Node0&#45;&gt;Node1 -->
<g id="edge1" class="edge">
<title>Node0&#45;&gt;Node1</title>
<path fill="none" stroke="#191970" d="M229.8228,-560.3258C247.3909,-549.7118 267.0311,-537.8458 282.0359,-528.7804"/>
<polygon fill="#191970" stroke="#191970" points="283.9703,-531.7009 290.7196,-523.534 280.3505,-525.7095 283.9703,-531.7009"/>
</g>
<!-- Node41 -->
<g id="node42" class="node">
<title>Node41</title>
<g id="a_node42"><a xlink:href="../../d1/d90/ChargePos_8h.html" target="_top" xlink:title="ChargePos.h">
<polygon fill="none" stroke="#000000" points="69,-392.5 69,-411.5 146,-411.5 146,-392.5 69,-392.5"/>
<text text-anchor="middle" x="107.5" y="-399.5" font-family="Helvetica,sans-Serif" font-size="10.00" fill="#000000">ChargePos.h</text>
</a>
</g>
</g>
<!-- Node0&#45;&gt;Node41 -->
<g id="edge81" class="edge">
<title>Node0&#45;&gt;Node41</title>
<path fill="none" stroke="#191970" d="M171.0523,-560.4119C157.6122,-536.8788 138.3291,-500.9959 125.5,-468 119.5821,-452.7794 114.8285,-434.8689 111.6958,-421.549"/>
<polygon fill="#191970" stroke="#191970" points="115.0669,-420.5868 109.4556,-411.5999 108.2378,-422.1245 115.0669,-420.5868"/>
</g>
<!-- Node2 -->
<g id="node3" class="node">
<title>Node2</title>
<g id="a_node3"><a xlink:href="../../d9/db0/clusterFinderDefs_8h.html" target="_top" xlink:title="clusterFinderDefs.h">
<polygon fill="none" stroke="#000000" points="171.5,-336.5 171.5,-355.5 281.5,-355.5 281.5,-336.5 171.5,-336.5"/>
<text text-anchor="middle" x="226.5" y="-343.5" font-family="Helvetica,sans-Serif" font-size="10.00" fill="#000000">clusterFinderDefs.h</text>
</a>
</g>
</g>
<!-- Node1&#45;&gt;Node2 -->
<g id="edge2" class="edge">
<title>Node1&#45;&gt;Node2</title>
<path fill="none" stroke="#191970" d="M296.6701,-504.3835C280.0885,-487.4656 246.9562,-450.506 232.5,-412 226.9396,-397.1892 225.6214,-379.2483 225.5924,-365.8125"/>
<polygon fill="#191970" stroke="#191970" points="229.0928,-365.8258 225.8065,-355.7536 222.0944,-365.6768 229.0928,-365.8258"/>
</g>
<!-- Node13 -->
<g id="node14" class="node">
<title>Node13</title>
<g id="a_node14"><a xlink:href="../../d9/de5/GPUGeneralKernels_8h.html" target="_top" xlink:title="GPUGeneralKernels.h">
<polygon fill="none" stroke="#000000" points="498,-392.5 498,-411.5 619,-411.5 619,-392.5 498,-392.5"/>
<text text-anchor="middle" x="558.5" y="-399.5" font-family="Helvetica,sans-Serif" font-size="10.00" fill="#000000">GPUGeneralKernels.h</text>
</a>
</g>
</g>
<!-- Node1&#45;&gt;Node13 -->
<g id="edge13" class="edge">
<title>Node1&#45;&gt;Node13</title>
<path fill="none" stroke="#191970" d="M366.2202,-504.4948C415.7639,-495.82 481.6537,-482.2177 504.5,-468 523.266,-456.3215 538.5097,-435.8172 547.9569,-420.7534"/>
<polygon fill="#191970" stroke="#191970" points="551.1884,-422.1683 553.3068,-411.7874 545.1772,-418.5814 551.1884,-422.1683"/>
</g>
<!-- Node16 -->
<g id="node17" class="node">
<title>Node16</title>
<g id="a_node17"><a xlink:href="../../db/df8/GPUConstantMem_8h.html" target="_top" xlink:title="GPUConstantMem.h">
<polygon fill="none" stroke="#000000" points="760.5,-448.5 760.5,-467.5 874.5,-467.5 874.5,-448.5 760.5,-448.5"/>
<text text-anchor="middle" x="817.5" y="-455.5" font-family="Helvetica,sans-Serif" font-size="10.00" fill="#000000">GPUConstantMem.h</text>
</a>
</g>
</g>
<!-- Node1&#45;&gt;Node16 -->
<g id="edge18" class="edge">
<title>Node1&#45;&gt;Node16</title>
<path fill="none" stroke="#191970" d="M384.1099,-505.4948C483.917,-494.557 655.6209,-475.7402 750.1727,-465.3783"/>
<polygon fill="#191970" stroke="#191970" points="750.6346,-468.8488 760.1938,-464.2801 749.872,-461.8904 750.6346,-468.8488"/>
</g>
<!-- Node38 -->
<g id="node39" class="node">
<title>Node38</title>
<g id="a_node39"><a xlink:href="../../d6/d4b/GPUTPCClusterFinder_8h.html" target="_top" xlink:title="GPUTPCClusterFinder.h">
<polygon fill="none" stroke="#000000" points="367.5,-448.5 367.5,-467.5 495.5,-467.5 495.5,-448.5 367.5,-448.5"/>
<text text-anchor="middle" x="431.5" y="-455.5" font-family="Helvetica,sans-Serif" font-size="10.00" fill="#000000">GPUTPCClusterFinder.h</text>
</a>
</g>
</g>
<!-- Node1&#45;&gt;Node38 -->
<g id="edge67" class="edge">
<title>Node1&#45;&gt;Node38</title>
<path fill="none" stroke="#191970" d="M327.9883,-504.3733C348.144,-495.3435 378.488,-481.7494 401.118,-471.6111"/>
<polygon fill="#191970" stroke="#191970" points="402.5971,-474.7838 410.2921,-467.5011 399.7351,-468.3955 402.5971,-474.7838"/>
</g>
<!-- Node39 -->
<g id="node40" class="node">
<title>Node39</title>
<g id="a_node40"><a xlink:href="../../d6/deb/GPU_2GPUTracking_2TPCClusterFinder_2Digit_8h.html" target="_top" xlink:title="Digit.h">
<polygon fill="none" stroke="#000000" points="241,-392.5 241,-411.5 290,-411.5 290,-392.5 241,-392.5"/>
<text text-anchor="middle" x="265.5" y="-399.5" font-family="Helvetica,sans-Serif" font-size="10.00" fill="#000000">Digit.h</text>
</a>
</g>
</g>
<!-- Node1&#45;&gt;Node39 -->
<g id="edge80" class="edge">
<title>Node1&#45;&gt;Node39</title>
<path fill="none" stroke="#191970" d="M303.0044,-504.4509C296.2568,-486.0186 281.3236,-445.2254 272.4711,-421.043"/>
<polygon fill="#191970" stroke="#191970" points="275.7112,-419.7123 268.9868,-411.5249 269.1378,-422.1187 275.7112,-419.7123"/>
</g>
<!-- Node40 -->
<g id="node41" class="node">
<title>Node40</title>
<g id="a_node41"><a xlink:href="../../d7/d60/Array2D_8h.html" target="_top" xlink:title="Array2D.h">
<polygon fill="none" stroke="#000000" points="135,-448.5 135,-467.5 200,-467.5 200,-448.5 135,-448.5"/>
<text text-anchor="middle" x="167.5" y="-455.5" font-family="Helvetica,sans-Serif" font-size="10.00" fill="#000000">Array2D.h</text>
</a>
</g>
</g>
<!-- Node1&#45;&gt;Node40 -->
<g id="edge73" class="edge">
<title>Node1&#45;&gt;Node40</title>
<path fill="none" stroke="#191970" d="M282.605,-504.3733C259.9918,-495.2629 225.8458,-481.5062 200.6127,-471.3404"/>
<polygon fill="#191970" stroke="#191970" points="201.6666,-467.9917 191.0831,-467.5011 199.0507,-474.4845 201.6666,-467.9917"/>
</g>
<!-- Node42 -->
<g id="node43" class="node">
<title>Node42</title>
<g id="a_node43"><a xlink:href="../../d1/d65/PackedCharge_8h.html" target="_top" xlink:title="PackedCharge.h">
<polygon fill="none" stroke="#000000" points="308,-392.5 308,-411.5 403,-411.5 403,-392.5 308,-392.5"/>
<text text-anchor="middle" x="355.5" y="-399.5" font-family="Helvetica,sans-Serif" font-size="10.00" fill="#000000">PackedCharge.h</text>
</a>
</g>
</g>
<!-- Node1&#45;&gt;Node42 -->
<g id="edge77" class="edge">
<title>Node1&#45;&gt;Node42</title>
<path fill="none" stroke="#191970" d="M310.6777,-504.4509C318.778,-485.936 336.7492,-444.8591 347.3106,-420.7187"/>
<polygon fill="#191970" stroke="#191970" points="350.5312,-422.0894 351.3329,-411.5249 344.1181,-419.2836 350.5312,-422.0894"/>
</g>
<!-- Node3 -->
<g id="node4" class="node">
<title>Node3</title>
<g id="a_node4"><a xlink:href="../../d2/d6d/GPUDef_8h.html" target="_top" xlink:title="GPUDef.h">
<polygon fill="none" stroke="#000000" points="271,-112.5 271,-131.5 334,-131.5 334,-112.5 271,-112.5"/>
<text text-anchor="middle" x="302.5" y="-119.5" font-family="Helvetica,sans-Serif" font-size="10.00" fill="#000000">GPUDef.h</text>
</a>
</g>
</g>
<!-- Node2&#45;&gt;Node3 -->
<g id="edge3" class="edge">
<title>Node2&#45;&gt;Node3</title>
<path fill="none" stroke="#191970" d="M226.6447,-336.1647C227.4186,-308.2861 232.2146,-226.95 261.5,-168 266.8545,-157.2216 275.4208,-147.033 283.3419,-138.9972"/>
<polygon fill="#191970" stroke="#191970" points="286.1148,-141.187 290.9052,-131.737 281.2673,-136.1371 286.1148,-141.187"/>
</g>
<!-- Node4 -->
<g id="node5" class="node">
<title>Node4</title>
<g id="a_node5"><a xlink:href="../../df/d21/GPUCommonDef_8h.html" target="_top" xlink:title="GPUCommonDef.h">
<polygon fill="none" stroke="#000000" points="753,-56.5 753,-75.5 860,-75.5 860,-56.5 753,-56.5"/>
<text text-anchor="middle" x="806.5" y="-63.5" font-family="Helvetica,sans-Serif" font-size="10.00" fill="#000000">GPUCommonDef.h</text>
</a>
</g>
</g>
<!-- Node3&#45;&gt;Node4 -->
<g id="edge4" class="edge">
<title>Node3&#45;&gt;Node4</title>
<path fill="none" stroke="#191970" d="M334.0843,-114.6381C338.8967,-113.6604 343.8182,-112.7415 348.5,-112 488.2,-89.8735 653.6538,-76.3544 742.4737,-70.1173"/>
<polygon fill="#191970" stroke="#191970" points="742.9234,-73.5946 752.6571,-69.4106 742.4387,-66.6114 742.9234,-73.5946"/>
</g>
<!-- Node7 -->
<g id="node8" class="node">
<title>Node7</title>
<g id="a_node8"><a xlink:href="../../d2/d37/GPUDefConstantsAndSettings_8h.html" target="_top" xlink:title="GPUDefConstantsAndSettings.h">
<polygon fill="none" stroke="#000000" points="143,-56.5 143,-75.5 314,-75.5 314,-56.5 143,-56.5"/>
<text text-anchor="middle" x="228.5" y="-63.5" font-family="Helvetica,sans-Serif" font-size="10.00" fill="#000000">GPUDefConstantsAndSettings.h</text>
</a>
</g>
</g>
<!-- Node3&#45;&gt;Node7 -->
<g id="edge7" class="edge">
<title>Node3&#45;&gt;Node7</title>
<path fill="none" stroke="#191970" d="M289.6102,-112.2455C278.5746,-103.8943 262.4708,-91.7076 249.5647,-81.9408"/>
<polygon fill="#191970" stroke="#191970" points="251.3283,-78.8862 241.2421,-75.6427 247.1041,-84.4681 251.3283,-78.8862"/>
</g>
<!-- Node8 -->
<g id="node9" class="node">
<title>Node8</title>
<g id="a_node9"><a xlink:href="../../dc/de9/GPUDefGPUParameters_8h.html" target="_top" xlink:title="GPUDefGPUParameters.h">
<polygon fill="none" stroke="#000000" points="332.5,-56.5 332.5,-75.5 472.5,-75.5 472.5,-56.5 332.5,-56.5"/>
<text text-anchor="middle" x="402.5" y="-63.5" font-family="Helvetica,sans-Serif" font-size="10.00" fill="#000000">GPUDefGPUParameters.h</text>
</a>
</g>
</g>
<!-- Node3&#45;&gt;Node8 -->
<g id="edge8" class="edge">
<title>Node3&#45;&gt;Node8</title>
<path fill="none" stroke="#191970" d="M319.9187,-112.2455C335.5485,-103.4928 358.7019,-90.527 376.5185,-80.5496"/>
<polygon fill="#191970" stroke="#191970" points="378.266,-83.5825 385.2809,-75.6427 374.8457,-77.475 378.266,-83.5825"/>
</g>
<!-- Node10 -->
<g id="node11" class="node">
<title>Node10</title>
<g id="a_node11"><a xlink:href="../../d3/d4c/GPUDefOpenCL12Templates_8h.html" target="_top" xlink:title="GPUDefOpenCL12Templates.h">
<polygon fill="none" stroke="#000000" points="490.5,-56.5 490.5,-75.5 654.5,-75.5 654.5,-56.5 490.5,-56.5"/>
<text text-anchor="middle" x="572.5" y="-63.5" font-family="Helvetica,sans-Serif" font-size="10.00" fill="#000000">GPUDefOpenCL12Templates.h</text>
</a>
</g>
</g>
<!-- Node3&#45;&gt;Node10 -->
<g id="edge10" class="edge">
<title>Node3&#45;&gt;Node10</title>
<path fill="none" stroke="#191970" d="M334.1635,-115.0665C338.9649,-114.0296 343.8623,-112.9802 348.5,-112 405.1945,-100.0167 470.0576,-86.7444 515.3441,-77.5485"/>
<polygon fill="#191970" stroke="#191970" points="516.1669,-80.953 525.2712,-75.5343 514.7749,-74.0928 516.1669,-80.953"/>
</g>
<!-- Node11 -->
<g id="node12" class="node">
<title>Node11</title>
<g id="a_node12"><a xlink:href="../../d2/d45/GPUCommonRtypes_8h.html" target="_top" xlink:title="GPUCommonRtypes.h">
<polygon fill="none" stroke="#000000" points="0,-56.5 0,-75.5 125,-75.5 125,-56.5 0,-56.5"/>
<text text-anchor="middle" x="62.5" y="-63.5" font-family="Helvetica,sans-Serif" font-size="10.00" fill="#000000">GPUCommonRtypes.h</text>
</a>
</g>
</g>
<!-- Node3&#45;&gt;Node11 -->
<g id="edge11" class="edge">
<title>Node3&#45;&gt;Node11</title>
<path fill="none" stroke="#191970" d="M270.6299,-114.5636C230.3937,-105.1752 160.6965,-88.9125 113.1365,-77.8152"/>
<polygon fill="#191970" stroke="#191970" points="113.876,-74.3938 103.3423,-75.5299 112.2854,-81.2107 113.876,-74.3938"/>
</g>
<!-- Node5 -->
<g id="node6" class="node">
<title>Node5</title>
<g id="a_node6"><a xlink:href="../../d5/d93/GPUCommonDefSettings_8h.html" target="_top" xlink:title="GPUCommonDefSettings.h">
<polygon fill="none" stroke="#000000" points="655.5,-.5 655.5,-19.5 803.5,-19.5 803.5,-.5 655.5,-.5"/>
<text text-anchor="middle" x="729.5" y="-7.5" font-family="Helvetica,sans-Serif" font-size="10.00" fill="#000000">GPUCommonDefSettings.h</text>
</a>
</g>
</g>
<!-- Node4&#45;&gt;Node5 -->
<g id="edge5" class="edge">
<title>Node4&#45;&gt;Node5</title>
<path fill="none" stroke="#191970" d="M793.0876,-56.2455C781.4943,-47.814 764.5252,-35.4729 751.0322,-25.6598"/>
<polygon fill="#191970" stroke="#191970" points="752.9047,-22.6938 742.7587,-19.6427 748.7874,-28.355 752.9047,-22.6938"/>
</g>
<!-- Node6 -->
<g id="node7" class="node">
<title>Node6</title>
<g id="a_node7"><a xlink:href="../../da/d5a/GPUCommonDefAPI_8h.html" target="_top" xlink:title="GPUCommonDefAPI.h">
<polygon fill="none" stroke="#000000" points="821.5,-.5 821.5,-19.5 945.5,-19.5 945.5,-.5 821.5,-.5"/>
<text text-anchor="middle" x="883.5" y="-7.5" font-family="Helvetica,sans-Serif" font-size="10.00" fill="#000000">GPUCommonDefAPI.h</text>
</a>
</g>
</g>
<!-- Node4&#45;&gt;Node6 -->
<g id="edge6" class="edge">
<title>Node4&#45;&gt;Node6</title>
<path fill="none" stroke="#191970" d="M819.9124,-56.2455C831.5057,-47.814 848.4748,-35.4729 861.9678,-25.6598"/>
<polygon fill="#191970" stroke="#191970" points="864.2126,-28.355 870.2413,-19.6427 860.0953,-22.6938 864.2126,-28.355"/>
</g>
<!-- Node9 -->
<g id="node10" class="node">
<title>Node9</title>
<g id="a_node10"><a xlink:href="../../d6/dff/GPUDefMacros_8h.html" target="_top" xlink:title="GPUDefMacros.h">
<polygon fill="none" stroke="#000000" points="353.5,-.5 353.5,-19.5 451.5,-19.5 451.5,-.5 353.5,-.5"/>
<text text-anchor="middle" x="402.5" y="-7.5" font-family="Helvetica,sans-Serif" font-size="10.00" fill="#000000">GPUDefMacros.h</text>
</a>
</g>
</g>
<!-- Node8&#45;&gt;Node9 -->
<g id="edge9" class="edge">
<title>Node8&#45;&gt;Node9</title>
<path fill="none" stroke="#191970" d="M402.5,-56.2455C402.5,-48.9382 402.5,-38.6944 402.5,-29.7046"/>
<polygon fill="#191970" stroke="#191970" points="406.0001,-29.6426 402.5,-19.6427 399.0001,-29.6427 406.0001,-29.6426"/>
</g>
<!-- Node12 -->
<g id="node13" class="node">
<title>Node12</title>
<polygon fill="none" stroke="#bfbfbf" points="33,-.5 33,-19.5 92,-19.5 92,-.5 33,-.5"/>
<text text-anchor="middle" x="62.5" y="-7.5" font-family="Helvetica,sans-Serif" font-size="10.00" fill="#000000">Rtypes.h</text>
</g>
<!-- Node11&#45;&gt;Node12 -->
<g id="edge12" class="edge">
<title>Node11&#45;&gt;Node12</title>
<path fill="none" stroke="#191970" d="M62.5,-56.2455C62.5,-48.9382 62.5,-38.6944 62.5,-29.7046"/>
<polygon fill="#191970" stroke="#191970" points="66.0001,-29.6426 62.5,-19.6427 59.0001,-29.6427 66.0001,-29.6426"/>
</g>
<!-- Node13&#45;&gt;Node3 -->
<g id="edge14" class="edge">
<title>Node13&#45;&gt;Node3</title>
<path fill="none" stroke="#191970" d="M548.1314,-392.3836C522.2966,-368.2656 453.337,-302.9145 400.5,-244 368.6534,-208.4902 334.3945,-164.3043 316.0113,-140.0449"/>
<polygon fill="#191970" stroke="#191970" points="318.5964,-137.6599 309.7812,-131.7826 313.0072,-141.8743 318.5964,-137.6599"/>
</g>
<!-- Node14 -->
<g id="node15" class="node">
<title>Node14</title>
<g id="a_node15"><a xlink:href="../../d4/dc5/GPUDataTypes_8h.html" target="_top" xlink:title="GPUDataTypes.h">
<polygon fill="none" stroke="#000000" points="617.5,-336.5 617.5,-355.5 715.5,-355.5 715.5,-336.5 617.5,-336.5"/>
<text text-anchor="middle" x="666.5" y="-343.5" font-family="Helvetica,sans-Serif" font-size="10.00" fill="#000000">GPUDataTypes.h</text>
</a>
</g>
</g>
<!-- Node13&#45;&gt;Node14 -->
<g id="edge15" class="edge">
<title>Node13&#45;&gt;Node14</title>
<path fill="none" stroke="#191970" d="M577.3122,-392.2455C594.3473,-383.4125 619.6575,-370.2887 638.9681,-360.2758"/>
<polygon fill="#191970" stroke="#191970" points="640.637,-363.353 647.9034,-355.6427 637.4147,-357.1388 640.637,-363.353"/>
</g>
<!-- Node14&#45;&gt;Node4 -->
<g id="edge16" class="edge">
<title>Node14&#45;&gt;Node4</title>
<path fill="none" stroke="#191970" d="M622.4713,-336.4793C535.5827,-315.4861 354.9966,-259.6711 409.5,-168 436.1289,-123.212 463.1481,-128.7167 512.5,-112 589.169,-86.0303 682.122,-74.6183 742.7048,-69.6722"/>
<polygon fill="#191970" stroke="#191970" points="743.1877,-73.1453 752.8847,-68.8772 742.6426,-66.1665 743.1877,-73.1453"/>
</g>
<!-- Node15 -->
<g id="node16" class="node">
<title>Node15</title>
<polygon fill="none" stroke="#bfbfbf" points="1329,-168.5 1329,-187.5 1382,-187.5 1382,-168.5 1329,-168.5"/>
<text text-anchor="middle" x="1355.5" y="-175.5" font-family="Helvetica,sans-Serif" font-size="10.00" fill="#000000">cstddef</text>
</g>
<!-- Node14&#45;&gt;Node15 -->
<g id="edge17" class="edge">
<title>Node14&#45;&gt;Node15</title>
<path fill="none" stroke="#191970" d="M715.7768,-345.2516C856.1258,-342.7284 1250.9357,-332.7636 1298.5,-300 1333.0195,-276.222 1347.1458,-225.9065 1352.5119,-197.89"/>
<polygon fill="#191970" stroke="#191970" points="1356.0175,-198.1557 1354.2615,-187.7074 1349.1186,-196.9703 1356.0175,-198.1557"/>
</g>
<!-- Node16&#45;&gt;Node14 -->
<g id="edge61" class="edge">
<title>Node16&#45;&gt;Node14</title>
<path fill="none" stroke="#191970" d="M776.5918,-448.4519C753.3985,-441.4159 725.0075,-429.8957 704.5,-412 690.0706,-399.4083 679.8046,-379.937 673.61,-365.4019"/>
<polygon fill="#191970" stroke="#191970" points="676.7635,-363.8598 669.8176,-355.8595 670.2584,-366.4452 676.7635,-363.8598"/>
</g>
<!-- Node17 -->
<g id="node18" class="node">
<title>Node17</title>
<g id="a_node18"><a xlink:href="../../d6/d25/GPUTPCTracker_8h.html" target="_top" xlink:title="GPUTPCTracker.h">
<polygon fill="none" stroke="#000000" points="1104.5,-392.5 1104.5,-411.5 1204.5,-411.5 1204.5,-392.5 1104.5,-392.5"/>
<text text-anchor="middle" x="1154.5" y="-399.5" font-family="Helvetica,sans-Serif" font-size="10.00" fill="#000000">GPUTPCTracker.h</text>
</a>
</g>
</g>
<!-- Node16&#45;&gt;Node17 -->
<g id="edge19" class="edge">
<title>Node16&#45;&gt;Node17</title>
<path fill="none" stroke="#191970" d="M874.6675,-448.5004C935.7711,-438.3466 1032.2297,-422.3179 1094.4269,-411.9825"/>
<polygon fill="#191970" stroke="#191970" points="1095.193,-415.4033 1104.484,-410.3113 1094.0455,-408.4979 1095.193,-415.4033"/>
</g>
<!-- Node27 -->
<g id="node28" class="node">
<title>Node27</title>
<g id="a_node28"><a xlink:href="../../df/d13/GPUParam_8h.html" target="_top" xlink:title="GPUParam.h">
<polygon fill="none" stroke="#000000" points="571,-280.5 571,-299.5 648,-299.5 648,-280.5 571,-280.5"/>
<text text-anchor="middle" x="609.5" y="-287.5" font-family="Helvetica,sans-Serif" font-size="10.00" fill="#000000">GPUParam.h</text>
</a>
</g>
</g>
<!-- Node16&#45;&gt;Node27 -->
<g id="edge60" class="edge">
<title>Node16&#45;&gt;Node27</title>
<path fill="none" stroke="#191970" d="M826.2946,-448.4864C837.5165,-435.1415 854.1562,-410.4339 842.5,-392 802.6207,-328.9319 713.8673,-304.6817 658.1382,-295.4828"/>
<polygon fill="#191970" stroke="#191970" points="658.5537,-292.0055 648.1359,-293.9343 657.4827,-298.9231 658.5537,-292.0055"/>
</g>
<!-- Node36 -->
<g id="node37" class="node">
<title>Node36</title>
<g id="a_node37"><a xlink:href="../../d7/d4f/GPUTRDDef_8h.html" target="_top" xlink:title="GPUTRDDef.h">
<polygon fill="none" stroke="#000000" points="1650,-112.5 1650,-131.5 1733,-131.5 1733,-112.5 1650,-112.5"/>
<text text-anchor="middle" x="1691.5" y="-119.5" font-family="Helvetica,sans-Serif" font-size="10.00" fill="#000000">GPUTRDDef.h</text>
</a>
</g>
</g>
<!-- Node16&#45;&gt;Node36 -->
<g id="edge62" class="edge">
<title>Node16&#45;&gt;Node36</title>
<path fill="none" stroke="#191970" d="M874.6389,-456.7242C1069.1413,-451.6337 1693.5,-428.8414 1693.5,-346 1693.5,-346 1693.5,-346 1693.5,-234 1693.5,-201.7064 1692.6585,-164.1836 1692.0672,-141.8029"/>
<polygon fill="#191970" stroke="#191970" points="1695.5599,-141.4874 1691.7866,-131.5873 1688.5626,-141.6797 1695.5599,-141.4874"/>
</g>
<!-- Node37 -->
<g id="node38" class="node">
<title>Node37</title>
<g id="a_node38"><a xlink:href="../../da/d28/GPUO2FakeClasses_8h.html" target="_top" xlink:title="GPUO2FakeClasses.h">
<polygon fill="none" stroke="#000000" points="713.5,-392.5 713.5,-411.5 833.5,-411.5 833.5,-392.5 713.5,-392.5"/>
<text text-anchor="middle" x="773.5" y="-399.5" font-family="Helvetica,sans-Serif" font-size="10.00" fill="#000000">GPUO2FakeClasses.h</text>
</a>
</g>
</g>
<!-- Node16&#45;&gt;Node37 -->
<g id="edge64" class="edge">
<title>Node16&#45;&gt;Node37</title>
<path fill="none" stroke="#191970" d="M809.8358,-448.2455C803.6527,-440.3761 794.7937,-429.101 787.3711,-419.6542"/>
<polygon fill="#191970" stroke="#191970" points="790.0068,-417.3435 781.0764,-411.6427 784.5025,-421.6683 790.0068,-417.3435"/>
</g>
<!-- Node18 -->
<g id="node19" class="node">
<title>Node18</title>
<g id="a_node19"><a xlink:href="../../da/dab/GPUTPCDef_8h.html" target="_top" xlink:title="GPUTPCDef.h">
<polygon fill="none" stroke="#000000" points="995.5,-168.5 995.5,-187.5 1077.5,-187.5 1077.5,-168.5 995.5,-168.5"/>
<text text-anchor="middle" x="1036.5" y="-175.5" font-family="Helvetica,sans-Serif" font-size="10.00" fill="#000000">GPUTPCDef.h</text>
</a>
</g>
</g>
<!-- Node17&#45;&gt;Node18 -->
<g id="edge20" class="edge">
<title>Node17&#45;&gt;Node18</title>
<path fill="none" stroke="#191970" d="M1113.7122,-392.4557C1045.4961,-375.5758 913.0962,-338.5798 886.5,-300 852.2611,-250.3339 940.012,-210.2775 995.3536,-190.814"/>
<polygon fill="#191970" stroke="#191970" points="996.6105,-194.0832 1004.9381,-187.5333 994.3435,-187.4605 996.6105,-194.0832"/>
</g>
<!-- Node19 -->
<g id="node20" class="node">
<title>Node19</title>
<polygon fill="none" stroke="#bfbfbf" points="1497.5,-336.5 1497.5,-355.5 1557.5,-355.5 1557.5,-336.5 1497.5,-336.5"/>
<text text-anchor="middle" x="1527.5" y="-343.5" font-family="Helvetica,sans-Serif" font-size="10.00" fill="#000000">iostream</text>
</g>
<!-- Node17&#45;&gt;Node19 -->
<g id="edge22" class="edge">
<title>Node17&#45;&gt;Node19</title>
<path fill="none" stroke="#191970" d="M1204.5961,-396.3324C1269.2787,-388.7088 1385.2162,-374.0062 1483.5,-356 1484.757,-355.7697 1486.0324,-355.5282 1487.3188,-355.2778"/>
<polygon fill="#191970" stroke="#191970" points="1488.1866,-358.6725 1497.2727,-353.2233 1486.7716,-351.817 1488.1866,-358.6725"/>
</g>
<!-- Node20 -->
<g id="node21" class="node">
<title>Node20</title>
<g id="a_node21"><a xlink:href="../../dd/d7b/GPUTPCHitId_8h.html" target="_top" xlink:title="GPUTPCHitId.h">
<polygon fill="none" stroke="#000000" points="1576,-336.5 1576,-355.5 1665,-355.5 1665,-336.5 1576,-336.5"/>
<text text-anchor="middle" x="1620.5" y="-343.5" font-family="Helvetica,sans-Serif" font-size="10.00" fill="#000000">GPUTPCHitId.h</text>
</a>
</g>
</g>
<!-- Node17&#45;&gt;Node20 -->
<g id="edge23" class="edge">
<title>Node17&#45;&gt;Node20</title>
<path fill="none" stroke="#191970" d="M1204.7531,-397.5643C1280.6098,-390.6104 1429.0931,-375.9947 1565.5331,-356.0501"/>
<polygon fill="#191970" stroke="#191970" points="1566.3701,-359.4646 1575.7524,-354.5428 1565.3486,-352.5396 1566.3701,-359.4646"/>
</g>
<!-- Node21 -->
<g id="node22" class="node">
<title>Node21</title>
<g id="a_node22"><a xlink:href="../../df/d4a/GPUTPCSliceData_8h.html" target="_top" xlink:title="GPUTPCSliceData.h">
<polygon fill="none" stroke="#000000" points="1157.5,-336.5 1157.5,-355.5 1269.5,-355.5 1269.5,-336.5 1157.5,-336.5"/>
<text text-anchor="middle" x="1213.5" y="-343.5" font-family="Helvetica,sans-Serif" font-size="10.00" fill="#000000">GPUTPCSliceData.h</text>
</a>
</g>
</g>
<!-- Node17&#45;&gt;Node21 -->
<g id="edge24" class="edge">
<title>Node17&#45;&gt;Node21</title>
<path fill="none" stroke="#191970" d="M1164.777,-392.2455C1173.3218,-384.1352 1185.6778,-372.4075 1195.8085,-362.7919"/>
<polygon fill="#191970" stroke="#191970" points="1198.4972,-365.0655 1203.3408,-355.6427 1193.6782,-359.9884 1198.4972,-365.0655"/>
</g>
<!-- Node32 -->
<g id="node33" class="node">
<title>Node32</title>
<g id="a_node33"><a xlink:href="../../d6/d57/GPUProcessor_8h.html" target="_top" xlink:title="GPUProcessor.h">
<polygon fill="none" stroke="#000000" points="1422,-224.5 1422,-243.5 1515,-243.5 1515,-224.5 1422,-224.5"/>
<text text-anchor="middle" x="1468.5" y="-231.5" font-family="Helvetica,sans-Serif" font-size="10.00" fill="#000000">GPUProcessor.h</text>
</a>
</g>
</g>
<!-- Node17&#45;&gt;Node32 -->
<g id="edge59" class="edge">
<title>Node17&#45;&gt;Node32</title>
<path fill="none" stroke="#191970" d="M1193.2644,-392.4747C1245.4331,-378.3591 1339.5243,-348.237 1407.5,-300 1426.4675,-286.5403 1444.0281,-266.3781 1455.3894,-251.8823"/>
<polygon fill="#191970" stroke="#191970" points="1458.3465,-253.7761 1461.6194,-243.6995 1452.777,-249.5357 1458.3465,-253.7761"/>
</g>
<!-- Node33 -->
<g id="node34" class="node">
<title>Node33</title>
<g id="a_node34"><a xlink:href="../../de/d15/GPUTPCTrackParam_8h.html" target="_top" xlink:title="GPUTPCTrackParam.h">
<polygon fill="none" stroke="#000000" points="895.5,-280.5 895.5,-299.5 1017.5,-299.5 1017.5,-280.5 895.5,-280.5"/>
<text text-anchor="middle" x="956.5" y="-287.5" font-family="Helvetica,sans-Serif" font-size="10.00" fill="#000000">GPUTPCTrackParam.h</text>
</a>
</g>
</g>
<!-- Node17&#45;&gt;Node33 -->
<g id="edge51" class="edge">
<title>Node17&#45;&gt;Node33</title>
<path fill="none" stroke="#191970" d="M1137.6186,-392.4509C1102.9142,-372.8201 1023.3708,-327.8259 982.2174,-304.5472"/>
<polygon fill="#191970" stroke="#191970" points="983.7659,-301.402 973.3386,-299.5249 980.3194,-307.4948 983.7659,-301.402"/>
</g>
<!-- Node35 -->
<g id="node36" class="node">
<title>Node35</title>
<g id="a_node36"><a xlink:href="../../db/d6e/GPUTPCTracklet_8h.html" target="_top" xlink:title="GPUTPCTracklet.h">
<polygon fill="none" stroke="#000000" points="1043.5,-280.5 1043.5,-299.5 1147.5,-299.5 1147.5,-280.5 1043.5,-280.5"/>
<text text-anchor="middle" x="1095.5" y="-287.5" font-family="Helvetica,sans-Serif" font-size="10.00" fill="#000000">GPUTPCTracklet.h</text>
</a>
</g>
</g>
<!-- Node17&#45;&gt;Node35 -->
<g id="edge56" class="edge">
<title>Node17&#45;&gt;Node35</title>
<path fill="none" stroke="#191970" d="M1149.4697,-392.4509C1139.6727,-373.8533 1117.8841,-332.4919 1105.191,-308.3964"/>
<polygon fill="#191970" stroke="#191970" points="1108.275,-306.7411 1100.5176,-299.5249 1102.0817,-310.0036 1108.275,-306.7411"/>
</g>
<!-- Node18&#45;&gt;Node3 -->
<g id="edge21" class="edge">
<title>Node18&#45;&gt;Node3</title>
<path fill="none" stroke="#191970" d="M995.4642,-174.8692C867.1385,-165.0787 474.292,-135.1067 344.5643,-125.2093"/>
<polygon fill="#191970" stroke="#191970" points="344.4963,-121.694 334.259,-124.423 343.9637,-128.6737 344.4963,-121.694"/>
</g>
<!-- Node21&#45;&gt;Node18 -->
<g id="edge25" class="edge">
<title>Node21&#45;&gt;Node18</title>
<path fill="none" stroke="#191970" d="M1243.8347,-336.3983C1262.1311,-329.1376 1284.5279,-317.4013 1298.5,-300 1320.1114,-273.0844 1336.8271,-250.3251 1314.5,-224 1300.0317,-206.9409 1164.3376,-190.7776 1088.0207,-182.9375"/>
<polygon fill="#191970" stroke="#191970" points="1087.9671,-179.4142 1077.665,-181.8873 1087.2607,-186.3785 1087.9671,-179.4142"/>
</g>
<!-- Node22 -->
<g id="node23" class="node">
<title>Node22</title>
<g id="a_node23"><a xlink:href="../../d8/dff/GPUTPCRow_8h.html" target="_top" xlink:title="GPUTPCRow.h">
<polygon fill="none" stroke="#000000" points="1204,-280.5 1204,-299.5 1289,-299.5 1289,-280.5 1204,-280.5"/>
<text text-anchor="middle" x="1246.5" y="-287.5" font-family="Helvetica,sans-Serif" font-size="10.00" fill="#000000">GPUTPCRow.h</text>
</a>
</g>
</g>
<!-- Node21&#45;&gt;Node22 -->
<g id="edge26" class="edge">
<title>Node21&#45;&gt;Node22</title>
<path fill="none" stroke="#191970" d="M1219.2482,-336.2455C1223.7435,-328.617 1230.1248,-317.7881 1235.5825,-308.5267"/>
<polygon fill="#191970" stroke="#191970" points="1238.7561,-310.035 1240.8177,-299.6427 1232.7253,-306.4811 1238.7561,-310.035"/>
</g>
<!-- Node24 -->
<g id="node25" class="node">
<title>Node24</title>
<g id="a_node25"><a xlink:href="../../d6/da2/GPUCommonMath_8h.html" target="_top" xlink:title="GPUCommonMath.h">
<polygon fill="none" stroke="#000000" points="723,-168.5 723,-187.5 838,-187.5 838,-168.5 723,-168.5"/>
<text text-anchor="middle" x="780.5" y="-175.5" font-family="Helvetica,sans-Serif" font-size="10.00" fill="#000000">GPUCommonMath.h</text>
</a>
</g>
</g>
<!-- Node21&#45;&gt;Node24 -->
<g id="edge30" class="edge">
<title>Node21&#45;&gt;Node24</title>
<path fill="none" stroke="#191970" d="M1209.2084,-336.3251C1198.1081,-312.5685 1165.9639,-251.3164 1118.5,-224 1073.8011,-198.2749 933.4714,-186.2616 848.3261,-181.21"/>
<polygon fill="#191970" stroke="#191970" points="848.411,-177.7092 838.2262,-180.6281 848.0083,-184.6976 848.411,-177.7092"/>
</g>
<!-- Node21&#45;&gt;Node27 -->
<g id="edge34" class="edge">
<title>Node21&#45;&gt;Node27</title>
<path fill="none" stroke="#191970" d="M1157.4899,-340.807C1040.0573,-329.9192 769.7644,-304.8589 658.6096,-294.5532"/>
<polygon fill="#191970" stroke="#191970" points="658.6404,-291.0411 648.3599,-293.6029 657.9941,-298.0112 658.6404,-291.0411"/>
</g>
<!-- Node31 -->
<g id="node32" class="node">
<title>Node31</title>
<g id="a_node32"><a xlink:href="../../d5/da6/GPUMemoryResource_8h.html" target="_top" xlink:title="GPUMemoryResource.h">
<polygon fill="none" stroke="#000000" points="1460,-280.5 1460,-299.5 1591,-299.5 1591,-280.5 1460,-280.5"/>
<text text-anchor="middle" x="1525.5" y="-287.5" font-family="Helvetica,sans-Serif" font-size="10.00" fill="#000000">GPUMemoryResource.h</text>
</a>
</g>
</g>
<!-- Node21&#45;&gt;Node31 -->
<g id="edge44" class="edge">
<title>Node21&#45;&gt;Node31</title>
<path fill="none" stroke="#191970" d="M1266.7802,-336.4369C1320.9618,-326.712 1404.9031,-311.6456 1462.3841,-301.3285"/>
<polygon fill="#191970" stroke="#191970" points="1463.2152,-304.7353 1472.4395,-299.5237 1461.9785,-297.8454 1463.2152,-304.7353"/>
</g>
<!-- Node22&#45;&gt;Node18 -->
<g id="edge27" class="edge">
<title>Node22&#45;&gt;Node18</title>
<path fill="none" stroke="#191970" d="M1263.3975,-280.4525C1284.2407,-267.4836 1315.0101,-243.6613 1298.5,-224 1272.1235,-192.589 1156.2086,-182.6213 1087.711,-179.4622"/>
<polygon fill="#191970" stroke="#191970" points="1087.696,-175.9585 1077.5554,-179.0276 1087.3966,-182.9521 1087.696,-175.9585"/>
</g>
<!-- Node23 -->
<g id="node24" class="node">
<title>Node23</title>
<g id="a_node24"><a xlink:href="../../d3/da7/GPUTPCGrid_8h.html" target="_top" xlink:title="GPUTPCGrid.h">
<polygon fill="none" stroke="#000000" points="1203.5,-224.5 1203.5,-243.5 1289.5,-243.5 1289.5,-224.5 1203.5,-224.5"/>
<text text-anchor="middle" x="1246.5" y="-231.5" font-family="Helvetica,sans-Serif" font-size="10.00" fill="#000000">GPUTPCGrid.h</text>
</a>
</g>
</g>
<!-- Node22&#45;&gt;Node23 -->
<g id="edge28" class="edge">
<title>Node22&#45;&gt;Node23</title>
<path fill="none" stroke="#191970" d="M1246.5,-280.2455C1246.5,-272.9382 1246.5,-262.6944 1246.5,-253.7046"/>
<polygon fill="#191970" stroke="#191970" points="1250.0001,-253.6426 1246.5,-243.6427 1243.0001,-253.6427 1250.0001,-253.6426"/>
</g>
<!-- Node23&#45;&gt;Node18 -->
<g id="edge29" class="edge">
<title>Node23&#45;&gt;Node18</title>
<path fill="none" stroke="#191970" d="M1210.3997,-224.3733C1174.8752,-214.9001 1120.512,-200.4032 1082.0381,-190.1435"/>
<polygon fill="#191970" stroke="#191970" points="1082.6934,-186.696 1072.1292,-187.5011 1080.8897,-193.4596 1082.6934,-186.696"/>
</g>
<!-- Node24&#45;&gt;Node4 -->
<g id="edge31" class="edge">
<title>Node24&#45;&gt;Node4</title>
<path fill="none" stroke="#191970" d="M782.7167,-168.4509C786.9765,-150.1013 796.3807,-109.5908 802.0035,-85.3693"/>
<polygon fill="#191970" stroke="#191970" points="805.4368,-86.0573 804.2889,-75.5249 798.6182,-84.4744 805.4368,-86.0573"/>
</g>
<!-- Node25 -->
<g id="node26" class="node">
<title>Node25</title>
<polygon fill="none" stroke="#bfbfbf" points="731,-112.5 731,-131.5 778,-131.5 778,-112.5 731,-112.5"/>
<text text-anchor="middle" x="754.5" y="-119.5" font-family="Helvetica,sans-Serif" font-size="10.00" fill="#000000">cmath</text>
</g>
<!-- Node24&#45;&gt;Node25 -->
<g id="edge32" class="edge">
<title>Node24&#45;&gt;Node25</title>
<path fill="none" stroke="#191970" d="M775.9711,-168.2455C772.4666,-160.6973 767.5073,-150.0158 763.2377,-140.8197"/>
<polygon fill="#191970" stroke="#191970" points="766.3627,-139.2389 758.977,-131.6427 760.0136,-142.1867 766.3627,-139.2389"/>
</g>
<!-- Node26 -->
<g id="node27" class="node">
<title>Node26</title>
<polygon fill="none" stroke="#bfbfbf" points="1089.5,-112.5 1089.5,-131.5 1153.5,-131.5 1153.5,-112.5 1089.5,-112.5"/>
<text text-anchor="middle" x="1121.5" y="-119.5" font-family="Helvetica,sans-Serif" font-size="10.00" fill="#000000">algorithm</text>
</g>
<!-- Node24&#45;&gt;Node26 -->
<g id="edge33" class="edge">
<title>Node24&#45;&gt;Node26</title>
<path fill="none" stroke="#191970" d="M838.346,-168.5004C906.6037,-157.2909 1018.4624,-138.9211 1079.142,-128.9561"/>
<polygon fill="#191970" stroke="#191970" points="1079.8404,-132.3884 1089.141,-127.3141 1078.706,-125.481 1079.8404,-132.3884"/>
</g>
<!-- Node27&#45;&gt;Node3 -->
<g id="edge37" class="edge">
<title>Node27&#45;&gt;Node3</title>
<path fill="none" stroke="#191970" d="M572.2382,-280.4469C544.4548,-272.5842 506.0256,-260.12 474.5,-244 414.3145,-213.2252 351.4716,-163.3782 321.1134,-137.9799"/>
<polygon fill="#191970" stroke="#191970" points="323.3398,-135.279 313.4415,-131.5008 318.8232,-140.627 323.3398,-135.279"/>
</g>
<!-- Node27&#45;&gt;Node4 -->
<g id="edge35" class="edge">
<title>Node27&#45;&gt;Node4</title>
<path fill="none" stroke="#191970" d="M576.358,-280.4577C545.6941,-269.7688 507.0174,-250.4152 522.5,-224 572.0942,-139.3861 685.2781,-96.833 752.8299,-78.2328"/>
<polygon fill="#191970" stroke="#191970" points="754.0991,-81.5166 762.8576,-75.5552 752.2932,-74.7536 754.0991,-81.5166"/>
</g>
<!-- Node27&#45;&gt;Node24 -->
<g id="edge36" class="edge">
<title>Node27&#45;&gt;Node24</title>
<path fill="none" stroke="#191970" d="M615.4148,-280.1668C624.3982,-265.9795 642.7557,-239.7476 664.5,-224 685.2106,-209.0011 711.4828,-198.0544 733.7854,-190.6117"/>
<polygon fill="#191970" stroke="#191970" points="734.9378,-193.9178 743.3949,-187.536 732.8039,-187.251 734.9378,-193.9178"/>
</g>
<!-- Node28 -->
<g id="node29" class="node">
<title>Node28</title>
<g id="a_node29"><a xlink:href="../../dd/dc6/GPUSettings_8h.html" target="_top" xlink:title="GPUSettings.h">
<polygon fill="none" stroke="#000000" points="531.5,-224.5 531.5,-243.5 617.5,-243.5 617.5,-224.5 531.5,-224.5"/>
<text text-anchor="middle" x="574.5" y="-231.5" font-family="Helvetica,sans-Serif" font-size="10.00" fill="#000000">GPUSettings.h</text>
</a>
</g>
</g>
<!-- Node27&#45;&gt;Node28 -->
<g id="edge38" class="edge">
<title>Node27&#45;&gt;Node28</title>
<path fill="none" stroke="#191970" d="M603.4035,-280.2455C598.5855,-272.5367 591.7249,-261.5598 585.8968,-252.2348"/>
<polygon fill="#191970" stroke="#191970" points="588.7947,-250.2677 580.5267,-243.6427 582.8587,-253.9777 588.7947,-250.2677"/>
</g>
<!-- Node29 -->
<g id="node30" class="node">
<title>Node29</title>
<g id="a_node30"><a xlink:href="../../d6/d1b/GPUTPCGeometry_8h.html" target="_top" xlink:title="GPUTPCGeometry.h">
<polygon fill="none" stroke="#000000" points="418,-168.5 418,-187.5 531,-187.5 531,-168.5 418,-168.5"/>
<text text-anchor="middle" x="474.5" y="-175.5" font-family="Helvetica,sans-Serif" font-size="10.00" fill="#000000">GPUTPCGeometry.h</text>
</a>
</g>
</g>
<!-- Node27&#45;&gt;Node29 -->
<g id="edge40" class="edge">
<title>Node27&#45;&gt;Node29</title>
<path fill="none" stroke="#191970" d="M570.7988,-284.8244C544.1715,-279.2312 510.031,-267.6888 489.5,-244 478.5694,-231.3882 475.1504,-212.455 474.2725,-198.0968"/>
<polygon fill="#191970" stroke="#191970" points="477.7635,-197.6817 474.0184,-187.7708 470.7656,-197.854 477.7635,-197.6817"/>
</g>
<!-- Node30 -->
<g id="node31" class="node">
<title>Node30</title>
<g id="a_node31"><a xlink:href="../../d9/d9c/GPUTPCGMPolynomialField_8h.html" target="_top" xlink:title="GPUTPCGMPolynomialField.h">
<polygon fill="none" stroke="#000000" points="673.5,-224.5 673.5,-243.5 831.5,-243.5 831.5,-224.5 673.5,-224.5"/>
<text text-anchor="middle" x="752.5" y="-231.5" font-family="Helvetica,sans-Serif" font-size="10.00" fill="#000000">GPUTPCGMPolynomialField.h</text>
</a>
</g>
</g>
<!-- Node27&#45;&gt;Node30 -->
<g id="edge42" class="edge">
<title>Node27&#45;&gt;Node30</title>
<path fill="none" stroke="#191970" d="M634.0826,-280.3733C657.4496,-271.2226 692.7862,-257.3844 718.7784,-247.2057"/>
<polygon fill="#191970" stroke="#191970" points="720.203,-250.4066 728.2382,-243.5011 717.6505,-243.8886 720.203,-250.4066"/>
</g>
<!-- Node28&#45;&gt;Node24 -->
<g id="edge39" class="edge">
<title>Node28&#45;&gt;Node24</title>
<path fill="none" stroke="#191970" d="M609.9127,-224.3733C644.7605,-214.9001 698.0882,-200.4032 735.8293,-190.1435"/>
<polygon fill="#191970" stroke="#191970" points="736.8178,-193.5019 745.5494,-187.5011 734.9815,-186.747 736.8178,-193.5019"/>
</g>
<!-- Node29&#45;&gt;Node4 -->
<g id="edge41" class="edge">
<title>Node29&#45;&gt;Node4</title>
<path fill="none" stroke="#191970" d="M481.9938,-168.0641C493.7605,-153.2466 518.0771,-125.6443 545.5,-112 579.2742,-95.1957 676.8663,-81.0457 742.6637,-73.0443"/>
<polygon fill="#191970" stroke="#191970" points="743.4235,-76.4783 752.9361,-71.8134 742.5907,-69.528 743.4235,-76.4783"/>
</g>
<!-- Node30&#45;&gt;Node18 -->
<g id="edge43" class="edge">
<title>Node30&#45;&gt;Node18</title>
<path fill="none" stroke="#191970" d="M800.9986,-224.4369C852.2393,-214.3331 932.7209,-198.4635 985.0513,-188.1448"/>
<polygon fill="#191970" stroke="#191970" points="985.9911,-191.527 995.125,-186.1584 984.6368,-184.6592 985.9911,-191.527"/>
</g>
<!-- Node31&#45;&gt;Node4 -->
<g id="edge45" class="edge">
<title>Node31&#45;&gt;Node4</title>
<path fill="none" stroke="#191970" d="M1527.5706,-280.1342C1529.8847,-266.8045 1532.3593,-242.5747 1524.5,-224 1489.6756,-141.6955 1443.5042,-136.2909 1357.5,-112 1267.5351,-86.5905 995.5081,-73.2178 870.5367,-68.2747"/>
<polygon fill="#191970" stroke="#191970" points="870.4817,-64.77 860.3529,-67.8777 870.2089,-71.7647 870.4817,-64.77"/>
</g>
<!-- Node31&#45;&gt;Node32 -->
<g id="edge46" class="edge">
<title>Node31&#45;&gt;Node32</title>
<path fill="none" stroke="#191970" d="M1515.5714,-280.2455C1507.3162,-272.1352 1495.3791,-260.4075 1485.5918,-250.7919"/>
<polygon fill="#191970" stroke="#191970" points="1487.9011,-248.1542 1478.3149,-243.6427 1482.9954,-253.1476 1487.9011,-248.1542"/>
</g>
<!-- Node32&#45;&gt;Node3 -->
<g id="edge48" class="edge">
<title>Node32&#45;&gt;Node3</title>
<path fill="none" stroke="#191970" d="M1458.888,-224.3244C1441.9387,-207.5179 1407.0615,-174.133 1391.5,-168 1341.9616,-148.4763 537.5079,-127.72 344.0811,-122.9949"/>
<polygon fill="#191970" stroke="#191970" points="344.1159,-119.4948 334.0337,-122.7505 343.9456,-126.4928 344.1159,-119.4948"/>
</g>
<!-- Node32&#45;&gt;Node4 -->
<g id="edge47" class="edge">
<title>Node32&#45;&gt;Node4</title>
<path fill="none" stroke="#191970" d="M1468.5049,-224.3067C1467.9544,-209.806 1464.6655,-182.6119 1448.5,-168 1364.1839,-91.7876 1015.1305,-72.3596 870.1143,-67.5396"/>
<polygon fill="#191970" stroke="#191970" points="870.139,-64.0387 860.0322,-67.2172 869.9152,-71.0351 870.139,-64.0387"/>
</g>
<!-- Node32&#45;&gt;Node15 -->
<g id="edge49" class="edge">
<title>Node32&#45;&gt;Node15</title>
<path fill="none" stroke="#191970" d="M1449.0746,-224.3733C1431.0979,-215.4644 1404.1559,-202.1127 1383.791,-192.0203"/>
<polygon fill="#191970" stroke="#191970" points="1385.1861,-188.8055 1374.6719,-187.5011 1382.0778,-195.0776 1385.1861,-188.8055"/>
</g>
<!-- Node32&#45;&gt;Node26 -->
<g id="edge50" class="edge">
<title>Node32&#45;&gt;Node26</title>
<path fill="none" stroke="#191970" d="M1464.8964,-224.017C1458.9636,-209.1378 1445.6452,-181.456 1424.5,-168 1382.0364,-140.9777 1236.8433,-128.7722 1163.957,-124.2421"/>
<polygon fill="#191970" stroke="#191970" points="1163.9408,-120.7349 1153.7488,-123.6286 1163.5208,-127.7223 1163.9408,-120.7349"/>
</g>
<!-- Node33&#45;&gt;Node18 -->
<g id="edge54" class="edge">
<title>Node33&#45;&gt;Node18</title>
<path fill="none" stroke="#191970" d="M953.1843,-280.2563C949.1832,-266.6382 944.1883,-241.608 954.5,-224 963.1755,-209.186 978.5626,-198.7802 993.6825,-191.6608"/>
<polygon fill="#191970" stroke="#191970" points="995.2033,-194.8166 1002.9998,-187.6426 992.4313,-188.3888 995.2033,-194.8166"/>
</g>
<!-- Node33&#45;&gt;Node24 -->
<g id="edge55" class="edge">
<title>Node33&#45;&gt;Node24</title>
<path fill="none" stroke="#191970" d="M941.4943,-280.4509C910.8408,-260.9441 840.8322,-216.3932 804.0571,-192.9909"/>
<polygon fill="#191970" stroke="#191970" points="805.7834,-189.9409 795.4677,-187.5249 802.0252,-195.8465 805.7834,-189.9409"/>
</g>
<!-- Node34 -->
<g id="node35" class="node">
<title>Node34</title>
<g id="a_node35"><a xlink:href="../../df/d00/GPUTPCBaseTrackParam_8h.html" target="_top" xlink:title="GPUTPCBaseTrackParam.h">
<polygon fill="none" stroke="#000000" points="963.5,-224.5 963.5,-243.5 1109.5,-243.5 1109.5,-224.5 963.5,-224.5"/>
<text text-anchor="middle" x="1036.5" y="-231.5" font-family="Helvetica,sans-Serif" font-size="10.00" fill="#000000">GPUTPCBaseTrackParam.h</text>
</a>
</g>
</g>
<!-- Node33&#45;&gt;Node34 -->
<g id="edge52" class="edge">
<title>Node33&#45;&gt;Node34</title>
<path fill="none" stroke="#191970" d="M970.4349,-280.2455C982.5947,-271.7337 1000.4464,-259.2375 1014.5285,-249.3801"/>
<polygon fill="#191970" stroke="#191970" points="1016.5395,-252.2447 1022.7248,-243.6427 1012.5253,-246.51 1016.5395,-252.2447"/>
</g>
<!-- Node34&#45;&gt;Node18 -->
<g id="edge53" class="edge">
<title>Node34&#45;&gt;Node18</title>
<path fill="none" stroke="#191970" d="M1036.5,-224.2455C1036.5,-216.9382 1036.5,-206.6944 1036.5,-197.7046"/>
<polygon fill="#191970" stroke="#191970" points="1040.0001,-197.6426 1036.5,-187.6427 1033.0001,-197.6427 1040.0001,-197.6426"/>
</g>
<!-- Node35&#45;&gt;Node18 -->
<g id="edge58" class="edge">
<title>Node35&#45;&gt;Node18</title>
<path fill="none" stroke="#191970" d="M1103.9963,-280.0914C1114.3741,-266.7132 1129.2922,-242.4286 1118.5,-224 1109.8245,-209.186 1094.4374,-198.7802 1079.3175,-191.6608"/>
<polygon fill="#191970" stroke="#191970" points="1080.5687,-188.3888 1070.0002,-187.6426 1077.7967,-194.8166 1080.5687,-188.3888"/>
</g>
<!-- Node35&#45;&gt;Node34 -->
<g id="edge57" class="edge">
<title>Node35&#45;&gt;Node34</title>
<path fill="none" stroke="#191970" d="M1085.223,-280.2455C1076.6782,-272.1352 1064.3222,-260.4075 1054.1915,-250.7919"/>
<polygon fill="#191970" stroke="#191970" points="1056.3218,-247.9884 1046.6592,-243.6427 1051.5028,-253.0655 1056.3218,-247.9884"/>
</g>
<!-- Node36&#45;&gt;Node4 -->
<g id="edge63" class="edge">
<title>Node36&#45;&gt;Node4</title>
<path fill="none" stroke="#191970" d="M1649.7644,-114.2131C1644.3071,-113.3687 1638.7794,-112.5999 1633.5,-112 1350.1888,-79.8057 1009.6063,-69.8868 870.4442,-67.0508"/>
<polygon fill="#191970" stroke="#191970" points="870.4467,-63.5503 860.3791,-66.851 870.3076,-70.5489 870.4467,-63.5503"/>
</g>
<!-- Node37&#45;&gt;Node4 -->
<g id="edge65" class="edge">
<title>Node37&#45;&gt;Node4</title>
<path fill="none" stroke="#191970" d="M833.6555,-398.5149C1014.3591,-387.5102 1543.4683,-351.1768 1600.5,-300 1623.2188,-279.6135 1619.5,-264.5246 1619.5,-234 1619.5,-234 1619.5,-234 1619.5,-178 1619.5,-102.4951 1062.0838,-75.24 870.3628,-68.0987"/>
<polygon fill="#191970" stroke="#191970" points="870.2791,-64.5934 860.1576,-67.7248 870.0227,-71.5887 870.2791,-64.5934"/>
</g>
<!-- Node37&#45;&gt;Node14 -->
<g id="edge66" class="edge">
<title>Node37&#45;&gt;Node14</title>
<path fill="none" stroke="#191970" d="M754.862,-392.2455C738.0614,-383.4527 713.1366,-370.4079 694.0382,-360.4125"/>
<polygon fill="#191970" stroke="#191970" points="695.4073,-357.1787 684.9244,-355.6427 692.1614,-363.3807 695.4073,-357.1787"/>
</g>
<!-- Node38&#45;&gt;Node3 -->
<g id="edge68" class="edge">
<title>Node38&#45;&gt;Node3</title>
<path fill="none" stroke="#191970" d="M428.9916,-448.0572C425.6295,-435.0488 419.2934,-411.6035 412.5,-392 379.2049,-295.9209 330.4255,-184.3645 310.9681,-140.79"/>
<polygon fill="#191970" stroke="#191970" points="314.1614,-139.3571 306.8769,-131.6638 307.7739,-142.2206 314.1614,-139.3571"/>
</g>
<!-- Node38&#45;&gt;Node14 -->
<g id="edge70" class="edge">
<title>Node38&#45;&gt;Node14</title>
<path fill="none" stroke="#191970" d="M495.9622,-448.6216C545.0534,-440.4509 607.6365,-427.4979 628.5,-412 644.0444,-400.4532 654.24,-380.5175 660.1194,-365.5702"/>
<polygon fill="#191970" stroke="#191970" points="663.5573,-366.3535 663.6524,-355.7591 656.9713,-363.9818 663.5573,-366.3535"/>
</g>
<!-- Node38&#45;&gt;Node32 -->
<g id="edge69" class="edge">
<title>Node38&#45;&gt;Node32</title>
<path fill="none" stroke="#191970" d="M437.9982,-448.3667C447.7965,-434.4284 467.5561,-408.5037 489.5,-392 536.2152,-356.8662 551.8071,-350.2338 608.5,-336 906.3399,-261.2216 998.2412,-364.3825 1298.5,-300 1350.6242,-288.8234 1407.7246,-263.797 1440.7058,-247.9747"/>
<polygon fill="#191970" stroke="#191970" points="1442.2781,-251.1021 1449.7397,-243.5804 1439.2162,-244.8073 1442.2781,-251.1021"/>
</g>
<!-- Node38&#45;&gt;Node39 -->
<g id="edge71" class="edge">
<title>Node38&#45;&gt;Node39</title>
<path fill="none" stroke="#191970" d="M402.9636,-448.3733C374.3971,-438.7364 330.42,-423.9007 299.9316,-413.6155"/>
<polygon fill="#191970" stroke="#191970" points="300.7451,-410.1962 290.151,-410.316 298.5075,-416.8289 300.7451,-410.1962"/>
</g>
<!-- Node39&#45;&gt;Node2 -->
<g id="edge72" class="edge">
<title>Node39&#45;&gt;Node2</title>
<path fill="none" stroke="#191970" d="M258.7067,-392.2455C253.2822,-384.4564 245.5339,-373.3308 238.9967,-363.9439"/>
<polygon fill="#191970" stroke="#191970" points="241.8025,-361.8485 233.2154,-355.6427 236.0583,-365.849 241.8025,-361.8485"/>
</g>
<!-- Node40&#45;&gt;Node2 -->
<g id="edge74" class="edge">
<title>Node40&#45;&gt;Node2</title>
<path fill="none" stroke="#191970" d="M171.601,-448.4427C177.2578,-435.4626 187.9563,-411.6277 198.5,-392 203.5147,-382.6649 209.5776,-372.5787 214.7776,-364.2366"/>
<polygon fill="#191970" stroke="#191970" points="217.7942,-366.0147 220.1799,-355.692 211.8776,-362.2739 217.7942,-366.0147"/>
</g>
<!-- Node40&#45;&gt;Node41 -->
<g id="edge75" class="edge">
<title>Node40&#45;&gt;Node41</title>
<path fill="none" stroke="#191970" d="M157.0488,-448.2455C148.2731,-440.0549 135.5446,-428.1749 125.186,-418.5069"/>
<polygon fill="#191970" stroke="#191970" points="127.5301,-415.9072 117.8314,-411.6427 122.7539,-421.0246 127.5301,-415.9072"/>
</g>
<!-- Node41&#45;&gt;Node2 -->
<g id="edge76" class="edge">
<title>Node41&#45;&gt;Node2</title>
<path fill="none" stroke="#191970" d="M127.9568,-392.3733C146.9738,-383.4241 175.5175,-369.9917 196.9976,-359.8835"/>
<polygon fill="#191970" stroke="#191970" points="198.7522,-362.926 206.3101,-355.5011 195.7716,-356.5923 198.7522,-362.926"/>
</g>
<!-- Node42&#45;&gt;Node2 -->
<g id="edge78" class="edge">
<title>Node42&#45;&gt;Node2</title>
<path fill="none" stroke="#191970" d="M333.3241,-392.3733C312.5234,-383.3435 281.2083,-369.7494 257.8542,-359.6111"/>
<polygon fill="#191970" stroke="#191970" points="258.9532,-356.2727 248.3865,-355.5011 256.1657,-362.6938 258.9532,-356.2727"/>
</g>
<!-- Node42&#45;&gt;Node24 -->
<g id="edge79" class="edge">
<title>Node42&#45;&gt;Node24</title>
<path fill="none" stroke="#191970" d="M361.3364,-392.2625C380.2354,-361.678 443.1562,-267.0224 522.5,-224 554.5335,-206.6306 647.4889,-192.9881 712.5864,-185.2089"/>
<polygon fill="#191970" stroke="#191970" points="713.2582,-188.6541 722.7814,-184.011 712.4413,-181.7019 713.2582,-188.6541"/>
</g>
</g>
</svg>
