<?xml version="1.0" encoding="UTF-8" standalone="no"?>
<!DOCTYPE svg PUBLIC "-//W3C//DTD SVG 1.1//EN"
 "http://www.w3.org/Graphics/SVG/1.1/DTD/svg11.dtd">
<!-- Generated by graphviz version 2.40.1 (20161225.0304)
 -->
<!-- Title: /home/travis/build/AliceO2Group/AliceO2/Detectors/TOF/base/include/TOFBase/Digit.h Pages: 1 -->
<!--zoomable 385 -->
<svg id="main" version="1.1" xmlns="http://www.w3.org/2000/svg" xmlns:xlink="http://www.w3.org/1999/xlink" xml:space="preserve" onload="init(evt)">
<style type="text/css"><![CDATA[
.edge:hover path { stroke: red; }
.edge:hover polygon { stroke: red; fill: red; }
]]></style>
<script type="text/javascript"><![CDATA[
var edges = document.getElementsByTagName('g');
if (edges && edges.length) {
  for (var i=0;i<edges.length;i++) {
    if (edges[i].id.substr(0,4)=='edge') {
      edges[i].setAttribute('class','edge');
    }
  }
}
]]></script>
        <defs>
                <circle id="rim" cx="0" cy="0" r="7"/>
                <circle id="rim2" cx="0" cy="0" r="3.5"/>
                <g id="zoomPlus">
                        <use xlink:href="#rim" fill="#404040">
                                <set attributeName="fill" to="#808080" begin="zoomplus.mouseover" end="zoomplus.mouseout"/>
                        </use>
                        <path d="M-4,0h8M0,-4v8" fill="none" stroke="white" stroke-width="1.5" pointer-events="none"/>
                </g>
                <g id="zoomMin">
                        <use xlink:href="#rim" fill="#404040">
                                <set attributeName="fill" to="#808080" begin="zoomminus.mouseover" end="zoomminus.mouseout"/>
                        </use>
                        <path d="M-4,0h8" fill="none" stroke="white" stroke-width="1.5" pointer-events="none"/>
                </g>
                <g id="dirArrow">
                        <path fill="none" stroke="white" stroke-width="1.5" d="M0,-3.0v7 M-2.5,-0.5L0,-3.0L2.5,-0.5"/>
                </g>
               <g id="resetDef">
                       <use xlink:href="#rim2" fill="#404040">
                               <set attributeName="fill" to="#808080" begin="reset.mouseover" end="reset.mouseout"/>
                       </use>
               </g>
        </defs>

<script type="text/javascript">
var viewWidth = 1286;
var viewHeight = 385;
var sectionId = 'dynsection-0';
</script>
<script xlink:href="../../svgpan.js"/>
<svg id="graph" class="graph">
<g id="viewport">
<title>/home/travis/build/AliceO2Group/AliceO2/Detectors/TOF/base/include/TOFBase/Digit.h</title>
<!-- Node0 -->
<g id="node1" class="node">
<title>Node0</title>
<polygon fill="#bfbfbf" stroke="#000000" points="222.165,-324.5 222.165,-376.5 375.165,-376.5 375.165,-324.5 222.165,-324.5"/>
<text text-anchor="start" x="230.165" y="-364.5" font-family="Helvetica,sans-Serif" font-size="10.00" fill="#000000">/home/travis/build</text>
<text text-anchor="start" x="230.165" y="-353.5" font-family="Helvetica,sans-Serif" font-size="10.00" fill="#000000">/AliceO2Group/AliceO2</text>
<text text-anchor="start" x="230.165" y="-342.5" font-family="Helvetica,sans-Serif" font-size="10.00" fill="#000000">/Detectors/TOF/base/include</text>
<text text-anchor="middle" x="298.665" y="-331.5" font-family="Helvetica,sans-Serif" font-size="10.00" fill="#000000">/TOFBase/Digit.h</text>
</g>
<!-- Node1 -->
<g id="node2" class="node">
<title>Node1</title>
<polygon fill="none" stroke="#bfbfbf" points="273.165,-73 273.165,-92 322.165,-92 322.165,-73 273.165,-73"/>
<text text-anchor="middle" x="297.665" y="-80" font-family="Helvetica,sans-Serif" font-size="10.00" fill="#000000">iosfwd</text>
</g>
<!-- Node0&#45;&gt;Node1 -->
<g id="edge1" class="edge">
<title>Node0&#45;&gt;Node1</title>
<path fill="none" stroke="#191970" d="M289.8916,-324.3607C286.6106,-313.283 283.2878,-300.1491 281.665,-288 272.6053,-220.1747 286.0068,-139.0184 293.3694,-102.2881"/>
<polygon fill="#191970" stroke="#191970" points="296.8207,-102.8823 295.429,-92.3793 289.9671,-101.4578 296.8207,-102.8823"/>
</g>
<!-- Node2 -->
<g id="node3" class="node">
<title>Node2</title>
<polygon fill="none" stroke="#bfbfbf" points="196.165,-73 196.165,-92 255.165,-92 255.165,-73 196.165,-73"/>
<text text-anchor="middle" x="225.665" y="-80" font-family="Helvetica,sans-Serif" font-size="10.00" fill="#000000">Rtypes.h</text>
</g>
<!-- Node0&#45;&gt;Node2 -->
<g id="edge2" class="edge">
<title>Node0&#45;&gt;Node2</title>
<path fill="none" stroke="#191970" d="M221.9278,-344.2635C146.8787,-336.3832 40.2462,-319.8229 14.665,-288 -49.5691,-208.0928 116.2389,-127.2988 191.154,-96.0218"/>
<polygon fill="#191970" stroke="#191970" points="192.7468,-99.1513 200.6659,-92.113 190.0861,-92.6767 192.7468,-99.1513"/>
</g>
<!-- Node3 -->
<g id="node4" class="node">
<title>Node3</title>
<g id="a_node4"><a xlink:href="../../d4/d54/Geo_8h.html" target="_top" xlink:title="TOFBase/Geo.h">
<polygon fill="none" stroke="#000000" points="290.165,-263 290.165,-282 381.165,-282 381.165,-263 290.165,-263"/>
<text text-anchor="middle" x="335.665" y="-270" font-family="Helvetica,sans-Serif" font-size="10.00" fill="#000000">TOFBase/Geo.h</text>
</a>
</g>
</g>
<!-- Node0&#45;&gt;Node3 -->
<g id="edge3" class="edge">
<title>Node0&#45;&gt;Node3</title>
<path fill="none" stroke="#191970" d="M311.1915,-324.0928C316.2952,-313.3338 322.0782,-301.1424 326.7409,-291.3131"/>
<polygon fill="#191970" stroke="#191970" points="329.9952,-292.619 331.1188,-282.0839 323.6707,-289.6188 329.9952,-292.619"/>
</g>
<!-- Node22 -->
<g id="node23" class="node">
<title>Node22</title>
<g id="a_node23"><a xlink:href="../../de/d64/RangeReference_8h.html" target="_top" xlink:title="Class to refer to the 1st entry and N elements of some group in the continuous container. ">
<polygon fill="none" stroke="#000000" points="23.665,-263 23.665,-282 233.665,-282 233.665,-263 23.665,-263"/>
<text text-anchor="middle" x="128.665" y="-270" font-family="Helvetica,sans-Serif" font-size="10.00" fill="#000000">CommonDataFormat/RangeReference.h</text>
</a>
</g>
</g>
<!-- Node0&#45;&gt;Node22 -->
<g id="edge31" class="edge">
<title>Node0&#45;&gt;Node22</title>
<path fill="none" stroke="#191970" d="M241.5846,-324.3101C213.9009,-311.6083 181.7725,-296.867 158.8808,-286.3637"/>
<polygon fill="#191970" stroke="#191970" points="160.2241,-283.1293 149.6755,-282.1401 157.3049,-289.4915 160.2241,-283.1293"/>
</g>
<!-- Node24 -->
<g id="node25" class="node">
<title>Node24</title>
<polygon fill="none" stroke="#bfbfbf" points="399.165,-263 399.165,-282 456.165,-282 456.165,-263 399.165,-263"/>
<text text-anchor="middle" x="427.665" y="-270" font-family="Helvetica,sans-Serif" font-size="10.00" fill="#000000">gsl/span</text>
</g>
<!-- Node0&#45;&gt;Node24 -->
<g id="edge34" class="edge">
<title>Node0&#45;&gt;Node24</title>
<path fill="none" stroke="#191970" d="M341.979,-324.3101C362.2357,-312.0619 385.6287,-297.9173 402.849,-287.505"/>
<polygon fill="#191970" stroke="#191970" points="404.9754,-290.3094 411.7218,-282.1401 401.3534,-284.3193 404.9754,-290.3094"/>
</g>
<!-- Node25 -->
<g id="node26" class="node">
<title>Node25</title>
<polygon fill="none" stroke="#bfbfbf" points="474.165,-257.5 474.165,-287.5 581.165,-287.5 581.165,-257.5 474.165,-257.5"/>
<text text-anchor="start" x="482.165" y="-275.5" font-family="Helvetica,sans-Serif" font-size="10.00" fill="#000000">boost/serialization</text>
<text text-anchor="middle" x="527.665" y="-264.5" font-family="Helvetica,sans-Serif" font-size="10.00" fill="#000000">/base_object.hpp</text>
</g>
<!-- Node0&#45;&gt;Node25 -->
<g id="edge35" class="edge">
<title>Node0&#45;&gt;Node25</title>
<path fill="none" stroke="#191970" d="M375.2371,-324.4187C407.5956,-313.397 444.5103,-300.8235 473.9067,-290.8107"/>
<polygon fill="#191970" stroke="#191970" points="475.2328,-294.0565 483.5703,-287.5192 472.9758,-287.4304 475.2328,-294.0565"/>
</g>
<!-- Node3&#45;&gt;Node2 -->
<g id="edge4" class="edge">
<title>Node3&#45;&gt;Node2</title>
<path fill="none" stroke="#191970" d="M330.0589,-262.8167C312.7038,-232.8398 259.6452,-141.1931 236.5719,-101.3391"/>
<polygon fill="#191970" stroke="#191970" points="239.4312,-99.2923 231.3918,-92.3917 233.3732,-102.7996 239.4312,-99.2923"/>
</g>
<!-- Node4 -->
<g id="node5" class="node">
<title>Node4</title>
<g id="a_node5"><a xlink:href="../../d4/dc6/LHCConstants_8h.html" target="_top" xlink:title="Header to collect LHC related constants. ">
<polygon fill="none" stroke="#000000" points="340.665,-73 340.665,-92 530.665,-92 530.665,-73 340.665,-73"/>
<text text-anchor="middle" x="435.665" y="-80" font-family="Helvetica,sans-Serif" font-size="10.00" fill="#000000">CommonConstants/LHCConstants.h</text>
</a>
</g>
</g>
<!-- Node3&#45;&gt;Node4 -->
<g id="edge5" class="edge">
<title>Node3&#45;&gt;Node4</title>
<path fill="none" stroke="#191970" d="M338.8247,-262.6657C346.5263,-239.3645 367.6329,-179.3491 394.665,-134 401.9064,-121.8519 411.7274,-109.4143 419.9421,-99.8059"/>
<polygon fill="#191970" stroke="#191970" points="422.6783,-101.9941 426.6422,-92.1687 417.4163,-97.3777 422.6783,-101.9941"/>
</g>
<!-- Node5 -->
<g id="node6" class="node">
<title>Node5</title>
<g id="a_node6"><a xlink:href="../../d1/dec/HBFUtils_8h.html" target="_top" xlink:title="DetectorsRaw/HBFUtils.h">
<polygon fill="none" stroke="#000000" points="601.165,-201.5 601.165,-220.5 740.165,-220.5 740.165,-201.5 601.165,-201.5"/>
<text text-anchor="middle" x="670.665" y="-208.5" font-family="Helvetica,sans-Serif" font-size="10.00" fill="#000000">DetectorsRaw/HBFUtils.h</text>
</a>
</g>
</g>
<!-- Node3&#45;&gt;Node5 -->
<g id="edge6" class="edge">
<title>Node3&#45;&gt;Node5</title>
<path fill="none" stroke="#191970" d="M367.2129,-262.9564C374.8482,-260.828 383.0146,-258.7009 390.665,-257 457.6916,-242.0986 534.7336,-229.7876 591.016,-221.6635"/>
<polygon fill="#191970" stroke="#191970" points="591.5194,-225.1272 600.9227,-220.2458 590.5277,-218.1978 591.5194,-225.1272"/>
</g>
<!-- Node5&#45;&gt;Node2 -->
<g id="edge7" class="edge">
<title>Node5&#45;&gt;Node2</title>
<path fill="none" stroke="#191970" d="M601.0201,-205.0126C544.413,-198.8187 463.0251,-186.8706 394.665,-165 340.6062,-147.7048 282.0358,-115.8558 250.009,-97.1941"/>
<polygon fill="#191970" stroke="#191970" points="251.7228,-94.1416 241.3305,-92.0799 248.1689,-100.1723 251.7228,-94.1416"/>
</g>
<!-- Node6 -->
<g id="node7" class="node">
<title>Node6</title>
<g id="a_node7"><a xlink:href="../../db/d2c/ConfigurableParam_8h.html" target="_top" xlink:title="CommonUtils/Configurable\lParam.h">
<polygon fill="none" stroke="#000000" points="862.665,-67.5 862.665,-97.5 1010.665,-97.5 1010.665,-67.5 862.665,-67.5"/>
<text text-anchor="start" x="870.665" y="-85.5" font-family="Helvetica,sans-Serif" font-size="10.00" fill="#000000">CommonUtils/Configurable</text>
<text text-anchor="middle" x="936.665" y="-74.5" font-family="Helvetica,sans-Serif" font-size="10.00" fill="#000000">Param.h</text>
</a>
</g>
</g>
<!-- Node5&#45;&gt;Node6 -->
<g id="edge8" class="edge">
<title>Node5&#45;&gt;Node6</title>
<path fill="none" stroke="#191970" d="M740.3708,-208.3163C809.2729,-204.0581 907.8846,-193.0991 932.665,-165 946.223,-149.6263 945.8871,-125.6988 942.9462,-107.5634"/>
<polygon fill="#191970" stroke="#191970" points="946.3632,-106.7998 940.999,-97.6633 939.4948,-108.1508 946.3632,-106.7998"/>
</g>
<!-- Node13 -->
<g id="node14" class="node">
<title>Node13</title>
<g id="a_node14"><a xlink:href="../../da/d6b/ConfigurableParamHelper_8h.html" target="_top" xlink:title="CommonUtils/Configurable\lParamHelper.h">
<polygon fill="none" stroke="#000000" points="1007.665,-134.5 1007.665,-164.5 1155.665,-164.5 1155.665,-134.5 1007.665,-134.5"/>
<text text-anchor="start" x="1015.665" y="-152.5" font-family="Helvetica,sans-Serif" font-size="10.00" fill="#000000">CommonUtils/Configurable</text>
<text text-anchor="middle" x="1081.665" y="-141.5" font-family="Helvetica,sans-Serif" font-size="10.00" fill="#000000">ParamHelper.h</text>
</a>
</g>
</g>
<!-- Node5&#45;&gt;Node13 -->
<g id="edge15" class="edge">
<title>Node5&#45;&gt;Node13</title>
<path fill="none" stroke="#191970" d="M734.4328,-201.4581C805.1024,-190.8835 919.3725,-173.7846 997.3789,-162.1122"/>
<polygon fill="#191970" stroke="#191970" points="998.2874,-165.5153 1007.6593,-160.5738 997.2514,-158.5923 998.2874,-165.5153"/>
</g>
<!-- Node17 -->
<g id="node18" class="node">
<title>Node17</title>
<g id="a_node18"><a xlink:href="../../d9/d80/InteractionRecord_8h.html" target="_top" xlink:title="CommonDataFormat/Interaction\lRecord.h">
<polygon fill="none" stroke="#000000" points="403.665,-134.5 403.665,-164.5 577.665,-164.5 577.665,-134.5 403.665,-134.5"/>
<text text-anchor="start" x="411.665" y="-152.5" font-family="Helvetica,sans-Serif" font-size="10.00" fill="#000000">CommonDataFormat/Interaction</text>
<text text-anchor="middle" x="490.665" y="-141.5" font-family="Helvetica,sans-Serif" font-size="10.00" fill="#000000">Record.h</text>
</a>
</g>
</g>
<!-- Node5&#45;&gt;Node17 -->
<g id="edge21" class="edge">
<title>Node5&#45;&gt;Node17</title>
<path fill="none" stroke="#191970" d="M642.54,-201.3906C616.3747,-192.4508 576.686,-178.8905 544.4424,-167.8739"/>
<polygon fill="#191970" stroke="#191970" points="545.2925,-164.4658 534.698,-164.5446 543.0293,-171.0898 545.2925,-164.4658"/>
</g>
<!-- Node20 -->
<g id="node21" class="node">
<title>Node20</title>
<g id="a_node21"><a xlink:href="../../d4/d78/DataFormats_2Headers_2include_2Headers_2RAWDataHeader_8h.html" target="_top" xlink:title="Headers/RAWDataHeader.h">
<polygon fill="none" stroke="#000000" points="596.165,-140 596.165,-159 745.165,-159 745.165,-140 596.165,-140"/>
<text text-anchor="middle" x="670.665" y="-147" font-family="Helvetica,sans-Serif" font-size="10.00" fill="#000000">Headers/RAWDataHeader.h</text>
</a>
</g>
</g>
<!-- Node5&#45;&gt;Node20 -->
<g id="edge27" class="edge">
<title>Node5&#45;&gt;Node20</title>
<path fill="none" stroke="#191970" d="M670.665,-201.3906C670.665,-192.8657 670.665,-180.1392 670.665,-169.4235"/>
<polygon fill="#191970" stroke="#191970" points="674.1651,-169.2448 670.665,-159.2449 667.1651,-169.2449 674.1651,-169.2448"/>
</g>
<!-- Node21 -->
<g id="node22" class="node">
<title>Node21</title>
<g id="a_node22"><a xlink:href="../../de/da4/Triggers_8h.html" target="_top" xlink:title="Definition of the 32 Central Trigger System (CTS) Trigger Types defined in https://twiki.cern.ch/twiki/pub/ALICE/NoteForFEDevelopers/CTS_CRU_FE_interface.pdf. ">
<polygon fill="none" stroke="#000000" points="763.665,-140 763.665,-159 923.665,-159 923.665,-140 763.665,-140"/>
<text text-anchor="middle" x="843.665" y="-147" font-family="Helvetica,sans-Serif" font-size="10.00" fill="#000000">CommonConstants/Triggers.h</text>
</a>
</g>
</g>
<!-- Node5&#45;&gt;Node21 -->
<g id="edge29" class="edge">
<title>Node5&#45;&gt;Node21</title>
<path fill="none" stroke="#191970" d="M697.6963,-201.3906C727.1502,-190.92 774.4339,-174.1111 807.1678,-162.4745"/>
<polygon fill="#191970" stroke="#191970" points="808.5736,-165.6893 816.8236,-159.0419 806.2289,-159.0937 808.5736,-165.6893"/>
</g>
<!-- Node7 -->
<g id="node8" class="node">
<title>Node7</title>
<polygon fill="none" stroke="#bfbfbf" points="852.165,-6 852.165,-25 899.165,-25 899.165,-6 852.165,-6"/>
<text text-anchor="middle" x="875.665" y="-13" font-family="Helvetica,sans-Serif" font-size="10.00" fill="#000000">vector</text>
</g>
<!-- Node6&#45;&gt;Node7 -->
<g id="edge9" class="edge">
<title>Node6&#45;&gt;Node7</title>
<path fill="none" stroke="#191970" d="M922.8232,-67.2967C913.4114,-56.9591 900.9467,-43.2684 891.1961,-32.5588"/>
<polygon fill="#191970" stroke="#191970" points="893.6846,-30.0931 884.3643,-25.055 888.5085,-34.8057 893.6846,-30.0931"/>
</g>
<!-- Node8 -->
<g id="node9" class="node">
<title>Node8</title>
<polygon fill="none" stroke="#bfbfbf" points="917.665,-6 917.665,-25 955.665,-25 955.665,-6 917.665,-6"/>
<text text-anchor="middle" x="936.665" y="-13" font-family="Helvetica,sans-Serif" font-size="10.00" fill="#000000">map</text>
</g>
<!-- Node6&#45;&gt;Node8 -->
<g id="edge10" class="edge">
<title>Node6&#45;&gt;Node8</title>
<path fill="none" stroke="#191970" d="M936.665,-67.2967C936.665,-57.7699 936.665,-45.3954 936.665,-35.1306"/>
<polygon fill="#191970" stroke="#191970" points="940.1651,-35.0549 936.665,-25.055 933.1651,-35.055 940.1651,-35.0549"/>
</g>
<!-- Node9 -->
<g id="node10" class="node">
<title>Node9</title>
<polygon fill="none" stroke="#bfbfbf" points="974.165,-6 974.165,-25 1067.165,-25 1067.165,-6 974.165,-6"/>
<text text-anchor="middle" x="1020.665" y="-13" font-family="Helvetica,sans-Serif" font-size="10.00" fill="#000000">unordered_map</text>
</g>
<!-- Node6&#45;&gt;Node9 -->
<g id="edge11" class="edge">
<title>Node6&#45;&gt;Node9</title>
<path fill="none" stroke="#191970" d="M955.7259,-67.2967C969.1947,-56.5537 987.2035,-42.1895 1000.8399,-31.3129"/>
<polygon fill="#191970" stroke="#191970" points="1003.0503,-34.0268 1008.6856,-25.055 998.6854,-28.5544 1003.0503,-34.0268"/>
</g>
<!-- Node10 -->
<g id="node11" class="node">
<title>Node10</title>
<polygon fill="none" stroke="#bfbfbf" points="642.165,-.5 642.165,-30.5 755.165,-30.5 755.165,-.5 642.165,-.5"/>
<text text-anchor="start" x="650.165" y="-18.5" font-family="Helvetica,sans-Serif" font-size="10.00" fill="#000000">boost/property_tree</text>
<text text-anchor="middle" x="698.665" y="-7.5" font-family="Helvetica,sans-Serif" font-size="10.00" fill="#000000">/ptree.hpp</text>
</g>
<!-- Node6&#45;&gt;Node10 -->
<g id="edge12" class="edge">
<title>Node6&#45;&gt;Node10</title>
<path fill="none" stroke="#191970" d="M883.2532,-67.4639C847.3976,-57.3701 799.9891,-44.024 762.1961,-33.3848"/>
<polygon fill="#191970" stroke="#191970" points="762.8841,-29.9425 752.3098,-30.6017 760.9872,-36.6806 762.8841,-29.9425"/>
</g>
<!-- Node11 -->
<g id="node12" class="node">
<title>Node11</title>
<polygon fill="none" stroke="#bfbfbf" points="1085.165,-6 1085.165,-25 1142.165,-25 1142.165,-6 1085.165,-6"/>
<text text-anchor="middle" x="1113.665" y="-13" font-family="Helvetica,sans-Serif" font-size="10.00" fill="#000000">typeinfo</text>
</g>
<!-- Node6&#45;&gt;Node11 -->
<g id="edge13" class="edge">
<title>Node6&#45;&gt;Node11</title>
<path fill="none" stroke="#191970" d="M979.1214,-67.434C1006.974,-57.4148 1044.1274,-43.7927 1076.665,-31 1078.4636,-30.2928 1080.3071,-29.5569 1082.1645,-28.8066"/>
<polygon fill="#191970" stroke="#191970" points="1083.5042,-32.0402 1091.4252,-25.004 1080.8452,-25.5648 1083.5042,-32.0402"/>
</g>
<!-- Node12 -->
<g id="node13" class="node">
<title>Node12</title>
<polygon fill="none" stroke="#bfbfbf" points="773.665,-6 773.665,-25 833.665,-25 833.665,-6 773.665,-6"/>
<text text-anchor="middle" x="803.665" y="-13" font-family="Helvetica,sans-Serif" font-size="10.00" fill="#000000">iostream</text>
</g>
<!-- Node6&#45;&gt;Node12 -->
<g id="edge14" class="edge">
<title>Node6&#45;&gt;Node12</title>
<path fill="none" stroke="#191970" d="M906.8172,-67.4639C884.401,-56.1715 853.9044,-40.8086 831.8912,-29.7192"/>
<polygon fill="#191970" stroke="#191970" points="833.235,-26.4772 822.7295,-25.1039 830.0857,-32.7287 833.235,-26.4772"/>
</g>
<!-- Node13&#45;&gt;Node6 -->
<g id="edge16" class="edge">
<title>Node13&#45;&gt;Node6</title>
<path fill="none" stroke="#191970" d="M1049.1242,-134.4639C1028.3019,-124.8426 1001.0846,-112.2663 978.6414,-101.896"/>
<polygon fill="#191970" stroke="#191970" points="979.8937,-98.6191 969.3478,-97.6017 976.9574,-104.9735 979.8937,-98.6191"/>
</g>
<!-- Node13&#45;&gt;Node11 -->
<g id="edge19" class="edge">
<title>Node13&#45;&gt;Node11</title>
<path fill="none" stroke="#191970" d="M1071.4949,-134.4762C1061.4319,-117.6116 1048.8461,-89.6456 1058.665,-67 1065.0299,-52.3206 1077.8679,-39.9121 1089.5406,-30.9554"/>
<polygon fill="#191970" stroke="#191970" points="1091.6562,-33.7451 1097.725,-25.0606 1087.5651,-28.065 1091.6562,-33.7451"/>
</g>
<!-- Node14 -->
<g id="node15" class="node">
<title>Node14</title>
<polygon fill="none" stroke="#bfbfbf" points="1067.165,-73 1067.165,-92 1124.165,-92 1124.165,-73 1067.165,-73"/>
<text text-anchor="middle" x="1095.665" y="-80" font-family="Helvetica,sans-Serif" font-size="10.00" fill="#000000">TClass.h</text>
</g>
<!-- Node13&#45;&gt;Node14 -->
<g id="edge17" class="edge">
<title>Node13&#45;&gt;Node14</title>
<path fill="none" stroke="#191970" d="M1084.8418,-134.2967C1086.8325,-124.7699 1089.4182,-112.3954 1091.5631,-102.1306"/>
<polygon fill="#191970" stroke="#191970" points="1095.049,-102.5595 1093.6685,-92.055 1088.197,-101.1277 1095.049,-102.5595"/>
</g>
<!-- Node15 -->
<g id="node16" class="node">
<title>Node15</title>
<polygon fill="none" stroke="#bfbfbf" points="1142.165,-73 1142.165,-92 1211.165,-92 1211.165,-73 1142.165,-73"/>
<text text-anchor="middle" x="1176.665" y="-80" font-family="Helvetica,sans-Serif" font-size="10.00" fill="#000000">type_traits</text>
</g>
<!-- Node13&#45;&gt;Node15 -->
<g id="edge18" class="edge">
<title>Node13&#45;&gt;Node15</title>
<path fill="none" stroke="#191970" d="M1103.222,-134.2967C1118.5982,-123.4524 1139.2064,-108.9182 1154.6788,-98.006"/>
<polygon fill="#191970" stroke="#191970" points="1156.9621,-100.6787 1163.1169,-92.055 1152.9276,-94.9582 1156.9621,-100.6787"/>
</g>
<!-- Node16 -->
<g id="node17" class="node">
<title>Node16</title>
<polygon fill="none" stroke="#bfbfbf" points="1229.665,-73 1229.665,-92 1277.665,-92 1277.665,-73 1229.665,-73"/>
<text text-anchor="middle" x="1253.665" y="-80" font-family="Helvetica,sans-Serif" font-size="10.00" fill="#000000">TFile.h</text>
</g>
<!-- Node13&#45;&gt;Node16 -->
<g id="edge20" class="edge">
<title>Node13&#45;&gt;Node16</title>
<path fill="none" stroke="#191970" d="M1125.2338,-134.4227C1152.8142,-124.6168 1189.099,-111.2332 1220.665,-98 1222.0149,-97.4341 1223.3902,-96.8439 1224.7753,-96.2385"/>
<polygon fill="#191970" stroke="#191970" points="1226.2222,-99.4256 1233.893,-92.1174 1223.339,-93.0469 1226.2222,-99.4256"/>
</g>
<!-- Node17&#45;&gt;Node1 -->
<g id="edge23" class="edge">
<title>Node17&#45;&gt;Node1</title>
<path fill="none" stroke="#191970" d="M439.3024,-134.4989C407.9017,-124.9256 367.0971,-111.7626 331.665,-98 330.0852,-97.3864 328.4738,-96.7366 326.8536,-96.0643"/>
<polygon fill="#191970" stroke="#191970" points="328.205,-92.8355 317.6382,-92.0653 325.4184,-99.2569 328.205,-92.8355"/>
</g>
<!-- Node17&#45;&gt;Node2 -->
<g id="edge22" class="edge">
<title>Node17&#45;&gt;Node2</title>
<path fill="none" stroke="#191970" d="M410.9053,-134.4585C367.2718,-125.4489 312.5111,-112.862 264.665,-98 262.3754,-97.2888 260.03,-96.5043 257.681,-95.6772"/>
<polygon fill="#191970" stroke="#191970" points="258.7307,-92.3331 248.1381,-92.115 256.2826,-98.8912 258.7307,-92.3331"/>
</g>
<!-- Node17&#45;&gt;Node4 -->
<g id="edge26" class="edge">
<title>Node17&#45;&gt;Node4</title>
<path fill="none" stroke="#191970" d="M478.1847,-134.2967C469.7818,-124.0605 458.6801,-110.5366 449.9277,-99.8746"/>
<polygon fill="#191970" stroke="#191970" points="452.5589,-97.5635 443.5087,-92.055 447.1484,-102.005 452.5589,-97.5635"/>
</g>
<!-- Node18 -->
<g id="node19" class="node">
<title>Node18</title>
<polygon fill="none" stroke="#bfbfbf" points="549.165,-73 549.165,-92 596.165,-92 596.165,-73 549.165,-73"/>
<text text-anchor="middle" x="572.665" y="-80" font-family="Helvetica,sans-Serif" font-size="10.00" fill="#000000">cmath</text>
</g>
<!-- Node17&#45;&gt;Node18 -->
<g id="edge24" class="edge">
<title>Node17&#45;&gt;Node18</title>
<path fill="none" stroke="#191970" d="M509.2721,-134.2967C522.2961,-123.6551 539.6689,-109.4602 552.934,-98.6217"/>
<polygon fill="#191970" stroke="#191970" points="555.4416,-101.0926 560.9709,-92.055 551.0125,-95.6719 555.4416,-101.0926"/>
</g>
<!-- Node19 -->
<g id="node20" class="node">
<title>Node19</title>
<polygon fill="none" stroke="#bfbfbf" points="645.665,-73 645.665,-92 695.665,-92 695.665,-73 645.665,-73"/>
<text text-anchor="middle" x="670.665" y="-80" font-family="Helvetica,sans-Serif" font-size="10.00" fill="#000000">cstdint</text>
</g>
<!-- Node17&#45;&gt;Node19 -->
<g id="edge25" class="edge">
<title>Node17&#45;&gt;Node19</title>
<path fill="none" stroke="#191970" d="M531.0605,-134.4639C562.6299,-122.7131 606.0412,-106.5544 636.0345,-95.3902"/>
<polygon fill="#191970" stroke="#191970" points="637.5044,-98.5778 645.6553,-91.8092 635.0625,-92.0175 637.5044,-98.5778"/>
</g>
<!-- Node20&#45;&gt;Node19 -->
<g id="edge28" class="edge">
<title>Node20&#45;&gt;Node19</title>
<path fill="none" stroke="#191970" d="M670.665,-139.9005C670.665,-130.149 670.665,-114.7597 670.665,-102.3695"/>
<polygon fill="#191970" stroke="#191970" points="674.1651,-102.0816 670.665,-92.0817 667.1651,-102.0817 674.1651,-102.0816"/>
</g>
<!-- Node21&#45;&gt;Node19 -->
<g id="edge30" class="edge">
<title>Node21&#45;&gt;Node19</title>
<path fill="none" stroke="#191970" d="M818.8783,-139.9005C788.9458,-128.3082 738.4412,-108.7486 704.8295,-95.7313"/>
<polygon fill="#191970" stroke="#191970" points="705.9949,-92.4294 695.4057,-92.0817 703.4668,-98.957 705.9949,-92.4294"/>
</g>
<!-- Node23 -->
<g id="node24" class="node">
<title>Node23</title>
<g id="a_node24"><a xlink:href="../../d2/d45/GPUCommonRtypes_8h.html" target="_top" xlink:title="GPUCommonRtypes.h">
<polygon fill="none" stroke="#000000" points="87.165,-201.5 87.165,-220.5 212.165,-220.5 212.165,-201.5 87.165,-201.5"/>
<text text-anchor="middle" x="149.665" y="-208.5" font-family="Helvetica,sans-Serif" font-size="10.00" fill="#000000">GPUCommonRtypes.h</text>
</a>
</g>
</g>
<!-- Node22&#45;&gt;Node23 -->
<g id="edge32" class="edge">
<title>Node22&#45;&gt;Node23</title>
<path fill="none" stroke="#191970" d="M131.9463,-262.8906C134.9185,-254.1862 139.3865,-241.1015 143.092,-230.2494"/>
<polygon fill="#191970" stroke="#191970" points="146.4182,-231.3394 146.3375,-220.7449 139.7938,-229.0773 146.4182,-231.3394"/>
</g>
<!-- Node23&#45;&gt;Node2 -->
<g id="edge33" class="edge">
<title>Node23&#45;&gt;Node2</title>
<path fill="none" stroke="#191970" d="M155.3774,-201.3416C167.9764,-180.0393 198.3285,-128.7203 214.7219,-101.0025"/>
<polygon fill="#191970" stroke="#191970" points="217.8082,-102.6595 219.8864,-92.2705 211.7831,-99.096 217.8082,-102.6595"/>
</g>
</g>
</svg>
        <g id="navigator" transform="translate(0 0)" fill="#404254">
                <rect fill="#f2f5e9" fill-opacity="0.5" stroke="#606060" stroke-width=".5" x="0" y="0" width="60" height="60"/>
                <use id="zoomplus" xlink:href="#zoomPlus" x="17" y="9" onmousedown="handleZoom(evt,'in')"/>
                <use id="zoomminus" xlink:href="#zoomMin" x="42" y="9" onmousedown="handleZoom(evt,'out')"/>
                <use id="reset" xlink:href="#resetDef" x="30" y="36" onmousedown="handleReset()"/>
                <g id="arrowUp" xlink:href="#dirArrow" transform="translate(30 24)" onmousedown="handlePan(0,-1)">
                  <use xlink:href="#rim" fill="#404040">
                        <set attributeName="fill" to="#808080" begin="arrowUp.mouseover" end="arrowUp.mouseout"/>
                  </use>
                  <path fill="none" stroke="white" stroke-width="1.5" d="M0,-3.0v7 M-2.5,-0.5L0,-3.0L2.5,-0.5"/>
                </g>
                <g id="arrowRight" xlink:href="#dirArrow" transform="rotate(90) translate(36 -43)" onmousedown="handlePan(1,0)">
                  <use xlink:href="#rim" fill="#404040">
                        <set attributeName="fill" to="#808080" begin="arrowRight.mouseover" end="arrowRight.mouseout"/>
                  </use>
                  <path fill="none" stroke="white" stroke-width="1.5" d="M0,-3.0v7 M-2.5,-0.5L0,-3.0L2.5,-0.5"/>
                </g>
                <g id="arrowDown" xlink:href="#dirArrow" transform="rotate(180) translate(-30 -48)" onmousedown="handlePan(0,1)">
                  <use xlink:href="#rim" fill="#404040">
                        <set attributeName="fill" to="#808080" begin="arrowDown.mouseover" end="arrowDown.mouseout"/>
                  </use>
                  <path fill="none" stroke="white" stroke-width="1.5" d="M0,-3.0v7 M-2.5,-0.5L0,-3.0L2.5,-0.5"/>
                </g>
                <g id="arrowLeft" xlink:href="#dirArrow" transform="rotate(270) translate(-36 17)" onmousedown="handlePan(-1,0)">
                  <use xlink:href="#rim" fill="#404040">
                        <set attributeName="fill" to="#808080" begin="arrowLeft.mouseover" end="arrowLeft.mouseout"/>
                  </use>
                  <path fill="none" stroke="white" stroke-width="1.5" d="M0,-3.0v7 M-2.5,-0.5L0,-3.0L2.5,-0.5"/>
                </g>
        </g>
        <svg viewBox="0 0 15 15" width="100%" height="30px" preserveAspectRatio="xMaxYMin meet">
         <g id="arrow_out" transform="scale(0.3 0.3)">
          <a xlink:href="Detectors_2TOF_2base_2include_2TOFBase_2Digit_8h__incl_org.svg" target="_base">
           <rect id="button" ry="5" rx="5" y="6" x="6" height="38" width="38"
                fill="#f2f5e9" fill-opacity="0.5" stroke="#606060" stroke-width="1.0"/>
           <path id="arrow"
             d="M 11.500037,31.436501 C 11.940474,20.09759 22.043105,11.32322 32.158766,21.979434 L 37.068811,17.246167 C 37.068811,17.246167 37.088388,32 37.088388,32 L 22.160133,31.978069 C 22.160133,31.978069 26.997745,27.140456 26.997745,27.140456 C 18.528582,18.264221 13.291696,25.230495 11.500037,31.436501 z"
             style="fill:#404040;"/>
          </a>
         </g>
        </svg>
</svg>
