<?xml version="1.0" encoding="UTF-8" standalone="no"?>
<!DOCTYPE svg PUBLIC "-//W3C//DTD SVG 1.1//EN"
 "http://www.w3.org/Graphics/SVG/1.1/DTD/svg11.dtd">
<!-- Generated by graphviz version 2.40.1 (20161225.0304)
 -->
<!-- Title: o2::soa::generate_tuple_type&lt; T, N, REST &gt; Pages: 1 -->
<svg width="214pt" height="193pt"
 viewBox="0.00 0.00 214.00 193.00" xmlns="http://www.w3.org/2000/svg" xmlns:xlink="http://www.w3.org/1999/xlink">
<g id="graph0" class="graph" transform="scale(1 1) rotate(0) translate(4 189)">
<title>o2::soa::generate_tuple_type&lt; T, N, REST &gt;</title>
<!-- Node0 -->
<g id="node1" class="node">
<title>Node0</title>
<polygon fill="#bfbfbf" stroke="#000000" points="16.5,-116.5 16.5,-184.5 147.5,-184.5 147.5,-116.5 16.5,-116.5"/>
<text text-anchor="start" x="24.5" y="-172.5" font-family="Helvetica,sans-Serif" font-size="10.00" fill="#000000">o2::soa::generate_tuple</text>
<text text-anchor="middle" x="82" y="-161.5" font-family="Helvetica,sans-Serif" font-size="10.00" fill="#000000">_type&lt; T, N, REST &gt;</text>
<polyline fill="none" stroke="#000000" points="16.5,-154.5 147.5,-154.5 "/>
<text text-anchor="middle" x="82" y="-142.5" font-family="Helvetica,sans-Serif" font-size="10.00" fill="#000000"> </text>
<polyline fill="none" stroke="#000000" points="16.5,-135.5 147.5,-135.5 "/>
<text text-anchor="middle" x="82" y="-123.5" font-family="Helvetica,sans-Serif" font-size="10.00" fill="#000000"> </text>
</g>
<!-- Node1 -->
<g id="node2" class="node">
<title>Node1</title>
<g id="a_node2"><a xlink:href="../../d7/d86/structo2_1_1soa_1_1generate__tuple__type.html" target="_top" xlink:title="{o2::soa::generate_tuple\l_type\&lt; uint64_t, sizeof...(Ts)\&gt;\n||}">
<polygon fill="none" stroke="#000000" points="0,-.5 0,-68.5 164,-68.5 164,-.5 0,-.5"/>
<text text-anchor="start" x="8" y="-56.5" font-family="Helvetica,sans-Serif" font-size="10.00" fill="#000000">o2::soa::generate_tuple</text>
<text text-anchor="middle" x="82" y="-45.5" font-family="Helvetica,sans-Serif" font-size="10.00" fill="#000000">_type&lt; uint64_t, sizeof...(Ts)&gt;</text>
<polyline fill="none" stroke="#000000" points="0,-38.5 164,-38.5 "/>
<text text-anchor="middle" x="82" y="-26.5" font-family="Helvetica,sans-Serif" font-size="10.00" fill="#000000"> </text>
<polyline fill="none" stroke="#000000" points="0,-19.5 164,-19.5 "/>
<text text-anchor="middle" x="82" y="-7.5" font-family="Helvetica,sans-Serif" font-size="10.00" fill="#000000"> </text>
</a>
</g>
</g>
<!-- Node0&#45;&gt;Node1 -->
<g id="edge1" class="edge">
<title>Node0&#45;&gt;Node1</title>
<path fill="none" stroke="#ffa500" d="M82,-106.1851C82,-93.8048 82,-80.5422 82,-68.833"/>
<polygon fill="#ffa500" stroke="#ffa500" points="78.5001,-106.3235 82,-116.3236 85.5001,-106.3236 78.5001,-106.3235"/>
<text text-anchor="middle" x="144" y="-90" font-family="Helvetica,sans-Serif" font-size="10.00" fill="#000000"> &lt; uint64_t, sizeof...(Ts)&gt;</text>
</g>
</g>
</svg>
