<?xml version="1.0" encoding="UTF-8" standalone="no"?>
<!DOCTYPE svg PUBLIC "-//W3C//DTD SVG 1.1//EN"
 "http://www.w3.org/Graphics/SVG/1.1/DTD/svg11.dtd">
<!-- Generated by graphviz version 2.40.1 (20161225.0304)
 -->
<!-- Title: /home/travis/build/AliceO2Group/AliceO2/Detectors/Raw/src/rawfileCheck.cxx Pages: 1 -->
<svg width="1973pt" height="285pt"
 viewBox="0.00 0.00 1973.00 285.00" xmlns="http://www.w3.org/2000/svg" xmlns:xlink="http://www.w3.org/1999/xlink">
<g id="graph0" class="graph" transform="scale(1 1) rotate(0) translate(4 281)">
<title>/home/travis/build/AliceO2Group/AliceO2/Detectors/Raw/src/rawfileCheck.cxx</title>
<!-- Node0 -->
<g id="node1" class="node">
<title>Node0</title>
<polygon fill="#bfbfbf" stroke="#000000" points="1463,-235.5 1463,-276.5 1657,-276.5 1657,-235.5 1463,-235.5"/>
<text text-anchor="start" x="1471" y="-264.5" font-family="Helvetica,sans-Serif" font-size="10.00" fill="#000000">/home/travis/build</text>
<text text-anchor="start" x="1471" y="-253.5" font-family="Helvetica,sans-Serif" font-size="10.00" fill="#000000">/AliceO2Group/AliceO2</text>
<text text-anchor="middle" x="1560" y="-242.5" font-family="Helvetica,sans-Serif" font-size="10.00" fill="#000000">/Detectors/Raw/src/rawfileCheck.cxx</text>
</g>
<!-- Node1 -->
<g id="node2" class="node">
<title>Node1</title>
<g id="a_node2"><a xlink:href="../../de/da2/Raw_2include_2DetectorsRaw_2RawFileReader_8h.html" target="_top" xlink:title="DetectorsRaw/RawFileReader.h">
<polygon fill="none" stroke="#000000" points="1021.5,-179.5 1021.5,-198.5 1188.5,-198.5 1188.5,-179.5 1021.5,-179.5"/>
<text text-anchor="middle" x="1105" y="-186.5" font-family="Helvetica,sans-Serif" font-size="10.00" fill="#000000">DetectorsRaw/RawFileReader.h</text>
</a>
</g>
</g>
<!-- Node0&#45;&gt;Node1 -->
<g id="edge1" class="edge">
<title>Node0&#45;&gt;Node1</title>
<path fill="none" stroke="#191970" d="M1462.9492,-241.709C1378.2742,-229.2404 1257.1842,-211.4095 1179.8276,-200.0186"/>
<polygon fill="#191970" stroke="#191970" points="1180.0831,-196.5185 1169.6799,-198.5243 1179.0633,-203.4439 1180.0831,-196.5185"/>
</g>
<!-- Node5 -->
<g id="node6" class="node">
<title>Node5</title>
<polygon fill="none" stroke="#bfbfbf" points="202.5,-123.5 202.5,-142.5 249.5,-142.5 249.5,-123.5 202.5,-123.5"/>
<text text-anchor="middle" x="226" y="-130.5" font-family="Helvetica,sans-Serif" font-size="10.00" fill="#000000">vector</text>
</g>
<!-- Node0&#45;&gt;Node5 -->
<g id="edge40" class="edge">
<title>Node0&#45;&gt;Node5</title>
<path fill="none" stroke="#191970" d="M1462.9437,-253.1816C1246.3382,-245.6625 707.64,-220.135 264,-143 262.5298,-142.7444 261.0334,-142.4594 259.526,-142.152"/>
<polygon fill="#191970" stroke="#191970" points="260.1089,-138.6949 249.5795,-139.8704 258.5438,-145.5177 260.1089,-138.6949"/>
</g>
<!-- Node6 -->
<g id="node7" class="node">
<title>Node6</title>
<polygon fill="none" stroke="#bfbfbf" points="1526,-62 1526,-81 1570,-81 1570,-62 1526,-62"/>
<text text-anchor="middle" x="1548" y="-69" font-family="Helvetica,sans-Serif" font-size="10.00" fill="#000000">string</text>
</g>
<!-- Node0&#45;&gt;Node6 -->
<g id="edge39" class="edge">
<title>Node0&#45;&gt;Node6</title>
<path fill="none" stroke="#191970" d="M1525.4549,-235.2547C1513.1422,-225.8733 1500.6787,-213.5927 1494,-199 1476.1139,-159.9197 1509.5497,-113.2376 1531.3455,-88.6334"/>
<polygon fill="#191970" stroke="#191970" points="1534.0079,-90.9089 1538.2,-81.1786 1528.8551,-86.1709 1534.0079,-90.9089"/>
</g>
<!-- Node29 -->
<g id="node30" class="node">
<title>Node29</title>
<g id="a_node30"><a xlink:href="../../dd/da4/Logger_8h.html" target="_top" xlink:title="Framework/Logger.h">
<polygon fill="none" stroke="#000000" points="1502.5,-179.5 1502.5,-198.5 1617.5,-198.5 1617.5,-179.5 1502.5,-179.5"/>
<text text-anchor="middle" x="1560" y="-186.5" font-family="Helvetica,sans-Serif" font-size="10.00" fill="#000000">Framework/Logger.h</text>
</a>
</g>
</g>
<!-- Node0&#45;&gt;Node29 -->
<g id="edge35" class="edge">
<title>Node0&#45;&gt;Node29</title>
<path fill="none" stroke="#191970" d="M1560,-235.168C1560,-226.8226 1560,-217.2471 1560,-208.9879"/>
<polygon fill="#191970" stroke="#191970" points="1563.5001,-208.7804 1560,-198.7805 1556.5001,-208.7805 1563.5001,-208.7804"/>
</g>
<!-- Node30 -->
<g id="node31" class="node">
<title>Node30</title>
<polygon fill="none" stroke="#bfbfbf" points="1635.5,-179.5 1635.5,-198.5 1718.5,-198.5 1718.5,-179.5 1635.5,-179.5"/>
<text text-anchor="middle" x="1677" y="-186.5" font-family="Helvetica,sans-Serif" font-size="10.00" fill="#000000">TStopwatch.h</text>
</g>
<!-- Node0&#45;&gt;Node30 -->
<g id="edge36" class="edge">
<title>Node0&#45;&gt;Node30</title>
<path fill="none" stroke="#191970" d="M1596.0585,-235.3511C1613.9071,-225.1301 1635.0408,-213.0279 1651.237,-203.7532"/>
<polygon fill="#191970" stroke="#191970" points="1653.2018,-206.6613 1660.1404,-198.6546 1649.7232,-200.5868 1653.2018,-206.6613"/>
</g>
<!-- Node31 -->
<g id="node32" class="node">
<title>Node31</title>
<polygon fill="none" stroke="#bfbfbf" points="1737,-179.5 1737,-198.5 1887,-198.5 1887,-179.5 1737,-179.5"/>
<text text-anchor="middle" x="1812" y="-186.5" font-family="Helvetica,sans-Serif" font-size="10.00" fill="#000000">boost/program_options.hpp</text>
</g>
<!-- Node0&#45;&gt;Node31 -->
<g id="edge37" class="edge">
<title>Node0&#45;&gt;Node31</title>
<path fill="none" stroke="#191970" d="M1637.3209,-235.4425C1679.64,-224.191 1730.6164,-210.6377 1766.5468,-201.0848"/>
<polygon fill="#191970" stroke="#191970" points="1767.4974,-204.4537 1776.2623,-198.5017 1765.6987,-197.6887 1767.4974,-204.4537"/>
</g>
<!-- Node32 -->
<g id="node33" class="node">
<title>Node32</title>
<polygon fill="none" stroke="#bfbfbf" points="1905,-179.5 1905,-198.5 1965,-198.5 1965,-179.5 1905,-179.5"/>
<text text-anchor="middle" x="1935" y="-186.5" font-family="Helvetica,sans-Serif" font-size="10.00" fill="#000000">iostream</text>
</g>
<!-- Node0&#45;&gt;Node32 -->
<g id="edge38" class="edge">
<title>Node0&#45;&gt;Node32</title>
<path fill="none" stroke="#191970" d="M1657.0823,-241.7143C1721.9077,-231.662 1809.227,-217.1395 1894.9249,-199.1018"/>
<polygon fill="#191970" stroke="#191970" points="1895.7692,-202.5007 1904.8246,-197.0007 1894.3158,-195.6532 1895.7692,-202.5007"/>
</g>
<!-- Node2 -->
<g id="node3" class="node">
<title>Node2</title>
<polygon fill="none" stroke="#bfbfbf" points="1288,-123.5 1288,-142.5 1334,-142.5 1334,-123.5 1288,-123.5"/>
<text text-anchor="middle" x="1311" y="-130.5" font-family="Helvetica,sans-Serif" font-size="10.00" fill="#000000">cstdio</text>
</g>
<!-- Node1&#45;&gt;Node2 -->
<g id="edge2" class="edge">
<title>Node1&#45;&gt;Node2</title>
<path fill="none" stroke="#191970" d="M1140.4127,-179.3733C1179.0028,-168.8827 1240.2549,-152.2317 1277.9068,-141.9962"/>
<polygon fill="#191970" stroke="#191970" points="1279.1307,-145.2906 1287.8623,-139.2899 1277.2943,-138.5357 1279.1307,-145.2906"/>
</g>
<!-- Node3 -->
<g id="node4" class="node">
<title>Node3</title>
<polygon fill="none" stroke="#bfbfbf" points="1352.5,-123.5 1352.5,-142.5 1445.5,-142.5 1445.5,-123.5 1352.5,-123.5"/>
<text text-anchor="middle" x="1399" y="-130.5" font-family="Helvetica,sans-Serif" font-size="10.00" fill="#000000">unordered_map</text>
</g>
<!-- Node1&#45;&gt;Node3 -->
<g id="edge3" class="edge">
<title>Node1&#45;&gt;Node3</title>
<path fill="none" stroke="#191970" d="M1155.2063,-179.4369C1207.1292,-169.5468 1288.0554,-154.1323 1342.2633,-143.807"/>
<polygon fill="#191970" stroke="#191970" points="1343.228,-147.1863 1352.3964,-141.8769 1341.9181,-140.3099 1343.228,-147.1863"/>
</g>
<!-- Node4 -->
<g id="node5" class="node">
<title>Node4</title>
<polygon fill="none" stroke="#bfbfbf" points="500,-123.5 500,-142.5 538,-142.5 538,-123.5 500,-123.5"/>
<text text-anchor="middle" x="519" y="-130.5" font-family="Helvetica,sans-Serif" font-size="10.00" fill="#000000">map</text>
</g>
<!-- Node1&#45;&gt;Node4 -->
<g id="edge4" class="edge">
<title>Node1&#45;&gt;Node4</title>
<path fill="none" stroke="#191970" d="M1021.3075,-184.6536C888.6245,-177.3299 636.0111,-161.5041 548,-143 547.899,-142.9788 547.7979,-142.9573 547.6967,-142.9356"/>
<polygon fill="#191970" stroke="#191970" points="548.721,-139.5869 538.154,-140.354 546.893,-146.344 548.721,-139.5869"/>
</g>
<!-- Node1&#45;&gt;Node5 -->
<g id="edge5" class="edge">
<title>Node1&#45;&gt;Node5</title>
<path fill="none" stroke="#191970" d="M1021.2428,-186.5783C838.344,-180.938 408.0888,-165.6595 264,-143 262.5258,-142.7682 261.0262,-142.5029 259.5161,-142.2117"/>
<polygon fill="#191970" stroke="#191970" points="260.0816,-138.7519 249.5595,-139.991 258.5577,-145.5841 260.0816,-138.7519"/>
</g>
<!-- Node1&#45;&gt;Node6 -->
<g id="edge6" class="edge">
<title>Node1&#45;&gt;Node6</title>
<path fill="none" stroke="#191970" d="M1137.9693,-179.4539C1165.855,-171.0014 1206.6415,-157.7423 1241,-143 1258.5389,-135.4745 1260.8973,-129.0446 1279,-123 1374.226,-91.2034 1404.5439,-111.1107 1502,-87 1506.5403,-85.8767 1511.2739,-84.512 1515.9038,-83.0633"/>
<polygon fill="#191970" stroke="#191970" points="1517.3541,-86.2707 1525.7579,-79.8188 1515.1649,-79.6218 1517.3541,-86.2707"/>
</g>
<!-- Node7 -->
<g id="node8" class="node">
<title>Node7</title>
<polygon fill="none" stroke="#bfbfbf" points="1186.5,-123.5 1186.5,-142.5 1231.5,-142.5 1231.5,-123.5 1186.5,-123.5"/>
<text text-anchor="middle" x="1209" y="-130.5" font-family="Helvetica,sans-Serif" font-size="10.00" fill="#000000">utility</text>
</g>
<!-- Node1&#45;&gt;Node7 -->
<g id="edge7" class="edge">
<title>Node1&#45;&gt;Node7</title>
<path fill="none" stroke="#191970" d="M1123.1154,-179.2455C1139.445,-170.4527 1163.671,-157.4079 1182.2339,-147.4125"/>
<polygon fill="#191970" stroke="#191970" points="1183.9468,-150.4654 1191.0922,-142.6427 1180.6281,-144.3021 1183.9468,-150.4654"/>
</g>
<!-- Node8 -->
<g id="node9" class="node">
<title>Node8</title>
<polygon fill="none" stroke="#bfbfbf" points="339.5,-.5 339.5,-19.5 398.5,-19.5 398.5,-.5 339.5,-.5"/>
<text text-anchor="middle" x="369" y="-7.5" font-family="Helvetica,sans-Serif" font-size="10.00" fill="#000000">Rtypes.h</text>
</g>
<!-- Node1&#45;&gt;Node8 -->
<g id="edge8" class="edge">
<title>Node1&#45;&gt;Node8</title>
<path fill="none" stroke="#191970" d="M1021.2736,-184.8701C877.7078,-177.4298 590.4224,-160.8762 491,-143 402.6738,-127.1189 350.945,-158.7193 297,-87 288.7181,-75.9893 290.3809,-68.0836 297,-56 304.7587,-41.836 318.9409,-31.3995 332.6795,-24.0818"/>
<polygon fill="#191970" stroke="#191970" points="334.5898,-27.0438 342.0356,-19.5066 331.5146,-20.7555 334.5898,-27.0438"/>
</g>
<!-- Node9 -->
<g id="node10" class="node">
<title>Node9</title>
<g id="a_node10"><a xlink:href="../../d4/d78/DataFormats_2Headers_2include_2Headers_2RAWDataHeader_8h.html" target="_top" xlink:title="Headers/RAWDataHeader.h">
<polygon fill="none" stroke="#000000" points="642.5,-62 642.5,-81 791.5,-81 791.5,-62 642.5,-62"/>
<text text-anchor="middle" x="717" y="-69" font-family="Helvetica,sans-Serif" font-size="10.00" fill="#000000">Headers/RAWDataHeader.h</text>
</a>
</g>
</g>
<!-- Node1&#45;&gt;Node9 -->
<g id="edge9" class="edge">
<title>Node1&#45;&gt;Node9</title>
<path fill="none" stroke="#191970" d="M1073.577,-179.484C1003.9098,-158.3864 836.4922,-107.6864 758.4057,-84.0391"/>
<polygon fill="#191970" stroke="#191970" points="759.0303,-80.5713 748.4451,-81.0227 757.0014,-87.2709 759.0303,-80.5713"/>
</g>
<!-- Node11 -->
<g id="node12" class="node">
<title>Node11</title>
<g id="a_node12"><a xlink:href="../../dc/dcd/DataHeader_8h.html" target="_top" xlink:title="Headers/DataHeader.h">
<polygon fill="none" stroke="#000000" points="1041.5,-123.5 1041.5,-142.5 1168.5,-142.5 1168.5,-123.5 1041.5,-123.5"/>
<text text-anchor="middle" x="1105" y="-130.5" font-family="Helvetica,sans-Serif" font-size="10.00" fill="#000000">Headers/DataHeader.h</text>
</a>
</g>
</g>
<!-- Node1&#45;&gt;Node11 -->
<g id="edge11" class="edge">
<title>Node1&#45;&gt;Node11</title>
<path fill="none" stroke="#191970" d="M1105,-179.2455C1105,-171.9382 1105,-161.6944 1105,-152.7046"/>
<polygon fill="#191970" stroke="#191970" points="1108.5001,-152.6426 1105,-142.6427 1101.5001,-152.6427 1108.5001,-152.6426"/>
</g>
<!-- Node20 -->
<g id="node21" class="node">
<title>Node20</title>
<g id="a_node21"><a xlink:href="../../d6/dec/Raw_2include_2DetectorsRaw_2RDHUtils_8h.html" target="_top" xlink:title="DetectorsRaw/RDHUtils.h">
<polygon fill="none" stroke="#000000" points="556.5,-123.5 556.5,-142.5 697.5,-142.5 697.5,-123.5 556.5,-123.5"/>
<text text-anchor="middle" x="627" y="-130.5" font-family="Helvetica,sans-Serif" font-size="10.00" fill="#000000">DetectorsRaw/RDHUtils.h</text>
</a>
</g>
</g>
<!-- Node1&#45;&gt;Node20 -->
<g id="edge22" class="edge">
<title>Node1&#45;&gt;Node20</title>
<path fill="none" stroke="#191970" d="M1023.6431,-179.4686C935.586,-169.1523 795.9927,-152.7983 708.054,-142.4959"/>
<polygon fill="#191970" stroke="#191970" points="708.1972,-138.9888 697.8579,-141.3013 707.3827,-145.9412 708.1972,-138.9888"/>
</g>
<!-- Node10 -->
<g id="node11" class="node">
<title>Node10</title>
<polygon fill="none" stroke="#bfbfbf" points="772,-.5 772,-19.5 822,-19.5 822,-.5 772,-.5"/>
<text text-anchor="middle" x="797" y="-7.5" font-family="Helvetica,sans-Serif" font-size="10.00" fill="#000000">cstdint</text>
</g>
<!-- Node9&#45;&gt;Node10 -->
<g id="edge10" class="edge">
<title>Node9&#45;&gt;Node10</title>
<path fill="none" stroke="#191970" d="M729.5,-61.8906C742.0636,-52.2324 761.6423,-37.1812 776.4849,-25.771"/>
<polygon fill="#191970" stroke="#191970" points="778.7928,-28.4115 784.5878,-19.5419 774.5265,-22.8618 778.7928,-28.4115"/>
</g>
<!-- Node11&#45;&gt;Node6 -->
<g id="edge18" class="edge">
<title>Node11&#45;&gt;Node6</title>
<path fill="none" stroke="#191970" d="M1168.6872,-124.1659C1171.8351,-123.7637 1174.9527,-123.3729 1178,-123 1326.1989,-104.8664 1367.5982,-124.9456 1512,-87 1514.3322,-86.3871 1516.7086,-85.6469 1519.0722,-84.8264"/>
<polygon fill="#191970" stroke="#191970" points="1520.5265,-88.0161 1528.571,-81.1214 1517.9827,-81.4946 1520.5265,-88.0161"/>
</g>
<!-- Node11&#45;&gt;Node10 -->
<g id="edge12" class="edge">
<title>Node11&#45;&gt;Node10</title>
<path fill="none" stroke="#191970" d="M1168.6927,-124.2097C1171.8391,-123.7959 1174.9549,-123.3906 1178,-123 1313.9379,-105.5613 1572.5927,-156.118 1479,-56 1456.7342,-32.1819 969.9545,-15.3538 832.7233,-11.0706"/>
<polygon fill="#191970" stroke="#191970" points="832.4628,-7.561 822.3594,-10.7503 832.2465,-14.5576 832.4628,-7.561"/>
</g>
<!-- Node12 -->
<g id="node13" class="node">
<title>Node12</title>
<polygon fill="none" stroke="#bfbfbf" points="1040,-62 1040,-81 1098,-81 1098,-62 1040,-62"/>
<text text-anchor="middle" x="1069" y="-69" font-family="Helvetica,sans-Serif" font-size="10.00" fill="#000000">memory</text>
</g>
<!-- Node11&#45;&gt;Node12 -->
<g id="edge13" class="edge">
<title>Node11&#45;&gt;Node12</title>
<path fill="none" stroke="#191970" d="M1099.375,-123.3906C1094.1747,-114.5068 1086.3034,-101.0601 1079.8767,-90.0811"/>
<polygon fill="#191970" stroke="#191970" points="1082.7767,-88.1069 1074.7043,-81.2449 1076.7356,-91.6432 1082.7767,-88.1069"/>
</g>
<!-- Node13 -->
<g id="node14" class="node">
<title>Node13</title>
<polygon fill="none" stroke="#bfbfbf" points="1116,-62 1116,-81 1168,-81 1168,-62 1116,-62"/>
<text text-anchor="middle" x="1142" y="-69" font-family="Helvetica,sans-Serif" font-size="10.00" fill="#000000">cassert</text>
</g>
<!-- Node11&#45;&gt;Node13 -->
<g id="edge14" class="edge">
<title>Node11&#45;&gt;Node13</title>
<path fill="none" stroke="#191970" d="M1110.7813,-123.3906C1116.126,-114.5068 1124.2159,-101.0601 1130.8211,-90.0811"/>
<polygon fill="#191970" stroke="#191970" points="1133.9811,-91.618 1136.1372,-81.2449 1127.9829,-88.0093 1133.9811,-91.618"/>
</g>
<!-- Node14 -->
<g id="node15" class="node">
<title>Node14</title>
<polygon fill="none" stroke="#bfbfbf" points="1186,-62 1186,-81 1236,-81 1236,-62 1186,-62"/>
<text text-anchor="middle" x="1211" y="-69" font-family="Helvetica,sans-Serif" font-size="10.00" fill="#000000">cstring</text>
</g>
<!-- Node11&#45;&gt;Node14 -->
<g id="edge15" class="edge">
<title>Node11&#45;&gt;Node14</title>
<path fill="none" stroke="#191970" d="M1121.5625,-123.3906C1138.7537,-113.4165 1165.8582,-97.6908 1185.7266,-86.1633"/>
<polygon fill="#191970" stroke="#191970" points="1187.6606,-89.0877 1194.5538,-81.0419 1184.1477,-83.033 1187.6606,-89.0877"/>
</g>
<!-- Node15 -->
<g id="node16" class="node">
<title>Node15</title>
<polygon fill="none" stroke="#bfbfbf" points="1254,-62 1254,-81 1318,-81 1318,-62 1254,-62"/>
<text text-anchor="middle" x="1286" y="-69" font-family="Helvetica,sans-Serif" font-size="10.00" fill="#000000">algorithm</text>
</g>
<!-- Node11&#45;&gt;Node15 -->
<g id="edge16" class="edge">
<title>Node11&#45;&gt;Node15</title>
<path fill="none" stroke="#191970" d="M1135.4443,-123.4226C1163.8919,-114.3728 1207.4871,-100.2465 1245,-87 1247.2401,-86.209 1249.5436,-85.3804 1251.8617,-84.5351"/>
<polygon fill="#191970" stroke="#191970" points="1253.1872,-87.7766 1261.3483,-81.0203 1250.7552,-81.2126 1253.1872,-87.7766"/>
</g>
<!-- Node16 -->
<g id="node17" class="node">
<title>Node16</title>
<polygon fill="none" stroke="#bfbfbf" points="1336.5,-62 1336.5,-81 1401.5,-81 1401.5,-62 1336.5,-62"/>
<text text-anchor="middle" x="1369" y="-69" font-family="Helvetica,sans-Serif" font-size="10.00" fill="#000000">stdexcept</text>
</g>
<!-- Node11&#45;&gt;Node16 -->
<g id="edge17" class="edge">
<title>Node11&#45;&gt;Node16</title>
<path fill="none" stroke="#191970" d="M1163.0713,-123.4177C1208.1991,-115.3841 1272.1333,-102.7136 1327,-87 1329.6409,-86.2437 1332.3531,-85.4007 1335.0667,-84.5095"/>
<polygon fill="#191970" stroke="#191970" points="1336.4753,-87.7255 1344.7742,-81.1391 1334.1794,-81.1127 1336.4753,-87.7255"/>
</g>
<!-- Node17 -->
<g id="node18" class="node">
<title>Node17</title>
<polygon fill="none" stroke="#bfbfbf" points="1420,-62 1420,-81 1470,-81 1470,-62 1420,-62"/>
<text text-anchor="middle" x="1445" y="-69" font-family="Helvetica,sans-Serif" font-size="10.00" fill="#000000">climits</text>
</g>
<!-- Node11&#45;&gt;Node17 -->
<g id="edge19" class="edge">
<title>Node11&#45;&gt;Node17</title>
<path fill="none" stroke="#191970" d="M1168.6313,-123.8948C1254.8671,-111.4879 1399.4925,-90.4148 1411,-87 1412.9124,-86.4325 1414.8559,-85.7777 1416.7955,-85.0647"/>
<polygon fill="#191970" stroke="#191970" points="1418.385,-88.1954 1426.2983,-81.1505 1415.7189,-81.723 1418.385,-88.1954"/>
</g>
<!-- Node18 -->
<g id="node19" class="node">
<title>Node18</title>
<g id="a_node19"><a xlink:href="../../d7/df8/Types_8h.html" target="_top" xlink:title="MemoryResources/Types.h">
<polygon fill="none" stroke="#000000" points="810,-62 810,-81 956,-81 956,-62 810,-62"/>
<text text-anchor="middle" x="883" y="-69" font-family="Helvetica,sans-Serif" font-size="10.00" fill="#000000">MemoryResources/Types.h</text>
</a>
</g>
</g>
<!-- Node11&#45;&gt;Node18 -->
<g id="edge20" class="edge">
<title>Node11&#45;&gt;Node18</title>
<path fill="none" stroke="#191970" d="M1070.3125,-123.3906C1031.7016,-112.6944 969.214,-95.3836 927.1452,-83.7294"/>
<polygon fill="#191970" stroke="#191970" points="928.0154,-80.3387 917.4439,-81.0419 926.1465,-87.0847 928.0154,-80.3387"/>
</g>
<!-- Node19 -->
<g id="node20" class="node">
<title>Node19</title>
<polygon fill="none" stroke="#bfbfbf" points="974.5,-62 974.5,-81 1021.5,-81 1021.5,-62 974.5,-62"/>
<text text-anchor="middle" x="998" y="-69" font-family="Helvetica,sans-Serif" font-size="10.00" fill="#000000">cerrno</text>
</g>
<!-- Node11&#45;&gt;Node19 -->
<g id="edge21" class="edge">
<title>Node11&#45;&gt;Node19</title>
<path fill="none" stroke="#191970" d="M1088.2813,-123.3906C1070.9278,-113.4165 1043.5677,-97.6908 1023.5118,-86.1633"/>
<polygon fill="#191970" stroke="#191970" points="1025.0154,-82.9907 1014.6013,-81.0419 1021.5272,-89.0596 1025.0154,-82.9907"/>
</g>
<!-- Node20&#45;&gt;Node9 -->
<g id="edge34" class="edge">
<title>Node20&#45;&gt;Node9</title>
<path fill="none" stroke="#191970" d="M641.0625,-123.3906C655.3286,-113.6421 677.635,-98.3994 694.3872,-86.9521"/>
<polygon fill="#191970" stroke="#191970" points="696.7545,-89.5736 703.0362,-81.0419 692.8051,-83.7941 696.7545,-89.5736"/>
</g>
<!-- Node21 -->
<g id="node22" class="node">
<title>Node21</title>
<g id="a_node22"><a xlink:href="../../df/d21/GPUCommonDef_8h.html" target="_top" xlink:title="GPUCommonDef.h">
<polygon fill="none" stroke="#000000" points="142.5,-62 142.5,-81 249.5,-81 249.5,-62 142.5,-62"/>
<text text-anchor="middle" x="196" y="-69" font-family="Helvetica,sans-Serif" font-size="10.00" fill="#000000">GPUCommonDef.h</text>
</a>
</g>
</g>
<!-- Node20&#45;&gt;Node21 -->
<g id="edge23" class="edge">
<title>Node20&#45;&gt;Node21</title>
<path fill="none" stroke="#191970" d="M556.7911,-123.4986C489.9575,-114.3865 386.5732,-100.1155 297,-87 285.001,-85.2431 272.2084,-83.3192 259.9016,-81.4429"/>
<polygon fill="#191970" stroke="#191970" points="260.1207,-77.9357 249.7063,-79.8826 259.0617,-84.8552 260.1207,-77.9357"/>
</g>
<!-- Node24 -->
<g id="node25" class="node">
<title>Node24</title>
<g id="a_node25"><a xlink:href="../../d2/d45/GPUCommonRtypes_8h.html" target="_top" xlink:title="GPUCommonRtypes.h">
<polygon fill="none" stroke="#000000" points="306.5,-62 306.5,-81 431.5,-81 431.5,-62 306.5,-62"/>
<text text-anchor="middle" x="369" y="-69" font-family="Helvetica,sans-Serif" font-size="10.00" fill="#000000">GPUCommonRtypes.h</text>
</a>
</g>
</g>
<!-- Node20&#45;&gt;Node24 -->
<g id="edge26" class="edge">
<title>Node20&#45;&gt;Node24</title>
<path fill="none" stroke="#191970" d="M586.9706,-123.4581C541.6845,-112.6632 467.8766,-95.0694 418.8794,-83.3899"/>
<polygon fill="#191970" stroke="#191970" points="419.6624,-79.9785 409.1233,-81.0643 418.0392,-86.7877 419.6624,-79.9785"/>
</g>
<!-- Node25 -->
<g id="node26" class="node">
<title>Node25</title>
<g id="a_node26"><a xlink:href="../../d9/d80/InteractionRecord_8h.html" target="_top" xlink:title="CommonDataFormat/Interaction\lRecord.h">
<polygon fill="none" stroke="#000000" points="450,-56.5 450,-86.5 624,-86.5 624,-56.5 450,-56.5"/>
<text text-anchor="start" x="458" y="-74.5" font-family="Helvetica,sans-Serif" font-size="10.00" fill="#000000">CommonDataFormat/Interaction</text>
<text text-anchor="middle" x="537" y="-63.5" font-family="Helvetica,sans-Serif" font-size="10.00" fill="#000000">Record.h</text>
</a>
</g>
</g>
<!-- Node20&#45;&gt;Node25 -->
<g id="edge28" class="edge">
<title>Node20&#45;&gt;Node25</title>
<path fill="none" stroke="#191970" d="M612.9375,-123.3906C600.7571,-115.0673 582.7155,-102.7389 567.2739,-92.1872"/>
<polygon fill="#191970" stroke="#191970" points="569.2476,-89.2968 559.0165,-86.5446 565.2983,-95.0763 569.2476,-89.2968"/>
</g>
<!-- Node22 -->
<g id="node23" class="node">
<title>Node22</title>
<g id="a_node23"><a xlink:href="../../d5/d93/GPUCommonDefSettings_8h.html" target="_top" xlink:title="GPUCommonDefSettings.h">
<polygon fill="none" stroke="#000000" points="0,-.5 0,-19.5 148,-19.5 148,-.5 0,-.5"/>
<text text-anchor="middle" x="74" y="-7.5" font-family="Helvetica,sans-Serif" font-size="10.00" fill="#000000">GPUCommonDefSettings.h</text>
</a>
</g>
</g>
<!-- Node21&#45;&gt;Node22 -->
<g id="edge24" class="edge">
<title>Node21&#45;&gt;Node22</title>
<path fill="none" stroke="#191970" d="M176.9375,-61.8906C156.8828,-51.7811 125.1066,-35.7628 102.1616,-24.1962"/>
<polygon fill="#191970" stroke="#191970" points="103.4337,-20.918 92.9286,-19.5419 100.2827,-27.1687 103.4337,-20.918"/>
</g>
<!-- Node23 -->
<g id="node24" class="node">
<title>Node23</title>
<g id="a_node24"><a xlink:href="../../da/d5a/GPUCommonDefAPI_8h.html" target="_top" xlink:title="GPUCommonDefAPI.h">
<polygon fill="none" stroke="#000000" points="166,-.5 166,-19.5 290,-19.5 290,-.5 166,-.5"/>
<text text-anchor="middle" x="228" y="-7.5" font-family="Helvetica,sans-Serif" font-size="10.00" fill="#000000">GPUCommonDefAPI.h</text>
</a>
</g>
</g>
<!-- Node21&#45;&gt;Node23 -->
<g id="edge25" class="edge">
<title>Node21&#45;&gt;Node23</title>
<path fill="none" stroke="#191970" d="M201,-61.8906C205.5758,-53.0965 212.4781,-39.8312 218.1583,-28.9145"/>
<polygon fill="#191970" stroke="#191970" points="221.4185,-30.2314 222.9295,-19.7449 215.2088,-27.0003 221.4185,-30.2314"/>
</g>
<!-- Node24&#45;&gt;Node8 -->
<g id="edge27" class="edge">
<title>Node24&#45;&gt;Node8</title>
<path fill="none" stroke="#191970" d="M369,-61.8906C369,-53.3657 369,-40.6392 369,-29.9235"/>
<polygon fill="#191970" stroke="#191970" points="372.5001,-29.7448 369,-19.7449 365.5001,-29.7449 372.5001,-29.7448"/>
</g>
<!-- Node25&#45;&gt;Node8 -->
<g id="edge29" class="edge">
<title>Node25&#45;&gt;Node8</title>
<path fill="none" stroke="#191970" d="M495.9026,-56.4554C467.9943,-46.239 431.4492,-32.8609 404.7473,-23.0861"/>
<polygon fill="#191970" stroke="#191970" points="405.6278,-19.6813 395.034,-19.5303 403.2214,-26.2547 405.6278,-19.6813"/>
</g>
<!-- Node25&#45;&gt;Node10 -->
<g id="edge32" class="edge">
<title>Node25&#45;&gt;Node10</title>
<path fill="none" stroke="#191970" d="M608.0198,-56.4998C650.2336,-47.3075 705.023,-34.899 761.9062,-20.1792"/>
<polygon fill="#191970" stroke="#191970" points="763.0033,-23.5102 771.7975,-17.6015 761.238,-16.7365 763.0033,-23.5102"/>
</g>
<!-- Node26 -->
<g id="node27" class="node">
<title>Node26</title>
<polygon fill="none" stroke="#bfbfbf" points="431.5,-.5 431.5,-19.5 480.5,-19.5 480.5,-.5 431.5,-.5"/>
<text text-anchor="middle" x="456" y="-7.5" font-family="Helvetica,sans-Serif" font-size="10.00" fill="#000000">iosfwd</text>
</g>
<!-- Node25&#45;&gt;Node26 -->
<g id="edge30" class="edge">
<title>Node25&#45;&gt;Node26</title>
<path fill="none" stroke="#191970" d="M516.9775,-56.2977C504.914,-47.1384 489.5612,-35.4816 477.2789,-26.1562"/>
<polygon fill="#191970" stroke="#191970" points="479.0501,-23.1065 468.9691,-19.8469 474.8171,-28.6816 479.0501,-23.1065"/>
</g>
<!-- Node27 -->
<g id="node28" class="node">
<title>Node27</title>
<polygon fill="none" stroke="#bfbfbf" points="498.5,-.5 498.5,-19.5 545.5,-19.5 545.5,-.5 498.5,-.5"/>
<text text-anchor="middle" x="522" y="-7.5" font-family="Helvetica,sans-Serif" font-size="10.00" fill="#000000">cmath</text>
</g>
<!-- Node25&#45;&gt;Node27 -->
<g id="edge31" class="edge">
<title>Node25&#45;&gt;Node27</title>
<path fill="none" stroke="#191970" d="M533.2921,-56.2977C531.3401,-48.2945 528.923,-38.3843 526.8266,-29.7889"/>
<polygon fill="#191970" stroke="#191970" points="530.1716,-28.7328 524.4017,-19.8469 523.371,-30.3915 530.1716,-28.7328"/>
</g>
<!-- Node28 -->
<g id="node29" class="node">
<title>Node28</title>
<g id="a_node29"><a xlink:href="../../d4/dc6/LHCConstants_8h.html" target="_top" xlink:title="Header to collect LHC related constants. ">
<polygon fill="none" stroke="#000000" points="564,-.5 564,-19.5 754,-19.5 754,-.5 564,-.5"/>
<text text-anchor="middle" x="659" y="-7.5" font-family="Helvetica,sans-Serif" font-size="10.00" fill="#000000">CommonConstants/LHCConstants.h</text>
</a>
</g>
</g>
<!-- Node25&#45;&gt;Node28 -->
<g id="edge33" class="edge">
<title>Node25&#45;&gt;Node28</title>
<path fill="none" stroke="#191970" d="M566.8446,-56.4554C586.397,-46.599 611.7872,-33.7999 630.9645,-24.1327"/>
<polygon fill="#191970" stroke="#191970" points="632.7402,-27.1571 640.0943,-19.5303 629.5892,-20.9064 632.7402,-27.1571"/>
</g>
</g>
</svg>
