<?xml version="1.0" encoding="UTF-8" standalone="no"?>
<!DOCTYPE svg PUBLIC "-//W3C//DTD SVG 1.1//EN"
 "http://www.w3.org/Graphics/SVG/1.1/DTD/svg11.dtd">
<!-- Generated by graphviz version 2.40.1 (20161225.0304)
 -->
<!-- Title: /home/travis/build/AliceO2Group/AliceO2/Framework/Core/include/Framework/AnalysisTask.h Pages: 1 -->
<!--zoomable 150 -->
<svg id="main" version="1.1" xmlns="http://www.w3.org/2000/svg" xmlns:xlink="http://www.w3.org/1999/xlink" xml:space="preserve" onload="init(evt)">
<style type="text/css"><![CDATA[
.edge:hover path { stroke: red; }
.edge:hover polygon { stroke: red; fill: red; }
]]></style>
<script type="text/javascript"><![CDATA[
var edges = document.getElementsByTagName('g');
if (edges && edges.length) {
  for (var i=0;i<edges.length;i++) {
    if (edges[i].id.substr(0,4)=='edge') {
      edges[i].setAttribute('class','edge');
    }
  }
}
]]></script>
        <defs>
                <circle id="rim" cx="0" cy="0" r="7"/>
                <circle id="rim2" cx="0" cy="0" r="3.5"/>
                <g id="zoomPlus">
                        <use xlink:href="#rim" fill="#404040">
                                <set attributeName="fill" to="#808080" begin="zoomplus.mouseover" end="zoomplus.mouseout"/>
                        </use>
                        <path d="M-4,0h8M0,-4v8" fill="none" stroke="white" stroke-width="1.5" pointer-events="none"/>
                </g>
                <g id="zoomMin">
                        <use xlink:href="#rim" fill="#404040">
                                <set attributeName="fill" to="#808080" begin="zoomminus.mouseover" end="zoomminus.mouseout"/>
                        </use>
                        <path d="M-4,0h8" fill="none" stroke="white" stroke-width="1.5" pointer-events="none"/>
                </g>
                <g id="dirArrow">
                        <path fill="none" stroke="white" stroke-width="1.5" d="M0,-3.0v7 M-2.5,-0.5L0,-3.0L2.5,-0.5"/>
                </g>
               <g id="resetDef">
                       <use xlink:href="#rim2" fill="#404040">
                               <set attributeName="fill" to="#808080" begin="reset.mouseover" end="reset.mouseout"/>
                       </use>
               </g>
        </defs>

<script type="text/javascript">
var viewWidth = 5221;
var viewHeight = 150;
var sectionId = 'dynsection-1';
</script>
<script xlink:href="../../svgpan.js"/>
<svg id="graph" class="graph">
<g id="viewport">
<title>/home/travis/build/AliceO2Group/AliceO2/Framework/Core/include/Framework/AnalysisTask.h</title>
<!-- Node168 -->
<g id="node1" class="node">
<title>Node168</title>
<polygon fill="#bfbfbf" stroke="#000000" points="2724,-89.5 2724,-141.5 2873,-141.5 2873,-89.5 2724,-89.5"/>
<text text-anchor="start" x="2732" y="-129.5" font-family="Helvetica,sans-Serif" font-size="10.00" fill="#000000">/home/travis/build</text>
<text text-anchor="start" x="2732" y="-118.5" font-family="Helvetica,sans-Serif" font-size="10.00" fill="#000000">/AliceO2Group/AliceO2</text>
<text text-anchor="start" x="2732" y="-107.5" font-family="Helvetica,sans-Serif" font-size="10.00" fill="#000000">/Framework/Core/include</text>
<text text-anchor="middle" x="2798.5" y="-96.5" font-family="Helvetica,sans-Serif" font-size="10.00" fill="#000000">/Framework/AnalysisTask.h</text>
</g>
<!-- Node169 -->
<g id="node2" class="node">
<title>Node169</title>
<g id="a_node2"><a xlink:href="../../dc/def/CorrelationContainer_8cxx.html" target="_top" xlink:title="/home/travis/build\l/AliceO2Group/AliceO2\l/Analysis/Core/src/Correlation\lContainer.cxx">
<polygon fill="none" stroke="#000000" points="0,-.5 0,-52.5 161,-52.5 161,-.5 0,-.5"/>
<text text-anchor="start" x="8" y="-40.5" font-family="Helvetica,sans-Serif" font-size="10.00" fill="#000000">/home/travis/build</text>
<text text-anchor="start" x="8" y="-29.5" font-family="Helvetica,sans-Serif" font-size="10.00" fill="#000000">/AliceO2Group/AliceO2</text>
<text text-anchor="start" x="8" y="-18.5" font-family="Helvetica,sans-Serif" font-size="10.00" fill="#000000">/Analysis/Core/src/Correlation</text>
<text text-anchor="middle" x="80.5" y="-7.5" font-family="Helvetica,sans-Serif" font-size="10.00" fill="#000000">Container.cxx</text>
</a>
</g>
</g>
<!-- Node168&#45;&gt;Node169 -->
<g id="edge1" class="edge">
<title>Node168&#45;&gt;Node169</title>
<path fill="none" stroke="#191970" d="M2713.6454,-114.8054C2291.324,-111.1706 426.1499,-92.9632 170.5,-53 167.4424,-52.522 164.3428,-51.969 161.2245,-51.3548"/>
<polygon fill="#191970" stroke="#191970" points="2713.9155,-118.3078 2723.9452,-114.8936 2713.9756,-111.308 2713.9155,-118.3078"/>
</g>
<!-- Node170 -->
<g id="node3" class="node">
<title>Node170</title>
<g id="a_node3"><a xlink:href="../../d9/dae/StepTHn_8cxx.html" target="_top" xlink:title="/home/travis/build\l/AliceO2Group/AliceO2\l/Analysis/Core/src/StepTHn.cxx">
<polygon fill="none" stroke="#000000" points="179.5,-6 179.5,-47 347.5,-47 347.5,-6 179.5,-6"/>
<text text-anchor="start" x="187.5" y="-35" font-family="Helvetica,sans-Serif" font-size="10.00" fill="#000000">/home/travis/build</text>
<text text-anchor="start" x="187.5" y="-24" font-family="Helvetica,sans-Serif" font-size="10.00" fill="#000000">/AliceO2Group/AliceO2</text>
<text text-anchor="middle" x="263.5" y="-13" font-family="Helvetica,sans-Serif" font-size="10.00" fill="#000000">/Analysis/Core/src/StepTHn.cxx</text>
</a>
</g>
</g>
<!-- Node168&#45;&gt;Node170 -->
<g id="edge2" class="edge">
<title>Node168&#45;&gt;Node170</title>
<path fill="none" stroke="#191970" d="M2713.8027,-114.5981C2310.3341,-110.131 593.0317,-89.1327 356.5,-53 347.0403,-51.5549 337.1825,-49.4396 327.573,-47.0241"/>
<polygon fill="#191970" stroke="#191970" points="2713.9021,-118.0993 2723.9401,-114.7099 2713.9794,-111.0997 2713.9021,-118.0993"/>
</g>
<!-- Node171 -->
<g id="node4" class="node">
<title>Node171</title>
<g id="a_node4"><a xlink:href="../../d5/d75/centralityQa_8cxx.html" target="_top" xlink:title="/home/travis/build\l/AliceO2Group/AliceO2\l/Analysis/Tasks/centralityQa.cxx">
<polygon fill="none" stroke="#000000" points="365.5,-6 365.5,-47 539.5,-47 539.5,-6 365.5,-6"/>
<text text-anchor="start" x="373.5" y="-35" font-family="Helvetica,sans-Serif" font-size="10.00" fill="#000000">/home/travis/build</text>
<text text-anchor="start" x="373.5" y="-24" font-family="Helvetica,sans-Serif" font-size="10.00" fill="#000000">/AliceO2Group/AliceO2</text>
<text text-anchor="middle" x="452.5" y="-13" font-family="Helvetica,sans-Serif" font-size="10.00" fill="#000000">/Analysis/Tasks/centralityQa.cxx</text>
</a>
</g>
</g>
<!-- Node168&#45;&gt;Node171 -->
<g id="edge3" class="edge">
<title>Node168&#45;&gt;Node171</title>
<path fill="none" stroke="#191970" d="M2713.6672,-114.3564C2329.8642,-109.0182 765.2432,-85.4367 548.5,-53 538.8387,-51.5541 528.7659,-49.4557 518.9337,-47.0631"/>
<polygon fill="#191970" stroke="#191970" points="2713.819,-117.8587 2723.8666,-114.4978 2713.9162,-110.8594 2713.819,-117.8587"/>
</g>
<!-- Node172 -->
<g id="node5" class="node">
<title>Node172</title>
<g id="a_node5"><a xlink:href="../../de/d41/centralityTable_8cxx.html" target="_top" xlink:title="/home/travis/build\l/AliceO2Group/AliceO2\l/Analysis/Tasks/centralityTable.cxx">
<polygon fill="none" stroke="#000000" points="557.5,-6 557.5,-47 743.5,-47 743.5,-6 557.5,-6"/>
<text text-anchor="start" x="565.5" y="-35" font-family="Helvetica,sans-Serif" font-size="10.00" fill="#000000">/home/travis/build</text>
<text text-anchor="start" x="565.5" y="-24" font-family="Helvetica,sans-Serif" font-size="10.00" fill="#000000">/AliceO2Group/AliceO2</text>
<text text-anchor="middle" x="650.5" y="-13" font-family="Helvetica,sans-Serif" font-size="10.00" fill="#000000">/Analysis/Tasks/centralityTable.cxx</text>
</a>
</g>
</g>
<!-- Node168&#45;&gt;Node172 -->
<g id="edge4" class="edge">
<title>Node168&#45;&gt;Node172</title>
<path fill="none" stroke="#191970" d="M2713.756,-114.0304C2352.2184,-107.6089 948.3827,-81.076 752.5,-53 742.2672,-51.5333 731.5828,-49.4232 721.1446,-47.0252"/>
<polygon fill="#191970" stroke="#191970" points="2713.831,-117.5322 2723.8915,-114.21 2713.9551,-110.5333 2713.831,-117.5322"/>
</g>
<!-- Node173 -->
<g id="node6" class="node">
<title>Node173</title>
<g id="a_node6"><a xlink:href="../../d9/d61/correlations_8cxx.html" target="_top" xlink:title="/home/travis/build\l/AliceO2Group/AliceO2\l/Analysis/Tasks/correlations.cxx">
<polygon fill="none" stroke="#000000" points="761.5,-6 761.5,-47 933.5,-47 933.5,-6 761.5,-6"/>
<text text-anchor="start" x="769.5" y="-35" font-family="Helvetica,sans-Serif" font-size="10.00" fill="#000000">/home/travis/build</text>
<text text-anchor="start" x="769.5" y="-24" font-family="Helvetica,sans-Serif" font-size="10.00" fill="#000000">/AliceO2Group/AliceO2</text>
<text text-anchor="middle" x="847.5" y="-13" font-family="Helvetica,sans-Serif" font-size="10.00" fill="#000000">/Analysis/Tasks/correlations.cxx</text>
</a>
</g>
</g>
<!-- Node168&#45;&gt;Node173 -->
<g id="edge5" class="edge">
<title>Node168&#45;&gt;Node173</title>
<path fill="none" stroke="#191970" d="M2713.852,-113.8369C2374.0056,-106.9979 1118.5642,-80.1224 942.5,-53 932.9385,-51.5271 922.97,-49.4135 913.24,-47.0138"/>
<polygon fill="#191970" stroke="#191970" points="2713.8094,-117.3367 2723.8777,-114.0382 2713.95,-110.3381 2713.8094,-117.3367"/>
</g>
<!-- Node174 -->
<g id="node7" class="node">
<title>Node174</title>
<g id="a_node7"><a xlink:href="../../df/d59/correlationsCollection_8cxx.html" target="_top" xlink:title="/home/travis/build\l/AliceO2Group/AliceO2\l/Analysis/Tasks/correlations\lCollection.cxx">
<polygon fill="none" stroke="#000000" points="951.5,-.5 951.5,-52.5 1103.5,-52.5 1103.5,-.5 951.5,-.5"/>
<text text-anchor="start" x="959.5" y="-40.5" font-family="Helvetica,sans-Serif" font-size="10.00" fill="#000000">/home/travis/build</text>
<text text-anchor="start" x="959.5" y="-29.5" font-family="Helvetica,sans-Serif" font-size="10.00" fill="#000000">/AliceO2Group/AliceO2</text>
<text text-anchor="start" x="959.5" y="-18.5" font-family="Helvetica,sans-Serif" font-size="10.00" fill="#000000">/Analysis/Tasks/correlations</text>
<text text-anchor="middle" x="1027.5" y="-7.5" font-family="Helvetica,sans-Serif" font-size="10.00" fill="#000000">Collection.cxx</text>
</a>
</g>
</g>
<!-- Node168&#45;&gt;Node174 -->
<g id="edge6" class="edge">
<title>Node168&#45;&gt;Node174</title>
<path fill="none" stroke="#191970" d="M2713.7285,-113.675C2393.9201,-106.6093 1270.6977,-80.0961 1112.5,-53 1109.6052,-52.5042 1106.6719,-51.936 1103.7218,-51.3089"/>
<polygon fill="#191970" stroke="#191970" points="2713.7856,-117.177 2723.8603,-113.8983 2713.9398,-110.1787 2713.7856,-117.177"/>
</g>
<!-- Node175 -->
<g id="node8" class="node">
<title>Node175</title>
<g id="a_node8"><a xlink:href="../../d9/df1/eventSelection_8cxx.html" target="_top" xlink:title="/home/travis/build\l/AliceO2Group/AliceO2\l/Analysis/Tasks/eventSelection.cxx">
<polygon fill="none" stroke="#000000" points="1122,-6 1122,-47 1309,-47 1309,-6 1122,-6"/>
<text text-anchor="start" x="1130" y="-35" font-family="Helvetica,sans-Serif" font-size="10.00" fill="#000000">/home/travis/build</text>
<text text-anchor="start" x="1130" y="-24" font-family="Helvetica,sans-Serif" font-size="10.00" fill="#000000">/AliceO2Group/AliceO2</text>
<text text-anchor="middle" x="1215.5" y="-13" font-family="Helvetica,sans-Serif" font-size="10.00" fill="#000000">/Analysis/Tasks/eventSelection.cxx</text>
</a>
</g>
</g>
<!-- Node168&#45;&gt;Node175 -->
<g id="edge7" class="edge">
<title>Node168&#45;&gt;Node175</title>
<path fill="none" stroke="#191970" d="M2713.5649,-114.2524C2441.0341,-109.8813 1590.5482,-93.2851 1318.5,-53 1308.3629,-51.4989 1297.78,-49.4031 1287.4212,-47.0411"/>
<polygon fill="#191970" stroke="#191970" points="2713.7344,-117.7554 2723.7889,-114.415 2713.8458,-110.7563 2713.7344,-117.7554"/>
</g>
<!-- Node176 -->
<g id="node9" class="node">
<title>Node176</title>
<g id="a_node9"><a xlink:href="../../d2/dc6/jetfinder_8cxx.html" target="_top" xlink:title="/home/travis/build\l/AliceO2Group/AliceO2\l/Analysis/Tasks/jetfinder.cxx">
<polygon fill="none" stroke="#000000" points="1327.5,-6 1327.5,-47 1481.5,-47 1481.5,-6 1327.5,-6"/>
<text text-anchor="start" x="1335.5" y="-35" font-family="Helvetica,sans-Serif" font-size="10.00" fill="#000000">/home/travis/build</text>
<text text-anchor="start" x="1335.5" y="-24" font-family="Helvetica,sans-Serif" font-size="10.00" fill="#000000">/AliceO2Group/AliceO2</text>
<text text-anchor="middle" x="1404.5" y="-13" font-family="Helvetica,sans-Serif" font-size="10.00" fill="#000000">/Analysis/Tasks/jetfinder.cxx</text>
</a>
</g>
</g>
<!-- Node168&#45;&gt;Node176 -->
<g id="edge8" class="edge">
<title>Node168&#45;&gt;Node176</title>
<path fill="none" stroke="#191970" d="M2713.6257,-114.2241C2462.6471,-110.0116 1726.8356,-94.3785 1490.5,-53 1482.0359,-51.5181 1473.2392,-49.4497 1464.6434,-47.1154"/>
<polygon fill="#191970" stroke="#191970" points="2713.7236,-117.7261 2723.7804,-114.3928 2713.8399,-110.7271 2713.7236,-117.7261"/>
</g>
<!-- Node177 -->
<g id="node10" class="node">
<title>Node177</title>
<g id="a_node10"><a xlink:href="../../d3/d6a/multiplicityQa_8cxx.html" target="_top" xlink:title="/home/travis/build\l/AliceO2Group/AliceO2\l/Analysis/Tasks/multiplicity\lQa.cxx">
<polygon fill="none" stroke="#000000" points="1500,-.5 1500,-52.5 1649,-52.5 1649,-.5 1500,-.5"/>
<text text-anchor="start" x="1508" y="-40.5" font-family="Helvetica,sans-Serif" font-size="10.00" fill="#000000">/home/travis/build</text>
<text text-anchor="start" x="1508" y="-29.5" font-family="Helvetica,sans-Serif" font-size="10.00" fill="#000000">/AliceO2Group/AliceO2</text>
<text text-anchor="start" x="1508" y="-18.5" font-family="Helvetica,sans-Serif" font-size="10.00" fill="#000000">/Analysis/Tasks/multiplicity</text>
<text text-anchor="middle" x="1574.5" y="-7.5" font-family="Helvetica,sans-Serif" font-size="10.00" fill="#000000">Qa.cxx</text>
</a>
</g>
</g>
<!-- Node168&#45;&gt;Node177 -->
<g id="edge9" class="edge">
<title>Node168&#45;&gt;Node177</title>
<path fill="none" stroke="#191970" d="M2713.5603,-113.6435C2484.9249,-108.2002 1860.1101,-90.2635 1657.5,-53 1654.8222,-52.5075 1652.1106,-51.9532 1649.3832,-51.3484"/>
<polygon fill="#191970" stroke="#191970" points="2713.7386,-117.1486 2723.8185,-113.8856 2713.9039,-110.1505 2713.7386,-117.1486"/>
</g>
<!-- Node178 -->
<g id="node11" class="node">
<title>Node178</title>
<g id="a_node11"><a xlink:href="../../d4/d23/multiplicityTable_8cxx.html" target="_top" xlink:title="/home/travis/build\l/AliceO2Group/AliceO2\l/Analysis/Tasks/multiplicity\lTable.cxx">
<polygon fill="none" stroke="#000000" points="1667,-.5 1667,-52.5 1816,-52.5 1816,-.5 1667,-.5"/>
<text text-anchor="start" x="1675" y="-40.5" font-family="Helvetica,sans-Serif" font-size="10.00" fill="#000000">/home/travis/build</text>
<text text-anchor="start" x="1675" y="-29.5" font-family="Helvetica,sans-Serif" font-size="10.00" fill="#000000">/AliceO2Group/AliceO2</text>
<text text-anchor="start" x="1675" y="-18.5" font-family="Helvetica,sans-Serif" font-size="10.00" fill="#000000">/Analysis/Tasks/multiplicity</text>
<text text-anchor="middle" x="1741.5" y="-7.5" font-family="Helvetica,sans-Serif" font-size="10.00" fill="#000000">Table.cxx</text>
</a>
</g>
</g>
<!-- Node168&#45;&gt;Node178 -->
<g id="edge10" class="edge">
<title>Node168&#45;&gt;Node178</title>
<path fill="none" stroke="#191970" d="M2713.6074,-112.721C2509.1583,-105.5982 1993.869,-84.9699 1824.5,-53 1821.8245,-52.495 1819.1149,-51.93 1816.3892,-51.3159"/>
<polygon fill="#191970" stroke="#191970" points="2713.5777,-116.222 2723.6929,-113.0702 2713.82,-109.2262 2713.5777,-116.222"/>
</g>
<!-- Node179 -->
<g id="node12" class="node">
<title>Node179</title>
<g id="a_node12"><a xlink:href="../../db/d90/trackselection_8cxx.html" target="_top" xlink:title="/home/travis/build\l/AliceO2Group/AliceO2\l/Analysis/Tasks/trackselection.cxx">
<polygon fill="none" stroke="#000000" points="1834,-6 1834,-47 2017,-47 2017,-6 1834,-6"/>
<text text-anchor="start" x="1842" y="-35" font-family="Helvetica,sans-Serif" font-size="10.00" fill="#000000">/home/travis/build</text>
<text text-anchor="start" x="1842" y="-24" font-family="Helvetica,sans-Serif" font-size="10.00" fill="#000000">/AliceO2Group/AliceO2</text>
<text text-anchor="middle" x="1925.5" y="-13" font-family="Helvetica,sans-Serif" font-size="10.00" fill="#000000">/Analysis/Tasks/trackselection.cxx</text>
</a>
</g>
</g>
<!-- Node168&#45;&gt;Node179 -->
<g id="edge11" class="edge">
<title>Node168&#45;&gt;Node179</title>
<path fill="none" stroke="#191970" d="M2713.853,-113.5861C2570.9895,-109.2583 2273.3436,-95.5088 2025.5,-53 2016.118,-51.3908 2006.3345,-49.3121 1996.718,-47.0273"/>
<polygon fill="#191970" stroke="#191970" points="2713.77,-117.0851 2723.8689,-113.8817 2713.9765,-110.0881 2713.77,-117.0851"/>
</g>
<!-- Node180 -->
<g id="node13" class="node">
<title>Node180</title>
<g id="a_node13"><a xlink:href="../../d2/d9d/upcAnalysis_8cxx.html" target="_top" xlink:title="/home/travis/build\l/AliceO2Group/AliceO2\l/Analysis/Tasks/upcAnalysis.cxx">
<polygon fill="none" stroke="#000000" points="2035,-6 2035,-47 2208,-47 2208,-6 2035,-6"/>
<text text-anchor="start" x="2043" y="-35" font-family="Helvetica,sans-Serif" font-size="10.00" fill="#000000">/home/travis/build</text>
<text text-anchor="start" x="2043" y="-24" font-family="Helvetica,sans-Serif" font-size="10.00" fill="#000000">/AliceO2Group/AliceO2</text>
<text text-anchor="middle" x="2121.5" y="-13" font-family="Helvetica,sans-Serif" font-size="10.00" fill="#000000">/Analysis/Tasks/upcAnalysis.cxx</text>
</a>
</g>
</g>
<!-- Node168&#45;&gt;Node180 -->
<g id="edge12" class="edge">
<title>Node168&#45;&gt;Node180</title>
<path fill="none" stroke="#191970" d="M2713.9168,-110.8068C2600.0732,-103.4933 2391.6095,-86.5872 2216.5,-53 2207.8397,-51.3389 2198.8191,-49.2737 2189.9337,-47.0341"/>
<polygon fill="#191970" stroke="#191970" points="2713.7613,-114.3039 2723.9625,-111.443 2714.2037,-107.3179 2713.7613,-114.3039"/>
</g>
<!-- Node181 -->
<g id="node14" class="node">
<title>Node181</title>
<g id="a_node14"><a xlink:href="../../dd/d1b/validation_8cxx.html" target="_top" xlink:title="/home/travis/build\l/AliceO2Group/AliceO2\l/Analysis/Tasks/validation.cxx">
<polygon fill="none" stroke="#000000" points="2226,-6 2226,-47 2389,-47 2389,-6 2226,-6"/>
<text text-anchor="start" x="2234" y="-35" font-family="Helvetica,sans-Serif" font-size="10.00" fill="#000000">/home/travis/build</text>
<text text-anchor="start" x="2234" y="-24" font-family="Helvetica,sans-Serif" font-size="10.00" fill="#000000">/AliceO2Group/AliceO2</text>
<text text-anchor="middle" x="2307.5" y="-13" font-family="Helvetica,sans-Serif" font-size="10.00" fill="#000000">/Analysis/Tasks/validation.cxx</text>
</a>
</g>
</g>
<!-- Node168&#45;&gt;Node181 -->
<g id="edge13" class="edge">
<title>Node168&#45;&gt;Node181</title>
<path fill="none" stroke="#191970" d="M2713.683,-105.4601C2632.307,-95.0727 2506.2336,-76.9991 2398.5,-53 2390.63,-51.2469 2382.4389,-49.194 2374.3378,-47.0203"/>
<polygon fill="#191970" stroke="#191970" points="2713.5135,-108.9665 2723.874,-106.7506 2714.393,-102.0219 2713.5135,-108.9665"/>
</g>
<!-- Node182 -->
<g id="node15" class="node">
<title>Node182</title>
<g id="a_node15"><a xlink:href="../../de/d5e/vertexerhf_8cxx.html" target="_top" xlink:title="/home/travis/build\l/AliceO2Group/AliceO2\l/Analysis/Tasks/vertexerhf.cxx">
<polygon fill="none" stroke="#000000" points="2407.5,-6 2407.5,-47 2571.5,-47 2571.5,-6 2407.5,-6"/>
<text text-anchor="start" x="2415.5" y="-35" font-family="Helvetica,sans-Serif" font-size="10.00" fill="#000000">/home/travis/build</text>
<text text-anchor="start" x="2415.5" y="-24" font-family="Helvetica,sans-Serif" font-size="10.00" fill="#000000">/AliceO2Group/AliceO2</text>
<text text-anchor="middle" x="2489.5" y="-13" font-family="Helvetica,sans-Serif" font-size="10.00" fill="#000000">/Analysis/Tasks/vertexerhf.cxx</text>
</a>
</g>
</g>
<!-- Node168&#45;&gt;Node182 -->
<g id="edge14" class="edge">
<title>Node168&#45;&gt;Node182</title>
<path fill="none" stroke="#191970" d="M2714.0029,-91.3635C2673.5892,-79.7967 2624.5287,-65.7222 2580.5,-53 2573.8606,-51.0815 2566.9503,-49.0793 2560.0368,-47.0723"/>
<polygon fill="#191970" stroke="#191970" points="2713.2384,-94.7851 2723.8155,-94.1713 2715.1642,-88.0552 2713.2384,-94.7851"/>
</g>
<!-- Node183 -->
<g id="node16" class="node">
<title>Node183</title>
<g id="a_node16"><a xlink:href="../../dd/d00/aodreader_8cxx.html" target="_top" xlink:title="/home/travis/build\l/AliceO2Group/AliceO2\l/Analysis/Tutorials/src\l/aodreader.cxx">
<polygon fill="none" stroke="#000000" points="2590,-.5 2590,-52.5 2717,-52.5 2717,-.5 2590,-.5"/>
<text text-anchor="start" x="2598" y="-40.5" font-family="Helvetica,sans-Serif" font-size="10.00" fill="#000000">/home/travis/build</text>
<text text-anchor="start" x="2598" y="-29.5" font-family="Helvetica,sans-Serif" font-size="10.00" fill="#000000">/AliceO2Group/AliceO2</text>
<text text-anchor="start" x="2598" y="-18.5" font-family="Helvetica,sans-Serif" font-size="10.00" fill="#000000">/Analysis/Tutorials/src</text>
<text text-anchor="middle" x="2653.5" y="-7.5" font-family="Helvetica,sans-Serif" font-size="10.00" fill="#000000">/aodreader.cxx</text>
</a>
</g>
</g>
<!-- Node168&#45;&gt;Node183 -->
<g id="edge15" class="edge">
<title>Node168&#45;&gt;Node183</title>
<path fill="none" stroke="#191970" d="M2747.1781,-83.9989C2730.3996,-73.7004 2711.9622,-62.3837 2695.9152,-52.5341"/>
<polygon fill="#191970" stroke="#191970" points="2745.4259,-87.0302 2755.7795,-89.2784 2749.0877,-81.0643 2745.4259,-87.0302"/>
</g>
<!-- Node184 -->
<g id="node17" class="node">
<title>Node184</title>
<g id="a_node17"><a xlink:href="../../d0/dee/aodwriter_8cxx.html" target="_top" xlink:title="/home/travis/build\l/AliceO2Group/AliceO2\l/Analysis/Tutorials/src\l/aodwriter.cxx">
<polygon fill="none" stroke="#000000" points="2735,-.5 2735,-52.5 2862,-52.5 2862,-.5 2735,-.5"/>
<text text-anchor="start" x="2743" y="-40.5" font-family="Helvetica,sans-Serif" font-size="10.00" fill="#000000">/home/travis/build</text>
<text text-anchor="start" x="2743" y="-29.5" font-family="Helvetica,sans-Serif" font-size="10.00" fill="#000000">/AliceO2Group/AliceO2</text>
<text text-anchor="start" x="2743" y="-18.5" font-family="Helvetica,sans-Serif" font-size="10.00" fill="#000000">/Analysis/Tutorials/src</text>
<text text-anchor="middle" x="2798.5" y="-7.5" font-family="Helvetica,sans-Serif" font-size="10.00" fill="#000000">/aodwriter.cxx</text>
</a>
</g>
</g>
<!-- Node168&#45;&gt;Node184 -->
<g id="edge16" class="edge">
<title>Node168&#45;&gt;Node184</title>
<path fill="none" stroke="#191970" d="M2798.5,-79.1155C2798.5,-70.2061 2798.5,-60.8475 2798.5,-52.5341"/>
<polygon fill="#191970" stroke="#191970" points="2795.0001,-79.2784 2798.5,-89.2784 2802.0001,-79.2785 2795.0001,-79.2784"/>
</g>
<!-- Node185 -->
<g id="node18" class="node">
<title>Node185</title>
<g id="a_node18"><a xlink:href="../../d6/dcb/associatedExample_8cxx.html" target="_top" xlink:title="/home/travis/build\l/AliceO2Group/AliceO2\l/Analysis/Tutorials/src\l/associatedExample.cxx">
<polygon fill="none" stroke="#000000" points="2880,-.5 2880,-52.5 3015,-52.5 3015,-.5 2880,-.5"/>
<text text-anchor="start" x="2888" y="-40.5" font-family="Helvetica,sans-Serif" font-size="10.00" fill="#000000">/home/travis/build</text>
<text text-anchor="start" x="2888" y="-29.5" font-family="Helvetica,sans-Serif" font-size="10.00" fill="#000000">/AliceO2Group/AliceO2</text>
<text text-anchor="start" x="2888" y="-18.5" font-family="Helvetica,sans-Serif" font-size="10.00" fill="#000000">/Analysis/Tutorials/src</text>
<text text-anchor="middle" x="2947.5" y="-7.5" font-family="Helvetica,sans-Serif" font-size="10.00" fill="#000000">/associatedExample.cxx</text>
</a>
</g>
</g>
<!-- Node168&#45;&gt;Node185 -->
<g id="edge17" class="edge">
<title>Node168&#45;&gt;Node185</title>
<path fill="none" stroke="#191970" d="M2851.2377,-83.9989C2868.4791,-73.7004 2887.4251,-62.3837 2903.9147,-52.5341"/>
<polygon fill="#191970" stroke="#191970" points="2849.1893,-81.1456 2842.399,-89.2784 2852.7789,-87.1552 2849.1893,-81.1456"/>
</g>
<!-- Node186 -->
<g id="node19" class="node">
<title>Node186</title>
<g id="a_node19"><a xlink:href="../../d4/dd5/collisionTracksIteration_8cxx.html" target="_top" xlink:title="/home/travis/build\l/AliceO2Group/AliceO2\l/Analysis/Tutorials/src\l/collisionTracksIteration.cxx">
<polygon fill="none" stroke="#000000" points="3033.5,-.5 3033.5,-52.5 3185.5,-52.5 3185.5,-.5 3033.5,-.5"/>
<text text-anchor="start" x="3041.5" y="-40.5" font-family="Helvetica,sans-Serif" font-size="10.00" fill="#000000">/home/travis/build</text>
<text text-anchor="start" x="3041.5" y="-29.5" font-family="Helvetica,sans-Serif" font-size="10.00" fill="#000000">/AliceO2Group/AliceO2</text>
<text text-anchor="start" x="3041.5" y="-18.5" font-family="Helvetica,sans-Serif" font-size="10.00" fill="#000000">/Analysis/Tutorials/src</text>
<text text-anchor="middle" x="3109.5" y="-7.5" font-family="Helvetica,sans-Serif" font-size="10.00" fill="#000000">/collisionTracksIteration.cxx</text>
</a>
</g>
</g>
<!-- Node168&#45;&gt;Node186 -->
<g id="edge18" class="edge">
<title>Node168&#45;&gt;Node186</title>
<path fill="none" stroke="#191970" d="M2882.9908,-92.832C2925.5321,-81.2416 2977.8503,-66.7184 3024.5,-53 3027.3176,-52.1714 3030.1852,-51.3199 3033.0798,-50.4533"/>
<polygon fill="#191970" stroke="#191970" points="2881.9658,-89.4835 2873.2349,-95.4853 2883.8029,-96.2382 2881.9658,-89.4835"/>
</g>
<!-- Node187 -->
<g id="node20" class="node">
<title>Node187</title>
<g id="a_node20"><a xlink:href="../../d2/df5/dynamicColumns_8cxx.html" target="_top" xlink:title="/home/travis/build\l/AliceO2Group/AliceO2\l/Analysis/Tutorials/src\l/dynamicColumns.cxx">
<polygon fill="none" stroke="#000000" points="3204,-.5 3204,-52.5 3331,-52.5 3331,-.5 3204,-.5"/>
<text text-anchor="start" x="3212" y="-40.5" font-family="Helvetica,sans-Serif" font-size="10.00" fill="#000000">/home/travis/build</text>
<text text-anchor="start" x="3212" y="-29.5" font-family="Helvetica,sans-Serif" font-size="10.00" fill="#000000">/AliceO2Group/AliceO2</text>
<text text-anchor="start" x="3212" y="-18.5" font-family="Helvetica,sans-Serif" font-size="10.00" fill="#000000">/Analysis/Tutorials/src</text>
<text text-anchor="middle" x="3267.5" y="-7.5" font-family="Helvetica,sans-Serif" font-size="10.00" fill="#000000">/dynamicColumns.cxx</text>
</a>
</g>
</g>
<!-- Node168&#45;&gt;Node187 -->
<g id="edge19" class="edge">
<title>Node168&#45;&gt;Node187</title>
<path fill="none" stroke="#191970" d="M2883.2078,-106.8939C2964.048,-97.566 3088.827,-80.2507 3194.5,-53 3197.5028,-52.2256 3200.5553,-51.3765 3203.6243,-50.4723"/>
<polygon fill="#191970" stroke="#191970" points="2882.621,-103.438 2873.0813,-108.0471 2883.4131,-110.393 2882.621,-103.438"/>
</g>
<!-- Node188 -->
<g id="node21" class="node">
<title>Node188</title>
<g id="a_node21"><a xlink:href="../../d6/d77/filters_8cxx.html" target="_top" xlink:title="/home/travis/build\l/AliceO2Group/AliceO2\l/Analysis/Tutorials/src\l/filters.cxx">
<polygon fill="none" stroke="#000000" points="3349,-.5 3349,-52.5 3476,-52.5 3476,-.5 3349,-.5"/>
<text text-anchor="start" x="3357" y="-40.5" font-family="Helvetica,sans-Serif" font-size="10.00" fill="#000000">/home/travis/build</text>
<text text-anchor="start" x="3357" y="-29.5" font-family="Helvetica,sans-Serif" font-size="10.00" fill="#000000">/AliceO2Group/AliceO2</text>
<text text-anchor="start" x="3357" y="-18.5" font-family="Helvetica,sans-Serif" font-size="10.00" fill="#000000">/Analysis/Tutorials/src</text>
<text text-anchor="middle" x="3412.5" y="-7.5" font-family="Helvetica,sans-Serif" font-size="10.00" fill="#000000">/filters.cxx</text>
</a>
</g>
</g>
<!-- Node168&#45;&gt;Node188 -->
<g id="edge20" class="edge">
<title>Node168&#45;&gt;Node188</title>
<path fill="none" stroke="#191970" d="M2883.2571,-111.962C2990.856,-106.0543 3181.6073,-90.8306 3340.5,-53 3343.2211,-52.3521 3345.9803,-51.6322 3348.7529,-50.8565"/>
<polygon fill="#191970" stroke="#191970" points="2882.9064,-108.4756 2873.1077,-112.5051 2883.2805,-115.4656 2882.9064,-108.4756"/>
</g>
<!-- Node189 -->
<g id="node22" class="node">
<title>Node189</title>
<g id="a_node22"><a xlink:href="../../d2/d4e/fullTrackIteration_8cxx.html" target="_top" xlink:title="/home/travis/build\l/AliceO2Group/AliceO2\l/Analysis/Tutorials/src\l/fullTrackIteration.cxx">
<polygon fill="none" stroke="#000000" points="3494,-.5 3494,-52.5 3621,-52.5 3621,-.5 3494,-.5"/>
<text text-anchor="start" x="3502" y="-40.5" font-family="Helvetica,sans-Serif" font-size="10.00" fill="#000000">/home/travis/build</text>
<text text-anchor="start" x="3502" y="-29.5" font-family="Helvetica,sans-Serif" font-size="10.00" fill="#000000">/AliceO2Group/AliceO2</text>
<text text-anchor="start" x="3502" y="-18.5" font-family="Helvetica,sans-Serif" font-size="10.00" fill="#000000">/Analysis/Tutorials/src</text>
<text text-anchor="middle" x="3557.5" y="-7.5" font-family="Helvetica,sans-Serif" font-size="10.00" fill="#000000">/fullTrackIteration.cxx</text>
</a>
</g>
</g>
<!-- Node168&#45;&gt;Node189 -->
<g id="edge21" class="edge">
<title>Node168&#45;&gt;Node189</title>
<path fill="none" stroke="#191970" d="M2883.2251,-110.5717C3040.76,-100.948 3372.9641,-78.3658 3485.5,-53 3488.2287,-52.3849 3490.9942,-51.6925 3493.7721,-50.9394"/>
<polygon fill="#191970" stroke="#191970" points="2882.8745,-107.0864 2873.1053,-111.1867 2883.2993,-114.0735 2882.8745,-107.0864"/>
</g>
<!-- Node190 -->
<g id="node23" class="node">
<title>Node190</title>
<g id="a_node23"><a xlink:href="../../df/d90/histograms_8cxx.html" target="_top" xlink:title="/home/travis/build\l/AliceO2Group/AliceO2\l/Analysis/Tutorials/src\l/histograms.cxx">
<polygon fill="none" stroke="#000000" points="3639,-.5 3639,-52.5 3766,-52.5 3766,-.5 3639,-.5"/>
<text text-anchor="start" x="3647" y="-40.5" font-family="Helvetica,sans-Serif" font-size="10.00" fill="#000000">/home/travis/build</text>
<text text-anchor="start" x="3647" y="-29.5" font-family="Helvetica,sans-Serif" font-size="10.00" fill="#000000">/AliceO2Group/AliceO2</text>
<text text-anchor="start" x="3647" y="-18.5" font-family="Helvetica,sans-Serif" font-size="10.00" fill="#000000">/Analysis/Tutorials/src</text>
<text text-anchor="middle" x="3702.5" y="-7.5" font-family="Helvetica,sans-Serif" font-size="10.00" fill="#000000">/histograms.cxx</text>
</a>
</g>
</g>
<!-- Node168&#45;&gt;Node190 -->
<g id="edge22" class="edge">
<title>Node168&#45;&gt;Node190</title>
<path fill="none" stroke="#191970" d="M2883.2959,-112.1172C3065.6074,-104.3575 3489.7504,-83.5628 3630.5,-53 3633.2335,-52.4064 3636.0029,-51.732 3638.7842,-50.9938"/>
<polygon fill="#191970" stroke="#191970" points="2883.0618,-108.6239 2873.2186,-112.5433 2883.3576,-115.6176 2883.0618,-108.6239"/>
</g>
<!-- Node191 -->
<g id="node24" class="node">
<title>Node191</title>
<g id="a_node24"><a xlink:href="../../dd/d06/histogramTrackSelection_8cxx.html" target="_top" xlink:title="/home/travis/build\l/AliceO2Group/AliceO2\l/Analysis/Tutorials/src\l/histogramTrackSelection.cxx">
<polygon fill="none" stroke="#000000" points="3784.5,-.5 3784.5,-52.5 3944.5,-52.5 3944.5,-.5 3784.5,-.5"/>
<text text-anchor="start" x="3792.5" y="-40.5" font-family="Helvetica,sans-Serif" font-size="10.00" fill="#000000">/home/travis/build</text>
<text text-anchor="start" x="3792.5" y="-29.5" font-family="Helvetica,sans-Serif" font-size="10.00" fill="#000000">/AliceO2Group/AliceO2</text>
<text text-anchor="start" x="3792.5" y="-18.5" font-family="Helvetica,sans-Serif" font-size="10.00" fill="#000000">/Analysis/Tutorials/src</text>
<text text-anchor="middle" x="3864.5" y="-7.5" font-family="Helvetica,sans-Serif" font-size="10.00" fill="#000000">/histogramTrackSelection.cxx</text>
</a>
</g>
</g>
<!-- Node168&#45;&gt;Node191 -->
<g id="edge23" class="edge">
<title>Node168&#45;&gt;Node191</title>
<path fill="none" stroke="#191970" d="M2883.2439,-112.5337C3087.982,-104.9716 3605.1987,-83.3987 3775.5,-53 3778.3568,-52.4901 3781.2518,-51.9208 3784.1656,-51.3032"/>
<polygon fill="#191970" stroke="#191970" points="2883.01,-109.0399 2873.1452,-112.9047 2883.267,-116.0352 2883.01,-109.0399"/>
</g>
<!-- Node192 -->
<g id="node25" class="node">
<title>Node192</title>
<g id="a_node25"><a xlink:href="../../d7/d21/jetAnalysis_8cxx.html" target="_top" xlink:title="/home/travis/build\l/AliceO2Group/AliceO2\l/Analysis/Tutorials/src\l/jetAnalysis.cxx">
<polygon fill="none" stroke="#000000" points="3963,-.5 3963,-52.5 4090,-52.5 4090,-.5 3963,-.5"/>
<text text-anchor="start" x="3971" y="-40.5" font-family="Helvetica,sans-Serif" font-size="10.00" fill="#000000">/home/travis/build</text>
<text text-anchor="start" x="3971" y="-29.5" font-family="Helvetica,sans-Serif" font-size="10.00" fill="#000000">/AliceO2Group/AliceO2</text>
<text text-anchor="start" x="3971" y="-18.5" font-family="Helvetica,sans-Serif" font-size="10.00" fill="#000000">/Analysis/Tutorials/src</text>
<text text-anchor="middle" x="4026.5" y="-7.5" font-family="Helvetica,sans-Serif" font-size="10.00" fill="#000000">/jetAnalysis.cxx</text>
</a>
</g>
</g>
<!-- Node168&#45;&gt;Node192 -->
<g id="edge24" class="edge">
<title>Node168&#45;&gt;Node192</title>
<path fill="none" stroke="#191970" d="M2883.399,-114.1348C3114.0835,-109.9113 3748.8319,-94.7313 3953.5,-53 3956.5385,-52.3805 3959.6203,-51.6583 3962.7131,-50.857"/>
<polygon fill="#191970" stroke="#191970" points="2883.3165,-110.6356 2873.3814,-114.316 2883.4431,-117.6345 2883.3165,-110.6356"/>
</g>
<!-- Node193 -->
<g id="node26" class="node">
<title>Node193</title>
<g id="a_node26"><a xlink:href="../../d7/d10/newCollections_8cxx.html" target="_top" xlink:title="/home/travis/build\l/AliceO2Group/AliceO2\l/Analysis/Tutorials/src\l/newCollections.cxx">
<polygon fill="none" stroke="#000000" points="4108,-.5 4108,-52.5 4235,-52.5 4235,-.5 4108,-.5"/>
<text text-anchor="start" x="4116" y="-40.5" font-family="Helvetica,sans-Serif" font-size="10.00" fill="#000000">/home/travis/build</text>
<text text-anchor="start" x="4116" y="-29.5" font-family="Helvetica,sans-Serif" font-size="10.00" fill="#000000">/AliceO2Group/AliceO2</text>
<text text-anchor="start" x="4116" y="-18.5" font-family="Helvetica,sans-Serif" font-size="10.00" fill="#000000">/Analysis/Tutorials/src</text>
<text text-anchor="middle" x="4171.5" y="-7.5" font-family="Helvetica,sans-Serif" font-size="10.00" fill="#000000">/newCollections.cxx</text>
</a>
</g>
</g>
<!-- Node168&#45;&gt;Node193 -->
<g id="edge25" class="edge">
<title>Node168&#45;&gt;Node193</title>
<path fill="none" stroke="#191970" d="M2883.4689,-114.7842C3133.8304,-112.1432 3865.7601,-100.4631 4099.5,-53 4102.2412,-52.4434 4105.0172,-51.7997 4107.8038,-51.0871"/>
<polygon fill="#191970" stroke="#191970" points="2883.3013,-111.2857 2873.338,-114.8889 2883.3737,-118.2853 2883.3013,-111.2857"/>
</g>
<!-- Node194 -->
<g id="node27" class="node">
<title>Node194</title>
<g id="a_node27"><a xlink:href="../../d3/d45/outputs_8cxx.html" target="_top" xlink:title="/home/travis/build\l/AliceO2Group/AliceO2\l/Analysis/Tutorials/src\l/outputs.cxx">
<polygon fill="none" stroke="#000000" points="4253,-.5 4253,-52.5 4380,-52.5 4380,-.5 4253,-.5"/>
<text text-anchor="start" x="4261" y="-40.5" font-family="Helvetica,sans-Serif" font-size="10.00" fill="#000000">/home/travis/build</text>
<text text-anchor="start" x="4261" y="-29.5" font-family="Helvetica,sans-Serif" font-size="10.00" fill="#000000">/AliceO2Group/AliceO2</text>
<text text-anchor="start" x="4261" y="-18.5" font-family="Helvetica,sans-Serif" font-size="10.00" fill="#000000">/Analysis/Tutorials/src</text>
<text text-anchor="middle" x="4316.5" y="-7.5" font-family="Helvetica,sans-Serif" font-size="10.00" fill="#000000">/outputs.cxx</text>
</a>
</g>
</g>
<!-- Node168&#45;&gt;Node194 -->
<g id="edge26" class="edge">
<title>Node168&#45;&gt;Node194</title>
<path fill="none" stroke="#191970" d="M2883.3786,-113.36C3172.9502,-105.8481 4111.4214,-79.69 4244.5,-53 4247.2425,-52.45 4250.0196,-51.8118 4252.8071,-51.1038"/>
<polygon fill="#191970" stroke="#191970" points="2883.2598,-109.8618 2873.3537,-113.6194 2883.4409,-116.8595 2883.2598,-109.8618"/>
</g>
<!-- Node195 -->
<g id="node28" class="node">
<title>Node195</title>
<g id="a_node28"><a xlink:href="../../d4/ded/trackCollectionIteration_8cxx.html" target="_top" xlink:title="/home/travis/build\l/AliceO2Group/AliceO2\l/Analysis/Tutorials/src\l/trackCollectionIteration.cxx">
<polygon fill="none" stroke="#000000" points="4398,-.5 4398,-52.5 4553,-52.5 4553,-.5 4398,-.5"/>
<text text-anchor="start" x="4406" y="-40.5" font-family="Helvetica,sans-Serif" font-size="10.00" fill="#000000">/home/travis/build</text>
<text text-anchor="start" x="4406" y="-29.5" font-family="Helvetica,sans-Serif" font-size="10.00" fill="#000000">/AliceO2Group/AliceO2</text>
<text text-anchor="start" x="4406" y="-18.5" font-family="Helvetica,sans-Serif" font-size="10.00" fill="#000000">/Analysis/Tutorials/src</text>
<text text-anchor="middle" x="4475.5" y="-7.5" font-family="Helvetica,sans-Serif" font-size="10.00" fill="#000000">/trackCollectionIteration.cxx</text>
</a>
</g>
</g>
<!-- Node168&#45;&gt;Node195 -->
<g id="edge27" class="edge">
<title>Node168&#45;&gt;Node195</title>
<path fill="none" stroke="#191970" d="M2883.4652,-115.0646C3169.5082,-113.1445 4095.9474,-103.1139 4389.5,-53 4392.2721,-52.5268 4395.0795,-51.9891 4397.9036,-51.3983"/>
<polygon fill="#191970" stroke="#191970" points="2883.1332,-111.5666 2873.1564,-115.1321 2883.1791,-118.5664 2883.1332,-111.5666"/>
</g>
<!-- Node196 -->
<g id="node29" class="node">
<title>Node196</title>
<g id="a_node29"><a xlink:href="../../db/d7e/trackIteration_8cxx.html" target="_top" xlink:title="/home/travis/build\l/AliceO2Group/AliceO2\l/Analysis/Tutorials/src\l/trackIteration.cxx">
<polygon fill="none" stroke="#000000" points="4571,-.5 4571,-52.5 4698,-52.5 4698,-.5 4571,-.5"/>
<text text-anchor="start" x="4579" y="-40.5" font-family="Helvetica,sans-Serif" font-size="10.00" fill="#000000">/home/travis/build</text>
<text text-anchor="start" x="4579" y="-29.5" font-family="Helvetica,sans-Serif" font-size="10.00" fill="#000000">/AliceO2Group/AliceO2</text>
<text text-anchor="start" x="4579" y="-18.5" font-family="Helvetica,sans-Serif" font-size="10.00" fill="#000000">/Analysis/Tutorials/src</text>
<text text-anchor="middle" x="4634.5" y="-7.5" font-family="Helvetica,sans-Serif" font-size="10.00" fill="#000000">/trackIteration.cxx</text>
</a>
</g>
</g>
<!-- Node168&#45;&gt;Node196 -->
<g id="edge28" class="edge">
<title>Node168&#45;&gt;Node196</title>
<path fill="none" stroke="#191970" d="M2883.591,-114.0667C3213.3765,-108.2955 4397.1303,-85.4976 4562.5,-53 4565.2447,-52.4606 4568.0235,-51.8314 4570.8125,-51.1308"/>
<polygon fill="#191970" stroke="#191970" points="2883.0896,-110.5748 2873.1522,-114.2487 2883.2117,-117.5738 2883.0896,-110.5748"/>
</g>
<!-- Node197 -->
<g id="node30" class="node">
<title>Node197</title>
<g id="a_node30"><a xlink:href="../../d9/d09/test__AnalysisTask_8cxx.html" target="_top" xlink:title="/home/travis/build\l/AliceO2Group/AliceO2\l/Framework/Core/test/test\l_AnalysisTask.cxx">
<polygon fill="none" stroke="#000000" points="4716,-.5 4716,-52.5 4859,-52.5 4859,-.5 4716,-.5"/>
<text text-anchor="start" x="4724" y="-40.5" font-family="Helvetica,sans-Serif" font-size="10.00" fill="#000000">/home/travis/build</text>
<text text-anchor="start" x="4724" y="-29.5" font-family="Helvetica,sans-Serif" font-size="10.00" fill="#000000">/AliceO2Group/AliceO2</text>
<text text-anchor="start" x="4724" y="-18.5" font-family="Helvetica,sans-Serif" font-size="10.00" fill="#000000">/Framework/Core/test/test</text>
<text text-anchor="middle" x="4787.5" y="-7.5" font-family="Helvetica,sans-Serif" font-size="10.00" fill="#000000">_AnalysisTask.cxx</text>
</a>
</g>
</g>
<!-- Node168&#45;&gt;Node197 -->
<g id="edge29" class="edge">
<title>Node168&#45;&gt;Node197</title>
<path fill="none" stroke="#191970" d="M2883.2695,-114.1561C3229.5182,-108.472 4526.7138,-85.2072 4707.5,-53 4710.2368,-52.5124 4713.008,-51.9513 4715.7935,-51.3301"/>
<polygon fill="#191970" stroke="#191970" points="2883.0019,-110.66 2873.0605,-114.3232 2883.1165,-117.659 2883.0019,-110.66"/>
</g>
<!-- Node198 -->
<g id="node31" class="node">
<title>Node198</title>
<g id="a_node31"><a xlink:href="../../d2/d45/test__GroupSlicer_8cxx.html" target="_top" xlink:title="/home/travis/build\l/AliceO2Group/AliceO2\l/Framework/Core/test/test\l_GroupSlicer.cxx">
<polygon fill="none" stroke="#000000" points="4877,-.5 4877,-52.5 5020,-52.5 5020,-.5 4877,-.5"/>
<text text-anchor="start" x="4885" y="-40.5" font-family="Helvetica,sans-Serif" font-size="10.00" fill="#000000">/home/travis/build</text>
<text text-anchor="start" x="4885" y="-29.5" font-family="Helvetica,sans-Serif" font-size="10.00" fill="#000000">/AliceO2Group/AliceO2</text>
<text text-anchor="start" x="4885" y="-18.5" font-family="Helvetica,sans-Serif" font-size="10.00" fill="#000000">/Framework/Core/test/test</text>
<text text-anchor="middle" x="4948.5" y="-7.5" font-family="Helvetica,sans-Serif" font-size="10.00" fill="#000000">_GroupSlicer.cxx</text>
</a>
</g>
</g>
<!-- Node168&#45;&gt;Node198 -->
<g id="edge30" class="edge">
<title>Node168&#45;&gt;Node198</title>
<path fill="none" stroke="#191970" d="M2883.3772,-114.3867C3247.9151,-109.4086 4671.1908,-87.8919 4868.5,-53 4871.2374,-52.5159 4874.0092,-51.9577 4876.7951,-51.3391"/>
<polygon fill="#191970" stroke="#191970" points="2883.1112,-110.8899 2873.1598,-114.5257 2883.2065,-117.8893 2883.1112,-110.8899"/>
</g>
<!-- Node199 -->
<g id="node32" class="node">
<title>Node199</title>
<g id="a_node32"><a xlink:href="../../d1/d61/o2AnalysisTaskExample_8cxx.html" target="_top" xlink:title="/home/travis/build\l/AliceO2Group/AliceO2\l/Framework/TestWorkflows\l/src/o2AnalysisTaskExample.cxx">
<polygon fill="none" stroke="#000000" points="5038,-.5 5038,-52.5 5213,-52.5 5213,-.5 5038,-.5"/>
<text text-anchor="start" x="5046" y="-40.5" font-family="Helvetica,sans-Serif" font-size="10.00" fill="#000000">/home/travis/build</text>
<text text-anchor="start" x="5046" y="-29.5" font-family="Helvetica,sans-Serif" font-size="10.00" fill="#000000">/AliceO2Group/AliceO2</text>
<text text-anchor="start" x="5046" y="-18.5" font-family="Helvetica,sans-Serif" font-size="10.00" fill="#000000">/Framework/TestWorkflows</text>
<text text-anchor="middle" x="5125.5" y="-7.5" font-family="Helvetica,sans-Serif" font-size="10.00" fill="#000000">/src/o2AnalysisTaskExample.cxx</text>
</a>
</g>
</g>
<!-- Node168&#45;&gt;Node199 -->
<g id="edge31" class="edge">
<title>Node168&#45;&gt;Node199</title>
<path fill="none" stroke="#191970" d="M2883.248,-114.336C3264.892,-108.9305 4814.7082,-85.1706 5029.5,-53 5032.2359,-52.5902 5035.0048,-52.1282 5037.7919,-51.6219"/>
<polygon fill="#191970" stroke="#191970" points="2883.054,-110.8383 2873.1045,-114.4793 2883.1529,-117.8376 2883.054,-110.8383"/>
</g>
</g>
</svg>
        <g id="navigator" transform="translate(0 0)" fill="#404254">
                <rect fill="#f2f5e9" fill-opacity="0.5" stroke="#606060" stroke-width=".5" x="0" y="0" width="60" height="60"/>
                <use id="zoomplus" xlink:href="#zoomPlus" x="17" y="9" onmousedown="handleZoom(evt,'in')"/>
                <use id="zoomminus" xlink:href="#zoomMin" x="42" y="9" onmousedown="handleZoom(evt,'out')"/>
                <use id="reset" xlink:href="#resetDef" x="30" y="36" onmousedown="handleReset()"/>
                <g id="arrowUp" xlink:href="#dirArrow" transform="translate(30 24)" onmousedown="handlePan(0,-1)">
                  <use xlink:href="#rim" fill="#404040">
                        <set attributeName="fill" to="#808080" begin="arrowUp.mouseover" end="arrowUp.mouseout"/>
                  </use>
                  <path fill="none" stroke="white" stroke-width="1.5" d="M0,-3.0v7 M-2.5,-0.5L0,-3.0L2.5,-0.5"/>
                </g>
                <g id="arrowRight" xlink:href="#dirArrow" transform="rotate(90) translate(36 -43)" onmousedown="handlePan(1,0)">
                  <use xlink:href="#rim" fill="#404040">
                        <set attributeName="fill" to="#808080" begin="arrowRight.mouseover" end="arrowRight.mouseout"/>
                  </use>
                  <path fill="none" stroke="white" stroke-width="1.5" d="M0,-3.0v7 M-2.5,-0.5L0,-3.0L2.5,-0.5"/>
                </g>
                <g id="arrowDown" xlink:href="#dirArrow" transform="rotate(180) translate(-30 -48)" onmousedown="handlePan(0,1)">
                  <use xlink:href="#rim" fill="#404040">
                        <set attributeName="fill" to="#808080" begin="arrowDown.mouseover" end="arrowDown.mouseout"/>
                  </use>
                  <path fill="none" stroke="white" stroke-width="1.5" d="M0,-3.0v7 M-2.5,-0.5L0,-3.0L2.5,-0.5"/>
                </g>
                <g id="arrowLeft" xlink:href="#dirArrow" transform="rotate(270) translate(-36 17)" onmousedown="handlePan(-1,0)">
                  <use xlink:href="#rim" fill="#404040">
                        <set attributeName="fill" to="#808080" begin="arrowLeft.mouseover" end="arrowLeft.mouseout"/>
                  </use>
                  <path fill="none" stroke="white" stroke-width="1.5" d="M0,-3.0v7 M-2.5,-0.5L0,-3.0L2.5,-0.5"/>
                </g>
        </g>
        <svg viewBox="0 0 15 15" width="100%" height="30px" preserveAspectRatio="xMaxYMin meet">
         <g id="arrow_out" transform="scale(0.3 0.3)">
          <a xlink:href="AnalysisTask_8h__dep__incl_org.svg" target="_base">
           <rect id="button" ry="5" rx="5" y="6" x="6" height="38" width="38"
                fill="#f2f5e9" fill-opacity="0.5" stroke="#606060" stroke-width="1.0"/>
           <path id="arrow"
             d="M 11.500037,31.436501 C 11.940474,20.09759 22.043105,11.32322 32.158766,21.979434 L 37.068811,17.246167 C 37.068811,17.246167 37.088388,32 37.088388,32 L 22.160133,31.978069 C 22.160133,31.978069 26.997745,27.140456 26.997745,27.140456 C 18.528582,18.264221 13.291696,25.230495 11.500037,31.436501 z"
             style="fill:#404040;"/>
          </a>
         </g>
        </svg>
</svg>
