<?xml version="1.0" encoding="UTF-8" standalone="no"?>
<!DOCTYPE svg PUBLIC "-//W3C//DTD SVG 1.1//EN"
 "http://www.w3.org/Graphics/SVG/1.1/DTD/svg11.dtd">
<!-- Generated by graphviz version 2.40.1 (20161225.0304)
 -->
<!-- Title: /home/travis/build/AliceO2Group/AliceO2/Detectors/TOF/reconstruction/include/TOFReconstruction/Decoder.h Pages: 1 -->
<svg width="2532pt" height="575pt"
 viewBox="0.00 0.00 2531.50 575.00" xmlns="http://www.w3.org/2000/svg" xmlns:xlink="http://www.w3.org/1999/xlink">
<g id="graph0" class="graph" transform="scale(1 1) rotate(0) translate(4 571)">
<title>/home/travis/build/AliceO2Group/AliceO2/Detectors/TOF/reconstruction/include/TOFReconstruction/Decoder.h</title>
<!-- Node0 -->
<g id="node1" class="node">
<title>Node0</title>
<polygon fill="#bfbfbf" stroke="#000000" points="384.5,-503.5 384.5,-566.5 545.5,-566.5 545.5,-503.5 384.5,-503.5"/>
<text text-anchor="start" x="392.5" y="-554.5" font-family="Helvetica,sans-Serif" font-size="10.00" fill="#000000">/home/travis/build</text>
<text text-anchor="start" x="392.5" y="-543.5" font-family="Helvetica,sans-Serif" font-size="10.00" fill="#000000">/AliceO2Group/AliceO2</text>
<text text-anchor="start" x="392.5" y="-532.5" font-family="Helvetica,sans-Serif" font-size="10.00" fill="#000000">/Detectors/TOF/reconstruction</text>
<text text-anchor="start" x="392.5" y="-521.5" font-family="Helvetica,sans-Serif" font-size="10.00" fill="#000000">/include/TOFReconstruction</text>
<text text-anchor="middle" x="465" y="-510.5" font-family="Helvetica,sans-Serif" font-size="10.00" fill="#000000">/Decoder.h</text>
</g>
<!-- Node1 -->
<g id="node2" class="node">
<title>Node1</title>
<polygon fill="none" stroke="#bfbfbf" points="6.5,-447.5 6.5,-466.5 61.5,-466.5 61.5,-447.5 6.5,-447.5"/>
<text text-anchor="middle" x="34" y="-454.5" font-family="Helvetica,sans-Serif" font-size="10.00" fill="#000000">fstream</text>
</g>
<!-- Node0&#45;&gt;Node1 -->
<g id="edge1" class="edge">
<title>Node0&#45;&gt;Node1</title>
<path fill="none" stroke="#191970" d="M384.2073,-523.3078C306.5259,-511.5527 185.6811,-491.9227 71.7543,-467.0064"/>
<polygon fill="#191970" stroke="#191970" points="72.3308,-463.5496 61.8118,-464.8144 70.8237,-470.3854 72.3308,-463.5496"/>
</g>
<!-- Node2 -->
<g id="node3" class="node">
<title>Node2</title>
<polygon fill="none" stroke="#bfbfbf" points="80,-447.5 80,-466.5 124,-466.5 124,-447.5 80,-447.5"/>
<text text-anchor="middle" x="102" y="-454.5" font-family="Helvetica,sans-Serif" font-size="10.00" fill="#000000">string</text>
</g>
<!-- Node0&#45;&gt;Node2 -->
<g id="edge2" class="edge">
<title>Node0&#45;&gt;Node2</title>
<path fill="none" stroke="#191970" d="M384.3745,-519.7716C317.9862,-506.8639 221.5403,-487.2656 138,-467 136.7235,-466.6903 135.4237,-466.3671 134.1122,-466.0343"/>
<polygon fill="#191970" stroke="#191970" points="134.5873,-462.5397 124.0247,-463.3655 132.7968,-469.3068 134.5873,-462.5397"/>
</g>
<!-- Node3 -->
<g id="node4" class="node">
<title>Node3</title>
<polygon fill="none" stroke="#bfbfbf" points="196,-73 196,-92 246,-92 246,-73 196,-73"/>
<text text-anchor="middle" x="221" y="-80" font-family="Helvetica,sans-Serif" font-size="10.00" fill="#000000">cstdint</text>
</g>
<!-- Node0&#45;&gt;Node3 -->
<g id="edge3" class="edge">
<title>Node0&#45;&gt;Node3</title>
<path fill="none" stroke="#191970" d="M420.0716,-503.475C343.436,-446.4849 190.5396,-317.9266 137,-165 132.4473,-151.9961 130.2692,-146.0218 137,-134 147.5546,-115.1486 168.1409,-102.3629 186.2913,-94.2463"/>
<polygon fill="#191970" stroke="#191970" points="187.8735,-97.3792 195.769,-90.3144 185.1911,-90.9135 187.8735,-97.3792"/>
</g>
<!-- Node4 -->
<g id="node5" class="node">
<title>Node4</title>
<g id="a_node5"><a xlink:href="../../da/d2e/CompressedDataFormat_8h.html" target="_top" xlink:title="DataFormatsTOF/Compressed\lDataFormat.h">
<polygon fill="none" stroke="#000000" points="0,-380.5 0,-410.5 162,-410.5 162,-380.5 0,-380.5"/>
<text text-anchor="start" x="8" y="-398.5" font-family="Helvetica,sans-Serif" font-size="10.00" fill="#000000">DataFormatsTOF/Compressed</text>
<text text-anchor="middle" x="81" y="-387.5" font-family="Helvetica,sans-Serif" font-size="10.00" fill="#000000">DataFormat.h</text>
</a>
</g>
</g>
<!-- Node0&#45;&gt;Node4 -->
<g id="edge4" class="edge">
<title>Node0&#45;&gt;Node4</title>
<path fill="none" stroke="#191970" d="M384.4848,-525.1781C324.8116,-515.7626 242.6288,-498.216 176,-467 149.2535,-454.4691 122.7276,-433.6092 104.5314,-417.6457"/>
<polygon fill="#191970" stroke="#191970" points="106.5688,-414.7716 96.7862,-410.7031 101.8965,-419.9841 106.5688,-414.7716"/>
</g>
<!-- Node5 -->
<g id="node6" class="node">
<title>Node5</title>
<g id="a_node6"><a xlink:href="../../d4/d54/Geo_8h.html" target="_top" xlink:title="TOFBase/Geo.h">
<polygon fill="none" stroke="#000000" points="808.5,-263 808.5,-282 899.5,-282 899.5,-263 808.5,-263"/>
<text text-anchor="middle" x="854" y="-270" font-family="Helvetica,sans-Serif" font-size="10.00" fill="#000000">TOFBase/Geo.h</text>
</a>
</g>
</g>
<!-- Node0&#45;&gt;Node5 -->
<g id="edge6" class="edge">
<title>Node0&#45;&gt;Node5</title>
<path fill="none" stroke="#191970" d="M511.9225,-503.3364C595.9172,-446.6561 768.9893,-329.8658 831.146,-287.9221"/>
<polygon fill="#191970" stroke="#191970" points="833.483,-290.5674 839.8144,-282.0725 829.5674,-284.765 833.483,-290.5674"/>
</g>
<!-- Node23 -->
<g id="node24" class="node">
<title>Node23</title>
<g id="a_node24"><a xlink:href="../../d4/d78/DataFormats_2Headers_2include_2Headers_2RAWDataHeader_8h.html" target="_top" xlink:title="Headers/RAWDataHeader.h">
<polygon fill="none" stroke="#000000" points="146.5,-140 146.5,-159 295.5,-159 295.5,-140 146.5,-140"/>
<text text-anchor="middle" x="221" y="-147" font-family="Helvetica,sans-Serif" font-size="10.00" fill="#000000">Headers/RAWDataHeader.h</text>
</a>
</g>
</g>
<!-- Node0&#45;&gt;Node23 -->
<g id="edge67" class="edge">
<title>Node0&#45;&gt;Node23</title>
<path fill="none" stroke="#191970" d="M425.7043,-503.2692C398.44,-477.4706 367,-438.4166 367,-395.5 367,-395.5 367,-395.5 367,-272.5 367,-216.1123 302.5164,-180.3478 259.2584,-162.6996"/>
<polygon fill="#191970" stroke="#191970" points="260.4324,-159.4005 249.8449,-159.0052 257.875,-165.9166 260.4324,-159.4005"/>
</g>
<!-- Node25 -->
<g id="node26" class="node">
<title>Node25</title>
<g id="a_node26"><a xlink:href="../../d1/d90/Detectors_2TOF_2base_2include_2TOFBase_2Digit_8h.html" target="_top" xlink:title="TOFBase/Digit.h">
<polygon fill="none" stroke="#000000" points="1108.5,-324.5 1108.5,-343.5 1203.5,-343.5 1203.5,-324.5 1108.5,-324.5"/>
<text text-anchor="middle" x="1156" y="-331.5" font-family="Helvetica,sans-Serif" font-size="10.00" fill="#000000">TOFBase/Digit.h</text>
</a>
</g>
</g>
<!-- Node0&#45;&gt;Node25 -->
<g id="edge34" class="edge">
<title>Node0&#45;&gt;Node25</title>
<path fill="none" stroke="#191970" d="M545.5018,-508.2926C643.9212,-476.0478 815.8179,-421.0419 965,-380 1011.3391,-367.2515 1064.5324,-354.6007 1102.9953,-345.8025"/>
<polygon fill="#191970" stroke="#191970" points="1103.9648,-349.1714 1112.9383,-343.5387 1102.4108,-342.346 1103.9648,-349.1714"/>
</g>
<!-- Node30 -->
<g id="node31" class="node">
<title>Node30</title>
<g id="a_node31"><a xlink:href="../../dd/d77/Strip_8h.html" target="_top" xlink:title="TOFBase/Strip.h">
<polygon fill="none" stroke="#000000" points="2151,-386 2151,-405 2245,-405 2245,-386 2151,-386"/>
<text text-anchor="middle" x="2198" y="-393" font-family="Helvetica,sans-Serif" font-size="10.00" fill="#000000">TOFBase/Strip.h</text>
</a>
</g>
</g>
<!-- Node0&#45;&gt;Node30 -->
<g id="edge43" class="edge">
<title>Node0&#45;&gt;Node30</title>
<path fill="none" stroke="#191970" d="M545.8623,-531.4652C640.1394,-525.4663 799.67,-509.4453 930,-467 948.1471,-461.0899 949.5718,-451.9647 968,-447 1081.8817,-416.3191 1913.8227,-400.2588 2140.884,-396.4161"/>
<polygon fill="#191970" stroke="#191970" points="2140.9801,-399.915 2150.9199,-396.2475 2140.8625,-392.916 2140.9801,-399.915"/>
</g>
<!-- Node44 -->
<g id="node45" class="node">
<title>Node44</title>
<g id="a_node45"><a xlink:href="../../d0/de5/WindowFiller_8h.html" target="_top" xlink:title="TOFBase/WindowFiller.h">
<polygon fill="none" stroke="#000000" points="787.5,-447.5 787.5,-466.5 920.5,-466.5 920.5,-447.5 787.5,-447.5"/>
<text text-anchor="middle" x="854" y="-454.5" font-family="Helvetica,sans-Serif" font-size="10.00" fill="#000000">TOFBase/WindowFiller.h</text>
</a>
</g>
</g>
<!-- Node0&#45;&gt;Node44 -->
<g id="edge62" class="edge">
<title>Node0&#45;&gt;Node44</title>
<path fill="none" stroke="#191970" d="M545.6011,-518.8383C620.5336,-503.8133 730.29,-481.8056 796.6585,-468.4978"/>
<polygon fill="#191970" stroke="#191970" points="797.4092,-471.917 806.526,-466.5192 796.033,-465.0536 797.4092,-471.917"/>
</g>
<!-- Node45 -->
<g id="node46" class="node">
<title>Node45</title>
<polygon fill="none" stroke="#bfbfbf" points="977,-447.5 977,-466.5 1019,-466.5 1019,-447.5 977,-447.5"/>
<text text-anchor="middle" x="998" y="-454.5" font-family="Helvetica,sans-Serif" font-size="10.00" fill="#000000">array</text>
</g>
<!-- Node0&#45;&gt;Node45 -->
<g id="edge66" class="edge">
<title>Node0&#45;&gt;Node45</title>
<path fill="none" stroke="#191970" d="M545.8195,-527.5439C644.8404,-517.5886 817.3969,-497.5783 963,-467 964.2524,-466.737 965.5256,-466.453 966.8086,-466.153"/>
<polygon fill="#191970" stroke="#191970" points="967.8362,-469.5027 976.6495,-463.6226 966.0929,-462.7233 967.8362,-469.5027"/>
</g>
<!-- Node4&#45;&gt;Node3 -->
<g id="edge5" class="edge">
<title>Node4&#45;&gt;Node3</title>
<path fill="none" stroke="#191970" d="M81,-380.3514C81,-357.1367 81,-311.3646 81,-272.5 81,-272.5 81,-272.5 81,-211 81,-175.154 81.1607,-160.7698 105,-134 126.0868,-110.3211 160.1191,-96.9902 185.8808,-89.8556"/>
<polygon fill="#191970" stroke="#191970" points="186.8458,-93.2213 195.6531,-87.3323 185.0956,-86.4437 186.8458,-93.2213"/>
</g>
<!-- Node6 -->
<g id="node7" class="node">
<title>Node6</title>
<polygon fill="none" stroke="#bfbfbf" points="997.5,-73 997.5,-92 1056.5,-92 1056.5,-73 997.5,-73"/>
<text text-anchor="middle" x="1027" y="-80" font-family="Helvetica,sans-Serif" font-size="10.00" fill="#000000">Rtypes.h</text>
</g>
<!-- Node5&#45;&gt;Node6 -->
<g id="edge7" class="edge">
<title>Node5&#45;&gt;Node6</title>
<path fill="none" stroke="#191970" d="M862.8169,-262.8167C890.4587,-232.4587 975.689,-138.8531 1011.2073,-99.8446"/>
<polygon fill="#191970" stroke="#191970" points="1013.8487,-102.1422 1017.9934,-92.3917 1008.6728,-97.4294 1013.8487,-102.1422"/>
</g>
<!-- Node7 -->
<g id="node8" class="node">
<title>Node7</title>
<g id="a_node8"><a xlink:href="../../d4/dc6/LHCConstants_8h.html" target="_top" xlink:title="Header to collect LHC related constants. ">
<polygon fill="none" stroke="#000000" points="789,-73 789,-92 979,-92 979,-73 789,-73"/>
<text text-anchor="middle" x="884" y="-80" font-family="Helvetica,sans-Serif" font-size="10.00" fill="#000000">CommonConstants/LHCConstants.h</text>
</a>
</g>
</g>
<!-- Node5&#45;&gt;Node7 -->
<g id="edge8" class="edge">
<title>Node5&#45;&gt;Node7</title>
<path fill="none" stroke="#191970" d="M856.8293,-262.822C862.1694,-244.1122 873.6743,-201.5957 879,-165 882.0893,-143.7716 883.2756,-119.2017 883.728,-102.4327"/>
<polygon fill="#191970" stroke="#191970" points="887.2318,-102.2766 883.9382,-92.2067 880.2333,-102.1326 887.2318,-102.2766"/>
</g>
<!-- Node8 -->
<g id="node9" class="node">
<title>Node8</title>
<g id="a_node9"><a xlink:href="../../d1/dec/HBFUtils_8h.html" target="_top" xlink:title="DetectorsRaw/HBFUtils.h">
<polygon fill="none" stroke="#000000" points="534.5,-201.5 534.5,-220.5 673.5,-220.5 673.5,-201.5 534.5,-201.5"/>
<text text-anchor="middle" x="604" y="-208.5" font-family="Helvetica,sans-Serif" font-size="10.00" fill="#000000">DetectorsRaw/HBFUtils.h</text>
</a>
</g>
</g>
<!-- Node5&#45;&gt;Node8 -->
<g id="edge9" class="edge">
<title>Node5&#45;&gt;Node8</title>
<path fill="none" stroke="#191970" d="M815.2118,-262.9581C771.4216,-252.1857 700.1091,-234.6428 652.6304,-222.9631"/>
<polygon fill="#191970" stroke="#191970" points="653.4258,-219.5545 642.8792,-220.5643 651.7536,-226.3518 653.4258,-219.5545"/>
</g>
<!-- Node8&#45;&gt;Node6 -->
<g id="edge10" class="edge">
<title>Node8&#45;&gt;Node6</title>
<path fill="none" stroke="#191970" d="M673.7242,-205.9713C730.3173,-200.3301 811.5057,-188.6579 879,-165 926.6381,-148.3021 976.9112,-116.9205 1004.8816,-98.0436"/>
<polygon fill="#191970" stroke="#191970" points="1007.2013,-100.6973 1013.4762,-92.1605 1003.2473,-94.9209 1007.2013,-100.6973"/>
</g>
<!-- Node9 -->
<g id="node10" class="node">
<title>Node9</title>
<g id="a_node10"><a xlink:href="../../db/d2c/ConfigurableParam_8h.html" target="_top" xlink:title="CommonUtils/Configurable\lParam.h">
<polygon fill="none" stroke="#000000" points="290,-67.5 290,-97.5 438,-97.5 438,-67.5 290,-67.5"/>
<text text-anchor="start" x="298" y="-85.5" font-family="Helvetica,sans-Serif" font-size="10.00" fill="#000000">CommonUtils/Configurable</text>
<text text-anchor="middle" x="364" y="-74.5" font-family="Helvetica,sans-Serif" font-size="10.00" fill="#000000">Param.h</text>
</a>
</g>
</g>
<!-- Node8&#45;&gt;Node9 -->
<g id="edge11" class="edge">
<title>Node8&#45;&gt;Node9</title>
<path fill="none" stroke="#191970" d="M584.3017,-201.3443C567.1084,-192.6242 541.7356,-179.0399 521,-165 502.952,-152.7799 501.6228,-145.3248 483,-134 461.9727,-121.213 437.2032,-109.9554 415.7222,-101.2529"/>
<polygon fill="#191970" stroke="#191970" points="417.0104,-97.9986 406.4247,-97.5606 414.4268,-104.5044 417.0104,-97.9986"/>
</g>
<!-- Node16 -->
<g id="node17" class="node">
<title>Node16</title>
<g id="a_node17"><a xlink:href="../../da/d6b/ConfigurableParamHelper_8h.html" target="_top" xlink:title="CommonUtils/Configurable\lParamHelper.h">
<polygon fill="none" stroke="#000000" points="530,-134.5 530,-164.5 678,-164.5 678,-134.5 530,-134.5"/>
<text text-anchor="start" x="538" y="-152.5" font-family="Helvetica,sans-Serif" font-size="10.00" fill="#000000">CommonUtils/Configurable</text>
<text text-anchor="middle" x="604" y="-141.5" font-family="Helvetica,sans-Serif" font-size="10.00" fill="#000000">ParamHelper.h</text>
</a>
</g>
</g>
<!-- Node8&#45;&gt;Node16 -->
<g id="edge18" class="edge">
<title>Node8&#45;&gt;Node16</title>
<path fill="none" stroke="#191970" d="M604,-201.3906C604,-194.2234 604,-184.0862 604,-174.671"/>
<polygon fill="#191970" stroke="#191970" points="607.5001,-174.5446 604,-164.5446 600.5001,-174.5446 607.5001,-174.5446"/>
</g>
<!-- Node20 -->
<g id="node21" class="node">
<title>Node20</title>
<g id="a_node21"><a xlink:href="../../d9/d80/InteractionRecord_8h.html" target="_top" xlink:title="CommonDataFormat/Interaction\lRecord.h">
<polygon fill="none" stroke="#000000" points="696,-134.5 696,-164.5 870,-164.5 870,-134.5 696,-134.5"/>
<text text-anchor="start" x="704" y="-152.5" font-family="Helvetica,sans-Serif" font-size="10.00" fill="#000000">CommonDataFormat/Interaction</text>
<text text-anchor="middle" x="783" y="-141.5" font-family="Helvetica,sans-Serif" font-size="10.00" fill="#000000">Record.h</text>
</a>
</g>
</g>
<!-- Node8&#45;&gt;Node20 -->
<g id="edge24" class="edge">
<title>Node8&#45;&gt;Node20</title>
<path fill="none" stroke="#191970" d="M631.9688,-201.3906C657.9887,-192.4508 697.457,-178.8905 729.5214,-167.8739"/>
<polygon fill="#191970" stroke="#191970" points="730.8916,-171.1041 739.2117,-164.5446 728.617,-164.4839 730.8916,-171.1041"/>
</g>
<!-- Node8&#45;&gt;Node23 -->
<g id="edge30" class="edge">
<title>Node8&#45;&gt;Node23</title>
<path fill="none" stroke="#191970" d="M538.2892,-201.466C477.6475,-192.531 385.1371,-178.5549 305,-165 297.2893,-163.6958 289.1909,-162.2711 281.1917,-160.8311"/>
<polygon fill="#191970" stroke="#191970" points="281.6137,-157.3505 271.1491,-159.0066 280.3624,-164.2378 281.6137,-157.3505"/>
</g>
<!-- Node24 -->
<g id="node25" class="node">
<title>Node24</title>
<g id="a_node25"><a xlink:href="../../de/da4/Triggers_8h.html" target="_top" xlink:title="Definition of the 32 Central Trigger System (CTS) Trigger Types defined in https://twiki.cern.ch/twiki/pub/ALICE/NoteForFEDevelopers/CTS_CRU_FE_interface.pdf. ">
<polygon fill="none" stroke="#000000" points="314,-140 314,-159 474,-159 474,-140 314,-140"/>
<text text-anchor="middle" x="394" y="-147" font-family="Helvetica,sans-Serif" font-size="10.00" fill="#000000">CommonConstants/Triggers.h</text>
</a>
</g>
</g>
<!-- Node8&#45;&gt;Node24 -->
<g id="edge32" class="edge">
<title>Node8&#45;&gt;Node24</title>
<path fill="none" stroke="#191970" d="M571.1875,-201.3906C534.8178,-190.7395 476.0522,-173.5296 436.2637,-161.8772"/>
<polygon fill="#191970" stroke="#191970" points="437.1627,-158.4936 426.5821,-159.0419 435.1953,-165.2114 437.1627,-158.4936"/>
</g>
<!-- Node10 -->
<g id="node11" class="node">
<title>Node10</title>
<polygon fill="none" stroke="#bfbfbf" points="965.5,-6 965.5,-25 1012.5,-25 1012.5,-6 965.5,-6"/>
<text text-anchor="middle" x="989" y="-13" font-family="Helvetica,sans-Serif" font-size="10.00" fill="#000000">vector</text>
</g>
<!-- Node9&#45;&gt;Node10 -->
<g id="edge12" class="edge">
<title>Node9&#45;&gt;Node10</title>
<path fill="none" stroke="#191970" d="M438.1588,-72.785C453.9416,-70.7996 470.5154,-68.7761 486,-67 662.5258,-46.7524 874.3603,-26.3274 955.311,-18.6635"/>
<polygon fill="#191970" stroke="#191970" points="955.7815,-22.1347 965.4079,-17.7096 955.123,-15.1658 955.7815,-22.1347"/>
</g>
<!-- Node11 -->
<g id="node12" class="node">
<title>Node11</title>
<polygon fill="none" stroke="#bfbfbf" points="1741,-6 1741,-25 1779,-25 1779,-6 1741,-6"/>
<text text-anchor="middle" x="1760" y="-13" font-family="Helvetica,sans-Serif" font-size="10.00" fill="#000000">map</text>
</g>
<!-- Node9&#45;&gt;Node11 -->
<g id="edge13" class="edge">
<title>Node9&#45;&gt;Node11</title>
<path fill="none" stroke="#191970" d="M438.0862,-72.0524C453.8739,-70.1163 470.4681,-68.2982 486,-67 982.6687,-25.488 1591.1648,-17.1593 1730.5981,-15.7549"/>
<polygon fill="#191970" stroke="#191970" points="1730.917,-19.252 1740.8826,-15.6555 1730.8492,-12.2524 1730.917,-19.252"/>
</g>
<!-- Node12 -->
<g id="node13" class="node">
<title>Node12</title>
<polygon fill="none" stroke="#bfbfbf" points="196.5,-6 196.5,-25 289.5,-25 289.5,-6 196.5,-6"/>
<text text-anchor="middle" x="243" y="-13" font-family="Helvetica,sans-Serif" font-size="10.00" fill="#000000">unordered_map</text>
</g>
<!-- Node9&#45;&gt;Node12 -->
<g id="edge14" class="edge">
<title>Node9&#45;&gt;Node12</title>
<path fill="none" stroke="#191970" d="M336.8452,-67.4639C316.6344,-56.2728 289.2036,-41.0838 269.2201,-30.0186"/>
<polygon fill="#191970" stroke="#191970" points="270.7883,-26.8862 260.3444,-25.1039 267.3973,-33.0101 270.7883,-26.8862"/>
</g>
<!-- Node13 -->
<g id="node14" class="node">
<title>Node13</title>
<polygon fill="none" stroke="#bfbfbf" points="307.5,-.5 307.5,-30.5 420.5,-30.5 420.5,-.5 307.5,-.5"/>
<text text-anchor="start" x="315.5" y="-18.5" font-family="Helvetica,sans-Serif" font-size="10.00" fill="#000000">boost/property_tree</text>
<text text-anchor="middle" x="364" y="-7.5" font-family="Helvetica,sans-Serif" font-size="10.00" fill="#000000">/ptree.hpp</text>
</g>
<!-- Node9&#45;&gt;Node13 -->
<g id="edge15" class="edge">
<title>Node9&#45;&gt;Node13</title>
<path fill="none" stroke="#191970" d="M364,-67.2967C364,-59.5013 364,-49.7991 364,-40.9064"/>
<polygon fill="#191970" stroke="#191970" points="367.5001,-40.6431 364,-30.6432 360.5001,-40.6432 367.5001,-40.6431"/>
</g>
<!-- Node14 -->
<g id="node15" class="node">
<title>Node14</title>
<polygon fill="none" stroke="#bfbfbf" points="438.5,-6 438.5,-25 495.5,-25 495.5,-6 438.5,-6"/>
<text text-anchor="middle" x="467" y="-13" font-family="Helvetica,sans-Serif" font-size="10.00" fill="#000000">typeinfo</text>
</g>
<!-- Node9&#45;&gt;Node14 -->
<g id="edge16" class="edge">
<title>Node9&#45;&gt;Node14</title>
<path fill="none" stroke="#191970" d="M387.1152,-67.4639C403.9302,-56.526 426.6163,-41.769 443.5162,-30.7759"/>
<polygon fill="#191970" stroke="#191970" points="445.7616,-33.4906 452.2358,-25.1039 441.9447,-27.6228 445.7616,-33.4906"/>
</g>
<!-- Node15 -->
<g id="node16" class="node">
<title>Node15</title>
<polygon fill="none" stroke="#bfbfbf" points="118,-6 118,-25 178,-25 178,-6 118,-6"/>
<text text-anchor="middle" x="148" y="-13" font-family="Helvetica,sans-Serif" font-size="10.00" fill="#000000">iostream</text>
</g>
<!-- Node9&#45;&gt;Node15 -->
<g id="edge17" class="edge">
<title>Node9&#45;&gt;Node15</title>
<path fill="none" stroke="#191970" d="M306.9725,-67.3925C272.0718,-57.7804 226.6526,-44.6139 187,-31 184.8724,-30.2695 182.6906,-29.4898 180.4989,-28.6833"/>
<polygon fill="#191970" stroke="#191970" points="181.5522,-25.3392 170.9614,-25.046 179.0578,-31.8797 181.5522,-25.3392"/>
</g>
<!-- Node16&#45;&gt;Node9 -->
<g id="edge19" class="edge">
<title>Node16&#45;&gt;Node9</title>
<path fill="none" stroke="#191970" d="M550.1393,-134.4639C513.9825,-124.3701 466.1756,-111.024 428.065,-100.3848"/>
<polygon fill="#191970" stroke="#191970" points="428.6684,-96.9195 418.0956,-97.6017 426.7862,-103.6617 428.6684,-96.9195"/>
</g>
<!-- Node16&#45;&gt;Node14 -->
<g id="edge22" class="edge">
<title>Node16&#45;&gt;Node14</title>
<path fill="none" stroke="#191970" d="M541.5469,-134.4785C521.1937,-126.7031 500.2051,-115.1129 486,-98 471.3069,-80.2992 467.4781,-53.4043 466.7212,-35.1742"/>
<polygon fill="#191970" stroke="#191970" points="470.2199,-35.0517 466.5772,-25.1027 463.2206,-35.1518 470.2199,-35.0517"/>
</g>
<!-- Node17 -->
<g id="node18" class="node">
<title>Node17</title>
<polygon fill="none" stroke="#bfbfbf" points="494.5,-73 494.5,-92 551.5,-92 551.5,-73 494.5,-73"/>
<text text-anchor="middle" x="523" y="-80" font-family="Helvetica,sans-Serif" font-size="10.00" fill="#000000">TClass.h</text>
</g>
<!-- Node16&#45;&gt;Node17 -->
<g id="edge20" class="edge">
<title>Node16&#45;&gt;Node17</title>
<path fill="none" stroke="#191970" d="M585.6198,-134.2967C572.7546,-123.6551 555.5937,-109.4602 542.4904,-98.6217"/>
<polygon fill="#191970" stroke="#191970" points="544.4879,-95.7318 534.5515,-92.055 540.0263,-101.1257 544.4879,-95.7318"/>
</g>
<!-- Node18 -->
<g id="node19" class="node">
<title>Node18</title>
<polygon fill="none" stroke="#bfbfbf" points="569.5,-73 569.5,-92 638.5,-92 638.5,-73 569.5,-73"/>
<text text-anchor="middle" x="604" y="-80" font-family="Helvetica,sans-Serif" font-size="10.00" fill="#000000">type_traits</text>
</g>
<!-- Node16&#45;&gt;Node18 -->
<g id="edge21" class="edge">
<title>Node16&#45;&gt;Node18</title>
<path fill="none" stroke="#191970" d="M604,-134.2967C604,-124.7699 604,-112.3954 604,-102.1306"/>
<polygon fill="#191970" stroke="#191970" points="607.5001,-102.0549 604,-92.055 600.5001,-102.055 607.5001,-102.0549"/>
</g>
<!-- Node19 -->
<g id="node20" class="node">
<title>Node19</title>
<polygon fill="none" stroke="#bfbfbf" points="657,-73 657,-92 705,-92 705,-73 657,-73"/>
<text text-anchor="middle" x="681" y="-80" font-family="Helvetica,sans-Serif" font-size="10.00" fill="#000000">TFile.h</text>
</g>
<!-- Node16&#45;&gt;Node19 -->
<g id="edge23" class="edge">
<title>Node16&#45;&gt;Node19</title>
<path fill="none" stroke="#191970" d="M621.4725,-134.2967C633.7024,-123.6551 650.0159,-109.4602 662.4721,-98.6217"/>
<polygon fill="#191970" stroke="#191970" points="664.7724,-101.2596 670.0189,-92.055 660.1775,-95.9788 664.7724,-101.2596"/>
</g>
<!-- Node20&#45;&gt;Node3 -->
<g id="edge28" class="edge">
<title>Node20&#45;&gt;Node3</title>
<path fill="none" stroke="#191970" d="M695.9181,-135.1608C692.9111,-134.7547 689.9317,-134.3662 687,-134 507.2443,-111.5483 459.5219,-128.7589 281,-98 272.8742,-96.6 264.2362,-94.649 256.1209,-92.6024"/>
<polygon fill="#191970" stroke="#191970" points="256.7604,-89.1516 246.199,-89.9933 254.9801,-95.9215 256.7604,-89.1516"/>
</g>
<!-- Node20&#45;&gt;Node6 -->
<g id="edge25" class="edge">
<title>Node20&#45;&gt;Node6</title>
<path fill="none" stroke="#191970" d="M852.4449,-134.462C892.4499,-125.2022 943.4742,-112.3714 988,-98 990.2816,-97.2636 992.6211,-96.4604 994.9658,-95.6197"/>
<polygon fill="#191970" stroke="#191970" points="996.3753,-98.8289 1004.4995,-92.0282 993.9076,-92.2783 996.3753,-98.8289"/>
</g>
<!-- Node20&#45;&gt;Node7 -->
<g id="edge29" class="edge">
<title>Node20&#45;&gt;Node7</title>
<path fill="none" stroke="#191970" d="M805.6664,-134.4639C822.1549,-123.526 844.4004,-108.769 860.9722,-97.7759"/>
<polygon fill="#191970" stroke="#191970" points="863.1241,-100.5485 869.5224,-92.1039 859.2545,-94.7153 863.1241,-100.5485"/>
</g>
<!-- Node21 -->
<g id="node22" class="node">
<title>Node21</title>
<polygon fill="none" stroke="#bfbfbf" points="1074.5,-73 1074.5,-92 1123.5,-92 1123.5,-73 1074.5,-73"/>
<text text-anchor="middle" x="1099" y="-80" font-family="Helvetica,sans-Serif" font-size="10.00" fill="#000000">iosfwd</text>
</g>
<!-- Node20&#45;&gt;Node21 -->
<g id="edge26" class="edge">
<title>Node20&#45;&gt;Node21</title>
<path fill="none" stroke="#191970" d="M870.1833,-139.5812C926.8773,-131.6877 1001.906,-118.5 1066,-98 1067.8539,-97.4071 1069.7385,-96.7329 1071.6197,-96.0057"/>
<polygon fill="#191970" stroke="#191970" points="1073.0256,-99.2111 1080.8399,-92.0565 1070.2695,-92.7765 1073.0256,-99.2111"/>
</g>
<!-- Node22 -->
<g id="node23" class="node">
<title>Node22</title>
<polygon fill="none" stroke="#bfbfbf" points="723.5,-73 723.5,-92 770.5,-92 770.5,-73 723.5,-73"/>
<text text-anchor="middle" x="747" y="-80" font-family="Helvetica,sans-Serif" font-size="10.00" fill="#000000">cmath</text>
</g>
<!-- Node20&#45;&gt;Node22 -->
<g id="edge27" class="edge">
<title>Node20&#45;&gt;Node22</title>
<path fill="none" stroke="#191970" d="M774.831,-134.2967C769.5488,-124.4658 762.6372,-111.6026 757.0233,-101.1545"/>
<polygon fill="#191970" stroke="#191970" points="759.9504,-99.2073 752.134,-92.055 753.7841,-102.5205 759.9504,-99.2073"/>
</g>
<!-- Node23&#45;&gt;Node3 -->
<g id="edge31" class="edge">
<title>Node23&#45;&gt;Node3</title>
<path fill="none" stroke="#191970" d="M221,-139.9005C221,-130.149 221,-114.7597 221,-102.3695"/>
<polygon fill="#191970" stroke="#191970" points="224.5001,-102.0816 221,-92.0817 217.5001,-102.0817 224.5001,-102.0816"/>
</g>
<!-- Node24&#45;&gt;Node3 -->
<g id="edge33" class="edge">
<title>Node24&#45;&gt;Node3</title>
<path fill="none" stroke="#191970" d="M369.2133,-139.9005C339.2808,-128.3082 288.7761,-108.7486 255.1645,-95.7313"/>
<polygon fill="#191970" stroke="#191970" points="256.3298,-92.4294 245.7407,-92.0817 253.8018,-98.957 256.3298,-92.4294"/>
</g>
<!-- Node25&#45;&gt;Node5 -->
<g id="edge37" class="edge">
<title>Node25&#45;&gt;Node5</title>
<path fill="none" stroke="#191970" d="M1108.3828,-326.4481C1058.4453,-318.2214 977.8119,-304.069 909,-288 904.6437,-286.9827 900.1155,-285.8429 895.6112,-284.6552"/>
<polygon fill="#191970" stroke="#191970" points="896.4325,-281.2515 885.8647,-282.0079 894.5976,-288.0068 896.4325,-281.2515"/>
</g>
<!-- Node25&#45;&gt;Node6 -->
<g id="edge36" class="edge">
<title>Node25&#45;&gt;Node6</title>
<path fill="none" stroke="#191970" d="M1156.528,-324.4198C1157.387,-301.7491 1157.2838,-243.5262 1137,-201 1116.2627,-157.5231 1073.9006,-119.0877 1048.2226,-98.4703"/>
<polygon fill="#191970" stroke="#191970" points="1050.2364,-95.6016 1040.2093,-92.1799 1045.9141,-101.1077 1050.2364,-95.6016"/>
</g>
<!-- Node25&#45;&gt;Node21 -->
<g id="edge35" class="edge">
<title>Node25&#45;&gt;Node21</title>
<path fill="none" stroke="#191970" d="M1160.0697,-324.132C1171.9235,-293.7548 1203.5261,-199.7354 1170,-134 1161.6924,-117.7111 1145.5573,-105.3724 1130.7656,-96.8618"/>
<polygon fill="#191970" stroke="#191970" points="1132.2777,-93.7012 1121.8113,-92.0564 1128.9676,-99.8691 1132.2777,-93.7012"/>
</g>
<!-- Node26 -->
<g id="node27" class="node">
<title>Node26</title>
<g id="a_node27"><a xlink:href="../../de/d64/RangeReference_8h.html" target="_top" xlink:title="Class to refer to the 1st entry and N elements of some group in the continuous container. ">
<polygon fill="none" stroke="#000000" points="918,-263 918,-282 1128,-282 1128,-263 918,-263"/>
<text text-anchor="middle" x="1023" y="-270" font-family="Helvetica,sans-Serif" font-size="10.00" fill="#000000">CommonDataFormat/RangeReference.h</text>
</a>
</g>
</g>
<!-- Node25&#45;&gt;Node26 -->
<g id="edge38" class="edge">
<title>Node25&#45;&gt;Node26</title>
<path fill="none" stroke="#191970" d="M1135.2188,-324.3906C1113.1606,-314.1908 1078.095,-297.9763 1053.0331,-286.3875"/>
<polygon fill="#191970" stroke="#191970" points="1054.1809,-283.0622 1043.6353,-282.0419 1051.2429,-289.4158 1054.1809,-283.0622"/>
</g>
<!-- Node28 -->
<g id="node29" class="node">
<title>Node28</title>
<polygon fill="none" stroke="#bfbfbf" points="1222.5,-263 1222.5,-282 1279.5,-282 1279.5,-263 1222.5,-263"/>
<text text-anchor="middle" x="1251" y="-270" font-family="Helvetica,sans-Serif" font-size="10.00" fill="#000000">gsl/span</text>
</g>
<!-- Node25&#45;&gt;Node28 -->
<g id="edge41" class="edge">
<title>Node25&#45;&gt;Node28</title>
<path fill="none" stroke="#191970" d="M1170.8438,-324.3906C1186.0418,-314.5519 1209.8848,-299.1167 1227.6206,-287.6351"/>
<polygon fill="#191970" stroke="#191970" points="1229.768,-290.4144 1236.2605,-282.0419 1225.9639,-284.5382 1229.768,-290.4144"/>
</g>
<!-- Node29 -->
<g id="node30" class="node">
<title>Node29</title>
<polygon fill="none" stroke="#bfbfbf" points="1297.5,-257.5 1297.5,-287.5 1404.5,-287.5 1404.5,-257.5 1297.5,-257.5"/>
<text text-anchor="start" x="1305.5" y="-275.5" font-family="Helvetica,sans-Serif" font-size="10.00" fill="#000000">boost/serialization</text>
<text text-anchor="middle" x="1351" y="-264.5" font-family="Helvetica,sans-Serif" font-size="10.00" fill="#000000">/base_object.hpp</text>
</g>
<!-- Node25&#45;&gt;Node29 -->
<g id="edge42" class="edge">
<title>Node25&#45;&gt;Node29</title>
<path fill="none" stroke="#191970" d="M1186.4688,-324.3906C1215.0589,-315.3737 1258.553,-301.6563 1293.6428,-290.5896"/>
<polygon fill="#191970" stroke="#191970" points="1294.8134,-293.8904 1303.2976,-287.5446 1292.7079,-287.2145 1294.8134,-293.8904"/>
</g>
<!-- Node27 -->
<g id="node28" class="node">
<title>Node27</title>
<g id="a_node28"><a xlink:href="../../d2/d45/GPUCommonRtypes_8h.html" target="_top" xlink:title="GPUCommonRtypes.h">
<polygon fill="none" stroke="#000000" points="1002.5,-201.5 1002.5,-220.5 1127.5,-220.5 1127.5,-201.5 1002.5,-201.5"/>
<text text-anchor="middle" x="1065" y="-208.5" font-family="Helvetica,sans-Serif" font-size="10.00" fill="#000000">GPUCommonRtypes.h</text>
</a>
</g>
</g>
<!-- Node26&#45;&gt;Node27 -->
<g id="edge39" class="edge">
<title>Node26&#45;&gt;Node27</title>
<path fill="none" stroke="#191970" d="M1029.5625,-262.8906C1035.6908,-253.917 1044.9985,-240.2879 1052.5372,-229.2491"/>
<polygon fill="#191970" stroke="#191970" points="1055.5956,-230.9768 1058.345,-220.7449 1049.815,-227.029 1055.5956,-230.9768"/>
</g>
<!-- Node27&#45;&gt;Node6 -->
<g id="edge40" class="edge">
<title>Node27&#45;&gt;Node6</title>
<path fill="none" stroke="#191970" d="M1062.1438,-201.3416C1055.9268,-180.3184 1041.0644,-130.0598 1032.7972,-102.1038"/>
<polygon fill="#191970" stroke="#191970" points="1036.0815,-100.8674 1029.8893,-92.2705 1029.3689,-102.8525 1036.0815,-100.8674"/>
</g>
<!-- Node30&#45;&gt;Node10 -->
<g id="edge49" class="edge">
<title>Node30&#45;&gt;Node10</title>
<path fill="none" stroke="#191970" d="M2198,-385.9309C2198,-365.238 2198,-314.7813 2198,-272.5 2198,-272.5 2198,-272.5 2198,-149.5 2198,-111.8735 2207.927,-91.0621 2179,-67 2156.1441,-47.988 1213.5868,-21.5623 1022.5584,-16.3957"/>
<polygon fill="#191970" stroke="#191970" points="1022.6318,-12.8965 1012.5411,-16.1257 1022.4431,-19.894 1022.6318,-12.8965"/>
</g>
<!-- Node30&#45;&gt;Node11 -->
<g id="edge47" class="edge">
<title>Node30&#45;&gt;Node11</title>
<path fill="none" stroke="#191970" d="M2203.1248,-385.9277C2213.4972,-365.6328 2236,-316.5296 2236,-272.5 2236,-272.5 2236,-272.5 2236,-149.5 2236,-111.3133 2241.1926,-91.6173 2212,-67 2179.6248,-39.6989 1884.2155,-21.9943 1789.2526,-16.97"/>
<polygon fill="#191970" stroke="#191970" points="1789.3614,-13.471 1779.1928,-16.4457 1788.997,-20.4615 1789.3614,-13.471"/>
</g>
<!-- Node30&#45;&gt;Node25 -->
<g id="edge44" class="edge">
<title>Node30&#45;&gt;Node25</title>
<path fill="none" stroke="#191970" d="M2150.862,-392.7179C1980.8531,-382.6837 1399.4747,-348.3701 1213.6222,-337.4009"/>
<polygon fill="#191970" stroke="#191970" points="1213.6997,-333.8995 1203.5109,-336.8041 1213.2872,-340.8873 1213.6997,-333.8995"/>
</g>
<!-- Node31 -->
<g id="node32" class="node">
<title>Node31</title>
<polygon fill="none" stroke="#bfbfbf" points="2264.5,-324.5 2264.5,-343.5 2327.5,-343.5 2327.5,-324.5 2264.5,-324.5"/>
<text text-anchor="middle" x="2296" y="-331.5" font-family="Helvetica,sans-Serif" font-size="10.00" fill="#000000">TObject.h</text>
</g>
<!-- Node30&#45;&gt;Node31 -->
<g id="edge45" class="edge">
<title>Node30&#45;&gt;Node31</title>
<path fill="none" stroke="#191970" d="M2213.3125,-385.8906C2229.0624,-376.0067 2253.8123,-360.4749 2272.1337,-348.9773"/>
<polygon fill="#191970" stroke="#191970" points="2274.1852,-351.8221 2280.795,-343.5419 2270.4643,-345.8929 2274.1852,-351.8221"/>
</g>
<!-- Node32 -->
<g id="node33" class="node">
<title>Node32</title>
<polygon fill="none" stroke="#bfbfbf" points="2345.5,-324.5 2345.5,-343.5 2410.5,-343.5 2410.5,-324.5 2345.5,-324.5"/>
<text text-anchor="middle" x="2378" y="-331.5" font-family="Helvetica,sans-Serif" font-size="10.00" fill="#000000">exception</text>
</g>
<!-- Node30&#45;&gt;Node32 -->
<g id="edge46" class="edge">
<title>Node30&#45;&gt;Node32</title>
<path fill="none" stroke="#191970" d="M2226.125,-385.8906C2256.9028,-375.3749 2306.3921,-358.466 2340.4655,-346.8243"/>
<polygon fill="#191970" stroke="#191970" points="2341.7412,-350.0871 2350.0725,-343.5419 2339.478,-343.4631 2341.7412,-350.0871"/>
</g>
<!-- Node33 -->
<g id="node34" class="node">
<title>Node33</title>
<polygon fill="none" stroke="#bfbfbf" points="2429,-324.5 2429,-343.5 2485,-343.5 2485,-324.5 2429,-324.5"/>
<text text-anchor="middle" x="2457" y="-331.5" font-family="Helvetica,sans-Serif" font-size="10.00" fill="#000000">sstream</text>
</g>
<!-- Node30&#45;&gt;Node33 -->
<g id="edge48" class="edge">
<title>Node30&#45;&gt;Node33</title>
<path fill="none" stroke="#191970" d="M2241.0839,-385.9881C2283.7925,-376.4514 2351.3229,-361.0838 2418.7942,-344.2435"/>
<polygon fill="#191970" stroke="#191970" points="2419.8969,-347.5754 2428.7456,-341.7487 2418.1947,-340.7855 2419.8969,-347.5754"/>
</g>
<!-- Node34 -->
<g id="node35" class="node">
<title>Node34</title>
<g id="a_node35"><a xlink:href="../../dd/d76/Cartesian3D_8h.html" target="_top" xlink:title="MathUtils/Cartesian3D.h">
<polygon fill="none" stroke="#000000" points="1598.5,-140 1598.5,-159 1733.5,-159 1733.5,-140 1598.5,-140"/>
<text text-anchor="middle" x="1666" y="-147" font-family="Helvetica,sans-Serif" font-size="10.00" fill="#000000">MathUtils/Cartesian3D.h</text>
</a>
</g>
</g>
<!-- Node30&#45;&gt;Node34 -->
<g id="edge50" class="edge">
<title>Node30&#45;&gt;Node34</title>
<path fill="none" stroke="#191970" d="M2177.145,-385.8565C2094.867,-347.8107 1792.5714,-208.0274 1695.9236,-163.3369"/>
<polygon fill="#191970" stroke="#191970" points="1697.2565,-160.0971 1686.7109,-159.0768 1694.3185,-166.4508 1697.2565,-160.0971"/>
</g>
<!-- Node34&#45;&gt;Node6 -->
<g id="edge56" class="edge">
<title>Node34&#45;&gt;Node6</title>
<path fill="none" stroke="#191970" d="M1598.4894,-146.1939C1463.6885,-139.184 1165.5874,-121.5236 1066,-98 1063.1415,-97.3248 1060.2162,-96.4779 1057.316,-95.5301"/>
<polygon fill="#191970" stroke="#191970" points="1058.2798,-92.1562 1047.6858,-92.0219 1055.8837,-98.7334 1058.2798,-92.1562"/>
</g>
<!-- Node34&#45;&gt;Node21 -->
<g id="edge58" class="edge">
<title>Node34&#45;&gt;Node21</title>
<path fill="none" stroke="#191970" d="M1598.4004,-145.7595C1475.2446,-138.4827 1219.0885,-121.0886 1133,-98 1130.8109,-97.4129 1128.586,-96.6973 1126.376,-95.8993"/>
<polygon fill="#191970" stroke="#191970" points="1127.5177,-92.5845 1116.9381,-92.0157 1124.8539,-99.0578 1127.5177,-92.5845"/>
</g>
<!-- Node35 -->
<g id="node36" class="node">
<title>Node35</title>
<polygon fill="none" stroke="#bfbfbf" points="1798,-67.5 1798,-97.5 1962,-97.5 1962,-67.5 1798,-67.5"/>
<text text-anchor="start" x="1806" y="-85.5" font-family="Helvetica,sans-Serif" font-size="10.00" fill="#000000">Math/GenVector/Displacement</text>
<text text-anchor="middle" x="1880" y="-74.5" font-family="Helvetica,sans-Serif" font-size="10.00" fill="#000000">Vector3D.h</text>
</g>
<!-- Node34&#45;&gt;Node35 -->
<g id="edge51" class="edge">
<title>Node34&#45;&gt;Node35</title>
<path fill="none" stroke="#191970" d="M1696.661,-139.9005C1729.3322,-129.6717 1781.8166,-113.2397 1822.2754,-100.5727"/>
<polygon fill="#191970" stroke="#191970" points="1823.5226,-103.8498 1832.02,-97.5218 1821.4311,-97.1695 1823.5226,-103.8498"/>
</g>
<!-- Node36 -->
<g id="node37" class="node">
<title>Node36</title>
<polygon fill="none" stroke="#bfbfbf" points="1980.5,-73 1980.5,-92 2169.5,-92 2169.5,-73 1980.5,-73"/>
<text text-anchor="middle" x="2075" y="-80" font-family="Helvetica,sans-Serif" font-size="10.00" fill="#000000">Math/GenVector/PositionVector3D.h</text>
</g>
<!-- Node34&#45;&gt;Node36 -->
<g id="edge52" class="edge">
<title>Node34&#45;&gt;Node36</title>
<path fill="none" stroke="#191970" d="M1724.1654,-139.9717C1798.5661,-127.7838 1927.2341,-106.7062 2006.3563,-93.7448"/>
<polygon fill="#191970" stroke="#191970" points="2007.4019,-97.1203 2016.7045,-92.0496 2006.2702,-90.2123 2007.4019,-97.1203"/>
</g>
<!-- Node37 -->
<g id="node38" class="node">
<title>Node37</title>
<polygon fill="none" stroke="#bfbfbf" points="1142,-73 1142,-92 1302,-92 1302,-73 1142,-73"/>
<text text-anchor="middle" x="1222" y="-80" font-family="Helvetica,sans-Serif" font-size="10.00" fill="#000000">Math/GenVector/Rotation3D.h</text>
</g>
<!-- Node34&#45;&gt;Node37 -->
<g id="edge53" class="edge">
<title>Node34&#45;&gt;Node37</title>
<path fill="none" stroke="#191970" d="M1598.1878,-140.245C1526.682,-130.3495 1410.7821,-113.9233 1311,-98 1302.651,-96.6677 1293.8718,-95.2091 1285.2139,-93.7367"/>
<polygon fill="#191970" stroke="#191970" points="1285.5867,-90.2496 1275.1389,-92.0084 1284.4032,-97.1488 1285.5867,-90.2496"/>
</g>
<!-- Node38 -->
<g id="node39" class="node">
<title>Node38</title>
<polygon fill="none" stroke="#bfbfbf" points="1320,-73 1320,-92 1488,-92 1488,-73 1320,-73"/>
<text text-anchor="middle" x="1404" y="-80" font-family="Helvetica,sans-Serif" font-size="10.00" fill="#000000">Math/GenVector/Transform3D.h</text>
</g>
<!-- Node34&#45;&gt;Node38 -->
<g id="edge54" class="edge">
<title>Node34&#45;&gt;Node38</title>
<path fill="none" stroke="#191970" d="M1628.74,-139.9717C1582.1188,-128.0495 1502.2336,-107.6208 1451.3312,-94.6038"/>
<polygon fill="#191970" stroke="#191970" points="1452.111,-91.1906 1441.5556,-92.1039 1450.3767,-97.9724 1452.111,-91.1906"/>
</g>
<!-- Node39 -->
<g id="node40" class="node">
<title>Node39</title>
<polygon fill="none" stroke="#bfbfbf" points="1506.5,-73 1506.5,-92 1679.5,-92 1679.5,-73 1506.5,-73"/>
<text text-anchor="middle" x="1593" y="-80" font-family="Helvetica,sans-Serif" font-size="10.00" fill="#000000">Math/GenVector/Translation3D.h</text>
</g>
<!-- Node34&#45;&gt;Node39 -->
<g id="edge55" class="edge">
<title>Node34&#45;&gt;Node39</title>
<path fill="none" stroke="#191970" d="M1655.5409,-139.9005C1643.9403,-129.2535 1625.0171,-111.8856 1611.0195,-99.0385"/>
<polygon fill="#191970" stroke="#191970" points="1613.1737,-96.2649 1603.4397,-92.0817 1608.4404,-101.4221 1613.1737,-96.2649"/>
</g>
<!-- Node40 -->
<g id="node41" class="node">
<title>Node40</title>
<polygon fill="none" stroke="#bfbfbf" points="1698,-73 1698,-92 1780,-92 1780,-73 1698,-73"/>
<text text-anchor="middle" x="1739" y="-80" font-family="Helvetica,sans-Serif" font-size="10.00" fill="#000000">TGeoMatrix.h</text>
</g>
<!-- Node34&#45;&gt;Node40 -->
<g id="edge57" class="edge">
<title>Node34&#45;&gt;Node40</title>
<path fill="none" stroke="#191970" d="M1676.4591,-139.9005C1688.0597,-129.2535 1706.9829,-111.8856 1720.9805,-99.0385"/>
<polygon fill="#191970" stroke="#191970" points="1723.5596,-101.4221 1728.5603,-92.0817 1718.8263,-96.2649 1723.5596,-101.4221"/>
</g>
<!-- Node41 -->
<g id="node42" class="node">
<title>Node41</title>
<g id="a_node42"><a xlink:href="../../d2/dd0/Cartesian2D_8h.html" target="_top" xlink:title="MathUtils/Cartesian2D.h">
<polygon fill="none" stroke="#000000" points="2264.5,-73 2264.5,-92 2399.5,-92 2399.5,-73 2264.5,-73"/>
<text text-anchor="middle" x="2332" y="-80" font-family="Helvetica,sans-Serif" font-size="10.00" fill="#000000">MathUtils/Cartesian2D.h</text>
</a>
</g>
</g>
<!-- Node34&#45;&gt;Node41 -->
<g id="edge59" class="edge">
<title>Node34&#45;&gt;Node41</title>
<path fill="none" stroke="#191970" d="M1733.6358,-142.7298C1831.7697,-132.9023 2019.3628,-114.0992 2179,-98 2203.4054,-95.5388 2229.9996,-92.8477 2254.0682,-90.4089"/>
<polygon fill="#191970" stroke="#191970" points="2254.6188,-93.8711 2264.2149,-89.3805 2253.9129,-86.9068 2254.6188,-93.8711"/>
</g>
<!-- Node42 -->
<g id="node43" class="node">
<title>Node42</title>
<polygon fill="none" stroke="#bfbfbf" points="2152,-.5 2152,-30.5 2316,-30.5 2316,-.5 2152,-.5"/>
<text text-anchor="start" x="2160" y="-18.5" font-family="Helvetica,sans-Serif" font-size="10.00" fill="#000000">Math/GenVector/Displacement</text>
<text text-anchor="middle" x="2234" y="-7.5" font-family="Helvetica,sans-Serif" font-size="10.00" fill="#000000">Vector2D.h</text>
</g>
<!-- Node41&#45;&gt;Node42 -->
<g id="edge60" class="edge">
<title>Node41&#45;&gt;Node42</title>
<path fill="none" stroke="#191970" d="M2317.959,-72.9005C2304.0412,-63.3853 2282.272,-48.5023 2264.388,-36.2755"/>
<polygon fill="#191970" stroke="#191970" points="2266.2026,-33.2763 2255.9721,-30.5218 2262.2519,-39.0549 2266.2026,-33.2763"/>
</g>
<!-- Node43 -->
<g id="node44" class="node">
<title>Node43</title>
<polygon fill="none" stroke="#bfbfbf" points="2334.5,-6 2334.5,-25 2523.5,-25 2523.5,-6 2334.5,-6"/>
<text text-anchor="middle" x="2429" y="-13" font-family="Helvetica,sans-Serif" font-size="10.00" fill="#000000">Math/GenVector/PositionVector2D.h</text>
</g>
<!-- Node41&#45;&gt;Node43 -->
<g id="edge61" class="edge">
<title>Node41&#45;&gt;Node43</title>
<path fill="none" stroke="#191970" d="M2345.8977,-72.9005C2361.8164,-61.9052 2388.1121,-43.7422 2406.8599,-30.7927"/>
<polygon fill="#191970" stroke="#191970" points="2408.8892,-33.6448 2415.128,-25.0817 2404.9108,-27.8852 2408.8892,-33.6448"/>
</g>
<!-- Node44&#45;&gt;Node5 -->
<g id="edge63" class="edge">
<title>Node44&#45;&gt;Node5</title>
<path fill="none" stroke="#191970" d="M854,-447.3402C854,-418.3223 854,-331.5088 854,-292.2113"/>
<polygon fill="#191970" stroke="#191970" points="857.5001,-292.0641 854,-282.0641 850.5001,-292.0642 857.5001,-292.0641"/>
</g>
<!-- Node44&#45;&gt;Node25 -->
<g id="edge64" class="edge">
<title>Node44&#45;&gt;Node25</title>
<path fill="none" stroke="#191970" d="M877.6974,-447.3484C931.1747,-425.5679 1061.3393,-372.5538 1122.8102,-347.5177"/>
<polygon fill="#191970" stroke="#191970" points="1124.4715,-350.6203 1132.4126,-343.6068 1121.8311,-344.1374 1124.4715,-350.6203"/>
</g>
<!-- Node44&#45;&gt;Node30 -->
<g id="edge65" class="edge">
<title>Node44&#45;&gt;Node30</title>
<path fill="none" stroke="#191970" d="M920.7005,-448.3253C925.5351,-447.8317 930.3398,-447.382 935,-447 1399.2788,-408.9397 1961.985,-398.5888 2140.6752,-396.1631"/>
<polygon fill="#191970" stroke="#191970" points="2140.9403,-399.66 2150.8929,-396.0274 2140.8473,-392.6606 2140.9403,-399.66"/>
</g>
</g>
</svg>
