<?xml version="1.0" encoding="UTF-8" standalone="no"?>
<!DOCTYPE svg PUBLIC "-//W3C//DTD SVG 1.1//EN"
 "http://www.w3.org/Graphics/SVG/1.1/DTD/svg11.dtd">
<!-- Generated by graphviz version 2.40.1 (20161225.0304)
 -->
<!-- Title: /home/travis/build/AliceO2Group/AliceO2/Steer/test/testHitProcessingManager.cxx Pages: 1 -->
<!--zoomable 542 -->
<svg id="main" version="1.1" xmlns="http://www.w3.org/2000/svg" xmlns:xlink="http://www.w3.org/1999/xlink" xml:space="preserve" onload="init(evt)">
<style type="text/css"><![CDATA[
.edge:hover path { stroke: red; }
.edge:hover polygon { stroke: red; fill: red; }
]]></style>
<script type="text/javascript"><![CDATA[
var edges = document.getElementsByTagName('g');
if (edges && edges.length) {
  for (var i=0;i<edges.length;i++) {
    if (edges[i].id.substr(0,4)=='edge') {
      edges[i].setAttribute('class','edge');
    }
  }
}
]]></script>
        <defs>
                <circle id="rim" cx="0" cy="0" r="7"/>
                <circle id="rim2" cx="0" cy="0" r="3.5"/>
                <g id="zoomPlus">
                        <use xlink:href="#rim" fill="#404040">
                                <set attributeName="fill" to="#808080" begin="zoomplus.mouseover" end="zoomplus.mouseout"/>
                        </use>
                        <path d="M-4,0h8M0,-4v8" fill="none" stroke="white" stroke-width="1.5" pointer-events="none"/>
                </g>
                <g id="zoomMin">
                        <use xlink:href="#rim" fill="#404040">
                                <set attributeName="fill" to="#808080" begin="zoomminus.mouseover" end="zoomminus.mouseout"/>
                        </use>
                        <path d="M-4,0h8" fill="none" stroke="white" stroke-width="1.5" pointer-events="none"/>
                </g>
                <g id="dirArrow">
                        <path fill="none" stroke="white" stroke-width="1.5" d="M0,-3.0v7 M-2.5,-0.5L0,-3.0L2.5,-0.5"/>
                </g>
               <g id="resetDef">
                       <use xlink:href="#rim2" fill="#404040">
                               <set attributeName="fill" to="#808080" begin="reset.mouseover" end="reset.mouseout"/>
                       </use>
               </g>
        </defs>

<script type="text/javascript">
var viewWidth = 1540;
var viewHeight = 542;
var sectionId = 'dynsection-0';
</script>
<script xlink:href="../../svgpan.js"/>
<svg id="graph" class="graph">
<g id="viewport">
<title>/home/travis/build/AliceO2Group/AliceO2/Steer/test/testHitProcessingManager.cxx</title>
<!-- Node0 -->
<g id="node1" class="node">
<title>Node0</title>
<polygon fill="#bfbfbf" stroke="#000000" points="755.5,-481.5 755.5,-533.5 910.5,-533.5 910.5,-481.5 755.5,-481.5"/>
<text text-anchor="start" x="763.5" y="-521.5" font-family="Helvetica,sans-Serif" font-size="10.00" fill="#000000">/home/travis/build</text>
<text text-anchor="start" x="763.5" y="-510.5" font-family="Helvetica,sans-Serif" font-size="10.00" fill="#000000">/AliceO2Group/AliceO2</text>
<text text-anchor="start" x="763.5" y="-499.5" font-family="Helvetica,sans-Serif" font-size="10.00" fill="#000000">/Steer/test/testHitProcessing</text>
<text text-anchor="middle" x="833" y="-488.5" font-family="Helvetica,sans-Serif" font-size="10.00" fill="#000000">Manager.cxx</text>
</g>
<!-- Node1 -->
<g id="node2" class="node">
<title>Node1</title>
<polygon fill="none" stroke="#bfbfbf" points="315,-56.5 315,-75.5 379,-75.5 379,-56.5 315,-56.5"/>
<text text-anchor="middle" x="347" y="-63.5" font-family="Helvetica,sans-Serif" font-size="10.00" fill="#000000">algorithm</text>
</g>
<!-- Node0&#45;&gt;Node1 -->
<g id="edge1" class="edge">
<title>Node0&#45;&gt;Node1</title>
<path fill="none" stroke="#191970" d="M755.3814,-503.1214C548.5891,-490.4257 0,-449.5766 0,-373.5 0,-373.5 0,-373.5 0,-178 0,-114.6076 212.3881,-81.8534 304.8412,-70.5984"/>
<polygon fill="#191970" stroke="#191970" points="305.4607,-74.0494 314.9771,-69.3924 304.6335,-67.0985 305.4607,-74.0494"/>
</g>
<!-- Node2 -->
<g id="node3" class="node">
<title>Node2</title>
<polygon fill="none" stroke="#bfbfbf" points="850,-425.5 850,-444.5 982,-444.5 982,-425.5 850,-425.5"/>
<text text-anchor="middle" x="916" y="-432.5" font-family="Helvetica,sans-Serif" font-size="10.00" fill="#000000">boost/test/unit_test.hpp</text>
</g>
<!-- Node0&#45;&gt;Node2 -->
<g id="edge2" class="edge">
<title>Node0&#45;&gt;Node2</title>
<path fill="none" stroke="#191970" d="M862.9649,-481.3258C874.4284,-471.3126 887.1674,-460.1851 897.2867,-451.346"/>
<polygon fill="#191970" stroke="#191970" points="899.8563,-453.7486 905.0852,-444.534 895.2513,-448.4767 899.8563,-453.7486"/>
</g>
<!-- Node3 -->
<g id="node4" class="node">
<title>Node3</title>
<g id="a_node4"><a xlink:href="../../dd/d40/HitProcessingManager_8h.html" target="_top" xlink:title="Steer/HitProcessingManager.h">
<polygon fill="none" stroke="#000000" points="670,-425.5 670,-444.5 832,-444.5 832,-425.5 670,-425.5"/>
<text text-anchor="middle" x="751" y="-432.5" font-family="Helvetica,sans-Serif" font-size="10.00" fill="#000000">Steer/HitProcessingManager.h</text>
</a>
</g>
</g>
<!-- Node0&#45;&gt;Node3 -->
<g id="edge3" class="edge">
<title>Node0&#45;&gt;Node3</title>
<path fill="none" stroke="#191970" d="M803.3961,-481.3258C792.0708,-471.3126 779.4852,-460.1851 769.4879,-451.346"/>
<polygon fill="#191970" stroke="#191970" points="771.5933,-448.5357 761.7833,-444.534 766.9567,-453.7799 771.5933,-448.5357"/>
</g>
<!-- Node16 -->
<g id="node17" class="node">
<title>Node16</title>
<polygon fill="none" stroke="#bfbfbf" points="42,-230 42,-249 86,-249 86,-230 42,-230"/>
<text text-anchor="middle" x="64" y="-237" font-family="Helvetica,sans-Serif" font-size="10.00" fill="#000000">string</text>
</g>
<!-- Node0&#45;&gt;Node16 -->
<g id="edge66" class="edge">
<title>Node0&#45;&gt;Node16</title>
<path fill="none" stroke="#191970" d="M755.1545,-500.6948C635.1247,-488.4422 398.9662,-457.2997 210,-389 152.1886,-368.1047 127.6371,-369.8115 89,-322 74.3549,-303.8774 68.2765,-277.2847 65.7615,-259.2269"/>
<polygon fill="#191970" stroke="#191970" points="69.2324,-258.7722 64.6114,-249.2383 62.2783,-259.573 69.2324,-258.7722"/>
</g>
<!-- Node41 -->
<g id="node42" class="node">
<title>Node41</title>
<polygon fill="none" stroke="#bfbfbf" points="1000,-425.5 1000,-444.5 1048,-444.5 1048,-425.5 1000,-425.5"/>
<text text-anchor="middle" x="1024" y="-432.5" font-family="Helvetica,sans-Serif" font-size="10.00" fill="#000000">TFile.h</text>
</g>
<!-- Node0&#45;&gt;Node41 -->
<g id="edge64" class="edge">
<title>Node0&#45;&gt;Node41</title>
<path fill="none" stroke="#191970" d="M901.6855,-481.4283C931.7649,-470.0107 965.7063,-457.1272 990.1904,-447.8335"/>
<polygon fill="#191970" stroke="#191970" points="991.63,-451.0308 999.737,-444.2098 989.1458,-444.4864 991.63,-451.0308"/>
</g>
<!-- Node42 -->
<g id="node43" class="node">
<title>Node42</title>
<polygon fill="none" stroke="#bfbfbf" points="1066,-425.5 1066,-444.5 1118,-444.5 1118,-425.5 1066,-425.5"/>
<text text-anchor="middle" x="1092" y="-432.5" font-family="Helvetica,sans-Serif" font-size="10.00" fill="#000000">TTree.h</text>
</g>
<!-- Node0&#45;&gt;Node42 -->
<g id="edge65" class="edge">
<title>Node0&#45;&gt;Node42</title>
<path fill="none" stroke="#191970" d="M910.5242,-485.9968C951.2251,-474.6772 1002.1785,-460.4592 1055.9225,-445.2941"/>
<polygon fill="#191970" stroke="#191970" points="1056.959,-448.6384 1065.6317,-442.5527 1055.0569,-441.9018 1056.959,-448.6384"/>
</g>
<!-- Node4 -->
<g id="node5" class="node">
<title>Node4</title>
<g id="a_node5"><a xlink:href="../../d9/d80/InteractionRecord_8h.html" target="_top" xlink:title="CommonDataFormat/Interaction\lRecord.h">
<polygon fill="none" stroke="#000000" points="618,-291.5 618,-321.5 792,-321.5 792,-291.5 618,-291.5"/>
<text text-anchor="start" x="626" y="-309.5" font-family="Helvetica,sans-Serif" font-size="10.00" fill="#000000">CommonDataFormat/Interaction</text>
<text text-anchor="middle" x="705" y="-298.5" font-family="Helvetica,sans-Serif" font-size="10.00" fill="#000000">Record.h</text>
</a>
</g>
</g>
<!-- Node3&#45;&gt;Node4 -->
<g id="edge4" class="edge">
<title>Node3&#45;&gt;Node4</title>
<path fill="none" stroke="#191970" d="M744.378,-425.1692C738.5441,-416.1169 730.1894,-402.1395 725,-389 717.6724,-370.4468 712.5025,-348.4502 709.2569,-331.8377"/>
<polygon fill="#191970" stroke="#191970" points="712.6588,-330.9856 707.3987,-321.7888 705.7755,-332.2585 712.6588,-330.9856"/>
</g>
<!-- Node10 -->
<g id="node11" class="node">
<title>Node10</title>
<g id="a_node11"><a xlink:href="../../d1/def/DigitizationContext_8h.html" target="_top" xlink:title="SimulationDataFormat\l/DigitizationContext.h">
<polygon fill="none" stroke="#000000" points="733.5,-358.5 733.5,-388.5 860.5,-388.5 860.5,-358.5 733.5,-358.5"/>
<text text-anchor="start" x="741.5" y="-376.5" font-family="Helvetica,sans-Serif" font-size="10.00" fill="#000000">SimulationDataFormat</text>
<text text-anchor="middle" x="797" y="-365.5" font-family="Helvetica,sans-Serif" font-size="10.00" fill="#000000">/DigitizationContext.h</text>
</a>
</g>
</g>
<!-- Node3&#45;&gt;Node10 -->
<g id="edge10" class="edge">
<title>Node3&#45;&gt;Node10</title>
<path fill="none" stroke="#191970" d="M758.1875,-425.3906C763.9519,-417.6839 772.2846,-406.5434 779.7527,-396.5589"/>
<polygon fill="#191970" stroke="#191970" points="782.5603,-398.6488 785.7471,-388.5446 776.9548,-394.4561 782.5603,-398.6488"/>
</g>
<!-- Node11 -->
<g id="node12" class="node">
<title>Node11</title>
<polygon fill="none" stroke="#bfbfbf" points="552.5,-297 552.5,-316 599.5,-316 599.5,-297 552.5,-297"/>
<text text-anchor="middle" x="576" y="-304" font-family="Helvetica,sans-Serif" font-size="10.00" fill="#000000">vector</text>
</g>
<!-- Node3&#45;&gt;Node11 -->
<g id="edge60" class="edge">
<title>Node3&#45;&gt;Node11</title>
<path fill="none" stroke="#191970" d="M737.8466,-425.3416C707.9488,-403.3881 634.635,-349.5549 597.8285,-322.5283"/>
<polygon fill="#191970" stroke="#191970" points="599.438,-319.368 589.3061,-316.2705 595.295,-325.0103 599.438,-319.368"/>
</g>
<!-- Node12 -->
<g id="node13" class="node">
<title>Node12</title>
<polygon fill="none" stroke="#bfbfbf" points="1178.5,-297 1178.5,-316 1237.5,-316 1237.5,-297 1178.5,-297"/>
<text text-anchor="middle" x="1208" y="-304" font-family="Helvetica,sans-Serif" font-size="10.00" fill="#000000">TChain.h</text>
</g>
<!-- Node3&#45;&gt;Node12 -->
<g id="edge63" class="edge">
<title>Node3&#45;&gt;Node12</title>
<path fill="none" stroke="#191970" d="M816.2631,-425.4804C873.3761,-416.4993 951.5374,-402.4437 980,-389 999.7081,-379.6913 998.5649,-367.866 1018,-358 1074.5204,-329.3081 1094.9519,-339.0558 1156,-322 1160.0828,-320.8593 1164.337,-319.6408 1168.5761,-318.4069"/>
<polygon fill="#191970" stroke="#191970" points="1169.7476,-321.7106 1178.3526,-315.5296 1167.7712,-314.9954 1169.7476,-321.7106"/>
</g>
<!-- Node3&#45;&gt;Node16 -->
<g id="edge59" class="edge">
<title>Node3&#45;&gt;Node16</title>
<path fill="none" stroke="#191970" d="M669.9805,-428.5562C521.1193,-415.4135 211.2423,-381.6035 123,-322 99.3754,-306.0427 82.0345,-277.2717 72.4784,-258.2771"/>
<polygon fill="#191970" stroke="#191970" points="75.5659,-256.6207 68.0891,-249.1142 69.2528,-259.6449 75.5659,-256.6207"/>
</g>
<!-- Node31 -->
<g id="node32" class="node">
<title>Node31</title>
<g id="a_node32"><a xlink:href="../../df/dff/InteractionSampler_8h.html" target="_top" xlink:title="Steer/InteractionSampler.h">
<polygon fill="none" stroke="#000000" points="408,-364 408,-383 554,-383 554,-364 408,-364"/>
<text text-anchor="middle" x="481" y="-371" font-family="Helvetica,sans-Serif" font-size="10.00" fill="#000000">Steer/InteractionSampler.h</text>
</a>
</g>
</g>
<!-- Node3&#45;&gt;Node31 -->
<g id="edge45" class="edge">
<title>Node3&#45;&gt;Node31</title>
<path fill="none" stroke="#191970" d="M709.1087,-425.4581C661.6174,-414.6406 584.1528,-396.9959 532.8785,-385.3168"/>
<polygon fill="#191970" stroke="#191970" points="533.5171,-381.8727 522.9895,-383.0643 531.9625,-388.6978 533.5171,-381.8727"/>
</g>
<!-- Node34 -->
<g id="node35" class="node">
<title>Node34</title>
<g id="a_node35"><a xlink:href="../../d7/d61/NameConf_8h.html" target="_top" xlink:title="Definition of the Names Generator class. ">
<polygon fill="none" stroke="#000000" points="1180.5,-358.5 1180.5,-388.5 1351.5,-388.5 1351.5,-358.5 1180.5,-358.5"/>
<text text-anchor="start" x="1188.5" y="-376.5" font-family="Helvetica,sans-Serif" font-size="10.00" fill="#000000">DetectorsCommonDataFormats</text>
<text text-anchor="middle" x="1266" y="-365.5" font-family="Helvetica,sans-Serif" font-size="10.00" fill="#000000">/NameConf.h</text>
</a>
</g>
</g>
<!-- Node3&#45;&gt;Node34 -->
<g id="edge53" class="edge">
<title>Node3&#45;&gt;Node34</title>
<path fill="none" stroke="#191970" d="M830.6217,-425.4918C922.1091,-414.5666 1072.1793,-396.6456 1170.0372,-384.9596"/>
<polygon fill="#191970" stroke="#191970" points="1170.7111,-388.4041 1180.2255,-383.743 1169.881,-381.4535 1170.7111,-388.4041"/>
</g>
<!-- Node38 -->
<g id="node39" class="node">
<title>Node38</title>
<polygon fill="none" stroke="#bfbfbf" points="879,-364 879,-383 971,-383 971,-364 879,-364"/>
<text text-anchor="middle" x="925" y="-371" font-family="Helvetica,sans-Serif" font-size="10.00" fill="#000000">TGeoManager.h</text>
</g>
<!-- Node3&#45;&gt;Node38 -->
<g id="edge58" class="edge">
<title>Node3&#45;&gt;Node38</title>
<path fill="none" stroke="#191970" d="M778.1875,-425.3906C807.8117,-414.92 855.3687,-398.1111 888.2918,-386.4745"/>
<polygon fill="#191970" stroke="#191970" points="889.7414,-389.6744 898.0034,-383.0419 887.4086,-383.0745 889.7414,-389.6744"/>
</g>
<!-- Node39 -->
<g id="node40" class="node">
<title>Node39</title>
<polygon fill="none" stroke="#bfbfbf" points="1027,-364 1027,-383 1065,-383 1065,-364 1027,-364"/>
<text text-anchor="middle" x="1046" y="-371" font-family="Helvetica,sans-Serif" font-size="10.00" fill="#000000">map</text>
</g>
<!-- Node3&#45;&gt;Node39 -->
<g id="edge61" class="edge">
<title>Node3&#45;&gt;Node39</title>
<path fill="none" stroke="#191970" d="M816.9092,-425.4677C882.185,-415.6607 977.3906,-400.2677 1013,-389 1014.8557,-388.4128 1016.7417,-387.7431 1018.624,-387.019"/>
<polygon fill="#191970" stroke="#191970" points="1020.0265,-390.2259 1027.8466,-383.0778 1017.2757,-383.7891 1020.0265,-390.2259"/>
</g>
<!-- Node40 -->
<g id="node41" class="node">
<title>Node40</title>
<polygon fill="none" stroke="#bfbfbf" points="1369.5,-364 1369.5,-383 1434.5,-383 1434.5,-364 1369.5,-364"/>
<text text-anchor="middle" x="1402" y="-371" font-family="Helvetica,sans-Serif" font-size="10.00" fill="#000000">functional</text>
</g>
<!-- Node3&#45;&gt;Node40 -->
<g id="edge62" class="edge">
<title>Node3&#45;&gt;Node40</title>
<path fill="none" stroke="#191970" d="M832.4198,-425.8C835.3146,-425.5218 838.1816,-425.254 841,-425 1071.729,-404.204 1134.6833,-438.4885 1361,-389 1364.1967,-388.301 1367.4762,-387.3995 1370.7206,-386.3833"/>
<polygon fill="#191970" stroke="#191970" points="1371.9335,-389.6671 1380.2302,-383.0781 1369.6354,-383.0551 1371.9335,-389.6671"/>
</g>
<!-- Node5 -->
<g id="node6" class="node">
<title>Node5</title>
<polygon fill="none" stroke="#bfbfbf" points="679.5,-168.5 679.5,-187.5 738.5,-187.5 738.5,-168.5 679.5,-168.5"/>
<text text-anchor="middle" x="709" y="-175.5" font-family="Helvetica,sans-Serif" font-size="10.00" fill="#000000">Rtypes.h</text>
</g>
<!-- Node4&#45;&gt;Node5 -->
<g id="edge5" class="edge">
<title>Node4&#45;&gt;Node5</title>
<path fill="none" stroke="#191970" d="M698.0168,-291.2735C691.3138,-274.7022 682.9036,-247.4353 688,-224 690.0425,-214.6079 694.1789,-204.8357 698.2447,-196.7264"/>
<polygon fill="#191970" stroke="#191970" points="701.3909,-198.2651 703.0235,-187.7968 695.2191,-194.9622 701.3909,-198.2651"/>
</g>
<!-- Node6 -->
<g id="node7" class="node">
<title>Node6</title>
<polygon fill="none" stroke="#bfbfbf" points="696.5,-230 696.5,-249 745.5,-249 745.5,-230 696.5,-230"/>
<text text-anchor="middle" x="721" y="-237" font-family="Helvetica,sans-Serif" font-size="10.00" fill="#000000">iosfwd</text>
</g>
<!-- Node4&#45;&gt;Node6 -->
<g id="edge6" class="edge">
<title>Node4&#45;&gt;Node6</title>
<path fill="none" stroke="#191970" d="M708.6306,-291.2967C710.9299,-281.6685 713.9238,-269.1318 716.3901,-258.8038"/>
<polygon fill="#191970" stroke="#191970" points="719.7997,-259.5945 718.7182,-249.055 712.9911,-257.9685 719.7997,-259.5945"/>
</g>
<!-- Node7 -->
<g id="node8" class="node">
<title>Node7</title>
<polygon fill="none" stroke="#bfbfbf" points="702.5,-56.5 702.5,-75.5 749.5,-75.5 749.5,-56.5 702.5,-56.5"/>
<text text-anchor="middle" x="726" y="-63.5" font-family="Helvetica,sans-Serif" font-size="10.00" fill="#000000">cmath</text>
</g>
<!-- Node4&#45;&gt;Node7 -->
<g id="edge7" class="edge">
<title>Node4&#45;&gt;Node7</title>
<path fill="none" stroke="#191970" d="M696.0101,-291.1198C682.2094,-265.5497 658.5406,-212.6839 670,-168 678.1881,-136.0722 698.6865,-103.4092 712.4774,-83.9175"/>
<polygon fill="#191970" stroke="#191970" points="715.4,-85.8495 718.4494,-75.703 709.7381,-81.7333 715.4,-85.8495"/>
</g>
<!-- Node8 -->
<g id="node9" class="node">
<title>Node8</title>
<polygon fill="none" stroke="#bfbfbf" points="881,-168.5 881,-187.5 931,-187.5 931,-168.5 881,-168.5"/>
<text text-anchor="middle" x="906" y="-175.5" font-family="Helvetica,sans-Serif" font-size="10.00" fill="#000000">cstdint</text>
</g>
<!-- Node4&#45;&gt;Node8 -->
<g id="edge8" class="edge">
<title>Node4&#45;&gt;Node8</title>
<path fill="none" stroke="#191970" d="M727.6314,-291.393C752.7512,-274.6927 794.561,-247.097 831,-224 847.6156,-213.4681 866.4951,-201.8908 881.1553,-192.9855"/>
<polygon fill="#191970" stroke="#191970" points="883.3751,-195.7329 890.1137,-187.5571 879.7474,-189.7462 883.3751,-195.7329"/>
</g>
<!-- Node9 -->
<g id="node10" class="node">
<title>Node9</title>
<g id="a_node10"><a xlink:href="../../d4/dc6/LHCConstants_8h.html" target="_top" xlink:title="Header to collect LHC related constants. ">
<polygon fill="none" stroke="#000000" points="412,-230 412,-249 602,-249 602,-230 412,-230"/>
<text text-anchor="middle" x="507" y="-237" font-family="Helvetica,sans-Serif" font-size="10.00" fill="#000000">CommonConstants/LHCConstants.h</text>
</a>
</g>
</g>
<!-- Node4&#45;&gt;Node9 -->
<g id="edge9" class="edge">
<title>Node4&#45;&gt;Node9</title>
<path fill="none" stroke="#191970" d="M660.5649,-291.4639C625.7433,-279.6808 577.8239,-263.4657 544.8222,-252.2984"/>
<polygon fill="#191970" stroke="#191970" points="545.6845,-248.8953 535.0902,-249.0053 543.4408,-255.526 545.6845,-248.8953"/>
</g>
<!-- Node10&#45;&gt;Node4 -->
<g id="edge14" class="edge">
<title>Node10&#45;&gt;Node4</title>
<path fill="none" stroke="#191970" d="M776.1238,-358.2967C763.6552,-349.2163 747.6342,-337.5488 733.9553,-327.587"/>
<polygon fill="#191970" stroke="#191970" points="735.9376,-324.7009 725.7936,-321.6432 731.8167,-330.3594 735.9376,-324.7009"/>
</g>
<!-- Node10&#45;&gt;Node11 -->
<g id="edge11" class="edge">
<title>Node10&#45;&gt;Node11</title>
<path fill="none" stroke="#191970" d="M733.4818,-358.9889C696.6423,-349.8602 649.6423,-336.9852 609,-322 607.4076,-321.4129 605.7868,-320.7787 604.161,-320.1138"/>
<polygon fill="#191970" stroke="#191970" points="605.5218,-316.8889 594.9576,-316.0828 602.7134,-323.3008 605.5218,-316.8889"/>
</g>
<!-- Node10&#45;&gt;Node12 -->
<g id="edge12" class="edge">
<title>Node10&#45;&gt;Node12</title>
<path fill="none" stroke="#191970" d="M860.6389,-359.6456C863.7995,-359.0649 866.933,-358.5124 870,-358 999.8432,-336.3083 1035.8321,-352.0462 1164,-322 1167.2329,-321.2421 1170.5589,-320.3294 1173.8653,-319.3309"/>
<polygon fill="#191970" stroke="#191970" points="1175.1934,-322.5791 1183.6124,-316.1471 1173.0199,-315.9251 1175.1934,-322.5791"/>
</g>
<!-- Node13 -->
<g id="node14" class="node">
<title>Node13</title>
<polygon fill="none" stroke="#bfbfbf" points="1056.5,-297 1056.5,-316 1121.5,-316 1121.5,-297 1056.5,-297"/>
<text text-anchor="middle" x="1089" y="-304" font-family="Helvetica,sans-Serif" font-size="10.00" fill="#000000">TBranch.h</text>
</g>
<!-- Node10&#45;&gt;Node13 -->
<g id="edge13" class="edge">
<title>Node10&#45;&gt;Node13</title>
<path fill="none" stroke="#191970" d="M860.6936,-359.9382C863.8398,-359.2801 866.9552,-358.6311 870,-358 949.0329,-341.6178 970.4416,-344.3441 1048,-322 1050.7421,-321.21 1053.5607,-320.3189 1056.3744,-319.3732"/>
<polygon fill="#191970" stroke="#191970" points="1057.5577,-322.6671 1065.8042,-316.0153 1055.2095,-316.0727 1057.5577,-322.6671"/>
</g>
<!-- Node14 -->
<g id="node15" class="node">
<title>Node14</title>
<g id="a_node15"><a xlink:href="../../d4/d5f/BunchFilling_8h.html" target="_top" xlink:title="CommonDataFormat/BunchFilling.h">
<polygon fill="none" stroke="#000000" points="306.5,-297 306.5,-316 495.5,-316 495.5,-297 306.5,-297"/>
<text text-anchor="middle" x="401" y="-304" font-family="Helvetica,sans-Serif" font-size="10.00" fill="#000000">CommonDataFormat/BunchFilling.h</text>
</a>
</g>
</g>
<!-- Node10&#45;&gt;Node14 -->
<g id="edge15" class="edge">
<title>Node10&#45;&gt;Node14</title>
<path fill="none" stroke="#191970" d="M733.3757,-362.7353C660.5006,-350.4054 541.6419,-330.2955 467.5586,-317.7612"/>
<polygon fill="#191970" stroke="#191970" points="467.8555,-314.2618 457.4118,-316.0444 466.6877,-321.1637 467.8555,-314.2618"/>
</g>
<!-- Node17 -->
<g id="node18" class="node">
<title>Node17</title>
<g id="a_node18"><a xlink:href="../../d6/d31/DetID_8h.html" target="_top" xlink:title="DetectorsCommonDataFormats\l/DetID.h">
<polygon fill="none" stroke="#000000" points="1084.5,-224.5 1084.5,-254.5 1255.5,-254.5 1255.5,-224.5 1084.5,-224.5"/>
<text text-anchor="start" x="1092.5" y="-242.5" font-family="Helvetica,sans-Serif" font-size="10.00" fill="#000000">DetectorsCommonDataFormats</text>
<text text-anchor="middle" x="1170" y="-231.5" font-family="Helvetica,sans-Serif" font-size="10.00" fill="#000000">/DetID.h</text>
</a>
</g>
</g>
<!-- Node10&#45;&gt;Node17 -->
<g id="edge19" class="edge">
<title>Node10&#45;&gt;Node17</title>
<path fill="none" stroke="#191970" d="M860.6487,-359.703C863.8067,-359.1072 866.937,-358.5357 870,-358 927.6737,-347.9132 1083.7991,-356.6421 1131,-322 1149.6431,-308.3173 1159.7055,-283.4159 1164.9113,-264.5379"/>
<polygon fill="#191970" stroke="#191970" points="1168.3215,-265.3274 1167.3275,-254.7793 1161.5266,-263.6451 1168.3215,-265.3274"/>
</g>
<!-- Node27 -->
<g id="node28" class="node">
<title>Node27</title>
<g id="a_node28"><a xlink:href="../../de/d28/GRPObject_8h.html" target="_top" xlink:title="Header of the General Run Parameters object. ">
<polygon fill="none" stroke="#000000" points="903.5,-291.5 903.5,-321.5 1038.5,-321.5 1038.5,-291.5 903.5,-291.5"/>
<text text-anchor="start" x="911.5" y="-309.5" font-family="Helvetica,sans-Serif" font-size="10.00" fill="#000000">DataFormatsParameters</text>
<text text-anchor="middle" x="971" y="-298.5" font-family="Helvetica,sans-Serif" font-size="10.00" fill="#000000">/GRPObject.h</text>
</a>
</g>
</g>
<!-- Node10&#45;&gt;Node27 -->
<g id="edge37" class="edge">
<title>Node10&#45;&gt;Node27</title>
<path fill="none" stroke="#191970" d="M836.049,-358.4639C861.5934,-348.6278 895.1584,-335.7034 922.4231,-325.2049"/>
<polygon fill="#191970" stroke="#191970" points="923.7063,-328.4614 931.7807,-321.6017 921.1909,-321.9289 923.7063,-328.4614"/>
</g>
<!-- Node30 -->
<g id="node31" class="node">
<title>Node30</title>
<polygon fill="none" stroke="#bfbfbf" points="810.5,-297 810.5,-316 885.5,-316 885.5,-297 810.5,-297"/>
<text text-anchor="middle" x="848" y="-304" font-family="Helvetica,sans-Serif" font-size="10.00" fill="#000000">FairLogger.h</text>
</g>
<!-- Node10&#45;&gt;Node30 -->
<g id="edge44" class="edge">
<title>Node10&#45;&gt;Node30</title>
<path fill="none" stroke="#191970" d="M808.5727,-358.2967C816.2873,-348.1618 826.4551,-334.804 834.5329,-324.1921"/>
<polygon fill="#191970" stroke="#191970" points="837.4549,-326.1319 840.7268,-316.055 831.8849,-321.8921 837.4549,-326.1319"/>
</g>
<!-- Node14&#45;&gt;Node9 -->
<g id="edge16" class="edge">
<title>Node14&#45;&gt;Node9</title>
<path fill="none" stroke="#191970" d="M416.1872,-296.9005C433.7403,-285.8057 462.8394,-267.4128 483.3598,-254.4424"/>
<polygon fill="#191970" stroke="#191970" points="485.258,-257.3832 491.841,-249.0817 481.5179,-251.4661 485.258,-257.3832"/>
</g>
<!-- Node15 -->
<g id="node16" class="node">
<title>Node15</title>
<polygon fill="none" stroke="#bfbfbf" points="798,-168.5 798,-187.5 842,-187.5 842,-168.5 798,-168.5"/>
<text text-anchor="middle" x="820" y="-175.5" font-family="Helvetica,sans-Serif" font-size="10.00" fill="#000000">bitset</text>
</g>
<!-- Node14&#45;&gt;Node15 -->
<g id="edge17" class="edge">
<title>Node14&#45;&gt;Node15</title>
<path fill="none" stroke="#191970" d="M397.6481,-296.8649C392.3768,-279.7572 384.5339,-244.0004 403,-224 455.2901,-167.365 671.4806,-197.3034 748,-188 761.115,-186.4054 775.544,-184.4428 788.0192,-182.6797"/>
<polygon fill="#191970" stroke="#191970" points="788.5628,-186.1376 797.9671,-181.2581 787.5725,-179.208 788.5628,-186.1376"/>
</g>
<!-- Node14&#45;&gt;Node16 -->
<g id="edge18" class="edge">
<title>Node14&#45;&gt;Node16</title>
<path fill="none" stroke="#191970" d="M353.074,-296.9717C283.3038,-283.1005 155.6151,-257.7143 96.1086,-245.8836"/>
<polygon fill="#191970" stroke="#191970" points="96.6453,-242.4219 86.1547,-243.9047 95.2803,-249.2875 96.6453,-242.4219"/>
</g>
<!-- Node17&#45;&gt;Node5 -->
<g id="edge20" class="edge">
<title>Node17&#45;&gt;Node5</title>
<path fill="none" stroke="#191970" d="M1084.3174,-225.3718C1081.1736,-224.9006 1078.0598,-224.4418 1075,-224 1066.9704,-222.8408 842.2209,-194.6811 748.9618,-183.003"/>
<polygon fill="#191970" stroke="#191970" points="749.1426,-179.4984 738.7852,-181.7287 748.2728,-186.4441 749.1426,-179.4984"/>
</g>
<!-- Node17&#45;&gt;Node8 -->
<g id="edge24" class="edge">
<title>Node17&#45;&gt;Node8</title>
<path fill="none" stroke="#191970" d="M1097.1948,-224.479C1054.2897,-215.3277 998.7591,-202.9694 941.2065,-188.1996"/>
<polygon fill="#191970" stroke="#191970" points="941.7575,-184.727 931.1997,-185.6122 940.0051,-191.5041 941.7575,-184.727"/>
</g>
<!-- Node17&#45;&gt;Node15 -->
<g id="edge22" class="edge">
<title>Node17&#45;&gt;Node15</title>
<path fill="none" stroke="#191970" d="M1084.1797,-225.1095C1024.5968,-215.0106 943.4054,-201.0348 872,-188 865.5902,-186.8299 858.7439,-185.5412 852.194,-184.2893"/>
<polygon fill="#191970" stroke="#191970" points="852.7321,-180.8287 842.2507,-182.3746 851.4084,-187.7024 852.7321,-180.8287"/>
</g>
<!-- Node18 -->
<g id="node19" class="node">
<title>Node18</title>
<polygon fill="none" stroke="#bfbfbf" points="1187,-112.5 1187,-131.5 1229,-131.5 1229,-112.5 1187,-112.5"/>
<text text-anchor="middle" x="1208" y="-119.5" font-family="Helvetica,sans-Serif" font-size="10.00" fill="#000000">array</text>
</g>
<!-- Node17&#45;&gt;Node18 -->
<g id="edge21" class="edge">
<title>Node17&#45;&gt;Node18</title>
<path fill="none" stroke="#191970" d="M1188.0917,-224.3413C1197.7889,-214.9968 1208.7889,-202.1218 1214,-188 1219.5316,-173.0097 1217.296,-154.8605 1214.0923,-141.391"/>
<polygon fill="#191970" stroke="#191970" points="1217.4662,-140.4597 1211.4454,-131.7419 1210.7156,-142.3116 1217.4662,-140.4597"/>
</g>
<!-- Node19 -->
<g id="node20" class="node">
<title>Node19</title>
<polygon fill="none" stroke="#bfbfbf" points="1065,-168.5 1065,-187.5 1117,-187.5 1117,-168.5 1065,-168.5"/>
<text text-anchor="middle" x="1091" y="-175.5" font-family="Helvetica,sans-Serif" font-size="10.00" fill="#000000">cassert</text>
</g>
<!-- Node17&#45;&gt;Node19 -->
<g id="edge23" class="edge">
<title>Node17&#45;&gt;Node19</title>
<path fill="none" stroke="#191970" d="M1150.4719,-224.2977C1138.7063,-215.1384 1123.7325,-203.4816 1111.7535,-194.1562"/>
<polygon fill="#191970" stroke="#191970" points="1113.6898,-191.228 1103.6489,-187.8469 1109.3897,-196.7516 1113.6898,-191.228"/>
</g>
<!-- Node20 -->
<g id="node21" class="node">
<title>Node20</title>
<polygon fill="none" stroke="#bfbfbf" points="1135.5,-168.5 1135.5,-187.5 1204.5,-187.5 1204.5,-168.5 1135.5,-168.5"/>
<text text-anchor="middle" x="1170" y="-175.5" font-family="Helvetica,sans-Serif" font-size="10.00" fill="#000000">type_traits</text>
</g>
<!-- Node17&#45;&gt;Node20 -->
<g id="edge25" class="edge">
<title>Node17&#45;&gt;Node20</title>
<path fill="none" stroke="#191970" d="M1170,-224.2977C1170,-216.3834 1170,-206.6043 1170,-198.0759"/>
<polygon fill="#191970" stroke="#191970" points="1173.5001,-197.8469 1170,-187.8469 1166.5001,-197.847 1173.5001,-197.8469"/>
</g>
<!-- Node21 -->
<g id="node22" class="node">
<title>Node21</title>
<g id="a_node22"><a xlink:href="../../d9/d52/Common_2MathUtils_2include_2MathUtils_2Utils_8h.html" target="_top" xlink:title="MathUtils/Utils.h">
<polygon fill="none" stroke="#000000" points="949,-168.5 949,-187.5 1047,-187.5 1047,-168.5 949,-168.5"/>
<text text-anchor="middle" x="998" y="-175.5" font-family="Helvetica,sans-Serif" font-size="10.00" fill="#000000">MathUtils/Utils.h</text>
</a>
</g>
</g>
<!-- Node17&#45;&gt;Node21 -->
<g id="edge26" class="edge">
<title>Node17&#45;&gt;Node21</title>
<path fill="none" stroke="#191970" d="M1127.9241,-224.4554C1099.2254,-214.194 1061.6063,-200.7429 1034.2377,-190.9571"/>
<polygon fill="#191970" stroke="#191970" points="1035.2485,-187.6015 1024.6539,-187.5303 1032.8917,-194.1929 1035.2485,-187.6015"/>
</g>
<!-- Node21&#45;&gt;Node7 -->
<g id="edge28" class="edge">
<title>Node21&#45;&gt;Node7</title>
<path fill="none" stroke="#191970" d="M948.974,-169.3776C876.2045,-156.5341 747.9002,-133.6956 746,-132 733.0438,-120.4389 728.3486,-100.7942 726.7126,-85.9356"/>
<polygon fill="#191970" stroke="#191970" points="730.1859,-85.4399 725.9717,-75.7193 723.2043,-85.9463 730.1859,-85.4399"/>
</g>
<!-- Node21&#45;&gt;Node18 -->
<g id="edge27" class="edge">
<title>Node21&#45;&gt;Node18</title>
<path fill="none" stroke="#191970" d="M1034.1003,-168.3733C1074.2972,-157.6541 1138.6144,-140.5028 1176.7395,-130.3361"/>
<polygon fill="#191970" stroke="#191970" points="1177.9958,-133.6235 1186.7563,-127.665 1176.1921,-126.8598 1177.9958,-133.6235"/>
</g>
<!-- Node22 -->
<g id="node23" class="node">
<title>Node22</title>
<g id="a_node23"><a xlink:href="../../df/d21/GPUCommonDef_8h.html" target="_top" xlink:title="GPUCommonDef.h">
<polygon fill="none" stroke="#000000" points="805.5,-56.5 805.5,-75.5 912.5,-75.5 912.5,-56.5 805.5,-56.5"/>
<text text-anchor="middle" x="859" y="-63.5" font-family="Helvetica,sans-Serif" font-size="10.00" fill="#000000">GPUCommonDef.h</text>
</a>
</g>
</g>
<!-- Node21&#45;&gt;Node22 -->
<g id="edge29" class="edge">
<title>Node21&#45;&gt;Node22</title>
<path fill="none" stroke="#191970" d="M976.8265,-168.4137C959.7352,-160.1223 935.5632,-147.1085 917,-132 899.5606,-117.8062 882.9746,-98.0757 872.0413,-83.8906"/>
<polygon fill="#191970" stroke="#191970" points="874.8174,-81.7588 866.0071,-75.8741 869.2246,-85.9686 874.8174,-81.7588"/>
</g>
<!-- Node25 -->
<g id="node26" class="node">
<title>Node25</title>
<g id="a_node26"><a xlink:href="../../d6/da2/GPUCommonMath_8h.html" target="_top" xlink:title="GPUCommonMath.h">
<polygon fill="none" stroke="#000000" points="754.5,-112.5 754.5,-131.5 869.5,-131.5 869.5,-112.5 754.5,-112.5"/>
<text text-anchor="middle" x="812" y="-119.5" font-family="Helvetica,sans-Serif" font-size="10.00" fill="#000000">GPUCommonMath.h</text>
</a>
</g>
</g>
<!-- Node21&#45;&gt;Node25 -->
<g id="edge32" class="edge">
<title>Node21&#45;&gt;Node25</title>
<path fill="none" stroke="#191970" d="M966.0255,-168.3733C934.8287,-158.9807 887.229,-144.6496 853.2068,-134.4064"/>
<polygon fill="#191970" stroke="#191970" points="854.1418,-131.0327 843.5573,-131.5011 852.1237,-137.7355 854.1418,-131.0327"/>
</g>
<!-- Node26 -->
<g id="node27" class="node">
<title>Node26</title>
<g id="a_node27"><a xlink:href="../../d6/d84/MathConstants_8h.html" target="_top" xlink:title="useful math constants ">
<polygon fill="none" stroke="#000000" points="926,-112.5 926,-131.5 1120,-131.5 1120,-112.5 926,-112.5"/>
<text text-anchor="middle" x="1023" y="-119.5" font-family="Helvetica,sans-Serif" font-size="10.00" fill="#000000">CommonConstants/MathConstants.h</text>
</a>
</g>
</g>
<!-- Node21&#45;&gt;Node26 -->
<g id="edge36" class="edge">
<title>Node21&#45;&gt;Node26</title>
<path fill="none" stroke="#191970" d="M1002.3547,-168.2455C1005.7244,-160.6973 1010.493,-150.0158 1014.5983,-140.8197"/>
<polygon fill="#191970" stroke="#191970" points="1017.8147,-142.2009 1018.6952,-131.6427 1011.4227,-139.3473 1017.8147,-142.2009"/>
</g>
<!-- Node23 -->
<g id="node24" class="node">
<title>Node23</title>
<g id="a_node24"><a xlink:href="../../d5/d93/GPUCommonDefSettings_8h.html" target="_top" xlink:title="GPUCommonDefSettings.h">
<polygon fill="none" stroke="#000000" points="708,-.5 708,-19.5 856,-19.5 856,-.5 708,-.5"/>
<text text-anchor="middle" x="782" y="-7.5" font-family="Helvetica,sans-Serif" font-size="10.00" fill="#000000">GPUCommonDefSettings.h</text>
</a>
</g>
</g>
<!-- Node22&#45;&gt;Node23 -->
<g id="edge30" class="edge">
<title>Node22&#45;&gt;Node23</title>
<path fill="none" stroke="#191970" d="M845.5876,-56.2455C833.9943,-47.814 817.0252,-35.4729 803.5322,-25.6598"/>
<polygon fill="#191970" stroke="#191970" points="805.4047,-22.6938 795.2587,-19.6427 801.2874,-28.355 805.4047,-22.6938"/>
</g>
<!-- Node24 -->
<g id="node25" class="node">
<title>Node24</title>
<g id="a_node25"><a xlink:href="../../da/d5a/GPUCommonDefAPI_8h.html" target="_top" xlink:title="GPUCommonDefAPI.h">
<polygon fill="none" stroke="#000000" points="874,-.5 874,-19.5 998,-19.5 998,-.5 874,-.5"/>
<text text-anchor="middle" x="936" y="-7.5" font-family="Helvetica,sans-Serif" font-size="10.00" fill="#000000">GPUCommonDefAPI.h</text>
</a>
</g>
</g>
<!-- Node22&#45;&gt;Node24 -->
<g id="edge31" class="edge">
<title>Node22&#45;&gt;Node24</title>
<path fill="none" stroke="#191970" d="M872.4124,-56.2455C884.0057,-47.814 900.9748,-35.4729 914.4678,-25.6598"/>
<polygon fill="#191970" stroke="#191970" points="916.7126,-28.355 922.7413,-19.6427 912.5953,-22.6938 916.7126,-28.355"/>
</g>
<!-- Node25&#45;&gt;Node1 -->
<g id="edge35" class="edge">
<title>Node25&#45;&gt;Node1</title>
<path fill="none" stroke="#191970" d="M754.0476,-115.0208C659.1404,-103.5911 472.7883,-81.1487 389.258,-71.0891"/>
<polygon fill="#191970" stroke="#191970" points="389.4665,-67.589 379.1197,-69.8682 388.6294,-74.5388 389.4665,-67.589"/>
</g>
<!-- Node25&#45;&gt;Node7 -->
<g id="edge34" class="edge">
<title>Node25&#45;&gt;Node7</title>
<path fill="none" stroke="#191970" d="M797.0199,-112.2455C783.8249,-103.6534 764.3949,-91.0014 749.1921,-81.1018"/>
<polygon fill="#191970" stroke="#191970" points="751.0983,-78.1665 740.8084,-75.6427 747.2785,-84.0325 751.0983,-78.1665"/>
</g>
<!-- Node25&#45;&gt;Node22 -->
<g id="edge33" class="edge">
<title>Node25&#45;&gt;Node22</title>
<path fill="none" stroke="#191970" d="M820.1868,-112.2455C826.8589,-104.2958 836.4479,-92.8706 844.4253,-83.3656"/>
<polygon fill="#191970" stroke="#191970" points="847.1592,-85.5525 850.907,-75.6427 841.7974,-81.0524 847.1592,-85.5525"/>
</g>
<!-- Node27&#45;&gt;Node5 -->
<g id="edge38" class="edge">
<title>Node27&#45;&gt;Node5</title>
<path fill="none" stroke="#191970" d="M922.3303,-291.4119C894.917,-282.2227 860.3881,-269.478 831,-255 793.9439,-236.7443 753.997,-210.0512 730.2648,-193.3697"/>
<polygon fill="#191970" stroke="#191970" points="732.1834,-190.4394 722.003,-187.505 728.1314,-196.1475 732.1834,-190.4394"/>
</g>
<!-- Node27&#45;&gt;Node8 -->
<g id="edge39" class="edge">
<title>Node27&#45;&gt;Node8</title>
<path fill="none" stroke="#191970" d="M976.1227,-291.486C981.0924,-274.1324 986.3674,-245.2402 975,-224 967.4933,-209.9736 953.6113,-199.4854 940.2564,-192.0944"/>
<polygon fill="#191970" stroke="#191970" points="941.6784,-188.8908 931.1796,-187.4669 938.4989,-195.1271 941.6784,-188.8908"/>
</g>
<!-- Node27&#45;&gt;Node9 -->
<g id="edge41" class="edge">
<title>Node27&#45;&gt;Node9</title>
<path fill="none" stroke="#191970" d="M903.0906,-292.4075C900.3607,-291.9179 897.6559,-291.4465 895,-291 795.4351,-274.2599 680.7451,-259.6036 602.0252,-250.2511"/>
<polygon fill="#191970" stroke="#191970" points="601.986,-246.7222 591.6442,-249.0237 601.1641,-253.6737 601.986,-246.7222"/>
</g>
<!-- Node27&#45;&gt;Node17 -->
<g id="edge43" class="edge">
<title>Node27&#45;&gt;Node17</title>
<path fill="none" stroke="#191970" d="M1015.6595,-291.4639C1045.2568,-281.499 1084.2689,-268.3642 1115.6654,-257.7936"/>
<polygon fill="#191970" stroke="#191970" points="1116.7853,-261.1096 1125.1457,-254.6017 1114.5516,-254.4755 1116.7853,-261.1096"/>
</g>
<!-- Node28 -->
<g id="node29" class="node">
<title>Node28</title>
<polygon fill="none" stroke="#bfbfbf" points="1022,-230 1022,-249 1066,-249 1066,-230 1022,-230"/>
<text text-anchor="middle" x="1044" y="-237" font-family="Helvetica,sans-Serif" font-size="10.00" fill="#000000">ctime</text>
</g>
<!-- Node27&#45;&gt;Node28 -->
<g id="edge40" class="edge">
<title>Node27&#45;&gt;Node28</title>
<path fill="none" stroke="#191970" d="M987.5648,-291.2967C999.049,-280.7564 1014.3312,-266.7303 1026.0962,-255.9323"/>
<polygon fill="#191970" stroke="#191970" points="1028.5886,-258.3954 1033.5894,-249.055 1023.8553,-253.2382 1028.5886,-258.3954"/>
</g>
<!-- Node29 -->
<g id="node30" class="node">
<title>Node29</title>
<g id="a_node30"><a xlink:href="../../da/d58/Units_8h.html" target="_top" xlink:title="Header to collect definitions for different units. ">
<polygon fill="none" stroke="#000000" points="840,-230 840,-249 966,-249 966,-230 840,-230"/>
<text text-anchor="middle" x="903" y="-237" font-family="Helvetica,sans-Serif" font-size="10.00" fill="#000000">CommonTypes/Units.h</text>
</a>
</g>
</g>
<!-- Node27&#45;&gt;Node29 -->
<g id="edge42" class="edge">
<title>Node27&#45;&gt;Node29</title>
<path fill="none" stroke="#191970" d="M955.5697,-291.2967C944.975,-280.8578 930.9101,-266.9997 919.9946,-256.2446"/>
<polygon fill="#191970" stroke="#191970" points="922.2773,-253.5804 912.6976,-249.055 917.3644,-258.5666 922.2773,-253.5804"/>
</g>
<!-- Node31&#45;&gt;Node4 -->
<g id="edge50" class="edge">
<title>Node31&#45;&gt;Node4</title>
<path fill="none" stroke="#191970" d="M513.0937,-363.9005C547.4363,-353.6284 602.6935,-337.1006 645.1145,-324.4122"/>
<polygon fill="#191970" stroke="#191970" points="646.2004,-327.7407 654.778,-321.5218 644.1944,-321.0342 646.2004,-327.7407"/>
</g>
<!-- Node31&#45;&gt;Node5 -->
<g id="edge46" class="edge">
<title>Node31&#45;&gt;Node5</title>
<path fill="none" stroke="#191970" d="M407.8965,-367.7304C311.1586,-359.3423 150.7057,-342.5188 133,-322 123.999,-311.5689 124.5861,-301.9102 133,-291 198.8465,-205.6177 549.4095,-184.1799 668.9951,-179.3128"/>
<polygon fill="#191970" stroke="#191970" points="669.3213,-182.8028 679.1774,-178.9161 669.0487,-175.8081 669.3213,-182.8028"/>
</g>
<!-- Node31&#45;&gt;Node9 -->
<g id="edge52" class="edge">
<title>Node31&#45;&gt;Node9</title>
<path fill="none" stroke="#191970" d="M486.7822,-363.6434C492.3575,-353.5631 500.4559,-337.2613 504,-322 508.847,-301.1285 509.056,-276.4987 508.391,-259.6181"/>
<polygon fill="#191970" stroke="#191970" points="511.8688,-259.1087 507.8372,-249.3109 504.8788,-259.4843 511.8688,-259.1087"/>
</g>
<!-- Node31&#45;&gt;Node11 -->
<g id="edge49" class="edge">
<title>Node31&#45;&gt;Node11</title>
<path fill="none" stroke="#191970" d="M494.6112,-363.9005C510.1311,-352.9549 535.7223,-334.9064 554.0667,-321.9688"/>
<polygon fill="#191970" stroke="#191970" points="556.2592,-324.7054 562.4141,-316.0817 552.2248,-318.9849 556.2592,-324.7054"/>
</g>
<!-- Node31&#45;&gt;Node14 -->
<g id="edge51" class="edge">
<title>Node31&#45;&gt;Node14</title>
<path fill="none" stroke="#191970" d="M469.538,-363.9005C456.7062,-353.1539 435.6989,-335.5603 420.3187,-322.6794"/>
<polygon fill="#191970" stroke="#191970" points="422.3545,-319.8191 412.4408,-316.0817 417.86,-325.1856 422.3545,-319.8191"/>
</g>
<!-- Node32 -->
<g id="node33" class="node">
<title>Node32</title>
<polygon fill="none" stroke="#bfbfbf" points="232,-297 232,-316 288,-316 288,-297 232,-297"/>
<text text-anchor="middle" x="260" y="-304" font-family="Helvetica,sans-Serif" font-size="10.00" fill="#000000">TMath.h</text>
</g>
<!-- Node31&#45;&gt;Node32 -->
<g id="edge47" class="edge">
<title>Node31&#45;&gt;Node32</title>
<path fill="none" stroke="#191970" d="M441.4398,-363.9388C403.8794,-354.507 346.0317,-339.0584 297,-322 295.1253,-321.3478 293.2095,-320.6487 291.2849,-319.9212"/>
<polygon fill="#191970" stroke="#191970" points="292.3247,-316.5684 281.7388,-316.1333 289.7429,-323.0749 292.3247,-316.5684"/>
</g>
<!-- Node33 -->
<g id="node34" class="node">
<title>Node33</title>
<polygon fill="none" stroke="#bfbfbf" points="142,-297 142,-316 214,-316 214,-297 142,-297"/>
<text text-anchor="middle" x="178" y="-304" font-family="Helvetica,sans-Serif" font-size="10.00" fill="#000000">TRandom.h</text>
</g>
<!-- Node31&#45;&gt;Node33 -->
<g id="edge48" class="edge">
<title>Node31&#45;&gt;Node33</title>
<path fill="none" stroke="#191970" d="M421.5546,-363.9779C368.9201,-354.9925 290.2349,-340.2009 223,-322 219.9866,-321.1843 216.8825,-320.2717 213.7802,-319.3087"/>
<polygon fill="#191970" stroke="#191970" points="214.5823,-315.8889 203.99,-316.1174 212.4129,-322.5443 214.5823,-315.8889"/>
</g>
<!-- Node34&#45;&gt;Node17 -->
<g id="edge54" class="edge">
<title>Node34&#45;&gt;Node17</title>
<path fill="none" stroke="#191970" d="M1265.795,-358.476C1264.8664,-340.8516 1261.1037,-311.447 1247,-291 1238.2451,-278.3075 1225.2479,-267.8986 1212.4139,-259.8432"/>
<polygon fill="#191970" stroke="#191970" points="1213.9994,-256.7147 1203.6091,-254.6431 1210.4397,-262.7421 1213.9994,-256.7147"/>
</g>
<!-- Node35 -->
<g id="node36" class="node">
<title>Node35</title>
<g id="a_node36"><a xlink:href="../../d4/d8f/StringUtils_8h.html" target="_top" xlink:title="CommonUtils/StringUtils.h">
<polygon fill="none" stroke="#000000" points="1386,-297 1386,-316 1532,-316 1532,-297 1386,-297"/>
<text text-anchor="middle" x="1459" y="-304" font-family="Helvetica,sans-Serif" font-size="10.00" fill="#000000">CommonUtils/StringUtils.h</text>
</a>
</g>
</g>
<!-- Node34&#45;&gt;Node35 -->
<g id="edge55" class="edge">
<title>Node34&#45;&gt;Node35</title>
<path fill="none" stroke="#191970" d="M1309.313,-358.4639C1343.2553,-346.6808 1389.9645,-330.4657 1422.1329,-319.2984"/>
<polygon fill="#191970" stroke="#191970" points="1423.32,-322.5913 1431.6191,-316.0053 1421.0243,-315.9784 1423.32,-322.5913"/>
</g>
<!-- Node37 -->
<g id="node38" class="node">
<title>Node37</title>
<polygon fill="none" stroke="#bfbfbf" points="1294.5,-297 1294.5,-316 1367.5,-316 1367.5,-297 1294.5,-297"/>
<text text-anchor="middle" x="1331" y="-304" font-family="Helvetica,sans-Serif" font-size="10.00" fill="#000000">string_view</text>
</g>
<!-- Node34&#45;&gt;Node37 -->
<g id="edge57" class="edge">
<title>Node34&#45;&gt;Node37</title>
<path fill="none" stroke="#191970" d="M1280.7495,-358.2967C1290.8768,-347.8578 1304.3212,-333.9997 1314.7552,-323.2446"/>
<polygon fill="#191970" stroke="#191970" points="1317.2792,-325.6695 1321.7303,-316.055 1312.255,-320.7953 1317.2792,-325.6695"/>
</g>
<!-- Node36 -->
<g id="node37" class="node">
<title>Node36</title>
<polygon fill="none" stroke="#bfbfbf" points="1431,-230 1431,-249 1487,-249 1487,-230 1431,-230"/>
<text text-anchor="middle" x="1459" y="-237" font-family="Helvetica,sans-Serif" font-size="10.00" fill="#000000">sstream</text>
</g>
<!-- Node35&#45;&gt;Node36 -->
<g id="edge56" class="edge">
<title>Node35&#45;&gt;Node36</title>
<path fill="none" stroke="#191970" d="M1459,-296.9005C1459,-287.149 1459,-271.7597 1459,-259.3695"/>
<polygon fill="#191970" stroke="#191970" points="1462.5001,-259.0816 1459,-249.0817 1455.5001,-259.0817 1462.5001,-259.0816"/>
</g>
</g>
</svg>
        <g id="navigator" transform="translate(0 0)" fill="#404254">
                <rect fill="#f2f5e9" fill-opacity="0.5" stroke="#606060" stroke-width=".5" x="0" y="0" width="60" height="60"/>
                <use id="zoomplus" xlink:href="#zoomPlus" x="17" y="9" onmousedown="handleZoom(evt,'in')"/>
                <use id="zoomminus" xlink:href="#zoomMin" x="42" y="9" onmousedown="handleZoom(evt,'out')"/>
                <use id="reset" xlink:href="#resetDef" x="30" y="36" onmousedown="handleReset()"/>
                <g id="arrowUp" xlink:href="#dirArrow" transform="translate(30 24)" onmousedown="handlePan(0,-1)">
                  <use xlink:href="#rim" fill="#404040">
                        <set attributeName="fill" to="#808080" begin="arrowUp.mouseover" end="arrowUp.mouseout"/>
                  </use>
                  <path fill="none" stroke="white" stroke-width="1.5" d="M0,-3.0v7 M-2.5,-0.5L0,-3.0L2.5,-0.5"/>
                </g>
                <g id="arrowRight" xlink:href="#dirArrow" transform="rotate(90) translate(36 -43)" onmousedown="handlePan(1,0)">
                  <use xlink:href="#rim" fill="#404040">
                        <set attributeName="fill" to="#808080" begin="arrowRight.mouseover" end="arrowRight.mouseout"/>
                  </use>
                  <path fill="none" stroke="white" stroke-width="1.5" d="M0,-3.0v7 M-2.5,-0.5L0,-3.0L2.5,-0.5"/>
                </g>
                <g id="arrowDown" xlink:href="#dirArrow" transform="rotate(180) translate(-30 -48)" onmousedown="handlePan(0,1)">
                  <use xlink:href="#rim" fill="#404040">
                        <set attributeName="fill" to="#808080" begin="arrowDown.mouseover" end="arrowDown.mouseout"/>
                  </use>
                  <path fill="none" stroke="white" stroke-width="1.5" d="M0,-3.0v7 M-2.5,-0.5L0,-3.0L2.5,-0.5"/>
                </g>
                <g id="arrowLeft" xlink:href="#dirArrow" transform="rotate(270) translate(-36 17)" onmousedown="handlePan(-1,0)">
                  <use xlink:href="#rim" fill="#404040">
                        <set attributeName="fill" to="#808080" begin="arrowLeft.mouseover" end="arrowLeft.mouseout"/>
                  </use>
                  <path fill="none" stroke="white" stroke-width="1.5" d="M0,-3.0v7 M-2.5,-0.5L0,-3.0L2.5,-0.5"/>
                </g>
        </g>
        <svg viewBox="0 0 15 15" width="100%" height="30px" preserveAspectRatio="xMaxYMin meet">
         <g id="arrow_out" transform="scale(0.3 0.3)">
          <a xlink:href="testHitProcessingManager_8cxx__incl_org.svg" target="_base">
           <rect id="button" ry="5" rx="5" y="6" x="6" height="38" width="38"
                fill="#f2f5e9" fill-opacity="0.5" stroke="#606060" stroke-width="1.0"/>
           <path id="arrow"
             d="M 11.500037,31.436501 C 11.940474,20.09759 22.043105,11.32322 32.158766,21.979434 L 37.068811,17.246167 C 37.068811,17.246167 37.088388,32 37.088388,32 L 22.160133,31.978069 C 22.160133,31.978069 26.997745,27.140456 26.997745,27.140456 C 18.528582,18.264221 13.291696,25.230495 11.500037,31.436501 z"
             style="fill:#404040;"/>
          </a>
         </g>
        </svg>
</svg>
