<?xml version="1.0" encoding="UTF-8" standalone="no"?>
<!DOCTYPE svg PUBLIC "-//W3C//DTD SVG 1.1//EN"
 "http://www.w3.org/Graphics/SVG/1.1/DTD/svg11.dtd">
<!-- Generated by graphviz version 2.40.1 (20161225.0304)
 -->
<!-- Title: /home/travis/build/AliceO2Group/AliceO2/GPU/GPUTracking/Base/GPUO2DataTypes.h Pages: 1 -->
<svg width="2716pt" height="506pt"
 viewBox="0.00 0.00 2716.00 506.00" xmlns="http://www.w3.org/2000/svg" xmlns:xlink="http://www.w3.org/1999/xlink">
<g id="graph0" class="graph" transform="scale(1 1) rotate(0) translate(4 502)">
<title>/home/travis/build/AliceO2Group/AliceO2/GPU/GPUTracking/Base/GPUO2DataTypes.h</title>
<!-- Node8 -->
<g id="node1" class="node">
<title>Node8</title>
<polygon fill="#bfbfbf" stroke="#000000" points="1101.5,-445.5 1101.5,-497.5 1233.5,-497.5 1233.5,-445.5 1101.5,-445.5"/>
<text text-anchor="start" x="1109.5" y="-485.5" font-family="Helvetica,sans-Serif" font-size="10.00" fill="#000000">/home/travis/build</text>
<text text-anchor="start" x="1109.5" y="-474.5" font-family="Helvetica,sans-Serif" font-size="10.00" fill="#000000">/AliceO2Group/AliceO2</text>
<text text-anchor="start" x="1109.5" y="-463.5" font-family="Helvetica,sans-Serif" font-size="10.00" fill="#000000">/GPU/GPUTracking/Base</text>
<text text-anchor="middle" x="1167.5" y="-452.5" font-family="Helvetica,sans-Serif" font-size="10.00" fill="#000000">/GPUO2DataTypes.h</text>
</g>
<!-- Node9 -->
<g id="node2" class="node">
<title>Node9</title>
<g id="a_node2"><a xlink:href="../../dd/d7f/GPUReconstructionConvert_8cxx.html" target="_top" xlink:title="/home/travis/build\l/AliceO2Group/AliceO2\l/GPU/GPUTracking/Base\l/GPUReconstructionConvert.cxx">
<polygon fill="none" stroke="#000000" points="0,-356.5 0,-408.5 171,-408.5 171,-356.5 0,-356.5"/>
<text text-anchor="start" x="8" y="-396.5" font-family="Helvetica,sans-Serif" font-size="10.00" fill="#000000">/home/travis/build</text>
<text text-anchor="start" x="8" y="-385.5" font-family="Helvetica,sans-Serif" font-size="10.00" fill="#000000">/AliceO2Group/AliceO2</text>
<text text-anchor="start" x="8" y="-374.5" font-family="Helvetica,sans-Serif" font-size="10.00" fill="#000000">/GPU/GPUTracking/Base</text>
<text text-anchor="middle" x="85.5" y="-363.5" font-family="Helvetica,sans-Serif" font-size="10.00" fill="#000000">/GPUReconstructionConvert.cxx</text>
</a>
</g>
</g>
<!-- Node8&#45;&gt;Node9 -->
<g id="edge1" class="edge">
<title>Node8&#45;&gt;Node9</title>
<path fill="none" stroke="#191970" d="M1091.0447,-468.758C890.8232,-461.242 354.5618,-438.8666 179.5,-409 176.7422,-408.5295 173.9494,-408.0096 171.1375,-407.4485"/>
<polygon fill="#191970" stroke="#191970" points="1091.0563,-472.2608 1101.18,-469.1365 1091.3176,-465.2656 1091.0563,-472.2608"/>
</g>
<!-- Node10 -->
<g id="node3" class="node">
<title>Node10</title>
<g id="a_node3"><a xlink:href="../../d7/d36/GPUReconstructionTimeframe_8cxx.html" target="_top" xlink:title="/home/travis/build\l/AliceO2Group/AliceO2\l/GPU/GPUTracking/Base\l/GPUReconstructionTimeframe.cxx">
<polygon fill="none" stroke="#000000" points="189,-356.5 189,-408.5 376,-408.5 376,-356.5 189,-356.5"/>
<text text-anchor="start" x="197" y="-396.5" font-family="Helvetica,sans-Serif" font-size="10.00" fill="#000000">/home/travis/build</text>
<text text-anchor="start" x="197" y="-385.5" font-family="Helvetica,sans-Serif" font-size="10.00" fill="#000000">/AliceO2Group/AliceO2</text>
<text text-anchor="start" x="197" y="-374.5" font-family="Helvetica,sans-Serif" font-size="10.00" fill="#000000">/GPU/GPUTracking/Base</text>
<text text-anchor="middle" x="282.5" y="-363.5" font-family="Helvetica,sans-Serif" font-size="10.00" fill="#000000">/GPUReconstructionTimeframe.cxx</text>
</a>
</g>
</g>
<!-- Node8&#45;&gt;Node10 -->
<g id="edge2" class="edge">
<title>Node8&#45;&gt;Node10</title>
<path fill="none" stroke="#191970" d="M1091.0392,-469.8183C950.3021,-465.7452 641.1433,-452.2408 384.5,-409 381.7035,-408.5288 378.8717,-408.0176 376.0192,-407.4728"/>
<polygon fill="#191970" stroke="#191970" points="1091.1906,-473.3238 1101.2851,-470.1066 1091.3876,-466.3266 1091.1906,-473.3238"/>
</g>
<!-- Node11 -->
<g id="node4" class="node">
<title>Node11</title>
<g id="a_node4"><a xlink:href="../../dd/d27/GPUTPCClusterStatistics_8cxx.html" target="_top" xlink:title="/home/travis/build\l/AliceO2Group/AliceO2\l/GPU/GPUTracking/DataCompression\l/GPUTPCClusterStatistics.cxx">
<polygon fill="none" stroke="#000000" points="394,-356.5 394,-408.5 589,-408.5 589,-356.5 394,-356.5"/>
<text text-anchor="start" x="402" y="-396.5" font-family="Helvetica,sans-Serif" font-size="10.00" fill="#000000">/home/travis/build</text>
<text text-anchor="start" x="402" y="-385.5" font-family="Helvetica,sans-Serif" font-size="10.00" fill="#000000">/AliceO2Group/AliceO2</text>
<text text-anchor="start" x="402" y="-374.5" font-family="Helvetica,sans-Serif" font-size="10.00" fill="#000000">/GPU/GPUTracking/DataCompression</text>
<text text-anchor="middle" x="491.5" y="-363.5" font-family="Helvetica,sans-Serif" font-size="10.00" fill="#000000">/GPUTPCClusterStatistics.cxx</text>
</a>
</g>
</g>
<!-- Node8&#45;&gt;Node11 -->
<g id="edge3" class="edge">
<title>Node8&#45;&gt;Node11</title>
<path fill="none" stroke="#191970" d="M1091.269,-466.4473C981.4977,-458.4244 772.8262,-440.3783 597.5,-409 594.6991,-408.4987 591.8626,-407.9652 589.0041,-407.405"/>
<polygon fill="#191970" stroke="#191970" points="1091.0301,-469.9391 1101.2565,-467.1695 1091.535,-462.9573 1091.0301,-469.9391"/>
</g>
<!-- Node12 -->
<g id="node5" class="node">
<title>Node12</title>
<g id="a_node5"><a xlink:href="../../d0/dbb/GPUTPCCompression_8cxx.html" target="_top" xlink:title="/home/travis/build\l/AliceO2Group/AliceO2\l/GPU/GPUTracking/DataCompression\l/GPUTPCCompression.cxx">
<polygon fill="none" stroke="#000000" points="607,-356.5 607,-408.5 802,-408.5 802,-356.5 607,-356.5"/>
<text text-anchor="start" x="615" y="-396.5" font-family="Helvetica,sans-Serif" font-size="10.00" fill="#000000">/home/travis/build</text>
<text text-anchor="start" x="615" y="-385.5" font-family="Helvetica,sans-Serif" font-size="10.00" fill="#000000">/AliceO2Group/AliceO2</text>
<text text-anchor="start" x="615" y="-374.5" font-family="Helvetica,sans-Serif" font-size="10.00" fill="#000000">/GPU/GPUTracking/DataCompression</text>
<text text-anchor="middle" x="704.5" y="-363.5" font-family="Helvetica,sans-Serif" font-size="10.00" fill="#000000">/GPUTPCCompression.cxx</text>
</a>
</g>
</g>
<!-- Node8&#45;&gt;Node12 -->
<g id="edge4" class="edge">
<title>Node8&#45;&gt;Node12</title>
<path fill="none" stroke="#191970" d="M1091.1695,-459.2736C1019.7033,-447.5127 910.0518,-428.6631 815.5,-409 811.1356,-408.0924 806.6809,-407.1396 802.1855,-406.1566"/>
<polygon fill="#191970" stroke="#191970" points="1090.9956,-462.7918 1101.4303,-460.9566 1092.1287,-455.8841 1090.9956,-462.7918"/>
</g>
<!-- Node13 -->
<g id="node6" class="node">
<title>Node13</title>
<g id="a_node6"><a xlink:href="../../d9/d57/GPUTPCCompressionKernels_8cxx.html" target="_top" xlink:title="/home/travis/build\l/AliceO2Group/AliceO2\l/GPU/GPUTracking/DataCompression\l/GPUTPCCompressionKernels.cxx">
<polygon fill="none" stroke="#000000" points="532,-178.5 532,-230.5 727,-230.5 727,-178.5 532,-178.5"/>
<text text-anchor="start" x="540" y="-218.5" font-family="Helvetica,sans-Serif" font-size="10.00" fill="#000000">/home/travis/build</text>
<text text-anchor="start" x="540" y="-207.5" font-family="Helvetica,sans-Serif" font-size="10.00" fill="#000000">/AliceO2Group/AliceO2</text>
<text text-anchor="start" x="540" y="-196.5" font-family="Helvetica,sans-Serif" font-size="10.00" fill="#000000">/GPU/GPUTracking/DataCompression</text>
<text text-anchor="middle" x="629.5" y="-185.5" font-family="Helvetica,sans-Serif" font-size="10.00" fill="#000000">/GPUTPCCompressionKernels.cxx</text>
</a>
</g>
</g>
<!-- Node8&#45;&gt;Node13 -->
<g id="edge5" class="edge">
<title>Node8&#45;&gt;Node13</title>
<path fill="none" stroke="#191970" d="M1091.3362,-459.3362C1050.8258,-450.2251 1001.6503,-434.7477 963.5,-409 896.1847,-363.5687 916.2505,-311.7798 848.5,-267 837.6768,-259.8464 780.386,-243.5995 727.12,-229.4638"/>
<polygon fill="#191970" stroke="#191970" points="1090.6552,-462.7698 1101.169,-461.4623 1092.1346,-455.9279 1090.6552,-462.7698"/>
</g>
<!-- Node14 -->
<g id="node7" class="node">
<title>Node14</title>
<g id="a_node7"><a xlink:href="../../dc/df2/TPCClusterDecompressor_8cxx.html" target="_top" xlink:title="/home/travis/build\l/AliceO2Group/AliceO2\l/GPU/GPUTracking/DataCompression\l/TPCClusterDecompressor.cxx">
<polygon fill="none" stroke="#000000" points="1283,-356.5 1283,-408.5 1478,-408.5 1478,-356.5 1283,-356.5"/>
<text text-anchor="start" x="1291" y="-396.5" font-family="Helvetica,sans-Serif" font-size="10.00" fill="#000000">/home/travis/build</text>
<text text-anchor="start" x="1291" y="-385.5" font-family="Helvetica,sans-Serif" font-size="10.00" fill="#000000">/AliceO2Group/AliceO2</text>
<text text-anchor="start" x="1291" y="-374.5" font-family="Helvetica,sans-Serif" font-size="10.00" fill="#000000">/GPU/GPUTracking/DataCompression</text>
<text text-anchor="middle" x="1380.5" y="-363.5" font-family="Helvetica,sans-Serif" font-size="10.00" fill="#000000">/TPCClusterDecompressor.cxx</text>
</a>
</g>
</g>
<!-- Node8&#45;&gt;Node14 -->
<g id="edge6" class="edge">
<title>Node8&#45;&gt;Node14</title>
<path fill="none" stroke="#191970" d="M1239.2318,-441.5276C1264.7794,-430.8527 1293.3253,-418.9251 1318.0333,-408.6011"/>
<polygon fill="#191970" stroke="#191970" points="1237.8453,-438.3136 1229.9678,-445.3984 1240.5442,-444.7724 1237.8453,-438.3136"/>
</g>
<!-- Node15 -->
<g id="node8" class="node">
<title>Node15</title>
<g id="a_node8"><a xlink:href="../../d2/d58/GPUChainTracking_8cxx.html" target="_top" xlink:title="/home/travis/build\l/AliceO2Group/AliceO2\l/GPU/GPUTracking/Global\l/GPUChainTracking.cxx">
<polygon fill="none" stroke="#000000" points="1496.5,-356.5 1496.5,-408.5 1636.5,-408.5 1636.5,-356.5 1496.5,-356.5"/>
<text text-anchor="start" x="1504.5" y="-396.5" font-family="Helvetica,sans-Serif" font-size="10.00" fill="#000000">/home/travis/build</text>
<text text-anchor="start" x="1504.5" y="-385.5" font-family="Helvetica,sans-Serif" font-size="10.00" fill="#000000">/AliceO2Group/AliceO2</text>
<text text-anchor="start" x="1504.5" y="-374.5" font-family="Helvetica,sans-Serif" font-size="10.00" fill="#000000">/GPU/GPUTracking/Global</text>
<text text-anchor="middle" x="1566.5" y="-363.5" font-family="Helvetica,sans-Serif" font-size="10.00" fill="#000000">/GPUChainTracking.cxx</text>
</a>
</g>
</g>
<!-- Node8&#45;&gt;Node15 -->
<g id="edge7" class="edge">
<title>Node8&#45;&gt;Node15</title>
<path fill="none" stroke="#191970" d="M1243.8451,-459.48C1309.0782,-448.5229 1405.1612,-430.7511 1487.5,-409 1490.4372,-408.2241 1493.4241,-407.3972 1496.4328,-406.5328"/>
<polygon fill="#191970" stroke="#191970" points="1242.9358,-456.0832 1233.6473,-461.1797 1244.0866,-462.988 1242.9358,-456.0832"/>
</g>
<!-- Node16 -->
<g id="node9" class="node">
<title>Node16</title>
<g id="a_node9"><a xlink:href="../../d3/d85/GPUChainTrackingIO_8cxx.html" target="_top" xlink:title="/home/travis/build\l/AliceO2Group/AliceO2\l/GPU/GPUTracking/Global\l/GPUChainTrackingIO.cxx">
<polygon fill="none" stroke="#000000" points="1654.5,-356.5 1654.5,-408.5 1794.5,-408.5 1794.5,-356.5 1654.5,-356.5"/>
<text text-anchor="start" x="1662.5" y="-396.5" font-family="Helvetica,sans-Serif" font-size="10.00" fill="#000000">/home/travis/build</text>
<text text-anchor="start" x="1662.5" y="-385.5" font-family="Helvetica,sans-Serif" font-size="10.00" fill="#000000">/AliceO2Group/AliceO2</text>
<text text-anchor="start" x="1662.5" y="-374.5" font-family="Helvetica,sans-Serif" font-size="10.00" fill="#000000">/GPU/GPUTracking/Global</text>
<text text-anchor="middle" x="1724.5" y="-363.5" font-family="Helvetica,sans-Serif" font-size="10.00" fill="#000000">/GPUChainTrackingIO.cxx</text>
</a>
</g>
</g>
<!-- Node8&#45;&gt;Node16 -->
<g id="edge8" class="edge">
<title>Node8&#45;&gt;Node16</title>
<path fill="none" stroke="#191970" d="M1243.6422,-466.1177C1338.6472,-458.3593 1505.6434,-441.2795 1645.5,-409 1648.4601,-408.3168 1651.4662,-407.5674 1654.4908,-406.7671"/>
<polygon fill="#191970" stroke="#191970" points="1243.236,-462.6389 1233.5486,-466.9289 1243.7969,-469.6164 1243.236,-462.6389"/>
</g>
<!-- Node17 -->
<g id="node10" class="node">
<title>Node17</title>
<g id="a_node10"><a xlink:href="../../d1/dc3/GPUTPCGMSliceTrack_8h.html" target="_top" xlink:title="/home/travis/build\l/AliceO2Group/AliceO2\l/GPU/GPUTracking/Merger\l/GPUTPCGMSliceTrack.h">
<polygon fill="none" stroke="#000000" points="1047.5,-356.5 1047.5,-408.5 1189.5,-408.5 1189.5,-356.5 1047.5,-356.5"/>
<text text-anchor="start" x="1055.5" y="-396.5" font-family="Helvetica,sans-Serif" font-size="10.00" fill="#000000">/home/travis/build</text>
<text text-anchor="start" x="1055.5" y="-385.5" font-family="Helvetica,sans-Serif" font-size="10.00" fill="#000000">/AliceO2Group/AliceO2</text>
<text text-anchor="start" x="1055.5" y="-374.5" font-family="Helvetica,sans-Serif" font-size="10.00" fill="#000000">/GPU/GPUTracking/Merger</text>
<text text-anchor="middle" x="1118.5" y="-363.5" font-family="Helvetica,sans-Serif" font-size="10.00" fill="#000000">/GPUTPCGMSliceTrack.h</text>
</a>
</g>
</g>
<!-- Node8&#45;&gt;Node17 -->
<g id="edge9" class="edge">
<title>Node8&#45;&gt;Node17</title>
<path fill="none" stroke="#191970" d="M1148.1064,-436.2749C1143.0121,-427.0219 1137.6094,-417.209 1132.8334,-408.5341"/>
<polygon fill="#191970" stroke="#191970" points="1145.1744,-438.2064 1153.0634,-445.2784 1151.3064,-434.8303 1145.1744,-438.2064"/>
</g>
<!-- Node22 -->
<g id="node15" class="node">
<title>Node22</title>
<g id="a_node15"><a xlink:href="../../d0/dd4/GPUTPCGMMerger_8cxx.html" target="_top" xlink:title="/home/travis/build\l/AliceO2Group/AliceO2\l/GPU/GPUTracking/Merger\l/GPUTPCGMMerger.cxx">
<polygon fill="none" stroke="#000000" points="745.5,-178.5 745.5,-230.5 887.5,-230.5 887.5,-178.5 745.5,-178.5"/>
<text text-anchor="start" x="753.5" y="-218.5" font-family="Helvetica,sans-Serif" font-size="10.00" fill="#000000">/home/travis/build</text>
<text text-anchor="start" x="753.5" y="-207.5" font-family="Helvetica,sans-Serif" font-size="10.00" fill="#000000">/AliceO2Group/AliceO2</text>
<text text-anchor="start" x="753.5" y="-196.5" font-family="Helvetica,sans-Serif" font-size="10.00" fill="#000000">/GPU/GPUTracking/Merger</text>
<text text-anchor="middle" x="816.5" y="-185.5" font-family="Helvetica,sans-Serif" font-size="10.00" fill="#000000">/GPUTPCGMMerger.cxx</text>
</a>
</g>
</g>
<!-- Node8&#45;&gt;Node22 -->
<g id="edge25" class="edge">
<title>Node8&#45;&gt;Node22</title>
<path fill="none" stroke="#191970" d="M1091.2851,-453.8061C1061.8255,-444.1792 1029.3087,-429.8444 1004.5,-409 948.1851,-361.684 971.3537,-319.1667 919.5,-267 905.3442,-252.7587 887.3208,-240.4093 870.3213,-230.5356"/>
<polygon fill="#191970" stroke="#191970" points="1090.554,-457.2447 1101.143,-456.893 1092.6459,-450.5646 1090.554,-457.2447"/>
</g>
<!-- Node23 -->
<g id="node16" class="node">
<title>Node23</title>
<g id="a_node16"><a xlink:href="../../d0/d24/GPUTPCGMMergerDump_8cxx.html" target="_top" xlink:title="/home/travis/build\l/AliceO2Group/AliceO2\l/GPU/GPUTracking/Merger\l/GPUTPCGMMergerDump.cxx">
<polygon fill="none" stroke="#000000" points="1879.5,-178.5 1879.5,-230.5 2037.5,-230.5 2037.5,-178.5 1879.5,-178.5"/>
<text text-anchor="start" x="1887.5" y="-218.5" font-family="Helvetica,sans-Serif" font-size="10.00" fill="#000000">/home/travis/build</text>
<text text-anchor="start" x="1887.5" y="-207.5" font-family="Helvetica,sans-Serif" font-size="10.00" fill="#000000">/AliceO2Group/AliceO2</text>
<text text-anchor="start" x="1887.5" y="-196.5" font-family="Helvetica,sans-Serif" font-size="10.00" fill="#000000">/GPU/GPUTracking/Merger</text>
<text text-anchor="middle" x="1958.5" y="-185.5" font-family="Helvetica,sans-Serif" font-size="10.00" fill="#000000">/GPUTPCGMMergerDump.cxx</text>
</a>
</g>
</g>
<!-- Node8&#45;&gt;Node23 -->
<g id="edge26" class="edge">
<title>Node8&#45;&gt;Node23</title>
<path fill="none" stroke="#191970" d="M1205.9976,-438.5052C1215.9799,-429.3182 1226.4582,-419.0842 1235.5,-409 1255.0238,-387.2254 1249.9029,-371.8206 1274.5,-356 1502.132,-209.5889 1608.2362,-297.86 1870.5,-231 1873.4376,-230.2511 1876.4239,-229.4674 1879.4354,-228.6582"/>
<polygon fill="#191970" stroke="#191970" points="1203.5521,-435.9979 1198.4927,-445.3066 1208.2528,-441.1848 1203.5521,-435.9979"/>
</g>
<!-- Node24 -->
<g id="node17" class="node">
<title>Node24</title>
<g id="a_node17"><a xlink:href="../../d5/d84/GPUTPCGMSliceTrack_8cxx.html" target="_top" xlink:title="/home/travis/build\l/AliceO2Group/AliceO2\l/GPU/GPUTracking/Merger\l/GPUTPCGMSliceTrack.cxx">
<polygon fill="none" stroke="#000000" points="1717.5,-178.5 1717.5,-230.5 1861.5,-230.5 1861.5,-178.5 1717.5,-178.5"/>
<text text-anchor="start" x="1725.5" y="-218.5" font-family="Helvetica,sans-Serif" font-size="10.00" fill="#000000">/home/travis/build</text>
<text text-anchor="start" x="1725.5" y="-207.5" font-family="Helvetica,sans-Serif" font-size="10.00" fill="#000000">/AliceO2Group/AliceO2</text>
<text text-anchor="start" x="1725.5" y="-196.5" font-family="Helvetica,sans-Serif" font-size="10.00" fill="#000000">/GPU/GPUTracking/Merger</text>
<text text-anchor="middle" x="1789.5" y="-185.5" font-family="Helvetica,sans-Serif" font-size="10.00" fill="#000000">/GPUTPCGMSliceTrack.cxx</text>
</a>
</g>
</g>
<!-- Node8&#45;&gt;Node24 -->
<g id="edge29" class="edge">
<title>Node8&#45;&gt;Node24</title>
<path fill="none" stroke="#191970" d="M1187.957,-436.3725C1219.8689,-382.98 1281.5576,-285.617 1317.5,-267 1394.9797,-226.868 1623.0529,-248.677 1708.5,-231 1711.3978,-230.4005 1714.3373,-229.7329 1717.2941,-229.0116"/>
<polygon fill="#191970" stroke="#191970" points="1184.8268,-434.7888 1182.7283,-445.1737 1190.8449,-438.3641 1184.8268,-434.7888"/>
</g>
<!-- Node25 -->
<g id="node18" class="node">
<title>Node25</title>
<g id="a_node18"><a xlink:href="../../df/dad/GPUTPCGMTrackParam_8cxx.html" target="_top" xlink:title="/home/travis/build\l/AliceO2Group/AliceO2\l/GPU/GPUTracking/Merger\l/GPUTPCGMTrackParam.cxx">
<polygon fill="none" stroke="#000000" points="905.5,-178.5 905.5,-230.5 1057.5,-230.5 1057.5,-178.5 905.5,-178.5"/>
<text text-anchor="start" x="913.5" y="-218.5" font-family="Helvetica,sans-Serif" font-size="10.00" fill="#000000">/home/travis/build</text>
<text text-anchor="start" x="913.5" y="-207.5" font-family="Helvetica,sans-Serif" font-size="10.00" fill="#000000">/AliceO2Group/AliceO2</text>
<text text-anchor="start" x="913.5" y="-196.5" font-family="Helvetica,sans-Serif" font-size="10.00" fill="#000000">/GPU/GPUTracking/Merger</text>
<text text-anchor="middle" x="981.5" y="-185.5" font-family="Helvetica,sans-Serif" font-size="10.00" fill="#000000">/GPUTPCGMTrackParam.cxx</text>
</a>
</g>
</g>
<!-- Node8&#45;&gt;Node25 -->
<g id="edge30" class="edge">
<title>Node8&#45;&gt;Node25</title>
<path fill="none" stroke="#191970" d="M1091.9216,-447.8141C1072.1904,-438.4639 1052.5452,-425.8203 1038.5,-409 994.679,-356.5206 984.4359,-272.7208 982.1175,-230.5455"/>
<polygon fill="#191970" stroke="#191970" points="1090.7241,-451.1128 1101.2807,-452.0121 1093.589,-444.7259 1090.7241,-451.1128"/>
</g>
<!-- Node28 -->
<g id="node21" class="node">
<title>Node28</title>
<g id="a_node21"><a xlink:href="../../d8/de7/GPUTPCGMPropagator_8cxx.html" target="_top" xlink:title="/home/travis/build\l/AliceO2Group/AliceO2\l/GPU/GPUTracking/Merger\l/GPUTPCGMPropagator.cxx">
<polygon fill="none" stroke="#000000" points="430.5,-267.5 430.5,-319.5 578.5,-319.5 578.5,-267.5 430.5,-267.5"/>
<text text-anchor="start" x="438.5" y="-307.5" font-family="Helvetica,sans-Serif" font-size="10.00" fill="#000000">/home/travis/build</text>
<text text-anchor="start" x="438.5" y="-296.5" font-family="Helvetica,sans-Serif" font-size="10.00" fill="#000000">/AliceO2Group/AliceO2</text>
<text text-anchor="start" x="438.5" y="-285.5" font-family="Helvetica,sans-Serif" font-size="10.00" fill="#000000">/GPU/GPUTracking/Merger</text>
<text text-anchor="middle" x="504.5" y="-274.5" font-family="Helvetica,sans-Serif" font-size="10.00" fill="#000000">/GPUTPCGMPropagator.cxx</text>
</a>
</g>
</g>
<!-- Node8&#45;&gt;Node28 -->
<g id="edge27" class="edge">
<title>Node8&#45;&gt;Node28</title>
<path fill="none" stroke="#191970" d="M1091.2336,-463.8804C1008.4762,-454.3927 882.8706,-436.0638 843.5,-409 820.6332,-393.2811 833.2807,-371.8435 810.5,-356 791.6091,-342.8618 663.2278,-319.6669 578.8652,-305.5289"/>
<polygon fill="#191970" stroke="#191970" points="1091.0266,-467.3791 1101.3558,-465.0214 1091.8108,-460.4232 1091.0266,-467.3791"/>
</g>
<!-- Node29 -->
<g id="node22" class="node">
<title>Node29</title>
<g id="a_node22"><a xlink:href="../../d5/d85/GPUTPCSliceData_8cxx.html" target="_top" xlink:title="/home/travis/build\l/AliceO2Group/AliceO2\l/GPU/GPUTracking/SliceTracker\l/GPUTPCSliceData.cxx">
<polygon fill="none" stroke="#000000" points="1813,-356.5 1813,-408.5 1980,-408.5 1980,-356.5 1813,-356.5"/>
<text text-anchor="start" x="1821" y="-396.5" font-family="Helvetica,sans-Serif" font-size="10.00" fill="#000000">/home/travis/build</text>
<text text-anchor="start" x="1821" y="-385.5" font-family="Helvetica,sans-Serif" font-size="10.00" fill="#000000">/AliceO2Group/AliceO2</text>
<text text-anchor="start" x="1821" y="-374.5" font-family="Helvetica,sans-Serif" font-size="10.00" fill="#000000">/GPU/GPUTracking/SliceTracker</text>
<text text-anchor="middle" x="1896.5" y="-363.5" font-family="Helvetica,sans-Serif" font-size="10.00" fill="#000000">/GPUTPCSliceData.cxx</text>
</a>
</g>
</g>
<!-- Node8&#45;&gt;Node29 -->
<g id="edge31" class="edge">
<title>Node8&#45;&gt;Node29</title>
<path fill="none" stroke="#191970" d="M1243.699,-468.4363C1363.6864,-462.6221 1603.5921,-446.9847 1803.5,-409 1806.5513,-408.4202 1809.6472,-407.7858 1812.7655,-407.1078"/>
<polygon fill="#191970" stroke="#191970" points="1243.3398,-464.9493 1233.5172,-468.9199 1243.672,-471.9414 1243.3398,-464.9493"/>
</g>
<!-- Node30 -->
<g id="node23" class="node">
<title>Node30</title>
<g id="a_node23"><a xlink:href="../../db/d4b/GPUTPCTracker_8cxx.html" target="_top" xlink:title="/home/travis/build\l/AliceO2Group/AliceO2\l/GPU/GPUTracking/SliceTracker\l/GPUTPCTracker.cxx">
<polygon fill="none" stroke="#000000" points="673,-267.5 673,-319.5 840,-319.5 840,-267.5 673,-267.5"/>
<text text-anchor="start" x="681" y="-307.5" font-family="Helvetica,sans-Serif" font-size="10.00" fill="#000000">/home/travis/build</text>
<text text-anchor="start" x="681" y="-296.5" font-family="Helvetica,sans-Serif" font-size="10.00" fill="#000000">/AliceO2Group/AliceO2</text>
<text text-anchor="start" x="681" y="-285.5" font-family="Helvetica,sans-Serif" font-size="10.00" fill="#000000">/GPU/GPUTracking/SliceTracker</text>
<text text-anchor="middle" x="756.5" y="-274.5" font-family="Helvetica,sans-Serif" font-size="10.00" fill="#000000">/GPUTPCTracker.cxx</text>
</a>
</g>
</g>
<!-- Node8&#45;&gt;Node30 -->
<g id="edge32" class="edge">
<title>Node8&#45;&gt;Node30</title>
<path fill="none" stroke="#191970" d="M1091.2041,-459.5315C1021.6812,-447.6779 924.9065,-428.5187 891.5,-409 864.0603,-392.9676 867.2048,-377.1674 843.5,-356 828.9344,-342.9935 811.6813,-330.1421 796.3956,-319.5067"/>
<polygon fill="#191970" stroke="#191970" points="1090.8102,-463.0144 1101.2531,-461.2266 1091.9746,-456.1119 1090.8102,-463.0144"/>
</g>
<!-- Node31 -->
<g id="node24" class="node">
<title>Node31</title>
<g id="a_node24"><a xlink:href="../../de/ddc/GPUQA_8cxx.html" target="_top" xlink:title="/home/travis/build\l/AliceO2Group/AliceO2\l/GPU/GPUTracking/Standalone\l/qa/GPUQA.cxx">
<polygon fill="none" stroke="#000000" points="1998,-356.5 1998,-408.5 2161,-408.5 2161,-356.5 1998,-356.5"/>
<text text-anchor="start" x="2006" y="-396.5" font-family="Helvetica,sans-Serif" font-size="10.00" fill="#000000">/home/travis/build</text>
<text text-anchor="start" x="2006" y="-385.5" font-family="Helvetica,sans-Serif" font-size="10.00" fill="#000000">/AliceO2Group/AliceO2</text>
<text text-anchor="start" x="2006" y="-374.5" font-family="Helvetica,sans-Serif" font-size="10.00" fill="#000000">/GPU/GPUTracking/Standalone</text>
<text text-anchor="middle" x="2079.5" y="-363.5" font-family="Helvetica,sans-Serif" font-size="10.00" fill="#000000">/qa/GPUQA.cxx</text>
</a>
</g>
</g>
<!-- Node8&#45;&gt;Node31 -->
<g id="edge34" class="edge">
<title>Node8&#45;&gt;Node31</title>
<path fill="none" stroke="#191970" d="M1243.833,-467.7542C1419.384,-458.8062 1847.5883,-434.9879 1989.5,-409 1992.2237,-408.5012 1994.9826,-407.9518 1997.7599,-407.3607"/>
<polygon fill="#191970" stroke="#191970" points="1243.4567,-464.2687 1233.647,-468.2712 1243.8115,-471.2597 1243.4567,-464.2687"/>
</g>
<!-- Node32 -->
<g id="node25" class="node">
<title>Node32</title>
<g id="a_node25"><a xlink:href="../../dc/df9/standalone_8cxx.html" target="_top" xlink:title="/home/travis/build\l/AliceO2Group/AliceO2\l/GPU/GPUTracking/Standalone\l/standalone.cxx">
<polygon fill="none" stroke="#000000" points="2179,-356.5 2179,-408.5 2342,-408.5 2342,-356.5 2179,-356.5"/>
<text text-anchor="start" x="2187" y="-396.5" font-family="Helvetica,sans-Serif" font-size="10.00" fill="#000000">/home/travis/build</text>
<text text-anchor="start" x="2187" y="-385.5" font-family="Helvetica,sans-Serif" font-size="10.00" fill="#000000">/AliceO2Group/AliceO2</text>
<text text-anchor="start" x="2187" y="-374.5" font-family="Helvetica,sans-Serif" font-size="10.00" fill="#000000">/GPU/GPUTracking/Standalone</text>
<text text-anchor="middle" x="2260.5" y="-363.5" font-family="Helvetica,sans-Serif" font-size="10.00" fill="#000000">/standalone.cxx</text>
</a>
</g>
</g>
<!-- Node8&#45;&gt;Node32 -->
<g id="edge35" class="edge">
<title>Node8&#45;&gt;Node32</title>
<path fill="none" stroke="#191970" d="M1244.0509,-468.9515C1446.5009,-461.8567 1992.6378,-440.3178 2170.5,-409 2173.2271,-408.5198 2175.9888,-407.9866 2178.7686,-407.4094"/>
<polygon fill="#191970" stroke="#191970" points="1243.6784,-465.4623 1233.8064,-469.3085 1243.9222,-472.4581 1243.6784,-465.4623"/>
</g>
<!-- Node33 -->
<g id="node26" class="node">
<title>Node33</title>
<g id="a_node26"><a xlink:href="../../da/db5/GPUTPCConvert_8cxx.html" target="_top" xlink:title="/home/travis/build\l/AliceO2Group/AliceO2\l/GPU/GPUTracking/TPCConvert\l/GPUTPCConvert.cxx">
<polygon fill="none" stroke="#000000" points="2360,-356.5 2360,-408.5 2525,-408.5 2525,-356.5 2360,-356.5"/>
<text text-anchor="start" x="2368" y="-396.5" font-family="Helvetica,sans-Serif" font-size="10.00" fill="#000000">/home/travis/build</text>
<text text-anchor="start" x="2368" y="-385.5" font-family="Helvetica,sans-Serif" font-size="10.00" fill="#000000">/AliceO2Group/AliceO2</text>
<text text-anchor="start" x="2368" y="-374.5" font-family="Helvetica,sans-Serif" font-size="10.00" fill="#000000">/GPU/GPUTracking/TPCConvert</text>
<text text-anchor="middle" x="2442.5" y="-363.5" font-family="Helvetica,sans-Serif" font-size="10.00" fill="#000000">/GPUTPCConvert.cxx</text>
</a>
</g>
</g>
<!-- Node8&#45;&gt;Node33 -->
<g id="edge36" class="edge">
<title>Node8&#45;&gt;Node33</title>
<path fill="none" stroke="#191970" d="M1243.7284,-469.7723C1470.297,-464.274 2137.1395,-445.3674 2351.5,-409 2354.2579,-408.5321 2357.0508,-408.0095 2359.862,-407.4415"/>
<polygon fill="#191970" stroke="#191970" points="1243.5098,-466.2765 1233.597,-470.0163 1243.6784,-473.2744 1243.5098,-466.2765"/>
</g>
<!-- Node34 -->
<g id="node27" class="node">
<title>Node34</title>
<g id="a_node27"><a xlink:href="../../d2/d77/GPUTPCConvertKernel_8cxx.html" target="_top" xlink:title="/home/travis/build\l/AliceO2Group/AliceO2\l/GPU/GPUTracking/TPCConvert\l/GPUTPCConvertKernel.cxx">
<polygon fill="none" stroke="#000000" points="2543,-356.5 2543,-408.5 2708,-408.5 2708,-356.5 2543,-356.5"/>
<text text-anchor="start" x="2551" y="-396.5" font-family="Helvetica,sans-Serif" font-size="10.00" fill="#000000">/home/travis/build</text>
<text text-anchor="start" x="2551" y="-385.5" font-family="Helvetica,sans-Serif" font-size="10.00" fill="#000000">/AliceO2Group/AliceO2</text>
<text text-anchor="start" x="2551" y="-374.5" font-family="Helvetica,sans-Serif" font-size="10.00" fill="#000000">/GPU/GPUTracking/TPCConvert</text>
<text text-anchor="middle" x="2625.5" y="-363.5" font-family="Helvetica,sans-Serif" font-size="10.00" fill="#000000">/GPUTPCConvertKernel.cxx</text>
</a>
</g>
</g>
<!-- Node8&#45;&gt;Node34 -->
<g id="edge37" class="edge">
<title>Node8&#45;&gt;Node34</title>
<path fill="none" stroke="#191970" d="M1243.7162,-470.3968C1493.094,-466.4133 2283.1116,-450.7383 2534.5,-409 2537.2595,-408.5418 2540.0539,-408.0276 2542.8662,-407.4669"/>
<polygon fill="#191970" stroke="#191970" points="1243.6039,-466.898 1233.6605,-470.5557 1243.7146,-473.8971 1243.6039,-466.898"/>
</g>
<!-- Node18 -->
<g id="node11" class="node">
<title>Node18</title>
<g id="a_node11"><a xlink:href="../../d4/dcf/GPUTPCGMMerger_8h.html" target="_top" xlink:title="/home/travis/build\l/AliceO2Group/AliceO2\l/GPU/GPUTracking/Merger\l/GPUTPCGMMerger.h">
<polygon fill="none" stroke="#000000" points="1047.5,-267.5 1047.5,-319.5 1189.5,-319.5 1189.5,-267.5 1047.5,-267.5"/>
<text text-anchor="start" x="1055.5" y="-307.5" font-family="Helvetica,sans-Serif" font-size="10.00" fill="#000000">/home/travis/build</text>
<text text-anchor="start" x="1055.5" y="-296.5" font-family="Helvetica,sans-Serif" font-size="10.00" fill="#000000">/AliceO2Group/AliceO2</text>
<text text-anchor="start" x="1055.5" y="-285.5" font-family="Helvetica,sans-Serif" font-size="10.00" fill="#000000">/GPU/GPUTracking/Merger</text>
<text text-anchor="middle" x="1118.5" y="-274.5" font-family="Helvetica,sans-Serif" font-size="10.00" fill="#000000">/GPUTPCGMMerger.h</text>
</a>
</g>
</g>
<!-- Node17&#45;&gt;Node18 -->
<g id="edge10" class="edge">
<title>Node17&#45;&gt;Node18</title>
<path fill="none" stroke="#191970" d="M1118.5,-346.1155C1118.5,-337.2061 1118.5,-327.8475 1118.5,-319.5341"/>
<polygon fill="#191970" stroke="#191970" points="1115.0001,-346.2784 1118.5,-356.2784 1122.0001,-346.2785 1115.0001,-346.2784"/>
</g>
<!-- Node17&#45;&gt;Node22 -->
<g id="edge22" class="edge">
<title>Node17&#45;&gt;Node22</title>
<path fill="none" stroke="#191970" d="M1078.0848,-349.9462C1046.4284,-325.3429 1000.6673,-291.7027 957.5,-267 933.9114,-253.5013 906.8626,-240.8816 882.8057,-230.566"/>
<polygon fill="#191970" stroke="#191970" points="1076.1891,-352.9069 1086.2217,-356.3126 1080.5027,-347.3939 1076.1891,-352.9069"/>
</g>
<!-- Node17&#45;&gt;Node23 -->
<g id="edge23" class="edge">
<title>Node17&#45;&gt;Node23</title>
<path fill="none" stroke="#191970" d="M1177.4335,-351.4235C1195.5555,-341.6132 1215.4724,-330.571 1233.5,-320 1271.5796,-297.6709 1275.5141,-280.6318 1317.5,-267 1551.7602,-190.9416 1628.1265,-274.7925 1870.5,-231 1873.3262,-230.4894 1876.1901,-229.9195 1879.0723,-229.3013"/>
<polygon fill="#191970" stroke="#191970" points="1175.2823,-348.6069 1168.14,-356.4324 1178.6034,-354.7689 1175.2823,-348.6069"/>
</g>
<!-- Node17&#45;&gt;Node24 -->
<g id="edge24" class="edge">
<title>Node17&#45;&gt;Node24</title>
<path fill="none" stroke="#191970" d="M1163.4583,-350.2457C1175.3075,-340.9881 1187.7704,-330.534 1198.5,-320 1220.1452,-298.7495 1214.6377,-281.0896 1241.5,-267 1333.6758,-218.6528 1606.4186,-251.3276 1708.5,-231 1711.4022,-230.4221 1714.3453,-229.7727 1717.3053,-229.0666"/>
<polygon fill="#191970" stroke="#191970" points="1161.1799,-347.5823 1155.3818,-356.4499 1165.4442,-353.1335 1161.1799,-347.5823"/>
</g>
<!-- Node18&#45;&gt;Node13 -->
<g id="edge13" class="edge">
<title>Node18&#45;&gt;Node13</title>
<path fill="none" stroke="#191970" d="M1037.2437,-282.1456C959.6725,-270.8489 839.6623,-252.1782 736.5,-231 733.4068,-230.365 730.2678,-229.7018 727.1018,-229.0166"/>
<polygon fill="#191970" stroke="#191970" points="1037.0314,-285.6514 1047.4301,-283.6222 1038.0357,-278.7238 1037.0314,-285.6514"/>
</g>
<!-- Node19 -->
<g id="node12" class="node">
<title>Node19</title>
<g id="a_node12"><a xlink:href="../../d0/d25/GPUReconstructionIncludesDevice_8h.html" target="_top" xlink:title="/home/travis/build\l/AliceO2Group/AliceO2\l/GPU/GPUTracking/Base\l/GPUReconstructionIncludesDevice.h">
<polygon fill="none" stroke="#000000" points="644.5,-89.5 644.5,-141.5 840.5,-141.5 840.5,-89.5 644.5,-89.5"/>
<text text-anchor="start" x="652.5" y="-129.5" font-family="Helvetica,sans-Serif" font-size="10.00" fill="#000000">/home/travis/build</text>
<text text-anchor="start" x="652.5" y="-118.5" font-family="Helvetica,sans-Serif" font-size="10.00" fill="#000000">/AliceO2Group/AliceO2</text>
<text text-anchor="start" x="652.5" y="-107.5" font-family="Helvetica,sans-Serif" font-size="10.00" fill="#000000">/GPU/GPUTracking/Base</text>
<text text-anchor="middle" x="742.5" y="-96.5" font-family="Helvetica,sans-Serif" font-size="10.00" fill="#000000">/GPUReconstructionIncludesDevice.h</text>
</a>
</g>
</g>
<!-- Node18&#45;&gt;Node19 -->
<g id="edge11" class="edge">
<title>Node18&#45;&gt;Node19</title>
<path fill="none" stroke="#191970" d="M1111.4687,-257.2657C1104.5028,-231.2677 1091.1676,-197.5093 1066.5,-178 1032.0704,-150.77 922.7531,-133.7439 840.5469,-124.4632"/>
<polygon fill="#191970" stroke="#191970" points="1108.1169,-258.2915 1113.9177,-267.1572 1114.9118,-256.6091 1108.1169,-258.2915"/>
</g>
<!-- Node21 -->
<g id="node14" class="node">
<title>Node21</title>
<g id="a_node14"><a xlink:href="../../df/d06/GPUTPCGlobalMergerComponent_8cxx.html" target="_top" xlink:title="/home/travis/build\l/AliceO2Group/AliceO2\l/GPU/GPUTracking/Merger\l/GPUTPCGlobalMergerComponent.cxx">
<polygon fill="none" stroke="#000000" points="1114,-178.5 1114,-230.5 1315,-230.5 1315,-178.5 1114,-178.5"/>
<text text-anchor="start" x="1122" y="-218.5" font-family="Helvetica,sans-Serif" font-size="10.00" fill="#000000">/home/travis/build</text>
<text text-anchor="start" x="1122" y="-207.5" font-family="Helvetica,sans-Serif" font-size="10.00" fill="#000000">/AliceO2Group/AliceO2</text>
<text text-anchor="start" x="1122" y="-196.5" font-family="Helvetica,sans-Serif" font-size="10.00" fill="#000000">/GPU/GPUTracking/Merger</text>
<text text-anchor="middle" x="1214.5" y="-185.5" font-family="Helvetica,sans-Serif" font-size="10.00" fill="#000000">/GPUTPCGlobalMergerComponent.cxx</text>
</a>
</g>
</g>
<!-- Node18&#45;&gt;Node21 -->
<g id="edge14" class="edge">
<title>Node18&#45;&gt;Node21</title>
<path fill="none" stroke="#191970" d="M1154.3226,-260.2894C1164.9263,-250.459 1176.3788,-239.8415 1186.4182,-230.5341"/>
<polygon fill="#191970" stroke="#191970" points="1151.7378,-257.9131 1146.7839,-267.2784 1156.4969,-263.0464 1151.7378,-257.9131"/>
</g>
<!-- Node18&#45;&gt;Node22 -->
<g id="edge15" class="edge">
<title>Node18&#45;&gt;Node22</title>
<path fill="none" stroke="#191970" d="M1037.2878,-268.0942C1036.0169,-267.7249 1034.7536,-267.3599 1033.5,-267 972.9887,-249.6266 956.8556,-248.907 896.5,-231 893.5544,-230.1261 890.5537,-229.2172 887.5268,-228.285"/>
<polygon fill="#191970" stroke="#191970" points="1036.5681,-271.5308 1047.1495,-270.9985 1038.5457,-264.8159 1036.5681,-271.5308"/>
</g>
<!-- Node18&#45;&gt;Node23 -->
<g id="edge16" class="edge">
<title>Node18&#45;&gt;Node23</title>
<path fill="none" stroke="#191970" d="M1199.7213,-274.1447C1213.5955,-271.3723 1227.9136,-268.8411 1241.5,-267 1518.9771,-229.3997 1594.7557,-279.7071 1870.5,-231 1873.3282,-230.5004 1876.1937,-229.9401 1879.0774,-229.33"/>
<polygon fill="#191970" stroke="#191970" points="1198.8055,-270.7596 1189.7139,-276.1996 1200.2136,-277.6165 1198.8055,-270.7596"/>
</g>
<!-- Node18&#45;&gt;Node24 -->
<g id="edge17" class="edge">
<title>Node18&#45;&gt;Node24</title>
<path fill="none" stroke="#191970" d="M1199.6337,-267.7636C1200.929,-267.497 1202.2184,-267.2421 1203.5,-267 1424.6041,-225.2355 1487.693,-274.3078 1708.5,-231 1711.4039,-230.4305 1714.3484,-229.7882 1717.3095,-229.0879"/>
<polygon fill="#191970" stroke="#191970" points="1198.6047,-264.4076 1189.6179,-270.0189 1200.1425,-271.2366 1198.6047,-264.4076"/>
</g>
<!-- Node18&#45;&gt;Node25 -->
<g id="edge18" class="edge">
<title>Node18&#45;&gt;Node25</title>
<path fill="none" stroke="#191970" d="M1069.5729,-261.7152C1053.8374,-251.4929 1036.5976,-240.2933 1021.575,-230.5341"/>
<polygon fill="#191970" stroke="#191970" points="1067.8439,-264.7657 1078.1365,-267.2784 1071.6573,-258.8956 1067.8439,-264.7657"/>
</g>
<!-- Node26 -->
<g id="node19" class="node">
<title>Node26</title>
<g id="a_node19"><a xlink:href="../../d3/ddb/GPUTPCGMTracksToTPCSeeds_8cxx.html" target="_top" xlink:title="/home/travis/build\l/AliceO2Group/AliceO2\l/GPU/GPUTracking/Merger\l/GPUTPCGMTracksToTPCSeeds.cxx">
<polygon fill="none" stroke="#000000" points="1333,-178.5 1333,-230.5 1518,-230.5 1518,-178.5 1333,-178.5"/>
<text text-anchor="start" x="1341" y="-218.5" font-family="Helvetica,sans-Serif" font-size="10.00" fill="#000000">/home/travis/build</text>
<text text-anchor="start" x="1341" y="-207.5" font-family="Helvetica,sans-Serif" font-size="10.00" fill="#000000">/AliceO2Group/AliceO2</text>
<text text-anchor="start" x="1341" y="-196.5" font-family="Helvetica,sans-Serif" font-size="10.00" fill="#000000">/GPU/GPUTracking/Merger</text>
<text text-anchor="middle" x="1425.5" y="-185.5" font-family="Helvetica,sans-Serif" font-size="10.00" fill="#000000">/GPUTPCGMTracksToTPCSeeds.cxx</text>
</a>
</g>
</g>
<!-- Node18&#45;&gt;Node26 -->
<g id="edge20" class="edge">
<title>Node18&#45;&gt;Node26</title>
<path fill="none" stroke="#191970" d="M1199.7211,-268.1249C1200.9893,-267.746 1202.2496,-267.3708 1203.5,-267 1245.9179,-254.4195 1293.0788,-241.0549 1332.9852,-229.927"/>
<polygon fill="#191970" stroke="#191970" points="1198.443,-264.8544 1189.877,-271.0894 1200.4615,-271.5571 1198.443,-264.8544"/>
</g>
<!-- Node27 -->
<g id="node20" class="node">
<title>Node27</title>
<g id="a_node20"><a xlink:href="../../d7/d9f/genEvents_8cxx.html" target="_top" xlink:title="/home/travis/build\l/AliceO2Group/AliceO2\l/GPU/GPUTracking/Standalone\l/qa/genEvents.cxx">
<polygon fill="none" stroke="#000000" points="1536,-178.5 1536,-230.5 1699,-230.5 1699,-178.5 1536,-178.5"/>
<text text-anchor="start" x="1544" y="-218.5" font-family="Helvetica,sans-Serif" font-size="10.00" fill="#000000">/home/travis/build</text>
<text text-anchor="start" x="1544" y="-207.5" font-family="Helvetica,sans-Serif" font-size="10.00" fill="#000000">/AliceO2Group/AliceO2</text>
<text text-anchor="start" x="1544" y="-196.5" font-family="Helvetica,sans-Serif" font-size="10.00" fill="#000000">/GPU/GPUTracking/Standalone</text>
<text text-anchor="middle" x="1617.5" y="-185.5" font-family="Helvetica,sans-Serif" font-size="10.00" fill="#000000">/qa/genEvents.cxx</text>
</a>
</g>
</g>
<!-- Node18&#45;&gt;Node27 -->
<g id="edge21" class="edge">
<title>Node18&#45;&gt;Node27</title>
<path fill="none" stroke="#191970" d="M1199.6478,-267.8345C1200.9387,-267.5458 1202.2235,-267.2673 1203.5,-267 1345.3099,-237.3023 1385.459,-259.5721 1527.5,-231 1530.2146,-230.4539 1532.9656,-229.8635 1535.7361,-229.2371"/>
<polygon fill="#191970" stroke="#191970" points="1198.5682,-264.494 1189.6597,-270.2288 1200.2001,-271.3011 1198.5682,-264.494"/>
</g>
<!-- Node20 -->
<g id="node13" class="node">
<title>Node20</title>
<g id="a_node13"><a xlink:href="../../d3/d33/GPUReconstructionHIP_8hip_8cxx.html" target="_top" xlink:title="/home/travis/build\l/AliceO2Group/AliceO2\l/GPU/GPUTracking/Base\l/hip/GPUReconstructionHIP.hip.cxx">
<polygon fill="none" stroke="#000000" points="650.5,-.5 650.5,-52.5 834.5,-52.5 834.5,-.5 650.5,-.5"/>
<text text-anchor="start" x="658.5" y="-40.5" font-family="Helvetica,sans-Serif" font-size="10.00" fill="#000000">/home/travis/build</text>
<text text-anchor="start" x="658.5" y="-29.5" font-family="Helvetica,sans-Serif" font-size="10.00" fill="#000000">/AliceO2Group/AliceO2</text>
<text text-anchor="start" x="658.5" y="-18.5" font-family="Helvetica,sans-Serif" font-size="10.00" fill="#000000">/GPU/GPUTracking/Base</text>
<text text-anchor="middle" x="742.5" y="-7.5" font-family="Helvetica,sans-Serif" font-size="10.00" fill="#000000">/hip/GPUReconstructionHIP.hip.cxx</text>
</a>
</g>
</g>
<!-- Node19&#45;&gt;Node20 -->
<g id="edge12" class="edge">
<title>Node19&#45;&gt;Node20</title>
<path fill="none" stroke="#191970" d="M742.5,-79.1155C742.5,-70.2061 742.5,-60.8475 742.5,-52.5341"/>
<polygon fill="#191970" stroke="#191970" points="739.0001,-79.2784 742.5,-89.2784 746.0001,-79.2785 739.0001,-79.2784"/>
</g>
<!-- Node25&#45;&gt;Node19 -->
<g id="edge19" class="edge">
<title>Node25&#45;&gt;Node19</title>
<path fill="none" stroke="#191970" d="M901.7658,-174.8082C872.9084,-164.0621 840.559,-152.0157 812.5917,-141.6011"/>
<polygon fill="#191970" stroke="#191970" points="900.8142,-178.1886 911.407,-178.3984 903.2571,-171.6287 900.8142,-178.1886"/>
</g>
<!-- Node28&#45;&gt;Node19 -->
<g id="edge28" class="edge">
<title>Node28&#45;&gt;Node19</title>
<path fill="none" stroke="#191970" d="M495.3707,-256.9173C491.4469,-232.0555 491.1174,-199.8414 508.5,-178 525.9127,-156.1206 588.3921,-140.1057 644.4112,-129.7673"/>
<polygon fill="#191970" stroke="#191970" points="491.986,-257.8652 497.2313,-267.0705 498.8714,-256.6034 491.986,-257.8652"/>
</g>
<!-- Node30&#45;&gt;Node19 -->
<g id="edge33" class="edge">
<title>Node30&#45;&gt;Node19</title>
<path fill="none" stroke="#191970" d="M662.9834,-280.312C605.6665,-270.0982 540.0224,-253.8168 522.5,-231 508.1528,-212.3178 508.3008,-196.7949 522.5,-178 537.848,-157.6845 593.0331,-142.0381 644.2883,-131.4813"/>
<polygon fill="#191970" stroke="#191970" points="662.3849,-283.7604 672.8364,-282.0238 663.5831,-276.8637 662.3849,-283.7604"/>
</g>
</g>
</svg>
