<?xml version="1.0" encoding="UTF-8" standalone="no"?>
<!DOCTYPE svg PUBLIC "-//W3C//DTD SVG 1.1//EN"
 "http://www.w3.org/Graphics/SVG/1.1/DTD/svg11.dtd">
<!-- Generated by graphviz version 2.40.1 (20161225.0304)
 -->
<!-- Title: /home/travis/build/AliceO2Group/AliceO2/Detectors/Raw/test/testHBFUtils.cxx Pages: 1 -->
<svg width="1387pt" height="307pt"
 viewBox="0.00 0.00 1386.50 307.00" xmlns="http://www.w3.org/2000/svg" xmlns:xlink="http://www.w3.org/1999/xlink">
<g id="graph0" class="graph" transform="scale(1 1) rotate(0) translate(4 303)">
<title>/home/travis/build/AliceO2Group/AliceO2/Detectors/Raw/test/testHBFUtils.cxx</title>
<!-- Node0 -->
<g id="node1" class="node">
<title>Node0</title>
<polygon fill="#bfbfbf" stroke="#000000" points="352.5,-257.5 352.5,-298.5 549.5,-298.5 549.5,-257.5 352.5,-257.5"/>
<text text-anchor="start" x="360.5" y="-286.5" font-family="Helvetica,sans-Serif" font-size="10.00" fill="#000000">/home/travis/build</text>
<text text-anchor="start" x="360.5" y="-275.5" font-family="Helvetica,sans-Serif" font-size="10.00" fill="#000000">/AliceO2Group/AliceO2</text>
<text text-anchor="middle" x="451" y="-264.5" font-family="Helvetica,sans-Serif" font-size="10.00" fill="#000000">/Detectors/Raw/test/testHBFUtils.cxx</text>
</g>
<!-- Node1 -->
<g id="node2" class="node">
<title>Node1</title>
<polygon fill="none" stroke="#bfbfbf" points="0,-201.5 0,-220.5 64,-220.5 64,-201.5 0,-201.5"/>
<text text-anchor="middle" x="32" y="-208.5" font-family="Helvetica,sans-Serif" font-size="10.00" fill="#000000">algorithm</text>
</g>
<!-- Node0&#45;&gt;Node1 -->
<g id="edge1" class="edge">
<title>Node0&#45;&gt;Node1</title>
<path fill="none" stroke="#191970" d="M352.1583,-264.61C276.815,-253.9887 170.5989,-238.1231 78,-221 76.7343,-220.7659 75.4502,-220.5228 74.1547,-220.2727"/>
<polygon fill="#191970" stroke="#191970" points="74.6135,-216.7948 64.1191,-218.25 73.2304,-223.6568 74.6135,-216.7948"/>
</g>
<!-- Node2 -->
<g id="node3" class="node">
<title>Node2</title>
<polygon fill="none" stroke="#bfbfbf" points="134,-73 134,-92 178,-92 178,-73 134,-73"/>
<text text-anchor="middle" x="156" y="-80" font-family="Helvetica,sans-Serif" font-size="10.00" fill="#000000">bitset</text>
</g>
<!-- Node0&#45;&gt;Node2 -->
<g id="edge2" class="edge">
<title>Node0&#45;&gt;Node2</title>
<path fill="none" stroke="#191970" d="M352.1636,-259.3875C261.5547,-239.9565 137.5462,-206.5372 111,-165 96.9049,-142.9452 118.1486,-116.133 135.9746,-99.1877"/>
<polygon fill="#191970" stroke="#191970" points="138.6997,-101.4434 143.7851,-92.1488 134.0135,-96.2434 138.6997,-101.4434"/>
</g>
<!-- Node3 -->
<g id="node4" class="node">
<title>Node3</title>
<polygon fill="none" stroke="#bfbfbf" points="241,-201.5 241,-220.5 373,-220.5 373,-201.5 241,-201.5"/>
<text text-anchor="middle" x="307" y="-208.5" font-family="Helvetica,sans-Serif" font-size="10.00" fill="#000000">boost/test/unit_test.hpp</text>
</g>
<!-- Node0&#45;&gt;Node3 -->
<g id="edge3" class="edge">
<title>Node0&#45;&gt;Node3</title>
<path fill="none" stroke="#191970" d="M406.6203,-257.3511C384.0369,-246.8435 357.1804,-234.3478 337.0462,-224.9798"/>
<polygon fill="#191970" stroke="#191970" points="338.2934,-221.6999 327.7503,-220.6546 335.3404,-228.0465 338.2934,-221.6999"/>
</g>
<!-- Node4 -->
<g id="node5" class="node">
<title>Node4</title>
<g id="a_node5"><a xlink:href="../../df/dff/InteractionSampler_8h.html" target="_top" xlink:title="Steer/InteractionSampler.h">
<polygon fill="none" stroke="#000000" points="429,-201.5 429,-220.5 575,-220.5 575,-201.5 429,-201.5"/>
<text text-anchor="middle" x="502" y="-208.5" font-family="Helvetica,sans-Serif" font-size="10.00" fill="#000000">Steer/InteractionSampler.h</text>
</a>
</g>
</g>
<!-- Node0&#45;&gt;Node4 -->
<g id="edge4" class="edge">
<title>Node0&#45;&gt;Node4</title>
<path fill="none" stroke="#191970" d="M466.8572,-257.168C473.7872,-248.0639 481.8315,-237.4959 488.4736,-228.7699"/>
<polygon fill="#191970" stroke="#191970" points="491.2832,-230.8574 494.5552,-220.7805 485.7133,-226.6176 491.2832,-230.8574"/>
</g>
<!-- Node7 -->
<g id="node8" class="node">
<title>Node7</title>
<polygon fill="none" stroke="#bfbfbf" points="120,-140 120,-159 192,-159 192,-140 120,-140"/>
<text text-anchor="middle" x="156" y="-147" font-family="Helvetica,sans-Serif" font-size="10.00" fill="#000000">TRandom.h</text>
</g>
<!-- Node0&#45;&gt;Node7 -->
<g id="edge41" class="edge">
<title>Node0&#45;&gt;Node7</title>
<path fill="none" stroke="#191970" d="M438.0651,-257.2426C425.8441,-239.4509 405.8575,-214.6041 382,-201 310.7495,-160.3715 280.178,-186.4046 201,-165 197.9863,-164.1853 194.8821,-163.2735 191.7796,-162.3109"/>
<polygon fill="#191970" stroke="#191970" points="192.5815,-158.8911 181.9891,-159.1206 190.4126,-165.5467 192.5815,-158.8911"/>
</g>
<!-- Node16 -->
<g id="node17" class="node">
<title>Node16</title>
<g id="a_node17"><a xlink:href="../../d1/dec/HBFUtils_8h.html" target="_top" xlink:title="DetectorsRaw/HBFUtils.h">
<polygon fill="none" stroke="#000000" points="792.5,-201.5 792.5,-220.5 931.5,-220.5 931.5,-201.5 792.5,-201.5"/>
<text text-anchor="middle" x="862" y="-208.5" font-family="Helvetica,sans-Serif" font-size="10.00" fill="#000000">DetectorsRaw/HBFUtils.h</text>
</a>
</g>
</g>
<!-- Node0&#45;&gt;Node16 -->
<g id="edge20" class="edge">
<title>Node0&#45;&gt;Node16</title>
<path fill="none" stroke="#191970" d="M549.7061,-261.9092C625.0466,-249.6274 726.9072,-233.0224 793.5061,-222.1657"/>
<polygon fill="#191970" stroke="#191970" points="794.1689,-225.6039 803.4755,-220.5405 793.0426,-218.6951 794.1689,-225.6039"/>
</g>
<!-- Node27 -->
<g id="node28" class="node">
<title>Node27</title>
<g id="a_node28"><a xlink:href="../../d4/d78/DataFormats_2Headers_2include_2Headers_2RAWDataHeader_8h.html" target="_top" xlink:title="Headers/RAWDataHeader.h">
<polygon fill="none" stroke="#000000" points="1051.5,-140 1051.5,-159 1200.5,-159 1200.5,-140 1051.5,-140"/>
<text text-anchor="middle" x="1126" y="-147" font-family="Helvetica,sans-Serif" font-size="10.00" fill="#000000">Headers/RAWDataHeader.h</text>
</a>
</g>
</g>
<!-- Node0&#45;&gt;Node27 -->
<g id="edge40" class="edge">
<title>Node0&#45;&gt;Node27</title>
<path fill="none" stroke="#191970" d="M549.5066,-270.7195C670.9749,-261.0159 870.064,-242.5418 941,-221 959.6391,-215.3397 962.1076,-208.7019 980,-201 1014.9343,-185.9624 1055.8564,-171.8139 1085.4733,-162.1661"/>
<polygon fill="#191970" stroke="#191970" points="1086.6175,-165.4747 1095.0589,-159.072 1084.4672,-158.8131 1086.6175,-165.4747"/>
</g>
<!-- Node29 -->
<g id="node30" class="node">
<title>Node29</title>
<polygon fill="none" stroke="#bfbfbf" points="988.5,-201.5 988.5,-220.5 1063.5,-220.5 1063.5,-201.5 988.5,-201.5"/>
<text text-anchor="middle" x="1026" y="-208.5" font-family="Helvetica,sans-Serif" font-size="10.00" fill="#000000">FairLogger.h</text>
</g>
<!-- Node0&#45;&gt;Node29 -->
<g id="edge42" class="edge">
<title>Node0&#45;&gt;Node29</title>
<path fill="none" stroke="#191970" d="M549.6289,-269.6642C655.0038,-260.1953 826.7775,-243.1411 974,-221 975.4489,-220.7821 976.9189,-220.5526 978.4018,-220.3137"/>
<polygon fill="#191970" stroke="#191970" points="979.0199,-223.7589 988.2883,-218.6261 977.8419,-216.8587 979.0199,-223.7589"/>
</g>
<!-- Node5 -->
<g id="node6" class="node">
<title>Node5</title>
<polygon fill="none" stroke="#bfbfbf" points="740.5,-73 740.5,-92 799.5,-92 799.5,-73 740.5,-73"/>
<text text-anchor="middle" x="770" y="-80" font-family="Helvetica,sans-Serif" font-size="10.00" fill="#000000">Rtypes.h</text>
</g>
<!-- Node4&#45;&gt;Node5 -->
<g id="edge5" class="edge">
<title>Node4&#45;&gt;Node5</title>
<path fill="none" stroke="#191970" d="M575.2702,-206.2532C639.4642,-200.5676 726.2698,-188.673 751,-165 767.873,-148.8483 771.1192,-120.9576 771.1548,-102.1265"/>
<polygon fill="#191970" stroke="#191970" points="774.6498,-101.898 770.8694,-92.0006 767.6526,-102.0953 774.6498,-101.898"/>
</g>
<!-- Node6 -->
<g id="node7" class="node">
<title>Node6</title>
<polygon fill="none" stroke="#bfbfbf" points="210,-140 210,-159 266,-159 266,-140 210,-140"/>
<text text-anchor="middle" x="238" y="-147" font-family="Helvetica,sans-Serif" font-size="10.00" fill="#000000">TMath.h</text>
</g>
<!-- Node4&#45;&gt;Node6 -->
<g id="edge6" class="edge">
<title>Node4&#45;&gt;Node6</title>
<path fill="none" stroke="#191970" d="M438.0496,-201.4987C392.1024,-193.8393 329.0007,-181.6052 275,-165 272.8365,-164.3347 270.626,-163.5886 268.4153,-162.7928"/>
<polygon fill="#191970" stroke="#191970" points="269.4558,-159.4422 258.8671,-159.083 266.9207,-165.967 269.4558,-159.4422"/>
</g>
<!-- Node4&#45;&gt;Node7 -->
<g id="edge7" class="edge">
<title>Node4&#45;&gt;Node7</title>
<path fill="none" stroke="#191970" d="M429.6253,-201.467C354.7815,-191.3354 243.0883,-175.3749 201,-165 197.6079,-164.1638 194.1087,-163.1811 190.6304,-162.1229"/>
<polygon fill="#191970" stroke="#191970" points="191.5811,-158.7519 180.9892,-159.0004 189.4242,-165.4113 191.5811,-158.7519"/>
</g>
<!-- Node8 -->
<g id="node9" class="node">
<title>Node8</title>
<polygon fill="none" stroke="#bfbfbf" points="649.5,-6 649.5,-25 696.5,-25 696.5,-6 649.5,-6"/>
<text text-anchor="middle" x="673" y="-13" font-family="Helvetica,sans-Serif" font-size="10.00" fill="#000000">vector</text>
</g>
<!-- Node4&#45;&gt;Node8 -->
<g id="edge8" class="edge">
<title>Node4&#45;&gt;Node8</title>
<path fill="none" stroke="#191970" d="M504.9628,-201.4161C513.0921,-176.456 537.9152,-108.5047 579,-67 596.1343,-49.6906 620.3198,-36.6187 639.8673,-27.976"/>
<polygon fill="#191970" stroke="#191970" points="641.4758,-31.0958 649.3214,-23.9756 638.748,-24.6492 641.4758,-31.0958"/>
</g>
<!-- Node9 -->
<g id="node10" class="node">
<title>Node9</title>
<g id="a_node10"><a xlink:href="../../d9/d80/InteractionRecord_8h.html" target="_top" xlink:title="CommonDataFormat/Interaction\lRecord.h">
<polygon fill="none" stroke="#000000" points="568,-134.5 568,-164.5 742,-164.5 742,-134.5 568,-134.5"/>
<text text-anchor="start" x="576" y="-152.5" font-family="Helvetica,sans-Serif" font-size="10.00" fill="#000000">CommonDataFormat/Interaction</text>
<text text-anchor="middle" x="655" y="-141.5" font-family="Helvetica,sans-Serif" font-size="10.00" fill="#000000">Record.h</text>
</a>
</g>
</g>
<!-- Node4&#45;&gt;Node9 -->
<g id="edge9" class="edge">
<title>Node4&#45;&gt;Node9</title>
<path fill="none" stroke="#191970" d="M525.9063,-201.3906C547.8592,-192.5664 581.0117,-179.2404 608.2229,-168.3026"/>
<polygon fill="#191970" stroke="#191970" points="609.5989,-171.5217 617.572,-164.5446 606.9881,-165.0268 609.5989,-171.5217"/>
</g>
<!-- Node13 -->
<g id="node14" class="node">
<title>Node13</title>
<g id="a_node14"><a xlink:href="../../d4/dc6/LHCConstants_8h.html" target="_top" xlink:title="Header to collect LHC related constants. ">
<polygon fill="none" stroke="#000000" points="322,-73 322,-92 512,-92 512,-73 322,-73"/>
<text text-anchor="middle" x="417" y="-80" font-family="Helvetica,sans-Serif" font-size="10.00" fill="#000000">CommonConstants/LHCConstants.h</text>
</a>
</g>
</g>
<!-- Node4&#45;&gt;Node13 -->
<g id="edge19" class="edge">
<title>Node4&#45;&gt;Node13</title>
<path fill="none" stroke="#191970" d="M501.4359,-201.2065C500.1355,-185.7556 495.8728,-155.2929 482,-134 472.2004,-118.9589 456.527,-106.3524 443.0263,-97.3771"/>
<polygon fill="#191970" stroke="#191970" points="444.8735,-94.4042 434.5517,-92.0143 441.1303,-100.3193 444.8735,-94.4042"/>
</g>
<!-- Node14 -->
<g id="node15" class="node">
<title>Node14</title>
<g id="a_node15"><a xlink:href="../../d4/d5f/BunchFilling_8h.html" target="_top" xlink:title="CommonDataFormat/BunchFilling.h">
<polygon fill="none" stroke="#000000" points="284.5,-140 284.5,-159 473.5,-159 473.5,-140 284.5,-140"/>
<text text-anchor="middle" x="379" y="-147" font-family="Helvetica,sans-Serif" font-size="10.00" fill="#000000">CommonDataFormat/BunchFilling.h</text>
</a>
</g>
</g>
<!-- Node4&#45;&gt;Node14 -->
<g id="edge15" class="edge">
<title>Node4&#45;&gt;Node14</title>
<path fill="none" stroke="#191970" d="M482.7813,-201.3906C462.4719,-191.2359 430.2393,-175.1196 407.0832,-163.5416"/>
<polygon fill="#191970" stroke="#191970" points="408.5933,-160.3836 398.0838,-159.0419 405.4628,-166.6446 408.5933,-160.3836"/>
</g>
<!-- Node9&#45;&gt;Node5 -->
<g id="edge10" class="edge">
<title>Node9&#45;&gt;Node5</title>
<path fill="none" stroke="#191970" d="M680.8082,-134.4639C699.9299,-123.3234 725.8517,-108.2212 744.8218,-97.1691"/>
<polygon fill="#191970" stroke="#191970" points="746.6371,-100.1622 753.5157,-92.1039 743.1132,-94.1138 746.6371,-100.1622"/>
</g>
<!-- Node10 -->
<g id="node11" class="node">
<title>Node10</title>
<polygon fill="none" stroke="#bfbfbf" points="653.5,-73 653.5,-92 702.5,-92 702.5,-73 653.5,-73"/>
<text text-anchor="middle" x="678" y="-80" font-family="Helvetica,sans-Serif" font-size="10.00" fill="#000000">iosfwd</text>
</g>
<!-- Node9&#45;&gt;Node10 -->
<g id="edge11" class="edge">
<title>Node9&#45;&gt;Node10</title>
<path fill="none" stroke="#191970" d="M660.2191,-134.2967C663.5242,-124.6685 667.8279,-112.1318 671.3733,-101.8038"/>
<polygon fill="#191970" stroke="#191970" points="674.7834,-102.6496 674.7199,-92.055 668.1626,-100.3768 674.7834,-102.6496"/>
</g>
<!-- Node11 -->
<g id="node12" class="node">
<title>Node11</title>
<polygon fill="none" stroke="#bfbfbf" points="588.5,-73 588.5,-92 635.5,-92 635.5,-73 588.5,-73"/>
<text text-anchor="middle" x="612" y="-80" font-family="Helvetica,sans-Serif" font-size="10.00" fill="#000000">cmath</text>
</g>
<!-- Node9&#45;&gt;Node11 -->
<g id="edge12" class="edge">
<title>Node9&#45;&gt;Node11</title>
<path fill="none" stroke="#191970" d="M645.2426,-134.2967C638.8032,-124.2631 630.3365,-111.0709 623.5595,-100.5113"/>
<polygon fill="#191970" stroke="#191970" points="626.4791,-98.5804 618.1323,-92.055 620.588,-102.3613 626.4791,-98.5804"/>
</g>
<!-- Node12 -->
<g id="node13" class="node">
<title>Node12</title>
<polygon fill="none" stroke="#bfbfbf" points="891,-73 891,-92 941,-92 941,-73 891,-73"/>
<text text-anchor="middle" x="916" y="-80" font-family="Helvetica,sans-Serif" font-size="10.00" fill="#000000">cstdint</text>
</g>
<!-- Node9&#45;&gt;Node12 -->
<g id="edge13" class="edge">
<title>Node9&#45;&gt;Node12</title>
<path fill="none" stroke="#191970" d="M713.5735,-134.4639C764.9471,-121.276 837.9478,-102.5364 880.8013,-91.5357"/>
<polygon fill="#191970" stroke="#191970" points="881.9418,-94.8565 890.7575,-88.9799 880.2013,-88.0763 881.9418,-94.8565"/>
</g>
<!-- Node9&#45;&gt;Node13 -->
<g id="edge14" class="edge">
<title>Node9&#45;&gt;Node13</title>
<path fill="none" stroke="#191970" d="M601.5882,-134.4639C559.0101,-122.4776 500.1409,-105.9052 460.4274,-94.7254"/>
<polygon fill="#191970" stroke="#191970" points="461.3394,-91.3461 450.765,-92.0053 459.4424,-98.0842 461.3394,-91.3461"/>
</g>
<!-- Node14&#45;&gt;Node2 -->
<g id="edge17" class="edge">
<title>Node14&#45;&gt;Node2</title>
<path fill="none" stroke="#191970" d="M347.0495,-139.9005C304.6598,-127.1646 230.2627,-104.8121 187.899,-92.084"/>
<polygon fill="#191970" stroke="#191970" points="188.6934,-88.6682 178.1092,-89.1427 186.6792,-95.3721 188.6934,-88.6682"/>
</g>
<!-- Node14&#45;&gt;Node13 -->
<g id="edge16" class="edge">
<title>Node14&#45;&gt;Node13</title>
<path fill="none" stroke="#191970" d="M384.4445,-139.9005C390.2009,-129.751 399.4213,-113.4941 406.5824,-100.8679"/>
<polygon fill="#191970" stroke="#191970" points="409.6766,-102.5067 411.5656,-92.0817 403.5877,-99.0533 409.6766,-102.5067"/>
</g>
<!-- Node15 -->
<g id="node16" class="node">
<title>Node15</title>
<polygon fill="none" stroke="#bfbfbf" points="260,-73 260,-92 304,-92 304,-73 260,-73"/>
<text text-anchor="middle" x="282" y="-80" font-family="Helvetica,sans-Serif" font-size="10.00" fill="#000000">string</text>
</g>
<!-- Node14&#45;&gt;Node15 -->
<g id="edge18" class="edge">
<title>Node14&#45;&gt;Node15</title>
<path fill="none" stroke="#191970" d="M365.1023,-139.9005C349.1836,-128.9052 322.8879,-110.7422 304.1401,-97.7927"/>
<polygon fill="#191970" stroke="#191970" points="306.0892,-94.8852 295.872,-92.0817 302.1108,-100.6448 306.0892,-94.8852"/>
</g>
<!-- Node16&#45;&gt;Node5 -->
<g id="edge21" class="edge">
<title>Node16&#45;&gt;Node5</title>
<path fill="none" stroke="#191970" d="M854.358,-201.2274C847.1775,-191.9817 836.1913,-177.6722 827,-165 811.1313,-143.1215 793.5464,-117.4377 782.1629,-100.6104"/>
<polygon fill="#191970" stroke="#191970" points="785.0202,-98.5874 776.5271,-92.2535 779.2166,-102.5013 785.0202,-98.5874"/>
</g>
<!-- Node16&#45;&gt;Node9 -->
<g id="edge35" class="edge">
<title>Node16&#45;&gt;Node9</title>
<path fill="none" stroke="#191970" d="M829.6563,-201.3906C799.177,-192.3352 752.7411,-178.539 715.4098,-167.4479"/>
<polygon fill="#191970" stroke="#191970" points="716.2206,-164.0376 705.6379,-164.5446 714.227,-170.7477 716.2206,-164.0376"/>
</g>
<!-- Node17 -->
<g id="node18" class="node">
<title>Node17</title>
<g id="a_node18"><a xlink:href="../../db/d2c/ConfigurableParam_8h.html" target="_top" xlink:title="CommonUtils/Configurable\lParam.h">
<polygon fill="none" stroke="#000000" points="961,-67.5 961,-97.5 1109,-97.5 1109,-67.5 961,-67.5"/>
<text text-anchor="start" x="969" y="-85.5" font-family="Helvetica,sans-Serif" font-size="10.00" fill="#000000">CommonUtils/Configurable</text>
<text text-anchor="middle" x="1035" y="-74.5" font-family="Helvetica,sans-Serif" font-size="10.00" fill="#000000">Param.h</text>
</a>
</g>
</g>
<!-- Node16&#45;&gt;Node17 -->
<g id="edge22" class="edge">
<title>Node16&#45;&gt;Node17</title>
<path fill="none" stroke="#191970" d="M905.483,-201.46C942.0425,-192.6574 990.5835,-178.8851 1005,-165 1020.6912,-149.8872 1028.2127,-125.9292 1031.7958,-107.716"/>
<polygon fill="#191970" stroke="#191970" points="1035.2618,-108.2108 1033.4824,-97.7665 1028.3603,-107.0409 1035.2618,-108.2108"/>
</g>
<!-- Node23 -->
<g id="node24" class="node">
<title>Node23</title>
<g id="a_node24"><a xlink:href="../../da/d6b/ConfigurableParamHelper_8h.html" target="_top" xlink:title="CommonUtils/Configurable\lParamHelper.h">
<polygon fill="none" stroke="#000000" points="1219,-134.5 1219,-164.5 1367,-164.5 1367,-134.5 1219,-134.5"/>
<text text-anchor="start" x="1227" y="-152.5" font-family="Helvetica,sans-Serif" font-size="10.00" fill="#000000">CommonUtils/Configurable</text>
<text text-anchor="middle" x="1293" y="-141.5" font-family="Helvetica,sans-Serif" font-size="10.00" fill="#000000">ParamHelper.h</text>
</a>
</g>
</g>
<!-- Node16&#45;&gt;Node23 -->
<g id="edge29" class="edge">
<title>Node16&#45;&gt;Node23</title>
<path fill="none" stroke="#191970" d="M931.816,-202.879C999.9246,-194.7049 1106.7035,-181.2239 1208.655,-165.1672"/>
<polygon fill="#191970" stroke="#191970" points="1209.4939,-168.578 1218.8222,-163.5547 1208.3974,-161.6644 1209.4939,-168.578"/>
</g>
<!-- Node16&#45;&gt;Node27 -->
<g id="edge36" class="edge">
<title>Node16&#45;&gt;Node27</title>
<path fill="none" stroke="#191970" d="M902.9603,-201.4581C949.2995,-190.6632 1024.824,-173.0694 1074.9606,-161.3899"/>
<polygon fill="#191970" stroke="#191970" points="1075.9984,-164.7419 1084.9436,-159.0643 1074.4102,-157.9244 1075.9984,-164.7419"/>
</g>
<!-- Node28 -->
<g id="node29" class="node">
<title>Node28</title>
<g id="a_node29"><a xlink:href="../../de/da4/Triggers_8h.html" target="_top" xlink:title="Definition of the 32 Central Trigger System (CTS) Trigger Types defined in https://twiki.cern.ch/twiki/pub/ALICE/NoteForFEDevelopers/CTS_CRU_FE_interface.pdf. ">
<polygon fill="none" stroke="#000000" points="836,-140 836,-159 996,-159 996,-140 836,-140"/>
<text text-anchor="middle" x="916" y="-147" font-family="Helvetica,sans-Serif" font-size="10.00" fill="#000000">CommonConstants/Triggers.h</text>
</a>
</g>
</g>
<!-- Node16&#45;&gt;Node28 -->
<g id="edge38" class="edge">
<title>Node16&#45;&gt;Node28</title>
<path fill="none" stroke="#191970" d="M870.4375,-201.3906C878.5531,-192.1478 891.0055,-177.966 900.8424,-166.7628"/>
<polygon fill="#191970" stroke="#191970" points="903.4755,-169.0686 907.4435,-159.2449 898.2154,-164.45 903.4755,-169.0686"/>
</g>
<!-- Node17&#45;&gt;Node8 -->
<g id="edge23" class="edge">
<title>Node17&#45;&gt;Node8</title>
<path fill="none" stroke="#191970" d="M960.8704,-68.7799C883.1727,-54.3994 764.5408,-32.4426 706.8547,-21.7659"/>
<polygon fill="#191970" stroke="#191970" points="707.2863,-18.2864 696.8163,-19.908 706.0123,-25.1695 707.2863,-18.2864"/>
</g>
<!-- Node18 -->
<g id="node19" class="node">
<title>Node18</title>
<polygon fill="none" stroke="#bfbfbf" points="830,-6 830,-25 868,-25 868,-6 830,-6"/>
<text text-anchor="middle" x="849" y="-13" font-family="Helvetica,sans-Serif" font-size="10.00" fill="#000000">map</text>
</g>
<!-- Node17&#45;&gt;Node18 -->
<g id="edge24" class="edge">
<title>Node17&#45;&gt;Node18</title>
<path fill="none" stroke="#191970" d="M981.4611,-67.4643C950.7068,-58.2051 911.6315,-45.3744 878,-31 876.9764,-30.5625 875.9404,-30.1017 874.9,-29.6237"/>
<polygon fill="#191970" stroke="#191970" points="876.139,-26.3314 865.6254,-25.0218 873.0276,-32.6019 876.139,-26.3314"/>
</g>
<!-- Node19 -->
<g id="node20" class="node">
<title>Node19</title>
<polygon fill="none" stroke="#bfbfbf" points="886.5,-6 886.5,-25 979.5,-25 979.5,-6 886.5,-6"/>
<text text-anchor="middle" x="933" y="-13" font-family="Helvetica,sans-Serif" font-size="10.00" fill="#000000">unordered_map</text>
</g>
<!-- Node17&#45;&gt;Node19 -->
<g id="edge25" class="edge">
<title>Node17&#45;&gt;Node19</title>
<path fill="none" stroke="#191970" d="M1012.1092,-67.4639C995.4575,-56.526 972.9917,-41.769 956.2558,-30.7759"/>
<polygon fill="#191970" stroke="#191970" points="957.9006,-27.6688 947.6209,-25.1039 954.0575,-33.5195 957.9006,-27.6688"/>
</g>
<!-- Node20 -->
<g id="node21" class="node">
<title>Node20</title>
<polygon fill="none" stroke="#bfbfbf" points="997.5,-.5 997.5,-30.5 1110.5,-30.5 1110.5,-.5 997.5,-.5"/>
<text text-anchor="start" x="1005.5" y="-18.5" font-family="Helvetica,sans-Serif" font-size="10.00" fill="#000000">boost/property_tree</text>
<text text-anchor="middle" x="1054" y="-7.5" font-family="Helvetica,sans-Serif" font-size="10.00" fill="#000000">/ptree.hpp</text>
</g>
<!-- Node17&#45;&gt;Node20 -->
<g id="edge26" class="edge">
<title>Node17&#45;&gt;Node20</title>
<path fill="none" stroke="#191970" d="M1039.3114,-67.2967C1041.5706,-59.3299 1044.3946,-49.3718 1046.9611,-40.3213"/>
<polygon fill="#191970" stroke="#191970" points="1050.3446,-41.2187 1049.7057,-30.6432 1043.6101,-39.3089 1050.3446,-41.2187"/>
</g>
<!-- Node21 -->
<g id="node22" class="node">
<title>Node21</title>
<polygon fill="none" stroke="#bfbfbf" points="1244.5,-6 1244.5,-25 1301.5,-25 1301.5,-6 1244.5,-6"/>
<text text-anchor="middle" x="1273" y="-13" font-family="Helvetica,sans-Serif" font-size="10.00" fill="#000000">typeinfo</text>
</g>
<!-- Node17&#45;&gt;Node21 -->
<g id="edge27" class="edge">
<title>Node17&#45;&gt;Node21</title>
<path fill="none" stroke="#191970" d="M1088.4118,-67.4639C1132.7908,-54.9707 1194.8682,-37.4951 1234.5064,-26.3364"/>
<polygon fill="#191970" stroke="#191970" points="1235.6438,-29.6524 1244.3212,-23.5734 1233.7469,-22.9143 1235.6438,-29.6524"/>
</g>
<!-- Node22 -->
<g id="node23" class="node">
<title>Node22</title>
<polygon fill="none" stroke="#bfbfbf" points="1129,-6 1129,-25 1189,-25 1189,-6 1129,-6"/>
<text text-anchor="middle" x="1159" y="-13" font-family="Helvetica,sans-Serif" font-size="10.00" fill="#000000">iostream</text>
</g>
<!-- Node17&#45;&gt;Node22 -->
<g id="edge28" class="edge">
<title>Node17&#45;&gt;Node22</title>
<path fill="none" stroke="#191970" d="M1062.828,-67.4639C1083.6336,-56.2222 1111.9054,-40.9463 1132.4073,-29.8686"/>
<polygon fill="#191970" stroke="#191970" points="1134.0915,-32.9369 1141.2256,-25.1039 1130.7639,-26.7784 1134.0915,-32.9369"/>
</g>
<!-- Node23&#45;&gt;Node17 -->
<g id="edge30" class="edge">
<title>Node23&#45;&gt;Node17</title>
<path fill="none" stroke="#191970" d="M1235.0998,-134.4639C1195.9831,-124.3057 1144.1821,-110.8535 1103.0866,-100.1814"/>
<polygon fill="#191970" stroke="#191970" points="1103.7115,-96.7277 1093.1528,-97.6017 1101.952,-103.5029 1103.7115,-96.7277"/>
</g>
<!-- Node23&#45;&gt;Node21 -->
<g id="edge33" class="edge">
<title>Node23&#45;&gt;Node21</title>
<path fill="none" stroke="#191970" d="M1290.7446,-134.389C1287.1154,-110.0735 1279.9798,-62.2644 1275.9507,-35.2698"/>
<polygon fill="#191970" stroke="#191970" points="1279.3714,-34.4779 1274.4335,-25.1042 1272.4481,-35.5113 1279.3714,-34.4779"/>
</g>
<!-- Node24 -->
<g id="node25" class="node">
<title>Node24</title>
<polygon fill="none" stroke="#bfbfbf" points="1321.5,-73 1321.5,-92 1378.5,-92 1378.5,-73 1321.5,-73"/>
<text text-anchor="middle" x="1350" y="-80" font-family="Helvetica,sans-Serif" font-size="10.00" fill="#000000">TClass.h</text>
</g>
<!-- Node23&#45;&gt;Node24 -->
<g id="edge31" class="edge">
<title>Node23&#45;&gt;Node24</title>
<path fill="none" stroke="#191970" d="M1305.9342,-134.2967C1314.6426,-124.0605 1326.148,-110.5366 1335.2186,-99.8746"/>
<polygon fill="#191970" stroke="#191970" points="1338.0571,-101.9395 1341.8711,-92.055 1332.7255,-97.4036 1338.0571,-101.9395"/>
</g>
<!-- Node25 -->
<g id="node26" class="node">
<title>Node25</title>
<polygon fill="none" stroke="#bfbfbf" points="1129.5,-73 1129.5,-92 1198.5,-92 1198.5,-73 1129.5,-73"/>
<text text-anchor="middle" x="1164" y="-80" font-family="Helvetica,sans-Serif" font-size="10.00" fill="#000000">type_traits</text>
</g>
<!-- Node23&#45;&gt;Node25 -->
<g id="edge32" class="edge">
<title>Node23&#45;&gt;Node25</title>
<path fill="none" stroke="#191970" d="M1264.0499,-134.4639C1242.3078,-123.1715 1212.7284,-107.8086 1191.3773,-96.7192"/>
<polygon fill="#191970" stroke="#191970" points="1192.9788,-93.6071 1182.4911,-92.1039 1189.7523,-99.8192 1192.9788,-93.6071"/>
</g>
<!-- Node26 -->
<g id="node27" class="node">
<title>Node26</title>
<polygon fill="none" stroke="#bfbfbf" points="1217,-73 1217,-92 1265,-92 1265,-73 1217,-73"/>
<text text-anchor="middle" x="1241" y="-80" font-family="Helvetica,sans-Serif" font-size="10.00" fill="#000000">TFile.h</text>
</g>
<!-- Node23&#45;&gt;Node26 -->
<g id="edge34" class="edge">
<title>Node23&#45;&gt;Node26</title>
<path fill="none" stroke="#191970" d="M1281.2004,-134.2967C1273.3345,-124.1618 1262.9673,-110.804 1254.7312,-100.1921"/>
<polygon fill="#191970" stroke="#191970" points="1257.312,-97.8089 1248.4158,-92.055 1251.7821,-102.1008 1257.312,-97.8089"/>
</g>
<!-- Node27&#45;&gt;Node12 -->
<g id="edge37" class="edge">
<title>Node27&#45;&gt;Node12</title>
<path fill="none" stroke="#191970" d="M1089.2661,-139.992C1053.7663,-130.4845 998.6582,-114.8818 952,-98 950.1764,-97.3402 948.3126,-96.6352 946.4402,-95.9032"/>
<polygon fill="#191970" stroke="#191970" points="947.7334,-92.6507 937.1527,-92.1032 945.0826,-99.1294 947.7334,-92.6507"/>
</g>
<!-- Node28&#45;&gt;Node12 -->
<g id="edge39" class="edge">
<title>Node28&#45;&gt;Node12</title>
<path fill="none" stroke="#191970" d="M916,-139.9005C916,-130.149 916,-114.7597 916,-102.3695"/>
<polygon fill="#191970" stroke="#191970" points="919.5001,-102.0816 916,-92.0817 912.5001,-102.0817 919.5001,-102.0816"/>
</g>
</g>
</svg>
