<?xml version="1.0" encoding="UTF-8" standalone="no"?>
<!DOCTYPE svg PUBLIC "-//W3C//DTD SVG 1.1//EN"
 "http://www.w3.org/Graphics/SVG/1.1/DTD/svg11.dtd">
<!-- Generated by graphviz version 2.40.1 (20161225.0304)
 -->
<!-- Title: o2::soa::CombinationsGenerator&lt; P, Ts &gt;::CombinationsIterator Pages: 1 -->
<svg width="216pt" height="292pt"
 viewBox="0.00 0.00 215.50 292.00" xmlns="http://www.w3.org/2000/svg" xmlns:xlink="http://www.w3.org/1999/xlink">
<g id="graph0" class="graph" transform="scale(1 1) rotate(0) translate(4 288)">
<title>o2::soa::CombinationsGenerator&lt; P, Ts &gt;::CombinationsIterator</title>
<!-- Node3 -->
<g id="node1" class="node">
<title>Node3</title>
<polygon fill="#bfbfbf" stroke="#000000" points="31.5,-.5 31.5,-167.5 205.5,-167.5 205.5,-.5 31.5,-.5"/>
<text text-anchor="start" x="39.5" y="-155.5" font-family="Helvetica,sans-Serif" font-size="10.00" fill="#000000">o2::soa::CombinationsGenerator</text>
<text text-anchor="middle" x="118.5" y="-144.5" font-family="Helvetica,sans-Serif" font-size="10.00" fill="#000000">&lt; P, Ts &gt;::CombinationsIterator</text>
<polyline fill="none" stroke="#000000" points="31.5,-137.5 205.5,-137.5 "/>
<text text-anchor="middle" x="118.5" y="-125.5" font-family="Helvetica,sans-Serif" font-size="10.00" fill="#000000"> </text>
<polyline fill="none" stroke="#000000" points="31.5,-118.5 205.5,-118.5 "/>
<text text-anchor="start" x="39.5" y="-106.5" font-family="Helvetica,sans-Serif" font-size="10.00" fill="#000000">+ CombinationsIterator()</text>
<text text-anchor="start" x="39.5" y="-95.5" font-family="Helvetica,sans-Serif" font-size="10.00" fill="#000000">+ CombinationsIterator()</text>
<text text-anchor="start" x="39.5" y="-84.5" font-family="Helvetica,sans-Serif" font-size="10.00" fill="#000000">+ CombinationsIterator()</text>
<text text-anchor="start" x="39.5" y="-73.5" font-family="Helvetica,sans-Serif" font-size="10.00" fill="#000000">+ operator=()</text>
<text text-anchor="start" x="39.5" y="-62.5" font-family="Helvetica,sans-Serif" font-size="10.00" fill="#000000">+ ~CombinationsIterator()</text>
<text text-anchor="start" x="39.5" y="-51.5" font-family="Helvetica,sans-Serif" font-size="10.00" fill="#000000">+ operator++()</text>
<text text-anchor="start" x="39.5" y="-40.5" font-family="Helvetica,sans-Serif" font-size="10.00" fill="#000000">+ operator++()</text>
<text text-anchor="start" x="39.5" y="-29.5" font-family="Helvetica,sans-Serif" font-size="10.00" fill="#000000">+ operator*()</text>
<text text-anchor="start" x="39.5" y="-18.5" font-family="Helvetica,sans-Serif" font-size="10.00" fill="#000000">+ operator==()</text>
<text text-anchor="start" x="39.5" y="-7.5" font-family="Helvetica,sans-Serif" font-size="10.00" fill="#000000">+ operator!=()</text>
</g>
<!-- Node4 -->
<g id="node2" class="node">
<title>Node4</title>
<polygon fill="none" stroke="#bfbfbf" points="0,-204.5 0,-283.5 125,-283.5 125,-204.5 0,-204.5"/>
<text text-anchor="start" x="8" y="-271.5" font-family="Helvetica,sans-Serif" font-size="10.00" fill="#000000">std::iterator&lt; std</text>
<text text-anchor="start" x="8" y="-260.5" font-family="Helvetica,sans-Serif" font-size="10.00" fill="#000000">::forward_iterator_tag,</text>
<text text-anchor="middle" x="62.5" y="-249.5" font-family="Helvetica,sans-Serif" font-size="10.00" fill="#000000"> CombinationType &gt;</text>
<polyline fill="none" stroke="#bfbfbf" points="0,-242.5 125,-242.5 "/>
<text text-anchor="middle" x="62.5" y="-230.5" font-family="Helvetica,sans-Serif" font-size="10.00" fill="#000000"> </text>
<polyline fill="none" stroke="#bfbfbf" points="0,-223.5 125,-223.5 "/>
<text text-anchor="middle" x="62.5" y="-211.5" font-family="Helvetica,sans-Serif" font-size="10.00" fill="#000000"> </text>
</g>
<!-- Node4&#45;&gt;Node3 -->
<g id="edge1" class="edge">
<title>Node4&#45;&gt;Node3</title>
<path fill="none" stroke="#191970" d="M79.6891,-194.8883C82.7375,-186.1786 85.9879,-176.8917 89.2609,-167.5402"/>
<polygon fill="none" stroke="#191970" points="76.3428,-193.8546 76.3427,-204.4494 82.9498,-196.1671 76.3428,-193.8546"/>
</g>
<!-- Node5 -->
<g id="node3" class="node">
<title>Node5</title>
<g id="a_node3"><a xlink:href="../../db/d72/classP.html" target="_top" xlink:title="{P\&lt; Ts... \&gt;\n||}">
<polygon fill="none" stroke="#000000" points="143.5,-215.5 143.5,-272.5 207.5,-272.5 207.5,-215.5 143.5,-215.5"/>
<text text-anchor="middle" x="175.5" y="-260.5" font-family="Helvetica,sans-Serif" font-size="10.00" fill="#000000">P&lt; Ts... &gt;</text>
<polyline fill="none" stroke="#000000" points="143.5,-253.5 207.5,-253.5 "/>
<text text-anchor="middle" x="175.5" y="-241.5" font-family="Helvetica,sans-Serif" font-size="10.00" fill="#000000"> </text>
<polyline fill="none" stroke="#000000" points="143.5,-234.5 207.5,-234.5 "/>
<text text-anchor="middle" x="175.5" y="-222.5" font-family="Helvetica,sans-Serif" font-size="10.00" fill="#000000"> </text>
</a>
</g>
</g>
<!-- Node5&#45;&gt;Node3 -->
<g id="edge2" class="edge">
<title>Node5&#45;&gt;Node3</title>
<path fill="none" stroke="#191970" d="M161.8485,-205.6801C157.7266,-194.1098 153.0298,-180.9257 148.2853,-167.6079"/>
<polygon fill="none" stroke="#191970" points="158.6565,-207.1497 165.3095,-215.3952 165.2506,-204.8005 158.6565,-207.1497"/>
</g>
</g>
</svg>
