<?xml version="1.0" encoding="UTF-8" standalone="no"?>
<!DOCTYPE svg PUBLIC "-//W3C//DTD SVG 1.1//EN"
 "http://www.w3.org/Graphics/SVG/1.1/DTD/svg11.dtd">
<!-- Generated by graphviz version 2.40.1 (20161225.0304)
 -->
<!-- Title: /home/travis/build/AliceO2Group/AliceO2/Detectors/ITSMFT/common/reconstruction/include/ITSMFTReconstruction/RUDecodeData.h Pages: 1 -->
<svg width="812pt" height="329pt"
 viewBox="0.00 0.00 811.50 329.00" xmlns="http://www.w3.org/2000/svg" xmlns:xlink="http://www.w3.org/1999/xlink">
<g id="graph0" class="graph" transform="scale(1 1) rotate(0) translate(4 325)">
<title>/home/travis/build/AliceO2Group/AliceO2/Detectors/ITSMFT/common/reconstruction/include/ITSMFTReconstruction/RUDecodeData.h</title>
<!-- Node0 -->
<g id="node1" class="node">
<title>Node0</title>
<polygon fill="#bfbfbf" stroke="#000000" points="292,-257.5 292,-320.5 504,-320.5 504,-257.5 292,-257.5"/>
<text text-anchor="start" x="300" y="-308.5" font-family="Helvetica,sans-Serif" font-size="10.00" fill="#000000">/home/travis/build</text>
<text text-anchor="start" x="300" y="-297.5" font-family="Helvetica,sans-Serif" font-size="10.00" fill="#000000">/AliceO2Group/AliceO2</text>
<text text-anchor="start" x="300" y="-286.5" font-family="Helvetica,sans-Serif" font-size="10.00" fill="#000000">/Detectors/ITSMFT/common</text>
<text text-anchor="start" x="300" y="-275.5" font-family="Helvetica,sans-Serif" font-size="10.00" fill="#000000">/reconstruction/include</text>
<text text-anchor="middle" x="398" y="-264.5" font-family="Helvetica,sans-Serif" font-size="10.00" fill="#000000">/ITSMFTReconstruction/RUDecodeData.h</text>
</g>
<!-- Node1 -->
<g id="node2" class="node">
<title>Node1</title>
<polygon fill="none" stroke="#bfbfbf" points="252,-196 252,-215 294,-215 294,-196 252,-196"/>
<text text-anchor="middle" x="273" y="-203" font-family="Helvetica,sans-Serif" font-size="10.00" fill="#000000">array</text>
</g>
<!-- Node0&#45;&gt;Node1 -->
<g id="edge1" class="edge">
<title>Node0&#45;&gt;Node1</title>
<path fill="none" stroke="#191970" d="M350.7429,-257.4322C331.9021,-244.8466 311.0933,-230.9463 295.7489,-220.6963"/>
<polygon fill="#191970" stroke="#191970" points="297.6616,-217.7649 287.402,-215.1205 293.7732,-223.5856 297.6616,-217.7649"/>
</g>
<!-- Node2 -->
<g id="node3" class="node">
<title>Node2</title>
<polygon fill="none" stroke="#bfbfbf" points="312,-196 312,-215 370,-215 370,-196 312,-196"/>
<text text-anchor="middle" x="341" y="-203" font-family="Helvetica,sans-Serif" font-size="10.00" fill="#000000">memory</text>
</g>
<!-- Node0&#45;&gt;Node2 -->
<g id="edge2" class="edge">
<title>Node0&#45;&gt;Node2</title>
<path fill="none" stroke="#191970" d="M376.4507,-257.4322C368.7101,-246.0928 360.2409,-233.6862 353.522,-223.8437"/>
<polygon fill="#191970" stroke="#191970" points="356.2262,-221.597 347.6975,-215.3112 350.4448,-225.5437 356.2262,-221.597"/>
</g>
<!-- Node3 -->
<g id="node4" class="node">
<title>Node3</title>
<g id="a_node4"><a xlink:href="../../da/d8d/PixelData_8h.html" target="_top" xlink:title="Transient data classes for single pixel and set of pixels from current chip. ">
<polygon fill="none" stroke="#000000" points="166.5,-123.5 166.5,-153.5 289.5,-153.5 289.5,-123.5 166.5,-123.5"/>
<text text-anchor="start" x="174.5" y="-141.5" font-family="Helvetica,sans-Serif" font-size="10.00" fill="#000000">ITSMFTReconstruction</text>
<text text-anchor="middle" x="228" y="-130.5" font-family="Helvetica,sans-Serif" font-size="10.00" fill="#000000">/PixelData.h</text>
</a>
</g>
</g>
<!-- Node0&#45;&gt;Node3 -->
<g id="edge3" class="edge">
<title>Node0&#45;&gt;Node3</title>
<path fill="none" stroke="#191970" d="M399.7256,-257.3671C399.1943,-235.9644 394.9648,-208.3551 379,-190 367.9154,-177.2557 333.1205,-164.9657 299.7228,-155.5896"/>
<polygon fill="#191970" stroke="#191970" points="300.4667,-152.1645 289.8974,-152.9005 298.6188,-158.9162 300.4667,-152.1645"/>
</g>
<!-- Node14 -->
<g id="node15" class="node">
<title>Node14</title>
<g id="a_node15"><a xlink:href="../../d0/d35/PayLoadCont_8h.html" target="_top" xlink:title="Declaration of class for continuos buffer of ALPIDE data. ">
<polygon fill="none" stroke="#000000" points="680.5,-123.5 680.5,-153.5 803.5,-153.5 803.5,-123.5 680.5,-123.5"/>
<text text-anchor="start" x="688.5" y="-141.5" font-family="Helvetica,sans-Serif" font-size="10.00" fill="#000000">ITSMFTReconstruction</text>
<text text-anchor="middle" x="742" y="-130.5" font-family="Helvetica,sans-Serif" font-size="10.00" fill="#000000">/PayLoadCont.h</text>
</a>
</g>
</g>
<!-- Node0&#45;&gt;Node14 -->
<g id="edge16" class="edge">
<title>Node0&#45;&gt;Node14</title>
<path fill="none" stroke="#191970" d="M473.017,-257.4763C499.8746,-246.0955 530.3394,-233.0776 558,-221 606.5952,-199.7817 662.098,-174.7914 699.3232,-157.9202"/>
<polygon fill="#191970" stroke="#191970" points="701.1858,-160.9187 708.8469,-153.6003 698.2941,-154.5438 701.1858,-160.9187"/>
</g>
<!-- Node17 -->
<g id="node18" class="node">
<title>Node17</title>
<g id="a_node18"><a xlink:href="../../d8/da2/AlpideCoder_8h.html" target="_top" xlink:title="class for the ALPIDE data decoding/encoding ">
<polygon fill="none" stroke="#000000" points="426.5,-190.5 426.5,-220.5 549.5,-220.5 549.5,-190.5 426.5,-190.5"/>
<text text-anchor="start" x="434.5" y="-208.5" font-family="Helvetica,sans-Serif" font-size="10.00" fill="#000000">ITSMFTReconstruction</text>
<text text-anchor="middle" x="488" y="-197.5" font-family="Helvetica,sans-Serif" font-size="10.00" fill="#000000">/AlpideCoder.h</text>
</a>
</g>
</g>
<!-- Node0&#45;&gt;Node17 -->
<g id="edge21" class="edge">
<title>Node0&#45;&gt;Node17</title>
<path fill="none" stroke="#191970" d="M432.0251,-257.4322C442.7088,-247.5202 454.2714,-236.7927 464.0987,-227.6751"/>
<polygon fill="#191970" stroke="#191970" points="466.6077,-230.1217 471.558,-220.7545 461.8467,-224.9901 466.6077,-230.1217"/>
</g>
<!-- Node4 -->
<g id="node5" class="node">
<title>Node4</title>
<g id="a_node5"><a xlink:href="../../d3/d1e/DataFormats_2Detectors_2ITSMFT_2common_2include_2DataFormatsITSMFT_2Digit_8h.html" target="_top" xlink:title="DataFormatsITSMFT/Digit.h">
<polygon fill="none" stroke="#000000" points="347.5,-62 347.5,-81 496.5,-81 496.5,-62 347.5,-62"/>
<text text-anchor="middle" x="422" y="-69" font-family="Helvetica,sans-Serif" font-size="10.00" fill="#000000">DataFormatsITSMFT/Digit.h</text>
</a>
</g>
</g>
<!-- Node3&#45;&gt;Node4 -->
<g id="edge4" class="edge">
<title>Node3&#45;&gt;Node4</title>
<path fill="none" stroke="#191970" d="M271.5374,-123.4639C305.6556,-111.6808 352.6068,-95.4657 384.9419,-84.2984"/>
<polygon fill="#191970" stroke="#191970" points="386.1676,-87.578 394.4772,-81.0053 383.8825,-80.9615 386.1676,-87.578"/>
</g>
<!-- Node7 -->
<g id="node8" class="node">
<title>Node7</title>
<g id="a_node8"><a xlink:href="../../d9/d80/InteractionRecord_8h.html" target="_top" xlink:title="CommonDataFormat/Interaction\lRecord.h">
<polygon fill="none" stroke="#000000" points="155,-56.5 155,-86.5 329,-86.5 329,-56.5 155,-56.5"/>
<text text-anchor="start" x="163" y="-74.5" font-family="Helvetica,sans-Serif" font-size="10.00" fill="#000000">CommonDataFormat/Interaction</text>
<text text-anchor="middle" x="242" y="-63.5" font-family="Helvetica,sans-Serif" font-size="10.00" fill="#000000">Record.h</text>
</a>
</g>
</g>
<!-- Node3&#45;&gt;Node7 -->
<g id="edge7" class="edge">
<title>Node3&#45;&gt;Node7</title>
<path fill="none" stroke="#191970" d="M231.1768,-123.2967C232.8236,-115.4156 234.8776,-105.5857 236.7524,-96.6135"/>
<polygon fill="#191970" stroke="#191970" points="240.2163,-97.1477 238.8358,-86.6432 233.3643,-95.7159 240.2163,-97.1477"/>
</g>
<!-- Node10 -->
<g id="node11" class="node">
<title>Node10</title>
<polygon fill="none" stroke="#bfbfbf" points="0,-.5 0,-19.5 50,-19.5 50,-.5 0,-.5"/>
<text text-anchor="middle" x="25" y="-7.5" font-family="Helvetica,sans-Serif" font-size="10.00" fill="#000000">cstdint</text>
</g>
<!-- Node3&#45;&gt;Node10 -->
<g id="edge15" class="edge">
<title>Node3&#45;&gt;Node10</title>
<path fill="none" stroke="#191970" d="M202.4061,-123.4295C185.9888,-113.519 164.3836,-100.019 146,-87 127.9302,-74.2033 125.3813,-68.3451 107,-56 89.6689,-44.3602 69.1877,-32.8692 53.0298,-24.2837"/>
<polygon fill="#191970" stroke="#191970" points="54.5539,-21.1309 44.0724,-19.5852 51.3023,-27.3299 54.5539,-21.1309"/>
</g>
<!-- Node12 -->
<g id="node13" class="node">
<title>Node12</title>
<polygon fill="none" stroke="#bfbfbf" points="514.5,-62 514.5,-81 561.5,-81 561.5,-62 514.5,-62"/>
<text text-anchor="middle" x="538" y="-69" font-family="Helvetica,sans-Serif" font-size="10.00" fill="#000000">vector</text>
</g>
<!-- Node3&#45;&gt;Node12 -->
<g id="edge13" class="edge">
<title>Node3&#45;&gt;Node12</title>
<path fill="none" stroke="#191970" d="M289.8043,-124.6541C292.5719,-124.0847 295.3136,-123.5307 298,-123 389.6102,-104.9012 415.9472,-115.0997 505,-87 506.8562,-86.4143 508.7425,-85.7457 510.6251,-85.0225"/>
<polygon fill="#191970" stroke="#191970" points="512.0267,-88.2298 519.8484,-81.0833 509.2773,-81.7923 512.0267,-88.2298"/>
</g>
<!-- Node13 -->
<g id="node14" class="node">
<title>Node13</title>
<polygon fill="none" stroke="#bfbfbf" points="53.5,-62 53.5,-81 98.5,-81 98.5,-62 53.5,-62"/>
<text text-anchor="middle" x="76" y="-69" font-family="Helvetica,sans-Serif" font-size="10.00" fill="#000000">utility</text>
</g>
<!-- Node3&#45;&gt;Node13 -->
<g id="edge14" class="edge">
<title>Node3&#45;&gt;Node13</title>
<path fill="none" stroke="#191970" d="M193.8882,-123.4639C167.9251,-112.0196 132.477,-96.3945 107.2485,-85.274"/>
<polygon fill="#191970" stroke="#191970" points="108.3502,-81.9347 97.788,-81.1039 105.5268,-88.3401 108.3502,-81.9347"/>
</g>
<!-- Node5 -->
<g id="node6" class="node">
<title>Node5</title>
<polygon fill="none" stroke="#bfbfbf" points="518.5,-.5 518.5,-19.5 577.5,-19.5 577.5,-.5 518.5,-.5"/>
<text text-anchor="middle" x="548" y="-7.5" font-family="Helvetica,sans-Serif" font-size="10.00" fill="#000000">Rtypes.h</text>
</g>
<!-- Node4&#45;&gt;Node5 -->
<g id="edge5" class="edge">
<title>Node4&#45;&gt;Node5</title>
<path fill="none" stroke="#191970" d="M441.6875,-61.8906C462.4922,-51.7359 495.511,-35.6196 519.2319,-24.0416"/>
<polygon fill="#191970" stroke="#191970" points="520.9993,-27.0736 528.4507,-19.5419 517.9288,-20.783 520.9993,-27.0736"/>
</g>
<!-- Node6 -->
<g id="node7" class="node">
<title>Node6</title>
<polygon fill="none" stroke="#bfbfbf" points="409,-.5 409,-19.5 459,-19.5 459,-.5 409,-.5"/>
<text text-anchor="middle" x="434" y="-7.5" font-family="Helvetica,sans-Serif" font-size="10.00" fill="#000000">climits</text>
</g>
<!-- Node4&#45;&gt;Node6 -->
<g id="edge6" class="edge">
<title>Node4&#45;&gt;Node6</title>
<path fill="none" stroke="#191970" d="M423.875,-61.8906C425.5559,-53.276 428.074,-40.3708 430.1784,-29.5858"/>
<polygon fill="#191970" stroke="#191970" points="433.6186,-30.2301 432.0986,-19.7449 426.7482,-28.8895 433.6186,-30.2301"/>
</g>
<!-- Node7&#45;&gt;Node5 -->
<g id="edge8" class="edge">
<title>Node7&#45;&gt;Node5</title>
<path fill="none" stroke="#191970" d="M316.856,-56.4554C377.1875,-44.33 459.6785,-27.7509 508.055,-18.0282"/>
<polygon fill="#191970" stroke="#191970" points="509.0164,-21.405 518.1307,-16.0031 507.6371,-14.5422 509.0164,-21.405"/>
</g>
<!-- Node8 -->
<g id="node9" class="node">
<title>Node8</title>
<polygon fill="none" stroke="#bfbfbf" points="276.5,-.5 276.5,-19.5 325.5,-19.5 325.5,-.5 276.5,-.5"/>
<text text-anchor="middle" x="301" y="-7.5" font-family="Helvetica,sans-Serif" font-size="10.00" fill="#000000">iosfwd</text>
</g>
<!-- Node7&#45;&gt;Node8 -->
<g id="edge9" class="edge">
<title>Node7&#45;&gt;Node8</title>
<path fill="none" stroke="#191970" d="M256.5843,-56.2977C265.03,-47.4941 275.6892,-36.3833 284.4484,-27.2529"/>
<polygon fill="#191970" stroke="#191970" points="287.1561,-29.4862 291.5534,-19.8469 282.1048,-24.6402 287.1561,-29.4862"/>
</g>
<!-- Node9 -->
<g id="node10" class="node">
<title>Node9</title>
<polygon fill="none" stroke="#bfbfbf" points="343.5,-.5 343.5,-19.5 390.5,-19.5 390.5,-.5 343.5,-.5"/>
<text text-anchor="middle" x="367" y="-7.5" font-family="Helvetica,sans-Serif" font-size="10.00" fill="#000000">cmath</text>
</g>
<!-- Node7&#45;&gt;Node9 -->
<g id="edge10" class="edge">
<title>Node7&#45;&gt;Node9</title>
<path fill="none" stroke="#191970" d="M272.5784,-56.4554C292.7032,-46.554 318.8639,-33.683 338.5438,-24.0004"/>
<polygon fill="#191970" stroke="#191970" points="340.2018,-27.0855 347.6294,-19.5303 337.1115,-20.8045 340.2018,-27.0855"/>
</g>
<!-- Node7&#45;&gt;Node10 -->
<g id="edge11" class="edge">
<title>Node7&#45;&gt;Node10</title>
<path fill="none" stroke="#191970" d="M187.9026,-56.4552C153.7262,-46.9093 108.3894,-34.1711 59.965,-20.2575"/>
<polygon fill="#191970" stroke="#191970" points="60.8193,-16.8613 50.2414,-17.4597 58.8837,-23.5884 60.8193,-16.8613"/>
</g>
<!-- Node11 -->
<g id="node12" class="node">
<title>Node11</title>
<g id="a_node12"><a xlink:href="../../d4/dc6/LHCConstants_8h.html" target="_top" xlink:title="Header to collect LHC related constants. ">
<polygon fill="none" stroke="#000000" points="68,-.5 68,-19.5 258,-19.5 258,-.5 68,-.5"/>
<text text-anchor="middle" x="163" y="-7.5" font-family="Helvetica,sans-Serif" font-size="10.00" fill="#000000">CommonConstants/LHCConstants.h</text>
</a>
</g>
</g>
<!-- Node7&#45;&gt;Node11 -->
<g id="edge12" class="edge">
<title>Node7&#45;&gt;Node11</title>
<path fill="none" stroke="#191970" d="M222.4719,-56.2977C210.7063,-47.1384 195.7325,-35.4816 183.7535,-26.1562"/>
<polygon fill="#191970" stroke="#191970" points="185.6898,-23.228 175.6489,-19.8469 181.3897,-28.7516 185.6898,-23.228"/>
</g>
<!-- Node14&#45;&gt;Node5 -->
<g id="edge20" class="edge">
<title>Node14&#45;&gt;Node5</title>
<path fill="none" stroke="#191970" d="M755.6795,-123.3074C769.9898,-105.5209 788.278,-75.9605 772,-56 749.2063,-28.0498 645.9343,-16.6028 587.9016,-12.3124"/>
<polygon fill="#191970" stroke="#191970" points="587.8419,-8.7997 577.6217,-11.5922 587.3526,-15.7826 587.8419,-8.7997"/>
</g>
<!-- Node14&#45;&gt;Node12 -->
<g id="edge18" class="edge">
<title>Node14&#45;&gt;Node12</title>
<path fill="none" stroke="#191970" d="M696.2184,-123.4639C658.4253,-111.0514 605.6575,-93.7209 571.6559,-82.5537"/>
<polygon fill="#191970" stroke="#191970" points="572.3364,-79.0933 561.7436,-79.2981 570.1521,-85.7438 572.3364,-79.0933"/>
</g>
<!-- Node15 -->
<g id="node16" class="node">
<title>Node15</title>
<polygon fill="none" stroke="#bfbfbf" points="630,-62 630,-81 680,-81 680,-62 630,-62"/>
<text text-anchor="middle" x="655" y="-69" font-family="Helvetica,sans-Serif" font-size="10.00" fill="#000000">cstring</text>
</g>
<!-- Node14&#45;&gt;Node15 -->
<g id="edge17" class="edge">
<title>Node14&#45;&gt;Node15</title>
<path fill="none" stroke="#191970" d="M722.2584,-123.2967C708.3085,-112.5537 689.6565,-98.1895 675.5332,-87.3129"/>
<polygon fill="#191970" stroke="#191970" points="677.4656,-84.3835 667.4072,-81.055 673.1945,-89.9295 677.4656,-84.3835"/>
</g>
<!-- Node16 -->
<g id="node17" class="node">
<title>Node16</title>
<polygon fill="none" stroke="#bfbfbf" points="698.5,-62 698.5,-81 763.5,-81 763.5,-62 698.5,-62"/>
<text text-anchor="middle" x="731" y="-69" font-family="Helvetica,sans-Serif" font-size="10.00" fill="#000000">functional</text>
</g>
<!-- Node14&#45;&gt;Node16 -->
<g id="edge19" class="edge">
<title>Node14&#45;&gt;Node16</title>
<path fill="none" stroke="#191970" d="M739.5039,-123.2967C737.9398,-113.7699 735.9082,-101.3954 734.2229,-91.1306"/>
<polygon fill="#191970" stroke="#191970" points="737.6427,-90.3558 732.5687,-81.055 730.7351,-91.4899 737.6427,-90.3558"/>
</g>
<!-- Node17&#45;&gt;Node3 -->
<g id="edge30" class="edge">
<title>Node17&#45;&gt;Node3</title>
<path fill="none" stroke="#191970" d="M429.6509,-190.4639C390.1477,-180.2842 337.8077,-166.7966 296.3519,-156.1138"/>
<polygon fill="#191970" stroke="#191970" points="297.1606,-152.7079 286.6036,-153.6017 295.4138,-159.4864 297.1606,-152.7079"/>
</g>
<!-- Node17&#45;&gt;Node5 -->
<g id="edge22" class="edge">
<title>Node17&#45;&gt;Node5</title>
<path fill="none" stroke="#191970" d="M528.9108,-190.4816C545.0283,-182.3159 561.8481,-170.4491 571,-154 575.3652,-146.1542 577.8966,-89.6475 570,-56 567.7856,-46.5643 563.4413,-36.7858 559.1941,-28.6835"/>
<polygon fill="#191970" stroke="#191970" points="562.145,-26.7893 554.2111,-19.7676 556.0345,-30.2043 562.145,-26.7893"/>
</g>
<!-- Node17&#45;&gt;Node10 -->
<g id="edge24" class="edge">
<title>Node17&#45;&gt;Node10</title>
<path fill="none" stroke="#191970" d="M426.4149,-196.5329C334.1781,-183.0143 169.5547,-158.5086 157,-154 102.0494,-134.2663 78.8101,-133.8748 44,-87 31.594,-70.2943 27.214,-46.4785 25.7073,-29.7691"/>
<polygon fill="#191970" stroke="#191970" points="29.1829,-29.2708 25.06,-19.5111 22.1968,-29.7117 29.1829,-29.2708"/>
</g>
<!-- Node17&#45;&gt;Node12 -->
<g id="edge25" class="edge">
<title>Node17&#45;&gt;Node12</title>
<path fill="none" stroke="#191970" d="M490.0038,-190.467C492.5826,-173.594 497.8573,-145.6207 507,-123 511.6927,-111.3895 518.7975,-99.3479 525.022,-89.8305"/>
<polygon fill="#191970" stroke="#191970" points="528.1154,-91.5049 530.831,-81.264 522.3218,-87.5762 528.1154,-91.5049"/>
</g>
<!-- Node17&#45;&gt;Node14 -->
<g id="edge29" class="edge">
<title>Node17&#45;&gt;Node14</title>
<path fill="none" stroke="#191970" d="M545.0026,-190.4639C583.5128,-180.3057 634.5106,-166.8535 674.969,-156.1814"/>
<polygon fill="#191970" stroke="#191970" points="675.9723,-159.5366 684.7488,-153.6017 674.1868,-152.7681 675.9723,-159.5366"/>
</g>
<!-- Node18 -->
<g id="node19" class="node">
<title>Node18</title>
<polygon fill="none" stroke="#bfbfbf" points="516,-129 516,-148 562,-148 562,-129 516,-129"/>
<text text-anchor="middle" x="539" y="-136" font-family="Helvetica,sans-Serif" font-size="10.00" fill="#000000">cstdio</text>
</g>
<!-- Node17&#45;&gt;Node18 -->
<g id="edge23" class="edge">
<title>Node17&#45;&gt;Node18</title>
<path fill="none" stroke="#191970" d="M499.5727,-190.2967C507.2873,-180.1618 517.4551,-166.804 525.5329,-156.1921"/>
<polygon fill="#191970" stroke="#191970" points="528.4549,-158.1319 531.7268,-148.055 522.8849,-153.8921 528.4549,-158.1319"/>
</g>
<!-- Node19 -->
<g id="node20" class="node">
<title>Node19</title>
<polygon fill="none" stroke="#bfbfbf" points="618,-129 618,-148 662,-148 662,-129 618,-129"/>
<text text-anchor="middle" x="640" y="-136" font-family="Helvetica,sans-Serif" font-size="10.00" fill="#000000">string</text>
</g>
<!-- Node17&#45;&gt;Node19 -->
<g id="edge26" class="edge">
<title>Node17&#45;&gt;Node19</title>
<path fill="none" stroke="#191970" d="M522.1118,-190.4639C548.0749,-179.0196 583.523,-163.3945 608.7515,-152.274"/>
<polygon fill="#191970" stroke="#191970" points="610.4732,-155.3401 618.212,-148.1039 607.6498,-148.9347 610.4732,-155.3401"/>
</g>
<!-- Node20 -->
<g id="node21" class="node">
<title>Node20</title>
<polygon fill="none" stroke="#bfbfbf" points="307.5,-129 307.5,-148 382.5,-148 382.5,-129 307.5,-129"/>
<text text-anchor="middle" x="345" y="-136" font-family="Helvetica,sans-Serif" font-size="10.00" fill="#000000">FairLogger.h</text>
</g>
<!-- Node17&#45;&gt;Node20 -->
<g id="edge27" class="edge">
<title>Node17&#45;&gt;Node20</title>
<path fill="none" stroke="#191970" d="M455.908,-190.4639C431.5902,-179.0702 398.4279,-163.5327 374.7138,-152.4219"/>
<polygon fill="#191970" stroke="#191970" points="376.0382,-149.1773 365.4979,-148.1039 373.0683,-155.5161 376.0382,-149.1773"/>
</g>
<!-- Node21 -->
<g id="node22" class="node">
<title>Node21</title>
<polygon fill="none" stroke="#bfbfbf" points="400,-129 400,-148 460,-148 460,-129 400,-129"/>
<text text-anchor="middle" x="430" y="-136" font-family="Helvetica,sans-Serif" font-size="10.00" fill="#000000">iostream</text>
</g>
<!-- Node17&#45;&gt;Node21 -->
<g id="edge28" class="edge">
<title>Node17&#45;&gt;Node21</title>
<path fill="none" stroke="#191970" d="M474.8389,-190.2967C465.9777,-180.0605 454.2705,-166.5366 445.0407,-155.8746"/>
<polygon fill="#191970" stroke="#191970" points="447.4627,-153.3248 438.2715,-148.055 442.1703,-157.9064 447.4627,-153.3248"/>
</g>
</g>
</svg>
