<?xml version="1.0" encoding="UTF-8" standalone="no"?>
<!DOCTYPE svg PUBLIC "-//W3C//DTD SVG 1.1//EN"
 "http://www.w3.org/Graphics/SVG/1.1/DTD/svg11.dtd">
<!-- Generated by graphviz version 2.40.1 (20161225.0304)
 -->
<!-- Title: /home/travis/build/AliceO2Group/AliceO2/Detectors/Base/src/MatLayerCyl.cxx Pages: 1 -->
<svg width="2694pt" height="430pt"
 viewBox="0.00 0.00 2694.00 430.00" xmlns="http://www.w3.org/2000/svg" xmlns:xlink="http://www.w3.org/1999/xlink">
<g id="graph0" class="graph" transform="scale(1 1) rotate(0) translate(4 426)">
<title>/home/travis/build/AliceO2Group/AliceO2/Detectors/Base/src/MatLayerCyl.cxx</title>
<!-- Node0 -->
<g id="node1" class="node">
<title>Node0</title>
<polygon fill="#bfbfbf" stroke="#000000" points="468,-369.5 468,-421.5 627,-421.5 627,-369.5 468,-369.5"/>
<text text-anchor="start" x="476" y="-409.5" font-family="Helvetica,sans-Serif" font-size="10.00" fill="#000000">/home/travis/build</text>
<text text-anchor="start" x="476" y="-398.5" font-family="Helvetica,sans-Serif" font-size="10.00" fill="#000000">/AliceO2Group/AliceO2</text>
<text text-anchor="start" x="476" y="-387.5" font-family="Helvetica,sans-Serif" font-size="10.00" fill="#000000">/Detectors/Base/src/MatLayer</text>
<text text-anchor="middle" x="547.5" y="-376.5" font-family="Helvetica,sans-Serif" font-size="10.00" fill="#000000">Cyl.cxx</text>
</g>
<!-- Node1 -->
<g id="node2" class="node">
<title>Node1</title>
<g id="a_node2"><a xlink:href="../../da/df3/MatLayerCyl_8h.html" target="_top" xlink:title="Declarations for single cylindrical material layer class. ">
<polygon fill="none" stroke="#000000" points="467,-313.5 467,-332.5 628,-332.5 628,-313.5 467,-313.5"/>
<text text-anchor="middle" x="547.5" y="-320.5" font-family="Helvetica,sans-Serif" font-size="10.00" fill="#000000">DetectorsBase/MatLayerCyl.h</text>
</a>
</g>
</g>
<!-- Node0&#45;&gt;Node1 -->
<g id="edge1" class="edge">
<title>Node0&#45;&gt;Node1</title>
<path fill="none" stroke="#191970" d="M547.5,-369.3258C547.5,-360.5142 547.5,-350.8397 547.5,-342.621"/>
<polygon fill="#191970" stroke="#191970" points="551.0001,-342.534 547.5,-332.534 544.0001,-342.534 551.0001,-342.534"/>
</g>
<!-- Node14 -->
<g id="node15" class="node">
<title>Node14</title>
<g id="a_node15"><a xlink:href="../../df/d5b/GPUCommonLogger_8h.html" target="_top" xlink:title="GPUCommonLogger.h">
<polygon fill="none" stroke="#000000" points="0,-185 0,-204 123,-204 123,-185 0,-185"/>
<text text-anchor="middle" x="61.5" y="-192" font-family="Helvetica,sans-Serif" font-size="10.00" fill="#000000">GPUCommonLogger.h</text>
</a>
</g>
</g>
<!-- Node0&#45;&gt;Node14 -->
<g id="edge64" class="edge">
<title>Node0&#45;&gt;Node14</title>
<path fill="none" stroke="#191970" d="M467.6215,-391.6399C363.7462,-385.2307 189.4314,-369.3035 137.5,-333 96.0574,-304.0289 74.8897,-244.956 66.2878,-214.1622"/>
<polygon fill="#191970" stroke="#191970" points="69.5981,-212.9878 63.6729,-204.2047 62.8277,-214.7658 69.5981,-212.9878"/>
</g>
<!-- Node20 -->
<g id="node21" class="node">
<title>Node20</title>
<g id="a_node21"><a xlink:href="../../d9/d52/Common_2MathUtils_2include_2MathUtils_2Utils_8h.html" target="_top" xlink:title="MathUtils/Utils.h">
<polygon fill="none" stroke="#000000" points="865.5,-185 865.5,-204 963.5,-204 963.5,-185 865.5,-185"/>
<text text-anchor="middle" x="914.5" y="-192" font-family="Helvetica,sans-Serif" font-size="10.00" fill="#000000">MathUtils/Utils.h</text>
</a>
</g>
</g>
<!-- Node0&#45;&gt;Node20 -->
<g id="edge27" class="edge">
<title>Node0&#45;&gt;Node20</title>
<path fill="none" stroke="#191970" d="M627.3026,-372.0598C687.1621,-352.2668 769.4605,-320.2209 833.5,-277 860.5232,-258.7618 885.8618,-230.4569 900.7756,-212.2007"/>
<polygon fill="#191970" stroke="#191970" points="903.7131,-214.1312 907.2211,-204.134 898.2444,-209.7615 903.7131,-214.1312"/>
</g>
<!-- Node22 -->
<g id="node23" class="node">
<title>Node22</title>
<g id="a_node23"><a xlink:href="../../d6/d84/MathConstants_8h.html" target="_top" xlink:title="useful math constants ">
<polygon fill="none" stroke="#000000" points="397.5,-118 397.5,-137 591.5,-137 591.5,-118 397.5,-118"/>
<text text-anchor="middle" x="494.5" y="-125" font-family="Helvetica,sans-Serif" font-size="10.00" fill="#000000">CommonConstants/MathConstants.h</text>
</a>
</g>
</g>
<!-- Node0&#45;&gt;Node22 -->
<g id="edge33" class="edge">
<title>Node0&#45;&gt;Node22</title>
<path fill="none" stroke="#191970" d="M467.8955,-378.0371C385.5546,-355.1637 261.7157,-306.1094 208.5,-210 201.826,-197.9466 199.663,-189.5704 208.5,-179 231.2849,-151.7458 315.5469,-138.8922 386.7547,-132.8432"/>
<polygon fill="#191970" stroke="#191970" points="387.473,-136.2965 397.1572,-131.9991 386.9068,-129.3194 387.473,-136.2965"/>
</g>
<!-- Node23 -->
<g id="node24" class="node">
<title>Node23</title>
<g id="a_node24"><a xlink:href="../../db/dcc/Detectors_2Base_2include_2DetectorsBase_2GeometryManager_8h.html" target="_top" xlink:title="DetectorsBase/GeometryManager.h">
<polygon fill="none" stroke="#000000" points="1894.5,-313.5 1894.5,-332.5 2084.5,-332.5 2084.5,-313.5 1894.5,-313.5"/>
<text text-anchor="middle" x="1989.5" y="-320.5" font-family="Helvetica,sans-Serif" font-size="10.00" fill="#000000">DetectorsBase/GeometryManager.h</text>
</a>
</g>
</g>
<!-- Node0&#45;&gt;Node23 -->
<g id="edge34" class="edge">
<title>Node0&#45;&gt;Node23</title>
<path fill="none" stroke="#191970" d="M627.0822,-391.4988C871.0144,-379.2345 1608.381,-342.1617 1884.025,-328.303"/>
<polygon fill="#191970" stroke="#191970" points="1884.2192,-331.7978 1894.0308,-327.7999 1883.8676,-324.8066 1884.2192,-331.7978"/>
</g>
<!-- Node2 -->
<g id="node3" class="node">
<title>Node2</title>
<polygon fill="none" stroke="#bfbfbf" points="768,-56.5 768,-75.5 815,-75.5 815,-56.5 768,-56.5"/>
<text text-anchor="middle" x="791.5" y="-63.5" font-family="Helvetica,sans-Serif" font-size="10.00" fill="#000000">cmath</text>
</g>
<!-- Node1&#45;&gt;Node2 -->
<g id="edge2" class="edge">
<title>Node1&#45;&gt;Node2</title>
<path fill="none" stroke="#191970" d="M550.0459,-313.3337C557.9363,-284.0886 582.7587,-197.4281 604.5,-179 662.4202,-129.9064 716.701,-195.5548 771.5,-143 786.873,-128.2566 790.9822,-103.3328 791.8197,-85.8447"/>
<polygon fill="#191970" stroke="#191970" points="795.3229,-85.6627 791.983,-75.6081 788.3238,-85.5509 795.3229,-85.6627"/>
</g>
<!-- Node3 -->
<g id="node4" class="node">
<title>Node3</title>
<polygon fill="none" stroke="#bfbfbf" points="217.5,-185 217.5,-204 267.5,-204 267.5,-185 217.5,-185"/>
<text text-anchor="middle" x="242.5" y="-192" font-family="Helvetica,sans-Serif" font-size="10.00" fill="#000000">cstring</text>
</g>
<!-- Node1&#45;&gt;Node3 -->
<g id="edge3" class="edge">
<title>Node1&#45;&gt;Node3</title>
<path fill="none" stroke="#191970" d="M497.2051,-313.4842C462.4396,-305.9482 415.5953,-293.8678 376.5,-277 333.8665,-258.6056 288.7785,-228.2716 263.2871,-209.9595"/>
<polygon fill="#191970" stroke="#191970" points="265.2699,-207.0738 255.1238,-204.0229 261.1528,-212.7351 265.2699,-207.0738"/>
</g>
<!-- Node4 -->
<g id="node5" class="node">
<title>Node4</title>
<g id="a_node5"><a xlink:href="../../df/d21/GPUCommonDef_8h.html" target="_top" xlink:title="GPUCommonDef.h">
<polygon fill="none" stroke="#000000" points="316,-56.5 316,-75.5 423,-75.5 423,-56.5 316,-56.5"/>
<text text-anchor="middle" x="369.5" y="-63.5" font-family="Helvetica,sans-Serif" font-size="10.00" fill="#000000">GPUCommonDef.h</text>
</a>
</g>
</g>
<!-- Node1&#45;&gt;Node4 -->
<g id="edge4" class="edge">
<title>Node1&#45;&gt;Node4</title>
<path fill="none" stroke="#191970" d="M466.7977,-314.3367C421.2248,-307.6521 363.8796,-296.1883 315.5,-277 263.3433,-256.3137 235.6794,-259.0869 208.5,-210 174.9291,-149.3697 273.7339,-101.2326 331.2836,-79.1484"/>
<polygon fill="#191970" stroke="#191970" points="332.6839,-82.3615 340.8238,-75.5798 330.2313,-75.8052 332.6839,-82.3615"/>
</g>
<!-- Node7 -->
<g id="node8" class="node">
<title>Node7</title>
<g id="a_node8"><a xlink:href="../../db/dff/FlatObject_8h.html" target="_top" xlink:title="Definition of FlatObject class. ">
<polygon fill="none" stroke="#000000" points="386,-252 386,-271 461,-271 461,-252 386,-252"/>
<text text-anchor="middle" x="423.5" y="-259" font-family="Helvetica,sans-Serif" font-size="10.00" fill="#000000">FlatObject.h</text>
</a>
</g>
</g>
<!-- Node1&#45;&gt;Node7 -->
<g id="edge7" class="edge">
<title>Node1&#45;&gt;Node7</title>
<path fill="none" stroke="#191970" d="M528.125,-313.3906C507.6505,-303.2359 475.1558,-287.1196 451.8115,-275.5416"/>
<polygon fill="#191970" stroke="#191970" points="453.2528,-272.3496 442.7389,-271.0419 450.1425,-278.6207 453.2528,-272.3496"/>
</g>
<!-- Node12 -->
<g id="node13" class="node">
<title>Node12</title>
<g id="a_node13"><a xlink:href="../../d2/d45/GPUCommonRtypes_8h.html" target="_top" xlink:title="GPUCommonRtypes.h">
<polygon fill="none" stroke="#000000" points="614,-185 614,-204 739,-204 739,-185 614,-185"/>
<text text-anchor="middle" x="676.5" y="-192" font-family="Helvetica,sans-Serif" font-size="10.00" fill="#000000">GPUCommonRtypes.h</text>
</a>
</g>
</g>
<!-- Node1&#45;&gt;Node12 -->
<g id="edge19" class="edge">
<title>Node1&#45;&gt;Node12</title>
<path fill="none" stroke="#191970" d="M558.9379,-313.4311C569.6655,-304.3293 586.0281,-290.1171 599.5,-277 621.6964,-255.388 645.8498,-228.9987 661.0741,-211.9793"/>
<polygon fill="#191970" stroke="#191970" points="663.7506,-214.2365 667.7829,-204.439 658.5209,-209.5835 663.7506,-214.2365"/>
</g>
<!-- Node17 -->
<g id="node18" class="node">
<title>Node17</title>
<g id="a_node18"><a xlink:href="../../d6/da2/GPUCommonMath_8h.html" target="_top" xlink:title="GPUCommonMath.h">
<polygon fill="none" stroke="#000000" points="648,-118 648,-137 763,-137 763,-118 648,-118"/>
<text text-anchor="middle" x="705.5" y="-125" font-family="Helvetica,sans-Serif" font-size="10.00" fill="#000000">GPUCommonMath.h</text>
</a>
</g>
</g>
<!-- Node1&#45;&gt;Node17 -->
<g id="edge20" class="edge">
<title>Node1&#45;&gt;Node17</title>
<path fill="none" stroke="#191970" d="M546.111,-313.2953C543.064,-288.0435 538.4877,-219.4489 571.5,-179 588.1247,-158.6303 613.8036,-146.3033 638.2511,-138.8495"/>
<polygon fill="#191970" stroke="#191970" points="639.2218,-142.2123 647.8977,-136.1313 637.3232,-135.4747 639.2218,-142.2123"/>
</g>
<!-- Node19 -->
<g id="node20" class="node">
<title>Node19</title>
<g id="a_node20"><a xlink:href="../../db/dba/MatCell_8h.html" target="_top" xlink:title="Declarations for material properties of the cell (voxel) ">
<polygon fill="none" stroke="#000000" points="687,-252 687,-271 824,-271 824,-252 687,-252"/>
<text text-anchor="middle" x="755.5" y="-259" font-family="Helvetica,sans-Serif" font-size="10.00" fill="#000000">DetectorsBase/MatCell.h</text>
</a>
</g>
</g>
<!-- Node1&#45;&gt;Node19 -->
<g id="edge24" class="edge">
<title>Node1&#45;&gt;Node19</title>
<path fill="none" stroke="#191970" d="M580,-313.3906C615.947,-302.7621 673.9827,-285.6025 713.388,-273.9514"/>
<polygon fill="#191970" stroke="#191970" points="714.631,-277.2337 723.2282,-271.0419 712.6462,-270.521 714.631,-277.2337"/>
</g>
<!-- Node5 -->
<g id="node6" class="node">
<title>Node5</title>
<g id="a_node6"><a xlink:href="../../d5/d93/GPUCommonDefSettings_8h.html" target="_top" xlink:title="GPUCommonDefSettings.h">
<polygon fill="none" stroke="#000000" points="218.5,-.5 218.5,-19.5 366.5,-19.5 366.5,-.5 218.5,-.5"/>
<text text-anchor="middle" x="292.5" y="-7.5" font-family="Helvetica,sans-Serif" font-size="10.00" fill="#000000">GPUCommonDefSettings.h</text>
</a>
</g>
</g>
<!-- Node4&#45;&gt;Node5 -->
<g id="edge5" class="edge">
<title>Node4&#45;&gt;Node5</title>
<path fill="none" stroke="#191970" d="M356.0876,-56.2455C344.4943,-47.814 327.5252,-35.4729 314.0322,-25.6598"/>
<polygon fill="#191970" stroke="#191970" points="315.9047,-22.6938 305.7587,-19.6427 311.7874,-28.355 315.9047,-22.6938"/>
</g>
<!-- Node6 -->
<g id="node7" class="node">
<title>Node6</title>
<g id="a_node7"><a xlink:href="../../da/d5a/GPUCommonDefAPI_8h.html" target="_top" xlink:title="GPUCommonDefAPI.h">
<polygon fill="none" stroke="#000000" points="384.5,-.5 384.5,-19.5 508.5,-19.5 508.5,-.5 384.5,-.5"/>
<text text-anchor="middle" x="446.5" y="-7.5" font-family="Helvetica,sans-Serif" font-size="10.00" fill="#000000">GPUCommonDefAPI.h</text>
</a>
</g>
</g>
<!-- Node4&#45;&gt;Node6 -->
<g id="edge6" class="edge">
<title>Node4&#45;&gt;Node6</title>
<path fill="none" stroke="#191970" d="M382.9124,-56.2455C394.5057,-47.814 411.4748,-35.4729 424.9678,-25.6598"/>
<polygon fill="#191970" stroke="#191970" points="427.2126,-28.355 433.2413,-19.6427 423.0953,-22.6938 427.2126,-28.355"/>
</g>
<!-- Node7&#45;&gt;Node3 -->
<g id="edge10" class="edge">
<title>Node7&#45;&gt;Node3</title>
<path fill="none" stroke="#191970" d="M396.4517,-251.9657C367.8143,-241.8069 321.3355,-225.1357 281.5,-210 279.6611,-209.3013 277.7762,-208.5775 275.8755,-207.8418"/>
<polygon fill="#191970" stroke="#191970" points="276.9681,-204.5109 266.3804,-204.1238 274.4158,-211.029 276.9681,-204.5109"/>
</g>
<!-- Node7&#45;&gt;Node4 -->
<g id="edge13" class="edge">
<title>Node7&#45;&gt;Node4</title>
<path fill="none" stroke="#191970" d="M394.9445,-251.944C365.8351,-241.5558 323.6846,-224.4977 314.5,-210 288.0225,-168.2059 328.4714,-111.6767 352.9912,-83.4916"/>
<polygon fill="#191970" stroke="#191970" points="355.9123,-85.4776 359.9976,-75.7021 350.7079,-80.7964 355.9123,-85.4776"/>
</g>
<!-- Node8 -->
<g id="node9" class="node">
<title>Node8</title>
<polygon fill="none" stroke="#bfbfbf" points="466,-185 466,-204 519,-204 519,-185 466,-185"/>
<text text-anchor="middle" x="492.5" y="-192" font-family="Helvetica,sans-Serif" font-size="10.00" fill="#000000">cstddef</text>
</g>
<!-- Node7&#45;&gt;Node8 -->
<g id="edge8" class="edge">
<title>Node7&#45;&gt;Node8</title>
<path fill="none" stroke="#191970" d="M433.386,-251.9005C444.2484,-241.353 461.9035,-224.2096 475.0957,-211.3998"/>
<polygon fill="#191970" stroke="#191970" points="477.8962,-213.559 482.6323,-204.0817 473.0198,-208.537 477.8962,-213.559"/>
</g>
<!-- Node9 -->
<g id="node10" class="node">
<title>Node9</title>
<polygon fill="none" stroke="#bfbfbf" points="323.5,-185 323.5,-204 381.5,-204 381.5,-185 323.5,-185"/>
<text text-anchor="middle" x="352.5" y="-192" font-family="Helvetica,sans-Serif" font-size="10.00" fill="#000000">memory</text>
</g>
<!-- Node7&#45;&gt;Node9 -->
<g id="edge9" class="edge">
<title>Node7&#45;&gt;Node9</title>
<path fill="none" stroke="#191970" d="M413.3274,-251.9005C402.0447,-241.2535 383.6399,-223.8856 370.0258,-211.0385"/>
<polygon fill="#191970" stroke="#191970" points="372.3288,-208.3994 362.6537,-204.0817 367.5246,-213.4905 372.3288,-208.3994"/>
</g>
<!-- Node10 -->
<g id="node11" class="node">
<title>Node10</title>
<polygon fill="none" stroke="#bfbfbf" points="795.5,-185 795.5,-204 847.5,-204 847.5,-185 795.5,-185"/>
<text text-anchor="middle" x="821.5" y="-192" font-family="Helvetica,sans-Serif" font-size="10.00" fill="#000000">cassert</text>
</g>
<!-- Node7&#45;&gt;Node10 -->
<g id="edge11" class="edge">
<title>Node7&#45;&gt;Node10</title>
<path fill="none" stroke="#191970" d="M461.0192,-256.1443C521.4809,-247.3772 644.1525,-229.0254 747.5,-210 759.7808,-207.7392 773.1533,-205.0182 785.1102,-202.4912"/>
<polygon fill="#191970" stroke="#191970" points="786.1427,-205.8497 795.1903,-200.337 784.6796,-199.0043 786.1427,-205.8497"/>
</g>
<!-- Node11 -->
<g id="node12" class="node">
<title>Node11</title>
<polygon fill="none" stroke="#bfbfbf" points="399.5,-185 399.5,-204 447.5,-204 447.5,-185 399.5,-185"/>
<text text-anchor="middle" x="423.5" y="-192" font-family="Helvetica,sans-Serif" font-size="10.00" fill="#000000">TFile.h</text>
</g>
<!-- Node7&#45;&gt;Node11 -->
<g id="edge12" class="edge">
<title>Node7&#45;&gt;Node11</title>
<path fill="none" stroke="#191970" d="M423.5,-251.9005C423.5,-242.149 423.5,-226.7597 423.5,-214.3695"/>
<polygon fill="#191970" stroke="#191970" points="427.0001,-214.0816 423.5,-204.0817 420.0001,-214.0817 427.0001,-214.0816"/>
</g>
<!-- Node7&#45;&gt;Node12 -->
<g id="edge14" class="edge">
<title>Node7&#45;&gt;Node12</title>
<path fill="none" stroke="#191970" d="M459.48,-251.9717C504.406,-240.0743 581.3195,-219.7059 630.4871,-206.6852"/>
<polygon fill="#191970" stroke="#191970" points="631.4637,-210.0473 640.2345,-204.1039 629.6717,-203.2806 631.4637,-210.0473"/>
</g>
<!-- Node7&#45;&gt;Node14 -->
<g id="edge16" class="edge">
<title>Node7&#45;&gt;Node14</title>
<path fill="none" stroke="#191970" d="M385.7841,-254.5194C323.5208,-242.9956 198.6412,-219.8825 123.3225,-205.9423"/>
<polygon fill="#191970" stroke="#191970" points="123.5053,-202.4168 113.0353,-204.0383 122.2313,-209.2999 123.5053,-202.4168"/>
</g>
<!-- Node13 -->
<g id="node14" class="node">
<title>Node13</title>
<polygon fill="none" stroke="#bfbfbf" points="1130,-118 1130,-137 1189,-137 1189,-118 1130,-118"/>
<text text-anchor="middle" x="1159.5" y="-125" font-family="Helvetica,sans-Serif" font-size="10.00" fill="#000000">Rtypes.h</text>
</g>
<!-- Node12&#45;&gt;Node13 -->
<g id="edge15" class="edge">
<title>Node12&#45;&gt;Node13</title>
<path fill="none" stroke="#191970" d="M739.0305,-185.6581C754.5408,-183.4734 771.1237,-181.1448 786.5,-179 907.5696,-162.1121 1050.7865,-142.4174 1119.1974,-133.0271"/>
<polygon fill="#191970" stroke="#191970" points="1120.0885,-136.4377 1129.5198,-131.6105 1119.1367,-129.5027 1120.0885,-136.4377"/>
</g>
<!-- Node15 -->
<g id="node16" class="node">
<title>Node15</title>
<polygon fill="none" stroke="#bfbfbf" points="66.5,-118 66.5,-137 126.5,-137 126.5,-118 66.5,-118"/>
<text text-anchor="middle" x="96.5" y="-125" font-family="Helvetica,sans-Serif" font-size="10.00" fill="#000000">iostream</text>
</g>
<!-- Node14&#45;&gt;Node15 -->
<g id="edge17" class="edge">
<title>Node14&#45;&gt;Node15</title>
<path fill="none" stroke="#191970" d="M66.5146,-184.9005C71.7647,-174.8505 80.1429,-158.8122 86.7103,-146.2403"/>
<polygon fill="#191970" stroke="#191970" points="89.9666,-147.5657 91.4947,-137.0817 83.7622,-144.3246 89.9666,-147.5657"/>
</g>
<!-- Node16 -->
<g id="node17" class="node">
<title>Node16</title>
<polygon fill="none" stroke="#bfbfbf" points="2.5,-118 2.5,-137 48.5,-137 48.5,-118 2.5,-118"/>
<text text-anchor="middle" x="25.5" y="-125" font-family="Helvetica,sans-Serif" font-size="10.00" fill="#000000">cstdio</text>
</g>
<!-- Node14&#45;&gt;Node16 -->
<g id="edge18" class="edge">
<title>Node14&#45;&gt;Node16</title>
<path fill="none" stroke="#191970" d="M56.3421,-184.9005C50.9421,-174.8505 42.3245,-158.8122 35.5694,-146.2403"/>
<polygon fill="#191970" stroke="#191970" points="38.4647,-144.234 30.6484,-137.0817 32.2984,-147.5472 38.4647,-144.234"/>
</g>
<!-- Node17&#45;&gt;Node2 -->
<g id="edge22" class="edge">
<title>Node17&#45;&gt;Node2</title>
<path fill="none" stroke="#191970" d="M718.9375,-117.8906C732.5695,-108.1421 753.8846,-92.8994 769.8922,-81.4521"/>
<polygon fill="#191970" stroke="#191970" points="772.0586,-84.2057 778.1569,-75.5419 767.9868,-78.5118 772.0586,-84.2057"/>
</g>
<!-- Node17&#45;&gt;Node4 -->
<g id="edge21" class="edge">
<title>Node17&#45;&gt;Node4</title>
<path fill="none" stroke="#191970" d="M662.535,-117.9598C652.9905,-115.9217 642.9131,-113.8325 633.5,-112 565.2865,-98.7201 486.7955,-85.2764 433.2444,-76.3814"/>
<polygon fill="#191970" stroke="#191970" points="433.6482,-72.9007 423.2107,-74.7195 432.5043,-79.8066 433.6482,-72.9007"/>
</g>
<!-- Node18 -->
<g id="node19" class="node">
<title>Node18</title>
<polygon fill="none" stroke="#bfbfbf" points="673.5,-56.5 673.5,-75.5 737.5,-75.5 737.5,-56.5 673.5,-56.5"/>
<text text-anchor="middle" x="705.5" y="-63.5" font-family="Helvetica,sans-Serif" font-size="10.00" fill="#000000">algorithm</text>
</g>
<!-- Node17&#45;&gt;Node18 -->
<g id="edge23" class="edge">
<title>Node17&#45;&gt;Node18</title>
<path fill="none" stroke="#191970" d="M705.5,-117.8906C705.5,-109.3657 705.5,-96.6392 705.5,-85.9235"/>
<polygon fill="#191970" stroke="#191970" points="709.0001,-85.7448 705.5,-75.7449 702.0001,-85.7449 709.0001,-85.7448"/>
</g>
<!-- Node19&#45;&gt;Node4 -->
<g id="edge25" class="edge">
<title>Node19&#45;&gt;Node4</title>
<path fill="none" stroke="#191970" d="M758.0277,-251.7382C761.859,-234.4295 766.8014,-198.3648 747.5,-179 690.8986,-122.2129 449.0728,-195.5303 388.5,-143 372.2957,-128.9472 368.7769,-103.4854 368.5053,-85.7028"/>
<polygon fill="#191970" stroke="#191970" points="372.0073,-85.6183 368.6831,-75.5584 365.0083,-85.4955 372.0073,-85.6183"/>
</g>
<!-- Node19&#45;&gt;Node12 -->
<g id="edge26" class="edge">
<title>Node19&#45;&gt;Node12</title>
<path fill="none" stroke="#191970" d="M744.1812,-251.9005C731.5099,-241.1539 710.7652,-223.5603 695.5773,-210.6794"/>
<polygon fill="#191970" stroke="#191970" points="697.6882,-207.8805 687.7978,-204.0817 693.1605,-213.2191 697.6882,-207.8805"/>
</g>
<!-- Node20&#45;&gt;Node2 -->
<g id="edge29" class="edge">
<title>Node20&#45;&gt;Node2</title>
<path fill="none" stroke="#191970" d="M905.255,-184.8416C884.5083,-163.1672 834.0172,-110.4184 807.8412,-83.0719"/>
<polygon fill="#191970" stroke="#191970" points="810.2955,-80.5743 800.8523,-75.7705 805.2387,-85.4146 810.2955,-80.5743"/>
</g>
<!-- Node20&#45;&gt;Node4 -->
<g id="edge30" class="edge">
<title>Node20&#45;&gt;Node4</title>
<path fill="none" stroke="#191970" d="M880.8984,-184.9256C872.9358,-182.8222 864.4471,-180.7138 856.5,-179 760.5057,-158.2986 728.0064,-183.3989 638.5,-143 618.6339,-134.0334 620.2159,-121.2922 600.5,-112 547.4305,-86.9881 481.2901,-75.5633 433.3984,-70.3521"/>
<polygon fill="#191970" stroke="#191970" points="433.4683,-66.841 423.1633,-69.3024 432.754,-73.8045 433.4683,-66.841"/>
</g>
<!-- Node20&#45;&gt;Node17 -->
<g id="edge31" class="edge">
<title>Node20&#45;&gt;Node17</title>
<path fill="none" stroke="#191970" d="M884.5554,-184.9005C847.8509,-173.134 785.5412,-153.1591 744.958,-140.1492"/>
<polygon fill="#191970" stroke="#191970" points="745.9802,-136.8015 735.3891,-137.0817 743.8432,-143.4674 745.9802,-136.8015"/>
</g>
<!-- Node21 -->
<g id="node22" class="node">
<title>Node21</title>
<polygon fill="none" stroke="#bfbfbf" points="926.5,-118 926.5,-137 968.5,-137 968.5,-118 926.5,-118"/>
<text text-anchor="middle" x="947.5" y="-125" font-family="Helvetica,sans-Serif" font-size="10.00" fill="#000000">array</text>
</g>
<!-- Node20&#45;&gt;Node21 -->
<g id="edge28" class="edge">
<title>Node20&#45;&gt;Node21</title>
<path fill="none" stroke="#191970" d="M919.2281,-184.9005C924.1781,-174.8505 932.0776,-158.8122 938.2697,-146.2403"/>
<polygon fill="#191970" stroke="#191970" points="941.5019,-147.5991 942.7807,-137.0817 935.2223,-144.5061 941.5019,-147.5991"/>
</g>
<!-- Node20&#45;&gt;Node22 -->
<g id="edge32" class="edge">
<title>Node20&#45;&gt;Node22</title>
<path fill="none" stroke="#191970" d="M881.537,-184.9581C873.3978,-182.8052 864.67,-180.6666 856.5,-179 849.5682,-177.586 676.666,-153.1562 572.3638,-138.4591"/>
<polygon fill="#191970" stroke="#191970" points="572.5715,-134.9539 562.181,-137.0245 571.5949,-141.8854 572.5715,-134.9539"/>
</g>
<!-- Node23&#45;&gt;Node19 -->
<g id="edge63" class="edge">
<title>Node23&#45;&gt;Node19</title>
<path fill="none" stroke="#191970" d="M1894.1693,-319.3924C1715.0886,-312.4514 1316.195,-296.2123 980.5,-277 932.0056,-274.2246 877.675,-270.4992 834.5523,-267.3963"/>
<polygon fill="#191970" stroke="#191970" points="834.6322,-263.8931 824.4059,-266.6629 834.1275,-270.8749 834.6322,-263.8931"/>
</g>
<!-- Node24 -->
<g id="node25" class="node">
<title>Node24</title>
<polygon fill="none" stroke="#bfbfbf" points="1772.5,-252 1772.5,-271 1864.5,-271 1864.5,-252 1772.5,-252"/>
<text text-anchor="middle" x="1818.5" y="-259" font-family="Helvetica,sans-Serif" font-size="10.00" fill="#000000">TGeoManager.h</text>
</g>
<!-- Node23&#45;&gt;Node24 -->
<g id="edge35" class="edge">
<title>Node23&#45;&gt;Node24</title>
<path fill="none" stroke="#191970" d="M1962.7813,-313.3906C1933.6679,-302.92 1886.9308,-286.1111 1854.5753,-274.4745"/>
<polygon fill="#191970" stroke="#191970" points="1855.6256,-271.1328 1845.0311,-271.0419 1853.2565,-277.7197 1855.6256,-271.1328"/>
</g>
<!-- Node25 -->
<g id="node26" class="node">
<title>Node25</title>
<polygon fill="none" stroke="#bfbfbf" points="1883,-252 1883,-271 1974,-271 1974,-252 1883,-252"/>
<text text-anchor="middle" x="1928.5" y="-259" font-family="Helvetica,sans-Serif" font-size="10.00" fill="#000000">TGeoMaterial.h</text>
</g>
<!-- Node23&#45;&gt;Node25 -->
<g id="edge36" class="edge">
<title>Node23&#45;&gt;Node25</title>
<path fill="none" stroke="#191970" d="M1979.9688,-313.3906C1970.7121,-304.0581 1956.461,-289.6902 1945.2997,-278.4374"/>
<polygon fill="#191970" stroke="#191970" points="1947.6928,-275.88 1938.1656,-271.2449 1942.7228,-280.8095 1947.6928,-275.88"/>
</g>
<!-- Node26 -->
<g id="node27" class="node">
<title>Node26</title>
<polygon fill="none" stroke="#bfbfbf" points="1992,-252 1992,-271 2109,-271 2109,-252 1992,-252"/>
<text text-anchor="middle" x="2050.5" y="-259" font-family="Helvetica,sans-Serif" font-size="10.00" fill="#000000">TGeoPhysicalNode.h</text>
</g>
<!-- Node23&#45;&gt;Node26 -->
<g id="edge37" class="edge">
<title>Node23&#45;&gt;Node26</title>
<path fill="none" stroke="#191970" d="M1999.0313,-313.3906C2008.2879,-304.0581 2022.539,-289.6902 2033.7003,-278.4374"/>
<polygon fill="#191970" stroke="#191970" points="2036.2772,-280.8095 2040.8344,-271.2449 2031.3072,-275.88 2036.2772,-280.8095"/>
</g>
<!-- Node27 -->
<g id="node28" class="node">
<title>Node27</title>
<polygon fill="none" stroke="#bfbfbf" points="2127,-252 2127,-271 2208,-271 2208,-252 2127,-252"/>
<text text-anchor="middle" x="2167.5" y="-259" font-family="Helvetica,sans-Serif" font-size="10.00" fill="#000000">TGeoShape.h</text>
</g>
<!-- Node23&#45;&gt;Node27 -->
<g id="edge38" class="edge">
<title>Node23&#45;&gt;Node27</title>
<path fill="none" stroke="#191970" d="M2017.3125,-313.3906C2047.7483,-302.8749 2096.6877,-285.966 2130.3826,-274.3243"/>
<polygon fill="#191970" stroke="#191970" points="2131.574,-277.6157 2139.8828,-271.0419 2129.288,-270.9995 2131.574,-277.6157"/>
</g>
<!-- Node28 -->
<g id="node29" class="node">
<title>Node28</title>
<polygon fill="none" stroke="#bfbfbf" points="2226.5,-252 2226.5,-271 2282.5,-271 2282.5,-252 2226.5,-252"/>
<text text-anchor="middle" x="2254.5" y="-259" font-family="Helvetica,sans-Serif" font-size="10.00" fill="#000000">TMath.h</text>
</g>
<!-- Node23&#45;&gt;Node28 -->
<g id="edge39" class="edge">
<title>Node23&#45;&gt;Node28</title>
<path fill="none" stroke="#191970" d="M2054.2268,-313.4456C2100.3347,-305.7947 2163.4567,-293.593 2217.5,-277 2219.6638,-276.3357 2221.8745,-275.5902 2224.0853,-274.7949"/>
<polygon fill="#191970" stroke="#191970" points="2225.5795,-277.9693 2233.6339,-271.0862 2223.0451,-271.4442 2225.5795,-277.9693"/>
</g>
<!-- Node29 -->
<g id="node30" class="node">
<title>Node29</title>
<polygon fill="none" stroke="#bfbfbf" points="2301,-252 2301,-271 2364,-271 2364,-252 2301,-252"/>
<text text-anchor="middle" x="2332.5" y="-259" font-family="Helvetica,sans-Serif" font-size="10.00" fill="#000000">TObject.h</text>
</g>
<!-- Node23&#45;&gt;Node29 -->
<g id="edge40" class="edge">
<title>Node23&#45;&gt;Node29</title>
<path fill="none" stroke="#191970" d="M2084.7408,-313.6904C2144.7153,-306.5547 2223.3954,-294.8476 2291.5,-277 2294.3294,-276.2585 2297.2335,-275.3903 2300.1261,-274.45"/>
<polygon fill="#191970" stroke="#191970" points="2301.5155,-277.6717 2309.7906,-271.0556 2299.1958,-271.0672 2301.5155,-277.6717"/>
</g>
<!-- Node30 -->
<g id="node31" class="node">
<title>Node30</title>
<polygon fill="none" stroke="#bfbfbf" points="2382,-252 2382,-271 2455,-271 2455,-252 2382,-252"/>
<text text-anchor="middle" x="2418.5" y="-259" font-family="Helvetica,sans-Serif" font-size="10.00" fill="#000000">string_view</text>
</g>
<!-- Node23&#45;&gt;Node30 -->
<g id="edge41" class="edge">
<title>Node23&#45;&gt;Node30</title>
<path fill="none" stroke="#191970" d="M2084.7545,-317.2395C2163.0507,-311.1595 2276.4795,-299.2536 2373.5,-277 2376.9053,-276.2189 2380.4132,-275.2731 2383.897,-274.2381"/>
<polygon fill="#191970" stroke="#191970" points="2385.0897,-277.5313 2393.5461,-271.1485 2382.955,-270.8648 2385.0897,-277.5313"/>
</g>
<!-- Node31 -->
<g id="node32" class="node">
<title>Node31</title>
<g id="a_node32"><a xlink:href="../../d6/d31/DetID_8h.html" target="_top" xlink:title="DetectorsCommonDataFormats\l/DetID.h">
<polygon fill="none" stroke="#000000" points="989,-246.5 989,-276.5 1160,-276.5 1160,-246.5 989,-246.5"/>
<text text-anchor="start" x="997" y="-264.5" font-family="Helvetica,sans-Serif" font-size="10.00" fill="#000000">DetectorsCommonDataFormats</text>
<text text-anchor="middle" x="1074.5" y="-253.5" font-family="Helvetica,sans-Serif" font-size="10.00" fill="#000000">/DetID.h</text>
</a>
</g>
</g>
<!-- Node23&#45;&gt;Node31 -->
<g id="edge42" class="edge">
<title>Node23&#45;&gt;Node31</title>
<path fill="none" stroke="#191970" d="M1894.1684,-316.5925C1718.6067,-304.7924 1346.0883,-279.7543 1170.2295,-267.9343"/>
<polygon fill="#191970" stroke="#191970" points="1170.4253,-264.4396 1160.2131,-267.261 1169.9558,-271.4239 1170.4253,-264.4396"/>
</g>
<!-- Node35 -->
<g id="node36" class="node">
<title>Node35</title>
<polygon fill="none" stroke="#bfbfbf" points="2473,-252 2473,-271 2548,-271 2548,-252 2473,-252"/>
<text text-anchor="middle" x="2510.5" y="-259" font-family="Helvetica,sans-Serif" font-size="10.00" fill="#000000">FairLogger.h</text>
</g>
<!-- Node23&#45;&gt;Node35 -->
<g id="edge50" class="edge">
<title>Node23&#45;&gt;Node35</title>
<path fill="none" stroke="#191970" d="M2084.6536,-320.1661C2181.2535,-315.8038 2334.6694,-304.7775 2464.5,-277 2468.1775,-276.2132 2471.9706,-275.2297 2475.7273,-274.142"/>
<polygon fill="#191970" stroke="#191970" points="2476.9877,-277.4149 2485.4822,-271.083 2474.8931,-270.7357 2476.9877,-277.4149"/>
</g>
<!-- Node36 -->
<g id="node37" class="node">
<title>Node36</title>
<g id="a_node37"><a xlink:href="../../dd/d76/Cartesian3D_8h.html" target="_top" xlink:title="MathUtils/Cartesian3D.h">
<polygon fill="none" stroke="#000000" points="1619,-252 1619,-271 1754,-271 1754,-252 1619,-252"/>
<text text-anchor="middle" x="1686.5" y="-259" font-family="Helvetica,sans-Serif" font-size="10.00" fill="#000000">MathUtils/Cartesian3D.h</text>
</a>
</g>
</g>
<!-- Node23&#45;&gt;Node36 -->
<g id="edge51" class="edge">
<title>Node23&#45;&gt;Node36</title>
<path fill="none" stroke="#191970" d="M1942.4887,-313.4581C1888.8598,-302.573 1801.1724,-284.7751 1743.6438,-273.0985"/>
<polygon fill="#191970" stroke="#191970" points="1744.118,-269.6234 1733.6216,-271.0643 1742.7255,-276.4836 1744.118,-269.6234"/>
</g>
<!-- Node31&#45;&gt;Node10 -->
<g id="edge46" class="edge">
<title>Node31&#45;&gt;Node10</title>
<path fill="none" stroke="#191970" d="M995.317,-246.481C953.5109,-237.6312 901.6536,-225.1863 856.5,-210 854.6103,-209.3645 852.6829,-208.665 850.7525,-207.9254"/>
<polygon fill="#191970" stroke="#191970" points="851.8162,-204.5781 841.237,-204.0019 849.1478,-211.0496 851.8162,-204.5781"/>
</g>
<!-- Node31&#45;&gt;Node13 -->
<g id="edge43" class="edge">
<title>Node31&#45;&gt;Node13</title>
<path fill="none" stroke="#191970" d="M1101.6545,-246.4502C1115.283,-237.5544 1130.8943,-225.0767 1140.5,-210 1152.6725,-190.8946 1157.0749,-164.8897 1158.6511,-147.2186"/>
<polygon fill="#191970" stroke="#191970" points="1162.1461,-147.4089 1159.3219,-137.1975 1155.1617,-146.9413 1162.1461,-147.4089"/>
</g>
<!-- Node31&#45;&gt;Node20 -->
<g id="edge49" class="edge">
<title>Node31&#45;&gt;Node20</title>
<path fill="none" stroke="#191970" d="M1038.5929,-246.4639C1011.0214,-234.9183 973.2883,-219.1176 946.6906,-207.9798"/>
<polygon fill="#191970" stroke="#191970" points="948.0106,-204.7381 937.4347,-204.1039 945.3068,-211.1949 948.0106,-204.7381"/>
</g>
<!-- Node31&#45;&gt;Node21 -->
<g id="edge44" class="edge">
<title>Node31&#45;&gt;Node21</title>
<path fill="none" stroke="#191970" d="M1053.2492,-246.4445C1040.2463,-236.7508 1023.6414,-223.4798 1010.5,-210 990.7571,-189.7487 971.5441,-163.3223 959.631,-145.9027"/>
<polygon fill="#191970" stroke="#191970" points="962.2936,-143.5902 953.8067,-137.2481 956.4863,-147.4985 962.2936,-143.5902"/>
</g>
<!-- Node32 -->
<g id="node33" class="node">
<title>Node32</title>
<polygon fill="none" stroke="#bfbfbf" points="1019.5,-185 1019.5,-204 1063.5,-204 1063.5,-185 1019.5,-185"/>
<text text-anchor="middle" x="1041.5" y="-192" font-family="Helvetica,sans-Serif" font-size="10.00" fill="#000000">bitset</text>
</g>
<!-- Node31&#45;&gt;Node32 -->
<g id="edge45" class="edge">
<title>Node31&#45;&gt;Node32</title>
<path fill="none" stroke="#191970" d="M1067.0118,-246.2967C1062.1697,-236.4658 1055.8341,-223.6026 1050.688,-213.1545"/>
<polygon fill="#191970" stroke="#191970" points="1053.7645,-211.4794 1046.2062,-204.055 1047.4849,-214.5724 1053.7645,-211.4794"/>
</g>
<!-- Node33 -->
<g id="node34" class="node">
<title>Node33</title>
<polygon fill="none" stroke="#bfbfbf" points="1081.5,-185 1081.5,-204 1131.5,-204 1131.5,-185 1081.5,-185"/>
<text text-anchor="middle" x="1106.5" y="-192" font-family="Helvetica,sans-Serif" font-size="10.00" fill="#000000">cstdint</text>
</g>
<!-- Node31&#45;&gt;Node33 -->
<g id="edge47" class="edge">
<title>Node31&#45;&gt;Node33</title>
<path fill="none" stroke="#191970" d="M1081.7613,-246.2967C1086.4566,-236.4658 1092.6002,-223.6026 1097.5904,-213.1545"/>
<polygon fill="#191970" stroke="#191970" points="1100.7849,-214.587 1101.9364,-204.055 1094.4683,-211.5702 1100.7849,-214.587"/>
</g>
<!-- Node34 -->
<g id="node35" class="node">
<title>Node34</title>
<polygon fill="none" stroke="#bfbfbf" points="1188,-185 1188,-204 1257,-204 1257,-185 1188,-185"/>
<text text-anchor="middle" x="1222.5" y="-192" font-family="Helvetica,sans-Serif" font-size="10.00" fill="#000000">type_traits</text>
</g>
<!-- Node31&#45;&gt;Node34 -->
<g id="edge48" class="edge">
<title>Node31&#45;&gt;Node34</title>
<path fill="none" stroke="#191970" d="M1107.7141,-246.4639C1132.994,-235.0196 1167.5092,-219.3945 1192.0739,-208.274"/>
<polygon fill="#191970" stroke="#191970" points="1193.6188,-211.4166 1201.2854,-204.1039 1190.7319,-205.0396 1193.6188,-211.4166"/>
</g>
<!-- Node36&#45;&gt;Node13 -->
<g id="edge57" class="edge">
<title>Node36&#45;&gt;Node13</title>
<path fill="none" stroke="#191970" d="M1618.9197,-256.8226C1524.7786,-249.5561 1359.526,-233.8605 1304.5,-210 1284.5032,-201.3289 1284.8918,-190.6963 1266.5,-179 1242.9662,-164.0335 1214.425,-150.5035 1192.7405,-141.0711"/>
<polygon fill="#191970" stroke="#191970" points="1193.8733,-137.7489 1183.3025,-137.0352 1191.121,-144.1852 1193.8733,-137.7489"/>
</g>
<!-- Node37 -->
<g id="node38" class="node">
<title>Node37</title>
<polygon fill="none" stroke="#bfbfbf" points="1313.5,-179.5 1313.5,-209.5 1477.5,-209.5 1477.5,-179.5 1313.5,-179.5"/>
<text text-anchor="start" x="1321.5" y="-197.5" font-family="Helvetica,sans-Serif" font-size="10.00" fill="#000000">Math/GenVector/Displacement</text>
<text text-anchor="middle" x="1395.5" y="-186.5" font-family="Helvetica,sans-Serif" font-size="10.00" fill="#000000">Vector3D.h</text>
</g>
<!-- Node36&#45;&gt;Node37 -->
<g id="edge52" class="edge">
<title>Node36&#45;&gt;Node37</title>
<path fill="none" stroke="#191970" d="M1645.1158,-251.9717C1599.8198,-241.5427 1526.2532,-224.6047 1470.6927,-211.8124"/>
<polygon fill="#191970" stroke="#191970" points="1471.42,-208.3884 1460.8896,-209.5553 1469.8494,-215.2099 1471.42,-208.3884"/>
</g>
<!-- Node38 -->
<g id="node39" class="node">
<title>Node38</title>
<polygon fill="none" stroke="#bfbfbf" points="1496,-185 1496,-204 1685,-204 1685,-185 1496,-185"/>
<text text-anchor="middle" x="1590.5" y="-192" font-family="Helvetica,sans-Serif" font-size="10.00" fill="#000000">Math/GenVector/PositionVector3D.h</text>
</g>
<!-- Node36&#45;&gt;Node38 -->
<g id="edge53" class="edge">
<title>Node36&#45;&gt;Node38</title>
<path fill="none" stroke="#191970" d="M1672.7455,-251.9005C1657.0623,-240.9549 1631.2017,-222.9064 1612.6642,-209.9688"/>
<polygon fill="#191970" stroke="#191970" points="1614.4324,-206.9347 1604.2289,-204.0817 1610.4262,-212.675 1614.4324,-206.9347"/>
</g>
<!-- Node39 -->
<g id="node40" class="node">
<title>Node39</title>
<polygon fill="none" stroke="#bfbfbf" points="1703.5,-185 1703.5,-204 1863.5,-204 1863.5,-185 1703.5,-185"/>
<text text-anchor="middle" x="1783.5" y="-192" font-family="Helvetica,sans-Serif" font-size="10.00" fill="#000000">Math/GenVector/Rotation3D.h</text>
</g>
<!-- Node36&#45;&gt;Node39 -->
<g id="edge54" class="edge">
<title>Node36&#45;&gt;Node39</title>
<path fill="none" stroke="#191970" d="M1700.3977,-251.9005C1716.3164,-240.9052 1742.6121,-222.7422 1761.3599,-209.7927"/>
<polygon fill="#191970" stroke="#191970" points="1763.3892,-212.6448 1769.628,-204.0817 1759.4108,-206.8852 1763.3892,-212.6448"/>
</g>
<!-- Node40 -->
<g id="node41" class="node">
<title>Node40</title>
<polygon fill="none" stroke="#bfbfbf" points="1881.5,-185 1881.5,-204 2049.5,-204 2049.5,-185 1881.5,-185"/>
<text text-anchor="middle" x="1965.5" y="-192" font-family="Helvetica,sans-Serif" font-size="10.00" fill="#000000">Math/GenVector/Transform3D.h</text>
</g>
<!-- Node36&#45;&gt;Node40 -->
<g id="edge55" class="edge">
<title>Node36&#45;&gt;Node40</title>
<path fill="none" stroke="#191970" d="M1726.1776,-251.9717C1776.0307,-239.9998 1861.602,-219.4504 1915.7736,-206.4415"/>
<polygon fill="#191970" stroke="#191970" points="1916.6013,-209.8423 1925.5076,-204.1039 1914.9667,-203.0358 1916.6013,-209.8423"/>
</g>
<!-- Node41 -->
<g id="node42" class="node">
<title>Node41</title>
<polygon fill="none" stroke="#bfbfbf" points="2068,-185 2068,-204 2241,-204 2241,-185 2068,-185"/>
<text text-anchor="middle" x="2154.5" y="-192" font-family="Helvetica,sans-Serif" font-size="10.00" fill="#000000">Math/GenVector/Translation3D.h</text>
</g>
<!-- Node36&#45;&gt;Node41 -->
<g id="edge56" class="edge">
<title>Node36&#45;&gt;Node41</title>
<path fill="none" stroke="#191970" d="M1730.7756,-251.9791C1741.4611,-249.8499 1752.8651,-247.7167 1763.5,-246 1893.8959,-224.9516 1927.7225,-228.5301 2058.5,-210 2067.9906,-208.6553 2077.9937,-207.1446 2087.8149,-205.6077"/>
<polygon fill="#191970" stroke="#191970" points="2088.6251,-209.0231 2097.9549,-204.0025 2087.5306,-202.1092 2088.6251,-209.0231"/>
</g>
<!-- Node42 -->
<g id="node43" class="node">
<title>Node42</title>
<polygon fill="none" stroke="#bfbfbf" points="2259.5,-185 2259.5,-204 2341.5,-204 2341.5,-185 2259.5,-185"/>
<text text-anchor="middle" x="2300.5" y="-192" font-family="Helvetica,sans-Serif" font-size="10.00" fill="#000000">TGeoMatrix.h</text>
</g>
<!-- Node36&#45;&gt;Node42 -->
<g id="edge58" class="edge">
<title>Node36&#45;&gt;Node42</title>
<path fill="none" stroke="#191970" d="M1729.1037,-251.9371C1740.2506,-249.7066 1752.2868,-247.5369 1763.5,-246 1978.5246,-216.5277 2037.2566,-250.3914 2250.5,-210 2254.9395,-209.1591 2259.5406,-208.0602 2264.073,-206.8352"/>
<polygon fill="#191970" stroke="#191970" points="2265.1737,-210.1601 2273.796,-204.0033 2263.2162,-203.4393 2265.1737,-210.1601"/>
</g>
<!-- Node43 -->
<g id="node44" class="node">
<title>Node43</title>
<polygon fill="none" stroke="#bfbfbf" points="2360,-185 2360,-204 2409,-204 2409,-185 2360,-185"/>
<text text-anchor="middle" x="2384.5" y="-192" font-family="Helvetica,sans-Serif" font-size="10.00" fill="#000000">iosfwd</text>
</g>
<!-- Node36&#45;&gt;Node43 -->
<g id="edge59" class="edge">
<title>Node36&#45;&gt;Node43</title>
<path fill="none" stroke="#191970" d="M1728.6883,-251.9214C1739.9476,-249.6633 1752.1422,-247.4843 1763.5,-246 2022.6753,-212.1298 2096.8943,-273.2707 2350.5,-210 2352.6991,-209.4514 2354.9312,-208.7638 2357.1463,-207.9854"/>
<polygon fill="#191970" stroke="#191970" points="2358.6509,-211.1519 2366.5943,-204.141 2356.0126,-204.6681 2358.6509,-211.1519"/>
</g>
<!-- Node44 -->
<g id="node45" class="node">
<title>Node44</title>
<g id="a_node45"><a xlink:href="../../d2/dd0/Cartesian2D_8h.html" target="_top" xlink:title="MathUtils/Cartesian2D.h">
<polygon fill="none" stroke="#000000" points="2427,-185 2427,-204 2562,-204 2562,-185 2427,-185"/>
<text text-anchor="middle" x="2494.5" y="-192" font-family="Helvetica,sans-Serif" font-size="10.00" fill="#000000">MathUtils/Cartesian2D.h</text>
</a>
</g>
</g>
<!-- Node36&#45;&gt;Node44 -->
<g id="edge60" class="edge">
<title>Node36&#45;&gt;Node44</title>
<path fill="none" stroke="#191970" d="M1728.2803,-251.9533C1739.6509,-249.6666 1752.0022,-247.4655 1763.5,-246 2052.7107,-209.1375 2129.3364,-247.2303 2418.5,-210 2426.5709,-208.9609 2435.0662,-207.5486 2443.336,-205.9973"/>
<polygon fill="#191970" stroke="#191970" points="2444.127,-209.409 2453.2677,-204.0519 2442.7813,-202.5395 2444.127,-209.409"/>
</g>
<!-- Node45 -->
<g id="node46" class="node">
<title>Node45</title>
<polygon fill="none" stroke="#bfbfbf" points="2314.5,-112.5 2314.5,-142.5 2478.5,-142.5 2478.5,-112.5 2314.5,-112.5"/>
<text text-anchor="start" x="2322.5" y="-130.5" font-family="Helvetica,sans-Serif" font-size="10.00" fill="#000000">Math/GenVector/Displacement</text>
<text text-anchor="middle" x="2396.5" y="-119.5" font-family="Helvetica,sans-Serif" font-size="10.00" fill="#000000">Vector2D.h</text>
</g>
<!-- Node44&#45;&gt;Node45 -->
<g id="edge61" class="edge">
<title>Node44&#45;&gt;Node45</title>
<path fill="none" stroke="#191970" d="M2480.459,-184.9005C2466.5412,-175.3853 2444.772,-160.5023 2426.888,-148.2755"/>
<polygon fill="#191970" stroke="#191970" points="2428.7026,-145.2763 2418.4721,-142.5218 2424.7519,-151.0549 2428.7026,-145.2763"/>
</g>
<!-- Node46 -->
<g id="node47" class="node">
<title>Node46</title>
<polygon fill="none" stroke="#bfbfbf" points="2497,-118 2497,-137 2686,-137 2686,-118 2497,-118"/>
<text text-anchor="middle" x="2591.5" y="-125" font-family="Helvetica,sans-Serif" font-size="10.00" fill="#000000">Math/GenVector/PositionVector2D.h</text>
</g>
<!-- Node44&#45;&gt;Node46 -->
<g id="edge62" class="edge">
<title>Node44&#45;&gt;Node46</title>
<path fill="none" stroke="#191970" d="M2508.3977,-184.9005C2524.3164,-173.9052 2550.6121,-155.7422 2569.3599,-142.7927"/>
<polygon fill="#191970" stroke="#191970" points="2571.3892,-145.6448 2577.628,-137.0817 2567.4108,-139.8852 2571.3892,-145.6448"/>
</g>
</g>
</svg>
