<?xml version="1.0" encoding="UTF-8" standalone="no"?>
<!DOCTYPE svg PUBLIC "-//W3C//DTD SVG 1.1//EN"
 "http://www.w3.org/Graphics/SVG/1.1/DTD/svg11.dtd">
<!-- Generated by graphviz version 2.40.1 (20161225.0304)
 -->
<!-- Title: /home/travis/build/AliceO2Group/AliceO2/Detectors/TOF/calibration/include/TOFCalibration/CollectCalibInfoTOF.h Pages: 1 -->
<svg width="1312pt" height="407pt"
 viewBox="0.00 0.00 1312.44 407.00" xmlns="http://www.w3.org/2000/svg" xmlns:xlink="http://www.w3.org/1999/xlink">
<g id="graph0" class="graph" transform="scale(1 1) rotate(0) translate(4 403)">
<title>/home/travis/build/AliceO2Group/AliceO2/Detectors/TOF/calibration/include/TOFCalibration/CollectCalibInfoTOF.h</title>
<!-- Node0 -->
<g id="node1" class="node">
<title>Node0</title>
<polygon fill="#bfbfbf" stroke="#000000" points="762.4428,-335.5 762.4428,-398.5 953.4428,-398.5 953.4428,-335.5 762.4428,-335.5"/>
<text text-anchor="start" x="770.4428" y="-386.5" font-family="Helvetica,sans-Serif" font-size="10.00" fill="#000000">/home/travis/build</text>
<text text-anchor="start" x="770.4428" y="-375.5" font-family="Helvetica,sans-Serif" font-size="10.00" fill="#000000">/AliceO2Group/AliceO2</text>
<text text-anchor="start" x="770.4428" y="-364.5" font-family="Helvetica,sans-Serif" font-size="10.00" fill="#000000">/Detectors/TOF/calibration</text>
<text text-anchor="start" x="770.4428" y="-353.5" font-family="Helvetica,sans-Serif" font-size="10.00" fill="#000000">/include/TOFCalibration/CollectCalib</text>
<text text-anchor="middle" x="857.9428" y="-342.5" font-family="Helvetica,sans-Serif" font-size="10.00" fill="#000000">InfoTOF.h</text>
</g>
<!-- Node1 -->
<g id="node2" class="node">
<title>Node1</title>
<polygon fill="none" stroke="#bfbfbf" points="62.4428,-73 62.4428,-92 121.4428,-92 121.4428,-73 62.4428,-73"/>
<text text-anchor="middle" x="91.9428" y="-80" font-family="Helvetica,sans-Serif" font-size="10.00" fill="#000000">Rtypes.h</text>
</g>
<!-- Node0&#45;&gt;Node1 -->
<g id="edge1" class="edge">
<title>Node0&#45;&gt;Node1</title>
<path fill="none" stroke="#191970" d="M762.2451,-362.6007C637.3212,-355.5249 412.3882,-338.2077 223.9428,-299 126.3687,-278.6989 68.9559,-312.3138 9.9428,-232 -23.1832,-186.9172 37.2868,-126.9236 71.2166,-98.6028"/>
<polygon fill="#191970" stroke="#191970" points="73.6469,-101.1377 79.1978,-92.1134 69.2309,-95.7064 73.6469,-101.1377"/>
</g>
<!-- Node2 -->
<g id="node3" class="node">
<title>Node2</title>
<polygon fill="none" stroke="#bfbfbf" points="836.9428,-274 836.9428,-293 878.9428,-293 878.9428,-274 836.9428,-274"/>
<text text-anchor="middle" x="857.9428" y="-281" font-family="Helvetica,sans-Serif" font-size="10.00" fill="#000000">array</text>
</g>
<!-- Node0&#45;&gt;Node2 -->
<g id="edge2" class="edge">
<title>Node0&#45;&gt;Node2</title>
<path fill="none" stroke="#191970" d="M857.9428,-335.4322C857.9428,-324.6773 857.9428,-312.9624 857.9428,-303.3857"/>
<polygon fill="#191970" stroke="#191970" points="861.4429,-303.3112 857.9428,-293.3112 854.4429,-303.3112 861.4429,-303.3112"/>
</g>
<!-- Node3 -->
<g id="node4" class="node">
<title>Node3</title>
<polygon fill="none" stroke="#bfbfbf" points="681.4428,-6 681.4428,-25 728.4428,-25 728.4428,-6 681.4428,-6"/>
<text text-anchor="middle" x="704.9428" y="-13" font-family="Helvetica,sans-Serif" font-size="10.00" fill="#000000">vector</text>
</g>
<!-- Node0&#45;&gt;Node3 -->
<g id="edge3" class="edge">
<title>Node0&#45;&gt;Node3</title>
<path fill="none" stroke="#191970" d="M841.2168,-335.3832C827.0219,-305.5776 808.9428,-259.229 808.9428,-216.5 808.9428,-216.5 808.9428,-216.5 808.9428,-149.5 808.9428,-97.5028 759.4675,-53.4863 728.7658,-31.1779"/>
<polygon fill="#191970" stroke="#191970" points="730.4823,-28.1063 720.2884,-25.2193 726.457,-33.8332 730.4823,-28.1063"/>
</g>
<!-- Node4 -->
<g id="node5" class="node">
<title>Node4</title>
<polygon fill="none" stroke="#bfbfbf" points="896.9428,-274 896.9428,-293 940.9428,-293 940.9428,-274 896.9428,-274"/>
<text text-anchor="middle" x="918.9428" y="-281" font-family="Helvetica,sans-Serif" font-size="10.00" fill="#000000">string</text>
</g>
<!-- Node0&#45;&gt;Node4 -->
<g id="edge4" class="edge">
<title>Node0&#45;&gt;Node4</title>
<path fill="none" stroke="#191970" d="M881.0043,-335.4322C889.3736,-323.9759 898.5386,-311.4303 905.7638,-301.5401"/>
<polygon fill="#191970" stroke="#191970" points="908.7025,-303.4507 911.7753,-293.3112 903.0502,-299.3214 908.7025,-303.4507"/>
</g>
<!-- Node5 -->
<g id="node6" class="node">
<title>Node5</title>
<polygon fill="none" stroke="#bfbfbf" points="959.4428,-274 959.4428,-293 1042.4428,-293 1042.4428,-274 959.4428,-274"/>
<text text-anchor="middle" x="1000.9428" y="-281" font-family="Helvetica,sans-Serif" font-size="10.00" fill="#000000">TStopwatch.h</text>
</g>
<!-- Node0&#45;&gt;Node5 -->
<g id="edge5" class="edge">
<title>Node0&#45;&gt;Node5</title>
<path fill="none" stroke="#191970" d="M912.005,-335.4322C933.7602,-322.729 957.8093,-308.6864 975.4086,-298.4098"/>
<polygon fill="#191970" stroke="#191970" points="977.5962,-301.1855 984.4669,-293.1205 974.0664,-295.1406 977.5962,-301.1855"/>
</g>
<!-- Node6 -->
<g id="node7" class="node">
<title>Node6</title>
<polygon fill="none" stroke="#bfbfbf" points="1060.4428,-274 1060.4428,-293 1141.4428,-293 1141.4428,-274 1060.4428,-274"/>
<text text-anchor="middle" x="1100.9428" y="-281" font-family="Helvetica,sans-Serif" font-size="10.00" fill="#000000">TParameter.h</text>
</g>
<!-- Node0&#45;&gt;Node6 -->
<g id="edge6" class="edge">
<title>Node0&#45;&gt;Node6</title>
<path fill="none" stroke="#191970" d="M949.8107,-335.4322C989.2963,-321.8641 1033.2285,-306.7681 1063.5036,-296.3649"/>
<polygon fill="#191970" stroke="#191970" points="1064.9013,-299.5856 1073.2211,-293.0258 1062.6265,-292.9655 1064.9013,-299.5856"/>
</g>
<!-- Node7 -->
<g id="node8" class="node">
<title>Node7</title>
<g id="a_node8"><a xlink:href="../../d6/d9c/CalibInfoTOF_8h.html" target="_top" xlink:title="Class to store the output of the matching to TOF for calibration. ">
<polygon fill="none" stroke="#000000" points="19.4428,-201.5 19.4428,-231.5 164.4428,-231.5 164.4428,-201.5 19.4428,-201.5"/>
<text text-anchor="start" x="27.4428" y="-219.5" font-family="Helvetica,sans-Serif" font-size="10.00" fill="#000000">DataFormatsTOF/CalibInfo</text>
<text text-anchor="middle" x="91.9428" y="-208.5" font-family="Helvetica,sans-Serif" font-size="10.00" fill="#000000">TOF.h</text>
</a>
</g>
</g>
<!-- Node0&#45;&gt;Node7 -->
<g id="edge7" class="edge">
<title>Node0&#45;&gt;Node7</title>
<path fill="none" stroke="#191970" d="M762.004,-360.9498C654.4373,-352.7416 475.3628,-334.7913 324.9428,-299 257.7118,-283.0029 182.8601,-254.4839 136.582,-235.5284"/>
<polygon fill="#191970" stroke="#191970" points="137.7324,-232.2168 127.1535,-231.6366 135.0616,-238.6873 137.7324,-232.2168"/>
</g>
<!-- Node8 -->
<g id="node9" class="node">
<title>Node8</title>
<g id="a_node9"><a xlink:href="../../d4/d78/CalibInfoTOFshort_8h.html" target="_top" xlink:title="Class to store the output of the matching to TOF for calibration (no channel info, available in CalibInfoTOF.h) ">
<polygon fill="none" stroke="#000000" points="1159.4428,-268.5 1159.4428,-298.5 1304.4428,-298.5 1304.4428,-268.5 1159.4428,-268.5"/>
<text text-anchor="start" x="1167.4428" y="-286.5" font-family="Helvetica,sans-Serif" font-size="10.00" fill="#000000">DataFormatsTOF/CalibInfo</text>
<text text-anchor="middle" x="1231.9428" y="-275.5" font-family="Helvetica,sans-Serif" font-size="10.00" fill="#000000">TOFshort.h</text>
</a>
</g>
</g>
<!-- Node0&#45;&gt;Node8 -->
<g id="edge9" class="edge">
<title>Node0&#45;&gt;Node8</title>
<path fill="none" stroke="#191970" d="M953.7714,-345.6051C1016.1719,-331.6735 1096.5048,-313.7382 1154.7859,-300.7262"/>
<polygon fill="#191970" stroke="#191970" points="1155.6746,-304.114 1164.6717,-298.5191 1154.1493,-297.2822 1155.6746,-304.114"/>
</g>
<!-- Node9 -->
<g id="node10" class="node">
<title>Node9</title>
<g id="a_node10"><a xlink:href="../../d4/d54/Geo_8h.html" target="_top" xlink:title="TOFBase/Geo.h">
<polygon fill="none" stroke="#000000" points="334.4428,-274 334.4428,-293 425.4428,-293 425.4428,-274 334.4428,-274"/>
<text text-anchor="middle" x="379.9428" y="-281" font-family="Helvetica,sans-Serif" font-size="10.00" fill="#000000">TOFBase/Geo.h</text>
</a>
</g>
</g>
<!-- Node0&#45;&gt;Node9 -->
<g id="edge10" class="edge">
<title>Node0&#45;&gt;Node9</title>
<path fill="none" stroke="#191970" d="M762.3612,-350.3032C664.3843,-333.188 515.3796,-307.1589 435.3649,-293.1815"/>
<polygon fill="#191970" stroke="#191970" points="435.9394,-289.7289 425.4863,-291.4558 434.7348,-296.6245 435.9394,-289.7289"/>
</g>
<!-- Node7&#45;&gt;Node1 -->
<g id="edge8" class="edge">
<title>Node7&#45;&gt;Node1</title>
<path fill="none" stroke="#191970" d="M91.9428,-201.389C91.9428,-177.0735 91.9428,-129.2644 91.9428,-102.2698"/>
<polygon fill="#191970" stroke="#191970" points="95.4429,-102.1041 91.9428,-92.1042 88.4429,-102.1042 95.4429,-102.1041"/>
</g>
<!-- Node9&#45;&gt;Node1 -->
<g id="edge11" class="edge">
<title>Node9&#45;&gt;Node1</title>
<path fill="none" stroke="#191970" d="M358.3198,-273.9803C336.9211,-264.286 303.4688,-248.3887 275.9428,-232 231.549,-205.5685 221.0886,-197.523 180.9428,-165 154.5373,-143.6083 126.0747,-116.4219 108.6298,-99.235"/>
<polygon fill="#191970" stroke="#191970" points="111.0009,-96.6571 101.4368,-92.0987 106.0707,-101.6264 111.0009,-96.6571"/>
</g>
<!-- Node10 -->
<g id="node11" class="node">
<title>Node10</title>
<g id="a_node11"><a xlink:href="../../d4/dc6/LHCConstants_8h.html" target="_top" xlink:title="Header to collect LHC related constants. ">
<polygon fill="none" stroke="#000000" points="139.9428,-73 139.9428,-92 329.9428,-92 329.9428,-73 139.9428,-73"/>
<text text-anchor="middle" x="234.9428" y="-80" font-family="Helvetica,sans-Serif" font-size="10.00" fill="#000000">CommonConstants/LHCConstants.h</text>
</a>
</g>
</g>
<!-- Node9&#45;&gt;Node10 -->
<g id="edge12" class="edge">
<title>Node9&#45;&gt;Node10</title>
<path fill="none" stroke="#191970" d="M364.4429,-273.9253C337.0262,-256.1156 280.2106,-215.1155 251.9428,-165 240.9219,-145.4611 237.0048,-119.716 235.6352,-102.218"/>
<polygon fill="#191970" stroke="#191970" points="239.1195,-101.842 235.054,-92.0582 232.1309,-102.2418 239.1195,-101.842"/>
</g>
<!-- Node11 -->
<g id="node12" class="node">
<title>Node11</title>
<g id="a_node12"><a xlink:href="../../d1/dec/HBFUtils_8h.html" target="_top" xlink:title="DetectorsRaw/HBFUtils.h">
<polygon fill="none" stroke="#000000" points="458.4428,-207 458.4428,-226 597.4428,-226 597.4428,-207 458.4428,-207"/>
<text text-anchor="middle" x="527.9428" y="-214" font-family="Helvetica,sans-Serif" font-size="10.00" fill="#000000">DetectorsRaw/HBFUtils.h</text>
</a>
</g>
</g>
<!-- Node9&#45;&gt;Node11 -->
<g id="edge13" class="edge">
<title>Node9&#45;&gt;Node11</title>
<path fill="none" stroke="#191970" d="M401.1476,-273.9005C426.4249,-262.4574 468.8512,-243.2509 497.5976,-230.2374"/>
<polygon fill="#191970" stroke="#191970" points="499.1108,-233.3943 506.7774,-226.0817 496.2239,-227.0173 499.1108,-233.3943"/>
</g>
<!-- Node11&#45;&gt;Node1 -->
<g id="edge14" class="edge">
<title>Node11&#45;&gt;Node1</title>
<path fill="none" stroke="#191970" d="M458.1726,-209.1906C401.4933,-201.9066 320.0693,-188.3557 251.9428,-165 200.7695,-147.4564 145.6495,-115.9199 115.3151,-97.3336"/>
<polygon fill="#191970" stroke="#191970" points="117.0721,-94.3048 106.7285,-92.011 113.384,-100.2545 117.0721,-94.3048"/>
</g>
<!-- Node12 -->
<g id="node13" class="node">
<title>Node12</title>
<g id="a_node13"><a xlink:href="../../db/d2c/ConfigurableParam_8h.html" target="_top" xlink:title="CommonUtils/Configurable\lParam.h">
<polygon fill="none" stroke="#000000" points="836.9428,-67.5 836.9428,-97.5 984.9428,-97.5 984.9428,-67.5 836.9428,-67.5"/>
<text text-anchor="start" x="844.9428" y="-85.5" font-family="Helvetica,sans-Serif" font-size="10.00" fill="#000000">CommonUtils/Configurable</text>
<text text-anchor="middle" x="910.9428" y="-74.5" font-family="Helvetica,sans-Serif" font-size="10.00" fill="#000000">Param.h</text>
</a>
</g>
</g>
<!-- Node11&#45;&gt;Node12 -->
<g id="edge15" class="edge">
<title>Node11&#45;&gt;Node12</title>
<path fill="none" stroke="#191970" d="M597.4664,-210.5487C651.5929,-204.1099 727.7205,-191.0329 789.9428,-165 826.0819,-149.8799 862.5507,-123.0752 885.8611,-104.1283"/>
<polygon fill="#191970" stroke="#191970" points="888.3528,-106.6095 893.8288,-97.5395 883.8919,-101.215 888.3528,-106.6095"/>
</g>
<!-- Node18 -->
<g id="node19" class="node">
<title>Node18</title>
<g id="a_node19"><a xlink:href="../../da/d6b/ConfigurableParamHelper_8h.html" target="_top" xlink:title="CommonUtils/Configurable\lParamHelper.h">
<polygon fill="none" stroke="#000000" points="967.9428,-134.5 967.9428,-164.5 1115.9428,-164.5 1115.9428,-134.5 967.9428,-134.5"/>
<text text-anchor="start" x="975.9428" y="-152.5" font-family="Helvetica,sans-Serif" font-size="10.00" fill="#000000">CommonUtils/Configurable</text>
<text text-anchor="middle" x="1041.9428" y="-141.5" font-family="Helvetica,sans-Serif" font-size="10.00" fill="#000000">ParamHelper.h</text>
</a>
</g>
</g>
<!-- Node11&#45;&gt;Node18 -->
<g id="edge22" class="edge">
<title>Node11&#45;&gt;Node18</title>
<path fill="none" stroke="#191970" d="M597.5304,-207.4292C690.9956,-195.246 856.9319,-173.6162 957.4539,-160.5131"/>
<polygon fill="#191970" stroke="#191970" points="958.11,-163.9573 967.5737,-159.194 957.2051,-157.016 958.11,-163.9573"/>
</g>
<!-- Node22 -->
<g id="node23" class="node">
<title>Node22</title>
<g id="a_node23"><a xlink:href="../../d9/d80/InteractionRecord_8h.html" target="_top" xlink:title="CommonDataFormat/Interaction\lRecord.h">
<polygon fill="none" stroke="#000000" points="260.9428,-134.5 260.9428,-164.5 434.9428,-164.5 434.9428,-134.5 260.9428,-134.5"/>
<text text-anchor="start" x="268.9428" y="-152.5" font-family="Helvetica,sans-Serif" font-size="10.00" fill="#000000">CommonDataFormat/Interaction</text>
<text text-anchor="middle" x="347.9428" y="-141.5" font-family="Helvetica,sans-Serif" font-size="10.00" fill="#000000">Record.h</text>
</a>
</g>
</g>
<!-- Node11&#45;&gt;Node22 -->
<g id="edge28" class="edge">
<title>Node11&#45;&gt;Node22</title>
<path fill="none" stroke="#191970" d="M502.1532,-206.9005C475.0794,-196.8231 431.83,-180.7247 398.0137,-168.1375"/>
<polygon fill="#191970" stroke="#191970" points="398.8926,-164.7301 388.2998,-164.5218 396.4507,-171.2904 398.8926,-164.7301"/>
</g>
<!-- Node26 -->
<g id="node27" class="node">
<title>Node26</title>
<g id="a_node27"><a xlink:href="../../d4/d78/DataFormats_2Headers_2include_2Headers_2RAWDataHeader_8h.html" target="_top" xlink:title="Headers/RAWDataHeader.h">
<polygon fill="none" stroke="#000000" points="453.4428,-140 453.4428,-159 602.4428,-159 602.4428,-140 453.4428,-140"/>
<text text-anchor="middle" x="527.9428" y="-147" font-family="Helvetica,sans-Serif" font-size="10.00" fill="#000000">Headers/RAWDataHeader.h</text>
</a>
</g>
</g>
<!-- Node11&#45;&gt;Node26 -->
<g id="edge34" class="edge">
<title>Node11&#45;&gt;Node26</title>
<path fill="none" stroke="#191970" d="M527.9428,-206.9005C527.9428,-197.149 527.9428,-181.7597 527.9428,-169.3695"/>
<polygon fill="#191970" stroke="#191970" points="531.4429,-169.0816 527.9428,-159.0817 524.4429,-169.0817 531.4429,-169.0816"/>
</g>
<!-- Node27 -->
<g id="node28" class="node">
<title>Node27</title>
<g id="a_node28"><a xlink:href="../../de/da4/Triggers_8h.html" target="_top" xlink:title="Definition of the 32 Central Trigger System (CTS) Trigger Types defined in https://twiki.cern.ch/twiki/pub/ALICE/NoteForFEDevelopers/CTS_CRU_FE_interface.pdf. ">
<polygon fill="none" stroke="#000000" points="620.9428,-140 620.9428,-159 780.9428,-159 780.9428,-140 620.9428,-140"/>
<text text-anchor="middle" x="700.9428" y="-147" font-family="Helvetica,sans-Serif" font-size="10.00" fill="#000000">CommonConstants/Triggers.h</text>
</a>
</g>
</g>
<!-- Node11&#45;&gt;Node27 -->
<g id="edge36" class="edge">
<title>Node11&#45;&gt;Node27</title>
<path fill="none" stroke="#191970" d="M552.7295,-206.9005C582.6621,-195.3082 633.1667,-175.7486 666.7783,-162.7313"/>
<polygon fill="#191970" stroke="#191970" points="668.141,-165.957 676.2021,-159.0817 665.613,-159.4294 668.141,-165.957"/>
</g>
<!-- Node12&#45;&gt;Node3 -->
<g id="edge16" class="edge">
<title>Node12&#45;&gt;Node3</title>
<path fill="none" stroke="#191970" d="M852.5531,-67.4666C818.6732,-58.1638 775.4232,-45.2888 737.9428,-31 736.357,-30.3954 734.7414,-29.7475 733.1196,-29.0719"/>
<polygon fill="#191970" stroke="#191970" points="734.4894,-25.8507 723.9281,-25.0092 731.6595,-32.2532 734.4894,-25.8507"/>
</g>
<!-- Node13 -->
<g id="node14" class="node">
<title>Node13</title>
<polygon fill="none" stroke="#bfbfbf" points="746.9428,-6 746.9428,-25 784.9428,-25 784.9428,-6 746.9428,-6"/>
<text text-anchor="middle" x="765.9428" y="-13" font-family="Helvetica,sans-Serif" font-size="10.00" fill="#000000">map</text>
</g>
<!-- Node12&#45;&gt;Node13 -->
<g id="edge17" class="edge">
<title>Node12&#45;&gt;Node13</title>
<path fill="none" stroke="#191970" d="M874.4467,-67.4461C851.1665,-57.5962 820.4895,-44.1563 793.9428,-31 793.2521,-30.6577 792.5539,-30.3069 791.8513,-29.9497"/>
<polygon fill="#191970" stroke="#191970" points="793.1654,-26.685 782.6905,-25.0949 789.8875,-32.8701 793.1654,-26.685"/>
</g>
<!-- Node14 -->
<g id="node15" class="node">
<title>Node14</title>
<polygon fill="none" stroke="#bfbfbf" points="803.4428,-6 803.4428,-25 896.4428,-25 896.4428,-6 803.4428,-6"/>
<text text-anchor="middle" x="849.9428" y="-13" font-family="Helvetica,sans-Serif" font-size="10.00" fill="#000000">unordered_map</text>
</g>
<!-- Node12&#45;&gt;Node14 -->
<g id="edge18" class="edge">
<title>Node12&#45;&gt;Node14</title>
<path fill="none" stroke="#191970" d="M897.101,-67.2967C887.6892,-56.9591 875.2245,-43.2684 865.4739,-32.5588"/>
<polygon fill="#191970" stroke="#191970" points="867.9624,-30.0931 858.6421,-25.055 862.7863,-34.8057 867.9624,-30.0931"/>
</g>
<!-- Node15 -->
<g id="node16" class="node">
<title>Node15</title>
<polygon fill="none" stroke="#bfbfbf" points="914.4428,-.5 914.4428,-30.5 1027.4428,-30.5 1027.4428,-.5 914.4428,-.5"/>
<text text-anchor="start" x="922.4428" y="-18.5" font-family="Helvetica,sans-Serif" font-size="10.00" fill="#000000">boost/property_tree</text>
<text text-anchor="middle" x="970.9428" y="-7.5" font-family="Helvetica,sans-Serif" font-size="10.00" fill="#000000">/ptree.hpp</text>
</g>
<!-- Node12&#45;&gt;Node15 -->
<g id="edge19" class="edge">
<title>Node12&#45;&gt;Node15</title>
<path fill="none" stroke="#191970" d="M924.5577,-67.2967C932.2291,-58.7303 941.9625,-47.8614 950.53,-38.2943"/>
<polygon fill="#191970" stroke="#191970" points="953.3179,-40.4276 957.3818,-30.6432 948.1032,-35.7578 953.3179,-40.4276"/>
</g>
<!-- Node16 -->
<g id="node17" class="node">
<title>Node16</title>
<polygon fill="none" stroke="#bfbfbf" points="1124.4428,-6 1124.4428,-25 1181.4428,-25 1181.4428,-6 1124.4428,-6"/>
<text text-anchor="middle" x="1152.9428" y="-13" font-family="Helvetica,sans-Serif" font-size="10.00" fill="#000000">typeinfo</text>
</g>
<!-- Node12&#45;&gt;Node16 -->
<g id="edge20" class="edge">
<title>Node12&#45;&gt;Node16</title>
<path fill="none" stroke="#191970" d="M980.5635,-67.4736C1020.3175,-58.2611 1070.8681,-45.4734 1114.9428,-31 1117.0878,-30.2956 1119.284,-29.5281 1121.4859,-28.7239"/>
<polygon fill="#191970" stroke="#191970" points="1122.9612,-31.9064 1131.0343,-25.0453 1120.4446,-25.3744 1122.9612,-31.9064"/>
</g>
<!-- Node17 -->
<g id="node18" class="node">
<title>Node17</title>
<polygon fill="none" stroke="#bfbfbf" points="1045.9428,-6 1045.9428,-25 1105.9428,-25 1105.9428,-6 1045.9428,-6"/>
<text text-anchor="middle" x="1075.9428" y="-13" font-family="Helvetica,sans-Serif" font-size="10.00" fill="#000000">iostream</text>
</g>
<!-- Node12&#45;&gt;Node17 -->
<g id="edge21" class="edge">
<title>Node12&#45;&gt;Node17</title>
<path fill="none" stroke="#191970" d="M947.972,-67.4639C976.4052,-55.9183 1015.3174,-40.1176 1042.7462,-28.9798"/>
<polygon fill="#191970" stroke="#191970" points="1044.3429,-32.1091 1052.2914,-25.1039 1041.7093,-25.6234 1044.3429,-32.1091"/>
</g>
<!-- Node18&#45;&gt;Node12 -->
<g id="edge23" class="edge">
<title>Node18&#45;&gt;Node12</title>
<path fill="none" stroke="#191970" d="M1012.5439,-134.4639C993.9654,-124.9619 969.7518,-112.5779 949.6229,-102.283"/>
<polygon fill="#191970" stroke="#191970" points="951.1938,-99.1552 940.6969,-97.7177 948.0063,-105.3874 951.1938,-99.1552"/>
</g>
<!-- Node18&#45;&gt;Node16 -->
<g id="edge26" class="edge">
<title>Node18&#45;&gt;Node16</title>
<path fill="none" stroke="#191970" d="M1034.8885,-134.4359C1027.7579,-116.7729 1019.5438,-87.3312 1032.9428,-67 1034.2506,-65.0156 1085.3587,-43.5234 1120.4476,-28.9383"/>
<polygon fill="#191970" stroke="#191970" points="1121.9706,-32.0957 1129.865,-25.0296 1119.2872,-25.6304 1121.9706,-32.0957"/>
</g>
<!-- Node19 -->
<g id="node20" class="node">
<title>Node19</title>
<polygon fill="none" stroke="#bfbfbf" points="1041.4428,-73 1041.4428,-92 1098.4428,-92 1098.4428,-73 1041.4428,-73"/>
<text text-anchor="middle" x="1069.9428" y="-80" font-family="Helvetica,sans-Serif" font-size="10.00" fill="#000000">TClass.h</text>
</g>
<!-- Node18&#45;&gt;Node19 -->
<g id="edge24" class="edge">
<title>Node18&#45;&gt;Node19</title>
<path fill="none" stroke="#191970" d="M1048.2964,-134.2967C1052.3625,-124.5672 1057.6698,-111.8675 1062.0116,-101.4784"/>
<polygon fill="#191970" stroke="#191970" points="1065.323,-102.6313 1065.9497,-92.055 1058.8644,-99.9321 1065.323,-102.6313"/>
</g>
<!-- Node20 -->
<g id="node21" class="node">
<title>Node20</title>
<polygon fill="none" stroke="#bfbfbf" points="1116.4428,-73 1116.4428,-92 1185.4428,-92 1185.4428,-73 1116.4428,-73"/>
<text text-anchor="middle" x="1150.9428" y="-80" font-family="Helvetica,sans-Serif" font-size="10.00" fill="#000000">type_traits</text>
</g>
<!-- Node18&#45;&gt;Node20 -->
<g id="edge25" class="edge">
<title>Node18&#45;&gt;Node20</title>
<path fill="none" stroke="#191970" d="M1066.4045,-134.4639C1084.3638,-123.4247 1108.6517,-108.4954 1126.5862,-97.4715"/>
<polygon fill="#191970" stroke="#191970" points="1128.6321,-100.3223 1135.3185,-92.1039 1124.9664,-94.3588 1128.6321,-100.3223"/>
</g>
<!-- Node21 -->
<g id="node22" class="node">
<title>Node21</title>
<polygon fill="none" stroke="#bfbfbf" points="1203.9428,-73 1203.9428,-92 1251.9428,-92 1251.9428,-73 1203.9428,-73"/>
<text text-anchor="middle" x="1227.9428" y="-80" font-family="Helvetica,sans-Serif" font-size="10.00" fill="#000000">TFile.h</text>
</g>
<!-- Node18&#45;&gt;Node21 -->
<g id="edge27" class="edge">
<title>Node18&#45;&gt;Node21</title>
<path fill="none" stroke="#191970" d="M1091.3849,-134.4421C1121.6071,-124.8481 1160.8726,-111.6832 1194.9428,-98 1196.3378,-97.4397 1197.758,-96.85 1199.1867,-96.2412"/>
<polygon fill="#191970" stroke="#191970" points="1200.8587,-99.3277 1208.562,-92.0538 1198.004,-92.9362 1200.8587,-99.3277"/>
</g>
<!-- Node22&#45;&gt;Node1 -->
<g id="edge29" class="edge">
<title>Node22&#45;&gt;Node1</title>
<path fill="none" stroke="#191970" d="M272.6426,-134.4497C230.5522,-125.3357 177.3765,-112.6518 130.9428,-98 128.6564,-97.2785 126.3134,-96.4864 123.9661,-95.6538"/>
<polygon fill="#191970" stroke="#191970" points="125.0192,-92.3108 114.4269,-92.0797 122.5632,-98.8658 125.0192,-92.3108"/>
</g>
<!-- Node22&#45;&gt;Node10 -->
<g id="edge33" class="edge">
<title>Node22&#45;&gt;Node10</title>
<path fill="none" stroke="#191970" d="M322.5834,-134.4639C303.8797,-123.3741 278.5547,-108.3584 259.9378,-97.32"/>
<polygon fill="#191970" stroke="#191970" points="261.5272,-94.1935 251.1405,-92.1039 257.9571,-100.2147 261.5272,-94.1935"/>
</g>
<!-- Node23 -->
<g id="node24" class="node">
<title>Node23</title>
<polygon fill="none" stroke="#bfbfbf" points="348.4428,-73 348.4428,-92 397.4428,-92 397.4428,-73 348.4428,-73"/>
<text text-anchor="middle" x="372.9428" y="-80" font-family="Helvetica,sans-Serif" font-size="10.00" fill="#000000">iosfwd</text>
</g>
<!-- Node22&#45;&gt;Node23 -->
<g id="edge30" class="edge">
<title>Node22&#45;&gt;Node23</title>
<path fill="none" stroke="#191970" d="M353.6157,-134.2967C357.2461,-124.5672 361.9848,-111.8675 365.8613,-101.4784"/>
<polygon fill="#191970" stroke="#191970" points="369.1607,-102.6476 369.3775,-92.055 362.6024,-100.2004 369.1607,-102.6476"/>
</g>
<!-- Node24 -->
<g id="node25" class="node">
<title>Node24</title>
<polygon fill="none" stroke="#bfbfbf" points="415.4428,-73 415.4428,-92 462.4428,-92 462.4428,-73 415.4428,-73"/>
<text text-anchor="middle" x="438.9428" y="-80" font-family="Helvetica,sans-Serif" font-size="10.00" fill="#000000">cmath</text>
</g>
<!-- Node22&#45;&gt;Node24 -->
<g id="edge31" class="edge">
<title>Node22&#45;&gt;Node24</title>
<path fill="none" stroke="#191970" d="M368.5921,-134.2967C383.3209,-123.4524 403.0614,-108.9182 417.8824,-98.006"/>
<polygon fill="#191970" stroke="#191970" points="419.9875,-100.8025 425.9652,-92.055 415.8372,-95.1655 419.9875,-100.8025"/>
</g>
<!-- Node25 -->
<g id="node26" class="node">
<title>Node25</title>
<polygon fill="none" stroke="#bfbfbf" points="502.9428,-73 502.9428,-92 552.9428,-92 552.9428,-73 502.9428,-73"/>
<text text-anchor="middle" x="527.9428" y="-80" font-family="Helvetica,sans-Serif" font-size="10.00" fill="#000000">cstdint</text>
</g>
<!-- Node22&#45;&gt;Node25 -->
<g id="edge32" class="edge">
<title>Node22&#45;&gt;Node25</title>
<path fill="none" stroke="#191970" d="M388.3383,-134.4639C419.9077,-122.7131 463.319,-106.5544 493.3123,-95.3902"/>
<polygon fill="#191970" stroke="#191970" points="494.7822,-98.5778 502.9331,-91.8092 492.3403,-92.0175 494.7822,-98.5778"/>
</g>
<!-- Node26&#45;&gt;Node25 -->
<g id="edge35" class="edge">
<title>Node26&#45;&gt;Node25</title>
<path fill="none" stroke="#191970" d="M527.9428,-139.9005C527.9428,-130.149 527.9428,-114.7597 527.9428,-102.3695"/>
<polygon fill="#191970" stroke="#191970" points="531.4429,-102.0816 527.9428,-92.0817 524.4429,-102.0817 531.4429,-102.0816"/>
</g>
<!-- Node27&#45;&gt;Node25 -->
<g id="edge37" class="edge">
<title>Node27&#45;&gt;Node25</title>
<path fill="none" stroke="#191970" d="M676.1561,-139.9005C646.2236,-128.3082 595.719,-108.7486 562.1073,-95.7313"/>
<polygon fill="#191970" stroke="#191970" points="563.2726,-92.4294 552.6835,-92.0817 560.7446,-98.957 563.2726,-92.4294"/>
</g>
</g>
</svg>
