<?xml version="1.0" encoding="UTF-8" standalone="no"?>
<!DOCTYPE svg PUBLIC "-//W3C//DTD SVG 1.1//EN"
 "http://www.w3.org/Graphics/SVG/1.1/DTD/svg11.dtd">
<!-- Generated by graphviz version 2.40.1 (20161225.0304)
 -->
<!-- Title: /home/travis/build/AliceO2Group/AliceO2/GPU/GPUTracking/TPCClusterFinder/GPUTPCCFChargeMapFiller.h Pages: 1 -->
<svg width="1667pt" height="565pt"
 viewBox="0.00 0.00 1666.91 565.00" xmlns="http://www.w3.org/2000/svg" xmlns:xlink="http://www.w3.org/1999/xlink">
<g id="graph0" class="graph" transform="scale(1 1) rotate(0) translate(4 561)">
<title>/home/travis/build/AliceO2Group/AliceO2/GPU/GPUTracking/TPCClusterFinder/GPUTPCCFChargeMapFiller.h</title>
<!-- Node0 -->
<g id="node1" class="node">
<title>Node0</title>
<polygon fill="#bfbfbf" stroke="#000000" points="1313,-504.5 1313,-556.5 1504,-556.5 1504,-504.5 1313,-504.5"/>
<text text-anchor="start" x="1321" y="-544.5" font-family="Helvetica,sans-Serif" font-size="10.00" fill="#000000">/home/travis/build</text>
<text text-anchor="start" x="1321" y="-533.5" font-family="Helvetica,sans-Serif" font-size="10.00" fill="#000000">/AliceO2Group/AliceO2</text>
<text text-anchor="start" x="1321" y="-522.5" font-family="Helvetica,sans-Serif" font-size="10.00" fill="#000000">/GPU/GPUTracking/TPCClusterFinder</text>
<text text-anchor="middle" x="1408.5" y="-511.5" font-family="Helvetica,sans-Serif" font-size="10.00" fill="#000000">/GPUTPCCFChargeMapFiller.h</text>
</g>
<!-- Node1 -->
<g id="node2" class="node">
<title>Node1</title>
<g id="a_node2"><a xlink:href="../../d9/db0/clusterFinderDefs_8h.html" target="_top" xlink:title="clusterFinderDefs.h">
<polygon fill="none" stroke="#000000" points="1485.5,-336.5 1485.5,-355.5 1595.5,-355.5 1595.5,-336.5 1485.5,-336.5"/>
<text text-anchor="middle" x="1540.5" y="-343.5" font-family="Helvetica,sans-Serif" font-size="10.00" fill="#000000">clusterFinderDefs.h</text>
</a>
</g>
</g>
<!-- Node0&#45;&gt;Node1 -->
<g id="edge1" class="edge">
<title>Node0&#45;&gt;Node1</title>
<path fill="none" stroke="#191970" d="M1504.1147,-514.3569C1560.9549,-498.9463 1627.3082,-469.1582 1655.5,-412 1668.9383,-384.7542 1637.959,-368.0597 1604.7868,-358.2785"/>
<polygon fill="#191970" stroke="#191970" points="1605.5093,-354.8476 1594.9398,-355.5806 1603.6595,-361.5987 1605.5093,-354.8476"/>
</g>
<!-- Node12 -->
<g id="node13" class="node">
<title>Node12</title>
<g id="a_node13"><a xlink:href="../../d9/de5/GPUGeneralKernels_8h.html" target="_top" xlink:title="GPUGeneralKernels.h">
<polygon fill="none" stroke="#000000" points="1172,-392.5 1172,-411.5 1293,-411.5 1293,-392.5 1172,-392.5"/>
<text text-anchor="middle" x="1232.5" y="-399.5" font-family="Helvetica,sans-Serif" font-size="10.00" fill="#000000">GPUGeneralKernels.h</text>
</a>
</g>
</g>
<!-- Node0&#45;&gt;Node12 -->
<g id="edge12" class="edge">
<title>Node0&#45;&gt;Node12</title>
<path fill="none" stroke="#191970" d="M1395.7864,-504.3274C1385.8937,-486.3468 1370.6411,-463.0878 1351.5,-448 1331.8013,-432.4727 1306.2447,-421.6813 1283.8673,-414.4744"/>
<polygon fill="#191970" stroke="#191970" points="1284.7576,-411.0867 1274.1711,-411.5067 1282.7089,-417.7802 1284.7576,-411.0867"/>
</g>
<!-- Node15 -->
<g id="node16" class="node">
<title>Node15</title>
<g id="a_node16"><a xlink:href="../../db/df8/GPUConstantMem_8h.html" target="_top" xlink:title="GPUConstantMem.h">
<polygon fill="none" stroke="#000000" points="212.5,-448.5 212.5,-467.5 326.5,-467.5 326.5,-448.5 212.5,-448.5"/>
<text text-anchor="middle" x="269.5" y="-455.5" font-family="Helvetica,sans-Serif" font-size="10.00" fill="#000000">GPUConstantMem.h</text>
</a>
</g>
</g>
<!-- Node0&#45;&gt;Node15 -->
<g id="edge17" class="edge">
<title>Node0&#45;&gt;Node15</title>
<path fill="none" stroke="#191970" d="M1312.8604,-524.4123C1087.9605,-510.0969 529.9828,-474.5803 336.6914,-462.2769"/>
<polygon fill="#191970" stroke="#191970" points="336.8723,-458.7814 326.6701,-461.639 336.4276,-465.7673 336.8723,-458.7814"/>
</g>
<!-- Node37 -->
<g id="node38" class="node">
<title>Node37</title>
<g id="a_node38"><a xlink:href="../../d6/d4b/GPUTPCClusterFinder_8h.html" target="_top" xlink:title="GPUTPCClusterFinder.h">
<polygon fill="none" stroke="#000000" points="1214.5,-448.5 1214.5,-467.5 1342.5,-467.5 1342.5,-448.5 1214.5,-448.5"/>
<text text-anchor="middle" x="1278.5" y="-455.5" font-family="Helvetica,sans-Serif" font-size="10.00" fill="#000000">GPUTPCClusterFinder.h</text>
</a>
</g>
</g>
<!-- Node0&#45;&gt;Node37 -->
<g id="edge66" class="edge">
<title>Node0&#45;&gt;Node37</title>
<path fill="none" stroke="#191970" d="M1361.567,-504.3258C1342.3554,-493.6116 1320.8563,-481.6218 1304.544,-472.5246"/>
<polygon fill="#191970" stroke="#191970" points="1306.0339,-469.348 1295.5955,-467.534 1302.6243,-475.4615 1306.0339,-469.348"/>
</g>
<!-- Node38 -->
<g id="node39" class="node">
<title>Node38</title>
<g id="a_node39"><a xlink:href="../../d6/deb/GPU_2GPUTracking_2TPCClusterFinder_2Digit_8h.html" target="_top" xlink:title="Digit.h">
<polygon fill="none" stroke="#000000" points="1463,-392.5 1463,-411.5 1512,-411.5 1512,-392.5 1463,-392.5"/>
<text text-anchor="middle" x="1487.5" y="-399.5" font-family="Helvetica,sans-Serif" font-size="10.00" fill="#000000">Digit.h</text>
</a>
</g>
</g>
<!-- Node0&#45;&gt;Node38 -->
<g id="edge79" class="edge">
<title>Node0&#45;&gt;Node38</title>
<path fill="none" stroke="#191970" d="M1424.4868,-504.4961C1439.8823,-479.4541 1462.7704,-442.2247 1476.3091,-420.2028"/>
<polygon fill="#191970" stroke="#191970" points="1479.3951,-421.8661 1481.6508,-411.5142 1473.4319,-418.2 1479.3951,-421.8661"/>
</g>
<!-- Node39 -->
<g id="node40" class="node">
<title>Node39</title>
<g id="a_node40"><a xlink:href="../../d7/d60/Array2D_8h.html" target="_top" xlink:title="Array2D.h">
<polygon fill="none" stroke="#000000" points="1508,-448.5 1508,-467.5 1573,-467.5 1573,-448.5 1508,-448.5"/>
<text text-anchor="middle" x="1540.5" y="-455.5" font-family="Helvetica,sans-Serif" font-size="10.00" fill="#000000">Array2D.h</text>
</a>
</g>
</g>
<!-- Node0&#45;&gt;Node39 -->
<g id="edge72" class="edge">
<title>Node0&#45;&gt;Node39</title>
<path fill="none" stroke="#191970" d="M1456.155,-504.3258C1475.6623,-493.6116 1497.492,-481.6218 1514.0553,-472.5246"/>
<polygon fill="#191970" stroke="#191970" points="1516.0615,-475.4159 1523.1415,-467.534 1512.6916,-469.2804 1516.0615,-475.4159"/>
</g>
<!-- Node41 -->
<g id="node42" class="node">
<title>Node41</title>
<g id="a_node42"><a xlink:href="../../d1/d65/PackedCharge_8h.html" target="_top" xlink:title="PackedCharge.h">
<polygon fill="none" stroke="#000000" points="1350,-392.5 1350,-411.5 1445,-411.5 1445,-392.5 1350,-392.5"/>
<text text-anchor="middle" x="1397.5" y="-399.5" font-family="Helvetica,sans-Serif" font-size="10.00" fill="#000000">PackedCharge.h</text>
</a>
</g>
</g>
<!-- Node0&#45;&gt;Node41 -->
<g id="edge76" class="edge">
<title>Node0&#45;&gt;Node41</title>
<path fill="none" stroke="#191970" d="M1406.274,-504.4961C1404.1784,-480.0156 1401.0857,-443.8881 1399.187,-421.7068"/>
<polygon fill="#191970" stroke="#191970" points="1402.6547,-421.1792 1398.3144,-411.5142 1395.6802,-421.7763 1402.6547,-421.1792"/>
</g>
<!-- Node2 -->
<g id="node3" class="node">
<title>Node2</title>
<g id="a_node3"><a xlink:href="../../d2/d6d/GPUDef_8h.html" target="_top" xlink:title="GPUDef.h">
<polygon fill="none" stroke="#000000" points="1091,-112.5 1091,-131.5 1154,-131.5 1154,-112.5 1091,-112.5"/>
<text text-anchor="middle" x="1122.5" y="-119.5" font-family="Helvetica,sans-Serif" font-size="10.00" fill="#000000">GPUDef.h</text>
</a>
</g>
</g>
<!-- Node1&#45;&gt;Node2 -->
<g id="edge2" class="edge">
<title>Node1&#45;&gt;Node2</title>
<path fill="none" stroke="#191970" d="M1540.012,-336.3129C1537.9143,-305.8781 1527.0082,-211.6181 1471.5,-168 1447.6903,-149.2905 1251.5655,-131.9793 1164.2067,-125.1153"/>
<polygon fill="#191970" stroke="#191970" points="1164.3525,-121.6161 1154.1113,-124.3306 1163.81,-128.5951 1164.3525,-121.6161"/>
</g>
<!-- Node3 -->
<g id="node4" class="node">
<title>Node3</title>
<g id="a_node4"><a xlink:href="../../df/d21/GPUCommonDef_8h.html" target="_top" xlink:title="GPUCommonDef.h">
<polygon fill="none" stroke="#000000" points="324,-56.5 324,-75.5 431,-75.5 431,-56.5 324,-56.5"/>
<text text-anchor="middle" x="377.5" y="-63.5" font-family="Helvetica,sans-Serif" font-size="10.00" fill="#000000">GPUCommonDef.h</text>
</a>
</g>
</g>
<!-- Node2&#45;&gt;Node3 -->
<g id="edge3" class="edge">
<title>Node2&#45;&gt;Node3</title>
<path fill="none" stroke="#191970" d="M1090.9641,-119.6295C978.3397,-111.1638 594.542,-82.3146 441.3773,-70.8015"/>
<polygon fill="#191970" stroke="#191970" points="441.4251,-67.2953 431.1909,-70.0358 440.9004,-74.2756 441.4251,-67.2953"/>
</g>
<!-- Node6 -->
<g id="node7" class="node">
<title>Node6</title>
<g id="a_node7"><a xlink:href="../../d2/d37/GPUDefConstantsAndSettings_8h.html" target="_top" xlink:title="GPUDefConstantsAndSettings.h">
<polygon fill="none" stroke="#000000" points="1284,-56.5 1284,-75.5 1455,-75.5 1455,-56.5 1284,-56.5"/>
<text text-anchor="middle" x="1369.5" y="-63.5" font-family="Helvetica,sans-Serif" font-size="10.00" fill="#000000">GPUDefConstantsAndSettings.h</text>
</a>
</g>
</g>
<!-- Node2&#45;&gt;Node6 -->
<g id="edge6" class="edge">
<title>Node2&#45;&gt;Node6</title>
<path fill="none" stroke="#191970" d="M1154.0336,-114.8507C1195.2806,-105.4991 1268.1022,-88.989 1317.5552,-77.777"/>
<polygon fill="#191970" stroke="#191970" points="1318.4469,-81.1637 1327.4255,-75.5392 1316.8991,-74.337 1318.4469,-81.1637"/>
</g>
<!-- Node7 -->
<g id="node8" class="node">
<title>Node7</title>
<g id="a_node8"><a xlink:href="../../dc/de9/GPUDefGPUParameters_8h.html" target="_top" xlink:title="GPUDefGPUParameters.h">
<polygon fill="none" stroke="#000000" points="800.5,-56.5 800.5,-75.5 940.5,-75.5 940.5,-56.5 800.5,-56.5"/>
<text text-anchor="middle" x="870.5" y="-63.5" font-family="Helvetica,sans-Serif" font-size="10.00" fill="#000000">GPUDefGPUParameters.h</text>
</a>
</g>
</g>
<!-- Node2&#45;&gt;Node7 -->
<g id="edge7" class="edge">
<title>Node2&#45;&gt;Node7</title>
<path fill="none" stroke="#191970" d="M1090.8392,-114.9643C1048.8271,-105.6282 974.0739,-89.0164 923.4135,-77.7586"/>
<polygon fill="#191970" stroke="#191970" points="924.1407,-74.3348 913.6195,-75.5821 922.6221,-81.1682 924.1407,-74.3348"/>
</g>
<!-- Node9 -->
<g id="node10" class="node">
<title>Node9</title>
<g id="a_node10"><a xlink:href="../../d3/d4c/GPUDefOpenCL12Templates_8h.html" target="_top" xlink:title="GPUDefOpenCL12Templates.h">
<polygon fill="none" stroke="#000000" points="958.5,-56.5 958.5,-75.5 1122.5,-75.5 1122.5,-56.5 958.5,-56.5"/>
<text text-anchor="middle" x="1040.5" y="-63.5" font-family="Helvetica,sans-Serif" font-size="10.00" fill="#000000">GPUDefOpenCL12Templates.h</text>
</a>
</g>
</g>
<!-- Node2&#45;&gt;Node9 -->
<g id="edge9" class="edge">
<title>Node2&#45;&gt;Node9</title>
<path fill="none" stroke="#191970" d="M1108.2167,-112.2455C1095.753,-103.7337 1077.4549,-91.2375 1063.0208,-81.3801"/>
<polygon fill="#191970" stroke="#191970" points="1064.8515,-78.392 1054.6196,-75.6427 1060.9038,-84.1726 1064.8515,-78.392"/>
</g>
<!-- Node10 -->
<g id="node11" class="node">
<title>Node10</title>
<g id="a_node11"><a xlink:href="../../d2/d45/GPUCommonRtypes_8h.html" target="_top" xlink:title="GPUCommonRtypes.h">
<polygon fill="none" stroke="#000000" points="1141,-56.5 1141,-75.5 1266,-75.5 1266,-56.5 1141,-56.5"/>
<text text-anchor="middle" x="1203.5" y="-63.5" font-family="Helvetica,sans-Serif" font-size="10.00" fill="#000000">GPUCommonRtypes.h</text>
</a>
</g>
</g>
<!-- Node2&#45;&gt;Node10 -->
<g id="edge10" class="edge">
<title>Node2&#45;&gt;Node10</title>
<path fill="none" stroke="#191970" d="M1136.6091,-112.2455C1148.9209,-103.7337 1166.9958,-91.2375 1181.2538,-81.3801"/>
<polygon fill="#191970" stroke="#191970" points="1183.3174,-84.2085 1189.5526,-75.6427 1179.3366,-78.4506 1183.3174,-84.2085"/>
</g>
<!-- Node4 -->
<g id="node5" class="node">
<title>Node4</title>
<g id="a_node5"><a xlink:href="../../d5/d93/GPUCommonDefSettings_8h.html" target="_top" xlink:title="GPUCommonDefSettings.h">
<polygon fill="none" stroke="#000000" points="226.5,-.5 226.5,-19.5 374.5,-19.5 374.5,-.5 226.5,-.5"/>
<text text-anchor="middle" x="300.5" y="-7.5" font-family="Helvetica,sans-Serif" font-size="10.00" fill="#000000">GPUCommonDefSettings.h</text>
</a>
</g>
</g>
<!-- Node3&#45;&gt;Node4 -->
<g id="edge4" class="edge">
<title>Node3&#45;&gt;Node4</title>
<path fill="none" stroke="#191970" d="M364.0876,-56.2455C352.4943,-47.814 335.5252,-35.4729 322.0322,-25.6598"/>
<polygon fill="#191970" stroke="#191970" points="323.9047,-22.6938 313.7587,-19.6427 319.7874,-28.355 323.9047,-22.6938"/>
</g>
<!-- Node5 -->
<g id="node6" class="node">
<title>Node5</title>
<g id="a_node6"><a xlink:href="../../da/d5a/GPUCommonDefAPI_8h.html" target="_top" xlink:title="GPUCommonDefAPI.h">
<polygon fill="none" stroke="#000000" points="392.5,-.5 392.5,-19.5 516.5,-19.5 516.5,-.5 392.5,-.5"/>
<text text-anchor="middle" x="454.5" y="-7.5" font-family="Helvetica,sans-Serif" font-size="10.00" fill="#000000">GPUCommonDefAPI.h</text>
</a>
</g>
</g>
<!-- Node3&#45;&gt;Node5 -->
<g id="edge5" class="edge">
<title>Node3&#45;&gt;Node5</title>
<path fill="none" stroke="#191970" d="M390.9124,-56.2455C402.5057,-47.814 419.4748,-35.4729 432.9678,-25.6598"/>
<polygon fill="#191970" stroke="#191970" points="435.2126,-28.355 441.2413,-19.6427 431.0953,-22.6938 435.2126,-28.355"/>
</g>
<!-- Node8 -->
<g id="node9" class="node">
<title>Node8</title>
<g id="a_node9"><a xlink:href="../../d6/dff/GPUDefMacros_8h.html" target="_top" xlink:title="GPUDefMacros.h">
<polygon fill="none" stroke="#000000" points="821.5,-.5 821.5,-19.5 919.5,-19.5 919.5,-.5 821.5,-.5"/>
<text text-anchor="middle" x="870.5" y="-7.5" font-family="Helvetica,sans-Serif" font-size="10.00" fill="#000000">GPUDefMacros.h</text>
</a>
</g>
</g>
<!-- Node7&#45;&gt;Node8 -->
<g id="edge8" class="edge">
<title>Node7&#45;&gt;Node8</title>
<path fill="none" stroke="#191970" d="M870.5,-56.2455C870.5,-48.9382 870.5,-38.6944 870.5,-29.7046"/>
<polygon fill="#191970" stroke="#191970" points="874.0001,-29.6426 870.5,-19.6427 867.0001,-29.6427 874.0001,-29.6426"/>
</g>
<!-- Node11 -->
<g id="node12" class="node">
<title>Node11</title>
<polygon fill="none" stroke="#bfbfbf" points="1174,-.5 1174,-19.5 1233,-19.5 1233,-.5 1174,-.5"/>
<text text-anchor="middle" x="1203.5" y="-7.5" font-family="Helvetica,sans-Serif" font-size="10.00" fill="#000000">Rtypes.h</text>
</g>
<!-- Node10&#45;&gt;Node11 -->
<g id="edge11" class="edge">
<title>Node10&#45;&gt;Node11</title>
<path fill="none" stroke="#191970" d="M1203.5,-56.2455C1203.5,-48.9382 1203.5,-38.6944 1203.5,-29.7046"/>
<polygon fill="#191970" stroke="#191970" points="1207.0001,-29.6426 1203.5,-19.6427 1200.0001,-29.6427 1207.0001,-29.6426"/>
</g>
<!-- Node12&#45;&gt;Node2 -->
<g id="edge13" class="edge">
<title>Node12&#45;&gt;Node2</title>
<path fill="none" stroke="#191970" d="M1290.132,-392.4664C1345.0771,-379.6951 1419.5,-351.1162 1419.5,-290 1419.5,-290 1419.5,-290 1419.5,-234 1419.5,-180.0303 1245.6304,-143.081 1163.9559,-128.7014"/>
<polygon fill="#191970" stroke="#191970" points="1164.4531,-125.2356 1154.003,-126.9807 1163.2605,-132.1332 1164.4531,-125.2356"/>
</g>
<!-- Node13 -->
<g id="node14" class="node">
<title>Node13</title>
<g id="a_node14"><a xlink:href="../../d4/dc5/GPUDataTypes_8h.html" target="_top" xlink:title="GPUDataTypes.h">
<polygon fill="none" stroke="#000000" points="161.5,-336.5 161.5,-355.5 259.5,-355.5 259.5,-336.5 161.5,-336.5"/>
<text text-anchor="middle" x="210.5" y="-343.5" font-family="Helvetica,sans-Serif" font-size="10.00" fill="#000000">GPUDataTypes.h</text>
</a>
</g>
</g>
<!-- Node12&#45;&gt;Node13 -->
<g id="edge14" class="edge">
<title>Node12&#45;&gt;Node13</title>
<path fill="none" stroke="#191970" d="M1171.7569,-398.7843C1032.4093,-391.3908 678.9993,-372.5457 383.5,-356 345.6617,-353.8814 303.1731,-351.4264 269.7723,-349.4792"/>
<polygon fill="#191970" stroke="#191970" points="269.9005,-345.9808 259.7135,-348.8921 269.4926,-352.9689 269.9005,-345.9808"/>
</g>
<!-- Node13&#45;&gt;Node3 -->
<g id="edge15" class="edge">
<title>Node13&#45;&gt;Node3</title>
<path fill="none" stroke="#191970" d="M201.5938,-336.3544C185.5625,-317.945 153.5,-275.8901 153.5,-234 153.5,-234 153.5,-234 153.5,-178 153.5,-105.8336 247.6623,-80.1653 313.8852,-71.0367"/>
<polygon fill="#191970" stroke="#191970" points="314.3737,-74.5028 323.8464,-69.7576 313.482,-67.5598 314.3737,-74.5028"/>
</g>
<!-- Node14 -->
<g id="node15" class="node">
<title>Node14</title>
<polygon fill="none" stroke="#bfbfbf" points="182,-168.5 182,-187.5 235,-187.5 235,-168.5 182,-168.5"/>
<text text-anchor="middle" x="208.5" y="-175.5" font-family="Helvetica,sans-Serif" font-size="10.00" fill="#000000">cstddef</text>
</g>
<!-- Node13&#45;&gt;Node14 -->
<g id="edge16" class="edge">
<title>Node13&#45;&gt;Node14</title>
<path fill="none" stroke="#191970" d="M210.3867,-336.4862C210.0706,-309.9293 209.1734,-234.5651 208.7401,-198.1655"/>
<polygon fill="#191970" stroke="#191970" points="212.2359,-197.7855 208.617,-187.8279 205.2364,-197.8689 212.2359,-197.7855"/>
</g>
<!-- Node15&#45;&gt;Node13 -->
<g id="edge60" class="edge">
<title>Node15&#45;&gt;Node13</title>
<path fill="none" stroke="#191970" d="M261.4065,-448.2418C254.2117,-439.2384 243.7405,-425.2919 236.5,-412 228.3186,-396.9808 221.3623,-378.834 216.7096,-365.3729"/>
<polygon fill="#191970" stroke="#191970" points="219.9777,-364.1094 213.4926,-355.7312 213.3376,-366.3249 219.9777,-364.1094"/>
</g>
<!-- Node16 -->
<g id="node17" class="node">
<title>Node16</title>
<g id="a_node17"><a xlink:href="../../d6/d25/GPUTPCTracker_8h.html" target="_top" xlink:title="GPUTPCTracker.h">
<polygon fill="none" stroke="#000000" points="531.5,-392.5 531.5,-411.5 631.5,-411.5 631.5,-392.5 531.5,-392.5"/>
<text text-anchor="middle" x="581.5" y="-399.5" font-family="Helvetica,sans-Serif" font-size="10.00" fill="#000000">GPUTPCTracker.h</text>
</a>
</g>
</g>
<!-- Node15&#45;&gt;Node16 -->
<g id="edge18" class="edge">
<title>Node15&#45;&gt;Node16</title>
<path fill="none" stroke="#191970" d="M322.7802,-448.4369C377.8649,-438.5499 463.7094,-423.1419 521.2359,-412.8166"/>
<polygon fill="#191970" stroke="#191970" points="522.0544,-416.2257 531.2788,-411.0141 520.8177,-409.3358 522.0544,-416.2257"/>
</g>
<!-- Node26 -->
<g id="node27" class="node">
<title>Node26</title>
<g id="a_node27"><a xlink:href="../../df/d13/GPUParam_8h.html" target="_top" xlink:title="GPUParam.h">
<polygon fill="none" stroke="#000000" points="528,-280.5 528,-299.5 605,-299.5 605,-280.5 528,-280.5"/>
<text text-anchor="middle" x="566.5" y="-287.5" font-family="Helvetica,sans-Serif" font-size="10.00" fill="#000000">GPUParam.h</text>
</a>
</g>
</g>
<!-- Node15&#45;&gt;Node26 -->
<g id="edge59" class="edge">
<title>Node15&#45;&gt;Node26</title>
<path fill="none" stroke="#191970" d="M275.6175,-448.3211C290.8279,-425.0897 332.8096,-365.8895 383.5,-336 395.116,-329.1506 467.495,-312.0823 517.6674,-300.774"/>
<polygon fill="#191970" stroke="#191970" points="518.7028,-304.1288 527.6937,-298.524 517.17,-297.2987 518.7028,-304.1288"/>
</g>
<!-- Node35 -->
<g id="node36" class="node">
<title>Node35</title>
<g id="a_node36"><a xlink:href="../../d7/d4f/GPUTRDDef_8h.html" target="_top" xlink:title="GPUTRDDef.h">
<polygon fill="none" stroke="#000000" points="0,-112.5 0,-131.5 83,-131.5 83,-112.5 0,-112.5"/>
<text text-anchor="middle" x="41.5" y="-119.5" font-family="Helvetica,sans-Serif" font-size="10.00" fill="#000000">GPUTRDDef.h</text>
</a>
</g>
</g>
<!-- Node15&#45;&gt;Node35 -->
<g id="edge61" class="edge">
<title>Node15&#45;&gt;Node35</title>
<path fill="none" stroke="#191970" d="M212.4579,-452.3533C156.9823,-445.7285 77.8947,-432.9094 55.5,-412 33.1887,-391.1684 36.5,-376.5246 36.5,-346 36.5,-346 36.5,-346 36.5,-234 36.5,-201.6794 38.6037,-164.1646 40.082,-141.7929"/>
<polygon fill="#191970" stroke="#191970" points="43.5898,-141.7984 40.7836,-131.5819 36.6063,-141.3185 43.5898,-141.7984"/>
</g>
<!-- Node36 -->
<g id="node37" class="node">
<title>Node36</title>
<g id="a_node37"><a xlink:href="../../da/d28/GPUO2FakeClasses_8h.html" target="_top" xlink:title="GPUO2FakeClasses.h">
<polygon fill="none" stroke="#000000" points="64.5,-392.5 64.5,-411.5 184.5,-411.5 184.5,-392.5 64.5,-392.5"/>
<text text-anchor="middle" x="124.5" y="-399.5" font-family="Helvetica,sans-Serif" font-size="10.00" fill="#000000">GPUO2FakeClasses.h</text>
</a>
</g>
</g>
<!-- Node15&#45;&gt;Node36 -->
<g id="edge63" class="edge">
<title>Node15&#45;&gt;Node36</title>
<path fill="none" stroke="#191970" d="M244.5736,-448.3733C220.8798,-439.2226 185.0489,-425.3844 158.6932,-415.2057"/>
<polygon fill="#191970" stroke="#191970" points="159.6906,-411.8389 149.1011,-411.5011 157.1686,-418.3689 159.6906,-411.8389"/>
</g>
<!-- Node17 -->
<g id="node18" class="node">
<title>Node17</title>
<g id="a_node18"><a xlink:href="../../da/dab/GPUTPCDef_8h.html" target="_top" xlink:title="GPUTPCDef.h">
<polygon fill="none" stroke="#000000" points="1081.5,-168.5 1081.5,-187.5 1163.5,-187.5 1163.5,-168.5 1081.5,-168.5"/>
<text text-anchor="middle" x="1122.5" y="-175.5" font-family="Helvetica,sans-Serif" font-size="10.00" fill="#000000">GPUTPCDef.h</text>
</a>
</g>
</g>
<!-- Node16&#45;&gt;Node17 -->
<g id="edge19" class="edge">
<title>Node16&#45;&gt;Node17</title>
<path fill="none" stroke="#191970" d="M631.534,-399.1856C795.1995,-389.4729 1306.8938,-354.9103 1354.5,-300 1368.8668,-283.429 1361.1425,-243.8921 1340.5,-224 1317.0979,-201.4486 1230.4879,-188.6829 1173.734,-182.5729"/>
<polygon fill="#191970" stroke="#191970" points="1173.8148,-179.0625 1163.5063,-181.5086 1173.0903,-186.0249 1173.8148,-179.0625"/>
</g>
<!-- Node18 -->
<g id="node19" class="node">
<title>Node18</title>
<polygon fill="none" stroke="#bfbfbf" points="499.5,-336.5 499.5,-355.5 559.5,-355.5 559.5,-336.5 499.5,-336.5"/>
<text text-anchor="middle" x="529.5" y="-343.5" font-family="Helvetica,sans-Serif" font-size="10.00" fill="#000000">iostream</text>
</g>
<!-- Node16&#45;&gt;Node18 -->
<g id="edge21" class="edge">
<title>Node16&#45;&gt;Node18</title>
<path fill="none" stroke="#191970" d="M572.4423,-392.2455C564.9858,-384.2155 554.2366,-372.6394 545.3583,-363.0781"/>
<polygon fill="#191970" stroke="#191970" points="547.8232,-360.589 538.4539,-355.6427 542.6937,-365.3522 547.8232,-360.589"/>
</g>
<!-- Node19 -->
<g id="node20" class="node">
<title>Node19</title>
<g id="a_node20"><a xlink:href="../../dd/d7b/GPUTPCHitId_8h.html" target="_top" xlink:title="GPUTPCHitId.h">
<polygon fill="none" stroke="#000000" points="393,-336.5 393,-355.5 482,-355.5 482,-336.5 393,-336.5"/>
<text text-anchor="middle" x="437.5" y="-343.5" font-family="Helvetica,sans-Serif" font-size="10.00" fill="#000000">GPUTPCHitId.h</text>
</a>
</g>
</g>
<!-- Node16&#45;&gt;Node19 -->
<g id="edge22" class="edge">
<title>Node16&#45;&gt;Node19</title>
<path fill="none" stroke="#191970" d="M556.7455,-392.3733C533.2151,-383.2226 497.6313,-369.3844 471.4574,-359.2057"/>
<polygon fill="#191970" stroke="#191970" points="472.5201,-355.8636 461.9315,-355.5011 469.9829,-362.3877 472.5201,-355.8636"/>
</g>
<!-- Node20 -->
<g id="node21" class="node">
<title>Node20</title>
<g id="a_node21"><a xlink:href="../../df/d4a/GPUTPCSliceData_8h.html" target="_top" xlink:title="GPUTPCSliceData.h">
<polygon fill="none" stroke="#000000" points="577.5,-336.5 577.5,-355.5 689.5,-355.5 689.5,-336.5 577.5,-336.5"/>
<text text-anchor="middle" x="633.5" y="-343.5" font-family="Helvetica,sans-Serif" font-size="10.00" fill="#000000">GPUTPCSliceData.h</text>
</a>
</g>
</g>
<!-- Node16&#45;&gt;Node20 -->
<g id="edge23" class="edge">
<title>Node16&#45;&gt;Node20</title>
<path fill="none" stroke="#191970" d="M590.5577,-392.2455C598.0142,-384.2155 608.7634,-372.6394 617.6417,-363.0781"/>
<polygon fill="#191970" stroke="#191970" points="620.3063,-365.3522 624.5461,-355.6427 615.1768,-360.589 620.3063,-365.3522"/>
</g>
<!-- Node31 -->
<g id="node32" class="node">
<title>Node31</title>
<g id="a_node32"><a xlink:href="../../d6/d57/GPUProcessor_8h.html" target="_top" xlink:title="GPUProcessor.h">
<polygon fill="none" stroke="#000000" points="255,-224.5 255,-243.5 348,-243.5 348,-224.5 255,-224.5"/>
<text text-anchor="middle" x="301.5" y="-231.5" font-family="Helvetica,sans-Serif" font-size="10.00" fill="#000000">GPUProcessor.h</text>
</a>
</g>
</g>
<!-- Node16&#45;&gt;Node31 -->
<g id="edge58" class="edge">
<title>Node16&#45;&gt;Node31</title>
<path fill="none" stroke="#191970" d="M531.4683,-394.6625C480.9754,-386.5112 407.1787,-372.3266 383.5,-356 345.8477,-330.0385 320.7269,-280.6381 309.0443,-253.3378"/>
<polygon fill="#191970" stroke="#191970" points="312.1401,-251.6624 305.1045,-243.7409 305.6645,-254.3209 312.1401,-251.6624"/>
</g>
<!-- Node32 -->
<g id="node33" class="node">
<title>Node32</title>
<g id="a_node33"><a xlink:href="../../de/d15/GPUTPCTrackParam_8h.html" target="_top" xlink:title="GPUTPCTrackParam.h">
<polygon fill="none" stroke="#000000" points="1101.5,-280.5 1101.5,-299.5 1223.5,-299.5 1223.5,-280.5 1101.5,-280.5"/>
<text text-anchor="middle" x="1162.5" y="-287.5" font-family="Helvetica,sans-Serif" font-size="10.00" fill="#000000">GPUTPCTrackParam.h</text>
</a>
</g>
</g>
<!-- Node16&#45;&gt;Node32 -->
<g id="edge50" class="edge">
<title>Node16&#45;&gt;Node32</title>
<path fill="none" stroke="#191970" d="M631.0357,-392.4509C737.5871,-371.9109 988.1813,-323.6036 1103.0661,-301.4571"/>
<polygon fill="#191970" stroke="#191970" points="1103.933,-304.8546 1113.0896,-299.5249 1102.6079,-297.9811 1103.933,-304.8546"/>
</g>
<!-- Node34 -->
<g id="node35" class="node">
<title>Node34</title>
<g id="a_node35"><a xlink:href="../../db/d6e/GPUTPCTracklet_8h.html" target="_top" xlink:title="GPUTPCTracklet.h">
<polygon fill="none" stroke="#000000" points="1241.5,-280.5 1241.5,-299.5 1345.5,-299.5 1345.5,-280.5 1241.5,-280.5"/>
<text text-anchor="middle" x="1293.5" y="-287.5" font-family="Helvetica,sans-Serif" font-size="10.00" fill="#000000">GPUTPCTracklet.h</text>
</a>
</g>
</g>
<!-- Node16&#45;&gt;Node34 -->
<g id="edge55" class="edge">
<title>Node16&#45;&gt;Node34</title>
<path fill="none" stroke="#191970" d="M631.7179,-394.5954C692.1884,-385.64 796.8216,-370.0194 886.5,-356 1037.1029,-332.4562 1077.0469,-325.3492 1230.953,-300.251"/>
<polygon fill="#191970" stroke="#191970" points="1231.951,-303.6346 1241.2577,-298.5715 1230.8249,-296.7258 1231.951,-303.6346"/>
</g>
<!-- Node17&#45;&gt;Node2 -->
<g id="edge20" class="edge">
<title>Node17&#45;&gt;Node2</title>
<path fill="none" stroke="#191970" d="M1122.5,-168.2455C1122.5,-160.9382 1122.5,-150.6944 1122.5,-141.7046"/>
<polygon fill="#191970" stroke="#191970" points="1126.0001,-141.6426 1122.5,-131.6427 1119.0001,-141.6427 1126.0001,-141.6426"/>
</g>
<!-- Node20&#45;&gt;Node17 -->
<g id="edge24" class="edge">
<title>Node20&#45;&gt;Node17</title>
<path fill="none" stroke="#191970" d="M689.6399,-342.4678C795.5552,-335.4093 1016.9353,-318.6303 1046.5,-300 1084.5214,-276.0406 1106.6598,-225.4139 1116.4454,-197.4978"/>
<polygon fill="#191970" stroke="#191970" points="1119.8701,-198.2902 1119.6977,-187.6968 1113.2263,-196.0856 1119.8701,-198.2902"/>
</g>
<!-- Node21 -->
<g id="node22" class="node">
<title>Node21</title>
<g id="a_node22"><a xlink:href="../../d8/dff/GPUTPCRow_8h.html" target="_top" xlink:title="GPUTPCRow.h">
<polygon fill="none" stroke="#000000" points="952,-280.5 952,-299.5 1037,-299.5 1037,-280.5 952,-280.5"/>
<text text-anchor="middle" x="994.5" y="-287.5" font-family="Helvetica,sans-Serif" font-size="10.00" fill="#000000">GPUTPCRow.h</text>
</a>
</g>
</g>
<!-- Node20&#45;&gt;Node21 -->
<g id="edge25" class="edge">
<title>Node20&#45;&gt;Node21</title>
<path fill="none" stroke="#191970" d="M689.5102,-337.3114C758.4548,-326.6164 874.6452,-308.5924 941.9586,-298.1505"/>
<polygon fill="#191970" stroke="#191970" points="942.5804,-301.596 951.9257,-296.6043 941.5073,-294.6787 942.5804,-301.596"/>
</g>
<!-- Node23 -->
<g id="node24" class="node">
<title>Node23</title>
<g id="a_node24"><a xlink:href="../../d6/da2/GPUCommonMath_8h.html" target="_top" xlink:title="GPUCommonMath.h">
<polygon fill="none" stroke="#000000" points="575,-168.5 575,-187.5 690,-187.5 690,-168.5 575,-168.5"/>
<text text-anchor="middle" x="632.5" y="-175.5" font-family="Helvetica,sans-Serif" font-size="10.00" fill="#000000">GPUCommonMath.h</text>
</a>
</g>
</g>
<!-- Node20&#45;&gt;Node23 -->
<g id="edge29" class="edge">
<title>Node20&#45;&gt;Node23</title>
<path fill="none" stroke="#191970" d="M633.4434,-336.4862C633.2853,-309.9293 632.8367,-234.5651 632.62,-198.1655"/>
<polygon fill="#191970" stroke="#191970" points="636.1181,-197.8068 632.5585,-187.8279 629.1182,-197.8486 636.1181,-197.8068"/>
</g>
<!-- Node20&#45;&gt;Node26 -->
<g id="edge33" class="edge">
<title>Node20&#45;&gt;Node26</title>
<path fill="none" stroke="#191970" d="M621.8295,-336.2455C611.9339,-327.9746 597.5373,-315.9416 585.9099,-306.2232"/>
<polygon fill="#191970" stroke="#191970" points="587.9542,-303.3703 578.0368,-299.6427 583.465,-308.7413 587.9542,-303.3703"/>
</g>
<!-- Node30 -->
<g id="node31" class="node">
<title>Node30</title>
<g id="a_node31"><a xlink:href="../../d5/da6/GPUMemoryResource_8h.html" target="_top" xlink:title="GPUMemoryResource.h">
<polygon fill="none" stroke="#000000" points="379,-280.5 379,-299.5 510,-299.5 510,-280.5 379,-280.5"/>
<text text-anchor="middle" x="444.5" y="-287.5" font-family="Helvetica,sans-Serif" font-size="10.00" fill="#000000">GPUMemoryResource.h</text>
</a>
</g>
</g>
<!-- Node20&#45;&gt;Node30 -->
<g id="edge43" class="edge">
<title>Node20&#45;&gt;Node30</title>
<path fill="none" stroke="#191970" d="M601.0097,-336.3733C569.3098,-326.9807 520.9424,-312.6496 486.3714,-302.4064"/>
<polygon fill="#191970" stroke="#191970" points="487.1486,-298.9863 476.5663,-299.5011 485.1599,-305.6979 487.1486,-298.9863"/>
</g>
<!-- Node21&#45;&gt;Node17 -->
<g id="edge26" class="edge">
<title>Node21&#45;&gt;Node17</title>
<path fill="none" stroke="#191970" d="M1005.4132,-280.4509C1027.3289,-261.2747 1076.9043,-217.8962 1103.9871,-194.1988"/>
<polygon fill="#191970" stroke="#191970" points="1106.3934,-196.744 1111.6144,-187.5249 1101.7838,-191.4759 1106.3934,-196.744"/>
</g>
<!-- Node22 -->
<g id="node23" class="node">
<title>Node22</title>
<g id="a_node23"><a xlink:href="../../d3/da7/GPUTPCGrid_8h.html" target="_top" xlink:title="GPUTPCGrid.h">
<polygon fill="none" stroke="#000000" points="951.5,-224.5 951.5,-243.5 1037.5,-243.5 1037.5,-224.5 951.5,-224.5"/>
<text text-anchor="middle" x="994.5" y="-231.5" font-family="Helvetica,sans-Serif" font-size="10.00" fill="#000000">GPUTPCGrid.h</text>
</a>
</g>
</g>
<!-- Node21&#45;&gt;Node22 -->
<g id="edge27" class="edge">
<title>Node21&#45;&gt;Node22</title>
<path fill="none" stroke="#191970" d="M994.5,-280.2455C994.5,-272.9382 994.5,-262.6944 994.5,-253.7046"/>
<polygon fill="#191970" stroke="#191970" points="998.0001,-253.6426 994.5,-243.6427 991.0001,-253.6427 998.0001,-253.6426"/>
</g>
<!-- Node22&#45;&gt;Node17 -->
<g id="edge28" class="edge">
<title>Node22&#45;&gt;Node17</title>
<path fill="none" stroke="#191970" d="M1016.504,-224.3733C1037.1435,-215.3435 1068.2158,-201.7494 1091.3889,-191.6111"/>
<polygon fill="#191970" stroke="#191970" points="1093.0245,-194.7159 1100.7831,-187.5011 1090.2187,-188.3028 1093.0245,-194.7159"/>
</g>
<!-- Node23&#45;&gt;Node3 -->
<g id="edge30" class="edge">
<title>Node23&#45;&gt;Node3</title>
<path fill="none" stroke="#191970" d="M624.4598,-168.3303C611.8957,-153.8605 586.1648,-126.7062 558.5,-112 521.9948,-92.5944 476.9502,-81.1079 440.9297,-74.4661"/>
<polygon fill="#191970" stroke="#191970" points="441.48,-71.0092 431.024,-72.7187 440.2639,-77.9028 441.48,-71.0092"/>
</g>
<!-- Node24 -->
<g id="node25" class="node">
<title>Node24</title>
<polygon fill="none" stroke="#bfbfbf" points="609,-112.5 609,-131.5 656,-131.5 656,-112.5 609,-112.5"/>
<text text-anchor="middle" x="632.5" y="-119.5" font-family="Helvetica,sans-Serif" font-size="10.00" fill="#000000">cmath</text>
</g>
<!-- Node23&#45;&gt;Node24 -->
<g id="edge31" class="edge">
<title>Node23&#45;&gt;Node24</title>
<path fill="none" stroke="#191970" d="M632.5,-168.2455C632.5,-160.9382 632.5,-150.6944 632.5,-141.7046"/>
<polygon fill="#191970" stroke="#191970" points="636.0001,-141.6426 632.5,-131.6427 629.0001,-141.6427 636.0001,-141.6426"/>
</g>
<!-- Node25 -->
<g id="node26" class="node">
<title>Node25</title>
<polygon fill="none" stroke="#bfbfbf" points="485.5,-112.5 485.5,-131.5 549.5,-131.5 549.5,-112.5 485.5,-112.5"/>
<text text-anchor="middle" x="517.5" y="-119.5" font-family="Helvetica,sans-Serif" font-size="10.00" fill="#000000">algorithm</text>
</g>
<!-- Node23&#45;&gt;Node25 -->
<g id="edge32" class="edge">
<title>Node23&#45;&gt;Node25</title>
<path fill="none" stroke="#191970" d="M612.7308,-168.3733C594.3531,-159.4241 566.7688,-145.9917 546.0107,-135.8835"/>
<polygon fill="#191970" stroke="#191970" points="547.5343,-132.7325 537.0112,-131.5011 544.4696,-139.026 547.5343,-132.7325"/>
</g>
<!-- Node26&#45;&gt;Node2 -->
<g id="edge36" class="edge">
<title>Node26&#45;&gt;Node2</title>
<path fill="none" stroke="#191970" d="M594.2135,-280.468C632.7191,-267.3127 704.6512,-243.0572 766.5,-224 879.877,-189.0657 1014.7733,-151.4975 1081.2593,-133.2433"/>
<polygon fill="#191970" stroke="#191970" points="1082.2268,-136.6073 1090.9454,-130.5877 1080.3759,-129.8564 1082.2268,-136.6073"/>
</g>
<!-- Node26&#45;&gt;Node3 -->
<g id="edge34" class="edge">
<title>Node26&#45;&gt;Node3</title>
<path fill="none" stroke="#191970" d="M531.9877,-280.396C510.8411,-273.1345 484.3149,-261.3981 465.5,-244 440.3537,-220.7472 401.2271,-126.3531 384.9724,-85.2641"/>
<polygon fill="#191970" stroke="#191970" points="388.1812,-83.8596 381.2718,-75.8277 381.6644,-86.4153 388.1812,-83.8596"/>
</g>
<!-- Node26&#45;&gt;Node23 -->
<g id="edge35" class="edge">
<title>Node26&#45;&gt;Node23</title>
<path fill="none" stroke="#191970" d="M572.1271,-280.4509C583.0864,-261.8533 607.4601,-220.4919 621.6593,-196.3964"/>
<polygon fill="#191970" stroke="#191970" points="624.8255,-197.9172 626.8871,-187.5249 618.7948,-194.3633 624.8255,-197.9172"/>
</g>
<!-- Node27 -->
<g id="node28" class="node">
<title>Node27</title>
<g id="a_node28"><a xlink:href="../../dd/dc6/GPUSettings_8h.html" target="_top" xlink:title="GPUSettings.h">
<polygon fill="none" stroke="#000000" points="481.5,-224.5 481.5,-243.5 567.5,-243.5 567.5,-224.5 481.5,-224.5"/>
<text text-anchor="middle" x="524.5" y="-231.5" font-family="Helvetica,sans-Serif" font-size="10.00" fill="#000000">GPUSettings.h</text>
</a>
</g>
</g>
<!-- Node26&#45;&gt;Node27 -->
<g id="edge37" class="edge">
<title>Node26&#45;&gt;Node27</title>
<path fill="none" stroke="#191970" d="M559.1842,-280.2455C553.2821,-272.3761 544.8258,-261.101 537.7406,-251.6542"/>
<polygon fill="#191970" stroke="#191970" points="540.5321,-249.5427 531.732,-243.6427 534.932,-253.7427 540.5321,-249.5427"/>
</g>
<!-- Node28 -->
<g id="node29" class="node">
<title>Node28</title>
<g id="a_node29"><a xlink:href="../../d6/d1b/GPUTPCGeometry_8h.html" target="_top" xlink:title="GPUTPCGeometry.h">
<polygon fill="none" stroke="#000000" points="444,-168.5 444,-187.5 557,-187.5 557,-168.5 444,-168.5"/>
<text text-anchor="middle" x="500.5" y="-175.5" font-family="Helvetica,sans-Serif" font-size="10.00" fill="#000000">GPUTPCGeometry.h</text>
</a>
</g>
</g>
<!-- Node26&#45;&gt;Node28 -->
<g id="edge39" class="edge">
<title>Node26&#45;&gt;Node28</title>
<path fill="none" stroke="#191970" d="M527.7736,-281.4862C507.5792,-274.8689 484.6185,-263.422 472.5,-244 462.8967,-228.609 473.3044,-209.3498 484.05,-195.616"/>
<polygon fill="#191970" stroke="#191970" points="486.8224,-197.758 490.6085,-187.8627 481.478,-193.2372 486.8224,-197.758"/>
</g>
<!-- Node29 -->
<g id="node30" class="node">
<title>Node29</title>
<g id="a_node30"><a xlink:href="../../d9/d9c/GPUTPCGMPolynomialField_8h.html" target="_top" xlink:title="GPUTPCGMPolynomialField.h">
<polygon fill="none" stroke="#000000" points="775.5,-224.5 775.5,-243.5 933.5,-243.5 933.5,-224.5 775.5,-224.5"/>
<text text-anchor="middle" x="854.5" y="-231.5" font-family="Helvetica,sans-Serif" font-size="10.00" fill="#000000">GPUTPCGMPolynomialField.h</text>
</a>
</g>
</g>
<!-- Node26&#45;&gt;Node29 -->
<g id="edge41" class="edge">
<title>Node26&#45;&gt;Node29</title>
<path fill="none" stroke="#191970" d="M605.0421,-282.5057C653.9151,-273.0026 738.664,-256.5237 795.6497,-245.4431"/>
<polygon fill="#191970" stroke="#191970" points="796.4521,-248.8527 805.6001,-243.5083 795.1159,-241.9814 796.4521,-248.8527"/>
</g>
<!-- Node27&#45;&gt;Node23 -->
<g id="edge38" class="edge">
<title>Node27&#45;&gt;Node23</title>
<path fill="none" stroke="#191970" d="M543.3122,-224.2455C560.3473,-215.4125 585.6575,-202.2887 604.9681,-192.2758"/>
<polygon fill="#191970" stroke="#191970" points="606.637,-195.353 613.9034,-187.6427 603.4147,-189.1388 606.637,-195.353"/>
</g>
<!-- Node28&#45;&gt;Node3 -->
<g id="edge40" class="edge">
<title>Node28&#45;&gt;Node3</title>
<path fill="none" stroke="#191970" d="M489.9897,-168.0781C476.1968,-155.0924 451.1922,-131.6715 429.5,-112 418.6183,-102.132 406.3119,-91.234 396.4037,-82.5233"/>
<polygon fill="#191970" stroke="#191970" points="398.5546,-79.7543 388.7288,-75.7914 393.9387,-85.0168 398.5546,-79.7543"/>
</g>
<!-- Node29&#45;&gt;Node17 -->
<g id="edge42" class="edge">
<title>Node29&#45;&gt;Node17</title>
<path fill="none" stroke="#191970" d="M900.2663,-224.4369C947.8202,-214.5003 1022.0619,-198.9871 1071.477,-188.6615"/>
<polygon fill="#191970" stroke="#191970" points="1072.2471,-192.0763 1081.3198,-186.6048 1070.8153,-185.2243 1072.2471,-192.0763"/>
</g>
<!-- Node30&#45;&gt;Node3 -->
<g id="edge44" class="edge">
<title>Node30&#45;&gt;Node3</title>
<path fill="none" stroke="#191970" d="M432.1027,-280.4918C422.0821,-272.0624 408.527,-258.816 401.5,-244 376.4087,-191.0963 375.2137,-120.0359 376.3588,-85.9169"/>
<polygon fill="#191970" stroke="#191970" points="379.8591,-85.9873 376.8058,-75.842 372.866,-85.677 379.8591,-85.9873"/>
</g>
<!-- Node30&#45;&gt;Node31 -->
<g id="edge45" class="edge">
<title>Node30&#45;&gt;Node31</title>
<path fill="none" stroke="#191970" d="M419.9174,-280.3733C396.5504,-271.2226 361.2138,-257.3844 335.2216,-247.2057"/>
<polygon fill="#191970" stroke="#191970" points="336.3495,-243.8886 325.7618,-243.5011 333.797,-250.4066 336.3495,-243.8886"/>
</g>
<!-- Node31&#45;&gt;Node2 -->
<g id="edge47" class="edge">
<title>Node31&#45;&gt;Node2</title>
<path fill="none" stroke="#191970" d="M315.8924,-224.4542C339.5059,-209.362 388.461,-180.4299 434.5,-168 557.311,-134.8428 950.3779,-125.0354 1080.3394,-122.6606"/>
<polygon fill="#191970" stroke="#191970" points="1080.728,-126.1543 1090.6644,-122.4776 1080.6039,-119.1554 1080.728,-126.1543"/>
</g>
<!-- Node31&#45;&gt;Node3 -->
<g id="edge46" class="edge">
<title>Node31&#45;&gt;Node3</title>
<path fill="none" stroke="#191970" d="M301.0851,-224.2731C300.8427,-211.1008 301.5421,-187.0488 308.5,-168 320.5765,-134.938 345.6579,-102.2146 362.0221,-83.0685"/>
<polygon fill="#191970" stroke="#191970" points="364.6911,-85.3334 368.6439,-75.5036 359.4239,-80.7229 364.6911,-85.3334"/>
</g>
<!-- Node31&#45;&gt;Node14 -->
<g id="edge48" class="edge">
<title>Node31&#45;&gt;Node14</title>
<path fill="none" stroke="#191970" d="M285.3006,-224.2455C270.8982,-215.5731 249.6268,-202.7645 233.1201,-192.825"/>
<polygon fill="#191970" stroke="#191970" points="234.886,-189.8028 224.5137,-187.6427 231.275,-195.7996 234.886,-189.8028"/>
</g>
<!-- Node31&#45;&gt;Node25 -->
<g id="edge49" class="edge">
<title>Node31&#45;&gt;Node25</title>
<path fill="none" stroke="#191970" d="M302.2065,-224.3475C303.798,-209.9001 308.9436,-182.7746 325.5,-168 347.3466,-148.5046 425.5479,-134.5428 475.1544,-127.4117"/>
<polygon fill="#191970" stroke="#191970" points="475.8575,-130.8474 485.2754,-125.9941 474.8865,-123.9151 475.8575,-130.8474"/>
</g>
<!-- Node32&#45;&gt;Node17 -->
<g id="edge53" class="edge">
<title>Node32&#45;&gt;Node17</title>
<path fill="none" stroke="#191970" d="M1159.0896,-280.4509C1152.5067,-262.0186 1137.9376,-221.2254 1129.3011,-197.043"/>
<polygon fill="#191970" stroke="#191970" points="1132.5613,-195.7651 1125.9017,-187.5249 1125.9691,-198.1195 1132.5613,-195.7651"/>
</g>
<!-- Node32&#45;&gt;Node23 -->
<g id="edge54" class="edge">
<title>Node32&#45;&gt;Node23</title>
<path fill="none" stroke="#191970" d="M1101.3606,-284.0563C998.2317,-273.858 797.8269,-253.2342 766.5,-244 725.7369,-231.9843 682.2519,-208.3068 656.2334,-192.8216"/>
<polygon fill="#191970" stroke="#191970" points="657.8433,-189.7049 647.4753,-187.5239 654.2203,-195.6944 657.8433,-189.7049"/>
</g>
<!-- Node33 -->
<g id="node34" class="node">
<title>Node33</title>
<g id="a_node34"><a xlink:href="../../df/d00/GPUTPCBaseTrackParam_8h.html" target="_top" xlink:title="GPUTPCBaseTrackParam.h">
<polygon fill="none" stroke="#000000" points="1169.5,-224.5 1169.5,-243.5 1315.5,-243.5 1315.5,-224.5 1169.5,-224.5"/>
<text text-anchor="middle" x="1242.5" y="-231.5" font-family="Helvetica,sans-Serif" font-size="10.00" fill="#000000">GPUTPCBaseTrackParam.h</text>
</a>
</g>
</g>
<!-- Node32&#45;&gt;Node33 -->
<g id="edge51" class="edge">
<title>Node32&#45;&gt;Node33</title>
<path fill="none" stroke="#191970" d="M1176.4349,-280.2455C1188.5947,-271.7337 1206.4464,-259.2375 1220.5285,-249.3801"/>
<polygon fill="#191970" stroke="#191970" points="1222.5395,-252.2447 1228.7248,-243.6427 1218.5253,-246.51 1222.5395,-252.2447"/>
</g>
<!-- Node33&#45;&gt;Node17 -->
<g id="edge52" class="edge">
<title>Node33&#45;&gt;Node17</title>
<path fill="none" stroke="#191970" d="M1221.8713,-224.3733C1202.6081,-215.3838 1173.6514,-201.8706 1151.9581,-191.7471"/>
<polygon fill="#191970" stroke="#191970" points="1153.4015,-188.5584 1142.8595,-187.5011 1150.4413,-194.9017 1153.4015,-188.5584"/>
</g>
<!-- Node34&#45;&gt;Node17 -->
<g id="edge57" class="edge">
<title>Node34&#45;&gt;Node17</title>
<path fill="none" stroke="#191970" d="M1304.2939,-280.258C1318.0768,-266.6419 1338.5538,-241.614 1324.5,-224 1305.9549,-200.757 1227.1004,-188.349 1173.5773,-182.4759"/>
<polygon fill="#191970" stroke="#191970" points="1173.8792,-178.9884 1163.5673,-181.4206 1173.1452,-185.9498 1173.8792,-178.9884"/>
</g>
<!-- Node34&#45;&gt;Node33 -->
<g id="edge56" class="edge">
<title>Node34&#45;&gt;Node33</title>
<path fill="none" stroke="#191970" d="M1284.6165,-280.2455C1277.3034,-272.2155 1266.7609,-260.6394 1258.0533,-251.0781"/>
<polygon fill="#191970" stroke="#191970" points="1260.6028,-248.6795 1251.2817,-243.6427 1255.4273,-253.3928 1260.6028,-248.6795"/>
</g>
<!-- Node35&#45;&gt;Node3 -->
<g id="edge62" class="edge">
<title>Node35&#45;&gt;Node3</title>
<path fill="none" stroke="#191970" d="M83.0372,-115.0771C140.8216,-105.4464 245.9838,-87.9194 313.7416,-76.6264"/>
<polygon fill="#191970" stroke="#191970" points="314.5809,-80.0349 323.8694,-74.9384 313.43,-73.1301 314.5809,-80.0349"/>
</g>
<!-- Node36&#45;&gt;Node3 -->
<g id="edge64" class="edge">
<title>Node36&#45;&gt;Node3</title>
<path fill="none" stroke="#191970" d="M123.2105,-392.4324C120.7219,-373.112 115.5,-328.0389 115.5,-290 115.5,-290 115.5,-290 115.5,-178 115.5,-140.0995 137.2159,-131.854 169.5,-112 193.3489,-97.3335 261.7442,-83.9251 313.6516,-75.4168"/>
<polygon fill="#191970" stroke="#191970" points="314.4797,-78.8286 323.7952,-73.7816 313.3656,-71.9178 314.4797,-78.8286"/>
</g>
<!-- Node36&#45;&gt;Node13 -->
<g id="edge65" class="edge">
<title>Node36&#45;&gt;Node13</title>
<path fill="none" stroke="#191970" d="M139.4801,-392.2455C152.6751,-383.6534 172.1051,-371.0014 187.3079,-361.1018"/>
<polygon fill="#191970" stroke="#191970" points="189.2215,-364.0325 195.6916,-355.6427 185.4017,-358.1665 189.2215,-364.0325"/>
</g>
<!-- Node37&#45;&gt;Node2 -->
<g id="edge67" class="edge">
<title>Node37&#45;&gt;Node2</title>
<path fill="none" stroke="#191970" d="M1286.2807,-448.1703C1297.4739,-434.45 1319.2343,-409.2991 1341.5,-392 1395.7126,-349.8802 1457.5,-358.6519 1457.5,-290 1457.5,-290 1457.5,-290 1457.5,-234 1457.5,-183.3158 1411.1334,-187.8548 1364.5,-168 1298.0092,-139.6907 1213.8562,-128.7117 1164.3283,-124.5188"/>
<polygon fill="#191970" stroke="#191970" points="1164.5495,-121.0255 1154.3039,-123.7233 1163.9956,-128.0035 1164.5495,-121.0255"/>
</g>
<!-- Node37&#45;&gt;Node13 -->
<g id="edge69" class="edge">
<title>Node37&#45;&gt;Node13</title>
<path fill="none" stroke="#191970" d="M1214.2631,-457.7936C1006.2744,-456.7485 359.7618,-450.4118 274.5,-412 252.1168,-401.916 233.5268,-380.1238 222.2521,-364.3329"/>
<polygon fill="#191970" stroke="#191970" points="225.0066,-362.1594 216.4857,-355.8628 219.2202,-366.0987 225.0066,-362.1594"/>
</g>
<!-- Node37&#45;&gt;Node31 -->
<g id="edge68" class="edge">
<title>Node37&#45;&gt;Node31</title>
<path fill="none" stroke="#191970" d="M1214.4613,-456.3092C1057.0085,-451.7973 654.2442,-438.0085 522.5,-412 446.9373,-397.0826 420.2876,-401.9842 358.5,-356 333.9634,-337.7391 331.4218,-327.7224 318.5,-300 311.6266,-285.2538 307.2324,-267.3081 304.6372,-253.854"/>
<polygon fill="#191970" stroke="#191970" points="308.0444,-253.0205 302.8653,-243.7778 301.1502,-254.2329 308.0444,-253.0205"/>
</g>
<!-- Node37&#45;&gt;Node38 -->
<g id="edge70" class="edge">
<title>Node37&#45;&gt;Node38</title>
<path fill="none" stroke="#191970" d="M1316.7237,-448.4625C1350.3586,-439.9692 1400.8801,-426.9686 1452.9308,-412.3799"/>
<polygon fill="#191970" stroke="#191970" points="1453.9875,-415.7186 1462.6639,-409.6382 1452.0895,-408.9808 1453.9875,-415.7186"/>
</g>
<!-- Node38&#45;&gt;Node1 -->
<g id="edge71" class="edge">
<title>Node38&#45;&gt;Node1</title>
<path fill="none" stroke="#191970" d="M1496.7319,-392.2455C1504.3317,-384.2155 1515.2877,-372.6394 1524.3368,-363.0781"/>
<polygon fill="#191970" stroke="#191970" points="1527.0421,-365.3115 1531.3739,-355.6427 1521.958,-360.4998 1527.0421,-365.3115"/>
</g>
<!-- Node39&#45;&gt;Node1 -->
<g id="edge73" class="edge">
<title>Node39&#45;&gt;Node1</title>
<path fill="none" stroke="#191970" d="M1540.5,-448.4509C1540.5,-430.184 1540.5,-389.9553 1540.5,-365.6976"/>
<polygon fill="#191970" stroke="#191970" points="1544.0001,-365.5249 1540.5,-355.5249 1537.0001,-365.5249 1544.0001,-365.5249"/>
</g>
<!-- Node40 -->
<g id="node41" class="node">
<title>Node40</title>
<g id="a_node41"><a xlink:href="../../d1/d90/ChargePos_8h.html" target="_top" xlink:title="ChargePos.h">
<polygon fill="none" stroke="#000000" points="1569,-392.5 1569,-411.5 1646,-411.5 1646,-392.5 1569,-392.5"/>
<text text-anchor="middle" x="1607.5" y="-399.5" font-family="Helvetica,sans-Serif" font-size="10.00" fill="#000000">ChargePos.h</text>
</a>
</g>
</g>
<!-- Node39&#45;&gt;Node40 -->
<g id="edge74" class="edge">
<title>Node39&#45;&gt;Node40</title>
<path fill="none" stroke="#191970" d="M1552.1705,-448.2455C1562.0661,-439.9746 1576.4627,-427.9416 1588.0901,-418.2232"/>
<polygon fill="#191970" stroke="#191970" points="1590.535,-420.7413 1595.9632,-411.6427 1586.0458,-415.3703 1590.535,-420.7413"/>
</g>
<!-- Node40&#45;&gt;Node1 -->
<g id="edge75" class="edge">
<title>Node40&#45;&gt;Node1</title>
<path fill="none" stroke="#191970" d="M1595.8295,-392.2455C1585.9339,-383.9746 1571.5373,-371.9416 1559.9099,-362.2232"/>
<polygon fill="#191970" stroke="#191970" points="1561.9542,-359.3703 1552.0368,-355.6427 1557.465,-364.7413 1561.9542,-359.3703"/>
</g>
<!-- Node41&#45;&gt;Node1 -->
<g id="edge77" class="edge">
<title>Node41&#45;&gt;Node1</title>
<path fill="none" stroke="#191970" d="M1422.0826,-392.3733C1445.4496,-383.2226 1480.7862,-369.3844 1506.7784,-359.2057"/>
<polygon fill="#191970" stroke="#191970" points="1508.203,-362.4066 1516.2382,-355.5011 1505.6505,-355.8886 1508.203,-362.4066"/>
</g>
<!-- Node41&#45;&gt;Node23 -->
<g id="edge78" class="edge">
<title>Node41&#45;&gt;Node23</title>
<path fill="none" stroke="#191970" d="M1349.7955,-393.9685C1214.0242,-370.644 827.9313,-300.9476 713.5,-244 688.3309,-231.4744 663.9489,-209.9248 648.626,-194.8684"/>
<polygon fill="#191970" stroke="#191970" points="651.0105,-192.3025 641.4826,-187.669 646.0415,-197.2328 651.0105,-192.3025"/>
</g>
</g>
</svg>
