<?xml version="1.0" encoding="UTF-8" standalone="no"?>
<!DOCTYPE svg PUBLIC "-//W3C//DTD SVG 1.1//EN"
 "http://www.w3.org/Graphics/SVG/1.1/DTD/svg11.dtd">
<!-- Generated by graphviz version 2.40.1 (20161225.0304)
 -->
<!-- Title: /home/travis/build/AliceO2Group/AliceO2/Detectors/FIT/FT0/simulation/include/FT0Simulation/Digits2Raw.h Pages: 1 -->
<svg width="2295pt" height="374pt"
 viewBox="0.00 0.00 2294.50 374.00" xmlns="http://www.w3.org/2000/svg" xmlns:xlink="http://www.w3.org/1999/xlink">
<g id="graph0" class="graph" transform="scale(1 1) rotate(0) translate(4 370)">
<title>/home/travis/build/AliceO2Group/AliceO2/Detectors/FIT/FT0/simulation/include/FT0Simulation/Digits2Raw.h</title>
<!-- Node0 -->
<g id="node1" class="node">
<title>Node0</title>
<polygon fill="#bfbfbf" stroke="#000000" points="1597.5,-313.5 1597.5,-365.5 1791.5,-365.5 1791.5,-313.5 1597.5,-313.5"/>
<text text-anchor="start" x="1605.5" y="-353.5" font-family="Helvetica,sans-Serif" font-size="10.00" fill="#000000">/home/travis/build</text>
<text text-anchor="start" x="1605.5" y="-342.5" font-family="Helvetica,sans-Serif" font-size="10.00" fill="#000000">/AliceO2Group/AliceO2</text>
<text text-anchor="start" x="1605.5" y="-331.5" font-family="Helvetica,sans-Serif" font-size="10.00" fill="#000000">/Detectors/FIT/FT0/simulation</text>
<text text-anchor="middle" x="1694.5" y="-320.5" font-family="Helvetica,sans-Serif" font-size="10.00" fill="#000000">/include/FT0Simulation/Digits2Raw.h</text>
</g>
<!-- Node1 -->
<g id="node2" class="node">
<title>Node1</title>
<g id="a_node2"><a xlink:href="../../d4/d78/DataFormats_2Headers_2include_2Headers_2RAWDataHeader_8h.html" target="_top" xlink:title="Headers/RAWDataHeader.h">
<polygon fill="none" stroke="#000000" points="336,-196 336,-215 485,-215 485,-196 336,-196"/>
<text text-anchor="middle" x="410.5" y="-203" font-family="Helvetica,sans-Serif" font-size="10.00" fill="#000000">Headers/RAWDataHeader.h</text>
</a>
</g>
</g>
<!-- Node0&#45;&gt;Node1 -->
<g id="edge1" class="edge">
<title>Node0&#45;&gt;Node1</title>
<path fill="none" stroke="#191970" d="M1597.2539,-337.6768C1331.44,-332.232 605.7485,-314.1163 504.5,-277 473.1146,-265.4945 443.581,-239.6454 426.2694,-222.3881"/>
<polygon fill="#191970" stroke="#191970" points="428.6983,-219.8656 419.2128,-215.146 423.6848,-224.7508 428.6983,-219.8656"/>
</g>
<!-- Node3 -->
<g id="node4" class="node">
<title>Node3</title>
<g id="a_node4"><a xlink:href="../../d9/d80/InteractionRecord_8h.html" target="_top" xlink:title="CommonDataFormat/Interaction\lRecord.h">
<polygon fill="none" stroke="#000000" points="679.5,-123.5 679.5,-153.5 853.5,-153.5 853.5,-123.5 679.5,-123.5"/>
<text text-anchor="start" x="687.5" y="-141.5" font-family="Helvetica,sans-Serif" font-size="10.00" fill="#000000">CommonDataFormat/Interaction</text>
<text text-anchor="middle" x="766.5" y="-130.5" font-family="Helvetica,sans-Serif" font-size="10.00" fill="#000000">Record.h</text>
</a>
</g>
</g>
<!-- Node0&#45;&gt;Node3 -->
<g id="edge3" class="edge">
<title>Node0&#45;&gt;Node3</title>
<path fill="none" stroke="#191970" d="M1597.1717,-334.9921C1404.091,-325.5551 985.9439,-302.4732 925.5,-277 865.1134,-251.551 811.436,-193.975 784.6098,-161.6434"/>
<polygon fill="#191970" stroke="#191970" points="787.1049,-159.1646 778.0758,-153.6215 781.6775,-163.5853 787.1049,-159.1646"/>
</g>
<!-- Node8 -->
<g id="node9" class="node">
<title>Node8</title>
<g id="a_node9"><a xlink:href="../../d1/dfe/RawEventData_8h.html" target="_top" xlink:title="DataFormatsFT0/RawEventData.h">
<polygon fill="none" stroke="#000000" points="978,-257.5 978,-276.5 1159,-276.5 1159,-257.5 978,-257.5"/>
<text text-anchor="middle" x="1068.5" y="-264.5" font-family="Helvetica,sans-Serif" font-size="10.00" fill="#000000">DataFormatsFT0/RawEventData.h</text>
</a>
</g>
</g>
<!-- Node0&#45;&gt;Node8 -->
<g id="edge9" class="edge">
<title>Node0&#45;&gt;Node8</title>
<path fill="none" stroke="#191970" d="M1597.3743,-328.2514C1478.245,-314.4545 1277.7703,-291.2366 1160.8604,-277.6967"/>
<polygon fill="#191970" stroke="#191970" points="1161.1914,-274.2117 1150.8552,-276.5379 1160.3861,-281.1652 1161.1914,-274.2117"/>
</g>
<!-- Node9 -->
<g id="node10" class="node">
<title>Node9</title>
<g id="a_node10"><a xlink:href="../../d0/d0a/DataFormats_2Detectors_2FIT_2FT0_2include_2DataFormatsFT0_2Digit_8h.html" target="_top" xlink:title="DataFormatsFT0/Digit.h">
<polygon fill="none" stroke="#000000" points="1454.5,-196 1454.5,-215 1586.5,-215 1586.5,-196 1454.5,-196"/>
<text text-anchor="middle" x="1520.5" y="-203" font-family="Helvetica,sans-Serif" font-size="10.00" fill="#000000">DataFormatsFT0/Digit.h</text>
</a>
</g>
</g>
<!-- Node0&#45;&gt;Node9 -->
<g id="edge35" class="edge">
<title>Node0&#45;&gt;Node9</title>
<path fill="none" stroke="#191970" d="M1660.538,-313.3453C1625.072,-286.0325 1570.5905,-244.0755 1541.1281,-221.386"/>
<polygon fill="#191970" stroke="#191970" points="1543.2353,-218.5912 1533.1769,-215.2626 1538.9642,-224.1372 1543.2353,-218.5912"/>
</g>
<!-- Node13 -->
<g id="node14" class="node">
<title>Node13</title>
<g id="a_node14"><a xlink:href="../../dc/d44/FIT_2FT0_2include_2DataFormatsFT0_2ChannelData_8h.html" target="_top" xlink:title="DataFormatsFT0/ChannelData.h">
<polygon fill="none" stroke="#000000" points="909.5,-129 909.5,-148 1081.5,-148 1081.5,-129 909.5,-129"/>
<text text-anchor="middle" x="995.5" y="-136" font-family="Helvetica,sans-Serif" font-size="10.00" fill="#000000">DataFormatsFT0/ChannelData.h</text>
</a>
</g>
</g>
<!-- Node0&#45;&gt;Node13 -->
<g id="edge36" class="edge">
<title>Node0&#45;&gt;Node13</title>
<path fill="none" stroke="#191970" d="M1597.4787,-338.2462C1426.6993,-334.8712 1079.9227,-322.4626 968.5,-277 923.0604,-258.4598 875.3937,-232.1683 900.5,-190 911.3377,-171.7971 931.0985,-159.6325 949.8017,-151.7209"/>
<polygon fill="#191970" stroke="#191970" points="951.1053,-154.9693 959.1428,-148.0665 948.5549,-148.4505 951.1053,-154.9693"/>
</g>
<!-- Node14 -->
<g id="node15" class="node">
<title>Node14</title>
<polygon fill="none" stroke="#bfbfbf" points="1647,-129 1647,-148 1704,-148 1704,-129 1647,-129"/>
<text text-anchor="middle" x="1675.5" y="-136" font-family="Helvetica,sans-Serif" font-size="10.00" fill="#000000">gsl/span</text>
</g>
<!-- Node0&#45;&gt;Node14 -->
<g id="edge64" class="edge">
<title>Node0&#45;&gt;Node14</title>
<path fill="none" stroke="#191970" d="M1692.0161,-313.2228C1688.1676,-272.5098 1680.8483,-195.0796 1677.3943,-158.5399"/>
<polygon fill="#191970" stroke="#191970" points="1680.8436,-157.8378 1676.418,-148.2116 1673.8747,-158.4966 1680.8436,-157.8378"/>
</g>
<!-- Node15 -->
<g id="node16" class="node">
<title>Node15</title>
<polygon fill="none" stroke="#bfbfbf" points="1722.5,-129 1722.5,-148 1766.5,-148 1766.5,-129 1722.5,-129"/>
<text text-anchor="middle" x="1744.5" y="-136" font-family="Helvetica,sans-Serif" font-size="10.00" fill="#000000">bitset</text>
</g>
<!-- Node0&#45;&gt;Node15 -->
<g id="edge62" class="edge">
<title>Node0&#45;&gt;Node15</title>
<path fill="none" stroke="#191970" d="M1701.0366,-313.2228C1711.2081,-272.3336 1730.5924,-194.4085 1739.6324,-158.0677"/>
<polygon fill="#191970" stroke="#191970" points="1743.0666,-158.7608 1742.0842,-148.2116 1736.2736,-157.0709 1743.0666,-158.7608"/>
</g>
<!-- Node16 -->
<g id="node17" class="node">
<title>Node16</title>
<polygon fill="none" stroke="#bfbfbf" points="1530.5,-62 1530.5,-81 1590.5,-81 1590.5,-62 1530.5,-62"/>
<text text-anchor="middle" x="1560.5" y="-69" font-family="Helvetica,sans-Serif" font-size="10.00" fill="#000000">iostream</text>
</g>
<!-- Node0&#45;&gt;Node16 -->
<g id="edge59" class="edge">
<title>Node0&#45;&gt;Node16</title>
<path fill="none" stroke="#191970" d="M1791.8217,-316.5094C1822.7148,-306.8889 1856.1809,-293.9198 1884.5,-277 1953.9401,-235.5116 2035.113,-183.571 1981.5,-123 1956.4588,-94.7089 1700.9784,-78.6794 1600.6427,-73.4347"/>
<polygon fill="#191970" stroke="#191970" points="1600.7567,-69.936 1590.5903,-72.9183 1600.3975,-76.9268 1600.7567,-69.936"/>
</g>
<!-- Node17 -->
<g id="node18" class="node">
<title>Node17</title>
<g id="a_node18"><a xlink:href="../../df/d27/LookUpTable_8h.html" target="_top" xlink:title="DataFormatsFT0/LookUpTable.h">
<polygon fill="none" stroke="#000000" points="1742,-196 1742,-215 1913,-215 1913,-196 1742,-196"/>
<text text-anchor="middle" x="1827.5" y="-203" font-family="Helvetica,sans-Serif" font-size="10.00" fill="#000000">DataFormatsFT0/LookUpTable.h</text>
</a>
</g>
</g>
<!-- Node0&#45;&gt;Node17 -->
<g id="edge34" class="edge">
<title>Node0&#45;&gt;Node17</title>
<path fill="none" stroke="#191970" d="M1720.4595,-313.3453C1747.1031,-286.5014 1787.7869,-245.5117 1810.556,-222.5714"/>
<polygon fill="#191970" stroke="#191970" points="1813.2498,-224.8258 1817.8102,-215.2626 1808.2815,-219.8946 1813.2498,-224.8258"/>
</g>
<!-- Node18 -->
<g id="node19" class="node">
<title>Node18</title>
<polygon fill="none" stroke="#bfbfbf" points="1920.5,-129 1920.5,-148 1972.5,-148 1972.5,-129 1920.5,-129"/>
<text text-anchor="middle" x="1946.5" y="-136" font-family="Helvetica,sans-Serif" font-size="10.00" fill="#000000">cassert</text>
</g>
<!-- Node0&#45;&gt;Node18 -->
<g id="edge57" class="edge">
<title>Node0&#45;&gt;Node18</title>
<path fill="none" stroke="#191970" d="M1781.0485,-313.4619C1829.0497,-294.8781 1886.2016,-265.2237 1922.5,-221 1937.3123,-202.9536 1942.9836,-176.1357 1945.1545,-158.0176"/>
<polygon fill="#191970" stroke="#191970" points="1948.643,-158.3031 1946.1042,-148.017 1941.6744,-157.6412 1948.643,-158.3031"/>
</g>
<!-- Node22 -->
<g id="node23" class="node">
<title>Node22</title>
<g id="a_node23"><a xlink:href="../../d1/dec/HBFUtils_8h.html" target="_top" xlink:title="DetectorsRaw/HBFUtils.h">
<polygon fill="none" stroke="#000000" points="514,-257.5 514,-276.5 653,-276.5 653,-257.5 514,-257.5"/>
<text text-anchor="middle" x="583.5" y="-264.5" font-family="Helvetica,sans-Serif" font-size="10.00" fill="#000000">DetectorsRaw/HBFUtils.h</text>
</a>
</g>
</g>
<!-- Node0&#45;&gt;Node22 -->
<g id="edge37" class="edge">
<title>Node0&#45;&gt;Node22</title>
<path fill="none" stroke="#191970" d="M1597.3652,-333.1613C1380.9182,-319.0367 862.4187,-285.2013 663.2723,-272.2057"/>
<polygon fill="#191970" stroke="#191970" points="663.3842,-268.7056 653.1775,-271.5469 662.9283,-275.6908 663.3842,-268.7056"/>
</g>
<!-- Node24 -->
<g id="node25" class="node">
<title>Node24</title>
<polygon fill="none" stroke="#bfbfbf" points="0,-62 0,-81 47,-81 47,-62 0,-62"/>
<text text-anchor="middle" x="23.5" y="-69" font-family="Helvetica,sans-Serif" font-size="10.00" fill="#000000">vector</text>
</g>
<!-- Node0&#45;&gt;Node24 -->
<g id="edge63" class="edge">
<title>Node0&#45;&gt;Node24</title>
<path fill="none" stroke="#191970" d="M1597.3185,-338.4479C1389.0591,-335.3409 884.517,-323.2544 464.5,-277 317.066,-260.7638 272.0226,-278.9824 135.5,-221 89.2723,-201.3667 72.5553,-195.6578 44.5,-154 31.7752,-135.1057 26.7606,-109.0577 24.7846,-91.3189"/>
<polygon fill="#191970" stroke="#191970" points="28.2616,-90.904 23.8897,-81.2533 21.2891,-91.524 28.2616,-90.904"/>
</g>
<!-- Node34 -->
<g id="node35" class="node">
<title>Node34</title>
<polygon fill="none" stroke="#bfbfbf" points="2008,-257.5 2008,-276.5 2091,-276.5 2091,-257.5 2008,-257.5"/>
<text text-anchor="middle" x="2049.5" y="-264.5" font-family="Helvetica,sans-Serif" font-size="10.00" fill="#000000">TStopwatch.h</text>
</g>
<!-- Node0&#45;&gt;Node34 -->
<g id="edge56" class="edge">
<title>Node0&#45;&gt;Node34</title>
<path fill="none" stroke="#191970" d="M1791.5053,-319.6891C1858.0424,-306.1005 1943.725,-288.6019 1997.6505,-277.589"/>
<polygon fill="#191970" stroke="#191970" points="1998.5701,-280.9735 2007.6675,-275.5433 1997.1694,-274.1151 1998.5701,-280.9735"/>
</g>
<!-- Node35 -->
<g id="node36" class="node">
<title>Node35</title>
<polygon fill="none" stroke="#bfbfbf" points="2109,-257.5 2109,-276.5 2164,-276.5 2164,-257.5 2109,-257.5"/>
<text text-anchor="middle" x="2136.5" y="-264.5" font-family="Helvetica,sans-Serif" font-size="10.00" fill="#000000">fstream</text>
</g>
<!-- Node0&#45;&gt;Node35 -->
<g id="edge58" class="edge">
<title>Node0&#45;&gt;Node35</title>
<path fill="none" stroke="#191970" d="M1791.8878,-327.7963C1872.0827,-317.3984 1988.836,-300.5177 2098.7414,-277.208"/>
<polygon fill="#191970" stroke="#191970" points="2099.628,-280.5976 2108.6727,-275.0799 2098.1613,-273.753 2099.628,-280.5976"/>
</g>
<!-- Node36 -->
<g id="node37" class="node">
<title>Node36</title>
<polygon fill="none" stroke="#bfbfbf" points="2182.5,-257.5 2182.5,-276.5 2224.5,-276.5 2224.5,-257.5 2182.5,-257.5"/>
<text text-anchor="middle" x="2203.5" y="-264.5" font-family="Helvetica,sans-Serif" font-size="10.00" fill="#000000">array</text>
</g>
<!-- Node0&#45;&gt;Node36 -->
<g id="edge60" class="edge">
<title>Node0&#45;&gt;Node36</title>
<path fill="none" stroke="#191970" d="M1791.8013,-332.3162C1886.987,-324.0334 2035.9488,-307.7285 2172.5271,-276.8611"/>
<polygon fill="#191970" stroke="#191970" points="2173.3725,-280.2582 2182.3384,-274.6134 2171.8093,-273.4349 2173.3725,-280.2582"/>
</g>
<!-- Node37 -->
<g id="node38" class="node">
<title>Node37</title>
<polygon fill="none" stroke="#bfbfbf" points="2242.5,-257.5 2242.5,-276.5 2286.5,-276.5 2286.5,-257.5 2242.5,-257.5"/>
<text text-anchor="middle" x="2264.5" y="-264.5" font-family="Helvetica,sans-Serif" font-size="10.00" fill="#000000">string</text>
</g>
<!-- Node0&#45;&gt;Node37 -->
<g id="edge61" class="edge">
<title>Node0&#45;&gt;Node37</title>
<path fill="none" stroke="#191970" d="M1791.8334,-333.9888C1898.2781,-326.6568 2073.7626,-310.7407 2232.3537,-276.8914"/>
<polygon fill="#191970" stroke="#191970" points="2233.2581,-280.2767 2242.292,-274.7416 2231.7781,-273.435 2233.2581,-280.2767"/>
</g>
<!-- Node2 -->
<g id="node3" class="node">
<title>Node2</title>
<polygon fill="none" stroke="#bfbfbf" points="558.5,-62 558.5,-81 608.5,-81 608.5,-62 558.5,-62"/>
<text text-anchor="middle" x="583.5" y="-69" font-family="Helvetica,sans-Serif" font-size="10.00" fill="#000000">cstdint</text>
</g>
<!-- Node1&#45;&gt;Node2 -->
<g id="edge2" class="edge">
<title>Node1&#45;&gt;Node2</title>
<path fill="none" stroke="#191970" d="M423.3621,-195.6501C436.8635,-185.3019 458.7,-168.5412 477.5,-154 507.3305,-130.9271 541.7729,-104.0825 563.0962,-87.439"/>
<polygon fill="#191970" stroke="#191970" points="565.3882,-90.09 571.1164,-81.1771 561.0803,-84.5725 565.3882,-90.09"/>
</g>
<!-- Node3&#45;&gt;Node2 -->
<g id="edge7" class="edge">
<title>Node3&#45;&gt;Node2</title>
<path fill="none" stroke="#191970" d="M725.4312,-123.4639C693.241,-111.6784 648.9404,-95.459 618.4382,-84.2916"/>
<polygon fill="#191970" stroke="#191970" points="619.2541,-80.8632 608.6604,-80.7117 616.8475,-87.4365 619.2541,-80.8632"/>
</g>
<!-- Node4 -->
<g id="node5" class="node">
<title>Node4</title>
<polygon fill="none" stroke="#bfbfbf" points="1066,-.5 1066,-19.5 1125,-19.5 1125,-.5 1066,-.5"/>
<text text-anchor="middle" x="1095.5" y="-7.5" font-family="Helvetica,sans-Serif" font-size="10.00" fill="#000000">Rtypes.h</text>
</g>
<!-- Node3&#45;&gt;Node4 -->
<g id="edge4" class="edge">
<title>Node3&#45;&gt;Node4</title>
<path fill="none" stroke="#191970" d="M853.543,-123.5215C908.503,-113.2494 973.814,-99.3056 999.5,-87 1016.1461,-79.0252 1054.0529,-46.7397 1076.9388,-26.5921"/>
<polygon fill="#191970" stroke="#191970" points="1079.4581,-29.0363 1084.6237,-19.786 1074.817,-23.796 1079.4581,-29.0363"/>
</g>
<!-- Node5 -->
<g id="node6" class="node">
<title>Node5</title>
<polygon fill="none" stroke="#bfbfbf" points="877,-62 877,-81 926,-81 926,-62 877,-62"/>
<text text-anchor="middle" x="901.5" y="-69" font-family="Helvetica,sans-Serif" font-size="10.00" fill="#000000">iosfwd</text>
</g>
<!-- Node3&#45;&gt;Node5 -->
<g id="edge5" class="edge">
<title>Node3&#45;&gt;Node5</title>
<path fill="none" stroke="#191970" d="M796.7966,-123.4639C819.652,-112.1209 850.7829,-96.6707 873.1494,-85.5703"/>
<polygon fill="#191970" stroke="#191970" points="874.7473,-88.6847 882.1488,-81.1039 871.6353,-82.4144 874.7473,-88.6847"/>
</g>
<!-- Node6 -->
<g id="node7" class="node">
<title>Node6</title>
<polygon fill="none" stroke="#bfbfbf" points="944,-62 944,-81 991,-81 991,-62 944,-62"/>
<text text-anchor="middle" x="967.5" y="-69" font-family="Helvetica,sans-Serif" font-size="10.00" fill="#000000">cmath</text>
</g>
<!-- Node3&#45;&gt;Node6 -->
<g id="edge6" class="edge">
<title>Node3&#45;&gt;Node6</title>
<path fill="none" stroke="#191970" d="M822.7926,-123.4029C855.742,-114.0334 897.9279,-101.1128 934.5,-87 935.9025,-86.4588 937.3288,-85.8846 938.7624,-85.2882"/>
<polygon fill="#191970" stroke="#191970" points="940.4186,-88.3831 948.1548,-81.1442 937.5929,-81.9787 940.4186,-88.3831"/>
</g>
<!-- Node7 -->
<g id="node8" class="node">
<title>Node7</title>
<g id="a_node8"><a xlink:href="../../d4/dc6/LHCConstants_8h.html" target="_top" xlink:title="Header to collect LHC related constants. ">
<polygon fill="none" stroke="#000000" points="668.5,-62 668.5,-81 858.5,-81 858.5,-62 668.5,-62"/>
<text text-anchor="middle" x="763.5" y="-69" font-family="Helvetica,sans-Serif" font-size="10.00" fill="#000000">CommonConstants/LHCConstants.h</text>
</a>
</g>
</g>
<!-- Node3&#45;&gt;Node7 -->
<g id="edge8" class="edge">
<title>Node3&#45;&gt;Node7</title>
<path fill="none" stroke="#191970" d="M765.8193,-123.2967C765.3927,-113.7699 764.8386,-101.3954 764.379,-91.1306"/>
<polygon fill="#191970" stroke="#191970" points="767.8717,-90.8884 763.9278,-81.055 760.8787,-91.2016 767.8717,-90.8884"/>
</g>
<!-- Node8&#45;&gt;Node1 -->
<g id="edge23" class="edge">
<title>Node8&#45;&gt;Node1</title>
<path fill="none" stroke="#191970" d="M977.7286,-262.6057C864.3209,-256.4542 664.4785,-243.4335 494.5,-221 485.7408,-219.844 476.509,-218.3865 467.499,-216.8305"/>
<polygon fill="#191970" stroke="#191970" points="467.9164,-213.3499 457.4577,-215.0428 466.6893,-220.2415 467.9164,-213.3499"/>
</g>
<!-- Node8&#45;&gt;Node3 -->
<g id="edge29" class="edge">
<title>Node8&#45;&gt;Node3</title>
<path fill="none" stroke="#191970" d="M989.3257,-257.4917C951.1145,-250.7852 905.4449,-239.5617 867.5,-221 836.7547,-205.9601 807.101,-179.9144 787.9708,-161.1056"/>
<polygon fill="#191970" stroke="#191970" points="790.2238,-158.4078 780.6877,-153.7911 785.2634,-163.3469 790.2238,-158.4078"/>
</g>
<!-- Node8&#45;&gt;Node4 -->
<g id="edge33" class="edge">
<title>Node8&#45;&gt;Node4</title>
<path fill="none" stroke="#191970" d="M1003.2903,-257.4278C961.6821,-249.8343 913.2488,-237.7087 900.5,-221 874.0795,-186.3728 873.9965,-157.5637 900.5,-123 938.0246,-74.0636 982.9731,-120.8799 1034.5,-87 1057.1043,-72.1373 1075.1164,-46.1299 1085.5485,-28.4954"/>
<polygon fill="#191970" stroke="#191970" points="1088.657,-30.109 1090.5453,-19.6838 1082.5679,-26.656 1088.657,-30.109"/>
</g>
<!-- Node8&#45;&gt;Node9 -->
<g id="edge10" class="edge">
<title>Node8&#45;&gt;Node9</title>
<path fill="none" stroke="#191970" d="M1138.6291,-257.4581C1221.4312,-246.1919 1358.6603,-227.5202 1444.101,-215.895"/>
<polygon fill="#191970" stroke="#191970" points="1444.8199,-219.3295 1454.2567,-214.5132 1443.8761,-212.3934 1444.8199,-219.3295"/>
</g>
<!-- Node8&#45;&gt;Node16 -->
<g id="edge31" class="edge">
<title>Node8&#45;&gt;Node16</title>
<path fill="none" stroke="#191970" d="M1077.2371,-257.4765C1084.9181,-248.6311 1095.8765,-234.7847 1102.5,-221 1122.0161,-180.383 1094.4754,-152.5457 1128.5,-123 1157.7961,-97.5603 1418.3776,-79.7803 1520.0883,-73.7532"/>
<polygon fill="#191970" stroke="#191970" points="1520.4939,-77.2356 1530.2725,-73.1577 1520.0852,-70.2475 1520.4939,-77.2356"/>
</g>
<!-- Node8&#45;&gt;Node17 -->
<g id="edge24" class="edge">
<title>Node8&#45;&gt;Node17</title>
<path fill="none" stroke="#191970" d="M1159.2992,-259.6427C1303.5889,-247.9513 1583.9529,-225.2341 1731.4615,-213.2818"/>
<polygon fill="#191970" stroke="#191970" points="1732.1642,-216.7364 1741.8488,-212.4401 1731.5988,-209.7593 1732.1642,-216.7364"/>
</g>
<!-- Node20 -->
<g id="node21" class="node">
<title>Node20</title>
<g id="a_node21"><a xlink:href="../../dd/da4/Logger_8h.html" target="_top" xlink:title="Framework/Logger.h">
<polygon fill="none" stroke="#000000" points="910,-196 910,-215 1025,-215 1025,-196 910,-196"/>
<text text-anchor="middle" x="967.5" y="-203" font-family="Helvetica,sans-Serif" font-size="10.00" fill="#000000">Framework/Logger.h</text>
</a>
</g>
</g>
<!-- Node8&#45;&gt;Node20 -->
<g id="edge30" class="edge">
<title>Node8&#45;&gt;Node20</title>
<path fill="none" stroke="#191970" d="M1052.7188,-257.3906C1036.4125,-247.4616 1010.746,-231.833 991.8386,-220.3201"/>
<polygon fill="#191970" stroke="#191970" points="993.5319,-217.2533 983.1704,-215.0419 989.8913,-223.2322 993.5319,-217.2533"/>
</g>
<!-- Node21 -->
<g id="node22" class="node">
<title>Node21</title>
<polygon fill="none" stroke="#bfbfbf" points="1043.5,-196 1043.5,-215 1093.5,-215 1093.5,-196 1043.5,-196"/>
<text text-anchor="middle" x="1068.5" y="-203" font-family="Helvetica,sans-Serif" font-size="10.00" fill="#000000">cstring</text>
</g>
<!-- Node8&#45;&gt;Node21 -->
<g id="edge32" class="edge">
<title>Node8&#45;&gt;Node21</title>
<path fill="none" stroke="#191970" d="M1068.5,-257.3906C1068.5,-248.8657 1068.5,-236.1392 1068.5,-225.4235"/>
<polygon fill="#191970" stroke="#191970" points="1072.0001,-225.2448 1068.5,-215.2449 1065.0001,-225.2449 1072.0001,-225.2448"/>
</g>
<!-- Node9&#45;&gt;Node3 -->
<g id="edge11" class="edge">
<title>Node9&#45;&gt;Node3</title>
<path fill="none" stroke="#191970" d="M1454.3702,-200.7116C1340.9418,-192.3406 1102.026,-174.02 900.5,-154 888.6658,-152.8244 876.2539,-151.5052 863.9591,-150.1458"/>
<polygon fill="#191970" stroke="#191970" points="864.0011,-146.6288 853.6743,-148.9967 863.2237,-153.5855 864.0011,-146.6288"/>
</g>
<!-- Node9&#45;&gt;Node4 -->
<g id="edge19" class="edge">
<title>Node9&#45;&gt;Node4</title>
<path fill="none" stroke="#191970" d="M1535.1662,-195.9601C1548.2918,-186.7077 1567.1627,-171.5249 1578.5,-154 1602.6953,-116.5997 1629.5321,-88.8979 1599.5,-56 1568.372,-21.9016 1248.603,-12.7865 1135.153,-10.6162"/>
<polygon fill="#191970" stroke="#191970" points="1135.2086,-7.1167 1125.1461,-10.4327 1135.0802,-14.1155 1135.2086,-7.1167"/>
</g>
<!-- Node10 -->
<g id="node11" class="node">
<title>Node10</title>
<g id="a_node11"><a xlink:href="../../de/d64/RangeReference_8h.html" target="_top" xlink:title="Class to refer to the 1st entry and N elements of some group in the continuous container. ">
<polygon fill="none" stroke="#000000" points="1137.5,-129 1137.5,-148 1347.5,-148 1347.5,-129 1137.5,-129"/>
<text text-anchor="middle" x="1242.5" y="-136" font-family="Helvetica,sans-Serif" font-size="10.00" fill="#000000">CommonDataFormat/RangeReference.h</text>
</a>
</g>
</g>
<!-- Node9&#45;&gt;Node10 -->
<g id="edge12" class="edge">
<title>Node9&#45;&gt;Node10</title>
<path fill="none" stroke="#191970" d="M1480.9646,-195.9717C1431.3932,-184.0246 1346.3793,-163.5357 1292.3845,-150.5225"/>
<polygon fill="#191970" stroke="#191970" points="1292.8908,-147.0444 1282.3491,-148.1039 1291.2507,-153.8496 1292.8908,-147.0444"/>
</g>
<!-- Node12 -->
<g id="node13" class="node">
<title>Node12</title>
<g id="a_node13"><a xlink:href="../../df/d5d/common_2include_2CommonDataFormat_2TimeStamp_8h.html" target="_top" xlink:title="CommonDataFormat/TimeStamp.h">
<polygon fill="none" stroke="#000000" points="1366,-129 1366,-148 1553,-148 1553,-129 1366,-129"/>
<text text-anchor="middle" x="1459.5" y="-136" font-family="Helvetica,sans-Serif" font-size="10.00" fill="#000000">CommonDataFormat/TimeStamp.h</text>
</a>
</g>
</g>
<!-- Node9&#45;&gt;Node12 -->
<g id="edge15" class="edge">
<title>Node9&#45;&gt;Node12</title>
<path fill="none" stroke="#191970" d="M1511.7602,-195.9005C1502.2478,-185.4525 1486.843,-168.5325 1475.2175,-155.7635"/>
<polygon fill="#191970" stroke="#191970" points="1477.5439,-153.1198 1468.2236,-148.0817 1472.3678,-157.8324 1477.5439,-153.1198"/>
</g>
<!-- Node9&#45;&gt;Node13 -->
<g id="edge17" class="edge">
<title>Node9&#45;&gt;Node13</title>
<path fill="none" stroke="#191970" d="M1454.2744,-197.0484C1359.3023,-184.9281 1184.411,-162.6086 1080.1601,-149.3042"/>
<polygon fill="#191970" stroke="#191970" points="1080.3487,-145.8 1069.9861,-148.0058 1079.4625,-152.7437 1080.3487,-145.8"/>
</g>
<!-- Node9&#45;&gt;Node14 -->
<g id="edge20" class="edge">
<title>Node9&#45;&gt;Node14</title>
<path fill="none" stroke="#191970" d="M1542.7077,-195.9005C1569.2957,-184.4077 1614.0002,-165.0838 1644.1114,-152.068"/>
<polygon fill="#191970" stroke="#191970" points="1645.5431,-155.2622 1653.3335,-148.0817 1642.7656,-148.8368 1645.5431,-155.2622"/>
</g>
<!-- Node9&#45;&gt;Node15 -->
<g id="edge21" class="edge">
<title>Node9&#45;&gt;Node15</title>
<path fill="none" stroke="#191970" d="M1566.5567,-195.9802C1606.1831,-187.1387 1664.5318,-172.5552 1713.5,-154 1714.8715,-153.4803 1716.2629,-152.919 1717.658,-152.3289"/>
<polygon fill="#191970" stroke="#191970" points="1719.1236,-155.5072 1726.7455,-148.148 1716.1979,-149.148 1719.1236,-155.5072"/>
</g>
<!-- Node9&#45;&gt;Node16 -->
<g id="edge22" class="edge">
<title>Node9&#45;&gt;Node16</title>
<path fill="none" stroke="#191970" d="M1531.9556,-195.826C1542.1872,-186.3703 1556.4627,-170.9554 1562.5,-154 1569.8327,-133.4065 1567.7143,-108.0546 1564.8058,-90.9318"/>
<polygon fill="#191970" stroke="#191970" points="1568.2189,-90.1473 1562.8719,-81.0007 1561.3479,-91.4854 1568.2189,-90.1473"/>
</g>
<!-- Node11 -->
<g id="node12" class="node">
<title>Node11</title>
<g id="a_node12"><a xlink:href="../../d2/d45/GPUCommonRtypes_8h.html" target="_top" xlink:title="GPUCommonRtypes.h">
<polygon fill="none" stroke="#000000" points="1180,-62 1180,-81 1305,-81 1305,-62 1180,-62"/>
<text text-anchor="middle" x="1242.5" y="-69" font-family="Helvetica,sans-Serif" font-size="10.00" fill="#000000">GPUCommonRtypes.h</text>
</a>
</g>
</g>
<!-- Node10&#45;&gt;Node11 -->
<g id="edge13" class="edge">
<title>Node10&#45;&gt;Node11</title>
<path fill="none" stroke="#191970" d="M1242.5,-128.9005C1242.5,-119.149 1242.5,-103.7597 1242.5,-91.3695"/>
<polygon fill="#191970" stroke="#191970" points="1246.0001,-91.0816 1242.5,-81.0817 1239.0001,-91.0817 1246.0001,-91.0816"/>
</g>
<!-- Node11&#45;&gt;Node4 -->
<g id="edge14" class="edge">
<title>Node11&#45;&gt;Node4</title>
<path fill="none" stroke="#191970" d="M1219.5313,-61.8906C1194.8276,-51.5554 1155.363,-35.0447 1127.5973,-23.4284"/>
<polygon fill="#191970" stroke="#191970" points="1128.8835,-20.1727 1118.3075,-19.5419 1126.1818,-26.6303 1128.8835,-20.1727"/>
</g>
<!-- Node12&#45;&gt;Node11 -->
<g id="edge16" class="edge">
<title>Node12&#45;&gt;Node11</title>
<path fill="none" stroke="#191970" d="M1428.4092,-128.9005C1390.2192,-117.1091 1325.3313,-97.0746 1283.2014,-84.0668"/>
<polygon fill="#191970" stroke="#191970" points="1284.1206,-80.6876 1273.5331,-81.0817 1282.0555,-87.3761 1284.1206,-80.6876"/>
</g>
<!-- Node13&#45;&gt;Node4 -->
<g id="edge18" class="edge">
<title>Node13&#45;&gt;Node4</title>
<path fill="none" stroke="#191970" d="M1017.1578,-128.8482C1034.2334,-120.1925 1057.4375,-105.939 1071.5,-87 1083.9795,-70.193 1090.0682,-46.7561 1092.9744,-30.1647"/>
<polygon fill="#191970" stroke="#191970" points="1096.4863,-30.3479 1094.5174,-19.9376 1089.5647,-29.3035 1096.4863,-30.3479"/>
</g>
<!-- Node17&#45;&gt;Node4 -->
<g id="edge25" class="edge">
<title>Node17&#45;&gt;Node4</title>
<path fill="none" stroke="#191970" d="M1827.2658,-195.9983C1826.3405,-179.102 1822.0287,-143.6691 1802.5,-123 1743.0169,-60.043 1704.0394,-74.8392 1619.5,-56 1527.1839,-35.4278 1241.2037,-18.0311 1135.3946,-12.1395"/>
<polygon fill="#191970" stroke="#191970" points="1135.3235,-8.6303 1125.1457,-11.5735 1134.9375,-15.6196 1135.3235,-8.6303"/>
</g>
<!-- Node17&#45;&gt;Node16 -->
<g id="edge27" class="edge">
<title>Node17&#45;&gt;Node16</title>
<path fill="none" stroke="#191970" d="M1824.2291,-195.8878C1817.7944,-178.4889 1801.7859,-141.8352 1775.5,-123 1747.7284,-103.1002 1654.6078,-85.9721 1600.4581,-77.3843"/>
<polygon fill="#191970" stroke="#191970" points="1600.9218,-73.9144 1590.5019,-75.8319 1599.8432,-80.8309 1600.9218,-73.9144"/>
</g>
<!-- Node17&#45;&gt;Node18 -->
<g id="edge26" class="edge">
<title>Node17&#45;&gt;Node18</title>
<path fill="none" stroke="#191970" d="M1844.5498,-195.9005C1864.4323,-184.7062 1897.5105,-166.0823 1920.578,-153.0947"/>
<polygon fill="#191970" stroke="#191970" points="1922.4852,-156.0376 1929.4818,-148.0817 1919.0509,-149.938 1922.4852,-156.0376"/>
</g>
<!-- Node19 -->
<g id="node20" class="node">
<title>Node19</title>
<polygon fill="none" stroke="#bfbfbf" points="1861,-129 1861,-148 1902,-148 1902,-129 1861,-129"/>
<text text-anchor="middle" x="1881.5" y="-136" font-family="Helvetica,sans-Serif" font-size="10.00" fill="#000000">tuple</text>
</g>
<!-- Node17&#45;&gt;Node19 -->
<g id="edge28" class="edge">
<title>Node17&#45;&gt;Node19</title>
<path fill="none" stroke="#191970" d="M1835.2369,-195.9005C1843.5775,-185.552 1857.0354,-168.8542 1867.2912,-156.1295"/>
<polygon fill="#191970" stroke="#191970" points="1870.2273,-158.064 1873.7775,-148.0817 1864.7771,-153.6713 1870.2273,-158.064"/>
</g>
<!-- Node22&#45;&gt;Node1 -->
<g id="edge53" class="edge">
<title>Node22&#45;&gt;Node1</title>
<path fill="none" stroke="#191970" d="M556.4688,-257.3906C527.0149,-246.92 479.7311,-230.1111 446.9973,-218.4745"/>
<polygon fill="#191970" stroke="#191970" points="447.9361,-215.0937 437.3414,-215.0419 445.5914,-221.6893 447.9361,-215.0937"/>
</g>
<!-- Node22&#45;&gt;Node3 -->
<g id="edge52" class="edge">
<title>Node22&#45;&gt;Node3</title>
<path fill="none" stroke="#191970" d="M626.0111,-257.4362C650.9326,-250.3314 682.0264,-238.7465 705.5,-221 726.191,-205.3572 743.0799,-180.8171 753.7975,-162.5628"/>
<polygon fill="#191970" stroke="#191970" points="756.9504,-164.0977 758.8271,-153.6704 750.8575,-160.6515 756.9504,-164.0977"/>
</g>
<!-- Node22&#45;&gt;Node4 -->
<g id="edge38" class="edge">
<title>Node22&#45;&gt;Node4</title>
<path fill="none" stroke="#191970" d="M621.5976,-257.4497C640.3946,-250.6063 661.3748,-239.2734 672.5,-221 691.6266,-189.584 634.8946,-83.338 659.5,-56 685.7493,-26.8356 952.5873,-14.8092 1055.4053,-11.2339"/>
<polygon fill="#191970" stroke="#191970" points="1055.8113,-14.7223 1065.6871,-10.8857 1055.5743,-7.7263 1055.8113,-14.7223"/>
</g>
<!-- Node23 -->
<g id="node24" class="node">
<title>Node23</title>
<g id="a_node24"><a xlink:href="../../db/d2c/ConfigurableParam_8h.html" target="_top" xlink:title="CommonUtils/Configurable\lParam.h">
<polygon fill="none" stroke="#000000" points="53.5,-123.5 53.5,-153.5 201.5,-153.5 201.5,-123.5 53.5,-123.5"/>
<text text-anchor="start" x="61.5" y="-141.5" font-family="Helvetica,sans-Serif" font-size="10.00" fill="#000000">CommonUtils/Configurable</text>
<text text-anchor="middle" x="127.5" y="-130.5" font-family="Helvetica,sans-Serif" font-size="10.00" fill="#000000">Param.h</text>
</a>
</g>
</g>
<!-- Node22&#45;&gt;Node23 -->
<g id="edge39" class="edge">
<title>Node22&#45;&gt;Node23</title>
<path fill="none" stroke="#191970" d="M513.8709,-263.3269C401.0342,-256.8009 188.0068,-241.8807 160.5,-221 142.6478,-207.4482 134.4299,-182.7047 130.6608,-163.8384"/>
<polygon fill="#191970" stroke="#191970" points="134.0815,-163.0761 128.954,-153.8047 127.1806,-164.2501 134.0815,-163.0761"/>
</g>
<!-- Node29 -->
<g id="node30" class="node">
<title>Node29</title>
<g id="a_node30"><a xlink:href="../../da/d6b/ConfigurableParamHelper_8h.html" target="_top" xlink:title="CommonUtils/Configurable\lParamHelper.h">
<polygon fill="none" stroke="#000000" points="169.5,-190.5 169.5,-220.5 317.5,-220.5 317.5,-190.5 169.5,-190.5"/>
<text text-anchor="start" x="177.5" y="-208.5" font-family="Helvetica,sans-Serif" font-size="10.00" fill="#000000">CommonUtils/Configurable</text>
<text text-anchor="middle" x="243.5" y="-197.5" font-family="Helvetica,sans-Serif" font-size="10.00" fill="#000000">ParamHelper.h</text>
</a>
</g>
</g>
<!-- Node22&#45;&gt;Node29 -->
<g id="edge46" class="edge">
<title>Node22&#45;&gt;Node29</title>
<path fill="none" stroke="#191970" d="M529.3298,-257.4259C479.5395,-248.5984 403.3935,-235.0291 327.8726,-221.2441"/>
<polygon fill="#191970" stroke="#191970" points="328.1729,-217.741 317.7066,-219.3864 326.9145,-224.627 328.1729,-217.741"/>
</g>
<!-- Node33 -->
<g id="node34" class="node">
<title>Node33</title>
<g id="a_node34"><a xlink:href="../../de/da4/Triggers_8h.html" target="_top" xlink:title="Definition of the 32 Central Trigger System (CTS) Trigger Types defined in https://twiki.cern.ch/twiki/pub/ALICE/NoteForFEDevelopers/CTS_CRU_FE_interface.pdf. ">
<polygon fill="none" stroke="#000000" points="503.5,-196 503.5,-215 663.5,-215 663.5,-196 503.5,-196"/>
<text text-anchor="middle" x="583.5" y="-203" font-family="Helvetica,sans-Serif" font-size="10.00" fill="#000000">CommonConstants/Triggers.h</text>
</a>
</g>
</g>
<!-- Node22&#45;&gt;Node33 -->
<g id="edge54" class="edge">
<title>Node22&#45;&gt;Node33</title>
<path fill="none" stroke="#191970" d="M583.5,-257.3906C583.5,-248.8657 583.5,-236.1392 583.5,-225.4235"/>
<polygon fill="#191970" stroke="#191970" points="587.0001,-225.2448 583.5,-215.2449 580.0001,-225.2449 587.0001,-225.2448"/>
</g>
<!-- Node23&#45;&gt;Node16 -->
<g id="edge45" class="edge">
<title>Node23&#45;&gt;Node16</title>
<path fill="none" stroke="#191970" d="M201.6287,-124.0793C204.6198,-123.6805 207.5855,-123.3178 210.5,-123 698.5349,-69.7857 824.1324,-110.4383 1314.5,-87 1386.9765,-83.5358 1471.3633,-77.8608 1520.0883,-74.4233"/>
<polygon fill="#191970" stroke="#191970" points="1520.4919,-77.9036 1530.2191,-73.7046 1519.9964,-70.9212 1520.4919,-77.9036"/>
</g>
<!-- Node23&#45;&gt;Node24 -->
<g id="edge40" class="edge">
<title>Node23&#45;&gt;Node24</title>
<path fill="none" stroke="#191970" d="M104.1604,-123.4639C87.1821,-112.526 64.2758,-97.769 47.2118,-86.7759"/>
<polygon fill="#191970" stroke="#191970" points="48.7096,-83.5774 38.4076,-81.1039 44.9186,-89.462 48.7096,-83.5774"/>
</g>
<!-- Node25 -->
<g id="node26" class="node">
<title>Node25</title>
<polygon fill="none" stroke="#bfbfbf" points="196.5,-62 196.5,-81 234.5,-81 234.5,-62 196.5,-62"/>
<text text-anchor="middle" x="215.5" y="-69" font-family="Helvetica,sans-Serif" font-size="10.00" fill="#000000">map</text>
</g>
<!-- Node23&#45;&gt;Node25 -->
<g id="edge41" class="edge">
<title>Node23&#45;&gt;Node25</title>
<path fill="none" stroke="#191970" d="M147.4686,-123.2967C161.5787,-112.5537 180.4451,-98.1895 194.7308,-87.3129"/>
<polygon fill="#191970" stroke="#191970" points="197.114,-89.8975 202.9502,-81.055 192.8736,-84.328 197.114,-89.8975"/>
</g>
<!-- Node26 -->
<g id="node27" class="node">
<title>Node26</title>
<polygon fill="none" stroke="#bfbfbf" points="253,-62 253,-81 346,-81 346,-62 253,-62"/>
<text text-anchor="middle" x="299.5" y="-69" font-family="Helvetica,sans-Serif" font-size="10.00" fill="#000000">unordered_map</text>
</g>
<!-- Node23&#45;&gt;Node26 -->
<g id="edge42" class="edge">
<title>Node23&#45;&gt;Node26</title>
<path fill="none" stroke="#191970" d="M166.1002,-123.4639C195.9581,-111.8332 236.9015,-95.8843 265.5258,-84.7342"/>
<polygon fill="#191970" stroke="#191970" points="267.0508,-87.8963 275.0984,-81.0053 264.5099,-81.3737 267.0508,-87.8963"/>
</g>
<!-- Node27 -->
<g id="node28" class="node">
<title>Node27</title>
<polygon fill="none" stroke="#bfbfbf" points="65,-56.5 65,-86.5 178,-86.5 178,-56.5 65,-56.5"/>
<text text-anchor="start" x="73" y="-74.5" font-family="Helvetica,sans-Serif" font-size="10.00" fill="#000000">boost/property_tree</text>
<text text-anchor="middle" x="121.5" y="-63.5" font-family="Helvetica,sans-Serif" font-size="10.00" fill="#000000">/ptree.hpp</text>
</g>
<!-- Node23&#45;&gt;Node27 -->
<g id="edge43" class="edge">
<title>Node23&#45;&gt;Node27</title>
<path fill="none" stroke="#191970" d="M126.1385,-123.2967C125.4327,-115.4156 124.5524,-105.5857 123.749,-96.6135"/>
<polygon fill="#191970" stroke="#191970" points="127.2342,-96.2911 122.8561,-86.6432 120.2621,-96.9155 127.2342,-96.2911"/>
</g>
<!-- Node28 -->
<g id="node29" class="node">
<title>Node28</title>
<polygon fill="none" stroke="#bfbfbf" points="364,-62 364,-81 421,-81 421,-62 364,-62"/>
<text text-anchor="middle" x="392.5" y="-69" font-family="Helvetica,sans-Serif" font-size="10.00" fill="#000000">typeinfo</text>
</g>
<!-- Node23&#45;&gt;Node28 -->
<g id="edge44" class="edge">
<title>Node23&#45;&gt;Node28</title>
<path fill="none" stroke="#191970" d="M199.6656,-123.4743C254.8055,-111.741 326.0258,-95.9704 354.5,-87 356.6534,-86.3216 358.8559,-85.5737 361.0624,-84.7838"/>
<polygon fill="#191970" stroke="#191970" points="362.5251,-87.9719 370.6214,-81.1381 360.0306,-81.4315 362.5251,-87.9719"/>
</g>
<!-- Node29&#45;&gt;Node23 -->
<g id="edge47" class="edge">
<title>Node29&#45;&gt;Node23</title>
<path fill="none" stroke="#191970" d="M217.4673,-190.4639C201.3126,-181.1332 180.3462,-169.0232 162.718,-158.8415"/>
<polygon fill="#191970" stroke="#191970" points="164.2571,-155.6885 153.8471,-153.7177 160.756,-161.7501 164.2571,-155.6885"/>
</g>
<!-- Node29&#45;&gt;Node28 -->
<g id="edge50" class="edge">
<title>Node29&#45;&gt;Node28</title>
<path fill="none" stroke="#191970" d="M314.9174,-190.4273C336.0843,-182.7398 357.57,-171.2163 372.5,-154 387.6126,-136.5732 391.7218,-109.6173 392.6332,-91.2983"/>
<polygon fill="#191970" stroke="#191970" points="396.1351,-91.2457 392.8573,-81.1707 389.1369,-91.0908 396.1351,-91.2457"/>
</g>
<!-- Node30 -->
<g id="node31" class="node">
<title>Node30</title>
<polygon fill="none" stroke="#bfbfbf" points="220,-129 220,-148 277,-148 277,-129 220,-129"/>
<text text-anchor="middle" x="248.5" y="-136" font-family="Helvetica,sans-Serif" font-size="10.00" fill="#000000">TClass.h</text>
</g>
<!-- Node29&#45;&gt;Node30 -->
<g id="edge48" class="edge">
<title>Node29&#45;&gt;Node30</title>
<path fill="none" stroke="#191970" d="M244.6346,-190.2967C245.3455,-180.7699 246.269,-168.3954 247.035,-158.1306"/>
<polygon fill="#191970" stroke="#191970" points="250.5329,-158.2877 247.7869,-148.055 243.5524,-157.7667 250.5329,-158.2877"/>
</g>
<!-- Node31 -->
<g id="node32" class="node">
<title>Node31</title>
<polygon fill="none" stroke="#bfbfbf" points="295,-129 295,-148 364,-148 364,-129 295,-129"/>
<text text-anchor="middle" x="329.5" y="-136" font-family="Helvetica,sans-Serif" font-size="10.00" fill="#000000">type_traits</text>
</g>
<!-- Node29&#45;&gt;Node31 -->
<g id="edge49" class="edge">
<title>Node29&#45;&gt;Node31</title>
<path fill="none" stroke="#191970" d="M263.0147,-190.2967C276.8042,-179.5537 295.2418,-165.1895 309.2028,-154.3129"/>
<polygon fill="#191970" stroke="#191970" points="311.4978,-156.9618 317.2354,-148.055 307.1958,-151.4398 311.4978,-156.9618"/>
</g>
<!-- Node32 -->
<g id="node33" class="node">
<title>Node32</title>
<polygon fill="none" stroke="#bfbfbf" points="420.5,-129 420.5,-148 468.5,-148 468.5,-129 420.5,-129"/>
<text text-anchor="middle" x="444.5" y="-136" font-family="Helvetica,sans-Serif" font-size="10.00" fill="#000000">TFile.h</text>
</g>
<!-- Node29&#45;&gt;Node32 -->
<g id="edge51" class="edge">
<title>Node29&#45;&gt;Node32</title>
<path fill="none" stroke="#191970" d="M294.8823,-190.4353C327.1511,-180.6867 369.5165,-167.3602 406.5,-154 408.3596,-153.3282 410.2625,-152.62 412.1775,-151.891"/>
<polygon fill="#191970" stroke="#191970" points="413.6808,-155.0609 421.7089,-148.1471 411.1215,-148.5455 413.6808,-155.0609"/>
</g>
<!-- Node33&#45;&gt;Node2 -->
<g id="edge55" class="edge">
<title>Node33&#45;&gt;Node2</title>
<path fill="none" stroke="#191970" d="M583.5,-195.8631C583.5,-174.0364 583.5,-120.4605 583.5,-91.2589"/>
<polygon fill="#191970" stroke="#191970" points="587.0001,-91.0496 583.5,-81.0496 580.0001,-91.0497 587.0001,-91.0496"/>
</g>
</g>
</svg>
