<?xml version="1.0" encoding="UTF-8" standalone="no"?>
<!DOCTYPE svg PUBLIC "-//W3C//DTD SVG 1.1//EN"
 "http://www.w3.org/Graphics/SVG/1.1/DTD/svg11.dtd">
<!-- Generated by graphviz version 2.40.1 (20161225.0304)
 -->
<!-- Title: /home/travis/build/AliceO2Group/AliceO2/Detectors/MUON/MID/Simulation/include/MIDSimulation/PreClusterLabeler.h Pages: 1 -->
<!--zoomable 307 -->
<svg id="main" version="1.1" xmlns="http://www.w3.org/2000/svg" xmlns:xlink="http://www.w3.org/1999/xlink" xml:space="preserve" onload="init(evt)">
<style type="text/css"><![CDATA[
.edge:hover path { stroke: red; }
.edge:hover polygon { stroke: red; fill: red; }
]]></style>
<script type="text/javascript"><![CDATA[
var edges = document.getElementsByTagName('g');
if (edges && edges.length) {
  for (var i=0;i<edges.length;i++) {
    if (edges[i].id.substr(0,4)=='edge') {
      edges[i].setAttribute('class','edge');
    }
  }
}
]]></script>
        <defs>
                <circle id="rim" cx="0" cy="0" r="7"/>
                <circle id="rim2" cx="0" cy="0" r="3.5"/>
                <g id="zoomPlus">
                        <use xlink:href="#rim" fill="#404040">
                                <set attributeName="fill" to="#808080" begin="zoomplus.mouseover" end="zoomplus.mouseout"/>
                        </use>
                        <path d="M-4,0h8M0,-4v8" fill="none" stroke="white" stroke-width="1.5" pointer-events="none"/>
                </g>
                <g id="zoomMin">
                        <use xlink:href="#rim" fill="#404040">
                                <set attributeName="fill" to="#808080" begin="zoomminus.mouseover" end="zoomminus.mouseout"/>
                        </use>
                        <path d="M-4,0h8" fill="none" stroke="white" stroke-width="1.5" pointer-events="none"/>
                </g>
                <g id="dirArrow">
                        <path fill="none" stroke="white" stroke-width="1.5" d="M0,-3.0v7 M-2.5,-0.5L0,-3.0L2.5,-0.5"/>
                </g>
               <g id="resetDef">
                       <use xlink:href="#rim2" fill="#404040">
                               <set attributeName="fill" to="#808080" begin="reset.mouseover" end="reset.mouseout"/>
                       </use>
               </g>
        </defs>

<script type="text/javascript">
var viewWidth = 1107;
var viewHeight = 307;
var sectionId = 'dynsection-0';
</script>
<script xlink:href="../../svgpan.js"/>
<svg id="graph" class="graph">
<g id="viewport">
<title>/home/travis/build/AliceO2Group/AliceO2/Detectors/MUON/MID/Simulation/include/MIDSimulation/PreClusterLabeler.h</title>
<!-- Node0 -->
<g id="node1" class="node">
<title>Node0</title>
<polygon fill="#bfbfbf" stroke="#000000" points="436,-246.5 436,-298.5 663,-298.5 663,-246.5 436,-246.5"/>
<text text-anchor="start" x="444" y="-286.5" font-family="Helvetica,sans-Serif" font-size="10.00" fill="#000000">/home/travis/build</text>
<text text-anchor="start" x="444" y="-275.5" font-family="Helvetica,sans-Serif" font-size="10.00" fill="#000000">/AliceO2Group/AliceO2</text>
<text text-anchor="start" x="444" y="-264.5" font-family="Helvetica,sans-Serif" font-size="10.00" fill="#000000">/Detectors/MUON/MID/Simulation</text>
<text text-anchor="middle" x="549.5" y="-253.5" font-family="Helvetica,sans-Serif" font-size="10.00" fill="#000000">/include/MIDSimulation/PreClusterLabeler.h</text>
</g>
<!-- Node1 -->
<g id="node2" class="node">
<title>Node1</title>
<polygon fill="none" stroke="#bfbfbf" points="379.5,-118 379.5,-137 427.5,-137 427.5,-118 379.5,-118"/>
<text text-anchor="middle" x="403.5" y="-125" font-family="Helvetica,sans-Serif" font-size="10.00" fill="#000000">gsl/gsl</text>
</g>
<!-- Node0&#45;&gt;Node1 -->
<g id="edge1" class="edge">
<title>Node0&#45;&gt;Node1</title>
<path fill="none" stroke="#191970" d="M523.0605,-246.2416C493.2525,-216.6377 445.6685,-169.3796 420.4584,-144.3422"/>
<polygon fill="#191970" stroke="#191970" points="422.672,-141.6079 413.1103,-137.0445 417.7393,-146.5746 422.672,-141.6079"/>
</g>
<!-- Node2 -->
<g id="node3" class="node">
<title>Node2</title>
<g id="a_node3"><a xlink:href="../../d2/df9/MUON_2MID_2include_2DataFormatsMID_2ROFRecord_8h.html" target="_top" xlink:title="Definition of the MID event record. ">
<polygon fill="none" stroke="#000000" points="88,-185 88,-204 251,-204 251,-185 88,-185"/>
<text text-anchor="middle" x="169.5" y="-192" font-family="Helvetica,sans-Serif" font-size="10.00" fill="#000000">DataFormatsMID/ROFRecord.h</text>
</a>
</g>
</g>
<!-- Node0&#45;&gt;Node2 -->
<g id="edge2" class="edge">
<title>Node0&#45;&gt;Node2</title>
<path fill="none" stroke="#191970" d="M435.7449,-249.1503C366.5809,-234.9535 281.2569,-217.4396 226.1381,-206.1257"/>
<polygon fill="#191970" stroke="#191970" points="226.708,-202.6698 216.2085,-204.0875 225.3005,-209.5268 226.708,-202.6698"/>
</g>
<!-- Node9 -->
<g id="node10" class="node">
<title>Node9</title>
<g id="a_node10"><a xlink:href="../../db/d14/MCTruthContainer_8h.html" target="_top" xlink:title="Definition of a container to keep Monte Carlo truth external to simulation objects. ">
<polygon fill="none" stroke="#000000" points="550,-179.5 550,-209.5 677,-209.5 677,-179.5 550,-179.5"/>
<text text-anchor="start" x="558" y="-197.5" font-family="Helvetica,sans-Serif" font-size="10.00" fill="#000000">SimulationDataFormat</text>
<text text-anchor="middle" x="613.5" y="-186.5" font-family="Helvetica,sans-Serif" font-size="10.00" fill="#000000">/MCTruthContainer.h</text>
</a>
</g>
</g>
<!-- Node0&#45;&gt;Node9 -->
<g id="edge9" class="edge">
<title>Node0&#45;&gt;Node9</title>
<path fill="none" stroke="#191970" d="M571.1675,-246.0928C578.8304,-236.7536 587.3789,-226.3351 594.7766,-217.3191"/>
<polygon fill="#191970" stroke="#191970" points="597.5511,-219.4554 601.1886,-209.5046 592.1396,-215.0152 597.5511,-219.4554"/>
</g>
<!-- Node17 -->
<g id="node18" class="node">
<title>Node17</title>
<g id="a_node18"><a xlink:href="../../d7/dcd/MCCompLabel_8h.html" target="_top" xlink:title="SimulationDataFormat\l/MCCompLabel.h">
<polygon fill="none" stroke="#000000" points="972,-112.5 972,-142.5 1099,-142.5 1099,-112.5 972,-112.5"/>
<text text-anchor="start" x="980" y="-130.5" font-family="Helvetica,sans-Serif" font-size="10.00" fill="#000000">SimulationDataFormat</text>
<text text-anchor="middle" x="1035.5" y="-119.5" font-family="Helvetica,sans-Serif" font-size="10.00" fill="#000000">/MCCompLabel.h</text>
</a>
</g>
</g>
<!-- Node0&#45;&gt;Node17 -->
<g id="edge20" class="edge">
<title>Node0&#45;&gt;Node17</title>
<path fill="none" stroke="#191970" d="M636.6675,-246.4932C734.4122,-217.3307 890.3402,-170.809 975.3807,-145.4368"/>
<polygon fill="#191970" stroke="#191970" points="976.5587,-148.7379 985.1406,-142.5249 974.5573,-142.0301 976.5587,-148.7379"/>
</g>
<!-- Node18 -->
<g id="node19" class="node">
<title>Node18</title>
<g id="a_node19"><a xlink:href="../../d0/d8d/MID_2Clustering_2include_2MIDClustering_2PreCluster_8h.html" target="_top" xlink:title="Pre&#45;cluster structure for MID. ">
<polygon fill="none" stroke="#000000" points="278.5,-185 278.5,-204 424.5,-204 424.5,-185 278.5,-185"/>
<text text-anchor="middle" x="351.5" y="-192" font-family="Helvetica,sans-Serif" font-size="10.00" fill="#000000">MIDClustering/PreCluster.h</text>
</a>
</g>
</g>
<!-- Node0&#45;&gt;Node18 -->
<g id="edge22" class="edge">
<title>Node0&#45;&gt;Node18</title>
<path fill="none" stroke="#191970" d="M483.2936,-246.4187C450.4523,-233.4812 412.1833,-218.4055 385.3711,-207.8432"/>
<polygon fill="#191970" stroke="#191970" points="386.6295,-204.5772 376.0426,-204.1683 384.0638,-211.09 386.6295,-204.5772"/>
</g>
<!-- Node20 -->
<g id="node21" class="node">
<title>Node20</title>
<g id="a_node21"><a xlink:href="../../de/da1/Detectors_2MUON_2MID_2Simulation_2include_2MIDSimulation_2MCLabel_8h.html" target="_top" xlink:title="Label for MID. ">
<polygon fill="none" stroke="#000000" points="932,-185 932,-204 1073,-204 1073,-185 932,-185"/>
<text text-anchor="middle" x="1002.5" y="-192" font-family="Helvetica,sans-Serif" font-size="10.00" fill="#000000">MIDSimulation/MCLabel.h</text>
</a>
</g>
</g>
<!-- Node0&#45;&gt;Node20 -->
<g id="edge25" class="edge">
<title>Node0&#45;&gt;Node20</title>
<path fill="none" stroke="#191970" d="M663.2263,-252.918C749.6569,-238.0359 865.5014,-218.0892 937.0111,-205.7762"/>
<polygon fill="#191970" stroke="#191970" points="937.9702,-209.1627 947.2312,-204.0165 936.7823,-202.2642 937.9702,-209.1627"/>
</g>
<!-- Node3 -->
<g id="node4" class="node">
<title>Node3</title>
<g id="a_node4"><a xlink:href="../../d9/d80/InteractionRecord_8h.html" target="_top" xlink:title="CommonDataFormat/Interaction\lRecord.h">
<polygon fill="none" stroke="#000000" points="73.5,-112.5 73.5,-142.5 247.5,-142.5 247.5,-112.5 73.5,-112.5"/>
<text text-anchor="start" x="81.5" y="-130.5" font-family="Helvetica,sans-Serif" font-size="10.00" fill="#000000">CommonDataFormat/Interaction</text>
<text text-anchor="middle" x="160.5" y="-119.5" font-family="Helvetica,sans-Serif" font-size="10.00" fill="#000000">Record.h</text>
</a>
</g>
</g>
<!-- Node2&#45;&gt;Node3 -->
<g id="edge3" class="edge">
<title>Node2&#45;&gt;Node3</title>
<path fill="none" stroke="#191970" d="M168.2105,-184.9005C167.0834,-176.5099 165.3956,-163.9451 163.8862,-152.7085"/>
<polygon fill="#191970" stroke="#191970" points="167.3181,-151.9668 162.5178,-142.5218 160.3804,-152.8987 167.3181,-151.9668"/>
</g>
<!-- Node4 -->
<g id="node5" class="node">
<title>Node4</title>
<polygon fill="none" stroke="#bfbfbf" points="471,-.5 471,-19.5 530,-19.5 530,-.5 471,-.5"/>
<text text-anchor="middle" x="500.5" y="-7.5" font-family="Helvetica,sans-Serif" font-size="10.00" fill="#000000">Rtypes.h</text>
</g>
<!-- Node3&#45;&gt;Node4 -->
<g id="edge4" class="edge">
<title>Node3&#45;&gt;Node4</title>
<path fill="none" stroke="#191970" d="M220.4309,-112.4864C253.6892,-103.4044 295.4889,-90.7396 331.5,-76 349.163,-68.7704 352.0048,-63.6266 369.5,-56 399.6735,-42.8467 434.9307,-30.6372 461.2629,-22.1073"/>
<polygon fill="#191970" stroke="#191970" points="462.4331,-25.4077 470.8887,-19.0239 460.2977,-18.7413 462.4331,-25.4077"/>
</g>
<!-- Node5 -->
<g id="node6" class="node">
<title>Node5</title>
<polygon fill="none" stroke="#bfbfbf" points="0,-56.5 0,-75.5 49,-75.5 49,-56.5 0,-56.5"/>
<text text-anchor="middle" x="24.5" y="-63.5" font-family="Helvetica,sans-Serif" font-size="10.00" fill="#000000">iosfwd</text>
</g>
<!-- Node3&#45;&gt;Node5 -->
<g id="edge5" class="edge">
<title>Node3&#45;&gt;Node5</title>
<path fill="none" stroke="#191970" d="M127.2307,-112.4554C105.1359,-102.464 76.354,-89.4487 54.8781,-79.7372"/>
<polygon fill="#191970" stroke="#191970" points="56.129,-76.4616 45.5752,-75.5303 53.2447,-82.8398 56.129,-76.4616"/>
</g>
<!-- Node6 -->
<g id="node7" class="node">
<title>Node6</title>
<polygon fill="none" stroke="#bfbfbf" points="67,-56.5 67,-75.5 114,-75.5 114,-56.5 67,-56.5"/>
<text text-anchor="middle" x="90.5" y="-63.5" font-family="Helvetica,sans-Serif" font-size="10.00" fill="#000000">cmath</text>
</g>
<!-- Node3&#45;&gt;Node6 -->
<g id="edge6" class="edge">
<title>Node3&#45;&gt;Node6</title>
<path fill="none" stroke="#191970" d="M143.1966,-112.2977C132.9738,-103.3163 120.0177,-91.9334 109.5104,-82.702"/>
<polygon fill="#191970" stroke="#191970" points="111.5305,-79.8178 101.7079,-75.8469 106.9103,-85.0766 111.5305,-79.8178"/>
</g>
<!-- Node7 -->
<g id="node8" class="node">
<title>Node7</title>
<polygon fill="none" stroke="#bfbfbf" points="378.5,-56.5 378.5,-75.5 428.5,-75.5 428.5,-56.5 378.5,-56.5"/>
<text text-anchor="middle" x="403.5" y="-63.5" font-family="Helvetica,sans-Serif" font-size="10.00" fill="#000000">cstdint</text>
</g>
<!-- Node3&#45;&gt;Node7 -->
<g id="edge7" class="edge">
<title>Node3&#45;&gt;Node7</title>
<path fill="none" stroke="#191970" d="M220.3216,-112.4602C260.988,-102.2209 316.002,-88.3393 364.5,-76 365.7574,-75.6801 367.0376,-75.354 368.3305,-75.0243"/>
<polygon fill="#191970" stroke="#191970" points="369.5065,-78.3363 378.3283,-72.4689 367.773,-71.5543 369.5065,-78.3363"/>
</g>
<!-- Node8 -->
<g id="node9" class="node">
<title>Node8</title>
<g id="a_node9"><a xlink:href="../../d4/dc6/LHCConstants_8h.html" target="_top" xlink:title="Header to collect LHC related constants. ">
<polygon fill="none" stroke="#000000" points="132.5,-56.5 132.5,-75.5 322.5,-75.5 322.5,-56.5 132.5,-56.5"/>
<text text-anchor="middle" x="227.5" y="-63.5" font-family="Helvetica,sans-Serif" font-size="10.00" fill="#000000">CommonConstants/LHCConstants.h</text>
</a>
</g>
</g>
<!-- Node3&#45;&gt;Node8 -->
<g id="edge8" class="edge">
<title>Node3&#45;&gt;Node8</title>
<path fill="none" stroke="#191970" d="M177.0618,-112.2977C186.8465,-103.3163 199.2474,-91.9334 209.3043,-82.702"/>
<polygon fill="#191970" stroke="#191970" points="211.7722,-85.1876 216.7725,-75.8469 207.0387,-80.0307 211.7722,-85.1876"/>
</g>
<!-- Node9&#45;&gt;Node1 -->
<g id="edge15" class="edge">
<title>Node9&#45;&gt;Node1</title>
<path fill="none" stroke="#191970" d="M558.4543,-179.4806C524.4822,-169.851 480.1555,-156.6351 441.5,-143 439.585,-142.3245 437.6255,-141.6073 435.655,-140.8661"/>
<polygon fill="#191970" stroke="#191970" points="436.4554,-137.4212 425.8673,-137.0413 433.9075,-143.941 436.4554,-137.4212"/>
</g>
<!-- Node9&#45;&gt;Node7 -->
<g id="edge12" class="edge">
<title>Node9&#45;&gt;Node7</title>
<path fill="none" stroke="#191970" d="M554.4532,-179.3979C528.572,-171.1195 498.6583,-159.1882 474.5,-143 450.4452,-126.8811 428.8442,-101.0215 415.9519,-83.7764"/>
<polygon fill="#191970" stroke="#191970" points="418.7484,-81.6709 410.037,-75.6407 413.0866,-85.7872 418.7484,-81.6709"/>
</g>
<!-- Node10 -->
<g id="node11" class="node">
<title>Node10</title>
<g id="a_node11"><a xlink:href="../../d2/d45/GPUCommonRtypes_8h.html" target="_top" xlink:title="GPUCommonRtypes.h">
<polygon fill="none" stroke="#000000" points="641,-56.5 641,-75.5 766,-75.5 766,-56.5 641,-56.5"/>
<text text-anchor="middle" x="703.5" y="-63.5" font-family="Helvetica,sans-Serif" font-size="10.00" fill="#000000">GPUCommonRtypes.h</text>
</a>
</g>
</g>
<!-- Node9&#45;&gt;Node10 -->
<g id="edge10" class="edge">
<title>Node9&#45;&gt;Node10</title>
<path fill="none" stroke="#191970" d="M643.3239,-179.3907C657.7847,-170.625 674.2092,-158.2839 684.5,-143 695.9968,-125.9251 700.5454,-102.5332 702.3402,-86.0256"/>
<polygon fill="#191970" stroke="#191970" points="705.8448,-86.1173 703.1944,-75.8593 698.8694,-85.5312 705.8448,-86.1173"/>
</g>
<!-- Node11 -->
<g id="node12" class="node">
<title>Node11</title>
<polygon fill="none" stroke="#bfbfbf" points="731.5,-118 731.5,-137 783.5,-137 783.5,-118 731.5,-118"/>
<text text-anchor="middle" x="757.5" y="-125" font-family="Helvetica,sans-Serif" font-size="10.00" fill="#000000">cassert</text>
</g>
<!-- Node9&#45;&gt;Node11 -->
<g id="edge13" class="edge">
<title>Node9&#45;&gt;Node11</title>
<path fill="none" stroke="#191970" d="M645.8164,-179.4639C670.3043,-168.0702 703.6984,-152.5327 727.5784,-141.4219"/>
<polygon fill="#191970" stroke="#191970" points="729.2686,-144.4958 736.8587,-137.1039 726.3156,-138.1492 729.2686,-144.4958"/>
</g>
<!-- Node12 -->
<g id="node13" class="node">
<title>Node12</title>
<polygon fill="none" stroke="#bfbfbf" points="802,-118 802,-137 867,-137 867,-118 802,-118"/>
<text text-anchor="middle" x="834.5" y="-125" font-family="Helvetica,sans-Serif" font-size="10.00" fill="#000000">stdexcept</text>
</g>
<!-- Node9&#45;&gt;Node12 -->
<g id="edge14" class="edge">
<title>Node9&#45;&gt;Node12</title>
<path fill="none" stroke="#191970" d="M669.8561,-179.428C705.2657,-169.6765 751.7862,-156.3496 792.5,-143 794.8911,-142.216 797.3491,-141.3824 799.8188,-140.5243"/>
<polygon fill="#191970" stroke="#191970" points="801.0441,-143.8033 809.2863,-137.1461 798.6916,-137.2104 801.0441,-143.8033"/>
</g>
<!-- Node13 -->
<g id="node14" class="node">
<title>Node13</title>
<polygon fill="none" stroke="#bfbfbf" points="885,-118 885,-137 954,-137 954,-118 885,-118"/>
<text text-anchor="middle" x="919.5" y="-125" font-family="Helvetica,sans-Serif" font-size="10.00" fill="#000000">type_traits</text>
</g>
<!-- Node9&#45;&gt;Node13 -->
<g id="edge16" class="edge">
<title>Node9&#45;&gt;Node13</title>
<path fill="none" stroke="#191970" d="M677.1012,-184.8424C730.7622,-176.0302 809.3441,-161.562 876.5,-143 879.4639,-142.1808 882.5157,-141.2544 885.5609,-140.2722"/>
<polygon fill="#191970" stroke="#191970" points="886.8117,-143.5437 895.1496,-137.0068 884.5552,-136.9173 886.8117,-143.5437"/>
</g>
<!-- Node14 -->
<g id="node15" class="node">
<title>Node14</title>
<polygon fill="none" stroke="#bfbfbf" points="483.5,-118 483.5,-137 533.5,-137 533.5,-118 483.5,-118"/>
<text text-anchor="middle" x="508.5" y="-125" font-family="Helvetica,sans-Serif" font-size="10.00" fill="#000000">cstring</text>
</g>
<!-- Node9&#45;&gt;Node14 -->
<g id="edge17" class="edge">
<title>Node9&#45;&gt;Node14</title>
<path fill="none" stroke="#191970" d="M589.936,-179.4639C572.7944,-168.526 549.6679,-153.769 532.4398,-142.7759"/>
<polygon fill="#191970" stroke="#191970" points="533.8636,-139.5326 523.5509,-137.1039 530.0982,-145.4336 533.8636,-139.5326"/>
</g>
<!-- Node15 -->
<g id="node16" class="node">
<title>Node15</title>
<polygon fill="none" stroke="#bfbfbf" points="551.5,-118 551.5,-137 609.5,-137 609.5,-118 551.5,-118"/>
<text text-anchor="middle" x="580.5" y="-125" font-family="Helvetica,sans-Serif" font-size="10.00" fill="#000000">memory</text>
</g>
<!-- Node9&#45;&gt;Node15 -->
<g id="edge18" class="edge">
<title>Node9&#45;&gt;Node15</title>
<path fill="none" stroke="#191970" d="M606.0118,-179.2967C601.1697,-169.4658 594.8341,-156.6026 589.688,-146.1545"/>
<polygon fill="#191970" stroke="#191970" points="592.7645,-144.4794 585.2062,-137.055 586.4849,-147.5724 592.7645,-144.4794"/>
</g>
<!-- Node16 -->
<g id="node17" class="node">
<title>Node16</title>
<polygon fill="none" stroke="#bfbfbf" points="628,-118 628,-137 675,-137 675,-118 628,-118"/>
<text text-anchor="middle" x="651.5" y="-125" font-family="Helvetica,sans-Serif" font-size="10.00" fill="#000000">vector</text>
</g>
<!-- Node9&#45;&gt;Node16 -->
<g id="edge19" class="edge">
<title>Node9&#45;&gt;Node16</title>
<path fill="none" stroke="#191970" d="M622.1228,-179.2967C627.756,-169.3645 635.1447,-156.3371 641.1027,-145.8321"/>
<polygon fill="#191970" stroke="#191970" points="644.1917,-147.4801 646.0808,-137.055 638.1029,-144.0266 644.1917,-147.4801"/>
</g>
<!-- Node10&#45;&gt;Node4 -->
<g id="edge11" class="edge">
<title>Node10&#45;&gt;Node4</title>
<path fill="none" stroke="#191970" d="M668.6031,-56.3733C632.8546,-46.5116 577.3712,-31.2059 540.0247,-20.9034"/>
<polygon fill="#191970" stroke="#191970" points="540.5742,-17.4243 530.0035,-18.1389 538.7127,-24.1722 540.5742,-17.4243"/>
</g>
<!-- Node17&#45;&gt;Node10 -->
<g id="edge21" class="edge">
<title>Node17&#45;&gt;Node10</title>
<path fill="none" stroke="#191970" d="M971.923,-113.6801C969.0782,-113.1037 966.2605,-112.5411 963.5,-112 898.2081,-99.2008 823.3743,-86.128 770.8073,-77.2064"/>
<polygon fill="#191970" stroke="#191970" points="771.3735,-73.7525 760.9296,-75.5343 770.2051,-80.6544 771.3735,-73.7525"/>
</g>
<!-- Node18&#45;&gt;Node7 -->
<g id="edge23" class="edge">
<title>Node18&#45;&gt;Node7</title>
<path fill="none" stroke="#191970" d="M352.4603,-184.9564C354.3148,-169.1758 359.2447,-136.9135 370.5,-112 375.0764,-101.8703 382.0497,-91.7131 388.409,-83.5297"/>
<polygon fill="#191970" stroke="#191970" points="391.3301,-85.4852 394.9261,-75.5192 385.9001,-81.0675 391.3301,-85.4852"/>
</g>
<!-- Node19 -->
<g id="node20" class="node">
<title>Node19</title>
<polygon fill="none" stroke="#bfbfbf" points="266,-118 266,-137 323,-137 323,-118 266,-118"/>
<text text-anchor="middle" x="294.5" y="-125" font-family="Helvetica,sans-Serif" font-size="10.00" fill="#000000">ostream</text>
</g>
<!-- Node18&#45;&gt;Node19 -->
<g id="edge24" class="edge">
<title>Node18&#45;&gt;Node19</title>
<path fill="none" stroke="#191970" d="M343.3333,-184.9005C334.4446,-174.4525 320.05,-157.5325 309.1869,-144.7635"/>
<polygon fill="#191970" stroke="#191970" points="311.7972,-142.4303 302.6516,-137.0817 306.4656,-146.9662 311.7972,-142.4303"/>
</g>
<!-- Node20&#45;&gt;Node17 -->
<g id="edge26" class="edge">
<title>Node20&#45;&gt;Node17</title>
<path fill="none" stroke="#191970" d="M1007.2281,-184.9005C1011.4886,-176.2503 1017.9342,-163.164 1023.5954,-151.6699"/>
<polygon fill="#191970" stroke="#191970" points="1026.8225,-153.0392 1028.1012,-142.5218 1020.5429,-149.9462 1026.8225,-153.0392"/>
</g>
</g>
</svg>
        <g id="navigator" transform="translate(0 0)" fill="#404254">
                <rect fill="#f2f5e9" fill-opacity="0.5" stroke="#606060" stroke-width=".5" x="0" y="0" width="60" height="60"/>
                <use id="zoomplus" xlink:href="#zoomPlus" x="17" y="9" onmousedown="handleZoom(evt,'in')"/>
                <use id="zoomminus" xlink:href="#zoomMin" x="42" y="9" onmousedown="handleZoom(evt,'out')"/>
                <use id="reset" xlink:href="#resetDef" x="30" y="36" onmousedown="handleReset()"/>
                <g id="arrowUp" xlink:href="#dirArrow" transform="translate(30 24)" onmousedown="handlePan(0,-1)">
                  <use xlink:href="#rim" fill="#404040">
                        <set attributeName="fill" to="#808080" begin="arrowUp.mouseover" end="arrowUp.mouseout"/>
                  </use>
                  <path fill="none" stroke="white" stroke-width="1.5" d="M0,-3.0v7 M-2.5,-0.5L0,-3.0L2.5,-0.5"/>
                </g>
                <g id="arrowRight" xlink:href="#dirArrow" transform="rotate(90) translate(36 -43)" onmousedown="handlePan(1,0)">
                  <use xlink:href="#rim" fill="#404040">
                        <set attributeName="fill" to="#808080" begin="arrowRight.mouseover" end="arrowRight.mouseout"/>
                  </use>
                  <path fill="none" stroke="white" stroke-width="1.5" d="M0,-3.0v7 M-2.5,-0.5L0,-3.0L2.5,-0.5"/>
                </g>
                <g id="arrowDown" xlink:href="#dirArrow" transform="rotate(180) translate(-30 -48)" onmousedown="handlePan(0,1)">
                  <use xlink:href="#rim" fill="#404040">
                        <set attributeName="fill" to="#808080" begin="arrowDown.mouseover" end="arrowDown.mouseout"/>
                  </use>
                  <path fill="none" stroke="white" stroke-width="1.5" d="M0,-3.0v7 M-2.5,-0.5L0,-3.0L2.5,-0.5"/>
                </g>
                <g id="arrowLeft" xlink:href="#dirArrow" transform="rotate(270) translate(-36 17)" onmousedown="handlePan(-1,0)">
                  <use xlink:href="#rim" fill="#404040">
                        <set attributeName="fill" to="#808080" begin="arrowLeft.mouseover" end="arrowLeft.mouseout"/>
                  </use>
                  <path fill="none" stroke="white" stroke-width="1.5" d="M0,-3.0v7 M-2.5,-0.5L0,-3.0L2.5,-0.5"/>
                </g>
        </g>
        <svg viewBox="0 0 15 15" width="100%" height="30px" preserveAspectRatio="xMaxYMin meet">
         <g id="arrow_out" transform="scale(0.3 0.3)">
          <a xlink:href="PreClusterLabeler_8h__incl_org.svg" target="_base">
           <rect id="button" ry="5" rx="5" y="6" x="6" height="38" width="38"
                fill="#f2f5e9" fill-opacity="0.5" stroke="#606060" stroke-width="1.0"/>
           <path id="arrow"
             d="M 11.500037,31.436501 C 11.940474,20.09759 22.043105,11.32322 32.158766,21.979434 L 37.068811,17.246167 C 37.068811,17.246167 37.088388,32 37.088388,32 L 22.160133,31.978069 C 22.160133,31.978069 26.997745,27.140456 26.997745,27.140456 C 18.528582,18.264221 13.291696,25.230495 11.500037,31.436501 z"
             style="fill:#404040;"/>
          </a>
         </g>
        </svg>
</svg>
