<?xml version="1.0" encoding="UTF-8" standalone="no"?>
<!DOCTYPE svg PUBLIC "-//W3C//DTD SVG 1.1//EN"
 "http://www.w3.org/Graphics/SVG/1.1/DTD/svg11.dtd">
<!-- Generated by graphviz version 2.40.1 (20161225.0304)
 -->
<!-- Title: /home/travis/build/AliceO2Group/AliceO2/Detectors/ITSMFT/ITS/tracking/include/ITStracking/ROframe.h Pages: 1 -->
<svg width="3062pt" height="452pt"
 viewBox="0.00 0.00 3062.00 452.00" xmlns="http://www.w3.org/2000/svg" xmlns:xlink="http://www.w3.org/1999/xlink">
<g id="graph0" class="graph" transform="scale(1 1) rotate(0) translate(4 448)">
<title>/home/travis/build/AliceO2Group/AliceO2/Detectors/ITSMFT/ITS/tracking/include/ITStracking/ROframe.h</title>
<!-- Node0 -->
<g id="node1" class="node">
<title>Node0</title>
<polygon fill="#bfbfbf" stroke="#000000" points="966,-380.5 966,-443.5 1121,-443.5 1121,-380.5 966,-380.5"/>
<text text-anchor="start" x="974" y="-431.5" font-family="Helvetica,sans-Serif" font-size="10.00" fill="#000000">/home/travis/build</text>
<text text-anchor="start" x="974" y="-420.5" font-family="Helvetica,sans-Serif" font-size="10.00" fill="#000000">/AliceO2Group/AliceO2</text>
<text text-anchor="start" x="974" y="-409.5" font-family="Helvetica,sans-Serif" font-size="10.00" fill="#000000">/Detectors/ITSMFT/ITS</text>
<text text-anchor="start" x="974" y="-398.5" font-family="Helvetica,sans-Serif" font-size="10.00" fill="#000000">/tracking/include/ITStracking</text>
<text text-anchor="middle" x="1043.5" y="-387.5" font-family="Helvetica,sans-Serif" font-size="10.00" fill="#000000">/ROframe.h</text>
</g>
<!-- Node1 -->
<g id="node2" class="node">
<title>Node1</title>
<polygon fill="none" stroke="#bfbfbf" points="729.5,-56.5 729.5,-75.5 771.5,-75.5 771.5,-56.5 729.5,-56.5"/>
<text text-anchor="middle" x="750.5" y="-63.5" font-family="Helvetica,sans-Serif" font-size="10.00" fill="#000000">array</text>
</g>
<!-- Node0&#45;&gt;Node1 -->
<g id="edge1" class="edge">
<title>Node0&#45;&gt;Node1</title>
<path fill="none" stroke="#191970" d="M1121.0075,-405.4999C1264.5981,-391.307 1557.5,-351.3445 1557.5,-261.5 1557.5,-261.5 1557.5,-261.5 1557.5,-194.5 1557.5,-114.4843 930.7589,-75.7019 781.9287,-67.6204"/>
<polygon fill="#191970" stroke="#191970" points="781.8433,-64.1109 771.6705,-67.0712 781.469,-71.1009 781.8433,-64.1109"/>
</g>
<!-- Node2 -->
<g id="node3" class="node">
<title>Node2</title>
<polygon fill="none" stroke="#bfbfbf" points="953,-118 953,-137 1000,-137 1000,-118 953,-118"/>
<text text-anchor="middle" x="976.5" y="-125" font-family="Helvetica,sans-Serif" font-size="10.00" fill="#000000">vector</text>
</g>
<!-- Node0&#45;&gt;Node2 -->
<g id="edge2" class="edge">
<title>Node0&#45;&gt;Node2</title>
<path fill="none" stroke="#191970" d="M1031.2308,-380.3948C1016.5869,-341.1186 992.6791,-271.7257 981.5,-210 977.677,-188.8913 976.614,-164.3013 976.3911,-147.4949"/>
<polygon fill="#191970" stroke="#191970" points="979.8901,-147.2267 976.3475,-137.2417 972.8902,-147.2565 979.8901,-147.2267"/>
</g>
<!-- Node3 -->
<g id="node4" class="node">
<title>Node3</title>
<polygon fill="none" stroke="#bfbfbf" points="851,-185 851,-204 896,-204 896,-185 851,-185"/>
<text text-anchor="middle" x="873.5" y="-192" font-family="Helvetica,sans-Serif" font-size="10.00" fill="#000000">utility</text>
</g>
<!-- Node0&#45;&gt;Node3 -->
<g id="edge3" class="edge">
<title>Node0&#45;&gt;Node3</title>
<path fill="none" stroke="#191970" d="M999.0686,-380.4398C985.7624,-369.766 971.7362,-357.1862 960.5,-344 924.7835,-302.0851 895.5948,-243.5081 881.9086,-213.6472"/>
<polygon fill="#191970" stroke="#191970" points="885.0237,-212.0405 877.7289,-204.3571 878.6401,-214.9127 885.0237,-212.0405"/>
</g>
<!-- Node4 -->
<g id="node5" class="node">
<title>Node4</title>
<polygon fill="none" stroke="#bfbfbf" points="990.5,-185 990.5,-204 1042.5,-204 1042.5,-185 990.5,-185"/>
<text text-anchor="middle" x="1016.5" y="-192" font-family="Helvetica,sans-Serif" font-size="10.00" fill="#000000">cassert</text>
</g>
<!-- Node0&#45;&gt;Node4 -->
<g id="edge4" class="edge">
<title>Node0&#45;&gt;Node4</title>
<path fill="none" stroke="#191970" d="M1039.574,-380.3736C1033.9275,-334.8883 1023.6773,-252.3174 1018.9764,-214.4491"/>
<polygon fill="#191970" stroke="#191970" points="1022.4123,-213.7152 1017.7069,-204.2226 1015.4656,-214.5776 1022.4123,-213.7152"/>
</g>
<!-- Node5 -->
<g id="node6" class="node">
<title>Node5</title>
<polygon fill="none" stroke="#bfbfbf" points="1060.5,-185 1060.5,-204 1108.5,-204 1108.5,-185 1060.5,-185"/>
<text text-anchor="middle" x="1084.5" y="-192" font-family="Helvetica,sans-Serif" font-size="10.00" fill="#000000">gsl/gsl</text>
</g>
<!-- Node0&#45;&gt;Node5 -->
<g id="edge5" class="edge">
<title>Node0&#45;&gt;Node5</title>
<path fill="none" stroke="#191970" d="M1049.4618,-380.3736C1058.036,-334.8883 1073.6011,-252.3174 1080.7395,-214.4491"/>
<polygon fill="#191970" stroke="#191970" points="1084.2542,-214.6979 1082.6672,-204.2226 1077.3753,-213.4011 1084.2542,-214.6979"/>
</g>
<!-- Node6 -->
<g id="node7" class="node">
<title>Node6</title>
<g id="a_node7"><a xlink:href="../../da/d7f/Detectors_2ITSMFT_2ITS_2tracking_2include_2ITStracking_2Cluster_8h.html" target="_top" xlink:title="ITStracking/Cluster.h">
<polygon fill="none" stroke="#000000" points="607,-319 607,-338 724,-338 724,-319 607,-319"/>
<text text-anchor="middle" x="665.5" y="-326" font-family="Helvetica,sans-Serif" font-size="10.00" fill="#000000">ITStracking/Cluster.h</text>
</a>
</g>
</g>
<!-- Node0&#45;&gt;Node6 -->
<g id="edge6" class="edge">
<title>Node0&#45;&gt;Node6</title>
<path fill="none" stroke="#191970" d="M965.6365,-394.8C891.7835,-378.4859 782.817,-354.4153 718.5055,-340.2089"/>
<polygon fill="#191970" stroke="#191970" points="719.0991,-336.7557 708.5795,-338.0162 717.5892,-343.5909 719.0991,-336.7557"/>
</g>
<!-- Node18 -->
<g id="node19" class="node">
<title>Node18</title>
<g id="a_node19"><a xlink:href="../../d0/d86/Detectors_2ITSMFT_2ITS_2tracking_2include_2ITStracking_2Constants_8h.html" target="_top" xlink:title="ITStracking/Constants.h">
<polygon fill="none" stroke="#000000" points="662.5,-185 662.5,-204 794.5,-204 794.5,-185 662.5,-185"/>
<text text-anchor="middle" x="728.5" y="-192" font-family="Helvetica,sans-Serif" font-size="10.00" fill="#000000">ITStracking/Constants.h</text>
</a>
</g>
</g>
<!-- Node0&#45;&gt;Node18 -->
<g id="edge41" class="edge">
<title>Node0&#45;&gt;Node18</title>
<path fill="none" stroke="#191970" d="M991.1838,-380.3915C973.0577,-369.1694 952.7214,-356.2737 934.5,-344 865.2824,-297.3758 786.0777,-238.1788 749.2931,-210.3348"/>
<polygon fill="#191970" stroke="#191970" points="751.3736,-207.52 741.291,-204.2653 747.1433,-213.0972 751.3736,-207.52"/>
</g>
<!-- Node21 -->
<g id="node22" class="node">
<title>Node21</title>
<g id="a_node22"><a xlink:href="../../d3/d6f/DataFormats_2Reconstruction_2include_2ReconstructionDataFormats_2Vertex_8h.html" target="_top" xlink:title="ReconstructionDataFormats\l/Vertex.h">
<polygon fill="none" stroke="#000000" points="2271.5,-313.5 2271.5,-343.5 2423.5,-343.5 2423.5,-313.5 2271.5,-313.5"/>
<text text-anchor="start" x="2279.5" y="-331.5" font-family="Helvetica,sans-Serif" font-size="10.00" fill="#000000">ReconstructionDataFormats</text>
<text text-anchor="middle" x="2347.5" y="-320.5" font-family="Helvetica,sans-Serif" font-size="10.00" fill="#000000">/Vertex.h</text>
</a>
</g>
</g>
<!-- Node0&#45;&gt;Node21 -->
<g id="edge42" class="edge">
<title>Node0&#45;&gt;Node21</title>
<path fill="none" stroke="#191970" d="M1121.166,-407.0268C1350.2161,-392.3598 2021.8906,-349.35 2261.4163,-334.0123"/>
<polygon fill="#191970" stroke="#191970" points="2261.7116,-337.5006 2271.4675,-333.3686 2261.2643,-330.5149 2261.7116,-337.5006"/>
</g>
<!-- Node38 -->
<g id="node39" class="node">
<title>Node38</title>
<g id="a_node39"><a xlink:href="../../d7/dcd/MCCompLabel_8h.html" target="_top" xlink:title="SimulationDataFormat\l/MCCompLabel.h">
<polygon fill="none" stroke="#000000" points="2569,-313.5 2569,-343.5 2696,-343.5 2696,-313.5 2569,-313.5"/>
<text text-anchor="start" x="2577" y="-331.5" font-family="Helvetica,sans-Serif" font-size="10.00" fill="#000000">SimulationDataFormat</text>
<text text-anchor="middle" x="2632.5" y="-320.5" font-family="Helvetica,sans-Serif" font-size="10.00" fill="#000000">/MCCompLabel.h</text>
</a>
</g>
</g>
<!-- Node0&#45;&gt;Node38 -->
<g id="edge62" class="edge">
<title>Node0&#45;&gt;Node38</title>
<path fill="none" stroke="#191970" d="M1121.0986,-408.9757C1331.9515,-400.5905 1933.1235,-375.5682 2432.5,-344 2474.1187,-341.3691 2520.5604,-337.8082 2558.2078,-334.7629"/>
<polygon fill="#191970" stroke="#191970" points="2558.8985,-338.2184 2568.5817,-333.9189 2558.3308,-331.2414 2558.8985,-338.2184"/>
</g>
<!-- Node39 -->
<g id="node40" class="node">
<title>Node39</title>
<g id="a_node40"><a xlink:href="../../db/d14/MCTruthContainer_8h.html" target="_top" xlink:title="Definition of a container to keep Monte Carlo truth external to simulation objects. ">
<polygon fill="none" stroke="#000000" points="1166,-246.5 1166,-276.5 1293,-276.5 1293,-246.5 1166,-246.5"/>
<text text-anchor="start" x="1174" y="-264.5" font-family="Helvetica,sans-Serif" font-size="10.00" fill="#000000">SimulationDataFormat</text>
<text text-anchor="middle" x="1229.5" y="-253.5" font-family="Helvetica,sans-Serif" font-size="10.00" fill="#000000">/MCTruthContainer.h</text>
</a>
</g>
</g>
<!-- Node0&#45;&gt;Node39 -->
<g id="edge64" class="edge">
<title>Node0&#45;&gt;Node39</title>
<path fill="none" stroke="#191970" d="M1082.4917,-380.4503C1118.673,-351.1745 1171.5443,-308.3943 1203.0399,-282.91"/>
<polygon fill="#191970" stroke="#191970" points="1205.3717,-285.5254 1210.9441,-276.5143 1200.9686,-280.0837 1205.3717,-285.5254"/>
</g>
<!-- Node6&#45;&gt;Node1 -->
<g id="edge7" class="edge">
<title>Node6&#45;&gt;Node1</title>
<path fill="none" stroke="#191970" d="M718.8389,-318.9625C776.0437,-305.5775 864.0943,-275.1334 904.5,-210 941.557,-150.2647 836.3476,-99.1147 781.4688,-77.2864"/>
<polygon fill="#191970" stroke="#191970" points="782.442,-73.9098 771.8531,-73.5563 779.9104,-80.436 782.442,-73.9098"/>
</g>
<!-- Node7 -->
<g id="node8" class="node">
<title>Node7</title>
<g id="a_node8"><a xlink:href="../../df/d3d/Definitions_8h.html" target="_top" xlink:title="ITStracking/Definitions.h">
<polygon fill="none" stroke="#000000" points="586.5,-118 586.5,-137 722.5,-137 722.5,-118 586.5,-118"/>
<text text-anchor="middle" x="654.5" y="-125" font-family="Helvetica,sans-Serif" font-size="10.00" fill="#000000">ITStracking/Definitions.h</text>
</a>
</g>
</g>
<!-- Node6&#45;&gt;Node7 -->
<g id="edge8" class="edge">
<title>Node6&#45;&gt;Node7</title>
<path fill="none" stroke="#191970" d="M633.5138,-318.9275C613.5632,-311.1137 589.4758,-297.8844 577.5,-277 550.3032,-229.5719 604.0985,-171.534 634.9465,-143.7875"/>
<polygon fill="#191970" stroke="#191970" points="637.3669,-146.3204 642.5924,-137.1039 632.7599,-141.0501 637.3669,-146.3204"/>
</g>
<!-- Node11 -->
<g id="node12" class="node">
<title>Node11</title>
<g id="a_node12"><a xlink:href="../../dc/d3e/MathUtils_8h.html" target="_top" xlink:title="ITStracking/MathUtils.h">
<polygon fill="none" stroke="#000000" points="379.5,-252 379.5,-271 509.5,-271 509.5,-252 379.5,-252"/>
<text text-anchor="middle" x="444.5" y="-259" font-family="Helvetica,sans-Serif" font-size="10.00" fill="#000000">ITStracking/MathUtils.h</text>
</a>
</g>
</g>
<!-- Node6&#45;&gt;Node11 -->
<g id="edge13" class="edge">
<title>Node6&#45;&gt;Node11</title>
<path fill="none" stroke="#191970" d="M633.8361,-318.9005C594.86,-307.0843 528.5792,-286.9901 485.6804,-273.9845"/>
<polygon fill="#191970" stroke="#191970" points="486.6905,-270.6335 476.1052,-271.0817 484.6596,-277.3325 486.6905,-270.6335"/>
</g>
<!-- Node20 -->
<g id="node21" class="node">
<title>Node20</title>
<g id="a_node21"><a xlink:href="../../dc/ddf/ITS_2tracking_2include_2ITStracking_2IndexTableUtils_8h.html" target="_top" xlink:title="ITStracking/IndexTableUtils.h">
<polygon fill="none" stroke="#000000" points="586.5,-252 586.5,-271 744.5,-271 744.5,-252 586.5,-252"/>
<text text-anchor="middle" x="665.5" y="-259" font-family="Helvetica,sans-Serif" font-size="10.00" fill="#000000">ITStracking/IndexTableUtils.h</text>
</a>
</g>
</g>
<!-- Node6&#45;&gt;Node20 -->
<g id="edge33" class="edge">
<title>Node6&#45;&gt;Node20</title>
<path fill="none" stroke="#191970" d="M665.5,-318.9005C665.5,-309.149 665.5,-293.7597 665.5,-281.3695"/>
<polygon fill="#191970" stroke="#191970" points="669.0001,-281.0816 665.5,-271.0817 662.0001,-281.0817 669.0001,-281.0816"/>
</g>
<!-- Node7&#45;&gt;Node1 -->
<g id="edge9" class="edge">
<title>Node7&#45;&gt;Node1</title>
<path fill="none" stroke="#191970" d="M669.5,-117.8906C684.8581,-108.0519 708.9521,-92.6167 726.8745,-81.1351"/>
<polygon fill="#191970" stroke="#191970" points="729.073,-83.8833 735.6053,-75.5419 725.297,-77.9891 729.073,-83.8833"/>
</g>
<!-- Node8 -->
<g id="node9" class="node">
<title>Node8</title>
<g id="a_node9"><a xlink:href="../../df/d21/GPUCommonDef_8h.html" target="_top" xlink:title="GPUCommonDef.h">
<polygon fill="none" stroke="#000000" points="391,-56.5 391,-75.5 498,-75.5 498,-56.5 391,-56.5"/>
<text text-anchor="middle" x="444.5" y="-63.5" font-family="Helvetica,sans-Serif" font-size="10.00" fill="#000000">GPUCommonDef.h</text>
</a>
</g>
</g>
<!-- Node7&#45;&gt;Node8 -->
<g id="edge10" class="edge">
<title>Node7&#45;&gt;Node8</title>
<path fill="none" stroke="#191970" d="M621.6875,-117.8906C585.3178,-107.2395 526.5522,-90.0296 486.7637,-78.3772"/>
<polygon fill="#191970" stroke="#191970" points="487.6627,-74.9936 477.0821,-75.5419 485.6953,-81.7114 487.6627,-74.9936"/>
</g>
<!-- Node9 -->
<g id="node10" class="node">
<title>Node9</title>
<g id="a_node10"><a xlink:href="../../d5/d93/GPUCommonDefSettings_8h.html" target="_top" xlink:title="GPUCommonDefSettings.h">
<polygon fill="none" stroke="#000000" points="293.5,-.5 293.5,-19.5 441.5,-19.5 441.5,-.5 293.5,-.5"/>
<text text-anchor="middle" x="367.5" y="-7.5" font-family="Helvetica,sans-Serif" font-size="10.00" fill="#000000">GPUCommonDefSettings.h</text>
</a>
</g>
</g>
<!-- Node8&#45;&gt;Node9 -->
<g id="edge11" class="edge">
<title>Node8&#45;&gt;Node9</title>
<path fill="none" stroke="#191970" d="M431.0876,-56.2455C419.4943,-47.814 402.5252,-35.4729 389.0322,-25.6598"/>
<polygon fill="#191970" stroke="#191970" points="390.9047,-22.6938 380.7587,-19.6427 386.7874,-28.355 390.9047,-22.6938"/>
</g>
<!-- Node10 -->
<g id="node11" class="node">
<title>Node10</title>
<g id="a_node11"><a xlink:href="../../da/d5a/GPUCommonDefAPI_8h.html" target="_top" xlink:title="GPUCommonDefAPI.h">
<polygon fill="none" stroke="#000000" points="459.5,-.5 459.5,-19.5 583.5,-19.5 583.5,-.5 459.5,-.5"/>
<text text-anchor="middle" x="521.5" y="-7.5" font-family="Helvetica,sans-Serif" font-size="10.00" fill="#000000">GPUCommonDefAPI.h</text>
</a>
</g>
</g>
<!-- Node8&#45;&gt;Node10 -->
<g id="edge12" class="edge">
<title>Node8&#45;&gt;Node10</title>
<path fill="none" stroke="#191970" d="M457.9124,-56.2455C469.5057,-47.814 486.4748,-35.4729 499.9678,-25.6598"/>
<polygon fill="#191970" stroke="#191970" points="502.2126,-28.355 508.2413,-19.6427 498.0953,-22.6938 502.2126,-28.355"/>
</g>
<!-- Node11&#45;&gt;Node1 -->
<g id="edge14" class="edge">
<title>Node11&#45;&gt;Node1</title>
<path fill="none" stroke="#191970" d="M450.2841,-251.6985C466.6244,-224.8982 515.9671,-149.8796 577.5,-112 622.0625,-84.5674 682.8461,-73.3213 719.2345,-68.8366"/>
<polygon fill="#191970" stroke="#191970" points="719.7176,-72.3043 729.2583,-67.6971 718.9269,-65.3491 719.7176,-72.3043"/>
</g>
<!-- Node11&#45;&gt;Node4 -->
<g id="edge16" class="edge">
<title>Node11&#45;&gt;Node4</title>
<path fill="none" stroke="#191970" d="M509.7703,-253.8094C531.3309,-251.2914 555.4407,-248.4997 577.5,-246 722.7817,-229.5374 759.4037,-228.0235 904.5,-210 929.7784,-206.86 958.2075,-202.9206 980.098,-199.7992"/>
<polygon fill="#191970" stroke="#191970" points="980.8746,-203.2237 990.2765,-198.3396 979.8809,-196.2946 980.8746,-203.2237"/>
</g>
<!-- Node11&#45;&gt;Node8 -->
<g id="edge32" class="edge">
<title>Node11&#45;&gt;Node8</title>
<path fill="none" stroke="#191970" d="M444.5,-251.8051C444.5,-221.3813 444.5,-127.3666 444.5,-85.9452"/>
<polygon fill="#191970" stroke="#191970" points="448.0001,-85.7534 444.5,-75.7534 441.0001,-85.7534 448.0001,-85.7534"/>
</g>
<!-- Node12 -->
<g id="node13" class="node">
<title>Node12</title>
<polygon fill="none" stroke="#bfbfbf" points="0,-56.5 0,-75.5 47,-75.5 47,-56.5 0,-56.5"/>
<text text-anchor="middle" x="23.5" y="-63.5" font-family="Helvetica,sans-Serif" font-size="10.00" fill="#000000">cmath</text>
</g>
<!-- Node11&#45;&gt;Node12 -->
<g id="edge15" class="edge">
<title>Node11&#45;&gt;Node12</title>
<path fill="none" stroke="#191970" d="M379.4459,-255.4197C319.9715,-248.5777 230.1671,-234.9944 155.5,-210 93.1114,-189.1158 57.9193,-199.0697 23.5,-143 13.0445,-125.9679 14.8007,-102.5688 18.0715,-86.0478"/>
<polygon fill="#191970" stroke="#191970" points="21.5819,-86.4056 20.4463,-75.8718 14.7651,-84.8147 21.5819,-86.4056"/>
</g>
<!-- Node13 -->
<g id="node14" class="node">
<title>Node13</title>
<polygon fill="none" stroke="#bfbfbf" points="318.5,-185 318.5,-204 378.5,-204 378.5,-185 318.5,-185"/>
<text text-anchor="middle" x="348.5" y="-192" font-family="Helvetica,sans-Serif" font-size="10.00" fill="#000000">iostream</text>
</g>
<!-- Node11&#45;&gt;Node13 -->
<g id="edge17" class="edge">
<title>Node11&#45;&gt;Node13</title>
<path fill="none" stroke="#191970" d="M430.7455,-251.9005C415.0623,-240.9549 389.2017,-222.9064 370.6642,-209.9688"/>
<polygon fill="#191970" stroke="#191970" points="372.4324,-206.9347 362.2289,-204.0817 368.4262,-212.675 372.4324,-206.9347"/>
</g>
<!-- Node14 -->
<g id="node15" class="node">
<title>Node14</title>
<g id="a_node15"><a xlink:href="../../d9/d52/Common_2MathUtils_2include_2MathUtils_2Utils_8h.html" target="_top" xlink:title="MathUtils/Utils.h">
<polygon fill="none" stroke="#000000" points="164.5,-185 164.5,-204 262.5,-204 262.5,-185 164.5,-185"/>
<text text-anchor="middle" x="213.5" y="-192" font-family="Helvetica,sans-Serif" font-size="10.00" fill="#000000">MathUtils/Utils.h</text>
</a>
</g>
</g>
<!-- Node11&#45;&gt;Node14 -->
<g id="edge18" class="edge">
<title>Node11&#45;&gt;Node14</title>
<path fill="none" stroke="#191970" d="M411.4033,-251.9005C370.5779,-240.0594 301.0918,-219.9054 256.2609,-206.9025"/>
<polygon fill="#191970" stroke="#191970" points="257.1145,-203.5059 246.5353,-204.0817 255.1645,-210.2288 257.1145,-203.5059"/>
</g>
<!-- Node15 -->
<g id="node16" class="node">
<title>Node15</title>
<g id="a_node16"><a xlink:href="../../d6/da2/GPUCommonMath_8h.html" target="_top" xlink:title="GPUCommonMath.h">
<polygon fill="none" stroke="#000000" points="263,-118 263,-137 378,-137 378,-118 263,-118"/>
<text text-anchor="middle" x="320.5" y="-125" font-family="Helvetica,sans-Serif" font-size="10.00" fill="#000000">GPUCommonMath.h</text>
</a>
</g>
</g>
<!-- Node11&#45;&gt;Node15 -->
<g id="edge31" class="edge">
<title>Node11&#45;&gt;Node15</title>
<path fill="none" stroke="#191970" d="M405.9145,-251.9953C370.1501,-242.3124 320.8127,-226.4235 309.5,-210 296.5581,-191.2113 303.7646,-164.2164 311.1891,-146.2849"/>
<polygon fill="#191970" stroke="#191970" points="314.3952,-147.6892 315.3221,-137.135 308.0158,-144.8076 314.3952,-147.6892"/>
</g>
<!-- Node11&#45;&gt;Node18 -->
<g id="edge27" class="edge">
<title>Node11&#45;&gt;Node18</title>
<path fill="none" stroke="#191970" d="M484.8887,-251.9717C535.6352,-239.9998 622.74,-219.4504 677.8825,-206.4415"/>
<polygon fill="#191970" stroke="#191970" points="678.8617,-209.8066 687.7908,-204.1039 677.2544,-202.9936 678.8617,-209.8066"/>
</g>
<!-- Node14&#45;&gt;Node1 -->
<g id="edge19" class="edge">
<title>Node14&#45;&gt;Node1</title>
<path fill="none" stroke="#191970" d="M250.6572,-184.9223C311.818,-169.2287 437.5835,-137.2574 544.5,-112 606.374,-97.3832 678.9981,-81.4506 719.3822,-72.6993"/>
<polygon fill="#191970" stroke="#191970" points="720.3716,-76.0663 729.4056,-70.5313 718.8917,-69.2245 720.3716,-76.0663"/>
</g>
<!-- Node14&#45;&gt;Node8 -->
<g id="edge21" class="edge">
<title>Node14&#45;&gt;Node8</title>
<path fill="none" stroke="#191970" d="M262.5867,-188.3393C299.3365,-181.8264 349.4426,-168.7502 386.5,-143 408.0992,-127.9912 425.0373,-102.3915 434.8972,-84.8605"/>
<polygon fill="#191970" stroke="#191970" points="438.2165,-86.0776 439.8664,-75.612 432.0502,-82.7644 438.2165,-86.0776"/>
</g>
<!-- Node14&#45;&gt;Node12 -->
<g id="edge20" class="edge">
<title>Node14&#45;&gt;Node12</title>
<path fill="none" stroke="#191970" d="M164.083,-185.2655C119.7853,-176.0133 59.2691,-160.64 42.5,-143 27.9475,-127.6918 24.0131,-103.082 23.1968,-85.8144"/>
<polygon fill="#191970" stroke="#191970" points="26.6945,-85.64 23.0305,-75.699 19.6955,-85.7552 26.6945,-85.64"/>
</g>
<!-- Node14&#45;&gt;Node15 -->
<g id="edge22" class="edge">
<title>Node14&#45;&gt;Node15</title>
<path fill="none" stroke="#191970" d="M228.8305,-184.9005C246.5491,-173.8057 275.9228,-155.4128 296.6368,-142.4424"/>
<polygon fill="#191970" stroke="#191970" points="298.5799,-145.3553 305.1979,-137.0817 294.8649,-139.4224 298.5799,-145.3553"/>
</g>
<!-- Node17 -->
<g id="node18" class="node">
<title>Node17</title>
<g id="a_node18"><a xlink:href="../../d6/d84/MathConstants_8h.html" target="_top" xlink:title="useful math constants ">
<polygon fill="none" stroke="#000000" points="51.5,-118 51.5,-137 245.5,-137 245.5,-118 51.5,-118"/>
<text text-anchor="middle" x="148.5" y="-125" font-family="Helvetica,sans-Serif" font-size="10.00" fill="#000000">CommonConstants/MathConstants.h</text>
</a>
</g>
</g>
<!-- Node14&#45;&gt;Node17 -->
<g id="edge26" class="edge">
<title>Node14&#45;&gt;Node17</title>
<path fill="none" stroke="#191970" d="M204.1871,-184.9005C193.9544,-174.353 177.3228,-157.2096 164.8954,-144.3998"/>
<polygon fill="#191970" stroke="#191970" points="167.2709,-141.822 157.7956,-137.0817 162.2467,-146.6962 167.2709,-141.822"/>
</g>
<!-- Node15&#45;&gt;Node8 -->
<g id="edge23" class="edge">
<title>Node15&#45;&gt;Node8</title>
<path fill="none" stroke="#191970" d="M339.875,-117.8906C360.3495,-107.7359 392.8442,-91.6196 416.1885,-80.0416"/>
<polygon fill="#191970" stroke="#191970" points="417.8575,-83.1207 425.2611,-75.5419 414.7472,-76.8496 417.8575,-83.1207"/>
</g>
<!-- Node15&#45;&gt;Node12 -->
<g id="edge24" class="edge">
<title>Node15&#45;&gt;Node12</title>
<path fill="none" stroke="#191970" d="M280.7626,-117.9364C272.1176,-115.9205 263.0119,-113.8464 254.5,-112 184.5772,-96.832 102.3243,-80.9091 57.2611,-72.3491"/>
<polygon fill="#191970" stroke="#191970" points="57.6424,-68.8592 47.1656,-70.4365 56.3394,-75.7368 57.6424,-68.8592"/>
</g>
<!-- Node16 -->
<g id="node17" class="node">
<title>Node16</title>
<polygon fill="none" stroke="#bfbfbf" points="288.5,-56.5 288.5,-75.5 352.5,-75.5 352.5,-56.5 288.5,-56.5"/>
<text text-anchor="middle" x="320.5" y="-63.5" font-family="Helvetica,sans-Serif" font-size="10.00" fill="#000000">algorithm</text>
</g>
<!-- Node15&#45;&gt;Node16 -->
<g id="edge25" class="edge">
<title>Node15&#45;&gt;Node16</title>
<path fill="none" stroke="#191970" d="M320.5,-117.8906C320.5,-109.3657 320.5,-96.6392 320.5,-85.9235"/>
<polygon fill="#191970" stroke="#191970" points="324.0001,-85.7448 320.5,-75.7449 317.0001,-85.7449 324.0001,-85.7448"/>
</g>
<!-- Node18&#45;&gt;Node2 -->
<g id="edge29" class="edge">
<title>Node18&#45;&gt;Node2</title>
<path fill="none" stroke="#191970" d="M763.769,-184.9717C811.5096,-172.074 896.0999,-149.221 942.9413,-136.5663"/>
<polygon fill="#191970" stroke="#191970" points="944.1481,-139.8658 952.8891,-133.8787 942.3224,-133.1081 944.1481,-139.8658"/>
</g>
<!-- Node18&#45;&gt;Node7 -->
<g id="edge30" class="edge">
<title>Node18&#45;&gt;Node7</title>
<path fill="none" stroke="#191970" d="M717.8976,-184.9005C706.1381,-174.2535 686.9557,-156.8856 672.7664,-144.0385"/>
<polygon fill="#191970" stroke="#191970" points="674.8449,-141.1989 665.0827,-137.0817 670.1466,-146.388 674.8449,-141.1989"/>
</g>
<!-- Node19 -->
<g id="node20" class="node">
<title>Node19</title>
<polygon fill="none" stroke="#bfbfbf" points="778.5,-118 778.5,-137 828.5,-137 828.5,-118 778.5,-118"/>
<text text-anchor="middle" x="803.5" y="-125" font-family="Helvetica,sans-Serif" font-size="10.00" fill="#000000">climits</text>
</g>
<!-- Node18&#45;&gt;Node19 -->
<g id="edge28" class="edge">
<title>Node18&#45;&gt;Node19</title>
<path fill="none" stroke="#191970" d="M739.2457,-184.9005C751.164,-174.2535 770.6057,-156.8856 784.9868,-144.0385"/>
<polygon fill="#191970" stroke="#191970" points="787.6484,-146.354 792.7743,-137.0817 782.9849,-141.1337 787.6484,-146.354"/>
</g>
<!-- Node20&#45;&gt;Node1 -->
<g id="edge34" class="edge">
<title>Node20&#45;&gt;Node1</title>
<path fill="none" stroke="#191970" d="M660.3056,-251.9811C652.1808,-235.6692 638.8348,-201.9203 653.5,-179 674.0777,-146.8389 707.1919,-172.4431 731.5,-143 744.7478,-126.9536 748.9758,-103.0188 750.2165,-86.1011"/>
<polygon fill="#191970" stroke="#191970" points="753.7314,-85.8367 750.6724,-75.6931 746.7381,-85.5304 753.7314,-85.8367"/>
</g>
<!-- Node20&#45;&gt;Node2 -->
<g id="edge36" class="edge">
<title>Node20&#45;&gt;Node2</title>
<path fill="none" stroke="#191970" d="M700.3494,-251.9652C729.1214,-243.2929 770.4477,-228.9569 803.5,-210 822.4069,-199.1561 822.6326,-189.9125 841.5,-179 873.9905,-160.2083 914.6185,-145.7902 942.7727,-137.0527"/>
<polygon fill="#191970" stroke="#191970" points="943.987,-140.342 952.5427,-134.093 941.9575,-133.6426 943.987,-140.342"/>
</g>
<!-- Node20&#45;&gt;Node3 -->
<g id="edge35" class="edge">
<title>Node20&#45;&gt;Node3</title>
<path fill="none" stroke="#191970" d="M701.2214,-251.9129C736.0619,-242.2883 790.3929,-226.5498 836.5,-210 838.3682,-209.3294 840.279,-208.6161 842.1997,-207.8777"/>
<polygon fill="#191970" stroke="#191970" points="843.7524,-211.0263 851.7355,-204.0607 841.151,-204.5276 843.7524,-211.0263"/>
</g>
<!-- Node20&#45;&gt;Node7 -->
<g id="edge38" class="edge">
<title>Node20&#45;&gt;Node7</title>
<path fill="none" stroke="#191970" d="M652.8213,-251.6407C641.9047,-242.2782 626.9254,-227.1188 620.5,-210 615.6584,-197.1009 616.5371,-192.1955 620.5,-179 624.2278,-166.5874 632.0244,-154.4062 639.2121,-145.0093"/>
<polygon fill="#191970" stroke="#191970" points="641.9341,-147.2095 645.5077,-137.2355 636.4942,-142.804 641.9341,-147.2095"/>
</g>
<!-- Node20&#45;&gt;Node8 -->
<g id="edge40" class="edge">
<title>Node20&#45;&gt;Node8</title>
<path fill="none" stroke="#191970" d="M654.5406,-251.8051C619.1113,-220.4639 507.3956,-121.6384 462.9763,-82.3444"/>
<polygon fill="#191970" stroke="#191970" points="465.074,-79.5271 455.265,-75.5229 460.4359,-84.7701 465.074,-79.5271"/>
</g>
<!-- Node20&#45;&gt;Node15 -->
<g id="edge39" class="edge">
<title>Node20&#45;&gt;Node15</title>
<path fill="none" stroke="#191970" d="M632.5696,-251.9298C600.1698,-242.258 549.4549,-226.4315 506.5,-210 450.1035,-188.4266 386.0965,-158.8823 349.7845,-141.6291"/>
<polygon fill="#191970" stroke="#191970" points="350.8388,-138.2541 340.3064,-137.1056 347.8237,-144.5715 350.8388,-138.2541"/>
</g>
<!-- Node20&#45;&gt;Node18 -->
<g id="edge37" class="edge">
<title>Node20&#45;&gt;Node18</title>
<path fill="none" stroke="#191970" d="M674.5264,-251.9005C684.4442,-241.353 700.5641,-224.2096 712.6091,-211.3998"/>
<polygon fill="#191970" stroke="#191970" points="715.1899,-213.7645 719.4904,-204.0817 710.0903,-208.9693 715.1899,-213.7645"/>
</g>
<!-- Node21&#45;&gt;Node1 -->
<g id="edge58" class="edge">
<title>Node21&#45;&gt;Node1</title>
<path fill="none" stroke="#191970" d="M2271.3179,-325.2503C2105.0214,-316.7465 1716.2411,-288.7658 1614.5,-210 1576.8899,-180.883 1610.5769,-139.1168 1571.5,-112 1538.4964,-89.0977 928.6773,-70.9035 782.0219,-66.8469"/>
<polygon fill="#191970" stroke="#191970" points="781.9905,-63.3449 771.8982,-66.5691 781.7984,-70.3422 781.9905,-63.3449"/>
</g>
<!-- Node22 -->
<g id="node23" class="node">
<title>Node22</title>
<g id="a_node23"><a xlink:href="../../dd/d76/Cartesian3D_8h.html" target="_top" xlink:title="MathUtils/Cartesian3D.h">
<polygon fill="none" stroke="#000000" points="2280,-252 2280,-271 2415,-271 2415,-252 2280,-252"/>
<text text-anchor="middle" x="2347.5" y="-259" font-family="Helvetica,sans-Serif" font-size="10.00" fill="#000000">MathUtils/Cartesian3D.h</text>
</a>
</g>
</g>
<!-- Node21&#45;&gt;Node22 -->
<g id="edge43" class="edge">
<title>Node21&#45;&gt;Node22</title>
<path fill="none" stroke="#191970" d="M2347.5,-313.2967C2347.5,-303.7699 2347.5,-291.3954 2347.5,-281.1306"/>
<polygon fill="#191970" stroke="#191970" points="2351.0001,-281.0549 2347.5,-271.055 2344.0001,-281.055 2351.0001,-281.0549"/>
</g>
<!-- Node30 -->
<g id="node31" class="node">
<title>Node30</title>
<polygon fill="none" stroke="#bfbfbf" points="2862,-185 2862,-204 2911,-204 2911,-185 2862,-185"/>
<text text-anchor="middle" x="2886.5" y="-192" font-family="Helvetica,sans-Serif" font-size="10.00" fill="#000000">iosfwd</text>
</g>
<!-- Node21&#45;&gt;Node30 -->
<g id="edge61" class="edge">
<title>Node21&#45;&gt;Node30</title>
<path fill="none" stroke="#191970" d="M2371.4905,-313.2913C2386.8897,-303.3257 2407.1746,-289.8162 2424.5,-277 2442.0227,-264.0379 2442.3305,-254.2617 2462.5,-246 2621.5332,-180.8581 2680.3967,-250.1436 2847.5,-210 2850.2895,-209.3299 2853.1435,-208.4992 2855.9762,-207.5732"/>
<polygon fill="#191970" stroke="#191970" points="2857.1945,-210.8545 2865.4004,-204.1527 2854.8062,-204.2745 2857.1945,-210.8545"/>
</g>
<!-- Node34 -->
<g id="node35" class="node">
<title>Node34</title>
<g id="a_node35"><a xlink:href="../../df/d5d/common_2include_2CommonDataFormat_2TimeStamp_8h.html" target="_top" xlink:title="CommonDataFormat/TimeStamp.h">
<polygon fill="none" stroke="#000000" points="2471,-252 2471,-271 2658,-271 2658,-252 2471,-252"/>
<text text-anchor="middle" x="2564.5" y="-259" font-family="Helvetica,sans-Serif" font-size="10.00" fill="#000000">CommonDataFormat/TimeStamp.h</text>
</a>
</g>
</g>
<!-- Node21&#45;&gt;Node34 -->
<g id="edge55" class="edge">
<title>Node21&#45;&gt;Node34</title>
<path fill="none" stroke="#191970" d="M2396.199,-313.4639C2434.6912,-301.5792 2487.7864,-285.1858 2523.9801,-274.0108"/>
<polygon fill="#191970" stroke="#191970" points="2525.1919,-277.2997 2533.7142,-271.0053 2523.1267,-270.6113 2525.1919,-277.2997"/>
</g>
<!-- Node36 -->
<g id="node37" class="node">
<title>Node36</title>
<polygon fill="none" stroke="#bfbfbf" points="2675.5,-252 2675.5,-271 2731.5,-271 2731.5,-252 2675.5,-252"/>
<text text-anchor="middle" x="2703.5" y="-259" font-family="Helvetica,sans-Serif" font-size="10.00" fill="#000000">iomanip</text>
</g>
<!-- Node21&#45;&gt;Node36 -->
<g id="edge59" class="edge">
<title>Node21&#45;&gt;Node36</title>
<path fill="none" stroke="#191970" d="M2423.6635,-321.5929C2489.2403,-314.3852 2585.9131,-300.7319 2667.5,-277 2669.6766,-276.3669 2671.8963,-275.6361 2674.1111,-274.8437"/>
<polygon fill="#191970" stroke="#191970" points="2675.62,-278.0111 2683.6401,-271.088 2673.0532,-271.4987 2675.62,-278.0111"/>
</g>
<!-- Node37 -->
<g id="node38" class="node">
<title>Node37</title>
<polygon fill="none" stroke="#bfbfbf" points="2231,-252 2231,-271 2262,-271 2262,-252 2231,-252"/>
<text text-anchor="middle" x="2246.5" y="-259" font-family="Helvetica,sans-Serif" font-size="10.00" fill="#000000">ios</text>
</g>
<!-- Node21&#45;&gt;Node37 -->
<g id="edge60" class="edge">
<title>Node21&#45;&gt;Node37</title>
<path fill="none" stroke="#191970" d="M2324.8336,-313.4639C2308.3451,-302.526 2286.0996,-287.769 2269.5278,-276.7759"/>
<polygon fill="#191970" stroke="#191970" points="2271.2455,-273.7153 2260.9776,-271.1039 2267.3759,-279.5485 2271.2455,-273.7153"/>
</g>
<!-- Node23 -->
<g id="node24" class="node">
<title>Node23</title>
<polygon fill="none" stroke="#bfbfbf" points="2433.5,-179.5 2433.5,-209.5 2597.5,-209.5 2597.5,-179.5 2433.5,-179.5"/>
<text text-anchor="start" x="2441.5" y="-197.5" font-family="Helvetica,sans-Serif" font-size="10.00" fill="#000000">Math/GenVector/Displacement</text>
<text text-anchor="middle" x="2515.5" y="-186.5" font-family="Helvetica,sans-Serif" font-size="10.00" fill="#000000">Vector3D.h</text>
</g>
<!-- Node22&#45;&gt;Node23 -->
<g id="edge44" class="edge">
<title>Node22&#45;&gt;Node23</title>
<path fill="none" stroke="#191970" d="M2371.5703,-251.9005C2396.7307,-241.8663 2436.8591,-225.8627 2468.3603,-213.2997"/>
<polygon fill="#191970" stroke="#191970" points="2469.8415,-216.4772 2477.8335,-209.5218 2467.2484,-209.9752 2469.8415,-216.4772"/>
</g>
<!-- Node24 -->
<g id="node25" class="node">
<title>Node24</title>
<polygon fill="none" stroke="#bfbfbf" points="2616,-185 2616,-204 2805,-204 2805,-185 2616,-185"/>
<text text-anchor="middle" x="2710.5" y="-192" font-family="Helvetica,sans-Serif" font-size="10.00" fill="#000000">Math/GenVector/PositionVector3D.h</text>
</g>
<!-- Node22&#45;&gt;Node24 -->
<g id="edge45" class="edge">
<title>Node22&#45;&gt;Node24</title>
<path fill="none" stroke="#191970" d="M2397.7958,-251.9471C2408.2716,-249.9703 2419.2447,-247.909 2429.5,-246 2504.5916,-232.0219 2591.0287,-216.224 2647.9858,-205.8545"/>
<polygon fill="#191970" stroke="#191970" points="2648.7058,-209.281 2657.9174,-204.0469 2647.4523,-202.3941 2648.7058,-209.281"/>
</g>
<!-- Node25 -->
<g id="node26" class="node">
<title>Node25</title>
<polygon fill="none" stroke="#bfbfbf" points="1623.5,-185 1623.5,-204 1783.5,-204 1783.5,-185 1623.5,-185"/>
<text text-anchor="middle" x="1703.5" y="-192" font-family="Helvetica,sans-Serif" font-size="10.00" fill="#000000">Math/GenVector/Rotation3D.h</text>
</g>
<!-- Node22&#45;&gt;Node25 -->
<g id="edge46" class="edge">
<title>Node22&#45;&gt;Node25</title>
<path fill="none" stroke="#191970" d="M2305.4534,-251.9395C2294.4513,-249.7089 2282.5704,-247.5386 2271.5,-246 2060.0433,-216.6104 2004.3574,-236.3459 1792.5,-210 1783.0278,-208.8221 1773.0293,-207.3282 1763.2901,-205.7352"/>
<polygon fill="#191970" stroke="#191970" points="1763.7099,-202.2567 1753.2676,-204.0483 1762.548,-209.1596 1763.7099,-202.2567"/>
</g>
<!-- Node26 -->
<g id="node27" class="node">
<title>Node26</title>
<polygon fill="none" stroke="#bfbfbf" points="1801.5,-185 1801.5,-204 1969.5,-204 1969.5,-185 1801.5,-185"/>
<text text-anchor="middle" x="1885.5" y="-192" font-family="Helvetica,sans-Serif" font-size="10.00" fill="#000000">Math/GenVector/Transform3D.h</text>
</g>
<!-- Node22&#45;&gt;Node26 -->
<g id="edge47" class="edge">
<title>Node22&#45;&gt;Node26</title>
<path fill="none" stroke="#191970" d="M2303.8025,-251.9769C2293.2557,-249.8477 2281.999,-247.7151 2271.5,-246 2142.4502,-224.9186 2108.9248,-228.641 1979.5,-210 1970.363,-208.684 1960.7421,-207.2051 1951.2825,-205.6968"/>
<polygon fill="#191970" stroke="#191970" points="1951.5418,-202.1935 1941.1118,-204.055 1950.4262,-209.104 1951.5418,-202.1935"/>
</g>
<!-- Node27 -->
<g id="node28" class="node">
<title>Node27</title>
<polygon fill="none" stroke="#bfbfbf" points="1988,-185 1988,-204 2161,-204 2161,-185 1988,-185"/>
<text text-anchor="middle" x="2074.5" y="-192" font-family="Helvetica,sans-Serif" font-size="10.00" fill="#000000">Math/GenVector/Translation3D.h</text>
</g>
<!-- Node22&#45;&gt;Node27 -->
<g id="edge48" class="edge">
<title>Node22&#45;&gt;Node27</title>
<path fill="none" stroke="#191970" d="M2308.6757,-251.9717C2259.9959,-240.0246 2176.511,-219.5357 2123.4873,-206.5225"/>
<polygon fill="#191970" stroke="#191970" points="2124.1784,-203.0883 2113.6324,-204.1039 2122.5099,-209.8866 2124.1784,-203.0883"/>
</g>
<!-- Node28 -->
<g id="node29" class="node">
<title>Node28</title>
<polygon fill="none" stroke="#bfbfbf" points="2883,-118 2883,-137 2942,-137 2942,-118 2883,-118"/>
<text text-anchor="middle" x="2912.5" y="-125" font-family="Helvetica,sans-Serif" font-size="10.00" fill="#000000">Rtypes.h</text>
</g>
<!-- Node22&#45;&gt;Node28 -->
<g id="edge49" class="edge">
<title>Node22&#45;&gt;Node28</title>
<path fill="none" stroke="#191970" d="M2388.2703,-251.9549C2398.7307,-249.7509 2409.9955,-247.5894 2420.5,-246 2594.3616,-219.6932 2652.2287,-277.7341 2814.5,-210 2819.1499,-208.0591 2866.3404,-167.5113 2893.5025,-143.9976"/>
<polygon fill="#191970" stroke="#191970" points="2895.9556,-146.5031 2901.2198,-137.3087 2891.3708,-141.2135 2895.9556,-146.5031"/>
</g>
<!-- Node29 -->
<g id="node30" class="node">
<title>Node29</title>
<polygon fill="none" stroke="#bfbfbf" points="2179.5,-185 2179.5,-204 2261.5,-204 2261.5,-185 2179.5,-185"/>
<text text-anchor="middle" x="2220.5" y="-192" font-family="Helvetica,sans-Serif" font-size="10.00" fill="#000000">TGeoMatrix.h</text>
</g>
<!-- Node22&#45;&gt;Node29 -->
<g id="edge50" class="edge">
<title>Node22&#45;&gt;Node29</title>
<path fill="none" stroke="#191970" d="M2329.304,-251.9005C2307.8962,-240.6067 2272.1542,-221.7506 2247.5107,-208.7497"/>
<polygon fill="#191970" stroke="#191970" points="2249.1401,-205.6522 2238.6622,-204.0817 2245.8738,-211.8434 2249.1401,-205.6522"/>
</g>
<!-- Node22&#45;&gt;Node30 -->
<g id="edge51" class="edge">
<title>Node22&#45;&gt;Node30</title>
<path fill="none" stroke="#191970" d="M2393.3377,-251.9905C2405.0869,-249.7858 2417.73,-247.6151 2429.5,-246 2614.2345,-220.6511 2666.0346,-252.8917 2847.5,-210 2850.3584,-209.3244 2853.2837,-208.4772 2856.1838,-207.5292"/>
<polygon fill="#191970" stroke="#191970" points="2857.6162,-210.7325 2865.814,-204.0208 2855.22,-204.1554 2857.6162,-210.7325"/>
</g>
<!-- Node31 -->
<g id="node32" class="node">
<title>Node31</title>
<g id="a_node32"><a xlink:href="../../d2/dd0/Cartesian2D_8h.html" target="_top" xlink:title="MathUtils/Cartesian2D.h">
<polygon fill="none" stroke="#000000" points="2280,-185 2280,-204 2415,-204 2415,-185 2280,-185"/>
<text text-anchor="middle" x="2347.5" y="-192" font-family="Helvetica,sans-Serif" font-size="10.00" fill="#000000">MathUtils/Cartesian2D.h</text>
</a>
</g>
</g>
<!-- Node22&#45;&gt;Node31 -->
<g id="edge52" class="edge">
<title>Node22&#45;&gt;Node31</title>
<path fill="none" stroke="#191970" d="M2347.5,-251.9005C2347.5,-242.149 2347.5,-226.7597 2347.5,-214.3695"/>
<polygon fill="#191970" stroke="#191970" points="2351.0001,-214.0816 2347.5,-204.0817 2344.0001,-214.0817 2351.0001,-214.0816"/>
</g>
<!-- Node32 -->
<g id="node33" class="node">
<title>Node32</title>
<polygon fill="none" stroke="#bfbfbf" points="2363.5,-112.5 2363.5,-142.5 2527.5,-142.5 2527.5,-112.5 2363.5,-112.5"/>
<text text-anchor="start" x="2371.5" y="-130.5" font-family="Helvetica,sans-Serif" font-size="10.00" fill="#000000">Math/GenVector/Displacement</text>
<text text-anchor="middle" x="2445.5" y="-119.5" font-family="Helvetica,sans-Serif" font-size="10.00" fill="#000000">Vector2D.h</text>
</g>
<!-- Node31&#45;&gt;Node32 -->
<g id="edge53" class="edge">
<title>Node31&#45;&gt;Node32</title>
<path fill="none" stroke="#191970" d="M2361.541,-184.9005C2375.4588,-175.3853 2397.228,-160.5023 2415.112,-148.2755"/>
<polygon fill="#191970" stroke="#191970" points="2417.2481,-151.0549 2423.5279,-142.5218 2413.2974,-145.2763 2417.2481,-151.0549"/>
</g>
<!-- Node33 -->
<g id="node34" class="node">
<title>Node33</title>
<polygon fill="none" stroke="#bfbfbf" points="2156,-118 2156,-137 2345,-137 2345,-118 2156,-118"/>
<text text-anchor="middle" x="2250.5" y="-125" font-family="Helvetica,sans-Serif" font-size="10.00" fill="#000000">Math/GenVector/PositionVector2D.h</text>
</g>
<!-- Node31&#45;&gt;Node33 -->
<g id="edge54" class="edge">
<title>Node31&#45;&gt;Node33</title>
<path fill="none" stroke="#191970" d="M2333.6023,-184.9005C2317.6836,-173.9052 2291.3879,-155.7422 2272.6401,-142.7927"/>
<polygon fill="#191970" stroke="#191970" points="2274.5892,-139.8852 2264.372,-137.0817 2270.6108,-145.6448 2274.5892,-139.8852"/>
</g>
<!-- Node35 -->
<g id="node36" class="node">
<title>Node35</title>
<g id="a_node36"><a xlink:href="../../d2/d45/GPUCommonRtypes_8h.html" target="_top" xlink:title="GPUCommonRtypes.h">
<polygon fill="none" stroke="#000000" points="2929,-185 2929,-204 3054,-204 3054,-185 2929,-185"/>
<text text-anchor="middle" x="2991.5" y="-192" font-family="Helvetica,sans-Serif" font-size="10.00" fill="#000000">GPUCommonRtypes.h</text>
</a>
</g>
</g>
<!-- Node34&#45;&gt;Node35 -->
<g id="edge56" class="edge">
<title>Node34&#45;&gt;Node35</title>
<path fill="none" stroke="#191970" d="M2626.516,-251.9745C2639.7104,-249.9763 2653.5632,-247.8997 2666.5,-246 2779.3074,-229.4351 2808.2817,-230.173 2920.5,-210 2926.8563,-208.8574 2933.5093,-207.552 2940.0862,-206.1946"/>
<polygon fill="#191970" stroke="#191970" points="2941.2452,-209.527 2950.3052,-204.0347 2939.7976,-202.6783 2941.2452,-209.527"/>
</g>
<!-- Node35&#45;&gt;Node28 -->
<g id="edge57" class="edge">
<title>Node35&#45;&gt;Node28</title>
<path fill="none" stroke="#191970" d="M2980.1812,-184.9005C2967.5099,-174.1539 2946.7652,-156.5603 2931.5773,-143.6794"/>
<polygon fill="#191970" stroke="#191970" points="2933.6882,-140.8805 2923.7978,-137.0817 2929.1605,-146.2191 2933.6882,-140.8805"/>
</g>
<!-- Node38&#45;&gt;Node35 -->
<g id="edge63" class="edge">
<title>Node38&#45;&gt;Node35</title>
<path fill="none" stroke="#191970" d="M2672.984,-313.389C2743.7987,-286.9567 2888.9908,-232.7625 2956.0761,-207.7223"/>
<polygon fill="#191970" stroke="#191970" points="2957.6247,-210.8802 2965.7694,-204.1042 2955.1768,-204.3221 2957.6247,-210.8802"/>
</g>
<!-- Node39&#45;&gt;Node2 -->
<g id="edge73" class="edge">
<title>Node39&#45;&gt;Node2</title>
<path fill="none" stroke="#191970" d="M1206.8391,-246.3873C1192.0269,-236.3489 1172.3708,-222.723 1155.5,-210 1138.0979,-196.8764 1136.4447,-189.7778 1117.5,-179 1082.8508,-159.2878 1039.2676,-144.7454 1009.7977,-136.2326"/>
<polygon fill="#191970" stroke="#191970" points="1010.5745,-132.8153 1000.0002,-133.4743 1008.6775,-139.5533 1010.5745,-132.8153"/>
</g>
<!-- Node39&#45;&gt;Node4 -->
<g id="edge67" class="edge">
<title>Node39&#45;&gt;Node4</title>
<path fill="none" stroke="#191970" d="M1169.9265,-246.428C1135.0395,-237.067 1090.3429,-224.1465 1051.5,-210 1049.8687,-209.4059 1048.2058,-208.7716 1046.5348,-208.1115"/>
<polygon fill="#191970" stroke="#191970" points="1047.6154,-204.77 1037.0388,-204.1494 1044.9199,-211.2302 1047.6154,-204.77"/>
</g>
<!-- Node39&#45;&gt;Node5 -->
<g id="edge69" class="edge">
<title>Node39&#45;&gt;Node5</title>
<path fill="none" stroke="#191970" d="M1196.9592,-246.4639C1172.3013,-235.0702 1138.6752,-219.5327 1114.6294,-208.4219"/>
<polygon fill="#191970" stroke="#191970" points="1115.8305,-205.1213 1105.2846,-204.1039 1112.8943,-211.4757 1115.8305,-205.1213"/>
</g>
<!-- Node39&#45;&gt;Node35 -->
<g id="edge65" class="edge">
<title>Node39&#45;&gt;Node35</title>
<path fill="none" stroke="#191970" d="M1293.0566,-260.2595C1581.0897,-254.5436 2756.9841,-230.1633 2920.5,-210 2928.2479,-209.0446 2936.3982,-207.6455 2944.3037,-206.0731"/>
<polygon fill="#191970" stroke="#191970" points="2945.0701,-209.4886 2954.1378,-204.009 2943.6321,-202.6379 2945.0701,-209.4886"/>
</g>
<!-- Node40 -->
<g id="node41" class="node">
<title>Node40</title>
<polygon fill="none" stroke="#bfbfbf" points="1240.5,-185 1240.5,-204 1290.5,-204 1290.5,-185 1240.5,-185"/>
<text text-anchor="middle" x="1265.5" y="-192" font-family="Helvetica,sans-Serif" font-size="10.00" fill="#000000">cstdint</text>
</g>
<!-- Node39&#45;&gt;Node40 -->
<g id="edge66" class="edge">
<title>Node39&#45;&gt;Node40</title>
<path fill="none" stroke="#191970" d="M1237.669,-246.2967C1242.9512,-236.4658 1249.8628,-223.6026 1255.4767,-213.1545"/>
<polygon fill="#191970" stroke="#191970" points="1258.7159,-214.5205 1260.366,-204.055 1252.5496,-211.2073 1258.7159,-214.5205"/>
</g>
<!-- Node41 -->
<g id="node42" class="node">
<title>Node41</title>
<polygon fill="none" stroke="#bfbfbf" points="1309,-185 1309,-204 1374,-204 1374,-185 1309,-185"/>
<text text-anchor="middle" x="1341.5" y="-192" font-family="Helvetica,sans-Serif" font-size="10.00" fill="#000000">stdexcept</text>
</g>
<!-- Node39&#45;&gt;Node41 -->
<g id="edge68" class="edge">
<title>Node39&#45;&gt;Node41</title>
<path fill="none" stroke="#191970" d="M1254.635,-246.4639C1273.1732,-235.3741 1298.274,-220.3584 1316.7262,-209.32"/>
<polygon fill="#191970" stroke="#191970" points="1318.6608,-212.2412 1325.4457,-204.1039 1315.0672,-206.2341 1318.6608,-212.2412"/>
</g>
<!-- Node42 -->
<g id="node43" class="node">
<title>Node42</title>
<polygon fill="none" stroke="#bfbfbf" points="1392,-185 1392,-204 1461,-204 1461,-185 1392,-185"/>
<text text-anchor="middle" x="1426.5" y="-192" font-family="Helvetica,sans-Serif" font-size="10.00" fill="#000000">type_traits</text>
</g>
<!-- Node39&#45;&gt;Node42 -->
<g id="edge70" class="edge">
<title>Node39&#45;&gt;Node42</title>
<path fill="none" stroke="#191970" d="M1274.7459,-246.455C1305.2318,-236.2725 1346.3286,-222.4581 1382.5,-210 1384.9121,-209.1692 1387.3968,-208.3082 1389.8997,-207.437"/>
<polygon fill="#191970" stroke="#191970" points="1391.2451,-210.6744 1399.5284,-204.0685 1388.9336,-204.0671 1391.2451,-210.6744"/>
</g>
<!-- Node43 -->
<g id="node44" class="node">
<title>Node43</title>
<polygon fill="none" stroke="#bfbfbf" points="1479.5,-185 1479.5,-204 1529.5,-204 1529.5,-185 1479.5,-185"/>
<text text-anchor="middle" x="1504.5" y="-192" font-family="Helvetica,sans-Serif" font-size="10.00" fill="#000000">cstring</text>
</g>
<!-- Node39&#45;&gt;Node43 -->
<g id="edge71" class="edge">
<title>Node39&#45;&gt;Node43</title>
<path fill="none" stroke="#191970" d="M1293.1664,-251.7839C1342.3406,-243.3528 1411.6958,-229.4304 1470.5,-210 1472.3479,-209.3894 1474.2296,-208.7091 1476.1119,-207.9837"/>
<polygon fill="#191970" stroke="#191970" points="1477.5072,-211.1939 1485.3731,-204.0962 1474.7978,-204.7395 1477.5072,-211.1939"/>
</g>
<!-- Node44 -->
<g id="node45" class="node">
<title>Node44</title>
<polygon fill="none" stroke="#bfbfbf" points="1164.5,-185 1164.5,-204 1222.5,-204 1222.5,-185 1164.5,-185"/>
<text text-anchor="middle" x="1193.5" y="-192" font-family="Helvetica,sans-Serif" font-size="10.00" fill="#000000">memory</text>
</g>
<!-- Node39&#45;&gt;Node44 -->
<g id="edge72" class="edge">
<title>Node39&#45;&gt;Node44</title>
<path fill="none" stroke="#191970" d="M1221.331,-246.2967C1216.0488,-236.4658 1209.1372,-223.6026 1203.5233,-213.1545"/>
<polygon fill="#191970" stroke="#191970" points="1206.4504,-211.2073 1198.634,-204.055 1200.2841,-214.5205 1206.4504,-211.2073"/>
</g>
</g>
</svg>
