<?xml version="1.0" encoding="UTF-8" standalone="no"?>
<!DOCTYPE svg PUBLIC "-//W3C//DTD SVG 1.1//EN"
 "http://www.w3.org/Graphics/SVG/1.1/DTD/svg11.dtd">
<!-- Generated by graphviz version 2.40.1 (20161225.0304)
 -->
<!-- Title: /home/travis/build/AliceO2Group/AliceO2/Detectors/Raw/include/DetectorsRaw/SimpleRawReader.h Pages: 1 -->
<!--zoomable 296 -->
<svg id="main" version="1.1" xmlns="http://www.w3.org/2000/svg" xmlns:xlink="http://www.w3.org/1999/xlink" xml:space="preserve" onload="init(evt)">
<style type="text/css"><![CDATA[
.edge:hover path { stroke: red; }
.edge:hover polygon { stroke: red; fill: red; }
]]></style>
<script type="text/javascript"><![CDATA[
var edges = document.getElementsByTagName('g');
if (edges && edges.length) {
  for (var i=0;i<edges.length;i++) {
    if (edges[i].id.substr(0,4)=='edge') {
      edges[i].setAttribute('class','edge');
    }
  }
}
]]></script>
        <defs>
                <circle id="rim" cx="0" cy="0" r="7"/>
                <circle id="rim2" cx="0" cy="0" r="3.5"/>
                <g id="zoomPlus">
                        <use xlink:href="#rim" fill="#404040">
                                <set attributeName="fill" to="#808080" begin="zoomplus.mouseover" end="zoomplus.mouseout"/>
                        </use>
                        <path d="M-4,0h8M0,-4v8" fill="none" stroke="white" stroke-width="1.5" pointer-events="none"/>
                </g>
                <g id="zoomMin">
                        <use xlink:href="#rim" fill="#404040">
                                <set attributeName="fill" to="#808080" begin="zoomminus.mouseover" end="zoomminus.mouseout"/>
                        </use>
                        <path d="M-4,0h8" fill="none" stroke="white" stroke-width="1.5" pointer-events="none"/>
                </g>
                <g id="dirArrow">
                        <path fill="none" stroke="white" stroke-width="1.5" d="M0,-3.0v7 M-2.5,-0.5L0,-3.0L2.5,-0.5"/>
                </g>
               <g id="resetDef">
                       <use xlink:href="#rim2" fill="#404040">
                               <set attributeName="fill" to="#808080" begin="reset.mouseover" end="reset.mouseout"/>
                       </use>
               </g>
        </defs>

<script type="text/javascript">
var viewWidth = 1521;
var viewHeight = 296;
var sectionId = 'dynsection-0';
</script>
<script xlink:href="../../svgpan.js"/>
<svg id="graph" class="graph">
<g id="viewport">
<title>/home/travis/build/AliceO2Group/AliceO2/Detectors/Raw/include/DetectorsRaw/SimpleRawReader.h</title>
<!-- Node0 -->
<g id="node1" class="node">
<title>Node0</title>
<polygon fill="#bfbfbf" stroke="#000000" points="263,-235.5 263,-287.5 451,-287.5 451,-235.5 263,-235.5"/>
<text text-anchor="start" x="271" y="-275.5" font-family="Helvetica,sans-Serif" font-size="10.00" fill="#000000">/home/travis/build</text>
<text text-anchor="start" x="271" y="-264.5" font-family="Helvetica,sans-Serif" font-size="10.00" fill="#000000">/AliceO2Group/AliceO2</text>
<text text-anchor="start" x="271" y="-253.5" font-family="Helvetica,sans-Serif" font-size="10.00" fill="#000000">/Detectors/Raw/include</text>
<text text-anchor="middle" x="357" y="-242.5" font-family="Helvetica,sans-Serif" font-size="10.00" fill="#000000">/DetectorsRaw/SimpleRawReader.h</text>
</g>
<!-- Node1 -->
<g id="node2" class="node">
<title>Node1</title>
<g id="a_node2"><a xlink:href="../../de/da2/Raw_2include_2DetectorsRaw_2RawFileReader_8h.html" target="_top" xlink:title="DetectorsRaw/RawFileReader.h">
<polygon fill="none" stroke="#000000" points="273.5,-179.5 273.5,-198.5 440.5,-198.5 440.5,-179.5 273.5,-179.5"/>
<text text-anchor="middle" x="357" y="-186.5" font-family="Helvetica,sans-Serif" font-size="10.00" fill="#000000">DetectorsRaw/RawFileReader.h</text>
</a>
</g>
</g>
<!-- Node0&#45;&gt;Node1 -->
<g id="edge1" class="edge">
<title>Node0&#45;&gt;Node1</title>
<path fill="none" stroke="#191970" d="M357,-235.3258C357,-226.5142 357,-216.8397 357,-208.621"/>
<polygon fill="#191970" stroke="#191970" points="360.5001,-208.534 357,-198.534 353.5001,-208.534 360.5001,-208.534"/>
</g>
<!-- Node2 -->
<g id="node3" class="node">
<title>Node2</title>
<polygon fill="none" stroke="#bfbfbf" points="0,-123.5 0,-142.5 46,-142.5 46,-123.5 0,-123.5"/>
<text text-anchor="middle" x="23" y="-130.5" font-family="Helvetica,sans-Serif" font-size="10.00" fill="#000000">cstdio</text>
</g>
<!-- Node1&#45;&gt;Node2 -->
<g id="edge2" class="edge">
<title>Node1&#45;&gt;Node2</title>
<path fill="none" stroke="#191970" d="M273.3583,-179.7217C214.8757,-172.4314 134.873,-160.8587 56.3692,-143.0514"/>
<polygon fill="#191970" stroke="#191970" points="56.8371,-139.5675 46.3064,-140.7322 55.2649,-146.3887 56.8371,-139.5675"/>
</g>
<!-- Node3 -->
<g id="node4" class="node">
<title>Node3</title>
<polygon fill="none" stroke="#bfbfbf" points="64.5,-123.5 64.5,-142.5 157.5,-142.5 157.5,-123.5 64.5,-123.5"/>
<text text-anchor="middle" x="111" y="-130.5" font-family="Helvetica,sans-Serif" font-size="10.00" fill="#000000">unordered_map</text>
</g>
<!-- Node1&#45;&gt;Node3 -->
<g id="edge3" class="edge">
<title>Node1&#45;&gt;Node3</title>
<path fill="none" stroke="#191970" d="M314.9906,-179.4369C272.8896,-169.8529 207.9995,-155.0812 162.7479,-144.78"/>
<polygon fill="#191970" stroke="#191970" points="163.3636,-141.3307 152.8361,-142.5237 161.8098,-148.1561 163.3636,-141.3307"/>
</g>
<!-- Node4 -->
<g id="node5" class="node">
<title>Node4</title>
<polygon fill="none" stroke="#bfbfbf" points="176,-123.5 176,-142.5 214,-142.5 214,-123.5 176,-123.5"/>
<text text-anchor="middle" x="195" y="-130.5" font-family="Helvetica,sans-Serif" font-size="10.00" fill="#000000">map</text>
</g>
<!-- Node1&#45;&gt;Node4 -->
<g id="edge4" class="edge">
<title>Node1&#45;&gt;Node4</title>
<path fill="none" stroke="#191970" d="M329.1512,-179.3733C299.8567,-169.2468 253.956,-153.3799 224.1727,-143.0844"/>
<polygon fill="#191970" stroke="#191970" points="224.9585,-139.6529 214.3638,-139.6936 222.6715,-146.2687 224.9585,-139.6529"/>
</g>
<!-- Node5 -->
<g id="node6" class="node">
<title>Node5</title>
<polygon fill="none" stroke="#bfbfbf" points="232.5,-123.5 232.5,-142.5 279.5,-142.5 279.5,-123.5 232.5,-123.5"/>
<text text-anchor="middle" x="256" y="-130.5" font-family="Helvetica,sans-Serif" font-size="10.00" fill="#000000">vector</text>
</g>
<!-- Node1&#45;&gt;Node5 -->
<g id="edge5" class="edge">
<title>Node1&#45;&gt;Node5</title>
<path fill="none" stroke="#191970" d="M339.4071,-179.2455C323.621,-170.4928 300.2361,-157.527 282.2413,-147.5496"/>
<polygon fill="#191970" stroke="#191970" points="283.8341,-144.4308 273.3913,-142.6427 280.4397,-150.5528 283.8341,-144.4308"/>
</g>
<!-- Node6 -->
<g id="node7" class="node">
<title>Node6</title>
<polygon fill="none" stroke="#bfbfbf" points="753,-62 753,-81 797,-81 797,-62 753,-62"/>
<text text-anchor="middle" x="775" y="-69" font-family="Helvetica,sans-Serif" font-size="10.00" fill="#000000">string</text>
</g>
<!-- Node1&#45;&gt;Node6 -->
<g id="edge6" class="edge">
<title>Node1&#45;&gt;Node6</title>
<path fill="none" stroke="#191970" d="M407.4054,-179.4502C482.4941,-164.4034 627.4904,-132.17 745,-87 746.2312,-86.5267 747.4778,-86.0169 748.7274,-85.4806"/>
<polygon fill="#191970" stroke="#191970" points="750.6206,-88.4571 758.1654,-81.0189 747.6288,-82.1286 750.6206,-88.4571"/>
</g>
<!-- Node7 -->
<g id="node8" class="node">
<title>Node7</title>
<polygon fill="none" stroke="#bfbfbf" points="1171.5,-123.5 1171.5,-142.5 1216.5,-142.5 1216.5,-123.5 1171.5,-123.5"/>
<text text-anchor="middle" x="1194" y="-130.5" font-family="Helvetica,sans-Serif" font-size="10.00" fill="#000000">utility</text>
</g>
<!-- Node1&#45;&gt;Node7 -->
<g id="edge7" class="edge">
<title>Node1&#45;&gt;Node7</title>
<path fill="none" stroke="#191970" d="M440.6939,-186.9251C614.0273,-182.1966 1008.1965,-169.0977 1161.3177,-142.8285"/>
<polygon fill="#191970" stroke="#191970" points="1162.2641,-146.2144 1171.4851,-140.9968 1161.023,-139.3253 1162.2641,-146.2144"/>
</g>
<!-- Node8 -->
<g id="node9" class="node">
<title>Node8</title>
<polygon fill="none" stroke="#bfbfbf" points="67.5,-.5 67.5,-19.5 126.5,-19.5 126.5,-.5 67.5,-.5"/>
<text text-anchor="middle" x="97" y="-7.5" font-family="Helvetica,sans-Serif" font-size="10.00" fill="#000000">Rtypes.h</text>
</g>
<!-- Node1&#45;&gt;Node8 -->
<g id="edge8" class="edge">
<title>Node1&#45;&gt;Node8</title>
<path fill="none" stroke="#191970" d="M349.8674,-179.1657C338.656,-164.4808 315.4417,-137.0494 289,-123 220.0302,-86.3541 173.5297,-140.8901 117,-87 101.5829,-72.3028 97.4827,-47.3695 96.6594,-29.8666"/>
<polygon fill="#191970" stroke="#191970" points="100.1554,-29.5663 96.5056,-19.62 93.1562,-29.6714 100.1554,-29.5663"/>
</g>
<!-- Node9 -->
<g id="node10" class="node">
<title>Node9</title>
<g id="a_node10"><a xlink:href="../../d4/d78/DataFormats_2Headers_2include_2Headers_2RAWDataHeader_8h.html" target="_top" xlink:title="Headers/RAWDataHeader.h">
<polygon fill="none" stroke="#000000" points="586.5,-62 586.5,-81 735.5,-81 735.5,-62 586.5,-62"/>
<text text-anchor="middle" x="661" y="-69" font-family="Helvetica,sans-Serif" font-size="10.00" fill="#000000">Headers/RAWDataHeader.h</text>
</a>
</g>
</g>
<!-- Node1&#45;&gt;Node9 -->
<g id="edge9" class="edge">
<title>Node1&#45;&gt;Node9</title>
<path fill="none" stroke="#191970" d="M385.2965,-179.4419C411.7308,-170.4055 452.2245,-156.2881 487,-143 536.9806,-123.9018 594.2507,-99.9654 629.0114,-85.2047"/>
<polygon fill="#191970" stroke="#191970" points="630.7884,-88.2523 638.6187,-81.1152 628.0467,-81.8115 630.7884,-88.2523"/>
</g>
<!-- Node11 -->
<g id="node12" class="node">
<title>Node11</title>
<g id="a_node12"><a xlink:href="../../dc/dcd/DataHeader_8h.html" target="_top" xlink:title="Headers/DataHeader.h">
<polygon fill="none" stroke="#000000" points="1026.5,-123.5 1026.5,-142.5 1153.5,-142.5 1153.5,-123.5 1026.5,-123.5"/>
<text text-anchor="middle" x="1090" y="-130.5" font-family="Helvetica,sans-Serif" font-size="10.00" fill="#000000">Headers/DataHeader.h</text>
</a>
</g>
</g>
<!-- Node1&#45;&gt;Node11 -->
<g id="edge11" class="edge">
<title>Node1&#45;&gt;Node11</title>
<path fill="none" stroke="#191970" d="M440.7273,-182.6034C585.2076,-171.5653 879.0201,-149.1185 1016.2672,-138.6331"/>
<polygon fill="#191970" stroke="#191970" points="1016.5678,-142.1204 1026.2721,-137.8687 1016.0345,-135.1407 1016.5678,-142.1204"/>
</g>
<!-- Node20 -->
<g id="node21" class="node">
<title>Node20</title>
<g id="a_node21"><a xlink:href="../../d6/dec/Raw_2include_2DetectorsRaw_2RDHUtils_8h.html" target="_top" xlink:title="DetectorsRaw/RDHUtils.h">
<polygon fill="none" stroke="#000000" points="336.5,-123.5 336.5,-142.5 477.5,-142.5 477.5,-123.5 336.5,-123.5"/>
<text text-anchor="middle" x="407" y="-130.5" font-family="Helvetica,sans-Serif" font-size="10.00" fill="#000000">DetectorsRaw/RDHUtils.h</text>
</a>
</g>
</g>
<!-- Node1&#45;&gt;Node20 -->
<g id="edge22" class="edge">
<title>Node1&#45;&gt;Node20</title>
<path fill="none" stroke="#191970" d="M365.7093,-179.2455C372.8073,-171.2958 383.0084,-159.8706 391.495,-150.3656"/>
<polygon fill="#191970" stroke="#191970" points="394.3411,-152.4331 398.3905,-142.6427 389.1195,-147.771 394.3411,-152.4331"/>
</g>
<!-- Node10 -->
<g id="node11" class="node">
<title>Node10</title>
<polygon fill="none" stroke="#bfbfbf" points="794,-.5 794,-19.5 844,-19.5 844,-.5 794,-.5"/>
<text text-anchor="middle" x="819" y="-7.5" font-family="Helvetica,sans-Serif" font-size="10.00" fill="#000000">cstdint</text>
</g>
<!-- Node9&#45;&gt;Node10 -->
<g id="edge10" class="edge">
<title>Node9&#45;&gt;Node10</title>
<path fill="none" stroke="#191970" d="M685.6875,-61.8906C712.3557,-51.5103 755.0282,-34.9004 784.8911,-23.2766"/>
<polygon fill="#191970" stroke="#191970" points="786.4365,-26.4309 794.4859,-19.5419 783.8973,-19.9076 786.4365,-26.4309"/>
</g>
<!-- Node11&#45;&gt;Node6 -->
<g id="edge18" class="edge">
<title>Node11&#45;&gt;Node6</title>
<path fill="none" stroke="#191970" d="M1026.3971,-127.9698C968.226,-122.1316 880.3302,-110.1749 807,-87 805.3409,-86.4757 803.6592,-85.8789 801.9799,-85.2319"/>
<polygon fill="#191970" stroke="#191970" points="803.1304,-81.9156 792.5645,-81.1339 800.3368,-88.334 803.1304,-81.9156"/>
</g>
<!-- Node11&#45;&gt;Node10 -->
<g id="edge12" class="edge">
<title>Node11&#45;&gt;Node10</title>
<path fill="none" stroke="#191970" d="M1099.8065,-123.457C1114.7066,-107.8143 1139.5528,-76.4187 1122,-56 1104.6913,-35.8653 930.1565,-19.1628 854.1073,-12.7816"/>
<polygon fill="#191970" stroke="#191970" points="854.3111,-9.2866 844.0567,-11.9504 853.7341,-16.2628 854.3111,-9.2866"/>
</g>
<!-- Node12 -->
<g id="node13" class="node">
<title>Node12</title>
<polygon fill="none" stroke="#bfbfbf" points="1235,-62 1235,-81 1293,-81 1293,-62 1235,-62"/>
<text text-anchor="middle" x="1264" y="-69" font-family="Helvetica,sans-Serif" font-size="10.00" fill="#000000">memory</text>
</g>
<!-- Node11&#45;&gt;Node12 -->
<g id="edge13" class="edge">
<title>Node11&#45;&gt;Node12</title>
<path fill="none" stroke="#191970" d="M1119.8985,-123.4693C1147.578,-114.5087 1189.7982,-100.4913 1226,-87 1227.8527,-86.3096 1229.7502,-85.5867 1231.6611,-84.8465"/>
<polygon fill="#191970" stroke="#191970" points="1233.1754,-88.0112 1241.1812,-81.0716 1230.5952,-81.5041 1233.1754,-88.0112"/>
</g>
<!-- Node13 -->
<g id="node14" class="node">
<title>Node13</title>
<polygon fill="none" stroke="#bfbfbf" points="1311,-62 1311,-81 1363,-81 1363,-62 1311,-62"/>
<text text-anchor="middle" x="1337" y="-69" font-family="Helvetica,sans-Serif" font-size="10.00" fill="#000000">cassert</text>
</g>
<!-- Node11&#45;&gt;Node13 -->
<g id="edge14" class="edge">
<title>Node11&#45;&gt;Node13</title>
<path fill="none" stroke="#191970" d="M1149.3433,-123.4606C1192.3293,-115.7488 1251.5141,-103.4666 1302,-87 1303.8954,-86.3818 1305.8272,-85.6956 1307.7609,-84.9659"/>
<polygon fill="#191970" stroke="#191970" points="1309.3559,-88.0949 1317.2847,-81.0674 1306.7041,-81.6167 1309.3559,-88.0949"/>
</g>
<!-- Node14 -->
<g id="node15" class="node">
<title>Node14</title>
<polygon fill="none" stroke="#bfbfbf" points="1381,-62 1381,-81 1431,-81 1431,-62 1381,-62"/>
<text text-anchor="middle" x="1406" y="-69" font-family="Helvetica,sans-Serif" font-size="10.00" fill="#000000">cstring</text>
</g>
<!-- Node11&#45;&gt;Node14 -->
<g id="edge15" class="edge">
<title>Node11&#45;&gt;Node14</title>
<path fill="none" stroke="#191970" d="M1153.5666,-123.5443C1230.2553,-111.9939 1351.5003,-93.2228 1372,-87 1373.9088,-86.4206 1375.8496,-85.7567 1377.7872,-85.037"/>
<polygon fill="#191970" stroke="#191970" points="1379.3834,-88.1644 1387.2851,-81.1064 1376.7066,-81.6964 1379.3834,-88.1644"/>
</g>
<!-- Node15 -->
<g id="node16" class="node">
<title>Node15</title>
<polygon fill="none" stroke="#bfbfbf" points="1449,-62 1449,-81 1513,-81 1513,-62 1449,-62"/>
<text text-anchor="middle" x="1481" y="-69" font-family="Helvetica,sans-Serif" font-size="10.00" fill="#000000">algorithm</text>
</g>
<!-- Node11&#45;&gt;Node15 -->
<g id="edge16" class="edge">
<title>Node11&#45;&gt;Node15</title>
<path fill="none" stroke="#191970" d="M1153.6977,-124.2479C1156.8428,-123.8241 1159.9569,-123.4062 1163,-123 1286.0552,-106.5754 1319.5711,-117.1535 1440,-87 1442.8374,-86.2896 1445.7471,-85.443 1448.6433,-84.5173"/>
<polygon fill="#191970" stroke="#191970" points="1450.0227,-87.7431 1458.3141,-81.1474 1447.7193,-81.1329 1450.0227,-87.7431"/>
</g>
<!-- Node16 -->
<g id="node17" class="node">
<title>Node16</title>
<polygon fill="none" stroke="#bfbfbf" points="815.5,-62 815.5,-81 880.5,-81 880.5,-62 815.5,-62"/>
<text text-anchor="middle" x="848" y="-69" font-family="Helvetica,sans-Serif" font-size="10.00" fill="#000000">stdexcept</text>
</g>
<!-- Node11&#45;&gt;Node16 -->
<g id="edge17" class="edge">
<title>Node11&#45;&gt;Node16</title>
<path fill="none" stroke="#191970" d="M1040.6398,-123.4764C999.8802,-115.1766 940.7024,-102.1195 890,-87 887.3675,-86.215 884.6613,-85.3513 881.952,-84.4456"/>
<polygon fill="#191970" stroke="#191970" points="882.8475,-81.0508 872.2527,-81.0474 880.5329,-87.6571 882.8475,-81.0508"/>
</g>
<!-- Node17 -->
<g id="node18" class="node">
<title>Node17</title>
<polygon fill="none" stroke="#bfbfbf" points="899,-62 899,-81 949,-81 949,-62 899,-62"/>
<text text-anchor="middle" x="924" y="-69" font-family="Helvetica,sans-Serif" font-size="10.00" fill="#000000">climits</text>
</g>
<!-- Node11&#45;&gt;Node17 -->
<g id="edge19" class="edge">
<title>Node11&#45;&gt;Node17</title>
<path fill="none" stroke="#191970" d="M1060.0894,-123.4529C1033.1438,-114.6456 992.5733,-100.8704 958,-87 956.6077,-86.4414 955.1895,-85.8573 953.7614,-85.2568"/>
<polygon fill="#191970" stroke="#191970" points="954.9289,-81.9475 944.3639,-81.1531 952.1276,-88.3625 954.9289,-81.9475"/>
</g>
<!-- Node18 -->
<g id="node19" class="node">
<title>Node18</title>
<g id="a_node19"><a xlink:href="../../d7/df8/Types_8h.html" target="_top" xlink:title="MemoryResources/Types.h">
<polygon fill="none" stroke="#000000" points="967,-62 967,-81 1113,-81 1113,-62 967,-62"/>
<text text-anchor="middle" x="1040" y="-69" font-family="Helvetica,sans-Serif" font-size="10.00" fill="#000000">MemoryResources/Types.h</text>
</a>
</g>
</g>
<!-- Node11&#45;&gt;Node18 -->
<g id="edge20" class="edge">
<title>Node11&#45;&gt;Node18</title>
<path fill="none" stroke="#191970" d="M1082.1875,-123.3906C1074.746,-114.2376 1063.3666,-100.2409 1054.3008,-89.09"/>
<polygon fill="#191970" stroke="#191970" points="1056.9467,-86.7962 1047.9226,-81.2449 1051.5153,-91.212 1056.9467,-86.7962"/>
</g>
<!-- Node19 -->
<g id="node20" class="node">
<title>Node19</title>
<polygon fill="none" stroke="#bfbfbf" points="1169.5,-62 1169.5,-81 1216.5,-81 1216.5,-62 1169.5,-62"/>
<text text-anchor="middle" x="1193" y="-69" font-family="Helvetica,sans-Serif" font-size="10.00" fill="#000000">cerrno</text>
</g>
<!-- Node11&#45;&gt;Node19 -->
<g id="edge21" class="edge">
<title>Node11&#45;&gt;Node19</title>
<path fill="none" stroke="#191970" d="M1106.0938,-123.3906C1122.7228,-113.4616 1148.8976,-97.833 1168.1794,-86.3201"/>
<polygon fill="#191970" stroke="#191970" points="1170.2276,-89.1736 1177.0193,-81.0419 1166.639,-83.1634 1170.2276,-89.1736"/>
</g>
<!-- Node20&#45;&gt;Node9 -->
<g id="edge34" class="edge">
<title>Node20&#45;&gt;Node9</title>
<path fill="none" stroke="#191970" d="M446.4088,-123.4581C490.8997,-112.6857 563.3531,-95.1428 611.5915,-83.4631"/>
<polygon fill="#191970" stroke="#191970" points="612.6032,-86.8193 621.4987,-81.0643 610.9559,-80.0159 612.6032,-86.8193"/>
</g>
<!-- Node21 -->
<g id="node22" class="node">
<title>Node21</title>
<g id="a_node22"><a xlink:href="../../df/d21/GPUCommonDef_8h.html" target="_top" xlink:title="GPUCommonDef.h">
<polygon fill="none" stroke="#000000" points="461.5,-62 461.5,-81 568.5,-81 568.5,-62 461.5,-62"/>
<text text-anchor="middle" x="515" y="-69" font-family="Helvetica,sans-Serif" font-size="10.00" fill="#000000">GPUCommonDef.h</text>
</a>
</g>
</g>
<!-- Node20&#45;&gt;Node21 -->
<g id="edge23" class="edge">
<title>Node20&#45;&gt;Node21</title>
<path fill="none" stroke="#191970" d="M423.875,-123.3906C441.4698,-113.3713 469.2566,-97.5483 489.5241,-86.0071"/>
<polygon fill="#191970" stroke="#191970" points="491.2856,-89.0318 498.2435,-81.0419 487.8217,-82.9489 491.2856,-89.0318"/>
</g>
<!-- Node24 -->
<g id="node25" class="node">
<title>Node24</title>
<g id="a_node25"><a xlink:href="../../d2/d45/GPUCommonRtypes_8h.html" target="_top" xlink:title="GPUCommonRtypes.h">
<polygon fill="none" stroke="#000000" points="125.5,-62 125.5,-81 250.5,-81 250.5,-62 125.5,-62"/>
<text text-anchor="middle" x="188" y="-69" font-family="Helvetica,sans-Serif" font-size="10.00" fill="#000000">GPUCommonRtypes.h</text>
</a>
</g>
</g>
<!-- Node20&#45;&gt;Node24 -->
<g id="edge26" class="edge">
<title>Node20&#45;&gt;Node24</title>
<path fill="none" stroke="#191970" d="M372.7813,-123.3906C334.7725,-112.7169 273.3089,-95.4566 231.8116,-83.8033"/>
<polygon fill="#191970" stroke="#191970" points="232.5523,-80.3759 221.9785,-81.0419 230.6598,-87.1153 232.5523,-80.3759"/>
</g>
<!-- Node25 -->
<g id="node26" class="node">
<title>Node25</title>
<g id="a_node26"><a xlink:href="../../d9/d80/InteractionRecord_8h.html" target="_top" xlink:title="CommonDataFormat/Interaction\lRecord.h">
<polygon fill="none" stroke="#000000" points="269,-56.5 269,-86.5 443,-86.5 443,-56.5 269,-56.5"/>
<text text-anchor="start" x="277" y="-74.5" font-family="Helvetica,sans-Serif" font-size="10.00" fill="#000000">CommonDataFormat/Interaction</text>
<text text-anchor="middle" x="356" y="-63.5" font-family="Helvetica,sans-Serif" font-size="10.00" fill="#000000">Record.h</text>
</a>
</g>
</g>
<!-- Node20&#45;&gt;Node25 -->
<g id="edge28" class="edge">
<title>Node20&#45;&gt;Node25</title>
<path fill="none" stroke="#191970" d="M399.0313,-123.3906C392.5764,-115.6068 383.2168,-104.3202 374.8739,-94.2597"/>
<polygon fill="#191970" stroke="#191970" points="377.5536,-92.008 368.476,-86.5446 372.1652,-96.4764 377.5536,-92.008"/>
</g>
<!-- Node22 -->
<g id="node23" class="node">
<title>Node22</title>
<g id="a_node23"><a xlink:href="../../d5/d93/GPUCommonDefSettings_8h.html" target="_top" xlink:title="GPUCommonDefSettings.h">
<polygon fill="none" stroke="#000000" points="628,-.5 628,-19.5 776,-19.5 776,-.5 628,-.5"/>
<text text-anchor="middle" x="702" y="-7.5" font-family="Helvetica,sans-Serif" font-size="10.00" fill="#000000">GPUCommonDefSettings.h</text>
</a>
</g>
</g>
<!-- Node21&#45;&gt;Node22 -->
<g id="edge24" class="edge">
<title>Node21&#45;&gt;Node22</title>
<path fill="none" stroke="#191970" d="M544.2188,-61.8906C576.3307,-51.3298 628.049,-34.3208 663.4608,-22.6747"/>
<polygon fill="#191970" stroke="#191970" points="664.5804,-25.9909 672.9864,-19.5419 662.3935,-19.3413 664.5804,-25.9909"/>
</g>
<!-- Node23 -->
<g id="node24" class="node">
<title>Node23</title>
<g id="a_node24"><a xlink:href="../../da/d5a/GPUCommonDefAPI_8h.html" target="_top" xlink:title="GPUCommonDefAPI.h">
<polygon fill="none" stroke="#000000" points="486,-.5 486,-19.5 610,-19.5 610,-.5 486,-.5"/>
<text text-anchor="middle" x="548" y="-7.5" font-family="Helvetica,sans-Serif" font-size="10.00" fill="#000000">GPUCommonDefAPI.h</text>
</a>
</g>
</g>
<!-- Node21&#45;&gt;Node23 -->
<g id="edge25" class="edge">
<title>Node21&#45;&gt;Node23</title>
<path fill="none" stroke="#191970" d="M520.1563,-61.8906C524.9232,-53.0068 532.1385,-39.5601 538.0297,-28.5811"/>
<polygon fill="#191970" stroke="#191970" points="541.1269,-30.2114 542.7711,-19.7449 534.9588,-26.9016 541.1269,-30.2114"/>
</g>
<!-- Node24&#45;&gt;Node8 -->
<g id="edge27" class="edge">
<title>Node24&#45;&gt;Node8</title>
<path fill="none" stroke="#191970" d="M173.7813,-61.8906C159.3566,-52.1421 136.8024,-36.8994 119.864,-25.4521"/>
<polygon fill="#191970" stroke="#191970" points="121.3641,-22.2415 111.1189,-19.5419 117.4444,-28.0412 121.3641,-22.2415"/>
</g>
<!-- Node25&#45;&gt;Node8 -->
<g id="edge29" class="edge">
<title>Node25&#45;&gt;Node8</title>
<path fill="none" stroke="#191970" d="M289.152,-56.4416C247.6562,-46.9733 192.9895,-34.2831 136.6439,-20.3678"/>
<polygon fill="#191970" stroke="#191970" points="137.3986,-16.949 126.8503,-17.9408 135.7148,-23.7435 137.3986,-16.949"/>
</g>
<!-- Node25&#45;&gt;Node10 -->
<g id="edge32" class="edge">
<title>Node25&#45;&gt;Node10</title>
<path fill="none" stroke="#191970" d="M443.2188,-57.3502C446.5193,-56.8824 449.7885,-56.4304 453,-56 596.801,-36.7268 637.6293,-48.4974 783.6398,-19.9637"/>
<polygon fill="#191970" stroke="#191970" points="784.7465,-23.3124 793.8735,-17.9322 783.3834,-16.4464 784.7465,-23.3124"/>
</g>
<!-- Node26 -->
<g id="node27" class="node">
<title>Node26</title>
<polygon fill="none" stroke="#bfbfbf" points="418.5,-.5 418.5,-19.5 467.5,-19.5 467.5,-.5 418.5,-.5"/>
<text text-anchor="middle" x="443" y="-7.5" font-family="Helvetica,sans-Serif" font-size="10.00" fill="#000000">iosfwd</text>
</g>
<!-- Node25&#45;&gt;Node26 -->
<g id="edge30" class="edge">
<title>Node25&#45;&gt;Node26</title>
<path fill="none" stroke="#191970" d="M377.5056,-56.2977C390.7968,-46.9022 407.8057,-34.8787 421.1588,-25.4395"/>
<polygon fill="#191970" stroke="#191970" points="423.1846,-28.2937 429.33,-19.6633 419.1439,-22.5776 423.1846,-28.2937"/>
</g>
<!-- Node27 -->
<g id="node28" class="node">
<title>Node27</title>
<polygon fill="none" stroke="#bfbfbf" points="144.5,-.5 144.5,-19.5 191.5,-19.5 191.5,-.5 144.5,-.5"/>
<text text-anchor="middle" x="168" y="-7.5" font-family="Helvetica,sans-Serif" font-size="10.00" fill="#000000">cmath</text>
</g>
<!-- Node25&#45;&gt;Node27 -->
<g id="edge31" class="edge">
<title>Node25&#45;&gt;Node27</title>
<path fill="none" stroke="#191970" d="M310.01,-56.4554C276.4133,-45.465 231.6317,-30.8157 201.4103,-20.9294"/>
<polygon fill="#191970" stroke="#191970" points="202.3493,-17.5542 191.7567,-17.7715 200.1729,-24.2072 202.3493,-17.5542"/>
</g>
<!-- Node28 -->
<g id="node29" class="node">
<title>Node28</title>
<g id="a_node29"><a xlink:href="../../d4/dc6/LHCConstants_8h.html" target="_top" xlink:title="Header to collect LHC related constants. ">
<polygon fill="none" stroke="#000000" points="210,-.5 210,-19.5 400,-19.5 400,-.5 210,-.5"/>
<text text-anchor="middle" x="305" y="-7.5" font-family="Helvetica,sans-Serif" font-size="10.00" fill="#000000">CommonConstants/LHCConstants.h</text>
</a>
</g>
</g>
<!-- Node25&#45;&gt;Node28 -->
<g id="edge33" class="edge">
<title>Node25&#45;&gt;Node28</title>
<path fill="none" stroke="#191970" d="M343.3933,-56.2977C336.2402,-47.672 327.2503,-36.8312 319.7682,-27.8087"/>
<polygon fill="#191970" stroke="#191970" points="322.2433,-25.3103 313.1657,-19.8469 316.855,-29.7787 322.2433,-25.3103"/>
</g>
</g>
</svg>
        <g id="navigator" transform="translate(0 0)" fill="#404254">
                <rect fill="#f2f5e9" fill-opacity="0.5" stroke="#606060" stroke-width=".5" x="0" y="0" width="60" height="60"/>
                <use id="zoomplus" xlink:href="#zoomPlus" x="17" y="9" onmousedown="handleZoom(evt,'in')"/>
                <use id="zoomminus" xlink:href="#zoomMin" x="42" y="9" onmousedown="handleZoom(evt,'out')"/>
                <use id="reset" xlink:href="#resetDef" x="30" y="36" onmousedown="handleReset()"/>
                <g id="arrowUp" xlink:href="#dirArrow" transform="translate(30 24)" onmousedown="handlePan(0,-1)">
                  <use xlink:href="#rim" fill="#404040">
                        <set attributeName="fill" to="#808080" begin="arrowUp.mouseover" end="arrowUp.mouseout"/>
                  </use>
                  <path fill="none" stroke="white" stroke-width="1.5" d="M0,-3.0v7 M-2.5,-0.5L0,-3.0L2.5,-0.5"/>
                </g>
                <g id="arrowRight" xlink:href="#dirArrow" transform="rotate(90) translate(36 -43)" onmousedown="handlePan(1,0)">
                  <use xlink:href="#rim" fill="#404040">
                        <set attributeName="fill" to="#808080" begin="arrowRight.mouseover" end="arrowRight.mouseout"/>
                  </use>
                  <path fill="none" stroke="white" stroke-width="1.5" d="M0,-3.0v7 M-2.5,-0.5L0,-3.0L2.5,-0.5"/>
                </g>
                <g id="arrowDown" xlink:href="#dirArrow" transform="rotate(180) translate(-30 -48)" onmousedown="handlePan(0,1)">
                  <use xlink:href="#rim" fill="#404040">
                        <set attributeName="fill" to="#808080" begin="arrowDown.mouseover" end="arrowDown.mouseout"/>
                  </use>
                  <path fill="none" stroke="white" stroke-width="1.5" d="M0,-3.0v7 M-2.5,-0.5L0,-3.0L2.5,-0.5"/>
                </g>
                <g id="arrowLeft" xlink:href="#dirArrow" transform="rotate(270) translate(-36 17)" onmousedown="handlePan(-1,0)">
                  <use xlink:href="#rim" fill="#404040">
                        <set attributeName="fill" to="#808080" begin="arrowLeft.mouseover" end="arrowLeft.mouseout"/>
                  </use>
                  <path fill="none" stroke="white" stroke-width="1.5" d="M0,-3.0v7 M-2.5,-0.5L0,-3.0L2.5,-0.5"/>
                </g>
        </g>
        <svg viewBox="0 0 15 15" width="100%" height="30px" preserveAspectRatio="xMaxYMin meet">
         <g id="arrow_out" transform="scale(0.3 0.3)">
          <a xlink:href="SimpleRawReader_8h__incl_org.svg" target="_base">
           <rect id="button" ry="5" rx="5" y="6" x="6" height="38" width="38"
                fill="#f2f5e9" fill-opacity="0.5" stroke="#606060" stroke-width="1.0"/>
           <path id="arrow"
             d="M 11.500037,31.436501 C 11.940474,20.09759 22.043105,11.32322 32.158766,21.979434 L 37.068811,17.246167 C 37.068811,17.246167 37.088388,32 37.088388,32 L 22.160133,31.978069 C 22.160133,31.978069 26.997745,27.140456 26.997745,27.140456 C 18.528582,18.264221 13.291696,25.230495 11.500037,31.436501 z"
             style="fill:#404040;"/>
          </a>
         </g>
        </svg>
</svg>
