<?xml version="1.0" encoding="UTF-8" standalone="no"?>
<!DOCTYPE svg PUBLIC "-//W3C//DTD SVG 1.1//EN"
 "http://www.w3.org/Graphics/SVG/1.1/DTD/svg11.dtd">
<!-- Generated by graphviz version 2.40.1 (20161225.0304)
 -->
<!-- Title: o2::ft0::RawEventData Pages: 1 -->
<svg width="1020pt" height="551pt"
 viewBox="0.00 0.00 1020.00 551.00" xmlns="http://www.w3.org/2000/svg" xmlns:xlink="http://www.w3.org/1999/xlink">
<g id="graph0" class="graph" transform="scale(1 1) rotate(0) translate(4 547)">
<title>o2::ft0::RawEventData</title>
<!-- Node1 -->
<g id="node1" class="node">
<title>Node1</title>
<polygon fill="#bfbfbf" stroke="#000000" points="556,-.5 556,-200.5 711,-200.5 711,-.5 556,-.5"/>
<text text-anchor="middle" x="633.5" y="-188.5" font-family="Helvetica,sans-Serif" font-size="10.00" fill="#000000">o2::ft0::RawEventData</text>
<polyline fill="none" stroke="#000000" points="556,-181.5 711,-181.5 "/>
<text text-anchor="middle" x="633.5" y="-169.5" font-family="Helvetica,sans-Serif" font-size="10.00" fill="#000000"> </text>
<polyline fill="none" stroke="#000000" points="556,-162.5 711,-162.5 "/>
<text text-anchor="start" x="564" y="-150.5" font-family="Helvetica,sans-Serif" font-size="10.00" fill="#000000">+ RawEventData()</text>
<text text-anchor="start" x="564" y="-139.5" font-family="Helvetica,sans-Serif" font-size="10.00" fill="#000000">+ generateHeader()</text>
<text text-anchor="start" x="564" y="-128.5" font-family="Helvetica,sans-Serif" font-size="10.00" fill="#000000">+ generateData()</text>
<text text-anchor="start" x="564" y="-117.5" font-family="Helvetica,sans-Serif" font-size="10.00" fill="#000000">+ generateRandomHeader()</text>
<text text-anchor="start" x="564" y="-106.5" font-family="Helvetica,sans-Serif" font-size="10.00" fill="#000000">+ generateRandomData()</text>
<text text-anchor="start" x="564" y="-95.5" font-family="Helvetica,sans-Serif" font-size="10.00" fill="#000000">+ generateRandomEvent()</text>
<text text-anchor="start" x="564" y="-84.5" font-family="Helvetica,sans-Serif" font-size="10.00" fill="#000000">+ getEventHeaderPtr()</text>
<text text-anchor="start" x="564" y="-73.5" font-family="Helvetica,sans-Serif" font-size="10.00" fill="#000000">+ getEventDataPtr()</text>
<text text-anchor="start" x="564" y="-62.5" font-family="Helvetica,sans-Serif" font-size="10.00" fill="#000000">+ print()</text>
<text text-anchor="start" x="564" y="-51.5" font-family="Helvetica,sans-Serif" font-size="10.00" fill="#000000">+ size()</text>
<text text-anchor="start" x="564" y="-40.5" font-family="Helvetica,sans-Serif" font-size="10.00" fill="#000000">+ to_vector()</text>
<text text-anchor="start" x="564" y="-29.5" font-family="Helvetica,sans-Serif" font-size="10.00" fill="#000000">+ setIsPadded()</text>
<text text-anchor="start" x="564" y="-18.5" font-family="Helvetica,sans-Serif" font-size="10.00" fill="#000000">+ ClassDefNV()</text>
<text text-anchor="start" x="564" y="-7.5" font-family="Helvetica,sans-Serif" font-size="10.00" fill="#000000">+ printRDH()</text>
</g>
<!-- Node2 -->
<g id="node2" class="node">
<title>Node2</title>
<g id="a_node2"><a xlink:href="../../d9/d8e/structo2_1_1ft0_1_1EventHeader.html" target="_top" xlink:title="{o2::ft0::EventHeader\n||+ ClassDefNV()\l}">
<polygon fill="none" stroke="#000000" points="166,-259.5 166,-316.5 283,-316.5 283,-259.5 166,-259.5"/>
<text text-anchor="middle" x="224.5" y="-304.5" font-family="Helvetica,sans-Serif" font-size="10.00" fill="#000000">o2::ft0::EventHeader</text>
<polyline fill="none" stroke="#000000" points="166,-297.5 283,-297.5 "/>
<text text-anchor="middle" x="224.5" y="-285.5" font-family="Helvetica,sans-Serif" font-size="10.00" fill="#000000"> </text>
<polyline fill="none" stroke="#000000" points="166,-278.5 283,-278.5 "/>
<text text-anchor="start" x="174" y="-266.5" font-family="Helvetica,sans-Serif" font-size="10.00" fill="#000000">+ ClassDefNV()</text>
</a>
</g>
</g>
<!-- Node2&#45;&gt;Node1 -->
<g id="edge1" class="edge">
<title>Node2&#45;&gt;Node1</title>
<path fill="none" stroke="#404040" d="M283.0997,-261.1358C351.5565,-229.7528 465.5271,-177.5047 544.8277,-141.1505"/>
<polygon fill="none" stroke="#404040" points="544.8706,-141.1309 548.6578,-134.9944 555.7789,-136.1301 551.9917,-142.2666 544.8706,-141.1309"/>
<text text-anchor="middle" x="411" y="-222" font-family="Helvetica,sans-Serif" font-size="10.00" fill="#000000"> +mEventHeader</text>
</g>
<!-- Node3 -->
<g id="node3" class="node">
<title>Node3</title>
<g id="a_node3"><a xlink:href="../../d6/d30/classuint64__t.html" target="_top" xlink:title="{uint64_t\n||}">
<polygon fill="none" stroke="#000000" points="424.5,-485.5 424.5,-542.5 480.5,-542.5 480.5,-485.5 424.5,-485.5"/>
<text text-anchor="middle" x="452.5" y="-530.5" font-family="Helvetica,sans-Serif" font-size="10.00" fill="#000000">uint64_t</text>
<polyline fill="none" stroke="#000000" points="424.5,-523.5 480.5,-523.5 "/>
<text text-anchor="middle" x="452.5" y="-511.5" font-family="Helvetica,sans-Serif" font-size="10.00" fill="#000000"> </text>
<polyline fill="none" stroke="#000000" points="424.5,-504.5 480.5,-504.5 "/>
<text text-anchor="middle" x="452.5" y="-492.5" font-family="Helvetica,sans-Serif" font-size="10.00" fill="#000000"> </text>
</a>
</g>
</g>
<!-- Node3&#45;&gt;Node2 -->
<g id="edge2" class="edge">
<title>Node3&#45;&gt;Node2</title>
<path fill="none" stroke="#404040" d="M424.1794,-508.7467C400.3037,-502.7935 367.1335,-490.6605 348.5,-467 314.6317,-423.9944 357.2475,-390.5942 325.5,-346 317.2087,-334.3535 305.7931,-324.7161 293.6116,-316.8663"/>
<polygon fill="none" stroke="#404040" points="293.5574,-316.8341 286.3554,-317.1967 283.2507,-310.6882 290.4527,-310.3255 293.5574,-316.8341"/>
<text text-anchor="middle" x="389.5" y="-442.5" font-family="Helvetica,sans-Serif" font-size="10.00" fill="#000000"> +word</text>
<text text-anchor="middle" x="389.5" y="-431.5" font-family="Helvetica,sans-Serif" font-size="10.00" fill="#000000">+nGBTWords</text>
<text text-anchor="middle" x="389.5" y="-420.5" font-family="Helvetica,sans-Serif" font-size="10.00" fill="#000000">+startDescriptor</text>
<text text-anchor="middle" x="389.5" y="-409.5" font-family="Helvetica,sans-Serif" font-size="10.00" fill="#000000">+reservedField1</text>
<text text-anchor="middle" x="389.5" y="-398.5" font-family="Helvetica,sans-Serif" font-size="10.00" fill="#000000">+reservedField2</text>
<text text-anchor="middle" x="389.5" y="-387.5" font-family="Helvetica,sans-Serif" font-size="10.00" fill="#000000">+bc</text>
<text text-anchor="middle" x="389.5" y="-376.5" font-family="Helvetica,sans-Serif" font-size="10.00" fill="#000000">+reservedField3</text>
<text text-anchor="middle" x="389.5" y="-365.5" font-family="Helvetica,sans-Serif" font-size="10.00" fill="#000000">+orbit</text>
</g>
<!-- Node6 -->
<g id="node6" class="node">
<title>Node6</title>
<g id="a_node6"><a xlink:href="../../d2/df4/structo2_1_1ft0_1_1EventData.html" target="_top" xlink:title="{o2::ft0::EventData\n|+ isDoubleEvent\l+ is1TimeLostEvent\l+ isAmpHigh\l|+ ClassDefNV()\l}">
<polygon fill="none" stroke="#000000" points="480,-248.5 480,-327.5 595,-327.5 595,-248.5 480,-248.5"/>
<text text-anchor="middle" x="537.5" y="-315.5" font-family="Helvetica,sans-Serif" font-size="10.00" fill="#000000">o2::ft0::EventData</text>
<polyline fill="none" stroke="#000000" points="480,-308.5 595,-308.5 "/>
<text text-anchor="start" x="488" y="-296.5" font-family="Helvetica,sans-Serif" font-size="10.00" fill="#000000">+ isDoubleEvent</text>
<text text-anchor="start" x="488" y="-285.5" font-family="Helvetica,sans-Serif" font-size="10.00" fill="#000000">+ is1TimeLostEvent</text>
<text text-anchor="start" x="488" y="-274.5" font-family="Helvetica,sans-Serif" font-size="10.00" fill="#000000">+ isAmpHigh</text>
<polyline fill="none" stroke="#000000" points="480,-267.5 595,-267.5 "/>
<text text-anchor="start" x="488" y="-255.5" font-family="Helvetica,sans-Serif" font-size="10.00" fill="#000000">+ ClassDefNV()</text>
</a>
</g>
</g>
<!-- Node3&#45;&gt;Node6 -->
<g id="edge6" class="edge">
<title>Node3&#45;&gt;Node6</title>
<path fill="none" stroke="#404040" d="M443.9045,-485.2612C435.1313,-450.1232 425.8467,-389.9184 449.5,-346 454.5431,-336.6362 461.8327,-328.5345 470.0887,-321.6045"/>
<polygon fill="none" stroke="#404040" points="470.1921,-321.526 472.5546,-314.7129 479.7524,-314.2733 477.3898,-321.0864 470.1921,-321.526"/>
<text text-anchor="middle" x="497.5" y="-459" font-family="Helvetica,sans-Serif" font-size="10.00" fill="#000000"> +isEventInTVDC</text>
<text text-anchor="middle" x="497.5" y="-448" font-family="Helvetica,sans-Serif" font-size="10.00" fill="#000000">+is2TimeLostEvent</text>
<text text-anchor="middle" x="497.5" y="-437" font-family="Helvetica,sans-Serif" font-size="10.00" fill="#000000">+isADCinGate</text>
<text text-anchor="middle" x="497.5" y="-426" font-family="Helvetica,sans-Serif" font-size="10.00" fill="#000000">+word</text>
<text text-anchor="middle" x="497.5" y="-415" font-family="Helvetica,sans-Serif" font-size="10.00" fill="#000000">+isTimeInfoLate</text>
<text text-anchor="middle" x="497.5" y="-404" font-family="Helvetica,sans-Serif" font-size="10.00" fill="#000000">+numberADC</text>
<text text-anchor="middle" x="497.5" y="-393" font-family="Helvetica,sans-Serif" font-size="10.00" fill="#000000">+word_zeros</text>
<text text-anchor="middle" x="497.5" y="-382" font-family="Helvetica,sans-Serif" font-size="10.00" fill="#000000">+channelID</text>
<text text-anchor="middle" x="497.5" y="-371" font-family="Helvetica,sans-Serif" font-size="10.00" fill="#000000">+isTimeInfoLost</text>
<text text-anchor="middle" x="497.5" y="-360" font-family="Helvetica,sans-Serif" font-size="10.00" fill="#000000">+reservedField</text>
<text text-anchor="middle" x="497.5" y="-349" font-family="Helvetica,sans-Serif" font-size="10.00" fill="#000000">...</text>
</g>
<!-- Node10 -->
<g id="node10" class="node">
<title>Node10</title>
<g id="a_node10"><a xlink:href="../../d6/d6b/structo2_1_1ft0_1_1TCMdata.html" target="_top" xlink:title="{o2::ft0::TCMdata\n||}">
<polygon fill="none" stroke="#000000" points="673.5,-259.5 673.5,-316.5 769.5,-316.5 769.5,-259.5 673.5,-259.5"/>
<text text-anchor="middle" x="721.5" y="-304.5" font-family="Helvetica,sans-Serif" font-size="10.00" fill="#000000">o2::ft0::TCMdata</text>
<polyline fill="none" stroke="#000000" points="673.5,-297.5 769.5,-297.5 "/>
<text text-anchor="middle" x="721.5" y="-285.5" font-family="Helvetica,sans-Serif" font-size="10.00" fill="#000000"> </text>
<polyline fill="none" stroke="#000000" points="673.5,-278.5 769.5,-278.5 "/>
<text text-anchor="middle" x="721.5" y="-266.5" font-family="Helvetica,sans-Serif" font-size="10.00" fill="#000000"> </text>
</a>
</g>
</g>
<!-- Node3&#45;&gt;Node10 -->
<g id="edge12" class="edge">
<title>Node3&#45;&gt;Node10</title>
<path fill="none" stroke="#404040" d="M480.6287,-497.0504C489.5697,-492.3942 499.6903,-487.8479 509.5,-485 550.2296,-473.1756 669.0962,-496.569 699.5,-467 718.5699,-448.4537 722.0169,-375.6659 722.1789,-328.8135"/>
<polygon fill="none" stroke="#404040" points="722.1786,-328.6424 718.1644,-322.652 722.1501,-316.6425 726.1643,-322.633 722.1786,-328.6424"/>
<text text-anchor="middle" x="744.5" y="-442.5" font-family="Helvetica,sans-Serif" font-size="10.00" fill="#000000"> +orA</text>
<text text-anchor="middle" x="744.5" y="-431.5" font-family="Helvetica,sans-Serif" font-size="10.00" fill="#000000">+nChanA</text>
<text text-anchor="middle" x="744.5" y="-420.5" font-family="Helvetica,sans-Serif" font-size="10.00" fill="#000000">+sCen</text>
<text text-anchor="middle" x="744.5" y="-409.5" font-family="Helvetica,sans-Serif" font-size="10.00" fill="#000000">+orC</text>
<text text-anchor="middle" x="744.5" y="-398.5" font-family="Helvetica,sans-Serif" font-size="10.00" fill="#000000">+word</text>
<text text-anchor="middle" x="744.5" y="-387.5" font-family="Helvetica,sans-Serif" font-size="10.00" fill="#000000">+nChanC</text>
<text text-anchor="middle" x="744.5" y="-376.5" font-family="Helvetica,sans-Serif" font-size="10.00" fill="#000000">+vertex</text>
<text text-anchor="middle" x="744.5" y="-365.5" font-family="Helvetica,sans-Serif" font-size="10.00" fill="#000000">+cen</text>
</g>
<!-- Node4 -->
<g id="node4" class="node">
<title>Node4</title>
<polygon fill="none" stroke="#bfbfbf" points="172.5,-485.5 172.5,-542.5 216.5,-542.5 216.5,-485.5 172.5,-485.5"/>
<text text-anchor="middle" x="194.5" y="-530.5" font-family="Helvetica,sans-Serif" font-size="10.00" fill="#000000">static</text>
<polyline fill="none" stroke="#bfbfbf" points="172.5,-523.5 216.5,-523.5 "/>
<text text-anchor="middle" x="194.5" y="-511.5" font-family="Helvetica,sans-Serif" font-size="10.00" fill="#000000"> </text>
<polyline fill="none" stroke="#bfbfbf" points="172.5,-504.5 216.5,-504.5 "/>
<text text-anchor="middle" x="194.5" y="-492.5" font-family="Helvetica,sans-Serif" font-size="10.00" fill="#000000"> </text>
</g>
<!-- Node4&#45;&gt;Node2 -->
<g id="edge3" class="edge">
<title>Node4&#45;&gt;Node2</title>
<path fill="none" stroke="#404040" d="M172.1228,-509.5617C150.0765,-503.8692 117.5749,-491.6294 102.5,-467 74.4256,-421.1319 73.7744,-391.463 102.5,-346 114.391,-327.1805 134.237,-314.3431 154.5039,-305.6389"/>
<polygon fill="none" stroke="#404040" points="154.5899,-305.6051 158.7115,-299.688 165.7587,-301.2167 161.6371,-307.1339 154.5899,-305.6051"/>
<text text-anchor="middle" x="137.5" y="-404" font-family="Helvetica,sans-Serif" font-size="10.00" fill="#000000"> +PayloadSize</text>
</g>
<!-- Node4&#45;&gt;Node6 -->
<g id="edge8" class="edge">
<title>Node4&#45;&gt;Node6</title>
<path fill="none" stroke="#404040" d="M189.6476,-485.4312C183.1502,-443.0472 174.3038,-366.3188 191.5,-346 192.6195,-344.6772 367.2136,-315.8897 467.9243,-299.3792"/>
<polygon fill="none" stroke="#404040" points="467.9812,-299.3699 473.2553,-294.4522 479.8232,-297.4292 474.5491,-302.3469 467.9812,-299.3699"/>
<text text-anchor="middle" x="256.5" y="-409.5" font-family="Helvetica,sans-Serif" font-size="10.00" fill="#000000"> +PayloadSizeSecondWord</text>
<text text-anchor="middle" x="256.5" y="-398.5" font-family="Helvetica,sans-Serif" font-size="10.00" fill="#000000">+PayloadSizeFirstWord</text>
</g>
<!-- Node4&#45;&gt;Node10 -->
<g id="edge15" class="edge">
<title>Node4&#45;&gt;Node10</title>
<path fill="none" stroke="#404040" d="M216.7404,-510.8194C256.5489,-505.185 342.6366,-493.2662 415.5,-485 457.2013,-480.2691 572.598,-495.3981 603.5,-467 643.7462,-430.0149 592.7043,-389.7276 625.5,-346 636.2331,-331.6892 646.028,-336.9787 661.5,-328 664.1529,-326.4605 666.8475,-324.8493 669.5516,-323.1942"/>
<polygon fill="none" stroke="#404040" points="669.8004,-323.0379 672.7516,-316.4583 679.9602,-316.6519 677.0089,-323.2315 669.8004,-323.0379"/>
<text text-anchor="middle" x="660.5" y="-404" font-family="Helvetica,sans-Serif" font-size="10.00" fill="#000000"> +PayloadSize</text>
</g>
<!-- Node5 -->
<g id="node5" class="node">
<title>Node5</title>
<polygon fill="none" stroke="#bfbfbf" points="0,-485.5 0,-542.5 101,-542.5 101,-485.5 0,-485.5"/>
<text text-anchor="middle" x="50.5" y="-530.5" font-family="Helvetica,sans-Serif" font-size="10.00" fill="#000000">anonymous:+@9</text>
<polyline fill="none" stroke="#bfbfbf" points="0,-523.5 101,-523.5 "/>
<text text-anchor="middle" x="50.5" y="-511.5" font-family="Helvetica,sans-Serif" font-size="10.00" fill="#000000"> </text>
<polyline fill="none" stroke="#bfbfbf" points="0,-504.5 101,-504.5 "/>
<text text-anchor="middle" x="50.5" y="-492.5" font-family="Helvetica,sans-Serif" font-size="10.00" fill="#000000"> </text>
</g>
<!-- Node5&#45;&gt;Node2 -->
<g id="edge4" class="edge">
<title>Node5&#45;&gt;Node2</title>
<path fill="none" stroke="#404040" d="M40.9375,-485.3728C30.8024,-449.2494 19.9609,-386.9093 49.5,-346 62.2596,-328.329 110.9742,-313.0442 153.7754,-302.6082"/>
<polygon fill="none" stroke="#404040" points="153.9787,-302.5601 158.8957,-297.2854 165.6559,-299.7953 160.7389,-305.0701 153.9787,-302.5601"/>
<text text-anchor="middle" x="63.5" y="-404" font-family="Helvetica,sans-Serif" font-size="10.00" fill="#000000"> +@9</text>
</g>
<!-- Node6&#45;&gt;Node1 -->
<g id="edge5" class="edge">
<title>Node6&#45;&gt;Node1</title>
<path fill="none" stroke="#404040" d="M546.2124,-248.2207C548.9562,-238.4578 552.3735,-228.1794 556.5,-219 557.6034,-216.5455 558.7536,-214.0837 559.9446,-211.6199"/>
<polygon fill="none" stroke="#404040" points="559.9915,-211.5271 559.131,-204.3675 565.4089,-200.8195 566.2694,-207.9791 559.9915,-211.5271"/>
<text text-anchor="middle" x="593" y="-222" font-family="Helvetica,sans-Serif" font-size="10.00" fill="#000000"> +mEventData</text>
</g>
<!-- Node7 -->
<g id="node7" class="node">
<title>Node7</title>
<polygon fill="none" stroke="#bfbfbf" points="797.5,-485.5 797.5,-542.5 847.5,-542.5 847.5,-485.5 797.5,-485.5"/>
<text text-anchor="middle" x="822.5" y="-530.5" font-family="Helvetica,sans-Serif" font-size="10.00" fill="#000000">int64_t</text>
<polyline fill="none" stroke="#bfbfbf" points="797.5,-523.5 847.5,-523.5 "/>
<text text-anchor="middle" x="822.5" y="-511.5" font-family="Helvetica,sans-Serif" font-size="10.00" fill="#000000"> </text>
<polyline fill="none" stroke="#bfbfbf" points="797.5,-504.5 847.5,-504.5 "/>
<text text-anchor="middle" x="822.5" y="-492.5" font-family="Helvetica,sans-Serif" font-size="10.00" fill="#000000"> </text>
</g>
<!-- Node7&#45;&gt;Node6 -->
<g id="edge7" class="edge">
<title>Node7&#45;&gt;Node6</title>
<path fill="none" stroke="#404040" d="M797.7564,-485.248C793.7975,-479.4978 790.1414,-473.2838 787.5,-467 766.4056,-416.8165 807.8633,-383.6017 768.5,-346 744.2586,-322.8435 655.9436,-336.7848 607.1347,-327.2033"/>
<polygon fill="none" stroke="#404040" points="606.9653,-327.1591 600.1492,-329.5129 595.3548,-324.1264 602.171,-321.7726 606.9653,-327.1591"/>
<text text-anchor="middle" x="808.5" y="-409.5" font-family="Helvetica,sans-Serif" font-size="10.00" fill="#000000"> +time</text>
<text text-anchor="middle" x="808.5" y="-398.5" font-family="Helvetica,sans-Serif" font-size="10.00" fill="#000000">+charge</text>
</g>
<!-- Node7&#45;&gt;Node10 -->
<g id="edge13" class="edge">
<title>Node7&#45;&gt;Node10</title>
<path fill="none" stroke="#404040" d="M834.5431,-485.4082C847.6487,-449.3222 863.0667,-387.0216 833.5,-346 818.7079,-325.477 802.1376,-339.2934 779.5,-328 776.4216,-326.4643 773.3195,-324.7831 770.2362,-323.0072"/>
<polygon fill="none" stroke="#404040" points="770.1234,-322.9382 762.9178,-323.2198 759.8865,-316.6767 767.0921,-316.3952 770.1234,-322.9382"/>
<text text-anchor="middle" x="889.5" y="-431.5" font-family="Helvetica,sans-Serif" font-size="10.00" fill="#000000"> +timeA</text>
<text text-anchor="middle" x="889.5" y="-420.5" font-family="Helvetica,sans-Serif" font-size="10.00" fill="#000000">+timeC</text>
<text text-anchor="middle" x="889.5" y="-409.5" font-family="Helvetica,sans-Serif" font-size="10.00" fill="#000000">+reservedField1</text>
<text text-anchor="middle" x="889.5" y="-398.5" font-family="Helvetica,sans-Serif" font-size="10.00" fill="#000000">+reservedField2</text>
<text text-anchor="middle" x="889.5" y="-387.5" font-family="Helvetica,sans-Serif" font-size="10.00" fill="#000000">+amplA</text>
<text text-anchor="middle" x="889.5" y="-376.5" font-family="Helvetica,sans-Serif" font-size="10.00" fill="#000000">+amplC</text>
</g>
<!-- Node8 -->
<g id="node8" class="node">
<title>Node8</title>
<polygon fill="none" stroke="#bfbfbf" points="518,-485.5 518,-542.5 625,-542.5 625,-485.5 518,-485.5"/>
<text text-anchor="middle" x="571.5" y="-530.5" font-family="Helvetica,sans-Serif" font-size="10.00" fill="#000000">anonymous:+@13</text>
<polyline fill="none" stroke="#bfbfbf" points="518,-523.5 625,-523.5 "/>
<text text-anchor="middle" x="571.5" y="-511.5" font-family="Helvetica,sans-Serif" font-size="10.00" fill="#000000"> </text>
<polyline fill="none" stroke="#bfbfbf" points="518,-504.5 625,-504.5 "/>
<text text-anchor="middle" x="571.5" y="-492.5" font-family="Helvetica,sans-Serif" font-size="10.00" fill="#000000"> </text>
</g>
<!-- Node8&#45;&gt;Node6 -->
<g id="edge9" class="edge">
<title>Node8&#45;&gt;Node6</title>
<path fill="none" stroke="#404040" d="M568.4024,-485.3676C564.626,-451.8534 557.7201,-394.7299 549.5,-346 549.1373,-343.8501 548.7524,-341.6585 548.3515,-339.4468"/>
<polygon fill="none" stroke="#404040" points="548.331,-339.3388 543.2804,-334.1919 546.0889,-327.5501 551.1395,-332.6971 548.331,-339.3388"/>
<text text-anchor="middle" x="582.5" y="-404" font-family="Helvetica,sans-Serif" font-size="10.00" fill="#000000"> +@13</text>
</g>
<!-- Node9 -->
<g id="node9" class="node">
<title>Node9</title>
<polygon fill="none" stroke="#bfbfbf" points="614.5,-259.5 614.5,-316.5 652.5,-316.5 652.5,-259.5 614.5,-259.5"/>
<text text-anchor="middle" x="633.5" y="-304.5" font-family="Helvetica,sans-Serif" font-size="10.00" fill="#000000">bool</text>
<polyline fill="none" stroke="#bfbfbf" points="614.5,-297.5 652.5,-297.5 "/>
<text text-anchor="middle" x="633.5" y="-285.5" font-family="Helvetica,sans-Serif" font-size="10.00" fill="#000000"> </text>
<polyline fill="none" stroke="#bfbfbf" points="614.5,-278.5 652.5,-278.5 "/>
<text text-anchor="middle" x="633.5" y="-266.5" font-family="Helvetica,sans-Serif" font-size="10.00" fill="#000000"> </text>
</g>
<!-- Node9&#45;&gt;Node1 -->
<g id="edge10" class="edge">
<title>Node9&#45;&gt;Node1</title>
<path fill="none" stroke="#404040" d="M633.5,-259.114C633.5,-246.2188 633.5,-230.1122 633.5,-213.1441"/>
<polygon fill="none" stroke="#404040" points="633.5001,-212.67 629.5,-206.67 633.5,-200.67 637.5,-206.6699 633.5001,-212.67"/>
<text text-anchor="middle" x="666" y="-222" font-family="Helvetica,sans-Serif" font-size="10.00" fill="#000000"> +mIsPadded</text>
</g>
<!-- Node10&#45;&gt;Node1 -->
<g id="edge11" class="edge">
<title>Node10&#45;&gt;Node1</title>
<path fill="none" stroke="#404040" d="M713.757,-259.3326C710.0028,-246.7464 705.0927,-231.9239 699.5,-219 698.4362,-216.5417 697.3366,-214.0678 696.2065,-211.5847"/>
<polygon fill="none" stroke="#404040" points="696.1754,-211.5184 690.0036,-207.7888 691.0726,-200.6574 697.2443,-204.3869 696.1754,-211.5184"/>
<text text-anchor="middle" x="735.5" y="-222" font-family="Helvetica,sans-Serif" font-size="10.00" fill="#000000"> +mTCMdata</text>
</g>
<!-- Node11 -->
<g id="node11" class="node">
<title>Node11</title>
<polygon fill="none" stroke="#bfbfbf" points="905,-485.5 905,-542.5 1012,-542.5 1012,-485.5 905,-485.5"/>
<text text-anchor="middle" x="958.5" y="-530.5" font-family="Helvetica,sans-Serif" font-size="10.00" fill="#000000">anonymous:+@17</text>
<polyline fill="none" stroke="#bfbfbf" points="905,-523.5 1012,-523.5 "/>
<text text-anchor="middle" x="958.5" y="-511.5" font-family="Helvetica,sans-Serif" font-size="10.00" fill="#000000"> </text>
<polyline fill="none" stroke="#bfbfbf" points="905,-504.5 1012,-504.5 "/>
<text text-anchor="middle" x="958.5" y="-492.5" font-family="Helvetica,sans-Serif" font-size="10.00" fill="#000000"> </text>
</g>
<!-- Node11&#45;&gt;Node10 -->
<g id="edge14" class="edge">
<title>Node11&#45;&gt;Node10</title>
<path fill="none" stroke="#404040" d="M963.6627,-485.2951C968.6214,-447.6059 970.663,-382.0151 933.5,-346 908.7574,-322.0216 811.7459,-340.1394 779.5,-328 775.6043,-326.5334 771.7193,-324.7499 767.9111,-322.7596"/>
<polygon fill="none" stroke="#404040" points="767.8217,-322.7078 760.6249,-323.1627 757.437,-316.6945 764.6338,-316.2396 767.8217,-322.7078"/>
<text text-anchor="middle" x="982.5" y="-404" font-family="Helvetica,sans-Serif" font-size="10.00" fill="#000000"> +@17</text>
</g>
<!-- Node12 -->
<g id="node12" class="node">
<title>Node12</title>
<polygon fill="none" stroke="#bfbfbf" points="788,-259.5 788,-316.5 831,-316.5 831,-259.5 788,-259.5"/>
<text text-anchor="middle" x="809.5" y="-304.5" font-family="Helvetica,sans-Serif" font-size="10.00" fill="#000000">const</text>
<polyline fill="none" stroke="#bfbfbf" points="788,-297.5 831,-297.5 "/>
<text text-anchor="middle" x="809.5" y="-285.5" font-family="Helvetica,sans-Serif" font-size="10.00" fill="#000000"> </text>
<polyline fill="none" stroke="#bfbfbf" points="788,-278.5 831,-278.5 "/>
<text text-anchor="middle" x="809.5" y="-266.5" font-family="Helvetica,sans-Serif" font-size="10.00" fill="#000000"> </text>
</g>
<!-- Node12&#45;&gt;Node1 -->
<g id="edge16" class="edge">
<title>Node12&#45;&gt;Node1</title>
<path fill="none" stroke="#404040" d="M796.6412,-259.3704C790.0932,-246.3694 781.4176,-231.2057 771.5,-219 756.5768,-200.6338 738.5655,-182.8661 720.5528,-166.9203"/>
<polygon fill="none" stroke="#404040" points="720.2098,-166.6225 713.0569,-165.7085 711.1495,-158.7542 718.3024,-159.6682 720.2098,-166.6225"/>
<text text-anchor="middle" x="824" y="-222" font-family="Helvetica,sans-Serif" font-size="10.00" fill="#000000"> +gStartDescriptor</text>
</g>
</g>
</svg>
