<?xml version="1.0" encoding="UTF-8" standalone="no"?>
<!DOCTYPE svg PUBLIC "-//W3C//DTD SVG 1.1//EN"
 "http://www.w3.org/Graphics/SVG/1.1/DTD/svg11.dtd">
<!-- Generated by graphviz version 2.40.1 (20161225.0304)
 -->
<!-- Title: /home/travis/build/AliceO2Group/AliceO2/Framework/Utils/include/DPLUtils/DPLRawParser.h Pages: 1 -->
<!--zoomable 150 -->
<svg id="main" version="1.1" xmlns="http://www.w3.org/2000/svg" xmlns:xlink="http://www.w3.org/1999/xlink" xml:space="preserve" onload="init(evt)">
<style type="text/css"><![CDATA[
.edge:hover path { stroke: red; }
.edge:hover polygon { stroke: red; fill: red; }
]]></style>
<script type="text/javascript"><![CDATA[
var edges = document.getElementsByTagName('g');
if (edges && edges.length) {
  for (var i=0;i<edges.length;i++) {
    if (edges[i].id.substr(0,4)=='edge') {
      edges[i].setAttribute('class','edge');
    }
  }
}
]]></script>
        <defs>
                <circle id="rim" cx="0" cy="0" r="7"/>
                <circle id="rim2" cx="0" cy="0" r="3.5"/>
                <g id="zoomPlus">
                        <use xlink:href="#rim" fill="#404040">
                                <set attributeName="fill" to="#808080" begin="zoomplus.mouseover" end="zoomplus.mouseout"/>
                        </use>
                        <path d="M-4,0h8M0,-4v8" fill="none" stroke="white" stroke-width="1.5" pointer-events="none"/>
                </g>
                <g id="zoomMin">
                        <use xlink:href="#rim" fill="#404040">
                                <set attributeName="fill" to="#808080" begin="zoomminus.mouseover" end="zoomminus.mouseout"/>
                        </use>
                        <path d="M-4,0h8" fill="none" stroke="white" stroke-width="1.5" pointer-events="none"/>
                </g>
                <g id="dirArrow">
                        <path fill="none" stroke="white" stroke-width="1.5" d="M0,-3.0v7 M-2.5,-0.5L0,-3.0L2.5,-0.5"/>
                </g>
               <g id="resetDef">
                       <use xlink:href="#rim2" fill="#404040">
                               <set attributeName="fill" to="#808080" begin="reset.mouseover" end="reset.mouseout"/>
                       </use>
               </g>
        </defs>

<script type="text/javascript">
var viewWidth = 1468;
var viewHeight = 150;
var sectionId = 'dynsection-1';
</script>
<script xlink:href="../../svgpan.js"/>
<svg id="graph" class="graph">
<g id="viewport">
<title>/home/travis/build/AliceO2Group/AliceO2/Framework/Utils/include/DPLUtils/DPLRawParser.h</title>
<!-- Node86 -->
<g id="node1" class="node">
<title>Node86</title>
<polygon fill="#bfbfbf" stroke="#000000" points="734,-89.5 734,-141.5 875,-141.5 875,-89.5 734,-89.5"/>
<text text-anchor="start" x="742" y="-129.5" font-family="Helvetica,sans-Serif" font-size="10.00" fill="#000000">/home/travis/build</text>
<text text-anchor="start" x="742" y="-118.5" font-family="Helvetica,sans-Serif" font-size="10.00" fill="#000000">/AliceO2Group/AliceO2</text>
<text text-anchor="start" x="742" y="-107.5" font-family="Helvetica,sans-Serif" font-size="10.00" fill="#000000">/Framework/Utils/include</text>
<text text-anchor="middle" x="804.5" y="-96.5" font-family="Helvetica,sans-Serif" font-size="10.00" fill="#000000">/DPLUtils/DPLRawParser.h</text>
</g>
<!-- Node87 -->
<g id="node2" class="node">
<title>Node87</title>
<g id="a_node2"><a xlink:href="../../dd/df6/RawPixelDecoder_8cxx.html" target="_top" xlink:title="Alpide pixel reader for raw data processing. ">
<polygon fill="none" stroke="#000000" points="0,-.5 0,-52.5 215,-52.5 215,-.5 0,-.5"/>
<text text-anchor="start" x="8" y="-40.5" font-family="Helvetica,sans-Serif" font-size="10.00" fill="#000000">/home/travis/build</text>
<text text-anchor="start" x="8" y="-29.5" font-family="Helvetica,sans-Serif" font-size="10.00" fill="#000000">/AliceO2Group/AliceO2</text>
<text text-anchor="start" x="8" y="-18.5" font-family="Helvetica,sans-Serif" font-size="10.00" fill="#000000">/Detectors/ITSMFT/common</text>
<text text-anchor="middle" x="107.5" y="-7.5" font-family="Helvetica,sans-Serif" font-size="10.00" fill="#000000">/reconstruction/src/RawPixelDecoder.cxx</text>
</a>
</g>
</g>
<!-- Node86&#45;&gt;Node87 -->
<g id="edge1" class="edge">
<title>Node86&#45;&gt;Node87</title>
<path fill="none" stroke="#191970" d="M723.3587,-109.7281C610.84,-101.0494 401.3002,-82.4471 224.5,-53 221.4184,-52.4867 218.2962,-51.9426 215.1488,-51.3731"/>
<polygon fill="#191970" stroke="#191970" points="723.3714,-113.2392 733.6091,-110.5119 723.9051,-106.2595 723.3714,-113.2392"/>
</g>
<!-- Node88 -->
<g id="node3" class="node">
<title>Node88</title>
<g id="a_node3"><a xlink:href="../../d0/d75/DataDecoderSpec_8cxx.html" target="_top" xlink:title="/home/travis/build\l/AliceO2Group/AliceO2\l/Detectors/MUON/MCH/Workflow\l/src/DataDecoderSpec.cxx">
<polygon fill="none" stroke="#000000" points="233.5,-.5 233.5,-52.5 407.5,-52.5 407.5,-.5 233.5,-.5"/>
<text text-anchor="start" x="241.5" y="-40.5" font-family="Helvetica,sans-Serif" font-size="10.00" fill="#000000">/home/travis/build</text>
<text text-anchor="start" x="241.5" y="-29.5" font-family="Helvetica,sans-Serif" font-size="10.00" fill="#000000">/AliceO2Group/AliceO2</text>
<text text-anchor="start" x="241.5" y="-18.5" font-family="Helvetica,sans-Serif" font-size="10.00" fill="#000000">/Detectors/MUON/MCH/Workflow</text>
<text text-anchor="middle" x="320.5" y="-7.5" font-family="Helvetica,sans-Serif" font-size="10.00" fill="#000000">/src/DataDecoderSpec.cxx</text>
</a>
</g>
</g>
<!-- Node86&#45;&gt;Node88 -->
<g id="edge2" class="edge">
<title>Node86&#45;&gt;Node88</title>
<path fill="none" stroke="#191970" d="M723.6273,-105.1061C644.8015,-94.357 521.7716,-75.936 416.5,-53 413.5436,-52.3559 410.5428,-51.676 407.5175,-50.9682"/>
<polygon fill="#191970" stroke="#191970" points="723.5924,-108.6332 733.9717,-106.5072 724.5321,-101.6966 723.5924,-108.6332"/>
</g>
<!-- Node89 -->
<g id="node4" class="node">
<title>Node89</title>
<g id="a_node4"><a xlink:href="../../dd/da0/digits-sink-workflow_8cxx.html" target="_top" xlink:title="This is an executable that dumps to a file on disk the digits received via DPL. ">
<polygon fill="none" stroke="#000000" points="425.5,-.5 425.5,-52.5 599.5,-52.5 599.5,-.5 425.5,-.5"/>
<text text-anchor="start" x="433.5" y="-40.5" font-family="Helvetica,sans-Serif" font-size="10.00" fill="#000000">/home/travis/build</text>
<text text-anchor="start" x="433.5" y="-29.5" font-family="Helvetica,sans-Serif" font-size="10.00" fill="#000000">/AliceO2Group/AliceO2</text>
<text text-anchor="start" x="433.5" y="-18.5" font-family="Helvetica,sans-Serif" font-size="10.00" fill="#000000">/Detectors/MUON/MCH/Workflow</text>
<text text-anchor="middle" x="512.5" y="-7.5" font-family="Helvetica,sans-Serif" font-size="10.00" fill="#000000">/src/digits&#45;sink&#45;workflow.cxx</text>
</a>
</g>
</g>
<!-- Node86&#45;&gt;Node89 -->
<g id="edge3" class="edge">
<title>Node86&#45;&gt;Node89</title>
<path fill="none" stroke="#191970" d="M724.032,-90.9738C684.8424,-79.029 637.7041,-64.6615 597.8816,-52.5239"/>
<polygon fill="#191970" stroke="#191970" points="723.2289,-94.3879 733.8149,-93.9556 725.2699,-87.692 723.2289,-94.3879"/>
</g>
<!-- Node90 -->
<g id="node5" class="node">
<title>Node90</title>
<g id="a_node5"><a xlink:href="../../db/d1c/file-to-digits-workflow_8cxx.html" target="_top" xlink:title="/home/travis/build\l/AliceO2Group/AliceO2\l/Detectors/MUON/MCH/Workflow\l/src/file&#45;to&#45;digits&#45;workflow.cxx">
<polygon fill="none" stroke="#000000" points="617.5,-.5 617.5,-52.5 791.5,-52.5 791.5,-.5 617.5,-.5"/>
<text text-anchor="start" x="625.5" y="-40.5" font-family="Helvetica,sans-Serif" font-size="10.00" fill="#000000">/home/travis/build</text>
<text text-anchor="start" x="625.5" y="-29.5" font-family="Helvetica,sans-Serif" font-size="10.00" fill="#000000">/AliceO2Group/AliceO2</text>
<text text-anchor="start" x="625.5" y="-18.5" font-family="Helvetica,sans-Serif" font-size="10.00" fill="#000000">/Detectors/MUON/MCH/Workflow</text>
<text text-anchor="middle" x="704.5" y="-7.5" font-family="Helvetica,sans-Serif" font-size="10.00" fill="#000000">/src/file&#45;to&#45;digits&#45;workflow.cxx</text>
</a>
</g>
</g>
<!-- Node86&#45;&gt;Node90 -->
<g id="edge4" class="edge">
<title>Node86&#45;&gt;Node90</title>
<path fill="none" stroke="#191970" d="M767.5062,-82.5755C756.3711,-72.6653 744.3111,-61.9319 733.7519,-52.5341"/>
<polygon fill="#191970" stroke="#191970" points="765.2407,-85.2446 775.0376,-89.2784 769.8945,-80.0156 765.2407,-85.2446"/>
</g>
<!-- Node91 -->
<g id="node6" class="node">
<title>Node91</title>
<g id="a_node6"><a xlink:href="../../d3/d09/testRawReaderWriter_8cxx.html" target="_top" xlink:title="/home/travis/build\l/AliceO2Group/AliceO2\l/Detectors/Raw/test/testRawReader\lWriter.cxx">
<polygon fill="none" stroke="#000000" points="810,-.5 810,-52.5 999,-52.5 999,-.5 810,-.5"/>
<text text-anchor="start" x="818" y="-40.5" font-family="Helvetica,sans-Serif" font-size="10.00" fill="#000000">/home/travis/build</text>
<text text-anchor="start" x="818" y="-29.5" font-family="Helvetica,sans-Serif" font-size="10.00" fill="#000000">/AliceO2Group/AliceO2</text>
<text text-anchor="start" x="818" y="-18.5" font-family="Helvetica,sans-Serif" font-size="10.00" fill="#000000">/Detectors/Raw/test/testRawReader</text>
<text text-anchor="middle" x="904.5" y="-7.5" font-family="Helvetica,sans-Serif" font-size="10.00" fill="#000000">Writer.cxx</text>
</a>
</g>
</g>
<!-- Node86&#45;&gt;Node91 -->
<g id="edge5" class="edge">
<title>Node86&#45;&gt;Node91</title>
<path fill="none" stroke="#191970" d="M841.4938,-82.5755C852.6289,-72.6653 864.6889,-61.9319 875.2481,-52.5341"/>
<polygon fill="#191970" stroke="#191970" points="839.1055,-80.0156 833.9624,-89.2784 843.7593,-85.2446 839.1055,-80.0156"/>
</g>
<!-- Node92 -->
<g id="node7" class="node">
<title>Node92</title>
<g id="a_node7"><a xlink:href="../../da/d78/CATrackerSpec_8cxx.html" target="_top" xlink:title="Processor spec for running TPC CA tracking. ">
<polygon fill="none" stroke="#000000" points="1017.5,-.5 1017.5,-52.5 1153.5,-52.5 1153.5,-.5 1017.5,-.5"/>
<text text-anchor="start" x="1025.5" y="-40.5" font-family="Helvetica,sans-Serif" font-size="10.00" fill="#000000">/home/travis/build</text>
<text text-anchor="start" x="1025.5" y="-29.5" font-family="Helvetica,sans-Serif" font-size="10.00" fill="#000000">/AliceO2Group/AliceO2</text>
<text text-anchor="start" x="1025.5" y="-18.5" font-family="Helvetica,sans-Serif" font-size="10.00" fill="#000000">/Detectors/TPC/workflow</text>
<text text-anchor="middle" x="1085.5" y="-7.5" font-family="Helvetica,sans-Serif" font-size="10.00" fill="#000000">/src/CATrackerSpec.cxx</text>
</a>
</g>
</g>
<!-- Node86&#45;&gt;Node92 -->
<g id="edge6" class="edge">
<title>Node86&#45;&gt;Node92</title>
<path fill="none" stroke="#191970" d="M884.9172,-91.5542C922.5474,-80.1721 967.9177,-66.1957 1008.5,-53 1011.3234,-52.0819 1014.2017,-51.1362 1017.1069,-50.1735"/>
<polygon fill="#191970" stroke="#191970" points="883.5852,-88.3002 875.0235,-94.541 885.6083,-95.0015 883.5852,-88.3002"/>
</g>
<!-- Node93 -->
<g id="node8" class="node">
<title>Node93</title>
<g id="a_node8"><a xlink:href="../../d4/d96/raw-parser_8cxx.html" target="_top" xlink:title="/home/travis/build\l/AliceO2Group/AliceO2\l/Framework/Utils/src/raw\l&#45;parser.cxx">
<polygon fill="none" stroke="#000000" points="1172,-.5 1172,-52.5 1309,-52.5 1309,-.5 1172,-.5"/>
<text text-anchor="start" x="1180" y="-40.5" font-family="Helvetica,sans-Serif" font-size="10.00" fill="#000000">/home/travis/build</text>
<text text-anchor="start" x="1180" y="-29.5" font-family="Helvetica,sans-Serif" font-size="10.00" fill="#000000">/AliceO2Group/AliceO2</text>
<text text-anchor="start" x="1180" y="-18.5" font-family="Helvetica,sans-Serif" font-size="10.00" fill="#000000">/Framework/Utils/src/raw</text>
<text text-anchor="middle" x="1240.5" y="-7.5" font-family="Helvetica,sans-Serif" font-size="10.00" fill="#000000">&#45;parser.cxx</text>
</a>
</g>
</g>
<!-- Node86&#45;&gt;Node93 -->
<g id="edge7" class="edge">
<title>Node86&#45;&gt;Node93</title>
<path fill="none" stroke="#191970" d="M885.208,-105.0501C958.2648,-94.7325 1068.5039,-77.0186 1162.5,-53 1165.5485,-52.221 1168.649,-51.3802 1171.7702,-50.494"/>
<polygon fill="#191970" stroke="#191970" points="884.5704,-101.6051 875.1517,-106.4568 885.5402,-108.5376 884.5704,-101.6051"/>
</g>
<!-- Node94 -->
<g id="node9" class="node">
<title>Node94</title>
<g id="a_node9"><a xlink:href="../../d0/d6f/test__DPLRawParser_8cxx.html" target="_top" xlink:title="/home/travis/build\l/AliceO2Group/AliceO2\l/Framework/Utils/test\l/test_DPLRawParser.cxx">
<polygon fill="none" stroke="#000000" points="1327,-.5 1327,-52.5 1460,-52.5 1460,-.5 1327,-.5"/>
<text text-anchor="start" x="1335" y="-40.5" font-family="Helvetica,sans-Serif" font-size="10.00" fill="#000000">/home/travis/build</text>
<text text-anchor="start" x="1335" y="-29.5" font-family="Helvetica,sans-Serif" font-size="10.00" fill="#000000">/AliceO2Group/AliceO2</text>
<text text-anchor="start" x="1335" y="-18.5" font-family="Helvetica,sans-Serif" font-size="10.00" fill="#000000">/Framework/Utils/test</text>
<text text-anchor="middle" x="1393.5" y="-7.5" font-family="Helvetica,sans-Serif" font-size="10.00" fill="#000000">/test_DPLRawParser.cxx</text>
</a>
</g>
</g>
<!-- Node86&#45;&gt;Node94 -->
<g id="edge8" class="edge">
<title>Node86&#45;&gt;Node94</title>
<path fill="none" stroke="#191970" d="M885.4219,-111.1402C987.4961,-104.3943 1167.8877,-88.3159 1318.5,-53 1321.189,-52.3695 1323.9156,-51.6757 1326.6576,-50.9325"/>
<polygon fill="#191970" stroke="#191970" points="884.9397,-107.664 875.1866,-111.8026 885.3918,-114.6494 884.9397,-107.664"/>
</g>
</g>
</svg>
        <g id="navigator" transform="translate(0 0)" fill="#404254">
                <rect fill="#f2f5e9" fill-opacity="0.5" stroke="#606060" stroke-width=".5" x="0" y="0" width="60" height="60"/>
                <use id="zoomplus" xlink:href="#zoomPlus" x="17" y="9" onmousedown="handleZoom(evt,'in')"/>
                <use id="zoomminus" xlink:href="#zoomMin" x="42" y="9" onmousedown="handleZoom(evt,'out')"/>
                <use id="reset" xlink:href="#resetDef" x="30" y="36" onmousedown="handleReset()"/>
                <g id="arrowUp" xlink:href="#dirArrow" transform="translate(30 24)" onmousedown="handlePan(0,-1)">
                  <use xlink:href="#rim" fill="#404040">
                        <set attributeName="fill" to="#808080" begin="arrowUp.mouseover" end="arrowUp.mouseout"/>
                  </use>
                  <path fill="none" stroke="white" stroke-width="1.5" d="M0,-3.0v7 M-2.5,-0.5L0,-3.0L2.5,-0.5"/>
                </g>
                <g id="arrowRight" xlink:href="#dirArrow" transform="rotate(90) translate(36 -43)" onmousedown="handlePan(1,0)">
                  <use xlink:href="#rim" fill="#404040">
                        <set attributeName="fill" to="#808080" begin="arrowRight.mouseover" end="arrowRight.mouseout"/>
                  </use>
                  <path fill="none" stroke="white" stroke-width="1.5" d="M0,-3.0v7 M-2.5,-0.5L0,-3.0L2.5,-0.5"/>
                </g>
                <g id="arrowDown" xlink:href="#dirArrow" transform="rotate(180) translate(-30 -48)" onmousedown="handlePan(0,1)">
                  <use xlink:href="#rim" fill="#404040">
                        <set attributeName="fill" to="#808080" begin="arrowDown.mouseover" end="arrowDown.mouseout"/>
                  </use>
                  <path fill="none" stroke="white" stroke-width="1.5" d="M0,-3.0v7 M-2.5,-0.5L0,-3.0L2.5,-0.5"/>
                </g>
                <g id="arrowLeft" xlink:href="#dirArrow" transform="rotate(270) translate(-36 17)" onmousedown="handlePan(-1,0)">
                  <use xlink:href="#rim" fill="#404040">
                        <set attributeName="fill" to="#808080" begin="arrowLeft.mouseover" end="arrowLeft.mouseout"/>
                  </use>
                  <path fill="none" stroke="white" stroke-width="1.5" d="M0,-3.0v7 M-2.5,-0.5L0,-3.0L2.5,-0.5"/>
                </g>
        </g>
        <svg viewBox="0 0 15 15" width="100%" height="30px" preserveAspectRatio="xMaxYMin meet">
         <g id="arrow_out" transform="scale(0.3 0.3)">
          <a xlink:href="DPLRawParser_8h__dep__incl_org.svg" target="_base">
           <rect id="button" ry="5" rx="5" y="6" x="6" height="38" width="38"
                fill="#f2f5e9" fill-opacity="0.5" stroke="#606060" stroke-width="1.0"/>
           <path id="arrow"
             d="M 11.500037,31.436501 C 11.940474,20.09759 22.043105,11.32322 32.158766,21.979434 L 37.068811,17.246167 C 37.068811,17.246167 37.088388,32 37.088388,32 L 22.160133,31.978069 C 22.160133,31.978069 26.997745,27.140456 26.997745,27.140456 C 18.528582,18.264221 13.291696,25.230495 11.500037,31.436501 z"
             style="fill:#404040;"/>
          </a>
         </g>
        </svg>
</svg>
