<?xml version="1.0" encoding="UTF-8" standalone="no"?>
<!DOCTYPE svg PUBLIC "-//W3C//DTD SVG 1.1//EN"
 "http://www.w3.org/Graphics/SVG/1.1/DTD/svg11.dtd">
<!-- Generated by graphviz version 2.40.1 (20161225.0304)
 -->
<!-- Title: /home/travis/build/AliceO2Group/AliceO2/GPU/GPUTracking/Base/GPURawData.h Pages: 1 -->
<svg width="904pt" height="240pt"
 viewBox="0.00 0.00 904.00 240.00" xmlns="http://www.w3.org/2000/svg" xmlns:xlink="http://www.w3.org/1999/xlink">
<g id="graph0" class="graph" transform="scale(1 1) rotate(0) translate(4 236)">
<title>/home/travis/build/AliceO2Group/AliceO2/GPU/GPUTracking/Base/GPURawData.h</title>
<!-- Node0 -->
<g id="node1" class="node">
<title>Node0</title>
<polygon fill="#bfbfbf" stroke="#000000" points="225,-179.5 225,-231.5 357,-231.5 357,-179.5 225,-179.5"/>
<text text-anchor="start" x="233" y="-219.5" font-family="Helvetica,sans-Serif" font-size="10.00" fill="#000000">/home/travis/build</text>
<text text-anchor="start" x="233" y="-208.5" font-family="Helvetica,sans-Serif" font-size="10.00" fill="#000000">/AliceO2Group/AliceO2</text>
<text text-anchor="start" x="233" y="-197.5" font-family="Helvetica,sans-Serif" font-size="10.00" fill="#000000">/GPU/GPUTracking/Base</text>
<text text-anchor="middle" x="291" y="-186.5" font-family="Helvetica,sans-Serif" font-size="10.00" fill="#000000">/GPURawData.h</text>
</g>
<!-- Node1 -->
<g id="node2" class="node">
<title>Node1</title>
<g id="a_node2"><a xlink:href="../../df/d21/GPUCommonDef_8h.html" target="_top" xlink:title="GPUCommonDef.h">
<polygon fill="none" stroke="#000000" points="141.5,-62 141.5,-81 248.5,-81 248.5,-62 141.5,-62"/>
<text text-anchor="middle" x="195" y="-69" font-family="Helvetica,sans-Serif" font-size="10.00" fill="#000000">GPUCommonDef.h</text>
</a>
</g>
</g>
<!-- Node0&#45;&gt;Node1 -->
<g id="edge1" class="edge">
<title>Node0&#45;&gt;Node1</title>
<path fill="none" stroke="#191970" d="M272.2623,-179.3453C253.2828,-152.853 224.4328,-112.5833 207.8828,-89.4822"/>
<polygon fill="#191970" stroke="#191970" points="210.6632,-87.3534 201.9941,-81.2626 204.9728,-91.4302 210.6632,-87.3534"/>
</g>
<!-- Node4 -->
<g id="node5" class="node">
<title>Node4</title>
<g id="a_node5"><a xlink:href="../../d4/d78/DataFormats_2Headers_2include_2Headers_2RAWDataHeader_8h.html" target="_top" xlink:title="Headers/RAWDataHeader.h">
<polygon fill="none" stroke="#000000" points="266.5,-62 266.5,-81 415.5,-81 415.5,-62 266.5,-62"/>
<text text-anchor="middle" x="341" y="-69" font-family="Helvetica,sans-Serif" font-size="10.00" fill="#000000">Headers/RAWDataHeader.h</text>
</a>
</g>
</g>
<!-- Node0&#45;&gt;Node4 -->
<g id="edge4" class="edge">
<title>Node0&#45;&gt;Node4</title>
<path fill="none" stroke="#191970" d="M294.8706,-179.2174C297.8326,-162.6836 302.6748,-141.1238 310,-123 314.6927,-111.3895 321.7975,-99.3479 328.022,-89.8305"/>
<polygon fill="#191970" stroke="#191970" points="331.1154,-91.5049 333.831,-81.264 325.3218,-87.5762 331.1154,-91.5049"/>
</g>
<!-- Node6 -->
<g id="node7" class="node">
<title>Node6</title>
<g id="a_node7"><a xlink:href="../../d6/dec/Raw_2include_2DetectorsRaw_2RDHUtils_8h.html" target="_top" xlink:title="DetectorsRaw/RDHUtils.h">
<polygon fill="none" stroke="#000000" points="319.5,-123.5 319.5,-142.5 460.5,-142.5 460.5,-123.5 319.5,-123.5"/>
<text text-anchor="middle" x="390" y="-130.5" font-family="Helvetica,sans-Serif" font-size="10.00" fill="#000000">DetectorsRaw/RDHUtils.h</text>
</a>
</g>
</g>
<!-- Node0&#45;&gt;Node6 -->
<g id="edge6" class="edge">
<title>Node0&#45;&gt;Node6</title>
<path fill="none" stroke="#191970" d="M326.7413,-179.3258C340.8248,-169.0122 356.5224,-157.5165 368.757,-148.5567"/>
<polygon fill="#191970" stroke="#191970" points="370.9811,-151.2662 376.9812,-142.534 366.8453,-145.6186 370.9811,-151.2662"/>
</g>
<!-- Node2 -->
<g id="node3" class="node">
<title>Node2</title>
<g id="a_node3"><a xlink:href="../../d5/d93/GPUCommonDefSettings_8h.html" target="_top" xlink:title="GPUCommonDefSettings.h">
<polygon fill="none" stroke="#000000" points="142,-.5 142,-19.5 290,-19.5 290,-.5 142,-.5"/>
<text text-anchor="middle" x="216" y="-7.5" font-family="Helvetica,sans-Serif" font-size="10.00" fill="#000000">GPUCommonDefSettings.h</text>
</a>
</g>
</g>
<!-- Node1&#45;&gt;Node2 -->
<g id="edge2" class="edge">
<title>Node1&#45;&gt;Node2</title>
<path fill="none" stroke="#191970" d="M198.2813,-61.8906C201.2535,-53.1862 205.7214,-40.1015 209.427,-29.2494"/>
<polygon fill="#191970" stroke="#191970" points="212.7532,-30.3394 212.6725,-19.7449 206.1288,-28.0773 212.7532,-30.3394"/>
</g>
<!-- Node3 -->
<g id="node4" class="node">
<title>Node3</title>
<g id="a_node4"><a xlink:href="../../da/d5a/GPUCommonDefAPI_8h.html" target="_top" xlink:title="GPUCommonDefAPI.h">
<polygon fill="none" stroke="#000000" points="0,-.5 0,-19.5 124,-19.5 124,-.5 0,-.5"/>
<text text-anchor="middle" x="62" y="-7.5" font-family="Helvetica,sans-Serif" font-size="10.00" fill="#000000">GPUCommonDefAPI.h</text>
</a>
</g>
</g>
<!-- Node1&#45;&gt;Node3 -->
<g id="edge3" class="edge">
<title>Node1&#45;&gt;Node3</title>
<path fill="none" stroke="#191970" d="M174.2188,-61.8906C152.1606,-51.6908 117.095,-35.4763 92.0331,-23.8875"/>
<polygon fill="#191970" stroke="#191970" points="93.1809,-20.5622 82.6353,-19.5419 90.2429,-26.9158 93.1809,-20.5622"/>
</g>
<!-- Node5 -->
<g id="node6" class="node">
<title>Node5</title>
<polygon fill="none" stroke="#bfbfbf" points="378,-.5 378,-19.5 428,-19.5 428,-.5 378,-.5"/>
<text text-anchor="middle" x="403" y="-7.5" font-family="Helvetica,sans-Serif" font-size="10.00" fill="#000000">cstdint</text>
</g>
<!-- Node4&#45;&gt;Node5 -->
<g id="edge5" class="edge">
<title>Node4&#45;&gt;Node5</title>
<path fill="none" stroke="#191970" d="M350.6875,-61.8906C360.0959,-52.5581 374.5807,-38.1902 385.9249,-26.9374"/>
<polygon fill="#191970" stroke="#191970" points="388.5411,-29.2722 393.1759,-19.7449 383.6114,-24.3024 388.5411,-29.2722"/>
</g>
<!-- Node6&#45;&gt;Node1 -->
<g id="edge7" class="edge">
<title>Node6&#45;&gt;Node1</title>
<path fill="none" stroke="#191970" d="M359.5313,-123.3906C326.0456,-112.8298 272.1147,-95.8208 235.188,-84.1747"/>
<polygon fill="#191970" stroke="#191970" points="235.8445,-80.7118 225.2548,-81.0419 233.739,-87.3877 235.8445,-80.7118"/>
</g>
<!-- Node6&#45;&gt;Node4 -->
<g id="edge16" class="edge">
<title>Node6&#45;&gt;Node4</title>
<path fill="none" stroke="#191970" d="M382.3438,-123.3906C375.0511,-114.2376 363.8993,-100.2409 355.0148,-89.09"/>
<polygon fill="#191970" stroke="#191970" points="357.733,-86.8849 348.7642,-81.2449 352.2583,-91.247 357.733,-86.8849"/>
</g>
<!-- Node7 -->
<g id="node8" class="node">
<title>Node7</title>
<g id="a_node8"><a xlink:href="../../d2/d45/GPUCommonRtypes_8h.html" target="_top" xlink:title="GPUCommonRtypes.h">
<polygon fill="none" stroke="#000000" points="433.5,-62 433.5,-81 558.5,-81 558.5,-62 433.5,-62"/>
<text text-anchor="middle" x="496" y="-69" font-family="Helvetica,sans-Serif" font-size="10.00" fill="#000000">GPUCommonRtypes.h</text>
</a>
</g>
</g>
<!-- Node6&#45;&gt;Node7 -->
<g id="edge8" class="edge">
<title>Node6&#45;&gt;Node7</title>
<path fill="none" stroke="#191970" d="M406.5625,-123.3906C423.7537,-113.4165 450.8582,-97.6908 470.7266,-86.1633"/>
<polygon fill="#191970" stroke="#191970" points="472.6606,-89.0877 479.5538,-81.0419 469.1477,-83.033 472.6606,-89.0877"/>
</g>
<!-- Node9 -->
<g id="node10" class="node">
<title>Node9</title>
<g id="a_node10"><a xlink:href="../../d9/d80/InteractionRecord_8h.html" target="_top" xlink:title="CommonDataFormat/Interaction\lRecord.h">
<polygon fill="none" stroke="#000000" points="577,-56.5 577,-86.5 751,-86.5 751,-56.5 577,-56.5"/>
<text text-anchor="start" x="585" y="-74.5" font-family="Helvetica,sans-Serif" font-size="10.00" fill="#000000">CommonDataFormat/Interaction</text>
<text text-anchor="middle" x="664" y="-63.5" font-family="Helvetica,sans-Serif" font-size="10.00" fill="#000000">Record.h</text>
</a>
</g>
</g>
<!-- Node6&#45;&gt;Node9 -->
<g id="edge10" class="edge">
<title>Node6&#45;&gt;Node9</title>
<path fill="none" stroke="#191970" d="M432.5119,-123.4581C473.7312,-114.2063 537.2,-99.9606 587.2617,-88.7241"/>
<polygon fill="#191970" stroke="#191970" points="588.094,-92.1245 597.0847,-86.5193 586.5609,-85.2944 588.094,-92.1245"/>
</g>
<!-- Node8 -->
<g id="node9" class="node">
<title>Node8</title>
<polygon fill="none" stroke="#bfbfbf" points="481.5,-.5 481.5,-19.5 540.5,-19.5 540.5,-.5 481.5,-.5"/>
<text text-anchor="middle" x="511" y="-7.5" font-family="Helvetica,sans-Serif" font-size="10.00" fill="#000000">Rtypes.h</text>
</g>
<!-- Node7&#45;&gt;Node8 -->
<g id="edge9" class="edge">
<title>Node7&#45;&gt;Node8</title>
<path fill="none" stroke="#191970" d="M498.3438,-61.8906C500.4449,-53.276 503.5925,-40.3708 506.223,-29.5858"/>
<polygon fill="#191970" stroke="#191970" points="509.6539,-30.2894 508.6232,-19.7449 502.8532,-28.6307 509.6539,-30.2894"/>
</g>
<!-- Node9&#45;&gt;Node5 -->
<g id="edge14" class="edge">
<title>Node9&#45;&gt;Node5</title>
<path fill="none" stroke="#191970" d="M600.1522,-56.4554C549.0933,-44.4243 479.4265,-28.0085 438.0389,-18.2563"/>
<polygon fill="#191970" stroke="#191970" points="438.6906,-14.8141 428.1544,-15.9272 437.0851,-21.6275 438.6906,-14.8141"/>
</g>
<!-- Node9&#45;&gt;Node8 -->
<g id="edge11" class="edge">
<title>Node9&#45;&gt;Node8</title>
<path fill="none" stroke="#191970" d="M626.572,-56.4554C601.3794,-46.329 568.4593,-33.0964 544.2004,-23.3453"/>
<polygon fill="#191970" stroke="#191970" points="545.2934,-20.0125 534.7096,-19.5303 542.6827,-26.5074 545.2934,-20.0125"/>
</g>
<!-- Node10 -->
<g id="node11" class="node">
<title>Node10</title>
<polygon fill="none" stroke="#bfbfbf" points="573.5,-.5 573.5,-19.5 622.5,-19.5 622.5,-.5 573.5,-.5"/>
<text text-anchor="middle" x="598" y="-7.5" font-family="Helvetica,sans-Serif" font-size="10.00" fill="#000000">iosfwd</text>
</g>
<!-- Node9&#45;&gt;Node10 -->
<g id="edge12" class="edge">
<title>Node9&#45;&gt;Node10</title>
<path fill="none" stroke="#191970" d="M647.6854,-56.2977C638.0467,-47.3163 625.8309,-35.9334 615.9241,-26.702"/>
<polygon fill="#191970" stroke="#191970" points="618.2696,-24.1036 608.5674,-19.8469 613.4975,-29.2249 618.2696,-24.1036"/>
</g>
<!-- Node11 -->
<g id="node12" class="node">
<title>Node11</title>
<polygon fill="none" stroke="#bfbfbf" points="640.5,-.5 640.5,-19.5 687.5,-19.5 687.5,-.5 640.5,-.5"/>
<text text-anchor="middle" x="664" y="-7.5" font-family="Helvetica,sans-Serif" font-size="10.00" fill="#000000">cmath</text>
</g>
<!-- Node9&#45;&gt;Node11 -->
<g id="edge13" class="edge">
<title>Node9&#45;&gt;Node11</title>
<path fill="none" stroke="#191970" d="M664,-56.2977C664,-48.3834 664,-38.6043 664,-30.0759"/>
<polygon fill="#191970" stroke="#191970" points="667.5001,-29.8469 664,-19.8469 660.5001,-29.847 667.5001,-29.8469"/>
</g>
<!-- Node12 -->
<g id="node13" class="node">
<title>Node12</title>
<g id="a_node13"><a xlink:href="../../d4/dc6/LHCConstants_8h.html" target="_top" xlink:title="Header to collect LHC related constants. ">
<polygon fill="none" stroke="#000000" points="706,-.5 706,-19.5 896,-19.5 896,-.5 706,-.5"/>
<text text-anchor="middle" x="801" y="-7.5" font-family="Helvetica,sans-Serif" font-size="10.00" fill="#000000">CommonConstants/LHCConstants.h</text>
</a>
</g>
</g>
<!-- Node9&#45;&gt;Node12 -->
<g id="edge15" class="edge">
<title>Node9&#45;&gt;Node12</title>
<path fill="none" stroke="#191970" d="M697.514,-56.4554C719.7712,-46.464 748.7647,-33.4487 770.3985,-23.7372"/>
<polygon fill="#191970" stroke="#191970" points="772.0803,-26.8187 779.7699,-19.5303 769.2135,-20.4327 772.0803,-26.8187"/>
</g>
</g>
</svg>
