<?xml version="1.0" encoding="UTF-8" standalone="no"?>
<!DOCTYPE svg PUBLIC "-//W3C//DTD SVG 1.1//EN"
 "http://www.w3.org/Graphics/SVG/1.1/DTD/svg11.dtd">
<!-- Generated by graphviz version 2.40.1 (20161225.0304)
 -->
<!-- Title: /home/travis/build/AliceO2Group/AliceO2/GPU/TPCFastTransformation/Spline1D.cxx Pages: 1 -->
<!--zoomable 341 -->
<svg id="main" version="1.1" xmlns="http://www.w3.org/2000/svg" xmlns:xlink="http://www.w3.org/1999/xlink" xml:space="preserve" onload="init(evt)">
<style type="text/css"><![CDATA[
.edge:hover path { stroke: red; }
.edge:hover polygon { stroke: red; fill: red; }
]]></style>
<script type="text/javascript"><![CDATA[
var edges = document.getElementsByTagName('g');
if (edges && edges.length) {
  for (var i=0;i<edges.length;i++) {
    if (edges[i].id.substr(0,4)=='edge') {
      edges[i].setAttribute('class','edge');
    }
  }
}
]]></script>
        <defs>
                <circle id="rim" cx="0" cy="0" r="7"/>
                <circle id="rim2" cx="0" cy="0" r="3.5"/>
                <g id="zoomPlus">
                        <use xlink:href="#rim" fill="#404040">
                                <set attributeName="fill" to="#808080" begin="zoomplus.mouseover" end="zoomplus.mouseout"/>
                        </use>
                        <path d="M-4,0h8M0,-4v8" fill="none" stroke="white" stroke-width="1.5" pointer-events="none"/>
                </g>
                <g id="zoomMin">
                        <use xlink:href="#rim" fill="#404040">
                                <set attributeName="fill" to="#808080" begin="zoomminus.mouseover" end="zoomminus.mouseout"/>
                        </use>
                        <path d="M-4,0h8" fill="none" stroke="white" stroke-width="1.5" pointer-events="none"/>
                </g>
                <g id="dirArrow">
                        <path fill="none" stroke="white" stroke-width="1.5" d="M0,-3.0v7 M-2.5,-0.5L0,-3.0L2.5,-0.5"/>
                </g>
               <g id="resetDef">
                       <use xlink:href="#rim2" fill="#404040">
                               <set attributeName="fill" to="#808080" begin="reset.mouseover" end="reset.mouseout"/>
                       </use>
               </g>
        </defs>

<script type="text/javascript">
var viewWidth = 1501;
var viewHeight = 341;
var sectionId = 'dynsection-0';
</script>
<script xlink:href="../../svgpan.js"/>
<svg id="graph" class="graph">
<g id="viewport">
<title>/home/travis/build/AliceO2Group/AliceO2/GPU/TPCFastTransformation/Spline1D.cxx</title>
<!-- Node0 -->
<g id="node1" class="node">
<title>Node0</title>
<polygon fill="#bfbfbf" stroke="#000000" points="872.5,-280.5 872.5,-332.5 1027.5,-332.5 1027.5,-280.5 872.5,-280.5"/>
<text text-anchor="start" x="880.5" y="-320.5" font-family="Helvetica,sans-Serif" font-size="10.00" fill="#000000">/home/travis/build</text>
<text text-anchor="start" x="880.5" y="-309.5" font-family="Helvetica,sans-Serif" font-size="10.00" fill="#000000">/AliceO2Group/AliceO2</text>
<text text-anchor="start" x="880.5" y="-298.5" font-family="Helvetica,sans-Serif" font-size="10.00" fill="#000000">/GPU/TPCFastTransformation</text>
<text text-anchor="middle" x="950" y="-287.5" font-family="Helvetica,sans-Serif" font-size="10.00" fill="#000000">/Spline1D.cxx</text>
</g>
<!-- Node1 -->
<g id="node2" class="node">
<title>Node1</title>
<g id="a_node2"><a xlink:href="../../de/da6/Spline1D_8h.html" target="_top" xlink:title="Definition of Spline1D class. ">
<polygon fill="none" stroke="#000000" points="511.5,-168.5 511.5,-187.5 580.5,-187.5 580.5,-168.5 511.5,-168.5"/>
<text text-anchor="middle" x="546" y="-175.5" font-family="Helvetica,sans-Serif" font-size="10.00" fill="#000000">Spline1D.h</text>
</a>
</g>
</g>
<!-- Node0&#45;&gt;Node1 -->
<g id="edge1" class="edge">
<title>Node0&#45;&gt;Node1</title>
<path fill="none" stroke="#191970" d="M872.3743,-298.9533C809.2377,-290.8665 718.8346,-274.7878 645,-244 614.909,-231.4525 584.2921,-209.2904 565.235,-194.138"/>
<polygon fill="#191970" stroke="#191970" points="567.3067,-191.3118 557.3359,-187.7291 562.8963,-196.7476 567.3067,-191.3118"/>
</g>
<!-- Node10 -->
<g id="node11" class="node">
<title>Node10</title>
<polygon fill="none" stroke="#bfbfbf" points="28,-56.5 28,-75.5 76,-75.5 76,-56.5 28,-56.5"/>
<text text-anchor="middle" x="52" y="-63.5" font-family="Helvetica,sans-Serif" font-size="10.00" fill="#000000">TFile.h</text>
</g>
<!-- Node0&#45;&gt;Node10 -->
<g id="edge36" class="edge">
<title>Node0&#45;&gt;Node10</title>
<path fill="none" stroke="#191970" d="M872.1873,-295.5448C801.4412,-284.8624 694.4444,-266.8958 603,-244 403.4337,-194.0328 170.8212,-110.2034 85.5289,-78.5822"/>
<polygon fill="#191970" stroke="#191970" points="86.6947,-75.2816 76.1018,-75.0771 84.2551,-81.8427 86.6947,-75.2816"/>
</g>
<!-- Node14 -->
<g id="node15" class="node">
<title>Node14</title>
<polygon fill="none" stroke="#bfbfbf" points="48,-.5 48,-19.5 108,-19.5 108,-.5 48,-.5"/>
<text text-anchor="middle" x="78" y="-7.5" font-family="Helvetica,sans-Serif" font-size="10.00" fill="#000000">iostream</text>
</g>
<!-- Node0&#45;&gt;Node14 -->
<g id="edge21" class="edge">
<title>Node0&#45;&gt;Node14</title>
<path fill="none" stroke="#191970" d="M872.2575,-304.1225C645.3697,-296.1595 0,-265.7931 0,-178 0,-178 0,-178 0,-122 0,-91.4754 1.9048,-81.2885 19,-56 27.405,-43.5667 40.2423,-32.9859 51.7985,-25.1182"/>
<polygon fill="#191970" stroke="#191970" points="53.7816,-28.0041 60.2913,-19.6449 49.9896,-22.1201 53.7816,-28.0041"/>
</g>
<!-- Node17 -->
<g id="node18" class="node">
<title>Node17</title>
<polygon fill="none" stroke="#bfbfbf" points="856.5,-168.5 856.5,-187.5 903.5,-187.5 903.5,-168.5 856.5,-168.5"/>
<text text-anchor="middle" x="880" y="-175.5" font-family="Helvetica,sans-Serif" font-size="10.00" fill="#000000">cmath</text>
</g>
<!-- Node0&#45;&gt;Node17 -->
<g id="edge18" class="edge">
<title>Node0&#45;&gt;Node17</title>
<path fill="none" stroke="#191970" d="M879.5306,-280.4129C864.197,-271.3061 849.912,-259.3832 841,-244 831.1487,-226.9955 845.636,-207.65 859.663,-194.3211"/>
<polygon fill="#191970" stroke="#191970" points="862.0939,-196.8433 867.2509,-187.5882 857.448,-191.6073 862.0939,-196.8433"/>
</g>
<!-- Node18 -->
<g id="node19" class="node">
<title>Node18</title>
<polygon fill="none" stroke="#bfbfbf" points="791.5,-168.5 791.5,-187.5 838.5,-187.5 838.5,-168.5 791.5,-168.5"/>
<text text-anchor="middle" x="815" y="-175.5" font-family="Helvetica,sans-Serif" font-size="10.00" fill="#000000">vector</text>
</g>
<!-- Node0&#45;&gt;Node18 -->
<g id="edge19" class="edge">
<title>Node0&#45;&gt;Node18</title>
<path fill="none" stroke="#191970" d="M879.1625,-280.4169C862.0037,-271.1937 845.133,-259.2139 833,-244 822.4823,-230.8116 818.0946,-211.9416 816.2724,-197.754"/>
<polygon fill="#191970" stroke="#191970" points="819.735,-197.1963 815.293,-187.5776 812.7672,-197.867 819.735,-197.1963"/>
</g>
<!-- Node19 -->
<g id="node20" class="node">
<title>Node19</title>
<polygon fill="none" stroke="#bfbfbf" points="961,-168.5 961,-187.5 1025,-187.5 1025,-168.5 961,-168.5"/>
<text text-anchor="middle" x="993" y="-175.5" font-family="Helvetica,sans-Serif" font-size="10.00" fill="#000000">algorithm</text>
</g>
<!-- Node0&#45;&gt;Node19 -->
<g id="edge20" class="edge">
<title>Node0&#45;&gt;Node19</title>
<path fill="none" stroke="#191970" d="M960.6688,-280.2254C965.0243,-269.1259 969.973,-256.0122 974,-244 979.1521,-228.6319 984.19,-210.975 987.7822,-197.7934"/>
<polygon fill="#191970" stroke="#191970" points="991.2198,-198.4873 990.4305,-187.9219 984.4588,-196.6735 991.2198,-198.4873"/>
</g>
<!-- Node20 -->
<g id="node21" class="node">
<title>Node20</title>
<polygon fill="none" stroke="#bfbfbf" points="1021,-224.5 1021,-243.5 1093,-243.5 1093,-224.5 1021,-224.5"/>
<text text-anchor="middle" x="1057" y="-231.5" font-family="Helvetica,sans-Serif" font-size="10.00" fill="#000000">TRandom.h</text>
</g>
<!-- Node0&#45;&gt;Node20 -->
<g id="edge22" class="edge">
<title>Node0&#45;&gt;Node20</title>
<path fill="none" stroke="#191970" d="M988.6295,-280.3258C1003.9988,-269.912 1021.1467,-258.2931 1034.4245,-249.2965"/>
<polygon fill="#191970" stroke="#191970" points="1036.6138,-252.0409 1042.9291,-243.534 1032.6872,-246.2459 1036.6138,-252.0409"/>
</g>
<!-- Node21 -->
<g id="node22" class="node">
<title>Node21</title>
<polygon fill="none" stroke="#bfbfbf" points="1111,-224.5 1111,-243.5 1187,-243.5 1187,-224.5 1111,-224.5"/>
<text text-anchor="middle" x="1149" y="-231.5" font-family="Helvetica,sans-Serif" font-size="10.00" fill="#000000">Riostream.h</text>
</g>
<!-- Node0&#45;&gt;Node21 -->
<g id="edge23" class="edge">
<title>Node0&#45;&gt;Node21</title>
<path fill="none" stroke="#191970" d="M1021.5624,-280.4283C1052.6475,-269.1033 1087.6913,-256.3361 1113.1516,-247.0604"/>
<polygon fill="#191970" stroke="#191970" points="1114.5546,-250.2743 1122.7524,-243.5626 1112.1584,-243.6972 1114.5546,-250.2743"/>
</g>
<!-- Node22 -->
<g id="node23" class="node">
<title>Node22</title>
<polygon fill="none" stroke="#bfbfbf" points="1205,-224.5 1205,-243.5 1261,-243.5 1261,-224.5 1205,-224.5"/>
<text text-anchor="middle" x="1233" y="-231.5" font-family="Helvetica,sans-Serif" font-size="10.00" fill="#000000">TMath.h</text>
</g>
<!-- Node0&#45;&gt;Node22 -->
<g id="edge24" class="edge">
<title>Node0&#45;&gt;Node22</title>
<path fill="none" stroke="#191970" d="M1027.6339,-287.0962C1073.629,-275.5248 1133.3104,-260.3805 1194.8407,-244.2797"/>
<polygon fill="#191970" stroke="#191970" points="1195.9441,-247.6088 1204.73,-241.6878 1194.1694,-240.8375 1195.9441,-247.6088"/>
</g>
<!-- Node23 -->
<g id="node24" class="node">
<title>Node23</title>
<g id="a_node24"><a xlink:href="../../d2/da7/SplineHelper1D_8h.html" target="_top" xlink:title="Definition of SplineHelper1D class. ">
<polygon fill="none" stroke="#000000" points="653.5,-224.5 653.5,-243.5 754.5,-243.5 754.5,-224.5 653.5,-224.5"/>
<text text-anchor="middle" x="704" y="-231.5" font-family="Helvetica,sans-Serif" font-size="10.00" fill="#000000">SplineHelper1D.h</text>
</a>
</g>
</g>
<!-- Node0&#45;&gt;Node23 -->
<g id="edge25" class="edge">
<title>Node0&#45;&gt;Node23</title>
<path fill="none" stroke="#191970" d="M872.1641,-283.5605C830.3983,-271.2515 780.5647,-256.5648 746.0405,-246.39"/>
<polygon fill="#191970" stroke="#191970" points="746.8681,-242.9851 736.2866,-243.5154 744.8892,-249.6996 746.8681,-242.9851"/>
</g>
<!-- Node25 -->
<g id="node26" class="node">
<title>Node25</title>
<polygon fill="none" stroke="#bfbfbf" points="1279.5,-224.5 1279.5,-243.5 1346.5,-243.5 1346.5,-224.5 1279.5,-224.5"/>
<text text-anchor="middle" x="1313" y="-231.5" font-family="Helvetica,sans-Serif" font-size="10.00" fill="#000000">TCanvas.h</text>
</g>
<!-- Node0&#45;&gt;Node25 -->
<g id="edge33" class="edge">
<title>Node0&#45;&gt;Node25</title>
<path fill="none" stroke="#191970" d="M1027.7527,-292.1158C1090.3063,-280.3583 1180.7064,-262.9518 1269.2732,-244.1004"/>
<polygon fill="#191970" stroke="#191970" points="1270.1762,-247.4866 1279.2243,-241.9745 1268.7137,-240.6411 1270.1762,-247.4866"/>
</g>
<!-- Node26 -->
<g id="node27" class="node">
<title>Node26</title>
<polygon fill="none" stroke="#bfbfbf" points="1365,-224.5 1365,-243.5 1429,-243.5 1429,-224.5 1365,-224.5"/>
<text text-anchor="middle" x="1397" y="-231.5" font-family="Helvetica,sans-Serif" font-size="10.00" fill="#000000">TNtuple.h</text>
</g>
<!-- Node0&#45;&gt;Node26 -->
<g id="edge34" class="edge">
<title>Node0&#45;&gt;Node26</title>
<path fill="none" stroke="#191970" d="M1027.8041,-296.5591C1107.546,-285.9085 1235.2843,-267.57 1354.7729,-244.1152"/>
<polygon fill="#191970" stroke="#191970" points="1355.6992,-247.4998 1364.8295,-242.125 1354.3402,-240.633 1355.6992,-247.4998"/>
</g>
<!-- Node27 -->
<g id="node28" class="node">
<title>Node27</title>
<polygon fill="none" stroke="#bfbfbf" points="1447.5,-224.5 1447.5,-243.5 1492.5,-243.5 1492.5,-224.5 1447.5,-224.5"/>
<text text-anchor="middle" x="1470" y="-231.5" font-family="Helvetica,sans-Serif" font-size="10.00" fill="#000000">TH1.h</text>
</g>
<!-- Node0&#45;&gt;Node27 -->
<g id="edge35" class="edge">
<title>Node0&#45;&gt;Node27</title>
<path fill="none" stroke="#191970" d="M1027.6299,-300.7881C1122.4323,-292.8675 1287.6044,-276.0156 1437.5524,-243.7474"/>
<polygon fill="#191970" stroke="#191970" points="1438.3811,-247.149 1447.4063,-241.5996 1436.8903,-240.3096 1438.3811,-247.149"/>
</g>
<!-- Node28 -->
<g id="node29" class="node">
<title>Node28</title>
<g id="a_node29"><a xlink:href="../../d6/da2/GPUCommonMath_8h.html" target="_top" xlink:title="GPUCommonMath.h">
<polygon fill="none" stroke="#000000" points="849.5,-224.5 849.5,-243.5 964.5,-243.5 964.5,-224.5 849.5,-224.5"/>
<text text-anchor="middle" x="907" y="-231.5" font-family="Helvetica,sans-Serif" font-size="10.00" fill="#000000">GPUCommonMath.h</text>
</a>
</g>
</g>
<!-- Node0&#45;&gt;Node28 -->
<g id="edge37" class="edge">
<title>Node0&#45;&gt;Node28</title>
<path fill="none" stroke="#191970" d="M934.476,-280.3258C928.9528,-271.0135 922.8581,-260.7375 917.815,-252.2347"/>
<polygon fill="#191970" stroke="#191970" points="920.7663,-250.3495 912.6546,-243.534 914.7456,-253.9205 920.7663,-250.3495"/>
</g>
<!-- Node2 -->
<g id="node3" class="node">
<title>Node2</title>
<g id="a_node3"><a xlink:href="../../df/d21/GPUCommonDef_8h.html" target="_top" xlink:title="GPUCommonDef.h">
<polygon fill="none" stroke="#000000" points="708.5,-56.5 708.5,-75.5 815.5,-75.5 815.5,-56.5 708.5,-56.5"/>
<text text-anchor="middle" x="762" y="-63.5" font-family="Helvetica,sans-Serif" font-size="10.00" fill="#000000">GPUCommonDef.h</text>
</a>
</g>
</g>
<!-- Node1&#45;&gt;Node2 -->
<g id="edge2" class="edge">
<title>Node1&#45;&gt;Node2</title>
<path fill="none" stroke="#191970" d="M546.3863,-168.3632C547.5037,-153.9364 551.7806,-126.8374 568,-112 586.9956,-94.6229 649.4168,-81.909 698.3841,-74.3062"/>
<polygon fill="#191970" stroke="#191970" points="698.9302,-77.7635 708.2946,-72.8078 697.8837,-70.8422 698.9302,-77.7635"/>
</g>
<!-- Node5 -->
<g id="node6" class="node">
<title>Node5</title>
<g id="a_node6"><a xlink:href="../../db/dff/FlatObject_8h.html" target="_top" xlink:title="Definition of FlatObject class. ">
<polygon fill="none" stroke="#000000" points="370.5,-112.5 370.5,-131.5 445.5,-131.5 445.5,-112.5 370.5,-112.5"/>
<text text-anchor="middle" x="408" y="-119.5" font-family="Helvetica,sans-Serif" font-size="10.00" fill="#000000">FlatObject.h</text>
</a>
</g>
</g>
<!-- Node1&#45;&gt;Node5 -->
<g id="edge5" class="edge">
<title>Node1&#45;&gt;Node5</title>
<path fill="none" stroke="#191970" d="M522.277,-168.3733C499.8263,-159.2629 465.9261,-145.5062 440.8745,-135.3404"/>
<polygon fill="#191970" stroke="#191970" points="441.9957,-132.0182 431.4135,-131.5011 439.3635,-138.5045 441.9957,-132.0182"/>
</g>
<!-- Node16 -->
<g id="node17" class="node">
<title>Node16</title>
<polygon fill="none" stroke="#bfbfbf" points="576.5,-112.5 576.5,-131.5 641.5,-131.5 641.5,-112.5 576.5,-112.5"/>
<text text-anchor="middle" x="609" y="-119.5" font-family="Helvetica,sans-Serif" font-size="10.00" fill="#000000">functional</text>
</g>
<!-- Node1&#45;&gt;Node16 -->
<g id="edge17" class="edge">
<title>Node1&#45;&gt;Node16</title>
<path fill="none" stroke="#191970" d="M556.9738,-168.2455C566.1882,-160.0549 579.5532,-148.1749 590.4297,-138.5069"/>
<polygon fill="#191970" stroke="#191970" points="593.0032,-140.9023 598.152,-131.6427 588.3526,-135.6704 593.0032,-140.9023"/>
</g>
<!-- Node3 -->
<g id="node4" class="node">
<title>Node3</title>
<g id="a_node4"><a xlink:href="../../d5/d93/GPUCommonDefSettings_8h.html" target="_top" xlink:title="GPUCommonDefSettings.h">
<polygon fill="none" stroke="#000000" points="823,-.5 823,-19.5 971,-19.5 971,-.5 823,-.5"/>
<text text-anchor="middle" x="897" y="-7.5" font-family="Helvetica,sans-Serif" font-size="10.00" fill="#000000">GPUCommonDefSettings.h</text>
</a>
</g>
</g>
<!-- Node2&#45;&gt;Node3 -->
<g id="edge3" class="edge">
<title>Node2&#45;&gt;Node3</title>
<path fill="none" stroke="#191970" d="M785.2073,-56.3733C807.1699,-47.2629 840.3332,-33.5062 864.8401,-23.3404"/>
<polygon fill="#191970" stroke="#191970" points="866.1997,-26.5657 874.0955,-19.5011 863.5176,-20.0999 866.1997,-26.5657"/>
</g>
<!-- Node4 -->
<g id="node5" class="node">
<title>Node4</title>
<g id="a_node5"><a xlink:href="../../da/d5a/GPUCommonDefAPI_8h.html" target="_top" xlink:title="GPUCommonDefAPI.h">
<polygon fill="none" stroke="#000000" points="681,-.5 681,-19.5 805,-19.5 805,-.5 681,-.5"/>
<text text-anchor="middle" x="743" y="-7.5" font-family="Helvetica,sans-Serif" font-size="10.00" fill="#000000">GPUCommonDefAPI.h</text>
</a>
</g>
</g>
<!-- Node2&#45;&gt;Node4 -->
<g id="edge4" class="edge">
<title>Node2&#45;&gt;Node4</title>
<path fill="none" stroke="#191970" d="M758.6905,-56.2455C756.1567,-48.7776 752.5823,-38.2427 749.485,-29.1137"/>
<polygon fill="#191970" stroke="#191970" points="752.7991,-27.9879 746.2716,-19.6427 746.1702,-30.237 752.7991,-27.9879"/>
</g>
<!-- Node5&#45;&gt;Node2 -->
<g id="edge11" class="edge">
<title>Node5&#45;&gt;Node2</title>
<path fill="none" stroke="#191970" d="M445.5491,-116.06C505.7957,-106.5295 624.7437,-87.7129 698.4117,-76.0592"/>
<polygon fill="#191970" stroke="#191970" points="699.1649,-79.4836 708.4952,-74.464 698.0711,-72.5696 699.1649,-79.4836"/>
</g>
<!-- Node6 -->
<g id="node7" class="node">
<title>Node6</title>
<polygon fill="none" stroke="#bfbfbf" points="94.5,-56.5 94.5,-75.5 147.5,-75.5 147.5,-56.5 94.5,-56.5"/>
<text text-anchor="middle" x="121" y="-63.5" font-family="Helvetica,sans-Serif" font-size="10.00" fill="#000000">cstddef</text>
</g>
<!-- Node5&#45;&gt;Node6 -->
<g id="edge6" class="edge">
<title>Node5&#45;&gt;Node6</title>
<path fill="none" stroke="#191970" d="M370.363,-116.1838C323.0069,-108.6286 239.013,-94.4451 157.5834,-75.9691"/>
<polygon fill="#191970" stroke="#191970" points="158.1977,-72.5192 147.6683,-73.6948 156.6327,-79.342 158.1977,-72.5192"/>
</g>
<!-- Node7 -->
<g id="node8" class="node">
<title>Node7</title>
<polygon fill="none" stroke="#bfbfbf" points="307,-56.5 307,-75.5 365,-75.5 365,-56.5 307,-56.5"/>
<text text-anchor="middle" x="336" y="-63.5" font-family="Helvetica,sans-Serif" font-size="10.00" fill="#000000">memory</text>
</g>
<!-- Node5&#45;&gt;Node7 -->
<g id="edge7" class="edge">
<title>Node5&#45;&gt;Node7</title>
<path fill="none" stroke="#191970" d="M395.4586,-112.2455C384.7213,-103.8943 369.0527,-91.7076 356.4953,-81.9408"/>
<polygon fill="#191970" stroke="#191970" points="358.4401,-79.0194 348.3977,-75.6427 354.1425,-84.5449 358.4401,-79.0194"/>
</g>
<!-- Node8 -->
<g id="node9" class="node">
<title>Node8</title>
<polygon fill="none" stroke="#bfbfbf" points="383,-56.5 383,-75.5 433,-75.5 433,-56.5 383,-56.5"/>
<text text-anchor="middle" x="408" y="-63.5" font-family="Helvetica,sans-Serif" font-size="10.00" fill="#000000">cstring</text>
</g>
<!-- Node5&#45;&gt;Node8 -->
<g id="edge8" class="edge">
<title>Node5&#45;&gt;Node8</title>
<path fill="none" stroke="#191970" d="M408,-112.2455C408,-104.9382 408,-94.6944 408,-85.7046"/>
<polygon fill="#191970" stroke="#191970" points="411.5001,-85.6426 408,-75.6427 404.5001,-85.6427 411.5001,-85.6426"/>
</g>
<!-- Node9 -->
<g id="node10" class="node">
<title>Node9</title>
<polygon fill="none" stroke="#bfbfbf" points="451,-56.5 451,-75.5 503,-75.5 503,-56.5 451,-56.5"/>
<text text-anchor="middle" x="477" y="-63.5" font-family="Helvetica,sans-Serif" font-size="10.00" fill="#000000">cassert</text>
</g>
<!-- Node5&#45;&gt;Node9 -->
<g id="edge9" class="edge">
<title>Node5&#45;&gt;Node9</title>
<path fill="none" stroke="#191970" d="M420.0189,-112.2455C430.2098,-103.9746 445.0362,-91.9416 457.0107,-82.2232"/>
<polygon fill="#191970" stroke="#191970" points="459.5598,-84.662 465.1188,-75.6427 455.1486,-79.2268 459.5598,-84.662"/>
</g>
<!-- Node5&#45;&gt;Node10 -->
<g id="edge10" class="edge">
<title>Node5&#45;&gt;Node10</title>
<path fill="none" stroke="#191970" d="M370.0101,-118.3666C309.4596,-112.1746 187.5358,-98.0638 86,-76 85.8985,-75.978 85.7969,-75.9558 85.6952,-75.9334"/>
<polygon fill="#191970" stroke="#191970" points="86.5841,-72.5479 76.0353,-73.5351 84.8973,-79.3417 86.5841,-72.5479"/>
</g>
<!-- Node11 -->
<g id="node12" class="node">
<title>Node11</title>
<g id="a_node12"><a xlink:href="../../d2/d45/GPUCommonRtypes_8h.html" target="_top" xlink:title="GPUCommonRtypes.h">
<polygon fill="none" stroke="#000000" points="521.5,-56.5 521.5,-75.5 646.5,-75.5 646.5,-56.5 521.5,-56.5"/>
<text text-anchor="middle" x="584" y="-63.5" font-family="Helvetica,sans-Serif" font-size="10.00" fill="#000000">GPUCommonRtypes.h</text>
</a>
</g>
</g>
<!-- Node5&#45;&gt;Node11 -->
<g id="edge12" class="edge">
<title>Node5&#45;&gt;Node11</title>
<path fill="none" stroke="#191970" d="M438.2555,-112.3733C467.6483,-103.021 512.4292,-88.7725 544.5934,-78.5385"/>
<polygon fill="#191970" stroke="#191970" points="545.6713,-81.8685 554.1393,-75.5011 543.5488,-75.198 545.6713,-81.8685"/>
</g>
<!-- Node13 -->
<g id="node14" class="node">
<title>Node13</title>
<g id="a_node14"><a xlink:href="../../df/d5b/GPUCommonLogger_8h.html" target="_top" xlink:title="GPUCommonLogger.h">
<polygon fill="none" stroke="#000000" points="165.5,-56.5 165.5,-75.5 288.5,-75.5 288.5,-56.5 165.5,-56.5"/>
<text text-anchor="middle" x="227" y="-63.5" font-family="Helvetica,sans-Serif" font-size="10.00" fill="#000000">GPUCommonLogger.h</text>
</a>
</g>
</g>
<!-- Node5&#45;&gt;Node13 -->
<g id="edge14" class="edge">
<title>Node5&#45;&gt;Node13</title>
<path fill="none" stroke="#191970" d="M376.885,-112.3733C346.6571,-103.021 300.604,-88.7725 267.5261,-78.5385"/>
<polygon fill="#191970" stroke="#191970" points="268.2967,-75.1133 257.709,-75.5011 266.2277,-81.8005 268.2967,-75.1133"/>
</g>
<!-- Node12 -->
<g id="node13" class="node">
<title>Node12</title>
<polygon fill="none" stroke="#bfbfbf" points="572.5,-.5 572.5,-19.5 631.5,-19.5 631.5,-.5 572.5,-.5"/>
<text text-anchor="middle" x="602" y="-7.5" font-family="Helvetica,sans-Serif" font-size="10.00" fill="#000000">Rtypes.h</text>
</g>
<!-- Node11&#45;&gt;Node12 -->
<g id="edge13" class="edge">
<title>Node11&#45;&gt;Node12</title>
<path fill="none" stroke="#191970" d="M587.1354,-56.2455C589.51,-48.8579 592.8493,-38.4689 595.7615,-29.4087"/>
<polygon fill="#191970" stroke="#191970" points="599.1725,-30.234 598.9006,-19.6427 592.5083,-28.0919 599.1725,-30.234"/>
</g>
<!-- Node13&#45;&gt;Node14 -->
<g id="edge15" class="edge">
<title>Node13&#45;&gt;Node14</title>
<path fill="none" stroke="#191970" d="M201.386,-56.3733C176.9313,-47.1822 139.8946,-33.2624 112.7791,-23.0713"/>
<polygon fill="#191970" stroke="#191970" points="113.8719,-19.7431 103.2798,-19.5011 111.4091,-26.2956 113.8719,-19.7431"/>
</g>
<!-- Node15 -->
<g id="node16" class="node">
<title>Node15</title>
<polygon fill="none" stroke="#bfbfbf" points="204,-.5 204,-19.5 250,-19.5 250,-.5 204,-.5"/>
<text text-anchor="middle" x="227" y="-7.5" font-family="Helvetica,sans-Serif" font-size="10.00" fill="#000000">cstdio</text>
</g>
<!-- Node13&#45;&gt;Node15 -->
<g id="edge16" class="edge">
<title>Node13&#45;&gt;Node15</title>
<path fill="none" stroke="#191970" d="M227,-56.2455C227,-48.9382 227,-38.6944 227,-29.7046"/>
<polygon fill="#191970" stroke="#191970" points="230.5001,-29.6426 227,-19.6427 223.5001,-29.6427 230.5001,-29.6426"/>
</g>
<!-- Node23&#45;&gt;Node1 -->
<g id="edge31" class="edge">
<title>Node23&#45;&gt;Node1</title>
<path fill="none" stroke="#191970" d="M676.8388,-224.3733C650.7933,-215.1419 611.2884,-201.1402 582.5021,-190.9375"/>
<polygon fill="#191970" stroke="#191970" points="583.4015,-187.5429 572.8067,-187.5011 581.063,-194.1408 583.4015,-187.5429"/>
</g>
<!-- Node23&#45;&gt;Node2 -->
<g id="edge28" class="edge">
<title>Node23&#45;&gt;Node2</title>
<path fill="none" stroke="#191970" d="M715.4825,-224.2893C724.7735,-215.7362 737.3662,-202.4222 744,-188 759.4395,-154.4336 762.2429,-110.683 762.4302,-85.7317"/>
<polygon fill="#191970" stroke="#191970" points="765.93,-85.6727 762.3683,-75.6946 758.9302,-85.716 765.93,-85.6727"/>
</g>
<!-- Node23&#45;&gt;Node12 -->
<g id="edge29" class="edge">
<title>Node23&#45;&gt;Node12</title>
<path fill="none" stroke="#191970" d="M692.837,-224.284C683.8552,-215.7278 671.807,-202.412 666,-188 644.0115,-133.4286 682.6675,-108.444 656,-56 649.6574,-43.5266 638.307,-33.0638 627.6438,-25.284"/>
<polygon fill="#191970" stroke="#191970" points="629.5833,-22.3703 619.3482,-19.6328 625.6422,-28.1555 629.5833,-22.3703"/>
</g>
<!-- Node23&#45;&gt;Node16 -->
<g id="edge32" class="edge">
<title>Node23&#45;&gt;Node16</title>
<path fill="none" stroke="#191970" d="M682.0286,-224.4656C666.4139,-216.6856 645.9895,-204.3171 633,-188 622.3345,-174.6023 616.1479,-156.039 612.7359,-142.0111"/>
<polygon fill="#191970" stroke="#191970" points="616.0893,-140.9575 610.5619,-131.9187 609.2463,-142.4316 616.0893,-140.9575"/>
</g>
<!-- Node23&#45;&gt;Node17 -->
<g id="edge26" class="edge">
<title>Node23&#45;&gt;Node17</title>
<path fill="none" stroke="#191970" d="M734.2555,-224.3733C765.4727,-214.4405 814.0475,-198.9849 846.4301,-188.6813"/>
<polygon fill="#191970" stroke="#191970" points="847.8644,-191.8979 856.3324,-185.5306 845.7419,-185.2275 847.8644,-191.8979"/>
</g>
<!-- Node23&#45;&gt;Node18 -->
<g id="edge27" class="edge">
<title>Node23&#45;&gt;Node18</title>
<path fill="none" stroke="#191970" d="M723.0816,-224.3733C740.7402,-215.4644 767.2053,-202.1127 787.2098,-192.0203"/>
<polygon fill="#191970" stroke="#191970" points="788.8158,-195.1303 796.1674,-187.5011 785.6628,-188.8806 788.8158,-195.1303"/>
</g>
<!-- Node24 -->
<g id="node25" class="node">
<title>Node24</title>
<polygon fill="none" stroke="#bfbfbf" points="675,-168.5 675,-187.5 735,-187.5 735,-168.5 675,-168.5"/>
<text text-anchor="middle" x="705" y="-175.5" font-family="Helvetica,sans-Serif" font-size="10.00" fill="#000000">TString.h</text>
</g>
<!-- Node23&#45;&gt;Node24 -->
<g id="edge30" class="edge">
<title>Node23&#45;&gt;Node24</title>
<path fill="none" stroke="#191970" d="M704.1742,-224.2455C704.3047,-216.9382 704.4876,-206.6944 704.6481,-197.7046"/>
<polygon fill="#191970" stroke="#191970" points="708.1486,-197.7036 704.8278,-187.6427 701.1497,-197.5786 708.1486,-197.7036"/>
</g>
<!-- Node28&#45;&gt;Node2 -->
<g id="edge38" class="edge">
<title>Node28&#45;&gt;Node2</title>
<path fill="none" stroke="#191970" d="M911.0076,-224.3895C915.9545,-210.9295 922.6086,-186.086 913,-168 889.2242,-123.2476 836.0814,-94.5644 799.6318,-79.3625"/>
<polygon fill="#191970" stroke="#191970" points="800.8769,-76.0909 790.293,-75.6083 798.2659,-82.5857 800.8769,-76.0909"/>
</g>
<!-- Node28&#45;&gt;Node17 -->
<g id="edge39" class="edge">
<title>Node28&#45;&gt;Node17</title>
<path fill="none" stroke="#191970" d="M902.297,-224.2455C898.6576,-216.6973 893.5076,-206.0158 889.0738,-196.8197"/>
<polygon fill="#191970" stroke="#191970" points="892.1449,-195.1303 884.6491,-187.6427 885.8395,-198.1704 892.1449,-195.1303"/>
</g>
<!-- Node28&#45;&gt;Node19 -->
<g id="edge40" class="edge">
<title>Node28&#45;&gt;Node19</title>
<path fill="none" stroke="#191970" d="M921.9801,-224.2455C935.1751,-215.6534 954.6051,-203.0014 969.8079,-193.1018"/>
<polygon fill="#191970" stroke="#191970" points="971.7215,-196.0325 978.1916,-187.6427 967.9017,-190.1665 971.7215,-196.0325"/>
</g>
</g>
</svg>
        <g id="navigator" transform="translate(0 0)" fill="#404254">
                <rect fill="#f2f5e9" fill-opacity="0.5" stroke="#606060" stroke-width=".5" x="0" y="0" width="60" height="60"/>
                <use id="zoomplus" xlink:href="#zoomPlus" x="17" y="9" onmousedown="handleZoom(evt,'in')"/>
                <use id="zoomminus" xlink:href="#zoomMin" x="42" y="9" onmousedown="handleZoom(evt,'out')"/>
                <use id="reset" xlink:href="#resetDef" x="30" y="36" onmousedown="handleReset()"/>
                <g id="arrowUp" xlink:href="#dirArrow" transform="translate(30 24)" onmousedown="handlePan(0,-1)">
                  <use xlink:href="#rim" fill="#404040">
                        <set attributeName="fill" to="#808080" begin="arrowUp.mouseover" end="arrowUp.mouseout"/>
                  </use>
                  <path fill="none" stroke="white" stroke-width="1.5" d="M0,-3.0v7 M-2.5,-0.5L0,-3.0L2.5,-0.5"/>
                </g>
                <g id="arrowRight" xlink:href="#dirArrow" transform="rotate(90) translate(36 -43)" onmousedown="handlePan(1,0)">
                  <use xlink:href="#rim" fill="#404040">
                        <set attributeName="fill" to="#808080" begin="arrowRight.mouseover" end="arrowRight.mouseout"/>
                  </use>
                  <path fill="none" stroke="white" stroke-width="1.5" d="M0,-3.0v7 M-2.5,-0.5L0,-3.0L2.5,-0.5"/>
                </g>
                <g id="arrowDown" xlink:href="#dirArrow" transform="rotate(180) translate(-30 -48)" onmousedown="handlePan(0,1)">
                  <use xlink:href="#rim" fill="#404040">
                        <set attributeName="fill" to="#808080" begin="arrowDown.mouseover" end="arrowDown.mouseout"/>
                  </use>
                  <path fill="none" stroke="white" stroke-width="1.5" d="M0,-3.0v7 M-2.5,-0.5L0,-3.0L2.5,-0.5"/>
                </g>
                <g id="arrowLeft" xlink:href="#dirArrow" transform="rotate(270) translate(-36 17)" onmousedown="handlePan(-1,0)">
                  <use xlink:href="#rim" fill="#404040">
                        <set attributeName="fill" to="#808080" begin="arrowLeft.mouseover" end="arrowLeft.mouseout"/>
                  </use>
                  <path fill="none" stroke="white" stroke-width="1.5" d="M0,-3.0v7 M-2.5,-0.5L0,-3.0L2.5,-0.5"/>
                </g>
        </g>
        <svg viewBox="0 0 15 15" width="100%" height="30px" preserveAspectRatio="xMaxYMin meet">
         <g id="arrow_out" transform="scale(0.3 0.3)">
          <a xlink:href="Spline1D_8cxx__incl_org.svg" target="_base">
           <rect id="button" ry="5" rx="5" y="6" x="6" height="38" width="38"
                fill="#f2f5e9" fill-opacity="0.5" stroke="#606060" stroke-width="1.0"/>
           <path id="arrow"
             d="M 11.500037,31.436501 C 11.940474,20.09759 22.043105,11.32322 32.158766,21.979434 L 37.068811,17.246167 C 37.068811,17.246167 37.088388,32 37.088388,32 L 22.160133,31.978069 C 22.160133,31.978069 26.997745,27.140456 26.997745,27.140456 C 18.528582,18.264221 13.291696,25.230495 11.500037,31.436501 z"
             style="fill:#404040;"/>
          </a>
         </g>
        </svg>
</svg>
