<?xml version="1.0" encoding="UTF-8" standalone="no"?>
<!DOCTYPE svg PUBLIC "-//W3C//DTD SVG 1.1//EN"
 "http://www.w3.org/Graphics/SVG/1.1/DTD/svg11.dtd">
<!-- Generated by graphviz version 2.40.1 (20161225.0304)
 -->
<!-- Title: /home/travis/build/AliceO2Group/AliceO2/Detectors/ITSMFT/MFT/tracking/include/MFTTracking/IOUtils.h Pages: 1 -->
<svg width="2048pt" height="374pt"
 viewBox="0.00 0.00 2047.50 374.00" xmlns="http://www.w3.org/2000/svg" xmlns:xlink="http://www.w3.org/1999/xlink">
<g id="graph0" class="graph" transform="scale(1 1) rotate(0) translate(4 370)">
<title>/home/travis/build/AliceO2Group/AliceO2/Detectors/ITSMFT/MFT/tracking/include/MFTTracking/IOUtils.h</title>
<!-- Node0 -->
<g id="node1" class="node">
<title>Node0</title>
<polygon fill="#bfbfbf" stroke="#000000" points="837.5,-302.5 837.5,-365.5 998.5,-365.5 998.5,-302.5 837.5,-302.5"/>
<text text-anchor="start" x="845.5" y="-353.5" font-family="Helvetica,sans-Serif" font-size="10.00" fill="#000000">/home/travis/build</text>
<text text-anchor="start" x="845.5" y="-342.5" font-family="Helvetica,sans-Serif" font-size="10.00" fill="#000000">/AliceO2Group/AliceO2</text>
<text text-anchor="start" x="845.5" y="-331.5" font-family="Helvetica,sans-Serif" font-size="10.00" fill="#000000">/Detectors/ITSMFT/MFT</text>
<text text-anchor="start" x="845.5" y="-320.5" font-family="Helvetica,sans-Serif" font-size="10.00" fill="#000000">/tracking/include/MFTTracking</text>
<text text-anchor="middle" x="918" y="-309.5" font-family="Helvetica,sans-Serif" font-size="10.00" fill="#000000">/IOUtils.h</text>
</g>
<!-- Node1 -->
<g id="node2" class="node">
<title>Node1</title>
<polygon fill="none" stroke="#bfbfbf" points="1990.5,-118 1990.5,-137 2039.5,-137 2039.5,-118 1990.5,-118"/>
<text text-anchor="middle" x="2015" y="-125" font-family="Helvetica,sans-Serif" font-size="10.00" fill="#000000">iosfwd</text>
</g>
<!-- Node0&#45;&gt;Node1 -->
<g id="edge1" class="edge">
<title>Node0&#45;&gt;Node1</title>
<path fill="none" stroke="#191970" d="M998.7358,-329.749C1179.3818,-319.8626 1611.556,-294.0238 1755,-266 1836.3951,-250.0983 1862.1508,-253.1093 1933,-210 1961.297,-192.7823 1986.9957,-163.7602 2001.8093,-145.1285"/>
<polygon fill="#191970" stroke="#191970" points="2004.6362,-147.1944 2007.9954,-137.1462 1999.1033,-142.9064 2004.6362,-147.1944"/>
</g>
<!-- Node2 -->
<g id="node3" class="node">
<title>Node2</title>
<polygon fill="none" stroke="#bfbfbf" points="678,-246.5 678,-265.5 722,-265.5 722,-246.5 678,-246.5"/>
<text text-anchor="middle" x="700" y="-253.5" font-family="Helvetica,sans-Serif" font-size="10.00" fill="#000000">string</text>
</g>
<!-- Node0&#45;&gt;Node2 -->
<g id="edge2" class="edge">
<title>Node0&#45;&gt;Node2</title>
<path fill="none" stroke="#191970" d="M837.4442,-305.1773C800.7163,-292.0361 759.3558,-277.2374 731.6895,-267.3384"/>
<polygon fill="#191970" stroke="#191970" points="732.7447,-263.9988 722.1501,-263.9253 730.3865,-270.5896 732.7447,-263.9988"/>
</g>
<!-- Node3 -->
<g id="node4" class="node">
<title>Node3</title>
<polygon fill="none" stroke="#bfbfbf" points="740.5,-246.5 740.5,-265.5 833.5,-265.5 833.5,-246.5 740.5,-246.5"/>
<text text-anchor="middle" x="787" y="-253.5" font-family="Helvetica,sans-Serif" font-size="10.00" fill="#000000">unordered_map</text>
</g>
<!-- Node0&#45;&gt;Node3 -->
<g id="edge3" class="edge">
<title>Node0&#45;&gt;Node3</title>
<path fill="none" stroke="#191970" d="M865.0949,-302.4992C846.63,-291.5049 826.7773,-279.6842 811.7092,-270.7124"/>
<polygon fill="#191970" stroke="#191970" points="813.3836,-267.6359 803.0007,-265.5271 809.8023,-273.6505 813.3836,-267.6359"/>
</g>
<!-- Node4 -->
<g id="node5" class="node">
<title>Node4</title>
<polygon fill="none" stroke="#bfbfbf" points="527.5,-.5 527.5,-19.5 574.5,-19.5 574.5,-.5 527.5,-.5"/>
<text text-anchor="middle" x="551" y="-7.5" font-family="Helvetica,sans-Serif" font-size="10.00" fill="#000000">vector</text>
</g>
<!-- Node0&#45;&gt;Node4 -->
<g id="edge4" class="edge">
<title>Node0&#45;&gt;Node4</title>
<path fill="none" stroke="#191970" d="M837.3382,-330.1796C613.3293,-318.5023 0,-278.8302 0,-194.5 0,-194.5 0,-194.5 0,-127.5 0,-90.8684 10.1608,-75.7691 41,-56 80.9781,-30.3725 409.4825,-15.4804 517.0467,-11.2555"/>
<polygon fill="#191970" stroke="#191970" points="517.4694,-14.7419 527.3267,-10.8579 517.1989,-7.7471 517.4694,-14.7419"/>
</g>
<!-- Node5 -->
<g id="node6" class="node">
<title>Node5</title>
<polygon fill="none" stroke="#bfbfbf" points="1506,-118 1506,-137 1554,-137 1554,-118 1506,-118"/>
<text text-anchor="middle" x="1530" y="-125" font-family="Helvetica,sans-Serif" font-size="10.00" fill="#000000">gsl/gsl</text>
</g>
<!-- Node0&#45;&gt;Node5 -->
<g id="edge5" class="edge">
<title>Node0&#45;&gt;Node5</title>
<path fill="none" stroke="#191970" d="M998.7387,-322.979C1096.5698,-307.4275 1264.6089,-273.5673 1396,-210 1416.5643,-200.0509 1417.8484,-191.4536 1437,-179 1458.1781,-165.2287 1483.2956,-151.4612 1502.0857,-141.6303"/>
<polygon fill="#191970" stroke="#191970" points="1503.7484,-144.7108 1511.0182,-137.0036 1500.5289,-138.4951 1503.7484,-144.7108"/>
</g>
<!-- Node6 -->
<g id="node7" class="node">
<title>Node6</title>
<g id="a_node7"><a xlink:href="../../d3/d72/MFT_2tracking_2include_2MFTTracking_2ROframe_8h.html" target="_top" xlink:title="MFTTracking/ROframe.h">
<polygon fill="none" stroke="#000000" points="852,-246.5 852,-265.5 984,-265.5 984,-246.5 852,-246.5"/>
<text text-anchor="middle" x="918" y="-253.5" font-family="Helvetica,sans-Serif" font-size="10.00" fill="#000000">MFTTracking/ROframe.h</text>
</a>
</g>
</g>
<!-- Node0&#45;&gt;Node6 -->
<g id="edge6" class="edge">
<title>Node0&#45;&gt;Node6</title>
<path fill="none" stroke="#191970" d="M918,-302.2744C918,-293.3302 918,-283.8568 918,-275.8269"/>
<polygon fill="#191970" stroke="#191970" points="921.5001,-275.6425 918,-265.6426 914.5001,-275.6426 921.5001,-275.6425"/>
</g>
<!-- Node33 -->
<g id="node34" class="node">
<title>Node33</title>
<g id="a_node34"><a xlink:href="../../d0/dc6/ITSMFT_2common_2include_2DataFormatsITSMFT_2ROFRecord_8h.html" target="_top" xlink:title="DataFormatsITSMFT/ROFRecord.h">
<polygon fill="none" stroke="#000000" points="1566.5,-246.5 1566.5,-265.5 1745.5,-265.5 1745.5,-246.5 1566.5,-246.5"/>
<text text-anchor="middle" x="1656" y="-253.5" font-family="Helvetica,sans-Serif" font-size="10.00" fill="#000000">DataFormatsITSMFT/ROFRecord.h</text>
</a>
</g>
</g>
<!-- Node0&#45;&gt;Node33 -->
<g id="edge55" class="edge">
<title>Node0&#45;&gt;Node33</title>
<path fill="none" stroke="#191970" d="M998.7366,-325.4669C1134.652,-311.1018 1408.7392,-282.1333 1556.3892,-266.528"/>
<polygon fill="#191970" stroke="#191970" points="1556.7867,-270.0055 1566.3634,-265.4738 1556.0509,-263.0443 1556.7867,-270.0055"/>
</g>
<!-- Node6&#45;&gt;Node4 -->
<g id="edge8" class="edge">
<title>Node6&#45;&gt;Node4</title>
<path fill="none" stroke="#191970" d="M851.7765,-246.9071C848.8125,-246.5831 845.8765,-246.2786 843,-246 669.1954,-229.1683 171.5727,-280.5481 64,-143 40.1026,-112.4435 30.8727,-84.6732 57,-56 87.9536,-22.0301 410.6325,-12.7293 517.1163,-10.5751"/>
<polygon fill="#191970" stroke="#191970" points="517.3715,-14.0709 527.3018,-10.3777 517.2358,-7.0722 517.3715,-14.0709"/>
</g>
<!-- Node6&#45;&gt;Node5 -->
<g id="edge11" class="edge">
<title>Node6&#45;&gt;Node5</title>
<path fill="none" stroke="#191970" d="M984.1803,-253.3061C1090.3946,-248.2856 1293.8023,-235.6047 1361,-210 1383.0157,-201.6113 1383.3962,-190.4256 1404,-179 1433.7391,-162.5085 1469.8563,-148.2849 1495.7849,-138.9903"/>
<polygon fill="#191970" stroke="#191970" points="1497.2645,-142.1799 1505.5331,-135.5557 1494.9383,-135.5777 1497.2645,-142.1799"/>
</g>
<!-- Node7 -->
<g id="node8" class="node">
<title>Node7</title>
<polygon fill="none" stroke="#bfbfbf" points="374,-56.5 374,-75.5 416,-75.5 416,-56.5 374,-56.5"/>
<text text-anchor="middle" x="395" y="-63.5" font-family="Helvetica,sans-Serif" font-size="10.00" fill="#000000">array</text>
</g>
<!-- Node6&#45;&gt;Node7 -->
<g id="edge7" class="edge">
<title>Node6&#45;&gt;Node7</title>
<path fill="none" stroke="#191970" d="M851.7754,-246.9175C848.8117,-246.5907 845.8761,-246.2827 843,-246 780.1759,-239.8248 323.7036,-251.3444 276,-210 242.7518,-181.184 236.475,-147.8368 262,-112 262.7766,-110.9096 324.8765,-89.7354 363.9358,-76.4992"/>
<polygon fill="#191970" stroke="#191970" points="365.4456,-79.6833 373.7949,-73.161 363.2006,-73.053 365.4456,-79.6833"/>
</g>
<!-- Node8 -->
<g id="node9" class="node">
<title>Node8</title>
<polygon fill="none" stroke="#bfbfbf" points="480.5,-56.5 480.5,-75.5 525.5,-75.5 525.5,-56.5 480.5,-56.5"/>
<text text-anchor="middle" x="503" y="-63.5" font-family="Helvetica,sans-Serif" font-size="10.00" fill="#000000">utility</text>
</g>
<!-- Node6&#45;&gt;Node8 -->
<g id="edge9" class="edge">
<title>Node6&#45;&gt;Node8</title>
<path fill="none" stroke="#191970" d="M851.9353,-246.5292C787.13,-236.8404 693.0895,-221.6041 658,-210 594.782,-189.0938 566.2142,-194.4931 524,-143 510.7241,-126.806 505.8042,-102.8978 504.0013,-86.0267"/>
<polygon fill="#191970" stroke="#191970" points="507.4588,-85.3477 503.1867,-75.6524 500.4803,-85.8957 507.4588,-85.3477"/>
</g>
<!-- Node9 -->
<g id="node10" class="node">
<title>Node9</title>
<polygon fill="none" stroke="#bfbfbf" points="1045,-118 1045,-137 1097,-137 1097,-118 1045,-118"/>
<text text-anchor="middle" x="1071" y="-125" font-family="Helvetica,sans-Serif" font-size="10.00" fill="#000000">cassert</text>
</g>
<!-- Node6&#45;&gt;Node9 -->
<g id="edge10" class="edge">
<title>Node6&#45;&gt;Node9</title>
<path fill="none" stroke="#191970" d="M939.8377,-246.3471C957.1476,-238.1062 981.4285,-225.1941 1000,-210 1023.4146,-190.8436 1045.3107,-163.3824 1058.4305,-145.4952"/>
<polygon fill="#191970" stroke="#191970" points="1061.4628,-147.2729 1064.4528,-137.1088 1055.7769,-143.1899 1061.4628,-147.2729"/>
</g>
<!-- Node10 -->
<g id="node11" class="node">
<title>Node10</title>
<polygon fill="none" stroke="#bfbfbf" points="1314,-185 1314,-204 1352,-204 1352,-185 1314,-185"/>
<text text-anchor="middle" x="1333" y="-192" font-family="Helvetica,sans-Serif" font-size="10.00" fill="#000000">map</text>
</g>
<!-- Node6&#45;&gt;Node10 -->
<g id="edge12" class="edge">
<title>Node6&#45;&gt;Node10</title>
<path fill="none" stroke="#191970" d="M984.3557,-251.2166C1078.7957,-243.8804 1246.9639,-228.7151 1305,-210 1306.2493,-209.5971 1307.5065,-209.1366 1308.7595,-208.6325"/>
<polygon fill="#191970" stroke="#191970" points="1310.5865,-211.6376 1318.0811,-204.1488 1307.5523,-205.3294 1310.5865,-211.6376"/>
</g>
<!-- Node11 -->
<g id="node12" class="node">
<title>Node11</title>
<g id="a_node12"><a xlink:href="../../d5/df9/Detectors_2ITSMFT_2MFT_2tracking_2include_2MFTTracking_2Cluster_8h.html" target="_top" xlink:title="MFTTracking/Cluster.h">
<polygon fill="none" stroke="#000000" points="285,-185 285,-204 407,-204 407,-185 285,-185"/>
<text text-anchor="middle" x="346" y="-192" font-family="Helvetica,sans-Serif" font-size="10.00" fill="#000000">MFTTracking/Cluster.h</text>
</a>
</g>
</g>
<!-- Node6&#45;&gt;Node11 -->
<g id="edge13" class="edge">
<title>Node6&#45;&gt;Node11</title>
<path fill="none" stroke="#191970" d="M851.7605,-247.0561C848.8008,-246.6918 845.8701,-246.338 843,-246 686.819,-227.6058 647.4074,-226.3577 491,-210 466.9824,-207.4881 440.7325,-204.6963 417.248,-202.1818"/>
<polygon fill="#191970" stroke="#191970" points="417.3361,-198.6712 407.0201,-201.0855 416.5901,-205.6314 417.3361,-198.6712"/>
</g>
<!-- Node13 -->
<g id="node14" class="node">
<title>Node13</title>
<g id="a_node14"><a xlink:href="../../df/db8/Detectors_2ITSMFT_2MFT_2tracking_2include_2MFTTracking_2Constants_8h.html" target="_top" xlink:title="MFTTracking/Constants.h">
<polygon fill="none" stroke="#000000" points="743.5,-56.5 743.5,-75.5 880.5,-75.5 880.5,-56.5 743.5,-56.5"/>
<text text-anchor="middle" x="812" y="-63.5" font-family="Helvetica,sans-Serif" font-size="10.00" fill="#000000">MFTTracking/Constants.h</text>
</a>
</g>
</g>
<!-- Node6&#45;&gt;Node13 -->
<g id="edge27" class="edge">
<title>Node6&#45;&gt;Node13</title>
<path fill="none" stroke="#191970" d="M897.8647,-246.455C883.3676,-238.5965 864.4247,-226.1339 853,-210 825.8142,-171.6084 816.5755,-115.5319 813.4954,-85.9616"/>
<polygon fill="#191970" stroke="#191970" points="816.9531,-85.3345 812.5668,-75.6903 809.9815,-85.9649 816.9531,-85.3345"/>
</g>
<!-- Node20 -->
<g id="node21" class="node">
<title>Node20</title>
<g id="a_node21"><a xlink:href="../../d1/d96/Detectors_2ITSMFT_2MFT_2tracking_2include_2MFTTracking_2Cell_8h.html" target="_top" xlink:title="MFTTracking/Cell.h">
<polygon fill="none" stroke="#000000" points="659.5,-118 659.5,-137 766.5,-137 766.5,-118 659.5,-118"/>
<text text-anchor="middle" x="713" y="-125" font-family="Helvetica,sans-Serif" font-size="10.00" fill="#000000">MFTTracking/Cell.h</text>
</a>
</g>
</g>
<!-- Node6&#45;&gt;Node20 -->
<g id="edge28" class="edge">
<title>Node6&#45;&gt;Node20</title>
<path fill="none" stroke="#191970" d="M854.9822,-246.4527C782.9147,-235.2322 674.0189,-217.2274 668,-210 650.9166,-189.4864 674.0549,-161.4924 692.9777,-143.9607"/>
<polygon fill="#191970" stroke="#191970" points="695.5219,-146.3833 700.6998,-137.1399 690.8878,-141.1368 695.5219,-146.3833"/>
</g>
<!-- Node22 -->
<g id="node23" class="node">
<title>Node22</title>
<g id="a_node23"><a xlink:href="../../d9/da4/TrackCA_8h.html" target="_top" xlink:title="Standalone classes for the track found by the Linear&#45;Track&#45;Finder (LTF) and by the Cellular&#45;Automaton...">
<polygon fill="none" stroke="#000000" points="677,-185 677,-204 805,-204 805,-185 677,-185"/>
<text text-anchor="middle" x="741" y="-192" font-family="Helvetica,sans-Serif" font-size="10.00" fill="#000000">MFTTracking/TrackCA.h</text>
</a>
</g>
</g>
<!-- Node6&#45;&gt;Node22 -->
<g id="edge33" class="edge">
<title>Node6&#45;&gt;Node22</title>
<path fill="none" stroke="#191970" d="M890.3438,-246.3906C860.0789,-235.8749 811.4145,-218.966 777.9089,-207.3243"/>
<polygon fill="#191970" stroke="#191970" points="779.0569,-204.0179 768.462,-204.0419 776.7593,-210.6302 779.0569,-204.0179"/>
</g>
<!-- Node23 -->
<g id="node24" class="node">
<title>Node23</title>
<g id="a_node24"><a xlink:href="../../d7/dcd/MCCompLabel_8h.html" target="_top" xlink:title="SimulationDataFormat\l/MCCompLabel.h">
<polygon fill="none" stroke="#000000" points="899.5,-112.5 899.5,-142.5 1026.5,-142.5 1026.5,-112.5 899.5,-112.5"/>
<text text-anchor="start" x="907.5" y="-130.5" font-family="Helvetica,sans-Serif" font-size="10.00" fill="#000000">SimulationDataFormat</text>
<text text-anchor="middle" x="963" y="-119.5" font-family="Helvetica,sans-Serif" font-size="10.00" fill="#000000">/MCCompLabel.h</text>
</a>
</g>
</g>
<!-- Node6&#45;&gt;Node23 -->
<g id="edge44" class="edge">
<title>Node6&#45;&gt;Node23</title>
<path fill="none" stroke="#191970" d="M941.7859,-246.4178C956.8669,-238.9442 975.1462,-226.9629 984,-210 993.6362,-191.5381 986.3025,-168.4057 977.7605,-151.3373"/>
<polygon fill="#191970" stroke="#191970" points="980.8364,-149.6672 972.9908,-142.547 974.6838,-153.0057 980.8364,-149.6672"/>
</g>
<!-- Node26 -->
<g id="node27" class="node">
<title>Node26</title>
<g id="a_node27"><a xlink:href="../../d8/d7a/MFT_2tracking_2include_2MFTTracking_2Road_8h.html" target="_top" xlink:title="MFTTracking/Road.h">
<polygon fill="none" stroke="#000000" points="861.5,-185 861.5,-204 974.5,-204 974.5,-185 861.5,-185"/>
<text text-anchor="middle" x="918" y="-192" font-family="Helvetica,sans-Serif" font-size="10.00" fill="#000000">MFTTracking/Road.h</text>
</a>
</g>
</g>
<!-- Node6&#45;&gt;Node26 -->
<g id="edge40" class="edge">
<title>Node6&#45;&gt;Node26</title>
<path fill="none" stroke="#191970" d="M918,-246.3906C918,-237.8657 918,-225.1392 918,-214.4235"/>
<polygon fill="#191970" stroke="#191970" points="921.5001,-214.2448 918,-204.2449 914.5001,-214.2449 921.5001,-214.2448"/>
</g>
<!-- Node27 -->
<g id="node28" class="node">
<title>Node27</title>
<g id="a_node28"><a xlink:href="../../db/d14/MCTruthContainer_8h.html" target="_top" xlink:title="Definition of a container to keep Monte Carlo truth external to simulation objects. ">
<polygon fill="none" stroke="#000000" points="1168.5,-179.5 1168.5,-209.5 1295.5,-209.5 1295.5,-179.5 1168.5,-179.5"/>
<text text-anchor="start" x="1176.5" y="-197.5" font-family="Helvetica,sans-Serif" font-size="10.00" fill="#000000">SimulationDataFormat</text>
<text text-anchor="middle" x="1232" y="-186.5" font-family="Helvetica,sans-Serif" font-size="10.00" fill="#000000">/MCTruthContainer.h</text>
</a>
</g>
</g>
<!-- Node6&#45;&gt;Node27 -->
<g id="edge45" class="edge">
<title>Node6&#45;&gt;Node27</title>
<path fill="none" stroke="#191970" d="M966.718,-246.4581C1017.9308,-236.4276 1099.1144,-220.527 1158.1952,-208.9554"/>
<polygon fill="#191970" stroke="#191970" points="1159.0761,-212.3495 1168.2169,-206.9926 1157.7306,-205.48 1159.0761,-212.3495"/>
</g>
<!-- Node11&#45;&gt;Node7 -->
<g id="edge14" class="edge">
<title>Node11&#45;&gt;Node7</title>
<path fill="none" stroke="#191970" d="M321.2113,-184.9384C303.6901,-176.7141 281.521,-162.9869 271,-143 264.5823,-130.8082 263.1322,-123.3104 271,-112 273.809,-107.9618 328.434,-88.7133 364.2365,-76.4303"/>
<polygon fill="#191970" stroke="#191970" points="365.4466,-79.7156 373.7768,-73.1691 363.1823,-73.0919 365.4466,-79.7156"/>
</g>
<!-- Node12 -->
<g id="node13" class="node">
<title>Node12</title>
<g id="a_node13"><a xlink:href="../../df/d8e/MFT_2tracking_2include_2MFTTracking_2IndexTableUtils_8h.html" target="_top" xlink:title="MFTTracking/IndexTableUtils.h">
<polygon fill="none" stroke="#000000" points="313,-118 313,-137 477,-137 477,-118 313,-118"/>
<text text-anchor="middle" x="395" y="-125" font-family="Helvetica,sans-Serif" font-size="10.00" fill="#000000">MFTTracking/IndexTableUtils.h</text>
</a>
</g>
</g>
<!-- Node11&#45;&gt;Node12 -->
<g id="edge15" class="edge">
<title>Node11&#45;&gt;Node12</title>
<path fill="none" stroke="#191970" d="M353.0205,-184.9005C360.5161,-174.6515 372.5663,-158.1747 381.8376,-145.4976"/>
<polygon fill="#191970" stroke="#191970" points="384.9144,-147.2195 387.9925,-137.0817 379.2642,-143.0873 384.9144,-147.2195"/>
</g>
<!-- Node17 -->
<g id="node18" class="node">
<title>Node17</title>
<g id="a_node18"><a xlink:href="../../df/d21/GPUCommonDef_8h.html" target="_top" xlink:title="GPUCommonDef.h">
<polygon fill="none" stroke="#000000" points="73.5,-118 73.5,-137 180.5,-137 180.5,-118 73.5,-118"/>
<text text-anchor="middle" x="127" y="-125" font-family="Helvetica,sans-Serif" font-size="10.00" fill="#000000">GPUCommonDef.h</text>
</a>
</g>
</g>
<!-- Node11&#45;&gt;Node17 -->
<g id="edge24" class="edge">
<title>Node11&#45;&gt;Node17</title>
<path fill="none" stroke="#191970" d="M314.6226,-184.9005C276.0806,-173.1091 210.5947,-153.0746 168.0765,-140.0668"/>
<polygon fill="#191970" stroke="#191970" points="168.9056,-136.6604 158.3192,-137.0817 166.8577,-143.3541 168.9056,-136.6604"/>
</g>
<!-- Node12&#45;&gt;Node4 -->
<g id="edge18" class="edge">
<title>Node12&#45;&gt;Node4</title>
<path fill="none" stroke="#191970" d="M403.7425,-117.9558C417.2797,-103.4967 444.5222,-75.6467 471,-56 487.0887,-44.062 506.5477,-32.8111 522.2457,-24.4244"/>
<polygon fill="#191970" stroke="#191970" points="524.2362,-27.3329 531.4702,-19.5921 520.9879,-21.1322 524.2362,-27.3329"/>
</g>
<!-- Node12&#45;&gt;Node7 -->
<g id="edge16" class="edge">
<title>Node12&#45;&gt;Node7</title>
<path fill="none" stroke="#191970" d="M395,-117.8906C395,-109.3657 395,-96.6392 395,-85.9235"/>
<polygon fill="#191970" stroke="#191970" points="398.5001,-85.7448 395,-75.7449 391.5001,-85.7449 398.5001,-85.7448"/>
</g>
<!-- Node12&#45;&gt;Node8 -->
<g id="edge17" class="edge">
<title>Node12&#45;&gt;Node8</title>
<path fill="none" stroke="#191970" d="M411.875,-117.8906C429.4698,-107.8713 457.2566,-92.0483 477.5241,-80.5071"/>
<polygon fill="#191970" stroke="#191970" points="479.2856,-83.5318 486.2435,-75.5419 475.8217,-77.4489 479.2856,-83.5318"/>
</g>
<!-- Node12&#45;&gt;Node13 -->
<g id="edge19" class="edge">
<title>Node12&#45;&gt;Node13</title>
<path fill="none" stroke="#191970" d="M459.6987,-117.9581C534.684,-106.8991 658.0514,-88.7047 737.119,-77.0436"/>
<polygon fill="#191970" stroke="#191970" points="738.1103,-80.4353 747.4926,-75.5137 737.0889,-73.5103 738.1103,-80.4353"/>
</g>
<!-- Node13&#45;&gt;Node4 -->
<g id="edge21" class="edge">
<title>Node13&#45;&gt;Node4</title>
<path fill="none" stroke="#191970" d="M767.4291,-56.4369C715.587,-45.3137 631.176,-27.2025 584.5697,-17.2027"/>
<polygon fill="#191970" stroke="#191970" points="585.186,-13.7553 574.6743,-15.0795 583.7175,-20.5996 585.186,-13.7553"/>
</g>
<!-- Node14 -->
<g id="node15" class="node">
<title>Node14</title>
<polygon fill="none" stroke="#bfbfbf" points="839,-.5 839,-19.5 889,-19.5 889,-.5 839,-.5"/>
<text text-anchor="middle" x="864" y="-7.5" font-family="Helvetica,sans-Serif" font-size="10.00" fill="#000000">climits</text>
</g>
<!-- Node13&#45;&gt;Node14 -->
<g id="edge20" class="edge">
<title>Node13&#45;&gt;Node14</title>
<path fill="none" stroke="#191970" d="M821.0577,-56.2455C828.5142,-48.2155 839.2634,-36.6394 848.1417,-27.0781"/>
<polygon fill="#191970" stroke="#191970" points="850.8063,-29.3522 855.0461,-19.6427 845.6768,-24.589 850.8063,-29.3522"/>
</g>
<!-- Node15 -->
<g id="node16" class="node">
<title>Node15</title>
<polygon fill="none" stroke="#bfbfbf" points="1448.5,-.5 1448.5,-19.5 1507.5,-19.5 1507.5,-.5 1448.5,-.5"/>
<text text-anchor="middle" x="1478" y="-7.5" font-family="Helvetica,sans-Serif" font-size="10.00" fill="#000000">Rtypes.h</text>
</g>
<!-- Node13&#45;&gt;Node15 -->
<g id="edge22" class="edge">
<title>Node13&#45;&gt;Node15</title>
<path fill="none" stroke="#191970" d="M880.7652,-60.2179C1019.3697,-48.5635 1328.4302,-22.5764 1438.297,-13.3384"/>
<polygon fill="#191970" stroke="#191970" points="1438.6234,-16.8234 1448.295,-12.4977 1438.0369,-9.848 1438.6234,-16.8234"/>
</g>
<!-- Node16 -->
<g id="node17" class="node">
<title>Node16</title>
<g id="a_node17"><a xlink:href="../../d6/d84/MathConstants_8h.html" target="_top" xlink:title="useful math constants ">
<polygon fill="none" stroke="#000000" points="627,-.5 627,-19.5 821,-19.5 821,-.5 627,-.5"/>
<text text-anchor="middle" x="724" y="-7.5" font-family="Helvetica,sans-Serif" font-size="10.00" fill="#000000">CommonConstants/MathConstants.h</text>
</a>
</g>
</g>
<!-- Node13&#45;&gt;Node16 -->
<g id="edge23" class="edge">
<title>Node13&#45;&gt;Node16</title>
<path fill="none" stroke="#191970" d="M796.6716,-56.2455C783.1697,-47.6534 763.2878,-35.0014 747.7314,-25.1018"/>
<polygon fill="#191970" stroke="#191970" points="749.4685,-22.0587 739.1528,-19.6427 745.7103,-27.9643 749.4685,-22.0587"/>
</g>
<!-- Node18 -->
<g id="node19" class="node">
<title>Node18</title>
<g id="a_node19"><a xlink:href="../../d5/d93/GPUCommonDefSettings_8h.html" target="_top" xlink:title="GPUCommonDefSettings.h">
<polygon fill="none" stroke="#000000" points="208,-56.5 208,-75.5 356,-75.5 356,-56.5 208,-56.5"/>
<text text-anchor="middle" x="282" y="-63.5" font-family="Helvetica,sans-Serif" font-size="10.00" fill="#000000">GPUCommonDefSettings.h</text>
</a>
</g>
</g>
<!-- Node17&#45;&gt;Node18 -->
<g id="edge25" class="edge">
<title>Node17&#45;&gt;Node18</title>
<path fill="none" stroke="#191970" d="M151.2188,-117.8906C177.3806,-107.5103 219.2429,-90.9004 248.5388,-79.2766"/>
<polygon fill="#191970" stroke="#191970" points="249.9471,-82.4833 257.9513,-75.5419 247.3654,-75.9767 249.9471,-82.4833"/>
</g>
<!-- Node19 -->
<g id="node20" class="node">
<title>Node19</title>
<g id="a_node20"><a xlink:href="../../da/d5a/GPUCommonDefAPI_8h.html" target="_top" xlink:title="GPUCommonDefAPI.h">
<polygon fill="none" stroke="#000000" points="66,-56.5 66,-75.5 190,-75.5 190,-56.5 66,-56.5"/>
<text text-anchor="middle" x="128" y="-63.5" font-family="Helvetica,sans-Serif" font-size="10.00" fill="#000000">GPUCommonDefAPI.h</text>
</a>
</g>
</g>
<!-- Node17&#45;&gt;Node19 -->
<g id="edge26" class="edge">
<title>Node17&#45;&gt;Node19</title>
<path fill="none" stroke="#191970" d="M127.1563,-117.8906C127.2949,-109.3657 127.5018,-96.6392 127.676,-85.9235"/>
<polygon fill="#191970" stroke="#191970" points="131.1784,-85.8005 127.8415,-75.7449 124.1793,-85.6866 131.1784,-85.8005"/>
</g>
<!-- Node20&#45;&gt;Node4 -->
<g id="edge30" class="edge">
<title>Node20&#45;&gt;Node4</title>
<path fill="none" stroke="#191970" d="M699.7429,-117.8845C671.8568,-97.6585 606.8997,-50.5445 572.7955,-25.8085"/>
<polygon fill="#191970" stroke="#191970" points="574.5902,-22.7865 564.4403,-19.7484 570.4803,-28.453 574.5902,-22.7865"/>
</g>
<!-- Node20&#45;&gt;Node7 -->
<g id="edge29" class="edge">
<title>Node20&#45;&gt;Node7</title>
<path fill="none" stroke="#191970" d="M675.7785,-117.9321C667.3264,-115.8738 658.3726,-113.7833 650,-112 569.8266,-94.9237 474.5916,-78.8511 426.3561,-71.0051"/>
<polygon fill="#191970" stroke="#191970" points="426.6759,-67.5114 416.2452,-69.3692 425.5578,-74.4215 426.6759,-67.5114"/>
</g>
<!-- Node20&#45;&gt;Node13 -->
<g id="edge32" class="edge">
<title>Node20&#45;&gt;Node13</title>
<path fill="none" stroke="#191970" d="M728.4688,-117.8906C744.4521,-107.9616 769.6103,-92.333 788.1433,-80.8201"/>
<polygon fill="#191970" stroke="#191970" points="789.9924,-83.7918 796.6399,-75.5419 786.2985,-77.8457 789.9924,-83.7918"/>
</g>
<!-- Node21 -->
<g id="node22" class="node">
<title>Node21</title>
<polygon fill="none" stroke="#bfbfbf" points="665,-56.5 665,-75.5 725,-75.5 725,-56.5 665,-56.5"/>
<text text-anchor="middle" x="695" y="-63.5" font-family="Helvetica,sans-Serif" font-size="10.00" fill="#000000">iostream</text>
</g>
<!-- Node20&#45;&gt;Node21 -->
<g id="edge31" class="edge">
<title>Node20&#45;&gt;Node21</title>
<path fill="none" stroke="#191970" d="M710.1875,-117.8906C707.6661,-109.276 703.889,-96.3708 700.7324,-85.5858"/>
<polygon fill="#191970" stroke="#191970" points="704.0203,-84.3591 697.8522,-75.7449 697.3021,-86.3254 704.0203,-84.3591"/>
</g>
<!-- Node22&#45;&gt;Node7 -->
<g id="edge34" class="edge">
<title>Node22&#45;&gt;Node7</title>
<path fill="none" stroke="#191970" d="M676.8361,-191.5682C561.3865,-185.631 328.3324,-170.3683 304,-143 294.8455,-132.7033 296.7823,-123.7359 304,-112 310.9281,-100.735 340.7678,-86.9499 364.4144,-77.4238"/>
<polygon fill="#191970" stroke="#191970" points="365.7356,-80.6652 373.7596,-73.7466 363.1725,-74.1513 365.7356,-80.6652"/>
</g>
<!-- Node22&#45;&gt;Node13 -->
<g id="edge38" class="edge">
<title>Node22&#45;&gt;Node13</title>
<path fill="none" stroke="#191970" d="M748.1893,-184.9258C755.626,-174.8026 767.342,-158.2229 776,-143 786.8921,-123.8491 797.3238,-100.8469 804.1277,-84.9989"/>
<polygon fill="#191970" stroke="#191970" points="807.3759,-86.3038 808.0433,-75.73 800.9276,-83.5797 807.3759,-86.3038"/>
</g>
<!-- Node22&#45;&gt;Node23 -->
<g id="edge35" class="edge">
<title>Node22&#45;&gt;Node23</title>
<path fill="none" stroke="#191970" d="M772.8072,-184.9005C806.8431,-174.6284 861.607,-158.1006 903.6492,-145.4122"/>
<polygon fill="#191970" stroke="#191970" points="904.6642,-148.7619 913.2264,-142.5218 902.6416,-142.0604 904.6642,-148.7619"/>
</g>
<!-- Node25 -->
<g id="node26" class="node">
<title>Node25</title>
<polygon fill="none" stroke="#bfbfbf" points="533,-118 533,-137 641,-137 641,-118 533,-118"/>
<text text-anchor="middle" x="587" y="-125" font-family="Helvetica,sans-Serif" font-size="10.00" fill="#000000">fairlogger/Logger.h</text>
</g>
<!-- Node22&#45;&gt;Node25 -->
<g id="edge39" class="edge">
<title>Node22&#45;&gt;Node25</title>
<path fill="none" stroke="#191970" d="M718.9356,-184.9005C692.6335,-173.4574 648.4872,-154.2509 618.5755,-141.2374"/>
<polygon fill="#191970" stroke="#191970" points="619.5896,-137.8617 609.0235,-137.0817 616.797,-144.2806 619.5896,-137.8617"/>
</g>
<!-- Node24 -->
<g id="node25" class="node">
<title>Node24</title>
<g id="a_node25"><a xlink:href="../../d2/d45/GPUCommonRtypes_8h.html" target="_top" xlink:title="GPUCommonRtypes.h">
<polygon fill="none" stroke="#000000" points="1415.5,-56.5 1415.5,-75.5 1540.5,-75.5 1540.5,-56.5 1415.5,-56.5"/>
<text text-anchor="middle" x="1478" y="-63.5" font-family="Helvetica,sans-Serif" font-size="10.00" fill="#000000">GPUCommonRtypes.h</text>
</a>
</g>
</g>
<!-- Node23&#45;&gt;Node24 -->
<g id="edge36" class="edge">
<title>Node23&#45;&gt;Node24</title>
<path fill="none" stroke="#191970" d="M1026.6277,-113.577C1029.7913,-113.0144 1032.9285,-112.4845 1036,-112 1165.2013,-91.6185 1317.1274,-78.0578 1405.0137,-71.2225"/>
<polygon fill="#191970" stroke="#191970" points="1405.4447,-74.6998 1415.1464,-70.4423 1404.9071,-67.7205 1405.4447,-74.6998"/>
</g>
<!-- Node24&#45;&gt;Node15 -->
<g id="edge37" class="edge">
<title>Node24&#45;&gt;Node15</title>
<path fill="none" stroke="#191970" d="M1478,-56.2455C1478,-48.9382 1478,-38.6944 1478,-29.7046"/>
<polygon fill="#191970" stroke="#191970" points="1481.5001,-29.6426 1478,-19.6427 1474.5001,-29.6427 1481.5001,-29.6426"/>
</g>
<!-- Node26&#45;&gt;Node13 -->
<g id="edge42" class="edge">
<title>Node26&#45;&gt;Node13</title>
<path fill="none" stroke="#191970" d="M910.0328,-184.8416C892.307,-163.3533 849.3859,-111.3216 826.6681,-83.7817"/>
<polygon fill="#191970" stroke="#191970" points="829.123,-81.2574 820.0597,-75.7705 823.7232,-85.7118 829.123,-81.2574"/>
</g>
<!-- Node26&#45;&gt;Node20 -->
<g id="edge41" class="edge">
<title>Node26&#45;&gt;Node20</title>
<path fill="none" stroke="#191970" d="M888.6285,-184.9005C852.7026,-173.1589 791.7676,-153.2436 751.9555,-140.2318"/>
<polygon fill="#191970" stroke="#191970" points="752.9096,-136.8615 742.317,-137.0817 750.7349,-143.5151 752.9096,-136.8615"/>
</g>
<!-- Node26&#45;&gt;Node23 -->
<g id="edge43" class="edge">
<title>Node26&#45;&gt;Node23</title>
<path fill="none" stroke="#191970" d="M924.4474,-184.9005C930.3734,-176.0773 939.3994,-162.6387 947.2284,-150.9822"/>
<polygon fill="#191970" stroke="#191970" points="950.2406,-152.7746 952.9108,-142.5218 944.4297,-148.8717 950.2406,-152.7746"/>
</g>
<!-- Node27&#45;&gt;Node4 -->
<g id="edge54" class="edge">
<title>Node27&#45;&gt;Node4</title>
<path fill="none" stroke="#191970" d="M1204.363,-179.4272C1186.958,-169.6231 1164.2267,-156.2398 1145,-143 1126.7635,-130.4421 1125.8144,-121.8823 1106,-112 908.4921,-13.4946 836.554,-50.771 618,-20 607.1693,-18.4751 595.3656,-16.7384 584.7251,-15.145"/>
<polygon fill="#191970" stroke="#191970" points="584.9614,-11.6412 574.5516,-13.6126 583.9187,-18.5631 584.9614,-11.6412"/>
</g>
<!-- Node27&#45;&gt;Node5 -->
<g id="edge50" class="edge">
<title>Node27&#45;&gt;Node5</title>
<path fill="none" stroke="#191970" d="M1295.6864,-180.903C1298.8345,-180.2543 1301.9523,-179.6169 1305,-179 1387.9551,-162.2097 1410.8665,-167.1 1492,-143 1494.3051,-142.3153 1496.6629,-141.5417 1499.0194,-140.7146"/>
<polygon fill="#191970" stroke="#191970" points="1500.4474,-143.9165 1508.5612,-137.1036 1497.9697,-137.3696 1500.4474,-143.9165"/>
</g>
<!-- Node27&#45;&gt;Node9 -->
<g id="edge48" class="edge">
<title>Node27&#45;&gt;Node9</title>
<path fill="none" stroke="#191970" d="M1195.8685,-179.4639C1168.1246,-167.9183 1130.1557,-152.1176 1103.3918,-140.9798"/>
<polygon fill="#191970" stroke="#191970" points="1104.6553,-137.7147 1094.0781,-137.1039 1101.9658,-144.1774 1104.6553,-137.7147"/>
</g>
<!-- Node27&#45;&gt;Node24 -->
<g id="edge46" class="edge">
<title>Node27&#45;&gt;Node24</title>
<path fill="none" stroke="#191970" d="M1295.6312,-180.9044C1361.7336,-166.6565 1456.0121,-145.9322 1459,-143 1474.1556,-128.127 1477.9465,-103.2297 1478.5651,-85.7833"/>
<polygon fill="#191970" stroke="#191970" points="1482.0657,-85.5869 1478.6012,-75.5746 1475.0658,-85.5622 1482.0657,-85.5869"/>
</g>
<!-- Node28 -->
<g id="node29" class="node">
<title>Node28</title>
<polygon fill="none" stroke="#bfbfbf" points="1572,-118 1572,-137 1622,-137 1622,-118 1572,-118"/>
<text text-anchor="middle" x="1597" y="-125" font-family="Helvetica,sans-Serif" font-size="10.00" fill="#000000">cstdint</text>
</g>
<!-- Node27&#45;&gt;Node28 -->
<g id="edge47" class="edge">
<title>Node27&#45;&gt;Node28</title>
<path fill="none" stroke="#191970" d="M1295.6498,-180.709C1298.8075,-180.1116 1301.9374,-179.5381 1305,-179 1419.0307,-158.9641 1451.8339,-175.3503 1563,-143 1564.9621,-142.429 1566.9561,-141.7639 1568.9445,-141.0364"/>
<polygon fill="#191970" stroke="#191970" points="1570.7555,-144.0755 1578.6654,-137.0267 1568.0863,-137.6043 1570.7555,-144.0755"/>
</g>
<!-- Node29 -->
<g id="node30" class="node">
<title>Node29</title>
<polygon fill="none" stroke="#bfbfbf" points="1153.5,-118 1153.5,-137 1218.5,-137 1218.5,-118 1153.5,-118"/>
<text text-anchor="middle" x="1186" y="-125" font-family="Helvetica,sans-Serif" font-size="10.00" fill="#000000">stdexcept</text>
</g>
<!-- Node27&#45;&gt;Node29 -->
<g id="edge49" class="edge">
<title>Node27&#45;&gt;Node29</title>
<path fill="none" stroke="#191970" d="M1221.5619,-179.2967C1214.6732,-169.2631 1205.6158,-156.0709 1198.366,-145.5113"/>
<polygon fill="#191970" stroke="#191970" points="1201.1056,-143.318 1192.5601,-137.055 1195.3348,-147.28 1201.1056,-143.318"/>
</g>
<!-- Node30 -->
<g id="node31" class="node">
<title>Node30</title>
<polygon fill="none" stroke="#bfbfbf" points="1236.5,-118 1236.5,-137 1305.5,-137 1305.5,-118 1236.5,-118"/>
<text text-anchor="middle" x="1271" y="-125" font-family="Helvetica,sans-Serif" font-size="10.00" fill="#000000">type_traits</text>
</g>
<!-- Node27&#45;&gt;Node30 -->
<g id="edge51" class="edge">
<title>Node27&#45;&gt;Node30</title>
<path fill="none" stroke="#191970" d="M1240.8497,-179.2967C1246.6311,-169.3645 1254.2142,-156.3371 1260.3291,-145.8321"/>
<polygon fill="#191970" stroke="#191970" points="1263.4323,-147.4582 1265.4382,-137.055 1257.3825,-143.9367 1263.4323,-147.4582"/>
</g>
<!-- Node31 -->
<g id="node32" class="node">
<title>Node31</title>
<polygon fill="none" stroke="#bfbfbf" points="1324,-118 1324,-137 1374,-137 1374,-118 1324,-118"/>
<text text-anchor="middle" x="1349" y="-125" font-family="Helvetica,sans-Serif" font-size="10.00" fill="#000000">cstring</text>
</g>
<!-- Node27&#45;&gt;Node31 -->
<g id="edge52" class="edge">
<title>Node27&#45;&gt;Node31</title>
<path fill="none" stroke="#191970" d="M1258.2571,-179.4639C1277.7113,-168.3234 1304.0839,-153.2212 1323.3839,-142.1691"/>
<polygon fill="#191970" stroke="#191970" points="1325.2904,-145.1106 1332.229,-137.1039 1321.8118,-139.0361 1325.2904,-145.1106"/>
</g>
<!-- Node32 -->
<g id="node33" class="node">
<title>Node32</title>
<polygon fill="none" stroke="#bfbfbf" points="1392,-118 1392,-137 1450,-137 1450,-118 1392,-118"/>
<text text-anchor="middle" x="1421" y="-125" font-family="Helvetica,sans-Serif" font-size="10.00" fill="#000000">memory</text>
</g>
<!-- Node27&#45;&gt;Node32 -->
<g id="edge53" class="edge">
<title>Node27&#45;&gt;Node32</title>
<path fill="none" stroke="#191970" d="M1278.5105,-179.42C1308.4951,-169.5057 1348.2376,-156.005 1383,-143 1384.8518,-142.3072 1386.7487,-141.5825 1388.6591,-140.8409"/>
<polygon fill="#191970" stroke="#191970" points="1390.1747,-144.005 1398.1776,-137.0621 1387.5918,-137.4989 1390.1747,-144.005"/>
</g>
<!-- Node34 -->
<g id="node35" class="node">
<title>Node34</title>
<g id="a_node35"><a xlink:href="../../de/d64/RangeReference_8h.html" target="_top" xlink:title="Class to refer to the 1st entry and N elements of some group in the continuous container. ">
<polygon fill="none" stroke="#000000" points="1446,-185 1446,-204 1656,-204 1656,-185 1446,-185"/>
<text text-anchor="middle" x="1551" y="-192" font-family="Helvetica,sans-Serif" font-size="10.00" fill="#000000">CommonDataFormat/RangeReference.h</text>
</a>
</g>
</g>
<!-- Node33&#45;&gt;Node34 -->
<g id="edge56" class="edge">
<title>Node33&#45;&gt;Node34</title>
<path fill="none" stroke="#191970" d="M1639.5938,-246.3906C1622.5647,-236.4165 1595.7159,-220.6908 1576.0349,-209.1633"/>
<polygon fill="#191970" stroke="#191970" points="1577.6888,-206.0759 1567.291,-204.0419 1574.151,-212.1161 1577.6888,-206.0759"/>
</g>
<!-- Node35 -->
<g id="node36" class="node">
<title>Node35</title>
<g id="a_node36"><a xlink:href="../../d9/d80/InteractionRecord_8h.html" target="_top" xlink:title="CommonDataFormat/Interaction\lRecord.h">
<polygon fill="none" stroke="#000000" points="1674,-179.5 1674,-209.5 1848,-209.5 1848,-179.5 1674,-179.5"/>
<text text-anchor="start" x="1682" y="-197.5" font-family="Helvetica,sans-Serif" font-size="10.00" fill="#000000">CommonDataFormat/Interaction</text>
<text text-anchor="middle" x="1761" y="-186.5" font-family="Helvetica,sans-Serif" font-size="10.00" fill="#000000">Record.h</text>
</a>
</g>
</g>
<!-- Node33&#45;&gt;Node35 -->
<g id="edge58" class="edge">
<title>Node33&#45;&gt;Node35</title>
<path fill="none" stroke="#191970" d="M1672.4063,-246.3906C1686.8799,-237.9132 1708.4472,-225.2809 1726.6781,-214.6028"/>
<polygon fill="#191970" stroke="#191970" points="1728.4542,-217.6188 1735.3141,-209.5446 1724.9163,-211.5786 1728.4542,-217.6188"/>
</g>
<!-- Node38 -->
<g id="node39" class="node">
<title>Node38</title>
<polygon fill="none" stroke="#bfbfbf" points="1866.5,-185 1866.5,-204 1923.5,-204 1923.5,-185 1866.5,-185"/>
<text text-anchor="middle" x="1895" y="-192" font-family="Helvetica,sans-Serif" font-size="10.00" fill="#000000">gsl/span</text>
</g>
<!-- Node33&#45;&gt;Node38 -->
<g id="edge64" class="edge">
<title>Node33&#45;&gt;Node38</title>
<path fill="none" stroke="#191970" d="M1708.2586,-246.4614C1749.1962,-238.4109 1807.3357,-225.6976 1857,-210 1859.1527,-209.3196 1861.3548,-208.5701 1863.5609,-207.7791"/>
<polygon fill="#191970" stroke="#191970" points="1865.0246,-210.9668 1873.1191,-204.1308 1862.5284,-204.427 1865.0246,-210.9668"/>
</g>
<!-- Node34&#45;&gt;Node24 -->
<g id="edge57" class="edge">
<title>Node34&#45;&gt;Node24</title>
<path fill="none" stroke="#191970" d="M1578.5697,-184.865C1597.0376,-176.7997 1619.9251,-163.3007 1631,-143 1637.5983,-130.905 1639.2211,-123.0563 1631,-112 1620.1078,-97.3513 1579.969,-85.6056 1543.5381,-77.6502"/>
<polygon fill="#191970" stroke="#191970" points="1543.8957,-74.1486 1533.3884,-75.5076 1542.4498,-80.9977 1543.8957,-74.1486"/>
</g>
<!-- Node35&#45;&gt;Node1 -->
<g id="edge60" class="edge">
<title>Node35&#45;&gt;Node1</title>
<path fill="none" stroke="#191970" d="M1842.2779,-179.4823C1884.2599,-170.7232 1935.9858,-158.3603 1981,-143 1982.8419,-142.3715 1984.719,-141.6774 1986.5978,-140.9418"/>
<polygon fill="#191970" stroke="#191970" points="1988.0037,-144.1474 1995.8504,-137.0285 1985.2769,-137.7004 1988.0037,-144.1474"/>
</g>
<!-- Node35&#45;&gt;Node15 -->
<g id="edge59" class="edge">
<title>Node35&#45;&gt;Node15</title>
<path fill="none" stroke="#191970" d="M1741.1761,-179.3797C1718.7113,-162.4286 1680.817,-134.3854 1647,-112 1597.3709,-79.1476 1537.2995,-43.9258 1503.7951,-24.6693"/>
<polygon fill="#191970" stroke="#191970" points="1505.4972,-21.6107 1495.0804,-19.6765 1502.0174,-27.6845 1505.4972,-21.6107"/>
</g>
<!-- Node35&#45;&gt;Node28 -->
<g id="edge62" class="edge">
<title>Node35&#45;&gt;Node28</title>
<path fill="none" stroke="#191970" d="M1724.1952,-179.4639C1695.9344,-167.9183 1657.258,-152.1176 1629.9954,-140.9798"/>
<polygon fill="#191970" stroke="#191970" points="1631.0891,-137.6459 1620.5081,-137.1039 1628.4417,-144.126 1631.0891,-137.6459"/>
</g>
<!-- Node36 -->
<g id="node37" class="node">
<title>Node36</title>
<polygon fill="none" stroke="#bfbfbf" points="1716.5,-118 1716.5,-137 1763.5,-137 1763.5,-118 1716.5,-118"/>
<text text-anchor="middle" x="1740" y="-125" font-family="Helvetica,sans-Serif" font-size="10.00" fill="#000000">cmath</text>
</g>
<!-- Node35&#45;&gt;Node36 -->
<g id="edge61" class="edge">
<title>Node35&#45;&gt;Node36</title>
<path fill="none" stroke="#191970" d="M1756.2348,-179.2967C1753.217,-169.6685 1749.2876,-157.1318 1746.0504,-146.8038"/>
<polygon fill="#191970" stroke="#191970" points="1749.3256,-145.5504 1742.9948,-137.055 1742.646,-147.6441 1749.3256,-145.5504"/>
</g>
<!-- Node37 -->
<g id="node38" class="node">
<title>Node37</title>
<g id="a_node38"><a xlink:href="../../d4/dc6/LHCConstants_8h.html" target="_top" xlink:title="Header to collect LHC related constants. ">
<polygon fill="none" stroke="#000000" points="1782,-118 1782,-137 1972,-137 1972,-118 1782,-118"/>
<text text-anchor="middle" x="1877" y="-125" font-family="Helvetica,sans-Serif" font-size="10.00" fill="#000000">CommonConstants/LHCConstants.h</text>
</a>
</g>
</g>
<!-- Node35&#45;&gt;Node37 -->
<g id="edge63" class="edge">
<title>Node35&#45;&gt;Node37</title>
<path fill="none" stroke="#191970" d="M1787.0327,-179.4639C1806.3206,-168.3234 1832.4678,-153.2212 1851.6028,-142.1691"/>
<polygon fill="#191970" stroke="#191970" points="1853.4635,-145.1363 1860.3723,-137.1039 1849.9624,-139.0747 1853.4635,-145.1363"/>
</g>
</g>
</svg>
