<?xml version="1.0" encoding="UTF-8" standalone="no"?>
<!DOCTYPE svg PUBLIC "-//W3C//DTD SVG 1.1//EN"
 "http://www.w3.org/Graphics/SVG/1.1/DTD/svg11.dtd">
<!-- Generated by graphviz version 2.40.1 (20161225.0304)
 -->
<!-- Title: /home/travis/build/AliceO2Group/AliceO2/Detectors/TOF/base/src/CableLength.cxx Pages: 1 -->
<!--zoomable 374 -->
<svg id="main" version="1.1" xmlns="http://www.w3.org/2000/svg" xmlns:xlink="http://www.w3.org/1999/xlink" xml:space="preserve" onload="init(evt)">
<style type="text/css"><![CDATA[
.edge:hover path { stroke: red; }
.edge:hover polygon { stroke: red; fill: red; }
]]></style>
<script type="text/javascript"><![CDATA[
var edges = document.getElementsByTagName('g');
if (edges && edges.length) {
  for (var i=0;i<edges.length;i++) {
    if (edges[i].id.substr(0,4)=='edge') {
      edges[i].setAttribute('class','edge');
    }
  }
}
]]></script>
        <defs>
                <circle id="rim" cx="0" cy="0" r="7"/>
                <circle id="rim2" cx="0" cy="0" r="3.5"/>
                <g id="zoomPlus">
                        <use xlink:href="#rim" fill="#404040">
                                <set attributeName="fill" to="#808080" begin="zoomplus.mouseover" end="zoomplus.mouseout"/>
                        </use>
                        <path d="M-4,0h8M0,-4v8" fill="none" stroke="white" stroke-width="1.5" pointer-events="none"/>
                </g>
                <g id="zoomMin">
                        <use xlink:href="#rim" fill="#404040">
                                <set attributeName="fill" to="#808080" begin="zoomminus.mouseover" end="zoomminus.mouseout"/>
                        </use>
                        <path d="M-4,0h8" fill="none" stroke="white" stroke-width="1.5" pointer-events="none"/>
                </g>
                <g id="dirArrow">
                        <path fill="none" stroke="white" stroke-width="1.5" d="M0,-3.0v7 M-2.5,-0.5L0,-3.0L2.5,-0.5"/>
                </g>
               <g id="resetDef">
                       <use xlink:href="#rim2" fill="#404040">
                               <set attributeName="fill" to="#808080" begin="reset.mouseover" end="reset.mouseout"/>
                       </use>
               </g>
        </defs>

<script type="text/javascript">
var viewWidth = 1151;
var viewHeight = 374;
var sectionId = 'dynsection-0';
</script>
<script xlink:href="../../svgpan.js"/>
<svg id="graph" class="graph">
<g id="viewport">
<title>/home/travis/build/AliceO2Group/AliceO2/Detectors/TOF/base/src/CableLength.cxx</title>
<!-- Node0 -->
<g id="node1" class="node">
<title>Node0</title>
<polygon fill="#bfbfbf" stroke="#000000" points="344.5,-313.5 344.5,-365.5 476.5,-365.5 476.5,-313.5 344.5,-313.5"/>
<text text-anchor="start" x="352.5" y="-353.5" font-family="Helvetica,sans-Serif" font-size="10.00" fill="#000000">/home/travis/build</text>
<text text-anchor="start" x="352.5" y="-342.5" font-family="Helvetica,sans-Serif" font-size="10.00" fill="#000000">/AliceO2Group/AliceO2</text>
<text text-anchor="start" x="352.5" y="-331.5" font-family="Helvetica,sans-Serif" font-size="10.00" fill="#000000">/Detectors/TOF/base/src</text>
<text text-anchor="middle" x="410.5" y="-320.5" font-family="Helvetica,sans-Serif" font-size="10.00" fill="#000000">/CableLength.cxx</text>
</g>
<!-- Node1 -->
<g id="node2" class="node">
<title>Node1</title>
<g id="a_node2"><a xlink:href="../../d4/d54/Geo_8h.html" target="_top" xlink:title="TOFBase/Geo.h">
<polygon fill="none" stroke="#000000" points="365,-257.5 365,-276.5 456,-276.5 456,-257.5 365,-257.5"/>
<text text-anchor="middle" x="410.5" y="-264.5" font-family="Helvetica,sans-Serif" font-size="10.00" fill="#000000">TOFBase/Geo.h</text>
</a>
</g>
</g>
<!-- Node0&#45;&gt;Node1 -->
<g id="edge1" class="edge">
<title>Node0&#45;&gt;Node1</title>
<path fill="none" stroke="#191970" d="M410.5,-313.3258C410.5,-304.5142 410.5,-294.8397 410.5,-286.621"/>
<polygon fill="#191970" stroke="#191970" points="414.0001,-286.534 410.5,-276.534 407.0001,-286.534 414.0001,-286.534"/>
</g>
<!-- Node2 -->
<g id="node3" class="node">
<title>Node2</title>
<polygon fill="none" stroke="#bfbfbf" points="0,-73 0,-92 59,-92 59,-73 0,-73"/>
<text text-anchor="middle" x="29.5" y="-80" font-family="Helvetica,sans-Serif" font-size="10.00" fill="#000000">Rtypes.h</text>
</g>
<!-- Node1&#45;&gt;Node2 -->
<g id="edge2" class="edge">
<title>Node1&#45;&gt;Node2</title>
<path fill="none" stroke="#191970" d="M364.8428,-261.6993C272.6607,-249.9592 69.5792,-218.4872 28.5,-165 14.7799,-147.1357 18.2929,-120.0887 23.0444,-101.8811"/>
<polygon fill="#191970" stroke="#191970" points="26.4623,-102.665 25.9418,-92.083 19.7497,-100.6799 26.4623,-102.665"/>
</g>
<!-- Node3 -->
<g id="node4" class="node">
<title>Node3</title>
<g id="a_node4"><a xlink:href="../../d4/dc6/LHCConstants_8h.html" target="_top" xlink:title="Header to collect LHC related constants. ">
<polygon fill="none" stroke="#000000" points="335.5,-73 335.5,-92 525.5,-92 525.5,-73 335.5,-73"/>
<text text-anchor="middle" x="430.5" y="-80" font-family="Helvetica,sans-Serif" font-size="10.00" fill="#000000">CommonConstants/LHCConstants.h</text>
</a>
</g>
</g>
<!-- Node1&#45;&gt;Node3 -->
<g id="edge3" class="edge">
<title>Node1&#45;&gt;Node3</title>
<path fill="none" stroke="#191970" d="M447.715,-257.4677C489.9407,-244.4354 556.7886,-216.5596 586.5,-165 608.4773,-126.8617 556.6518,-105.5466 506.9404,-94.1839"/>
<polygon fill="#191970" stroke="#191970" points="507.563,-90.7377 497.0487,-92.042 506.0815,-97.5791 507.563,-90.7377"/>
</g>
<!-- Node4 -->
<g id="node5" class="node">
<title>Node4</title>
<g id="a_node5"><a xlink:href="../../d1/dec/HBFUtils_8h.html" target="_top" xlink:title="DetectorsRaw/HBFUtils.h">
<polygon fill="none" stroke="#000000" points="341,-201.5 341,-220.5 480,-220.5 480,-201.5 341,-201.5"/>
<text text-anchor="middle" x="410.5" y="-208.5" font-family="Helvetica,sans-Serif" font-size="10.00" fill="#000000">DetectorsRaw/HBFUtils.h</text>
</a>
</g>
</g>
<!-- Node1&#45;&gt;Node4 -->
<g id="edge4" class="edge">
<title>Node1&#45;&gt;Node4</title>
<path fill="none" stroke="#191970" d="M410.5,-257.2455C410.5,-249.9382 410.5,-239.6944 410.5,-230.7046"/>
<polygon fill="#191970" stroke="#191970" points="414.0001,-230.6426 410.5,-220.6427 407.0001,-230.6427 414.0001,-230.6426"/>
</g>
<!-- Node4&#45;&gt;Node2 -->
<g id="edge5" class="edge">
<title>Node4&#45;&gt;Node2</title>
<path fill="none" stroke="#191970" d="M340.9672,-206.421C241.9172,-199.2642 69.7581,-184.2326 48.5,-165 31.1792,-149.3295 28.0412,-121.3225 28.152,-102.3341"/>
<polygon fill="#191970" stroke="#191970" points="31.658,-102.2339 28.5265,-92.1125 24.6627,-101.9776 31.658,-102.2339"/>
</g>
<!-- Node5 -->
<g id="node6" class="node">
<title>Node5</title>
<g id="a_node6"><a xlink:href="../../db/d2c/ConfigurableParam_8h.html" target="_top" xlink:title="CommonUtils/Configurable\lParam.h">
<polygon fill="none" stroke="#000000" points="811.5,-67.5 811.5,-97.5 959.5,-97.5 959.5,-67.5 811.5,-67.5"/>
<text text-anchor="start" x="819.5" y="-85.5" font-family="Helvetica,sans-Serif" font-size="10.00" fill="#000000">CommonUtils/Configurable</text>
<text text-anchor="middle" x="885.5" y="-74.5" font-family="Helvetica,sans-Serif" font-size="10.00" fill="#000000">Param.h</text>
</a>
</g>
</g>
<!-- Node4&#45;&gt;Node5 -->
<g id="edge6" class="edge">
<title>Node4&#45;&gt;Node5</title>
<path fill="none" stroke="#191970" d="M480.176,-207.4505C574.3009,-201.8259 736.5188,-188.9628 790.5,-165 821.033,-151.4461 848.9884,-124.6445 866.5498,-105.2601"/>
<polygon fill="#191970" stroke="#191970" points="869.2064,-107.5392 873.1961,-97.7242 863.9565,-102.909 869.2064,-107.5392"/>
</g>
<!-- Node12 -->
<g id="node13" class="node">
<title>Node12</title>
<g id="a_node13"><a xlink:href="../../da/d6b/ConfigurableParamHelper_8h.html" target="_top" xlink:title="CommonUtils/Configurable\lParamHelper.h">
<polygon fill="none" stroke="#000000" points="633.5,-134.5 633.5,-164.5 781.5,-164.5 781.5,-134.5 633.5,-134.5"/>
<text text-anchor="start" x="641.5" y="-152.5" font-family="Helvetica,sans-Serif" font-size="10.00" fill="#000000">CommonUtils/Configurable</text>
<text text-anchor="middle" x="707.5" y="-141.5" font-family="Helvetica,sans-Serif" font-size="10.00" fill="#000000">ParamHelper.h</text>
</a>
</g>
</g>
<!-- Node4&#45;&gt;Node12 -->
<g id="edge13" class="edge">
<title>Node4&#45;&gt;Node12</title>
<path fill="none" stroke="#191970" d="M456.5804,-201.4581C501.4459,-192.1678 570.63,-177.8418 624.9977,-166.5838"/>
<polygon fill="#191970" stroke="#191970" points="625.8852,-169.9744 634.9677,-164.5193 624.4657,-163.1198 625.8852,-169.9744"/>
</g>
<!-- Node16 -->
<g id="node17" class="node">
<title>Node16</title>
<g id="a_node17"><a xlink:href="../../d9/d80/InteractionRecord_8h.html" target="_top" xlink:title="CommonDataFormat/Interaction\lRecord.h">
<polygon fill="none" stroke="#000000" points="57.5,-134.5 57.5,-164.5 231.5,-164.5 231.5,-134.5 57.5,-134.5"/>
<text text-anchor="start" x="65.5" y="-152.5" font-family="Helvetica,sans-Serif" font-size="10.00" fill="#000000">CommonDataFormat/Interaction</text>
<text text-anchor="middle" x="144.5" y="-141.5" font-family="Helvetica,sans-Serif" font-size="10.00" fill="#000000">Record.h</text>
</a>
</g>
</g>
<!-- Node4&#45;&gt;Node16 -->
<g id="edge19" class="edge">
<title>Node4&#45;&gt;Node16</title>
<path fill="none" stroke="#191970" d="M369.2294,-201.4581C329.2969,-192.2256 267.8544,-178.0199 219.3017,-166.7944"/>
<polygon fill="#191970" stroke="#191970" points="219.993,-163.362 209.4616,-164.5193 218.4161,-170.182 219.993,-163.362"/>
</g>
<!-- Node20 -->
<g id="node21" class="node">
<title>Node20</title>
<g id="a_node21"><a xlink:href="../../d4/d78/DataFormats_2Headers_2include_2Headers_2RAWDataHeader_8h.html" target="_top" xlink:title="Headers/RAWDataHeader.h">
<polygon fill="none" stroke="#000000" points="250,-140 250,-159 399,-159 399,-140 250,-140"/>
<text text-anchor="middle" x="324.5" y="-147" font-family="Helvetica,sans-Serif" font-size="10.00" fill="#000000">Headers/RAWDataHeader.h</text>
</a>
</g>
</g>
<!-- Node4&#45;&gt;Node20 -->
<g id="edge25" class="edge">
<title>Node4&#45;&gt;Node20</title>
<path fill="none" stroke="#191970" d="M397.0625,-201.3906C383.4305,-191.6421 362.1154,-176.3994 346.1078,-164.9521"/>
<polygon fill="#191970" stroke="#191970" points="348.0132,-162.0118 337.8431,-159.0419 343.9414,-167.7057 348.0132,-162.0118"/>
</g>
<!-- Node21 -->
<g id="node22" class="node">
<title>Node21</title>
<g id="a_node22"><a xlink:href="../../de/da4/Triggers_8h.html" target="_top" xlink:title="Definition of the 32 Central Trigger System (CTS) Trigger Types defined in https://twiki.cern.ch/twiki/pub/ALICE/NoteForFEDevelopers/CTS_CRU_FE_interface.pdf. ">
<polygon fill="none" stroke="#000000" points="417.5,-140 417.5,-159 577.5,-159 577.5,-140 417.5,-140"/>
<text text-anchor="middle" x="497.5" y="-147" font-family="Helvetica,sans-Serif" font-size="10.00" fill="#000000">CommonConstants/Triggers.h</text>
</a>
</g>
</g>
<!-- Node4&#45;&gt;Node21 -->
<g id="edge27" class="edge">
<title>Node4&#45;&gt;Node21</title>
<path fill="none" stroke="#191970" d="M424.0938,-201.3906C437.8843,-191.6421 459.4472,-176.3994 475.641,-164.9521"/>
<polygon fill="#191970" stroke="#191970" points="477.8563,-167.6723 484.0017,-159.0419 473.8156,-161.9563 477.8563,-167.6723"/>
</g>
<!-- Node6 -->
<g id="node7" class="node">
<title>Node6</title>
<polygon fill="none" stroke="#bfbfbf" points="1039,-6 1039,-25 1086,-25 1086,-6 1039,-6"/>
<text text-anchor="middle" x="1062.5" y="-13" font-family="Helvetica,sans-Serif" font-size="10.00" fill="#000000">vector</text>
</g>
<!-- Node5&#45;&gt;Node6 -->
<g id="edge7" class="edge">
<title>Node5&#45;&gt;Node6</title>
<path fill="none" stroke="#191970" d="M930.9989,-67.4749C959.5468,-57.7413 996.9792,-44.4168 1029.5,-31 1030.8531,-30.4418 1032.231,-29.8579 1033.6182,-29.2576"/>
<polygon fill="#191970" stroke="#191970" points="1035.0583,-32.4477 1042.7435,-25.1547 1032.1877,-26.0633 1035.0583,-32.4477"/>
</g>
<!-- Node7 -->
<g id="node8" class="node">
<title>Node7</title>
<polygon fill="none" stroke="#bfbfbf" points="1104.5,-6 1104.5,-25 1142.5,-25 1142.5,-6 1104.5,-6"/>
<text text-anchor="middle" x="1123.5" y="-13" font-family="Helvetica,sans-Serif" font-size="10.00" fill="#000000">map</text>
</g>
<!-- Node5&#45;&gt;Node7 -->
<g id="edge8" class="edge">
<title>Node5&#45;&gt;Node7</title>
<path fill="none" stroke="#191970" d="M959.8644,-69.2789C1000.7118,-60.7803 1051.8038,-48.101 1095.5,-31 1096.5348,-30.595 1097.5788,-30.1587 1098.6243,-29.6984"/>
<polygon fill="#191970" stroke="#191970" points="1100.4653,-32.692 1107.8635,-25.108 1097.3506,-26.4231 1100.4653,-32.692"/>
</g>
<!-- Node8 -->
<g id="node9" class="node">
<title>Node8</title>
<polygon fill="none" stroke="#bfbfbf" points="718,-6 718,-25 811,-25 811,-6 718,-6"/>
<text text-anchor="middle" x="764.5" y="-13" font-family="Helvetica,sans-Serif" font-size="10.00" fill="#000000">unordered_map</text>
</g>
<!-- Node5&#45;&gt;Node8 -->
<g id="edge9" class="edge">
<title>Node5&#45;&gt;Node8</title>
<path fill="none" stroke="#191970" d="M858.3452,-67.4639C838.1344,-56.2728 810.7036,-41.0838 790.7201,-30.0186"/>
<polygon fill="#191970" stroke="#191970" points="792.2883,-26.8862 781.8444,-25.1039 788.8973,-33.0101 792.2883,-26.8862"/>
</g>
<!-- Node9 -->
<g id="node10" class="node">
<title>Node9</title>
<polygon fill="none" stroke="#bfbfbf" points="829,-.5 829,-30.5 942,-30.5 942,-.5 829,-.5"/>
<text text-anchor="start" x="837" y="-18.5" font-family="Helvetica,sans-Serif" font-size="10.00" fill="#000000">boost/property_tree</text>
<text text-anchor="middle" x="885.5" y="-7.5" font-family="Helvetica,sans-Serif" font-size="10.00" fill="#000000">/ptree.hpp</text>
</g>
<!-- Node5&#45;&gt;Node9 -->
<g id="edge10" class="edge">
<title>Node5&#45;&gt;Node9</title>
<path fill="none" stroke="#191970" d="M885.5,-67.2967C885.5,-59.5013 885.5,-49.7991 885.5,-40.9064"/>
<polygon fill="#191970" stroke="#191970" points="889.0001,-40.6431 885.5,-30.6432 882.0001,-40.6432 889.0001,-40.6431"/>
</g>
<!-- Node10 -->
<g id="node11" class="node">
<title>Node10</title>
<polygon fill="none" stroke="#bfbfbf" points="643,-6 643,-25 700,-25 700,-6 643,-6"/>
<text text-anchor="middle" x="671.5" y="-13" font-family="Helvetica,sans-Serif" font-size="10.00" fill="#000000">typeinfo</text>
</g>
<!-- Node5&#45;&gt;Node10 -->
<g id="edge11" class="edge">
<title>Node5&#45;&gt;Node10</title>
<path fill="none" stroke="#191970" d="M828.7559,-67.4901C794.0382,-57.9136 748.8743,-44.7503 709.5,-31 707.5829,-30.3305 705.6217,-29.618 703.65,-28.8803"/>
<polygon fill="#191970" stroke="#191970" points="704.4474,-25.4347 693.859,-25.065 701.9058,-31.957 704.4474,-25.4347"/>
</g>
<!-- Node11 -->
<g id="node12" class="node">
<title>Node11</title>
<polygon fill="none" stroke="#bfbfbf" points="960.5,-6 960.5,-25 1020.5,-25 1020.5,-6 960.5,-6"/>
<text text-anchor="middle" x="990.5" y="-13" font-family="Helvetica,sans-Serif" font-size="10.00" fill="#000000">iostream</text>
</g>
<!-- Node5&#45;&gt;Node11 -->
<g id="edge12" class="edge">
<title>Node5&#45;&gt;Node11</title>
<path fill="none" stroke="#191970" d="M909.064,-67.4639C926.2056,-56.526 949.3321,-41.769 966.5602,-30.7759"/>
<polygon fill="#191970" stroke="#191970" points="968.9018,-33.4336 975.4491,-25.1039 965.1364,-27.5326 968.9018,-33.4336"/>
</g>
<!-- Node12&#45;&gt;Node5 -->
<g id="edge14" class="edge">
<title>Node12&#45;&gt;Node5</title>
<path fill="none" stroke="#191970" d="M747.4467,-134.4639C773.5783,-124.6278 807.9149,-111.7034 835.8064,-101.2049"/>
<polygon fill="#191970" stroke="#191970" points="837.2531,-104.4001 845.3791,-97.6017 834.7871,-97.8489 837.2531,-104.4001"/>
</g>
<!-- Node12&#45;&gt;Node10 -->
<g id="edge17" class="edge">
<title>Node12&#45;&gt;Node10</title>
<path fill="none" stroke="#191970" d="M704.4795,-134.4912C701.0349,-117.8768 695.0293,-90.356 688.5,-67 685.5163,-56.3269 681.6825,-44.5814 678.4111,-35.0059"/>
<polygon fill="#191970" stroke="#191970" points="681.6227,-33.5851 675.0319,-25.2898 675.0111,-35.8846 681.6227,-33.5851"/>
</g>
<!-- Node13 -->
<g id="node14" class="node">
<title>Node13</title>
<polygon fill="none" stroke="#bfbfbf" points="736,-73 736,-92 793,-92 793,-73 736,-73"/>
<text text-anchor="middle" x="764.5" y="-80" font-family="Helvetica,sans-Serif" font-size="10.00" fill="#000000">TClass.h</text>
</g>
<!-- Node12&#45;&gt;Node13 -->
<g id="edge15" class="edge">
<title>Node12&#45;&gt;Node13</title>
<path fill="none" stroke="#191970" d="M720.4342,-134.2967C729.1426,-124.0605 740.648,-110.5366 749.7186,-99.8746"/>
<polygon fill="#191970" stroke="#191970" points="752.5571,-101.9395 756.3711,-92.055 747.2255,-97.4036 752.5571,-101.9395"/>
</g>
<!-- Node14 -->
<g id="node15" class="node">
<title>Node14</title>
<polygon fill="none" stroke="#bfbfbf" points="544,-73 544,-92 613,-92 613,-73 544,-73"/>
<text text-anchor="middle" x="578.5" y="-80" font-family="Helvetica,sans-Serif" font-size="10.00" fill="#000000">type_traits</text>
</g>
<!-- Node12&#45;&gt;Node14 -->
<g id="edge16" class="edge">
<title>Node12&#45;&gt;Node14</title>
<path fill="none" stroke="#191970" d="M678.5499,-134.4639C656.8078,-123.1715 627.2284,-107.8086 605.8773,-96.7192"/>
<polygon fill="#191970" stroke="#191970" points="607.4788,-93.6071 596.9911,-92.1039 604.2523,-99.8192 607.4788,-93.6071"/>
</g>
<!-- Node15 -->
<g id="node16" class="node">
<title>Node15</title>
<polygon fill="none" stroke="#bfbfbf" points="631.5,-73 631.5,-92 679.5,-92 679.5,-73 631.5,-73"/>
<text text-anchor="middle" x="655.5" y="-80" font-family="Helvetica,sans-Serif" font-size="10.00" fill="#000000">TFile.h</text>
</g>
<!-- Node12&#45;&gt;Node15 -->
<g id="edge18" class="edge">
<title>Node12&#45;&gt;Node15</title>
<path fill="none" stroke="#191970" d="M695.7004,-134.2967C687.8345,-124.1618 677.4673,-110.804 669.2312,-100.1921"/>
<polygon fill="#191970" stroke="#191970" points="671.812,-97.8089 662.9158,-92.055 666.2821,-102.1008 671.812,-97.8089"/>
</g>
<!-- Node16&#45;&gt;Node2 -->
<g id="edge20" class="edge">
<title>Node16&#45;&gt;Node2</title>
<path fill="none" stroke="#191970" d="M118.6918,-134.4639C99.5701,-123.3234 73.6483,-108.2212 54.6782,-97.1691"/>
<polygon fill="#191970" stroke="#191970" points="56.3868,-94.1138 45.9843,-92.1039 52.8629,-100.1622 56.3868,-94.1138"/>
</g>
<!-- Node16&#45;&gt;Node3 -->
<g id="edge24" class="edge">
<title>Node16&#45;&gt;Node3</title>
<path fill="none" stroke="#191970" d="M208.684,-134.4639C260.4996,-122.3253 332.3928,-105.4831 380.1228,-94.3016"/>
<polygon fill="#191970" stroke="#191970" points="380.9871,-97.694 389.9252,-92.0053 379.3904,-90.8785 380.9871,-97.694"/>
</g>
<!-- Node17 -->
<g id="node18" class="node">
<title>Node17</title>
<polygon fill="none" stroke="#bfbfbf" points="164,-73 164,-92 213,-92 213,-73 164,-73"/>
<text text-anchor="middle" x="188.5" y="-80" font-family="Helvetica,sans-Serif" font-size="10.00" fill="#000000">iosfwd</text>
</g>
<!-- Node16&#45;&gt;Node17 -->
<g id="edge21" class="edge">
<title>Node16&#45;&gt;Node17</title>
<path fill="none" stroke="#191970" d="M154.4843,-134.2967C161.0735,-124.2631 169.737,-111.0709 176.6717,-100.5113"/>
<polygon fill="#191970" stroke="#191970" points="179.6613,-102.3349 182.2251,-92.055 173.8102,-98.4924 179.6613,-102.3349"/>
</g>
<!-- Node18 -->
<g id="node19" class="node">
<title>Node18</title>
<polygon fill="none" stroke="#bfbfbf" points="99,-73 99,-92 146,-92 146,-73 99,-73"/>
<text text-anchor="middle" x="122.5" y="-80" font-family="Helvetica,sans-Serif" font-size="10.00" fill="#000000">cmath</text>
</g>
<!-- Node16&#45;&gt;Node18 -->
<g id="edge22" class="edge">
<title>Node16&#45;&gt;Node18</title>
<path fill="none" stroke="#191970" d="M139.5079,-134.2967C136.3464,-124.6685 132.2298,-112.1318 128.8385,-101.8038"/>
<polygon fill="#191970" stroke="#191970" points="132.0825,-100.464 125.6375,-92.055 125.4319,-102.6478 132.0825,-100.464"/>
</g>
<!-- Node19 -->
<g id="node20" class="node">
<title>Node19</title>
<polygon fill="none" stroke="#bfbfbf" points="267.5,-73 267.5,-92 317.5,-92 317.5,-73 267.5,-73"/>
<text text-anchor="middle" x="292.5" y="-80" font-family="Helvetica,sans-Serif" font-size="10.00" fill="#000000">cstdint</text>
</g>
<!-- Node16&#45;&gt;Node19 -->
<g id="edge23" class="edge">
<title>Node16&#45;&gt;Node19</title>
<path fill="none" stroke="#191970" d="M177.7141,-134.4639C202.994,-123.0196 237.5092,-107.3945 262.0739,-96.274"/>
<polygon fill="#191970" stroke="#191970" points="263.6188,-99.4166 271.2854,-92.1039 260.7319,-93.0396 263.6188,-99.4166"/>
</g>
<!-- Node20&#45;&gt;Node19 -->
<g id="edge26" class="edge">
<title>Node20&#45;&gt;Node19</title>
<path fill="none" stroke="#191970" d="M319.9152,-139.9005C315.1152,-129.8505 307.4551,-113.8122 301.4506,-101.2403"/>
<polygon fill="#191970" stroke="#191970" points="304.5444,-99.5968 297.0763,-92.0817 298.2279,-102.6137 304.5444,-99.5968"/>
</g>
<!-- Node21&#45;&gt;Node19 -->
<g id="edge28" class="edge">
<title>Node21&#45;&gt;Node19</title>
<path fill="none" stroke="#191970" d="M460.6633,-139.9573C425.7053,-130.5386 371.9096,-115.0992 326.5,-98 324.9139,-97.4028 323.2975,-96.766 321.6734,-96.104"/>
<polygon fill="#191970" stroke="#191970" points="323.0155,-92.8713 312.4462,-92.136 320.2501,-99.3019 323.0155,-92.8713"/>
</g>
</g>
</svg>
        <g id="navigator" transform="translate(0 0)" fill="#404254">
                <rect fill="#f2f5e9" fill-opacity="0.5" stroke="#606060" stroke-width=".5" x="0" y="0" width="60" height="60"/>
                <use id="zoomplus" xlink:href="#zoomPlus" x="17" y="9" onmousedown="handleZoom(evt,'in')"/>
                <use id="zoomminus" xlink:href="#zoomMin" x="42" y="9" onmousedown="handleZoom(evt,'out')"/>
                <use id="reset" xlink:href="#resetDef" x="30" y="36" onmousedown="handleReset()"/>
                <g id="arrowUp" xlink:href="#dirArrow" transform="translate(30 24)" onmousedown="handlePan(0,-1)">
                  <use xlink:href="#rim" fill="#404040">
                        <set attributeName="fill" to="#808080" begin="arrowUp.mouseover" end="arrowUp.mouseout"/>
                  </use>
                  <path fill="none" stroke="white" stroke-width="1.5" d="M0,-3.0v7 M-2.5,-0.5L0,-3.0L2.5,-0.5"/>
                </g>
                <g id="arrowRight" xlink:href="#dirArrow" transform="rotate(90) translate(36 -43)" onmousedown="handlePan(1,0)">
                  <use xlink:href="#rim" fill="#404040">
                        <set attributeName="fill" to="#808080" begin="arrowRight.mouseover" end="arrowRight.mouseout"/>
                  </use>
                  <path fill="none" stroke="white" stroke-width="1.5" d="M0,-3.0v7 M-2.5,-0.5L0,-3.0L2.5,-0.5"/>
                </g>
                <g id="arrowDown" xlink:href="#dirArrow" transform="rotate(180) translate(-30 -48)" onmousedown="handlePan(0,1)">
                  <use xlink:href="#rim" fill="#404040">
                        <set attributeName="fill" to="#808080" begin="arrowDown.mouseover" end="arrowDown.mouseout"/>
                  </use>
                  <path fill="none" stroke="white" stroke-width="1.5" d="M0,-3.0v7 M-2.5,-0.5L0,-3.0L2.5,-0.5"/>
                </g>
                <g id="arrowLeft" xlink:href="#dirArrow" transform="rotate(270) translate(-36 17)" onmousedown="handlePan(-1,0)">
                  <use xlink:href="#rim" fill="#404040">
                        <set attributeName="fill" to="#808080" begin="arrowLeft.mouseover" end="arrowLeft.mouseout"/>
                  </use>
                  <path fill="none" stroke="white" stroke-width="1.5" d="M0,-3.0v7 M-2.5,-0.5L0,-3.0L2.5,-0.5"/>
                </g>
        </g>
        <svg viewBox="0 0 15 15" width="100%" height="30px" preserveAspectRatio="xMaxYMin meet">
         <g id="arrow_out" transform="scale(0.3 0.3)">
          <a xlink:href="CableLength_8cxx__incl_org.svg" target="_base">
           <rect id="button" ry="5" rx="5" y="6" x="6" height="38" width="38"
                fill="#f2f5e9" fill-opacity="0.5" stroke="#606060" stroke-width="1.0"/>
           <path id="arrow"
             d="M 11.500037,31.436501 C 11.940474,20.09759 22.043105,11.32322 32.158766,21.979434 L 37.068811,17.246167 C 37.068811,17.246167 37.088388,32 37.088388,32 L 22.160133,31.978069 C 22.160133,31.978069 26.997745,27.140456 26.997745,27.140456 C 18.528582,18.264221 13.291696,25.230495 11.500037,31.436501 z"
             style="fill:#404040;"/>
          </a>
         </g>
        </svg>
</svg>
