<?xml version="1.0" encoding="UTF-8" standalone="no"?>
<!DOCTYPE svg PUBLIC "-//W3C//DTD SVG 1.1//EN"
 "http://www.w3.org/Graphics/SVG/1.1/DTD/svg11.dtd">
<!-- Generated by graphviz version 2.40.1 (20161225.0304)
 -->
<!-- Title: /home/travis/build/AliceO2Group/AliceO2/DataFormats/Detectors/FIT/FT0/include/DataFormatsFT0/Digit.h Pages: 1 -->
<!--zoomable 251 -->
<svg id="main" version="1.1" xmlns="http://www.w3.org/2000/svg" xmlns:xlink="http://www.w3.org/1999/xlink" xml:space="preserve" onload="init(evt)">
<style type="text/css"><![CDATA[
.edge:hover path { stroke: red; }
.edge:hover polygon { stroke: red; fill: red; }
]]></style>
<script type="text/javascript"><![CDATA[
var edges = document.getElementsByTagName('g');
if (edges && edges.length) {
  for (var i=0;i<edges.length;i++) {
    if (edges[i].id.substr(0,4)=='edge') {
      edges[i].setAttribute('class','edge');
    }
  }
}
]]></script>
        <defs>
                <circle id="rim" cx="0" cy="0" r="7"/>
                <circle id="rim2" cx="0" cy="0" r="3.5"/>
                <g id="zoomPlus">
                        <use xlink:href="#rim" fill="#404040">
                                <set attributeName="fill" to="#808080" begin="zoomplus.mouseover" end="zoomplus.mouseout"/>
                        </use>
                        <path d="M-4,0h8M0,-4v8" fill="none" stroke="white" stroke-width="1.5" pointer-events="none"/>
                </g>
                <g id="zoomMin">
                        <use xlink:href="#rim" fill="#404040">
                                <set attributeName="fill" to="#808080" begin="zoomminus.mouseover" end="zoomminus.mouseout"/>
                        </use>
                        <path d="M-4,0h8" fill="none" stroke="white" stroke-width="1.5" pointer-events="none"/>
                </g>
                <g id="dirArrow">
                        <path fill="none" stroke="white" stroke-width="1.5" d="M0,-3.0v7 M-2.5,-0.5L0,-3.0L2.5,-0.5"/>
                </g>
               <g id="resetDef">
                       <use xlink:href="#rim2" fill="#404040">
                               <set attributeName="fill" to="#808080" begin="reset.mouseover" end="reset.mouseout"/>
                       </use>
               </g>
        </defs>

<script type="text/javascript">
var viewWidth = 1141;
var viewHeight = 251;
var sectionId = 'dynsection-0';
</script>
<script xlink:href="../../svgpan.js"/>
<svg id="graph" class="graph">
<g id="viewport">
<title>/home/travis/build/AliceO2Group/AliceO2/DataFormats/Detectors/FIT/FT0/include/DataFormatsFT0/Digit.h</title>
<!-- Node0 -->
<g id="node1" class="node">
<title>Node0</title>
<polygon fill="#bfbfbf" stroke="#000000" points="757.632,-179.5 757.632,-242.5 933.632,-242.5 933.632,-179.5 757.632,-179.5"/>
<text text-anchor="start" x="765.632" y="-230.5" font-family="Helvetica,sans-Serif" font-size="10.00" fill="#000000">/home/travis/build</text>
<text text-anchor="start" x="765.632" y="-219.5" font-family="Helvetica,sans-Serif" font-size="10.00" fill="#000000">/AliceO2Group/AliceO2</text>
<text text-anchor="start" x="765.632" y="-208.5" font-family="Helvetica,sans-Serif" font-size="10.00" fill="#000000">/DataFormats/Detectors</text>
<text text-anchor="start" x="765.632" y="-197.5" font-family="Helvetica,sans-Serif" font-size="10.00" fill="#000000">/FIT/FT0/include/DataFormatsFT0</text>
<text text-anchor="middle" x="845.632" y="-186.5" font-family="Helvetica,sans-Serif" font-size="10.00" fill="#000000">/Digit.h</text>
</g>
<!-- Node1 -->
<g id="node2" class="node">
<title>Node1</title>
<g id="a_node2"><a xlink:href="../../d9/d80/InteractionRecord_8h.html" target="_top" xlink:title="CommonDataFormat/Interaction\lRecord.h">
<polygon fill="none" stroke="#000000" points="54.632,-112.5 54.632,-142.5 228.632,-142.5 228.632,-112.5 54.632,-112.5"/>
<text text-anchor="start" x="62.632" y="-130.5" font-family="Helvetica,sans-Serif" font-size="10.00" fill="#000000">CommonDataFormat/Interaction</text>
<text text-anchor="middle" x="141.632" y="-119.5" font-family="Helvetica,sans-Serif" font-size="10.00" fill="#000000">Record.h</text>
</a>
</g>
</g>
<!-- Node0&#45;&gt;Node1 -->
<g id="edge1" class="edge">
<title>Node0&#45;&gt;Node1</title>
<path fill="none" stroke="#191970" d="M757.5383,-200.5514C625.261,-184.8623 376.2286,-155.325 238.8186,-139.0271"/>
<polygon fill="#191970" stroke="#191970" points="239.0585,-135.5311 228.7158,-137.8288 238.234,-142.4824 239.0585,-135.5311"/>
</g>
<!-- Node2 -->
<g id="node3" class="node">
<title>Node2</title>
<polygon fill="none" stroke="#bfbfbf" points="472.132,-.5 472.132,-19.5 531.132,-19.5 531.132,-.5 472.132,-.5"/>
<text text-anchor="middle" x="501.632" y="-7.5" font-family="Helvetica,sans-Serif" font-size="10.00" fill="#000000">Rtypes.h</text>
</g>
<!-- Node0&#45;&gt;Node2 -->
<g id="edge14" class="edge">
<title>Node0&#45;&gt;Node2</title>
<path fill="none" stroke="#191970" d="M757.4811,-208.399C654.2702,-203.2786 492.5516,-188.0835 454.632,-143 425.4891,-108.3513 462.9501,-54.3839 486.0153,-27.0708"/>
<polygon fill="#191970" stroke="#191970" points="488.6834,-29.3365 492.6217,-19.5009 483.4094,-24.7338 488.6834,-29.3365"/>
</g>
<!-- Node7 -->
<g id="node8" class="node">
<title>Node7</title>
<g id="a_node8"><a xlink:href="../../de/d64/RangeReference_8h.html" target="_top" xlink:title="Class to refer to the 1st entry and N elements of some group in the continuous container. ">
<polygon fill="none" stroke="#000000" points="463.632,-118 463.632,-137 673.632,-137 673.632,-118 463.632,-118"/>
<text text-anchor="middle" x="568.632" y="-125" font-family="Helvetica,sans-Serif" font-size="10.00" fill="#000000">CommonDataFormat/RangeReference.h</text>
</a>
</g>
</g>
<!-- Node0&#45;&gt;Node7 -->
<g id="edge7" class="edge">
<title>Node0&#45;&gt;Node7</title>
<path fill="none" stroke="#191970" d="M757.6069,-184.4653C708.3088,-169.6047 649.1268,-151.7647 610.2871,-140.0567"/>
<polygon fill="#191970" stroke="#191970" points="610.9683,-136.6065 600.3837,-137.0714 608.9479,-143.3086 610.9683,-136.6065"/>
</g>
<!-- Node9 -->
<g id="node10" class="node">
<title>Node9</title>
<g id="a_node10"><a xlink:href="../../df/d5d/common_2include_2CommonDataFormat_2TimeStamp_8h.html" target="_top" xlink:title="CommonDataFormat/TimeStamp.h">
<polygon fill="none" stroke="#000000" points="692.132,-118 692.132,-137 879.132,-137 879.132,-118 692.132,-118"/>
<text text-anchor="middle" x="785.632" y="-125" font-family="Helvetica,sans-Serif" font-size="10.00" fill="#000000">CommonDataFormat/TimeStamp.h</text>
</a>
</g>
</g>
<!-- Node0&#45;&gt;Node9 -->
<g id="edge10" class="edge">
<title>Node0&#45;&gt;Node9</title>
<path fill="none" stroke="#191970" d="M822.9486,-179.4322C814.7165,-167.9759 805.7017,-155.4303 798.5949,-145.5401"/>
<polygon fill="#191970" stroke="#191970" points="801.3597,-143.3897 792.682,-137.3112 795.675,-147.4745 801.3597,-143.3897"/>
</g>
<!-- Node10 -->
<g id="node11" class="node">
<title>Node10</title>
<g id="a_node11"><a xlink:href="../../dc/d44/FIT_2FT0_2include_2DataFormatsFT0_2ChannelData_8h.html" target="_top" xlink:title="DataFormatsFT0/ChannelData.h">
<polygon fill="none" stroke="#000000" points="735.632,-56.5 735.632,-75.5 907.632,-75.5 907.632,-56.5 735.632,-56.5"/>
<text text-anchor="middle" x="821.632" y="-63.5" font-family="Helvetica,sans-Serif" font-size="10.00" fill="#000000">DataFormatsFT0/ChannelData.h</text>
</a>
</g>
</g>
<!-- Node0&#45;&gt;Node10 -->
<g id="edge12" class="edge">
<title>Node0&#45;&gt;Node10</title>
<path fill="none" stroke="#191970" d="M874.2346,-179.2252C888.3619,-159.5246 900.1543,-133.8875 888.632,-112 881.439,-98.3365 868.1518,-87.9486 855.2953,-80.5328"/>
<polygon fill="#191970" stroke="#191970" points="856.577,-77.2506 846.1032,-75.6538 853.2951,-83.4336 856.577,-77.2506"/>
</g>
<!-- Node11 -->
<g id="node12" class="node">
<title>Node11</title>
<polygon fill="none" stroke="#bfbfbf" points="935.132,-118 935.132,-137 992.132,-137 992.132,-118 935.132,-118"/>
<text text-anchor="middle" x="963.632" y="-125" font-family="Helvetica,sans-Serif" font-size="10.00" fill="#000000">gsl/span</text>
</g>
<!-- Node0&#45;&gt;Node11 -->
<g id="edge15" class="edge">
<title>Node0&#45;&gt;Node11</title>
<path fill="none" stroke="#191970" d="M890.2427,-179.4322C907.8622,-166.9642 927.3049,-153.206 941.7496,-142.9846"/>
<polygon fill="#191970" stroke="#191970" points="943.8952,-145.754 950.0365,-137.1205 939.8518,-140.0399 943.8952,-145.754"/>
</g>
<!-- Node12 -->
<g id="node13" class="node">
<title>Node12</title>
<polygon fill="none" stroke="#bfbfbf" points="1010.632,-118 1010.632,-137 1054.632,-137 1054.632,-118 1010.632,-118"/>
<text text-anchor="middle" x="1032.632" y="-125" font-family="Helvetica,sans-Serif" font-size="10.00" fill="#000000">bitset</text>
</g>
<!-- Node0&#45;&gt;Node12 -->
<g id="edge16" class="edge">
<title>Node0&#45;&gt;Node12</title>
<path fill="none" stroke="#191970" d="M920.1841,-179.4506C946.0992,-168.2335 975.2698,-155.3258 1001.632,-143 1002.6404,-142.5285 1003.6649,-142.0442 1004.698,-141.5515"/>
<polygon fill="#191970" stroke="#191970" points="1006.5681,-144.5335 1014.0214,-137.0037 1003.4992,-138.2421 1006.5681,-144.5335"/>
</g>
<!-- Node13 -->
<g id="node14" class="node">
<title>Node13</title>
<polygon fill="none" stroke="#bfbfbf" points="1072.632,-118 1072.632,-137 1132.632,-137 1132.632,-118 1072.632,-118"/>
<text text-anchor="middle" x="1102.632" y="-125" font-family="Helvetica,sans-Serif" font-size="10.00" fill="#000000">iostream</text>
</g>
<!-- Node0&#45;&gt;Node13 -->
<g id="edge17" class="edge">
<title>Node0&#45;&gt;Node13</title>
<path fill="none" stroke="#191970" d="M933.6456,-185.2093C973.5582,-173.0882 1021.2149,-158.0201 1063.632,-143 1065.5379,-142.3251 1067.4888,-141.6144 1069.4527,-140.8836"/>
<polygon fill="#191970" stroke="#191970" points="1071.1465,-143.9827 1079.2306,-137.1345 1068.6404,-137.4466 1071.1465,-143.9827"/>
</g>
<!-- Node1&#45;&gt;Node2 -->
<g id="edge2" class="edge">
<title>Node1&#45;&gt;Node2</title>
<path fill="none" stroke="#191970" d="M64.5185,-112.4426C22.5181,-100.8933 -16.4327,-82.4097 7.632,-56 38.0159,-22.6554 349.4848,-13.08 461.6519,-10.7014"/>
<polygon fill="#191970" stroke="#191970" points="461.9419,-14.1963 471.8684,-10.4931 461.7991,-7.1978 461.9419,-14.1963"/>
</g>
<!-- Node3 -->
<g id="node4" class="node">
<title>Node3</title>
<polygon fill="none" stroke="#bfbfbf" points="17.132,-56.5 17.132,-75.5 66.132,-75.5 66.132,-56.5 17.132,-56.5"/>
<text text-anchor="middle" x="41.632" y="-63.5" font-family="Helvetica,sans-Serif" font-size="10.00" fill="#000000">iosfwd</text>
</g>
<!-- Node1&#45;&gt;Node3 -->
<g id="edge3" class="edge">
<title>Node1&#45;&gt;Node3</title>
<path fill="none" stroke="#191970" d="M117.1692,-112.4554C101.5085,-102.8241 81.2788,-90.3828 65.6964,-80.7996"/>
<polygon fill="#191970" stroke="#191970" points="67.48,-77.7876 57.1284,-75.5303 63.813,-83.7503 67.48,-77.7876"/>
</g>
<!-- Node4 -->
<g id="node5" class="node">
<title>Node4</title>
<polygon fill="none" stroke="#bfbfbf" points="84.132,-56.5 84.132,-75.5 131.132,-75.5 131.132,-56.5 84.132,-56.5"/>
<text text-anchor="middle" x="107.632" y="-63.5" font-family="Helvetica,sans-Serif" font-size="10.00" fill="#000000">cmath</text>
</g>
<!-- Node1&#45;&gt;Node4 -->
<g id="edge4" class="edge">
<title>Node1&#45;&gt;Node4</title>
<path fill="none" stroke="#191970" d="M133.2275,-112.2977C128.6063,-103.9388 122.8351,-93.4997 117.9431,-84.6509"/>
<polygon fill="#191970" stroke="#191970" points="120.9772,-82.9051 113.0758,-75.8469 114.8511,-86.292 120.9772,-82.9051"/>
</g>
<!-- Node5 -->
<g id="node6" class="node">
<title>Node5</title>
<polygon fill="none" stroke="#bfbfbf" points="149.632,-56.5 149.632,-75.5 199.632,-75.5 199.632,-56.5 149.632,-56.5"/>
<text text-anchor="middle" x="174.632" y="-63.5" font-family="Helvetica,sans-Serif" font-size="10.00" fill="#000000">cstdint</text>
</g>
<!-- Node1&#45;&gt;Node5 -->
<g id="edge5" class="edge">
<title>Node1&#45;&gt;Node5</title>
<path fill="none" stroke="#191970" d="M149.7893,-112.2977C154.2269,-104.0277 159.757,-93.7215 164.4724,-84.9339"/>
<polygon fill="#191970" stroke="#191970" points="167.7041,-86.3134 169.3483,-75.8469 161.536,-83.0037 167.7041,-86.3134"/>
</g>
<!-- Node6 -->
<g id="node7" class="node">
<title>Node6</title>
<g id="a_node7"><a xlink:href="../../d4/dc6/LHCConstants_8h.html" target="_top" xlink:title="Header to collect LHC related constants. ">
<polygon fill="none" stroke="#000000" points="217.632,-56.5 217.632,-75.5 407.632,-75.5 407.632,-56.5 217.632,-56.5"/>
<text text-anchor="middle" x="312.632" y="-63.5" font-family="Helvetica,sans-Serif" font-size="10.00" fill="#000000">CommonConstants/LHCConstants.h</text>
</a>
</g>
</g>
<!-- Node1&#45;&gt;Node6 -->
<g id="edge6" class="edge">
<title>Node1&#45;&gt;Node6</title>
<path fill="none" stroke="#191970" d="M183.4633,-112.4554C211.9951,-102.194 249.3955,-88.7429 276.6049,-78.9571"/>
<polygon fill="#191970" stroke="#191970" points="277.9076,-82.2081 286.1331,-75.5303 275.5386,-75.6212 277.9076,-82.2081"/>
</g>
<!-- Node8 -->
<g id="node9" class="node">
<title>Node8</title>
<g id="a_node9"><a xlink:href="../../d2/d45/GPUCommonRtypes_8h.html" target="_top" xlink:title="GPUCommonRtypes.h">
<polygon fill="none" stroke="#000000" points="506.132,-56.5 506.132,-75.5 631.132,-75.5 631.132,-56.5 506.132,-56.5"/>
<text text-anchor="middle" x="568.632" y="-63.5" font-family="Helvetica,sans-Serif" font-size="10.00" fill="#000000">GPUCommonRtypes.h</text>
</a>
</g>
</g>
<!-- Node7&#45;&gt;Node8 -->
<g id="edge8" class="edge">
<title>Node7&#45;&gt;Node8</title>
<path fill="none" stroke="#191970" d="M568.632,-117.8906C568.632,-109.3657 568.632,-96.6392 568.632,-85.9235"/>
<polygon fill="#191970" stroke="#191970" points="572.1321,-85.7448 568.632,-75.7449 565.1321,-85.7449 572.1321,-85.7448"/>
</g>
<!-- Node8&#45;&gt;Node2 -->
<g id="edge9" class="edge">
<title>Node8&#45;&gt;Node2</title>
<path fill="none" stroke="#191970" d="M556.9615,-56.2455C547.0659,-47.9746 532.6693,-35.9416 521.0419,-26.2232"/>
<polygon fill="#191970" stroke="#191970" points="523.0862,-23.3703 513.1688,-19.6427 518.597,-28.7413 523.0862,-23.3703"/>
</g>
<!-- Node9&#45;&gt;Node8 -->
<g id="edge11" class="edge">
<title>Node9&#45;&gt;Node8</title>
<path fill="none" stroke="#191970" d="M751.7257,-117.8906C714.0641,-107.2169 653.1618,-89.9566 612.0435,-78.3033"/>
<polygon fill="#191970" stroke="#191970" points="612.8756,-74.9013 602.3001,-75.5419 610.9668,-81.6361 612.8756,-74.9013"/>
</g>
<!-- Node10&#45;&gt;Node2 -->
<g id="edge13" class="edge">
<title>Node10&#45;&gt;Node2</title>
<path fill="none" stroke="#191970" d="M766.9856,-56.4369C702.9593,-45.2323 598.4154,-26.9371 541.5433,-16.9845"/>
<polygon fill="#191970" stroke="#191970" points="541.953,-13.5031 531.4993,-15.2268 540.7463,-20.3983 541.953,-13.5031"/>
</g>
</g>
</svg>
        <g id="navigator" transform="translate(0 0)" fill="#404254">
                <rect fill="#f2f5e9" fill-opacity="0.5" stroke="#606060" stroke-width=".5" x="0" y="0" width="60" height="60"/>
                <use id="zoomplus" xlink:href="#zoomPlus" x="17" y="9" onmousedown="handleZoom(evt,'in')"/>
                <use id="zoomminus" xlink:href="#zoomMin" x="42" y="9" onmousedown="handleZoom(evt,'out')"/>
                <use id="reset" xlink:href="#resetDef" x="30" y="36" onmousedown="handleReset()"/>
                <g id="arrowUp" xlink:href="#dirArrow" transform="translate(30 24)" onmousedown="handlePan(0,-1)">
                  <use xlink:href="#rim" fill="#404040">
                        <set attributeName="fill" to="#808080" begin="arrowUp.mouseover" end="arrowUp.mouseout"/>
                  </use>
                  <path fill="none" stroke="white" stroke-width="1.5" d="M0,-3.0v7 M-2.5,-0.5L0,-3.0L2.5,-0.5"/>
                </g>
                <g id="arrowRight" xlink:href="#dirArrow" transform="rotate(90) translate(36 -43)" onmousedown="handlePan(1,0)">
                  <use xlink:href="#rim" fill="#404040">
                        <set attributeName="fill" to="#808080" begin="arrowRight.mouseover" end="arrowRight.mouseout"/>
                  </use>
                  <path fill="none" stroke="white" stroke-width="1.5" d="M0,-3.0v7 M-2.5,-0.5L0,-3.0L2.5,-0.5"/>
                </g>
                <g id="arrowDown" xlink:href="#dirArrow" transform="rotate(180) translate(-30 -48)" onmousedown="handlePan(0,1)">
                  <use xlink:href="#rim" fill="#404040">
                        <set attributeName="fill" to="#808080" begin="arrowDown.mouseover" end="arrowDown.mouseout"/>
                  </use>
                  <path fill="none" stroke="white" stroke-width="1.5" d="M0,-3.0v7 M-2.5,-0.5L0,-3.0L2.5,-0.5"/>
                </g>
                <g id="arrowLeft" xlink:href="#dirArrow" transform="rotate(270) translate(-36 17)" onmousedown="handlePan(-1,0)">
                  <use xlink:href="#rim" fill="#404040">
                        <set attributeName="fill" to="#808080" begin="arrowLeft.mouseover" end="arrowLeft.mouseout"/>
                  </use>
                  <path fill="none" stroke="white" stroke-width="1.5" d="M0,-3.0v7 M-2.5,-0.5L0,-3.0L2.5,-0.5"/>
                </g>
        </g>
        <svg viewBox="0 0 15 15" width="100%" height="30px" preserveAspectRatio="xMaxYMin meet">
         <g id="arrow_out" transform="scale(0.3 0.3)">
          <a xlink:href="DataFormats_2Detectors_2FIT_2FT0_2include_2DataFormatsFT0_2Digit_8h__incl_org.svg" target="_base">
           <rect id="button" ry="5" rx="5" y="6" x="6" height="38" width="38"
                fill="#f2f5e9" fill-opacity="0.5" stroke="#606060" stroke-width="1.0"/>
           <path id="arrow"
             d="M 11.500037,31.436501 C 11.940474,20.09759 22.043105,11.32322 32.158766,21.979434 L 37.068811,17.246167 C 37.068811,17.246167 37.088388,32 37.088388,32 L 22.160133,31.978069 C 22.160133,31.978069 26.997745,27.140456 26.997745,27.140456 C 18.528582,18.264221 13.291696,25.230495 11.500037,31.436501 z"
             style="fill:#404040;"/>
          </a>
         </g>
        </svg>
</svg>
