<?xml version="1.0" encoding="UTF-8" standalone="no"?>
<!DOCTYPE svg PUBLIC "-//W3C//DTD SVG 1.1//EN"
 "http://www.w3.org/Graphics/SVG/1.1/DTD/svg11.dtd">
<!-- Generated by graphviz version 2.40.1 (20161225.0304)
 -->
<!-- Title: o2::soa::CombinationsFullIndexPolicy&lt; Ts &gt; Pages: 1 -->
<svg width="449pt" height="597pt"
 viewBox="0.00 0.00 449.40 597.00" xmlns="http://www.w3.org/2000/svg" xmlns:xlink="http://www.w3.org/1999/xlink">
<g id="graph0" class="graph" transform="scale(1 1) rotate(0) translate(4 593)">
<title>o2::soa::CombinationsFullIndexPolicy&lt; Ts &gt;</title>
<!-- Node3 -->
<g id="node1" class="node">
<title>Node3</title>
<polygon fill="#bfbfbf" stroke="#000000" points="194.9021,-.5 194.9021,-90.5 370.9021,-90.5 370.9021,-.5 194.9021,-.5"/>
<text text-anchor="start" x="202.9021" y="-78.5" font-family="Helvetica,sans-Serif" font-size="10.00" fill="#000000">o2::soa::CombinationsFull</text>
<text text-anchor="middle" x="282.9021" y="-67.5" font-family="Helvetica,sans-Serif" font-size="10.00" fill="#000000">IndexPolicy&lt; Ts &gt;</text>
<polyline fill="none" stroke="#000000" points="194.9021,-60.5 370.9021,-60.5 "/>
<text text-anchor="middle" x="282.9021" y="-48.5" font-family="Helvetica,sans-Serif" font-size="10.00" fill="#000000"> </text>
<polyline fill="none" stroke="#000000" points="194.9021,-41.5 370.9021,-41.5 "/>
<text text-anchor="start" x="202.9021" y="-29.5" font-family="Helvetica,sans-Serif" font-size="10.00" fill="#000000">+ CombinationsFullIndexPolicy()</text>
<text text-anchor="start" x="202.9021" y="-18.5" font-family="Helvetica,sans-Serif" font-size="10.00" fill="#000000">+ moveToEnd()</text>
<text text-anchor="start" x="202.9021" y="-7.5" font-family="Helvetica,sans-Serif" font-size="10.00" fill="#000000">+ addOne()</text>
</g>
<!-- Node4 -->
<g id="node2" class="node">
<title>Node4</title>
<g id="a_node2"><a xlink:href="../../de/dac/structo2_1_1soa_1_1CombinationsIndexPolicyBase.html" target="_top" xlink:title="{o2::soa::CombinationsIndex\lPolicyBase\&lt; Ts... \&gt;\n||+ CombinationsIndexPolicyBase()\l+ moveToEnd()\l+ addOne()\l}">
<polygon fill="none" stroke="#000000" points="191.4021,-128.5 191.4021,-218.5 374.4021,-218.5 374.4021,-128.5 191.4021,-128.5"/>
<text text-anchor="start" x="199.4021" y="-206.5" font-family="Helvetica,sans-Serif" font-size="10.00" fill="#000000">o2::soa::CombinationsIndex</text>
<text text-anchor="middle" x="282.9021" y="-195.5" font-family="Helvetica,sans-Serif" font-size="10.00" fill="#000000">PolicyBase&lt; Ts... &gt;</text>
<polyline fill="none" stroke="#000000" points="191.4021,-188.5 374.4021,-188.5 "/>
<text text-anchor="middle" x="282.9021" y="-176.5" font-family="Helvetica,sans-Serif" font-size="10.00" fill="#000000"> </text>
<polyline fill="none" stroke="#000000" points="191.4021,-169.5 374.4021,-169.5 "/>
<text text-anchor="start" x="199.4021" y="-157.5" font-family="Helvetica,sans-Serif" font-size="10.00" fill="#000000">+ CombinationsIndexPolicyBase()</text>
<text text-anchor="start" x="199.4021" y="-146.5" font-family="Helvetica,sans-Serif" font-size="10.00" fill="#000000">+ moveToEnd()</text>
<text text-anchor="start" x="199.4021" y="-135.5" font-family="Helvetica,sans-Serif" font-size="10.00" fill="#000000">+ addOne()</text>
</a>
</g>
</g>
<!-- Node4&#45;&gt;Node3 -->
<g id="edge1" class="edge">
<title>Node4&#45;&gt;Node3</title>
<path fill="none" stroke="#191970" d="M282.9021,-118.1492C282.9021,-108.9671 282.9021,-99.5431 282.9021,-90.6519"/>
<polygon fill="none" stroke="#191970" points="279.4022,-118.372 282.9021,-128.372 286.4022,-118.372 279.4022,-118.372"/>
</g>
<!-- Node5 -->
<g id="node3" class="node">
<title>Node5</title>
<g id="a_node3"><a xlink:href="../../d7/d86/structo2_1_1soa_1_1generate__tuple__type.html" target="_top" xlink:title="{o2::soa::generate_tuple\l_type\&lt; uint64_t, sizeof...(Ts)\&gt;\n||}">
<polygon fill="none" stroke="#000000" points="8.9021,-404.5 8.9021,-472.5 172.9021,-472.5 172.9021,-404.5 8.9021,-404.5"/>
<text text-anchor="start" x="16.9021" y="-460.5" font-family="Helvetica,sans-Serif" font-size="10.00" fill="#000000">o2::soa::generate_tuple</text>
<text text-anchor="middle" x="90.9021" y="-449.5" font-family="Helvetica,sans-Serif" font-size="10.00" fill="#000000">_type&lt; uint64_t, sizeof...(Ts)&gt;</text>
<polyline fill="none" stroke="#000000" points="8.9021,-442.5 172.9021,-442.5 "/>
<text text-anchor="middle" x="90.9021" y="-430.5" font-family="Helvetica,sans-Serif" font-size="10.00" fill="#000000"> </text>
<polyline fill="none" stroke="#000000" points="8.9021,-423.5 172.9021,-423.5 "/>
<text text-anchor="middle" x="90.9021" y="-411.5" font-family="Helvetica,sans-Serif" font-size="10.00" fill="#000000"> </text>
</a>
</g>
</g>
<!-- Node5&#45;&gt;Node4 -->
<g id="edge2" class="edge">
<title>Node5&#45;&gt;Node4</title>
<path fill="none" stroke="#404040" d="M48.1296,-404.246C34.8781,-391.0464 21.9218,-374.8205 14.9021,-357 .0792,-319.3698 -8.572,-298.9351 14.9021,-266 34.8451,-238.0192 112.7488,-213.0456 179.4601,-196.1216"/>
<polygon fill="none" stroke="#404040" points="179.6964,-196.0628 184.5513,-190.7308 191.3404,-193.1614 186.4856,-198.4934 179.6964,-196.0628"/>
<text text-anchor="middle" x="50.4021" y="-309" font-family="Helvetica,sans-Serif" font-size="10.00" fill="#000000"> +mMaxOffset</text>
</g>
<!-- Node9 -->
<g id="node7" class="node">
<title>Node9</title>
<g id="a_node7"><a xlink:href="../../de/dac/structo2_1_1soa_1_1CombinationsIndexPolicyBase.html" target="_top" xlink:title="{o2::soa::CombinationsIndex\lPolicyBase\&lt; Ts \&gt;\n||+ CombinationsIndexPolicyBase()\l+ moveToEnd()\l+ addOne()\l}">
<polygon fill="none" stroke="#000000" points="95.4021,-266.5 95.4021,-356.5 278.4021,-356.5 278.4021,-266.5 95.4021,-266.5"/>
<text text-anchor="start" x="103.4021" y="-344.5" font-family="Helvetica,sans-Serif" font-size="10.00" fill="#000000">o2::soa::CombinationsIndex</text>
<text text-anchor="middle" x="186.9021" y="-333.5" font-family="Helvetica,sans-Serif" font-size="10.00" fill="#000000">PolicyBase&lt; Ts &gt;</text>
<polyline fill="none" stroke="#000000" points="95.4021,-326.5 278.4021,-326.5 "/>
<text text-anchor="middle" x="186.9021" y="-314.5" font-family="Helvetica,sans-Serif" font-size="10.00" fill="#000000"> </text>
<polyline fill="none" stroke="#000000" points="95.4021,-307.5 278.4021,-307.5 "/>
<text text-anchor="start" x="103.4021" y="-295.5" font-family="Helvetica,sans-Serif" font-size="10.00" fill="#000000">+ CombinationsIndexPolicyBase()</text>
<text text-anchor="start" x="103.4021" y="-284.5" font-family="Helvetica,sans-Serif" font-size="10.00" fill="#000000">+ moveToEnd()</text>
<text text-anchor="start" x="103.4021" y="-273.5" font-family="Helvetica,sans-Serif" font-size="10.00" fill="#000000">+ addOne()</text>
</a>
</g>
</g>
<!-- Node5&#45;&gt;Node9 -->
<g id="edge7" class="edge">
<title>Node5&#45;&gt;Node9</title>
<path fill="none" stroke="#404040" d="M116.6283,-404.4663C125.48,-392.7563 135.6301,-379.3285 145.4127,-366.387"/>
<polygon fill="none" stroke="#404040" points="145.5581,-366.1947 145.9852,-358.9962 152.7942,-356.6219 152.3671,-363.8203 145.5581,-366.1947"/>
<text text-anchor="middle" x="174.4021" y="-378" font-family="Helvetica,sans-Serif" font-size="10.00" fill="#000000"> +mMaxOffset</text>
</g>
<!-- Node6 -->
<g id="node4" class="node">
<title>Node6</title>
<g id="a_node4"><a xlink:href="../../d7/d86/structo2_1_1soa_1_1generate__tuple__type.html" target="_top" xlink:title="{o2::soa::generate_tuple\l_type\&lt; T, N, REST \&gt;\n||}">
<polygon fill="none" stroke="#000000" points="25.4021,-520.5 25.4021,-588.5 156.4021,-588.5 156.4021,-520.5 25.4021,-520.5"/>
<text text-anchor="start" x="33.4021" y="-576.5" font-family="Helvetica,sans-Serif" font-size="10.00" fill="#000000">o2::soa::generate_tuple</text>
<text text-anchor="middle" x="90.9021" y="-565.5" font-family="Helvetica,sans-Serif" font-size="10.00" fill="#000000">_type&lt; T, N, REST &gt;</text>
<polyline fill="none" stroke="#000000" points="25.4021,-558.5 156.4021,-558.5 "/>
<text text-anchor="middle" x="90.9021" y="-546.5" font-family="Helvetica,sans-Serif" font-size="10.00" fill="#000000"> </text>
<polyline fill="none" stroke="#000000" points="25.4021,-539.5 156.4021,-539.5 "/>
<text text-anchor="middle" x="90.9021" y="-527.5" font-family="Helvetica,sans-Serif" font-size="10.00" fill="#000000"> </text>
</a>
</g>
</g>
<!-- Node6&#45;&gt;Node5 -->
<g id="edge3" class="edge">
<title>Node6&#45;&gt;Node5</title>
<path fill="none" stroke="#ffa500" d="M90.9021,-510.1851C90.9021,-497.8048 90.9021,-484.5422 90.9021,-472.833"/>
<polygon fill="#ffa500" stroke="#ffa500" points="87.4022,-510.3235 90.9021,-520.3236 94.4022,-510.3236 87.4022,-510.3235"/>
<text text-anchor="middle" x="152.9021" y="-494" font-family="Helvetica,sans-Serif" font-size="10.00" fill="#000000"> &lt; uint64_t, sizeof...(Ts)&gt;</text>
</g>
<!-- Node7 -->
<g id="node5" class="node">
<title>Node7</title>
<polygon fill="none" stroke="#bfbfbf" points="326.4021,-404.5 326.4021,-472.5 441.4021,-472.5 441.4021,-404.5 326.4021,-404.5"/>
<text text-anchor="start" x="334.4021" y="-460.5" font-family="Helvetica,sans-Serif" font-size="10.00" fill="#000000">tuple&lt; typename Ts</text>
<text text-anchor="middle" x="383.9021" y="-449.5" font-family="Helvetica,sans-Serif" font-size="10.00" fill="#000000">::iterator... &gt;</text>
<polyline fill="none" stroke="#bfbfbf" points="326.4021,-442.5 441.4021,-442.5 "/>
<text text-anchor="middle" x="383.9021" y="-430.5" font-family="Helvetica,sans-Serif" font-size="10.00" fill="#000000"> </text>
<polyline fill="none" stroke="#bfbfbf" points="326.4021,-423.5 441.4021,-423.5 "/>
<text text-anchor="middle" x="383.9021" y="-411.5" font-family="Helvetica,sans-Serif" font-size="10.00" fill="#000000"> </text>
</g>
<!-- Node7&#45;&gt;Node4 -->
<g id="edge4" class="edge">
<title>Node7&#45;&gt;Node4</title>
<path fill="none" stroke="#404040" d="M380.8802,-404.1988C376.7975,-368.4702 367.6184,-311.4703 347.9021,-266 342.4065,-253.3258 335.0195,-240.6289 327.1965,-228.8796"/>
<polygon fill="none" stroke="#404040" points="327.0687,-228.6947 320.3668,-226.033 320.2461,-218.8229 326.948,-221.4846 327.0687,-228.6947"/>
<text text-anchor="middle" x="401.9021" y="-309" font-family="Helvetica,sans-Serif" font-size="10.00" fill="#000000"> +mCurrent</text>
</g>
<!-- Node7&#45;&gt;Node9 -->
<g id="edge8" class="edge">
<title>Node7&#45;&gt;Node9</title>
<path fill="none" stroke="#404040" d="M331.1097,-404.4663C311.4317,-391.7805 288.6265,-377.0786 267.0408,-363.163"/>
<polygon fill="none" stroke="#404040" points="266.9801,-363.1239 259.7698,-363.2348 256.8943,-356.6219 264.1045,-356.5109 266.9801,-363.1239"/>
<text text-anchor="middle" x="325.9021" y="-378" font-family="Helvetica,sans-Serif" font-size="10.00" fill="#000000"> +mCurrent</text>
</g>
<!-- Node8 -->
<g id="node6" class="node">
<title>Node8</title>
<polygon fill="none" stroke="#bfbfbf" points="221.9021,-410 221.9021,-467 259.9021,-467 259.9021,-410 221.9021,-410"/>
<text text-anchor="middle" x="240.9021" y="-455" font-family="Helvetica,sans-Serif" font-size="10.00" fill="#000000">bool</text>
<polyline fill="none" stroke="#bfbfbf" points="221.9021,-448 259.9021,-448 "/>
<text text-anchor="middle" x="240.9021" y="-436" font-family="Helvetica,sans-Serif" font-size="10.00" fill="#000000"> </text>
<polyline fill="none" stroke="#bfbfbf" points="221.9021,-429 259.9021,-429 "/>
<text text-anchor="middle" x="240.9021" y="-417" font-family="Helvetica,sans-Serif" font-size="10.00" fill="#000000"> </text>
</g>
<!-- Node8&#45;&gt;Node4 -->
<g id="edge5" class="edge">
<title>Node8&#45;&gt;Node4</title>
<path fill="none" stroke="#404040" d="M260.1041,-413.2552C270.562,-397.8892 282.4538,-377.3536 287.9021,-357 298.9338,-315.7882 297.0609,-267.5003 292.763,-230.8058"/>
<polygon fill="none" stroke="#404040" points="292.7541,-230.7356 288.0233,-225.2931 291.2276,-218.833 295.9583,-224.2755 292.7541,-230.7356"/>
<text text-anchor="middle" x="319.9021" y="-309" font-family="Helvetica,sans-Serif" font-size="10.00" fill="#000000"> +mIsEnd</text>
</g>
<!-- Node8&#45;&gt;Node9 -->
<g id="edge9" class="edge">
<title>Node8&#45;&gt;Node9</title>
<path fill="none" stroke="#404040" d="M228.7834,-409.9987C223.5326,-397.6496 217.1899,-382.7323 211.0465,-368.2841"/>
<polygon fill="none" stroke="#404040" points="210.8827,-367.8986 204.8538,-363.9422 206.1871,-356.8554 212.2159,-360.8118 210.8827,-367.8986"/>
<text text-anchor="middle" x="240.9021" y="-378" font-family="Helvetica,sans-Serif" font-size="10.00" fill="#000000"> +mIsEnd</text>
</g>
<!-- Node9&#45;&gt;Node4 -->
<g id="edge6" class="edge">
<title>Node9&#45;&gt;Node4</title>
<path fill="none" stroke="#ffa500" d="M224.1597,-257.9422C233.1597,-245.0048 242.6907,-231.3038 251.3975,-218.7879"/>
<polygon fill="#ffa500" stroke="#ffa500" points="221.1736,-256.1058 218.3361,-266.3136 226.9199,-260.1033 221.1736,-256.1058"/>
<text text-anchor="middle" x="259.4021" y="-240" font-family="Helvetica,sans-Serif" font-size="10.00" fill="#000000"> &lt; Ts... &gt;</text>
</g>
</g>
</svg>
