<?xml version="1.0" encoding="UTF-8" standalone="no"?>
<!DOCTYPE svg PUBLIC "-//W3C//DTD SVG 1.1//EN"
 "http://www.w3.org/Graphics/SVG/1.1/DTD/svg11.dtd">
<!-- Generated by graphviz version 2.40.1 (20161225.0304)
 -->
<!-- Title: /home/travis/build/AliceO2Group/AliceO2/Detectors/MUON/MID/Simulation/src/DigitsMerger.cxx Pages: 1 -->
<!--zoomable 363 -->
<svg id="main" version="1.1" xmlns="http://www.w3.org/2000/svg" xmlns:xlink="http://www.w3.org/1999/xlink" xml:space="preserve" onload="init(evt)">
<style type="text/css"><![CDATA[
.edge:hover path { stroke: red; }
.edge:hover polygon { stroke: red; fill: red; }
]]></style>
<script type="text/javascript"><![CDATA[
var edges = document.getElementsByTagName('g');
if (edges && edges.length) {
  for (var i=0;i<edges.length;i++) {
    if (edges[i].id.substr(0,4)=='edge') {
      edges[i].setAttribute('class','edge');
    }
  }
}
]]></script>
        <defs>
                <circle id="rim" cx="0" cy="0" r="7"/>
                <circle id="rim2" cx="0" cy="0" r="3.5"/>
                <g id="zoomPlus">
                        <use xlink:href="#rim" fill="#404040">
                                <set attributeName="fill" to="#808080" begin="zoomplus.mouseover" end="zoomplus.mouseout"/>
                        </use>
                        <path d="M-4,0h8M0,-4v8" fill="none" stroke="white" stroke-width="1.5" pointer-events="none"/>
                </g>
                <g id="zoomMin">
                        <use xlink:href="#rim" fill="#404040">
                                <set attributeName="fill" to="#808080" begin="zoomminus.mouseover" end="zoomminus.mouseout"/>
                        </use>
                        <path d="M-4,0h8" fill="none" stroke="white" stroke-width="1.5" pointer-events="none"/>
                </g>
                <g id="dirArrow">
                        <path fill="none" stroke="white" stroke-width="1.5" d="M0,-3.0v7 M-2.5,-0.5L0,-3.0L2.5,-0.5"/>
                </g>
               <g id="resetDef">
                       <use xlink:href="#rim2" fill="#404040">
                               <set attributeName="fill" to="#808080" begin="reset.mouseover" end="reset.mouseout"/>
                       </use>
               </g>
        </defs>

<script type="text/javascript">
var viewWidth = 1110;
var viewHeight = 363;
var sectionId = 'dynsection-0';
</script>
<script xlink:href="../../svgpan.js"/>
<svg id="graph" class="graph">
<g id="viewport">
<title>/home/travis/build/AliceO2Group/AliceO2/Detectors/MUON/MID/Simulation/src/DigitsMerger.cxx</title>
<!-- Node0 -->
<g id="node1" class="node">
<title>Node0</title>
<polygon fill="#bfbfbf" stroke="#000000" points="316.5,-302.5 316.5,-354.5 494.5,-354.5 494.5,-302.5 316.5,-302.5"/>
<text text-anchor="start" x="324.5" y="-342.5" font-family="Helvetica,sans-Serif" font-size="10.00" fill="#000000">/home/travis/build</text>
<text text-anchor="start" x="324.5" y="-331.5" font-family="Helvetica,sans-Serif" font-size="10.00" fill="#000000">/AliceO2Group/AliceO2</text>
<text text-anchor="start" x="324.5" y="-320.5" font-family="Helvetica,sans-Serif" font-size="10.00" fill="#000000">/Detectors/MUON/MID/Simulation</text>
<text text-anchor="middle" x="405.5" y="-309.5" font-family="Helvetica,sans-Serif" font-size="10.00" fill="#000000">/src/DigitsMerger.cxx</text>
</g>
<!-- Node1 -->
<g id="node2" class="node">
<title>Node1</title>
<g id="a_node2"><a xlink:href="../../dc/d92/DigitsMerger_8h.html" target="_top" xlink:title="Digits merger for MID. ">
<polygon fill="none" stroke="#000000" points="325,-246.5 325,-265.5 486,-265.5 486,-246.5 325,-246.5"/>
<text text-anchor="middle" x="405.5" y="-253.5" font-family="Helvetica,sans-Serif" font-size="10.00" fill="#000000">MIDSimulation/DigitsMerger.h</text>
</a>
</g>
</g>
<!-- Node0&#45;&gt;Node1 -->
<g id="edge1" class="edge">
<title>Node0&#45;&gt;Node1</title>
<path fill="none" stroke="#191970" d="M405.5,-302.3258C405.5,-293.5142 405.5,-283.8397 405.5,-275.621"/>
<polygon fill="#191970" stroke="#191970" points="409.0001,-275.534 405.5,-265.534 402.0001,-275.534 409.0001,-275.534"/>
</g>
<!-- Node2 -->
<g id="node3" class="node">
<title>Node2</title>
<polygon fill="none" stroke="#bfbfbf" points="382,-118 382,-137 429,-137 429,-118 382,-118"/>
<text text-anchor="middle" x="405.5" y="-125" font-family="Helvetica,sans-Serif" font-size="10.00" fill="#000000">vector</text>
</g>
<!-- Node1&#45;&gt;Node2 -->
<g id="edge2" class="edge">
<title>Node1&#45;&gt;Node2</title>
<path fill="none" stroke="#191970" d="M405.5,-246.3416C405.5,-225.4114 405.5,-175.504 405.5,-147.4762"/>
<polygon fill="#191970" stroke="#191970" points="409.0001,-147.2704 405.5,-137.2705 402.0001,-147.2705 409.0001,-147.2704"/>
</g>
<!-- Node3 -->
<g id="node4" class="node">
<title>Node3</title>
<g id="a_node4"><a xlink:href="../../db/d14/MCTruthContainer_8h.html" target="_top" xlink:title="Definition of a container to keep Monte Carlo truth external to simulation objects. ">
<polygon fill="none" stroke="#000000" points="562,-179.5 562,-209.5 689,-209.5 689,-179.5 562,-179.5"/>
<text text-anchor="start" x="570" y="-197.5" font-family="Helvetica,sans-Serif" font-size="10.00" fill="#000000">SimulationDataFormat</text>
<text text-anchor="middle" x="625.5" y="-186.5" font-family="Helvetica,sans-Serif" font-size="10.00" fill="#000000">/MCTruthContainer.h</text>
</a>
</g>
</g>
<!-- Node1&#45;&gt;Node3 -->
<g id="edge3" class="edge">
<title>Node1&#45;&gt;Node3</title>
<path fill="none" stroke="#191970" d="M439.875,-246.3906C472.4062,-237.2967 522.0409,-223.4215 561.8023,-212.3064"/>
<polygon fill="#191970" stroke="#191970" points="562.9935,-215.6077 571.6819,-209.5446 561.1089,-208.8661 562.9935,-215.6077"/>
</g>
<!-- Node13 -->
<g id="node14" class="node">
<title>Node13</title>
<g id="a_node14"><a xlink:href="../../d2/df9/MUON_2MID_2include_2DataFormatsMID_2ROFRecord_8h.html" target="_top" xlink:title="Definition of the MID event record. ">
<polygon fill="none" stroke="#000000" points="209,-185 209,-204 372,-204 372,-185 209,-185"/>
<text text-anchor="middle" x="290.5" y="-192" font-family="Helvetica,sans-Serif" font-size="10.00" fill="#000000">DataFormatsMID/ROFRecord.h</text>
</a>
</g>
</g>
<!-- Node1&#45;&gt;Node13 -->
<g id="edge14" class="edge">
<title>Node1&#45;&gt;Node13</title>
<path fill="none" stroke="#191970" d="M387.5313,-246.3906C368.7116,-236.3262 338.9415,-220.4057 317.3359,-208.8514"/>
<polygon fill="#191970" stroke="#191970" points="318.8114,-205.6714 308.3426,-204.0419 315.5102,-211.8442 318.8114,-205.6714"/>
</g>
<!-- Node18 -->
<g id="node19" class="node">
<title>Node18</title>
<g id="a_node19"><a xlink:href="../../d0/d00/ColumnDataMC_8h.html" target="_top" xlink:title="Strip pattern (aka digits) for simulations. ">
<polygon fill="none" stroke="#000000" points="3.5,-185 3.5,-204 179.5,-204 179.5,-185 3.5,-185"/>
<text text-anchor="middle" x="91.5" y="-192" font-family="Helvetica,sans-Serif" font-size="10.00" fill="#000000">MIDSimulation/ColumnDataMC.h</text>
</a>
</g>
</g>
<!-- Node1&#45;&gt;Node18 -->
<g id="edge21" class="edge">
<title>Node1&#45;&gt;Node18</title>
<path fill="none" stroke="#191970" d="M356.782,-246.4581C301.0097,-235.5345 209.6925,-217.6492 150.0872,-205.9749"/>
<polygon fill="#191970" stroke="#191970" points="150.5602,-202.5011 140.0739,-204.0137 149.2147,-209.3706 150.5602,-202.5011"/>
</g>
<!-- Node22 -->
<g id="node23" class="node">
<title>Node22</title>
<g id="a_node23"><a xlink:href="../../de/da1/Detectors_2MUON_2MID_2Simulation_2include_2MIDSimulation_2MCLabel_8h.html" target="_top" xlink:title="Label for MID. ">
<polygon fill="none" stroke="#000000" points="857,-185 857,-204 998,-204 998,-185 857,-185"/>
<text text-anchor="middle" x="927.5" y="-192" font-family="Helvetica,sans-Serif" font-size="10.00" fill="#000000">MIDSimulation/MCLabel.h</text>
</a>
</g>
</g>
<!-- Node1&#45;&gt;Node22 -->
<g id="edge26" class="edge">
<title>Node1&#45;&gt;Node22</title>
<path fill="none" stroke="#191970" d="M486.204,-246.4918C584.1864,-234.9479 748.4638,-215.5933 846.5549,-204.0366"/>
<polygon fill="#191970" stroke="#191970" points="847.1927,-207.4858 856.7144,-202.8397 846.3736,-200.5339 847.1927,-207.4858"/>
</g>
<!-- Node3&#45;&gt;Node2 -->
<g id="edge13" class="edge">
<title>Node3&#45;&gt;Node2</title>
<path fill="none" stroke="#191970" d="M565.9675,-179.4514C530.1669,-169.9581 483.8647,-156.8947 443.5,-143 441.58,-142.3391 439.6165,-141.6332 437.643,-140.9006"/>
<polygon fill="#191970" stroke="#191970" points="438.4362,-137.4541 427.8473,-137.0988 435.9035,-143.9799 438.4362,-137.4541"/>
</g>
<!-- Node4 -->
<g id="node5" class="node">
<title>Node4</title>
<g id="a_node5"><a xlink:href="../../d2/d45/GPUCommonRtypes_8h.html" target="_top" xlink:title="GPUCommonRtypes.h">
<polygon fill="none" stroke="#000000" points="731,-56.5 731,-75.5 856,-75.5 856,-56.5 731,-56.5"/>
<text text-anchor="middle" x="793.5" y="-63.5" font-family="Helvetica,sans-Serif" font-size="10.00" fill="#000000">GPUCommonRtypes.h</text>
</a>
</g>
</g>
<!-- Node3&#45;&gt;Node4 -->
<g id="edge4" class="edge">
<title>Node3&#45;&gt;Node4</title>
<path fill="none" stroke="#191970" d="M687.5368,-179.4566C722.7886,-169.716 762.274,-156.3906 774.5,-143 788.7414,-127.402 792.7376,-102.8497 793.6533,-85.6748"/>
<polygon fill="#191970" stroke="#191970" points="797.1535,-85.7006 793.8869,-75.622 790.1554,-85.5379 797.1535,-85.7006"/>
</g>
<!-- Node6 -->
<g id="node7" class="node">
<title>Node6</title>
<polygon fill="none" stroke="#bfbfbf" points="236.5,-56.5 236.5,-75.5 286.5,-75.5 286.5,-56.5 236.5,-56.5"/>
<text text-anchor="middle" x="261.5" y="-63.5" font-family="Helvetica,sans-Serif" font-size="10.00" fill="#000000">cstdint</text>
</g>
<!-- Node3&#45;&gt;Node6 -->
<g id="edge6" class="edge">
<title>Node3&#45;&gt;Node6</title>
<path fill="none" stroke="#191970" d="M567.325,-179.3998C538.9643,-170.8051 504.9285,-158.6116 476.5,-143 457.0918,-132.3419 457.341,-121.8289 437.5,-112 381.8933,-84.4533 360.3358,-92.3284 296.4611,-76.1081"/>
<polygon fill="#191970" stroke="#191970" points="297.2833,-72.7052 286.7208,-73.533 295.4941,-79.4727 297.2833,-72.7052"/>
</g>
<!-- Node7 -->
<g id="node8" class="node">
<title>Node7</title>
<polygon fill="none" stroke="#bfbfbf" points="821.5,-118 821.5,-137 873.5,-137 873.5,-118 821.5,-118"/>
<text text-anchor="middle" x="847.5" y="-125" font-family="Helvetica,sans-Serif" font-size="10.00" fill="#000000">cassert</text>
</g>
<!-- Node3&#45;&gt;Node7 -->
<g id="edge7" class="edge">
<title>Node3&#45;&gt;Node7</title>
<path fill="none" stroke="#191970" d="M684.1212,-179.4133C720.0015,-169.8088 766.7031,-156.643 807.5,-143 809.7646,-142.2427 812.0894,-141.4319 814.4238,-140.593"/>
<polygon fill="#191970" stroke="#191970" points="815.7929,-143.8181 823.9445,-137.0504 813.3517,-137.2575 815.7929,-143.8181"/>
</g>
<!-- Node8 -->
<g id="node9" class="node">
<title>Node8</title>
<polygon fill="none" stroke="#bfbfbf" points="892,-118 892,-137 957,-137 957,-118 892,-118"/>
<text text-anchor="middle" x="924.5" y="-125" font-family="Helvetica,sans-Serif" font-size="10.00" fill="#000000">stdexcept</text>
</g>
<!-- Node3&#45;&gt;Node8 -->
<g id="edge8" class="edge">
<title>Node3&#45;&gt;Node8</title>
<path fill="none" stroke="#191970" d="M689.2609,-184.5681C741.6681,-175.7276 817.5856,-161.3615 882.5,-143 885.3046,-142.2067 888.1888,-141.3132 891.069,-140.3659"/>
<polygon fill="#191970" stroke="#191970" points="892.4312,-143.5978 900.7251,-137.0053 890.1303,-136.9868 892.4312,-143.5978"/>
</g>
<!-- Node9 -->
<g id="node10" class="node">
<title>Node9</title>
<polygon fill="none" stroke="#bfbfbf" points="485.5,-118 485.5,-137 533.5,-137 533.5,-118 485.5,-118"/>
<text text-anchor="middle" x="509.5" y="-125" font-family="Helvetica,sans-Serif" font-size="10.00" fill="#000000">gsl/gsl</text>
</g>
<!-- Node3&#45;&gt;Node9 -->
<g id="edge9" class="edge">
<title>Node3&#45;&gt;Node9</title>
<path fill="none" stroke="#191970" d="M599.4673,-179.4639C580.1794,-168.3234 554.0322,-153.2212 534.8972,-142.1691"/>
<polygon fill="#191970" stroke="#191970" points="536.5376,-139.0747 526.1277,-137.1039 533.0365,-145.1363 536.5376,-139.0747"/>
</g>
<!-- Node10 -->
<g id="node11" class="node">
<title>Node10</title>
<polygon fill="none" stroke="#bfbfbf" points="552,-118 552,-137 621,-137 621,-118 552,-118"/>
<text text-anchor="middle" x="586.5" y="-125" font-family="Helvetica,sans-Serif" font-size="10.00" fill="#000000">type_traits</text>
</g>
<!-- Node3&#45;&gt;Node10 -->
<g id="edge10" class="edge">
<title>Node3&#45;&gt;Node10</title>
<path fill="none" stroke="#191970" d="M616.6503,-179.2967C610.8689,-169.3645 603.2858,-156.3371 597.1709,-145.8321"/>
<polygon fill="#191970" stroke="#191970" points="600.1175,-143.9367 592.0618,-137.055 594.0677,-147.4582 600.1175,-143.9367"/>
</g>
<!-- Node11 -->
<g id="node12" class="node">
<title>Node11</title>
<polygon fill="none" stroke="#bfbfbf" points="639.5,-118 639.5,-137 689.5,-137 689.5,-118 639.5,-118"/>
<text text-anchor="middle" x="664.5" y="-125" font-family="Helvetica,sans-Serif" font-size="10.00" fill="#000000">cstring</text>
</g>
<!-- Node3&#45;&gt;Node11 -->
<g id="edge11" class="edge">
<title>Node3&#45;&gt;Node11</title>
<path fill="none" stroke="#191970" d="M634.3497,-179.2967C640.1311,-169.3645 647.7142,-156.3371 653.8291,-145.8321"/>
<polygon fill="#191970" stroke="#191970" points="656.9323,-147.4582 658.9382,-137.055 650.8825,-143.9367 656.9323,-147.4582"/>
</g>
<!-- Node12 -->
<g id="node13" class="node">
<title>Node12</title>
<polygon fill="none" stroke="#bfbfbf" points="707.5,-118 707.5,-137 765.5,-137 765.5,-118 707.5,-118"/>
<text text-anchor="middle" x="736.5" y="-125" font-family="Helvetica,sans-Serif" font-size="10.00" fill="#000000">memory</text>
</g>
<!-- Node3&#45;&gt;Node12 -->
<g id="edge12" class="edge">
<title>Node3&#45;&gt;Node12</title>
<path fill="none" stroke="#191970" d="M650.4106,-179.4639C668.7833,-168.3741 693.66,-153.3584 711.9474,-142.32"/>
<polygon fill="#191970" stroke="#191970" points="713.8364,-145.268 720.589,-137.1039 710.219,-139.2751 713.8364,-145.268"/>
</g>
<!-- Node5 -->
<g id="node6" class="node">
<title>Node5</title>
<polygon fill="none" stroke="#bfbfbf" points="694,-.5 694,-19.5 753,-19.5 753,-.5 694,-.5"/>
<text text-anchor="middle" x="723.5" y="-7.5" font-family="Helvetica,sans-Serif" font-size="10.00" fill="#000000">Rtypes.h</text>
</g>
<!-- Node4&#45;&gt;Node5 -->
<g id="edge5" class="edge">
<title>Node4&#45;&gt;Node5</title>
<path fill="none" stroke="#191970" d="M781.3069,-56.2455C770.8679,-47.8943 755.6345,-35.7076 743.426,-25.9408"/>
<polygon fill="#191970" stroke="#191970" points="745.5485,-23.1566 735.5533,-19.6427 741.1756,-28.6227 745.5485,-23.1566"/>
</g>
<!-- Node14 -->
<g id="node15" class="node">
<title>Node14</title>
<g id="a_node15"><a xlink:href="../../d9/d80/InteractionRecord_8h.html" target="_top" xlink:title="CommonDataFormat/Interaction\lRecord.h">
<polygon fill="none" stroke="#000000" points="189.5,-112.5 189.5,-142.5 363.5,-142.5 363.5,-112.5 189.5,-112.5"/>
<text text-anchor="start" x="197.5" y="-130.5" font-family="Helvetica,sans-Serif" font-size="10.00" fill="#000000">CommonDataFormat/Interaction</text>
<text text-anchor="middle" x="276.5" y="-119.5" font-family="Helvetica,sans-Serif" font-size="10.00" fill="#000000">Record.h</text>
</a>
</g>
</g>
<!-- Node13&#45;&gt;Node14 -->
<g id="edge15" class="edge">
<title>Node13&#45;&gt;Node14</title>
<path fill="none" stroke="#191970" d="M288.4941,-184.9005C286.7228,-176.4234 284.0612,-163.6856 281.6949,-152.3614"/>
<polygon fill="#191970" stroke="#191970" points="285.1103,-151.5944 279.6389,-142.5218 278.2583,-153.0263 285.1103,-151.5944"/>
</g>
<!-- Node14&#45;&gt;Node5 -->
<g id="edge16" class="edge">
<title>Node14&#45;&gt;Node5</title>
<path fill="none" stroke="#191970" d="M363.8433,-113.1969C442.9206,-100.0755 549.9477,-81.8228 569.5,-76 615.2832,-62.3656 665.702,-39.0631 695.9675,-24.1079"/>
<polygon fill="#191970" stroke="#191970" points="697.6727,-27.1685 705.0544,-19.5684 694.5444,-20.9064 697.6727,-27.1685"/>
</g>
<!-- Node14&#45;&gt;Node6 -->
<g id="edge19" class="edge">
<title>Node14&#45;&gt;Node6</title>
<path fill="none" stroke="#191970" d="M272.7921,-112.2977C270.8401,-104.2945 268.423,-94.3843 266.3266,-85.7889"/>
<polygon fill="#191970" stroke="#191970" points="269.6716,-84.7328 263.9017,-75.8469 262.871,-86.3915 269.6716,-84.7328"/>
</g>
<!-- Node15 -->
<g id="node16" class="node">
<title>Node15</title>
<polygon fill="none" stroke="#bfbfbf" points="169,-56.5 169,-75.5 218,-75.5 218,-56.5 169,-56.5"/>
<text text-anchor="middle" x="193.5" y="-63.5" font-family="Helvetica,sans-Serif" font-size="10.00" fill="#000000">iosfwd</text>
</g>
<!-- Node14&#45;&gt;Node15 -->
<g id="edge17" class="edge">
<title>Node14&#45;&gt;Node15</title>
<path fill="none" stroke="#191970" d="M255.9831,-112.2977C243.5018,-103.0495 227.5841,-91.2551 214.9386,-81.8853"/>
<polygon fill="#191970" stroke="#191970" points="216.9078,-78.9882 206.7894,-75.8469 212.7404,-84.6126 216.9078,-78.9882"/>
</g>
<!-- Node16 -->
<g id="node17" class="node">
<title>Node16</title>
<polygon fill="none" stroke="#bfbfbf" points="305,-56.5 305,-75.5 352,-75.5 352,-56.5 305,-56.5"/>
<text text-anchor="middle" x="328.5" y="-63.5" font-family="Helvetica,sans-Serif" font-size="10.00" fill="#000000">cmath</text>
</g>
<!-- Node14&#45;&gt;Node16 -->
<g id="edge18" class="edge">
<title>Node14&#45;&gt;Node16</title>
<path fill="none" stroke="#191970" d="M289.3539,-112.2977C296.7224,-103.5831 306.0026,-92.6075 313.6777,-83.5302"/>
<polygon fill="#191970" stroke="#191970" points="316.3902,-85.743 320.1741,-75.8469 311.0448,-81.2233 316.3902,-85.743"/>
</g>
<!-- Node17 -->
<g id="node18" class="node">
<title>Node17</title>
<g id="a_node18"><a xlink:href="../../d4/dc6/LHCConstants_8h.html" target="_top" xlink:title="Header to collect LHC related constants. ">
<polygon fill="none" stroke="#000000" points="370.5,-56.5 370.5,-75.5 560.5,-75.5 560.5,-56.5 370.5,-56.5"/>
<text text-anchor="middle" x="465.5" y="-63.5" font-family="Helvetica,sans-Serif" font-size="10.00" fill="#000000">CommonConstants/LHCConstants.h</text>
</a>
</g>
</g>
<!-- Node14&#45;&gt;Node17 -->
<g id="edge20" class="edge">
<title>Node14&#45;&gt;Node17</title>
<path fill="none" stroke="#191970" d="M322.7346,-112.4554C354.5464,-102.104 396.333,-88.5067 426.4694,-78.7004"/>
<polygon fill="#191970" stroke="#191970" points="427.7855,-81.9529 436.2117,-75.5303 425.6195,-75.2964 427.7855,-81.9529"/>
</g>
<!-- Node19 -->
<g id="node20" class="node">
<title>Node19</title>
<g id="a_node20"><a xlink:href="../../d3/d53/ColumnData_8h.html" target="_top" xlink:title="Strip pattern (aka digits) ">
<polygon fill="none" stroke="#000000" points="0,-118 0,-137 171,-137 171,-118 0,-118"/>
<text text-anchor="middle" x="85.5" y="-125" font-family="Helvetica,sans-Serif" font-size="10.00" fill="#000000">DataFormatsMID/ColumnData.h</text>
</a>
</g>
</g>
<!-- Node18&#45;&gt;Node19 -->
<g id="edge22" class="edge">
<title>Node18&#45;&gt;Node19</title>
<path fill="none" stroke="#191970" d="M90.6403,-184.9005C89.7671,-175.149 88.3889,-159.7597 87.2794,-147.3695"/>
<polygon fill="#191970" stroke="#191970" points="90.7361,-146.7296 86.3581,-137.0817 83.7641,-147.354 90.7361,-146.7296"/>
</g>
<!-- Node19&#45;&gt;Node6 -->
<g id="edge23" class="edge">
<title>Node19&#45;&gt;Node6</title>
<path fill="none" stroke="#191970" d="M113,-117.8906C143.6656,-107.1751 193.3287,-89.8212 226.6821,-78.1665"/>
<polygon fill="#191970" stroke="#191970" points="228.1847,-81.349 236.4704,-74.7461 225.8756,-74.7408 228.1847,-81.349"/>
</g>
<!-- Node20 -->
<g id="node21" class="node">
<title>Node20</title>
<polygon fill="none" stroke="#bfbfbf" points="1.5,-56.5 1.5,-75.5 61.5,-75.5 61.5,-56.5 1.5,-56.5"/>
<text text-anchor="middle" x="31.5" y="-63.5" font-family="Helvetica,sans-Serif" font-size="10.00" fill="#000000">iostream</text>
</g>
<!-- Node19&#45;&gt;Node20 -->
<g id="edge24" class="edge">
<title>Node19&#45;&gt;Node20</title>
<path fill="none" stroke="#191970" d="M77.0625,-117.8906C68.9469,-108.6478 56.4945,-94.466 46.6576,-83.2628"/>
<polygon fill="#191970" stroke="#191970" points="49.2846,-80.95 40.0565,-75.7449 44.0245,-85.5686 49.2846,-80.95"/>
</g>
<!-- Node21 -->
<g id="node22" class="node">
<title>Node21</title>
<polygon fill="none" stroke="#bfbfbf" points="79.5,-56.5 79.5,-75.5 121.5,-75.5 121.5,-56.5 79.5,-56.5"/>
<text text-anchor="middle" x="100.5" y="-63.5" font-family="Helvetica,sans-Serif" font-size="10.00" fill="#000000">array</text>
</g>
<!-- Node19&#45;&gt;Node21 -->
<g id="edge25" class="edge">
<title>Node19&#45;&gt;Node21</title>
<path fill="none" stroke="#191970" d="M87.8438,-117.8906C89.9449,-109.276 93.0925,-96.3708 95.723,-85.5858"/>
<polygon fill="#191970" stroke="#191970" points="99.1539,-86.2894 98.1232,-75.7449 92.3532,-84.6307 99.1539,-86.2894"/>
</g>
<!-- Node23 -->
<g id="node24" class="node">
<title>Node23</title>
<g id="a_node24"><a xlink:href="../../d7/dcd/MCCompLabel_8h.html" target="_top" xlink:title="SimulationDataFormat\l/MCCompLabel.h">
<polygon fill="none" stroke="#000000" points="975,-112.5 975,-142.5 1102,-142.5 1102,-112.5 975,-112.5"/>
<text text-anchor="start" x="983" y="-130.5" font-family="Helvetica,sans-Serif" font-size="10.00" fill="#000000">SimulationDataFormat</text>
<text text-anchor="middle" x="1038.5" y="-119.5" font-family="Helvetica,sans-Serif" font-size="10.00" fill="#000000">/MCCompLabel.h</text>
</a>
</g>
</g>
<!-- Node22&#45;&gt;Node23 -->
<g id="edge27" class="edge">
<title>Node22&#45;&gt;Node23</title>
<path fill="none" stroke="#191970" d="M943.4036,-184.9005C959.3826,-175.2556 984.4986,-160.0954 1004.9071,-147.7768"/>
<polygon fill="#191970" stroke="#191970" points="1006.8606,-150.6859 1013.6132,-142.5218 1003.2432,-144.693 1006.8606,-150.6859"/>
</g>
<!-- Node23&#45;&gt;Node4 -->
<g id="edge28" class="edge">
<title>Node23&#45;&gt;Node4</title>
<path fill="none" stroke="#191970" d="M978.5663,-112.4554C936.3427,-101.8564 880.5629,-87.8546 841.319,-78.0035"/>
<polygon fill="#191970" stroke="#191970" points="842.0176,-74.5704 831.4663,-75.5303 840.3132,-81.3597 842.0176,-74.5704"/>
</g>
</g>
</svg>
        <g id="navigator" transform="translate(0 0)" fill="#404254">
                <rect fill="#f2f5e9" fill-opacity="0.5" stroke="#606060" stroke-width=".5" x="0" y="0" width="60" height="60"/>
                <use id="zoomplus" xlink:href="#zoomPlus" x="17" y="9" onmousedown="handleZoom(evt,'in')"/>
                <use id="zoomminus" xlink:href="#zoomMin" x="42" y="9" onmousedown="handleZoom(evt,'out')"/>
                <use id="reset" xlink:href="#resetDef" x="30" y="36" onmousedown="handleReset()"/>
                <g id="arrowUp" xlink:href="#dirArrow" transform="translate(30 24)" onmousedown="handlePan(0,-1)">
                  <use xlink:href="#rim" fill="#404040">
                        <set attributeName="fill" to="#808080" begin="arrowUp.mouseover" end="arrowUp.mouseout"/>
                  </use>
                  <path fill="none" stroke="white" stroke-width="1.5" d="M0,-3.0v7 M-2.5,-0.5L0,-3.0L2.5,-0.5"/>
                </g>
                <g id="arrowRight" xlink:href="#dirArrow" transform="rotate(90) translate(36 -43)" onmousedown="handlePan(1,0)">
                  <use xlink:href="#rim" fill="#404040">
                        <set attributeName="fill" to="#808080" begin="arrowRight.mouseover" end="arrowRight.mouseout"/>
                  </use>
                  <path fill="none" stroke="white" stroke-width="1.5" d="M0,-3.0v7 M-2.5,-0.5L0,-3.0L2.5,-0.5"/>
                </g>
                <g id="arrowDown" xlink:href="#dirArrow" transform="rotate(180) translate(-30 -48)" onmousedown="handlePan(0,1)">
                  <use xlink:href="#rim" fill="#404040">
                        <set attributeName="fill" to="#808080" begin="arrowDown.mouseover" end="arrowDown.mouseout"/>
                  </use>
                  <path fill="none" stroke="white" stroke-width="1.5" d="M0,-3.0v7 M-2.5,-0.5L0,-3.0L2.5,-0.5"/>
                </g>
                <g id="arrowLeft" xlink:href="#dirArrow" transform="rotate(270) translate(-36 17)" onmousedown="handlePan(-1,0)">
                  <use xlink:href="#rim" fill="#404040">
                        <set attributeName="fill" to="#808080" begin="arrowLeft.mouseover" end="arrowLeft.mouseout"/>
                  </use>
                  <path fill="none" stroke="white" stroke-width="1.5" d="M0,-3.0v7 M-2.5,-0.5L0,-3.0L2.5,-0.5"/>
                </g>
        </g>
        <svg viewBox="0 0 15 15" width="100%" height="30px" preserveAspectRatio="xMaxYMin meet">
         <g id="arrow_out" transform="scale(0.3 0.3)">
          <a xlink:href="DigitsMerger_8cxx__incl_org.svg" target="_base">
           <rect id="button" ry="5" rx="5" y="6" x="6" height="38" width="38"
                fill="#f2f5e9" fill-opacity="0.5" stroke="#606060" stroke-width="1.0"/>
           <path id="arrow"
             d="M 11.500037,31.436501 C 11.940474,20.09759 22.043105,11.32322 32.158766,21.979434 L 37.068811,17.246167 C 37.068811,17.246167 37.088388,32 37.088388,32 L 22.160133,31.978069 C 22.160133,31.978069 26.997745,27.140456 26.997745,27.140456 C 18.528582,18.264221 13.291696,25.230495 11.500037,31.436501 z"
             style="fill:#404040;"/>
          </a>
         </g>
        </svg>
</svg>
