<?xml version="1.0" encoding="UTF-8" standalone="no"?>
<!DOCTYPE svg PUBLIC "-//W3C//DTD SVG 1.1//EN"
 "http://www.w3.org/Graphics/SVG/1.1/DTD/svg11.dtd">
<!-- Generated by graphviz version 2.40.1 (20161225.0304)
 -->
<!-- Title: /home/travis/build/AliceO2Group/AliceO2/Framework/Utils/include/DPLUtils/RawParser.h Pages: 1 -->
<!--zoomable 239 -->
<svg id="main" version="1.1" xmlns="http://www.w3.org/2000/svg" xmlns:xlink="http://www.w3.org/1999/xlink" xml:space="preserve" onload="init(evt)">
<style type="text/css"><![CDATA[
.edge:hover path { stroke: red; }
.edge:hover polygon { stroke: red; fill: red; }
]]></style>
<script type="text/javascript"><![CDATA[
var edges = document.getElementsByTagName('g');
if (edges && edges.length) {
  for (var i=0;i<edges.length;i++) {
    if (edges[i].id.substr(0,4)=='edge') {
      edges[i].setAttribute('class','edge');
    }
  }
}
]]></script>
        <defs>
                <circle id="rim" cx="0" cy="0" r="7"/>
                <circle id="rim2" cx="0" cy="0" r="3.5"/>
                <g id="zoomPlus">
                        <use xlink:href="#rim" fill="#404040">
                                <set attributeName="fill" to="#808080" begin="zoomplus.mouseover" end="zoomplus.mouseout"/>
                        </use>
                        <path d="M-4,0h8M0,-4v8" fill="none" stroke="white" stroke-width="1.5" pointer-events="none"/>
                </g>
                <g id="zoomMin">
                        <use xlink:href="#rim" fill="#404040">
                                <set attributeName="fill" to="#808080" begin="zoomminus.mouseover" end="zoomminus.mouseout"/>
                        </use>
                        <path d="M-4,0h8" fill="none" stroke="white" stroke-width="1.5" pointer-events="none"/>
                </g>
                <g id="dirArrow">
                        <path fill="none" stroke="white" stroke-width="1.5" d="M0,-3.0v7 M-2.5,-0.5L0,-3.0L2.5,-0.5"/>
                </g>
               <g id="resetDef">
                       <use xlink:href="#rim2" fill="#404040">
                               <set attributeName="fill" to="#808080" begin="reset.mouseover" end="reset.mouseout"/>
                       </use>
               </g>
        </defs>

<script type="text/javascript">
var viewWidth = 1468;
var viewHeight = 239;
var sectionId = 'dynsection-1';
</script>
<script xlink:href="../../svgpan.js"/>
<svg id="graph" class="graph">
<g id="viewport">
<title>/home/travis/build/AliceO2Group/AliceO2/Framework/Utils/include/DPLUtils/RawParser.h</title>
<!-- Node11 -->
<g id="node1" class="node">
<title>Node11</title>
<polygon fill="#bfbfbf" stroke="#000000" points="736,-178.5 736,-230.5 873,-230.5 873,-178.5 736,-178.5"/>
<text text-anchor="start" x="744" y="-218.5" font-family="Helvetica,sans-Serif" font-size="10.00" fill="#000000">/home/travis/build</text>
<text text-anchor="start" x="744" y="-207.5" font-family="Helvetica,sans-Serif" font-size="10.00" fill="#000000">/AliceO2Group/AliceO2</text>
<text text-anchor="start" x="744" y="-196.5" font-family="Helvetica,sans-Serif" font-size="10.00" fill="#000000">/Framework/Utils/include</text>
<text text-anchor="middle" x="804.5" y="-185.5" font-family="Helvetica,sans-Serif" font-size="10.00" fill="#000000">/DPLUtils/RawParser.h</text>
</g>
<!-- Node12 -->
<g id="node2" class="node">
<title>Node12</title>
<g id="a_node2"><a xlink:href="../../dd/d58/calib-pedestal_8cxx.html" target="_top" xlink:title="/home/travis/build\l/AliceO2Group/AliceO2\l/Detectors/TPC/calibration\l/run/calib&#45;pedestal.cxx">
<polygon fill="none" stroke="#000000" points="244,-89.5 244,-141.5 387,-141.5 387,-89.5 244,-89.5"/>
<text text-anchor="start" x="252" y="-129.5" font-family="Helvetica,sans-Serif" font-size="10.00" fill="#000000">/home/travis/build</text>
<text text-anchor="start" x="252" y="-118.5" font-family="Helvetica,sans-Serif" font-size="10.00" fill="#000000">/AliceO2Group/AliceO2</text>
<text text-anchor="start" x="252" y="-107.5" font-family="Helvetica,sans-Serif" font-size="10.00" fill="#000000">/Detectors/TPC/calibration</text>
<text text-anchor="middle" x="315.5" y="-96.5" font-family="Helvetica,sans-Serif" font-size="10.00" fill="#000000">/run/calib&#45;pedestal.cxx</text>
</a>
</g>
</g>
<!-- Node11&#45;&gt;Node12 -->
<g id="edge1" class="edge">
<title>Node11&#45;&gt;Node12</title>
<path fill="none" stroke="#191970" d="M725.9017,-196.3412C643.1959,-186.8551 509.5849,-168.967 396.5,-142 393.4776,-141.2793 390.406,-140.4984 387.3136,-139.6723"/>
<polygon fill="#191970" stroke="#191970" points="725.6487,-199.8349 735.9795,-197.4844 726.4378,-192.8795 725.6487,-199.8349"/>
</g>
<!-- Node13 -->
<g id="node3" class="node">
<title>Node13</title>
<g id="a_node3"><a xlink:href="../../dc/df5/LinkZSToDigitsSpec_8cxx.html" target="_top" xlink:title="/home/travis/build\l/AliceO2Group/AliceO2\l/Detectors/TPC/workflow\l/src/LinkZSToDigitsSpec.cxx">
<polygon fill="none" stroke="#000000" points="405.5,-89.5 405.5,-141.5 557.5,-141.5 557.5,-89.5 405.5,-89.5"/>
<text text-anchor="start" x="413.5" y="-129.5" font-family="Helvetica,sans-Serif" font-size="10.00" fill="#000000">/home/travis/build</text>
<text text-anchor="start" x="413.5" y="-118.5" font-family="Helvetica,sans-Serif" font-size="10.00" fill="#000000">/AliceO2Group/AliceO2</text>
<text text-anchor="start" x="413.5" y="-107.5" font-family="Helvetica,sans-Serif" font-size="10.00" fill="#000000">/Detectors/TPC/workflow</text>
<text text-anchor="middle" x="481.5" y="-96.5" font-family="Helvetica,sans-Serif" font-size="10.00" fill="#000000">/src/LinkZSToDigitsSpec.cxx</text>
</a>
</g>
</g>
<!-- Node11&#45;&gt;Node13 -->
<g id="edge2" class="edge">
<title>Node11&#45;&gt;Node13</title>
<path fill="none" stroke="#191970" d="M726.0791,-184.8608C679.5546,-172.9721 619.499,-157.212 566.5,-142 563.6771,-141.1897 560.8049,-140.3538 557.9065,-139.5004"/>
<polygon fill="#191970" stroke="#191970" points="725.2394,-188.2586 735.7941,-187.3374 726.9686,-181.4755 725.2394,-188.2586"/>
</g>
<!-- Node14 -->
<g id="node4" class="node">
<title>Node14</title>
<g id="a_node4"><a xlink:href="../../d5/d78/RawToDigitsSpec_8cxx.html" target="_top" xlink:title="/home/travis/build\l/AliceO2Group/AliceO2\l/Detectors/TPC/workflow\l/src/RawToDigitsSpec.cxx">
<polygon fill="none" stroke="#000000" points="575.5,-89.5 575.5,-141.5 715.5,-141.5 715.5,-89.5 575.5,-89.5"/>
<text text-anchor="start" x="583.5" y="-129.5" font-family="Helvetica,sans-Serif" font-size="10.00" fill="#000000">/home/travis/build</text>
<text text-anchor="start" x="583.5" y="-118.5" font-family="Helvetica,sans-Serif" font-size="10.00" fill="#000000">/AliceO2Group/AliceO2</text>
<text text-anchor="start" x="583.5" y="-107.5" font-family="Helvetica,sans-Serif" font-size="10.00" fill="#000000">/Detectors/TPC/workflow</text>
<text text-anchor="middle" x="645.5" y="-96.5" font-family="Helvetica,sans-Serif" font-size="10.00" fill="#000000">/src/RawToDigitsSpec.cxx</text>
</a>
</g>
</g>
<!-- Node11&#45;&gt;Node14 -->
<g id="edge3" class="edge">
<title>Node11&#45;&gt;Node14</title>
<path fill="none" stroke="#191970" d="M748.7288,-173.2821C730.1955,-162.9082 709.7682,-151.4741 692.0104,-141.5341"/>
<polygon fill="#191970" stroke="#191970" points="747.2192,-176.4481 757.6547,-178.2784 750.6383,-170.3399 747.2192,-176.4481"/>
</g>
<!-- Node15 -->
<g id="node5" class="node">
<title>Node15</title>
<g id="a_node5"><a xlink:href="../../d4/db9/DPLRawParser_8h.html" target="_top" xlink:title="A raw page parser for DPL input. ">
<polygon fill="none" stroke="#000000" points="734,-89.5 734,-141.5 875,-141.5 875,-89.5 734,-89.5"/>
<text text-anchor="start" x="742" y="-129.5" font-family="Helvetica,sans-Serif" font-size="10.00" fill="#000000">/home/travis/build</text>
<text text-anchor="start" x="742" y="-118.5" font-family="Helvetica,sans-Serif" font-size="10.00" fill="#000000">/AliceO2Group/AliceO2</text>
<text text-anchor="start" x="742" y="-107.5" font-family="Helvetica,sans-Serif" font-size="10.00" fill="#000000">/Framework/Utils/include</text>
<text text-anchor="middle" x="804.5" y="-96.5" font-family="Helvetica,sans-Serif" font-size="10.00" fill="#000000">/DPLUtils/DPLRawParser.h</text>
</a>
</g>
</g>
<!-- Node11&#45;&gt;Node15 -->
<g id="edge4" class="edge">
<title>Node11&#45;&gt;Node15</title>
<path fill="none" stroke="#191970" d="M804.5,-168.1155C804.5,-159.2061 804.5,-149.8475 804.5,-141.5341"/>
<polygon fill="#191970" stroke="#191970" points="801.0001,-168.2784 804.5,-178.2784 808.0001,-168.2785 801.0001,-168.2784"/>
</g>
<!-- Node24 -->
<g id="node14" class="node">
<title>Node24</title>
<g id="a_node14"><a xlink:href="../../d8/d93/RawParser_8cxx.html" target="_top" xlink:title="Generic parser for consecutive raw pages. ">
<polygon fill="none" stroke="#000000" points="893.5,-95 893.5,-136 1083.5,-136 1083.5,-95 893.5,-95"/>
<text text-anchor="start" x="901.5" y="-124" font-family="Helvetica,sans-Serif" font-size="10.00" fill="#000000">/home/travis/build</text>
<text text-anchor="start" x="901.5" y="-113" font-family="Helvetica,sans-Serif" font-size="10.00" fill="#000000">/AliceO2Group/AliceO2</text>
<text text-anchor="middle" x="988.5" y="-102" font-family="Helvetica,sans-Serif" font-size="10.00" fill="#000000">/Framework/Utils/src/RawParser.cxx</text>
</a>
</g>
</g>
<!-- Node11&#45;&gt;Node24 -->
<g id="edge13" class="edge">
<title>Node11&#45;&gt;Node24</title>
<path fill="none" stroke="#191970" d="M868.0429,-173.7646C893.8254,-161.2937 922.9152,-147.2231 946.0484,-136.0336"/>
<polygon fill="#191970" stroke="#191970" points="866.1891,-170.7733 858.7109,-178.2784 869.2371,-177.0748 866.1891,-170.7733"/>
</g>
<!-- Node25 -->
<g id="node15" class="node">
<title>Node25</title>
<g id="a_node15"><a xlink:href="../../d2/d34/benchmark__RawParser_8cxx.html" target="_top" xlink:title="/home/travis/build\l/AliceO2Group/AliceO2\l/Framework/Utils/test\l/benchmark_RawParser.cxx">
<polygon fill="none" stroke="#000000" points="1101.5,-89.5 1101.5,-141.5 1251.5,-141.5 1251.5,-89.5 1101.5,-89.5"/>
<text text-anchor="start" x="1109.5" y="-129.5" font-family="Helvetica,sans-Serif" font-size="10.00" fill="#000000">/home/travis/build</text>
<text text-anchor="start" x="1109.5" y="-118.5" font-family="Helvetica,sans-Serif" font-size="10.00" fill="#000000">/AliceO2Group/AliceO2</text>
<text text-anchor="start" x="1109.5" y="-107.5" font-family="Helvetica,sans-Serif" font-size="10.00" fill="#000000">/Framework/Utils/test</text>
<text text-anchor="middle" x="1176.5" y="-96.5" font-family="Helvetica,sans-Serif" font-size="10.00" fill="#000000">/benchmark_RawParser.cxx</text>
</a>
</g>
</g>
<!-- Node11&#45;&gt;Node25 -->
<g id="edge14" class="edge">
<title>Node11&#45;&gt;Node25</title>
<path fill="none" stroke="#191970" d="M882.8653,-189.5193C941.0441,-177.9078 1022.1494,-160.6882 1092.5,-142 1095.4559,-141.2148 1098.4625,-140.3905 1101.4941,-139.5381"/>
<polygon fill="#191970" stroke="#191970" points="882.1316,-186.0966 873.0049,-191.4774 883.4951,-192.9625 882.1316,-186.0966"/>
</g>
<!-- Node26 -->
<g id="node16" class="node">
<title>Node26</title>
<g id="a_node16"><a xlink:href="../../dd/d7b/test__RawParser_8cxx.html" target="_top" xlink:title="/home/travis/build\l/AliceO2Group/AliceO2\l/Framework/Utils/test\l/test_RawParser.cxx">
<polygon fill="none" stroke="#000000" points="1270,-89.5 1270,-141.5 1397,-141.5 1397,-89.5 1270,-89.5"/>
<text text-anchor="start" x="1278" y="-129.5" font-family="Helvetica,sans-Serif" font-size="10.00" fill="#000000">/home/travis/build</text>
<text text-anchor="start" x="1278" y="-118.5" font-family="Helvetica,sans-Serif" font-size="10.00" fill="#000000">/AliceO2Group/AliceO2</text>
<text text-anchor="start" x="1278" y="-107.5" font-family="Helvetica,sans-Serif" font-size="10.00" fill="#000000">/Framework/Utils/test</text>
<text text-anchor="middle" x="1333.5" y="-96.5" font-family="Helvetica,sans-Serif" font-size="10.00" fill="#000000">/test_RawParser.cxx</text>
</a>
</g>
</g>
<!-- Node11&#45;&gt;Node26 -->
<g id="edge15" class="edge">
<title>Node11&#45;&gt;Node26</title>
<path fill="none" stroke="#191970" d="M883.3752,-198.7959C975.0509,-190.9957 1130.398,-174.144 1260.5,-142 1263.5105,-141.2562 1266.5694,-140.4321 1269.6435,-139.5483"/>
<polygon fill="#191970" stroke="#191970" points="883.0117,-195.314 873.3383,-199.6353 883.5952,-202.2896 883.0117,-195.314"/>
</g>
<!-- Node16 -->
<g id="node6" class="node">
<title>Node16</title>
<g id="a_node6"><a xlink:href="../../dd/df6/RawPixelDecoder_8cxx.html" target="_top" xlink:title="Alpide pixel reader for raw data processing. ">
<polygon fill="none" stroke="#000000" points="0,-.5 0,-52.5 215,-52.5 215,-.5 0,-.5"/>
<text text-anchor="start" x="8" y="-40.5" font-family="Helvetica,sans-Serif" font-size="10.00" fill="#000000">/home/travis/build</text>
<text text-anchor="start" x="8" y="-29.5" font-family="Helvetica,sans-Serif" font-size="10.00" fill="#000000">/AliceO2Group/AliceO2</text>
<text text-anchor="start" x="8" y="-18.5" font-family="Helvetica,sans-Serif" font-size="10.00" fill="#000000">/Detectors/ITSMFT/common</text>
<text text-anchor="middle" x="107.5" y="-7.5" font-family="Helvetica,sans-Serif" font-size="10.00" fill="#000000">/reconstruction/src/RawPixelDecoder.cxx</text>
</a>
</g>
</g>
<!-- Node15&#45;&gt;Node16 -->
<g id="edge5" class="edge">
<title>Node15&#45;&gt;Node16</title>
<path fill="none" stroke="#191970" d="M723.7461,-89.0777C504.1393,-46.7961 441.6563,-85.222 224.5,-53 221.4098,-52.5415 218.28,-52.0457 215.1259,-51.5186"/>
<polygon fill="#191970" stroke="#191970" points="723.1591,-92.5292 733.6455,-91.0174 724.5051,-85.6598 723.1591,-92.5292"/>
</g>
<!-- Node17 -->
<g id="node7" class="node">
<title>Node17</title>
<g id="a_node7"><a xlink:href="../../d0/d75/DataDecoderSpec_8cxx.html" target="_top" xlink:title="/home/travis/build\l/AliceO2Group/AliceO2\l/Detectors/MUON/MCH/Workflow\l/src/DataDecoderSpec.cxx">
<polygon fill="none" stroke="#000000" points="233.5,-.5 233.5,-52.5 407.5,-52.5 407.5,-.5 233.5,-.5"/>
<text text-anchor="start" x="241.5" y="-40.5" font-family="Helvetica,sans-Serif" font-size="10.00" fill="#000000">/home/travis/build</text>
<text text-anchor="start" x="241.5" y="-29.5" font-family="Helvetica,sans-Serif" font-size="10.00" fill="#000000">/AliceO2Group/AliceO2</text>
<text text-anchor="start" x="241.5" y="-18.5" font-family="Helvetica,sans-Serif" font-size="10.00" fill="#000000">/Detectors/MUON/MCH/Workflow</text>
<text text-anchor="middle" x="320.5" y="-7.5" font-family="Helvetica,sans-Serif" font-size="10.00" fill="#000000">/src/DataDecoderSpec.cxx</text>
</a>
</g>
</g>
<!-- Node15&#45;&gt;Node17 -->
<g id="edge6" class="edge">
<title>Node15&#45;&gt;Node17</title>
<path fill="none" stroke="#191970" d="M723.6797,-89.0206C588.1016,-60.1 548.5957,-78.7945 416.5,-53 413.6152,-52.4367 410.6902,-51.8313 407.743,-51.192"/>
<polygon fill="#191970" stroke="#191970" points="723.0938,-92.4751 733.61,-91.1865 724.5855,-85.6358 723.0938,-92.4751"/>
</g>
<!-- Node18 -->
<g id="node8" class="node">
<title>Node18</title>
<g id="a_node8"><a xlink:href="../../dd/da0/digits-sink-workflow_8cxx.html" target="_top" xlink:title="This is an executable that dumps to a file on disk the digits received via DPL. ">
<polygon fill="none" stroke="#000000" points="425.5,-.5 425.5,-52.5 599.5,-52.5 599.5,-.5 425.5,-.5"/>
<text text-anchor="start" x="433.5" y="-40.5" font-family="Helvetica,sans-Serif" font-size="10.00" fill="#000000">/home/travis/build</text>
<text text-anchor="start" x="433.5" y="-29.5" font-family="Helvetica,sans-Serif" font-size="10.00" fill="#000000">/AliceO2Group/AliceO2</text>
<text text-anchor="start" x="433.5" y="-18.5" font-family="Helvetica,sans-Serif" font-size="10.00" fill="#000000">/Detectors/MUON/MCH/Workflow</text>
<text text-anchor="middle" x="512.5" y="-7.5" font-family="Helvetica,sans-Serif" font-size="10.00" fill="#000000">/src/digits&#45;sink&#45;workflow.cxx</text>
</a>
</g>
</g>
<!-- Node15&#45;&gt;Node18 -->
<g id="edge7" class="edge">
<title>Node15&#45;&gt;Node18</title>
<path fill="none" stroke="#191970" d="M724.2052,-88.9418C677.7294,-74.4586 635.5099,-61.9372 599.5969,-51.4706"/>
<polygon fill="#191970" stroke="#191970" points="723.282,-92.3201 733.8708,-91.9631 725.3705,-85.6389 723.282,-92.3201"/>
</g>
<!-- Node19 -->
<g id="node9" class="node">
<title>Node19</title>
<g id="a_node9"><a xlink:href="../../db/d1c/file-to-digits-workflow_8cxx.html" target="_top" xlink:title="/home/travis/build\l/AliceO2Group/AliceO2\l/Detectors/MUON/MCH/Workflow\l/src/file&#45;to&#45;digits&#45;workflow.cxx">
<polygon fill="none" stroke="#000000" points="617.5,-.5 617.5,-52.5 791.5,-52.5 791.5,-.5 617.5,-.5"/>
<text text-anchor="start" x="625.5" y="-40.5" font-family="Helvetica,sans-Serif" font-size="10.00" fill="#000000">/home/travis/build</text>
<text text-anchor="start" x="625.5" y="-29.5" font-family="Helvetica,sans-Serif" font-size="10.00" fill="#000000">/AliceO2Group/AliceO2</text>
<text text-anchor="start" x="625.5" y="-18.5" font-family="Helvetica,sans-Serif" font-size="10.00" fill="#000000">/Detectors/MUON/MCH/Workflow</text>
<text text-anchor="middle" x="704.5" y="-7.5" font-family="Helvetica,sans-Serif" font-size="10.00" fill="#000000">/src/file&#45;to&#45;digits&#45;workflow.cxx</text>
</a>
</g>
</g>
<!-- Node15&#45;&gt;Node19 -->
<g id="edge8" class="edge">
<title>Node15&#45;&gt;Node19</title>
<path fill="none" stroke="#191970" d="M767.5062,-82.5755C756.3711,-72.6653 744.3111,-61.9319 733.7519,-52.5341"/>
<polygon fill="#191970" stroke="#191970" points="765.2407,-85.2446 775.0376,-89.2784 769.8945,-80.0156 765.2407,-85.2446"/>
</g>
<!-- Node20 -->
<g id="node10" class="node">
<title>Node20</title>
<g id="a_node10"><a xlink:href="../../d3/d09/testRawReaderWriter_8cxx.html" target="_top" xlink:title="/home/travis/build\l/AliceO2Group/AliceO2\l/Detectors/Raw/test/testRawReader\lWriter.cxx">
<polygon fill="none" stroke="#000000" points="810,-.5 810,-52.5 999,-52.5 999,-.5 810,-.5"/>
<text text-anchor="start" x="818" y="-40.5" font-family="Helvetica,sans-Serif" font-size="10.00" fill="#000000">/home/travis/build</text>
<text text-anchor="start" x="818" y="-29.5" font-family="Helvetica,sans-Serif" font-size="10.00" fill="#000000">/AliceO2Group/AliceO2</text>
<text text-anchor="start" x="818" y="-18.5" font-family="Helvetica,sans-Serif" font-size="10.00" fill="#000000">/Detectors/Raw/test/testRawReader</text>
<text text-anchor="middle" x="904.5" y="-7.5" font-family="Helvetica,sans-Serif" font-size="10.00" fill="#000000">Writer.cxx</text>
</a>
</g>
</g>
<!-- Node15&#45;&gt;Node20 -->
<g id="edge9" class="edge">
<title>Node15&#45;&gt;Node20</title>
<path fill="none" stroke="#191970" d="M841.4938,-82.5755C852.6289,-72.6653 864.6889,-61.9319 875.2481,-52.5341"/>
<polygon fill="#191970" stroke="#191970" points="839.1055,-80.0156 833.9624,-89.2784 843.7593,-85.2446 839.1055,-80.0156"/>
</g>
<!-- Node21 -->
<g id="node11" class="node">
<title>Node21</title>
<g id="a_node11"><a xlink:href="../../da/d78/CATrackerSpec_8cxx.html" target="_top" xlink:title="Processor spec for running TPC CA tracking. ">
<polygon fill="none" stroke="#000000" points="1017.5,-.5 1017.5,-52.5 1153.5,-52.5 1153.5,-.5 1017.5,-.5"/>
<text text-anchor="start" x="1025.5" y="-40.5" font-family="Helvetica,sans-Serif" font-size="10.00" fill="#000000">/home/travis/build</text>
<text text-anchor="start" x="1025.5" y="-29.5" font-family="Helvetica,sans-Serif" font-size="10.00" fill="#000000">/AliceO2Group/AliceO2</text>
<text text-anchor="start" x="1025.5" y="-18.5" font-family="Helvetica,sans-Serif" font-size="10.00" fill="#000000">/Detectors/TPC/workflow</text>
<text text-anchor="middle" x="1085.5" y="-7.5" font-family="Helvetica,sans-Serif" font-size="10.00" fill="#000000">/src/CATrackerSpec.cxx</text>
</a>
</g>
</g>
<!-- Node15&#45;&gt;Node21 -->
<g id="edge10" class="edge">
<title>Node15&#45;&gt;Node21</title>
<path fill="none" stroke="#191970" d="M884.8762,-88.9354C940.9434,-71.7587 956.6813,-69.4281 1008.5,-53 1011.3301,-52.1028 1014.214,-51.1744 1017.1238,-50.2261"/>
<polygon fill="#191970" stroke="#191970" points="883.6462,-85.6521 875.1242,-91.9471 885.7118,-92.3404 883.6462,-85.6521"/>
</g>
<!-- Node22 -->
<g id="node12" class="node">
<title>Node22</title>
<g id="a_node12"><a xlink:href="../../d4/d96/raw-parser_8cxx.html" target="_top" xlink:title="/home/travis/build\l/AliceO2Group/AliceO2\l/Framework/Utils/src/raw\l&#45;parser.cxx">
<polygon fill="none" stroke="#000000" points="1172,-.5 1172,-52.5 1309,-52.5 1309,-.5 1172,-.5"/>
<text text-anchor="start" x="1180" y="-40.5" font-family="Helvetica,sans-Serif" font-size="10.00" fill="#000000">/home/travis/build</text>
<text text-anchor="start" x="1180" y="-29.5" font-family="Helvetica,sans-Serif" font-size="10.00" fill="#000000">/AliceO2Group/AliceO2</text>
<text text-anchor="start" x="1180" y="-18.5" font-family="Helvetica,sans-Serif" font-size="10.00" fill="#000000">/Framework/Utils/src/raw</text>
<text text-anchor="middle" x="1240.5" y="-7.5" font-family="Helvetica,sans-Serif" font-size="10.00" fill="#000000">&#45;parser.cxx</text>
</a>
</g>
</g>
<!-- Node15&#45;&gt;Node22 -->
<g id="edge11" class="edge">
<title>Node15&#45;&gt;Node22</title>
<path fill="none" stroke="#191970" d="M885.1645,-89.0471C1007.8074,-62.2647 1044.2225,-80.4625 1162.5,-53 1165.5649,-52.2884 1168.679,-51.5034 1171.8114,-50.6628"/>
<polygon fill="#191970" stroke="#191970" points="884.3941,-85.6329 875.4006,-91.2336 885.9238,-92.4637 884.3941,-85.6329"/>
</g>
<!-- Node23 -->
<g id="node13" class="node">
<title>Node23</title>
<g id="a_node13"><a xlink:href="../../d0/d6f/test__DPLRawParser_8cxx.html" target="_top" xlink:title="/home/travis/build\l/AliceO2Group/AliceO2\l/Framework/Utils/test\l/test_DPLRawParser.cxx">
<polygon fill="none" stroke="#000000" points="1327,-.5 1327,-52.5 1460,-52.5 1460,-.5 1327,-.5"/>
<text text-anchor="start" x="1335" y="-40.5" font-family="Helvetica,sans-Serif" font-size="10.00" fill="#000000">/home/travis/build</text>
<text text-anchor="start" x="1335" y="-29.5" font-family="Helvetica,sans-Serif" font-size="10.00" fill="#000000">/AliceO2Group/AliceO2</text>
<text text-anchor="start" x="1335" y="-18.5" font-family="Helvetica,sans-Serif" font-size="10.00" fill="#000000">/Framework/Utils/test</text>
<text text-anchor="middle" x="1393.5" y="-7.5" font-family="Helvetica,sans-Serif" font-size="10.00" fill="#000000">/test_DPLRawParser.cxx</text>
</a>
</g>
</g>
<!-- Node15&#45;&gt;Node23 -->
<g id="edge12" class="edge">
<title>Node15&#45;&gt;Node23</title>
<path fill="none" stroke="#191970" d="M885.4297,-89.0418C1076.0651,-51.7522 1132.4836,-92.8815 1318.5,-53 1321.2006,-52.421 1323.9369,-51.7707 1326.687,-51.0639"/>
<polygon fill="#191970" stroke="#191970" points="884.4804,-85.6624 875.3629,-91.0589 885.8556,-92.526 884.4804,-85.6624"/>
</g>
</g>
</svg>
        <g id="navigator" transform="translate(0 0)" fill="#404254">
                <rect fill="#f2f5e9" fill-opacity="0.5" stroke="#606060" stroke-width=".5" x="0" y="0" width="60" height="60"/>
                <use id="zoomplus" xlink:href="#zoomPlus" x="17" y="9" onmousedown="handleZoom(evt,'in')"/>
                <use id="zoomminus" xlink:href="#zoomMin" x="42" y="9" onmousedown="handleZoom(evt,'out')"/>
                <use id="reset" xlink:href="#resetDef" x="30" y="36" onmousedown="handleReset()"/>
                <g id="arrowUp" xlink:href="#dirArrow" transform="translate(30 24)" onmousedown="handlePan(0,-1)">
                  <use xlink:href="#rim" fill="#404040">
                        <set attributeName="fill" to="#808080" begin="arrowUp.mouseover" end="arrowUp.mouseout"/>
                  </use>
                  <path fill="none" stroke="white" stroke-width="1.5" d="M0,-3.0v7 M-2.5,-0.5L0,-3.0L2.5,-0.5"/>
                </g>
                <g id="arrowRight" xlink:href="#dirArrow" transform="rotate(90) translate(36 -43)" onmousedown="handlePan(1,0)">
                  <use xlink:href="#rim" fill="#404040">
                        <set attributeName="fill" to="#808080" begin="arrowRight.mouseover" end="arrowRight.mouseout"/>
                  </use>
                  <path fill="none" stroke="white" stroke-width="1.5" d="M0,-3.0v7 M-2.5,-0.5L0,-3.0L2.5,-0.5"/>
                </g>
                <g id="arrowDown" xlink:href="#dirArrow" transform="rotate(180) translate(-30 -48)" onmousedown="handlePan(0,1)">
                  <use xlink:href="#rim" fill="#404040">
                        <set attributeName="fill" to="#808080" begin="arrowDown.mouseover" end="arrowDown.mouseout"/>
                  </use>
                  <path fill="none" stroke="white" stroke-width="1.5" d="M0,-3.0v7 M-2.5,-0.5L0,-3.0L2.5,-0.5"/>
                </g>
                <g id="arrowLeft" xlink:href="#dirArrow" transform="rotate(270) translate(-36 17)" onmousedown="handlePan(-1,0)">
                  <use xlink:href="#rim" fill="#404040">
                        <set attributeName="fill" to="#808080" begin="arrowLeft.mouseover" end="arrowLeft.mouseout"/>
                  </use>
                  <path fill="none" stroke="white" stroke-width="1.5" d="M0,-3.0v7 M-2.5,-0.5L0,-3.0L2.5,-0.5"/>
                </g>
        </g>
        <svg viewBox="0 0 15 15" width="100%" height="30px" preserveAspectRatio="xMaxYMin meet">
         <g id="arrow_out" transform="scale(0.3 0.3)">
          <a xlink:href="RawParser_8h__dep__incl_org.svg" target="_base">
           <rect id="button" ry="5" rx="5" y="6" x="6" height="38" width="38"
                fill="#f2f5e9" fill-opacity="0.5" stroke="#606060" stroke-width="1.0"/>
           <path id="arrow"
             d="M 11.500037,31.436501 C 11.940474,20.09759 22.043105,11.32322 32.158766,21.979434 L 37.068811,17.246167 C 37.068811,17.246167 37.088388,32 37.088388,32 L 22.160133,31.978069 C 22.160133,31.978069 26.997745,27.140456 26.997745,27.140456 C 18.528582,18.264221 13.291696,25.230495 11.500037,31.436501 z"
             style="fill:#404040;"/>
          </a>
         </g>
        </svg>
</svg>
