<?xml version="1.0" encoding="UTF-8" standalone="no"?>
<!DOCTYPE svg PUBLIC "-//W3C//DTD SVG 1.1//EN"
 "http://www.w3.org/Graphics/SVG/1.1/DTD/svg11.dtd">
<!-- Generated by graphviz version 2.40.1 (20161225.0304)
 -->
<!-- Title: /home/travis/build/AliceO2Group/AliceO2/GPU/GPUTracking/Merger/GPUTPCGMSliceTrack.h Pages: 1 -->
<!--zoomable 397 -->
<svg id="main" version="1.1" xmlns="http://www.w3.org/2000/svg" xmlns:xlink="http://www.w3.org/1999/xlink" xml:space="preserve" onload="init(evt)">
<style type="text/css"><![CDATA[
.edge:hover path { stroke: red; }
.edge:hover polygon { stroke: red; fill: red; }
]]></style>
<script type="text/javascript"><![CDATA[
var edges = document.getElementsByTagName('g');
if (edges && edges.length) {
  for (var i=0;i<edges.length;i++) {
    if (edges[i].id.substr(0,4)=='edge') {
      edges[i].setAttribute('class','edge');
    }
  }
}
]]></script>
        <defs>
                <circle id="rim" cx="0" cy="0" r="7"/>
                <circle id="rim2" cx="0" cy="0" r="3.5"/>
                <g id="zoomPlus">
                        <use xlink:href="#rim" fill="#404040">
                                <set attributeName="fill" to="#808080" begin="zoomplus.mouseover" end="zoomplus.mouseout"/>
                        </use>
                        <path d="M-4,0h8M0,-4v8" fill="none" stroke="white" stroke-width="1.5" pointer-events="none"/>
                </g>
                <g id="zoomMin">
                        <use xlink:href="#rim" fill="#404040">
                                <set attributeName="fill" to="#808080" begin="zoomminus.mouseover" end="zoomminus.mouseout"/>
                        </use>
                        <path d="M-4,0h8" fill="none" stroke="white" stroke-width="1.5" pointer-events="none"/>
                </g>
                <g id="dirArrow">
                        <path fill="none" stroke="white" stroke-width="1.5" d="M0,-3.0v7 M-2.5,-0.5L0,-3.0L2.5,-0.5"/>
                </g>
               <g id="resetDef">
                       <use xlink:href="#rim2" fill="#404040">
                               <set attributeName="fill" to="#808080" begin="reset.mouseover" end="reset.mouseout"/>
                       </use>
               </g>
        </defs>

<script type="text/javascript">
var viewWidth = 1009;
var viewHeight = 397;
var sectionId = 'dynsection-0';
</script>
<script xlink:href="../../svgpan.js"/>
<svg id="graph" class="graph">
<g id="viewport">
<title>/home/travis/build/AliceO2Group/AliceO2/GPU/GPUTracking/Merger/GPUTPCGMSliceTrack.h</title>
<!-- Node0 -->
<g id="node1" class="node">
<title>Node0</title>
<polygon fill="#bfbfbf" stroke="#000000" points="563.5,-336.5 563.5,-388.5 705.5,-388.5 705.5,-336.5 563.5,-336.5"/>
<text text-anchor="start" x="571.5" y="-376.5" font-family="Helvetica,sans-Serif" font-size="10.00" fill="#000000">/home/travis/build</text>
<text text-anchor="start" x="571.5" y="-365.5" font-family="Helvetica,sans-Serif" font-size="10.00" fill="#000000">/AliceO2Group/AliceO2</text>
<text text-anchor="start" x="571.5" y="-354.5" font-family="Helvetica,sans-Serif" font-size="10.00" fill="#000000">/GPU/GPUTracking/Merger</text>
<text text-anchor="middle" x="634.5" y="-343.5" font-family="Helvetica,sans-Serif" font-size="10.00" fill="#000000">/GPUTPCGMSliceTrack.h</text>
</g>
<!-- Node1 -->
<g id="node2" class="node">
<title>Node1</title>
<g id="a_node2"><a xlink:href="../../df/d9b/GPUTPCSliceOutTrack_8h.html" target="_top" xlink:title="GPUTPCSliceOutTrack.h">
<polygon fill="none" stroke="#000000" points="181,-280.5 181,-299.5 312,-299.5 312,-280.5 181,-280.5"/>
<text text-anchor="middle" x="246.5" y="-287.5" font-family="Helvetica,sans-Serif" font-size="10.00" fill="#000000">GPUTPCSliceOutTrack.h</text>
</a>
</g>
</g>
<!-- Node0&#45;&gt;Node1 -->
<g id="edge1" class="edge">
<title>Node0&#45;&gt;Node1</title>
<path fill="none" stroke="#191970" d="M563.3348,-349.2024C489.9361,-335.4874 376.6863,-314.326 307.3283,-301.3661"/>
<polygon fill="#191970" stroke="#191970" points="307.8963,-297.9118 297.4236,-299.5154 306.6105,-304.7927 307.8963,-297.9118"/>
</g>
<!-- Node15 -->
<g id="node16" class="node">
<title>Node15</title>
<g id="a_node16"><a xlink:href="../../d8/d33/GPUTPCGMTrackParam_8h.html" target="_top" xlink:title="GPUTPCGMTrackParam.h">
<polygon fill="none" stroke="#000000" points="495,-280.5 495,-299.5 632,-299.5 632,-280.5 495,-280.5"/>
<text text-anchor="middle" x="563.5" y="-287.5" font-family="Helvetica,sans-Serif" font-size="10.00" fill="#000000">GPUTPCGMTrackParam.h</text>
</a>
</g>
</g>
<!-- Node0&#45;&gt;Node15 -->
<g id="edge16" class="edge">
<title>Node0&#45;&gt;Node15</title>
<path fill="none" stroke="#191970" d="M608.8674,-336.3258C599.2574,-326.5128 588.5995,-315.6298 580.0298,-306.879"/>
<polygon fill="#191970" stroke="#191970" points="582.3342,-304.2297 572.8367,-299.534 577.3329,-309.1275 582.3342,-304.2297"/>
</g>
<!-- Node17 -->
<g id="node18" class="node">
<title>Node17</title>
<g id="a_node18"><a xlink:href="../../d6/da2/GPUCommonMath_8h.html" target="_top" xlink:title="GPUCommonMath.h">
<polygon fill="none" stroke="#000000" points="856,-224.5 856,-243.5 971,-243.5 971,-224.5 856,-224.5"/>
<text text-anchor="middle" x="913.5" y="-231.5" font-family="Helvetica,sans-Serif" font-size="10.00" fill="#000000">GPUCommonMath.h</text>
</a>
</g>
</g>
<!-- Node0&#45;&gt;Node17 -->
<g id="edge28" class="edge">
<title>Node0&#45;&gt;Node17</title>
<path fill="none" stroke="#191970" d="M691.4158,-336.3689C715.7767,-325.1779 744.5375,-311.957 770.5,-300 809.5484,-282.0163 854.572,-261.2274 883.5022,-247.8624"/>
<polygon fill="#191970" stroke="#191970" points="885.0545,-251.0008 892.6645,-243.6293 882.1186,-244.6462 885.0545,-251.0008"/>
</g>
<!-- Node23 -->
<g id="node24" class="node">
<title>Node23</title>
<g id="a_node24"><a xlink:href="../../d5/d5c/GPUO2DataTypes_8h.html" target="_top" xlink:title="GPUO2DataTypes.h">
<polygon fill="none" stroke="#000000" points="650,-280.5 650,-299.5 761,-299.5 761,-280.5 650,-280.5"/>
<text text-anchor="middle" x="705.5" y="-287.5" font-family="Helvetica,sans-Serif" font-size="10.00" fill="#000000">GPUO2DataTypes.h</text>
</a>
</g>
</g>
<!-- Node0&#45;&gt;Node23 -->
<g id="edge29" class="edge">
<title>Node0&#45;&gt;Node23</title>
<path fill="none" stroke="#191970" d="M660.1326,-336.3258C669.7426,-326.5128 680.4005,-315.6298 688.9702,-306.879"/>
<polygon fill="#191970" stroke="#191970" points="691.6671,-309.1275 696.1633,-299.534 686.6658,-304.2297 691.6671,-309.1275"/>
</g>
<!-- Node2 -->
<g id="node3" class="node">
<title>Node2</title>
<g id="a_node3"><a xlink:href="../../df/d00/GPUTPCBaseTrackParam_8h.html" target="_top" xlink:title="GPUTPCBaseTrackParam.h">
<polygon fill="none" stroke="#000000" points="12.5,-224.5 12.5,-243.5 158.5,-243.5 158.5,-224.5 12.5,-224.5"/>
<text text-anchor="middle" x="85.5" y="-231.5" font-family="Helvetica,sans-Serif" font-size="10.00" fill="#000000">GPUTPCBaseTrackParam.h</text>
</a>
</g>
</g>
<!-- Node1&#45;&gt;Node2 -->
<g id="edge2" class="edge">
<title>Node1&#45;&gt;Node2</title>
<path fill="none" stroke="#191970" d="M218.8231,-280.3733C192.1672,-271.1016 151.6762,-257.0178 122.3116,-246.804"/>
<polygon fill="#191970" stroke="#191970" points="123.4105,-243.4807 112.8157,-243.5011 121.1109,-250.0921 123.4105,-243.4807"/>
</g>
<!-- Node14 -->
<g id="node15" class="node">
<title>Node14</title>
<g id="a_node15"><a xlink:href="../../d2/dd5/GPUTPCSliceOutCluster_8h.html" target="_top" xlink:title="GPUTPCSliceOutCluster.h">
<polygon fill="none" stroke="#000000" points="176.5,-224.5 176.5,-243.5 316.5,-243.5 316.5,-224.5 176.5,-224.5"/>
<text text-anchor="middle" x="246.5" y="-231.5" font-family="Helvetica,sans-Serif" font-size="10.00" fill="#000000">GPUTPCSliceOutCluster.h</text>
</a>
</g>
</g>
<!-- Node1&#45;&gt;Node14 -->
<g id="edge14" class="edge">
<title>Node1&#45;&gt;Node14</title>
<path fill="none" stroke="#191970" d="M246.5,-280.2455C246.5,-272.9382 246.5,-262.6944 246.5,-253.7046"/>
<polygon fill="#191970" stroke="#191970" points="250.0001,-253.6426 246.5,-243.6427 243.0001,-253.6427 250.0001,-253.6426"/>
</g>
<!-- Node3 -->
<g id="node4" class="node">
<title>Node3</title>
<g id="a_node4"><a xlink:href="../../da/dab/GPUTPCDef_8h.html" target="_top" xlink:title="GPUTPCDef.h">
<polygon fill="none" stroke="#000000" points="361.5,-168.5 361.5,-187.5 443.5,-187.5 443.5,-168.5 361.5,-168.5"/>
<text text-anchor="middle" x="402.5" y="-175.5" font-family="Helvetica,sans-Serif" font-size="10.00" fill="#000000">GPUTPCDef.h</text>
</a>
</g>
</g>
<!-- Node2&#45;&gt;Node3 -->
<g id="edge3" class="edge">
<title>Node2&#45;&gt;Node3</title>
<path fill="none" stroke="#191970" d="M139.6341,-224.4369C198.8544,-213.9752 293.0661,-197.3322 351.1582,-187.0698"/>
<polygon fill="#191970" stroke="#191970" points="351.9773,-190.4794 361.216,-185.2931 350.7595,-183.5862 351.9773,-190.4794"/>
</g>
<!-- Node4 -->
<g id="node5" class="node">
<title>Node4</title>
<g id="a_node5"><a xlink:href="../../d2/d6d/GPUDef_8h.html" target="_top" xlink:title="GPUDef.h">
<polygon fill="none" stroke="#000000" points="371,-112.5 371,-131.5 434,-131.5 434,-112.5 371,-112.5"/>
<text text-anchor="middle" x="402.5" y="-119.5" font-family="Helvetica,sans-Serif" font-size="10.00" fill="#000000">GPUDef.h</text>
</a>
</g>
</g>
<!-- Node3&#45;&gt;Node4 -->
<g id="edge4" class="edge">
<title>Node3&#45;&gt;Node4</title>
<path fill="none" stroke="#191970" d="M402.5,-168.2455C402.5,-160.9382 402.5,-150.6944 402.5,-141.7046"/>
<polygon fill="#191970" stroke="#191970" points="406.0001,-141.6426 402.5,-131.6427 399.0001,-141.6427 406.0001,-141.6426"/>
</g>
<!-- Node5 -->
<g id="node6" class="node">
<title>Node5</title>
<g id="a_node6"><a xlink:href="../../df/d21/GPUCommonDef_8h.html" target="_top" xlink:title="GPUCommonDef.h">
<polygon fill="none" stroke="#000000" points="673,-56.5 673,-75.5 780,-75.5 780,-56.5 673,-56.5"/>
<text text-anchor="middle" x="726.5" y="-63.5" font-family="Helvetica,sans-Serif" font-size="10.00" fill="#000000">GPUCommonDef.h</text>
</a>
</g>
</g>
<!-- Node4&#45;&gt;Node5 -->
<g id="edge5" class="edge">
<title>Node4&#45;&gt;Node5</title>
<path fill="none" stroke="#191970" d="M434.1913,-116.1793C441.8214,-114.7941 449.9495,-113.332 457.5,-112 527.7799,-99.6022 608.4824,-85.8689 663.0125,-76.6636"/>
<polygon fill="#191970" stroke="#191970" points="663.603,-80.1135 672.8815,-74.9988 662.4386,-73.2111 663.603,-80.1135"/>
</g>
<!-- Node8 -->
<g id="node9" class="node">
<title>Node8</title>
<g id="a_node9"><a xlink:href="../../d2/d37/GPUDefConstantsAndSettings_8h.html" target="_top" xlink:title="GPUDefConstantsAndSettings.h">
<polygon fill="none" stroke="#000000" points="143,-56.5 143,-75.5 314,-75.5 314,-56.5 143,-56.5"/>
<text text-anchor="middle" x="228.5" y="-63.5" font-family="Helvetica,sans-Serif" font-size="10.00" fill="#000000">GPUDefConstantsAndSettings.h</text>
</a>
</g>
</g>
<!-- Node4&#45;&gt;Node8 -->
<g id="edge8" class="edge">
<title>Node4&#45;&gt;Node8</title>
<path fill="none" stroke="#191970" d="M372.5883,-112.3733C343.6548,-103.0613 299.6389,-88.8953 267.8707,-78.671"/>
<polygon fill="#191970" stroke="#191970" points="268.6128,-75.2331 258.0213,-75.5011 266.4682,-81.8965 268.6128,-75.2331"/>
</g>
<!-- Node9 -->
<g id="node10" class="node">
<title>Node9</title>
<g id="a_node10"><a xlink:href="../../dc/de9/GPUDefGPUParameters_8h.html" target="_top" xlink:title="GPUDefGPUParameters.h">
<polygon fill="none" stroke="#000000" points="332.5,-56.5 332.5,-75.5 472.5,-75.5 472.5,-56.5 332.5,-56.5"/>
<text text-anchor="middle" x="402.5" y="-63.5" font-family="Helvetica,sans-Serif" font-size="10.00" fill="#000000">GPUDefGPUParameters.h</text>
</a>
</g>
</g>
<!-- Node4&#45;&gt;Node9 -->
<g id="edge9" class="edge">
<title>Node4&#45;&gt;Node9</title>
<path fill="none" stroke="#191970" d="M402.5,-112.2455C402.5,-104.9382 402.5,-94.6944 402.5,-85.7046"/>
<polygon fill="#191970" stroke="#191970" points="406.0001,-85.6426 402.5,-75.6427 399.0001,-85.6427 406.0001,-85.6426"/>
</g>
<!-- Node11 -->
<g id="node12" class="node">
<title>Node11</title>
<g id="a_node12"><a xlink:href="../../d3/d4c/GPUDefOpenCL12Templates_8h.html" target="_top" xlink:title="GPUDefOpenCL12Templates.h">
<polygon fill="none" stroke="#000000" points="490.5,-56.5 490.5,-75.5 654.5,-75.5 654.5,-56.5 490.5,-56.5"/>
<text text-anchor="middle" x="572.5" y="-63.5" font-family="Helvetica,sans-Serif" font-size="10.00" fill="#000000">GPUDefOpenCL12Templates.h</text>
</a>
</g>
</g>
<!-- Node4&#45;&gt;Node11 -->
<g id="edge11" class="edge">
<title>Node4&#45;&gt;Node11</title>
<path fill="none" stroke="#191970" d="M431.724,-112.3733C459.9925,-103.0613 502.9965,-88.8953 534.0344,-78.671"/>
<polygon fill="#191970" stroke="#191970" points="535.2544,-81.9542 543.6573,-75.5011 533.0643,-75.3056 535.2544,-81.9542"/>
</g>
<!-- Node12 -->
<g id="node13" class="node">
<title>Node12</title>
<g id="a_node13"><a xlink:href="../../d2/d45/GPUCommonRtypes_8h.html" target="_top" xlink:title="GPUCommonRtypes.h">
<polygon fill="none" stroke="#000000" points="0,-56.5 0,-75.5 125,-75.5 125,-56.5 0,-56.5"/>
<text text-anchor="middle" x="62.5" y="-63.5" font-family="Helvetica,sans-Serif" font-size="10.00" fill="#000000">GPUCommonRtypes.h</text>
</a>
</g>
</g>
<!-- Node4&#45;&gt;Node12 -->
<g id="edge12" class="edge">
<title>Node4&#45;&gt;Node12</title>
<path fill="none" stroke="#191970" d="M370.8189,-116.7819C316.2632,-107.7963 203.4239,-89.211 130.437,-77.1896"/>
<polygon fill="#191970" stroke="#191970" points="130.8489,-73.7104 120.413,-75.5386 129.7112,-80.6173 130.8489,-73.7104"/>
</g>
<!-- Node6 -->
<g id="node7" class="node">
<title>Node6</title>
<g id="a_node7"><a xlink:href="../../d5/d93/GPUCommonDefSettings_8h.html" target="_top" xlink:title="GPUCommonDefSettings.h">
<polygon fill="none" stroke="#000000" points="575.5,-.5 575.5,-19.5 723.5,-19.5 723.5,-.5 575.5,-.5"/>
<text text-anchor="middle" x="649.5" y="-7.5" font-family="Helvetica,sans-Serif" font-size="10.00" fill="#000000">GPUCommonDefSettings.h</text>
</a>
</g>
</g>
<!-- Node5&#45;&gt;Node6 -->
<g id="edge6" class="edge">
<title>Node5&#45;&gt;Node6</title>
<path fill="none" stroke="#191970" d="M713.0876,-56.2455C701.4943,-47.814 684.5252,-35.4729 671.0322,-25.6598"/>
<polygon fill="#191970" stroke="#191970" points="672.9047,-22.6938 662.7587,-19.6427 668.7874,-28.355 672.9047,-22.6938"/>
</g>
<!-- Node7 -->
<g id="node8" class="node">
<title>Node7</title>
<g id="a_node8"><a xlink:href="../../da/d5a/GPUCommonDefAPI_8h.html" target="_top" xlink:title="GPUCommonDefAPI.h">
<polygon fill="none" stroke="#000000" points="741.5,-.5 741.5,-19.5 865.5,-19.5 865.5,-.5 741.5,-.5"/>
<text text-anchor="middle" x="803.5" y="-7.5" font-family="Helvetica,sans-Serif" font-size="10.00" fill="#000000">GPUCommonDefAPI.h</text>
</a>
</g>
</g>
<!-- Node5&#45;&gt;Node7 -->
<g id="edge7" class="edge">
<title>Node5&#45;&gt;Node7</title>
<path fill="none" stroke="#191970" d="M739.9124,-56.2455C751.5057,-47.814 768.4748,-35.4729 781.9678,-25.6598"/>
<polygon fill="#191970" stroke="#191970" points="784.2126,-28.355 790.2413,-19.6427 780.0953,-22.6938 784.2126,-28.355"/>
</g>
<!-- Node10 -->
<g id="node11" class="node">
<title>Node10</title>
<g id="a_node11"><a xlink:href="../../d6/dff/GPUDefMacros_8h.html" target="_top" xlink:title="GPUDefMacros.h">
<polygon fill="none" stroke="#000000" points="353.5,-.5 353.5,-19.5 451.5,-19.5 451.5,-.5 353.5,-.5"/>
<text text-anchor="middle" x="402.5" y="-7.5" font-family="Helvetica,sans-Serif" font-size="10.00" fill="#000000">GPUDefMacros.h</text>
</a>
</g>
</g>
<!-- Node9&#45;&gt;Node10 -->
<g id="edge10" class="edge">
<title>Node9&#45;&gt;Node10</title>
<path fill="none" stroke="#191970" d="M402.5,-56.2455C402.5,-48.9382 402.5,-38.6944 402.5,-29.7046"/>
<polygon fill="#191970" stroke="#191970" points="406.0001,-29.6426 402.5,-19.6427 399.0001,-29.6427 406.0001,-29.6426"/>
</g>
<!-- Node13 -->
<g id="node14" class="node">
<title>Node13</title>
<polygon fill="none" stroke="#bfbfbf" points="33,-.5 33,-19.5 92,-19.5 92,-.5 33,-.5"/>
<text text-anchor="middle" x="62.5" y="-7.5" font-family="Helvetica,sans-Serif" font-size="10.00" fill="#000000">Rtypes.h</text>
</g>
<!-- Node12&#45;&gt;Node13 -->
<g id="edge13" class="edge">
<title>Node12&#45;&gt;Node13</title>
<path fill="none" stroke="#191970" d="M62.5,-56.2455C62.5,-48.9382 62.5,-38.6944 62.5,-29.7046"/>
<polygon fill="#191970" stroke="#191970" points="66.0001,-29.6426 62.5,-19.6427 59.0001,-29.6427 66.0001,-29.6426"/>
</g>
<!-- Node14&#45;&gt;Node3 -->
<g id="edge15" class="edge">
<title>Node14&#45;&gt;Node3</title>
<path fill="none" stroke="#191970" d="M273.3174,-224.3733C299.0332,-215.1419 338.038,-201.1402 366.4599,-190.9375"/>
<polygon fill="#191970" stroke="#191970" points="367.8032,-194.174 376.0326,-187.5011 365.4381,-187.5857 367.8032,-194.174"/>
</g>
<!-- Node15&#45;&gt;Node3 -->
<g id="edge17" class="edge">
<title>Node15&#45;&gt;Node3</title>
<path fill="none" stroke="#191970" d="M553.7558,-280.2838C539.8275,-266.6982 513.0748,-241.7065 487.5,-224 470.0863,-211.9438 449.1798,-200.5932 432.4585,-192.1835"/>
<polygon fill="#191970" stroke="#191970" points="433.671,-188.8788 423.1549,-187.5887 430.5712,-195.1551 433.671,-188.8788"/>
</g>
<!-- Node16 -->
<g id="node17" class="node">
<title>Node16</title>
<g id="a_node17"><a xlink:href="../../d3/dcc/GPUTPCGMMergedTrackHit_8h.html" target="_top" xlink:title="GPUTPCGMMergedTrackHit.h">
<polygon fill="none" stroke="#000000" points="466,-112.5 466,-131.5 623,-131.5 623,-112.5 466,-112.5"/>
<text text-anchor="middle" x="544.5" y="-119.5" font-family="Helvetica,sans-Serif" font-size="10.00" fill="#000000">GPUTPCGMMergedTrackHit.h</text>
</a>
</g>
</g>
<!-- Node15&#45;&gt;Node16 -->
<g id="edge18" class="edge">
<title>Node15&#45;&gt;Node16</title>
<path fill="none" stroke="#191970" d="M562.424,-280.4862C559.4206,-253.9293 550.8972,-178.5651 546.7806,-142.1655"/>
<polygon fill="#191970" stroke="#191970" points="550.2132,-141.3712 545.6115,-131.8279 543.2575,-142.1579 550.2132,-141.3712"/>
</g>
<!-- Node15&#45;&gt;Node17 -->
<g id="edge20" class="edge">
<title>Node15&#45;&gt;Node17</title>
<path fill="none" stroke="#191970" d="M623.2695,-280.4369C684.9836,-270.5626 781.1153,-255.1815 845.6468,-244.8565"/>
<polygon fill="#191970" stroke="#191970" points="846.4008,-248.2805 855.7222,-243.2444 845.2948,-241.3684 846.4008,-248.2805"/>
</g>
<!-- Node20 -->
<g id="node21" class="node">
<title>Node20</title>
<g id="a_node21"><a xlink:href="../../d3/d1f/GPUdEdxInfo_8h.html" target="_top" xlink:title="GPUdEdxInfo.h">
<polygon fill="none" stroke="#000000" points="611,-224.5 611,-243.5 700,-243.5 700,-224.5 611,-224.5"/>
<text text-anchor="middle" x="655.5" y="-231.5" font-family="Helvetica,sans-Serif" font-size="10.00" fill="#000000">GPUdEdxInfo.h</text>
</a>
</g>
</g>
<!-- Node15&#45;&gt;Node20 -->
<g id="edge24" class="edge">
<title>Node15&#45;&gt;Node20</title>
<path fill="none" stroke="#191970" d="M579.5252,-280.2455C593.6408,-271.6534 614.4263,-259.0014 630.6899,-249.1018"/>
<polygon fill="#191970" stroke="#191970" points="632.9363,-251.8319 639.6585,-243.6427 629.2966,-245.8525 632.9363,-251.8319"/>
</g>
<!-- Node21 -->
<g id="node22" class="node">
<title>Node21</title>
<g id="a_node22"><a xlink:href="../../de/d4c/GPUTPCGMMergerTypes_8h.html" target="_top" xlink:title="GPUTPCGMMergerTypes.h">
<polygon fill="none" stroke="#000000" points="335,-224.5 335,-243.5 478,-243.5 478,-224.5 335,-224.5"/>
<text text-anchor="middle" x="406.5" y="-231.5" font-family="Helvetica,sans-Serif" font-size="10.00" fill="#000000">GPUTPCGMMergerTypes.h</text>
</a>
</g>
</g>
<!-- Node15&#45;&gt;Node21 -->
<g id="edge25" class="edge">
<title>Node15&#45;&gt;Node21</title>
<path fill="none" stroke="#191970" d="M536.5107,-280.3733C510.6301,-271.1419 471.3752,-257.1402 442.7711,-246.9375"/>
<polygon fill="#191970" stroke="#191970" points="443.7317,-243.5642 433.1371,-243.5011 441.38,-250.1573 443.7317,-243.5642"/>
</g>
<!-- Node22 -->
<g id="node23" class="node">
<title>Node22</title>
<polygon fill="none" stroke="#bfbfbf" points="642,-112.5 642,-131.5 695,-131.5 695,-112.5 642,-112.5"/>
<text text-anchor="middle" x="668.5" y="-119.5" font-family="Helvetica,sans-Serif" font-size="10.00" fill="#000000">cstddef</text>
</g>
<!-- Node15&#45;&gt;Node22 -->
<g id="edge27" class="edge">
<title>Node15&#45;&gt;Node22</title>
<path fill="none" stroke="#191970" d="M569.1907,-280.0851C576.6779,-267.107 590.3165,-243.6943 602.5,-224 620.7967,-194.4238 642.9041,-160.6323 656.323,-140.3252"/>
<polygon fill="#191970" stroke="#191970" points="659.3908,-142.0318 661.9951,-131.762 653.5549,-138.1662 659.3908,-142.0318"/>
</g>
<!-- Node16&#45;&gt;Node5 -->
<g id="edge19" class="edge">
<title>Node16&#45;&gt;Node5</title>
<path fill="none" stroke="#191970" d="M575.7869,-112.3733C606.1818,-103.021 652.4893,-88.7725 685.75,-78.5385"/>
<polygon fill="#191970" stroke="#191970" points="687.0929,-81.7873 695.6214,-75.5011 685.0342,-75.0968 687.0929,-81.7873"/>
</g>
<!-- Node17&#45;&gt;Node5 -->
<g id="edge21" class="edge">
<title>Node17&#45;&gt;Node5</title>
<path fill="none" stroke="#191970" d="M902.9103,-224.4862C872.3262,-197.0096 783.5868,-117.2866 744.8968,-82.5276"/>
<polygon fill="#191970" stroke="#191970" points="747.2173,-79.9074 737.4394,-75.8279 742.5392,-85.1146 747.2173,-79.9074"/>
</g>
<!-- Node18 -->
<g id="node19" class="node">
<title>Node18</title>
<polygon fill="none" stroke="#bfbfbf" points="954,-168.5 954,-187.5 1001,-187.5 1001,-168.5 954,-168.5"/>
<text text-anchor="middle" x="977.5" y="-175.5" font-family="Helvetica,sans-Serif" font-size="10.00" fill="#000000">cmath</text>
</g>
<!-- Node17&#45;&gt;Node18 -->
<g id="edge22" class="edge">
<title>Node17&#45;&gt;Node18</title>
<path fill="none" stroke="#191970" d="M924.6479,-224.2455C934.0087,-216.0549 947.5858,-204.1749 958.6349,-194.5069"/>
<polygon fill="#191970" stroke="#191970" points="961.2588,-196.8618 966.4798,-187.6427 956.6492,-191.5937 961.2588,-196.8618"/>
</g>
<!-- Node19 -->
<g id="node20" class="node">
<title>Node19</title>
<polygon fill="none" stroke="#bfbfbf" points="871.5,-168.5 871.5,-187.5 935.5,-187.5 935.5,-168.5 871.5,-168.5"/>
<text text-anchor="middle" x="903.5" y="-175.5" font-family="Helvetica,sans-Serif" font-size="10.00" fill="#000000">algorithm</text>
</g>
<!-- Node17&#45;&gt;Node19 -->
<g id="edge23" class="edge">
<title>Node17&#45;&gt;Node19</title>
<path fill="none" stroke="#191970" d="M911.7581,-224.2455C910.4533,-216.9382 908.624,-206.6944 907.0187,-197.7046"/>
<polygon fill="#191970" stroke="#191970" points="910.4254,-196.8717 905.2219,-187.6427 903.5344,-198.1022 910.4254,-196.8717"/>
</g>
<!-- Node21&#45;&gt;Node3 -->
<g id="edge26" class="edge">
<title>Node21&#45;&gt;Node3</title>
<path fill="none" stroke="#191970" d="M405.8033,-224.2455C405.2813,-216.9382 404.5496,-206.6944 403.9075,-197.7046"/>
<polygon fill="#191970" stroke="#191970" points="407.3924,-197.3679 403.1888,-187.6427 400.4102,-197.8667 407.3924,-197.3679"/>
</g>
<!-- Node23&#45;&gt;Node20 -->
<g id="edge35" class="edge">
<title>Node23&#45;&gt;Node20</title>
<path fill="none" stroke="#191970" d="M696.7907,-280.2455C689.6927,-272.2958 679.4916,-260.8706 671.005,-251.3656"/>
<polygon fill="#191970" stroke="#191970" points="673.3805,-248.771 664.1095,-243.6427 668.1589,-253.4331 673.3805,-248.771"/>
</g>
<!-- Node24 -->
<g id="node25" class="node">
<title>Node24</title>
<g id="a_node25"><a xlink:href="../../da/d28/GPUO2FakeClasses_8h.html" target="_top" xlink:title="GPUO2FakeClasses.h">
<polygon fill="none" stroke="#000000" points="717.5,-224.5 717.5,-243.5 837.5,-243.5 837.5,-224.5 717.5,-224.5"/>
<text text-anchor="middle" x="777.5" y="-231.5" font-family="Helvetica,sans-Serif" font-size="10.00" fill="#000000">GPUO2FakeClasses.h</text>
</a>
</g>
</g>
<!-- Node23&#45;&gt;Node24 -->
<g id="edge30" class="edge">
<title>Node23&#45;&gt;Node24</title>
<path fill="none" stroke="#191970" d="M718.0414,-280.2455C728.7787,-271.8943 744.4473,-259.7076 757.0047,-249.9408"/>
<polygon fill="#191970" stroke="#191970" points="759.3575,-252.5449 765.1023,-243.6427 755.0599,-247.0194 759.3575,-252.5449"/>
</g>
<!-- Node24&#45;&gt;Node5 -->
<g id="edge31" class="edge">
<title>Node24&#45;&gt;Node5</title>
<path fill="none" stroke="#191970" d="M774.7399,-224.1386C771.1055,-211.2183 764.4754,-187.8681 758.5,-168 749.8005,-139.0746 739.2289,-105.7022 732.6816,-85.2279"/>
<polygon fill="#191970" stroke="#191970" points="735.9614,-83.9934 729.5757,-75.5392 729.2955,-86.1304 735.9614,-83.9934"/>
</g>
<!-- Node25 -->
<g id="node26" class="node">
<title>Node25</title>
<g id="a_node26"><a xlink:href="../../d4/dc5/GPUDataTypes_8h.html" target="_top" xlink:title="GPUDataTypes.h">
<polygon fill="none" stroke="#000000" points="651.5,-168.5 651.5,-187.5 749.5,-187.5 749.5,-168.5 651.5,-168.5"/>
<text text-anchor="middle" x="700.5" y="-175.5" font-family="Helvetica,sans-Serif" font-size="10.00" fill="#000000">GPUDataTypes.h</text>
</a>
</g>
</g>
<!-- Node24&#45;&gt;Node25 -->
<g id="edge32" class="edge">
<title>Node24&#45;&gt;Node25</title>
<path fill="none" stroke="#191970" d="M764.0876,-224.2455C752.4943,-215.814 735.5252,-203.4729 722.0322,-193.6598"/>
<polygon fill="#191970" stroke="#191970" points="723.9047,-190.6938 713.7587,-187.6427 719.7874,-196.355 723.9047,-190.6938"/>
</g>
<!-- Node25&#45;&gt;Node5 -->
<g id="edge33" class="edge">
<title>Node25&#45;&gt;Node5</title>
<path fill="none" stroke="#191970" d="M702.7167,-168.4509C706.9765,-150.1013 716.3807,-109.5908 722.0035,-85.3693"/>
<polygon fill="#191970" stroke="#191970" points="725.4368,-86.0573 724.2889,-75.5249 718.6182,-84.4744 725.4368,-86.0573"/>
</g>
<!-- Node25&#45;&gt;Node22 -->
<g id="edge34" class="edge">
<title>Node25&#45;&gt;Node22</title>
<path fill="none" stroke="#191970" d="M694.926,-168.2455C690.5669,-160.617 684.3789,-149.7881 679.0867,-140.5267"/>
<polygon fill="#191970" stroke="#191970" points="682.0104,-138.5886 674.0101,-131.6427 675.9327,-142.0616 682.0104,-138.5886"/>
</g>
</g>
</svg>
        <g id="navigator" transform="translate(0 0)" fill="#404254">
                <rect fill="#f2f5e9" fill-opacity="0.5" stroke="#606060" stroke-width=".5" x="0" y="0" width="60" height="60"/>
                <use id="zoomplus" xlink:href="#zoomPlus" x="17" y="9" onmousedown="handleZoom(evt,'in')"/>
                <use id="zoomminus" xlink:href="#zoomMin" x="42" y="9" onmousedown="handleZoom(evt,'out')"/>
                <use id="reset" xlink:href="#resetDef" x="30" y="36" onmousedown="handleReset()"/>
                <g id="arrowUp" xlink:href="#dirArrow" transform="translate(30 24)" onmousedown="handlePan(0,-1)">
                  <use xlink:href="#rim" fill="#404040">
                        <set attributeName="fill" to="#808080" begin="arrowUp.mouseover" end="arrowUp.mouseout"/>
                  </use>
                  <path fill="none" stroke="white" stroke-width="1.5" d="M0,-3.0v7 M-2.5,-0.5L0,-3.0L2.5,-0.5"/>
                </g>
                <g id="arrowRight" xlink:href="#dirArrow" transform="rotate(90) translate(36 -43)" onmousedown="handlePan(1,0)">
                  <use xlink:href="#rim" fill="#404040">
                        <set attributeName="fill" to="#808080" begin="arrowRight.mouseover" end="arrowRight.mouseout"/>
                  </use>
                  <path fill="none" stroke="white" stroke-width="1.5" d="M0,-3.0v7 M-2.5,-0.5L0,-3.0L2.5,-0.5"/>
                </g>
                <g id="arrowDown" xlink:href="#dirArrow" transform="rotate(180) translate(-30 -48)" onmousedown="handlePan(0,1)">
                  <use xlink:href="#rim" fill="#404040">
                        <set attributeName="fill" to="#808080" begin="arrowDown.mouseover" end="arrowDown.mouseout"/>
                  </use>
                  <path fill="none" stroke="white" stroke-width="1.5" d="M0,-3.0v7 M-2.5,-0.5L0,-3.0L2.5,-0.5"/>
                </g>
                <g id="arrowLeft" xlink:href="#dirArrow" transform="rotate(270) translate(-36 17)" onmousedown="handlePan(-1,0)">
                  <use xlink:href="#rim" fill="#404040">
                        <set attributeName="fill" to="#808080" begin="arrowLeft.mouseover" end="arrowLeft.mouseout"/>
                  </use>
                  <path fill="none" stroke="white" stroke-width="1.5" d="M0,-3.0v7 M-2.5,-0.5L0,-3.0L2.5,-0.5"/>
                </g>
        </g>
        <svg viewBox="0 0 15 15" width="100%" height="30px" preserveAspectRatio="xMaxYMin meet">
         <g id="arrow_out" transform="scale(0.3 0.3)">
          <a xlink:href="GPUTPCGMSliceTrack_8h__incl_org.svg" target="_base">
           <rect id="button" ry="5" rx="5" y="6" x="6" height="38" width="38"
                fill="#f2f5e9" fill-opacity="0.5" stroke="#606060" stroke-width="1.0"/>
           <path id="arrow"
             d="M 11.500037,31.436501 C 11.940474,20.09759 22.043105,11.32322 32.158766,21.979434 L 37.068811,17.246167 C 37.068811,17.246167 37.088388,32 37.088388,32 L 22.160133,31.978069 C 22.160133,31.978069 26.997745,27.140456 26.997745,27.140456 C 18.528582,18.264221 13.291696,25.230495 11.500037,31.436501 z"
             style="fill:#404040;"/>
          </a>
         </g>
        </svg>
</svg>
