<?xml version="1.0" encoding="UTF-8" standalone="no"?>
<!DOCTYPE svg PUBLIC "-//W3C//DTD SVG 1.1//EN"
 "http://www.w3.org/Graphics/SVG/1.1/DTD/svg11.dtd">
<!-- Generated by graphviz version 2.40.1 (20161225.0304)
 -->
<!-- Title: /home/travis/build/AliceO2Group/AliceO2/Detectors/TPC/reconstruction/include/TPCReconstruction/TPCFastTransformHelperO2.h Pages: 1 -->
<svg width="901pt" height="464pt"
 viewBox="0.00 0.00 901.00 464.00" xmlns="http://www.w3.org/2000/svg" xmlns:xlink="http://www.w3.org/1999/xlink">
<g id="graph0" class="graph" transform="scale(1 1) rotate(0) translate(4 460)">
<title>/home/travis/build/AliceO2Group/AliceO2/Detectors/TPC/reconstruction/include/TPCReconstruction/TPCFastTransformHelperO2.h</title>
<!-- Node0 -->
<g id="node1" class="node">
<title>Node0</title>
<polygon fill="#bfbfbf" stroke="#000000" points="465.5,-392.5 465.5,-455.5 626.5,-455.5 626.5,-392.5 465.5,-392.5"/>
<text text-anchor="start" x="473.5" y="-443.5" font-family="Helvetica,sans-Serif" font-size="10.00" fill="#000000">/home/travis/build</text>
<text text-anchor="start" x="473.5" y="-432.5" font-family="Helvetica,sans-Serif" font-size="10.00" fill="#000000">/AliceO2Group/AliceO2</text>
<text text-anchor="start" x="473.5" y="-421.5" font-family="Helvetica,sans-Serif" font-size="10.00" fill="#000000">/Detectors/TPC/reconstruction</text>
<text text-anchor="start" x="473.5" y="-410.5" font-family="Helvetica,sans-Serif" font-size="10.00" fill="#000000">/include/TPCReconstruction</text>
<text text-anchor="middle" x="546" y="-399.5" font-family="Helvetica,sans-Serif" font-size="10.00" fill="#000000">/TPCFastTransformHelperO2.h</text>
</g>
<!-- Node1 -->
<g id="node2" class="node">
<title>Node1</title>
<g id="a_node2"><a xlink:href="../../d4/db1/TPCFastTransform_8h.html" target="_top" xlink:title="Definition of TPCFastTransform class. ">
<polygon fill="none" stroke="#000000" points="249.5,-336.5 249.5,-355.5 362.5,-355.5 362.5,-336.5 249.5,-336.5"/>
<text text-anchor="middle" x="306" y="-343.5" font-family="Helvetica,sans-Serif" font-size="10.00" fill="#000000">TPCFastTransform.h</text>
</a>
</g>
</g>
<!-- Node0&#45;&gt;Node1 -->
<g id="edge1" class="edge">
<title>Node0&#45;&gt;Node1</title>
<path fill="none" stroke="#191970" d="M465.4158,-397.8101C424.8139,-384.6145 377.4395,-369.2178 344.9491,-358.6585"/>
<polygon fill="#191970" stroke="#191970" points="345.9599,-355.3068 335.3677,-355.5445 343.7962,-361.9641 345.9599,-355.3068"/>
</g>
<!-- Node12 -->
<g id="node13" class="node">
<title>Node12</title>
<polygon fill="none" stroke="#bfbfbf" points="817.5,-.5 817.5,-19.5 876.5,-19.5 876.5,-.5 817.5,-.5"/>
<text text-anchor="middle" x="847" y="-7.5" font-family="Helvetica,sans-Serif" font-size="10.00" fill="#000000">Rtypes.h</text>
</g>
<!-- Node0&#45;&gt;Node12 -->
<g id="edge35" class="edge">
<title>Node0&#45;&gt;Node12</title>
<path fill="none" stroke="#191970" d="M626.9181,-409.4817C729.4539,-388.7349 893,-346.7487 893,-290 893,-290 893,-290 893,-122 893,-86.66 873.1609,-49.4332 859.5403,-28.0395"/>
<polygon fill="#191970" stroke="#191970" points="862.4212,-26.0507 853.9864,-19.6394 856.5821,-29.9114 862.4212,-26.0507"/>
</g>
<!-- Node20 -->
<g id="node21" class="node">
<title>Node20</title>
<polygon fill="none" stroke="#bfbfbf" points="509.5,-112.5 509.5,-131.5 574.5,-131.5 574.5,-112.5 509.5,-112.5"/>
<text text-anchor="middle" x="542" y="-119.5" font-family="Helvetica,sans-Serif" font-size="10.00" fill="#000000">functional</text>
</g>
<!-- Node0&#45;&gt;Node20 -->
<g id="edge36" class="edge">
<title>Node0&#45;&gt;Node20</title>
<path fill="none" stroke="#191970" d="M546,-392.3228C546,-365.1701 546,-325.0122 546,-290 546,-290 546,-290 546,-234 546,-201.691 544.317,-164.1727 543.1344,-141.7971"/>
<polygon fill="#191970" stroke="#191970" points="546.6167,-141.3771 542.5731,-131.5843 539.6272,-141.7613 546.6167,-141.3771"/>
</g>
<!-- Node2 -->
<g id="node3" class="node">
<title>Node2</title>
<g id="a_node3"><a xlink:href="../../db/dff/FlatObject_8h.html" target="_top" xlink:title="Definition of FlatObject class. ">
<polygon fill="none" stroke="#000000" points="414.5,-112.5 414.5,-131.5 489.5,-131.5 489.5,-112.5 414.5,-112.5"/>
<text text-anchor="middle" x="452" y="-119.5" font-family="Helvetica,sans-Serif" font-size="10.00" fill="#000000">FlatObject.h</text>
</a>
</g>
</g>
<!-- Node1&#45;&gt;Node2 -->
<g id="edge2" class="edge">
<title>Node1&#45;&gt;Node2</title>
<path fill="none" stroke="#191970" d="M362.9,-337.2516C404.2513,-329.5957 455.1335,-317.0286 468,-300 503.9211,-252.459 476.9445,-176.0756 461.2232,-140.8769"/>
<polygon fill="#191970" stroke="#191970" points="464.3576,-139.3167 456.9678,-131.7246 458.0102,-142.268 464.3576,-139.3167"/>
</g>
<!-- Node16 -->
<g id="node17" class="node">
<title>Node16</title>
<g id="a_node17"><a xlink:href="../../d5/dde/TPCFastTransformGeo_8h.html" target="_top" xlink:title="Definition of TPCFastTransformGeo class. ">
<polygon fill="none" stroke="#000000" points="108,-168.5 108,-187.5 240,-187.5 240,-168.5 108,-168.5"/>
<text text-anchor="middle" x="174" y="-175.5" font-family="Helvetica,sans-Serif" font-size="10.00" fill="#000000">TPCFastTransformGeo.h</text>
</a>
</g>
</g>
<!-- Node1&#45;&gt;Node16 -->
<g id="edge16" class="edge">
<title>Node1&#45;&gt;Node16</title>
<path fill="none" stroke="#191970" d="M269.0301,-336.3425C248.9634,-329.3297 225.2181,-317.8691 210,-300 184.9301,-270.5628 177.3129,-224.3232 175.0023,-198.0352"/>
<polygon fill="#191970" stroke="#191970" points="178.4753,-197.5259 174.2858,-187.7946 171.4924,-198.0145 178.4753,-197.5259"/>
</g>
<!-- Node17 -->
<g id="node18" class="node">
<title>Node17</title>
<g id="a_node18"><a xlink:href="../../d8/d93/TPCFastSpaceChargeCorrection_8h.html" target="_top" xlink:title="Definition of TPCFastSpaceChargeCorrection class. ">
<polygon fill="none" stroke="#000000" points="281,-280.5 281,-299.5 459,-299.5 459,-280.5 281,-280.5"/>
<text text-anchor="middle" x="370" y="-287.5" font-family="Helvetica,sans-Serif" font-size="10.00" fill="#000000">TPCFastSpaceChargeCorrection.h</text>
</a>
</g>
</g>
<!-- Node1&#45;&gt;Node17 -->
<g id="edge19" class="edge">
<title>Node1&#45;&gt;Node17</title>
<path fill="none" stroke="#191970" d="M317.1479,-336.2455C326.5087,-328.0549 340.0858,-316.1749 351.1349,-306.5069"/>
<polygon fill="#191970" stroke="#191970" points="353.7588,-308.8618 358.9798,-299.6427 349.1492,-303.5937 353.7588,-308.8618"/>
</g>
<!-- Node21 -->
<g id="node22" class="node">
<title>Node21</title>
<g id="a_node22"><a xlink:href="../../d6/da2/GPUCommonMath_8h.html" target="_top" xlink:title="GPUCommonMath.h">
<polygon fill="none" stroke="#000000" points="23.5,-280.5 23.5,-299.5 138.5,-299.5 138.5,-280.5 23.5,-280.5"/>
<text text-anchor="middle" x="81" y="-287.5" font-family="Helvetica,sans-Serif" font-size="10.00" fill="#000000">GPUCommonMath.h</text>
</a>
</g>
</g>
<!-- Node1&#45;&gt;Node21 -->
<g id="edge30" class="edge">
<title>Node1&#45;&gt;Node21</title>
<path fill="none" stroke="#191970" d="M267.5768,-336.4369C229.3125,-326.9133 170.4663,-312.2672 129.1151,-301.9753"/>
<polygon fill="#191970" stroke="#191970" points="129.8141,-298.5426 119.2647,-299.5237 128.1234,-305.3353 129.8141,-298.5426"/>
</g>
<!-- Node24 -->
<g id="node25" class="node">
<title>Node24</title>
<polygon fill="none" stroke="#bfbfbf" points="219,-280.5 219,-299.5 263,-299.5 263,-280.5 219,-280.5"/>
<text text-anchor="middle" x="241" y="-287.5" font-family="Helvetica,sans-Serif" font-size="10.00" fill="#000000">string</text>
</g>
<!-- Node1&#45;&gt;Node24 -->
<g id="edge34" class="edge">
<title>Node1&#45;&gt;Node24</title>
<path fill="none" stroke="#191970" d="M294.6779,-336.2455C285.0777,-327.9746 271.1108,-315.9416 259.8305,-306.2232"/>
<polygon fill="#191970" stroke="#191970" points="262.053,-303.5182 252.1924,-299.6427 257.484,-308.8214 262.053,-303.5182"/>
</g>
<!-- Node3 -->
<g id="node4" class="node">
<title>Node3</title>
<polygon fill="none" stroke="#bfbfbf" points="529.5,-56.5 529.5,-75.5 582.5,-75.5 582.5,-56.5 529.5,-56.5"/>
<text text-anchor="middle" x="556" y="-63.5" font-family="Helvetica,sans-Serif" font-size="10.00" fill="#000000">cstddef</text>
</g>
<!-- Node2&#45;&gt;Node3 -->
<g id="edge3" class="edge">
<title>Node2&#45;&gt;Node3</title>
<path fill="none" stroke="#191970" d="M470.1154,-112.2455C486.445,-103.4527 510.671,-90.4079 529.2339,-80.4125"/>
<polygon fill="#191970" stroke="#191970" points="530.9468,-83.4654 538.0922,-75.6427 527.6281,-77.3021 530.9468,-83.4654"/>
</g>
<!-- Node4 -->
<g id="node5" class="node">
<title>Node4</title>
<polygon fill="none" stroke="#bfbfbf" points="246,-56.5 246,-75.5 304,-75.5 304,-56.5 246,-56.5"/>
<text text-anchor="middle" x="275" y="-63.5" font-family="Helvetica,sans-Serif" font-size="10.00" fill="#000000">memory</text>
</g>
<!-- Node2&#45;&gt;Node4 -->
<g id="edge4" class="edge">
<title>Node2&#45;&gt;Node4</title>
<path fill="none" stroke="#191970" d="M421.5726,-112.3733C391.7441,-102.936 346.1573,-88.5131 313.7515,-78.2604"/>
<polygon fill="#191970" stroke="#191970" points="314.7397,-74.9021 304.1497,-75.2225 312.6281,-81.576 314.7397,-74.9021"/>
</g>
<!-- Node5 -->
<g id="node6" class="node">
<title>Node5</title>
<polygon fill="none" stroke="#bfbfbf" points="601,-56.5 601,-75.5 651,-75.5 651,-56.5 601,-56.5"/>
<text text-anchor="middle" x="626" y="-63.5" font-family="Helvetica,sans-Serif" font-size="10.00" fill="#000000">cstring</text>
</g>
<!-- Node2&#45;&gt;Node5 -->
<g id="edge5" class="edge">
<title>Node2&#45;&gt;Node5</title>
<path fill="none" stroke="#191970" d="M481.9117,-112.3733C512.2481,-102.6098 559.1648,-87.5102 591.1607,-77.2127"/>
<polygon fill="#191970" stroke="#191970" points="592.5378,-80.4463 600.9847,-74.0509 590.3932,-73.7829 592.5378,-80.4463"/>
</g>
<!-- Node6 -->
<g id="node7" class="node">
<title>Node6</title>
<polygon fill="none" stroke="#bfbfbf" points="669,-56.5 669,-75.5 721,-75.5 721,-56.5 669,-56.5"/>
<text text-anchor="middle" x="695" y="-63.5" font-family="Helvetica,sans-Serif" font-size="10.00" fill="#000000">cassert</text>
</g>
<!-- Node2&#45;&gt;Node6 -->
<g id="edge6" class="edge">
<title>Node2&#45;&gt;Node6</title>
<path fill="none" stroke="#191970" d="M489.7036,-113.9492C536.7212,-103.8636 615.3678,-86.8316 658.9116,-76.1474"/>
<polygon fill="#191970" stroke="#191970" points="659.8205,-79.528 668.673,-73.707 658.1227,-72.737 659.8205,-79.528"/>
</g>
<!-- Node7 -->
<g id="node8" class="node">
<title>Node7</title>
<polygon fill="none" stroke="#bfbfbf" points="322,-56.5 322,-75.5 370,-75.5 370,-56.5 322,-56.5"/>
<text text-anchor="middle" x="346" y="-63.5" font-family="Helvetica,sans-Serif" font-size="10.00" fill="#000000">TFile.h</text>
</g>
<!-- Node2&#45;&gt;Node7 -->
<g id="edge7" class="edge">
<title>Node2&#45;&gt;Node7</title>
<path fill="none" stroke="#191970" d="M433.5362,-112.2455C416.8926,-103.4527 392.2007,-90.4079 373.2808,-80.4125"/>
<polygon fill="#191970" stroke="#191970" points="374.7291,-77.2193 364.2522,-75.6427 371.4592,-83.4086 374.7291,-77.2193"/>
</g>
<!-- Node8 -->
<g id="node9" class="node">
<title>Node8</title>
<g id="a_node9"><a xlink:href="../../df/d21/GPUCommonDef_8h.html" target="_top" xlink:title="GPUCommonDef.h">
<polygon fill="none" stroke="#000000" points="120.5,-56.5 120.5,-75.5 227.5,-75.5 227.5,-56.5 120.5,-56.5"/>
<text text-anchor="middle" x="174" y="-63.5" font-family="Helvetica,sans-Serif" font-size="10.00" fill="#000000">GPUCommonDef.h</text>
</a>
</g>
</g>
<!-- Node2&#45;&gt;Node8 -->
<g id="edge8" class="edge">
<title>Node2&#45;&gt;Node8</title>
<path fill="none" stroke="#191970" d="M414.2184,-114.3893C367.1196,-104.9018 286.1573,-88.5928 231.3813,-77.5588"/>
<polygon fill="#191970" stroke="#191970" points="231.9664,-74.1065 221.4722,-75.5627 230.5841,-80.9686 231.9664,-74.1065"/>
</g>
<!-- Node11 -->
<g id="node12" class="node">
<title>Node11</title>
<g id="a_node12"><a xlink:href="../../d2/d45/GPUCommonRtypes_8h.html" target="_top" xlink:title="GPUCommonRtypes.h">
<polygon fill="none" stroke="#000000" points="739.5,-56.5 739.5,-75.5 864.5,-75.5 864.5,-56.5 739.5,-56.5"/>
<text text-anchor="middle" x="802" y="-63.5" font-family="Helvetica,sans-Serif" font-size="10.00" fill="#000000">GPUCommonRtypes.h</text>
</a>
</g>
</g>
<!-- Node2&#45;&gt;Node11 -->
<g id="edge11" class="edge">
<title>Node2&#45;&gt;Node11</title>
<path fill="none" stroke="#191970" d="M489.6839,-114.1129C493.5015,-113.3729 497.3246,-112.6555 501,-112 543.4975,-104.421 654.2772,-87.7904 728.9198,-76.742"/>
<polygon fill="#191970" stroke="#191970" points="729.8211,-80.1469 739.2015,-75.2216 728.797,-73.2222 729.8211,-80.1469"/>
</g>
<!-- Node13 -->
<g id="node14" class="node">
<title>Node13</title>
<g id="a_node14"><a xlink:href="../../df/d5b/GPUCommonLogger_8h.html" target="_top" xlink:title="GPUCommonLogger.h">
<polygon fill="none" stroke="#000000" points="388.5,-56.5 388.5,-75.5 511.5,-75.5 511.5,-56.5 388.5,-56.5"/>
<text text-anchor="middle" x="450" y="-63.5" font-family="Helvetica,sans-Serif" font-size="10.00" fill="#000000">GPUCommonLogger.h</text>
</a>
</g>
</g>
<!-- Node2&#45;&gt;Node13 -->
<g id="edge13" class="edge">
<title>Node2&#45;&gt;Node13</title>
<path fill="none" stroke="#191970" d="M451.6516,-112.2455C451.3907,-104.9382 451.0248,-94.6944 450.7037,-85.7046"/>
<polygon fill="#191970" stroke="#191970" points="454.1992,-85.5113 450.3444,-75.6427 447.2036,-85.7613 454.1992,-85.5113"/>
</g>
<!-- Node9 -->
<g id="node10" class="node">
<title>Node9</title>
<g id="a_node10"><a xlink:href="../../d5/d93/GPUCommonDefSettings_8h.html" target="_top" xlink:title="GPUCommonDefSettings.h">
<polygon fill="none" stroke="#000000" points="142,-.5 142,-19.5 290,-19.5 290,-.5 142,-.5"/>
<text text-anchor="middle" x="216" y="-7.5" font-family="Helvetica,sans-Serif" font-size="10.00" fill="#000000">GPUCommonDefSettings.h</text>
</a>
</g>
</g>
<!-- Node8&#45;&gt;Node9 -->
<g id="edge9" class="edge">
<title>Node8&#45;&gt;Node9</title>
<path fill="none" stroke="#191970" d="M181.3158,-56.2455C187.2179,-48.3761 195.6742,-37.101 202.7594,-27.6542"/>
<polygon fill="#191970" stroke="#191970" points="205.568,-29.7427 208.768,-19.6427 199.9679,-25.5427 205.568,-29.7427"/>
</g>
<!-- Node10 -->
<g id="node11" class="node">
<title>Node10</title>
<g id="a_node11"><a xlink:href="../../da/d5a/GPUCommonDefAPI_8h.html" target="_top" xlink:title="GPUCommonDefAPI.h">
<polygon fill="none" stroke="#000000" points="0,-.5 0,-19.5 124,-19.5 124,-.5 0,-.5"/>
<text text-anchor="middle" x="62" y="-7.5" font-family="Helvetica,sans-Serif" font-size="10.00" fill="#000000">GPUCommonDefAPI.h</text>
</a>
</g>
</g>
<!-- Node8&#45;&gt;Node10 -->
<g id="edge10" class="edge">
<title>Node8&#45;&gt;Node10</title>
<path fill="none" stroke="#191970" d="M154.7465,-56.3733C136.9288,-47.4644 110.2253,-34.1127 90.0406,-24.0203"/>
<polygon fill="#191970" stroke="#191970" points="91.5118,-20.8428 81.0022,-19.5011 88.3813,-27.1038 91.5118,-20.8428"/>
</g>
<!-- Node11&#45;&gt;Node12 -->
<g id="edge12" class="edge">
<title>Node11&#45;&gt;Node12</title>
<path fill="none" stroke="#191970" d="M809.8384,-56.2455C816.162,-48.3761 825.2224,-37.101 832.8136,-27.6542"/>
<polygon fill="#191970" stroke="#191970" points="835.7158,-29.6302 839.2514,-19.6427 830.2592,-25.2454 835.7158,-29.6302"/>
</g>
<!-- Node14 -->
<g id="node15" class="node">
<title>Node14</title>
<polygon fill="none" stroke="#bfbfbf" points="385,-.5 385,-19.5 445,-19.5 445,-.5 385,-.5"/>
<text text-anchor="middle" x="415" y="-7.5" font-family="Helvetica,sans-Serif" font-size="10.00" fill="#000000">iostream</text>
</g>
<!-- Node13&#45;&gt;Node14 -->
<g id="edge14" class="edge">
<title>Node13&#45;&gt;Node14</title>
<path fill="none" stroke="#191970" d="M443.9035,-56.2455C439.0855,-48.5367 432.2249,-37.5598 426.3968,-28.2348"/>
<polygon fill="#191970" stroke="#191970" points="429.2947,-26.2677 421.0267,-19.6427 423.3587,-29.9777 429.2947,-26.2677"/>
</g>
<!-- Node15 -->
<g id="node16" class="node">
<title>Node15</title>
<polygon fill="none" stroke="#bfbfbf" points="463,-.5 463,-19.5 509,-19.5 509,-.5 463,-.5"/>
<text text-anchor="middle" x="486" y="-7.5" font-family="Helvetica,sans-Serif" font-size="10.00" fill="#000000">cstdio</text>
</g>
<!-- Node13&#45;&gt;Node15 -->
<g id="edge15" class="edge">
<title>Node13&#45;&gt;Node15</title>
<path fill="none" stroke="#191970" d="M456.2707,-56.2455C461.2264,-48.5367 468.283,-37.5598 474.2776,-28.2348"/>
<polygon fill="#191970" stroke="#191970" points="477.3376,-29.9471 479.8011,-19.6427 471.4494,-26.1618 477.3376,-29.9471"/>
</g>
<!-- Node16&#45;&gt;Node4 -->
<g id="edge18" class="edge">
<title>Node16&#45;&gt;Node4</title>
<path fill="none" stroke="#191970" d="M182.6112,-168.4509C199.6804,-149.5227 238.0141,-107.014 259.5543,-83.1279"/>
<polygon fill="#191970" stroke="#191970" points="262.3128,-85.2952 266.4106,-75.5249 257.1144,-80.6073 262.3128,-85.2952"/>
</g>
<!-- Node16&#45;&gt;Node8 -->
<g id="edge17" class="edge">
<title>Node16&#45;&gt;Node8</title>
<path fill="none" stroke="#191970" d="M174,-168.4509C174,-150.184 174,-109.9553 174,-85.6976"/>
<polygon fill="#191970" stroke="#191970" points="177.5001,-85.5249 174,-75.5249 170.5001,-85.5249 177.5001,-85.5249"/>
</g>
<!-- Node17&#45;&gt;Node2 -->
<g id="edge28" class="edge">
<title>Node17&#45;&gt;Node2</title>
<path fill="none" stroke="#191970" d="M381.2423,-280.4181C390.8144,-271.7453 404.3521,-258.1889 413,-244 433.0714,-211.0682 443.8472,-166.7612 448.7101,-141.6076"/>
<polygon fill="#191970" stroke="#191970" points="452.201,-141.9719 450.5405,-131.508 445.3132,-140.7236 452.201,-141.9719"/>
</g>
<!-- Node17&#45;&gt;Node8 -->
<g id="edge29" class="edge">
<title>Node17&#45;&gt;Node8</title>
<path fill="none" stroke="#191970" d="M360.3956,-280.281C351.3706,-271.0733 337.5606,-256.7894 326,-244 274.1912,-186.6843 215.4985,-116.3236 188.7229,-83.9077"/>
<polygon fill="#191970" stroke="#191970" points="191.1113,-81.3027 182.0494,-75.8134 185.7103,-85.7557 191.1113,-81.3027"/>
</g>
<!-- Node17&#45;&gt;Node16 -->
<g id="edge27" class="edge">
<title>Node17&#45;&gt;Node16</title>
<path fill="none" stroke="#191970" d="M338.2413,-280.4027C314.2047,-272.4406 280.859,-259.8696 254,-244 230.2388,-229.9606 206.2512,-209.0721 190.827,-194.5695"/>
<polygon fill="#191970" stroke="#191970" points="193.2315,-192.0261 183.5882,-187.6378 188.3902,-197.082 193.2315,-192.0261"/>
</g>
<!-- Node18 -->
<g id="node19" class="node">
<title>Node18</title>
<g id="a_node19"><a xlink:href="../../dd/d27/Spline2D_8h.html" target="_top" xlink:title="Definition of Spline2D class. ">
<polygon fill="none" stroke="#000000" points="335.5,-224.5 335.5,-243.5 404.5,-243.5 404.5,-224.5 335.5,-224.5"/>
<text text-anchor="middle" x="370" y="-231.5" font-family="Helvetica,sans-Serif" font-size="10.00" fill="#000000">Spline2D.h</text>
</a>
</g>
</g>
<!-- Node17&#45;&gt;Node18 -->
<g id="edge20" class="edge">
<title>Node17&#45;&gt;Node18</title>
<path fill="none" stroke="#191970" d="M370,-280.2455C370,-272.9382 370,-262.6944 370,-253.7046"/>
<polygon fill="#191970" stroke="#191970" points="373.5001,-253.6426 370,-243.6427 366.5001,-253.6427 373.5001,-253.6426"/>
</g>
<!-- Node18&#45;&gt;Node2 -->
<g id="edge25" class="edge">
<title>Node18&#45;&gt;Node2</title>
<path fill="none" stroke="#191970" d="M379.9375,-224.2618C388.85,-215.2718 402.0221,-201.3339 412,-188 423.3689,-172.8072 434.401,-154.2248 441.9893,-140.653"/>
<polygon fill="#191970" stroke="#191970" points="445.1181,-142.2266 446.8618,-131.7763 438.9818,-138.8583 445.1181,-142.2266"/>
</g>
<!-- Node18&#45;&gt;Node8 -->
<g id="edge26" class="edge">
<title>Node18&#45;&gt;Node8</title>
<path fill="none" stroke="#191970" d="M359.1851,-224.4609C349.5231,-215.605 335.3387,-201.752 325,-188 301.6788,-156.9792 310.9383,-137.8601 282,-112 264.9576,-96.7704 242.1203,-86.0563 221.8361,-78.8242"/>
<polygon fill="#191970" stroke="#191970" points="222.7142,-75.4268 212.1201,-75.5491 220.4782,-82.0601 222.7142,-75.4268"/>
</g>
<!-- Node19 -->
<g id="node20" class="node">
<title>Node19</title>
<g id="a_node20"><a xlink:href="../../de/da6/Spline1D_8h.html" target="_top" xlink:title="Definition of Spline1D class. ">
<polygon fill="none" stroke="#000000" points="334.5,-168.5 334.5,-187.5 403.5,-187.5 403.5,-168.5 334.5,-168.5"/>
<text text-anchor="middle" x="369" y="-175.5" font-family="Helvetica,sans-Serif" font-size="10.00" fill="#000000">Spline1D.h</text>
</a>
</g>
</g>
<!-- Node18&#45;&gt;Node19 -->
<g id="edge21" class="edge">
<title>Node18&#45;&gt;Node19</title>
<path fill="none" stroke="#191970" d="M369.8258,-224.2455C369.6953,-216.9382 369.5124,-206.6944 369.3519,-197.7046"/>
<polygon fill="#191970" stroke="#191970" points="372.8503,-197.5786 369.1722,-187.6427 365.8514,-197.7036 372.8503,-197.5786"/>
</g>
<!-- Node19&#45;&gt;Node2 -->
<g id="edge23" class="edge">
<title>Node19&#45;&gt;Node2</title>
<path fill="none" stroke="#191970" d="M383.4575,-168.2455C396.0732,-159.7337 414.5944,-147.2375 429.2045,-137.3801"/>
<polygon fill="#191970" stroke="#191970" points="431.3761,-140.1371 437.7082,-131.6427 427.4609,-134.3343 431.3761,-140.1371"/>
</g>
<!-- Node19&#45;&gt;Node8 -->
<g id="edge22" class="edge">
<title>Node19&#45;&gt;Node8</title>
<path fill="none" stroke="#191970" d="M364.388,-168.42C356.9986,-154.0672 341.1588,-127.0637 320,-112 295.7053,-94.7037 264.6554,-83.7321 237.441,-76.8639"/>
<polygon fill="#191970" stroke="#191970" points="238.1473,-73.4342 227.6077,-74.515 236.5209,-80.2426 238.1473,-73.4342"/>
</g>
<!-- Node19&#45;&gt;Node20 -->
<g id="edge24" class="edge">
<title>Node19&#45;&gt;Node20</title>
<path fill="none" stroke="#191970" d="M398.7398,-168.3733C427.507,-159.0613 471.27,-144.8953 502.8556,-134.671"/>
<polygon fill="#191970" stroke="#191970" points="504.2122,-137.9107 512.6483,-131.5011 502.0564,-131.251 504.2122,-137.9107"/>
</g>
<!-- Node21&#45;&gt;Node8 -->
<g id="edge31" class="edge">
<title>Node21&#45;&gt;Node8</title>
<path fill="none" stroke="#191970" d="M61.79,-280.4505C48.4734,-272.663 31.7875,-260.2917 24,-244 20.1665,-235.9802 20.7053,-232.2557 24,-224 49.7191,-159.5544 115.6072,-106.3354 150.8853,-81.3479"/>
<polygon fill="#191970" stroke="#191970" points="152.9299,-84.1893 159.1517,-75.6137 148.9401,-78.4376 152.9299,-84.1893"/>
</g>
<!-- Node22 -->
<g id="node23" class="node">
<title>Node22</title>
<polygon fill="none" stroke="#bfbfbf" points="33.5,-224.5 33.5,-243.5 80.5,-243.5 80.5,-224.5 33.5,-224.5"/>
<text text-anchor="middle" x="57" y="-231.5" font-family="Helvetica,sans-Serif" font-size="10.00" fill="#000000">cmath</text>
</g>
<!-- Node21&#45;&gt;Node22 -->
<g id="edge32" class="edge">
<title>Node21&#45;&gt;Node22</title>
<path fill="none" stroke="#191970" d="M76.8195,-280.2455C73.619,-272.7776 69.104,-262.2427 65.1916,-253.1137"/>
<polygon fill="#191970" stroke="#191970" points="68.2888,-251.4554 61.1326,-243.6427 61.8548,-254.2129 68.2888,-251.4554"/>
</g>
<!-- Node23 -->
<g id="node24" class="node">
<title>Node23</title>
<polygon fill="none" stroke="#bfbfbf" points="99,-224.5 99,-243.5 163,-243.5 163,-224.5 99,-224.5"/>
<text text-anchor="middle" x="131" y="-231.5" font-family="Helvetica,sans-Serif" font-size="10.00" fill="#000000">algorithm</text>
</g>
<!-- Node21&#45;&gt;Node23 -->
<g id="edge33" class="edge">
<title>Node21&#45;&gt;Node23</title>
<path fill="none" stroke="#191970" d="M89.7093,-280.2455C96.8073,-272.2958 107.0084,-260.8706 115.495,-251.3656"/>
<polygon fill="#191970" stroke="#191970" points="118.3411,-253.4331 122.3905,-243.6427 113.1195,-248.771 118.3411,-253.4331"/>
</g>
</g>
</svg>
