<?xml version="1.0" encoding="UTF-8" standalone="no"?>
<!DOCTYPE svg PUBLIC "-//W3C//DTD SVG 1.1//EN"
 "http://www.w3.org/Graphics/SVG/1.1/DTD/svg11.dtd">
<!-- Generated by graphviz version 2.40.1 (20161225.0304)
 -->
<!-- Title: /home/travis/build/AliceO2Group/AliceO2/Detectors/TOF/reconstruction/src/DecoderBase.cxx Pages: 1 -->
<svg width="1578pt" height="329pt"
 viewBox="0.00 0.00 1578.46 329.00" xmlns="http://www.w3.org/2000/svg" xmlns:xlink="http://www.w3.org/1999/xlink">
<g id="graph0" class="graph" transform="scale(1 1) rotate(0) translate(4 325)">
<title>/home/travis/build/AliceO2Group/AliceO2/Detectors/TOF/reconstruction/src/DecoderBase.cxx</title>
<!-- Node0 -->
<g id="node1" class="node">
<title>Node0</title>
<polygon fill="#bfbfbf" stroke="#000000" points="1054.961,-268.5 1054.961,-320.5 1215.961,-320.5 1215.961,-268.5 1054.961,-268.5"/>
<text text-anchor="start" x="1062.961" y="-308.5" font-family="Helvetica,sans-Serif" font-size="10.00" fill="#000000">/home/travis/build</text>
<text text-anchor="start" x="1062.961" y="-297.5" font-family="Helvetica,sans-Serif" font-size="10.00" fill="#000000">/AliceO2Group/AliceO2</text>
<text text-anchor="start" x="1062.961" y="-286.5" font-family="Helvetica,sans-Serif" font-size="10.00" fill="#000000">/Detectors/TOF/reconstruction</text>
<text text-anchor="middle" x="1135.461" y="-275.5" font-family="Helvetica,sans-Serif" font-size="10.00" fill="#000000">/src/DecoderBase.cxx</text>
</g>
<!-- Node1 -->
<g id="node2" class="node">
<title>Node1</title>
<g id="a_node2"><a xlink:href="../../d9/d06/DecoderBase_8h.html" target="_top" xlink:title="TOFReconstruction/Decoder\lBase.h">
<polygon fill="none" stroke="#000000" points="210.961,-201.5 210.961,-231.5 361.961,-231.5 361.961,-201.5 210.961,-201.5"/>
<text text-anchor="start" x="218.961" y="-219.5" font-family="Helvetica,sans-Serif" font-size="10.00" fill="#000000">TOFReconstruction/Decoder</text>
<text text-anchor="middle" x="286.461" y="-208.5" font-family="Helvetica,sans-Serif" font-size="10.00" fill="#000000">Base.h</text>
</a>
</g>
</g>
<!-- Node0&#45;&gt;Node1 -->
<g id="edge1" class="edge">
<title>Node0&#45;&gt;Node1</title>
<path fill="none" stroke="#191970" d="M1054.8238,-287.0916C894.3761,-272.3509 536.4544,-239.4676 372.041,-224.3625"/>
<polygon fill="#191970" stroke="#191970" points="372.2503,-220.867 361.972,-223.4374 371.6099,-227.8377 372.2503,-220.867"/>
</g>
<!-- Node8 -->
<g id="node9" class="node">
<title>Node8</title>
<g id="a_node9"><a xlink:href="../../d1/dec/HBFUtils_8h.html" target="_top" xlink:title="DetectorsRaw/HBFUtils.h">
<polygon fill="none" stroke="#000000" points="1065.961,-207 1065.961,-226 1204.961,-226 1204.961,-207 1065.961,-207"/>
<text text-anchor="middle" x="1135.461" y="-214" font-family="Helvetica,sans-Serif" font-size="10.00" fill="#000000">DetectorsRaw/HBFUtils.h</text>
</a>
</g>
</g>
<!-- Node0&#45;&gt;Node8 -->
<g id="edge10" class="edge">
<title>Node0&#45;&gt;Node8</title>
<path fill="none" stroke="#191970" d="M1135.461,-268.0928C1135.461,-257.6735 1135.461,-245.911 1135.461,-236.2512"/>
<polygon fill="#191970" stroke="#191970" points="1138.9611,-236.0838 1135.461,-226.0839 1131.9611,-236.0839 1138.9611,-236.0838"/>
</g>
<!-- Node15 -->
<g id="node16" class="node">
<title>Node15</title>
<polygon fill="none" stroke="#bfbfbf" points="1435.461,-6 1435.461,-25 1495.461,-25 1495.461,-6 1435.461,-6"/>
<text text-anchor="middle" x="1465.461" y="-13" font-family="Helvetica,sans-Serif" font-size="10.00" fill="#000000">iostream</text>
</g>
<!-- Node0&#45;&gt;Node15 -->
<g id="edge43" class="edge">
<title>Node0&#45;&gt;Node15</title>
<path fill="none" stroke="#191970" d="M1208.6546,-268.4404C1266.2506,-245.9859 1346.947,-210.0937 1409.461,-165 1442.8589,-140.9089 1458.1387,-136.2234 1473.461,-98 1481.6305,-77.6203 1477.22,-52.2274 1472.3231,-35.0365"/>
<polygon fill="#191970" stroke="#191970" points="1475.519,-33.5352 1469.1622,-25.0592 1468.8459,-35.6493 1475.519,-33.5352"/>
</g>
<!-- Node25 -->
<g id="node26" class="node">
<title>Node25</title>
<g id="a_node26"><a xlink:href="../../d6/dec/Raw_2include_2DetectorsRaw_2RDHUtils_8h.html" target="_top" xlink:title="DetectorsRaw/RDHUtils.h">
<polygon fill="none" stroke="#000000" points="856.961,-207 856.961,-226 997.961,-226 997.961,-207 856.961,-207"/>
<text text-anchor="middle" x="927.461" y="-214" font-family="Helvetica,sans-Serif" font-size="10.00" fill="#000000">DetectorsRaw/RDHUtils.h</text>
</a>
</g>
</g>
<!-- Node0&#45;&gt;Node25 -->
<g id="edge34" class="edge">
<title>Node0&#45;&gt;Node25</title>
<path fill="none" stroke="#191970" d="M1065.9109,-268.4187C1031.154,-255.3849 990.6099,-240.1808 962.4155,-229.6079"/>
<polygon fill="#191970" stroke="#191970" points="963.5797,-226.3066 952.9875,-226.0724 961.1218,-232.8609 963.5797,-226.3066"/>
</g>
<!-- Node30 -->
<g id="node31" class="node">
<title>Node30</title>
<polygon fill="none" stroke="#bfbfbf" points="1520.461,-207 1520.461,-226 1570.461,-226 1570.461,-207 1520.461,-207"/>
<text text-anchor="middle" x="1545.461" y="-214" font-family="Helvetica,sans-Serif" font-size="10.00" fill="#000000">cstring</text>
</g>
<!-- Node0&#45;&gt;Node30 -->
<g id="edge42" class="edge">
<title>Node0&#45;&gt;Node30</title>
<path fill="none" stroke="#191970" d="M1216.1432,-285.8984C1292.0286,-276.6409 1408.3285,-259.4334 1506.461,-232 1509.0683,-231.2711 1511.7403,-230.4273 1514.4033,-229.5173"/>
<polygon fill="#191970" stroke="#191970" points="1515.7083,-232.7665 1523.8763,-226.0186 1513.283,-226.2 1515.7083,-232.7665"/>
</g>
<!-- Node2 -->
<g id="node3" class="node">
<title>Node2</title>
<polygon fill="none" stroke="#bfbfbf" points="14.961,-140 14.961,-159 69.961,-159 69.961,-140 14.961,-140"/>
<text text-anchor="middle" x="42.461" y="-147" font-family="Helvetica,sans-Serif" font-size="10.00" fill="#000000">fstream</text>
</g>
<!-- Node1&#45;&gt;Node2 -->
<g id="edge2" class="edge">
<title>Node1&#45;&gt;Node2</title>
<path fill="none" stroke="#191970" d="M214.319,-201.4026C174.1839,-192.2948 123.5741,-179.6321 79.461,-165 77.3664,-164.3052 75.2234,-163.545 73.0761,-162.7461"/>
<polygon fill="#191970" stroke="#191970" points="74.3582,-159.4894 63.7713,-159.0796 71.7919,-166.002 74.3582,-159.4894"/>
</g>
<!-- Node3 -->
<g id="node4" class="node">
<title>Node3</title>
<polygon fill="none" stroke="#bfbfbf" points="88.461,-140 88.461,-159 132.461,-159 132.461,-140 88.461,-140"/>
<text text-anchor="middle" x="110.461" y="-147" font-family="Helvetica,sans-Serif" font-size="10.00" fill="#000000">string</text>
</g>
<!-- Node1&#45;&gt;Node3 -->
<g id="edge3" class="edge">
<title>Node1&#45;&gt;Node3</title>
<path fill="none" stroke="#191970" d="M239.5403,-201.4593C210.875,-191.8716 173.6606,-178.7073 141.461,-165 140.2776,-164.4962 139.0757,-163.9685 137.8667,-163.4244"/>
<polygon fill="#191970" stroke="#191970" points="139.1818,-160.1746 128.6461,-159.0562 136.1848,-166.5006 139.1818,-160.1746"/>
</g>
<!-- Node4 -->
<g id="node5" class="node">
<title>Node4</title>
<polygon fill="none" stroke="#bfbfbf" points="544.461,-73 544.461,-92 594.461,-92 594.461,-73 544.461,-73"/>
<text text-anchor="middle" x="569.461" y="-80" font-family="Helvetica,sans-Serif" font-size="10.00" fill="#000000">cstdint</text>
</g>
<!-- Node1&#45;&gt;Node4 -->
<g id="edge4" class="edge">
<title>Node1&#45;&gt;Node4</title>
<path fill="none" stroke="#191970" d="M285.3852,-201.3575C284.9571,-182.7735 287.2865,-151.5721 305.461,-134 337.6598,-102.8684 469.8291,-89.4759 534.0745,-84.7175"/>
<polygon fill="#191970" stroke="#191970" points="534.4172,-88.2021 544.1437,-84.0016 533.9206,-81.2197 534.4172,-88.2021"/>
</g>
<!-- Node5 -->
<g id="node6" class="node">
<title>Node5</title>
<polygon fill="none" stroke="#bfbfbf" points="458.961,-6 458.961,-25 505.961,-25 505.961,-6 458.961,-6"/>
<text text-anchor="middle" x="482.461" y="-13" font-family="Helvetica,sans-Serif" font-size="10.00" fill="#000000">vector</text>
</g>
<!-- Node1&#45;&gt;Node5 -->
<g id="edge5" class="edge">
<title>Node1&#45;&gt;Node5</title>
<path fill="none" stroke="#191970" d="M210.6844,-213.2283C136.5497,-208.2489 31.1409,-195.814 5.461,-165 -3.3596,-154.4159 .3346,-146.7885 5.461,-134 20.7834,-95.7766 32.6751,-85.5094 69.461,-67 135.9154,-33.5626 362.6628,-20.5966 448.8486,-16.8029"/>
<polygon fill="#191970" stroke="#191970" points="449.0356,-20.2982 458.8774,-16.3753 448.7373,-13.3046 449.0356,-20.2982"/>
</g>
<!-- Node6 -->
<g id="node7" class="node">
<title>Node6</title>
<g id="a_node7"><a xlink:href="../../d4/d78/DataFormats_2Headers_2include_2Headers_2RAWDataHeader_8h.html" target="_top" xlink:title="Headers/RAWDataHeader.h">
<polygon fill="none" stroke="#000000" points="494.961,-140 494.961,-159 643.961,-159 643.961,-140 494.961,-140"/>
<text text-anchor="middle" x="569.461" y="-147" font-family="Helvetica,sans-Serif" font-size="10.00" fill="#000000">Headers/RAWDataHeader.h</text>
</a>
</g>
</g>
<!-- Node1&#45;&gt;Node6 -->
<g id="edge6" class="edge">
<title>Node1&#45;&gt;Node6</title>
<path fill="none" stroke="#191970" d="M349.9718,-201.4639C401.1366,-189.3507 472.0854,-172.5536 519.3156,-161.3719"/>
<polygon fill="#191970" stroke="#191970" points="520.3872,-164.715 529.3118,-159.0053 518.7745,-157.9033 520.3872,-164.715"/>
</g>
<!-- Node7 -->
<g id="node8" class="node">
<title>Node7</title>
<g id="a_node8"><a xlink:href="../../da/d2e/CompressedDataFormat_8h.html" target="_top" xlink:title="DataFormatsTOF/Compressed\lDataFormat.h">
<polygon fill="none" stroke="#000000" points="314.461,-134.5 314.461,-164.5 476.461,-164.5 476.461,-134.5 314.461,-134.5"/>
<text text-anchor="start" x="322.461" y="-152.5" font-family="Helvetica,sans-Serif" font-size="10.00" fill="#000000">DataFormatsTOF/Compressed</text>
<text text-anchor="middle" x="395.461" y="-141.5" font-family="Helvetica,sans-Serif" font-size="10.00" fill="#000000">DataFormat.h</text>
</a>
</g>
</g>
<!-- Node1&#45;&gt;Node7 -->
<g id="edge8" class="edge">
<title>Node1&#45;&gt;Node7</title>
<path fill="none" stroke="#191970" d="M310.9228,-201.4639C325.9634,-192.2188 345.4427,-180.2452 361.9115,-170.1222"/>
<polygon fill="#191970" stroke="#191970" points="364.0174,-172.9361 370.7038,-164.7177 360.3517,-166.9726 364.0174,-172.9361"/>
</g>
<!-- Node6&#45;&gt;Node4 -->
<g id="edge7" class="edge">
<title>Node6&#45;&gt;Node4</title>
<path fill="none" stroke="#191970" d="M569.461,-139.9005C569.461,-130.149 569.461,-114.7597 569.461,-102.3695"/>
<polygon fill="#191970" stroke="#191970" points="572.9611,-102.0816 569.461,-92.0817 565.9611,-102.0817 572.9611,-102.0816"/>
</g>
<!-- Node7&#45;&gt;Node4 -->
<g id="edge9" class="edge">
<title>Node7&#45;&gt;Node4</title>
<path fill="none" stroke="#191970" d="M434.51,-134.4639C464.7152,-122.8332 506.1347,-106.8843 535.0917,-95.7342"/>
<polygon fill="#191970" stroke="#191970" points="536.7013,-98.865 544.7757,-92.0053 534.1859,-92.3325 536.7013,-98.865"/>
</g>
<!-- Node8&#45;&gt;Node6 -->
<g id="edge31" class="edge">
<title>Node8&#45;&gt;Node6</title>
<path fill="none" stroke="#191970" d="M1065.7361,-207.811C1046.8349,-205.5226 1026.371,-203.1063 1007.461,-201 850.2882,-183.4935 810.0161,-187.3669 653.461,-165 645.0198,-163.794 636.1327,-162.3478 627.426,-160.8301"/>
<polygon fill="#191970" stroke="#191970" points="627.7851,-157.339 617.3255,-159.0258 626.5541,-164.2299 627.7851,-157.339"/>
</g>
<!-- Node9 -->
<g id="node10" class="node">
<title>Node9</title>
<polygon fill="none" stroke="#bfbfbf" points="970.961,-73 970.961,-92 1029.961,-92 1029.961,-73 970.961,-73"/>
<text text-anchor="middle" x="1000.461" y="-80" font-family="Helvetica,sans-Serif" font-size="10.00" fill="#000000">Rtypes.h</text>
</g>
<!-- Node8&#45;&gt;Node9 -->
<g id="edge11" class="edge">
<title>Node8&#45;&gt;Node9</title>
<path fill="none" stroke="#191970" d="M1144.9627,-206.7413C1159.7376,-190.3649 1184.8083,-156.8992 1167.461,-134 1131.7763,-86.8944 1095.4402,-116.9388 1039.461,-98 1037.3301,-97.2791 1035.146,-96.5066 1032.9523,-95.7055"/>
<polygon fill="#191970" stroke="#191970" points="1034.0017,-92.3601 1023.4106,-92.0809 1031.5159,-98.9039 1034.0017,-92.3601"/>
</g>
<!-- Node10 -->
<g id="node11" class="node">
<title>Node10</title>
<g id="a_node11"><a xlink:href="../../db/d2c/ConfigurableParam_8h.html" target="_top" xlink:title="CommonUtils/Configurable\lParam.h">
<polygon fill="none" stroke="#000000" points="1048.461,-67.5 1048.461,-97.5 1196.461,-97.5 1196.461,-67.5 1048.461,-67.5"/>
<text text-anchor="start" x="1056.461" y="-85.5" font-family="Helvetica,sans-Serif" font-size="10.00" fill="#000000">CommonUtils/Configurable</text>
<text text-anchor="middle" x="1122.461" y="-74.5" font-family="Helvetica,sans-Serif" font-size="10.00" fill="#000000">Param.h</text>
</a>
</g>
</g>
<!-- Node8&#45;&gt;Node10 -->
<g id="edge12" class="edge">
<title>Node8&#45;&gt;Node10</title>
<path fill="none" stroke="#191970" d="M1155.4532,-206.9787C1170.9099,-198.3987 1191.1854,-184.1834 1200.461,-165 1206.4586,-152.5961 1206.9892,-146.133 1200.461,-134 1193.4019,-120.8801 1181.3734,-110.5467 1168.8481,-102.6887"/>
<polygon fill="#191970" stroke="#191970" points="1170.5578,-99.6342 1160.1522,-97.6402 1167.0431,-105.688 1170.5578,-99.6342"/>
</g>
<!-- Node16 -->
<g id="node17" class="node">
<title>Node16</title>
<g id="a_node17"><a xlink:href="../../da/d6b/ConfigurableParamHelper_8h.html" target="_top" xlink:title="CommonUtils/Configurable\lParamHelper.h">
<polygon fill="none" stroke="#000000" points="1252.461,-134.5 1252.461,-164.5 1400.461,-164.5 1400.461,-134.5 1252.461,-134.5"/>
<text text-anchor="start" x="1260.461" y="-152.5" font-family="Helvetica,sans-Serif" font-size="10.00" fill="#000000">CommonUtils/Configurable</text>
<text text-anchor="middle" x="1326.461" y="-141.5" font-family="Helvetica,sans-Serif" font-size="10.00" fill="#000000">ParamHelper.h</text>
</a>
</g>
</g>
<!-- Node8&#45;&gt;Node16 -->
<g id="edge19" class="edge">
<title>Node8&#45;&gt;Node16</title>
<path fill="none" stroke="#191970" d="M1162.8267,-206.9005C1191.6783,-196.7798 1237.8417,-180.5864 1273.7917,-167.9756"/>
<polygon fill="#191970" stroke="#191970" points="1275.3601,-171.1346 1283.6378,-164.5218 1273.043,-164.5292 1275.3601,-171.1346"/>
</g>
<!-- Node20 -->
<g id="node21" class="node">
<title>Node20</title>
<g id="a_node21"><a xlink:href="../../d9/d80/InteractionRecord_8h.html" target="_top" xlink:title="CommonDataFormat/Interaction\lRecord.h">
<polygon fill="none" stroke="#000000" points="840.461,-134.5 840.461,-164.5 1014.461,-164.5 1014.461,-134.5 840.461,-134.5"/>
<text text-anchor="start" x="848.461" y="-152.5" font-family="Helvetica,sans-Serif" font-size="10.00" fill="#000000">CommonDataFormat/Interaction</text>
<text text-anchor="middle" x="927.461" y="-141.5" font-family="Helvetica,sans-Serif" font-size="10.00" fill="#000000">Record.h</text>
</a>
</g>
</g>
<!-- Node8&#45;&gt;Node20 -->
<g id="edge25" class="edge">
<title>Node8&#45;&gt;Node20</title>
<path fill="none" stroke="#191970" d="M1105.6597,-206.9005C1073.9716,-196.6933 1023.1073,-180.3091 983.8168,-167.6531"/>
<polygon fill="#191970" stroke="#191970" points="984.6873,-164.2564 974.0958,-164.5218 982.541,-170.9193 984.6873,-164.2564"/>
</g>
<!-- Node24 -->
<g id="node25" class="node">
<title>Node24</title>
<g id="a_node25"><a xlink:href="../../de/da4/Triggers_8h.html" target="_top" xlink:title="Definition of the 32 Central Trigger System (CTS) Trigger Types defined in https://twiki.cern.ch/twiki/pub/ALICE/NoteForFEDevelopers/CTS_CRU_FE_interface.pdf. ">
<polygon fill="none" stroke="#000000" points="662.461,-140 662.461,-159 822.461,-159 822.461,-140 662.461,-140"/>
<text text-anchor="middle" x="742.461" y="-147" font-family="Helvetica,sans-Serif" font-size="10.00" fill="#000000">CommonConstants/Triggers.h</text>
</a>
</g>
</g>
<!-- Node8&#45;&gt;Node24 -->
<g id="edge32" class="edge">
<title>Node8&#45;&gt;Node24</title>
<path fill="none" stroke="#191970" d="M1078.859,-206.9914C1017.7979,-196.7149 917.7188,-179.8175 831.461,-165 823.5487,-163.6408 815.2423,-162.2055 807.0157,-160.7788"/>
<polygon fill="#191970" stroke="#191970" points="807.5039,-157.3112 797.0525,-159.0485 806.3061,-164.208 807.5039,-157.3112"/>
</g>
<!-- Node10&#45;&gt;Node5 -->
<g id="edge13" class="edge">
<title>Node10&#45;&gt;Node5</title>
<path fill="none" stroke="#191970" d="M1048.3049,-68.3003C1045.3214,-67.8404 1042.3648,-67.4045 1039.461,-67 937.1704,-52.751 620.3589,-26.629 516.103,-18.1992"/>
<polygon fill="#191970" stroke="#191970" points="516.38,-14.7103 506.1309,-17.3945 515.8169,-21.6876 516.38,-14.7103"/>
</g>
<!-- Node11 -->
<g id="node12" class="node">
<title>Node11</title>
<polygon fill="none" stroke="#bfbfbf" points="1019.461,-6 1019.461,-25 1057.461,-25 1057.461,-6 1019.461,-6"/>
<text text-anchor="middle" x="1038.461" y="-13" font-family="Helvetica,sans-Serif" font-size="10.00" fill="#000000">map</text>
</g>
<!-- Node10&#45;&gt;Node11 -->
<g id="edge14" class="edge">
<title>Node10&#45;&gt;Node11</title>
<path fill="none" stroke="#191970" d="M1103.4001,-67.2967C1089.9314,-56.5537 1071.9225,-42.1895 1058.2862,-31.3129"/>
<polygon fill="#191970" stroke="#191970" points="1060.4407,-28.5544 1050.4404,-25.055 1056.0757,-34.0268 1060.4407,-28.5544"/>
</g>
<!-- Node12 -->
<g id="node13" class="node">
<title>Node12</title>
<polygon fill="none" stroke="#bfbfbf" points="1075.961,-6 1075.961,-25 1168.961,-25 1168.961,-6 1075.961,-6"/>
<text text-anchor="middle" x="1122.461" y="-13" font-family="Helvetica,sans-Serif" font-size="10.00" fill="#000000">unordered_map</text>
</g>
<!-- Node10&#45;&gt;Node12 -->
<g id="edge15" class="edge">
<title>Node10&#45;&gt;Node12</title>
<path fill="none" stroke="#191970" d="M1122.461,-67.2967C1122.461,-57.7699 1122.461,-45.3954 1122.461,-35.1306"/>
<polygon fill="#191970" stroke="#191970" points="1125.9611,-35.0549 1122.461,-25.055 1118.9611,-35.055 1125.9611,-35.0549"/>
</g>
<!-- Node13 -->
<g id="node14" class="node">
<title>Node13</title>
<polygon fill="none" stroke="#bfbfbf" points="1186.961,-.5 1186.961,-30.5 1299.961,-30.5 1299.961,-.5 1186.961,-.5"/>
<text text-anchor="start" x="1194.961" y="-18.5" font-family="Helvetica,sans-Serif" font-size="10.00" fill="#000000">boost/property_tree</text>
<text text-anchor="middle" x="1243.461" y="-7.5" font-family="Helvetica,sans-Serif" font-size="10.00" fill="#000000">/ptree.hpp</text>
</g>
<!-- Node10&#45;&gt;Node13 -->
<g id="edge16" class="edge">
<title>Node10&#45;&gt;Node13</title>
<path fill="none" stroke="#191970" d="M1149.6158,-67.4639C1166.5441,-58.0903 1188.5378,-45.9121 1206.9778,-35.7015"/>
<polygon fill="#191970" stroke="#191970" points="1208.9253,-38.6239 1215.9783,-30.7177 1205.5344,-32.5 1208.9253,-38.6239"/>
</g>
<!-- Node14 -->
<g id="node15" class="node">
<title>Node14</title>
<polygon fill="none" stroke="#bfbfbf" points="1333.961,-6 1333.961,-25 1390.961,-25 1390.961,-6 1333.961,-6"/>
<text text-anchor="middle" x="1362.461" y="-13" font-family="Helvetica,sans-Serif" font-size="10.00" fill="#000000">typeinfo</text>
</g>
<!-- Node10&#45;&gt;Node14 -->
<g id="edge17" class="edge">
<title>Node10&#45;&gt;Node14</title>
<path fill="none" stroke="#191970" d="M1178.1664,-67.4057C1215.3827,-57.2606 1265.4056,-43.5077 1309.461,-31 1314.1702,-29.663 1319.1094,-28.2427 1323.9995,-26.8256"/>
<polygon fill="#191970" stroke="#191970" points="1325.2561,-30.1051 1333.8787,-23.9487 1323.2989,-23.3843 1325.2561,-30.1051"/>
</g>
<!-- Node10&#45;&gt;Node15 -->
<g id="edge18" class="edge">
<title>Node10&#45;&gt;Node15</title>
<path fill="none" stroke="#191970" d="M1196.6384,-68.8058C1277.2699,-53.9131 1395.4189,-32.0675 1400.461,-31 1408.6106,-29.2746 1417.3022,-27.2977 1425.5906,-25.3461"/>
<polygon fill="#191970" stroke="#191970" points="1426.5225,-28.7221 1435.4372,-22.9968 1424.8979,-21.9132 1426.5225,-28.7221"/>
</g>
<!-- Node16&#45;&gt;Node10 -->
<g id="edge20" class="edge">
<title>Node16&#45;&gt;Node10</title>
<path fill="none" stroke="#191970" d="M1280.6795,-134.4639C1250.3385,-124.499 1210.3462,-111.3642 1178.1609,-100.7936"/>
<polygon fill="#191970" stroke="#191970" points="1179.0352,-97.3968 1168.4423,-97.6017 1176.8509,-104.0473 1179.0352,-97.3968"/>
</g>
<!-- Node16&#45;&gt;Node14 -->
<g id="edge23" class="edge">
<title>Node16&#45;&gt;Node14</title>
<path fill="none" stroke="#191970" d="M1339.243,-134.373C1346.6342,-124.6524 1355.2771,-111.3782 1359.461,-98 1365.8567,-77.5499 1365.8055,-52.8492 1364.6561,-35.8368"/>
<polygon fill="#191970" stroke="#191970" points="1368.1046,-35.0928 1363.7506,-25.434 1361.131,-35.6999 1368.1046,-35.0928"/>
</g>
<!-- Node17 -->
<g id="node18" class="node">
<title>Node17</title>
<polygon fill="none" stroke="#bfbfbf" points="1406.961,-73 1406.961,-92 1463.961,-92 1463.961,-73 1406.961,-73"/>
<text text-anchor="middle" x="1435.461" y="-80" font-family="Helvetica,sans-Serif" font-size="10.00" fill="#000000">TClass.h</text>
</g>
<!-- Node16&#45;&gt;Node17 -->
<g id="edge21" class="edge">
<title>Node16&#45;&gt;Node17</title>
<path fill="none" stroke="#191970" d="M1350.9228,-134.4639C1368.882,-123.4247 1393.17,-108.4954 1411.1045,-97.4715"/>
<polygon fill="#191970" stroke="#191970" points="1413.1503,-100.3223 1419.8368,-92.1039 1409.4846,-94.3588 1413.1503,-100.3223"/>
</g>
<!-- Node18 -->
<g id="node19" class="node">
<title>Node18</title>
<polygon fill="none" stroke="#bfbfbf" points="1214.961,-73 1214.961,-92 1283.961,-92 1283.961,-73 1214.961,-73"/>
<text text-anchor="middle" x="1249.461" y="-80" font-family="Helvetica,sans-Serif" font-size="10.00" fill="#000000">type_traits</text>
</g>
<!-- Node16&#45;&gt;Node18 -->
<g id="edge22" class="edge">
<title>Node16&#45;&gt;Node18</title>
<path fill="none" stroke="#191970" d="M1308.9885,-134.2967C1296.7586,-123.6551 1280.4452,-109.4602 1267.9889,-98.6217"/>
<polygon fill="#191970" stroke="#191970" points="1270.2836,-95.9788 1260.4421,-92.055 1265.6886,-101.2596 1270.2836,-95.9788"/>
</g>
<!-- Node19 -->
<g id="node20" class="node">
<title>Node19</title>
<polygon fill="none" stroke="#bfbfbf" points="1302.461,-73 1302.461,-92 1350.461,-92 1350.461,-73 1302.461,-73"/>
<text text-anchor="middle" x="1326.461" y="-80" font-family="Helvetica,sans-Serif" font-size="10.00" fill="#000000">TFile.h</text>
</g>
<!-- Node16&#45;&gt;Node19 -->
<g id="edge24" class="edge">
<title>Node16&#45;&gt;Node19</title>
<path fill="none" stroke="#191970" d="M1326.461,-134.2967C1326.461,-124.7699 1326.461,-112.3954 1326.461,-102.1306"/>
<polygon fill="#191970" stroke="#191970" points="1329.9611,-102.0549 1326.461,-92.055 1322.9611,-102.055 1329.9611,-102.0549"/>
</g>
<!-- Node20&#45;&gt;Node4 -->
<g id="edge29" class="edge">
<title>Node20&#45;&gt;Node4</title>
<path fill="none" stroke="#191970" d="M840.2709,-135.3881C757.4501,-121.8918 642.5168,-102.8904 621.461,-98 615.9554,-96.7213 610.1741,-95.1905 604.5488,-93.5961"/>
<polygon fill="#191970" stroke="#191970" points="605.266,-90.1589 594.6849,-90.6981 603.2927,-96.875 605.266,-90.1589"/>
</g>
<!-- Node20&#45;&gt;Node9 -->
<g id="edge26" class="edge">
<title>Node20&#45;&gt;Node9</title>
<path fill="none" stroke="#191970" d="M944.0259,-134.2967C955.51,-123.7564 970.7922,-109.7303 982.5572,-98.9323"/>
<polygon fill="#191970" stroke="#191970" points="985.0497,-101.3954 990.0504,-92.055 980.3164,-96.2382 985.0497,-101.3954"/>
</g>
<!-- Node21 -->
<g id="node22" class="node">
<title>Node21</title>
<polygon fill="none" stroke="#bfbfbf" points="903.961,-73 903.961,-92 952.961,-92 952.961,-73 903.961,-73"/>
<text text-anchor="middle" x="928.461" y="-80" font-family="Helvetica,sans-Serif" font-size="10.00" fill="#000000">iosfwd</text>
</g>
<!-- Node20&#45;&gt;Node21 -->
<g id="edge27" class="edge">
<title>Node20&#45;&gt;Node21</title>
<path fill="none" stroke="#191970" d="M927.688,-134.2967C927.8301,-124.7699 928.0148,-112.3954 928.168,-102.1306"/>
<polygon fill="#191970" stroke="#191970" points="931.6687,-102.1061 928.3184,-92.055 924.6695,-102.0016 931.6687,-102.1061"/>
</g>
<!-- Node22 -->
<g id="node23" class="node">
<title>Node22</title>
<polygon fill="none" stroke="#bfbfbf" points="629.961,-73 629.961,-92 676.961,-92 676.961,-73 629.961,-73"/>
<text text-anchor="middle" x="653.461" y="-80" font-family="Helvetica,sans-Serif" font-size="10.00" fill="#000000">cmath</text>
</g>
<!-- Node20&#45;&gt;Node22 -->
<g id="edge28" class="edge">
<title>Node20&#45;&gt;Node22</title>
<path fill="none" stroke="#191970" d="M847.7066,-134.4916C789.5237,-123.1591 715.9088,-107.9164 686.461,-98 684.8114,-97.4445 683.1354,-96.8295 681.4577,-96.1741"/>
<polygon fill="#191970" stroke="#191970" points="682.5721,-92.8437 672.0025,-92.1136 679.8099,-99.2756 682.5721,-92.8437"/>
</g>
<!-- Node23 -->
<g id="node24" class="node">
<title>Node23</title>
<g id="a_node24"><a xlink:href="../../d4/dc6/LHCConstants_8h.html" target="_top" xlink:title="Header to collect LHC related constants. ">
<polygon fill="none" stroke="#000000" points="695.461,-73 695.461,-92 885.461,-92 885.461,-73 695.461,-73"/>
<text text-anchor="middle" x="790.461" y="-80" font-family="Helvetica,sans-Serif" font-size="10.00" fill="#000000">CommonConstants/LHCConstants.h</text>
</a>
</g>
</g>
<!-- Node20&#45;&gt;Node23 -->
<g id="edge30" class="edge">
<title>Node20&#45;&gt;Node23</title>
<path fill="none" stroke="#191970" d="M896.7156,-134.4639C873.5216,-123.1209 841.9295,-107.6707 819.2316,-96.5703"/>
<polygon fill="#191970" stroke="#191970" points="820.6199,-93.3531 810.0989,-92.1039 817.5445,-99.6414 820.6199,-93.3531"/>
</g>
<!-- Node24&#45;&gt;Node4 -->
<g id="edge33" class="edge">
<title>Node24&#45;&gt;Node4</title>
<path fill="none" stroke="#191970" d="M717.6744,-139.9005C687.7418,-128.3082 637.2372,-108.7486 603.6255,-95.7313"/>
<polygon fill="#191970" stroke="#191970" points="604.7909,-92.4294 594.2017,-92.0817 602.2628,-98.957 604.7909,-92.4294"/>
</g>
<!-- Node25&#45;&gt;Node6 -->
<g id="edge41" class="edge">
<title>Node25&#45;&gt;Node6</title>
<path fill="none" stroke="#191970" d="M876.5486,-206.9717C811.691,-194.8335 699.72,-173.8781 630.3955,-160.9039"/>
<polygon fill="#191970" stroke="#191970" points="630.9606,-157.449 620.4874,-159.0496 629.6729,-164.3295 630.9606,-157.449"/>
</g>
<!-- Node25&#45;&gt;Node20 -->
<g id="edge40" class="edge">
<title>Node25&#45;&gt;Node20</title>
<path fill="none" stroke="#191970" d="M927.461,-206.9005C927.461,-198.5099 927.461,-185.9451 927.461,-174.7085"/>
<polygon fill="#191970" stroke="#191970" points="930.9611,-174.5217 927.461,-164.5218 923.9611,-174.5218 930.9611,-174.5217"/>
</g>
<!-- Node26 -->
<g id="node27" class="node">
<title>Node26</title>
<g id="a_node27"><a xlink:href="../../df/d21/GPUCommonDef_8h.html" target="_top" xlink:title="GPUCommonDef.h">
<polygon fill="none" stroke="#000000" points="150.961,-140 150.961,-159 257.961,-159 257.961,-140 150.961,-140"/>
<text text-anchor="middle" x="204.461" y="-147" font-family="Helvetica,sans-Serif" font-size="10.00" fill="#000000">GPUCommonDef.h</text>
</a>
</g>
</g>
<!-- Node25&#45;&gt;Node26 -->
<g id="edge35" class="edge">
<title>Node25&#45;&gt;Node26</title>
<path fill="none" stroke="#191970" d="M856.8747,-212.263C741.3533,-204.968 504.8071,-188.5201 305.461,-165 293.4176,-163.579 280.6043,-161.8117 268.2911,-159.9844"/>
<polygon fill="#191970" stroke="#191970" points="268.5045,-156.4769 258.0935,-158.4416 267.4573,-163.3982 268.5045,-156.4769"/>
</g>
<!-- Node29 -->
<g id="node30" class="node">
<title>Node29</title>
<g id="a_node30"><a xlink:href="../../d2/d45/GPUCommonRtypes_8h.html" target="_top" xlink:title="GPUCommonRtypes.h">
<polygon fill="none" stroke="#000000" points="1032.961,-140 1032.961,-159 1157.961,-159 1157.961,-140 1032.961,-140"/>
<text text-anchor="middle" x="1095.461" y="-147" font-family="Helvetica,sans-Serif" font-size="10.00" fill="#000000">GPUCommonRtypes.h</text>
</a>
</g>
</g>
<!-- Node25&#45;&gt;Node29 -->
<g id="edge38" class="edge">
<title>Node25&#45;&gt;Node29</title>
<path fill="none" stroke="#191970" d="M951.5313,-206.9005C980.4741,-195.3579 1029.2231,-175.9163 1061.8628,-162.8993"/>
<polygon fill="#191970" stroke="#191970" points="1063.4434,-166.0371 1071.4354,-159.0817 1060.8503,-159.5351 1063.4434,-166.0371"/>
</g>
<!-- Node27 -->
<g id="node28" class="node">
<title>Node27</title>
<g id="a_node28"><a xlink:href="../../d5/d93/GPUCommonDefSettings_8h.html" target="_top" xlink:title="GPUCommonDefSettings.h">
<polygon fill="none" stroke="#000000" points="220.461,-73 220.461,-92 368.461,-92 368.461,-73 220.461,-73"/>
<text text-anchor="middle" x="294.461" y="-80" font-family="Helvetica,sans-Serif" font-size="10.00" fill="#000000">GPUCommonDefSettings.h</text>
</a>
</g>
</g>
<!-- Node26&#45;&gt;Node27 -->
<g id="edge36" class="edge">
<title>Node26&#45;&gt;Node27</title>
<path fill="none" stroke="#191970" d="M217.3558,-139.9005C231.9252,-129.0544 255.8632,-111.2339 273.2064,-98.3229"/>
<polygon fill="#191970" stroke="#191970" points="275.6588,-100.8606 281.5902,-92.0817 271.4788,-95.2457 275.6588,-100.8606"/>
</g>
<!-- Node28 -->
<g id="node29" class="node">
<title>Node28</title>
<g id="a_node29"><a xlink:href="../../da/d5a/GPUCommonDefAPI_8h.html" target="_top" xlink:title="GPUCommonDefAPI.h">
<polygon fill="none" stroke="#000000" points="78.461,-73 78.461,-92 202.461,-92 202.461,-73 78.461,-73"/>
<text text-anchor="middle" x="140.461" y="-80" font-family="Helvetica,sans-Serif" font-size="10.00" fill="#000000">GPUCommonDefAPI.h</text>
</a>
</g>
</g>
<!-- Node26&#45;&gt;Node28 -->
<g id="edge37" class="edge">
<title>Node26&#45;&gt;Node28</title>
<path fill="none" stroke="#191970" d="M195.2914,-139.9005C185.2161,-129.353 168.8404,-112.2096 156.6042,-99.3998"/>
<polygon fill="#191970" stroke="#191970" points="159.0519,-96.8952 149.6137,-92.0817 153.9901,-101.7304 159.0519,-96.8952"/>
</g>
<!-- Node29&#45;&gt;Node9 -->
<g id="edge39" class="edge">
<title>Node29&#45;&gt;Node9</title>
<path fill="none" stroke="#191970" d="M1081.8499,-139.9005C1066.33,-128.9549 1040.7387,-110.9064 1022.3944,-97.9688"/>
<polygon fill="#191970" stroke="#191970" points="1024.2363,-94.9849 1014.047,-92.0817 1020.2018,-100.7054 1024.2363,-94.9849"/>
</g>
</g>
</svg>
