<?xml version="1.0" encoding="UTF-8" standalone="no"?>
<!DOCTYPE svg PUBLIC "-//W3C//DTD SVG 1.1//EN"
 "http://www.w3.org/Graphics/SVG/1.1/DTD/svg11.dtd">
<!-- Generated by graphviz version 2.40.1 (20161225.0304)
 -->
<!-- Title: /home/travis/build/AliceO2Group/AliceO2/Framework/Core/include/Framework/ExternalFairMQDeviceProxy.h Pages: 1 -->
<svg width="1648pt" height="250pt"
 viewBox="0.00 0.00 1647.50 250.00" xmlns="http://www.w3.org/2000/svg" xmlns:xlink="http://www.w3.org/1999/xlink">
<g id="graph0" class="graph" transform="scale(1 1) rotate(0) translate(4 246)">
<title>/home/travis/build/AliceO2Group/AliceO2/Framework/Core/include/Framework/ExternalFairMQDeviceProxy.h</title>
<!-- Node144 -->
<g id="node1" class="node">
<title>Node144</title>
<polygon fill="#bfbfbf" stroke="#000000" points="750,-178.5 750,-241.5 934,-241.5 934,-178.5 750,-178.5"/>
<text text-anchor="start" x="758" y="-229.5" font-family="Helvetica,sans-Serif" font-size="10.00" fill="#000000">/home/travis/build</text>
<text text-anchor="start" x="758" y="-218.5" font-family="Helvetica,sans-Serif" font-size="10.00" fill="#000000">/AliceO2Group/AliceO2</text>
<text text-anchor="start" x="758" y="-207.5" font-family="Helvetica,sans-Serif" font-size="10.00" fill="#000000">/Framework/Core/include</text>
<text text-anchor="start" x="758" y="-196.5" font-family="Helvetica,sans-Serif" font-size="10.00" fill="#000000">/Framework/ExternalFairMQDevice</text>
<text text-anchor="middle" x="842" y="-185.5" font-family="Helvetica,sans-Serif" font-size="10.00" fill="#000000">Proxy.h</text>
</g>
<!-- Node145 -->
<g id="node2" class="node">
<title>Node145</title>
<g id="a_node2"><a xlink:href="../../dc/dc8/DataSamplingReadoutAdapter_8h.html" target="_top" xlink:title="/home/travis/build\l/AliceO2Group/AliceO2\l/Framework/Core/include\l/Framework/DataSamplingReadoutAdapter.h">
<polygon fill="none" stroke="#000000" points="106,-89.5 106,-141.5 338,-141.5 338,-89.5 106,-89.5"/>
<text text-anchor="start" x="114" y="-129.5" font-family="Helvetica,sans-Serif" font-size="10.00" fill="#000000">/home/travis/build</text>
<text text-anchor="start" x="114" y="-118.5" font-family="Helvetica,sans-Serif" font-size="10.00" fill="#000000">/AliceO2Group/AliceO2</text>
<text text-anchor="start" x="114" y="-107.5" font-family="Helvetica,sans-Serif" font-size="10.00" fill="#000000">/Framework/Core/include</text>
<text text-anchor="middle" x="222" y="-96.5" font-family="Helvetica,sans-Serif" font-size="10.00" fill="#000000">/Framework/DataSamplingReadoutAdapter.h</text>
</a>
</g>
</g>
<!-- Node144&#45;&gt;Node145 -->
<g id="edge1" class="edge">
<title>Node144&#45;&gt;Node145</title>
<path fill="none" stroke="#191970" d="M739.5803,-197.7005C640.2459,-185.3205 485.4045,-164.8302 352,-142 347.4593,-141.2229 342.8346,-140.4055 338.1668,-139.5588"/>
<polygon fill="#191970" stroke="#191970" points="739.26,-201.1875 749.6152,-198.9471 740.123,-194.2409 739.26,-201.1875"/>
</g>
<!-- Node147 -->
<g id="node4" class="node">
<title>Node147</title>
<g id="a_node4"><a xlink:href="../../d1/de8/test__DataSampling_8cxx.html" target="_top" xlink:title="/home/travis/build\l/AliceO2Group/AliceO2\l/Framework/Core/test/test\l_DataSampling.cxx">
<polygon fill="none" stroke="#000000" points="206.5,-.5 206.5,-52.5 349.5,-52.5 349.5,-.5 206.5,-.5"/>
<text text-anchor="start" x="214.5" y="-40.5" font-family="Helvetica,sans-Serif" font-size="10.00" fill="#000000">/home/travis/build</text>
<text text-anchor="start" x="214.5" y="-29.5" font-family="Helvetica,sans-Serif" font-size="10.00" fill="#000000">/AliceO2Group/AliceO2</text>
<text text-anchor="start" x="214.5" y="-18.5" font-family="Helvetica,sans-Serif" font-size="10.00" fill="#000000">/Framework/Core/test/test</text>
<text text-anchor="middle" x="278" y="-7.5" font-family="Helvetica,sans-Serif" font-size="10.00" fill="#000000">_DataSampling.cxx</text>
</a>
</g>
</g>
<!-- Node144&#45;&gt;Node147 -->
<g id="edge8" class="edge">
<title>Node144&#45;&gt;Node147</title>
<path fill="none" stroke="#191970" d="M739.7242,-204.0279C623.6358,-195.6613 442.8717,-177.3413 385,-142 360.2634,-126.8937 366.2945,-110.6292 347,-89 335.5951,-76.2151 321.805,-63.3022 309.5602,-52.5592"/>
<polygon fill="#191970" stroke="#191970" points="739.483,-207.5195 749.7051,-204.7342 739.9772,-200.5369 739.483,-207.5195"/>
</g>
<!-- Node148 -->
<g id="node5" class="node">
<title>Node148</title>
<g id="a_node5"><a xlink:href="../../de/d43/ReadoutAdapter_8h.html" target="_top" xlink:title="/home/travis/build\l/AliceO2Group/AliceO2\l/Framework/Core/include\l/Framework/ReadoutAdapter.h">
<polygon fill="none" stroke="#000000" points="394.5,-89.5 394.5,-141.5 557.5,-141.5 557.5,-89.5 394.5,-89.5"/>
<text text-anchor="start" x="402.5" y="-129.5" font-family="Helvetica,sans-Serif" font-size="10.00" fill="#000000">/home/travis/build</text>
<text text-anchor="start" x="402.5" y="-118.5" font-family="Helvetica,sans-Serif" font-size="10.00" fill="#000000">/AliceO2Group/AliceO2</text>
<text text-anchor="start" x="402.5" y="-107.5" font-family="Helvetica,sans-Serif" font-size="10.00" fill="#000000">/Framework/Core/include</text>
<text text-anchor="middle" x="476" y="-96.5" font-family="Helvetica,sans-Serif" font-size="10.00" fill="#000000">/Framework/ReadoutAdapter.h</text>
</a>
</g>
</g>
<!-- Node144&#45;&gt;Node148 -->
<g id="edge4" class="edge">
<title>Node144&#45;&gt;Node148</title>
<path fill="none" stroke="#191970" d="M739.8977,-185.8069C687.9923,-173.241 623.9967,-157.3389 567,-142 563.981,-141.1875 560.9089,-140.3497 557.8081,-139.4947"/>
<polygon fill="#191970" stroke="#191970" points="739.2353,-189.2475 749.7777,-188.1939 740.8793,-182.4433 739.2353,-189.2475"/>
</g>
<!-- Node151 -->
<g id="node8" class="node">
<title>Node151</title>
<g id="a_node8"><a xlink:href="../../dc/df3/ExternalFairMQDeviceProxy_8cxx.html" target="_top" xlink:title="/home/travis/build\l/AliceO2Group/AliceO2\l/Framework/Core/src/External\lFairMQDeviceProxy.cxx">
<polygon fill="none" stroke="#000000" points="576,-89.5 576,-141.5 736,-141.5 736,-89.5 576,-89.5"/>
<text text-anchor="start" x="584" y="-129.5" font-family="Helvetica,sans-Serif" font-size="10.00" fill="#000000">/home/travis/build</text>
<text text-anchor="start" x="584" y="-118.5" font-family="Helvetica,sans-Serif" font-size="10.00" fill="#000000">/AliceO2Group/AliceO2</text>
<text text-anchor="start" x="584" y="-107.5" font-family="Helvetica,sans-Serif" font-size="10.00" fill="#000000">/Framework/Core/src/External</text>
<text text-anchor="middle" x="656" y="-96.5" font-family="Helvetica,sans-Serif" font-size="10.00" fill="#000000">FairMQDeviceProxy.cxx</text>
</a>
</g>
</g>
<!-- Node144&#45;&gt;Node151 -->
<g id="edge7" class="edge">
<title>Node144&#45;&gt;Node151</title>
<path fill="none" stroke="#191970" d="M770.8491,-173.8507C749.6887,-163.0999 726.9288,-151.5364 707.296,-141.5617"/>
<polygon fill="#191970" stroke="#191970" points="769.3054,-176.9922 779.8061,-178.4015 772.4761,-170.7515 769.3054,-176.9922"/>
</g>
<!-- Node152 -->
<g id="node9" class="node">
<title>Node152</title>
<g id="a_node9"><a xlink:href="../../d1/dd3/test__ExternalFairMQDeviceProxy_8cxx.html" target="_top" xlink:title="/home/travis/build\l/AliceO2Group/AliceO2\l/Framework/Core/test/test\l_ExternalFairMQDeviceProxy.cxx">
<polygon fill="none" stroke="#000000" points="754,-89.5 754,-141.5 930,-141.5 930,-89.5 754,-89.5"/>
<text text-anchor="start" x="762" y="-129.5" font-family="Helvetica,sans-Serif" font-size="10.00" fill="#000000">/home/travis/build</text>
<text text-anchor="start" x="762" y="-118.5" font-family="Helvetica,sans-Serif" font-size="10.00" fill="#000000">/AliceO2Group/AliceO2</text>
<text text-anchor="start" x="762" y="-107.5" font-family="Helvetica,sans-Serif" font-size="10.00" fill="#000000">/Framework/Core/test/test</text>
<text text-anchor="middle" x="842" y="-96.5" font-family="Helvetica,sans-Serif" font-size="10.00" fill="#000000">_ExternalFairMQDeviceProxy.cxx</text>
</a>
</g>
</g>
<!-- Node144&#45;&gt;Node152 -->
<g id="edge9" class="edge">
<title>Node144&#45;&gt;Node152</title>
<path fill="none" stroke="#191970" d="M842,-168.2457C842,-159.2008 842,-149.8836 842,-141.6442"/>
<polygon fill="#191970" stroke="#191970" points="838.5001,-168.2699 842,-178.27 845.5001,-168.27 838.5001,-168.2699"/>
</g>
<!-- Node153 -->
<g id="node10" class="node">
<title>Node153</title>
<g id="a_node10"><a xlink:href="../../d4/d00/test__ExternalFairMQDeviceWorkflow_8cxx.html" target="_top" xlink:title="/home/travis/build\l/AliceO2Group/AliceO2\l/Framework/Core/test/test\l_ExternalFairMQDeviceWorkflow.cxx">
<polygon fill="none" stroke="#000000" points="948,-89.5 948,-141.5 1142,-141.5 1142,-89.5 948,-89.5"/>
<text text-anchor="start" x="956" y="-129.5" font-family="Helvetica,sans-Serif" font-size="10.00" fill="#000000">/home/travis/build</text>
<text text-anchor="start" x="956" y="-118.5" font-family="Helvetica,sans-Serif" font-size="10.00" fill="#000000">/AliceO2Group/AliceO2</text>
<text text-anchor="start" x="956" y="-107.5" font-family="Helvetica,sans-Serif" font-size="10.00" fill="#000000">/Framework/Core/test/test</text>
<text text-anchor="middle" x="1045" y="-96.5" font-family="Helvetica,sans-Serif" font-size="10.00" fill="#000000">_ExternalFairMQDeviceWorkflow.cxx</text>
</a>
</g>
</g>
<!-- Node144&#45;&gt;Node153 -->
<g id="edge10" class="edge">
<title>Node144&#45;&gt;Node153</title>
<path fill="none" stroke="#191970" d="M919.0358,-174.1385C942.3045,-163.3065 967.3972,-151.6254 989.0156,-141.5617"/>
<polygon fill="#191970" stroke="#191970" points="917.467,-171.0081 909.8783,-178.4015 920.4212,-177.3542 917.467,-171.0081"/>
</g>
<!-- Node154 -->
<g id="node11" class="node">
<title>Node154</title>
<g id="a_node11"><a xlink:href="../../da/d19/test__RawDeviceInjector_8cxx.html" target="_top" xlink:title="/home/travis/build\l/AliceO2Group/AliceO2\l/Framework/TestWorkflows\l/src/test_RawDeviceInjector.cxx">
<polygon fill="none" stroke="#000000" points="1160,-89.5 1160,-141.5 1332,-141.5 1332,-89.5 1160,-89.5"/>
<text text-anchor="start" x="1168" y="-129.5" font-family="Helvetica,sans-Serif" font-size="10.00" fill="#000000">/home/travis/build</text>
<text text-anchor="start" x="1168" y="-118.5" font-family="Helvetica,sans-Serif" font-size="10.00" fill="#000000">/AliceO2Group/AliceO2</text>
<text text-anchor="start" x="1168" y="-107.5" font-family="Helvetica,sans-Serif" font-size="10.00" fill="#000000">/Framework/TestWorkflows</text>
<text text-anchor="middle" x="1246" y="-96.5" font-family="Helvetica,sans-Serif" font-size="10.00" fill="#000000">/src/test_RawDeviceInjector.cxx</text>
</a>
</g>
</g>
<!-- Node144&#45;&gt;Node154 -->
<g id="edge11" class="edge">
<title>Node144&#45;&gt;Node154</title>
<path fill="none" stroke="#191970" d="M944.1676,-189.0028C1004.5284,-176.2278 1082.337,-159.1179 1151,-142 1153.9075,-141.2752 1156.8614,-140.5256 1159.8418,-139.758"/>
<polygon fill="#191970" stroke="#191970" points="943.3151,-185.6055 934.2535,-191.0953 944.7608,-192.4546 943.3151,-185.6055"/>
</g>
<!-- Node155 -->
<g id="node12" class="node">
<title>Node155</title>
<g id="a_node12"><a xlink:href="../../d6/d4b/dpl-output-proxy_8cxx.html" target="_top" xlink:title="/home/travis/build\l/AliceO2Group/AliceO2\l/Framework/Utils/src/dpl\l&#45;output&#45;proxy.cxx">
<polygon fill="none" stroke="#000000" points="1350,-89.5 1350,-141.5 1484,-141.5 1484,-89.5 1350,-89.5"/>
<text text-anchor="start" x="1358" y="-129.5" font-family="Helvetica,sans-Serif" font-size="10.00" fill="#000000">/home/travis/build</text>
<text text-anchor="start" x="1358" y="-118.5" font-family="Helvetica,sans-Serif" font-size="10.00" fill="#000000">/AliceO2Group/AliceO2</text>
<text text-anchor="start" x="1358" y="-107.5" font-family="Helvetica,sans-Serif" font-size="10.00" fill="#000000">/Framework/Utils/src/dpl</text>
<text text-anchor="middle" x="1417" y="-96.5" font-family="Helvetica,sans-Serif" font-size="10.00" fill="#000000">&#45;output&#45;proxy.cxx</text>
</a>
</g>
</g>
<!-- Node144&#45;&gt;Node155 -->
<g id="edge12" class="edge">
<title>Node144&#45;&gt;Node155</title>
<path fill="none" stroke="#191970" d="M944.3364,-202.0859C1045.9882,-192.8184 1205.786,-174.4407 1341,-142 1343.8535,-141.3154 1346.7502,-140.5648 1349.6639,-139.7636"/>
<polygon fill="#191970" stroke="#191970" points="943.7186,-198.6272 934.0722,-203.0087 944.3455,-205.5991 943.7186,-198.6272"/>
</g>
<!-- Node156 -->
<g id="node13" class="node">
<title>Node156</title>
<g id="a_node13"><a xlink:href="../../df/de6/raw-proxy_8cxx.html" target="_top" xlink:title="/home/travis/build\l/AliceO2Group/AliceO2\l/Framework/Utils/src/raw\l&#45;proxy.cxx">
<polygon fill="none" stroke="#000000" points="1502.5,-89.5 1502.5,-141.5 1639.5,-141.5 1639.5,-89.5 1502.5,-89.5"/>
<text text-anchor="start" x="1510.5" y="-129.5" font-family="Helvetica,sans-Serif" font-size="10.00" fill="#000000">/home/travis/build</text>
<text text-anchor="start" x="1510.5" y="-118.5" font-family="Helvetica,sans-Serif" font-size="10.00" fill="#000000">/AliceO2Group/AliceO2</text>
<text text-anchor="start" x="1510.5" y="-107.5" font-family="Helvetica,sans-Serif" font-size="10.00" fill="#000000">/Framework/Utils/src/raw</text>
<text text-anchor="middle" x="1571" y="-96.5" font-family="Helvetica,sans-Serif" font-size="10.00" fill="#000000">&#45;proxy.cxx</text>
</a>
</g>
</g>
<!-- Node144&#45;&gt;Node156 -->
<g id="edge13" class="edge">
<title>Node144&#45;&gt;Node156</title>
<path fill="none" stroke="#191970" d="M944.406,-206.3682C1073.5989,-200.1779 1301.9803,-183.8727 1493,-142 1496.0734,-141.3263 1499.1947,-140.5727 1502.3328,-139.7578"/>
<polygon fill="#191970" stroke="#191970" points="943.9562,-202.8853 934.1309,-206.8491 944.2836,-209.8776 943.9562,-202.8853"/>
</g>
<!-- Node146 -->
<g id="node3" class="node">
<title>Node146</title>
<g id="a_node3"><a xlink:href="../../dc/da2/DataSamplingReadoutAdapter_8cxx.html" target="_top" xlink:title="/home/travis/build\l/AliceO2Group/AliceO2\l/Framework/Core/src/DataSampling\lReadoutAdapter.cxx">
<polygon fill="none" stroke="#000000" points="0,-.5 0,-52.5 188,-52.5 188,-.5 0,-.5"/>
<text text-anchor="start" x="8" y="-40.5" font-family="Helvetica,sans-Serif" font-size="10.00" fill="#000000">/home/travis/build</text>
<text text-anchor="start" x="8" y="-29.5" font-family="Helvetica,sans-Serif" font-size="10.00" fill="#000000">/AliceO2Group/AliceO2</text>
<text text-anchor="start" x="8" y="-18.5" font-family="Helvetica,sans-Serif" font-size="10.00" fill="#000000">/Framework/Core/src/DataSampling</text>
<text text-anchor="middle" x="94" y="-7.5" font-family="Helvetica,sans-Serif" font-size="10.00" fill="#000000">ReadoutAdapter.cxx</text>
</a>
</g>
</g>
<!-- Node145&#45;&gt;Node146 -->
<g id="edge2" class="edge">
<title>Node145&#45;&gt;Node146</title>
<path fill="none" stroke="#191970" d="M175.8784,-83.431C161.2872,-73.2856 145.3481,-62.203 131.4424,-52.5341"/>
<polygon fill="#191970" stroke="#191970" points="174.0796,-86.4433 184.2881,-89.2784 178.0758,-80.696 174.0796,-86.4433"/>
</g>
<!-- Node145&#45;&gt;Node147 -->
<g id="edge3" class="edge">
<title>Node145&#45;&gt;Node147</title>
<path fill="none" stroke="#191970" d="M243.9823,-80.5639C249.8575,-71.2264 256.1038,-61.2993 261.619,-52.5341"/>
<polygon fill="#191970" stroke="#191970" points="240.8622,-78.9505 238.499,-89.2784 246.787,-82.6785 240.8622,-78.9505"/>
</g>
<!-- Node149 -->
<g id="node6" class="node">
<title>Node149</title>
<g id="a_node6"><a xlink:href="../../da/df2/ReadoutAdapter_8cxx.html" target="_top" xlink:title="/home/travis/build\l/AliceO2Group/AliceO2\l/Framework/Core/src/ReadoutAdapter.cxx">
<polygon fill="none" stroke="#000000" points="367.5,-6 367.5,-47 584.5,-47 584.5,-6 367.5,-6"/>
<text text-anchor="start" x="375.5" y="-35" font-family="Helvetica,sans-Serif" font-size="10.00" fill="#000000">/home/travis/build</text>
<text text-anchor="start" x="375.5" y="-24" font-family="Helvetica,sans-Serif" font-size="10.00" fill="#000000">/AliceO2Group/AliceO2</text>
<text text-anchor="middle" x="476" y="-13" font-family="Helvetica,sans-Serif" font-size="10.00" fill="#000000">/Framework/Core/src/ReadoutAdapter.cxx</text>
</a>
</g>
</g>
<!-- Node148&#45;&gt;Node149 -->
<g id="edge5" class="edge">
<title>Node148&#45;&gt;Node149</title>
<path fill="none" stroke="#191970" d="M476,-79.1335C476,-68.2443 476,-56.6825 476,-47.1771"/>
<polygon fill="#191970" stroke="#191970" points="472.5001,-79.2784 476,-89.2784 479.5001,-79.2785 472.5001,-79.2784"/>
</g>
<!-- Node150 -->
<g id="node7" class="node">
<title>Node150</title>
<g id="a_node7"><a xlink:href="../../db/d1a/flpQualification_8cxx.html" target="_top" xlink:title="/home/travis/build\l/AliceO2Group/AliceO2\l/Framework/TestWorkflows\l/src/flpQualification.cxx">
<polygon fill="none" stroke="#000000" points="603,-.5 603,-52.5 749,-52.5 749,-.5 603,-.5"/>
<text text-anchor="start" x="611" y="-40.5" font-family="Helvetica,sans-Serif" font-size="10.00" fill="#000000">/home/travis/build</text>
<text text-anchor="start" x="611" y="-29.5" font-family="Helvetica,sans-Serif" font-size="10.00" fill="#000000">/AliceO2Group/AliceO2</text>
<text text-anchor="start" x="611" y="-18.5" font-family="Helvetica,sans-Serif" font-size="10.00" fill="#000000">/Framework/TestWorkflows</text>
<text text-anchor="middle" x="676" y="-7.5" font-family="Helvetica,sans-Serif" font-size="10.00" fill="#000000">/src/flpQualification.cxx</text>
</a>
</g>
</g>
<!-- Node148&#45;&gt;Node150 -->
<g id="edge6" class="edge">
<title>Node148&#45;&gt;Node150</title>
<path fill="none" stroke="#191970" d="M543.9857,-85.2464C567.8121,-74.6436 594.3493,-62.8346 617.3458,-52.6011"/>
<polygon fill="#191970" stroke="#191970" points="542.3685,-82.1351 534.6552,-89.3984 545.2145,-88.5304 542.3685,-82.1351"/>
</g>
</g>
</svg>
