<?xml version="1.0" encoding="UTF-8" standalone="no"?>
<!DOCTYPE svg PUBLIC "-//W3C//DTD SVG 1.1//EN"
 "http://www.w3.org/Graphics/SVG/1.1/DTD/svg11.dtd">
<!-- Generated by graphviz version 2.40.1 (20161225.0304)
 -->
<!-- Title: /home/travis/build/AliceO2Group/AliceO2/Analysis/DataModel/src/dummy.cxx Pages: 1 -->
<!--zoomable 397 -->
<svg id="main" version="1.1" xmlns="http://www.w3.org/2000/svg" xmlns:xlink="http://www.w3.org/1999/xlink" xml:space="preserve" onload="init(evt)">
<style type="text/css"><![CDATA[
.edge:hover path { stroke: red; }
.edge:hover polygon { stroke: red; fill: red; }
]]></style>
<script type="text/javascript"><![CDATA[
var edges = document.getElementsByTagName('g');
if (edges && edges.length) {
  for (var i=0;i<edges.length;i++) {
    if (edges[i].id.substr(0,4)=='edge') {
      edges[i].setAttribute('class','edge');
    }
  }
}
]]></script>
        <defs>
                <circle id="rim" cx="0" cy="0" r="7"/>
                <circle id="rim2" cx="0" cy="0" r="3.5"/>
                <g id="zoomPlus">
                        <use xlink:href="#rim" fill="#404040">
                                <set attributeName="fill" to="#808080" begin="zoomplus.mouseover" end="zoomplus.mouseout"/>
                        </use>
                        <path d="M-4,0h8M0,-4v8" fill="none" stroke="white" stroke-width="1.5" pointer-events="none"/>
                </g>
                <g id="zoomMin">
                        <use xlink:href="#rim" fill="#404040">
                                <set attributeName="fill" to="#808080" begin="zoomminus.mouseover" end="zoomminus.mouseout"/>
                        </use>
                        <path d="M-4,0h8" fill="none" stroke="white" stroke-width="1.5" pointer-events="none"/>
                </g>
                <g id="dirArrow">
                        <path fill="none" stroke="white" stroke-width="1.5" d="M0,-3.0v7 M-2.5,-0.5L0,-3.0L2.5,-0.5"/>
                </g>
               <g id="resetDef">
                       <use xlink:href="#rim2" fill="#404040">
                               <set attributeName="fill" to="#808080" begin="reset.mouseover" end="reset.mouseout"/>
                       </use>
               </g>
        </defs>

<script type="text/javascript">
var viewWidth = 2721;
var viewHeight = 397;
var sectionId = 'dynsection-0';
</script>
<script xlink:href="../../svgpan.js"/>
<svg id="graph" class="graph">
<g id="viewport">
<title>/home/travis/build/AliceO2Group/AliceO2/Analysis/DataModel/src/dummy.cxx</title>
<!-- Node0 -->
<g id="node1" class="node">
<title>Node0</title>
<polygon fill="#bfbfbf" stroke="#000000" points="2012.5,-336.5 2012.5,-388.5 2146.5,-388.5 2146.5,-336.5 2012.5,-336.5"/>
<text text-anchor="start" x="2020.5" y="-376.5" font-family="Helvetica,sans-Serif" font-size="10.00" fill="#000000">/home/travis/build</text>
<text text-anchor="start" x="2020.5" y="-365.5" font-family="Helvetica,sans-Serif" font-size="10.00" fill="#000000">/AliceO2Group/AliceO2</text>
<text text-anchor="start" x="2020.5" y="-354.5" font-family="Helvetica,sans-Serif" font-size="10.00" fill="#000000">/Analysis/DataModel/src</text>
<text text-anchor="middle" x="2079.5" y="-343.5" font-family="Helvetica,sans-Serif" font-size="10.00" fill="#000000">/dummy.cxx</text>
</g>
<!-- Node1 -->
<g id="node2" class="node">
<title>Node1</title>
<g id="a_node2"><a xlink:href="../../dd/ddf/SecondaryVertex_8h.html" target="_top" xlink:title="Analysis/SecondaryVertex.h">
<polygon fill="none" stroke="#000000" points="2003.5,-280.5 2003.5,-299.5 2155.5,-299.5 2155.5,-280.5 2003.5,-280.5"/>
<text text-anchor="middle" x="2079.5" y="-287.5" font-family="Helvetica,sans-Serif" font-size="10.00" fill="#000000">Analysis/SecondaryVertex.h</text>
</a>
</g>
</g>
<!-- Node0&#45;&gt;Node1 -->
<g id="edge1" class="edge">
<title>Node0&#45;&gt;Node1</title>
<path fill="none" stroke="#191970" d="M2079.5,-336.3258C2079.5,-327.5142 2079.5,-317.8397 2079.5,-309.621"/>
<polygon fill="#191970" stroke="#191970" points="2083.0001,-309.534 2079.5,-299.534 2076.0001,-309.534 2083.0001,-309.534"/>
</g>
<!-- Node2 -->
<g id="node3" class="node">
<title>Node2</title>
<g id="a_node3"><a xlink:href="../../d2/d8c/AnalysisDataModel_8h.html" target="_top" xlink:title="Framework/AnalysisDataModel.h">
<polygon fill="none" stroke="#000000" points="1991.5,-224.5 1991.5,-243.5 2167.5,-243.5 2167.5,-224.5 1991.5,-224.5"/>
<text text-anchor="middle" x="2079.5" y="-231.5" font-family="Helvetica,sans-Serif" font-size="10.00" fill="#000000">Framework/AnalysisDataModel.h</text>
</a>
</g>
</g>
<!-- Node1&#45;&gt;Node2 -->
<g id="edge2" class="edge">
<title>Node1&#45;&gt;Node2</title>
<path fill="none" stroke="#191970" d="M2079.5,-280.2455C2079.5,-272.9382 2079.5,-262.6944 2079.5,-253.7046"/>
<polygon fill="#191970" stroke="#191970" points="2083.0001,-253.6426 2079.5,-243.6427 2076.0001,-253.6427 2083.0001,-253.6426"/>
</g>
<!-- Node3 -->
<g id="node4" class="node">
<title>Node3</title>
<g id="a_node4"><a xlink:href="../../de/d33/ASoA_8h.html" target="_top" xlink:title="Framework/ASoA.h">
<polygon fill="none" stroke="#000000" points="1241.5,-168.5 1241.5,-187.5 1349.5,-187.5 1349.5,-168.5 1241.5,-168.5"/>
<text text-anchor="middle" x="1295.5" y="-175.5" font-family="Helvetica,sans-Serif" font-size="10.00" fill="#000000">Framework/ASoA.h</text>
</a>
</g>
</g>
<!-- Node2&#45;&gt;Node3 -->
<g id="edge3" class="edge">
<title>Node2&#45;&gt;Node3</title>
<path fill="none" stroke="#191970" d="M1991.4686,-227.712C1832.2456,-216.339 1499.9581,-192.6041 1359.9252,-182.6018"/>
<polygon fill="#191970" stroke="#191970" points="1360.0031,-179.0985 1349.7791,-181.8771 1359.5043,-186.0807 1360.0031,-179.0985"/>
</g>
<!-- Node33 -->
<g id="node34" class="node">
<title>Node33</title>
<g id="a_node34"><a xlink:href="../../d9/d52/Common_2MathUtils_2include_2MathUtils_2Utils_8h.html" target="_top" xlink:title="MathUtils/Utils.h">
<polygon fill="none" stroke="#000000" points="2261.5,-168.5 2261.5,-187.5 2359.5,-187.5 2359.5,-168.5 2261.5,-168.5"/>
<text text-anchor="middle" x="2310.5" y="-175.5" font-family="Helvetica,sans-Serif" font-size="10.00" fill="#000000">MathUtils/Utils.h</text>
</a>
</g>
</g>
<!-- Node2&#45;&gt;Node33 -->
<g id="edge44" class="edge">
<title>Node2&#45;&gt;Node33</title>
<path fill="none" stroke="#191970" d="M2118.9478,-224.4369C2158.3156,-214.8932 2218.9034,-200.2052 2261.3708,-189.9101"/>
<polygon fill="#191970" stroke="#191970" points="2262.321,-193.2812 2271.2149,-187.5237 2260.6717,-186.4783 2262.321,-193.2812"/>
</g>
<!-- Node35 -->
<g id="node36" class="node">
<title>Node35</title>
<polygon fill="none" stroke="#bfbfbf" points="2107,-56.5 2107,-75.5 2154,-75.5 2154,-56.5 2107,-56.5"/>
<text text-anchor="middle" x="2130.5" y="-63.5" font-family="Helvetica,sans-Serif" font-size="10.00" fill="#000000">cmath</text>
</g>
<!-- Node2&#45;&gt;Node35 -->
<g id="edge55" class="edge">
<title>Node2&#45;&gt;Node35</title>
<path fill="none" stroke="#191970" d="M2082.3881,-224.4862C2090.4849,-197.8144 2113.5268,-121.9117 2124.5212,-85.695"/>
<polygon fill="#191970" stroke="#191970" points="2127.9607,-86.4134 2127.5165,-75.8279 2121.2626,-84.38 2127.9607,-86.4134"/>
</g>
<!-- Node4 -->
<g id="node5" class="node">
<title>Node4</title>
<g id="a_node5"><a xlink:href="../../dd/dce/Pack_8h.html" target="_top" xlink:title="Framework/Pack.h">
<polygon fill="none" stroke="#000000" points="1901,-56.5 1901,-75.5 2006,-75.5 2006,-56.5 1901,-56.5"/>
<text text-anchor="middle" x="1953.5" y="-63.5" font-family="Helvetica,sans-Serif" font-size="10.00" fill="#000000">Framework/Pack.h</text>
</a>
</g>
</g>
<!-- Node3&#45;&gt;Node4 -->
<g id="edge4" class="edge">
<title>Node3&#45;&gt;Node4</title>
<path fill="none" stroke="#191970" d="M1349.6281,-174.9939C1460.2697,-168.5196 1708.8566,-152.1959 1791.5,-132 1840.6936,-119.9784 1894.5343,-95.6153 1926.0962,-80.0889"/>
<polygon fill="#191970" stroke="#191970" points="1927.7581,-83.1713 1935.1463,-75.5776 1924.6351,-76.9066 1927.7581,-83.1713"/>
</g>
<!-- Node8 -->
<g id="node9" class="node">
<title>Node8</title>
<g id="a_node9"><a xlink:href="../../d1/d00/CheckTypes_8h.html" target="_top" xlink:title="Framework/CheckTypes.h">
<polygon fill="none" stroke="#000000" points="1655.5,-56.5 1655.5,-75.5 1795.5,-75.5 1795.5,-56.5 1655.5,-56.5"/>
<text text-anchor="middle" x="1725.5" y="-63.5" font-family="Helvetica,sans-Serif" font-size="10.00" fill="#000000">Framework/CheckTypes.h</text>
</a>
</g>
</g>
<!-- Node3&#45;&gt;Node8 -->
<g id="edge8" class="edge">
<title>Node3&#45;&gt;Node8</title>
<path fill="none" stroke="#191970" d="M1298.0029,-168.4463C1302.4348,-153.6139 1313.1722,-125.3657 1333.5,-112 1389.482,-75.1914 1561.642,-83.5525 1645.2764,-75.8674"/>
<polygon fill="#191970" stroke="#191970" points="1645.6852,-79.3438 1655.2645,-74.8176 1644.9534,-72.3822 1645.6852,-79.3438"/>
</g>
<!-- Node9 -->
<g id="node10" class="node">
<title>Node9</title>
<g id="a_node10"><a xlink:href="../../de/d9b/FunctionalHelpers_8h.html" target="_top" xlink:title="Framework/FunctionalHelpers.h">
<polygon fill="none" stroke="#000000" points="1868.5,-112.5 1868.5,-131.5 2038.5,-131.5 2038.5,-112.5 1868.5,-112.5"/>
<text text-anchor="middle" x="1953.5" y="-119.5" font-family="Helvetica,sans-Serif" font-size="10.00" fill="#000000">Framework/FunctionalHelpers.h</text>
</a>
</g>
</g>
<!-- Node3&#45;&gt;Node9 -->
<g id="edge9" class="edge">
<title>Node3&#45;&gt;Node9</title>
<path fill="none" stroke="#191970" d="M1349.669,-173.6039C1448.1776,-165.5775 1663.2293,-147.9091 1844.5,-132 1848.9871,-131.6062 1853.5777,-131.1996 1858.2142,-130.7859"/>
<polygon fill="#191970" stroke="#191970" points="1858.7678,-134.2504 1868.4153,-129.8713 1858.1427,-127.2784 1858.7678,-134.2504"/>
</g>
<!-- Node11 -->
<g id="node12" class="node">
<title>Node11</title>
<g id="a_node12"><a xlink:href="../../d9/de8/CompilerBuiltins_8h.html" target="_top" xlink:title="Framework/CompilerBuiltins.h">
<polygon fill="none" stroke="#000000" points="725.5,-56.5 725.5,-75.5 889.5,-75.5 889.5,-56.5 725.5,-56.5"/>
<text text-anchor="middle" x="807.5" y="-63.5" font-family="Helvetica,sans-Serif" font-size="10.00" fill="#000000">Framework/CompilerBuiltins.h</text>
</a>
</g>
</g>
<!-- Node3&#45;&gt;Node11 -->
<g id="edge12" class="edge">
<title>Node3&#45;&gt;Node11</title>
<path fill="none" stroke="#191970" d="M1241.0995,-174.7491C1130.9635,-167.8147 889.2434,-150.673 856.5,-132 837.7886,-121.3292 824.1079,-100.298 816.0303,-84.8328"/>
<polygon fill="#191970" stroke="#191970" points="819.0716,-83.0847 811.5347,-75.6385 812.7831,-86.1596 819.0716,-83.0847"/>
</g>
<!-- Node12 -->
<g id="node13" class="node">
<title>Node12</title>
<g id="a_node13"><a xlink:href="../../db/d31/Traits_8h.html" target="_top" xlink:title="Framework/Traits.h">
<polygon fill="none" stroke="#000000" points="1674,-112.5 1674,-131.5 1783,-131.5 1783,-112.5 1674,-112.5"/>
<text text-anchor="middle" x="1728.5" y="-119.5" font-family="Helvetica,sans-Serif" font-size="10.00" fill="#000000">Framework/Traits.h</text>
</a>
</g>
</g>
<!-- Node3&#45;&gt;Node12 -->
<g id="edge13" class="edge">
<title>Node3&#45;&gt;Node12</title>
<path fill="none" stroke="#191970" d="M1349.503,-171.4872C1420.6132,-162.8398 1549.515,-146.9183 1659.5,-132 1660.9618,-131.8017 1662.4409,-131.5997 1663.9321,-131.3946"/>
<polygon fill="#191970" stroke="#191970" points="1664.4779,-134.8525 1673.8997,-130.0068 1663.5125,-127.9194 1664.4779,-134.8525"/>
</g>
<!-- Node14 -->
<g id="node15" class="node">
<title>Node14</title>
<g id="a_node15"><a xlink:href="../../d0/d91/Expressions_8h.html" target="_top" xlink:title="Framework/Expressions.h">
<polygon fill="none" stroke="#000000" points="1107,-112.5 1107,-131.5 1248,-131.5 1248,-112.5 1107,-112.5"/>
<text text-anchor="middle" x="1177.5" y="-119.5" font-family="Helvetica,sans-Serif" font-size="10.00" fill="#000000">Framework/Expressions.h</text>
</a>
</g>
</g>
<!-- Node3&#45;&gt;Node14 -->
<g id="edge15" class="edge">
<title>Node3&#45;&gt;Node14</title>
<path fill="none" stroke="#191970" d="M1275.2151,-168.3733C1256.3579,-159.4241 1228.054,-145.9917 1206.7545,-135.8835"/>
<polygon fill="#191970" stroke="#191970" points="1208.0551,-132.6266 1197.5202,-131.5011 1205.0539,-138.9506 1208.0551,-132.6266"/>
</g>
<!-- Node17 -->
<g id="node18" class="node">
<title>Node17</title>
<polygon fill="none" stroke="#bfbfbf" points="908,-56.5 908,-75.5 989,-75.5 989,-56.5 908,-56.5"/>
<text text-anchor="middle" x="948.5" y="-63.5" font-family="Helvetica,sans-Serif" font-size="10.00" fill="#000000">arrow/table.h</text>
</g>
<!-- Node3&#45;&gt;Node17 -->
<g id="edge37" class="edge">
<title>Node3&#45;&gt;Node17</title>
<path fill="none" stroke="#191970" d="M1242.2205,-168.4597C1201.9272,-160.5659 1145.529,-148.0564 1097.5,-132 1085.6015,-128.0222 1018.6607,-97.872 978.6643,-79.7272"/>
<polygon fill="#191970" stroke="#191970" points="979.9187,-76.4529 969.3663,-75.5052 977.0245,-82.8266 979.9187,-76.4529"/>
</g>
<!-- Node18 -->
<g id="node19" class="node">
<title>Node18</title>
<polygon fill="none" stroke="#bfbfbf" points="1490,-56.5 1490,-75.5 1637,-75.5 1637,-56.5 1490,-56.5"/>
<text text-anchor="middle" x="1563.5" y="-63.5" font-family="Helvetica,sans-Serif" font-size="10.00" fill="#000000">gandiva/selection_vector.h</text>
</g>
<!-- Node3&#45;&gt;Node18 -->
<g id="edge42" class="edge">
<title>Node3&#45;&gt;Node18</title>
<path fill="none" stroke="#191970" d="M1292.8864,-168.0542C1289.7777,-153.7265 1286.6045,-127.3215 1300.5,-112 1306.8515,-104.9967 1411.9567,-88.2325 1487.3443,-76.9958"/>
<polygon fill="#191970" stroke="#191970" points="1487.9295,-80.4474 1497.3073,-75.5171 1486.9017,-73.5232 1487.9295,-80.4474"/>
</g>
<!-- Node24 -->
<g id="node25" class="node">
<title>Node24</title>
<g id="a_node25"><a xlink:href="../../d0/d92/Kernels_8h.html" target="_top" xlink:title="Framework/Kernels.h">
<polygon fill="none" stroke="#000000" points="385,-112.5 385,-131.5 504,-131.5 504,-112.5 385,-112.5"/>
<text text-anchor="middle" x="444.5" y="-119.5" font-family="Helvetica,sans-Serif" font-size="10.00" fill="#000000">Framework/Kernels.h</text>
</a>
</g>
</g>
<!-- Node3&#45;&gt;Node24 -->
<g id="edge28" class="edge">
<title>Node3&#45;&gt;Node24</title>
<path fill="none" stroke="#191970" d="M1241.2965,-174.4331C1092.8367,-164.6638 679.7246,-137.4789 514.3015,-126.5933"/>
<polygon fill="#191970" stroke="#191970" points="514.4498,-123.0956 504.2415,-125.9313 513.9901,-130.0805 514.4498,-123.0956"/>
</g>
<!-- Node25 -->
<g id="node26" class="node">
<title>Node25</title>
<polygon fill="none" stroke="#bfbfbf" points="0,-56.5 0,-75.5 133,-75.5 133,-56.5 0,-56.5"/>
<text text-anchor="middle" x="66.5" y="-63.5" font-family="Helvetica,sans-Serif" font-size="10.00" fill="#000000">arrow/compute/kernel.h</text>
</g>
<!-- Node3&#45;&gt;Node25 -->
<g id="edge41" class="edge">
<title>Node3&#45;&gt;Node25</title>
<path fill="none" stroke="#191970" d="M1241.2466,-176.4321C1070.3577,-171.3131 544.5734,-154.1376 375.5,-132 280.8926,-119.6126 172.1981,-93.5898 112.2342,-78.1791"/>
<polygon fill="#191970" stroke="#191970" points="112.8867,-74.7328 102.3287,-75.6158 111.133,-81.5095 112.8867,-74.7328"/>
</g>
<!-- Node28 -->
<g id="node29" class="node">
<title>Node28</title>
<polygon fill="none" stroke="#bfbfbf" points="389.5,-56.5 389.5,-75.5 499.5,-75.5 499.5,-56.5 389.5,-56.5"/>
<text text-anchor="middle" x="444.5" y="-63.5" font-family="Helvetica,sans-Serif" font-size="10.00" fill="#000000">arrow/util/variant.h</text>
</g>
<!-- Node3&#45;&gt;Node28 -->
<g id="edge39" class="edge">
<title>Node3&#45;&gt;Node28</title>
<path fill="none" stroke="#191970" d="M1241.4196,-173.8764C1154.7132,-166.9869 979.3168,-151.9067 831.5,-132 714.8152,-116.2859 579.391,-91.7271 503.6477,-77.4153"/>
<polygon fill="#191970" stroke="#191970" points="504.2904,-73.9749 493.8135,-75.5513 502.9867,-80.8524 504.2904,-73.9749"/>
</g>
<!-- Node29 -->
<g id="node30" class="node">
<title>Node29</title>
<g id="a_node30"><a xlink:href="../../d1/dc1/ArrowCompatibility_8h.html" target="_top" xlink:title="Framework/ArrowCompatibility.h">
<polygon fill="none" stroke="#000000" points="865.5,-112.5 865.5,-131.5 1041.5,-131.5 1041.5,-112.5 865.5,-112.5"/>
<text text-anchor="middle" x="953.5" y="-119.5" font-family="Helvetica,sans-Serif" font-size="10.00" fill="#000000">Framework/ArrowCompatibility.h</text>
</a>
</g>
</g>
<!-- Node3&#45;&gt;Node29 -->
<g id="edge35" class="edge">
<title>Node3&#45;&gt;Node29</title>
<path fill="none" stroke="#191970" d="M1241.3091,-169.1266C1181.8632,-159.3928 1086.341,-143.7517 1021.8089,-133.1851"/>
<polygon fill="#191970" stroke="#191970" points="1022.1625,-129.6964 1011.7283,-131.5345 1021.0313,-136.6044 1022.1625,-129.6964"/>
</g>
<!-- Node30 -->
<g id="node31" class="node">
<title>Node30</title>
<polygon fill="none" stroke="#bfbfbf" points="1342.5,-112.5 1342.5,-131.5 1422.5,-131.5 1422.5,-112.5 1342.5,-112.5"/>
<text text-anchor="middle" x="1382.5" y="-119.5" font-family="Helvetica,sans-Serif" font-size="10.00" fill="#000000">arrow/array.h</text>
</g>
<!-- Node3&#45;&gt;Node30 -->
<g id="edge38" class="edge">
<title>Node3&#45;&gt;Node30</title>
<path fill="none" stroke="#191970" d="M1310.6542,-168.2455C1324.0027,-159.6534 1343.6586,-147.0014 1359.0383,-137.1018"/>
<polygon fill="#191970" stroke="#191970" points="1361.0051,-139.9982 1367.5194,-131.6427 1357.2164,-134.1121 1361.0051,-139.9982"/>
</g>
<!-- Node31 -->
<g id="node32" class="node">
<title>Node31</title>
<polygon fill="none" stroke="#bfbfbf" points="1441,-112.5 1441,-131.5 1580,-131.5 1580,-112.5 1441,-112.5"/>
<text text-anchor="middle" x="1510.5" y="-119.5" font-family="Helvetica,sans-Serif" font-size="10.00" fill="#000000">arrow/compute/context.h</text>
</g>
<!-- Node3&#45;&gt;Node31 -->
<g id="edge40" class="edge">
<title>Node3&#45;&gt;Node31</title>
<path fill="none" stroke="#191970" d="M1332.4598,-168.3733C1368.9075,-158.8799 1424.7246,-144.3415 1464.1289,-134.0781"/>
<polygon fill="#191970" stroke="#191970" points="1465.2276,-137.4087 1474.0225,-131.5011 1463.4631,-130.6348 1465.2276,-137.4087"/>
</g>
<!-- Node32 -->
<g id="node33" class="node">
<title>Node32</title>
<polygon fill="none" stroke="#bfbfbf" points="1598.5,-112.5 1598.5,-131.5 1650.5,-131.5 1650.5,-112.5 1598.5,-112.5"/>
<text text-anchor="middle" x="1624.5" y="-119.5" font-family="Helvetica,sans-Serif" font-size="10.00" fill="#000000">cassert</text>
</g>
<!-- Node3&#45;&gt;Node32 -->
<g id="edge43" class="edge">
<title>Node3&#45;&gt;Node32</title>
<path fill="none" stroke="#191970" d="M1349.5782,-171.4094C1408.6376,-163.7711 1505.8431,-149.9062 1588.5,-132 1588.5991,-131.9785 1588.6982,-131.957 1588.7976,-131.9353"/>
<polygon fill="#191970" stroke="#191970" points="1589.3329,-135.4062 1598.241,-129.6707 1587.7005,-128.5992 1589.3329,-135.4062"/>
</g>
<!-- Node5 -->
<g id="node6" class="node">
<title>Node5</title>
<polygon fill="none" stroke="#bfbfbf" points="1860,-.5 1860,-19.5 1913,-19.5 1913,-.5 1860,-.5"/>
<text text-anchor="middle" x="1886.5" y="-7.5" font-family="Helvetica,sans-Serif" font-size="10.00" fill="#000000">cstddef</text>
</g>
<!-- Node4&#45;&gt;Node5 -->
<g id="edge5" class="edge">
<title>Node4&#45;&gt;Node5</title>
<path fill="none" stroke="#191970" d="M1941.8295,-56.2455C1931.9339,-47.9746 1917.5373,-35.9416 1905.9099,-26.2232"/>
<polygon fill="#191970" stroke="#191970" points="1907.9542,-23.3703 1898.0368,-19.6427 1903.465,-28.7413 1907.9542,-23.3703"/>
</g>
<!-- Node6 -->
<g id="node7" class="node">
<title>Node6</title>
<polygon fill="none" stroke="#bfbfbf" points="1931,-.5 1931,-19.5 1976,-19.5 1976,-.5 1931,-.5"/>
<text text-anchor="middle" x="1953.5" y="-7.5" font-family="Helvetica,sans-Serif" font-size="10.00" fill="#000000">utility</text>
</g>
<!-- Node4&#45;&gt;Node6 -->
<g id="edge6" class="edge">
<title>Node4&#45;&gt;Node6</title>
<path fill="none" stroke="#191970" d="M1953.5,-56.2455C1953.5,-48.9382 1953.5,-38.6944 1953.5,-29.7046"/>
<polygon fill="#191970" stroke="#191970" points="1957.0001,-29.6426 1953.5,-19.6427 1950.0001,-29.6427 1957.0001,-29.6426"/>
</g>
<!-- Node7 -->
<g id="node8" class="node">
<title>Node7</title>
<polygon fill="none" stroke="#bfbfbf" points="1994.5,-.5 1994.5,-19.5 2040.5,-19.5 2040.5,-.5 1994.5,-.5"/>
<text text-anchor="middle" x="2017.5" y="-7.5" font-family="Helvetica,sans-Serif" font-size="10.00" fill="#000000">cstdio</text>
</g>
<!-- Node4&#45;&gt;Node7 -->
<g id="edge7" class="edge">
<title>Node4&#45;&gt;Node7</title>
<path fill="none" stroke="#191970" d="M1964.6479,-56.2455C1974.0087,-48.0549 1987.5858,-36.1749 1998.6349,-26.5069"/>
<polygon fill="#191970" stroke="#191970" points="2001.2588,-28.8618 2006.4798,-19.6427 1996.6492,-23.5937 2001.2588,-28.8618"/>
</g>
<!-- Node9&#45;&gt;Node4 -->
<g id="edge10" class="edge">
<title>Node9&#45;&gt;Node4</title>
<path fill="none" stroke="#191970" d="M1953.5,-112.2455C1953.5,-104.9382 1953.5,-94.6944 1953.5,-85.7046"/>
<polygon fill="#191970" stroke="#191970" points="1957.0001,-85.6426 1953.5,-75.6427 1950.0001,-85.6427 1957.0001,-85.6426"/>
</g>
<!-- Node10 -->
<g id="node11" class="node">
<title>Node10</title>
<polygon fill="none" stroke="#bfbfbf" points="2024,-56.5 2024,-75.5 2089,-75.5 2089,-56.5 2024,-56.5"/>
<text text-anchor="middle" x="2056.5" y="-63.5" font-family="Helvetica,sans-Serif" font-size="10.00" fill="#000000">functional</text>
</g>
<!-- Node9&#45;&gt;Node10 -->
<g id="edge11" class="edge">
<title>Node9&#45;&gt;Node10</title>
<path fill="none" stroke="#191970" d="M1971.4412,-112.2455C1987.54,-103.4928 2011.3879,-90.527 2029.7391,-80.5496"/>
<polygon fill="#191970" stroke="#191970" points="2031.6507,-83.4942 2038.7644,-75.6427 2028.3071,-77.3444 2031.6507,-83.4942"/>
</g>
<!-- Node13 -->
<g id="node14" class="node">
<title>Node13</title>
<polygon fill="none" stroke="#bfbfbf" points="1814,-56.5 1814,-75.5 1883,-75.5 1883,-56.5 1814,-56.5"/>
<text text-anchor="middle" x="1848.5" y="-63.5" font-family="Helvetica,sans-Serif" font-size="10.00" fill="#000000">type_traits</text>
</g>
<!-- Node12&#45;&gt;Node13 -->
<g id="edge14" class="edge">
<title>Node12&#45;&gt;Node13</title>
<path fill="none" stroke="#191970" d="M1749.1287,-112.3733C1768.3919,-103.3838 1797.3486,-89.8706 1819.0419,-79.7471"/>
<polygon fill="#191970" stroke="#191970" points="1820.5587,-82.9017 1828.1405,-75.5011 1817.5985,-76.5584 1820.5587,-82.9017"/>
</g>
<!-- Node14&#45;&gt;Node4 -->
<g id="edge18" class="edge">
<title>Node14&#45;&gt;Node4</title>
<path fill="none" stroke="#191970" d="M1248.1167,-117.4724C1414.295,-106.8151 1820.8037,-80.7291 1890.7467,-75.6517"/>
<polygon fill="#191970" stroke="#191970" points="1891.0905,-79.1355 1900.7819,-74.8544 1890.5361,-72.1575 1891.0905,-79.1355"/>
</g>
<!-- Node14&#45;&gt;Node8 -->
<g id="edge19" class="edge">
<title>Node14&#45;&gt;Node8</title>
<path fill="none" stroke="#191970" d="M1248.1255,-115.6431C1337.7442,-107.4454 1497.3546,-92.4086 1645.1073,-76.0168"/>
<polygon fill="#191970" stroke="#191970" points="1645.7211,-79.4702 1655.2723,-74.8848 1644.9463,-72.5132 1645.7211,-79.4702"/>
</g>
<!-- Node14&#45;&gt;Node11 -->
<g id="edge17" class="edge">
<title>Node14&#45;&gt;Node11</title>
<path fill="none" stroke="#191970" d="M1114.3151,-112.4369C1049.5292,-102.6314 948.8644,-87.3957 880.6618,-77.0731"/>
<polygon fill="#191970" stroke="#191970" points="880.8354,-73.5596 870.4243,-75.5237 879.7879,-80.4808 880.8354,-73.5596"/>
</g>
<!-- Node15 -->
<g id="node16" class="node">
<title>Node15</title>
<g id="a_node16"><a xlink:href="../../dd/dc2/BasicOps_8h.html" target="_top" xlink:title="Framework/BasicOps.h">
<polygon fill="none" stroke="#000000" points="579.5,-56.5 579.5,-75.5 707.5,-75.5 707.5,-56.5 579.5,-56.5"/>
<text text-anchor="middle" x="643.5" y="-63.5" font-family="Helvetica,sans-Serif" font-size="10.00" fill="#000000">Framework/BasicOps.h</text>
</a>
</g>
</g>
<!-- Node14&#45;&gt;Node15 -->
<g id="edge16" class="edge">
<title>Node14&#45;&gt;Node15</title>
<path fill="none" stroke="#191970" d="M1106.7288,-115.7508C1018.2875,-107.759 862.0234,-93.04 717.9297,-76.134"/>
<polygon fill="#191970" stroke="#191970" points="717.9182,-72.6085 707.5771,-74.913 717.0983,-79.5603 717.9182,-72.6085"/>
</g>
<!-- Node16 -->
<g id="node17" class="node">
<title>Node16</title>
<polygon fill="none" stroke="#bfbfbf" points="1007,-56.5 1007,-75.5 1108,-75.5 1108,-56.5 1007,-56.5"/>
<text text-anchor="middle" x="1057.5" y="-63.5" font-family="Helvetica,sans-Serif" font-size="10.00" fill="#000000">arrow/type_fwd.h</text>
</g>
<!-- Node14&#45;&gt;Node16 -->
<g id="edge20" class="edge">
<title>Node14&#45;&gt;Node16</title>
<path fill="none" stroke="#191970" d="M1156.8713,-112.3733C1137.6081,-103.3838 1108.6514,-89.8706 1086.9581,-79.7471"/>
<polygon fill="#191970" stroke="#191970" points="1088.4015,-76.5584 1077.8595,-75.5011 1085.4413,-82.9017 1088.4015,-76.5584"/>
</g>
<!-- Node14&#45;&gt;Node17 -->
<g id="edge21" class="edge">
<title>Node14&#45;&gt;Node17</title>
<path fill="none" stroke="#191970" d="M1138.3937,-112.4369C1099.3668,-102.8932 1039.3035,-88.2052 997.2038,-77.9101"/>
<polygon fill="#191970" stroke="#191970" points="997.9902,-74.4993 987.445,-75.5237 996.3274,-81.299 997.9902,-74.4993"/>
</g>
<!-- Node14&#45;&gt;Node18 -->
<g id="edge22" class="edge">
<title>Node14&#45;&gt;Node18</title>
<path fill="none" stroke="#191970" d="M1243.4172,-112.4369C1311.1435,-102.6113 1416.454,-87.3331 1487.6123,-77.0096"/>
<polygon fill="#191970" stroke="#191970" points="1488.4608,-80.4232 1497.8547,-75.5237 1487.4558,-73.4958 1488.4608,-80.4232"/>
</g>
<!-- Node19 -->
<g id="node20" class="node">
<title>Node19</title>
<polygon fill="none" stroke="#bfbfbf" points="1126.5,-56.5 1126.5,-75.5 1218.5,-75.5 1218.5,-56.5 1126.5,-56.5"/>
<text text-anchor="middle" x="1172.5" y="-63.5" font-family="Helvetica,sans-Serif" font-size="10.00" fill="#000000">gandiva/node.h</text>
</g>
<!-- Node14&#45;&gt;Node19 -->
<g id="edge23" class="edge">
<title>Node14&#45;&gt;Node19</title>
<path fill="none" stroke="#191970" d="M1176.6291,-112.2455C1175.9766,-104.9382 1175.062,-94.6944 1174.2593,-85.7046"/>
<polygon fill="#191970" stroke="#191970" points="1177.7365,-85.2918 1173.361,-75.6427 1170.7642,-85.9143 1177.7365,-85.2918"/>
</g>
<!-- Node20 -->
<g id="node21" class="node">
<title>Node20</title>
<polygon fill="none" stroke="#bfbfbf" points="1237,-56.5 1237,-75.5 1326,-75.5 1326,-56.5 1237,-56.5"/>
<text text-anchor="middle" x="1281.5" y="-63.5" font-family="Helvetica,sans-Serif" font-size="10.00" fill="#000000">gandiva/filter.h</text>
</g>
<!-- Node14&#45;&gt;Node20 -->
<g id="edge24" class="edge">
<title>Node14&#45;&gt;Node20</title>
<path fill="none" stroke="#191970" d="M1195.6154,-112.2455C1211.945,-103.4527 1236.171,-90.4079 1254.7339,-80.4125"/>
<polygon fill="#191970" stroke="#191970" points="1256.4468,-83.4654 1263.5922,-75.6427 1253.1281,-77.3021 1256.4468,-83.4654"/>
</g>
<!-- Node21 -->
<g id="node22" class="node">
<title>Node21</title>
<polygon fill="none" stroke="#bfbfbf" points="1344,-56.5 1344,-75.5 1395,-75.5 1395,-56.5 1344,-56.5"/>
<text text-anchor="middle" x="1369.5" y="-63.5" font-family="Helvetica,sans-Serif" font-size="10.00" fill="#000000">variant</text>
</g>
<!-- Node14&#45;&gt;Node21 -->
<g id="edge25" class="edge">
<title>Node14&#45;&gt;Node21</title>
<path fill="none" stroke="#191970" d="M1210.506,-112.3733C1244.9535,-102.3261 1298.7756,-86.6279 1334.0924,-76.3272"/>
<polygon fill="#191970" stroke="#191970" points="1335.3537,-79.6053 1343.9737,-73.4452 1333.3936,-72.8853 1335.3537,-79.6053"/>
</g>
<!-- Node22 -->
<g id="node23" class="node">
<title>Node22</title>
<polygon fill="none" stroke="#bfbfbf" points="517.5,-56.5 517.5,-75.5 561.5,-75.5 561.5,-56.5 517.5,-56.5"/>
<text text-anchor="middle" x="539.5" y="-63.5" font-family="Helvetica,sans-Serif" font-size="10.00" fill="#000000">string</text>
</g>
<!-- Node14&#45;&gt;Node22 -->
<g id="edge26" class="edge">
<title>Node14&#45;&gt;Node22</title>
<path fill="none" stroke="#191970" d="M1106.9691,-116.3995C1088.5876,-114.9528 1068.803,-113.4069 1050.5,-112 840.4255,-95.8516 782.196,-116.4849 571.5085,-75.7738"/>
<polygon fill="#191970" stroke="#191970" points="572.1708,-72.3371 561.685,-73.8529 570.8274,-79.207 572.1708,-72.3371"/>
</g>
<!-- Node23 -->
<g id="node24" class="node">
<title>Node23</title>
<polygon fill="none" stroke="#bfbfbf" points="1413.5,-56.5 1413.5,-75.5 1471.5,-75.5 1471.5,-56.5 1413.5,-56.5"/>
<text text-anchor="middle" x="1442.5" y="-63.5" font-family="Helvetica,sans-Serif" font-size="10.00" fill="#000000">memory</text>
</g>
<!-- Node14&#45;&gt;Node23 -->
<g id="edge27" class="edge">
<title>Node14&#45;&gt;Node23</title>
<path fill="none" stroke="#191970" d="M1227.9227,-112.4892C1271.675,-104.0665 1336.9333,-91.098 1403.3465,-75.9448"/>
<polygon fill="#191970" stroke="#191970" points="1404.188,-79.3428 1413.1511,-73.6935 1402.6215,-72.5203 1404.188,-79.3428"/>
</g>
<!-- Node24&#45;&gt;Node15 -->
<g id="edge29" class="edge">
<title>Node24&#45;&gt;Node15</title>
<path fill="none" stroke="#191970" d="M478.7093,-112.3733C512.2297,-102.9404 563.4505,-88.5265 599.881,-78.2747"/>
<polygon fill="#191970" stroke="#191970" points="601.0591,-81.5792 609.7371,-75.5011 599.1628,-74.8409 601.0591,-81.5792"/>
</g>
<!-- Node24&#45;&gt;Node22 -->
<g id="edge34" class="edge">
<title>Node24&#45;&gt;Node22</title>
<path fill="none" stroke="#191970" d="M461.0477,-112.2455C475.7599,-103.5731 497.4888,-90.7645 514.3505,-80.825"/>
<polygon fill="#191970" stroke="#191970" points="516.3046,-83.736 523.1419,-75.6427 512.7498,-77.7057 516.3046,-83.736"/>
</g>
<!-- Node24&#45;&gt;Node25 -->
<g id="edge30" class="edge">
<title>Node24&#45;&gt;Node25</title>
<path fill="none" stroke="#191970" d="M384.6048,-113.1266C318.6311,-103.3528 212.4546,-87.6229 141.1205,-77.0549"/>
<polygon fill="#191970" stroke="#191970" points="141.2626,-73.5378 130.8576,-75.5345 140.2367,-80.4622 141.2626,-73.5378"/>
</g>
<!-- Node26 -->
<g id="node27" class="node">
<title>Node26</title>
<polygon fill="none" stroke="#bfbfbf" points="285.5,-56.5 285.5,-75.5 371.5,-75.5 371.5,-56.5 285.5,-56.5"/>
<text text-anchor="middle" x="328.5" y="-63.5" font-family="Helvetica,sans-Serif" font-size="10.00" fill="#000000">arrow/status.h</text>
</g>
<!-- Node24&#45;&gt;Node26 -->
<g id="edge31" class="edge">
<title>Node24&#45;&gt;Node26</title>
<path fill="none" stroke="#191970" d="M424.5589,-112.3733C406.0214,-103.4241 378.1972,-89.9917 357.2587,-79.8835"/>
<polygon fill="#191970" stroke="#191970" points="358.7081,-76.6967 348.1809,-75.5011 355.6648,-83.0006 358.7081,-76.6967"/>
</g>
<!-- Node27 -->
<g id="node28" class="node">
<title>Node27</title>
<polygon fill="none" stroke="#bfbfbf" points="151.5,-56.5 151.5,-75.5 267.5,-75.5 267.5,-56.5 151.5,-56.5"/>
<text text-anchor="middle" x="209.5" y="-63.5" font-family="Helvetica,sans-Serif" font-size="10.00" fill="#000000">arrow/util/visibility.h</text>
</g>
<!-- Node24&#45;&gt;Node27 -->
<g id="edge32" class="edge">
<title>Node24&#45;&gt;Node27</title>
<path fill="none" stroke="#191970" d="M404.3691,-112.4369C364.2351,-102.8731 302.4225,-88.1432 259.2067,-77.845"/>
<polygon fill="#191970" stroke="#191970" points="260.0044,-74.4372 249.4654,-75.5237 258.3817,-81.2465 260.0044,-74.4372"/>
</g>
<!-- Node24&#45;&gt;Node28 -->
<g id="edge33" class="edge">
<title>Node24&#45;&gt;Node28</title>
<path fill="none" stroke="#191970" d="M444.5,-112.2455C444.5,-104.9382 444.5,-94.6944 444.5,-85.7046"/>
<polygon fill="#191970" stroke="#191970" points="448.0001,-85.6426 444.5,-75.6427 441.0001,-85.6427 448.0001,-85.6426"/>
</g>
<!-- Node29&#45;&gt;Node17 -->
<g id="edge36" class="edge">
<title>Node29&#45;&gt;Node17</title>
<path fill="none" stroke="#191970" d="M952.6291,-112.2455C951.9766,-104.9382 951.062,-94.6944 950.2593,-85.7046"/>
<polygon fill="#191970" stroke="#191970" points="953.7365,-85.2918 949.361,-75.6427 946.7642,-85.9143 953.7365,-85.2918"/>
</g>
<!-- Node34 -->
<g id="node35" class="node">
<title>Node34</title>
<polygon fill="none" stroke="#bfbfbf" points="2357.5,-112.5 2357.5,-131.5 2399.5,-131.5 2399.5,-112.5 2357.5,-112.5"/>
<text text-anchor="middle" x="2378.5" y="-119.5" font-family="Helvetica,sans-Serif" font-size="10.00" fill="#000000">array</text>
</g>
<!-- Node33&#45;&gt;Node34 -->
<g id="edge45" class="edge">
<title>Node33&#45;&gt;Node34</title>
<path fill="none" stroke="#191970" d="M2322.3447,-168.2455C2332.388,-159.9746 2346.9995,-147.9416 2358.8004,-138.2232"/>
<polygon fill="#191970" stroke="#191970" points="2361.2967,-140.7015 2366.791,-131.6427 2356.8467,-135.298 2361.2967,-140.7015"/>
</g>
<!-- Node33&#45;&gt;Node35 -->
<g id="edge46" class="edge">
<title>Node33&#45;&gt;Node35</title>
<path fill="none" stroke="#191970" d="M2261.3924,-171.3649C2215.7705,-164.1245 2152.5313,-150.9752 2136.5,-132 2125.8493,-119.3935 2125.2502,-100.194 2126.7825,-85.7472"/>
<polygon fill="#191970" stroke="#191970" points="2130.2511,-86.216 2128.2385,-75.8141 2123.3251,-85.2007 2130.2511,-86.216"/>
</g>
<!-- Node36 -->
<g id="node37" class="node">
<title>Node36</title>
<g id="a_node37"><a xlink:href="../../df/d21/GPUCommonDef_8h.html" target="_top" xlink:title="GPUCommonDef.h">
<polygon fill="none" stroke="#000000" points="2508,-56.5 2508,-75.5 2615,-75.5 2615,-56.5 2508,-56.5"/>
<text text-anchor="middle" x="2561.5" y="-63.5" font-family="Helvetica,sans-Serif" font-size="10.00" fill="#000000">GPUCommonDef.h</text>
</a>
</g>
</g>
<!-- Node33&#45;&gt;Node36 -->
<g id="edge47" class="edge">
<title>Node33&#45;&gt;Node36</title>
<path fill="none" stroke="#191970" d="M2359.5971,-174.0974C2419.2944,-168.3779 2515.3355,-155.7261 2541.5,-132 2554.3632,-120.3355 2559.0708,-100.7046 2560.735,-85.8774"/>
<polygon fill="#191970" stroke="#191970" points="2564.2415,-85.9205 2561.4991,-75.6868 2557.2611,-85.3971 2564.2415,-85.9205"/>
</g>
<!-- Node39 -->
<g id="node40" class="node">
<title>Node39</title>
<g id="a_node40"><a xlink:href="../../d6/da2/GPUCommonMath_8h.html" target="_top" xlink:title="GPUCommonMath.h">
<polygon fill="none" stroke="#000000" points="2418,-112.5 2418,-131.5 2533,-131.5 2533,-112.5 2418,-112.5"/>
<text text-anchor="middle" x="2475.5" y="-119.5" font-family="Helvetica,sans-Serif" font-size="10.00" fill="#000000">GPUCommonMath.h</text>
</a>
</g>
</g>
<!-- Node33&#45;&gt;Node39 -->
<g id="edge50" class="edge">
<title>Node33&#45;&gt;Node39</title>
<path fill="none" stroke="#191970" d="M2338.8645,-168.3733C2366.1827,-159.1016 2407.6796,-145.0178 2437.7738,-134.804"/>
<polygon fill="#191970" stroke="#191970" points="2439.161,-138.0294 2447.5056,-131.5011 2436.9113,-131.4008 2439.161,-138.0294"/>
</g>
<!-- Node41 -->
<g id="node42" class="node">
<title>Node41</title>
<g id="a_node42"><a xlink:href="../../d6/d84/MathConstants_8h.html" target="_top" xlink:title="useful math constants ">
<polygon fill="none" stroke="#000000" points="2145.5,-112.5 2145.5,-131.5 2339.5,-131.5 2339.5,-112.5 2145.5,-112.5"/>
<text text-anchor="middle" x="2242.5" y="-119.5" font-family="Helvetica,sans-Serif" font-size="10.00" fill="#000000">CommonConstants/MathConstants.h</text>
</a>
</g>
</g>
<!-- Node33&#45;&gt;Node41 -->
<g id="edge54" class="edge">
<title>Node33&#45;&gt;Node41</title>
<path fill="none" stroke="#191970" d="M2298.6553,-168.2455C2288.612,-159.9746 2274.0005,-147.9416 2262.1996,-138.2232"/>
<polygon fill="#191970" stroke="#191970" points="2264.1533,-135.298 2254.209,-131.6427 2259.7033,-140.7015 2264.1533,-135.298"/>
</g>
<!-- Node37 -->
<g id="node38" class="node">
<title>Node37</title>
<g id="a_node38"><a xlink:href="../../d5/d93/GPUCommonDefSettings_8h.html" target="_top" xlink:title="GPUCommonDefSettings.h">
<polygon fill="none" stroke="#000000" points="2564.5,-.5 2564.5,-19.5 2712.5,-19.5 2712.5,-.5 2564.5,-.5"/>
<text text-anchor="middle" x="2638.5" y="-7.5" font-family="Helvetica,sans-Serif" font-size="10.00" fill="#000000">GPUCommonDefSettings.h</text>
</a>
</g>
</g>
<!-- Node36&#45;&gt;Node37 -->
<g id="edge48" class="edge">
<title>Node36&#45;&gt;Node37</title>
<path fill="none" stroke="#191970" d="M2574.9124,-56.2455C2586.5057,-47.814 2603.4748,-35.4729 2616.9678,-25.6598"/>
<polygon fill="#191970" stroke="#191970" points="2619.2126,-28.355 2625.2413,-19.6427 2615.0953,-22.6938 2619.2126,-28.355"/>
</g>
<!-- Node38 -->
<g id="node39" class="node">
<title>Node38</title>
<g id="a_node39"><a xlink:href="../../da/d5a/GPUCommonDefAPI_8h.html" target="_top" xlink:title="GPUCommonDefAPI.h">
<polygon fill="none" stroke="#000000" points="2422.5,-.5 2422.5,-19.5 2546.5,-19.5 2546.5,-.5 2422.5,-.5"/>
<text text-anchor="middle" x="2484.5" y="-7.5" font-family="Helvetica,sans-Serif" font-size="10.00" fill="#000000">GPUCommonDefAPI.h</text>
</a>
</g>
</g>
<!-- Node36&#45;&gt;Node38 -->
<g id="edge49" class="edge">
<title>Node36&#45;&gt;Node38</title>
<path fill="none" stroke="#191970" d="M2548.0876,-56.2455C2536.4943,-47.814 2519.5252,-35.4729 2506.0322,-25.6598"/>
<polygon fill="#191970" stroke="#191970" points="2507.9047,-22.6938 2497.7587,-19.6427 2503.7874,-28.355 2507.9047,-22.6938"/>
</g>
<!-- Node39&#45;&gt;Node35 -->
<g id="edge52" class="edge">
<title>Node39&#45;&gt;Node35</title>
<path fill="none" stroke="#191970" d="M2417.7548,-112.6269C2345.1908,-100.8484 2223.0447,-81.0217 2164.1949,-71.4693"/>
<polygon fill="#191970" stroke="#191970" points="2164.7352,-68.0113 2154.3036,-69.8638 2163.6136,-74.9209 2164.7352,-68.0113"/>
</g>
<!-- Node39&#45;&gt;Node36 -->
<g id="edge51" class="edge">
<title>Node39&#45;&gt;Node36</title>
<path fill="none" stroke="#191970" d="M2490.4801,-112.2455C2503.6751,-103.6534 2523.1051,-91.0014 2538.3079,-81.1018"/>
<polygon fill="#191970" stroke="#191970" points="2540.2215,-84.0325 2546.6916,-75.6427 2536.4017,-78.1665 2540.2215,-84.0325"/>
</g>
<!-- Node40 -->
<g id="node41" class="node">
<title>Node40</title>
<polygon fill="none" stroke="#bfbfbf" points="2425.5,-56.5 2425.5,-75.5 2489.5,-75.5 2489.5,-56.5 2425.5,-56.5"/>
<text text-anchor="middle" x="2457.5" y="-63.5" font-family="Helvetica,sans-Serif" font-size="10.00" fill="#000000">algorithm</text>
</g>
<!-- Node39&#45;&gt;Node40 -->
<g id="edge53" class="edge">
<title>Node39&#45;&gt;Node40</title>
<path fill="none" stroke="#191970" d="M2472.3646,-112.2455C2469.99,-104.8579 2466.6507,-94.4689 2463.7385,-85.4087"/>
<polygon fill="#191970" stroke="#191970" points="2466.9917,-84.0919 2460.5994,-75.6427 2460.3275,-86.234 2466.9917,-84.0919"/>
</g>
</g>
</svg>
        <g id="navigator" transform="translate(0 0)" fill="#404254">
                <rect fill="#f2f5e9" fill-opacity="0.5" stroke="#606060" stroke-width=".5" x="0" y="0" width="60" height="60"/>
                <use id="zoomplus" xlink:href="#zoomPlus" x="17" y="9" onmousedown="handleZoom(evt,'in')"/>
                <use id="zoomminus" xlink:href="#zoomMin" x="42" y="9" onmousedown="handleZoom(evt,'out')"/>
                <use id="reset" xlink:href="#resetDef" x="30" y="36" onmousedown="handleReset()"/>
                <g id="arrowUp" xlink:href="#dirArrow" transform="translate(30 24)" onmousedown="handlePan(0,-1)">
                  <use xlink:href="#rim" fill="#404040">
                        <set attributeName="fill" to="#808080" begin="arrowUp.mouseover" end="arrowUp.mouseout"/>
                  </use>
                  <path fill="none" stroke="white" stroke-width="1.5" d="M0,-3.0v7 M-2.5,-0.5L0,-3.0L2.5,-0.5"/>
                </g>
                <g id="arrowRight" xlink:href="#dirArrow" transform="rotate(90) translate(36 -43)" onmousedown="handlePan(1,0)">
                  <use xlink:href="#rim" fill="#404040">
                        <set attributeName="fill" to="#808080" begin="arrowRight.mouseover" end="arrowRight.mouseout"/>
                  </use>
                  <path fill="none" stroke="white" stroke-width="1.5" d="M0,-3.0v7 M-2.5,-0.5L0,-3.0L2.5,-0.5"/>
                </g>
                <g id="arrowDown" xlink:href="#dirArrow" transform="rotate(180) translate(-30 -48)" onmousedown="handlePan(0,1)">
                  <use xlink:href="#rim" fill="#404040">
                        <set attributeName="fill" to="#808080" begin="arrowDown.mouseover" end="arrowDown.mouseout"/>
                  </use>
                  <path fill="none" stroke="white" stroke-width="1.5" d="M0,-3.0v7 M-2.5,-0.5L0,-3.0L2.5,-0.5"/>
                </g>
                <g id="arrowLeft" xlink:href="#dirArrow" transform="rotate(270) translate(-36 17)" onmousedown="handlePan(-1,0)">
                  <use xlink:href="#rim" fill="#404040">
                        <set attributeName="fill" to="#808080" begin="arrowLeft.mouseover" end="arrowLeft.mouseout"/>
                  </use>
                  <path fill="none" stroke="white" stroke-width="1.5" d="M0,-3.0v7 M-2.5,-0.5L0,-3.0L2.5,-0.5"/>
                </g>
        </g>
        <svg viewBox="0 0 15 15" width="100%" height="30px" preserveAspectRatio="xMaxYMin meet">
         <g id="arrow_out" transform="scale(0.3 0.3)">
          <a xlink:href="Analysis_2DataModel_2src_2dummy_8cxx__incl_org.svg" target="_base">
           <rect id="button" ry="5" rx="5" y="6" x="6" height="38" width="38"
                fill="#f2f5e9" fill-opacity="0.5" stroke="#606060" stroke-width="1.0"/>
           <path id="arrow"
             d="M 11.500037,31.436501 C 11.940474,20.09759 22.043105,11.32322 32.158766,21.979434 L 37.068811,17.246167 C 37.068811,17.246167 37.088388,32 37.088388,32 L 22.160133,31.978069 C 22.160133,31.978069 26.997745,27.140456 26.997745,27.140456 C 18.528582,18.264221 13.291696,25.230495 11.500037,31.436501 z"
             style="fill:#404040;"/>
          </a>
         </g>
        </svg>
</svg>
