<?xml version="1.0" encoding="UTF-8" standalone="no"?>
<!DOCTYPE svg PUBLIC "-//W3C//DTD SVG 1.1//EN"
 "http://www.w3.org/Graphics/SVG/1.1/DTD/svg11.dtd">
<!-- Generated by graphviz version 2.40.1 (20161225.0304)
 -->
<!-- Title: /home/travis/build/AliceO2Group/AliceO2/DataFormats/Detectors/FIT/FT0/src/RecPoints.cxx Pages: 1 -->
<svg width="1389pt" height="352pt"
 viewBox="0.00 0.00 1389.00 352.00" xmlns="http://www.w3.org/2000/svg" xmlns:xlink="http://www.w3.org/1999/xlink">
<g id="graph0" class="graph" transform="scale(1 1) rotate(0) translate(4 348)">
<title>/home/travis/build/AliceO2Group/AliceO2/DataFormats/Detectors/FIT/FT0/src/RecPoints.cxx</title>
<!-- Node0 -->
<g id="node1" class="node">
<title>Node0</title>
<polygon fill="#bfbfbf" stroke="#000000" points="922.5,-291.5 922.5,-343.5 1064.5,-343.5 1064.5,-291.5 922.5,-291.5"/>
<text text-anchor="start" x="930.5" y="-331.5" font-family="Helvetica,sans-Serif" font-size="10.00" fill="#000000">/home/travis/build</text>
<text text-anchor="start" x="930.5" y="-320.5" font-family="Helvetica,sans-Serif" font-size="10.00" fill="#000000">/AliceO2Group/AliceO2</text>
<text text-anchor="start" x="930.5" y="-309.5" font-family="Helvetica,sans-Serif" font-size="10.00" fill="#000000">/DataFormats/Detectors</text>
<text text-anchor="middle" x="993.5" y="-298.5" font-family="Helvetica,sans-Serif" font-size="10.00" fill="#000000">/FIT/FT0/src/RecPoints.cxx</text>
</g>
<!-- Node1 -->
<g id="node2" class="node">
<title>Node1</title>
<g id="a_node2"><a xlink:href="../../d4/d57/RecPoints_8h.html" target="_top" xlink:title="Definition of the FIT RecPoints class. ">
<polygon fill="none" stroke="#000000" points="575.5,-235.5 575.5,-254.5 731.5,-254.5 731.5,-235.5 575.5,-235.5"/>
<text text-anchor="middle" x="653.5" y="-242.5" font-family="Helvetica,sans-Serif" font-size="10.00" fill="#000000">DataFormatsFT0/RecPoints.h</text>
</a>
</g>
</g>
<!-- Node0&#45;&gt;Node1 -->
<g id="edge1" class="edge">
<title>Node0&#45;&gt;Node1</title>
<path fill="none" stroke="#191970" d="M922.2249,-302.3016C858.4827,-288.7095 766.402,-269.0747 708.2747,-256.6799"/>
<polygon fill="#191970" stroke="#191970" points="708.6953,-253.191 698.1852,-254.5285 707.2354,-260.0371 708.6953,-253.191"/>
</g>
<!-- Node2 -->
<g id="node3" class="node">
<title>Node2</title>
<g id="a_node3"><a xlink:href="../../d9/d80/InteractionRecord_8h.html" target="_top" xlink:title="CommonDataFormat/Interaction\lRecord.h">
<polygon fill="none" stroke="#000000" points="233.5,-112.5 233.5,-142.5 407.5,-142.5 407.5,-112.5 233.5,-112.5"/>
<text text-anchor="start" x="241.5" y="-130.5" font-family="Helvetica,sans-Serif" font-size="10.00" fill="#000000">CommonDataFormat/Interaction</text>
<text text-anchor="middle" x="320.5" y="-119.5" font-family="Helvetica,sans-Serif" font-size="10.00" fill="#000000">Record.h</text>
</a>
</g>
</g>
<!-- Node0&#45;&gt;Node2 -->
<g id="edge36" class="edge">
<title>Node0&#45;&gt;Node2</title>
<path fill="none" stroke="#191970" d="M922.4902,-310.5326C781.0551,-295.576 470.1472,-256.9784 381.5,-199 362.6649,-186.6812 346.4182,-166.8809 335.4384,-151.2371"/>
<polygon fill="#191970" stroke="#191970" points="338.0994,-148.9234 329.6025,-142.5945 332.2981,-152.8407 338.0994,-148.9234"/>
</g>
<!-- Node5 -->
<g id="node6" class="node">
<title>Node5</title>
<polygon fill="none" stroke="#bfbfbf" points="0,-56.5 0,-75.5 47,-75.5 47,-56.5 0,-56.5"/>
<text text-anchor="middle" x="23.5" y="-63.5" font-family="Helvetica,sans-Serif" font-size="10.00" fill="#000000">cmath</text>
</g>
<!-- Node0&#45;&gt;Node5 -->
<g id="edge33" class="edge">
<title>Node0&#45;&gt;Node5</title>
<path fill="none" stroke="#191970" d="M922.2581,-315.5081C819.6734,-311.2003 625.1352,-297.6284 465.5,-255 300.6522,-210.9796 117.203,-116.7285 50.0007,-80.5521"/>
<polygon fill="#191970" stroke="#191970" points="51.4053,-77.3326 40.9451,-75.6489 48.0723,-83.4882 51.4053,-77.3326"/>
</g>
<!-- Node10 -->
<g id="node11" class="node">
<title>Node10</title>
<g id="a_node11"><a xlink:href="../../dc/d44/FIT_2FT0_2include_2DataFormatsFT0_2ChannelData_8h.html" target="_top" xlink:title="DataFormatsFT0/ChannelData.h">
<polygon fill="none" stroke="#000000" points="1072.5,-118 1072.5,-137 1244.5,-137 1244.5,-118 1072.5,-118"/>
<text text-anchor="middle" x="1158.5" y="-125" font-family="Helvetica,sans-Serif" font-size="10.00" fill="#000000">DataFormatsFT0/ChannelData.h</text>
</a>
</g>
</g>
<!-- Node0&#45;&gt;Node10 -->
<g id="edge31" class="edge">
<title>Node0&#45;&gt;Node10</title>
<path fill="none" stroke="#191970" d="M990.7688,-291.3497C989.0661,-260.8693 991.0547,-210.6471 1017.5,-179 1033.7295,-159.5782 1057.938,-147.4805 1081.7359,-139.9451"/>
<polygon fill="#191970" stroke="#191970" points="1082.9106,-143.2482 1091.5269,-137.083 1080.9466,-136.5294 1082.9106,-143.2482"/>
</g>
<!-- Node12 -->
<g id="node13" class="node">
<title>Node12</title>
<g id="a_node13"><a xlink:href="../../d0/d0a/DataFormats_2Detectors_2FIT_2FT0_2include_2DataFormatsFT0_2Digit_8h.html" target="_top" xlink:title="DataFormatsFT0/Digit.h">
<polygon fill="none" stroke="#000000" points="795.5,-179.5 795.5,-198.5 927.5,-198.5 927.5,-179.5 795.5,-179.5"/>
<text text-anchor="middle" x="861.5" y="-186.5" font-family="Helvetica,sans-Serif" font-size="10.00" fill="#000000">DataFormatsFT0/Digit.h</text>
</a>
</g>
</g>
<!-- Node0&#45;&gt;Node12 -->
<g id="edge32" class="edge">
<title>Node0&#45;&gt;Node12</title>
<path fill="none" stroke="#191970" d="M966.7878,-291.4961C940.487,-265.8926 901.0991,-227.5491 878.7009,-205.7448"/>
<polygon fill="#191970" stroke="#191970" points="880.8802,-202.9817 871.2733,-198.5142 875.9973,-207.9975 880.8802,-202.9817"/>
</g>
<!-- Node15 -->
<g id="node16" class="node">
<title>Node15</title>
<polygon fill="none" stroke="#bfbfbf" points="1262.5,-118 1262.5,-137 1322.5,-137 1322.5,-118 1262.5,-118"/>
<text text-anchor="middle" x="1292.5" y="-125" font-family="Helvetica,sans-Serif" font-size="10.00" fill="#000000">iostream</text>
</g>
<!-- Node0&#45;&gt;Node15 -->
<g id="edge35" class="edge">
<title>Node0&#45;&gt;Node15</title>
<path fill="none" stroke="#191970" d="M1001.6366,-291.2667C1012.9118,-259.486 1036.438,-206.7628 1075.5,-179 1141.289,-132.2413 1176.1326,-165.9968 1253.5,-143 1255.9444,-142.2734 1258.4494,-141.4558 1260.9527,-140.5856"/>
<polygon fill="#191970" stroke="#191970" points="1262.3131,-143.814 1270.4679,-137.0501 1259.875,-137.2523 1262.3131,-143.814"/>
</g>
<!-- Node18 -->
<g id="node19" class="node">
<title>Node18</title>
<g id="a_node19"><a xlink:href="../../db/df4/FIT_2FT0_2base_2include_2FT0Base_2Geometry_8h.html" target="_top" xlink:title="FT0Base/Geometry.h">
<polygon fill="none" stroke="#000000" points="1060,-235.5 1060,-254.5 1177,-254.5 1177,-235.5 1060,-235.5"/>
<text text-anchor="middle" x="1118.5" y="-242.5" font-family="Helvetica,sans-Serif" font-size="10.00" fill="#000000">FT0Base/Geometry.h</text>
</a>
</g>
</g>
<!-- Node0&#45;&gt;Node18 -->
<g id="edge28" class="edge">
<title>Node0&#45;&gt;Node18</title>
<path fill="none" stroke="#191970" d="M1038.6279,-291.3258C1056.928,-280.7118 1077.3865,-268.8458 1093.0166,-259.7804"/>
<polygon fill="#191970" stroke="#191970" points="1095.1678,-262.5788 1102.0621,-254.534 1091.6557,-256.5236 1095.1678,-262.5788"/>
</g>
<!-- Node20 -->
<g id="node21" class="node">
<title>Node20</title>
<polygon fill="none" stroke="#bfbfbf" points="1195.5,-235.5 1195.5,-254.5 1247.5,-254.5 1247.5,-235.5 1195.5,-235.5"/>
<text text-anchor="middle" x="1221.5" y="-242.5" font-family="Helvetica,sans-Serif" font-size="10.00" fill="#000000">cassert</text>
</g>
<!-- Node0&#45;&gt;Node20 -->
<g id="edge34" class="edge">
<title>Node0&#45;&gt;Node20</title>
<path fill="none" stroke="#191970" d="M1064.7028,-294.8588C1104.7888,-282.1121 1153.1337,-266.7393 1185.4467,-256.4643"/>
<polygon fill="#191970" stroke="#191970" points="1186.8746,-259.683 1195.3438,-253.3172 1184.7533,-253.0122 1186.8746,-259.683"/>
</g>
<!-- Node21 -->
<g id="node22" class="node">
<title>Node21</title>
<g id="a_node22"><a xlink:href="../../dd/da4/Logger_8h.html" target="_top" xlink:title="Framework/Logger.h">
<polygon fill="none" stroke="#000000" points="1266,-235.5 1266,-254.5 1381,-254.5 1381,-235.5 1266,-235.5"/>
<text text-anchor="middle" x="1323.5" y="-242.5" font-family="Helvetica,sans-Serif" font-size="10.00" fill="#000000">Framework/Logger.h</text>
</a>
</g>
</g>
<!-- Node0&#45;&gt;Node21 -->
<g id="edge37" class="edge">
<title>Node0&#45;&gt;Node21</title>
<path fill="none" stroke="#191970" d="M1064.6988,-301.8578C1126.4157,-288.2988 1214.3508,-268.9798 1270.1661,-256.7173"/>
<polygon fill="#191970" stroke="#191970" points="1271.1846,-260.0771 1280.2006,-254.5127 1269.6825,-253.2401 1271.1846,-260.0771"/>
</g>
<!-- Node1&#45;&gt;Node2 -->
<g id="edge2" class="edge">
<title>Node1&#45;&gt;Node2</title>
<path fill="none" stroke="#191970" d="M575.3264,-237.7836C529.1498,-231.5201 470.3549,-219.995 421.5,-199 392.83,-186.6793 364.1795,-165.3222 344.7559,-149.1492"/>
<polygon fill="#191970" stroke="#191970" points="346.9095,-146.3863 337.0232,-142.5768 342.3761,-151.72 346.9095,-146.3863"/>
</g>
<!-- Node3 -->
<g id="node4" class="node">
<title>Node3</title>
<polygon fill="none" stroke="#bfbfbf" points="892,-.5 892,-19.5 951,-19.5 951,-.5 892,-.5"/>
<text text-anchor="middle" x="921.5" y="-7.5" font-family="Helvetica,sans-Serif" font-size="10.00" fill="#000000">Rtypes.h</text>
</g>
<!-- Node1&#45;&gt;Node3 -->
<g id="edge25" class="edge">
<title>Node1&#45;&gt;Node3</title>
<path fill="none" stroke="#191970" d="M589.9987,-235.4285C545.2518,-227.4799 490.4127,-214.9145 473.5,-199 444.7438,-171.941 430.7438,-142.761 455.5,-112 509.0347,-45.48 778.6664,-19.9437 881.5388,-12.526"/>
<polygon fill="#191970" stroke="#191970" points="882.0862,-15.9963 891.817,-11.8055 881.5967,-9.0134 882.0862,-15.9963"/>
</g>
<!-- Node8 -->
<g id="node9" class="node">
<title>Node8</title>
<g id="a_node9"><a xlink:href="../../df/d5d/common_2include_2CommonDataFormat_2TimeStamp_8h.html" target="_top" xlink:title="CommonDataFormat/TimeStamp.h">
<polygon fill="none" stroke="#000000" points="768,-118 768,-137 955,-137 955,-118 768,-118"/>
<text text-anchor="middle" x="861.5" y="-125" font-family="Helvetica,sans-Serif" font-size="10.00" fill="#000000">CommonDataFormat/TimeStamp.h</text>
</a>
</g>
</g>
<!-- Node1&#45;&gt;Node8 -->
<g id="edge8" class="edge">
<title>Node1&#45;&gt;Node8</title>
<path fill="none" stroke="#191970" d="M670.5215,-235.3845C706.9494,-214.8062 792.6475,-166.3951 835.7672,-142.0365"/>
<polygon fill="#191970" stroke="#191970" points="837.5497,-145.0495 844.535,-137.0836 834.1067,-138.9548 837.5497,-145.0495"/>
</g>
<!-- Node1&#45;&gt;Node10 -->
<g id="edge11" class="edge">
<title>Node1&#45;&gt;Node10</title>
<path fill="none" stroke="#191970" d="M731.6841,-238.1145C789.2541,-231.6512 868.9374,-219.7697 936.5,-199 956.6467,-192.8066 959.7573,-186.3805 979.5,-179 1022.4143,-162.9571 1072.6542,-148.8977 1108.9668,-139.54"/>
<polygon fill="#191970" stroke="#191970" points="1109.9965,-142.8895 1118.8219,-137.0276 1108.2672,-136.1065 1109.9965,-142.8895"/>
</g>
<!-- Node11 -->
<g id="node12" class="node">
<title>Node11</title>
<g id="a_node12"><a xlink:href="../../de/d64/RangeReference_8h.html" target="_top" xlink:title="Class to refer to the 1st entry and N elements of some group in the continuous container. ">
<polygon fill="none" stroke="#000000" points="539.5,-118 539.5,-137 749.5,-137 749.5,-118 539.5,-118"/>
<text text-anchor="middle" x="644.5" y="-125" font-family="Helvetica,sans-Serif" font-size="10.00" fill="#000000">CommonDataFormat/RangeReference.h</text>
</a>
</g>
</g>
<!-- Node1&#45;&gt;Node11 -->
<g id="edge13" class="edge">
<title>Node1&#45;&gt;Node11</title>
<path fill="none" stroke="#191970" d="M652.7604,-235.1596C651.7896,-222.2619 650.0294,-198.9361 648.5,-179 647.7013,-168.5886 646.8017,-156.9941 646.0581,-147.4466"/>
<polygon fill="#191970" stroke="#191970" points="649.5395,-147.07 645.2724,-137.3725 642.5607,-147.6144 649.5395,-147.07"/>
</g>
<!-- Node1&#45;&gt;Node12 -->
<g id="edge15" class="edge">
<title>Node1&#45;&gt;Node12</title>
<path fill="none" stroke="#191970" d="M689.2565,-235.3733C724.4426,-225.9001 778.2881,-211.4032 816.3956,-201.1435"/>
<polygon fill="#191970" stroke="#191970" points="817.4639,-204.4806 826.2101,-198.5011 815.644,-197.7213 817.4639,-204.4806"/>
</g>
<!-- Node13 -->
<g id="node14" class="node">
<title>Node13</title>
<polygon fill="none" stroke="#bfbfbf" points="464,-118 464,-137 521,-137 521,-118 464,-118"/>
<text text-anchor="middle" x="492.5" y="-125" font-family="Helvetica,sans-Serif" font-size="10.00" fill="#000000">gsl/span</text>
</g>
<!-- Node1&#45;&gt;Node13 -->
<g id="edge27" class="edge">
<title>Node1&#45;&gt;Node13</title>
<path fill="none" stroke="#191970" d="M650.1618,-235.164C644.8873,-220.9731 633.3538,-194.7368 615.5,-179 613.6744,-177.3909 561.1576,-155.6674 525.344,-140.9536"/>
<polygon fill="#191970" stroke="#191970" points="526.3217,-137.5716 515.7417,-137.012 523.6635,-144.0472 526.3217,-137.5716"/>
</g>
<!-- Node16 -->
<g id="node17" class="node">
<title>Node16</title>
<polygon fill="none" stroke="#bfbfbf" points="482.5,-179.5 482.5,-198.5 524.5,-198.5 524.5,-179.5 482.5,-179.5"/>
<text text-anchor="middle" x="503.5" y="-186.5" font-family="Helvetica,sans-Serif" font-size="10.00" fill="#000000">array</text>
</g>
<!-- Node1&#45;&gt;Node16 -->
<g id="edge24" class="edge">
<title>Node1&#45;&gt;Node16</title>
<path fill="none" stroke="#191970" d="M627.7141,-235.3733C601.7524,-225.6809 561.7048,-210.7298 534.1385,-200.4384"/>
<polygon fill="#191970" stroke="#191970" points="535.189,-197.0947 524.5964,-196.876 532.7407,-203.6525 535.189,-197.0947"/>
</g>
<!-- Node17 -->
<g id="node18" class="node">
<title>Node17</title>
<polygon fill="none" stroke="#bfbfbf" points="543,-179.5 543,-198.5 606,-198.5 606,-179.5 543,-179.5"/>
<text text-anchor="middle" x="574.5" y="-186.5" font-family="Helvetica,sans-Serif" font-size="10.00" fill="#000000">TObject.h</text>
</g>
<!-- Node1&#45;&gt;Node17 -->
<g id="edge26" class="edge">
<title>Node1&#45;&gt;Node17</title>
<path fill="none" stroke="#191970" d="M639.7393,-235.2455C627.8448,-226.814 610.435,-214.4729 596.5915,-204.6598"/>
<polygon fill="#191970" stroke="#191970" points="598.2854,-201.5704 588.1031,-198.6427 594.2372,-207.2811 598.2854,-201.5704"/>
</g>
<!-- Node2&#45;&gt;Node3 -->
<g id="edge3" class="edge">
<title>Node2&#45;&gt;Node3</title>
<path fill="none" stroke="#191970" d="M343.7237,-112.3807C373.2876,-93.4236 422.9848,-62.5998 443.5,-56 524.7638,-29.8571 781.8975,-16.1038 881.5228,-11.6475"/>
<polygon fill="#191970" stroke="#191970" points="881.9329,-15.1329 891.7696,-11.1972 881.6255,-8.1397 881.9329,-15.1329"/>
</g>
<!-- Node4 -->
<g id="node5" class="node">
<title>Node4</title>
<polygon fill="none" stroke="#bfbfbf" points="274,-56.5 274,-75.5 323,-75.5 323,-56.5 274,-56.5"/>
<text text-anchor="middle" x="298.5" y="-63.5" font-family="Helvetica,sans-Serif" font-size="10.00" fill="#000000">iosfwd</text>
</g>
<!-- Node2&#45;&gt;Node4 -->
<g id="edge4" class="edge">
<title>Node2&#45;&gt;Node4</title>
<path fill="none" stroke="#191970" d="M315.0618,-112.2977C312.167,-104.2055 308.5749,-94.1639 305.4766,-85.5029"/>
<polygon fill="#191970" stroke="#191970" points="308.6862,-84.0837 302.0225,-75.8469 302.0953,-86.4415 308.6862,-84.0837"/>
</g>
<!-- Node2&#45;&gt;Node5 -->
<g id="edge5" class="edge">
<title>Node2&#45;&gt;Node5</title>
<path fill="none" stroke="#191970" d="M233.2118,-112.7727C184.0647,-103.9377 121.4295,-91.7778 57.1274,-75.9646"/>
<polygon fill="#191970" stroke="#191970" points="57.762,-72.5159 47.213,-73.5003 56.0735,-79.3092 57.762,-72.5159"/>
</g>
<!-- Node6 -->
<g id="node7" class="node">
<title>Node6</title>
<polygon fill="none" stroke="#bfbfbf" points="341.5,-56.5 341.5,-75.5 391.5,-75.5 391.5,-56.5 341.5,-56.5"/>
<text text-anchor="middle" x="366.5" y="-63.5" font-family="Helvetica,sans-Serif" font-size="10.00" fill="#000000">cstdint</text>
</g>
<!-- Node2&#45;&gt;Node6 -->
<g id="edge6" class="edge">
<title>Node2&#45;&gt;Node6</title>
<path fill="none" stroke="#191970" d="M331.8708,-112.2977C338.2561,-103.7609 346.2641,-93.0545 352.9705,-84.0883"/>
<polygon fill="#191970" stroke="#191970" points="355.9479,-85.9511 359.1348,-75.8469 350.3425,-81.7584 355.9479,-85.9511"/>
</g>
<!-- Node7 -->
<g id="node8" class="node">
<title>Node7</title>
<g id="a_node8"><a xlink:href="../../d4/dc6/LHCConstants_8h.html" target="_top" xlink:title="Header to collect LHC related constants. ">
<polygon fill="none" stroke="#000000" points="65.5,-56.5 65.5,-75.5 255.5,-75.5 255.5,-56.5 65.5,-56.5"/>
<text text-anchor="middle" x="160.5" y="-63.5" font-family="Helvetica,sans-Serif" font-size="10.00" fill="#000000">CommonConstants/LHCConstants.h</text>
</a>
</g>
</g>
<!-- Node2&#45;&gt;Node7 -->
<g id="edge7" class="edge">
<title>Node2&#45;&gt;Node7</title>
<path fill="none" stroke="#191970" d="M281.3596,-112.4554C254.8974,-102.284 220.2819,-88.9787 194.8817,-79.2155"/>
<polygon fill="#191970" stroke="#191970" points="195.8843,-75.8512 185.2943,-75.5303 193.3728,-82.3852 195.8843,-75.8512"/>
</g>
<!-- Node9 -->
<g id="node10" class="node">
<title>Node9</title>
<g id="a_node10"><a xlink:href="../../d2/d45/GPUCommonRtypes_8h.html" target="_top" xlink:title="GPUCommonRtypes.h">
<polygon fill="none" stroke="#000000" points="799,-56.5 799,-75.5 924,-75.5 924,-56.5 799,-56.5"/>
<text text-anchor="middle" x="861.5" y="-63.5" font-family="Helvetica,sans-Serif" font-size="10.00" fill="#000000">GPUCommonRtypes.h</text>
</a>
</g>
</g>
<!-- Node8&#45;&gt;Node9 -->
<g id="edge9" class="edge">
<title>Node8&#45;&gt;Node9</title>
<path fill="none" stroke="#191970" d="M861.5,-117.8906C861.5,-109.3657 861.5,-96.6392 861.5,-85.9235"/>
<polygon fill="#191970" stroke="#191970" points="865.0001,-85.7448 861.5,-75.7449 858.0001,-85.7449 865.0001,-85.7448"/>
</g>
<!-- Node9&#45;&gt;Node3 -->
<g id="edge10" class="edge">
<title>Node9&#45;&gt;Node3</title>
<path fill="none" stroke="#191970" d="M871.9512,-56.2455C880.7269,-48.0549 893.4554,-36.1749 903.814,-26.5069"/>
<polygon fill="#191970" stroke="#191970" points="906.2461,-29.0246 911.1686,-19.6427 901.4699,-23.9072 906.2461,-29.0246"/>
</g>
<!-- Node10&#45;&gt;Node3 -->
<g id="edge12" class="edge">
<title>Node10&#45;&gt;Node3</title>
<path fill="none" stroke="#191970" d="M1139.1053,-117.8845C1097.3374,-97.1768 998.7217,-48.285 949.8993,-24.0798"/>
<polygon fill="#191970" stroke="#191970" points="951.3443,-20.8897 940.8303,-19.5836 948.235,-27.1613 951.3443,-20.8897"/>
</g>
<!-- Node11&#45;&gt;Node9 -->
<g id="edge14" class="edge">
<title>Node11&#45;&gt;Node9</title>
<path fill="none" stroke="#191970" d="M678.4063,-117.8906C716.0679,-107.2169 776.9702,-89.9566 818.0885,-78.3033"/>
<polygon fill="#191970" stroke="#191970" points="819.1651,-81.6361 827.8318,-75.5419 817.2564,-74.9013 819.1651,-81.6361"/>
</g>
<!-- Node12&#45;&gt;Node2 -->
<g id="edge16" class="edge">
<title>Node12&#45;&gt;Node2</title>
<path fill="none" stroke="#191970" d="M795.3935,-181.5408C715.039,-172.4668 575.3162,-156.6659 455.5,-143 443.2931,-141.6077 430.466,-140.1404 417.776,-138.6863"/>
<polygon fill="#191970" stroke="#191970" points="417.9764,-135.1865 407.6428,-137.5246 417.1791,-142.1409 417.9764,-135.1865"/>
</g>
<!-- Node12&#45;&gt;Node3 -->
<g id="edge20" class="edge">
<title>Node12&#45;&gt;Node3</title>
<path fill="none" stroke="#191970" d="M910.4701,-179.4436C930.7877,-172.8037 952.4044,-161.649 964.5,-143 988.4653,-106.0504 956.8409,-54.6476 936.4001,-27.8538"/>
<polygon fill="#191970" stroke="#191970" points="938.9466,-25.4318 929.9932,-19.7671 933.4599,-29.7787 938.9466,-25.4318"/>
</g>
<!-- Node12&#45;&gt;Node8 -->
<g id="edge18" class="edge">
<title>Node12&#45;&gt;Node8</title>
<path fill="none" stroke="#191970" d="M861.5,-179.3906C861.5,-170.8657 861.5,-158.1392 861.5,-147.4235"/>
<polygon fill="#191970" stroke="#191970" points="865.0001,-147.2448 861.5,-137.2449 858.0001,-147.2449 865.0001,-147.2448"/>
</g>
<!-- Node12&#45;&gt;Node10 -->
<g id="edge19" class="edge">
<title>Node12&#45;&gt;Node10</title>
<path fill="none" stroke="#191970" d="M907.5804,-179.4581C960.1473,-168.573 1046.0983,-150.7751 1102.4877,-139.0985"/>
<polygon fill="#191970" stroke="#191970" points="1103.229,-142.5193 1112.3115,-137.0643 1101.8095,-135.6648 1103.229,-142.5193"/>
</g>
<!-- Node12&#45;&gt;Node11 -->
<g id="edge17" class="edge">
<title>Node12&#45;&gt;Node11</title>
<path fill="none" stroke="#191970" d="M827.5938,-179.3906C789.9321,-168.7169 729.0298,-151.4566 687.9115,-139.8033"/>
<polygon fill="#191970" stroke="#191970" points="688.7436,-136.4013 678.1682,-137.0419 686.8349,-143.1361 688.7436,-136.4013"/>
</g>
<!-- Node12&#45;&gt;Node13 -->
<g id="edge21" class="edge">
<title>Node12&#45;&gt;Node13</title>
<path fill="none" stroke="#191970" d="M795.2201,-184.6669C727.6978,-179.1225 620.4237,-167.1809 530.5,-143 528.0316,-142.3362 525.5088,-141.5541 522.9953,-140.6998"/>
<polygon fill="#191970" stroke="#191970" points="524.0744,-137.3668 513.4818,-137.1452 521.6243,-143.924 524.0744,-137.3668"/>
</g>
<!-- Node14 -->
<g id="node15" class="node">
<title>Node14</title>
<polygon fill="none" stroke="#bfbfbf" points="1010.5,-118 1010.5,-137 1054.5,-137 1054.5,-118 1010.5,-118"/>
<text text-anchor="middle" x="1032.5" y="-125" font-family="Helvetica,sans-Serif" font-size="10.00" fill="#000000">bitset</text>
</g>
<!-- Node12&#45;&gt;Node14 -->
<g id="edge22" class="edge">
<title>Node12&#45;&gt;Node14</title>
<path fill="none" stroke="#191970" d="M891.7685,-179.4359C919.2892,-170.5631 960.9143,-156.6995 996.5,-143 998.1154,-142.3781 999.7652,-141.7268 1001.4266,-141.058"/>
<polygon fill="#191970" stroke="#191970" points="1003.0172,-144.1874 1010.9106,-137.1202 1000.3329,-137.7225 1003.0172,-144.1874"/>
</g>
<!-- Node12&#45;&gt;Node15 -->
<g id="edge23" class="edge">
<title>Node12&#45;&gt;Node15</title>
<path fill="none" stroke="#191970" d="M927.636,-183.3462C1022.7862,-174.8524 1193.4606,-158.1742 1253.5,-143 1256.2814,-142.297 1259.1298,-141.4436 1261.9588,-140.5027"/>
<polygon fill="#191970" stroke="#191970" points="1263.1878,-143.78 1271.377,-137.0578 1260.7832,-137.206 1263.1878,-143.78"/>
</g>
<!-- Node18&#45;&gt;Node3 -->
<g id="edge29" class="edge">
<title>Node18&#45;&gt;Node3</title>
<path fill="none" stroke="#191970" d="M1166.5943,-235.4315C1243.8115,-217.9218 1381.9095,-176.487 1331.5,-112 1285.6725,-53.3746 1054.9479,-23.6063 961.1946,-13.7786"/>
<polygon fill="#191970" stroke="#191970" points="961.5506,-10.2968 951.2454,-12.7569 960.8355,-17.2602 961.5506,-10.2968"/>
</g>
<!-- Node19 -->
<g id="node20" class="node">
<title>Node19</title>
<polygon fill="none" stroke="#bfbfbf" points="1084.5,-179.5 1084.5,-198.5 1152.5,-198.5 1152.5,-179.5 1084.5,-179.5"/>
<text text-anchor="middle" x="1118.5" y="-186.5" font-family="Helvetica,sans-Serif" font-size="10.00" fill="#000000">TVector3.h</text>
</g>
<!-- Node18&#45;&gt;Node19 -->
<g id="edge30" class="edge">
<title>Node18&#45;&gt;Node19</title>
<path fill="none" stroke="#191970" d="M1118.5,-235.2455C1118.5,-227.9382 1118.5,-217.6944 1118.5,-208.7046"/>
<polygon fill="#191970" stroke="#191970" points="1122.0001,-208.6426 1118.5,-198.6427 1115.0001,-208.6427 1122.0001,-208.6426"/>
</g>
</g>
</svg>
