<?xml version="1.0" encoding="UTF-8" standalone="no"?>
<!DOCTYPE svg PUBLIC "-//W3C//DTD SVG 1.1//EN"
 "http://www.w3.org/Graphics/SVG/1.1/DTD/svg11.dtd">
<!-- Generated by graphviz version 2.40.1 (20161225.0304)
 -->
<!-- Title: o2::track::TrackAuxPar Pages: 1 -->
<svg width="182pt" height="354pt"
 viewBox="0.00 0.00 181.50 354.00" xmlns="http://www.w3.org/2000/svg" xmlns:xlink="http://www.w3.org/1999/xlink">
<g id="graph0" class="graph" transform="scale(1 1) rotate(0) translate(4 350)">
<title>o2::track::TrackAuxPar</title>
<!-- Node2 -->
<g id="node1" class="node">
<title>Node2</title>
<polygon fill="#bfbfbf" stroke="#000000" points="0,-.5 0,-101.5 125,-101.5 125,-.5 0,-.5"/>
<text text-anchor="middle" x="62.5" y="-89.5" font-family="Helvetica,sans-Serif" font-size="10.00" fill="#000000">o2::track::TrackAuxPar</text>
<polyline fill="none" stroke="#000000" points="0,-82.5 125,-82.5 "/>
<text text-anchor="middle" x="62.5" y="-70.5" font-family="Helvetica,sans-Serif" font-size="10.00" fill="#000000"> </text>
<polyline fill="none" stroke="#000000" points="0,-63.5 125,-63.5 "/>
<text text-anchor="start" x="8" y="-51.5" font-family="Helvetica,sans-Serif" font-size="10.00" fill="#000000">+ TrackAuxPar()</text>
<text text-anchor="start" x="8" y="-40.5" font-family="Helvetica,sans-Serif" font-size="10.00" fill="#000000">+ TrackAuxPar()</text>
<text text-anchor="start" x="8" y="-29.5" font-family="Helvetica,sans-Serif" font-size="10.00" fill="#000000">+ cosDif()</text>
<text text-anchor="start" x="8" y="-18.5" font-family="Helvetica,sans-Serif" font-size="10.00" fill="#000000">+ sinDif()</text>
<text text-anchor="start" x="8" y="-7.5" font-family="Helvetica,sans-Serif" font-size="10.00" fill="#000000">+ set()</text>
</g>
<!-- Node3 -->
<g id="node2" class="node">
<title>Node3</title>
<g id="a_node2"><a xlink:href="../../d0/d32/structo2_1_1utils_1_1CircleXY.html" target="_top" xlink:title="{o2::utils::CircleXY\n||+ CircleXY()\l+ getCenterD2()\l+ ClassDefNV()\l}">
<polygon fill="none" stroke="#000000" points="71.5,-139.5 71.5,-218.5 173.5,-218.5 173.5,-139.5 71.5,-139.5"/>
<text text-anchor="middle" x="122.5" y="-206.5" font-family="Helvetica,sans-Serif" font-size="10.00" fill="#000000">o2::utils::CircleXY</text>
<polyline fill="none" stroke="#000000" points="71.5,-199.5 173.5,-199.5 "/>
<text text-anchor="middle" x="122.5" y="-187.5" font-family="Helvetica,sans-Serif" font-size="10.00" fill="#000000"> </text>
<polyline fill="none" stroke="#000000" points="71.5,-180.5 173.5,-180.5 "/>
<text text-anchor="start" x="79.5" y="-168.5" font-family="Helvetica,sans-Serif" font-size="10.00" fill="#000000">+ CircleXY()</text>
<text text-anchor="start" x="79.5" y="-157.5" font-family="Helvetica,sans-Serif" font-size="10.00" fill="#000000">+ getCenterD2()</text>
<text text-anchor="start" x="79.5" y="-146.5" font-family="Helvetica,sans-Serif" font-size="10.00" fill="#000000">+ ClassDefNV()</text>
</a>
</g>
</g>
<!-- Node3&#45;&gt;Node2 -->
<g id="edge1" class="edge">
<title>Node3&#45;&gt;Node2</title>
<path fill="none" stroke="#191970" d="M99.5648,-130.0715C95.1997,-120.7594 90.6231,-110.9959 86.2338,-101.6321"/>
<polygon fill="none" stroke="#191970" points="96.431,-131.6326 103.8445,-139.2016 102.7692,-128.6615 96.431,-131.6326"/>
</g>
<!-- Node4 -->
<g id="node3" class="node">
<title>Node4</title>
<g id="a_node3"><a xlink:href="../../d4/dc3/classfloat.html" target="_top" xlink:title="{float\n||}">
<polygon fill="none" stroke="#000000" points="31.5,-288.5 31.5,-345.5 69.5,-345.5 69.5,-288.5 31.5,-288.5"/>
<text text-anchor="middle" x="50.5" y="-333.5" font-family="Helvetica,sans-Serif" font-size="10.00" fill="#000000">float</text>
<polyline fill="none" stroke="#000000" points="31.5,-326.5 69.5,-326.5 "/>
<text text-anchor="middle" x="50.5" y="-314.5" font-family="Helvetica,sans-Serif" font-size="10.00" fill="#000000"> </text>
<polyline fill="none" stroke="#000000" points="31.5,-307.5 69.5,-307.5 "/>
<text text-anchor="middle" x="50.5" y="-295.5" font-family="Helvetica,sans-Serif" font-size="10.00" fill="#000000"> </text>
</a>
</g>
</g>
<!-- Node4&#45;&gt;Node2 -->
<g id="edge3" class="edge">
<title>Node4&#45;&gt;Node2</title>
<path fill="none" stroke="#404040" d="M46.8065,-288.243C42.8672,-252.9797 37.9042,-191.4322 43.5,-139 44.3794,-130.7605 45.7094,-122.1597 47.2656,-113.7004"/>
<polygon fill="none" stroke="#404040" points="47.2732,-113.6615 44.5087,-107.0014 49.5932,-101.8879 52.3577,-108.548 47.2732,-113.6615"/>
<text text-anchor="middle" x="53" y="-198.5" font-family="Helvetica,sans-Serif" font-size="10.00" fill="#000000"> +s</text>
<text text-anchor="middle" x="53" y="-187.5" font-family="Helvetica,sans-Serif" font-size="10.00" fill="#000000">+c</text>
<text text-anchor="middle" x="53" y="-176.5" font-family="Helvetica,sans-Serif" font-size="10.00" fill="#000000">+cs</text>
<text text-anchor="middle" x="53" y="-165.5" font-family="Helvetica,sans-Serif" font-size="10.00" fill="#000000">+ss</text>
<text text-anchor="middle" x="53" y="-154.5" font-family="Helvetica,sans-Serif" font-size="10.00" fill="#000000">+cc</text>
</g>
<!-- Node4&#45;&gt;Node3 -->
<g id="edge2" class="edge">
<title>Node4&#45;&gt;Node3</title>
<path fill="none" stroke="#404040" d="M65.4184,-288.4063C74.3155,-271.3537 85.8649,-249.2172 96.2453,-229.3214"/>
<polygon fill="none" stroke="#404040" points="96.3168,-229.1843 95.5459,-222.0145 101.8677,-218.5453 102.6386,-225.7151 96.3168,-229.1843"/>
<text text-anchor="middle" x="103" y="-262" font-family="Helvetica,sans-Serif" font-size="10.00" fill="#000000"> +yC</text>
<text text-anchor="middle" x="103" y="-251" font-family="Helvetica,sans-Serif" font-size="10.00" fill="#000000">+xC</text>
<text text-anchor="middle" x="103" y="-240" font-family="Helvetica,sans-Serif" font-size="10.00" fill="#000000">+rC</text>
</g>
</g>
</svg>
