<?xml version="1.0" encoding="UTF-8" standalone="no"?>
<!DOCTYPE svg PUBLIC "-//W3C//DTD SVG 1.1//EN"
 "http://www.w3.org/Graphics/SVG/1.1/DTD/svg11.dtd">
<!-- Generated by graphviz version 2.40.1 (20161225.0304)
 -->
<!-- Title: o2::ft0::DigitsTemp Pages: 1 -->
<svg width="328pt" height="584pt"
 viewBox="0.00 0.00 327.50 584.00" xmlns="http://www.w3.org/2000/svg" xmlns:xlink="http://www.w3.org/1999/xlink">
<g id="graph0" class="graph" transform="scale(1 1) rotate(0) translate(4 580)">
<title>o2::ft0::DigitsTemp</title>
<!-- Node2 -->
<g id="node1" class="node">
<title>Node2</title>
<polygon fill="#bfbfbf" stroke="#000000" points="1,-.5 1,-244.5 138,-244.5 138,-.5 1,-.5"/>
<text text-anchor="middle" x="69.5" y="-232.5" font-family="Helvetica,sans-Serif" font-size="10.00" fill="#000000">o2::ft0::DigitsTemp</text>
<polyline fill="none" stroke="#000000" points="1,-225.5 138,-225.5 "/>
<text text-anchor="middle" x="69.5" y="-213.5" font-family="Helvetica,sans-Serif" font-size="10.00" fill="#000000"> </text>
<polyline fill="none" stroke="#000000" points="1,-206.5 138,-206.5 "/>
<text text-anchor="start" x="9" y="-194.5" font-family="Helvetica,sans-Serif" font-size="10.00" fill="#000000">+ DigitsTemp()</text>
<text text-anchor="start" x="9" y="-183.5" font-family="Helvetica,sans-Serif" font-size="10.00" fill="#000000">+ DigitsTemp()</text>
<text text-anchor="start" x="9" y="-172.5" font-family="Helvetica,sans-Serif" font-size="10.00" fill="#000000">+ ~DigitsTemp()</text>
<text text-anchor="start" x="9" y="-161.5" font-family="Helvetica,sans-Serif" font-size="10.00" fill="#000000">+ getTime()</text>
<text text-anchor="start" x="9" y="-150.5" font-family="Helvetica,sans-Serif" font-size="10.00" fill="#000000">+ setTime()</text>
<text text-anchor="start" x="9" y="-139.5" font-family="Helvetica,sans-Serif" font-size="10.00" fill="#000000">+ setInteractionRecord()</text>
<text text-anchor="start" x="9" y="-128.5" font-family="Helvetica,sans-Serif" font-size="10.00" fill="#000000">+ getInteractionRecord()</text>
<text text-anchor="start" x="9" y="-117.5" font-family="Helvetica,sans-Serif" font-size="10.00" fill="#000000">+ getInteractionRecord()</text>
<text text-anchor="start" x="9" y="-106.5" font-family="Helvetica,sans-Serif" font-size="10.00" fill="#000000">+ setInteractionRecord()</text>
<text text-anchor="start" x="9" y="-95.5" font-family="Helvetica,sans-Serif" font-size="10.00" fill="#000000">+ getOrbit()</text>
<text text-anchor="start" x="9" y="-84.5" font-family="Helvetica,sans-Serif" font-size="10.00" fill="#000000">+ getBC()</text>
<text text-anchor="start" x="9" y="-73.5" font-family="Helvetica,sans-Serif" font-size="10.00" fill="#000000">+ setTriggers()</text>
<text text-anchor="start" x="9" y="-62.5" font-family="Helvetica,sans-Serif" font-size="10.00" fill="#000000">+ getChDgData()</text>
<text text-anchor="start" x="9" y="-51.5" font-family="Helvetica,sans-Serif" font-size="10.00" fill="#000000">+ getChDgData()</text>
<text text-anchor="start" x="9" y="-40.5" font-family="Helvetica,sans-Serif" font-size="10.00" fill="#000000">+ setChDgData()</text>
<text text-anchor="start" x="9" y="-29.5" font-family="Helvetica,sans-Serif" font-size="10.00" fill="#000000">+ setChDgData()</text>
<text text-anchor="start" x="9" y="-18.5" font-family="Helvetica,sans-Serif" font-size="10.00" fill="#000000">+ printStream()</text>
<text text-anchor="start" x="9" y="-7.5" font-family="Helvetica,sans-Serif" font-size="10.00" fill="#000000">+ cleardigits()</text>
</g>
<!-- Node3 -->
<g id="node2" class="node">
<title>Node3</title>
<g id="a_node2"><a xlink:href="../../d0/d94/classo2_1_1dataformats_1_1TimeStamp.html" target="_top" xlink:title="{DigitBase\n||+ TimeStamp()\l+ TimeStamp()\l+ getTimeStamp()\l+ setTimeStamp()\l+ operator==()\l}">
<polygon fill="none" stroke="#000000" points="0,-325.5 0,-426.5 107,-426.5 107,-325.5 0,-325.5"/>
<text text-anchor="middle" x="53.5" y="-414.5" font-family="Helvetica,sans-Serif" font-size="10.00" fill="#000000">DigitBase</text>
<polyline fill="none" stroke="#000000" points="0,-407.5 107,-407.5 "/>
<text text-anchor="middle" x="53.5" y="-395.5" font-family="Helvetica,sans-Serif" font-size="10.00" fill="#000000"> </text>
<polyline fill="none" stroke="#000000" points="0,-388.5 107,-388.5 "/>
<text text-anchor="start" x="8" y="-376.5" font-family="Helvetica,sans-Serif" font-size="10.00" fill="#000000">+ TimeStamp()</text>
<text text-anchor="start" x="8" y="-365.5" font-family="Helvetica,sans-Serif" font-size="10.00" fill="#000000">+ TimeStamp()</text>
<text text-anchor="start" x="8" y="-354.5" font-family="Helvetica,sans-Serif" font-size="10.00" fill="#000000">+ getTimeStamp()</text>
<text text-anchor="start" x="8" y="-343.5" font-family="Helvetica,sans-Serif" font-size="10.00" fill="#000000">+ setTimeStamp()</text>
<text text-anchor="start" x="8" y="-332.5" font-family="Helvetica,sans-Serif" font-size="10.00" fill="#000000">+ operator==()</text>
</a>
</g>
</g>
<!-- Node3&#45;&gt;Node2 -->
<g id="edge1" class="edge">
<title>Node3&#45;&gt;Node2</title>
<path fill="none" stroke="#191970" d="M57.3401,-315.1576C58.6829,-293.8831 60.2423,-269.1767 61.7874,-244.6969"/>
<polygon fill="none" stroke="#191970" points="53.8363,-315.1091 56.6994,-325.3098 60.8224,-315.5501 53.8363,-315.1091"/>
</g>
<!-- Node4 -->
<g id="node3" class="node">
<title>Node4</title>
<g id="a_node3"><a xlink:href="../../db/df8/structo2_1_1ft0_1_1Triggers.html" target="_top" xlink:title="{o2::ft0::Triggers\n||+ Triggers()\l+ Triggers()\l+ getOrA()\l+ getOrC()\l+ getVertex()\l+ getCen()\l+ getSCen()\l+ setTriggers()\l+ cleanTriggers()\l+ getTriggers()\l+ ClassDefNV()\l}">
<polygon fill="none" stroke="#000000" points="125.5,-292.5 125.5,-459.5 225.5,-459.5 225.5,-292.5 125.5,-292.5"/>
<text text-anchor="middle" x="175.5" y="-447.5" font-family="Helvetica,sans-Serif" font-size="10.00" fill="#000000">o2::ft0::Triggers</text>
<polyline fill="none" stroke="#000000" points="125.5,-440.5 225.5,-440.5 "/>
<text text-anchor="middle" x="175.5" y="-428.5" font-family="Helvetica,sans-Serif" font-size="10.00" fill="#000000"> </text>
<polyline fill="none" stroke="#000000" points="125.5,-421.5 225.5,-421.5 "/>
<text text-anchor="start" x="133.5" y="-409.5" font-family="Helvetica,sans-Serif" font-size="10.00" fill="#000000">+ Triggers()</text>
<text text-anchor="start" x="133.5" y="-398.5" font-family="Helvetica,sans-Serif" font-size="10.00" fill="#000000">+ Triggers()</text>
<text text-anchor="start" x="133.5" y="-387.5" font-family="Helvetica,sans-Serif" font-size="10.00" fill="#000000">+ getOrA()</text>
<text text-anchor="start" x="133.5" y="-376.5" font-family="Helvetica,sans-Serif" font-size="10.00" fill="#000000">+ getOrC()</text>
<text text-anchor="start" x="133.5" y="-365.5" font-family="Helvetica,sans-Serif" font-size="10.00" fill="#000000">+ getVertex()</text>
<text text-anchor="start" x="133.5" y="-354.5" font-family="Helvetica,sans-Serif" font-size="10.00" fill="#000000">+ getCen()</text>
<text text-anchor="start" x="133.5" y="-343.5" font-family="Helvetica,sans-Serif" font-size="10.00" fill="#000000">+ getSCen()</text>
<text text-anchor="start" x="133.5" y="-332.5" font-family="Helvetica,sans-Serif" font-size="10.00" fill="#000000">+ setTriggers()</text>
<text text-anchor="start" x="133.5" y="-321.5" font-family="Helvetica,sans-Serif" font-size="10.00" fill="#000000">+ cleanTriggers()</text>
<text text-anchor="start" x="133.5" y="-310.5" font-family="Helvetica,sans-Serif" font-size="10.00" fill="#000000">+ getTriggers()</text>
<text text-anchor="start" x="133.5" y="-299.5" font-family="Helvetica,sans-Serif" font-size="10.00" fill="#000000">+ ClassDefNV()</text>
</a>
</g>
</g>
<!-- Node4&#45;&gt;Node2 -->
<g id="edge2" class="edge">
<title>Node4&#45;&gt;Node2</title>
<path fill="none" stroke="#404040" d="M140.4979,-292.2921C135.6038,-280.588 130.4775,-268.3283 125.3154,-255.9832"/>
<polygon fill="none" stroke="#404040" points="125.1998,-255.7064 119.1947,-251.714 120.5704,-244.6353 126.5754,-248.6277 125.1998,-255.7064"/>
<text text-anchor="middle" x="159" y="-266" font-family="Helvetica,sans-Serif" font-size="10.00" fill="#000000"> +mTrigger</text>
</g>
<!-- Node5 -->
<g id="node4" class="node">
<title>Node5</title>
<polygon fill="none" stroke="#bfbfbf" points="30.5,-518.5 30.5,-575.5 74.5,-575.5 74.5,-518.5 30.5,-518.5"/>
<text text-anchor="middle" x="52.5" y="-563.5" font-family="Helvetica,sans-Serif" font-size="10.00" fill="#000000">int8_t</text>
<polyline fill="none" stroke="#bfbfbf" points="30.5,-556.5 74.5,-556.5 "/>
<text text-anchor="middle" x="52.5" y="-544.5" font-family="Helvetica,sans-Serif" font-size="10.00" fill="#000000"> </text>
<polyline fill="none" stroke="#bfbfbf" points="30.5,-537.5 74.5,-537.5 "/>
<text text-anchor="middle" x="52.5" y="-525.5" font-family="Helvetica,sans-Serif" font-size="10.00" fill="#000000"> </text>
</g>
<!-- Node5&#45;&gt;Node4 -->
<g id="edge3" class="edge">
<title>Node5&#45;&gt;Node4</title>
<path fill="none" stroke="#404040" d="M53.5805,-518.3532C55.4689,-504.7265 59.8227,-489.0407 69.5,-478 83.9709,-461.4904 98.1804,-473.491 115.5,-460 115.7121,-459.8348 115.9237,-459.6687 116.135,-459.5016"/>
<polygon fill="none" stroke="#404040" points="116.3285,-459.3315 118.196,-452.3664 125.3436,-451.4113 123.4761,-458.3764 116.3285,-459.3315"/>
<text text-anchor="middle" x="94" y="-492" font-family="Helvetica,sans-Serif" font-size="10.00" fill="#000000"> +nChanA</text>
<text text-anchor="middle" x="94" y="-481" font-family="Helvetica,sans-Serif" font-size="10.00" fill="#000000">+nChanC</text>
</g>
<!-- Node6 -->
<g id="node5" class="node">
<title>Node6</title>
<polygon fill="none" stroke="#bfbfbf" points="99.5,-518.5 99.5,-575.5 149.5,-575.5 149.5,-518.5 99.5,-518.5"/>
<text text-anchor="middle" x="124.5" y="-563.5" font-family="Helvetica,sans-Serif" font-size="10.00" fill="#000000">uint8_t</text>
<polyline fill="none" stroke="#bfbfbf" points="99.5,-556.5 149.5,-556.5 "/>
<text text-anchor="middle" x="124.5" y="-544.5" font-family="Helvetica,sans-Serif" font-size="10.00" fill="#000000"> </text>
<polyline fill="none" stroke="#bfbfbf" points="99.5,-537.5 149.5,-537.5 "/>
<text text-anchor="middle" x="124.5" y="-525.5" font-family="Helvetica,sans-Serif" font-size="10.00" fill="#000000"> </text>
</g>
<!-- Node6&#45;&gt;Node4 -->
<g id="edge4" class="edge">
<title>Node6&#45;&gt;Node4</title>
<path fill="none" stroke="#404040" d="M122.126,-518.4512C121.7918,-505.887 122.374,-491.0489 125.5,-478 126.0513,-475.6985 126.6609,-473.3887 127.3219,-471.0764"/>
<polygon fill="none" stroke="#404040" points="127.3629,-470.9482 125.385,-464.0136 131.0254,-459.5208 133.0033,-466.4553 127.3629,-470.9482"/>
<text text-anchor="middle" x="165" y="-486.5" font-family="Helvetica,sans-Serif" font-size="10.00" fill="#000000"> +triggersignals</text>
</g>
<!-- Node7 -->
<g id="node6" class="node">
<title>Node7</title>
<polygon fill="none" stroke="#bfbfbf" points="201.5,-518.5 201.5,-575.5 251.5,-575.5 251.5,-518.5 201.5,-518.5"/>
<text text-anchor="middle" x="226.5" y="-563.5" font-family="Helvetica,sans-Serif" font-size="10.00" fill="#000000">int32_t</text>
<polyline fill="none" stroke="#bfbfbf" points="201.5,-556.5 251.5,-556.5 "/>
<text text-anchor="middle" x="226.5" y="-544.5" font-family="Helvetica,sans-Serif" font-size="10.00" fill="#000000"> </text>
<polyline fill="none" stroke="#bfbfbf" points="201.5,-537.5 251.5,-537.5 "/>
<text text-anchor="middle" x="226.5" y="-525.5" font-family="Helvetica,sans-Serif" font-size="10.00" fill="#000000"> </text>
</g>
<!-- Node7&#45;&gt;Node4 -->
<g id="edge5" class="edge">
<title>Node7&#45;&gt;Node4</title>
<path fill="none" stroke="#404040" d="M217.9637,-518.3784C214.024,-505.1687 209.0955,-488.6438 204.005,-471.5757"/>
<polygon fill="none" stroke="#404040" points="203.8949,-471.206 198.3468,-466.5996 200.4651,-459.7066 206.0131,-464.3131 203.8949,-471.206"/>
<text text-anchor="middle" x="232" y="-492" font-family="Helvetica,sans-Serif" font-size="10.00" fill="#000000"> +amplA</text>
<text text-anchor="middle" x="232" y="-481" font-family="Helvetica,sans-Serif" font-size="10.00" fill="#000000">+amplC</text>
</g>
<!-- Node8 -->
<g id="node7" class="node">
<title>Node8</title>
<polygon fill="none" stroke="#bfbfbf" points="269.5,-518.5 269.5,-575.5 319.5,-575.5 319.5,-518.5 269.5,-518.5"/>
<text text-anchor="middle" x="294.5" y="-563.5" font-family="Helvetica,sans-Serif" font-size="10.00" fill="#000000">int16_t</text>
<polyline fill="none" stroke="#bfbfbf" points="269.5,-556.5 319.5,-556.5 "/>
<text text-anchor="middle" x="294.5" y="-544.5" font-family="Helvetica,sans-Serif" font-size="10.00" fill="#000000"> </text>
<polyline fill="none" stroke="#bfbfbf" points="269.5,-537.5 319.5,-537.5 "/>
<text text-anchor="middle" x="294.5" y="-525.5" font-family="Helvetica,sans-Serif" font-size="10.00" fill="#000000"> </text>
</g>
<!-- Node8&#45;&gt;Node4 -->
<g id="edge6" class="edge">
<title>Node8&#45;&gt;Node4</title>
<path fill="none" stroke="#404040" d="M280.6985,-518.4531C274.18,-505.7534 265.9775,-490.8085 257.5,-478 250.0316,-466.7161 241.6003,-455.1622 233.0582,-444.0744"/>
<polygon fill="none" stroke="#404040" points="232.9381,-443.9209 226.0907,-441.6596 225.5445,-434.4692 232.3919,-436.7305 232.9381,-443.9209"/>
<text text-anchor="middle" x="290" y="-492" font-family="Helvetica,sans-Serif" font-size="10.00" fill="#000000"> +timeA</text>
<text text-anchor="middle" x="290" y="-481" font-family="Helvetica,sans-Serif" font-size="10.00" fill="#000000">+timeC</text>
</g>
</g>
</svg>
