<?xml version="1.0" encoding="UTF-8" standalone="no"?>
<!DOCTYPE svg PUBLIC "-//W3C//DTD SVG 1.1//EN"
 "http://www.w3.org/Graphics/SVG/1.1/DTD/svg11.dtd">
<!-- Generated by graphviz version 2.40.1 (20161225.0304)
 -->
<!-- Title: /home/travis/build/AliceO2Group/AliceO2/Framework/Core/src/ASoA.cxx Pages: 1 -->
<svg width="2098pt" height="274pt"
 viewBox="0.00 0.00 2097.50 274.00" xmlns="http://www.w3.org/2000/svg" xmlns:xlink="http://www.w3.org/1999/xlink">
<g id="graph0" class="graph" transform="scale(1 1) rotate(0) translate(4 270)">
<title>/home/travis/build/AliceO2Group/AliceO2/Framework/Core/src/ASoA.cxx</title>
<!-- Node0 -->
<g id="node1" class="node">
<title>Node0</title>
<polygon fill="#bfbfbf" stroke="#000000" points="917,-224.5 917,-265.5 1082,-265.5 1082,-224.5 917,-224.5"/>
<text text-anchor="start" x="925" y="-253.5" font-family="Helvetica,sans-Serif" font-size="10.00" fill="#000000">/home/travis/build</text>
<text text-anchor="start" x="925" y="-242.5" font-family="Helvetica,sans-Serif" font-size="10.00" fill="#000000">/AliceO2Group/AliceO2</text>
<text text-anchor="middle" x="999.5" y="-231.5" font-family="Helvetica,sans-Serif" font-size="10.00" fill="#000000">/Framework/Core/src/ASoA.cxx</text>
</g>
<!-- Node1 -->
<g id="node2" class="node">
<title>Node1</title>
<g id="a_node2"><a xlink:href="../../de/d33/ASoA_8h.html" target="_top" xlink:title="Framework/ASoA.h">
<polygon fill="none" stroke="#000000" points="878.5,-168.5 878.5,-187.5 986.5,-187.5 986.5,-168.5 878.5,-168.5"/>
<text text-anchor="middle" x="932.5" y="-175.5" font-family="Helvetica,sans-Serif" font-size="10.00" fill="#000000">Framework/ASoA.h</text>
</a>
</g>
</g>
<!-- Node0&#45;&gt;Node1 -->
<g id="edge1" class="edge">
<title>Node0&#45;&gt;Node1</title>
<path fill="none" stroke="#191970" d="M978.668,-224.168C969.2794,-214.7794 958.334,-203.834 949.4574,-194.9574"/>
<polygon fill="#191970" stroke="#191970" points="951.8265,-192.3767 942.2805,-187.7805 946.8767,-197.3265 951.8265,-192.3767"/>
</g>
<!-- Node31 -->
<g id="node32" class="node">
<title>Node31</title>
<g id="a_node32"><a xlink:href="../../df/d1f/ArrowDebugHelpers_8h.html" target="_top" xlink:title="ArrowDebugHelpers.h">
<polygon fill="none" stroke="#000000" points="1005,-168.5 1005,-187.5 1128,-187.5 1128,-168.5 1005,-168.5"/>
<text text-anchor="middle" x="1066.5" y="-175.5" font-family="Helvetica,sans-Serif" font-size="10.00" fill="#000000">ArrowDebugHelpers.h</text>
</a>
</g>
</g>
<!-- Node0&#45;&gt;Node31 -->
<g id="edge42" class="edge">
<title>Node0&#45;&gt;Node31</title>
<path fill="none" stroke="#191970" d="M1020.332,-224.168C1029.7206,-214.7794 1040.666,-203.834 1049.5426,-194.9574"/>
<polygon fill="#191970" stroke="#191970" points="1052.1233,-197.3265 1056.7195,-187.7805 1047.1735,-192.3767 1052.1233,-197.3265"/>
</g>
<!-- Node2 -->
<g id="node3" class="node">
<title>Node2</title>
<g id="a_node3"><a xlink:href="../../dd/dce/Pack_8h.html" target="_top" xlink:title="Framework/Pack.h">
<polygon fill="none" stroke="#000000" points="83,-56.5 83,-75.5 188,-75.5 188,-56.5 83,-56.5"/>
<text text-anchor="middle" x="135.5" y="-63.5" font-family="Helvetica,sans-Serif" font-size="10.00" fill="#000000">Framework/Pack.h</text>
</a>
</g>
</g>
<!-- Node1&#45;&gt;Node2 -->
<g id="edge2" class="edge">
<title>Node1&#45;&gt;Node2</title>
<path fill="none" stroke="#191970" d="M878.4502,-176.4847C780.2419,-173.0552 566.2294,-162.4664 388.5,-132 311.9012,-118.8694 224.6013,-93.7828 175.1725,-78.6045"/>
<polygon fill="#191970" stroke="#191970" points="176.0994,-75.2277 165.5116,-75.6157 174.0304,-81.9149 176.0994,-75.2277"/>
</g>
<!-- Node6 -->
<g id="node7" class="node">
<title>Node6</title>
<g id="a_node7"><a xlink:href="../../d1/d00/CheckTypes_8h.html" target="_top" xlink:title="Framework/CheckTypes.h">
<polygon fill="none" stroke="#000000" points="293.5,-56.5 293.5,-75.5 433.5,-75.5 433.5,-56.5 293.5,-56.5"/>
<text text-anchor="middle" x="363.5" y="-63.5" font-family="Helvetica,sans-Serif" font-size="10.00" fill="#000000">Framework/CheckTypes.h</text>
</a>
</g>
</g>
<!-- Node1&#45;&gt;Node6 -->
<g id="edge6" class="edge">
<title>Node1&#45;&gt;Node6</title>
<path fill="none" stroke="#191970" d="M878.303,-170.6421C819.8835,-162.4224 724.2705,-148.1334 642.5,-132 559.9809,-115.7189 464.8368,-92.1744 409.6898,-78.0495"/>
<polygon fill="#191970" stroke="#191970" points="410.4267,-74.6252 399.8702,-75.5256 408.684,-81.4048 410.4267,-74.6252"/>
</g>
<!-- Node7 -->
<g id="node8" class="node">
<title>Node7</title>
<g id="a_node8"><a xlink:href="../../de/d9b/FunctionalHelpers_8h.html" target="_top" xlink:title="Framework/FunctionalHelpers.h">
<polygon fill="none" stroke="#000000" points="50.5,-112.5 50.5,-131.5 220.5,-131.5 220.5,-112.5 50.5,-112.5"/>
<text text-anchor="middle" x="135.5" y="-119.5" font-family="Helvetica,sans-Serif" font-size="10.00" fill="#000000">Framework/FunctionalHelpers.h</text>
</a>
</g>
</g>
<!-- Node1&#45;&gt;Node7 -->
<g id="edge7" class="edge">
<title>Node1&#45;&gt;Node7</title>
<path fill="none" stroke="#191970" d="M878.3477,-174.6432C763.2694,-167.4412 485.8807,-149.7169 253.5,-132 246.088,-131.4349 238.4158,-130.8299 230.7048,-130.2077"/>
<polygon fill="#191970" stroke="#191970" points="230.8155,-126.7052 220.5643,-129.3816 230.247,-133.6821 230.8155,-126.7052"/>
</g>
<!-- Node9 -->
<g id="node10" class="node">
<title>Node9</title>
<g id="a_node10"><a xlink:href="../../d9/de8/CompilerBuiltins_8h.html" target="_top" xlink:title="Framework/CompilerBuiltins.h">
<polygon fill="none" stroke="#000000" points="451.5,-56.5 451.5,-75.5 615.5,-75.5 615.5,-56.5 451.5,-56.5"/>
<text text-anchor="middle" x="533.5" y="-63.5" font-family="Helvetica,sans-Serif" font-size="10.00" fill="#000000">Framework/CompilerBuiltins.h</text>
</a>
</g>
</g>
<!-- Node1&#45;&gt;Node9 -->
<g id="edge10" class="edge">
<title>Node1&#45;&gt;Node9</title>
<path fill="none" stroke="#191970" d="M878.4388,-169.7467C831.8438,-162.0056 763.0375,-149.0684 704.5,-132 654.1727,-117.3255 597.8058,-94.2065 564.0131,-79.588"/>
<polygon fill="#191970" stroke="#191970" points="565.2586,-76.3129 554.6932,-75.5237 562.4605,-82.7293 565.2586,-76.3129"/>
</g>
<!-- Node10 -->
<g id="node11" class="node">
<title>Node10</title>
<g id="a_node11"><a xlink:href="../../db/d31/Traits_8h.html" target="_top" xlink:title="Framework/Traits.h">
<polygon fill="none" stroke="#000000" points="398,-112.5 398,-131.5 507,-131.5 507,-112.5 398,-112.5"/>
<text text-anchor="middle" x="452.5" y="-119.5" font-family="Helvetica,sans-Serif" font-size="10.00" fill="#000000">Framework/Traits.h</text>
</a>
</g>
</g>
<!-- Node1&#45;&gt;Node10 -->
<g id="edge11" class="edge">
<title>Node1&#45;&gt;Node10</title>
<path fill="none" stroke="#191970" d="M878.371,-171.6849C789.4242,-161.3078 612.7153,-140.6918 517.2692,-129.5564"/>
<polygon fill="#191970" stroke="#191970" points="517.5059,-126.0604 507.1677,-128.3779 516.6947,-133.0132 517.5059,-126.0604"/>
</g>
<!-- Node12 -->
<g id="node13" class="node">
<title>Node12</title>
<g id="a_node13"><a xlink:href="../../d0/d91/Expressions_8h.html" target="_top" xlink:title="Framework/Expressions.h">
<polygon fill="none" stroke="#000000" points="961,-112.5 961,-131.5 1102,-131.5 1102,-112.5 961,-112.5"/>
<text text-anchor="middle" x="1031.5" y="-119.5" font-family="Helvetica,sans-Serif" font-size="10.00" fill="#000000">Framework/Expressions.h</text>
</a>
</g>
</g>
<!-- Node1&#45;&gt;Node12 -->
<g id="edge13" class="edge">
<title>Node1&#45;&gt;Node12</title>
<path fill="none" stroke="#191970" d="M949.7445,-168.2455C965.0761,-159.5731 987.7199,-146.7645 1005.2916,-136.825"/>
<polygon fill="#191970" stroke="#191970" points="1007.4724,-139.6126 1014.4531,-131.6427 1004.0259,-133.5198 1007.4724,-139.6126"/>
</g>
<!-- Node15 -->
<g id="node16" class="node">
<title>Node15</title>
<polygon fill="none" stroke="#bfbfbf" points="799,-56.5 799,-75.5 880,-75.5 880,-56.5 799,-56.5"/>
<text text-anchor="middle" x="839.5" y="-63.5" font-family="Helvetica,sans-Serif" font-size="10.00" fill="#000000">arrow/table.h</text>
</g>
<!-- Node1&#45;&gt;Node15 -->
<g id="edge35" class="edge">
<title>Node1&#45;&gt;Node15</title>
<path fill="none" stroke="#191970" d="M931.8486,-168.0672C930.4868,-154.2243 926.3017,-128.9287 913.5,-112 903.0963,-98.2424 887.2799,-87.6145 872.9363,-80.0576"/>
<polygon fill="#191970" stroke="#191970" points="874.3098,-76.8322 863.7949,-75.5331 871.2046,-83.1058 874.3098,-76.8322"/>
</g>
<!-- Node16 -->
<g id="node17" class="node">
<title>Node16</title>
<polygon fill="none" stroke="#bfbfbf" points="634,-56.5 634,-75.5 781,-75.5 781,-56.5 634,-56.5"/>
<text text-anchor="middle" x="707.5" y="-63.5" font-family="Helvetica,sans-Serif" font-size="10.00" fill="#000000">gandiva/selection_vector.h</text>
</g>
<!-- Node1&#45;&gt;Node16 -->
<g id="edge40" class="edge">
<title>Node1&#45;&gt;Node16</title>
<path fill="none" stroke="#191970" d="M878.3579,-173.113C822.6688,-166.94 741.1056,-154.3271 719.5,-132 707.7543,-119.862 705.4657,-100.2941 705.6886,-85.6105"/>
<polygon fill="#191970" stroke="#191970" points="709.1881,-85.7124 706.2335,-75.5379 702.1983,-85.3341 709.1881,-85.7124"/>
</g>
<!-- Node22 -->
<g id="node23" class="node">
<title>Node22</title>
<g id="a_node23"><a xlink:href="../../d0/d92/Kernels_8h.html" target="_top" xlink:title="Framework/Kernels.h">
<polygon fill="none" stroke="#000000" points="1438,-112.5 1438,-131.5 1557,-131.5 1557,-112.5 1438,-112.5"/>
<text text-anchor="middle" x="1497.5" y="-119.5" font-family="Helvetica,sans-Serif" font-size="10.00" fill="#000000">Framework/Kernels.h</text>
</a>
</g>
</g>
<!-- Node1&#45;&gt;Node22 -->
<g id="edge26" class="edge">
<title>Node1&#45;&gt;Node22</title>
<path fill="none" stroke="#191970" d="M986.5878,-169.3019C989.9389,-168.8395 993.2634,-168.401 996.5,-168 1149.9697,-148.9841 1330.7926,-134.2688 1427.7283,-127.0009"/>
<polygon fill="#191970" stroke="#191970" points="1428.2729,-130.4701 1437.985,-126.2363 1427.7524,-123.4895 1428.2729,-130.4701"/>
</g>
<!-- Node23 -->
<g id="node24" class="node">
<title>Node23</title>
<polygon fill="none" stroke="#bfbfbf" points="1590,-56.5 1590,-75.5 1723,-75.5 1723,-56.5 1590,-56.5"/>
<text text-anchor="middle" x="1656.5" y="-63.5" font-family="Helvetica,sans-Serif" font-size="10.00" fill="#000000">arrow/compute/kernel.h</text>
</g>
<!-- Node1&#45;&gt;Node23 -->
<g id="edge39" class="edge">
<title>Node1&#45;&gt;Node23</title>
<path fill="none" stroke="#191970" d="M986.6206,-169.5372C989.9636,-169.0164 993.2774,-168.5008 996.5,-168 1210.4568,-134.7516 1463.4788,-95.7319 1584.7115,-77.0546"/>
<polygon fill="#191970" stroke="#191970" points="1585.2692,-80.51 1594.6197,-75.5282 1584.2033,-73.5916 1585.2692,-80.51"/>
</g>
<!-- Node26 -->
<g id="node27" class="node">
<title>Node26</title>
<polygon fill="none" stroke="#bfbfbf" points="1979.5,-56.5 1979.5,-75.5 2089.5,-75.5 2089.5,-56.5 1979.5,-56.5"/>
<text text-anchor="middle" x="2034.5" y="-63.5" font-family="Helvetica,sans-Serif" font-size="10.00" fill="#000000">arrow/util/variant.h</text>
</g>
<!-- Node1&#45;&gt;Node26 -->
<g id="edge37" class="edge">
<title>Node1&#45;&gt;Node26</title>
<path fill="none" stroke="#191970" d="M986.5751,-169.193C989.9293,-168.7577 993.258,-168.3549 996.5,-168 1248.8307,-140.3775 1322.1156,-200.6299 1566.5,-132 1584.8745,-126.8399 1586.2186,-117.4805 1604.5,-112 1757.8566,-66.0256 1806.3693,-95.3634 1969.0029,-76.0935"/>
<polygon fill="#191970" stroke="#191970" points="1969.8725,-79.513 1979.3703,-74.8181 1969.0177,-72.5654 1969.8725,-79.513"/>
</g>
<!-- Node27 -->
<g id="node28" class="node">
<title>Node27</title>
<g id="a_node28"><a xlink:href="../../d1/dc1/ArrowCompatibility_8h.html" target="_top" xlink:title="Framework/ArrowCompatibility.h">
<polygon fill="none" stroke="#000000" points="728.5,-112.5 728.5,-131.5 904.5,-131.5 904.5,-112.5 728.5,-112.5"/>
<text text-anchor="middle" x="816.5" y="-119.5" font-family="Helvetica,sans-Serif" font-size="10.00" fill="#000000">Framework/ArrowCompatibility.h</text>
</a>
</g>
</g>
<!-- Node1&#45;&gt;Node27 -->
<g id="edge33" class="edge">
<title>Node1&#45;&gt;Node27</title>
<path fill="none" stroke="#191970" d="M912.5589,-168.3733C894.0214,-159.4241 866.1972,-145.9917 845.2587,-135.8835"/>
<polygon fill="#191970" stroke="#191970" points="846.7081,-132.6967 836.1809,-131.5011 843.6648,-139.0006 846.7081,-132.6967"/>
</g>
<!-- Node28 -->
<g id="node29" class="node">
<title>Node28</title>
<polygon fill="none" stroke="#bfbfbf" points="1613.5,-112.5 1613.5,-131.5 1693.5,-131.5 1693.5,-112.5 1613.5,-112.5"/>
<text text-anchor="middle" x="1653.5" y="-119.5" font-family="Helvetica,sans-Serif" font-size="10.00" fill="#000000">arrow/array.h</text>
</g>
<!-- Node1&#45;&gt;Node28 -->
<g id="edge36" class="edge">
<title>Node1&#45;&gt;Node28</title>
<path fill="none" stroke="#191970" d="M986.5736,-169.1799C989.9282,-168.7478 993.2574,-168.3493 996.5,-168 1263.4327,-139.244 1332.9978,-164.5053 1599.5,-132 1600.7777,-131.8442 1602.0708,-131.677 1603.3741,-131.5"/>
<polygon fill="#191970" stroke="#191970" points="1604.1123,-134.9284 1613.4804,-129.9798 1603.071,-128.0063 1604.1123,-134.9284"/>
</g>
<!-- Node29 -->
<g id="node30" class="node">
<title>Node29</title>
<polygon fill="none" stroke="#bfbfbf" points="1712,-112.5 1712,-131.5 1851,-131.5 1851,-112.5 1712,-112.5"/>
<text text-anchor="middle" x="1781.5" y="-119.5" font-family="Helvetica,sans-Serif" font-size="10.00" fill="#000000">arrow/compute/context.h</text>
</g>
<!-- Node1&#45;&gt;Node29 -->
<g id="edge38" class="edge">
<title>Node1&#45;&gt;Node29</title>
<path fill="none" stroke="#191970" d="M986.5701,-169.1467C989.9256,-168.7228 993.256,-168.3352 996.5,-168 1305.6641,-136.0517 1387.7855,-159.2372 1701.4433,-132.0224"/>
<polygon fill="#191970" stroke="#191970" points="1702.0882,-135.4793 1711.7437,-131.1179 1701.4758,-128.5062 1702.0882,-135.4793"/>
</g>
<!-- Node30 -->
<g id="node31" class="node">
<title>Node30</title>
<polygon fill="none" stroke="#bfbfbf" points="1869.5,-112.5 1869.5,-131.5 1921.5,-131.5 1921.5,-112.5 1869.5,-112.5"/>
<text text-anchor="middle" x="1895.5" y="-119.5" font-family="Helvetica,sans-Serif" font-size="10.00" fill="#000000">cassert</text>
</g>
<!-- Node1&#45;&gt;Node30 -->
<g id="edge41" class="edge">
<title>Node1&#45;&gt;Node30</title>
<path fill="none" stroke="#191970" d="M986.5665,-169.111C989.9229,-168.6961 993.2544,-168.3201 996.5,-168 1375.7088,-130.5957 1479.3087,-192.1519 1859.3884,-131.8004"/>
<polygon fill="#191970" stroke="#191970" points="1859.9589,-135.2537 1869.2776,-130.2126 1858.8492,-128.3422 1859.9589,-135.2537"/>
</g>
<!-- Node3 -->
<g id="node4" class="node">
<title>Node3</title>
<polygon fill="none" stroke="#bfbfbf" points="42,-.5 42,-19.5 95,-19.5 95,-.5 42,-.5"/>
<text text-anchor="middle" x="68.5" y="-7.5" font-family="Helvetica,sans-Serif" font-size="10.00" fill="#000000">cstddef</text>
</g>
<!-- Node2&#45;&gt;Node3 -->
<g id="edge3" class="edge">
<title>Node2&#45;&gt;Node3</title>
<path fill="none" stroke="#191970" d="M123.8295,-56.2455C113.9339,-47.9746 99.5373,-35.9416 87.9099,-26.2232"/>
<polygon fill="#191970" stroke="#191970" points="89.9542,-23.3703 80.0368,-19.6427 85.465,-28.7413 89.9542,-23.3703"/>
</g>
<!-- Node4 -->
<g id="node5" class="node">
<title>Node4</title>
<polygon fill="none" stroke="#bfbfbf" points="113,-.5 113,-19.5 158,-19.5 158,-.5 113,-.5"/>
<text text-anchor="middle" x="135.5" y="-7.5" font-family="Helvetica,sans-Serif" font-size="10.00" fill="#000000">utility</text>
</g>
<!-- Node2&#45;&gt;Node4 -->
<g id="edge4" class="edge">
<title>Node2&#45;&gt;Node4</title>
<path fill="none" stroke="#191970" d="M135.5,-56.2455C135.5,-48.9382 135.5,-38.6944 135.5,-29.7046"/>
<polygon fill="#191970" stroke="#191970" points="139.0001,-29.6426 135.5,-19.6427 132.0001,-29.6427 139.0001,-29.6426"/>
</g>
<!-- Node5 -->
<g id="node6" class="node">
<title>Node5</title>
<polygon fill="none" stroke="#bfbfbf" points="176.5,-.5 176.5,-19.5 222.5,-19.5 222.5,-.5 176.5,-.5"/>
<text text-anchor="middle" x="199.5" y="-7.5" font-family="Helvetica,sans-Serif" font-size="10.00" fill="#000000">cstdio</text>
</g>
<!-- Node2&#45;&gt;Node5 -->
<g id="edge5" class="edge">
<title>Node2&#45;&gt;Node5</title>
<path fill="none" stroke="#191970" d="M146.6479,-56.2455C156.0087,-48.0549 169.5858,-36.1749 180.6349,-26.5069"/>
<polygon fill="#191970" stroke="#191970" points="183.2588,-28.8618 188.4798,-19.6427 178.6492,-23.5937 183.2588,-28.8618"/>
</g>
<!-- Node7&#45;&gt;Node2 -->
<g id="edge8" class="edge">
<title>Node7&#45;&gt;Node2</title>
<path fill="none" stroke="#191970" d="M135.5,-112.2455C135.5,-104.9382 135.5,-94.6944 135.5,-85.7046"/>
<polygon fill="#191970" stroke="#191970" points="139.0001,-85.6426 135.5,-75.6427 132.0001,-85.6427 139.0001,-85.6426"/>
</g>
<!-- Node8 -->
<g id="node9" class="node">
<title>Node8</title>
<polygon fill="none" stroke="#bfbfbf" points="0,-56.5 0,-75.5 65,-75.5 65,-56.5 0,-56.5"/>
<text text-anchor="middle" x="32.5" y="-63.5" font-family="Helvetica,sans-Serif" font-size="10.00" fill="#000000">functional</text>
</g>
<!-- Node7&#45;&gt;Node8 -->
<g id="edge9" class="edge">
<title>Node7&#45;&gt;Node8</title>
<path fill="none" stroke="#191970" d="M117.5588,-112.2455C101.46,-103.4928 77.6121,-90.527 59.2609,-80.5496"/>
<polygon fill="#191970" stroke="#191970" points="60.6929,-77.3444 50.2356,-75.6427 57.3493,-83.4942 60.6929,-77.3444"/>
</g>
<!-- Node11 -->
<g id="node12" class="node">
<title>Node11</title>
<polygon fill="none" stroke="#bfbfbf" points="206,-56.5 206,-75.5 275,-75.5 275,-56.5 206,-56.5"/>
<text text-anchor="middle" x="240.5" y="-63.5" font-family="Helvetica,sans-Serif" font-size="10.00" fill="#000000">type_traits</text>
</g>
<!-- Node10&#45;&gt;Node11 -->
<g id="edge12" class="edge">
<title>Node10&#45;&gt;Node11</title>
<path fill="none" stroke="#191970" d="M416.0559,-112.3733C379.7584,-102.7852 323.9789,-88.051 285.0665,-77.7723"/>
<polygon fill="#191970" stroke="#191970" points="285.627,-74.3004 275.0647,-75.1303 283.8392,-81.0682 285.627,-74.3004"/>
</g>
<!-- Node12&#45;&gt;Node2 -->
<g id="edge16" class="edge">
<title>Node12&#45;&gt;Node2</title>
<path fill="none" stroke="#191970" d="M960.7089,-115.6023C945.163,-114.3087 928.7821,-113.0309 913.5,-112 598.5751,-90.756 515.5421,-109.4513 198.4352,-76.0994"/>
<polygon fill="#191970" stroke="#191970" points="198.3351,-72.5693 188.0216,-74.9944 197.5964,-79.5302 198.3351,-72.5693"/>
</g>
<!-- Node12&#45;&gt;Node6 -->
<g id="edge17" class="edge">
<title>Node12&#45;&gt;Node6</title>
<path fill="none" stroke="#191970" d="M960.9995,-115.9295C945.3619,-114.6098 928.8698,-113.2386 913.5,-112 707.5043,-95.3992 653.062,-97.1294 443.7749,-76.0878"/>
<polygon fill="#191970" stroke="#191970" points="443.9919,-72.592 433.6906,-75.0684 443.2879,-79.5565 443.9919,-72.592"/>
</g>
<!-- Node12&#45;&gt;Node9 -->
<g id="edge15" class="edge">
<title>Node12&#45;&gt;Node9</title>
<path fill="none" stroke="#191970" d="M960.9415,-114.0657C873.0888,-104.1867 722.801,-87.2869 625.8558,-76.3854"/>
<polygon fill="#191970" stroke="#191970" points="626.0974,-72.8906 615.7689,-75.2511 625.3152,-79.8467 626.0974,-72.8906"/>
</g>
<!-- Node13 -->
<g id="node14" class="node">
<title>Node13</title>
<g id="a_node14"><a xlink:href="../../dd/dc2/BasicOps_8h.html" target="_top" xlink:title="Framework/BasicOps.h">
<polygon fill="none" stroke="#000000" points="1381.5,-56.5 1381.5,-75.5 1509.5,-75.5 1509.5,-56.5 1381.5,-56.5"/>
<text text-anchor="middle" x="1445.5" y="-63.5" font-family="Helvetica,sans-Serif" font-size="10.00" fill="#000000">Framework/BasicOps.h</text>
</a>
</g>
</g>
<!-- Node12&#45;&gt;Node13 -->
<g id="edge14" class="edge">
<title>Node12&#45;&gt;Node13</title>
<path fill="none" stroke="#191970" d="M1102.0391,-112.5274C1168.7785,-103.5552 1272.0561,-89.6458 1371.488,-76.1356"/>
<polygon fill="#191970" stroke="#191970" points="1371.9694,-79.6024 1381.4069,-74.7874 1371.0266,-72.6662 1371.9694,-79.6024"/>
</g>
<!-- Node14 -->
<g id="node15" class="node">
<title>Node14</title>
<polygon fill="none" stroke="#bfbfbf" points="975,-56.5 975,-75.5 1076,-75.5 1076,-56.5 975,-56.5"/>
<text text-anchor="middle" x="1025.5" y="-63.5" font-family="Helvetica,sans-Serif" font-size="10.00" fill="#000000">arrow/type_fwd.h</text>
</g>
<!-- Node12&#45;&gt;Node14 -->
<g id="edge18" class="edge">
<title>Node12&#45;&gt;Node14</title>
<path fill="none" stroke="#191970" d="M1030.4549,-112.2455C1029.672,-104.9382 1028.5744,-94.6944 1027.6112,-85.7046"/>
<polygon fill="#191970" stroke="#191970" points="1031.0786,-85.2129 1026.5331,-75.6427 1024.1185,-85.9587 1031.0786,-85.2129"/>
</g>
<!-- Node12&#45;&gt;Node15 -->
<g id="edge19" class="edge">
<title>Node12&#45;&gt;Node15</title>
<path fill="none" stroke="#191970" d="M998.494,-112.3733C966.2909,-102.9807 917.1558,-88.6496 882.0361,-78.4064"/>
<polygon fill="#191970" stroke="#191970" points="882.6553,-74.9412 872.0753,-75.5011 880.6953,-81.6612 882.6553,-74.9412"/>
</g>
<!-- Node12&#45;&gt;Node16 -->
<g id="edge20" class="edge">
<title>Node12&#45;&gt;Node16</title>
<path fill="none" stroke="#191970" d="M976.1706,-112.4369C919.7885,-102.6918 832.3742,-87.5832 772.673,-77.2645"/>
<polygon fill="#191970" stroke="#191970" points="773.0513,-73.778 762.6012,-75.5237 771.859,-80.6758 773.0513,-73.778"/>
</g>
<!-- Node17 -->
<g id="node18" class="node">
<title>Node17</title>
<polygon fill="none" stroke="#bfbfbf" points="1094.5,-56.5 1094.5,-75.5 1186.5,-75.5 1186.5,-56.5 1094.5,-56.5"/>
<text text-anchor="middle" x="1140.5" y="-63.5" font-family="Helvetica,sans-Serif" font-size="10.00" fill="#000000">gandiva/node.h</text>
</g>
<!-- Node12&#45;&gt;Node17 -->
<g id="edge21" class="edge">
<title>Node12&#45;&gt;Node17</title>
<path fill="none" stroke="#191970" d="M1050.4864,-112.2455C1067.6792,-103.4125 1093.2238,-90.2887 1112.7132,-80.2758"/>
<polygon fill="#191970" stroke="#191970" points="1114.4359,-83.3257 1121.7312,-75.6427 1111.237,-77.0993 1114.4359,-83.3257"/>
</g>
<!-- Node18 -->
<g id="node19" class="node">
<title>Node18</title>
<polygon fill="none" stroke="#bfbfbf" points="1205,-56.5 1205,-75.5 1294,-75.5 1294,-56.5 1205,-56.5"/>
<text text-anchor="middle" x="1249.5" y="-63.5" font-family="Helvetica,sans-Serif" font-size="10.00" fill="#000000">gandiva/filter.h</text>
</g>
<!-- Node12&#45;&gt;Node18 -->
<g id="edge22" class="edge">
<title>Node12&#45;&gt;Node18</title>
<path fill="none" stroke="#191970" d="M1068.9755,-112.3733C1106.0103,-102.8598 1162.7682,-88.2797 1202.7361,-78.0127"/>
<polygon fill="#191970" stroke="#191970" points="1203.6988,-81.3792 1212.5135,-75.5011 1201.9571,-74.5993 1203.6988,-81.3792"/>
</g>
<!-- Node19 -->
<g id="node20" class="node">
<title>Node19</title>
<polygon fill="none" stroke="#bfbfbf" points="1312,-56.5 1312,-75.5 1363,-75.5 1363,-56.5 1312,-56.5"/>
<text text-anchor="middle" x="1337.5" y="-63.5" font-family="Helvetica,sans-Serif" font-size="10.00" fill="#000000">variant</text>
</g>
<!-- Node12&#45;&gt;Node19 -->
<g id="edge23" class="edge">
<title>Node12&#45;&gt;Node19</title>
<path fill="none" stroke="#191970" d="M1101.5471,-112.4867C1154.3768,-104.7758 1228.7609,-92.7813 1302.0966,-76.1332"/>
<polygon fill="#191970" stroke="#191970" points="1303.0054,-79.5157 1311.9661,-73.8627 1301.436,-72.6939 1303.0054,-79.5157"/>
</g>
<!-- Node20 -->
<g id="node21" class="node">
<title>Node20</title>
<polygon fill="none" stroke="#bfbfbf" points="1527.5,-56.5 1527.5,-75.5 1571.5,-75.5 1571.5,-56.5 1527.5,-56.5"/>
<text text-anchor="middle" x="1549.5" y="-63.5" font-family="Helvetica,sans-Serif" font-size="10.00" fill="#000000">string</text>
</g>
<!-- Node12&#45;&gt;Node20 -->
<g id="edge24" class="edge">
<title>Node12&#45;&gt;Node20</title>
<path fill="none" stroke="#191970" d="M1102.3762,-120.1334C1195.7645,-116.604 1365.0502,-106.5107 1517.3014,-75.8493"/>
<polygon fill="#191970" stroke="#191970" points="1518.2104,-79.2359 1527.3044,-73.7998 1516.8053,-72.3783 1518.2104,-79.2359"/>
</g>
<!-- Node21 -->
<g id="node22" class="node">
<title>Node21</title>
<polygon fill="none" stroke="#bfbfbf" points="898.5,-56.5 898.5,-75.5 956.5,-75.5 956.5,-56.5 898.5,-56.5"/>
<text text-anchor="middle" x="927.5" y="-63.5" font-family="Helvetica,sans-Serif" font-size="10.00" fill="#000000">memory</text>
</g>
<!-- Node12&#45;&gt;Node21 -->
<g id="edge25" class="edge">
<title>Node12&#45;&gt;Node21</title>
<path fill="none" stroke="#191970" d="M1013.3846,-112.2455C997.055,-103.4527 972.829,-90.4079 954.2661,-80.4125"/>
<polygon fill="#191970" stroke="#191970" points="955.8719,-77.3021 945.4078,-75.6427 952.5532,-83.4654 955.8719,-77.3021"/>
</g>
<!-- Node22&#45;&gt;Node13 -->
<g id="edge27" class="edge">
<title>Node22&#45;&gt;Node13</title>
<path fill="none" stroke="#191970" d="M1488.4423,-112.2455C1480.9858,-104.2155 1470.2366,-92.6394 1461.3583,-83.0781"/>
<polygon fill="#191970" stroke="#191970" points="1463.8232,-80.589 1454.4539,-75.6427 1458.6937,-85.3522 1463.8232,-80.589"/>
</g>
<!-- Node22&#45;&gt;Node20 -->
<g id="edge32" class="edge">
<title>Node22&#45;&gt;Node20</title>
<path fill="none" stroke="#191970" d="M1506.5577,-112.2455C1514.0142,-104.2155 1524.7634,-92.6394 1533.6417,-83.0781"/>
<polygon fill="#191970" stroke="#191970" points="1536.3063,-85.3522 1540.5461,-75.6427 1531.1768,-80.589 1536.3063,-85.3522"/>
</g>
<!-- Node22&#45;&gt;Node23 -->
<g id="edge28" class="edge">
<title>Node22&#45;&gt;Node23</title>
<path fill="none" stroke="#191970" d="M1524.8331,-112.3733C1551.0434,-103.1419 1590.7984,-89.1402 1619.7668,-78.9375"/>
<polygon fill="#191970" stroke="#191970" points="1621.2542,-82.1244 1629.5236,-75.5011 1618.9288,-75.5219 1621.2542,-82.1244"/>
</g>
<!-- Node24 -->
<g id="node25" class="node">
<title>Node24</title>
<polygon fill="none" stroke="#bfbfbf" points="1741.5,-56.5 1741.5,-75.5 1827.5,-75.5 1827.5,-56.5 1741.5,-56.5"/>
<text text-anchor="middle" x="1784.5" y="-63.5" font-family="Helvetica,sans-Serif" font-size="10.00" fill="#000000">arrow/status.h</text>
</g>
<!-- Node22&#45;&gt;Node24 -->
<g id="edge29" class="edge">
<title>Node22&#45;&gt;Node24</title>
<path fill="none" stroke="#191970" d="M1546.511,-112.4369C1597.9496,-102.4001 1678.5474,-86.6737 1731.4522,-76.3508"/>
<polygon fill="#191970" stroke="#191970" points="1732.1763,-79.7756 1741.3209,-74.4252 1730.8356,-72.9052 1732.1763,-79.7756"/>
</g>
<!-- Node25 -->
<g id="node26" class="node">
<title>Node25</title>
<polygon fill="none" stroke="#bfbfbf" points="1845.5,-56.5 1845.5,-75.5 1961.5,-75.5 1961.5,-56.5 1845.5,-56.5"/>
<text text-anchor="middle" x="1903.5" y="-63.5" font-family="Helvetica,sans-Serif" font-size="10.00" fill="#000000">arrow/util/visibility.h</text>
</g>
<!-- Node22&#45;&gt;Node25 -->
<g id="edge30" class="edge">
<title>Node22&#45;&gt;Node25</title>
<path fill="none" stroke="#191970" d="M1557.3668,-113.8975C1642.2179,-102.4108 1791.3278,-82.2142 1835.3139,-76.1296"/>
<polygon fill="#191970" stroke="#191970" points="1835.983,-79.5702 1845.4022,-74.7196 1835.014,-72.6376 1835.983,-79.5702"/>
</g>
<!-- Node22&#45;&gt;Node26 -->
<g id="edge31" class="edge">
<title>Node22&#45;&gt;Node26</title>
<path fill="none" stroke="#191970" d="M1557.2462,-113.6949C1562.0655,-113.0955 1566.8623,-112.5223 1571.5,-112 1745.1521,-92.4426 1792.0523,-97.5531 1969.1861,-76.0924"/>
<polygon fill="#191970" stroke="#191970" points="1969.8727,-79.5346 1979.3739,-74.8464 1969.0229,-72.5864 1969.8727,-79.5346"/>
</g>
<!-- Node27&#45;&gt;Node15 -->
<g id="edge34" class="edge">
<title>Node27&#45;&gt;Node15</title>
<path fill="none" stroke="#191970" d="M820.5063,-112.2455C823.5735,-104.7776 827.9003,-94.2427 831.6497,-85.1137"/>
<polygon fill="#191970" stroke="#191970" points="834.9779,-86.2226 835.5396,-75.6427 828.5028,-83.5631 834.9779,-86.2226"/>
</g>
</g>
</svg>
