<?xml version="1.0" encoding="UTF-8" standalone="no"?>
<!DOCTYPE svg PUBLIC "-//W3C//DTD SVG 1.1//EN"
 "http://www.w3.org/Graphics/SVG/1.1/DTD/svg11.dtd">
<!-- Generated by graphviz version 2.40.1 (20161225.0304)
 -->
<!-- Title: /home/travis/build/AliceO2Group/AliceO2/DataFormats/Detectors/FIT/FT0/src/Digit.cxx Pages: 1 -->
<!--zoomable 296 -->
<svg id="main" version="1.1" xmlns="http://www.w3.org/2000/svg" xmlns:xlink="http://www.w3.org/1999/xlink" xml:space="preserve" onload="init(evt)">
<style type="text/css"><![CDATA[
.edge:hover path { stroke: red; }
.edge:hover polygon { stroke: red; fill: red; }
]]></style>
<script type="text/javascript"><![CDATA[
var edges = document.getElementsByTagName('g');
if (edges && edges.length) {
  for (var i=0;i<edges.length;i++) {
    if (edges[i].id.substr(0,4)=='edge') {
      edges[i].setAttribute('class','edge');
    }
  }
}
]]></script>
        <defs>
                <circle id="rim" cx="0" cy="0" r="7"/>
                <circle id="rim2" cx="0" cy="0" r="3.5"/>
                <g id="zoomPlus">
                        <use xlink:href="#rim" fill="#404040">
                                <set attributeName="fill" to="#808080" begin="zoomplus.mouseover" end="zoomplus.mouseout"/>
                        </use>
                        <path d="M-4,0h8M0,-4v8" fill="none" stroke="white" stroke-width="1.5" pointer-events="none"/>
                </g>
                <g id="zoomMin">
                        <use xlink:href="#rim" fill="#404040">
                                <set attributeName="fill" to="#808080" begin="zoomminus.mouseover" end="zoomminus.mouseout"/>
                        </use>
                        <path d="M-4,0h8" fill="none" stroke="white" stroke-width="1.5" pointer-events="none"/>
                </g>
                <g id="dirArrow">
                        <path fill="none" stroke="white" stroke-width="1.5" d="M0,-3.0v7 M-2.5,-0.5L0,-3.0L2.5,-0.5"/>
                </g>
               <g id="resetDef">
                       <use xlink:href="#rim2" fill="#404040">
                               <set attributeName="fill" to="#808080" begin="reset.mouseover" end="reset.mouseout"/>
                       </use>
               </g>
        </defs>

<script type="text/javascript">
var viewWidth = 1060;
var viewHeight = 296;
var sectionId = 'dynsection-0';
</script>
<script xlink:href="../../svgpan.js"/>
<svg id="graph" class="graph">
<g id="viewport">
<title>/home/travis/build/AliceO2Group/AliceO2/DataFormats/Detectors/FIT/FT0/src/Digit.cxx</title>
<!-- Node0 -->
<g id="node1" class="node">
<title>Node0</title>
<polygon fill="#bfbfbf" stroke="#000000" points="816.5,-235.5 816.5,-287.5 949.5,-287.5 949.5,-235.5 816.5,-235.5"/>
<text text-anchor="start" x="824.5" y="-275.5" font-family="Helvetica,sans-Serif" font-size="10.00" fill="#000000">/home/travis/build</text>
<text text-anchor="start" x="824.5" y="-264.5" font-family="Helvetica,sans-Serif" font-size="10.00" fill="#000000">/AliceO2Group/AliceO2</text>
<text text-anchor="start" x="824.5" y="-253.5" font-family="Helvetica,sans-Serif" font-size="10.00" fill="#000000">/DataFormats/Detectors</text>
<text text-anchor="middle" x="883" y="-242.5" font-family="Helvetica,sans-Serif" font-size="10.00" fill="#000000">/FIT/FT0/src/Digit.cxx</text>
</g>
<!-- Node1 -->
<g id="node2" class="node">
<title>Node1</title>
<g id="a_node2"><a xlink:href="../../d0/d0a/DataFormats_2Detectors_2FIT_2FT0_2include_2DataFormatsFT0_2Digit_8h.html" target="_top" xlink:title="DataFormatsFT0/Digit.h">
<polygon fill="none" stroke="#000000" points="683,-179.5 683,-198.5 815,-198.5 815,-179.5 683,-179.5"/>
<text text-anchor="middle" x="749" y="-186.5" font-family="Helvetica,sans-Serif" font-size="10.00" fill="#000000">DataFormatsFT0/Digit.h</text>
</a>
</g>
</g>
<!-- Node0&#45;&gt;Node1 -->
<g id="edge1" class="edge">
<title>Node0&#45;&gt;Node1</title>
<path fill="none" stroke="#191970" d="M834.6229,-235.3258C814.8201,-224.6116 792.6596,-212.6218 775.8454,-203.5246"/>
<polygon fill="#191970" stroke="#191970" points="777.0822,-200.2143 766.6215,-198.534 773.7512,-206.371 777.0822,-200.2143"/>
</g>
<!-- Node11 -->
<g id="node12" class="node">
<title>Node11</title>
<g id="a_node12"><a xlink:href="../../dc/d44/FIT_2FT0_2include_2DataFormatsFT0_2ChannelData_8h.html" target="_top" xlink:title="DataFormatsFT0/ChannelData.h">
<polygon fill="none" stroke="#000000" points="0,-118 0,-137 172,-137 172,-118 0,-118"/>
<text text-anchor="middle" x="86" y="-125" font-family="Helvetica,sans-Serif" font-size="10.00" fill="#000000">DataFormatsFT0/ChannelData.h</text>
</a>
</g>
</g>
<!-- Node0&#45;&gt;Node11 -->
<g id="edge19" class="edge">
<title>Node0&#45;&gt;Node11</title>
<path fill="none" stroke="#191970" d="M816.4191,-250.3057C666.2912,-225.0646 302.8189,-163.9539 152.6375,-138.7038"/>
<polygon fill="#191970" stroke="#191970" points="153.0702,-135.2275 142.6283,-137.0209 151.9096,-142.1306 153.0702,-135.2275"/>
</g>
<!-- Node12 -->
<g id="node13" class="node">
<title>Node12</title>
<polygon fill="none" stroke="#bfbfbf" points="854.5,-118 854.5,-137 911.5,-137 911.5,-118 854.5,-118"/>
<text text-anchor="middle" x="883" y="-125" font-family="Helvetica,sans-Serif" font-size="10.00" fill="#000000">gsl/span</text>
</g>
<!-- Node0&#45;&gt;Node12 -->
<g id="edge21" class="edge">
<title>Node0&#45;&gt;Node12</title>
<path fill="none" stroke="#191970" d="M883,-235.3453C883,-209.5564 883,-170.7118 883,-147.3578"/>
<polygon fill="#191970" stroke="#191970" points="886.5001,-147.2626 883,-137.2626 879.5001,-147.2627 886.5001,-147.2626"/>
</g>
<!-- Node13 -->
<g id="node14" class="node">
<title>Node13</title>
<polygon fill="none" stroke="#bfbfbf" points="930,-118 930,-137 974,-137 974,-118 930,-118"/>
<text text-anchor="middle" x="952" y="-125" font-family="Helvetica,sans-Serif" font-size="10.00" fill="#000000">bitset</text>
</g>
<!-- Node0&#45;&gt;Node13 -->
<g id="edge22" class="edge">
<title>Node0&#45;&gt;Node13</title>
<path fill="none" stroke="#191970" d="M896.4677,-235.3453C909.9282,-209.2047 930.2959,-169.6499 942.2622,-146.4112"/>
<polygon fill="#191970" stroke="#191970" points="945.5066,-147.7555 946.973,-137.2626 939.2832,-144.5509 945.5066,-147.7555"/>
</g>
<!-- Node14 -->
<g id="node15" class="node">
<title>Node14</title>
<polygon fill="none" stroke="#bfbfbf" points="992,-118 992,-137 1052,-137 1052,-118 992,-118"/>
<text text-anchor="middle" x="1022" y="-125" font-family="Helvetica,sans-Serif" font-size="10.00" fill="#000000">iostream</text>
</g>
<!-- Node0&#45;&gt;Node14 -->
<g id="edge20" class="edge">
<title>Node0&#45;&gt;Node14</title>
<path fill="none" stroke="#191970" d="M910.1306,-235.3453C938.0978,-208.3841 980.8669,-167.1535 1004.6023,-144.2719"/>
<polygon fill="#191970" stroke="#191970" points="1007.1028,-146.7229 1011.8731,-137.2626 1002.2445,-141.6833 1007.1028,-146.7229"/>
</g>
<!-- Node2 -->
<g id="node3" class="node">
<title>Node2</title>
<g id="a_node3"><a xlink:href="../../d9/d80/InteractionRecord_8h.html" target="_top" xlink:title="CommonDataFormat/Interaction\lRecord.h">
<polygon fill="none" stroke="#000000" points="662,-112.5 662,-142.5 836,-142.5 836,-112.5 662,-112.5"/>
<text text-anchor="start" x="670" y="-130.5" font-family="Helvetica,sans-Serif" font-size="10.00" fill="#000000">CommonDataFormat/Interaction</text>
<text text-anchor="middle" x="749" y="-119.5" font-family="Helvetica,sans-Serif" font-size="10.00" fill="#000000">Record.h</text>
</a>
</g>
</g>
<!-- Node1&#45;&gt;Node2 -->
<g id="edge2" class="edge">
<title>Node1&#45;&gt;Node2</title>
<path fill="none" stroke="#191970" d="M749,-179.3906C749,-172.2234 749,-162.0862 749,-152.671"/>
<polygon fill="#191970" stroke="#191970" points="752.5001,-152.5446 749,-142.5446 745.5001,-152.5446 752.5001,-152.5446"/>
</g>
<!-- Node3 -->
<g id="node4" class="node">
<title>Node3</title>
<polygon fill="none" stroke="#bfbfbf" points="236.5,-.5 236.5,-19.5 295.5,-19.5 295.5,-.5 236.5,-.5"/>
<text text-anchor="middle" x="266" y="-7.5" font-family="Helvetica,sans-Serif" font-size="10.00" fill="#000000">Rtypes.h</text>
</g>
<!-- Node1&#45;&gt;Node3 -->
<g id="edge15" class="edge">
<title>Node1&#45;&gt;Node3</title>
<path fill="none" stroke="#191970" d="M682.879,-185.6229C544.2193,-178.2211 234.4784,-159.88 219,-143 188.401,-109.6302 226.509,-55.0946 250.0462,-27.3669"/>
<polygon fill="#191970" stroke="#191970" points="252.8291,-29.5018 256.7908,-19.6755 247.5661,-24.8866 252.8291,-29.5018"/>
</g>
<!-- Node8 -->
<g id="node9" class="node">
<title>Node8</title>
<g id="a_node9"><a xlink:href="../../de/d64/RangeReference_8h.html" target="_top" xlink:title="Class to refer to the 1st entry and N elements of some group in the continuous container. ">
<polygon fill="none" stroke="#000000" points="228,-118 228,-137 438,-137 438,-118 228,-118"/>
<text text-anchor="middle" x="333" y="-125" font-family="Helvetica,sans-Serif" font-size="10.00" fill="#000000">CommonDataFormat/RangeReference.h</text>
</a>
</g>
</g>
<!-- Node1&#45;&gt;Node8 -->
<g id="edge8" class="edge">
<title>Node1&#45;&gt;Node8</title>
<path fill="none" stroke="#191970" d="M684.4564,-179.4581C609.651,-168.3991 486.5794,-150.2047 407.7015,-138.5436"/>
<polygon fill="#191970" stroke="#191970" points="407.7571,-135.0139 397.3527,-137.0137 406.7333,-141.9386 407.7571,-135.0139"/>
</g>
<!-- Node10 -->
<g id="node11" class="node">
<title>Node10</title>
<g id="a_node11"><a xlink:href="../../df/d5d/common_2include_2CommonDataFormat_2TimeStamp_8h.html" target="_top" xlink:title="CommonDataFormat/TimeStamp.h">
<polygon fill="none" stroke="#000000" points="456.5,-118 456.5,-137 643.5,-137 643.5,-118 456.5,-118"/>
<text text-anchor="middle" x="550" y="-125" font-family="Helvetica,sans-Serif" font-size="10.00" fill="#000000">CommonDataFormat/TimeStamp.h</text>
</a>
</g>
</g>
<!-- Node1&#45;&gt;Node10 -->
<g id="edge11" class="edge">
<title>Node1&#45;&gt;Node10</title>
<path fill="none" stroke="#191970" d="M717.9063,-179.3906C683.5876,-168.7846 628.2257,-151.6753 590.5302,-140.0257"/>
<polygon fill="#191970" stroke="#191970" points="591.463,-136.6507 580.8754,-137.0419 589.3961,-143.3386 591.463,-136.6507"/>
</g>
<!-- Node1&#45;&gt;Node11 -->
<g id="edge13" class="edge">
<title>Node1&#45;&gt;Node11</title>
<path fill="none" stroke="#191970" d="M682.9727,-185.157C577.6462,-178.6778 365.1991,-164.1806 186,-143 175.2469,-141.729 163.8753,-140.1716 152.8063,-138.5394"/>
<polygon fill="#191970" stroke="#191970" points="153.162,-135.0536 142.7523,-137.0254 152.1196,-141.9755 153.162,-135.0536"/>
</g>
<!-- Node1&#45;&gt;Node12 -->
<g id="edge16" class="edge">
<title>Node1&#45;&gt;Node12</title>
<path fill="none" stroke="#191970" d="M769.9375,-179.3906C792.2598,-169.1457 827.8037,-152.8326 853.0757,-141.2339"/>
<polygon fill="#191970" stroke="#191970" points="854.581,-144.3942 862.2095,-137.0419 851.6611,-138.0322 854.581,-144.3942"/>
</g>
<!-- Node1&#45;&gt;Node13 -->
<g id="edge17" class="edge">
<title>Node1&#45;&gt;Node13</title>
<path fill="none" stroke="#191970" d="M793.6489,-179.423C828.5798,-171.3516 878.0883,-158.6288 920,-143 921.4098,-142.4743 922.8413,-141.9081 924.2775,-141.3141"/>
<polygon fill="#191970" stroke="#191970" points="925.9483,-144.4008 933.6452,-137.1201 923.0879,-138.0119 925.9483,-144.4008"/>
</g>
<!-- Node1&#45;&gt;Node14 -->
<g id="edge18" class="edge">
<title>Node1&#45;&gt;Node14</title>
<path fill="none" stroke="#191970" d="M814.3333,-179.469C861.6986,-171.7613 926.997,-159.4805 983,-143 985.4464,-142.2801 987.9528,-141.4673 990.4571,-140.6005"/>
<polygon fill="#191970" stroke="#191970" points="991.8148,-143.83 999.9743,-137.0717 989.3812,-137.2666 991.8148,-143.83"/>
</g>
<!-- Node2&#45;&gt;Node3 -->
<g id="edge3" class="edge">
<title>Node2&#45;&gt;Node3</title>
<path fill="none" stroke="#191970" d="M729.3127,-112.2672C704.4679,-93.3507 662.8302,-62.7426 645,-56 583.5395,-32.7584 389.9417,-17.9251 305.7515,-12.417"/>
<polygon fill="#191970" stroke="#191970" points="305.7727,-8.9112 295.5684,-11.7615 305.3229,-15.8967 305.7727,-8.9112"/>
</g>
<!-- Node4 -->
<g id="node5" class="node">
<title>Node4</title>
<polygon fill="none" stroke="#bfbfbf" points="692.5,-56.5 692.5,-75.5 741.5,-75.5 741.5,-56.5 692.5,-56.5"/>
<text text-anchor="middle" x="717" y="-63.5" font-family="Helvetica,sans-Serif" font-size="10.00" fill="#000000">iosfwd</text>
</g>
<!-- Node2&#45;&gt;Node4 -->
<g id="edge4" class="edge">
<title>Node2&#45;&gt;Node4</title>
<path fill="none" stroke="#191970" d="M741.0899,-112.2977C736.7868,-104.0277 731.4242,-93.7215 726.8518,-84.9339"/>
<polygon fill="#191970" stroke="#191970" points="729.8443,-83.1024 722.1236,-75.8469 723.6346,-86.3335 729.8443,-83.1024"/>
</g>
<!-- Node5 -->
<g id="node6" class="node">
<title>Node5</title>
<polygon fill="none" stroke="#bfbfbf" points="759.5,-56.5 759.5,-75.5 806.5,-75.5 806.5,-56.5 759.5,-56.5"/>
<text text-anchor="middle" x="783" y="-63.5" font-family="Helvetica,sans-Serif" font-size="10.00" fill="#000000">cmath</text>
</g>
<!-- Node2&#45;&gt;Node5 -->
<g id="edge5" class="edge">
<title>Node2&#45;&gt;Node5</title>
<path fill="none" stroke="#191970" d="M757.4045,-112.2977C762.0257,-103.9388 767.7969,-93.4997 772.6889,-84.6509"/>
<polygon fill="#191970" stroke="#191970" points="775.7809,-86.292 777.5562,-75.8469 769.6548,-82.9051 775.7809,-86.292"/>
</g>
<!-- Node6 -->
<g id="node7" class="node">
<title>Node6</title>
<polygon fill="none" stroke="#bfbfbf" points="825,-56.5 825,-75.5 875,-75.5 875,-56.5 825,-56.5"/>
<text text-anchor="middle" x="850" y="-63.5" font-family="Helvetica,sans-Serif" font-size="10.00" fill="#000000">cstdint</text>
</g>
<!-- Node2&#45;&gt;Node6 -->
<g id="edge6" class="edge">
<title>Node2&#45;&gt;Node6</title>
<path fill="none" stroke="#191970" d="M773.7074,-112.4554C789.5247,-102.8241 809.9567,-90.3828 825.6949,-80.7996"/>
<polygon fill="#191970" stroke="#191970" points="827.6277,-83.7206 834.3486,-75.5303 823.9871,-77.7418 827.6277,-83.7206"/>
</g>
<!-- Node7 -->
<g id="node8" class="node">
<title>Node7</title>
<g id="a_node8"><a xlink:href="../../d4/dc6/LHCConstants_8h.html" target="_top" xlink:title="Header to collect LHC related constants. ">
<polygon fill="none" stroke="#000000" points="446,-56.5 446,-75.5 636,-75.5 636,-56.5 446,-56.5"/>
<text text-anchor="middle" x="541" y="-63.5" font-family="Helvetica,sans-Serif" font-size="10.00" fill="#000000">CommonConstants/LHCConstants.h</text>
</a>
</g>
</g>
<!-- Node2&#45;&gt;Node7 -->
<g id="edge7" class="edge">
<title>Node2&#45;&gt;Node7</title>
<path fill="none" stroke="#191970" d="M698.1175,-112.4554C662.8033,-102.0139 616.3197,-88.27 583.092,-78.4455"/>
<polygon fill="#191970" stroke="#191970" points="583.8146,-75.0094 573.2326,-75.5303 581.8298,-81.7221 583.8146,-75.0094"/>
</g>
<!-- Node9 -->
<g id="node10" class="node">
<title>Node9</title>
<g id="a_node10"><a xlink:href="../../d2/d45/GPUCommonRtypes_8h.html" target="_top" xlink:title="GPUCommonRtypes.h">
<polygon fill="none" stroke="#000000" points="270.5,-56.5 270.5,-75.5 395.5,-75.5 395.5,-56.5 270.5,-56.5"/>
<text text-anchor="middle" x="333" y="-63.5" font-family="Helvetica,sans-Serif" font-size="10.00" fill="#000000">GPUCommonRtypes.h</text>
</a>
</g>
</g>
<!-- Node8&#45;&gt;Node9 -->
<g id="edge9" class="edge">
<title>Node8&#45;&gt;Node9</title>
<path fill="none" stroke="#191970" d="M333,-117.8906C333,-109.3657 333,-96.6392 333,-85.9235"/>
<polygon fill="#191970" stroke="#191970" points="336.5001,-85.7448 333,-75.7449 329.5001,-85.7449 336.5001,-85.7448"/>
</g>
<!-- Node9&#45;&gt;Node3 -->
<g id="edge10" class="edge">
<title>Node9&#45;&gt;Node3</title>
<path fill="none" stroke="#191970" d="M321.3295,-56.2455C311.4339,-47.9746 297.0373,-35.9416 285.4099,-26.2232"/>
<polygon fill="#191970" stroke="#191970" points="287.4542,-23.3703 277.5368,-19.6427 282.965,-28.7413 287.4542,-23.3703"/>
</g>
<!-- Node10&#45;&gt;Node9 -->
<g id="edge12" class="edge">
<title>Node10&#45;&gt;Node9</title>
<path fill="none" stroke="#191970" d="M516.0938,-117.8906C478.4321,-107.2169 417.5298,-89.9566 376.4115,-78.3033"/>
<polygon fill="#191970" stroke="#191970" points="377.2436,-74.9013 366.6682,-75.5419 375.3349,-81.6361 377.2436,-74.9013"/>
</g>
<!-- Node11&#45;&gt;Node3 -->
<g id="edge14" class="edge">
<title>Node11&#45;&gt;Node3</title>
<path fill="none" stroke="#191970" d="M98.6629,-117.8289C117.3738,-103.6819 153.6839,-76.7719 186,-56 203.2993,-44.8805 223.3632,-33.347 239.0702,-24.6103"/>
<polygon fill="#191970" stroke="#191970" points="241.1581,-27.4557 248.2233,-19.5605 237.7767,-21.3266 241.1581,-27.4557"/>
</g>
</g>
</svg>
        <g id="navigator" transform="translate(0 0)" fill="#404254">
                <rect fill="#f2f5e9" fill-opacity="0.5" stroke="#606060" stroke-width=".5" x="0" y="0" width="60" height="60"/>
                <use id="zoomplus" xlink:href="#zoomPlus" x="17" y="9" onmousedown="handleZoom(evt,'in')"/>
                <use id="zoomminus" xlink:href="#zoomMin" x="42" y="9" onmousedown="handleZoom(evt,'out')"/>
                <use id="reset" xlink:href="#resetDef" x="30" y="36" onmousedown="handleReset()"/>
                <g id="arrowUp" xlink:href="#dirArrow" transform="translate(30 24)" onmousedown="handlePan(0,-1)">
                  <use xlink:href="#rim" fill="#404040">
                        <set attributeName="fill" to="#808080" begin="arrowUp.mouseover" end="arrowUp.mouseout"/>
                  </use>
                  <path fill="none" stroke="white" stroke-width="1.5" d="M0,-3.0v7 M-2.5,-0.5L0,-3.0L2.5,-0.5"/>
                </g>
                <g id="arrowRight" xlink:href="#dirArrow" transform="rotate(90) translate(36 -43)" onmousedown="handlePan(1,0)">
                  <use xlink:href="#rim" fill="#404040">
                        <set attributeName="fill" to="#808080" begin="arrowRight.mouseover" end="arrowRight.mouseout"/>
                  </use>
                  <path fill="none" stroke="white" stroke-width="1.5" d="M0,-3.0v7 M-2.5,-0.5L0,-3.0L2.5,-0.5"/>
                </g>
                <g id="arrowDown" xlink:href="#dirArrow" transform="rotate(180) translate(-30 -48)" onmousedown="handlePan(0,1)">
                  <use xlink:href="#rim" fill="#404040">
                        <set attributeName="fill" to="#808080" begin="arrowDown.mouseover" end="arrowDown.mouseout"/>
                  </use>
                  <path fill="none" stroke="white" stroke-width="1.5" d="M0,-3.0v7 M-2.5,-0.5L0,-3.0L2.5,-0.5"/>
                </g>
                <g id="arrowLeft" xlink:href="#dirArrow" transform="rotate(270) translate(-36 17)" onmousedown="handlePan(-1,0)">
                  <use xlink:href="#rim" fill="#404040">
                        <set attributeName="fill" to="#808080" begin="arrowLeft.mouseover" end="arrowLeft.mouseout"/>
                  </use>
                  <path fill="none" stroke="white" stroke-width="1.5" d="M0,-3.0v7 M-2.5,-0.5L0,-3.0L2.5,-0.5"/>
                </g>
        </g>
        <svg viewBox="0 0 15 15" width="100%" height="30px" preserveAspectRatio="xMaxYMin meet">
         <g id="arrow_out" transform="scale(0.3 0.3)">
          <a xlink:href="DataFormats_2Detectors_2FIT_2FT0_2src_2Digit_8cxx__incl_org.svg" target="_base">
           <rect id="button" ry="5" rx="5" y="6" x="6" height="38" width="38"
                fill="#f2f5e9" fill-opacity="0.5" stroke="#606060" stroke-width="1.0"/>
           <path id="arrow"
             d="M 11.500037,31.436501 C 11.940474,20.09759 22.043105,11.32322 32.158766,21.979434 L 37.068811,17.246167 C 37.068811,17.246167 37.088388,32 37.088388,32 L 22.160133,31.978069 C 22.160133,31.978069 26.997745,27.140456 26.997745,27.140456 C 18.528582,18.264221 13.291696,25.230495 11.500037,31.436501 z"
             style="fill:#404040;"/>
          </a>
         </g>
        </svg>
</svg>
