<?xml version="1.0" encoding="UTF-8" standalone="no"?>
<!DOCTYPE svg PUBLIC "-//W3C//DTD SVG 1.1//EN"
 "http://www.w3.org/Graphics/SVG/1.1/DTD/svg11.dtd">
<!-- Generated by graphviz version 2.40.1 (20161225.0304)
 -->
<!-- Title: /home/travis/build/AliceO2Group/AliceO2/DataFormats/Detectors/FIT/FT0/include/DataFormatsFT0/RecPoints.h Pages: 1 -->
<!--zoomable 307 -->
<svg id="main" version="1.1" xmlns="http://www.w3.org/2000/svg" xmlns:xlink="http://www.w3.org/1999/xlink" xml:space="preserve" onload="init(evt)">
<style type="text/css"><![CDATA[
.edge:hover path { stroke: red; }
.edge:hover polygon { stroke: red; fill: red; }
]]></style>
<script type="text/javascript"><![CDATA[
var edges = document.getElementsByTagName('g');
if (edges && edges.length) {
  for (var i=0;i<edges.length;i++) {
    if (edges[i].id.substr(0,4)=='edge') {
      edges[i].setAttribute('class','edge');
    }
  }
}
]]></script>
        <defs>
                <circle id="rim" cx="0" cy="0" r="7"/>
                <circle id="rim2" cx="0" cy="0" r="3.5"/>
                <g id="zoomPlus">
                        <use xlink:href="#rim" fill="#404040">
                                <set attributeName="fill" to="#808080" begin="zoomplus.mouseover" end="zoomplus.mouseout"/>
                        </use>
                        <path d="M-4,0h8M0,-4v8" fill="none" stroke="white" stroke-width="1.5" pointer-events="none"/>
                </g>
                <g id="zoomMin">
                        <use xlink:href="#rim" fill="#404040">
                                <set attributeName="fill" to="#808080" begin="zoomminus.mouseover" end="zoomminus.mouseout"/>
                        </use>
                        <path d="M-4,0h8" fill="none" stroke="white" stroke-width="1.5" pointer-events="none"/>
                </g>
                <g id="dirArrow">
                        <path fill="none" stroke="white" stroke-width="1.5" d="M0,-3.0v7 M-2.5,-0.5L0,-3.0L2.5,-0.5"/>
                </g>
               <g id="resetDef">
                       <use xlink:href="#rim2" fill="#404040">
                               <set attributeName="fill" to="#808080" begin="reset.mouseover" end="reset.mouseout"/>
                       </use>
               </g>
        </defs>

<script type="text/javascript">
var viewWidth = 1189;
var viewHeight = 307;
var sectionId = 'dynsection-0';
</script>
<script xlink:href="../../svgpan.js"/>
<svg id="graph" class="graph">
<g id="viewport">
<title>/home/travis/build/AliceO2Group/AliceO2/DataFormats/Detectors/FIT/FT0/include/DataFormatsFT0/RecPoints.h</title>
<!-- Node0 -->
<g id="node1" class="node">
<title>Node0</title>
<polygon fill="#bfbfbf" stroke="#000000" points="557.1448,-235.5 557.1448,-298.5 733.1448,-298.5 733.1448,-235.5 557.1448,-235.5"/>
<text text-anchor="start" x="565.1448" y="-286.5" font-family="Helvetica,sans-Serif" font-size="10.00" fill="#000000">/home/travis/build</text>
<text text-anchor="start" x="565.1448" y="-275.5" font-family="Helvetica,sans-Serif" font-size="10.00" fill="#000000">/AliceO2Group/AliceO2</text>
<text text-anchor="start" x="565.1448" y="-264.5" font-family="Helvetica,sans-Serif" font-size="10.00" fill="#000000">/DataFormats/Detectors</text>
<text text-anchor="start" x="565.1448" y="-253.5" font-family="Helvetica,sans-Serif" font-size="10.00" fill="#000000">/FIT/FT0/include/DataFormatsFT0</text>
<text text-anchor="middle" x="645.1448" y="-242.5" font-family="Helvetica,sans-Serif" font-size="10.00" fill="#000000">/RecPoints.h</text>
</g>
<!-- Node1 -->
<g id="node2" class="node">
<title>Node1</title>
<g id="a_node2"><a xlink:href="../../d9/d80/InteractionRecord_8h.html" target="_top" xlink:title="CommonDataFormat/Interaction\lRecord.h">
<polygon fill="none" stroke="#000000" points="818.1448,-112.5 818.1448,-142.5 992.1448,-142.5 992.1448,-112.5 818.1448,-112.5"/>
<text text-anchor="start" x="826.1448" y="-130.5" font-family="Helvetica,sans-Serif" font-size="10.00" fill="#000000">CommonDataFormat/Interaction</text>
<text text-anchor="middle" x="905.1448" y="-119.5" font-family="Helvetica,sans-Serif" font-size="10.00" fill="#000000">Record.h</text>
</a>
</g>
</g>
<!-- Node0&#45;&gt;Node1 -->
<g id="edge1" class="edge">
<title>Node0&#45;&gt;Node1</title>
<path fill="none" stroke="#191970" d="M681.5086,-235.4867C703.9279,-217.2093 733.9,-194.7628 763.1448,-179 788.1174,-165.5399 817.3415,-154.2593 842.7644,-145.7197"/>
<polygon fill="#191970" stroke="#191970" points="843.899,-149.031 852.3051,-142.5822 841.7122,-142.3814 843.899,-149.031"/>
</g>
<!-- Node2 -->
<g id="node3" class="node">
<title>Node2</title>
<polygon fill="none" stroke="#bfbfbf" points="506.6448,-.5 506.6448,-19.5 565.6448,-19.5 565.6448,-.5 506.6448,-.5"/>
<text text-anchor="middle" x="536.1448" y="-7.5" font-family="Helvetica,sans-Serif" font-size="10.00" fill="#000000">Rtypes.h</text>
</g>
<!-- Node0&#45;&gt;Node2 -->
<g id="edge24" class="edge">
<title>Node0&#45;&gt;Node2</title>
<path fill="none" stroke="#191970" d="M557.1396,-263.2282C398.7833,-254.396 75.8683,-226.3663 7.1448,-143 -57.808,-64.2077 362.0911,-23.7815 496.0388,-12.9973"/>
<polygon fill="#191970" stroke="#191970" points="496.5845,-16.4651 506.2768,-12.1862 496.0316,-9.487 496.5845,-16.4651"/>
</g>
<!-- Node7 -->
<g id="node8" class="node">
<title>Node7</title>
<g id="a_node8"><a xlink:href="../../df/d5d/common_2include_2CommonDataFormat_2TimeStamp_8h.html" target="_top" xlink:title="CommonDataFormat/TimeStamp.h">
<polygon fill="none" stroke="#000000" points="244.6448,-118 244.6448,-137 431.6448,-137 431.6448,-118 244.6448,-118"/>
<text text-anchor="middle" x="338.1448" y="-125" font-family="Helvetica,sans-Serif" font-size="10.00" fill="#000000">CommonDataFormat/TimeStamp.h</text>
</a>
</g>
</g>
<!-- Node0&#45;&gt;Node7 -->
<g id="edge7" class="edge">
<title>Node0&#45;&gt;Node7</title>
<path fill="none" stroke="#191970" d="M575.4818,-235.3453C510.4373,-205.7893 416.4216,-163.0688 368.5853,-141.3321"/>
<polygon fill="#191970" stroke="#191970" points="369.9327,-138.1 359.3806,-137.1495 367.0368,-144.4729 369.9327,-138.1"/>
</g>
<!-- Node9 -->
<g id="node10" class="node">
<title>Node9</title>
<g id="a_node10"><a xlink:href="../../dc/d44/FIT_2FT0_2include_2DataFormatsFT0_2ChannelData_8h.html" target="_top" xlink:title="DataFormatsFT0/ChannelData.h">
<polygon fill="none" stroke="#000000" points="450.1448,-118 450.1448,-137 622.1448,-137 622.1448,-118 450.1448,-118"/>
<text text-anchor="middle" x="536.1448" y="-125" font-family="Helvetica,sans-Serif" font-size="10.00" fill="#000000">DataFormatsFT0/ChannelData.h</text>
</a>
</g>
</g>
<!-- Node0&#45;&gt;Node9 -->
<g id="edge10" class="edge">
<title>Node0&#45;&gt;Node9</title>
<path fill="none" stroke="#191970" d="M604.5051,-235.3587C592.4584,-224.6812 579.8944,-212.1196 570.1448,-199 558.2697,-183.0203 548.9481,-162.2341 543.092,-147.196"/>
<polygon fill="#191970" stroke="#191970" points="546.2199,-145.5653 539.4534,-137.4127 539.6589,-148.0055 546.2199,-145.5653"/>
</g>
<!-- Node10 -->
<g id="node11" class="node">
<title>Node10</title>
<g id="a_node11"><a xlink:href="../../de/d64/RangeReference_8h.html" target="_top" xlink:title="Class to refer to the 1st entry and N elements of some group in the continuous container. ">
<polygon fill="none" stroke="#000000" points="16.1448,-118 16.1448,-137 226.1448,-137 226.1448,-118 16.1448,-118"/>
<text text-anchor="middle" x="121.1448" y="-125" font-family="Helvetica,sans-Serif" font-size="10.00" fill="#000000">CommonDataFormat/RangeReference.h</text>
</a>
</g>
</g>
<!-- Node0&#45;&gt;Node10 -->
<g id="edge12" class="edge">
<title>Node0&#45;&gt;Node10</title>
<path fill="none" stroke="#191970" d="M557.1436,-243.5722C444.5599,-213.6 253.7446,-162.8009 166.7788,-139.6487"/>
<polygon fill="#191970" stroke="#191970" points="167.5124,-136.2222 156.9486,-137.0317 165.7116,-142.9866 167.5124,-136.2222"/>
</g>
<!-- Node11 -->
<g id="node12" class="node">
<title>Node11</title>
<g id="a_node12"><a xlink:href="../../d0/d0a/DataFormats_2Detectors_2FIT_2FT0_2include_2DataFormatsFT0_2Digit_8h.html" target="_top" xlink:title="DataFormatsFT0/Digit.h">
<polygon fill="none" stroke="#000000" points="579.1448,-179.5 579.1448,-198.5 711.1448,-198.5 711.1448,-179.5 579.1448,-179.5"/>
<text text-anchor="middle" x="645.1448" y="-186.5" font-family="Helvetica,sans-Serif" font-size="10.00" fill="#000000">DataFormatsFT0/Digit.h</text>
</a>
</g>
</g>
<!-- Node0&#45;&gt;Node11 -->
<g id="edge14" class="edge">
<title>Node0&#45;&gt;Node11</title>
<path fill="none" stroke="#191970" d="M645.1448,-235.2744C645.1448,-226.3302 645.1448,-216.8568 645.1448,-208.8269"/>
<polygon fill="#191970" stroke="#191970" points="648.6449,-208.6425 645.1448,-198.6426 641.6449,-208.6426 648.6449,-208.6425"/>
</g>
<!-- Node12 -->
<g id="node13" class="node">
<title>Node12</title>
<polygon fill="none" stroke="#bfbfbf" points="1010.6448,-118 1010.6448,-137 1067.6448,-137 1067.6448,-118 1010.6448,-118"/>
<text text-anchor="middle" x="1039.1448" y="-125" font-family="Helvetica,sans-Serif" font-size="10.00" fill="#000000">gsl/span</text>
</g>
<!-- Node0&#45;&gt;Node12 -->
<g id="edge26" class="edge">
<title>Node0&#45;&gt;Node12</title>
<path fill="none" stroke="#191970" d="M698.9891,-235.4752C741.8117,-210.4258 794.7913,-179.4952 796.1448,-179 883.018,-147.215 912.2565,-168.6146 1001.1448,-143 1003.6009,-142.2922 1006.1149,-141.4784 1008.6223,-140.6022"/>
<polygon fill="#191970" stroke="#191970" points="1010.0107,-143.8191 1018.1241,-137.0058 1007.5327,-137.2724 1010.0107,-143.8191"/>
</g>
<!-- Node15 -->
<g id="node16" class="node">
<title>Node15</title>
<polygon fill="none" stroke="#bfbfbf" points="805.1448,-179.5 805.1448,-198.5 847.1448,-198.5 847.1448,-179.5 805.1448,-179.5"/>
<text text-anchor="middle" x="826.1448" y="-186.5" font-family="Helvetica,sans-Serif" font-size="10.00" fill="#000000">array</text>
</g>
<!-- Node0&#45;&gt;Node15 -->
<g id="edge23" class="edge">
<title>Node0&#45;&gt;Node15</title>
<path fill="none" stroke="#191970" d="M718.2427,-235.4992C745.1772,-223.8921 774.2488,-211.364 795.4224,-202.2395"/>
<polygon fill="#191970" stroke="#191970" points="797.0498,-205.3494 804.8482,-198.1776 794.2794,-198.9209 797.0498,-205.3494"/>
</g>
<!-- Node16 -->
<g id="node17" class="node">
<title>Node16</title>
<polygon fill="none" stroke="#bfbfbf" points="865.6448,-179.5 865.6448,-198.5 928.6448,-198.5 928.6448,-179.5 865.6448,-179.5"/>
<text text-anchor="middle" x="897.1448" y="-186.5" font-family="Helvetica,sans-Serif" font-size="10.00" fill="#000000">TObject.h</text>
</g>
<!-- Node0&#45;&gt;Node16 -->
<g id="edge25" class="edge">
<title>Node0&#45;&gt;Node16</title>
<path fill="none" stroke="#191970" d="M733.2822,-239.7194C775.2144,-226.7404 823.3142,-211.8523 856.5022,-201.5799"/>
<polygon fill="#191970" stroke="#191970" points="857.7819,-204.8477 866.2998,-198.5473 855.7121,-198.1607 857.7819,-204.8477"/>
</g>
<!-- Node1&#45;&gt;Node2 -->
<g id="edge2" class="edge">
<title>Node1&#45;&gt;Node2</title>
<path fill="none" stroke="#191970" d="M858.0359,-112.4992C784.5174,-89.0888 643.8532,-44.2974 575.4454,-22.5144"/>
<polygon fill="#191970" stroke="#191970" points="576.4839,-19.172 565.8934,-19.4728 574.36,-25.842 576.4839,-19.172"/>
</g>
<!-- Node3 -->
<g id="node4" class="node">
<title>Node3</title>
<polygon fill="none" stroke="#bfbfbf" points="1131.6448,-56.5 1131.6448,-75.5 1180.6448,-75.5 1180.6448,-56.5 1131.6448,-56.5"/>
<text text-anchor="middle" x="1156.1448" y="-63.5" font-family="Helvetica,sans-Serif" font-size="10.00" fill="#000000">iosfwd</text>
</g>
<!-- Node1&#45;&gt;Node3 -->
<g id="edge3" class="edge">
<title>Node1&#45;&gt;Node3</title>
<path fill="none" stroke="#191970" d="M972.8203,-112.4107C1013.3137,-103.1558 1066.001,-90.7206 1121.3153,-76.1234"/>
<polygon fill="#191970" stroke="#191970" points="1122.5382,-79.4201 1131.3051,-73.471 1120.7418,-72.6545 1122.5382,-79.4201"/>
</g>
<!-- Node4 -->
<g id="node5" class="node">
<title>Node4</title>
<polygon fill="none" stroke="#bfbfbf" points="789.6448,-56.5 789.6448,-75.5 836.6448,-75.5 836.6448,-56.5 789.6448,-56.5"/>
<text text-anchor="middle" x="813.1448" y="-63.5" font-family="Helvetica,sans-Serif" font-size="10.00" fill="#000000">cmath</text>
</g>
<!-- Node1&#45;&gt;Node4 -->
<g id="edge4" class="edge">
<title>Node1&#45;&gt;Node4</title>
<path fill="none" stroke="#191970" d="M882.4032,-112.2977C868.3482,-102.9022 850.3618,-90.8787 836.2412,-81.4395"/>
<polygon fill="#191970" stroke="#191970" points="837.8591,-78.311 827.6004,-75.6633 833.9689,-84.1305 837.8591,-78.311"/>
</g>
<!-- Node5 -->
<g id="node6" class="node">
<title>Node5</title>
<polygon fill="none" stroke="#bfbfbf" points="855.1448,-56.5 855.1448,-75.5 905.1448,-75.5 905.1448,-56.5 855.1448,-56.5"/>
<text text-anchor="middle" x="880.1448" y="-63.5" font-family="Helvetica,sans-Serif" font-size="10.00" fill="#000000">cstdint</text>
</g>
<!-- Node1&#45;&gt;Node5 -->
<g id="edge5" class="edge">
<title>Node1&#45;&gt;Node5</title>
<path fill="none" stroke="#191970" d="M898.965,-112.2977C895.6394,-104.1166 891.5037,-93.943 887.957,-85.2179"/>
<polygon fill="#191970" stroke="#191970" points="891.1558,-83.7927 884.1476,-75.8469 884.6711,-86.4288 891.1558,-83.7927"/>
</g>
<!-- Node6 -->
<g id="node7" class="node">
<title>Node6</title>
<g id="a_node7"><a xlink:href="../../d4/dc6/LHCConstants_8h.html" target="_top" xlink:title="Header to collect LHC related constants. ">
<polygon fill="none" stroke="#000000" points="923.1448,-56.5 923.1448,-75.5 1113.1448,-75.5 1113.1448,-56.5 923.1448,-56.5"/>
<text text-anchor="middle" x="1018.1448" y="-63.5" font-family="Helvetica,sans-Serif" font-size="10.00" fill="#000000">CommonConstants/LHCConstants.h</text>
</a>
</g>
</g>
<!-- Node1&#45;&gt;Node6 -->
<g id="edge6" class="edge">
<title>Node1&#45;&gt;Node6</title>
<path fill="none" stroke="#191970" d="M932.7877,-112.4554C950.6497,-102.734 973.7716,-90.15 991.4443,-80.5317"/>
<polygon fill="#191970" stroke="#191970" points="993.5235,-83.3849 1000.6338,-75.5303 990.1773,-77.2365 993.5235,-83.3849"/>
</g>
<!-- Node8 -->
<g id="node9" class="node">
<title>Node8</title>
<g id="a_node9"><a xlink:href="../../d2/d45/GPUCommonRtypes_8h.html" target="_top" xlink:title="GPUCommonRtypes.h">
<polygon fill="none" stroke="#000000" points="275.6448,-56.5 275.6448,-75.5 400.6448,-75.5 400.6448,-56.5 275.6448,-56.5"/>
<text text-anchor="middle" x="338.1448" y="-63.5" font-family="Helvetica,sans-Serif" font-size="10.00" fill="#000000">GPUCommonRtypes.h</text>
</a>
</g>
</g>
<!-- Node7&#45;&gt;Node8 -->
<g id="edge8" class="edge">
<title>Node7&#45;&gt;Node8</title>
<path fill="none" stroke="#191970" d="M338.1448,-117.8906C338.1448,-109.3657 338.1448,-96.6392 338.1448,-85.9235"/>
<polygon fill="#191970" stroke="#191970" points="341.6449,-85.7448 338.1448,-75.7449 334.6449,-85.7449 341.6449,-85.7448"/>
</g>
<!-- Node8&#45;&gt;Node2 -->
<g id="edge9" class="edge">
<title>Node8&#45;&gt;Node2</title>
<path fill="none" stroke="#191970" d="M372.1822,-56.3733C406.747,-46.5974 460.2273,-31.4716 496.6394,-21.1733"/>
<polygon fill="#191970" stroke="#191970" points="497.7569,-24.4946 506.4269,-18.4051 495.8518,-17.7588 497.7569,-24.4946"/>
</g>
<!-- Node9&#45;&gt;Node2 -->
<g id="edge11" class="edge">
<title>Node9&#45;&gt;Node2</title>
<path fill="none" stroke="#191970" d="M536.1448,-117.8845C536.1448,-98.6913 536.1448,-55.286 536.1448,-29.7663"/>
<polygon fill="#191970" stroke="#191970" points="539.6449,-29.7483 536.1448,-19.7484 532.6449,-29.7484 539.6449,-29.7483"/>
</g>
<!-- Node10&#45;&gt;Node8 -->
<g id="edge13" class="edge">
<title>Node10&#45;&gt;Node8</title>
<path fill="none" stroke="#191970" d="M155.0511,-117.8906C192.7127,-107.2169 253.615,-89.9566 294.7333,-78.3033"/>
<polygon fill="#191970" stroke="#191970" points="295.81,-81.6361 304.4767,-75.5419 293.9012,-74.9013 295.81,-81.6361"/>
</g>
<!-- Node11&#45;&gt;Node1 -->
<g id="edge15" class="edge">
<title>Node11&#45;&gt;Node1</title>
<path fill="none" stroke="#191970" d="M685.4845,-179.4581C724.3682,-170.2606 784.1175,-156.1276 831.4897,-144.9223"/>
<polygon fill="#191970" stroke="#191970" points="832.4729,-148.2864 841.3986,-142.5784 830.8615,-141.4744 832.4729,-148.2864"/>
</g>
<!-- Node11&#45;&gt;Node2 -->
<g id="edge19" class="edge">
<title>Node11&#45;&gt;Node2</title>
<path fill="none" stroke="#191970" d="M645.1051,-179.4568C644.6816,-164.3488 642.3526,-134.3475 631.1448,-112 613.2522,-76.3236 578.9831,-44.2799 556.8655,-25.9962"/>
<polygon fill="#191970" stroke="#191970" points="559.0233,-23.24 549.0432,-19.6837 554.6272,-28.6875 559.0233,-23.24"/>
</g>
<!-- Node11&#45;&gt;Node7 -->
<g id="edge17" class="edge">
<title>Node11&#45;&gt;Node7</title>
<path fill="none" stroke="#191970" d="M597.5129,-179.4581C543.0966,-168.5571 454.0712,-150.723 395.7876,-139.0473"/>
<polygon fill="#191970" stroke="#191970" points="396.1286,-135.5462 385.6359,-137.0137 394.7536,-142.4098 396.1286,-135.5462"/>
</g>
<!-- Node11&#45;&gt;Node9 -->
<g id="edge18" class="edge">
<title>Node11&#45;&gt;Node9</title>
<path fill="none" stroke="#191970" d="M628.1136,-179.3906C610.3558,-169.3713 582.3118,-153.5483 561.8566,-142.0071"/>
<polygon fill="#191970" stroke="#191970" points="563.4857,-138.9077 553.0565,-137.0419 560.0459,-145.0042 563.4857,-138.9077"/>
</g>
<!-- Node11&#45;&gt;Node10 -->
<g id="edge16" class="edge">
<title>Node11&#45;&gt;Node10</title>
<path fill="none" stroke="#191970" d="M579.0488,-182.0657C497.9659,-173.448 356.34,-158.0358 235.1448,-143 223.5305,-141.5591 211.2607,-139.9658 199.2438,-138.3653"/>
<polygon fill="#191970" stroke="#191970" points="199.6057,-134.8826 189.2292,-137.0224 198.6753,-141.8205 199.6057,-134.8826"/>
</g>
<!-- Node11&#45;&gt;Node12 -->
<g id="edge20" class="edge">
<title>Node11&#45;&gt;Node12</title>
<path fill="none" stroke="#191970" d="M711.433,-182.5049C798.8932,-173.5779 947.9668,-157.0268 1001.1448,-143 1003.7671,-142.3083 1006.4496,-141.4797 1009.1165,-140.5701"/>
<polygon fill="#191970" stroke="#191970" points="1010.4385,-143.8124 1018.5709,-137.0215 1007.9787,-137.2588 1010.4385,-143.8124"/>
</g>
<!-- Node13 -->
<g id="node14" class="node">
<title>Node13</title>
<polygon fill="none" stroke="#bfbfbf" points="678.1448,-118 678.1448,-137 722.1448,-137 722.1448,-118 678.1448,-118"/>
<text text-anchor="middle" x="700.1448" y="-125" font-family="Helvetica,sans-Serif" font-size="10.00" fill="#000000">bitset</text>
</g>
<!-- Node11&#45;&gt;Node13 -->
<g id="edge21" class="edge">
<title>Node11&#45;&gt;Node13</title>
<path fill="none" stroke="#191970" d="M653.7386,-179.3906C662.0045,-170.1478 674.6874,-155.966 684.7065,-144.7628"/>
<polygon fill="#191970" stroke="#191970" points="687.3726,-147.0321 691.4299,-137.2449 682.1548,-142.3657 687.3726,-147.0321"/>
</g>
<!-- Node14 -->
<g id="node15" class="node">
<title>Node14</title>
<polygon fill="none" stroke="#bfbfbf" points="740.1448,-118 740.1448,-137 800.1448,-137 800.1448,-118 740.1448,-118"/>
<text text-anchor="middle" x="770.1448" y="-125" font-family="Helvetica,sans-Serif" font-size="10.00" fill="#000000">iostream</text>
</g>
<!-- Node11&#45;&gt;Node14 -->
<g id="edge22" class="edge">
<title>Node11&#45;&gt;Node14</title>
<path fill="none" stroke="#191970" d="M664.6761,-179.3906C685.3157,-169.2359 718.0724,-153.1196 741.605,-141.5416"/>
<polygon fill="#191970" stroke="#191970" points="743.323,-144.5971 750.7507,-137.0419 740.2328,-138.3161 743.323,-144.5971"/>
</g>
</g>
</svg>
        <g id="navigator" transform="translate(0 0)" fill="#404254">
                <rect fill="#f2f5e9" fill-opacity="0.5" stroke="#606060" stroke-width=".5" x="0" y="0" width="60" height="60"/>
                <use id="zoomplus" xlink:href="#zoomPlus" x="17" y="9" onmousedown="handleZoom(evt,'in')"/>
                <use id="zoomminus" xlink:href="#zoomMin" x="42" y="9" onmousedown="handleZoom(evt,'out')"/>
                <use id="reset" xlink:href="#resetDef" x="30" y="36" onmousedown="handleReset()"/>
                <g id="arrowUp" xlink:href="#dirArrow" transform="translate(30 24)" onmousedown="handlePan(0,-1)">
                  <use xlink:href="#rim" fill="#404040">
                        <set attributeName="fill" to="#808080" begin="arrowUp.mouseover" end="arrowUp.mouseout"/>
                  </use>
                  <path fill="none" stroke="white" stroke-width="1.5" d="M0,-3.0v7 M-2.5,-0.5L0,-3.0L2.5,-0.5"/>
                </g>
                <g id="arrowRight" xlink:href="#dirArrow" transform="rotate(90) translate(36 -43)" onmousedown="handlePan(1,0)">
                  <use xlink:href="#rim" fill="#404040">
                        <set attributeName="fill" to="#808080" begin="arrowRight.mouseover" end="arrowRight.mouseout"/>
                  </use>
                  <path fill="none" stroke="white" stroke-width="1.5" d="M0,-3.0v7 M-2.5,-0.5L0,-3.0L2.5,-0.5"/>
                </g>
                <g id="arrowDown" xlink:href="#dirArrow" transform="rotate(180) translate(-30 -48)" onmousedown="handlePan(0,1)">
                  <use xlink:href="#rim" fill="#404040">
                        <set attributeName="fill" to="#808080" begin="arrowDown.mouseover" end="arrowDown.mouseout"/>
                  </use>
                  <path fill="none" stroke="white" stroke-width="1.5" d="M0,-3.0v7 M-2.5,-0.5L0,-3.0L2.5,-0.5"/>
                </g>
                <g id="arrowLeft" xlink:href="#dirArrow" transform="rotate(270) translate(-36 17)" onmousedown="handlePan(-1,0)">
                  <use xlink:href="#rim" fill="#404040">
                        <set attributeName="fill" to="#808080" begin="arrowLeft.mouseover" end="arrowLeft.mouseout"/>
                  </use>
                  <path fill="none" stroke="white" stroke-width="1.5" d="M0,-3.0v7 M-2.5,-0.5L0,-3.0L2.5,-0.5"/>
                </g>
        </g>
        <svg viewBox="0 0 15 15" width="100%" height="30px" preserveAspectRatio="xMaxYMin meet">
         <g id="arrow_out" transform="scale(0.3 0.3)">
          <a xlink:href="RecPoints_8h__incl_org.svg" target="_base">
           <rect id="button" ry="5" rx="5" y="6" x="6" height="38" width="38"
                fill="#f2f5e9" fill-opacity="0.5" stroke="#606060" stroke-width="1.0"/>
           <path id="arrow"
             d="M 11.500037,31.436501 C 11.940474,20.09759 22.043105,11.32322 32.158766,21.979434 L 37.068811,17.246167 C 37.068811,17.246167 37.088388,32 37.088388,32 L 22.160133,31.978069 C 22.160133,31.978069 26.997745,27.140456 26.997745,27.140456 C 18.528582,18.264221 13.291696,25.230495 11.500037,31.436501 z"
             style="fill:#404040;"/>
          </a>
         </g>
        </svg>
</svg>
