<?xml version="1.0" encoding="UTF-8" standalone="no"?>
<!DOCTYPE svg PUBLIC "-//W3C//DTD SVG 1.1//EN"
 "http://www.w3.org/Graphics/SVG/1.1/DTD/svg11.dtd">
<!-- Generated by graphviz version 2.40.1 (20161225.0304)
 -->
<!-- Title: /home/travis/build/AliceO2Group/AliceO2/Detectors/ITSMFT/MFT/reconstruction/include/MFTReconstruction/Tracker.h Pages: 1 -->
<svg width="1004pt" height="307pt"
 viewBox="0.00 0.00 1003.50 307.00" xmlns="http://www.w3.org/2000/svg" xmlns:xlink="http://www.w3.org/1999/xlink">
<g id="graph0" class="graph" transform="scale(1 1) rotate(0) translate(4 303)">
<title>/home/travis/build/AliceO2Group/AliceO2/Detectors/ITSMFT/MFT/reconstruction/include/MFTReconstruction/Tracker.h</title>
<!-- Node0 -->
<g id="node1" class="node">
<title>Node0</title>
<polygon fill="#bfbfbf" stroke="#000000" points="523.5,-235.5 523.5,-298.5 681.5,-298.5 681.5,-235.5 523.5,-235.5"/>
<text text-anchor="start" x="531.5" y="-286.5" font-family="Helvetica,sans-Serif" font-size="10.00" fill="#000000">/home/travis/build</text>
<text text-anchor="start" x="531.5" y="-275.5" font-family="Helvetica,sans-Serif" font-size="10.00" fill="#000000">/AliceO2Group/AliceO2</text>
<text text-anchor="start" x="531.5" y="-264.5" font-family="Helvetica,sans-Serif" font-size="10.00" fill="#000000">/Detectors/ITSMFT/MFT</text>
<text text-anchor="start" x="531.5" y="-253.5" font-family="Helvetica,sans-Serif" font-size="10.00" fill="#000000">/reconstruction/include</text>
<text text-anchor="middle" x="602.5" y="-242.5" font-family="Helvetica,sans-Serif" font-size="10.00" fill="#000000">/MFTReconstruction/Tracker.h</text>
</g>
<!-- Node1 -->
<g id="node2" class="node">
<title>Node1</title>
<polygon fill="none" stroke="#bfbfbf" points="0,-118 0,-137 47,-137 47,-118 0,-118"/>
<text text-anchor="middle" x="23.5" y="-125" font-family="Helvetica,sans-Serif" font-size="10.00" fill="#000000">vector</text>
</g>
<!-- Node0&#45;&gt;Node1 -->
<g id="edge1" class="edge">
<title>Node0&#45;&gt;Node1</title>
<path fill="none" stroke="#191970" d="M523.3034,-260.7615C437.0301,-252.4841 295.6732,-234.5634 178.5,-199 130.906,-184.5547 79.0955,-158.318 49.0543,-141.9599"/>
<polygon fill="#191970" stroke="#191970" points="50.5458,-138.7855 40.0985,-137.0234 47.1666,-144.9159 50.5458,-138.7855"/>
</g>
<!-- Node2 -->
<g id="node3" class="node">
<title>Node2</title>
<g id="a_node3"><a xlink:href="../../db/dd0/TrackMFT_8h.html" target="_top" xlink:title="DataFormatsMFT/TrackMFT.h">
<polygon fill="none" stroke="#000000" points="188,-179.5 188,-198.5 343,-198.5 343,-179.5 188,-179.5"/>
<text text-anchor="middle" x="265.5" y="-186.5" font-family="Helvetica,sans-Serif" font-size="10.00" fill="#000000">DataFormatsMFT/TrackMFT.h</text>
</a>
</g>
</g>
<!-- Node0&#45;&gt;Node2 -->
<g id="edge2" class="edge">
<title>Node0&#45;&gt;Node2</title>
<path fill="none" stroke="#191970" d="M523.4885,-248.7125C459.5705,-233.9184 371.4505,-213.5227 316.5095,-200.8064"/>
<polygon fill="#191970" stroke="#191970" points="317.182,-197.3695 306.6503,-198.5244 315.6035,-204.1893 317.182,-197.3695"/>
</g>
<!-- Node9 -->
<g id="node10" class="node">
<title>Node9</title>
<g id="a_node10"><a xlink:href="../../d0/dc6/ITSMFT_2common_2include_2DataFormatsITSMFT_2ROFRecord_8h.html" target="_top" xlink:title="DataFormatsITSMFT/ROFRecord.h">
<polygon fill="none" stroke="#000000" points="513,-179.5 513,-198.5 692,-198.5 692,-179.5 513,-179.5"/>
<text text-anchor="middle" x="602.5" y="-186.5" font-family="Helvetica,sans-Serif" font-size="10.00" fill="#000000">DataFormatsITSMFT/ROFRecord.h</text>
</a>
</g>
</g>
<!-- Node0&#45;&gt;Node9 -->
<g id="edge11" class="edge">
<title>Node0&#45;&gt;Node9</title>
<path fill="none" stroke="#191970" d="M602.5,-235.2744C602.5,-226.3302 602.5,-216.8568 602.5,-208.8269"/>
<polygon fill="#191970" stroke="#191970" points="606.0001,-208.6425 602.5,-198.6426 599.0001,-208.6426 606.0001,-208.6425"/>
</g>
<!-- Node16 -->
<g id="node17" class="node">
<title>Node16</title>
<g id="a_node17"><a xlink:href="../../dc/de5/Detectors_2ITSMFT_2MFT_2base_2include_2MFTBase_2Constants_8h.html" target="_top" xlink:title="MFTBase/Constants.h">
<polygon fill="none" stroke="#000000" points="710,-179.5 710,-198.5 831,-198.5 831,-179.5 710,-179.5"/>
<text text-anchor="middle" x="770.5" y="-186.5" font-family="Helvetica,sans-Serif" font-size="10.00" fill="#000000">MFTBase/Constants.h</text>
</a>
</g>
</g>
<!-- Node0&#45;&gt;Node16 -->
<g id="edge20" class="edge">
<title>Node0&#45;&gt;Node16</title>
<path fill="none" stroke="#191970" d="M670.3478,-235.4992C694.8099,-224.1418 721.1712,-211.9027 740.7056,-202.8331"/>
<polygon fill="#191970" stroke="#191970" points="742.3838,-205.9128 749.98,-198.5271 739.436,-199.5638 742.3838,-205.9128"/>
</g>
<!-- Node17 -->
<g id="node18" class="node">
<title>Node17</title>
<polygon fill="none" stroke="#bfbfbf" points="849.5,-179.5 849.5,-198.5 995.5,-198.5 995.5,-179.5 849.5,-179.5"/>
<text text-anchor="middle" x="922.5" y="-186.5" font-family="Helvetica,sans-Serif" font-size="10.00" fill="#000000">MFTBase/GeometryTGeo.h</text>
</g>
<!-- Node0&#45;&gt;Node17 -->
<g id="edge22" class="edge">
<title>Node0&#45;&gt;Node17</title>
<path fill="none" stroke="#191970" d="M681.6011,-247.7191C741.6366,-233.0855 822.2935,-213.4253 873.3457,-200.9814"/>
<polygon fill="#191970" stroke="#191970" points="874.2598,-204.3611 883.1465,-198.5924 872.6021,-197.5602 874.2598,-204.3611"/>
</g>
<!-- Node2&#45;&gt;Node1 -->
<g id="edge3" class="edge">
<title>Node2&#45;&gt;Node1</title>
<path fill="none" stroke="#191970" d="M205.5303,-179.4609C163.2197,-171.8503 105.5677,-159.6906 56.5,-143 54.8521,-142.4394 53.1774,-141.8205 51.5007,-141.1621"/>
<polygon fill="#191970" stroke="#191970" points="52.6175,-137.8323 42.0485,-137.0928 49.8495,-144.2618 52.6175,-137.8323"/>
</g>
<!-- Node3 -->
<g id="node4" class="node">
<title>Node3</title>
<polygon fill="none" stroke="#bfbfbf" points="65.5,-118 65.5,-137 121.5,-137 121.5,-118 65.5,-118"/>
<text text-anchor="middle" x="93.5" y="-125" font-family="Helvetica,sans-Serif" font-size="10.00" fill="#000000">TMath.h</text>
</g>
<!-- Node2&#45;&gt;Node3 -->
<g id="edge4" class="edge">
<title>Node2&#45;&gt;Node3</title>
<path fill="none" stroke="#191970" d="M235.5308,-179.4391C208.0345,-170.5135 166.2685,-156.5678 130.5,-143 128.693,-142.3146 126.843,-141.5956 124.9805,-140.8584"/>
<polygon fill="#191970" stroke="#191970" points="126.288,-137.6118 115.7059,-137.0918 123.654,-144.0974 126.288,-137.6118"/>
</g>
<!-- Node4 -->
<g id="node5" class="node">
<title>Node4</title>
<polygon fill="none" stroke="#bfbfbf" points="140,-118 140,-137 229,-137 229,-118 140,-118"/>
<text text-anchor="middle" x="184.5" y="-125" font-family="Helvetica,sans-Serif" font-size="10.00" fill="#000000">Math/SMatrix.h</text>
</g>
<!-- Node2&#45;&gt;Node4 -->
<g id="edge5" class="edge">
<title>Node2&#45;&gt;Node4</title>
<path fill="none" stroke="#191970" d="M252.8438,-179.3906C240.1232,-169.7324 220.2996,-154.6812 205.2716,-143.271"/>
<polygon fill="#191970" stroke="#191970" points="207.1484,-140.3015 197.0674,-137.0419 202.9154,-145.8766 207.1484,-140.3015"/>
</g>
<!-- Node5 -->
<g id="node6" class="node">
<title>Node5</title>
<g id="a_node6"><a xlink:href="../../de/d64/RangeReference_8h.html" target="_top" xlink:title="Class to refer to the 1st entry and N elements of some group in the continuous container. ">
<polygon fill="none" stroke="#000000" points="392.5,-118 392.5,-137 602.5,-137 602.5,-118 392.5,-118"/>
<text text-anchor="middle" x="497.5" y="-125" font-family="Helvetica,sans-Serif" font-size="10.00" fill="#000000">CommonDataFormat/RangeReference.h</text>
</a>
</g>
</g>
<!-- Node2&#45;&gt;Node5 -->
<g id="edge6" class="edge">
<title>Node2&#45;&gt;Node5</title>
<path fill="none" stroke="#191970" d="M301.4954,-179.4581C341.8777,-168.7533 407.4811,-151.3628 451.5388,-139.6837"/>
<polygon fill="#191970" stroke="#191970" points="452.6508,-143.0099 461.4201,-137.0643 450.8571,-136.2436 452.6508,-143.0099"/>
</g>
<!-- Node8 -->
<g id="node9" class="node">
<title>Node8</title>
<g id="a_node9"><a xlink:href="../../d7/dcd/MCCompLabel_8h.html" target="_top" xlink:title="SimulationDataFormat\l/MCCompLabel.h">
<polygon fill="none" stroke="#000000" points="247,-112.5 247,-142.5 374,-142.5 374,-112.5 247,-112.5"/>
<text text-anchor="start" x="255" y="-130.5" font-family="Helvetica,sans-Serif" font-size="10.00" fill="#000000">SimulationDataFormat</text>
<text text-anchor="middle" x="310.5" y="-119.5" font-family="Helvetica,sans-Serif" font-size="10.00" fill="#000000">/MCCompLabel.h</text>
</a>
</g>
</g>
<!-- Node2&#45;&gt;Node8 -->
<g id="edge9" class="edge">
<title>Node2&#45;&gt;Node8</title>
<path fill="none" stroke="#191970" d="M272.5313,-179.3906C278.1139,-171.761 286.1591,-160.7658 293.4082,-150.8588"/>
<polygon fill="#191970" stroke="#191970" points="296.4112,-152.6817 299.4918,-142.5446 290.762,-148.5481 296.4112,-152.6817"/>
</g>
<!-- Node6 -->
<g id="node7" class="node">
<title>Node6</title>
<g id="a_node7"><a xlink:href="../../d2/d45/GPUCommonRtypes_8h.html" target="_top" xlink:title="GPUCommonRtypes.h">
<polygon fill="none" stroke="#000000" points="401,-56.5 401,-75.5 526,-75.5 526,-56.5 401,-56.5"/>
<text text-anchor="middle" x="463.5" y="-63.5" font-family="Helvetica,sans-Serif" font-size="10.00" fill="#000000">GPUCommonRtypes.h</text>
</a>
</g>
</g>
<!-- Node5&#45;&gt;Node6 -->
<g id="edge7" class="edge">
<title>Node5&#45;&gt;Node6</title>
<path fill="none" stroke="#191970" d="M492.1875,-117.8906C487.2761,-109.0068 479.8421,-95.5601 473.7725,-84.5811"/>
<polygon fill="#191970" stroke="#191970" points="476.7888,-82.8031 468.8874,-75.7449 470.6627,-86.1899 476.7888,-82.8031"/>
</g>
<!-- Node7 -->
<g id="node8" class="node">
<title>Node7</title>
<polygon fill="none" stroke="#bfbfbf" points="525,-.5 525,-19.5 584,-19.5 584,-.5 525,-.5"/>
<text text-anchor="middle" x="554.5" y="-7.5" font-family="Helvetica,sans-Serif" font-size="10.00" fill="#000000">Rtypes.h</text>
</g>
<!-- Node6&#45;&gt;Node7 -->
<g id="edge8" class="edge">
<title>Node6&#45;&gt;Node7</title>
<path fill="none" stroke="#191970" d="M479.351,-56.2455C493.3132,-47.6534 513.8728,-35.0014 529.9596,-25.1018"/>
<polygon fill="#191970" stroke="#191970" points="532.1484,-27.8645 538.8307,-19.6427 528.4797,-21.9029 532.1484,-27.8645"/>
</g>
<!-- Node8&#45;&gt;Node6 -->
<g id="edge10" class="edge">
<title>Node8&#45;&gt;Node6</title>
<path fill="none" stroke="#191970" d="M347.928,-112.4554C373.1206,-102.329 406.0407,-89.0964 430.2996,-79.3453"/>
<polygon fill="#191970" stroke="#191970" points="431.8173,-82.5074 439.7904,-75.5303 429.2066,-76.0125 431.8173,-82.5074"/>
</g>
<!-- Node9&#45;&gt;Node5 -->
<g id="edge12" class="edge">
<title>Node9&#45;&gt;Node5</title>
<path fill="none" stroke="#191970" d="M586.0938,-179.3906C569.0647,-169.4165 542.2159,-153.6908 522.5349,-142.1633"/>
<polygon fill="#191970" stroke="#191970" points="524.1888,-139.0759 513.791,-137.0419 520.651,-145.1161 524.1888,-139.0759"/>
</g>
<!-- Node10 -->
<g id="node11" class="node">
<title>Node10</title>
<g id="a_node11"><a xlink:href="../../d9/d80/InteractionRecord_8h.html" target="_top" xlink:title="CommonDataFormat/Interaction\lRecord.h">
<polygon fill="none" stroke="#000000" points="620.5,-112.5 620.5,-142.5 794.5,-142.5 794.5,-112.5 620.5,-112.5"/>
<text text-anchor="start" x="628.5" y="-130.5" font-family="Helvetica,sans-Serif" font-size="10.00" fill="#000000">CommonDataFormat/Interaction</text>
<text text-anchor="middle" x="707.5" y="-119.5" font-family="Helvetica,sans-Serif" font-size="10.00" fill="#000000">Record.h</text>
</a>
</g>
</g>
<!-- Node9&#45;&gt;Node10 -->
<g id="edge13" class="edge">
<title>Node9&#45;&gt;Node10</title>
<path fill="none" stroke="#191970" d="M618.9063,-179.3906C633.3799,-170.9132 654.9472,-158.2809 673.1781,-147.6028"/>
<polygon fill="#191970" stroke="#191970" points="674.9542,-150.6188 681.8141,-142.5446 671.4163,-144.5786 674.9542,-150.6188"/>
</g>
<!-- Node15 -->
<g id="node16" class="node">
<title>Node15</title>
<polygon fill="none" stroke="#bfbfbf" points="813,-118 813,-137 870,-137 870,-118 813,-118"/>
<text text-anchor="middle" x="841.5" y="-125" font-family="Helvetica,sans-Serif" font-size="10.00" fill="#000000">gsl/span</text>
</g>
<!-- Node9&#45;&gt;Node15 -->
<g id="edge19" class="edge">
<title>Node9&#45;&gt;Node15</title>
<path fill="none" stroke="#191970" d="M654.7586,-179.4614C695.6962,-171.4109 753.8357,-158.6976 803.5,-143 805.6527,-142.3196 807.8548,-141.5701 810.0609,-140.7791"/>
<polygon fill="#191970" stroke="#191970" points="811.5246,-143.9668 819.6191,-137.1308 809.0284,-137.427 811.5246,-143.9668"/>
</g>
<!-- Node10&#45;&gt;Node7 -->
<g id="edge14" class="edge">
<title>Node10&#45;&gt;Node7</title>
<path fill="none" stroke="#191970" d="M634.8335,-112.477C612.9356,-104.7852 590.4961,-93.2467 574.5,-76 562.936,-63.5319 558.0474,-44.583 555.9866,-30.1823"/>
<polygon fill="#191970" stroke="#191970" points="559.4209,-29.385 554.8666,-19.819 552.4614,-30.1372 559.4209,-29.385"/>
</g>
<!-- Node11 -->
<g id="node12" class="node">
<title>Node11</title>
<polygon fill="none" stroke="#bfbfbf" points="583,-56.5 583,-75.5 632,-75.5 632,-56.5 583,-56.5"/>
<text text-anchor="middle" x="607.5" y="-63.5" font-family="Helvetica,sans-Serif" font-size="10.00" fill="#000000">iosfwd</text>
</g>
<!-- Node10&#45;&gt;Node11 -->
<g id="edge15" class="edge">
<title>Node10&#45;&gt;Node11</title>
<path fill="none" stroke="#191970" d="M683.0372,-112.4554C667.3765,-102.8241 647.1468,-90.3828 631.5644,-80.7996"/>
<polygon fill="#191970" stroke="#191970" points="633.348,-77.7876 622.9965,-75.5303 629.681,-83.7503 633.348,-77.7876"/>
</g>
<!-- Node12 -->
<g id="node13" class="node">
<title>Node12</title>
<polygon fill="none" stroke="#bfbfbf" points="650,-56.5 650,-75.5 697,-75.5 697,-56.5 650,-56.5"/>
<text text-anchor="middle" x="673.5" y="-63.5" font-family="Helvetica,sans-Serif" font-size="10.00" fill="#000000">cmath</text>
</g>
<!-- Node10&#45;&gt;Node12 -->
<g id="edge16" class="edge">
<title>Node10&#45;&gt;Node12</title>
<path fill="none" stroke="#191970" d="M699.0955,-112.2977C694.4743,-103.9388 688.7031,-93.4997 683.8111,-84.6509"/>
<polygon fill="#191970" stroke="#191970" points="686.8452,-82.9051 678.9438,-75.8469 680.7191,-86.292 686.8452,-82.9051"/>
</g>
<!-- Node13 -->
<g id="node14" class="node">
<title>Node13</title>
<polygon fill="none" stroke="#bfbfbf" points="715.5,-56.5 715.5,-75.5 765.5,-75.5 765.5,-56.5 715.5,-56.5"/>
<text text-anchor="middle" x="740.5" y="-63.5" font-family="Helvetica,sans-Serif" font-size="10.00" fill="#000000">cstdint</text>
</g>
<!-- Node10&#45;&gt;Node13 -->
<g id="edge17" class="edge">
<title>Node10&#45;&gt;Node13</title>
<path fill="none" stroke="#191970" d="M715.6573,-112.2977C720.0949,-104.0277 725.625,-93.7215 730.3404,-84.9339"/>
<polygon fill="#191970" stroke="#191970" points="733.5721,-86.3134 735.2163,-75.8469 727.404,-83.0037 733.5721,-86.3134"/>
</g>
<!-- Node14 -->
<g id="node15" class="node">
<title>Node14</title>
<g id="a_node15"><a xlink:href="../../d4/dc6/LHCConstants_8h.html" target="_top" xlink:title="Header to collect LHC related constants. ">
<polygon fill="none" stroke="#000000" points="783.5,-56.5 783.5,-75.5 973.5,-75.5 973.5,-56.5 783.5,-56.5"/>
<text text-anchor="middle" x="878.5" y="-63.5" font-family="Helvetica,sans-Serif" font-size="10.00" fill="#000000">CommonConstants/LHCConstants.h</text>
</a>
</g>
</g>
<!-- Node10&#45;&gt;Node14 -->
<g id="edge18" class="edge">
<title>Node10&#45;&gt;Node14</title>
<path fill="none" stroke="#191970" d="M749.3313,-112.4554C777.8631,-102.194 815.2635,-88.7429 842.4729,-78.9571"/>
<polygon fill="#191970" stroke="#191970" points="843.7757,-82.2081 852.0011,-75.5303 841.4066,-75.6212 843.7757,-82.2081"/>
</g>
<!-- Node16&#45;&gt;Node7 -->
<g id="edge21" class="edge">
<title>Node16&#45;&gt;Node7</title>
<path fill="none" stroke="#191970" d="M815.5913,-179.4999C893.0308,-161.2717 1037.8845,-117.656 982.5,-56 956.7851,-27.3732 695.4123,-15.0342 594.2168,-11.3042"/>
<polygon fill="#191970" stroke="#191970" points="594.2118,-7.8019 584.0925,-10.9403 593.9602,-14.7974 594.2118,-7.8019"/>
</g>
</g>
</svg>
