<?xml version="1.0" encoding="UTF-8" standalone="no"?>
<!DOCTYPE svg PUBLIC "-//W3C//DTD SVG 1.1//EN"
 "http://www.w3.org/Graphics/SVG/1.1/DTD/svg11.dtd">
<!-- Generated by graphviz version 2.40.1 (20161225.0304)
 -->
<!-- Title: /home/travis/build/AliceO2Group/AliceO2/Detectors/MUON/MID/Raw/include/MIDRaw/CrateParameters.h Pages: 1 -->
<svg width="2141pt" height="239pt"
 viewBox="0.00 0.00 2141.00 239.00" xmlns="http://www.w3.org/2000/svg" xmlns:xlink="http://www.w3.org/1999/xlink">
<g id="graph0" class="graph" transform="scale(1 1) rotate(0) translate(4 235)">
<title>/home/travis/build/AliceO2Group/AliceO2/Detectors/MUON/MID/Raw/include/MIDRaw/CrateParameters.h</title>
<!-- Node3 -->
<g id="node1" class="node">
<title>Node3</title>
<polygon fill="#bfbfbf" stroke="#000000" points="1106.5,-178.5 1106.5,-230.5 1297.5,-230.5 1297.5,-178.5 1106.5,-178.5"/>
<text text-anchor="start" x="1114.5" y="-218.5" font-family="Helvetica,sans-Serif" font-size="10.00" fill="#000000">/home/travis/build</text>
<text text-anchor="start" x="1114.5" y="-207.5" font-family="Helvetica,sans-Serif" font-size="10.00" fill="#000000">/AliceO2Group/AliceO2</text>
<text text-anchor="start" x="1114.5" y="-196.5" font-family="Helvetica,sans-Serif" font-size="10.00" fill="#000000">/Detectors/MUON/MID/Raw</text>
<text text-anchor="middle" x="1202" y="-185.5" font-family="Helvetica,sans-Serif" font-size="10.00" fill="#000000">/include/MIDRaw/CrateParameters.h</text>
</g>
<!-- Node4 -->
<g id="node2" class="node">
<title>Node4</title>
<g id="a_node2"><a xlink:href="../../df/dcf/CRUBareDecoder_8h.html" target="_top" xlink:title="MID CRU core decoder. ">
<polygon fill="none" stroke="#000000" points="202.5,-89.5 202.5,-141.5 395.5,-141.5 395.5,-89.5 202.5,-89.5"/>
<text text-anchor="start" x="210.5" y="-129.5" font-family="Helvetica,sans-Serif" font-size="10.00" fill="#000000">/home/travis/build</text>
<text text-anchor="start" x="210.5" y="-118.5" font-family="Helvetica,sans-Serif" font-size="10.00" fill="#000000">/AliceO2Group/AliceO2</text>
<text text-anchor="start" x="210.5" y="-107.5" font-family="Helvetica,sans-Serif" font-size="10.00" fill="#000000">/Detectors/MUON/MID/Raw</text>
<text text-anchor="middle" x="299" y="-96.5" font-family="Helvetica,sans-Serif" font-size="10.00" fill="#000000">/include/MIDRaw/CRUBareDecoder.h</text>
</a>
</g>
</g>
<!-- Node3&#45;&gt;Node4 -->
<g id="edge1" class="edge">
<title>Node3&#45;&gt;Node4</title>
<path fill="none" stroke="#191970" d="M1096.4017,-197.9531C953.2485,-188.5258 689.7684,-169.2186 466,-142 443.1243,-139.2175 418.5751,-135.6496 395.5296,-132.0398"/>
<polygon fill="#191970" stroke="#191970" points="1096.2911,-201.4533 1106.4986,-198.6148 1096.7489,-194.4683 1096.2911,-201.4533"/>
</g>
<!-- Node8 -->
<g id="node6" class="node">
<title>Node8</title>
<g id="a_node6"><a xlink:href="../../d1/dcf/Detectors_2MUON_2MID_2Raw_2include_2MIDRaw_2Encoder_8h.html" target="_top" xlink:title="MID raw data encoder. ">
<polygon fill="none" stroke="#000000" points="925,-89.5 925,-141.5 1073,-141.5 1073,-89.5 925,-89.5"/>
<text text-anchor="start" x="933" y="-129.5" font-family="Helvetica,sans-Serif" font-size="10.00" fill="#000000">/home/travis/build</text>
<text text-anchor="start" x="933" y="-118.5" font-family="Helvetica,sans-Serif" font-size="10.00" fill="#000000">/AliceO2Group/AliceO2</text>
<text text-anchor="start" x="933" y="-107.5" font-family="Helvetica,sans-Serif" font-size="10.00" fill="#000000">/Detectors/MUON/MID/Raw</text>
<text text-anchor="middle" x="999" y="-96.5" font-family="Helvetica,sans-Serif" font-size="10.00" fill="#000000">/include/MIDRaw/Encoder.h</text>
</a>
</g>
</g>
<!-- Node3&#45;&gt;Node8 -->
<g id="edge5" class="edge">
<title>Node3&#45;&gt;Node8</title>
<path fill="none" stroke="#191970" d="M1132.9945,-174.2464C1108.8107,-163.6436 1081.8754,-151.8346 1058.534,-141.6011"/>
<polygon fill="#191970" stroke="#191970" points="1131.9011,-177.5885 1142.4649,-178.3984 1134.7118,-171.1776 1131.9011,-177.5885"/>
</g>
<!-- Node11 -->
<g id="node9" class="node">
<title>Node11</title>
<g id="a_node9"><a xlink:href="../../d8/d4c/testRaw_8cxx.html" target="_top" xlink:title="/home/travis/build\l/AliceO2Group/AliceO2\l/Detectors/MUON/MID/Raw\l/test/testRaw.cxx">
<polygon fill="none" stroke="#000000" points="1360,-.5 1360,-52.5 1506,-52.5 1506,-.5 1360,-.5"/>
<text text-anchor="start" x="1368" y="-40.5" font-family="Helvetica,sans-Serif" font-size="10.00" fill="#000000">/home/travis/build</text>
<text text-anchor="start" x="1368" y="-29.5" font-family="Helvetica,sans-Serif" font-size="10.00" fill="#000000">/AliceO2Group/AliceO2</text>
<text text-anchor="start" x="1368" y="-18.5" font-family="Helvetica,sans-Serif" font-size="10.00" fill="#000000">/Detectors/MUON/MID/Raw</text>
<text text-anchor="middle" x="1433" y="-7.5" font-family="Helvetica,sans-Serif" font-size="10.00" fill="#000000">/test/testRaw.cxx</text>
</a>
</g>
</g>
<!-- Node3&#45;&gt;Node11 -->
<g id="edge21" class="edge">
<title>Node3&#45;&gt;Node11</title>
<path fill="none" stroke="#191970" d="M1144.5925,-171.8818C1134.6585,-163.4921 1125.7034,-153.5182 1120,-142 1109.5475,-120.8906 1104.6797,-106.8928 1120,-89 1153.7897,-49.5365 1300.458,-65.0256 1351,-53 1353.9109,-52.3074 1356.8676,-51.5613 1359.8449,-50.7742"/>
<polygon fill="#191970" stroke="#191970" points="1142.6996,-174.8455 1152.7258,-178.2697 1147.0233,-169.3404 1142.6996,-174.8455"/>
</g>
<!-- Node13 -->
<g id="node11" class="node">
<title>Node13</title>
<g id="a_node11"><a xlink:href="../../de/d75/MUON_2MID_2Raw_2include_2MIDRaw_2RawFileReader_8h.html" target="_top" xlink:title="MID raw file reader. ">
<polygon fill="none" stroke="#000000" points="475,-89.5 475,-141.5 655,-141.5 655,-89.5 475,-89.5"/>
<text text-anchor="start" x="483" y="-129.5" font-family="Helvetica,sans-Serif" font-size="10.00" fill="#000000">/home/travis/build</text>
<text text-anchor="start" x="483" y="-118.5" font-family="Helvetica,sans-Serif" font-size="10.00" fill="#000000">/AliceO2Group/AliceO2</text>
<text text-anchor="start" x="483" y="-107.5" font-family="Helvetica,sans-Serif" font-size="10.00" fill="#000000">/Detectors/MUON/MID/Raw</text>
<text text-anchor="middle" x="565" y="-96.5" font-family="Helvetica,sans-Serif" font-size="10.00" fill="#000000">/include/MIDRaw/RawFileReader.h</text>
</a>
</g>
</g>
<!-- Node3&#45;&gt;Node13 -->
<g id="edge10" class="edge">
<title>Node3&#45;&gt;Node13</title>
<path fill="none" stroke="#191970" d="M1096.0829,-189.7015C972.8139,-172.4787 771.3675,-144.3331 655.2351,-128.1074"/>
<polygon fill="#191970" stroke="#191970" points="1095.9019,-193.2102 1106.29,-191.1277 1096.8706,-186.2775 1095.9019,-193.2102"/>
</g>
<!-- Node15 -->
<g id="node13" class="node">
<title>Node15</title>
<g id="a_node13"><a xlink:href="../../d7/dc9/RawReaderSpec_8cxx.html" target="_top" xlink:title="Data processor spec for MID raw reader device. ">
<polygon fill="none" stroke="#000000" points="656,-.5 656,-52.5 826,-52.5 826,-.5 656,-.5"/>
<text text-anchor="start" x="664" y="-40.5" font-family="Helvetica,sans-Serif" font-size="10.00" fill="#000000">/home/travis/build</text>
<text text-anchor="start" x="664" y="-29.5" font-family="Helvetica,sans-Serif" font-size="10.00" fill="#000000">/AliceO2Group/AliceO2</text>
<text text-anchor="start" x="664" y="-18.5" font-family="Helvetica,sans-Serif" font-size="10.00" fill="#000000">/Detectors/MUON/MID/Workflow</text>
<text text-anchor="middle" x="741" y="-7.5" font-family="Helvetica,sans-Serif" font-size="10.00" fill="#000000">/src/RawReaderSpec.cxx</text>
</a>
</g>
</g>
<!-- Node3&#45;&gt;Node15 -->
<g id="edge22" class="edge">
<title>Node3&#45;&gt;Node15</title>
<path fill="none" stroke="#191970" d="M1096.1105,-190.9011C1040.9245,-181.4654 973.1982,-166.1332 916,-142 861.6661,-119.0753 806.0195,-78.9125 772.4797,-52.5088"/>
<polygon fill="#191970" stroke="#191970" points="1095.8239,-194.4016 1106.2636,-192.5951 1096.976,-187.4971 1095.8239,-194.4016"/>
</g>
<!-- Node16 -->
<g id="node14" class="node">
<title>Node16</title>
<g id="a_node14"><a xlink:href="../../d5/dc0/CrateMapper_8cxx.html" target="_top" xlink:title="FEE ID to board ID converter. ">
<polygon fill="none" stroke="#000000" points="1129,-89.5 1129,-141.5 1275,-141.5 1275,-89.5 1129,-89.5"/>
<text text-anchor="start" x="1137" y="-129.5" font-family="Helvetica,sans-Serif" font-size="10.00" fill="#000000">/home/travis/build</text>
<text text-anchor="start" x="1137" y="-118.5" font-family="Helvetica,sans-Serif" font-size="10.00" fill="#000000">/AliceO2Group/AliceO2</text>
<text text-anchor="start" x="1137" y="-107.5" font-family="Helvetica,sans-Serif" font-size="10.00" fill="#000000">/Detectors/MUON/MID/Raw</text>
<text text-anchor="middle" x="1202" y="-96.5" font-family="Helvetica,sans-Serif" font-size="10.00" fill="#000000">/src/CrateMapper.cxx</text>
</a>
</g>
</g>
<!-- Node3&#45;&gt;Node16 -->
<g id="edge15" class="edge">
<title>Node3&#45;&gt;Node16</title>
<path fill="none" stroke="#191970" d="M1202,-168.1155C1202,-159.2061 1202,-149.8475 1202,-141.5341"/>
<polygon fill="#191970" stroke="#191970" points="1198.5001,-168.2784 1202,-178.2784 1205.5001,-168.2785 1198.5001,-168.2784"/>
</g>
<!-- Node17 -->
<g id="node15" class="node">
<title>Node17</title>
<g id="a_node15"><a xlink:href="../../d8/df0/CRUUserLogicDecoder_8cxx.html" target="_top" xlink:title="MID CRU user logic decoder. ">
<polygon fill="none" stroke="#000000" points="1293,-89.5 1293,-141.5 1459,-141.5 1459,-89.5 1293,-89.5"/>
<text text-anchor="start" x="1301" y="-129.5" font-family="Helvetica,sans-Serif" font-size="10.00" fill="#000000">/home/travis/build</text>
<text text-anchor="start" x="1301" y="-118.5" font-family="Helvetica,sans-Serif" font-size="10.00" fill="#000000">/AliceO2Group/AliceO2</text>
<text text-anchor="start" x="1301" y="-107.5" font-family="Helvetica,sans-Serif" font-size="10.00" fill="#000000">/Detectors/MUON/MID/Raw</text>
<text text-anchor="middle" x="1376" y="-96.5" font-family="Helvetica,sans-Serif" font-size="10.00" fill="#000000">/src/CRUUserLogicDecoder.cxx</text>
</a>
</g>
</g>
<!-- Node3&#45;&gt;Node17 -->
<g id="edge16" class="edge">
<title>Node3&#45;&gt;Node17</title>
<path fill="none" stroke="#191970" d="M1262.2042,-173.7059C1282.7041,-163.2203 1305.4037,-151.6096 1325.1018,-141.5341"/>
<polygon fill="#191970" stroke="#191970" points="1260.5738,-170.6085 1253.2646,-178.2784 1263.7615,-176.8406 1260.5738,-170.6085"/>
</g>
<!-- Node18 -->
<g id="node16" class="node">
<title>Node18</title>
<g id="a_node16"><a xlink:href="../../de/da7/CRUUserLogicEncoder_8cxx.html" target="_top" xlink:title="Raw data encoder for MID CRU user logic. ">
<polygon fill="none" stroke="#000000" points="1477,-89.5 1477,-141.5 1641,-141.5 1641,-89.5 1477,-89.5"/>
<text text-anchor="start" x="1485" y="-129.5" font-family="Helvetica,sans-Serif" font-size="10.00" fill="#000000">/home/travis/build</text>
<text text-anchor="start" x="1485" y="-118.5" font-family="Helvetica,sans-Serif" font-size="10.00" fill="#000000">/AliceO2Group/AliceO2</text>
<text text-anchor="start" x="1485" y="-107.5" font-family="Helvetica,sans-Serif" font-size="10.00" fill="#000000">/Detectors/MUON/MID/Raw</text>
<text text-anchor="middle" x="1559" y="-96.5" font-family="Helvetica,sans-Serif" font-size="10.00" fill="#000000">/src/CRUUserLogicEncoder.cxx</text>
</a>
</g>
</g>
<!-- Node3&#45;&gt;Node18 -->
<g id="edge17" class="edge">
<title>Node3&#45;&gt;Node18</title>
<path fill="none" stroke="#191970" d="M1307.6814,-181.0128C1356.6082,-169.7951 1415.4203,-155.8227 1468,-142 1470.8645,-141.2469 1473.7761,-140.4688 1476.714,-139.6727"/>
<polygon fill="#191970" stroke="#191970" points="1306.6837,-177.6505 1297.7152,-183.2911 1308.2437,-184.4745 1306.6837,-177.6505"/>
</g>
<!-- Node19 -->
<g id="node17" class="node">
<title>Node19</title>
<g id="a_node17"><a xlink:href="../../dc/d28/MUON_2MID_2Raw_2src_2Decoder_8cxx.html" target="_top" xlink:title="MID raw data decoder. ">
<polygon fill="none" stroke="#000000" points="1659,-89.5 1659,-141.5 1805,-141.5 1805,-89.5 1659,-89.5"/>
<text text-anchor="start" x="1667" y="-129.5" font-family="Helvetica,sans-Serif" font-size="10.00" fill="#000000">/home/travis/build</text>
<text text-anchor="start" x="1667" y="-118.5" font-family="Helvetica,sans-Serif" font-size="10.00" fill="#000000">/AliceO2Group/AliceO2</text>
<text text-anchor="start" x="1667" y="-107.5" font-family="Helvetica,sans-Serif" font-size="10.00" fill="#000000">/Detectors/MUON/MID/Raw</text>
<text text-anchor="middle" x="1732" y="-96.5" font-family="Helvetica,sans-Serif" font-size="10.00" fill="#000000">/src/Decoder.cxx</text>
</a>
</g>
</g>
<!-- Node3&#45;&gt;Node19 -->
<g id="edge18" class="edge">
<title>Node3&#45;&gt;Node19</title>
<path fill="none" stroke="#191970" d="M1307.7884,-194.9852C1399.1702,-185.523 1534.3569,-168.5403 1650,-142 1652.9164,-141.3307 1655.8776,-140.6042 1658.8588,-139.8336"/>
<polygon fill="#191970" stroke="#191970" points="1307.2911,-191.5178 1297.6994,-196.0178 1308.0038,-198.4814 1307.2911,-191.5178"/>
</g>
<!-- Node20 -->
<g id="node18" class="node">
<title>Node20</title>
<g id="a_node18"><a xlink:href="../../d7/dee/LocalBoardRO_8cxx.html" target="_top" xlink:title="Structure to store the FEE local board information. ">
<polygon fill="none" stroke="#000000" points="1823,-89.5 1823,-141.5 1969,-141.5 1969,-89.5 1823,-89.5"/>
<text text-anchor="start" x="1831" y="-129.5" font-family="Helvetica,sans-Serif" font-size="10.00" fill="#000000">/home/travis/build</text>
<text text-anchor="start" x="1831" y="-118.5" font-family="Helvetica,sans-Serif" font-size="10.00" fill="#000000">/AliceO2Group/AliceO2</text>
<text text-anchor="start" x="1831" y="-107.5" font-family="Helvetica,sans-Serif" font-size="10.00" fill="#000000">/Detectors/MUON/MID/Raw</text>
<text text-anchor="middle" x="1896" y="-96.5" font-family="Helvetica,sans-Serif" font-size="10.00" fill="#000000">/src/LocalBoardRO.cxx</text>
</a>
</g>
</g>
<!-- Node3&#45;&gt;Node20 -->
<g id="edge19" class="edge">
<title>Node3&#45;&gt;Node20</title>
<path fill="none" stroke="#191970" d="M1307.7285,-200.4674C1430.555,-194.2284 1638.7621,-178.8332 1814,-142 1816.9282,-141.3845 1819.8994,-140.7035 1822.889,-139.9708"/>
<polygon fill="#191970" stroke="#191970" points="1307.3886,-196.9799 1297.5747,-200.9721 1307.7362,-203.9712 1307.3886,-196.9799"/>
</g>
<!-- Node21 -->
<g id="node19" class="node">
<title>Node21</title>
<g id="a_node19"><a xlink:href="../../db/d42/testCrateMapper_8cxx.html" target="_top" xlink:title="/home/travis/build\l/AliceO2Group/AliceO2\l/Detectors/MUON/MID/Raw\l/test/testCrateMapper.cxx">
<polygon fill="none" stroke="#000000" points="1987,-89.5 1987,-141.5 2133,-141.5 2133,-89.5 1987,-89.5"/>
<text text-anchor="start" x="1995" y="-129.5" font-family="Helvetica,sans-Serif" font-size="10.00" fill="#000000">/home/travis/build</text>
<text text-anchor="start" x="1995" y="-118.5" font-family="Helvetica,sans-Serif" font-size="10.00" fill="#000000">/AliceO2Group/AliceO2</text>
<text text-anchor="start" x="1995" y="-107.5" font-family="Helvetica,sans-Serif" font-size="10.00" fill="#000000">/Detectors/MUON/MID/Raw</text>
<text text-anchor="middle" x="2060" y="-96.5" font-family="Helvetica,sans-Serif" font-size="10.00" fill="#000000">/test/testCrateMapper.cxx</text>
</a>
</g>
</g>
<!-- Node3&#45;&gt;Node21 -->
<g id="edge20" class="edge">
<title>Node3&#45;&gt;Node21</title>
<path fill="none" stroke="#191970" d="M1307.7499,-199.0293C1489.2686,-189.1291 1852.6987,-166.9399 1978,-142 1980.9346,-141.4159 1983.9112,-140.7613 1986.9053,-140.0508"/>
<polygon fill="#191970" stroke="#191970" points="1307.4482,-195.5404 1297.6527,-199.5775 1307.8278,-202.5301 1307.4482,-195.5404"/>
</g>
<!-- Node5 -->
<g id="node3" class="node">
<title>Node5</title>
<g id="a_node3"><a xlink:href="../../dd/d82/mid-raw-checker_8cxx.html" target="_top" xlink:title="CRU bare data checker for MID. ">
<polygon fill="none" stroke="#000000" points="328,-.5 328,-52.5 474,-52.5 474,-.5 328,-.5"/>
<text text-anchor="start" x="336" y="-40.5" font-family="Helvetica,sans-Serif" font-size="10.00" fill="#000000">/home/travis/build</text>
<text text-anchor="start" x="336" y="-29.5" font-family="Helvetica,sans-Serif" font-size="10.00" fill="#000000">/AliceO2Group/AliceO2</text>
<text text-anchor="start" x="336" y="-18.5" font-family="Helvetica,sans-Serif" font-size="10.00" fill="#000000">/Detectors/MUON/MID/Raw</text>
<text text-anchor="middle" x="401" y="-7.5" font-family="Helvetica,sans-Serif" font-size="10.00" fill="#000000">/exe/mid&#45;raw&#45;checker.cxx</text>
</a>
</g>
</g>
<!-- Node4&#45;&gt;Node5 -->
<g id="edge2" class="edge">
<title>Node4&#45;&gt;Node5</title>
<path fill="none" stroke="#191970" d="M336.7337,-82.5755C348.0915,-72.6653 360.3927,-61.9319 371.1631,-52.5341"/>
<polygon fill="#191970" stroke="#191970" points="334.2855,-80.0666 329.0517,-89.2784 338.8877,-85.341 334.2855,-80.0666"/>
</g>
<!-- Node6 -->
<g id="node4" class="node">
<title>Node6</title>
<g id="a_node4"><a xlink:href="../../d5/d95/mid-rawdump_8cxx.html" target="_top" xlink:title="Raw dumper for MID. ">
<polygon fill="none" stroke="#000000" points="164,-.5 164,-52.5 310,-52.5 310,-.5 164,-.5"/>
<text text-anchor="start" x="172" y="-40.5" font-family="Helvetica,sans-Serif" font-size="10.00" fill="#000000">/home/travis/build</text>
<text text-anchor="start" x="172" y="-29.5" font-family="Helvetica,sans-Serif" font-size="10.00" fill="#000000">/AliceO2Group/AliceO2</text>
<text text-anchor="start" x="172" y="-18.5" font-family="Helvetica,sans-Serif" font-size="10.00" fill="#000000">/Detectors/MUON/MID/Raw</text>
<text text-anchor="middle" x="237" y="-7.5" font-family="Helvetica,sans-Serif" font-size="10.00" fill="#000000">/exe/mid&#45;rawdump.cxx</text>
</a>
</g>
</g>
<!-- Node4&#45;&gt;Node6 -->
<g id="edge3" class="edge">
<title>Node4&#45;&gt;Node6</title>
<path fill="none" stroke="#191970" d="M274.8635,-80.8525C268.3004,-71.4313 261.3052,-61.3897 255.1361,-52.5341"/>
<polygon fill="#191970" stroke="#191970" points="272.1453,-83.0738 280.7333,-89.2784 277.8891,-79.0725 272.1453,-83.0738"/>
</g>
<!-- Node7 -->
<g id="node5" class="node">
<title>Node7</title>
<g id="a_node5"><a xlink:href="../../d2/db9/CRUBareDecoder_8cxx.html" target="_top" xlink:title="MID CRU core decoder. ">
<polygon fill="none" stroke="#000000" points="0,-.5 0,-52.5 146,-52.5 146,-.5 0,-.5"/>
<text text-anchor="start" x="8" y="-40.5" font-family="Helvetica,sans-Serif" font-size="10.00" fill="#000000">/home/travis/build</text>
<text text-anchor="start" x="8" y="-29.5" font-family="Helvetica,sans-Serif" font-size="10.00" fill="#000000">/AliceO2Group/AliceO2</text>
<text text-anchor="start" x="8" y="-18.5" font-family="Helvetica,sans-Serif" font-size="10.00" fill="#000000">/Detectors/MUON/MID/Raw</text>
<text text-anchor="middle" x="73" y="-7.5" font-family="Helvetica,sans-Serif" font-size="10.00" fill="#000000">/src/CRUBareDecoder.cxx</text>
</a>
</g>
</g>
<!-- Node4&#45;&gt;Node7 -->
<g id="edge4" class="edge">
<title>Node4&#45;&gt;Node7</title>
<path fill="none" stroke="#191970" d="M223.2467,-85.6679C196.0491,-74.9574 165.6102,-62.9704 139.2792,-52.6011"/>
<polygon fill="#191970" stroke="#191970" points="222.1326,-88.9908 232.7196,-89.3984 224.6976,-82.4776 222.1326,-88.9908"/>
</g>
<!-- Node9 -->
<g id="node7" class="node">
<title>Node9</title>
<g id="a_node7"><a xlink:href="../../d8/dc6/MUON_2MID_2Raw_2src_2Encoder_8cxx.html" target="_top" xlink:title="MID raw data encoder. ">
<polygon fill="none" stroke="#000000" points="844,-.5 844,-52.5 990,-52.5 990,-.5 844,-.5"/>
<text text-anchor="start" x="852" y="-40.5" font-family="Helvetica,sans-Serif" font-size="10.00" fill="#000000">/home/travis/build</text>
<text text-anchor="start" x="852" y="-29.5" font-family="Helvetica,sans-Serif" font-size="10.00" fill="#000000">/AliceO2Group/AliceO2</text>
<text text-anchor="start" x="852" y="-18.5" font-family="Helvetica,sans-Serif" font-size="10.00" fill="#000000">/Detectors/MUON/MID/Raw</text>
<text text-anchor="middle" x="917" y="-7.5" font-family="Helvetica,sans-Serif" font-size="10.00" fill="#000000">/src/Encoder.cxx</text>
</a>
</g>
</g>
<!-- Node8&#45;&gt;Node9 -->
<g id="edge6" class="edge">
<title>Node8&#45;&gt;Node9</title>
<path fill="none" stroke="#191970" d="M967.8731,-81.7159C958.9648,-72.0472 949.3953,-61.6608 940.9865,-52.5341"/>
<polygon fill="#191970" stroke="#191970" points="965.4908,-84.2956 974.8408,-89.2784 970.6389,-79.5525 965.4908,-84.2956"/>
</g>
<!-- Node10 -->
<g id="node8" class="node">
<title>Node10</title>
<g id="a_node8"><a xlink:href="../../d5/d52/bench__Raw_8cxx.html" target="_top" xlink:title="/home/travis/build\l/AliceO2Group/AliceO2\l/Detectors/MUON/MID/Raw\l/test/bench_Raw.cxx">
<polygon fill="none" stroke="#000000" points="1008,-.5 1008,-52.5 1154,-52.5 1154,-.5 1008,-.5"/>
<text text-anchor="start" x="1016" y="-40.5" font-family="Helvetica,sans-Serif" font-size="10.00" fill="#000000">/home/travis/build</text>
<text text-anchor="start" x="1016" y="-29.5" font-family="Helvetica,sans-Serif" font-size="10.00" fill="#000000">/AliceO2Group/AliceO2</text>
<text text-anchor="start" x="1016" y="-18.5" font-family="Helvetica,sans-Serif" font-size="10.00" fill="#000000">/Detectors/MUON/MID/Raw</text>
<text text-anchor="middle" x="1081" y="-7.5" font-family="Helvetica,sans-Serif" font-size="10.00" fill="#000000">/test/bench_Raw.cxx</text>
</a>
</g>
</g>
<!-- Node8&#45;&gt;Node10 -->
<g id="edge7" class="edge">
<title>Node8&#45;&gt;Node10</title>
<path fill="none" stroke="#191970" d="M1030.1269,-81.7159C1039.0352,-72.0472 1048.6047,-61.6608 1057.0135,-52.5341"/>
<polygon fill="#191970" stroke="#191970" points="1027.3611,-79.5525 1023.1592,-89.2784 1032.5092,-84.2956 1027.3611,-79.5525"/>
</g>
<!-- Node8&#45;&gt;Node11 -->
<g id="edge8" class="edge">
<title>Node8&#45;&gt;Node11</title>
<path fill="none" stroke="#191970" d="M1083.1619,-89.8562C1084.4483,-89.5621 1085.7283,-89.2764 1087,-89 1202.7177,-63.8497 1235.5407,-79.3106 1351,-53 1353.9174,-52.3352 1356.8795,-51.6125 1359.8614,-50.8451"/>
<polygon fill="#191970" stroke="#191970" points="1082.1016,-86.5115 1073.2026,-92.2612 1083.7448,-93.3159 1082.1016,-86.5115"/>
</g>
<!-- Node12 -->
<g id="node10" class="node">
<title>Node12</title>
<g id="a_node10"><a xlink:href="../../db/dd6/RawWriterSpec_8cxx.html" target="_top" xlink:title="Digits to raw converter spec for MID. ">
<polygon fill="none" stroke="#000000" points="1172,-.5 1172,-52.5 1342,-52.5 1342,-.5 1172,-.5"/>
<text text-anchor="start" x="1180" y="-40.5" font-family="Helvetica,sans-Serif" font-size="10.00" fill="#000000">/home/travis/build</text>
<text text-anchor="start" x="1180" y="-29.5" font-family="Helvetica,sans-Serif" font-size="10.00" fill="#000000">/AliceO2Group/AliceO2</text>
<text text-anchor="start" x="1180" y="-18.5" font-family="Helvetica,sans-Serif" font-size="10.00" fill="#000000">/Detectors/MUON/MID/Workflow</text>
<text text-anchor="middle" x="1257" y="-7.5" font-family="Helvetica,sans-Serif" font-size="10.00" fill="#000000">/src/RawWriterSpec.cxx</text>
</a>
</g>
</g>
<!-- Node8&#45;&gt;Node12 -->
<g id="edge9" class="edge">
<title>Node8&#45;&gt;Node12</title>
<path fill="none" stroke="#191970" d="M1082.9775,-86.531C1114.6931,-75.5904 1150.5603,-63.2176 1181.4569,-52.5594"/>
<polygon fill="#191970" stroke="#191970" points="1081.5901,-83.3071 1073.2782,-89.8769 1083.8729,-89.9245 1081.5901,-83.3071"/>
</g>
<!-- Node13&#45;&gt;Node5 -->
<g id="edge11" class="edge">
<title>Node13&#45;&gt;Node5</title>
<path fill="none" stroke="#191970" d="M507.7355,-84.4235C488.5505,-74.0122 467.3725,-62.5192 448.973,-52.5341"/>
<polygon fill="#191970" stroke="#191970" points="506.223,-87.5849 516.6816,-89.2784 509.5618,-81.4324 506.223,-87.5849"/>
</g>
<!-- Node13&#45;&gt;Node6 -->
<g id="edge12" class="edge">
<title>Node13&#45;&gt;Node6</title>
<path fill="none" stroke="#191970" d="M465.2187,-91.6826C420.3458,-80.5782 366.8286,-66.789 319,-53 316.1249,-52.1711 313.1985,-51.31 310.2465,-50.4267"/>
<polygon fill="#191970" stroke="#191970" points="464.4039,-95.0865 474.9511,-94.0826 466.0799,-88.2901 464.4039,-95.0865"/>
</g>
<!-- Node14 -->
<g id="node12" class="node">
<title>Node14</title>
<g id="a_node12"><a xlink:href="../../d8/dc3/MUON_2MID_2Raw_2src_2RawFileReader_8cxx.html" target="_top" xlink:title="MID raw file reader. ">
<polygon fill="none" stroke="#000000" points="492,-.5 492,-52.5 638,-52.5 638,-.5 492,-.5"/>
<text text-anchor="start" x="500" y="-40.5" font-family="Helvetica,sans-Serif" font-size="10.00" fill="#000000">/home/travis/build</text>
<text text-anchor="start" x="500" y="-29.5" font-family="Helvetica,sans-Serif" font-size="10.00" fill="#000000">/AliceO2Group/AliceO2</text>
<text text-anchor="start" x="500" y="-18.5" font-family="Helvetica,sans-Serif" font-size="10.00" fill="#000000">/Detectors/MUON/MID/Raw</text>
<text text-anchor="middle" x="565" y="-7.5" font-family="Helvetica,sans-Serif" font-size="10.00" fill="#000000">/src/RawFileReader.cxx</text>
</a>
</g>
</g>
<!-- Node13&#45;&gt;Node14 -->
<g id="edge13" class="edge">
<title>Node13&#45;&gt;Node14</title>
<path fill="none" stroke="#191970" d="M565,-79.1155C565,-70.2061 565,-60.8475 565,-52.5341"/>
<polygon fill="#191970" stroke="#191970" points="561.5001,-79.2784 565,-89.2784 568.5001,-79.2785 561.5001,-79.2784"/>
</g>
<!-- Node13&#45;&gt;Node15 -->
<g id="edge14" class="edge">
<title>Node13&#45;&gt;Node15</title>
<path fill="none" stroke="#191970" d="M625.8962,-84.7059C646.6317,-74.2203 669.5923,-62.6096 689.5167,-52.5341"/>
<polygon fill="#191970" stroke="#191970" points="624.1983,-81.6424 616.8539,-89.2784 627.3572,-87.8891 624.1983,-81.6424"/>
</g>
</g>
</svg>
