<?xml version="1.0" encoding="UTF-8" standalone="no"?>
<!DOCTYPE svg PUBLIC "-//W3C//DTD SVG 1.1//EN"
 "http://www.w3.org/Graphics/SVG/1.1/DTD/svg11.dtd">
<!-- Generated by graphviz version 2.40.1 (20161225.0304)
 -->
<!-- Title: /home/travis/build/AliceO2Group/AliceO2/Detectors/TOF/simulation/include/TOFSimulation/Detector.h Pages: 1 -->
<svg width="3559pt" height="385pt"
 viewBox="0.00 0.00 3558.50 385.00" xmlns="http://www.w3.org/2000/svg" xmlns:xlink="http://www.w3.org/1999/xlink">
<g id="graph0" class="graph" transform="scale(1 1) rotate(0) translate(4 381)">
<title>/home/travis/build/AliceO2Group/AliceO2/Detectors/TOF/simulation/include/TOFSimulation/Detector.h</title>
<!-- Node0 -->
<g id="node1" class="node">
<title>Node0</title>
<polygon fill="#bfbfbf" stroke="#000000" points="1141.5,-324.5 1141.5,-376.5 1323.5,-376.5 1323.5,-324.5 1141.5,-324.5"/>
<text text-anchor="start" x="1149.5" y="-364.5" font-family="Helvetica,sans-Serif" font-size="10.00" fill="#000000">/home/travis/build</text>
<text text-anchor="start" x="1149.5" y="-353.5" font-family="Helvetica,sans-Serif" font-size="10.00" fill="#000000">/AliceO2Group/AliceO2</text>
<text text-anchor="start" x="1149.5" y="-342.5" font-family="Helvetica,sans-Serif" font-size="10.00" fill="#000000">/Detectors/TOF/simulation</text>
<text text-anchor="middle" x="1232.5" y="-331.5" font-family="Helvetica,sans-Serif" font-size="10.00" fill="#000000">/include/TOFSimulation/Detector.h</text>
</g>
<!-- Node1 -->
<g id="node2" class="node">
<title>Node1</title>
<g id="a_node2"><a xlink:href="../../d1/d3a/Base_2include_2DetectorsBase_2Detector_8h.html" target="_top" xlink:title="DetectorsBase/Detector.h">
<polygon fill="none" stroke="#000000" points="731,-201.5 731,-220.5 872,-220.5 872,-201.5 731,-201.5"/>
<text text-anchor="middle" x="801.5" y="-208.5" font-family="Helvetica,sans-Serif" font-size="10.00" fill="#000000">DetectorsBase/Detector.h</text>
</a>
</g>
</g>
<!-- Node0&#45;&gt;Node1 -->
<g id="edge1" class="edge">
<title>Node0&#45;&gt;Node1</title>
<path fill="none" stroke="#191970" d="M1151.9378,-324.4248C1059.2798,-294.4345 910.9308,-246.419 840.7414,-223.7011"/>
<polygon fill="#191970" stroke="#191970" points="841.5605,-220.2875 830.9686,-220.538 839.4049,-226.9474 841.5605,-220.2875"/>
</g>
<!-- Node21 -->
<g id="node22" class="node">
<title>Node21</title>
<g id="a_node22"><a xlink:href="../../d0/d91/ShmAllocator_8h.html" target="_top" xlink:title="CommonUtils/ShmAllocator.h">
<polygon fill="none" stroke="#000000" points="103.5,-140 103.5,-159 263.5,-159 263.5,-140 103.5,-140"/>
<text text-anchor="middle" x="183.5" y="-147" font-family="Helvetica,sans-Serif" font-size="10.00" fill="#000000">CommonUtils/ShmAllocator.h</text>
</a>
</g>
</g>
<!-- Node0&#45;&gt;Node21 -->
<g id="edge71" class="edge">
<title>Node0&#45;&gt;Node21</title>
<path fill="none" stroke="#191970" d="M1141.2432,-333.0142C931.2108,-292.7697 418.2287,-194.4766 243.1767,-160.9347"/>
<polygon fill="#191970" stroke="#191970" points="243.6028,-157.4528 233.1228,-159.0083 242.2855,-164.3277 243.6028,-157.4528"/>
</g>
<!-- Node25 -->
<g id="node26" class="node">
<title>Node25</title>
<g id="a_node26"><a xlink:href="../../d4/d54/Geo_8h.html" target="_top" xlink:title="TOFBase/Geo.h">
<polygon fill="none" stroke="#000000" points="1529,-263 1529,-282 1620,-282 1620,-263 1529,-263"/>
<text text-anchor="middle" x="1574.5" y="-270" font-family="Helvetica,sans-Serif" font-size="10.00" fill="#000000">TOFBase/Geo.h</text>
</a>
</g>
</g>
<!-- Node0&#45;&gt;Node25 -->
<g id="edge30" class="edge">
<title>Node0&#45;&gt;Node25</title>
<path fill="none" stroke="#191970" d="M1323.7005,-329.6999C1387.4625,-315.1577 1470.3062,-296.2635 1522.9573,-284.2553"/>
<polygon fill="#191970" stroke="#191970" points="1523.7765,-287.6585 1532.7479,-282.0224 1522.2199,-280.8337 1523.7765,-287.6585"/>
</g>
<!-- Node40 -->
<g id="node41" class="node">
<title>Node40</title>
<g id="a_node41"><a xlink:href="../../d4/d25/BaseHits_8h.html" target="_top" xlink:title="SimulationDataFormat\l/BaseHits.h">
<polygon fill="none" stroke="#000000" points="2002,-257.5 2002,-287.5 2129,-287.5 2129,-257.5 2002,-257.5"/>
<text text-anchor="start" x="2010" y="-275.5" font-family="Helvetica,sans-Serif" font-size="10.00" fill="#000000">SimulationDataFormat</text>
<text text-anchor="middle" x="2065.5" y="-264.5" font-family="Helvetica,sans-Serif" font-size="10.00" fill="#000000">/BaseHits.h</text>
</a>
</g>
</g>
<!-- Node0&#45;&gt;Node40 -->
<g id="edge58" class="edge">
<title>Node0&#45;&gt;Node40</title>
<path fill="none" stroke="#191970" d="M1323.6295,-341.9669C1489.8337,-326.4039 1839.091,-293.7004 1991.6084,-279.419"/>
<polygon fill="#191970" stroke="#191970" points="1992.1752,-282.8813 2001.8053,-278.4642 1991.5226,-275.9118 1992.1752,-282.8813"/>
</g>
<!-- Node2 -->
<g id="node3" class="node">
<title>Node2</title>
<polygon fill="none" stroke="#bfbfbf" points="1057.5,-6 1057.5,-25 1095.5,-25 1095.5,-6 1057.5,-6"/>
<text text-anchor="middle" x="1076.5" y="-13" font-family="Helvetica,sans-Serif" font-size="10.00" fill="#000000">map</text>
</g>
<!-- Node1&#45;&gt;Node2 -->
<g id="edge2" class="edge">
<title>Node1&#45;&gt;Node2</title>
<path fill="none" stroke="#191970" d="M780.3784,-201.4622C766.2497,-193.8191 748.7828,-181.6199 740.5,-165 734.3545,-152.6687 734.1588,-146.2318 740.5,-134 764.2794,-88.1309 788.1648,-87.7079 835.5,-67 907.6854,-35.4208 1000.7279,-22.6251 1047.2661,-17.9303"/>
<polygon fill="#191970" stroke="#191970" points="1047.641,-21.4105 1057.263,-16.9756 1046.9755,-14.4422 1047.641,-21.4105"/>
</g>
<!-- Node3 -->
<g id="node4" class="node">
<title>Node3</title>
<polygon fill="none" stroke="#bfbfbf" points="1248,-6 1248,-25 1295,-25 1295,-6 1248,-6"/>
<text text-anchor="middle" x="1271.5" y="-13" font-family="Helvetica,sans-Serif" font-size="10.00" fill="#000000">vector</text>
</g>
<!-- Node1&#45;&gt;Node3 -->
<g id="edge3" class="edge">
<title>Node1&#45;&gt;Node3</title>
<path fill="none" stroke="#191970" d="M872.2842,-206.1725C974.2406,-198.6425 1152.8547,-183.0749 1176.5,-165 1213.8749,-136.4299 1189.825,-105.7502 1216.5,-67 1225.7207,-53.6053 1238.9555,-41.0756 1250.1317,-31.7293"/>
<polygon fill="#191970" stroke="#191970" points="1252.5897,-34.2433 1258.1763,-25.241 1248.1952,-28.7946 1252.5897,-34.2433"/>
</g>
<!-- Node4 -->
<g id="node5" class="node">
<title>Node4</title>
<polygon fill="none" stroke="#bfbfbf" points="844,-73 844,-92 927,-92 927,-73 844,-73"/>
<text text-anchor="middle" x="885.5" y="-80" font-family="Helvetica,sans-Serif" font-size="10.00" fill="#000000">initializer_list</text>
</g>
<!-- Node1&#45;&gt;Node4 -->
<g id="edge4" class="edge">
<title>Node1&#45;&gt;Node4</title>
<path fill="none" stroke="#191970" d="M784.7627,-201.2988C772.7416,-193.2823 757.477,-180.6887 750.5,-165 744.9015,-152.411 742.6844,-145.3465 750.5,-134 760.7963,-119.0521 802.5917,-104.547 836.9836,-94.7607"/>
<polygon fill="#191970" stroke="#191970" points="838.2147,-98.0514 846.9145,-92.0047 836.3427,-91.3063 838.2147,-98.0514"/>
</g>
<!-- Node5 -->
<g id="node6" class="node">
<title>Node5</title>
<polygon fill="none" stroke="#bfbfbf" points="569.5,-140 569.5,-159 627.5,-159 627.5,-140 569.5,-140"/>
<text text-anchor="middle" x="598.5" y="-147" font-family="Helvetica,sans-Serif" font-size="10.00" fill="#000000">memory</text>
</g>
<!-- Node1&#45;&gt;Node5 -->
<g id="edge5" class="edge">
<title>Node1&#45;&gt;Node5</title>
<path fill="none" stroke="#191970" d="M765.7086,-201.4379C733.1469,-192.5665 683.8486,-178.7037 641.5,-165 639.0557,-164.209 636.5419,-163.3702 634.0153,-162.5083"/>
<polygon fill="#191970" stroke="#191970" points="634.9216,-159.1175 624.3267,-159.122 632.6119,-165.7255 634.9216,-159.1175"/>
</g>
<!-- Node6 -->
<g id="node7" class="node">
<title>Node6</title>
<polygon fill="none" stroke="#bfbfbf" points="759.5,-140 759.5,-159 843.5,-159 843.5,-140 759.5,-140"/>
<text text-anchor="middle" x="801.5" y="-147" font-family="Helvetica,sans-Serif" font-size="10.00" fill="#000000">FairDetector.h</text>
</g>
<!-- Node1&#45;&gt;Node6 -->
<g id="edge6" class="edge">
<title>Node1&#45;&gt;Node6</title>
<path fill="none" stroke="#191970" d="M801.5,-201.3906C801.5,-192.8657 801.5,-180.1392 801.5,-169.4235"/>
<polygon fill="#191970" stroke="#191970" points="805.0001,-169.2448 801.5,-159.2449 798.0001,-169.2449 805.0001,-169.2448"/>
</g>
<!-- Node7 -->
<g id="node8" class="node">
<title>Node7</title>
<polygon fill="none" stroke="#bfbfbf" points="861.5,-140 861.5,-159 967.5,-159 967.5,-140 861.5,-140"/>
<text text-anchor="middle" x="914.5" y="-147" font-family="Helvetica,sans-Serif" font-size="10.00" fill="#000000">FairRootManager.h</text>
</g>
<!-- Node1&#45;&gt;Node7 -->
<g id="edge7" class="edge">
<title>Node1&#45;&gt;Node7</title>
<path fill="none" stroke="#191970" d="M819.1563,-201.3906C837.6486,-191.3262 866.901,-175.4057 888.1308,-163.8514"/>
<polygon fill="#191970" stroke="#191970" points="889.8575,-166.8965 896.9677,-159.0419 886.5112,-160.7481 889.8575,-166.8965"/>
</g>
<!-- Node8 -->
<g id="node9" class="node">
<title>Node8</title>
<g id="a_node9"><a xlink:href="../../d0/d9a/MaterialManager_8h.html" target="_top" xlink:title="DetectorsBase/MaterialManager.h">
<polygon fill="none" stroke="#000000" points="986,-140 986,-159 1167,-159 1167,-140 986,-140"/>
<text text-anchor="middle" x="1076.5" y="-147" font-family="Helvetica,sans-Serif" font-size="10.00" fill="#000000">DetectorsBase/MaterialManager.h</text>
</a>
</g>
</g>
<!-- Node1&#45;&gt;Node8 -->
<g id="edge8" class="edge">
<title>Node1&#45;&gt;Node8</title>
<path fill="none" stroke="#191970" d="M844.167,-201.4581C892.5378,-190.6406 971.4369,-172.9959 1023.6607,-161.3168"/>
<polygon fill="#191970" stroke="#191970" points="1024.7378,-164.6624 1033.7329,-159.0643 1023.2101,-157.8312 1024.7378,-164.6624"/>
</g>
<!-- Node9 -->
<g id="node10" class="node">
<title>Node9</title>
<polygon fill="none" stroke="#bfbfbf" points="1313,-73 1313,-92 1372,-92 1372,-73 1313,-73"/>
<text text-anchor="middle" x="1342.5" y="-80" font-family="Helvetica,sans-Serif" font-size="10.00" fill="#000000">Rtypes.h</text>
</g>
<!-- Node1&#45;&gt;Node9 -->
<g id="edge13" class="edge">
<title>Node1&#45;&gt;Node9</title>
<path fill="none" stroke="#191970" d="M872.0814,-208.0237C1024.6956,-201.2462 1373.1211,-183.789 1390.5,-165 1409.1746,-144.81 1383.4601,-116.1232 1363.0636,-98.4429"/>
<polygon fill="#191970" stroke="#191970" points="1365.2683,-95.7242 1355.3385,-92.0295 1360.7969,-101.1101 1365.2683,-95.7242"/>
</g>
<!-- Node11 -->
<g id="node12" class="node">
<title>Node11</title>
<polygon fill="none" stroke="#bfbfbf" points="1261.5,-140 1261.5,-159 1319.5,-159 1319.5,-140 1261.5,-140"/>
<text text-anchor="middle" x="1290.5" y="-147" font-family="Helvetica,sans-Serif" font-size="10.00" fill="#000000">cxxabi.h</text>
</g>
<!-- Node1&#45;&gt;Node11 -->
<g id="edge14" class="edge">
<title>Node1&#45;&gt;Node11</title>
<path fill="none" stroke="#191970" d="M872.2702,-208.9979C960.9622,-205.2835 1117.1587,-194.7457 1247.5,-165 1250.7494,-164.2585 1254.0899,-163.343 1257.4043,-162.3307"/>
<polygon fill="#191970" stroke="#191970" points="1258.7724,-165.564 1267.1516,-159.0802 1256.5579,-158.9235 1258.7724,-165.564"/>
</g>
<!-- Node12 -->
<g id="node13" class="node">
<title>Node12</title>
<polygon fill="none" stroke="#bfbfbf" points="1538,-6 1538,-25 1595,-25 1595,-6 1538,-6"/>
<text text-anchor="middle" x="1566.5" y="-13" font-family="Helvetica,sans-Serif" font-size="10.00" fill="#000000">typeinfo</text>
</g>
<!-- Node1&#45;&gt;Node12 -->
<g id="edge15" class="edge">
<title>Node1&#45;&gt;Node12</title>
<path fill="none" stroke="#191970" d="M872.1889,-208.9055C1009.6766,-204.2944 1308.3036,-191.501 1407.5,-165 1474.1433,-147.1958 1504.3728,-151.8365 1547.5,-98 1561.8825,-80.046 1565.7806,-53.2075 1566.6382,-35.0595"/>
<polygon fill="#191970" stroke="#191970" points="1570.1378,-35.1103 1566.8458,-25.0399 1563.1393,-34.9652 1570.1378,-35.1103"/>
</g>
<!-- Node13 -->
<g id="node14" class="node">
<title>Node13</title>
<polygon fill="none" stroke="#bfbfbf" points="1225,-73 1225,-92 1294,-92 1294,-73 1225,-73"/>
<text text-anchor="middle" x="1259.5" y="-80" font-family="Helvetica,sans-Serif" font-size="10.00" fill="#000000">type_traits</text>
</g>
<!-- Node1&#45;&gt;Node13 -->
<g id="edge16" class="edge">
<title>Node1&#45;&gt;Node13</title>
<path fill="none" stroke="#191970" d="M872.2763,-206.4166C981.5668,-198.8335 1181.7658,-182.7416 1209.5,-165 1232.3555,-150.3793 1246.3071,-121.2257 1253.4713,-101.7872"/>
<polygon fill="#191970" stroke="#191970" points="1256.8456,-102.7361 1256.7665,-92.1416 1250.2215,-100.4731 1256.8456,-102.7361"/>
</g>
<!-- Node14 -->
<g id="node15" class="node">
<title>Node14</title>
<polygon fill="none" stroke="#bfbfbf" points="1337.5,-140 1337.5,-159 1381.5,-159 1381.5,-140 1337.5,-140"/>
<text text-anchor="middle" x="1359.5" y="-147" font-family="Helvetica,sans-Serif" font-size="10.00" fill="#000000">string</text>
</g>
<!-- Node1&#45;&gt;Node14 -->
<g id="edge17" class="edge">
<title>Node1&#45;&gt;Node14</title>
<path fill="none" stroke="#191970" d="M872.2678,-208.1123C995.5698,-202.534 1244.6484,-188.6909 1328.5,-165 1330.2118,-164.5164 1331.9417,-163.9377 1333.6626,-163.2925"/>
<polygon fill="#191970" stroke="#191970" points="1335.499,-166.3076 1343.2329,-159.0662 1332.6713,-159.9042 1335.499,-166.3076"/>
</g>
<!-- Node15 -->
<g id="node16" class="node">
<title>Node15</title>
<polygon fill="none" stroke="#bfbfbf" points="319.5,-140 319.5,-159 393.5,-159 393.5,-140 319.5,-140"/>
<text text-anchor="middle" x="356.5" y="-147" font-family="Helvetica,sans-Serif" font-size="10.00" fill="#000000">TMessage.h</text>
</g>
<!-- Node1&#45;&gt;Node15 -->
<g id="edge18" class="edge">
<title>Node1&#45;&gt;Node15</title>
<path fill="none" stroke="#191970" d="M730.8409,-207.35C650.5046,-202.1657 515.8043,-190.3245 402.5,-165 399.0226,-164.2228 395.4391,-163.2795 391.8794,-162.2462"/>
<polygon fill="#191970" stroke="#191970" points="392.607,-158.8065 382.018,-159.1588 390.5155,-165.4868 392.607,-158.8065"/>
</g>
<!-- Node16 -->
<g id="node17" class="node">
<title>Node16</title>
<g id="a_node17"><a xlink:href="../../de/d61/ShmManager_8h.html" target="_top" xlink:title="CommonUtils/ShmManager.h">
<polygon fill="none" stroke="#000000" points="158.5,-73 158.5,-92 316.5,-92 316.5,-73 158.5,-73"/>
<text text-anchor="middle" x="237.5" y="-80" font-family="Helvetica,sans-Serif" font-size="10.00" fill="#000000">CommonUtils/ShmManager.h</text>
</a>
</g>
</g>
<!-- Node1&#45;&gt;Node16 -->
<g id="edge19" class="edge">
<title>Node1&#45;&gt;Node16</title>
<path fill="none" stroke="#191970" d="M730.6594,-207.2458C603.6666,-200.093 347.0459,-183.5602 310.5,-165 295.7377,-157.5028 267.5508,-122.4079 250.8516,-100.476"/>
<polygon fill="#191970" stroke="#191970" points="253.4808,-98.1491 244.6687,-92.2671 247.8893,-102.3605 253.4808,-98.1491"/>
</g>
<!-- Node1&#45;&gt;Node21 -->
<g id="edge24" class="edge">
<title>Node1&#45;&gt;Node21</title>
<path fill="none" stroke="#191970" d="M730.9722,-206.5148C630.1793,-199.7175 439.228,-185.4029 277.5,-165 267.6541,-163.7579 257.26,-162.2466 247.1153,-160.6605"/>
<polygon fill="#191970" stroke="#191970" points="247.5106,-157.1793 237.0834,-159.0567 246.4055,-164.0915 247.5106,-157.1793"/>
</g>
<!-- Node22 -->
<g id="node23" class="node">
<title>Node22</title>
<polygon fill="none" stroke="#bfbfbf" points="474.5,-73 474.5,-92 526.5,-92 526.5,-73 474.5,-73"/>
<text text-anchor="middle" x="500.5" y="-80" font-family="Helvetica,sans-Serif" font-size="10.00" fill="#000000">cassert</text>
</g>
<!-- Node1&#45;&gt;Node22 -->
<g id="edge29" class="edge">
<title>Node1&#45;&gt;Node22</title>
<path fill="none" stroke="#191970" d="M769.4115,-201.4766C744.2058,-193.3933 708.6194,-180.6294 679.5,-165 658.7414,-153.8581 657.2507,-145.1566 636.5,-134 604.1191,-116.5904 564.5726,-102.3235 536.4893,-93.2571"/>
<polygon fill="#191970" stroke="#191970" points="537.286,-89.8382 526.696,-90.1559 535.1728,-96.5116 537.286,-89.8382"/>
</g>
<!-- Node23 -->
<g id="node24" class="node">
<title>Node23</title>
<polygon fill="none" stroke="#bfbfbf" points="411.5,-140 411.5,-159 477.5,-159 477.5,-140 411.5,-140"/>
<text text-anchor="middle" x="444.5" y="-147" font-family="Helvetica,sans-Serif" font-size="10.00" fill="#000000">sys/shm.h</text>
</g>
<!-- Node1&#45;&gt;Node23 -->
<g id="edge27" class="edge">
<title>Node1&#45;&gt;Node23</title>
<path fill="none" stroke="#191970" d="M730.924,-204.9433C666.5345,-198.4187 569.1152,-186.0313 486.5,-165 483.5083,-164.2384 480.434,-163.34 477.3746,-162.3656"/>
<polygon fill="#191970" stroke="#191970" points="478.3677,-159.0061 467.773,-159.0688 476.0943,-165.6267 478.3677,-159.0061"/>
</g>
<!-- Node24 -->
<g id="node25" class="node">
<title>Node24</title>
<polygon fill="none" stroke="#bfbfbf" points="495.5,-140 495.5,-159 551.5,-159 551.5,-140 495.5,-140"/>
<text text-anchor="middle" x="523.5" y="-147" font-family="Helvetica,sans-Serif" font-size="10.00" fill="#000000">unistd.h</text>
</g>
<!-- Node1&#45;&gt;Node24 -->
<g id="edge28" class="edge">
<title>Node1&#45;&gt;Node24</title>
<path fill="none" stroke="#191970" d="M730.9663,-201.4989C682.4173,-194.0006 616.7826,-181.9584 560.5,-165 558.3328,-164.347 556.1195,-163.61 553.9068,-162.8208"/>
<polygon fill="#191970" stroke="#191970" points="554.9433,-159.4691 544.354,-159.1258 552.418,-165.9977 554.9433,-159.4691"/>
</g>
<!-- Node8&#45;&gt;Node2 -->
<g id="edge10" class="edge">
<title>Node8&#45;&gt;Node2</title>
<path fill="none" stroke="#191970" d="M1076.5,-139.8631C1076.5,-118.0364 1076.5,-64.4605 1076.5,-35.2589"/>
<polygon fill="#191970" stroke="#191970" points="1080.0001,-35.0496 1076.5,-25.0496 1073.0001,-35.0497 1080.0001,-35.0496"/>
</g>
<!-- Node8&#45;&gt;Node4 -->
<g id="edge12" class="edge">
<title>Node8&#45;&gt;Node4</title>
<path fill="none" stroke="#191970" d="M1049.1344,-139.9005C1015.8038,-128.2086 959.3691,-108.4122 922.2677,-95.3976"/>
<polygon fill="#191970" stroke="#191970" points="923.4097,-92.0891 912.8149,-92.0817 921.0926,-98.6945 923.4097,-92.0891"/>
</g>
<!-- Node8&#45;&gt;Node9 -->
<g id="edge9" class="edge">
<title>Node8&#45;&gt;Node9</title>
<path fill="none" stroke="#191970" d="M1129.4042,-139.915C1175.8051,-130.9377 1244.831,-116.1931 1303.5,-98 1305.79,-97.2899 1308.1356,-96.5062 1310.4848,-95.6797"/>
<polygon fill="#191970" stroke="#191970" points="1311.8827,-98.8938 1320.0281,-92.1187 1309.4355,-92.3355 1311.8827,-98.8938"/>
</g>
<!-- Node10 -->
<g id="node11" class="node">
<title>Node10</title>
<polygon fill="none" stroke="#bfbfbf" points="1117,-6 1117,-25 1210,-25 1210,-6 1117,-6"/>
<text text-anchor="middle" x="1163.5" y="-13" font-family="Helvetica,sans-Serif" font-size="10.00" fill="#000000">unordered_map</text>
</g>
<!-- Node8&#45;&gt;Node10 -->
<g id="edge11" class="edge">
<title>Node8&#45;&gt;Node10</title>
<path fill="none" stroke="#191970" d="M1082.7568,-139.8631C1097.1787,-117.6501 1132.9499,-62.5541 1151.6631,-33.7316"/>
<polygon fill="#191970" stroke="#191970" points="1154.7899,-35.3429 1157.2999,-25.0496 1148.9188,-31.531 1154.7899,-35.3429"/>
</g>
<!-- Node17 -->
<g id="node18" class="node">
<title>Node17</title>
<polygon fill="none" stroke="#bfbfbf" points="406.5,-6 406.5,-25 438.5,-25 438.5,-6 406.5,-6"/>
<text text-anchor="middle" x="422.5" y="-13" font-family="Helvetica,sans-Serif" font-size="10.00" fill="#000000">list</text>
</g>
<!-- Node16&#45;&gt;Node17 -->
<g id="edge20" class="edge">
<title>Node16&#45;&gt;Node17</title>
<path fill="none" stroke="#191970" d="M275.9855,-72.9508C309.0264,-64.0909 357.5066,-49.4969 397.5,-31 398.1779,-30.6865 398.8599,-30.3582 399.5434,-30.0179"/>
<polygon fill="#191970" stroke="#191970" points="401.2658,-33.0648 408.2919,-25.1349 397.8542,-26.9524 401.2658,-33.0648"/>
</g>
<!-- Node18 -->
<g id="node19" class="node">
<title>Node18</title>
<polygon fill="none" stroke="#bfbfbf" points="0,-6 0,-25 53,-25 53,-6 0,-6"/>
<text text-anchor="middle" x="26.5" y="-13" font-family="Helvetica,sans-Serif" font-size="10.00" fill="#000000">cstddef</text>
</g>
<!-- Node16&#45;&gt;Node18 -->
<g id="edge21" class="edge">
<title>Node16&#45;&gt;Node18</title>
<path fill="none" stroke="#191970" d="M199.6103,-72.9673C163.6474,-63.5559 108.2905,-48.1214 61.5,-31 59.8696,-30.4034 58.2074,-29.7671 56.537,-29.1055"/>
<polygon fill="#191970" stroke="#191970" points="57.619,-25.7645 47.0427,-25.1387 54.9204,-32.2234 57.619,-25.7645"/>
</g>
<!-- Node19 -->
<g id="node20" class="node">
<title>Node19</title>
<polygon fill="none" stroke="#bfbfbf" points="71,-.5 71,-30.5 236,-30.5 236,-.5 71,-.5"/>
<text text-anchor="start" x="79" y="-18.5" font-family="Helvetica,sans-Serif" font-size="10.00" fill="#000000">boost/interprocess</text>
<text text-anchor="middle" x="153.5" y="-7.5" font-family="Helvetica,sans-Serif" font-size="10.00" fill="#000000">/managed_external_buffer.hpp</text>
</g>
<!-- Node16&#45;&gt;Node19 -->
<g id="edge22" class="edge">
<title>Node16&#45;&gt;Node19</title>
<path fill="none" stroke="#191970" d="M225.4648,-72.9005C213.7522,-63.5583 195.5523,-49.0417 180.3863,-36.945"/>
<polygon fill="#191970" stroke="#191970" points="182.3335,-34.0212 172.3333,-30.5218 177.9686,-39.4936 182.3335,-34.0212"/>
</g>
<!-- Node20 -->
<g id="node21" class="node">
<title>Node20</title>
<polygon fill="none" stroke="#bfbfbf" points="254.5,-.5 254.5,-30.5 388.5,-30.5 388.5,-.5 254.5,-.5"/>
<text text-anchor="start" x="262.5" y="-18.5" font-family="Helvetica,sans-Serif" font-size="10.00" fill="#000000">boost/interprocess</text>
<text text-anchor="middle" x="321.5" y="-7.5" font-family="Helvetica,sans-Serif" font-size="10.00" fill="#000000">/allocators/allocator.hpp</text>
</g>
<!-- Node16&#45;&gt;Node20 -->
<g id="edge23" class="edge">
<title>Node16&#45;&gt;Node20</title>
<path fill="none" stroke="#191970" d="M249.5352,-72.9005C261.2478,-63.5583 279.4477,-49.0417 294.6137,-36.945"/>
<polygon fill="#191970" stroke="#191970" points="297.0314,-39.4936 302.6667,-30.5218 292.6665,-34.0212 297.0314,-39.4936"/>
</g>
<!-- Node21&#45;&gt;Node16 -->
<g id="edge25" class="edge">
<title>Node21&#45;&gt;Node16</title>
<path fill="none" stroke="#191970" d="M191.2369,-139.9005C199.5775,-129.552 213.0354,-112.8542 223.2912,-100.1295"/>
<polygon fill="#191970" stroke="#191970" points="226.2273,-102.064 229.7775,-92.0817 220.7771,-97.6713 226.2273,-102.064"/>
</g>
<!-- Node21&#45;&gt;Node22 -->
<g id="edge26" class="edge">
<title>Node21&#45;&gt;Node22</title>
<path fill="none" stroke="#191970" d="M228.5817,-139.9717C291.9537,-126.5776 406.1233,-102.4471 464.2978,-90.1516"/>
<polygon fill="#191970" stroke="#191970" points="465.0877,-93.562 474.1478,-88.0697 463.6401,-86.7133 465.0877,-93.562"/>
</g>
<!-- Node25&#45;&gt;Node9 -->
<g id="edge31" class="edge">
<title>Node25&#45;&gt;Node9</title>
<path fill="none" stroke="#191970" d="M1562.8311,-262.6703C1535.7215,-239.8672 1466.3124,-181.6766 1407.5,-134 1392.7789,-122.0662 1376.0124,-108.7896 1363.1954,-98.7059"/>
<polygon fill="#191970" stroke="#191970" points="1365.0532,-95.7145 1355.0268,-92.2906 1360.7297,-101.2197 1365.0532,-95.7145"/>
</g>
<!-- Node26 -->
<g id="node27" class="node">
<title>Node26</title>
<g id="a_node27"><a xlink:href="../../d4/dc6/LHCConstants_8h.html" target="_top" xlink:title="Header to collect LHC related constants. ">
<polygon fill="none" stroke="#000000" points="2093.5,-73 2093.5,-92 2283.5,-92 2283.5,-73 2093.5,-73"/>
<text text-anchor="middle" x="2188.5" y="-80" font-family="Helvetica,sans-Serif" font-size="10.00" fill="#000000">CommonConstants/LHCConstants.h</text>
</a>
</g>
</g>
<!-- Node25&#45;&gt;Node26 -->
<g id="edge32" class="edge">
<title>Node25&#45;&gt;Node26</title>
<path fill="none" stroke="#191970" d="M1620.2006,-268.9998C1770.2627,-257.0495 2240.8329,-215.7763 2284.5,-165 2308.1761,-137.4693 2261.2951,-111.1082 2225.0753,-95.8762"/>
<polygon fill="#191970" stroke="#191970" points="2226.261,-92.5802 2215.6786,-92.0664 2223.6308,-99.0673 2226.261,-92.5802"/>
</g>
<!-- Node27 -->
<g id="node28" class="node">
<title>Node27</title>
<g id="a_node28"><a xlink:href="../../d1/dec/HBFUtils_8h.html" target="_top" xlink:title="DetectorsRaw/HBFUtils.h">
<polygon fill="none" stroke="#000000" points="1594,-201.5 1594,-220.5 1733,-220.5 1733,-201.5 1594,-201.5"/>
<text text-anchor="middle" x="1663.5" y="-208.5" font-family="Helvetica,sans-Serif" font-size="10.00" fill="#000000">DetectorsRaw/HBFUtils.h</text>
</a>
</g>
</g>
<!-- Node25&#45;&gt;Node27 -->
<g id="edge33" class="edge">
<title>Node25&#45;&gt;Node27</title>
<path fill="none" stroke="#191970" d="M1588.4063,-262.8906C1602.5138,-253.1421 1624.5724,-237.8994 1641.1385,-226.4521"/>
<polygon fill="#191970" stroke="#191970" points="1643.4542,-229.1063 1649.6914,-220.5419 1639.4747,-223.3474 1643.4542,-229.1063"/>
</g>
<!-- Node27&#45;&gt;Node9 -->
<g id="edge34" class="edge">
<title>Node27&#45;&gt;Node9</title>
<path fill="none" stroke="#191970" d="M1627.8944,-201.4848C1601.8669,-193.7144 1566.2433,-181.3495 1537.5,-165 1518.5545,-154.2236 1518.7291,-144.2617 1499.5,-134 1451.1262,-108.1853 1433.2429,-116.1408 1381.5,-98 1379.592,-97.3311 1377.6394,-96.625 1375.6743,-95.8978"/>
<polygon fill="#191970" stroke="#191970" points="1376.4834,-92.4601 1365.8929,-92.1585 1373.9838,-98.9987 1376.4834,-92.4601"/>
</g>
<!-- Node28 -->
<g id="node29" class="node">
<title>Node28</title>
<g id="a_node29"><a xlink:href="../../db/d2c/ConfigurableParam_8h.html" target="_top" xlink:title="CommonUtils/Configurable\lParam.h">
<polygon fill="none" stroke="#000000" points="1390.5,-67.5 1390.5,-97.5 1538.5,-97.5 1538.5,-67.5 1390.5,-67.5"/>
<text text-anchor="start" x="1398.5" y="-85.5" font-family="Helvetica,sans-Serif" font-size="10.00" fill="#000000">CommonUtils/Configurable</text>
<text text-anchor="middle" x="1464.5" y="-74.5" font-family="Helvetica,sans-Serif" font-size="10.00" fill="#000000">Param.h</text>
</a>
</g>
</g>
<!-- Node27&#45;&gt;Node28 -->
<g id="edge35" class="edge">
<title>Node27&#45;&gt;Node28</title>
<path fill="none" stroke="#191970" d="M1644.6737,-201.3846C1627.6076,-192.4773 1601.9234,-178.5917 1580.5,-165 1560.6062,-152.3787 1556.6814,-147.6797 1537.5,-134 1523.3087,-123.8791 1507.5089,-112.7193 1494.2477,-103.3833"/>
<polygon fill="#191970" stroke="#191970" points="1496.1351,-100.4317 1485.9423,-97.5408 1492.1075,-106.157 1496.1351,-100.4317"/>
</g>
<!-- Node31 -->
<g id="node32" class="node">
<title>Node31</title>
<g id="a_node32"><a xlink:href="../../da/d6b/ConfigurableParamHelper_8h.html" target="_top" xlink:title="CommonUtils/Configurable\lParamHelper.h">
<polygon fill="none" stroke="#000000" points="1589.5,-134.5 1589.5,-164.5 1737.5,-164.5 1737.5,-134.5 1589.5,-134.5"/>
<text text-anchor="start" x="1597.5" y="-152.5" font-family="Helvetica,sans-Serif" font-size="10.00" fill="#000000">CommonUtils/Configurable</text>
<text text-anchor="middle" x="1663.5" y="-141.5" font-family="Helvetica,sans-Serif" font-size="10.00" fill="#000000">ParamHelper.h</text>
</a>
</g>
</g>
<!-- Node27&#45;&gt;Node31 -->
<g id="edge42" class="edge">
<title>Node27&#45;&gt;Node31</title>
<path fill="none" stroke="#191970" d="M1663.5,-201.3906C1663.5,-194.2234 1663.5,-184.0862 1663.5,-174.671"/>
<polygon fill="#191970" stroke="#191970" points="1667.0001,-174.5446 1663.5,-164.5446 1660.0001,-174.5446 1667.0001,-174.5446"/>
</g>
<!-- Node34 -->
<g id="node35" class="node">
<title>Node34</title>
<g id="a_node35"><a xlink:href="../../d9/d80/InteractionRecord_8h.html" target="_top" xlink:title="CommonDataFormat/Interaction\lRecord.h">
<polygon fill="none" stroke="#000000" points="2101.5,-134.5 2101.5,-164.5 2275.5,-164.5 2275.5,-134.5 2101.5,-134.5"/>
<text text-anchor="start" x="2109.5" y="-152.5" font-family="Helvetica,sans-Serif" font-size="10.00" fill="#000000">CommonDataFormat/Interaction</text>
<text text-anchor="middle" x="2188.5" y="-141.5" font-family="Helvetica,sans-Serif" font-size="10.00" fill="#000000">Record.h</text>
</a>
</g>
</g>
<!-- Node27&#45;&gt;Node34 -->
<g id="edge48" class="edge">
<title>Node27&#45;&gt;Node34</title>
<path fill="none" stroke="#191970" d="M1733.1106,-204.6854C1816.0145,-196.9065 1958.9164,-182.6837 2091.4775,-165.0957"/>
<polygon fill="#191970" stroke="#191970" points="2091.9606,-168.5624 2101.409,-163.769 2091.0336,-161.624 2091.9606,-168.5624"/>
</g>
<!-- Node38 -->
<g id="node39" class="node">
<title>Node38</title>
<g id="a_node39"><a xlink:href="../../d4/d78/DataFormats_2Headers_2include_2Headers_2RAWDataHeader_8h.html" target="_top" xlink:title="Headers/RAWDataHeader.h">
<polygon fill="none" stroke="#000000" points="1756,-140 1756,-159 1905,-159 1905,-140 1756,-140"/>
<text text-anchor="middle" x="1830.5" y="-147" font-family="Helvetica,sans-Serif" font-size="10.00" fill="#000000">Headers/RAWDataHeader.h</text>
</a>
</g>
</g>
<!-- Node27&#45;&gt;Node38 -->
<g id="edge54" class="edge">
<title>Node27&#45;&gt;Node38</title>
<path fill="none" stroke="#191970" d="M1689.5938,-201.3906C1717.9036,-190.9652 1763.2768,-174.2559 1794.8592,-162.6252"/>
<polygon fill="#191970" stroke="#191970" points="1796.4151,-165.7821 1804.5895,-159.0419 1793.996,-159.2133 1796.4151,-165.7821"/>
</g>
<!-- Node39 -->
<g id="node40" class="node">
<title>Node39</title>
<g id="a_node40"><a xlink:href="../../de/da4/Triggers_8h.html" target="_top" xlink:title="Definition of the 32 Central Trigger System (CTS) Trigger Types defined in https://twiki.cern.ch/twiki/pub/ALICE/NoteForFEDevelopers/CTS_CRU_FE_interface.pdf. ">
<polygon fill="none" stroke="#000000" points="1923.5,-140 1923.5,-159 2083.5,-159 2083.5,-140 1923.5,-140"/>
<text text-anchor="middle" x="2003.5" y="-147" font-family="Helvetica,sans-Serif" font-size="10.00" fill="#000000">CommonConstants/Triggers.h</text>
</a>
</g>
</g>
<!-- Node27&#45;&gt;Node39 -->
<g id="edge56" class="edge">
<title>Node27&#45;&gt;Node39</title>
<path fill="none" stroke="#191970" d="M1716.252,-201.4581C1776.8919,-190.4894 1876.3387,-172.5012 1940.86,-160.8305"/>
<polygon fill="#191970" stroke="#191970" points="1941.6867,-164.2378 1950.904,-159.0137 1940.4407,-157.3496 1941.6867,-164.2378"/>
</g>
<!-- Node28&#45;&gt;Node2 -->
<g id="edge37" class="edge">
<title>Node28&#45;&gt;Node2</title>
<path fill="none" stroke="#191970" d="M1390.3224,-68.4441C1387.3448,-67.9444 1384.3953,-67.4609 1381.5,-67 1260.6381,-47.7599 1225.7352,-66.1238 1108.5,-31 1106.6373,-30.4419 1104.7485,-29.7865 1102.8683,-29.0662"/>
<polygon fill="#191970" stroke="#191970" points="1104.2641,-25.8566 1093.6983,-25.0734 1101.4695,-32.2746 1104.2641,-25.8566"/>
</g>
<!-- Node28&#45;&gt;Node3 -->
<g id="edge36" class="edge">
<title>Node28&#45;&gt;Node3</title>
<path fill="none" stroke="#191970" d="M1420.1352,-67.4661C1390.2444,-57.2883 1349.9528,-43.475 1314.5,-31 1311.3561,-29.8937 1308.0863,-28.7332 1304.8167,-27.5661"/>
<polygon fill="#191970" stroke="#191970" points="1305.7285,-24.1748 1295.1339,-24.0923 1303.3646,-30.7637 1305.7285,-24.1748"/>
</g>
<!-- Node28&#45;&gt;Node10 -->
<g id="edge38" class="edge">
<title>Node28&#45;&gt;Node10</title>
<path fill="none" stroke="#191970" d="M1396.9497,-67.4639C1342.3025,-55.2999 1266.436,-38.4127 1216.2044,-27.2315"/>
<polygon fill="#191970" stroke="#191970" points="1216.7244,-23.7617 1206.2029,-25.0053 1215.2035,-30.5945 1216.7244,-23.7617"/>
</g>
<!-- Node28&#45;&gt;Node12 -->
<g id="edge40" class="edge">
<title>Node28&#45;&gt;Node12</title>
<path fill="none" stroke="#191970" d="M1487.3908,-67.4639C1504.0425,-56.526 1526.5083,-41.769 1543.2442,-30.7759"/>
<polygon fill="#191970" stroke="#191970" points="1545.4425,-33.5195 1551.8791,-25.1039 1541.5994,-27.6688 1545.4425,-33.5195"/>
</g>
<!-- Node29 -->
<g id="node30" class="node">
<title>Node29</title>
<polygon fill="none" stroke="#bfbfbf" points="1323,-.5 1323,-30.5 1436,-30.5 1436,-.5 1323,-.5"/>
<text text-anchor="start" x="1331" y="-18.5" font-family="Helvetica,sans-Serif" font-size="10.00" fill="#000000">boost/property_tree</text>
<text text-anchor="middle" x="1379.5" y="-7.5" font-family="Helvetica,sans-Serif" font-size="10.00" fill="#000000">/ptree.hpp</text>
</g>
<!-- Node28&#45;&gt;Node29 -->
<g id="edge39" class="edge">
<title>Node28&#45;&gt;Node29</title>
<path fill="none" stroke="#191970" d="M1445.2122,-67.2967C1433.801,-58.302 1419.1693,-46.7687 1406.6104,-36.8694"/>
<polygon fill="#191970" stroke="#191970" points="1408.7317,-34.0849 1398.7115,-30.6432 1404.3984,-39.5824 1408.7317,-34.0849"/>
</g>
<!-- Node30 -->
<g id="node31" class="node">
<title>Node30</title>
<polygon fill="none" stroke="#bfbfbf" points="1454.5,-6 1454.5,-25 1514.5,-25 1514.5,-6 1454.5,-6"/>
<text text-anchor="middle" x="1484.5" y="-13" font-family="Helvetica,sans-Serif" font-size="10.00" fill="#000000">iostream</text>
</g>
<!-- Node28&#45;&gt;Node30 -->
<g id="edge41" class="edge">
<title>Node28&#45;&gt;Node30</title>
<path fill="none" stroke="#191970" d="M1469.0383,-67.2967C1471.9124,-57.6685 1475.6547,-45.1318 1478.7377,-34.8038"/>
<polygon fill="#191970" stroke="#191970" points="1482.1411,-35.6383 1481.6478,-25.055 1475.4336,-33.636 1482.1411,-35.6383"/>
</g>
<!-- Node31&#45;&gt;Node12 -->
<g id="edge46" class="edge">
<title>Node31&#45;&gt;Node12</title>
<path fill="none" stroke="#191970" d="M1651.7529,-134.2825C1643.9366,-124.0854 1633.4917,-110.3207 1624.5,-98 1608.4762,-76.0437 1590.5565,-50.3765 1578.9336,-33.5743"/>
<polygon fill="#191970" stroke="#191970" points="1581.7368,-31.4741 1573.1763,-25.2316 1575.9755,-35.45 1581.7368,-31.4741"/>
</g>
<!-- Node31&#45;&gt;Node13 -->
<g id="edge45" class="edge">
<title>Node31&#45;&gt;Node13</title>
<path fill="none" stroke="#191970" d="M1589.1565,-142.9801C1516.009,-135.5973 1401.5066,-121.4411 1304.5,-98 1301.1041,-97.1794 1297.6024,-96.207 1294.1225,-95.1554"/>
<polygon fill="#191970" stroke="#191970" points="1295.0706,-91.7837 1284.479,-92.0422 1292.9201,-98.4452 1295.0706,-91.7837"/>
</g>
<!-- Node31&#45;&gt;Node28 -->
<g id="edge43" class="edge">
<title>Node31&#45;&gt;Node28</title>
<path fill="none" stroke="#191970" d="M1618.8405,-134.4639C1589.2432,-124.499 1550.2311,-111.3642 1518.8346,-100.7936"/>
<polygon fill="#191970" stroke="#191970" points="1519.9484,-97.4755 1509.3543,-97.6017 1517.7147,-104.1096 1519.9484,-97.4755"/>
</g>
<!-- Node32 -->
<g id="node33" class="node">
<title>Node32</title>
<polygon fill="none" stroke="#bfbfbf" points="1633,-73 1633,-92 1690,-92 1690,-73 1633,-73"/>
<text text-anchor="middle" x="1661.5" y="-80" font-family="Helvetica,sans-Serif" font-size="10.00" fill="#000000">TClass.h</text>
</g>
<!-- Node31&#45;&gt;Node32 -->
<g id="edge44" class="edge">
<title>Node31&#45;&gt;Node32</title>
<path fill="none" stroke="#191970" d="M1663.0462,-134.2967C1662.7618,-124.7699 1662.3924,-112.3954 1662.086,-102.1306"/>
<polygon fill="#191970" stroke="#191970" points="1665.5821,-101.9461 1661.7852,-92.055 1658.5853,-102.155 1665.5821,-101.9461"/>
</g>
<!-- Node33 -->
<g id="node34" class="node">
<title>Node33</title>
<polygon fill="none" stroke="#bfbfbf" points="1708.5,-73 1708.5,-92 1756.5,-92 1756.5,-73 1708.5,-73"/>
<text text-anchor="middle" x="1732.5" y="-80" font-family="Helvetica,sans-Serif" font-size="10.00" fill="#000000">TFile.h</text>
</g>
<!-- Node31&#45;&gt;Node33 -->
<g id="edge47" class="edge">
<title>Node31&#45;&gt;Node33</title>
<path fill="none" stroke="#191970" d="M1679.1572,-134.2967C1689.9077,-123.8578 1704.1794,-109.9997 1715.2555,-99.2446"/>
<polygon fill="#191970" stroke="#191970" points="1717.9237,-101.5323 1722.6598,-92.055 1713.0473,-96.5103 1717.9237,-101.5323"/>
</g>
<!-- Node34&#45;&gt;Node9 -->
<g id="edge49" class="edge">
<title>Node34&#45;&gt;Node9</title>
<path fill="none" stroke="#191970" d="M2101.4348,-135.0162C2098.423,-134.6512 2095.4381,-134.3106 2092.5,-134 1777.8488,-100.7336 1690.6577,-165.3316 1381.5,-98 1378.4655,-97.3391 1375.3603,-96.4686 1372.292,-95.4766"/>
<polygon fill="#191970" stroke="#191970" points="1373.343,-92.1345 1362.749,-92.0017 1370.9479,-98.712 1373.343,-92.1345"/>
</g>
<!-- Node34&#45;&gt;Node26 -->
<g id="edge53" class="edge">
<title>Node34&#45;&gt;Node26</title>
<path fill="none" stroke="#191970" d="M2188.5,-134.2967C2188.5,-124.7699 2188.5,-112.3954 2188.5,-102.1306"/>
<polygon fill="#191970" stroke="#191970" points="2192.0001,-102.0549 2188.5,-92.055 2185.0001,-102.055 2192.0001,-102.0549"/>
</g>
<!-- Node35 -->
<g id="node36" class="node">
<title>Node35</title>
<polygon fill="none" stroke="#bfbfbf" points="2302,-73 2302,-92 2351,-92 2351,-73 2302,-73"/>
<text text-anchor="middle" x="2326.5" y="-80" font-family="Helvetica,sans-Serif" font-size="10.00" fill="#000000">iosfwd</text>
</g>
<!-- Node34&#45;&gt;Node35 -->
<g id="edge50" class="edge">
<title>Node34&#45;&gt;Node35</title>
<path fill="none" stroke="#191970" d="M2219.4699,-134.4639C2242.8331,-123.1209 2274.6559,-107.6707 2297.5194,-96.5703"/>
<polygon fill="#191970" stroke="#191970" points="2299.2516,-99.62 2306.7188,-92.1039 2296.1943,-93.323 2299.2516,-99.62"/>
</g>
<!-- Node36 -->
<g id="node37" class="node">
<title>Node36</title>
<polygon fill="none" stroke="#bfbfbf" points="2028,-73 2028,-92 2075,-92 2075,-73 2028,-73"/>
<text text-anchor="middle" x="2051.5" y="-80" font-family="Helvetica,sans-Serif" font-size="10.00" fill="#000000">cmath</text>
</g>
<!-- Node34&#45;&gt;Node36 -->
<g id="edge51" class="edge">
<title>Node34&#45;&gt;Node36</title>
<path fill="none" stroke="#191970" d="M2157.7545,-134.4639C2134.5606,-123.1209 2102.9684,-107.6707 2080.2706,-96.5703"/>
<polygon fill="#191970" stroke="#191970" points="2081.6588,-93.3531 2071.1379,-92.1039 2078.5835,-99.6414 2081.6588,-93.3531"/>
</g>
<!-- Node37 -->
<g id="node38" class="node">
<title>Node37</title>
<polygon fill="none" stroke="#bfbfbf" points="1959.5,-73 1959.5,-92 2009.5,-92 2009.5,-73 1959.5,-73"/>
<text text-anchor="middle" x="1984.5" y="-80" font-family="Helvetica,sans-Serif" font-size="10.00" fill="#000000">cstdint</text>
</g>
<!-- Node34&#45;&gt;Node37 -->
<g id="edge52" class="edge">
<title>Node34&#45;&gt;Node37</title>
<path fill="none" stroke="#191970" d="M2133.1381,-134.4626C2099.8658,-124.9733 2056.8691,-111.9101 2019.5,-98 2017.8729,-97.3943 2016.2134,-96.7509 2014.5451,-96.0836"/>
<polygon fill="#191970" stroke="#191970" points="2015.6323,-92.7442 2005.0571,-92.0996 2012.9222,-99.1983 2015.6323,-92.7442"/>
</g>
<!-- Node38&#45;&gt;Node37 -->
<g id="edge55" class="edge">
<title>Node38&#45;&gt;Node37</title>
<path fill="none" stroke="#191970" d="M1852.5644,-139.9005C1878.8665,-128.4574 1923.0128,-109.2509 1952.9245,-96.2374"/>
<polygon fill="#191970" stroke="#191970" points="1954.703,-99.2806 1962.4765,-92.0817 1951.9104,-92.8617 1954.703,-99.2806"/>
</g>
<!-- Node39&#45;&gt;Node37 -->
<g id="edge57" class="edge">
<title>Node39&#45;&gt;Node37</title>
<path fill="none" stroke="#191970" d="M2000.7778,-139.9005C1997.9842,-130.0495 1993.559,-114.4451 1990.0273,-101.9912"/>
<polygon fill="#191970" stroke="#191970" points="1993.3127,-100.7474 1987.2172,-92.0817 1986.5783,-102.6572 1993.3127,-100.7474"/>
</g>
<!-- Node41 -->
<g id="node42" class="node">
<title>Node41</title>
<g id="a_node42"><a xlink:href="../../dd/d76/Cartesian3D_8h.html" target="_top" xlink:title="MathUtils/Cartesian3D.h">
<polygon fill="none" stroke="#000000" points="2647,-140 2647,-159 2782,-159 2782,-140 2647,-140"/>
<text text-anchor="middle" x="2714.5" y="-147" font-family="Helvetica,sans-Serif" font-size="10.00" fill="#000000">MathUtils/Cartesian3D.h</text>
</a>
</g>
</g>
<!-- Node40&#45;&gt;Node41 -->
<g id="edge59" class="edge">
<title>Node40&#45;&gt;Node41</title>
<path fill="none" stroke="#191970" d="M2129.2074,-260.426C2254.551,-236.6706 2531.639,-184.1562 2654.1869,-160.9307"/>
<polygon fill="#191970" stroke="#191970" points="2654.9757,-164.3436 2664.1491,-159.0426 2653.6722,-157.466 2654.9757,-164.3436"/>
</g>
<!-- Node41&#45;&gt;Node9 -->
<g id="edge65" class="edge">
<title>Node41&#45;&gt;Node9</title>
<path fill="none" stroke="#191970" d="M2646.9854,-147.0443C2378.0925,-137.245 1397.1395,-101.3082 1381.5,-98 1378.4616,-97.3573 1375.3538,-96.4989 1372.2839,-95.5145"/>
<polygon fill="#191970" stroke="#191970" points="1373.3327,-92.1718 1362.7386,-92.0502 1370.9446,-98.7518 1373.3327,-92.1718"/>
</g>
<!-- Node41&#45;&gt;Node35 -->
<g id="edge67" class="edge">
<title>Node41&#45;&gt;Node35</title>
<path fill="none" stroke="#191970" d="M2646.8152,-145.6274C2574.4221,-140.1207 2456.8758,-127.2268 2359.5,-98 2357.5903,-97.4268 2355.651,-96.76 2353.7181,-96.0313"/>
<polygon fill="#191970" stroke="#191970" points="2354.8486,-92.7088 2344.2762,-92.0188 2352.1107,-99.1512 2354.8486,-92.7088"/>
</g>
<!-- Node42 -->
<g id="node43" class="node">
<title>Node42</title>
<polygon fill="none" stroke="#bfbfbf" points="3000.5,-67.5 3000.5,-97.5 3164.5,-97.5 3164.5,-67.5 3000.5,-67.5"/>
<text text-anchor="start" x="3008.5" y="-85.5" font-family="Helvetica,sans-Serif" font-size="10.00" fill="#000000">Math/GenVector/Displacement</text>
<text text-anchor="middle" x="3082.5" y="-74.5" font-family="Helvetica,sans-Serif" font-size="10.00" fill="#000000">Vector3D.h</text>
</g>
<!-- Node41&#45;&gt;Node42 -->
<g id="edge60" class="edge">
<title>Node41&#45;&gt;Node42</title>
<path fill="none" stroke="#191970" d="M2766.8346,-139.9717C2824.8037,-129.4175 2919.3873,-112.1971 2989.9311,-99.3536"/>
<polygon fill="#191970" stroke="#191970" points="2990.9462,-102.7264 3000.1575,-97.4917 2989.6923,-95.8396 2990.9462,-102.7264"/>
</g>
<!-- Node43 -->
<g id="node44" class="node">
<title>Node43</title>
<polygon fill="none" stroke="#bfbfbf" points="3183,-73 3183,-92 3372,-92 3372,-73 3183,-73"/>
<text text-anchor="middle" x="3277.5" y="-80" font-family="Helvetica,sans-Serif" font-size="10.00" fill="#000000">Math/GenVector/PositionVector3D.h</text>
</g>
<!-- Node41&#45;&gt;Node43 -->
<g id="edge61" class="edge">
<title>Node41&#45;&gt;Node43</title>
<path fill="none" stroke="#191970" d="M2782.2541,-142.6732C2871.8887,-133.4643 3034.7506,-116.1173 3173.5,-98 3184.102,-96.6156 3195.2966,-95.0534 3206.2577,-93.4671"/>
<polygon fill="#191970" stroke="#191970" points="3206.8464,-96.9183 3216.2347,-92.008 3205.8334,-89.992 3206.8464,-96.9183"/>
</g>
<!-- Node44 -->
<g id="node45" class="node">
<title>Node44</title>
<polygon fill="none" stroke="#bfbfbf" points="3390.5,-73 3390.5,-92 3550.5,-92 3550.5,-73 3390.5,-73"/>
<text text-anchor="middle" x="3470.5" y="-80" font-family="Helvetica,sans-Serif" font-size="10.00" fill="#000000">Math/GenVector/Rotation3D.h</text>
</g>
<!-- Node41&#45;&gt;Node44 -->
<g id="edge62" class="edge">
<title>Node41&#45;&gt;Node44</title>
<path fill="none" stroke="#191970" d="M2782.411,-146.3998C2903.2509,-140.4062 3163.4068,-125.3476 3381.5,-98 3390.971,-96.8124 3400.9688,-95.3134 3410.7078,-93.7183"/>
<polygon fill="#191970" stroke="#191970" points="3411.4504,-97.1426 3420.7301,-92.0302 3410.2876,-90.2398 3411.4504,-97.1426"/>
</g>
<!-- Node45 -->
<g id="node46" class="node">
<title>Node45</title>
<polygon fill="none" stroke="#bfbfbf" points="2368.5,-73 2368.5,-92 2536.5,-92 2536.5,-73 2368.5,-73"/>
<text text-anchor="middle" x="2452.5" y="-80" font-family="Helvetica,sans-Serif" font-size="10.00" fill="#000000">Math/GenVector/Transform3D.h</text>
</g>
<!-- Node41&#45;&gt;Node45 -->
<g id="edge63" class="edge">
<title>Node41&#45;&gt;Node45</title>
<path fill="none" stroke="#191970" d="M2677.24,-139.9717C2630.6188,-128.0495 2550.7336,-107.6208 2499.8312,-94.6038"/>
<polygon fill="#191970" stroke="#191970" points="2500.611,-91.1906 2490.0556,-92.1039 2498.8767,-97.9724 2500.611,-91.1906"/>
</g>
<!-- Node46 -->
<g id="node47" class="node">
<title>Node46</title>
<polygon fill="none" stroke="#bfbfbf" points="2555,-73 2555,-92 2728,-92 2728,-73 2555,-73"/>
<text text-anchor="middle" x="2641.5" y="-80" font-family="Helvetica,sans-Serif" font-size="10.00" fill="#000000">Math/GenVector/Translation3D.h</text>
</g>
<!-- Node41&#45;&gt;Node46 -->
<g id="edge64" class="edge">
<title>Node41&#45;&gt;Node46</title>
<path fill="none" stroke="#191970" d="M2704.0409,-139.9005C2692.4403,-129.2535 2673.5171,-111.8856 2659.5195,-99.0385"/>
<polygon fill="#191970" stroke="#191970" points="2661.6737,-96.2649 2651.9397,-92.0817 2656.9404,-101.4221 2661.6737,-96.2649"/>
</g>
<!-- Node47 -->
<g id="node48" class="node">
<title>Node47</title>
<polygon fill="none" stroke="#bfbfbf" points="2746.5,-73 2746.5,-92 2828.5,-92 2828.5,-73 2746.5,-73"/>
<text text-anchor="middle" x="2787.5" y="-80" font-family="Helvetica,sans-Serif" font-size="10.00" fill="#000000">TGeoMatrix.h</text>
</g>
<!-- Node41&#45;&gt;Node47 -->
<g id="edge66" class="edge">
<title>Node41&#45;&gt;Node47</title>
<path fill="none" stroke="#191970" d="M2724.9591,-139.9005C2736.5597,-129.2535 2755.4829,-111.8856 2769.4805,-99.0385"/>
<polygon fill="#191970" stroke="#191970" points="2772.0596,-101.4221 2777.0603,-92.0817 2767.3263,-96.2649 2772.0596,-101.4221"/>
</g>
<!-- Node48 -->
<g id="node49" class="node">
<title>Node48</title>
<g id="a_node49"><a xlink:href="../../d2/dd0/Cartesian2D_8h.html" target="_top" xlink:title="MathUtils/Cartesian2D.h">
<polygon fill="none" stroke="#000000" points="2847,-73 2847,-92 2982,-92 2982,-73 2847,-73"/>
<text text-anchor="middle" x="2914.5" y="-80" font-family="Helvetica,sans-Serif" font-size="10.00" fill="#000000">MathUtils/Cartesian2D.h</text>
</a>
</g>
</g>
<!-- Node41&#45;&gt;Node48 -->
<g id="edge68" class="edge">
<title>Node41&#45;&gt;Node48</title>
<path fill="none" stroke="#191970" d="M2743.1551,-139.9005C2778.0563,-128.2086 2837.1502,-108.4122 2875.9997,-95.3976"/>
<polygon fill="#191970" stroke="#191970" points="2877.5277,-98.577 2885.898,-92.0817 2875.3041,-91.9395 2877.5277,-98.577"/>
</g>
<!-- Node49 -->
<g id="node50" class="node">
<title>Node49</title>
<polygon fill="none" stroke="#bfbfbf" points="2734.5,-.5 2734.5,-30.5 2898.5,-30.5 2898.5,-.5 2734.5,-.5"/>
<text text-anchor="start" x="2742.5" y="-18.5" font-family="Helvetica,sans-Serif" font-size="10.00" fill="#000000">Math/GenVector/Displacement</text>
<text text-anchor="middle" x="2816.5" y="-7.5" font-family="Helvetica,sans-Serif" font-size="10.00" fill="#000000">Vector2D.h</text>
</g>
<!-- Node48&#45;&gt;Node49 -->
<g id="edge69" class="edge">
<title>Node48&#45;&gt;Node49</title>
<path fill="none" stroke="#191970" d="M2900.459,-72.9005C2886.5412,-63.3853 2864.772,-48.5023 2846.888,-36.2755"/>
<polygon fill="#191970" stroke="#191970" points="2848.7026,-33.2763 2838.4721,-30.5218 2844.7519,-39.0549 2848.7026,-33.2763"/>
</g>
<!-- Node50 -->
<g id="node51" class="node">
<title>Node50</title>
<polygon fill="none" stroke="#bfbfbf" points="2917,-6 2917,-25 3106,-25 3106,-6 2917,-6"/>
<text text-anchor="middle" x="3011.5" y="-13" font-family="Helvetica,sans-Serif" font-size="10.00" fill="#000000">Math/GenVector/PositionVector2D.h</text>
</g>
<!-- Node48&#45;&gt;Node50 -->
<g id="edge70" class="edge">
<title>Node48&#45;&gt;Node50</title>
<path fill="none" stroke="#191970" d="M2928.3977,-72.9005C2944.3164,-61.9052 2970.6121,-43.7422 2989.3599,-30.7927"/>
<polygon fill="#191970" stroke="#191970" points="2991.3892,-33.6448 2997.628,-25.0817 2987.4108,-27.8852 2991.3892,-33.6448"/>
</g>
</g>
</svg>
