<?xml version="1.0" encoding="UTF-8" standalone="no"?>
<!DOCTYPE svg PUBLIC "-//W3C//DTD SVG 1.1//EN"
 "http://www.w3.org/Graphics/SVG/1.1/DTD/svg11.dtd">
<!-- Generated by graphviz version 2.40.1 (20161225.0304)
 -->
<!-- Title: /home/travis/build/AliceO2Group/AliceO2/Detectors/TOF/reconstruction/src/DataReader.cxx Pages: 1 -->
<!--zoomable 497 -->
<svg id="main" version="1.1" xmlns="http://www.w3.org/2000/svg" xmlns:xlink="http://www.w3.org/1999/xlink" xml:space="preserve" onload="init(evt)">
<style type="text/css"><![CDATA[
.edge:hover path { stroke: red; }
.edge:hover polygon { stroke: red; fill: red; }
]]></style>
<script type="text/javascript"><![CDATA[
var edges = document.getElementsByTagName('g');
if (edges && edges.length) {
  for (var i=0;i<edges.length;i++) {
    if (edges[i].id.substr(0,4)=='edge') {
      edges[i].setAttribute('class','edge');
    }
  }
}
]]></script>
        <defs>
                <circle id="rim" cx="0" cy="0" r="7"/>
                <circle id="rim2" cx="0" cy="0" r="3.5"/>
                <g id="zoomPlus">
                        <use xlink:href="#rim" fill="#404040">
                                <set attributeName="fill" to="#808080" begin="zoomplus.mouseover" end="zoomplus.mouseout"/>
                        </use>
                        <path d="M-4,0h8M0,-4v8" fill="none" stroke="white" stroke-width="1.5" pointer-events="none"/>
                </g>
                <g id="zoomMin">
                        <use xlink:href="#rim" fill="#404040">
                                <set attributeName="fill" to="#808080" begin="zoomminus.mouseover" end="zoomminus.mouseout"/>
                        </use>
                        <path d="M-4,0h8" fill="none" stroke="white" stroke-width="1.5" pointer-events="none"/>
                </g>
                <g id="dirArrow">
                        <path fill="none" stroke="white" stroke-width="1.5" d="M0,-3.0v7 M-2.5,-0.5L0,-3.0L2.5,-0.5"/>
                </g>
               <g id="resetDef">
                       <use xlink:href="#rim2" fill="#404040">
                               <set attributeName="fill" to="#808080" begin="reset.mouseover" end="reset.mouseout"/>
                       </use>
               </g>
        </defs>

<script type="text/javascript">
var viewWidth = 1629;
var viewHeight = 497;
var sectionId = 'dynsection-0';
</script>
<script xlink:href="../../svgpan.js"/>
<svg id="graph" class="graph">
<g id="viewport">
<title>/home/travis/build/AliceO2Group/AliceO2/Detectors/TOF/reconstruction/src/DataReader.cxx</title>
<!-- Node0 -->
<g id="node1" class="node">
<title>Node0</title>
<polygon fill="#bfbfbf" stroke="#000000" points="454.8201,-436.5 454.8201,-488.5 615.8201,-488.5 615.8201,-436.5 454.8201,-436.5"/>
<text text-anchor="start" x="462.8201" y="-476.5" font-family="Helvetica,sans-Serif" font-size="10.00" fill="#000000">/home/travis/build</text>
<text text-anchor="start" x="462.8201" y="-465.5" font-family="Helvetica,sans-Serif" font-size="10.00" fill="#000000">/AliceO2Group/AliceO2</text>
<text text-anchor="start" x="462.8201" y="-454.5" font-family="Helvetica,sans-Serif" font-size="10.00" fill="#000000">/Detectors/TOF/reconstruction</text>
<text text-anchor="middle" x="535.3201" y="-443.5" font-family="Helvetica,sans-Serif" font-size="10.00" fill="#000000">/src/DataReader.cxx</text>
</g>
<!-- Node1 -->
<g id="node2" class="node">
<title>Node1</title>
<g id="a_node2"><a xlink:href="../../da/d07/Detectors_2TOF_2reconstruction_2include_2TOFReconstruction_2DataReader_8h.html" target="_top" xlink:title="TOFReconstruction/DataReader.h">
<polygon fill="none" stroke="#000000" points="278.3201,-380.5 278.3201,-399.5 454.3201,-399.5 454.3201,-380.5 278.3201,-380.5"/>
<text text-anchor="middle" x="366.3201" y="-387.5" font-family="Helvetica,sans-Serif" font-size="10.00" fill="#000000">TOFReconstruction/DataReader.h</text>
</a>
</g>
</g>
<!-- Node0&#45;&gt;Node1 -->
<g id="edge1" class="edge">
<title>Node0&#45;&gt;Node1</title>
<path fill="none" stroke="#191970" d="M474.3073,-436.3258C448.3984,-425.2111 419.2896,-412.7236 397.8279,-403.5167"/>
<polygon fill="#191970" stroke="#191970" points="399.1142,-400.26 388.5442,-399.534 396.3544,-406.6931 399.1142,-400.26"/>
</g>
<!-- Node5 -->
<g id="node6" class="node">
<title>Node5</title>
<g id="a_node6"><a xlink:href="../../d4/d54/Geo_8h.html" target="_top" xlink:title="TOFBase/Geo.h">
<polygon fill="none" stroke="#000000" points="482.8201,-263 482.8201,-282 573.8201,-282 573.8201,-263 482.8201,-263"/>
<text text-anchor="middle" x="528.3201" y="-270" font-family="Helvetica,sans-Serif" font-size="10.00" fill="#000000">TOFBase/Geo.h</text>
</a>
</g>
</g>
<!-- Node0&#45;&gt;Node5 -->
<g id="edge38" class="edge">
<title>Node0&#45;&gt;Node5</title>
<path fill="none" stroke="#191970" d="M529.6964,-436.4824C527.5537,-425.3105 525.3745,-412.0733 524.3201,-400 520.9953,-361.927 523.9707,-317.2463 526.2631,-292.1675"/>
<polygon fill="#191970" stroke="#191970" points="529.7559,-292.4108 527.2433,-282.1182 522.789,-291.7312 529.7559,-292.4108"/>
</g>
<!-- Node28 -->
<g id="node29" class="node">
<title>Node28</title>
<polygon fill="none" stroke="#bfbfbf" points="533.3201,-380.5 533.3201,-399.5 597.3201,-399.5 597.3201,-380.5 533.3201,-380.5"/>
<text text-anchor="middle" x="565.3201" y="-387.5" font-family="Helvetica,sans-Serif" font-size="10.00" fill="#000000">algorithm</text>
</g>
<!-- Node0&#45;&gt;Node28 -->
<g id="edge39" class="edge">
<title>Node0&#45;&gt;Node28</title>
<path fill="none" stroke="#191970" d="M546.1508,-436.3258C549.9213,-427.2138 554.0736,-417.179 557.5468,-408.7857"/>
<polygon fill="#191970" stroke="#191970" points="560.7855,-410.1124 561.375,-399.534 554.3174,-407.4359 560.7855,-410.1124"/>
</g>
<!-- Node29 -->
<g id="node30" class="node">
<title>Node29</title>
<polygon fill="none" stroke="#bfbfbf" points="615.8201,-380.5 615.8201,-399.5 690.8201,-399.5 690.8201,-380.5 615.8201,-380.5"/>
<text text-anchor="middle" x="653.3201" y="-387.5" font-family="Helvetica,sans-Serif" font-size="10.00" fill="#000000">FairLogger.h</text>
</g>
<!-- Node0&#45;&gt;Node29 -->
<g id="edge40" class="edge">
<title>Node0&#45;&gt;Node29</title>
<path fill="none" stroke="#191970" d="M577.9208,-436.3258C595.1961,-425.7118 614.509,-413.8458 629.2638,-404.7804"/>
<polygon fill="#191970" stroke="#191970" points="631.1147,-407.7511 637.8027,-399.534 627.4502,-401.7869 631.1147,-407.7511"/>
</g>
<!-- Node2 -->
<g id="node3" class="node">
<title>Node2</title>
<g id="a_node3"><a xlink:href="../../d1/d90/Detectors_2TOF_2base_2include_2TOFBase_2Digit_8h.html" target="_top" xlink:title="TOFBase/Digit.h">
<polygon fill="none" stroke="#000000" points="273.8201,-324.5 273.8201,-343.5 368.8201,-343.5 368.8201,-324.5 273.8201,-324.5"/>
<text text-anchor="middle" x="321.3201" y="-331.5" font-family="Helvetica,sans-Serif" font-size="10.00" fill="#000000">TOFBase/Digit.h</text>
</a>
</g>
</g>
<!-- Node1&#45;&gt;Node2 -->
<g id="edge2" class="edge">
<title>Node1&#45;&gt;Node2</title>
<path fill="none" stroke="#191970" d="M358.4817,-380.2455C352.1581,-372.3761 343.0977,-361.101 335.5065,-351.6542"/>
<polygon fill="#191970" stroke="#191970" points="338.061,-349.2454 329.0687,-343.6427 332.6044,-353.6302 338.061,-349.2454"/>
</g>
<!-- Node3 -->
<g id="node4" class="node">
<title>Node3</title>
<polygon fill="none" stroke="#bfbfbf" points="465.8201,-73 465.8201,-92 514.8201,-92 514.8201,-73 465.8201,-73"/>
<text text-anchor="middle" x="490.3201" y="-80" font-family="Helvetica,sans-Serif" font-size="10.00" fill="#000000">iosfwd</text>
</g>
<!-- Node2&#45;&gt;Node3 -->
<g id="edge3" class="edge">
<title>Node2&#45;&gt;Node3</title>
<path fill="none" stroke="#191970" d="M369.0007,-325.168C392.0213,-318.5801 418.2778,-307.2598 435.3201,-288 483.3156,-233.7595 490.0533,-142.031 490.5787,-102.0767"/>
<polygon fill="#191970" stroke="#191970" points="494.0786,-102.0524 490.5889,-92.0489 487.0786,-102.0452 494.0786,-102.0524"/>
</g>
<!-- Node4 -->
<g id="node5" class="node">
<title>Node4</title>
<polygon fill="none" stroke="#bfbfbf" points="388.8201,-73 388.8201,-92 447.8201,-92 447.8201,-73 388.8201,-73"/>
<text text-anchor="middle" x="418.3201" y="-80" font-family="Helvetica,sans-Serif" font-size="10.00" fill="#000000">Rtypes.h</text>
</g>
<!-- Node2&#45;&gt;Node4 -->
<g id="edge4" class="edge">
<title>Node2&#45;&gt;Node4</title>
<path fill="none" stroke="#191970" d="M273.7193,-330.4439C189.995,-323.7026 23.5575,-307.9373 6.3201,-288 -2.6909,-277.5775 -1.2889,-268.4861 6.3201,-257 91.5664,-128.3173 292.7094,-94.2675 378.4646,-85.4722"/>
<polygon fill="#191970" stroke="#191970" points="378.9576,-88.9411 388.576,-84.4985 378.2865,-81.9733 378.9576,-88.9411"/>
</g>
<!-- Node2&#45;&gt;Node5 -->
<g id="edge5" class="edge">
<title>Node2&#45;&gt;Node5</title>
<path fill="none" stroke="#191970" d="M353.6639,-324.3906C389.4381,-313.7621 447.1948,-296.6025 486.4106,-284.9514"/>
<polygon fill="#191970" stroke="#191970" points="487.6144,-288.245 496.2035,-282.0419 485.6208,-281.5349 487.6144,-288.245"/>
</g>
<!-- Node24 -->
<g id="node25" class="node">
<title>Node24</title>
<g id="a_node25"><a xlink:href="../../de/d64/RangeReference_8h.html" target="_top" xlink:title="Class to refer to the 1st entry and N elements of some group in the continuous container. ">
<polygon fill="none" stroke="#000000" points="216.3201,-263 216.3201,-282 426.3201,-282 426.3201,-263 216.3201,-263"/>
<text text-anchor="middle" x="321.3201" y="-270" font-family="Helvetica,sans-Serif" font-size="10.00" fill="#000000">CommonDataFormat/RangeReference.h</text>
</a>
</g>
</g>
<!-- Node2&#45;&gt;Node24 -->
<g id="edge33" class="edge">
<title>Node2&#45;&gt;Node24</title>
<path fill="none" stroke="#191970" d="M321.3201,-324.3906C321.3201,-315.8657 321.3201,-303.1392 321.3201,-292.4235"/>
<polygon fill="#191970" stroke="#191970" points="324.8202,-292.2448 321.3201,-282.2449 317.8202,-292.2449 324.8202,-292.2448"/>
</g>
<!-- Node26 -->
<g id="node27" class="node">
<title>Node26</title>
<polygon fill="none" stroke="#bfbfbf" points="15.8201,-263 15.8201,-282 72.8201,-282 72.8201,-263 15.8201,-263"/>
<text text-anchor="middle" x="44.3201" y="-270" font-family="Helvetica,sans-Serif" font-size="10.00" fill="#000000">gsl/span</text>
</g>
<!-- Node2&#45;&gt;Node26 -->
<g id="edge36" class="edge">
<title>Node2&#45;&gt;Node26</title>
<path fill="none" stroke="#191970" d="M273.714,-327.8488C224.7793,-320.8379 146.7128,-307.7306 81.3201,-288 79.1532,-287.3462 76.9401,-286.6085 74.7275,-285.8189"/>
<polygon fill="#191970" stroke="#191970" points="75.7643,-282.4673 65.175,-282.1229 73.2383,-288.9956 75.7643,-282.4673"/>
</g>
<!-- Node27 -->
<g id="node28" class="node">
<title>Node27</title>
<polygon fill="none" stroke="#bfbfbf" points="90.8201,-257.5 90.8201,-287.5 197.8201,-287.5 197.8201,-257.5 90.8201,-257.5"/>
<text text-anchor="start" x="98.8201" y="-275.5" font-family="Helvetica,sans-Serif" font-size="10.00" fill="#000000">boost/serialization</text>
<text text-anchor="middle" x="144.3201" y="-264.5" font-family="Helvetica,sans-Serif" font-size="10.00" fill="#000000">/base_object.hpp</text>
</g>
<!-- Node2&#45;&gt;Node27 -->
<g id="edge37" class="edge">
<title>Node2&#45;&gt;Node27</title>
<path fill="none" stroke="#191970" d="M293.6639,-324.3906C267.9347,-315.4508 228.9074,-301.8905 197.2012,-290.8739"/>
<polygon fill="#191970" stroke="#191970" points="198.214,-287.5206 187.6192,-287.5446 195.9165,-294.1329 198.214,-287.5206"/>
</g>
<!-- Node5&#45;&gt;Node4 -->
<g id="edge6" class="edge">
<title>Node5&#45;&gt;Node4</title>
<path fill="none" stroke="#191970" d="M522.714,-262.8167C505.3589,-232.8398 452.3003,-141.1931 429.227,-101.3391"/>
<polygon fill="#191970" stroke="#191970" points="432.0863,-99.2923 424.0469,-92.3917 426.0283,-102.7996 432.0863,-99.2923"/>
</g>
<!-- Node6 -->
<g id="node7" class="node">
<title>Node6</title>
<g id="a_node7"><a xlink:href="../../d4/dc6/LHCConstants_8h.html" target="_top" xlink:title="Header to collect LHC related constants. ">
<polygon fill="none" stroke="#000000" points="533.3201,-73 533.3201,-92 723.3201,-92 723.3201,-73 533.3201,-73"/>
<text text-anchor="middle" x="628.3201" y="-80" font-family="Helvetica,sans-Serif" font-size="10.00" fill="#000000">CommonConstants/LHCConstants.h</text>
</a>
</g>
</g>
<!-- Node5&#45;&gt;Node6 -->
<g id="edge7" class="edge">
<title>Node5&#45;&gt;Node6</title>
<path fill="none" stroke="#191970" d="M531.4798,-262.6657C539.1814,-239.3645 560.288,-179.3491 587.3201,-134 594.5615,-121.8519 604.3826,-109.4143 612.5972,-99.8059"/>
<polygon fill="#191970" stroke="#191970" points="615.3334,-101.9941 619.2973,-92.1687 610.0714,-97.3777 615.3334,-101.9941"/>
</g>
<!-- Node7 -->
<g id="node8" class="node">
<title>Node7</title>
<g id="a_node8"><a xlink:href="../../d1/dec/HBFUtils_8h.html" target="_top" xlink:title="DetectorsRaw/HBFUtils.h">
<polygon fill="none" stroke="#000000" points="798.8201,-201.5 798.8201,-220.5 937.8201,-220.5 937.8201,-201.5 798.8201,-201.5"/>
<text text-anchor="middle" x="868.3201" y="-208.5" font-family="Helvetica,sans-Serif" font-size="10.00" fill="#000000">DetectorsRaw/HBFUtils.h</text>
</a>
</g>
</g>
<!-- Node5&#45;&gt;Node7 -->
<g id="edge8" class="edge">
<title>Node5&#45;&gt;Node7</title>
<path fill="none" stroke="#191970" d="M573.8213,-264.2697C633.4593,-253.4822 738.3482,-234.5096 805.5189,-222.3596"/>
<polygon fill="#191970" stroke="#191970" points="806.3367,-225.7686 815.554,-220.5445 805.0907,-218.8804 806.3367,-225.7686"/>
</g>
<!-- Node7&#45;&gt;Node4 -->
<g id="edge9" class="edge">
<title>Node7&#45;&gt;Node4</title>
<path fill="none" stroke="#191970" d="M798.5796,-205.2888C740.9023,-199.2205 657.3885,-187.3057 587.3201,-165 533.2364,-147.7829 474.675,-115.9059 442.6564,-97.2182"/>
<polygon fill="#191970" stroke="#191970" points="444.371,-94.1661 433.9803,-92.0965 440.8125,-100.1941 444.371,-94.1661"/>
</g>
<!-- Node8 -->
<g id="node9" class="node">
<title>Node8</title>
<g id="a_node9"><a xlink:href="../../db/d2c/ConfigurableParam_8h.html" target="_top" xlink:title="CommonUtils/Configurable\lParam.h">
<polygon fill="none" stroke="#000000" points="1283.3201,-67.5 1283.3201,-97.5 1431.3201,-97.5 1431.3201,-67.5 1283.3201,-67.5"/>
<text text-anchor="start" x="1291.3201" y="-85.5" font-family="Helvetica,sans-Serif" font-size="10.00" fill="#000000">CommonUtils/Configurable</text>
<text text-anchor="middle" x="1357.3201" y="-74.5" font-family="Helvetica,sans-Serif" font-size="10.00" fill="#000000">Param.h</text>
</a>
</g>
</g>
<!-- Node7&#45;&gt;Node8 -->
<g id="edge10" class="edge">
<title>Node7&#45;&gt;Node8</title>
<path fill="none" stroke="#191970" d="M937.8652,-209.837C1041.8985,-207.035 1232.155,-197.4904 1291.3201,-165 1315.3612,-151.7979 1333.835,-125.8713 1345.0431,-106.5894"/>
<polygon fill="#191970" stroke="#191970" points="1348.1608,-108.1844 1349.9541,-97.7424 1342.0405,-104.7869 1348.1608,-108.1844"/>
</g>
<!-- Node15 -->
<g id="node16" class="node">
<title>Node15</title>
<g id="a_node16"><a xlink:href="../../da/d6b/ConfigurableParamHelper_8h.html" target="_top" xlink:title="CommonUtils/Configurable\lParamHelper.h">
<polygon fill="none" stroke="#000000" points="1134.3201,-134.5 1134.3201,-164.5 1282.3201,-164.5 1282.3201,-134.5 1134.3201,-134.5"/>
<text text-anchor="start" x="1142.3201" y="-152.5" font-family="Helvetica,sans-Serif" font-size="10.00" fill="#000000">CommonUtils/Configurable</text>
<text text-anchor="middle" x="1208.3201" y="-141.5" font-family="Helvetica,sans-Serif" font-size="10.00" fill="#000000">ParamHelper.h</text>
</a>
</g>
</g>
<!-- Node7&#45;&gt;Node15 -->
<g id="edge17" class="edge">
<title>Node7&#45;&gt;Node15</title>
<path fill="none" stroke="#191970" d="M922.4904,-201.4259C972.2806,-192.5984 1048.4266,-179.0291 1123.9476,-165.2441"/>
<polygon fill="#191970" stroke="#191970" points="1124.9056,-168.627 1134.1135,-163.3864 1123.6473,-161.741 1124.9056,-168.627"/>
</g>
<!-- Node19 -->
<g id="node20" class="node">
<title>Node19</title>
<g id="a_node20"><a xlink:href="../../d9/d80/InteractionRecord_8h.html" target="_top" xlink:title="CommonDataFormat/Interaction\lRecord.h">
<polygon fill="none" stroke="#000000" points="596.3201,-134.5 596.3201,-164.5 770.3201,-164.5 770.3201,-134.5 596.3201,-134.5"/>
<text text-anchor="start" x="604.3201" y="-152.5" font-family="Helvetica,sans-Serif" font-size="10.00" fill="#000000">CommonDataFormat/Interaction</text>
<text text-anchor="middle" x="683.3201" y="-141.5" font-family="Helvetica,sans-Serif" font-size="10.00" fill="#000000">Record.h</text>
</a>
</g>
</g>
<!-- Node7&#45;&gt;Node19 -->
<g id="edge23" class="edge">
<title>Node7&#45;&gt;Node19</title>
<path fill="none" stroke="#191970" d="M839.4139,-201.3906C812.4058,-192.4123 771.3786,-178.7735 738.1632,-167.7316"/>
<polygon fill="#191970" stroke="#191970" points="739.1698,-164.378 728.5762,-164.5446 736.9615,-171.0205 739.1698,-164.378"/>
</g>
<!-- Node22 -->
<g id="node23" class="node">
<title>Node22</title>
<g id="a_node23"><a xlink:href="../../d4/d78/DataFormats_2Headers_2include_2Headers_2RAWDataHeader_8h.html" target="_top" xlink:title="Headers/RAWDataHeader.h">
<polygon fill="none" stroke="#000000" points="966.8201,-140 966.8201,-159 1115.8201,-159 1115.8201,-140 966.8201,-140"/>
<text text-anchor="middle" x="1041.3201" y="-147" font-family="Helvetica,sans-Serif" font-size="10.00" fill="#000000">Headers/RAWDataHeader.h</text>
</a>
</g>
</g>
<!-- Node7&#45;&gt;Node22 -->
<g id="edge29" class="edge">
<title>Node7&#45;&gt;Node22</title>
<path fill="none" stroke="#191970" d="M895.3514,-201.3906C924.8053,-190.92 972.089,-174.1111 1004.8229,-162.4745"/>
<polygon fill="#191970" stroke="#191970" points="1006.2287,-165.6893 1014.4787,-159.0419 1003.884,-159.0937 1006.2287,-165.6893"/>
</g>
<!-- Node23 -->
<g id="node24" class="node">
<title>Node23</title>
<g id="a_node24"><a xlink:href="../../de/da4/Triggers_8h.html" target="_top" xlink:title="Definition of the 32 Central Trigger System (CTS) Trigger Types defined in https://twiki.cern.ch/twiki/pub/ALICE/NoteForFEDevelopers/CTS_CRU_FE_interface.pdf. ">
<polygon fill="none" stroke="#000000" points="788.3201,-140 788.3201,-159 948.3201,-159 948.3201,-140 788.3201,-140"/>
<text text-anchor="middle" x="868.3201" y="-147" font-family="Helvetica,sans-Serif" font-size="10.00" fill="#000000">CommonConstants/Triggers.h</text>
</a>
</g>
</g>
<!-- Node7&#45;&gt;Node23 -->
<g id="edge31" class="edge">
<title>Node7&#45;&gt;Node23</title>
<path fill="none" stroke="#191970" d="M868.3201,-201.3906C868.3201,-192.8657 868.3201,-180.1392 868.3201,-169.4235"/>
<polygon fill="#191970" stroke="#191970" points="871.8202,-169.2448 868.3201,-159.2449 864.8202,-169.2449 871.8202,-169.2448"/>
</g>
<!-- Node9 -->
<g id="node10" class="node">
<title>Node9</title>
<polygon fill="none" stroke="#bfbfbf" points="1405.8201,-6 1405.8201,-25 1452.8201,-25 1452.8201,-6 1405.8201,-6"/>
<text text-anchor="middle" x="1429.3201" y="-13" font-family="Helvetica,sans-Serif" font-size="10.00" fill="#000000">vector</text>
</g>
<!-- Node8&#45;&gt;Node9 -->
<g id="edge11" class="edge">
<title>Node8&#45;&gt;Node9</title>
<path fill="none" stroke="#191970" d="M1373.6581,-67.2967C1384.9849,-56.7564 1400.0578,-42.7303 1411.6616,-31.9323"/>
<polygon fill="#191970" stroke="#191970" points="1414.1157,-34.4296 1419.0521,-25.055 1409.3471,-29.3051 1414.1157,-34.4296"/>
</g>
<!-- Node10 -->
<g id="node11" class="node">
<title>Node10</title>
<polygon fill="none" stroke="#bfbfbf" points="1471.3201,-6 1471.3201,-25 1509.3201,-25 1509.3201,-6 1471.3201,-6"/>
<text text-anchor="middle" x="1490.3201" y="-13" font-family="Helvetica,sans-Serif" font-size="10.00" fill="#000000">map</text>
</g>
<!-- Node8&#45;&gt;Node10 -->
<g id="edge12" class="edge">
<title>Node8&#45;&gt;Node10</title>
<path fill="none" stroke="#191970" d="M1389.2299,-67.3562C1410.147,-57.3051 1438.0175,-43.6766 1462.3201,-31 1462.9852,-30.6531 1463.658,-30.2997 1464.3358,-29.9414"/>
<polygon fill="#191970" stroke="#191970" points="1466.0813,-32.9766 1473.2159,-25.1441 1462.7541,-26.8178 1466.0813,-32.9766"/>
</g>
<!-- Node11 -->
<g id="node12" class="node">
<title>Node11</title>
<polygon fill="none" stroke="#bfbfbf" points="1527.8201,-6 1527.8201,-25 1620.8201,-25 1620.8201,-6 1527.8201,-6"/>
<text text-anchor="middle" x="1574.3201" y="-13" font-family="Helvetica,sans-Serif" font-size="10.00" fill="#000000">unordered_map</text>
</g>
<!-- Node8&#45;&gt;Node11 -->
<g id="edge13" class="edge">
<title>Node8&#45;&gt;Node11</title>
<path fill="none" stroke="#191970" d="M1406.0192,-67.4639C1444.5113,-55.5792 1497.6065,-39.1858 1533.8002,-28.0108"/>
<polygon fill="#191970" stroke="#191970" points="1535.012,-31.2997 1543.5344,-25.0053 1532.9469,-24.6113 1535.012,-31.2997"/>
</g>
<!-- Node12 -->
<g id="node13" class="node">
<title>Node12</title>
<polygon fill="none" stroke="#bfbfbf" points="1195.8201,-.5 1195.8201,-30.5 1308.8201,-30.5 1308.8201,-.5 1195.8201,-.5"/>
<text text-anchor="start" x="1203.8201" y="-18.5" font-family="Helvetica,sans-Serif" font-size="10.00" fill="#000000">boost/property_tree</text>
<text text-anchor="middle" x="1252.3201" y="-7.5" font-family="Helvetica,sans-Serif" font-size="10.00" fill="#000000">/ptree.hpp</text>
</g>
<!-- Node8&#45;&gt;Node12 -->
<g id="edge14" class="edge">
<title>Node8&#45;&gt;Node12</title>
<path fill="none" stroke="#191970" d="M1333.7561,-67.4639C1319.2674,-58.2188 1300.5029,-46.2452 1284.6385,-36.1222"/>
<polygon fill="#191970" stroke="#191970" points="1286.4816,-33.1464 1276.1688,-30.7177 1282.7161,-39.0474 1286.4816,-33.1464"/>
</g>
<!-- Node13 -->
<g id="node14" class="node">
<title>Node13</title>
<polygon fill="none" stroke="#bfbfbf" points="1120.8201,-6 1120.8201,-25 1177.8201,-25 1177.8201,-6 1120.8201,-6"/>
<text text-anchor="middle" x="1149.3201" y="-13" font-family="Helvetica,sans-Serif" font-size="10.00" fill="#000000">typeinfo</text>
</g>
<!-- Node8&#45;&gt;Node13 -->
<g id="edge15" class="edge">
<title>Node8&#45;&gt;Node13</title>
<path fill="none" stroke="#191970" d="M1302.9254,-67.4212C1269.3524,-57.7696 1225.5415,-44.5514 1187.3201,-31 1185.4063,-30.3214 1183.4476,-29.6018 1181.4777,-28.8588"/>
<polygon fill="#191970" stroke="#191970" points="1182.2796,-25.4142 1171.6918,-25.0291 1179.7285,-31.9328 1182.2796,-25.4142"/>
</g>
<!-- Node14 -->
<g id="node15" class="node">
<title>Node14</title>
<polygon fill="none" stroke="#bfbfbf" points="1327.3201,-6 1327.3201,-25 1387.3201,-25 1387.3201,-6 1327.3201,-6"/>
<text text-anchor="middle" x="1357.3201" y="-13" font-family="Helvetica,sans-Serif" font-size="10.00" fill="#000000">iostream</text>
</g>
<!-- Node8&#45;&gt;Node14 -->
<g id="edge16" class="edge">
<title>Node8&#45;&gt;Node14</title>
<path fill="none" stroke="#191970" d="M1357.3201,-67.2967C1357.3201,-57.7699 1357.3201,-45.3954 1357.3201,-35.1306"/>
<polygon fill="#191970" stroke="#191970" points="1360.8202,-35.0549 1357.3201,-25.055 1353.8202,-35.055 1360.8202,-35.0549"/>
</g>
<!-- Node15&#45;&gt;Node8 -->
<g id="edge18" class="edge">
<title>Node15&#45;&gt;Node8</title>
<path fill="none" stroke="#191970" d="M1241.7586,-134.4639C1263.2508,-124.7996 1291.3733,-112.154 1314.4943,-101.7572"/>
<polygon fill="#191970" stroke="#191970" points="1316.0508,-104.895 1323.7358,-97.6017 1313.18,-98.5107 1316.0508,-104.895"/>
</g>
<!-- Node15&#45;&gt;Node13 -->
<g id="edge21" class="edge">
<title>Node15&#45;&gt;Node13</title>
<path fill="none" stroke="#191970" d="M1201.6668,-134.389C1190.8651,-109.8564 1169.5337,-61.4088 1157.7086,-34.5517"/>
<polygon fill="#191970" stroke="#191970" points="1160.7818,-32.8459 1153.5488,-25.1042 1154.3753,-35.6667 1160.7818,-32.8459"/>
</g>
<!-- Node16 -->
<g id="node17" class="node">
<title>Node16</title>
<polygon fill="none" stroke="#bfbfbf" points="1207.8201,-73 1207.8201,-92 1264.8201,-92 1264.8201,-73 1207.8201,-73"/>
<text text-anchor="middle" x="1236.3201" y="-80" font-family="Helvetica,sans-Serif" font-size="10.00" fill="#000000">TClass.h</text>
</g>
<!-- Node15&#45;&gt;Node16 -->
<g id="edge19" class="edge">
<title>Node15&#45;&gt;Node16</title>
<path fill="none" stroke="#191970" d="M1214.6738,-134.2967C1218.7398,-124.5672 1224.0471,-111.8675 1228.3889,-101.4784"/>
<polygon fill="#191970" stroke="#191970" points="1231.7004,-102.6313 1232.327,-92.055 1225.2417,-99.9321 1231.7004,-102.6313"/>
</g>
<!-- Node17 -->
<g id="node18" class="node">
<title>Node17</title>
<polygon fill="none" stroke="#bfbfbf" points="1015.8201,-73 1015.8201,-92 1084.8201,-92 1084.8201,-73 1015.8201,-73"/>
<text text-anchor="middle" x="1050.3201" y="-80" font-family="Helvetica,sans-Serif" font-size="10.00" fill="#000000">type_traits</text>
</g>
<!-- Node15&#45;&gt;Node17 -->
<g id="edge20" class="edge">
<title>Node15&#45;&gt;Node17</title>
<path fill="none" stroke="#191970" d="M1172.8619,-134.4639C1145.7544,-122.969 1108.7002,-107.2561 1082.4546,-96.1266"/>
<polygon fill="#191970" stroke="#191970" points="1083.5411,-92.7857 1072.9682,-92.1039 1080.8082,-99.2302 1083.5411,-92.7857"/>
</g>
<!-- Node18 -->
<g id="node19" class="node">
<title>Node18</title>
<polygon fill="none" stroke="#bfbfbf" points="1103.3201,-73 1103.3201,-92 1151.3201,-92 1151.3201,-73 1103.3201,-73"/>
<text text-anchor="middle" x="1127.3201" y="-80" font-family="Helvetica,sans-Serif" font-size="10.00" fill="#000000">TFile.h</text>
</g>
<!-- Node15&#45;&gt;Node18 -->
<g id="edge22" class="edge">
<title>Node15&#45;&gt;Node18</title>
<path fill="none" stroke="#191970" d="M1189.94,-134.2967C1177.0748,-123.6551 1159.9138,-109.4602 1146.8105,-98.6217"/>
<polygon fill="#191970" stroke="#191970" points="1148.8081,-95.7318 1138.8717,-92.055 1144.3464,-101.1257 1148.8081,-95.7318"/>
</g>
<!-- Node19&#45;&gt;Node3 -->
<g id="edge25" class="edge">
<title>Node19&#45;&gt;Node3</title>
<path fill="none" stroke="#191970" d="M631.9575,-134.4989C600.5569,-124.9256 559.7522,-111.7626 524.3201,-98 522.7403,-97.3864 521.1289,-96.7366 519.5087,-96.0643"/>
<polygon fill="#191970" stroke="#191970" points="520.8602,-92.8355 510.2934,-92.0653 518.0735,-99.2569 520.8602,-92.8355"/>
</g>
<!-- Node19&#45;&gt;Node4 -->
<g id="edge24" class="edge">
<title>Node19&#45;&gt;Node4</title>
<path fill="none" stroke="#191970" d="M603.5604,-134.4585C559.927,-125.4489 505.1663,-112.862 457.3201,-98 455.0305,-97.2888 452.6851,-96.5043 450.3361,-95.6772"/>
<polygon fill="#191970" stroke="#191970" points="451.3858,-92.3331 440.7932,-92.115 448.9377,-98.8912 451.3858,-92.3331"/>
</g>
<!-- Node19&#45;&gt;Node6 -->
<g id="edge28" class="edge">
<title>Node19&#45;&gt;Node6</title>
<path fill="none" stroke="#191970" d="M670.8398,-134.2967C662.4369,-124.0605 651.3352,-110.5366 642.5829,-99.8746"/>
<polygon fill="#191970" stroke="#191970" points="645.214,-97.5635 636.1638,-92.055 639.8035,-102.005 645.214,-97.5635"/>
</g>
<!-- Node20 -->
<g id="node21" class="node">
<title>Node20</title>
<polygon fill="none" stroke="#bfbfbf" points="741.8201,-73 741.8201,-92 788.8201,-92 788.8201,-73 741.8201,-73"/>
<text text-anchor="middle" x="765.3201" y="-80" font-family="Helvetica,sans-Serif" font-size="10.00" fill="#000000">cmath</text>
</g>
<!-- Node19&#45;&gt;Node20 -->
<g id="edge26" class="edge">
<title>Node19&#45;&gt;Node20</title>
<path fill="none" stroke="#191970" d="M701.9272,-134.2967C714.9513,-123.6551 732.3241,-109.4602 745.5891,-98.6217"/>
<polygon fill="#191970" stroke="#191970" points="748.0967,-101.0926 753.626,-92.055 743.6676,-95.6719 748.0967,-101.0926"/>
</g>
<!-- Node21 -->
<g id="node22" class="node">
<title>Node21</title>
<polygon fill="none" stroke="#bfbfbf" points="843.3201,-73 843.3201,-92 893.3201,-92 893.3201,-73 843.3201,-73"/>
<text text-anchor="middle" x="868.3201" y="-80" font-family="Helvetica,sans-Serif" font-size="10.00" fill="#000000">cstdint</text>
</g>
<!-- Node19&#45;&gt;Node21 -->
<g id="edge27" class="edge">
<title>Node19&#45;&gt;Node21</title>
<path fill="none" stroke="#191970" d="M724.8377,-134.4639C757.6174,-122.5923 802.8192,-106.2219 833.6733,-95.0478"/>
<polygon fill="#191970" stroke="#191970" points="834.9423,-98.3107 843.1528,-91.6146 832.5586,-91.7291 834.9423,-98.3107"/>
</g>
<!-- Node22&#45;&gt;Node21 -->
<g id="edge30" class="edge">
<title>Node22&#45;&gt;Node21</title>
<path fill="none" stroke="#191970" d="M1016.5335,-139.9005C986.6009,-128.3082 936.0963,-108.7486 902.4846,-95.7313"/>
<polygon fill="#191970" stroke="#191970" points="903.65,-92.4294 893.0608,-92.0817 901.1219,-98.957 903.65,-92.4294"/>
</g>
<!-- Node23&#45;&gt;Node21 -->
<g id="edge32" class="edge">
<title>Node23&#45;&gt;Node21</title>
<path fill="none" stroke="#191970" d="M868.3201,-139.9005C868.3201,-130.149 868.3201,-114.7597 868.3201,-102.3695"/>
<polygon fill="#191970" stroke="#191970" points="871.8202,-102.0816 868.3201,-92.0817 864.8202,-102.0817 871.8202,-102.0816"/>
</g>
<!-- Node25 -->
<g id="node26" class="node">
<title>Node25</title>
<g id="a_node26"><a xlink:href="../../d2/d45/GPUCommonRtypes_8h.html" target="_top" xlink:title="GPUCommonRtypes.h">
<polygon fill="none" stroke="#000000" points="279.8201,-201.5 279.8201,-220.5 404.8201,-220.5 404.8201,-201.5 279.8201,-201.5"/>
<text text-anchor="middle" x="342.3201" y="-208.5" font-family="Helvetica,sans-Serif" font-size="10.00" fill="#000000">GPUCommonRtypes.h</text>
</a>
</g>
</g>
<!-- Node24&#45;&gt;Node25 -->
<g id="edge34" class="edge">
<title>Node24&#45;&gt;Node25</title>
<path fill="none" stroke="#191970" d="M324.6014,-262.8906C327.5736,-254.1862 332.0416,-241.1015 335.7472,-230.2494"/>
<polygon fill="#191970" stroke="#191970" points="339.0733,-231.3394 338.9926,-220.7449 332.4489,-229.0773 339.0733,-231.3394"/>
</g>
<!-- Node25&#45;&gt;Node4 -->
<g id="edge35" class="edge">
<title>Node25&#45;&gt;Node4</title>
<path fill="none" stroke="#191970" d="M348.0325,-201.3416C360.6315,-180.0393 390.9836,-128.7203 407.3771,-101.0025"/>
<polygon fill="#191970" stroke="#191970" points="410.4633,-102.6595 412.5415,-92.2705 404.4382,-99.096 410.4633,-102.6595"/>
</g>
</g>
</svg>
        <g id="navigator" transform="translate(0 0)" fill="#404254">
                <rect fill="#f2f5e9" fill-opacity="0.5" stroke="#606060" stroke-width=".5" x="0" y="0" width="60" height="60"/>
                <use id="zoomplus" xlink:href="#zoomPlus" x="17" y="9" onmousedown="handleZoom(evt,'in')"/>
                <use id="zoomminus" xlink:href="#zoomMin" x="42" y="9" onmousedown="handleZoom(evt,'out')"/>
                <use id="reset" xlink:href="#resetDef" x="30" y="36" onmousedown="handleReset()"/>
                <g id="arrowUp" xlink:href="#dirArrow" transform="translate(30 24)" onmousedown="handlePan(0,-1)">
                  <use xlink:href="#rim" fill="#404040">
                        <set attributeName="fill" to="#808080" begin="arrowUp.mouseover" end="arrowUp.mouseout"/>
                  </use>
                  <path fill="none" stroke="white" stroke-width="1.5" d="M0,-3.0v7 M-2.5,-0.5L0,-3.0L2.5,-0.5"/>
                </g>
                <g id="arrowRight" xlink:href="#dirArrow" transform="rotate(90) translate(36 -43)" onmousedown="handlePan(1,0)">
                  <use xlink:href="#rim" fill="#404040">
                        <set attributeName="fill" to="#808080" begin="arrowRight.mouseover" end="arrowRight.mouseout"/>
                  </use>
                  <path fill="none" stroke="white" stroke-width="1.5" d="M0,-3.0v7 M-2.5,-0.5L0,-3.0L2.5,-0.5"/>
                </g>
                <g id="arrowDown" xlink:href="#dirArrow" transform="rotate(180) translate(-30 -48)" onmousedown="handlePan(0,1)">
                  <use xlink:href="#rim" fill="#404040">
                        <set attributeName="fill" to="#808080" begin="arrowDown.mouseover" end="arrowDown.mouseout"/>
                  </use>
                  <path fill="none" stroke="white" stroke-width="1.5" d="M0,-3.0v7 M-2.5,-0.5L0,-3.0L2.5,-0.5"/>
                </g>
                <g id="arrowLeft" xlink:href="#dirArrow" transform="rotate(270) translate(-36 17)" onmousedown="handlePan(-1,0)">
                  <use xlink:href="#rim" fill="#404040">
                        <set attributeName="fill" to="#808080" begin="arrowLeft.mouseover" end="arrowLeft.mouseout"/>
                  </use>
                  <path fill="none" stroke="white" stroke-width="1.5" d="M0,-3.0v7 M-2.5,-0.5L0,-3.0L2.5,-0.5"/>
                </g>
        </g>
        <svg viewBox="0 0 15 15" width="100%" height="30px" preserveAspectRatio="xMaxYMin meet">
         <g id="arrow_out" transform="scale(0.3 0.3)">
          <a xlink:href="DataReader_8cxx__incl_org.svg" target="_base">
           <rect id="button" ry="5" rx="5" y="6" x="6" height="38" width="38"
                fill="#f2f5e9" fill-opacity="0.5" stroke="#606060" stroke-width="1.0"/>
           <path id="arrow"
             d="M 11.500037,31.436501 C 11.940474,20.09759 22.043105,11.32322 32.158766,21.979434 L 37.068811,17.246167 C 37.068811,17.246167 37.088388,32 37.088388,32 L 22.160133,31.978069 C 22.160133,31.978069 26.997745,27.140456 26.997745,27.140456 C 18.528582,18.264221 13.291696,25.230495 11.500037,31.436501 z"
             style="fill:#404040;"/>
          </a>
         </g>
        </svg>
</svg>
