<?xml version="1.0" encoding="UTF-8" standalone="no"?>
<!DOCTYPE svg PUBLIC "-//W3C//DTD SVG 1.1//EN"
 "http://www.w3.org/Graphics/SVG/1.1/DTD/svg11.dtd">
<!-- Generated by graphviz version 2.40.1 (20161225.0304)
 -->
<!-- Title: /home/travis/build/AliceO2Group/AliceO2/Detectors/FIT/FT0/reconstruction/include/FT0Reconstruction/CollisionTimeRecoTask.h Pages: 1 -->
<svg width="1072pt" height="363pt"
 viewBox="0.00 0.00 1072.44 363.00" xmlns="http://www.w3.org/2000/svg" xmlns:xlink="http://www.w3.org/1999/xlink">
<g id="graph0" class="graph" transform="scale(1 1) rotate(0) translate(4 359)">
<title>/home/travis/build/AliceO2Group/AliceO2/Detectors/FIT/FT0/reconstruction/include/FT0Reconstruction/CollisionTimeRecoTask.h</title>
<!-- Node0 -->
<g id="node1" class="node">
<title>Node0</title>
<polygon fill="#bfbfbf" stroke="#000000" points="450.9441,-291.5 450.9441,-354.5 667.9441,-354.5 667.9441,-291.5 450.9441,-291.5"/>
<text text-anchor="start" x="458.9441" y="-342.5" font-family="Helvetica,sans-Serif" font-size="10.00" fill="#000000">/home/travis/build</text>
<text text-anchor="start" x="458.9441" y="-331.5" font-family="Helvetica,sans-Serif" font-size="10.00" fill="#000000">/AliceO2Group/AliceO2</text>
<text text-anchor="start" x="458.9441" y="-320.5" font-family="Helvetica,sans-Serif" font-size="10.00" fill="#000000">/Detectors/FIT/FT0/reconstruction</text>
<text text-anchor="start" x="458.9441" y="-309.5" font-family="Helvetica,sans-Serif" font-size="10.00" fill="#000000">/include/FT0Reconstruction/CollisionTime</text>
<text text-anchor="middle" x="559.4441" y="-298.5" font-family="Helvetica,sans-Serif" font-size="10.00" fill="#000000">RecoTask.h</text>
</g>
<!-- Node1 -->
<g id="node2" class="node">
<title>Node1</title>
<polygon fill="none" stroke="#bfbfbf" points="44.9441,-235.5 44.9441,-254.5 91.9441,-254.5 91.9441,-235.5 44.9441,-235.5"/>
<text text-anchor="middle" x="68.4441" y="-242.5" font-family="Helvetica,sans-Serif" font-size="10.00" fill="#000000">vector</text>
</g>
<!-- Node0&#45;&gt;Node1 -->
<g id="edge1" class="edge">
<title>Node0&#45;&gt;Node1</title>
<path fill="none" stroke="#191970" d="M450.858,-310.0589C358.725,-298.2779 223.2812,-279.0688 106.4441,-255 104.9825,-254.6989 103.4932,-254.3763 101.9917,-254.0379"/>
<polygon fill="#191970" stroke="#191970" points="102.6096,-250.5866 92.0673,-251.64 100.9655,-257.3908 102.6096,-250.5866"/>
</g>
<!-- Node2 -->
<g id="node3" class="node">
<title>Node2</title>
<g id="a_node3"><a xlink:href="../../d0/d0a/DataFormats_2Detectors_2FIT_2FT0_2include_2DataFormatsFT0_2Digit_8h.html" target="_top" xlink:title="DataFormatsFT0/Digit.h">
<polygon fill="none" stroke="#000000" points="560.4441,-179.5 560.4441,-198.5 692.4441,-198.5 692.4441,-179.5 560.4441,-179.5"/>
<text text-anchor="middle" x="626.4441" y="-186.5" font-family="Helvetica,sans-Serif" font-size="10.00" fill="#000000">DataFormatsFT0/Digit.h</text>
</a>
</g>
</g>
<!-- Node0&#45;&gt;Node2 -->
<g id="edge2" class="edge">
<title>Node0&#45;&gt;Node2</title>
<path fill="none" stroke="#191970" d="M575.3221,-291.2439C588.3506,-265.187 606.3502,-229.1878 617.1494,-207.5893"/>
<polygon fill="#191970" stroke="#191970" points="620.3485,-209.0173 621.6902,-198.5078 614.0875,-205.8868 620.3485,-209.0173"/>
</g>
<!-- Node3 -->
<g id="node4" class="node">
<title>Node3</title>
<g id="a_node4"><a xlink:href="../../d9/d80/InteractionRecord_8h.html" target="_top" xlink:title="CommonDataFormat/Interaction\lRecord.h">
<polygon fill="none" stroke="#000000" points="204.4441,-112.5 204.4441,-142.5 378.4441,-142.5 378.4441,-112.5 204.4441,-112.5"/>
<text text-anchor="start" x="212.4441" y="-130.5" font-family="Helvetica,sans-Serif" font-size="10.00" fill="#000000">CommonDataFormat/Interaction</text>
<text text-anchor="middle" x="291.4441" y="-119.5" font-family="Helvetica,sans-Serif" font-size="10.00" fill="#000000">Record.h</text>
</a>
</g>
</g>
<!-- Node0&#45;&gt;Node3 -->
<g id="edge31" class="edge">
<title>Node0&#45;&gt;Node3</title>
<path fill="none" stroke="#191970" d="M450.8572,-297.7214C397.6838,-279.4617 338.0242,-248.9408 304.4441,-199 295.412,-185.5674 292.1679,-167.6405 291.1788,-153.0978"/>
<polygon fill="#191970" stroke="#191970" points="294.6643,-152.6334 290.8035,-142.7671 287.6689,-152.8876 294.6643,-152.6334"/>
</g>
<!-- Node11 -->
<g id="node12" class="node">
<title>Node11</title>
<g id="a_node12"><a xlink:href="../../df/d5d/common_2include_2CommonDataFormat_2TimeStamp_8h.html" target="_top" xlink:title="CommonDataFormat/TimeStamp.h">
<polygon fill="none" stroke="#000000" points="739.9441,-118 739.9441,-137 926.9441,-137 926.9441,-118 739.9441,-118"/>
<text text-anchor="middle" x="833.4441" y="-125" font-family="Helvetica,sans-Serif" font-size="10.00" fill="#000000">CommonDataFormat/TimeStamp.h</text>
</a>
</g>
</g>
<!-- Node0&#45;&gt;Node11 -->
<g id="edge32" class="edge">
<title>Node0&#45;&gt;Node11</title>
<path fill="none" stroke="#191970" d="M606.1554,-291.3813C642.482,-266.6142 694.0061,-231.0957 738.4441,-199 764.4198,-180.2388 793.8227,-157.9414 812.9463,-143.294"/>
<polygon fill="#191970" stroke="#191970" points="815.1588,-146.008 820.9602,-137.1426 810.8965,-140.4552 815.1588,-146.008"/>
</g>
<!-- Node12 -->
<g id="node13" class="node">
<title>Node12</title>
<g id="a_node13"><a xlink:href="../../dc/d44/FIT_2FT0_2include_2DataFormatsFT0_2ChannelData_8h.html" target="_top" xlink:title="DataFormatsFT0/ChannelData.h">
<polygon fill="none" stroke="#000000" points="14.4441,-118 14.4441,-137 186.4441,-137 186.4441,-118 14.4441,-118"/>
<text text-anchor="middle" x="100.4441" y="-125" font-family="Helvetica,sans-Serif" font-size="10.00" fill="#000000">DataFormatsFT0/ChannelData.h</text>
</a>
</g>
</g>
<!-- Node0&#45;&gt;Node12 -->
<g id="edge20" class="edge">
<title>Node0&#45;&gt;Node12</title>
<path fill="none" stroke="#191970" d="M450.9182,-295.3183C413.1372,-284.3834 370.8613,-270.6649 333.4441,-255 253.3677,-221.4757 165.0587,-168.3056 123.9316,-142.5149"/>
<polygon fill="#191970" stroke="#191970" points="125.7588,-139.5293 115.4338,-137.1534 122.0236,-145.4495 125.7588,-139.5293"/>
</g>
<!-- Node13 -->
<g id="node14" class="node">
<title>Node13</title>
<polygon fill="none" stroke="#bfbfbf" points="944.9441,-118 944.9441,-137 1001.9441,-137 1001.9441,-118 944.9441,-118"/>
<text text-anchor="middle" x="973.4441" y="-125" font-family="Helvetica,sans-Serif" font-size="10.00" fill="#000000">gsl/span</text>
</g>
<!-- Node0&#45;&gt;Node13 -->
<g id="edge33" class="edge">
<title>Node0&#45;&gt;Node13</title>
<path fill="none" stroke="#191970" d="M626.4204,-291.3723C717.8441,-248.2 877.8686,-172.6329 943.7822,-141.507"/>
<polygon fill="#191970" stroke="#191970" points="945.6192,-144.5102 953.1672,-137.0752 942.6301,-138.1804 945.6192,-144.5102"/>
</g>
<!-- Node14 -->
<g id="node15" class="node">
<title>Node14</title>
<polygon fill="none" stroke="#bfbfbf" points="1020.4441,-118 1020.4441,-137 1064.4441,-137 1064.4441,-118 1020.4441,-118"/>
<text text-anchor="middle" x="1042.4441" y="-125" font-family="Helvetica,sans-Serif" font-size="10.00" fill="#000000">bitset</text>
</g>
<!-- Node0&#45;&gt;Node14 -->
<g id="edge34" class="edge">
<title>Node0&#45;&gt;Node14</title>
<path fill="none" stroke="#191970" d="M643.3668,-291.4216C673.1378,-280.0921 706.8414,-267.1208 737.4441,-255 859.3757,-206.7064 890.7053,-196.4998 1010.4441,-143 1011.6171,-142.4759 1012.8108,-141.9346 1014.0142,-141.3823"/>
<polygon fill="#191970" stroke="#191970" points="1015.6866,-144.4635 1023.2437,-137.0378 1012.7053,-138.1301 1015.6866,-144.4635"/>
</g>
<!-- Node16 -->
<g id="node17" class="node">
<title>Node16</title>
<g id="a_node17"><a xlink:href="../../d4/d57/RecPoints_8h.html" target="_top" xlink:title="Definition of the FIT RecPoints class. ">
<polygon fill="none" stroke="#000000" points="401.4441,-235.5 401.4441,-254.5 557.4441,-254.5 557.4441,-235.5 401.4441,-235.5"/>
<text text-anchor="middle" x="479.4441" y="-242.5" font-family="Helvetica,sans-Serif" font-size="10.00" fill="#000000">DataFormatsFT0/RecPoints.h</text>
</a>
</g>
</g>
<!-- Node0&#45;&gt;Node16 -->
<g id="edge21" class="edge">
<title>Node0&#45;&gt;Node16</title>
<path fill="none" stroke="#191970" d="M526.905,-291.2744C516.5716,-281.1993 505.5495,-270.4527 496.7305,-261.8543"/>
<polygon fill="#191970" stroke="#191970" points="498.9373,-259.1176 489.3339,-254.6426 494.0505,-264.1296 498.9373,-259.1176"/>
</g>
<!-- Node2&#45;&gt;Node3 -->
<g id="edge3" class="edge">
<title>Node2&#45;&gt;Node3</title>
<path fill="none" stroke="#191970" d="M574.4679,-179.4581C523.5471,-170.11 444.8536,-155.6633 383.3591,-144.374"/>
<polygon fill="#191970" stroke="#191970" points="383.7242,-140.8826 373.2566,-142.5193 382.4602,-147.7675 383.7242,-140.8826"/>
</g>
<!-- Node4 -->
<g id="node5" class="node">
<title>Node4</title>
<polygon fill="none" stroke="#bfbfbf" points="471.9441,-.5 471.9441,-19.5 530.9441,-19.5 530.9441,-.5 471.9441,-.5"/>
<text text-anchor="middle" x="501.4441" y="-7.5" font-family="Helvetica,sans-Serif" font-size="10.00" fill="#000000">Rtypes.h</text>
</g>
<!-- Node2&#45;&gt;Node4 -->
<g id="edge16" class="edge">
<title>Node2&#45;&gt;Node4</title>
<path fill="none" stroke="#191970" d="M650.9153,-179.3462C666.1548,-171.9011 684.5053,-159.9799 693.4441,-143 712.4969,-106.8078 695.3033,-81.6491 663.4441,-56 644.6142,-40.8406 582.5146,-26.0718 540.903,-17.5145"/>
<polygon fill="#191970" stroke="#191970" points="541.5586,-14.0763 531.0637,-15.5277 540.1731,-20.9378 541.5586,-14.0763"/>
</g>
<!-- Node9 -->
<g id="node10" class="node">
<title>Node9</title>
<g id="a_node10"><a xlink:href="../../de/d64/RangeReference_8h.html" target="_top" xlink:title="Class to refer to the 1st entry and N elements of some group in the continuous container. ">
<polygon fill="none" stroke="#000000" points="396.4441,-118 396.4441,-137 606.4441,-137 606.4441,-118 396.4441,-118"/>
<text text-anchor="middle" x="501.4441" y="-125" font-family="Helvetica,sans-Serif" font-size="10.00" fill="#000000">CommonDataFormat/RangeReference.h</text>
</a>
</g>
</g>
<!-- Node2&#45;&gt;Node9 -->
<g id="edge9" class="edge">
<title>Node2&#45;&gt;Node9</title>
<path fill="none" stroke="#191970" d="M606.9128,-179.3906C586.2732,-169.2359 553.5165,-153.1196 529.9839,-141.5416"/>
<polygon fill="#191970" stroke="#191970" points="531.3561,-138.3161 520.8382,-137.0419 528.2658,-144.5971 531.3561,-138.3161"/>
</g>
<!-- Node2&#45;&gt;Node11 -->
<g id="edge12" class="edge">
<title>Node2&#45;&gt;Node11</title>
<path fill="none" stroke="#191970" d="M658.7878,-179.3906C694.562,-168.7621 752.3187,-151.6025 791.5346,-139.9514"/>
<polygon fill="#191970" stroke="#191970" points="792.7384,-143.245 801.3274,-137.0419 790.7447,-136.5349 792.7384,-143.245"/>
</g>
<!-- Node2&#45;&gt;Node12 -->
<g id="edge14" class="edge">
<title>Node2&#45;&gt;Node12</title>
<path fill="none" stroke="#191970" d="M560.2233,-183.0812C475.4952,-175.2447 324.2749,-160.3713 195.4441,-143 185.7557,-141.6936 175.5344,-140.1749 165.5296,-138.6091"/>
<polygon fill="#191970" stroke="#191970" points="166.0505,-135.1481 155.6248,-137.0338 164.9509,-142.0612 166.0505,-135.1481"/>
</g>
<!-- Node2&#45;&gt;Node13 -->
<g id="edge17" class="edge">
<title>Node2&#45;&gt;Node13</title>
<path fill="none" stroke="#191970" d="M692.4919,-183.7821C755.708,-177.7118 853.3213,-165.5106 935.4441,-143 937.9092,-142.3243 940.4297,-141.5336 942.9416,-140.6733"/>
<polygon fill="#191970" stroke="#191970" points="944.3174,-143.8955 952.4519,-137.1073 941.8597,-137.3411 944.3174,-143.8955"/>
</g>
<!-- Node2&#45;&gt;Node14 -->
<g id="edge18" class="edge">
<title>Node2&#45;&gt;Node14</title>
<path fill="none" stroke="#191970" d="M692.5481,-183.7391C786.1694,-175.8346 952.4552,-159.9986 1010.4441,-143 1012.1545,-142.4986 1013.8863,-141.9131 1015.6127,-141.2689"/>
<polygon fill="#191970" stroke="#191970" points="1017.4587,-144.2846 1025.2576,-137.1134 1014.6889,-137.8559 1017.4587,-144.2846"/>
</g>
<!-- Node15 -->
<g id="node16" class="node">
<title>Node15</title>
<polygon fill="none" stroke="#bfbfbf" points="624.4441,-118 624.4441,-137 684.4441,-137 684.4441,-118 624.4441,-118"/>
<text text-anchor="middle" x="654.4441" y="-125" font-family="Helvetica,sans-Serif" font-size="10.00" fill="#000000">iostream</text>
</g>
<!-- Node2&#45;&gt;Node15 -->
<g id="edge19" class="edge">
<title>Node2&#45;&gt;Node15</title>
<path fill="none" stroke="#191970" d="M630.8191,-179.3906C634.8229,-170.5965 640.8624,-157.3312 645.8326,-146.4145"/>
<polygon fill="#191970" stroke="#191970" points="649.0491,-147.7963 650.0074,-137.2449 642.6783,-144.8957 649.0491,-147.7963"/>
</g>
<!-- Node3&#45;&gt;Node4 -->
<g id="edge4" class="edge">
<title>Node3&#45;&gt;Node4</title>
<path fill="none" stroke="#191970" d="M378.0005,-112.4793C420.6425,-103.456 466.1493,-90.8495 481.4441,-76 493.9026,-63.9042 498.664,-44.3306 500.4509,-29.6342"/>
<polygon fill="#191970" stroke="#191970" points="503.9483,-29.8137 501.3158,-19.5511 496.9739,-29.2154 503.9483,-29.8137"/>
</g>
<!-- Node5 -->
<g id="node6" class="node">
<title>Node5</title>
<polygon fill="none" stroke="#bfbfbf" points="358.9441,-56.5 358.9441,-75.5 407.9441,-75.5 407.9441,-56.5 358.9441,-56.5"/>
<text text-anchor="middle" x="383.4441" y="-63.5" font-family="Helvetica,sans-Serif" font-size="10.00" fill="#000000">iosfwd</text>
</g>
<!-- Node3&#45;&gt;Node5 -->
<g id="edge5" class="edge">
<title>Node3&#45;&gt;Node5</title>
<path fill="none" stroke="#191970" d="M314.1856,-112.2977C328.2407,-102.9022 346.2271,-90.8787 360.3476,-81.4395"/>
<polygon fill="#191970" stroke="#191970" points="362.62,-84.1305 368.9884,-75.6633 358.7298,-78.311 362.62,-84.1305"/>
</g>
<!-- Node6 -->
<g id="node7" class="node">
<title>Node6</title>
<polygon fill="none" stroke="#bfbfbf" points="425.9441,-56.5 425.9441,-75.5 472.9441,-75.5 472.9441,-56.5 425.9441,-56.5"/>
<text text-anchor="middle" x="449.4441" y="-63.5" font-family="Helvetica,sans-Serif" font-size="10.00" fill="#000000">cmath</text>
</g>
<!-- Node3&#45;&gt;Node6 -->
<g id="edge6" class="edge">
<title>Node3&#45;&gt;Node6</title>
<path fill="none" stroke="#191970" d="M330.0952,-112.4554C356.5493,-102.1584 391.2547,-88.6497 416.4169,-78.8555"/>
<polygon fill="#191970" stroke="#191970" points="417.8419,-82.0567 425.8912,-75.1677 415.3027,-75.5335 417.8419,-82.0567"/>
</g>
<!-- Node7 -->
<g id="node8" class="node">
<title>Node7</title>
<polygon fill="none" stroke="#bfbfbf" points="82.4441,-56.5 82.4441,-75.5 132.4441,-75.5 132.4441,-56.5 82.4441,-56.5"/>
<text text-anchor="middle" x="107.4441" y="-63.5" font-family="Helvetica,sans-Serif" font-size="10.00" fill="#000000">cstdint</text>
</g>
<!-- Node3&#45;&gt;Node7 -->
<g id="edge7" class="edge">
<title>Node3&#45;&gt;Node7</title>
<path fill="none" stroke="#191970" d="M246.4326,-112.4554C214.3598,-101.7354 171.8723,-87.5344 142.3527,-77.6678"/>
<polygon fill="#191970" stroke="#191970" points="143.0841,-74.222 132.4903,-74.3714 140.8651,-80.861 143.0841,-74.222"/>
</g>
<!-- Node8 -->
<g id="node9" class="node">
<title>Node8</title>
<g id="a_node9"><a xlink:href="../../d4/dc6/LHCConstants_8h.html" target="_top" xlink:title="Header to collect LHC related constants. ">
<polygon fill="none" stroke="#000000" points="150.4441,-56.5 150.4441,-75.5 340.4441,-75.5 340.4441,-56.5 150.4441,-56.5"/>
<text text-anchor="middle" x="245.4441" y="-63.5" font-family="Helvetica,sans-Serif" font-size="10.00" fill="#000000">CommonConstants/LHCConstants.h</text>
</a>
</g>
</g>
<!-- Node3&#45;&gt;Node8 -->
<g id="edge8" class="edge">
<title>Node3&#45;&gt;Node8</title>
<path fill="none" stroke="#191970" d="M280.0733,-112.2977C273.688,-103.7609 265.68,-93.0545 258.9735,-84.0883"/>
<polygon fill="#191970" stroke="#191970" points="261.6016,-81.7584 252.8093,-75.8469 255.9961,-85.9511 261.6016,-81.7584"/>
</g>
<!-- Node10 -->
<g id="node11" class="node">
<title>Node10</title>
<g id="a_node11"><a xlink:href="../../d2/d45/GPUCommonRtypes_8h.html" target="_top" xlink:title="GPUCommonRtypes.h">
<polygon fill="none" stroke="#000000" points="529.9441,-56.5 529.9441,-75.5 654.9441,-75.5 654.9441,-56.5 529.9441,-56.5"/>
<text text-anchor="middle" x="592.4441" y="-63.5" font-family="Helvetica,sans-Serif" font-size="10.00" fill="#000000">GPUCommonRtypes.h</text>
</a>
</g>
</g>
<!-- Node9&#45;&gt;Node10 -->
<g id="edge10" class="edge">
<title>Node9&#45;&gt;Node10</title>
<path fill="none" stroke="#191970" d="M515.6628,-117.8906C530.0874,-108.1421 552.6417,-92.8994 569.58,-81.4521"/>
<polygon fill="#191970" stroke="#191970" points="571.9996,-84.0412 578.3252,-75.5419 568.08,-78.2415 571.9996,-84.0412"/>
</g>
<!-- Node10&#45;&gt;Node4 -->
<g id="edge11" class="edge">
<title>Node10&#45;&gt;Node4</title>
<path fill="none" stroke="#191970" d="M576.5931,-56.2455C562.6309,-47.6534 542.0713,-35.0014 525.9845,-25.1018"/>
<polygon fill="#191970" stroke="#191970" points="527.4644,-21.9029 517.1134,-19.6427 523.7957,-27.8645 527.4644,-21.9029"/>
</g>
<!-- Node11&#45;&gt;Node10 -->
<g id="edge13" class="edge">
<title>Node11&#45;&gt;Node10</title>
<path fill="none" stroke="#191970" d="M796.0522,-117.9581C754.0151,-107.2308 685.6681,-89.7895 639.8995,-78.11"/>
<polygon fill="#191970" stroke="#191970" points="640.4785,-74.6457 629.9236,-75.5643 638.7477,-81.4283 640.4785,-74.6457"/>
</g>
<!-- Node12&#45;&gt;Node4 -->
<g id="edge15" class="edge">
<title>Node12&#45;&gt;Node4</title>
<path fill="none" stroke="#191970" d="M90.9349,-117.5343C77.761,-102.5246 57.3062,-73.9653 73.4441,-56 99.159,-27.3732 360.5317,-15.0342 461.7272,-11.3042"/>
<polygon fill="#191970" stroke="#191970" points="461.9838,-14.7974 471.8516,-10.9403 461.7323,-7.8019 461.9838,-14.7974"/>
</g>
<!-- Node16&#45;&gt;Node2 -->
<g id="edge26" class="edge">
<title>Node16&#45;&gt;Node2</title>
<path fill="none" stroke="#191970" d="M504.7143,-235.3733C528.8407,-226.1822 565.3803,-212.2624 592.1318,-202.0713"/>
<polygon fill="#191970" stroke="#191970" points="593.4047,-205.3318 601.5036,-198.5011 590.9127,-198.7904 593.4047,-205.3318"/>
</g>
<!-- Node16&#45;&gt;Node3 -->
<g id="edge22" class="edge">
<title>Node16&#45;&gt;Node3</title>
<path fill="none" stroke="#191970" d="M477.0273,-235.4721C472.9233,-221.1875 463.2509,-194.2718 445.4441,-179 427.9217,-163.9721 405.8533,-153.2889 383.9396,-145.7085"/>
<polygon fill="#191970" stroke="#191970" points="384.8289,-142.3171 374.2365,-142.543 382.6579,-148.972 384.8289,-142.3171"/>
</g>
<!-- Node16&#45;&gt;Node4 -->
<g id="edge28" class="edge">
<title>Node16&#45;&gt;Node4</title>
<path fill="none" stroke="#191970" d="M400.9566,-239.8545C279.2023,-230.0412 53.7496,-203.9322 5.4441,-143 -3.1152,-132.2034 .006,-124.6592 5.4441,-112 19.7137,-78.782 31.6136,-71.1401 64.4441,-56 134.6509,-23.6233 367.6276,-13.6792 461.6168,-10.9415"/>
<polygon fill="#191970" stroke="#191970" points="461.9486,-14.4338 471.8472,-10.6563 461.7534,-7.4365 461.9486,-14.4338"/>
</g>
<!-- Node16&#45;&gt;Node9 -->
<g id="edge25" class="edge">
<title>Node16&#45;&gt;Node9</title>
<path fill="none" stroke="#191970" d="M481.2444,-235.3845C484.838,-216.1913 492.965,-172.786 497.7431,-147.2663"/>
<polygon fill="#191970" stroke="#191970" points="501.2186,-147.7217 499.6188,-137.2484 494.3382,-146.4334 501.2186,-147.7217"/>
</g>
<!-- Node16&#45;&gt;Node11 -->
<g id="edge23" class="edge">
<title>Node16&#45;&gt;Node11</title>
<path fill="none" stroke="#191970" d="M551.903,-235.4673C596.0176,-228.329 653.0146,-216.6984 701.4441,-199 741.7774,-184.2603 784.8723,-158.8758 810.4662,-142.6545"/>
<polygon fill="#191970" stroke="#191970" points="812.5445,-145.4794 819.0661,-137.1296 808.761,-139.59 812.5445,-145.4794"/>
</g>
<!-- Node16&#45;&gt;Node12 -->
<g id="edge24" class="edge">
<title>Node16&#45;&gt;Node12</title>
<path fill="none" stroke="#191970" d="M439.572,-235.4853C403.9347,-226.7524 350.4022,-213.0694 304.4441,-199 244.2738,-180.5797 175.4085,-155.6158 135.0512,-140.5825"/>
<polygon fill="#191970" stroke="#191970" points="136.2633,-137.2991 125.6708,-137.0757 133.812,-143.8559 136.2633,-137.2991"/>
</g>
<!-- Node16&#45;&gt;Node13 -->
<g id="edge30" class="edge">
<title>Node16&#45;&gt;Node13</title>
<path fill="none" stroke="#191970" d="M543.4049,-235.4883C596.047,-227.2179 672.4671,-214.1954 738.4441,-199 827.1463,-178.5707 849.3941,-172.6788 935.4441,-143 937.3637,-142.3379 939.3269,-141.6311 941.3001,-140.8978"/>
<polygon fill="#191970" stroke="#191970" points="943.0403,-143.9768 951.0952,-137.0942 940.5064,-137.4515 943.0403,-143.9768"/>
</g>
<!-- Node17 -->
<g id="node18" class="node">
<title>Node17</title>
<polygon fill="none" stroke="#bfbfbf" points="313.4441,-179.5 313.4441,-198.5 355.4441,-198.5 355.4441,-179.5 313.4441,-179.5"/>
<text text-anchor="middle" x="334.4441" y="-186.5" font-family="Helvetica,sans-Serif" font-size="10.00" fill="#000000">array</text>
</g>
<!-- Node16&#45;&gt;Node17 -->
<g id="edge27" class="edge">
<title>Node16&#45;&gt;Node17</title>
<path fill="none" stroke="#191970" d="M454.5177,-235.3733C429.8187,-225.8343 391.9309,-211.2018 365.3357,-200.9306"/>
<polygon fill="#191970" stroke="#191970" points="366.3363,-197.5651 355.7468,-197.2273 363.8143,-204.095 366.3363,-197.5651"/>
</g>
<!-- Node18 -->
<g id="node19" class="node">
<title>Node18</title>
<polygon fill="none" stroke="#bfbfbf" points="373.9441,-179.5 373.9441,-198.5 436.9441,-198.5 436.9441,-179.5 373.9441,-179.5"/>
<text text-anchor="middle" x="405.4441" y="-186.5" font-family="Helvetica,sans-Serif" font-size="10.00" fill="#000000">TObject.h</text>
</g>
<!-- Node16&#45;&gt;Node18 -->
<g id="edge29" class="edge">
<title>Node16&#45;&gt;Node18</title>
<path fill="none" stroke="#191970" d="M466.5543,-235.2455C455.5187,-226.8943 439.4149,-214.7076 426.5087,-204.9408"/>
<polygon fill="#191970" stroke="#191970" points="428.2723,-201.8862 418.1862,-198.6427 424.0482,-207.4681 428.2723,-201.8862"/>
</g>
</g>
</svg>
