<?xml version="1.0" encoding="UTF-8" standalone="no"?>
<!DOCTYPE svg PUBLIC "-//W3C//DTD SVG 1.1//EN"
 "http://www.w3.org/Graphics/SVG/1.1/DTD/svg11.dtd">
<!-- Generated by graphviz version 2.40.1 (20161225.0304)
 -->
<!-- Title: /home/travis/build/AliceO2Group/AliceO2/Detectors/TOF/calibration/include/TOFCalibration/CalibTOF.h Pages: 1 -->
<svg width="1896pt" height="396pt"
 viewBox="0.00 0.00 1896.00 396.00" xmlns="http://www.w3.org/2000/svg" xmlns:xlink="http://www.w3.org/1999/xlink">
<g id="graph0" class="graph" transform="scale(1 1) rotate(0) translate(4 392)">
<title>/home/travis/build/AliceO2Group/AliceO2/Detectors/TOF/calibration/include/TOFCalibration/CalibTOF.h</title>
<!-- Node0 -->
<g id="node1" class="node">
<title>Node0</title>
<polygon fill="#bfbfbf" stroke="#000000" points="1005,-335.5 1005,-387.5 1189,-387.5 1189,-335.5 1005,-335.5"/>
<text text-anchor="start" x="1013" y="-375.5" font-family="Helvetica,sans-Serif" font-size="10.00" fill="#000000">/home/travis/build</text>
<text text-anchor="start" x="1013" y="-364.5" font-family="Helvetica,sans-Serif" font-size="10.00" fill="#000000">/AliceO2Group/AliceO2</text>
<text text-anchor="start" x="1013" y="-353.5" font-family="Helvetica,sans-Serif" font-size="10.00" fill="#000000">/Detectors/TOF/calibration</text>
<text text-anchor="middle" x="1097" y="-342.5" font-family="Helvetica,sans-Serif" font-size="10.00" fill="#000000">/include/TOFCalibration/CalibTOF.h</text>
</g>
<!-- Node1 -->
<g id="node2" class="node">
<title>Node1</title>
<polygon fill="none" stroke="#bfbfbf" points="198.5,-6 198.5,-25 257.5,-25 257.5,-6 198.5,-6"/>
<text text-anchor="middle" x="228" y="-13" font-family="Helvetica,sans-Serif" font-size="10.00" fill="#000000">Rtypes.h</text>
</g>
<!-- Node0&#45;&gt;Node1 -->
<g id="edge1" class="edge">
<title>Node0&#45;&gt;Node1</title>
<path fill="none" stroke="#191970" d="M1004.5923,-358.0151C753.2639,-347.3147 76,-309.8223 76,-216.5 76,-216.5 76,-216.5 76,-149.5 76,-88.2118 146.3953,-48.282 191.3731,-29.0246"/>
<polygon fill="#191970" stroke="#191970" points="192.9198,-32.1726 200.8254,-25.1192 190.2467,-25.7031 192.9198,-32.1726"/>
</g>
<!-- Node2 -->
<g id="node3" class="node">
<title>Node2</title>
<polygon fill="none" stroke="#bfbfbf" points="1101,-274 1101,-293 1143,-293 1143,-274 1101,-274"/>
<text text-anchor="middle" x="1122" y="-281" font-family="Helvetica,sans-Serif" font-size="10.00" fill="#000000">array</text>
</g>
<!-- Node0&#45;&gt;Node2 -->
<g id="edge2" class="edge">
<title>Node0&#45;&gt;Node2</title>
<path fill="none" stroke="#191970" d="M1105.4639,-335.0928C1108.876,-324.447 1112.7375,-312.3989 1115.8704,-302.6242"/>
<polygon fill="#191970" stroke="#191970" points="1119.209,-303.675 1118.9282,-293.0839 1112.543,-301.5384 1119.209,-303.675"/>
</g>
<!-- Node3 -->
<g id="node4" class="node">
<title>Node3</title>
<polygon fill="none" stroke="#bfbfbf" points="71.5,-6 71.5,-25 118.5,-25 118.5,-6 71.5,-6"/>
<text text-anchor="middle" x="95" y="-13" font-family="Helvetica,sans-Serif" font-size="10.00" fill="#000000">vector</text>
</g>
<!-- Node0&#45;&gt;Node3 -->
<g id="edge3" class="edge">
<title>Node0&#45;&gt;Node3</title>
<path fill="none" stroke="#191970" d="M1004.6536,-360.1091C800.6176,-356.2642 317.0702,-342.6965 160,-299 82.9195,-277.5564 0,-296.5077 0,-216.5 0,-216.5 0,-216.5 0,-149.5 0,-99.1048 45.2698,-54.4317 73.3093,-31.5952"/>
<polygon fill="#191970" stroke="#191970" points="75.7017,-34.166 81.3888,-25.2269 71.3685,-28.6684 75.7017,-34.166"/>
</g>
<!-- Node4 -->
<g id="node5" class="node">
<title>Node4</title>
<polygon fill="none" stroke="#bfbfbf" points="777,-73 777,-92 821,-92 821,-73 777,-73"/>
<text text-anchor="middle" x="799" y="-80" font-family="Helvetica,sans-Serif" font-size="10.00" fill="#000000">string</text>
</g>
<!-- Node0&#45;&gt;Node4 -->
<g id="edge4" class="edge">
<title>Node0&#45;&gt;Node4</title>
<path fill="none" stroke="#191970" d="M1007.9016,-335.4029C985.57,-326.2007 962.6769,-314.2347 944,-299 874.1967,-242.0619 825.2556,-142.713 806.9547,-101.379"/>
<polygon fill="#191970" stroke="#191970" points="810.1564,-99.9647 802.968,-92.1815 803.7338,-102.7486 810.1564,-99.9647"/>
</g>
<!-- Node5 -->
<g id="node6" class="node">
<title>Node5</title>
<polygon fill="none" stroke="#bfbfbf" points="1161.5,-274 1161.5,-293 1244.5,-293 1244.5,-274 1161.5,-274"/>
<text text-anchor="middle" x="1203" y="-281" font-family="Helvetica,sans-Serif" font-size="10.00" fill="#000000">TStopwatch.h</text>
</g>
<!-- Node0&#45;&gt;Node5 -->
<g id="edge5" class="edge">
<title>Node0&#45;&gt;Node5</title>
<path fill="none" stroke="#191970" d="M1132.5913,-335.3101C1148.9282,-323.2887 1167.7475,-309.4405 1181.8173,-299.0873"/>
<polygon fill="#191970" stroke="#191970" points="1183.9193,-301.886 1189.8993,-293.1401 1179.7705,-296.2479 1183.9193,-301.886"/>
</g>
<!-- Node6 -->
<g id="node7" class="node">
<title>Node6</title>
<g id="a_node7"><a xlink:href="../../d4/d78/CalibInfoTOFshort_8h.html" target="_top" xlink:title="Class to store the output of the matching to TOF for calibration (no channel info, available in CalibInfoTOF.h) ">
<polygon fill="none" stroke="#000000" points="1262.5,-268.5 1262.5,-298.5 1407.5,-298.5 1407.5,-268.5 1262.5,-268.5"/>
<text text-anchor="start" x="1270.5" y="-286.5" font-family="Helvetica,sans-Serif" font-size="10.00" fill="#000000">DataFormatsTOF/CalibInfo</text>
<text text-anchor="middle" x="1335" y="-275.5" font-family="Helvetica,sans-Serif" font-size="10.00" fill="#000000">TOFshort.h</text>
</a>
</g>
</g>
<!-- Node0&#45;&gt;Node6 -->
<g id="edge6" class="edge">
<title>Node0&#45;&gt;Node6</title>
<path fill="none" stroke="#191970" d="M1176.5814,-335.4187C1210.3579,-324.3491 1248.9109,-311.7141 1279.527,-301.6802"/>
<polygon fill="#191970" stroke="#191970" points="1280.7597,-304.9595 1289.1723,-298.5192 1278.5796,-298.3076 1280.7597,-304.9595"/>
</g>
<!-- Node7 -->
<g id="node8" class="node">
<title>Node7</title>
<g id="a_node8"><a xlink:href="../../d8/de0/CalibLHCphaseTOF_8h.html" target="_top" xlink:title="Class to store the output of the matching to TOF for calibration. ">
<polygon fill="none" stroke="#000000" points="104.5,-201.5 104.5,-231.5 279.5,-231.5 279.5,-201.5 104.5,-201.5"/>
<text text-anchor="start" x="112.5" y="-219.5" font-family="Helvetica,sans-Serif" font-size="10.00" fill="#000000">DataFormatsTOF/CalibLHCphase</text>
<text text-anchor="middle" x="192" y="-208.5" font-family="Helvetica,sans-Serif" font-size="10.00" fill="#000000">TOF.h</text>
</a>
</g>
</g>
<!-- Node0&#45;&gt;Node7 -->
<g id="edge7" class="edge">
<title>Node0&#45;&gt;Node7</title>
<path fill="none" stroke="#191970" d="M1004.9966,-354.8273C893.2784,-345.907 699.3879,-327.7937 535,-299 436.2428,-281.702 323.5347,-252.7925 255.099,-234.1945"/>
<polygon fill="#191970" stroke="#191970" points="255.8989,-230.7848 245.3301,-231.5279 254.0555,-237.5378 255.8989,-230.7848"/>
</g>
<!-- Node8 -->
<g id="node9" class="node">
<title>Node8</title>
<g id="a_node9"><a xlink:href="../../d3/d81/CalibTimeSlewingParamTOF_8h.html" target="_top" xlink:title="Class to store the output of the matching to TOF for calibration. ">
<polygon fill="none" stroke="#000000" points="297.5,-201.5 297.5,-231.5 448.5,-231.5 448.5,-201.5 297.5,-201.5"/>
<text text-anchor="start" x="305.5" y="-219.5" font-family="Helvetica,sans-Serif" font-size="10.00" fill="#000000">DataFormatsTOF/CalibTime</text>
<text text-anchor="middle" x="373" y="-208.5" font-family="Helvetica,sans-Serif" font-size="10.00" fill="#000000">SlewingParamTOF.h</text>
</a>
</g>
</g>
<!-- Node0&#45;&gt;Node8 -->
<g id="edge10" class="edge">
<title>Node0&#45;&gt;Node8</title>
<path fill="none" stroke="#191970" d="M1004.6827,-352.3023C914.9865,-342.4543 775.2476,-324.6939 656,-299 575.2961,-281.611 483.9301,-253.3786 427.3842,-234.873"/>
<polygon fill="#191970" stroke="#191970" points="428.1783,-231.4498 417.5854,-231.6494 425.9908,-238.0992 428.1783,-231.4498"/>
</g>
<!-- Node9 -->
<g id="node10" class="node">
<title>Node9</title>
<g id="a_node10"><a xlink:href="../../d4/d54/Geo_8h.html" target="_top" xlink:title="TOFBase/Geo.h">
<polygon fill="none" stroke="#000000" points="953.5,-274 953.5,-293 1044.5,-293 1044.5,-274 953.5,-274"/>
<text text-anchor="middle" x="999" y="-281" font-family="Helvetica,sans-Serif" font-size="10.00" fill="#000000">TOFBase/Geo.h</text>
</a>
</g>
</g>
<!-- Node0&#45;&gt;Node9 -->
<g id="edge13" class="edge">
<title>Node0&#45;&gt;Node9</title>
<path fill="none" stroke="#191970" d="M1064.0948,-335.3101C1049.1334,-323.4021 1031.92,-309.7017 1018.9533,-299.3812"/>
<polygon fill="#191970" stroke="#191970" points="1021.1158,-296.6291 1011.1119,-293.1401 1016.7566,-302.1061 1021.1158,-296.6291"/>
</g>
<!-- Node21 -->
<g id="node22" class="node">
<title>Node21</title>
<polygon fill="none" stroke="#bfbfbf" points="1840,-73 1840,-92 1888,-92 1888,-73 1840,-73"/>
<text text-anchor="middle" x="1864" y="-80" font-family="Helvetica,sans-Serif" font-size="10.00" fill="#000000">TFile.h</text>
</g>
<!-- Node0&#45;&gt;Node21 -->
<g id="edge45" class="edge">
<title>Node0&#45;&gt;Node21</title>
<path fill="none" stroke="#191970" d="M1086.4295,-335.4143C1079.8487,-314.4481 1075.4376,-285.6735 1092,-268 1134.1802,-222.9898 1585.7901,-245.411 1646,-232 1725.673,-214.2539 1755.2685,-218.4036 1817,-165 1836.893,-147.7907 1850.2474,-119.9815 1857.4855,-101.4731"/>
<polygon fill="#191970" stroke="#191970" points="1860.789,-102.6307 1860.962,-92.0372 1854.2206,-100.2106 1860.789,-102.6307"/>
</g>
<!-- Node28 -->
<g id="node29" class="node">
<title>Node28</title>
<polygon fill="none" stroke="#bfbfbf" points="1425.5,-274 1425.5,-293 1474.5,-293 1474.5,-274 1425.5,-274"/>
<text text-anchor="middle" x="1450" y="-281" font-family="Helvetica,sans-Serif" font-size="10.00" fill="#000000">TH1F.h</text>
</g>
<!-- Node0&#45;&gt;Node28 -->
<g id="edge41" class="edge">
<title>Node0&#45;&gt;Node28</title>
<path fill="none" stroke="#191970" d="M1189.2136,-349.6434C1253.9842,-339.8348 1342.0799,-323.4954 1417,-299 1418.85,-298.3951 1420.7317,-297.7119 1422.6108,-296.978"/>
<polygon fill="#191970" stroke="#191970" points="1424.0236,-300.1804 1431.8256,-293.0124 1421.2565,-293.7505 1424.0236,-300.1804"/>
</g>
<!-- Node29 -->
<g id="node30" class="node">
<title>Node29</title>
<polygon fill="none" stroke="#bfbfbf" points="1492.5,-274 1492.5,-293 1545.5,-293 1545.5,-274 1492.5,-274"/>
<text text-anchor="middle" x="1519" y="-281" font-family="Helvetica,sans-Serif" font-size="10.00" fill="#000000">TH1D.h</text>
</g>
<!-- Node0&#45;&gt;Node29 -->
<g id="edge42" class="edge">
<title>Node0&#45;&gt;Node29</title>
<path fill="none" stroke="#191970" d="M1189.1854,-353.339C1268.5393,-344.7303 1385.4798,-328.2396 1484,-299 1486.1223,-298.3701 1488.2849,-297.6417 1490.4415,-296.8511"/>
<polygon fill="#191970" stroke="#191970" points="1491.7561,-300.0949 1499.7128,-293.0991 1489.1301,-293.6061 1491.7561,-300.0949"/>
</g>
<!-- Node30 -->
<g id="node31" class="node">
<title>Node30</title>
<polygon fill="none" stroke="#bfbfbf" points="1563.5,-274 1563.5,-293 1612.5,-293 1612.5,-274 1563.5,-274"/>
<text text-anchor="middle" x="1588" y="-281" font-family="Helvetica,sans-Serif" font-size="10.00" fill="#000000">TH2F.h</text>
</g>
<!-- Node0&#45;&gt;Node30 -->
<g id="edge43" class="edge">
<title>Node0&#45;&gt;Node30</title>
<path fill="none" stroke="#191970" d="M1189.0885,-357.1373C1282.8158,-350.8042 1431.4792,-335.5065 1555,-299 1556.9121,-298.4349 1558.8533,-297.7742 1560.7874,-297.0499"/>
<polygon fill="#191970" stroke="#191970" points="1562.3904,-300.172 1570.2325,-293.0479 1559.6594,-293.7267 1562.3904,-300.172"/>
</g>
<!-- Node31 -->
<g id="node32" class="node">
<title>Node31</title>
<polygon fill="none" stroke="#bfbfbf" points="1630.5,-274 1630.5,-293 1673.5,-293 1673.5,-274 1630.5,-274"/>
<text text-anchor="middle" x="1652" y="-281" font-family="Helvetica,sans-Serif" font-size="10.00" fill="#000000">TF1.h</text>
</g>
<!-- Node0&#45;&gt;Node31 -->
<g id="edge44" class="edge">
<title>Node0&#45;&gt;Node31</title>
<path fill="none" stroke="#191970" d="M1189.0635,-354.5219C1317.4484,-344.1106 1543.3521,-323.1298 1622,-299 1623.4712,-298.5486 1624.9561,-298.0268 1626.4365,-297.4538"/>
<polygon fill="#191970" stroke="#191970" points="1628.2897,-300.4562 1635.9459,-293.1326 1625.3938,-294.0833 1628.2897,-300.4562"/>
</g>
<!-- Node32 -->
<g id="node33" class="node">
<title>Node32</title>
<polygon fill="none" stroke="#bfbfbf" points="1691.5,-274 1691.5,-293 1780.5,-293 1780.5,-274 1691.5,-274"/>
<text text-anchor="middle" x="1736" y="-281" font-family="Helvetica,sans-Serif" font-size="10.00" fill="#000000">TGraphErrors.h</text>
</g>
<!-- Node0&#45;&gt;Node32 -->
<g id="edge46" class="edge">
<title>Node0&#45;&gt;Node32</title>
<path fill="none" stroke="#191970" d="M1189.1133,-356.764C1305.1817,-349.6345 1510.3698,-333.1654 1683,-299 1687.5126,-298.1069 1692.1957,-297.004 1696.8266,-295.8014"/>
<polygon fill="#191970" stroke="#191970" points="1698.0857,-299.0849 1706.7952,-293.0521 1696.2245,-292.3369 1698.0857,-299.0849"/>
</g>
<!-- Node33 -->
<g id="node34" class="node">
<title>Node33</title>
<g id="a_node34"><a xlink:href="../../d7/d65/CalibTOFapi_8h.html" target="_top" xlink:title="Class to use TOF calibration (decalibration, calibration) ">
<polygon fill="none" stroke="#000000" points="665,-274 665,-293 823,-293 823,-274 665,-274"/>
<text text-anchor="middle" x="744" y="-281" font-family="Helvetica,sans-Serif" font-size="10.00" fill="#000000">TOFCalibration/CalibTOFapi.h</text>
</a>
</g>
</g>
<!-- Node0&#45;&gt;Node33 -->
<g id="edge47" class="edge">
<title>Node0&#45;&gt;Node33</title>
<path fill="none" stroke="#191970" d="M1004.7145,-341.1083C938.5601,-326.4906 851.7891,-307.3174 796.9479,-295.1995"/>
<polygon fill="#191970" stroke="#191970" points="797.6112,-291.7618 787.0916,-293.0217 796.1009,-298.5969 797.6112,-291.7618"/>
</g>
<!-- Node7&#45;&gt;Node1 -->
<g id="edge9" class="edge">
<title>Node7&#45;&gt;Node1</title>
<path fill="none" stroke="#191970" d="M185.7178,-201.3799C175.1613,-173.5873 156.8094,-113.0155 176,-67 181.9239,-52.7957 193.8831,-40.5036 204.8403,-31.4942"/>
<polygon fill="#191970" stroke="#191970" points="207.13,-34.1482 212.9074,-25.2672 202.8528,-28.607 207.13,-34.1482"/>
</g>
<!-- Node7&#45;&gt;Node3 -->
<g id="edge8" class="edge">
<title>Node7&#45;&gt;Node3</title>
<path fill="none" stroke="#191970" d="M183.785,-201.2688C178.3389,-191.0659 171.1,-177.3 165,-165 141.8653,-118.3516 116.3099,-62.6147 103.4228,-34.1865"/>
<polygon fill="#191970" stroke="#191970" points="106.5853,-32.6856 99.276,-25.0159 100.2071,-35.5698 106.5853,-32.6856"/>
</g>
<!-- Node8&#45;&gt;Node1 -->
<g id="edge12" class="edge">
<title>Node8&#45;&gt;Node1</title>
<path fill="none" stroke="#191970" d="M336.6697,-201.4703C298.1671,-183.3212 239.4808,-148.7694 214,-98 203.8677,-77.8117 211.2077,-51.7134 218.5338,-34.3313"/>
<polygon fill="#191970" stroke="#191970" points="221.7274,-35.7636 222.7134,-25.2147 215.3642,-32.8463 221.7274,-35.7636"/>
</g>
<!-- Node8&#45;&gt;Node3 -->
<g id="edge11" class="edge">
<title>Node8&#45;&gt;Node3</title>
<path fill="none" stroke="#191970" d="M316.6832,-201.466C291.0817,-193.0951 261.1813,-181.0704 237,-165 207.8666,-145.6386 140.455,-68.7074 110.19,-33.3914"/>
<polygon fill="#191970" stroke="#191970" points="112.4966,-30.7027 103.3418,-25.3697 107.1728,-35.2477 112.4966,-30.7027"/>
</g>
<!-- Node9&#45;&gt;Node1 -->
<g id="edge14" class="edge">
<title>Node9&#45;&gt;Node1</title>
<path fill="none" stroke="#191970" d="M953.1266,-279.0271C850.6255,-268.0649 596.2072,-235.4553 395,-165 326.853,-141.1375 292.739,-153.8693 247,-98 232.4274,-80.1999 228.5717,-53.3271 227.7758,-35.1292"/>
<polygon fill="#191970" stroke="#191970" points="231.2745,-35.0179 227.6071,-25.0781 224.2755,-35.1355 231.2745,-35.0179"/>
</g>
<!-- Node10 -->
<g id="node11" class="node">
<title>Node10</title>
<g id="a_node11"><a xlink:href="../../d4/dc6/LHCConstants_8h.html" target="_top" xlink:title="Header to collect LHC related constants. ">
<polygon fill="none" stroke="#000000" points="915,-73 915,-92 1105,-92 1105,-73 915,-73"/>
<text text-anchor="middle" x="1010" y="-80" font-family="Helvetica,sans-Serif" font-size="10.00" fill="#000000">CommonConstants/LHCConstants.h</text>
</a>
</g>
</g>
<!-- Node9&#45;&gt;Node10 -->
<g id="edge15" class="edge">
<title>Node9&#45;&gt;Node10</title>
<path fill="none" stroke="#191970" d="M999.2013,-273.6942C999.7339,-249.7882 1001.3935,-186.6073 1005,-134 1005.7154,-123.5649 1006.8144,-111.9683 1007.8,-102.4255"/>
<polygon fill="#191970" stroke="#191970" points="1011.2933,-102.6743 1008.8753,-92.3591 1004.3329,-101.9308 1011.2933,-102.6743"/>
</g>
<!-- Node11 -->
<g id="node12" class="node">
<title>Node11</title>
<g id="a_node12"><a xlink:href="../../d1/dec/HBFUtils_8h.html" target="_top" xlink:title="DetectorsRaw/HBFUtils.h">
<polygon fill="none" stroke="#000000" points="1249.5,-207 1249.5,-226 1388.5,-226 1388.5,-207 1249.5,-207"/>
<text text-anchor="middle" x="1319" y="-214" font-family="Helvetica,sans-Serif" font-size="10.00" fill="#000000">DetectorsRaw/HBFUtils.h</text>
</a>
</g>
</g>
<!-- Node9&#45;&gt;Node11 -->
<g id="edge16" class="edge">
<title>Node9&#45;&gt;Node11</title>
<path fill="none" stroke="#191970" d="M1034.4519,-273.983C1042.5013,-271.9222 1051.028,-269.8177 1059,-268 1126.0154,-252.7199 1203.3446,-237.7377 1256.1358,-227.908"/>
<polygon fill="#191970" stroke="#191970" points="1256.8338,-231.3383 1266.0277,-226.073 1255.557,-224.4557 1256.8338,-231.3383"/>
</g>
<!-- Node11&#45;&gt;Node1 -->
<g id="edge17" class="edge">
<title>Node11&#45;&gt;Node1</title>
<path fill="none" stroke="#191970" d="M1249.3358,-213.6269C1175.0155,-208.9265 1064.3943,-196.6713 1038,-165 992.9945,-110.9965 1105.6962,-111.1217 1114,-98 1121.3677,-86.3576 1123.4555,-77.021 1114,-67 1106.6285,-59.1876 439.325,-25.8845 267.8213,-17.4483"/>
<polygon fill="#191970" stroke="#191970" points="267.8713,-13.9467 257.7116,-16.9516 267.5277,-20.9382 267.8713,-13.9467"/>
</g>
<!-- Node12 -->
<g id="node13" class="node">
<title>Node12</title>
<g id="a_node13"><a xlink:href="../../db/d2c/ConfigurableParam_8h.html" target="_top" xlink:title="CommonUtils/Configurable\lParam.h">
<polygon fill="none" stroke="#000000" points="1434,-67.5 1434,-97.5 1582,-97.5 1582,-67.5 1434,-67.5"/>
<text text-anchor="start" x="1442" y="-85.5" font-family="Helvetica,sans-Serif" font-size="10.00" fill="#000000">CommonUtils/Configurable</text>
<text text-anchor="middle" x="1508" y="-74.5" font-family="Helvetica,sans-Serif" font-size="10.00" fill="#000000">Param.h</text>
</a>
</g>
</g>
<!-- Node11&#45;&gt;Node12 -->
<g id="edge18" class="edge">
<title>Node11&#45;&gt;Node12</title>
<path fill="none" stroke="#191970" d="M1388.6844,-212.2465C1456.523,-206.4789 1552.7092,-193.4211 1576,-165 1593.2595,-143.9388 1568.4066,-119.9235 1544.0391,-103.2563"/>
<polygon fill="#191970" stroke="#191970" points="1545.7962,-100.2235 1535.5101,-97.6842 1541.9676,-106.0837 1545.7962,-100.2235"/>
</g>
<!-- Node18 -->
<g id="node19" class="node">
<title>Node18</title>
<g id="a_node19"><a xlink:href="../../da/d6b/ConfigurableParamHelper_8h.html" target="_top" xlink:title="CommonUtils/Configurable\lParamHelper.h">
<polygon fill="none" stroke="#000000" points="1660,-134.5 1660,-164.5 1808,-164.5 1808,-134.5 1660,-134.5"/>
<text text-anchor="start" x="1668" y="-152.5" font-family="Helvetica,sans-Serif" font-size="10.00" fill="#000000">CommonUtils/Configurable</text>
<text text-anchor="middle" x="1734" y="-141.5" font-family="Helvetica,sans-Serif" font-size="10.00" fill="#000000">ParamHelper.h</text>
</a>
</g>
</g>
<!-- Node11&#45;&gt;Node18 -->
<g id="edge25" class="edge">
<title>Node11&#45;&gt;Node18</title>
<path fill="none" stroke="#191970" d="M1378.0187,-206.9717C1449.051,-195.5038 1568.833,-176.1655 1649.6161,-163.1234"/>
<polygon fill="#191970" stroke="#191970" points="1650.4462,-166.5348 1659.7605,-161.4857 1649.3305,-159.6243 1650.4462,-166.5348"/>
</g>
<!-- Node22 -->
<g id="node23" class="node">
<title>Node22</title>
<g id="a_node23"><a xlink:href="../../d9/d80/InteractionRecord_8h.html" target="_top" xlink:title="CommonDataFormat/Interaction\lRecord.h">
<polygon fill="none" stroke="#000000" points="1047,-134.5 1047,-164.5 1221,-164.5 1221,-134.5 1047,-134.5"/>
<text text-anchor="start" x="1055" y="-152.5" font-family="Helvetica,sans-Serif" font-size="10.00" fill="#000000">CommonDataFormat/Interaction</text>
<text text-anchor="middle" x="1134" y="-141.5" font-family="Helvetica,sans-Serif" font-size="10.00" fill="#000000">Record.h</text>
</a>
</g>
</g>
<!-- Node11&#45;&gt;Node22 -->
<g id="edge31" class="edge">
<title>Node11&#45;&gt;Node22</title>
<path fill="none" stroke="#191970" d="M1292.494,-206.9005C1264.5487,-196.7798 1219.8355,-180.5864 1185.0148,-167.9756"/>
<polygon fill="#191970" stroke="#191970" points="1186.0722,-164.6362 1175.478,-164.5218 1183.6886,-171.2178 1186.0722,-164.6362"/>
</g>
<!-- Node26 -->
<g id="node27" class="node">
<title>Node26</title>
<g id="a_node27"><a xlink:href="../../d4/d78/DataFormats_2Headers_2include_2Headers_2RAWDataHeader_8h.html" target="_top" xlink:title="Headers/RAWDataHeader.h">
<polygon fill="none" stroke="#000000" points="1417.5,-140 1417.5,-159 1566.5,-159 1566.5,-140 1417.5,-140"/>
<text text-anchor="middle" x="1492" y="-147" font-family="Helvetica,sans-Serif" font-size="10.00" fill="#000000">Headers/RAWDataHeader.h</text>
</a>
</g>
</g>
<!-- Node11&#45;&gt;Node26 -->
<g id="edge37" class="edge">
<title>Node11&#45;&gt;Node26</title>
<path fill="none" stroke="#191970" d="M1343.7867,-206.9005C1373.7192,-195.3082 1424.2239,-175.7486 1457.8355,-162.7313"/>
<polygon fill="#191970" stroke="#191970" points="1459.1982,-165.957 1467.2593,-159.0817 1456.6702,-159.4294 1459.1982,-165.957"/>
</g>
<!-- Node27 -->
<g id="node28" class="node">
<title>Node27</title>
<g id="a_node28"><a xlink:href="../../de/da4/Triggers_8h.html" target="_top" xlink:title="Definition of the 32 Central Trigger System (CTS) Trigger Types defined in https://twiki.cern.ch/twiki/pub/ALICE/NoteForFEDevelopers/CTS_CRU_FE_interface.pdf. ">
<polygon fill="none" stroke="#000000" points="1239,-140 1239,-159 1399,-159 1399,-140 1239,-140"/>
<text text-anchor="middle" x="1319" y="-147" font-family="Helvetica,sans-Serif" font-size="10.00" fill="#000000">CommonConstants/Triggers.h</text>
</a>
</g>
</g>
<!-- Node11&#45;&gt;Node27 -->
<g id="edge39" class="edge">
<title>Node11&#45;&gt;Node27</title>
<path fill="none" stroke="#191970" d="M1319,-206.9005C1319,-197.149 1319,-181.7597 1319,-169.3695"/>
<polygon fill="#191970" stroke="#191970" points="1322.5001,-169.0816 1319,-159.0817 1315.5001,-169.0817 1322.5001,-169.0816"/>
</g>
<!-- Node12&#45;&gt;Node3 -->
<g id="edge19" class="edge">
<title>Node12&#45;&gt;Node3</title>
<path fill="none" stroke="#191970" d="M1433.849,-71.52C1419.6527,-69.7459 1404.8877,-68.1249 1391,-67 858.2831,-23.8484 720.9658,-82.5924 189,-31 168.9079,-29.0514 146.6086,-25.4378 128.7732,-22.1897"/>
<polygon fill="#191970" stroke="#191970" points="129.3108,-18.7297 118.8382,-20.3349 128.026,-25.6108 129.3108,-18.7297"/>
</g>
<!-- Node13 -->
<g id="node14" class="node">
<title>Node13</title>
<polygon fill="none" stroke="#bfbfbf" points="830,-6 830,-25 868,-25 868,-6 830,-6"/>
<text text-anchor="middle" x="849" y="-13" font-family="Helvetica,sans-Serif" font-size="10.00" fill="#000000">map</text>
</g>
<!-- Node12&#45;&gt;Node13 -->
<g id="edge20" class="edge">
<title>Node12&#45;&gt;Node13</title>
<path fill="none" stroke="#191970" d="M1433.7783,-72.2468C1419.5885,-70.4057 1404.844,-68.5742 1391,-67 1195.5101,-44.771 959.5912,-24.6424 878.2346,-17.8949"/>
<polygon fill="#191970" stroke="#191970" points="878.483,-14.4036 868.2287,-17.068 877.9064,-21.3798 878.483,-14.4036"/>
</g>
<!-- Node14 -->
<g id="node15" class="node">
<title>Node14</title>
<polygon fill="none" stroke="#bfbfbf" points="1093.5,-6 1093.5,-25 1186.5,-25 1186.5,-6 1093.5,-6"/>
<text text-anchor="middle" x="1140" y="-13" font-family="Helvetica,sans-Serif" font-size="10.00" fill="#000000">unordered_map</text>
</g>
<!-- Node12&#45;&gt;Node14 -->
<g id="edge21" class="edge">
<title>Node12&#45;&gt;Node14</title>
<path fill="none" stroke="#191970" d="M1433.9724,-69.0221C1363.844,-56.2542 1260.0512,-37.3571 1196.3976,-25.768"/>
<polygon fill="#191970" stroke="#191970" points="1197.0027,-22.3208 1186.5375,-23.9729 1195.7488,-29.2075 1197.0027,-22.3208"/>
</g>
<!-- Node15 -->
<g id="node16" class="node">
<title>Node15</title>
<polygon fill="none" stroke="#bfbfbf" points="1449.5,-.5 1449.5,-30.5 1562.5,-30.5 1562.5,-.5 1449.5,-.5"/>
<text text-anchor="start" x="1457.5" y="-18.5" font-family="Helvetica,sans-Serif" font-size="10.00" fill="#000000">boost/property_tree</text>
<text text-anchor="middle" x="1506" y="-7.5" font-family="Helvetica,sans-Serif" font-size="10.00" fill="#000000">/ptree.hpp</text>
</g>
<!-- Node12&#45;&gt;Node15 -->
<g id="edge22" class="edge">
<title>Node12&#45;&gt;Node15</title>
<path fill="none" stroke="#191970" d="M1507.5462,-67.2967C1507.3135,-59.5013 1507.0239,-49.7991 1506.7584,-40.9064"/>
<polygon fill="#191970" stroke="#191970" points="1510.2489,-40.5343 1506.452,-30.6432 1503.2521,-40.7432 1510.2489,-40.5343"/>
</g>
<!-- Node16 -->
<g id="node17" class="node">
<title>Node16</title>
<polygon fill="none" stroke="#bfbfbf" points="1721.5,-6 1721.5,-25 1778.5,-25 1778.5,-6 1721.5,-6"/>
<text text-anchor="middle" x="1750" y="-13" font-family="Helvetica,sans-Serif" font-size="10.00" fill="#000000">typeinfo</text>
</g>
<!-- Node12&#45;&gt;Node16 -->
<g id="edge23" class="edge">
<title>Node12&#45;&gt;Node16</title>
<path fill="none" stroke="#191970" d="M1562.3095,-67.4639C1607.6586,-54.9086 1671.183,-37.3212 1711.4587,-26.1705"/>
<polygon fill="#191970" stroke="#191970" points="1712.4687,-29.5227 1721.1722,-23.4812 1710.6009,-22.7764 1712.4687,-29.5227"/>
</g>
<!-- Node17 -->
<g id="node18" class="node">
<title>Node17</title>
<polygon fill="none" stroke="#bfbfbf" points="1581,-6 1581,-25 1641,-25 1641,-6 1581,-6"/>
<text text-anchor="middle" x="1611" y="-13" font-family="Helvetica,sans-Serif" font-size="10.00" fill="#000000">iostream</text>
</g>
<!-- Node12&#45;&gt;Node17 -->
<g id="edge24" class="edge">
<title>Node12&#45;&gt;Node17</title>
<path fill="none" stroke="#191970" d="M1531.1152,-67.4639C1547.9302,-56.526 1570.6163,-41.769 1587.5162,-30.7759"/>
<polygon fill="#191970" stroke="#191970" points="1589.7616,-33.4906 1596.2358,-25.1039 1585.9447,-27.6228 1589.7616,-33.4906"/>
</g>
<!-- Node18&#45;&gt;Node12 -->
<g id="edge26" class="edge">
<title>Node18&#45;&gt;Node12</title>
<path fill="none" stroke="#191970" d="M1683.2812,-134.4639C1649.3784,-124.4131 1604.5982,-111.1375 1568.7865,-100.5208"/>
<polygon fill="#191970" stroke="#191970" points="1569.5224,-97.0884 1558.94,-97.6017 1567.5327,-103.7997 1569.5224,-97.0884"/>
</g>
<!-- Node18&#45;&gt;Node16 -->
<g id="edge29" class="edge">
<title>Node18&#45;&gt;Node16</title>
<path fill="none" stroke="#191970" d="M1759.9313,-134.3533C1772.4154,-125.5052 1786.1367,-113.1011 1793,-98 1798.7007,-85.4569 1797.6965,-79.9526 1793,-67 1788.161,-53.6544 1778.1837,-41.3435 1769.0572,-32.1069"/>
<polygon fill="#191970" stroke="#191970" points="1771.376,-29.4818 1761.7225,-25.1159 1766.5464,-34.5489 1771.376,-29.4818"/>
</g>
<!-- Node19 -->
<g id="node20" class="node">
<title>Node19</title>
<polygon fill="none" stroke="#bfbfbf" points="1726.5,-73 1726.5,-92 1783.5,-92 1783.5,-73 1726.5,-73"/>
<text text-anchor="middle" x="1755" y="-80" font-family="Helvetica,sans-Serif" font-size="10.00" fill="#000000">TClass.h</text>
</g>
<!-- Node18&#45;&gt;Node19 -->
<g id="edge27" class="edge">
<title>Node18&#45;&gt;Node19</title>
<path fill="none" stroke="#191970" d="M1738.7652,-134.2967C1741.783,-124.6685 1745.7124,-112.1318 1748.9496,-101.8038"/>
<polygon fill="#191970" stroke="#191970" points="1752.354,-102.6441 1752.0052,-92.055 1745.6744,-100.5504 1752.354,-102.6441"/>
</g>
<!-- Node20 -->
<g id="node21" class="node">
<title>Node20</title>
<polygon fill="none" stroke="#bfbfbf" points="1639.5,-73 1639.5,-92 1708.5,-92 1708.5,-73 1639.5,-73"/>
<text text-anchor="middle" x="1674" y="-80" font-family="Helvetica,sans-Serif" font-size="10.00" fill="#000000">type_traits</text>
</g>
<!-- Node18&#45;&gt;Node20 -->
<g id="edge28" class="edge">
<title>Node18&#45;&gt;Node20</title>
<path fill="none" stroke="#191970" d="M1720.3851,-134.2967C1711.1276,-123.9591 1698.8673,-110.2684 1689.2765,-99.5588"/>
<polygon fill="#191970" stroke="#191970" points="1691.8353,-97.1696 1682.5567,-92.055 1686.6206,-101.8394 1691.8353,-97.1696"/>
</g>
<!-- Node18&#45;&gt;Node21 -->
<g id="edge30" class="edge">
<title>Node18&#45;&gt;Node21</title>
<path fill="none" stroke="#191970" d="M1763.1745,-134.4639C1785.0851,-123.1715 1814.8938,-107.8086 1836.4105,-96.7192"/>
<polygon fill="#191970" stroke="#191970" points="1838.0801,-99.7963 1845.3655,-92.1039 1834.8732,-93.5741 1838.0801,-99.7963"/>
</g>
<!-- Node22&#45;&gt;Node1 -->
<g id="edge32" class="edge">
<title>Node22&#45;&gt;Node1</title>
<path fill="none" stroke="#191970" d="M1142.9818,-134.2127C1152.5118,-115.7738 1164.0347,-85.0161 1147,-67 1139.3216,-58.8792 442.696,-25.5969 267.5891,-17.3536"/>
<polygon fill="#191970" stroke="#191970" points="267.6743,-13.8538 257.5209,-16.8802 267.3454,-20.8461 267.6743,-13.8538"/>
</g>
<!-- Node22&#45;&gt;Node10 -->
<g id="edge36" class="edge">
<title>Node22&#45;&gt;Node10</title>
<path fill="none" stroke="#191970" d="M1106.172,-134.4639C1085.3664,-123.2222 1057.0946,-107.9463 1036.5927,-96.8686"/>
<polygon fill="#191970" stroke="#191970" points="1038.2361,-93.7784 1027.7744,-92.1039 1034.9085,-99.9369 1038.2361,-93.7784"/>
</g>
<!-- Node23 -->
<g id="node24" class="node">
<title>Node23</title>
<polygon fill="none" stroke="#bfbfbf" points="1199.5,-73 1199.5,-92 1248.5,-92 1248.5,-73 1199.5,-73"/>
<text text-anchor="middle" x="1224" y="-80" font-family="Helvetica,sans-Serif" font-size="10.00" fill="#000000">iosfwd</text>
</g>
<!-- Node22&#45;&gt;Node23 -->
<g id="edge33" class="edge">
<title>Node22&#45;&gt;Node23</title>
<path fill="none" stroke="#191970" d="M1154.4224,-134.2967C1168.8532,-123.5537 1188.1484,-109.1895 1202.7588,-98.3129"/>
<polygon fill="#191970" stroke="#191970" points="1205.2336,-100.8339 1211.165,-92.055 1201.0536,-95.219 1205.2336,-100.8339"/>
</g>
<!-- Node24 -->
<g id="node25" class="node">
<title>Node24</title>
<polygon fill="none" stroke="#bfbfbf" points="1266.5,-73 1266.5,-92 1313.5,-92 1313.5,-73 1266.5,-73"/>
<text text-anchor="middle" x="1290" y="-80" font-family="Helvetica,sans-Serif" font-size="10.00" fill="#000000">cmath</text>
</g>
<!-- Node22&#45;&gt;Node24 -->
<g id="edge34" class="edge">
<title>Node22&#45;&gt;Node24</title>
<path fill="none" stroke="#191970" d="M1171.9562,-134.3946C1196.6262,-124.4151 1229.4023,-110.8519 1258,-98 1259.1719,-97.4734 1260.3647,-96.9299 1261.5673,-96.3759"/>
<polygon fill="#191970" stroke="#191970" points="1263.2422,-99.4557 1270.7935,-92.0241 1260.2559,-93.1246 1263.2422,-99.4557"/>
</g>
<!-- Node25 -->
<g id="node26" class="node">
<title>Node25</title>
<polygon fill="none" stroke="#bfbfbf" points="1332,-73 1332,-92 1382,-92 1382,-73 1332,-73"/>
<text text-anchor="middle" x="1357" y="-80" font-family="Helvetica,sans-Serif" font-size="10.00" fill="#000000">cstdint</text>
</g>
<!-- Node22&#45;&gt;Node25 -->
<g id="edge35" class="edge">
<title>Node22&#45;&gt;Node25</title>
<path fill="none" stroke="#191970" d="M1199.5387,-134.4166C1236.2865,-125.2714 1282.7012,-112.568 1323,-98 1324.6358,-97.4087 1326.3019,-96.7712 1327.974,-96.1037"/>
<polygon fill="#191970" stroke="#191970" points="1329.6211,-99.2063 1337.4475,-92.065 1326.876,-92.767 1329.6211,-99.2063"/>
</g>
<!-- Node26&#45;&gt;Node25 -->
<g id="edge38" class="edge">
<title>Node26&#45;&gt;Node25</title>
<path fill="none" stroke="#191970" d="M1472.6578,-139.9005C1449.8013,-128.5569 1411.573,-109.5844 1385.3666,-96.5783"/>
<polygon fill="#191970" stroke="#191970" points="1386.8198,-93.3922 1376.3063,-92.0817 1383.7079,-99.6624 1386.8198,-93.3922"/>
</g>
<!-- Node27&#45;&gt;Node25 -->
<g id="edge40" class="edge">
<title>Node27&#45;&gt;Node25</title>
<path fill="none" stroke="#191970" d="M1324.4445,-139.9005C1330.2009,-129.751 1339.4213,-113.4941 1346.5824,-100.8679"/>
<polygon fill="#191970" stroke="#191970" points="1349.6766,-102.5067 1351.5656,-92.0817 1343.5877,-99.0533 1349.6766,-102.5067"/>
</g>
<!-- Node33&#45;&gt;Node7 -->
<g id="edge65" class="edge">
<title>Node33&#45;&gt;Node7</title>
<path fill="none" stroke="#191970" d="M664.7741,-275.7081C575.9282,-266.7085 427.2921,-250.8714 289.9009,-232.2265"/>
<polygon fill="#191970" stroke="#191970" points="289.99,-228.7063 279.6085,-230.8215 289.0432,-235.6419 289.99,-228.7063"/>
</g>
<!-- Node33&#45;&gt;Node8 -->
<g id="edge66" class="edge">
<title>Node33&#45;&gt;Node8</title>
<path fill="none" stroke="#191970" d="M691.2387,-273.9717C630.6711,-263.0336 530.4561,-244.9355 458.6614,-231.9699"/>
<polygon fill="#191970" stroke="#191970" points="459.1895,-228.5087 448.7266,-230.1757 457.9454,-235.3972 459.1895,-228.5087"/>
</g>
<!-- Node33&#45;&gt;Node17 -->
<g id="edge48" class="edge">
<title>Node33&#45;&gt;Node17</title>
<path fill="none" stroke="#191970" d="M823.0431,-277.3401C996.3121,-263.8285 1394.5114,-232.7274 1398,-232 1487.299,-213.3807 1534.4763,-235.7955 1592,-165 1622.4175,-127.5647 1618.8782,-66.5138 1614.5152,-35.2758"/>
<polygon fill="#191970" stroke="#191970" points="1617.944,-34.5492 1612.9319,-25.2149 1611.0292,-35.6375 1617.944,-34.5492"/>
</g>
<!-- Node34 -->
<g id="node35" class="node">
<title>Node34</title>
<g id="a_node35"><a xlink:href="../../d5/df3/BasicCCDBManager_8h.html" target="_top" xlink:title="CCDB/BasicCCDBManager.h">
<polygon fill="none" stroke="#000000" points="668,-207 668,-226 820,-226 820,-207 668,-207"/>
<text text-anchor="middle" x="744" y="-214" font-family="Helvetica,sans-Serif" font-size="10.00" fill="#000000">CCDB/BasicCCDBManager.h</text>
</a>
</g>
</g>
<!-- Node33&#45;&gt;Node34 -->
<g id="edge49" class="edge">
<title>Node33&#45;&gt;Node34</title>
<path fill="none" stroke="#191970" d="M744,-273.9005C744,-264.149 744,-248.7597 744,-236.3695"/>
<polygon fill="#191970" stroke="#191970" points="747.5001,-236.0816 744,-226.0817 740.5001,-236.0817 747.5001,-236.0816"/>
</g>
<!-- Node34&#45;&gt;Node4 -->
<g id="edge61" class="edge">
<title>Node34&#45;&gt;Node4</title>
<path fill="none" stroke="#191970" d="M752.1163,-206.8757C760.0696,-196.976 771.9887,-180.8118 779,-165 788.1152,-144.4437 793.4694,-119.0847 796.3079,-101.9501"/>
<polygon fill="#191970" stroke="#191970" points="799.776,-102.4244 797.8241,-92.0109 792.856,-101.3687 799.776,-102.4244"/>
</g>
<!-- Node34&#45;&gt;Node13 -->
<g id="edge62" class="edge">
<title>Node34&#45;&gt;Node13</title>
<path fill="none" stroke="#191970" d="M757.1488,-206.6356C769.238,-197.0453 787.0469,-181.5394 799,-165 828.2824,-124.4822 841.2333,-65.6714 846.2504,-35.3015"/>
<polygon fill="#191970" stroke="#191970" points="849.7505,-35.5661 847.8022,-25.1519 842.8309,-34.508 849.7505,-35.5661"/>
</g>
<!-- Node34&#45;&gt;Node14 -->
<g id="edge63" class="edge">
<title>Node34&#45;&gt;Node14</title>
<path fill="none" stroke="#191970" d="M761.4012,-206.9127C777.8864,-197.405 802.8948,-181.8535 822,-165 865.0197,-127.0505 856.779,-96.4645 906,-67 935.4375,-49.3782 1024.0959,-33.0831 1083.433,-23.7216"/>
<polygon fill="#191970" stroke="#191970" points="1084.0768,-27.1636 1093.4197,-22.1675 1083.0004,-20.2468 1084.0768,-27.1636"/>
</g>
<!-- Node35 -->
<g id="node36" class="node">
<title>Node35</title>
<g id="a_node36"><a xlink:href="../../dd/d3e/CcdbApi_8h.html" target="_top" xlink:title="CCDB/CcdbApi.h">
<polygon fill="none" stroke="#000000" points="489,-140 489,-159 585,-159 585,-140 489,-140"/>
<text text-anchor="middle" x="537" y="-147" font-family="Helvetica,sans-Serif" font-size="10.00" fill="#000000">CCDB/CcdbApi.h</text>
</a>
</g>
</g>
<!-- Node34&#45;&gt;Node35 -->
<g id="edge50" class="edge">
<title>Node34&#45;&gt;Node35</title>
<path fill="none" stroke="#191970" d="M714.3419,-206.9005C678.0655,-195.1589 616.5361,-175.2436 576.3356,-162.2318"/>
<polygon fill="#191970" stroke="#191970" points="577.1949,-158.8312 566.603,-159.0817 575.0393,-165.4911 577.1949,-158.8312"/>
</g>
<!-- Node36 -->
<g id="node37" class="node">
<title>Node36</title>
<polygon fill="none" stroke="#bfbfbf" points="256,-73 256,-92 314,-92 314,-73 256,-73"/>
<text text-anchor="middle" x="285" y="-80" font-family="Helvetica,sans-Serif" font-size="10.00" fill="#000000">memory</text>
</g>
<!-- Node34&#45;&gt;Node36 -->
<g id="edge64" class="edge">
<title>Node34&#45;&gt;Node36</title>
<path fill="none" stroke="#191970" d="M674.3876,-206.9628C620.59,-198.6272 544.6458,-184.746 480,-165 418.6831,-146.2708 350.4028,-114.7677 313.1094,-96.5901"/>
<polygon fill="#191970" stroke="#191970" points="314.3995,-93.3243 303.881,-92.0548 311.312,-99.6067 314.3995,-93.3243"/>
</g>
<!-- Node42 -->
<g id="node43" class="node">
<title>Node42</title>
<g id="a_node43"><a xlink:href="../../da/d86/CCDBTimeStampUtils_8h.html" target="_top" xlink:title="CCDB/CCDBTimeStampUtils.h">
<polygon fill="none" stroke="#000000" points="607.5,-140 607.5,-159 770.5,-159 770.5,-140 607.5,-140"/>
<text text-anchor="middle" x="689" y="-147" font-family="Helvetica,sans-Serif" font-size="10.00" fill="#000000">CCDB/CCDBTimeStampUtils.h</text>
</a>
</g>
</g>
<!-- Node34&#45;&gt;Node42 -->
<g id="edge60" class="edge">
<title>Node34&#45;&gt;Node42</title>
<path fill="none" stroke="#191970" d="M736.1198,-206.9005C727.6248,-196.552 713.9176,-179.8542 703.472,-167.1295"/>
<polygon fill="#191970" stroke="#191970" points="705.9158,-164.5902 696.8655,-159.0817 700.5053,-169.0317 705.9158,-164.5902"/>
</g>
<!-- Node35&#45;&gt;Node4 -->
<g id="edge51" class="edge">
<title>Node35&#45;&gt;Node4</title>
<path fill="none" stroke="#191970" d="M573.7232,-139.9536C581.7135,-137.9366 590.1305,-135.8577 598,-134 671.0506,-116.7551 691.5351,-120.9466 763,-98 765.1056,-97.3239 767.2569,-96.5697 769.4082,-95.768"/>
<polygon fill="#191970" stroke="#191970" points="770.7184,-99.0136 778.6991,-92.0452 768.1147,-92.5158 770.7184,-99.0136"/>
</g>
<!-- Node35&#45;&gt;Node13 -->
<g id="edge53" class="edge">
<title>Node35&#45;&gt;Node13</title>
<path fill="none" stroke="#191970" d="M574.0965,-139.964C627.9036,-126.0726 721.9887,-101.5336 729,-98 748.7728,-88.0347 749.9658,-79.8467 768,-67 786.2668,-53.9876 807.7144,-40.4231 823.9496,-30.4835"/>
<polygon fill="#191970" stroke="#191970" points="826.1129,-33.2646 832.8428,-25.0817 822.4789,-27.2818 826.1129,-33.2646"/>
</g>
<!-- Node35&#45;&gt;Node36 -->
<g id="edge52" class="edge">
<title>Node35&#45;&gt;Node36</title>
<path fill="none" stroke="#191970" d="M488.8296,-140.0838C445.0768,-131.0196 379.0125,-116.0492 323,-98 320.8511,-97.3075 318.652,-96.549 316.448,-95.7514"/>
<polygon fill="#191970" stroke="#191970" points="317.4849,-92.4006 306.8946,-92.0879 314.9784,-98.9365 317.4849,-92.4006"/>
</g>
<!-- Node37 -->
<g id="node38" class="node">
<title>Node37</title>
<polygon fill="none" stroke="#bfbfbf" points="332.5,-73 332.5,-92 397.5,-92 397.5,-73 332.5,-73"/>
<text text-anchor="middle" x="365" y="-80" font-family="Helvetica,sans-Serif" font-size="10.00" fill="#000000">curl/curl.h</text>
</g>
<!-- Node35&#45;&gt;Node37 -->
<g id="edge54" class="edge">
<title>Node35&#45;&gt;Node37</title>
<path fill="none" stroke="#191970" d="M512.3566,-139.9005C482.5971,-128.3082 432.3844,-108.7486 398.967,-95.7313"/>
<polygon fill="#191970" stroke="#191970" points="400.1861,-92.4501 389.5977,-92.0817 397.6453,-98.9727 400.1861,-92.4501"/>
</g>
<!-- Node38 -->
<g id="node39" class="node">
<title>Node38</title>
<polygon fill="none" stroke="#bfbfbf" points="415.5,-73 415.5,-92 478.5,-92 478.5,-73 415.5,-73"/>
<text text-anchor="middle" x="447" y="-80" font-family="Helvetica,sans-Serif" font-size="10.00" fill="#000000">TObject.h</text>
</g>
<!-- Node35&#45;&gt;Node38 -->
<g id="edge55" class="edge">
<title>Node35&#45;&gt;Node38</title>
<path fill="none" stroke="#191970" d="M524.1052,-139.9005C509.5358,-129.0544 485.5978,-111.2339 468.2546,-98.3229"/>
<polygon fill="#191970" stroke="#191970" points="469.9823,-95.2457 459.8709,-92.0817 465.8022,-100.8606 469.9823,-95.2457"/>
</g>
<!-- Node39 -->
<g id="node40" class="node">
<title>Node39</title>
<polygon fill="none" stroke="#bfbfbf" points="497,-73 497,-92 571,-92 571,-73 497,-73"/>
<text text-anchor="middle" x="534" y="-80" font-family="Helvetica,sans-Serif" font-size="10.00" fill="#000000">TMessage.h</text>
</g>
<!-- Node35&#45;&gt;Node39 -->
<g id="edge56" class="edge">
<title>Node35&#45;&gt;Node39</title>
<path fill="none" stroke="#191970" d="M536.5702,-139.9005C536.1335,-130.149 535.4445,-114.7597 534.8897,-102.3695"/>
<polygon fill="#191970" stroke="#191970" points="538.3729,-101.9151 534.429,-92.0817 531.3799,-102.2282 538.3729,-101.9151"/>
</g>
<!-- Node40 -->
<g id="node41" class="node">
<title>Node40</title>
<g id="a_node41"><a xlink:href="../../d4/dab/CcdbObjectInfo_8h.html" target="_top" xlink:title="CCDB/CcdbObjectInfo.h">
<polygon fill="none" stroke="#000000" points="589.5,-73 589.5,-92 720.5,-92 720.5,-73 589.5,-73"/>
<text text-anchor="middle" x="655" y="-80" font-family="Helvetica,sans-Serif" font-size="10.00" fill="#000000">CCDB/CcdbObjectInfo.h</text>
</a>
</g>
</g>
<!-- Node35&#45;&gt;Node40 -->
<g id="edge57" class="edge">
<title>Node35&#45;&gt;Node40</title>
<path fill="none" stroke="#191970" d="M553.9065,-139.9005C573.622,-128.7062 606.4222,-110.0823 629.2959,-97.0947"/>
<polygon fill="#191970" stroke="#191970" points="631.157,-100.0629 638.1248,-92.0817 627.7007,-93.9757 631.157,-100.0629"/>
</g>
<!-- Node40&#45;&gt;Node1 -->
<g id="edge58" class="edge">
<title>Node40&#45;&gt;Node1</title>
<path fill="none" stroke="#191970" d="M611.0619,-72.9709C600.8848,-70.8885 590.0824,-68.7778 580,-67 467.3609,-47.1382 333.4838,-29.0621 268.0407,-20.582"/>
<polygon fill="#191970" stroke="#191970" points="268.1284,-17.0644 257.7628,-19.2563 267.2328,-24.0069 268.1284,-17.0644"/>
</g>
<!-- Node41 -->
<g id="node42" class="node">
<title>Node41</title>
<g id="a_node42"><a xlink:href="../../dd/da4/Logger_8h.html" target="_top" xlink:title="Framework/Logger.h">
<polygon fill="none" stroke="#000000" points="597.5,-6 597.5,-25 712.5,-25 712.5,-6 597.5,-6"/>
<text text-anchor="middle" x="655" y="-13" font-family="Helvetica,sans-Serif" font-size="10.00" fill="#000000">Framework/Logger.h</text>
</a>
</g>
</g>
<!-- Node40&#45;&gt;Node41 -->
<g id="edge59" class="edge">
<title>Node40&#45;&gt;Node41</title>
<path fill="none" stroke="#191970" d="M655,-72.9005C655,-63.149 655,-47.7597 655,-35.3695"/>
<polygon fill="#191970" stroke="#191970" points="658.5001,-35.0816 655,-25.0817 651.5001,-35.0817 658.5001,-35.0816"/>
</g>
</g>
</svg>
