<?xml version="1.0" encoding="UTF-8" standalone="no"?>
<!DOCTYPE svg PUBLIC "-//W3C//DTD SVG 1.1//EN"
 "http://www.w3.org/Graphics/SVG/1.1/DTD/svg11.dtd">
<!-- Generated by graphviz version 2.40.1 (20161225.0304)
 -->
<!-- Title: /home/travis/build/AliceO2Group/AliceO2/Detectors/Base/include/DetectorsBase/Ray.h Pages: 1 -->
<svg width="2569pt" height="307pt"
 viewBox="0.00 0.00 2568.50 307.00" xmlns="http://www.w3.org/2000/svg" xmlns:xlink="http://www.w3.org/1999/xlink">
<g id="graph0" class="graph" transform="scale(1 1) rotate(0) translate(4 303)">
<title>/home/travis/build/AliceO2Group/AliceO2/Detectors/Base/include/DetectorsBase/Ray.h</title>
<!-- Node0 -->
<g id="node1" class="node">
<title>Node0</title>
<polygon fill="#bfbfbf" stroke="#000000" points="1896.5,-246.5 1896.5,-298.5 2028.5,-298.5 2028.5,-246.5 1896.5,-246.5"/>
<text text-anchor="start" x="1904.5" y="-286.5" font-family="Helvetica,sans-Serif" font-size="10.00" fill="#000000">/home/travis/build</text>
<text text-anchor="start" x="1904.5" y="-275.5" font-family="Helvetica,sans-Serif" font-size="10.00" fill="#000000">/AliceO2Group/AliceO2</text>
<text text-anchor="start" x="1904.5" y="-264.5" font-family="Helvetica,sans-Serif" font-size="10.00" fill="#000000">/Detectors/Base/include</text>
<text text-anchor="middle" x="1962.5" y="-253.5" font-family="Helvetica,sans-Serif" font-size="10.00" fill="#000000">/DetectorsBase/Ray.h</text>
</g>
<!-- Node1 -->
<g id="node2" class="node">
<title>Node1</title>
<g id="a_node2"><a xlink:href="../../d2/d45/GPUCommonRtypes_8h.html" target="_top" xlink:title="GPUCommonRtypes.h">
<polygon fill="none" stroke="#000000" points="1429,-62 1429,-81 1554,-81 1554,-62 1429,-62"/>
<text text-anchor="middle" x="1491.5" y="-69" font-family="Helvetica,sans-Serif" font-size="10.00" fill="#000000">GPUCommonRtypes.h</text>
</a>
</g>
</g>
<!-- Node0&#45;&gt;Node1 -->
<g id="edge1" class="edge">
<title>Node0&#45;&gt;Node1</title>
<path fill="none" stroke="#191970" d="M1896.3666,-260.2434C1818.5803,-243.9371 1687.2885,-210.4033 1586.5,-154 1554.9505,-136.3443 1524.4872,-107.0345 1506.8927,-88.5194"/>
<polygon fill="#191970" stroke="#191970" points="1509.3421,-86.0139 1499.9653,-81.0816 1504.2197,-90.7848 1509.3421,-86.0139"/>
</g>
<!-- Node3 -->
<g id="node4" class="node">
<title>Node3</title>
<g id="a_node4"><a xlink:href="../../df/d21/GPUCommonDef_8h.html" target="_top" xlink:title="GPUCommonDef.h">
<polygon fill="none" stroke="#000000" points="2066,-62 2066,-81 2173,-81 2173,-62 2066,-62"/>
<text text-anchor="middle" x="2119.5" y="-69" font-family="Helvetica,sans-Serif" font-size="10.00" fill="#000000">GPUCommonDef.h</text>
</a>
</g>
</g>
<!-- Node0&#45;&gt;Node3 -->
<g id="edge3" class="edge">
<title>Node0&#45;&gt;Node3</title>
<path fill="none" stroke="#191970" d="M1977.5922,-246.2489C2001.4894,-204.7715 2045.8261,-128.2141 2050.5,-123 2063.1862,-108.8475 2080.2918,-96.0491 2094.2974,-86.7509"/>
<polygon fill="#191970" stroke="#191970" points="2096.4599,-89.5214 2102.9757,-81.167 2092.6723,-83.6346 2096.4599,-89.5214"/>
</g>
<!-- Node6 -->
<g id="node7" class="node">
<title>Node6</title>
<g id="a_node7"><a xlink:href="../../d6/da2/GPUCommonMath_8h.html" target="_top" xlink:title="GPUCommonMath.h">
<polygon fill="none" stroke="#000000" points="2059,-129 2059,-148 2174,-148 2174,-129 2059,-129"/>
<text text-anchor="middle" x="2116.5" y="-136" font-family="Helvetica,sans-Serif" font-size="10.00" fill="#000000">GPUCommonMath.h</text>
</a>
</g>
</g>
<!-- Node0&#45;&gt;Node6 -->
<g id="edge6" class="edge">
<title>Node0&#45;&gt;Node6</title>
<path fill="none" stroke="#191970" d="M1996.8874,-246.4076C2010.9553,-235.4483 2027.2433,-222.3889 2041.5,-210 2062.1232,-192.0788 2084.6734,-170.2564 2099.6057,-155.4692"/>
<polygon fill="#191970" stroke="#191970" points="2102.4419,-157.5842 2107.0571,-148.0474 2097.502,-152.6246 2102.4419,-157.5842"/>
</g>
<!-- Node9 -->
<g id="node10" class="node">
<title>Node9</title>
<g id="a_node10"><a xlink:href="../../da/df3/MatLayerCyl_8h.html" target="_top" xlink:title="Declarations for single cylindrical material layer class. ">
<polygon fill="none" stroke="#000000" points="1828,-190.5 1828,-209.5 1989,-209.5 1989,-190.5 1828,-190.5"/>
<text text-anchor="middle" x="1908.5" y="-197.5" font-family="Helvetica,sans-Serif" font-size="10.00" fill="#000000">DetectorsBase/MatLayerCyl.h</text>
</a>
</g>
</g>
<!-- Node0&#45;&gt;Node9 -->
<g id="edge10" class="edge">
<title>Node0&#45;&gt;Node9</title>
<path fill="none" stroke="#191970" d="M1943.0048,-246.3258C1935.9195,-236.8132 1928.0853,-226.2951 1921.6749,-217.6886"/>
<polygon fill="#191970" stroke="#191970" points="1924.3816,-215.4632 1915.6012,-209.534 1918.7677,-219.6446 1924.3816,-215.4632"/>
</g>
<!-- Node20 -->
<g id="node21" class="node">
<title>Node20</title>
<g id="a_node21"><a xlink:href="../../d9/d52/Common_2MathUtils_2include_2MathUtils_2Utils_8h.html" target="_top" xlink:title="MathUtils/Utils.h">
<polygon fill="none" stroke="#000000" points="2210.5,-190.5 2210.5,-209.5 2308.5,-209.5 2308.5,-190.5 2210.5,-190.5"/>
<text text-anchor="middle" x="2259.5" y="-197.5" font-family="Helvetica,sans-Serif" font-size="10.00" fill="#000000">MathUtils/Utils.h</text>
</a>
</g>
</g>
<!-- Node0&#45;&gt;Node20 -->
<g id="edge30" class="edge">
<title>Node0&#45;&gt;Node20</title>
<path fill="none" stroke="#191970" d="M2028.7829,-256.3198C2083.8034,-242.8889 2160.8119,-224.0905 2210.4277,-211.9789"/>
<polygon fill="#191970" stroke="#191970" points="2211.3915,-215.3465 2220.2762,-209.5748 2209.7314,-208.5462 2211.3915,-215.3465"/>
</g>
<!-- Node23 -->
<g id="node24" class="node">
<title>Node23</title>
<g id="a_node24"><a xlink:href="../../dd/d76/Cartesian3D_8h.html" target="_top" xlink:title="MathUtils/Cartesian3D.h">
<polygon fill="none" stroke="#000000" points="941,-190.5 941,-209.5 1076,-209.5 1076,-190.5 941,-190.5"/>
<text text-anchor="middle" x="1008.5" y="-197.5" font-family="Helvetica,sans-Serif" font-size="10.00" fill="#000000">MathUtils/Cartesian3D.h</text>
</a>
</g>
</g>
<!-- Node0&#45;&gt;Node23 -->
<g id="edge36" class="edge">
<title>Node0&#45;&gt;Node23</title>
<path fill="none" stroke="#191970" d="M1896.174,-267.4595C1725.106,-254.459 1269.5692,-219.8402 1086.3882,-205.9192"/>
<polygon fill="#191970" stroke="#191970" points="1086.5311,-202.42 1076.2946,-205.1521 1086.0006,-209.3999 1086.5311,-202.42"/>
</g>
<!-- Node2 -->
<g id="node3" class="node">
<title>Node2</title>
<polygon fill="none" stroke="#bfbfbf" points="1417,-.5 1417,-19.5 1476,-19.5 1476,-.5 1417,-.5"/>
<text text-anchor="middle" x="1446.5" y="-7.5" font-family="Helvetica,sans-Serif" font-size="10.00" fill="#000000">Rtypes.h</text>
</g>
<!-- Node1&#45;&gt;Node2 -->
<g id="edge2" class="edge">
<title>Node1&#45;&gt;Node2</title>
<path fill="none" stroke="#191970" d="M1484.4688,-61.8906C1477.837,-52.8273 1467.7304,-39.0149 1459.6113,-27.9188"/>
<polygon fill="#191970" stroke="#191970" points="1462.3601,-25.7484 1453.6304,-19.7449 1456.7109,-29.882 1462.3601,-25.7484"/>
</g>
<!-- Node4 -->
<g id="node5" class="node">
<title>Node4</title>
<g id="a_node5"><a xlink:href="../../d5/d93/GPUCommonDefSettings_8h.html" target="_top" xlink:title="GPUCommonDefSettings.h">
<polygon fill="none" stroke="#000000" points="2122.5,-.5 2122.5,-19.5 2270.5,-19.5 2270.5,-.5 2122.5,-.5"/>
<text text-anchor="middle" x="2196.5" y="-7.5" font-family="Helvetica,sans-Serif" font-size="10.00" fill="#000000">GPUCommonDefSettings.h</text>
</a>
</g>
</g>
<!-- Node3&#45;&gt;Node4 -->
<g id="edge4" class="edge">
<title>Node3&#45;&gt;Node4</title>
<path fill="none" stroke="#191970" d="M2131.5313,-61.8906C2143.5107,-52.3227 2162.1166,-37.4621 2176.3525,-26.0919"/>
<polygon fill="#191970" stroke="#191970" points="2178.9239,-28.5175 2184.5532,-19.5419 2174.5553,-23.0479 2178.9239,-28.5175"/>
</g>
<!-- Node5 -->
<g id="node6" class="node">
<title>Node5</title>
<g id="a_node6"><a xlink:href="../../da/d5a/GPUCommonDefAPI_8h.html" target="_top" xlink:title="GPUCommonDefAPI.h">
<polygon fill="none" stroke="#000000" points="1980.5,-.5 1980.5,-19.5 2104.5,-19.5 2104.5,-.5 1980.5,-.5"/>
<text text-anchor="middle" x="2042.5" y="-7.5" font-family="Helvetica,sans-Serif" font-size="10.00" fill="#000000">GPUCommonDefAPI.h</text>
</a>
</g>
</g>
<!-- Node3&#45;&gt;Node5 -->
<g id="edge5" class="edge">
<title>Node3&#45;&gt;Node5</title>
<path fill="none" stroke="#191970" d="M2107.4688,-61.8906C2095.4893,-52.3227 2076.8834,-37.4621 2062.6475,-26.0919"/>
<polygon fill="#191970" stroke="#191970" points="2064.4447,-23.0479 2054.4468,-19.5419 2060.0761,-28.5175 2064.4447,-23.0479"/>
</g>
<!-- Node6&#45;&gt;Node3 -->
<g id="edge7" class="edge">
<title>Node6&#45;&gt;Node3</title>
<path fill="none" stroke="#191970" d="M2116.9298,-128.9005C2117.3665,-119.149 2118.0555,-103.7597 2118.6103,-91.3695"/>
<polygon fill="#191970" stroke="#191970" points="2122.1201,-91.2282 2119.071,-81.0817 2115.1271,-90.9151 2122.1201,-91.2282"/>
</g>
<!-- Node7 -->
<g id="node8" class="node">
<title>Node7</title>
<polygon fill="none" stroke="#bfbfbf" points="2274,-62 2274,-81 2321,-81 2321,-62 2274,-62"/>
<text text-anchor="middle" x="2297.5" y="-69" font-family="Helvetica,sans-Serif" font-size="10.00" fill="#000000">cmath</text>
</g>
<!-- Node6&#45;&gt;Node7 -->
<g id="edge8" class="edge">
<title>Node6&#45;&gt;Node7</title>
<path fill="none" stroke="#191970" d="M2146.8894,-128.9531C2177.0514,-119.238 2224.442,-103.3253 2264.5,-87 2265.8921,-86.4327 2267.31,-85.8372 2268.7368,-85.2236"/>
<polygon fill="#191970" stroke="#191970" points="2270.4146,-88.3071 2278.1056,-81.0202 2267.5491,-81.9204 2270.4146,-88.3071"/>
</g>
<!-- Node8 -->
<g id="node9" class="node">
<title>Node8</title>
<polygon fill="none" stroke="#bfbfbf" points="2191.5,-62 2191.5,-81 2255.5,-81 2255.5,-62 2191.5,-62"/>
<text text-anchor="middle" x="2223.5" y="-69" font-family="Helvetica,sans-Serif" font-size="10.00" fill="#000000">algorithm</text>
</g>
<!-- Node6&#45;&gt;Node8 -->
<g id="edge9" class="edge">
<title>Node6&#45;&gt;Node8</title>
<path fill="none" stroke="#191970" d="M2131.8305,-128.9005C2149.5491,-117.8057 2178.9228,-99.4128 2199.6368,-86.4424"/>
<polygon fill="#191970" stroke="#191970" points="2201.5799,-89.3553 2208.1979,-81.0817 2197.8649,-83.4224 2201.5799,-89.3553"/>
</g>
<!-- Node9&#45;&gt;Node1 -->
<g id="edge25" class="edge">
<title>Node9&#45;&gt;Node1</title>
<path fill="none" stroke="#191970" d="M1829.1215,-190.4672C1780.5117,-183.3173 1717.4825,-171.6747 1663.5,-154 1609.0715,-136.1792 1549.6914,-104.7891 1516.8857,-86.2937"/>
<polygon fill="#191970" stroke="#191970" points="1518.3993,-83.1279 1507.9778,-81.2189 1514.9342,-89.2101 1518.3993,-83.1279"/>
</g>
<!-- Node9&#45;&gt;Node3 -->
<g id="edge13" class="edge">
<title>Node9&#45;&gt;Node3</title>
<path fill="none" stroke="#191970" d="M1919.985,-190.4992C1938.7992,-175.1882 1977.6845,-144.591 2013.5,-123 2037.5081,-108.527 2066.1816,-94.7938 2087.6492,-85.1544"/>
<polygon fill="#191970" stroke="#191970" points="2089.2394,-88.278 2096.9629,-81.0257 2086.4025,-81.8786 2089.2394,-88.278"/>
</g>
<!-- Node9&#45;&gt;Node6 -->
<g id="edge26" class="edge">
<title>Node9&#45;&gt;Node6</title>
<path fill="none" stroke="#191970" d="M1941,-190.3906C1976.947,-179.7621 2034.9827,-162.6025 2074.388,-150.9514"/>
<polygon fill="#191970" stroke="#191970" points="2075.631,-154.2337 2084.2282,-148.0419 2073.6462,-147.521 2075.631,-154.2337"/>
</g>
<!-- Node9&#45;&gt;Node7 -->
<g id="edge11" class="edge">
<title>Node9&#45;&gt;Node7</title>
<path fill="none" stroke="#191970" d="M1989.3038,-190.6334C2057.4814,-181.9721 2149.2804,-168.3104 2183.5,-154 2221.5048,-138.1066 2258.9022,-107.3586 2280.0045,-88.2194"/>
<polygon fill="#191970" stroke="#191970" points="2282.5481,-90.6343 2287.51,-81.2732 2277.7934,-85.4968 2282.5481,-90.6343"/>
</g>
<!-- Node10 -->
<g id="node11" class="node">
<title>Node10</title>
<polygon fill="none" stroke="#bfbfbf" points="1572.5,-62 1572.5,-81 1622.5,-81 1622.5,-62 1572.5,-62"/>
<text text-anchor="middle" x="1597.5" y="-69" font-family="Helvetica,sans-Serif" font-size="10.00" fill="#000000">cstring</text>
</g>
<!-- Node9&#45;&gt;Node10 -->
<g id="edge12" class="edge">
<title>Node9&#45;&gt;Node10</title>
<path fill="none" stroke="#191970" d="M1897.8157,-190.3166C1876.0005,-170.6259 1827.6216,-127.4 1818.5,-123 1742.6614,-86.4174 1712.8389,-112.2079 1632.5,-87 1630.5978,-86.4031 1628.6607,-85.7333 1626.7231,-85.0158"/>
<polygon fill="#191970" stroke="#191970" points="1627.7718,-81.6642 1617.1895,-81.1481 1625.1402,-88.1508 1627.7718,-81.6642"/>
</g>
<!-- Node11 -->
<g id="node12" class="node">
<title>Node11</title>
<g id="a_node12"><a xlink:href="../../db/dff/FlatObject_8h.html" target="_top" xlink:title="Definition of FlatObject class. ">
<polygon fill="none" stroke="#000000" points="1866,-129 1866,-148 1941,-148 1941,-129 1866,-129"/>
<text text-anchor="middle" x="1903.5" y="-136" font-family="Helvetica,sans-Serif" font-size="10.00" fill="#000000">FlatObject.h</text>
</a>
</g>
</g>
<!-- Node9&#45;&gt;Node11 -->
<g id="edge14" class="edge">
<title>Node9&#45;&gt;Node11</title>
<path fill="none" stroke="#191970" d="M1907.7188,-190.3906C1907.0257,-181.8657 1905.991,-169.1392 1905.1198,-158.4235"/>
<polygon fill="#191970" stroke="#191970" points="1908.5912,-157.9283 1904.2923,-148.2449 1901.6142,-158.4956 1908.5912,-157.9283"/>
</g>
<!-- Node19 -->
<g id="node20" class="node">
<title>Node19</title>
<g id="a_node20"><a xlink:href="../../db/dba/MatCell_8h.html" target="_top" xlink:title="Declarations for material properties of the cell (voxel) ">
<polygon fill="none" stroke="#000000" points="1672,-129 1672,-148 1809,-148 1809,-129 1672,-129"/>
<text text-anchor="middle" x="1740.5" y="-136" font-family="Helvetica,sans-Serif" font-size="10.00" fill="#000000">DetectorsBase/MatCell.h</text>
</a>
</g>
</g>
<!-- Node9&#45;&gt;Node19 -->
<g id="edge27" class="edge">
<title>Node9&#45;&gt;Node19</title>
<path fill="none" stroke="#191970" d="M1882.25,-190.3906C1853.7707,-179.9652 1808.1257,-163.2559 1776.3543,-151.6252"/>
<polygon fill="#191970" stroke="#191970" points="1777.1594,-148.1929 1766.5657,-148.0419 1774.7531,-154.7663 1777.1594,-148.1929"/>
</g>
<!-- Node11&#45;&gt;Node1 -->
<g id="edge21" class="edge">
<title>Node11&#45;&gt;Node1</title>
<path fill="none" stroke="#191970" d="M1865.8968,-131.3077C1851.1416,-128.5734 1834.0484,-125.5141 1818.5,-123 1705.5104,-104.7298 1676.1861,-107.057 1563.5,-87 1556.9028,-85.8258 1549.9894,-84.4827 1543.1656,-83.0892"/>
<polygon fill="#191970" stroke="#191970" points="1543.7838,-79.6429 1533.2795,-81.0252 1542.3531,-86.4951 1543.7838,-79.6429"/>
</g>
<!-- Node11&#45;&gt;Node3 -->
<g id="edge20" class="edge">
<title>Node11&#45;&gt;Node3</title>
<path fill="none" stroke="#191970" d="M1934.4475,-128.9005C1972.4616,-117.1091 2037.0504,-97.0746 2078.9862,-84.0668"/>
<polygon fill="#191970" stroke="#191970" points="2080.0957,-87.3872 2088.6099,-81.0817 2078.0219,-80.7015 2080.0957,-87.3872"/>
</g>
<!-- Node11&#45;&gt;Node10 -->
<g id="edge17" class="edge">
<title>Node11&#45;&gt;Node10</title>
<path fill="none" stroke="#191970" d="M1873.9742,-128.9928C1866.6762,-126.8388 1858.8441,-124.691 1851.5,-123 1755.3756,-100.867 1727.0233,-115.1979 1632.5,-87 1630.3786,-86.3671 1628.2166,-85.6365 1626.0606,-84.8443"/>
<polygon fill="#191970" stroke="#191970" points="1627.3727,-81.5996 1616.7902,-81.0889 1624.7445,-88.0875 1627.3727,-81.5996"/>
</g>
<!-- Node12 -->
<g id="node13" class="node">
<title>Node12</title>
<polygon fill="none" stroke="#bfbfbf" points="1782,-62 1782,-81 1835,-81 1835,-62 1782,-62"/>
<text text-anchor="middle" x="1808.5" y="-69" font-family="Helvetica,sans-Serif" font-size="10.00" fill="#000000">cstddef</text>
</g>
<!-- Node11&#45;&gt;Node12 -->
<g id="edge15" class="edge">
<title>Node11&#45;&gt;Node12</title>
<path fill="none" stroke="#191970" d="M1889.8888,-128.9005C1874.3689,-117.9549 1848.7777,-99.9064 1830.4333,-86.9688"/>
<polygon fill="#191970" stroke="#191970" points="1832.2752,-83.9849 1822.0859,-81.0817 1828.2408,-89.7054 1832.2752,-83.9849"/>
</g>
<!-- Node13 -->
<g id="node14" class="node">
<title>Node13</title>
<polygon fill="none" stroke="#bfbfbf" points="1853.5,-62 1853.5,-81 1911.5,-81 1911.5,-62 1853.5,-62"/>
<text text-anchor="middle" x="1882.5" y="-69" font-family="Helvetica,sans-Serif" font-size="10.00" fill="#000000">memory</text>
</g>
<!-- Node11&#45;&gt;Node13 -->
<g id="edge16" class="edge">
<title>Node11&#45;&gt;Node13</title>
<path fill="none" stroke="#191970" d="M1900.4912,-128.9005C1897.4036,-119.0495 1892.5126,-103.4451 1888.6092,-90.9912"/>
<polygon fill="#191970" stroke="#191970" points="1891.8339,-89.5771 1885.5032,-81.0817 1885.1543,-91.6707 1891.8339,-89.5771"/>
</g>
<!-- Node14 -->
<g id="node15" class="node">
<title>Node14</title>
<polygon fill="none" stroke="#bfbfbf" points="1929.5,-62 1929.5,-81 1981.5,-81 1981.5,-62 1929.5,-62"/>
<text text-anchor="middle" x="1955.5" y="-69" font-family="Helvetica,sans-Serif" font-size="10.00" fill="#000000">cassert</text>
</g>
<!-- Node11&#45;&gt;Node14 -->
<g id="edge18" class="edge">
<title>Node11&#45;&gt;Node14</title>
<path fill="none" stroke="#191970" d="M1910.9503,-128.9005C1918.9821,-118.552 1931.9415,-101.8542 1941.8174,-89.1295"/>
<polygon fill="#191970" stroke="#191970" points="1944.6972,-91.1275 1948.0635,-81.0817 1939.1672,-86.8356 1944.6972,-91.1275"/>
</g>
<!-- Node15 -->
<g id="node16" class="node">
<title>Node15</title>
<polygon fill="none" stroke="#bfbfbf" points="1999.5,-62 1999.5,-81 2047.5,-81 2047.5,-62 1999.5,-62"/>
<text text-anchor="middle" x="2023.5" y="-69" font-family="Helvetica,sans-Serif" font-size="10.00" fill="#000000">TFile.h</text>
</g>
<!-- Node11&#45;&gt;Node15 -->
<g id="edge19" class="edge">
<title>Node11&#45;&gt;Node15</title>
<path fill="none" stroke="#191970" d="M1920.6931,-128.9005C1940.7427,-117.7062 1974.0988,-99.0823 1997.3602,-86.0947"/>
<polygon fill="#191970" stroke="#191970" points="1999.3138,-89.0126 2006.3388,-81.0817 1995.9013,-82.9007 1999.3138,-89.0126"/>
</g>
<!-- Node16 -->
<g id="node17" class="node">
<title>Node16</title>
<g id="a_node17"><a xlink:href="../../df/d5b/GPUCommonLogger_8h.html" target="_top" xlink:title="GPUCommonLogger.h">
<polygon fill="none" stroke="#000000" points="1641,-62 1641,-81 1764,-81 1764,-62 1641,-62"/>
<text text-anchor="middle" x="1702.5" y="-69" font-family="Helvetica,sans-Serif" font-size="10.00" fill="#000000">GPUCommonLogger.h</text>
</a>
</g>
</g>
<!-- Node11&#45;&gt;Node16 -->
<g id="edge22" class="edge">
<title>Node11&#45;&gt;Node16</title>
<path fill="none" stroke="#191970" d="M1874.7016,-128.9005C1839.6259,-117.2086 1780.2366,-97.4122 1741.1928,-84.3976"/>
<polygon fill="#191970" stroke="#191970" points="1741.8386,-80.9236 1731.245,-81.0817 1739.625,-87.5644 1741.8386,-80.9236"/>
</g>
<!-- Node17 -->
<g id="node18" class="node">
<title>Node17</title>
<polygon fill="none" stroke="#bfbfbf" points="1707.5,-.5 1707.5,-19.5 1767.5,-19.5 1767.5,-.5 1707.5,-.5"/>
<text text-anchor="middle" x="1737.5" y="-7.5" font-family="Helvetica,sans-Serif" font-size="10.00" fill="#000000">iostream</text>
</g>
<!-- Node16&#45;&gt;Node17 -->
<g id="edge23" class="edge">
<title>Node16&#45;&gt;Node17</title>
<path fill="none" stroke="#191970" d="M1707.9688,-61.8906C1713.0246,-53.0068 1720.6772,-39.5601 1726.9254,-28.5811"/>
<polygon fill="#191970" stroke="#191970" points="1730.0498,-30.1672 1731.9541,-19.7449 1723.966,-26.7048 1730.0498,-30.1672"/>
</g>
<!-- Node18 -->
<g id="node19" class="node">
<title>Node18</title>
<polygon fill="none" stroke="#bfbfbf" points="1643.5,-.5 1643.5,-19.5 1689.5,-19.5 1689.5,-.5 1643.5,-.5"/>
<text text-anchor="middle" x="1666.5" y="-7.5" font-family="Helvetica,sans-Serif" font-size="10.00" fill="#000000">cstdio</text>
</g>
<!-- Node16&#45;&gt;Node18 -->
<g id="edge24" class="edge">
<title>Node16&#45;&gt;Node18</title>
<path fill="none" stroke="#191970" d="M1696.875,-61.8906C1691.6747,-53.0068 1683.8034,-39.5601 1677.3767,-28.5811"/>
<polygon fill="#191970" stroke="#191970" points="1680.2767,-26.6069 1672.2043,-19.7449 1674.2356,-30.1432 1680.2767,-26.6069"/>
</g>
<!-- Node19&#45;&gt;Node1 -->
<g id="edge29" class="edge">
<title>Node19&#45;&gt;Node1</title>
<path fill="none" stroke="#191970" d="M1705.0888,-128.9717C1660.9655,-117.0991 1585.4916,-96.7909 1537.0889,-83.7669"/>
<polygon fill="#191970" stroke="#191970" points="1537.7582,-80.3225 1527.1922,-81.1039 1535.9393,-87.0821 1537.7582,-80.3225"/>
</g>
<!-- Node19&#45;&gt;Node3 -->
<g id="edge28" class="edge">
<title>Node19&#45;&gt;Node3</title>
<path fill="none" stroke="#191970" d="M1808.9005,-128.9598C1873.0989,-119.6262 1971.6763,-104.318 2056.5,-87 2061.8801,-85.9016 2067.4957,-84.6594 2073.062,-83.3681"/>
<polygon fill="#191970" stroke="#191970" points="2074.0487,-86.7311 2082.9667,-81.011 2072.4281,-79.9213 2074.0487,-86.7311"/>
</g>
<!-- Node20&#45;&gt;Node3 -->
<g id="edge33" class="edge">
<title>Node20&#45;&gt;Node3</title>
<path fill="none" stroke="#191970" d="M2250.4785,-190.1628C2236.5769,-175.1677 2208.8649,-145.918 2183.5,-123 2169.7433,-110.5704 2153.4543,-97.4841 2140.7524,-87.6134"/>
<polygon fill="#191970" stroke="#191970" points="2142.6657,-84.6692 2132.6071,-81.3411 2138.3948,-90.2154 2142.6657,-84.6692"/>
</g>
<!-- Node20&#45;&gt;Node6 -->
<g id="edge34" class="edge">
<title>Node20&#45;&gt;Node6</title>
<path fill="none" stroke="#191970" d="M2237.1563,-190.3906C2213.2297,-180.1005 2175.0691,-163.6888 2148.0784,-152.0809"/>
<polygon fill="#191970" stroke="#191970" points="2149.2561,-148.7775 2138.6869,-148.0419 2146.4905,-155.208 2149.2561,-148.7775"/>
</g>
<!-- Node20&#45;&gt;Node7 -->
<g id="edge32" class="edge">
<title>Node20&#45;&gt;Node7</title>
<path fill="none" stroke="#191970" d="M2262.3562,-190.3416C2268.5732,-169.3184 2283.4356,-119.0598 2291.7028,-91.1038"/>
<polygon fill="#191970" stroke="#191970" points="2295.1311,-91.8525 2294.6107,-81.2705 2288.4185,-89.8674 2295.1311,-91.8525"/>
</g>
<!-- Node21 -->
<g id="node22" class="node">
<title>Node21</title>
<polygon fill="none" stroke="#bfbfbf" points="2306.5,-129 2306.5,-148 2348.5,-148 2348.5,-129 2306.5,-129"/>
<text text-anchor="middle" x="2327.5" y="-136" font-family="Helvetica,sans-Serif" font-size="10.00" fill="#000000">array</text>
</g>
<!-- Node20&#45;&gt;Node21 -->
<g id="edge31" class="edge">
<title>Node20&#45;&gt;Node21</title>
<path fill="none" stroke="#191970" d="M2270.125,-190.3906C2280.5431,-180.9683 2296.6364,-166.4134 2309.1304,-155.1137"/>
<polygon fill="#191970" stroke="#191970" points="2311.6562,-157.5484 2316.7252,-148.2449 2306.9608,-152.3568 2311.6562,-157.5484"/>
</g>
<!-- Node22 -->
<g id="node23" class="node">
<title>Node22</title>
<g id="a_node23"><a xlink:href="../../d6/d84/MathConstants_8h.html" target="_top" xlink:title="useful math constants ">
<polygon fill="none" stroke="#000000" points="2366.5,-129 2366.5,-148 2560.5,-148 2560.5,-129 2366.5,-129"/>
<text text-anchor="middle" x="2463.5" y="-136" font-family="Helvetica,sans-Serif" font-size="10.00" fill="#000000">CommonConstants/MathConstants.h</text>
</a>
</g>
</g>
<!-- Node20&#45;&gt;Node22 -->
<g id="edge35" class="edge">
<title>Node20&#45;&gt;Node22</title>
<path fill="none" stroke="#191970" d="M2291.375,-190.3906C2326.5559,-179.7846 2383.3088,-162.6753 2421.9515,-151.0257"/>
<polygon fill="#191970" stroke="#191970" points="2423.2847,-154.2794 2431.8488,-148.0419 2421.2642,-147.5773 2423.2847,-154.2794"/>
</g>
<!-- Node23&#45;&gt;Node2 -->
<g id="edge42" class="edge">
<title>Node23&#45;&gt;Node2</title>
<path fill="none" stroke="#191970" d="M1076.015,-195.3919C1176.9267,-187.9514 1357.838,-172.265 1381.5,-154 1418.6084,-125.3556 1400.2535,-98.2801 1420.5,-56 1424.9424,-46.723 1430.4811,-36.7481 1435.3035,-28.4663"/>
<polygon fill="#191970" stroke="#191970" points="1438.4329,-30.051 1440.5269,-19.6651 1432.4133,-26.4783 1438.4329,-30.051"/>
</g>
<!-- Node24 -->
<g id="node25" class="node">
<title>Node24</title>
<polygon fill="none" stroke="#bfbfbf" points="1208.5,-123.5 1208.5,-153.5 1372.5,-153.5 1372.5,-123.5 1208.5,-123.5"/>
<text text-anchor="start" x="1216.5" y="-141.5" font-family="Helvetica,sans-Serif" font-size="10.00" fill="#000000">Math/GenVector/Displacement</text>
<text text-anchor="middle" x="1290.5" y="-130.5" font-family="Helvetica,sans-Serif" font-size="10.00" fill="#000000">Vector3D.h</text>
</g>
<!-- Node23&#45;&gt;Node24 -->
<g id="edge37" class="edge">
<title>Node23&#45;&gt;Node24</title>
<path fill="none" stroke="#191970" d="M1052.2531,-190.4581C1094.7643,-181.187 1160.2701,-166.9012 1211.843,-155.6539"/>
<polygon fill="#191970" stroke="#191970" points="1212.6064,-159.0698 1221.631,-153.5193 1211.1148,-152.2305 1212.6064,-159.0698"/>
</g>
<!-- Node25 -->
<g id="node26" class="node">
<title>Node25</title>
<polygon fill="none" stroke="#bfbfbf" points="277,-129 277,-148 466,-148 466,-129 277,-129"/>
<text text-anchor="middle" x="371.5" y="-136" font-family="Helvetica,sans-Serif" font-size="10.00" fill="#000000">Math/GenVector/PositionVector3D.h</text>
</g>
<!-- Node23&#45;&gt;Node25 -->
<g id="edge38" class="edge">
<title>Node23&#45;&gt;Node25</title>
<path fill="none" stroke="#191970" d="M940.6329,-195.4935C839.2266,-188.4544 642.2301,-173.6003 475.5,-154 464.3521,-152.6895 452.5596,-151.1143 441.0752,-149.4772"/>
<polygon fill="#191970" stroke="#191970" points="441.4852,-146.0001 431.0862,-148.0277 440.4799,-152.9276 441.4852,-146.0001"/>
</g>
<!-- Node26 -->
<g id="node27" class="node">
<title>Node26</title>
<polygon fill="none" stroke="#bfbfbf" points="484.5,-129 484.5,-148 644.5,-148 644.5,-129 484.5,-129"/>
<text text-anchor="middle" x="564.5" y="-136" font-family="Helvetica,sans-Serif" font-size="10.00" fill="#000000">Math/GenVector/Rotation3D.h</text>
</g>
<!-- Node23&#45;&gt;Node26 -->
<g id="edge39" class="edge">
<title>Node23&#45;&gt;Node26</title>
<path fill="none" stroke="#191970" d="M940.9819,-192.1389C869.4732,-183.6056 753.3455,-169.1559 653.5,-154 644.9376,-152.7003 635.9282,-151.2401 627.063,-149.7492"/>
<polygon fill="#191970" stroke="#191970" points="627.5925,-146.289 617.1467,-148.0597 626.4168,-153.1896 627.5925,-146.289"/>
</g>
<!-- Node27 -->
<g id="node28" class="node">
<title>Node27</title>
<polygon fill="none" stroke="#bfbfbf" points="662.5,-129 662.5,-148 830.5,-148 830.5,-129 662.5,-129"/>
<text text-anchor="middle" x="746.5" y="-136" font-family="Helvetica,sans-Serif" font-size="10.00" fill="#000000">Math/GenVector/Transform3D.h</text>
</g>
<!-- Node23&#45;&gt;Node27 -->
<g id="edge40" class="edge">
<title>Node23&#45;&gt;Node27</title>
<path fill="none" stroke="#191970" d="M967.85,-190.4581C921.8618,-179.6632 846.9095,-162.0694 797.1527,-150.3899"/>
<polygon fill="#191970" stroke="#191970" points="797.7806,-146.9422 787.2454,-148.0643 796.1809,-153.757 797.7806,-146.9422"/>
</g>
<!-- Node28 -->
<g id="node29" class="node">
<title>Node28</title>
<polygon fill="none" stroke="#bfbfbf" points="849,-129 849,-148 1022,-148 1022,-129 849,-129"/>
<text text-anchor="middle" x="935.5" y="-136" font-family="Helvetica,sans-Serif" font-size="10.00" fill="#000000">Math/GenVector/Translation3D.h</text>
</g>
<!-- Node23&#45;&gt;Node28 -->
<g id="edge41" class="edge">
<title>Node23&#45;&gt;Node28</title>
<path fill="none" stroke="#191970" d="M997.0938,-190.3906C985.8031,-180.8786 968.3033,-166.1357 954.8381,-154.7917"/>
<polygon fill="#191970" stroke="#191970" points="956.9699,-152.0111 947.0671,-148.2449 952.4598,-157.3646 956.9699,-152.0111"/>
</g>
<!-- Node29 -->
<g id="node30" class="node">
<title>Node29</title>
<polygon fill="none" stroke="#bfbfbf" points="1040.5,-129 1040.5,-148 1122.5,-148 1122.5,-129 1040.5,-129"/>
<text text-anchor="middle" x="1081.5" y="-136" font-family="Helvetica,sans-Serif" font-size="10.00" fill="#000000">TGeoMatrix.h</text>
</g>
<!-- Node23&#45;&gt;Node29 -->
<g id="edge43" class="edge">
<title>Node23&#45;&gt;Node29</title>
<path fill="none" stroke="#191970" d="M1019.9063,-190.3906C1031.1969,-180.8786 1048.6967,-166.1357 1062.1619,-154.7917"/>
<polygon fill="#191970" stroke="#191970" points="1064.5402,-157.3646 1069.9329,-148.2449 1060.0301,-152.0111 1064.5402,-157.3646"/>
</g>
<!-- Node30 -->
<g id="node31" class="node">
<title>Node30</title>
<polygon fill="none" stroke="#bfbfbf" points="1141,-129 1141,-148 1190,-148 1190,-129 1141,-129"/>
<text text-anchor="middle" x="1165.5" y="-136" font-family="Helvetica,sans-Serif" font-size="10.00" fill="#000000">iosfwd</text>
</g>
<!-- Node23&#45;&gt;Node30 -->
<g id="edge44" class="edge">
<title>Node23&#45;&gt;Node30</title>
<path fill="none" stroke="#191970" d="M1035.5849,-190.4859C1060.649,-181.5367 1098.8535,-167.5268 1131.5,-154 1132.8859,-153.4258 1134.2989,-152.8288 1135.7227,-152.2179"/>
<polygon fill="#191970" stroke="#191970" points="1137.3696,-155.3168 1145.1051,-148.077 1134.5432,-148.9127 1137.3696,-155.3168"/>
</g>
<!-- Node31 -->
<g id="node32" class="node">
<title>Node31</title>
<g id="a_node32"><a xlink:href="../../d2/dd0/Cartesian2D_8h.html" target="_top" xlink:title="MathUtils/Cartesian2D.h">
<polygon fill="none" stroke="#000000" points="124,-129 124,-148 259,-148 259,-129 124,-129"/>
<text text-anchor="middle" x="191.5" y="-136" font-family="Helvetica,sans-Serif" font-size="10.00" fill="#000000">MathUtils/Cartesian2D.h</text>
</a>
</g>
</g>
<!-- Node23&#45;&gt;Node31 -->
<g id="edge45" class="edge">
<title>Node23&#45;&gt;Node31</title>
<path fill="none" stroke="#191970" d="M940.7644,-198.9441C810.0457,-196.2109 514.1136,-186.6414 267.5,-154 259.5278,-152.9448 251.1392,-151.5384 242.9625,-150.0022"/>
<polygon fill="#191970" stroke="#191970" points="243.622,-146.5649 233.1359,-148.0787 242.2773,-153.4345 243.622,-146.5649"/>
</g>
<!-- Node32 -->
<g id="node33" class="node">
<title>Node32</title>
<polygon fill="none" stroke="#bfbfbf" points="207.5,-56.5 207.5,-86.5 371.5,-86.5 371.5,-56.5 207.5,-56.5"/>
<text text-anchor="start" x="215.5" y="-74.5" font-family="Helvetica,sans-Serif" font-size="10.00" fill="#000000">Math/GenVector/Displacement</text>
<text text-anchor="middle" x="289.5" y="-63.5" font-family="Helvetica,sans-Serif" font-size="10.00" fill="#000000">Vector2D.h</text>
</g>
<!-- Node31&#45;&gt;Node32 -->
<g id="edge46" class="edge">
<title>Node31&#45;&gt;Node32</title>
<path fill="none" stroke="#191970" d="M205.541,-128.9005C219.4588,-119.3853 241.228,-104.5023 259.112,-92.2755"/>
<polygon fill="#191970" stroke="#191970" points="261.2481,-95.0549 267.5279,-86.5218 257.2974,-89.2763 261.2481,-95.0549"/>
</g>
<!-- Node33 -->
<g id="node34" class="node">
<title>Node33</title>
<polygon fill="none" stroke="#bfbfbf" points="0,-62 0,-81 189,-81 189,-62 0,-62"/>
<text text-anchor="middle" x="94.5" y="-69" font-family="Helvetica,sans-Serif" font-size="10.00" fill="#000000">Math/GenVector/PositionVector2D.h</text>
</g>
<!-- Node31&#45;&gt;Node33 -->
<g id="edge47" class="edge">
<title>Node31&#45;&gt;Node33</title>
<path fill="none" stroke="#191970" d="M177.6023,-128.9005C161.6836,-117.9052 135.3879,-99.7422 116.6401,-86.7927"/>
<polygon fill="#191970" stroke="#191970" points="118.5892,-83.8852 108.372,-81.0817 114.6108,-89.6448 118.5892,-83.8852"/>
</g>
</g>
</svg>
