<?xml version="1.0" encoding="UTF-8" standalone="no"?>
<!DOCTYPE svg PUBLIC "-//W3C//DTD SVG 1.1//EN"
 "http://www.w3.org/Graphics/SVG/1.1/DTD/svg11.dtd">
<!-- Generated by graphviz version 2.40.1 (20161225.0304)
 -->
<!-- Title: /home/travis/build/AliceO2Group/AliceO2/Detectors/TOF/base/src/Strip.cxx Pages: 1 -->
<!--zoomable 497 -->
<svg id="main" version="1.1" xmlns="http://www.w3.org/2000/svg" xmlns:xlink="http://www.w3.org/1999/xlink" xml:space="preserve" onload="init(evt)">
<style type="text/css"><![CDATA[
.edge:hover path { stroke: red; }
.edge:hover polygon { stroke: red; fill: red; }
]]></style>
<script type="text/javascript"><![CDATA[
var edges = document.getElementsByTagName('g');
if (edges && edges.length) {
  for (var i=0;i<edges.length;i++) {
    if (edges[i].id.substr(0,4)=='edge') {
      edges[i].setAttribute('class','edge');
    }
  }
}
]]></script>
        <defs>
                <circle id="rim" cx="0" cy="0" r="7"/>
                <circle id="rim2" cx="0" cy="0" r="3.5"/>
                <g id="zoomPlus">
                        <use xlink:href="#rim" fill="#404040">
                                <set attributeName="fill" to="#808080" begin="zoomplus.mouseover" end="zoomplus.mouseout"/>
                        </use>
                        <path d="M-4,0h8M0,-4v8" fill="none" stroke="white" stroke-width="1.5" pointer-events="none"/>
                </g>
                <g id="zoomMin">
                        <use xlink:href="#rim" fill="#404040">
                                <set attributeName="fill" to="#808080" begin="zoomminus.mouseover" end="zoomminus.mouseout"/>
                        </use>
                        <path d="M-4,0h8" fill="none" stroke="white" stroke-width="1.5" pointer-events="none"/>
                </g>
                <g id="dirArrow">
                        <path fill="none" stroke="white" stroke-width="1.5" d="M0,-3.0v7 M-2.5,-0.5L0,-3.0L2.5,-0.5"/>
                </g>
               <g id="resetDef">
                       <use xlink:href="#rim2" fill="#404040">
                               <set attributeName="fill" to="#808080" begin="reset.mouseover" end="reset.mouseout"/>
                       </use>
               </g>
        </defs>

<script type="text/javascript">
var viewWidth = 2649;
var viewHeight = 497;
var sectionId = 'dynsection-0';
</script>
<script xlink:href="../../svgpan.js"/>
<svg id="graph" class="graph">
<g id="viewport">
<title>/home/travis/build/AliceO2Group/AliceO2/Detectors/TOF/base/src/Strip.cxx</title>
<!-- Node0 -->
<g id="node1" class="node">
<title>Node0</title>
<polygon fill="#bfbfbf" stroke="#000000" points="2141,-436.5 2141,-488.5 2273,-488.5 2273,-436.5 2141,-436.5"/>
<text text-anchor="start" x="2149" y="-476.5" font-family="Helvetica,sans-Serif" font-size="10.00" fill="#000000">/home/travis/build</text>
<text text-anchor="start" x="2149" y="-465.5" font-family="Helvetica,sans-Serif" font-size="10.00" fill="#000000">/AliceO2Group/AliceO2</text>
<text text-anchor="start" x="2149" y="-454.5" font-family="Helvetica,sans-Serif" font-size="10.00" fill="#000000">/Detectors/TOF/base/src</text>
<text text-anchor="middle" x="2207" y="-443.5" font-family="Helvetica,sans-Serif" font-size="10.00" fill="#000000">/Strip.cxx</text>
</g>
<!-- Node1 -->
<g id="node2" class="node">
<title>Node1</title>
<polygon fill="none" stroke="#bfbfbf" points="2051,-380.5 2051,-399.5 2101,-399.5 2101,-380.5 2051,-380.5"/>
<text text-anchor="middle" x="2076" y="-387.5" font-family="Helvetica,sans-Serif" font-size="10.00" fill="#000000">cstring</text>
</g>
<!-- Node0&#45;&gt;Node1 -->
<g id="edge1" class="edge">
<title>Node0&#45;&gt;Node1</title>
<path fill="none" stroke="#191970" d="M2159.706,-436.3258C2140.3466,-425.6116 2118.6822,-413.6218 2102.2444,-404.5246"/>
<polygon fill="#191970" stroke="#191970" points="2103.6712,-401.314 2093.227,-399.534 2100.2816,-407.4386 2103.6712,-401.314"/>
</g>
<!-- Node2 -->
<g id="node3" class="node">
<title>Node2</title>
<polygon fill="none" stroke="#bfbfbf" points="2119.5,-380.5 2119.5,-399.5 2160.5,-399.5 2160.5,-380.5 2119.5,-380.5"/>
<text text-anchor="middle" x="2140" y="-387.5" font-family="Helvetica,sans-Serif" font-size="10.00" fill="#000000">tuple</text>
</g>
<!-- Node0&#45;&gt;Node2 -->
<g id="edge2" class="edge">
<title>Node0&#45;&gt;Node2</title>
<path fill="none" stroke="#191970" d="M2182.8115,-436.3258C2173.7429,-426.5128 2163.6854,-415.6298 2155.5986,-406.879"/>
<polygon fill="#191970" stroke="#191970" points="2158.1682,-404.5027 2148.8107,-399.534 2153.0273,-409.2536 2158.1682,-404.5027"/>
</g>
<!-- Node3 -->
<g id="node4" class="node">
<title>Node3</title>
<polygon fill="none" stroke="#bfbfbf" points="2179,-380.5 2179,-399.5 2235,-399.5 2235,-380.5 2179,-380.5"/>
<text text-anchor="middle" x="2207" y="-387.5" font-family="Helvetica,sans-Serif" font-size="10.00" fill="#000000">TMath.h</text>
</g>
<!-- Node0&#45;&gt;Node3 -->
<g id="edge3" class="edge">
<title>Node0&#45;&gt;Node3</title>
<path fill="none" stroke="#191970" d="M2207,-436.3258C2207,-427.5142 2207,-417.8397 2207,-409.621"/>
<polygon fill="#191970" stroke="#191970" points="2210.5001,-409.534 2207,-399.534 2203.5001,-409.534 2210.5001,-409.534"/>
</g>
<!-- Node4 -->
<g id="node5" class="node">
<title>Node4</title>
<polygon fill="none" stroke="#bfbfbf" points="2253.5,-380.5 2253.5,-399.5 2326.5,-399.5 2326.5,-380.5 2253.5,-380.5"/>
<text text-anchor="middle" x="2290" y="-387.5" font-family="Helvetica,sans-Serif" font-size="10.00" fill="#000000">TObjArray.h</text>
</g>
<!-- Node0&#45;&gt;Node4 -->
<g id="edge4" class="edge">
<title>Node0&#45;&gt;Node4</title>
<path fill="none" stroke="#191970" d="M2236.9649,-436.3258C2248.4284,-426.3126 2261.1674,-415.1851 2271.2867,-406.346"/>
<polygon fill="#191970" stroke="#191970" points="2273.8563,-408.7486 2279.0852,-399.534 2269.2513,-403.4767 2273.8563,-408.7486"/>
</g>
<!-- Node5 -->
<g id="node6" class="node">
<title>Node5</title>
<g id="a_node6"><a xlink:href="../../dd/d77/Strip_8h.html" target="_top" xlink:title="TOFBase/Strip.h">
<polygon fill="none" stroke="#000000" points="2345,-380.5 2345,-399.5 2439,-399.5 2439,-380.5 2345,-380.5"/>
<text text-anchor="middle" x="2392" y="-387.5" font-family="Helvetica,sans-Serif" font-size="10.00" fill="#000000">TOFBase/Strip.h</text>
</a>
</g>
</g>
<!-- Node0&#45;&gt;Node5 -->
<g id="edge5" class="edge">
<title>Node0&#45;&gt;Node5</title>
<path fill="none" stroke="#191970" d="M2273.0057,-436.6329C2301.6977,-425.3888 2334.1038,-412.689 2357.8448,-403.3852"/>
<polygon fill="#191970" stroke="#191970" points="2359.4193,-406.5273 2367.4528,-399.6198 2356.8652,-400.0099 2359.4193,-406.5273"/>
</g>
<!-- Node6 -->
<g id="node7" class="node">
<title>Node6</title>
<g id="a_node7"><a xlink:href="../../d1/d90/Detectors_2TOF_2base_2include_2TOFBase_2Digit_8h.html" target="_top" xlink:title="TOFBase/Digit.h">
<polygon fill="none" stroke="#000000" points="1204.5,-324.5 1204.5,-343.5 1299.5,-343.5 1299.5,-324.5 1204.5,-324.5"/>
<text text-anchor="middle" x="1252" y="-331.5" font-family="Helvetica,sans-Serif" font-size="10.00" fill="#000000">TOFBase/Digit.h</text>
</a>
</g>
</g>
<!-- Node5&#45;&gt;Node6 -->
<g id="edge6" class="edge">
<title>Node5&#45;&gt;Node6</title>
<path fill="none" stroke="#191970" d="M2344.7083,-381.0946C2341.7674,-380.6837 2338.8469,-380.3132 2336,-380 2134.2373,-357.8061 1503.9104,-340.3787 1309.6087,-335.422"/>
<polygon fill="#191970" stroke="#191970" points="1309.6883,-331.923 1299.6027,-335.168 1309.5106,-338.9208 1309.6883,-331.923"/>
</g>
<!-- Node13 -->
<g id="node14" class="node">
<title>Node13</title>
<polygon fill="none" stroke="#bfbfbf" points="2330.5,-6 2330.5,-25 2377.5,-25 2377.5,-6 2330.5,-6"/>
<text text-anchor="middle" x="2354" y="-13" font-family="Helvetica,sans-Serif" font-size="10.00" fill="#000000">vector</text>
</g>
<!-- Node5&#45;&gt;Node13 -->
<g id="edge46" class="edge">
<title>Node5&#45;&gt;Node13</title>
<path fill="none" stroke="#191970" d="M2386.5555,-380.2863C2376.0482,-360.599 2354,-314.3072 2354,-272.5 2354,-272.5 2354,-272.5 2354,-149.5 2354,-108.9699 2354,-61.5443 2354,-35.3795"/>
<polygon fill="#191970" stroke="#191970" points="2357.5001,-35.2517 2354,-25.2517 2350.5001,-35.2518 2357.5001,-35.2517"/>
</g>
<!-- Node14 -->
<g id="node15" class="node">
<title>Node14</title>
<polygon fill="none" stroke="#bfbfbf" points="2396,-6 2396,-25 2434,-25 2434,-6 2396,-6"/>
<text text-anchor="middle" x="2415" y="-13" font-family="Helvetica,sans-Serif" font-size="10.00" fill="#000000">map</text>
</g>
<!-- Node5&#45;&gt;Node14 -->
<g id="edge44" class="edge">
<title>Node5&#45;&gt;Node14</title>
<path fill="none" stroke="#191970" d="M2392,-380.2511C2392,-360.1182 2392,-312.4826 2392,-272.5 2392,-272.5 2392,-272.5 2392,-149.5 2392,-108.1928 2402.7479,-60.7421 2409.5493,-34.85"/>
<polygon fill="#191970" stroke="#191970" points="2412.9393,-35.7216 2412.1797,-25.1541 2406.1835,-33.8888 2412.9393,-35.7216"/>
</g>
<!-- Node32 -->
<g id="node33" class="node">
<title>Node32</title>
<polygon fill="none" stroke="#bfbfbf" points="2420.5,-324.5 2420.5,-343.5 2483.5,-343.5 2483.5,-324.5 2420.5,-324.5"/>
<text text-anchor="middle" x="2452" y="-331.5" font-family="Helvetica,sans-Serif" font-size="10.00" fill="#000000">TObject.h</text>
</g>
<!-- Node5&#45;&gt;Node32 -->
<g id="edge42" class="edge">
<title>Node5&#45;&gt;Node32</title>
<path fill="none" stroke="#191970" d="M2402.4512,-380.2455C2411.2269,-372.0549 2423.9554,-360.1749 2434.314,-350.5069"/>
<polygon fill="#191970" stroke="#191970" points="2436.7461,-353.0246 2441.6686,-343.6427 2431.9699,-347.9072 2436.7461,-353.0246"/>
</g>
<!-- Node33 -->
<g id="node34" class="node">
<title>Node33</title>
<polygon fill="none" stroke="#bfbfbf" points="2501.5,-324.5 2501.5,-343.5 2566.5,-343.5 2566.5,-324.5 2501.5,-324.5"/>
<text text-anchor="middle" x="2534" y="-331.5" font-family="Helvetica,sans-Serif" font-size="10.00" fill="#000000">exception</text>
</g>
<!-- Node5&#45;&gt;Node33 -->
<g id="edge43" class="edge">
<title>Node5&#45;&gt;Node33</title>
<path fill="none" stroke="#191970" d="M2416.4107,-380.3733C2439.6142,-371.2226 2474.7038,-357.3844 2500.5142,-347.2057"/>
<polygon fill="#191970" stroke="#191970" points="2501.8892,-350.4258 2509.9079,-343.5011 2499.3211,-343.9139 2501.8892,-350.4258"/>
</g>
<!-- Node34 -->
<g id="node35" class="node">
<title>Node34</title>
<polygon fill="none" stroke="#bfbfbf" points="2585,-324.5 2585,-343.5 2641,-343.5 2641,-324.5 2585,-324.5"/>
<text text-anchor="middle" x="2613" y="-331.5" font-family="Helvetica,sans-Serif" font-size="10.00" fill="#000000">sstream</text>
</g>
<!-- Node5&#45;&gt;Node34 -->
<g id="edge45" class="edge">
<title>Node5&#45;&gt;Node34</title>
<path fill="none" stroke="#191970" d="M2431.1793,-380.4337C2466.3553,-371.7939 2519.6613,-358.576 2574.7873,-344.2841"/>
<polygon fill="#191970" stroke="#191970" points="2575.935,-347.6022 2584.7329,-341.699 2574.174,-340.8273 2575.935,-347.6022"/>
</g>
<!-- Node35 -->
<g id="node36" class="node">
<title>Node35</title>
<g id="a_node36"><a xlink:href="../../dd/d76/Cartesian3D_8h.html" target="_top" xlink:title="MathUtils/Cartesian3D.h">
<polygon fill="none" stroke="#000000" points="849.5,-140 849.5,-159 984.5,-159 984.5,-140 849.5,-140"/>
<text text-anchor="middle" x="917" y="-147" font-family="Helvetica,sans-Serif" font-size="10.00" fill="#000000">MathUtils/Cartesian3D.h</text>
</a>
</g>
</g>
<!-- Node5&#45;&gt;Node35 -->
<g id="edge47" class="edge">
<title>Node5&#45;&gt;Node35</title>
<path fill="none" stroke="#191970" d="M2344.7122,-381.0582C2341.7703,-380.6563 2338.8485,-380.2977 2336,-380 2083.9135,-353.6527 1445.7061,-387.4583 1196,-344 1116.38,-330.1431 1088.995,-334.6478 1023,-288 977.2376,-255.6533 942.2407,-197.6872 926.3621,-168.0521"/>
<polygon fill="#191970" stroke="#191970" points="929.4533,-166.4103 921.7221,-159.166 923.2482,-169.6504 929.4533,-166.4103"/>
</g>
<!-- Node7 -->
<g id="node8" class="node">
<title>Node7</title>
<polygon fill="none" stroke="#bfbfbf" points="1311.5,-73 1311.5,-92 1360.5,-92 1360.5,-73 1311.5,-73"/>
<text text-anchor="middle" x="1336" y="-80" font-family="Helvetica,sans-Serif" font-size="10.00" fill="#000000">iosfwd</text>
</g>
<!-- Node6&#45;&gt;Node7 -->
<g id="edge7" class="edge">
<title>Node6&#45;&gt;Node7</title>
<path fill="none" stroke="#191970" d="M1204.3302,-330.89C1146.2715,-325.9934 1053.2847,-314.1955 1032,-288 1023.3116,-277.3071 1025.1989,-268.9821 1032,-257 1047.4885,-229.7126 1235.3272,-133.1358 1307.764,-96.6227"/>
<polygon fill="#191970" stroke="#191970" points="1309.4358,-99.6997 1316.7968,-92.0795 1306.2905,-93.4461 1309.4358,-99.6997"/>
</g>
<!-- Node8 -->
<g id="node9" class="node">
<title>Node8</title>
<polygon fill="none" stroke="#bfbfbf" points="1378.5,-73 1378.5,-92 1437.5,-92 1437.5,-73 1378.5,-73"/>
<text text-anchor="middle" x="1408" y="-80" font-family="Helvetica,sans-Serif" font-size="10.00" fill="#000000">Rtypes.h</text>
</g>
<!-- Node6&#45;&gt;Node8 -->
<g id="edge8" class="edge">
<title>Node6&#45;&gt;Node8</title>
<path fill="none" stroke="#191970" d="M1251.2666,-324.2635C1249.9789,-301.2552 1249.3186,-242.3553 1272,-201 1297.7681,-154.0168 1349.8481,-116.9001 1381.5544,-97.4503"/>
<polygon fill="#191970" stroke="#191970" points="1383.5199,-100.353 1390.3034,-92.2145 1379.9252,-94.3465 1383.5199,-100.353"/>
</g>
<!-- Node9 -->
<g id="node10" class="node">
<title>Node9</title>
<g id="a_node10"><a xlink:href="../../d4/d54/Geo_8h.html" target="_top" xlink:title="TOFBase/Geo.h">
<polygon fill="none" stroke="#000000" points="1508.5,-263 1508.5,-282 1599.5,-282 1599.5,-263 1508.5,-263"/>
<text text-anchor="middle" x="1554" y="-270" font-family="Helvetica,sans-Serif" font-size="10.00" fill="#000000">TOFBase/Geo.h</text>
</a>
</g>
</g>
<!-- Node6&#45;&gt;Node9 -->
<g id="edge9" class="edge">
<title>Node6&#45;&gt;Node9</title>
<path fill="none" stroke="#191970" d="M1299.6172,-326.4481C1349.5547,-318.2214 1430.1881,-304.069 1499,-288 1503.3563,-286.9827 1507.8845,-285.8429 1512.3888,-284.6552"/>
<polygon fill="#191970" stroke="#191970" points="1513.4024,-288.0068 1522.1353,-282.0079 1511.5675,-281.2515 1513.4024,-288.0068"/>
</g>
<!-- Node28 -->
<g id="node29" class="node">
<title>Node28</title>
<g id="a_node29"><a xlink:href="../../de/d64/RangeReference_8h.html" target="_top" xlink:title="Class to refer to the 1st entry and N elements of some group in the continuous container. ">
<polygon fill="none" stroke="#000000" points="1280,-263 1280,-282 1490,-282 1490,-263 1280,-263"/>
<text text-anchor="middle" x="1385" y="-270" font-family="Helvetica,sans-Serif" font-size="10.00" fill="#000000">CommonDataFormat/RangeReference.h</text>
</a>
</g>
</g>
<!-- Node6&#45;&gt;Node28 -->
<g id="edge37" class="edge">
<title>Node6&#45;&gt;Node28</title>
<path fill="none" stroke="#191970" d="M1272.7813,-324.3906C1294.8394,-314.1908 1329.905,-297.9763 1354.9669,-286.3875"/>
<polygon fill="#191970" stroke="#191970" points="1356.7571,-289.4158 1364.3647,-282.0419 1353.8191,-283.0622 1356.7571,-289.4158"/>
</g>
<!-- Node30 -->
<g id="node31" class="node">
<title>Node30</title>
<polygon fill="none" stroke="#bfbfbf" points="1041.5,-263 1041.5,-282 1098.5,-282 1098.5,-263 1041.5,-263"/>
<text text-anchor="middle" x="1070" y="-270" font-family="Helvetica,sans-Serif" font-size="10.00" fill="#000000">gsl/span</text>
</g>
<!-- Node6&#45;&gt;Node30 -->
<g id="edge40" class="edge">
<title>Node6&#45;&gt;Node30</title>
<path fill="none" stroke="#191970" d="M1219.7291,-324.4801C1190.3841,-315.637 1145.9905,-301.7922 1108,-288 1106.1415,-287.3253 1104.2394,-286.6147 1102.3251,-285.884"/>
<polygon fill="#191970" stroke="#191970" points="1103.3826,-282.539 1092.7954,-282.1352 1100.82,-289.0531 1103.3826,-282.539"/>
</g>
<!-- Node31 -->
<g id="node32" class="node">
<title>Node31</title>
<polygon fill="none" stroke="#bfbfbf" points="1116.5,-257.5 1116.5,-287.5 1223.5,-287.5 1223.5,-257.5 1116.5,-257.5"/>
<text text-anchor="start" x="1124.5" y="-275.5" font-family="Helvetica,sans-Serif" font-size="10.00" fill="#000000">boost/serialization</text>
<text text-anchor="middle" x="1170" y="-264.5" font-family="Helvetica,sans-Serif" font-size="10.00" fill="#000000">/base_object.hpp</text>
</g>
<!-- Node6&#45;&gt;Node31 -->
<g id="edge41" class="edge">
<title>Node6&#45;&gt;Node31</title>
<path fill="none" stroke="#191970" d="M1239.1875,-324.3906C1228.2953,-316.2215 1212.2588,-304.1941 1198.3669,-293.7752"/>
<polygon fill="#191970" stroke="#191970" points="1200.1595,-290.7446 1190.0595,-287.5446 1195.9595,-296.3446 1200.1595,-290.7446"/>
</g>
<!-- Node9&#45;&gt;Node8 -->
<g id="edge10" class="edge">
<title>Node9&#45;&gt;Node8</title>
<path fill="none" stroke="#191970" d="M1546.5591,-262.8167C1523.329,-232.5857 1451.904,-139.6353 1421.7064,-100.3371"/>
<polygon fill="#191970" stroke="#191970" points="1424.4694,-98.1885 1415.601,-92.3917 1418.9188,-102.4536 1424.4694,-98.1885"/>
</g>
<!-- Node10 -->
<g id="node11" class="node">
<title>Node10</title>
<g id="a_node11"><a xlink:href="../../d4/dc6/LHCConstants_8h.html" target="_top" xlink:title="Header to collect LHC related constants. ">
<polygon fill="none" stroke="#000000" points="1456,-73 1456,-92 1646,-92 1646,-73 1456,-73"/>
<text text-anchor="middle" x="1551" y="-80" font-family="Helvetica,sans-Serif" font-size="10.00" fill="#000000">CommonConstants/LHCConstants.h</text>
</a>
</g>
</g>
<!-- Node9&#45;&gt;Node10 -->
<g id="edge11" class="edge">
<title>Node9&#45;&gt;Node10</title>
<path fill="none" stroke="#191970" d="M1549.6705,-262.7309C1540.1808,-240.0554 1519.1535,-182.1146 1529,-134 1531.3148,-122.6888 1536.2159,-110.79 1540.8058,-101.2826"/>
<polygon fill="#191970" stroke="#191970" points="1543.9282,-102.8638 1545.3548,-92.3654 1537.6928,-99.6827 1543.9282,-102.8638"/>
</g>
<!-- Node11 -->
<g id="node12" class="node">
<title>Node11</title>
<g id="a_node12"><a xlink:href="../../d1/dec/HBFUtils_8h.html" target="_top" xlink:title="DetectorsRaw/HBFUtils.h">
<polygon fill="none" stroke="#000000" points="1740.5,-201.5 1740.5,-220.5 1879.5,-220.5 1879.5,-201.5 1740.5,-201.5"/>
<text text-anchor="middle" x="1810" y="-208.5" font-family="Helvetica,sans-Serif" font-size="10.00" fill="#000000">DetectorsRaw/HBFUtils.h</text>
</a>
</g>
</g>
<!-- Node9&#45;&gt;Node11 -->
<g id="edge12" class="edge">
<title>Node9&#45;&gt;Node11</title>
<path fill="none" stroke="#191970" d="M1593.7191,-262.9581C1638.5603,-252.1857 1711.5843,-234.6428 1760.2025,-222.9631"/>
<polygon fill="#191970" stroke="#191970" points="1761.2819,-226.3034 1770.1877,-220.5643 1759.6468,-219.4971 1761.2819,-226.3034"/>
</g>
<!-- Node11&#45;&gt;Node8 -->
<g id="edge13" class="edge">
<title>Node11&#45;&gt;Node8</title>
<path fill="none" stroke="#191970" d="M1740.1778,-203.0805C1669.783,-194.4712 1566.3523,-179.9337 1529,-165 1489.0164,-149.0142 1448.9776,-118.0713 1426.4567,-98.9584"/>
<polygon fill="#191970" stroke="#191970" points="1428.5734,-96.1616 1418.7198,-92.2683 1423.9948,-101.4567 1428.5734,-96.1616"/>
</g>
<!-- Node12 -->
<g id="node13" class="node">
<title>Node12</title>
<g id="a_node13"><a xlink:href="../../db/d2c/ConfigurableParam_8h.html" target="_top" xlink:title="CommonUtils/Configurable\lParam.h">
<polygon fill="none" stroke="#000000" points="2178,-67.5 2178,-97.5 2326,-97.5 2326,-67.5 2178,-67.5"/>
<text text-anchor="start" x="2186" y="-85.5" font-family="Helvetica,sans-Serif" font-size="10.00" fill="#000000">CommonUtils/Configurable</text>
<text text-anchor="middle" x="2252" y="-74.5" font-family="Helvetica,sans-Serif" font-size="10.00" fill="#000000">Param.h</text>
</a>
</g>
</g>
<!-- Node11&#45;&gt;Node12 -->
<g id="edge14" class="edge">
<title>Node11&#45;&gt;Node12</title>
<path fill="none" stroke="#191970" d="M1879.5431,-207.7985C1992.8045,-201.9465 2207.1481,-187.9673 2233,-165 2248.8903,-150.8827 2252.8908,-126.3877 2253.3638,-107.7451"/>
<polygon fill="#191970" stroke="#191970" points="2256.8627,-107.5447 2253.2979,-97.5676 2249.8628,-107.5901 2256.8627,-107.5447"/>
</g>
<!-- Node19 -->
<g id="node20" class="node">
<title>Node19</title>
<g id="a_node20"><a xlink:href="../../da/d6b/ConfigurableParamHelper_8h.html" target="_top" xlink:title="CommonUtils/Configurable\lParamHelper.h">
<polygon fill="none" stroke="#000000" points="2076,-134.5 2076,-164.5 2224,-164.5 2224,-134.5 2076,-134.5"/>
<text text-anchor="start" x="2084" y="-152.5" font-family="Helvetica,sans-Serif" font-size="10.00" fill="#000000">CommonUtils/Configurable</text>
<text text-anchor="middle" x="2150" y="-141.5" font-family="Helvetica,sans-Serif" font-size="10.00" fill="#000000">ParamHelper.h</text>
</a>
</g>
</g>
<!-- Node11&#45;&gt;Node19 -->
<g id="edge21" class="edge">
<title>Node11&#45;&gt;Node19</title>
<path fill="none" stroke="#191970" d="M1864.1702,-201.4259C1913.9605,-192.5984 1990.1065,-179.0291 2065.6274,-165.2441"/>
<polygon fill="#191970" stroke="#191970" points="2066.5855,-168.627 2075.7934,-163.3864 2065.3271,-161.741 2066.5855,-168.627"/>
</g>
<!-- Node23 -->
<g id="node24" class="node">
<title>Node23</title>
<g id="a_node24"><a xlink:href="../../d9/d80/InteractionRecord_8h.html" target="_top" xlink:title="CommonDataFormat/Interaction\lRecord.h">
<polygon fill="none" stroke="#000000" points="1538,-134.5 1538,-164.5 1712,-164.5 1712,-134.5 1538,-134.5"/>
<text text-anchor="start" x="1546" y="-152.5" font-family="Helvetica,sans-Serif" font-size="10.00" fill="#000000">CommonDataFormat/Interaction</text>
<text text-anchor="middle" x="1625" y="-141.5" font-family="Helvetica,sans-Serif" font-size="10.00" fill="#000000">Record.h</text>
</a>
</g>
</g>
<!-- Node11&#45;&gt;Node23 -->
<g id="edge27" class="edge">
<title>Node11&#45;&gt;Node23</title>
<path fill="none" stroke="#191970" d="M1781.0938,-201.3906C1754.0857,-192.4123 1713.0585,-178.7735 1679.8431,-167.7316"/>
<polygon fill="#191970" stroke="#191970" points="1680.8496,-164.378 1670.2561,-164.5446 1678.6414,-171.0205 1680.8496,-164.378"/>
</g>
<!-- Node26 -->
<g id="node27" class="node">
<title>Node26</title>
<g id="a_node27"><a xlink:href="../../d4/d78/DataFormats_2Headers_2include_2Headers_2RAWDataHeader_8h.html" target="_top" xlink:title="Headers/RAWDataHeader.h">
<polygon fill="none" stroke="#000000" points="1908.5,-140 1908.5,-159 2057.5,-159 2057.5,-140 1908.5,-140"/>
<text text-anchor="middle" x="1983" y="-147" font-family="Helvetica,sans-Serif" font-size="10.00" fill="#000000">Headers/RAWDataHeader.h</text>
</a>
</g>
</g>
<!-- Node11&#45;&gt;Node26 -->
<g id="edge33" class="edge">
<title>Node11&#45;&gt;Node26</title>
<path fill="none" stroke="#191970" d="M1837.0313,-201.3906C1866.4851,-190.92 1913.7689,-174.1111 1946.5027,-162.4745"/>
<polygon fill="#191970" stroke="#191970" points="1947.9086,-165.6893 1956.1586,-159.0419 1945.5639,-159.0937 1947.9086,-165.6893"/>
</g>
<!-- Node27 -->
<g id="node28" class="node">
<title>Node27</title>
<g id="a_node28"><a xlink:href="../../de/da4/Triggers_8h.html" target="_top" xlink:title="Definition of the 32 Central Trigger System (CTS) Trigger Types defined in https://twiki.cern.ch/twiki/pub/ALICE/NoteForFEDevelopers/CTS_CRU_FE_interface.pdf. ">
<polygon fill="none" stroke="#000000" points="1730,-140 1730,-159 1890,-159 1890,-140 1730,-140"/>
<text text-anchor="middle" x="1810" y="-147" font-family="Helvetica,sans-Serif" font-size="10.00" fill="#000000">CommonConstants/Triggers.h</text>
</a>
</g>
</g>
<!-- Node11&#45;&gt;Node27 -->
<g id="edge35" class="edge">
<title>Node11&#45;&gt;Node27</title>
<path fill="none" stroke="#191970" d="M1810,-201.3906C1810,-192.8657 1810,-180.1392 1810,-169.4235"/>
<polygon fill="#191970" stroke="#191970" points="1813.5001,-169.2448 1810,-159.2449 1806.5001,-169.2449 1813.5001,-169.2448"/>
</g>
<!-- Node12&#45;&gt;Node13 -->
<g id="edge15" class="edge">
<title>Node12&#45;&gt;Node13</title>
<path fill="none" stroke="#191970" d="M2274.8908,-67.4639C2291.5425,-56.526 2314.0083,-41.769 2330.7442,-30.7759"/>
<polygon fill="#191970" stroke="#191970" points="2332.9425,-33.5195 2339.3791,-25.1039 2329.0994,-27.6688 2332.9425,-33.5195"/>
</g>
<!-- Node12&#45;&gt;Node14 -->
<g id="edge16" class="edge">
<title>Node12&#45;&gt;Node14</title>
<path fill="none" stroke="#191970" d="M2296.1186,-67.4508C2322.8115,-57.909 2357.3129,-44.7956 2387,-31 2387.8377,-30.6107 2388.6847,-30.2066 2389.5362,-29.7913"/>
<polygon fill="#191970" stroke="#191970" points="2391.3572,-32.7894 2398.6178,-25.0735 2388.1302,-26.5776 2391.3572,-32.7894"/>
</g>
<!-- Node15 -->
<g id="node16" class="node">
<title>Node15</title>
<polygon fill="none" stroke="#bfbfbf" points="2088.5,-6 2088.5,-25 2181.5,-25 2181.5,-6 2088.5,-6"/>
<text text-anchor="middle" x="2135" y="-13" font-family="Helvetica,sans-Serif" font-size="10.00" fill="#000000">unordered_map</text>
</g>
<!-- Node12&#45;&gt;Node15 -->
<g id="edge17" class="edge">
<title>Node12&#45;&gt;Node15</title>
<path fill="none" stroke="#191970" d="M2225.7429,-67.4639C2206.2887,-56.3234 2179.9161,-41.2212 2160.6161,-30.1691"/>
<polygon fill="#191970" stroke="#191970" points="2162.1882,-27.0361 2151.771,-25.1039 2158.7096,-33.1106 2162.1882,-27.0361"/>
</g>
<!-- Node16 -->
<g id="node17" class="node">
<title>Node16</title>
<polygon fill="none" stroke="#bfbfbf" points="2199.5,-.5 2199.5,-30.5 2312.5,-30.5 2312.5,-.5 2199.5,-.5"/>
<text text-anchor="start" x="2207.5" y="-18.5" font-family="Helvetica,sans-Serif" font-size="10.00" fill="#000000">boost/property_tree</text>
<text text-anchor="middle" x="2256" y="-7.5" font-family="Helvetica,sans-Serif" font-size="10.00" fill="#000000">/ptree.hpp</text>
</g>
<!-- Node12&#45;&gt;Node16 -->
<g id="edge18" class="edge">
<title>Node12&#45;&gt;Node16</title>
<path fill="none" stroke="#191970" d="M2252.9077,-67.2967C2253.3731,-59.5013 2253.9523,-49.7991 2254.4832,-40.9064"/>
<polygon fill="#191970" stroke="#191970" points="2257.9937,-40.834 2255.0959,-30.6432 2251.0061,-40.4168 2257.9937,-40.834"/>
</g>
<!-- Node17 -->
<g id="node18" class="node">
<title>Node17</title>
<polygon fill="none" stroke="#bfbfbf" points="1934.5,-6 1934.5,-25 1991.5,-25 1991.5,-6 1934.5,-6"/>
<text text-anchor="middle" x="1963" y="-13" font-family="Helvetica,sans-Serif" font-size="10.00" fill="#000000">typeinfo</text>
</g>
<!-- Node12&#45;&gt;Node17 -->
<g id="edge19" class="edge">
<title>Node12&#45;&gt;Node17</title>
<path fill="none" stroke="#191970" d="M2177.7038,-68.8287C2116.0423,-57.1914 2033.4024,-40.8401 2001,-31 1998.6991,-30.3013 1996.3444,-29.5173 1993.9901,-28.6829"/>
<polygon fill="#191970" stroke="#191970" points="1995.044,-25.3392 1984.4529,-25.0565 1992.5561,-31.8821 1995.044,-25.3392"/>
</g>
<!-- Node18 -->
<g id="node19" class="node">
<title>Node18</title>
<polygon fill="none" stroke="#bfbfbf" points="2010,-6 2010,-25 2070,-25 2070,-6 2010,-6"/>
<text text-anchor="middle" x="2040" y="-13" font-family="Helvetica,sans-Serif" font-size="10.00" fill="#000000">iostream</text>
</g>
<!-- Node12&#45;&gt;Node18 -->
<g id="edge20" class="edge">
<title>Node12&#45;&gt;Node18</title>
<path fill="none" stroke="#191970" d="M2197.8109,-67.4599C2163.772,-57.7206 2119.0689,-44.3953 2080,-31 2077.8821,-30.2738 2075.71,-29.5045 2073.5257,-28.7121"/>
<polygon fill="#191970" stroke="#191970" points="2074.593,-25.3746 2064.0005,-25.153 2072.1429,-31.9318 2074.593,-25.3746"/>
</g>
<!-- Node19&#45;&gt;Node12 -->
<g id="edge22" class="edge">
<title>Node19&#45;&gt;Node12</title>
<path fill="none" stroke="#191970" d="M2172.8908,-134.4639C2186.8352,-125.3044 2204.8567,-113.4667 2220.1762,-103.4038"/>
<polygon fill="#191970" stroke="#191970" points="2222.3961,-106.1333 2228.8327,-97.7177 2218.553,-100.2826 2222.3961,-106.1333"/>
</g>
<!-- Node19&#45;&gt;Node17 -->
<g id="edge25" class="edge">
<title>Node19&#45;&gt;Node17</title>
<path fill="none" stroke="#191970" d="M2150.8547,-134.2593C2151.0179,-115.8673 2148.3785,-85.1568 2131,-67 2089.5458,-23.6893 2057.7421,-50.3547 2001,-31 1999.0781,-30.3444 1997.1132,-29.6428 1995.1386,-28.9133"/>
<polygon fill="#191970" stroke="#191970" points="1995.9292,-25.4663 1985.34,-25.1201 1993.4021,-31.9942 1995.9292,-25.4663"/>
</g>
<!-- Node20 -->
<g id="node21" class="node">
<title>Node20</title>
<polygon fill="none" stroke="#bfbfbf" points="1911.5,-73 1911.5,-92 1968.5,-92 1968.5,-73 1911.5,-73"/>
<text text-anchor="middle" x="1940" y="-80" font-family="Helvetica,sans-Serif" font-size="10.00" fill="#000000">TClass.h</text>
</g>
<!-- Node19&#45;&gt;Node20 -->
<g id="edge23" class="edge">
<title>Node19&#45;&gt;Node20</title>
<path fill="none" stroke="#191970" d="M2094.9543,-134.4806C2060.9822,-124.851 2016.6555,-111.6351 1978,-98 1976.085,-97.3245 1974.1255,-96.6073 1972.155,-95.8661"/>
<polygon fill="#191970" stroke="#191970" points="1972.9554,-92.4212 1962.3673,-92.0413 1970.4075,-98.941 1972.9554,-92.4212"/>
</g>
<!-- Node21 -->
<g id="node22" class="node">
<title>Node21</title>
<polygon fill="none" stroke="#bfbfbf" points="1986.5,-73 1986.5,-92 2055.5,-92 2055.5,-73 1986.5,-73"/>
<text text-anchor="middle" x="2021" y="-80" font-family="Helvetica,sans-Serif" font-size="10.00" fill="#000000">type_traits</text>
</g>
<!-- Node19&#45;&gt;Node21 -->
<g id="edge24" class="edge">
<title>Node19&#45;&gt;Node21</title>
<path fill="none" stroke="#191970" d="M2121.0499,-134.4639C2099.3078,-123.1715 2069.7284,-107.8086 2048.3773,-96.7192"/>
<polygon fill="#191970" stroke="#191970" points="2049.9788,-93.6071 2039.4911,-92.1039 2046.7523,-99.8192 2049.9788,-93.6071"/>
</g>
<!-- Node22 -->
<g id="node23" class="node">
<title>Node22</title>
<polygon fill="none" stroke="#bfbfbf" points="2074,-73 2074,-92 2122,-92 2122,-73 2074,-73"/>
<text text-anchor="middle" x="2098" y="-80" font-family="Helvetica,sans-Serif" font-size="10.00" fill="#000000">TFile.h</text>
</g>
<!-- Node19&#45;&gt;Node22 -->
<g id="edge26" class="edge">
<title>Node19&#45;&gt;Node22</title>
<path fill="none" stroke="#191970" d="M2138.2004,-134.2967C2130.3345,-124.1618 2119.9673,-110.804 2111.7312,-100.1921"/>
<polygon fill="#191970" stroke="#191970" points="2114.312,-97.8089 2105.4158,-92.055 2108.7821,-102.1008 2114.312,-97.8089"/>
</g>
<!-- Node23&#45;&gt;Node7 -->
<g id="edge29" class="edge">
<title>Node23&#45;&gt;Node7</title>
<path fill="none" stroke="#191970" d="M1537.8644,-136.9731C1487.9962,-128.5526 1424.6707,-115.7242 1370,-98 1368.1487,-97.3998 1366.2644,-96.7274 1364.3802,-96.008"/>
<polygon fill="#191970" stroke="#191970" points="1365.6903,-92.7622 1355.114,-92.1356 1362.9911,-99.2209 1365.6903,-92.7622"/>
</g>
<!-- Node23&#45;&gt;Node8 -->
<g id="edge28" class="edge">
<title>Node23&#45;&gt;Node8</title>
<path fill="none" stroke="#191970" d="M1567.6452,-134.4217C1532.5455,-124.8203 1486.8695,-111.6547 1447,-98 1444.8718,-97.2711 1442.6897,-96.4926 1440.4976,-95.687"/>
<polygon fill="#191970" stroke="#191970" points="1441.5503,-92.3427 1430.9594,-92.0518 1439.0573,-98.8837 1441.5503,-92.3427"/>
</g>
<!-- Node23&#45;&gt;Node10 -->
<g id="edge32" class="edge">
<title>Node23&#45;&gt;Node10</title>
<path fill="none" stroke="#191970" d="M1608.2083,-134.2967C1596.5668,-123.7564 1581.0752,-109.7303 1569.1491,-98.9323"/>
<polygon fill="#191970" stroke="#191970" points="1571.3154,-96.1722 1561.5533,-92.055 1566.6171,-101.3613 1571.3154,-96.1722"/>
</g>
<!-- Node24 -->
<g id="node25" class="node">
<title>Node24</title>
<polygon fill="none" stroke="#bfbfbf" points="1664.5,-73 1664.5,-92 1711.5,-92 1711.5,-73 1664.5,-73"/>
<text text-anchor="middle" x="1688" y="-80" font-family="Helvetica,sans-Serif" font-size="10.00" fill="#000000">cmath</text>
</g>
<!-- Node23&#45;&gt;Node24 -->
<g id="edge30" class="edge">
<title>Node23&#45;&gt;Node24</title>
<path fill="none" stroke="#191970" d="M1639.2957,-134.2967C1649.0161,-123.9591 1661.8894,-110.2684 1671.9597,-99.5588"/>
<polygon fill="#191970" stroke="#191970" points="1674.715,-101.7378 1679.0155,-92.055 1669.6154,-96.9426 1674.715,-101.7378"/>
</g>
<!-- Node25 -->
<g id="node26" class="node">
<title>Node25</title>
<polygon fill="none" stroke="#bfbfbf" points="1785,-73 1785,-92 1835,-92 1835,-73 1785,-73"/>
<text text-anchor="middle" x="1810" y="-80" font-family="Helvetica,sans-Serif" font-size="10.00" fill="#000000">cstdint</text>
</g>
<!-- Node23&#45;&gt;Node25 -->
<g id="edge31" class="edge">
<title>Node23&#45;&gt;Node25</title>
<path fill="none" stroke="#191970" d="M1666.5176,-134.4639C1699.2973,-122.5923 1744.4991,-106.2219 1775.3532,-95.0478"/>
<polygon fill="#191970" stroke="#191970" points="1776.6221,-98.3107 1784.8327,-91.6146 1774.2385,-91.7291 1776.6221,-98.3107"/>
</g>
<!-- Node26&#45;&gt;Node25 -->
<g id="edge34" class="edge">
<title>Node26&#45;&gt;Node25</title>
<path fill="none" stroke="#191970" d="M1958.2133,-139.9005C1928.2808,-128.3082 1877.7761,-108.7486 1844.1645,-95.7313"/>
<polygon fill="#191970" stroke="#191970" points="1845.3298,-92.4294 1834.7407,-92.0817 1842.8018,-98.957 1845.3298,-92.4294"/>
</g>
<!-- Node27&#45;&gt;Node25 -->
<g id="edge36" class="edge">
<title>Node27&#45;&gt;Node25</title>
<path fill="none" stroke="#191970" d="M1810,-139.9005C1810,-130.149 1810,-114.7597 1810,-102.3695"/>
<polygon fill="#191970" stroke="#191970" points="1813.5001,-102.0816 1810,-92.0817 1806.5001,-102.0817 1813.5001,-102.0816"/>
</g>
<!-- Node29 -->
<g id="node30" class="node">
<title>Node29</title>
<g id="a_node30"><a xlink:href="../../d2/d45/GPUCommonRtypes_8h.html" target="_top" xlink:title="GPUCommonRtypes.h">
<polygon fill="none" stroke="#000000" points="1280.5,-201.5 1280.5,-220.5 1405.5,-220.5 1405.5,-201.5 1280.5,-201.5"/>
<text text-anchor="middle" x="1343" y="-208.5" font-family="Helvetica,sans-Serif" font-size="10.00" fill="#000000">GPUCommonRtypes.h</text>
</a>
</g>
</g>
<!-- Node28&#45;&gt;Node29 -->
<g id="edge38" class="edge">
<title>Node28&#45;&gt;Node29</title>
<path fill="none" stroke="#191970" d="M1378.4375,-262.8906C1372.3092,-253.917 1363.0015,-240.2879 1355.4628,-229.2491"/>
<polygon fill="#191970" stroke="#191970" points="1358.185,-227.029 1349.655,-220.7449 1352.4044,-230.9768 1358.185,-227.029"/>
</g>
<!-- Node29&#45;&gt;Node8 -->
<g id="edge39" class="edge">
<title>Node29&#45;&gt;Node8</title>
<path fill="none" stroke="#191970" d="M1347.8856,-201.3416C1358.614,-180.1323 1384.3936,-129.1679 1398.4564,-101.3669"/>
<polygon fill="#191970" stroke="#191970" points="1401.6671,-102.7736 1403.0577,-92.2705 1395.4208,-99.614 1401.6671,-102.7736"/>
</g>
<!-- Node35&#45;&gt;Node7 -->
<g id="edge55" class="edge">
<title>Node35&#45;&gt;Node7</title>
<path fill="none" stroke="#191970" d="M964.6014,-139.9304C975.8549,-137.8268 987.8304,-135.7171 999,-134 1133.0391,-113.3938 1171.4083,-134.5639 1302,-98 1303.9678,-97.449 1305.9661,-96.799 1307.9576,-96.0826"/>
<polygon fill="#191970" stroke="#191970" points="1309.7581,-99.1275 1317.686,-92.099 1307.1055,-92.6495 1309.7581,-99.1275"/>
</g>
<!-- Node35&#45;&gt;Node8 -->
<g id="edge53" class="edge">
<title>Node35&#45;&gt;Node8</title>
<path fill="none" stroke="#191970" d="M984.8161,-147.5647C1074.3159,-143.7075 1236.1813,-132.2047 1370,-98 1372.6275,-97.3284 1375.3136,-96.5139 1377.983,-95.6138"/>
<polygon fill="#191970" stroke="#191970" points="1379.298,-98.8588 1387.4416,-92.0815 1376.8491,-92.3012 1379.298,-98.8588"/>
</g>
<!-- Node36 -->
<g id="node37" class="node">
<title>Node36</title>
<polygon fill="none" stroke="#bfbfbf" points="265,-67.5 265,-97.5 429,-97.5 429,-67.5 265,-67.5"/>
<text text-anchor="start" x="273" y="-85.5" font-family="Helvetica,sans-Serif" font-size="10.00" fill="#000000">Math/GenVector/Displacement</text>
<text text-anchor="middle" x="347" y="-74.5" font-family="Helvetica,sans-Serif" font-size="10.00" fill="#000000">Vector3D.h</text>
</g>
<!-- Node35&#45;&gt;Node36 -->
<g id="edge48" class="edge">
<title>Node35&#45;&gt;Node36</title>
<path fill="none" stroke="#191970" d="M849.4122,-143.5562C758.5037,-135.2667 591.5875,-119.0114 439.3126,-98.1344"/>
<polygon fill="#191970" stroke="#191970" points="439.6894,-94.6533 429.3047,-96.7526 438.732,-101.5875 439.6894,-94.6533"/>
</g>
<!-- Node37 -->
<g id="node38" class="node">
<title>Node37</title>
<polygon fill="none" stroke="#bfbfbf" points="447.5,-73 447.5,-92 636.5,-92 636.5,-73 447.5,-73"/>
<text text-anchor="middle" x="542" y="-80" font-family="Helvetica,sans-Serif" font-size="10.00" fill="#000000">Math/GenVector/PositionVector3D.h</text>
</g>
<!-- Node35&#45;&gt;Node37 -->
<g id="edge49" class="edge">
<title>Node35&#45;&gt;Node37</title>
<path fill="none" stroke="#191970" d="M863.6699,-139.9717C795.5933,-127.8087 677.9635,-106.7921 605.3821,-93.8243"/>
<polygon fill="#191970" stroke="#191970" points="605.9091,-90.3631 595.4494,-92.0496 604.6779,-97.254 605.9091,-90.3631"/>
</g>
<!-- Node38 -->
<g id="node39" class="node">
<title>Node38</title>
<polygon fill="none" stroke="#bfbfbf" points="655,-73 655,-92 815,-92 815,-73 655,-73"/>
<text text-anchor="middle" x="735" y="-80" font-family="Helvetica,sans-Serif" font-size="10.00" fill="#000000">Math/GenVector/Rotation3D.h</text>
</g>
<!-- Node35&#45;&gt;Node38 -->
<g id="edge50" class="edge">
<title>Node35&#45;&gt;Node38</title>
<path fill="none" stroke="#191970" d="M890.9238,-139.9005C859.2989,-128.2584 805.8456,-108.5805 770.4876,-95.5641"/>
<polygon fill="#191970" stroke="#191970" points="771.6213,-92.2519 761.0278,-92.0817 769.203,-98.8209 771.6213,-92.2519"/>
</g>
<!-- Node39 -->
<g id="node40" class="node">
<title>Node39</title>
<polygon fill="none" stroke="#bfbfbf" points="833,-73 833,-92 1001,-92 1001,-73 833,-73"/>
<text text-anchor="middle" x="917" y="-80" font-family="Helvetica,sans-Serif" font-size="10.00" fill="#000000">Math/GenVector/Transform3D.h</text>
</g>
<!-- Node35&#45;&gt;Node39 -->
<g id="edge51" class="edge">
<title>Node35&#45;&gt;Node39</title>
<path fill="none" stroke="#191970" d="M917,-139.9005C917,-130.149 917,-114.7597 917,-102.3695"/>
<polygon fill="#191970" stroke="#191970" points="920.5001,-102.0816 917,-92.0817 913.5001,-102.0817 920.5001,-102.0816"/>
</g>
<!-- Node40 -->
<g id="node41" class="node">
<title>Node40</title>
<polygon fill="none" stroke="#bfbfbf" points="1019.5,-73 1019.5,-92 1192.5,-92 1192.5,-73 1019.5,-73"/>
<text text-anchor="middle" x="1106" y="-80" font-family="Helvetica,sans-Serif" font-size="10.00" fill="#000000">Math/GenVector/Translation3D.h</text>
</g>
<!-- Node35&#45;&gt;Node40 -->
<g id="edge52" class="edge">
<title>Node35&#45;&gt;Node40</title>
<path fill="none" stroke="#191970" d="M944.0791,-139.9005C976.9203,-128.2584 1032.4296,-108.5805 1069.1475,-95.5641"/>
<polygon fill="#191970" stroke="#191970" points="1070.7153,-98.7218 1078.9711,-92.0817 1068.3764,-92.1241 1070.7153,-98.7218"/>
</g>
<!-- Node41 -->
<g id="node42" class="node">
<title>Node41</title>
<polygon fill="none" stroke="#bfbfbf" points="1211,-73 1211,-92 1293,-92 1293,-73 1211,-73"/>
<text text-anchor="middle" x="1252" y="-80" font-family="Helvetica,sans-Serif" font-size="10.00" fill="#000000">TGeoMatrix.h</text>
</g>
<!-- Node35&#45;&gt;Node41 -->
<g id="edge54" class="edge">
<title>Node35&#45;&gt;Node41</title>
<path fill="none" stroke="#191970" d="M966.8511,-139.9836C977.4588,-137.9848 988.5967,-135.9056 999,-134 1089.1303,-117.4903 1112.9543,-119.608 1202,-98 1205.8156,-97.0741 1209.7674,-96.0193 1213.7007,-94.9054"/>
<polygon fill="#191970" stroke="#191970" points="1214.7529,-98.2441 1223.3518,-92.0547 1212.77,-91.5309 1214.7529,-98.2441"/>
</g>
<!-- Node42 -->
<g id="node43" class="node">
<title>Node42</title>
<g id="a_node43"><a xlink:href="../../d2/dd0/Cartesian2D_8h.html" target="_top" xlink:title="MathUtils/Cartesian2D.h">
<polygon fill="none" stroke="#000000" points="111.5,-73 111.5,-92 246.5,-92 246.5,-73 111.5,-73"/>
<text text-anchor="middle" x="179" y="-80" font-family="Helvetica,sans-Serif" font-size="10.00" fill="#000000">MathUtils/Cartesian2D.h</text>
</a>
</g>
</g>
<!-- Node35&#45;&gt;Node42 -->
<g id="edge56" class="edge">
<title>Node35&#45;&gt;Node42</title>
<path fill="none" stroke="#191970" d="M849.1481,-146.9221C729.0712,-141.7577 471.4737,-127.9694 256,-98 248.0303,-96.8915 239.6436,-95.4705 231.4556,-93.94"/>
<polygon fill="#191970" stroke="#191970" points="232.0911,-90.4981 221.6079,-92.0324 230.7598,-97.3704 232.0911,-90.4981"/>
</g>
<!-- Node43 -->
<g id="node44" class="node">
<title>Node43</title>
<polygon fill="none" stroke="#bfbfbf" points="0,-.5 0,-30.5 164,-30.5 164,-.5 0,-.5"/>
<text text-anchor="start" x="8" y="-18.5" font-family="Helvetica,sans-Serif" font-size="10.00" fill="#000000">Math/GenVector/Displacement</text>
<text text-anchor="middle" x="82" y="-7.5" font-family="Helvetica,sans-Serif" font-size="10.00" fill="#000000">Vector2D.h</text>
</g>
<!-- Node42&#45;&gt;Node43 -->
<g id="edge57" class="edge">
<title>Node42&#45;&gt;Node43</title>
<path fill="none" stroke="#191970" d="M165.1023,-72.9005C151.3265,-63.3853 129.7795,-48.5023 112.0779,-36.2755"/>
<polygon fill="#191970" stroke="#191970" points="113.9651,-33.3253 103.7479,-30.5218 109.9868,-39.0849 113.9651,-33.3253"/>
</g>
<!-- Node44 -->
<g id="node45" class="node">
<title>Node44</title>
<polygon fill="none" stroke="#bfbfbf" points="182.5,-6 182.5,-25 371.5,-25 371.5,-6 182.5,-6"/>
<text text-anchor="middle" x="277" y="-13" font-family="Helvetica,sans-Serif" font-size="10.00" fill="#000000">Math/GenVector/PositionVector2D.h</text>
</g>
<!-- Node42&#45;&gt;Node44 -->
<g id="edge58" class="edge">
<title>Node42&#45;&gt;Node44</title>
<path fill="none" stroke="#191970" d="M193.041,-72.9005C209.1238,-61.9052 235.6906,-43.7422 254.6316,-30.7927"/>
<polygon fill="#191970" stroke="#191970" points="256.7052,-33.6148 262.985,-25.0817 252.7545,-27.8362 256.7052,-33.6148"/>
</g>
</g>
</svg>
        <g id="navigator" transform="translate(0 0)" fill="#404254">
                <rect fill="#f2f5e9" fill-opacity="0.5" stroke="#606060" stroke-width=".5" x="0" y="0" width="60" height="60"/>
                <use id="zoomplus" xlink:href="#zoomPlus" x="17" y="9" onmousedown="handleZoom(evt,'in')"/>
                <use id="zoomminus" xlink:href="#zoomMin" x="42" y="9" onmousedown="handleZoom(evt,'out')"/>
                <use id="reset" xlink:href="#resetDef" x="30" y="36" onmousedown="handleReset()"/>
                <g id="arrowUp" xlink:href="#dirArrow" transform="translate(30 24)" onmousedown="handlePan(0,-1)">
                  <use xlink:href="#rim" fill="#404040">
                        <set attributeName="fill" to="#808080" begin="arrowUp.mouseover" end="arrowUp.mouseout"/>
                  </use>
                  <path fill="none" stroke="white" stroke-width="1.5" d="M0,-3.0v7 M-2.5,-0.5L0,-3.0L2.5,-0.5"/>
                </g>
                <g id="arrowRight" xlink:href="#dirArrow" transform="rotate(90) translate(36 -43)" onmousedown="handlePan(1,0)">
                  <use xlink:href="#rim" fill="#404040">
                        <set attributeName="fill" to="#808080" begin="arrowRight.mouseover" end="arrowRight.mouseout"/>
                  </use>
                  <path fill="none" stroke="white" stroke-width="1.5" d="M0,-3.0v7 M-2.5,-0.5L0,-3.0L2.5,-0.5"/>
                </g>
                <g id="arrowDown" xlink:href="#dirArrow" transform="rotate(180) translate(-30 -48)" onmousedown="handlePan(0,1)">
                  <use xlink:href="#rim" fill="#404040">
                        <set attributeName="fill" to="#808080" begin="arrowDown.mouseover" end="arrowDown.mouseout"/>
                  </use>
                  <path fill="none" stroke="white" stroke-width="1.5" d="M0,-3.0v7 M-2.5,-0.5L0,-3.0L2.5,-0.5"/>
                </g>
                <g id="arrowLeft" xlink:href="#dirArrow" transform="rotate(270) translate(-36 17)" onmousedown="handlePan(-1,0)">
                  <use xlink:href="#rim" fill="#404040">
                        <set attributeName="fill" to="#808080" begin="arrowLeft.mouseover" end="arrowLeft.mouseout"/>
                  </use>
                  <path fill="none" stroke="white" stroke-width="1.5" d="M0,-3.0v7 M-2.5,-0.5L0,-3.0L2.5,-0.5"/>
                </g>
        </g>
        <svg viewBox="0 0 15 15" width="100%" height="30px" preserveAspectRatio="xMaxYMin meet">
         <g id="arrow_out" transform="scale(0.3 0.3)">
          <a xlink:href="Strip_8cxx__incl_org.svg" target="_base">
           <rect id="button" ry="5" rx="5" y="6" x="6" height="38" width="38"
                fill="#f2f5e9" fill-opacity="0.5" stroke="#606060" stroke-width="1.0"/>
           <path id="arrow"
             d="M 11.500037,31.436501 C 11.940474,20.09759 22.043105,11.32322 32.158766,21.979434 L 37.068811,17.246167 C 37.068811,17.246167 37.088388,32 37.088388,32 L 22.160133,31.978069 C 22.160133,31.978069 26.997745,27.140456 26.997745,27.140456 C 18.528582,18.264221 13.291696,25.230495 11.500037,31.436501 z"
             style="fill:#404040;"/>
          </a>
         </g>
        </svg>
</svg>
