<?xml version="1.0" encoding="UTF-8" standalone="no"?>
<!DOCTYPE svg PUBLIC "-//W3C//DTD SVG 1.1//EN"
 "http://www.w3.org/Graphics/SVG/1.1/DTD/svg11.dtd">
<!-- Generated by graphviz version 2.40.1 (20161225.0304)
 -->
<!-- Title: GPUCA_NAMESPACE::gpu::GPUSettingsRec Pages: 1 -->
<!--zoomable 358 -->
<svg id="main" version="1.1" xmlns="http://www.w3.org/2000/svg" xmlns:xlink="http://www.w3.org/1999/xlink" xml:space="preserve" onload="init(evt)">
<style type="text/css"><![CDATA[
.edge:hover path { stroke: red; }
.edge:hover polygon { stroke: red; fill: red; }
]]></style>
<script type="text/javascript"><![CDATA[
var edges = document.getElementsByTagName('g');
if (edges && edges.length) {
  for (var i=0;i<edges.length;i++) {
    if (edges[i].id.substr(0,4)=='edge') {
      edges[i].setAttribute('class','edge');
    }
  }
}
]]></script>
        <defs>
                <circle id="rim" cx="0" cy="0" r="7"/>
                <circle id="rim2" cx="0" cy="0" r="3.5"/>
                <g id="zoomPlus">
                        <use xlink:href="#rim" fill="#404040">
                                <set attributeName="fill" to="#808080" begin="zoomplus.mouseover" end="zoomplus.mouseout"/>
                        </use>
                        <path d="M-4,0h8M0,-4v8" fill="none" stroke="white" stroke-width="1.5" pointer-events="none"/>
                </g>
                <g id="zoomMin">
                        <use xlink:href="#rim" fill="#404040">
                                <set attributeName="fill" to="#808080" begin="zoomminus.mouseover" end="zoomminus.mouseout"/>
                        </use>
                        <path d="M-4,0h8" fill="none" stroke="white" stroke-width="1.5" pointer-events="none"/>
                </g>
                <g id="dirArrow">
                        <path fill="none" stroke="white" stroke-width="1.5" d="M0,-3.0v7 M-2.5,-0.5L0,-3.0L2.5,-0.5"/>
                </g>
               <g id="resetDef">
                       <use xlink:href="#rim2" fill="#404040">
                               <set attributeName="fill" to="#808080" begin="reset.mouseover" end="reset.mouseout"/>
                       </use>
               </g>
        </defs>

<script type="text/javascript">
var viewWidth = 586;
var viewHeight = 358;
var sectionId = 'dynsection-0';
</script>
<script xlink:href="../../svgpan.js"/>
<svg id="graph" class="graph">
<g id="viewport">
<title>GPUCA_NAMESPACE::gpu::GPUSettingsRec</title>
<!-- Node1 -->
<g id="node1" class="node">
<title>Node1</title>
<polygon fill="#bfbfbf" stroke="#000000" points="168.5,-.5 168.5,-123.5 321.5,-123.5 321.5,-.5 168.5,-.5"/>
<text text-anchor="start" x="176.5" y="-111.5" font-family="Helvetica,sans-Serif" font-size="10.00" fill="#000000">GPUCA_NAMESPACE::gpu</text>
<text text-anchor="middle" x="245" y="-100.5" font-family="Helvetica,sans-Serif" font-size="10.00" fill="#000000">::GPUSettingsRec</text>
<polyline fill="none" stroke="#000000" points="168.5,-93.5 321.5,-93.5 "/>
<text text-anchor="start" x="176.5" y="-81.5" font-family="Helvetica,sans-Serif" font-size="10.00" fill="#000000">+ dEdxTruncLow</text>
<text text-anchor="start" x="176.5" y="-70.5" font-family="Helvetica,sans-Serif" font-size="10.00" fill="#000000">+ tpcRejectionMode</text>
<text text-anchor="start" x="176.5" y="-59.5" font-family="Helvetica,sans-Serif" font-size="10.00" fill="#000000">+ tpcCompressionSortOrder</text>
<text text-anchor="start" x="176.5" y="-48.5" font-family="Helvetica,sans-Serif" font-size="10.00" fill="#000000">+ dropLoopers</text>
<polyline fill="none" stroke="#000000" points="168.5,-41.5 321.5,-41.5 "/>
<text text-anchor="start" x="176.5" y="-29.5" font-family="Helvetica,sans-Serif" font-size="10.00" fill="#000000">+ GPUSettingsRec()</text>
<text text-anchor="start" x="176.5" y="-18.5" font-family="Helvetica,sans-Serif" font-size="10.00" fill="#000000">+ SetDefaults()</text>
<text text-anchor="start" x="176.5" y="-7.5" font-family="Helvetica,sans-Serif" font-size="10.00" fill="#000000">+ SetMinTrackPt()</text>
</g>
<!-- Node2 -->
<g id="node2" class="node">
<title>Node2</title>
<polygon fill="none" stroke="#bfbfbf" points="0,-292.5 0,-349.5 38,-349.5 38,-292.5 0,-292.5"/>
<text text-anchor="middle" x="19" y="-337.5" font-family="Helvetica,sans-Serif" font-size="10.00" fill="#000000">char</text>
<polyline fill="none" stroke="#bfbfbf" points="0,-330.5 38,-330.5 "/>
<text text-anchor="middle" x="19" y="-318.5" font-family="Helvetica,sans-Serif" font-size="10.00" fill="#000000"> </text>
<polyline fill="none" stroke="#bfbfbf" points="0,-311.5 38,-311.5 "/>
<text text-anchor="middle" x="19" y="-299.5" font-family="Helvetica,sans-Serif" font-size="10.00" fill="#000000"> </text>
</g>
<!-- Node2&#45;&gt;Node1 -->
<g id="edge1" class="edge">
<title>Node2&#45;&gt;Node1</title>
<path fill="none" stroke="#404040" d="M11.1783,-292.4431C2.5416,-254.2518 -6.2397,-186.2341 26,-142 42.2425,-119.7147 103.2326,-98.4895 156.7366,-83.5088"/>
<polygon fill="none" stroke="#404040" points="156.8009,-83.4912 161.5277,-78.0454 168.3727,-80.314 163.6458,-85.7599 156.8009,-83.4912"/>
<text text-anchor="middle" x="89.5" y="-266" font-family="Helvetica,sans-Serif" font-size="10.00" fill="#000000"> +NonConsecutiveIDs</text>
<text text-anchor="middle" x="89.5" y="-255" font-family="Helvetica,sans-Serif" font-size="10.00" fill="#000000">+fitPropagateBzOnly</text>
<text text-anchor="start" x="26" y="-244" font-family="Helvetica,sans-Serif" font-size="10.00" fill="#000000">+loopInterpolationInExtra</text>
<text text-anchor="middle" x="89.5" y="-233" font-family="Helvetica,sans-Serif" font-size="10.00" fill="#000000">Pass</text>
<text text-anchor="middle" x="89.5" y="-222" font-family="Helvetica,sans-Serif" font-size="10.00" fill="#000000">+RejectMode</text>
<text text-anchor="middle" x="89.5" y="-211" font-family="Helvetica,sans-Serif" font-size="10.00" fill="#000000">+ForceEarlyTPCTransform</text>
<text text-anchor="middle" x="89.5" y="-200" font-family="Helvetica,sans-Serif" font-size="10.00" fill="#000000">+NWays</text>
<text text-anchor="middle" x="89.5" y="-189" font-family="Helvetica,sans-Serif" font-size="10.00" fill="#000000">+NWaysOuter</text>
<text text-anchor="middle" x="89.5" y="-178" font-family="Helvetica,sans-Serif" font-size="10.00" fill="#000000">+GlobalTracking</text>
<text text-anchor="middle" x="89.5" y="-167" font-family="Helvetica,sans-Serif" font-size="10.00" fill="#000000">+retryRefit</text>
<text text-anchor="middle" x="89.5" y="-156" font-family="Helvetica,sans-Serif" font-size="10.00" fill="#000000">+fitInProjections</text>
<text text-anchor="middle" x="89.5" y="-145" font-family="Helvetica,sans-Serif" font-size="10.00" fill="#000000">...</text>
</g>
<!-- Node3 -->
<g id="node3" class="node">
<title>Node3</title>
<g id="a_node3"><a xlink:href="../../d4/dc3/classfloat.html" target="_top" xlink:title="{float\n||}">
<polygon fill="none" stroke="#000000" points="150,-292.5 150,-349.5 188,-349.5 188,-292.5 150,-292.5"/>
<text text-anchor="middle" x="169" y="-337.5" font-family="Helvetica,sans-Serif" font-size="10.00" fill="#000000">float</text>
<polyline fill="none" stroke="#000000" points="150,-330.5 188,-330.5 "/>
<text text-anchor="middle" x="169" y="-318.5" font-family="Helvetica,sans-Serif" font-size="10.00" fill="#000000"> </text>
<polyline fill="none" stroke="#000000" points="150,-311.5 188,-311.5 "/>
<text text-anchor="middle" x="169" y="-299.5" font-family="Helvetica,sans-Serif" font-size="10.00" fill="#000000"> </text>
</a>
</g>
</g>
<!-- Node3&#45;&gt;Node1 -->
<g id="edge2" class="edge">
<title>Node3&#45;&gt;Node1</title>
<path fill="none" stroke="#404040" d="M162.9135,-292.1856C156.5951,-255.7581 150.1473,-191.796 170,-142 171.0708,-139.3142 172.2785,-136.6655 173.6031,-134.059"/>
<polygon fill="none" stroke="#404040" points="173.6479,-133.9815 173.1892,-126.785 179.6558,-123.5937 180.1144,-130.7902 173.6479,-133.9815"/>
<text text-anchor="middle" x="234.5" y="-249.5" font-family="Helvetica,sans-Serif" font-size="10.00" fill="#000000"> +tpcRejectQPt</text>
<text text-anchor="start" x="170" y="-238.5" font-family="Helvetica,sans-Serif" font-size="10.00" fill="#000000">+ClusterError2Correction</text>
<text text-anchor="middle" x="234.5" y="-227.5" font-family="Helvetica,sans-Serif" font-size="10.00" fill="#000000">Z</text>
<text text-anchor="middle" x="234.5" y="-216.5" font-family="Helvetica,sans-Serif" font-size="10.00" fill="#000000">+NeighboursSearchArea</text>
<text text-anchor="middle" x="234.5" y="-205.5" font-family="Helvetica,sans-Serif" font-size="10.00" fill="#000000">+TrackReferenceX</text>
<text text-anchor="middle" x="234.5" y="-194.5" font-family="Helvetica,sans-Serif" font-size="10.00" fill="#000000">+SearchWindowDZDR</text>
<text text-anchor="middle" x="234.5" y="-183.5" font-family="Helvetica,sans-Serif" font-size="10.00" fill="#000000">+MaxTrackQPt</text>
<text text-anchor="middle" x="234.5" y="-172.5" font-family="Helvetica,sans-Serif" font-size="10.00" fill="#000000">+HitPickUpFactor</text>
<text text-anchor="middle" x="234.5" y="-161.5" font-family="Helvetica,sans-Serif" font-size="10.00" fill="#000000">+ClusterError2CorrectionY</text>
</g>
<!-- Node4 -->
<g id="node4" class="node">
<title>Node4</title>
<polygon fill="none" stroke="#bfbfbf" points="306.5,-292.5 306.5,-349.5 335.5,-349.5 335.5,-292.5 306.5,-292.5"/>
<text text-anchor="middle" x="321" y="-337.5" font-family="Helvetica,sans-Serif" font-size="10.00" fill="#000000">int</text>
<polyline fill="none" stroke="#bfbfbf" points="306.5,-330.5 335.5,-330.5 "/>
<text text-anchor="middle" x="321" y="-318.5" font-family="Helvetica,sans-Serif" font-size="10.00" fill="#000000"> </text>
<polyline fill="none" stroke="#bfbfbf" points="306.5,-311.5 335.5,-311.5 "/>
<text text-anchor="middle" x="321" y="-299.5" font-family="Helvetica,sans-Serif" font-size="10.00" fill="#000000"> </text>
</g>
<!-- Node4&#45;&gt;Node1 -->
<g id="edge3" class="edge">
<title>Node4&#45;&gt;Node1</title>
<path fill="none" stroke="#404040" d="M321.5458,-292.4376C321.3354,-256.2731 317.9263,-192.5855 299,-142 298.1054,-139.6091 297.1261,-137.2194 296.0753,-134.8393"/>
<polygon fill="none" stroke="#404040" points="295.9512,-134.585 289.7241,-130.9486 290.6857,-123.8019 296.9128,-127.4383 295.9512,-134.585"/>
<text text-anchor="middle" x="372" y="-205.5" font-family="Helvetica,sans-Serif" font-size="10.00" fill="#000000"> +MinNTrackClusters</text>
</g>
<!-- Node5 -->
<g id="node5" class="node">
<title>Node5</title>
<polygon fill="none" stroke="#bfbfbf" points="415.5,-292.5 415.5,-349.5 476.5,-349.5 476.5,-292.5 415.5,-292.5"/>
<text text-anchor="middle" x="446" y="-337.5" font-family="Helvetica,sans-Serif" font-size="10.00" fill="#000000">unsigned</text>
<polyline fill="none" stroke="#bfbfbf" points="415.5,-330.5 476.5,-330.5 "/>
<text text-anchor="middle" x="446" y="-318.5" font-family="Helvetica,sans-Serif" font-size="10.00" fill="#000000"> </text>
<polyline fill="none" stroke="#bfbfbf" points="415.5,-311.5 476.5,-311.5 "/>
<text text-anchor="middle" x="446" y="-299.5" font-family="Helvetica,sans-Serif" font-size="10.00" fill="#000000"> </text>
</g>
<!-- Node5&#45;&gt;Node1 -->
<g id="edge4" class="edge">
<title>Node5&#45;&gt;Node1</title>
<path fill="none" stroke="#404040" d="M450.4921,-292.4679C454.8669,-254.3046 456.7495,-186.3186 424,-142 402.1946,-112.4917 367.0169,-93.6496 333.5939,-81.7231"/>
<polygon fill="none" stroke="#404040" points="333.2457,-81.6062 326.2846,-83.4885 321.8697,-77.7868 328.8309,-75.9045 333.2457,-81.6062"/>
<text text-anchor="middle" x="515" y="-260.5" font-family="Helvetica,sans-Serif" font-size="10.00" fill="#000000"> +bz0Pt</text>
<text text-anchor="middle" x="515" y="-249.5" font-family="Helvetica,sans-Serif" font-size="10.00" fill="#000000">+tpcCompressionModes</text>
<text text-anchor="middle" x="515" y="-238.5" font-family="Helvetica,sans-Serif" font-size="10.00" fill="#000000">+tpcZSthreshold</text>
<text text-anchor="middle" x="515" y="-227.5" font-family="Helvetica,sans-Serif" font-size="10.00" fill="#000000">+mergerCovSource</text>
<text text-anchor="middle" x="515" y="-216.5" font-family="Helvetica,sans-Serif" font-size="10.00" fill="#000000">+fwdTPCDigitsAsClusters</text>
<text text-anchor="middle" x="515" y="-205.5" font-family="Helvetica,sans-Serif" font-size="10.00" fill="#000000">+tpcSigBitsWidth</text>
<text text-anchor="middle" x="515" y="-194.5" font-family="Helvetica,sans-Serif" font-size="10.00" fill="#000000">+dEdxTruncHigh</text>
<text text-anchor="middle" x="515" y="-183.5" font-family="Helvetica,sans-Serif" font-size="10.00" fill="#000000">+mergerInterpolateErrors</text>
<text text-anchor="middle" x="515" y="-172.5" font-family="Helvetica,sans-Serif" font-size="10.00" fill="#000000">+tpcSigBitsCharge</text>
<text text-anchor="middle" x="515" y="-161.5" font-family="Helvetica,sans-Serif" font-size="10.00" fill="#000000">+DisableRefitAttachment</text>
<text text-anchor="middle" x="515" y="-150.5" font-family="Helvetica,sans-Serif" font-size="10.00" fill="#000000">...</text>
</g>
</g>
</svg>
        <g id="navigator" transform="translate(0 0)" fill="#404254">
                <rect fill="#f2f5e9" fill-opacity="0.5" stroke="#606060" stroke-width=".5" x="0" y="0" width="60" height="60"/>
                <use id="zoomplus" xlink:href="#zoomPlus" x="17" y="9" onmousedown="handleZoom(evt,'in')"/>
                <use id="zoomminus" xlink:href="#zoomMin" x="42" y="9" onmousedown="handleZoom(evt,'out')"/>
                <use id="reset" xlink:href="#resetDef" x="30" y="36" onmousedown="handleReset()"/>
                <g id="arrowUp" xlink:href="#dirArrow" transform="translate(30 24)" onmousedown="handlePan(0,-1)">
                  <use xlink:href="#rim" fill="#404040">
                        <set attributeName="fill" to="#808080" begin="arrowUp.mouseover" end="arrowUp.mouseout"/>
                  </use>
                  <path fill="none" stroke="white" stroke-width="1.5" d="M0,-3.0v7 M-2.5,-0.5L0,-3.0L2.5,-0.5"/>
                </g>
                <g id="arrowRight" xlink:href="#dirArrow" transform="rotate(90) translate(36 -43)" onmousedown="handlePan(1,0)">
                  <use xlink:href="#rim" fill="#404040">
                        <set attributeName="fill" to="#808080" begin="arrowRight.mouseover" end="arrowRight.mouseout"/>
                  </use>
                  <path fill="none" stroke="white" stroke-width="1.5" d="M0,-3.0v7 M-2.5,-0.5L0,-3.0L2.5,-0.5"/>
                </g>
                <g id="arrowDown" xlink:href="#dirArrow" transform="rotate(180) translate(-30 -48)" onmousedown="handlePan(0,1)">
                  <use xlink:href="#rim" fill="#404040">
                        <set attributeName="fill" to="#808080" begin="arrowDown.mouseover" end="arrowDown.mouseout"/>
                  </use>
                  <path fill="none" stroke="white" stroke-width="1.5" d="M0,-3.0v7 M-2.5,-0.5L0,-3.0L2.5,-0.5"/>
                </g>
                <g id="arrowLeft" xlink:href="#dirArrow" transform="rotate(270) translate(-36 17)" onmousedown="handlePan(-1,0)">
                  <use xlink:href="#rim" fill="#404040">
                        <set attributeName="fill" to="#808080" begin="arrowLeft.mouseover" end="arrowLeft.mouseout"/>
                  </use>
                  <path fill="none" stroke="white" stroke-width="1.5" d="M0,-3.0v7 M-2.5,-0.5L0,-3.0L2.5,-0.5"/>
                </g>
        </g>
        <svg viewBox="0 0 15 15" width="100%" height="30px" preserveAspectRatio="xMaxYMin meet">
         <g id="arrow_out" transform="scale(0.3 0.3)">
          <a xlink:href="structGPUCA__NAMESPACE_1_1gpu_1_1GPUSettingsRec__coll__graph_org.svg" target="_base">
           <rect id="button" ry="5" rx="5" y="6" x="6" height="38" width="38"
                fill="#f2f5e9" fill-opacity="0.5" stroke="#606060" stroke-width="1.0"/>
           <path id="arrow"
             d="M 11.500037,31.436501 C 11.940474,20.09759 22.043105,11.32322 32.158766,21.979434 L 37.068811,17.246167 C 37.068811,17.246167 37.088388,32 37.088388,32 L 22.160133,31.978069 C 22.160133,31.978069 26.997745,27.140456 26.997745,27.140456 C 18.528582,18.264221 13.291696,25.230495 11.500037,31.436501 z"
             style="fill:#404040;"/>
          </a>
         </g>
        </svg>
</svg>
