<?xml version="1.0" encoding="UTF-8" standalone="no"?>
<!DOCTYPE svg PUBLIC "-//W3C//DTD SVG 1.1//EN"
 "http://www.w3.org/Graphics/SVG/1.1/DTD/svg11.dtd">
<!-- Generated by graphviz version 2.40.1 (20161225.0304)
 -->
<!-- Title: /home/travis/build/AliceO2Group/AliceO2/GPU/GPUTracking/Base/GPUReconstructionConvert.cxx Pages: 1 -->
<svg width="1640pt" height="453pt"
 viewBox="0.00 0.00 1639.50 453.00" xmlns="http://www.w3.org/2000/svg" xmlns:xlink="http://www.w3.org/1999/xlink">
<g id="graph0" class="graph" transform="scale(1 1) rotate(0) translate(4 449)">
<title>/home/travis/build/AliceO2Group/AliceO2/GPU/GPUTracking/Base/GPUReconstructionConvert.cxx</title>
<!-- Node0 -->
<g id="node1" class="node">
<title>Node0</title>
<polygon fill="#bfbfbf" stroke="#000000" points="1015.5,-392.5 1015.5,-444.5 1186.5,-444.5 1186.5,-392.5 1015.5,-392.5"/>
<text text-anchor="start" x="1023.5" y="-432.5" font-family="Helvetica,sans-Serif" font-size="10.00" fill="#000000">/home/travis/build</text>
<text text-anchor="start" x="1023.5" y="-421.5" font-family="Helvetica,sans-Serif" font-size="10.00" fill="#000000">/AliceO2Group/AliceO2</text>
<text text-anchor="start" x="1023.5" y="-410.5" font-family="Helvetica,sans-Serif" font-size="10.00" fill="#000000">/GPU/GPUTracking/Base</text>
<text text-anchor="middle" x="1101" y="-399.5" font-family="Helvetica,sans-Serif" font-size="10.00" fill="#000000">/GPUReconstructionConvert.cxx</text>
</g>
<!-- Node1 -->
<g id="node2" class="node">
<title>Node1</title>
<g id="a_node2"><a xlink:href="../../d1/dfa/GPUReconstructionConvert_8h.html" target="_top" xlink:title="GPUReconstructionConvert.h">
<polygon fill="none" stroke="#000000" points="741.5,-168.5 741.5,-187.5 898.5,-187.5 898.5,-168.5 741.5,-168.5"/>
<text text-anchor="middle" x="820" y="-175.5" font-family="Helvetica,sans-Serif" font-size="10.00" fill="#000000">GPUReconstructionConvert.h</text>
</a>
</g>
</g>
<!-- Node0&#45;&gt;Node1 -->
<g id="edge1" class="edge">
<title>Node0&#45;&gt;Node1</title>
<path fill="none" stroke="#191970" d="M1048.4138,-392.3735C964.3004,-350.0557 807.4282,-268.7573 793,-244 784.0003,-228.5574 793.7391,-209.5412 803.9432,-195.8939"/>
<polygon fill="#191970" stroke="#191970" points="806.9355,-197.7612 810.5236,-187.7924 801.5021,-193.3478 806.9355,-197.7612"/>
</g>
<!-- Node13 -->
<g id="node14" class="node">
<title>Node13</title>
<g id="a_node14"><a xlink:href="../../d4/db1/TPCFastTransform_8h.html" target="_top" xlink:title="Definition of TPCFastTransform class. ">
<polygon fill="none" stroke="#000000" points="279.5,-336.5 279.5,-355.5 392.5,-355.5 392.5,-336.5 279.5,-336.5"/>
<text text-anchor="middle" x="336" y="-343.5" font-family="Helvetica,sans-Serif" font-size="10.00" fill="#000000">TPCFastTransform.h</text>
</a>
</g>
</g>
<!-- Node0&#45;&gt;Node13 -->
<g id="edge13" class="edge">
<title>Node0&#45;&gt;Node13</title>
<path fill="none" stroke="#191970" d="M1015.4715,-410.3944C861.8013,-395.8308 542.0736,-365.5299 403.0133,-352.3509"/>
<polygon fill="#191970" stroke="#191970" points="403.2038,-348.8534 392.9182,-351.3942 402.5433,-355.8222 403.2038,-348.8534"/>
</g>
<!-- Node29 -->
<g id="node30" class="node">
<title>Node29</title>
<polygon fill="none" stroke="#bfbfbf" points="1274,-112.5 1274,-131.5 1338,-131.5 1338,-112.5 1274,-112.5"/>
<text text-anchor="middle" x="1306" y="-119.5" font-family="Helvetica,sans-Serif" font-size="10.00" fill="#000000">algorithm</text>
</g>
<!-- Node0&#45;&gt;Node29 -->
<g id="edge66" class="edge">
<title>Node0&#45;&gt;Node29</title>
<path fill="none" stroke="#191970" d="M1186.7952,-400.2477C1277.9299,-378.3223 1409,-338.3794 1409,-290 1409,-290 1409,-290 1409,-234 1409,-189.4711 1364.3441,-155.0241 1333.8393,-136.6879"/>
<polygon fill="#191970" stroke="#191970" points="1335.3019,-133.4909 1324.8918,-131.5213 1331.8015,-139.5529 1335.3019,-133.4909"/>
</g>
<!-- Node31 -->
<g id="node32" class="node">
<title>Node31</title>
<g id="a_node32"><a xlink:href="../../d1/dde/GPUTPCClusterData_8h.html" target="_top" xlink:title="GPUTPCClusterData.h">
<polygon fill="none" stroke="#000000" points="1208.5,-280.5 1208.5,-299.5 1331.5,-299.5 1331.5,-280.5 1208.5,-280.5"/>
<text text-anchor="middle" x="1270" y="-287.5" font-family="Helvetica,sans-Serif" font-size="10.00" fill="#000000">GPUTPCClusterData.h</text>
</a>
</g>
</g>
<!-- Node0&#45;&gt;Node31 -->
<g id="edge44" class="edge">
<title>Node0&#45;&gt;Node31</title>
<path fill="none" stroke="#191970" d="M1135.1997,-392.4961C1169.4635,-366.4435 1221.0757,-327.1998 1249.4667,-305.6126"/>
<polygon fill="#191970" stroke="#191970" points="1251.6454,-308.3529 1257.4872,-299.5142 1247.4085,-302.7807 1251.6454,-308.3529"/>
</g>
<!-- Node33 -->
<g id="node34" class="node">
<title>Node33</title>
<g id="a_node34"><a xlink:href="../../d5/d5c/GPUO2DataTypes_8h.html" target="_top" xlink:title="GPUO2DataTypes.h">
<polygon fill="none" stroke="#000000" points="623.5,-224.5 623.5,-243.5 734.5,-243.5 734.5,-224.5 623.5,-224.5"/>
<text text-anchor="middle" x="679" y="-231.5" font-family="Helvetica,sans-Serif" font-size="10.00" fill="#000000">GPUO2DataTypes.h</text>
</a>
</g>
</g>
<!-- Node0&#45;&gt;Node33 -->
<g id="edge47" class="edge">
<title>Node0&#45;&gt;Node33</title>
<path fill="none" stroke="#191970" d="M1027.7471,-392.4395C998.6572,-381.6964 965.0347,-368.7838 935,-356 850.6266,-320.0879 753.5174,-271.8537 706.865,-248.2364"/>
<polygon fill="#191970" stroke="#191970" points="708.1998,-244.9888 697.6985,-243.5836 705.0314,-251.2308 708.1998,-244.9888"/>
</g>
<!-- Node35 -->
<g id="node36" class="node">
<title>Node35</title>
<g id="a_node36"><a xlink:href="../../d4/dc5/GPUDataTypes_8h.html" target="_top" xlink:title="GPUDataTypes.h">
<polygon fill="none" stroke="#000000" points="492,-112.5 492,-131.5 590,-131.5 590,-112.5 492,-112.5"/>
<text text-anchor="middle" x="541" y="-119.5" font-family="Helvetica,sans-Serif" font-size="10.00" fill="#000000">GPUDataTypes.h</text>
</a>
</g>
</g>
<!-- Node0&#45;&gt;Node35 -->
<g id="edge54" class="edge">
<title>Node0&#45;&gt;Node35</title>
<path fill="none" stroke="#191970" d="M1015.3017,-409.9352C842.3733,-391.4926 468,-345.1926 468,-290 468,-290 468,-290 468,-234 468,-203.4754 470.457,-193.6531 487,-168 494.613,-156.1946 506.1621,-145.7772 516.6284,-137.8546"/>
<polygon fill="#191970" stroke="#191970" points="518.9691,-140.4829 525.0553,-131.8106 514.8893,-134.7947 518.9691,-140.4829"/>
</g>
<!-- Node37 -->
<g id="node38" class="node">
<title>Node37</title>
<g id="a_node38"><a xlink:href="../../dd/d86/AliHLTTPCRawCluster_8h.html" target="_top" xlink:title="AliHLTTPCRawCluster.h">
<polygon fill="none" stroke="#000000" points="1437.5,-336.5 1437.5,-355.5 1566.5,-355.5 1566.5,-336.5 1437.5,-336.5"/>
<text text-anchor="middle" x="1502" y="-343.5" font-family="Helvetica,sans-Serif" font-size="10.00" fill="#000000">AliHLTTPCRawCluster.h</text>
</a>
</g>
</g>
<!-- Node0&#45;&gt;Node37 -->
<g id="edge55" class="edge">
<title>Node0&#45;&gt;Node37</title>
<path fill="none" stroke="#191970" d="M1186.5327,-403.0359C1262.3423,-389.3296 1371.2717,-369.6354 1439.2687,-357.3417"/>
<polygon fill="#191970" stroke="#191970" points="1440.1891,-360.7321 1449.4069,-355.5087 1438.9437,-353.8438 1440.1891,-360.7321"/>
</g>
<!-- Node38 -->
<g id="node39" class="node">
<title>Node38</title>
<g id="a_node39"><a xlink:href="../../df/d13/GPUParam_8h.html" target="_top" xlink:title="GPUParam.h">
<polygon fill="none" stroke="#000000" points="1062.5,-280.5 1062.5,-299.5 1139.5,-299.5 1139.5,-280.5 1062.5,-280.5"/>
<text text-anchor="middle" x="1101" y="-287.5" font-family="Helvetica,sans-Serif" font-size="10.00" fill="#000000">GPUParam.h</text>
</a>
</g>
</g>
<!-- Node0&#45;&gt;Node38 -->
<g id="edge56" class="edge">
<title>Node0&#45;&gt;Node38</title>
<path fill="none" stroke="#191970" d="M1101,-392.4961C1101,-368.0156 1101,-331.8881 1101,-309.7068"/>
<polygon fill="#191970" stroke="#191970" points="1104.5001,-309.5141 1101,-299.5142 1097.5001,-309.5142 1104.5001,-309.5141"/>
</g>
<!-- Node42 -->
<g id="node43" class="node">
<title>Node42</title>
<polygon fill="none" stroke="#bfbfbf" points="1584.5,-336.5 1584.5,-355.5 1631.5,-355.5 1631.5,-336.5 1584.5,-336.5"/>
<text text-anchor="middle" x="1608" y="-343.5" font-family="Helvetica,sans-Serif" font-size="10.00" fill="#000000">vector</text>
</g>
<!-- Node0&#45;&gt;Node42 -->
<g id="edge67" class="edge">
<title>Node0&#45;&gt;Node42</title>
<path fill="none" stroke="#191970" d="M1186.7146,-411.6945C1280.1864,-403.2647 1434.1429,-386.4311 1574.2909,-356.0943"/>
<polygon fill="#191970" stroke="#191970" points="1575.3387,-359.4478 1584.3566,-353.8866 1573.839,-352.6103 1575.3387,-359.4478"/>
</g>
<!-- Node2 -->
<g id="node3" class="node">
<title>Node2</title>
<polygon fill="none" stroke="#bfbfbf" points="0,-56.5 0,-75.5 58,-75.5 58,-56.5 0,-56.5"/>
<text text-anchor="middle" x="29" y="-63.5" font-family="Helvetica,sans-Serif" font-size="10.00" fill="#000000">memory</text>
</g>
<!-- Node1&#45;&gt;Node2 -->
<g id="edge2" class="edge">
<title>Node1&#45;&gt;Node2</title>
<path fill="none" stroke="#191970" d="M741.2983,-168.7669C738.4988,-168.498 735.726,-168.2412 733,-168 604.5867,-156.6357 278.108,-166.8757 154,-132 115.2439,-121.1091 74.8302,-97.0752 50.797,-81.2142"/>
<polygon fill="#191970" stroke="#191970" points="52.676,-78.2599 42.4257,-75.5799 48.7674,-84.0671 52.676,-78.2599"/>
</g>
<!-- Node3 -->
<g id="node4" class="node">
<title>Node3</title>
<g id="a_node4"><a xlink:href="../../d2/d6d/GPUDef_8h.html" target="_top" xlink:title="GPUDef.h">
<polygon fill="none" stroke="#000000" points="1096.5,-112.5 1096.5,-131.5 1159.5,-131.5 1159.5,-112.5 1096.5,-112.5"/>
<text text-anchor="middle" x="1128" y="-119.5" font-family="Helvetica,sans-Serif" font-size="10.00" fill="#000000">GPUDef.h</text>
</a>
</g>
</g>
<!-- Node1&#45;&gt;Node3 -->
<g id="edge3" class="edge">
<title>Node1&#45;&gt;Node3</title>
<path fill="none" stroke="#191970" d="M883.609,-168.4589C935.7315,-160.3265 1011.6137,-147.772 1086.1446,-132.2885"/>
<polygon fill="#191970" stroke="#191970" points="1087.1043,-135.6635 1096.173,-130.1854 1085.6675,-128.8125 1087.1043,-135.6635"/>
</g>
<!-- Node4 -->
<g id="node5" class="node">
<title>Node4</title>
<g id="a_node5"><a xlink:href="../../df/d21/GPUCommonDef_8h.html" target="_top" xlink:title="GPUCommonDef.h">
<polygon fill="none" stroke="#000000" points="493.5,-56.5 493.5,-75.5 600.5,-75.5 600.5,-56.5 493.5,-56.5"/>
<text text-anchor="middle" x="547" y="-63.5" font-family="Helvetica,sans-Serif" font-size="10.00" fill="#000000">GPUCommonDef.h</text>
</a>
</g>
</g>
<!-- Node3&#45;&gt;Node4 -->
<g id="edge4" class="edge">
<title>Node3&#45;&gt;Node4</title>
<path fill="none" stroke="#191970" d="M1096.2196,-113.567C1093.4512,-112.9808 1090.6832,-112.4465 1088,-112 1042.0089,-104.3465 743.9798,-81.0482 610.9495,-70.858"/>
<polygon fill="#191970" stroke="#191970" points="611.1335,-67.362 600.8956,-70.0888 610.5995,-74.3416 611.1335,-67.362"/>
</g>
<!-- Node7 -->
<g id="node8" class="node">
<title>Node7</title>
<g id="a_node8"><a xlink:href="../../d2/d37/GPUDefConstantsAndSettings_8h.html" target="_top" xlink:title="GPUDefConstantsAndSettings.h">
<polygon fill="none" stroke="#000000" points="868.5,-56.5 868.5,-75.5 1039.5,-75.5 1039.5,-56.5 868.5,-56.5"/>
<text text-anchor="middle" x="954" y="-63.5" font-family="Helvetica,sans-Serif" font-size="10.00" fill="#000000">GPUDefConstantsAndSettings.h</text>
</a>
</g>
</g>
<!-- Node3&#45;&gt;Node7 -->
<g id="edge7" class="edge">
<title>Node3&#45;&gt;Node7</title>
<path fill="none" stroke="#191970" d="M1098.0883,-112.3733C1069.1548,-103.0613 1025.1389,-88.8953 993.3707,-78.671"/>
<polygon fill="#191970" stroke="#191970" points="994.1128,-75.2331 983.5213,-75.5011 991.9682,-81.8965 994.1128,-75.2331"/>
</g>
<!-- Node8 -->
<g id="node9" class="node">
<title>Node8</title>
<g id="a_node9"><a xlink:href="../../dc/de9/GPUDefGPUParameters_8h.html" target="_top" xlink:title="GPUDefGPUParameters.h">
<polygon fill="none" stroke="#000000" points="1058,-56.5 1058,-75.5 1198,-75.5 1198,-56.5 1058,-56.5"/>
<text text-anchor="middle" x="1128" y="-63.5" font-family="Helvetica,sans-Serif" font-size="10.00" fill="#000000">GPUDefGPUParameters.h</text>
</a>
</g>
</g>
<!-- Node3&#45;&gt;Node8 -->
<g id="edge8" class="edge">
<title>Node3&#45;&gt;Node8</title>
<path fill="none" stroke="#191970" d="M1128,-112.2455C1128,-104.9382 1128,-94.6944 1128,-85.7046"/>
<polygon fill="#191970" stroke="#191970" points="1131.5001,-85.6426 1128,-75.6427 1124.5001,-85.6427 1131.5001,-85.6426"/>
</g>
<!-- Node10 -->
<g id="node11" class="node">
<title>Node10</title>
<g id="a_node11"><a xlink:href="../../d3/d4c/GPUDefOpenCL12Templates_8h.html" target="_top" xlink:title="GPUDefOpenCL12Templates.h">
<polygon fill="none" stroke="#000000" points="1216,-56.5 1216,-75.5 1380,-75.5 1380,-56.5 1216,-56.5"/>
<text text-anchor="middle" x="1298" y="-63.5" font-family="Helvetica,sans-Serif" font-size="10.00" fill="#000000">GPUDefOpenCL12Templates.h</text>
</a>
</g>
</g>
<!-- Node3&#45;&gt;Node10 -->
<g id="edge10" class="edge">
<title>Node3&#45;&gt;Node10</title>
<path fill="none" stroke="#191970" d="M1157.224,-112.3733C1185.4925,-103.0613 1228.4965,-88.8953 1259.5344,-78.671"/>
<polygon fill="#191970" stroke="#191970" points="1260.7544,-81.9542 1269.1573,-75.5011 1258.5643,-75.3056 1260.7544,-81.9542"/>
</g>
<!-- Node11 -->
<g id="node12" class="node">
<title>Node11</title>
<g id="a_node12"><a xlink:href="../../d2/d45/GPUCommonRtypes_8h.html" target="_top" xlink:title="GPUCommonRtypes.h">
<polygon fill="none" stroke="#000000" points="693.5,-56.5 693.5,-75.5 818.5,-75.5 818.5,-56.5 693.5,-56.5"/>
<text text-anchor="middle" x="756" y="-63.5" font-family="Helvetica,sans-Serif" font-size="10.00" fill="#000000">GPUCommonRtypes.h</text>
</a>
</g>
</g>
<!-- Node3&#45;&gt;Node11 -->
<g id="edge11" class="edge">
<title>Node3&#45;&gt;Node11</title>
<path fill="none" stroke="#191970" d="M1096.1919,-113.7209C1093.4295,-113.1013 1090.6705,-112.5173 1088,-112 999.4286,-94.8439 896.3669,-81.5961 828.8532,-73.8153"/>
<polygon fill="#191970" stroke="#191970" points="829.0763,-70.3181 818.7436,-72.6604 828.2817,-77.2728 829.0763,-70.3181"/>
</g>
<!-- Node5 -->
<g id="node6" class="node">
<title>Node5</title>
<g id="a_node6"><a xlink:href="../../d5/d93/GPUCommonDefSettings_8h.html" target="_top" xlink:title="GPUCommonDefSettings.h">
<polygon fill="none" stroke="#000000" points="506,-.5 506,-19.5 654,-19.5 654,-.5 506,-.5"/>
<text text-anchor="middle" x="580" y="-7.5" font-family="Helvetica,sans-Serif" font-size="10.00" fill="#000000">GPUCommonDefSettings.h</text>
</a>
</g>
</g>
<!-- Node4&#45;&gt;Node5 -->
<g id="edge5" class="edge">
<title>Node4&#45;&gt;Node5</title>
<path fill="none" stroke="#191970" d="M552.7482,-56.2455C557.2435,-48.617 563.6248,-37.7881 569.0825,-28.5267"/>
<polygon fill="#191970" stroke="#191970" points="572.2561,-30.035 574.3177,-19.6427 566.2253,-26.4811 572.2561,-30.035"/>
</g>
<!-- Node6 -->
<g id="node7" class="node">
<title>Node6</title>
<g id="a_node7"><a xlink:href="../../da/d5a/GPUCommonDefAPI_8h.html" target="_top" xlink:title="GPUCommonDefAPI.h">
<polygon fill="none" stroke="#000000" points="364,-.5 364,-19.5 488,-19.5 488,-.5 364,-.5"/>
<text text-anchor="middle" x="426" y="-7.5" font-family="Helvetica,sans-Serif" font-size="10.00" fill="#000000">GPUCommonDefAPI.h</text>
</a>
</g>
</g>
<!-- Node4&#45;&gt;Node6 -->
<g id="edge6" class="edge">
<title>Node4&#45;&gt;Node6</title>
<path fill="none" stroke="#191970" d="M526.1994,-56.3733C506.7757,-47.3838 477.5776,-33.8706 455.7036,-23.7471"/>
<polygon fill="#191970" stroke="#191970" points="457.0745,-20.5249 446.5292,-19.5011 454.1344,-26.8776 457.0745,-20.5249"/>
</g>
<!-- Node9 -->
<g id="node10" class="node">
<title>Node9</title>
<g id="a_node10"><a xlink:href="../../d6/dff/GPUDefMacros_8h.html" target="_top" xlink:title="GPUDefMacros.h">
<polygon fill="none" stroke="#000000" points="1079,-.5 1079,-19.5 1177,-19.5 1177,-.5 1079,-.5"/>
<text text-anchor="middle" x="1128" y="-7.5" font-family="Helvetica,sans-Serif" font-size="10.00" fill="#000000">GPUDefMacros.h</text>
</a>
</g>
</g>
<!-- Node8&#45;&gt;Node9 -->
<g id="edge9" class="edge">
<title>Node8&#45;&gt;Node9</title>
<path fill="none" stroke="#191970" d="M1128,-56.2455C1128,-48.9382 1128,-38.6944 1128,-29.7046"/>
<polygon fill="#191970" stroke="#191970" points="1131.5001,-29.6426 1128,-19.6427 1124.5001,-29.6427 1131.5001,-29.6426"/>
</g>
<!-- Node12 -->
<g id="node13" class="node">
<title>Node12</title>
<polygon fill="none" stroke="#bfbfbf" points="726.5,-.5 726.5,-19.5 785.5,-19.5 785.5,-.5 726.5,-.5"/>
<text text-anchor="middle" x="756" y="-7.5" font-family="Helvetica,sans-Serif" font-size="10.00" fill="#000000">Rtypes.h</text>
</g>
<!-- Node11&#45;&gt;Node12 -->
<g id="edge12" class="edge">
<title>Node11&#45;&gt;Node12</title>
<path fill="none" stroke="#191970" d="M756,-56.2455C756,-48.9382 756,-38.6944 756,-29.7046"/>
<polygon fill="#191970" stroke="#191970" points="759.5001,-29.6426 756,-19.6427 752.5001,-29.6427 759.5001,-29.6426"/>
</g>
<!-- Node14 -->
<g id="node15" class="node">
<title>Node14</title>
<g id="a_node15"><a xlink:href="../../db/dff/FlatObject_8h.html" target="_top" xlink:title="Definition of FlatObject class. ">
<polygon fill="none" stroke="#000000" points="162.5,-112.5 162.5,-131.5 237.5,-131.5 237.5,-112.5 162.5,-112.5"/>
<text text-anchor="middle" x="200" y="-119.5" font-family="Helvetica,sans-Serif" font-size="10.00" fill="#000000">FlatObject.h</text>
</a>
</g>
</g>
<!-- Node13&#45;&gt;Node14 -->
<g id="edge14" class="edge">
<title>Node13&#45;&gt;Node14</title>
<path fill="none" stroke="#191970" d="M286.1368,-336.4188C253.4873,-329.0326 210.46,-317.1504 175,-300 136.5816,-281.4188 116.4818,-281.9697 97,-244 74.3688,-199.8922 133.6278,-157.87 171.4039,-136.5463"/>
<polygon fill="#191970" stroke="#191970" points="173.3874,-139.4509 180.4822,-131.5824 170.029,-133.3091 173.3874,-139.4509"/>
</g>
<!-- Node22 -->
<g id="node23" class="node">
<title>Node22</title>
<g id="a_node23"><a xlink:href="../../d5/dde/TPCFastTransformGeo_8h.html" target="_top" xlink:title="Definition of TPCFastTransformGeo class. ">
<polygon fill="none" stroke="#000000" points="106,-224.5 106,-243.5 238,-243.5 238,-224.5 106,-224.5"/>
<text text-anchor="middle" x="172" y="-231.5" font-family="Helvetica,sans-Serif" font-size="10.00" fill="#000000">TPCFastTransformGeo.h</text>
</a>
</g>
</g>
<!-- Node13&#45;&gt;Node22 -->
<g id="edge25" class="edge">
<title>Node13&#45;&gt;Node22</title>
<path fill="none" stroke="#191970" d="M290.2172,-336.4288C253.175,-327.8135 204.9546,-314.3351 191,-300 179.0701,-287.7448 174.544,-268.5028 172.8703,-253.9509"/>
<polygon fill="#191970" stroke="#191970" points="176.3552,-253.6206 172.071,-243.9306 169.3774,-254.1773 176.3552,-253.6206"/>
</g>
<!-- Node23 -->
<g id="node24" class="node">
<title>Node23</title>
<g id="a_node24"><a xlink:href="../../d8/d93/TPCFastSpaceChargeCorrection_8h.html" target="_top" xlink:title="Definition of TPCFastSpaceChargeCorrection class. ">
<polygon fill="none" stroke="#000000" points="200,-280.5 200,-299.5 378,-299.5 378,-280.5 200,-280.5"/>
<text text-anchor="middle" x="289" y="-287.5" font-family="Helvetica,sans-Serif" font-size="10.00" fill="#000000">TPCFastSpaceChargeCorrection.h</text>
</a>
</g>
</g>
<!-- Node13&#45;&gt;Node23 -->
<g id="edge28" class="edge">
<title>Node13&#45;&gt;Node23</title>
<path fill="none" stroke="#191970" d="M327.8132,-336.2455C321.1411,-328.2958 311.5521,-316.8706 303.5747,-307.3656"/>
<polygon fill="#191970" stroke="#191970" points="306.2026,-305.0524 297.093,-299.6427 300.8408,-309.5525 306.2026,-305.0524"/>
</g>
<!-- Node27 -->
<g id="node28" class="node">
<title>Node27</title>
<g id="a_node28"><a xlink:href="../../d6/da2/GPUCommonMath_8h.html" target="_top" xlink:title="GPUCommonMath.h">
<polygon fill="none" stroke="#000000" points="995.5,-168.5 995.5,-187.5 1110.5,-187.5 1110.5,-168.5 995.5,-168.5"/>
<text text-anchor="middle" x="1053" y="-175.5" font-family="Helvetica,sans-Serif" font-size="10.00" fill="#000000">GPUCommonMath.h</text>
</a>
</g>
</g>
<!-- Node13&#45;&gt;Node27 -->
<g id="edge39" class="edge">
<title>Node13&#45;&gt;Node27</title>
<path fill="none" stroke="#191970" d="M392.6872,-339.9477C525.8892,-325.208 855.3084,-285.5965 958,-244 987.2729,-232.1427 1016.4318,-209.9461 1034.5696,-194.5883"/>
<polygon fill="#191970" stroke="#191970" points="1037.2801,-196.8704 1042.5405,-187.6737 1032.6931,-191.5827 1037.2801,-196.8704"/>
</g>
<!-- Node30 -->
<g id="node31" class="node">
<title>Node30</title>
<polygon fill="none" stroke="#bfbfbf" points="396,-280.5 396,-299.5 440,-299.5 440,-280.5 396,-280.5"/>
<text text-anchor="middle" x="418" y="-287.5" font-family="Helvetica,sans-Serif" font-size="10.00" fill="#000000">string</text>
</g>
<!-- Node13&#45;&gt;Node30 -->
<g id="edge43" class="edge">
<title>Node13&#45;&gt;Node30</title>
<path fill="none" stroke="#191970" d="M350.2833,-336.2455C362.747,-327.7337 381.0451,-315.2375 395.4792,-305.3801"/>
<polygon fill="#191970" stroke="#191970" points="397.5962,-308.1726 403.8804,-299.6427 393.6485,-302.392 397.5962,-308.1726"/>
</g>
<!-- Node14&#45;&gt;Node2 -->
<g id="edge16" class="edge">
<title>Node14&#45;&gt;Node2</title>
<path fill="none" stroke="#191970" d="M170.6041,-112.3733C142.1693,-103.0613 98.9123,-88.8953 67.6919,-78.671"/>
<polygon fill="#191970" stroke="#191970" points="68.605,-75.2872 58.0124,-75.5011 66.4264,-81.9396 68.605,-75.2872"/>
</g>
<!-- Node14&#45;&gt;Node4 -->
<g id="edge20" class="edge">
<title>Node14&#45;&gt;Node4</title>
<path fill="none" stroke="#191970" d="M237.7439,-114.5731C242.5376,-113.6794 247.3804,-112.8008 252,-112 352.119,-94.6447 379.8378,-92.464 483.3175,-76.2541"/>
<polygon fill="#191970" stroke="#191970" points="483.9004,-79.7056 493.235,-74.6941 482.8126,-72.7906 483.9004,-79.7056"/>
</g>
<!-- Node14&#45;&gt;Node11 -->
<g id="edge21" class="edge">
<title>Node14&#45;&gt;Node11</title>
<path fill="none" stroke="#191970" d="M237.6595,-117.4707C252.6901,-115.7022 270.1575,-113.6962 286,-112 426.4539,-96.9621 590.7379,-81.33 683.1581,-72.715"/>
<polygon fill="#191970" stroke="#191970" points="683.6114,-76.188 693.2439,-71.7761 682.9625,-69.2181 683.6114,-76.188"/>
</g>
<!-- Node15 -->
<g id="node16" class="node">
<title>Node15</title>
<polygon fill="none" stroke="#bfbfbf" points="422.5,-56.5 422.5,-75.5 475.5,-75.5 475.5,-56.5 422.5,-56.5"/>
<text text-anchor="middle" x="449" y="-63.5" font-family="Helvetica,sans-Serif" font-size="10.00" fill="#000000">cstddef</text>
</g>
<!-- Node14&#45;&gt;Node15 -->
<g id="edge15" class="edge">
<title>Node14&#45;&gt;Node15</title>
<path fill="none" stroke="#191970" d="M237.8593,-114.5176C278.5658,-106.3191 345.3906,-92.4199 412.4211,-76.0355"/>
<polygon fill="#191970" stroke="#191970" points="413.4362,-79.3902 422.3092,-73.6005 411.7624,-72.5932 413.4362,-79.3902"/>
</g>
<!-- Node16 -->
<g id="node17" class="node">
<title>Node16</title>
<polygon fill="none" stroke="#bfbfbf" points="284,-56.5 284,-75.5 334,-75.5 334,-56.5 284,-56.5"/>
<text text-anchor="middle" x="309" y="-63.5" font-family="Helvetica,sans-Serif" font-size="10.00" fill="#000000">cstring</text>
</g>
<!-- Node14&#45;&gt;Node16 -->
<g id="edge17" class="edge">
<title>Node14&#45;&gt;Node16</title>
<path fill="none" stroke="#191970" d="M218.9864,-112.2455C236.1792,-103.4125 261.7238,-90.2887 281.2132,-80.2758"/>
<polygon fill="#191970" stroke="#191970" points="282.9359,-83.3257 290.2312,-75.6427 279.737,-77.0993 282.9359,-83.3257"/>
</g>
<!-- Node17 -->
<g id="node18" class="node">
<title>Node17</title>
<polygon fill="none" stroke="#bfbfbf" points="352,-56.5 352,-75.5 404,-75.5 404,-56.5 352,-56.5"/>
<text text-anchor="middle" x="378" y="-63.5" font-family="Helvetica,sans-Serif" font-size="10.00" fill="#000000">cassert</text>
</g>
<!-- Node14&#45;&gt;Node17 -->
<g id="edge18" class="edge">
<title>Node14&#45;&gt;Node17</title>
<path fill="none" stroke="#191970" d="M230.5993,-112.3733C261.5873,-102.6242 309.4867,-87.5547 342.2147,-77.2583"/>
<polygon fill="#191970" stroke="#191970" points="343.3604,-80.5671 351.849,-74.2273 341.2596,-73.8897 343.3604,-80.5671"/>
</g>
<!-- Node18 -->
<g id="node19" class="node">
<title>Node18</title>
<polygon fill="none" stroke="#bfbfbf" points="76,-56.5 76,-75.5 124,-75.5 124,-56.5 76,-56.5"/>
<text text-anchor="middle" x="100" y="-63.5" font-family="Helvetica,sans-Serif" font-size="10.00" fill="#000000">TFile.h</text>
</g>
<!-- Node14&#45;&gt;Node18 -->
<g id="edge19" class="edge">
<title>Node14&#45;&gt;Node18</title>
<path fill="none" stroke="#191970" d="M182.5813,-112.2455C166.9515,-103.4928 143.7981,-90.527 125.9815,-80.5496"/>
<polygon fill="#191970" stroke="#191970" points="127.6543,-77.475 117.2191,-75.6427 124.234,-83.5825 127.6543,-77.475"/>
</g>
<!-- Node19 -->
<g id="node20" class="node">
<title>Node19</title>
<g id="a_node20"><a xlink:href="../../df/d5b/GPUCommonLogger_8h.html" target="_top" xlink:title="GPUCommonLogger.h">
<polygon fill="none" stroke="#000000" points="142.5,-56.5 142.5,-75.5 265.5,-75.5 265.5,-56.5 142.5,-56.5"/>
<text text-anchor="middle" x="204" y="-63.5" font-family="Helvetica,sans-Serif" font-size="10.00" fill="#000000">GPUCommonLogger.h</text>
</a>
</g>
</g>
<!-- Node14&#45;&gt;Node19 -->
<g id="edge22" class="edge">
<title>Node14&#45;&gt;Node19</title>
<path fill="none" stroke="#191970" d="M200.6967,-112.2455C201.2187,-104.9382 201.9504,-94.6944 202.5925,-85.7046"/>
<polygon fill="#191970" stroke="#191970" points="206.0898,-85.8667 203.3112,-75.6427 199.1076,-85.3679 206.0898,-85.8667"/>
</g>
<!-- Node20 -->
<g id="node21" class="node">
<title>Node20</title>
<polygon fill="none" stroke="#bfbfbf" points="138,-.5 138,-19.5 198,-19.5 198,-.5 138,-.5"/>
<text text-anchor="middle" x="168" y="-7.5" font-family="Helvetica,sans-Serif" font-size="10.00" fill="#000000">iostream</text>
</g>
<!-- Node19&#45;&gt;Node20 -->
<g id="edge23" class="edge">
<title>Node19&#45;&gt;Node20</title>
<path fill="none" stroke="#191970" d="M197.7293,-56.2455C192.7736,-48.5367 185.717,-37.5598 179.7224,-28.2348"/>
<polygon fill="#191970" stroke="#191970" points="182.5506,-26.1618 174.1989,-19.6427 176.6624,-29.9471 182.5506,-26.1618"/>
</g>
<!-- Node21 -->
<g id="node22" class="node">
<title>Node21</title>
<polygon fill="none" stroke="#bfbfbf" points="216,-.5 216,-19.5 262,-19.5 262,-.5 216,-.5"/>
<text text-anchor="middle" x="239" y="-7.5" font-family="Helvetica,sans-Serif" font-size="10.00" fill="#000000">cstdio</text>
</g>
<!-- Node19&#45;&gt;Node21 -->
<g id="edge24" class="edge">
<title>Node19&#45;&gt;Node21</title>
<path fill="none" stroke="#191970" d="M210.0965,-56.2455C214.9145,-48.5367 221.7751,-37.5598 227.6032,-28.2348"/>
<polygon fill="#191970" stroke="#191970" points="230.6413,-29.9777 232.9733,-19.6427 224.7053,-26.2677 230.6413,-29.9777"/>
</g>
<!-- Node22&#45;&gt;Node2 -->
<g id="edge27" class="edge">
<title>Node22&#45;&gt;Node2</title>
<path fill="none" stroke="#191970" d="M163.902,-224.4862C140.8077,-197.3545 74.3512,-119.2798 44.2002,-83.8576"/>
<polygon fill="#191970" stroke="#191970" points="46.5124,-81.1742 37.3654,-75.8279 41.182,-85.7114 46.5124,-81.1742"/>
</g>
<!-- Node22&#45;&gt;Node4 -->
<g id="edge26" class="edge">
<title>Node22&#45;&gt;Node4</title>
<path fill="none" stroke="#191970" d="M177.7653,-224.4331C192.4898,-200.9229 234.0145,-140.1888 286,-112 290.3669,-109.6321 407.6816,-89.5146 483.5255,-76.6799"/>
<polygon fill="#191970" stroke="#191970" points="484.1999,-80.1157 493.4765,-74.9975 483.0329,-73.2136 484.1999,-80.1157"/>
</g>
<!-- Node23&#45;&gt;Node4 -->
<g id="edge38" class="edge">
<title>Node23&#45;&gt;Node4</title>
<path fill="none" stroke="#191970" d="M311.8164,-280.3632C329.5697,-272.2173 354.2553,-259.4246 373,-244 431.9688,-195.4759 427.1039,-164.0339 483,-112 495.2501,-100.5963 510.4042,-89.5889 522.8908,-81.2022"/>
<polygon fill="#191970" stroke="#191970" points="524.9963,-84.0068 531.4319,-75.5905 521.1525,-78.1565 524.9963,-84.0068"/>
</g>
<!-- Node23&#45;&gt;Node14 -->
<g id="edge37" class="edge">
<title>Node23&#45;&gt;Node14</title>
<path fill="none" stroke="#191970" d="M283.96,-280.4862C269.7084,-253.5845 228.9247,-176.5994 209.9422,-140.7673"/>
<polygon fill="#191970" stroke="#191970" points="212.9806,-139.026 205.2064,-131.8279 206.795,-142.303 212.9806,-139.026"/>
</g>
<!-- Node23&#45;&gt;Node22 -->
<g id="edge36" class="edge">
<title>Node23&#45;&gt;Node22</title>
<path fill="none" stroke="#191970" d="M268.887,-280.3733C250.1897,-271.4241 222.1256,-257.9917 201.0066,-247.8835"/>
<polygon fill="#191970" stroke="#191970" points="202.3817,-244.6614 191.8506,-243.5011 199.3595,-250.9755 202.3817,-244.6614"/>
</g>
<!-- Node24 -->
<g id="node25" class="node">
<title>Node24</title>
<g id="a_node25"><a xlink:href="../../dd/d27/Spline2D_8h.html" target="_top" xlink:title="Definition of Spline2D class. ">
<polygon fill="none" stroke="#000000" points="294.5,-224.5 294.5,-243.5 363.5,-243.5 363.5,-224.5 294.5,-224.5"/>
<text text-anchor="middle" x="329" y="-231.5" font-family="Helvetica,sans-Serif" font-size="10.00" fill="#000000">Spline2D.h</text>
</a>
</g>
</g>
<!-- Node23&#45;&gt;Node24 -->
<g id="edge29" class="edge">
<title>Node23&#45;&gt;Node24</title>
<path fill="none" stroke="#191970" d="M295.9675,-280.2455C301.5311,-272.4564 309.478,-261.3308 316.1829,-251.9439"/>
<polygon fill="#191970" stroke="#191970" points="319.148,-253.8144 322.1124,-243.6427 313.4519,-249.7457 319.148,-253.8144"/>
</g>
<!-- Node24&#45;&gt;Node4 -->
<g id="edge35" class="edge">
<title>Node24&#45;&gt;Node4</title>
<path fill="none" stroke="#191970" d="M338.0784,-224.475C363.9843,-197.348 437.2187,-121.0509 450,-112 468.7813,-98.7003 492.0114,-87.5287 511.0293,-79.5264"/>
<polygon fill="#191970" stroke="#191970" points="512.6129,-82.6603 520.5446,-75.6362 509.9638,-76.1809 512.6129,-82.6603"/>
</g>
<!-- Node24&#45;&gt;Node14 -->
<g id="edge34" class="edge">
<title>Node24&#45;&gt;Node14</title>
<path fill="none" stroke="#191970" d="M318.0015,-224.4509C295.9147,-205.2747 245.9519,-161.8962 218.6576,-138.1988"/>
<polygon fill="#191970" stroke="#191970" points="220.8164,-135.438 210.9706,-131.5249 216.2271,-140.7238 220.8164,-135.438"/>
</g>
<!-- Node25 -->
<g id="node26" class="node">
<title>Node25</title>
<g id="a_node26"><a xlink:href="../../de/da6/Spline1D_8h.html" target="_top" xlink:title="Definition of Spline1D class. ">
<polygon fill="none" stroke="#000000" points="294.5,-168.5 294.5,-187.5 363.5,-187.5 363.5,-168.5 294.5,-168.5"/>
<text text-anchor="middle" x="329" y="-175.5" font-family="Helvetica,sans-Serif" font-size="10.00" fill="#000000">Spline1D.h</text>
</a>
</g>
</g>
<!-- Node24&#45;&gt;Node25 -->
<g id="edge30" class="edge">
<title>Node24&#45;&gt;Node25</title>
<path fill="none" stroke="#191970" d="M329,-224.2455C329,-216.9382 329,-206.6944 329,-197.7046"/>
<polygon fill="#191970" stroke="#191970" points="332.5001,-197.6426 329,-187.6427 325.5001,-197.6427 332.5001,-197.6426"/>
</g>
<!-- Node25&#45;&gt;Node4 -->
<g id="edge31" class="edge">
<title>Node25&#45;&gt;Node4</title>
<path fill="none" stroke="#191970" d="M338.9133,-168.2045C353.6998,-154.0642 382.92,-127.8902 412,-112 438.9738,-97.2607 471.5326,-85.9993 497.9168,-78.3088"/>
<polygon fill="#191970" stroke="#191970" points="499.0348,-81.6298 507.702,-75.5363 497.1266,-74.8949 499.0348,-81.6298"/>
</g>
<!-- Node25&#45;&gt;Node14 -->
<g id="edge32" class="edge">
<title>Node25&#45;&gt;Node14</title>
<path fill="none" stroke="#191970" d="M306.8241,-168.3733C286.0234,-159.3435 254.7083,-145.7494 231.3542,-135.6111"/>
<polygon fill="#191970" stroke="#191970" points="232.4532,-132.2727 221.8865,-131.5011 229.6657,-138.6938 232.4532,-132.2727"/>
</g>
<!-- Node26 -->
<g id="node27" class="node">
<title>Node26</title>
<polygon fill="none" stroke="#bfbfbf" points="294.5,-112.5 294.5,-131.5 359.5,-131.5 359.5,-112.5 294.5,-112.5"/>
<text text-anchor="middle" x="327" y="-119.5" font-family="Helvetica,sans-Serif" font-size="10.00" fill="#000000">functional</text>
</g>
<!-- Node25&#45;&gt;Node26 -->
<g id="edge33" class="edge">
<title>Node25&#45;&gt;Node26</title>
<path fill="none" stroke="#191970" d="M328.6516,-168.2455C328.3907,-160.9382 328.0248,-150.6944 327.7037,-141.7046"/>
<polygon fill="#191970" stroke="#191970" points="331.1992,-141.5113 327.3444,-131.6427 324.2036,-141.7613 331.1992,-141.5113"/>
</g>
<!-- Node27&#45;&gt;Node4 -->
<g id="edge40" class="edge">
<title>Node27&#45;&gt;Node4</title>
<path fill="none" stroke="#191970" d="M1045.604,-168.3203C1033.5175,-153.3153 1007.9581,-124.8348 979,-112 946.1515,-97.441 722.8572,-79.0697 610.8298,-70.6277"/>
<polygon fill="#191970" stroke="#191970" points="610.906,-67.1237 600.6723,-69.8666 610.3828,-74.1042 610.906,-67.1237"/>
</g>
<!-- Node28 -->
<g id="node29" class="node">
<title>Node28</title>
<polygon fill="none" stroke="#bfbfbf" points="1031.5,-112.5 1031.5,-131.5 1078.5,-131.5 1078.5,-112.5 1031.5,-112.5"/>
<text text-anchor="middle" x="1055" y="-119.5" font-family="Helvetica,sans-Serif" font-size="10.00" fill="#000000">cmath</text>
</g>
<!-- Node27&#45;&gt;Node28 -->
<g id="edge41" class="edge">
<title>Node27&#45;&gt;Node28</title>
<path fill="none" stroke="#191970" d="M1053.3484,-168.2455C1053.6093,-160.9382 1053.9752,-150.6944 1054.2963,-141.7046"/>
<polygon fill="#191970" stroke="#191970" points="1057.7964,-141.7613 1054.6556,-131.6427 1050.8008,-141.5113 1057.7964,-141.7613"/>
</g>
<!-- Node27&#45;&gt;Node29 -->
<g id="edge42" class="edge">
<title>Node27&#45;&gt;Node29</title>
<path fill="none" stroke="#191970" d="M1096.2048,-168.4369C1143.0464,-158.0688 1217.3178,-141.6293 1263.7733,-131.3466"/>
<polygon fill="#191970" stroke="#191970" points="1264.8052,-134.703 1273.8124,-129.1245 1263.2923,-127.8684 1264.8052,-134.703"/>
</g>
<!-- Node32 -->
<g id="node33" class="node">
<title>Node32</title>
<g id="a_node33"><a xlink:href="../../da/dab/GPUTPCDef_8h.html" target="_top" xlink:title="GPUTPCDef.h">
<polygon fill="none" stroke="#000000" points="1223,-168.5 1223,-187.5 1305,-187.5 1305,-168.5 1223,-168.5"/>
<text text-anchor="middle" x="1264" y="-175.5" font-family="Helvetica,sans-Serif" font-size="10.00" fill="#000000">GPUTPCDef.h</text>
</a>
</g>
</g>
<!-- Node31&#45;&gt;Node32 -->
<g id="edge45" class="edge">
<title>Node31&#45;&gt;Node32</title>
<path fill="none" stroke="#191970" d="M1300.1748,-280.4872C1329.5065,-269.5117 1367.526,-249.6352 1352,-224 1342.8174,-208.8386 1326.8152,-198.4355 1310.9528,-191.4143"/>
<polygon fill="#191970" stroke="#191970" points="1312.2647,-188.1695 1301.682,-187.6607 1309.6376,-194.6579 1312.2647,-188.1695"/>
</g>
<!-- Node32&#45;&gt;Node3 -->
<g id="edge46" class="edge">
<title>Node32&#45;&gt;Node3</title>
<path fill="none" stroke="#191970" d="M1240.6208,-168.3733C1218.4955,-159.2629 1185.0866,-145.5062 1160.3981,-135.3404"/>
<polygon fill="#191970" stroke="#191970" points="1161.6536,-132.0723 1151.0742,-131.5011 1158.9883,-138.5451 1161.6536,-132.0723"/>
</g>
<!-- Node34 -->
<g id="node35" class="node">
<title>Node34</title>
<g id="a_node35"><a xlink:href="../../da/d28/GPUO2FakeClasses_8h.html" target="_top" xlink:title="GPUO2FakeClasses.h">
<polygon fill="none" stroke="#000000" points="496,-168.5 496,-187.5 616,-187.5 616,-168.5 496,-168.5"/>
<text text-anchor="middle" x="556" y="-175.5" font-family="Helvetica,sans-Serif" font-size="10.00" fill="#000000">GPUO2FakeClasses.h</text>
</a>
</g>
</g>
<!-- Node33&#45;&gt;Node34 -->
<g id="edge48" class="edge">
<title>Node33&#45;&gt;Node34</title>
<path fill="none" stroke="#191970" d="M657.8555,-224.3733C638.1108,-215.3838 608.4302,-201.8706 586.1945,-191.7471"/>
<polygon fill="#191970" stroke="#191970" points="587.42,-188.4594 576.8685,-187.5011 584.5194,-194.8302 587.42,-188.4594"/>
</g>
<!-- Node36 -->
<g id="node37" class="node">
<title>Node36</title>
<g id="a_node37"><a xlink:href="../../d3/d1f/GPUdEdxInfo_8h.html" target="_top" xlink:title="GPUdEdxInfo.h">
<polygon fill="none" stroke="#000000" points="634.5,-168.5 634.5,-187.5 723.5,-187.5 723.5,-168.5 634.5,-168.5"/>
<text text-anchor="middle" x="679" y="-175.5" font-family="Helvetica,sans-Serif" font-size="10.00" fill="#000000">GPUdEdxInfo.h</text>
</a>
</g>
</g>
<!-- Node33&#45;&gt;Node36 -->
<g id="edge53" class="edge">
<title>Node33&#45;&gt;Node36</title>
<path fill="none" stroke="#191970" d="M679,-224.2455C679,-216.9382 679,-206.6944 679,-197.7046"/>
<polygon fill="#191970" stroke="#191970" points="682.5001,-197.6426 679,-187.6427 675.5001,-197.6427 682.5001,-197.6426"/>
</g>
<!-- Node34&#45;&gt;Node4 -->
<g id="edge49" class="edge">
<title>Node34&#45;&gt;Node4</title>
<path fill="none" stroke="#191970" d="M569.6938,-168.4879C585.6641,-156.1283 608.7178,-133.571 599,-112 593.4303,-99.6369 582.7137,-89.2563 572.4494,-81.5033"/>
<polygon fill="#191970" stroke="#191970" points="574.2549,-78.4948 564.0567,-75.623 570.2382,-84.2277 574.2549,-78.4948"/>
</g>
<!-- Node34&#45;&gt;Node35 -->
<g id="edge50" class="edge">
<title>Node34&#45;&gt;Node35</title>
<path fill="none" stroke="#191970" d="M553.3872,-168.2455C551.4084,-160.8579 548.6256,-150.4689 546.1988,-141.4087"/>
<polygon fill="#191970" stroke="#191970" points="549.5511,-140.3966 543.5829,-131.6427 542.7895,-142.2078 549.5511,-140.3966"/>
</g>
<!-- Node35&#45;&gt;Node4 -->
<g id="edge51" class="edge">
<title>Node35&#45;&gt;Node4</title>
<path fill="none" stroke="#191970" d="M542.0451,-112.2455C542.828,-104.9382 543.9256,-94.6944 544.8888,-85.7046"/>
<polygon fill="#191970" stroke="#191970" points="548.3815,-85.9587 545.9669,-75.6427 541.4214,-85.2129 548.3815,-85.9587"/>
</g>
<!-- Node35&#45;&gt;Node15 -->
<g id="edge52" class="edge">
<title>Node35&#45;&gt;Node15</title>
<path fill="none" stroke="#191970" d="M524.9748,-112.2455C510.8592,-103.6534 490.0737,-91.0014 473.8101,-81.1018"/>
<polygon fill="#191970" stroke="#191970" points="475.2034,-77.8525 464.8415,-75.6427 471.5637,-83.8319 475.2034,-77.8525"/>
</g>
<!-- Node38&#45;&gt;Node3 -->
<g id="edge59" class="edge">
<title>Node38&#45;&gt;Node3</title>
<path fill="none" stroke="#191970" d="M1104.8476,-280.2974C1108.3296,-271.1012 1113.3116,-256.8252 1116,-244 1123.4635,-208.3953 1126.3101,-165.9472 1127.3778,-141.6674"/>
<polygon fill="#191970" stroke="#191970" points="1130.8781,-141.7246 1127.7625,-131.5982 1123.8832,-141.4573 1130.8781,-141.7246"/>
</g>
<!-- Node38&#45;&gt;Node4 -->
<g id="edge57" class="edge">
<title>Node38&#45;&gt;Node4</title>
<path fill="none" stroke="#191970" d="M1062.3959,-286.2701C990.5175,-278.9343 842.0523,-261.79 827,-244 821.2585,-237.2142 822.1563,-231.4533 827,-224 848.4671,-190.9672 886.5329,-221.0328 908,-188 912.8437,-180.5467 913.3632,-175.0886 908,-168 872.1713,-120.6452 704.2116,-88.9989 610.5414,-74.7101"/>
<polygon fill="#191970" stroke="#191970" points="611.0171,-71.2424 600.608,-73.2174 609.9768,-78.1647 611.0171,-71.2424"/>
</g>
<!-- Node38&#45;&gt;Node27 -->
<g id="edge58" class="edge">
<title>Node38&#45;&gt;Node27</title>
<path fill="none" stroke="#191970" d="M1103.0998,-280.1217C1105.447,-266.7779 1107.959,-242.5322 1100,-224 1094.9123,-212.1535 1085.1682,-201.8077 1075.8654,-193.9438"/>
<polygon fill="#191970" stroke="#191970" points="1077.954,-191.1335 1067.9321,-187.6966 1073.6233,-196.6331 1077.954,-191.1335"/>
</g>
<!-- Node39 -->
<g id="node40" class="node">
<title>Node39</title>
<g id="a_node40"><a xlink:href="../../dd/dc6/GPUSettings_8h.html" target="_top" xlink:title="GPUSettings.h">
<polygon fill="none" stroke="#000000" points="1005,-224.5 1005,-243.5 1091,-243.5 1091,-224.5 1005,-224.5"/>
<text text-anchor="middle" x="1048" y="-231.5" font-family="Helvetica,sans-Serif" font-size="10.00" fill="#000000">GPUSettings.h</text>
</a>
</g>
</g>
<!-- Node38&#45;&gt;Node39 -->
<g id="edge60" class="edge">
<title>Node38&#45;&gt;Node39</title>
<path fill="none" stroke="#191970" d="M1091.7681,-280.2455C1084.1683,-272.2155 1073.2123,-260.6394 1064.1632,-251.0781"/>
<polygon fill="#191970" stroke="#191970" points="1066.542,-248.4998 1057.1261,-243.6427 1061.4579,-253.3115 1066.542,-248.4998"/>
</g>
<!-- Node40 -->
<g id="node41" class="node">
<title>Node40</title>
<g id="a_node41"><a xlink:href="../../d6/d1b/GPUTPCGeometry_8h.html" target="_top" xlink:title="GPUTPCGeometry.h">
<polygon fill="none" stroke="#000000" points="835.5,-224.5 835.5,-243.5 948.5,-243.5 948.5,-224.5 835.5,-224.5"/>
<text text-anchor="middle" x="892" y="-231.5" font-family="Helvetica,sans-Serif" font-size="10.00" fill="#000000">GPUTPCGeometry.h</text>
</a>
</g>
</g>
<!-- Node38&#45;&gt;Node40 -->
<g id="edge62" class="edge">
<title>Node38&#45;&gt;Node40</title>
<path fill="none" stroke="#191970" d="M1065.0716,-280.3733C1029.7163,-270.9001 975.612,-256.4032 937.3212,-246.1435"/>
<polygon fill="#191970" stroke="#191970" points="938.0247,-242.7086 927.4595,-243.5011 936.213,-249.4701 938.0247,-242.7086"/>
</g>
<!-- Node41 -->
<g id="node42" class="node">
<title>Node41</title>
<g id="a_node42"><a xlink:href="../../d9/d9c/GPUTPCGMPolynomialField_8h.html" target="_top" xlink:title="GPUTPCGMPolynomialField.h">
<polygon fill="none" stroke="#000000" points="1185,-224.5 1185,-243.5 1343,-243.5 1343,-224.5 1185,-224.5"/>
<text text-anchor="middle" x="1264" y="-231.5" font-family="Helvetica,sans-Serif" font-size="10.00" fill="#000000">GPUTPCGMPolynomialField.h</text>
</a>
</g>
</g>
<!-- Node38&#45;&gt;Node41 -->
<g id="edge64" class="edge">
<title>Node38&#45;&gt;Node41</title>
<path fill="none" stroke="#191970" d="M1129.0207,-280.3733C1156.0078,-271.1016 1197.0017,-257.0178 1226.7311,-246.804"/>
<polygon fill="#191970" stroke="#191970" points="1228.0248,-250.0605 1236.3449,-243.5011 1225.7503,-243.4403 1228.0248,-250.0605"/>
</g>
<!-- Node39&#45;&gt;Node27 -->
<g id="edge61" class="edge">
<title>Node39&#45;&gt;Node27</title>
<path fill="none" stroke="#191970" d="M1048.8709,-224.2455C1049.5234,-216.9382 1050.438,-206.6944 1051.2407,-197.7046"/>
<polygon fill="#191970" stroke="#191970" points="1054.7358,-197.9143 1052.139,-187.6427 1047.7635,-197.2918 1054.7358,-197.9143"/>
</g>
<!-- Node40&#45;&gt;Node4 -->
<g id="edge63" class="edge">
<title>Node40&#45;&gt;Node4</title>
<path fill="none" stroke="#191970" d="M907.618,-224.4791C919.2472,-216.3972 934.2332,-203.6339 941,-188 954.4171,-157.0013 963.457,-137.2314 941,-112 930.1607,-99.8215 719.7174,-80.486 610.9396,-71.2486"/>
<polygon fill="#191970" stroke="#191970" points="610.9994,-67.7413 600.7402,-70.3868 610.4099,-74.7164 610.9994,-67.7413"/>
</g>
<!-- Node41&#45;&gt;Node32 -->
<g id="edge65" class="edge">
<title>Node41&#45;&gt;Node32</title>
<path fill="none" stroke="#191970" d="M1264,-224.2455C1264,-216.9382 1264,-206.6944 1264,-197.7046"/>
<polygon fill="#191970" stroke="#191970" points="1267.5001,-197.6426 1264,-187.6427 1260.5001,-197.6427 1267.5001,-197.6426"/>
</g>
</g>
</svg>
