<?xml version="1.0" encoding="UTF-8" standalone="no"?>
<!DOCTYPE svg PUBLIC "-//W3C//DTD SVG 1.1//EN"
 "http://www.w3.org/Graphics/SVG/1.1/DTD/svg11.dtd">
<!-- Generated by graphviz version 2.40.1 (20161225.0304)
 -->
<!-- Title: /home/travis/build/AliceO2Group/AliceO2/Detectors/Raw/include/DetectorsRaw/HBFUtils.h Pages: 1 -->
<!--zoomable 262 -->
<svg id="main" version="1.1" xmlns="http://www.w3.org/2000/svg" xmlns:xlink="http://www.w3.org/1999/xlink" xml:space="preserve" onload="init(evt)">
<style type="text/css"><![CDATA[
.edge:hover path { stroke: red; }
.edge:hover polygon { stroke: red; fill: red; }
]]></style>
<script type="text/javascript"><![CDATA[
var edges = document.getElementsByTagName('g');
if (edges && edges.length) {
  for (var i=0;i<edges.length;i++) {
    if (edges[i].id.substr(0,4)=='edge') {
      edges[i].setAttribute('class','edge');
    }
  }
}
]]></script>
        <defs>
                <circle id="rim" cx="0" cy="0" r="7"/>
                <circle id="rim2" cx="0" cy="0" r="3.5"/>
                <g id="zoomPlus">
                        <use xlink:href="#rim" fill="#404040">
                                <set attributeName="fill" to="#808080" begin="zoomplus.mouseover" end="zoomplus.mouseout"/>
                        </use>
                        <path d="M-4,0h8M0,-4v8" fill="none" stroke="white" stroke-width="1.5" pointer-events="none"/>
                </g>
                <g id="zoomMin">
                        <use xlink:href="#rim" fill="#404040">
                                <set attributeName="fill" to="#808080" begin="zoomminus.mouseover" end="zoomminus.mouseout"/>
                        </use>
                        <path d="M-4,0h8" fill="none" stroke="white" stroke-width="1.5" pointer-events="none"/>
                </g>
                <g id="dirArrow">
                        <path fill="none" stroke="white" stroke-width="1.5" d="M0,-3.0v7 M-2.5,-0.5L0,-3.0L2.5,-0.5"/>
                </g>
               <g id="resetDef">
                       <use xlink:href="#rim2" fill="#404040">
                               <set attributeName="fill" to="#808080" begin="reset.mouseover" end="reset.mouseout"/>
                       </use>
               </g>
        </defs>

<script type="text/javascript">
var viewWidth = 1141;
var viewHeight = 262;
var sectionId = 'dynsection-0';
</script>
<script xlink:href="../../svgpan.js"/>
<svg id="graph" class="graph">
<g id="viewport">
<title>/home/travis/build/AliceO2Group/AliceO2/Detectors/Raw/include/DetectorsRaw/HBFUtils.h</title>
<!-- Node0 -->
<g id="node1" class="node">
<title>Node0</title>
<polygon fill="#bfbfbf" stroke="#000000" points="571,-201.5 571,-253.5 713,-253.5 713,-201.5 571,-201.5"/>
<text text-anchor="start" x="579" y="-241.5" font-family="Helvetica,sans-Serif" font-size="10.00" fill="#000000">/home/travis/build</text>
<text text-anchor="start" x="579" y="-230.5" font-family="Helvetica,sans-Serif" font-size="10.00" fill="#000000">/AliceO2Group/AliceO2</text>
<text text-anchor="start" x="579" y="-219.5" font-family="Helvetica,sans-Serif" font-size="10.00" fill="#000000">/Detectors/Raw/include</text>
<text text-anchor="middle" x="642" y="-208.5" font-family="Helvetica,sans-Serif" font-size="10.00" fill="#000000">/DetectorsRaw/HBFUtils.h</text>
</g>
<!-- Node1 -->
<g id="node2" class="node">
<title>Node1</title>
<polygon fill="none" stroke="#bfbfbf" points="583.5,-73 583.5,-92 642.5,-92 642.5,-73 583.5,-73"/>
<text text-anchor="middle" x="613" y="-80" font-family="Helvetica,sans-Serif" font-size="10.00" fill="#000000">Rtypes.h</text>
</g>
<!-- Node0&#45;&gt;Node1 -->
<g id="edge1" class="edge">
<title>Node0&#45;&gt;Node1</title>
<path fill="none" stroke="#191970" d="M621.6883,-201.319C614.6359,-190.6608 607.5969,-177.8395 604,-165 598.1336,-144.0593 602.3135,-119.1326 606.7325,-102.1997"/>
<polygon fill="#191970" stroke="#191970" points="610.1652,-102.927 609.5676,-92.349 603.4382,-100.9908 610.1652,-102.927"/>
</g>
<!-- Node2 -->
<g id="node3" class="node">
<title>Node2</title>
<g id="a_node3"><a xlink:href="../../db/d2c/ConfigurableParam_8h.html" target="_top" xlink:title="CommonUtils/Configurable\lParam.h">
<polygon fill="none" stroke="#000000" points="150,-67.5 150,-97.5 298,-97.5 298,-67.5 150,-67.5"/>
<text text-anchor="start" x="158" y="-85.5" font-family="Helvetica,sans-Serif" font-size="10.00" fill="#000000">CommonUtils/Configurable</text>
<text text-anchor="middle" x="224" y="-74.5" font-family="Helvetica,sans-Serif" font-size="10.00" fill="#000000">Param.h</text>
</a>
</g>
</g>
<!-- Node0&#45;&gt;Node2 -->
<g id="edge2" class="edge">
<title>Node0&#45;&gt;Node2</title>
<path fill="none" stroke="#191970" d="M570.7915,-215.4168C517.501,-205.1913 443.3711,-188.436 381,-165 336.1402,-148.1439 287.7971,-121.2904 256.7868,-102.8258"/>
<polygon fill="#191970" stroke="#191970" points="258.5038,-99.7742 248.1302,-97.6206 254.8966,-105.7733 258.5038,-99.7742"/>
</g>
<!-- Node9 -->
<g id="node10" class="node">
<title>Node9</title>
<g id="a_node10"><a xlink:href="../../da/d6b/ConfigurableParamHelper_8h.html" target="_top" xlink:title="CommonUtils/Configurable\lParamHelper.h">
<polygon fill="none" stroke="#000000" points="390,-134.5 390,-164.5 538,-164.5 538,-134.5 390,-134.5"/>
<text text-anchor="start" x="398" y="-152.5" font-family="Helvetica,sans-Serif" font-size="10.00" fill="#000000">CommonUtils/Configurable</text>
<text text-anchor="middle" x="464" y="-141.5" font-family="Helvetica,sans-Serif" font-size="10.00" fill="#000000">ParamHelper.h</text>
</a>
</g>
</g>
<!-- Node0&#45;&gt;Node9 -->
<g id="edge9" class="edge">
<title>Node0&#45;&gt;Node9</title>
<path fill="none" stroke="#191970" d="M582.2334,-201.3101C557.8424,-190.622 530.1561,-178.4898 507.7097,-168.6537"/>
<polygon fill="#191970" stroke="#191970" points="508.9996,-165.3977 498.4356,-164.5897 506.19,-171.8091 508.9996,-165.3977"/>
</g>
<!-- Node13 -->
<g id="node14" class="node">
<title>Node13</title>
<g id="a_node14"><a xlink:href="../../d9/d80/InteractionRecord_8h.html" target="_top" xlink:title="CommonDataFormat/Interaction\lRecord.h">
<polygon fill="none" stroke="#000000" points="613,-134.5 613,-164.5 787,-164.5 787,-134.5 613,-134.5"/>
<text text-anchor="start" x="621" y="-152.5" font-family="Helvetica,sans-Serif" font-size="10.00" fill="#000000">CommonDataFormat/Interaction</text>
<text text-anchor="middle" x="700" y="-141.5" font-family="Helvetica,sans-Serif" font-size="10.00" fill="#000000">Record.h</text>
</a>
</g>
</g>
<!-- Node0&#45;&gt;Node13 -->
<g id="edge15" class="edge">
<title>Node0&#45;&gt;Node13</title>
<path fill="none" stroke="#191970" d="M661.6362,-201.0928C668.5098,-191.8489 676.1697,-181.5476 682.8264,-172.5955"/>
<polygon fill="#191970" stroke="#191970" points="685.6843,-174.6177 688.8428,-164.5046 680.0671,-170.4407 685.6843,-174.6177"/>
</g>
<!-- Node18 -->
<g id="node19" class="node">
<title>Node18</title>
<g id="a_node19"><a xlink:href="../../d4/d78/DataFormats_2Headers_2include_2Headers_2RAWDataHeader_8h.html" target="_top" xlink:title="Headers/RAWDataHeader.h">
<polygon fill="none" stroke="#000000" points="805.5,-140 805.5,-159 954.5,-159 954.5,-140 805.5,-140"/>
<text text-anchor="middle" x="880" y="-147" font-family="Helvetica,sans-Serif" font-size="10.00" fill="#000000">Headers/RAWDataHeader.h</text>
</a>
</g>
</g>
<!-- Node0&#45;&gt;Node18 -->
<g id="edge21" class="edge">
<title>Node0&#45;&gt;Node18</title>
<path fill="none" stroke="#191970" d="M713.0855,-204.2031C755.0984,-190.4341 806.6768,-173.5303 841.2822,-162.189"/>
<polygon fill="#191970" stroke="#191970" points="842.5959,-165.4417 851.0085,-159.0014 840.4158,-158.7899 842.5959,-165.4417"/>
</g>
<!-- Node19 -->
<g id="node20" class="node">
<title>Node19</title>
<g id="a_node20"><a xlink:href="../../de/da4/Triggers_8h.html" target="_top" xlink:title="Definition of the 32 Central Trigger System (CTS) Trigger Types defined in https://twiki.cern.ch/twiki/pub/ALICE/NoteForFEDevelopers/CTS_CRU_FE_interface.pdf. ">
<polygon fill="none" stroke="#000000" points="973,-140 973,-159 1133,-159 1133,-140 973,-140"/>
<text text-anchor="middle" x="1053" y="-147" font-family="Helvetica,sans-Serif" font-size="10.00" fill="#000000">CommonConstants/Triggers.h</text>
</a>
</g>
</g>
<!-- Node0&#45;&gt;Node19 -->
<g id="edge23" class="edge">
<title>Node0&#45;&gt;Node19</title>
<path fill="none" stroke="#191970" d="M713.1215,-214.0025C792.1171,-199.0106 918.2887,-175.0656 992.651,-160.9531"/>
<polygon fill="#191970" stroke="#191970" points="993.6177,-164.3322 1002.7897,-159.029 992.3124,-157.4549 993.6177,-164.3322"/>
</g>
<!-- Node3 -->
<g id="node4" class="node">
<title>Node3</title>
<polygon fill="none" stroke="#bfbfbf" points="377.5,-6 377.5,-25 424.5,-25 424.5,-6 377.5,-6"/>
<text text-anchor="middle" x="401" y="-13" font-family="Helvetica,sans-Serif" font-size="10.00" fill="#000000">vector</text>
</g>
<!-- Node2&#45;&gt;Node3 -->
<g id="edge3" class="edge">
<title>Node2&#45;&gt;Node3</title>
<path fill="none" stroke="#191970" d="M269.4989,-67.4749C298.0468,-57.7413 335.4792,-44.4168 368,-31 369.3531,-30.4418 370.731,-29.8579 372.1182,-29.2576"/>
<polygon fill="#191970" stroke="#191970" points="373.5583,-32.4477 381.2435,-25.1547 370.6877,-26.0633 373.5583,-32.4477"/>
</g>
<!-- Node4 -->
<g id="node5" class="node">
<title>Node4</title>
<polygon fill="none" stroke="#bfbfbf" points="0,-6 0,-25 38,-25 38,-6 0,-6"/>
<text text-anchor="middle" x="19" y="-13" font-family="Helvetica,sans-Serif" font-size="10.00" fill="#000000">map</text>
</g>
<!-- Node2&#45;&gt;Node4 -->
<g id="edge4" class="edge">
<title>Node2&#45;&gt;Node4</title>
<path fill="none" stroke="#191970" d="M159.7452,-67.4889C125.6229,-58.6041 83.3427,-46.1245 47,-31 45.9997,-30.5837 44.9893,-30.1409 43.9762,-29.678"/>
<polygon fill="#191970" stroke="#191970" points="45.4878,-26.5205 34.9826,-25.1449 42.3371,-32.7714 45.4878,-26.5205"/>
</g>
<!-- Node5 -->
<g id="node6" class="node">
<title>Node5</title>
<polygon fill="none" stroke="#bfbfbf" points="56.5,-6 56.5,-25 149.5,-25 149.5,-6 56.5,-6"/>
<text text-anchor="middle" x="103" y="-13" font-family="Helvetica,sans-Serif" font-size="10.00" fill="#000000">unordered_map</text>
</g>
<!-- Node2&#45;&gt;Node5 -->
<g id="edge5" class="edge">
<title>Node2&#45;&gt;Node5</title>
<path fill="none" stroke="#191970" d="M196.8452,-67.4639C176.6344,-56.2728 149.2036,-41.0838 129.2201,-30.0186"/>
<polygon fill="#191970" stroke="#191970" points="130.7883,-26.8862 120.3444,-25.1039 127.3973,-33.0101 130.7883,-26.8862"/>
</g>
<!-- Node6 -->
<g id="node7" class="node">
<title>Node6</title>
<polygon fill="none" stroke="#bfbfbf" points="167.5,-.5 167.5,-30.5 280.5,-30.5 280.5,-.5 167.5,-.5"/>
<text text-anchor="start" x="175.5" y="-18.5" font-family="Helvetica,sans-Serif" font-size="10.00" fill="#000000">boost/property_tree</text>
<text text-anchor="middle" x="224" y="-7.5" font-family="Helvetica,sans-Serif" font-size="10.00" fill="#000000">/ptree.hpp</text>
</g>
<!-- Node2&#45;&gt;Node6 -->
<g id="edge6" class="edge">
<title>Node2&#45;&gt;Node6</title>
<path fill="none" stroke="#191970" d="M224,-67.2967C224,-59.5013 224,-49.7991 224,-40.9064"/>
<polygon fill="#191970" stroke="#191970" points="227.5001,-40.6431 224,-30.6432 220.5001,-40.6432 227.5001,-40.6431"/>
</g>
<!-- Node7 -->
<g id="node8" class="node">
<title>Node7</title>
<polygon fill="none" stroke="#bfbfbf" points="447.5,-6 447.5,-25 504.5,-25 504.5,-6 447.5,-6"/>
<text text-anchor="middle" x="476" y="-13" font-family="Helvetica,sans-Serif" font-size="10.00" fill="#000000">typeinfo</text>
</g>
<!-- Node2&#45;&gt;Node7 -->
<g id="edge7" class="edge">
<title>Node2&#45;&gt;Node7</title>
<path fill="none" stroke="#191970" d="M294.0607,-67.4065C335.1442,-58.0382 387.8749,-45.1175 434,-31 436.5594,-30.2166 439.1903,-29.3635 441.827,-28.4737"/>
<polygon fill="#191970" stroke="#191970" points="443.0114,-31.7674 451.2845,-25.1488 440.6897,-25.1636 443.0114,-31.7674"/>
</g>
<!-- Node8 -->
<g id="node9" class="node">
<title>Node8</title>
<polygon fill="none" stroke="#bfbfbf" points="299,-6 299,-25 359,-25 359,-6 299,-6"/>
<text text-anchor="middle" x="329" y="-13" font-family="Helvetica,sans-Serif" font-size="10.00" fill="#000000">iostream</text>
</g>
<!-- Node2&#45;&gt;Node8 -->
<g id="edge8" class="edge">
<title>Node2&#45;&gt;Node8</title>
<path fill="none" stroke="#191970" d="M247.564,-67.4639C264.7056,-56.526 287.8321,-41.769 305.0602,-30.7759"/>
<polygon fill="#191970" stroke="#191970" points="307.4018,-33.4336 313.9491,-25.1039 303.6364,-27.5326 307.4018,-33.4336"/>
</g>
<!-- Node9&#45;&gt;Node2 -->
<g id="edge10" class="edge">
<title>Node9&#45;&gt;Node2</title>
<path fill="none" stroke="#191970" d="M410.1393,-134.4639C373.9825,-124.3701 326.1756,-111.024 288.065,-100.3848"/>
<polygon fill="#191970" stroke="#191970" points="288.6684,-96.9195 278.0956,-97.6017 286.7862,-103.6617 288.6684,-96.9195"/>
</g>
<!-- Node9&#45;&gt;Node7 -->
<g id="edge13" class="edge">
<title>Node9&#45;&gt;Node7</title>
<path fill="none" stroke="#191970" d="M465.3532,-134.389C467.5307,-110.0735 471.8121,-62.2644 474.2296,-35.2698"/>
<polygon fill="#191970" stroke="#191970" points="477.7339,-35.3765 475.1399,-25.1042 470.7618,-34.7521 477.7339,-35.3765"/>
</g>
<!-- Node10 -->
<g id="node11" class="node">
<title>Node10</title>
<polygon fill="none" stroke="#bfbfbf" points="508.5,-73 508.5,-92 565.5,-92 565.5,-73 508.5,-73"/>
<text text-anchor="middle" x="537" y="-80" font-family="Helvetica,sans-Serif" font-size="10.00" fill="#000000">TClass.h</text>
</g>
<!-- Node9&#45;&gt;Node10 -->
<g id="edge11" class="edge">
<title>Node9&#45;&gt;Node10</title>
<path fill="none" stroke="#191970" d="M480.5648,-134.2967C492.049,-123.7564 507.3312,-109.7303 519.0962,-98.9323"/>
<polygon fill="#191970" stroke="#191970" points="521.5886,-101.3954 526.5894,-92.055 516.8553,-96.2382 521.5886,-101.3954"/>
</g>
<!-- Node11 -->
<g id="node12" class="node">
<title>Node11</title>
<polygon fill="none" stroke="#bfbfbf" points="316.5,-73 316.5,-92 385.5,-92 385.5,-73 316.5,-73"/>
<text text-anchor="middle" x="351" y="-80" font-family="Helvetica,sans-Serif" font-size="10.00" fill="#000000">type_traits</text>
</g>
<!-- Node9&#45;&gt;Node11 -->
<g id="edge12" class="edge">
<title>Node9&#45;&gt;Node11</title>
<path fill="none" stroke="#191970" d="M438.6406,-134.4639C419.9369,-123.3741 394.6119,-108.3584 375.995,-97.32"/>
<polygon fill="#191970" stroke="#191970" points="377.5844,-94.1935 367.1977,-92.1039 374.0143,-100.2147 377.5844,-94.1935"/>
</g>
<!-- Node12 -->
<g id="node13" class="node">
<title>Node12</title>
<polygon fill="none" stroke="#bfbfbf" points="404,-73 404,-92 452,-92 452,-73 404,-73"/>
<text text-anchor="middle" x="428" y="-80" font-family="Helvetica,sans-Serif" font-size="10.00" fill="#000000">TFile.h</text>
</g>
<!-- Node9&#45;&gt;Node12 -->
<g id="edge14" class="edge">
<title>Node9&#45;&gt;Node12</title>
<path fill="none" stroke="#191970" d="M455.831,-134.2967C450.5488,-124.4658 443.6372,-111.6026 438.0233,-101.1545"/>
<polygon fill="#191970" stroke="#191970" points="440.9504,-99.2073 433.134,-92.055 434.7841,-102.5205 440.9504,-99.2073"/>
</g>
<!-- Node13&#45;&gt;Node1 -->
<g id="edge16" class="edge">
<title>Node13&#45;&gt;Node1</title>
<path fill="none" stroke="#191970" d="M680.2584,-134.2967C666.3085,-123.5537 647.6565,-109.1895 633.5332,-98.3129"/>
<polygon fill="#191970" stroke="#191970" points="635.4656,-95.3835 625.4072,-92.055 631.1945,-100.9295 635.4656,-95.3835"/>
</g>
<!-- Node14 -->
<g id="node15" class="node">
<title>Node14</title>
<polygon fill="none" stroke="#bfbfbf" points="934.5,-73 934.5,-92 983.5,-92 983.5,-73 934.5,-73"/>
<text text-anchor="middle" x="959" y="-80" font-family="Helvetica,sans-Serif" font-size="10.00" fill="#000000">iosfwd</text>
</g>
<!-- Node13&#45;&gt;Node14 -->
<g id="edge17" class="edge">
<title>Node13&#45;&gt;Node14</title>
<path fill="none" stroke="#191970" d="M784.2012,-134.4469C826.9481,-125.7479 879.3564,-113.4494 925,-98 926.8434,-97.376 928.7217,-96.6855 930.6014,-95.9524"/>
<polygon fill="#191970" stroke="#191970" points="932.0046,-99.1592 939.8562,-92.0457 929.2822,-92.7103 932.0046,-99.1592"/>
</g>
<!-- Node15 -->
<g id="node16" class="node">
<title>Node15</title>
<polygon fill="none" stroke="#bfbfbf" points="660.5,-73 660.5,-92 707.5,-92 707.5,-73 660.5,-73"/>
<text text-anchor="middle" x="684" y="-80" font-family="Helvetica,sans-Serif" font-size="10.00" fill="#000000">cmath</text>
</g>
<!-- Node13&#45;&gt;Node15 -->
<g id="edge18" class="edge">
<title>Node13&#45;&gt;Node15</title>
<path fill="none" stroke="#191970" d="M696.3694,-134.2967C694.0701,-124.6685 691.0762,-112.1318 688.6099,-101.8038"/>
<polygon fill="#191970" stroke="#191970" points="692.0089,-100.9685 686.2818,-92.055 685.2003,-102.5945 692.0089,-100.9685"/>
</g>
<!-- Node16 -->
<g id="node17" class="node">
<title>Node16</title>
<polygon fill="none" stroke="#bfbfbf" points="1002,-73 1002,-92 1052,-92 1052,-73 1002,-73"/>
<text text-anchor="middle" x="1027" y="-80" font-family="Helvetica,sans-Serif" font-size="10.00" fill="#000000">cstdint</text>
</g>
<!-- Node13&#45;&gt;Node16 -->
<g id="edge19" class="edge">
<title>Node13&#45;&gt;Node16</title>
<path fill="none" stroke="#191970" d="M787.3731,-135.2949C866.4725,-122.2461 973.5155,-104.0457 993,-98 994.9052,-97.4088 996.8433,-96.7361 998.7788,-96.0098"/>
<polygon fill="#191970" stroke="#191970" points="1000.3817,-99.1339 1008.2718,-92.0631 997.6943,-92.6703 1000.3817,-99.1339"/>
</g>
<!-- Node17 -->
<g id="node18" class="node">
<title>Node17</title>
<g id="a_node18"><a xlink:href="../../d4/dc6/LHCConstants_8h.html" target="_top" xlink:title="Header to collect LHC related constants. ">
<polygon fill="none" stroke="#000000" points="726,-73 726,-92 916,-92 916,-73 726,-73"/>
<text text-anchor="middle" x="821" y="-80" font-family="Helvetica,sans-Serif" font-size="10.00" fill="#000000">CommonConstants/LHCConstants.h</text>
</a>
</g>
</g>
<!-- Node13&#45;&gt;Node17 -->
<g id="edge20" class="edge">
<title>Node13&#45;&gt;Node17</title>
<path fill="none" stroke="#191970" d="M727.1548,-134.4639C747.3656,-123.2728 774.7964,-108.0838 794.7799,-97.0186"/>
<polygon fill="#191970" stroke="#191970" points="796.6027,-100.0101 803.6556,-92.1039 793.2117,-93.8862 796.6027,-100.0101"/>
</g>
<!-- Node18&#45;&gt;Node16 -->
<g id="edge22" class="edge">
<title>Node18&#45;&gt;Node16</title>
<path fill="none" stroke="#191970" d="M901.0615,-139.9005C926.1681,-128.4574 968.3077,-109.2509 996.8598,-96.2374"/>
<polygon fill="#191970" stroke="#191970" points="998.3297,-99.4139 1005.9776,-92.0817 995.4265,-93.0443 998.3297,-99.4139"/>
</g>
<!-- Node19&#45;&gt;Node16 -->
<g id="edge24" class="edge">
<title>Node19&#45;&gt;Node16</title>
<path fill="none" stroke="#191970" d="M1049.2748,-139.9005C1045.4134,-129.95 1039.274,-114.1292 1034.4177,-101.6147"/>
<polygon fill="#191970" stroke="#191970" points="1037.599,-100.1381 1030.7183,-92.0817 1031.0731,-102.6706 1037.599,-100.1381"/>
</g>
</g>
</svg>
        <g id="navigator" transform="translate(0 0)" fill="#404254">
                <rect fill="#f2f5e9" fill-opacity="0.5" stroke="#606060" stroke-width=".5" x="0" y="0" width="60" height="60"/>
                <use id="zoomplus" xlink:href="#zoomPlus" x="17" y="9" onmousedown="handleZoom(evt,'in')"/>
                <use id="zoomminus" xlink:href="#zoomMin" x="42" y="9" onmousedown="handleZoom(evt,'out')"/>
                <use id="reset" xlink:href="#resetDef" x="30" y="36" onmousedown="handleReset()"/>
                <g id="arrowUp" xlink:href="#dirArrow" transform="translate(30 24)" onmousedown="handlePan(0,-1)">
                  <use xlink:href="#rim" fill="#404040">
                        <set attributeName="fill" to="#808080" begin="arrowUp.mouseover" end="arrowUp.mouseout"/>
                  </use>
                  <path fill="none" stroke="white" stroke-width="1.5" d="M0,-3.0v7 M-2.5,-0.5L0,-3.0L2.5,-0.5"/>
                </g>
                <g id="arrowRight" xlink:href="#dirArrow" transform="rotate(90) translate(36 -43)" onmousedown="handlePan(1,0)">
                  <use xlink:href="#rim" fill="#404040">
                        <set attributeName="fill" to="#808080" begin="arrowRight.mouseover" end="arrowRight.mouseout"/>
                  </use>
                  <path fill="none" stroke="white" stroke-width="1.5" d="M0,-3.0v7 M-2.5,-0.5L0,-3.0L2.5,-0.5"/>
                </g>
                <g id="arrowDown" xlink:href="#dirArrow" transform="rotate(180) translate(-30 -48)" onmousedown="handlePan(0,1)">
                  <use xlink:href="#rim" fill="#404040">
                        <set attributeName="fill" to="#808080" begin="arrowDown.mouseover" end="arrowDown.mouseout"/>
                  </use>
                  <path fill="none" stroke="white" stroke-width="1.5" d="M0,-3.0v7 M-2.5,-0.5L0,-3.0L2.5,-0.5"/>
                </g>
                <g id="arrowLeft" xlink:href="#dirArrow" transform="rotate(270) translate(-36 17)" onmousedown="handlePan(-1,0)">
                  <use xlink:href="#rim" fill="#404040">
                        <set attributeName="fill" to="#808080" begin="arrowLeft.mouseover" end="arrowLeft.mouseout"/>
                  </use>
                  <path fill="none" stroke="white" stroke-width="1.5" d="M0,-3.0v7 M-2.5,-0.5L0,-3.0L2.5,-0.5"/>
                </g>
        </g>
        <svg viewBox="0 0 15 15" width="100%" height="30px" preserveAspectRatio="xMaxYMin meet">
         <g id="arrow_out" transform="scale(0.3 0.3)">
          <a xlink:href="HBFUtils_8h__incl_org.svg" target="_base">
           <rect id="button" ry="5" rx="5" y="6" x="6" height="38" width="38"
                fill="#f2f5e9" fill-opacity="0.5" stroke="#606060" stroke-width="1.0"/>
           <path id="arrow"
             d="M 11.500037,31.436501 C 11.940474,20.09759 22.043105,11.32322 32.158766,21.979434 L 37.068811,17.246167 C 37.068811,17.246167 37.088388,32 37.088388,32 L 22.160133,31.978069 C 22.160133,31.978069 26.997745,27.140456 26.997745,27.140456 C 18.528582,18.264221 13.291696,25.230495 11.500037,31.436501 z"
             style="fill:#404040;"/>
          </a>
         </g>
        </svg>
</svg>
