<?xml version="1.0" encoding="UTF-8" standalone="no"?>
<!DOCTYPE svg PUBLIC "-//W3C//DTD SVG 1.1//EN"
 "http://www.w3.org/Graphics/SVG/1.1/DTD/svg11.dtd">
<!-- Generated by graphviz version 2.40.1 (20161225.0304)
 -->
<!-- Title: /home/travis/build/AliceO2Group/AliceO2/Detectors/TPC/base/include/TPCBase/Digit.h Pages: 1 -->
<svg width="239pt" height="229pt"
 viewBox="0.00 0.00 239.00 229.00" xmlns="http://www.w3.org/2000/svg" xmlns:xlink="http://www.w3.org/1999/xlink">
<g id="graph0" class="graph" transform="scale(1 1) rotate(0) translate(4 225)">
<title>/home/travis/build/AliceO2Group/AliceO2/Detectors/TPC/base/include/TPCBase/Digit.h</title>
<!-- Node0 -->
<g id="node1" class="node">
<title>Node0</title>
<polygon fill="#bfbfbf" stroke="#000000" points="0,-168.5 0,-220.5 153,-220.5 153,-168.5 0,-168.5"/>
<text text-anchor="start" x="8" y="-208.5" font-family="Helvetica,sans-Serif" font-size="10.00" fill="#000000">/home/travis/build</text>
<text text-anchor="start" x="8" y="-197.5" font-family="Helvetica,sans-Serif" font-size="10.00" fill="#000000">/AliceO2Group/AliceO2</text>
<text text-anchor="start" x="8" y="-186.5" font-family="Helvetica,sans-Serif" font-size="10.00" fill="#000000">/Detectors/TPC/base/include</text>
<text text-anchor="middle" x="76.5" y="-175.5" font-family="Helvetica,sans-Serif" font-size="10.00" fill="#000000">/TPCBase/Digit.h</text>
</g>
<!-- Node1 -->
<g id="node2" class="node">
<title>Node1</title>
<g id="a_node2"><a xlink:href="../../d2/d45/GPUCommonRtypes_8h.html" target="_top" xlink:title="GPUCommonRtypes.h">
<polygon fill="none" stroke="#000000" points="14,-56.5 14,-75.5 139,-75.5 139,-56.5 14,-56.5"/>
<text text-anchor="middle" x="76.5" y="-63.5" font-family="Helvetica,sans-Serif" font-size="10.00" fill="#000000">GPUCommonRtypes.h</text>
</a>
</g>
</g>
<!-- Node0&#45;&gt;Node1 -->
<g id="edge1" class="edge">
<title>Node0&#45;&gt;Node1</title>
<path fill="none" stroke="#191970" d="M54.3875,-168.2405C46.8539,-157.6711 39.363,-144.9315 35.5,-132 32.9557,-123.483 32.3355,-120.3065 35.5,-112 39.7275,-100.9034 47.9971,-90.7814 56.0088,-82.8751"/>
<polygon fill="#191970" stroke="#191970" points="58.7703,-85.0916 63.7752,-75.7534 54.0393,-79.9323 58.7703,-85.0916"/>
</g>
<!-- Node3 -->
<g id="node4" class="node">
<title>Node3</title>
<g id="a_node4"><a xlink:href="../../df/d5d/common_2include_2CommonDataFormat_2TimeStamp_8h.html" target="_top" xlink:title="CommonDataFormat/TimeStamp.h">
<polygon fill="none" stroke="#000000" points="44,-112.5 44,-131.5 231,-131.5 231,-112.5 44,-112.5"/>
<text text-anchor="middle" x="137.5" y="-119.5" font-family="Helvetica,sans-Serif" font-size="10.00" fill="#000000">CommonDataFormat/TimeStamp.h</text>
</a>
</g>
</g>
<!-- Node0&#45;&gt;Node3 -->
<g id="edge3" class="edge">
<title>Node0&#45;&gt;Node3</title>
<path fill="none" stroke="#191970" d="M98.5224,-168.3258C106.6104,-158.7131 115.5623,-148.0735 122.8453,-139.4174"/>
<polygon fill="#191970" stroke="#191970" points="125.7183,-141.4392 129.4783,-131.534 120.362,-136.9325 125.7183,-141.4392"/>
</g>
<!-- Node2 -->
<g id="node3" class="node">
<title>Node2</title>
<polygon fill="none" stroke="#bfbfbf" points="47,-.5 47,-19.5 106,-19.5 106,-.5 47,-.5"/>
<text text-anchor="middle" x="76.5" y="-7.5" font-family="Helvetica,sans-Serif" font-size="10.00" fill="#000000">Rtypes.h</text>
</g>
<!-- Node1&#45;&gt;Node2 -->
<g id="edge2" class="edge">
<title>Node1&#45;&gt;Node2</title>
<path fill="none" stroke="#191970" d="M76.5,-56.2455C76.5,-48.9382 76.5,-38.6944 76.5,-29.7046"/>
<polygon fill="#191970" stroke="#191970" points="80.0001,-29.6426 76.5,-19.6427 73.0001,-29.6427 80.0001,-29.6426"/>
</g>
<!-- Node3&#45;&gt;Node1 -->
<g id="edge4" class="edge">
<title>Node3&#45;&gt;Node1</title>
<path fill="none" stroke="#191970" d="M126.8746,-112.2455C117.9527,-104.0549 105.012,-92.1749 94.4808,-82.5069"/>
<polygon fill="#191970" stroke="#191970" points="96.7371,-79.8271 87.0036,-75.6427 92.0032,-84.9837 96.7371,-79.8271"/>
</g>
</g>
</svg>
