<?xml version="1.0" encoding="UTF-8" standalone="no"?>
<!DOCTYPE svg PUBLIC "-//W3C//DTD SVG 1.1//EN"
 "http://www.w3.org/Graphics/SVG/1.1/DTD/svg11.dtd">
<!-- Generated by graphviz version 2.40.1 (20161225.0304)
 -->
<!-- Title: /home/travis/build/AliceO2Group/AliceO2/DataFormats/Detectors/FIT/FDD/include/DataFormatsFDD/Digit.h Pages: 1 -->
<svg width="1024pt" height="251pt"
 viewBox="0.00 0.00 1024.00 251.00" xmlns="http://www.w3.org/2000/svg" xmlns:xlink="http://www.w3.org/1999/xlink">
<g id="graph0" class="graph" transform="scale(1 1) rotate(0) translate(4 247)">
<title>/home/travis/build/AliceO2Group/AliceO2/DataFormats/Detectors/FIT/FDD/include/DataFormatsFDD/Digit.h</title>
<!-- Node0 -->
<g id="node1" class="node">
<title>Node0</title>
<polygon fill="#bfbfbf" stroke="#000000" points="449,-179.5 449,-242.5 631,-242.5 631,-179.5 449,-179.5"/>
<text text-anchor="start" x="457" y="-230.5" font-family="Helvetica,sans-Serif" font-size="10.00" fill="#000000">/home/travis/build</text>
<text text-anchor="start" x="457" y="-219.5" font-family="Helvetica,sans-Serif" font-size="10.00" fill="#000000">/AliceO2Group/AliceO2</text>
<text text-anchor="start" x="457" y="-208.5" font-family="Helvetica,sans-Serif" font-size="10.00" fill="#000000">/DataFormats/Detectors</text>
<text text-anchor="start" x="457" y="-197.5" font-family="Helvetica,sans-Serif" font-size="10.00" fill="#000000">/FIT/FDD/include/DataFormatsFDD</text>
<text text-anchor="middle" x="540" y="-186.5" font-family="Helvetica,sans-Serif" font-size="10.00" fill="#000000">/Digit.h</text>
</g>
<!-- Node1 -->
<g id="node2" class="node">
<title>Node1</title>
<g id="a_node2"><a xlink:href="../../de/d64/RangeReference_8h.html" target="_top" xlink:title="Class to refer to the 1st entry and N elements of some group in the continuous container. ">
<polygon fill="none" stroke="#000000" points="0,-118 0,-137 210,-137 210,-118 0,-118"/>
<text text-anchor="middle" x="105" y="-125" font-family="Helvetica,sans-Serif" font-size="10.00" fill="#000000">CommonDataFormat/RangeReference.h</text>
</a>
</g>
</g>
<!-- Node0&#45;&gt;Node1 -->
<g id="edge1" class="edge">
<title>Node0&#45;&gt;Node1</title>
<path fill="none" stroke="#191970" d="M448.8097,-193.4957C363.2699,-177.0759 237.8414,-152.9994 164.4919,-138.9197"/>
<polygon fill="#191970" stroke="#191970" points="164.9777,-135.4491 154.4972,-137.0012 163.6581,-142.3236 164.9777,-135.4491"/>
</g>
<!-- Node3 -->
<g id="node4" class="node">
<title>Node3</title>
<polygon fill="none" stroke="#bfbfbf" points="463.5,-.5 463.5,-19.5 522.5,-19.5 522.5,-.5 463.5,-.5"/>
<text text-anchor="middle" x="493" y="-7.5" font-family="Helvetica,sans-Serif" font-size="10.00" fill="#000000">Rtypes.h</text>
</g>
<!-- Node0&#45;&gt;Node3 -->
<g id="edge16" class="edge">
<title>Node0&#45;&gt;Node3</title>
<path fill="none" stroke="#191970" d="M513.2046,-179.437C493.2968,-153.5728 468.0831,-114.9984 459,-76 456.9837,-67.3428 456.2186,-64.4425 459,-56 462.5056,-45.3594 469.5241,-35.164 476.2787,-27.0877"/>
<polygon fill="#191970" stroke="#191970" points="479.0014,-29.2937 483.0638,-19.5087 473.786,-24.6247 479.0014,-29.2937"/>
</g>
<!-- Node4 -->
<g id="node5" class="node">
<title>Node4</title>
<g id="a_node5"><a xlink:href="../../d9/d80/InteractionRecord_8h.html" target="_top" xlink:title="CommonDataFormat/Interaction\lRecord.h">
<polygon fill="none" stroke="#000000" points="511,-112.5 511,-142.5 685,-142.5 685,-112.5 511,-112.5"/>
<text text-anchor="start" x="519" y="-130.5" font-family="Helvetica,sans-Serif" font-size="10.00" fill="#000000">CommonDataFormat/Interaction</text>
<text text-anchor="middle" x="598" y="-119.5" font-family="Helvetica,sans-Serif" font-size="10.00" fill="#000000">Record.h</text>
</a>
</g>
</g>
<!-- Node0&#45;&gt;Node4 -->
<g id="edge4" class="edge">
<title>Node0&#45;&gt;Node4</title>
<path fill="none" stroke="#191970" d="M561.9273,-179.4322C568.4715,-170.0109 575.5274,-159.8528 581.6484,-151.0407"/>
<polygon fill="#191970" stroke="#191970" points="584.5737,-152.9643 587.4041,-142.7545 578.8246,-148.9708 584.5737,-152.9643"/>
</g>
<!-- Node5 -->
<g id="node6" class="node">
<title>Node5</title>
<polygon fill="none" stroke="#bfbfbf" points="468.5,-56.5 468.5,-75.5 517.5,-75.5 517.5,-56.5 468.5,-56.5"/>
<text text-anchor="middle" x="493" y="-63.5" font-family="Helvetica,sans-Serif" font-size="10.00" fill="#000000">iosfwd</text>
</g>
<!-- Node0&#45;&gt;Node5 -->
<g id="edge15" class="edge">
<title>Node0&#45;&gt;Node5</title>
<path fill="none" stroke="#191970" d="M518.9068,-179.3337C512.4728,-168.2664 506.0389,-155.4809 502,-143 495.9311,-124.2463 493.8605,-101.7495 493.1998,-85.93"/>
<polygon fill="#191970" stroke="#191970" points="496.6935,-85.6442 492.9307,-75.7401 489.696,-85.829 496.6935,-85.6442"/>
</g>
<!-- Node9 -->
<g id="node10" class="node">
<title>Node9</title>
<g id="a_node10"><a xlink:href="../../df/d5d/common_2include_2CommonDataFormat_2TimeStamp_8h.html" target="_top" xlink:title="CommonDataFormat/TimeStamp.h">
<polygon fill="none" stroke="#000000" points="228.5,-118 228.5,-137 415.5,-137 415.5,-118 228.5,-118"/>
<text text-anchor="middle" x="322" y="-125" font-family="Helvetica,sans-Serif" font-size="10.00" fill="#000000">CommonDataFormat/TimeStamp.h</text>
</a>
</g>
</g>
<!-- Node0&#45;&gt;Node9 -->
<g id="edge10" class="edge">
<title>Node0&#45;&gt;Node9</title>
<path fill="none" stroke="#191970" d="M457.5835,-179.4322C422.5757,-166.0233 383.6716,-151.1219 356.548,-140.7328"/>
<polygon fill="#191970" stroke="#191970" points="357.7074,-137.429 347.1171,-137.1205 355.2036,-143.9659 357.7074,-137.429"/>
</g>
<!-- Node10 -->
<g id="node11" class="node">
<title>Node10</title>
<g id="a_node11"><a xlink:href="../../d1/d18/FIT_2FDD_2include_2DataFormatsFDD_2ChannelData_8h.html" target="_top" xlink:title="DataFormatsFDD/ChannelData.h">
<polygon fill="none" stroke="#000000" points="703.5,-118 703.5,-137 878.5,-137 878.5,-118 703.5,-118"/>
<text text-anchor="middle" x="791" y="-125" font-family="Helvetica,sans-Serif" font-size="10.00" fill="#000000">DataFormatsFDD/ChannelData.h</text>
</a>
</g>
</g>
<!-- Node0&#45;&gt;Node10 -->
<g id="edge12" class="edge">
<title>Node0&#45;&gt;Node10</title>
<path fill="none" stroke="#191970" d="M631.3268,-180.6184C673.0657,-166.7331 720.2636,-151.0318 752.4527,-140.3235"/>
<polygon fill="#191970" stroke="#191970" points="753.9665,-143.5086 762.3504,-137.0308 751.7568,-136.8665 753.9665,-143.5086"/>
</g>
<!-- Node12 -->
<g id="node13" class="node">
<title>Node12</title>
<polygon fill="none" stroke="#bfbfbf" points="896.5,-118 896.5,-137 953.5,-137 953.5,-118 896.5,-118"/>
<text text-anchor="middle" x="925" y="-125" font-family="Helvetica,sans-Serif" font-size="10.00" fill="#000000">gsl/span</text>
</g>
<!-- Node0&#45;&gt;Node12 -->
<g id="edge17" class="edge">
<title>Node0&#45;&gt;Node12</title>
<path fill="none" stroke="#191970" d="M631.0361,-198.1092C701.7172,-186.9185 801.7132,-168.4881 887,-143 889.304,-142.3115 891.6609,-141.5351 894.0168,-140.7059"/>
<polygon fill="#191970" stroke="#191970" points="895.4465,-143.9071 903.5574,-137.0907 892.966,-137.3613 895.4465,-143.9071"/>
</g>
<!-- Node13 -->
<g id="node14" class="node">
<title>Node13</title>
<polygon fill="none" stroke="#bfbfbf" points="972,-118 972,-137 1016,-137 1016,-118 972,-118"/>
<text text-anchor="middle" x="994" y="-125" font-family="Helvetica,sans-Serif" font-size="10.00" fill="#000000">bitset</text>
</g>
<!-- Node0&#45;&gt;Node13 -->
<g id="edge18" class="edge">
<title>Node0&#45;&gt;Node13</title>
<path fill="none" stroke="#191970" d="M631.3978,-204.3766C718.3576,-196.2036 852.0205,-178.7359 963,-143 964.6145,-142.4801 966.2492,-141.8868 967.8803,-141.2426"/>
<polygon fill="#191970" stroke="#191970" points="969.3177,-144.4339 977.0134,-137.1519 966.4563,-138.0454 969.3177,-144.4339"/>
</g>
<!-- Node2 -->
<g id="node3" class="node">
<title>Node2</title>
<g id="a_node3"><a xlink:href="../../d2/d45/GPUCommonRtypes_8h.html" target="_top" xlink:title="GPUCommonRtypes.h">
<polygon fill="none" stroke="#000000" points="259.5,-56.5 259.5,-75.5 384.5,-75.5 384.5,-56.5 259.5,-56.5"/>
<text text-anchor="middle" x="322" y="-63.5" font-family="Helvetica,sans-Serif" font-size="10.00" fill="#000000">GPUCommonRtypes.h</text>
</a>
</g>
</g>
<!-- Node1&#45;&gt;Node2 -->
<g id="edge2" class="edge">
<title>Node1&#45;&gt;Node2</title>
<path fill="none" stroke="#191970" d="M138.9063,-117.8906C176.5679,-107.2169 237.4702,-89.9566 278.5885,-78.3033"/>
<polygon fill="#191970" stroke="#191970" points="279.6651,-81.6361 288.3318,-75.5419 277.7564,-74.9013 279.6651,-81.6361"/>
</g>
<!-- Node2&#45;&gt;Node3 -->
<g id="edge3" class="edge">
<title>Node2&#45;&gt;Node3</title>
<path fill="none" stroke="#191970" d="M351.3959,-56.3733C379.8307,-47.0613 423.0877,-32.8953 454.3081,-22.671"/>
<polygon fill="#191970" stroke="#191970" points="455.5736,-25.9396 463.9876,-19.5011 453.395,-19.2872 455.5736,-25.9396"/>
</g>
<!-- Node4&#45;&gt;Node3 -->
<g id="edge5" class="edge">
<title>Node4&#45;&gt;Node3</title>
<path fill="none" stroke="#191970" d="M584.2731,-112.1389C564.6676,-90.1994 528.7628,-50.0203 508.317,-27.1404"/>
<polygon fill="#191970" stroke="#191970" points="510.8157,-24.6839 501.5425,-19.5595 505.5961,-29.3482 510.8157,-24.6839"/>
</g>
<!-- Node4&#45;&gt;Node5 -->
<g id="edge6" class="edge">
<title>Node4&#45;&gt;Node5</title>
<path fill="none" stroke="#191970" d="M572.3141,-112.4554C555.8703,-102.8241 534.6292,-90.3828 518.2677,-80.7996"/>
<polygon fill="#191970" stroke="#191970" points="519.669,-77.5643 509.2713,-75.5303 516.1312,-83.6045 519.669,-77.5643"/>
</g>
<!-- Node6 -->
<g id="node7" class="node">
<title>Node6</title>
<polygon fill="none" stroke="#bfbfbf" points="574.5,-56.5 574.5,-75.5 621.5,-75.5 621.5,-56.5 574.5,-56.5"/>
<text text-anchor="middle" x="598" y="-63.5" font-family="Helvetica,sans-Serif" font-size="10.00" fill="#000000">cmath</text>
</g>
<!-- Node4&#45;&gt;Node6 -->
<g id="edge7" class="edge">
<title>Node4&#45;&gt;Node6</title>
<path fill="none" stroke="#191970" d="M598,-112.2977C598,-104.3834 598,-94.6043 598,-86.0759"/>
<polygon fill="#191970" stroke="#191970" points="601.5001,-85.8469 598,-75.8469 594.5001,-85.847 601.5001,-85.8469"/>
</g>
<!-- Node7 -->
<g id="node8" class="node">
<title>Node7</title>
<polygon fill="none" stroke="#bfbfbf" points="640,-56.5 640,-75.5 690,-75.5 690,-56.5 640,-56.5"/>
<text text-anchor="middle" x="665" y="-63.5" font-family="Helvetica,sans-Serif" font-size="10.00" fill="#000000">cstdint</text>
</g>
<!-- Node4&#45;&gt;Node7 -->
<g id="edge8" class="edge">
<title>Node4&#45;&gt;Node7</title>
<path fill="none" stroke="#191970" d="M614.5618,-112.2977C624.3465,-103.3163 636.7474,-91.9334 646.8043,-82.702"/>
<polygon fill="#191970" stroke="#191970" points="649.2722,-85.1876 654.2725,-75.8469 644.5387,-80.0307 649.2722,-85.1876"/>
</g>
<!-- Node8 -->
<g id="node9" class="node">
<title>Node8</title>
<g id="a_node9"><a xlink:href="../../d4/dc6/LHCConstants_8h.html" target="_top" xlink:title="Header to collect LHC related constants. ">
<polygon fill="none" stroke="#000000" points="708,-56.5 708,-75.5 898,-75.5 898,-56.5 708,-56.5"/>
<text text-anchor="middle" x="803" y="-63.5" font-family="Helvetica,sans-Serif" font-size="10.00" fill="#000000">CommonConstants/LHCConstants.h</text>
</a>
</g>
</g>
<!-- Node4&#45;&gt;Node8 -->
<g id="edge9" class="edge">
<title>Node4&#45;&gt;Node8</title>
<path fill="none" stroke="#191970" d="M648.1486,-112.4554C682.9535,-102.0139 728.7667,-88.27 761.5151,-78.4455"/>
<polygon fill="#191970" stroke="#191970" points="762.6598,-81.7563 771.2323,-75.5303 760.6483,-75.0515 762.6598,-81.7563"/>
</g>
<!-- Node9&#45;&gt;Node2 -->
<g id="edge11" class="edge">
<title>Node9&#45;&gt;Node2</title>
<path fill="none" stroke="#191970" d="M322,-117.8906C322,-109.3657 322,-96.6392 322,-85.9235"/>
<polygon fill="#191970" stroke="#191970" points="325.5001,-85.7448 322,-75.7449 318.5001,-85.7449 325.5001,-85.7448"/>
</g>
<!-- Node10&#45;&gt;Node3 -->
<g id="edge14" class="edge">
<title>Node10&#45;&gt;Node3</title>
<path fill="none" stroke="#191970" d="M834.0308,-117.9488C876.9805,-106.5096 933.1117,-85.1737 907,-56 882.2786,-28.3797 631.6021,-15.4954 532.7606,-11.4597"/>
<polygon fill="#191970" stroke="#191970" points="532.7107,-7.955 522.5791,-11.0535 532.4316,-14.9494 532.7107,-7.955"/>
</g>
<!-- Node11 -->
<g id="node12" class="node">
<title>Node11</title>
<polygon fill="none" stroke="#bfbfbf" points="954,-56.5 954,-75.5 996,-75.5 996,-56.5 954,-56.5"/>
<text text-anchor="middle" x="975" y="-63.5" font-family="Helvetica,sans-Serif" font-size="10.00" fill="#000000">array</text>
</g>
<!-- Node10&#45;&gt;Node11 -->
<g id="edge13" class="edge">
<title>Node10&#45;&gt;Node11</title>
<path fill="none" stroke="#191970" d="M819.75,-117.8906C853.6035,-106.5754 909.6032,-87.8582 944.2867,-76.2656"/>
<polygon fill="#191970" stroke="#191970" points="945.5181,-79.5444 953.8929,-73.0548 943.2991,-72.9054 945.5181,-79.5444"/>
</g>
</g>
</svg>
