<?xml version="1.0" encoding="UTF-8" standalone="no"?>
<!DOCTYPE svg PUBLIC "-//W3C//DTD SVG 1.1//EN"
 "http://www.w3.org/Graphics/SVG/1.1/DTD/svg11.dtd">
<!-- Generated by graphviz version 2.40.1 (20161225.0304)
 -->
<!-- Title: /home/travis/build/AliceO2Group/AliceO2/GPU/GPUTracking/Merger/GPUTPCGMMerger.h Pages: 1 -->
<!--zoomable 453 -->
<svg id="main" version="1.1" xmlns="http://www.w3.org/2000/svg" xmlns:xlink="http://www.w3.org/1999/xlink" xml:space="preserve" onload="init(evt)">
<style type="text/css"><![CDATA[
.edge:hover path { stroke: red; }
.edge:hover polygon { stroke: red; fill: red; }
]]></style>
<script type="text/javascript"><![CDATA[
var edges = document.getElementsByTagName('g');
if (edges && edges.length) {
  for (var i=0;i<edges.length;i++) {
    if (edges[i].id.substr(0,4)=='edge') {
      edges[i].setAttribute('class','edge');
    }
  }
}
]]></script>
        <defs>
                <circle id="rim" cx="0" cy="0" r="7"/>
                <circle id="rim2" cx="0" cy="0" r="3.5"/>
                <g id="zoomPlus">
                        <use xlink:href="#rim" fill="#404040">
                                <set attributeName="fill" to="#808080" begin="zoomplus.mouseover" end="zoomplus.mouseout"/>
                        </use>
                        <path d="M-4,0h8M0,-4v8" fill="none" stroke="white" stroke-width="1.5" pointer-events="none"/>
                </g>
                <g id="zoomMin">
                        <use xlink:href="#rim" fill="#404040">
                                <set attributeName="fill" to="#808080" begin="zoomminus.mouseover" end="zoomminus.mouseout"/>
                        </use>
                        <path d="M-4,0h8" fill="none" stroke="white" stroke-width="1.5" pointer-events="none"/>
                </g>
                <g id="dirArrow">
                        <path fill="none" stroke="white" stroke-width="1.5" d="M0,-3.0v7 M-2.5,-0.5L0,-3.0L2.5,-0.5"/>
                </g>
               <g id="resetDef">
                       <use xlink:href="#rim2" fill="#404040">
                               <set attributeName="fill" to="#808080" begin="reset.mouseover" end="reset.mouseout"/>
                       </use>
               </g>
        </defs>

<script type="text/javascript">
var viewWidth = 1904;
var viewHeight = 453;
var sectionId = 'dynsection-0';
</script>
<script xlink:href="../../svgpan.js"/>
<svg id="graph" class="graph">
<g id="viewport">
<title>/home/travis/build/AliceO2Group/AliceO2/GPU/GPUTracking/Merger/GPUTPCGMMerger.h</title>
<!-- Node0 -->
<g id="node1" class="node">
<title>Node0</title>
<polygon fill="#bfbfbf" stroke="#000000" points="750,-392.5 750,-444.5 892,-444.5 892,-392.5 750,-392.5"/>
<text text-anchor="start" x="758" y="-432.5" font-family="Helvetica,sans-Serif" font-size="10.00" fill="#000000">/home/travis/build</text>
<text text-anchor="start" x="758" y="-421.5" font-family="Helvetica,sans-Serif" font-size="10.00" fill="#000000">/AliceO2Group/AliceO2</text>
<text text-anchor="start" x="758" y="-410.5" font-family="Helvetica,sans-Serif" font-size="10.00" fill="#000000">/GPU/GPUTracking/Merger</text>
<text text-anchor="middle" x="821" y="-399.5" font-family="Helvetica,sans-Serif" font-size="10.00" fill="#000000">/GPUTPCGMMerger.h</text>
</g>
<!-- Node1 -->
<g id="node2" class="node">
<title>Node1</title>
<g id="a_node2"><a xlink:href="../../df/d13/GPUParam_8h.html" target="_top" xlink:title="GPUParam.h">
<polygon fill="none" stroke="#000000" points="351.5,-280.5 351.5,-299.5 428.5,-299.5 428.5,-280.5 351.5,-280.5"/>
<text text-anchor="middle" x="390" y="-287.5" font-family="Helvetica,sans-Serif" font-size="10.00" fill="#000000">GPUParam.h</text>
</a>
</g>
</g>
<!-- Node0&#45;&gt;Node1 -->
<g id="edge1" class="edge">
<title>Node0&#45;&gt;Node1</title>
<path fill="none" stroke="#191970" d="M749.6749,-413.9768C679.9046,-407.5605 571.7827,-392.2365 485,-356 455.8555,-343.8306 426.6672,-321.7054 408.4877,-306.449"/>
<polygon fill="#191970" stroke="#191970" points="410.3625,-303.4455 400.496,-299.5851 405.8016,-308.7558 410.3625,-303.4455"/>
</g>
<!-- Node2 -->
<g id="node3" class="node">
<title>Node2</title>
<g id="a_node3"><a xlink:href="../../df/d21/GPUCommonDef_8h.html" target="_top" xlink:title="GPUCommonDef.h">
<polygon fill="none" stroke="#000000" points="392.5,-56.5 392.5,-75.5 499.5,-75.5 499.5,-56.5 392.5,-56.5"/>
<text text-anchor="middle" x="446" y="-63.5" font-family="Helvetica,sans-Serif" font-size="10.00" fill="#000000">GPUCommonDef.h</text>
</a>
</g>
</g>
<!-- Node0&#45;&gt;Node2 -->
<g id="edge55" class="edge">
<title>Node0&#45;&gt;Node2</title>
<path fill="none" stroke="#191970" d="M749.935,-414.8205C550.4899,-403.5533 0,-365.6065 0,-290 0,-290 0,-290 0,-178 0,-100.1542 258.8227,-75.9164 382.1324,-68.7864"/>
<polygon fill="#191970" stroke="#191970" points="382.4124,-72.2763 392.202,-68.2248 382.0226,-65.2871 382.4124,-72.2763"/>
</g>
<!-- Node6 -->
<g id="node7" class="node">
<title>Node6</title>
<polygon fill="none" stroke="#bfbfbf" points="456.5,-112.5 456.5,-131.5 503.5,-131.5 503.5,-112.5 456.5,-112.5"/>
<text text-anchor="middle" x="480" y="-119.5" font-family="Helvetica,sans-Serif" font-size="10.00" fill="#000000">cmath</text>
</g>
<!-- Node0&#45;&gt;Node6 -->
<g id="edge62" class="edge">
<title>Node0&#45;&gt;Node6</title>
<path fill="none" stroke="#191970" d="M749.9371,-404.9855C655.1115,-384.8838 499,-343.6442 499,-290 499,-290 499,-290 499,-234 499,-201.2688 491.0148,-163.9052 485.3978,-141.6716"/>
<polygon fill="#191970" stroke="#191970" points="488.7289,-140.5763 482.8035,-131.7934 481.9585,-142.3545 488.7289,-140.5763"/>
</g>
<!-- Node18 -->
<g id="node19" class="node">
<title>Node18</title>
<g id="a_node19"><a xlink:href="../../da/dab/GPUTPCDef_8h.html" target="_top" xlink:title="GPUTPCDef.h">
<polygon fill="none" stroke="#000000" points="1345,-168.5 1345,-187.5 1427,-187.5 1427,-168.5 1345,-168.5"/>
<text text-anchor="middle" x="1386" y="-175.5" font-family="Helvetica,sans-Serif" font-size="10.00" fill="#000000">GPUTPCDef.h</text>
</a>
</g>
</g>
<!-- Node0&#45;&gt;Node18 -->
<g id="edge24" class="edge">
<title>Node0&#45;&gt;Node18</title>
<path fill="none" stroke="#191970" d="M892.2852,-411.3269C1107.0321,-388.9586 1736.2808,-317.5654 1789,-244 1794.1778,-236.7748 1794.9183,-230.6322 1789,-224 1765.9672,-198.1886 1540.8521,-184.8995 1437.4555,-180.1166"/>
<polygon fill="#191970" stroke="#191970" points="1437.3946,-176.6103 1427.2463,-179.6537 1437.0775,-183.6031 1437.3946,-176.6103"/>
</g>
<!-- Node19 -->
<g id="node20" class="node">
<title>Node19</title>
<g id="a_node20"><a xlink:href="../../d8/dd4/GPUTPCGMBorderTrack_8h.html" target="_top" xlink:title="GPUTPCGMBorderTrack.h">
<polygon fill="none" stroke="#000000" points="151.5,-224.5 151.5,-243.5 290.5,-243.5 290.5,-224.5 151.5,-224.5"/>
<text text-anchor="middle" x="221" y="-231.5" font-family="Helvetica,sans-Serif" font-size="10.00" fill="#000000">GPUTPCGMBorderTrack.h</text>
</a>
</g>
</g>
<!-- Node0&#45;&gt;Node19 -->
<g id="edge25" class="edge">
<title>Node0&#45;&gt;Node19</title>
<path fill="none" stroke="#191970" d="M749.7752,-413.8441C672.6429,-407.1723 546.8479,-391.5092 444,-356 365.4121,-328.8668 281.7204,-275.5963 242.9989,-249.3535"/>
<polygon fill="#191970" stroke="#191970" points="244.808,-246.3505 234.579,-243.5905 240.8542,-252.127 244.808,-246.3505"/>
</g>
<!-- Node20 -->
<g id="node21" class="node">
<title>Node20</title>
<g id="a_node21"><a xlink:href="../../d8/dfd/GPUTPCGMMergedTrack_8h.html" target="_top" xlink:title="GPUTPCGMMergedTrack.h">
<polygon fill="none" stroke="#000000" points="978.5,-336.5 978.5,-355.5 1121.5,-355.5 1121.5,-336.5 978.5,-336.5"/>
<text text-anchor="middle" x="1050" y="-343.5" font-family="Helvetica,sans-Serif" font-size="10.00" fill="#000000">GPUTPCGMMergedTrack.h</text>
</a>
</g>
</g>
<!-- Node0&#45;&gt;Node20 -->
<g id="edge28" class="edge">
<title>Node0&#45;&gt;Node20</title>
<path fill="none" stroke="#191970" d="M892.2017,-395.958C931.1104,-383.6397 977.842,-368.8448 1010.306,-358.5669"/>
<polygon fill="#191970" stroke="#191970" points="1011.4214,-361.885 1019.8986,-355.5299 1009.3085,-355.2115 1011.4214,-361.885"/>
</g>
<!-- Node24 -->
<g id="node25" class="node">
<title>Node24</title>
<g id="a_node25"><a xlink:href="../../de/d4c/GPUTPCGMMergerTypes_8h.html" target="_top" xlink:title="GPUTPCGMMergerTypes.h">
<polygon fill="none" stroke="#000000" points="1314.5,-224.5 1314.5,-243.5 1457.5,-243.5 1457.5,-224.5 1314.5,-224.5"/>
<text text-anchor="middle" x="1386" y="-231.5" font-family="Helvetica,sans-Serif" font-size="10.00" fill="#000000">GPUTPCGMMergerTypes.h</text>
</a>
</g>
</g>
<!-- Node0&#45;&gt;Node24 -->
<g id="edge61" class="edge">
<title>Node0&#45;&gt;Node24</title>
<path fill="none" stroke="#191970" d="M892.1655,-409.2681C955.8517,-399.8098 1051.2023,-382.6741 1131,-356 1218.9948,-326.5858 1316.0912,-274.0813 1360.8572,-248.6317"/>
<polygon fill="#191970" stroke="#191970" points="1362.6543,-251.6359 1369.5934,-243.6297 1359.1761,-245.5612 1362.6543,-251.6359"/>
</g>
<!-- Node26 -->
<g id="node27" class="node">
<title>Node26</title>
<g id="a_node27"><a xlink:href="../../d1/dc3/GPUTPCGMSliceTrack_8h.html" target="_top" xlink:title="GPUTPCGMSliceTrack.h">
<polygon fill="none" stroke="#000000" points="805,-336.5 805,-355.5 935,-355.5 935,-336.5 805,-336.5"/>
<text text-anchor="middle" x="870" y="-343.5" font-family="Helvetica,sans-Serif" font-size="10.00" fill="#000000">GPUTPCGMSliceTrack.h</text>
</a>
</g>
</g>
<!-- Node0&#45;&gt;Node26 -->
<g id="edge40" class="edge">
<title>Node0&#45;&gt;Node26</title>
<path fill="none" stroke="#191970" d="M838.6901,-392.3258C845.0517,-382.9134 852.0786,-372.5164 857.8608,-363.961"/>
<polygon fill="#191970" stroke="#191970" points="860.8565,-365.7791 863.5563,-355.534 855.0568,-361.8593 860.8565,-365.7791"/>
</g>
<!-- Node33 -->
<g id="node34" class="node">
<title>Node33</title>
<g id="a_node34"><a xlink:href="../../d6/d57/GPUProcessor_8h.html" target="_top" xlink:title="GPUProcessor.h">
<polygon fill="none" stroke="#000000" points="687.5,-168.5 687.5,-187.5 780.5,-187.5 780.5,-168.5 687.5,-168.5"/>
<text text-anchor="middle" x="734" y="-175.5" font-family="Helvetica,sans-Serif" font-size="10.00" fill="#000000">GPUProcessor.h</text>
</a>
</g>
</g>
<!-- Node0&#45;&gt;Node33 -->
<g id="edge56" class="edge">
<title>Node0&#45;&gt;Node33</title>
<path fill="none" stroke="#191970" d="M810.2741,-392.4508C805.7515,-381.2736 800.5026,-368.0409 796,-356 774.5813,-298.7212 751.395,-230.2161 740.4352,-197.3969"/>
<polygon fill="#191970" stroke="#191970" points="743.6873,-196.0848 737.2073,-187.7027 737.0458,-198.2963 743.6873,-196.0848"/>
</g>
<!-- Node34 -->
<g id="node35" class="node">
<title>Node34</title>
<polygon fill="none" stroke="#bfbfbf" points="1836,-336.5 1836,-355.5 1896,-355.5 1896,-336.5 1836,-336.5"/>
<text text-anchor="middle" x="1866" y="-343.5" font-family="Helvetica,sans-Serif" font-size="10.00" fill="#000000">iostream</text>
</g>
<!-- Node0&#45;&gt;Node34 -->
<g id="edge63" class="edge">
<title>Node0&#45;&gt;Node34</title>
<path fill="none" stroke="#191970" d="M892.3287,-415.544C1090.0055,-407.1132 1642.1119,-381.8855 1822,-356 1823.2648,-355.818 1824.5471,-355.6186 1825.8396,-355.4047"/>
<polygon fill="#191970" stroke="#191970" points="1826.6401,-358.8157 1835.823,-353.5313 1825.349,-351.9357 1826.6401,-358.8157"/>
</g>
<!-- Node1&#45;&gt;Node2 -->
<g id="edge2" class="edge">
<title>Node1&#45;&gt;Node2</title>
<path fill="none" stroke="#191970" d="M351.2704,-288.5997C288.5261,-285.4271 169.0305,-275.3258 143,-244 137.3191,-237.1634 138.3913,-231.6008 143,-224 195.7328,-137.0309 313.7223,-95.6865 385.9185,-77.8619"/>
<polygon fill="#191970" stroke="#191970" points="386.8788,-81.231 395.7902,-75.5005 385.2503,-74.423 386.8788,-81.231"/>
</g>
<!-- Node5 -->
<g id="node6" class="node">
<title>Node5</title>
<g id="a_node6"><a xlink:href="../../d6/da2/GPUCommonMath_8h.html" target="_top" xlink:title="GPUCommonMath.h">
<polygon fill="none" stroke="#000000" points="355.5,-168.5 355.5,-187.5 470.5,-187.5 470.5,-168.5 355.5,-168.5"/>
<text text-anchor="middle" x="413" y="-175.5" font-family="Helvetica,sans-Serif" font-size="10.00" fill="#000000">GPUCommonMath.h</text>
</a>
</g>
</g>
<!-- Node1&#45;&gt;Node5 -->
<g id="edge5" class="edge">
<title>Node1&#45;&gt;Node5</title>
<path fill="none" stroke="#191970" d="M372.9197,-280.417C353.431,-268.1612 325.7445,-245.8937 338,-224 346.0789,-209.5676 360.7415,-199.1145 374.9729,-191.8565"/>
<polygon fill="#191970" stroke="#191970" points="376.6186,-194.9506 384.1892,-187.5387 373.6489,-188.6118 376.6186,-194.9506"/>
</g>
<!-- Node8 -->
<g id="node9" class="node">
<title>Node8</title>
<g id="a_node9"><a xlink:href="../../d2/d6d/GPUDef_8h.html" target="_top" xlink:title="GPUDef.h">
<polygon fill="none" stroke="#000000" points="913.5,-112.5 913.5,-131.5 976.5,-131.5 976.5,-112.5 913.5,-112.5"/>
<text text-anchor="middle" x="945" y="-119.5" font-family="Helvetica,sans-Serif" font-size="10.00" fill="#000000">GPUDef.h</text>
</a>
</g>
</g>
<!-- Node1&#45;&gt;Node8 -->
<g id="edge9" class="edge">
<title>Node1&#45;&gt;Node8</title>
<path fill="none" stroke="#191970" d="M428.7465,-287.885C487.3436,-283.8564 601.4824,-272.7512 694,-244 781.7199,-216.7397 877.176,-162.9441 920.7988,-136.8675"/>
<polygon fill="#191970" stroke="#191970" points="922.7842,-139.7575 929.5406,-131.5966 919.1696,-133.7629 922.7842,-139.7575"/>
</g>
<!-- Node15 -->
<g id="node16" class="node">
<title>Node15</title>
<g id="a_node16"><a xlink:href="../../dd/dc6/GPUSettings_8h.html" target="_top" xlink:title="GPUSettings.h">
<polygon fill="none" stroke="#000000" points="347,-224.5 347,-243.5 433,-243.5 433,-224.5 347,-224.5"/>
<text text-anchor="middle" x="390" y="-231.5" font-family="Helvetica,sans-Serif" font-size="10.00" fill="#000000">GPUSettings.h</text>
</a>
</g>
</g>
<!-- Node1&#45;&gt;Node15 -->
<g id="edge17" class="edge">
<title>Node1&#45;&gt;Node15</title>
<path fill="none" stroke="#191970" d="M390,-280.2455C390,-272.9382 390,-262.6944 390,-253.7046"/>
<polygon fill="#191970" stroke="#191970" points="393.5001,-253.6426 390,-243.6427 386.5001,-253.6427 393.5001,-253.6426"/>
</g>
<!-- Node16 -->
<g id="node17" class="node">
<title>Node16</title>
<g id="a_node17"><a xlink:href="../../d6/d1b/GPUTPCGeometry_8h.html" target="_top" xlink:title="GPUTPCGeometry.h">
<polygon fill="none" stroke="#000000" points="28.5,-168.5 28.5,-187.5 141.5,-187.5 141.5,-168.5 28.5,-168.5"/>
<text text-anchor="middle" x="85" y="-175.5" font-family="Helvetica,sans-Serif" font-size="10.00" fill="#000000">GPUTPCGeometry.h</text>
</a>
</g>
</g>
<!-- Node1&#45;&gt;Node16 -->
<g id="edge19" class="edge">
<title>Node1&#45;&gt;Node16</title>
<path fill="none" stroke="#191970" d="M351.3464,-288.4085C283.1525,-284.8493 145.2505,-274.0497 109,-244 95.3864,-232.715 89.4949,-213.0336 86.9452,-198.0913"/>
<polygon fill="#191970" stroke="#191970" points="90.3649,-197.2561 85.5743,-187.8062 83.4263,-198.181 90.3649,-197.2561"/>
</g>
<!-- Node17 -->
<g id="node18" class="node">
<title>Node17</title>
<g id="a_node18"><a xlink:href="../../d9/d9c/GPUTPCGMPolynomialField_8h.html" target="_top" xlink:title="GPUTPCGMPolynomialField.h">
<polygon fill="none" stroke="#000000" points="779,-224.5 779,-243.5 937,-243.5 937,-224.5 779,-224.5"/>
<text text-anchor="middle" x="858" y="-231.5" font-family="Helvetica,sans-Serif" font-size="10.00" fill="#000000">GPUTPCGMPolynomialField.h</text>
</a>
</g>
</g>
<!-- Node1&#45;&gt;Node17 -->
<g id="edge21" class="edge">
<title>Node1&#45;&gt;Node17</title>
<path fill="none" stroke="#191970" d="M428.6966,-285.3696C502.7697,-276.5062 666.33,-256.9349 768.8169,-244.6715"/>
<polygon fill="#191970" stroke="#191970" points="769.3332,-248.1348 778.8465,-243.4714 768.5015,-241.1843 769.3332,-248.1348"/>
</g>
<!-- Node3 -->
<g id="node4" class="node">
<title>Node3</title>
<g id="a_node4"><a xlink:href="../../d5/d93/GPUCommonDefSettings_8h.html" target="_top" xlink:title="GPUCommonDefSettings.h">
<polygon fill="none" stroke="#000000" points="333,-.5 333,-19.5 481,-19.5 481,-.5 333,-.5"/>
<text text-anchor="middle" x="407" y="-7.5" font-family="Helvetica,sans-Serif" font-size="10.00" fill="#000000">GPUCommonDefSettings.h</text>
</a>
</g>
</g>
<!-- Node2&#45;&gt;Node3 -->
<g id="edge3" class="edge">
<title>Node2&#45;&gt;Node3</title>
<path fill="none" stroke="#191970" d="M439.2067,-56.2455C433.7822,-48.4564 426.0339,-37.3308 419.4967,-27.9439"/>
<polygon fill="#191970" stroke="#191970" points="422.3025,-25.8485 413.7154,-19.6427 416.5583,-29.849 422.3025,-25.8485"/>
</g>
<!-- Node4 -->
<g id="node5" class="node">
<title>Node4</title>
<g id="a_node5"><a xlink:href="../../da/d5a/GPUCommonDefAPI_8h.html" target="_top" xlink:title="GPUCommonDefAPI.h">
<polygon fill="none" stroke="#000000" points="499,-.5 499,-19.5 623,-19.5 623,-.5 499,-.5"/>
<text text-anchor="middle" x="561" y="-7.5" font-family="Helvetica,sans-Serif" font-size="10.00" fill="#000000">GPUCommonDefAPI.h</text>
</a>
</g>
</g>
<!-- Node2&#45;&gt;Node4 -->
<g id="edge4" class="edge">
<title>Node2&#45;&gt;Node4</title>
<path fill="none" stroke="#191970" d="M465.7692,-56.3733C484.1469,-47.4241 511.7312,-33.9917 532.4893,-23.8835"/>
<polygon fill="#191970" stroke="#191970" points="534.0304,-27.026 541.4888,-19.5011 530.9657,-20.7325 534.0304,-27.026"/>
</g>
<!-- Node5&#45;&gt;Node2 -->
<g id="edge6" class="edge">
<title>Node5&#45;&gt;Node2</title>
<path fill="none" stroke="#191970" d="M415.8136,-168.4509C421.2202,-150.1013 433.1563,-109.5908 440.293,-85.3693"/>
<polygon fill="#191970" stroke="#191970" points="443.7245,-86.1064 443.1936,-75.5249 437.0099,-84.128 443.7245,-86.1064"/>
</g>
<!-- Node5&#45;&gt;Node6 -->
<g id="edge7" class="edge">
<title>Node5&#45;&gt;Node6</title>
<path fill="none" stroke="#191970" d="M424.6705,-168.2455C434.5661,-159.9746 448.9627,-147.9416 460.5901,-138.2232"/>
<polygon fill="#191970" stroke="#191970" points="463.035,-140.7413 468.4632,-131.6427 458.5458,-135.3703 463.035,-140.7413"/>
</g>
<!-- Node7 -->
<g id="node8" class="node">
<title>Node7</title>
<polygon fill="none" stroke="#bfbfbf" points="603,-112.5 603,-131.5 667,-131.5 667,-112.5 603,-112.5"/>
<text text-anchor="middle" x="635" y="-119.5" font-family="Helvetica,sans-Serif" font-size="10.00" fill="#000000">algorithm</text>
</g>
<!-- Node5&#45;&gt;Node7 -->
<g id="edge8" class="edge">
<title>Node5&#45;&gt;Node7</title>
<path fill="none" stroke="#191970" d="M450.9109,-168.4369C490.2977,-158.5015 551.7862,-142.9909 592.7196,-132.6653"/>
<polygon fill="#191970" stroke="#191970" points="593.8174,-135.9981 602.6576,-130.1584 592.1052,-129.2107 593.8174,-135.9981"/>
</g>
<!-- Node8&#45;&gt;Node2 -->
<g id="edge10" class="edge">
<title>Node8&#45;&gt;Node2</title>
<path fill="none" stroke="#191970" d="M913.415,-114.6427C908.6027,-113.6643 903.6814,-112.7441 899,-112 761.0096,-90.0667 597.6202,-76.4922 509.6849,-70.1897"/>
<polygon fill="#191970" stroke="#191970" points="509.8233,-66.6908 499.601,-69.4752 509.3286,-73.6733 509.8233,-66.6908"/>
</g>
<!-- Node9 -->
<g id="node10" class="node">
<title>Node9</title>
<g id="a_node10"><a xlink:href="../../d2/d37/GPUDefConstantsAndSettings_8h.html" target="_top" xlink:title="GPUDefConstantsAndSettings.h">
<polygon fill="none" stroke="#000000" points="1164.5,-56.5 1164.5,-75.5 1335.5,-75.5 1335.5,-56.5 1164.5,-56.5"/>
<text text-anchor="middle" x="1250" y="-63.5" font-family="Helvetica,sans-Serif" font-size="10.00" fill="#000000">GPUDefConstantsAndSettings.h</text>
</a>
</g>
</g>
<!-- Node8&#45;&gt;Node9 -->
<g id="edge11" class="edge">
<title>Node8&#45;&gt;Node9</title>
<path fill="none" stroke="#191970" d="M976.7772,-116.1655C1026.5975,-107.0182 1124.0002,-89.1344 1188.0297,-77.3782"/>
<polygon fill="#191970" stroke="#191970" points="1188.8036,-80.7947 1198.0071,-75.5462 1187.5394,-73.9097 1188.8036,-80.7947"/>
</g>
<!-- Node10 -->
<g id="node11" class="node">
<title>Node10</title>
<g id="a_node11"><a xlink:href="../../dc/de9/GPUDefGPUParameters_8h.html" target="_top" xlink:title="GPUDefGPUParameters.h">
<polygon fill="none" stroke="#000000" points="681,-56.5 681,-75.5 821,-75.5 821,-56.5 681,-56.5"/>
<text text-anchor="middle" x="751" y="-63.5" font-family="Helvetica,sans-Serif" font-size="10.00" fill="#000000">GPUDefGPUParameters.h</text>
</a>
</g>
</g>
<!-- Node8&#45;&gt;Node10 -->
<g id="edge12" class="edge">
<title>Node8&#45;&gt;Node10</title>
<path fill="none" stroke="#191970" d="M913.3988,-112.878C880.9142,-103.501 830.1129,-88.8367 793.9859,-78.4083"/>
<polygon fill="#191970" stroke="#191970" points="794.7913,-74.9979 784.2128,-75.5872 792.8498,-81.7233 794.7913,-74.9979"/>
</g>
<!-- Node12 -->
<g id="node13" class="node">
<title>Node12</title>
<g id="a_node13"><a xlink:href="../../d3/d4c/GPUDefOpenCL12Templates_8h.html" target="_top" xlink:title="GPUDefOpenCL12Templates.h">
<polygon fill="none" stroke="#000000" points="839,-56.5 839,-75.5 1003,-75.5 1003,-56.5 839,-56.5"/>
<text text-anchor="middle" x="921" y="-63.5" font-family="Helvetica,sans-Serif" font-size="10.00" fill="#000000">GPUDefOpenCL12Templates.h</text>
</a>
</g>
</g>
<!-- Node8&#45;&gt;Node12 -->
<g id="edge14" class="edge">
<title>Node8&#45;&gt;Node12</title>
<path fill="none" stroke="#191970" d="M940.8195,-112.2455C937.619,-104.7776 933.104,-94.2427 929.1916,-85.1137"/>
<polygon fill="#191970" stroke="#191970" points="932.2888,-83.4554 925.1326,-75.6427 925.8548,-86.2129 932.2888,-83.4554"/>
</g>
<!-- Node13 -->
<g id="node14" class="node">
<title>Node13</title>
<g id="a_node14"><a xlink:href="../../d2/d45/GPUCommonRtypes_8h.html" target="_top" xlink:title="GPUCommonRtypes.h">
<polygon fill="none" stroke="#000000" points="1021.5,-56.5 1021.5,-75.5 1146.5,-75.5 1146.5,-56.5 1021.5,-56.5"/>
<text text-anchor="middle" x="1084" y="-63.5" font-family="Helvetica,sans-Serif" font-size="10.00" fill="#000000">GPUCommonRtypes.h</text>
</a>
</g>
</g>
<!-- Node8&#45;&gt;Node13 -->
<g id="edge15" class="edge">
<title>Node8&#45;&gt;Node13</title>
<path fill="none" stroke="#191970" d="M968.895,-112.3733C991.5082,-103.2629 1025.6542,-89.5062 1050.8873,-79.3404"/>
<polygon fill="#191970" stroke="#191970" points="1052.4493,-82.4845 1060.4169,-75.5011 1049.8334,-75.9917 1052.4493,-82.4845"/>
</g>
<!-- Node11 -->
<g id="node12" class="node">
<title>Node11</title>
<g id="a_node12"><a xlink:href="../../d6/dff/GPUDefMacros_8h.html" target="_top" xlink:title="GPUDefMacros.h">
<polygon fill="none" stroke="#000000" points="702,-.5 702,-19.5 800,-19.5 800,-.5 702,-.5"/>
<text text-anchor="middle" x="751" y="-7.5" font-family="Helvetica,sans-Serif" font-size="10.00" fill="#000000">GPUDefMacros.h</text>
</a>
</g>
</g>
<!-- Node10&#45;&gt;Node11 -->
<g id="edge13" class="edge">
<title>Node10&#45;&gt;Node11</title>
<path fill="none" stroke="#191970" d="M751,-56.2455C751,-48.9382 751,-38.6944 751,-29.7046"/>
<polygon fill="#191970" stroke="#191970" points="754.5001,-29.6426 751,-19.6427 747.5001,-29.6427 754.5001,-29.6426"/>
</g>
<!-- Node14 -->
<g id="node15" class="node">
<title>Node14</title>
<polygon fill="none" stroke="#bfbfbf" points="1054.5,-.5 1054.5,-19.5 1113.5,-19.5 1113.5,-.5 1054.5,-.5"/>
<text text-anchor="middle" x="1084" y="-7.5" font-family="Helvetica,sans-Serif" font-size="10.00" fill="#000000">Rtypes.h</text>
</g>
<!-- Node13&#45;&gt;Node14 -->
<g id="edge16" class="edge">
<title>Node13&#45;&gt;Node14</title>
<path fill="none" stroke="#191970" d="M1084,-56.2455C1084,-48.9382 1084,-38.6944 1084,-29.7046"/>
<polygon fill="#191970" stroke="#191970" points="1087.5001,-29.6426 1084,-19.6427 1080.5001,-29.6427 1087.5001,-29.6426"/>
</g>
<!-- Node15&#45;&gt;Node5 -->
<g id="edge18" class="edge">
<title>Node15&#45;&gt;Node5</title>
<path fill="none" stroke="#191970" d="M394.0063,-224.2455C397.0735,-216.7776 401.4003,-206.2427 405.1497,-197.1137"/>
<polygon fill="#191970" stroke="#191970" points="408.4779,-198.2226 409.0396,-187.6427 402.0028,-195.5631 408.4779,-198.2226"/>
</g>
<!-- Node16&#45;&gt;Node2 -->
<g id="edge20" class="edge">
<title>Node16&#45;&gt;Node2</title>
<path fill="none" stroke="#191970" d="M92.0826,-168.4915C103.6605,-153.721 128.1585,-125.5561 156,-112 194.8491,-93.0843 309.4178,-79.0489 382.3849,-71.7252"/>
<polygon fill="#191970" stroke="#191970" points="382.7851,-75.2028 392.3925,-70.7365 382.0969,-68.2367 382.7851,-75.2028"/>
</g>
<!-- Node17&#45;&gt;Node18 -->
<g id="edge22" class="edge">
<title>Node17&#45;&gt;Node18</title>
<path fill="none" stroke="#191970" d="M937.1503,-224.9717C940.1379,-224.6417 943.0958,-224.3168 946,-224 1086.5836,-208.6639 1252.5546,-191.5925 1334.6694,-183.2153"/>
<polygon fill="#191970" stroke="#191970" points="1335.1434,-186.6853 1344.7368,-182.189 1334.4334,-179.7213 1335.1434,-186.6853"/>
</g>
<!-- Node18&#45;&gt;Node8 -->
<g id="edge23" class="edge">
<title>Node18&#45;&gt;Node8</title>
<path fill="none" stroke="#191970" d="M1344.9078,-172.7819C1261.0577,-162.1343 1071.0593,-138.0075 986.6995,-127.2952"/>
<polygon fill="#191970" stroke="#191970" points="987.0717,-123.8144 976.7104,-126.0267 986.1898,-130.7587 987.0717,-123.8144"/>
</g>
<!-- Node19&#45;&gt;Node2 -->
<g id="edge26" class="edge">
<title>Node19&#45;&gt;Node2</title>
<path fill="none" stroke="#191970" d="M233.7416,-224.4862C270.859,-196.772 379.1649,-115.9036 425.0592,-81.6358"/>
<polygon fill="#191970" stroke="#191970" points="427.2004,-84.4051 433.1192,-75.6177 423.0124,-78.7961 427.2004,-84.4051"/>
</g>
<!-- Node19&#45;&gt;Node5 -->
<g id="edge27" class="edge">
<title>Node19&#45;&gt;Node5</title>
<path fill="none" stroke="#191970" d="M254.006,-224.3733C286.2091,-214.9807 335.3442,-200.6496 370.4639,-190.4064"/>
<polygon fill="#191970" stroke="#191970" points="371.8047,-193.6612 380.4247,-187.5011 369.8447,-186.9412 371.8047,-193.6612"/>
</g>
<!-- Node21 -->
<g id="node22" class="node">
<title>Node21</title>
<g id="a_node22"><a xlink:href="../../d8/d33/GPUTPCGMTrackParam_8h.html" target="_top" xlink:title="GPUTPCGMTrackParam.h">
<polygon fill="none" stroke="#000000" points="1005.5,-280.5 1005.5,-299.5 1142.5,-299.5 1142.5,-280.5 1005.5,-280.5"/>
<text text-anchor="middle" x="1074" y="-287.5" font-family="Helvetica,sans-Serif" font-size="10.00" fill="#000000">GPUTPCGMTrackParam.h</text>
</a>
</g>
</g>
<!-- Node20&#45;&gt;Node21 -->
<g id="edge29" class="edge">
<title>Node20&#45;&gt;Node21</title>
<path fill="none" stroke="#191970" d="M1054.1805,-336.2455C1057.381,-328.7776 1061.896,-318.2427 1065.8084,-309.1137"/>
<polygon fill="#191970" stroke="#191970" points="1069.1452,-310.2129 1069.8674,-299.6427 1062.7112,-307.4554 1069.1452,-310.2129"/>
</g>
<!-- Node22 -->
<g id="node23" class="node">
<title>Node22</title>
<g id="a_node23"><a xlink:href="../../d3/dcc/GPUTPCGMMergedTrackHit_8h.html" target="_top" xlink:title="GPUTPCGMMergedTrackHit.h">
<polygon fill="none" stroke="#000000" points="1100.5,-224.5 1100.5,-243.5 1257.5,-243.5 1257.5,-224.5 1100.5,-224.5"/>
<text text-anchor="middle" x="1179" y="-231.5" font-family="Helvetica,sans-Serif" font-size="10.00" fill="#000000">GPUTPCGMMergedTrackHit.h</text>
</a>
</g>
</g>
<!-- Node20&#45;&gt;Node22 -->
<g id="edge38" class="edge">
<title>Node20&#45;&gt;Node22</title>
<path fill="none" stroke="#191970" d="M1088.0484,-336.4177C1109.2312,-329.3903 1134.7312,-317.8903 1152,-300 1164.3327,-287.2235 1171.3216,-268.0444 1175.0834,-253.6486"/>
<polygon fill="#191970" stroke="#191970" points="1178.5276,-254.2886 1177.366,-243.7576 1171.7069,-252.7145 1178.5276,-254.2886"/>
</g>
<!-- Node23 -->
<g id="node24" class="node">
<title>Node23</title>
<g id="a_node24"><a xlink:href="../../d3/d1f/GPUdEdxInfo_8h.html" target="_top" xlink:title="GPUdEdxInfo.h">
<polygon fill="none" stroke="#000000" points="954.5,-224.5 954.5,-243.5 1043.5,-243.5 1043.5,-224.5 954.5,-224.5"/>
<text text-anchor="middle" x="999" y="-231.5" font-family="Helvetica,sans-Serif" font-size="10.00" fill="#000000">GPUdEdxInfo.h</text>
</a>
</g>
</g>
<!-- Node20&#45;&gt;Node23 -->
<g id="edge39" class="edge">
<title>Node20&#45;&gt;Node23</title>
<path fill="none" stroke="#191970" d="M1032.6242,-336.4558C1020.1411,-328.5215 1004.2818,-315.9621 997,-300 990.3924,-285.5159 991.5424,-267.3237 993.9778,-253.709"/>
<polygon fill="#191970" stroke="#191970" points="997.4,-254.4425 996.0828,-243.9299 990.5567,-252.9694 997.4,-254.4425"/>
</g>
<!-- Node21&#45;&gt;Node5 -->
<g id="edge33" class="edge">
<title>Node21&#45;&gt;Node5</title>
<path fill="none" stroke="#191970" d="M1005.4966,-284.5427C869.6609,-273.6348 577.3735,-249.697 556,-244 512.5133,-232.4088 465.8327,-208.4397 438.0416,-192.8008"/>
<polygon fill="#191970" stroke="#191970" points="439.4538,-189.5766 429.0355,-187.6505 435.9788,-195.6531 439.4538,-189.5766"/>
</g>
<!-- Node21&#45;&gt;Node18 -->
<g id="edge30" class="edge">
<title>Node21&#45;&gt;Node18</title>
<path fill="none" stroke="#191970" d="M1131.8206,-280.489C1170.8258,-273.0463 1223.0062,-261.0727 1267,-244 1276.6218,-240.266 1328.5576,-210.876 1360.5554,-192.5964"/>
<polygon fill="#191970" stroke="#191970" points="1362.4464,-195.5469 1369.3884,-187.5433 1358.9704,-189.4709 1362.4464,-195.5469"/>
</g>
<!-- Node21&#45;&gt;Node22 -->
<g id="edge31" class="edge">
<title>Node21&#45;&gt;Node22</title>
<path fill="none" stroke="#191970" d="M1092.2896,-280.2455C1108.7762,-271.4527 1133.2352,-258.4079 1151.9765,-248.4125"/>
<polygon fill="#191970" stroke="#191970" points="1153.7435,-251.4368 1160.92,-243.6427 1150.4494,-245.2604 1153.7435,-251.4368"/>
</g>
<!-- Node21&#45;&gt;Node23 -->
<g id="edge34" class="edge">
<title>Node21&#45;&gt;Node23</title>
<path fill="none" stroke="#191970" d="M1060.936,-280.2455C1049.6438,-271.814 1033.1155,-259.4729 1019.9729,-249.6598"/>
<polygon fill="#191970" stroke="#191970" points="1022.0211,-246.8211 1011.9143,-243.6427 1017.8331,-252.4301 1022.0211,-246.8211"/>
</g>
<!-- Node21&#45;&gt;Node24 -->
<g id="edge35" class="edge">
<title>Node21&#45;&gt;Node24</title>
<path fill="none" stroke="#191970" d="M1127.2802,-280.4369C1181.4618,-270.712 1265.4031,-255.6456 1322.8841,-245.3285"/>
<polygon fill="#191970" stroke="#191970" points="1323.7152,-248.7353 1332.9395,-243.5237 1322.4785,-241.8454 1323.7152,-248.7353"/>
</g>
<!-- Node25 -->
<g id="node26" class="node">
<title>Node25</title>
<polygon fill="none" stroke="#bfbfbf" points="685.5,-112.5 685.5,-131.5 738.5,-131.5 738.5,-112.5 685.5,-112.5"/>
<text text-anchor="middle" x="712" y="-119.5" font-family="Helvetica,sans-Serif" font-size="10.00" fill="#000000">cstddef</text>
</g>
<!-- Node21&#45;&gt;Node25 -->
<g id="edge37" class="edge">
<title>Node21&#45;&gt;Node25</title>
<path fill="none" stroke="#191970" d="M1073.8418,-280.2982C1073.0503,-265.7864 1069.3221,-238.5779 1053,-224 991.5015,-169.0732 949.9094,-211.9233 871,-188 824.0834,-173.7761 772.0116,-150.6833 740.6529,-135.9268"/>
<polygon fill="#191970" stroke="#191970" points="742.149,-132.7627 731.6145,-131.6338 739.1458,-139.0857 742.149,-132.7627"/>
</g>
<!-- Node22&#45;&gt;Node2 -->
<g id="edge32" class="edge">
<title>Node22&#45;&gt;Node2</title>
<path fill="none" stroke="#191970" d="M1151.7373,-224.4817C1086.0039,-201.8601 913.2449,-144.3565 765,-112 677.4328,-92.8872 574.5573,-79.683 509.8136,-72.4762"/>
<polygon fill="#191970" stroke="#191970" points="510.0808,-68.9845 499.7583,-71.371 509.316,-75.9426 510.0808,-68.9845"/>
</g>
<!-- Node24&#45;&gt;Node18 -->
<g id="edge36" class="edge">
<title>Node24&#45;&gt;Node18</title>
<path fill="none" stroke="#191970" d="M1386,-224.2455C1386,-216.9382 1386,-206.6944 1386,-197.7046"/>
<polygon fill="#191970" stroke="#191970" points="1389.5001,-197.6426 1386,-187.6427 1382.5001,-197.6427 1389.5001,-197.6426"/>
</g>
<!-- Node26&#45;&gt;Node5 -->
<g id="edge47" class="edge">
<title>Node26&#45;&gt;Node5</title>
<path fill="none" stroke="#191970" d="M807.9531,-336.4947C732.071,-323.2004 601.1313,-294.7838 499,-244 472.8817,-231.0129 446.8672,-209.5606 430.4037,-194.6529"/>
<polygon fill="#191970" stroke="#191970" points="432.4304,-191.7594 422.715,-187.5331 427.6744,-196.8956 432.4304,-191.7594"/>
</g>
<!-- Node26&#45;&gt;Node21 -->
<g id="edge46" class="edge">
<title>Node26&#45;&gt;Node21</title>
<path fill="none" stroke="#191970" d="M905.0689,-336.3733C939.4315,-326.9404 991.9392,-312.5265 1029.2851,-302.2747"/>
<polygon fill="#191970" stroke="#191970" points="1030.672,-305.5235 1039.3888,-299.5011 1028.819,-298.7732 1030.672,-305.5235"/>
</g>
<!-- Node27 -->
<g id="node28" class="node">
<title>Node27</title>
<g id="a_node28"><a xlink:href="../../df/d9b/GPUTPCSliceOutTrack_8h.html" target="_top" xlink:title="GPUTPCSliceOutTrack.h">
<polygon fill="none" stroke="#000000" points="1483.5,-280.5 1483.5,-299.5 1614.5,-299.5 1614.5,-280.5 1483.5,-280.5"/>
<text text-anchor="middle" x="1549" y="-287.5" font-family="Helvetica,sans-Serif" font-size="10.00" fill="#000000">GPUTPCSliceOutTrack.h</text>
</a>
</g>
</g>
<!-- Node26&#45;&gt;Node27 -->
<g id="edge41" class="edge">
<title>Node26&#45;&gt;Node27</title>
<path fill="none" stroke="#191970" d="M935.0699,-339.299C946.6979,-338.1568 958.7044,-337.0134 970,-336 1150.4219,-319.8136 1362.7411,-303.6927 1473.3481,-295.5159"/>
<polygon fill="#191970" stroke="#191970" points="1473.6904,-299.0003 1483.4056,-294.7736 1473.175,-292.0193 1473.6904,-299.0003"/>
</g>
<!-- Node30 -->
<g id="node31" class="node">
<title>Node30</title>
<g id="a_node31"><a xlink:href="../../d5/d5c/GPUO2DataTypes_8h.html" target="_top" xlink:title="GPUO2DataTypes.h">
<polygon fill="none" stroke="#000000" points="814.5,-280.5 814.5,-299.5 925.5,-299.5 925.5,-280.5 814.5,-280.5"/>
<text text-anchor="middle" x="870" y="-287.5" font-family="Helvetica,sans-Serif" font-size="10.00" fill="#000000">GPUO2DataTypes.h</text>
</a>
</g>
</g>
<!-- Node26&#45;&gt;Node30 -->
<g id="edge48" class="edge">
<title>Node26&#45;&gt;Node30</title>
<path fill="none" stroke="#191970" d="M870,-336.2455C870,-328.9382 870,-318.6944 870,-309.7046"/>
<polygon fill="#191970" stroke="#191970" points="873.5001,-309.6426 870,-299.6427 866.5001,-309.6427 873.5001,-309.6426"/>
</g>
<!-- Node28 -->
<g id="node29" class="node">
<title>Node28</title>
<g id="a_node29"><a xlink:href="../../df/d00/GPUTPCBaseTrackParam_8h.html" target="_top" xlink:title="GPUTPCBaseTrackParam.h">
<polygon fill="none" stroke="#000000" points="1476,-224.5 1476,-243.5 1622,-243.5 1622,-224.5 1476,-224.5"/>
<text text-anchor="middle" x="1549" y="-231.5" font-family="Helvetica,sans-Serif" font-size="10.00" fill="#000000">GPUTPCBaseTrackParam.h</text>
</a>
</g>
</g>
<!-- Node27&#45;&gt;Node28 -->
<g id="edge42" class="edge">
<title>Node27&#45;&gt;Node28</title>
<path fill="none" stroke="#191970" d="M1549,-280.2455C1549,-272.9382 1549,-262.6944 1549,-253.7046"/>
<polygon fill="#191970" stroke="#191970" points="1552.5001,-253.6426 1549,-243.6427 1545.5001,-253.6427 1552.5001,-253.6426"/>
</g>
<!-- Node29 -->
<g id="node30" class="node">
<title>Node29</title>
<g id="a_node30"><a xlink:href="../../d2/dd5/GPUTPCSliceOutCluster_8h.html" target="_top" xlink:title="GPUTPCSliceOutCluster.h">
<polygon fill="none" stroke="#000000" points="1640,-224.5 1640,-243.5 1780,-243.5 1780,-224.5 1640,-224.5"/>
<text text-anchor="middle" x="1710" y="-231.5" font-family="Helvetica,sans-Serif" font-size="10.00" fill="#000000">GPUTPCSliceOutCluster.h</text>
</a>
</g>
</g>
<!-- Node27&#45;&gt;Node29 -->
<g id="edge44" class="edge">
<title>Node27&#45;&gt;Node29</title>
<path fill="none" stroke="#191970" d="M1576.6769,-280.3733C1603.3328,-271.1016 1643.8238,-257.0178 1673.1884,-246.804"/>
<polygon fill="#191970" stroke="#191970" points="1674.3891,-250.0921 1682.6843,-243.5011 1672.0895,-243.4807 1674.3891,-250.0921"/>
</g>
<!-- Node28&#45;&gt;Node18 -->
<g id="edge43" class="edge">
<title>Node28&#45;&gt;Node18</title>
<path fill="none" stroke="#191970" d="M1520.9793,-224.3733C1493.9922,-215.1016 1452.9983,-201.0178 1423.2689,-190.804"/>
<polygon fill="#191970" stroke="#191970" points="1424.2497,-187.4403 1413.6551,-187.5011 1421.9752,-194.0605 1424.2497,-187.4403"/>
</g>
<!-- Node29&#45;&gt;Node18 -->
<g id="edge45" class="edge">
<title>Node29&#45;&gt;Node18</title>
<path fill="none" stroke="#191970" d="M1654.6706,-224.4369C1593.6755,-213.8945 1496.3623,-197.075 1437.1078,-186.8334"/>
<polygon fill="#191970" stroke="#191970" points="1437.6705,-183.3789 1427.2205,-185.1245 1436.4782,-190.2766 1437.6705,-183.3789"/>
</g>
<!-- Node30&#45;&gt;Node23 -->
<g id="edge54" class="edge">
<title>Node30&#45;&gt;Node23</title>
<path fill="none" stroke="#191970" d="M892.1759,-280.3733C912.9766,-271.3435 944.2917,-257.7494 967.6458,-247.6111"/>
<polygon fill="#191970" stroke="#191970" points="969.3343,-250.6938 977.1135,-243.5011 966.5468,-244.2727 969.3343,-250.6938"/>
</g>
<!-- Node31 -->
<g id="node32" class="node">
<title>Node31</title>
<g id="a_node32"><a xlink:href="../../da/d28/GPUO2FakeClasses_8h.html" target="_top" xlink:title="GPUO2FakeClasses.h">
<polygon fill="none" stroke="#000000" points="565,-224.5 565,-243.5 685,-243.5 685,-224.5 565,-224.5"/>
<text text-anchor="middle" x="625" y="-231.5" font-family="Helvetica,sans-Serif" font-size="10.00" fill="#000000">GPUO2FakeClasses.h</text>
</a>
</g>
</g>
<!-- Node30&#45;&gt;Node31 -->
<g id="edge49" class="edge">
<title>Node30&#45;&gt;Node31</title>
<path fill="none" stroke="#191970" d="M828.1614,-280.4369C786.2315,-270.8529 721.6052,-256.0812 676.5376,-245.78"/>
<polygon fill="#191970" stroke="#191970" points="677.1946,-242.34 666.6661,-243.5237 675.6347,-249.164 677.1946,-242.34"/>
</g>
<!-- Node31&#45;&gt;Node2 -->
<g id="edge50" class="edge">
<title>Node31&#45;&gt;Node2</title>
<path fill="none" stroke="#191970" d="M608.7119,-224.4706C595.1747,-216.0283 575.9416,-202.7749 562,-188 534.4178,-158.7693 541.0035,-140.8273 513,-112 501.1778,-99.8301 485.6789,-88.9436 472.5659,-80.8201"/>
<polygon fill="#191970" stroke="#191970" points="474.3207,-77.7914 463.9434,-75.6558 470.7239,-83.7967 474.3207,-77.7914"/>
</g>
<!-- Node32 -->
<g id="node33" class="node">
<title>Node32</title>
<g id="a_node33"><a xlink:href="../../d4/dc5/GPUDataTypes_8h.html" target="_top" xlink:title="GPUDataTypes.h">
<polygon fill="none" stroke="#000000" points="571,-168.5 571,-187.5 669,-187.5 669,-168.5 571,-168.5"/>
<text text-anchor="middle" x="620" y="-175.5" font-family="Helvetica,sans-Serif" font-size="10.00" fill="#000000">GPUDataTypes.h</text>
</a>
</g>
</g>
<!-- Node31&#45;&gt;Node32 -->
<g id="edge51" class="edge">
<title>Node31&#45;&gt;Node32</title>
<path fill="none" stroke="#191970" d="M624.1291,-224.2455C623.4766,-216.9382 622.562,-206.6944 621.7593,-197.7046"/>
<polygon fill="#191970" stroke="#191970" points="625.2365,-197.2918 620.861,-187.6427 618.2642,-197.9143 625.2365,-197.2918"/>
</g>
<!-- Node32&#45;&gt;Node2 -->
<g id="edge52" class="edge">
<title>Node32&#45;&gt;Node2</title>
<path fill="none" stroke="#191970" d="M611.9311,-168.3796C599.8532,-154.4574 575.8264,-128.5524 551,-112 530.4153,-98.2756 505.063,-87.0333 484.4272,-79.0987"/>
<polygon fill="#191970" stroke="#191970" points="485.608,-75.8036 475.0155,-75.5811 483.1572,-82.3606 485.608,-75.8036"/>
</g>
<!-- Node32&#45;&gt;Node25 -->
<g id="edge53" class="edge">
<title>Node32&#45;&gt;Node25</title>
<path fill="none" stroke="#191970" d="M636.0252,-168.2455C650.1408,-159.6534 670.9263,-147.0014 687.1899,-137.1018"/>
<polygon fill="#191970" stroke="#191970" points="689.4363,-139.8319 696.1585,-131.6427 685.7966,-133.8525 689.4363,-139.8319"/>
</g>
<!-- Node33&#45;&gt;Node2 -->
<g id="edge57" class="edge">
<title>Node33&#45;&gt;Node2</title>
<path fill="none" stroke="#191970" d="M740.602,-168.2314C749.2369,-154.1245 761.7403,-127.9917 748,-112 732.6961,-94.1886 594.0152,-79.0047 509.9985,-71.3381"/>
<polygon fill="#191970" stroke="#191970" points="510.0576,-67.8294 499.7839,-70.4184 509.4298,-74.8012 510.0576,-67.8294"/>
</g>
<!-- Node33&#45;&gt;Node7 -->
<g id="edge60" class="edge">
<title>Node33&#45;&gt;Node7</title>
<path fill="none" stroke="#191970" d="M716.7555,-168.2455C701.4239,-159.5731 678.7801,-146.7645 661.2084,-136.825"/>
<polygon fill="#191970" stroke="#191970" points="662.4741,-133.5198 652.0469,-131.6427 659.0276,-139.6126 662.4741,-133.5198"/>
</g>
<!-- Node33&#45;&gt;Node8 -->
<g id="edge58" class="edge">
<title>Node33&#45;&gt;Node8</title>
<path fill="none" stroke="#191970" d="M770.2722,-168.3733C807.2638,-158.5556 864.5854,-143.3423 903.3972,-133.0415"/>
<polygon fill="#191970" stroke="#191970" points="904.5634,-136.3532 913.3309,-130.4051 902.7677,-129.5875 904.5634,-136.3532"/>
</g>
<!-- Node33&#45;&gt;Node25 -->
<g id="edge59" class="edge">
<title>Node33&#45;&gt;Node25</title>
<path fill="none" stroke="#191970" d="M730.1679,-168.2455C727.2341,-160.7776 723.0953,-150.2427 719.509,-141.1137"/>
<polygon fill="#191970" stroke="#191970" points="722.7024,-139.6704 715.7882,-131.6427 716.1871,-142.23 722.7024,-139.6704"/>
</g>
</g>
</svg>
        <g id="navigator" transform="translate(0 0)" fill="#404254">
                <rect fill="#f2f5e9" fill-opacity="0.5" stroke="#606060" stroke-width=".5" x="0" y="0" width="60" height="60"/>
                <use id="zoomplus" xlink:href="#zoomPlus" x="17" y="9" onmousedown="handleZoom(evt,'in')"/>
                <use id="zoomminus" xlink:href="#zoomMin" x="42" y="9" onmousedown="handleZoom(evt,'out')"/>
                <use id="reset" xlink:href="#resetDef" x="30" y="36" onmousedown="handleReset()"/>
                <g id="arrowUp" xlink:href="#dirArrow" transform="translate(30 24)" onmousedown="handlePan(0,-1)">
                  <use xlink:href="#rim" fill="#404040">
                        <set attributeName="fill" to="#808080" begin="arrowUp.mouseover" end="arrowUp.mouseout"/>
                  </use>
                  <path fill="none" stroke="white" stroke-width="1.5" d="M0,-3.0v7 M-2.5,-0.5L0,-3.0L2.5,-0.5"/>
                </g>
                <g id="arrowRight" xlink:href="#dirArrow" transform="rotate(90) translate(36 -43)" onmousedown="handlePan(1,0)">
                  <use xlink:href="#rim" fill="#404040">
                        <set attributeName="fill" to="#808080" begin="arrowRight.mouseover" end="arrowRight.mouseout"/>
                  </use>
                  <path fill="none" stroke="white" stroke-width="1.5" d="M0,-3.0v7 M-2.5,-0.5L0,-3.0L2.5,-0.5"/>
                </g>
                <g id="arrowDown" xlink:href="#dirArrow" transform="rotate(180) translate(-30 -48)" onmousedown="handlePan(0,1)">
                  <use xlink:href="#rim" fill="#404040">
                        <set attributeName="fill" to="#808080" begin="arrowDown.mouseover" end="arrowDown.mouseout"/>
                  </use>
                  <path fill="none" stroke="white" stroke-width="1.5" d="M0,-3.0v7 M-2.5,-0.5L0,-3.0L2.5,-0.5"/>
                </g>
                <g id="arrowLeft" xlink:href="#dirArrow" transform="rotate(270) translate(-36 17)" onmousedown="handlePan(-1,0)">
                  <use xlink:href="#rim" fill="#404040">
                        <set attributeName="fill" to="#808080" begin="arrowLeft.mouseover" end="arrowLeft.mouseout"/>
                  </use>
                  <path fill="none" stroke="white" stroke-width="1.5" d="M0,-3.0v7 M-2.5,-0.5L0,-3.0L2.5,-0.5"/>
                </g>
        </g>
        <svg viewBox="0 0 15 15" width="100%" height="30px" preserveAspectRatio="xMaxYMin meet">
         <g id="arrow_out" transform="scale(0.3 0.3)">
          <a xlink:href="GPUTPCGMMerger_8h__incl_org.svg" target="_base">
           <rect id="button" ry="5" rx="5" y="6" x="6" height="38" width="38"
                fill="#f2f5e9" fill-opacity="0.5" stroke="#606060" stroke-width="1.0"/>
           <path id="arrow"
             d="M 11.500037,31.436501 C 11.940474,20.09759 22.043105,11.32322 32.158766,21.979434 L 37.068811,17.246167 C 37.068811,17.246167 37.088388,32 37.088388,32 L 22.160133,31.978069 C 22.160133,31.978069 26.997745,27.140456 26.997745,27.140456 C 18.528582,18.264221 13.291696,25.230495 11.500037,31.436501 z"
             style="fill:#404040;"/>
          </a>
         </g>
        </svg>
</svg>
