<?xml version="1.0" encoding="UTF-8" standalone="no"?>
<!DOCTYPE svg PUBLIC "-//W3C//DTD SVG 1.1//EN"
 "http://www.w3.org/Graphics/SVG/1.1/DTD/svg11.dtd">
<!-- Generated by graphviz version 2.40.1 (20161225.0304)
 -->
<!-- Title: /home/travis/build/AliceO2Group/AliceO2/DataFormats/Detectors/FIT/FT0/src/RawEventData.cxx Pages: 1 -->
<!--zoomable 352 -->
<svg id="main" version="1.1" xmlns="http://www.w3.org/2000/svg" xmlns:xlink="http://www.w3.org/1999/xlink" xml:space="preserve" onload="init(evt)">
<style type="text/css"><![CDATA[
.edge:hover path { stroke: red; }
.edge:hover polygon { stroke: red; fill: red; }
]]></style>
<script type="text/javascript"><![CDATA[
var edges = document.getElementsByTagName('g');
if (edges && edges.length) {
  for (var i=0;i<edges.length;i++) {
    if (edges[i].id.substr(0,4)=='edge') {
      edges[i].setAttribute('class','edge');
    }
  }
}
]]></script>
        <defs>
                <circle id="rim" cx="0" cy="0" r="7"/>
                <circle id="rim2" cx="0" cy="0" r="3.5"/>
                <g id="zoomPlus">
                        <use xlink:href="#rim" fill="#404040">
                                <set attributeName="fill" to="#808080" begin="zoomplus.mouseover" end="zoomplus.mouseout"/>
                        </use>
                        <path d="M-4,0h8M0,-4v8" fill="none" stroke="white" stroke-width="1.5" pointer-events="none"/>
                </g>
                <g id="zoomMin">
                        <use xlink:href="#rim" fill="#404040">
                                <set attributeName="fill" to="#808080" begin="zoomminus.mouseover" end="zoomminus.mouseout"/>
                        </use>
                        <path d="M-4,0h8" fill="none" stroke="white" stroke-width="1.5" pointer-events="none"/>
                </g>
                <g id="dirArrow">
                        <path fill="none" stroke="white" stroke-width="1.5" d="M0,-3.0v7 M-2.5,-0.5L0,-3.0L2.5,-0.5"/>
                </g>
               <g id="resetDef">
                       <use xlink:href="#rim2" fill="#404040">
                               <set attributeName="fill" to="#808080" begin="reset.mouseover" end="reset.mouseout"/>
                       </use>
               </g>
        </defs>

<script type="text/javascript">
var viewWidth = 1339;
var viewHeight = 352;
var sectionId = 'dynsection-0';
</script>
<script xlink:href="../../svgpan.js"/>
<svg id="graph" class="graph">
<g id="viewport">
<title>/home/travis/build/AliceO2Group/AliceO2/DataFormats/Detectors/FIT/FT0/src/RawEventData.cxx</title>
<!-- Node0 -->
<g id="node1" class="node">
<title>Node0</title>
<polygon fill="#bfbfbf" stroke="#000000" points="906,-291.5 906,-343.5 1073,-343.5 1073,-291.5 906,-291.5"/>
<text text-anchor="start" x="914" y="-331.5" font-family="Helvetica,sans-Serif" font-size="10.00" fill="#000000">/home/travis/build</text>
<text text-anchor="start" x="914" y="-320.5" font-family="Helvetica,sans-Serif" font-size="10.00" fill="#000000">/AliceO2Group/AliceO2</text>
<text text-anchor="start" x="914" y="-309.5" font-family="Helvetica,sans-Serif" font-size="10.00" fill="#000000">/DataFormats/Detectors</text>
<text text-anchor="middle" x="989.5" y="-298.5" font-family="Helvetica,sans-Serif" font-size="10.00" fill="#000000">/FIT/FT0/src/RawEventData.cxx</text>
</g>
<!-- Node1 -->
<g id="node2" class="node">
<title>Node1</title>
<g id="a_node2"><a xlink:href="../../d1/dfe/RawEventData_8h.html" target="_top" xlink:title="DataFormatsFT0/RawEventData.h">
<polygon fill="none" stroke="#000000" points="754,-235.5 754,-254.5 935,-254.5 935,-235.5 754,-235.5"/>
<text text-anchor="middle" x="844.5" y="-242.5" font-family="Helvetica,sans-Serif" font-size="10.00" fill="#000000">DataFormatsFT0/RawEventData.h</text>
</a>
</g>
</g>
<!-- Node0&#45;&gt;Node1 -->
<g id="edge1" class="edge">
<title>Node0&#45;&gt;Node1</title>
<path fill="none" stroke="#191970" d="M937.1517,-291.3258C915.3228,-280.4114 890.8463,-268.1731 872.535,-259.0175"/>
<polygon fill="#191970" stroke="#191970" points="874.0776,-255.8757 863.568,-254.534 870.947,-262.1367 874.0776,-255.8757"/>
</g>
<!-- Node3 -->
<g id="node4" class="node">
<title>Node3</title>
<g id="a_node4"><a xlink:href="../../d9/d80/InteractionRecord_8h.html" target="_top" xlink:title="CommonDataFormat/Interaction\lRecord.h">
<polygon fill="none" stroke="#000000" points="1024.5,-112.5 1024.5,-142.5 1198.5,-142.5 1198.5,-112.5 1024.5,-112.5"/>
<text text-anchor="start" x="1032.5" y="-130.5" font-family="Helvetica,sans-Serif" font-size="10.00" fill="#000000">CommonDataFormat/Interaction</text>
<text text-anchor="middle" x="1111.5" y="-119.5" font-family="Helvetica,sans-Serif" font-size="10.00" fill="#000000">Record.h</text>
</a>
</g>
</g>
<!-- Node0&#45;&gt;Node3 -->
<g id="edge32" class="edge">
<title>Node0&#45;&gt;Node3</title>
<path fill="none" stroke="#191970" d="M1073.0134,-293.6878C1119.3452,-275.7291 1173.0167,-245.9559 1200.5,-199 1213.3517,-177.0426 1190.9379,-159.1281 1165.3934,-146.7228"/>
<polygon fill="#191970" stroke="#191970" points="1166.831,-143.5316 1156.2801,-142.567 1163.9266,-149.9007 1166.831,-143.5316"/>
</g>
<!-- Node15 -->
<g id="node16" class="node">
<title>Node15</title>
<polygon fill="none" stroke="#bfbfbf" points="167.5,-118 167.5,-137 227.5,-137 227.5,-118 167.5,-118"/>
<text text-anchor="middle" x="197.5" y="-125" font-family="Helvetica,sans-Serif" font-size="10.00" fill="#000000">iostream</text>
</g>
<!-- Node0&#45;&gt;Node15 -->
<g id="edge34" class="edge">
<title>Node0&#45;&gt;Node15</title>
<path fill="none" stroke="#191970" d="M905.9541,-302.4117C765.8422,-276.1615 475.3695,-217.6788 236.5,-143 234.2117,-142.2846 231.8673,-141.497 229.519,-140.6676"/>
<polygon fill="#191970" stroke="#191970" points="230.57,-137.324 219.9775,-137.1005 228.1187,-143.8808 230.57,-137.324"/>
</g>
<!-- Node20 -->
<g id="node21" class="node">
<title>Node20</title>
<g id="a_node21"><a xlink:href="../../dd/da4/Logger_8h.html" target="_top" xlink:title="Framework/Logger.h">
<polygon fill="none" stroke="#000000" points="1077,-179.5 1077,-198.5 1192,-198.5 1192,-179.5 1077,-179.5"/>
<text text-anchor="middle" x="1134.5" y="-186.5" font-family="Helvetica,sans-Serif" font-size="10.00" fill="#000000">Framework/Logger.h</text>
</a>
</g>
</g>
<!-- Node0&#45;&gt;Node20 -->
<g id="edge33" class="edge">
<title>Node0&#45;&gt;Node20</title>
<path fill="none" stroke="#191970" d="M1018.8429,-291.4961C1047.9874,-265.6681 1091.7612,-226.8754 1116.2482,-205.1748"/>
<polygon fill="#191970" stroke="#191970" points="1118.6015,-207.766 1123.7642,-198.5142 1113.9587,-202.5272 1118.6015,-207.766"/>
</g>
<!-- Node2 -->
<g id="node3" class="node">
<title>Node2</title>
<g id="a_node3"><a xlink:href="../../d0/d0a/DataFormats_2Detectors_2FIT_2FT0_2include_2DataFormatsFT0_2Digit_8h.html" target="_top" xlink:title="DataFormatsFT0/Digit.h">
<polygon fill="none" stroke="#000000" points="668.5,-179.5 668.5,-198.5 800.5,-198.5 800.5,-179.5 668.5,-179.5"/>
<text text-anchor="middle" x="734.5" y="-186.5" font-family="Helvetica,sans-Serif" font-size="10.00" fill="#000000">DataFormatsFT0/Digit.h</text>
</a>
</g>
</g>
<!-- Node1&#45;&gt;Node2 -->
<g id="edge2" class="edge">
<title>Node1&#45;&gt;Node2</title>
<path fill="none" stroke="#191970" d="M825.3395,-235.2455C807.9889,-226.4125 782.2099,-213.2887 762.5417,-203.2758"/>
<polygon fill="#191970" stroke="#191970" points="763.9405,-200.0605 753.441,-198.6427 760.7647,-206.2986 763.9405,-200.0605"/>
</g>
<!-- Node1&#45;&gt;Node3 -->
<g id="edge27" class="edge">
<title>Node1&#45;&gt;Node3</title>
<path fill="none" stroke="#191970" d="M915.3962,-235.4709C951.0723,-228.7021 994.1334,-217.4304 1029.5,-199 1053.251,-186.6228 1075.8484,-166.0208 1091.2834,-150.1027"/>
<polygon fill="#191970" stroke="#191970" points="1093.9344,-152.3932 1098.2589,-142.7211 1088.8466,-147.5854 1093.9344,-152.3932"/>
</g>
<!-- Node4 -->
<g id="node5" class="node">
<title>Node4</title>
<polygon fill="none" stroke="#bfbfbf" points="640,-.5 640,-19.5 699,-19.5 699,-.5 640,-.5"/>
<text text-anchor="middle" x="669.5" y="-7.5" font-family="Helvetica,sans-Serif" font-size="10.00" fill="#000000">Rtypes.h</text>
</g>
<!-- Node1&#45;&gt;Node4 -->
<g id="edge31" class="edge">
<title>Node1&#45;&gt;Node4</title>
<path fill="none" stroke="#191970" d="M846.306,-235.3397C848.9388,-222.2429 854.4146,-198.2762 862.5,-179 869.6649,-161.9186 878.6658,-160.8813 883.5,-143 887.0957,-129.6997 890.8536,-123.6512 883.5,-112 845.1723,-51.2729 759.6816,-25.9426 709.1209,-15.9683"/>
<polygon fill="#191970" stroke="#191970" points="709.6672,-12.5099 699.1952,-14.1189 708.3849,-19.3915 709.6672,-12.5099"/>
</g>
<!-- Node1&#45;&gt;Node15 -->
<g id="edge29" class="edge">
<title>Node1&#45;&gt;Node15</title>
<path fill="none" stroke="#191970" d="M792.0413,-235.4703C754.4327,-227.7974 702.9517,-215.5587 659.5,-199 641.6658,-192.2037 639.7946,-184.4366 621.5,-179 456.7625,-130.0453 403.6033,-183.1436 236.5,-143 233.7105,-142.3299 230.8565,-141.4992 228.0238,-140.5732"/>
<polygon fill="#191970" stroke="#191970" points="229.1938,-137.2745 218.5996,-137.1527 226.8055,-143.8545 229.1938,-137.2745"/>
</g>
<!-- Node16 -->
<g id="node17" class="node">
<title>Node16</title>
<g id="a_node17"><a xlink:href="../../d4/d78/DataFormats_2Headers_2include_2Headers_2RAWDataHeader_8h.html" target="_top" xlink:title="Headers/RAWDataHeader.h">
<polygon fill="none" stroke="#000000" points="872,-179.5 872,-198.5 1021,-198.5 1021,-179.5 872,-179.5"/>
<text text-anchor="middle" x="946.5" y="-186.5" font-family="Helvetica,sans-Serif" font-size="10.00" fill="#000000">Headers/RAWDataHeader.h</text>
</a>
</g>
</g>
<!-- Node1&#45;&gt;Node16 -->
<g id="edge20" class="edge">
<title>Node1&#45;&gt;Node16</title>
<path fill="none" stroke="#191970" d="M862.267,-235.2455C878.2095,-226.4928 901.8259,-213.527 919.9989,-203.5496"/>
<polygon fill="#191970" stroke="#191970" points="921.8552,-206.5233 928.9366,-198.6427 918.4863,-200.3873 921.8552,-206.5233"/>
</g>
<!-- Node17 -->
<g id="node18" class="node">
<title>Node17</title>
<g id="a_node18"><a xlink:href="../../df/d27/LookUpTable_8h.html" target="_top" xlink:title="DataFormatsFT0/LookUpTable.h">
<polygon fill="none" stroke="#000000" points="54,-179.5 54,-198.5 225,-198.5 225,-179.5 54,-179.5"/>
<text text-anchor="middle" x="139.5" y="-186.5" font-family="Helvetica,sans-Serif" font-size="10.00" fill="#000000">DataFormatsFT0/LookUpTable.h</text>
</a>
</g>
</g>
<!-- Node1&#45;&gt;Node17 -->
<g id="edge22" class="edge">
<title>Node1&#45;&gt;Node17</title>
<path fill="none" stroke="#191970" d="M753.7769,-237.7936C620.1707,-227.1809 371.6207,-207.438 235.2155,-196.6029"/>
<polygon fill="#191970" stroke="#191970" points="235.4349,-193.1094 225.1891,-195.8065 234.8805,-200.0874 235.4349,-193.1094"/>
</g>
<!-- Node1&#45;&gt;Node20 -->
<g id="edge28" class="edge">
<title>Node1&#45;&gt;Node20</title>
<path fill="none" stroke="#191970" d="M894.0233,-235.4369C944.1759,-225.7522 1021.761,-210.7703 1075.1697,-200.4569"/>
<polygon fill="#191970" stroke="#191970" points="1076.026,-203.8563 1085.181,-198.5237 1074.6987,-196.9832 1076.026,-203.8563"/>
</g>
<!-- Node21 -->
<g id="node22" class="node">
<title>Node21</title>
<polygon fill="none" stroke="#bfbfbf" points="562.5,-179.5 562.5,-198.5 612.5,-198.5 612.5,-179.5 562.5,-179.5"/>
<text text-anchor="middle" x="587.5" y="-186.5" font-family="Helvetica,sans-Serif" font-size="10.00" fill="#000000">cstring</text>
</g>
<!-- Node1&#45;&gt;Node21 -->
<g id="edge30" class="edge">
<title>Node1&#45;&gt;Node21</title>
<path fill="none" stroke="#191970" d="M796.3107,-235.4515C752.0491,-226.5343 684.6949,-212.5941 626.5,-199 625.2365,-198.7049 623.9512,-198.3999 622.6539,-198.0882"/>
<polygon fill="#191970" stroke="#191970" points="623.1837,-194.614 612.6362,-195.6145 621.5055,-201.4098 623.1837,-194.614"/>
</g>
<!-- Node2&#45;&gt;Node3 -->
<g id="edge3" class="edge">
<title>Node2&#45;&gt;Node3</title>
<path fill="none" stroke="#191970" d="M792.9926,-179.4581C852.0319,-169.827 944.2462,-154.7841 1014.2901,-143.3578"/>
<polygon fill="#191970" stroke="#191970" points="1015.151,-146.7638 1024.457,-141.6993 1014.0239,-139.8551 1015.151,-146.7638"/>
</g>
<!-- Node2&#45;&gt;Node4 -->
<g id="edge16" class="edge">
<title>Node2&#45;&gt;Node4</title>
<path fill="none" stroke="#191970" d="M734.1396,-179.4765C732.9604,-156.9284 728.0028,-98.9511 707.5,-56 702.4129,-45.3431 694.321,-35.0555 686.9092,-26.9217"/>
<polygon fill="#191970" stroke="#191970" points="689.3083,-24.3667 679.8606,-19.5718 684.2561,-29.2119 689.3083,-24.3667"/>
</g>
<!-- Node9 -->
<g id="node10" class="node">
<title>Node9</title>
<g id="a_node10"><a xlink:href="../../de/d64/RangeReference_8h.html" target="_top" xlink:title="Class to refer to the 1st entry and N elements of some group in the continuous container. ">
<polygon fill="none" stroke="#000000" points="245.5,-118 245.5,-137 455.5,-137 455.5,-118 245.5,-118"/>
<text text-anchor="middle" x="350.5" y="-125" font-family="Helvetica,sans-Serif" font-size="10.00" fill="#000000">CommonDataFormat/RangeReference.h</text>
</a>
</g>
</g>
<!-- Node2&#45;&gt;Node9 -->
<g id="edge9" class="edge">
<title>Node2&#45;&gt;Node9</title>
<path fill="none" stroke="#191970" d="M674.9213,-179.4581C606.0111,-168.4217 492.7291,-150.2789 419.9015,-138.6151"/>
<polygon fill="#191970" stroke="#191970" points="420.3302,-135.1392 409.9025,-137.0137 419.2231,-142.0511 420.3302,-135.1392"/>
</g>
<!-- Node11 -->
<g id="node12" class="node">
<title>Node11</title>
<g id="a_node12"><a xlink:href="../../df/d5d/common_2include_2CommonDataFormat_2TimeStamp_8h.html" target="_top" xlink:title="CommonDataFormat/TimeStamp.h">
<polygon fill="none" stroke="#000000" points="474,-118 474,-137 661,-137 661,-118 474,-118"/>
<text text-anchor="middle" x="567.5" y="-125" font-family="Helvetica,sans-Serif" font-size="10.00" fill="#000000">CommonDataFormat/TimeStamp.h</text>
</a>
</g>
</g>
<!-- Node2&#45;&gt;Node11 -->
<g id="edge12" class="edge">
<title>Node2&#45;&gt;Node11</title>
<path fill="none" stroke="#191970" d="M708.4063,-179.3906C680.0964,-168.9652 634.7232,-152.2559 603.1408,-140.6252"/>
<polygon fill="#191970" stroke="#191970" points="604.004,-137.2133 593.4105,-137.0419 601.5849,-143.7821 604.004,-137.2133"/>
</g>
<!-- Node12 -->
<g id="node13" class="node">
<title>Node12</title>
<g id="a_node13"><a xlink:href="../../dc/d44/FIT_2FT0_2include_2DataFormatsFT0_2ChannelData_8h.html" target="_top" xlink:title="DataFormatsFT0/ChannelData.h">
<polygon fill="none" stroke="#000000" points="526.5,-56.5 526.5,-75.5 698.5,-75.5 698.5,-56.5 526.5,-56.5"/>
<text text-anchor="middle" x="612.5" y="-63.5" font-family="Helvetica,sans-Serif" font-size="10.00" fill="#000000">DataFormatsFT0/ChannelData.h</text>
</a>
</g>
</g>
<!-- Node2&#45;&gt;Node12 -->
<g id="edge14" class="edge">
<title>Node2&#45;&gt;Node12</title>
<path fill="none" stroke="#191970" d="M727.428,-179.495C716.023,-164.4394 692.5114,-134.5087 669.5,-112 658.4535,-101.1949 645.0512,-90.2831 634.0183,-81.8005"/>
<polygon fill="#191970" stroke="#191970" points="635.857,-78.803 625.7685,-75.5669 631.6369,-84.388 635.857,-78.803"/>
</g>
<!-- Node13 -->
<g id="node14" class="node">
<title>Node13</title>
<polygon fill="none" stroke="#bfbfbf" points="755,-118 755,-137 812,-137 812,-118 755,-118"/>
<text text-anchor="middle" x="783.5" y="-125" font-family="Helvetica,sans-Serif" font-size="10.00" fill="#000000">gsl/span</text>
</g>
<!-- Node2&#45;&gt;Node13 -->
<g id="edge17" class="edge">
<title>Node2&#45;&gt;Node13</title>
<path fill="none" stroke="#191970" d="M742.1563,-179.3906C749.4489,-170.2376 760.6007,-156.2409 769.4852,-145.09"/>
<polygon fill="#191970" stroke="#191970" points="772.2417,-147.247 775.7358,-137.2449 766.767,-142.8849 772.2417,-147.247"/>
</g>
<!-- Node14 -->
<g id="node15" class="node">
<title>Node14</title>
<polygon fill="none" stroke="#bfbfbf" points="830.5,-118 830.5,-137 874.5,-137 874.5,-118 830.5,-118"/>
<text text-anchor="middle" x="852.5" y="-125" font-family="Helvetica,sans-Serif" font-size="10.00" fill="#000000">bitset</text>
</g>
<!-- Node2&#45;&gt;Node14 -->
<g id="edge18" class="edge">
<title>Node2&#45;&gt;Node14</title>
<path fill="none" stroke="#191970" d="M752.9375,-179.3906C772.3347,-169.2811 803.069,-153.2628 825.2617,-141.6962"/>
<polygon fill="#191970" stroke="#191970" points="826.9418,-144.7675 834.192,-137.0419 823.7064,-138.56 826.9418,-144.7675"/>
</g>
<!-- Node2&#45;&gt;Node15 -->
<g id="edge19" class="edge">
<title>Node2&#45;&gt;Node15</title>
<path fill="none" stroke="#191970" d="M668.1685,-180.5093C663.545,-179.9788 658.9543,-179.47 654.5,-179 469.0641,-159.4323 417.9654,-185.8917 236.5,-143 233.6416,-142.3244 230.7163,-141.4772 227.8162,-140.5292"/>
<polygon fill="#191970" stroke="#191970" points="228.78,-137.1554 218.186,-137.0208 226.3838,-143.7325 228.78,-137.1554"/>
</g>
<!-- Node3&#45;&gt;Node4 -->
<g id="edge4" class="edge">
<title>Node3&#45;&gt;Node4</title>
<path fill="none" stroke="#191970" d="M1198.5693,-117.6255C1250.8871,-109.6977 1310.3661,-96.4549 1326.5,-76 1332.0049,-69.0208 1332.5619,-62.5012 1326.5,-56 1305.3632,-33.3316 848.6167,-16.0603 709.4129,-11.3079"/>
<polygon fill="#191970" stroke="#191970" points="709.3058,-7.8024 699.1931,-10.9621 709.069,-14.7984 709.3058,-7.8024"/>
</g>
<!-- Node5 -->
<g id="node6" class="node">
<title>Node5</title>
<polygon fill="none" stroke="#bfbfbf" points="1269,-56.5 1269,-75.5 1318,-75.5 1318,-56.5 1269,-56.5"/>
<text text-anchor="middle" x="1293.5" y="-63.5" font-family="Helvetica,sans-Serif" font-size="10.00" fill="#000000">iosfwd</text>
</g>
<!-- Node3&#45;&gt;Node5 -->
<g id="edge5" class="edge">
<title>Node3&#45;&gt;Node5</title>
<path fill="none" stroke="#191970" d="M1156.0222,-112.4554C1187.8405,-101.7036 1230.0215,-87.4501 1259.2304,-77.5801"/>
<polygon fill="#191970" stroke="#191970" points="1260.6295,-80.8018 1268.9827,-74.2847 1258.3885,-74.1702 1260.6295,-80.8018"/>
</g>
<!-- Node6 -->
<g id="node7" class="node">
<title>Node6</title>
<polygon fill="none" stroke="#bfbfbf" points="995,-56.5 995,-75.5 1042,-75.5 1042,-56.5 995,-56.5"/>
<text text-anchor="middle" x="1018.5" y="-63.5" font-family="Helvetica,sans-Serif" font-size="10.00" fill="#000000">cmath</text>
</g>
<!-- Node3&#45;&gt;Node6 -->
<g id="edge6" class="edge">
<title>Node3&#45;&gt;Node6</title>
<path fill="none" stroke="#191970" d="M1088.5112,-112.2977C1074.3034,-102.9022 1056.1215,-90.8787 1041.8475,-81.4395"/>
<polygon fill="#191970" stroke="#191970" points="1043.3845,-78.2598 1033.1128,-75.6633 1039.5233,-84.0986 1043.3845,-78.2598"/>
</g>
<!-- Node7 -->
<g id="node8" class="node">
<title>Node7</title>
<polygon fill="none" stroke="#bfbfbf" points="926.5,-56.5 926.5,-75.5 976.5,-75.5 976.5,-56.5 926.5,-56.5"/>
<text text-anchor="middle" x="951.5" y="-63.5" font-family="Helvetica,sans-Serif" font-size="10.00" fill="#000000">cstdint</text>
</g>
<!-- Node3&#45;&gt;Node7 -->
<g id="edge7" class="edge">
<title>Node3&#45;&gt;Node7</title>
<path fill="none" stroke="#191970" d="M1072.3596,-112.4554C1045.8974,-102.284 1011.2819,-88.9787 985.8817,-79.2155"/>
<polygon fill="#191970" stroke="#191970" points="986.8843,-75.8512 976.2943,-75.5303 984.3728,-82.3852 986.8843,-75.8512"/>
</g>
<!-- Node8 -->
<g id="node9" class="node">
<title>Node8</title>
<g id="a_node9"><a xlink:href="../../d4/dc6/LHCConstants_8h.html" target="_top" xlink:title="Header to collect LHC related constants. ">
<polygon fill="none" stroke="#000000" points="1060.5,-56.5 1060.5,-75.5 1250.5,-75.5 1250.5,-56.5 1060.5,-56.5"/>
<text text-anchor="middle" x="1155.5" y="-63.5" font-family="Helvetica,sans-Serif" font-size="10.00" fill="#000000">CommonConstants/LHCConstants.h</text>
</a>
</g>
</g>
<!-- Node3&#45;&gt;Node8 -->
<g id="edge8" class="edge">
<title>Node3&#45;&gt;Node8</title>
<path fill="none" stroke="#191970" d="M1122.3764,-112.2977C1128.4841,-103.7609 1136.1439,-93.0545 1142.5588,-84.0883"/>
<polygon fill="#191970" stroke="#191970" points="1145.4829,-86.0163 1148.455,-75.8469 1139.7899,-81.9433 1145.4829,-86.0163"/>
</g>
<!-- Node10 -->
<g id="node11" class="node">
<title>Node10</title>
<g id="a_node11"><a xlink:href="../../d2/d45/GPUCommonRtypes_8h.html" target="_top" xlink:title="GPUCommonRtypes.h">
<polygon fill="none" stroke="#000000" points="383,-56.5 383,-75.5 508,-75.5 508,-56.5 383,-56.5"/>
<text text-anchor="middle" x="445.5" y="-63.5" font-family="Helvetica,sans-Serif" font-size="10.00" fill="#000000">GPUCommonRtypes.h</text>
</a>
</g>
</g>
<!-- Node9&#45;&gt;Node10 -->
<g id="edge10" class="edge">
<title>Node9&#45;&gt;Node10</title>
<path fill="none" stroke="#191970" d="M365.3438,-117.8906C380.5418,-108.0519 404.3848,-92.6167 422.1206,-81.1351"/>
<polygon fill="#191970" stroke="#191970" points="424.268,-83.9144 430.7605,-75.5419 420.4639,-78.0382 424.268,-83.9144"/>
</g>
<!-- Node10&#45;&gt;Node4 -->
<g id="edge11" class="edge">
<title>Node10&#45;&gt;Node4</title>
<path fill="none" stroke="#191970" d="M483.7525,-56.4369C524.5308,-46.2423 588.7887,-30.1778 630.028,-19.868"/>
<polygon fill="#191970" stroke="#191970" points="631.1357,-23.1989 639.9883,-17.3779 629.4379,-16.4079 631.1357,-23.1989"/>
</g>
<!-- Node11&#45;&gt;Node10 -->
<g id="edge13" class="edge">
<title>Node11&#45;&gt;Node10</title>
<path fill="none" stroke="#191970" d="M548.4375,-117.8906C528.3828,-107.7811 496.6066,-91.7628 473.6616,-80.1962"/>
<polygon fill="#191970" stroke="#191970" points="474.9337,-76.918 464.4286,-75.5419 471.7827,-83.1687 474.9337,-76.918"/>
</g>
<!-- Node12&#45;&gt;Node4 -->
<g id="edge15" class="edge">
<title>Node12&#45;&gt;Node4</title>
<path fill="none" stroke="#191970" d="M622.4286,-56.2455C630.6838,-48.1352 642.6209,-36.4075 652.4082,-26.7919"/>
<polygon fill="#191970" stroke="#191970" points="655.0046,-29.1476 659.6851,-19.6427 650.0989,-24.1542 655.0046,-29.1476"/>
</g>
<!-- Node16&#45;&gt;Node7 -->
<g id="edge21" class="edge">
<title>Node16&#45;&gt;Node7</title>
<path fill="none" stroke="#191970" d="M946.8923,-179.3484C947.7102,-159.2295 949.6113,-112.4608 950.6988,-85.7098"/>
<polygon fill="#191970" stroke="#191970" points="954.2003,-85.7407 951.1095,-75.6068 947.2061,-85.4563 954.2003,-85.7407"/>
</g>
<!-- Node17&#45;&gt;Node4 -->
<g id="edge23" class="edge">
<title>Node17&#45;&gt;Node4</title>
<path fill="none" stroke="#191970" d="M138.9602,-179.4869C138.592,-163.313 140.3143,-130.4215 158.5,-112 224.6971,-44.9446 521.5185,-19.4794 629.8033,-12.319"/>
<polygon fill="#191970" stroke="#191970" points="630.2238,-15.7993 639.9781,-11.6638 629.7738,-8.8138 630.2238,-15.7993"/>
</g>
<!-- Node17&#45;&gt;Node15 -->
<g id="edge25" class="edge">
<title>Node17&#45;&gt;Node15</title>
<path fill="none" stroke="#191970" d="M148.5625,-179.3906C157.2793,-170.1478 170.654,-155.966 181.2196,-144.7628"/>
<polygon fill="#191970" stroke="#191970" points="183.995,-146.9213 188.3097,-137.2449 178.9024,-142.1186 183.995,-146.9213"/>
</g>
<!-- Node18 -->
<g id="node19" class="node">
<title>Node18</title>
<polygon fill="none" stroke="#bfbfbf" points="59.5,-118 59.5,-137 111.5,-137 111.5,-118 59.5,-118"/>
<text text-anchor="middle" x="85.5" y="-125" font-family="Helvetica,sans-Serif" font-size="10.00" fill="#000000">cassert</text>
</g>
<!-- Node17&#45;&gt;Node18 -->
<g id="edge24" class="edge">
<title>Node17&#45;&gt;Node18</title>
<path fill="none" stroke="#191970" d="M131.0625,-179.3906C122.9469,-170.1478 110.4945,-155.966 100.6576,-144.7628"/>
<polygon fill="#191970" stroke="#191970" points="103.2846,-142.45 94.0565,-137.2449 98.0245,-147.0686 103.2846,-142.45"/>
</g>
<!-- Node19 -->
<g id="node20" class="node">
<title>Node19</title>
<polygon fill="none" stroke="#bfbfbf" points="0,-118 0,-137 41,-137 41,-118 0,-118"/>
<text text-anchor="middle" x="20.5" y="-125" font-family="Helvetica,sans-Serif" font-size="10.00" fill="#000000">tuple</text>
</g>
<!-- Node17&#45;&gt;Node19 -->
<g id="edge26" class="edge">
<title>Node17&#45;&gt;Node19</title>
<path fill="none" stroke="#191970" d="M120.9063,-179.3906C101.3447,-169.2811 70.3499,-153.2628 47.9691,-141.6962"/>
<polygon fill="#191970" stroke="#191970" points="49.4539,-138.5238 38.9632,-137.0419 46.24,-144.7425 49.4539,-138.5238"/>
</g>
</g>
</svg>
        <g id="navigator" transform="translate(0 0)" fill="#404254">
                <rect fill="#f2f5e9" fill-opacity="0.5" stroke="#606060" stroke-width=".5" x="0" y="0" width="60" height="60"/>
                <use id="zoomplus" xlink:href="#zoomPlus" x="17" y="9" onmousedown="handleZoom(evt,'in')"/>
                <use id="zoomminus" xlink:href="#zoomMin" x="42" y="9" onmousedown="handleZoom(evt,'out')"/>
                <use id="reset" xlink:href="#resetDef" x="30" y="36" onmousedown="handleReset()"/>
                <g id="arrowUp" xlink:href="#dirArrow" transform="translate(30 24)" onmousedown="handlePan(0,-1)">
                  <use xlink:href="#rim" fill="#404040">
                        <set attributeName="fill" to="#808080" begin="arrowUp.mouseover" end="arrowUp.mouseout"/>
                  </use>
                  <path fill="none" stroke="white" stroke-width="1.5" d="M0,-3.0v7 M-2.5,-0.5L0,-3.0L2.5,-0.5"/>
                </g>
                <g id="arrowRight" xlink:href="#dirArrow" transform="rotate(90) translate(36 -43)" onmousedown="handlePan(1,0)">
                  <use xlink:href="#rim" fill="#404040">
                        <set attributeName="fill" to="#808080" begin="arrowRight.mouseover" end="arrowRight.mouseout"/>
                  </use>
                  <path fill="none" stroke="white" stroke-width="1.5" d="M0,-3.0v7 M-2.5,-0.5L0,-3.0L2.5,-0.5"/>
                </g>
                <g id="arrowDown" xlink:href="#dirArrow" transform="rotate(180) translate(-30 -48)" onmousedown="handlePan(0,1)">
                  <use xlink:href="#rim" fill="#404040">
                        <set attributeName="fill" to="#808080" begin="arrowDown.mouseover" end="arrowDown.mouseout"/>
                  </use>
                  <path fill="none" stroke="white" stroke-width="1.5" d="M0,-3.0v7 M-2.5,-0.5L0,-3.0L2.5,-0.5"/>
                </g>
                <g id="arrowLeft" xlink:href="#dirArrow" transform="rotate(270) translate(-36 17)" onmousedown="handlePan(-1,0)">
                  <use xlink:href="#rim" fill="#404040">
                        <set attributeName="fill" to="#808080" begin="arrowLeft.mouseover" end="arrowLeft.mouseout"/>
                  </use>
                  <path fill="none" stroke="white" stroke-width="1.5" d="M0,-3.0v7 M-2.5,-0.5L0,-3.0L2.5,-0.5"/>
                </g>
        </g>
        <svg viewBox="0 0 15 15" width="100%" height="30px" preserveAspectRatio="xMaxYMin meet">
         <g id="arrow_out" transform="scale(0.3 0.3)">
          <a xlink:href="RawEventData_8cxx__incl_org.svg" target="_base">
           <rect id="button" ry="5" rx="5" y="6" x="6" height="38" width="38"
                fill="#f2f5e9" fill-opacity="0.5" stroke="#606060" stroke-width="1.0"/>
           <path id="arrow"
             d="M 11.500037,31.436501 C 11.940474,20.09759 22.043105,11.32322 32.158766,21.979434 L 37.068811,17.246167 C 37.068811,17.246167 37.088388,32 37.088388,32 L 22.160133,31.978069 C 22.160133,31.978069 26.997745,27.140456 26.997745,27.140456 C 18.528582,18.264221 13.291696,25.230495 11.500037,31.436501 z"
             style="fill:#404040;"/>
          </a>
         </g>
        </svg>
</svg>
