<?xml version="1.0" encoding="UTF-8" standalone="no"?>
<!DOCTYPE svg PUBLIC "-//W3C//DTD SVG 1.1//EN"
 "http://www.w3.org/Graphics/SVG/1.1/DTD/svg11.dtd">
<!-- Generated by graphviz version 2.40.1 (20161225.0304)
 -->
<!-- Title: GPUCA_NAMESPACE::gpu::GPUTPCCFNoiseSuppression::GPUSharedMemory Pages: 1 -->
<svg width="342pt" height="419pt"
 viewBox="0.00 0.00 341.50 419.00" xmlns="http://www.w3.org/2000/svg" xmlns:xlink="http://www.w3.org/1999/xlink">
<g id="graph0" class="graph" transform="scale(1 1) rotate(0) translate(4 415)">
<title>GPUCA_NAMESPACE::gpu::GPUTPCCFNoiseSuppression::GPUSharedMemory</title>
<!-- Node1 -->
<g id="node1" class="node">
<title>Node1</title>
<polygon fill="#bfbfbf" stroke="#000000" points="67.5,-.5 67.5,-79.5 228.5,-79.5 228.5,-.5 67.5,-.5"/>
<text text-anchor="start" x="75.5" y="-67.5" font-family="Helvetica,sans-Serif" font-size="10.00" fill="#000000">GPUCA_NAMESPACE::gpu</text>
<text text-anchor="start" x="75.5" y="-56.5" font-family="Helvetica,sans-Serif" font-size="10.00" fill="#000000">::GPUTPCCFNoiseSuppression</text>
<text text-anchor="middle" x="148" y="-45.5" font-family="Helvetica,sans-Serif" font-size="10.00" fill="#000000">::GPUSharedMemory</text>
<polyline fill="none" stroke="#000000" points="67.5,-38.5 228.5,-38.5 "/>
<text text-anchor="middle" x="148" y="-26.5" font-family="Helvetica,sans-Serif" font-size="10.00" fill="#000000"> </text>
<polyline fill="none" stroke="#000000" points="67.5,-19.5 228.5,-19.5 "/>
<text text-anchor="middle" x="148" y="-7.5" font-family="Helvetica,sans-Serif" font-size="10.00" fill="#000000"> </text>
</g>
<!-- Node2 -->
<g id="node2" class="node">
<title>Node2</title>
<g id="a_node2"><a xlink:href="../../da/dca/classGPUCA__NAMESPACE_1_1gpu_1_1PackedCharge.html" target="_top" xlink:title="{GPUCA_NAMESPACE::gpu\l::PackedCharge\n|+ mVal\l|+ GPUdDefault()\l+ GPUdi()\l+ GPUdi()\l+ GPUdi()\l+ GPUdi()\l+ GPUdi()\l}">
<polygon fill="none" stroke="#000000" points="0,-144 0,-267 140,-267 140,-144 0,-144"/>
<text text-anchor="start" x="8" y="-255" font-family="Helvetica,sans-Serif" font-size="10.00" fill="#000000">GPUCA_NAMESPACE::gpu</text>
<text text-anchor="middle" x="70" y="-244" font-family="Helvetica,sans-Serif" font-size="10.00" fill="#000000">::PackedCharge</text>
<polyline fill="none" stroke="#000000" points="0,-237 140,-237 "/>
<text text-anchor="start" x="8" y="-225" font-family="Helvetica,sans-Serif" font-size="10.00" fill="#000000">+ mVal</text>
<polyline fill="none" stroke="#000000" points="0,-218 140,-218 "/>
<text text-anchor="start" x="8" y="-206" font-family="Helvetica,sans-Serif" font-size="10.00" fill="#000000">+ GPUdDefault()</text>
<text text-anchor="start" x="8" y="-195" font-family="Helvetica,sans-Serif" font-size="10.00" fill="#000000">+ GPUdi()</text>
<text text-anchor="start" x="8" y="-184" font-family="Helvetica,sans-Serif" font-size="10.00" fill="#000000">+ GPUdi()</text>
<text text-anchor="start" x="8" y="-173" font-family="Helvetica,sans-Serif" font-size="10.00" fill="#000000">+ GPUdi()</text>
<text text-anchor="start" x="8" y="-162" font-family="Helvetica,sans-Serif" font-size="10.00" fill="#000000">+ GPUdi()</text>
<text text-anchor="start" x="8" y="-151" font-family="Helvetica,sans-Serif" font-size="10.00" fill="#000000">+ GPUdi()</text>
</a>
</g>
</g>
<!-- Node2&#45;&gt;Node1 -->
<g id="edge1" class="edge">
<title>Node2&#45;&gt;Node1</title>
<path fill="none" stroke="#404040" d="M99.0443,-143.8739C107.2793,-126.401 116.1489,-107.5814 124.0464,-90.8247"/>
<polygon fill="none" stroke="#404040" points="124.2228,-90.4502 123.1625,-83.3175 129.3387,-79.5953 130.3991,-86.7281 124.2228,-90.4502"/>
<text text-anchor="middle" x="135" y="-101" font-family="Helvetica,sans-Serif" font-size="10.00" fill="#000000"> +buf</text>
</g>
<!-- Node3 -->
<g id="node3" class="node">
<title>Node3</title>
<polygon fill="none" stroke="#bfbfbf" points="47,-353.5 47,-410.5 85,-410.5 85,-353.5 47,-353.5"/>
<text text-anchor="middle" x="66" y="-398.5" font-family="Helvetica,sans-Serif" font-size="10.00" fill="#000000">bool</text>
<polyline fill="none" stroke="#bfbfbf" points="47,-391.5 85,-391.5 "/>
<text text-anchor="middle" x="66" y="-379.5" font-family="Helvetica,sans-Serif" font-size="10.00" fill="#000000"> </text>
<polyline fill="none" stroke="#bfbfbf" points="47,-372.5 85,-372.5 "/>
<text text-anchor="middle" x="66" y="-360.5" font-family="Helvetica,sans-Serif" font-size="10.00" fill="#000000"> </text>
</g>
<!-- Node3&#45;&gt;Node2 -->
<g id="edge2" class="edge">
<title>Node3&#45;&gt;Node2</title>
<path fill="none" stroke="#404040" d="M66.2279,-353.4883C66.3824,-338.2158 66.6278,-319.0806 67,-302 67.1618,-294.5769 67.3574,-286.8334 67.5703,-279.1027"/>
<polygon fill="none" stroke="#404040" points="67.5729,-279.0078 63.7464,-272.8956 67.9167,-267.0127 71.7431,-273.1248 67.5729,-279.0078"/>
<text text-anchor="middle" x="94" y="-321.5" font-family="Helvetica,sans-Serif" font-size="10.00" fill="#000000"> +peak3x3</text>
<text text-anchor="middle" x="94" y="-310.5" font-family="Helvetica,sans-Serif" font-size="10.00" fill="#000000">+wasSplit</text>
</g>
<!-- Node4 -->
<g id="node4" class="node">
<title>Node4</title>
<g id="a_node4"><a xlink:href="../../dd/d68/structGPUCA__NAMESPACE_1_1gpu_1_1ChargePos.html" target="_top" xlink:title="{GPUCA_NAMESPACE::gpu\l::ChargePos\n||+ GPUdDefault()\l+ GPUdi()\l+ GPUdi()\l+ timePadded()\l+ GPUdi()\l+ GPUdi()\l+ GPUdi()\l+ GPUdi()\l+ GPUdi()\l}">
<polygon fill="none" stroke="#000000" points="160,-127.5 160,-283.5 300,-283.5 300,-127.5 160,-127.5"/>
<text text-anchor="start" x="168" y="-271.5" font-family="Helvetica,sans-Serif" font-size="10.00" fill="#000000">GPUCA_NAMESPACE::gpu</text>
<text text-anchor="middle" x="230" y="-260.5" font-family="Helvetica,sans-Serif" font-size="10.00" fill="#000000">::ChargePos</text>
<polyline fill="none" stroke="#000000" points="160,-253.5 300,-253.5 "/>
<text text-anchor="middle" x="230" y="-241.5" font-family="Helvetica,sans-Serif" font-size="10.00" fill="#000000"> </text>
<polyline fill="none" stroke="#000000" points="160,-234.5 300,-234.5 "/>
<text text-anchor="start" x="168" y="-222.5" font-family="Helvetica,sans-Serif" font-size="10.00" fill="#000000">+ GPUdDefault()</text>
<text text-anchor="start" x="168" y="-211.5" font-family="Helvetica,sans-Serif" font-size="10.00" fill="#000000">+ GPUdi()</text>
<text text-anchor="start" x="168" y="-200.5" font-family="Helvetica,sans-Serif" font-size="10.00" fill="#000000">+ GPUdi()</text>
<text text-anchor="start" x="168" y="-189.5" font-family="Helvetica,sans-Serif" font-size="10.00" fill="#000000">+ timePadded()</text>
<text text-anchor="start" x="168" y="-178.5" font-family="Helvetica,sans-Serif" font-size="10.00" fill="#000000">+ GPUdi()</text>
<text text-anchor="start" x="168" y="-167.5" font-family="Helvetica,sans-Serif" font-size="10.00" fill="#000000">+ GPUdi()</text>
<text text-anchor="start" x="168" y="-156.5" font-family="Helvetica,sans-Serif" font-size="10.00" fill="#000000">+ GPUdi()</text>
<text text-anchor="start" x="168" y="-145.5" font-family="Helvetica,sans-Serif" font-size="10.00" fill="#000000">+ GPUdi()</text>
<text text-anchor="start" x="168" y="-134.5" font-family="Helvetica,sans-Serif" font-size="10.00" fill="#000000">+ GPUdi()</text>
</a>
</g>
</g>
<!-- Node4&#45;&gt;Node1 -->
<g id="edge3" class="edge">
<title>Node4&#45;&gt;Node1</title>
<path fill="none" stroke="#404040" d="M191.1612,-127.112C185.0761,-114.8304 178.9273,-102.4203 173.253,-90.968"/>
<polygon fill="none" stroke="#404040" points="173.0844,-90.6276 166.8364,-87.0272 167.7568,-79.875 174.0048,-83.4755 173.0844,-90.6276"/>
<text text-anchor="middle" x="210" y="-101" font-family="Helvetica,sans-Serif" font-size="10.00" fill="#000000"> +posBcast</text>
</g>
<!-- Node5 -->
<g id="node5" class="node">
<title>Node5</title>
<g id="a_node5"><a xlink:href="../../dc/d10/classshort.html" target="_top" xlink:title="{short\n||}">
<polygon fill="none" stroke="#000000" points="122.5,-353.5 122.5,-410.5 163.5,-410.5 163.5,-353.5 122.5,-353.5"/>
<text text-anchor="middle" x="143" y="-398.5" font-family="Helvetica,sans-Serif" font-size="10.00" fill="#000000">short</text>
<polyline fill="none" stroke="#000000" points="122.5,-391.5 163.5,-391.5 "/>
<text text-anchor="middle" x="143" y="-379.5" font-family="Helvetica,sans-Serif" font-size="10.00" fill="#000000"> </text>
<polyline fill="none" stroke="#000000" points="122.5,-372.5 163.5,-372.5 "/>
<text text-anchor="middle" x="143" y="-360.5" font-family="Helvetica,sans-Serif" font-size="10.00" fill="#000000"> </text>
</a>
</g>
</g>
<!-- Node5&#45;&gt;Node4 -->
<g id="edge4" class="edge">
<title>Node5&#45;&gt;Node4</title>
<path fill="none" stroke="#404040" d="M146.603,-353.3525C149.2652,-337.6952 153.7272,-318.2411 161,-302 162.1114,-299.5182 163.2916,-297.0357 164.5307,-294.5592"/>
<polygon fill="none" stroke="#404040" points="164.6477,-294.3404 163.9517,-287.163 170.3093,-283.7599 171.0054,-290.9374 164.6477,-294.3404"/>
<text text-anchor="middle" x="194.5" y="-327" font-family="Helvetica,sans-Serif" font-size="10.00" fill="#000000"> +gpad</text>
<text text-anchor="middle" x="194.5" y="-316" font-family="Helvetica,sans-Serif" font-size="10.00" fill="#000000">+t</text>
<text text-anchor="middle" x="194.5" y="-305" font-family="Helvetica,sans-Serif" font-size="10.00" fill="#000000">+timePadded</text>
</g>
<!-- Node6 -->
<g id="node6" class="node">
<title>Node6</title>
<polygon fill="none" stroke="#bfbfbf" points="211.5,-353.5 211.5,-410.5 254.5,-410.5 254.5,-353.5 211.5,-353.5"/>
<text text-anchor="middle" x="233" y="-398.5" font-family="Helvetica,sans-Serif" font-size="10.00" fill="#000000">const</text>
<polyline fill="none" stroke="#bfbfbf" points="211.5,-391.5 254.5,-391.5 "/>
<text text-anchor="middle" x="233" y="-379.5" font-family="Helvetica,sans-Serif" font-size="10.00" fill="#000000"> </text>
<polyline fill="none" stroke="#bfbfbf" points="211.5,-372.5 254.5,-372.5 "/>
<text text-anchor="middle" x="233" y="-360.5" font-family="Helvetica,sans-Serif" font-size="10.00" fill="#000000"> </text>
</g>
<!-- Node6&#45;&gt;Node4 -->
<g id="edge5" class="edge">
<title>Node6&#45;&gt;Node4</title>
<path fill="none" stroke="#404040" d="M232.5113,-353.2494C232.2421,-337.4081 231.8914,-316.7789 231.538,-295.9843"/>
<polygon fill="none" stroke="#404040" points="231.5342,-295.7548 227.4327,-289.8237 231.3301,-283.7565 235.4316,-289.6877 231.5342,-295.7548"/>
<text text-anchor="middle" x="241" y="-316" font-family="Helvetica,sans-Serif" font-size="10.00" fill="#000000"> +t</text>
</g>
<!-- Node7 -->
<g id="node7" class="node">
<title>Node7</title>
<polygon fill="none" stroke="#bfbfbf" points="272.5,-353.5 272.5,-410.5 333.5,-410.5 333.5,-353.5 272.5,-353.5"/>
<text text-anchor="middle" x="303" y="-398.5" font-family="Helvetica,sans-Serif" font-size="10.00" fill="#000000">unsigned</text>
<polyline fill="none" stroke="#bfbfbf" points="272.5,-391.5 333.5,-391.5 "/>
<text text-anchor="middle" x="303" y="-379.5" font-family="Helvetica,sans-Serif" font-size="10.00" fill="#000000"> </text>
<polyline fill="none" stroke="#bfbfbf" points="272.5,-372.5 333.5,-372.5 "/>
<text text-anchor="middle" x="303" y="-360.5" font-family="Helvetica,sans-Serif" font-size="10.00" fill="#000000"> </text>
</g>
<!-- Node7&#45;&gt;Node4 -->
<g id="edge6" class="edge">
<title>Node7&#45;&gt;Node4</title>
<path fill="none" stroke="#404040" d="M291.1088,-353.2494C284.465,-337.186 275.7851,-316.1996 267.0624,-295.1097"/>
<polygon fill="none" stroke="#404040" points="266.9532,-294.8455 260.9636,-290.8298 262.3667,-283.7565 268.3563,-287.7722 266.9532,-294.8455"/>
<text text-anchor="middle" x="298" y="-316" font-family="Helvetica,sans-Serif" font-size="10.00" fill="#000000"> +pad</text>
</g>
</g>
</svg>
