<?xml version="1.0" encoding="UTF-8" standalone="no"?>
<!DOCTYPE svg PUBLIC "-//W3C//DTD SVG 1.1//EN"
 "http://www.w3.org/Graphics/SVG/1.1/DTD/svg11.dtd">
<!-- Generated by graphviz version 2.40.1 (20161225.0304)
 -->
<!-- Title: /home/travis/build/AliceO2Group/AliceO2/Detectors/ITSMFT/common/reconstruction/include/ITSMFTReconstruction/DigitPixelReader.h Pages: 1 -->
<svg width="1740pt" height="452pt"
 viewBox="0.00 0.00 1739.50 452.00" xmlns="http://www.w3.org/2000/svg" xmlns:xlink="http://www.w3.org/1999/xlink">
<g id="graph0" class="graph" transform="scale(1 1) rotate(0) translate(4 448)">
<title>/home/travis/build/AliceO2Group/AliceO2/Detectors/ITSMFT/common/reconstruction/include/ITSMFTReconstruction/DigitPixelReader.h</title>
<!-- Node0 -->
<g id="node1" class="node">
<title>Node0</title>
<polygon fill="#bfbfbf" stroke="#000000" points="690.5,-369.5 690.5,-443.5 866.5,-443.5 866.5,-369.5 690.5,-369.5"/>
<text text-anchor="start" x="698.5" y="-431.5" font-family="Helvetica,sans-Serif" font-size="10.00" fill="#000000">/home/travis/build</text>
<text text-anchor="start" x="698.5" y="-420.5" font-family="Helvetica,sans-Serif" font-size="10.00" fill="#000000">/AliceO2Group/AliceO2</text>
<text text-anchor="start" x="698.5" y="-409.5" font-family="Helvetica,sans-Serif" font-size="10.00" fill="#000000">/Detectors/ITSMFT/common</text>
<text text-anchor="start" x="698.5" y="-398.5" font-family="Helvetica,sans-Serif" font-size="10.00" fill="#000000">/reconstruction/include</text>
<text text-anchor="start" x="698.5" y="-387.5" font-family="Helvetica,sans-Serif" font-size="10.00" fill="#000000">/ITSMFTReconstruction/DigitPixel</text>
<text text-anchor="middle" x="778.5" y="-376.5" font-family="Helvetica,sans-Serif" font-size="10.00" fill="#000000">Reader.h</text>
</g>
<!-- Node1 -->
<g id="node2" class="node">
<title>Node1</title>
<g id="a_node2"><a xlink:href="../../df/d2e/PixelReader_8h.html" target="_top" xlink:title="Abstract class for Alpide data reader class. ">
<polygon fill="none" stroke="#000000" points="414,-302.5 414,-332.5 537,-332.5 537,-302.5 414,-302.5"/>
<text text-anchor="start" x="422" y="-320.5" font-family="Helvetica,sans-Serif" font-size="10.00" fill="#000000">ITSMFTReconstruction</text>
<text text-anchor="middle" x="475.5" y="-309.5" font-family="Helvetica,sans-Serif" font-size="10.00" fill="#000000">/PixelReader.h</text>
</a>
</g>
</g>
<!-- Node0&#45;&gt;Node1 -->
<g id="edge1" class="edge">
<title>Node0&#45;&gt;Node1</title>
<path fill="none" stroke="#191970" d="M690.4528,-380.638C641.0699,-366.1327 580.7084,-348.4028 536.5361,-335.4281"/>
<polygon fill="#191970" stroke="#191970" points="537.3844,-332.0295 526.8034,-332.5693 535.4116,-338.7457 537.3844,-332.0295"/>
</g>
<!-- Node3 -->
<g id="node4" class="node">
<title>Node3</title>
<g id="a_node4"><a xlink:href="../../da/d8d/PixelData_8h.html" target="_top" xlink:title="Transient data classes for single pixel and set of pixels from current chip. ">
<polygon fill="none" stroke="#000000" points="196,-235.5 196,-265.5 319,-265.5 319,-235.5 196,-235.5"/>
<text text-anchor="start" x="204" y="-253.5" font-family="Helvetica,sans-Serif" font-size="10.00" fill="#000000">ITSMFTReconstruction</text>
<text text-anchor="middle" x="257.5" y="-242.5" font-family="Helvetica,sans-Serif" font-size="10.00" fill="#000000">/PixelData.h</text>
</a>
</g>
</g>
<!-- Node0&#45;&gt;Node3 -->
<g id="edge31" class="edge">
<title>Node0&#45;&gt;Node3</title>
<path fill="none" stroke="#191970" d="M690.3168,-401.907C605.6241,-394.9148 475.5492,-377.305 371.5,-333 337.0186,-318.3176 302.9272,-291.6078 281.1398,-272.557"/>
<polygon fill="#191970" stroke="#191970" points="283.2102,-269.7138 273.4168,-265.6716 278.5519,-274.9388 283.2102,-269.7138"/>
</g>
<!-- Node4 -->
<g id="node5" class="node">
<title>Node4</title>
<g id="a_node5"><a xlink:href="../../d3/d1e/DataFormats_2Detectors_2ITSMFT_2common_2include_2DataFormatsITSMFT_2Digit_8h.html" target="_top" xlink:title="DataFormatsITSMFT/Digit.h">
<polygon fill="none" stroke="#000000" points="0,-174 0,-193 149,-193 149,-174 0,-174"/>
<text text-anchor="middle" x="74.5" y="-181" font-family="Helvetica,sans-Serif" font-size="10.00" fill="#000000">DataFormatsITSMFT/Digit.h</text>
</a>
</g>
</g>
<!-- Node0&#45;&gt;Node4 -->
<g id="edge37" class="edge">
<title>Node0&#45;&gt;Node4</title>
<path fill="none" stroke="#191970" d="M690.1251,-401.0595C595.2513,-393.2634 441.0953,-374.9046 314.5,-333 223.5157,-302.883 131.7202,-231.7517 93.2683,-199.6803"/>
<polygon fill="#191970" stroke="#191970" points="95.382,-196.8842 85.4827,-193.1084 90.8668,-202.2333 95.382,-196.8842"/>
</g>
<!-- Node11 -->
<g id="node12" class="node">
<title>Node11</title>
<polygon fill="none" stroke="#bfbfbf" points="461,-174 461,-193 508,-193 508,-174 461,-174"/>
<text text-anchor="middle" x="484.5" y="-181" font-family="Helvetica,sans-Serif" font-size="10.00" fill="#000000">vector</text>
</g>
<!-- Node0&#45;&gt;Node11 -->
<g id="edge59" class="edge">
<title>Node0&#45;&gt;Node11</title>
<path fill="none" stroke="#191970" d="M690.3769,-401.697C591.6831,-394.2591 440.8675,-376.0168 405.5,-333 370.0949,-289.9375 430.6919,-228.4947 464.3416,-199.6386"/>
<polygon fill="#191970" stroke="#191970" points="466.8133,-202.1343 472.2412,-193.0354 462.3239,-196.7635 466.8133,-202.1343"/>
</g>
<!-- Node13 -->
<g id="node14" class="node">
<title>Node13</title>
<g id="a_node14"><a xlink:href="../../d7/dcd/MCCompLabel_8h.html" target="_top" xlink:title="SimulationDataFormat\l/MCCompLabel.h">
<polygon fill="none" stroke="#000000" points="490,-235.5 490,-265.5 617,-265.5 617,-235.5 490,-235.5"/>
<text text-anchor="start" x="498" y="-253.5" font-family="Helvetica,sans-Serif" font-size="10.00" fill="#000000">SimulationDataFormat</text>
<text text-anchor="middle" x="553.5" y="-242.5" font-family="Helvetica,sans-Serif" font-size="10.00" fill="#000000">/MCCompLabel.h</text>
</a>
</g>
</g>
<!-- Node0&#45;&gt;Node13 -->
<g id="edge57" class="edge">
<title>Node0&#45;&gt;Node13</title>
<path fill="none" stroke="#191970" d="M724.8928,-369.3323C680.7966,-338.759 619.889,-296.5297 583.8081,-271.5136"/>
<polygon fill="#191970" stroke="#191970" points="585.4075,-268.3636 575.1952,-265.542 581.419,-274.1162 585.4075,-268.3636"/>
</g>
<!-- Node15 -->
<g id="node16" class="node">
<title>Node15</title>
<g id="a_node16"><a xlink:href="../../db/d14/MCTruthContainer_8h.html" target="_top" xlink:title="Definition of a container to keep Monte Carlo truth external to simulation objects. ">
<polygon fill="none" stroke="#000000" points="902,-235.5 902,-265.5 1029,-265.5 1029,-235.5 902,-235.5"/>
<text text-anchor="start" x="910" y="-253.5" font-family="Helvetica,sans-Serif" font-size="10.00" fill="#000000">SimulationDataFormat</text>
<text text-anchor="middle" x="965.5" y="-242.5" font-family="Helvetica,sans-Serif" font-size="10.00" fill="#000000">/MCTruthContainer.h</text>
</a>
</g>
</g>
<!-- Node0&#45;&gt;Node15 -->
<g id="edge56" class="edge">
<title>Node0&#45;&gt;Node15</title>
<path fill="none" stroke="#191970" d="M830.7439,-369.445C846.0881,-358.1017 862.7138,-345.3508 877.5,-333 900.6367,-313.6741 925.5787,-289.9962 942.9799,-272.9716"/>
<polygon fill="#191970" stroke="#191970" points="945.7393,-275.1666 950.4108,-265.6572 940.8288,-270.1779 945.7393,-275.1666"/>
</g>
<!-- Node21 -->
<g id="node22" class="node">
<title>Node21</title>
<polygon fill="none" stroke="#bfbfbf" points="964.5,-174 964.5,-193 1022.5,-193 1022.5,-174 964.5,-174"/>
<text text-anchor="middle" x="993.5" y="-181" font-family="Helvetica,sans-Serif" font-size="10.00" fill="#000000">memory</text>
</g>
<!-- Node0&#45;&gt;Node21 -->
<g id="edge60" class="edge">
<title>Node0&#45;&gt;Node21</title>
<path fill="none" stroke="#191970" d="M866.596,-396.8238C946.4751,-382.8281 1059.691,-348.7435 1113.5,-266 1121.0112,-254.4497 1121.0817,-246.5042 1113.5,-235 1112.1922,-233.0156 1061.0841,-211.5234 1025.9952,-196.9383"/>
<polygon fill="#191970" stroke="#191970" points="1027.1556,-193.6304 1016.5778,-193.0296 1024.4722,-200.0957 1027.1556,-193.6304"/>
</g>
<!-- Node22 -->
<g id="node23" class="node">
<title>Node22</title>
<g id="a_node23"><a xlink:href="../../d0/dc6/ITSMFT_2common_2include_2DataFormatsITSMFT_2ROFRecord_8h.html" target="_top" xlink:title="DataFormatsITSMFT/ROFRecord.h">
<polygon fill="none" stroke="#000000" points="689,-308 689,-327 868,-327 868,-308 689,-308"/>
<text text-anchor="middle" x="778.5" y="-315" font-family="Helvetica,sans-Serif" font-size="10.00" fill="#000000">DataFormatsITSMFT/ROFRecord.h</text>
</a>
</g>
</g>
<!-- Node0&#45;&gt;Node22 -->
<g id="edge32" class="edge">
<title>Node0&#45;&gt;Node22</title>
<path fill="none" stroke="#191970" d="M778.5,-369.2717C778.5,-358.2996 778.5,-346.7213 778.5,-337.3031"/>
<polygon fill="#191970" stroke="#191970" points="782.0001,-337.0721 778.5,-327.0721 775.0001,-337.0721 782.0001,-337.0721"/>
</g>
<!-- Node24 -->
<g id="node25" class="node">
<title>Node24</title>
<polygon fill="none" stroke="#bfbfbf" points="1047,-241 1047,-260 1104,-260 1104,-241 1047,-241"/>
<text text-anchor="middle" x="1075.5" y="-248" font-family="Helvetica,sans-Serif" font-size="10.00" fill="#000000">gsl/span</text>
</g>
<!-- Node0&#45;&gt;Node24 -->
<g id="edge61" class="edge">
<title>Node0&#45;&gt;Node24</title>
<path fill="none" stroke="#191970" d="M849.2616,-369.3323C913.0403,-335.8324 1003.4621,-288.3381 1048.2214,-264.8281"/>
<polygon fill="#191970" stroke="#191970" points="1050.0825,-267.8041 1057.308,-260.0554 1046.8274,-261.607 1050.0825,-267.8041"/>
</g>
<!-- Node25 -->
<g id="node26" class="node">
<title>Node25</title>
<g id="a_node26"><a xlink:href="../../d6/d31/DetID_8h.html" target="_top" xlink:title="DetectorsCommonDataFormats\l/DetID.h">
<polygon fill="none" stroke="#000000" points="1161,-235.5 1161,-265.5 1332,-265.5 1332,-235.5 1161,-235.5"/>
<text text-anchor="start" x="1169" y="-253.5" font-family="Helvetica,sans-Serif" font-size="10.00" fill="#000000">DetectorsCommonDataFormats</text>
<text text-anchor="middle" x="1246.5" y="-242.5" font-family="Helvetica,sans-Serif" font-size="10.00" fill="#000000">/DetID.h</text>
</a>
</g>
</g>
<!-- Node0&#45;&gt;Node25 -->
<g id="edge38" class="edge">
<title>Node0&#45;&gt;Node25</title>
<path fill="none" stroke="#191970" d="M866.6885,-401.04C943.7159,-393.4944 1056.9029,-375.5607 1146.5,-333 1162.9384,-325.1914 1198.5143,-294.3257 1222.4889,-272.6501"/>
<polygon fill="#191970" stroke="#191970" points="1225.0888,-275.0166 1230.1303,-265.6981 1220.3781,-269.8388 1225.0888,-275.0166"/>
</g>
<!-- Node35 -->
<g id="node36" class="node">
<title>Node35</title>
<polygon fill="none" stroke="#bfbfbf" points="1198.5,-308 1198.5,-327 1250.5,-327 1250.5,-308 1198.5,-308"/>
<text text-anchor="middle" x="1224.5" y="-315" font-family="Helvetica,sans-Serif" font-size="10.00" fill="#000000">TTree.h</text>
</g>
<!-- Node0&#45;&gt;Node35 -->
<g id="edge58" class="edge">
<title>Node0&#45;&gt;Node35</title>
<path fill="none" stroke="#191970" d="M866.7136,-395.4767C949.7014,-383.9484 1076.9347,-363.2785 1184.5,-333 1187.0988,-332.2685 1189.7636,-331.4333 1192.4236,-330.5386"/>
<polygon fill="#191970" stroke="#191970" points="1193.6912,-333.8022 1201.9097,-327.1159 1191.3153,-327.2177 1193.6912,-333.8022"/>
</g>
<!-- Node2 -->
<g id="node3" class="node">
<title>Node2</title>
<polygon fill="none" stroke="#bfbfbf" points="507,-112.5 507,-131.5 566,-131.5 566,-112.5 507,-112.5"/>
<text text-anchor="middle" x="536.5" y="-119.5" font-family="Helvetica,sans-Serif" font-size="10.00" fill="#000000">Rtypes.h</text>
</g>
<!-- Node1&#45;&gt;Node2 -->
<g id="edge2" class="edge">
<title>Node1&#45;&gt;Node2</title>
<path fill="none" stroke="#191970" d="M473.5542,-302.4271C472.0104,-285.2723 471.5242,-256.8092 481.5,-235 490.9121,-214.423 506.3816,-218.7074 517.5,-199 527.6146,-181.0717 532.3954,-157.8232 534.6226,-141.5825"/>
<polygon fill="#191970" stroke="#191970" points="538.1035,-141.9494 535.7908,-131.6101 531.151,-141.135 538.1035,-141.9494"/>
</g>
<!-- Node1&#45;&gt;Node3 -->
<g id="edge3" class="edge">
<title>Node1&#45;&gt;Node3</title>
<path fill="none" stroke="#191970" d="M426.5765,-302.4639C394.0136,-292.456 351.0478,-279.2509 316.5781,-268.657"/>
<polygon fill="#191970" stroke="#191970" points="317.2238,-265.194 306.6368,-265.6017 315.1673,-271.8851 317.2238,-265.194"/>
</g>
<!-- Node6 -->
<g id="node7" class="node">
<title>Node6</title>
<g id="a_node7"><a xlink:href="../../d9/d80/InteractionRecord_8h.html" target="_top" xlink:title="CommonDataFormat/Interaction\lRecord.h">
<polygon fill="none" stroke="#000000" points="230.5,-168.5 230.5,-198.5 404.5,-198.5 404.5,-168.5 230.5,-168.5"/>
<text text-anchor="start" x="238.5" y="-186.5" font-family="Helvetica,sans-Serif" font-size="10.00" fill="#000000">CommonDataFormat/Interaction</text>
<text text-anchor="middle" x="317.5" y="-175.5" font-family="Helvetica,sans-Serif" font-size="10.00" fill="#000000">Record.h</text>
</a>
</g>
</g>
<!-- Node1&#45;&gt;Node6 -->
<g id="edge29" class="edge">
<title>Node1&#45;&gt;Node6</title>
<path fill="none" stroke="#191970" d="M457.6825,-302.389C429.7081,-278.6638 375.3611,-232.5721 343.1716,-205.2721"/>
<polygon fill="#191970" stroke="#191970" points="345.3852,-202.5602 335.4948,-198.7614 340.8575,-207.8988 345.3852,-202.5602"/>
</g>
<!-- Node1&#45;&gt;Node11 -->
<g id="edge30" class="edge">
<title>Node1&#45;&gt;Node11</title>
<path fill="none" stroke="#191970" d="M464.3049,-302.3419C453.5269,-285.829 439.8974,-258.6118 447.5,-235 451.5817,-222.3232 460.0676,-210.1274 467.884,-200.7887"/>
<polygon fill="#191970" stroke="#191970" points="470.7039,-202.8844 474.7286,-193.0837 465.4706,-198.2355 470.7039,-202.8844"/>
</g>
<!-- Node1&#45;&gt;Node13 -->
<g id="edge16" class="edge">
<title>Node1&#45;&gt;Node13</title>
<path fill="none" stroke="#191970" d="M493.1994,-302.2967C503.4714,-293.4733 516.5872,-282.2072 527.9616,-272.4368"/>
<polygon fill="#191970" stroke="#191970" points="530.5655,-274.8141 535.8706,-265.6432 526.0043,-269.5041 530.5655,-274.8141"/>
</g>
<!-- Node1&#45;&gt;Node15 -->
<g id="edge19" class="edge">
<title>Node1&#45;&gt;Node15</title>
<path fill="none" stroke="#191970" d="M537.2105,-311.5617C616.8219,-303.5261 759.7663,-287.83 891.9576,-266.0008"/>
<polygon fill="#191970" stroke="#191970" points="892.5719,-269.4468 901.8605,-264.3505 891.4211,-262.5421 892.5719,-269.4468"/>
</g>
<!-- Node3&#45;&gt;Node4 -->
<g id="edge4" class="edge">
<title>Node3&#45;&gt;Node4</title>
<path fill="none" stroke="#191970" d="M216.4312,-235.4639C184.525,-223.7824 140.7212,-207.7449 110.2488,-196.5884"/>
<polygon fill="#191970" stroke="#191970" points="111.056,-193.1567 100.4622,-193.0053 108.6493,-199.73 111.056,-193.1567"/>
</g>
<!-- Node3&#45;&gt;Node6 -->
<g id="edge7" class="edge">
<title>Node3&#45;&gt;Node6</title>
<path fill="none" stroke="#191970" d="M271.1149,-235.2967C278.7863,-226.7303 288.5196,-215.8614 297.0872,-206.2943"/>
<polygon fill="#191970" stroke="#191970" points="299.8751,-208.4276 303.939,-198.6432 294.6604,-203.7578 299.8751,-208.4276"/>
</g>
<!-- Node9 -->
<g id="node10" class="node">
<title>Node9</title>
<polygon fill="none" stroke="#bfbfbf" points="748.5,-112.5 748.5,-131.5 798.5,-131.5 798.5,-112.5 748.5,-112.5"/>
<text text-anchor="middle" x="773.5" y="-119.5" font-family="Helvetica,sans-Serif" font-size="10.00" fill="#000000">cstdint</text>
</g>
<!-- Node3&#45;&gt;Node9 -->
<g id="edge15" class="edge">
<title>Node3&#45;&gt;Node9</title>
<path fill="none" stroke="#191970" d="M319.1847,-235.5734C348.7313,-227.0821 384.0141,-214.9263 413.5,-199 432.9819,-188.4772 432.1664,-176.7645 452.5,-168 503.3783,-146.0698 665.7658,-130.6702 738.1253,-124.7223"/>
<polygon fill="#191970" stroke="#191970" points="738.4388,-128.2085 748.1241,-123.9137 737.8744,-121.2313 738.4388,-128.2085"/>
</g>
<!-- Node3&#45;&gt;Node11 -->
<g id="edge13" class="edge">
<title>Node3&#45;&gt;Node11</title>
<path fill="none" stroke="#191970" d="M319.3539,-235.6636C356.5426,-226.2455 404.6265,-213.1867 446.5,-199 448.4232,-198.3484 450.3892,-197.6498 452.3646,-196.9227"/>
<polygon fill="#191970" stroke="#191970" points="454.0989,-200.0048 462.1653,-193.1358 451.5759,-193.4753 454.0989,-200.0048"/>
</g>
<!-- Node12 -->
<g id="node13" class="node">
<title>Node12</title>
<polygon fill="none" stroke="#bfbfbf" points="167,-174 167,-193 212,-193 212,-174 167,-174"/>
<text text-anchor="middle" x="189.5" y="-181" font-family="Helvetica,sans-Serif" font-size="10.00" fill="#000000">utility</text>
</g>
<!-- Node3&#45;&gt;Node12 -->
<g id="edge14" class="edge">
<title>Node3&#45;&gt;Node12</title>
<path fill="none" stroke="#191970" d="M242.0697,-235.2967C231.475,-224.8578 217.4101,-210.9997 206.4946,-200.2446"/>
<polygon fill="#191970" stroke="#191970" points="208.7773,-197.5804 199.1976,-193.055 203.8644,-202.5666 208.7773,-197.5804"/>
</g>
<!-- Node4&#45;&gt;Node2 -->
<g id="edge5" class="edge">
<title>Node4&#45;&gt;Node2</title>
<path fill="none" stroke="#191970" d="M122.6891,-173.9624C134.0795,-171.8575 146.1992,-169.7392 157.5,-168 280.8767,-149.0125 427.8437,-133.0663 496.9184,-125.9629"/>
<polygon fill="#191970" stroke="#191970" points="497.3345,-129.4387 506.9267,-124.9397 496.6225,-122.475 497.3345,-129.4387"/>
</g>
<!-- Node5 -->
<g id="node6" class="node">
<title>Node5</title>
<polygon fill="none" stroke="#bfbfbf" points="49.5,-112.5 49.5,-131.5 99.5,-131.5 99.5,-112.5 49.5,-112.5"/>
<text text-anchor="middle" x="74.5" y="-119.5" font-family="Helvetica,sans-Serif" font-size="10.00" fill="#000000">climits</text>
</g>
<!-- Node4&#45;&gt;Node5 -->
<g id="edge6" class="edge">
<title>Node4&#45;&gt;Node5</title>
<path fill="none" stroke="#191970" d="M74.5,-173.8906C74.5,-165.3657 74.5,-152.6392 74.5,-141.9235"/>
<polygon fill="#191970" stroke="#191970" points="78.0001,-141.7448 74.5,-131.7449 71.0001,-141.7449 78.0001,-141.7448"/>
</g>
<!-- Node6&#45;&gt;Node2 -->
<g id="edge8" class="edge">
<title>Node6&#45;&gt;Node2</title>
<path fill="none" stroke="#191970" d="M371.0734,-168.4554C410.029,-157.5158 461.8935,-142.9511 497.0909,-133.0669"/>
<polygon fill="#191970" stroke="#191970" points="498.3172,-136.358 506.9985,-130.2847 496.4246,-129.6187 498.3172,-136.358"/>
</g>
<!-- Node7 -->
<g id="node8" class="node">
<title>Node7</title>
<polygon fill="none" stroke="#bfbfbf" points="164,-112.5 164,-131.5 213,-131.5 213,-112.5 164,-112.5"/>
<text text-anchor="middle" x="188.5" y="-119.5" font-family="Helvetica,sans-Serif" font-size="10.00" fill="#000000">iosfwd</text>
</g>
<!-- Node6&#45;&gt;Node7 -->
<g id="edge9" class="edge">
<title>Node6&#45;&gt;Node7</title>
<path fill="none" stroke="#191970" d="M285.943,-168.4554C265.0799,-158.509 237.9309,-145.5659 217.5902,-135.8686"/>
<polygon fill="#191970" stroke="#191970" points="219.0233,-132.6744 208.4904,-131.5303 216.0109,-138.9931 219.0233,-132.6744"/>
</g>
<!-- Node8 -->
<g id="node9" class="node">
<title>Node8</title>
<polygon fill="none" stroke="#bfbfbf" points="1311,-56.5 1311,-75.5 1358,-75.5 1358,-56.5 1311,-56.5"/>
<text text-anchor="middle" x="1334.5" y="-63.5" font-family="Helvetica,sans-Serif" font-size="10.00" fill="#000000">cmath</text>
</g>
<!-- Node6&#45;&gt;Node8 -->
<g id="edge10" class="edge">
<title>Node6&#45;&gt;Node8</title>
<path fill="none" stroke="#191970" d="M346.9904,-168.4194C382.0688,-151.3014 442.8876,-124.1788 498.5,-112 655.4131,-77.637 1164.5033,-68.3215 1300.7189,-66.4172"/>
<polygon fill="#191970" stroke="#191970" points="1300.9992,-69.9138 1310.9507,-66.2784 1300.9042,-62.9145 1300.9992,-69.9138"/>
</g>
<!-- Node6&#45;&gt;Node9 -->
<g id="edge11" class="edge">
<title>Node6&#45;&gt;Node9</title>
<path fill="none" stroke="#191970" d="M404.5271,-170.012C409.252,-169.3211 413.9331,-168.6462 418.5,-168 535.3699,-151.4627 674.2262,-134.1443 738.1182,-126.3062"/>
<polygon fill="#191970" stroke="#191970" points="738.5746,-129.7765 748.0751,-125.0871 737.7238,-122.8284 738.5746,-129.7765"/>
</g>
<!-- Node10 -->
<g id="node11" class="node">
<title>Node10</title>
<g id="a_node11"><a xlink:href="../../d4/dc6/LHCConstants_8h.html" target="_top" xlink:title="Header to collect LHC related constants. ">
<polygon fill="none" stroke="#000000" points="231.5,-112.5 231.5,-131.5 421.5,-131.5 421.5,-112.5 231.5,-112.5"/>
<text text-anchor="middle" x="326.5" y="-119.5" font-family="Helvetica,sans-Serif" font-size="10.00" fill="#000000">CommonConstants/LHCConstants.h</text>
</a>
</g>
</g>
<!-- Node6&#45;&gt;Node10 -->
<g id="edge12" class="edge">
<title>Node6&#45;&gt;Node10</title>
<path fill="none" stroke="#191970" d="M319.7247,-168.2977C320.8959,-160.2945 322.3462,-150.3843 323.6041,-141.7889"/>
<polygon fill="#191970" stroke="#191970" points="327.074,-142.2484 325.059,-131.8469 320.1478,-141.2347 327.074,-142.2484"/>
</g>
<!-- Node14 -->
<g id="node15" class="node">
<title>Node14</title>
<g id="a_node15"><a xlink:href="../../d2/d45/GPUCommonRtypes_8h.html" target="_top" xlink:title="GPUCommonRtypes.h">
<polygon fill="none" stroke="#000000" points="565,-174 565,-193 690,-193 690,-174 565,-174"/>
<text text-anchor="middle" x="627.5" y="-181" font-family="Helvetica,sans-Serif" font-size="10.00" fill="#000000">GPUCommonRtypes.h</text>
</a>
</g>
</g>
<!-- Node13&#45;&gt;Node14 -->
<g id="edge17" class="edge">
<title>Node13&#45;&gt;Node14</title>
<path fill="none" stroke="#191970" d="M570.2917,-235.2967C581.9332,-224.7564 597.4248,-210.7303 609.3509,-199.9323"/>
<polygon fill="#191970" stroke="#191970" points="611.8829,-202.3613 616.9467,-193.055 607.1846,-197.1722 611.8829,-202.3613"/>
</g>
<!-- Node14&#45;&gt;Node2 -->
<g id="edge18" class="edge">
<title>Node14&#45;&gt;Node2</title>
<path fill="none" stroke="#191970" d="M613.2813,-173.8906C598.8566,-164.1421 576.3024,-148.8994 559.364,-137.4521"/>
<polygon fill="#191970" stroke="#191970" points="560.8641,-134.2415 550.6189,-131.5419 556.9444,-140.0412 560.8641,-134.2415"/>
</g>
<!-- Node15&#45;&gt;Node9 -->
<g id="edge21" class="edge">
<title>Node15&#45;&gt;Node9</title>
<path fill="none" stroke="#191970" d="M960.566,-235.4455C953.7527,-216.9523 939.7243,-185.8446 917.5,-168 885.9682,-142.6821 840.2274,-131.177 808.8048,-126.0289"/>
<polygon fill="#191970" stroke="#191970" points="809.1477,-122.5412 798.7385,-124.516 808.1072,-129.4635 809.1477,-122.5412"/>
</g>
<!-- Node15&#45;&gt;Node11 -->
<g id="edge28" class="edge">
<title>Node15&#45;&gt;Node11</title>
<path fill="none" stroke="#191970" d="M901.8704,-236.5884C898.7073,-236.0229 895.5708,-235.4892 892.5,-235 744.1822,-211.3721 704.7843,-222.837 556.5,-199 543.9043,-196.9752 530.1901,-194.1743 518.1425,-191.5098"/>
<polygon fill="#191970" stroke="#191970" points="518.5802,-188.0204 508.0542,-189.2263 517.0348,-194.8477 518.5802,-188.0204"/>
</g>
<!-- Node15&#45;&gt;Node14 -->
<g id="edge20" class="edge">
<title>Node15&#45;&gt;Node14</title>
<path fill="none" stroke="#191970" d="M901.8179,-236.8813C898.6687,-236.2383 895.5494,-235.608 892.5,-235 806.9273,-217.9371 785.0485,-216.1836 699.5,-199 693.4122,-197.7772 687.0432,-196.4605 680.7187,-195.1296"/>
<polygon fill="#191970" stroke="#191970" points="681.3724,-191.6905 670.8636,-193.038 679.919,-198.538 681.3724,-191.6905"/>
</g>
<!-- Node16 -->
<g id="node17" class="node">
<title>Node16</title>
<polygon fill="none" stroke="#bfbfbf" points="1040.5,-174 1040.5,-193 1092.5,-193 1092.5,-174 1040.5,-174"/>
<text text-anchor="middle" x="1066.5" y="-181" font-family="Helvetica,sans-Serif" font-size="10.00" fill="#000000">cassert</text>
</g>
<!-- Node15&#45;&gt;Node16 -->
<g id="edge22" class="edge">
<title>Node15&#45;&gt;Node16</title>
<path fill="none" stroke="#191970" d="M988.1664,-235.4639C1004.6549,-224.526 1026.9004,-209.769 1043.4722,-198.7759"/>
<polygon fill="#191970" stroke="#191970" points="1045.6241,-201.5485 1052.0224,-193.1039 1041.7545,-195.7153 1045.6241,-201.5485"/>
</g>
<!-- Node17 -->
<g id="node18" class="node">
<title>Node17</title>
<polygon fill="none" stroke="#bfbfbf" points="777,-174 777,-193 842,-193 842,-174 777,-174"/>
<text text-anchor="middle" x="809.5" y="-181" font-family="Helvetica,sans-Serif" font-size="10.00" fill="#000000">stdexcept</text>
</g>
<!-- Node15&#45;&gt;Node17 -->
<g id="edge23" class="edge">
<title>Node15&#45;&gt;Node17</title>
<path fill="none" stroke="#191970" d="M930.4906,-235.4639C903.7262,-223.969 867.1411,-208.2561 841.2277,-197.1266"/>
<polygon fill="#191970" stroke="#191970" points="842.431,-193.8343 831.8614,-193.1039 839.6685,-200.2662 842.431,-193.8343"/>
</g>
<!-- Node18 -->
<g id="node19" class="node">
<title>Node18</title>
<polygon fill="none" stroke="#bfbfbf" points="860.5,-174 860.5,-193 908.5,-193 908.5,-174 860.5,-174"/>
<text text-anchor="middle" x="884.5" y="-181" font-family="Helvetica,sans-Serif" font-size="10.00" fill="#000000">gsl/gsl</text>
</g>
<!-- Node15&#45;&gt;Node18 -->
<g id="edge24" class="edge">
<title>Node15&#45;&gt;Node18</title>
<path fill="none" stroke="#191970" d="M947.1198,-235.2967C934.2546,-224.6551 917.0937,-210.4602 903.9904,-199.6217"/>
<polygon fill="#191970" stroke="#191970" points="905.9879,-196.7318 896.0515,-193.055 901.5263,-202.1257 905.9879,-196.7318"/>
</g>
<!-- Node19 -->
<g id="node20" class="node">
<title>Node19</title>
<polygon fill="none" stroke="#bfbfbf" points="1111,-174 1111,-193 1180,-193 1180,-174 1111,-174"/>
<text text-anchor="middle" x="1145.5" y="-181" font-family="Helvetica,sans-Serif" font-size="10.00" fill="#000000">type_traits</text>
</g>
<!-- Node15&#45;&gt;Node19 -->
<g id="edge25" class="edge">
<title>Node15&#45;&gt;Node19</title>
<path fill="none" stroke="#191970" d="M1005.8955,-235.4639C1037.2787,-223.7824 1080.3644,-207.7449 1110.3372,-196.5884"/>
<polygon fill="#191970" stroke="#191970" points="1111.8125,-199.7739 1119.9634,-193.0053 1109.3706,-193.2136 1111.8125,-199.7739"/>
</g>
<!-- Node20 -->
<g id="node21" class="node">
<title>Node20</title>
<polygon fill="none" stroke="#bfbfbf" points="708.5,-174 708.5,-193 758.5,-193 758.5,-174 708.5,-174"/>
<text text-anchor="middle" x="733.5" y="-181" font-family="Helvetica,sans-Serif" font-size="10.00" fill="#000000">cstring</text>
</g>
<!-- Node15&#45;&gt;Node20 -->
<g id="edge26" class="edge">
<title>Node15&#45;&gt;Node20</title>
<path fill="none" stroke="#191970" d="M901.7299,-236.5856C862.7764,-227.4093 812.2154,-214.2819 768.5,-199 766.6651,-198.3585 764.7925,-197.6613 762.9149,-196.9294"/>
<polygon fill="#191970" stroke="#191970" points="764.2132,-193.6789 753.6354,-193.0791 761.5305,-200.1444 764.2132,-193.6789"/>
</g>
<!-- Node15&#45;&gt;Node21 -->
<g id="edge27" class="edge">
<title>Node15&#45;&gt;Node21</title>
<path fill="none" stroke="#191970" d="M971.8536,-235.2967C975.9197,-225.5672 981.227,-212.8675 985.5687,-202.4784"/>
<polygon fill="#191970" stroke="#191970" points="988.8802,-203.6313 989.5069,-193.055 982.4215,-200.9321 988.8802,-203.6313"/>
</g>
<!-- Node22&#45;&gt;Node6 -->
<g id="edge35" class="edge">
<title>Node22&#45;&gt;Node6</title>
<path fill="none" stroke="#191970" d="M752.1718,-307.8717C728.4149,-298.6647 692.9372,-283.6038 664.5,-266 645.9676,-254.5277 646.3594,-243.9814 626.5,-235 589.5681,-218.2976 490.886,-203.5857 414.8832,-194.2088"/>
<polygon fill="#191970" stroke="#191970" points="415.141,-190.7144 404.7909,-192.9784 414.2938,-197.663 415.141,-190.7144"/>
</g>
<!-- Node23 -->
<g id="node24" class="node">
<title>Node23</title>
<g id="a_node24"><a xlink:href="../../de/d64/RangeReference_8h.html" target="_top" xlink:title="Class to refer to the 1st entry and N elements of some group in the continuous container. ">
<polygon fill="none" stroke="#000000" points="673.5,-241 673.5,-260 883.5,-260 883.5,-241 673.5,-241"/>
<text text-anchor="middle" x="778.5" y="-248" font-family="Helvetica,sans-Serif" font-size="10.00" fill="#000000">CommonDataFormat/RangeReference.h</text>
</a>
</g>
</g>
<!-- Node22&#45;&gt;Node23 -->
<g id="edge33" class="edge">
<title>Node22&#45;&gt;Node23</title>
<path fill="none" stroke="#191970" d="M778.5,-307.9005C778.5,-298.149 778.5,-282.7597 778.5,-270.3695"/>
<polygon fill="#191970" stroke="#191970" points="782.0001,-270.0816 778.5,-260.0817 775.0001,-270.0817 782.0001,-270.0816"/>
</g>
<!-- Node22&#45;&gt;Node24 -->
<g id="edge36" class="edge">
<title>Node22&#45;&gt;Node24</title>
<path fill="none" stroke="#191970" d="M845.9389,-307.9618C898.9695,-299.551 974.3511,-285.5717 1038.5,-266 1040.6649,-265.3395 1042.8765,-264.5969 1045.088,-263.8036"/>
<polygon fill="#191970" stroke="#191970" points="1046.5804,-266.9789 1054.638,-260.0996 1044.0491,-260.4526 1046.5804,-266.9789"/>
</g>
<!-- Node23&#45;&gt;Node14 -->
<g id="edge34" class="edge">
<title>Node23&#45;&gt;Node14</title>
<path fill="none" stroke="#191970" d="M756.8654,-240.9005C731.0757,-229.4574 687.7894,-210.2509 658.4603,-197.2374"/>
<polygon fill="#191970" stroke="#191970" points="659.6546,-193.9383 649.0945,-193.0817 656.8156,-200.3367 659.6546,-193.9383"/>
</g>
<!-- Node25&#45;&gt;Node2 -->
<g id="edge39" class="edge">
<title>Node25&#45;&gt;Node2</title>
<path fill="none" stroke="#191970" d="M1240.9403,-235.4813C1232.8835,-216.1026 1215.965,-183.0919 1189.5,-168 1162.7694,-152.7567 713.7774,-130.3764 576.2293,-123.8496"/>
<polygon fill="#191970" stroke="#191970" points="576.2802,-120.3482 566.1261,-123.3722 575.9498,-127.3404 576.2802,-120.3482"/>
</g>
<!-- Node25&#45;&gt;Node9 -->
<g id="edge43" class="edge">
<title>Node25&#45;&gt;Node9</title>
<path fill="none" stroke="#191970" d="M1246.8183,-235.3175C1246.3136,-216.3907 1242.322,-184.5236 1222.5,-168 1190.9226,-141.677 909.3993,-127.5992 808.9308,-123.3793"/>
<polygon fill="#191970" stroke="#191970" points="808.8261,-119.8721 798.6904,-122.9571 808.5377,-126.8661 808.8261,-119.8721"/>
</g>
<!-- Node25&#45;&gt;Node16 -->
<g id="edge42" class="edge">
<title>Node25&#45;&gt;Node16</title>
<path fill="none" stroke="#191970" d="M1202.1147,-235.4382C1173.5077,-225.5312 1135.6054,-212.0317 1102.5,-199 1100.8894,-198.366 1099.2433,-197.7049 1097.5849,-197.0285"/>
<polygon fill="#191970" stroke="#191970" points="1098.6864,-193.6954 1088.1102,-193.0666 1095.9859,-200.1536 1098.6864,-193.6954"/>
</g>
<!-- Node25&#45;&gt;Node19 -->
<g id="edge44" class="edge">
<title>Node25&#45;&gt;Node19</title>
<path fill="none" stroke="#191970" d="M1223.8336,-235.4639C1207.3451,-224.526 1185.0996,-209.769 1168.5278,-198.7759"/>
<polygon fill="#191970" stroke="#191970" points="1170.2455,-195.7153 1159.9776,-193.1039 1166.3759,-201.5485 1170.2455,-195.7153"/>
</g>
<!-- Node26 -->
<g id="node27" class="node">
<title>Node26</title>
<polygon fill="none" stroke="#bfbfbf" points="1267.5,-112.5 1267.5,-131.5 1309.5,-131.5 1309.5,-112.5 1267.5,-112.5"/>
<text text-anchor="middle" x="1288.5" y="-119.5" font-family="Helvetica,sans-Serif" font-size="10.00" fill="#000000">array</text>
</g>
<!-- Node25&#45;&gt;Node26 -->
<g id="edge40" class="edge">
<title>Node25&#45;&gt;Node26</title>
<path fill="none" stroke="#191970" d="M1286.0259,-235.4754C1301.8885,-227.2614 1318.5155,-215.3591 1327.5,-199 1334.1324,-186.9236 1332.2453,-180.9348 1327.5,-168 1323.4432,-156.9418 1315.4203,-146.7193 1307.7006,-138.7335"/>
<polygon fill="#191970" stroke="#191970" points="1309.8698,-135.9632 1300.24,-131.5451 1305.0128,-141.0041 1309.8698,-135.9632"/>
</g>
<!-- Node27 -->
<g id="node28" class="node">
<title>Node27</title>
<polygon fill="none" stroke="#bfbfbf" points="1274.5,-174 1274.5,-193 1318.5,-193 1318.5,-174 1274.5,-174"/>
<text text-anchor="middle" x="1296.5" y="-181" font-family="Helvetica,sans-Serif" font-size="10.00" fill="#000000">bitset</text>
</g>
<!-- Node25&#45;&gt;Node27 -->
<g id="edge41" class="edge">
<title>Node25&#45;&gt;Node27</title>
<path fill="none" stroke="#191970" d="M1257.8458,-235.2967C1265.4091,-225.1618 1275.3776,-211.804 1283.2969,-201.1921"/>
<polygon fill="#191970" stroke="#191970" points="1286.1936,-203.1626 1289.3694,-193.055 1280.5835,-198.976 1286.1936,-203.1626"/>
</g>
<!-- Node28 -->
<g id="node29" class="node">
<title>Node28</title>
<g id="a_node29"><a xlink:href="../../d9/d52/Common_2MathUtils_2include_2MathUtils_2Utils_8h.html" target="_top" xlink:title="MathUtils/Utils.h">
<polygon fill="none" stroke="#000000" points="1374.5,-174 1374.5,-193 1472.5,-193 1472.5,-174 1374.5,-174"/>
<text text-anchor="middle" x="1423.5" y="-181" font-family="Helvetica,sans-Serif" font-size="10.00" fill="#000000">MathUtils/Utils.h</text>
</a>
</g>
</g>
<!-- Node25&#45;&gt;Node28 -->
<g id="edge45" class="edge">
<title>Node25&#45;&gt;Node28</title>
<path fill="none" stroke="#191970" d="M1286.2223,-235.4639C1317.0824,-223.7824 1359.45,-207.7449 1388.9233,-196.5884"/>
<polygon fill="#191970" stroke="#191970" points="1390.2757,-199.8189 1398.389,-193.0053 1387.7975,-193.2722 1390.2757,-199.8189"/>
</g>
<!-- Node28&#45;&gt;Node8 -->
<g id="edge47" class="edge">
<title>Node28&#45;&gt;Node8</title>
<path fill="none" stroke="#191970" d="M1406.3351,-173.9762C1391.4971,-164.9405 1370.4521,-150.0754 1357.5,-132 1347.5732,-118.1466 1341.6157,-99.6277 1338.2602,-85.7326"/>
<polygon fill="#191970" stroke="#191970" points="1341.6374,-84.7909 1336.1007,-75.7579 1334.7959,-86.2721 1341.6374,-84.7909"/>
</g>
<!-- Node28&#45;&gt;Node26 -->
<g id="edge46" class="edge">
<title>Node28&#45;&gt;Node26</title>
<path fill="none" stroke="#191970" d="M1402.4063,-173.8906C1379.9173,-163.6457 1344.1082,-147.3326 1318.6476,-135.7339"/>
<polygon fill="#191970" stroke="#191970" points="1319.9968,-132.5025 1309.4456,-131.5419 1317.0948,-138.8727 1319.9968,-132.5025"/>
</g>
<!-- Node29 -->
<g id="node30" class="node">
<title>Node29</title>
<g id="a_node30"><a xlink:href="../../df/d21/GPUCommonDef_8h.html" target="_top" xlink:title="GPUCommonDef.h">
<polygon fill="none" stroke="#000000" points="1459,-56.5 1459,-75.5 1566,-75.5 1566,-56.5 1459,-56.5"/>
<text text-anchor="middle" x="1512.5" y="-63.5" font-family="Helvetica,sans-Serif" font-size="10.00" fill="#000000">GPUCommonDef.h</text>
</a>
</g>
</g>
<!-- Node28&#45;&gt;Node29 -->
<g id="edge48" class="edge">
<title>Node28&#45;&gt;Node29</title>
<path fill="none" stroke="#191970" d="M1441.2857,-173.9024C1456.3727,-164.917 1477.5681,-150.1677 1490.5,-132 1500.3375,-118.1795 1506.0027,-99.6574 1509.1125,-85.7528"/>
<polygon fill="#191970" stroke="#191970" points="1512.5802,-86.259 1511.0897,-75.7695 1505.7136,-84.899 1512.5802,-86.259"/>
</g>
<!-- Node32 -->
<g id="node33" class="node">
<title>Node32</title>
<g id="a_node33"><a xlink:href="../../d6/da2/GPUCommonMath_8h.html" target="_top" xlink:title="GPUCommonMath.h">
<polygon fill="none" stroke="#000000" points="1366,-112.5 1366,-131.5 1481,-131.5 1481,-112.5 1366,-112.5"/>
<text text-anchor="middle" x="1423.5" y="-119.5" font-family="Helvetica,sans-Serif" font-size="10.00" fill="#000000">GPUCommonMath.h</text>
</a>
</g>
</g>
<!-- Node28&#45;&gt;Node32 -->
<g id="edge51" class="edge">
<title>Node28&#45;&gt;Node32</title>
<path fill="none" stroke="#191970" d="M1423.5,-173.8906C1423.5,-165.3657 1423.5,-152.6392 1423.5,-141.9235"/>
<polygon fill="#191970" stroke="#191970" points="1427.0001,-141.7448 1423.5,-131.7449 1420.0001,-141.7449 1427.0001,-141.7448"/>
</g>
<!-- Node34 -->
<g id="node35" class="node">
<title>Node34</title>
<g id="a_node35"><a xlink:href="../../d6/d84/MathConstants_8h.html" target="_top" xlink:title="useful math constants ">
<polygon fill="none" stroke="#000000" points="1537.5,-112.5 1537.5,-131.5 1731.5,-131.5 1731.5,-112.5 1537.5,-112.5"/>
<text text-anchor="middle" x="1634.5" y="-119.5" font-family="Helvetica,sans-Serif" font-size="10.00" fill="#000000">CommonConstants/MathConstants.h</text>
</a>
</g>
</g>
<!-- Node28&#45;&gt;Node34 -->
<g id="edge55" class="edge">
<title>Node28&#45;&gt;Node34</title>
<path fill="none" stroke="#191970" d="M1456.4688,-173.8906C1493.0117,-163.2395 1552.0571,-146.0296 1592.035,-134.3772"/>
<polygon fill="#191970" stroke="#191970" points="1593.1417,-137.7004 1601.7628,-131.5419 1591.1828,-130.98 1593.1417,-137.7004"/>
</g>
<!-- Node30 -->
<g id="node31" class="node">
<title>Node30</title>
<g id="a_node31"><a xlink:href="../../d5/d93/GPUCommonDefSettings_8h.html" target="_top" xlink:title="GPUCommonDefSettings.h">
<polygon fill="none" stroke="#000000" points="1361.5,-.5 1361.5,-19.5 1509.5,-19.5 1509.5,-.5 1361.5,-.5"/>
<text text-anchor="middle" x="1435.5" y="-7.5" font-family="Helvetica,sans-Serif" font-size="10.00" fill="#000000">GPUCommonDefSettings.h</text>
</a>
</g>
</g>
<!-- Node29&#45;&gt;Node30 -->
<g id="edge49" class="edge">
<title>Node29&#45;&gt;Node30</title>
<path fill="none" stroke="#191970" d="M1499.0876,-56.2455C1487.4943,-47.814 1470.5252,-35.4729 1457.0322,-25.6598"/>
<polygon fill="#191970" stroke="#191970" points="1458.9047,-22.6938 1448.7587,-19.6427 1454.7874,-28.355 1458.9047,-22.6938"/>
</g>
<!-- Node31 -->
<g id="node32" class="node">
<title>Node31</title>
<g id="a_node32"><a xlink:href="../../da/d5a/GPUCommonDefAPI_8h.html" target="_top" xlink:title="GPUCommonDefAPI.h">
<polygon fill="none" stroke="#000000" points="1527.5,-.5 1527.5,-19.5 1651.5,-19.5 1651.5,-.5 1527.5,-.5"/>
<text text-anchor="middle" x="1589.5" y="-7.5" font-family="Helvetica,sans-Serif" font-size="10.00" fill="#000000">GPUCommonDefAPI.h</text>
</a>
</g>
</g>
<!-- Node29&#45;&gt;Node31 -->
<g id="edge50" class="edge">
<title>Node29&#45;&gt;Node31</title>
<path fill="none" stroke="#191970" d="M1525.9124,-56.2455C1537.5057,-47.814 1554.4748,-35.4729 1567.9678,-25.6598"/>
<polygon fill="#191970" stroke="#191970" points="1570.2126,-28.355 1576.2413,-19.6427 1566.0953,-22.6938 1570.2126,-28.355"/>
</g>
<!-- Node32&#45;&gt;Node8 -->
<g id="edge53" class="edge">
<title>Node32&#45;&gt;Node8</title>
<path fill="none" stroke="#191970" d="M1407.9974,-112.2455C1394.342,-103.6534 1374.2343,-91.0014 1358.5011,-81.1018"/>
<polygon fill="#191970" stroke="#191970" points="1360.1529,-78.006 1349.825,-75.6427 1356.4249,-83.9307 1360.1529,-78.006"/>
</g>
<!-- Node32&#45;&gt;Node29 -->
<g id="edge52" class="edge">
<title>Node32&#45;&gt;Node29</title>
<path fill="none" stroke="#191970" d="M1439.0026,-112.2455C1452.658,-103.6534 1472.7657,-91.0014 1488.4989,-81.1018"/>
<polygon fill="#191970" stroke="#191970" points="1490.5751,-83.9307 1497.175,-75.6427 1486.8471,-78.006 1490.5751,-83.9307"/>
</g>
<!-- Node33 -->
<g id="node34" class="node">
<title>Node33</title>
<polygon fill="none" stroke="#bfbfbf" points="1376.5,-56.5 1376.5,-75.5 1440.5,-75.5 1440.5,-56.5 1376.5,-56.5"/>
<text text-anchor="middle" x="1408.5" y="-63.5" font-family="Helvetica,sans-Serif" font-size="10.00" fill="#000000">algorithm</text>
</g>
<!-- Node32&#45;&gt;Node33 -->
<g id="edge54" class="edge">
<title>Node32&#45;&gt;Node33</title>
<path fill="none" stroke="#191970" d="M1420.8872,-112.2455C1418.9084,-104.8579 1416.1256,-94.4689 1413.6988,-85.4087"/>
<polygon fill="#191970" stroke="#191970" points="1417.0511,-84.3966 1411.0829,-75.6427 1410.2895,-86.2078 1417.0511,-84.3966"/>
</g>
</g>
</svg>
