<?xml version="1.0" encoding="UTF-8" standalone="no"?>
<!DOCTYPE svg PUBLIC "-//W3C//DTD SVG 1.1//EN"
 "http://www.w3.org/Graphics/SVG/1.1/DTD/svg11.dtd">
<!-- Generated by graphviz version 2.40.1 (20161225.0304)
 -->
<!-- Title: /home/travis/build/AliceO2Group/AliceO2/Detectors/Passive/include/DetectorsPassive/PassiveBase.h Pages: 1 -->
<svg width="1431pt" height="239pt"
 viewBox="0.00 0.00 1431.00 239.00" xmlns="http://www.w3.org/2000/svg" xmlns:xlink="http://www.w3.org/1999/xlink">
<g id="graph0" class="graph" transform="scale(1 1) rotate(0) translate(4 235)">
<title>/home/travis/build/AliceO2Group/AliceO2/Detectors/Passive/include/DetectorsPassive/PassiveBase.h</title>
<!-- Node2 -->
<g id="node1" class="node">
<title>Node2</title>
<polygon fill="#bfbfbf" stroke="#000000" points="647.5,-178.5 647.5,-230.5 823.5,-230.5 823.5,-178.5 647.5,-178.5"/>
<text text-anchor="start" x="655.5" y="-218.5" font-family="Helvetica,sans-Serif" font-size="10.00" fill="#000000">/home/travis/build</text>
<text text-anchor="start" x="655.5" y="-207.5" font-family="Helvetica,sans-Serif" font-size="10.00" fill="#000000">/AliceO2Group/AliceO2</text>
<text text-anchor="start" x="655.5" y="-196.5" font-family="Helvetica,sans-Serif" font-size="10.00" fill="#000000">/Detectors/Passive/include</text>
<text text-anchor="middle" x="735.5" y="-185.5" font-family="Helvetica,sans-Serif" font-size="10.00" fill="#000000">/DetectorsPassive/PassiveBase.h</text>
</g>
<!-- Node3 -->
<g id="node2" class="node">
<title>Node3</title>
<g id="a_node2"><a xlink:href="../../d9/da3/Absorber_8h.html" target="_top" xlink:title="/home/travis/build\l/AliceO2Group/AliceO2\l/Detectors/Passive/include\l/DetectorsPassive/Absorber.h">
<polygon fill="none" stroke="#000000" points="741.5,-89.5 741.5,-141.5 899.5,-141.5 899.5,-89.5 741.5,-89.5"/>
<text text-anchor="start" x="749.5" y="-129.5" font-family="Helvetica,sans-Serif" font-size="10.00" fill="#000000">/home/travis/build</text>
<text text-anchor="start" x="749.5" y="-118.5" font-family="Helvetica,sans-Serif" font-size="10.00" fill="#000000">/AliceO2Group/AliceO2</text>
<text text-anchor="start" x="749.5" y="-107.5" font-family="Helvetica,sans-Serif" font-size="10.00" fill="#000000">/Detectors/Passive/include</text>
<text text-anchor="middle" x="820.5" y="-96.5" font-family="Helvetica,sans-Serif" font-size="10.00" fill="#000000">/DetectorsPassive/Absorber.h</text>
</a>
</g>
</g>
<!-- Node2&#45;&gt;Node3 -->
<g id="edge1" class="edge">
<title>Node2&#45;&gt;Node3</title>
<path fill="none" stroke="#191970" d="M767.4916,-171.0029C776.8034,-161.2529 786.8332,-150.7511 795.6359,-141.5341"/>
<polygon fill="#191970" stroke="#191970" points="764.9187,-168.6293 760.5431,-178.2784 769.9809,-173.464 764.9187,-168.6293"/>
</g>
<!-- Node6 -->
<g id="node5" class="node">
<title>Node6</title>
<g id="a_node5"><a xlink:href="../../dc/ded/Compensator_8h.html" target="_top" xlink:title="/home/travis/build\l/AliceO2Group/AliceO2\l/Detectors/Passive/include\l/DetectorsPassive/Compensator.h">
<polygon fill="none" stroke="#000000" points="51.5,-89.5 51.5,-141.5 231.5,-141.5 231.5,-89.5 51.5,-89.5"/>
<text text-anchor="start" x="59.5" y="-129.5" font-family="Helvetica,sans-Serif" font-size="10.00" fill="#000000">/home/travis/build</text>
<text text-anchor="start" x="59.5" y="-118.5" font-family="Helvetica,sans-Serif" font-size="10.00" fill="#000000">/AliceO2Group/AliceO2</text>
<text text-anchor="start" x="59.5" y="-107.5" font-family="Helvetica,sans-Serif" font-size="10.00" fill="#000000">/Detectors/Passive/include</text>
<text text-anchor="middle" x="141.5" y="-96.5" font-family="Helvetica,sans-Serif" font-size="10.00" fill="#000000">/DetectorsPassive/Compensator.h</text>
</a>
</g>
</g>
<!-- Node2&#45;&gt;Node6 -->
<g id="edge4" class="edge">
<title>Node2&#45;&gt;Node6</title>
<path fill="none" stroke="#191970" d="M637.1728,-196.0592C536.8347,-186.5175 376.9183,-168.7416 240.5,-142 237.6191,-141.4353 234.6982,-140.8332 231.7546,-140.2011"/>
<polygon fill="#191970" stroke="#191970" points="637.0122,-199.5595 647.2965,-197.0132 637.6689,-192.5904 637.0122,-199.5595"/>
</g>
<!-- Node8 -->
<g id="node7" class="node">
<title>Node8</title>
<g id="a_node7"><a xlink:href="../../d8/d70/Dipole_8h.html" target="_top" xlink:title="/home/travis/build\l/AliceO2Group/AliceO2\l/Detectors/Passive/include\l/DetectorsPassive/Dipole.h">
<polygon fill="none" stroke="#000000" points="250,-89.5 250,-141.5 397,-141.5 397,-89.5 250,-89.5"/>
<text text-anchor="start" x="258" y="-129.5" font-family="Helvetica,sans-Serif" font-size="10.00" fill="#000000">/home/travis/build</text>
<text text-anchor="start" x="258" y="-118.5" font-family="Helvetica,sans-Serif" font-size="10.00" fill="#000000">/AliceO2Group/AliceO2</text>
<text text-anchor="start" x="258" y="-107.5" font-family="Helvetica,sans-Serif" font-size="10.00" fill="#000000">/Detectors/Passive/include</text>
<text text-anchor="middle" x="323.5" y="-96.5" font-family="Helvetica,sans-Serif" font-size="10.00" fill="#000000">/DetectorsPassive/Dipole.h</text>
</a>
</g>
</g>
<!-- Node2&#45;&gt;Node8 -->
<g id="edge7" class="edge">
<title>Node2&#45;&gt;Node8</title>
<path fill="none" stroke="#191970" d="M637.3156,-189.2228C571.312,-178.1426 482.6175,-161.6812 405.5,-142 402.7457,-141.2971 399.9485,-140.5525 397.13,-139.7764"/>
<polygon fill="#191970" stroke="#191970" points="636.857,-192.6945 647.2964,-190.8863 638.0079,-185.7898 636.857,-192.6945"/>
</g>
<!-- Node10 -->
<g id="node9" class="node">
<title>Node10</title>
<g id="a_node9"><a xlink:href="../../d2/d69/FrameStructure_8h.html" target="_top" xlink:title="/home/travis/build\l/AliceO2Group/AliceO2\l/Detectors/Passive/include\l/DetectorsPassive/FrameStructure.h">
<polygon fill="none" stroke="#000000" points="917.5,-89.5 917.5,-141.5 1107.5,-141.5 1107.5,-89.5 917.5,-89.5"/>
<text text-anchor="start" x="925.5" y="-129.5" font-family="Helvetica,sans-Serif" font-size="10.00" fill="#000000">/home/travis/build</text>
<text text-anchor="start" x="925.5" y="-118.5" font-family="Helvetica,sans-Serif" font-size="10.00" fill="#000000">/AliceO2Group/AliceO2</text>
<text text-anchor="start" x="925.5" y="-107.5" font-family="Helvetica,sans-Serif" font-size="10.00" fill="#000000">/Detectors/Passive/include</text>
<text text-anchor="middle" x="1012.5" y="-96.5" font-family="Helvetica,sans-Serif" font-size="10.00" fill="#000000">/DetectorsPassive/FrameStructure.h</text>
</a>
</g>
</g>
<!-- Node2&#45;&gt;Node10 -->
<g id="edge10" class="edge">
<title>Node2&#45;&gt;Node10</title>
<path fill="none" stroke="#191970" d="M826.6049,-175.228C860.3783,-164.3766 898.4273,-152.1515 931.264,-141.6011"/>
<polygon fill="#191970" stroke="#191970" points="825.1875,-172.0071 816.7375,-178.3984 827.3288,-178.6716 825.1875,-172.0071"/>
</g>
<!-- Node12 -->
<g id="node11" class="node">
<title>Node12</title>
<g id="a_node11"><a xlink:href="../../dd/db0/Magnet_8h.html" target="_top" xlink:title="/home/travis/build\l/AliceO2Group/AliceO2\l/Detectors/Passive/include\l/DetectorsPassive/Magnet.h">
<polygon fill="none" stroke="#000000" points="1125.5,-89.5 1125.5,-141.5 1277.5,-141.5 1277.5,-89.5 1125.5,-89.5"/>
<text text-anchor="start" x="1133.5" y="-129.5" font-family="Helvetica,sans-Serif" font-size="10.00" fill="#000000">/home/travis/build</text>
<text text-anchor="start" x="1133.5" y="-118.5" font-family="Helvetica,sans-Serif" font-size="10.00" fill="#000000">/AliceO2Group/AliceO2</text>
<text text-anchor="start" x="1133.5" y="-107.5" font-family="Helvetica,sans-Serif" font-size="10.00" fill="#000000">/Detectors/Passive/include</text>
<text text-anchor="middle" x="1201.5" y="-96.5" font-family="Helvetica,sans-Serif" font-size="10.00" fill="#000000">/DetectorsPassive/Magnet.h</text>
</a>
</g>
</g>
<!-- Node2&#45;&gt;Node12 -->
<g id="edge12" class="edge">
<title>Node2&#45;&gt;Node12</title>
<path fill="none" stroke="#191970" d="M833.7973,-192.2194C911.1788,-181.63 1021.4578,-164.4947 1116.5,-142 1119.358,-141.3236 1122.2599,-140.6016 1125.1836,-139.8445"/>
<polygon fill="#191970" stroke="#191970" points="833.0164,-188.7932 823.5778,-193.606 833.9576,-195.7296 833.0164,-188.7932"/>
</g>
<!-- Node14 -->
<g id="node13" class="node">
<title>Node14</title>
<g id="a_node13"><a xlink:href="../../d4/d5f/Pipe_8h.html" target="_top" xlink:title="/home/travis/build\l/AliceO2Group/AliceO2\l/Detectors/Passive/include\l/DetectorsPassive/Pipe.h">
<polygon fill="none" stroke="#000000" points="415,-89.5 415,-141.5 560,-141.5 560,-89.5 415,-89.5"/>
<text text-anchor="start" x="423" y="-129.5" font-family="Helvetica,sans-Serif" font-size="10.00" fill="#000000">/home/travis/build</text>
<text text-anchor="start" x="423" y="-118.5" font-family="Helvetica,sans-Serif" font-size="10.00" fill="#000000">/AliceO2Group/AliceO2</text>
<text text-anchor="start" x="423" y="-107.5" font-family="Helvetica,sans-Serif" font-size="10.00" fill="#000000">/Detectors/Passive/include</text>
<text text-anchor="middle" x="487.5" y="-96.5" font-family="Helvetica,sans-Serif" font-size="10.00" fill="#000000">/DetectorsPassive/Pipe.h</text>
</a>
</g>
</g>
<!-- Node2&#45;&gt;Node14 -->
<g id="edge14" class="edge">
<title>Node2&#45;&gt;Node14</title>
<path fill="none" stroke="#191970" d="M653.1536,-174.9483C623.1111,-164.1669 589.3777,-152.061 560.2312,-141.6011"/>
<polygon fill="#191970" stroke="#191970" points="652.173,-178.3149 662.7675,-178.3984 654.5375,-171.7263 652.173,-178.3149"/>
</g>
<!-- Node16 -->
<g id="node15" class="node">
<title>Node16</title>
<g id="a_node15"><a xlink:href="../../d3/d2f/Shil_8h.html" target="_top" xlink:title="/home/travis/build\l/AliceO2Group/AliceO2\l/Detectors/Passive/include\l/DetectorsPassive/Shil.h">
<polygon fill="none" stroke="#000000" points="578,-89.5 578,-141.5 723,-141.5 723,-89.5 578,-89.5"/>
<text text-anchor="start" x="586" y="-129.5" font-family="Helvetica,sans-Serif" font-size="10.00" fill="#000000">/home/travis/build</text>
<text text-anchor="start" x="586" y="-118.5" font-family="Helvetica,sans-Serif" font-size="10.00" fill="#000000">/AliceO2Group/AliceO2</text>
<text text-anchor="start" x="586" y="-107.5" font-family="Helvetica,sans-Serif" font-size="10.00" fill="#000000">/Detectors/Passive/include</text>
<text text-anchor="middle" x="650.5" y="-96.5" font-family="Helvetica,sans-Serif" font-size="10.00" fill="#000000">/DetectorsPassive/Shil.h</text>
</a>
</g>
</g>
<!-- Node2&#45;&gt;Node16 -->
<g id="edge17" class="edge">
<title>Node2&#45;&gt;Node16</title>
<path fill="none" stroke="#191970" d="M703.5084,-171.0029C694.1966,-161.2529 684.1668,-150.7511 675.3641,-141.5341"/>
<polygon fill="#191970" stroke="#191970" points="701.0191,-173.464 710.4569,-178.2784 706.0813,-168.6293 701.0191,-173.464"/>
</g>
<!-- Node18 -->
<g id="node17" class="node">
<title>Node18</title>
<g id="a_node17"><a xlink:href="../../d2/da7/PassiveBase_8cxx.html" target="_top" xlink:title="/home/travis/build\l/AliceO2Group/AliceO2\l/Detectors/Passive/src\l/PassiveBase.cxx">
<polygon fill="none" stroke="#000000" points="1296,-89.5 1296,-141.5 1423,-141.5 1423,-89.5 1296,-89.5"/>
<text text-anchor="start" x="1304" y="-129.5" font-family="Helvetica,sans-Serif" font-size="10.00" fill="#000000">/home/travis/build</text>
<text text-anchor="start" x="1304" y="-118.5" font-family="Helvetica,sans-Serif" font-size="10.00" fill="#000000">/AliceO2Group/AliceO2</text>
<text text-anchor="start" x="1304" y="-107.5" font-family="Helvetica,sans-Serif" font-size="10.00" fill="#000000">/Detectors/Passive/src</text>
<text text-anchor="middle" x="1359.5" y="-96.5" font-family="Helvetica,sans-Serif" font-size="10.00" fill="#000000">/PassiveBase.cxx</text>
</a>
</g>
</g>
<!-- Node2&#45;&gt;Node18 -->
<g id="edge20" class="edge">
<title>Node2&#45;&gt;Node18</title>
<path fill="none" stroke="#191970" d="M834.1001,-200.3077C945.2788,-193.9731 1130.8548,-178.5392 1286.5,-142 1289.519,-141.2913 1292.5847,-140.496 1295.6645,-139.6354"/>
<polygon fill="#191970" stroke="#191970" points="833.6983,-196.8245 823.9082,-200.8747 834.0873,-203.8137 833.6983,-196.8245"/>
</g>
<!-- Node4 -->
<g id="node3" class="node">
<title>Node4</title>
<g id="a_node3"><a xlink:href="../../d7/df8/GeometryTest_8cxx.html" target="_top" xlink:title="/home/travis/build\l/AliceO2Group/AliceO2\l/Detectors/MUON/MCH/Simulation\l/src/GeometryTest.cxx">
<polygon fill="none" stroke="#000000" points="290.5,-.5 290.5,-52.5 472.5,-52.5 472.5,-.5 290.5,-.5"/>
<text text-anchor="start" x="298.5" y="-40.5" font-family="Helvetica,sans-Serif" font-size="10.00" fill="#000000">/home/travis/build</text>
<text text-anchor="start" x="298.5" y="-29.5" font-family="Helvetica,sans-Serif" font-size="10.00" fill="#000000">/AliceO2Group/AliceO2</text>
<text text-anchor="start" x="298.5" y="-18.5" font-family="Helvetica,sans-Serif" font-size="10.00" fill="#000000">/Detectors/MUON/MCH/Simulation</text>
<text text-anchor="middle" x="381.5" y="-7.5" font-family="Helvetica,sans-Serif" font-size="10.00" fill="#000000">/src/GeometryTest.cxx</text>
</a>
</g>
</g>
<!-- Node3&#45;&gt;Node4 -->
<g id="edge2" class="edge">
<title>Node3&#45;&gt;Node4</title>
<path fill="none" stroke="#191970" d="M731.1552,-89.0755C620.0728,-65.4862 588.3813,-74.7807 481.5,-53 478.5962,-52.4083 475.6513,-51.7827 472.6827,-51.1302"/>
<polygon fill="#191970" stroke="#191970" points="730.5598,-92.5277 741.0741,-91.2235 732.0414,-85.6862 730.5598,-92.5277"/>
</g>
<!-- Node5 -->
<g id="node4" class="node">
<title>Node5</title>
<g id="a_node4"><a xlink:href="../../d5/df3/Absorber_8cxx.html" target="_top" xlink:title="/home/travis/build\l/AliceO2Group/AliceO2\l/Detectors/Passive/src\l/Absorber.cxx">
<polygon fill="none" stroke="#000000" points="781,-.5 781,-52.5 908,-52.5 908,-.5 781,-.5"/>
<text text-anchor="start" x="789" y="-40.5" font-family="Helvetica,sans-Serif" font-size="10.00" fill="#000000">/home/travis/build</text>
<text text-anchor="start" x="789" y="-29.5" font-family="Helvetica,sans-Serif" font-size="10.00" fill="#000000">/AliceO2Group/AliceO2</text>
<text text-anchor="start" x="789" y="-18.5" font-family="Helvetica,sans-Serif" font-size="10.00" fill="#000000">/Detectors/Passive/src</text>
<text text-anchor="middle" x="844.5" y="-7.5" font-family="Helvetica,sans-Serif" font-size="10.00" fill="#000000">/Absorber.cxx</text>
</a>
</g>
</g>
<!-- Node3&#45;&gt;Node5 -->
<g id="edge3" class="edge">
<title>Node3&#45;&gt;Node5</title>
<path fill="none" stroke="#191970" d="M830.2333,-79.4059C832.6592,-70.4097 835.2134,-60.9379 837.4796,-52.5341"/>
<polygon fill="#191970" stroke="#191970" points="826.7954,-78.712 827.571,-89.2784 833.554,-80.5346 826.7954,-78.712"/>
</g>
<!-- Node6&#45;&gt;Node4 -->
<g id="edge5" class="edge">
<title>Node6&#45;&gt;Node4</title>
<path fill="none" stroke="#191970" d="M221.5678,-85.8082C250.546,-75.0621 283.0308,-63.0157 311.115,-52.6011"/>
<polygon fill="#191970" stroke="#191970" points="220.0454,-82.6398 211.8863,-89.3984 222.4793,-89.203 220.0454,-82.6398"/>
</g>
<!-- Node7 -->
<g id="node6" class="node">
<title>Node7</title>
<g id="a_node6"><a xlink:href="../../d1/d9d/Compensator_8cxx.html" target="_top" xlink:title="/home/travis/build\l/AliceO2Group/AliceO2\l/Detectors/Passive/src\l/Compensator.cxx">
<polygon fill="none" stroke="#000000" points="0,-.5 0,-52.5 127,-52.5 127,-.5 0,-.5"/>
<text text-anchor="start" x="8" y="-40.5" font-family="Helvetica,sans-Serif" font-size="10.00" fill="#000000">/home/travis/build</text>
<text text-anchor="start" x="8" y="-29.5" font-family="Helvetica,sans-Serif" font-size="10.00" fill="#000000">/AliceO2Group/AliceO2</text>
<text text-anchor="start" x="8" y="-18.5" font-family="Helvetica,sans-Serif" font-size="10.00" fill="#000000">/Detectors/Passive/src</text>
<text text-anchor="middle" x="63.5" y="-7.5" font-family="Helvetica,sans-Serif" font-size="10.00" fill="#000000">/Compensator.cxx</text>
</a>
</g>
</g>
<!-- Node6&#45;&gt;Node7 -->
<g id="edge6" class="edge">
<title>Node6&#45;&gt;Node7</title>
<path fill="none" stroke="#191970" d="M111.8915,-81.7159C103.4177,-72.0472 94.3151,-61.6608 86.3164,-52.5341"/>
<polygon fill="#191970" stroke="#191970" points="109.296,-84.0648 118.5193,-89.2784 114.5604,-79.451 109.296,-84.0648"/>
</g>
<!-- Node8&#45;&gt;Node4 -->
<g id="edge8" class="edge">
<title>Node8&#45;&gt;Node4</title>
<path fill="none" stroke="#191970" d="M346.0793,-80.8525C352.219,-71.4313 358.7629,-61.3897 364.5339,-52.5341"/>
<polygon fill="#191970" stroke="#191970" points="343.1158,-78.9895 340.5882,-89.2784 348.9804,-82.8114 343.1158,-78.9895"/>
</g>
<!-- Node9 -->
<g id="node8" class="node">
<title>Node9</title>
<g id="a_node8"><a xlink:href="../../d7/d64/Dipole_8cxx.html" target="_top" xlink:title="/home/travis/build\l/AliceO2Group/AliceO2\l/Detectors/Passive/src\l/Dipole.cxx">
<polygon fill="none" stroke="#000000" points="145,-.5 145,-52.5 272,-52.5 272,-.5 145,-.5"/>
<text text-anchor="start" x="153" y="-40.5" font-family="Helvetica,sans-Serif" font-size="10.00" fill="#000000">/home/travis/build</text>
<text text-anchor="start" x="153" y="-29.5" font-family="Helvetica,sans-Serif" font-size="10.00" fill="#000000">/AliceO2Group/AliceO2</text>
<text text-anchor="start" x="153" y="-18.5" font-family="Helvetica,sans-Serif" font-size="10.00" fill="#000000">/Detectors/Passive/src</text>
<text text-anchor="middle" x="208.5" y="-7.5" font-family="Helvetica,sans-Serif" font-size="10.00" fill="#000000">/Dipole.cxx</text>
</a>
</g>
</g>
<!-- Node8&#45;&gt;Node9 -->
<g id="edge9" class="edge">
<title>Node8&#45;&gt;Node9</title>
<path fill="none" stroke="#191970" d="M281.6947,-83.1463C268.6858,-73.0786 254.5163,-62.1126 242.1396,-52.5341"/>
<polygon fill="#191970" stroke="#191970" points="279.5677,-85.926 289.6182,-89.2784 283.852,-80.3901 279.5677,-85.926"/>
</g>
<!-- Node11 -->
<g id="node10" class="node">
<title>Node11</title>
<g id="a_node10"><a xlink:href="../../de/da5/FrameStructure_8cxx.html" target="_top" xlink:title="/home/travis/build\l/AliceO2Group/AliceO2\l/Detectors/Passive/src\l/FrameStructure.cxx">
<polygon fill="none" stroke="#000000" points="949,-.5 949,-52.5 1076,-52.5 1076,-.5 949,-.5"/>
<text text-anchor="start" x="957" y="-40.5" font-family="Helvetica,sans-Serif" font-size="10.00" fill="#000000">/home/travis/build</text>
<text text-anchor="start" x="957" y="-29.5" font-family="Helvetica,sans-Serif" font-size="10.00" fill="#000000">/AliceO2Group/AliceO2</text>
<text text-anchor="start" x="957" y="-18.5" font-family="Helvetica,sans-Serif" font-size="10.00" fill="#000000">/Detectors/Passive/src</text>
<text text-anchor="middle" x="1012.5" y="-7.5" font-family="Helvetica,sans-Serif" font-size="10.00" fill="#000000">/FrameStructure.cxx</text>
</a>
</g>
</g>
<!-- Node10&#45;&gt;Node11 -->
<g id="edge11" class="edge">
<title>Node10&#45;&gt;Node11</title>
<path fill="none" stroke="#191970" d="M1012.5,-79.1155C1012.5,-70.2061 1012.5,-60.8475 1012.5,-52.5341"/>
<polygon fill="#191970" stroke="#191970" points="1009.0001,-79.2784 1012.5,-89.2784 1016.0001,-79.2785 1009.0001,-79.2784"/>
</g>
<!-- Node13 -->
<g id="node12" class="node">
<title>Node13</title>
<g id="a_node12"><a xlink:href="../../d9/d06/Magnet_8cxx.html" target="_top" xlink:title="/home/travis/build\l/AliceO2Group/AliceO2\l/Detectors/Passive/src\l/Magnet.cxx">
<polygon fill="none" stroke="#000000" points="1138,-.5 1138,-52.5 1265,-52.5 1265,-.5 1138,-.5"/>
<text text-anchor="start" x="1146" y="-40.5" font-family="Helvetica,sans-Serif" font-size="10.00" fill="#000000">/home/travis/build</text>
<text text-anchor="start" x="1146" y="-29.5" font-family="Helvetica,sans-Serif" font-size="10.00" fill="#000000">/AliceO2Group/AliceO2</text>
<text text-anchor="start" x="1146" y="-18.5" font-family="Helvetica,sans-Serif" font-size="10.00" fill="#000000">/Detectors/Passive/src</text>
<text text-anchor="middle" x="1201.5" y="-7.5" font-family="Helvetica,sans-Serif" font-size="10.00" fill="#000000">/Magnet.cxx</text>
</a>
</g>
</g>
<!-- Node12&#45;&gt;Node13 -->
<g id="edge13" class="edge">
<title>Node12&#45;&gt;Node13</title>
<path fill="none" stroke="#191970" d="M1201.5,-79.1155C1201.5,-70.2061 1201.5,-60.8475 1201.5,-52.5341"/>
<polygon fill="#191970" stroke="#191970" points="1198.0001,-79.2784 1201.5,-89.2784 1205.0001,-79.2785 1198.0001,-79.2784"/>
</g>
<!-- Node14&#45;&gt;Node4 -->
<g id="edge15" class="edge">
<title>Node14&#45;&gt;Node4</title>
<path fill="none" stroke="#191970" d="M448.2866,-82.5755C436.4834,-72.6653 423.6998,-61.9319 412.507,-52.5341"/>
<polygon fill="#191970" stroke="#191970" points="446.3607,-85.5286 456.2698,-89.2784 450.8619,-80.1677 446.3607,-85.5286"/>
</g>
<!-- Node15 -->
<g id="node14" class="node">
<title>Node15</title>
<g id="a_node14"><a xlink:href="../../d3/d29/Pipe_8cxx.html" target="_top" xlink:title="/home/travis/build\l/AliceO2Group/AliceO2\l/Detectors/Passive/src\l/Pipe.cxx">
<polygon fill="none" stroke="#000000" points="491,-.5 491,-52.5 618,-52.5 618,-.5 491,-.5"/>
<text text-anchor="start" x="499" y="-40.5" font-family="Helvetica,sans-Serif" font-size="10.00" fill="#000000">/home/travis/build</text>
<text text-anchor="start" x="499" y="-29.5" font-family="Helvetica,sans-Serif" font-size="10.00" fill="#000000">/AliceO2Group/AliceO2</text>
<text text-anchor="start" x="499" y="-18.5" font-family="Helvetica,sans-Serif" font-size="10.00" fill="#000000">/Detectors/Passive/src</text>
<text text-anchor="middle" x="554.5" y="-7.5" font-family="Helvetica,sans-Serif" font-size="10.00" fill="#000000">/Pipe.cxx</text>
</a>
</g>
</g>
<!-- Node14&#45;&gt;Node15 -->
<g id="edge16" class="edge">
<title>Node14&#45;&gt;Node15</title>
<path fill="none" stroke="#191970" d="M513.366,-81.1407C520.521,-71.6363 528.1667,-61.4801 534.9013,-52.5341"/>
<polygon fill="#191970" stroke="#191970" points="510.458,-79.1842 507.2398,-89.2784 516.0505,-83.3942 510.458,-79.1842"/>
</g>
<!-- Node16&#45;&gt;Node4 -->
<g id="edge18" class="edge">
<title>Node16&#45;&gt;Node4</title>
<path fill="none" stroke="#191970" d="M568.198,-88.27C533.9574,-76.9413 494.3747,-63.8452 460.4918,-52.6348"/>
<polygon fill="#191970" stroke="#191970" points="567.1114,-91.597 577.7047,-91.4153 569.3103,-84.9513 567.1114,-91.597"/>
</g>
<!-- Node17 -->
<g id="node16" class="node">
<title>Node17</title>
<g id="a_node16"><a xlink:href="../../d5/dcd/Shil_8cxx.html" target="_top" xlink:title="/home/travis/build\l/AliceO2Group/AliceO2\l/Detectors/Passive/src\l/Shil.cxx">
<polygon fill="none" stroke="#000000" points="636,-.5 636,-52.5 763,-52.5 763,-.5 636,-.5"/>
<text text-anchor="start" x="644" y="-40.5" font-family="Helvetica,sans-Serif" font-size="10.00" fill="#000000">/home/travis/build</text>
<text text-anchor="start" x="644" y="-29.5" font-family="Helvetica,sans-Serif" font-size="10.00" fill="#000000">/AliceO2Group/AliceO2</text>
<text text-anchor="start" x="644" y="-18.5" font-family="Helvetica,sans-Serif" font-size="10.00" fill="#000000">/Detectors/Passive/src</text>
<text text-anchor="middle" x="699.5" y="-7.5" font-family="Helvetica,sans-Serif" font-size="10.00" fill="#000000">/Shil.cxx</text>
</a>
</g>
</g>
<!-- Node16&#45;&gt;Node17 -->
<g id="edge19" class="edge">
<title>Node16&#45;&gt;Node17</title>
<path fill="none" stroke="#191970" d="M669.8936,-80.2749C674.9879,-71.0219 680.3906,-61.209 685.1666,-52.5341"/>
<polygon fill="#191970" stroke="#191970" points="666.6936,-78.8303 664.9366,-89.2784 672.8256,-82.2064 666.6936,-78.8303"/>
</g>
</g>
</svg>
