<?xml version="1.0" encoding="UTF-8" standalone="no"?>
<!DOCTYPE svg PUBLIC "-//W3C//DTD SVG 1.1//EN"
 "http://www.w3.org/Graphics/SVG/1.1/DTD/svg11.dtd">
<!-- Generated by graphviz version 2.40.1 (20161225.0304)
 -->
<!-- Title: /home/travis/build/AliceO2Group/AliceO2/Detectors/TRD/base/include/TRDBase/TRDGeometryFlat.h Pages: 1 -->
<!--zoomable 285 -->
<svg id="main" version="1.1" xmlns="http://www.w3.org/2000/svg" xmlns:xlink="http://www.w3.org/1999/xlink" xml:space="preserve" onload="init(evt)">
<style type="text/css"><![CDATA[
.edge:hover path { stroke: red; }
.edge:hover polygon { stroke: red; fill: red; }
]]></style>
<script type="text/javascript"><![CDATA[
var edges = document.getElementsByTagName('g');
if (edges && edges.length) {
  for (var i=0;i<edges.length;i++) {
    if (edges[i].id.substr(0,4)=='edge') {
      edges[i].setAttribute('class','edge');
    }
  }
}
]]></script>
        <defs>
                <circle id="rim" cx="0" cy="0" r="7"/>
                <circle id="rim2" cx="0" cy="0" r="3.5"/>
                <g id="zoomPlus">
                        <use xlink:href="#rim" fill="#404040">
                                <set attributeName="fill" to="#808080" begin="zoomplus.mouseover" end="zoomplus.mouseout"/>
                        </use>
                        <path d="M-4,0h8M0,-4v8" fill="none" stroke="white" stroke-width="1.5" pointer-events="none"/>
                </g>
                <g id="zoomMin">
                        <use xlink:href="#rim" fill="#404040">
                                <set attributeName="fill" to="#808080" begin="zoomminus.mouseover" end="zoomminus.mouseout"/>
                        </use>
                        <path d="M-4,0h8" fill="none" stroke="white" stroke-width="1.5" pointer-events="none"/>
                </g>
                <g id="dirArrow">
                        <path fill="none" stroke="white" stroke-width="1.5" d="M0,-3.0v7 M-2.5,-0.5L0,-3.0L2.5,-0.5"/>
                </g>
               <g id="resetDef">
                       <use xlink:href="#rim2" fill="#404040">
                               <set attributeName="fill" to="#808080" begin="reset.mouseover" end="reset.mouseout"/>
                       </use>
               </g>
        </defs>

<script type="text/javascript">
var viewWidth = 1016;
var viewHeight = 285;
var sectionId = 'dynsection-0';
</script>
<script xlink:href="../../svgpan.js"/>
<svg id="graph" class="graph">
<g id="viewport">
<title>/home/travis/build/AliceO2Group/AliceO2/Detectors/TRD/base/include/TRDBase/TRDGeometryFlat.h</title>
<!-- Node0 -->
<g id="node1" class="node">
<title>Node0</title>
<polygon fill="#bfbfbf" stroke="#000000" points="445.5,-224.5 445.5,-276.5 608.5,-276.5 608.5,-224.5 445.5,-224.5"/>
<text text-anchor="start" x="453.5" y="-264.5" font-family="Helvetica,sans-Serif" font-size="10.00" fill="#000000">/home/travis/build</text>
<text text-anchor="start" x="453.5" y="-253.5" font-family="Helvetica,sans-Serif" font-size="10.00" fill="#000000">/AliceO2Group/AliceO2</text>
<text text-anchor="start" x="453.5" y="-242.5" font-family="Helvetica,sans-Serif" font-size="10.00" fill="#000000">/Detectors/TRD/base/include</text>
<text text-anchor="middle" x="527" y="-231.5" font-family="Helvetica,sans-Serif" font-size="10.00" fill="#000000">/TRDBase/TRDGeometryFlat.h</text>
</g>
<!-- Node1 -->
<g id="node2" class="node">
<title>Node1</title>
<polygon fill="none" stroke="#bfbfbf" points="0,-112.5 0,-131.5 50,-131.5 50,-112.5 0,-112.5"/>
<text text-anchor="middle" x="25" y="-119.5" font-family="Helvetica,sans-Serif" font-size="10.00" fill="#000000">cstring</text>
</g>
<!-- Node0&#45;&gt;Node1 -->
<g id="edge1" class="edge">
<title>Node0&#45;&gt;Node1</title>
<path fill="none" stroke="#191970" d="M445.1689,-230.7802C353.6616,-208.5021 200.8612,-170.6259 59.9164,-132.1844"/>
<polygon fill="#191970" stroke="#191970" points="60.7896,-128.7947 50.2206,-129.5338 58.9437,-135.547 60.7896,-128.7947"/>
</g>
<!-- Node2 -->
<g id="node3" class="node">
<title>Node2</title>
<g id="a_node3"><a xlink:href="../../db/dff/FlatObject_8h.html" target="_top" xlink:title="Definition of FlatObject class. ">
<polygon fill="none" stroke="#000000" points="342.5,-168.5 342.5,-187.5 417.5,-187.5 417.5,-168.5 342.5,-168.5"/>
<text text-anchor="middle" x="380" y="-175.5" font-family="Helvetica,sans-Serif" font-size="10.00" fill="#000000">FlatObject.h</text>
</a>
</g>
</g>
<!-- Node0&#45;&gt;Node2 -->
<g id="edge2" class="edge">
<title>Node0&#45;&gt;Node2</title>
<path fill="none" stroke="#191970" d="M473.9296,-224.3258C451.7996,-213.4114 426.9855,-201.1731 408.4217,-192.0175"/>
<polygon fill="#191970" stroke="#191970" points="409.8477,-188.8183 399.331,-187.534 406.7514,-195.0963 409.8477,-188.8183"/>
</g>
<!-- Node7 -->
<g id="node8" class="node">
<title>Node7</title>
<g id="a_node8"><a xlink:href="../../df/d21/GPUCommonDef_8h.html" target="_top" xlink:title="GPUCommonDef.h">
<polygon fill="none" stroke="#000000" points="526.5,-56.5 526.5,-75.5 633.5,-75.5 633.5,-56.5 526.5,-56.5"/>
<text text-anchor="middle" x="580" y="-63.5" font-family="Helvetica,sans-Serif" font-size="10.00" fill="#000000">GPUCommonDef.h</text>
</a>
</g>
</g>
<!-- Node0&#45;&gt;Node7 -->
<g id="edge16" class="edge">
<title>Node0&#45;&gt;Node7</title>
<path fill="none" stroke="#191970" d="M506.6621,-224.2347C496.6889,-208.0826 488.1489,-186.923 495,-168 507.8853,-132.4102 539.2114,-100.5117 560.0205,-82.2114"/>
<polygon fill="#191970" stroke="#191970" points="562.3531,-84.822 567.6836,-75.6657 557.8066,-79.4994 562.3531,-84.822"/>
</g>
<!-- Node15 -->
<g id="node16" class="node">
<title>Node15</title>
<g id="a_node16"><a xlink:href="../../d0/d53/GPUCommonTransform3D_8h.html" target="_top" xlink:title="GPUCommonTransform3D.h">
<polygon fill="none" stroke="#000000" points="503.5,-168.5 503.5,-187.5 656.5,-187.5 656.5,-168.5 503.5,-168.5"/>
<text text-anchor="middle" x="580" y="-175.5" font-family="Helvetica,sans-Serif" font-size="10.00" fill="#000000">GPUCommonTransform3D.h</text>
</a>
</g>
</g>
<!-- Node0&#45;&gt;Node15 -->
<g id="edge17" class="edge">
<title>Node0&#45;&gt;Node15</title>
<path fill="none" stroke="#191970" d="M546.1342,-224.3258C553.0883,-214.8132 560.7774,-204.2951 567.069,-195.6886"/>
<polygon fill="#191970" stroke="#191970" points="569.9542,-197.6725 573.0303,-187.534 564.3032,-193.5414 569.9542,-197.6725"/>
</g>
<!-- Node16 -->
<g id="node17" class="node">
<title>Node16</title>
<g id="a_node17"><a xlink:href="../../d8/dad/TRDGeometryBase_8h.html" target="_top" xlink:title="TRDBase/TRDGeometryBase.h">
<polygon fill="none" stroke="#000000" points="675,-168.5 675,-187.5 841,-187.5 841,-168.5 675,-168.5"/>
<text text-anchor="middle" x="758" y="-175.5" font-family="Helvetica,sans-Serif" font-size="10.00" fill="#000000">TRDBase/TRDGeometryBase.h</text>
</a>
</g>
</g>
<!-- Node0&#45;&gt;Node16 -->
<g id="edge19" class="edge">
<title>Node0&#45;&gt;Node16</title>
<path fill="none" stroke="#191970" d="M608.767,-224.8372C645.7313,-213.2358 687.7484,-200.0486 717.7594,-190.6296"/>
<polygon fill="#191970" stroke="#191970" points="718.9591,-193.9215 727.4521,-187.5875 716.8629,-187.2427 718.9591,-193.9215"/>
</g>
<!-- Node18 -->
<g id="node19" class="node">
<title>Node18</title>
<g id="a_node19"><a xlink:href="../../de/df3/TRDPadPlane_8h.html" target="_top" xlink:title="TRDBase/TRDPadPlane.h">
<polygon fill="none" stroke="#000000" points="684.5,-112.5 684.5,-131.5 821.5,-131.5 821.5,-112.5 684.5,-112.5"/>
<text text-anchor="middle" x="753" y="-119.5" font-family="Helvetica,sans-Serif" font-size="10.00" fill="#000000">TRDBase/TRDPadPlane.h</text>
</a>
</g>
</g>
<!-- Node0&#45;&gt;Node18 -->
<g id="edge26" class="edge">
<title>Node0&#45;&gt;Node18</title>
<path fill="none" stroke="#191970" d="M608.6691,-246.2297C694.1189,-239.8511 819.9664,-224.4022 850,-188 869.2901,-164.6195 833.3776,-146.1194 799.922,-134.7261"/>
<polygon fill="#191970" stroke="#191970" points="800.7336,-131.3101 790.1418,-131.562 798.5789,-137.9703 800.7336,-131.3101"/>
</g>
<!-- Node2&#45;&gt;Node1 -->
<g id="edge5" class="edge">
<title>Node2&#45;&gt;Node1</title>
<path fill="none" stroke="#191970" d="M342.1284,-174.3559C283.5938,-168.3371 167.5251,-154.867 60.1735,-132.0028"/>
<polygon fill="#191970" stroke="#191970" points="60.6609,-128.5273 50.147,-129.8339 59.1809,-135.3691 60.6609,-128.5273"/>
</g>
<!-- Node3 -->
<g id="node4" class="node">
<title>Node3</title>
<polygon fill="none" stroke="#bfbfbf" points="422.5,-112.5 422.5,-131.5 475.5,-131.5 475.5,-112.5 422.5,-112.5"/>
<text text-anchor="middle" x="449" y="-119.5" font-family="Helvetica,sans-Serif" font-size="10.00" fill="#000000">cstddef</text>
</g>
<!-- Node2&#45;&gt;Node3 -->
<g id="edge3" class="edge">
<title>Node2&#45;&gt;Node3</title>
<path fill="none" stroke="#191970" d="M392.0189,-168.2455C402.2098,-159.9746 417.0362,-147.9416 429.0107,-138.2232"/>
<polygon fill="#191970" stroke="#191970" points="431.5598,-140.662 437.1188,-131.6427 427.1486,-135.2268 431.5598,-140.662"/>
</g>
<!-- Node4 -->
<g id="node5" class="node">
<title>Node4</title>
<polygon fill="none" stroke="#bfbfbf" points="68,-112.5 68,-131.5 126,-131.5 126,-112.5 68,-112.5"/>
<text text-anchor="middle" x="97" y="-119.5" font-family="Helvetica,sans-Serif" font-size="10.00" fill="#000000">memory</text>
</g>
<!-- Node2&#45;&gt;Node4 -->
<g id="edge4" class="edge">
<title>Node2&#45;&gt;Node4</title>
<path fill="none" stroke="#191970" d="M342.4723,-171.8154C296.2279,-164.0053 215.0502,-149.6827 136.4724,-132.2192"/>
<polygon fill="#191970" stroke="#191970" points="136.931,-128.7351 126.4074,-129.9615 135.3988,-135.5654 136.931,-128.7351"/>
</g>
<!-- Node5 -->
<g id="node6" class="node">
<title>Node5</title>
<polygon fill="none" stroke="#bfbfbf" points="144,-112.5 144,-131.5 196,-131.5 196,-112.5 144,-112.5"/>
<text text-anchor="middle" x="170" y="-119.5" font-family="Helvetica,sans-Serif" font-size="10.00" fill="#000000">cassert</text>
</g>
<!-- Node2&#45;&gt;Node5 -->
<g id="edge6" class="edge">
<title>Node2&#45;&gt;Node5</title>
<path fill="none" stroke="#191970" d="M343.3033,-168.4408C308.0644,-159.2277 253.3478,-144.8342 206,-132 205.9022,-131.9735 205.8042,-131.9469 205.7061,-131.9203"/>
<polygon fill="#191970" stroke="#191970" points="206.9048,-128.6197 196.3356,-129.3563 205.0573,-135.3715 206.9048,-128.6197"/>
</g>
<!-- Node6 -->
<g id="node7" class="node">
<title>Node6</title>
<polygon fill="none" stroke="#bfbfbf" points="356,-112.5 356,-131.5 404,-131.5 404,-112.5 356,-112.5"/>
<text text-anchor="middle" x="380" y="-119.5" font-family="Helvetica,sans-Serif" font-size="10.00" fill="#000000">TFile.h</text>
</g>
<!-- Node2&#45;&gt;Node6 -->
<g id="edge7" class="edge">
<title>Node2&#45;&gt;Node6</title>
<path fill="none" stroke="#191970" d="M380,-168.2455C380,-160.9382 380,-150.6944 380,-141.7046"/>
<polygon fill="#191970" stroke="#191970" points="383.5001,-141.6426 380,-131.6427 376.5001,-141.6427 383.5001,-141.6426"/>
</g>
<!-- Node2&#45;&gt;Node7 -->
<g id="edge8" class="edge">
<title>Node2&#45;&gt;Node7</title>
<path fill="none" stroke="#191970" d="M405.6979,-168.3677C427.3759,-159.8625 458.9469,-146.5746 485,-132 512.0834,-116.849 541.0847,-95.9412 559.8204,-81.7469"/>
<polygon fill="#191970" stroke="#191970" points="562.0905,-84.4169 567.9012,-75.5577 557.834,-78.8597 562.0905,-84.4169"/>
</g>
<!-- Node10 -->
<g id="node11" class="node">
<title>Node10</title>
<g id="a_node11"><a xlink:href="../../d2/d45/GPUCommonRtypes_8h.html" target="_top" xlink:title="GPUCommonRtypes.h">
<polygon fill="none" stroke="#000000" points="690.5,-56.5 690.5,-75.5 815.5,-75.5 815.5,-56.5 690.5,-56.5"/>
<text text-anchor="middle" x="753" y="-63.5" font-family="Helvetica,sans-Serif" font-size="10.00" fill="#000000">GPUCommonRtypes.h</text>
</a>
</g>
</g>
<!-- Node2&#45;&gt;Node10 -->
<g id="edge11" class="edge">
<title>Node2&#45;&gt;Node10</title>
<path fill="none" stroke="#191970" d="M411.8018,-168.4509C479.2439,-148.2002 636.5745,-100.9589 711.6759,-78.4083"/>
<polygon fill="#191970" stroke="#191970" points="712.7077,-81.7529 721.2787,-75.5249 710.6946,-75.0486 712.7077,-81.7529"/>
</g>
<!-- Node12 -->
<g id="node13" class="node">
<title>Node12</title>
<g id="a_node13"><a xlink:href="../../df/d5b/GPUCommonLogger_8h.html" target="_top" xlink:title="GPUCommonLogger.h">
<polygon fill="none" stroke="#000000" points="214.5,-112.5 214.5,-131.5 337.5,-131.5 337.5,-112.5 214.5,-112.5"/>
<text text-anchor="middle" x="276" y="-119.5" font-family="Helvetica,sans-Serif" font-size="10.00" fill="#000000">GPUCommonLogger.h</text>
</a>
</g>
</g>
<!-- Node2&#45;&gt;Node12 -->
<g id="edge13" class="edge">
<title>Node2&#45;&gt;Node12</title>
<path fill="none" stroke="#191970" d="M361.8846,-168.2455C345.555,-159.4527 321.329,-146.4079 302.7661,-136.4125"/>
<polygon fill="#191970" stroke="#191970" points="304.3719,-133.3021 293.9078,-131.6427 301.0532,-139.4654 304.3719,-133.3021"/>
</g>
<!-- Node8 -->
<g id="node9" class="node">
<title>Node8</title>
<g id="a_node9"><a xlink:href="../../d5/d93/GPUCommonDefSettings_8h.html" target="_top" xlink:title="GPUCommonDefSettings.h">
<polygon fill="none" stroke="#000000" points="531,-.5 531,-19.5 679,-19.5 679,-.5 531,-.5"/>
<text text-anchor="middle" x="605" y="-7.5" font-family="Helvetica,sans-Serif" font-size="10.00" fill="#000000">GPUCommonDefSettings.h</text>
</a>
</g>
</g>
<!-- Node7&#45;&gt;Node8 -->
<g id="edge9" class="edge">
<title>Node7&#45;&gt;Node8</title>
<path fill="none" stroke="#191970" d="M584.3547,-56.2455C587.7244,-48.6973 592.493,-38.0158 596.5983,-28.8197"/>
<polygon fill="#191970" stroke="#191970" points="599.8147,-30.2009 600.6952,-19.6427 593.4227,-27.3473 599.8147,-30.2009"/>
</g>
<!-- Node9 -->
<g id="node10" class="node">
<title>Node9</title>
<g id="a_node10"><a xlink:href="../../da/d5a/GPUCommonDefAPI_8h.html" target="_top" xlink:title="GPUCommonDefAPI.h">
<polygon fill="none" stroke="#000000" points="389,-.5 389,-19.5 513,-19.5 513,-.5 389,-.5"/>
<text text-anchor="middle" x="451" y="-7.5" font-family="Helvetica,sans-Serif" font-size="10.00" fill="#000000">GPUCommonDefAPI.h</text>
</a>
</g>
</g>
<!-- Node7&#45;&gt;Node9 -->
<g id="edge10" class="edge">
<title>Node7&#45;&gt;Node9</title>
<path fill="none" stroke="#191970" d="M557.8241,-56.3733C537.0234,-47.3435 505.7083,-33.7494 482.3542,-23.6111"/>
<polygon fill="#191970" stroke="#191970" points="483.4532,-20.2727 472.8865,-19.5011 480.6657,-26.6938 483.4532,-20.2727"/>
</g>
<!-- Node11 -->
<g id="node12" class="node">
<title>Node11</title>
<polygon fill="none" stroke="#bfbfbf" points="723.5,-.5 723.5,-19.5 782.5,-19.5 782.5,-.5 723.5,-.5"/>
<text text-anchor="middle" x="753" y="-7.5" font-family="Helvetica,sans-Serif" font-size="10.00" fill="#000000">Rtypes.h</text>
</g>
<!-- Node10&#45;&gt;Node11 -->
<g id="edge12" class="edge">
<title>Node10&#45;&gt;Node11</title>
<path fill="none" stroke="#191970" d="M753,-56.2455C753,-48.9382 753,-38.6944 753,-29.7046"/>
<polygon fill="#191970" stroke="#191970" points="756.5001,-29.6426 753,-19.6427 749.5001,-29.6427 756.5001,-29.6426"/>
</g>
<!-- Node13 -->
<g id="node14" class="node">
<title>Node13</title>
<polygon fill="none" stroke="#bfbfbf" points="210,-56.5 210,-75.5 270,-75.5 270,-56.5 210,-56.5"/>
<text text-anchor="middle" x="240" y="-63.5" font-family="Helvetica,sans-Serif" font-size="10.00" fill="#000000">iostream</text>
</g>
<!-- Node12&#45;&gt;Node13 -->
<g id="edge14" class="edge">
<title>Node12&#45;&gt;Node13</title>
<path fill="none" stroke="#191970" d="M269.7293,-112.2455C264.7736,-104.5367 257.717,-93.5598 251.7224,-84.2348"/>
<polygon fill="#191970" stroke="#191970" points="254.5506,-82.1618 246.1989,-75.6427 248.6624,-85.9471 254.5506,-82.1618"/>
</g>
<!-- Node14 -->
<g id="node15" class="node">
<title>Node14</title>
<polygon fill="none" stroke="#bfbfbf" points="288,-56.5 288,-75.5 334,-75.5 334,-56.5 288,-56.5"/>
<text text-anchor="middle" x="311" y="-63.5" font-family="Helvetica,sans-Serif" font-size="10.00" fill="#000000">cstdio</text>
</g>
<!-- Node12&#45;&gt;Node14 -->
<g id="edge15" class="edge">
<title>Node12&#45;&gt;Node14</title>
<path fill="none" stroke="#191970" d="M282.0965,-112.2455C286.9145,-104.5367 293.7751,-93.5598 299.6032,-84.2348"/>
<polygon fill="#191970" stroke="#191970" points="302.6413,-85.9777 304.9733,-75.6427 296.7053,-82.2677 302.6413,-85.9777"/>
</g>
<!-- Node15&#45;&gt;Node7 -->
<g id="edge18" class="edge">
<title>Node15&#45;&gt;Node7</title>
<path fill="none" stroke="#191970" d="M580,-168.4509C580,-150.184 580,-109.9553 580,-85.6976"/>
<polygon fill="#191970" stroke="#191970" points="583.5001,-85.5249 580,-75.5249 576.5001,-85.5249 583.5001,-85.5249"/>
</g>
<!-- Node16&#45;&gt;Node7 -->
<g id="edge20" class="edge">
<title>Node16&#45;&gt;Node7</title>
<path fill="none" stroke="#191970" d="M739.8105,-168.4127C723.0094,-159.413 697.4797,-145.3699 676,-132 649.7627,-115.6688 620.6451,-95.3197 601.4329,-81.5673"/>
<polygon fill="#191970" stroke="#191970" points="603.2623,-78.5717 593.101,-75.5718 599.1737,-84.2536 603.2623,-78.5717"/>
</g>
<!-- Node17 -->
<g id="node18" class="node">
<title>Node17</title>
<g id="a_node18"><a xlink:href="../../da/d32/TRDCommonParam_8h.html" target="_top" xlink:title="TRDBase/TRDCommonParam.h">
<polygon fill="none" stroke="#000000" points="840,-112.5 840,-131.5 1008,-131.5 1008,-112.5 840,-112.5"/>
<text text-anchor="middle" x="924" y="-119.5" font-family="Helvetica,sans-Serif" font-size="10.00" fill="#000000">TRDBase/TRDCommonParam.h</text>
</a>
</g>
</g>
<!-- Node16&#45;&gt;Node17 -->
<g id="edge21" class="edge">
<title>Node16&#45;&gt;Node17</title>
<path fill="none" stroke="#191970" d="M786.5364,-168.3733C814.0202,-159.1016 855.7686,-145.0178 886.0452,-134.804"/>
<polygon fill="#191970" stroke="#191970" points="887.4794,-138.0141 895.836,-131.5011 885.2418,-131.3813 887.4794,-138.0141"/>
</g>
<!-- Node16&#45;&gt;Node18 -->
<g id="edge23" class="edge">
<title>Node16&#45;&gt;Node18</title>
<path fill="none" stroke="#191970" d="M757.1291,-168.2455C756.4766,-160.9382 755.562,-150.6944 754.7593,-141.7046"/>
<polygon fill="#191970" stroke="#191970" points="758.2365,-141.2918 753.861,-131.6427 751.2642,-141.9143 758.2365,-141.2918"/>
</g>
<!-- Node17&#45;&gt;Node10 -->
<g id="edge22" class="edge">
<title>Node17&#45;&gt;Node10</title>
<path fill="none" stroke="#191970" d="M894.6041,-112.3733C866.1693,-103.0613 822.9123,-88.8953 791.6919,-78.671"/>
<polygon fill="#191970" stroke="#191970" points="792.605,-75.2872 782.0124,-75.5011 790.4264,-81.9396 792.605,-75.2872"/>
</g>
<!-- Node18&#45;&gt;Node7 -->
<g id="edge25" class="edge">
<title>Node18&#45;&gt;Node7</title>
<path fill="none" stroke="#191970" d="M723.2602,-112.3733C694.493,-103.0613 650.73,-88.8953 619.1444,-78.671"/>
<polygon fill="#191970" stroke="#191970" points="619.9436,-75.251 609.3517,-75.5011 617.7878,-81.9107 619.9436,-75.251"/>
</g>
<!-- Node18&#45;&gt;Node10 -->
<g id="edge24" class="edge">
<title>Node18&#45;&gt;Node10</title>
<path fill="none" stroke="#191970" d="M753,-112.2455C753,-104.9382 753,-94.6944 753,-85.7046"/>
<polygon fill="#191970" stroke="#191970" points="756.5001,-85.6426 753,-75.6427 749.5001,-85.6427 756.5001,-85.6426"/>
</g>
</g>
</svg>
        <g id="navigator" transform="translate(0 0)" fill="#404254">
                <rect fill="#f2f5e9" fill-opacity="0.5" stroke="#606060" stroke-width=".5" x="0" y="0" width="60" height="60"/>
                <use id="zoomplus" xlink:href="#zoomPlus" x="17" y="9" onmousedown="handleZoom(evt,'in')"/>
                <use id="zoomminus" xlink:href="#zoomMin" x="42" y="9" onmousedown="handleZoom(evt,'out')"/>
                <use id="reset" xlink:href="#resetDef" x="30" y="36" onmousedown="handleReset()"/>
                <g id="arrowUp" xlink:href="#dirArrow" transform="translate(30 24)" onmousedown="handlePan(0,-1)">
                  <use xlink:href="#rim" fill="#404040">
                        <set attributeName="fill" to="#808080" begin="arrowUp.mouseover" end="arrowUp.mouseout"/>
                  </use>
                  <path fill="none" stroke="white" stroke-width="1.5" d="M0,-3.0v7 M-2.5,-0.5L0,-3.0L2.5,-0.5"/>
                </g>
                <g id="arrowRight" xlink:href="#dirArrow" transform="rotate(90) translate(36 -43)" onmousedown="handlePan(1,0)">
                  <use xlink:href="#rim" fill="#404040">
                        <set attributeName="fill" to="#808080" begin="arrowRight.mouseover" end="arrowRight.mouseout"/>
                  </use>
                  <path fill="none" stroke="white" stroke-width="1.5" d="M0,-3.0v7 M-2.5,-0.5L0,-3.0L2.5,-0.5"/>
                </g>
                <g id="arrowDown" xlink:href="#dirArrow" transform="rotate(180) translate(-30 -48)" onmousedown="handlePan(0,1)">
                  <use xlink:href="#rim" fill="#404040">
                        <set attributeName="fill" to="#808080" begin="arrowDown.mouseover" end="arrowDown.mouseout"/>
                  </use>
                  <path fill="none" stroke="white" stroke-width="1.5" d="M0,-3.0v7 M-2.5,-0.5L0,-3.0L2.5,-0.5"/>
                </g>
                <g id="arrowLeft" xlink:href="#dirArrow" transform="rotate(270) translate(-36 17)" onmousedown="handlePan(-1,0)">
                  <use xlink:href="#rim" fill="#404040">
                        <set attributeName="fill" to="#808080" begin="arrowLeft.mouseover" end="arrowLeft.mouseout"/>
                  </use>
                  <path fill="none" stroke="white" stroke-width="1.5" d="M0,-3.0v7 M-2.5,-0.5L0,-3.0L2.5,-0.5"/>
                </g>
        </g>
        <svg viewBox="0 0 15 15" width="100%" height="30px" preserveAspectRatio="xMaxYMin meet">
         <g id="arrow_out" transform="scale(0.3 0.3)">
          <a xlink:href="TRDGeometryFlat_8h__incl_org.svg" target="_base">
           <rect id="button" ry="5" rx="5" y="6" x="6" height="38" width="38"
                fill="#f2f5e9" fill-opacity="0.5" stroke="#606060" stroke-width="1.0"/>
           <path id="arrow"
             d="M 11.500037,31.436501 C 11.940474,20.09759 22.043105,11.32322 32.158766,21.979434 L 37.068811,17.246167 C 37.068811,17.246167 37.088388,32 37.088388,32 L 22.160133,31.978069 C 22.160133,31.978069 26.997745,27.140456 26.997745,27.140456 C 18.528582,18.264221 13.291696,25.230495 11.500037,31.436501 z"
             style="fill:#404040;"/>
          </a>
         </g>
        </svg>
</svg>
