<?xml version="1.0" encoding="UTF-8" standalone="no"?>
<!DOCTYPE svg PUBLIC "-//W3C//DTD SVG 1.1//EN"
 "http://www.w3.org/Graphics/SVG/1.1/DTD/svg11.dtd">
<!-- Generated by graphviz version 2.40.1 (20161225.0304)
 -->
<!-- Title: /home/travis/build/AliceO2Group/AliceO2/Detectors/Raw/src/RawFileReader.cxx Pages: 1 -->
<svg width="1627pt" height="285pt"
 viewBox="0.00 0.00 1627.00 285.00" xmlns="http://www.w3.org/2000/svg" xmlns:xlink="http://www.w3.org/1999/xlink">
<g id="graph0" class="graph" transform="scale(1 1) rotate(0) translate(4 281)">
<title>/home/travis/build/AliceO2Group/AliceO2/Detectors/Raw/src/RawFileReader.cxx</title>
<!-- Node0 -->
<g id="node1" class="node">
<title>Node0</title>
<polygon fill="#bfbfbf" stroke="#000000" points="603,-235.5 603,-276.5 805,-276.5 805,-235.5 603,-235.5"/>
<text text-anchor="start" x="611" y="-264.5" font-family="Helvetica,sans-Serif" font-size="10.00" fill="#000000">/home/travis/build</text>
<text text-anchor="start" x="611" y="-253.5" font-family="Helvetica,sans-Serif" font-size="10.00" fill="#000000">/AliceO2Group/AliceO2</text>
<text text-anchor="middle" x="704" y="-242.5" font-family="Helvetica,sans-Serif" font-size="10.00" fill="#000000">/Detectors/Raw/src/RawFileReader.cxx</text>
</g>
<!-- Node1 -->
<g id="node2" class="node">
<title>Node1</title>
<polygon fill="none" stroke="#bfbfbf" points="48,-62 48,-81 112,-81 112,-62 48,-62"/>
<text text-anchor="middle" x="80" y="-69" font-family="Helvetica,sans-Serif" font-size="10.00" fill="#000000">algorithm</text>
</g>
<!-- Node0&#45;&gt;Node1 -->
<g id="edge1" class="edge">
<title>Node0&#45;&gt;Node1</title>
<path fill="none" stroke="#191970" d="M602.8083,-245.6178C532.862,-236.9324 438.1614,-222.1637 357,-199 294.5368,-181.1728 281.0484,-170.0692 222,-143 181.4235,-124.3988 135.4456,-100.7659 107.0832,-85.8816"/>
<polygon fill="#191970" stroke="#191970" points="108.6521,-82.7521 98.1732,-81.1891 105.3902,-88.9457 108.6521,-82.7521"/>
</g>
<!-- Node2 -->
<g id="node3" class="node">
<title>Node2</title>
<polygon fill="none" stroke="#bfbfbf" points="130,-62 130,-81 180,-81 180,-62 130,-62"/>
<text text-anchor="middle" x="155" y="-69" font-family="Helvetica,sans-Serif" font-size="10.00" fill="#000000">cstring</text>
</g>
<!-- Node0&#45;&gt;Node2 -->
<g id="edge2" class="edge">
<title>Node0&#45;&gt;Node2</title>
<path fill="none" stroke="#191970" d="M602.9428,-240.7468C510.8647,-224.4314 372.6189,-193.7879 261,-143 228.2936,-128.1182 194.5669,-103.4685 174.1873,-87.3541"/>
<polygon fill="#191970" stroke="#191970" points="176.2992,-84.5612 166.3123,-81.0239 171.9136,-90.017 176.2992,-84.5612"/>
</g>
<!-- Node3 -->
<g id="node4" class="node">
<title>Node3</title>
<polygon fill="none" stroke="#bfbfbf" points="703,-179.5 703,-198.5 763,-198.5 763,-179.5 703,-179.5"/>
<text text-anchor="middle" x="733" y="-186.5" font-family="Helvetica,sans-Serif" font-size="10.00" fill="#000000">iostream</text>
</g>
<!-- Node0&#45;&gt;Node3 -->
<g id="edge3" class="edge">
<title>Node0&#45;&gt;Node3</title>
<path fill="none" stroke="#191970" d="M713.0168,-235.168C716.7522,-226.5381 721.0569,-216.5928 724.7121,-208.1479"/>
<polygon fill="#191970" stroke="#191970" points="728.0064,-209.348 728.7667,-198.7805 721.5823,-206.5674 728.0064,-209.348"/>
</g>
<!-- Node4 -->
<g id="node5" class="node">
<title>Node4</title>
<polygon fill="none" stroke="#bfbfbf" points="781,-179.5 781,-198.5 837,-198.5 837,-179.5 781,-179.5"/>
<text text-anchor="middle" x="809" y="-186.5" font-family="Helvetica,sans-Serif" font-size="10.00" fill="#000000">iomanip</text>
</g>
<!-- Node0&#45;&gt;Node4 -->
<g id="edge4" class="edge">
<title>Node0&#45;&gt;Node4</title>
<path fill="none" stroke="#191970" d="M736.3602,-235.3511C752.0788,-225.3212 770.6363,-213.4797 785.0597,-204.2762"/>
<polygon fill="#191970" stroke="#191970" points="787.3223,-206.9843 793.8696,-198.6546 783.5569,-201.0833 787.3223,-206.9843"/>
</g>
<!-- Node5 -->
<g id="node6" class="node">
<title>Node5</title>
<polygon fill="none" stroke="#bfbfbf" points="855,-179.5 855,-198.5 911,-198.5 911,-179.5 855,-179.5"/>
<text text-anchor="middle" x="883" y="-186.5" font-family="Helvetica,sans-Serif" font-size="10.00" fill="#000000">sstream</text>
</g>
<!-- Node0&#45;&gt;Node5 -->
<g id="edge5" class="edge">
<title>Node0&#45;&gt;Node5</title>
<path fill="none" stroke="#191970" d="M759.1665,-235.3511C788.0045,-224.557 822.4479,-211.6647 847.6798,-202.2204"/>
<polygon fill="#191970" stroke="#191970" points="849.0678,-205.4381 857.2063,-198.6546 846.6139,-198.8823 849.0678,-205.4381"/>
</g>
<!-- Node6 -->
<g id="node7" class="node">
<title>Node6</title>
<g id="a_node7"><a xlink:href="../../de/da2/Raw_2include_2DetectorsRaw_2RawFileReader_8h.html" target="_top" xlink:title="DetectorsRaw/RawFileReader.h">
<polygon fill="none" stroke="#000000" points="480.5,-179.5 480.5,-198.5 647.5,-198.5 647.5,-179.5 480.5,-179.5"/>
<text text-anchor="middle" x="564" y="-186.5" font-family="Helvetica,sans-Serif" font-size="10.00" fill="#000000">DetectorsRaw/RawFileReader.h</text>
</a>
</g>
</g>
<!-- Node0&#45;&gt;Node6 -->
<g id="edge6" class="edge">
<title>Node0&#45;&gt;Node6</title>
<path fill="none" stroke="#191970" d="M660.853,-235.3511C638.8969,-224.8435 612.7865,-212.3478 593.2115,-202.9798"/>
<polygon fill="#191970" stroke="#191970" points="594.705,-199.8144 584.1739,-198.6546 591.6832,-206.1286 594.705,-199.8144"/>
</g>
<!-- Node23 -->
<g id="node24" class="node">
<title>Node23</title>
<g id="a_node24"><a xlink:href="../../d6/dec/Raw_2include_2DetectorsRaw_2RDHUtils_8h.html" target="_top" xlink:title="DetectorsRaw/RDHUtils.h">
<polygon fill="none" stroke="#000000" points="1215.5,-123.5 1215.5,-142.5 1356.5,-142.5 1356.5,-123.5 1215.5,-123.5"/>
<text text-anchor="middle" x="1286" y="-130.5" font-family="Helvetica,sans-Serif" font-size="10.00" fill="#000000">DetectorsRaw/RDHUtils.h</text>
</a>
</g>
</g>
<!-- Node0&#45;&gt;Node23 -->
<g id="edge42" class="edge">
<title>Node0&#45;&gt;Node23</title>
<path fill="none" stroke="#191970" d="M693.331,-235.2822C686.0979,-218.0075 680.1257,-193.8944 694,-179 732.4938,-137.676 1144.7741,-148.3007 1201,-143 1202.2898,-142.8784 1203.5903,-142.7535 1204.8993,-142.6256"/>
<polygon fill="#191970" stroke="#191970" points="1205.4694,-146.0858 1215.0648,-141.5937 1204.7624,-139.1216 1205.4694,-146.0858"/>
</g>
<!-- Node32 -->
<g id="node33" class="node">
<title>Node32</title>
<g id="a_node33"><a xlink:href="../../de/da4/Triggers_8h.html" target="_top" xlink:title="Definition of the 32 Central Trigger System (CTS) Trigger Types defined in https://twiki.cern.ch/twiki/pub/ALICE/NoteForFEDevelopers/CTS_CRU_FE_interface.pdf. ">
<polygon fill="none" stroke="#000000" points="0,-179.5 0,-198.5 160,-198.5 160,-179.5 0,-179.5"/>
<text text-anchor="middle" x="80" y="-186.5" font-family="Helvetica,sans-Serif" font-size="10.00" fill="#000000">CommonConstants/Triggers.h</text>
</a>
</g>
</g>
<!-- Node0&#45;&gt;Node32 -->
<g id="edge40" class="edge">
<title>Node0&#45;&gt;Node32</title>
<path fill="none" stroke="#191970" d="M602.7027,-245.1235C482.9298,-232.2633 285.3913,-211.0532 170.527,-198.72"/>
<polygon fill="#191970" stroke="#191970" points="170.6737,-195.2158 160.3572,-197.6281 169.9263,-202.1758 170.6737,-195.2158"/>
</g>
<!-- Node33 -->
<g id="node34" class="node">
<title>Node33</title>
<g id="a_node34"><a xlink:href="../../dd/da4/Logger_8h.html" target="_top" xlink:title="Framework/Logger.h">
<polygon fill="none" stroke="#000000" points="929.5,-179.5 929.5,-198.5 1044.5,-198.5 1044.5,-179.5 929.5,-179.5"/>
<text text-anchor="middle" x="987" y="-186.5" font-family="Helvetica,sans-Serif" font-size="10.00" fill="#000000">Framework/Logger.h</text>
</a>
</g>
</g>
<!-- Node0&#45;&gt;Node33 -->
<g id="edge43" class="edge">
<title>Node0&#45;&gt;Node33</title>
<path fill="none" stroke="#191970" d="M790.8326,-235.4425C838.7638,-224.0948 896.5843,-210.4058 936.9863,-200.8407"/>
<polygon fill="#191970" stroke="#191970" points="937.9414,-204.2114 946.866,-198.5017 936.3287,-197.3997 937.9414,-204.2114"/>
</g>
<!-- Node34 -->
<g id="node35" class="node">
<title>Node34</title>
<polygon fill="none" stroke="#bfbfbf" points="1063,-179.5 1063,-198.5 1201,-198.5 1201,-179.5 1063,-179.5"/>
<text text-anchor="middle" x="1132" y="-186.5" font-family="Helvetica,sans-Serif" font-size="10.00" fill="#000000">Common/Configuration.h</text>
</g>
<!-- Node0&#45;&gt;Node34 -->
<g id="edge44" class="edge">
<title>Node0&#45;&gt;Node34</title>
<path fill="none" stroke="#191970" d="M805.1589,-240.1644C883.9615,-227.8285 991.3567,-211.0166 1061.1798,-200.0863"/>
<polygon fill="#191970" stroke="#191970" points="1061.8627,-203.5222 1071.201,-198.5176 1060.78,-196.6064 1061.8627,-203.5222"/>
</g>
<!-- Node7 -->
<g id="node8" class="node">
<title>Node7</title>
<polygon fill="none" stroke="#bfbfbf" points="676,-123.5 676,-142.5 722,-142.5 722,-123.5 676,-123.5"/>
<text text-anchor="middle" x="699" y="-130.5" font-family="Helvetica,sans-Serif" font-size="10.00" fill="#000000">cstdio</text>
</g>
<!-- Node6&#45;&gt;Node7 -->
<g id="edge7" class="edge">
<title>Node6&#45;&gt;Node7</title>
<path fill="none" stroke="#191970" d="M587.2073,-179.3733C609.1699,-170.2629 642.3332,-156.5062 666.8401,-146.3404"/>
<polygon fill="#191970" stroke="#191970" points="668.1997,-149.5657 676.0955,-142.5011 665.5176,-143.0999 668.1997,-149.5657"/>
</g>
<!-- Node8 -->
<g id="node9" class="node">
<title>Node8</title>
<polygon fill="none" stroke="#bfbfbf" points="740.5,-123.5 740.5,-142.5 833.5,-142.5 833.5,-123.5 740.5,-123.5"/>
<text text-anchor="middle" x="787" y="-130.5" font-family="Helvetica,sans-Serif" font-size="10.00" fill="#000000">unordered_map</text>
</g>
<!-- Node6&#45;&gt;Node8 -->
<g id="edge8" class="edge">
<title>Node6&#45;&gt;Node8</title>
<path fill="none" stroke="#191970" d="M602.0817,-179.4369C640.0059,-169.9133 698.3289,-155.2672 739.3126,-144.9753"/>
<polygon fill="#191970" stroke="#191970" points="740.229,-148.3539 749.0754,-142.5237 738.524,-141.5647 740.229,-148.3539"/>
</g>
<!-- Node9 -->
<g id="node10" class="node">
<title>Node9</title>
<polygon fill="none" stroke="#bfbfbf" points="270,-123.5 270,-142.5 308,-142.5 308,-123.5 270,-123.5"/>
<text text-anchor="middle" x="289" y="-130.5" font-family="Helvetica,sans-Serif" font-size="10.00" fill="#000000">map</text>
</g>
<!-- Node6&#45;&gt;Node9 -->
<g id="edge9" class="edge">
<title>Node6&#45;&gt;Node9</title>
<path fill="none" stroke="#191970" d="M497.0473,-179.4823C449.3365,-172.0231 383.6232,-160.378 317.8541,-142.9122"/>
<polygon fill="#191970" stroke="#191970" points="318.7188,-139.5204 308.1522,-140.2929 316.8942,-146.2785 318.7188,-139.5204"/>
</g>
<!-- Node10 -->
<g id="node11" class="node">
<title>Node10</title>
<polygon fill="none" stroke="#bfbfbf" points="326.5,-123.5 326.5,-142.5 373.5,-142.5 373.5,-123.5 326.5,-123.5"/>
<text text-anchor="middle" x="350" y="-130.5" font-family="Helvetica,sans-Serif" font-size="10.00" fill="#000000">vector</text>
</g>
<!-- Node6&#45;&gt;Node10 -->
<g id="edge10" class="edge">
<title>Node6&#45;&gt;Node10</title>
<path fill="none" stroke="#191970" d="M523.7087,-179.4939C488.8109,-171.1091 436.7689,-158.2449 383.3546,-143.2894"/>
<polygon fill="#191970" stroke="#191970" points="384.2966,-139.9186 373.722,-140.5735 382.3969,-146.6559 384.2966,-139.9186"/>
</g>
<!-- Node11 -->
<g id="node12" class="node">
<title>Node11</title>
<polygon fill="none" stroke="#bfbfbf" points="764,-62 764,-81 808,-81 808,-62 764,-62"/>
<text text-anchor="middle" x="786" y="-69" font-family="Helvetica,sans-Serif" font-size="10.00" fill="#000000">string</text>
</g>
<!-- Node6&#45;&gt;Node11 -->
<g id="edge11" class="edge">
<title>Node6&#45;&gt;Node11</title>
<path fill="none" stroke="#191970" d="M571.5624,-179.4473C583.3909,-165.1304 607.6583,-138.1729 634,-123 682.6188,-94.9954 702.8207,-107.6244 755,-87 756.364,-86.4609 757.7493,-85.8839 759.1395,-85.2811"/>
<polygon fill="#191970" stroke="#191970" points="760.6222,-88.4516 768.2105,-81.0578 757.6677,-82.1057 760.6222,-88.4516"/>
</g>
<!-- Node12 -->
<g id="node13" class="node">
<title>Node12</title>
<polygon fill="none" stroke="#bfbfbf" points="391.5,-123.5 391.5,-142.5 436.5,-142.5 436.5,-123.5 391.5,-123.5"/>
<text text-anchor="middle" x="414" y="-130.5" font-family="Helvetica,sans-Serif" font-size="10.00" fill="#000000">utility</text>
</g>
<!-- Node6&#45;&gt;Node12 -->
<g id="edge12" class="edge">
<title>Node6&#45;&gt;Node12</title>
<path fill="none" stroke="#191970" d="M538.2141,-179.3733C512.7001,-169.848 473.5816,-155.2438 446.0753,-144.9748"/>
<polygon fill="#191970" stroke="#191970" points="447.1061,-141.6237 436.5136,-141.4051 444.6578,-148.1816 447.1061,-141.6237"/>
</g>
<!-- Node13 -->
<g id="node14" class="node">
<title>Node13</title>
<polygon fill="none" stroke="#bfbfbf" points="1194.5,-.5 1194.5,-19.5 1253.5,-19.5 1253.5,-.5 1194.5,-.5"/>
<text text-anchor="middle" x="1224" y="-7.5" font-family="Helvetica,sans-Serif" font-size="10.00" fill="#000000">Rtypes.h</text>
</g>
<!-- Node6&#45;&gt;Node13 -->
<g id="edge13" class="edge">
<title>Node6&#45;&gt;Node13</title>
<path fill="none" stroke="#191970" d="M643.3539,-179.4712C798.8314,-160.2684 1132.2747,-116.2602 1176,-87 1196.6841,-73.1585 1210.1199,-47.0738 1217.3759,-29.1298"/>
<polygon fill="#191970" stroke="#191970" points="1220.6934,-30.2514 1220.942,-19.6595 1214.1425,-27.7845 1220.6934,-30.2514"/>
</g>
<!-- Node14 -->
<g id="node15" class="node">
<title>Node14</title>
<g id="a_node15"><a xlink:href="../../d4/d78/DataFormats_2Headers_2include_2Headers_2RAWDataHeader_8h.html" target="_top" xlink:title="Headers/RAWDataHeader.h">
<polygon fill="none" stroke="#000000" points="825.5,-62 825.5,-81 974.5,-81 974.5,-62 825.5,-62"/>
<text text-anchor="middle" x="900" y="-69" font-family="Helvetica,sans-Serif" font-size="10.00" fill="#000000">Headers/RAWDataHeader.h</text>
</a>
</g>
</g>
<!-- Node6&#45;&gt;Node14 -->
<g id="edge14" class="edge">
<title>Node6&#45;&gt;Node14</title>
<path fill="none" stroke="#191970" d="M578.7838,-179.3331C606.1285,-161.4801 662.2683,-124.9655 667,-123 683.1377,-116.2966 779.2145,-96.0587 842.8484,-83.0386"/>
<polygon fill="#191970" stroke="#191970" points="843.6677,-86.4436 852.7655,-81.0141 842.2675,-79.5851 843.6677,-86.4436"/>
</g>
<!-- Node16 -->
<g id="node17" class="node">
<title>Node16</title>
<g id="a_node17"><a xlink:href="../../dc/dcd/DataHeader_8h.html" target="_top" xlink:title="Headers/DataHeader.h">
<polygon fill="none" stroke="#000000" points="454.5,-123.5 454.5,-142.5 581.5,-142.5 581.5,-123.5 454.5,-123.5"/>
<text text-anchor="middle" x="518" y="-130.5" font-family="Helvetica,sans-Serif" font-size="10.00" fill="#000000">Headers/DataHeader.h</text>
</a>
</g>
</g>
<!-- Node6&#45;&gt;Node16 -->
<g id="edge16" class="edge">
<title>Node6&#45;&gt;Node16</title>
<path fill="none" stroke="#191970" d="M555.9874,-179.2455C549.5232,-171.3761 540.2615,-160.101 532.5017,-150.6542"/>
<polygon fill="#191970" stroke="#191970" points="534.9727,-148.1484 525.9208,-142.6427 529.5636,-152.5916 534.9727,-148.1484"/>
</g>
<!-- Node6&#45;&gt;Node23 -->
<g id="edge27" class="edge">
<title>Node6&#45;&gt;Node23</title>
<path fill="none" stroke="#191970" d="M647.5808,-180.1897C652.1185,-179.7719 656.6141,-179.3722 661,-179 900.6715,-158.6634 961.4809,-165.0591 1201,-143 1202.29,-142.8812 1203.5908,-142.7589 1204.9,-142.6334"/>
<polygon fill="#191970" stroke="#191970" points="1205.4649,-146.0945 1215.0669,-141.6166 1204.7682,-139.1292 1205.4649,-146.0945"/>
</g>
<!-- Node15 -->
<g id="node16" class="node">
<title>Node15</title>
<polygon fill="none" stroke="#bfbfbf" points="499,-.5 499,-19.5 549,-19.5 549,-.5 499,-.5"/>
<text text-anchor="middle" x="524" y="-7.5" font-family="Helvetica,sans-Serif" font-size="10.00" fill="#000000">cstdint</text>
</g>
<!-- Node14&#45;&gt;Node15 -->
<g id="edge15" class="edge">
<title>Node14&#45;&gt;Node15</title>
<path fill="none" stroke="#191970" d="M850.0068,-61.9222C839.1363,-59.9072 827.6909,-57.8371 817,-56 724.0342,-40.0252 614.0808,-23.3577 559.0586,-15.1694"/>
<polygon fill="#191970" stroke="#191970" points="559.5296,-11.701 549.124,-13.6943 558.5015,-18.6251 559.5296,-11.701"/>
</g>
<!-- Node16&#45;&gt;Node1 -->
<g id="edge21" class="edge">
<title>Node16&#45;&gt;Node1</title>
<path fill="none" stroke="#191970" d="M454.3112,-124.1782C451.1638,-123.7728 448.0467,-123.3779 445,-123 301.2155,-105.1667 261.8684,-120.8835 121,-87 117.9896,-86.2759 114.9005,-85.3905 111.8337,-84.4132"/>
<polygon fill="#191970" stroke="#191970" points="112.8323,-81.0547 102.2374,-81.0642 110.5257,-87.6638 112.8323,-81.0547"/>
</g>
<!-- Node16&#45;&gt;Node2 -->
<g id="edge20" class="edge">
<title>Node16&#45;&gt;Node2</title>
<path fill="none" stroke="#191970" d="M454.3808,-124.1603C361.8139,-111.2712 200.2545,-88.6616 194,-87 191.3836,-86.3049 188.705,-85.4851 186.0376,-84.5913"/>
<polygon fill="#191970" stroke="#191970" points="187.1503,-81.2716 176.5566,-81.1219 184.7447,-87.8453 187.1503,-81.2716"/>
</g>
<!-- Node16&#45;&gt;Node11 -->
<g id="edge23" class="edge">
<title>Node16&#45;&gt;Node11</title>
<path fill="none" stroke="#191970" d="M576.8477,-123.4599C635.9538,-113.5409 722.7571,-97.9604 755,-87 756.6059,-86.4541 758.2339,-85.8405 759.8598,-85.1808"/>
<polygon fill="#191970" stroke="#191970" points="761.3159,-88.3636 768.9787,-81.047 758.4257,-81.9881 761.3159,-88.3636"/>
</g>
<!-- Node16&#45;&gt;Node15 -->
<g id="edge17" class="edge">
<title>Node16&#45;&gt;Node15</title>
<path fill="none" stroke="#191970" d="M454.4471,-123.996C369.9391,-111.8755 230.6962,-91.3263 227,-87 218.0505,-76.5246 218.0342,-66.4614 227,-56 243.869,-36.3172 413.5214,-19.4732 488.5878,-12.9215"/>
<polygon fill="#191970" stroke="#191970" points="489.2841,-16.3746 498.9474,-12.0304 488.6842,-9.4004 489.2841,-16.3746"/>
</g>
<!-- Node17 -->
<g id="node18" class="node">
<title>Node17</title>
<polygon fill="none" stroke="#bfbfbf" points="618,-62 618,-81 676,-81 676,-62 618,-62"/>
<text text-anchor="middle" x="647" y="-69" font-family="Helvetica,sans-Serif" font-size="10.00" fill="#000000">memory</text>
</g>
<!-- Node16&#45;&gt;Node17 -->
<g id="edge18" class="edge">
<title>Node16&#45;&gt;Node17</title>
<path fill="none" stroke="#191970" d="M538.1563,-123.3906C559.551,-113.1908 593.562,-96.9763 617.8702,-85.3875"/>
<polygon fill="#191970" stroke="#191970" points="619.4648,-88.5047 626.9853,-81.0419 616.4524,-82.186 619.4648,-88.5047"/>
</g>
<!-- Node18 -->
<g id="node19" class="node">
<title>Node18</title>
<polygon fill="none" stroke="#bfbfbf" points="694,-62 694,-81 746,-81 746,-62 694,-62"/>
<text text-anchor="middle" x="720" y="-69" font-family="Helvetica,sans-Serif" font-size="10.00" fill="#000000">cassert</text>
</g>
<!-- Node16&#45;&gt;Node18 -->
<g id="edge19" class="edge">
<title>Node16&#45;&gt;Node18</title>
<path fill="none" stroke="#191970" d="M559.3625,-123.4198C593.4829,-115.0867 642.9408,-102.0125 685,-87 686.8307,-86.3466 688.7,-85.6401 690.5751,-84.9012"/>
<polygon fill="#191970" stroke="#191970" points="691.9667,-88.1131 699.8482,-81.0327 689.2715,-81.6527 691.9667,-88.1131"/>
</g>
<!-- Node19 -->
<g id="node20" class="node">
<title>Node19</title>
<polygon fill="none" stroke="#bfbfbf" points="236.5,-62 236.5,-81 301.5,-81 301.5,-62 236.5,-62"/>
<text text-anchor="middle" x="269" y="-69" font-family="Helvetica,sans-Serif" font-size="10.00" fill="#000000">stdexcept</text>
</g>
<!-- Node16&#45;&gt;Node19 -->
<g id="edge22" class="edge">
<title>Node16&#45;&gt;Node19</title>
<path fill="none" stroke="#191970" d="M466.0411,-123.4735C423.8761,-115.2609 363.0936,-102.3247 311,-87 308.3646,-86.2247 305.6564,-85.3681 302.9456,-84.4673"/>
<polygon fill="#191970" stroke="#191970" points="303.8383,-81.0718 293.2434,-81.0785 301.53,-87.6803 303.8383,-81.0718"/>
</g>
<!-- Node20 -->
<g id="node21" class="node">
<title>Node20</title>
<polygon fill="none" stroke="#bfbfbf" points="320,-62 320,-81 370,-81 370,-62 320,-62"/>
<text text-anchor="middle" x="345" y="-69" font-family="Helvetica,sans-Serif" font-size="10.00" fill="#000000">climits</text>
</g>
<!-- Node16&#45;&gt;Node20 -->
<g id="edge24" class="edge">
<title>Node16&#45;&gt;Node20</title>
<path fill="none" stroke="#191970" d="M485.9074,-123.4616C457.5074,-114.7652 415.0892,-101.15 379,-87 377.4222,-86.3814 375.8123,-85.7276 374.1933,-85.0522"/>
<polygon fill="#191970" stroke="#191970" points="375.5477,-81.8246 364.9817,-81.0436 372.7545,-88.2432 375.5477,-81.8246"/>
</g>
<!-- Node21 -->
<g id="node22" class="node">
<title>Node21</title>
<g id="a_node22"><a xlink:href="../../d7/df8/Types_8h.html" target="_top" xlink:title="MemoryResources/Types.h">
<polygon fill="none" stroke="#000000" points="388,-62 388,-81 534,-81 534,-62 388,-62"/>
<text text-anchor="middle" x="461" y="-69" font-family="Helvetica,sans-Serif" font-size="10.00" fill="#000000">MemoryResources/Types.h</text>
</a>
</g>
</g>
<!-- Node16&#45;&gt;Node21 -->
<g id="edge25" class="edge">
<title>Node16&#45;&gt;Node21</title>
<path fill="none" stroke="#191970" d="M509.0938,-123.3906C500.5272,-114.1478 487.3831,-99.966 476.9997,-88.7628"/>
<polygon fill="#191970" stroke="#191970" points="479.3965,-86.2 470.0318,-81.2449 474.2625,-90.9584 479.3965,-86.2"/>
</g>
<!-- Node22 -->
<g id="node23" class="node">
<title>Node22</title>
<polygon fill="none" stroke="#bfbfbf" points="552.5,-62 552.5,-81 599.5,-81 599.5,-62 552.5,-62"/>
<text text-anchor="middle" x="576" y="-69" font-family="Helvetica,sans-Serif" font-size="10.00" fill="#000000">cerrno</text>
</g>
<!-- Node16&#45;&gt;Node22 -->
<g id="edge26" class="edge">
<title>Node16&#45;&gt;Node22</title>
<path fill="none" stroke="#191970" d="M527.0625,-123.3906C535.7793,-114.1478 549.154,-99.966 559.7196,-88.7628"/>
<polygon fill="#191970" stroke="#191970" points="562.495,-90.9213 566.8097,-81.2449 557.4024,-86.1186 562.495,-90.9213"/>
</g>
<!-- Node23&#45;&gt;Node14 -->
<g id="edge39" class="edge">
<title>Node23&#45;&gt;Node14</title>
<path fill="none" stroke="#191970" d="M1219.3288,-123.4568C1158.0713,-114.5432 1064.8021,-100.6053 984,-87 976.2883,-85.7015 968.1893,-84.2803 960.1898,-82.8419"/>
<polygon fill="#191970" stroke="#191970" points="960.6114,-79.3613 950.147,-81.0189 959.3611,-86.2488 960.6114,-79.3613"/>
</g>
<!-- Node24 -->
<g id="node25" class="node">
<title>Node24</title>
<g id="a_node25"><a xlink:href="../../df/d21/GPUCommonDef_8h.html" target="_top" xlink:title="GPUCommonDef.h">
<polygon fill="none" stroke="#000000" points="1366.5,-62 1366.5,-81 1473.5,-81 1473.5,-62 1366.5,-62"/>
<text text-anchor="middle" x="1420" y="-69" font-family="Helvetica,sans-Serif" font-size="10.00" fill="#000000">GPUCommonDef.h</text>
</a>
</g>
</g>
<!-- Node23&#45;&gt;Node24 -->
<g id="edge28" class="edge">
<title>Node23&#45;&gt;Node24</title>
<path fill="none" stroke="#191970" d="M1306.9375,-123.3906C1329.2598,-113.1457 1364.8037,-96.8326 1390.0757,-85.2339"/>
<polygon fill="#191970" stroke="#191970" points="1391.581,-88.3942 1399.2095,-81.0419 1388.6611,-82.0322 1391.581,-88.3942"/>
</g>
<!-- Node27 -->
<g id="node28" class="node">
<title>Node27</title>
<g id="a_node28"><a xlink:href="../../d2/d45/GPUCommonRtypes_8h.html" target="_top" xlink:title="GPUCommonRtypes.h">
<polygon fill="none" stroke="#000000" points="1223.5,-62 1223.5,-81 1348.5,-81 1348.5,-62 1223.5,-62"/>
<text text-anchor="middle" x="1286" y="-69" font-family="Helvetica,sans-Serif" font-size="10.00" fill="#000000">GPUCommonRtypes.h</text>
</a>
</g>
</g>
<!-- Node23&#45;&gt;Node27 -->
<g id="edge31" class="edge">
<title>Node23&#45;&gt;Node27</title>
<path fill="none" stroke="#191970" d="M1286,-123.3906C1286,-114.8657 1286,-102.1392 1286,-91.4235"/>
<polygon fill="#191970" stroke="#191970" points="1289.5001,-91.2448 1286,-81.2449 1282.5001,-91.2449 1289.5001,-91.2448"/>
</g>
<!-- Node28 -->
<g id="node29" class="node">
<title>Node28</title>
<g id="a_node29"><a xlink:href="../../d9/d80/InteractionRecord_8h.html" target="_top" xlink:title="CommonDataFormat/Interaction\lRecord.h">
<polygon fill="none" stroke="#000000" points="993,-56.5 993,-86.5 1167,-86.5 1167,-56.5 993,-56.5"/>
<text text-anchor="start" x="1001" y="-74.5" font-family="Helvetica,sans-Serif" font-size="10.00" fill="#000000">CommonDataFormat/Interaction</text>
<text text-anchor="middle" x="1080" y="-63.5" font-family="Helvetica,sans-Serif" font-size="10.00" fill="#000000">Record.h</text>
</a>
</g>
</g>
<!-- Node23&#45;&gt;Node28 -->
<g id="edge33" class="edge">
<title>Node23&#45;&gt;Node28</title>
<path fill="none" stroke="#191970" d="M1253.8125,-123.3906C1223.4805,-114.3352 1177.2689,-100.539 1140.118,-89.4479"/>
<polygon fill="#191970" stroke="#191970" points="1140.9766,-86.0516 1130.3933,-86.5446 1138.9741,-92.7591 1140.9766,-86.0516"/>
</g>
<!-- Node25 -->
<g id="node26" class="node">
<title>Node25</title>
<g id="a_node26"><a xlink:href="../../d5/d93/GPUCommonDefSettings_8h.html" target="_top" xlink:title="GPUCommonDefSettings.h">
<polygon fill="none" stroke="#000000" points="1471,-.5 1471,-19.5 1619,-19.5 1619,-.5 1471,-.5"/>
<text text-anchor="middle" x="1545" y="-7.5" font-family="Helvetica,sans-Serif" font-size="10.00" fill="#000000">GPUCommonDefSettings.h</text>
</a>
</g>
</g>
<!-- Node24&#45;&gt;Node25 -->
<g id="edge29" class="edge">
<title>Node24&#45;&gt;Node25</title>
<path fill="none" stroke="#191970" d="M1439.5313,-61.8906C1460.1708,-51.7359 1492.9276,-35.6196 1516.4602,-24.0416"/>
<polygon fill="#191970" stroke="#191970" points="1518.1782,-27.0971 1525.6059,-19.5419 1515.088,-20.8161 1518.1782,-27.0971"/>
</g>
<!-- Node26 -->
<g id="node27" class="node">
<title>Node26</title>
<g id="a_node27"><a xlink:href="../../da/d5a/GPUCommonDefAPI_8h.html" target="_top" xlink:title="GPUCommonDefAPI.h">
<polygon fill="none" stroke="#000000" points="1329,-.5 1329,-19.5 1453,-19.5 1453,-.5 1329,-.5"/>
<text text-anchor="middle" x="1391" y="-7.5" font-family="Helvetica,sans-Serif" font-size="10.00" fill="#000000">GPUCommonDefAPI.h</text>
</a>
</g>
</g>
<!-- Node24&#45;&gt;Node26 -->
<g id="edge30" class="edge">
<title>Node24&#45;&gt;Node26</title>
<path fill="none" stroke="#191970" d="M1415.4688,-61.8906C1411.3219,-53.0965 1405.0668,-39.8312 1399.919,-28.9145"/>
<polygon fill="#191970" stroke="#191970" points="1403.0259,-27.2969 1395.5951,-19.7449 1396.6945,-30.2825 1403.0259,-27.2969"/>
</g>
<!-- Node27&#45;&gt;Node13 -->
<g id="edge32" class="edge">
<title>Node27&#45;&gt;Node13</title>
<path fill="none" stroke="#191970" d="M1276.3125,-61.8906C1266.9041,-52.5581 1252.4193,-38.1902 1241.0751,-26.9374"/>
<polygon fill="#191970" stroke="#191970" points="1243.3886,-24.3024 1233.8241,-19.7449 1238.4589,-29.2722 1243.3886,-24.3024"/>
</g>
<!-- Node28&#45;&gt;Node13 -->
<g id="edge34" class="edge">
<title>Node28&#45;&gt;Node13</title>
<path fill="none" stroke="#191970" d="M1115.2264,-56.4554C1138.8316,-46.374 1169.6454,-33.2139 1192.4476,-23.4755"/>
<polygon fill="#191970" stroke="#191970" points="1193.8634,-26.6767 1201.6851,-19.5303 1191.114,-20.2393 1193.8634,-26.6767"/>
</g>
<!-- Node28&#45;&gt;Node15 -->
<g id="edge37" class="edge">
<title>Node28&#45;&gt;Node15</title>
<path fill="none" stroke="#191970" d="M992.9127,-57.2037C989.9072,-56.7854 986.9296,-56.3826 984,-56 826.0924,-35.376 636.627,-19.0884 559.3826,-12.8047"/>
<polygon fill="#191970" stroke="#191970" points="559.4924,-9.3022 549.2428,-11.985 558.9283,-16.2794 559.4924,-9.3022"/>
</g>
<!-- Node29 -->
<g id="node30" class="node">
<title>Node29</title>
<polygon fill="none" stroke="#bfbfbf" points="1127.5,-.5 1127.5,-19.5 1176.5,-19.5 1176.5,-.5 1127.5,-.5"/>
<text text-anchor="middle" x="1152" y="-7.5" font-family="Helvetica,sans-Serif" font-size="10.00" fill="#000000">iosfwd</text>
</g>
<!-- Node28&#45;&gt;Node29 -->
<g id="edge35" class="edge">
<title>Node28&#45;&gt;Node29</title>
<path fill="none" stroke="#191970" d="M1097.7978,-56.2977C1108.4167,-47.2274 1121.9031,-35.7077 1132.7667,-26.4285"/>
<polygon fill="#191970" stroke="#191970" points="1135.1413,-29.0031 1140.4719,-19.8469 1130.5949,-23.6805 1135.1413,-29.0031"/>
</g>
<!-- Node30 -->
<g id="node31" class="node">
<title>Node30</title>
<polygon fill="none" stroke="#bfbfbf" points="853.5,-.5 853.5,-19.5 900.5,-19.5 900.5,-.5 853.5,-.5"/>
<text text-anchor="middle" x="877" y="-7.5" font-family="Helvetica,sans-Serif" font-size="10.00" fill="#000000">cmath</text>
</g>
<!-- Node28&#45;&gt;Node30 -->
<g id="edge36" class="edge">
<title>Node28&#45;&gt;Node30</title>
<path fill="none" stroke="#191970" d="M1030.3406,-56.4554C993.1641,-45.1926 943.3043,-30.0873 910.679,-20.2033"/>
<polygon fill="#191970" stroke="#191970" points="911.3152,-16.7389 900.7299,-17.1891 909.2856,-23.4383 911.3152,-16.7389"/>
</g>
<!-- Node31 -->
<g id="node32" class="node">
<title>Node31</title>
<g id="a_node32"><a xlink:href="../../d4/dc6/LHCConstants_8h.html" target="_top" xlink:title="Header to collect LHC related constants. ">
<polygon fill="none" stroke="#000000" points="919,-.5 919,-19.5 1109,-19.5 1109,-.5 919,-.5"/>
<text text-anchor="middle" x="1014" y="-7.5" font-family="Helvetica,sans-Serif" font-size="10.00" fill="#000000">CommonConstants/LHCConstants.h</text>
</a>
</g>
</g>
<!-- Node28&#45;&gt;Node31 -->
<g id="edge38" class="edge">
<title>Node28&#45;&gt;Node31</title>
<path fill="none" stroke="#191970" d="M1063.6854,-56.2977C1054.0467,-47.3163 1041.8309,-35.9334 1031.9241,-26.702"/>
<polygon fill="#191970" stroke="#191970" points="1034.2696,-24.1036 1024.5674,-19.8469 1029.4975,-29.2249 1034.2696,-24.1036"/>
</g>
<!-- Node32&#45;&gt;Node15 -->
<g id="edge41" class="edge">
<title>Node32&#45;&gt;Node15</title>
<path fill="none" stroke="#191970" d="M71.5068,-179.28C51.5609,-155.2693 5.8319,-92.4628 39,-56 69.1597,-22.8445 381.8896,-13.0575 488.5711,-10.6718"/>
<polygon fill="#191970" stroke="#191970" points="488.8913,-14.1658 498.8137,-10.4515 488.7407,-7.1674 488.8913,-14.1658"/>
</g>
</g>
</svg>
