<?xml version="1.0" encoding="UTF-8" standalone="no"?>
<!DOCTYPE svg PUBLIC "-//W3C//DTD SVG 1.1//EN"
 "http://www.w3.org/Graphics/SVG/1.1/DTD/svg11.dtd">
<!-- Generated by graphviz version 2.40.1 (20161225.0304)
 -->
<!-- Title: /home/travis/build/AliceO2Group/AliceO2/GPU/TPCFastTransformation/Spline2D.cxx Pages: 1 -->
<svg width="1055pt" height="397pt"
 viewBox="0.00 0.00 1055.00 397.00" xmlns="http://www.w3.org/2000/svg" xmlns:xlink="http://www.w3.org/1999/xlink">
<g id="graph0" class="graph" transform="scale(1 1) rotate(0) translate(4 393)">
<title>/home/travis/build/AliceO2Group/AliceO2/GPU/TPCFastTransformation/Spline2D.cxx</title>
<!-- Node0 -->
<g id="node1" class="node">
<title>Node0</title>
<polygon fill="#bfbfbf" stroke="#000000" points="407.5,-336.5 407.5,-388.5 562.5,-388.5 562.5,-336.5 407.5,-336.5"/>
<text text-anchor="start" x="415.5" y="-376.5" font-family="Helvetica,sans-Serif" font-size="10.00" fill="#000000">/home/travis/build</text>
<text text-anchor="start" x="415.5" y="-365.5" font-family="Helvetica,sans-Serif" font-size="10.00" fill="#000000">/AliceO2Group/AliceO2</text>
<text text-anchor="start" x="415.5" y="-354.5" font-family="Helvetica,sans-Serif" font-size="10.00" fill="#000000">/GPU/TPCFastTransformation</text>
<text text-anchor="middle" x="485" y="-343.5" font-family="Helvetica,sans-Serif" font-size="10.00" fill="#000000">/Spline2D.cxx</text>
</g>
<!-- Node1 -->
<g id="node2" class="node">
<title>Node1</title>
<g id="a_node2"><a xlink:href="../../dd/d27/Spline2D_8h.html" target="_top" xlink:title="Definition of Spline2D class. ">
<polygon fill="none" stroke="#000000" points="342.5,-224.5 342.5,-243.5 411.5,-243.5 411.5,-224.5 342.5,-224.5"/>
<text text-anchor="middle" x="377" y="-231.5" font-family="Helvetica,sans-Serif" font-size="10.00" fill="#000000">Spline2D.h</text>
</a>
</g>
</g>
<!-- Node0&#45;&gt;Node1 -->
<g id="edge1" class="edge">
<title>Node0&#45;&gt;Node1</title>
<path fill="none" stroke="#191970" d="M407.0869,-344.7916C364.7068,-333.4116 318.4345,-317.5123 306,-300 291.399,-279.4365 318.221,-260.332 342.9734,-248.0246"/>
<polygon fill="#191970" stroke="#191970" points="344.7095,-251.0759 352.268,-243.6517 341.7294,-244.7419 344.7095,-251.0759"/>
</g>
<!-- Node11 -->
<g id="node12" class="node">
<title>Node11</title>
<polygon fill="none" stroke="#bfbfbf" points="28,-56.5 28,-75.5 76,-75.5 76,-56.5 28,-56.5"/>
<text text-anchor="middle" x="52" y="-63.5" font-family="Helvetica,sans-Serif" font-size="10.00" fill="#000000">TFile.h</text>
</g>
<!-- Node0&#45;&gt;Node11 -->
<g id="edge44" class="edge">
<title>Node0&#45;&gt;Node11</title>
<path fill="none" stroke="#191970" d="M407.3022,-348.7561C308.3398,-328.9967 150,-288.8166 150,-234 150,-234 150,-234 150,-178 150,-134.4482 107.5118,-99.6916 78.4879,-81.0299"/>
<polygon fill="#191970" stroke="#191970" points="80.3203,-78.0479 69.9747,-75.7631 76.6374,-84.0008 80.3203,-78.0479"/>
</g>
<!-- Node15 -->
<g id="node16" class="node">
<title>Node15</title>
<polygon fill="none" stroke="#bfbfbf" points="13,-.5 13,-19.5 73,-19.5 73,-.5 13,-.5"/>
<text text-anchor="middle" x="43" y="-7.5" font-family="Helvetica,sans-Serif" font-size="10.00" fill="#000000">iostream</text>
</g>
<!-- Node0&#45;&gt;Node15 -->
<g id="edge21" class="edge">
<title>Node0&#45;&gt;Node15</title>
<path fill="none" stroke="#191970" d="M407.3454,-357.963C270.3316,-347.8136 0,-317.2413 0,-234 0,-234 0,-234 0,-122 0,-87.1403 18.3793,-49.9899 31.1059,-28.444"/>
<polygon fill="#191970" stroke="#191970" points="34.2206,-30.0603 36.4692,-19.7069 28.2549,-26.3983 34.2206,-30.0603"/>
</g>
<!-- Node18 -->
<g id="node19" class="node">
<title>Node18</title>
<polygon fill="none" stroke="#bfbfbf" points="315,-280.5 315,-299.5 387,-299.5 387,-280.5 315,-280.5"/>
<text text-anchor="middle" x="351" y="-287.5" font-family="Helvetica,sans-Serif" font-size="10.00" fill="#000000">TRandom.h</text>
</g>
<!-- Node0&#45;&gt;Node18 -->
<g id="edge22" class="edge">
<title>Node0&#45;&gt;Node18</title>
<path fill="none" stroke="#191970" d="M436.6229,-336.3258C416.8201,-325.6116 394.6596,-313.6218 377.8454,-304.5246"/>
<polygon fill="#191970" stroke="#191970" points="379.0822,-301.2143 368.6215,-299.534 375.7512,-307.371 379.0822,-301.2143"/>
</g>
<!-- Node19 -->
<g id="node20" class="node">
<title>Node19</title>
<polygon fill="none" stroke="#bfbfbf" points="405,-280.5 405,-299.5 481,-299.5 481,-280.5 405,-280.5"/>
<text text-anchor="middle" x="443" y="-287.5" font-family="Helvetica,sans-Serif" font-size="10.00" fill="#000000">Riostream.h</text>
</g>
<!-- Node0&#45;&gt;Node19 -->
<g id="edge23" class="edge">
<title>Node0&#45;&gt;Node19</title>
<path fill="none" stroke="#191970" d="M469.837,-336.3258C464.4423,-327.0135 458.4893,-316.7375 453.5635,-308.2347"/>
<polygon fill="#191970" stroke="#191970" points="456.5644,-306.4324 448.5231,-299.534 450.5074,-309.9414 456.5644,-306.4324"/>
</g>
<!-- Node20 -->
<g id="node21" class="node">
<title>Node20</title>
<polygon fill="none" stroke="#bfbfbf" points="499,-280.5 499,-299.5 555,-299.5 555,-280.5 499,-280.5"/>
<text text-anchor="middle" x="527" y="-287.5" font-family="Helvetica,sans-Serif" font-size="10.00" fill="#000000">TMath.h</text>
</g>
<!-- Node0&#45;&gt;Node20 -->
<g id="edge24" class="edge">
<title>Node0&#45;&gt;Node20</title>
<path fill="none" stroke="#191970" d="M500.163,-336.3258C505.5577,-327.0135 511.5107,-316.7375 516.4365,-308.2347"/>
<polygon fill="#191970" stroke="#191970" points="519.4926,-309.9414 521.4769,-299.534 513.4356,-306.4324 519.4926,-309.9414"/>
</g>
<!-- Node21 -->
<g id="node22" class="node">
<title>Node21</title>
<g id="a_node22"><a xlink:href="../../d0/d1e/SplineHelper2D_8h.html" target="_top" xlink:title="Definition of SplineHelper2D class. ">
<polygon fill="none" stroke="#000000" points="573.5,-280.5 573.5,-299.5 674.5,-299.5 674.5,-280.5 573.5,-280.5"/>
<text text-anchor="middle" x="624" y="-287.5" font-family="Helvetica,sans-Serif" font-size="10.00" fill="#000000">SplineHelper2D.h</text>
</a>
</g>
</g>
<!-- Node0&#45;&gt;Node21 -->
<g id="edge25" class="edge">
<title>Node0&#45;&gt;Node21</title>
<path fill="none" stroke="#191970" d="M535.1822,-336.3258C555.9159,-325.5115 579.1412,-313.3976 596.6405,-304.2703"/>
<polygon fill="#191970" stroke="#191970" points="598.4732,-307.2619 605.721,-299.534 595.236,-301.0554 598.4732,-307.2619"/>
</g>
<!-- Node26 -->
<g id="node27" class="node">
<title>Node26</title>
<polygon fill="none" stroke="#bfbfbf" points="692.5,-280.5 692.5,-299.5 759.5,-299.5 759.5,-280.5 692.5,-280.5"/>
<text text-anchor="middle" x="726" y="-287.5" font-family="Helvetica,sans-Serif" font-size="10.00" fill="#000000">TCanvas.h</text>
</g>
<!-- Node0&#45;&gt;Node26 -->
<g id="edge42" class="edge">
<title>Node0&#45;&gt;Node26</title>
<path fill="none" stroke="#191970" d="M562.5805,-339.1615C602.9837,-327.007 650.792,-312.6248 684.2239,-302.5675"/>
<polygon fill="#191970" stroke="#191970" points="685.5459,-305.8248 694.1137,-299.5924 683.5293,-299.1216 685.5459,-305.8248"/>
</g>
<!-- Node27 -->
<g id="node28" class="node">
<title>Node27</title>
<polygon fill="none" stroke="#bfbfbf" points="778,-280.5 778,-299.5 842,-299.5 842,-280.5 778,-280.5"/>
<text text-anchor="middle" x="810" y="-287.5" font-family="Helvetica,sans-Serif" font-size="10.00" fill="#000000">TNtuple.h</text>
</g>
<!-- Node0&#45;&gt;Node27 -->
<g id="edge43" class="edge">
<title>Node0&#45;&gt;Node27</title>
<path fill="none" stroke="#191970" d="M562.5526,-345.928C617.2475,-334.1253 692.4899,-317.6582 767.6642,-300.276"/>
<polygon fill="#191970" stroke="#191970" points="768.836,-303.5973 777.7874,-297.9296 767.2554,-296.7781 768.836,-303.5973"/>
</g>
<!-- Node28 -->
<g id="node29" class="node">
<title>Node28</title>
<g id="a_node29"><a xlink:href="../../d6/da2/GPUCommonMath_8h.html" target="_top" xlink:title="GPUCommonMath.h">
<polygon fill="none" stroke="#000000" points="863.5,-224.5 863.5,-243.5 978.5,-243.5 978.5,-224.5 863.5,-224.5"/>
<text text-anchor="middle" x="921" y="-231.5" font-family="Helvetica,sans-Serif" font-size="10.00" fill="#000000">GPUCommonMath.h</text>
</a>
</g>
</g>
<!-- Node0&#45;&gt;Node28 -->
<g id="edge45" class="edge">
<title>Node0&#45;&gt;Node28</title>
<path fill="none" stroke="#191970" d="M562.5382,-354.5842C654.5147,-344.2761 801.6053,-324.6305 851,-300 873.9538,-288.5542 894.5574,-267.0916 907.3711,-251.7479"/>
<polygon fill="#191970" stroke="#191970" points="910.1018,-253.9373 913.6538,-243.9556 904.6524,-249.5436 910.1018,-253.9373"/>
</g>
<!-- Node2 -->
<g id="node3" class="node">
<title>Node2</title>
<g id="a_node3"><a xlink:href="../../de/da6/Spline1D_8h.html" target="_top" xlink:title="Definition of Spline1D class. ">
<polygon fill="none" stroke="#000000" points="468.5,-168.5 468.5,-187.5 537.5,-187.5 537.5,-168.5 468.5,-168.5"/>
<text text-anchor="middle" x="503" y="-175.5" font-family="Helvetica,sans-Serif" font-size="10.00" fill="#000000">Spline1D.h</text>
</a>
</g>
</g>
<!-- Node1&#45;&gt;Node2 -->
<g id="edge2" class="edge">
<title>Node1&#45;&gt;Node2</title>
<path fill="none" stroke="#191970" d="M398.6602,-224.3733C418.9772,-215.3435 449.564,-201.7494 472.375,-191.6111"/>
<polygon fill="#191970" stroke="#191970" points="473.9059,-194.7609 481.6225,-187.5011 471.0628,-188.3642 473.9059,-194.7609"/>
</g>
<!-- Node3 -->
<g id="node4" class="node">
<title>Node3</title>
<g id="a_node4"><a xlink:href="../../df/d21/GPUCommonDef_8h.html" target="_top" xlink:title="GPUCommonDef.h">
<polygon fill="none" stroke="#000000" points="664.5,-56.5 664.5,-75.5 771.5,-75.5 771.5,-56.5 664.5,-56.5"/>
<text text-anchor="middle" x="718" y="-63.5" font-family="Helvetica,sans-Serif" font-size="10.00" fill="#000000">GPUCommonDef.h</text>
</a>
</g>
</g>
<!-- Node1&#45;&gt;Node3 -->
<g id="edge20" class="edge">
<title>Node1&#45;&gt;Node3</title>
<path fill="none" stroke="#191970" d="M377.7687,-224.1872C380.1755,-200.6586 389.7413,-140.8484 426,-112 464.3483,-81.489 590.5805,-83.7639 654.2144,-76.0723"/>
<polygon fill="#191970" stroke="#191970" points="654.8073,-79.5237 664.234,-74.6876 653.8489,-72.5896 654.8073,-79.5237"/>
</g>
<!-- Node6 -->
<g id="node7" class="node">
<title>Node6</title>
<g id="a_node7"><a xlink:href="../../db/dff/FlatObject_8h.html" target="_top" xlink:title="Definition of FlatObject class. ">
<polygon fill="none" stroke="#000000" points="298.5,-112.5 298.5,-131.5 373.5,-131.5 373.5,-112.5 298.5,-112.5"/>
<text text-anchor="middle" x="336" y="-119.5" font-family="Helvetica,sans-Serif" font-size="10.00" fill="#000000">FlatObject.h</text>
</a>
</g>
</g>
<!-- Node1&#45;&gt;Node6 -->
<g id="edge19" class="edge">
<title>Node1&#45;&gt;Node6</title>
<path fill="none" stroke="#191970" d="M373.5044,-224.4509C366.7568,-206.0186 351.8236,-165.2254 342.9711,-141.043"/>
<polygon fill="#191970" stroke="#191970" points="346.2112,-139.7123 339.4868,-131.5249 339.6378,-142.1187 346.2112,-139.7123"/>
</g>
<!-- Node2&#45;&gt;Node3 -->
<g id="edge3" class="edge">
<title>Node2&#45;&gt;Node3</title>
<path fill="none" stroke="#191970" d="M503.3885,-168.3656C504.5086,-153.9419 508.7892,-126.8469 525,-112 534.8736,-102.9571 603.9447,-87.9307 656.665,-77.5245"/>
<polygon fill="#191970" stroke="#191970" points="657.493,-80.9289 666.6344,-75.5729 656.1482,-74.0593 657.493,-80.9289"/>
</g>
<!-- Node2&#45;&gt;Node6 -->
<g id="edge6" class="edge">
<title>Node2&#45;&gt;Node6</title>
<path fill="none" stroke="#191970" d="M474.2917,-168.3733C446.6423,-159.1016 404.6424,-145.0178 374.1834,-134.804"/>
<polygon fill="#191970" stroke="#191970" points="374.9276,-131.3621 364.3337,-131.5011 372.7021,-137.9989 374.9276,-131.3621"/>
</g>
<!-- Node17 -->
<g id="node18" class="node">
<title>Node17</title>
<polygon fill="none" stroke="#bfbfbf" points="533.5,-112.5 533.5,-131.5 598.5,-131.5 598.5,-112.5 533.5,-112.5"/>
<text text-anchor="middle" x="566" y="-119.5" font-family="Helvetica,sans-Serif" font-size="10.00" fill="#000000">functional</text>
</g>
<!-- Node2&#45;&gt;Node17 -->
<g id="edge18" class="edge">
<title>Node2&#45;&gt;Node17</title>
<path fill="none" stroke="#191970" d="M513.9738,-168.2455C523.1882,-160.0549 536.5532,-148.1749 547.4297,-138.5069"/>
<polygon fill="#191970" stroke="#191970" points="550.0032,-140.9023 555.152,-131.6427 545.3526,-135.6704 550.0032,-140.9023"/>
</g>
<!-- Node4 -->
<g id="node5" class="node">
<title>Node4</title>
<g id="a_node5"><a xlink:href="../../d5/d93/GPUCommonDefSettings_8h.html" target="_top" xlink:title="GPUCommonDefSettings.h">
<polygon fill="none" stroke="#000000" points="490,-.5 490,-19.5 638,-19.5 638,-.5 490,-.5"/>
<text text-anchor="middle" x="564" y="-7.5" font-family="Helvetica,sans-Serif" font-size="10.00" fill="#000000">GPUCommonDefSettings.h</text>
</a>
</g>
</g>
<!-- Node3&#45;&gt;Node4 -->
<g id="edge4" class="edge">
<title>Node3&#45;&gt;Node4</title>
<path fill="none" stroke="#191970" d="M691.5265,-56.3733C666.1403,-47.1419 627.6355,-33.1402 599.578,-22.9375"/>
<polygon fill="#191970" stroke="#191970" points="600.7222,-19.6293 590.1281,-19.5011 598.3299,-26.2079 600.7222,-19.6293"/>
</g>
<!-- Node5 -->
<g id="node6" class="node">
<title>Node5</title>
<g id="a_node6"><a xlink:href="../../da/d5a/GPUCommonDefAPI_8h.html" target="_top" xlink:title="GPUCommonDefAPI.h">
<polygon fill="none" stroke="#000000" points="656,-.5 656,-19.5 780,-19.5 780,-.5 656,-.5"/>
<text text-anchor="middle" x="718" y="-7.5" font-family="Helvetica,sans-Serif" font-size="10.00" fill="#000000">GPUCommonDefAPI.h</text>
</a>
</g>
</g>
<!-- Node3&#45;&gt;Node5 -->
<g id="edge5" class="edge">
<title>Node3&#45;&gt;Node5</title>
<path fill="none" stroke="#191970" d="M718,-56.2455C718,-48.9382 718,-38.6944 718,-29.7046"/>
<polygon fill="#191970" stroke="#191970" points="721.5001,-29.6426 718,-19.6427 714.5001,-29.6427 721.5001,-29.6426"/>
</g>
<!-- Node6&#45;&gt;Node3 -->
<g id="edge12" class="edge">
<title>Node6&#45;&gt;Node3</title>
<path fill="none" stroke="#191970" d="M373.7291,-114.4852C378.5253,-113.6062 383.3727,-112.7551 388,-112 503.3687,-93.1736 535.3766,-93.5344 654.0289,-76.2588"/>
<polygon fill="#191970" stroke="#191970" points="654.8593,-79.6745 664.2449,-74.7591 653.8426,-72.7487 654.8593,-79.6745"/>
</g>
<!-- Node7 -->
<g id="node8" class="node">
<title>Node7</title>
<polygon fill="none" stroke="#bfbfbf" points="235.5,-56.5 235.5,-75.5 288.5,-75.5 288.5,-56.5 235.5,-56.5"/>
<text text-anchor="middle" x="262" y="-63.5" font-family="Helvetica,sans-Serif" font-size="10.00" fill="#000000">cstddef</text>
</g>
<!-- Node6&#45;&gt;Node7 -->
<g id="edge7" class="edge">
<title>Node6&#45;&gt;Node7</title>
<path fill="none" stroke="#191970" d="M323.1102,-112.2455C312.0746,-103.8943 295.9708,-91.7076 283.0647,-81.9408"/>
<polygon fill="#191970" stroke="#191970" points="284.8283,-78.8862 274.7421,-75.6427 280.6041,-84.4681 284.8283,-78.8862"/>
</g>
<!-- Node8 -->
<g id="node9" class="node">
<title>Node8</title>
<polygon fill="none" stroke="#bfbfbf" points="307,-56.5 307,-75.5 365,-75.5 365,-56.5 307,-56.5"/>
<text text-anchor="middle" x="336" y="-63.5" font-family="Helvetica,sans-Serif" font-size="10.00" fill="#000000">memory</text>
</g>
<!-- Node6&#45;&gt;Node8 -->
<g id="edge8" class="edge">
<title>Node6&#45;&gt;Node8</title>
<path fill="none" stroke="#191970" d="M336,-112.2455C336,-104.9382 336,-94.6944 336,-85.7046"/>
<polygon fill="#191970" stroke="#191970" points="339.5001,-85.6426 336,-75.6427 332.5001,-85.6427 339.5001,-85.6426"/>
</g>
<!-- Node9 -->
<g id="node10" class="node">
<title>Node9</title>
<polygon fill="none" stroke="#bfbfbf" points="383,-56.5 383,-75.5 433,-75.5 433,-56.5 383,-56.5"/>
<text text-anchor="middle" x="408" y="-63.5" font-family="Helvetica,sans-Serif" font-size="10.00" fill="#000000">cstring</text>
</g>
<!-- Node6&#45;&gt;Node9 -->
<g id="edge9" class="edge">
<title>Node6&#45;&gt;Node9</title>
<path fill="none" stroke="#191970" d="M348.5414,-112.2455C359.2787,-103.8943 374.9473,-91.7076 387.5047,-81.9408"/>
<polygon fill="#191970" stroke="#191970" points="389.8575,-84.5449 395.6023,-75.6427 385.5599,-79.0194 389.8575,-84.5449"/>
</g>
<!-- Node10 -->
<g id="node11" class="node">
<title>Node10</title>
<polygon fill="none" stroke="#bfbfbf" points="451,-56.5 451,-75.5 503,-75.5 503,-56.5 451,-56.5"/>
<text text-anchor="middle" x="477" y="-63.5" font-family="Helvetica,sans-Serif" font-size="10.00" fill="#000000">cassert</text>
</g>
<!-- Node6&#45;&gt;Node10 -->
<g id="edge10" class="edge">
<title>Node6&#45;&gt;Node10</title>
<path fill="none" stroke="#191970" d="M360.2388,-112.3733C383.2789,-103.2226 418.1214,-89.3844 443.7501,-79.2057"/>
<polygon fill="#191970" stroke="#191970" points="445.0756,-82.4452 453.0775,-75.5011 442.4918,-75.9395 445.0756,-82.4452"/>
</g>
<!-- Node6&#45;&gt;Node11 -->
<g id="edge11" class="edge">
<title>Node6&#45;&gt;Node11</title>
<path fill="none" stroke="#191970" d="M298.2995,-116.4527C250.8774,-109.1769 166.8125,-95.2942 85.9118,-76.0132"/>
<polygon fill="#191970" stroke="#191970" points="86.6064,-72.5804 76.0642,-73.6352 84.9632,-79.3848 86.6064,-72.5804"/>
</g>
<!-- Node12 -->
<g id="node13" class="node">
<title>Node12</title>
<g id="a_node13"><a xlink:href="../../d2/d45/GPUCommonRtypes_8h.html" target="_top" xlink:title="GPUCommonRtypes.h">
<polygon fill="none" stroke="#000000" points="521.5,-56.5 521.5,-75.5 646.5,-75.5 646.5,-56.5 521.5,-56.5"/>
<text text-anchor="middle" x="584" y="-63.5" font-family="Helvetica,sans-Serif" font-size="10.00" fill="#000000">GPUCommonRtypes.h</text>
</a>
</g>
</g>
<!-- Node6&#45;&gt;Node12 -->
<g id="edge13" class="edge">
<title>Node6&#45;&gt;Node12</title>
<path fill="none" stroke="#191970" d="M373.6659,-113.4948C415.9183,-103.9539 484.7203,-88.418 532.0614,-77.7281"/>
<polygon fill="#191970" stroke="#191970" points="532.837,-81.1411 541.8205,-75.5244 531.2951,-74.3131 532.837,-81.1411"/>
</g>
<!-- Node14 -->
<g id="node15" class="node">
<title>Node14</title>
<g id="a_node15"><a xlink:href="../../df/d5b/GPUCommonLogger_8h.html" target="_top" xlink:title="GPUCommonLogger.h">
<polygon fill="none" stroke="#000000" points="94.5,-56.5 94.5,-75.5 217.5,-75.5 217.5,-56.5 94.5,-56.5"/>
<text text-anchor="middle" x="156" y="-63.5" font-family="Helvetica,sans-Serif" font-size="10.00" fill="#000000">GPUCommonLogger.h</text>
</a>
</g>
</g>
<!-- Node6&#45;&gt;Node14 -->
<g id="edge15" class="edge">
<title>Node6&#45;&gt;Node14</title>
<path fill="none" stroke="#191970" d="M305.0569,-112.3733C274.9961,-103.021 229.1974,-88.7725 196.3022,-78.5385"/>
<polygon fill="#191970" stroke="#191970" points="197.1277,-75.1299 186.5393,-75.5011 195.0481,-81.8139 197.1277,-75.1299"/>
</g>
<!-- Node13 -->
<g id="node14" class="node">
<title>Node13</title>
<polygon fill="none" stroke="#bfbfbf" points="798.5,-.5 798.5,-19.5 857.5,-19.5 857.5,-.5 798.5,-.5"/>
<text text-anchor="middle" x="828" y="-7.5" font-family="Helvetica,sans-Serif" font-size="10.00" fill="#000000">Rtypes.h</text>
</g>
<!-- Node12&#45;&gt;Node13 -->
<g id="edge14" class="edge">
<title>Node12&#45;&gt;Node13</title>
<path fill="none" stroke="#191970" d="M628.4779,-56.4263C667.9509,-47.8385 727.4301,-34.676 788.4148,-20.0894"/>
<polygon fill="#191970" stroke="#191970" points="789.3063,-23.475 798.2126,-17.7367 787.6718,-16.6684 789.3063,-23.475"/>
</g>
<!-- Node14&#45;&gt;Node15 -->
<g id="edge16" class="edge">
<title>Node14&#45;&gt;Node15</title>
<path fill="none" stroke="#191970" d="M136.5746,-56.3733C118.5979,-47.4644 91.6559,-34.1127 71.291,-24.0203"/>
<polygon fill="#191970" stroke="#191970" points="72.6861,-20.8055 62.1719,-19.5011 69.5778,-27.0776 72.6861,-20.8055"/>
</g>
<!-- Node16 -->
<g id="node17" class="node">
<title>Node16</title>
<polygon fill="none" stroke="#bfbfbf" points="133,-.5 133,-19.5 179,-19.5 179,-.5 133,-.5"/>
<text text-anchor="middle" x="156" y="-7.5" font-family="Helvetica,sans-Serif" font-size="10.00" fill="#000000">cstdio</text>
</g>
<!-- Node14&#45;&gt;Node16 -->
<g id="edge17" class="edge">
<title>Node14&#45;&gt;Node16</title>
<path fill="none" stroke="#191970" d="M156,-56.2455C156,-48.9382 156,-38.6944 156,-29.7046"/>
<polygon fill="#191970" stroke="#191970" points="159.5001,-29.6426 156,-19.6427 152.5001,-29.6427 159.5001,-29.6426"/>
</g>
<!-- Node21&#45;&gt;Node1 -->
<g id="edge32" class="edge">
<title>Node21&#45;&gt;Node1</title>
<path fill="none" stroke="#191970" d="M581.8198,-280.4369C537.2419,-270.3302 467.218,-254.4543 421.7063,-244.1358"/>
<polygon fill="#191970" stroke="#191970" points="422.3488,-240.6927 411.8224,-241.8949 420.8009,-247.5195 422.3488,-240.6927"/>
</g>
<!-- Node21&#45;&gt;Node2 -->
<g id="edge31" class="edge">
<title>Node21&#45;&gt;Node2</title>
<path fill="none" stroke="#191970" d="M604.9427,-280.3396C589.6133,-272.0052 568.0579,-258.9698 552,-244 536.9032,-229.9262 523.2252,-210.6896 514.1813,-196.6154"/>
<polygon fill="#191970" stroke="#191970" points="516.9605,-194.4576 508.6999,-187.8234 511.0204,-198.161 516.9605,-194.4576"/>
</g>
<!-- Node21&#45;&gt;Node3 -->
<g id="edge28" class="edge">
<title>Node21&#45;&gt;Node3</title>
<path fill="none" stroke="#191970" d="M584.8187,-280.394C529.6127,-264.5503 437.9679,-228.5223 460,-168 471.115,-137.4671 479.1907,-128.8062 507,-112 519.7703,-104.2824 598.2498,-88.3754 655.7786,-77.4483"/>
<polygon fill="#191970" stroke="#191970" points="656.7193,-80.8326 665.8956,-75.5368 655.4197,-73.9543 656.7193,-80.8326"/>
</g>
<!-- Node21&#45;&gt;Node13 -->
<g id="edge29" class="edge">
<title>Node21&#45;&gt;Node13</title>
<path fill="none" stroke="#191970" d="M674.7129,-281.3747C677.8532,-280.8943 680.9681,-280.4319 684,-280 818.6952,-260.811 867.295,-306.7799 988,-244 1022.9062,-225.8449 1047,-217.3453 1047,-178 1047,-178 1047,-178 1047,-122 1047,-42.3087 930.6302,-19.2861 867.5463,-12.6603"/>
<polygon fill="#191970" stroke="#191970" points="867.824,-9.171 857.5353,-11.6993 867.1551,-16.139 867.824,-9.171"/>
</g>
<!-- Node21&#45;&gt;Node17 -->
<g id="edge41" class="edge">
<title>Node21&#45;&gt;Node17</title>
<path fill="none" stroke="#191970" d="M619.9553,-280.2537C612.5419,-262.2178 596.4853,-222.3413 585,-188 579.859,-172.6282 574.8204,-154.9716 571.2251,-141.791"/>
<polygon fill="#191970" stroke="#191970" points="574.5482,-140.6703 568.5739,-131.9205 567.7878,-142.4861 574.5482,-140.6703"/>
</g>
<!-- Node22 -->
<g id="node23" class="node">
<title>Node22</title>
<polygon fill="none" stroke="#bfbfbf" points="851.5,-168.5 851.5,-187.5 898.5,-187.5 898.5,-168.5 851.5,-168.5"/>
<text text-anchor="middle" x="875" y="-175.5" font-family="Helvetica,sans-Serif" font-size="10.00" fill="#000000">cmath</text>
</g>
<!-- Node21&#45;&gt;Node22 -->
<g id="edge26" class="edge">
<title>Node21&#45;&gt;Node22</title>
<path fill="none" stroke="#191970" d="M667.4125,-280.4299C710.1245,-270.6271 772.0323,-255.2692 794,-244 819.0143,-231.1679 843.4289,-209.6829 858.8017,-194.7253"/>
<polygon fill="#191970" stroke="#191970" points="861.3599,-197.1172 865.9718,-187.5788 856.4183,-192.1592 861.3599,-197.1172"/>
</g>
<!-- Node23 -->
<g id="node24" class="node">
<title>Node23</title>
<polygon fill="none" stroke="#bfbfbf" points="786.5,-168.5 786.5,-187.5 833.5,-187.5 833.5,-168.5 786.5,-168.5"/>
<text text-anchor="middle" x="810" y="-175.5" font-family="Helvetica,sans-Serif" font-size="10.00" fill="#000000">vector</text>
</g>
<!-- Node21&#45;&gt;Node23 -->
<g id="edge27" class="edge">
<title>Node21&#45;&gt;Node23</title>
<path fill="none" stroke="#191970" d="M666.6048,-280.4291C704.2399,-271.3259 755.6133,-257.1128 772,-244 787.119,-231.9016 797.376,-212.0454 803.3857,-197.2671"/>
<polygon fill="#191970" stroke="#191970" points="806.7817,-198.1794 807.0199,-187.5873 800.2283,-195.719 806.7817,-198.1794"/>
</g>
<!-- Node24 -->
<g id="node25" class="node">
<title>Node24</title>
<polygon fill="none" stroke="#bfbfbf" points="594,-168.5 594,-187.5 654,-187.5 654,-168.5 594,-168.5"/>
<text text-anchor="middle" x="624" y="-175.5" font-family="Helvetica,sans-Serif" font-size="10.00" fill="#000000">TString.h</text>
</g>
<!-- Node21&#45;&gt;Node24 -->
<g id="edge30" class="edge">
<title>Node21&#45;&gt;Node24</title>
<path fill="none" stroke="#191970" d="M624,-280.4509C624,-262.184 624,-221.9553 624,-197.6976"/>
<polygon fill="#191970" stroke="#191970" points="627.5001,-197.5249 624,-187.5249 620.5001,-197.5249 627.5001,-197.5249"/>
</g>
<!-- Node25 -->
<g id="node26" class="node">
<title>Node25</title>
<g id="a_node26"><a xlink:href="../../d2/da7/SplineHelper1D_8h.html" target="_top" xlink:title="Definition of SplineHelper1D class. ">
<polygon fill="none" stroke="#000000" points="661.5,-224.5 661.5,-243.5 762.5,-243.5 762.5,-224.5 661.5,-224.5"/>
<text text-anchor="middle" x="712" y="-231.5" font-family="Helvetica,sans-Serif" font-size="10.00" fill="#000000">SplineHelper1D.h</text>
</a>
</g>
</g>
<!-- Node21&#45;&gt;Node25 -->
<g id="edge33" class="edge">
<title>Node21&#45;&gt;Node25</title>
<path fill="none" stroke="#191970" d="M639.3284,-280.2455C652.8303,-271.6534 672.7122,-259.0014 688.2686,-249.1018"/>
<polygon fill="#191970" stroke="#191970" points="690.2897,-251.9643 696.8472,-243.6427 686.5315,-246.0587 690.2897,-251.9643"/>
</g>
<!-- Node25&#45;&gt;Node2 -->
<g id="edge39" class="edge">
<title>Node25&#45;&gt;Node2</title>
<path fill="none" stroke="#191970" d="M676.0716,-224.3733C640.502,-214.8426 585.9555,-200.2273 547.6268,-189.9574"/>
<polygon fill="#191970" stroke="#191970" points="548.3302,-186.5225 537.7651,-187.315 546.5185,-193.284 548.3302,-186.5225"/>
</g>
<!-- Node25&#45;&gt;Node3 -->
<g id="edge36" class="edge">
<title>Node25&#45;&gt;Node3</title>
<path fill="none" stroke="#191970" d="M712.3398,-224.4862C713.2882,-197.9293 715.9798,-122.5651 717.2798,-86.1655"/>
<polygon fill="#191970" stroke="#191970" points="720.7898,-85.9465 717.649,-75.8279 713.7942,-85.6966 720.7898,-85.9465"/>
</g>
<!-- Node25&#45;&gt;Node13 -->
<g id="edge37" class="edge">
<title>Node25&#45;&gt;Node13</title>
<path fill="none" stroke="#191970" d="M716.9844,-224.375C734.6832,-190.1979 794.7073,-74.2894 818.3325,-28.6683"/>
<polygon fill="#191970" stroke="#191970" points="821.5436,-30.0786 823.0342,-19.5891 815.3276,-26.8596 821.5436,-30.0786"/>
</g>
<!-- Node25&#45;&gt;Node17 -->
<g id="edge40" class="edge">
<title>Node25&#45;&gt;Node17</title>
<path fill="none" stroke="#191970" d="M706.8575,-224.3133C699.0123,-210.3084 682.8526,-184.3015 663,-168 645.8275,-153.8993 623.6126,-142.9557 604.776,-135.2867"/>
<polygon fill="#191970" stroke="#191970" points="605.8662,-131.9551 595.2782,-131.5755 603.3185,-138.475 605.8662,-131.9551"/>
</g>
<!-- Node25&#45;&gt;Node22 -->
<g id="edge34" class="edge">
<title>Node25&#45;&gt;Node22</title>
<path fill="none" stroke="#191970" d="M740.0207,-224.3733C768.2345,-214.6802 811.7574,-199.7275 841.713,-189.436"/>
<polygon fill="#191970" stroke="#191970" points="842.9898,-192.6982 851.31,-186.1389 840.7153,-186.078 842.9898,-192.6982"/>
</g>
<!-- Node25&#45;&gt;Node23 -->
<g id="edge35" class="edge">
<title>Node25&#45;&gt;Node23</title>
<path fill="none" stroke="#191970" d="M729.0703,-224.2455C744.247,-215.5731 766.6621,-202.7645 784.0563,-192.825"/>
<polygon fill="#191970" stroke="#191970" points="786.1794,-195.643 793.1253,-187.6427 782.7064,-189.5653 786.1794,-195.643"/>
</g>
<!-- Node25&#45;&gt;Node24 -->
<g id="edge38" class="edge">
<title>Node25&#45;&gt;Node24</title>
<path fill="none" stroke="#191970" d="M696.6716,-224.2455C683.1697,-215.6534 663.2878,-203.0014 647.7314,-193.1018"/>
<polygon fill="#191970" stroke="#191970" points="649.4685,-190.0587 639.1528,-187.6427 645.7103,-195.9643 649.4685,-190.0587"/>
</g>
<!-- Node28&#45;&gt;Node3 -->
<g id="edge46" class="edge">
<title>Node28&#45;&gt;Node3</title>
<path fill="none" stroke="#191970" d="M921.5458,-224.4735C921.8437,-210.6682 920.4913,-184.9075 908,-168 872.9428,-120.5486 809.0524,-92.8665 765.1091,-78.5952"/>
<polygon fill="#191970" stroke="#191970" points="766.0912,-75.2352 755.5021,-75.5846 763.9979,-81.9149 766.0912,-75.2352"/>
</g>
<!-- Node28&#45;&gt;Node22 -->
<g id="edge47" class="edge">
<title>Node28&#45;&gt;Node22</title>
<path fill="none" stroke="#191970" d="M912.9874,-224.2455C906.5232,-216.3761 897.2615,-205.101 889.5017,-195.6542"/>
<polygon fill="#191970" stroke="#191970" points="891.9727,-193.1484 882.9208,-187.6427 886.5636,-197.5916 891.9727,-193.1484"/>
</g>
<!-- Node29 -->
<g id="node30" class="node">
<title>Node29</title>
<polygon fill="none" stroke="#bfbfbf" points="955,-168.5 955,-187.5 1019,-187.5 1019,-168.5 955,-168.5"/>
<text text-anchor="middle" x="987" y="-175.5" font-family="Helvetica,sans-Serif" font-size="10.00" fill="#000000">algorithm</text>
</g>
<!-- Node28&#45;&gt;Node29 -->
<g id="edge48" class="edge">
<title>Node28&#45;&gt;Node29</title>
<path fill="none" stroke="#191970" d="M932.4963,-224.2455C942.2442,-215.9746 956.4259,-203.9416 967.8798,-194.2232"/>
<polygon fill="#191970" stroke="#191970" points="970.2747,-196.7813 975.6354,-187.6427 965.7459,-191.4437 970.2747,-196.7813"/>
</g>
</g>
</svg>
