<?xml version="1.0" encoding="UTF-8" standalone="no"?>
<!DOCTYPE svg PUBLIC "-//W3C//DTD SVG 1.1//EN"
 "http://www.w3.org/Graphics/SVG/1.1/DTD/svg11.dtd">
<!-- Generated by graphviz version 2.40.1 (20161225.0304)
 -->
<!-- Title: MultiplicityTableTask Pages: 1 -->
<svg width="175pt" height="298pt"
 viewBox="0.00 0.00 175.00 298.00" xmlns="http://www.w3.org/2000/svg" xmlns:xlink="http://www.w3.org/1999/xlink">
<g id="graph0" class="graph" transform="scale(1 1) rotate(0) translate(4 294)">
<title>MultiplicityTableTask</title>
<!-- Node1 -->
<g id="node1" class="node">
<title>Node1</title>
<polygon fill="#bfbfbf" stroke="#000000" points="24.5,-.5 24.5,-68.5 142.5,-68.5 142.5,-.5 24.5,-.5"/>
<text text-anchor="middle" x="83.5" y="-56.5" font-family="Helvetica,sans-Serif" font-size="10.00" fill="#000000">MultiplicityTableTask</text>
<polyline fill="none" stroke="#000000" points="24.5,-49.5 142.5,-49.5 "/>
<text text-anchor="middle" x="83.5" y="-37.5" font-family="Helvetica,sans-Serif" font-size="10.00" fill="#000000"> </text>
<polyline fill="none" stroke="#000000" points="24.5,-30.5 142.5,-30.5 "/>
<text text-anchor="start" x="32.5" y="-18.5" font-family="Helvetica,sans-Serif" font-size="10.00" fill="#000000">+ getVZero()</text>
<text text-anchor="start" x="32.5" y="-7.5" font-family="Helvetica,sans-Serif" font-size="10.00" fill="#000000">+ process()</text>
</g>
<!-- Node2 -->
<g id="node2" class="node">
<title>Node2</title>
<g id="a_node2"><a xlink:href="../../d6/d86/structo2_1_1framework_1_1Produces.html" target="_top" xlink:title="{o2::framework::Produces\l\&lt; aod::Mults \&gt;\n||}">
<polygon fill="none" stroke="#000000" points="14.5,-116.5 14.5,-184.5 152.5,-184.5 152.5,-116.5 14.5,-116.5"/>
<text text-anchor="start" x="22.5" y="-172.5" font-family="Helvetica,sans-Serif" font-size="10.00" fill="#000000">o2::framework::Produces</text>
<text text-anchor="middle" x="83.5" y="-161.5" font-family="Helvetica,sans-Serif" font-size="10.00" fill="#000000">&lt; aod::Mults &gt;</text>
<polyline fill="none" stroke="#000000" points="14.5,-154.5 152.5,-154.5 "/>
<text text-anchor="middle" x="83.5" y="-142.5" font-family="Helvetica,sans-Serif" font-size="10.00" fill="#000000"> </text>
<polyline fill="none" stroke="#000000" points="14.5,-135.5 152.5,-135.5 "/>
<text text-anchor="middle" x="83.5" y="-123.5" font-family="Helvetica,sans-Serif" font-size="10.00" fill="#000000"> </text>
</a>
</g>
</g>
<!-- Node2&#45;&gt;Node1 -->
<g id="edge1" class="edge">
<title>Node2&#45;&gt;Node1</title>
<path fill="none" stroke="#404040" d="M83.5,-116.3236C83.5,-105.213 83.5,-92.6908 83.5,-80.8451"/>
<polygon fill="none" stroke="#404040" points="83.5001,-80.833 79.5,-74.833 83.5,-68.833 87.5,-74.833 83.5001,-80.833"/>
<text text-anchor="middle" x="100.5" y="-90" font-family="Helvetica,sans-Serif" font-size="10.00" fill="#000000"> +mult</text>
</g>
<!-- Node3 -->
<g id="node3" class="node">
<title>Node3</title>
<g id="a_node3"><a xlink:href="../../d6/d86/structo2_1_1framework_1_1Produces.html" target="_top" xlink:title="{o2::framework::Produces\&lt; T \&gt;\n||}">
<polygon fill="none" stroke="#000000" points="0,-232.5 0,-289.5 167,-289.5 167,-232.5 0,-232.5"/>
<text text-anchor="middle" x="83.5" y="-277.5" font-family="Helvetica,sans-Serif" font-size="10.00" fill="#000000">o2::framework::Produces&lt; T &gt;</text>
<polyline fill="none" stroke="#000000" points="0,-270.5 167,-270.5 "/>
<text text-anchor="middle" x="83.5" y="-258.5" font-family="Helvetica,sans-Serif" font-size="10.00" fill="#000000"> </text>
<polyline fill="none" stroke="#000000" points="0,-251.5 167,-251.5 "/>
<text text-anchor="middle" x="83.5" y="-239.5" font-family="Helvetica,sans-Serif" font-size="10.00" fill="#000000"> </text>
</a>
</g>
</g>
<!-- Node3&#45;&gt;Node2 -->
<g id="edge2" class="edge">
<title>Node3&#45;&gt;Node2</title>
<path fill="none" stroke="#ffa500" d="M83.5,-221.9162C83.5,-209.7375 83.5,-196.4096 83.5,-184.6001"/>
<polygon fill="#ffa500" stroke="#ffa500" points="80.0001,-222.2559 83.5,-232.2559 87.0001,-222.2559 80.0001,-222.2559"/>
<text text-anchor="middle" x="121.5" y="-206" font-family="Helvetica,sans-Serif" font-size="10.00" fill="#000000"> &lt; aod::Mults &gt;</text>
</g>
</g>
</svg>
