<?xml version="1.0" encoding="UTF-8" standalone="no"?>
<!DOCTYPE svg PUBLIC "-//W3C//DTD SVG 1.1//EN"
 "http://www.w3.org/Graphics/SVG/1.1/DTD/svg11.dtd">
<!-- Generated by graphviz version 2.40.1 (20161225.0304)
 -->
<!-- Title: /home/travis/build/AliceO2Group/AliceO2/Detectors/MUON/MID/Simulation/src/PreClusterLabeler.cxx Pages: 1 -->
<svg width="1107pt" height="374pt"
 viewBox="0.00 0.00 1107.00 374.00" xmlns="http://www.w3.org/2000/svg" xmlns:xlink="http://www.w3.org/1999/xlink">
<g id="graph0" class="graph" transform="scale(1 1) rotate(0) translate(4 370)">
<title>/home/travis/build/AliceO2Group/AliceO2/Detectors/MUON/MID/Simulation/src/PreClusterLabeler.cxx</title>
<!-- Node0 -->
<g id="node1" class="node">
<title>Node0</title>
<polygon fill="#bfbfbf" stroke="#000000" points="460.5,-313.5 460.5,-365.5 638.5,-365.5 638.5,-313.5 460.5,-313.5"/>
<text text-anchor="start" x="468.5" y="-353.5" font-family="Helvetica,sans-Serif" font-size="10.00" fill="#000000">/home/travis/build</text>
<text text-anchor="start" x="468.5" y="-342.5" font-family="Helvetica,sans-Serif" font-size="10.00" fill="#000000">/AliceO2Group/AliceO2</text>
<text text-anchor="start" x="468.5" y="-331.5" font-family="Helvetica,sans-Serif" font-size="10.00" fill="#000000">/Detectors/MUON/MID/Simulation</text>
<text text-anchor="middle" x="549.5" y="-320.5" font-family="Helvetica,sans-Serif" font-size="10.00" fill="#000000">/src/PreClusterLabeler.cxx</text>
</g>
<!-- Node1 -->
<g id="node2" class="node">
<title>Node1</title>
<g id="a_node2"><a xlink:href="../../de/d28/PreClusterLabeler_8h.html" target="_top" xlink:title="PreClusterLabeler for MID. ">
<polygon fill="none" stroke="#000000" points="479,-246.5 479,-276.5 620,-276.5 620,-246.5 479,-246.5"/>
<text text-anchor="start" x="487" y="-264.5" font-family="Helvetica,sans-Serif" font-size="10.00" fill="#000000">MIDSimulation/PreCluster</text>
<text text-anchor="middle" x="549.5" y="-253.5" font-family="Helvetica,sans-Serif" font-size="10.00" fill="#000000">Labeler.h</text>
</a>
</g>
</g>
<!-- Node0&#45;&gt;Node1 -->
<g id="edge1" class="edge">
<title>Node0&#45;&gt;Node1</title>
<path fill="none" stroke="#191970" d="M549.5,-313.0928C549.5,-304.516 549.5,-295.0289 549.5,-286.5538"/>
<polygon fill="#191970" stroke="#191970" points="553.0001,-286.5045 549.5,-276.5046 546.0001,-286.5046 553.0001,-286.5045"/>
</g>
<!-- Node2 -->
<g id="node3" class="node">
<title>Node2</title>
<polygon fill="none" stroke="#bfbfbf" points="379.5,-118 379.5,-137 427.5,-137 427.5,-118 379.5,-118"/>
<text text-anchor="middle" x="403.5" y="-125" font-family="Helvetica,sans-Serif" font-size="10.00" fill="#000000">gsl/gsl</text>
</g>
<!-- Node1&#45;&gt;Node2 -->
<g id="edge2" class="edge">
<title>Node1&#45;&gt;Node2</title>
<path fill="none" stroke="#191970" d="M533.0357,-246.389C505.4783,-221.0965 450.2251,-170.3847 421.608,-144.1196"/>
<polygon fill="#191970" stroke="#191970" points="423.6983,-141.2874 413.9642,-137.1042 418.965,-146.4446 423.6983,-141.2874"/>
</g>
<!-- Node3 -->
<g id="node4" class="node">
<title>Node3</title>
<g id="a_node4"><a xlink:href="../../d2/df9/MUON_2MID_2include_2DataFormatsMID_2ROFRecord_8h.html" target="_top" xlink:title="Definition of the MID event record. ">
<polygon fill="none" stroke="#000000" points="88,-185 88,-204 251,-204 251,-185 88,-185"/>
<text text-anchor="middle" x="169.5" y="-192" font-family="Helvetica,sans-Serif" font-size="10.00" fill="#000000">DataFormatsMID/ROFRecord.h</text>
</a>
</g>
</g>
<!-- Node1&#45;&gt;Node3 -->
<g id="edge3" class="edge">
<title>Node1&#45;&gt;Node3</title>
<path fill="none" stroke="#191970" d="M478.9155,-249.0548C408.5841,-236.6543 301.541,-217.7809 233.5844,-205.7991"/>
<polygon fill="#191970" stroke="#191970" points="233.894,-202.2998 223.4381,-204.0101 232.6784,-209.1934 233.894,-202.2998"/>
</g>
<!-- Node10 -->
<g id="node11" class="node">
<title>Node10</title>
<g id="a_node11"><a xlink:href="../../db/d14/MCTruthContainer_8h.html" target="_top" xlink:title="Definition of a container to keep Monte Carlo truth external to simulation objects. ">
<polygon fill="none" stroke="#000000" points="550,-179.5 550,-209.5 677,-209.5 677,-179.5 550,-179.5"/>
<text text-anchor="start" x="558" y="-197.5" font-family="Helvetica,sans-Serif" font-size="10.00" fill="#000000">SimulationDataFormat</text>
<text text-anchor="middle" x="613.5" y="-186.5" font-family="Helvetica,sans-Serif" font-size="10.00" fill="#000000">/MCTruthContainer.h</text>
</a>
</g>
</g>
<!-- Node1&#45;&gt;Node10 -->
<g id="edge10" class="edge">
<title>Node1&#45;&gt;Node10</title>
<path fill="none" stroke="#191970" d="M564.0226,-246.2967C572.2872,-237.6446 582.7955,-226.6438 592.0002,-217.0076"/>
<polygon fill="#191970" stroke="#191970" points="594.6584,-219.2919 599.0349,-209.6432 589.5966,-214.4567 594.6584,-219.2919"/>
</g>
<!-- Node18 -->
<g id="node19" class="node">
<title>Node18</title>
<g id="a_node19"><a xlink:href="../../d7/dcd/MCCompLabel_8h.html" target="_top" xlink:title="SimulationDataFormat\l/MCCompLabel.h">
<polygon fill="none" stroke="#000000" points="972,-112.5 972,-142.5 1099,-142.5 1099,-112.5 972,-112.5"/>
<text text-anchor="start" x="980" y="-130.5" font-family="Helvetica,sans-Serif" font-size="10.00" fill="#000000">SimulationDataFormat</text>
<text text-anchor="middle" x="1035.5" y="-119.5" font-family="Helvetica,sans-Serif" font-size="10.00" fill="#000000">/MCCompLabel.h</text>
</a>
</g>
</g>
<!-- Node1&#45;&gt;Node18 -->
<g id="edge21" class="edge">
<title>Node1&#45;&gt;Node18</title>
<path fill="none" stroke="#191970" d="M604.3057,-246.389C694.6951,-221.4668 874.5981,-171.8639 970.9831,-145.2886"/>
<polygon fill="#191970" stroke="#191970" points="972.1847,-148.588 980.8946,-142.5558 970.324,-141.8398 972.1847,-148.588"/>
</g>
<!-- Node19 -->
<g id="node20" class="node">
<title>Node19</title>
<g id="a_node20"><a xlink:href="../../d0/d8d/MID_2Clustering_2include_2MIDClustering_2PreCluster_8h.html" target="_top" xlink:title="Pre&#45;cluster structure for MID. ">
<polygon fill="none" stroke="#000000" points="278.5,-185 278.5,-204 424.5,-204 424.5,-185 278.5,-185"/>
<text text-anchor="middle" x="351.5" y="-192" font-family="Helvetica,sans-Serif" font-size="10.00" fill="#000000">MIDClustering/PreCluster.h</text>
</a>
</g>
</g>
<!-- Node1&#45;&gt;Node19 -->
<g id="edge23" class="edge">
<title>Node1&#45;&gt;Node19</title>
<path fill="none" stroke="#191970" d="M505.0649,-246.4639C470.2433,-234.6808 422.3239,-218.4657 389.3222,-207.2984"/>
<polygon fill="#191970" stroke="#191970" points="390.1845,-203.8953 379.5902,-204.0053 387.9408,-210.526 390.1845,-203.8953"/>
</g>
<!-- Node21 -->
<g id="node22" class="node">
<title>Node21</title>
<g id="a_node22"><a xlink:href="../../de/da1/Detectors_2MUON_2MID_2Simulation_2include_2MIDSimulation_2MCLabel_8h.html" target="_top" xlink:title="Label for MID. ">
<polygon fill="none" stroke="#000000" points="932,-185 932,-204 1073,-204 1073,-185 932,-185"/>
<text text-anchor="middle" x="1002.5" y="-192" font-family="Helvetica,sans-Serif" font-size="10.00" fill="#000000">MIDSimulation/MCLabel.h</text>
</a>
</g>
</g>
<!-- Node1&#45;&gt;Node21 -->
<g id="edge26" class="edge">
<title>Node1&#45;&gt;Node21</title>
<path fill="none" stroke="#191970" d="M620.2813,-251.0313C703.9733,-238.653 842.6418,-218.1435 927.9461,-205.5267"/>
<polygon fill="#191970" stroke="#191970" points="928.697,-208.9538 938.0772,-204.0283 927.6727,-202.0292 928.697,-208.9538"/>
</g>
<!-- Node4 -->
<g id="node5" class="node">
<title>Node4</title>
<g id="a_node5"><a xlink:href="../../d9/d80/InteractionRecord_8h.html" target="_top" xlink:title="CommonDataFormat/Interaction\lRecord.h">
<polygon fill="none" stroke="#000000" points="73.5,-112.5 73.5,-142.5 247.5,-142.5 247.5,-112.5 73.5,-112.5"/>
<text text-anchor="start" x="81.5" y="-130.5" font-family="Helvetica,sans-Serif" font-size="10.00" fill="#000000">CommonDataFormat/Interaction</text>
<text text-anchor="middle" x="160.5" y="-119.5" font-family="Helvetica,sans-Serif" font-size="10.00" fill="#000000">Record.h</text>
</a>
</g>
</g>
<!-- Node3&#45;&gt;Node4 -->
<g id="edge4" class="edge">
<title>Node3&#45;&gt;Node4</title>
<path fill="none" stroke="#191970" d="M168.2105,-184.9005C167.0834,-176.5099 165.3956,-163.9451 163.8862,-152.7085"/>
<polygon fill="#191970" stroke="#191970" points="167.3181,-151.9668 162.5178,-142.5218 160.3804,-152.8987 167.3181,-151.9668"/>
</g>
<!-- Node5 -->
<g id="node6" class="node">
<title>Node5</title>
<polygon fill="none" stroke="#bfbfbf" points="471,-.5 471,-19.5 530,-19.5 530,-.5 471,-.5"/>
<text text-anchor="middle" x="500.5" y="-7.5" font-family="Helvetica,sans-Serif" font-size="10.00" fill="#000000">Rtypes.h</text>
</g>
<!-- Node4&#45;&gt;Node5 -->
<g id="edge5" class="edge">
<title>Node4&#45;&gt;Node5</title>
<path fill="none" stroke="#191970" d="M220.4309,-112.4864C253.6892,-103.4044 295.4889,-90.7396 331.5,-76 349.163,-68.7704 352.0048,-63.6266 369.5,-56 399.6735,-42.8467 434.9307,-30.6372 461.2629,-22.1073"/>
<polygon fill="#191970" stroke="#191970" points="462.4331,-25.4077 470.8887,-19.0239 460.2977,-18.7413 462.4331,-25.4077"/>
</g>
<!-- Node6 -->
<g id="node7" class="node">
<title>Node6</title>
<polygon fill="none" stroke="#bfbfbf" points="0,-56.5 0,-75.5 49,-75.5 49,-56.5 0,-56.5"/>
<text text-anchor="middle" x="24.5" y="-63.5" font-family="Helvetica,sans-Serif" font-size="10.00" fill="#000000">iosfwd</text>
</g>
<!-- Node4&#45;&gt;Node6 -->
<g id="edge6" class="edge">
<title>Node4&#45;&gt;Node6</title>
<path fill="none" stroke="#191970" d="M127.2307,-112.4554C105.1359,-102.464 76.354,-89.4487 54.8781,-79.7372"/>
<polygon fill="#191970" stroke="#191970" points="56.129,-76.4616 45.5752,-75.5303 53.2447,-82.8398 56.129,-76.4616"/>
</g>
<!-- Node7 -->
<g id="node8" class="node">
<title>Node7</title>
<polygon fill="none" stroke="#bfbfbf" points="67,-56.5 67,-75.5 114,-75.5 114,-56.5 67,-56.5"/>
<text text-anchor="middle" x="90.5" y="-63.5" font-family="Helvetica,sans-Serif" font-size="10.00" fill="#000000">cmath</text>
</g>
<!-- Node4&#45;&gt;Node7 -->
<g id="edge7" class="edge">
<title>Node4&#45;&gt;Node7</title>
<path fill="none" stroke="#191970" d="M143.1966,-112.2977C132.9738,-103.3163 120.0177,-91.9334 109.5104,-82.702"/>
<polygon fill="#191970" stroke="#191970" points="111.5305,-79.8178 101.7079,-75.8469 106.9103,-85.0766 111.5305,-79.8178"/>
</g>
<!-- Node8 -->
<g id="node9" class="node">
<title>Node8</title>
<polygon fill="none" stroke="#bfbfbf" points="378.5,-56.5 378.5,-75.5 428.5,-75.5 428.5,-56.5 378.5,-56.5"/>
<text text-anchor="middle" x="403.5" y="-63.5" font-family="Helvetica,sans-Serif" font-size="10.00" fill="#000000">cstdint</text>
</g>
<!-- Node4&#45;&gt;Node8 -->
<g id="edge8" class="edge">
<title>Node4&#45;&gt;Node8</title>
<path fill="none" stroke="#191970" d="M220.3216,-112.4602C260.988,-102.2209 316.002,-88.3393 364.5,-76 365.7574,-75.6801 367.0376,-75.354 368.3305,-75.0243"/>
<polygon fill="#191970" stroke="#191970" points="369.5065,-78.3363 378.3283,-72.4689 367.773,-71.5543 369.5065,-78.3363"/>
</g>
<!-- Node9 -->
<g id="node10" class="node">
<title>Node9</title>
<g id="a_node10"><a xlink:href="../../d4/dc6/LHCConstants_8h.html" target="_top" xlink:title="Header to collect LHC related constants. ">
<polygon fill="none" stroke="#000000" points="132.5,-56.5 132.5,-75.5 322.5,-75.5 322.5,-56.5 132.5,-56.5"/>
<text text-anchor="middle" x="227.5" y="-63.5" font-family="Helvetica,sans-Serif" font-size="10.00" fill="#000000">CommonConstants/LHCConstants.h</text>
</a>
</g>
</g>
<!-- Node4&#45;&gt;Node9 -->
<g id="edge9" class="edge">
<title>Node4&#45;&gt;Node9</title>
<path fill="none" stroke="#191970" d="M177.0618,-112.2977C186.8465,-103.3163 199.2474,-91.9334 209.3043,-82.702"/>
<polygon fill="#191970" stroke="#191970" points="211.7722,-85.1876 216.7725,-75.8469 207.0387,-80.0307 211.7722,-85.1876"/>
</g>
<!-- Node10&#45;&gt;Node2 -->
<g id="edge16" class="edge">
<title>Node10&#45;&gt;Node2</title>
<path fill="none" stroke="#191970" d="M558.4543,-179.4806C524.4822,-169.851 480.1555,-156.6351 441.5,-143 439.585,-142.3245 437.6255,-141.6073 435.655,-140.8661"/>
<polygon fill="#191970" stroke="#191970" points="436.4554,-137.4212 425.8673,-137.0413 433.9075,-143.941 436.4554,-137.4212"/>
</g>
<!-- Node10&#45;&gt;Node8 -->
<g id="edge13" class="edge">
<title>Node10&#45;&gt;Node8</title>
<path fill="none" stroke="#191970" d="M554.4532,-179.3979C528.572,-171.1195 498.6583,-159.1882 474.5,-143 450.4452,-126.8811 428.8442,-101.0215 415.9519,-83.7764"/>
<polygon fill="#191970" stroke="#191970" points="418.7484,-81.6709 410.037,-75.6407 413.0866,-85.7872 418.7484,-81.6709"/>
</g>
<!-- Node11 -->
<g id="node12" class="node">
<title>Node11</title>
<g id="a_node12"><a xlink:href="../../d2/d45/GPUCommonRtypes_8h.html" target="_top" xlink:title="GPUCommonRtypes.h">
<polygon fill="none" stroke="#000000" points="641,-56.5 641,-75.5 766,-75.5 766,-56.5 641,-56.5"/>
<text text-anchor="middle" x="703.5" y="-63.5" font-family="Helvetica,sans-Serif" font-size="10.00" fill="#000000">GPUCommonRtypes.h</text>
</a>
</g>
</g>
<!-- Node10&#45;&gt;Node11 -->
<g id="edge11" class="edge">
<title>Node10&#45;&gt;Node11</title>
<path fill="none" stroke="#191970" d="M643.3239,-179.3907C657.7847,-170.625 674.2092,-158.2839 684.5,-143 695.9968,-125.9251 700.5454,-102.5332 702.3402,-86.0256"/>
<polygon fill="#191970" stroke="#191970" points="705.8448,-86.1173 703.1944,-75.8593 698.8694,-85.5312 705.8448,-86.1173"/>
</g>
<!-- Node12 -->
<g id="node13" class="node">
<title>Node12</title>
<polygon fill="none" stroke="#bfbfbf" points="731.5,-118 731.5,-137 783.5,-137 783.5,-118 731.5,-118"/>
<text text-anchor="middle" x="757.5" y="-125" font-family="Helvetica,sans-Serif" font-size="10.00" fill="#000000">cassert</text>
</g>
<!-- Node10&#45;&gt;Node12 -->
<g id="edge14" class="edge">
<title>Node10&#45;&gt;Node12</title>
<path fill="none" stroke="#191970" d="M645.8164,-179.4639C670.3043,-168.0702 703.6984,-152.5327 727.5784,-141.4219"/>
<polygon fill="#191970" stroke="#191970" points="729.2686,-144.4958 736.8587,-137.1039 726.3156,-138.1492 729.2686,-144.4958"/>
</g>
<!-- Node13 -->
<g id="node14" class="node">
<title>Node13</title>
<polygon fill="none" stroke="#bfbfbf" points="802,-118 802,-137 867,-137 867,-118 802,-118"/>
<text text-anchor="middle" x="834.5" y="-125" font-family="Helvetica,sans-Serif" font-size="10.00" fill="#000000">stdexcept</text>
</g>
<!-- Node10&#45;&gt;Node13 -->
<g id="edge15" class="edge">
<title>Node10&#45;&gt;Node13</title>
<path fill="none" stroke="#191970" d="M669.8561,-179.428C705.2657,-169.6765 751.7862,-156.3496 792.5,-143 794.8911,-142.216 797.3491,-141.3824 799.8188,-140.5243"/>
<polygon fill="#191970" stroke="#191970" points="801.0441,-143.8033 809.2863,-137.1461 798.6916,-137.2104 801.0441,-143.8033"/>
</g>
<!-- Node14 -->
<g id="node15" class="node">
<title>Node14</title>
<polygon fill="none" stroke="#bfbfbf" points="885,-118 885,-137 954,-137 954,-118 885,-118"/>
<text text-anchor="middle" x="919.5" y="-125" font-family="Helvetica,sans-Serif" font-size="10.00" fill="#000000">type_traits</text>
</g>
<!-- Node10&#45;&gt;Node14 -->
<g id="edge17" class="edge">
<title>Node10&#45;&gt;Node14</title>
<path fill="none" stroke="#191970" d="M677.1012,-184.8424C730.7622,-176.0302 809.3441,-161.562 876.5,-143 879.4639,-142.1808 882.5157,-141.2544 885.5609,-140.2722"/>
<polygon fill="#191970" stroke="#191970" points="886.8117,-143.5437 895.1496,-137.0068 884.5552,-136.9173 886.8117,-143.5437"/>
</g>
<!-- Node15 -->
<g id="node16" class="node">
<title>Node15</title>
<polygon fill="none" stroke="#bfbfbf" points="483.5,-118 483.5,-137 533.5,-137 533.5,-118 483.5,-118"/>
<text text-anchor="middle" x="508.5" y="-125" font-family="Helvetica,sans-Serif" font-size="10.00" fill="#000000">cstring</text>
</g>
<!-- Node10&#45;&gt;Node15 -->
<g id="edge18" class="edge">
<title>Node10&#45;&gt;Node15</title>
<path fill="none" stroke="#191970" d="M589.936,-179.4639C572.7944,-168.526 549.6679,-153.769 532.4398,-142.7759"/>
<polygon fill="#191970" stroke="#191970" points="533.8636,-139.5326 523.5509,-137.1039 530.0982,-145.4336 533.8636,-139.5326"/>
</g>
<!-- Node16 -->
<g id="node17" class="node">
<title>Node16</title>
<polygon fill="none" stroke="#bfbfbf" points="551.5,-118 551.5,-137 609.5,-137 609.5,-118 551.5,-118"/>
<text text-anchor="middle" x="580.5" y="-125" font-family="Helvetica,sans-Serif" font-size="10.00" fill="#000000">memory</text>
</g>
<!-- Node10&#45;&gt;Node16 -->
<g id="edge19" class="edge">
<title>Node10&#45;&gt;Node16</title>
<path fill="none" stroke="#191970" d="M606.0118,-179.2967C601.1697,-169.4658 594.8341,-156.6026 589.688,-146.1545"/>
<polygon fill="#191970" stroke="#191970" points="592.7645,-144.4794 585.2062,-137.055 586.4849,-147.5724 592.7645,-144.4794"/>
</g>
<!-- Node17 -->
<g id="node18" class="node">
<title>Node17</title>
<polygon fill="none" stroke="#bfbfbf" points="628,-118 628,-137 675,-137 675,-118 628,-118"/>
<text text-anchor="middle" x="651.5" y="-125" font-family="Helvetica,sans-Serif" font-size="10.00" fill="#000000">vector</text>
</g>
<!-- Node10&#45;&gt;Node17 -->
<g id="edge20" class="edge">
<title>Node10&#45;&gt;Node17</title>
<path fill="none" stroke="#191970" d="M622.1228,-179.2967C627.756,-169.3645 635.1447,-156.3371 641.1027,-145.8321"/>
<polygon fill="#191970" stroke="#191970" points="644.1917,-147.4801 646.0808,-137.055 638.1029,-144.0266 644.1917,-147.4801"/>
</g>
<!-- Node11&#45;&gt;Node5 -->
<g id="edge12" class="edge">
<title>Node11&#45;&gt;Node5</title>
<path fill="none" stroke="#191970" d="M668.6031,-56.3733C632.8546,-46.5116 577.3712,-31.2059 540.0247,-20.9034"/>
<polygon fill="#191970" stroke="#191970" points="540.5742,-17.4243 530.0035,-18.1389 538.7127,-24.1722 540.5742,-17.4243"/>
</g>
<!-- Node18&#45;&gt;Node11 -->
<g id="edge22" class="edge">
<title>Node18&#45;&gt;Node11</title>
<path fill="none" stroke="#191970" d="M971.923,-113.6801C969.0782,-113.1037 966.2605,-112.5411 963.5,-112 898.2081,-99.2008 823.3743,-86.128 770.8073,-77.2064"/>
<polygon fill="#191970" stroke="#191970" points="771.3735,-73.7525 760.9296,-75.5343 770.2051,-80.6544 771.3735,-73.7525"/>
</g>
<!-- Node19&#45;&gt;Node8 -->
<g id="edge24" class="edge">
<title>Node19&#45;&gt;Node8</title>
<path fill="none" stroke="#191970" d="M352.4603,-184.9564C354.3148,-169.1758 359.2447,-136.9135 370.5,-112 375.0764,-101.8703 382.0497,-91.7131 388.409,-83.5297"/>
<polygon fill="#191970" stroke="#191970" points="391.3301,-85.4852 394.9261,-75.5192 385.9001,-81.0675 391.3301,-85.4852"/>
</g>
<!-- Node20 -->
<g id="node21" class="node">
<title>Node20</title>
<polygon fill="none" stroke="#bfbfbf" points="266,-118 266,-137 323,-137 323,-118 266,-118"/>
<text text-anchor="middle" x="294.5" y="-125" font-family="Helvetica,sans-Serif" font-size="10.00" fill="#000000">ostream</text>
</g>
<!-- Node19&#45;&gt;Node20 -->
<g id="edge25" class="edge">
<title>Node19&#45;&gt;Node20</title>
<path fill="none" stroke="#191970" d="M343.3333,-184.9005C334.4446,-174.4525 320.05,-157.5325 309.1869,-144.7635"/>
<polygon fill="#191970" stroke="#191970" points="311.7972,-142.4303 302.6516,-137.0817 306.4656,-146.9662 311.7972,-142.4303"/>
</g>
<!-- Node21&#45;&gt;Node18 -->
<g id="edge27" class="edge">
<title>Node21&#45;&gt;Node18</title>
<path fill="none" stroke="#191970" d="M1007.2281,-184.9005C1011.4886,-176.2503 1017.9342,-163.164 1023.5954,-151.6699"/>
<polygon fill="#191970" stroke="#191970" points="1026.8225,-153.0392 1028.1012,-142.5218 1020.5429,-149.9462 1026.8225,-153.0392"/>
</g>
</g>
</svg>
