<?xml version="1.0" encoding="UTF-8" standalone="no"?>
<!DOCTYPE svg PUBLIC "-//W3C//DTD SVG 1.1//EN"
 "http://www.w3.org/Graphics/SVG/1.1/DTD/svg11.dtd">
<!-- Generated by graphviz version 2.40.1 (20161225.0304)
 -->
<!-- Title: GPUCA_NAMESPACE::gpu::GPUTPCCFPeakFinder::GPUSharedMemory Pages: 1 -->
<svg width="576pt" height="452pt"
 viewBox="0.00 0.00 576.00 452.00" xmlns="http://www.w3.org/2000/svg" xmlns:xlink="http://www.w3.org/1999/xlink">
<g id="graph0" class="graph" transform="scale(1 1) rotate(0) translate(4 448)">
<title>GPUCA_NAMESPACE::gpu::GPUTPCCFPeakFinder::GPUSharedMemory</title>
<!-- Node3 -->
<g id="node1" class="node">
<title>Node3</title>
<polygon fill="#bfbfbf" stroke="#000000" points="233.5,-.5 233.5,-79.5 373.5,-79.5 373.5,-.5 233.5,-.5"/>
<text text-anchor="start" x="241.5" y="-67.5" font-family="Helvetica,sans-Serif" font-size="10.00" fill="#000000">GPUCA_NAMESPACE::gpu</text>
<text text-anchor="start" x="241.5" y="-56.5" font-family="Helvetica,sans-Serif" font-size="10.00" fill="#000000">::GPUTPCCFPeakFinder</text>
<text text-anchor="middle" x="303.5" y="-45.5" font-family="Helvetica,sans-Serif" font-size="10.00" fill="#000000">::GPUSharedMemory</text>
<polyline fill="none" stroke="#000000" points="233.5,-38.5 373.5,-38.5 "/>
<text text-anchor="middle" x="303.5" y="-26.5" font-family="Helvetica,sans-Serif" font-size="10.00" fill="#000000"> </text>
<polyline fill="none" stroke="#000000" points="233.5,-19.5 373.5,-19.5 "/>
<text text-anchor="middle" x="303.5" y="-7.5" font-family="Helvetica,sans-Serif" font-size="10.00" fill="#000000"> </text>
</g>
<!-- Node4 -->
<g id="node2" class="node">
<title>Node4</title>
<g id="a_node2"><a xlink:href="../../dd/deb/structGPUCA__NAMESPACE_1_1gpu_1_1GPUKernelTemplate_1_1GPUSharedMemoryScan64.html" target="_top" xlink:title="{GPUCA_NAMESPACE::gpu\l::GPUKernelTemplate::\lGPUSharedMemoryScan64\l\&lt; short, GPUCA_GET_THREAD\l_COUNT(GPUCA_LB_CLUSTER_FINDER)\&gt;\n||}">
<polygon fill="none" stroke="#000000" points="0,-155 0,-256 215,-256 215,-155 0,-155"/>
<text text-anchor="start" x="8" y="-244" font-family="Helvetica,sans-Serif" font-size="10.00" fill="#000000">GPUCA_NAMESPACE::gpu</text>
<text text-anchor="start" x="8" y="-233" font-family="Helvetica,sans-Serif" font-size="10.00" fill="#000000">::GPUKernelTemplate::</text>
<text text-anchor="start" x="8" y="-222" font-family="Helvetica,sans-Serif" font-size="10.00" fill="#000000">GPUSharedMemoryScan64</text>
<text text-anchor="start" x="8" y="-211" font-family="Helvetica,sans-Serif" font-size="10.00" fill="#000000">&lt; short, GPUCA_GET_THREAD</text>
<text text-anchor="middle" x="107.5" y="-200" font-family="Helvetica,sans-Serif" font-size="10.00" fill="#000000">_COUNT(GPUCA_LB_CLUSTER_FINDER)&gt;</text>
<polyline fill="none" stroke="#000000" points="0,-193 215,-193 "/>
<text text-anchor="middle" x="107.5" y="-181" font-family="Helvetica,sans-Serif" font-size="10.00" fill="#000000"> </text>
<polyline fill="none" stroke="#000000" points="0,-174 215,-174 "/>
<text text-anchor="middle" x="107.5" y="-162" font-family="Helvetica,sans-Serif" font-size="10.00" fill="#000000"> </text>
</a>
</g>
</g>
<!-- Node4&#45;&gt;Node3 -->
<g id="edge1" class="edge">
<title>Node4&#45;&gt;Node3</title>
<path fill="none" stroke="#191970" d="M175.1941,-148.3399C201.9699,-125.7307 232.0936,-100.2947 256.4207,-79.7532"/>
<polygon fill="none" stroke="#191970" points="172.7539,-145.8195 167.3715,-154.9453 177.2701,-151.1679 172.7539,-145.8195"/>
</g>
<!-- Node5 -->
<g id="node3" class="node">
<title>Node5</title>
<g id="a_node3"><a xlink:href="../../dd/deb/structGPUCA__NAMESPACE_1_1gpu_1_1GPUKernelTemplate_1_1GPUSharedMemoryScan64.html" target="_top" xlink:title="{GPUCA_NAMESPACE::gpu\l::GPUKernelTemplate::\lGPUSharedMemoryScan64\l\&lt; T, I \&gt;\n||}">
<polygon fill="none" stroke="#000000" points="34.5,-353.5 34.5,-443.5 180.5,-443.5 180.5,-353.5 34.5,-353.5"/>
<text text-anchor="start" x="42.5" y="-431.5" font-family="Helvetica,sans-Serif" font-size="10.00" fill="#000000">GPUCA_NAMESPACE::gpu</text>
<text text-anchor="start" x="42.5" y="-420.5" font-family="Helvetica,sans-Serif" font-size="10.00" fill="#000000">::GPUKernelTemplate::</text>
<text text-anchor="start" x="42.5" y="-409.5" font-family="Helvetica,sans-Serif" font-size="10.00" fill="#000000">GPUSharedMemoryScan64</text>
<text text-anchor="middle" x="107.5" y="-398.5" font-family="Helvetica,sans-Serif" font-size="10.00" fill="#000000">&lt; T, I &gt;</text>
<polyline fill="none" stroke="#000000" points="34.5,-391.5 180.5,-391.5 "/>
<text text-anchor="middle" x="107.5" y="-379.5" font-family="Helvetica,sans-Serif" font-size="10.00" fill="#000000"> </text>
<polyline fill="none" stroke="#000000" points="34.5,-372.5 180.5,-372.5 "/>
<text text-anchor="middle" x="107.5" y="-360.5" font-family="Helvetica,sans-Serif" font-size="10.00" fill="#000000"> </text>
</a>
</g>
</g>
<!-- Node5&#45;&gt;Node4 -->
<g id="edge2" class="edge">
<title>Node5&#45;&gt;Node4</title>
<path fill="none" stroke="#ffa500" d="M107.5,-343.0548C107.5,-315.6996 107.5,-282.9343 107.5,-256.2449"/>
<polygon fill="#ffa500" stroke="#ffa500" points="104.0001,-343.25 107.5,-353.2501 111.0001,-343.2501 104.0001,-343.25"/>
<text text-anchor="start" x="107.5" y="-327" font-family="Helvetica,sans-Serif" font-size="10.00" fill="#000000"> &lt; short, GPUCA_GET</text>
<text text-anchor="start" x="107.5" y="-316" font-family="Helvetica,sans-Serif" font-size="10.00" fill="#000000">_THREAD_COUNT(GPUCA</text>
<text text-anchor="middle" x="170" y="-305" font-family="Helvetica,sans-Serif" font-size="10.00" fill="#000000">_LB_CLUSTER_FINDER)&gt;</text>
</g>
<!-- Node6 -->
<g id="node4" class="node">
<title>Node6</title>
<g id="a_node4"><a xlink:href="../../da/dca/classGPUCA__NAMESPACE_1_1gpu_1_1PackedCharge.html" target="_top" xlink:title="{GPUCA_NAMESPACE::gpu\l::PackedCharge\n|+ mVal\l|+ GPUdDefault()\l+ GPUdi()\l+ GPUdi()\l+ GPUdi()\l+ GPUdi()\l+ GPUdi()\l}">
<polygon fill="none" stroke="#000000" points="233.5,-144 233.5,-267 373.5,-267 373.5,-144 233.5,-144"/>
<text text-anchor="start" x="241.5" y="-255" font-family="Helvetica,sans-Serif" font-size="10.00" fill="#000000">GPUCA_NAMESPACE::gpu</text>
<text text-anchor="middle" x="303.5" y="-244" font-family="Helvetica,sans-Serif" font-size="10.00" fill="#000000">::PackedCharge</text>
<polyline fill="none" stroke="#000000" points="233.5,-237 373.5,-237 "/>
<text text-anchor="start" x="241.5" y="-225" font-family="Helvetica,sans-Serif" font-size="10.00" fill="#000000">+ mVal</text>
<polyline fill="none" stroke="#000000" points="233.5,-218 373.5,-218 "/>
<text text-anchor="start" x="241.5" y="-206" font-family="Helvetica,sans-Serif" font-size="10.00" fill="#000000">+ GPUdDefault()</text>
<text text-anchor="start" x="241.5" y="-195" font-family="Helvetica,sans-Serif" font-size="10.00" fill="#000000">+ GPUdi()</text>
<text text-anchor="start" x="241.5" y="-184" font-family="Helvetica,sans-Serif" font-size="10.00" fill="#000000">+ GPUdi()</text>
<text text-anchor="start" x="241.5" y="-173" font-family="Helvetica,sans-Serif" font-size="10.00" fill="#000000">+ GPUdi()</text>
<text text-anchor="start" x="241.5" y="-162" font-family="Helvetica,sans-Serif" font-size="10.00" fill="#000000">+ GPUdi()</text>
<text text-anchor="start" x="241.5" y="-151" font-family="Helvetica,sans-Serif" font-size="10.00" fill="#000000">+ GPUdi()</text>
</a>
</g>
</g>
<!-- Node6&#45;&gt;Node3 -->
<g id="edge3" class="edge">
<title>Node6&#45;&gt;Node3</title>
<path fill="none" stroke="#404040" d="M303.5,-143.8739C303.5,-126.737 303.5,-108.3047 303.5,-91.7937"/>
<polygon fill="none" stroke="#404040" points="303.5001,-91.5953 299.5,-85.5954 303.5,-79.5953 307.5,-85.5953 303.5001,-91.5953"/>
<text text-anchor="middle" x="317.5" y="-101" font-family="Helvetica,sans-Serif" font-size="10.00" fill="#000000"> +buf</text>
</g>
<!-- Node7 -->
<g id="node5" class="node">
<title>Node7</title>
<polygon fill="none" stroke="#bfbfbf" points="281.5,-370 281.5,-427 319.5,-427 319.5,-370 281.5,-370"/>
<text text-anchor="middle" x="300.5" y="-415" font-family="Helvetica,sans-Serif" font-size="10.00" fill="#000000">bool</text>
<polyline fill="none" stroke="#bfbfbf" points="281.5,-408 319.5,-408 "/>
<text text-anchor="middle" x="300.5" y="-396" font-family="Helvetica,sans-Serif" font-size="10.00" fill="#000000"> </text>
<polyline fill="none" stroke="#bfbfbf" points="281.5,-389 319.5,-389 "/>
<text text-anchor="middle" x="300.5" y="-377" font-family="Helvetica,sans-Serif" font-size="10.00" fill="#000000"> </text>
</g>
<!-- Node7&#45;&gt;Node6 -->
<g id="edge4" class="edge">
<title>Node7&#45;&gt;Node6</title>
<path fill="none" stroke="#404040" d="M300.7197,-369.7858C300.8858,-350.5941 301.1459,-324.7832 301.5,-302 301.6154,-294.578 301.7507,-286.8353 301.8956,-279.105"/>
<polygon fill="none" stroke="#404040" points="301.8973,-279.0132 298.0143,-272.9369 302.1297,-267.0155 306.0128,-273.0918 301.8973,-279.0132"/>
<text text-anchor="middle" x="328.5" y="-321.5" font-family="Helvetica,sans-Serif" font-size="10.00" fill="#000000"> +peak3x3</text>
<text text-anchor="middle" x="328.5" y="-310.5" font-family="Helvetica,sans-Serif" font-size="10.00" fill="#000000">+wasSplit</text>
</g>
<!-- Node8 -->
<g id="node6" class="node">
<title>Node8</title>
<g id="a_node6"><a xlink:href="../../dd/d68/structGPUCA__NAMESPACE_1_1gpu_1_1ChargePos.html" target="_top" xlink:title="{GPUCA_NAMESPACE::gpu\l::ChargePos\n||+ GPUdDefault()\l+ GPUdi()\l+ GPUdi()\l+ timePadded()\l+ GPUdi()\l+ GPUdi()\l+ GPUdi()\l+ GPUdi()\l+ GPUdi()\l}">
<polygon fill="none" stroke="#000000" points="395.5,-127.5 395.5,-283.5 535.5,-283.5 535.5,-127.5 395.5,-127.5"/>
<text text-anchor="start" x="403.5" y="-271.5" font-family="Helvetica,sans-Serif" font-size="10.00" fill="#000000">GPUCA_NAMESPACE::gpu</text>
<text text-anchor="middle" x="465.5" y="-260.5" font-family="Helvetica,sans-Serif" font-size="10.00" fill="#000000">::ChargePos</text>
<polyline fill="none" stroke="#000000" points="395.5,-253.5 535.5,-253.5 "/>
<text text-anchor="middle" x="465.5" y="-241.5" font-family="Helvetica,sans-Serif" font-size="10.00" fill="#000000"> </text>
<polyline fill="none" stroke="#000000" points="395.5,-234.5 535.5,-234.5 "/>
<text text-anchor="start" x="403.5" y="-222.5" font-family="Helvetica,sans-Serif" font-size="10.00" fill="#000000">+ GPUdDefault()</text>
<text text-anchor="start" x="403.5" y="-211.5" font-family="Helvetica,sans-Serif" font-size="10.00" fill="#000000">+ GPUdi()</text>
<text text-anchor="start" x="403.5" y="-200.5" font-family="Helvetica,sans-Serif" font-size="10.00" fill="#000000">+ GPUdi()</text>
<text text-anchor="start" x="403.5" y="-189.5" font-family="Helvetica,sans-Serif" font-size="10.00" fill="#000000">+ timePadded()</text>
<text text-anchor="start" x="403.5" y="-178.5" font-family="Helvetica,sans-Serif" font-size="10.00" fill="#000000">+ GPUdi()</text>
<text text-anchor="start" x="403.5" y="-167.5" font-family="Helvetica,sans-Serif" font-size="10.00" fill="#000000">+ GPUdi()</text>
<text text-anchor="start" x="403.5" y="-156.5" font-family="Helvetica,sans-Serif" font-size="10.00" fill="#000000">+ GPUdi()</text>
<text text-anchor="start" x="403.5" y="-145.5" font-family="Helvetica,sans-Serif" font-size="10.00" fill="#000000">+ GPUdi()</text>
<text text-anchor="start" x="403.5" y="-134.5" font-family="Helvetica,sans-Serif" font-size="10.00" fill="#000000">+ GPUdi()</text>
</a>
</g>
</g>
<!-- Node8&#45;&gt;Node3 -->
<g id="edge5" class="edge">
<title>Node8&#45;&gt;Node3</title>
<path fill="none" stroke="#404040" d="M395.3866,-133.8718C380.3739,-118.5347 364.8529,-102.6784 350.9375,-88.4624"/>
<polygon fill="none" stroke="#404040" points="350.8937,-88.4176 343.8381,-86.9279 342.4995,-79.8421 349.5551,-81.3318 350.8937,-88.4176"/>
<text text-anchor="middle" x="398.5" y="-101" font-family="Helvetica,sans-Serif" font-size="10.00" fill="#000000"> +posBcast</text>
</g>
<!-- Node9 -->
<g id="node7" class="node">
<title>Node9</title>
<g id="a_node7"><a xlink:href="../../dc/d10/classshort.html" target="_top" xlink:title="{short\n||}">
<polygon fill="none" stroke="#000000" points="357,-370 357,-427 398,-427 398,-370 357,-370"/>
<text text-anchor="middle" x="377.5" y="-415" font-family="Helvetica,sans-Serif" font-size="10.00" fill="#000000">short</text>
<polyline fill="none" stroke="#000000" points="357,-408 398,-408 "/>
<text text-anchor="middle" x="377.5" y="-396" font-family="Helvetica,sans-Serif" font-size="10.00" fill="#000000"> </text>
<polyline fill="none" stroke="#000000" points="357,-389 398,-389 "/>
<text text-anchor="middle" x="377.5" y="-377" font-family="Helvetica,sans-Serif" font-size="10.00" fill="#000000"> </text>
</a>
</g>
</g>
<!-- Node9&#45;&gt;Node8 -->
<g id="edge6" class="edge">
<title>Node9&#45;&gt;Node8</title>
<path fill="none" stroke="#404040" d="M379.5273,-369.6648C381.707,-349.9606 386.2119,-323.6068 395.5,-302 396.5792,-299.4895 397.7333,-296.9812 398.9516,-294.4817"/>
<polygon fill="none" stroke="#404040" points="399.0891,-294.2201 398.3402,-287.048 404.6725,-283.5981 405.4215,-290.7703 399.0891,-294.2201"/>
<text text-anchor="middle" x="429" y="-327" font-family="Helvetica,sans-Serif" font-size="10.00" fill="#000000"> +gpad</text>
<text text-anchor="middle" x="429" y="-316" font-family="Helvetica,sans-Serif" font-size="10.00" fill="#000000">+t</text>
<text text-anchor="middle" x="429" y="-305" font-family="Helvetica,sans-Serif" font-size="10.00" fill="#000000">+timePadded</text>
</g>
<!-- Node10 -->
<g id="node8" class="node">
<title>Node10</title>
<polygon fill="none" stroke="#bfbfbf" points="446,-370 446,-427 489,-427 489,-370 446,-370"/>
<text text-anchor="middle" x="467.5" y="-415" font-family="Helvetica,sans-Serif" font-size="10.00" fill="#000000">const</text>
<polyline fill="none" stroke="#bfbfbf" points="446,-408 489,-408 "/>
<text text-anchor="middle" x="467.5" y="-396" font-family="Helvetica,sans-Serif" font-size="10.00" fill="#000000"> </text>
<polyline fill="none" stroke="#bfbfbf" points="446,-389 489,-389 "/>
<text text-anchor="middle" x="467.5" y="-377" font-family="Helvetica,sans-Serif" font-size="10.00" fill="#000000"> </text>
</g>
<!-- Node10&#45;&gt;Node8 -->
<g id="edge7" class="edge">
<title>Node10&#45;&gt;Node8</title>
<path fill="none" stroke="#404040" d="M467.2006,-369.6059C466.9965,-349.9087 466.7141,-322.6594 466.438,-296.0201"/>
<polygon fill="none" stroke="#404040" points="466.4364,-295.852 462.3744,-289.8938 466.3119,-283.8527 470.374,-289.8109 466.4364,-295.852"/>
<text text-anchor="middle" x="475.5" y="-316" font-family="Helvetica,sans-Serif" font-size="10.00" fill="#000000"> +t</text>
</g>
<!-- Node11 -->
<g id="node9" class="node">
<title>Node11</title>
<polygon fill="none" stroke="#bfbfbf" points="507,-370 507,-427 568,-427 568,-370 507,-370"/>
<text text-anchor="middle" x="537.5" y="-415" font-family="Helvetica,sans-Serif" font-size="10.00" fill="#000000">unsigned</text>
<polyline fill="none" stroke="#bfbfbf" points="507,-408 568,-408 "/>
<text text-anchor="middle" x="537.5" y="-396" font-family="Helvetica,sans-Serif" font-size="10.00" fill="#000000"> </text>
<polyline fill="none" stroke="#bfbfbf" points="507,-389 568,-389 "/>
<text text-anchor="middle" x="537.5" y="-377" font-family="Helvetica,sans-Serif" font-size="10.00" fill="#000000"> </text>
</g>
<!-- Node11&#45;&gt;Node8 -->
<g id="edge8" class="edge">
<title>Node11&#45;&gt;Node8</title>
<path fill="none" stroke="#404040" d="M526.7209,-369.6059C519.3065,-349.7312 509.0237,-322.1678 499.0006,-295.3003"/>
<polygon fill="none" stroke="#404040" points="498.9244,-295.0958 493.0795,-290.8724 494.73,-283.8527 500.5749,-288.0761 498.9244,-295.0958"/>
<text text-anchor="middle" x="527.5" y="-316" font-family="Helvetica,sans-Serif" font-size="10.00" fill="#000000"> +pad</text>
</g>
</g>
</svg>
