<?xml version="1.0" encoding="UTF-8" standalone="no"?>
<!DOCTYPE svg PUBLIC "-//W3C//DTD SVG 1.1//EN"
 "http://www.w3.org/Graphics/SVG/1.1/DTD/svg11.dtd">
<!-- Generated by graphviz version 2.40.1 (20161225.0304)
 -->
<!-- Title: /home/travis/build/AliceO2Group/AliceO2/Detectors/TOF/base/src/Digit.cxx Pages: 1 -->
<svg width="1286pt" height="441pt"
 viewBox="0.00 0.00 1286.24 441.00" xmlns="http://www.w3.org/2000/svg" xmlns:xlink="http://www.w3.org/1999/xlink">
<g id="graph0" class="graph" transform="scale(1 1) rotate(0) translate(4 437)">
<title>/home/travis/build/AliceO2Group/AliceO2/Detectors/TOF/base/src/Digit.cxx</title>
<!-- Node0 -->
<g id="node1" class="node">
<title>Node0</title>
<polygon fill="#bfbfbf" stroke="#000000" points="776,-380.5 776,-432.5 908,-432.5 908,-380.5 776,-380.5"/>
<text text-anchor="start" x="784" y="-420.5" font-family="Helvetica,sans-Serif" font-size="10.00" fill="#000000">/home/travis/build</text>
<text text-anchor="start" x="784" y="-409.5" font-family="Helvetica,sans-Serif" font-size="10.00" fill="#000000">/AliceO2Group/AliceO2</text>
<text text-anchor="start" x="784" y="-398.5" font-family="Helvetica,sans-Serif" font-size="10.00" fill="#000000">/Detectors/TOF/base/src</text>
<text text-anchor="middle" x="842" y="-387.5" font-family="Helvetica,sans-Serif" font-size="10.00" fill="#000000">/Digit.cxx</text>
</g>
<!-- Node1 -->
<g id="node2" class="node">
<title>Node1</title>
<g id="a_node2"><a xlink:href="../../d1/d90/Detectors_2TOF_2base_2include_2TOFBase_2Digit_8h.html" target="_top" xlink:title="TOFBase/Digit.h">
<polygon fill="none" stroke="#000000" points="358.5,-324.5 358.5,-343.5 453.5,-343.5 453.5,-324.5 358.5,-324.5"/>
<text text-anchor="middle" x="406" y="-331.5" font-family="Helvetica,sans-Serif" font-size="10.00" fill="#000000">TOFBase/Digit.h</text>
</a>
</g>
</g>
<!-- Node0&#45;&gt;Node1 -->
<g id="edge1" class="edge">
<title>Node0&#45;&gt;Node1</title>
<path fill="none" stroke="#191970" d="M775.781,-395.4888C690.6829,-381.3383 544.3272,-357.0017 463.617,-343.5808"/>
<polygon fill="#191970" stroke="#191970" points="464.0699,-340.1081 453.6312,-341.9203 462.9217,-347.0133 464.0699,-340.1081"/>
</g>
<!-- Node13 -->
<g id="node14" class="node">
<title>Node13</title>
<polygon fill="none" stroke="#bfbfbf" points="1165,-6 1165,-25 1225,-25 1225,-6 1165,-6"/>
<text text-anchor="middle" x="1195" y="-13" font-family="Helvetica,sans-Serif" font-size="10.00" fill="#000000">iostream</text>
</g>
<!-- Node0&#45;&gt;Node13 -->
<g id="edge37" class="edge">
<title>Node0&#45;&gt;Node13</title>
<path fill="none" stroke="#191970" d="M908.219,-400.0322C1030.1887,-386.2738 1278,-348.9171 1278,-272.5 1278,-272.5 1278,-272.5 1278,-149.5 1278,-111.8735 1278.9797,-98.8836 1259,-67 1249.7089,-52.1732 1234.6238,-39.7294 1221.4323,-30.7899"/>
<polygon fill="#191970" stroke="#191970" points="1223.0012,-27.6377 1212.6967,-25.1746 1219.2161,-33.5261 1223.0012,-27.6377"/>
</g>
<!-- Node2 -->
<g id="node3" class="node">
<title>Node2</title>
<polygon fill="none" stroke="#bfbfbf" points="729.5,-73 729.5,-92 778.5,-92 778.5,-73 729.5,-73"/>
<text text-anchor="middle" x="754" y="-80" font-family="Helvetica,sans-Serif" font-size="10.00" fill="#000000">iosfwd</text>
</g>
<!-- Node1&#45;&gt;Node2 -->
<g id="edge2" class="edge">
<title>Node1&#45;&gt;Node2</title>
<path fill="none" stroke="#191970" d="M453.571,-325.3545C568.3681,-303.4142 855.0945,-241.8256 909,-165 916.9136,-153.7216 917.0614,-145.1732 909,-134 901.7424,-123.9409 831.9968,-103.5739 788.5731,-91.6888"/>
<polygon fill="#191970" stroke="#191970" points="789.2504,-88.246 778.6827,-89.0035 787.4163,-95.0015 789.2504,-88.246"/>
</g>
<!-- Node3 -->
<g id="node4" class="node">
<title>Node3</title>
<polygon fill="none" stroke="#bfbfbf" points="227.5,-73 227.5,-92 286.5,-92 286.5,-73 227.5,-73"/>
<text text-anchor="middle" x="257" y="-80" font-family="Helvetica,sans-Serif" font-size="10.00" fill="#000000">Rtypes.h</text>
</g>
<!-- Node1&#45;&gt;Node3 -->
<g id="edge3" class="edge">
<title>Node1&#45;&gt;Node3</title>
<path fill="none" stroke="#191970" d="M358.1712,-325.3137C320.016,-317.3018 271.0349,-304.2105 259,-288 217.398,-231.9638 238.2044,-141.5814 250.336,-102.0571"/>
<polygon fill="#191970" stroke="#191970" points="253.735,-102.9202 253.4687,-92.3287 247.072,-100.7746 253.735,-102.9202"/>
</g>
<!-- Node4 -->
<g id="node5" class="node">
<title>Node4</title>
<g id="a_node5"><a xlink:href="../../d4/d54/Geo_8h.html" target="_top" xlink:title="TOFBase/Geo.h">
<polygon fill="none" stroke="#000000" points="268.5,-263 268.5,-282 359.5,-282 359.5,-263 268.5,-263"/>
<text text-anchor="middle" x="314" y="-270" font-family="Helvetica,sans-Serif" font-size="10.00" fill="#000000">TOFBase/Geo.h</text>
</a>
</g>
</g>
<!-- Node1&#45;&gt;Node4 -->
<g id="edge4" class="edge">
<title>Node1&#45;&gt;Node4</title>
<path fill="none" stroke="#191970" d="M391.625,-324.3906C376.9069,-314.5519 353.8168,-299.1167 336.6411,-287.6351"/>
<polygon fill="#191970" stroke="#191970" points="338.5327,-284.6896 328.2741,-282.0419 334.6425,-290.5091 338.5327,-284.6896"/>
</g>
<!-- Node23 -->
<g id="node24" class="node">
<title>Node23</title>
<g id="a_node24"><a xlink:href="../../de/d64/RangeReference_8h.html" target="_top" xlink:title="Class to refer to the 1st entry and N elements of some group in the continuous container. ">
<polygon fill="none" stroke="#000000" points="0,-263 0,-282 210,-282 210,-263 0,-263"/>
<text text-anchor="middle" x="105" y="-270" font-family="Helvetica,sans-Serif" font-size="10.00" fill="#000000">CommonDataFormat/RangeReference.h</text>
</a>
</g>
</g>
<!-- Node1&#45;&gt;Node23 -->
<g id="edge32" class="edge">
<title>Node1&#45;&gt;Node23</title>
<path fill="none" stroke="#191970" d="M359.299,-324.4581C306.0241,-313.573 218.9155,-295.7751 161.7666,-284.0985"/>
<polygon fill="#191970" stroke="#191970" points="162.3088,-280.637 151.8106,-282.0643 160.9075,-287.4953 162.3088,-280.637"/>
</g>
<!-- Node25 -->
<g id="node26" class="node">
<title>Node25</title>
<polygon fill="none" stroke="#bfbfbf" points="377.5,-263 377.5,-282 434.5,-282 434.5,-263 377.5,-263"/>
<text text-anchor="middle" x="406" y="-270" font-family="Helvetica,sans-Serif" font-size="10.00" fill="#000000">gsl/span</text>
</g>
<!-- Node1&#45;&gt;Node25 -->
<g id="edge35" class="edge">
<title>Node1&#45;&gt;Node25</title>
<path fill="none" stroke="#191970" d="M406,-324.3906C406,-315.8657 406,-303.1392 406,-292.4235"/>
<polygon fill="#191970" stroke="#191970" points="409.5001,-292.2448 406,-282.2449 402.5001,-292.2449 409.5001,-292.2448"/>
</g>
<!-- Node26 -->
<g id="node27" class="node">
<title>Node26</title>
<polygon fill="none" stroke="#bfbfbf" points="452.5,-257.5 452.5,-287.5 559.5,-287.5 559.5,-257.5 452.5,-257.5"/>
<text text-anchor="start" x="460.5" y="-275.5" font-family="Helvetica,sans-Serif" font-size="10.00" fill="#000000">boost/serialization</text>
<text text-anchor="middle" x="506" y="-264.5" font-family="Helvetica,sans-Serif" font-size="10.00" fill="#000000">/base_object.hpp</text>
</g>
<!-- Node1&#45;&gt;Node26 -->
<g id="edge36" class="edge">
<title>Node1&#45;&gt;Node26</title>
<path fill="none" stroke="#191970" d="M421.625,-324.3906C435.2841,-315.9903 455.5768,-303.5103 472.8382,-292.8945"/>
<polygon fill="#191970" stroke="#191970" points="474.8527,-295.7646 481.5372,-287.5446 471.1857,-289.8019 474.8527,-295.7646"/>
</g>
<!-- Node4&#45;&gt;Node3 -->
<g id="edge5" class="edge">
<title>Node4&#45;&gt;Node3</title>
<path fill="none" stroke="#191970" d="M311.095,-262.8167C302.1591,-233.0303 274.9567,-142.3556 262.8816,-102.1053"/>
<polygon fill="#191970" stroke="#191970" points="266.1934,-100.9642 259.9675,-92.3917 259.4887,-102.9757 266.1934,-100.9642"/>
</g>
<!-- Node5 -->
<g id="node6" class="node">
<title>Node5</title>
<g id="a_node6"><a xlink:href="../../d4/dc6/LHCConstants_8h.html" target="_top" xlink:title="Header to collect LHC related constants. ">
<polygon fill="none" stroke="#000000" points="305,-73 305,-92 495,-92 495,-73 305,-73"/>
<text text-anchor="middle" x="400" y="-80" font-family="Helvetica,sans-Serif" font-size="10.00" fill="#000000">CommonConstants/LHCConstants.h</text>
</a>
</g>
</g>
<!-- Node4&#45;&gt;Node5 -->
<g id="edge6" class="edge">
<title>Node4&#45;&gt;Node5</title>
<path fill="none" stroke="#191970" d="M317.4787,-262.9204C325.8399,-240.1695 348.0766,-181.2574 371,-134 376.4412,-122.7829 383.2499,-110.6126 388.9023,-100.9208"/>
<polygon fill="#191970" stroke="#191970" points="391.9932,-102.5702 394.0759,-92.182 385.9697,-99.004 391.9932,-102.5702"/>
</g>
<!-- Node6 -->
<g id="node7" class="node">
<title>Node6</title>
<g id="a_node7"><a xlink:href="../../d1/dec/HBFUtils_8h.html" target="_top" xlink:title="DetectorsRaw/HBFUtils.h">
<polygon fill="none" stroke="#000000" points="577.5,-201.5 577.5,-220.5 716.5,-220.5 716.5,-201.5 577.5,-201.5"/>
<text text-anchor="middle" x="647" y="-208.5" font-family="Helvetica,sans-Serif" font-size="10.00" fill="#000000">DetectorsRaw/HBFUtils.h</text>
</a>
</g>
</g>
<!-- Node4&#45;&gt;Node6 -->
<g id="edge7" class="edge">
<title>Node4&#45;&gt;Node6</title>
<path fill="none" stroke="#191970" d="M344.966,-262.9445C352.4628,-260.8165 360.4829,-258.6925 368,-257 434.615,-242.0012 511.2052,-229.7214 567.2656,-221.6338"/>
<polygon fill="#191970" stroke="#191970" points="568.0833,-225.0526 577.4874,-220.1727 567.0927,-218.123 568.0833,-225.0526"/>
</g>
<!-- Node6&#45;&gt;Node3 -->
<g id="edge8" class="edge">
<title>Node6&#45;&gt;Node3</title>
<path fill="none" stroke="#191970" d="M577.3762,-203.0846C508.1868,-194.5615 407.3059,-180.1703 371,-165 332.9905,-149.1178 295.5946,-118.3663 274.4939,-99.2233"/>
<polygon fill="#191970" stroke="#191970" points="276.705,-96.5007 266.989,-92.2756 271.9495,-101.6374 276.705,-96.5007"/>
</g>
<!-- Node7 -->
<g id="node8" class="node">
<title>Node7</title>
<g id="a_node8"><a xlink:href="../../db/d2c/ConfigurableParam_8h.html" target="_top" xlink:title="CommonUtils/Configurable\lParam.h">
<polygon fill="none" stroke="#000000" points="835,-67.5 835,-97.5 983,-97.5 983,-67.5 835,-67.5"/>
<text text-anchor="start" x="843" y="-85.5" font-family="Helvetica,sans-Serif" font-size="10.00" fill="#000000">CommonUtils/Configurable</text>
<text text-anchor="middle" x="909" y="-74.5" font-family="Helvetica,sans-Serif" font-size="10.00" fill="#000000">Param.h</text>
</a>
</g>
</g>
<!-- Node6&#45;&gt;Node7 -->
<g id="edge9" class="edge">
<title>Node6&#45;&gt;Node7</title>
<path fill="none" stroke="#191970" d="M716.6632,-208.5732C785.807,-204.5249 884.8703,-193.7353 909,-165 922.1661,-149.3209 920.6289,-125.429 916.7033,-107.3847"/>
<polygon fill="#191970" stroke="#191970" points="920.0585,-106.3762 914.2091,-97.5424 913.2729,-108.0958 920.0585,-106.3762"/>
</g>
<!-- Node14 -->
<g id="node15" class="node">
<title>Node14</title>
<g id="a_node15"><a xlink:href="../../da/d6b/ConfigurableParamHelper_8h.html" target="_top" xlink:title="CommonUtils/Configurable\lParamHelper.h">
<polygon fill="none" stroke="#000000" points="994,-134.5 994,-164.5 1142,-164.5 1142,-134.5 994,-134.5"/>
<text text-anchor="start" x="1002" y="-152.5" font-family="Helvetica,sans-Serif" font-size="10.00" fill="#000000">CommonUtils/Configurable</text>
<text text-anchor="middle" x="1068" y="-141.5" font-family="Helvetica,sans-Serif" font-size="10.00" fill="#000000">ParamHelper.h</text>
</a>
</g>
</g>
<!-- Node6&#45;&gt;Node14 -->
<g id="edge16" class="edge">
<title>Node6&#45;&gt;Node14</title>
<path fill="none" stroke="#191970" d="M712.3193,-201.4581C785.299,-190.7972 903.6721,-173.5052 983.6117,-161.8275"/>
<polygon fill="#191970" stroke="#191970" points="984.2623,-165.2697 993.6513,-160.3609 983.2504,-158.3432 984.2623,-165.2697"/>
</g>
<!-- Node18 -->
<g id="node19" class="node">
<title>Node18</title>
<g id="a_node19"><a xlink:href="../../d9/d80/InteractionRecord_8h.html" target="_top" xlink:title="CommonDataFormat/Interaction\lRecord.h">
<polygon fill="none" stroke="#000000" points="380,-134.5 380,-164.5 554,-164.5 554,-134.5 380,-134.5"/>
<text text-anchor="start" x="388" y="-152.5" font-family="Helvetica,sans-Serif" font-size="10.00" fill="#000000">CommonDataFormat/Interaction</text>
<text text-anchor="middle" x="467" y="-141.5" font-family="Helvetica,sans-Serif" font-size="10.00" fill="#000000">Record.h</text>
</a>
</g>
</g>
<!-- Node6&#45;&gt;Node18 -->
<g id="edge22" class="edge">
<title>Node6&#45;&gt;Node18</title>
<path fill="none" stroke="#191970" d="M618.875,-201.3906C592.7097,-192.4508 553.0209,-178.8905 520.7773,-167.8739"/>
<polygon fill="#191970" stroke="#191970" points="521.6275,-164.4658 511.033,-164.5446 519.3642,-171.0898 521.6275,-164.4658"/>
</g>
<!-- Node21 -->
<g id="node22" class="node">
<title>Node21</title>
<g id="a_node22"><a xlink:href="../../d4/d78/DataFormats_2Headers_2include_2Headers_2RAWDataHeader_8h.html" target="_top" xlink:title="Headers/RAWDataHeader.h">
<polygon fill="none" stroke="#000000" points="572.5,-140 572.5,-159 721.5,-159 721.5,-140 572.5,-140"/>
<text text-anchor="middle" x="647" y="-147" font-family="Helvetica,sans-Serif" font-size="10.00" fill="#000000">Headers/RAWDataHeader.h</text>
</a>
</g>
</g>
<!-- Node6&#45;&gt;Node21 -->
<g id="edge28" class="edge">
<title>Node6&#45;&gt;Node21</title>
<path fill="none" stroke="#191970" d="M647,-201.3906C647,-192.8657 647,-180.1392 647,-169.4235"/>
<polygon fill="#191970" stroke="#191970" points="650.5001,-169.2448 647,-159.2449 643.5001,-169.2449 650.5001,-169.2448"/>
</g>
<!-- Node22 -->
<g id="node23" class="node">
<title>Node22</title>
<g id="a_node23"><a xlink:href="../../de/da4/Triggers_8h.html" target="_top" xlink:title="Definition of the 32 Central Trigger System (CTS) Trigger Types defined in https://twiki.cern.ch/twiki/pub/ALICE/NoteForFEDevelopers/CTS_CRU_FE_interface.pdf. ">
<polygon fill="none" stroke="#000000" points="740,-140 740,-159 900,-159 900,-140 740,-140"/>
<text text-anchor="middle" x="820" y="-147" font-family="Helvetica,sans-Serif" font-size="10.00" fill="#000000">CommonConstants/Triggers.h</text>
</a>
</g>
</g>
<!-- Node6&#45;&gt;Node22 -->
<g id="edge30" class="edge">
<title>Node6&#45;&gt;Node22</title>
<path fill="none" stroke="#191970" d="M674.0313,-201.3906C703.4851,-190.92 750.7689,-174.1111 783.5027,-162.4745"/>
<polygon fill="#191970" stroke="#191970" points="784.9086,-165.6893 793.1586,-159.0419 782.5639,-159.0937 784.9086,-165.6893"/>
</g>
<!-- Node8 -->
<g id="node9" class="node">
<title>Node8</title>
<polygon fill="none" stroke="#bfbfbf" points="872.5,-6 872.5,-25 919.5,-25 919.5,-6 872.5,-6"/>
<text text-anchor="middle" x="896" y="-13" font-family="Helvetica,sans-Serif" font-size="10.00" fill="#000000">vector</text>
</g>
<!-- Node7&#45;&gt;Node8 -->
<g id="edge10" class="edge">
<title>Node7&#45;&gt;Node8</title>
<path fill="none" stroke="#191970" d="M906.0501,-67.2967C904.2016,-57.7699 901.8006,-45.3954 899.8089,-35.1306"/>
<polygon fill="#191970" stroke="#191970" points="903.1947,-34.2052 897.8539,-25.055 896.3229,-35.5386 903.1947,-34.2052"/>
</g>
<!-- Node9 -->
<g id="node10" class="node">
<title>Node9</title>
<polygon fill="none" stroke="#bfbfbf" points="938,-6 938,-25 976,-25 976,-6 938,-6"/>
<text text-anchor="middle" x="957" y="-13" font-family="Helvetica,sans-Serif" font-size="10.00" fill="#000000">map</text>
</g>
<!-- Node7&#45;&gt;Node9 -->
<g id="edge11" class="edge">
<title>Node7&#45;&gt;Node9</title>
<path fill="none" stroke="#191970" d="M919.8919,-67.2967C927.1527,-57.1618 936.7225,-43.804 944.325,-33.1921"/>
<polygon fill="#191970" stroke="#191970" points="947.176,-35.2225 950.1546,-25.055 941.4856,-31.1458 947.176,-35.2225"/>
</g>
<!-- Node10 -->
<g id="node11" class="node">
<title>Node10</title>
<polygon fill="none" stroke="#bfbfbf" points="630.5,-6 630.5,-25 723.5,-25 723.5,-6 630.5,-6"/>
<text text-anchor="middle" x="677" y="-13" font-family="Helvetica,sans-Serif" font-size="10.00" fill="#000000">unordered_map</text>
</g>
<!-- Node7&#45;&gt;Node10 -->
<g id="edge12" class="edge">
<title>Node7&#45;&gt;Node10</title>
<path fill="none" stroke="#191970" d="M856.9347,-67.4639C815.6059,-55.5284 758.531,-39.0456 719.8257,-27.8678"/>
<polygon fill="#191970" stroke="#191970" points="720.4923,-24.4173 709.9138,-25.0053 718.5501,-31.1425 720.4923,-24.4173"/>
</g>
<!-- Node11 -->
<g id="node12" class="node">
<title>Node11</title>
<polygon fill="none" stroke="#bfbfbf" points="741.5,-.5 741.5,-30.5 854.5,-30.5 854.5,-.5 741.5,-.5"/>
<text text-anchor="start" x="749.5" y="-18.5" font-family="Helvetica,sans-Serif" font-size="10.00" fill="#000000">boost/property_tree</text>
<text text-anchor="middle" x="798" y="-7.5" font-family="Helvetica,sans-Serif" font-size="10.00" fill="#000000">/ptree.hpp</text>
</g>
<!-- Node7&#45;&gt;Node11 -->
<g id="edge13" class="edge">
<title>Node7&#45;&gt;Node11</title>
<path fill="none" stroke="#191970" d="M884.0894,-67.4639C868.7729,-58.2188 848.9361,-46.2452 832.1651,-36.1222"/>
<polygon fill="#191970" stroke="#191970" points="833.5815,-32.889 823.2115,-30.7177 829.9641,-38.8819 833.5815,-32.889"/>
</g>
<!-- Node12 -->
<g id="node13" class="node">
<title>Node12</title>
<polygon fill="none" stroke="#bfbfbf" points="994.5,-6 994.5,-25 1051.5,-25 1051.5,-6 994.5,-6"/>
<text text-anchor="middle" x="1023" y="-13" font-family="Helvetica,sans-Serif" font-size="10.00" fill="#000000">typeinfo</text>
</g>
<!-- Node7&#45;&gt;Node12 -->
<g id="edge14" class="edge">
<title>Node7&#45;&gt;Node12</title>
<path fill="none" stroke="#191970" d="M934.5838,-67.4639C953.4531,-56.3741 979.0021,-41.3584 997.7839,-30.32"/>
<polygon fill="#191970" stroke="#191970" points="999.8111,-33.1883 1006.659,-25.1039 996.2643,-27.1534 999.8111,-33.1883"/>
</g>
<!-- Node7&#45;&gt;Node13 -->
<g id="edge15" class="edge">
<title>Node7&#45;&gt;Node13</title>
<path fill="none" stroke="#191970" d="M973.184,-67.4639C1028.8804,-54.4161 1107.7748,-35.9339 1154.9222,-24.8889"/>
<polygon fill="#191970" stroke="#191970" points="1155.828,-28.2715 1164.7661,-22.5828 1154.2313,-21.456 1155.828,-28.2715"/>
</g>
<!-- Node14&#45;&gt;Node7 -->
<g id="edge17" class="edge">
<title>Node14&#45;&gt;Node7</title>
<path fill="none" stroke="#191970" d="M1032.3173,-134.4639C1009.2808,-124.7567 979.1059,-112.0415 954.3714,-101.6188"/>
<polygon fill="#191970" stroke="#191970" points="955.4127,-98.2596 944.8383,-97.6017 952.6945,-104.7103 955.4127,-98.2596"/>
</g>
<!-- Node14&#45;&gt;Node12 -->
<g id="edge20" class="edge">
<title>Node14&#45;&gt;Node12</title>
<path fill="none" stroke="#191970" d="M1053.596,-134.0885C1045.5021,-124.4666 1036.0395,-111.3954 1031,-98 1023.3425,-77.6457 1021.938,-52.5724 1022.0724,-35.445"/>
<polygon fill="#191970" stroke="#191970" points="1025.5827,-35.1033 1022.3533,-25.0126 1018.5853,-34.9148 1025.5827,-35.1033"/>
</g>
<!-- Node15 -->
<g id="node16" class="node">
<title>Node15</title>
<polygon fill="none" stroke="#bfbfbf" points="1039.5,-73 1039.5,-92 1096.5,-92 1096.5,-73 1039.5,-73"/>
<text text-anchor="middle" x="1068" y="-80" font-family="Helvetica,sans-Serif" font-size="10.00" fill="#000000">TClass.h</text>
</g>
<!-- Node14&#45;&gt;Node15 -->
<g id="edge18" class="edge">
<title>Node14&#45;&gt;Node15</title>
<path fill="none" stroke="#191970" d="M1068,-134.2967C1068,-124.7699 1068,-112.3954 1068,-102.1306"/>
<polygon fill="#191970" stroke="#191970" points="1071.5001,-102.0549 1068,-92.055 1064.5001,-102.055 1071.5001,-102.0549"/>
</g>
<!-- Node16 -->
<g id="node17" class="node">
<title>Node16</title>
<polygon fill="none" stroke="#bfbfbf" points="1114.5,-73 1114.5,-92 1183.5,-92 1183.5,-73 1114.5,-73"/>
<text text-anchor="middle" x="1149" y="-80" font-family="Helvetica,sans-Serif" font-size="10.00" fill="#000000">type_traits</text>
</g>
<!-- Node14&#45;&gt;Node16 -->
<g id="edge19" class="edge">
<title>Node14&#45;&gt;Node16</title>
<path fill="none" stroke="#191970" d="M1086.3802,-134.2967C1099.2454,-123.6551 1116.4063,-109.4602 1129.5096,-98.6217"/>
<polygon fill="#191970" stroke="#191970" points="1131.9737,-101.1257 1137.4485,-92.055 1127.5121,-95.7318 1131.9737,-101.1257"/>
</g>
<!-- Node17 -->
<g id="node18" class="node">
<title>Node17</title>
<polygon fill="none" stroke="#bfbfbf" points="1202,-73 1202,-92 1250,-92 1250,-73 1202,-73"/>
<text text-anchor="middle" x="1226" y="-80" font-family="Helvetica,sans-Serif" font-size="10.00" fill="#000000">TFile.h</text>
</g>
<!-- Node14&#45;&gt;Node17 -->
<g id="edge21" class="edge">
<title>Node14&#45;&gt;Node17</title>
<path fill="none" stroke="#191970" d="M1105.9441,-134.4217C1130.8275,-124.3974 1164.0032,-110.7743 1193,-98 1194.3395,-97.4099 1195.7063,-96.7999 1197.0845,-96.1785"/>
<polygon fill="#191970" stroke="#191970" points="1198.5524,-99.3559 1206.1776,-92 1195.6296,-92.9953 1198.5524,-99.3559"/>
</g>
<!-- Node18&#45;&gt;Node2 -->
<g id="edge24" class="edge">
<title>Node18&#45;&gt;Node2</title>
<path fill="none" stroke="#191970" d="M531.4084,-134.4639C589.6408,-120.8696 673.1432,-101.376 719.5558,-90.541"/>
<polygon fill="#191970" stroke="#191970" points="720.4805,-93.9193 729.423,-88.2375 718.8891,-87.1026 720.4805,-93.9193"/>
</g>
<!-- Node18&#45;&gt;Node3 -->
<g id="edge23" class="edge">
<title>Node18&#45;&gt;Node3</title>
<path fill="none" stroke="#191970" d="M412.7075,-134.4384C378.9015,-124.7425 334.6455,-111.4712 296,-98 293.8758,-97.2595 291.6967,-96.4722 289.5069,-95.6601"/>
<polygon fill="#191970" stroke="#191970" points="290.5644,-92.3173 279.974,-92.0096 288.061,-98.8544 290.5644,-92.3173"/>
</g>
<!-- Node18&#45;&gt;Node5 -->
<g id="edge27" class="edge">
<title>Node18&#45;&gt;Node5</title>
<path fill="none" stroke="#191970" d="M451.7967,-134.2967C441.3578,-123.8578 427.4997,-109.9997 416.7446,-99.2446"/>
<polygon fill="#191970" stroke="#191970" points="419.101,-96.6512 409.555,-92.055 414.1512,-101.601 419.101,-96.6512"/>
</g>
<!-- Node19 -->
<g id="node20" class="node">
<title>Node19</title>
<polygon fill="none" stroke="#bfbfbf" points="513.5,-73 513.5,-92 560.5,-92 560.5,-73 513.5,-73"/>
<text text-anchor="middle" x="537" y="-80" font-family="Helvetica,sans-Serif" font-size="10.00" fill="#000000">cmath</text>
</g>
<!-- Node18&#45;&gt;Node19 -->
<g id="edge25" class="edge">
<title>Node18&#45;&gt;Node19</title>
<path fill="none" stroke="#191970" d="M482.8841,-134.2967C493.7904,-123.8578 508.269,-109.9997 519.5056,-99.2446"/>
<polygon fill="#191970" stroke="#191970" points="522.2131,-101.498 527.0172,-92.055 517.3729,-96.4411 522.2131,-101.498"/>
</g>
<!-- Node20 -->
<g id="node21" class="node">
<title>Node20</title>
<polygon fill="none" stroke="#bfbfbf" points="622,-73 622,-92 672,-92 672,-73 622,-73"/>
<text text-anchor="middle" x="647" y="-80" font-family="Helvetica,sans-Serif" font-size="10.00" fill="#000000">cstdint</text>
</g>
<!-- Node18&#45;&gt;Node20 -->
<g id="edge26" class="edge">
<title>Node18&#45;&gt;Node20</title>
<path fill="none" stroke="#191970" d="M507.3955,-134.4639C538.9649,-122.7131 582.3762,-106.5544 612.3695,-95.3902"/>
<polygon fill="#191970" stroke="#191970" points="613.8394,-98.5778 621.9903,-91.8092 611.3975,-92.0175 613.8394,-98.5778"/>
</g>
<!-- Node21&#45;&gt;Node20 -->
<g id="edge29" class="edge">
<title>Node21&#45;&gt;Node20</title>
<path fill="none" stroke="#191970" d="M647,-139.9005C647,-130.149 647,-114.7597 647,-102.3695"/>
<polygon fill="#191970" stroke="#191970" points="650.5001,-102.0816 647,-92.0817 643.5001,-102.0817 650.5001,-102.0816"/>
</g>
<!-- Node22&#45;&gt;Node20 -->
<g id="edge31" class="edge">
<title>Node22&#45;&gt;Node20</title>
<path fill="none" stroke="#191970" d="M795.2133,-139.9005C765.2808,-128.3082 714.7761,-108.7486 681.1645,-95.7313"/>
<polygon fill="#191970" stroke="#191970" points="682.3298,-92.4294 671.7407,-92.0817 679.8018,-98.957 682.3298,-92.4294"/>
</g>
<!-- Node24 -->
<g id="node25" class="node">
<title>Node24</title>
<g id="a_node25"><a xlink:href="../../d2/d45/GPUCommonRtypes_8h.html" target="_top" xlink:title="GPUCommonRtypes.h">
<polygon fill="none" stroke="#000000" points="63.5,-201.5 63.5,-220.5 188.5,-220.5 188.5,-201.5 63.5,-201.5"/>
<text text-anchor="middle" x="126" y="-208.5" font-family="Helvetica,sans-Serif" font-size="10.00" fill="#000000">GPUCommonRtypes.h</text>
</a>
</g>
</g>
<!-- Node23&#45;&gt;Node24 -->
<g id="edge33" class="edge">
<title>Node23&#45;&gt;Node24</title>
<path fill="none" stroke="#191970" d="M108.2813,-262.8906C111.2535,-254.1862 115.7214,-241.1015 119.427,-230.2494"/>
<polygon fill="#191970" stroke="#191970" points="122.7532,-231.3394 122.6725,-220.7449 116.1288,-229.0773 122.7532,-231.3394"/>
</g>
<!-- Node24&#45;&gt;Node3 -->
<g id="edge34" class="edge">
<title>Node24&#45;&gt;Node3</title>
<path fill="none" stroke="#191970" d="M135.8463,-201.3416C157.9424,-179.6672 211.7175,-126.9184 239.596,-99.5719"/>
<polygon fill="#191970" stroke="#191970" points="242.3515,-101.7717 247.0395,-92.2705 237.4496,-96.7745 242.3515,-101.7717"/>
</g>
</g>
</svg>
