<?xml version="1.0" encoding="UTF-8" standalone="no"?>
<!DOCTYPE svg PUBLIC "-//W3C//DTD SVG 1.1//EN"
 "http://www.w3.org/Graphics/SVG/1.1/DTD/svg11.dtd">
<!-- Generated by graphviz version 2.40.1 (20161225.0304)
 -->
<!-- Title: /home/travis/build/AliceO2Group/AliceO2/Framework/Core/include/Framework/CompletionPolicyHelpers.h Pages: 1 -->
<!--zoomable 250 -->
<svg id="main" version="1.1" xmlns="http://www.w3.org/2000/svg" xmlns:xlink="http://www.w3.org/1999/xlink" xml:space="preserve" onload="init(evt)">
<style type="text/css"><![CDATA[
.edge:hover path { stroke: red; }
.edge:hover polygon { stroke: red; fill: red; }
]]></style>
<script type="text/javascript"><![CDATA[
var edges = document.getElementsByTagName('g');
if (edges && edges.length) {
  for (var i=0;i<edges.length;i++) {
    if (edges[i].id.substr(0,4)=='edge') {
      edges[i].setAttribute('class','edge');
    }
  }
}
]]></script>
        <defs>
                <circle id="rim" cx="0" cy="0" r="7"/>
                <circle id="rim2" cx="0" cy="0" r="3.5"/>
                <g id="zoomPlus">
                        <use xlink:href="#rim" fill="#404040">
                                <set attributeName="fill" to="#808080" begin="zoomplus.mouseover" end="zoomplus.mouseout"/>
                        </use>
                        <path d="M-4,0h8M0,-4v8" fill="none" stroke="white" stroke-width="1.5" pointer-events="none"/>
                </g>
                <g id="zoomMin">
                        <use xlink:href="#rim" fill="#404040">
                                <set attributeName="fill" to="#808080" begin="zoomminus.mouseover" end="zoomminus.mouseout"/>
                        </use>
                        <path d="M-4,0h8" fill="none" stroke="white" stroke-width="1.5" pointer-events="none"/>
                </g>
                <g id="dirArrow">
                        <path fill="none" stroke="white" stroke-width="1.5" d="M0,-3.0v7 M-2.5,-0.5L0,-3.0L2.5,-0.5"/>
                </g>
               <g id="resetDef">
                       <use xlink:href="#rim2" fill="#404040">
                               <set attributeName="fill" to="#808080" begin="reset.mouseover" end="reset.mouseout"/>
                       </use>
               </g>
        </defs>

<script type="text/javascript">
var viewWidth = 3108;
var viewHeight = 250;
var sectionId = 'dynsection-1';
</script>
<script xlink:href="../../svgpan.js"/>
<svg id="graph" class="graph">
<g id="viewport">
<title>/home/travis/build/AliceO2Group/AliceO2/Framework/Core/include/Framework/CompletionPolicyHelpers.h</title>
<!-- Node19 -->
<g id="node1" class="node">
<title>Node19</title>
<polygon fill="#bfbfbf" stroke="#000000" points="1515,-189.5 1515,-241.5 1724,-241.5 1724,-189.5 1515,-189.5"/>
<text text-anchor="start" x="1523" y="-229.5" font-family="Helvetica,sans-Serif" font-size="10.00" fill="#000000">/home/travis/build</text>
<text text-anchor="start" x="1523" y="-218.5" font-family="Helvetica,sans-Serif" font-size="10.00" fill="#000000">/AliceO2Group/AliceO2</text>
<text text-anchor="start" x="1523" y="-207.5" font-family="Helvetica,sans-Serif" font-size="10.00" fill="#000000">/Framework/Core/include</text>
<text text-anchor="middle" x="1619.5" y="-196.5" font-family="Helvetica,sans-Serif" font-size="10.00" fill="#000000">/Framework/CompletionPolicyHelpers.h</text>
</g>
<!-- Node19&#45;&gt;Node19 -->
<g id="edge6" class="edge">
<title>Node19&#45;&gt;Node19</title>
<path fill="none" stroke="#191970" d="M1733.8144,-225.7496C1738.9813,-223.1463 1742,-219.7297 1742,-215.5 1742,-209.0547 1734.9905,-204.4977 1724.0518,-201.8289"/>
<polygon fill="#191970" stroke="#191970" points="1732.3314,-222.5605 1724.0518,-229.1711 1734.6467,-229.1665 1732.3314,-222.5605"/>
</g>
<!-- Node20 -->
<g id="node2" class="node">
<title>Node20</title>
<g id="a_node2"><a xlink:href="../../df/df4/CCDBPopulatorSpec_8h.html" target="_top" xlink:title="/home/travis/build\l/AliceO2Group/AliceO2\l/Detectors/Calibration\l/workflow/CCDBPopulatorSpec.h">
<polygon fill="none" stroke="#000000" points="0,-100.5 0,-152.5 173,-152.5 173,-100.5 0,-100.5"/>
<text text-anchor="start" x="8" y="-140.5" font-family="Helvetica,sans-Serif" font-size="10.00" fill="#000000">/home/travis/build</text>
<text text-anchor="start" x="8" y="-129.5" font-family="Helvetica,sans-Serif" font-size="10.00" fill="#000000">/AliceO2Group/AliceO2</text>
<text text-anchor="start" x="8" y="-118.5" font-family="Helvetica,sans-Serif" font-size="10.00" fill="#000000">/Detectors/Calibration</text>
<text text-anchor="middle" x="86.5" y="-107.5" font-family="Helvetica,sans-Serif" font-size="10.00" fill="#000000">/workflow/CCDBPopulatorSpec.h</text>
</a>
</g>
</g>
<!-- Node19&#45;&gt;Node20 -->
<g id="edge1" class="edge">
<title>Node19&#45;&gt;Node20</title>
<path fill="none" stroke="#191970" d="M1504.7224,-213.8505C1210.8004,-209.0902 436.3322,-193.0263 182.5,-153 179.4258,-152.5152 176.3093,-151.9676 173.1716,-151.3684"/>
<polygon fill="#191970" stroke="#191970" points="1504.9188,-217.354 1514.9738,-214.0151 1505.0313,-210.3549 1504.9188,-217.354"/>
</g>
<!-- Node22 -->
<g id="node4" class="node">
<title>Node22</title>
<g id="a_node4"><a xlink:href="../../dd/d58/calib-pedestal_8cxx.html" target="_top" xlink:title="/home/travis/build\l/AliceO2Group/AliceO2\l/Detectors/TPC/calibration\l/run/calib&#45;pedestal.cxx">
<polygon fill="none" stroke="#000000" points="191,-100.5 191,-152.5 334,-152.5 334,-100.5 191,-100.5"/>
<text text-anchor="start" x="199" y="-140.5" font-family="Helvetica,sans-Serif" font-size="10.00" fill="#000000">/home/travis/build</text>
<text text-anchor="start" x="199" y="-129.5" font-family="Helvetica,sans-Serif" font-size="10.00" fill="#000000">/AliceO2Group/AliceO2</text>
<text text-anchor="start" x="199" y="-118.5" font-family="Helvetica,sans-Serif" font-size="10.00" fill="#000000">/Detectors/TPC/calibration</text>
<text text-anchor="middle" x="262.5" y="-107.5" font-family="Helvetica,sans-Serif" font-size="10.00" fill="#000000">/run/calib&#45;pedestal.cxx</text>
</a>
</g>
</g>
<!-- Node19&#45;&gt;Node22 -->
<g id="edge3" class="edge">
<title>Node19&#45;&gt;Node22</title>
<path fill="none" stroke="#191970" d="M1504.6249,-213.7952C1234.3402,-209.1504 564.3566,-193.7743 343.5,-153 340.4445,-152.4359 337.3452,-151.786 334.2299,-151.0682"/>
<polygon fill="#191970" stroke="#191970" points="1504.7932,-217.2985 1514.8513,-213.9691 1504.9123,-210.2995 1504.7932,-217.2985"/>
</g>
<!-- Node23 -->
<g id="node5" class="node">
<title>Node23</title>
<g id="a_node5"><a xlink:href="../../db/d8e/tpc-raw-to-digits-workflow_8cxx.html" target="_top" xlink:title="/home/travis/build\l/AliceO2Group/AliceO2\l/Detectors/TPC/workflow\l/src/tpc&#45;raw&#45;to&#45;digits&#45;workflow.cxx">
<polygon fill="none" stroke="#000000" points="352,-100.5 352,-152.5 537,-152.5 537,-100.5 352,-100.5"/>
<text text-anchor="start" x="360" y="-140.5" font-family="Helvetica,sans-Serif" font-size="10.00" fill="#000000">/home/travis/build</text>
<text text-anchor="start" x="360" y="-129.5" font-family="Helvetica,sans-Serif" font-size="10.00" fill="#000000">/AliceO2Group/AliceO2</text>
<text text-anchor="start" x="360" y="-118.5" font-family="Helvetica,sans-Serif" font-size="10.00" fill="#000000">/Detectors/TPC/workflow</text>
<text text-anchor="middle" x="444.5" y="-107.5" font-family="Helvetica,sans-Serif" font-size="10.00" fill="#000000">/src/tpc&#45;raw&#45;to&#45;digits&#45;workflow.cxx</text>
</a>
</g>
</g>
<!-- Node19&#45;&gt;Node23 -->
<g id="edge4" class="edge">
<title>Node19&#45;&gt;Node23</title>
<path fill="none" stroke="#191970" d="M1504.7763,-211.6641C1267.187,-203.2533 728.3326,-181.6324 546.5,-153 543.4275,-152.5162 540.3133,-151.9798 537.1764,-151.3999"/>
<polygon fill="#191970" stroke="#191970" points="1504.7086,-215.1638 1514.8257,-212.0183 1504.9553,-208.1681 1504.7086,-215.1638"/>
</g>
<!-- Node24 -->
<g id="node6" class="node">
<title>Node24</title>
<g id="a_node6"><a xlink:href="../../d3/dbf/tpc-reco-workflow_8cxx.html" target="_top" xlink:title="Basic DPL workflow for TPC reconstruction starting from digits. ">
<polygon fill="none" stroke="#000000" points="555.5,-100.5 555.5,-152.5 699.5,-152.5 699.5,-100.5 555.5,-100.5"/>
<text text-anchor="start" x="563.5" y="-140.5" font-family="Helvetica,sans-Serif" font-size="10.00" fill="#000000">/home/travis/build</text>
<text text-anchor="start" x="563.5" y="-129.5" font-family="Helvetica,sans-Serif" font-size="10.00" fill="#000000">/AliceO2Group/AliceO2</text>
<text text-anchor="start" x="563.5" y="-118.5" font-family="Helvetica,sans-Serif" font-size="10.00" fill="#000000">/Detectors/TPC/workflow</text>
<text text-anchor="middle" x="627.5" y="-107.5" font-family="Helvetica,sans-Serif" font-size="10.00" fill="#000000">/src/tpc&#45;reco&#45;workflow.cxx</text>
</a>
</g>
</g>
<!-- Node19&#45;&gt;Node24 -->
<g id="edge5" class="edge">
<title>Node19&#45;&gt;Node24</title>
<path fill="none" stroke="#191970" d="M1504.7001,-211.1703C1294.9816,-202.6719 857.7732,-182.0708 708.5,-153 705.5954,-152.4343 702.6502,-151.7953 699.6886,-151.0978"/>
<polygon fill="#191970" stroke="#191970" points="1504.6857,-214.6725 1514.8186,-211.5781 1504.9677,-207.6782 1504.6857,-214.6725"/>
</g>
<!-- Node25 -->
<g id="node7" class="node">
<title>Node25</title>
<g id="a_node7"><a xlink:href="../../da/d6d/CompletionPolicy_8cxx.html" target="_top" xlink:title="/home/travis/build\l/AliceO2Group/AliceO2\l/Framework/Core/src/Completion\lPolicy.cxx">
<polygon fill="none" stroke="#000000" points="717.5,-100.5 717.5,-152.5 893.5,-152.5 893.5,-100.5 717.5,-100.5"/>
<text text-anchor="start" x="725.5" y="-140.5" font-family="Helvetica,sans-Serif" font-size="10.00" fill="#000000">/home/travis/build</text>
<text text-anchor="start" x="725.5" y="-129.5" font-family="Helvetica,sans-Serif" font-size="10.00" fill="#000000">/AliceO2Group/AliceO2</text>
<text text-anchor="start" x="725.5" y="-118.5" font-family="Helvetica,sans-Serif" font-size="10.00" fill="#000000">/Framework/Core/src/Completion</text>
<text text-anchor="middle" x="805.5" y="-107.5" font-family="Helvetica,sans-Serif" font-size="10.00" fill="#000000">Policy.cxx</text>
</a>
</g>
</g>
<!-- Node19&#45;&gt;Node25 -->
<g id="edge7" class="edge">
<title>Node19&#45;&gt;Node25</title>
<path fill="none" stroke="#191970" d="M1504.7755,-211.8499C1362.504,-205.8697 1113.0105,-190.615 902.5,-153 899.5785,-152.478 896.6173,-151.9084 893.6345,-151.3"/>
<polygon fill="#191970" stroke="#191970" points="1504.696,-215.3495 1514.8318,-212.2646 1504.9845,-208.3554 1504.696,-215.3495"/>
</g>
<!-- Node26 -->
<g id="node8" class="node">
<title>Node26</title>
<g id="a_node8"><a xlink:href="../../da/da3/CompletionPolicyHelpers_8cxx.html" target="_top" xlink:title="/home/travis/build\l/AliceO2Group/AliceO2\l/Framework/Core/src/Completion\lPolicyHelpers.cxx">
<polygon fill="none" stroke="#000000" points="911.5,-100.5 911.5,-152.5 1087.5,-152.5 1087.5,-100.5 911.5,-100.5"/>
<text text-anchor="start" x="919.5" y="-140.5" font-family="Helvetica,sans-Serif" font-size="10.00" fill="#000000">/home/travis/build</text>
<text text-anchor="start" x="919.5" y="-129.5" font-family="Helvetica,sans-Serif" font-size="10.00" fill="#000000">/AliceO2Group/AliceO2</text>
<text text-anchor="start" x="919.5" y="-118.5" font-family="Helvetica,sans-Serif" font-size="10.00" fill="#000000">/Framework/Core/src/Completion</text>
<text text-anchor="middle" x="999.5" y="-107.5" font-family="Helvetica,sans-Serif" font-size="10.00" fill="#000000">PolicyHelpers.cxx</text>
</a>
</g>
</g>
<!-- Node19&#45;&gt;Node26 -->
<g id="edge8" class="edge">
<title>Node19&#45;&gt;Node26</title>
<path fill="none" stroke="#191970" d="M1504.7104,-206.5731C1398.4482,-197.1729 1236.3824,-179.9444 1097.5,-153 1094.2126,-152.3622 1090.8733,-151.6731 1087.5079,-150.9438"/>
<polygon fill="#191970" stroke="#191970" points="1504.5497,-210.0724 1514.817,-207.4585 1505.1606,-203.0991 1504.5497,-210.0724"/>
</g>
<!-- Node27 -->
<g id="node9" class="node">
<title>Node27</title>
<g id="a_node9"><a xlink:href="../../d0/dd6/DataSampling_8cxx.html" target="_top" xlink:title="Implementation of O2 Data Sampling, v1.0. ">
<polygon fill="none" stroke="#000000" points="1106,-106 1106,-147 1315,-147 1315,-106 1106,-106"/>
<text text-anchor="start" x="1114" y="-135" font-family="Helvetica,sans-Serif" font-size="10.00" fill="#000000">/home/travis/build</text>
<text text-anchor="start" x="1114" y="-124" font-family="Helvetica,sans-Serif" font-size="10.00" fill="#000000">/AliceO2Group/AliceO2</text>
<text text-anchor="middle" x="1210.5" y="-113" font-family="Helvetica,sans-Serif" font-size="10.00" fill="#000000">/Framework/Core/src/DataSampling.cxx</text>
</a>
</g>
</g>
<!-- Node19&#45;&gt;Node27 -->
<g id="edge9" class="edge">
<title>Node19&#45;&gt;Node27</title>
<path fill="none" stroke="#191970" d="M1504.8807,-191.7619C1450.2119,-180.3003 1383.9181,-166.199 1324.5,-153 1315.8714,-151.0833 1306.8836,-149.0528 1297.9078,-147.0025"/>
<polygon fill="#191970" stroke="#191970" points="1504.4439,-195.2463 1514.9491,-193.8705 1505.8789,-188.3949 1504.4439,-195.2463"/>
</g>
<!-- Node28 -->
<g id="node10" class="node">
<title>Node28</title>
<g id="a_node10"><a xlink:href="../../d8/dd6/benchmark__DataRelayer_8cxx.html" target="_top" xlink:title="/home/travis/build\l/AliceO2Group/AliceO2\l/Framework/Core/test/benchmark\l_DataRelayer.cxx">
<polygon fill="none" stroke="#000000" points="1333,-100.5 1333,-152.5 1512,-152.5 1512,-100.5 1333,-100.5"/>
<text text-anchor="start" x="1341" y="-140.5" font-family="Helvetica,sans-Serif" font-size="10.00" fill="#000000">/home/travis/build</text>
<text text-anchor="start" x="1341" y="-129.5" font-family="Helvetica,sans-Serif" font-size="10.00" fill="#000000">/AliceO2Group/AliceO2</text>
<text text-anchor="start" x="1341" y="-118.5" font-family="Helvetica,sans-Serif" font-size="10.00" fill="#000000">/Framework/Core/test/benchmark</text>
<text text-anchor="middle" x="1422.5" y="-107.5" font-family="Helvetica,sans-Serif" font-size="10.00" fill="#000000">_DataRelayer.cxx</text>
</a>
</g>
</g>
<!-- Node19&#45;&gt;Node28 -->
<g id="edge10" class="edge">
<title>Node19&#45;&gt;Node28</title>
<path fill="none" stroke="#191970" d="M1552.5341,-185.2464C1529.065,-174.6436 1502.9259,-162.8346 1480.2744,-152.6011"/>
<polygon fill="#191970" stroke="#191970" points="1551.1704,-188.4709 1561.7246,-189.3984 1554.0524,-182.0917 1551.1704,-188.4709"/>
</g>
<!-- Node29 -->
<g id="node11" class="node">
<title>Node29</title>
<g id="a_node11"><a xlink:href="../../df/d93/benchmark__InputRecord_8cxx.html" target="_top" xlink:title="/home/travis/build\l/AliceO2Group/AliceO2\l/Framework/Core/test/benchmark\l_InputRecord.cxx">
<polygon fill="none" stroke="#000000" points="1530,-100.5 1530,-152.5 1709,-152.5 1709,-100.5 1530,-100.5"/>
<text text-anchor="start" x="1538" y="-140.5" font-family="Helvetica,sans-Serif" font-size="10.00" fill="#000000">/home/travis/build</text>
<text text-anchor="start" x="1538" y="-129.5" font-family="Helvetica,sans-Serif" font-size="10.00" fill="#000000">/AliceO2Group/AliceO2</text>
<text text-anchor="start" x="1538" y="-118.5" font-family="Helvetica,sans-Serif" font-size="10.00" fill="#000000">/Framework/Core/test/benchmark</text>
<text text-anchor="middle" x="1619.5" y="-107.5" font-family="Helvetica,sans-Serif" font-size="10.00" fill="#000000">_InputRecord.cxx</text>
</a>
</g>
</g>
<!-- Node19&#45;&gt;Node29 -->
<g id="edge11" class="edge">
<title>Node19&#45;&gt;Node29</title>
<path fill="none" stroke="#191970" d="M1619.5,-179.1155C1619.5,-170.2061 1619.5,-160.8475 1619.5,-152.5341"/>
<polygon fill="#191970" stroke="#191970" points="1616.0001,-179.2784 1619.5,-189.2784 1623.0001,-179.2785 1616.0001,-179.2784"/>
</g>
<!-- Node30 -->
<g id="node12" class="node">
<title>Node30</title>
<g id="a_node12"><a xlink:href="../../d3/dcf/test__CompletionPolicy_8cxx.html" target="_top" xlink:title="/home/travis/build\l/AliceO2Group/AliceO2\l/Framework/Core/test/test\l_CompletionPolicy.cxx">
<polygon fill="none" stroke="#000000" points="1727,-100.5 1727,-152.5 1870,-152.5 1870,-100.5 1727,-100.5"/>
<text text-anchor="start" x="1735" y="-140.5" font-family="Helvetica,sans-Serif" font-size="10.00" fill="#000000">/home/travis/build</text>
<text text-anchor="start" x="1735" y="-129.5" font-family="Helvetica,sans-Serif" font-size="10.00" fill="#000000">/AliceO2Group/AliceO2</text>
<text text-anchor="start" x="1735" y="-118.5" font-family="Helvetica,sans-Serif" font-size="10.00" fill="#000000">/Framework/Core/test/test</text>
<text text-anchor="middle" x="1798.5" y="-107.5" font-family="Helvetica,sans-Serif" font-size="10.00" fill="#000000">_CompletionPolicy.cxx</text>
</a>
</g>
</g>
<!-- Node19&#45;&gt;Node30 -->
<g id="edge12" class="edge">
<title>Node19&#45;&gt;Node30</title>
<path fill="none" stroke="#191970" d="M1681.4342,-184.7059C1702.5232,-174.2203 1725.8751,-162.6096 1746.1392,-152.5341"/>
<polygon fill="#191970" stroke="#191970" points="1679.6338,-181.6923 1672.2378,-189.2784 1682.7503,-187.9603 1679.6338,-181.6923"/>
</g>
<!-- Node31 -->
<g id="node13" class="node">
<title>Node31</title>
<g id="a_node13"><a xlink:href="../../dc/d6d/test__DataRelayer_8cxx.html" target="_top" xlink:title="/home/travis/build\l/AliceO2Group/AliceO2\l/Framework/Core/test/test\l_DataRelayer.cxx">
<polygon fill="none" stroke="#000000" points="1888,-100.5 1888,-152.5 2031,-152.5 2031,-100.5 1888,-100.5"/>
<text text-anchor="start" x="1896" y="-140.5" font-family="Helvetica,sans-Serif" font-size="10.00" fill="#000000">/home/travis/build</text>
<text text-anchor="start" x="1896" y="-129.5" font-family="Helvetica,sans-Serif" font-size="10.00" fill="#000000">/AliceO2Group/AliceO2</text>
<text text-anchor="start" x="1896" y="-118.5" font-family="Helvetica,sans-Serif" font-size="10.00" fill="#000000">/Framework/Core/test/test</text>
<text text-anchor="middle" x="1959.5" y="-107.5" font-family="Helvetica,sans-Serif" font-size="10.00" fill="#000000">_DataRelayer.cxx</text>
</a>
</g>
</g>
<!-- Node19&#45;&gt;Node31 -->
<g id="edge13" class="edge">
<title>Node19&#45;&gt;Node31</title>
<path fill="none" stroke="#191970" d="M1733.9784,-190.1692C1779.4935,-179.5292 1832.1892,-166.4965 1879.5,-153 1882.1733,-152.2374 1884.8904,-151.442 1887.6301,-150.6229"/>
<polygon fill="#191970" stroke="#191970" points="1733.0271,-186.797 1724.0804,-192.472 1734.6134,-193.6149 1733.0271,-186.797"/>
</g>
<!-- Node32 -->
<g id="node14" class="node">
<title>Node32</title>
<g id="a_node14"><a xlink:href="../../d8/d7e/test__ParallelPipeline_8cxx.html" target="_top" xlink:title="/home/travis/build\l/AliceO2Group/AliceO2\l/Framework/Core/test/test\l_ParallelPipeline.cxx">
<polygon fill="none" stroke="#000000" points="2049,-100.5 2049,-152.5 2192,-152.5 2192,-100.5 2049,-100.5"/>
<text text-anchor="start" x="2057" y="-140.5" font-family="Helvetica,sans-Serif" font-size="10.00" fill="#000000">/home/travis/build</text>
<text text-anchor="start" x="2057" y="-129.5" font-family="Helvetica,sans-Serif" font-size="10.00" fill="#000000">/AliceO2Group/AliceO2</text>
<text text-anchor="start" x="2057" y="-118.5" font-family="Helvetica,sans-Serif" font-size="10.00" fill="#000000">/Framework/Core/test/test</text>
<text text-anchor="middle" x="2120.5" y="-107.5" font-family="Helvetica,sans-Serif" font-size="10.00" fill="#000000">_ParallelPipeline.cxx</text>
</a>
</g>
</g>
<!-- Node19&#45;&gt;Node32 -->
<g id="edge14" class="edge">
<title>Node19&#45;&gt;Node32</title>
<path fill="none" stroke="#191970" d="M1734.224,-203.8837C1819.451,-193.9489 1938.1637,-177.3532 2040.5,-153 2043.2044,-152.3564 2045.948,-151.6624 2048.7101,-150.929"/>
<polygon fill="#191970" stroke="#191970" points="1733.7943,-200.4099 1724.2611,-205.0325 1734.5963,-207.3639 1733.7943,-200.4099"/>
</g>
<!-- Node33 -->
<g id="node15" class="node">
<title>Node33</title>
<g id="a_node15"><a xlink:href="../../d2/d23/dataSamplingBenchmark_8cxx.html" target="_top" xlink:title="/home/travis/build\l/AliceO2Group/AliceO2\l/Framework/TestWorkflows\l/src/dataSamplingBenchmark.cxx">
<polygon fill="none" stroke="#000000" points="2210.5,-100.5 2210.5,-152.5 2390.5,-152.5 2390.5,-100.5 2210.5,-100.5"/>
<text text-anchor="start" x="2218.5" y="-140.5" font-family="Helvetica,sans-Serif" font-size="10.00" fill="#000000">/home/travis/build</text>
<text text-anchor="start" x="2218.5" y="-129.5" font-family="Helvetica,sans-Serif" font-size="10.00" fill="#000000">/AliceO2Group/AliceO2</text>
<text text-anchor="start" x="2218.5" y="-118.5" font-family="Helvetica,sans-Serif" font-size="10.00" fill="#000000">/Framework/TestWorkflows</text>
<text text-anchor="middle" x="2300.5" y="-107.5" font-family="Helvetica,sans-Serif" font-size="10.00" fill="#000000">/src/dataSamplingBenchmark.cxx</text>
</a>
</g>
</g>
<!-- Node19&#45;&gt;Node33 -->
<g id="edge15" class="edge">
<title>Node19&#45;&gt;Node33</title>
<path fill="none" stroke="#191970" d="M1734.153,-208.4414C1852.0838,-199.9551 2040.7227,-182.965 2201.5,-153 2204.3861,-152.4621 2207.3114,-151.8835 2210.2589,-151.2716"/>
<polygon fill="#191970" stroke="#191970" points="1733.7505,-204.9611 1724.0241,-209.1618 1734.2472,-211.9434 1733.7505,-204.9611"/>
</g>
<!-- Node34 -->
<g id="node16" class="node">
<title>Node34</title>
<g id="a_node16"><a xlink:href="../../d4/dbb/o2DiamondWorkflow_8cxx.html" target="_top" xlink:title="/home/travis/build\l/AliceO2Group/AliceO2\l/Framework/TestWorkflows\l/src/o2DiamondWorkflow.cxx">
<polygon fill="none" stroke="#000000" points="2408.5,-100.5 2408.5,-152.5 2566.5,-152.5 2566.5,-100.5 2408.5,-100.5"/>
<text text-anchor="start" x="2416.5" y="-140.5" font-family="Helvetica,sans-Serif" font-size="10.00" fill="#000000">/home/travis/build</text>
<text text-anchor="start" x="2416.5" y="-129.5" font-family="Helvetica,sans-Serif" font-size="10.00" fill="#000000">/AliceO2Group/AliceO2</text>
<text text-anchor="start" x="2416.5" y="-118.5" font-family="Helvetica,sans-Serif" font-size="10.00" fill="#000000">/Framework/TestWorkflows</text>
<text text-anchor="middle" x="2487.5" y="-107.5" font-family="Helvetica,sans-Serif" font-size="10.00" fill="#000000">/src/o2DiamondWorkflow.cxx</text>
</a>
</g>
</g>
<!-- Node19&#45;&gt;Node34 -->
<g id="edge16" class="edge">
<title>Node19&#45;&gt;Node34</title>
<path fill="none" stroke="#191970" d="M1734.1211,-209.3173C1919.0837,-198.8341 2275.2104,-176.4176 2399.5,-153 2402.3223,-152.4682 2405.1828,-151.8803 2408.0622,-151.2466"/>
<polygon fill="#191970" stroke="#191970" points="1733.8749,-205.8255 1724.0881,-209.8837 1734.2696,-212.8144 1733.8749,-205.8255"/>
</g>
<!-- Node35 -->
<g id="node17" class="node">
<title>Node35</title>
<g id="a_node17"><a xlink:href="../../d8/d33/test__CompletionPolicies_8cxx.html" target="_top" xlink:title="/home/travis/build\l/AliceO2Group/AliceO2\l/Framework/TestWorkflows\l/src/test_CompletionPolicies.cxx">
<polygon fill="none" stroke="#000000" points="2585,-100.5 2585,-152.5 2760,-152.5 2760,-100.5 2585,-100.5"/>
<text text-anchor="start" x="2593" y="-140.5" font-family="Helvetica,sans-Serif" font-size="10.00" fill="#000000">/home/travis/build</text>
<text text-anchor="start" x="2593" y="-129.5" font-family="Helvetica,sans-Serif" font-size="10.00" fill="#000000">/AliceO2Group/AliceO2</text>
<text text-anchor="start" x="2593" y="-118.5" font-family="Helvetica,sans-Serif" font-size="10.00" fill="#000000">/Framework/TestWorkflows</text>
<text text-anchor="middle" x="2672.5" y="-107.5" font-family="Helvetica,sans-Serif" font-size="10.00" fill="#000000">/src/test_CompletionPolicies.cxx</text>
</a>
</g>
</g>
<!-- Node19&#45;&gt;Node35 -->
<g id="edge17" class="edge">
<title>Node19&#45;&gt;Node35</title>
<path fill="none" stroke="#191970" d="M1734.4807,-210.8874C1952.158,-201.6741 2416.8485,-179.5785 2575.5,-153 2578.5991,-152.4808 2581.742,-151.9036 2584.9072,-151.2791"/>
<polygon fill="#191970" stroke="#191970" points="1734.1478,-207.3982 1724.3041,-211.3164 1734.4426,-214.392 1734.1478,-207.3982"/>
</g>
<!-- Node36 -->
<g id="node18" class="node">
<title>Node36</title>
<g id="a_node18"><a xlink:href="../../d2/dd7/SimpleDigitizerWorkflow_8cxx.html" target="_top" xlink:title="/home/travis/build\l/AliceO2Group/AliceO2\l/Steer/DigitizerWorkflow\l/src/SimpleDigitizerWorkflow.cxx">
<polygon fill="none" stroke="#000000" points="2778.5,-100.5 2778.5,-152.5 2954.5,-152.5 2954.5,-100.5 2778.5,-100.5"/>
<text text-anchor="start" x="2786.5" y="-140.5" font-family="Helvetica,sans-Serif" font-size="10.00" fill="#000000">/home/travis/build</text>
<text text-anchor="start" x="2786.5" y="-129.5" font-family="Helvetica,sans-Serif" font-size="10.00" fill="#000000">/AliceO2Group/AliceO2</text>
<text text-anchor="start" x="2786.5" y="-118.5" font-family="Helvetica,sans-Serif" font-size="10.00" fill="#000000">/Steer/DigitizerWorkflow</text>
<text text-anchor="middle" x="2866.5" y="-107.5" font-family="Helvetica,sans-Serif" font-size="10.00" fill="#000000">/src/SimpleDigitizerWorkflow.cxx</text>
</a>
</g>
</g>
<!-- Node19&#45;&gt;Node36 -->
<g id="edge18" class="edge">
<title>Node19&#45;&gt;Node36</title>
<path fill="none" stroke="#191970" d="M1734.5736,-212.3529C1985.0112,-204.9972 2572.7522,-184.8502 2769.5,-153 2772.4296,-152.5257 2775.3979,-151.9976 2778.3868,-151.4249"/>
<polygon fill="#191970" stroke="#191970" points="1734.2493,-208.8608 1724.3558,-212.6514 1734.4537,-215.8578 1734.2493,-208.8608"/>
</g>
<!-- Node37 -->
<g id="node19" class="node">
<title>Node37</title>
<g id="a_node19"><a xlink:href="../../d8/d56/MergerBuilder_8cxx.html" target="_top" xlink:title="Definition of MergerBuilder for O2 Mergers. ">
<polygon fill="none" stroke="#000000" points="2973,-100.5 2973,-152.5 3100,-152.5 3100,-100.5 2973,-100.5"/>
<text text-anchor="start" x="2981" y="-140.5" font-family="Helvetica,sans-Serif" font-size="10.00" fill="#000000">/home/travis/build</text>
<text text-anchor="start" x="2981" y="-129.5" font-family="Helvetica,sans-Serif" font-size="10.00" fill="#000000">/AliceO2Group/AliceO2</text>
<text text-anchor="start" x="2981" y="-118.5" font-family="Helvetica,sans-Serif" font-size="10.00" fill="#000000">/Utilities/Mergers/src</text>
<text text-anchor="middle" x="3036.5" y="-107.5" font-family="Helvetica,sans-Serif" font-size="10.00" fill="#000000">/MergerBuilder.cxx</text>
</a>
</g>
</g>
<!-- Node19&#45;&gt;Node37 -->
<g id="edge19" class="edge">
<title>Node19&#45;&gt;Node37</title>
<path fill="none" stroke="#191970" d="M1734.4983,-214.5928C2015.279,-211.6634 2729.891,-199.7096 2963.5,-153 2966.5409,-152.392 2969.6246,-151.6793 2972.7189,-150.8857"/>
<polygon fill="#191970" stroke="#191970" points="1734.2529,-211.095 1724.2892,-214.6973 1734.3246,-218.0946 1734.2529,-211.095"/>
</g>
<!-- Node21 -->
<g id="node3" class="node">
<title>Node21</title>
<g id="a_node3"><a xlink:href="../../d2/d5c/ccdb-populator-workflow_8cxx.html" target="_top" xlink:title="/home/travis/build\l/AliceO2Group/AliceO2\l/Detectors/Calibration\l/workflow/ccdb&#45;populator\l&#45;workflow.cxx">
<polygon fill="none" stroke="#000000" points="16.5,-.5 16.5,-63.5 156.5,-63.5 156.5,-.5 16.5,-.5"/>
<text text-anchor="start" x="24.5" y="-51.5" font-family="Helvetica,sans-Serif" font-size="10.00" fill="#000000">/home/travis/build</text>
<text text-anchor="start" x="24.5" y="-40.5" font-family="Helvetica,sans-Serif" font-size="10.00" fill="#000000">/AliceO2Group/AliceO2</text>
<text text-anchor="start" x="24.5" y="-29.5" font-family="Helvetica,sans-Serif" font-size="10.00" fill="#000000">/Detectors/Calibration</text>
<text text-anchor="start" x="24.5" y="-18.5" font-family="Helvetica,sans-Serif" font-size="10.00" fill="#000000">/workflow/ccdb&#45;populator</text>
<text text-anchor="middle" x="86.5" y="-7.5" font-family="Helvetica,sans-Serif" font-size="10.00" fill="#000000">&#45;workflow.cxx</text>
</a>
</g>
</g>
<!-- Node20&#45;&gt;Node21 -->
<g id="edge2" class="edge">
<title>Node20&#45;&gt;Node21</title>
<path fill="none" stroke="#191970" d="M86.5,-90.1424C86.5,-81.4277 86.5,-72.1902 86.5,-63.7054"/>
<polygon fill="#191970" stroke="#191970" points="83.0001,-90.4273 86.5,-100.4273 90.0001,-90.4273 83.0001,-90.4273"/>
</g>
</g>
</svg>
        <g id="navigator" transform="translate(0 0)" fill="#404254">
                <rect fill="#f2f5e9" fill-opacity="0.5" stroke="#606060" stroke-width=".5" x="0" y="0" width="60" height="60"/>
                <use id="zoomplus" xlink:href="#zoomPlus" x="17" y="9" onmousedown="handleZoom(evt,'in')"/>
                <use id="zoomminus" xlink:href="#zoomMin" x="42" y="9" onmousedown="handleZoom(evt,'out')"/>
                <use id="reset" xlink:href="#resetDef" x="30" y="36" onmousedown="handleReset()"/>
                <g id="arrowUp" xlink:href="#dirArrow" transform="translate(30 24)" onmousedown="handlePan(0,-1)">
                  <use xlink:href="#rim" fill="#404040">
                        <set attributeName="fill" to="#808080" begin="arrowUp.mouseover" end="arrowUp.mouseout"/>
                  </use>
                  <path fill="none" stroke="white" stroke-width="1.5" d="M0,-3.0v7 M-2.5,-0.5L0,-3.0L2.5,-0.5"/>
                </g>
                <g id="arrowRight" xlink:href="#dirArrow" transform="rotate(90) translate(36 -43)" onmousedown="handlePan(1,0)">
                  <use xlink:href="#rim" fill="#404040">
                        <set attributeName="fill" to="#808080" begin="arrowRight.mouseover" end="arrowRight.mouseout"/>
                  </use>
                  <path fill="none" stroke="white" stroke-width="1.5" d="M0,-3.0v7 M-2.5,-0.5L0,-3.0L2.5,-0.5"/>
                </g>
                <g id="arrowDown" xlink:href="#dirArrow" transform="rotate(180) translate(-30 -48)" onmousedown="handlePan(0,1)">
                  <use xlink:href="#rim" fill="#404040">
                        <set attributeName="fill" to="#808080" begin="arrowDown.mouseover" end="arrowDown.mouseout"/>
                  </use>
                  <path fill="none" stroke="white" stroke-width="1.5" d="M0,-3.0v7 M-2.5,-0.5L0,-3.0L2.5,-0.5"/>
                </g>
                <g id="arrowLeft" xlink:href="#dirArrow" transform="rotate(270) translate(-36 17)" onmousedown="handlePan(-1,0)">
                  <use xlink:href="#rim" fill="#404040">
                        <set attributeName="fill" to="#808080" begin="arrowLeft.mouseover" end="arrowLeft.mouseout"/>
                  </use>
                  <path fill="none" stroke="white" stroke-width="1.5" d="M0,-3.0v7 M-2.5,-0.5L0,-3.0L2.5,-0.5"/>
                </g>
        </g>
        <svg viewBox="0 0 15 15" width="100%" height="30px" preserveAspectRatio="xMaxYMin meet">
         <g id="arrow_out" transform="scale(0.3 0.3)">
          <a xlink:href="CompletionPolicyHelpers_8h__dep__incl_org.svg" target="_base">
           <rect id="button" ry="5" rx="5" y="6" x="6" height="38" width="38"
                fill="#f2f5e9" fill-opacity="0.5" stroke="#606060" stroke-width="1.0"/>
           <path id="arrow"
             d="M 11.500037,31.436501 C 11.940474,20.09759 22.043105,11.32322 32.158766,21.979434 L 37.068811,17.246167 C 37.068811,17.246167 37.088388,32 37.088388,32 L 22.160133,31.978069 C 22.160133,31.978069 26.997745,27.140456 26.997745,27.140456 C 18.528582,18.264221 13.291696,25.230495 11.500037,31.436501 z"
             style="fill:#404040;"/>
          </a>
         </g>
        </svg>
</svg>
