<?xml version="1.0" encoding="UTF-8" standalone="no"?>
<!DOCTYPE svg PUBLIC "-//W3C//DTD SVG 1.1//EN"
 "http://www.w3.org/Graphics/SVG/1.1/DTD/svg11.dtd">
<!-- Generated by graphviz version 2.40.1 (20161225.0304)
 -->
<!-- Title: /home/travis/build/AliceO2Group/AliceO2/Detectors/ITSMFT/ITS/tracking/src/Vertexer.cxx Pages: 1 -->
<svg width="3603pt" height="676pt"
 viewBox="0.00 0.00 3602.81 676.00" xmlns="http://www.w3.org/2000/svg" xmlns:xlink="http://www.w3.org/1999/xlink">
<g id="graph0" class="graph" transform="scale(1 1) rotate(0) translate(4 672)">
<title>/home/travis/build/AliceO2Group/AliceO2/Detectors/ITSMFT/ITS/tracking/src/Vertexer.cxx</title>
<!-- Node0 -->
<g id="node1" class="node">
<title>Node0</title>
<polygon fill="#bfbfbf" stroke="#000000" points="2182.3061,-615.5 2182.3061,-667.5 2322.3061,-667.5 2322.3061,-615.5 2182.3061,-615.5"/>
<text text-anchor="start" x="2190.3061" y="-655.5" font-family="Helvetica,sans-Serif" font-size="10.00" fill="#000000">/home/travis/build</text>
<text text-anchor="start" x="2190.3061" y="-644.5" font-family="Helvetica,sans-Serif" font-size="10.00" fill="#000000">/AliceO2Group/AliceO2</text>
<text text-anchor="start" x="2190.3061" y="-633.5" font-family="Helvetica,sans-Serif" font-size="10.00" fill="#000000">/Detectors/ITSMFT/ITS</text>
<text text-anchor="middle" x="2252.3061" y="-622.5" font-family="Helvetica,sans-Serif" font-size="10.00" fill="#000000">/tracking/src/Vertexer.cxx</text>
</g>
<!-- Node1 -->
<g id="node2" class="node">
<title>Node1</title>
<g id="a_node2"><a xlink:href="../../de/d9b/Vertexer_8h.html" target="_top" xlink:title="ITStracking/Vertexer.h">
<polygon fill="none" stroke="#000000" points="1943.3061,-559.5 1943.3061,-578.5 2067.3061,-578.5 2067.3061,-559.5 1943.3061,-559.5"/>
<text text-anchor="middle" x="2005.3061" y="-566.5" font-family="Helvetica,sans-Serif" font-size="10.00" fill="#000000">ITStracking/Vertexer.h</text>
</a>
</g>
</g>
<!-- Node0&#45;&gt;Node1 -->
<g id="edge1" class="edge">
<title>Node0&#45;&gt;Node1</title>
<path fill="none" stroke="#191970" d="M2182.1865,-620.9183C2138.9043,-608.214 2084.7904,-592.3304 2047.8903,-581.4994"/>
<polygon fill="#191970" stroke="#191970" points="2048.5434,-578.0435 2037.9624,-578.5853 2046.5718,-584.7601 2048.5434,-578.0435"/>
</g>
<!-- Node5 -->
<g id="node6" class="node">
<title>Node5</title>
<polygon fill="none" stroke="#bfbfbf" points="1969.3061,-56.5 1969.3061,-75.5 2011.3061,-75.5 2011.3061,-56.5 1969.3061,-56.5"/>
<text text-anchor="middle" x="1990.3061" y="-63.5" font-family="Helvetica,sans-Serif" font-size="10.00" fill="#000000">array</text>
</g>
<!-- Node0&#45;&gt;Node5 -->
<g id="edge132" class="edge">
<title>Node0&#45;&gt;Node5</title>
<path fill="none" stroke="#191970" d="M2182.1678,-641.196C1804.6413,-639.111 31.3061,-623.4391 31.3061,-513 31.3061,-513 31.3061,-513 31.3061,-194.5 31.3061,-157.9597 -102.039,-183.0583 186.3061,-112 275.8113,-89.9428 1725.922,-69.5572 1958.8473,-66.4176"/>
<polygon fill="#191970" stroke="#191970" points="1959.0566,-69.9152 1969.0087,-66.2812 1958.9626,-62.9158 1959.0566,-69.9152"/>
</g>
<!-- Node7 -->
<g id="node8" class="node">
<title>Node7</title>
<g id="a_node8"><a xlink:href="../../dc/d8d/ITS_2tracking_2include_2ITStracking_2ROframe_8h.html" target="_top" xlink:title="ITStracking/ROframe.h">
<polygon fill="none" stroke="#000000" points="707.8061,-386 707.8061,-405 834.8061,-405 834.8061,-386 707.8061,-386"/>
<text text-anchor="middle" x="771.3061" y="-393" font-family="Helvetica,sans-Serif" font-size="10.00" fill="#000000">ITStracking/ROframe.h</text>
</a>
</g>
</g>
<!-- Node0&#45;&gt;Node7 -->
<g id="edge114" class="edge">
<title>Node0&#45;&gt;Node7</title>
<path fill="none" stroke="#191970" d="M2182.0415,-639.4243C1910.8873,-630.9071 941.9594,-595.6056 826.3061,-523 789.0113,-499.5868 776.9365,-444.672 773.079,-415.1307"/>
<polygon fill="#191970" stroke="#191970" points="776.555,-414.7197 771.9675,-405.1696 769.5982,-415.4961 776.555,-414.7197"/>
</g>
<!-- Node12 -->
<g id="node13" class="node">
<title>Node12</title>
<g id="a_node13"><a xlink:href="../../da/d7f/Detectors_2ITSMFT_2ITS_2tracking_2include_2ITStracking_2Cluster_8h.html" target="_top" xlink:title="ITStracking/Cluster.h">
<polygon fill="none" stroke="#000000" points="2341.8061,-319 2341.8061,-338 2458.8061,-338 2458.8061,-319 2341.8061,-319"/>
<text text-anchor="middle" x="2400.3061" y="-326" font-family="Helvetica,sans-Serif" font-size="10.00" fill="#000000">ITStracking/Cluster.h</text>
</a>
</g>
</g>
<!-- Node0&#45;&gt;Node12 -->
<g id="edge113" class="edge">
<title>Node0&#45;&gt;Node12</title>
<path fill="none" stroke="#191970" d="M2322.3156,-626.1749C2378.9391,-609.1732 2449.3061,-575.4762 2449.3061,-513 2449.3061,-513 2449.3061,-513 2449.3061,-457 2449.3061,-415.4503 2426.6632,-371.01 2412.1618,-346.8092"/>
<polygon fill="#191970" stroke="#191970" points="2414.9561,-344.674 2406.712,-338.0193 2409.0068,-348.3626 2414.9561,-344.674"/>
</g>
<!-- Node26 -->
<g id="node27" class="node">
<title>Node26</title>
<g id="a_node27"><a xlink:href="../../dc/ddf/ITS_2tracking_2include_2ITStracking_2IndexTableUtils_8h.html" target="_top" xlink:title="ITStracking/IndexTableUtils.h">
<polygon fill="none" stroke="#000000" points="2225.3061,-252 2225.3061,-271 2383.3061,-271 2383.3061,-252 2225.3061,-252"/>
<text text-anchor="middle" x="2304.3061" y="-259" font-family="Helvetica,sans-Serif" font-size="10.00" fill="#000000">ITStracking/IndexTableUtils.h</text>
</a>
</g>
</g>
<!-- Node0&#45;&gt;Node26 -->
<g id="edge116" class="edge">
<title>Node0&#45;&gt;Node26</title>
<path fill="none" stroke="#191970" d="M2218.2044,-615.3675C2191.6623,-591.8186 2159.3061,-554.5835 2159.3061,-513 2159.3061,-513 2159.3061,-513 2159.3061,-457 2159.3061,-376.097 2240.4038,-306.8602 2281.2998,-277.0888"/>
<polygon fill="#191970" stroke="#191970" points="2283.483,-279.831 2289.6048,-271.1837 2279.4267,-274.1261 2283.483,-279.831"/>
</g>
<!-- Node50 -->
<g id="node51" class="node">
<title>Node50</title>
<g id="a_node51"><a xlink:href="../../d2/dd6/VertexerTraits_8h.html" target="_top" xlink:title="Class to compute the primary vertex in ITS from tracklets. ">
<polygon fill="none" stroke="#000000" points="2252.8061,-503.5 2252.8061,-522.5 2403.8061,-522.5 2403.8061,-503.5 2252.8061,-503.5"/>
<text text-anchor="middle" x="2328.3061" y="-510.5" font-family="Helvetica,sans-Serif" font-size="10.00" fill="#000000">ITStracking/VertexerTraits.h</text>
</a>
</g>
</g>
<!-- Node0&#45;&gt;Node50 -->
<g id="edge117" class="edge">
<title>Node0&#45;&gt;Node50</title>
<path fill="none" stroke="#191970" d="M2267.6859,-615.4961C2282.4967,-590.4541 2304.5156,-553.2247 2317.5402,-531.2028"/>
<polygon fill="#191970" stroke="#191970" points="2320.6009,-532.9032 2322.6791,-522.5142 2314.5758,-529.3397 2320.6009,-532.9032"/>
</g>
<!-- Node52 -->
<g id="node53" class="node">
<title>Node52</title>
<g id="a_node53"><a xlink:href="../../df/d50/ClusterLines_8h.html" target="_top" xlink:title="ITStracking/ClusterLines.h">
<polygon fill="none" stroke="#000000" points="2477.8061,-447.5 2477.8061,-466.5 2620.8061,-466.5 2620.8061,-447.5 2477.8061,-447.5"/>
<text text-anchor="middle" x="2549.3061" y="-454.5" font-family="Helvetica,sans-Serif" font-size="10.00" fill="#000000">ITStracking/ClusterLines.h</text>
</a>
</g>
</g>
<!-- Node0&#45;&gt;Node52 -->
<g id="edge115" class="edge">
<title>Node0&#45;&gt;Node52</title>
<path fill="none" stroke="#191970" d="M2322.5437,-632.6879C2366.2657,-624.4526 2421.8656,-608.7336 2463.3061,-579 2501.206,-551.8067 2528.327,-502.5373 2541.0892,-475.6815"/>
<polygon fill="#191970" stroke="#191970" points="2544.2767,-477.1271 2545.27,-466.5789 2537.9156,-474.2054 2544.2767,-477.1271"/>
</g>
<!-- Node54 -->
<g id="node55" class="node">
<title>Node54</title>
<g id="a_node55"><a xlink:href="../../dd/dc5/TrackingConfigParam_8h.html" target="_top" xlink:title="ITStracking/TrackingConfig\lParam.h">
<polygon fill="none" stroke="#000000" points="3254.3061,-380.5 3254.3061,-410.5 3400.3061,-410.5 3400.3061,-380.5 3254.3061,-380.5"/>
<text text-anchor="start" x="3262.3061" y="-398.5" font-family="Helvetica,sans-Serif" font-size="10.00" fill="#000000">ITStracking/TrackingConfig</text>
<text text-anchor="middle" x="3327.3061" y="-387.5" font-family="Helvetica,sans-Serif" font-size="10.00" fill="#000000">Param.h</text>
</a>
</g>
</g>
<!-- Node0&#45;&gt;Node54 -->
<g id="edge118" class="edge">
<title>Node0&#45;&gt;Node54</title>
<path fill="none" stroke="#191970" d="M2322.4641,-633.738C2519.3985,-611.2242 3073.7181,-542.6724 3239.3061,-467 3264.8473,-455.3279 3289.2493,-434.4616 3305.8505,-418.2725"/>
<polygon fill="#191970" stroke="#191970" points="3308.7589,-420.3129 3313.3443,-410.7617 3303.8035,-415.3687 3308.7589,-420.3129"/>
</g>
<!-- Node2 -->
<g id="node3" class="node">
<title>Node2</title>
<polygon fill="none" stroke="#bfbfbf" points="2007.3061,-503.5 2007.3061,-522.5 2057.3061,-522.5 2057.3061,-503.5 2007.3061,-503.5"/>
<text text-anchor="middle" x="2032.3061" y="-510.5" font-family="Helvetica,sans-Serif" font-size="10.00" fill="#000000">chrono</text>
</g>
<!-- Node1&#45;&gt;Node2 -->
<g id="edge2" class="edge">
<title>Node1&#45;&gt;Node2</title>
<path fill="none" stroke="#191970" d="M2010.0092,-559.2455C2013.6485,-551.6973 2018.7985,-541.0158 2023.2323,-531.8197"/>
<polygon fill="#191970" stroke="#191970" points="2026.4666,-533.1704 2027.657,-522.6427 2020.1612,-530.1303 2026.4666,-533.1704"/>
</g>
<!-- Node3 -->
<g id="node4" class="node">
<title>Node3</title>
<polygon fill="none" stroke="#bfbfbf" points="2075.8061,-503.5 2075.8061,-522.5 2130.8061,-522.5 2130.8061,-503.5 2075.8061,-503.5"/>
<text text-anchor="middle" x="2103.3061" y="-510.5" font-family="Helvetica,sans-Serif" font-size="10.00" fill="#000000">fstream</text>
</g>
<!-- Node1&#45;&gt;Node3 -->
<g id="edge3" class="edge">
<title>Node1&#45;&gt;Node3</title>
<path fill="none" stroke="#191970" d="M2022.3764,-559.2455C2037.5532,-550.5731 2059.9682,-537.7645 2077.3624,-527.825"/>
<polygon fill="#191970" stroke="#191970" points="2079.4855,-530.643 2086.4314,-522.6427 2076.0125,-524.5653 2079.4855,-530.643"/>
</g>
<!-- Node4 -->
<g id="node5" class="node">
<title>Node4</title>
<polygon fill="none" stroke="#bfbfbf" points="1635.3061,-252 1635.3061,-271 1691.3061,-271 1691.3061,-252 1635.3061,-252"/>
<text text-anchor="middle" x="1663.3061" y="-259" font-family="Helvetica,sans-Serif" font-size="10.00" fill="#000000">iomanip</text>
</g>
<!-- Node1&#45;&gt;Node4 -->
<g id="edge4" class="edge">
<title>Node1&#45;&gt;Node4</title>
<path fill="none" stroke="#191970" d="M1946.5557,-559.4485C1858.9592,-543.5212 1704.3061,-508.1573 1704.3061,-457 1704.3061,-457 1704.3061,-457 1704.3061,-395.5 1704.3061,-352.9489 1685.1682,-305.9923 1673.0428,-280.5119"/>
<polygon fill="#191970" stroke="#191970" points="1676.0523,-278.7001 1668.4988,-271.2707 1669.7706,-281.789 1676.0523,-278.7001"/>
</g>
<!-- Node1&#45;&gt;Node5 -->
<g id="edge5" class="edge">
<title>Node1&#45;&gt;Node5</title>
<path fill="none" stroke="#191970" d="M1943.0962,-566.1905C1704.7864,-555.0244 863.3061,-511.7219 863.3061,-457 863.3061,-457 863.3061,-457 863.3061,-328.5 863.3061,-283.9329 844.0945,-269.6276 806.3061,-246 713.8564,-188.1948 496.3287,-259.0983 570.3061,-179 594.7622,-152.5204 1753.0122,-80.5137 1959.1099,-67.8988"/>
<polygon fill="#191970" stroke="#191970" points="1959.4785,-71.3829 1969.2463,-67.2793 1959.0514,-64.396 1959.4785,-71.3829"/>
</g>
<!-- Node6 -->
<g id="node7" class="node">
<title>Node6</title>
<polygon fill="none" stroke="#bfbfbf" points="1663.8061,-185 1663.8061,-204 1712.8061,-204 1712.8061,-185 1663.8061,-185"/>
<text text-anchor="middle" x="1688.3061" y="-192" font-family="Helvetica,sans-Serif" font-size="10.00" fill="#000000">iosfwd</text>
</g>
<!-- Node1&#45;&gt;Node6 -->
<g id="edge6" class="edge">
<title>Node1&#45;&gt;Node6</title>
<path fill="none" stroke="#191970" d="M1986.5977,-559.4298C1957.1512,-542.8757 1903.3061,-505.9173 1903.3061,-457 1903.3061,-457 1903.3061,-457 1903.3061,-395.5 1903.3061,-307.0095 1804.3116,-341.1007 1743.3061,-277 1724.755,-257.5077 1708.352,-231.0591 1698.3907,-213.4176"/>
<polygon fill="#191970" stroke="#191970" points="1701.1888,-211.2425 1693.3025,-204.1674 1695.0555,-214.6162 1701.1888,-211.2425"/>
</g>
<!-- Node1&#45;&gt;Node7 -->
<g id="edge7" class="edge">
<title>Node1&#45;&gt;Node7</title>
<path fill="none" stroke="#191970" d="M1943.2138,-568.1451C1709.9324,-564.7252 896.752,-550.8485 849.3061,-523 828.103,-510.5547 795.5528,-446.6761 780.0711,-414.3252"/>
<polygon fill="#191970" stroke="#191970" points="783.1176,-412.5803 775.6803,-405.0346 776.7888,-415.5713 783.1176,-412.5803"/>
</g>
<!-- Node1&#45;&gt;Node12 -->
<g id="edge112" class="edge">
<title>Node1&#45;&gt;Node12</title>
<path fill="none" stroke="#191970" d="M2043.5684,-559.4343C2071.3397,-551.6745 2109.3157,-539.3447 2140.3061,-523 2191.6831,-495.9032 2328.8273,-386.3933 2380.3618,-344.7132"/>
<polygon fill="#191970" stroke="#191970" points="2382.8468,-347.2045 2388.4131,-338.1896 2378.44,-341.7657 2382.8468,-347.2045"/>
</g>
<!-- Node24 -->
<g id="node25" class="node">
<title>Node24</title>
<g id="a_node25"><a xlink:href="../../d0/d86/Detectors_2ITSMFT_2ITS_2tracking_2include_2ITStracking_2Constants_8h.html" target="_top" xlink:title="ITStracking/Constants.h">
<polygon fill="none" stroke="#000000" points="2023.3061,-185 2023.3061,-204 2155.3061,-204 2155.3061,-185 2023.3061,-185"/>
<text text-anchor="middle" x="2089.3061" y="-192" font-family="Helvetica,sans-Serif" font-size="10.00" fill="#000000">ITStracking/Constants.h</text>
</a>
</g>
</g>
<!-- Node1&#45;&gt;Node24 -->
<g id="edge81" class="edge">
<title>Node1&#45;&gt;Node24</title>
<path fill="none" stroke="#191970" d="M2002.7296,-559.1311C1999.7041,-546.2026 1995.4405,-522.8435 1998.3061,-503 2014.5932,-390.2182 2062.7378,-261.2128 2081.6013,-213.5128"/>
<polygon fill="#191970" stroke="#191970" points="2084.891,-214.7123 2085.3523,-204.1275 2078.391,-212.1143 2084.891,-214.7123"/>
</g>
<!-- Node27 -->
<g id="node28" class="node">
<title>Node27</title>
<g id="a_node28"><a xlink:href="../../d3/d6f/DataFormats_2Reconstruction_2include_2ReconstructionDataFormats_2Vertex_8h.html" target="_top" xlink:title="ReconstructionDataFormats\l/Vertex.h">
<polygon fill="none" stroke="#000000" points="1274.3061,-313.5 1274.3061,-343.5 1426.3061,-343.5 1426.3061,-313.5 1274.3061,-313.5"/>
<text text-anchor="start" x="1282.3061" y="-331.5" font-family="Helvetica,sans-Serif" font-size="10.00" fill="#000000">ReconstructionDataFormats</text>
<text text-anchor="middle" x="1350.3061" y="-320.5" font-family="Helvetica,sans-Serif" font-size="10.00" fill="#000000">/Vertex.h</text>
</a>
</g>
</g>
<!-- Node1&#45;&gt;Node27 -->
<g id="edge109" class="edge">
<title>Node1&#45;&gt;Node27</title>
<path fill="none" stroke="#191970" d="M1943.0436,-562.6929C1864.9461,-554.2998 1735.7583,-538.6861 1690.3061,-523 1565.8276,-480.0409 1435.1299,-390.7871 1378.8425,-349.8533"/>
<polygon fill="#191970" stroke="#191970" points="1380.5954,-346.7988 1370.4599,-343.713 1376.4589,-352.4459 1380.5954,-346.7988"/>
</g>
<!-- Node49 -->
<g id="node50" class="node">
<title>Node49</title>
<g id="a_node50"><a xlink:href="../../d3/d59/Configuration_8h.html" target="_top" xlink:title="ITStracking/Configuration.h">
<polygon fill="none" stroke="#000000" points="1860.8061,-252 1860.8061,-271 2009.8061,-271 2009.8061,-252 1860.8061,-252"/>
<text text-anchor="middle" x="1935.3061" y="-259" font-family="Helvetica,sans-Serif" font-size="10.00" fill="#000000">ITStracking/Configuration.h</text>
</a>
</g>
</g>
<!-- Node1&#45;&gt;Node49 -->
<g id="edge82" class="edge">
<title>Node1&#45;&gt;Node49</title>
<path fill="none" stroke="#191970" d="M1995.0234,-559.2781C1976.9321,-541.067 1941.3061,-499.7748 1941.3061,-457 1941.3061,-457 1941.3061,-457 1941.3061,-395.5 1941.3061,-354.9293 1938.5273,-307.5183 1936.7519,-281.3671"/>
<polygon fill="#191970" stroke="#191970" points="1940.2331,-280.9756 1936.0418,-271.2451 1933.2503,-281.4655 1940.2331,-280.9756"/>
</g>
<!-- Node1&#45;&gt;Node50 -->
<g id="edge88" class="edge">
<title>Node1&#45;&gt;Node50</title>
<path fill="none" stroke="#191970" d="M2060.4648,-559.4369C2116.6728,-549.6918 2203.8173,-534.5832 2263.3343,-524.2645"/>
<polygon fill="#191970" stroke="#191970" points="2264.1199,-527.6806 2273.3749,-522.5237 2262.924,-520.7835 2264.1199,-527.6806"/>
</g>
<!-- Node1&#45;&gt;Node52 -->
<g id="edge110" class="edge">
<title>Node1&#45;&gt;Node52</title>
<path fill="none" stroke="#191970" d="M2067.4337,-564.5824C2165.1067,-557.2018 2349.9754,-541.3512 2413.3061,-523 2454.6151,-511.03 2498.7667,-487.3397 2525.1942,-471.8393"/>
<polygon fill="#191970" stroke="#191970" points="2527.2931,-474.6629 2534.0906,-466.5361 2523.7088,-468.6501 2527.2931,-474.6629"/>
</g>
<!-- Node53 -->
<g id="node54" class="node">
<title>Node53</title>
<g id="a_node54"><a xlink:href="../../d8/db3/ITSMFT_2ITS_2tracking_2include_2ITStracking_2Tracklet_8h.html" target="_top" xlink:title="ITStracking/Tracklet.h">
<polygon fill="none" stroke="#000000" points="2949.3061,-386 2949.3061,-405 3071.3061,-405 3071.3061,-386 2949.3061,-386"/>
<text text-anchor="middle" x="3010.3061" y="-393" font-family="Helvetica,sans-Serif" font-size="10.00" fill="#000000">ITStracking/Tracklet.h</text>
</a>
</g>
</g>
<!-- Node1&#45;&gt;Node53 -->
<g id="edge111" class="edge">
<title>Node1&#45;&gt;Node53</title>
<path fill="none" stroke="#191970" d="M2067.4422,-564.98C2154.0667,-558.8369 2315.8536,-545.4057 2452.3061,-523 2563.3825,-504.7611 2589.5661,-492.0549 2699.3061,-467 2790.8888,-446.0906 2897.589,-421.5125 2959.2031,-407.2986"/>
<polygon fill="#191970" stroke="#191970" points="2960.1067,-410.6822 2969.0638,-405.0235 2958.5329,-403.8614 2960.1067,-410.6822"/>
</g>
<!-- Node7&#45;&gt;Node5 -->
<g id="edge8" class="edge">
<title>Node7&#45;&gt;Node5</title>
<path fill="none" stroke="#191970" d="M756.4399,-385.7828C726.4959,-366.0703 657.0242,-319.6277 601.3061,-277 584.2674,-263.9643 584.1247,-254.2141 564.3061,-246 480.6321,-211.3199 219.4594,-276.8156 158.3061,-210 149.0039,-199.8365 151.1531,-190.7754 158.3061,-179 191.8474,-123.7839 224.7579,-128.1724 287.3061,-112 371.3429,-90.2715 1733.6131,-69.7077 1958.8749,-66.4479"/>
<polygon fill="#191970" stroke="#191970" points="1959.0683,-69.9456 1969.0168,-66.3017 1958.9674,-62.9463 1959.0683,-69.9456"/>
</g>
<!-- Node8 -->
<g id="node9" class="node">
<title>Node8</title>
<polygon fill="none" stroke="#bfbfbf" points="2122.8061,-118 2122.8061,-137 2169.8061,-137 2169.8061,-118 2122.8061,-118"/>
<text text-anchor="middle" x="2146.3061" y="-125" font-family="Helvetica,sans-Serif" font-size="10.00" fill="#000000">vector</text>
</g>
<!-- Node7&#45;&gt;Node8 -->
<g id="edge9" class="edge">
<title>Node7&#45;&gt;Node8</title>
<path fill="none" stroke="#191970" d="M834.9071,-394.1627C953.6443,-390.8718 1216.804,-379.8276 1435.3061,-344 1555.1891,-324.3429 1586.1737,-318.6187 1700.3061,-277 1794.0532,-242.8149 1807.9001,-211.321 1902.3061,-179 1975.23,-154.0336 2064.7348,-138.885 2112.4884,-131.9736"/>
<polygon fill="#191970" stroke="#191970" points="2113.1703,-135.4121 2122.5816,-130.5461 2112.19,-128.481 2113.1703,-135.4121"/>
</g>
<!-- Node9 -->
<g id="node10" class="node">
<title>Node9</title>
<polygon fill="none" stroke="#bfbfbf" points="1921.8061,-185 1921.8061,-204 1966.8061,-204 1966.8061,-185 1921.8061,-185"/>
<text text-anchor="middle" x="1944.3061" y="-192" font-family="Helvetica,sans-Serif" font-size="10.00" fill="#000000">utility</text>
</g>
<!-- Node7&#45;&gt;Node9 -->
<g id="edge10" class="edge">
<title>Node7&#45;&gt;Node9</title>
<path fill="none" stroke="#191970" d="M834.9074,-394.0872C1053.4815,-389.0036 1762.6818,-370.529 1803.3061,-344 1844.0788,-317.374 1818.6853,-281.2278 1852.3061,-246 1869.0633,-228.4418 1893.1434,-215.2559 1912.4647,-206.6236"/>
<polygon fill="#191970" stroke="#191970" points="1913.9709,-209.7862 1921.792,-202.6391 1911.221,-203.349 1913.9709,-209.7862"/>
</g>
<!-- Node10 -->
<g id="node11" class="node">
<title>Node10</title>
<polygon fill="none" stroke="#bfbfbf" points="59.3061,-185 59.3061,-204 111.3061,-204 111.3061,-185 59.3061,-185"/>
<text text-anchor="middle" x="85.3061" y="-192" font-family="Helvetica,sans-Serif" font-size="10.00" fill="#000000">cassert</text>
</g>
<!-- Node7&#45;&gt;Node10 -->
<g id="edge11" class="edge">
<title>Node7&#45;&gt;Node10</title>
<path fill="none" stroke="#191970" d="M707.7496,-395.0956C549.3037,-393.4655 146.3785,-385.2639 103.3061,-344 68.1822,-310.3509 74.6064,-246.6415 80.738,-214.3429"/>
<polygon fill="#191970" stroke="#191970" points="84.211,-214.8332 82.826,-204.3293 77.3584,-213.4042 84.211,-214.8332"/>
</g>
<!-- Node11 -->
<g id="node12" class="node">
<title>Node11</title>
<polygon fill="none" stroke="#bfbfbf" points="135.3061,-252 135.3061,-271 183.3061,-271 183.3061,-252 135.3061,-252"/>
<text text-anchor="middle" x="159.3061" y="-259" font-family="Helvetica,sans-Serif" font-size="10.00" fill="#000000">gsl/gsl</text>
</g>
<!-- Node7&#45;&gt;Node11 -->
<g id="edge12" class="edge">
<title>Node7&#45;&gt;Node11</title>
<path fill="none" stroke="#191970" d="M707.4627,-391.6818C627.8332,-385.9179 487.9588,-372.4856 371.3061,-344 287.1653,-323.4535 267.3595,-312.3891 188.3061,-277 187.3161,-276.5568 186.3133,-276.094 185.3051,-275.617"/>
<polygon fill="#191970" stroke="#191970" points="186.7896,-272.446 176.2827,-271.0836 183.6468,-278.7008 186.7896,-272.446"/>
</g>
<!-- Node7&#45;&gt;Node12 -->
<g id="edge13" class="edge">
<title>Node7&#45;&gt;Node12</title>
<path fill="none" stroke="#191970" d="M835.1648,-392.8735C1093.9157,-382.2312 2063.2981,-342.361 2331.2813,-331.339"/>
<polygon fill="#191970" stroke="#191970" points="2331.7952,-334.8209 2341.6429,-330.9128 2331.5075,-327.8268 2331.7952,-334.8209"/>
</g>
<!-- Node7&#45;&gt;Node24 -->
<g id="edge48" class="edge">
<title>Node7&#45;&gt;Node24</title>
<path fill="none" stroke="#191970" d="M834.8474,-394.8016C1032.7684,-392.2491 1636.3861,-381.5133 1828.3061,-344 1916.5956,-326.7427 1945.1747,-327.9644 2019.3061,-277 2044.4653,-259.7034 2065.8949,-231.1132 2078.1887,-212.543"/>
<polygon fill="#191970" stroke="#191970" points="2081.1569,-214.3981 2083.6114,-204.0915 2075.2653,-210.6179 2081.1569,-214.3981"/>
</g>
<!-- Node7&#45;&gt;Node27 -->
<g id="edge49" class="edge">
<title>Node7&#45;&gt;Node27</title>
<path fill="none" stroke="#191970" d="M834.9255,-388.1382C939.2564,-376.0653 1146.8247,-352.0462 1264.2102,-338.4627"/>
<polygon fill="#191970" stroke="#191970" points="1264.7081,-341.9286 1274.2395,-337.3022 1263.9034,-334.975 1264.7081,-341.9286"/>
</g>
<!-- Node42 -->
<g id="node43" class="node">
<title>Node42</title>
<g id="a_node43"><a xlink:href="../../d7/dcd/MCCompLabel_8h.html" target="_top" xlink:title="SimulationDataFormat\l/MCCompLabel.h">
<polygon fill="none" stroke="#000000" points="112.8061,-313.5 112.8061,-343.5 239.8061,-343.5 239.8061,-313.5 112.8061,-313.5"/>
<text text-anchor="start" x="120.8061" y="-331.5" font-family="Helvetica,sans-Serif" font-size="10.00" fill="#000000">SimulationDataFormat</text>
<text text-anchor="middle" x="176.3061" y="-320.5" font-family="Helvetica,sans-Serif" font-size="10.00" fill="#000000">/MCCompLabel.h</text>
</a>
</g>
</g>
<!-- Node7&#45;&gt;Node42 -->
<g id="edge69" class="edge">
<title>Node7&#45;&gt;Node42</title>
<path fill="none" stroke="#191970" d="M707.5228,-389.6093C614.0825,-380.7921 434.5519,-363.1403 282.3061,-344 271.7806,-342.6767 260.6832,-341.1737 249.7912,-339.6366"/>
<polygon fill="#191970" stroke="#191970" points="250.2629,-336.1685 239.8685,-338.2196 249.2733,-343.0982 250.2629,-336.1685"/>
</g>
<!-- Node43 -->
<g id="node44" class="node">
<title>Node43</title>
<g id="a_node44"><a xlink:href="../../db/d14/MCTruthContainer_8h.html" target="_top" xlink:title="Definition of a container to keep Monte Carlo truth external to simulation objects. ">
<polygon fill="none" stroke="#000000" points="380.8061,-313.5 380.8061,-343.5 507.8061,-343.5 507.8061,-313.5 380.8061,-313.5"/>
<text text-anchor="start" x="388.8061" y="-331.5" font-family="Helvetica,sans-Serif" font-size="10.00" fill="#000000">SimulationDataFormat</text>
<text text-anchor="middle" x="444.3061" y="-320.5" font-family="Helvetica,sans-Serif" font-size="10.00" fill="#000000">/MCTruthContainer.h</text>
</a>
</g>
</g>
<!-- Node7&#45;&gt;Node43 -->
<g id="edge71" class="edge">
<title>Node7&#45;&gt;Node43</title>
<path fill="none" stroke="#191970" d="M724.8023,-385.9717C670.9085,-374.9292 581.3994,-356.5895 518.0039,-343.6001"/>
<polygon fill="#191970" stroke="#191970" points="518.562,-340.1419 508.0629,-341.5633 517.1568,-346.9994 518.562,-340.1419"/>
</g>
<!-- Node12&#45;&gt;Node5 -->
<g id="edge14" class="edge">
<title>Node12&#45;&gt;Node5</title>
<path fill="none" stroke="#191970" d="M2401.7164,-318.8816C2403.6006,-302.7117 2405.3394,-269.5426 2392.3061,-246 2368.6685,-203.3023 2262.7146,-132.2414 2218.3061,-112 2152.3132,-81.9205 2066.6962,-71.4055 2021.4719,-67.8085"/>
<polygon fill="#191970" stroke="#191970" points="2021.6342,-64.311 2011.405,-67.0702 2021.1222,-71.2923 2021.6342,-64.311"/>
</g>
<!-- Node13 -->
<g id="node14" class="node">
<title>Node13</title>
<g id="a_node14"><a xlink:href="../../df/d3d/Definitions_8h.html" target="_top" xlink:title="ITStracking/Definitions.h">
<polygon fill="none" stroke="#000000" points="2284.3061,-118 2284.3061,-137 2420.3061,-137 2420.3061,-118 2284.3061,-118"/>
<text text-anchor="middle" x="2352.3061" y="-125" font-family="Helvetica,sans-Serif" font-size="10.00" fill="#000000">ITStracking/Definitions.h</text>
</a>
</g>
</g>
<!-- Node12&#45;&gt;Node13 -->
<g id="edge15" class="edge">
<title>Node12&#45;&gt;Node13</title>
<path fill="none" stroke="#191970" d="M2406.7132,-318.7432C2412.8684,-308.7405 2421.7433,-292.4978 2425.3061,-277 2435.0646,-234.5517 2445.3496,-217.6697 2425.3061,-179 2416.7947,-162.579 2400.3727,-150.2816 2385.2568,-141.8292"/>
<polygon fill="#191970" stroke="#191970" points="2386.5825,-138.5735 2376.0962,-137.0608 2383.3504,-144.7827 2386.5825,-138.5735"/>
</g>
<!-- Node17 -->
<g id="node18" class="node">
<title>Node17</title>
<g id="a_node18"><a xlink:href="../../dc/d3e/MathUtils_8h.html" target="_top" xlink:title="ITStracking/MathUtils.h">
<polygon fill="none" stroke="#000000" points="2613.3061,-252 2613.3061,-271 2743.3061,-271 2743.3061,-252 2613.3061,-252"/>
<text text-anchor="middle" x="2678.3061" y="-259" font-family="Helvetica,sans-Serif" font-size="10.00" fill="#000000">ITStracking/MathUtils.h</text>
</a>
</g>
</g>
<!-- Node12&#45;&gt;Node17 -->
<g id="edge20" class="edge">
<title>Node12&#45;&gt;Node17</title>
<path fill="none" stroke="#191970" d="M2439.8415,-318.9717C2489.4129,-307.0246 2574.4268,-286.5357 2628.4216,-273.5225"/>
<polygon fill="#191970" stroke="#191970" points="2629.5554,-276.8496 2638.457,-271.1039 2627.9153,-270.0444 2629.5554,-276.8496"/>
</g>
<!-- Node12&#45;&gt;Node26 -->
<g id="edge40" class="edge">
<title>Node12&#45;&gt;Node26</title>
<path fill="none" stroke="#191970" d="M2386.5517,-318.9005C2370.8684,-307.9549 2345.0078,-289.9064 2326.4703,-276.9688"/>
<polygon fill="#191970" stroke="#191970" points="2328.2385,-273.9347 2318.0351,-271.0817 2324.2323,-279.675 2328.2385,-273.9347"/>
</g>
<!-- Node13&#45;&gt;Node5 -->
<g id="edge16" class="edge">
<title>Node13&#45;&gt;Node5</title>
<path fill="none" stroke="#191970" d="M2302.9089,-117.9643C2292.1697,-115.9467 2280.864,-113.8648 2270.3061,-112 2180.1783,-96.0808 2073.3974,-79.0405 2021.6025,-70.8905"/>
<polygon fill="#191970" stroke="#191970" points="2021.8323,-67.3838 2011.4104,-69.2899 2020.7463,-74.299 2021.8323,-67.3838"/>
</g>
<!-- Node14 -->
<g id="node15" class="node">
<title>Node14</title>
<g id="a_node15"><a xlink:href="../../df/d21/GPUCommonDef_8h.html" target="_top" xlink:title="GPUCommonDef.h">
<polygon fill="none" stroke="#000000" points="2863.8061,-56.5 2863.8061,-75.5 2970.8061,-75.5 2970.8061,-56.5 2863.8061,-56.5"/>
<text text-anchor="middle" x="2917.3061" y="-63.5" font-family="Helvetica,sans-Serif" font-size="10.00" fill="#000000">GPUCommonDef.h</text>
</a>
</g>
</g>
<!-- Node13&#45;&gt;Node14 -->
<g id="edge17" class="edge">
<title>Node13&#45;&gt;Node14</title>
<path fill="none" stroke="#191970" d="M2420.4769,-120.6114C2514.2108,-111.0564 2688.1351,-93.0282 2836.3061,-76 2841.8488,-75.363 2847.6027,-74.6854 2853.3716,-73.9948"/>
<polygon fill="#191970" stroke="#191970" points="2854.2218,-77.4176 2863.7298,-72.7434 2853.3821,-70.4681 2854.2218,-77.4176"/>
</g>
<!-- Node15 -->
<g id="node16" class="node">
<title>Node15</title>
<g id="a_node16"><a xlink:href="../../d5/d93/GPUCommonDefSettings_8h.html" target="_top" xlink:title="GPUCommonDefSettings.h">
<polygon fill="none" stroke="#000000" points="2766.3061,-.5 2766.3061,-19.5 2914.3061,-19.5 2914.3061,-.5 2766.3061,-.5"/>
<text text-anchor="middle" x="2840.3061" y="-7.5" font-family="Helvetica,sans-Serif" font-size="10.00" fill="#000000">GPUCommonDefSettings.h</text>
</a>
</g>
</g>
<!-- Node14&#45;&gt;Node15 -->
<g id="edge18" class="edge">
<title>Node14&#45;&gt;Node15</title>
<path fill="none" stroke="#191970" d="M2903.8937,-56.2455C2892.3004,-47.814 2875.3314,-35.4729 2861.8383,-25.6598"/>
<polygon fill="#191970" stroke="#191970" points="2863.7108,-22.6938 2853.5648,-19.6427 2859.5936,-28.355 2863.7108,-22.6938"/>
</g>
<!-- Node16 -->
<g id="node17" class="node">
<title>Node16</title>
<g id="a_node17"><a xlink:href="../../da/d5a/GPUCommonDefAPI_8h.html" target="_top" xlink:title="GPUCommonDefAPI.h">
<polygon fill="none" stroke="#000000" points="2932.3061,-.5 2932.3061,-19.5 3056.3061,-19.5 3056.3061,-.5 2932.3061,-.5"/>
<text text-anchor="middle" x="2994.3061" y="-7.5" font-family="Helvetica,sans-Serif" font-size="10.00" fill="#000000">GPUCommonDefAPI.h</text>
</a>
</g>
</g>
<!-- Node14&#45;&gt;Node16 -->
<g id="edge19" class="edge">
<title>Node14&#45;&gt;Node16</title>
<path fill="none" stroke="#191970" d="M2930.7185,-56.2455C2942.3118,-47.814 2959.2809,-35.4729 2972.7739,-25.6598"/>
<polygon fill="#191970" stroke="#191970" points="2975.0187,-28.355 2981.0474,-19.6427 2970.9014,-22.6938 2975.0187,-28.355"/>
</g>
<!-- Node17&#45;&gt;Node5 -->
<g id="edge21" class="edge">
<title>Node17&#45;&gt;Node5</title>
<path fill="none" stroke="#191970" d="M2668.3414,-251.9241C2650.9212,-235.5259 2613.344,-201.6506 2577.3061,-179 2545.3214,-158.8968 2532.2971,-163.0932 2500.3061,-143 2481.8489,-131.4072 2482.4594,-120.3011 2462.3061,-112 2382.0297,-78.9341 2113.6791,-69.1296 2021.6182,-66.7013"/>
<polygon fill="#191970" stroke="#191970" points="2021.62,-63.2003 2011.5348,-66.4465 2021.4432,-70.1981 2021.62,-63.2003"/>
</g>
<!-- Node17&#45;&gt;Node10 -->
<g id="edge23" class="edge">
<title>Node17&#45;&gt;Node10</title>
<path fill="none" stroke="#191970" d="M2613.0238,-257.2539C2555.0758,-253.6539 2468.0909,-248.6633 2392.3061,-246 1896.1035,-228.5622 651.667,-265.8221 158.3061,-210 146.1583,-208.6255 133.0479,-206.1585 121.3349,-203.591"/>
<polygon fill="#191970" stroke="#191970" points="121.9892,-200.1503 111.4607,-201.3338 120.4293,-206.9743 121.9892,-200.1503"/>
</g>
<!-- Node17&#45;&gt;Node14 -->
<g id="edge39" class="edge">
<title>Node17&#45;&gt;Node14</title>
<path fill="none" stroke="#191970" d="M2717.6132,-251.988C2768.6011,-237.5037 2856.432,-204.8329 2902.3061,-143 2914.5697,-126.4702 2917.5815,-102.6227 2917.991,-85.8577"/>
<polygon fill="#191970" stroke="#191970" points="2921.4896,-85.5423 2917.9404,-75.5597 2914.4896,-85.5767 2921.4896,-85.5423"/>
</g>
<!-- Node18 -->
<g id="node19" class="node">
<title>Node18</title>
<polygon fill="none" stroke="#bfbfbf" points="2779.8061,-56.5 2779.8061,-75.5 2826.8061,-75.5 2826.8061,-56.5 2779.8061,-56.5"/>
<text text-anchor="middle" x="2803.3061" y="-63.5" font-family="Helvetica,sans-Serif" font-size="10.00" fill="#000000">cmath</text>
</g>
<!-- Node17&#45;&gt;Node18 -->
<g id="edge22" class="edge">
<title>Node17&#45;&gt;Node18</title>
<path fill="none" stroke="#191970" d="M2691.1799,-251.713C2703.5589,-241.9402 2722.391,-226.0951 2736.3061,-210 2759.6055,-183.0505 2765.2716,-175.2971 2780.3061,-143 2789.0129,-124.2962 2795.3352,-101.5082 2799.1227,-85.5953"/>
<polygon fill="#191970" stroke="#191970" points="2802.5431,-86.3377 2801.3379,-75.8116 2795.7159,-84.7918 2802.5431,-86.3377"/>
</g>
<!-- Node19 -->
<g id="node20" class="node">
<title>Node19</title>
<polygon fill="none" stroke="#bfbfbf" points="2973.3061,-185 2973.3061,-204 3033.3061,-204 3033.3061,-185 2973.3061,-185"/>
<text text-anchor="middle" x="3003.3061" y="-192" font-family="Helvetica,sans-Serif" font-size="10.00" fill="#000000">iostream</text>
</g>
<!-- Node17&#45;&gt;Node19 -->
<g id="edge24" class="edge">
<title>Node17&#45;&gt;Node19</title>
<path fill="none" stroke="#191970" d="M2724.5255,-251.9717C2788.4717,-238.7889 2902.867,-215.2059 2963.3247,-202.7423"/>
<polygon fill="#191970" stroke="#191970" points="2964.1683,-206.1421 2973.2556,-200.695 2962.7549,-199.2863 2964.1683,-206.1421"/>
</g>
<!-- Node20 -->
<g id="node21" class="node">
<title>Node20</title>
<g id="a_node21"><a xlink:href="../../d9/d52/Common_2MathUtils_2include_2MathUtils_2Utils_8h.html" target="_top" xlink:title="MathUtils/Utils.h">
<polygon fill="none" stroke="#000000" points="2629.3061,-185 2629.3061,-204 2727.3061,-204 2727.3061,-185 2629.3061,-185"/>
<text text-anchor="middle" x="2678.3061" y="-192" font-family="Helvetica,sans-Serif" font-size="10.00" fill="#000000">MathUtils/Utils.h</text>
</a>
</g>
</g>
<!-- Node17&#45;&gt;Node20 -->
<g id="edge25" class="edge">
<title>Node17&#45;&gt;Node20</title>
<path fill="none" stroke="#191970" d="M2678.3061,-251.9005C2678.3061,-242.149 2678.3061,-226.7597 2678.3061,-214.3695"/>
<polygon fill="#191970" stroke="#191970" points="2681.8062,-214.0816 2678.3061,-204.0817 2674.8062,-214.0817 2681.8062,-214.0816"/>
</g>
<!-- Node21 -->
<g id="node22" class="node">
<title>Node21</title>
<g id="a_node22"><a xlink:href="../../d6/da2/GPUCommonMath_8h.html" target="_top" xlink:title="GPUCommonMath.h">
<polygon fill="none" stroke="#000000" points="2954.8061,-118 2954.8061,-137 3069.8061,-137 3069.8061,-118 2954.8061,-118"/>
<text text-anchor="middle" x="3012.3061" y="-125" font-family="Helvetica,sans-Serif" font-size="10.00" fill="#000000">GPUCommonMath.h</text>
</a>
</g>
</g>
<!-- Node17&#45;&gt;Node21 -->
<g id="edge38" class="edge">
<title>Node17&#45;&gt;Node21</title>
<path fill="none" stroke="#191970" d="M2737.4092,-251.9682C2779.2927,-243.9515 2836.1849,-230.4682 2883.3061,-210 2906.5992,-199.8821 2909.9239,-192.7018 2931.3061,-179 2950.4239,-166.7492 2972.1377,-152.9497 2988.2679,-142.7208"/>
<polygon fill="#191970" stroke="#191970" points="2990.4854,-145.4591 2997.0581,-137.1494 2986.738,-139.5467 2990.4854,-145.4591"/>
</g>
<!-- Node17&#45;&gt;Node24 -->
<g id="edge34" class="edge">
<title>Node17&#45;&gt;Node24</title>
<path fill="none" stroke="#191970" d="M2613.3054,-254.106C2503.5635,-241.6227 2282.1154,-216.4325 2165.3457,-203.1497"/>
<polygon fill="#191970" stroke="#191970" points="2165.7393,-199.6719 2155.4078,-202.0192 2164.9481,-206.6271 2165.7393,-199.6719"/>
</g>
<!-- Node20&#45;&gt;Node5 -->
<g id="edge26" class="edge">
<title>Node20&#45;&gt;Node5</title>
<path fill="none" stroke="#191970" d="M2646.4606,-184.9562C2618.4389,-175.9567 2576.9774,-161.1566 2543.3061,-143 2522.5691,-131.8179 2522.378,-120.2398 2500.3061,-112 2411.7,-78.9219 2118.0725,-69.0523 2021.4391,-66.6624"/>
<polygon fill="#191970" stroke="#191970" points="2021.5035,-63.163 2011.4232,-66.4243 2021.3371,-70.161 2021.5035,-63.163"/>
</g>
<!-- Node20&#45;&gt;Node14 -->
<g id="edge28" class="edge">
<title>Node20&#45;&gt;Node14</title>
<path fill="none" stroke="#191970" d="M2697.9934,-184.8837C2718.6344,-174.7261 2751.9478,-158.1188 2780.3061,-143 2819.5032,-122.1027 2864.2533,-96.6431 2891.6406,-80.8757"/>
<polygon fill="#191970" stroke="#191970" points="2893.6535,-83.7552 2900.5662,-75.7261 2890.1553,-77.6919 2893.6535,-83.7552"/>
</g>
<!-- Node20&#45;&gt;Node18 -->
<g id="edge27" class="edge">
<title>Node20&#45;&gt;Node18</title>
<path fill="none" stroke="#191970" d="M2697.0311,-184.9611C2713.7115,-175.8143 2738.0762,-160.7915 2755.3061,-143 2772.0047,-125.7572 2785.8302,-101.7611 2794.2869,-85.1599"/>
<polygon fill="#191970" stroke="#191970" points="2797.5657,-86.4237 2798.8363,-75.9053 2791.2837,-83.3355 2797.5657,-86.4237"/>
</g>
<!-- Node20&#45;&gt;Node21 -->
<g id="edge29" class="edge">
<title>Node20&#45;&gt;Node21</title>
<path fill="none" stroke="#191970" d="M2725.8055,-184.9717C2786.067,-172.8833 2889.9241,-152.0497 2954.6595,-139.0638"/>
<polygon fill="#191970" stroke="#191970" points="2955.5843,-142.4481 2964.7005,-137.0496 2954.2074,-135.5849 2955.5843,-142.4481"/>
</g>
<!-- Node23 -->
<g id="node24" class="node">
<title>Node23</title>
<g id="a_node24"><a xlink:href="../../d6/d84/MathConstants_8h.html" target="_top" xlink:title="useful math constants ">
<polygon fill="none" stroke="#000000" points="2552.3061,-118 2552.3061,-137 2746.3061,-137 2746.3061,-118 2552.3061,-118"/>
<text text-anchor="middle" x="2649.3061" y="-125" font-family="Helvetica,sans-Serif" font-size="10.00" fill="#000000">CommonConstants/MathConstants.h</text>
</a>
</g>
</g>
<!-- Node20&#45;&gt;Node23 -->
<g id="edge33" class="edge">
<title>Node20&#45;&gt;Node23</title>
<path fill="none" stroke="#191970" d="M2674.1511,-184.9005C2669.8442,-174.95 2662.9964,-159.1292 2657.5797,-146.6147"/>
<polygon fill="#191970" stroke="#191970" points="2660.6377,-144.8686 2653.4534,-137.0817 2654.2137,-147.6492 2660.6377,-144.8686"/>
</g>
<!-- Node21&#45;&gt;Node14 -->
<g id="edge30" class="edge">
<title>Node21&#45;&gt;Node14</title>
<path fill="none" stroke="#191970" d="M2997.4624,-117.8906C2982.2643,-108.0519 2958.4213,-92.6167 2940.6855,-81.1351"/>
<polygon fill="#191970" stroke="#191970" points="2942.3422,-78.0382 2932.0456,-75.5419 2938.5381,-83.9144 2942.3422,-78.0382"/>
</g>
<!-- Node21&#45;&gt;Node18 -->
<g id="edge31" class="edge">
<title>Node21&#45;&gt;Node18</title>
<path fill="none" stroke="#191970" d="M2979.6499,-117.8906C2940.6785,-106.423 2875.8694,-87.3523 2836.613,-75.8008"/>
<polygon fill="#191970" stroke="#191970" points="2837.5574,-72.4304 2826.9761,-72.9651 2835.5814,-79.1457 2837.5574,-72.4304"/>
</g>
<!-- Node22 -->
<g id="node23" class="node">
<title>Node22</title>
<polygon fill="none" stroke="#bfbfbf" points="2989.3061,-56.5 2989.3061,-75.5 3053.3061,-75.5 3053.3061,-56.5 2989.3061,-56.5"/>
<text text-anchor="middle" x="3021.3061" y="-63.5" font-family="Helvetica,sans-Serif" font-size="10.00" fill="#000000">algorithm</text>
</g>
<!-- Node21&#45;&gt;Node22 -->
<g id="edge32" class="edge">
<title>Node21&#45;&gt;Node22</title>
<path fill="none" stroke="#191970" d="M3013.7124,-117.8906C3014.9599,-109.3657 3016.8223,-96.6392 3018.3905,-85.9235"/>
<polygon fill="#191970" stroke="#191970" points="3021.8951,-86.1463 3019.88,-75.7449 3014.9689,-85.1326 3021.8951,-86.1463"/>
</g>
<!-- Node24&#45;&gt;Node8 -->
<g id="edge36" class="edge">
<title>Node24&#45;&gt;Node8</title>
<path fill="none" stroke="#191970" d="M2097.4728,-184.9005C2106.3615,-174.4525 2120.7561,-157.5325 2131.6192,-144.7635"/>
<polygon fill="#191970" stroke="#191970" points="2134.3406,-146.9662 2138.1546,-137.0817 2129.0089,-142.4303 2134.3406,-146.9662"/>
</g>
<!-- Node24&#45;&gt;Node13 -->
<g id="edge37" class="edge">
<title>Node24&#45;&gt;Node13</title>
<path fill="none" stroke="#191970" d="M2126.7083,-184.9717C2173.5075,-173.0495 2253.6976,-152.6208 2304.7942,-139.6038"/>
<polygon fill="#191970" stroke="#191970" points="2305.7807,-142.9643 2314.6071,-137.1039 2304.0526,-136.181 2305.7807,-142.9643"/>
</g>
<!-- Node25 -->
<g id="node26" class="node">
<title>Node25</title>
<polygon fill="none" stroke="#bfbfbf" points="1873.3061,-118 1873.3061,-137 1923.3061,-137 1923.3061,-118 1873.3061,-118"/>
<text text-anchor="middle" x="1898.3061" y="-125" font-family="Helvetica,sans-Serif" font-size="10.00" fill="#000000">climits</text>
</g>
<!-- Node24&#45;&gt;Node25 -->
<g id="edge35" class="edge">
<title>Node24&#45;&gt;Node25</title>
<path fill="none" stroke="#191970" d="M2061.9405,-184.9005C2028.0917,-173.0269 1970.4149,-152.7947 1933.3577,-139.7956"/>
<polygon fill="#191970" stroke="#191970" points="1934.0842,-136.3414 1923.4893,-136.3339 1931.7671,-142.9468 1934.0842,-136.3414"/>
</g>
<!-- Node26&#45;&gt;Node5 -->
<g id="edge41" class="edge">
<title>Node26&#45;&gt;Node5</title>
<path fill="none" stroke="#191970" d="M2301.0717,-251.8218C2295.3131,-235.5639 2282.0979,-202.2684 2263.3061,-179 2233.302,-141.8483 2222.1808,-133.0299 2179.3061,-112 2127.3425,-86.512 2060.2457,-74.5341 2021.5687,-69.4006"/>
<polygon fill="#191970" stroke="#191970" points="2021.8081,-65.9032 2011.4496,-68.1286 2020.935,-72.8485 2021.8081,-65.9032"/>
</g>
<!-- Node26&#45;&gt;Node8 -->
<g id="edge43" class="edge">
<title>Node26&#45;&gt;Node8</title>
<path fill="none" stroke="#191970" d="M2297.973,-251.9131C2286.7885,-235.4984 2262.1678,-201.5988 2235.3061,-179 2217.3917,-163.9286 2194.476,-150.7838 2176.3841,-141.5468"/>
<polygon fill="#191970" stroke="#191970" points="2177.927,-138.4052 2167.4149,-137.0831 2174.8081,-144.672 2177.927,-138.4052"/>
</g>
<!-- Node26&#45;&gt;Node9 -->
<g id="edge42" class="edge">
<title>Node26&#45;&gt;Node9</title>
<path fill="none" stroke="#191970" d="M2246.3979,-251.9552C2187.7645,-242.1174 2094.5422,-226.0003 2014.3061,-210 2002.0326,-207.5525 1988.6019,-204.6365 1976.8163,-201.9976"/>
<polygon fill="#191970" stroke="#191970" points="1977.4788,-198.5591 1966.9533,-199.7686 1975.9357,-205.3869 1977.4788,-198.5591"/>
</g>
<!-- Node26&#45;&gt;Node13 -->
<g id="edge45" class="edge">
<title>Node26&#45;&gt;Node13</title>
<path fill="none" stroke="#191970" d="M2307.7582,-251.8631C2315.6459,-229.8432 2335.1086,-175.5098 2345.504,-146.4894"/>
<polygon fill="#191970" stroke="#191970" points="2348.808,-147.6442 2348.8854,-137.0496 2342.218,-145.2836 2348.808,-147.6442"/>
</g>
<!-- Node26&#45;&gt;Node14 -->
<g id="edge47" class="edge">
<title>Node26&#45;&gt;Node14</title>
<path fill="none" stroke="#191970" d="M2383.6656,-257.9595C2490.8467,-252.1741 2675.4694,-238.3741 2736.3061,-210 2754.5432,-201.4943 2753.7149,-191.7221 2769.3061,-179 2790.8026,-161.4592 2798.0987,-159.6316 2820.3061,-143 2847.5904,-122.5662 2878.2826,-97.9101 2897.6975,-82.0982"/>
<polygon fill="#191970" stroke="#191970" points="2899.9976,-84.7387 2905.5282,-75.7019 2895.5693,-79.3173 2899.9976,-84.7387"/>
</g>
<!-- Node26&#45;&gt;Node21 -->
<g id="edge46" class="edge">
<title>Node26&#45;&gt;Node21</title>
<path fill="none" stroke="#191970" d="M2383.3192,-257.9748C2476.5272,-252.6187 2635.7087,-239.7066 2769.3061,-210 2846.8969,-192.747 2934.3614,-159.4726 2980.2527,-140.8873"/>
<polygon fill="#191970" stroke="#191970" points="2981.7275,-144.0657 2989.6628,-137.0456 2979.0817,-137.585 2981.7275,-144.0657"/>
</g>
<!-- Node26&#45;&gt;Node24 -->
<g id="edge44" class="edge">
<title>Node26&#45;&gt;Node24</title>
<path fill="none" stroke="#191970" d="M2273.5019,-251.9005C2235.6638,-240.1091 2171.374,-220.0746 2129.6324,-207.0668"/>
<polygon fill="#191970" stroke="#191970" points="2130.6417,-203.7154 2120.0532,-204.0817 2128.5591,-210.3984 2130.6417,-203.7154"/>
</g>
<!-- Node27&#45;&gt;Node4 -->
<g id="edge66" class="edge">
<title>Node27&#45;&gt;Node4</title>
<path fill="none" stroke="#191970" d="M1426.5637,-318.4538C1482.3086,-310.0916 1559.3712,-296.4041 1625.3061,-277 1627.613,-276.3211 1629.972,-275.5518 1632.3294,-274.7278"/>
<polygon fill="#191970" stroke="#191970" points="1633.7548,-277.9308 1641.8732,-271.1232 1631.2815,-271.3823 1633.7548,-277.9308"/>
</g>
<!-- Node27&#45;&gt;Node5 -->
<g id="edge65" class="edge">
<title>Node27&#45;&gt;Node5</title>
<path fill="none" stroke="#191970" d="M1273.96,-315.1571C1168.9224,-297.204 973.7981,-265.3015 806.3061,-246 705.5458,-234.3886 439.625,-259.8722 351.3061,-210 309.0746,-186.1526 269.4824,-146.7585 303.3061,-112 333.3208,-81.1557 1730.1168,-68.1746 1958.7941,-66.2546"/>
<polygon fill="#191970" stroke="#191970" points="1959.1077,-69.7522 1969.0783,-66.1691 1959.0495,-62.7525 1959.1077,-69.7522"/>
</g>
<!-- Node27&#45;&gt;Node6 -->
<g id="edge68" class="edge">
<title>Node27&#45;&gt;Node6</title>
<path fill="none" stroke="#191970" d="M1426.3725,-313.4134C1460.1229,-305.1381 1499.715,-293.2049 1533.3061,-277 1554.5257,-266.7633 1555.9526,-257.8658 1576.3061,-246 1601.5921,-231.2587 1631.8257,-217.5698 1654.5041,-208.016"/>
<polygon fill="#191970" stroke="#191970" points="1656.1433,-211.1251 1664.0352,-204.0563 1653.4576,-204.6608 1656.1433,-211.1251"/>
</g>
<!-- Node28 -->
<g id="node29" class="node">
<title>Node28</title>
<g id="a_node29"><a xlink:href="../../dd/d76/Cartesian3D_8h.html" target="_top" xlink:title="MathUtils/Cartesian3D.h">
<polygon fill="none" stroke="#000000" points="1075.8061,-252 1075.8061,-271 1210.8061,-271 1210.8061,-252 1075.8061,-252"/>
<text text-anchor="middle" x="1143.3061" y="-259" font-family="Helvetica,sans-Serif" font-size="10.00" fill="#000000">MathUtils/Cartesian3D.h</text>
</a>
</g>
</g>
<!-- Node27&#45;&gt;Node28 -->
<g id="edge50" class="edge">
<title>Node27&#45;&gt;Node28</title>
<path fill="none" stroke="#191970" d="M1303.8513,-313.4639C1267.2899,-301.63 1216.9172,-285.3258 1182.4023,-274.1543"/>
<polygon fill="#191970" stroke="#191970" points="1183.2651,-270.7549 1172.6732,-271.0053 1181.1094,-277.4147 1183.2651,-270.7549"/>
</g>
<!-- Node39 -->
<g id="node40" class="node">
<title>Node39</title>
<g id="a_node40"><a xlink:href="../../df/d5d/common_2include_2CommonDataFormat_2TimeStamp_8h.html" target="_top" xlink:title="CommonDataFormat/TimeStamp.h">
<polygon fill="none" stroke="#000000" points="610.8061,-252 610.8061,-271 797.8061,-271 797.8061,-252 610.8061,-252"/>
<text text-anchor="middle" x="704.3061" y="-259" font-family="Helvetica,sans-Serif" font-size="10.00" fill="#000000">CommonDataFormat/TimeStamp.h</text>
</a>
</g>
</g>
<!-- Node27&#45;&gt;Node39 -->
<g id="edge62" class="edge">
<title>Node27&#45;&gt;Node39</title>
<path fill="none" stroke="#191970" d="M1273.8635,-322.3735C1169.2813,-313.7232 975.8029,-296.7613 811.3061,-277 800.0632,-275.6494 788.1771,-274.0745 776.5752,-272.4562"/>
<polygon fill="#191970" stroke="#191970" points="776.8679,-268.9628 766.4762,-271.0273 775.8872,-275.8938 776.8679,-268.9628"/>
</g>
<!-- Node41 -->
<g id="node42" class="node">
<title>Node41</title>
<polygon fill="none" stroke="#bfbfbf" points="1585.8061,-252 1585.8061,-271 1616.8061,-271 1616.8061,-252 1585.8061,-252"/>
<text text-anchor="middle" x="1601.3061" y="-259" font-family="Helvetica,sans-Serif" font-size="10.00" fill="#000000">ios</text>
</g>
<!-- Node27&#45;&gt;Node41 -->
<g id="edge67" class="edge">
<title>Node27&#45;&gt;Node41</title>
<path fill="none" stroke="#191970" d="M1426.3367,-315.6217C1469.5999,-307.103 1524.3568,-294.2933 1571.3061,-277 1572.9702,-276.3871 1574.6599,-275.7025 1576.3459,-274.9719"/>
<polygon fill="#191970" stroke="#191970" points="1578.2532,-277.9391 1585.7583,-270.4608 1575.2278,-271.6267 1578.2532,-277.9391"/>
</g>
<!-- Node28&#45;&gt;Node6 -->
<g id="edge58" class="edge">
<title>Node28&#45;&gt;Node6</title>
<path fill="none" stroke="#191970" d="M1210.964,-256.3515C1303.0402,-248.8402 1472.7868,-233.1974 1616.3061,-210 1628.6072,-208.0117 1641.9766,-205.2911 1653.8185,-202.6837"/>
<polygon fill="#191970" stroke="#191970" points="1654.78,-206.0549 1663.7664,-200.4429 1653.2417,-199.226 1654.78,-206.0549"/>
</g>
<!-- Node29 -->
<g id="node30" class="node">
<title>Node29</title>
<polygon fill="none" stroke="#bfbfbf" points="1443.3061,-179.5 1443.3061,-209.5 1607.3061,-209.5 1607.3061,-179.5 1443.3061,-179.5"/>
<text text-anchor="start" x="1451.3061" y="-197.5" font-family="Helvetica,sans-Serif" font-size="10.00" fill="#000000">Math/GenVector/Displacement</text>
<text text-anchor="middle" x="1525.3061" y="-186.5" font-family="Helvetica,sans-Serif" font-size="10.00" fill="#000000">Vector3D.h</text>
</g>
<!-- Node28&#45;&gt;Node29 -->
<g id="edge51" class="edge">
<title>Node28&#45;&gt;Node29</title>
<path fill="none" stroke="#191970" d="M1197.6317,-251.9717C1258.8148,-241.2406 1359.29,-223.618 1432.8763,-210.7115"/>
<polygon fill="#191970" stroke="#191970" points="1433.8294,-214.0979 1443.0743,-208.9229 1432.62,-207.2031 1433.8294,-214.0979"/>
</g>
<!-- Node30 -->
<g id="node31" class="node">
<title>Node30</title>
<polygon fill="none" stroke="#bfbfbf" points="579.8061,-185 579.8061,-204 768.8061,-204 768.8061,-185 579.8061,-185"/>
<text text-anchor="middle" x="674.3061" y="-192" font-family="Helvetica,sans-Serif" font-size="10.00" fill="#000000">Math/GenVector/PositionVector3D.h</text>
</g>
<!-- Node28&#45;&gt;Node30 -->
<g id="edge52" class="edge">
<title>Node28&#45;&gt;Node30</title>
<path fill="none" stroke="#191970" d="M1075.6758,-252.118C1002.3882,-241.9137 882.0136,-225.0443 778.3061,-210 768.415,-208.5652 757.9979,-207.0351 747.732,-205.5161"/>
<polygon fill="#191970" stroke="#191970" points="747.9469,-202.0098 737.5417,-204.0049 746.92,-208.9341 747.9469,-202.0098"/>
</g>
<!-- Node31 -->
<g id="node32" class="node">
<title>Node31</title>
<polygon fill="none" stroke="#bfbfbf" points="787.3061,-185 787.3061,-204 947.3061,-204 947.3061,-185 787.3061,-185"/>
<text text-anchor="middle" x="867.3061" y="-192" font-family="Helvetica,sans-Serif" font-size="10.00" fill="#000000">Math/GenVector/Rotation3D.h</text>
</g>
<!-- Node28&#45;&gt;Node31 -->
<g id="edge53" class="edge">
<title>Node28&#45;&gt;Node31</title>
<path fill="none" stroke="#191970" d="M1104.0552,-251.9717C1054.8404,-240.0246 970.4381,-219.5357 916.8318,-206.5225"/>
<polygon fill="#191970" stroke="#191970" points="917.412,-203.0618 906.8685,-204.1039 915.7606,-209.8642 917.412,-203.0618"/>
</g>
<!-- Node32 -->
<g id="node33" class="node">
<title>Node32</title>
<polygon fill="none" stroke="#bfbfbf" points="965.3061,-185 965.3061,-204 1133.3061,-204 1133.3061,-185 965.3061,-185"/>
<text text-anchor="middle" x="1049.3061" y="-192" font-family="Helvetica,sans-Serif" font-size="10.00" fill="#000000">Math/GenVector/Transform3D.h</text>
</g>
<!-- Node28&#45;&gt;Node32 -->
<g id="edge54" class="edge">
<title>Node28&#45;&gt;Node32</title>
<path fill="none" stroke="#191970" d="M1129.8382,-251.9005C1114.4817,-240.9549 1089.1598,-222.9064 1071.0086,-209.9688"/>
<polygon fill="#191970" stroke="#191970" points="1072.9237,-207.0358 1062.749,-204.0817 1068.8608,-212.736 1072.9237,-207.0358"/>
</g>
<!-- Node33 -->
<g id="node34" class="node">
<title>Node33</title>
<polygon fill="none" stroke="#bfbfbf" points="1151.8061,-185 1151.8061,-204 1324.8061,-204 1324.8061,-185 1151.8061,-185"/>
<text text-anchor="middle" x="1238.3061" y="-192" font-family="Helvetica,sans-Serif" font-size="10.00" fill="#000000">Math/GenVector/Translation3D.h</text>
</g>
<!-- Node28&#45;&gt;Node33 -->
<g id="edge55" class="edge">
<title>Node28&#45;&gt;Node33</title>
<path fill="none" stroke="#191970" d="M1156.9173,-251.9005C1172.4372,-240.9549 1198.0284,-222.9064 1216.3728,-209.9688"/>
<polygon fill="#191970" stroke="#191970" points="1218.5653,-212.7054 1224.7202,-204.0817 1214.5309,-206.9849 1218.5653,-212.7054"/>
</g>
<!-- Node34 -->
<g id="node35" class="node">
<title>Node34</title>
<polygon fill="none" stroke="#bfbfbf" points="312.8061,-118 312.8061,-137 371.8061,-137 371.8061,-118 312.8061,-118"/>
<text text-anchor="middle" x="342.3061" y="-125" font-family="Helvetica,sans-Serif" font-size="10.00" fill="#000000">Rtypes.h</text>
</g>
<!-- Node28&#45;&gt;Node34 -->
<g id="edge56" class="edge">
<title>Node28&#45;&gt;Node34</title>
<path fill="none" stroke="#191970" d="M1075.5333,-257.87C891.0206,-247.8666 392.4913,-219.9837 378.3061,-210 357.6994,-195.4968 348.7692,-166.5321 344.9817,-147.0783"/>
<polygon fill="#191970" stroke="#191970" points="348.4241,-146.4428 343.3306,-137.1527 341.519,-147.5915 348.4241,-146.4428"/>
</g>
<!-- Node35 -->
<g id="node36" class="node">
<title>Node35</title>
<polygon fill="none" stroke="#bfbfbf" points="1343.3061,-185 1343.3061,-204 1425.3061,-204 1425.3061,-185 1343.3061,-185"/>
<text text-anchor="middle" x="1384.3061" y="-192" font-family="Helvetica,sans-Serif" font-size="10.00" fill="#000000">TGeoMatrix.h</text>
</g>
<!-- Node28&#45;&gt;Node35 -->
<g id="edge57" class="edge">
<title>Node28&#45;&gt;Node35</title>
<path fill="none" stroke="#191970" d="M1179.8218,-251.9545C1218.1431,-241.8546 1280.0946,-225.2938 1333.3061,-210 1336.6539,-209.0378 1340.1197,-208.0235 1343.5966,-206.9931"/>
<polygon fill="#191970" stroke="#191970" points="1344.7595,-210.2985 1353.3353,-204.077 1342.7515,-203.5927 1344.7595,-210.2985"/>
</g>
<!-- Node36 -->
<g id="node37" class="node">
<title>Node36</title>
<g id="a_node37"><a xlink:href="../../d2/dd0/Cartesian2D_8h.html" target="_top" xlink:title="MathUtils/Cartesian2D.h">
<polygon fill="none" stroke="#000000" points="387.8061,-185 387.8061,-204 522.8061,-204 522.8061,-185 387.8061,-185"/>
<text text-anchor="middle" x="455.3061" y="-192" font-family="Helvetica,sans-Serif" font-size="10.00" fill="#000000">MathUtils/Cartesian2D.h</text>
</a>
</g>
</g>
<!-- Node28&#45;&gt;Node36 -->
<g id="edge59" class="edge">
<title>Node28&#45;&gt;Node36</title>
<path fill="none" stroke="#191970" d="M1075.7282,-256.4023C968.4621,-248.0911 752.69,-230.477 570.3061,-210 557.9844,-208.6166 544.9404,-207.0025 532.2335,-205.3485"/>
<polygon fill="#191970" stroke="#191970" points="532.5071,-201.8544 522.1353,-204.0172 531.592,-208.7943 532.5071,-201.8544"/>
</g>
<!-- Node37 -->
<g id="node38" class="node">
<title>Node37</title>
<polygon fill="none" stroke="#bfbfbf" points="390.3061,-112.5 390.3061,-142.5 554.3061,-142.5 554.3061,-112.5 390.3061,-112.5"/>
<text text-anchor="start" x="398.3061" y="-130.5" font-family="Helvetica,sans-Serif" font-size="10.00" fill="#000000">Math/GenVector/Displacement</text>
<text text-anchor="middle" x="472.3061" y="-119.5" font-family="Helvetica,sans-Serif" font-size="10.00" fill="#000000">Vector2D.h</text>
</g>
<!-- Node36&#45;&gt;Node37 -->
<g id="edge60" class="edge">
<title>Node36&#45;&gt;Node37</title>
<path fill="none" stroke="#191970" d="M457.7418,-184.9005C459.8927,-176.4234 463.1247,-163.6856 465.998,-152.3614"/>
<polygon fill="#191970" stroke="#191970" points="469.4277,-153.0754 468.4946,-142.5218 462.6427,-151.3538 469.4277,-153.0754"/>
</g>
<!-- Node38 -->
<g id="node39" class="node">
<title>Node38</title>
<polygon fill="none" stroke="#bfbfbf" points="572.8061,-118 572.8061,-137 761.8061,-137 761.8061,-118 572.8061,-118"/>
<text text-anchor="middle" x="667.3061" y="-125" font-family="Helvetica,sans-Serif" font-size="10.00" fill="#000000">Math/GenVector/PositionVector2D.h</text>
</g>
<!-- Node36&#45;&gt;Node38 -->
<g id="edge61" class="edge">
<title>Node36&#45;&gt;Node38</title>
<path fill="none" stroke="#191970" d="M485.6805,-184.9005C522.9119,-173.134 586.116,-153.1591 627.2818,-140.1492"/>
<polygon fill="#191970" stroke="#191970" points="628.5076,-143.4325 636.988,-137.0817 626.3981,-136.7579 628.5076,-143.4325"/>
</g>
<!-- Node40 -->
<g id="node41" class="node">
<title>Node40</title>
<g id="a_node41"><a xlink:href="../../d2/d45/GPUCommonRtypes_8h.html" target="_top" xlink:title="GPUCommonRtypes.h">
<polygon fill="none" stroke="#000000" points="167.8061,-185 167.8061,-204 292.8061,-204 292.8061,-185 167.8061,-185"/>
<text text-anchor="middle" x="230.3061" y="-192" font-family="Helvetica,sans-Serif" font-size="10.00" fill="#000000">GPUCommonRtypes.h</text>
</a>
</g>
</g>
<!-- Node39&#45;&gt;Node40 -->
<g id="edge63" class="edge">
<title>Node39&#45;&gt;Node40</title>
<path fill="none" stroke="#191970" d="M640.1166,-251.9847C626.0197,-249.9556 611.1652,-247.8638 597.3061,-246 468.5867,-228.6892 435.5031,-230.8298 307.3061,-210 299.9127,-208.7987 292.1471,-207.3993 284.5093,-205.9421"/>
<polygon fill="#191970" stroke="#191970" points="285.0696,-202.4855 274.5843,-204.0051 283.7286,-209.3559 285.0696,-202.4855"/>
</g>
<!-- Node40&#45;&gt;Node34 -->
<g id="edge64" class="edge">
<title>Node40&#45;&gt;Node34</title>
<path fill="none" stroke="#191970" d="M246.353,-184.9005C264.9828,-173.7559 295.9219,-155.2477 317.6189,-142.2682"/>
<polygon fill="#191970" stroke="#191970" points="319.5041,-145.219 326.289,-137.0817 315.9105,-139.2118 319.5041,-145.219"/>
</g>
<!-- Node42&#45;&gt;Node40 -->
<g id="edge70" class="edge">
<title>Node42&#45;&gt;Node40</title>
<path fill="none" stroke="#191970" d="M155.9626,-313.2354C136.4149,-296.6314 111.821,-269.3368 126.3061,-246 137.8572,-227.3903 158.3521,-215.2989 178.1119,-207.5457"/>
<polygon fill="#191970" stroke="#191970" points="179.4945,-210.7677 187.7107,-204.0785 177.1163,-204.184 179.4945,-210.7677"/>
</g>
<!-- Node43&#45;&gt;Node8 -->
<g id="edge80" class="edge">
<title>Node43&#45;&gt;Node8</title>
<path fill="none" stroke="#191970" d="M507.9125,-327.2784C722.1208,-322.3637 1415.0446,-299.7326 1616.3061,-210 1636.5292,-200.9835 1634.8104,-187.3783 1655.3061,-179 1697.4504,-161.7721 2007.8864,-137.6641 2112.2156,-129.9653"/>
<polygon fill="#191970" stroke="#191970" points="2112.7797,-133.4334 2122.4966,-129.2106 2112.2671,-126.4522 2112.7797,-133.4334"/>
</g>
<!-- Node43&#45;&gt;Node10 -->
<g id="edge74" class="edge">
<title>Node43&#45;&gt;Node10</title>
<path fill="none" stroke="#191970" d="M380.7263,-317.2273C340.3854,-308.8641 287.6288,-295.6607 243.3061,-277 218.8589,-266.7072 215.6178,-258.6559 192.3061,-246 167.1671,-232.3521 137.8465,-218.3699 116.2619,-208.4249"/>
<polygon fill="#191970" stroke="#191970" points="117.4814,-205.1339 106.9318,-204.1554 114.5686,-211.4991 117.4814,-205.1339"/>
</g>
<!-- Node43&#45;&gt;Node11 -->
<g id="edge76" class="edge">
<title>Node43&#45;&gt;Node11</title>
<path fill="none" stroke="#191970" d="M380.564,-318.4932C330.2079,-309.8048 258.4709,-295.6812 197.3061,-277 195.0063,-276.2976 192.6525,-275.511 190.2987,-274.6746"/>
<polygon fill="#191970" stroke="#191970" points="191.3537,-271.3312 180.7628,-271.0441 188.8631,-277.8732 191.3537,-271.3312"/>
</g>
<!-- Node43&#45;&gt;Node40 -->
<g id="edge72" class="edge">
<title>Node43&#45;&gt;Node40</title>
<path fill="none" stroke="#191970" d="M380.4109,-315.6396C337.3318,-305.897 285.3598,-291.7149 268.3061,-277 249.3434,-260.6379 239.2834,-232.8224 234.3784,-214.0636"/>
<polygon fill="#191970" stroke="#191970" points="237.7591,-213.1502 232.0577,-204.2202 230.9459,-214.7566 237.7591,-213.1502"/>
</g>
<!-- Node44 -->
<g id="node45" class="node">
<title>Node44</title>
<polygon fill="none" stroke="#bfbfbf" points="505.3061,-252 505.3061,-271 555.3061,-271 555.3061,-252 505.3061,-252"/>
<text text-anchor="middle" x="530.3061" y="-259" font-family="Helvetica,sans-Serif" font-size="10.00" fill="#000000">cstdint</text>
</g>
<!-- Node43&#45;&gt;Node44 -->
<g id="edge73" class="edge">
<title>Node43&#45;&gt;Node44</title>
<path fill="none" stroke="#191970" d="M463.8208,-313.2967C477.6103,-302.5537 496.0479,-288.1895 510.0089,-277.3129"/>
<polygon fill="#191970" stroke="#191970" points="512.304,-279.9618 518.0415,-271.055 508.0019,-274.4398 512.304,-279.9618"/>
</g>
<!-- Node45 -->
<g id="node46" class="node">
<title>Node45</title>
<polygon fill="none" stroke="#bfbfbf" points="277.8061,-252 277.8061,-271 342.8061,-271 342.8061,-252 277.8061,-252"/>
<text text-anchor="middle" x="310.3061" y="-259" font-family="Helvetica,sans-Serif" font-size="10.00" fill="#000000">stdexcept</text>
</g>
<!-- Node43&#45;&gt;Node45 -->
<g id="edge75" class="edge">
<title>Node43&#45;&gt;Node45</title>
<path fill="none" stroke="#191970" d="M414.2339,-313.4639C391.6491,-302.1715 360.9232,-286.8086 338.7445,-275.7192"/>
<polygon fill="#191970" stroke="#191970" points="340.0235,-272.4456 329.514,-271.1039 336.893,-278.7066 340.0235,-272.4456"/>
</g>
<!-- Node46 -->
<g id="node47" class="node">
<title>Node46</title>
<polygon fill="none" stroke="#bfbfbf" points="3127.8061,-252 3127.8061,-271 3196.8061,-271 3196.8061,-252 3127.8061,-252"/>
<text text-anchor="middle" x="3162.3061" y="-259" font-family="Helvetica,sans-Serif" font-size="10.00" fill="#000000">type_traits</text>
</g>
<!-- Node43&#45;&gt;Node46 -->
<g id="edge77" class="edge">
<title>Node43&#45;&gt;Node46</title>
<path fill="none" stroke="#191970" d="M507.8725,-327.215C831.3538,-320.6553 2297.1093,-290.6821 2752.3061,-277 2885.2478,-273.0041 3042.3729,-266.5915 3117.6827,-263.4133"/>
<polygon fill="#191970" stroke="#191970" points="3117.9122,-266.9068 3127.7552,-262.9869 3117.6161,-259.9131 3117.9122,-266.9068"/>
</g>
<!-- Node47 -->
<g id="node48" class="node">
<title>Node47</title>
<polygon fill="none" stroke="#bfbfbf" points="361.3061,-252 361.3061,-271 411.3061,-271 411.3061,-252 361.3061,-252"/>
<text text-anchor="middle" x="386.3061" y="-259" font-family="Helvetica,sans-Serif" font-size="10.00" fill="#000000">cstring</text>
</g>
<!-- Node43&#45;&gt;Node47 -->
<g id="edge78" class="edge">
<title>Node43&#45;&gt;Node47</title>
<path fill="none" stroke="#191970" d="M431.145,-313.2967C422.2838,-303.0605 410.5766,-289.5366 401.3468,-278.8746"/>
<polygon fill="#191970" stroke="#191970" points="403.7689,-276.3248 394.5776,-271.055 398.4764,-280.9064 403.7689,-276.3248"/>
</g>
<!-- Node48 -->
<g id="node49" class="node">
<title>Node48</title>
<polygon fill="none" stroke="#bfbfbf" points="429.3061,-252 429.3061,-271 487.3061,-271 487.3061,-252 429.3061,-252"/>
<text text-anchor="middle" x="458.3061" y="-259" font-family="Helvetica,sans-Serif" font-size="10.00" fill="#000000">memory</text>
</g>
<!-- Node43&#45;&gt;Node48 -->
<g id="edge79" class="edge">
<title>Node43&#45;&gt;Node48</title>
<path fill="none" stroke="#191970" d="M447.4829,-313.2967C449.4736,-303.7699 452.0593,-291.3954 454.2042,-281.1306"/>
<polygon fill="#191970" stroke="#191970" points="457.6901,-281.5595 456.3096,-271.055 450.8381,-280.1277 457.6901,-281.5595"/>
</g>
<!-- Node49&#45;&gt;Node5 -->
<g id="edge83" class="edge">
<title>Node49&#45;&gt;Node5</title>
<path fill="none" stroke="#191970" d="M1916.7371,-251.9866C1901.7512,-243.2396 1881.537,-228.7876 1871.3061,-210 1850.423,-171.6508 1839.2775,-147.7818 1864.3061,-112 1875.465,-96.0469 1925.7974,-81.3099 1959.3718,-73.0058"/>
<polygon fill="#191970" stroke="#191970" points="1960.2889,-76.3851 1969.1914,-70.641 1958.6499,-69.5796 1960.2889,-76.3851"/>
</g>
<!-- Node49&#45;&gt;Node8 -->
<g id="edge85" class="edge">
<title>Node49&#45;&gt;Node8</title>
<path fill="none" stroke="#191970" d="M1927.9692,-251.9937C1916.1148,-235.4013 1895.7631,-200.8439 1913.3061,-179 1937.9101,-148.3639 2053.9838,-134.853 2112.4618,-129.9093"/>
<polygon fill="#191970" stroke="#191970" points="2112.9901,-133.3781 2122.6756,-129.0837 2112.4261,-126.4009 2112.9901,-133.3781"/>
</g>
<!-- Node49&#45;&gt;Node18 -->
<g id="edge86" class="edge">
<title>Node49&#45;&gt;Node18</title>
<path fill="none" stroke="#191970" d="M1942.4585,-251.8207C1964.2758,-223.2504 2033.4413,-139.5615 2114.3061,-112 2176.666,-90.7456 2639.9455,-72.0757 2769.6477,-67.2231"/>
<polygon fill="#191970" stroke="#191970" points="2769.916,-70.7156 2779.7792,-66.8468 2769.6562,-63.7204 2769.916,-70.7156"/>
</g>
<!-- Node49&#45;&gt;Node24 -->
<g id="edge87" class="edge">
<title>Node49&#45;&gt;Node24</title>
<path fill="none" stroke="#191970" d="M1957.3706,-251.9005C1983.6727,-240.4574 2027.8189,-221.2509 2057.7307,-208.2374"/>
<polygon fill="#191970" stroke="#191970" points="2059.5092,-211.2806 2067.2826,-204.0817 2056.7165,-204.8617 2059.5092,-211.2806"/>
</g>
<!-- Node49&#45;&gt;Node25 -->
<g id="edge84" class="edge">
<title>Node49&#45;&gt;Node25</title>
<path fill="none" stroke="#191970" d="M1918.8175,-251.8327C1905.3652,-242.8989 1887.3224,-228.2628 1879.3061,-210 1870.121,-189.0743 1879.1021,-163.1343 1887.5708,-145.9902"/>
<polygon fill="#191970" stroke="#191970" points="1890.7389,-147.4875 1892.3566,-137.0168 1884.5624,-144.1933 1890.7389,-147.4875"/>
</g>
<!-- Node50&#45;&gt;Node5 -->
<g id="edge89" class="edge">
<title>Node50&#45;&gt;Node5</title>
<path fill="none" stroke="#191970" d="M2268.579,-503.4395C2163.3142,-483.0491 1946.9624,-424.4915 1852.3061,-277 1812.6717,-215.2424 1803.0263,-171.26 1846.3061,-112 1859.7119,-93.6444 1920.9018,-79.0689 1959.0751,-71.5615"/>
<polygon fill="#191970" stroke="#191970" points="1960.0062,-74.9471 1969.1727,-69.6342 1958.6938,-68.0712 1960.0062,-74.9471"/>
</g>
<!-- Node50&#45;&gt;Node8 -->
<g id="edge91" class="edge">
<title>Node50&#45;&gt;Node8</title>
<path fill="none" stroke="#191970" d="M2322.3982,-503.376C2303.1508,-471.7756 2241.1423,-368.0045 2200.3061,-277 2194.8048,-264.7402 2166.4158,-184.595 2153.1511,-146.9602"/>
<polygon fill="#191970" stroke="#191970" points="2156.3243,-145.4338 2149.7016,-137.164 2149.7217,-147.7588 2156.3243,-145.4338"/>
</g>
<!-- Node50&#45;&gt;Node12 -->
<g id="edge92" class="edge">
<title>Node50&#45;&gt;Node12</title>
<path fill="none" stroke="#191970" d="M2327.1255,-503.3699C2325.8526,-490.3074 2324.693,-466.3794 2330.3061,-447 2341.6408,-407.8669 2368.9299,-368.294 2385.8923,-346.2273"/>
<polygon fill="#191970" stroke="#191970" points="2388.8143,-348.1738 2392.2467,-338.1503 2383.3128,-343.8456 2388.8143,-348.1738"/>
</g>
<!-- Node50&#45;&gt;Node13 -->
<g id="edge105" class="edge">
<title>Node50&#45;&gt;Node13</title>
<path fill="none" stroke="#191970" d="M2345.2141,-503.4238C2359.0015,-495.0472 2378.4008,-481.9104 2392.3061,-467 2436.1334,-420.0048 2450.7492,-405.8154 2468.3061,-344 2482.3307,-294.6215 2471.464,-217.1338 2444.3061,-179 2431.8279,-161.4786 2411.4193,-149.1912 2392.9906,-141.0247"/>
<polygon fill="#191970" stroke="#191970" points="2394.1645,-137.7225 2383.5865,-137.1239 2391.4824,-144.1883 2394.1645,-137.7225"/>
</g>
<!-- Node50&#45;&gt;Node14 -->
<g id="edge108" class="edge">
<title>Node50&#45;&gt;Node14</title>
<path fill="none" stroke="#191970" d="M2404.0108,-510.9931C2620.2655,-504.2624 3225.3061,-478.0544 3225.3061,-395.5 3225.3061,-395.5 3225.3061,-395.5 3225.3061,-328.5 3225.3061,-217.6129 3194.3278,-172.3566 3101.3061,-112 3081.4681,-99.1282 3025.9662,-86.2193 2981.0663,-77.3671"/>
<polygon fill="#191970" stroke="#191970" points="2981.5644,-73.8986 2971.0808,-75.43 2980.2312,-80.7705 2981.5644,-73.8986"/>
</g>
<!-- Node50&#45;&gt;Node21 -->
<g id="edge107" class="edge">
<title>Node50&#45;&gt;Node21</title>
<path fill="none" stroke="#191970" d="M2403.9893,-509.341C2598.2474,-498.9446 3099.3061,-465.3578 3099.3061,-395.5 3099.3061,-395.5 3099.3061,-395.5 3099.3061,-261.5 3099.3061,-212.4444 3057.7825,-167.2136 3032.109,-143.9363"/>
<polygon fill="#191970" stroke="#191970" points="3034.2277,-141.139 3024.4031,-137.1731 3029.6102,-146.4001 3034.2277,-141.139"/>
</g>
<!-- Node50&#45;&gt;Node49 -->
<g id="edge93" class="edge">
<title>Node50&#45;&gt;Node49</title>
<path fill="none" stroke="#191970" d="M2313.3799,-503.448C2253.6812,-465.2438 2031.8034,-323.2533 1958.7761,-276.5196"/>
<polygon fill="#191970" stroke="#191970" points="1960.5567,-273.5038 1950.2472,-271.0615 1956.7835,-279.3998 1960.5567,-273.5038"/>
</g>
<!-- Node51 -->
<g id="node52" class="node">
<title>Node51</title>
<polygon fill="none" stroke="#bfbfbf" points="2339.3061,-447.5 2339.3061,-466.5 2383.3061,-466.5 2383.3061,-447.5 2339.3061,-447.5"/>
<text text-anchor="middle" x="2361.3061" y="-454.5" font-family="Helvetica,sans-Serif" font-size="10.00" fill="#000000">string</text>
</g>
<!-- Node50&#45;&gt;Node51 -->
<g id="edge90" class="edge">
<title>Node50&#45;&gt;Node51</title>
<path fill="none" stroke="#191970" d="M2334.0543,-503.2455C2338.5497,-495.617 2344.931,-484.7881 2350.3886,-475.5267"/>
<polygon fill="#191970" stroke="#191970" points="2353.5622,-477.035 2355.6238,-466.6427 2347.5315,-473.4811 2353.5622,-477.035"/>
</g>
<!-- Node50&#45;&gt;Node52 -->
<g id="edge94" class="edge">
<title>Node50&#45;&gt;Node52</title>
<path fill="none" stroke="#191970" d="M2366.0463,-503.4369C2403.5509,-493.9335 2461.186,-479.3291 2501.7885,-469.0407"/>
<polygon fill="#191970" stroke="#191970" points="2502.8877,-472.3728 2511.7216,-466.5237 2501.1683,-465.5873 2502.8877,-472.3728"/>
</g>
<!-- Node50&#45;&gt;Node53 -->
<g id="edge106" class="edge">
<title>Node50&#45;&gt;Node53</title>
<path fill="none" stroke="#191970" d="M2394.6773,-503.4832C2455.9281,-494.5599 2549.3672,-480.5914 2630.3061,-467 2766.2246,-444.1763 2800.0354,-437.3929 2935.3061,-411 2941.6435,-409.7635 2948.2754,-408.4384 2954.862,-407.1027"/>
<polygon fill="#191970" stroke="#191970" points="2956.0289,-410.4367 2965.1263,-405.0064 2954.6281,-403.5783 2956.0289,-410.4367"/>
</g>
<!-- Node52&#45;&gt;Node5 -->
<g id="edge95" class="edge">
<title>Node52&#45;&gt;Node5</title>
<path fill="none" stroke="#191970" d="M2551.0792,-447.3672C2554.8464,-426.0345 2563.3061,-373.1577 2563.3061,-328.5 2563.3061,-328.5 2563.3061,-328.5 2563.3061,-261.5 2563.3061,-220.9428 2551.7479,-208.8636 2524.3061,-179 2502.7464,-155.5375 2487.8619,-162.0319 2462.3061,-143 2446.1668,-130.9808 2447.6033,-120.3756 2429.3061,-112 2356.3966,-78.6257 2109.3267,-69.0766 2021.559,-66.7025"/>
<polygon fill="#191970" stroke="#191970" points="2021.5193,-63.2004 2011.4325,-66.4417 2021.339,-70.1981 2021.5193,-63.2004"/>
</g>
<!-- Node52&#45;&gt;Node8 -->
<g id="edge96" class="edge">
<title>Node52&#45;&gt;Node8</title>
<path fill="none" stroke="#191970" d="M2508.5242,-447.4493C2436.8139,-428.3782 2288.8743,-378.4096 2216.3061,-277 2190.4873,-240.9198 2218.0299,-218.2291 2197.3061,-179 2190.1639,-165.48 2178.3111,-153.1916 2167.829,-144.0117"/>
<polygon fill="#191970" stroke="#191970" points="2169.7565,-141.0621 2159.8326,-137.3519 2165.2768,-146.441 2169.7565,-141.0621"/>
</g>
<!-- Node52&#45;&gt;Node12 -->
<g id="edge97" class="edge">
<title>Node52&#45;&gt;Node12</title>
<path fill="none" stroke="#191970" d="M2538.8497,-447.3621C2522.7951,-432.6274 2491.0195,-403.7131 2463.3061,-380 2449.1777,-367.9109 2432.9231,-354.6387 2420.4637,-344.5959"/>
<polygon fill="#191970" stroke="#191970" points="2422.5054,-341.7466 2412.5171,-338.2133 2418.122,-347.2042 2422.5054,-341.7466"/>
</g>
<!-- Node52&#45;&gt;Node13 -->
<g id="edge98" class="edge">
<title>Node52&#45;&gt;Node13</title>
<path fill="none" stroke="#191970" d="M2546.2665,-447.4423C2539.8084,-426.2593 2525.3061,-373.6626 2525.3061,-328.5 2525.3061,-328.5 2525.3061,-328.5 2525.3061,-261.5 2525.3061,-223.3133 2527.6291,-206.6645 2501.3061,-179 2487.4077,-164.3933 2440.1542,-149.5414 2402.5424,-139.5647"/>
<polygon fill="#191970" stroke="#191970" points="2403.2799,-136.1401 2392.7208,-137.0105 2401.518,-142.9148 2403.2799,-136.1401"/>
</g>
<!-- Node52&#45;&gt;Node21 -->
<g id="edge104" class="edge">
<title>Node52&#45;&gt;Node21</title>
<path fill="none" stroke="#191970" d="M2565.4871,-447.4636C2618.3949,-416.0326 2790.378,-311.8854 2921.3061,-210 2948.4514,-188.8761 2977.5155,-161.62 2995.3043,-144.3449"/>
<polygon fill="#191970" stroke="#191970" points="2997.9385,-146.6641 3002.6366,-137.1679 2993.042,-141.6616 2997.9385,-146.6641"/>
</g>
<!-- Node52&#45;&gt;Node53 -->
<g id="edge99" class="edge">
<title>Node52&#45;&gt;Node53</title>
<path fill="none" stroke="#191970" d="M2621.0594,-450.2952C2698.7607,-442.6047 2826.2272,-428.7379 2935.3061,-411 2942.4339,-409.8409 2949.913,-408.476 2957.2737,-407.0447"/>
<polygon fill="#191970" stroke="#191970" points="2958.0718,-410.4545 2967.1933,-405.065 2956.7017,-403.5899 2958.0718,-410.4545"/>
</g>
<!-- Node53&#45;&gt;Node12 -->
<g id="edge100" class="edge">
<title>Node53&#45;&gt;Node12</title>
<path fill="none" stroke="#191970" d="M2949.3057,-388.8C2834.9602,-376.2407 2589.1282,-349.2395 2469.0888,-336.0548"/>
<polygon fill="#191970" stroke="#191970" points="2469.2422,-332.5507 2458.9198,-334.9379 2468.4778,-339.5089 2469.2422,-332.5507"/>
</g>
<!-- Node53&#45;&gt;Node14 -->
<g id="edge103" class="edge">
<title>Node53&#45;&gt;Node14</title>
<path fill="none" stroke="#191970" d="M3017.8033,-385.7981C3046.791,-347.0408 3146.6414,-201.1171 3079.3061,-112 3072.5264,-103.0271 3015.3762,-88.2234 2970.8527,-77.8391"/>
<polygon fill="#191970" stroke="#191970" points="2971.5258,-74.4024 2960.9947,-75.5632 2969.9511,-81.223 2971.5258,-74.4024"/>
</g>
<!-- Node53&#45;&gt;Node19 -->
<g id="edge101" class="edge">
<title>Node53&#45;&gt;Node19</title>
<path fill="none" stroke="#191970" d="M3009.9685,-385.8054C3008.8828,-354.6298 3005.4664,-256.5298 3003.9932,-214.2302"/>
<polygon fill="#191970" stroke="#191970" points="3007.4864,-213.9695 3003.6404,-204.0974 3000.4906,-214.2132 3007.4864,-213.9695"/>
</g>
<!-- Node53&#45;&gt;Node21 -->
<g id="edge102" class="edge">
<title>Node53&#45;&gt;Node21</title>
<path fill="none" stroke="#191970" d="M3012.798,-385.7568C3022.0228,-349.051 3053.152,-219.1661 3042.3061,-179 3039.0355,-166.8876 3032.1332,-154.696 3025.773,-145.2173"/>
<polygon fill="#191970" stroke="#191970" points="3028.6197,-143.1809 3019.9775,-137.052 3022.9114,-147.2325 3028.6197,-143.1809"/>
</g>
<!-- Node55 -->
<g id="node56" class="node">
<title>Node55</title>
<g id="a_node56"><a xlink:href="../../db/d2c/ConfigurableParam_8h.html" target="_top" xlink:title="CommonUtils/Configurable\lParam.h">
<polygon fill="none" stroke="#000000" points="3253.3061,-246.5 3253.3061,-276.5 3401.3061,-276.5 3401.3061,-246.5 3253.3061,-246.5"/>
<text text-anchor="start" x="3261.3061" y="-264.5" font-family="Helvetica,sans-Serif" font-size="10.00" fill="#000000">CommonUtils/Configurable</text>
<text text-anchor="middle" x="3327.3061" y="-253.5" font-family="Helvetica,sans-Serif" font-size="10.00" fill="#000000">Param.h</text>
</a>
</g>
</g>
<!-- Node54&#45;&gt;Node55 -->
<g id="edge119" class="edge">
<title>Node54&#45;&gt;Node55</title>
<path fill="none" stroke="#191970" d="M3327.3061,-380.389C3327.3061,-357.6691 3327.3061,-314.438 3327.3061,-286.8405"/>
<polygon fill="#191970" stroke="#191970" points="3330.8062,-286.7614 3327.3061,-276.7614 3323.8062,-286.7614 3330.8062,-286.7614"/>
</g>
<!-- Node60 -->
<g id="node61" class="node">
<title>Node60</title>
<g id="a_node61"><a xlink:href="../../da/d6b/ConfigurableParamHelper_8h.html" target="_top" xlink:title="CommonUtils/Configurable\lParamHelper.h">
<polygon fill="none" stroke="#000000" points="3362.3061,-313.5 3362.3061,-343.5 3510.3061,-343.5 3510.3061,-313.5 3362.3061,-313.5"/>
<text text-anchor="start" x="3370.3061" y="-331.5" font-family="Helvetica,sans-Serif" font-size="10.00" fill="#000000">CommonUtils/Configurable</text>
<text text-anchor="middle" x="3436.3061" y="-320.5" font-family="Helvetica,sans-Serif" font-size="10.00" fill="#000000">ParamHelper.h</text>
</a>
</g>
</g>
<!-- Node54&#45;&gt;Node60 -->
<g id="edge126" class="edge">
<title>Node54&#45;&gt;Node60</title>
<path fill="none" stroke="#191970" d="M3351.7678,-380.4639C3366.8084,-371.2188 3386.2878,-359.2452 3402.7566,-349.1222"/>
<polygon fill="#191970" stroke="#191970" points="3404.8625,-351.9361 3411.5489,-343.7177 3401.1968,-345.9726 3404.8625,-351.9361"/>
</g>
<!-- Node55&#45;&gt;Node8 -->
<g id="edge120" class="edge">
<title>Node55&#45;&gt;Node8</title>
<path fill="none" stroke="#191970" d="M3253.1633,-251.2157C3237.6997,-249.2918 3221.4868,-247.437 3206.3061,-246 2946.532,-221.4092 2879.4625,-240.4185 2620.3061,-210 2453.9176,-190.4702 2257.2998,-150.9025 2179.9513,-134.6825"/>
<polygon fill="#191970" stroke="#191970" points="2180.3509,-131.1899 2169.8442,-132.5532 2178.9079,-138.0396 2180.3509,-131.1899"/>
</g>
<!-- Node55&#45;&gt;Node19 -->
<g id="edge125" class="edge">
<title>Node55&#45;&gt;Node19</title>
<path fill="none" stroke="#191970" d="M3254.5942,-246.4639C3189.3515,-232.9724 3096.0108,-213.6704 3043.3865,-202.7882"/>
<polygon fill="#191970" stroke="#191970" points="3043.9265,-199.3259 3033.4249,-200.7283 3042.5089,-206.1809 3043.9265,-199.3259"/>
</g>
<!-- Node56 -->
<g id="node57" class="node">
<title>Node56</title>
<polygon fill="none" stroke="#bfbfbf" points="3239.3061,-185 3239.3061,-204 3277.3061,-204 3277.3061,-185 3239.3061,-185"/>
<text text-anchor="middle" x="3258.3061" y="-192" font-family="Helvetica,sans-Serif" font-size="10.00" fill="#000000">map</text>
</g>
<!-- Node55&#45;&gt;Node56 -->
<g id="edge121" class="edge">
<title>Node55&#45;&gt;Node56</title>
<path fill="none" stroke="#191970" d="M3311.6489,-246.2967C3300.8984,-235.8578 3286.6267,-221.9997 3275.5506,-211.2446"/>
<polygon fill="#191970" stroke="#191970" points="3277.7588,-208.5103 3268.1463,-204.055 3272.8824,-213.5323 3277.7588,-208.5103"/>
</g>
<!-- Node57 -->
<g id="node58" class="node">
<title>Node57</title>
<polygon fill="none" stroke="#bfbfbf" points="3295.8061,-185 3295.8061,-204 3388.8061,-204 3388.8061,-185 3295.8061,-185"/>
<text text-anchor="middle" x="3342.3061" y="-192" font-family="Helvetica,sans-Serif" font-size="10.00" fill="#000000">unordered_map</text>
</g>
<!-- Node55&#45;&gt;Node57 -->
<g id="edge122" class="edge">
<title>Node55&#45;&gt;Node57</title>
<path fill="none" stroke="#191970" d="M3330.7099,-246.2967C3332.8427,-236.7699 3335.6131,-224.3954 3337.9112,-214.1306"/>
<polygon fill="#191970" stroke="#191970" points="3341.3976,-214.5781 3340.1669,-204.055 3334.5667,-213.0487 3341.3976,-214.5781"/>
</g>
<!-- Node58 -->
<g id="node59" class="node">
<title>Node58</title>
<polygon fill="none" stroke="#bfbfbf" points="3406.8061,-179.5 3406.8061,-209.5 3519.8061,-209.5 3519.8061,-179.5 3406.8061,-179.5"/>
<text text-anchor="start" x="3414.8061" y="-197.5" font-family="Helvetica,sans-Serif" font-size="10.00" fill="#000000">boost/property_tree</text>
<text text-anchor="middle" x="3463.3061" y="-186.5" font-family="Helvetica,sans-Serif" font-size="10.00" fill="#000000">/ptree.hpp</text>
</g>
<!-- Node55&#45;&gt;Node58 -->
<g id="edge123" class="edge">
<title>Node55&#45;&gt;Node58</title>
<path fill="none" stroke="#191970" d="M3357.8272,-246.4639C3377.2016,-236.9191 3402.4791,-224.4663 3423.4318,-214.144"/>
<polygon fill="#191970" stroke="#191970" points="3424.9926,-217.2768 3432.4164,-209.7177 3421.8991,-210.9974 3424.9926,-217.2768"/>
</g>
<!-- Node59 -->
<g id="node60" class="node">
<title>Node59</title>
<polygon fill="none" stroke="#bfbfbf" points="3537.8061,-185 3537.8061,-204 3594.8061,-204 3594.8061,-185 3537.8061,-185"/>
<text text-anchor="middle" x="3566.3061" y="-192" font-family="Helvetica,sans-Serif" font-size="10.00" fill="#000000">typeinfo</text>
</g>
<!-- Node55&#45;&gt;Node59 -->
<g id="edge124" class="edge">
<title>Node55&#45;&gt;Node59</title>
<path fill="none" stroke="#191970" d="M3396.7549,-246.4588C3436.0621,-237.2846 3485.8942,-224.5392 3529.3061,-210 3531.3987,-209.2992 3533.5402,-208.5343 3535.6864,-207.7321"/>
<polygon fill="#191970" stroke="#191970" points="3536.9736,-210.9869 3544.9886,-204.0579 3534.4021,-204.4763 3536.9736,-210.9869"/>
</g>
<!-- Node60&#45;&gt;Node46 -->
<g id="edge129" class="edge">
<title>Node60&#45;&gt;Node46</title>
<path fill="none" stroke="#191970" d="M3374.8152,-313.4639C3323.7678,-300.9815 3252.3802,-283.5254 3206.7412,-272.3655"/>
<polygon fill="#191970" stroke="#191970" points="3207.3931,-268.9219 3196.8479,-269.9463 3205.7303,-275.7215 3207.3931,-268.9219"/>
</g>
<!-- Node60&#45;&gt;Node55 -->
<g id="edge127" class="edge">
<title>Node60&#45;&gt;Node55</title>
<path fill="none" stroke="#191970" d="M3411.8444,-313.4639C3396.8038,-304.2188 3377.3244,-292.2452 3360.8556,-282.1222"/>
<polygon fill="#191970" stroke="#191970" points="3362.4154,-278.9726 3352.0633,-276.7177 3358.7498,-284.9361 3362.4154,-278.9726"/>
</g>
<!-- Node60&#45;&gt;Node59 -->
<g id="edge130" class="edge">
<title>Node60&#45;&gt;Node59</title>
<path fill="none" stroke="#191970" d="M3450.7904,-313.2211C3466.5764,-296.6049 3492.6167,-269.2999 3515.3061,-246 3526.5279,-234.4763 3539.2587,-221.6204 3549.1937,-211.6359"/>
<polygon fill="#191970" stroke="#191970" points="3551.9002,-213.8784 3556.4797,-204.3244 3546.9417,-208.9373 3551.9002,-213.8784"/>
</g>
<!-- Node61 -->
<g id="node62" class="node">
<title>Node61</title>
<polygon fill="none" stroke="#bfbfbf" points="3523.8061,-252 3523.8061,-271 3580.8061,-271 3580.8061,-252 3523.8061,-252"/>
<text text-anchor="middle" x="3552.3061" y="-259" font-family="Helvetica,sans-Serif" font-size="10.00" fill="#000000">TClass.h</text>
</g>
<!-- Node60&#45;&gt;Node61 -->
<g id="edge128" class="edge">
<title>Node60&#45;&gt;Node61</title>
<path fill="none" stroke="#191970" d="M3462.3388,-313.4639C3481.6268,-302.3234 3507.7739,-287.2212 3526.9089,-276.1691"/>
<polygon fill="#191970" stroke="#191970" points="3528.7696,-279.1363 3535.6784,-271.1039 3525.2685,-273.0747 3528.7696,-279.1363"/>
</g>
<!-- Node62 -->
<g id="node63" class="node">
<title>Node62</title>
<polygon fill="none" stroke="#bfbfbf" points="3419.3061,-252 3419.3061,-271 3467.3061,-271 3467.3061,-252 3419.3061,-252"/>
<text text-anchor="middle" x="3443.3061" y="-259" font-family="Helvetica,sans-Serif" font-size="10.00" fill="#000000">TFile.h</text>
</g>
<!-- Node60&#45;&gt;Node62 -->
<g id="edge131" class="edge">
<title>Node60&#45;&gt;Node62</title>
<path fill="none" stroke="#191970" d="M3437.8945,-313.2967C3438.8899,-303.7699 3440.1827,-291.3954 3441.2552,-281.1306"/>
<polygon fill="#191970" stroke="#191970" points="3444.7497,-281.3646 3442.3078,-271.055 3437.7876,-280.6371 3444.7497,-281.3646"/>
</g>
</g>
</svg>
