<?xml version="1.0" encoding="UTF-8" standalone="no"?>
<!DOCTYPE svg PUBLIC "-//W3C//DTD SVG 1.1//EN"
 "http://www.w3.org/Graphics/SVG/1.1/DTD/svg11.dtd">
<!-- Generated by graphviz version 2.40.1 (20161225.0304)
 -->
<!-- Title: o2::soa::CombinationsIndexPolicyBase&lt; Ts &gt; Pages: 1 -->
<svg width="1137pt" height="453pt"
 viewBox="0.00 0.00 1137.00 453.00" xmlns="http://www.w3.org/2000/svg" xmlns:xlink="http://www.w3.org/1999/xlink">
<g id="graph0" class="graph" transform="scale(1 1) rotate(0) translate(4 449)">
<title>o2::soa::CombinationsIndexPolicyBase&lt; Ts &gt;</title>
<!-- Node0 -->
<g id="node1" class="node">
<title>Node0</title>
<polygon fill="#bfbfbf" stroke="#000000" points="467.5,-332.5 467.5,-444.5 650.5,-444.5 650.5,-332.5 467.5,-332.5"/>
<text text-anchor="start" x="475.5" y="-432.5" font-family="Helvetica,sans-Serif" font-size="10.00" fill="#000000">o2::soa::CombinationsIndex</text>
<text text-anchor="middle" x="559" y="-421.5" font-family="Helvetica,sans-Serif" font-size="10.00" fill="#000000">PolicyBase&lt; Ts &gt;</text>
<polyline fill="none" stroke="#000000" points="467.5,-414.5 650.5,-414.5 "/>
<text text-anchor="start" x="475.5" y="-402.5" font-family="Helvetica,sans-Serif" font-size="10.00" fill="#000000">+ mCurrent</text>
<text text-anchor="start" x="475.5" y="-391.5" font-family="Helvetica,sans-Serif" font-size="10.00" fill="#000000">+ mMaxOffset</text>
<text text-anchor="start" x="475.5" y="-380.5" font-family="Helvetica,sans-Serif" font-size="10.00" fill="#000000">+ mIsEnd</text>
<polyline fill="none" stroke="#000000" points="467.5,-373.5 650.5,-373.5 "/>
<text text-anchor="start" x="475.5" y="-361.5" font-family="Helvetica,sans-Serif" font-size="10.00" fill="#000000">+ CombinationsIndexPolicyBase()</text>
<text text-anchor="start" x="475.5" y="-350.5" font-family="Helvetica,sans-Serif" font-size="10.00" fill="#000000">+ moveToEnd()</text>
<text text-anchor="start" x="475.5" y="-339.5" font-family="Helvetica,sans-Serif" font-size="10.00" fill="#000000">+ addOne()</text>
</g>
<!-- Node1 -->
<g id="node2" class="node">
<title>Node1</title>
<g id="a_node2"><a xlink:href="../../de/dac/structo2_1_1soa_1_1CombinationsIndexPolicyBase.html" target="_top" xlink:title="{o2::soa::CombinationsIndex\lPolicyBase\&lt; Ts... \&gt;\n|+ mCurrent\l+ mMaxOffset\l+ mIsEnd\l|+ CombinationsIndexPolicyBase()\l+ moveToEnd()\l+ addOne()\l}">
<polygon fill="none" stroke="#000000" points="467.5,-172.5 467.5,-284.5 650.5,-284.5 650.5,-172.5 467.5,-172.5"/>
<text text-anchor="start" x="475.5" y="-272.5" font-family="Helvetica,sans-Serif" font-size="10.00" fill="#000000">o2::soa::CombinationsIndex</text>
<text text-anchor="middle" x="559" y="-261.5" font-family="Helvetica,sans-Serif" font-size="10.00" fill="#000000">PolicyBase&lt; Ts... &gt;</text>
<polyline fill="none" stroke="#000000" points="467.5,-254.5 650.5,-254.5 "/>
<text text-anchor="start" x="475.5" y="-242.5" font-family="Helvetica,sans-Serif" font-size="10.00" fill="#000000">+ mCurrent</text>
<text text-anchor="start" x="475.5" y="-231.5" font-family="Helvetica,sans-Serif" font-size="10.00" fill="#000000">+ mMaxOffset</text>
<text text-anchor="start" x="475.5" y="-220.5" font-family="Helvetica,sans-Serif" font-size="10.00" fill="#000000">+ mIsEnd</text>
<polyline fill="none" stroke="#000000" points="467.5,-213.5 650.5,-213.5 "/>
<text text-anchor="start" x="475.5" y="-201.5" font-family="Helvetica,sans-Serif" font-size="10.00" fill="#000000">+ CombinationsIndexPolicyBase()</text>
<text text-anchor="start" x="475.5" y="-190.5" font-family="Helvetica,sans-Serif" font-size="10.00" fill="#000000">+ moveToEnd()</text>
<text text-anchor="start" x="475.5" y="-179.5" font-family="Helvetica,sans-Serif" font-size="10.00" fill="#000000">+ addOne()</text>
</a>
</g>
</g>
<!-- Node0&#45;&gt;Node1 -->
<g id="edge1" class="edge">
<title>Node0&#45;&gt;Node1</title>
<path fill="none" stroke="#ffa500" d="M559,-321.837C559,-309.4766 559,-296.6792 559,-284.6701"/>
<polygon fill="#ffa500" stroke="#ffa500" points="555.5001,-322.09 559,-332.09 562.5001,-322.09 555.5001,-322.09"/>
<text text-anchor="middle" x="581.5" y="-306" font-family="Helvetica,sans-Serif" font-size="10.00" fill="#000000"> &lt; Ts... &gt;</text>
</g>
<!-- Node2 -->
<g id="node3" class="node">
<title>Node2</title>
<g id="a_node3"><a xlink:href="../../d3/d63/structo2_1_1soa_1_1CombinationsBlockFullIndexPolicy.html" target="_top" xlink:title="{o2::soa::CombinationsBlock\lFullIndexPolicy\&lt; Ts \&gt;\n|+ mGroupedIndices\l+ mCurrentIndices\l+ mBeginIndices\l|+ CombinationsBlockFullIndex\lPolicy()\l+ setRanges()\l+ moveToEnd()\l+ addOne()\l}">
<polygon fill="none" stroke="#000000" points="0,-.5 0,-134.5 166,-134.5 166,-.5 0,-.5"/>
<text text-anchor="start" x="8" y="-122.5" font-family="Helvetica,sans-Serif" font-size="10.00" fill="#000000">o2::soa::CombinationsBlock</text>
<text text-anchor="middle" x="83" y="-111.5" font-family="Helvetica,sans-Serif" font-size="10.00" fill="#000000">FullIndexPolicy&lt; Ts &gt;</text>
<polyline fill="none" stroke="#000000" points="0,-104.5 166,-104.5 "/>
<text text-anchor="start" x="8" y="-92.5" font-family="Helvetica,sans-Serif" font-size="10.00" fill="#000000">+ mGroupedIndices</text>
<text text-anchor="start" x="8" y="-81.5" font-family="Helvetica,sans-Serif" font-size="10.00" fill="#000000">+ mCurrentIndices</text>
<text text-anchor="start" x="8" y="-70.5" font-family="Helvetica,sans-Serif" font-size="10.00" fill="#000000">+ mBeginIndices</text>
<polyline fill="none" stroke="#000000" points="0,-63.5 166,-63.5 "/>
<text text-anchor="start" x="8" y="-51.5" font-family="Helvetica,sans-Serif" font-size="10.00" fill="#000000">+ CombinationsBlockFullIndex</text>
<text text-anchor="start" x="8" y="-40.5" font-family="Helvetica,sans-Serif" font-size="10.00" fill="#000000">Policy()</text>
<text text-anchor="start" x="8" y="-29.5" font-family="Helvetica,sans-Serif" font-size="10.00" fill="#000000">+ setRanges()</text>
<text text-anchor="start" x="8" y="-18.5" font-family="Helvetica,sans-Serif" font-size="10.00" fill="#000000">+ moveToEnd()</text>
<text text-anchor="start" x="8" y="-7.5" font-family="Helvetica,sans-Serif" font-size="10.00" fill="#000000">+ addOne()</text>
</a>
</g>
</g>
<!-- Node1&#45;&gt;Node2 -->
<g id="edge2" class="edge">
<title>Node1&#45;&gt;Node2</title>
<path fill="none" stroke="#191970" d="M457.148,-214.9116C377.5775,-201.6832 265.6632,-177.2307 175,-135 172.037,-133.6198 169.0738,-132.1372 166.1226,-130.571"/>
<polygon fill="none" stroke="#191970" points="456.7429,-218.3916 467.176,-216.5478 457.8702,-211.483 456.7429,-218.3916"/>
</g>
<!-- Node3 -->
<g id="node4" class="node">
<title>Node3</title>
<g id="a_node4"><a xlink:href="../../d6/d38/structo2_1_1soa_1_1CombinationsBlockStrictlyUpperIndexPolicy.html" target="_top" xlink:title="{o2::soa::CombinationsBlock\lStrictlyUpperIndexPolicy\&lt; Ts \&gt;\n|+ mGroupedIndices\l+ mCurrentIndices\l|+ CombinationsBlockStrictly\lUpperIndexPolicy()\l+ setRanges()\l+ moveToEnd()\l+ addOne()\l}">
<polygon fill="none" stroke="#000000" points="184.5,-6 184.5,-129 353.5,-129 353.5,-6 184.5,-6"/>
<text text-anchor="start" x="192.5" y="-117" font-family="Helvetica,sans-Serif" font-size="10.00" fill="#000000">o2::soa::CombinationsBlock</text>
<text text-anchor="middle" x="269" y="-106" font-family="Helvetica,sans-Serif" font-size="10.00" fill="#000000">StrictlyUpperIndexPolicy&lt; Ts &gt;</text>
<polyline fill="none" stroke="#000000" points="184.5,-99 353.5,-99 "/>
<text text-anchor="start" x="192.5" y="-87" font-family="Helvetica,sans-Serif" font-size="10.00" fill="#000000">+ mGroupedIndices</text>
<text text-anchor="start" x="192.5" y="-76" font-family="Helvetica,sans-Serif" font-size="10.00" fill="#000000">+ mCurrentIndices</text>
<polyline fill="none" stroke="#000000" points="184.5,-69 353.5,-69 "/>
<text text-anchor="start" x="192.5" y="-57" font-family="Helvetica,sans-Serif" font-size="10.00" fill="#000000">+ CombinationsBlockStrictly</text>
<text text-anchor="start" x="192.5" y="-46" font-family="Helvetica,sans-Serif" font-size="10.00" fill="#000000">UpperIndexPolicy()</text>
<text text-anchor="start" x="192.5" y="-35" font-family="Helvetica,sans-Serif" font-size="10.00" fill="#000000">+ setRanges()</text>
<text text-anchor="start" x="192.5" y="-24" font-family="Helvetica,sans-Serif" font-size="10.00" fill="#000000">+ moveToEnd()</text>
<text text-anchor="start" x="192.5" y="-13" font-family="Helvetica,sans-Serif" font-size="10.00" fill="#000000">+ addOne()</text>
</a>
</g>
</g>
<!-- Node1&#45;&gt;Node3 -->
<g id="edge3" class="edge">
<title>Node1&#45;&gt;Node3</title>
<path fill="none" stroke="#191970" d="M458.228,-185.0408C426.7725,-170.3251 392.3743,-153.0215 362,-135 358.8258,-133.1167 355.6247,-131.1531 352.4172,-129.1307"/>
<polygon fill="none" stroke="#191970" points="456.9063,-188.2859 467.4504,-189.3212 459.8533,-181.9365 456.9063,-188.2859"/>
</g>
<!-- Node4 -->
<g id="node5" class="node">
<title>Node4</title>
<g id="a_node5"><a xlink:href="../../d1/d4d/structo2_1_1soa_1_1CombinationsBlockUpperIndexPolicy.html" target="_top" xlink:title="{o2::soa::CombinationsBlock\lUpperIndexPolicy\&lt; Ts \&gt;\n|+ mGroupedIndices\l+ mCurrentIndices\l|+ CombinationsBlockUpperIndex\lPolicy()\l+ setRanges()\l+ moveToEnd()\l+ addOne()\l}">
<polygon fill="none" stroke="#000000" points="371.5,-6 371.5,-129 550.5,-129 550.5,-6 371.5,-6"/>
<text text-anchor="start" x="379.5" y="-117" font-family="Helvetica,sans-Serif" font-size="10.00" fill="#000000">o2::soa::CombinationsBlock</text>
<text text-anchor="middle" x="461" y="-106" font-family="Helvetica,sans-Serif" font-size="10.00" fill="#000000">UpperIndexPolicy&lt; Ts &gt;</text>
<polyline fill="none" stroke="#000000" points="371.5,-99 550.5,-99 "/>
<text text-anchor="start" x="379.5" y="-87" font-family="Helvetica,sans-Serif" font-size="10.00" fill="#000000">+ mGroupedIndices</text>
<text text-anchor="start" x="379.5" y="-76" font-family="Helvetica,sans-Serif" font-size="10.00" fill="#000000">+ mCurrentIndices</text>
<polyline fill="none" stroke="#000000" points="371.5,-69 550.5,-69 "/>
<text text-anchor="start" x="379.5" y="-57" font-family="Helvetica,sans-Serif" font-size="10.00" fill="#000000">+ CombinationsBlockUpperIndex</text>
<text text-anchor="start" x="379.5" y="-46" font-family="Helvetica,sans-Serif" font-size="10.00" fill="#000000">Policy()</text>
<text text-anchor="start" x="379.5" y="-35" font-family="Helvetica,sans-Serif" font-size="10.00" fill="#000000">+ setRanges()</text>
<text text-anchor="start" x="379.5" y="-24" font-family="Helvetica,sans-Serif" font-size="10.00" fill="#000000">+ moveToEnd()</text>
<text text-anchor="start" x="379.5" y="-13" font-family="Helvetica,sans-Serif" font-size="10.00" fill="#000000">+ addOne()</text>
</a>
</g>
</g>
<!-- Node1&#45;&gt;Node4 -->
<g id="edge4" class="edge">
<title>Node1&#45;&gt;Node4</title>
<path fill="none" stroke="#191970" d="M519.5081,-163.6205C512.6077,-152.2841 505.4457,-140.5179 498.5981,-129.2684"/>
<polygon fill="none" stroke="#191970" points="516.5351,-165.4678 524.7244,-172.19 522.5145,-161.8282 516.5351,-165.4678"/>
</g>
<!-- Node5 -->
<g id="node6" class="node">
<title>Node5</title>
<g id="a_node6"><a xlink:href="../../d0/db2/structo2_1_1soa_1_1CombinationsFullIndexPolicy.html" target="_top" xlink:title="{o2::soa::CombinationsFull\lIndexPolicy\&lt; Ts \&gt;\n||+ CombinationsFullIndexPolicy()\l+ moveToEnd()\l+ addOne()\l}">
<polygon fill="none" stroke="#000000" points="569,-22.5 569,-112.5 745,-112.5 745,-22.5 569,-22.5"/>
<text text-anchor="start" x="577" y="-100.5" font-family="Helvetica,sans-Serif" font-size="10.00" fill="#000000">o2::soa::CombinationsFull</text>
<text text-anchor="middle" x="657" y="-89.5" font-family="Helvetica,sans-Serif" font-size="10.00" fill="#000000">IndexPolicy&lt; Ts &gt;</text>
<polyline fill="none" stroke="#000000" points="569,-82.5 745,-82.5 "/>
<text text-anchor="middle" x="657" y="-70.5" font-family="Helvetica,sans-Serif" font-size="10.00" fill="#000000"> </text>
<polyline fill="none" stroke="#000000" points="569,-63.5 745,-63.5 "/>
<text text-anchor="start" x="577" y="-51.5" font-family="Helvetica,sans-Serif" font-size="10.00" fill="#000000">+ CombinationsFullIndexPolicy()</text>
<text text-anchor="start" x="577" y="-40.5" font-family="Helvetica,sans-Serif" font-size="10.00" fill="#000000">+ moveToEnd()</text>
<text text-anchor="start" x="577" y="-29.5" font-family="Helvetica,sans-Serif" font-size="10.00" fill="#000000">+ addOne()</text>
</a>
</g>
</g>
<!-- Node1&#45;&gt;Node5 -->
<g id="edge5" class="edge">
<title>Node1&#45;&gt;Node5</title>
<path fill="none" stroke="#191970" d="M598.6339,-163.3872C609.0013,-146.355 619.9498,-128.3681 629.5284,-112.6319"/>
<polygon fill="none" stroke="#191970" points="595.4855,-161.8282 593.2756,-172.19 601.4649,-165.4678 595.4855,-161.8282"/>
</g>
<!-- Node6 -->
<g id="node7" class="node">
<title>Node6</title>
<g id="a_node7"><a xlink:href="../../de/ddd/structo2_1_1soa_1_1CombinationsStrictlyUpperIndexPolicy.html" target="_top" xlink:title="{o2::soa::CombinationsStrictly\lUpperIndexPolicy\&lt; Ts \&gt;\n||+ CombinationsStrictlyUpper\lIndexPolicy()\l+ moveToEnd()\l+ addOne()\l}">
<polygon fill="none" stroke="#000000" points="763,-17 763,-118 923,-118 923,-17 763,-17"/>
<text text-anchor="start" x="771" y="-106" font-family="Helvetica,sans-Serif" font-size="10.00" fill="#000000">o2::soa::CombinationsStrictly</text>
<text text-anchor="middle" x="843" y="-95" font-family="Helvetica,sans-Serif" font-size="10.00" fill="#000000">UpperIndexPolicy&lt; Ts &gt;</text>
<polyline fill="none" stroke="#000000" points="763,-88 923,-88 "/>
<text text-anchor="middle" x="843" y="-76" font-family="Helvetica,sans-Serif" font-size="10.00" fill="#000000"> </text>
<polyline fill="none" stroke="#000000" points="763,-69 923,-69 "/>
<text text-anchor="start" x="771" y="-57" font-family="Helvetica,sans-Serif" font-size="10.00" fill="#000000">+ CombinationsStrictlyUpper</text>
<text text-anchor="start" x="771" y="-46" font-family="Helvetica,sans-Serif" font-size="10.00" fill="#000000">IndexPolicy()</text>
<text text-anchor="start" x="771" y="-35" font-family="Helvetica,sans-Serif" font-size="10.00" fill="#000000">+ moveToEnd()</text>
<text text-anchor="start" x="771" y="-24" font-family="Helvetica,sans-Serif" font-size="10.00" fill="#000000">+ addOne()</text>
</a>
</g>
</g>
<!-- Node1&#45;&gt;Node6 -->
<g id="edge6" class="edge">
<title>Node1&#45;&gt;Node6</title>
<path fill="none" stroke="#191970" d="M659.866,-184.8836C690.7628,-170.2734 724.3945,-153.0694 754,-135 762.4421,-129.8475 771.0527,-124.069 779.4298,-118.1184"/>
<polygon fill="none" stroke="#191970" points="658.3713,-181.7187 650.8027,-189.1327 661.3428,-188.0567 658.3713,-181.7187"/>
</g>
<!-- Node7 -->
<g id="node8" class="node">
<title>Node7</title>
<g id="a_node8"><a xlink:href="../../d4/d13/structo2_1_1soa_1_1CombinationsUpperIndexPolicy.html" target="_top" xlink:title="{o2::soa::CombinationsUpper\lIndexPolicy\&lt; Ts \&gt;\n||+ CombinationsUpperIndexPolicy()\l+ moveToEnd()\l+ addOne()\l}">
<polygon fill="none" stroke="#000000" points="941,-22.5 941,-112.5 1129,-112.5 1129,-22.5 941,-22.5"/>
<text text-anchor="start" x="949" y="-100.5" font-family="Helvetica,sans-Serif" font-size="10.00" fill="#000000">o2::soa::CombinationsUpper</text>
<text text-anchor="middle" x="1035" y="-89.5" font-family="Helvetica,sans-Serif" font-size="10.00" fill="#000000">IndexPolicy&lt; Ts &gt;</text>
<polyline fill="none" stroke="#000000" points="941,-82.5 1129,-82.5 "/>
<text text-anchor="middle" x="1035" y="-70.5" font-family="Helvetica,sans-Serif" font-size="10.00" fill="#000000"> </text>
<polyline fill="none" stroke="#000000" points="941,-63.5 1129,-63.5 "/>
<text text-anchor="start" x="949" y="-51.5" font-family="Helvetica,sans-Serif" font-size="10.00" fill="#000000">+ CombinationsUpperIndexPolicy()</text>
<text text-anchor="start" x="949" y="-40.5" font-family="Helvetica,sans-Serif" font-size="10.00" fill="#000000">+ moveToEnd()</text>
<text text-anchor="start" x="949" y="-29.5" font-family="Helvetica,sans-Serif" font-size="10.00" fill="#000000">+ addOne()</text>
</a>
</g>
</g>
<!-- Node1&#45;&gt;Node7 -->
<g id="edge7" class="edge">
<title>Node1&#45;&gt;Node7</title>
<path fill="none" stroke="#191970" d="M660.8624,-212.4863C737.592,-198.1819 844.215,-173.4535 932,-135 946.0021,-128.8665 960.2174,-120.8937 973.4345,-112.5875"/>
<polygon fill="none" stroke="#191970" points="659.9159,-209.1016 650.7126,-214.3503 661.1803,-215.9864 659.9159,-209.1016"/>
</g>
</g>
</svg>
