<?xml version="1.0" encoding="UTF-8" standalone="no"?>
<!DOCTYPE svg PUBLIC "-//W3C//DTD SVG 1.1//EN"
 "http://www.w3.org/Graphics/SVG/1.1/DTD/svg11.dtd">
<!-- Generated by graphviz version 2.40.1 (20161225.0304)
 -->
<!-- Title: /home/travis/build/AliceO2Group/AliceO2/Steer/include/Steer/HitProcessingManager.h Pages: 1 -->
<svg width="1589pt" height="486pt"
 viewBox="0.00 0.00 1588.97 486.00" xmlns="http://www.w3.org/2000/svg" xmlns:xlink="http://www.w3.org/1999/xlink">
<g id="graph0" class="graph" transform="scale(1 1) rotate(0) translate(4 482)">
<title>/home/travis/build/AliceO2Group/AliceO2/Steer/include/Steer/HitProcessingManager.h</title>
<!-- Node0 -->
<g id="node1" class="node">
<title>Node0</title>
<polygon fill="#bfbfbf" stroke="#000000" points="1011.4689,-425.5 1011.4689,-477.5 1193.4689,-477.5 1193.4689,-425.5 1011.4689,-425.5"/>
<text text-anchor="start" x="1019.4689" y="-465.5" font-family="Helvetica,sans-Serif" font-size="10.00" fill="#000000">/home/travis/build</text>
<text text-anchor="start" x="1019.4689" y="-454.5" font-family="Helvetica,sans-Serif" font-size="10.00" fill="#000000">/AliceO2Group/AliceO2</text>
<text text-anchor="start" x="1019.4689" y="-443.5" font-family="Helvetica,sans-Serif" font-size="10.00" fill="#000000">/Steer/include/Steer/HitProcessing</text>
<text text-anchor="middle" x="1102.4689" y="-432.5" font-family="Helvetica,sans-Serif" font-size="10.00" fill="#000000">Manager.h</text>
</g>
<!-- Node1 -->
<g id="node2" class="node">
<title>Node1</title>
<g id="a_node2"><a xlink:href="../../d9/d80/InteractionRecord_8h.html" target="_top" xlink:title="CommonDataFormat/Interaction\lRecord.h">
<polygon fill="none" stroke="#000000" points="14.4689,-291.5 14.4689,-321.5 188.4689,-321.5 188.4689,-291.5 14.4689,-291.5"/>
<text text-anchor="start" x="22.4689" y="-309.5" font-family="Helvetica,sans-Serif" font-size="10.00" fill="#000000">CommonDataFormat/Interaction</text>
<text text-anchor="middle" x="101.4689" y="-298.5" font-family="Helvetica,sans-Serif" font-size="10.00" fill="#000000">Record.h</text>
</a>
</g>
</g>
<!-- Node0&#45;&gt;Node1 -->
<g id="edge1" class="edge">
<title>Node0&#45;&gt;Node1</title>
<path fill="none" stroke="#191970" d="M1011.2679,-450.4394C818.7401,-447.3075 376.8401,-435.1628 234.4689,-389 193.8305,-375.8233 152.9419,-347.7129 127.4393,-327.9827"/>
<polygon fill="#191970" stroke="#191970" points="129.4228,-325.0895 119.403,-321.6465 125.0888,-330.5865 129.4228,-325.0895"/>
</g>
<!-- Node7 -->
<g id="node8" class="node">
<title>Node7</title>
<g id="a_node8"><a xlink:href="../../d1/def/DigitizationContext_8h.html" target="_top" xlink:title="SimulationDataFormat\l/DigitizationContext.h">
<polygon fill="none" stroke="#000000" points="802.9689,-358.5 802.9689,-388.5 929.9689,-388.5 929.9689,-358.5 802.9689,-358.5"/>
<text text-anchor="start" x="810.9689" y="-376.5" font-family="Helvetica,sans-Serif" font-size="10.00" fill="#000000">SimulationDataFormat</text>
<text text-anchor="middle" x="866.4689" y="-365.5" font-family="Helvetica,sans-Serif" font-size="10.00" fill="#000000">/DigitizationContext.h</text>
</a>
</g>
</g>
<!-- Node0&#45;&gt;Node7 -->
<g id="edge7" class="edge">
<title>Node0&#45;&gt;Node7</title>
<path fill="none" stroke="#191970" d="M1023.5562,-425.4187C990.0636,-414.3491 951.8346,-401.7141 921.4758,-391.6802"/>
<polygon fill="#191970" stroke="#191970" points="922.5047,-388.3342 911.9115,-388.5192 920.308,-394.9806 922.5047,-388.3342"/>
</g>
<!-- Node8 -->
<g id="node9" class="node">
<title>Node8</title>
<polygon fill="none" stroke="#bfbfbf" points="408.9689,-297 408.9689,-316 455.9689,-316 455.9689,-297 408.9689,-297"/>
<text text-anchor="middle" x="432.4689" y="-304" font-family="Helvetica,sans-Serif" font-size="10.00" fill="#000000">vector</text>
</g>
<!-- Node0&#45;&gt;Node8 -->
<g id="edge57" class="edge">
<title>Node0&#45;&gt;Node8</title>
<path fill="none" stroke="#191970" d="M1011.3127,-440.3289C885.7813,-423.3059 653.7347,-385.9179 464.4689,-322 462.8204,-321.4433 461.1469,-320.8212 459.474,-320.155"/>
<polygon fill="#191970" stroke="#191970" points="460.6376,-316.8427 450.0761,-316.0033 457.8089,-323.2458 460.6376,-316.8427"/>
</g>
<!-- Node9 -->
<g id="node10" class="node">
<title>Node9</title>
<polygon fill="none" stroke="#bfbfbf" points="1048.9689,-297 1048.9689,-316 1107.9689,-316 1107.9689,-297 1048.9689,-297"/>
<text text-anchor="middle" x="1078.4689" y="-304" font-family="Helvetica,sans-Serif" font-size="10.00" fill="#000000">TChain.h</text>
</g>
<!-- Node0&#45;&gt;Node9 -->
<g id="edge60" class="edge">
<title>Node0&#45;&gt;Node9</title>
<path fill="none" stroke="#191970" d="M1098.1227,-425.2416C1093.3924,-396.663 1085.939,-351.6317 1081.7001,-326.0218"/>
<polygon fill="#191970" stroke="#191970" points="1085.1348,-325.3387 1080.0487,-316.0445 1078.2287,-326.4818 1085.1348,-325.3387"/>
</g>
<!-- Node13 -->
<g id="node14" class="node">
<title>Node13</title>
<polygon fill="none" stroke="#bfbfbf" points="850.4689,-230 850.4689,-249 894.4689,-249 894.4689,-230 850.4689,-230"/>
<text text-anchor="middle" x="872.4689" y="-237" font-family="Helvetica,sans-Serif" font-size="10.00" fill="#000000">string</text>
</g>
<!-- Node0&#45;&gt;Node13 -->
<g id="edge56" class="edge">
<title>Node0&#45;&gt;Node13</title>
<path fill="none" stroke="#191970" d="M1115.2627,-425.2959C1130.2506,-390.3733 1149.2634,-328.6192 1117.4689,-291 1055.4946,-217.6722 995.9237,-284.2199 904.4689,-255 902.8114,-254.4704 901.131,-253.8696 899.4528,-253.2195"/>
<polygon fill="#191970" stroke="#191970" points="900.6053,-249.9038 890.0401,-249.1128 897.8061,-256.3198 900.6053,-249.9038"/>
</g>
<!-- Node29 -->
<g id="node30" class="node">
<title>Node29</title>
<g id="a_node30"><a xlink:href="../../df/dff/InteractionSampler_8h.html" target="_top" xlink:title="Steer/InteractionSampler.h">
<polygon fill="none" stroke="#000000" points="243.4689,-364 243.4689,-383 389.4689,-383 389.4689,-364 243.4689,-364"/>
<text text-anchor="middle" x="316.4689" y="-371" font-family="Helvetica,sans-Serif" font-size="10.00" fill="#000000">Steer/InteractionSampler.h</text>
</a>
</g>
</g>
<!-- Node0&#45;&gt;Node29 -->
<g id="edge42" class="edge">
<title>Node0&#45;&gt;Node29</title>
<path fill="none" stroke="#191970" d="M1011.152,-442.438C857.1266,-427.1531 548.009,-396.4773 399.6491,-381.7545"/>
<polygon fill="#191970" stroke="#191970" points="399.9777,-378.27 389.6809,-380.7653 399.2864,-385.2358 399.9777,-378.27"/>
</g>
<!-- Node32 -->
<g id="node33" class="node">
<title>Node32</title>
<g id="a_node33"><a xlink:href="../../d7/d61/NameConf_8h.html" target="_top" xlink:title="Definition of the Names Generator class. ">
<polygon fill="none" stroke="#000000" points="1159.9689,-358.5 1159.9689,-388.5 1330.9689,-388.5 1330.9689,-358.5 1159.9689,-358.5"/>
<text text-anchor="start" x="1167.9689" y="-376.5" font-family="Helvetica,sans-Serif" font-size="10.00" fill="#000000">DetectorsCommonDataFormats</text>
<text text-anchor="middle" x="1245.4689" y="-365.5" font-family="Helvetica,sans-Serif" font-size="10.00" fill="#000000">/NameConf.h</text>
</a>
</g>
</g>
<!-- Node0&#45;&gt;Node32 -->
<g id="edge50" class="edge">
<title>Node0&#45;&gt;Node32</title>
<path fill="none" stroke="#191970" d="M1150.4837,-425.3101C1169.5538,-414.9083 1191.1313,-403.1387 1208.8958,-393.449"/>
<polygon fill="#191970" stroke="#191970" points="1210.7014,-396.4509 1217.8044,-388.5897 1207.3494,-390.3057 1210.7014,-396.4509"/>
</g>
<!-- Node36 -->
<g id="node37" class="node">
<title>Node36</title>
<polygon fill="none" stroke="#bfbfbf" points="1349.4689,-364 1349.4689,-383 1441.4689,-383 1441.4689,-364 1349.4689,-364"/>
<text text-anchor="middle" x="1395.4689" y="-371" font-family="Helvetica,sans-Serif" font-size="10.00" fill="#000000">TGeoManager.h</text>
</g>
<!-- Node0&#45;&gt;Node36 -->
<g id="edge55" class="edge">
<title>Node0&#45;&gt;Node36</title>
<path fill="none" stroke="#191970" d="M1193.5487,-427.9896C1237.9227,-416.4314 1292.0345,-402.1833 1340.4689,-389 1344.2904,-387.9598 1348.2575,-386.8672 1352.2319,-385.7636"/>
<polygon fill="#191970" stroke="#191970" points="1353.3577,-389.0832 1362.0474,-383.0219 1351.4745,-382.3413 1353.3577,-389.0832"/>
</g>
<!-- Node37 -->
<g id="node38" class="node">
<title>Node37</title>
<polygon fill="none" stroke="#bfbfbf" points="1459.4689,-364 1459.4689,-383 1497.4689,-383 1497.4689,-364 1459.4689,-364"/>
<text text-anchor="middle" x="1478.4689" y="-371" font-family="Helvetica,sans-Serif" font-size="10.00" fill="#000000">map</text>
</g>
<!-- Node0&#45;&gt;Node37 -->
<g id="edge58" class="edge">
<title>Node0&#45;&gt;Node37</title>
<path fill="none" stroke="#191970" d="M1193.6043,-443.3867C1265.0609,-435.0767 1366.1734,-418.9743 1450.4689,-389 1451.6763,-388.5707 1452.8933,-388.0929 1454.1085,-387.5789"/>
<polygon fill="#191970" stroke="#191970" points="1455.7523,-390.6712 1463.1964,-383.1323 1452.6757,-384.3835 1455.7523,-390.6712"/>
</g>
<!-- Node38 -->
<g id="node39" class="node">
<title>Node38</title>
<polygon fill="none" stroke="#bfbfbf" points="1515.9689,-364 1515.9689,-383 1580.9689,-383 1580.9689,-364 1515.9689,-364"/>
<text text-anchor="middle" x="1548.4689" y="-371" font-family="Helvetica,sans-Serif" font-size="10.00" fill="#000000">functional</text>
</g>
<!-- Node0&#45;&gt;Node38 -->
<g id="edge59" class="edge">
<title>Node0&#45;&gt;Node38</title>
<path fill="none" stroke="#191970" d="M1193.7805,-442.6511C1276.3617,-433.4066 1400.8354,-416.3684 1506.4689,-389 1509.4573,-388.2257 1512.5295,-387.3186 1515.5874,-386.3385"/>
<polygon fill="#191970" stroke="#191970" points="1516.8713,-389.5981 1525.1866,-383.0325 1514.5919,-382.9796 1516.8713,-389.5981"/>
</g>
<!-- Node2 -->
<g id="node3" class="node">
<title>Node2</title>
<polygon fill="none" stroke="#bfbfbf" points="334.9689,-168.5 334.9689,-187.5 393.9689,-187.5 393.9689,-168.5 334.9689,-168.5"/>
<text text-anchor="middle" x="364.4689" y="-175.5" font-family="Helvetica,sans-Serif" font-size="10.00" fill="#000000">Rtypes.h</text>
</g>
<!-- Node1&#45;&gt;Node2 -->
<g id="edge2" class="edge">
<title>Node1&#45;&gt;Node2</title>
<path fill="none" stroke="#191970" d="M126.5474,-291.3754C155.7669,-274.0467 205.7564,-245.3016 250.4689,-224 276.1479,-211.7662 305.9877,-199.8028 328.6959,-191.144"/>
<polygon fill="#191970" stroke="#191970" points="330.1539,-194.3348 338.272,-187.527 327.6804,-187.7863 330.1539,-194.3348"/>
</g>
<!-- Node3 -->
<g id="node4" class="node">
<title>Node3</title>
<polygon fill="none" stroke="#bfbfbf" points="76.9689,-230 76.9689,-249 125.9689,-249 125.9689,-230 76.9689,-230"/>
<text text-anchor="middle" x="101.4689" y="-237" font-family="Helvetica,sans-Serif" font-size="10.00" fill="#000000">iosfwd</text>
</g>
<!-- Node1&#45;&gt;Node3 -->
<g id="edge3" class="edge">
<title>Node1&#45;&gt;Node3</title>
<path fill="none" stroke="#191970" d="M101.4689,-291.2967C101.4689,-281.7699 101.4689,-269.3954 101.4689,-259.1306"/>
<polygon fill="#191970" stroke="#191970" points="104.969,-259.0549 101.4689,-249.055 97.969,-259.055 104.969,-259.0549"/>
</g>
<!-- Node4 -->
<g id="node5" class="node">
<title>Node4</title>
<polygon fill="none" stroke="#bfbfbf" points="756.9689,-56.5 756.9689,-75.5 803.9689,-75.5 803.9689,-56.5 756.9689,-56.5"/>
<text text-anchor="middle" x="780.4689" y="-63.5" font-family="Helvetica,sans-Serif" font-size="10.00" fill="#000000">cmath</text>
</g>
<!-- Node1&#45;&gt;Node4 -->
<g id="edge4" class="edge">
<title>Node1&#45;&gt;Node4</title>
<path fill="none" stroke="#191970" d="M86.6794,-291.4657C71.1476,-273.8313 51.0808,-244.4172 67.4689,-224 154.6013,-115.4454 616.8091,-76.8715 746.5682,-68.0926"/>
<polygon fill="#191970" stroke="#191970" points="746.9606,-71.5744 756.7078,-67.422 746.4986,-64.5897 746.9606,-71.5744"/>
</g>
<!-- Node5 -->
<g id="node6" class="node">
<title>Node5</title>
<polygon fill="none" stroke="#bfbfbf" points="591.4689,-168.5 591.4689,-187.5 641.4689,-187.5 641.4689,-168.5 591.4689,-168.5"/>
<text text-anchor="middle" x="616.4689" y="-175.5" font-family="Helvetica,sans-Serif" font-size="10.00" fill="#000000">cstdint</text>
</g>
<!-- Node1&#45;&gt;Node5 -->
<g id="edge5" class="edge">
<title>Node1&#45;&gt;Node5</title>
<path fill="none" stroke="#191970" d="M142.4821,-291.4752C169.1399,-281.5284 204.559,-267.9713 235.4689,-255 266.096,-242.1474 271.6113,-233.3968 303.4689,-224 401.4159,-195.1095 522.1911,-183.92 580.9698,-179.9589"/>
<polygon fill="#191970" stroke="#191970" points="581.4494,-183.4354 591.2042,-179.3008 581.0001,-176.4498 581.4494,-183.4354"/>
</g>
<!-- Node6 -->
<g id="node7" class="node">
<title>Node6</title>
<g id="a_node7"><a xlink:href="../../d4/dc6/LHCConstants_8h.html" target="_top" xlink:title="Header to collect LHC related constants. ">
<polygon fill="none" stroke="#000000" points="312.4689,-230 312.4689,-249 502.4689,-249 502.4689,-230 312.4689,-230"/>
<text text-anchor="middle" x="407.4689" y="-237" font-family="Helvetica,sans-Serif" font-size="10.00" fill="#000000">CommonConstants/LHCConstants.h</text>
</a>
</g>
</g>
<!-- Node1&#45;&gt;Node6 -->
<g id="edge6" class="edge">
<title>Node1&#45;&gt;Node6</title>
<path fill="none" stroke="#191970" d="M170.1413,-291.4639C225.8123,-279.2745 303.1452,-262.3421 354.2085,-251.1616"/>
<polygon fill="#191970" stroke="#191970" points="355.0368,-254.5632 364.0567,-249.0053 353.5395,-247.7252 355.0368,-254.5632"/>
</g>
<!-- Node7&#45;&gt;Node1 -->
<g id="edge11" class="edge">
<title>Node7&#45;&gt;Node1</title>
<path fill="none" stroke="#191970" d="M802.8142,-369.018C688.9116,-360.839 442.7483,-342.441 235.4689,-322 223.6339,-320.8329 211.2214,-319.5189 198.9264,-318.1622"/>
<polygon fill="#191970" stroke="#191970" points="198.9678,-314.6452 188.6414,-317.0149 198.1917,-321.6021 198.9678,-314.6452"/>
</g>
<!-- Node7&#45;&gt;Node8 -->
<g id="edge8" class="edge">
<title>Node7&#45;&gt;Node8</title>
<path fill="none" stroke="#191970" d="M802.844,-371.6702C722.4718,-367.934 580.633,-356.569 464.4689,-322 462.6052,-321.4454 460.7156,-320.7926 458.8348,-320.0741"/>
<polygon fill="#191970" stroke="#191970" points="460.2297,-316.8642 449.6635,-316.0858 457.4381,-323.2834 460.2297,-316.8642"/>
</g>
<!-- Node7&#45;&gt;Node9 -->
<g id="edge9" class="edge">
<title>Node7&#45;&gt;Node9</title>
<path fill="none" stroke="#191970" d="M917.368,-358.4923C950.7711,-348.4971 995.3512,-334.8797 1034.4689,-322 1037.0484,-321.1507 1039.707,-320.258 1042.3798,-319.3477"/>
<polygon fill="#191970" stroke="#191970" points="1043.6965,-322.5959 1052.0047,-316.0213 1041.4099,-315.9798 1043.6965,-322.5959"/>
</g>
<!-- Node10 -->
<g id="node11" class="node">
<title>Node10</title>
<polygon fill="none" stroke="#bfbfbf" points="833.9689,-297 833.9689,-316 898.9689,-316 898.9689,-297 833.9689,-297"/>
<text text-anchor="middle" x="866.4689" y="-304" font-family="Helvetica,sans-Serif" font-size="10.00" fill="#000000">TBranch.h</text>
</g>
<!-- Node7&#45;&gt;Node10 -->
<g id="edge10" class="edge">
<title>Node7&#45;&gt;Node10</title>
<path fill="none" stroke="#191970" d="M866.4689,-358.2967C866.4689,-348.7699 866.4689,-336.3954 866.4689,-326.1306"/>
<polygon fill="#191970" stroke="#191970" points="869.969,-326.0549 866.4689,-316.055 862.969,-326.055 869.969,-326.0549"/>
</g>
<!-- Node11 -->
<g id="node12" class="node">
<title>Node11</title>
<g id="a_node12"><a xlink:href="../../d4/d5f/BunchFilling_8h.html" target="_top" xlink:title="CommonDataFormat/BunchFilling.h">
<polygon fill="none" stroke="#000000" points="473.9689,-297 473.9689,-316 662.9689,-316 662.9689,-297 473.9689,-297"/>
<text text-anchor="middle" x="568.4689" y="-304" font-family="Helvetica,sans-Serif" font-size="10.00" fill="#000000">CommonDataFormat/BunchFilling.h</text>
</a>
</g>
</g>
<!-- Node7&#45;&gt;Node11 -->
<g id="edge12" class="edge">
<title>Node7&#45;&gt;Node11</title>
<path fill="none" stroke="#191970" d="M802.906,-359.209C748.5803,-346.9948 671.3683,-329.6351 620.6141,-318.2239"/>
<polygon fill="#191970" stroke="#191970" points="621.3549,-314.8032 610.8307,-316.0243 619.8193,-321.6327 621.3549,-314.8032"/>
</g>
<!-- Node14 -->
<g id="node15" class="node">
<title>Node14</title>
<g id="a_node15"><a xlink:href="../../d6/d31/DetID_8h.html" target="_top" xlink:title="DetectorsCommonDataFormats\l/DetID.h">
<polygon fill="none" stroke="#000000" points="912.9689,-224.5 912.9689,-254.5 1083.9689,-254.5 1083.9689,-224.5 912.9689,-224.5"/>
<text text-anchor="start" x="920.9689" y="-242.5" font-family="Helvetica,sans-Serif" font-size="10.00" fill="#000000">DetectorsCommonDataFormats</text>
<text text-anchor="middle" x="998.4689" y="-231.5" font-family="Helvetica,sans-Serif" font-size="10.00" fill="#000000">/DetID.h</text>
</a>
</g>
</g>
<!-- Node7&#45;&gt;Node14 -->
<g id="edge16" class="edge">
<title>Node7&#45;&gt;Node14</title>
<path fill="none" stroke="#191970" d="M924.5625,-358.4436C956.7477,-348.8002 992.1128,-335.5829 1001.4689,-322 1012.8474,-305.481 1010.8882,-282.3666 1006.7739,-264.8053"/>
<polygon fill="#191970" stroke="#191970" points="1010.0282,-263.4329 1004.0335,-254.6971 1003.2721,-265.2645 1010.0282,-263.4329"/>
</g>
<!-- Node25 -->
<g id="node26" class="node">
<title>Node25</title>
<g id="a_node26"><a xlink:href="../../de/d28/GRPObject_8h.html" target="_top" xlink:title="Header of the General Run Parameters object. ">
<polygon fill="none" stroke="#000000" points="680.9689,-291.5 680.9689,-321.5 815.9689,-321.5 815.9689,-291.5 680.9689,-291.5"/>
<text text-anchor="start" x="688.9689" y="-309.5" font-family="Helvetica,sans-Serif" font-size="10.00" fill="#000000">DataFormatsParameters</text>
<text text-anchor="middle" x="748.4689" y="-298.5" font-family="Helvetica,sans-Serif" font-size="10.00" fill="#000000">/GRPObject.h</text>
</a>
</g>
</g>
<!-- Node7&#45;&gt;Node25 -->
<g id="edge34" class="edge">
<title>Node7&#45;&gt;Node25</title>
<path fill="none" stroke="#191970" d="M839.9874,-358.4639C823.5542,-349.1332 802.2262,-337.0232 784.2942,-326.8415"/>
<polygon fill="#191970" stroke="#191970" points="785.6945,-323.6117 775.2703,-321.7177 782.2382,-329.699 785.6945,-323.6117"/>
</g>
<!-- Node28 -->
<g id="node29" class="node">
<title>Node28</title>
<polygon fill="none" stroke="#bfbfbf" points="916.9689,-297 916.9689,-316 991.9689,-316 991.9689,-297 916.9689,-297"/>
<text text-anchor="middle" x="954.4689" y="-304" font-family="Helvetica,sans-Serif" font-size="10.00" fill="#000000">FairLogger.h</text>
</g>
<!-- Node7&#45;&gt;Node28 -->
<g id="edge41" class="edge">
<title>Node7&#45;&gt;Node28</title>
<path fill="none" stroke="#191970" d="M886.4375,-358.2967C900.5476,-347.5537 919.414,-333.1895 933.6997,-322.3129"/>
<polygon fill="#191970" stroke="#191970" points="936.0829,-324.8975 941.9191,-316.055 931.8425,-319.328 936.0829,-324.8975"/>
</g>
<!-- Node11&#45;&gt;Node6 -->
<g id="edge13" class="edge">
<title>Node11&#45;&gt;Node6</title>
<path fill="none" stroke="#191970" d="M545.4015,-296.9005C517.7843,-285.4077 471.3493,-266.0838 440.0726,-253.068"/>
<polygon fill="#191970" stroke="#191970" points="441.0707,-249.6924 430.4935,-249.0817 438.3812,-256.1552 441.0707,-249.6924"/>
</g>
<!-- Node12 -->
<g id="node13" class="node">
<title>Node12</title>
<polygon fill="none" stroke="#bfbfbf" points="684.4689,-168.5 684.4689,-187.5 728.4689,-187.5 728.4689,-168.5 684.4689,-168.5"/>
<text text-anchor="middle" x="706.4689" y="-175.5" font-family="Helvetica,sans-Serif" font-size="10.00" fill="#000000">bitset</text>
</g>
<!-- Node11&#45;&gt;Node12 -->
<g id="edge14" class="edge">
<title>Node11&#45;&gt;Node12</title>
<path fill="none" stroke="#191970" d="M574.8526,-296.7755C585.881,-280.4492 609.799,-247.0557 635.4689,-224 648.9142,-211.9239 665.8374,-200.8294 679.7889,-192.5628"/>
<polygon fill="#191970" stroke="#191970" points="681.5504,-195.5873 688.4615,-187.5569 678.051,-189.5247 681.5504,-195.5873"/>
</g>
<!-- Node11&#45;&gt;Node13 -->
<g id="edge15" class="edge">
<title>Node11&#45;&gt;Node13</title>
<path fill="none" stroke="#191970" d="M629.7613,-296.9652C697.8164,-286.0206 803.1329,-267.9194 841.4689,-255 843.0762,-254.4583 844.7054,-253.848 846.3321,-253.1908"/>
<polygon fill="#191970" stroke="#191970" points="847.7852,-256.375 855.4534,-249.064 844.8997,-249.9974 847.7852,-256.375"/>
</g>
<!-- Node14&#45;&gt;Node2 -->
<g id="edge17" class="edge">
<title>Node14&#45;&gt;Node2</title>
<path fill="none" stroke="#191970" d="M912.8075,-225.214C909.6577,-224.7872 906.537,-224.3806 903.4689,-224 717.4053,-200.9159 493.7561,-185.8611 404.2914,-180.3508"/>
<polygon fill="#191970" stroke="#191970" points="404.2525,-176.842 394.0578,-179.7262 403.826,-183.829 404.2525,-176.842"/>
</g>
<!-- Node14&#45;&gt;Node5 -->
<g id="edge21" class="edge">
<title>Node14&#45;&gt;Node5</title>
<path fill="none" stroke="#191970" d="M912.7673,-225.4964C909.6288,-224.9901 906.5214,-224.49 903.4689,-224 802.177,-207.7401 776.7103,-204.572 675.4689,-188 667.7698,-186.7397 659.5108,-185.3584 651.6829,-184.0354"/>
<polygon fill="#191970" stroke="#191970" points="652.1688,-180.5679 641.7241,-182.345 650.9973,-187.4692 652.1688,-180.5679"/>
</g>
<!-- Node14&#45;&gt;Node12 -->
<g id="edge19" class="edge">
<title>Node14&#45;&gt;Node12</title>
<path fill="none" stroke="#191970" d="M927.0377,-224.4554C866.8883,-211.787 783.657,-194.2571 738.5853,-184.7642"/>
<polygon fill="#191970" stroke="#191970" points="739.283,-181.3345 728.7763,-182.6983 737.8402,-188.1842 739.283,-181.3345"/>
</g>
<!-- Node15 -->
<g id="node16" class="node">
<title>Node15</title>
<polygon fill="none" stroke="#bfbfbf" points="710.4689,-112.5 710.4689,-131.5 752.4689,-131.5 752.4689,-112.5 710.4689,-112.5"/>
<text text-anchor="middle" x="731.4689" y="-119.5" font-family="Helvetica,sans-Serif" font-size="10.00" fill="#000000">array</text>
</g>
<!-- Node14&#45;&gt;Node15 -->
<g id="edge18" class="edge">
<title>Node14&#45;&gt;Node15</title>
<path fill="none" stroke="#191970" d="M946.5187,-224.4477C916.9583,-215.2269 879.5452,-202.4395 847.4689,-188 814.2289,-173.0367 778.0345,-151.5385 755.0706,-137.1887"/>
<polygon fill="#191970" stroke="#191970" points="756.6992,-134.0779 746.3746,-131.7003 752.9631,-139.9974 756.6992,-134.0779"/>
</g>
<!-- Node16 -->
<g id="node17" class="node">
<title>Node16</title>
<polygon fill="none" stroke="#bfbfbf" points="972.4689,-168.5 972.4689,-187.5 1024.4689,-187.5 1024.4689,-168.5 972.4689,-168.5"/>
<text text-anchor="middle" x="998.4689" y="-175.5" font-family="Helvetica,sans-Serif" font-size="10.00" fill="#000000">cassert</text>
</g>
<!-- Node14&#45;&gt;Node16 -->
<g id="edge20" class="edge">
<title>Node14&#45;&gt;Node16</title>
<path fill="none" stroke="#191970" d="M998.4689,-224.2977C998.4689,-216.3834 998.4689,-206.6043 998.4689,-198.0759"/>
<polygon fill="#191970" stroke="#191970" points="1001.969,-197.8469 998.4689,-187.8469 994.969,-197.847 1001.969,-197.8469"/>
</g>
<!-- Node17 -->
<g id="node18" class="node">
<title>Node17</title>
<polygon fill="none" stroke="#bfbfbf" points="1042.9689,-168.5 1042.9689,-187.5 1111.9689,-187.5 1111.9689,-168.5 1042.9689,-168.5"/>
<text text-anchor="middle" x="1077.4689" y="-175.5" font-family="Helvetica,sans-Serif" font-size="10.00" fill="#000000">type_traits</text>
</g>
<!-- Node14&#45;&gt;Node17 -->
<g id="edge22" class="edge">
<title>Node14&#45;&gt;Node17</title>
<path fill="none" stroke="#191970" d="M1017.997,-224.2977C1029.7626,-215.1384 1044.7364,-203.4816 1056.7154,-194.1562"/>
<polygon fill="#191970" stroke="#191970" points="1059.0792,-196.7516 1064.82,-187.8469 1054.7791,-191.228 1059.0792,-196.7516"/>
</g>
<!-- Node18 -->
<g id="node19" class="node">
<title>Node18</title>
<g id="a_node19"><a xlink:href="../../d9/d52/Common_2MathUtils_2include_2MathUtils_2Utils_8h.html" target="_top" xlink:title="MathUtils/Utils.h">
<polygon fill="none" stroke="#000000" points="856.4689,-168.5 856.4689,-187.5 954.4689,-187.5 954.4689,-168.5 856.4689,-168.5"/>
<text text-anchor="middle" x="905.4689" y="-175.5" font-family="Helvetica,sans-Serif" font-size="10.00" fill="#000000">MathUtils/Utils.h</text>
</a>
</g>
</g>
<!-- Node14&#45;&gt;Node18 -->
<g id="edge23" class="edge">
<title>Node14&#45;&gt;Node18</title>
<path fill="none" stroke="#191970" d="M975.4801,-224.2977C961.2723,-214.9022 943.0904,-202.8787 928.8164,-193.4395"/>
<polygon fill="#191970" stroke="#191970" points="930.3534,-190.2598 920.0817,-187.6633 926.4922,-196.0986 930.3534,-190.2598"/>
</g>
<!-- Node18&#45;&gt;Node4 -->
<g id="edge25" class="edge">
<title>Node18&#45;&gt;Node4</title>
<path fill="none" stroke="#191970" d="M862.0224,-168.497C840.4532,-161.6956 815.6222,-150.3865 799.4689,-132 788.2914,-119.2772 783.6682,-100.3561 781.7672,-86.0308"/>
<polygon fill="#191970" stroke="#191970" points="785.2164,-85.3424 780.7529,-75.7337 778.2501,-86.0286 785.2164,-85.3424"/>
</g>
<!-- Node18&#45;&gt;Node15 -->
<g id="edge24" class="edge">
<title>Node18&#45;&gt;Node15</title>
<path fill="none" stroke="#191970" d="M875.5572,-168.3733C843.9057,-158.1865 794.205,-142.1909 762.2336,-131.9013"/>
<polygon fill="#191970" stroke="#191970" points="763.1131,-128.5076 752.5217,-128.7756 760.9685,-135.171 763.1131,-128.5076"/>
</g>
<!-- Node19 -->
<g id="node20" class="node">
<title>Node19</title>
<g id="a_node20"><a xlink:href="../../df/d21/GPUCommonDef_8h.html" target="_top" xlink:title="GPUCommonDef.h">
<polygon fill="none" stroke="#000000" points="1109.9689,-56.5 1109.9689,-75.5 1216.9689,-75.5 1216.9689,-56.5 1109.9689,-56.5"/>
<text text-anchor="middle" x="1163.4689" y="-63.5" font-family="Helvetica,sans-Serif" font-size="10.00" fill="#000000">GPUCommonDef.h</text>
</a>
</g>
</g>
<!-- Node18&#45;&gt;Node19 -->
<g id="edge26" class="edge">
<title>Node18&#45;&gt;Node19</title>
<path fill="none" stroke="#191970" d="M954.6529,-169.1959C1023.5779,-156.7648 1140.9498,-135.2154 1144.4689,-132 1157.2356,-120.3354 1161.635,-100.7045 1163.0503,-85.8773"/>
<polygon fill="#191970" stroke="#191970" points="1166.5563,-85.8723 1163.64,-75.6868 1159.568,-85.4678 1166.5563,-85.8723"/>
</g>
<!-- Node22 -->
<g id="node23" class="node">
<title>Node22</title>
<g id="a_node23"><a xlink:href="../../d6/da2/GPUCommonMath_8h.html" target="_top" xlink:title="GPUCommonMath.h">
<polygon fill="none" stroke="#000000" points="1019.9689,-112.5 1019.9689,-131.5 1134.9689,-131.5 1134.9689,-112.5 1019.9689,-112.5"/>
<text text-anchor="middle" x="1077.4689" y="-119.5" font-family="Helvetica,sans-Serif" font-size="10.00" fill="#000000">GPUCommonMath.h</text>
</a>
</g>
</g>
<!-- Node18&#45;&gt;Node22 -->
<g id="edge29" class="edge">
<title>Node18&#45;&gt;Node22</title>
<path fill="none" stroke="#191970" d="M935.0368,-168.3733C963.6378,-159.0613 1007.1477,-144.8953 1038.5508,-134.671"/>
<polygon fill="#191970" stroke="#191970" points="1039.8617,-137.9251 1048.2869,-131.5011 1037.6946,-131.269 1039.8617,-137.9251"/>
</g>
<!-- Node24 -->
<g id="node25" class="node">
<title>Node24</title>
<g id="a_node25"><a xlink:href="../../d6/d84/MathConstants_8h.html" target="_top" xlink:title="useful math constants ">
<polygon fill="none" stroke="#000000" points="808.4689,-112.5 808.4689,-131.5 1002.4689,-131.5 1002.4689,-112.5 808.4689,-112.5"/>
<text text-anchor="middle" x="905.4689" y="-119.5" font-family="Helvetica,sans-Serif" font-size="10.00" fill="#000000">CommonConstants/MathConstants.h</text>
</a>
</g>
</g>
<!-- Node18&#45;&gt;Node24 -->
<g id="edge33" class="edge">
<title>Node18&#45;&gt;Node24</title>
<path fill="none" stroke="#191970" d="M905.4689,-168.2455C905.4689,-160.9382 905.4689,-150.6944 905.4689,-141.7046"/>
<polygon fill="#191970" stroke="#191970" points="908.969,-141.6426 905.4689,-131.6427 901.969,-141.6427 908.969,-141.6426"/>
</g>
<!-- Node20 -->
<g id="node21" class="node">
<title>Node20</title>
<g id="a_node21"><a xlink:href="../../d5/d93/GPUCommonDefSettings_8h.html" target="_top" xlink:title="GPUCommonDefSettings.h">
<polygon fill="none" stroke="#000000" points="1012.4689,-.5 1012.4689,-19.5 1160.4689,-19.5 1160.4689,-.5 1012.4689,-.5"/>
<text text-anchor="middle" x="1086.4689" y="-7.5" font-family="Helvetica,sans-Serif" font-size="10.00" fill="#000000">GPUCommonDefSettings.h</text>
</a>
</g>
</g>
<!-- Node19&#45;&gt;Node20 -->
<g id="edge27" class="edge">
<title>Node19&#45;&gt;Node20</title>
<path fill="none" stroke="#191970" d="M1150.0565,-56.2455C1138.4632,-47.814 1121.4942,-35.4729 1108.0011,-25.6598"/>
<polygon fill="#191970" stroke="#191970" points="1109.8736,-22.6938 1099.7276,-19.6427 1105.7564,-28.355 1109.8736,-22.6938"/>
</g>
<!-- Node21 -->
<g id="node22" class="node">
<title>Node21</title>
<g id="a_node22"><a xlink:href="../../da/d5a/GPUCommonDefAPI_8h.html" target="_top" xlink:title="GPUCommonDefAPI.h">
<polygon fill="none" stroke="#000000" points="1178.4689,-.5 1178.4689,-19.5 1302.4689,-19.5 1302.4689,-.5 1178.4689,-.5"/>
<text text-anchor="middle" x="1240.4689" y="-7.5" font-family="Helvetica,sans-Serif" font-size="10.00" fill="#000000">GPUCommonDefAPI.h</text>
</a>
</g>
</g>
<!-- Node19&#45;&gt;Node21 -->
<g id="edge28" class="edge">
<title>Node19&#45;&gt;Node21</title>
<path fill="none" stroke="#191970" d="M1176.8813,-56.2455C1188.4746,-47.814 1205.4437,-35.4729 1218.9367,-25.6598"/>
<polygon fill="#191970" stroke="#191970" points="1221.1815,-28.355 1227.2102,-19.6427 1217.0642,-22.6938 1221.1815,-28.355"/>
</g>
<!-- Node22&#45;&gt;Node4 -->
<g id="edge31" class="edge">
<title>Node22&#45;&gt;Node4</title>
<path fill="none" stroke="#191970" d="M1026.7503,-112.4369C965.9907,-100.9805 865.9169,-82.1114 814.0217,-72.3265"/>
<polygon fill="#191970" stroke="#191970" points="814.486,-68.8524 804.0106,-70.4388 813.1889,-75.7312 814.486,-68.8524"/>
</g>
<!-- Node22&#45;&gt;Node19 -->
<g id="edge30" class="edge">
<title>Node22&#45;&gt;Node19</title>
<path fill="none" stroke="#191970" d="M1092.449,-112.2455C1105.644,-103.6534 1125.074,-91.0014 1140.2769,-81.1018"/>
<polygon fill="#191970" stroke="#191970" points="1142.1904,-84.0325 1148.6605,-75.6427 1138.3707,-78.1665 1142.1904,-84.0325"/>
</g>
<!-- Node23 -->
<g id="node24" class="node">
<title>Node23</title>
<polygon fill="none" stroke="#bfbfbf" points="1027.4689,-56.5 1027.4689,-75.5 1091.4689,-75.5 1091.4689,-56.5 1027.4689,-56.5"/>
<text text-anchor="middle" x="1059.4689" y="-63.5" font-family="Helvetica,sans-Serif" font-size="10.00" fill="#000000">algorithm</text>
</g>
<!-- Node22&#45;&gt;Node23 -->
<g id="edge32" class="edge">
<title>Node22&#45;&gt;Node23</title>
<path fill="none" stroke="#191970" d="M1074.3336,-112.2455C1071.959,-104.8579 1068.6196,-94.4689 1065.7074,-85.4087"/>
<polygon fill="#191970" stroke="#191970" points="1068.9606,-84.0919 1062.5683,-75.6427 1062.2964,-86.234 1068.9606,-84.0919"/>
</g>
<!-- Node25&#45;&gt;Node2 -->
<g id="edge35" class="edge">
<title>Node25&#45;&gt;Node2</title>
<path fill="none" stroke="#191970" d="M706.6504,-291.4927C659.4045,-274.6429 580.1394,-246.6902 511.4689,-224 475.0834,-211.9775 433.3717,-199.0009 403.6978,-189.9056"/>
<polygon fill="#191970" stroke="#191970" points="404.7074,-186.5544 394.121,-186.9768 402.6602,-193.2484 404.7074,-186.5544"/>
</g>
<!-- Node25&#45;&gt;Node5 -->
<g id="edge36" class="edge">
<title>Node25&#45;&gt;Node5</title>
<path fill="none" stroke="#191970" d="M690.2342,-291.386C670.301,-283.538 649.5099,-271.9245 635.4689,-255 622.1828,-238.9853 617.9618,-215.0447 616.7331,-198.117"/>
<polygon fill="#191970" stroke="#191970" points="620.2118,-197.5425 616.2859,-187.7019 613.2182,-197.8428 620.2118,-197.5425"/>
</g>
<!-- Node25&#45;&gt;Node6 -->
<g id="edge38" class="edge">
<title>Node25&#45;&gt;Node6</title>
<path fill="none" stroke="#191970" d="M680.9304,-292.692C678.0721,-292.1183 675.2423,-291.5523 672.4689,-291 602.0821,-276.9832 521.0834,-261.3083 467.3528,-250.9742"/>
<polygon fill="#191970" stroke="#191970" points="467.795,-247.4952 457.3141,-249.0445 466.4736,-254.3693 467.795,-247.4952"/>
</g>
<!-- Node25&#45;&gt;Node14 -->
<g id="edge40" class="edge">
<title>Node25&#45;&gt;Node14</title>
<path fill="none" stroke="#191970" d="M804.5738,-291.4639C842.3974,-281.3272 892.4601,-267.9104 932.2408,-257.2491"/>
<polygon fill="#191970" stroke="#191970" points="933.3662,-260.5711 942.1193,-254.6017 931.5541,-253.8097 933.3662,-260.5711"/>
</g>
<!-- Node26 -->
<g id="node27" class="node">
<title>Node26</title>
<polygon fill="none" stroke="#bfbfbf" points="644.4689,-230 644.4689,-249 688.4689,-249 688.4689,-230 644.4689,-230"/>
<text text-anchor="middle" x="666.4689" y="-237" font-family="Helvetica,sans-Serif" font-size="10.00" fill="#000000">ctime</text>
</g>
<!-- Node25&#45;&gt;Node26 -->
<g id="edge37" class="edge">
<title>Node25&#45;&gt;Node26</title>
<path fill="none" stroke="#191970" d="M729.8618,-291.2967C716.8378,-280.6551 699.465,-266.4602 686.1999,-255.6217"/>
<polygon fill="#191970" stroke="#191970" points="688.1214,-252.6719 678.1631,-249.055 683.6923,-258.0926 688.1214,-252.6719"/>
</g>
<!-- Node27 -->
<g id="node28" class="node">
<title>Node27</title>
<g id="a_node28"><a xlink:href="../../da/d58/Units_8h.html" target="_top" xlink:title="Header to collect definitions for different units. ">
<polygon fill="none" stroke="#000000" points="706.4689,-230 706.4689,-249 832.4689,-249 832.4689,-230 706.4689,-230"/>
<text text-anchor="middle" x="769.4689" y="-237" font-family="Helvetica,sans-Serif" font-size="10.00" fill="#000000">CommonTypes/Units.h</text>
</a>
</g>
</g>
<!-- Node25&#45;&gt;Node27 -->
<g id="edge39" class="edge">
<title>Node25&#45;&gt;Node27</title>
<path fill="none" stroke="#191970" d="M753.2341,-291.2967C756.2519,-281.6685 760.1813,-269.1318 763.4185,-258.8038"/>
<polygon fill="#191970" stroke="#191970" points="766.8229,-259.6441 766.4741,-249.055 760.1433,-257.5504 766.8229,-259.6441"/>
</g>
<!-- Node29&#45;&gt;Node1 -->
<g id="edge47" class="edge">
<title>Node29&#45;&gt;Node1</title>
<path fill="none" stroke="#191970" d="M285.6647,-363.9005C252.8407,-353.6717 200.1111,-337.2397 159.4633,-324.5727"/>
<polygon fill="#191970" stroke="#191970" points="160.2616,-321.1555 149.6731,-321.5218 158.1789,-327.8385 160.2616,-321.1555"/>
</g>
<!-- Node29&#45;&gt;Node2 -->
<g id="edge43" class="edge">
<title>Node29&#45;&gt;Node2</title>
<path fill="none" stroke="#191970" d="M243.286,-366.3421C156.241,-357.0762 20.7117,-339.9744 5.4689,-322 -3.4422,-311.4919 .4439,-303.8287 5.4689,-291 20.2659,-253.2234 31.6506,-243.0545 67.4689,-224 111.2844,-200.6912 253.9851,-186.6228 324.4122,-180.9328"/>
<polygon fill="#191970" stroke="#191970" points="324.9705,-184.3997 334.6637,-180.1226 324.419,-177.4214 324.9705,-184.3997"/>
</g>
<!-- Node29&#45;&gt;Node6 -->
<g id="edge49" class="edge">
<title>Node29&#45;&gt;Node6</title>
<path fill="none" stroke="#191970" d="M288.5652,-363.9563C269.8715,-355.934 246.6995,-342.4488 235.4689,-322 228.8365,-309.9236 227.2416,-302.0516 235.4689,-291 248.4202,-273.6027 298.1161,-259.9016 340.7813,-251.019"/>
<polygon fill="#191970" stroke="#191970" points="341.4957,-254.4455 350.6028,-249.0315 340.1072,-247.5845 341.4957,-254.4455"/>
</g>
<!-- Node29&#45;&gt;Node8 -->
<g id="edge46" class="edge">
<title>Node29&#45;&gt;Node8</title>
<path fill="none" stroke="#191970" d="M333.0889,-363.9005C352.4702,-352.7062 384.7144,-334.0823 407.2004,-321.0947"/>
<polygon fill="#191970" stroke="#191970" points="408.9709,-324.114 415.8798,-316.0817 405.4698,-318.0525 408.9709,-324.114"/>
</g>
<!-- Node29&#45;&gt;Node11 -->
<g id="edge48" class="edge">
<title>Node29&#45;&gt;Node11</title>
<path fill="none" stroke="#191970" d="M352.3067,-363.9717C397.0551,-352.0743 473.6646,-331.7059 522.6379,-318.6852"/>
<polygon fill="#191970" stroke="#191970" points="523.5818,-322.056 532.3467,-316.1039 521.7831,-315.291 523.5818,-322.056"/>
</g>
<!-- Node30 -->
<g id="node31" class="node">
<title>Node30</title>
<polygon fill="none" stroke="#bfbfbf" points="244.4689,-297 244.4689,-316 300.4689,-316 300.4689,-297 244.4689,-297"/>
<text text-anchor="middle" x="272.4689" y="-304" font-family="Helvetica,sans-Serif" font-size="10.00" fill="#000000">TMath.h</text>
</g>
<!-- Node29&#45;&gt;Node30 -->
<g id="edge44" class="edge">
<title>Node29&#45;&gt;Node30</title>
<path fill="none" stroke="#191970" d="M310.1648,-363.9005C303.4341,-353.6515 292.6135,-337.1747 284.2882,-324.4976"/>
<polygon fill="#191970" stroke="#191970" points="287.1762,-322.5191 278.7613,-316.0817 281.3251,-326.3616 287.1762,-322.5191"/>
</g>
<!-- Node31 -->
<g id="node32" class="node">
<title>Node31</title>
<polygon fill="none" stroke="#bfbfbf" points="318.4689,-297 318.4689,-316 390.4689,-316 390.4689,-297 318.4689,-297"/>
<text text-anchor="middle" x="354.4689" y="-304" font-family="Helvetica,sans-Serif" font-size="10.00" fill="#000000">TRandom.h</text>
</g>
<!-- Node29&#45;&gt;Node31 -->
<g id="edge45" class="edge">
<title>Node29&#45;&gt;Node31</title>
<path fill="none" stroke="#191970" d="M321.9134,-363.9005C327.6698,-353.751 336.8902,-337.4941 344.0513,-324.8679"/>
<polygon fill="#191970" stroke="#191970" points="347.1455,-326.5067 349.0345,-316.0817 341.0567,-323.0533 347.1455,-326.5067"/>
</g>
<!-- Node32&#45;&gt;Node14 -->
<g id="edge51" class="edge">
<title>Node32&#45;&gt;Node14</title>
<path fill="none" stroke="#191970" d="M1231.7197,-358.4022C1214.3716,-340.1542 1182.8686,-309.5889 1150.4689,-291 1125.7177,-276.7993 1096.443,-265.7184 1070.2255,-257.5339"/>
<polygon fill="#191970" stroke="#191970" points="1070.9282,-254.0897 1060.3429,-254.5384 1068.8977,-260.7887 1070.9282,-254.0897"/>
</g>
<!-- Node33 -->
<g id="node34" class="node">
<title>Node33</title>
<g id="a_node34"><a xlink:href="../../d4/d8f/StringUtils_8h.html" target="_top" xlink:title="CommonUtils/StringUtils.h">
<polygon fill="none" stroke="#000000" points="1202.4689,-297 1202.4689,-316 1348.4689,-316 1348.4689,-297 1202.4689,-297"/>
<text text-anchor="middle" x="1275.4689" y="-304" font-family="Helvetica,sans-Serif" font-size="10.00" fill="#000000">CommonUtils/StringUtils.h</text>
</a>
</g>
</g>
<!-- Node32&#45;&gt;Node33 -->
<g id="edge52" class="edge">
<title>Node32&#45;&gt;Node33</title>
<path fill="none" stroke="#191970" d="M1252.2764,-358.2967C1256.6329,-348.5672 1262.3193,-335.8675 1266.9711,-325.4784"/>
<polygon fill="#191970" stroke="#191970" points="1270.2983,-326.6122 1271.1906,-316.055 1263.9095,-323.7515 1270.2983,-326.6122"/>
</g>
<!-- Node35 -->
<g id="node36" class="node">
<title>Node35</title>
<polygon fill="none" stroke="#bfbfbf" points="1366.9689,-297 1366.9689,-316 1439.9689,-316 1439.9689,-297 1366.9689,-297"/>
<text text-anchor="middle" x="1403.4689" y="-304" font-family="Helvetica,sans-Serif" font-size="10.00" fill="#000000">string_view</text>
</g>
<!-- Node32&#45;&gt;Node35 -->
<g id="edge54" class="edge">
<title>Node32&#45;&gt;Node35</title>
<path fill="none" stroke="#191970" d="M1280.9272,-358.4639C1308.0347,-346.969 1345.0888,-331.2561 1371.3345,-320.1266"/>
<polygon fill="#191970" stroke="#191970" points="1372.9808,-323.2302 1380.8209,-316.1039 1370.248,-316.7857 1372.9808,-323.2302"/>
</g>
<!-- Node34 -->
<g id="node35" class="node">
<title>Node34</title>
<polygon fill="none" stroke="#bfbfbf" points="1247.4689,-230 1247.4689,-249 1303.4689,-249 1303.4689,-230 1247.4689,-230"/>
<text text-anchor="middle" x="1275.4689" y="-237" font-family="Helvetica,sans-Serif" font-size="10.00" fill="#000000">sstream</text>
</g>
<!-- Node33&#45;&gt;Node34 -->
<g id="edge53" class="edge">
<title>Node33&#45;&gt;Node34</title>
<path fill="none" stroke="#191970" d="M1275.4689,-296.9005C1275.4689,-287.149 1275.4689,-271.7597 1275.4689,-259.3695"/>
<polygon fill="#191970" stroke="#191970" points="1278.969,-259.0816 1275.4689,-249.0817 1271.969,-259.0817 1278.969,-259.0816"/>
</g>
</g>
</svg>
