<?xml version="1.0" encoding="UTF-8" standalone="no"?>
<!DOCTYPE svg PUBLIC "-//W3C//DTD SVG 1.1//EN"
 "http://www.w3.org/Graphics/SVG/1.1/DTD/svg11.dtd">
<!-- Generated by graphviz version 2.40.1 (20161225.0304)
 -->
<!-- Title: o2::track::CircleCrossInfo Pages: 1 -->
<svg width="147pt" height="215pt"
 viewBox="0.00 0.00 147.00 215.00" xmlns="http://www.w3.org/2000/svg" xmlns:xlink="http://www.w3.org/1999/xlink">
<g id="graph0" class="graph" transform="scale(1 1) rotate(0) translate(4 211)">
<title>o2::track::CircleCrossInfo</title>
<!-- Node1 -->
<g id="node1" class="node">
<title>Node1</title>
<polygon fill="#bfbfbf" stroke="#000000" points="0,-.5 0,-90.5 139,-90.5 139,-.5 0,-.5"/>
<text text-anchor="middle" x="69.5" y="-78.5" font-family="Helvetica,sans-Serif" font-size="10.00" fill="#000000">o2::track::CircleCrossInfo</text>
<polyline fill="none" stroke="#000000" points="0,-71.5 139,-71.5 "/>
<text text-anchor="middle" x="69.5" y="-59.5" font-family="Helvetica,sans-Serif" font-size="10.00" fill="#000000"> </text>
<polyline fill="none" stroke="#000000" points="0,-52.5 139,-52.5 "/>
<text text-anchor="start" x="8" y="-40.5" font-family="Helvetica,sans-Serif" font-size="10.00" fill="#000000">+ CircleCrossInfo()</text>
<text text-anchor="start" x="8" y="-29.5" font-family="Helvetica,sans-Serif" font-size="10.00" fill="#000000">+ CircleCrossInfo()</text>
<text text-anchor="start" x="8" y="-18.5" font-family="Helvetica,sans-Serif" font-size="10.00" fill="#000000">+ set()</text>
<text text-anchor="start" x="8" y="-7.5" font-family="Helvetica,sans-Serif" font-size="10.00" fill="#000000">+ notTouchingXY()</text>
</g>
<!-- Node2 -->
<g id="node2" class="node">
<title>Node2</title>
<g id="a_node2"><a xlink:href="../../d4/dc3/classfloat.html" target="_top" xlink:title="{float\n||}">
<polygon fill="none" stroke="#000000" points="19.5,-149.5 19.5,-206.5 57.5,-206.5 57.5,-149.5 19.5,-149.5"/>
<text text-anchor="middle" x="38.5" y="-194.5" font-family="Helvetica,sans-Serif" font-size="10.00" fill="#000000">float</text>
<polyline fill="none" stroke="#000000" points="19.5,-187.5 57.5,-187.5 "/>
<text text-anchor="middle" x="38.5" y="-175.5" font-family="Helvetica,sans-Serif" font-size="10.00" fill="#000000"> </text>
<polyline fill="none" stroke="#000000" points="19.5,-168.5 57.5,-168.5 "/>
<text text-anchor="middle" x="38.5" y="-156.5" font-family="Helvetica,sans-Serif" font-size="10.00" fill="#000000"> </text>
</a>
</g>
</g>
<!-- Node2&#45;&gt;Node1 -->
<g id="edge1" class="edge">
<title>Node2&#45;&gt;Node1</title>
<path fill="none" stroke="#404040" d="M36.2153,-149.4722C35.8977,-136.912 36.4681,-122.071 39.5,-109 40.0269,-106.7285 40.6425,-104.4419 41.3306,-102.1553"/>
<polygon fill="none" stroke="#404040" points="41.3432,-102.1192 39.5456,-95.1357 45.3005,-90.7905 47.0981,-97.774 41.3432,-102.1192"/>
<text text-anchor="middle" x="59" y="-123" font-family="Helvetica,sans-Serif" font-size="10.00" fill="#000000"> +yDCA</text>
<text text-anchor="middle" x="59" y="-112" font-family="Helvetica,sans-Serif" font-size="10.00" fill="#000000">+xDCA</text>
</g>
<!-- Node3 -->
<g id="node3" class="node">
<title>Node3</title>
<polygon fill="none" stroke="#bfbfbf" points="86,-149.5 86,-206.5 115,-206.5 115,-149.5 86,-149.5"/>
<text text-anchor="middle" x="100.5" y="-194.5" font-family="Helvetica,sans-Serif" font-size="10.00" fill="#000000">int</text>
<polyline fill="none" stroke="#bfbfbf" points="86,-187.5 115,-187.5 "/>
<text text-anchor="middle" x="100.5" y="-175.5" font-family="Helvetica,sans-Serif" font-size="10.00" fill="#000000"> </text>
<polyline fill="none" stroke="#bfbfbf" points="86,-168.5 115,-168.5 "/>
<text text-anchor="middle" x="100.5" y="-156.5" font-family="Helvetica,sans-Serif" font-size="10.00" fill="#000000"> </text>
</g>
<!-- Node3&#45;&gt;Node1 -->
<g id="edge2" class="edge">
<title>Node3&#45;&gt;Node1</title>
<path fill="none" stroke="#404040" d="M93.7735,-149.2495C90.5807,-135.6028 86.6473,-118.791 82.8836,-102.7042"/>
<polygon fill="none" stroke="#404040" points="82.7875,-102.2928 77.5257,-97.3619 80.0537,-90.6084 85.3154,-95.5393 82.7875,-102.2928"/>
<text text-anchor="middle" x="108" y="-117.5" font-family="Helvetica,sans-Serif" font-size="10.00" fill="#000000"> +nDCA</text>
</g>
</g>
</svg>
