<?xml version="1.0" encoding="UTF-8" standalone="no"?>
<!DOCTYPE svg PUBLIC "-//W3C//DTD SVG 1.1//EN"
 "http://www.w3.org/Graphics/SVG/1.1/DTD/svg11.dtd">
<!-- Generated by graphviz version 2.40.1 (20161225.0304)
 -->
<!-- Title: /home/travis/build/AliceO2Group/AliceO2/Framework/Core/src/Expressions.cxx Pages: 1 -->
<svg width="1409pt" height="274pt"
 viewBox="0.00 0.00 1409.00 274.00" xmlns="http://www.w3.org/2000/svg" xmlns:xlink="http://www.w3.org/1999/xlink">
<g id="graph0" class="graph" transform="scale(1 1) rotate(0) translate(4 270)">
<title>/home/travis/build/AliceO2Group/AliceO2/Framework/Core/src/Expressions.cxx</title>
<!-- Node0 -->
<g id="node1" class="node">
<title>Node0</title>
<polygon fill="#bfbfbf" stroke="#000000" points="848,-224.5 848,-265.5 1046,-265.5 1046,-224.5 848,-224.5"/>
<text text-anchor="start" x="856" y="-253.5" font-family="Helvetica,sans-Serif" font-size="10.00" fill="#000000">/home/travis/build</text>
<text text-anchor="start" x="856" y="-242.5" font-family="Helvetica,sans-Serif" font-size="10.00" fill="#000000">/AliceO2Group/AliceO2</text>
<text text-anchor="middle" x="947" y="-231.5" font-family="Helvetica,sans-Serif" font-size="10.00" fill="#000000">/Framework/Core/src/Expressions.cxx</text>
</g>
<!-- Node1 -->
<g id="node2" class="node">
<title>Node1</title>
<g id="a_node2"><a xlink:href="../../d1/d83/ExpressionHelpers_8h.html" target="_top" xlink:title="../src/ExpressionHelpers.h">
<polygon fill="none" stroke="#000000" points="442.5,-168.5 442.5,-187.5 585.5,-187.5 585.5,-168.5 442.5,-168.5"/>
<text text-anchor="middle" x="514" y="-175.5" font-family="Helvetica,sans-Serif" font-size="10.00" fill="#000000">../src/ExpressionHelpers.h</text>
</a>
</g>
</g>
<!-- Node0&#45;&gt;Node1 -->
<g id="edge1" class="edge">
<title>Node0&#45;&gt;Node1</title>
<path fill="none" stroke="#191970" d="M847.9325,-229.6709C767.985,-217.3002 657.4036,-200.1895 585.789,-189.1082"/>
<polygon fill="#191970" stroke="#191970" points="585.9316,-185.5887 575.5139,-187.5183 584.8611,-192.5064 585.9316,-185.5887"/>
</g>
<!-- Node11 -->
<g id="node12" class="node">
<title>Node11</title>
<polygon fill="none" stroke="#bfbfbf" points="182.5,-56.5 182.5,-75.5 263.5,-75.5 263.5,-56.5 182.5,-56.5"/>
<text text-anchor="middle" x="223" y="-63.5" font-family="Helvetica,sans-Serif" font-size="10.00" fill="#000000">arrow/table.h</text>
</g>
<!-- Node0&#45;&gt;Node11 -->
<g id="edge24" class="edge">
<title>Node0&#45;&gt;Node11</title>
<path fill="none" stroke="#191970" d="M847.7989,-238.8425C720.8643,-230.1241 508.4916,-212.4748 434,-188 358.3984,-163.1605 280.0042,-108.977 243.7199,-81.9678"/>
<polygon fill="#191970" stroke="#191970" points="245.5225,-78.9437 235.4297,-75.721 241.3099,-84.5343 245.5225,-78.9437"/>
</g>
<!-- Node20 -->
<g id="node21" class="node">
<title>Node20</title>
<g id="a_node21"><a xlink:href="../../d7/dbe/VariantHelpers_8h.html" target="_top" xlink:title="Framework/VariantHelpers.h">
<polygon fill="none" stroke="#000000" points="117.5,-112.5 117.5,-131.5 272.5,-131.5 272.5,-112.5 117.5,-112.5"/>
<text text-anchor="middle" x="195" y="-119.5" font-family="Helvetica,sans-Serif" font-size="10.00" fill="#000000">Framework/VariantHelpers.h</text>
</a>
</g>
</g>
<!-- Node0&#45;&gt;Node20 -->
<g id="edge20" class="edge">
<title>Node0&#45;&gt;Node20</title>
<path fill="none" stroke="#191970" d="M847.8501,-241.6857C693.259,-235.5981 402.3179,-220.1931 304,-188 270.1515,-176.9167 235.766,-153.6696 214.9069,-137.9421"/>
<polygon fill="#191970" stroke="#191970" points="216.8929,-135.0539 206.8364,-131.7196 212.6187,-140.5975 216.8929,-135.0539"/>
</g>
<!-- Node21 -->
<g id="node22" class="node">
<title>Node21</title>
<g id="a_node22"><a xlink:href="../../dd/da4/Logger_8h.html" target="_top" xlink:title="Framework/Logger.h">
<polygon fill="none" stroke="#000000" points="603.5,-168.5 603.5,-187.5 718.5,-187.5 718.5,-168.5 603.5,-168.5"/>
<text text-anchor="middle" x="661" y="-175.5" font-family="Helvetica,sans-Serif" font-size="10.00" fill="#000000">Framework/Logger.h</text>
</a>
</g>
</g>
<!-- Node0&#45;&gt;Node21 -->
<g id="edge22" class="edge">
<title>Node0&#45;&gt;Node21</title>
<path fill="none" stroke="#191970" d="M859.2469,-224.4425C810.8076,-213.0948 752.3742,-199.4058 711.5439,-189.8407"/>
<polygon fill="#191970" stroke="#191970" points="712.0942,-186.3749 701.5594,-187.5017 710.4975,-193.1904 712.0942,-186.3749"/>
</g>
<!-- Node22 -->
<g id="node23" class="node">
<title>Node22</title>
<polygon fill="none" stroke="#bfbfbf" points="737,-168.5 737,-187.5 889,-187.5 889,-168.5 737,-168.5"/>
<text text-anchor="middle" x="813" y="-175.5" font-family="Helvetica,sans-Serif" font-size="10.00" fill="#000000">gandiva/tree_expr_builder.h</text>
</g>
<!-- Node0&#45;&gt;Node22 -->
<g id="edge23" class="edge">
<title>Node0&#45;&gt;Node22</title>
<path fill="none" stroke="#191970" d="M905.7022,-224.3511C884.8781,-213.9391 860.1497,-201.5748 841.4721,-192.2361"/>
<polygon fill="#191970" stroke="#191970" points="842.8188,-188.9963 832.3093,-187.6546 839.6883,-195.2573 842.8188,-188.9963"/>
</g>
<!-- Node23 -->
<g id="node24" class="node">
<title>Node23</title>
<polygon fill="none" stroke="#bfbfbf" points="907.5,-168.5 907.5,-187.5 986.5,-187.5 986.5,-168.5 907.5,-168.5"/>
<text text-anchor="middle" x="947" y="-175.5" font-family="Helvetica,sans-Serif" font-size="10.00" fill="#000000">fmt/format.h</text>
</g>
<!-- Node0&#45;&gt;Node23 -->
<g id="edge25" class="edge">
<title>Node0&#45;&gt;Node23</title>
<path fill="none" stroke="#191970" d="M947,-224.168C947,-215.8226 947,-206.2471 947,-197.9879"/>
<polygon fill="#191970" stroke="#191970" points="950.5001,-197.7804 947,-187.7805 943.5001,-197.7805 950.5001,-197.7804"/>
</g>
<!-- Node24 -->
<g id="node25" class="node">
<title>Node24</title>
<polygon fill="none" stroke="#bfbfbf" points="1004.5,-168.5 1004.5,-187.5 1047.5,-187.5 1047.5,-168.5 1004.5,-168.5"/>
<text text-anchor="middle" x="1026" y="-175.5" font-family="Helvetica,sans-Serif" font-size="10.00" fill="#000000">stack</text>
</g>
<!-- Node0&#45;&gt;Node24 -->
<g id="edge26" class="edge">
<title>Node0&#45;&gt;Node24</title>
<path fill="none" stroke="#191970" d="M971.563,-224.168C982.8569,-214.5897 996.0613,-203.3911 1006.6368,-194.422"/>
<polygon fill="#191970" stroke="#191970" points="1009.1051,-196.9179 1014.4678,-187.7805 1004.5774,-191.5793 1009.1051,-196.9179"/>
</g>
<!-- Node25 -->
<g id="node26" class="node">
<title>Node25</title>
<polygon fill="none" stroke="#bfbfbf" points="1066,-168.5 1066,-187.5 1126,-187.5 1126,-168.5 1066,-168.5"/>
<text text-anchor="middle" x="1096" y="-175.5" font-family="Helvetica,sans-Serif" font-size="10.00" fill="#000000">iostream</text>
</g>
<!-- Node0&#45;&gt;Node25 -->
<g id="edge27" class="edge">
<title>Node0&#45;&gt;Node25</title>
<path fill="none" stroke="#191970" d="M992.9207,-224.3511C1016.3945,-213.7958 1044.33,-201.2342 1065.1942,-191.8523"/>
<polygon fill="#191970" stroke="#191970" points="1066.8443,-194.9479 1074.5292,-187.6546 1063.9735,-188.5637 1066.8443,-194.9479"/>
</g>
<!-- Node26 -->
<g id="node27" class="node">
<title>Node26</title>
<polygon fill="none" stroke="#bfbfbf" points="1144.5,-168.5 1144.5,-187.5 1237.5,-187.5 1237.5,-168.5 1144.5,-168.5"/>
<text text-anchor="middle" x="1191" y="-175.5" font-family="Helvetica,sans-Serif" font-size="10.00" fill="#000000">unordered_map</text>
</g>
<!-- Node0&#45;&gt;Node26 -->
<g id="edge28" class="edge">
<title>Node0&#45;&gt;Node26</title>
<path fill="none" stroke="#191970" d="M1021.8663,-224.4425C1062.6668,-213.239 1111.7783,-199.7535 1146.5429,-190.2075"/>
<polygon fill="#191970" stroke="#191970" points="1147.6806,-193.5247 1156.3969,-187.5017 1145.827,-186.7746 1147.6806,-193.5247"/>
</g>
<!-- Node27 -->
<g id="node28" class="node">
<title>Node27</title>
<polygon fill="none" stroke="#bfbfbf" points="1256,-168.5 1256,-187.5 1288,-187.5 1288,-168.5 1256,-168.5"/>
<text text-anchor="middle" x="1272" y="-175.5" font-family="Helvetica,sans-Serif" font-size="10.00" fill="#000000">set</text>
</g>
<!-- Node0&#45;&gt;Node27 -->
<g id="edge29" class="edge">
<title>Node0&#45;&gt;Node27</title>
<path fill="none" stroke="#191970" d="M1046.0887,-231.0989C1102.5666,-222.014 1174.5986,-208.4708 1246.123,-187.8437"/>
<polygon fill="#191970" stroke="#191970" points="1247.14,-191.1929 1255.7524,-185.0222 1245.1717,-184.4753 1247.14,-191.1929"/>
</g>
<!-- Node28 -->
<g id="node29" class="node">
<title>Node28</title>
<polygon fill="none" stroke="#bfbfbf" points="1306,-168.5 1306,-187.5 1370,-187.5 1370,-168.5 1306,-168.5"/>
<text text-anchor="middle" x="1338" y="-175.5" font-family="Helvetica,sans-Serif" font-size="10.00" fill="#000000">algorithm</text>
</g>
<!-- Node0&#45;&gt;Node28 -->
<g id="edge30" class="edge">
<title>Node0&#45;&gt;Node28</title>
<path fill="none" stroke="#191970" d="M1046.1889,-230.9486C1113.9973,-220.8486 1206.0917,-206.1665 1296.0055,-188.088"/>
<polygon fill="#191970" stroke="#191970" points="1296.7185,-191.5147 1305.8241,-186.0983 1295.3282,-184.6541 1296.7185,-191.5147"/>
</g>
<!-- Node2 -->
<g id="node3" class="node">
<title>Node2</title>
<g id="a_node3"><a xlink:href="../../d0/d91/Expressions_8h.html" target="_top" xlink:title="Framework/Expressions.h">
<polygon fill="none" stroke="#000000" points="443.5,-112.5 443.5,-131.5 584.5,-131.5 584.5,-112.5 443.5,-112.5"/>
<text text-anchor="middle" x="514" y="-119.5" font-family="Helvetica,sans-Serif" font-size="10.00" fill="#000000">Framework/Expressions.h</text>
</a>
</g>
</g>
<!-- Node1&#45;&gt;Node2 -->
<g id="edge2" class="edge">
<title>Node1&#45;&gt;Node2</title>
<path fill="none" stroke="#191970" d="M514,-168.2455C514,-160.9382 514,-150.6944 514,-141.7046"/>
<polygon fill="#191970" stroke="#191970" points="517.5001,-141.6426 514,-131.6427 510.5001,-141.6427 517.5001,-141.6426"/>
</g>
<!-- Node18 -->
<g id="node19" class="node">
<title>Node18</title>
<polygon fill="none" stroke="#bfbfbf" points="602.5,-112.5 602.5,-131.5 649.5,-131.5 649.5,-112.5 602.5,-112.5"/>
<text text-anchor="middle" x="626" y="-119.5" font-family="Helvetica,sans-Serif" font-size="10.00" fill="#000000">vector</text>
</g>
<!-- Node1&#45;&gt;Node18 -->
<g id="edge18" class="edge">
<title>Node1&#45;&gt;Node18</title>
<path fill="none" stroke="#191970" d="M533.2535,-168.3733C551.0712,-159.4644 577.7747,-146.1127 597.9594,-136.0203"/>
<polygon fill="#191970" stroke="#191970" points="599.6187,-139.1038 606.9978,-131.5011 596.4882,-132.8428 599.6187,-139.1038"/>
</g>
<!-- Node19 -->
<g id="node20" class="node">
<title>Node19</title>
<polygon fill="none" stroke="#bfbfbf" points="667.5,-112.5 667.5,-131.5 716.5,-131.5 716.5,-112.5 667.5,-112.5"/>
<text text-anchor="middle" x="692" y="-119.5" font-family="Helvetica,sans-Serif" font-size="10.00" fill="#000000">iosfwd</text>
</g>
<!-- Node1&#45;&gt;Node19 -->
<g id="edge19" class="edge">
<title>Node1&#45;&gt;Node19</title>
<path fill="none" stroke="#191970" d="M544.5993,-168.3733C576.0377,-158.4825 624.8827,-143.1156 657.6321,-132.8124"/>
<polygon fill="#191970" stroke="#191970" points="658.7531,-136.1289 667.2418,-129.7891 656.6524,-129.4515 658.7531,-136.1289"/>
</g>
<!-- Node3 -->
<g id="node4" class="node">
<title>Node3</title>
<g id="a_node4"><a xlink:href="../../dd/dc2/BasicOps_8h.html" target="_top" xlink:title="Framework/BasicOps.h">
<polygon fill="none" stroke="#000000" points="596,-56.5 596,-75.5 724,-75.5 724,-56.5 596,-56.5"/>
<text text-anchor="middle" x="660" y="-63.5" font-family="Helvetica,sans-Serif" font-size="10.00" fill="#000000">Framework/BasicOps.h</text>
</a>
</g>
</g>
<!-- Node2&#45;&gt;Node3 -->
<g id="edge3" class="edge">
<title>Node2&#45;&gt;Node3</title>
<path fill="none" stroke="#191970" d="M539.0983,-112.3733C562.9555,-103.2226 599.0335,-89.3844 625.571,-79.2057"/>
<polygon fill="#191970" stroke="#191970" points="627.1459,-82.3503 635.2292,-75.5011 624.639,-75.8145 627.1459,-82.3503"/>
</g>
<!-- Node4 -->
<g id="node5" class="node">
<title>Node4</title>
<g id="a_node5"><a xlink:href="../../d9/de8/CompilerBuiltins_8h.html" target="_top" xlink:title="Framework/CompilerBuiltins.h">
<polygon fill="none" stroke="#000000" points="0,-56.5 0,-75.5 164,-75.5 164,-56.5 0,-56.5"/>
<text text-anchor="middle" x="82" y="-63.5" font-family="Helvetica,sans-Serif" font-size="10.00" fill="#000000">Framework/CompilerBuiltins.h</text>
</a>
</g>
</g>
<!-- Node2&#45;&gt;Node4 -->
<g id="edge4" class="edge">
<title>Node2&#45;&gt;Node4</title>
<path fill="none" stroke="#191970" d="M443.1477,-112.8154C367.0513,-102.9511 246.2215,-87.288 165.5455,-76.83"/>
<polygon fill="#191970" stroke="#191970" points="165.788,-73.3322 155.421,-75.5175 164.8881,-80.2741 165.788,-73.3322"/>
</g>
<!-- Node5 -->
<g id="node6" class="node">
<title>Node5</title>
<g id="a_node6"><a xlink:href="../../dd/dce/Pack_8h.html" target="_top" xlink:title="Framework/Pack.h">
<polygon fill="none" stroke="#000000" points="742.5,-56.5 742.5,-75.5 847.5,-75.5 847.5,-56.5 742.5,-56.5"/>
<text text-anchor="middle" x="795" y="-63.5" font-family="Helvetica,sans-Serif" font-size="10.00" fill="#000000">Framework/Pack.h</text>
</a>
</g>
</g>
<!-- Node2&#45;&gt;Node5 -->
<g id="edge5" class="edge">
<title>Node2&#45;&gt;Node5</title>
<path fill="none" stroke="#191970" d="M561.9863,-112.4369C610.4814,-102.7724 685.4473,-87.8326 737.1879,-77.5213"/>
<polygon fill="#191970" stroke="#191970" points="738.0885,-80.9107 747.2116,-75.5237 736.7203,-74.0457 738.0885,-80.9107"/>
</g>
<!-- Node9 -->
<g id="node10" class="node">
<title>Node9</title>
<g id="a_node10"><a xlink:href="../../d1/d00/CheckTypes_8h.html" target="_top" xlink:title="Framework/CheckTypes.h">
<polygon fill="none" stroke="#000000" points="866,-56.5 866,-75.5 1006,-75.5 1006,-56.5 866,-56.5"/>
<text text-anchor="middle" x="936" y="-63.5" font-family="Helvetica,sans-Serif" font-size="10.00" fill="#000000">Framework/CheckTypes.h</text>
</a>
</g>
</g>
<!-- Node2&#45;&gt;Node9 -->
<g id="edge9" class="edge">
<title>Node2&#45;&gt;Node9</title>
<path fill="none" stroke="#191970" d="M584.6333,-112.6269C659.4094,-102.704 777.23,-87.069 855.5385,-76.6774"/>
<polygon fill="#191970" stroke="#191970" points="856.3871,-80.0955 865.8397,-75.3104 855.4662,-73.1564 856.3871,-80.0955"/>
</g>
<!-- Node10 -->
<g id="node11" class="node">
<title>Node10</title>
<polygon fill="none" stroke="#bfbfbf" points="1024.5,-56.5 1024.5,-75.5 1125.5,-75.5 1125.5,-56.5 1024.5,-56.5"/>
<text text-anchor="middle" x="1075" y="-63.5" font-family="Helvetica,sans-Serif" font-size="10.00" fill="#000000">arrow/type_fwd.h</text>
</g>
<!-- Node2&#45;&gt;Node10 -->
<g id="edge10" class="edge">
<title>Node2&#45;&gt;Node10</title>
<path fill="none" stroke="#191970" d="M584.653,-113.0165C587.8107,-112.6629 590.9376,-112.3222 594,-112 777.4801,-92.6952 826.9492,-99.2137 1014.1219,-76.0159"/>
<polygon fill="#191970" stroke="#191970" points="1014.8148,-79.4566 1024.3027,-74.7418 1013.9455,-72.5108 1014.8148,-79.4566"/>
</g>
<!-- Node2&#45;&gt;Node11 -->
<g id="edge11" class="edge">
<title>Node2&#45;&gt;Node11</title>
<path fill="none" stroke="#191970" d="M462.504,-112.4195C415.6878,-103.6627 344.4239,-90.2163 273.6187,-76.3024"/>
<polygon fill="#191970" stroke="#191970" points="274.1213,-72.8342 263.6335,-74.3364 272.769,-79.7024 274.1213,-72.8342"/>
</g>
<!-- Node12 -->
<g id="node13" class="node">
<title>Node12</title>
<polygon fill="none" stroke="#bfbfbf" points="1143.5,-56.5 1143.5,-75.5 1290.5,-75.5 1290.5,-56.5 1143.5,-56.5"/>
<text text-anchor="middle" x="1217" y="-63.5" font-family="Helvetica,sans-Serif" font-size="10.00" fill="#000000">gandiva/selection_vector.h</text>
</g>
<!-- Node2&#45;&gt;Node12 -->
<g id="edge12" class="edge">
<title>Node2&#45;&gt;Node12</title>
<path fill="none" stroke="#191970" d="M584.6457,-112.9441C587.8054,-112.6101 590.9347,-112.2933 594,-112 830.6008,-89.3595 893.3784,-98.3391 1133.1882,-76.1278"/>
<polygon fill="#191970" stroke="#191970" points="1133.6326,-79.6016 1143.2635,-75.186 1132.9811,-72.632 1133.6326,-79.6016"/>
</g>
<!-- Node13 -->
<g id="node14" class="node">
<title>Node13</title>
<polygon fill="none" stroke="#bfbfbf" points="1309,-56.5 1309,-75.5 1401,-75.5 1401,-56.5 1309,-56.5"/>
<text text-anchor="middle" x="1355" y="-63.5" font-family="Helvetica,sans-Serif" font-size="10.00" fill="#000000">gandiva/node.h</text>
</g>
<!-- Node2&#45;&gt;Node13 -->
<g id="edge13" class="edge">
<title>Node2&#45;&gt;Node13</title>
<path fill="none" stroke="#191970" d="M584.6403,-112.8845C587.8014,-112.5666 590.9325,-112.2696 594,-112 903.6172,-84.792 986.1389,-111.5884 1298.5905,-76.0174"/>
<polygon fill="#191970" stroke="#191970" points="1299.3169,-79.457 1308.851,-74.8364 1298.5164,-72.5029 1299.3169,-79.457"/>
</g>
<!-- Node14 -->
<g id="node15" class="node">
<title>Node14</title>
<polygon fill="none" stroke="#bfbfbf" points="281.5,-56.5 281.5,-75.5 370.5,-75.5 370.5,-56.5 281.5,-56.5"/>
<text text-anchor="middle" x="326" y="-63.5" font-family="Helvetica,sans-Serif" font-size="10.00" fill="#000000">gandiva/filter.h</text>
</g>
<!-- Node2&#45;&gt;Node14 -->
<g id="edge14" class="edge">
<title>Node2&#45;&gt;Node14</title>
<path fill="none" stroke="#191970" d="M481.6816,-112.3733C450.1494,-102.9807 402.0379,-88.6496 367.6499,-78.4064"/>
<polygon fill="#191970" stroke="#191970" points="368.4797,-75.0016 357.8966,-75.5011 366.4813,-81.7103 368.4797,-75.0016"/>
</g>
<!-- Node15 -->
<g id="node16" class="node">
<title>Node15</title>
<polygon fill="none" stroke="#bfbfbf" points="388.5,-56.5 388.5,-75.5 439.5,-75.5 439.5,-56.5 388.5,-56.5"/>
<text text-anchor="middle" x="414" y="-63.5" font-family="Helvetica,sans-Serif" font-size="10.00" fill="#000000">variant</text>
</g>
<!-- Node2&#45;&gt;Node15 -->
<g id="edge15" class="edge">
<title>Node2&#45;&gt;Node15</title>
<path fill="none" stroke="#191970" d="M496.5813,-112.2455C480.9515,-103.4928 457.7981,-90.527 439.9815,-80.5496"/>
<polygon fill="#191970" stroke="#191970" points="441.6543,-77.475 431.2191,-75.6427 438.234,-83.5825 441.6543,-77.475"/>
</g>
<!-- Node16 -->
<g id="node17" class="node">
<title>Node16</title>
<polygon fill="none" stroke="#bfbfbf" points="458,-56.5 458,-75.5 502,-75.5 502,-56.5 458,-56.5"/>
<text text-anchor="middle" x="480" y="-63.5" font-family="Helvetica,sans-Serif" font-size="10.00" fill="#000000">string</text>
</g>
<!-- Node2&#45;&gt;Node16 -->
<g id="edge16" class="edge">
<title>Node2&#45;&gt;Node16</title>
<path fill="none" stroke="#191970" d="M508.0777,-112.2455C503.3973,-104.5367 496.7327,-93.5598 491.0711,-84.2348"/>
<polygon fill="#191970" stroke="#191970" points="494.0361,-82.3741 485.8545,-75.6427 488.0525,-86.007 494.0361,-82.3741"/>
</g>
<!-- Node17 -->
<g id="node18" class="node">
<title>Node17</title>
<polygon fill="none" stroke="#bfbfbf" points="520,-56.5 520,-75.5 578,-75.5 578,-56.5 520,-56.5"/>
<text text-anchor="middle" x="549" y="-63.5" font-family="Helvetica,sans-Serif" font-size="10.00" fill="#000000">memory</text>
</g>
<!-- Node2&#45;&gt;Node17 -->
<g id="edge17" class="edge">
<title>Node2&#45;&gt;Node17</title>
<path fill="none" stroke="#191970" d="M520.0965,-112.2455C524.9145,-104.5367 531.7751,-93.5598 537.6032,-84.2348"/>
<polygon fill="#191970" stroke="#191970" points="540.6413,-85.9777 542.9733,-75.6427 534.7053,-82.2677 540.6413,-85.9777"/>
</g>
<!-- Node6 -->
<g id="node7" class="node">
<title>Node6</title>
<polygon fill="none" stroke="#bfbfbf" points="701.5,-.5 701.5,-19.5 754.5,-19.5 754.5,-.5 701.5,-.5"/>
<text text-anchor="middle" x="728" y="-7.5" font-family="Helvetica,sans-Serif" font-size="10.00" fill="#000000">cstddef</text>
</g>
<!-- Node5&#45;&gt;Node6 -->
<g id="edge6" class="edge">
<title>Node5&#45;&gt;Node6</title>
<path fill="none" stroke="#191970" d="M783.3295,-56.2455C773.4339,-47.9746 759.0373,-35.9416 747.4099,-26.2232"/>
<polygon fill="#191970" stroke="#191970" points="749.4542,-23.3703 739.5368,-19.6427 744.965,-28.7413 749.4542,-23.3703"/>
</g>
<!-- Node7 -->
<g id="node8" class="node">
<title>Node7</title>
<polygon fill="none" stroke="#bfbfbf" points="772.5,-.5 772.5,-19.5 817.5,-19.5 817.5,-.5 772.5,-.5"/>
<text text-anchor="middle" x="795" y="-7.5" font-family="Helvetica,sans-Serif" font-size="10.00" fill="#000000">utility</text>
</g>
<!-- Node5&#45;&gt;Node7 -->
<g id="edge7" class="edge">
<title>Node5&#45;&gt;Node7</title>
<path fill="none" stroke="#191970" d="M795,-56.2455C795,-48.9382 795,-38.6944 795,-29.7046"/>
<polygon fill="#191970" stroke="#191970" points="798.5001,-29.6426 795,-19.6427 791.5001,-29.6427 798.5001,-29.6426"/>
</g>
<!-- Node8 -->
<g id="node9" class="node">
<title>Node8</title>
<polygon fill="none" stroke="#bfbfbf" points="836,-.5 836,-19.5 882,-19.5 882,-.5 836,-.5"/>
<text text-anchor="middle" x="859" y="-7.5" font-family="Helvetica,sans-Serif" font-size="10.00" fill="#000000">cstdio</text>
</g>
<!-- Node5&#45;&gt;Node8 -->
<g id="edge8" class="edge">
<title>Node5&#45;&gt;Node8</title>
<path fill="none" stroke="#191970" d="M806.1479,-56.2455C815.5087,-48.0549 829.0858,-36.1749 840.1349,-26.5069"/>
<polygon fill="#191970" stroke="#191970" points="842.7588,-28.8618 847.9798,-19.6427 838.1492,-23.5937 842.7588,-28.8618"/>
</g>
<!-- Node20&#45;&gt;Node4 -->
<g id="edge21" class="edge">
<title>Node20&#45;&gt;Node4</title>
<path fill="none" stroke="#191970" d="M175.5746,-112.3733C157.5979,-103.4644 130.6559,-90.1127 110.291,-80.0203"/>
<polygon fill="#191970" stroke="#191970" points="111.6861,-76.8055 101.1719,-75.5011 108.5778,-83.0776 111.6861,-76.8055"/>
</g>
</g>
</svg>
