<?xml version="1.0" encoding="UTF-8" standalone="no"?>
<!DOCTYPE svg PUBLIC "-//W3C//DTD SVG 1.1//EN"
 "http://www.w3.org/Graphics/SVG/1.1/DTD/svg11.dtd">
<!-- Generated by graphviz version 2.40.1 (20161225.0304)
 -->
<!-- Title: /home/travis/build/AliceO2Group/AliceO2/GPU/TPCFastTransformation/devtools/IrregularSpline2D3D.h Pages: 1 -->
<svg width="849pt" height="285pt"
 viewBox="0.00 0.00 849.00 285.00" xmlns="http://www.w3.org/2000/svg" xmlns:xlink="http://www.w3.org/1999/xlink">
<g id="graph0" class="graph" transform="scale(1 1) rotate(0) translate(4 281)">
<title>/home/travis/build/AliceO2Group/AliceO2/GPU/TPCFastTransformation/devtools/IrregularSpline2D3D.h</title>
<!-- Node0 -->
<g id="node1" class="node">
<title>Node0</title>
<polygon fill="#bfbfbf" stroke="#000000" points="227,-224.5 227,-276.5 399,-276.5 399,-224.5 227,-224.5"/>
<text text-anchor="start" x="235" y="-264.5" font-family="Helvetica,sans-Serif" font-size="10.00" fill="#000000">/home/travis/build</text>
<text text-anchor="start" x="235" y="-253.5" font-family="Helvetica,sans-Serif" font-size="10.00" fill="#000000">/AliceO2Group/AliceO2</text>
<text text-anchor="start" x="235" y="-242.5" font-family="Helvetica,sans-Serif" font-size="10.00" fill="#000000">/GPU/TPCFastTransformation</text>
<text text-anchor="middle" x="313" y="-231.5" font-family="Helvetica,sans-Serif" font-size="10.00" fill="#000000">/devtools/IrregularSpline2D3D.h</text>
</g>
<!-- Node1 -->
<g id="node2" class="node">
<title>Node1</title>
<g id="a_node2"><a xlink:href="../../d4/de4/IrregularSpline1D_8h.html" target="_top" xlink:title="Definition of IrregularSpline1D class. ">
<polygon fill="none" stroke="#000000" points="258,-168.5 258,-187.5 368,-187.5 368,-168.5 258,-168.5"/>
<text text-anchor="middle" x="313" y="-175.5" font-family="Helvetica,sans-Serif" font-size="10.00" fill="#000000">IrregularSpline1D.h</text>
</a>
</g>
</g>
<!-- Node0&#45;&gt;Node1 -->
<g id="edge1" class="edge">
<title>Node0&#45;&gt;Node1</title>
<path fill="none" stroke="#191970" d="M313,-224.3258C313,-215.5142 313,-205.8397 313,-197.621"/>
<polygon fill="#191970" stroke="#191970" points="316.5001,-197.534 313,-187.534 309.5001,-197.534 316.5001,-197.534"/>
</g>
<!-- Node2 -->
<g id="node3" class="node">
<title>Node2</title>
<g id="a_node3"><a xlink:href="../../df/d21/GPUCommonDef_8h.html" target="_top" xlink:title="GPUCommonDef.h">
<polygon fill="none" stroke="#000000" points="97.5,-56.5 97.5,-75.5 204.5,-75.5 204.5,-56.5 97.5,-56.5"/>
<text text-anchor="middle" x="151" y="-63.5" font-family="Helvetica,sans-Serif" font-size="10.00" fill="#000000">GPUCommonDef.h</text>
</a>
</g>
</g>
<!-- Node0&#45;&gt;Node2 -->
<g id="edge21" class="edge">
<title>Node0&#45;&gt;Node2</title>
<path fill="none" stroke="#191970" d="M284.8638,-224.4389C273.4244,-213.4845 260.2725,-200.4202 249,-188 216.9434,-152.6797 182.7626,-108.4234 164.4491,-84.101"/>
<polygon fill="#191970" stroke="#191970" points="167.0403,-81.7221 158.2447,-75.8155 161.4371,-85.9179 167.0403,-81.7221"/>
</g>
<!-- Node5 -->
<g id="node6" class="node">
<title>Node5</title>
<g id="a_node6"><a xlink:href="../../db/dff/FlatObject_8h.html" target="_top" xlink:title="Definition of FlatObject class. ">
<polygon fill="none" stroke="#000000" points="358.5,-112.5 358.5,-131.5 433.5,-131.5 433.5,-112.5 358.5,-112.5"/>
<text text-anchor="middle" x="396" y="-119.5" font-family="Helvetica,sans-Serif" font-size="10.00" fill="#000000">FlatObject.h</text>
</a>
</g>
</g>
<!-- Node0&#45;&gt;Node5 -->
<g id="edge20" class="edge">
<title>Node0&#45;&gt;Node5</title>
<path fill="none" stroke="#191970" d="M346.1237,-224.316C357.2923,-214.0321 368.9519,-201.4636 377,-188 385.5077,-173.7676 390.3789,-155.5224 393.054,-141.8236"/>
<polygon fill="#191970" stroke="#191970" points="396.5711,-142.0224 394.8161,-131.5739 389.6723,-140.8363 396.5711,-142.0224"/>
</g>
<!-- Node1&#45;&gt;Node2 -->
<g id="edge2" class="edge">
<title>Node1&#45;&gt;Node2</title>
<path fill="none" stroke="#191970" d="M299.188,-168.4509C271.0923,-149.0268 207.0785,-104.7703 173.1152,-81.2895"/>
<polygon fill="#191970" stroke="#191970" points="174.9931,-78.3328 164.7771,-75.5249 171.0123,-84.0907 174.9931,-78.3328"/>
</g>
<!-- Node1&#45;&gt;Node5 -->
<g id="edge5" class="edge">
<title>Node1&#45;&gt;Node5</title>
<path fill="none" stroke="#191970" d="M327.4575,-168.2455C340.0732,-159.7337 358.5944,-147.2375 373.2045,-137.3801"/>
<polygon fill="#191970" stroke="#191970" points="375.3761,-140.1371 381.7082,-131.6427 371.4609,-134.3343 375.3761,-140.1371"/>
</g>
<!-- Node6 -->
<g id="node7" class="node">
<title>Node6</title>
<polygon fill="none" stroke="#bfbfbf" points="222.5,-56.5 222.5,-75.5 275.5,-75.5 275.5,-56.5 222.5,-56.5"/>
<text text-anchor="middle" x="249" y="-63.5" font-family="Helvetica,sans-Serif" font-size="10.00" fill="#000000">cstddef</text>
</g>
<!-- Node1&#45;&gt;Node6 -->
<g id="edge17" class="edge">
<title>Node1&#45;&gt;Node6</title>
<path fill="none" stroke="#191970" d="M307.5434,-168.4509C296.9162,-149.8533 273.2811,-108.4919 259.5122,-84.3964"/>
<polygon fill="#191970" stroke="#191970" points="262.4431,-82.4708 254.4428,-75.5249 256.3654,-85.9438 262.4431,-82.4708"/>
</g>
<!-- Node7 -->
<g id="node8" class="node">
<title>Node7</title>
<polygon fill="none" stroke="#bfbfbf" points="294,-56.5 294,-75.5 352,-75.5 352,-56.5 294,-56.5"/>
<text text-anchor="middle" x="323" y="-63.5" font-family="Helvetica,sans-Serif" font-size="10.00" fill="#000000">memory</text>
</g>
<!-- Node1&#45;&gt;Node7 -->
<g id="edge18" class="edge">
<title>Node1&#45;&gt;Node7</title>
<path fill="none" stroke="#191970" d="M313.8526,-168.4509C315.4836,-150.184 319.0754,-109.9553 321.2413,-85.6976"/>
<polygon fill="#191970" stroke="#191970" points="324.7463,-85.7966 322.1496,-75.5249 317.774,-85.174 324.7463,-85.7966"/>
</g>
<!-- Node8 -->
<g id="node9" class="node">
<title>Node8</title>
<polygon fill="none" stroke="#bfbfbf" points="791,-56.5 791,-75.5 841,-75.5 841,-56.5 791,-56.5"/>
<text text-anchor="middle" x="816" y="-63.5" font-family="Helvetica,sans-Serif" font-size="10.00" fill="#000000">cstring</text>
</g>
<!-- Node1&#45;&gt;Node8 -->
<g id="edge19" class="edge">
<title>Node1&#45;&gt;Node8</title>
<path fill="none" stroke="#191970" d="M362.5661,-168.4399C446.6707,-151.9522 622.8034,-116.2746 780.8992,-76.1552"/>
<polygon fill="#191970" stroke="#191970" points="781.9795,-79.4918 790.8047,-73.6295 780.25,-72.7088 781.9795,-79.4918"/>
</g>
<!-- Node3 -->
<g id="node4" class="node">
<title>Node3</title>
<g id="a_node4"><a xlink:href="../../d5/d93/GPUCommonDefSettings_8h.html" target="_top" xlink:title="GPUCommonDefSettings.h">
<polygon fill="none" stroke="#000000" points="0,-.5 0,-19.5 148,-19.5 148,-.5 0,-.5"/>
<text text-anchor="middle" x="74" y="-7.5" font-family="Helvetica,sans-Serif" font-size="10.00" fill="#000000">GPUCommonDefSettings.h</text>
</a>
</g>
</g>
<!-- Node2&#45;&gt;Node3 -->
<g id="edge3" class="edge">
<title>Node2&#45;&gt;Node3</title>
<path fill="none" stroke="#191970" d="M137.5876,-56.2455C125.9943,-47.814 109.0252,-35.4729 95.5322,-25.6598"/>
<polygon fill="#191970" stroke="#191970" points="97.4047,-22.6938 87.2587,-19.6427 93.2874,-28.355 97.4047,-22.6938"/>
</g>
<!-- Node4 -->
<g id="node5" class="node">
<title>Node4</title>
<g id="a_node5"><a xlink:href="../../da/d5a/GPUCommonDefAPI_8h.html" target="_top" xlink:title="GPUCommonDefAPI.h">
<polygon fill="none" stroke="#000000" points="166,-.5 166,-19.5 290,-19.5 290,-.5 166,-.5"/>
<text text-anchor="middle" x="228" y="-7.5" font-family="Helvetica,sans-Serif" font-size="10.00" fill="#000000">GPUCommonDefAPI.h</text>
</a>
</g>
</g>
<!-- Node2&#45;&gt;Node4 -->
<g id="edge4" class="edge">
<title>Node2&#45;&gt;Node4</title>
<path fill="none" stroke="#191970" d="M164.4124,-56.2455C176.0057,-47.814 192.9748,-35.4729 206.4678,-25.6598"/>
<polygon fill="#191970" stroke="#191970" points="208.7126,-28.355 214.7413,-19.6427 204.5953,-22.6938 208.7126,-28.355"/>
</g>
<!-- Node5&#45;&gt;Node2 -->
<g id="edge11" class="edge">
<title>Node5&#45;&gt;Node2</title>
<path fill="none" stroke="#191970" d="M358.2557,-113.3727C316.6134,-103.8545 249.3415,-88.4781 202.7886,-77.8374"/>
<polygon fill="#191970" stroke="#191970" points="203.4225,-74.3921 192.894,-75.5758 201.8627,-81.2161 203.4225,-74.3921"/>
</g>
<!-- Node5&#45;&gt;Node6 -->
<g id="edge6" class="edge">
<title>Node5&#45;&gt;Node6</title>
<path fill="none" stroke="#191970" d="M370.7298,-112.3733C346.6034,-103.1822 310.0638,-89.2624 283.3123,-79.0713"/>
<polygon fill="#191970" stroke="#191970" points="284.5313,-75.7904 273.9404,-75.5011 282.0393,-82.3318 284.5313,-75.7904"/>
</g>
<!-- Node5&#45;&gt;Node7 -->
<g id="edge7" class="edge">
<title>Node5&#45;&gt;Node7</title>
<path fill="none" stroke="#191970" d="M383.2844,-112.2455C372.398,-103.8943 356.5117,-91.7076 343.78,-81.9408"/>
<polygon fill="#191970" stroke="#191970" points="345.6346,-78.9523 335.5699,-75.6427 341.3739,-84.5063 345.6346,-78.9523"/>
</g>
<!-- Node5&#45;&gt;Node8 -->
<g id="edge8" class="edge">
<title>Node5&#45;&gt;Node8</title>
<path fill="none" stroke="#191970" d="M433.5958,-119.6192C501.3133,-114.8789 648.32,-102.5264 780.9395,-75.9257"/>
<polygon fill="#191970" stroke="#191970" points="781.7681,-79.3288 790.8674,-73.9018 780.3698,-72.4699 781.7681,-79.3288"/>
</g>
<!-- Node9 -->
<g id="node10" class="node">
<title>Node9</title>
<polygon fill="none" stroke="#bfbfbf" points="370,-56.5 370,-75.5 422,-75.5 422,-56.5 370,-56.5"/>
<text text-anchor="middle" x="396" y="-63.5" font-family="Helvetica,sans-Serif" font-size="10.00" fill="#000000">cassert</text>
</g>
<!-- Node5&#45;&gt;Node9 -->
<g id="edge9" class="edge">
<title>Node5&#45;&gt;Node9</title>
<path fill="none" stroke="#191970" d="M396,-112.2455C396,-104.9382 396,-94.6944 396,-85.7046"/>
<polygon fill="#191970" stroke="#191970" points="399.5001,-85.6426 396,-75.6427 392.5001,-85.6427 399.5001,-85.6426"/>
</g>
<!-- Node10 -->
<g id="node11" class="node">
<title>Node10</title>
<polygon fill="none" stroke="#bfbfbf" points="440,-56.5 440,-75.5 488,-75.5 488,-56.5 440,-56.5"/>
<text text-anchor="middle" x="464" y="-63.5" font-family="Helvetica,sans-Serif" font-size="10.00" fill="#000000">TFile.h</text>
</g>
<!-- Node5&#45;&gt;Node10 -->
<g id="edge10" class="edge">
<title>Node5&#45;&gt;Node10</title>
<path fill="none" stroke="#191970" d="M407.8447,-112.2455C417.888,-103.9746 432.4995,-91.9416 444.3004,-82.2232"/>
<polygon fill="#191970" stroke="#191970" points="446.7967,-84.7015 452.291,-75.6427 442.3467,-79.298 446.7967,-84.7015"/>
</g>
<!-- Node11 -->
<g id="node12" class="node">
<title>Node11</title>
<g id="a_node12"><a xlink:href="../../d2/d45/GPUCommonRtypes_8h.html" target="_top" xlink:title="GPUCommonRtypes.h">
<polygon fill="none" stroke="#000000" points="506.5,-56.5 506.5,-75.5 631.5,-75.5 631.5,-56.5 506.5,-56.5"/>
<text text-anchor="middle" x="569" y="-63.5" font-family="Helvetica,sans-Serif" font-size="10.00" fill="#000000">GPUCommonRtypes.h</text>
</a>
</g>
</g>
<!-- Node5&#45;&gt;Node11 -->
<g id="edge12" class="edge">
<title>Node5&#45;&gt;Node11</title>
<path fill="none" stroke="#191970" d="M425.7398,-112.3733C454.507,-103.0613 498.27,-88.8953 529.8556,-78.671"/>
<polygon fill="#191970" stroke="#191970" points="531.2122,-81.9107 539.6483,-75.5011 529.0564,-75.251 531.2122,-81.9107"/>
</g>
<!-- Node13 -->
<g id="node14" class="node">
<title>Node13</title>
<g id="a_node14"><a xlink:href="../../df/d5b/GPUCommonLogger_8h.html" target="_top" xlink:title="GPUCommonLogger.h">
<polygon fill="none" stroke="#000000" points="649.5,-56.5 649.5,-75.5 772.5,-75.5 772.5,-56.5 649.5,-56.5"/>
<text text-anchor="middle" x="711" y="-63.5" font-family="Helvetica,sans-Serif" font-size="10.00" fill="#000000">GPUCommonLogger.h</text>
</a>
</g>
</g>
<!-- Node5&#45;&gt;Node13 -->
<g id="edge14" class="edge">
<title>Node5&#45;&gt;Node13</title>
<path fill="none" stroke="#191970" d="M433.6835,-115.3007C486.542,-105.9036 583.4018,-88.6841 647.5023,-77.2885"/>
<polygon fill="#191970" stroke="#191970" points="648.264,-80.708 657.497,-75.5117 647.0387,-73.8161 648.264,-80.708"/>
</g>
<!-- Node12 -->
<g id="node13" class="node">
<title>Node12</title>
<polygon fill="none" stroke="#bfbfbf" points="539.5,-.5 539.5,-19.5 598.5,-19.5 598.5,-.5 539.5,-.5"/>
<text text-anchor="middle" x="569" y="-7.5" font-family="Helvetica,sans-Serif" font-size="10.00" fill="#000000">Rtypes.h</text>
</g>
<!-- Node11&#45;&gt;Node12 -->
<g id="edge13" class="edge">
<title>Node11&#45;&gt;Node12</title>
<path fill="none" stroke="#191970" d="M569,-56.2455C569,-48.9382 569,-38.6944 569,-29.7046"/>
<polygon fill="#191970" stroke="#191970" points="572.5001,-29.6426 569,-19.6427 565.5001,-29.6427 572.5001,-29.6426"/>
</g>
<!-- Node14 -->
<g id="node15" class="node">
<title>Node14</title>
<polygon fill="none" stroke="#bfbfbf" points="649,-.5 649,-19.5 709,-19.5 709,-.5 649,-.5"/>
<text text-anchor="middle" x="679" y="-7.5" font-family="Helvetica,sans-Serif" font-size="10.00" fill="#000000">iostream</text>
</g>
<!-- Node13&#45;&gt;Node14 -->
<g id="edge15" class="edge">
<title>Node13&#45;&gt;Node14</title>
<path fill="none" stroke="#191970" d="M705.426,-56.2455C701.0669,-48.617 694.8789,-37.7881 689.5867,-28.5267"/>
<polygon fill="#191970" stroke="#191970" points="692.5104,-26.5886 684.5101,-19.6427 686.4327,-30.0616 692.5104,-26.5886"/>
</g>
<!-- Node15 -->
<g id="node16" class="node">
<title>Node15</title>
<polygon fill="none" stroke="#bfbfbf" points="727,-.5 727,-19.5 773,-19.5 773,-.5 727,-.5"/>
<text text-anchor="middle" x="750" y="-7.5" font-family="Helvetica,sans-Serif" font-size="10.00" fill="#000000">cstdio</text>
</g>
<!-- Node13&#45;&gt;Node15 -->
<g id="edge16" class="edge">
<title>Node13&#45;&gt;Node15</title>
<path fill="none" stroke="#191970" d="M717.7933,-56.2455C723.2178,-48.4564 730.9661,-37.3308 737.5033,-27.9439"/>
<polygon fill="#191970" stroke="#191970" points="740.4417,-29.849 743.2846,-19.6427 734.6975,-25.8485 740.4417,-29.849"/>
</g>
</g>
</svg>
