<?xml version="1.0" encoding="UTF-8" standalone="no"?>
<!DOCTYPE svg PUBLIC "-//W3C//DTD SVG 1.1//EN"
 "http://www.w3.org/Graphics/SVG/1.1/DTD/svg11.dtd">
<!-- Generated by graphviz version 2.40.1 (20161225.0304)
 -->
<!-- Title: /home/travis/build/AliceO2Group/AliceO2/GPU/GPUTracking/Standalone/qconfigoptions.h Pages: 1 -->
<svg width="2850pt" height="417pt"
 viewBox="0.00 0.00 2850.00 417.00" xmlns="http://www.w3.org/2000/svg" xmlns:xlink="http://www.w3.org/1999/xlink">
<g id="graph0" class="graph" transform="scale(1 1) rotate(0) translate(4 413)">
<title>/home/travis/build/AliceO2Group/AliceO2/GPU/GPUTracking/Standalone/qconfigoptions.h</title>
<!-- Node1 -->
<g id="node1" class="node">
<title>Node1</title>
<polygon fill="#bfbfbf" stroke="#000000" points="2168,-356.5 2168,-408.5 2331,-408.5 2331,-356.5 2168,-356.5"/>
<text text-anchor="start" x="2176" y="-396.5" font-family="Helvetica,sans-Serif" font-size="10.00" fill="#000000">/home/travis/build</text>
<text text-anchor="start" x="2176" y="-385.5" font-family="Helvetica,sans-Serif" font-size="10.00" fill="#000000">/AliceO2Group/AliceO2</text>
<text text-anchor="start" x="2176" y="-374.5" font-family="Helvetica,sans-Serif" font-size="10.00" fill="#000000">/GPU/GPUTracking/Standalone</text>
<text text-anchor="middle" x="2249.5" y="-363.5" font-family="Helvetica,sans-Serif" font-size="10.00" fill="#000000">/qconfigoptions.h</text>
</g>
<!-- Node2 -->
<g id="node2" class="node">
<title>Node2</title>
<g id="a_node2"><a xlink:href="../../da/d08/qconfig_8h.html" target="_top" xlink:title="/home/travis/build\l/AliceO2Group/AliceO2\l/GPU/GPUTracking/Standalone\l/utils/qconfig.h">
<polygon fill="none" stroke="#000000" points="2168,-267.5 2168,-319.5 2331,-319.5 2331,-267.5 2168,-267.5"/>
<text text-anchor="start" x="2176" y="-307.5" font-family="Helvetica,sans-Serif" font-size="10.00" fill="#000000">/home/travis/build</text>
<text text-anchor="start" x="2176" y="-296.5" font-family="Helvetica,sans-Serif" font-size="10.00" fill="#000000">/AliceO2Group/AliceO2</text>
<text text-anchor="start" x="2176" y="-285.5" font-family="Helvetica,sans-Serif" font-size="10.00" fill="#000000">/GPU/GPUTracking/Standalone</text>
<text text-anchor="middle" x="2249.5" y="-274.5" font-family="Helvetica,sans-Serif" font-size="10.00" fill="#000000">/utils/qconfig.h</text>
</a>
</g>
</g>
<!-- Node1&#45;&gt;Node2 -->
<g id="edge1" class="edge">
<title>Node1&#45;&gt;Node2</title>
<path fill="none" stroke="#191970" d="M2249.5,-346.1155C2249.5,-337.2061 2249.5,-327.8475 2249.5,-319.5341"/>
<polygon fill="#191970" stroke="#191970" points="2246.0001,-346.2784 2249.5,-356.2784 2253.0001,-346.2785 2246.0001,-346.2784"/>
</g>
<!-- Node2&#45;&gt;Node2 -->
<g id="edge20" class="edge">
<title>Node2&#45;&gt;Node2</title>
<path fill="none" stroke="#191970" d="M2340.7662,-304.6516C2345.9243,-301.9545 2349,-298.2373 2349,-293.5 2349,-286.2813 2341.8582,-281.4312 2331.0896,-278.9497"/>
<polygon fill="#191970" stroke="#191970" points="2339.3647,-301.4342 2331.0896,-308.0503 2341.6844,-308.0387 2339.3647,-301.4342"/>
</g>
<!-- Node3 -->
<g id="node3" class="node">
<title>Node3</title>
<g id="a_node3"><a xlink:href="../../d7/d36/GPUReconstructionTimeframe_8cxx.html" target="_top" xlink:title="/home/travis/build\l/AliceO2Group/AliceO2\l/GPU/GPUTracking/Base\l/GPUReconstructionTimeframe.cxx">
<polygon fill="none" stroke="#000000" points="833,-.5 833,-52.5 1020,-52.5 1020,-.5 833,-.5"/>
<text text-anchor="start" x="841" y="-40.5" font-family="Helvetica,sans-Serif" font-size="10.00" fill="#000000">/home/travis/build</text>
<text text-anchor="start" x="841" y="-29.5" font-family="Helvetica,sans-Serif" font-size="10.00" fill="#000000">/AliceO2Group/AliceO2</text>
<text text-anchor="start" x="841" y="-18.5" font-family="Helvetica,sans-Serif" font-size="10.00" fill="#000000">/GPU/GPUTracking/Base</text>
<text text-anchor="middle" x="926.5" y="-7.5" font-family="Helvetica,sans-Serif" font-size="10.00" fill="#000000">/GPUReconstructionTimeframe.cxx</text>
</a>
</g>
</g>
<!-- Node2&#45;&gt;Node3 -->
<g id="edge2" class="edge">
<title>Node2&#45;&gt;Node3</title>
<path fill="none" stroke="#191970" d="M2157.7749,-288.4208C1990.3175,-278.682 1641.384,-256.1089 1522.5,-231 1320.476,-188.3315 1092.362,-97.4125 986.4545,-52.5889"/>
<polygon fill="#191970" stroke="#191970" points="2157.6214,-291.9176 2167.8069,-289.0014 2158.0259,-284.9293 2157.6214,-291.9176"/>
</g>
<!-- Node4 -->
<g id="node4" class="node">
<title>Node4</title>
<g id="a_node4"><a xlink:href="../../d4/d50/GPUDisplayConfig_8h.html" target="_top" xlink:title="/home/travis/build\l/AliceO2Group/AliceO2\l/GPU/GPUTracking/Standalone\l/display/GPUDisplayConfig.h">
<polygon fill="none" stroke="#000000" points="1532,-178.5 1532,-230.5 1695,-230.5 1695,-178.5 1532,-178.5"/>
<text text-anchor="start" x="1540" y="-218.5" font-family="Helvetica,sans-Serif" font-size="10.00" fill="#000000">/home/travis/build</text>
<text text-anchor="start" x="1540" y="-207.5" font-family="Helvetica,sans-Serif" font-size="10.00" fill="#000000">/AliceO2Group/AliceO2</text>
<text text-anchor="start" x="1540" y="-196.5" font-family="Helvetica,sans-Serif" font-size="10.00" fill="#000000">/GPU/GPUTracking/Standalone</text>
<text text-anchor="middle" x="1613.5" y="-185.5" font-family="Helvetica,sans-Serif" font-size="10.00" fill="#000000">/display/GPUDisplayConfig.h</text>
</a>
</g>
</g>
<!-- Node2&#45;&gt;Node4 -->
<g id="edge3" class="edge">
<title>Node2&#45;&gt;Node4</title>
<path fill="none" stroke="#191970" d="M2157.7368,-280.6589C2033.5405,-263.2793 1813.8544,-232.537 1695.1234,-215.9221"/>
<polygon fill="#191970" stroke="#191970" points="2157.5918,-284.1727 2167.9804,-282.0924 2158.562,-277.2402 2157.5918,-284.1727"/>
</g>
<!-- Node19 -->
<g id="node19" class="node">
<title>Node19</title>
<g id="a_node19"><a xlink:href="../../d7/d9f/genEvents_8cxx.html" target="_top" xlink:title="/home/travis/build\l/AliceO2Group/AliceO2\l/GPU/GPUTracking/Standalone\l/qa/genEvents.cxx">
<polygon fill="none" stroke="#000000" points="1987,-178.5 1987,-230.5 2150,-230.5 2150,-178.5 1987,-178.5"/>
<text text-anchor="start" x="1995" y="-218.5" font-family="Helvetica,sans-Serif" font-size="10.00" fill="#000000">/home/travis/build</text>
<text text-anchor="start" x="1995" y="-207.5" font-family="Helvetica,sans-Serif" font-size="10.00" fill="#000000">/AliceO2Group/AliceO2</text>
<text text-anchor="start" x="1995" y="-196.5" font-family="Helvetica,sans-Serif" font-size="10.00" fill="#000000">/GPU/GPUTracking/Standalone</text>
<text text-anchor="middle" x="2068.5" y="-185.5" font-family="Helvetica,sans-Serif" font-size="10.00" fill="#000000">/qa/genEvents.cxx</text>
</a>
</g>
</g>
<!-- Node2&#45;&gt;Node19 -->
<g id="edge19" class="edge">
<title>Node2&#45;&gt;Node19</title>
<path fill="none" stroke="#191970" d="M2187.1606,-262.8469C2165.761,-252.3245 2142.0283,-240.6548 2121.4459,-230.5341"/>
<polygon fill="#191970" stroke="#191970" points="2185.6548,-266.0067 2196.173,-267.2784 2188.7436,-259.725 2185.6548,-266.0067"/>
</g>
<!-- Node20 -->
<g id="node20" class="node">
<title>Node20</title>
<g id="a_node20"><a xlink:href="../../d8/d93/GPUQAConfig_8h.html" target="_top" xlink:title="/home/travis/build\l/AliceO2Group/AliceO2\l/GPU/GPUTracking/Standalone\l/qa/GPUQAConfig.h">
<polygon fill="none" stroke="#000000" points="2168,-178.5 2168,-230.5 2331,-230.5 2331,-178.5 2168,-178.5"/>
<text text-anchor="start" x="2176" y="-218.5" font-family="Helvetica,sans-Serif" font-size="10.00" fill="#000000">/home/travis/build</text>
<text text-anchor="start" x="2176" y="-207.5" font-family="Helvetica,sans-Serif" font-size="10.00" fill="#000000">/AliceO2Group/AliceO2</text>
<text text-anchor="start" x="2176" y="-196.5" font-family="Helvetica,sans-Serif" font-size="10.00" fill="#000000">/GPU/GPUTracking/Standalone</text>
<text text-anchor="middle" x="2249.5" y="-185.5" font-family="Helvetica,sans-Serif" font-size="10.00" fill="#000000">/qa/GPUQAConfig.h</text>
</a>
</g>
</g>
<!-- Node2&#45;&gt;Node20 -->
<g id="edge21" class="edge">
<title>Node2&#45;&gt;Node20</title>
<path fill="none" stroke="#191970" d="M2249.5,-257.1155C2249.5,-248.2061 2249.5,-238.8475 2249.5,-230.5341"/>
<polygon fill="#191970" stroke="#191970" points="2246.0001,-257.2784 2249.5,-267.2784 2253.0001,-257.2785 2246.0001,-257.2784"/>
</g>
<!-- Node23 -->
<g id="node23" class="node">
<title>Node23</title>
<g id="a_node23"><a xlink:href="../../de/ddc/GPUQA_8cxx.html" target="_top" xlink:title="/home/travis/build\l/AliceO2Group/AliceO2\l/GPU/GPUTracking/Standalone\l/qa/GPUQA.cxx">
<polygon fill="none" stroke="#000000" points="2498,-.5 2498,-52.5 2661,-52.5 2661,-.5 2498,-.5"/>
<text text-anchor="start" x="2506" y="-40.5" font-family="Helvetica,sans-Serif" font-size="10.00" fill="#000000">/home/travis/build</text>
<text text-anchor="start" x="2506" y="-29.5" font-family="Helvetica,sans-Serif" font-size="10.00" fill="#000000">/AliceO2Group/AliceO2</text>
<text text-anchor="start" x="2506" y="-18.5" font-family="Helvetica,sans-Serif" font-size="10.00" fill="#000000">/GPU/GPUTracking/Standalone</text>
<text text-anchor="middle" x="2579.5" y="-7.5" font-family="Helvetica,sans-Serif" font-size="10.00" fill="#000000">/qa/GPUQA.cxx</text>
</a>
</g>
</g>
<!-- Node2&#45;&gt;Node23 -->
<g id="edge30" class="edge">
<title>Node2&#45;&gt;Node23</title>
<path fill="none" stroke="#191970" d="M2308.6533,-261.5424C2320.5195,-252.9231 2331.9502,-242.6892 2340.5,-231 2379.4292,-177.7763 2337.2152,-135.9677 2383.5,-89 2387.8871,-84.5481 2446.094,-66.2735 2497.9432,-50.6261"/>
<polygon fill="#191970" stroke="#191970" points="2306.6337,-258.6836 2300.3988,-267.2496 2310.6147,-264.4414 2306.6337,-258.6836"/>
</g>
<!-- Node24 -->
<g id="node24" class="node">
<title>Node24</title>
<g id="a_node24"><a xlink:href="../../dc/df9/standalone_8cxx.html" target="_top" xlink:title="/home/travis/build\l/AliceO2Group/AliceO2\l/GPU/GPUTracking/Standalone\l/standalone.cxx">
<polygon fill="none" stroke="#000000" points="2679,-.5 2679,-52.5 2842,-52.5 2842,-.5 2679,-.5"/>
<text text-anchor="start" x="2687" y="-40.5" font-family="Helvetica,sans-Serif" font-size="10.00" fill="#000000">/home/travis/build</text>
<text text-anchor="start" x="2687" y="-29.5" font-family="Helvetica,sans-Serif" font-size="10.00" fill="#000000">/AliceO2Group/AliceO2</text>
<text text-anchor="start" x="2687" y="-18.5" font-family="Helvetica,sans-Serif" font-size="10.00" fill="#000000">/GPU/GPUTracking/Standalone</text>
<text text-anchor="middle" x="2760.5" y="-7.5" font-family="Helvetica,sans-Serif" font-size="10.00" fill="#000000">/standalone.cxx</text>
</a>
</g>
</g>
<!-- Node2&#45;&gt;Node24 -->
<g id="edge31" class="edge">
<title>Node2&#45;&gt;Node24</title>
<path fill="none" stroke="#191970" d="M2313.3953,-262.4775C2330.264,-253.2267 2348.0579,-242.4679 2363.5,-231 2390.4977,-210.9504 2389.6694,-196.8765 2417.5,-178 2500.6027,-121.6346 2608.0874,-78.1913 2680.4012,-52.5617"/>
<polygon fill="#191970" stroke="#191970" points="2311.2881,-259.6367 2304.1398,-267.4567 2314.6045,-265.8013 2311.2881,-259.6367"/>
</g>
<!-- Node25 -->
<g id="node25" class="node">
<title>Node25</title>
<g id="a_node25"><a xlink:href="../../da/df7/qconfig_8cxx.html" target="_top" xlink:title="/home/travis/build\l/AliceO2Group/AliceO2\l/GPU/GPUTracking/Standalone\l/utils/qconfig.cxx">
<polygon fill="none" stroke="#000000" points="2426,-178.5 2426,-230.5 2589,-230.5 2589,-178.5 2426,-178.5"/>
<text text-anchor="start" x="2434" y="-218.5" font-family="Helvetica,sans-Serif" font-size="10.00" fill="#000000">/home/travis/build</text>
<text text-anchor="start" x="2434" y="-207.5" font-family="Helvetica,sans-Serif" font-size="10.00" fill="#000000">/AliceO2Group/AliceO2</text>
<text text-anchor="start" x="2434" y="-196.5" font-family="Helvetica,sans-Serif" font-size="10.00" fill="#000000">/GPU/GPUTracking/Standalone</text>
<text text-anchor="middle" x="2507.5" y="-185.5" font-family="Helvetica,sans-Serif" font-size="10.00" fill="#000000">/utils/qconfig.cxx</text>
</a>
</g>
</g>
<!-- Node2&#45;&gt;Node25 -->
<g id="edge32" class="edge">
<title>Node2&#45;&gt;Node25</title>
<path fill="none" stroke="#191970" d="M2334.7611,-264.0882C2366.1168,-253.2717 2401.383,-241.1062 2431.8361,-230.6011"/>
<polygon fill="#191970" stroke="#191970" points="2333.4772,-260.8286 2325.1653,-267.3984 2335.76,-267.446 2333.4772,-260.8286"/>
</g>
<!-- Node5 -->
<g id="node5" class="node">
<title>Node5</title>
<g id="a_node5"><a xlink:href="../../d8/de7/GPUO2InterfaceConfiguration_8h.html" target="_top" xlink:title="/home/travis/build\l/AliceO2Group/AliceO2\l/GPU/GPUTracking/Interface\l/GPUO2InterfaceConfiguration.h">
<polygon fill="none" stroke="#000000" points="492.5,-89.5 492.5,-141.5 664.5,-141.5 664.5,-89.5 492.5,-89.5"/>
<text text-anchor="start" x="500.5" y="-129.5" font-family="Helvetica,sans-Serif" font-size="10.00" fill="#000000">/home/travis/build</text>
<text text-anchor="start" x="500.5" y="-118.5" font-family="Helvetica,sans-Serif" font-size="10.00" fill="#000000">/AliceO2Group/AliceO2</text>
<text text-anchor="start" x="500.5" y="-107.5" font-family="Helvetica,sans-Serif" font-size="10.00" fill="#000000">/GPU/GPUTracking/Interface</text>
<text text-anchor="middle" x="578.5" y="-96.5" font-family="Helvetica,sans-Serif" font-size="10.00" fill="#000000">/GPUO2InterfaceConfiguration.h</text>
</a>
</g>
</g>
<!-- Node4&#45;&gt;Node5 -->
<g id="edge4" class="edge">
<title>Node4&#45;&gt;Node5</title>
<path fill="none" stroke="#191970" d="M1521.7606,-196.6113C1323.5634,-179.5683 857.735,-139.5115 664.6677,-122.9096"/>
<polygon fill="#191970" stroke="#191970" points="1521.5901,-200.1095 1531.8532,-197.4792 1522.1899,-193.1352 1521.5901,-200.1095"/>
</g>
<!-- Node11 -->
<g id="node11" class="node">
<title>Node11</title>
<g id="a_node11"><a xlink:href="../../dc/d69/GPUDisplay_8h.html" target="_top" xlink:title="/home/travis/build\l/AliceO2Group/AliceO2\l/GPU/GPUTracking/Standalone\l/display/GPUDisplay.h">
<polygon fill="none" stroke="#000000" points="1532,-89.5 1532,-141.5 1695,-141.5 1695,-89.5 1532,-89.5"/>
<text text-anchor="start" x="1540" y="-129.5" font-family="Helvetica,sans-Serif" font-size="10.00" fill="#000000">/home/travis/build</text>
<text text-anchor="start" x="1540" y="-118.5" font-family="Helvetica,sans-Serif" font-size="10.00" fill="#000000">/AliceO2Group/AliceO2</text>
<text text-anchor="start" x="1540" y="-107.5" font-family="Helvetica,sans-Serif" font-size="10.00" fill="#000000">/GPU/GPUTracking/Standalone</text>
<text text-anchor="middle" x="1613.5" y="-96.5" font-family="Helvetica,sans-Serif" font-size="10.00" fill="#000000">/display/GPUDisplay.h</text>
</a>
</g>
</g>
<!-- Node4&#45;&gt;Node11 -->
<g id="edge10" class="edge">
<title>Node4&#45;&gt;Node11</title>
<path fill="none" stroke="#191970" d="M1613.5,-168.1155C1613.5,-159.2061 1613.5,-149.8475 1613.5,-141.5341"/>
<polygon fill="#191970" stroke="#191970" points="1610.0001,-168.2784 1613.5,-178.2784 1617.0001,-168.2785 1610.0001,-168.2784"/>
</g>
<!-- Node6 -->
<g id="node6" class="node">
<title>Node6</title>
<g id="a_node6"><a xlink:href="../../d4/d2e/GPUCATracking_8cxx.html" target="_top" xlink:title="/home/travis/build\l/AliceO2Group/AliceO2\l/Detectors/TPC/reconstruction\l/src/GPUCATracking.cxx">
<polygon fill="none" stroke="#000000" points="0,-.5 0,-52.5 161,-52.5 161,-.5 0,-.5"/>
<text text-anchor="start" x="8" y="-40.5" font-family="Helvetica,sans-Serif" font-size="10.00" fill="#000000">/home/travis/build</text>
<text text-anchor="start" x="8" y="-29.5" font-family="Helvetica,sans-Serif" font-size="10.00" fill="#000000">/AliceO2Group/AliceO2</text>
<text text-anchor="start" x="8" y="-18.5" font-family="Helvetica,sans-Serif" font-size="10.00" fill="#000000">/Detectors/TPC/reconstruction</text>
<text text-anchor="middle" x="80.5" y="-7.5" font-family="Helvetica,sans-Serif" font-size="10.00" fill="#000000">/src/GPUCATracking.cxx</text>
</a>
</g>
</g>
<!-- Node5&#45;&gt;Node6 -->
<g id="edge5" class="edge">
<title>Node5&#45;&gt;Node6</title>
<path fill="none" stroke="#191970" d="M482.5159,-104.6272C399.186,-94.2871 275.5823,-76.7796 169.5,-53 166.8257,-52.4005 164.114,-51.7638 161.3819,-51.0974"/>
<polygon fill="#191970" stroke="#191970" points="482.1219,-108.105 492.4746,-105.8526 482.9769,-101.1574 482.1219,-108.105"/>
</g>
<!-- Node7 -->
<g id="node7" class="node">
<title>Node7</title>
<g id="a_node7"><a xlink:href="../../d1/df6/testGPUCATracking_8cxx.html" target="_top" xlink:title="This task tests the TPC CA Tracking library. ">
<polygon fill="none" stroke="#000000" points="179,-.5 179,-52.5 340,-52.5 340,-.5 179,-.5"/>
<text text-anchor="start" x="187" y="-40.5" font-family="Helvetica,sans-Serif" font-size="10.00" fill="#000000">/home/travis/build</text>
<text text-anchor="start" x="187" y="-29.5" font-family="Helvetica,sans-Serif" font-size="10.00" fill="#000000">/AliceO2Group/AliceO2</text>
<text text-anchor="start" x="187" y="-18.5" font-family="Helvetica,sans-Serif" font-size="10.00" fill="#000000">/Detectors/TPC/reconstruction</text>
<text text-anchor="middle" x="259.5" y="-7.5" font-family="Helvetica,sans-Serif" font-size="10.00" fill="#000000">/test/testGPUCATracking.cxx</text>
</a>
</g>
</g>
<!-- Node5&#45;&gt;Node7 -->
<g id="edge6" class="edge">
<title>Node5&#45;&gt;Node7</title>
<path fill="none" stroke="#191970" d="M482.7497,-89.8235C441.6729,-78.6903 393.1782,-65.3895 349.5,-53 346.5227,-52.1555 343.4916,-51.2903 340.431,-50.4123"/>
<polygon fill="#191970" stroke="#191970" points="481.9124,-93.2227 492.4795,-92.4577 483.7417,-86.466 481.9124,-93.2227"/>
</g>
<!-- Node8 -->
<g id="node8" class="node">
<title>Node8</title>
<g id="a_node8"><a xlink:href="../../da/d78/CATrackerSpec_8cxx.html" target="_top" xlink:title="Processor spec for running TPC CA tracking. ">
<polygon fill="none" stroke="#000000" points="358.5,-.5 358.5,-52.5 494.5,-52.5 494.5,-.5 358.5,-.5"/>
<text text-anchor="start" x="366.5" y="-40.5" font-family="Helvetica,sans-Serif" font-size="10.00" fill="#000000">/home/travis/build</text>
<text text-anchor="start" x="366.5" y="-29.5" font-family="Helvetica,sans-Serif" font-size="10.00" fill="#000000">/AliceO2Group/AliceO2</text>
<text text-anchor="start" x="366.5" y="-18.5" font-family="Helvetica,sans-Serif" font-size="10.00" fill="#000000">/Detectors/TPC/workflow</text>
<text text-anchor="middle" x="426.5" y="-7.5" font-family="Helvetica,sans-Serif" font-size="10.00" fill="#000000">/src/CATrackerSpec.cxx</text>
</a>
</g>
</g>
<!-- Node5&#45;&gt;Node8 -->
<g id="edge7" class="edge">
<title>Node5&#45;&gt;Node8</title>
<path fill="none" stroke="#191970" d="M524.7004,-83.9989C507.112,-73.7004 487.7845,-62.3837 470.9628,-52.5341"/>
<polygon fill="#191970" stroke="#191970" points="523.319,-87.2459 533.7171,-89.2784 526.8561,-81.2052 523.319,-87.2459"/>
</g>
<!-- Node9 -->
<g id="node9" class="node">
<title>Node9</title>
<g id="a_node9"><a xlink:href="../../d8/db5/testGPUTracking_8cxx.html" target="_top" xlink:title="/home/travis/build\l/AliceO2Group/AliceO2\l/GPU/GPUTracking/ctest\l/testGPUTracking.cxx">
<polygon fill="none" stroke="#000000" points="512.5,-.5 512.5,-52.5 644.5,-52.5 644.5,-.5 512.5,-.5"/>
<text text-anchor="start" x="520.5" y="-40.5" font-family="Helvetica,sans-Serif" font-size="10.00" fill="#000000">/home/travis/build</text>
<text text-anchor="start" x="520.5" y="-29.5" font-family="Helvetica,sans-Serif" font-size="10.00" fill="#000000">/AliceO2Group/AliceO2</text>
<text text-anchor="start" x="520.5" y="-18.5" font-family="Helvetica,sans-Serif" font-size="10.00" fill="#000000">/GPU/GPUTracking/ctest</text>
<text text-anchor="middle" x="578.5" y="-7.5" font-family="Helvetica,sans-Serif" font-size="10.00" fill="#000000">/testGPUTracking.cxx</text>
</a>
</g>
</g>
<!-- Node5&#45;&gt;Node9 -->
<g id="edge8" class="edge">
<title>Node5&#45;&gt;Node9</title>
<path fill="none" stroke="#191970" d="M578.5,-79.1155C578.5,-70.2061 578.5,-60.8475 578.5,-52.5341"/>
<polygon fill="#191970" stroke="#191970" points="575.0001,-79.2784 578.5,-89.2784 582.0001,-79.2785 575.0001,-79.2784"/>
</g>
<!-- Node10 -->
<g id="node10" class="node">
<title>Node10</title>
<g id="a_node10"><a xlink:href="../../d0/d48/GPUO2Interface_8cxx.html" target="_top" xlink:title="/home/travis/build\l/AliceO2Group/AliceO2\l/GPU/GPUTracking/Interface\l/GPUO2Interface.cxx">
<polygon fill="none" stroke="#000000" points="662.5,-.5 662.5,-52.5 814.5,-52.5 814.5,-.5 662.5,-.5"/>
<text text-anchor="start" x="670.5" y="-40.5" font-family="Helvetica,sans-Serif" font-size="10.00" fill="#000000">/home/travis/build</text>
<text text-anchor="start" x="670.5" y="-29.5" font-family="Helvetica,sans-Serif" font-size="10.00" fill="#000000">/AliceO2Group/AliceO2</text>
<text text-anchor="start" x="670.5" y="-18.5" font-family="Helvetica,sans-Serif" font-size="10.00" fill="#000000">/GPU/GPUTracking/Interface</text>
<text text-anchor="middle" x="738.5" y="-7.5" font-family="Helvetica,sans-Serif" font-size="10.00" fill="#000000">/GPUO2Interface.cxx</text>
</a>
</g>
</g>
<!-- Node5&#45;&gt;Node10 -->
<g id="edge9" class="edge">
<title>Node5&#45;&gt;Node10</title>
<path fill="none" stroke="#191970" d="M634.622,-84.2821C653.2718,-73.9082 673.8275,-62.4741 691.697,-52.5341"/>
<polygon fill="#191970" stroke="#191970" points="632.6775,-81.3587 625.6399,-89.2784 636.0803,-87.476 632.6775,-81.3587"/>
</g>
<!-- Node11&#45;&gt;Node3 -->
<g id="edge11" class="edge">
<title>Node11&#45;&gt;Node3</title>
<path fill="none" stroke="#191970" d="M1521.3299,-109.8789C1405.5588,-101.8516 1201.1471,-84.4717 1028.5,-53 1025.7101,-52.4914 1022.884,-51.9473 1020.0365,-51.3738"/>
<polygon fill="#191970" stroke="#191970" points="1521.3508,-113.3884 1531.5667,-110.5803 1521.8294,-106.4048 1521.3508,-113.3884"/>
</g>
<!-- Node12 -->
<g id="node12" class="node">
<title>Node12</title>
<g id="a_node12"><a xlink:href="../../d2/d58/GPUChainTracking_8cxx.html" target="_top" xlink:title="/home/travis/build\l/AliceO2Group/AliceO2\l/GPU/GPUTracking/Global\l/GPUChainTracking.cxx">
<polygon fill="none" stroke="#000000" points="2021.5,-.5 2021.5,-52.5 2161.5,-52.5 2161.5,-.5 2021.5,-.5"/>
<text text-anchor="start" x="2029.5" y="-40.5" font-family="Helvetica,sans-Serif" font-size="10.00" fill="#000000">/home/travis/build</text>
<text text-anchor="start" x="2029.5" y="-29.5" font-family="Helvetica,sans-Serif" font-size="10.00" fill="#000000">/AliceO2Group/AliceO2</text>
<text text-anchor="start" x="2029.5" y="-18.5" font-family="Helvetica,sans-Serif" font-size="10.00" fill="#000000">/GPU/GPUTracking/Global</text>
<text text-anchor="middle" x="2091.5" y="-7.5" font-family="Helvetica,sans-Serif" font-size="10.00" fill="#000000">/GPUChainTracking.cxx</text>
</a>
</g>
</g>
<!-- Node11&#45;&gt;Node12 -->
<g id="edge12" class="edge">
<title>Node11&#45;&gt;Node12</title>
<path fill="none" stroke="#191970" d="M1705.5192,-105.5472C1786.9526,-95.6849 1908.6408,-78.3625 2012.5,-53 2015.4512,-52.2793 2018.4498,-51.4985 2021.4682,-50.6724"/>
<polygon fill="#191970" stroke="#191970" points="1704.8087,-102.1071 1695.296,-106.7717 1705.6413,-109.0575 1704.8087,-102.1071"/>
</g>
<!-- Node13 -->
<g id="node13" class="node">
<title>Node13</title>
<g id="a_node13"><a xlink:href="../../d3/d85/GPUChainTrackingIO_8cxx.html" target="_top" xlink:title="/home/travis/build\l/AliceO2Group/AliceO2\l/GPU/GPUTracking/Global\l/GPUChainTrackingIO.cxx">
<polygon fill="none" stroke="#000000" points="2179.5,-.5 2179.5,-52.5 2319.5,-52.5 2319.5,-.5 2179.5,-.5"/>
<text text-anchor="start" x="2187.5" y="-40.5" font-family="Helvetica,sans-Serif" font-size="10.00" fill="#000000">/home/travis/build</text>
<text text-anchor="start" x="2187.5" y="-29.5" font-family="Helvetica,sans-Serif" font-size="10.00" fill="#000000">/AliceO2Group/AliceO2</text>
<text text-anchor="start" x="2187.5" y="-18.5" font-family="Helvetica,sans-Serif" font-size="10.00" fill="#000000">/GPU/GPUTracking/Global</text>
<text text-anchor="middle" x="2249.5" y="-7.5" font-family="Helvetica,sans-Serif" font-size="10.00" fill="#000000">/GPUChainTrackingIO.cxx</text>
</a>
</g>
</g>
<!-- Node11&#45;&gt;Node13 -->
<g id="edge13" class="edge">
<title>Node11&#45;&gt;Node13</title>
<path fill="none" stroke="#191970" d="M1705.2695,-111.1686C1816.4792,-104.5557 2009.033,-88.7165 2170.5,-53 2173.325,-52.3751 2176.1907,-51.6861 2179.0737,-50.9469"/>
<polygon fill="#191970" stroke="#191970" points="1704.8749,-107.6855 1695.0954,-111.7613 1705.282,-114.6737 1704.8749,-107.6855"/>
</g>
<!-- Node14 -->
<g id="node14" class="node">
<title>Node14</title>
<g id="a_node14"><a xlink:href="../../d8/d8f/GPUDisplay_8cxx.html" target="_top" xlink:title="/home/travis/build\l/AliceO2Group/AliceO2\l/GPU/GPUTracking/Standalone\l/display/GPUDisplay.cxx">
<polygon fill="none" stroke="#000000" points="1038,-.5 1038,-52.5 1201,-52.5 1201,-.5 1038,-.5"/>
<text text-anchor="start" x="1046" y="-40.5" font-family="Helvetica,sans-Serif" font-size="10.00" fill="#000000">/home/travis/build</text>
<text text-anchor="start" x="1046" y="-29.5" font-family="Helvetica,sans-Serif" font-size="10.00" fill="#000000">/AliceO2Group/AliceO2</text>
<text text-anchor="start" x="1046" y="-18.5" font-family="Helvetica,sans-Serif" font-size="10.00" fill="#000000">/GPU/GPUTracking/Standalone</text>
<text text-anchor="middle" x="1119.5" y="-7.5" font-family="Helvetica,sans-Serif" font-size="10.00" fill="#000000">/display/GPUDisplay.cxx</text>
</a>
</g>
</g>
<!-- Node11&#45;&gt;Node14 -->
<g id="edge14" class="edge">
<title>Node11&#45;&gt;Node14</title>
<path fill="none" stroke="#191970" d="M1521.8213,-104.7218C1439.7264,-94.2561 1316.3269,-76.5113 1210.5,-53 1207.448,-52.3219 1204.3477,-51.5986 1201.2232,-50.8403"/>
<polygon fill="#191970" stroke="#191970" points="1521.5136,-108.2106 1531.8738,-105.9932 1522.3921,-101.266 1521.5136,-108.2106"/>
</g>
<!-- Node15 -->
<g id="node15" class="node">
<title>Node15</title>
<g id="a_node15"><a xlink:href="../../d5/d55/GPUDisplayBackend_8cxx.html" target="_top" xlink:title="/home/travis/build\l/AliceO2Group/AliceO2\l/GPU/GPUTracking/Standalone\l/display/GPUDisplayBackend.cxx">
<polygon fill="none" stroke="#000000" points="1219.5,-.5 1219.5,-52.5 1397.5,-52.5 1397.5,-.5 1219.5,-.5"/>
<text text-anchor="start" x="1227.5" y="-40.5" font-family="Helvetica,sans-Serif" font-size="10.00" fill="#000000">/home/travis/build</text>
<text text-anchor="start" x="1227.5" y="-29.5" font-family="Helvetica,sans-Serif" font-size="10.00" fill="#000000">/AliceO2Group/AliceO2</text>
<text text-anchor="start" x="1227.5" y="-18.5" font-family="Helvetica,sans-Serif" font-size="10.00" fill="#000000">/GPU/GPUTracking/Standalone</text>
<text text-anchor="middle" x="1308.5" y="-7.5" font-family="Helvetica,sans-Serif" font-size="10.00" fill="#000000">/display/GPUDisplayBackend.cxx</text>
</a>
</g>
</g>
<!-- Node11&#45;&gt;Node15 -->
<g id="edge15" class="edge">
<title>Node11&#45;&gt;Node15</title>
<path fill="none" stroke="#191970" d="M1521.912,-88.7743C1482.5745,-77.2955 1436.7663,-63.9285 1397.6973,-52.5281"/>
<polygon fill="#191970" stroke="#191970" points="1521.1855,-92.2082 1531.7656,-91.6496 1523.1464,-85.4885 1521.1855,-92.2082"/>
</g>
<!-- Node16 -->
<g id="node16" class="node">
<title>Node16</title>
<g id="a_node16"><a xlink:href="../../d4/d10/GPUDisplayInterpolation_8cxx.html" target="_top" xlink:title="/home/travis/build\l/AliceO2Group/AliceO2\l/GPU/GPUTracking/Standalone\l/display/GPUDisplayInterpolation.cxx">
<polygon fill="none" stroke="#000000" points="1415.5,-.5 1415.5,-52.5 1613.5,-52.5 1613.5,-.5 1415.5,-.5"/>
<text text-anchor="start" x="1423.5" y="-40.5" font-family="Helvetica,sans-Serif" font-size="10.00" fill="#000000">/home/travis/build</text>
<text text-anchor="start" x="1423.5" y="-29.5" font-family="Helvetica,sans-Serif" font-size="10.00" fill="#000000">/AliceO2Group/AliceO2</text>
<text text-anchor="start" x="1423.5" y="-18.5" font-family="Helvetica,sans-Serif" font-size="10.00" fill="#000000">/GPU/GPUTracking/Standalone</text>
<text text-anchor="middle" x="1514.5" y="-7.5" font-family="Helvetica,sans-Serif" font-size="10.00" fill="#000000">/display/GPUDisplayInterpolation.cxx</text>
</a>
</g>
</g>
<!-- Node11&#45;&gt;Node16 -->
<g id="edge16" class="edge">
<title>Node11&#45;&gt;Node16</title>
<path fill="none" stroke="#191970" d="M1576.8762,-82.5755C1565.8524,-72.6653 1553.913,-61.9319 1543.4593,-52.5341"/>
<polygon fill="#191970" stroke="#191970" points="1574.5556,-85.1958 1584.3322,-89.2784 1579.2354,-79.9901 1574.5556,-85.1958"/>
</g>
<!-- Node17 -->
<g id="node17" class="node">
<title>Node17</title>
<g id="a_node17"><a xlink:href="../../d8/d90/GPUDisplayKeys_8cxx.html" target="_top" xlink:title="/home/travis/build\l/AliceO2Group/AliceO2\l/GPU/GPUTracking/Standalone\l/display/GPUDisplayKeys.cxx">
<polygon fill="none" stroke="#000000" points="1632,-.5 1632,-52.5 1795,-52.5 1795,-.5 1632,-.5"/>
<text text-anchor="start" x="1640" y="-40.5" font-family="Helvetica,sans-Serif" font-size="10.00" fill="#000000">/home/travis/build</text>
<text text-anchor="start" x="1640" y="-29.5" font-family="Helvetica,sans-Serif" font-size="10.00" fill="#000000">/AliceO2Group/AliceO2</text>
<text text-anchor="start" x="1640" y="-18.5" font-family="Helvetica,sans-Serif" font-size="10.00" fill="#000000">/GPU/GPUTracking/Standalone</text>
<text text-anchor="middle" x="1713.5" y="-7.5" font-family="Helvetica,sans-Serif" font-size="10.00" fill="#000000">/display/GPUDisplayKeys.cxx</text>
</a>
</g>
</g>
<!-- Node11&#45;&gt;Node17 -->
<g id="edge17" class="edge">
<title>Node11&#45;&gt;Node17</title>
<path fill="none" stroke="#191970" d="M1650.4938,-82.5755C1661.6289,-72.6653 1673.6889,-61.9319 1684.2481,-52.5341"/>
<polygon fill="#191970" stroke="#191970" points="1648.1055,-80.0156 1642.9624,-89.2784 1652.7593,-85.2446 1648.1055,-80.0156"/>
</g>
<!-- Node18 -->
<g id="node18" class="node">
<title>Node18</title>
<g id="a_node18"><a xlink:href="../../dc/d7e/GPUDisplayQuaternion_8cxx.html" target="_top" xlink:title="/home/travis/build\l/AliceO2Group/AliceO2\l/GPU/GPUTracking/Standalone\l/display/GPUDisplayQuaternion.cxx">
<polygon fill="none" stroke="#000000" points="1813.5,-.5 1813.5,-52.5 2003.5,-52.5 2003.5,-.5 1813.5,-.5"/>
<text text-anchor="start" x="1821.5" y="-40.5" font-family="Helvetica,sans-Serif" font-size="10.00" fill="#000000">/home/travis/build</text>
<text text-anchor="start" x="1821.5" y="-29.5" font-family="Helvetica,sans-Serif" font-size="10.00" fill="#000000">/AliceO2Group/AliceO2</text>
<text text-anchor="start" x="1821.5" y="-18.5" font-family="Helvetica,sans-Serif" font-size="10.00" fill="#000000">/GPU/GPUTracking/Standalone</text>
<text text-anchor="middle" x="1908.5" y="-7.5" font-family="Helvetica,sans-Serif" font-size="10.00" fill="#000000">/display/GPUDisplayQuaternion.cxx</text>
</a>
</g>
</g>
<!-- Node11&#45;&gt;Node18 -->
<g id="edge18" class="edge">
<title>Node11&#45;&gt;Node18</title>
<path fill="none" stroke="#191970" d="M1705.1475,-87.8504C1742.4785,-76.5879 1785.4097,-63.6357 1822.1772,-52.5432"/>
<polygon fill="#191970" stroke="#191970" points="1703.845,-84.5875 1695.2822,-90.8267 1705.8669,-91.2891 1703.845,-84.5875"/>
</g>
<!-- Node20&#45;&gt;Node5 -->
<g id="edge22" class="edge">
<title>Node20&#45;&gt;Node5</title>
<path fill="none" stroke="#191970" d="M2157.6602,-177.9984C1971.7747,-152.6712 967.3221,-125.4269 664.7521,-117.6648"/>
<polygon fill="#191970" stroke="#191970" points="2157.3752,-181.4946 2167.7824,-179.5095 2158.4088,-174.5713 2157.3752,-181.4946"/>
</g>
<!-- Node21 -->
<g id="node21" class="node">
<title>Node21</title>
<g id="a_node21"><a xlink:href="../../da/dcc/GPUQA_8h.html" target="_top" xlink:title="/home/travis/build\l/AliceO2Group/AliceO2\l/GPU/GPUTracking/Standalone\l/qa/GPUQA.h">
<polygon fill="none" stroke="#000000" points="2168,-89.5 2168,-141.5 2331,-141.5 2331,-89.5 2168,-89.5"/>
<text text-anchor="start" x="2176" y="-129.5" font-family="Helvetica,sans-Serif" font-size="10.00" fill="#000000">/home/travis/build</text>
<text text-anchor="start" x="2176" y="-118.5" font-family="Helvetica,sans-Serif" font-size="10.00" fill="#000000">/AliceO2Group/AliceO2</text>
<text text-anchor="start" x="2176" y="-107.5" font-family="Helvetica,sans-Serif" font-size="10.00" fill="#000000">/GPU/GPUTracking/Standalone</text>
<text text-anchor="middle" x="2249.5" y="-96.5" font-family="Helvetica,sans-Serif" font-size="10.00" fill="#000000">/qa/GPUQA.h</text>
</a>
</g>
</g>
<!-- Node20&#45;&gt;Node21 -->
<g id="edge23" class="edge">
<title>Node20&#45;&gt;Node21</title>
<path fill="none" stroke="#191970" d="M2249.5,-168.1155C2249.5,-159.2061 2249.5,-149.8475 2249.5,-141.5341"/>
<polygon fill="#191970" stroke="#191970" points="2246.0001,-168.2784 2249.5,-178.2784 2253.0001,-168.2785 2246.0001,-168.2784"/>
</g>
<!-- Node21&#45;&gt;Node3 -->
<g id="edge24" class="edge">
<title>Node21&#45;&gt;Node3</title>
<path fill="none" stroke="#191970" d="M2157.6403,-111.047C1878.3101,-97.4741 1056.3461,-57.2844 1028.5,-53 1025.6971,-52.5687 1022.8596,-52.0926 1020.0021,-51.5785"/>
<polygon fill="#191970" stroke="#191970" points="2157.5869,-114.5484 2167.745,-111.5379 2157.9266,-107.5567 2157.5869,-114.5484"/>
</g>
<!-- Node21&#45;&gt;Node12 -->
<g id="edge25" class="edge">
<title>Node21&#45;&gt;Node12</title>
<path fill="none" stroke="#191970" d="M2194.0795,-84.2821C2175.6629,-73.9082 2155.364,-62.4741 2137.7179,-52.5341"/>
<polygon fill="#191970" stroke="#191970" points="2192.5188,-87.42 2202.9494,-89.2784 2195.9543,-81.321 2192.5188,-87.42"/>
</g>
<!-- Node21&#45;&gt;Node13 -->
<g id="edge26" class="edge">
<title>Node21&#45;&gt;Node13</title>
<path fill="none" stroke="#191970" d="M2249.5,-79.1155C2249.5,-70.2061 2249.5,-60.8475 2249.5,-52.5341"/>
<polygon fill="#191970" stroke="#191970" points="2246.0001,-79.2784 2249.5,-89.2784 2253.0001,-79.2785 2246.0001,-79.2784"/>
</g>
<!-- Node22 -->
<g id="node22" class="node">
<title>Node22</title>
<g id="a_node22"><a xlink:href="../../d0/dd4/GPUTPCGMMerger_8cxx.html" target="_top" xlink:title="/home/travis/build\l/AliceO2Group/AliceO2\l/GPU/GPUTracking/Merger\l/GPUTPCGMMerger.cxx">
<polygon fill="none" stroke="#000000" points="2337.5,-.5 2337.5,-52.5 2479.5,-52.5 2479.5,-.5 2337.5,-.5"/>
<text text-anchor="start" x="2345.5" y="-40.5" font-family="Helvetica,sans-Serif" font-size="10.00" fill="#000000">/home/travis/build</text>
<text text-anchor="start" x="2345.5" y="-29.5" font-family="Helvetica,sans-Serif" font-size="10.00" fill="#000000">/AliceO2Group/AliceO2</text>
<text text-anchor="start" x="2345.5" y="-18.5" font-family="Helvetica,sans-Serif" font-size="10.00" fill="#000000">/GPU/GPUTracking/Merger</text>
<text text-anchor="middle" x="2408.5" y="-7.5" font-family="Helvetica,sans-Serif" font-size="10.00" fill="#000000">/GPUTPCGMMerger.cxx</text>
</a>
</g>
</g>
<!-- Node21&#45;&gt;Node22 -->
<g id="edge27" class="edge">
<title>Node21&#45;&gt;Node22</title>
<path fill="none" stroke="#191970" d="M2305.2712,-84.2821C2323.8045,-73.9082 2344.2318,-62.4741 2361.9896,-52.5341"/>
<polygon fill="#191970" stroke="#191970" points="2303.3617,-81.3399 2296.3453,-89.2784 2306.7808,-87.4481 2303.3617,-81.3399"/>
</g>
<!-- Node21&#45;&gt;Node23 -->
<g id="edge28" class="edge">
<title>Node21&#45;&gt;Node23</title>
<path fill="none" stroke="#191970" d="M2341.0776,-90.1709C2342.5622,-89.7765 2344.0372,-89.386 2345.5,-89 2408.8698,-72.2793 2425.2491,-70.165 2488.5,-53 2491.5173,-52.1812 2494.588,-51.3379 2497.6875,-50.4784"/>
<polygon fill="#191970" stroke="#191970" points="2339.9234,-86.8565 2331.1668,-92.8208 2341.7316,-93.6189 2339.9234,-86.8565"/>
</g>
<!-- Node21&#45;&gt;Node24 -->
<g id="edge29" class="edge">
<title>Node21&#45;&gt;Node24</title>
<path fill="none" stroke="#191970" d="M2341.3672,-96.4439C2355.4495,-93.7802 2369.8418,-91.2043 2383.5,-89 2510.4129,-68.5172 2544.6516,-79.2411 2670.5,-53 2673.2107,-52.4348 2675.9583,-51.8278 2678.7259,-51.187"/>
<polygon fill="#191970" stroke="#191970" points="2340.3456,-93.0758 2331.1828,-98.3948 2341.6627,-99.9508 2340.3456,-93.0758"/>
</g>
</g>
</svg>
