<?xml version="1.0" encoding="UTF-8" standalone="no"?>
<!DOCTYPE svg PUBLIC "-//W3C//DTD SVG 1.1//EN"
 "http://www.w3.org/Graphics/SVG/1.1/DTD/svg11.dtd">
<!-- Generated by graphviz version 2.40.1 (20161225.0304)
 -->
<!-- Title: /home/travis/build/AliceO2Group/AliceO2/Detectors/Raw/include/DetectorsRaw/RDHUtils.h Pages: 1 -->
<svg width="2215pt" height="339pt"
 viewBox="0.00 0.00 2214.50 339.00" xmlns="http://www.w3.org/2000/svg" xmlns:xlink="http://www.w3.org/1999/xlink">
<g id="graph0" class="graph" transform="scale(1 1) rotate(0) translate(4 335)">
<title>/home/travis/build/AliceO2Group/AliceO2/Detectors/Raw/include/DetectorsRaw/RDHUtils.h</title>
<!-- Node12 -->
<g id="node1" class="node">
<title>Node12</title>
<polygon fill="#bfbfbf" stroke="#000000" points="907,-278.5 907,-330.5 1051,-330.5 1051,-278.5 907,-278.5"/>
<text text-anchor="start" x="915" y="-318.5" font-family="Helvetica,sans-Serif" font-size="10.00" fill="#000000">/home/travis/build</text>
<text text-anchor="start" x="915" y="-307.5" font-family="Helvetica,sans-Serif" font-size="10.00" fill="#000000">/AliceO2Group/AliceO2</text>
<text text-anchor="start" x="915" y="-296.5" font-family="Helvetica,sans-Serif" font-size="10.00" fill="#000000">/Detectors/Raw/include</text>
<text text-anchor="middle" x="979" y="-285.5" font-family="Helvetica,sans-Serif" font-size="10.00" fill="#000000">/DetectorsRaw/RDHUtils.h</text>
</g>
<!-- Node13 -->
<g id="node2" class="node">
<title>Node13</title>
<g id="a_node2"><a xlink:href="../../df/d70/GBTLink_8cxx.html" target="_top" xlink:title="Definitions of GBTLink class used for the ITS/MFT raw data decoding. ">
<polygon fill="none" stroke="#000000" points="152,-189.5 152,-241.5 322,-241.5 322,-189.5 152,-189.5"/>
<text text-anchor="start" x="160" y="-229.5" font-family="Helvetica,sans-Serif" font-size="10.00" fill="#000000">/home/travis/build</text>
<text text-anchor="start" x="160" y="-218.5" font-family="Helvetica,sans-Serif" font-size="10.00" fill="#000000">/AliceO2Group/AliceO2</text>
<text text-anchor="start" x="160" y="-207.5" font-family="Helvetica,sans-Serif" font-size="10.00" fill="#000000">/Detectors/ITSMFT/common</text>
<text text-anchor="middle" x="237" y="-196.5" font-family="Helvetica,sans-Serif" font-size="10.00" fill="#000000">/reconstruction/src/GBTLink.cxx</text>
</a>
</g>
</g>
<!-- Node12&#45;&gt;Node13 -->
<g id="edge1" class="edge">
<title>Node12&#45;&gt;Node13</title>
<path fill="none" stroke="#191970" d="M896.828,-301.279C773.1585,-295.3744 532.2362,-279.7569 331,-242 328.0837,-241.4528 325.1268,-240.8566 322.1485,-240.2207"/>
<polygon fill="#191970" stroke="#191970" points="896.8237,-304.7826 906.9765,-301.7542 897.1512,-297.7902 896.8237,-304.7826"/>
</g>
<!-- Node14 -->
<g id="node3" class="node">
<title>Node14</title>
<g id="a_node3"><a xlink:href="../../dd/df6/RawPixelDecoder_8cxx.html" target="_top" xlink:title="Alpide pixel reader for raw data processing. ">
<polygon fill="none" stroke="#000000" points="340.5,-189.5 340.5,-241.5 555.5,-241.5 555.5,-189.5 340.5,-189.5"/>
<text text-anchor="start" x="348.5" y="-229.5" font-family="Helvetica,sans-Serif" font-size="10.00" fill="#000000">/home/travis/build</text>
<text text-anchor="start" x="348.5" y="-218.5" font-family="Helvetica,sans-Serif" font-size="10.00" fill="#000000">/AliceO2Group/AliceO2</text>
<text text-anchor="start" x="348.5" y="-207.5" font-family="Helvetica,sans-Serif" font-size="10.00" fill="#000000">/Detectors/ITSMFT/common</text>
<text text-anchor="middle" x="448" y="-196.5" font-family="Helvetica,sans-Serif" font-size="10.00" fill="#000000">/reconstruction/src/RawPixelDecoder.cxx</text>
</a>
</g>
</g>
<!-- Node12&#45;&gt;Node14 -->
<g id="edge2" class="edge">
<title>Node12&#45;&gt;Node14</title>
<path fill="none" stroke="#191970" d="M896.6368,-293.4494C813.8594,-281.9828 682.7287,-262.8353 570,-242 565.311,-241.1334 560.527,-240.22 555.6988,-239.2742"/>
<polygon fill="#191970" stroke="#191970" points="896.3526,-296.9433 906.7373,-294.8437 897.3099,-290.0091 896.3526,-296.9433"/>
</g>
<!-- Node15 -->
<g id="node4" class="node">
<title>Node15</title>
<g id="a_node4"><a xlink:href="../../d8/d6b/MC2RawEncoder_8cxx.html" target="_top" xlink:title="/home/travis/build\l/AliceO2Group/AliceO2\l/Detectors/ITSMFT/common\l/simulation/src/MC2RawEncoder.cxx">
<polygon fill="none" stroke="#000000" points="971,-.5 971,-52.5 1163,-52.5 1163,-.5 971,-.5"/>
<text text-anchor="start" x="979" y="-40.5" font-family="Helvetica,sans-Serif" font-size="10.00" fill="#000000">/home/travis/build</text>
<text text-anchor="start" x="979" y="-29.5" font-family="Helvetica,sans-Serif" font-size="10.00" fill="#000000">/AliceO2Group/AliceO2</text>
<text text-anchor="start" x="979" y="-18.5" font-family="Helvetica,sans-Serif" font-size="10.00" fill="#000000">/Detectors/ITSMFT/common</text>
<text text-anchor="middle" x="1067" y="-7.5" font-family="Helvetica,sans-Serif" font-size="10.00" fill="#000000">/simulation/src/MC2RawEncoder.cxx</text>
</a>
</g>
</g>
<!-- Node12&#45;&gt;Node15 -->
<g id="edge3" class="edge">
<title>Node12&#45;&gt;Node15</title>
<path fill="none" stroke="#191970" d="M954.7732,-269.7789C949.9255,-261.087 945.5449,-251.5169 943,-242 925.4336,-176.3081 907.3435,-146.9017 943,-89 952.6073,-73.399 967.4389,-61.5527 983.5463,-52.6067"/>
<polygon fill="#191970" stroke="#191970" points="951.8233,-271.6663 959.9367,-278.4797 957.8431,-268.0938 951.8233,-271.6663"/>
</g>
<!-- Node16 -->
<g id="node5" class="node">
<title>Node16</title>
<g id="a_node5"><a xlink:href="../../de/da2/Raw_2include_2DetectorsRaw_2RawFileReader_8h.html" target="_top" xlink:title="/home/travis/build\l/AliceO2Group/AliceO2\l/Detectors/Raw/include\l/DetectorsRaw/RawFileReader.h">
<polygon fill="none" stroke="#000000" points="612,-189.5 612,-241.5 782,-241.5 782,-189.5 612,-189.5"/>
<text text-anchor="start" x="620" y="-229.5" font-family="Helvetica,sans-Serif" font-size="10.00" fill="#000000">/home/travis/build</text>
<text text-anchor="start" x="620" y="-218.5" font-family="Helvetica,sans-Serif" font-size="10.00" fill="#000000">/AliceO2Group/AliceO2</text>
<text text-anchor="start" x="620" y="-207.5" font-family="Helvetica,sans-Serif" font-size="10.00" fill="#000000">/Detectors/Raw/include</text>
<text text-anchor="middle" x="697" y="-196.5" font-family="Helvetica,sans-Serif" font-size="10.00" fill="#000000">/DetectorsRaw/RawFileReader.h</text>
</a>
</g>
</g>
<!-- Node12&#45;&gt;Node16 -->
<g id="edge4" class="edge">
<title>Node12&#45;&gt;Node16</title>
<path fill="none" stroke="#191970" d="M897.0095,-278.6236C860.0738,-266.9666 816.5464,-253.2292 779.5451,-241.5515"/>
<polygon fill="#191970" stroke="#191970" points="896.1544,-282.0238 906.7442,-281.6959 898.2613,-275.3484 896.1544,-282.0238"/>
</g>
<!-- Node19 -->
<g id="node8" class="node">
<title>Node19</title>
<g id="a_node8"><a xlink:href="../../d3/d09/testRawReaderWriter_8cxx.html" target="_top" xlink:title="/home/travis/build\l/AliceO2Group/AliceO2\l/Detectors/Raw/test/testRawReader\lWriter.cxx">
<polygon fill="none" stroke="#000000" points="753.5,-.5 753.5,-52.5 942.5,-52.5 942.5,-.5 753.5,-.5"/>
<text text-anchor="start" x="761.5" y="-40.5" font-family="Helvetica,sans-Serif" font-size="10.00" fill="#000000">/home/travis/build</text>
<text text-anchor="start" x="761.5" y="-29.5" font-family="Helvetica,sans-Serif" font-size="10.00" fill="#000000">/AliceO2Group/AliceO2</text>
<text text-anchor="start" x="761.5" y="-18.5" font-family="Helvetica,sans-Serif" font-size="10.00" fill="#000000">/Detectors/Raw/test/testRawReader</text>
<text text-anchor="middle" x="848" y="-7.5" font-family="Helvetica,sans-Serif" font-size="10.00" fill="#000000">Writer.cxx</text>
</a>
</g>
</g>
<!-- Node12&#45;&gt;Node19 -->
<g id="edge22" class="edge">
<title>Node12&#45;&gt;Node19</title>
<path fill="none" stroke="#191970" d="M946.5445,-270.6531C938.9188,-261.7394 931.2133,-251.8494 925,-242 885.7847,-179.8356 863.0359,-94.9772 853.4338,-52.6889"/>
<polygon fill="#191970" stroke="#191970" points="943.9552,-273.0088 953.1858,-278.2095 949.2131,-268.3877 943.9552,-273.0088"/>
</g>
<!-- Node21 -->
<g id="node10" class="node">
<title>Node21</title>
<g id="a_node10"><a xlink:href="../../db/de5/Raw_2src_2RawFileReader_8cxx.html" target="_top" xlink:title="/home/travis/build\l/AliceO2Group/AliceO2\l/Detectors/Raw/src/RawFileReader.cxx">
<polygon fill="none" stroke="#000000" points="0,-100.5 0,-141.5 202,-141.5 202,-100.5 0,-100.5"/>
<text text-anchor="start" x="8" y="-129.5" font-family="Helvetica,sans-Serif" font-size="10.00" fill="#000000">/home/travis/build</text>
<text text-anchor="start" x="8" y="-118.5" font-family="Helvetica,sans-Serif" font-size="10.00" fill="#000000">/AliceO2Group/AliceO2</text>
<text text-anchor="middle" x="101" y="-107.5" font-family="Helvetica,sans-Serif" font-size="10.00" fill="#000000">/Detectors/Raw/src/RawFileReader.cxx</text>
</a>
</g>
</g>
<!-- Node12&#45;&gt;Node21 -->
<g id="edge19" class="edge">
<title>Node12&#45;&gt;Node21</title>
<path fill="none" stroke="#191970" d="M896.5301,-298.05C801.1097,-289.3437 650.9508,-271.4362 603,-242 578.076,-226.6996 589.3941,-203.5068 564,-189 495.533,-149.8872 288.3969,-168.0748 211,-153 195.6752,-150.0152 179.4057,-145.8519 164.2118,-141.5137"/>
<polygon fill="#191970" stroke="#191970" points="896.4623,-301.5578 906.735,-298.9651 897.0876,-294.5858 896.4623,-301.5578"/>
</g>
<!-- Node22 -->
<g id="node11" class="node">
<title>Node22</title>
<g id="a_node11"><a xlink:href="../../d3/d87/RawFileReaderWorkflow_8cxx.html" target="_top" xlink:title="/home/travis/build\l/AliceO2Group/AliceO2\l/Detectors/Raw/src/RawFileReader\lWorkflow.cxx">
<polygon fill="none" stroke="#000000" points="638,-95 638,-147 820,-147 820,-95 638,-95"/>
<text text-anchor="start" x="646" y="-135" font-family="Helvetica,sans-Serif" font-size="10.00" fill="#000000">/home/travis/build</text>
<text text-anchor="start" x="646" y="-124" font-family="Helvetica,sans-Serif" font-size="10.00" fill="#000000">/AliceO2Group/AliceO2</text>
<text text-anchor="start" x="646" y="-113" font-family="Helvetica,sans-Serif" font-size="10.00" fill="#000000">/Detectors/Raw/src/RawFileReader</text>
<text text-anchor="middle" x="729" y="-102" font-family="Helvetica,sans-Serif" font-size="10.00" fill="#000000">Workflow.cxx</text>
</a>
</g>
</g>
<!-- Node12&#45;&gt;Node22 -->
<g id="edge20" class="edge">
<title>Node12&#45;&gt;Node22</title>
<path fill="none" stroke="#191970" d="M897.433,-277.4502C875.6534,-268.1243 852.9315,-256.3345 834,-242 809.8171,-223.6892 810.7823,-211.9948 791,-189 778.9139,-174.9513 765.0509,-159.6723 753.5028,-147.1625"/>
<polygon fill="#191970" stroke="#191970" points="896.118,-280.6939 906.6956,-281.2964 898.8024,-274.229 896.118,-280.6939"/>
</g>
<!-- Node23 -->
<g id="node12" class="node">
<title>Node23</title>
<g id="a_node12"><a xlink:href="../../da/d08/RawFileWriter_8h.html" target="_top" xlink:title="Utility class to write detectors data to (multiple) raw data file(s) respecting CRU format...">
<polygon fill="none" stroke="#000000" points="952,-189.5 952,-241.5 1118,-241.5 1118,-189.5 952,-189.5"/>
<text text-anchor="start" x="960" y="-229.5" font-family="Helvetica,sans-Serif" font-size="10.00" fill="#000000">/home/travis/build</text>
<text text-anchor="start" x="960" y="-218.5" font-family="Helvetica,sans-Serif" font-size="10.00" fill="#000000">/AliceO2Group/AliceO2</text>
<text text-anchor="start" x="960" y="-207.5" font-family="Helvetica,sans-Serif" font-size="10.00" fill="#000000">/Detectors/Raw/include</text>
<text text-anchor="middle" x="1035" y="-196.5" font-family="Helvetica,sans-Serif" font-size="10.00" fill="#000000">/DetectorsRaw/RawFileWriter.h</text>
</a>
</g>
</g>
<!-- Node12&#45;&gt;Node23 -->
<g id="edge11" class="edge">
<title>Node12&#45;&gt;Node23</title>
<path fill="none" stroke="#191970" d="M1000.9823,-269.5639C1006.8575,-260.2264 1013.1038,-250.2993 1018.619,-241.5341"/>
<polygon fill="#191970" stroke="#191970" points="997.8622,-267.9505 995.499,-278.2784 1003.787,-271.6785 997.8622,-267.9505"/>
</g>
<!-- Node28 -->
<g id="node17" class="node">
<title>Node28</title>
<g id="a_node17"><a xlink:href="../../dc/da0/HBFUtils_8cxx.html" target="_top" xlink:title="/home/travis/build\l/AliceO2Group/AliceO2\l/Detectors/Raw/src/HBFUtils.cxx">
<polygon fill="none" stroke="#000000" points="1307.5,-195 1307.5,-236 1480.5,-236 1480.5,-195 1307.5,-195"/>
<text text-anchor="start" x="1315.5" y="-224" font-family="Helvetica,sans-Serif" font-size="10.00" fill="#000000">/home/travis/build</text>
<text text-anchor="start" x="1315.5" y="-213" font-family="Helvetica,sans-Serif" font-size="10.00" fill="#000000">/AliceO2Group/AliceO2</text>
<text text-anchor="middle" x="1394" y="-202" font-family="Helvetica,sans-Serif" font-size="10.00" fill="#000000">/Detectors/Raw/src/HBFUtils.cxx</text>
</a>
</g>
</g>
<!-- Node12&#45;&gt;Node28 -->
<g id="edge18" class="edge">
<title>Node12&#45;&gt;Node28</title>
<path fill="none" stroke="#191970" d="M1061.3214,-290.2731C1126.1811,-278.6186 1218.7416,-261.0002 1299,-242 1306.7479,-240.1658 1314.8155,-238.1236 1322.831,-236.0095"/>
<polygon fill="#191970" stroke="#191970" points="1060.3831,-286.8853 1051.1557,-292.0916 1061.6158,-293.7759 1060.3831,-286.8853"/>
</g>
<!-- Node29 -->
<g id="node18" class="node">
<title>Node29</title>
<g id="a_node18"><a xlink:href="../../d0/d9e/RDHUtils_8cxx.html" target="_top" xlink:title="/home/travis/build\l/AliceO2Group/AliceO2\l/Detectors/Raw/src/RDHUtils.cxx">
<polygon fill="none" stroke="#000000" points="1499,-195 1499,-236 1675,-236 1675,-195 1499,-195"/>
<text text-anchor="start" x="1507" y="-224" font-family="Helvetica,sans-Serif" font-size="10.00" fill="#000000">/home/travis/build</text>
<text text-anchor="start" x="1507" y="-213" font-family="Helvetica,sans-Serif" font-size="10.00" fill="#000000">/AliceO2Group/AliceO2</text>
<text text-anchor="middle" x="1587" y="-202" font-family="Helvetica,sans-Serif" font-size="10.00" fill="#000000">/Detectors/Raw/src/RDHUtils.cxx</text>
</a>
</g>
</g>
<!-- Node12&#45;&gt;Node29 -->
<g id="edge21" class="edge">
<title>Node12&#45;&gt;Node29</title>
<path fill="none" stroke="#191970" d="M1061.2092,-298.1411C1162.664,-289.447 1340.1432,-271.4731 1490,-242 1498.6503,-240.2987 1507.6624,-238.2374 1516.557,-236.0244"/>
<polygon fill="#191970" stroke="#191970" points="1060.6981,-294.6718 1051.0295,-299.0041 1061.2895,-301.6468 1060.6981,-294.6718"/>
</g>
<!-- Node30 -->
<g id="node19" class="node">
<title>Node30</title>
<g id="a_node19"><a xlink:href="../../d8/d7f/Compressor_8cxx.html" target="_top" xlink:title="/home/travis/build\l/AliceO2Group/AliceO2\l/Detectors/TOF/compression\l/src/Compressor.cxx">
<polygon fill="none" stroke="#000000" points="1693,-189.5 1693,-241.5 1847,-241.5 1847,-189.5 1693,-189.5"/>
<text text-anchor="start" x="1701" y="-229.5" font-family="Helvetica,sans-Serif" font-size="10.00" fill="#000000">/home/travis/build</text>
<text text-anchor="start" x="1701" y="-218.5" font-family="Helvetica,sans-Serif" font-size="10.00" fill="#000000">/AliceO2Group/AliceO2</text>
<text text-anchor="start" x="1701" y="-207.5" font-family="Helvetica,sans-Serif" font-size="10.00" fill="#000000">/Detectors/TOF/compression</text>
<text text-anchor="middle" x="1770" y="-196.5" font-family="Helvetica,sans-Serif" font-size="10.00" fill="#000000">/src/Compressor.cxx</text>
</a>
</g>
</g>
<!-- Node12&#45;&gt;Node30 -->
<g id="edge23" class="edge">
<title>Node12&#45;&gt;Node30</title>
<path fill="none" stroke="#191970" d="M1061.3213,-302.8041C1193.705,-298.8274 1461.5987,-285.6179 1684,-242 1686.9129,-241.4287 1689.8672,-240.7962 1692.8406,-240.1148"/>
<polygon fill="#191970" stroke="#191970" points="1061.148,-299.3075 1051.2538,-303.0964 1061.3513,-306.3046 1061.148,-299.3075"/>
</g>
<!-- Node31 -->
<g id="node20" class="node">
<title>Node31</title>
<g id="a_node20"><a xlink:href="../../d1/d15/DecoderBase_8cxx.html" target="_top" xlink:title="/home/travis/build\l/AliceO2Group/AliceO2\l/Detectors/TOF/reconstruction\l/src/DecoderBase.cxx">
<polygon fill="none" stroke="#000000" points="1865.5,-189.5 1865.5,-241.5 2026.5,-241.5 2026.5,-189.5 1865.5,-189.5"/>
<text text-anchor="start" x="1873.5" y="-229.5" font-family="Helvetica,sans-Serif" font-size="10.00" fill="#000000">/home/travis/build</text>
<text text-anchor="start" x="1873.5" y="-218.5" font-family="Helvetica,sans-Serif" font-size="10.00" fill="#000000">/AliceO2Group/AliceO2</text>
<text text-anchor="start" x="1873.5" y="-207.5" font-family="Helvetica,sans-Serif" font-size="10.00" fill="#000000">/Detectors/TOF/reconstruction</text>
<text text-anchor="middle" x="1946" y="-196.5" font-family="Helvetica,sans-Serif" font-size="10.00" fill="#000000">/src/DecoderBase.cxx</text>
</a>
</g>
</g>
<!-- Node12&#45;&gt;Node31 -->
<g id="edge24" class="edge">
<title>Node12&#45;&gt;Node31</title>
<path fill="none" stroke="#191970" d="M1061.3116,-300.8999C1249.1478,-292.317 1704.8153,-269.3156 1856,-242 1859.0455,-241.4498 1862.1346,-240.8352 1865.2442,-240.169"/>
<polygon fill="#191970" stroke="#191970" points="1061.0499,-297.4081 1051.2193,-301.359 1061.3681,-304.4009 1061.0499,-297.4081"/>
</g>
<!-- Node32 -->
<g id="node21" class="node">
<title>Node32</title>
<g id="a_node21"><a xlink:href="../../db/d0d/TPC_2base_2include_2TPCBase_2RDHUtils_8h.html" target="_top" xlink:title="/home/travis/build\l/AliceO2Group/AliceO2\l/Detectors/TPC/base/include\l/TPCBase/RDHUtils.h">
<polygon fill="none" stroke="#000000" points="1136.5,-189.5 1136.5,-241.5 1289.5,-241.5 1289.5,-189.5 1136.5,-189.5"/>
<text text-anchor="start" x="1144.5" y="-229.5" font-family="Helvetica,sans-Serif" font-size="10.00" fill="#000000">/home/travis/build</text>
<text text-anchor="start" x="1144.5" y="-218.5" font-family="Helvetica,sans-Serif" font-size="10.00" fill="#000000">/AliceO2Group/AliceO2</text>
<text text-anchor="start" x="1144.5" y="-207.5" font-family="Helvetica,sans-Serif" font-size="10.00" fill="#000000">/Detectors/TPC/base/include</text>
<text text-anchor="middle" x="1213" y="-196.5" font-family="Helvetica,sans-Serif" font-size="10.00" fill="#000000">/TPCBase/RDHUtils.h</text>
</a>
</g>
</g>
<!-- Node12&#45;&gt;Node32 -->
<g id="edge25" class="edge">
<title>Node12&#45;&gt;Node32</title>
<path fill="none" stroke="#191970" d="M1057.0661,-274.8082C1085.3199,-264.0621 1116.9925,-252.0157 1144.3746,-241.6011"/>
<polygon fill="#191970" stroke="#191970" points="1055.7291,-271.572 1047.6266,-278.3984 1058.2177,-278.1148 1055.7291,-271.572"/>
</g>
<!-- Node35 -->
<g id="node24" class="node">
<title>Node35</title>
<g id="a_node24"><a xlink:href="../../d4/dbe/GPURawData_8h.html" target="_top" xlink:title="/home/travis/build\l/AliceO2Group/AliceO2\l/GPU/GPUTracking/Base\l/GPURawData.h">
<polygon fill="none" stroke="#000000" points="2045,-189.5 2045,-241.5 2177,-241.5 2177,-189.5 2045,-189.5"/>
<text text-anchor="start" x="2053" y="-229.5" font-family="Helvetica,sans-Serif" font-size="10.00" fill="#000000">/home/travis/build</text>
<text text-anchor="start" x="2053" y="-218.5" font-family="Helvetica,sans-Serif" font-size="10.00" fill="#000000">/AliceO2Group/AliceO2</text>
<text text-anchor="start" x="2053" y="-207.5" font-family="Helvetica,sans-Serif" font-size="10.00" fill="#000000">/GPU/GPUTracking/Base</text>
<text text-anchor="middle" x="2111" y="-196.5" font-family="Helvetica,sans-Serif" font-size="10.00" fill="#000000">/GPURawData.h</text>
</a>
</g>
</g>
<!-- Node12&#45;&gt;Node35 -->
<g id="edge29" class="edge">
<title>Node12&#45;&gt;Node35</title>
<path fill="none" stroke="#191970" d="M1061.4281,-302.6088C1276.3341,-297.2013 1849.9632,-279.5859 2036,-242 2038.8426,-241.4257 2041.7235,-240.7673 2044.6174,-240.0424"/>
<polygon fill="#191970" stroke="#191970" points="1061.071,-299.1165 1051.1613,-302.8647 1061.2455,-306.1144 1061.071,-299.1165"/>
</g>
<!-- Node17 -->
<g id="node6" class="node">
<title>Node17</title>
<g id="a_node6"><a xlink:href="../../d6/dad/SimpleRawReader_8h.html" target="_top" xlink:title="Definition of the simple reader for non&#45;DPL tests. ">
<polygon fill="none" stroke="#000000" points="220,-95 220,-147 408,-147 408,-95 220,-95"/>
<text text-anchor="start" x="228" y="-135" font-family="Helvetica,sans-Serif" font-size="10.00" fill="#000000">/home/travis/build</text>
<text text-anchor="start" x="228" y="-124" font-family="Helvetica,sans-Serif" font-size="10.00" fill="#000000">/AliceO2Group/AliceO2</text>
<text text-anchor="start" x="228" y="-113" font-family="Helvetica,sans-Serif" font-size="10.00" fill="#000000">/Detectors/Raw/include</text>
<text text-anchor="middle" x="314" y="-102" font-family="Helvetica,sans-Serif" font-size="10.00" fill="#000000">/DetectorsRaw/SimpleRawReader.h</text>
</a>
</g>
</g>
<!-- Node16&#45;&gt;Node17 -->
<g id="edge5" class="edge">
<title>Node16&#45;&gt;Node17</title>
<path fill="none" stroke="#191970" d="M601.8251,-189.8996C600.5427,-189.5953 599.2671,-189.2953 598,-189 518.1199,-170.386 496.4951,-173.1951 417,-153 409.8313,-151.1789 402.4227,-149.1579 395.0188,-147.042"/>
<polygon fill="#191970" stroke="#191970" points="601.2233,-193.3549 611.7662,-192.3068 602.8708,-186.5516 601.2233,-193.3549"/>
</g>
<!-- Node20 -->
<g id="node9" class="node">
<title>Node20</title>
<g id="a_node9"><a xlink:href="../../d0/d6f/rawfileCheck_8cxx.html" target="_top" xlink:title="/home/travis/build\l/AliceO2Group/AliceO2\l/Detectors/Raw/src/rawfileCheck.cxx">
<polygon fill="none" stroke="#000000" points="426,-100.5 426,-141.5 620,-141.5 620,-100.5 426,-100.5"/>
<text text-anchor="start" x="434" y="-129.5" font-family="Helvetica,sans-Serif" font-size="10.00" fill="#000000">/home/travis/build</text>
<text text-anchor="start" x="434" y="-118.5" font-family="Helvetica,sans-Serif" font-size="10.00" fill="#000000">/AliceO2Group/AliceO2</text>
<text text-anchor="middle" x="523" y="-107.5" font-family="Helvetica,sans-Serif" font-size="10.00" fill="#000000">/Detectors/Raw/src/rawfileCheck.cxx</text>
</a>
</g>
</g>
<!-- Node16&#45;&gt;Node20 -->
<g id="edge8" class="edge">
<title>Node16&#45;&gt;Node20</title>
<path fill="none" stroke="#191970" d="M640.0036,-184.5451C614.06,-170.455 584.0599,-154.1619 560.9331,-141.6016"/>
<polygon fill="#191970" stroke="#191970" points="638.5351,-187.7303 648.9931,-189.4273 641.8759,-181.579 638.5351,-187.7303"/>
</g>
<!-- Node16&#45;&gt;Node21 -->
<g id="edge9" class="edge">
<title>Node16&#45;&gt;Node21</title>
<path fill="none" stroke="#191970" d="M601.8635,-189.7127C600.5691,-189.4671 599.2807,-189.2293 598,-189 427.9609,-158.5583 380.7012,-185.2721 211,-153 195.5644,-150.0646 179.1802,-145.8935 163.9027,-141.529"/>
<polygon fill="#191970" stroke="#191970" points="601.3878,-193.1873 611.8832,-191.7387 602.7752,-186.3262 601.3878,-193.1873"/>
</g>
<!-- Node16&#45;&gt;Node22 -->
<g id="edge10" class="edge">
<title>Node16&#45;&gt;Node22</title>
<path fill="none" stroke="#191970" d="M709.08,-179.8263C712.735,-169.0326 716.6808,-157.38 720.0889,-147.3157"/>
<polygon fill="#191970" stroke="#191970" points="705.7212,-178.833 705.8288,-189.4273 712.3514,-181.0782 705.7212,-178.833"/>
</g>
<!-- Node18 -->
<g id="node7" class="node">
<title>Node18</title>
<g id="a_node7"><a xlink:href="../../d5/dfd/SimpleRawReader_8cxx.html" target="_top" xlink:title="Simple reader for non&#45;DPL tests. ">
<polygon fill="none" stroke="#000000" points="231,-.5 231,-52.5 397,-52.5 397,-.5 231,-.5"/>
<text text-anchor="start" x="239" y="-40.5" font-family="Helvetica,sans-Serif" font-size="10.00" fill="#000000">/home/travis/build</text>
<text text-anchor="start" x="239" y="-29.5" font-family="Helvetica,sans-Serif" font-size="10.00" fill="#000000">/AliceO2Group/AliceO2</text>
<text text-anchor="start" x="239" y="-18.5" font-family="Helvetica,sans-Serif" font-size="10.00" fill="#000000">/Detectors/Raw/src/SimpleRaw</text>
<text text-anchor="middle" x="314" y="-7.5" font-family="Helvetica,sans-Serif" font-size="10.00" fill="#000000">Reader.cxx</text>
</a>
</g>
</g>
<!-- Node17&#45;&gt;Node18 -->
<g id="edge6" class="edge">
<title>Node17&#45;&gt;Node18</title>
<path fill="none" stroke="#191970" d="M314,-84.6645C314,-74.0577 314,-62.6746 314,-52.8157"/>
<polygon fill="#191970" stroke="#191970" points="310.5001,-84.9273 314,-94.9273 317.5001,-84.9273 310.5001,-84.9273"/>
</g>
<!-- Node17&#45;&gt;Node19 -->
<g id="edge7" class="edge">
<title>Node17&#45;&gt;Node19</title>
<path fill="none" stroke="#191970" d="M403.4964,-92.2763C408.0456,-91.1051 412.5655,-90.0038 417,-89 531.4864,-63.0839 665.6247,-45.6152 753.474,-35.8794"/>
<polygon fill="#191970" stroke="#191970" points="402.2714,-88.9807 393.5123,-94.9414 404.0767,-95.7439 402.2714,-88.9807"/>
</g>
<!-- Node23&#45;&gt;Node19 -->
<g id="edge16" class="edge">
<title>Node23&#45;&gt;Node19</title>
<path fill="none" stroke="#191970" d="M981.56,-183.5545C968.2971,-174.4819 954.5773,-164.0411 943,-153 910.8014,-122.2926 881.3112,-79.7921 863.9956,-52.721"/>
<polygon fill="#191970" stroke="#191970" points="979.9224,-186.6695 990.1826,-189.3115 983.8094,-180.8479 979.9224,-186.6695"/>
</g>
<!-- Node24 -->
<g id="node13" class="node">
<title>Node24</title>
<g id="a_node13"><a xlink:href="../../df/d56/MC2RawEncoder_8h.html" target="_top" xlink:title="Definition of the ITS/MFT Alpide pixel MC&#45;&gt;raw converter. ">
<polygon fill="none" stroke="#000000" points="1168,-89.5 1168,-152.5 1368,-152.5 1368,-89.5 1168,-89.5"/>
<text text-anchor="start" x="1176" y="-140.5" font-family="Helvetica,sans-Serif" font-size="10.00" fill="#000000">/home/travis/build</text>
<text text-anchor="start" x="1176" y="-129.5" font-family="Helvetica,sans-Serif" font-size="10.00" fill="#000000">/AliceO2Group/AliceO2</text>
<text text-anchor="start" x="1176" y="-118.5" font-family="Helvetica,sans-Serif" font-size="10.00" fill="#000000">/Detectors/ITSMFT/common</text>
<text text-anchor="start" x="1176" y="-107.5" font-family="Helvetica,sans-Serif" font-size="10.00" fill="#000000">/simulation/include/ITSMFTSimulation</text>
<text text-anchor="middle" x="1268" y="-96.5" font-family="Helvetica,sans-Serif" font-size="10.00" fill="#000000">/MC2RawEncoder.h</text>
</a>
</g>
</g>
<!-- Node23&#45;&gt;Node24 -->
<g id="edge12" class="edge">
<title>Node23&#45;&gt;Node24</title>
<path fill="none" stroke="#191970" d="M1108.695,-185.6108C1134.6729,-175.0747 1163.9491,-163.2009 1190.2512,-152.5333"/>
<polygon fill="#191970" stroke="#191970" points="1107.2364,-182.4254 1099.2851,-189.4273 1109.8674,-188.9122 1107.2364,-182.4254"/>
</g>
<!-- Node26 -->
<g id="node15" class="node">
<title>Node26</title>
<g id="a_node15"><a xlink:href="../../df/dd8/RawFileWriter_8cxx.html" target="_top" xlink:title="Utility class to write detectors data to (multiple) raw data file(s) respecting CRU format...">
<polygon fill="none" stroke="#000000" points="952.5,-100.5 952.5,-141.5 1149.5,-141.5 1149.5,-100.5 952.5,-100.5"/>
<text text-anchor="start" x="960.5" y="-129.5" font-family="Helvetica,sans-Serif" font-size="10.00" fill="#000000">/home/travis/build</text>
<text text-anchor="start" x="960.5" y="-118.5" font-family="Helvetica,sans-Serif" font-size="10.00" fill="#000000">/AliceO2Group/AliceO2</text>
<text text-anchor="middle" x="1051" y="-107.5" font-family="Helvetica,sans-Serif" font-size="10.00" fill="#000000">/Detectors/Raw/src/RawFileWriter.cxx</text>
</a>
</g>
</g>
<!-- Node23&#45;&gt;Node26 -->
<g id="edge15" class="edge">
<title>Node23&#45;&gt;Node26</title>
<path fill="none" stroke="#191970" d="M1041.0988,-179.4791C1043.2684,-166.6648 1045.636,-152.681 1047.5119,-141.6016"/>
<polygon fill="#191970" stroke="#191970" points="1037.633,-178.9833 1039.4144,-189.4273 1044.5348,-180.1519 1037.633,-178.9833"/>
</g>
<!-- Node27 -->
<g id="node16" class="node">
<title>Node27</title>
<g id="a_node16"><a xlink:href="../../df/d6c/convertDigitsToRawZS_8cxx.html" target="_top" xlink:title="/home/travis/build\l/AliceO2Group/AliceO2\l/Detectors/TPC/simulation\l/run/convertDigitsToRawZS.cxx">
<polygon fill="none" stroke="#000000" points="1386,-95 1386,-147 1554,-147 1554,-95 1386,-95"/>
<text text-anchor="start" x="1394" y="-135" font-family="Helvetica,sans-Serif" font-size="10.00" fill="#000000">/home/travis/build</text>
<text text-anchor="start" x="1394" y="-124" font-family="Helvetica,sans-Serif" font-size="10.00" fill="#000000">/AliceO2Group/AliceO2</text>
<text text-anchor="start" x="1394" y="-113" font-family="Helvetica,sans-Serif" font-size="10.00" fill="#000000">/Detectors/TPC/simulation</text>
<text text-anchor="middle" x="1470" y="-102" font-family="Helvetica,sans-Serif" font-size="10.00" fill="#000000">/run/convertDigitsToRawZS.cxx</text>
</a>
</g>
</g>
<!-- Node23&#45;&gt;Node27 -->
<g id="edge17" class="edge">
<title>Node23&#45;&gt;Node27</title>
<path fill="none" stroke="#191970" d="M1127.9875,-188.9237C1238.5764,-166.1674 1270.9763,-178.6321 1377,-153 1384.1366,-151.2747 1391.4996,-149.2261 1398.8116,-147.0116"/>
<polygon fill="#191970" stroke="#191970" points="1127.1778,-185.5173 1118.1149,-191.005 1128.6218,-192.3668 1127.1778,-185.5173"/>
</g>
<!-- Node24&#45;&gt;Node15 -->
<g id="edge13" class="edge">
<title>Node24&#45;&gt;Node15</title>
<path fill="none" stroke="#191970" d="M1191.7232,-85.1385C1168.6838,-74.3065 1143.8382,-62.6254 1122.4328,-52.5617"/>
<polygon fill="#191970" stroke="#191970" points="1190.2516,-88.3141 1200.7905,-89.4015 1193.2299,-81.9793 1190.2516,-88.3141"/>
</g>
<!-- Node25 -->
<g id="node14" class="node">
<title>Node25</title>
<g id="a_node14"><a xlink:href="../../d1/d8e/digi2raw_8cxx.html" target="_top" xlink:title="/home/travis/build\l/AliceO2Group/AliceO2\l/Detectors/ITSMFT/ITS\l/simulation/src/digi2raw.cxx">
<polygon fill="none" stroke="#000000" points="1191.5,-.5 1191.5,-52.5 1344.5,-52.5 1344.5,-.5 1191.5,-.5"/>
<text text-anchor="start" x="1199.5" y="-40.5" font-family="Helvetica,sans-Serif" font-size="10.00" fill="#000000">/home/travis/build</text>
<text text-anchor="start" x="1199.5" y="-29.5" font-family="Helvetica,sans-Serif" font-size="10.00" fill="#000000">/AliceO2Group/AliceO2</text>
<text text-anchor="start" x="1199.5" y="-18.5" font-family="Helvetica,sans-Serif" font-size="10.00" fill="#000000">/Detectors/ITSMFT/ITS</text>
<text text-anchor="middle" x="1268" y="-7.5" font-family="Helvetica,sans-Serif" font-size="10.00" fill="#000000">/simulation/src/digi2raw.cxx</text>
</a>
</g>
</g>
<!-- Node24&#45;&gt;Node25 -->
<g id="edge14" class="edge">
<title>Node24&#45;&gt;Node25</title>
<path fill="none" stroke="#191970" d="M1268,-79.2457C1268,-70.2008 1268,-60.8836 1268,-52.6442"/>
<polygon fill="#191970" stroke="#191970" points="1264.5001,-79.2699 1268,-89.27 1271.5001,-79.27 1264.5001,-79.2699"/>
</g>
<!-- Node32&#45;&gt;Node27 -->
<g id="edge27" class="edge">
<title>Node32&#45;&gt;Node27</title>
<path fill="none" stroke="#191970" d="M1293.2952,-185.9751C1327.1052,-173.543 1366.1222,-159.1963 1398.879,-147.1515"/>
<polygon fill="#191970" stroke="#191970" points="1292.0844,-182.6911 1283.9067,-189.4273 1294.5002,-189.2611 1292.0844,-182.6911"/>
</g>
<!-- Node33 -->
<g id="node22" class="node">
<title>Node33</title>
<g id="a_node22"><a xlink:href="../../d0/dd1/testRDHUtils_8cxx.html" target="_top" xlink:title="/home/travis/build\l/AliceO2Group/AliceO2\l/Detectors/TPC/base/test\l/testRDHUtils.cxx">
<polygon fill="none" stroke="#000000" points="1572.5,-95 1572.5,-147 1709.5,-147 1709.5,-95 1572.5,-95"/>
<text text-anchor="start" x="1580.5" y="-135" font-family="Helvetica,sans-Serif" font-size="10.00" fill="#000000">/home/travis/build</text>
<text text-anchor="start" x="1580.5" y="-124" font-family="Helvetica,sans-Serif" font-size="10.00" fill="#000000">/AliceO2Group/AliceO2</text>
<text text-anchor="start" x="1580.5" y="-113" font-family="Helvetica,sans-Serif" font-size="10.00" fill="#000000">/Detectors/TPC/base/test</text>
<text text-anchor="middle" x="1641" y="-102" font-family="Helvetica,sans-Serif" font-size="10.00" fill="#000000">/testRDHUtils.cxx</text>
</a>
</g>
</g>
<!-- Node32&#45;&gt;Node33 -->
<g id="edge26" class="edge">
<title>Node32&#45;&gt;Node33</title>
<path fill="none" stroke="#191970" d="M1299.774,-189.0103C1416.5558,-164.5479 1451.7621,-182.8804 1563,-153 1569.2198,-151.3293 1575.6057,-149.2875 1581.9169,-147.0517"/>
<polygon fill="#191970" stroke="#191970" points="1298.7654,-185.6472 1289.728,-191.1768 1300.2411,-192.4899 1298.7654,-185.6472"/>
</g>
<!-- Node34 -->
<g id="node23" class="node">
<title>Node34</title>
<g id="a_node23"><a xlink:href="../../da/d78/CATrackerSpec_8cxx.html" target="_top" xlink:title="Processor spec for running TPC CA tracking. ">
<polygon fill="none" stroke="#000000" points="1728,-95 1728,-147 1864,-147 1864,-95 1728,-95"/>
<text text-anchor="start" x="1736" y="-135" font-family="Helvetica,sans-Serif" font-size="10.00" fill="#000000">/home/travis/build</text>
<text text-anchor="start" x="1736" y="-124" font-family="Helvetica,sans-Serif" font-size="10.00" fill="#000000">/AliceO2Group/AliceO2</text>
<text text-anchor="start" x="1736" y="-113" font-family="Helvetica,sans-Serif" font-size="10.00" fill="#000000">/Detectors/TPC/workflow</text>
<text text-anchor="middle" x="1796" y="-102" font-family="Helvetica,sans-Serif" font-size="10.00" fill="#000000">/src/CATrackerSpec.cxx</text>
</a>
</g>
</g>
<!-- Node32&#45;&gt;Node34 -->
<g id="edge28" class="edge">
<title>Node32&#45;&gt;Node34</title>
<path fill="none" stroke="#191970" d="M1299.749,-189.0651C1484.8427,-154.74 1540.2039,-196.6951 1719,-153 1725.4688,-151.4191 1732.0991,-149.3732 1738.6238,-147.0803"/>
<polygon fill="#191970" stroke="#191970" points="1298.8559,-185.6722 1289.6875,-190.9818 1300.1658,-192.5485 1298.8559,-185.6722"/>
</g>
<!-- Node36 -->
<g id="node25" class="node">
<title>Node36</title>
<g id="a_node25"><a xlink:href="../../db/d5c/GPUTPCCFDecodeZS_8cxx.html" target="_top" xlink:title="/home/travis/build\l/AliceO2Group/AliceO2\l/GPU/GPUTracking/TPCClusterFinder\l/GPUTPCCFDecodeZS.cxx">
<polygon fill="none" stroke="#000000" points="2015.5,-95 2015.5,-147 2206.5,-147 2206.5,-95 2015.5,-95"/>
<text text-anchor="start" x="2023.5" y="-135" font-family="Helvetica,sans-Serif" font-size="10.00" fill="#000000">/home/travis/build</text>
<text text-anchor="start" x="2023.5" y="-124" font-family="Helvetica,sans-Serif" font-size="10.00" fill="#000000">/AliceO2Group/AliceO2</text>
<text text-anchor="start" x="2023.5" y="-113" font-family="Helvetica,sans-Serif" font-size="10.00" fill="#000000">/GPU/GPUTracking/TPCClusterFinder</text>
<text text-anchor="middle" x="2111" y="-102" font-family="Helvetica,sans-Serif" font-size="10.00" fill="#000000">/GPUTPCCFDecodeZS.cxx</text>
</a>
</g>
</g>
<!-- Node35&#45;&gt;Node36 -->
<g id="edge30" class="edge">
<title>Node35&#45;&gt;Node36</title>
<path fill="none" stroke="#191970" d="M2111,-179.1645C2111,-168.5577 2111,-157.1746 2111,-147.3157"/>
<polygon fill="#191970" stroke="#191970" points="2107.5001,-179.4273 2111,-189.4273 2114.5001,-179.4273 2107.5001,-179.4273"/>
</g>
</g>
</svg>
