<?xml version="1.0" encoding="UTF-8" standalone="no"?>
<!DOCTYPE svg PUBLIC "-//W3C//DTD SVG 1.1//EN"
 "http://www.w3.org/Graphics/SVG/1.1/DTD/svg11.dtd">
<!-- Generated by graphviz version 2.40.1 (20161225.0304)
 -->
<!-- Title: GPUCA_NAMESPACE::gpu::ChargePos Pages: 1 -->
<svg width="219pt" height="292pt"
 viewBox="0.00 0.00 219.00 292.00" xmlns="http://www.w3.org/2000/svg" xmlns:xlink="http://www.w3.org/1999/xlink">
<g id="graph0" class="graph" transform="scale(1 1) rotate(0) translate(4 288)">
<title>GPUCA_NAMESPACE::gpu::ChargePos</title>
<!-- Node1 -->
<g id="node1" class="node">
<title>Node1</title>
<polygon fill="#bfbfbf" stroke="#000000" points="40.5,-.5 40.5,-156.5 180.5,-156.5 180.5,-.5 40.5,-.5"/>
<text text-anchor="start" x="48.5" y="-144.5" font-family="Helvetica,sans-Serif" font-size="10.00" fill="#000000">GPUCA_NAMESPACE::gpu</text>
<text text-anchor="middle" x="110.5" y="-133.5" font-family="Helvetica,sans-Serif" font-size="10.00" fill="#000000">::ChargePos</text>
<polyline fill="none" stroke="#000000" points="40.5,-126.5 180.5,-126.5 "/>
<text text-anchor="middle" x="110.5" y="-114.5" font-family="Helvetica,sans-Serif" font-size="10.00" fill="#000000"> </text>
<polyline fill="none" stroke="#000000" points="40.5,-107.5 180.5,-107.5 "/>
<text text-anchor="start" x="48.5" y="-95.5" font-family="Helvetica,sans-Serif" font-size="10.00" fill="#000000">+ GPUdDefault()</text>
<text text-anchor="start" x="48.5" y="-84.5" font-family="Helvetica,sans-Serif" font-size="10.00" fill="#000000">+ GPUdi()</text>
<text text-anchor="start" x="48.5" y="-73.5" font-family="Helvetica,sans-Serif" font-size="10.00" fill="#000000">+ GPUdi()</text>
<text text-anchor="start" x="48.5" y="-62.5" font-family="Helvetica,sans-Serif" font-size="10.00" fill="#000000">+ timePadded()</text>
<text text-anchor="start" x="48.5" y="-51.5" font-family="Helvetica,sans-Serif" font-size="10.00" fill="#000000">+ GPUdi()</text>
<text text-anchor="start" x="48.5" y="-40.5" font-family="Helvetica,sans-Serif" font-size="10.00" fill="#000000">+ GPUdi()</text>
<text text-anchor="start" x="48.5" y="-29.5" font-family="Helvetica,sans-Serif" font-size="10.00" fill="#000000">+ GPUdi()</text>
<text text-anchor="start" x="48.5" y="-18.5" font-family="Helvetica,sans-Serif" font-size="10.00" fill="#000000">+ GPUdi()</text>
<text text-anchor="start" x="48.5" y="-7.5" font-family="Helvetica,sans-Serif" font-size="10.00" fill="#000000">+ GPUdi()</text>
</g>
<!-- Node2 -->
<g id="node2" class="node">
<title>Node2</title>
<g id="a_node2"><a xlink:href="../../dc/d10/classshort.html" target="_top" xlink:title="{short\n||}">
<polygon fill="none" stroke="#000000" points="0,-226.5 0,-283.5 41,-283.5 41,-226.5 0,-226.5"/>
<text text-anchor="middle" x="20.5" y="-271.5" font-family="Helvetica,sans-Serif" font-size="10.00" fill="#000000">short</text>
<polyline fill="none" stroke="#000000" points="0,-264.5 41,-264.5 "/>
<text text-anchor="middle" x="20.5" y="-252.5" font-family="Helvetica,sans-Serif" font-size="10.00" fill="#000000"> </text>
<polyline fill="none" stroke="#000000" points="0,-245.5 41,-245.5 "/>
<text text-anchor="middle" x="20.5" y="-233.5" font-family="Helvetica,sans-Serif" font-size="10.00" fill="#000000"> </text>
</a>
</g>
</g>
<!-- Node2&#45;&gt;Node1 -->
<g id="edge1" class="edge">
<title>Node2&#45;&gt;Node1</title>
<path fill="none" stroke="#404040" d="M24.4426,-226.3136C27.2949,-210.6446 32.0006,-191.1916 39.5,-175 40.6985,-172.4123 41.9724,-169.8249 43.31,-167.2454"/>
<polygon fill="none" stroke="#404040" points="43.3323,-167.2049 42.7349,-160.0185 49.1387,-156.7031 49.7361,-163.8895 43.3323,-167.2049"/>
<text text-anchor="middle" x="73" y="-200" font-family="Helvetica,sans-Serif" font-size="10.00" fill="#000000"> +gpad</text>
<text text-anchor="middle" x="73" y="-189" font-family="Helvetica,sans-Serif" font-size="10.00" fill="#000000">+t</text>
<text text-anchor="middle" x="73" y="-178" font-family="Helvetica,sans-Serif" font-size="10.00" fill="#000000">+timePadded</text>
</g>
<!-- Node3 -->
<g id="node3" class="node">
<title>Node3</title>
<polygon fill="none" stroke="#bfbfbf" points="89,-226.5 89,-283.5 132,-283.5 132,-226.5 89,-226.5"/>
<text text-anchor="middle" x="110.5" y="-271.5" font-family="Helvetica,sans-Serif" font-size="10.00" fill="#000000">const</text>
<polyline fill="none" stroke="#bfbfbf" points="89,-264.5 132,-264.5 "/>
<text text-anchor="middle" x="110.5" y="-252.5" font-family="Helvetica,sans-Serif" font-size="10.00" fill="#000000"> </text>
<polyline fill="none" stroke="#bfbfbf" points="89,-245.5 132,-245.5 "/>
<text text-anchor="middle" x="110.5" y="-233.5" font-family="Helvetica,sans-Serif" font-size="10.00" fill="#000000"> </text>
</g>
<!-- Node3&#45;&gt;Node1 -->
<g id="edge2" class="edge">
<title>Node3&#45;&gt;Node1</title>
<path fill="none" stroke="#404040" d="M110.5,-226.2494C110.5,-210.4081 110.5,-189.7789 110.5,-168.9843"/>
<polygon fill="none" stroke="#404040" points="110.5001,-168.7565 106.5,-162.7566 110.5,-156.7565 114.5,-162.7565 110.5001,-168.7565"/>
<text text-anchor="middle" x="118.5" y="-189" font-family="Helvetica,sans-Serif" font-size="10.00" fill="#000000"> +t</text>
</g>
<!-- Node4 -->
<g id="node4" class="node">
<title>Node4</title>
<polygon fill="none" stroke="#bfbfbf" points="150,-226.5 150,-283.5 211,-283.5 211,-226.5 150,-226.5"/>
<text text-anchor="middle" x="180.5" y="-271.5" font-family="Helvetica,sans-Serif" font-size="10.00" fill="#000000">unsigned</text>
<polyline fill="none" stroke="#bfbfbf" points="150,-264.5 211,-264.5 "/>
<text text-anchor="middle" x="180.5" y="-252.5" font-family="Helvetica,sans-Serif" font-size="10.00" fill="#000000"> </text>
<polyline fill="none" stroke="#bfbfbf" points="150,-245.5 211,-245.5 "/>
<text text-anchor="middle" x="180.5" y="-233.5" font-family="Helvetica,sans-Serif" font-size="10.00" fill="#000000"> </text>
</g>
<!-- Node4&#45;&gt;Node1 -->
<g id="edge3" class="edge">
<title>Node4&#45;&gt;Node1</title>
<path fill="none" stroke="#404040" d="M169.0975,-226.2494C162.7267,-210.186 154.4035,-189.1996 146.0392,-168.1097"/>
<polygon fill="none" stroke="#404040" points="145.9606,-167.9113 140.0304,-163.8086 141.5366,-156.7565 147.4669,-160.8592 145.9606,-167.9113"/>
<text text-anchor="middle" x="176.5" y="-189" font-family="Helvetica,sans-Serif" font-size="10.00" fill="#000000"> +pad</text>
</g>
</g>
</svg>
