<?xml version="1.0" encoding="UTF-8" standalone="no"?>
<!DOCTYPE svg PUBLIC "-//W3C//DTD SVG 1.1//EN"
 "http://www.w3.org/Graphics/SVG/1.1/DTD/svg11.dtd">
<!-- Generated by graphviz version 2.40.1 (20161225.0304)
 -->
<!-- Title: /home/travis/build/AliceO2Group/AliceO2/GPU/GPUTracking/SliceTracker/GPUTPCTrackletSelector.cxx Pages: 1 -->
<!--zoomable 621 -->
<svg id="main" version="1.1" xmlns="http://www.w3.org/2000/svg" xmlns:xlink="http://www.w3.org/1999/xlink" xml:space="preserve" onload="init(evt)">
<style type="text/css"><![CDATA[
.edge:hover path { stroke: red; }
.edge:hover polygon { stroke: red; fill: red; }
]]></style>
<script type="text/javascript"><![CDATA[
var edges = document.getElementsByTagName('g');
if (edges && edges.length) {
  for (var i=0;i<edges.length;i++) {
    if (edges[i].id.substr(0,4)=='edge') {
      edges[i].setAttribute('class','edge');
    }
  }
}
]]></script>
        <defs>
                <circle id="rim" cx="0" cy="0" r="7"/>
                <circle id="rim2" cx="0" cy="0" r="3.5"/>
                <g id="zoomPlus">
                        <use xlink:href="#rim" fill="#404040">
                                <set attributeName="fill" to="#808080" begin="zoomplus.mouseover" end="zoomplus.mouseout"/>
                        </use>
                        <path d="M-4,0h8M0,-4v8" fill="none" stroke="white" stroke-width="1.5" pointer-events="none"/>
                </g>
                <g id="zoomMin">
                        <use xlink:href="#rim" fill="#404040">
                                <set attributeName="fill" to="#808080" begin="zoomminus.mouseover" end="zoomminus.mouseout"/>
                        </use>
                        <path d="M-4,0h8" fill="none" stroke="white" stroke-width="1.5" pointer-events="none"/>
                </g>
                <g id="dirArrow">
                        <path fill="none" stroke="white" stroke-width="1.5" d="M0,-3.0v7 M-2.5,-0.5L0,-3.0L2.5,-0.5"/>
                </g>
               <g id="resetDef">
                       <use xlink:href="#rim2" fill="#404040">
                               <set attributeName="fill" to="#808080" begin="reset.mouseover" end="reset.mouseout"/>
                       </use>
               </g>
        </defs>

<script type="text/javascript">
var viewWidth = 1625;
var viewHeight = 621;
var sectionId = 'dynsection-0';
</script>
<script xlink:href="../../svgpan.js"/>
<svg id="graph" class="graph">
<g id="viewport">
<title>/home/travis/build/AliceO2Group/AliceO2/GPU/GPUTracking/SliceTracker/GPUTPCTrackletSelector.cxx</title>
<!-- Node0 -->
<g id="node1" class="node">
<title>Node0</title>
<polygon fill="#bfbfbf" stroke="#000000" points="1178,-560.5 1178,-612.5 1345,-612.5 1345,-560.5 1178,-560.5"/>
<text text-anchor="start" x="1186" y="-600.5" font-family="Helvetica,sans-Serif" font-size="10.00" fill="#000000">/home/travis/build</text>
<text text-anchor="start" x="1186" y="-589.5" font-family="Helvetica,sans-Serif" font-size="10.00" fill="#000000">/AliceO2Group/AliceO2</text>
<text text-anchor="start" x="1186" y="-578.5" font-family="Helvetica,sans-Serif" font-size="10.00" fill="#000000">/GPU/GPUTracking/SliceTracker</text>
<text text-anchor="middle" x="1261.5" y="-567.5" font-family="Helvetica,sans-Serif" font-size="10.00" fill="#000000">/GPUTPCTrackletSelector.cxx</text>
</g>
<!-- Node1 -->
<g id="node2" class="node">
<title>Node1</title>
<g id="a_node2"><a xlink:href="../../d4/d0c/GPUTPCTrackletSelector_8h.html" target="_top" xlink:title="GPUTPCTrackletSelector.h">
<polygon fill="none" stroke="#000000" points="327,-504.5 327,-523.5 470,-523.5 470,-504.5 327,-504.5"/>
<text text-anchor="middle" x="398.5" y="-511.5" font-family="Helvetica,sans-Serif" font-size="10.00" fill="#000000">GPUTPCTrackletSelector.h</text>
</a>
</g>
</g>
<!-- Node0&#45;&gt;Node1 -->
<g id="edge1" class="edge">
<title>Node0&#45;&gt;Node1</title>
<path fill="none" stroke="#191970" d="M1177.9678,-579.4825C1012.3383,-565.5681 644.1732,-534.6388 480.1178,-520.8567"/>
<polygon fill="#191970" stroke="#191970" points="480.3434,-517.3634 470.0854,-520.0138 479.7573,-524.3388 480.3434,-517.3634"/>
</g>
<!-- Node18 -->
<g id="node19" class="node">
<title>Node18</title>
<g id="a_node19"><a xlink:href="../../d6/d25/GPUTPCTracker_8h.html" target="_top" xlink:title="GPUTPCTracker.h">
<polygon fill="none" stroke="#000000" points="1051.5,-392.5 1051.5,-411.5 1151.5,-411.5 1151.5,-392.5 1051.5,-392.5"/>
<text text-anchor="middle" x="1101.5" y="-399.5" font-family="Helvetica,sans-Serif" font-size="10.00" fill="#000000">GPUTPCTracker.h</text>
</a>
</g>
</g>
<!-- Node0&#45;&gt;Node18 -->
<g id="edge70" class="edge">
<title>Node0&#45;&gt;Node18</title>
<path fill="none" stroke="#191970" d="M1238.9153,-560.457C1205.8621,-522.3425 1145.1716,-452.3588 1116.833,-419.6808"/>
<polygon fill="#191970" stroke="#191970" points="1119.2496,-417.1253 1110.0537,-411.8635 1113.9611,-421.7114 1119.2496,-417.1253"/>
</g>
<!-- Node23 -->
<g id="node24" class="node">
<title>Node23</title>
<g id="a_node24"><a xlink:href="../../d6/da2/GPUCommonMath_8h.html" target="_top" xlink:title="GPUCommonMath.h">
<polygon fill="none" stroke="#000000" points="694,-168.5 694,-187.5 809,-187.5 809,-168.5 694,-168.5"/>
<text text-anchor="middle" x="751.5" y="-175.5" font-family="Helvetica,sans-Serif" font-size="10.00" fill="#000000">GPUCommonMath.h</text>
</a>
</g>
</g>
<!-- Node0&#45;&gt;Node23 -->
<g id="edge73" class="edge">
<title>Node0&#45;&gt;Node23</title>
<path fill="none" stroke="#191970" d="M1253.2048,-560.1844C1237.1195,-512.0215 1198.1278,-408.0328 1140.5,-336 1128.0011,-320.3768 1017.7085,-232.2921 999.5,-224 968.0727,-209.688 881.2363,-195.5508 819.1939,-186.8054"/>
<polygon fill="#191970" stroke="#191970" points="819.4638,-183.3093 809.0765,-185.3959 818.4979,-190.2424 819.4638,-183.3093"/>
</g>
<!-- Node32 -->
<g id="node33" class="node">
<title>Node32</title>
<g id="a_node33"><a xlink:href="../../de/d15/GPUTPCTrackParam_8h.html" target="_top" xlink:title="GPUTPCTrackParam.h">
<polygon fill="none" stroke="#000000" points="1263.5,-336.5 1263.5,-355.5 1385.5,-355.5 1385.5,-336.5 1263.5,-336.5"/>
<text text-anchor="middle" x="1324.5" y="-343.5" font-family="Helvetica,sans-Serif" font-size="10.00" fill="#000000">GPUTPCTrackParam.h</text>
</a>
</g>
</g>
<!-- Node0&#45;&gt;Node32 -->
<g id="edge71" class="edge">
<title>Node0&#45;&gt;Node32</title>
<path fill="none" stroke="#191970" d="M1268.362,-560.3045C1281.0944,-511.6991 1308.1048,-408.588 1319.3839,-365.5305"/>
<polygon fill="#191970" stroke="#191970" points="1322.8036,-366.2875 1321.952,-355.7269 1316.0321,-364.5136 1322.8036,-366.2875"/>
</g>
<!-- Node34 -->
<g id="node35" class="node">
<title>Node34</title>
<g id="a_node35"><a xlink:href="../../db/d6e/GPUTPCTracklet_8h.html" target="_top" xlink:title="GPUTPCTracklet.h">
<polygon fill="none" stroke="#000000" points="1403.5,-336.5 1403.5,-355.5 1507.5,-355.5 1507.5,-336.5 1403.5,-336.5"/>
<text text-anchor="middle" x="1455.5" y="-343.5" font-family="Helvetica,sans-Serif" font-size="10.00" fill="#000000">GPUTPCTracklet.h</text>
</a>
</g>
</g>
<!-- Node0&#45;&gt;Node34 -->
<g id="edge72" class="edge">
<title>Node0&#45;&gt;Node34</title>
<path fill="none" stroke="#191970" d="M1282.6307,-560.3045C1322.421,-510.9767 1407.4952,-405.5111 1441.2618,-363.6509"/>
<polygon fill="#191970" stroke="#191970" points="1444.0994,-365.7078 1447.6537,-355.7269 1438.6511,-361.3128 1444.0994,-365.7078"/>
</g>
<!-- Node37 -->
<g id="node38" class="node">
<title>Node37</title>
<g id="a_node38"><a xlink:href="../../d0/d88/GPUTPCTrack_8h.html" target="_top" xlink:title="GPUTPCTrack.h">
<polygon fill="none" stroke="#000000" points="1526,-336.5 1526,-355.5 1617,-355.5 1617,-336.5 1526,-336.5"/>
<text text-anchor="middle" x="1571.5" y="-343.5" font-family="Helvetica,sans-Serif" font-size="10.00" fill="#000000">GPUTPCTrack.h</text>
</a>
</g>
</g>
<!-- Node0&#45;&gt;Node37 -->
<g id="edge67" class="edge">
<title>Node0&#45;&gt;Node37</title>
<path fill="none" stroke="#191970" d="M1295.2656,-560.3045C1359.6462,-510.3576 1498.2155,-402.8546 1550.7411,-362.1049"/>
<polygon fill="#191970" stroke="#191970" points="1553.2065,-364.622 1558.9622,-355.7269 1548.9157,-359.0913 1553.2065,-364.622"/>
</g>
<!-- Node2 -->
<g id="node3" class="node">
<title>Node2</title>
<g id="a_node3"><a xlink:href="../../da/dab/GPUTPCDef_8h.html" target="_top" xlink:title="GPUTPCDef.h">
<polygon fill="none" stroke="#000000" points="1251.5,-168.5 1251.5,-187.5 1333.5,-187.5 1333.5,-168.5 1251.5,-168.5"/>
<text text-anchor="middle" x="1292.5" y="-175.5" font-family="Helvetica,sans-Serif" font-size="10.00" fill="#000000">GPUTPCDef.h</text>
</a>
</g>
</g>
<!-- Node1&#45;&gt;Node2 -->
<g id="edge2" class="edge">
<title>Node1&#45;&gt;Node2</title>
<path fill="none" stroke="#191970" d="M470.099,-510.8887C636.0897,-502.6539 1042.0428,-476.3477 1160.5,-412 1242.514,-367.4488 1259.7007,-333.4031 1286.5,-244 1290.9971,-228.9975 1292.4081,-211.2886 1292.7435,-197.9934"/>
<polygon fill="#191970" stroke="#191970" points="1296.2457,-197.6478 1292.8118,-187.6249 1289.2459,-197.6015 1296.2457,-197.6478"/>
</g>
<!-- Node13 -->
<g id="node14" class="node">
<title>Node13</title>
<g id="a_node14"><a xlink:href="../../dd/d7b/GPUTPCHitId_8h.html" target="_top" xlink:title="GPUTPCHitId.h">
<polygon fill="none" stroke="#000000" points="354,-336.5 354,-355.5 443,-355.5 443,-336.5 354,-336.5"/>
<text text-anchor="middle" x="398.5" y="-343.5" font-family="Helvetica,sans-Serif" font-size="10.00" fill="#000000">GPUTPCHitId.h</text>
</a>
</g>
</g>
<!-- Node1&#45;&gt;Node13 -->
<g id="edge13" class="edge">
<title>Node1&#45;&gt;Node13</title>
<path fill="none" stroke="#191970" d="M398.5,-504.4862C398.5,-477.9293 398.5,-402.5651 398.5,-366.1655"/>
<polygon fill="#191970" stroke="#191970" points="402.0001,-365.8278 398.5,-355.8279 395.0001,-365.8279 402.0001,-365.8278"/>
</g>
<!-- Node14 -->
<g id="node15" class="node">
<title>Node14</title>
<g id="a_node15"><a xlink:href="../../d9/de5/GPUGeneralKernels_8h.html" target="_top" xlink:title="GPUGeneralKernels.h">
<polygon fill="none" stroke="#000000" points="229,-224.5 229,-243.5 350,-243.5 350,-224.5 229,-224.5"/>
<text text-anchor="middle" x="289.5" y="-231.5" font-family="Helvetica,sans-Serif" font-size="10.00" fill="#000000">GPUGeneralKernels.h</text>
</a>
</g>
</g>
<!-- Node1&#45;&gt;Node14 -->
<g id="edge14" class="edge">
<title>Node1&#45;&gt;Node14</title>
<path fill="none" stroke="#191970" d="M377.3605,-504.4901C345.1548,-488.3882 287.5,-452.5089 287.5,-402 287.5,-402 287.5,-402 287.5,-346 287.5,-313.7064 288.3415,-276.1836 288.9328,-253.8029"/>
<polygon fill="#191970" stroke="#191970" points="292.4374,-253.6797 289.2134,-243.5873 285.4401,-253.4874 292.4374,-253.6797"/>
</g>
<!-- Node17 -->
<g id="node18" class="node">
<title>Node17</title>
<g id="a_node18"><a xlink:href="../../db/df8/GPUConstantMem_8h.html" target="_top" xlink:title="GPUConstantMem.h">
<polygon fill="none" stroke="#000000" points="144.5,-448.5 144.5,-467.5 258.5,-467.5 258.5,-448.5 144.5,-448.5"/>
<text text-anchor="middle" x="201.5" y="-455.5" font-family="Helvetica,sans-Serif" font-size="10.00" fill="#000000">GPUConstantMem.h</text>
</a>
</g>
</g>
<!-- Node1&#45;&gt;Node17 -->
<g id="edge19" class="edge">
<title>Node1&#45;&gt;Node17</title>
<path fill="none" stroke="#191970" d="M364.6345,-504.3733C331.451,-494.9404 280.745,-480.5265 244.6806,-470.2747"/>
<polygon fill="#191970" stroke="#191970" points="245.4995,-466.8689 234.9236,-467.5011 243.5855,-473.6021 245.4995,-466.8689"/>
</g>
<!-- Node3 -->
<g id="node4" class="node">
<title>Node3</title>
<g id="a_node4"><a xlink:href="../../d2/d6d/GPUDef_8h.html" target="_top" xlink:title="GPUDef.h">
<polygon fill="none" stroke="#000000" points="648,-112.5 648,-131.5 711,-131.5 711,-112.5 648,-112.5"/>
<text text-anchor="middle" x="679.5" y="-119.5" font-family="Helvetica,sans-Serif" font-size="10.00" fill="#000000">GPUDef.h</text>
</a>
</g>
</g>
<!-- Node2&#45;&gt;Node3 -->
<g id="edge3" class="edge">
<title>Node2&#45;&gt;Node3</title>
<path fill="none" stroke="#191970" d="M1251.3102,-176.9313C1158.3984,-174.0404 925.3774,-164.0999 721.1906,-131.8569"/>
<polygon fill="#191970" stroke="#191970" points="721.6101,-128.3796 711.1825,-130.2547 720.5035,-135.2915 721.6101,-128.3796"/>
</g>
<!-- Node4 -->
<g id="node5" class="node">
<title>Node4</title>
<g id="a_node5"><a xlink:href="../../df/d21/GPUCommonDef_8h.html" target="_top" xlink:title="GPUCommonDef.h">
<polygon fill="none" stroke="#000000" points="314,-56.5 314,-75.5 421,-75.5 421,-56.5 314,-56.5"/>
<text text-anchor="middle" x="367.5" y="-63.5" font-family="Helvetica,sans-Serif" font-size="10.00" fill="#000000">GPUCommonDef.h</text>
</a>
</g>
</g>
<!-- Node3&#45;&gt;Node4 -->
<g id="edge4" class="edge">
<title>Node3&#45;&gt;Node4</title>
<path fill="none" stroke="#191970" d="M647.863,-114.936C643.058,-113.9172 638.1524,-112.9075 633.5,-112 564.5738,-98.5546 485.2033,-85.0893 431.2295,-76.2338"/>
<polygon fill="#191970" stroke="#191970" points="431.5537,-72.7404 421.1199,-74.5803 430.4238,-79.6486 431.5537,-72.7404"/>
</g>
<!-- Node7 -->
<g id="node8" class="node">
<title>Node7</title>
<g id="a_node8"><a xlink:href="../../d2/d37/GPUDefConstantsAndSettings_8h.html" target="_top" xlink:title="GPUDefConstantsAndSettings.h">
<polygon fill="none" stroke="#000000" points="923,-56.5 923,-75.5 1094,-75.5 1094,-56.5 923,-56.5"/>
<text text-anchor="middle" x="1008.5" y="-63.5" font-family="Helvetica,sans-Serif" font-size="10.00" fill="#000000">GPUDefConstantsAndSettings.h</text>
</a>
</g>
</g>
<!-- Node3&#45;&gt;Node7 -->
<g id="edge7" class="edge">
<title>Node3&#45;&gt;Node7</title>
<path fill="none" stroke="#191970" d="M711.2274,-113.9933C714.353,-113.2853 717.4834,-112.6078 720.5,-112 790.3863,-97.9201 870.5152,-85.4134 928.4805,-77.0084"/>
<polygon fill="#191970" stroke="#191970" points="929.2763,-80.4299 938.6748,-75.5393 928.2778,-73.5015 929.2763,-80.4299"/>
</g>
<!-- Node8 -->
<g id="node9" class="node">
<title>Node8</title>
<g id="a_node9"><a xlink:href="../../dc/de9/GPUDefGPUParameters_8h.html" target="_top" xlink:title="GPUDefGPUParameters.h">
<polygon fill="none" stroke="#000000" points="439.5,-56.5 439.5,-75.5 579.5,-75.5 579.5,-56.5 439.5,-56.5"/>
<text text-anchor="middle" x="509.5" y="-63.5" font-family="Helvetica,sans-Serif" font-size="10.00" fill="#000000">GPUDefGPUParameters.h</text>
</a>
</g>
</g>
<!-- Node3&#45;&gt;Node8 -->
<g id="edge8" class="edge">
<title>Node3&#45;&gt;Node8</title>
<path fill="none" stroke="#191970" d="M650.276,-112.3733C622.0075,-103.0613 579.0035,-88.8953 547.9656,-78.671"/>
<polygon fill="#191970" stroke="#191970" points="548.9357,-75.3056 538.3427,-75.5011 546.7456,-81.9542 548.9357,-75.3056"/>
</g>
<!-- Node10 -->
<g id="node11" class="node">
<title>Node10</title>
<g id="a_node11"><a xlink:href="../../d3/d4c/GPUDefOpenCL12Templates_8h.html" target="_top" xlink:title="GPUDefOpenCL12Templates.h">
<polygon fill="none" stroke="#000000" points="597.5,-56.5 597.5,-75.5 761.5,-75.5 761.5,-56.5 597.5,-56.5"/>
<text text-anchor="middle" x="679.5" y="-63.5" font-family="Helvetica,sans-Serif" font-size="10.00" fill="#000000">GPUDefOpenCL12Templates.h</text>
</a>
</g>
</g>
<!-- Node3&#45;&gt;Node10 -->
<g id="edge10" class="edge">
<title>Node3&#45;&gt;Node10</title>
<path fill="none" stroke="#191970" d="M679.5,-112.2455C679.5,-104.9382 679.5,-94.6944 679.5,-85.7046"/>
<polygon fill="#191970" stroke="#191970" points="683.0001,-85.6426 679.5,-75.6427 676.0001,-85.6427 683.0001,-85.6426"/>
</g>
<!-- Node11 -->
<g id="node12" class="node">
<title>Node11</title>
<g id="a_node12"><a xlink:href="../../d2/d45/GPUCommonRtypes_8h.html" target="_top" xlink:title="GPUCommonRtypes.h">
<polygon fill="none" stroke="#000000" points="780,-56.5 780,-75.5 905,-75.5 905,-56.5 780,-56.5"/>
<text text-anchor="middle" x="842.5" y="-63.5" font-family="Helvetica,sans-Serif" font-size="10.00" fill="#000000">GPUCommonRtypes.h</text>
</a>
</g>
</g>
<!-- Node3&#45;&gt;Node11 -->
<g id="edge11" class="edge">
<title>Node3&#45;&gt;Node11</title>
<path fill="none" stroke="#191970" d="M707.5207,-112.3733C734.5078,-103.1016 775.5017,-89.0178 805.2311,-78.804"/>
<polygon fill="#191970" stroke="#191970" points="806.5248,-82.0605 814.8449,-75.5011 804.2503,-75.4403 806.5248,-82.0605"/>
</g>
<!-- Node5 -->
<g id="node6" class="node">
<title>Node5</title>
<g id="a_node6"><a xlink:href="../../d5/d93/GPUCommonDefSettings_8h.html" target="_top" xlink:title="GPUCommonDefSettings.h">
<polygon fill="none" stroke="#000000" points="146.5,-.5 146.5,-19.5 294.5,-19.5 294.5,-.5 146.5,-.5"/>
<text text-anchor="middle" x="220.5" y="-7.5" font-family="Helvetica,sans-Serif" font-size="10.00" fill="#000000">GPUCommonDefSettings.h</text>
</a>
</g>
</g>
<!-- Node4&#45;&gt;Node5 -->
<g id="edge5" class="edge">
<title>Node4&#45;&gt;Node5</title>
<path fill="none" stroke="#191970" d="M342.2298,-56.3733C318.1034,-47.1822 281.5638,-33.2624 254.8123,-23.0713"/>
<polygon fill="#191970" stroke="#191970" points="256.0313,-19.7904 245.4404,-19.5011 253.5393,-26.3318 256.0313,-19.7904"/>
</g>
<!-- Node6 -->
<g id="node7" class="node">
<title>Node6</title>
<g id="a_node7"><a xlink:href="../../da/d5a/GPUCommonDefAPI_8h.html" target="_top" xlink:title="GPUCommonDefAPI.h">
<polygon fill="none" stroke="#000000" points="312.5,-.5 312.5,-19.5 436.5,-19.5 436.5,-.5 312.5,-.5"/>
<text text-anchor="middle" x="374.5" y="-7.5" font-family="Helvetica,sans-Serif" font-size="10.00" fill="#000000">GPUCommonDefAPI.h</text>
</a>
</g>
</g>
<!-- Node4&#45;&gt;Node6 -->
<g id="edge6" class="edge">
<title>Node4&#45;&gt;Node6</title>
<path fill="none" stroke="#191970" d="M368.7193,-56.2455C369.6327,-48.9382 370.9132,-38.6944 372.0369,-29.7046"/>
<polygon fill="#191970" stroke="#191970" points="375.5272,-29.9996 373.2947,-19.6427 368.5813,-29.1313 375.5272,-29.9996"/>
</g>
<!-- Node9 -->
<g id="node10" class="node">
<title>Node9</title>
<g id="a_node10"><a xlink:href="../../d6/dff/GPUDefMacros_8h.html" target="_top" xlink:title="GPUDefMacros.h">
<polygon fill="none" stroke="#000000" points="460.5,-.5 460.5,-19.5 558.5,-19.5 558.5,-.5 460.5,-.5"/>
<text text-anchor="middle" x="509.5" y="-7.5" font-family="Helvetica,sans-Serif" font-size="10.00" fill="#000000">GPUDefMacros.h</text>
</a>
</g>
</g>
<!-- Node8&#45;&gt;Node9 -->
<g id="edge9" class="edge">
<title>Node8&#45;&gt;Node9</title>
<path fill="none" stroke="#191970" d="M509.5,-56.2455C509.5,-48.9382 509.5,-38.6944 509.5,-29.7046"/>
<polygon fill="#191970" stroke="#191970" points="513.0001,-29.6426 509.5,-19.6427 506.0001,-29.6427 513.0001,-29.6426"/>
</g>
<!-- Node12 -->
<g id="node13" class="node">
<title>Node12</title>
<polygon fill="none" stroke="#bfbfbf" points="813,-.5 813,-19.5 872,-19.5 872,-.5 813,-.5"/>
<text text-anchor="middle" x="842.5" y="-7.5" font-family="Helvetica,sans-Serif" font-size="10.00" fill="#000000">Rtypes.h</text>
</g>
<!-- Node11&#45;&gt;Node12 -->
<g id="edge12" class="edge">
<title>Node11&#45;&gt;Node12</title>
<path fill="none" stroke="#191970" d="M842.5,-56.2455C842.5,-48.9382 842.5,-38.6944 842.5,-29.7046"/>
<polygon fill="#191970" stroke="#191970" points="846.0001,-29.6426 842.5,-19.6427 839.0001,-29.6427 846.0001,-29.6426"/>
</g>
<!-- Node14&#45;&gt;Node3 -->
<g id="edge15" class="edge">
<title>Node14&#45;&gt;Node3</title>
<path fill="none" stroke="#191970" d="M350.1513,-228.0558C402.9981,-221.726 481.1835,-209.5636 546.5,-188 586.1766,-174.9011 628.9302,-151.9297 654.9572,-136.8394"/>
<polygon fill="#191970" stroke="#191970" points="656.9054,-139.7542 663.7527,-131.6693 653.3581,-133.7196 656.9054,-139.7542"/>
</g>
<!-- Node15 -->
<g id="node16" class="node">
<title>Node15</title>
<g id="a_node16"><a xlink:href="../../d4/dc5/GPUDataTypes_8h.html" target="_top" xlink:title="GPUDataTypes.h">
<polygon fill="none" stroke="#000000" points="151.5,-168.5 151.5,-187.5 249.5,-187.5 249.5,-168.5 151.5,-168.5"/>
<text text-anchor="middle" x="200.5" y="-175.5" font-family="Helvetica,sans-Serif" font-size="10.00" fill="#000000">GPUDataTypes.h</text>
</a>
</g>
</g>
<!-- Node14&#45;&gt;Node15 -->
<g id="edge16" class="edge">
<title>Node14&#45;&gt;Node15</title>
<path fill="none" stroke="#191970" d="M273.9974,-224.2455C260.342,-215.6534 240.2343,-203.0014 224.5011,-193.1018"/>
<polygon fill="#191970" stroke="#191970" points="226.1529,-190.006 215.825,-187.6427 222.4249,-195.9307 226.1529,-190.006"/>
</g>
<!-- Node15&#45;&gt;Node4 -->
<g id="edge17" class="edge">
<title>Node15&#45;&gt;Node4</title>
<path fill="none" stroke="#191970" d="M195.8899,-168.3442C189.9713,-154.3778 181.8768,-128.4183 194.5,-112 208.032,-94.3997 260.3432,-82.1172 303.9343,-74.6987"/>
<polygon fill="#191970" stroke="#191970" points="304.6402,-78.1297 313.9397,-73.0534 303.5043,-71.2224 304.6402,-78.1297"/>
</g>
<!-- Node16 -->
<g id="node17" class="node">
<title>Node16</title>
<polygon fill="none" stroke="#bfbfbf" points="204,-112.5 204,-131.5 257,-131.5 257,-112.5 204,-112.5"/>
<text text-anchor="middle" x="230.5" y="-119.5" font-family="Helvetica,sans-Serif" font-size="10.00" fill="#000000">cstddef</text>
</g>
<!-- Node15&#45;&gt;Node16 -->
<g id="edge18" class="edge">
<title>Node15&#45;&gt;Node16</title>
<path fill="none" stroke="#191970" d="M205.7256,-168.2455C209.8123,-160.617 215.6135,-149.7881 220.575,-140.5267"/>
<polygon fill="#191970" stroke="#191970" points="223.6972,-142.1103 225.3343,-131.6427 217.5268,-138.8047 223.6972,-142.1103"/>
</g>
<!-- Node17&#45;&gt;Node15 -->
<g id="edge61" class="edge">
<title>Node17&#45;&gt;Node15</title>
<path fill="none" stroke="#191970" d="M201.3567,-448.4119C201.0802,-429.0545 200.5,-383.9182 200.5,-346 200.5,-346 200.5,-346 200.5,-290 200.5,-257.7116 200.5,-220.1872 200.5,-197.8048"/>
<polygon fill="#191970" stroke="#191970" points="204.0001,-197.5883 200.5,-187.5884 197.0001,-197.5884 204.0001,-197.5883"/>
</g>
<!-- Node17&#45;&gt;Node18 -->
<g id="edge20" class="edge">
<title>Node17&#45;&gt;Node18</title>
<path fill="none" stroke="#191970" d="M258.8245,-454.4331C419.9382,-444.4083 875.7724,-416.0453 1040.8568,-405.7734"/>
<polygon fill="#191970" stroke="#191970" points="1041.5407,-409.2377 1051.304,-405.1233 1041.1059,-402.2512 1041.5407,-409.2377"/>
</g>
<!-- Node26 -->
<g id="node27" class="node">
<title>Node26</title>
<g id="a_node27"><a xlink:href="../../df/d13/GPUParam_8h.html" target="_top" xlink:title="GPUParam.h">
<polygon fill="none" stroke="#000000" points="623,-280.5 623,-299.5 700,-299.5 700,-280.5 623,-280.5"/>
<text text-anchor="middle" x="661.5" y="-287.5" font-family="Helvetica,sans-Serif" font-size="10.00" fill="#000000">GPUParam.h</text>
</a>
</g>
</g>
<!-- Node17&#45;&gt;Node26 -->
<g id="edge60" class="edge">
<title>Node17&#45;&gt;Node26</title>
<path fill="none" stroke="#191970" d="M209.2969,-448.3431C229.0567,-424.6277 283.8552,-363.4622 344.5,-336 391.3109,-314.8023 535.7392,-300.2373 612.4486,-293.7757"/>
<polygon fill="#191970" stroke="#191970" points="613.1291,-297.2315 622.806,-292.9179 612.5512,-290.2554 613.1291,-297.2315"/>
</g>
<!-- Node35 -->
<g id="node36" class="node">
<title>Node35</title>
<g id="a_node36"><a xlink:href="../../d7/d4f/GPUTRDDef_8h.html" target="_top" xlink:title="GPUTRDDef.h">
<polygon fill="none" stroke="#000000" points="0,-392.5 0,-411.5 83,-411.5 83,-392.5 0,-392.5"/>
<text text-anchor="middle" x="41.5" y="-399.5" font-family="Helvetica,sans-Serif" font-size="10.00" fill="#000000">GPUTRDDef.h</text>
</a>
</g>
</g>
<!-- Node17&#45;&gt;Node35 -->
<g id="edge62" class="edge">
<title>Node17&#45;&gt;Node35</title>
<path fill="none" stroke="#191970" d="M173.995,-448.3733C147.6198,-439.1419 107.6149,-425.1402 78.4642,-414.9375"/>
<polygon fill="#191970" stroke="#191970" points="79.2409,-411.5012 68.6461,-411.5011 76.9284,-418.1082 79.2409,-411.5012"/>
</g>
<!-- Node36 -->
<g id="node37" class="node">
<title>Node36</title>
<g id="a_node37"><a xlink:href="../../da/d28/GPUO2FakeClasses_8h.html" target="_top" xlink:title="GPUO2FakeClasses.h">
<polygon fill="none" stroke="#000000" points="52.5,-224.5 52.5,-243.5 172.5,-243.5 172.5,-224.5 52.5,-224.5"/>
<text text-anchor="middle" x="112.5" y="-231.5" font-family="Helvetica,sans-Serif" font-size="10.00" fill="#000000">GPUO2FakeClasses.h</text>
</a>
</g>
</g>
<!-- Node17&#45;&gt;Node36 -->
<g id="edge64" class="edge">
<title>Node17&#45;&gt;Node36</title>
<path fill="none" stroke="#191970" d="M197.6758,-448.375C184.125,-414.2697 138.2369,-298.7761 120.0319,-252.9567"/>
<polygon fill="#191970" stroke="#191970" points="123.2551,-251.5901 116.31,-243.5891 116.7498,-254.1748 123.2551,-251.5901"/>
</g>
<!-- Node18&#45;&gt;Node2 -->
<g id="edge21" class="edge">
<title>Node18&#45;&gt;Node2</title>
<path fill="none" stroke="#191970" d="M1119.3231,-392.2709C1147.2805,-376.249 1201.7312,-341.8767 1235.5,-300 1261.1813,-268.1526 1278.3876,-222.8359 1286.7049,-197.3473"/>
<polygon fill="#191970" stroke="#191970" points="1290.0667,-198.3239 1289.724,-187.7346 1283.3883,-196.2263 1290.0667,-198.3239"/>
</g>
<!-- Node18&#45;&gt;Node13 -->
<g id="edge23" class="edge">
<title>Node18&#45;&gt;Node13</title>
<path fill="none" stroke="#191970" d="M1051.2409,-400.0642C942.5921,-395.5167 677.8535,-382.481 457.5,-356 456.1945,-355.8431 454.8739,-355.6773 453.5429,-355.5038"/>
<polygon fill="#191970" stroke="#191970" points="453.6031,-351.9777 443.2119,-354.0448 452.6242,-358.9089 453.6031,-351.9777"/>
</g>
<!-- Node19 -->
<g id="node20" class="node">
<title>Node19</title>
<polygon fill="none" stroke="#bfbfbf" points="1071.5,-336.5 1071.5,-355.5 1131.5,-355.5 1131.5,-336.5 1071.5,-336.5"/>
<text text-anchor="middle" x="1101.5" y="-343.5" font-family="Helvetica,sans-Serif" font-size="10.00" fill="#000000">iostream</text>
</g>
<!-- Node18&#45;&gt;Node19 -->
<g id="edge22" class="edge">
<title>Node18&#45;&gt;Node19</title>
<path fill="none" stroke="#191970" d="M1101.5,-392.2455C1101.5,-384.9382 1101.5,-374.6944 1101.5,-365.7046"/>
<polygon fill="#191970" stroke="#191970" points="1105.0001,-365.6426 1101.5,-355.6427 1098.0001,-365.6427 1105.0001,-365.6426"/>
</g>
<!-- Node20 -->
<g id="node21" class="node">
<title>Node20</title>
<g id="a_node21"><a xlink:href="../../df/d4a/GPUTPCSliceData_8h.html" target="_top" xlink:title="GPUTPCSliceData.h">
<polygon fill="none" stroke="#000000" points="941.5,-336.5 941.5,-355.5 1053.5,-355.5 1053.5,-336.5 941.5,-336.5"/>
<text text-anchor="middle" x="997.5" y="-343.5" font-family="Helvetica,sans-Serif" font-size="10.00" fill="#000000">GPUTPCSliceData.h</text>
</a>
</g>
</g>
<!-- Node18&#45;&gt;Node20 -->
<g id="edge24" class="edge">
<title>Node18&#45;&gt;Node20</title>
<path fill="none" stroke="#191970" d="M1083.3846,-392.2455C1067.055,-383.4527 1042.829,-370.4079 1024.2661,-360.4125"/>
<polygon fill="#191970" stroke="#191970" points="1025.8719,-357.3021 1015.4078,-355.6427 1022.5532,-363.4654 1025.8719,-357.3021"/>
</g>
<!-- Node31 -->
<g id="node32" class="node">
<title>Node31</title>
<g id="a_node32"><a xlink:href="../../d6/d57/GPUProcessor_8h.html" target="_top" xlink:title="GPUProcessor.h">
<polygon fill="none" stroke="#000000" points="445,-168.5 445,-187.5 538,-187.5 538,-168.5 445,-168.5"/>
<text text-anchor="middle" x="491.5" y="-175.5" font-family="Helvetica,sans-Serif" font-size="10.00" fill="#000000">GPUProcessor.h</text>
</a>
</g>
</g>
<!-- Node18&#45;&gt;Node31 -->
<g id="edge59" class="edge">
<title>Node18&#45;&gt;Node31</title>
<path fill="none" stroke="#191970" d="M1051.3836,-396.7958C957.5001,-386.0345 749.6179,-357.3935 583.5,-300 531.6479,-282.0852 502.1722,-290.7706 473.5,-244 464.5226,-229.3559 471.4335,-210.1934 479.1459,-196.2916"/>
<polygon fill="#191970" stroke="#191970" points="482.2108,-197.9882 484.428,-187.6279 476.234,-194.3442 482.2108,-197.9882"/>
</g>
<!-- Node18&#45;&gt;Node32 -->
<g id="edge51" class="edge">
<title>Node18&#45;&gt;Node32</title>
<path fill="none" stroke="#191970" d="M1139.5817,-392.4369C1177.5059,-382.9133 1235.8289,-368.2672 1276.8126,-357.9753"/>
<polygon fill="#191970" stroke="#191970" points="1277.729,-361.3539 1286.5754,-355.5237 1276.024,-354.5647 1277.729,-361.3539"/>
</g>
<!-- Node18&#45;&gt;Node34 -->
<g id="edge56" class="edge">
<title>Node18&#45;&gt;Node34</title>
<path fill="none" stroke="#191970" d="M1151.5461,-394.2484C1207.8393,-385.5055 1302.2815,-370.7672 1393.3239,-356.1812"/>
<polygon fill="#191970" stroke="#191970" points="1393.9408,-359.6271 1403.2604,-354.5877 1392.8323,-352.7154 1393.9408,-359.6271"/>
</g>
<!-- Node20&#45;&gt;Node2 -->
<g id="edge25" class="edge">
<title>Node20&#45;&gt;Node2</title>
<path fill="none" stroke="#191970" d="M1005.1787,-336.4755C1024.141,-313.587 1075.7117,-255.0907 1131.5,-224 1165.7883,-204.8912 1208.6982,-193.1428 1241.5949,-186.3065"/>
<polygon fill="#191970" stroke="#191970" points="1242.3391,-189.727 1251.4621,-184.3398 1240.9708,-182.8621 1242.3391,-189.727"/>
</g>
<!-- Node21 -->
<g id="node22" class="node">
<title>Node21</title>
<g id="a_node22"><a xlink:href="../../d8/dff/GPUTPCRow_8h.html" target="_top" xlink:title="GPUTPCRow.h">
<polygon fill="none" stroke="#000000" points="1141,-280.5 1141,-299.5 1226,-299.5 1226,-280.5 1141,-280.5"/>
<text text-anchor="middle" x="1183.5" y="-287.5" font-family="Helvetica,sans-Serif" font-size="10.00" fill="#000000">GPUTPCRow.h</text>
</a>
</g>
</g>
<!-- Node20&#45;&gt;Node21 -->
<g id="edge26" class="edge">
<title>Node20&#45;&gt;Node21</title>
<path fill="none" stroke="#191970" d="M1029.4745,-336.3733C1060.6713,-326.9807 1108.271,-312.6496 1142.2932,-302.4064"/>
<polygon fill="#191970" stroke="#191970" points="1143.3763,-305.7355 1151.9427,-299.5011 1141.3582,-299.0327 1143.3763,-305.7355"/>
</g>
<!-- Node20&#45;&gt;Node23 -->
<g id="edge30" class="edge">
<title>Node20&#45;&gt;Node23</title>
<path fill="none" stroke="#191970" d="M999.4085,-336.193C1003.2647,-313.1957 1009.2662,-255.3745 979.5,-224 957.8576,-201.1883 878.1647,-189.1073 819.0624,-183.1435"/>
<polygon fill="#191970" stroke="#191970" points="819.3184,-179.652 809.0269,-182.169 818.6417,-186.6192 819.3184,-179.652"/>
</g>
<!-- Node20&#45;&gt;Node26 -->
<g id="edge34" class="edge">
<title>Node20&#45;&gt;Node26</title>
<path fill="none" stroke="#191970" d="M941.2612,-336.6269C876.6249,-325.8542 771.5948,-308.3491 710.2786,-298.1298"/>
<polygon fill="#191970" stroke="#191970" points="710.5315,-294.6237 700.0921,-296.432 709.3806,-301.5285 710.5315,-294.6237"/>
</g>
<!-- Node30 -->
<g id="node31" class="node">
<title>Node30</title>
<g id="a_node31"><a xlink:href="../../d5/da6/GPUMemoryResource_8h.html" target="_top" xlink:title="GPUMemoryResource.h">
<polygon fill="none" stroke="#000000" points="483,-224.5 483,-243.5 614,-243.5 614,-224.5 483,-224.5"/>
<text text-anchor="middle" x="548.5" y="-231.5" font-family="Helvetica,sans-Serif" font-size="10.00" fill="#000000">GPUMemoryResource.h</text>
</a>
</g>
</g>
<!-- Node20&#45;&gt;Node30 -->
<g id="edge44" class="edge">
<title>Node20&#45;&gt;Node30</title>
<path fill="none" stroke="#191970" d="M941.301,-343.7424C849.2211,-339.302 670.8167,-327.3755 614.5,-300 592.0835,-289.1034 572.7782,-267.475 560.9378,-251.9444"/>
<polygon fill="#191970" stroke="#191970" points="563.5887,-249.6399 554.8619,-243.6321 557.9375,-253.7708 563.5887,-249.6399"/>
</g>
<!-- Node21&#45;&gt;Node2 -->
<g id="edge27" class="edge">
<title>Node21&#45;&gt;Node2</title>
<path fill="none" stroke="#191970" d="M1195.4734,-280.1995C1206.2856,-271.1675 1222.4531,-257.203 1235.5,-244 1250.8641,-228.4521 1267.0278,-209.4494 1278.2025,-195.8338"/>
<polygon fill="#191970" stroke="#191970" points="1281.1772,-197.723 1284.767,-187.7548 1275.7445,-193.3087 1281.1772,-197.723"/>
</g>
<!-- Node22 -->
<g id="node23" class="node">
<title>Node22</title>
<g id="a_node23"><a xlink:href="../../d3/da7/GPUTPCGrid_8h.html" target="_top" xlink:title="GPUTPCGrid.h">
<polygon fill="none" stroke="#000000" points="1140.5,-224.5 1140.5,-243.5 1226.5,-243.5 1226.5,-224.5 1140.5,-224.5"/>
<text text-anchor="middle" x="1183.5" y="-231.5" font-family="Helvetica,sans-Serif" font-size="10.00" fill="#000000">GPUTPCGrid.h</text>
</a>
</g>
</g>
<!-- Node21&#45;&gt;Node22 -->
<g id="edge28" class="edge">
<title>Node21&#45;&gt;Node22</title>
<path fill="none" stroke="#191970" d="M1183.5,-280.2455C1183.5,-272.9382 1183.5,-262.6944 1183.5,-253.7046"/>
<polygon fill="#191970" stroke="#191970" points="1187.0001,-253.6426 1183.5,-243.6427 1180.0001,-253.6427 1187.0001,-253.6426"/>
</g>
<!-- Node22&#45;&gt;Node2 -->
<g id="edge29" class="edge">
<title>Node22&#45;&gt;Node2</title>
<path fill="none" stroke="#191970" d="M1202.4864,-224.2455C1219.6792,-215.4125 1245.2238,-202.2887 1264.7132,-192.2758"/>
<polygon fill="#191970" stroke="#191970" points="1266.4359,-195.3257 1273.7312,-187.6427 1263.237,-189.0993 1266.4359,-195.3257"/>
</g>
<!-- Node23&#45;&gt;Node4 -->
<g id="edge31" class="edge">
<title>Node23&#45;&gt;Node4</title>
<path fill="none" stroke="#191970" d="M726.3301,-168.3634C703.4589,-159.4418 668.9007,-145.5472 639.5,-132 621.8081,-123.848 618.9007,-118.393 600.5,-112 569.912,-101.3728 489.1467,-86.4697 431.2916,-76.5383"/>
<polygon fill="#191970" stroke="#191970" points="431.5803,-73.0371 421.1341,-74.8052 430.4029,-79.9374 431.5803,-73.0371"/>
</g>
<!-- Node24 -->
<g id="node25" class="node">
<title>Node24</title>
<polygon fill="none" stroke="#bfbfbf" points="729,-112.5 729,-131.5 776,-131.5 776,-112.5 729,-112.5"/>
<text text-anchor="middle" x="752.5" y="-119.5" font-family="Helvetica,sans-Serif" font-size="10.00" fill="#000000">cmath</text>
</g>
<!-- Node23&#45;&gt;Node24 -->
<g id="edge32" class="edge">
<title>Node23&#45;&gt;Node24</title>
<path fill="none" stroke="#191970" d="M751.6742,-168.2455C751.8047,-160.9382 751.9876,-150.6944 752.1481,-141.7046"/>
<polygon fill="#191970" stroke="#191970" points="755.6486,-141.7036 752.3278,-131.6427 748.6497,-141.5786 755.6486,-141.7036"/>
</g>
<!-- Node25 -->
<g id="node26" class="node">
<title>Node25</title>
<polygon fill="none" stroke="#bfbfbf" points="527.5,-112.5 527.5,-131.5 591.5,-131.5 591.5,-112.5 527.5,-112.5"/>
<text text-anchor="middle" x="559.5" y="-119.5" font-family="Helvetica,sans-Serif" font-size="10.00" fill="#000000">algorithm</text>
</g>
<!-- Node23&#45;&gt;Node25 -->
<g id="edge33" class="edge">
<title>Node23&#45;&gt;Node25</title>
<path fill="none" stroke="#191970" d="M718.494,-168.3733C686.1933,-158.9522 636.8578,-144.5627 601.7172,-134.3133"/>
<polygon fill="#191970" stroke="#191970" points="602.3357,-130.848 591.7557,-131.4079 600.3757,-137.568 602.3357,-130.848"/>
</g>
<!-- Node26&#45;&gt;Node3 -->
<g id="edge37" class="edge">
<title>Node26&#45;&gt;Node3</title>
<path fill="none" stroke="#191970" d="M662.5193,-280.4862C665.3647,-253.9293 673.4394,-178.5651 677.3394,-142.1655"/>
<polygon fill="#191970" stroke="#191970" points="680.8617,-142.1439 678.447,-131.8279 673.9015,-141.3981 680.8617,-142.1439"/>
</g>
<!-- Node26&#45;&gt;Node4 -->
<g id="edge35" class="edge">
<title>Node26&#45;&gt;Node4</title>
<path fill="none" stroke="#191970" d="M622.7328,-284.6451C577.0458,-277.764 499.1617,-264.2392 434.5,-244 404.4809,-234.604 321.7915,-214.2762 304.5,-188 280.8676,-152.0881 321.7971,-106.2282 348.053,-82.2586"/>
<polygon fill="#191970" stroke="#191970" points="350.4627,-84.8001 355.6426,-75.5578 345.8298,-79.5526 350.4627,-84.8001"/>
</g>
<!-- Node26&#45;&gt;Node23 -->
<g id="edge36" class="edge">
<title>Node26&#45;&gt;Node23</title>
<path fill="none" stroke="#191970" d="M665.7892,-280.4306C672.0609,-267.0195 684.6197,-242.2337 699.5,-224 708.5497,-212.9109 720.3927,-202.2116 730.4902,-193.9265"/>
<polygon fill="#191970" stroke="#191970" points="732.819,-196.5463 738.4621,-187.5793 728.4588,-191.0701 732.819,-196.5463"/>
</g>
<!-- Node27 -->
<g id="node28" class="node">
<title>Node27</title>
<g id="a_node28"><a xlink:href="../../dd/dc6/GPUSettings_8h.html" target="_top" xlink:title="GPUSettings.h">
<polygon fill="none" stroke="#000000" points="708.5,-224.5 708.5,-243.5 794.5,-243.5 794.5,-224.5 708.5,-224.5"/>
<text text-anchor="middle" x="751.5" y="-231.5" font-family="Helvetica,sans-Serif" font-size="10.00" fill="#000000">GPUSettings.h</text>
</a>
</g>
</g>
<!-- Node26&#45;&gt;Node27 -->
<g id="edge38" class="edge">
<title>Node26&#45;&gt;Node27</title>
<path fill="none" stroke="#191970" d="M677.1768,-280.2455C690.9856,-271.6534 711.3193,-259.0014 727.2292,-249.1018"/>
<polygon fill="#191970" stroke="#191970" points="729.3613,-251.8974 736.0028,-243.6427 725.6632,-245.954 729.3613,-251.8974"/>
</g>
<!-- Node28 -->
<g id="node29" class="node">
<title>Node28</title>
<g id="a_node29"><a xlink:href="../../d6/d1b/GPUTPCGeometry_8h.html" target="_top" xlink:title="GPUTPCGeometry.h">
<polygon fill="none" stroke="#000000" points="314,-168.5 314,-187.5 427,-187.5 427,-168.5 314,-168.5"/>
<text text-anchor="middle" x="370.5" y="-175.5" font-family="Helvetica,sans-Serif" font-size="10.00" fill="#000000">GPUTPCGeometry.h</text>
</a>
</g>
</g>
<!-- Node26&#45;&gt;Node28 -->
<g id="edge40" class="edge">
<title>Node26&#45;&gt;Node28</title>
<path fill="none" stroke="#191970" d="M622.8627,-284.3803C583.9989,-277.8532 522.9153,-265.1793 473.5,-244 442.5521,-230.7357 410.4328,-208.5878 390.4623,-193.6466"/>
<polygon fill="#191970" stroke="#191970" points="392.515,-190.8104 382.4378,-187.5391 388.2755,-196.3806 392.515,-190.8104"/>
</g>
<!-- Node29 -->
<g id="node30" class="node">
<title>Node29</title>
<g id="a_node30"><a xlink:href="../../d9/d9c/GPUTPCGMPolynomialField_8h.html" target="_top" xlink:title="GPUTPCGMPolynomialField.h">
<polygon fill="none" stroke="#000000" points="812.5,-224.5 812.5,-243.5 970.5,-243.5 970.5,-224.5 812.5,-224.5"/>
<text text-anchor="middle" x="891.5" y="-231.5" font-family="Helvetica,sans-Serif" font-size="10.00" fill="#000000">GPUTPCGMPolynomialField.h</text>
</a>
</g>
</g>
<!-- Node26&#45;&gt;Node29 -->
<g id="edge42" class="edge">
<title>Node26&#45;&gt;Node29</title>
<path fill="none" stroke="#191970" d="M700.2563,-280.5637C739.3686,-271.0407 799.896,-256.3036 842.3562,-245.9654"/>
<polygon fill="#191970" stroke="#191970" points="843.3113,-249.3352 852.1995,-243.5688 841.6553,-242.5339 843.3113,-249.3352"/>
</g>
<!-- Node27&#45;&gt;Node23 -->
<g id="edge39" class="edge">
<title>Node27&#45;&gt;Node23</title>
<path fill="none" stroke="#191970" d="M751.5,-224.2455C751.5,-216.9382 751.5,-206.6944 751.5,-197.7046"/>
<polygon fill="#191970" stroke="#191970" points="755.0001,-197.6426 751.5,-187.6427 748.0001,-197.6427 755.0001,-197.6426"/>
</g>
<!-- Node28&#45;&gt;Node4 -->
<g id="edge41" class="edge">
<title>Node28&#45;&gt;Node4</title>
<path fill="none" stroke="#191970" d="M370.2442,-168.4509C369.7549,-150.184 368.6774,-109.9553 368.0276,-85.6976"/>
<polygon fill="#191970" stroke="#191970" points="371.5217,-85.4276 367.7551,-75.5249 364.5242,-85.6151 371.5217,-85.4276"/>
</g>
<!-- Node29&#45;&gt;Node2 -->
<g id="edge43" class="edge">
<title>Node29&#45;&gt;Node2</title>
<path fill="none" stroke="#191970" d="M959.9787,-224.4369C1039.718,-213.3012 1169.608,-195.162 1241.1638,-185.1691"/>
<polygon fill="#191970" stroke="#191970" points="1241.8652,-188.6052 1251.285,-183.7557 1240.897,-181.6725 1241.8652,-188.6052"/>
</g>
<!-- Node30&#45;&gt;Node4 -->
<g id="edge45" class="edge">
<title>Node30&#45;&gt;Node4</title>
<path fill="none" stroke="#191970" d="M550.9856,-224.2221C553.8767,-210.5634 557.0186,-185.4852 546.5,-168 517.6776,-120.0881 457.31,-92.6562 414.6699,-78.5579"/>
<polygon fill="#191970" stroke="#191970" points="415.6419,-75.1944 405.0516,-75.5027 413.5227,-81.8659 415.6419,-75.1944"/>
</g>
<!-- Node30&#45;&gt;Node31 -->
<g id="edge46" class="edge">
<title>Node30&#45;&gt;Node31</title>
<path fill="none" stroke="#191970" d="M538.5714,-224.2455C530.3162,-216.1352 518.3791,-204.4075 508.5918,-194.7919"/>
<polygon fill="#191970" stroke="#191970" points="510.9011,-192.1542 501.3149,-187.6427 505.9954,-197.1476 510.9011,-192.1542"/>
</g>
<!-- Node31&#45;&gt;Node3 -->
<g id="edge48" class="edge">
<title>Node31&#45;&gt;Node3</title>
<path fill="none" stroke="#191970" d="M523.8184,-168.3733C555.4461,-158.9522 603.7538,-144.5627 638.1623,-134.3133"/>
<polygon fill="#191970" stroke="#191970" points="639.3316,-137.6171 647.9163,-131.4079 637.3332,-130.9084 639.3316,-137.6171"/>
</g>
<!-- Node31&#45;&gt;Node4 -->
<g id="edge47" class="edge">
<title>Node31&#45;&gt;Node4</title>
<path fill="none" stroke="#191970" d="M480.9278,-168.4509C459.7885,-149.3574 412.0844,-106.2697 385.7749,-82.5063"/>
<polygon fill="#191970" stroke="#191970" points="387.8125,-79.6304 378.0454,-75.5249 383.1204,-84.8251 387.8125,-79.6304"/>
</g>
<!-- Node31&#45;&gt;Node16 -->
<g id="edge49" class="edge">
<title>Node31&#45;&gt;Node16</title>
<path fill="none" stroke="#191970" d="M446.9291,-168.4369C396.1988,-157.5522 314.2818,-139.9762 267.1199,-129.8571"/>
<polygon fill="#191970" stroke="#191970" points="267.8375,-126.4315 257.3257,-127.7557 266.3689,-133.2758 267.8375,-126.4315"/>
</g>
<!-- Node31&#45;&gt;Node25 -->
<g id="edge50" class="edge">
<title>Node31&#45;&gt;Node25</title>
<path fill="none" stroke="#191970" d="M503.3447,-168.2455C513.388,-159.9746 527.9995,-147.9416 539.8004,-138.2232"/>
<polygon fill="#191970" stroke="#191970" points="542.2967,-140.7015 547.791,-131.6427 537.8467,-135.298 542.2967,-140.7015"/>
</g>
<!-- Node32&#45;&gt;Node2 -->
<g id="edge54" class="edge">
<title>Node32&#45;&gt;Node2</title>
<path fill="none" stroke="#191970" d="M1329.6423,-336.3404C1340.2272,-315.0617 1362.0438,-262.9426 1344.5,-224 1338.9303,-211.6369 1328.2137,-201.2563 1317.9494,-193.5033"/>
<polygon fill="#191970" stroke="#191970" points="1319.7549,-190.4948 1309.5567,-187.623 1315.7382,-196.2277 1319.7549,-190.4948"/>
</g>
<!-- Node32&#45;&gt;Node23 -->
<g id="edge55" class="edge">
<title>Node32&#45;&gt;Node23</title>
<path fill="none" stroke="#191970" d="M1263.2754,-339.448C1224.0838,-333.3427 1173.1492,-321.7496 1132.5,-300 1088.6869,-276.5576 1095.2426,-245.6156 1050.5,-224 1010.8664,-204.8526 894.9522,-191.0586 819.6378,-183.8162"/>
<polygon fill="#191970" stroke="#191970" points="819.5774,-180.2949 809.2922,-182.8379 818.9183,-187.2639 819.5774,-180.2949"/>
</g>
<!-- Node33 -->
<g id="node34" class="node">
<title>Node33</title>
<g id="a_node34"><a xlink:href="../../df/d00/GPUTPCBaseTrackParam_8h.html" target="_top" xlink:title="GPUTPCBaseTrackParam.h">
<polygon fill="none" stroke="#000000" points="1359.5,-280.5 1359.5,-299.5 1505.5,-299.5 1505.5,-280.5 1359.5,-280.5"/>
<text text-anchor="middle" x="1432.5" y="-287.5" font-family="Helvetica,sans-Serif" font-size="10.00" fill="#000000">GPUTPCBaseTrackParam.h</text>
</a>
</g>
</g>
<!-- Node32&#45;&gt;Node33 -->
<g id="edge52" class="edge">
<title>Node32&#45;&gt;Node33</title>
<path fill="none" stroke="#191970" d="M1343.3122,-336.2455C1360.3473,-327.4125 1385.6575,-314.2887 1404.9681,-304.2758"/>
<polygon fill="#191970" stroke="#191970" points="1406.637,-307.353 1413.9034,-299.6427 1403.4147,-301.1388 1406.637,-307.353"/>
</g>
<!-- Node33&#45;&gt;Node2 -->
<g id="edge53" class="edge">
<title>Node33&#45;&gt;Node2</title>
<path fill="none" stroke="#191970" d="M1427.1401,-280.3973C1418.9948,-266.4972 1402.3325,-240.6194 1382.5,-224 1366.2722,-210.4013 1345.3489,-199.4028 1327.761,-191.5743"/>
<polygon fill="#191970" stroke="#191970" points="1328.9542,-188.2778 1318.3841,-187.5549 1326.1963,-194.7116 1328.9542,-188.2778"/>
</g>
<!-- Node34&#45;&gt;Node2 -->
<g id="edge58" class="edge">
<title>Node34&#45;&gt;Node2</title>
<path fill="none" stroke="#191970" d="M1475.2232,-336.4223C1497.2692,-324.344 1528.1944,-302.4316 1514.5,-280 1478.2686,-220.6524 1397.404,-195.4861 1343.9271,-185.0607"/>
<polygon fill="#191970" stroke="#191970" points="1344.4166,-181.592 1333.9481,-183.2234 1343.149,-188.4763 1344.4166,-181.592"/>
</g>
<!-- Node34&#45;&gt;Node33 -->
<g id="edge57" class="edge">
<title>Node34&#45;&gt;Node33</title>
<path fill="none" stroke="#191970" d="M1451.4937,-336.2455C1448.4265,-328.7776 1444.0997,-318.2427 1440.3503,-309.1137"/>
<polygon fill="#191970" stroke="#191970" points="1443.4972,-307.5631 1436.4604,-299.6427 1437.0221,-310.2226 1443.4972,-307.5631"/>
</g>
<!-- Node35&#45;&gt;Node4 -->
<g id="edge63" class="edge">
<title>Node35&#45;&gt;Node4</title>
<path fill="none" stroke="#191970" d="M39.0643,-392.4856C34.3637,-373.2608 24.5,-328.351 24.5,-290 24.5,-290 24.5,-290 24.5,-178 24.5,-119.8596 204.8379,-87.1483 303.9886,-73.5572"/>
<polygon fill="#191970" stroke="#191970" points="304.4616,-77.0252 313.9063,-72.2243 303.5291,-70.0876 304.4616,-77.0252"/>
</g>
<!-- Node36&#45;&gt;Node4 -->
<g id="edge65" class="edge">
<title>Node36&#45;&gt;Node4</title>
<path fill="none" stroke="#191970" d="M115.0338,-224.3824C121.8064,-200.7565 142.7205,-139.7792 184.5,-112 204.0917,-98.9735 259.3089,-86.0835 304.0063,-77.2777"/>
<polygon fill="#191970" stroke="#191970" points="304.7957,-80.6899 313.9473,-75.3515 303.4641,-73.8177 304.7957,-80.6899"/>
</g>
<!-- Node36&#45;&gt;Node15 -->
<g id="edge66" class="edge">
<title>Node36&#45;&gt;Node15</title>
<path fill="none" stroke="#191970" d="M127.8284,-224.2455C141.3303,-215.6534 161.2122,-203.0014 176.7686,-193.1018"/>
<polygon fill="#191970" stroke="#191970" points="178.7897,-195.9643 185.3472,-187.6427 175.0315,-190.0587 178.7897,-195.9643"/>
</g>
<!-- Node37&#45;&gt;Node2 -->
<g id="edge69" class="edge">
<title>Node37&#45;&gt;Node2</title>
<path fill="none" stroke="#191970" d="M1567.6018,-336.4326C1557.4818,-312.9214 1527.9547,-252.185 1482.5,-224 1440.1779,-197.7574 1383.9538,-186.4856 1343.6668,-181.6444"/>
<polygon fill="#191970" stroke="#191970" points="1343.8527,-178.1436 1333.528,-180.5206 1343.0815,-185.101 1343.8527,-178.1436"/>
</g>
<!-- Node37&#45;&gt;Node33 -->
<g id="edge68" class="edge">
<title>Node37&#45;&gt;Node33</title>
<path fill="none" stroke="#191970" d="M1547.605,-336.3733C1524.9918,-327.2629 1490.8458,-313.5062 1465.6127,-303.3404"/>
<polygon fill="#191970" stroke="#191970" points="1466.6666,-299.9917 1456.0831,-299.5011 1464.0507,-306.4845 1466.6666,-299.9917"/>
</g>
</g>
</svg>
        <g id="navigator" transform="translate(0 0)" fill="#404254">
                <rect fill="#f2f5e9" fill-opacity="0.5" stroke="#606060" stroke-width=".5" x="0" y="0" width="60" height="60"/>
                <use id="zoomplus" xlink:href="#zoomPlus" x="17" y="9" onmousedown="handleZoom(evt,'in')"/>
                <use id="zoomminus" xlink:href="#zoomMin" x="42" y="9" onmousedown="handleZoom(evt,'out')"/>
                <use id="reset" xlink:href="#resetDef" x="30" y="36" onmousedown="handleReset()"/>
                <g id="arrowUp" xlink:href="#dirArrow" transform="translate(30 24)" onmousedown="handlePan(0,-1)">
                  <use xlink:href="#rim" fill="#404040">
                        <set attributeName="fill" to="#808080" begin="arrowUp.mouseover" end="arrowUp.mouseout"/>
                  </use>
                  <path fill="none" stroke="white" stroke-width="1.5" d="M0,-3.0v7 M-2.5,-0.5L0,-3.0L2.5,-0.5"/>
                </g>
                <g id="arrowRight" xlink:href="#dirArrow" transform="rotate(90) translate(36 -43)" onmousedown="handlePan(1,0)">
                  <use xlink:href="#rim" fill="#404040">
                        <set attributeName="fill" to="#808080" begin="arrowRight.mouseover" end="arrowRight.mouseout"/>
                  </use>
                  <path fill="none" stroke="white" stroke-width="1.5" d="M0,-3.0v7 M-2.5,-0.5L0,-3.0L2.5,-0.5"/>
                </g>
                <g id="arrowDown" xlink:href="#dirArrow" transform="rotate(180) translate(-30 -48)" onmousedown="handlePan(0,1)">
                  <use xlink:href="#rim" fill="#404040">
                        <set attributeName="fill" to="#808080" begin="arrowDown.mouseover" end="arrowDown.mouseout"/>
                  </use>
                  <path fill="none" stroke="white" stroke-width="1.5" d="M0,-3.0v7 M-2.5,-0.5L0,-3.0L2.5,-0.5"/>
                </g>
                <g id="arrowLeft" xlink:href="#dirArrow" transform="rotate(270) translate(-36 17)" onmousedown="handlePan(-1,0)">
                  <use xlink:href="#rim" fill="#404040">
                        <set attributeName="fill" to="#808080" begin="arrowLeft.mouseover" end="arrowLeft.mouseout"/>
                  </use>
                  <path fill="none" stroke="white" stroke-width="1.5" d="M0,-3.0v7 M-2.5,-0.5L0,-3.0L2.5,-0.5"/>
                </g>
        </g>
        <svg viewBox="0 0 15 15" width="100%" height="30px" preserveAspectRatio="xMaxYMin meet">
         <g id="arrow_out" transform="scale(0.3 0.3)">
          <a xlink:href="GPUTPCTrackletSelector_8cxx__incl_org.svg" target="_base">
           <rect id="button" ry="5" rx="5" y="6" x="6" height="38" width="38"
                fill="#f2f5e9" fill-opacity="0.5" stroke="#606060" stroke-width="1.0"/>
           <path id="arrow"
             d="M 11.500037,31.436501 C 11.940474,20.09759 22.043105,11.32322 32.158766,21.979434 L 37.068811,17.246167 C 37.068811,17.246167 37.088388,32 37.088388,32 L 22.160133,31.978069 C 22.160133,31.978069 26.997745,27.140456 26.997745,27.140456 C 18.528582,18.264221 13.291696,25.230495 11.500037,31.436501 z"
             style="fill:#404040;"/>
          </a>
         </g>
        </svg>
</svg>
