<?xml version="1.0" encoding="UTF-8" standalone="no"?>
<!DOCTYPE svg PUBLIC "-//W3C//DTD SVG 1.1//EN"
 "http://www.w3.org/Graphics/SVG/1.1/DTD/svg11.dtd">
<!-- Generated by graphviz version 2.40.1 (20161225.0304)
 -->
<!-- Title: /home/travis/build/AliceO2Group/AliceO2/Detectors/EMCAL/reconstruction/src/Clusterizer.cxx Pages: 1 -->
<!--zoomable 385 -->
<svg id="main" version="1.1" xmlns="http://www.w3.org/2000/svg" xmlns:xlink="http://www.w3.org/1999/xlink" xml:space="preserve" onload="init(evt)">
<style type="text/css"><![CDATA[
.edge:hover path { stroke: red; }
.edge:hover polygon { stroke: red; fill: red; }
]]></style>
<script type="text/javascript"><![CDATA[
var edges = document.getElementsByTagName('g');
if (edges && edges.length) {
  for (var i=0;i<edges.length;i++) {
    if (edges[i].id.substr(0,4)=='edge') {
      edges[i].setAttribute('class','edge');
    }
  }
}
]]></script>
        <defs>
                <circle id="rim" cx="0" cy="0" r="7"/>
                <circle id="rim2" cx="0" cy="0" r="3.5"/>
                <g id="zoomPlus">
                        <use xlink:href="#rim" fill="#404040">
                                <set attributeName="fill" to="#808080" begin="zoomplus.mouseover" end="zoomplus.mouseout"/>
                        </use>
                        <path d="M-4,0h8M0,-4v8" fill="none" stroke="white" stroke-width="1.5" pointer-events="none"/>
                </g>
                <g id="zoomMin">
                        <use xlink:href="#rim" fill="#404040">
                                <set attributeName="fill" to="#808080" begin="zoomminus.mouseover" end="zoomminus.mouseout"/>
                        </use>
                        <path d="M-4,0h8" fill="none" stroke="white" stroke-width="1.5" pointer-events="none"/>
                </g>
                <g id="dirArrow">
                        <path fill="none" stroke="white" stroke-width="1.5" d="M0,-3.0v7 M-2.5,-0.5L0,-3.0L2.5,-0.5"/>
                </g>
               <g id="resetDef">
                       <use xlink:href="#rim2" fill="#404040">
                               <set attributeName="fill" to="#808080" begin="reset.mouseover" end="reset.mouseout"/>
                       </use>
               </g>
        </defs>

<script type="text/javascript">
var viewWidth = 2817;
var viewHeight = 385;
var sectionId = 'dynsection-0';
</script>
<script xlink:href="../../svgpan.js"/>
<svg id="graph" class="graph">
<g id="viewport">
<title>/home/travis/build/AliceO2Group/AliceO2/Detectors/EMCAL/reconstruction/src/Clusterizer.cxx</title>
<!-- Node0 -->
<g id="node1" class="node">
<title>Node0</title>
<polygon fill="#bfbfbf" stroke="#000000" points="425.5,-324.5 425.5,-376.5 601.5,-376.5 601.5,-324.5 425.5,-324.5"/>
<text text-anchor="start" x="433.5" y="-364.5" font-family="Helvetica,sans-Serif" font-size="10.00" fill="#000000">/home/travis/build</text>
<text text-anchor="start" x="433.5" y="-353.5" font-family="Helvetica,sans-Serif" font-size="10.00" fill="#000000">/AliceO2Group/AliceO2</text>
<text text-anchor="start" x="433.5" y="-342.5" font-family="Helvetica,sans-Serif" font-size="10.00" fill="#000000">/Detectors/EMCAL/reconstruction</text>
<text text-anchor="middle" x="513.5" y="-331.5" font-family="Helvetica,sans-Serif" font-size="10.00" fill="#000000">/src/Clusterizer.cxx</text>
</g>
<!-- Node1 -->
<g id="node2" class="node">
<title>Node1</title>
<polygon fill="none" stroke="#bfbfbf" points="391.5,-263 391.5,-282 441.5,-282 441.5,-263 391.5,-263"/>
<text text-anchor="middle" x="416.5" y="-270" font-family="Helvetica,sans-Serif" font-size="10.00" fill="#000000">cstring</text>
</g>
<!-- Node0&#45;&gt;Node1 -->
<g id="edge1" class="edge">
<title>Node0&#45;&gt;Node1</title>
<path fill="none" stroke="#191970" d="M480.9306,-324.3101C466.2629,-312.5155 449.4084,-298.9625 436.6176,-288.677"/>
<polygon fill="#191970" stroke="#191970" points="438.4747,-285.6791 428.4883,-282.1401 434.0881,-291.1342 438.4747,-285.6791"/>
</g>
<!-- Node2 -->
<g id="node3" class="node">
<title>Node2</title>
<polygon fill="none" stroke="#bfbfbf" points="0,-201.5 0,-220.5 57,-220.5 57,-201.5 0,-201.5"/>
<text text-anchor="middle" x="28.5" y="-208.5" font-family="Helvetica,sans-Serif" font-size="10.00" fill="#000000">gsl/span</text>
</g>
<!-- Node0&#45;&gt;Node2 -->
<g id="edge2" class="edge">
<title>Node0&#45;&gt;Node2</title>
<path fill="none" stroke="#191970" d="M503.4182,-324.271C493.4897,-302.3138 476.0751,-272.2017 450.5,-257 377.7758,-213.7731 154.9991,-234.6121 71.5,-221 70.0344,-220.7611 68.5443,-220.501 67.0418,-220.2244"/>
<polygon fill="#191970" stroke="#191970" points="67.5706,-216.7606 57.075,-218.2072 66.1819,-223.6214 67.5706,-216.7606"/>
</g>
<!-- Node3 -->
<g id="node4" class="node">
<title>Node3</title>
<polygon fill="none" stroke="#bfbfbf" points="638,-263 638,-282 713,-282 713,-263 638,-263"/>
<text text-anchor="middle" x="675.5" y="-270" font-family="Helvetica,sans-Serif" font-size="10.00" fill="#000000">FairLogger.h</text>
</g>
<!-- Node0&#45;&gt;Node3 -->
<g id="edge3" class="edge">
<title>Node0&#45;&gt;Node3</title>
<path fill="none" stroke="#191970" d="M567.8943,-324.3101C594.1574,-311.665 624.6184,-296.9985 646.4134,-286.5046"/>
<polygon fill="#191970" stroke="#191970" points="647.9866,-289.6318 655.4782,-282.1401 644.9498,-283.3248 647.9866,-289.6318"/>
</g>
<!-- Node4 -->
<g id="node5" class="node">
<title>Node4</title>
<g id="a_node5"><a xlink:href="../../da/d9a/EMCAL_2reconstruction_2include_2EMCALReconstruction_2Clusterizer_8h.html" target="_top" xlink:title="EMCALReconstruction\l/Clusterizer.h">
<polygon fill="none" stroke="#000000" points="497.5,-257.5 497.5,-287.5 619.5,-287.5 619.5,-257.5 497.5,-257.5"/>
<text text-anchor="start" x="505.5" y="-275.5" font-family="Helvetica,sans-Serif" font-size="10.00" fill="#000000">EMCALReconstruction</text>
<text text-anchor="middle" x="558.5" y="-264.5" font-family="Helvetica,sans-Serif" font-size="10.00" fill="#000000">/Clusterizer.h</text>
</a>
</g>
</g>
<!-- Node0&#45;&gt;Node4 -->
<g id="edge4" class="edge">
<title>Node0&#45;&gt;Node4</title>
<path fill="none" stroke="#191970" d="M528.7349,-324.0928C533.903,-315.1348 539.644,-305.1838 544.6943,-296.43"/>
<polygon fill="#191970" stroke="#191970" points="547.8779,-297.9155 549.8435,-287.5046 541.8146,-294.4174 547.8779,-297.9155"/>
</g>
<!-- Node4&#45;&gt;Node2 -->
<g id="edge6" class="edge">
<title>Node4&#45;&gt;Node2</title>
<path fill="none" stroke="#191970" d="M497.2084,-259.2261C492.5806,-258.41 487.9729,-257.6553 483.5,-257 301.6328,-230.3542 253.0243,-249.8897 71.5,-221 70.0335,-220.7666 68.5426,-220.5112 67.0395,-220.2386"/>
<polygon fill="#191970" stroke="#191970" points="67.5633,-216.774 57.07,-218.2377 66.1858,-223.6371 67.5633,-216.774"/>
</g>
<!-- Node5 -->
<g id="node6" class="node">
<title>Node5</title>
<polygon fill="none" stroke="#bfbfbf" points="851.5,-140 851.5,-159 893.5,-159 893.5,-140 851.5,-140"/>
<text text-anchor="middle" x="872.5" y="-147" font-family="Helvetica,sans-Serif" font-size="10.00" fill="#000000">array</text>
</g>
<!-- Node4&#45;&gt;Node5 -->
<g id="edge5" class="edge">
<title>Node4&#45;&gt;Node5</title>
<path fill="none" stroke="#191970" d="M619.5394,-258.7608C622.566,-258.1497 625.5655,-257.5591 628.5,-257 678.2411,-247.5223 815.9319,-254.9506 853.5,-221 867.9011,-207.9856 871.9207,-185.4197 872.7972,-169.1148"/>
<polygon fill="#191970" stroke="#191970" points="876.2983,-169.0867 872.9908,-159.0214 869.2996,-168.9524 876.2983,-169.0867"/>
</g>
<!-- Node6 -->
<g id="node7" class="node">
<title>Node6</title>
<polygon fill="none" stroke="#bfbfbf" points="815,-6 815,-25 874,-25 874,-6 815,-6"/>
<text text-anchor="middle" x="844.5" y="-13" font-family="Helvetica,sans-Serif" font-size="10.00" fill="#000000">Rtypes.h</text>
</g>
<!-- Node4&#45;&gt;Node6 -->
<g id="edge7" class="edge">
<title>Node4&#45;&gt;Node6</title>
<path fill="none" stroke="#191970" d="M497.2166,-260.1585C491.5688,-259.0705 485.9308,-258.0027 480.5,-257 317.9463,-226.9874 47.6811,-277.6318 129.5,-134 158.3995,-83.2673 186.9013,-84.8263 242.5,-67 347.7175,-33.2647 687.4536,-20.1763 804.4612,-16.599"/>
<polygon fill="#191970" stroke="#191970" points="804.8636,-20.0887 814.7545,-16.2915 804.6544,-13.0918 804.8636,-20.0887"/>
</g>
<!-- Node7 -->
<g id="node8" class="node">
<title>Node7</title>
<g id="a_node8"><a xlink:href="../../dc/d27/DataFormats_2Detectors_2EMCAL_2include_2DataFormatsEMCAL_2Cluster_8h.html" target="_top" xlink:title="DataFormatsEMCAL/Cluster.h">
<polygon fill="none" stroke="#000000" points="686.5,-201.5 686.5,-220.5 844.5,-220.5 844.5,-201.5 686.5,-201.5"/>
<text text-anchor="middle" x="765.5" y="-208.5" font-family="Helvetica,sans-Serif" font-size="10.00" fill="#000000">DataFormatsEMCAL/Cluster.h</text>
</a>
</g>
</g>
<!-- Node4&#45;&gt;Node7 -->
<g id="edge8" class="edge">
<title>Node4&#45;&gt;Node7</title>
<path fill="none" stroke="#191970" d="M609.1379,-257.4554C644.2823,-247.0139 690.5424,-233.27 723.6103,-223.4455"/>
<polygon fill="#191970" stroke="#191970" points="724.8333,-226.7334 733.4223,-220.5303 722.8397,-220.0233 724.8333,-226.7334"/>
</g>
<!-- Node14 -->
<g id="node15" class="node">
<title>Node14</title>
<g id="a_node15"><a xlink:href="../../d3/d6e/DataFormats_2Detectors_2EMCAL_2include_2DataFormatsEMCAL_2Digit_8h.html" target="_top" xlink:title="DataFormatsEMCAL/Digit.h">
<polygon fill="none" stroke="#000000" points="278.5,-201.5 278.5,-220.5 426.5,-220.5 426.5,-201.5 278.5,-201.5"/>
<text text-anchor="middle" x="352.5" y="-208.5" font-family="Helvetica,sans-Serif" font-size="10.00" fill="#000000">DataFormatsEMCAL/Digit.h</text>
</a>
</g>
</g>
<!-- Node4&#45;&gt;Node14 -->
<g id="edge18" class="edge">
<title>Node4&#45;&gt;Node14</title>
<path fill="none" stroke="#191970" d="M508.1067,-257.4554C473.1321,-247.0139 427.0954,-233.27 394.1873,-223.4455"/>
<polygon fill="#191970" stroke="#191970" points="395.006,-220.0373 384.4227,-220.5303 393.0035,-226.7448 395.006,-220.0373"/>
</g>
<!-- Node20 -->
<g id="node21" class="node">
<title>Node20</title>
<g id="a_node21"><a xlink:href="../../d5/dd3/DataFormats_2Detectors_2EMCAL_2include_2DataFormatsEMCAL_2Cell_8h.html" target="_top" xlink:title="DataFormatsEMCAL/Cell.h">
<polygon fill="none" stroke="#000000" points="1042,-201.5 1042,-220.5 1185,-220.5 1185,-201.5 1042,-201.5"/>
<text text-anchor="middle" x="1113.5" y="-208.5" font-family="Helvetica,sans-Serif" font-size="10.00" fill="#000000">DataFormatsEMCAL/Cell.h</text>
</a>
</g>
</g>
<!-- Node4&#45;&gt;Node20 -->
<g id="edge29" class="edge">
<title>Node4&#45;&gt;Node20</title>
<path fill="none" stroke="#191970" d="M619.8785,-258.4599C622.7872,-257.936 625.672,-257.4455 628.5,-257 769.31,-234.8194 934.9237,-221.9066 1031.6534,-215.6722"/>
<polygon fill="#191970" stroke="#191970" points="1031.9025,-219.1635 1041.66,-215.0353 1031.4578,-212.1777 1031.9025,-219.1635"/>
</g>
<!-- Node22 -->
<g id="node23" class="node">
<title>Node22</title>
<g id="a_node23"><a xlink:href="../../dd/da8/EMCAL_2base_2include_2EMCALBase_2Geometry_8h.html" target="_top" xlink:title="EMCALBase/Geometry.h">
<polygon fill="none" stroke="#000000" points="1419,-201.5 1419,-220.5 1552,-220.5 1552,-201.5 1419,-201.5"/>
<text text-anchor="middle" x="1485.5" y="-208.5" font-family="Helvetica,sans-Serif" font-size="10.00" fill="#000000">EMCALBase/Geometry.h</text>
</a>
</g>
</g>
<!-- Node4&#45;&gt;Node22 -->
<g id="edge33" class="edge">
<title>Node4&#45;&gt;Node22</title>
<path fill="none" stroke="#191970" d="M619.8573,-258.3158C622.7717,-257.8305 625.6635,-257.3875 628.5,-257 778.023,-236.5738 1227.505,-219.6716 1408.6231,-213.5058"/>
<polygon fill="#191970" stroke="#191970" points="1408.9877,-216.9955 1418.8634,-213.1589 1408.7507,-209.9995 1408.9877,-216.9955"/>
</g>
<!-- Node7&#45;&gt;Node5 -->
<g id="edge9" class="edge">
<title>Node7&#45;&gt;Node5</title>
<path fill="none" stroke="#191970" d="M782.2188,-201.3906C799.5722,-191.4165 826.9323,-175.6908 846.9882,-164.1633"/>
<polygon fill="#191970" stroke="#191970" points="848.9728,-167.0596 855.8987,-159.0419 845.4846,-160.9907 848.9728,-167.0596"/>
</g>
<!-- Node8 -->
<g id="node9" class="node">
<title>Node8</title>
<polygon fill="none" stroke="#bfbfbf" points="826,-73 826,-92 875,-92 875,-73 826,-73"/>
<text text-anchor="middle" x="850.5" y="-80" font-family="Helvetica,sans-Serif" font-size="10.00" fill="#000000">iosfwd</text>
</g>
<!-- Node7&#45;&gt;Node8 -->
<g id="edge10" class="edge">
<title>Node7&#45;&gt;Node8</title>
<path fill="none" stroke="#191970" d="M774.7668,-201.2234C783.069,-192.2076 795.3169,-178.2533 804.5,-165 819.0218,-144.0416 832.8724,-118.1087 841.5103,-100.9751"/>
<polygon fill="#191970" stroke="#191970" points="844.65,-102.5217 845.9595,-92.0081 838.3795,-99.4104 844.65,-102.5217"/>
</g>
<!-- Node9 -->
<g id="node10" class="node">
<title>Node9</title>
<polygon fill="none" stroke="#bfbfbf" points="1333.5,-73 1333.5,-92 1377.5,-92 1377.5,-73 1333.5,-73"/>
<text text-anchor="middle" x="1355.5" y="-80" font-family="Helvetica,sans-Serif" font-size="10.00" fill="#000000">string</text>
</g>
<!-- Node7&#45;&gt;Node9 -->
<g id="edge11" class="edge">
<title>Node7&#45;&gt;Node9</title>
<path fill="none" stroke="#191970" d="M844.5967,-204.721C926.9993,-197.3296 1050.0397,-183.6556 1093.5,-165 1113.8467,-156.266 1112.5553,-143.6168 1132.5,-134 1195.9528,-103.4048 1278.4696,-90.4865 1323.214,-85.4349"/>
<polygon fill="#191970" stroke="#191970" points="1323.646,-88.9088 1333.2178,-84.3666 1322.9026,-81.9484 1323.646,-88.9088"/>
</g>
<!-- Node10 -->
<g id="node11" class="node">
<title>Node10</title>
<polygon fill="none" stroke="#bfbfbf" points="1142,-140 1142,-159 1189,-159 1189,-140 1142,-140"/>
<text text-anchor="middle" x="1165.5" y="-147" font-family="Helvetica,sans-Serif" font-size="10.00" fill="#000000">vector</text>
</g>
<!-- Node7&#45;&gt;Node10 -->
<g id="edge12" class="edge">
<title>Node7&#45;&gt;Node10</title>
<path fill="none" stroke="#191970" d="M844.6565,-206.8938C918.7613,-201.6582 1032.0651,-190.0655 1127.5,-165 1130.123,-164.3111 1132.806,-163.4844 1135.4732,-162.5761"/>
<polygon fill="#191970" stroke="#191970" points="1136.7943,-165.8188 1144.9282,-159.0298 1134.336,-159.2646 1136.7943,-165.8188"/>
</g>
<!-- Node11 -->
<g id="node12" class="node">
<title>Node11</title>
<g id="a_node12"><a xlink:href="../../df/d5d/common_2include_2CommonDataFormat_2TimeStamp_8h.html" target="_top" xlink:title="CommonDataFormat/TimeStamp.h">
<polygon fill="none" stroke="#000000" points="380,-140 380,-159 567,-159 567,-140 380,-140"/>
<text text-anchor="middle" x="473.5" y="-147" font-family="Helvetica,sans-Serif" font-size="10.00" fill="#000000">CommonDataFormat/TimeStamp.h</text>
</a>
</g>
</g>
<!-- Node7&#45;&gt;Node11 -->
<g id="edge13" class="edge">
<title>Node7&#45;&gt;Node11</title>
<path fill="none" stroke="#191970" d="M720.1954,-201.4581C668.6204,-190.5956 584.3592,-172.8488 528.914,-161.1711"/>
<polygon fill="#191970" stroke="#191970" points="529.4176,-157.7004 518.9109,-159.0643 527.9749,-164.5502 529.4176,-157.7004"/>
</g>
<!-- Node13 -->
<g id="node14" class="node">
<title>Node13</title>
<g id="a_node14"><a xlink:href="../../de/d64/RangeReference_8h.html" target="_top" xlink:title="Class to refer to the 1st entry and N elements of some group in the continuous container. ">
<polygon fill="none" stroke="#000000" points="585.5,-140 585.5,-159 795.5,-159 795.5,-140 585.5,-140"/>
<text text-anchor="middle" x="690.5" y="-147" font-family="Helvetica,sans-Serif" font-size="10.00" fill="#000000">CommonDataFormat/RangeReference.h</text>
</a>
</g>
</g>
<!-- Node7&#45;&gt;Node13 -->
<g id="edge16" class="edge">
<title>Node7&#45;&gt;Node13</title>
<path fill="none" stroke="#191970" d="M753.7813,-201.3906C742.1812,-191.8786 724.2021,-177.1357 710.3679,-165.7917"/>
<polygon fill="#191970" stroke="#191970" points="712.336,-162.8792 702.384,-159.2449 707.8974,-168.2921 712.336,-162.8792"/>
</g>
<!-- Node12 -->
<g id="node13" class="node">
<title>Node12</title>
<g id="a_node13"><a xlink:href="../../d2/d45/GPUCommonRtypes_8h.html" target="_top" xlink:title="GPUCommonRtypes.h">
<polygon fill="none" stroke="#000000" points="628,-73 628,-92 753,-92 753,-73 628,-73"/>
<text text-anchor="middle" x="690.5" y="-80" font-family="Helvetica,sans-Serif" font-size="10.00" fill="#000000">GPUCommonRtypes.h</text>
</a>
</g>
</g>
<!-- Node11&#45;&gt;Node12 -->
<g id="edge14" class="edge">
<title>Node11&#45;&gt;Node12</title>
<path fill="none" stroke="#191970" d="M504.5908,-139.9005C542.7808,-128.1091 607.6687,-108.0746 649.7986,-95.0668"/>
<polygon fill="#191970" stroke="#191970" points="650.9445,-98.3761 659.4669,-92.0817 648.8794,-91.6876 650.9445,-98.3761"/>
</g>
<!-- Node12&#45;&gt;Node6 -->
<g id="edge15" class="edge">
<title>Node12&#45;&gt;Node6</title>
<path fill="none" stroke="#191970" d="M712.5644,-72.9005C738.8665,-61.4574 783.0128,-42.2509 812.9245,-29.2374"/>
<polygon fill="#191970" stroke="#191970" points="814.703,-32.2806 822.4765,-25.0817 811.9104,-25.8617 814.703,-32.2806"/>
</g>
<!-- Node13&#45;&gt;Node12 -->
<g id="edge17" class="edge">
<title>Node13&#45;&gt;Node12</title>
<path fill="none" stroke="#191970" d="M690.5,-139.9005C690.5,-130.149 690.5,-114.7597 690.5,-102.3695"/>
<polygon fill="#191970" stroke="#191970" points="694.0001,-102.0816 690.5,-92.0817 687.0001,-102.0817 694.0001,-102.0816"/>
</g>
<!-- Node14&#45;&gt;Node6 -->
<g id="edge21" class="edge">
<title>Node14&#45;&gt;Node6</title>
<path fill="none" stroke="#191970" d="M278.4813,-207.4802C202.451,-201.1497 100.6972,-183.4507 142.5,-134 185.8988,-82.6614 662.523,-32.9993 804.6966,-19.2412"/>
<polygon fill="#191970" stroke="#191970" points="805.1109,-22.7176 814.7299,-18.2763 804.4408,-15.7498 805.1109,-22.7176"/>
</g>
<!-- Node14&#45;&gt;Node8 -->
<g id="edge19" class="edge">
<title>Node14&#45;&gt;Node8</title>
<path fill="none" stroke="#191970" d="M351.5326,-201.4396C350.4468,-184.889 350.933,-151.0402 370.5,-134 436.3018,-76.6955 675.0041,-109.4948 761.5,-98 779.3551,-95.6272 799.1015,-92.2639 815.449,-89.2764"/>
<polygon fill="#191970" stroke="#191970" points="816.4544,-92.6496 825.6467,-87.3816 815.1756,-85.7673 816.4544,-92.6496"/>
</g>
<!-- Node14&#45;&gt;Node11 -->
<g id="edge22" class="edge">
<title>Node14&#45;&gt;Node11</title>
<path fill="none" stroke="#191970" d="M371.4063,-201.3906C391.2966,-191.2811 422.8123,-175.2628 445.5692,-163.6962"/>
<polygon fill="#191970" stroke="#191970" points="447.3978,-166.693 454.7265,-159.0419 444.226,-160.4528 447.3978,-166.693"/>
</g>
<!-- Node15 -->
<g id="node16" class="node">
<title>Node15</title>
<polygon fill="none" stroke="#bfbfbf" points="277,-140 277,-159 324,-159 324,-140 277,-140"/>
<text text-anchor="middle" x="300.5" y="-147" font-family="Helvetica,sans-Serif" font-size="10.00" fill="#000000">cmath</text>
</g>
<!-- Node14&#45;&gt;Node15 -->
<g id="edge20" class="edge">
<title>Node14&#45;&gt;Node15</title>
<path fill="none" stroke="#191970" d="M344.375,-201.3906C336.6358,-192.2376 324.8013,-178.2409 315.3728,-167.09"/>
<polygon fill="#191970" stroke="#191970" points="317.8689,-164.6213 308.7396,-159.2449 312.5235,-169.1409 317.8689,-164.6213"/>
</g>
<!-- Node16 -->
<g id="node17" class="node">
<title>Node16</title>
<g id="a_node17"><a xlink:href="../../dd/dda/DataFormats_2Detectors_2EMCAL_2include_2DataFormatsEMCAL_2Constants_8h.html" target="_top" xlink:title="DataFormatsEMCAL/Constants.h">
<polygon fill="none" stroke="#000000" points="912,-140 912,-159 1085,-159 1085,-140 912,-140"/>
<text text-anchor="middle" x="998.5" y="-147" font-family="Helvetica,sans-Serif" font-size="10.00" fill="#000000">DataFormatsEMCAL/Constants.h</text>
</a>
</g>
</g>
<!-- Node14&#45;&gt;Node16 -->
<g id="edge23" class="edge">
<title>Node14&#45;&gt;Node16</title>
<path fill="none" stroke="#191970" d="M426.5221,-206.6168C532.31,-199.9423 732.7285,-185.7741 902.5,-165 912.7227,-163.7491 923.5248,-162.2142 934.0495,-160.6017"/>
<polygon fill="#191970" stroke="#191970" points="934.6895,-164.0442 944.0273,-159.0386 933.6061,-157.1285 934.6895,-164.0442"/>
</g>
<!-- Node19 -->
<g id="node20" class="node">
<title>Node19</title>
<polygon fill="none" stroke="#bfbfbf" points="152,-134.5 152,-164.5 259,-164.5 259,-134.5 152,-134.5"/>
<text text-anchor="start" x="160" y="-152.5" font-family="Helvetica,sans-Serif" font-size="10.00" fill="#000000">boost/serialization</text>
<text text-anchor="middle" x="205.5" y="-141.5" font-family="Helvetica,sans-Serif" font-size="10.00" fill="#000000">/base_object.hpp</text>
</g>
<!-- Node14&#45;&gt;Node19 -->
<g id="edge28" class="edge">
<title>Node14&#45;&gt;Node19</title>
<path fill="none" stroke="#191970" d="M329.5313,-201.3906C308.5313,-192.6049 276.8648,-179.3567 250.7855,-168.446"/>
<polygon fill="#191970" stroke="#191970" points="252.0363,-165.1754 241.4602,-164.5446 249.3346,-171.633 252.0363,-165.1754"/>
</g>
<!-- Node16&#45;&gt;Node6 -->
<g id="edge24" class="edge">
<title>Node16&#45;&gt;Node6</title>
<path fill="none" stroke="#191970" d="M999.0252,-139.8102C999.404,-122.9339 997.7408,-87.951 979.5,-67 955.3038,-39.2087 914.4262,-26.3545 883.9776,-20.4458"/>
<polygon fill="#191970" stroke="#191970" points="884.5474,-16.9923 874.0906,-18.6967 883.3279,-23.8853 884.5474,-16.9923"/>
</g>
<!-- Node16&#45;&gt;Node8 -->
<g id="edge25" class="edge">
<title>Node16&#45;&gt;Node8</title>
<path fill="none" stroke="#191970" d="M977.2952,-139.9005C952.0179,-128.4574 909.5916,-109.2509 880.8452,-96.2374"/>
<polygon fill="#191970" stroke="#191970" points="882.2189,-93.0173 871.6655,-92.0817 879.332,-99.3943 882.2189,-93.0173"/>
</g>
<!-- Node17 -->
<g id="node18" class="node">
<title>Node17</title>
<polygon fill="none" stroke="#bfbfbf" points="1107,-73 1107,-92 1172,-92 1172,-73 1107,-73"/>
<text text-anchor="middle" x="1139.5" y="-80" font-family="Helvetica,sans-Serif" font-size="10.00" fill="#000000">exception</text>
</g>
<!-- Node16&#45;&gt;Node17 -->
<g id="edge26" class="edge">
<title>Node16&#45;&gt;Node17</title>
<path fill="none" stroke="#191970" d="M1018.7019,-139.9005C1042.679,-128.5072 1082.8521,-109.4178 1110.2321,-96.4075"/>
<polygon fill="#191970" stroke="#191970" points="1111.8056,-99.5348 1119.3356,-92.0817 1108.8013,-93.2123 1111.8056,-99.5348"/>
</g>
<!-- Node18 -->
<g id="node19" class="node">
<title>Node18</title>
<polygon fill="none" stroke="#bfbfbf" points="920.5,-73 920.5,-92 970.5,-92 970.5,-73 920.5,-73"/>
<text text-anchor="middle" x="945.5" y="-80" font-family="Helvetica,sans-Serif" font-size="10.00" fill="#000000">cstdint</text>
</g>
<!-- Node16&#45;&gt;Node18 -->
<g id="edge27" class="edge">
<title>Node16&#45;&gt;Node18</title>
<path fill="none" stroke="#191970" d="M990.9064,-139.9005C982.7202,-129.552 969.5115,-112.8542 959.4457,-100.1295"/>
<polygon fill="#191970" stroke="#191970" points="962.0286,-97.7531 953.0795,-92.0817 956.5386,-102.0959 962.0286,-97.7531"/>
</g>
<!-- Node20&#45;&gt;Node6 -->
<g id="edge31" class="edge">
<title>Node20&#45;&gt;Node6</title>
<path fill="none" stroke="#191970" d="M1165.5814,-201.4495C1203.0689,-193.3926 1248.9796,-180.6763 1260.5,-165 1268.6589,-153.8978 1266.3286,-146.4842 1260.5,-134 1240.8801,-91.9765 1222.759,-86.1074 1180.5,-67 1128.2436,-43.3722 961.663,-25.9367 884.4717,-18.91"/>
<polygon fill="#191970" stroke="#191970" points="884.4669,-15.3956 874.1941,-17.9881 883.8414,-22.3676 884.4669,-15.3956"/>
</g>
<!-- Node20&#45;&gt;Node16 -->
<g id="edge32" class="edge">
<title>Node20&#45;&gt;Node16</title>
<path fill="none" stroke="#191970" d="M1095.5313,-201.3906C1076.7116,-191.3262 1046.9415,-175.4057 1025.3359,-163.8514"/>
<polygon fill="#191970" stroke="#191970" points="1026.8114,-160.6714 1016.3426,-159.0419 1023.5102,-166.8442 1026.8114,-160.6714"/>
</g>
<!-- Node21 -->
<g id="node22" class="node">
<title>Node21</title>
<polygon fill="none" stroke="#bfbfbf" points="1207.5,-140 1207.5,-159 1251.5,-159 1251.5,-140 1207.5,-140"/>
<text text-anchor="middle" x="1229.5" y="-147" font-family="Helvetica,sans-Serif" font-size="10.00" fill="#000000">bitset</text>
</g>
<!-- Node20&#45;&gt;Node21 -->
<g id="edge30" class="edge">
<title>Node20&#45;&gt;Node21</title>
<path fill="none" stroke="#191970" d="M1131.625,-201.3906C1150.6083,-191.3262 1180.6373,-175.4057 1202.4307,-163.8514"/>
<polygon fill="#191970" stroke="#191970" points="1204.3066,-166.8184 1211.5023,-159.0419 1201.0277,-160.6338 1204.3066,-166.8184"/>
</g>
<!-- Node22&#45;&gt;Node9 -->
<g id="edge35" class="edge">
<title>Node22&#45;&gt;Node9</title>
<path fill="none" stroke="#191970" d="M1437.6085,-201.4245C1415.7535,-194.7126 1391.2853,-183.504 1375.5,-165 1360.5295,-147.451 1356.3886,-120.5223 1355.4311,-102.243"/>
<polygon fill="#191970" stroke="#191970" points="1358.9275,-102.0496 1355.178,-92.1404 1351.9297,-102.225 1358.9275,-102.0496"/>
</g>
<!-- Node22&#45;&gt;Node10 -->
<g id="edge37" class="edge">
<title>Node22&#45;&gt;Node10</title>
<path fill="none" stroke="#191970" d="M1418.7588,-205.6394C1359.8096,-199.6542 1272.0402,-187.6697 1198.5,-165 1196.64,-164.4266 1194.7507,-163.7674 1192.866,-163.0511"/>
<polygon fill="#191970" stroke="#191970" points="1194.2097,-159.8193 1183.6374,-159.1288 1191.4716,-166.2616 1194.2097,-159.8193"/>
</g>
<!-- Node22&#45;&gt;Node16 -->
<g id="edge43" class="edge">
<title>Node22&#45;&gt;Node16</title>
<path fill="none" stroke="#191970" d="M1418.8059,-202.5776C1331.8409,-191.5954 1179.5958,-172.3694 1084.1707,-160.3188"/>
<polygon fill="#191970" stroke="#191970" points="1084.3316,-156.8114 1073.9719,-159.0308 1083.4545,-163.7562 1084.3316,-156.8114"/>
</g>
<!-- Node22&#45;&gt;Node17 -->
<g id="edge34" class="edge">
<title>Node22&#45;&gt;Node17</title>
<path fill="none" stroke="#191970" d="M1457.7864,-201.4165C1431.4183,-192.2457 1390.6638,-177.9344 1355.5,-165 1290.9753,-141.2658 1216.108,-112.3628 1173.6176,-95.8303"/>
<polygon fill="#191970" stroke="#191970" points="1174.6331,-92.4698 1164.0446,-92.1017 1172.0925,-98.9925 1174.6331,-92.4698"/>
</g>
<!-- Node23 -->
<g id="node24" class="node">
<title>Node23</title>
<polygon fill="none" stroke="#bfbfbf" points="1384,-140 1384,-159 1425,-159 1425,-140 1384,-140"/>
<text text-anchor="middle" x="1404.5" y="-147" font-family="Helvetica,sans-Serif" font-size="10.00" fill="#000000">tuple</text>
</g>
<!-- Node22&#45;&gt;Node23 -->
<g id="edge36" class="edge">
<title>Node22&#45;&gt;Node23</title>
<path fill="none" stroke="#191970" d="M1472.8438,-201.3906C1460.1232,-191.7324 1440.2996,-176.6812 1425.2716,-165.271"/>
<polygon fill="#191970" stroke="#191970" points="1427.1484,-162.3015 1417.0674,-159.0419 1422.9154,-167.8766 1427.1484,-162.3015"/>
</g>
<!-- Node24 -->
<g id="node25" class="node">
<title>Node24</title>
<polygon fill="none" stroke="#bfbfbf" points="1443.5,-140 1443.5,-159 1527.5,-159 1527.5,-140 1443.5,-140"/>
<text text-anchor="middle" x="1485.5" y="-147" font-family="Helvetica,sans-Serif" font-size="10.00" fill="#000000">RStringView.h</text>
</g>
<!-- Node22&#45;&gt;Node24 -->
<g id="edge38" class="edge">
<title>Node22&#45;&gt;Node24</title>
<path fill="none" stroke="#191970" d="M1485.5,-201.3906C1485.5,-192.8657 1485.5,-180.1392 1485.5,-169.4235"/>
<polygon fill="#191970" stroke="#191970" points="1489.0001,-169.2448 1485.5,-159.2449 1482.0001,-169.2449 1489.0001,-169.2448"/>
</g>
<!-- Node25 -->
<g id="node26" class="node">
<title>Node25</title>
<polygon fill="none" stroke="#bfbfbf" points="1590.5,-73 1590.5,-92 1672.5,-92 1672.5,-73 1590.5,-73"/>
<text text-anchor="middle" x="1631.5" y="-80" font-family="Helvetica,sans-Serif" font-size="10.00" fill="#000000">TGeoMatrix.h</text>
</g>
<!-- Node22&#45;&gt;Node25 -->
<g id="edge39" class="edge">
<title>Node22&#45;&gt;Node25</title>
<path fill="none" stroke="#191970" d="M1552.2063,-209.5521C1678.6042,-206.1151 1942.8972,-195.3447 1970.5,-165 1979.771,-154.8081 1979.6092,-144.3368 1970.5,-134 1928.44,-86.2719 1748.8431,-110.663 1686.5,-98 1681.7666,-97.0386 1676.8442,-95.8822 1671.9761,-94.6398"/>
<polygon fill="#191970" stroke="#191970" points="1672.7025,-91.211 1662.1374,-92.0037 1670.8908,-97.9726 1672.7025,-91.211"/>
</g>
<!-- Node26 -->
<g id="node27" class="node">
<title>Node26</title>
<polygon fill="none" stroke="#bfbfbf" points="1722,-140 1722,-159 1789,-159 1789,-140 1722,-140"/>
<text text-anchor="middle" x="1755.5" y="-147" font-family="Helvetica,sans-Serif" font-size="10.00" fill="#000000">TNamed.h</text>
</g>
<!-- Node22&#45;&gt;Node26 -->
<g id="edge40" class="edge">
<title>Node22&#45;&gt;Node26</title>
<path fill="none" stroke="#191970" d="M1544.8541,-201.4201C1590.9847,-193.3877 1656.3529,-180.7177 1712.5,-165 1715.294,-164.2179 1718.167,-163.343 1721.0395,-162.4177"/>
<polygon fill="#191970" stroke="#191970" points="1722.3454,-165.6706 1730.6881,-159.14 1720.0937,-159.0427 1722.3454,-165.6706"/>
</g>
<!-- Node27 -->
<g id="node28" class="node">
<title>Node27</title>
<polygon fill="none" stroke="#bfbfbf" points="1807.5,-140 1807.5,-159 1875.5,-159 1875.5,-140 1807.5,-140"/>
<text text-anchor="middle" x="1841.5" y="-147" font-family="Helvetica,sans-Serif" font-size="10.00" fill="#000000">TParticle.h</text>
</g>
<!-- Node22&#45;&gt;Node27 -->
<g id="edge41" class="edge">
<title>Node22&#45;&gt;Node27</title>
<path fill="none" stroke="#191970" d="M1552.2009,-205.102C1616.0893,-198.5394 1714.8642,-185.9947 1798.5,-165 1801.6556,-164.2079 1804.9034,-163.2719 1808.1329,-162.2584"/>
<polygon fill="#191970" stroke="#191970" points="1809.2956,-165.5601 1817.6561,-159.0522 1807.062,-158.926 1809.2956,-165.5601"/>
</g>
<!-- Node28 -->
<g id="node29" class="node">
<title>Node28</title>
<polygon fill="none" stroke="#bfbfbf" points="1893.5,-140 1893.5,-159 1961.5,-159 1961.5,-140 1893.5,-140"/>
<text text-anchor="middle" x="1927.5" y="-147" font-family="Helvetica,sans-Serif" font-size="10.00" fill="#000000">TVector3.h</text>
</g>
<!-- Node22&#45;&gt;Node28 -->
<g id="edge42" class="edge">
<title>Node22&#45;&gt;Node28</title>
<path fill="none" stroke="#191970" d="M1552.3185,-208.0168C1632.2271,-203.3703 1769.6004,-191.9483 1884.5,-165 1887.7448,-164.239 1891.0824,-163.3104 1894.3949,-162.2899"/>
<polygon fill="#191970" stroke="#191970" points="1895.7679,-165.5212 1904.1394,-159.0274 1893.5455,-158.8833 1895.7679,-165.5212"/>
</g>
<!-- Node29 -->
<g id="node30" class="node">
<title>Node29</title>
<g id="a_node30"><a xlink:href="../../d5/d5e/GeometryBase_8h.html" target="_top" xlink:title="EMCALBase/GeometryBase.h">
<polygon fill="none" stroke="#000000" points="1545.5,-140 1545.5,-159 1703.5,-159 1703.5,-140 1545.5,-140"/>
<text text-anchor="middle" x="1624.5" y="-147" font-family="Helvetica,sans-Serif" font-size="10.00" fill="#000000">EMCALBase/GeometryBase.h</text>
</a>
</g>
</g>
<!-- Node22&#45;&gt;Node29 -->
<g id="edge44" class="edge">
<title>Node22&#45;&gt;Node29</title>
<path fill="none" stroke="#191970" d="M1507.2188,-201.3906C1530.374,-191.1457 1567.2441,-174.8326 1593.4591,-163.2339"/>
<polygon fill="#191970" stroke="#191970" points="1595.205,-166.2888 1602.9338,-159.0419 1592.3727,-159.8874 1595.205,-166.2888"/>
</g>
<!-- Node30 -->
<g id="node31" class="node">
<title>Node30</title>
<g id="a_node31"><a xlink:href="../../dd/d76/Cartesian3D_8h.html" target="_top" xlink:title="MathUtils/Cartesian3D.h">
<polygon fill="none" stroke="#000000" points="2018,-140 2018,-159 2153,-159 2153,-140 2018,-140"/>
<text text-anchor="middle" x="2085.5" y="-147" font-family="Helvetica,sans-Serif" font-size="10.00" fill="#000000">MathUtils/Cartesian3D.h</text>
</a>
</g>
</g>
<!-- Node22&#45;&gt;Node30 -->
<g id="edge46" class="edge">
<title>Node22&#45;&gt;Node30</title>
<path fill="none" stroke="#191970" d="M1552.3802,-207.1681C1651.3007,-201.0242 1842.3026,-187.3375 2003.5,-165 2011.855,-163.8422 2020.6508,-162.4094 2029.2548,-160.8865"/>
<polygon fill="#191970" stroke="#191970" points="2030.0188,-164.305 2039.2291,-159.0685 2028.7635,-157.4185 2030.0188,-164.305"/>
</g>
<!-- Node29&#45;&gt;Node9 -->
<g id="edge45" class="edge">
<title>Node29&#45;&gt;Node9</title>
<path fill="none" stroke="#191970" d="M1586.2445,-139.9717C1532.8896,-126.6825 1437.1014,-102.8245 1387.3893,-90.4427"/>
<polygon fill="#191970" stroke="#191970" points="1388.062,-87.0034 1377.5125,-87.9827 1386.3701,-93.7959 1388.062,-87.0034"/>
</g>
<!-- Node30&#45;&gt;Node6 -->
<g id="edge52" class="edge">
<title>Node30&#45;&gt;Node6</title>
<path fill="none" stroke="#191970" d="M2026.7163,-139.974C2013.8048,-137.9455 2000.1979,-135.8568 1987.5,-134 1868.5837,-116.6114 1829.7725,-145.7853 1719.5,-98 1699.5011,-89.3337 1701.7982,-74.9401 1681.5,-67 1606.7818,-37.7723 1040.1465,-20.6944 884.1483,-16.5134"/>
<polygon fill="#191970" stroke="#191970" points="884.1459,-13.0122 874.0565,-16.2456 883.9601,-20.0097 884.1459,-13.0122"/>
</g>
<!-- Node30&#45;&gt;Node8 -->
<g id="edge54" class="edge">
<title>Node30&#45;&gt;Node8</title>
<path fill="none" stroke="#191970" d="M2023.5545,-139.995C2006.4074,-137.6793 1987.7643,-135.4532 1970.5,-134 1501.2211,-94.4979 1377.738,-164.3722 911.5,-98 902.7917,-96.7603 893.5284,-94.7676 884.9202,-92.6181"/>
<polygon fill="#191970" stroke="#191970" points="885.7497,-89.2173 875.1883,-90.0584 883.9691,-95.987 885.7497,-89.2173"/>
</g>
<!-- Node30&#45;&gt;Node25 -->
<g id="edge53" class="edge">
<title>Node30&#45;&gt;Node25</title>
<path fill="none" stroke="#191970" d="M2038.3374,-139.9693C2026.9585,-137.8405 2014.8172,-135.7099 2003.5,-134 1863.2966,-112.8175 1825.6377,-125.3202 1686.5,-98 1681.7604,-97.0694 1676.8343,-95.9321 1671.964,-94.7004"/>
<polygon fill="#191970" stroke="#191970" points="1672.6872,-91.271 1662.123,-92.0756 1670.8832,-98.0346 1672.6872,-91.271"/>
</g>
<!-- Node31 -->
<g id="node32" class="node">
<title>Node31</title>
<polygon fill="none" stroke="#bfbfbf" points="2437.5,-67.5 2437.5,-97.5 2601.5,-97.5 2601.5,-67.5 2437.5,-67.5"/>
<text text-anchor="start" x="2445.5" y="-85.5" font-family="Helvetica,sans-Serif" font-size="10.00" fill="#000000">Math/GenVector/Displacement</text>
<text text-anchor="middle" x="2519.5" y="-74.5" font-family="Helvetica,sans-Serif" font-size="10.00" fill="#000000">Vector3D.h</text>
</g>
<!-- Node30&#45;&gt;Node31 -->
<g id="edge47" class="edge">
<title>Node30&#45;&gt;Node31</title>
<path fill="none" stroke="#191970" d="M2151.6351,-139.9641C2218.5264,-130.2299 2325.1799,-114.4656 2427.0164,-98.2217"/>
<polygon fill="#191970" stroke="#191970" points="2427.8503,-101.6329 2437.1721,-96.5975 2426.7449,-94.7207 2427.8503,-101.6329"/>
</g>
<!-- Node32 -->
<g id="node33" class="node">
<title>Node32</title>
<polygon fill="none" stroke="#bfbfbf" points="2620,-73 2620,-92 2809,-92 2809,-73 2620,-73"/>
<text text-anchor="middle" x="2714.5" y="-80" font-family="Helvetica,sans-Serif" font-size="10.00" fill="#000000">Math/GenVector/PositionVector3D.h</text>
</g>
<!-- Node30&#45;&gt;Node32 -->
<g id="edge48" class="edge">
<title>Node30&#45;&gt;Node32</title>
<path fill="none" stroke="#191970" d="M2153.1635,-143.9553C2253.2698,-135.5046 2446.6655,-118.2316 2610.5,-98 2621.3195,-96.6639 2632.7505,-95.1077 2643.9191,-93.5068"/>
<polygon fill="#191970" stroke="#191970" points="2644.6851,-96.9323 2654.0771,-92.029 2643.6773,-90.0052 2644.6851,-96.9323"/>
</g>
<!-- Node33 -->
<g id="node34" class="node">
<title>Node33</title>
<polygon fill="none" stroke="#bfbfbf" points="1728.5,-73 1728.5,-92 1888.5,-92 1888.5,-73 1728.5,-73"/>
<text text-anchor="middle" x="1808.5" y="-80" font-family="Helvetica,sans-Serif" font-size="10.00" fill="#000000">Math/GenVector/Rotation3D.h</text>
</g>
<!-- Node30&#45;&gt;Node33 -->
<g id="edge49" class="edge">
<title>Node30&#45;&gt;Node33</title>
<path fill="none" stroke="#191970" d="M2046.1068,-139.9717C1996.7138,-128.0246 1912.0056,-107.5357 1858.2051,-94.5225"/>
<polygon fill="#191970" stroke="#191970" points="1858.7483,-91.0531 1848.2058,-92.1039 1857.1026,-97.8569 1858.7483,-91.0531"/>
</g>
<!-- Node34 -->
<g id="node35" class="node">
<title>Node34</title>
<polygon fill="none" stroke="#bfbfbf" points="1906.5,-73 1906.5,-92 2074.5,-92 2074.5,-73 1906.5,-73"/>
<text text-anchor="middle" x="1990.5" y="-80" font-family="Helvetica,sans-Serif" font-size="10.00" fill="#000000">Math/GenVector/Transform3D.h</text>
</g>
<!-- Node30&#45;&gt;Node34 -->
<g id="edge50" class="edge">
<title>Node30&#45;&gt;Node34</title>
<path fill="none" stroke="#191970" d="M2071.8888,-139.9005C2056.3689,-128.9549 2030.7777,-110.9064 2012.4333,-97.9688"/>
<polygon fill="#191970" stroke="#191970" points="2014.2752,-94.9849 2004.0859,-92.0817 2010.2408,-100.7054 2014.2752,-94.9849"/>
</g>
<!-- Node35 -->
<g id="node36" class="node">
<title>Node35</title>
<polygon fill="none" stroke="#bfbfbf" points="2093,-73 2093,-92 2266,-92 2266,-73 2093,-73"/>
<text text-anchor="middle" x="2179.5" y="-80" font-family="Helvetica,sans-Serif" font-size="10.00" fill="#000000">Math/GenVector/Translation3D.h</text>
</g>
<!-- Node30&#45;&gt;Node35 -->
<g id="edge51" class="edge">
<title>Node30&#45;&gt;Node35</title>
<path fill="none" stroke="#191970" d="M2098.9679,-139.9005C2114.3244,-128.9549 2139.6463,-110.9064 2157.7976,-97.9688"/>
<polygon fill="#191970" stroke="#191970" points="2159.9454,-100.736 2166.0571,-92.0817 2155.8824,-95.0358 2159.9454,-100.736"/>
</g>
<!-- Node36 -->
<g id="node37" class="node">
<title>Node36</title>
<g id="a_node37"><a xlink:href="../../d2/dd0/Cartesian2D_8h.html" target="_top" xlink:title="MathUtils/Cartesian2D.h">
<polygon fill="none" stroke="#000000" points="2284,-73 2284,-92 2419,-92 2419,-73 2284,-73"/>
<text text-anchor="middle" x="2351.5" y="-80" font-family="Helvetica,sans-Serif" font-size="10.00" fill="#000000">MathUtils/Cartesian2D.h</text>
</a>
</g>
</g>
<!-- Node30&#45;&gt;Node36 -->
<g id="edge55" class="edge">
<title>Node30&#45;&gt;Node36</title>
<path fill="none" stroke="#191970" d="M2123.3288,-139.9717C2170.6618,-128.0495 2251.7666,-107.6208 2303.4462,-94.6038"/>
<polygon fill="#191970" stroke="#191970" points="2304.5288,-97.9405 2313.371,-92.1039 2302.819,-91.1525 2304.5288,-97.9405"/>
</g>
<!-- Node37 -->
<g id="node38" class="node">
<title>Node37</title>
<polygon fill="none" stroke="#bfbfbf" points="2366.5,-.5 2366.5,-30.5 2530.5,-30.5 2530.5,-.5 2366.5,-.5"/>
<text text-anchor="start" x="2374.5" y="-18.5" font-family="Helvetica,sans-Serif" font-size="10.00" fill="#000000">Math/GenVector/Displacement</text>
<text text-anchor="middle" x="2448.5" y="-7.5" font-family="Helvetica,sans-Serif" font-size="10.00" fill="#000000">Vector2D.h</text>
</g>
<!-- Node36&#45;&gt;Node37 -->
<g id="edge56" class="edge">
<title>Node36&#45;&gt;Node37</title>
<path fill="none" stroke="#191970" d="M2365.3977,-72.9005C2379.1735,-63.3853 2400.7205,-48.5023 2418.4221,-36.2755"/>
<polygon fill="#191970" stroke="#191970" points="2420.5132,-39.0849 2426.7521,-30.5218 2416.5349,-33.3253 2420.5132,-39.0849"/>
</g>
<!-- Node38 -->
<g id="node39" class="node">
<title>Node38</title>
<polygon fill="none" stroke="#bfbfbf" points="2159,-6 2159,-25 2348,-25 2348,-6 2159,-6"/>
<text text-anchor="middle" x="2253.5" y="-13" font-family="Helvetica,sans-Serif" font-size="10.00" fill="#000000">Math/GenVector/PositionVector2D.h</text>
</g>
<!-- Node36&#45;&gt;Node38 -->
<g id="edge57" class="edge">
<title>Node36&#45;&gt;Node38</title>
<path fill="none" stroke="#191970" d="M2337.459,-72.9005C2321.3762,-61.9052 2294.8094,-43.7422 2275.8684,-30.7927"/>
<polygon fill="#191970" stroke="#191970" points="2277.7455,-27.8362 2267.515,-25.0817 2273.7948,-33.6148 2277.7455,-27.8362"/>
</g>
</g>
</svg>
        <g id="navigator" transform="translate(0 0)" fill="#404254">
                <rect fill="#f2f5e9" fill-opacity="0.5" stroke="#606060" stroke-width=".5" x="0" y="0" width="60" height="60"/>
                <use id="zoomplus" xlink:href="#zoomPlus" x="17" y="9" onmousedown="handleZoom(evt,'in')"/>
                <use id="zoomminus" xlink:href="#zoomMin" x="42" y="9" onmousedown="handleZoom(evt,'out')"/>
                <use id="reset" xlink:href="#resetDef" x="30" y="36" onmousedown="handleReset()"/>
                <g id="arrowUp" xlink:href="#dirArrow" transform="translate(30 24)" onmousedown="handlePan(0,-1)">
                  <use xlink:href="#rim" fill="#404040">
                        <set attributeName="fill" to="#808080" begin="arrowUp.mouseover" end="arrowUp.mouseout"/>
                  </use>
                  <path fill="none" stroke="white" stroke-width="1.5" d="M0,-3.0v7 M-2.5,-0.5L0,-3.0L2.5,-0.5"/>
                </g>
                <g id="arrowRight" xlink:href="#dirArrow" transform="rotate(90) translate(36 -43)" onmousedown="handlePan(1,0)">
                  <use xlink:href="#rim" fill="#404040">
                        <set attributeName="fill" to="#808080" begin="arrowRight.mouseover" end="arrowRight.mouseout"/>
                  </use>
                  <path fill="none" stroke="white" stroke-width="1.5" d="M0,-3.0v7 M-2.5,-0.5L0,-3.0L2.5,-0.5"/>
                </g>
                <g id="arrowDown" xlink:href="#dirArrow" transform="rotate(180) translate(-30 -48)" onmousedown="handlePan(0,1)">
                  <use xlink:href="#rim" fill="#404040">
                        <set attributeName="fill" to="#808080" begin="arrowDown.mouseover" end="arrowDown.mouseout"/>
                  </use>
                  <path fill="none" stroke="white" stroke-width="1.5" d="M0,-3.0v7 M-2.5,-0.5L0,-3.0L2.5,-0.5"/>
                </g>
                <g id="arrowLeft" xlink:href="#dirArrow" transform="rotate(270) translate(-36 17)" onmousedown="handlePan(-1,0)">
                  <use xlink:href="#rim" fill="#404040">
                        <set attributeName="fill" to="#808080" begin="arrowLeft.mouseover" end="arrowLeft.mouseout"/>
                  </use>
                  <path fill="none" stroke="white" stroke-width="1.5" d="M0,-3.0v7 M-2.5,-0.5L0,-3.0L2.5,-0.5"/>
                </g>
        </g>
        <svg viewBox="0 0 15 15" width="100%" height="30px" preserveAspectRatio="xMaxYMin meet">
         <g id="arrow_out" transform="scale(0.3 0.3)">
          <a xlink:href="EMCAL_2reconstruction_2src_2Clusterizer_8cxx__incl_org.svg" target="_base">
           <rect id="button" ry="5" rx="5" y="6" x="6" height="38" width="38"
                fill="#f2f5e9" fill-opacity="0.5" stroke="#606060" stroke-width="1.0"/>
           <path id="arrow"
             d="M 11.500037,31.436501 C 11.940474,20.09759 22.043105,11.32322 32.158766,21.979434 L 37.068811,17.246167 C 37.068811,17.246167 37.088388,32 37.088388,32 L 22.160133,31.978069 C 22.160133,31.978069 26.997745,27.140456 26.997745,27.140456 C 18.528582,18.264221 13.291696,25.230495 11.500037,31.436501 z"
             style="fill:#404040;"/>
          </a>
         </g>
        </svg>
</svg>
