<?xml version="1.0" encoding="UTF-8" standalone="no"?>
<!DOCTYPE svg PUBLIC "-//W3C//DTD SVG 1.1//EN"
 "http://www.w3.org/Graphics/SVG/1.1/DTD/svg11.dtd">
<!-- Generated by graphviz version 2.40.1 (20161225.0304)
 -->
<!-- Title: /home/travis/build/AliceO2Group/AliceO2/Detectors/TPC/calibration/include/TPCCalibration/DigitDump.h Pages: 1 -->
<svg width="3561pt" height="844pt"
 viewBox="0.00 0.00 3561.00 844.00" xmlns="http://www.w3.org/2000/svg" xmlns:xlink="http://www.w3.org/1999/xlink">
<g id="graph0" class="graph" transform="scale(1 1) rotate(0) translate(4 840)">
<title>/home/travis/build/AliceO2Group/AliceO2/Detectors/TPC/calibration/include/TPCCalibration/DigitDump.h</title>
<!-- Node0 -->
<g id="node1" class="node">
<title>Node0</title>
<polygon fill="#bfbfbf" stroke="#000000" points="865,-783.5 865,-835.5 1059,-835.5 1059,-783.5 865,-783.5"/>
<text text-anchor="start" x="873" y="-823.5" font-family="Helvetica,sans-Serif" font-size="10.00" fill="#000000">/home/travis/build</text>
<text text-anchor="start" x="873" y="-812.5" font-family="Helvetica,sans-Serif" font-size="10.00" fill="#000000">/AliceO2Group/AliceO2</text>
<text text-anchor="start" x="873" y="-801.5" font-family="Helvetica,sans-Serif" font-size="10.00" fill="#000000">/Detectors/TPC/calibration</text>
<text text-anchor="middle" x="962" y="-790.5" font-family="Helvetica,sans-Serif" font-size="10.00" fill="#000000">/include/TPCCalibration/DigitDump.h</text>
</g>
<!-- Node1 -->
<g id="node2" class="node">
<title>Node1</title>
<polygon fill="none" stroke="#bfbfbf" points="256,-414.5 256,-433.5 300,-433.5 300,-414.5 256,-414.5"/>
<text text-anchor="middle" x="278" y="-421.5" font-family="Helvetica,sans-Serif" font-size="10.00" fill="#000000">string</text>
</g>
<!-- Node0&#45;&gt;Node1 -->
<g id="edge1" class="edge">
<title>Node0&#45;&gt;Node1</title>
<path fill="none" stroke="#191970" d="M864.6466,-788.1407C755.1608,-761.7343 574.1039,-710.7888 432,-635 389.2477,-612.1988 376.2803,-605.8253 346,-568 314.5924,-528.7664 293.5025,-472.6456 283.9134,-443.4011"/>
<polygon fill="#191970" stroke="#191970" points="287.1641,-442.0734 280.8038,-433.6001 280.4919,-444.1903 287.1641,-442.0734"/>
</g>
<!-- Node2 -->
<g id="node3" class="node">
<title>Node2</title>
<polygon fill="none" stroke="#bfbfbf" points="1293.5,-358.5 1293.5,-377.5 1340.5,-377.5 1340.5,-358.5 1293.5,-358.5"/>
<text text-anchor="middle" x="1317" y="-365.5" font-family="Helvetica,sans-Serif" font-size="10.00" fill="#000000">vector</text>
</g>
<!-- Node0&#45;&gt;Node2 -->
<g id="edge2" class="edge">
<title>Node0&#45;&gt;Node2</title>
<path fill="none" stroke="#191970" d="M983.1437,-783.2043C1048.7135,-701.6577 1247.5224,-454.4066 1302.6758,-385.8144"/>
<polygon fill="#191970" stroke="#191970" points="1305.6721,-387.6735 1309.2108,-377.6871 1300.2169,-383.2871 1305.6721,-387.6735"/>
</g>
<!-- Node3 -->
<g id="node4" class="node">
<title>Node3</title>
<polygon fill="none" stroke="#bfbfbf" points="1735,-414.5 1735,-433.5 1777,-433.5 1777,-414.5 1735,-414.5"/>
<text text-anchor="middle" x="1756" y="-421.5" font-family="Helvetica,sans-Serif" font-size="10.00" fill="#000000">array</text>
</g>
<!-- Node0&#45;&gt;Node3 -->
<g id="edge3" class="edge">
<title>Node0&#45;&gt;Node3</title>
<path fill="none" stroke="#191970" d="M1051.7117,-783.468C1216.9997,-735.4568 1553.0613,-637.5913 1555,-635 1599.7483,-575.1866 1475.5697,-527.7097 1523,-470 1548.1485,-439.4012 1666.7749,-428.822 1724.4126,-425.4475"/>
<polygon fill="#191970" stroke="#191970" points="1724.9616,-428.9228 1734.7554,-424.8814 1724.579,-421.9333 1724.9616,-428.9228"/>
</g>
<!-- Node4 -->
<g id="node5" class="node">
<title>Node4</title>
<polygon fill="none" stroke="#bfbfbf" points="1091,-476 1091,-495 1149,-495 1149,-476 1091,-476"/>
<text text-anchor="middle" x="1120" y="-483" font-family="Helvetica,sans-Serif" font-size="10.00" fill="#000000">memory</text>
</g>
<!-- Node0&#45;&gt;Node4 -->
<g id="edge4" class="edge">
<title>Node0&#45;&gt;Node4</title>
<path fill="none" stroke="#191970" d="M969.8587,-783.413C978.731,-755.1443 994.2623,-708.9879 1012,-671 1041.8476,-607.0769 1086.6117,-536.2532 1107.9082,-503.6921"/>
<polygon fill="#191970" stroke="#191970" points="1110.916,-505.4884 1113.4919,-495.2115 1105.0694,-501.639 1110.916,-505.4884"/>
</g>
<!-- Node5 -->
<g id="node6" class="node">
<title>Node5</title>
<polygon fill="none" stroke="#bfbfbf" points="3276.5,-73 3276.5,-92 3335.5,-92 3335.5,-73 3276.5,-73"/>
<text text-anchor="middle" x="3306" y="-80" font-family="Helvetica,sans-Serif" font-size="10.00" fill="#000000">Rtypes.h</text>
</g>
<!-- Node0&#45;&gt;Node5 -->
<g id="edge5" class="edge">
<title>Node0&#45;&gt;Node5</title>
<path fill="none" stroke="#191970" d="M1059.2316,-807.2682C1530.3316,-796.1429 3553,-744.6688 3553,-681 3553,-681 3553,-681 3553,-200 3553,-154.626 3415.3597,-111.5179 3345.5735,-92.5773"/>
<polygon fill="#191970" stroke="#191970" points="3346.3588,-89.1644 3335.794,-89.9607 3344.5495,-95.9265 3346.3588,-89.1644"/>
</g>
<!-- Node6 -->
<g id="node7" class="node">
<title>Node6</title>
<polygon fill="none" stroke="#bfbfbf" points="912,-727.5 912,-746.5 960,-746.5 960,-727.5 912,-727.5"/>
<text text-anchor="middle" x="936" y="-734.5" font-family="Helvetica,sans-Serif" font-size="10.00" fill="#000000">TFile.h</text>
</g>
<!-- Node0&#45;&gt;Node6 -->
<g id="edge6" class="edge">
<title>Node0&#45;&gt;Node6</title>
<path fill="none" stroke="#191970" d="M952.6134,-783.3258C949.3815,-774.3139 945.826,-764.3995 942.8364,-756.063"/>
<polygon fill="#191970" stroke="#191970" points="946.0894,-754.7655 939.4191,-746.534 939.5003,-757.1285 946.0894,-754.7655"/>
</g>
<!-- Node7 -->
<g id="node8" class="node">
<title>Node7</title>
<g id="a_node8"><a xlink:href="../../d1/d73/Defs_8h.html" target="_top" xlink:title="Common definitions for 2D coordinates. ">
<polygon fill="none" stroke="#000000" points="257.5,-190.5 257.5,-209.5 390.5,-209.5 390.5,-190.5 257.5,-190.5"/>
<text text-anchor="middle" x="324" y="-197.5" font-family="Helvetica,sans-Serif" font-size="10.00" fill="#000000">DataFormatsTPC/Defs.h</text>
</a>
</g>
</g>
<!-- Node0&#45;&gt;Node7 -->
<g id="edge7" class="edge">
<title>Node0&#45;&gt;Node7</title>
<path fill="none" stroke="#191970" d="M864.6841,-807.6269C673.2422,-803.0705 254.3703,-788.5499 117,-747 59.8539,-729.7152 0,-740.703 0,-681 0,-681 0,-681 0,-312 0,-277.4675 12.2677,-265.156 41,-246 73.912,-224.0574 175.0364,-211.6302 246.9905,-205.3609"/>
<polygon fill="#191970" stroke="#191970" points="247.7147,-208.8122 257.3835,-204.4802 247.1236,-201.8372 247.7147,-208.8122"/>
</g>
<!-- Node20 -->
<g id="node21" class="node">
<title>Node20</title>
<g id="a_node21"><a xlink:href="../../d6/d2b/TPC_2base_2include_2TPCBase_2CalDet_8h.html" target="_top" xlink:title="TPCBase/CalDet.h">
<polygon fill="none" stroke="#000000" points="604,-610 604,-629 708,-629 708,-610 604,-610"/>
<text text-anchor="middle" x="656" y="-617" font-family="Helvetica,sans-Serif" font-size="10.00" fill="#000000">TPCBase/CalDet.h</text>
</a>
</g>
</g>
<!-- Node0&#45;&gt;Node20 -->
<g id="edge22" class="edge">
<title>Node0&#45;&gt;Node20</title>
<path fill="none" stroke="#191970" d="M920.0936,-783.4797C855.0862,-743.1156 732.0256,-666.7055 680.0895,-634.4575"/>
<polygon fill="#191970" stroke="#191970" points="681.8735,-631.4455 671.5317,-629.1439 678.181,-637.3924 681.8735,-631.4455"/>
</g>
<!-- Node29 -->
<g id="node30" class="node">
<title>Node29</title>
<g id="a_node30"><a xlink:href="../../d3/dd6/Sector_8h.html" target="_top" xlink:title="TPCBase/Sector.h">
<polygon fill="none" stroke="#000000" points="433.5,-246.5 433.5,-265.5 534.5,-265.5 534.5,-246.5 433.5,-246.5"/>
<text text-anchor="middle" x="484" y="-253.5" font-family="Helvetica,sans-Serif" font-size="10.00" fill="#000000">TPCBase/Sector.h</text>
</a>
</g>
</g>
<!-- Node0&#45;&gt;Node29 -->
<g id="edge79" class="edge">
<title>Node0&#45;&gt;Node29</title>
<path fill="none" stroke="#191970" d="M864.6949,-794.6185C802.365,-783.9738 720.1217,-767.85 649,-747 477.5294,-696.7317 404.2355,-704.5645 289,-568 223.8483,-490.7894 148.4376,-443.658 202,-358 226.5675,-318.7111 353.3169,-284.7436 428.2668,-267.6933"/>
<polygon fill="#191970" stroke="#191970" points="429.0446,-271.1058 438.0349,-265.5 427.511,-264.2759 429.0446,-271.1058"/>
</g>
<!-- Node34 -->
<g id="node35" class="node">
<title>Node34</title>
<g id="a_node35"><a xlink:href="../../df/d26/CRU_8h.html" target="_top" xlink:title="TPCBase/CRU.h">
<polygon fill="none" stroke="#000000" points="402,-358.5 402,-377.5 494,-377.5 494,-358.5 402,-358.5"/>
<text text-anchor="middle" x="448" y="-365.5" font-family="Helvetica,sans-Serif" font-size="10.00" fill="#000000">TPCBase/CRU.h</text>
</a>
</g>
</g>
<!-- Node0&#45;&gt;Node34 -->
<g id="edge78" class="edge">
<title>Node0&#45;&gt;Node34</title>
<path fill="none" stroke="#191970" d="M864.9369,-807.9761C659.4813,-803.9207 194.762,-790.0491 138,-747 113.1308,-728.1388 114,-712.2125 114,-681 114,-681 114,-681 114,-619.5 114,-510.7071 157.8709,-476.3851 247,-414 270.0956,-397.8345 340.8539,-384.1485 391.8855,-376.01"/>
<polygon fill="#191970" stroke="#191970" points="392.4702,-379.4611 401.8089,-374.4571 391.388,-372.5453 392.4702,-379.4611"/>
</g>
<!-- Node42 -->
<g id="node43" class="node">
<title>Node42</title>
<g id="a_node43"><a xlink:href="../../d0/d4f/Detectors_2TPC_2base_2include_2TPCBase_2Digit_8h.html" target="_top" xlink:title="TPCBase/Digit.h">
<polygon fill="none" stroke="#000000" points="3260.5,-476 3260.5,-495 3355.5,-495 3355.5,-476 3260.5,-476"/>
<text text-anchor="middle" x="3308" y="-483" font-family="Helvetica,sans-Serif" font-size="10.00" fill="#000000">TPCBase/Digit.h</text>
</a>
</g>
</g>
<!-- Node0&#45;&gt;Node42 -->
<g id="edge80" class="edge">
<title>Node0&#45;&gt;Node42</title>
<path fill="none" stroke="#191970" d="M1059.032,-806.7415C1500.5063,-793.8786 3298,-738.0064 3298,-681 3298,-681 3298,-681 3298,-619.5 3298,-578.8572 3302.6314,-531.4723 3305.5904,-505.345"/>
<polygon fill="#191970" stroke="#191970" points="3309.0876,-505.5722 3306.7738,-495.2332 3302.1351,-504.7585 3309.0876,-505.5722"/>
</g>
<!-- Node45 -->
<g id="node46" class="node">
<title>Node45</title>
<g id="a_node46"><a xlink:href="../../d7/dd7/CalibRawBase_8h.html" target="_top" xlink:title="TPCCalibration/CalibRawBase.h">
<polygon fill="none" stroke="#000000" points="1470,-727.5 1470,-746.5 1640,-746.5 1640,-727.5 1470,-727.5"/>
<text text-anchor="middle" x="1555" y="-734.5" font-family="Helvetica,sans-Serif" font-size="10.00" fill="#000000">TPCCalibration/CalibRawBase.h</text>
</a>
</g>
</g>
<!-- Node0&#45;&gt;Node45 -->
<g id="edge85" class="edge">
<title>Node0&#45;&gt;Node45</title>
<path fill="none" stroke="#191970" d="M1059.2579,-797.6093C1172.5315,-783.7605 1358.0141,-761.0834 1467.1137,-747.745"/>
<polygon fill="#191970" stroke="#191970" points="1467.6023,-751.2114 1477.1036,-746.5236 1466.7528,-744.2631 1467.6023,-751.2114"/>
</g>
<!-- Node8 -->
<g id="node9" class="node">
<title>Node8</title>
<polygon fill="none" stroke="#bfbfbf" points="1046.5,-134.5 1046.5,-153.5 1093.5,-153.5 1093.5,-134.5 1046.5,-134.5"/>
<text text-anchor="middle" x="1070" y="-141.5" font-family="Helvetica,sans-Serif" font-size="10.00" fill="#000000">cmath</text>
</g>
<!-- Node7&#45;&gt;Node8 -->
<g id="edge8" class="edge">
<title>Node7&#45;&gt;Node8</title>
<path fill="none" stroke="#191970" d="M390.6969,-190.9444C393.8396,-190.6057 396.9527,-190.2884 400,-190 675.2333,-163.9497 746.8556,-189.7326 1021,-154 1025.9074,-153.3604 1031.0587,-152.5098 1036.102,-151.574"/>
<polygon fill="#191970" stroke="#191970" points="1037.0614,-154.9519 1046.1896,-149.5735 1035.6997,-148.0856 1037.0614,-154.9519"/>
</g>
<!-- Node9 -->
<g id="node10" class="node">
<title>Node9</title>
<g id="a_node10"><a xlink:href="../../d2/dd0/Cartesian2D_8h.html" target="_top" xlink:title="MathUtils/Cartesian2D.h">
<polygon fill="none" stroke="#000000" points="358.5,-73 358.5,-92 493.5,-92 493.5,-73 358.5,-73"/>
<text text-anchor="middle" x="426" y="-80" font-family="Helvetica,sans-Serif" font-size="10.00" fill="#000000">MathUtils/Cartesian2D.h</text>
</a>
</g>
</g>
<!-- Node7&#45;&gt;Node9 -->
<g id="edge9" class="edge">
<title>Node7&#45;&gt;Node9</title>
<path fill="none" stroke="#191970" d="M332.3471,-190.3845C349.5314,-170.5889 389.0741,-125.0372 410.8803,-99.9173"/>
<polygon fill="#191970" stroke="#191970" points="413.6252,-102.0944 417.5376,-92.2484 408.3391,-97.5056 413.6252,-102.0944"/>
</g>
<!-- Node12 -->
<g id="node13" class="node">
<title>Node12</title>
<g id="a_node13"><a xlink:href="../../dd/d76/Cartesian3D_8h.html" target="_top" xlink:title="MathUtils/Cartesian3D.h">
<polygon fill="none" stroke="#000000" points="876.5,-134.5 876.5,-153.5 1011.5,-153.5 1011.5,-134.5 876.5,-134.5"/>
<text text-anchor="middle" x="944" y="-141.5" font-family="Helvetica,sans-Serif" font-size="10.00" fill="#000000">MathUtils/Cartesian3D.h</text>
</a>
</g>
</g>
<!-- Node7&#45;&gt;Node12 -->
<g id="edge12" class="edge">
<title>Node7&#45;&gt;Node12</title>
<path fill="none" stroke="#191970" d="M390.7071,-191.0445C393.847,-190.679 396.9568,-190.3287 400,-190 565.7498,-172.0974 760.5444,-157.0802 866.2241,-149.4348"/>
<polygon fill="#191970" stroke="#191970" points="866.7581,-152.9055 876.4806,-148.6957 866.2549,-145.9236 866.7581,-152.9055"/>
</g>
<!-- Node10 -->
<g id="node11" class="node">
<title>Node10</title>
<polygon fill="none" stroke="#bfbfbf" points="247,-.5 247,-30.5 411,-30.5 411,-.5 247,-.5"/>
<text text-anchor="start" x="255" y="-18.5" font-family="Helvetica,sans-Serif" font-size="10.00" fill="#000000">Math/GenVector/Displacement</text>
<text text-anchor="middle" x="329" y="-7.5" font-family="Helvetica,sans-Serif" font-size="10.00" fill="#000000">Vector2D.h</text>
</g>
<!-- Node9&#45;&gt;Node10 -->
<g id="edge10" class="edge">
<title>Node9&#45;&gt;Node10</title>
<path fill="none" stroke="#191970" d="M412.1023,-72.9005C398.3265,-63.3853 376.7795,-48.5023 359.0779,-36.2755"/>
<polygon fill="#191970" stroke="#191970" points="360.9651,-33.3253 350.7479,-30.5218 356.9868,-39.0849 360.9651,-33.3253"/>
</g>
<!-- Node11 -->
<g id="node12" class="node">
<title>Node11</title>
<polygon fill="none" stroke="#bfbfbf" points="429.5,-6 429.5,-25 618.5,-25 618.5,-6 429.5,-6"/>
<text text-anchor="middle" x="524" y="-13" font-family="Helvetica,sans-Serif" font-size="10.00" fill="#000000">Math/GenVector/PositionVector2D.h</text>
</g>
<!-- Node9&#45;&gt;Node11 -->
<g id="edge11" class="edge">
<title>Node9&#45;&gt;Node11</title>
<path fill="none" stroke="#191970" d="M440.041,-72.9005C456.1238,-61.9052 482.6906,-43.7422 501.6316,-30.7927"/>
<polygon fill="#191970" stroke="#191970" points="503.7052,-33.6148 509.985,-25.0817 499.7545,-27.8362 503.7052,-33.6148"/>
</g>
<!-- Node12&#45;&gt;Node5 -->
<g id="edge18" class="edge">
<title>Node12&#45;&gt;Node5</title>
<path fill="none" stroke="#191970" d="M1011.7165,-136.1155C1020.5487,-135.2871 1029.4837,-134.5487 1038,-134 1496.1691,-104.4789 3000.902,-86.0142 3265.9466,-82.9523"/>
<polygon fill="#191970" stroke="#191970" points="3266.2885,-86.4487 3276.2476,-82.8339 3266.208,-79.4492 3266.2885,-86.4487"/>
</g>
<!-- Node12&#45;&gt;Node9 -->
<g id="edge21" class="edge">
<title>Node12&#45;&gt;Node9</title>
<path fill="none" stroke="#191970" d="M876.1896,-138.5745C790.2608,-131.3027 637.7131,-117.0696 508,-98 499.7579,-96.7883 491.0814,-95.3389 482.5815,-93.8198"/>
<polygon fill="#191970" stroke="#191970" points="483.188,-90.3728 472.7212,-92.0145 481.9273,-97.2583 483.188,-90.3728"/>
</g>
<!-- Node13 -->
<g id="node14" class="node">
<title>Node13</title>
<polygon fill="none" stroke="#bfbfbf" points="995,-67.5 995,-97.5 1159,-97.5 1159,-67.5 995,-67.5"/>
<text text-anchor="start" x="1003" y="-85.5" font-family="Helvetica,sans-Serif" font-size="10.00" fill="#000000">Math/GenVector/Displacement</text>
<text text-anchor="middle" x="1077" y="-74.5" font-family="Helvetica,sans-Serif" font-size="10.00" fill="#000000">Vector3D.h</text>
</g>
<!-- Node12&#45;&gt;Node13 -->
<g id="edge13" class="edge">
<title>Node12&#45;&gt;Node13</title>
<path fill="none" stroke="#191970" d="M964.7813,-134.3906C983.5312,-125.7205 1011.6795,-112.7046 1035.0934,-101.8779"/>
<polygon fill="#191970" stroke="#191970" points="1036.8569,-104.9185 1044.4645,-97.5446 1033.9189,-98.5649 1036.8569,-104.9185"/>
</g>
<!-- Node14 -->
<g id="node15" class="node">
<title>Node14</title>
<polygon fill="none" stroke="#bfbfbf" points="1177.5,-73 1177.5,-92 1366.5,-92 1366.5,-73 1177.5,-73"/>
<text text-anchor="middle" x="1272" y="-80" font-family="Helvetica,sans-Serif" font-size="10.00" fill="#000000">Math/GenVector/PositionVector3D.h</text>
</g>
<!-- Node12&#45;&gt;Node14 -->
<g id="edge14" class="edge">
<title>Node12&#45;&gt;Node14</title>
<path fill="none" stroke="#191970" d="M994.8901,-134.4581C1053.2695,-123.512 1148.9321,-105.5752 1211.1861,-93.9026"/>
<polygon fill="#191970" stroke="#191970" points="1212.0767,-97.2967 1221.2604,-92.0137 1210.7866,-90.4166 1212.0767,-97.2967"/>
</g>
<!-- Node15 -->
<g id="node16" class="node">
<title>Node15</title>
<polygon fill="none" stroke="#bfbfbf" points="1385,-73 1385,-92 1545,-92 1545,-73 1385,-73"/>
<text text-anchor="middle" x="1465" y="-80" font-family="Helvetica,sans-Serif" font-size="10.00" fill="#000000">Math/GenVector/Rotation3D.h</text>
</g>
<!-- Node12&#45;&gt;Node15 -->
<g id="edge15" class="edge">
<title>Node12&#45;&gt;Node15</title>
<path fill="none" stroke="#191970" d="M1011.7638,-136.7915C1133.0707,-123.8864 1374.8811,-98.1568 1376,-98 1385.0111,-96.737 1394.5088,-95.2504 1403.8098,-93.7064"/>
<polygon fill="#191970" stroke="#191970" points="1404.5173,-97.1365 1413.7928,-92.0163 1403.3488,-90.2347 1404.5173,-97.1365"/>
</g>
<!-- Node16 -->
<g id="node17" class="node">
<title>Node16</title>
<polygon fill="none" stroke="#bfbfbf" points="517,-73 517,-92 685,-92 685,-73 517,-73"/>
<text text-anchor="middle" x="601" y="-80" font-family="Helvetica,sans-Serif" font-size="10.00" fill="#000000">Math/GenVector/Transform3D.h</text>
</g>
<!-- Node12&#45;&gt;Node16 -->
<g id="edge16" class="edge">
<title>Node12&#45;&gt;Node16</title>
<path fill="none" stroke="#191970" d="M890.7826,-134.4581C829.6076,-123.4894 729.2833,-105.5012 664.1928,-93.8305"/>
<polygon fill="#191970" stroke="#191970" points="664.5208,-90.3336 654.06,-92.0137 663.2853,-97.2237 664.5208,-90.3336"/>
</g>
<!-- Node17 -->
<g id="node18" class="node">
<title>Node17</title>
<polygon fill="none" stroke="#bfbfbf" points="703.5,-73 703.5,-92 876.5,-92 876.5,-73 703.5,-73"/>
<text text-anchor="middle" x="790" y="-80" font-family="Helvetica,sans-Serif" font-size="10.00" fill="#000000">Math/GenVector/Translation3D.h</text>
</g>
<!-- Node12&#45;&gt;Node17 -->
<g id="edge17" class="edge">
<title>Node12&#45;&gt;Node17</title>
<path fill="none" stroke="#191970" d="M919.9375,-134.3906C893.9444,-124.0103 852.3522,-107.4004 823.2453,-95.7766"/>
<polygon fill="#191970" stroke="#191970" points="824.4785,-92.5003 813.8935,-92.0419 821.8823,-99.0011 824.4785,-92.5003"/>
</g>
<!-- Node18 -->
<g id="node19" class="node">
<title>Node18</title>
<polygon fill="none" stroke="#bfbfbf" points="895,-73 895,-92 977,-92 977,-73 895,-73"/>
<text text-anchor="middle" x="936" y="-80" font-family="Helvetica,sans-Serif" font-size="10.00" fill="#000000">TGeoMatrix.h</text>
</g>
<!-- Node12&#45;&gt;Node18 -->
<g id="edge19" class="edge">
<title>Node12&#45;&gt;Node18</title>
<path fill="none" stroke="#191970" d="M942.75,-134.3906C941.6411,-125.8657 939.9856,-113.1392 938.5917,-102.4235"/>
<polygon fill="#191970" stroke="#191970" points="942.0284,-101.7098 937.2676,-92.2449 935.0869,-102.6128 942.0284,-101.7098"/>
</g>
<!-- Node19 -->
<g id="node20" class="node">
<title>Node19</title>
<polygon fill="none" stroke="#bfbfbf" points="2000.5,-73 2000.5,-92 2049.5,-92 2049.5,-73 2000.5,-73"/>
<text text-anchor="middle" x="2025" y="-80" font-family="Helvetica,sans-Serif" font-size="10.00" fill="#000000">iosfwd</text>
</g>
<!-- Node12&#45;&gt;Node19 -->
<g id="edge20" class="edge">
<title>Node12&#45;&gt;Node19</title>
<path fill="none" stroke="#191970" d="M1011.7336,-136.3541C1020.563,-135.4867 1029.4927,-134.674 1038,-134 1409.8884,-104.538 1861.9934,-87.9735 1989.8352,-83.6493"/>
<polygon fill="#191970" stroke="#191970" points="1990.2999,-87.1358 2000.1769,-83.3024 1990.0652,-80.1397 1990.2999,-87.1358"/>
</g>
<!-- Node20&#45;&gt;Node1 -->
<g id="edge25" class="edge">
<title>Node20&#45;&gt;Node1</title>
<path fill="none" stroke="#191970" d="M603.8998,-614.2869C539.4973,-606.933 434.6388,-591.7037 404,-568 365.6403,-538.3229 388.9419,-505.5954 356,-470 343.0894,-456.0495 324.9754,-445.0157 309.4528,-437.2553"/>
<polygon fill="#191970" stroke="#191970" points="310.7262,-433.9853 300.1924,-432.8496 307.7189,-440.3063 310.7262,-433.9853"/>
</g>
<!-- Node20&#45;&gt;Node2 -->
<g id="edge24" class="edge">
<title>Node20&#45;&gt;Node2</title>
<path fill="none" stroke="#191970" d="M708.2995,-613.8643C758.6087,-607.1938 836.0882,-593.6005 899,-568 922.8695,-558.2868 925.5581,-549.6672 948,-537 1005.9857,-504.2703 1020.2519,-494.9149 1082,-470 1131.6663,-449.96 1147.7359,-455.0094 1197,-434 1231.7539,-419.1787 1269.5987,-397.3274 1293.3064,-382.8842"/>
<polygon fill="#191970" stroke="#191970" points="1295.2785,-385.7803 1301.9599,-377.5579 1291.6092,-379.819 1295.2785,-385.7803"/>
</g>
<!-- Node20&#45;&gt;Node4 -->
<g id="edge23" class="edge">
<title>Node20&#45;&gt;Node4</title>
<path fill="none" stroke="#191970" d="M708.1943,-614.6317C767.4255,-608.1185 866.4002,-594.2202 948,-568 1002.8128,-550.3872 1062.4966,-518.6519 1095.1603,-500.096"/>
<polygon fill="#191970" stroke="#191970" points="1097.0839,-503.0275 1104.0128,-495.0124 1093.5979,-496.9572 1097.0839,-503.0275"/>
</g>
<!-- Node20&#45;&gt;Node7 -->
<g id="edge30" class="edge">
<title>Node20&#45;&gt;Node7</title>
<path fill="none" stroke="#191970" d="M603.8202,-614.4707C522.7129,-606.1562 370.4662,-588.42 320,-568 177.5638,-510.3665 38,-521.6544 38,-368 38,-368 38,-368 38,-312 38,-280.7875 38.0854,-266.0578 62,-246 89.5139,-222.9234 180.2876,-210.9084 247.3085,-205.0316"/>
<polygon fill="#191970" stroke="#191970" points="247.7614,-208.5059 257.4304,-204.1745 247.1707,-201.5309 247.7614,-208.5059"/>
</g>
<!-- Node21 -->
<g id="node22" class="node">
<title>Node21</title>
<polygon fill="none" stroke="#bfbfbf" points="446.5,-476 446.5,-495 547.5,-495 547.5,-476 446.5,-476"/>
<text text-anchor="middle" x="497" y="-483" font-family="Helvetica,sans-Serif" font-size="10.00" fill="#000000">boost/format.hpp</text>
</g>
<!-- Node20&#45;&gt;Node21 -->
<g id="edge26" class="edge">
<title>Node20&#45;&gt;Node21</title>
<path fill="none" stroke="#191970" d="M603.8744,-611.8308C575.0825,-604.9827 540.8325,-592.1077 519,-568 503.426,-550.803 498.672,-523.7959 497.3291,-505.4025"/>
<polygon fill="#191970" stroke="#191970" points="500.8172,-505.0588 496.8675,-495.2278 493.8244,-505.3761 500.8172,-505.0588"/>
</g>
<!-- Node22 -->
<g id="node23" class="node">
<title>Node22</title>
<polygon fill="none" stroke="#bfbfbf" points="658,-543 658,-562 798,-562 798,-543 658,-543"/>
<text text-anchor="middle" x="728" y="-550" font-family="Helvetica,sans-Serif" font-size="10.00" fill="#000000">boost/range/combine.hpp</text>
</g>
<!-- Node20&#45;&gt;Node22 -->
<g id="edge27" class="edge">
<title>Node20&#45;&gt;Node22</title>
<path fill="none" stroke="#191970" d="M666.3158,-609.9005C677.7575,-599.2535 696.4215,-581.8856 710.2273,-569.0385"/>
<polygon fill="#191970" stroke="#191970" points="712.7669,-571.4562 717.7033,-562.0817 707.9983,-566.3317 712.7669,-571.4562"/>
</g>
<!-- Node23 -->
<g id="node24" class="node">
<title>Node23</title>
<polygon fill="none" stroke="#bfbfbf" points="816,-543 816,-562 868,-562 868,-543 816,-543"/>
<text text-anchor="middle" x="842" y="-550" font-family="Helvetica,sans-Serif" font-size="10.00" fill="#000000">cassert</text>
</g>
<!-- Node20&#45;&gt;Node23 -->
<g id="edge28" class="edge">
<title>Node20&#45;&gt;Node23</title>
<path fill="none" stroke="#191970" d="M686.6536,-609.9226C717.365,-600.1224 765.8561,-584.0906 807,-568 808.5744,-567.3843 810.1814,-566.7379 811.7991,-566.073"/>
<polygon fill="#191970" stroke="#191970" points="813.1954,-569.2827 821.0273,-562.1475 810.4552,-562.8412 813.1954,-569.2827"/>
</g>
<!-- Node24 -->
<g id="node25" class="node">
<title>Node24</title>
<polygon fill="none" stroke="#bfbfbf" points="1458.5,-414.5 1458.5,-433.5 1533.5,-433.5 1533.5,-414.5 1458.5,-414.5"/>
<text text-anchor="middle" x="1496" y="-421.5" font-family="Helvetica,sans-Serif" font-size="10.00" fill="#000000">FairLogger.h</text>
</g>
<!-- Node20&#45;&gt;Node24 -->
<g id="edge29" class="edge">
<title>Node20&#45;&gt;Node24</title>
<path fill="none" stroke="#191970" d="M708.2467,-613.8075C775.667,-605.966 896.3786,-590.2417 998,-568 1172.4947,-529.8087 1375.7527,-464.2826 1458.2929,-436.7614"/>
<polygon fill="#191970" stroke="#191970" points="1459.6069,-440.0125 1467.98,-433.5208 1457.3862,-433.3741 1459.6069,-440.0125"/>
</g>
<!-- Node25 -->
<g id="node26" class="node">
<title>Node25</title>
<g id="a_node26"><a xlink:href="../../d5/d1d/TPC_2base_2include_2TPCBase_2Mapper_8h.html" target="_top" xlink:title="TPCBase/Mapper.h">
<polygon fill="none" stroke="#000000" points="847.5,-476 847.5,-495 954.5,-495 954.5,-476 847.5,-476"/>
<text text-anchor="middle" x="901" y="-483" font-family="Helvetica,sans-Serif" font-size="10.00" fill="#000000">TPCBase/Mapper.h</text>
</a>
</g>
</g>
<!-- Node20&#45;&gt;Node25 -->
<g id="edge31" class="edge">
<title>Node20&#45;&gt;Node25</title>
<path fill="none" stroke="#191970" d="M708.1292,-613.4606C765.5669,-605.7805 853.0108,-590.7241 877,-568 894.1197,-551.7831 899.2478,-524.1347 900.6662,-505.3573"/>
<polygon fill="#191970" stroke="#191970" points="904.1684,-505.3894 901.1397,-495.2367 897.176,-505.0622 904.1684,-505.3894"/>
</g>
<!-- Node20&#45;&gt;Node29 -->
<g id="edge67" class="edge">
<title>Node20&#45;&gt;Node29</title>
<path fill="none" stroke="#191970" d="M603.9355,-610.6448C548.0638,-597.8061 463.8493,-567.7883 438,-501 423.5641,-463.7011 437.5685,-446.4125 461,-414 475.4036,-394.0756 492.7268,-400.3362 503,-378 518.5966,-344.0896 504.1862,-299.8673 493.3733,-275.0492"/>
<polygon fill="#191970" stroke="#191970" points="496.4226,-273.3035 489.0574,-265.6875 490.0656,-276.2342 496.4226,-273.3035"/>
</g>
<!-- Node32 -->
<g id="node33" class="node">
<title>Node32</title>
<g id="a_node33"><a xlink:href="../../dc/d14/ROC_8h.html" target="_top" xlink:title="TPCBase/ROC.h">
<polygon fill="none" stroke="#000000" points="326,-302.5 326,-321.5 418,-321.5 418,-302.5 326,-302.5"/>
<text text-anchor="middle" x="372" y="-309.5" font-family="Helvetica,sans-Serif" font-size="10.00" fill="#000000">TPCBase/ROC.h</text>
</a>
</g>
</g>
<!-- Node20&#45;&gt;Node32 -->
<g id="edge66" class="edge">
<title>Node20&#45;&gt;Node32</title>
<path fill="none" stroke="#191970" d="M603.9643,-613.7272C534.428,-605.3648 415.4847,-588.6035 377,-568 277.6246,-514.7975 242.1066,-485.7494 209,-378 206.3893,-369.5031 203.6356,-365.0877 209,-358 222.0327,-340.7804 273.7736,-328.177 315.5118,-320.5615"/>
<polygon fill="#191970" stroke="#191970" points="316.3655,-323.965 325.6047,-318.7797 315.1484,-317.0716 316.3655,-323.965"/>
</g>
<!-- Node38 -->
<g id="node39" class="node">
<title>Node38</title>
<g id="a_node39"><a xlink:href="../../db/d9b/CalArray_8h.html" target="_top" xlink:title="TPCBase/CalArray.h">
<polygon fill="none" stroke="#000000" points="528,-543 528,-562 640,-562 640,-543 528,-543"/>
<text text-anchor="middle" x="584" y="-550" font-family="Helvetica,sans-Serif" font-size="10.00" fill="#000000">TPCBase/CalArray.h</text>
</a>
</g>
</g>
<!-- Node20&#45;&gt;Node38 -->
<g id="edge68" class="edge">
<title>Node20&#45;&gt;Node38</title>
<path fill="none" stroke="#191970" d="M645.6842,-609.9005C634.2425,-599.2535 615.5785,-581.8856 601.7727,-569.0385"/>
<polygon fill="#191970" stroke="#191970" points="604.0017,-566.3317 594.2967,-562.0817 599.2331,-571.4562 604.0017,-566.3317"/>
</g>
<!-- Node25&#45;&gt;Node1 -->
<g id="edge35" class="edge">
<title>Node25&#45;&gt;Node1</title>
<path fill="none" stroke="#191970" d="M855.6078,-475.9507C843.7375,-473.72 830.9253,-471.5469 819,-470 595.8554,-441.0551 535.73,-472.3027 314,-434 312.7416,-433.7826 311.4638,-433.5395 310.1771,-433.276"/>
<polygon fill="#191970" stroke="#191970" points="310.8483,-429.8382 300.3111,-430.9418 309.2366,-436.6502 310.8483,-429.8382"/>
</g>
<!-- Node25&#45;&gt;Node2 -->
<g id="edge33" class="edge">
<title>Node25&#45;&gt;Node2</title>
<path fill="none" stroke="#191970" d="M943.9024,-475.9052C1003.2908,-462.5616 1105.1738,-439.4246 1122,-434 1143.9963,-426.9086 1148.2824,-421.9037 1170,-414 1208.4382,-400.0111 1253.4246,-386.3161 1283.4102,-377.5583"/>
<polygon fill="#191970" stroke="#191970" points="1284.7262,-380.8209 1293.3556,-374.674 1282.7764,-374.0979 1284.7262,-380.8209"/>
</g>
<!-- Node25&#45;&gt;Node3 -->
<g id="edge34" class="edge">
<title>Node25&#45;&gt;Node3</title>
<path fill="none" stroke="#191970" d="M954.8361,-480.6445C990.8237,-477.4591 1039.2339,-473.2903 1082,-470 1329.4405,-450.9628 1628.2999,-431.9697 1724.5332,-425.9536"/>
<polygon fill="#191970" stroke="#191970" points="1724.9795,-429.4326 1734.7421,-425.3165 1724.5435,-422.4462 1724.9795,-429.4326"/>
</g>
<!-- Node25&#45;&gt;Node7 -->
<g id="edge37" class="edge">
<title>Node25&#45;&gt;Node7</title>
<path fill="none" stroke="#191970" d="M855.1688,-475.9423C843.4195,-473.7385 830.7748,-471.5803 819,-470 620.5831,-443.3703 565.9068,-475.2181 370,-434 365.3664,-433.0251 211.7436,-381.8592 209,-378 167.4169,-319.5095 255.9699,-246.8102 300.4847,-215.5137"/>
<polygon fill="#191970" stroke="#191970" points="302.7473,-218.2053 309.001,-209.653 298.7789,-212.4388 302.7473,-218.2053"/>
</g>
<!-- Node25&#45;&gt;Node8 -->
<g id="edge36" class="edge">
<title>Node25&#45;&gt;Node8</title>
<path fill="none" stroke="#191970" d="M926.8309,-475.9844C949.2205,-467.0515 981.8796,-452.3332 1007,-434 1039.756,-410.0942 1070,-408.5518 1070,-368 1070,-368 1070,-368 1070,-256 1070,-223.7116 1070,-186.1872 1070,-163.8048"/>
<polygon fill="#191970" stroke="#191970" points="1073.5001,-163.5883 1070,-153.5884 1066.5001,-163.5884 1073.5001,-163.5883"/>
</g>
<!-- Node26 -->
<g id="node27" class="node">
<title>Node26</title>
<polygon fill="none" stroke="#bfbfbf" points="1364,-414.5 1364,-433.5 1402,-433.5 1402,-414.5 1364,-414.5"/>
<text text-anchor="middle" x="1383" y="-421.5" font-family="Helvetica,sans-Serif" font-size="10.00" fill="#000000">map</text>
</g>
<!-- Node25&#45;&gt;Node26 -->
<g id="edge32" class="edge">
<title>Node25&#45;&gt;Node26</title>
<path fill="none" stroke="#191970" d="M954.686,-477.7494C972.588,-475.2145 992.6454,-472.4278 1011,-470 1138.4591,-453.1406 1290.7505,-434.9058 1353.6288,-427.4603"/>
<polygon fill="#191970" stroke="#191970" points="1354.1019,-430.9288 1363.6218,-426.2787 1353.28,-423.9772 1354.1019,-430.9288"/>
</g>
<!-- Node27 -->
<g id="node28" class="node">
<title>Node27</title>
<g id="a_node28"><a xlink:href="../../de/d41/PadPos_8h.html" target="_top" xlink:title="TPCBase/PadPos.h">
<polygon fill="none" stroke="#000000" points="624,-302.5 624,-321.5 730,-321.5 730,-302.5 624,-302.5"/>
<text text-anchor="middle" x="677" y="-309.5" font-family="Helvetica,sans-Serif" font-size="10.00" fill="#000000">TPCBase/PadPos.h</text>
</a>
</g>
</g>
<!-- Node25&#45;&gt;Node27 -->
<g id="edge38" class="edge">
<title>Node25&#45;&gt;Node27</title>
<path fill="none" stroke="#191970" d="M850.7124,-475.9948C772.4128,-461.1878 630.2213,-434.2673 630,-434 603.8614,-402.4263 637.9875,-354.6894 660.3619,-329.3041"/>
<polygon fill="#191970" stroke="#191970" points="663.233,-331.3507 667.3953,-321.6077 658.0656,-326.6286 663.233,-331.3507"/>
</g>
<!-- Node28 -->
<g id="node29" class="node">
<title>Node28</title>
<g id="a_node29"><a xlink:href="../../dd/d0b/PadSecPos_8h.html" target="_top" xlink:title="TPCBase/PadSecPos.h">
<polygon fill="none" stroke="#000000" points="705.5,-358.5 705.5,-377.5 828.5,-377.5 828.5,-358.5 705.5,-358.5"/>
<text text-anchor="middle" x="767" y="-365.5" font-family="Helvetica,sans-Serif" font-size="10.00" fill="#000000">TPCBase/PadSecPos.h</text>
</a>
</g>
</g>
<!-- Node25&#45;&gt;Node28 -->
<g id="edge39" class="edge">
<title>Node25&#45;&gt;Node28</title>
<path fill="none" stroke="#191970" d="M924.4159,-475.8767C952.8067,-462.8376 994.5744,-438.3763 975,-414 957.9772,-392.8013 891.9013,-380.7795 838.7307,-374.3859"/>
<polygon fill="#191970" stroke="#191970" points="838.9633,-370.8896 828.6277,-373.2189 838.16,-377.8434 838.9633,-370.8896"/>
</g>
<!-- Node25&#45;&gt;Node29 -->
<g id="edge65" class="edge">
<title>Node25&#45;&gt;Node29</title>
<path fill="none" stroke="#191970" d="M932.1936,-475.9288C964.7403,-464.1942 1008.746,-442.3259 991,-414 930.4247,-317.3103 868.718,-336.6218 760,-302 687.9922,-279.0688 601.5789,-267.0205 544.8593,-261.0965"/>
<polygon fill="#191970" stroke="#191970" points="544.9259,-257.5854 534.6242,-260.0604 544.2208,-264.5498 544.9259,-257.5854"/>
</g>
<!-- Node31 -->
<g id="node32" class="node">
<title>Node31</title>
<g id="a_node32"><a xlink:href="../../da/d61/PadROCPos_8h.html" target="_top" xlink:title="TPCBase/PadROCPos.h">
<polygon fill="none" stroke="#000000" points="218.5,-358.5 218.5,-377.5 345.5,-377.5 345.5,-358.5 218.5,-358.5"/>
<text text-anchor="middle" x="282" y="-365.5" font-family="Helvetica,sans-Serif" font-size="10.00" fill="#000000">TPCBase/PadROCPos.h</text>
</a>
</g>
</g>
<!-- Node25&#45;&gt;Node31 -->
<g id="edge44" class="edge">
<title>Node25&#45;&gt;Node31</title>
<path fill="none" stroke="#191970" d="M854.7254,-475.9579C843.0984,-473.7798 830.6217,-471.6297 819,-470 646.178,-445.7661 596.7285,-478.558 428,-434 383.5395,-422.2588 335.6186,-398.1597 307.2462,-382.559"/>
<polygon fill="#191970" stroke="#191970" points="308.8445,-379.4429 298.4069,-377.6243 305.4323,-385.5549 308.8445,-379.4429"/>
</g>
<!-- Node33 -->
<g id="node34" class="node">
<title>Node33</title>
<g id="a_node34"><a xlink:href="../../d3/d54/DigitPos_8h.html" target="_top" xlink:title="TPCBase/DigitPos.h">
<polygon fill="none" stroke="#000000" points="470,-414.5 470,-433.5 582,-433.5 582,-414.5 470,-414.5"/>
<text text-anchor="middle" x="526" y="-421.5" font-family="Helvetica,sans-Serif" font-size="10.00" fill="#000000">TPCBase/DigitPos.h</text>
</a>
</g>
</g>
<!-- Node25&#45;&gt;Node33 -->
<g id="edge50" class="edge">
<title>Node25&#45;&gt;Node33</title>
<path fill="none" stroke="#191970" d="M852.0478,-475.989C841.1787,-473.9492 829.7072,-471.852 819,-470 741.2999,-456.5604 651.711,-442.739 592.2622,-433.8019"/>
<polygon fill="#191970" stroke="#191970" points="592.664,-430.3231 582.2554,-432.3009 591.6256,-437.2457 592.664,-430.3231"/>
</g>
<!-- Node35 -->
<g id="node36" class="node">
<title>Node35</title>
<g id="a_node36"><a xlink:href="../../d1/d1f/FECInfo_8h.html" target="_top" xlink:title="TPCBase/FECInfo.h">
<polygon fill="none" stroke="#000000" points="1861,-246.5 1861,-265.5 1969,-265.5 1969,-246.5 1861,-246.5"/>
<text text-anchor="middle" x="1915" y="-253.5" font-family="Helvetica,sans-Serif" font-size="10.00" fill="#000000">TPCBase/FECInfo.h</text>
</a>
</g>
</g>
<!-- Node25&#45;&gt;Node35 -->
<g id="edge58" class="edge">
<title>Node25&#45;&gt;Node35</title>
<path fill="none" stroke="#191970" d="M936.5725,-475.9215C985.8071,-462.598 1070.2423,-439.4855 1084,-434 1101.728,-426.9315 1104.4791,-421.5673 1122,-414 1377.226,-303.7676 1712.1493,-269.5304 1850.7153,-259.6781"/>
<polygon fill="#191970" stroke="#191970" points="1851.0107,-263.1661 1860.745,-258.9834 1850.527,-256.1828 1851.0107,-263.1661"/>
</g>
<!-- Node36 -->
<g id="node37" class="node">
<title>Node36</title>
<g id="a_node37"><a xlink:href="../../da/d9d/PadRegionInfo_8h.html" target="_top" xlink:title="TPCBase/PadRegionInfo.h">
<polygon fill="none" stroke="#000000" points="826,-414.5 826,-433.5 966,-433.5 966,-414.5 826,-414.5"/>
<text text-anchor="middle" x="896" y="-421.5" font-family="Helvetica,sans-Serif" font-size="10.00" fill="#000000">TPCBase/PadRegionInfo.h</text>
</a>
</g>
</g>
<!-- Node25&#45;&gt;Node36 -->
<g id="edge60" class="edge">
<title>Node25&#45;&gt;Node36</title>
<path fill="none" stroke="#191970" d="M900.2188,-475.8906C899.5257,-467.3657 898.491,-454.6392 897.6198,-443.9235"/>
<polygon fill="#191970" stroke="#191970" points="901.0912,-443.4283 896.7923,-433.7449 894.1142,-443.9956 901.0912,-443.4283"/>
</g>
<!-- Node37 -->
<g id="node38" class="node">
<title>Node37</title>
<g id="a_node38"><a xlink:href="../../d6/d42/PartitionInfo_8h.html" target="_top" xlink:title="TPCBase/PartitionInfo.h">
<polygon fill="none" stroke="#000000" points="638.5,-414.5 638.5,-433.5 769.5,-433.5 769.5,-414.5 638.5,-414.5"/>
<text text-anchor="middle" x="704" y="-421.5" font-family="Helvetica,sans-Serif" font-size="10.00" fill="#000000">TPCBase/PartitionInfo.h</text>
</a>
</g>
</g>
<!-- Node25&#45;&gt;Node37 -->
<g id="edge64" class="edge">
<title>Node25&#45;&gt;Node37</title>
<path fill="none" stroke="#191970" d="M870.2188,-475.8906C836.2451,-465.2846 781.4396,-448.1753 744.1228,-436.5257"/>
<polygon fill="#191970" stroke="#191970" points="745.1538,-433.181 734.5651,-433.5419 743.0677,-439.8629 745.1538,-433.181"/>
</g>
<!-- Node28&#45;&gt;Node27 -->
<g id="edge43" class="edge">
<title>Node28&#45;&gt;Node27</title>
<path fill="none" stroke="#191970" d="M751.3232,-358.2455C737.5144,-349.6534 717.1807,-337.0014 701.2708,-327.1018"/>
<polygon fill="#191970" stroke="#191970" points="702.8368,-323.954 692.4972,-321.6427 699.1387,-329.8974 702.8368,-323.954"/>
</g>
<!-- Node28&#45;&gt;Node29 -->
<g id="edge40" class="edge">
<title>Node28&#45;&gt;Node29</title>
<path fill="none" stroke="#191970" d="M765.7705,-358.1881C763.3846,-343.5324 756.6994,-316.1386 739,-302 709.7239,-278.6137 610.5688,-266.185 544.877,-260.356"/>
<polygon fill="#191970" stroke="#191970" points="544.8999,-256.8451 534.637,-259.4765 544.3008,-263.8195 544.8999,-256.8451"/>
</g>
<!-- Node29&#45;&gt;Node7 -->
<g id="edge42" class="edge">
<title>Node29&#45;&gt;Node7</title>
<path fill="none" stroke="#191970" d="M456.495,-246.3733C430.1198,-237.1419 390.1149,-223.1402 360.9642,-212.9375"/>
<polygon fill="#191970" stroke="#191970" points="361.7409,-209.5012 351.1461,-209.5011 359.4284,-216.1082 361.7409,-209.5012"/>
</g>
<!-- Node30 -->
<g id="node31" class="node">
<title>Node30</title>
<g id="a_node31"><a xlink:href="../../d0/dda/DataFormats_2Detectors_2TPC_2include_2DataFormatsTPC_2Constants_8h.html" target="_top" xlink:title="DataFormatsTPC/Constants.h">
<polygon fill="none" stroke="#000000" points="408.5,-190.5 408.5,-209.5 567.5,-209.5 567.5,-190.5 408.5,-190.5"/>
<text text-anchor="middle" x="488" y="-197.5" font-family="Helvetica,sans-Serif" font-size="10.00" fill="#000000">DataFormatsTPC/Constants.h</text>
</a>
</g>
</g>
<!-- Node29&#45;&gt;Node30 -->
<g id="edge41" class="edge">
<title>Node29&#45;&gt;Node30</title>
<path fill="none" stroke="#191970" d="M484.6967,-246.2455C485.2187,-238.9382 485.9504,-228.6944 486.5925,-219.7046"/>
<polygon fill="#191970" stroke="#191970" points="490.0898,-219.8667 487.3112,-209.6427 483.1076,-219.3679 490.0898,-219.8667"/>
</g>
<!-- Node31&#45;&gt;Node7 -->
<g id="edge45" class="edge">
<title>Node31&#45;&gt;Node7</title>
<path fill="none" stroke="#191970" d="M280.0091,-358.4028C276.0721,-337.2485 268.9108,-285.3619 284,-246 288.2617,-234.8828 296.5026,-224.6531 304.4022,-216.6778"/>
<polygon fill="#191970" stroke="#191970" points="307.1422,-218.9056 312.0281,-209.5046 302.3461,-213.8068 307.1422,-218.9056"/>
</g>
<!-- Node31&#45;&gt;Node27 -->
<g id="edge49" class="edge">
<title>Node31&#45;&gt;Node27</title>
<path fill="none" stroke="#191970" d="M345.9026,-358.9404C419.7251,-348.4744 540.4284,-331.362 613.9064,-320.9449"/>
<polygon fill="#191970" stroke="#191970" points="614.5416,-324.39 623.9512,-319.5208 613.5589,-317.4593 614.5416,-324.39"/>
</g>
<!-- Node31&#45;&gt;Node32 -->
<g id="edge46" class="edge">
<title>Node31&#45;&gt;Node32</title>
<path fill="none" stroke="#191970" d="M297.6768,-358.2455C311.4856,-349.6534 331.8193,-337.0014 347.7292,-327.1018"/>
<polygon fill="#191970" stroke="#191970" points="349.8613,-329.8974 356.5028,-321.6427 346.1632,-323.954 349.8613,-329.8974"/>
</g>
<!-- Node32&#45;&gt;Node7 -->
<g id="edge47" class="edge">
<title>Node32&#45;&gt;Node7</title>
<path fill="none" stroke="#191970" d="M367.9075,-302.4509C359.9726,-283.936 342.3682,-242.8591 332.0223,-218.7187"/>
<polygon fill="#191970" stroke="#191970" points="335.2384,-217.3376 328.0821,-209.5249 328.8043,-220.0951 335.2384,-217.3376"/>
</g>
<!-- Node32&#45;&gt;Node29 -->
<g id="edge48" class="edge">
<title>Node32&#45;&gt;Node29</title>
<path fill="none" stroke="#191970" d="M391.2535,-302.3733C409.0712,-293.4644 435.7747,-280.1127 455.9594,-270.0203"/>
<polygon fill="#191970" stroke="#191970" points="457.6187,-273.1038 464.9978,-265.5011 454.4882,-266.8428 457.6187,-273.1038"/>
</g>
<!-- Node33&#45;&gt;Node7 -->
<g id="edge51" class="edge">
<title>Node33&#45;&gt;Node7</title>
<path fill="none" stroke="#191970" d="M488.9243,-414.4452C461.5359,-406.6187 423.817,-394.2009 393,-378 374.4311,-368.2381 326.4613,-340.7238 317,-322 300.3305,-289.0112 309.5916,-244.4202 317.2098,-219.2969"/>
<polygon fill="#191970" stroke="#191970" points="320.6241,-220.1155 320.3946,-209.5231 313.9685,-217.9467 320.6241,-220.1155"/>
</g>
<!-- Node33&#45;&gt;Node27 -->
<g id="edge56" class="edge">
<title>Node33&#45;&gt;Node27</title>
<path fill="none" stroke="#191970" d="M538.8742,-414.4509C564.9507,-395.1094 624.2221,-351.1465 655.9808,-327.5904"/>
<polygon fill="#191970" stroke="#191970" points="658.2117,-330.2934 664.1584,-321.5249 654.0415,-324.6712 658.2117,-330.2934"/>
</g>
<!-- Node33&#45;&gt;Node28 -->
<g id="edge57" class="edge">
<title>Node33&#45;&gt;Node28</title>
<path fill="none" stroke="#191970" d="M567.1555,-414.4369C608.3142,-404.8731 671.705,-390.1432 716.0242,-379.845"/>
<polygon fill="#191970" stroke="#191970" points="717.0659,-383.1963 726.0142,-377.5237 715.4815,-376.3779 717.0659,-383.1963"/>
</g>
<!-- Node33&#45;&gt;Node34 -->
<g id="edge52" class="edge">
<title>Node33&#45;&gt;Node34</title>
<path fill="none" stroke="#191970" d="M512.4134,-414.2455C500.6695,-405.814 483.4801,-393.4729 469.8118,-383.6598"/>
<polygon fill="#191970" stroke="#191970" points="471.5954,-380.6316 461.4309,-377.6427 467.5129,-386.3179 471.5954,-380.6316"/>
</g>
<!-- Node34&#45;&gt;Node7 -->
<g id="edge53" class="edge">
<title>Node34&#45;&gt;Node7</title>
<path fill="none" stroke="#191970" d="M446.4509,-358.4369C443.9606,-345.0332 438.172,-320.2562 427,-302 405.3344,-266.5962 368.8334,-234.4739 345.6052,-216.0997"/>
<polygon fill="#191970" stroke="#191970" points="347.4603,-213.1095 337.4113,-209.7526 343.1736,-218.6434 347.4603,-213.1095"/>
</g>
<!-- Node34&#45;&gt;Node29 -->
<g id="edge54" class="edge">
<title>Node34&#45;&gt;Node29</title>
<path fill="none" stroke="#191970" d="M451.0693,-358.4509C456.9674,-340.1013 469.9887,-299.5908 477.7741,-275.3693"/>
<polygon fill="#191970" stroke="#191970" points="481.2104,-276.1162 480.9384,-265.5249 474.5462,-273.9741 481.2104,-276.1162"/>
</g>
<!-- Node34&#45;&gt;Node32 -->
<g id="edge55" class="edge">
<title>Node34&#45;&gt;Node32</title>
<path fill="none" stroke="#191970" d="M434.7618,-358.2455C423.319,-349.814 406.5704,-337.4729 393.2525,-327.6598"/>
<polygon fill="#191970" stroke="#191970" points="395.2133,-324.757 385.0865,-321.6427 391.0609,-330.3924 395.2133,-324.757"/>
</g>
<!-- Node35&#45;&gt;Node19 -->
<g id="edge59" class="edge">
<title>Node35&#45;&gt;Node19</title>
<path fill="none" stroke="#191970" d="M1919.5818,-246.4867C1929.8423,-225.4998 1955.9004,-173.9262 1983,-134 1991.0182,-122.1867 2001.0987,-109.7603 2009.3741,-100.0739"/>
<polygon fill="#191970" stroke="#191970" points="2012.1673,-102.1954 2016.0845,-92.3513 2006.8834,-97.6041 2012.1673,-102.1954"/>
</g>
<!-- Node36&#45;&gt;Node2 -->
<g id="edge61" class="edge">
<title>Node36&#45;&gt;Node2</title>
<path fill="none" stroke="#191970" d="M966.4659,-414.6269C1058.0091,-402.4501 1214.2178,-381.6717 1282.8969,-372.5363"/>
<polygon fill="#191970" stroke="#191970" points="1283.6935,-375.9612 1293.1447,-371.1732 1282.7705,-369.0224 1283.6935,-375.9612"/>
</g>
<!-- Node36&#45;&gt;Node7 -->
<g id="edge62" class="edge">
<title>Node36&#45;&gt;Node7</title>
<path fill="none" stroke="#191970" d="M834.8763,-414.4666C780.9011,-405.4188 706.7478,-391.2686 680,-378 645.8403,-361.0547 642.5002,-348.4152 615,-322 581.6634,-289.9787 584.2796,-268.6769 544,-246 519.723,-232.3323 454.0784,-219.5998 400.7694,-211.0118"/>
<polygon fill="#191970" stroke="#191970" points="401.0552,-207.5135 390.6304,-209.4038 399.9587,-214.4271 401.0552,-207.5135"/>
</g>
<!-- Node36&#45;&gt;Node27 -->
<g id="edge63" class="edge">
<title>Node36&#45;&gt;Node27</title>
<path fill="none" stroke="#191970" d="M825.7672,-415.3031C776.282,-407.8126 715.6482,-395.4377 697,-378 684.3167,-366.1401 679.5852,-346.5351 677.8665,-331.7672"/>
<polygon fill="#191970" stroke="#191970" points="681.3416,-331.3154 677.0575,-321.6253 674.3638,-331.872 681.3416,-331.3154"/>
</g>
<!-- Node38&#45;&gt;Node1 -->
<g id="edge72" class="edge">
<title>Node38&#45;&gt;Node1</title>
<path fill="none" stroke="#191970" d="M583.9171,-542.8347C583.202,-525.3496 579.0009,-488.561 557,-470 515.2757,-434.7994 367.4013,-445.327 314,-434 312.7507,-433.735 311.4807,-433.4516 310.2005,-433.1543"/>
<polygon fill="#191970" stroke="#191970" points="310.9149,-429.7249 300.3626,-430.6738 309.2034,-436.5125 310.9149,-429.7249"/>
</g>
<!-- Node38&#45;&gt;Node2 -->
<g id="edge71" class="edge">
<title>Node38&#45;&gt;Node2</title>
<path fill="none" stroke="#191970" d="M620.6211,-542.9532C629.8392,-540.7752 639.7449,-538.6263 649,-537 787.785,-512.6132 834.5209,-556.5983 964,-501 983.7128,-492.5353 981.7769,-479.5247 1001,-470 1065.923,-437.8319 1091.0051,-456.1243 1160,-434 1161.5943,-433.4888 1239.592,-400.6339 1285.0332,-381.479"/>
<polygon fill="#191970" stroke="#191970" points="1286.6121,-384.6117 1294.4671,-377.502 1283.8928,-378.1615 1286.6121,-384.6117"/>
</g>
<!-- Node38&#45;&gt;Node4 -->
<g id="edge70" class="edge">
<title>Node38&#45;&gt;Node4</title>
<path fill="none" stroke="#191970" d="M619.9155,-542.9731C629.3259,-540.7421 639.4988,-538.5632 649,-537 820.761,-508.7403 866.6465,-525.3868 1039,-501 1052.647,-499.069 1067.4842,-496.3985 1080.6867,-493.8177"/>
<polygon fill="#191970" stroke="#191970" points="1081.75,-497.1746 1090.8705,-491.7831 1080.3785,-490.3102 1081.75,-497.1746"/>
</g>
<!-- Node38&#45;&gt;Node21 -->
<g id="edge75" class="edge">
<title>Node38&#45;&gt;Node21</title>
<path fill="none" stroke="#191970" d="M571.535,-542.9005C557.4513,-532.0544 534.3112,-514.2339 517.5461,-501.3229"/>
<polygon fill="#191970" stroke="#191970" points="519.5003,-498.4102 509.4419,-495.0817 515.2292,-503.9562 519.5003,-498.4102"/>
</g>
<!-- Node38&#45;&gt;Node24 -->
<g id="edge76" class="edge">
<title>Node38&#45;&gt;Node24</title>
<path fill="none" stroke="#191970" d="M620.2667,-542.9567C629.5814,-540.7527 639.621,-538.5907 649,-537 804.0463,-510.7037 848.0151,-537.421 1001,-501 1038.4984,-492.0728 1044.5334,-479.0597 1082,-470 1224.9744,-435.4277 1264.8439,-450.5935 1411,-434 1423.111,-432.625 1436.1881,-431.1044 1448.3686,-429.6727"/>
<polygon fill="#191970" stroke="#191970" points="1448.827,-433.143 1458.3484,-428.4962 1448.0074,-426.1912 1448.827,-433.143"/>
</g>
<!-- Node38&#45;&gt;Node25 -->
<g id="edge77" class="edge">
<title>Node38&#45;&gt;Node25</title>
<path fill="none" stroke="#191970" d="M623.1368,-542.9499C631.6507,-540.9332 640.6181,-538.8554 649,-537 715.0115,-522.3882 791.0877,-507.046 842.2333,-496.9483"/>
<polygon fill="#191970" stroke="#191970" points="842.9848,-500.3676 852.1196,-495.0005 841.6316,-493.4996 842.9848,-500.3676"/>
</g>
<!-- Node39 -->
<g id="node40" class="node">
<title>Node39</title>
<polygon fill="none" stroke="#bfbfbf" points="604,-476 604,-495 648,-495 648,-476 604,-476"/>
<text text-anchor="middle" x="626" y="-483" font-family="Helvetica,sans-Serif" font-size="10.00" fill="#000000">Vc/Vc</text>
</g>
<!-- Node38&#45;&gt;Node39 -->
<g id="edge69" class="edge">
<title>Node38&#45;&gt;Node39</title>
<path fill="none" stroke="#191970" d="M590.0176,-542.9005C596.38,-532.751 606.5709,-516.4941 614.4858,-503.8679"/>
<polygon fill="#191970" stroke="#191970" points="617.6477,-505.4135 619.9936,-495.0817 611.7167,-501.6956 617.6477,-505.4135"/>
</g>
<!-- Node40 -->
<g id="node41" class="node">
<title>Node40</title>
<polygon fill="none" stroke="#bfbfbf" points="666,-476 666,-495 722,-495 722,-476 666,-476"/>
<text text-anchor="middle" x="694" y="-483" font-family="Helvetica,sans-Serif" font-size="10.00" fill="#000000">numeric</text>
</g>
<!-- Node38&#45;&gt;Node40 -->
<g id="edge73" class="edge">
<title>Node38&#45;&gt;Node40</title>
<path fill="none" stroke="#191970" d="M599.7603,-542.9005C617.9757,-531.8057 648.173,-513.4128 669.4677,-500.4424"/>
<polygon fill="#191970" stroke="#191970" points="671.5491,-503.2728 678.2689,-495.0817 667.9077,-497.2945 671.5491,-503.2728"/>
</g>
<!-- Node41 -->
<g id="node42" class="node">
<title>Node41</title>
<polygon fill="none" stroke="#bfbfbf" points="740.5,-476 740.5,-495 809.5,-495 809.5,-476 740.5,-476"/>
<text text-anchor="middle" x="775" y="-483" font-family="Helvetica,sans-Serif" font-size="10.00" fill="#000000">type_traits</text>
</g>
<!-- Node38&#45;&gt;Node41 -->
<g id="edge74" class="edge">
<title>Node38&#45;&gt;Node41</title>
<path fill="none" stroke="#191970" d="M611.3686,-542.9275C640.8936,-532.597 689.286,-515.6544 731,-501 733.407,-500.1544 735.8878,-499.2822 738.3878,-498.4028"/>
<polygon fill="#191970" stroke="#191970" points="739.7394,-501.6377 748.0101,-495.016 737.4153,-495.0347 739.7394,-501.6377"/>
</g>
<!-- Node43 -->
<g id="node44" class="node">
<title>Node43</title>
<g id="a_node44"><a xlink:href="../../d2/d45/GPUCommonRtypes_8h.html" target="_top" xlink:title="GPUCommonRtypes.h">
<polygon fill="none" stroke="#000000" points="3301.5,-358.5 3301.5,-377.5 3426.5,-377.5 3426.5,-358.5 3301.5,-358.5"/>
<text text-anchor="middle" x="3364" y="-365.5" font-family="Helvetica,sans-Serif" font-size="10.00" fill="#000000">GPUCommonRtypes.h</text>
</a>
</g>
</g>
<!-- Node42&#45;&gt;Node43 -->
<g id="edge81" class="edge">
<title>Node42&#45;&gt;Node43</title>
<path fill="none" stroke="#191970" d="M3309.8801,-475.8545C3312.8682,-461.7395 3319.4647,-434.869 3330,-414 3335.1152,-403.8674 3342.4403,-393.6131 3348.9823,-385.3656"/>
<polygon fill="#191970" stroke="#191970" points="3351.7338,-387.5302 3355.3909,-377.5865 3346.3311,-383.0793 3351.7338,-387.5302"/>
</g>
<!-- Node44 -->
<g id="node45" class="node">
<title>Node44</title>
<g id="a_node45"><a xlink:href="../../df/d5d/common_2include_2CommonDataFormat_2TimeStamp_8h.html" target="_top" xlink:title="CommonDataFormat/TimeStamp.h">
<polygon fill="none" stroke="#000000" points="3338.5,-414.5 3338.5,-433.5 3525.5,-433.5 3525.5,-414.5 3338.5,-414.5"/>
<text text-anchor="middle" x="3432" y="-421.5" font-family="Helvetica,sans-Serif" font-size="10.00" fill="#000000">CommonDataFormat/TimeStamp.h</text>
</a>
</g>
</g>
<!-- Node42&#45;&gt;Node44 -->
<g id="edge83" class="edge">
<title>Node42&#45;&gt;Node44</title>
<path fill="none" stroke="#191970" d="M3327.375,-475.8906C3347.8495,-465.7359 3380.3442,-449.6196 3403.6885,-438.0416"/>
<polygon fill="#191970" stroke="#191970" points="3405.3575,-441.1207 3412.7611,-433.5419 3402.2472,-434.8496 3405.3575,-441.1207"/>
</g>
<!-- Node43&#45;&gt;Node5 -->
<g id="edge82" class="edge">
<title>Node43&#45;&gt;Node5</title>
<path fill="none" stroke="#191970" d="M3360.1636,-358.2883C3352.9313,-339.0769 3338,-294.7253 3338,-256 3338,-256 3338,-256 3338,-200 3338,-164.0647 3323.8939,-124.0512 3314.4129,-101.2158"/>
<polygon fill="#191970" stroke="#191970" points="3317.6183,-99.8101 3310.4495,-92.009 3311.1888,-102.578 3317.6183,-99.8101"/>
</g>
<!-- Node44&#45;&gt;Node43 -->
<g id="edge84" class="edge">
<title>Node44&#45;&gt;Node43</title>
<path fill="none" stroke="#191970" d="M3420.1553,-414.2455C3410.112,-405.9746 3395.5005,-393.9416 3383.6996,-384.2232"/>
<polygon fill="#191970" stroke="#191970" points="3385.6533,-381.298 3375.709,-377.6427 3381.2033,-386.7015 3385.6533,-381.298"/>
</g>
<!-- Node45&#45;&gt;Node2 -->
<g id="edge87" class="edge">
<title>Node45&#45;&gt;Node2</title>
<path fill="none" stroke="#191970" d="M1557.0477,-727.3127C1561.3539,-704.8937 1569.7874,-647.9927 1555,-604 1538.1203,-553.7826 1451.9039,-447.6688 1411,-414 1392.9622,-399.1527 1369.3292,-387.6152 1350.2725,-379.8083"/>
<polygon fill="#191970" stroke="#191970" points="1351.3651,-376.477 1340.7782,-376.0682 1348.7994,-382.9899 1351.3651,-376.477"/>
</g>
<!-- Node45&#45;&gt;Node4 -->
<g id="edge88" class="edge">
<title>Node45&#45;&gt;Node4</title>
<path fill="none" stroke="#191970" d="M1469.7779,-732.1801C1359.7157,-725.1972 1179.4166,-710.8913 1156,-691 1101.3805,-644.6034 1109.6857,-547.1689 1116.2754,-505.3049"/>
<polygon fill="#191970" stroke="#191970" points="1119.755,-505.7213 1117.9948,-495.2737 1112.8556,-504.5386 1119.755,-505.7213"/>
</g>
<!-- Node45&#45;&gt;Node5 -->
<g id="edge92" class="edge">
<title>Node45&#45;&gt;Node5</title>
<path fill="none" stroke="#191970" d="M1620.027,-727.472C1680.839,-718.4567 1774.1593,-704.3533 1855,-691 2173.862,-638.3301 3273,-691.1827 3273,-368 3273,-368 3273,-368 3273,-200 3273,-164.1698 3287.3989,-124.4063 3297.1742,-101.5396"/>
<polygon fill="#191970" stroke="#191970" points="3300.4184,-102.8575 3301.2719,-92.2971 3294.0192,-100.0203 3300.4184,-102.8575"/>
</g>
<!-- Node45&#45;&gt;Node7 -->
<g id="edge94" class="edge">
<title>Node45&#45;&gt;Node7</title>
<path fill="none" stroke="#191970" d="M1469.9583,-735.2976C1264.8224,-730.8211 747.1337,-717.2184 576,-691 479.2451,-676.1767 449.0675,-681.6221 363,-635 276.1506,-587.9543 76,-449.8393 76,-368 76,-368 76,-368 76,-312 76,-269.1356 200.6111,-230.7638 273.1729,-212.0533"/>
<polygon fill="#191970" stroke="#191970" points="274.2172,-215.3993 283.0478,-209.5453 272.494,-208.6147 274.2172,-215.3993"/>
</g>
<!-- Node45&#45;&gt;Node25 -->
<g id="edge95" class="edge">
<title>Node45&#45;&gt;Node25</title>
<path fill="none" stroke="#191970" d="M1469.9465,-733.7163C1364.9545,-728.6255 1193.1516,-716.6116 1135,-691 1034.9671,-646.9427 946.9958,-544.3117 914.4206,-503.0957"/>
<polygon fill="#191970" stroke="#191970" points="917.0687,-500.7997 908.1618,-495.0623 911.5468,-505.1019 917.0687,-500.7997"/>
</g>
<!-- Node45&#45;&gt;Node31 -->
<g id="edge96" class="edge">
<title>Node45&#45;&gt;Node31</title>
<path fill="none" stroke="#191970" d="M1469.6916,-735.4393C1241.3725,-730.2876 620.9042,-709.6226 432,-635 319.079,-590.3929 284.9789,-549.3193 247,-434 241.2212,-416.4532 252.7082,-398.0003 264.0367,-385.0816"/>
<polygon fill="#191970" stroke="#191970" points="266.5851,-387.4808 270.9141,-377.8107 261.4996,-382.6706 266.5851,-387.4808"/>
</g>
<!-- Node46 -->
<g id="node47" class="node">
<title>Node46</title>
<polygon fill="none" stroke="#bfbfbf" points="3065,-671.5 3065,-690.5 3109,-690.5 3109,-671.5 3065,-671.5"/>
<text text-anchor="middle" x="3087" y="-678.5" font-family="Helvetica,sans-Serif" font-size="10.00" fill="#000000">limits</text>
</g>
<!-- Node45&#45;&gt;Node46 -->
<g id="edge86" class="edge">
<title>Node45&#45;&gt;Node46</title>
<path fill="none" stroke="#191970" d="M1640.1557,-735.5753C1936.4447,-730.4534 2911.8355,-712.1527 3051,-691 3052.2626,-690.8081 3053.5438,-690.5866 3054.8335,-690.3411"/>
<polygon fill="#191970" stroke="#191970" points="3055.7424,-693.7237 3064.7122,-688.0853 3054.184,-686.8994 3055.7424,-693.7237"/>
</g>
<!-- Node47 -->
<g id="node48" class="node">
<title>Node47</title>
<polygon fill="none" stroke="#bfbfbf" points="3105,-414.5 3105,-433.5 3169,-433.5 3169,-414.5 3105,-414.5"/>
<text text-anchor="middle" x="3137" y="-421.5" font-family="Helvetica,sans-Serif" font-size="10.00" fill="#000000">algorithm</text>
</g>
<!-- Node45&#45;&gt;Node47 -->
<g id="edge89" class="edge">
<title>Node45&#45;&gt;Node47</title>
<path fill="none" stroke="#191970" d="M1640.0295,-735.8645C1961.8878,-731.3951 3088.8308,-714.121 3118,-691 3143.7676,-670.5753 3137,-652.3806 3137,-619.5 3137,-619.5 3137,-619.5 3137,-552.5 3137,-514.0012 3137,-469.0145 3137,-443.7812"/>
<polygon fill="#191970" stroke="#191970" points="3140.5001,-443.6718 3137,-433.6719 3133.5001,-443.6719 3140.5001,-443.6718"/>
</g>
<!-- Node48 -->
<g id="node49" class="node">
<title>Node48</title>
<polygon fill="none" stroke="#bfbfbf" points="3187.5,-414.5 3187.5,-433.5 3244.5,-433.5 3244.5,-414.5 3187.5,-414.5"/>
<text text-anchor="middle" x="3216" y="-421.5" font-family="Helvetica,sans-Serif" font-size="10.00" fill="#000000">gsl/span</text>
</g>
<!-- Node45&#45;&gt;Node48 -->
<g id="edge90" class="edge">
<title>Node45&#45;&gt;Node48</title>
<path fill="none" stroke="#191970" d="M1640.2604,-735.713C1965.0479,-730.6611 3108.2423,-711.4586 3140,-691 3169.7433,-671.8391 3175,-654.8808 3175,-619.5 3175,-619.5 3175,-619.5 3175,-552.5 3175,-511.9299 3193.778,-467.4189 3205.9178,-442.8823"/>
<polygon fill="#191970" stroke="#191970" points="3209.1979,-444.1554 3210.64,-433.6592 3202.9671,-440.9652 3209.1979,-444.1554"/>
</g>
<!-- Node49 -->
<g id="node50" class="node">
<title>Node49</title>
<polygon fill="none" stroke="#bfbfbf" points="3203,-671.5 3203,-690.5 3263,-690.5 3263,-671.5 3203,-671.5"/>
<text text-anchor="middle" x="3233" y="-678.5" font-family="Helvetica,sans-Serif" font-size="10.00" fill="#000000">TString.h</text>
</g>
<!-- Node45&#45;&gt;Node49 -->
<g id="edge91" class="edge">
<title>Node45&#45;&gt;Node49</title>
<path fill="none" stroke="#191970" d="M1640.1928,-736.7977C1931.2615,-735.7628 2885.0141,-729.4477 3189,-691 3190.2678,-690.8397 3191.5526,-690.6591 3192.8473,-690.4617"/>
<polygon fill="#191970" stroke="#191970" points="3193.6165,-693.8797 3202.8417,-688.6695 3192.3809,-686.9896 3193.6165,-693.8797"/>
</g>
<!-- Node50 -->
<g id="node51" class="node">
<title>Node50</title>
<polygon fill="none" stroke="#bfbfbf" points="1448.5,-671.5 1448.5,-690.5 1507.5,-690.5 1507.5,-671.5 1448.5,-671.5"/>
<text text-anchor="middle" x="1478" y="-678.5" font-family="Helvetica,sans-Serif" font-size="10.00" fill="#000000">TChain.h</text>
</g>
<!-- Node45&#45;&gt;Node50 -->
<g id="edge93" class="edge">
<title>Node45&#45;&gt;Node50</title>
<path fill="none" stroke="#191970" d="M1541.5876,-727.2455C1529.9943,-718.814 1513.0252,-706.4729 1499.5322,-696.6598"/>
<polygon fill="#191970" stroke="#191970" points="1501.4047,-693.6938 1491.2587,-690.6427 1497.2874,-699.355 1501.4047,-693.6938"/>
</g>
<!-- Node51 -->
<g id="node52" class="node">
<title>Node51</title>
<g id="a_node52"><a xlink:href="../../db/d52/GBTFrameContainer_8h.html" target="_top" xlink:title="Container class for the GBT Frames. ">
<polygon fill="none" stroke="#000000" points="2172.5,-537.5 2172.5,-567.5 2333.5,-567.5 2333.5,-537.5 2172.5,-537.5"/>
<text text-anchor="start" x="2180.5" y="-555.5" font-family="Helvetica,sans-Serif" font-size="10.00" fill="#000000">TPCReconstruction/GBTFrame</text>
<text text-anchor="middle" x="2253" y="-544.5" font-family="Helvetica,sans-Serif" font-size="10.00" fill="#000000">Container.h</text>
</a>
</g>
</g>
<!-- Node45&#45;&gt;Node51 -->
<g id="edge97" class="edge">
<title>Node45&#45;&gt;Node51</title>
<path fill="none" stroke="#191970" d="M1591.0577,-727.469C1702.3293,-698.057 2041.5285,-608.3975 2186.3351,-570.1213"/>
<polygon fill="#191970" stroke="#191970" points="2187.2303,-573.505 2196.0038,-567.5656 2185.4414,-566.7374 2187.2303,-573.505"/>
</g>
<!-- Node62 -->
<g id="node63" class="node">
<title>Node62</title>
<g id="a_node63"><a xlink:href="../../d3/d11/RawReader_8h.html" target="_top" xlink:title="TPCReconstruction/RawReader.h">
<polygon fill="none" stroke="#000000" points="1164.5,-671.5 1164.5,-690.5 1337.5,-690.5 1337.5,-671.5 1164.5,-671.5"/>
<text text-anchor="middle" x="1251" y="-678.5" font-family="Helvetica,sans-Serif" font-size="10.00" fill="#000000">TPCReconstruction/RawReader.h</text>
</a>
</g>
</g>
<!-- Node45&#45;&gt;Node62 -->
<g id="edge126" class="edge">
<title>Node45&#45;&gt;Node62</title>
<path fill="none" stroke="#191970" d="M1503.086,-727.4369C1450.4029,-717.7321 1368.8432,-702.708 1312.8457,-692.3926"/>
<polygon fill="#191970" stroke="#191970" points="1313.1686,-688.8933 1302.6999,-690.5237 1311.9004,-695.7775 1313.1686,-688.8933"/>
</g>
<!-- Node65 -->
<g id="node66" class="node">
<title>Node65</title>
<g id="a_node66"><a xlink:href="../../d6/dbe/RawReaderEventSync_8h.html" target="_top" xlink:title="TPCReconstruction/RawReader\lEventSync.h">
<polygon fill="none" stroke="#000000" points="1380.5,-604.5 1380.5,-634.5 1545.5,-634.5 1545.5,-604.5 1380.5,-604.5"/>
<text text-anchor="start" x="1388.5" y="-622.5" font-family="Helvetica,sans-Serif" font-size="10.00" fill="#000000">TPCReconstruction/RawReader</text>
<text text-anchor="middle" x="1463" y="-611.5" font-family="Helvetica,sans-Serif" font-size="10.00" fill="#000000">EventSync.h</text>
</a>
</g>
</g>
<!-- Node45&#45;&gt;Node65 -->
<g id="edge158" class="edge">
<title>Node45&#45;&gt;Node65</title>
<path fill="none" stroke="#191970" d="M1550.3973,-727.054C1543.944,-713.6335 1531.3729,-689.3012 1517,-671 1508.7483,-660.4931 1498.382,-650.0941 1488.9437,-641.4211"/>
<polygon fill="#191970" stroke="#191970" points="1491.0852,-638.6407 1481.3006,-634.5773 1486.4157,-643.8556 1491.0852,-638.6407"/>
</g>
<!-- Node66 -->
<g id="node67" class="node">
<title>Node66</title>
<g id="a_node67"><a xlink:href="../../df/d86/RawReaderCRU_8h.html" target="_top" xlink:title="TPCReconstruction/RawReader\lCRU.h">
<polygon fill="none" stroke="#000000" points="2753.5,-470.5 2753.5,-500.5 2918.5,-500.5 2918.5,-470.5 2753.5,-470.5"/>
<text text-anchor="start" x="2761.5" y="-488.5" font-family="Helvetica,sans-Serif" font-size="10.00" fill="#000000">TPCReconstruction/RawReader</text>
<text text-anchor="middle" x="2836" y="-477.5" font-family="Helvetica,sans-Serif" font-size="10.00" fill="#000000">CRU.h</text>
</a>
</g>
</g>
<!-- Node45&#45;&gt;Node66 -->
<g id="edge138" class="edge">
<title>Node45&#45;&gt;Node66</title>
<path fill="none" stroke="#191970" d="M1603.6525,-727.448C1795.5651,-689.7696 2501.6568,-551.1419 2749.3978,-502.5027"/>
<polygon fill="#191970" stroke="#191970" points="2750.2948,-505.8935 2759.4331,-500.5325 2748.9461,-499.0246 2750.2948,-505.8935"/>
</g>
<!-- Node51&#45;&gt;Node2 -->
<g id="edge117" class="edge">
<title>Node51&#45;&gt;Node2</title>
<path fill="none" stroke="#191970" d="M2333.6121,-539.521C2389.927,-527.1202 2449.7943,-505.0471 2418,-470 2412.618,-464.0674 1851.9761,-414.7372 1844,-414 1657.8267,-396.7936 1434.4887,-377.8637 1350.826,-370.8323"/>
<polygon fill="#191970" stroke="#191970" points="1350.9023,-367.3265 1340.6445,-369.9774 1350.3166,-374.3019 1350.9023,-367.3265"/>
</g>
<!-- Node51&#45;&gt;Node3 -->
<g id="edge119" class="edge">
<title>Node51&#45;&gt;Node3</title>
<path fill="none" stroke="#191970" d="M2172.4011,-548.8087C2043.9598,-542.1937 1804.2668,-526.5708 1775,-501 1758.8477,-486.8875 1755.3176,-461.4386 1755.0292,-443.6754"/>
<polygon fill="#191970" stroke="#191970" points="1758.5309,-443.5998 1755.1961,-433.5435 1751.5318,-443.4845 1758.5309,-443.5998"/>
</g>
<!-- Node51&#45;&gt;Node19 -->
<g id="edge123" class="edge">
<title>Node51&#45;&gt;Node19</title>
<path fill="none" stroke="#191970" d="M2333.8499,-544.6624C2446.1327,-533.3869 2636.7605,-512.665 2647,-501 2656.0891,-490.6455 2656.3191,-480.148 2647,-470 2583.3395,-400.6775 2298.1346,-493.2418 2225,-434 2201.183,-414.7073 2205,-398.6506 2205,-368 2205,-368 2205,-368 2205,-200 2205,-131.2517 2111.7905,-100.6015 2059.5194,-88.8182"/>
<polygon fill="#191970" stroke="#191970" points="2060.1617,-85.3765 2049.6508,-86.7074 2058.6975,-92.2217 2060.1617,-85.3765"/>
</g>
<!-- Node51&#45;&gt;Node24 -->
<g id="edge125" class="edge">
<title>Node51&#45;&gt;Node24</title>
<path fill="none" stroke="#191970" d="M2172.4179,-551.7409C1993.2591,-549.3573 1573.653,-539.6657 1523,-501 1505.3758,-487.5467 1499.2096,-461.7614 1497.0787,-443.7523"/>
<polygon fill="#191970" stroke="#191970" points="1500.5598,-443.383 1496.2069,-433.7237 1493.5861,-443.9893 1500.5598,-443.383"/>
</g>
<!-- Node51&#45;&gt;Node25 -->
<g id="edge99" class="edge">
<title>Node51&#45;&gt;Node25</title>
<path fill="none" stroke="#191970" d="M2172.3692,-550.1065C1982.3146,-544.2132 1491.4389,-527.5232 1082,-501 1043.0428,-498.4764 999.4424,-494.7694 964.7969,-491.6135"/>
<polygon fill="#191970" stroke="#191970" points="965.0901,-488.1258 954.8119,-490.6966 964.45,-495.0964 965.0901,-488.1258"/>
</g>
<!-- Node51&#45;&gt;Node42 -->
<g id="edge98" class="edge">
<title>Node51&#45;&gt;Node42</title>
<path fill="none" stroke="#191970" d="M2333.5968,-547.3815C2538.0917,-534.3946 3073.4077,-500.3983 3250.3205,-489.1631"/>
<polygon fill="#191970" stroke="#191970" points="3250.7029,-492.6459 3260.4609,-488.5191 3250.2592,-485.66 3250.7029,-492.6459"/>
</g>
<!-- Node52 -->
<g id="node53" class="node">
<title>Node52</title>
<g id="a_node53"><a xlink:href="../../d5/d41/AdcClockMonitor_8h.html" target="_top" xlink:title="Class to monitor the ADC smapling clock contained in the GBT frame. ">
<polygon fill="none" stroke="#000000" points="2465.5,-470.5 2465.5,-500.5 2620.5,-500.5 2620.5,-470.5 2465.5,-470.5"/>
<text text-anchor="start" x="2473.5" y="-488.5" font-family="Helvetica,sans-Serif" font-size="10.00" fill="#000000">TPCReconstruction/AdcClock</text>
<text text-anchor="middle" x="2543" y="-477.5" font-family="Helvetica,sans-Serif" font-size="10.00" fill="#000000">Monitor.h</text>
</a>
</g>
</g>
<!-- Node51&#45;&gt;Node52 -->
<g id="edge100" class="edge">
<title>Node51&#45;&gt;Node52</title>
<path fill="none" stroke="#191970" d="M2318.0817,-537.4639C2362.4997,-527.2018 2421.4682,-513.578 2467.8818,-502.8549"/>
<polygon fill="#191970" stroke="#191970" points="2468.9297,-506.2051 2477.8852,-500.5438 2467.3539,-499.3847 2468.9297,-506.2051"/>
</g>
<!-- Node53 -->
<g id="node54" class="node">
<title>Node53</title>
<polygon fill="none" stroke="#bfbfbf" points="2083,-414.5 2083,-433.5 2139,-433.5 2139,-414.5 2083,-414.5"/>
<text text-anchor="middle" x="2111" y="-421.5" font-family="Helvetica,sans-Serif" font-size="10.00" fill="#000000">iomanip</text>
</g>
<!-- Node51&#45;&gt;Node53 -->
<g id="edge124" class="edge">
<title>Node51&#45;&gt;Node53</title>
<path fill="none" stroke="#191970" d="M2333.5009,-547.0724C2438.4036,-539.1664 2610.8072,-522.9929 2630,-501 2639.0591,-490.6193 2639.3358,-480.1327 2630,-470 2596.8375,-434.0067 2239.6817,-439.0364 2191,-434 2177.3775,-432.5907 2162.4819,-430.7979 2149.2762,-429.1206"/>
<polygon fill="#191970" stroke="#191970" points="2149.4698,-425.6167 2139.1044,-427.8097 2148.575,-432.5593 2149.4698,-425.6167"/>
</g>
<!-- Node54 -->
<g id="node55" class="node">
<title>Node54</title>
<g id="a_node55"><a xlink:href="../../dc/dea/GBTFrame_8h.html" target="_top" xlink:title="GBT Frame object. ">
<polygon fill="none" stroke="#000000" points="1970,-476 1970,-495 2140,-495 2140,-476 1970,-476"/>
<text text-anchor="middle" x="2055" y="-483" font-family="Helvetica,sans-Serif" font-size="10.00" fill="#000000">TPCReconstruction/GBTFrame.h</text>
</a>
</g>
</g>
<!-- Node51&#45;&gt;Node54 -->
<g id="edge104" class="edge">
<title>Node51&#45;&gt;Node54</title>
<path fill="none" stroke="#191970" d="M2208.5649,-537.4639C2173.7433,-525.6808 2125.8239,-509.4657 2092.8222,-498.2984"/>
<polygon fill="#191970" stroke="#191970" points="2093.6845,-494.8953 2083.0902,-495.0053 2091.4408,-501.526 2093.6845,-494.8953"/>
</g>
<!-- Node55 -->
<g id="node56" class="node">
<title>Node55</title>
<g id="a_node56"><a xlink:href="../../df/dc4/HalfSAMPAData_8h.html" target="_top" xlink:title="Class for data from one half SAMPA. ">
<polygon fill="none" stroke="#000000" points="1532,-476 1532,-495 1728,-495 1728,-476 1532,-476"/>
<text text-anchor="middle" x="1630" y="-483" font-family="Helvetica,sans-Serif" font-size="10.00" fill="#000000">TPCReconstruction/HalfSAMPAData.h</text>
</a>
</g>
</g>
<!-- Node51&#45;&gt;Node55 -->
<g id="edge109" class="edge">
<title>Node51&#45;&gt;Node55</title>
<path fill="none" stroke="#191970" d="M2172.3594,-545.304C2071.5701,-536.0957 1893.8363,-519.1514 1742,-501 1730.275,-499.5983 1717.8759,-497.9995 1705.7671,-496.3736"/>
<polygon fill="#191970" stroke="#191970" points="1706.0649,-492.882 1695.685,-495.0052 1705.1234,-499.8184 1706.0649,-492.882"/>
</g>
<!-- Node56 -->
<g id="node57" class="node">
<title>Node56</title>
<g id="a_node57"><a xlink:href="../../d1/df0/SyncPatternMonitor_8h.html" target="_top" xlink:title="Class to monitor the data stream and detect synchronization patterns. ">
<polygon fill="none" stroke="#000000" points="1784,-470.5 1784,-500.5 1952,-500.5 1952,-470.5 1784,-470.5"/>
<text text-anchor="start" x="1792" y="-488.5" font-family="Helvetica,sans-Serif" font-size="10.00" fill="#000000">TPCReconstruction/SyncPattern</text>
<text text-anchor="middle" x="1868" y="-477.5" font-family="Helvetica,sans-Serif" font-size="10.00" fill="#000000">Monitor.h</text>
</a>
</g>
</g>
<!-- Node51&#45;&gt;Node56 -->
<g id="edge111" class="edge">
<title>Node51&#45;&gt;Node56</title>
<path fill="none" stroke="#191970" d="M2172.2914,-538.4546C2111.0712,-527.8007 2026.7661,-513.1294 1962.4158,-501.9308"/>
<polygon fill="#191970" stroke="#191970" points="1962.7179,-498.4308 1952.2658,-500.1644 1961.5177,-505.3272 1962.7179,-498.4308"/>
</g>
<!-- Node57 -->
<g id="node58" class="node">
<title>Node57</title>
<polygon fill="none" stroke="#bfbfbf" points="2158.5,-476 2158.5,-495 2211.5,-495 2211.5,-476 2158.5,-476"/>
<text text-anchor="middle" x="2185" y="-483" font-family="Helvetica,sans-Serif" font-size="10.00" fill="#000000">iterator</text>
</g>
<!-- Node51&#45;&gt;Node57 -->
<g id="edge116" class="edge">
<title>Node51&#45;&gt;Node57</title>
<path fill="none" stroke="#191970" d="M2237.5697,-537.2967C2226.975,-526.8578 2212.9101,-512.9997 2201.9946,-502.2446"/>
<polygon fill="#191970" stroke="#191970" points="2204.2773,-499.5804 2194.6976,-495.055 2199.3644,-504.5666 2204.2773,-499.5804"/>
</g>
<!-- Node58 -->
<g id="node59" class="node">
<title>Node58</title>
<polygon fill="none" stroke="#bfbfbf" points="2229.5,-476 2229.5,-495 2276.5,-495 2276.5,-476 2229.5,-476"/>
<text text-anchor="middle" x="2253" y="-483" font-family="Helvetica,sans-Serif" font-size="10.00" fill="#000000">queue</text>
</g>
<!-- Node51&#45;&gt;Node58 -->
<g id="edge118" class="edge">
<title>Node51&#45;&gt;Node58</title>
<path fill="none" stroke="#191970" d="M2253,-537.2967C2253,-527.7699 2253,-515.3954 2253,-505.1306"/>
<polygon fill="#191970" stroke="#191970" points="2256.5001,-505.0549 2253,-495.055 2249.5001,-505.055 2256.5001,-505.0549"/>
</g>
<!-- Node59 -->
<g id="node60" class="node">
<title>Node59</title>
<polygon fill="none" stroke="#bfbfbf" points="2295,-476 2295,-495 2343,-495 2343,-476 2295,-476"/>
<text text-anchor="middle" x="2319" y="-483" font-family="Helvetica,sans-Serif" font-size="10.00" fill="#000000">mutex</text>
</g>
<!-- Node51&#45;&gt;Node59 -->
<g id="edge120" class="edge">
<title>Node51&#45;&gt;Node59</title>
<path fill="none" stroke="#191970" d="M2267.9764,-537.2967C2278.2595,-526.8578 2291.9108,-512.9997 2302.5053,-502.2446"/>
<polygon fill="#191970" stroke="#191970" points="2305.0633,-504.6352 2309.5876,-495.055 2300.0765,-499.7228 2305.0633,-504.6352"/>
</g>
<!-- Node60 -->
<g id="node61" class="node">
<title>Node60</title>
<polygon fill="none" stroke="#bfbfbf" points="2361,-476 2361,-495 2409,-495 2409,-476 2361,-476"/>
<text text-anchor="middle" x="2385" y="-483" font-family="Helvetica,sans-Serif" font-size="10.00" fill="#000000">thread</text>
</g>
<!-- Node51&#45;&gt;Node60 -->
<g id="edge121" class="edge">
<title>Node51&#45;&gt;Node60</title>
<path fill="none" stroke="#191970" d="M2282.6234,-537.4639C2304.8711,-526.1715 2335.1384,-510.8086 2356.9861,-499.7192"/>
<polygon fill="#191970" stroke="#191970" points="2358.7459,-502.7511 2366.0788,-495.1039 2355.5776,-496.5091 2358.7459,-502.7511"/>
</g>
<!-- Node61 -->
<g id="node62" class="node">
<title>Node61</title>
<polygon fill="none" stroke="#bfbfbf" points="2233.5,-414.5 2233.5,-433.5 2288.5,-433.5 2288.5,-414.5 2233.5,-414.5"/>
<text text-anchor="middle" x="2261" y="-421.5" font-family="Helvetica,sans-Serif" font-size="10.00" fill="#000000">fstream</text>
</g>
<!-- Node51&#45;&gt;Node61 -->
<g id="edge122" class="edge">
<title>Node51&#45;&gt;Node61</title>
<path fill="none" stroke="#191970" d="M2333.6914,-548.9491C2456.081,-542.7251 2677.0329,-527.8801 2701,-501 2710.1692,-490.7164 2710.2932,-480.1717 2701,-470 2671.0501,-437.2188 2346.8216,-441.1607 2303,-434 2301.7101,-433.7892 2300.401,-433.5608 2299.0814,-433.318"/>
<polygon fill="#191970" stroke="#191970" points="2299.4,-429.8107 2288.9012,-431.2333 2297.9957,-436.6684 2299.4,-429.8107"/>
</g>
<!-- Node52&#45;&gt;Node19 -->
<g id="edge102" class="edge">
<title>Node52&#45;&gt;Node19</title>
<path fill="none" stroke="#191970" d="M2465.4086,-474.2095C2361.8586,-459.1331 2191.3334,-434.2716 2191,-434 2166.8018,-414.2853 2167,-399.2125 2167,-368 2167,-368 2167,-368 2167,-200 2167,-144.308 2101.3642,-110.0314 2059.3403,-93.7929"/>
<polygon fill="#191970" stroke="#191970" points="2060.3276,-90.4263 2049.7345,-90.2336 2057.8953,-96.9901 2060.3276,-90.4263"/>
</g>
<!-- Node52&#45;&gt;Node24 -->
<g id="edge101" class="edge">
<title>Node52&#45;&gt;Node24</title>
<path fill="none" stroke="#191970" d="M2465.4115,-474.9797C2449.7384,-473.1082 2433.3589,-471.3336 2418,-470 2330.7238,-462.422 1719.9737,-434.2336 1543.591,-426.1685"/>
<polygon fill="#191970" stroke="#191970" points="1543.7242,-422.671 1533.5748,-425.7108 1543.4046,-429.6637 1543.7242,-422.671"/>
</g>
<!-- Node52&#45;&gt;Node53 -->
<g id="edge103" class="edge">
<title>Node52&#45;&gt;Node53</title>
<path fill="none" stroke="#191970" d="M2465.2402,-472.1369C2460.4251,-471.3907 2455.6489,-470.6721 2451,-470 2318.9651,-450.9129 2284.3235,-457.4878 2153,-434 2151.7549,-433.7773 2150.4914,-433.5405 2149.2175,-433.2925"/>
<polygon fill="#191970" stroke="#191970" points="2149.8819,-429.8557 2139.3749,-431.2171 2148.4376,-436.7051 2149.8819,-429.8557"/>
</g>
<!-- Node54&#45;&gt;Node2 -->
<g id="edge107" class="edge">
<title>Node54&#45;&gt;Node2</title>
<path fill="none" stroke="#191970" d="M2025.5005,-475.9709C1976.3733,-460.4853 1874.4481,-429.9834 1786,-414 1624.5234,-384.8196 1428.19,-373.1273 1350.7343,-369.4318"/>
<polygon fill="#191970" stroke="#191970" points="1350.7613,-365.9294 1340.6099,-368.9625 1350.4371,-372.9219 1350.7613,-365.9294"/>
</g>
<!-- Node54&#45;&gt;Node3 -->
<g id="edge108" class="edge">
<title>Node54&#45;&gt;Node3</title>
<path fill="none" stroke="#191970" d="M2008.6093,-475.9581C1947.0726,-463.3009 1840.0929,-441.2967 1787.3025,-430.4385"/>
<polygon fill="#191970" stroke="#191970" points="1787.6961,-426.9462 1777.196,-428.3597 1786.2858,-433.8027 1787.6961,-426.9462"/>
</g>
<!-- Node54&#45;&gt;Node19 -->
<g id="edge105" class="edge">
<title>Node54&#45;&gt;Node19</title>
<path fill="none" stroke="#191970" d="M2054.8082,-475.7175C2054.3076,-449.309 2053,-374.3557 2053,-312 2053,-312 2053,-312 2053,-200 2053,-164.5173 2040.7681,-124.6087 2032.4736,-101.6256"/>
<polygon fill="#191970" stroke="#191970" points="2035.6779,-100.202 2028.8933,-92.0644 2029.1224,-102.6568 2035.6779,-100.202"/>
</g>
<!-- Node54&#45;&gt;Node53 -->
<g id="edge106" class="edge">
<title>Node54&#45;&gt;Node53</title>
<path fill="none" stroke="#191970" d="M2063.75,-475.8906C2072.1662,-466.6478 2085.0797,-452.466 2095.281,-441.2628"/>
<polygon fill="#191970" stroke="#191970" points="2097.9818,-443.4953 2102.1266,-433.7449 2092.806,-438.7824 2097.9818,-443.4953"/>
</g>
<!-- Node55&#45;&gt;Node3 -->
<g id="edge110" class="edge">
<title>Node55&#45;&gt;Node3</title>
<path fill="none" stroke="#191970" d="M1649.6875,-475.8906C1670.4922,-465.7359 1703.511,-449.6196 1727.2319,-438.0416"/>
<polygon fill="#191970" stroke="#191970" points="1728.9993,-441.0736 1736.4507,-433.5419 1725.9288,-434.783 1728.9993,-441.0736"/>
</g>
<!-- Node56&#45;&gt;Node3 -->
<g id="edge115" class="edge">
<title>Node56&#45;&gt;Node3</title>
<path fill="none" stroke="#191970" d="M1840.6017,-470.4554C1822.8978,-460.734 1799.9805,-448.15 1782.4642,-438.5317"/>
<polygon fill="#191970" stroke="#191970" points="1783.8061,-435.2756 1773.356,-433.5303 1780.4369,-441.4115 1783.8061,-435.2756"/>
</g>
<!-- Node56&#45;&gt;Node19 -->
<g id="edge113" class="edge">
<title>Node56&#45;&gt;Node19</title>
<path fill="none" stroke="#191970" d="M1877.05,-470.3112C1897.5528,-435.3544 1948.0816,-346.0553 1978,-266 1999.6175,-208.1563 2014.8089,-136.4437 2021.3708,-102.328"/>
<polygon fill="#191970" stroke="#191970" points="2024.853,-102.7487 2023.2621,-92.274 2017.9736,-101.4546 2024.853,-102.7487"/>
</g>
<!-- Node56&#45;&gt;Node24 -->
<g id="edge112" class="edge">
<title>Node56&#45;&gt;Node24</title>
<path fill="none" stroke="#191970" d="M1783.5874,-471.5447C1709.42,-459.2831 1604.1663,-441.8823 1543.7072,-431.8871"/>
<polygon fill="#191970" stroke="#191970" points="1544.1158,-428.4072 1533.6788,-430.2292 1542.974,-435.3135 1544.1158,-428.4072"/>
</g>
<!-- Node56&#45;&gt;Node53 -->
<g id="edge114" class="edge">
<title>Node56&#45;&gt;Node53</title>
<path fill="none" stroke="#191970" d="M1927.4445,-470.4554C1972.846,-458.9649 2034.05,-443.475 2073.0275,-433.6103"/>
<polygon fill="#191970" stroke="#191970" points="2074.0815,-436.954 2082.9171,-431.1074 2072.364,-430.1679 2074.0815,-436.954"/>
</g>
<!-- Node62&#45;&gt;Node1 -->
<g id="edge127" class="edge">
<title>Node62&#45;&gt;Node1</title>
<path fill="none" stroke="#191970" d="M1164.2376,-677.3764C1011.7399,-670.5967 701.6976,-654.8671 595,-635 495.3511,-616.4454 456.8552,-630.4285 377,-568 336.9471,-536.6878 347.904,-511.115 318,-470 310.8101,-460.1146 301.9657,-449.7857 294.4233,-441.4256"/>
<polygon fill="#191970" stroke="#191970" points="296.7685,-438.8051 287.4244,-433.8113 291.6149,-443.5422 296.7685,-438.8051"/>
</g>
<!-- Node62&#45;&gt;Node2 -->
<g id="edge128" class="edge">
<title>Node62&#45;&gt;Node2</title>
<path fill="none" stroke="#191970" d="M1254.0367,-671.2383C1264.1622,-638.2542 1296.9765,-527.7703 1312,-434 1314.4465,-418.7301 1315.7025,-401.2754 1316.3437,-388.1528"/>
<polygon fill="#191970" stroke="#191970" points="1319.8513,-388.0347 1316.7632,-377.8999 1312.8572,-387.7484 1319.8513,-388.0347"/>
</g>
<!-- Node62&#45;&gt;Node4 -->
<g id="edge130" class="edge">
<title>Node62&#45;&gt;Node4</title>
<path fill="none" stroke="#191970" d="M1219.5855,-671.3676C1200.9589,-664.145 1178.2743,-652.4607 1164,-635 1132.5683,-596.552 1123.5897,-536.3828 1121.0252,-505.4058"/>
<polygon fill="#191970" stroke="#191970" points="1124.4928,-504.8088 1120.3229,-495.0691 1117.5089,-505.2833 1124.4928,-504.8088"/>
</g>
<!-- Node62&#45;&gt;Node20 -->
<g id="edge134" class="edge">
<title>Node62&#45;&gt;Node20</title>
<path fill="none" stroke="#191970" d="M1164.4819,-672.0574C1043.022,-659.5031 824.8969,-636.9574 718.2006,-625.9291"/>
<polygon fill="#191970" stroke="#191970" points="718.5369,-622.4453 708.23,-624.8986 717.8171,-629.4082 718.5369,-622.4453"/>
</g>
<!-- Node62&#45;&gt;Node26 -->
<g id="edge129" class="edge">
<title>Node62&#45;&gt;Node26</title>
<path fill="none" stroke="#191970" d="M1260.5666,-671.4209C1269.0706,-662.5381 1281.4463,-648.668 1290,-635 1295.5019,-626.2084 1353.0523,-493.3515 1374.7679,-443.0785"/>
<polygon fill="#191970" stroke="#191970" points="1378.0757,-444.2469 1378.8263,-433.6786 1371.6491,-441.4722 1378.0757,-444.2469"/>
</g>
<!-- Node62&#45;&gt;Node27 -->
<g id="edge133" class="edge">
<title>Node62&#45;&gt;Node27</title>
<path fill="none" stroke="#191970" d="M1235.177,-671.2352C1223.1885,-663.0188 1207.2508,-650.1936 1198,-635 1158.7582,-570.5492 1208.6556,-525.9271 1158,-470 1100.2929,-406.2875 849.9738,-347.6981 735.0607,-323.5967"/>
<polygon fill="#191970" stroke="#191970" points="735.5386,-320.1212 725.0351,-321.5096 734.1118,-326.9743 735.5386,-320.1212"/>
</g>
<!-- Node63 -->
<g id="node64" class="node">
<title>Node63</title>
<polygon fill="none" stroke="#bfbfbf" points="1342.5,-543 1342.5,-562 1387.5,-562 1387.5,-543 1342.5,-543"/>
<text text-anchor="middle" x="1365" y="-550" font-family="Helvetica,sans-Serif" font-size="10.00" fill="#000000">utility</text>
</g>
<!-- Node62&#45;&gt;Node63 -->
<g id="edge131" class="edge">
<title>Node62&#45;&gt;Node63</title>
<path fill="none" stroke="#191970" d="M1274.8211,-671.4239C1291.5314,-663.6943 1313.4081,-651.406 1328,-635 1344.3184,-616.6528 1354.5089,-589.9255 1359.9676,-571.9088"/>
<polygon fill="#191970" stroke="#191970" points="1363.359,-572.7776 1362.7065,-562.2029 1356.6221,-570.8764 1363.359,-572.7776"/>
</g>
<!-- Node64 -->
<g id="node65" class="node">
<title>Node64</title>
<polygon fill="none" stroke="#bfbfbf" points="1206.5,-610 1206.5,-629 1247.5,-629 1247.5,-610 1206.5,-610"/>
<text text-anchor="middle" x="1227" y="-617" font-family="Helvetica,sans-Serif" font-size="10.00" fill="#000000">tuple</text>
</g>
<!-- Node62&#45;&gt;Node64 -->
<g id="edge132" class="edge">
<title>Node62&#45;&gt;Node64</title>
<path fill="none" stroke="#191970" d="M1247.25,-671.3906C1243.8532,-662.6862 1238.7469,-649.6015 1234.512,-638.7494"/>
<polygon fill="#191970" stroke="#191970" points="1237.6989,-637.2882 1230.8029,-629.2449 1231.1778,-639.8331 1237.6989,-637.2882"/>
</g>
<!-- Node62&#45;&gt;Node65 -->
<g id="edge135" class="edge">
<title>Node62&#45;&gt;Node65</title>
<path fill="none" stroke="#191970" d="M1284.125,-671.3906C1315.3404,-662.3352 1362.898,-648.539 1401.131,-637.4479"/>
<polygon fill="#191970" stroke="#191970" points="1402.5101,-640.6922 1411.139,-634.5446 1400.5598,-633.9693 1402.5101,-640.6922"/>
</g>
<!-- Node65&#45;&gt;Node26 -->
<g id="edge136" class="edge">
<title>Node65&#45;&gt;Node26</title>
<path fill="none" stroke="#191970" d="M1456.6112,-604.1792C1447.2138,-581.6142 1429.1392,-538.1024 1414,-501 1406.0376,-481.4862 1397.0554,-459.1379 1390.8172,-443.5624"/>
<polygon fill="#191970" stroke="#191970" points="1393.9475,-441.9639 1386.9832,-433.9795 1387.4483,-444.5642 1393.9475,-441.9639"/>
</g>
<!-- Node65&#45;&gt;Node63 -->
<g id="edge137" class="edge">
<title>Node65&#45;&gt;Node63</title>
<path fill="none" stroke="#191970" d="M1440.7623,-604.2967C1424.7522,-593.351 1403.2437,-578.6462 1387.2344,-567.701"/>
<polygon fill="#191970" stroke="#191970" points="1389.2064,-564.8095 1378.9759,-562.055 1385.2557,-570.5881 1389.2064,-564.8095"/>
</g>
<!-- Node66&#45;&gt;Node2 -->
<g id="edge143" class="edge">
<title>Node66&#45;&gt;Node2</title>
<path fill="none" stroke="#191970" d="M2753.2019,-474.2472C2741.3944,-472.7523 2729.3944,-471.292 2718,-470 2550.7539,-451.0364 2503.4299,-478.1291 2341,-434 2320.6601,-428.474 2318.4675,-419.0327 2298,-414 2204.5322,-391.0174 1512.6804,-372.7889 1350.8087,-368.8094"/>
<polygon fill="#191970" stroke="#191970" points="1350.5863,-365.303 1340.5038,-368.5577 1350.4153,-372.3009 1350.5863,-365.303"/>
</g>
<!-- Node66&#45;&gt;Node3 -->
<g id="edge145" class="edge">
<title>Node66&#45;&gt;Node3</title>
<path fill="none" stroke="#191970" d="M2753.3346,-478.8528C2715.7187,-475.938 2670.6238,-472.597 2630,-470 2300.5814,-448.9406 1900.8636,-430.4975 1787.3815,-425.3957"/>
<polygon fill="#191970" stroke="#191970" points="1787.4517,-421.8955 1777.3049,-424.944 1787.1381,-428.8884 1787.4517,-421.8955"/>
</g>
<!-- Node66&#45;&gt;Node8 -->
<g id="edge147" class="edge">
<title>Node66&#45;&gt;Node8</title>
<path fill="none" stroke="#191970" d="M2753.4935,-474.5181C2741.5873,-472.9753 2729.4821,-471.4295 2718,-470 2582.1111,-453.0824 2543.576,-471.9441 2412,-434 2392.1345,-428.2712 2389.5953,-420.5939 2370,-414 1881.4223,-249.5924 1254.4019,-166.3849 1103.6584,-147.9725"/>
<polygon fill="#191970" stroke="#191970" points="1103.9847,-144.4865 1093.6363,-146.7585 1103.1429,-151.4357 1103.9847,-144.4865"/>
</g>
<!-- Node66&#45;&gt;Node26 -->
<g id="edge144" class="edge">
<title>Node66&#45;&gt;Node26</title>
<path fill="none" stroke="#191970" d="M2753.359,-478.4357C2715.7478,-475.4385 2670.65,-472.1483 2630,-470 2106.0428,-442.3093 1972.5964,-480.8079 1450,-434 1437.6235,-432.8915 1424.0505,-430.9946 1412.3767,-429.1489"/>
<polygon fill="#191970" stroke="#191970" points="1412.7134,-425.6574 1402.2787,-427.4924 1411.5802,-432.5651 1412.7134,-425.6574"/>
</g>
<!-- Node66&#45;&gt;Node27 -->
<g id="edge156" class="edge">
<title>Node66&#45;&gt;Node27</title>
<path fill="none" stroke="#191970" d="M2753.189,-474.3583C2741.3835,-472.8468 2729.3874,-471.3523 2718,-470 2567.5434,-452.1323 2525.5005,-472.6529 2379,-434 2357.4444,-428.3127 2354.6762,-419.2086 2333,-414 2022.0723,-339.2863 1004.7782,-317.4451 740.3009,-312.9646"/>
<polygon fill="#191970" stroke="#191970" points="740.1645,-309.4619 730.1074,-312.7942 740.0475,-316.4609 740.1645,-309.4619"/>
</g>
<!-- Node66&#45;&gt;Node31 -->
<g id="edge157" class="edge">
<title>Node66&#45;&gt;Node31</title>
<path fill="none" stroke="#191970" d="M2753.372,-478.173C2715.7634,-475.1238 2670.664,-471.8657 2630,-470 2389.2201,-458.9528 696.5677,-485.0379 461,-434 439.2123,-429.2795 435.772,-422.0939 415,-414 383.9131,-401.8868 348.1478,-389.6079 321.5404,-380.7866"/>
<polygon fill="#191970" stroke="#191970" points="322.4132,-377.3891 311.8202,-377.5826 320.2218,-384.0372 322.4132,-377.3891"/>
</g>
<!-- Node66&#45;&gt;Node34 -->
<g id="edge153" class="edge">
<title>Node66&#45;&gt;Node34</title>
<path fill="none" stroke="#191970" d="M2753.3691,-478.2346C2715.7599,-475.1976 2670.6609,-471.9319 2630,-470 2428.7429,-460.4376 1012.1121,-484.2707 817,-434 798.5183,-429.2382 797.168,-419.8454 779,-414 729.0814,-397.939 584.6188,-381.6239 504.0226,-373.4218"/>
<polygon fill="#191970" stroke="#191970" points="504.3452,-369.9367 494.0442,-372.4146 503.6421,-376.9013 504.3452,-369.9367"/>
</g>
<!-- Node66&#45;&gt;Node47 -->
<g id="edge149" class="edge">
<title>Node66&#45;&gt;Node47</title>
<path fill="none" stroke="#191970" d="M2911.9346,-470.4694C2962.6727,-460.3512 3030.8832,-446.6043 3091,-434 3092.2598,-433.7359 3093.5387,-433.4664 3094.8296,-433.1932"/>
<polygon fill="#191970" stroke="#191970" points="3095.7942,-436.5662 3104.8423,-431.0542 3094.3317,-429.7207 3095.7942,-436.5662"/>
</g>
<!-- Node66&#45;&gt;Node48 -->
<g id="edge151" class="edge">
<title>Node66&#45;&gt;Node48</title>
<path fill="none" stroke="#191970" d="M2918.6746,-475.5912C2985.8393,-466.9556 3083.1581,-453.1181 3177.4466,-433.9256"/>
<polygon fill="#191970" stroke="#191970" points="3178.3551,-437.312 3187.4442,-431.8678 3176.9439,-430.4557 3178.3551,-437.312"/>
</g>
<!-- Node66&#45;&gt;Node53 -->
<g id="edge142" class="edge">
<title>Node66&#45;&gt;Node53</title>
<path fill="none" stroke="#191970" d="M2753.2936,-477.9653C2724.6967,-475.3932 2692.4435,-472.529 2663,-470 2468.3934,-453.2848 2419.622,-450.5341 2225,-434 2199.7071,-431.8512 2171.265,-429.3565 2149.1173,-427.3963"/>
<polygon fill="#191970" stroke="#191970" points="2149.3758,-423.9055 2139.1058,-426.5087 2148.7576,-430.8782 2149.3758,-423.9055"/>
</g>
<!-- Node66&#45;&gt;Node61 -->
<g id="edge140" class="edge">
<title>Node66&#45;&gt;Node61</title>
<path fill="none" stroke="#191970" d="M2753.2454,-471.8447C2748.4308,-471.1846 2743.6559,-470.5634 2739,-470 2545.9708,-446.6428 2495.0134,-464.6054 2303,-434 2301.7093,-433.7943 2300.3995,-433.5702 2299.0793,-433.3311"/>
<polygon fill="#191970" stroke="#191970" points="2299.3926,-429.8234 2288.8962,-431.2642 2298.0001,-436.6835 2299.3926,-429.8234"/>
</g>
<!-- Node67 -->
<g id="node68" class="node">
<title>Node67</title>
<polygon fill="none" stroke="#bfbfbf" points="2421,-414.5 2421,-433.5 2481,-433.5 2481,-414.5 2421,-414.5"/>
<text text-anchor="middle" x="2451" y="-421.5" font-family="Helvetica,sans-Serif" font-size="10.00" fill="#000000">iostream</text>
</g>
<!-- Node66&#45;&gt;Node67 -->
<g id="edge139" class="edge">
<title>Node66&#45;&gt;Node67</title>
<path fill="none" stroke="#191970" d="M2753.461,-472.2252C2748.5692,-471.4651 2743.7207,-470.7184 2739,-470 2631.586,-453.654 2601.3454,-455.7784 2491.0151,-434.0373"/>
<polygon fill="#191970" stroke="#191970" points="2491.6513,-430.5953 2481.1602,-432.0745 2490.2838,-437.4605 2491.6513,-430.5953"/>
</g>
<!-- Node68 -->
<g id="node69" class="node">
<title>Node68</title>
<polygon fill="none" stroke="#bfbfbf" points="3001,-358.5 3001,-377.5 3051,-377.5 3051,-358.5 3001,-358.5"/>
<text text-anchor="middle" x="3026" y="-365.5" font-family="Helvetica,sans-Serif" font-size="10.00" fill="#000000">cstdint</text>
</g>
<!-- Node66&#45;&gt;Node68 -->
<g id="edge141" class="edge">
<title>Node66&#45;&gt;Node68</title>
<path fill="none" stroke="#191970" d="M2918.5374,-477.1328C2974.5123,-469.5568 3041.4079,-456.1179 3059,-434 3070.9768,-418.942 3057.5427,-398.8362 3044.3912,-384.788"/>
<polygon fill="#191970" stroke="#191970" points="3046.8241,-382.2712 3037.277,-377.6772 3041.8755,-387.2221 3046.8241,-382.2712"/>
</g>
<!-- Node69 -->
<g id="node70" class="node">
<title>Node69</title>
<polygon fill="none" stroke="#bfbfbf" points="2499,-414.5 2499,-433.5 2543,-433.5 2543,-414.5 2499,-414.5"/>
<text text-anchor="middle" x="2521" y="-421.5" font-family="Helvetica,sans-Serif" font-size="10.00" fill="#000000">bitset</text>
</g>
<!-- Node66&#45;&gt;Node69 -->
<g id="edge146" class="edge">
<title>Node66&#45;&gt;Node69</title>
<path fill="none" stroke="#191970" d="M2753.4429,-471.6342C2683.9355,-459.746 2590.0951,-443.1347 2553,-434 2552.9011,-433.9756 2552.802,-433.9512 2552.7029,-433.9265"/>
<polygon fill="#191970" stroke="#191970" points="2553.8503,-430.612 2543.281,-431.3467 2552.0017,-437.3634 2553.8503,-430.612"/>
</g>
<!-- Node70 -->
<g id="node71" class="node">
<title>Node70</title>
<polygon fill="none" stroke="#bfbfbf" points="2561.5,-414.5 2561.5,-433.5 2634.5,-433.5 2634.5,-414.5 2561.5,-414.5"/>
<text text-anchor="middle" x="2598" y="-421.5" font-family="Helvetica,sans-Serif" font-size="10.00" fill="#000000">string_view</text>
</g>
<!-- Node66&#45;&gt;Node70 -->
<g id="edge148" class="edge">
<title>Node66&#45;&gt;Node70</title>
<path fill="none" stroke="#191970" d="M2777.7787,-470.4554C2736.7222,-459.8463 2682.4717,-445.8278 2644.3433,-435.9753"/>
<polygon fill="#191970" stroke="#191970" points="2645.0865,-432.5524 2634.5288,-433.4392 2643.3352,-439.3298 2645.0865,-432.5524"/>
</g>
<!-- Node71 -->
<g id="node72" class="node">
<title>Node71</title>
<polygon fill="none" stroke="#bfbfbf" points="2652.5,-414.5 2652.5,-433.5 2717.5,-433.5 2717.5,-414.5 2652.5,-414.5"/>
<text text-anchor="middle" x="2685" y="-421.5" font-family="Helvetica,sans-Serif" font-size="10.00" fill="#000000">functional</text>
</g>
<!-- Node66&#45;&gt;Node71 -->
<g id="edge150" class="edge">
<title>Node66&#45;&gt;Node71</title>
<path fill="none" stroke="#191970" d="M2799.0612,-470.4554C2774.198,-460.329 2741.7082,-447.0964 2717.7664,-437.3453"/>
<polygon fill="#191970" stroke="#191970" points="2718.9812,-434.0609 2708.3996,-433.5303 2716.3407,-440.5438 2718.9812,-434.0609"/>
</g>
<!-- Node72 -->
<g id="node73" class="node">
<title>Node72</title>
<g id="a_node73"><a xlink:href="../../d7/df8/Types_8h.html" target="_top" xlink:title="MemoryResources/Types.h">
<polygon fill="none" stroke="#000000" points="2736,-414.5 2736,-433.5 2882,-433.5 2882,-414.5 2736,-414.5"/>
<text text-anchor="middle" x="2809" y="-421.5" font-family="Helvetica,sans-Serif" font-size="10.00" fill="#000000">MemoryResources/Types.h</text>
</a>
</g>
</g>
<!-- Node66&#45;&gt;Node72 -->
<g id="edge152" class="edge">
<title>Node66&#45;&gt;Node72</title>
<path fill="none" stroke="#191970" d="M2829.3258,-470.2977C2825.7341,-462.1166 2821.2676,-451.943 2817.4371,-443.2179"/>
<polygon fill="#191970" stroke="#191970" points="2820.5478,-441.5964 2813.323,-433.8469 2814.1382,-444.4104 2820.5478,-441.5964"/>
</g>
<!-- Node73 -->
<g id="node74" class="node">
<title>Node73</title>
<g id="a_node74"><a xlink:href="../../d4/d78/DataFormats_2Headers_2include_2Headers_2RAWDataHeader_8h.html" target="_top" xlink:title="Headers/RAWDataHeader.h">
<polygon fill="none" stroke="#000000" points="2900.5,-414.5 2900.5,-433.5 3049.5,-433.5 3049.5,-414.5 2900.5,-414.5"/>
<text text-anchor="middle" x="2975" y="-421.5" font-family="Helvetica,sans-Serif" font-size="10.00" fill="#000000">Headers/RAWDataHeader.h</text>
</a>
</g>
</g>
<!-- Node66&#45;&gt;Node73 -->
<g id="edge154" class="edge">
<title>Node66&#45;&gt;Node73</title>
<path fill="none" stroke="#191970" d="M2870.0032,-470.4554C2892.6871,-460.419 2922.2673,-447.3314 2944.2479,-437.6061"/>
<polygon fill="#191970" stroke="#191970" points="2945.7312,-440.7772 2953.4599,-433.5303 2942.8989,-434.3758 2945.7312,-440.7772"/>
</g>
<!-- Node73&#45;&gt;Node68 -->
<g id="edge155" class="edge">
<title>Node73&#45;&gt;Node68</title>
<path fill="none" stroke="#191970" d="M2983.8835,-414.2455C2991.1966,-406.2155 3001.7391,-394.6394 3010.4467,-385.0781"/>
<polygon fill="#191970" stroke="#191970" points="3013.0727,-387.3928 3017.2183,-377.6427 3007.8972,-382.6795 3013.0727,-387.3928"/>
</g>
</g>
</svg>
