<?xml version="1.0" encoding="UTF-8" standalone="no"?>
<!DOCTYPE svg PUBLIC "-//W3C//DTD SVG 1.1//EN"
 "http://www.w3.org/Graphics/SVG/1.1/DTD/svg11.dtd">
<!-- Generated by graphviz version 2.40.1 (20161225.0304)
 -->
<!-- Title: /home/travis/build/AliceO2Group/AliceO2/Detectors/PHOS/reconstruction/include/PHOSReconstruction/Clusterer.h Pages: 1 -->
<!--zoomable 441 -->
<svg id="main" version="1.1" xmlns="http://www.w3.org/2000/svg" xmlns:xlink="http://www.w3.org/1999/xlink" xml:space="preserve" onload="init(evt)">
<style type="text/css"><![CDATA[
.edge:hover path { stroke: red; }
.edge:hover polygon { stroke: red; fill: red; }
]]></style>
<script type="text/javascript"><![CDATA[
var edges = document.getElementsByTagName('g');
if (edges && edges.length) {
  for (var i=0;i<edges.length;i++) {
    if (edges[i].id.substr(0,4)=='edge') {
      edges[i].setAttribute('class','edge');
    }
  }
}
]]></script>
        <defs>
                <circle id="rim" cx="0" cy="0" r="7"/>
                <circle id="rim2" cx="0" cy="0" r="3.5"/>
                <g id="zoomPlus">
                        <use xlink:href="#rim" fill="#404040">
                                <set attributeName="fill" to="#808080" begin="zoomplus.mouseover" end="zoomplus.mouseout"/>
                        </use>
                        <path d="M-4,0h8M0,-4v8" fill="none" stroke="white" stroke-width="1.5" pointer-events="none"/>
                </g>
                <g id="zoomMin">
                        <use xlink:href="#rim" fill="#404040">
                                <set attributeName="fill" to="#808080" begin="zoomminus.mouseover" end="zoomminus.mouseout"/>
                        </use>
                        <path d="M-4,0h8" fill="none" stroke="white" stroke-width="1.5" pointer-events="none"/>
                </g>
                <g id="dirArrow">
                        <path fill="none" stroke="white" stroke-width="1.5" d="M0,-3.0v7 M-2.5,-0.5L0,-3.0L2.5,-0.5"/>
                </g>
               <g id="resetDef">
                       <use xlink:href="#rim2" fill="#404040">
                               <set attributeName="fill" to="#808080" begin="reset.mouseover" end="reset.mouseout"/>
                       </use>
               </g>
        </defs>

<script type="text/javascript">
var viewWidth = 1681;
var viewHeight = 441;
var sectionId = 'dynsection-0';
</script>
<script xlink:href="../../svgpan.js"/>
<svg id="graph" class="graph">
<g id="viewport">
<title>/home/travis/build/AliceO2Group/AliceO2/Detectors/PHOS/reconstruction/include/PHOSReconstruction/Clusterer.h</title>
<!-- Node0 -->
<g id="node1" class="node">
<title>Node0</title>
<polygon fill="#bfbfbf" stroke="#000000" points="522,-369.5 522,-432.5 692,-432.5 692,-369.5 522,-369.5"/>
<text text-anchor="start" x="530" y="-420.5" font-family="Helvetica,sans-Serif" font-size="10.00" fill="#000000">/home/travis/build</text>
<text text-anchor="start" x="530" y="-409.5" font-family="Helvetica,sans-Serif" font-size="10.00" fill="#000000">/AliceO2Group/AliceO2</text>
<text text-anchor="start" x="530" y="-398.5" font-family="Helvetica,sans-Serif" font-size="10.00" fill="#000000">/Detectors/PHOS/reconstruction</text>
<text text-anchor="start" x="530" y="-387.5" font-family="Helvetica,sans-Serif" font-size="10.00" fill="#000000">/include/PHOSReconstruction</text>
<text text-anchor="middle" x="607" y="-376.5" font-family="Helvetica,sans-Serif" font-size="10.00" fill="#000000">/Clusterer.h</text>
</g>
<!-- Node1 -->
<g id="node2" class="node">
<title>Node1</title>
<g id="a_node2"><a xlink:href="../../d3/d98/DataFormats_2Detectors_2PHOS_2include_2DataFormatsPHOS_2Digit_8h.html" target="_top" xlink:title="DataFormatsPHOS/Digit.h">
<polygon fill="none" stroke="#000000" points="101,-174 101,-193 243,-193 243,-174 101,-174"/>
<text text-anchor="middle" x="172" y="-181" font-family="Helvetica,sans-Serif" font-size="10.00" fill="#000000">DataFormatsPHOS/Digit.h</text>
</a>
</g>
</g>
<!-- Node0&#45;&gt;Node1 -->
<g id="edge1" class="edge">
<title>Node0&#45;&gt;Node1</title>
<path fill="none" stroke="#191970" d="M521.6726,-397.3262C417.9743,-391.0714 251.3268,-374.6778 207,-333 170.8658,-299.0252 168.7681,-235.4636 170.3188,-203.27"/>
<polygon fill="#191970" stroke="#191970" points="173.8113,-203.4975 170.9696,-193.2909 166.8261,-203.0418 173.8113,-203.4975"/>
</g>
<!-- Node6 -->
<g id="node7" class="node">
<title>Node6</title>
<g id="a_node7"><a xlink:href="../../d7/dba/DataFormats_2Detectors_2PHOS_2include_2DataFormatsPHOS_2Cell_8h.html" target="_top" xlink:title="DataFormatsPHOS/Cell.h">
<polygon fill="none" stroke="#000000" points="1004.5,-241 1004.5,-260 1141.5,-260 1141.5,-241 1004.5,-241"/>
<text text-anchor="middle" x="1073" y="-248" font-family="Helvetica,sans-Serif" font-size="10.00" fill="#000000">DataFormatsPHOS/Cell.h</text>
</a>
</g>
</g>
<!-- Node0&#45;&gt;Node6 -->
<g id="edge6" class="edge">
<title>Node0&#45;&gt;Node6</title>
<path fill="none" stroke="#191970" d="M692.2005,-373.4835C793.747,-340.6879 959.0821,-287.2911 1033.9567,-263.1095"/>
<polygon fill="#191970" stroke="#191970" points="1035.0405,-266.4375 1043.4809,-260.0335 1032.8891,-259.7763 1035.0405,-266.4375"/>
</g>
<!-- Node8 -->
<g id="node9" class="node">
<title>Node8</title>
<g id="a_node9"><a xlink:href="../../d8/d50/DataFormats_2Detectors_2PHOS_2include_2DataFormatsPHOS_2Cluster_8h.html" target="_top" xlink:title="DataFormatsPHOS/Cluster.h">
<polygon fill="none" stroke="#000000" points="299,-241 299,-260 451,-260 451,-241 299,-241"/>
<text text-anchor="middle" x="375" y="-248" font-family="Helvetica,sans-Serif" font-size="10.00" fill="#000000">DataFormatsPHOS/Cluster.h</text>
</a>
</g>
</g>
<!-- Node0&#45;&gt;Node8 -->
<g id="edge9" class="edge">
<title>Node0&#45;&gt;Node8</title>
<path fill="none" stroke="#191970" d="M558.3652,-369.4503C509.3691,-337.6662 435.8352,-289.9642 398.5232,-265.7597"/>
<polygon fill="#191970" stroke="#191970" points="400.1487,-262.6422 389.8545,-260.1362 396.3391,-268.5148 400.1487,-262.6422"/>
</g>
<!-- Node9 -->
<g id="node10" class="node">
<title>Node9</title>
<g id="a_node10"><a xlink:href="../../d3/d32/PHOS_2reconstruction_2include_2PHOSReconstruction_2FullCluster_8h.html" target="_top" xlink:title="PHOSReconstruction\l/FullCluster.h">
<polygon fill="none" stroke="#000000" points="216,-302.5 216,-332.5 332,-332.5 332,-302.5 216,-302.5"/>
<text text-anchor="start" x="224" y="-320.5" font-family="Helvetica,sans-Serif" font-size="10.00" fill="#000000">PHOSReconstruction</text>
<text text-anchor="middle" x="274" y="-309.5" font-family="Helvetica,sans-Serif" font-size="10.00" fill="#000000">/FullCluster.h</text>
</a>
</g>
</g>
<!-- Node0&#45;&gt;Node9 -->
<g id="edge11" class="edge">
<title>Node0&#45;&gt;Node9</title>
<path fill="none" stroke="#191970" d="M521.6766,-379.6051C465.8276,-365.6009 393.8454,-347.5513 341.8897,-334.5234"/>
<polygon fill="#191970" stroke="#191970" points="342.6545,-331.1069 332.1034,-332.0695 340.9519,-337.8967 342.6545,-331.1069"/>
</g>
<!-- Node12 -->
<g id="node13" class="node">
<title>Node12</title>
<g id="a_node13"><a xlink:href="../../d2/d37/PHOS_2calib_2include_2PHOSCalib_2CalibParams_8h.html" target="_top" xlink:title="PHOSCalib/CalibParams.h">
<polygon fill="none" stroke="#000000" points="1419.5,-308 1419.5,-327 1560.5,-327 1560.5,-308 1419.5,-308"/>
<text text-anchor="middle" x="1490" y="-315" font-family="Helvetica,sans-Serif" font-size="10.00" fill="#000000">PHOSCalib/CalibParams.h</text>
</a>
</g>
</g>
<!-- Node0&#45;&gt;Node12 -->
<g id="edge17" class="edge">
<title>Node0&#45;&gt;Node12</title>
<path fill="none" stroke="#191970" d="M692.0665,-392.9558C862.2614,-376.8615 1242.6115,-340.894 1409.2144,-325.1394"/>
<polygon fill="#191970" stroke="#191970" points="1409.768,-328.6028 1419.394,-324.1768 1409.1089,-321.6339 1409.768,-328.6028"/>
</g>
<!-- Node15 -->
<g id="node16" class="node">
<title>Node15</title>
<g id="a_node16"><a xlink:href="../../da/d65/PHOS_2calib_2include_2PHOSCalib_2BadChannelMap_8h.html" target="_top" xlink:title="PHOSCalib/BadChannelMap.h">
<polygon fill="none" stroke="#000000" points="1159.5,-241 1159.5,-260 1318.5,-260 1318.5,-241 1159.5,-241"/>
<text text-anchor="middle" x="1239" y="-248" font-family="Helvetica,sans-Serif" font-size="10.00" fill="#000000">PHOSCalib/BadChannelMap.h</text>
</a>
</g>
</g>
<!-- Node0&#45;&gt;Node15 -->
<g id="edge20" class="edge">
<title>Node0&#45;&gt;Node15</title>
<path fill="none" stroke="#191970" d="M692.2343,-380.7029C826.0593,-348.8348 1081.2959,-288.0545 1189.0366,-262.3979"/>
<polygon fill="#191970" stroke="#191970" points="1190.0765,-265.7483 1198.9936,-260.0268 1188.4548,-258.9387 1190.0765,-265.7483"/>
</g>
<!-- Node23 -->
<g id="node24" class="node">
<title>Node23</title>
<g id="a_node24"><a xlink:href="../../de/d0d/DataFormats_2Detectors_2PHOS_2include_2DataFormatsPHOS_2MCLabel_8h.html" target="_top" xlink:title="DataFormatsPHOS/MCLabel.h">
<polygon fill="none" stroke="#000000" points="0,-308 0,-327 160,-327 160,-308 0,-308"/>
<text text-anchor="middle" x="80" y="-315" font-family="Helvetica,sans-Serif" font-size="10.00" fill="#000000">DataFormatsPHOS/MCLabel.h</text>
</a>
</g>
</g>
<!-- Node0&#45;&gt;Node23 -->
<g id="edge32" class="edge">
<title>Node0&#45;&gt;Node23</title>
<path fill="none" stroke="#191970" d="M521.9333,-387.8375C434.5985,-374.2779 294.7681,-352.4396 174,-333 165.4576,-331.625 156.4812,-330.1646 147.6049,-328.7113"/>
<polygon fill="#191970" stroke="#191970" points="148.0891,-325.2441 137.6543,-327.0784 146.9555,-332.1517 148.0891,-325.2441"/>
</g>
<!-- Node24 -->
<g id="node25" class="node">
<title>Node24</title>
<g id="a_node25"><a xlink:href="../../db/d14/MCTruthContainer_8h.html" target="_top" xlink:title="Definition of a container to keep Monte Carlo truth external to simulation objects. ">
<polygon fill="none" stroke="#000000" points="786.5,-168.5 786.5,-198.5 913.5,-198.5 913.5,-168.5 786.5,-168.5"/>
<text text-anchor="start" x="794.5" y="-186.5" font-family="Helvetica,sans-Serif" font-size="10.00" fill="#000000">SimulationDataFormat</text>
<text text-anchor="middle" x="850" y="-175.5" font-family="Helvetica,sans-Serif" font-size="10.00" fill="#000000">/MCTruthContainer.h</text>
</a>
</g>
</g>
<!-- Node0&#45;&gt;Node24 -->
<g id="edge34" class="edge">
<title>Node0&#45;&gt;Node24</title>
<path fill="none" stroke="#191970" d="M642.3343,-369.3736C692.2736,-324.6748 782.226,-244.1619 825.473,-205.4532"/>
<polygon fill="#191970" stroke="#191970" points="827.8674,-208.0073 832.9844,-198.73 823.1989,-202.7914 827.8674,-208.0073"/>
</g>
<!-- Node30 -->
<g id="node31" class="node">
<title>Node30</title>
<g id="a_node31"><a xlink:href="../../d2/df1/PHOS_2include_2DataFormatsPHOS_2TriggerRecord_8h.html" target="_top" xlink:title="DataFormatsPHOS/TriggerRecord.h">
<polygon fill="none" stroke="#000000" points="514.5,-241 514.5,-260 699.5,-260 699.5,-241 514.5,-241"/>
<text text-anchor="middle" x="607" y="-248" font-family="Helvetica,sans-Serif" font-size="10.00" fill="#000000">DataFormatsPHOS/TriggerRecord.h</text>
</a>
</g>
</g>
<!-- Node0&#45;&gt;Node30 -->
<g id="edge44" class="edge">
<title>Node0&#45;&gt;Node30</title>
<path fill="none" stroke="#191970" d="M607,-369.4503C607,-339.5517 607,-295.5677 607,-270.3071"/>
<polygon fill="#191970" stroke="#191970" points="610.5001,-270.1362 607,-260.1362 603.5001,-270.1362 610.5001,-270.1362"/>
</g>
<!-- Node2 -->
<g id="node3" class="node">
<title>Node2</title>
<polygon fill="none" stroke="#bfbfbf" points="226.5,-112.5 226.5,-131.5 273.5,-131.5 273.5,-112.5 226.5,-112.5"/>
<text text-anchor="middle" x="250" y="-119.5" font-family="Helvetica,sans-Serif" font-size="10.00" fill="#000000">cmath</text>
</g>
<!-- Node1&#45;&gt;Node2 -->
<g id="edge2" class="edge">
<title>Node1&#45;&gt;Node2</title>
<path fill="none" stroke="#191970" d="M184.1875,-173.8906C196.437,-164.2324 215.5263,-149.1812 229.9977,-137.771"/>
<polygon fill="#191970" stroke="#191970" points="232.2124,-140.4819 237.8981,-131.5419 227.8783,-134.985 232.2124,-140.4819"/>
</g>
<!-- Node3 -->
<g id="node4" class="node">
<title>Node3</title>
<g id="a_node4"><a xlink:href="../../df/d5d/common_2include_2CommonDataFormat_2TimeStamp_8h.html" target="_top" xlink:title="CommonDataFormat/TimeStamp.h">
<polygon fill="none" stroke="#000000" points="21.5,-112.5 21.5,-131.5 208.5,-131.5 208.5,-112.5 21.5,-112.5"/>
<text text-anchor="middle" x="115" y="-119.5" font-family="Helvetica,sans-Serif" font-size="10.00" fill="#000000">CommonDataFormat/TimeStamp.h</text>
</a>
</g>
</g>
<!-- Node1&#45;&gt;Node3 -->
<g id="edge3" class="edge">
<title>Node1&#45;&gt;Node3</title>
<path fill="none" stroke="#191970" d="M163.0938,-173.8906C154.5272,-164.6478 141.3831,-150.466 130.9997,-139.2628"/>
<polygon fill="#191970" stroke="#191970" points="133.3965,-136.7 124.0318,-131.7449 128.2625,-141.4584 133.3965,-136.7"/>
</g>
<!-- Node4 -->
<g id="node5" class="node">
<title>Node4</title>
<g id="a_node5"><a xlink:href="../../d2/d45/GPUCommonRtypes_8h.html" target="_top" xlink:title="GPUCommonRtypes.h">
<polygon fill="none" stroke="#000000" points="252.5,-56.5 252.5,-75.5 377.5,-75.5 377.5,-56.5 252.5,-56.5"/>
<text text-anchor="middle" x="315" y="-63.5" font-family="Helvetica,sans-Serif" font-size="10.00" fill="#000000">GPUCommonRtypes.h</text>
</a>
</g>
</g>
<!-- Node3&#45;&gt;Node4 -->
<g id="edge4" class="edge">
<title>Node3&#45;&gt;Node4</title>
<path fill="none" stroke="#191970" d="M149.3812,-112.3733C183.0701,-102.9404 234.5482,-88.5265 271.1618,-78.2747"/>
<polygon fill="#191970" stroke="#191970" points="272.3815,-81.5679 281.0674,-75.5011 270.494,-74.8271 272.3815,-81.5679"/>
</g>
<!-- Node5 -->
<g id="node6" class="node">
<title>Node5</title>
<polygon fill="none" stroke="#bfbfbf" points="622.5,-.5 622.5,-19.5 681.5,-19.5 681.5,-.5 622.5,-.5"/>
<text text-anchor="middle" x="652" y="-7.5" font-family="Helvetica,sans-Serif" font-size="10.00" fill="#000000">Rtypes.h</text>
</g>
<!-- Node4&#45;&gt;Node5 -->
<g id="edge5" class="edge">
<title>Node4&#45;&gt;Node5</title>
<path fill="none" stroke="#191970" d="M372.5495,-56.4369C440.8264,-45.0912 552.8552,-26.4751 612.2074,-16.6124"/>
<polygon fill="#191970" stroke="#191970" points="613.0167,-20.026 622.3076,-14.934 611.8691,-13.1207 613.0167,-20.026"/>
</g>
<!-- Node6&#45;&gt;Node5 -->
<g id="edge8" class="edge">
<title>Node6&#45;&gt;Node5</title>
<path fill="none" stroke="#191970" d="M1076.2784,-240.7656C1083.9179,-216.0925 1100.0034,-150.348 1069,-112 1021.3515,-53.0638 786.229,-23.3945 691.5776,-13.6871"/>
<polygon fill="#191970" stroke="#191970" points="691.8422,-10.1962 681.5424,-12.6791 691.1425,-17.1611 691.8422,-10.1962"/>
</g>
<!-- Node7 -->
<g id="node8" class="node">
<title>Node7</title>
<polygon fill="none" stroke="#bfbfbf" points="1148,-174 1148,-193 1192,-193 1192,-174 1148,-174"/>
<text text-anchor="middle" x="1170" y="-181" font-family="Helvetica,sans-Serif" font-size="10.00" fill="#000000">bitset</text>
</g>
<!-- Node6&#45;&gt;Node7 -->
<g id="edge7" class="edge">
<title>Node6&#45;&gt;Node7</title>
<path fill="none" stroke="#191970" d="M1086.8977,-240.9005C1102.8164,-229.9052 1129.1121,-211.7422 1147.8599,-198.7927"/>
<polygon fill="#191970" stroke="#191970" points="1149.8892,-201.6448 1156.128,-193.0817 1145.9108,-195.8852 1149.8892,-201.6448"/>
</g>
<!-- Node8&#45;&gt;Node1 -->
<g id="edge10" class="edge">
<title>Node8&#45;&gt;Node1</title>
<path fill="none" stroke="#191970" d="M345.915,-240.9005C310.3396,-229.1589 249.9992,-209.2436 210.5755,-196.2318"/>
<polygon fill="#191970" stroke="#191970" points="211.6241,-192.8923 201.031,-193.0817 209.4302,-199.5396 211.6241,-192.8923"/>
</g>
<!-- Node9&#45;&gt;Node1 -->
<g id="edge13" class="edge">
<title>Node9&#45;&gt;Node1</title>
<path fill="none" stroke="#191970" d="M262.4976,-302.389C243.493,-277.4222 205.6344,-227.6864 185.4322,-201.1462"/>
<polygon fill="#191970" stroke="#191970" points="188.1525,-198.9413 179.3106,-193.1042 182.5826,-203.1811 188.1525,-198.9413"/>
</g>
<!-- Node9&#45;&gt;Node8 -->
<g id="edge14" class="edge">
<title>Node9&#45;&gt;Node8</title>
<path fill="none" stroke="#191970" d="M296.6664,-302.4639C313.1549,-291.526 335.4004,-276.769 351.9722,-265.7759"/>
<polygon fill="#191970" stroke="#191970" points="354.1241,-268.5485 360.5224,-260.1039 350.2545,-262.7153 354.1241,-268.5485"/>
</g>
<!-- Node10 -->
<g id="node11" class="node">
<title>Node10</title>
<polygon fill="none" stroke="#bfbfbf" points="292,-112.5 292,-131.5 340,-131.5 340,-112.5 292,-112.5"/>
<text text-anchor="middle" x="316" y="-119.5" font-family="Helvetica,sans-Serif" font-size="10.00" fill="#000000">gsl/gsl</text>
</g>
<!-- Node9&#45;&gt;Node10 -->
<g id="edge12" class="edge">
<title>Node9&#45;&gt;Node10</title>
<path fill="none" stroke="#191970" d="M273.6202,-302.2296C273.3723,-274.7006 274.8451,-215.2237 290,-168 293.1027,-158.3317 298.383,-148.4245 303.3777,-140.2925"/>
<polygon fill="#191970" stroke="#191970" points="306.4571,-141.9766 308.9624,-131.6822 300.5842,-138.1674 306.4571,-141.9766"/>
</g>
<!-- Node11 -->
<g id="node12" class="node">
<title>Node11</title>
<g id="a_node12"><a xlink:href="../../d7/dcd/MCCompLabel_8h.html" target="_top" xlink:title="SimulationDataFormat\l/MCCompLabel.h">
<polygon fill="none" stroke="#000000" points="16.5,-235.5 16.5,-265.5 143.5,-265.5 143.5,-235.5 16.5,-235.5"/>
<text text-anchor="start" x="24.5" y="-253.5" font-family="Helvetica,sans-Serif" font-size="10.00" fill="#000000">SimulationDataFormat</text>
<text text-anchor="middle" x="80" y="-242.5" font-family="Helvetica,sans-Serif" font-size="10.00" fill="#000000">/MCCompLabel.h</text>
</a>
</g>
</g>
<!-- Node9&#45;&gt;Node11 -->
<g id="edge15" class="edge">
<title>Node9&#45;&gt;Node11</title>
<path fill="none" stroke="#191970" d="M230.4626,-302.4639C201.7333,-292.5419 163.9047,-279.4774 133.3656,-268.9304"/>
<polygon fill="#191970" stroke="#191970" points="134.322,-265.5579 123.7273,-265.6017 132.0369,-272.1744 134.322,-265.5579"/>
</g>
<!-- Node11&#45;&gt;Node4 -->
<g id="edge16" class="edge">
<title>Node11&#45;&gt;Node4</title>
<path fill="none" stroke="#191970" d="M62.1555,-235.3254C32.35,-208.1921 -21.1777,-150.5948 12,-112 26.8526,-94.7223 157.4773,-79.972 242.3009,-72.1018"/>
<polygon fill="#191970" stroke="#191970" points="242.7682,-75.5737 252.4074,-71.1764 242.1299,-68.6029 242.7682,-75.5737"/>
</g>
<!-- Node13 -->
<g id="node14" class="node">
<title>Node13</title>
<polygon fill="none" stroke="#bfbfbf" points="1469,-241 1469,-260 1511,-260 1511,-241 1469,-241"/>
<text text-anchor="middle" x="1490" y="-248" font-family="Helvetica,sans-Serif" font-size="10.00" fill="#000000">array</text>
</g>
<!-- Node12&#45;&gt;Node13 -->
<g id="edge18" class="edge">
<title>Node12&#45;&gt;Node13</title>
<path fill="none" stroke="#191970" d="M1490,-307.9005C1490,-298.149 1490,-282.7597 1490,-270.3695"/>
<polygon fill="#191970" stroke="#191970" points="1493.5001,-270.0816 1490,-260.0817 1486.5001,-270.0817 1493.5001,-270.0816"/>
</g>
<!-- Node14 -->
<g id="node15" class="node">
<title>Node14</title>
<polygon fill="none" stroke="#bfbfbf" points="1609.5,-112.5 1609.5,-131.5 1672.5,-131.5 1672.5,-112.5 1609.5,-112.5"/>
<text text-anchor="middle" x="1641" y="-119.5" font-family="Helvetica,sans-Serif" font-size="10.00" fill="#000000">TObject.h</text>
</g>
<!-- Node12&#45;&gt;Node14 -->
<g id="edge19" class="edge">
<title>Node12&#45;&gt;Node14</title>
<path fill="none" stroke="#191970" d="M1499.6519,-307.8894C1518.9915,-288.3687 1563.3444,-242.2538 1595,-199 1608.8609,-180.0606 1622.3453,-156.7323 1631.092,-140.7479"/>
<polygon fill="#191970" stroke="#191970" points="1634.2245,-142.3128 1635.8869,-131.8492 1628.0622,-138.9923 1634.2245,-142.3128"/>
</g>
<!-- Node15&#45;&gt;Node5 -->
<g id="edge23" class="edge">
<title>Node15&#45;&gt;Node5</title>
<path fill="none" stroke="#191970" d="M1318.5544,-243.7085C1436.688,-230.7191 1636.934,-195.8024 1562,-112 1503.0615,-46.0861 859.2779,-17.7015 691.6908,-11.3982"/>
<polygon fill="#191970" stroke="#191970" points="691.6988,-7.8962 681.5759,-11.023 691.4393,-14.8914 691.6988,-7.8962"/>
</g>
<!-- Node15&#45;&gt;Node7 -->
<g id="edge22" class="edge">
<title>Node15&#45;&gt;Node7</title>
<path fill="none" stroke="#191970" d="M1229.114,-240.9005C1218.2516,-230.353 1200.5965,-213.2096 1187.4043,-200.3998"/>
<polygon fill="#191970" stroke="#191970" points="1189.4802,-197.537 1179.8677,-193.0817 1184.6038,-202.559 1189.4802,-197.537"/>
</g>
<!-- Node16 -->
<g id="node17" class="node">
<title>Node16</title>
<polygon fill="none" stroke="#bfbfbf" points="1116.5,-112.5 1116.5,-131.5 1165.5,-131.5 1165.5,-112.5 1116.5,-112.5"/>
<text text-anchor="middle" x="1141" y="-119.5" font-family="Helvetica,sans-Serif" font-size="10.00" fill="#000000">iosfwd</text>
</g>
<!-- Node15&#45;&gt;Node16 -->
<g id="edge21" class="edge">
<title>Node15&#45;&gt;Node16</title>
<path fill="none" stroke="#191970" d="M1236.2183,-240.7714C1231.1994,-224.4391 1219.4083,-191.037 1201,-168 1191.3364,-155.9066 1177.8425,-145.1929 1166.0983,-137.1544"/>
<polygon fill="#191970" stroke="#191970" points="1167.8329,-134.1064 1157.551,-131.5502 1163.9946,-139.9604 1167.8329,-134.1064"/>
</g>
<!-- Node17 -->
<g id="node18" class="node">
<title>Node17</title>
<g id="a_node18"><a xlink:href="../../d7/d44/TObjectWrapper_8h.html" target="_top" xlink:title="CCDB/TObjectWrapper.h">
<polygon fill="none" stroke="#000000" points="1255,-174 1255,-193 1389,-193 1389,-174 1255,-174"/>
<text text-anchor="middle" x="1322" y="-181" font-family="Helvetica,sans-Serif" font-size="10.00" fill="#000000">CCDB/TObjectWrapper.h</text>
</a>
</g>
</g>
<!-- Node15&#45;&gt;Node17 -->
<g id="edge24" class="edge">
<title>Node15&#45;&gt;Node17</title>
<path fill="none" stroke="#191970" d="M1250.8919,-240.9005C1264.2048,-230.1539 1285.9999,-212.5603 1301.9568,-199.6794"/>
<polygon fill="#191970" stroke="#191970" points="1304.5474,-202.0863 1310.1302,-193.0817 1300.1506,-196.6395 1304.5474,-202.0863"/>
</g>
<!-- Node17&#45;&gt;Node14 -->
<g id="edge26" class="edge">
<title>Node17&#45;&gt;Node14</title>
<path fill="none" stroke="#191970" d="M1371.4937,-173.9581C1434.0629,-161.8954 1540.6671,-141.3432 1599.2957,-130.0402"/>
<polygon fill="#191970" stroke="#191970" points="1600.1608,-133.4379 1609.3174,-128.1081 1598.8356,-126.5645 1600.1608,-133.4379"/>
</g>
<!-- Node17&#45;&gt;Node16 -->
<g id="edge28" class="edge">
<title>Node17&#45;&gt;Node16</title>
<path fill="none" stroke="#191970" d="M1293.7188,-173.8906C1261.6841,-163.0059 1209.4904,-145.2716 1175.1951,-133.6188"/>
<polygon fill="#191970" stroke="#191970" points="1176.1932,-130.2615 1165.5988,-130.3582 1173.9412,-136.8893 1176.1932,-130.2615"/>
</g>
<!-- Node18 -->
<g id="node19" class="node">
<title>Node18</title>
<polygon fill="none" stroke="#bfbfbf" points="1343.5,-112.5 1343.5,-131.5 1400.5,-131.5 1400.5,-112.5 1343.5,-112.5"/>
<text text-anchor="middle" x="1372" y="-119.5" font-family="Helvetica,sans-Serif" font-size="10.00" fill="#000000">TClass.h</text>
</g>
<!-- Node17&#45;&gt;Node18 -->
<g id="edge25" class="edge">
<title>Node17&#45;&gt;Node18</title>
<path fill="none" stroke="#191970" d="M1329.8125,-173.8906C1337.254,-164.7376 1348.6334,-150.7409 1357.6992,-139.59"/>
<polygon fill="#191970" stroke="#191970" points="1360.4847,-141.712 1364.0774,-131.7449 1355.0533,-137.2962 1360.4847,-141.712"/>
</g>
<!-- Node19 -->
<g id="node20" class="node">
<title>Node19</title>
<polygon fill="none" stroke="#bfbfbf" points="1419,-112.5 1419,-131.5 1477,-131.5 1477,-112.5 1419,-112.5"/>
<text text-anchor="middle" x="1448" y="-119.5" font-family="Helvetica,sans-Serif" font-size="10.00" fill="#000000">cxxabi.h</text>
</g>
<!-- Node17&#45;&gt;Node19 -->
<g id="edge27" class="edge">
<title>Node17&#45;&gt;Node19</title>
<path fill="none" stroke="#191970" d="M1341.6875,-173.8906C1362.4922,-163.7359 1395.511,-147.6196 1419.2319,-136.0416"/>
<polygon fill="#191970" stroke="#191970" points="1420.9993,-139.0736 1428.4507,-131.5419 1417.9288,-132.783 1420.9993,-139.0736"/>
</g>
<!-- Node20 -->
<g id="node21" class="node">
<title>Node20</title>
<polygon fill="none" stroke="#bfbfbf" points="1184,-112.5 1184,-131.5 1242,-131.5 1242,-112.5 1184,-112.5"/>
<text text-anchor="middle" x="1213" y="-119.5" font-family="Helvetica,sans-Serif" font-size="10.00" fill="#000000">memory</text>
</g>
<!-- Node17&#45;&gt;Node20 -->
<g id="edge29" class="edge">
<title>Node17&#45;&gt;Node20</title>
<path fill="none" stroke="#191970" d="M1304.9688,-173.8906C1287.211,-163.8713 1259.167,-148.0483 1238.7118,-136.5071"/>
<polygon fill="#191970" stroke="#191970" points="1240.3409,-133.4077 1229.9117,-131.5419 1236.9011,-139.5042 1240.3409,-133.4077"/>
</g>
<!-- Node21 -->
<g id="node22" class="node">
<title>Node21</title>
<polygon fill="none" stroke="#bfbfbf" points="1260.5,-112.5 1260.5,-131.5 1325.5,-131.5 1325.5,-112.5 1260.5,-112.5"/>
<text text-anchor="middle" x="1293" y="-119.5" font-family="Helvetica,sans-Serif" font-size="10.00" fill="#000000">stdexcept</text>
</g>
<!-- Node17&#45;&gt;Node21 -->
<g id="edge30" class="edge">
<title>Node17&#45;&gt;Node21</title>
<path fill="none" stroke="#191970" d="M1317.4688,-173.8906C1313.3219,-165.0965 1307.0668,-151.8312 1301.919,-140.9145"/>
<polygon fill="#191970" stroke="#191970" points="1305.0259,-139.2969 1297.5951,-131.7449 1298.6945,-142.2825 1305.0259,-139.2969"/>
</g>
<!-- Node22 -->
<g id="node23" class="node">
<title>Node22</title>
<polygon fill="none" stroke="#bfbfbf" points="1495.5,-112.5 1495.5,-131.5 1552.5,-131.5 1552.5,-112.5 1495.5,-112.5"/>
<text text-anchor="middle" x="1524" y="-119.5" font-family="Helvetica,sans-Serif" font-size="10.00" fill="#000000">typeinfo</text>
</g>
<!-- Node17&#45;&gt;Node22 -->
<g id="edge31" class="edge">
<title>Node17&#45;&gt;Node22</title>
<path fill="none" stroke="#191970" d="M1353.5625,-173.8906C1389.2133,-163.0365 1447.2357,-145.3713 1485.5141,-133.7173"/>
<polygon fill="#191970" stroke="#191970" points="1486.7258,-137.007 1495.2728,-130.7461 1484.687,-130.3105 1486.7258,-137.007"/>
</g>
<!-- Node23&#45;&gt;Node11 -->
<g id="edge33" class="edge">
<title>Node23&#45;&gt;Node11</title>
<path fill="none" stroke="#191970" d="M80,-307.9005C80,-299.5099 80,-286.9451 80,-275.7085"/>
<polygon fill="#191970" stroke="#191970" points="83.5001,-275.5217 80,-265.5218 76.5001,-275.5218 83.5001,-275.5217"/>
</g>
<!-- Node24&#45;&gt;Node4 -->
<g id="edge35" class="edge">
<title>Node24&#45;&gt;Node4</title>
<path fill="none" stroke="#191970" d="M828.9167,-168.2398C802.3231,-149.2937 757.8001,-118.6536 739,-112 676.093,-89.7363 491.5741,-76.0197 387.8814,-69.8514"/>
<polygon fill="#191970" stroke="#191970" points="387.9867,-66.3517 377.7989,-69.2603 387.5769,-73.3397 387.9867,-66.3517"/>
</g>
<!-- Node24&#45;&gt;Node10 -->
<g id="edge39" class="edge">
<title>Node24&#45;&gt;Node10</title>
<path fill="none" stroke="#191970" d="M786.4012,-173.3864C773.6957,-171.4927 760.4349,-169.606 748,-168 600.4167,-148.9388 423.7229,-131.9358 350.4483,-125.1402"/>
<polygon fill="#191970" stroke="#191970" points="350.683,-121.6471 340.4035,-124.2126 350.0393,-128.6174 350.683,-121.6471"/>
</g>
<!-- Node24&#45;&gt;Node20 -->
<g id="edge42" class="edge">
<title>Node24&#45;&gt;Node20</title>
<path fill="none" stroke="#191970" d="M913.5594,-175.3472C977.1418,-166.7582 1077.889,-151.9768 1173.7529,-132.1098"/>
<polygon fill="#191970" stroke="#191970" points="1174.5408,-135.5208 1183.6108,-130.0449 1173.1056,-128.6695 1174.5408,-135.5208"/>
</g>
<!-- Node24&#45;&gt;Node21 -->
<g id="edge38" class="edge">
<title>Node24&#45;&gt;Node21</title>
<path fill="none" stroke="#191970" d="M913.5223,-177.4436C990.7688,-169.6096 1125.2588,-154.4637 1249.9475,-132.0314"/>
<polygon fill="#191970" stroke="#191970" points="1250.8427,-135.4261 1260.0548,-130.1928 1249.5899,-128.5391 1250.8427,-135.4261"/>
</g>
<!-- Node25 -->
<g id="node26" class="node">
<title>Node25</title>
<polygon fill="none" stroke="#bfbfbf" points="680,-112.5 680,-131.5 730,-131.5 730,-112.5 680,-112.5"/>
<text text-anchor="middle" x="705" y="-119.5" font-family="Helvetica,sans-Serif" font-size="10.00" fill="#000000">cstdint</text>
</g>
<!-- Node24&#45;&gt;Node25 -->
<g id="edge36" class="edge">
<title>Node24&#45;&gt;Node25</title>
<path fill="none" stroke="#191970" d="M814.529,-168.4554C790.7598,-158.374 759.732,-145.2139 736.7715,-135.4755"/>
<polygon fill="#191970" stroke="#191970" points="738.0427,-132.2129 727.4699,-131.5303 735.3094,-138.6572 738.0427,-132.2129"/>
</g>
<!-- Node26 -->
<g id="node27" class="node">
<title>Node26</title>
<polygon fill="none" stroke="#bfbfbf" points="852,-112.5 852,-131.5 904,-131.5 904,-112.5 852,-112.5"/>
<text text-anchor="middle" x="878" y="-119.5" font-family="Helvetica,sans-Serif" font-size="10.00" fill="#000000">cassert</text>
</g>
<!-- Node24&#45;&gt;Node26 -->
<g id="edge37" class="edge">
<title>Node24&#45;&gt;Node26</title>
<path fill="none" stroke="#191970" d="M856.9214,-168.2977C860.6461,-160.1166 865.278,-149.943 869.2504,-141.2179"/>
<polygon fill="#191970" stroke="#191970" points="872.5586,-142.3983 873.5168,-131.8469 866.1878,-139.4978 872.5586,-142.3983"/>
</g>
<!-- Node27 -->
<g id="node28" class="node">
<title>Node27</title>
<polygon fill="none" stroke="#bfbfbf" points="922.5,-112.5 922.5,-131.5 991.5,-131.5 991.5,-112.5 922.5,-112.5"/>
<text text-anchor="middle" x="957" y="-119.5" font-family="Helvetica,sans-Serif" font-size="10.00" fill="#000000">type_traits</text>
</g>
<!-- Node24&#45;&gt;Node27 -->
<g id="edge40" class="edge">
<title>Node24&#45;&gt;Node27</title>
<path fill="none" stroke="#191970" d="M876.1751,-168.4554C893.0887,-158.734 914.9829,-146.15 931.7172,-136.5317"/>
<polygon fill="#191970" stroke="#191970" points="933.493,-139.548 940.4188,-131.5303 930.0047,-133.4791 933.493,-139.548"/>
</g>
<!-- Node28 -->
<g id="node29" class="node">
<title>Node28</title>
<polygon fill="none" stroke="#bfbfbf" points="1010,-112.5 1010,-131.5 1060,-131.5 1060,-112.5 1010,-112.5"/>
<text text-anchor="middle" x="1035" y="-119.5" font-family="Helvetica,sans-Serif" font-size="10.00" fill="#000000">cstring</text>
</g>
<!-- Node24&#45;&gt;Node28 -->
<g id="edge41" class="edge">
<title>Node24&#45;&gt;Node28</title>
<path fill="none" stroke="#191970" d="M895.2561,-168.4554C927.644,-157.6886 970.5949,-143.4104 1000.2898,-133.5388"/>
<polygon fill="#191970" stroke="#191970" points="1001.4323,-136.8474 1009.8176,-130.3714 999.2241,-130.2048 1001.4323,-136.8474"/>
</g>
<!-- Node29 -->
<g id="node30" class="node">
<title>Node29</title>
<polygon fill="none" stroke="#bfbfbf" points="786.5,-112.5 786.5,-131.5 833.5,-131.5 833.5,-112.5 786.5,-112.5"/>
<text text-anchor="middle" x="810" y="-119.5" font-family="Helvetica,sans-Serif" font-size="10.00" fill="#000000">vector</text>
</g>
<!-- Node24&#45;&gt;Node29 -->
<g id="edge43" class="edge">
<title>Node24&#45;&gt;Node29</title>
<path fill="none" stroke="#191970" d="M840.1124,-168.2977C834.6178,-159.8498 827.7414,-149.2773 821.9473,-140.369"/>
<polygon fill="#191970" stroke="#191970" points="824.7908,-138.3215 816.4045,-131.8469 818.9228,-142.1381 824.7908,-138.3215"/>
</g>
<!-- Node30&#45;&gt;Node5 -->
<g id="edge46" class="edge">
<title>Node30&#45;&gt;Node5</title>
<path fill="none" stroke="#191970" d="M597.5106,-240.8316C578.3784,-221.4881 535.5108,-178.94 518,-168 477.081,-142.4356 398.7914,-152.5094 425,-112 466.4746,-47.8946 558.8598,-23.6886 612.104,-14.844"/>
<polygon fill="#191970" stroke="#191970" points="612.8612,-18.2684 622.2043,-13.2727 611.7851,-11.3516 612.8612,-18.2684"/>
</g>
<!-- Node30&#45;&gt;Node16 -->
<g id="edge45" class="edge">
<title>Node30&#45;&gt;Node16</title>
<path fill="none" stroke="#191970" d="M690.6686,-240.9914C754.8518,-232.7072 845.3222,-218.8794 923,-199 990.499,-181.7256 1066.6905,-152.4753 1108.7525,-135.4321"/>
<polygon fill="#191970" stroke="#191970" points="1110.2525,-138.6002 1118.1885,-131.5809 1107.6073,-132.1192 1110.2525,-138.6002"/>
</g>
<!-- Node31 -->
<g id="node32" class="node">
<title>Node31</title>
<g id="a_node32"><a xlink:href="../../d9/d80/InteractionRecord_8h.html" target="_top" xlink:title="CommonDataFormat/Interaction\lRecord.h">
<polygon fill="none" stroke="#000000" points="565,-168.5 565,-198.5 739,-198.5 739,-168.5 565,-168.5"/>
<text text-anchor="start" x="573" y="-186.5" font-family="Helvetica,sans-Serif" font-size="10.00" fill="#000000">CommonDataFormat/Interaction</text>
<text text-anchor="middle" x="652" y="-175.5" font-family="Helvetica,sans-Serif" font-size="10.00" fill="#000000">Record.h</text>
</a>
</g>
</g>
<!-- Node30&#45;&gt;Node31 -->
<g id="edge47" class="edge">
<title>Node30&#45;&gt;Node31</title>
<path fill="none" stroke="#191970" d="M613.4474,-240.9005C619.3734,-232.0773 628.3994,-218.6387 636.2284,-206.9822"/>
<polygon fill="#191970" stroke="#191970" points="639.2406,-208.7746 641.9108,-198.5218 633.4297,-204.8717 639.2406,-208.7746"/>
</g>
<!-- Node33 -->
<g id="node34" class="node">
<title>Node33</title>
<g id="a_node34"><a xlink:href="../../de/d64/RangeReference_8h.html" target="_top" xlink:title="Class to refer to the 1st entry and N elements of some group in the continuous container. ">
<polygon fill="none" stroke="#000000" points="299,-174 299,-193 509,-193 509,-174 299,-174"/>
<text text-anchor="middle" x="404" y="-181" font-family="Helvetica,sans-Serif" font-size="10.00" fill="#000000">CommonDataFormat/RangeReference.h</text>
</a>
</g>
</g>
<!-- Node30&#45;&gt;Node33 -->
<g id="edge53" class="edge">
<title>Node30&#45;&gt;Node33</title>
<path fill="none" stroke="#191970" d="M577.915,-240.9005C542.3396,-229.1589 481.9992,-209.2436 442.5755,-196.2318"/>
<polygon fill="#191970" stroke="#191970" points="443.6241,-192.8923 433.031,-193.0817 441.4302,-199.5396 443.6241,-192.8923"/>
</g>
<!-- Node31&#45;&gt;Node2 -->
<g id="edge50" class="edge">
<title>Node31&#45;&gt;Node2</title>
<path fill="none" stroke="#191970" d="M564.6097,-172.8966C477.5805,-162.0666 348.9244,-145.2589 283.6007,-131.7881"/>
<polygon fill="#191970" stroke="#191970" points="284.1886,-128.3346 273.6765,-129.6562 282.7184,-135.1785 284.1886,-128.3346"/>
</g>
<!-- Node31&#45;&gt;Node5 -->
<g id="edge48" class="edge">
<title>Node31&#45;&gt;Node5</title>
<path fill="none" stroke="#191970" d="M652,-168.4065C652,-137.1485 652,-65.3214 652,-30.1492"/>
<polygon fill="#191970" stroke="#191970" points="655.5001,-29.738 652,-19.738 648.5001,-29.738 655.5001,-29.738"/>
</g>
<!-- Node31&#45;&gt;Node16 -->
<g id="edge49" class="edge">
<title>Node31&#45;&gt;Node16</title>
<path fill="none" stroke="#191970" d="M739.0754,-172.7802C856.4923,-158.3201 1052.8622,-134.1171 1069,-132 1081.1941,-130.4003 1094.538,-128.5694 1106.3892,-126.9151"/>
<polygon fill="#191970" stroke="#191970" points="1106.9366,-130.3727 1116.3533,-125.5171 1105.964,-123.4406 1106.9366,-130.3727"/>
</g>
<!-- Node31&#45;&gt;Node25 -->
<g id="edge51" class="edge">
<title>Node31&#45;&gt;Node25</title>
<path fill="none" stroke="#191970" d="M665.1011,-168.2977C672.6113,-159.5831 682.07,-148.6075 689.8927,-139.5302"/>
<polygon fill="#191970" stroke="#191970" points="692.6371,-141.707 696.514,-131.8469 687.3345,-137.1372 692.6371,-141.707"/>
</g>
<!-- Node32 -->
<g id="node33" class="node">
<title>Node32</title>
<g id="a_node33"><a xlink:href="../../d4/dc6/LHCConstants_8h.html" target="_top" xlink:title="Header to collect LHC related constants. ">
<polygon fill="none" stroke="#000000" points="434,-112.5 434,-131.5 624,-131.5 624,-112.5 434,-112.5"/>
<text text-anchor="middle" x="529" y="-119.5" font-family="Helvetica,sans-Serif" font-size="10.00" fill="#000000">CommonConstants/LHCConstants.h</text>
</a>
</g>
</g>
<!-- Node31&#45;&gt;Node32 -->
<g id="edge52" class="edge">
<title>Node31&#45;&gt;Node32</title>
<path fill="none" stroke="#191970" d="M621.9108,-168.4554C602.1981,-158.599 576.5998,-145.7999 557.2653,-136.1327"/>
<polygon fill="#191970" stroke="#191970" points="558.5702,-132.872 548.0606,-131.5303 555.4397,-139.133 558.5702,-132.872"/>
</g>
<!-- Node33&#45;&gt;Node4 -->
<g id="edge54" class="edge">
<title>Node33&#45;&gt;Node4</title>
<path fill="none" stroke="#191970" d="M396.7168,-173.8845C381.7878,-154.1749 347.5193,-108.9328 328.4417,-83.7461"/>
<polygon fill="#191970" stroke="#191970" points="331.2118,-81.6065 322.3839,-75.7484 325.6318,-85.8331 331.2118,-81.6065"/>
</g>
</g>
</svg>
        <g id="navigator" transform="translate(0 0)" fill="#404254">
                <rect fill="#f2f5e9" fill-opacity="0.5" stroke="#606060" stroke-width=".5" x="0" y="0" width="60" height="60"/>
                <use id="zoomplus" xlink:href="#zoomPlus" x="17" y="9" onmousedown="handleZoom(evt,'in')"/>
                <use id="zoomminus" xlink:href="#zoomMin" x="42" y="9" onmousedown="handleZoom(evt,'out')"/>
                <use id="reset" xlink:href="#resetDef" x="30" y="36" onmousedown="handleReset()"/>
                <g id="arrowUp" xlink:href="#dirArrow" transform="translate(30 24)" onmousedown="handlePan(0,-1)">
                  <use xlink:href="#rim" fill="#404040">
                        <set attributeName="fill" to="#808080" begin="arrowUp.mouseover" end="arrowUp.mouseout"/>
                  </use>
                  <path fill="none" stroke="white" stroke-width="1.5" d="M0,-3.0v7 M-2.5,-0.5L0,-3.0L2.5,-0.5"/>
                </g>
                <g id="arrowRight" xlink:href="#dirArrow" transform="rotate(90) translate(36 -43)" onmousedown="handlePan(1,0)">
                  <use xlink:href="#rim" fill="#404040">
                        <set attributeName="fill" to="#808080" begin="arrowRight.mouseover" end="arrowRight.mouseout"/>
                  </use>
                  <path fill="none" stroke="white" stroke-width="1.5" d="M0,-3.0v7 M-2.5,-0.5L0,-3.0L2.5,-0.5"/>
                </g>
                <g id="arrowDown" xlink:href="#dirArrow" transform="rotate(180) translate(-30 -48)" onmousedown="handlePan(0,1)">
                  <use xlink:href="#rim" fill="#404040">
                        <set attributeName="fill" to="#808080" begin="arrowDown.mouseover" end="arrowDown.mouseout"/>
                  </use>
                  <path fill="none" stroke="white" stroke-width="1.5" d="M0,-3.0v7 M-2.5,-0.5L0,-3.0L2.5,-0.5"/>
                </g>
                <g id="arrowLeft" xlink:href="#dirArrow" transform="rotate(270) translate(-36 17)" onmousedown="handlePan(-1,0)">
                  <use xlink:href="#rim" fill="#404040">
                        <set attributeName="fill" to="#808080" begin="arrowLeft.mouseover" end="arrowLeft.mouseout"/>
                  </use>
                  <path fill="none" stroke="white" stroke-width="1.5" d="M0,-3.0v7 M-2.5,-0.5L0,-3.0L2.5,-0.5"/>
                </g>
        </g>
        <svg viewBox="0 0 15 15" width="100%" height="30px" preserveAspectRatio="xMaxYMin meet">
         <g id="arrow_out" transform="scale(0.3 0.3)">
          <a xlink:href="PHOS_2reconstruction_2include_2PHOSReconstruction_2Clusterer_8h__incl_org.svg" target="_base">
           <rect id="button" ry="5" rx="5" y="6" x="6" height="38" width="38"
                fill="#f2f5e9" fill-opacity="0.5" stroke="#606060" stroke-width="1.0"/>
           <path id="arrow"
             d="M 11.500037,31.436501 C 11.940474,20.09759 22.043105,11.32322 32.158766,21.979434 L 37.068811,17.246167 C 37.068811,17.246167 37.088388,32 37.088388,32 L 22.160133,31.978069 C 22.160133,31.978069 26.997745,27.140456 26.997745,27.140456 C 18.528582,18.264221 13.291696,25.230495 11.500037,31.436501 z"
             style="fill:#404040;"/>
          </a>
         </g>
        </svg>
</svg>
