<?xml version="1.0" encoding="UTF-8" standalone="no"?>
<!DOCTYPE svg PUBLIC "-//W3C//DTD SVG 1.1//EN"
 "http://www.w3.org/Graphics/SVG/1.1/DTD/svg11.dtd">
<!-- Generated by graphviz version 2.40.1 (20161225.0304)
 -->
<!-- Title: /home/travis/build/AliceO2Group/AliceO2/Detectors/CPV/simulation/include/CPVSimulation/Digitizer.h Pages: 1 -->
<!--zoomable 385 -->
<svg id="main" version="1.1" xmlns="http://www.w3.org/2000/svg" xmlns:xlink="http://www.w3.org/1999/xlink" xml:space="preserve" onload="init(evt)">
<style type="text/css"><![CDATA[
.edge:hover path { stroke: red; }
.edge:hover polygon { stroke: red; fill: red; }
]]></style>
<script type="text/javascript"><![CDATA[
var edges = document.getElementsByTagName('g');
if (edges && edges.length) {
  for (var i=0;i<edges.length;i++) {
    if (edges[i].id.substr(0,4)=='edge') {
      edges[i].setAttribute('class','edge');
    }
  }
}
]]></script>
        <defs>
                <circle id="rim" cx="0" cy="0" r="7"/>
                <circle id="rim2" cx="0" cy="0" r="3.5"/>
                <g id="zoomPlus">
                        <use xlink:href="#rim" fill="#404040">
                                <set attributeName="fill" to="#808080" begin="zoomplus.mouseover" end="zoomplus.mouseout"/>
                        </use>
                        <path d="M-4,0h8M0,-4v8" fill="none" stroke="white" stroke-width="1.5" pointer-events="none"/>
                </g>
                <g id="zoomMin">
                        <use xlink:href="#rim" fill="#404040">
                                <set attributeName="fill" to="#808080" begin="zoomminus.mouseover" end="zoomminus.mouseout"/>
                        </use>
                        <path d="M-4,0h8" fill="none" stroke="white" stroke-width="1.5" pointer-events="none"/>
                </g>
                <g id="dirArrow">
                        <path fill="none" stroke="white" stroke-width="1.5" d="M0,-3.0v7 M-2.5,-0.5L0,-3.0L2.5,-0.5"/>
                </g>
               <g id="resetDef">
                       <use xlink:href="#rim2" fill="#404040">
                               <set attributeName="fill" to="#808080" begin="reset.mouseover" end="reset.mouseout"/>
                       </use>
               </g>
        </defs>

<script type="text/javascript">
var viewWidth = 2153;
var viewHeight = 385;
var sectionId = 'dynsection-0';
</script>
<script xlink:href="../../svgpan.js"/>
<svg id="graph" class="graph">
<g id="viewport">
<title>/home/travis/build/AliceO2Group/AliceO2/Detectors/CPV/simulation/include/CPVSimulation/Digitizer.h</title>
<!-- Node0 -->
<g id="node1" class="node">
<title>Node0</title>
<polygon fill="#bfbfbf" stroke="#000000" points="1556.5,-324.5 1556.5,-376.5 1738.5,-376.5 1738.5,-324.5 1556.5,-324.5"/>
<text text-anchor="start" x="1564.5" y="-364.5" font-family="Helvetica,sans-Serif" font-size="10.00" fill="#000000">/home/travis/build</text>
<text text-anchor="start" x="1564.5" y="-353.5" font-family="Helvetica,sans-Serif" font-size="10.00" fill="#000000">/AliceO2Group/AliceO2</text>
<text text-anchor="start" x="1564.5" y="-342.5" font-family="Helvetica,sans-Serif" font-size="10.00" fill="#000000">/Detectors/CPV/simulation</text>
<text text-anchor="middle" x="1647.5" y="-331.5" font-family="Helvetica,sans-Serif" font-size="10.00" fill="#000000">/include/CPVSimulation/Digitizer.h</text>
</g>
<!-- Node1 -->
<g id="node2" class="node">
<title>Node1</title>
<g id="a_node2"><a xlink:href="../../de/dfb/DataFormats_2Detectors_2CPV_2include_2DataFormatsCPV_2Digit_8h.html" target="_top" xlink:title="DataFormatsCPV/Digit.h">
<polygon fill="none" stroke="#000000" points="1528.5,-263 1528.5,-282 1662.5,-282 1662.5,-263 1528.5,-263"/>
<text text-anchor="middle" x="1595.5" y="-270" font-family="Helvetica,sans-Serif" font-size="10.00" fill="#000000">DataFormatsCPV/Digit.h</text>
</a>
</g>
</g>
<!-- Node0&#45;&gt;Node1 -->
<g id="edge1" class="edge">
<title>Node0&#45;&gt;Node1</title>
<path fill="none" stroke="#191970" d="M1629.8952,-324.0928C1622.5715,-313.1073 1614.2523,-300.6285 1607.6303,-290.6954"/>
<polygon fill="#191970" stroke="#191970" points="1610.3485,-288.4629 1601.8892,-282.0839 1604.5241,-292.3459 1610.3485,-288.4629"/>
</g>
<!-- Node6 -->
<g id="node7" class="node">
<title>Node6</title>
<g id="a_node7"><a xlink:href="../../de/ddd/CPV_2base_2include_2CPVBase_2Geometry_8h.html" target="_top" xlink:title="CPVBase/Geometry.h">
<polygon fill="none" stroke="#000000" points="1786,-263 1786,-282 1905,-282 1905,-263 1786,-263"/>
<text text-anchor="middle" x="1845.5" y="-270" font-family="Helvetica,sans-Serif" font-size="10.00" fill="#000000">CPVBase/Geometry.h</text>
</a>
</g>
</g>
<!-- Node0&#45;&gt;Node6 -->
<g id="edge6" class="edge">
<title>Node0&#45;&gt;Node6</title>
<path fill="none" stroke="#191970" d="M1713.7064,-324.4187C1746.5477,-311.4812 1784.8167,-296.4055 1811.6289,-285.8432"/>
<polygon fill="#191970" stroke="#191970" points="1812.9362,-289.09 1820.9574,-282.1683 1810.3705,-282.5772 1812.9362,-289.09"/>
</g>
<!-- Node10 -->
<g id="node11" class="node">
<title>Node10</title>
<g id="a_node11"><a xlink:href="../../dc/d40/CPV_2calib_2include_2CPVCalib_2CalibParams_8h.html" target="_top" xlink:title="CPVCalib/CalibParams.h">
<polygon fill="none" stroke="#000000" points="1985.5,-263 1985.5,-282 2119.5,-282 2119.5,-263 1985.5,-263"/>
<text text-anchor="middle" x="2052.5" y="-270" font-family="Helvetica,sans-Serif" font-size="10.00" fill="#000000">CPVCalib/CalibParams.h</text>
</a>
</g>
</g>
<!-- Node0&#45;&gt;Node10 -->
<g id="edge10" class="edge">
<title>Node0&#45;&gt;Node10</title>
<path fill="none" stroke="#191970" d="M1738.6423,-332.9467C1816.4079,-317.9696 1925.9724,-296.8683 1992.9527,-283.9684"/>
<polygon fill="#191970" stroke="#191970" points="1993.7636,-287.3766 2002.9212,-282.0485 1992.4397,-280.5029 1993.7636,-287.3766"/>
</g>
<!-- Node13 -->
<g id="node14" class="node">
<title>Node13</title>
<g id="a_node14"><a xlink:href="../../db/dd0/Detectors_2CPV_2base_2include_2CPVBase_2Hit_8h.html" target="_top" xlink:title="CPVBase/Hit.h">
<polygon fill="none" stroke="#000000" points="1188.5,-263 1188.5,-282 1274.5,-282 1274.5,-263 1188.5,-263"/>
<text text-anchor="middle" x="1231.5" y="-270" font-family="Helvetica,sans-Serif" font-size="10.00" fill="#000000">CPVBase/Hit.h</text>
</a>
</g>
</g>
<!-- Node0&#45;&gt;Node13 -->
<g id="edge13" class="edge">
<title>Node0&#45;&gt;Node13</title>
<path fill="none" stroke="#191970" d="M1556.4642,-333.4308C1473.3328,-317.8436 1353.2692,-295.3317 1284.7562,-282.4855"/>
<polygon fill="#191970" stroke="#191970" points="1285.0982,-278.9887 1274.6244,-280.5858 1283.8081,-285.8688 1285.0982,-278.9887"/>
</g>
<!-- Node33 -->
<g id="node34" class="node">
<title>Node33</title>
<g id="a_node34"><a xlink:href="../../d7/dcd/MCCompLabel_8h.html" target="_top" xlink:title="SimulationDataFormat\l/MCCompLabel.h">
<polygon fill="none" stroke="#000000" points="1338,-257.5 1338,-287.5 1465,-287.5 1465,-257.5 1338,-257.5"/>
<text text-anchor="start" x="1346" y="-275.5" font-family="Helvetica,sans-Serif" font-size="10.00" fill="#000000">SimulationDataFormat</text>
<text text-anchor="middle" x="1401.5" y="-264.5" font-family="Helvetica,sans-Serif" font-size="10.00" fill="#000000">/MCCompLabel.h</text>
</a>
</g>
</g>
<!-- Node0&#45;&gt;Node33 -->
<g id="edge34" class="edge">
<title>Node0&#45;&gt;Node33</title>
<path fill="none" stroke="#191970" d="M1565.2435,-324.4187C1530.1806,-313.3012 1490.1378,-300.6047 1458.4271,-290.5501"/>
<polygon fill="#191970" stroke="#191970" points="1459.4583,-287.2054 1448.8681,-287.5192 1457.3426,-293.878 1459.4583,-287.2054"/>
</g>
<!-- Node34 -->
<g id="node35" class="node">
<title>Node34</title>
<g id="a_node35"><a xlink:href="../../db/d14/MCTruthContainer_8h.html" target="_top" xlink:title="Definition of a container to keep Monte Carlo truth external to simulation objects. ">
<polygon fill="none" stroke="#000000" points="1637,-190.5 1637,-220.5 1764,-220.5 1764,-190.5 1637,-190.5"/>
<text text-anchor="start" x="1645" y="-208.5" font-family="Helvetica,sans-Serif" font-size="10.00" fill="#000000">SimulationDataFormat</text>
<text text-anchor="middle" x="1700.5" y="-197.5" font-family="Helvetica,sans-Serif" font-size="10.00" fill="#000000">/MCTruthContainer.h</text>
</a>
</g>
</g>
<!-- Node0&#45;&gt;Node34 -->
<g id="edge36" class="edge">
<title>Node0&#45;&gt;Node34</title>
<path fill="none" stroke="#191970" d="M1657.7094,-324.411C1662.0363,-313.2271 1667.0879,-300.0001 1671.5,-288 1678.5482,-268.8301 1686.1974,-247.0247 1691.8693,-230.6479"/>
<polygon fill="#191970" stroke="#191970" points="1695.3306,-231.3469 1695.2849,-220.7521 1688.7137,-229.0629 1695.3306,-231.3469"/>
</g>
<!-- Node2 -->
<g id="node3" class="node">
<title>Node2</title>
<polygon fill="none" stroke="#bfbfbf" points="1572,-196 1572,-215 1619,-215 1619,-196 1572,-196"/>
<text text-anchor="middle" x="1595.5" y="-203" font-family="Helvetica,sans-Serif" font-size="10.00" fill="#000000">cmath</text>
</g>
<!-- Node1&#45;&gt;Node2 -->
<g id="edge2" class="edge">
<title>Node1&#45;&gt;Node2</title>
<path fill="none" stroke="#191970" d="M1595.5,-262.9005C1595.5,-253.149 1595.5,-237.7597 1595.5,-225.3695"/>
<polygon fill="#191970" stroke="#191970" points="1599.0001,-225.0816 1595.5,-215.0817 1592.0001,-225.0817 1599.0001,-225.0816"/>
</g>
<!-- Node3 -->
<g id="node4" class="node">
<title>Node3</title>
<g id="a_node4"><a xlink:href="../../df/d5d/common_2include_2CommonDataFormat_2TimeStamp_8h.html" target="_top" xlink:title="CommonDataFormat/TimeStamp.h">
<polygon fill="none" stroke="#000000" points="1367,-196 1367,-215 1554,-215 1554,-196 1367,-196"/>
<text text-anchor="middle" x="1460.5" y="-203" font-family="Helvetica,sans-Serif" font-size="10.00" fill="#000000">CommonDataFormat/TimeStamp.h</text>
</a>
</g>
</g>
<!-- Node1&#45;&gt;Node3 -->
<g id="edge3" class="edge">
<title>Node1&#45;&gt;Node3</title>
<path fill="none" stroke="#191970" d="M1576.1578,-262.9005C1553.3013,-251.5569 1515.073,-232.5844 1488.8666,-219.5783"/>
<polygon fill="#191970" stroke="#191970" points="1490.3198,-216.3922 1479.8063,-215.0817 1487.2079,-222.6624 1490.3198,-216.3922"/>
</g>
<!-- Node4 -->
<g id="node5" class="node">
<title>Node4</title>
<g id="a_node5"><a xlink:href="../../d2/d45/GPUCommonRtypes_8h.html" target="_top" xlink:title="GPUCommonRtypes.h">
<polygon fill="none" stroke="#000000" points="1390,-134.5 1390,-153.5 1515,-153.5 1515,-134.5 1390,-134.5"/>
<text text-anchor="middle" x="1452.5" y="-141.5" font-family="Helvetica,sans-Serif" font-size="10.00" fill="#000000">GPUCommonRtypes.h</text>
</a>
</g>
</g>
<!-- Node3&#45;&gt;Node4 -->
<g id="edge4" class="edge">
<title>Node3&#45;&gt;Node4</title>
<path fill="none" stroke="#191970" d="M1459.25,-195.8906C1458.1411,-187.3657 1456.4856,-174.6392 1455.0917,-163.9235"/>
<polygon fill="#191970" stroke="#191970" points="1458.5284,-163.2098 1453.7676,-153.7449 1451.5869,-164.1128 1458.5284,-163.2098"/>
</g>
<!-- Node5 -->
<g id="node6" class="node">
<title>Node5</title>
<polygon fill="none" stroke="#bfbfbf" points="1724,-73 1724,-92 1783,-92 1783,-73 1724,-73"/>
<text text-anchor="middle" x="1753.5" y="-80" font-family="Helvetica,sans-Serif" font-size="10.00" fill="#000000">Rtypes.h</text>
</g>
<!-- Node4&#45;&gt;Node5 -->
<g id="edge5" class="edge">
<title>Node4&#45;&gt;Node5</title>
<path fill="none" stroke="#191970" d="M1515.2766,-134.4927C1580.4904,-124.3457 1678.009,-108.3372 1714.5,-98 1716.9535,-97.305 1719.4652,-96.5102 1721.9732,-95.6561"/>
<polygon fill="#191970" stroke="#191970" points="1723.3208,-98.8897 1731.4975,-92.1524 1720.904,-92.3201 1723.3208,-98.8897"/>
</g>
<!-- Node7 -->
<g id="node8" class="node">
<title>Node7</title>
<polygon fill="none" stroke="#bfbfbf" points="1782.5,-196 1782.5,-215 1826.5,-215 1826.5,-196 1782.5,-196"/>
<text text-anchor="middle" x="1804.5" y="-203" font-family="Helvetica,sans-Serif" font-size="10.00" fill="#000000">string</text>
</g>
<!-- Node6&#45;&gt;Node7 -->
<g id="edge7" class="edge">
<title>Node6&#45;&gt;Node7</title>
<path fill="none" stroke="#191970" d="M1839.6257,-262.9005C1833.4148,-252.751 1823.4665,-236.4941 1815.7401,-223.8679"/>
<polygon fill="#191970" stroke="#191970" points="1818.5685,-221.7844 1810.3634,-215.0817 1812.5977,-225.4382 1818.5685,-221.7844"/>
</g>
<!-- Node8 -->
<g id="node9" class="node">
<title>Node8</title>
<polygon fill="none" stroke="#bfbfbf" points="1844.5,-196 1844.5,-215 1928.5,-215 1928.5,-196 1844.5,-196"/>
<text text-anchor="middle" x="1886.5" y="-203" font-family="Helvetica,sans-Serif" font-size="10.00" fill="#000000">RStringView.h</text>
</g>
<!-- Node6&#45;&gt;Node8 -->
<g id="edge8" class="edge">
<title>Node6&#45;&gt;Node8</title>
<path fill="none" stroke="#191970" d="M1851.3743,-262.9005C1857.5852,-252.751 1867.5335,-236.4941 1875.2599,-223.8679"/>
<polygon fill="#191970" stroke="#191970" points="1878.4023,-225.4382 1880.6366,-215.0817 1872.4315,-221.7844 1878.4023,-225.4382"/>
</g>
<!-- Node9 -->
<g id="node10" class="node">
<title>Node9</title>
<polygon fill="none" stroke="#bfbfbf" points="1946.5,-196 1946.5,-215 2002.5,-215 2002.5,-196 1946.5,-196"/>
<text text-anchor="middle" x="1974.5" y="-203" font-family="Helvetica,sans-Serif" font-size="10.00" fill="#000000">TMath.h</text>
</g>
<!-- Node6&#45;&gt;Node9 -->
<g id="edge9" class="edge">
<title>Node6&#45;&gt;Node9</title>
<path fill="none" stroke="#191970" d="M1863.9826,-262.9005C1885.7275,-251.6067 1922.0323,-232.7506 1947.064,-219.7497"/>
<polygon fill="#191970" stroke="#191970" points="1948.7905,-222.797 1956.0517,-215.0817 1945.5641,-216.5849 1948.7905,-222.797"/>
</g>
<!-- Node11 -->
<g id="node12" class="node">
<title>Node11</title>
<polygon fill="none" stroke="#bfbfbf" points="2102.5,-196 2102.5,-215 2144.5,-215 2144.5,-196 2102.5,-196"/>
<text text-anchor="middle" x="2123.5" y="-203" font-family="Helvetica,sans-Serif" font-size="10.00" fill="#000000">array</text>
</g>
<!-- Node10&#45;&gt;Node11 -->
<g id="edge11" class="edge">
<title>Node10&#45;&gt;Node11</title>
<path fill="none" stroke="#191970" d="M2062.6726,-262.9005C2073.9553,-252.2535 2092.3601,-234.8856 2105.9742,-222.0385"/>
<polygon fill="#191970" stroke="#191970" points="2108.4754,-224.4905 2113.3463,-215.0817 2103.6712,-219.3994 2108.4754,-224.4905"/>
</g>
<!-- Node12 -->
<g id="node13" class="node">
<title>Node12</title>
<polygon fill="none" stroke="#bfbfbf" points="2021,-196 2021,-215 2084,-215 2084,-196 2021,-196"/>
<text text-anchor="middle" x="2052.5" y="-203" font-family="Helvetica,sans-Serif" font-size="10.00" fill="#000000">TObject.h</text>
</g>
<!-- Node10&#45;&gt;Node12 -->
<g id="edge12" class="edge">
<title>Node10&#45;&gt;Node12</title>
<path fill="none" stroke="#191970" d="M2052.5,-262.9005C2052.5,-253.149 2052.5,-237.7597 2052.5,-225.3695"/>
<polygon fill="#191970" stroke="#191970" points="2056.0001,-225.0816 2052.5,-215.0817 2049.0001,-225.0817 2056.0001,-225.0816"/>
</g>
<!-- Node14 -->
<g id="node15" class="node">
<title>Node14</title>
<g id="a_node15"><a xlink:href="../../d4/d25/BaseHits_8h.html" target="_top" xlink:title="SimulationDataFormat\l/BaseHits.h">
<polygon fill="none" stroke="#000000" points="1006,-190.5 1006,-220.5 1133,-220.5 1133,-190.5 1006,-190.5"/>
<text text-anchor="start" x="1014" y="-208.5" font-family="Helvetica,sans-Serif" font-size="10.00" fill="#000000">SimulationDataFormat</text>
<text text-anchor="middle" x="1069.5" y="-197.5" font-family="Helvetica,sans-Serif" font-size="10.00" fill="#000000">/BaseHits.h</text>
</a>
</g>
</g>
<!-- Node13&#45;&gt;Node14 -->
<g id="edge14" class="edge">
<title>Node13&#45;&gt;Node14</title>
<path fill="none" stroke="#191970" d="M1208.2893,-262.9005C1184.1321,-252.9096 1145.6656,-237.0006 1115.3494,-224.4624"/>
<polygon fill="#191970" stroke="#191970" points="1116.3998,-221.1094 1105.8213,-220.5218 1113.7245,-227.578 1116.3998,-221.1094"/>
</g>
<!-- Node26 -->
<g id="node27" class="node">
<title>Node26</title>
<g id="a_node27"><a xlink:href="../../d0/d91/ShmAllocator_8h.html" target="_top" xlink:title="CommonUtils/ShmAllocator.h">
<polygon fill="none" stroke="#000000" points="1151.5,-196 1151.5,-215 1311.5,-215 1311.5,-196 1151.5,-196"/>
<text text-anchor="middle" x="1231.5" y="-203" font-family="Helvetica,sans-Serif" font-size="10.00" fill="#000000">CommonUtils/ShmAllocator.h</text>
</a>
</g>
</g>
<!-- Node13&#45;&gt;Node26 -->
<g id="edge27" class="edge">
<title>Node13&#45;&gt;Node26</title>
<path fill="none" stroke="#191970" d="M1231.5,-262.9005C1231.5,-253.149 1231.5,-237.7597 1231.5,-225.3695"/>
<polygon fill="#191970" stroke="#191970" points="1235.0001,-225.0816 1231.5,-215.0817 1228.0001,-225.0817 1235.0001,-225.0816"/>
</g>
<!-- Node15 -->
<g id="node16" class="node">
<title>Node15</title>
<g id="a_node16"><a xlink:href="../../dd/d76/Cartesian3D_8h.html" target="_top" xlink:title="MathUtils/Cartesian3D.h">
<polygon fill="none" stroke="#000000" points="1002,-134.5 1002,-153.5 1137,-153.5 1137,-134.5 1002,-134.5"/>
<text text-anchor="middle" x="1069.5" y="-141.5" font-family="Helvetica,sans-Serif" font-size="10.00" fill="#000000">MathUtils/Cartesian3D.h</text>
</a>
</g>
</g>
<!-- Node14&#45;&gt;Node15 -->
<g id="edge15" class="edge">
<title>Node14&#45;&gt;Node15</title>
<path fill="none" stroke="#191970" d="M1069.5,-190.2977C1069.5,-182.3834 1069.5,-172.6043 1069.5,-164.0759"/>
<polygon fill="#191970" stroke="#191970" points="1073.0001,-163.8469 1069.5,-153.8469 1066.0001,-163.847 1073.0001,-163.8469"/>
</g>
<!-- Node15&#45;&gt;Node5 -->
<g id="edge21" class="edge">
<title>Node15&#45;&gt;Node5</title>
<path fill="none" stroke="#191970" d="M1137.2561,-140.3468C1291.4224,-131.8651 1659.3695,-110.6033 1714.5,-98 1717.3633,-97.3454 1720.2919,-96.5127 1723.1943,-95.574"/>
<polygon fill="#191970" stroke="#191970" points="1724.6203,-98.78 1732.8278,-92.0802 1722.2336,-92.1994 1724.6203,-98.78"/>
</g>
<!-- Node16 -->
<g id="node17" class="node">
<title>Node16</title>
<polygon fill="none" stroke="#bfbfbf" points="1155.5,-67.5 1155.5,-97.5 1319.5,-97.5 1319.5,-67.5 1155.5,-67.5"/>
<text text-anchor="start" x="1163.5" y="-85.5" font-family="Helvetica,sans-Serif" font-size="10.00" fill="#000000">Math/GenVector/Displacement</text>
<text text-anchor="middle" x="1237.5" y="-74.5" font-family="Helvetica,sans-Serif" font-size="10.00" fill="#000000">Vector3D.h</text>
</g>
<!-- Node15&#45;&gt;Node16 -->
<g id="edge16" class="edge">
<title>Node15&#45;&gt;Node16</title>
<path fill="none" stroke="#191970" d="M1095.75,-134.3906C1120.0657,-125.4893 1156.8947,-112.0073 1186.9183,-101.0165"/>
<polygon fill="#191970" stroke="#191970" points="1188.2152,-104.269 1196.4026,-97.5446 1185.8088,-97.6956 1188.2152,-104.269"/>
</g>
<!-- Node17 -->
<g id="node18" class="node">
<title>Node17</title>
<polygon fill="none" stroke="#bfbfbf" points="1338,-73 1338,-92 1527,-92 1527,-73 1338,-73"/>
<text text-anchor="middle" x="1432.5" y="-80" font-family="Helvetica,sans-Serif" font-size="10.00" fill="#000000">Math/GenVector/PositionVector3D.h</text>
</g>
<!-- Node15&#45;&gt;Node17 -->
<g id="edge17" class="edge">
<title>Node15&#45;&gt;Node17</title>
<path fill="none" stroke="#191970" d="M1125.8205,-134.4581C1190.829,-123.4443 1297.6112,-105.3531 1366.4711,-93.6867"/>
<polygon fill="#191970" stroke="#191970" points="1367.0713,-97.135 1376.3461,-92.0137 1365.9019,-90.2333 1367.0713,-97.135"/>
</g>
<!-- Node18 -->
<g id="node19" class="node">
<title>Node18</title>
<polygon fill="none" stroke="#bfbfbf" points="1545.5,-73 1545.5,-92 1705.5,-92 1705.5,-73 1545.5,-73"/>
<text text-anchor="middle" x="1625.5" y="-80" font-family="Helvetica,sans-Serif" font-size="10.00" fill="#000000">Math/GenVector/Rotation3D.h</text>
</g>
<!-- Node15&#45;&gt;Node18 -->
<g id="edge18" class="edge">
<title>Node15&#45;&gt;Node18</title>
<path fill="none" stroke="#191970" d="M1137.2034,-138.8582C1228.0475,-131.6071 1394.315,-117.1006 1535.5,-98 1544.6154,-96.7668 1554.2214,-95.2965 1563.6277,-93.7599"/>
<polygon fill="#191970" stroke="#191970" points="1564.4362,-97.1734 1573.7234,-92.0746 1563.2835,-90.269 1564.4362,-97.1734"/>
</g>
<!-- Node19 -->
<g id="node20" class="node">
<title>Node19</title>
<polygon fill="none" stroke="#bfbfbf" points="456.5,-73 456.5,-92 624.5,-92 624.5,-73 456.5,-73"/>
<text text-anchor="middle" x="540.5" y="-80" font-family="Helvetica,sans-Serif" font-size="10.00" fill="#000000">Math/GenVector/Transform3D.h</text>
</g>
<!-- Node15&#45;&gt;Node19 -->
<g id="edge19" class="edge">
<title>Node15&#45;&gt;Node19</title>
<path fill="none" stroke="#191970" d="M1001.7535,-138.1228C915.891,-130.3824 763.4121,-115.663 633.5,-98 624.1105,-96.7234 614.2119,-95.2315 604.5145,-93.6871"/>
<polygon fill="#191970" stroke="#191970" points="604.9427,-90.2109 594.5114,-92.0653 603.8224,-97.1206 604.9427,-90.2109"/>
</g>
<!-- Node20 -->
<g id="node21" class="node">
<title>Node20</title>
<polygon fill="none" stroke="#bfbfbf" points="643,-73 643,-92 816,-92 816,-73 643,-73"/>
<text text-anchor="middle" x="729.5" y="-80" font-family="Helvetica,sans-Serif" font-size="10.00" fill="#000000">Math/GenVector/Translation3D.h</text>
</g>
<!-- Node15&#45;&gt;Node20 -->
<g id="edge20" class="edge">
<title>Node15&#45;&gt;Node20</title>
<path fill="none" stroke="#191970" d="M1016.748,-134.4581C956.1081,-123.4894 856.6613,-105.5012 792.14,-93.8305"/>
<polygon fill="#191970" stroke="#191970" points="792.5593,-90.3496 782.096,-92.0137 791.3133,-97.2378 792.5593,-90.3496"/>
</g>
<!-- Node21 -->
<g id="node22" class="node">
<title>Node21</title>
<polygon fill="none" stroke="#bfbfbf" points="834.5,-73 834.5,-92 916.5,-92 916.5,-73 834.5,-73"/>
<text text-anchor="middle" x="875.5" y="-80" font-family="Helvetica,sans-Serif" font-size="10.00" fill="#000000">TGeoMatrix.h</text>
</g>
<!-- Node15&#45;&gt;Node21 -->
<g id="edge22" class="edge">
<title>Node15&#45;&gt;Node21</title>
<path fill="none" stroke="#191970" d="M1039.1875,-134.3906C1005.8735,-123.8298 952.2192,-106.8208 915.4819,-95.1747"/>
<polygon fill="#191970" stroke="#191970" points="916.1898,-91.7275 905.5996,-92.0419 914.0744,-98.4002 916.1898,-91.7275"/>
</g>
<!-- Node22 -->
<g id="node23" class="node">
<title>Node22</title>
<polygon fill="none" stroke="#bfbfbf" points="935,-73 935,-92 984,-92 984,-73 935,-73"/>
<text text-anchor="middle" x="959.5" y="-80" font-family="Helvetica,sans-Serif" font-size="10.00" fill="#000000">iosfwd</text>
</g>
<!-- Node15&#45;&gt;Node22 -->
<g id="edge23" class="edge">
<title>Node15&#45;&gt;Node22</title>
<path fill="none" stroke="#191970" d="M1052.3125,-134.3906C1034.3918,-124.3713 1006.0905,-108.5483 985.4477,-97.0071"/>
<polygon fill="#191970" stroke="#191970" points="987.0033,-93.867 976.5668,-92.0419 983.5872,-99.9769 987.0033,-93.867"/>
</g>
<!-- Node23 -->
<g id="node24" class="node">
<title>Node23</title>
<g id="a_node24"><a xlink:href="../../d2/dd0/Cartesian2D_8h.html" target="_top" xlink:title="MathUtils/Cartesian2D.h">
<polygon fill="none" stroke="#000000" points="1002,-73 1002,-92 1137,-92 1137,-73 1002,-73"/>
<text text-anchor="middle" x="1069.5" y="-80" font-family="Helvetica,sans-Serif" font-size="10.00" fill="#000000">MathUtils/Cartesian2D.h</text>
</a>
</g>
</g>
<!-- Node15&#45;&gt;Node23 -->
<g id="edge24" class="edge">
<title>Node15&#45;&gt;Node23</title>
<path fill="none" stroke="#191970" d="M1069.5,-134.3906C1069.5,-125.8657 1069.5,-113.1392 1069.5,-102.4235"/>
<polygon fill="#191970" stroke="#191970" points="1073.0001,-102.2448 1069.5,-92.2449 1066.0001,-102.2449 1073.0001,-102.2448"/>
</g>
<!-- Node24 -->
<g id="node25" class="node">
<title>Node24</title>
<polygon fill="none" stroke="#bfbfbf" points="889.5,-.5 889.5,-30.5 1053.5,-30.5 1053.5,-.5 889.5,-.5"/>
<text text-anchor="start" x="897.5" y="-18.5" font-family="Helvetica,sans-Serif" font-size="10.00" fill="#000000">Math/GenVector/Displacement</text>
<text text-anchor="middle" x="971.5" y="-7.5" font-family="Helvetica,sans-Serif" font-size="10.00" fill="#000000">Vector2D.h</text>
</g>
<!-- Node23&#45;&gt;Node24 -->
<g id="edge25" class="edge">
<title>Node23&#45;&gt;Node24</title>
<path fill="none" stroke="#191970" d="M1055.459,-72.9005C1041.5412,-63.3853 1019.772,-48.5023 1001.888,-36.2755"/>
<polygon fill="#191970" stroke="#191970" points="1003.7026,-33.2763 993.4721,-30.5218 999.7519,-39.0549 1003.7026,-33.2763"/>
</g>
<!-- Node25 -->
<g id="node26" class="node">
<title>Node25</title>
<polygon fill="none" stroke="#bfbfbf" points="1072,-6 1072,-25 1261,-25 1261,-6 1072,-6"/>
<text text-anchor="middle" x="1166.5" y="-13" font-family="Helvetica,sans-Serif" font-size="10.00" fill="#000000">Math/GenVector/PositionVector2D.h</text>
</g>
<!-- Node23&#45;&gt;Node25 -->
<g id="edge26" class="edge">
<title>Node23&#45;&gt;Node25</title>
<path fill="none" stroke="#191970" d="M1083.3977,-72.9005C1099.3164,-61.9052 1125.6121,-43.7422 1144.3599,-30.7927"/>
<polygon fill="#191970" stroke="#191970" points="1146.3892,-33.6448 1152.628,-25.0817 1142.4108,-27.8852 1146.3892,-33.6448"/>
</g>
<!-- Node27 -->
<g id="node28" class="node">
<title>Node27</title>
<g id="a_node28"><a xlink:href="../../de/d61/ShmManager_8h.html" target="_top" xlink:title="CommonUtils/ShmManager.h">
<polygon fill="none" stroke="#000000" points="242.5,-134.5 242.5,-153.5 400.5,-153.5 400.5,-134.5 242.5,-134.5"/>
<text text-anchor="middle" x="321.5" y="-141.5" font-family="Helvetica,sans-Serif" font-size="10.00" fill="#000000">CommonUtils/ShmManager.h</text>
</a>
</g>
</g>
<!-- Node26&#45;&gt;Node27 -->
<g id="edge28" class="edge">
<title>Node26&#45;&gt;Node27</title>
<path fill="none" stroke="#191970" d="M1182.1314,-195.9503C1168.9716,-193.692 1154.7328,-191.5056 1141.5,-190 876.8133,-159.8836 561.716,-149.2251 410.768,-145.664"/>
<polygon fill="#191970" stroke="#191970" points="410.7038,-142.1616 400.6256,-145.4296 410.542,-149.1598 410.7038,-142.1616"/>
</g>
<!-- Node32 -->
<g id="node33" class="node">
<title>Node32</title>
<polygon fill="none" stroke="#bfbfbf" points="1262.5,-134.5 1262.5,-153.5 1314.5,-153.5 1314.5,-134.5 1262.5,-134.5"/>
<text text-anchor="middle" x="1288.5" y="-141.5" font-family="Helvetica,sans-Serif" font-size="10.00" fill="#000000">cassert</text>
</g>
<!-- Node26&#45;&gt;Node32 -->
<g id="edge33" class="edge">
<title>Node26&#45;&gt;Node32</title>
<path fill="none" stroke="#191970" d="M1240.4063,-195.8906C1248.9728,-186.6478 1262.1169,-172.466 1272.5003,-161.2628"/>
<polygon fill="#191970" stroke="#191970" points="1275.2375,-163.4584 1279.4682,-153.7449 1270.1035,-158.7 1275.2375,-163.4584"/>
</g>
<!-- Node28 -->
<g id="node29" class="node">
<title>Node28</title>
<polygon fill="none" stroke="#bfbfbf" points="406.5,-73 406.5,-92 438.5,-92 438.5,-73 406.5,-73"/>
<text text-anchor="middle" x="422.5" y="-80" font-family="Helvetica,sans-Serif" font-size="10.00" fill="#000000">list</text>
</g>
<!-- Node27&#45;&gt;Node28 -->
<g id="edge29" class="edge">
<title>Node27&#45;&gt;Node28</title>
<path fill="none" stroke="#191970" d="M337.5432,-134.3577C352.9456,-125.0844 376.8522,-110.649 397.5,-98 397.7939,-97.8199 398.0898,-97.6386 398.3871,-97.4561"/>
<polygon fill="#191970" stroke="#191970" points="400.5045,-100.2625 407.1794,-92.0347 396.8305,-94.3041 400.5045,-100.2625"/>
</g>
<!-- Node29 -->
<g id="node30" class="node">
<title>Node29</title>
<polygon fill="none" stroke="#bfbfbf" points="183,-73 183,-92 236,-92 236,-73 183,-73"/>
<text text-anchor="middle" x="209.5" y="-80" font-family="Helvetica,sans-Serif" font-size="10.00" fill="#000000">cstddef</text>
</g>
<!-- Node27&#45;&gt;Node29 -->
<g id="edge30" class="edge">
<title>Node27&#45;&gt;Node29</title>
<path fill="none" stroke="#191970" d="M304,-134.3906C285.7535,-124.3713 256.9376,-108.5483 235.9194,-97.0071"/>
<polygon fill="#191970" stroke="#191970" points="237.3272,-93.7872 226.8771,-92.0419 233.958,-99.923 237.3272,-93.7872"/>
</g>
<!-- Node30 -->
<g id="node31" class="node">
<title>Node30</title>
<polygon fill="none" stroke="#bfbfbf" points="0,-67.5 0,-97.5 165,-97.5 165,-67.5 0,-67.5"/>
<text text-anchor="start" x="8" y="-85.5" font-family="Helvetica,sans-Serif" font-size="10.00" fill="#000000">boost/interprocess</text>
<text text-anchor="middle" x="82.5" y="-74.5" font-family="Helvetica,sans-Serif" font-size="10.00" fill="#000000">/managed_external_buffer.hpp</text>
</g>
<!-- Node27&#45;&gt;Node30 -->
<g id="edge31" class="edge">
<title>Node27&#45;&gt;Node30</title>
<path fill="none" stroke="#191970" d="M284.4185,-134.4581C248.8998,-125.3183 194.4407,-111.3048 151.0273,-100.1336"/>
<polygon fill="#191970" stroke="#191970" points="151.6542,-96.681 141.0974,-97.5784 149.9097,-103.4601 151.6542,-96.681"/>
</g>
<!-- Node31 -->
<g id="node32" class="node">
<title>Node31</title>
<polygon fill="none" stroke="#bfbfbf" points="254.5,-67.5 254.5,-97.5 388.5,-97.5 388.5,-67.5 254.5,-67.5"/>
<text text-anchor="start" x="262.5" y="-85.5" font-family="Helvetica,sans-Serif" font-size="10.00" fill="#000000">boost/interprocess</text>
<text text-anchor="middle" x="321.5" y="-74.5" font-family="Helvetica,sans-Serif" font-size="10.00" fill="#000000">/allocators/allocator.hpp</text>
</g>
<!-- Node27&#45;&gt;Node31 -->
<g id="edge32" class="edge">
<title>Node27&#45;&gt;Node31</title>
<path fill="none" stroke="#191970" d="M321.5,-134.3906C321.5,-127.2234 321.5,-117.0862 321.5,-107.671"/>
<polygon fill="#191970" stroke="#191970" points="325.0001,-107.5446 321.5,-97.5446 318.0001,-107.5446 325.0001,-107.5446"/>
</g>
<!-- Node33&#45;&gt;Node4 -->
<g id="edge35" class="edge">
<title>Node33&#45;&gt;Node4</title>
<path fill="none" stroke="#191970" d="M1383.3808,-257.2402C1365.665,-240.406 1343.2744,-212.6938 1357.5,-190 1367.1819,-174.5548 1383.6838,-164.1672 1400.2437,-157.2389"/>
<polygon fill="#191970" stroke="#191970" points="1401.8471,-160.3737 1409.9495,-153.5472 1399.3585,-153.831 1401.8471,-160.3737"/>
</g>
<!-- Node34&#45;&gt;Node4 -->
<g id="edge37" class="edge">
<title>Node34&#45;&gt;Node4</title>
<path fill="none" stroke="#191970" d="M1639.8324,-190.4554C1597.001,-179.8339 1540.3891,-165.7951 1500.6517,-155.9408"/>
<polygon fill="#191970" stroke="#191970" points="1501.4797,-152.5402 1490.9312,-153.5303 1499.7948,-159.3344 1501.4797,-152.5402"/>
</g>
<!-- Node34&#45;&gt;Node32 -->
<g id="edge39" class="edge">
<title>Node34&#45;&gt;Node32</title>
<path fill="none" stroke="#191970" d="M1636.8527,-191.6948C1633.6943,-191.1011 1630.5636,-190.5323 1627.5,-190 1517.6967,-170.9202 1386.7278,-155.0965 1324.6154,-148.0065"/>
<polygon fill="#191970" stroke="#191970" points="1324.875,-144.5136 1314.5444,-146.8648 1324.0864,-151.4691 1324.875,-144.5136"/>
</g>
<!-- Node35 -->
<g id="node36" class="node">
<title>Node35</title>
<polygon fill="none" stroke="#bfbfbf" points="1675.5,-134.5 1675.5,-153.5 1725.5,-153.5 1725.5,-134.5 1675.5,-134.5"/>
<text text-anchor="middle" x="1700.5" y="-141.5" font-family="Helvetica,sans-Serif" font-size="10.00" fill="#000000">cstdint</text>
</g>
<!-- Node34&#45;&gt;Node35 -->
<g id="edge38" class="edge">
<title>Node34&#45;&gt;Node35</title>
<path fill="none" stroke="#191970" d="M1700.5,-190.2977C1700.5,-182.3834 1700.5,-172.6043 1700.5,-164.0759"/>
<polygon fill="#191970" stroke="#191970" points="1704.0001,-163.8469 1700.5,-153.8469 1697.0001,-163.847 1704.0001,-163.8469"/>
</g>
<!-- Node36 -->
<g id="node37" class="node">
<title>Node36</title>
<polygon fill="none" stroke="#bfbfbf" points="1744,-134.5 1744,-153.5 1809,-153.5 1809,-134.5 1744,-134.5"/>
<text text-anchor="middle" x="1776.5" y="-141.5" font-family="Helvetica,sans-Serif" font-size="10.00" fill="#000000">stdexcept</text>
</g>
<!-- Node34&#45;&gt;Node36 -->
<g id="edge40" class="edge">
<title>Node34&#45;&gt;Node36</title>
<path fill="none" stroke="#191970" d="M1719.2865,-190.2977C1730.6053,-181.1384 1745.0105,-169.4816 1756.5346,-160.1562"/>
<polygon fill="#191970" stroke="#191970" points="1758.7595,-162.8583 1764.3314,-153.8469 1754.3561,-157.4167 1758.7595,-162.8583"/>
</g>
<!-- Node37 -->
<g id="node38" class="node">
<title>Node37</title>
<polygon fill="none" stroke="#bfbfbf" points="1827.5,-134.5 1827.5,-153.5 1875.5,-153.5 1875.5,-134.5 1827.5,-134.5"/>
<text text-anchor="middle" x="1851.5" y="-141.5" font-family="Helvetica,sans-Serif" font-size="10.00" fill="#000000">gsl/gsl</text>
</g>
<!-- Node34&#45;&gt;Node37 -->
<g id="edge41" class="edge">
<title>Node34&#45;&gt;Node37</title>
<path fill="none" stroke="#191970" d="M1737.4388,-190.4554C1762.302,-180.329 1794.7918,-167.0964 1818.7336,-157.3453"/>
<polygon fill="#191970" stroke="#191970" points="1820.1593,-160.5438 1828.1004,-153.5303 1817.5188,-154.0609 1820.1593,-160.5438"/>
</g>
<!-- Node38 -->
<g id="node39" class="node">
<title>Node38</title>
<polygon fill="none" stroke="#bfbfbf" points="1894,-134.5 1894,-153.5 1963,-153.5 1963,-134.5 1894,-134.5"/>
<text text-anchor="middle" x="1928.5" y="-141.5" font-family="Helvetica,sans-Serif" font-size="10.00" fill="#000000">type_traits</text>
</g>
<!-- Node34&#45;&gt;Node38 -->
<g id="edge42" class="edge">
<title>Node34&#45;&gt;Node38</title>
<path fill="none" stroke="#191970" d="M1756.2751,-190.4554C1795.5596,-179.8589 1847.4537,-165.8612 1883.9732,-156.0105"/>
<polygon fill="#191970" stroke="#191970" points="1885.0993,-159.332 1893.8427,-153.3484 1883.2762,-152.5735 1885.0993,-159.332"/>
</g>
<!-- Node39 -->
<g id="node40" class="node">
<title>Node39</title>
<polygon fill="none" stroke="#bfbfbf" points="1981.5,-134.5 1981.5,-153.5 2031.5,-153.5 2031.5,-134.5 1981.5,-134.5"/>
<text text-anchor="middle" x="2006.5" y="-141.5" font-family="Helvetica,sans-Serif" font-size="10.00" fill="#000000">cstring</text>
</g>
<!-- Node34&#45;&gt;Node39 -->
<g id="edge43" class="edge">
<title>Node34&#45;&gt;Node39</title>
<path fill="none" stroke="#191970" d="M1764.1787,-191.8642C1767.3288,-191.2257 1770.4492,-190.6011 1773.5,-190 1861.2556,-172.7096 1884.3938,-174.3105 1971.5,-154 1971.6,-153.9767 1971.7002,-153.9533 1971.8004,-153.9297"/>
<polygon fill="#191970" stroke="#191970" points="1972.5105,-157.3606 1981.3423,-151.5083 1970.7886,-150.5756 1972.5105,-157.3606"/>
</g>
<!-- Node40 -->
<g id="node41" class="node">
<title>Node40</title>
<polygon fill="none" stroke="#bfbfbf" points="1533.5,-134.5 1533.5,-153.5 1591.5,-153.5 1591.5,-134.5 1533.5,-134.5"/>
<text text-anchor="middle" x="1562.5" y="-141.5" font-family="Helvetica,sans-Serif" font-size="10.00" fill="#000000">memory</text>
</g>
<!-- Node34&#45;&gt;Node40 -->
<g id="edge44" class="edge">
<title>Node34&#45;&gt;Node40</title>
<path fill="none" stroke="#191970" d="M1666.7414,-190.4554C1644.2207,-180.419 1614.8533,-167.3314 1593.0308,-157.6061"/>
<polygon fill="#191970" stroke="#191970" points="1594.4439,-154.4041 1583.8851,-153.5303 1591.5944,-160.7979 1594.4439,-154.4041"/>
</g>
<!-- Node41 -->
<g id="node42" class="node">
<title>Node41</title>
<polygon fill="none" stroke="#bfbfbf" points="1610,-134.5 1610,-153.5 1657,-153.5 1657,-134.5 1610,-134.5"/>
<text text-anchor="middle" x="1633.5" y="-141.5" font-family="Helvetica,sans-Serif" font-size="10.00" fill="#000000">vector</text>
</g>
<!-- Node34&#45;&gt;Node41 -->
<g id="edge45" class="edge">
<title>Node34&#45;&gt;Node41</title>
<path fill="none" stroke="#191970" d="M1683.9382,-190.2977C1674.1535,-181.3163 1661.7526,-169.9334 1651.6957,-160.702"/>
<polygon fill="#191970" stroke="#191970" points="1653.9613,-158.0307 1644.2275,-153.8469 1649.2278,-163.1876 1653.9613,-158.0307"/>
</g>
</g>
</svg>
        <g id="navigator" transform="translate(0 0)" fill="#404254">
                <rect fill="#f2f5e9" fill-opacity="0.5" stroke="#606060" stroke-width=".5" x="0" y="0" width="60" height="60"/>
                <use id="zoomplus" xlink:href="#zoomPlus" x="17" y="9" onmousedown="handleZoom(evt,'in')"/>
                <use id="zoomminus" xlink:href="#zoomMin" x="42" y="9" onmousedown="handleZoom(evt,'out')"/>
                <use id="reset" xlink:href="#resetDef" x="30" y="36" onmousedown="handleReset()"/>
                <g id="arrowUp" xlink:href="#dirArrow" transform="translate(30 24)" onmousedown="handlePan(0,-1)">
                  <use xlink:href="#rim" fill="#404040">
                        <set attributeName="fill" to="#808080" begin="arrowUp.mouseover" end="arrowUp.mouseout"/>
                  </use>
                  <path fill="none" stroke="white" stroke-width="1.5" d="M0,-3.0v7 M-2.5,-0.5L0,-3.0L2.5,-0.5"/>
                </g>
                <g id="arrowRight" xlink:href="#dirArrow" transform="rotate(90) translate(36 -43)" onmousedown="handlePan(1,0)">
                  <use xlink:href="#rim" fill="#404040">
                        <set attributeName="fill" to="#808080" begin="arrowRight.mouseover" end="arrowRight.mouseout"/>
                  </use>
                  <path fill="none" stroke="white" stroke-width="1.5" d="M0,-3.0v7 M-2.5,-0.5L0,-3.0L2.5,-0.5"/>
                </g>
                <g id="arrowDown" xlink:href="#dirArrow" transform="rotate(180) translate(-30 -48)" onmousedown="handlePan(0,1)">
                  <use xlink:href="#rim" fill="#404040">
                        <set attributeName="fill" to="#808080" begin="arrowDown.mouseover" end="arrowDown.mouseout"/>
                  </use>
                  <path fill="none" stroke="white" stroke-width="1.5" d="M0,-3.0v7 M-2.5,-0.5L0,-3.0L2.5,-0.5"/>
                </g>
                <g id="arrowLeft" xlink:href="#dirArrow" transform="rotate(270) translate(-36 17)" onmousedown="handlePan(-1,0)">
                  <use xlink:href="#rim" fill="#404040">
                        <set attributeName="fill" to="#808080" begin="arrowLeft.mouseover" end="arrowLeft.mouseout"/>
                  </use>
                  <path fill="none" stroke="white" stroke-width="1.5" d="M0,-3.0v7 M-2.5,-0.5L0,-3.0L2.5,-0.5"/>
                </g>
        </g>
        <svg viewBox="0 0 15 15" width="100%" height="30px" preserveAspectRatio="xMaxYMin meet">
         <g id="arrow_out" transform="scale(0.3 0.3)">
          <a xlink:href="CPV_2simulation_2include_2CPVSimulation_2Digitizer_8h__incl_org.svg" target="_base">
           <rect id="button" ry="5" rx="5" y="6" x="6" height="38" width="38"
                fill="#f2f5e9" fill-opacity="0.5" stroke="#606060" stroke-width="1.0"/>
           <path id="arrow"
             d="M 11.500037,31.436501 C 11.940474,20.09759 22.043105,11.32322 32.158766,21.979434 L 37.068811,17.246167 C 37.068811,17.246167 37.088388,32 37.088388,32 L 22.160133,31.978069 C 22.160133,31.978069 26.997745,27.140456 26.997745,27.140456 C 18.528582,18.264221 13.291696,25.230495 11.500037,31.436501 z"
             style="fill:#404040;"/>
          </a>
         </g>
        </svg>
</svg>
