<?xml version="1.0" encoding="UTF-8" standalone="no"?>
<!DOCTYPE svg PUBLIC "-//W3C//DTD SVG 1.1//EN"
 "http://www.w3.org/Graphics/SVG/1.1/DTD/svg11.dtd">
<!-- Generated by graphviz version 2.40.1 (20161225.0304)
 -->
<!-- Title: /home/travis/build/AliceO2Group/AliceO2/Framework/Core/src/Kernels.cxx Pages: 1 -->
<svg width="2514pt" height="330pt"
 viewBox="0.00 0.00 2513.50 330.00" xmlns="http://www.w3.org/2000/svg" xmlns:xlink="http://www.w3.org/1999/xlink">
<g id="graph0" class="graph" transform="scale(1 1) rotate(0) translate(4 326)">
<title>/home/travis/build/AliceO2Group/AliceO2/Framework/Core/src/Kernels.cxx</title>
<!-- Node0 -->
<g id="node1" class="node">
<title>Node0</title>
<polygon fill="#bfbfbf" stroke="#000000" points="2036.5,-280.5 2036.5,-321.5 2212.5,-321.5 2212.5,-280.5 2036.5,-280.5"/>
<text text-anchor="start" x="2044.5" y="-309.5" font-family="Helvetica,sans-Serif" font-size="10.00" fill="#000000">/home/travis/build</text>
<text text-anchor="start" x="2044.5" y="-298.5" font-family="Helvetica,sans-Serif" font-size="10.00" fill="#000000">/AliceO2Group/AliceO2</text>
<text text-anchor="middle" x="2124.5" y="-287.5" font-family="Helvetica,sans-Serif" font-size="10.00" fill="#000000">/Framework/Core/src/Kernels.cxx</text>
</g>
<!-- Node1 -->
<g id="node2" class="node">
<title>Node1</title>
<g id="a_node2"><a xlink:href="../../d0/d92/Kernels_8h.html" target="_top" xlink:title="Framework/Kernels.h">
<polygon fill="none" stroke="#000000" points="543,-112.5 543,-131.5 662,-131.5 662,-112.5 543,-112.5"/>
<text text-anchor="middle" x="602.5" y="-119.5" font-family="Helvetica,sans-Serif" font-size="10.00" fill="#000000">Framework/Kernels.h</text>
</a>
</g>
</g>
<!-- Node0&#45;&gt;Node1 -->
<g id="edge1" class="edge">
<title>Node0&#45;&gt;Node1</title>
<path fill="none" stroke="#191970" d="M2036.3046,-298.079C1861.7429,-291.8332 1459.9674,-275.1483 1123.5,-244 928.9622,-225.9908 867.9017,-262.9967 687.5,-188 660.4686,-176.7625 634.6844,-154.5563 618.7471,-139.0181"/>
<polygon fill="#191970" stroke="#191970" points="620.8917,-136.2115 611.356,-131.5939 615.9309,-141.1502 620.8917,-136.2115"/>
</g>
<!-- Node4 -->
<g id="node5" class="node">
<title>Node4</title>
<polygon fill="none" stroke="#bfbfbf" points="87.5,-56.5 87.5,-75.5 173.5,-75.5 173.5,-56.5 87.5,-56.5"/>
<text text-anchor="middle" x="130.5" y="-63.5" font-family="Helvetica,sans-Serif" font-size="10.00" fill="#000000">arrow/status.h</text>
</g>
<!-- Node0&#45;&gt;Node4 -->
<g id="edge63" class="edge">
<title>Node0&#45;&gt;Node4</title>
<path fill="none" stroke="#191970" d="M2036.4403,-300.2252C1813.5623,-297.6633 1209.1538,-286.9735 707.5,-244 517.2346,-227.7012 457.0035,-263.2667 281.5,-188 224.2364,-163.4419 170.9302,-110.7277 145.73,-83.332"/>
<polygon fill="#191970" stroke="#191970" points="148.1386,-80.7769 138.8384,-75.7019 142.9439,-85.469 148.1386,-80.7769"/>
</g>
<!-- Node6 -->
<g id="node7" class="node">
<title>Node6</title>
<polygon fill="none" stroke="#bfbfbf" points="191.5,-56.5 191.5,-75.5 301.5,-75.5 301.5,-56.5 191.5,-56.5"/>
<text text-anchor="middle" x="246.5" y="-63.5" font-family="Helvetica,sans-Serif" font-size="10.00" fill="#000000">arrow/util/variant.h</text>
</g>
<!-- Node0&#45;&gt;Node6 -->
<g id="edge65" class="edge">
<title>Node0&#45;&gt;Node6</title>
<path fill="none" stroke="#191970" d="M2036.3502,-298.7882C1759.2839,-291.6176 917.2221,-268.0799 796.5,-244 654.4744,-215.6707 621.04,-194.7148 490.5,-132 475.0414,-124.5733 473.4282,-118.3574 457.5,-112 431.1393,-101.4786 362.1539,-87.3122 310.1836,-77.4926"/>
<polygon fill="#191970" stroke="#191970" points="310.508,-73.9925 300.0341,-75.589 309.2175,-80.8725 310.508,-73.9925"/>
</g>
<!-- Node8 -->
<g id="node9" class="node">
<title>Node8</title>
<g id="a_node9"><a xlink:href="../../d5/d98/TableBuilder_8h.html" target="_top" xlink:title="Framework/TableBuilder.h">
<polygon fill="none" stroke="#000000" points="1132.5,-224.5 1132.5,-243.5 1274.5,-243.5 1274.5,-224.5 1132.5,-224.5"/>
<text text-anchor="middle" x="1203.5" y="-231.5" font-family="Helvetica,sans-Serif" font-size="10.00" fill="#000000">Framework/TableBuilder.h</text>
</a>
</g>
</g>
<!-- Node0&#45;&gt;Node8 -->
<g id="edge8" class="edge">
<title>Node0&#45;&gt;Node8</title>
<path fill="none" stroke="#191970" d="M2036.1906,-294.5758C1857.8495,-281.602 1457.0606,-252.4458 1284.7615,-239.9115"/>
<polygon fill="#191970" stroke="#191970" points="1284.9679,-236.4174 1274.7403,-239.1825 1284.46,-243.3989 1284.9679,-236.4174"/>
</g>
<!-- Node27 -->
<g id="node28" class="node">
<title>Node27</title>
<polygon fill="none" stroke="#bfbfbf" points="2030.5,-56.5 2030.5,-75.5 2088.5,-75.5 2088.5,-56.5 2030.5,-56.5"/>
<text text-anchor="middle" x="2059.5" y="-63.5" font-family="Helvetica,sans-Serif" font-size="10.00" fill="#000000">memory</text>
</g>
<!-- Node0&#45;&gt;Node27 -->
<g id="edge66" class="edge">
<title>Node0&#45;&gt;Node27</title>
<path fill="none" stroke="#191970" d="M2143.5295,-280.4756C2165.521,-254.137 2196.5151,-207.1689 2178.5,-168 2159.9299,-127.6245 2116.6187,-97.2504 2087.6938,-80.55"/>
<polygon fill="#191970" stroke="#191970" points="2089.2947,-77.4352 2078.8577,-75.613 2085.8803,-83.5461 2089.2947,-77.4352"/>
</g>
<!-- Node38 -->
<g id="node39" class="node">
<title>Node38</title>
<polygon fill="none" stroke="#bfbfbf" points="2080,-168.5 2080,-187.5 2169,-187.5 2169,-168.5 2080,-168.5"/>
<text text-anchor="middle" x="2124.5" y="-175.5" font-family="Helvetica,sans-Serif" font-size="10.00" fill="#000000">arrow/builder.h</text>
</g>
<!-- Node0&#45;&gt;Node38 -->
<g id="edge62" class="edge">
<title>Node0&#45;&gt;Node38</title>
<path fill="none" stroke="#191970" d="M2124.5,-280.4126C2124.5,-257.3618 2124.5,-220.2774 2124.5,-197.6259"/>
<polygon fill="#191970" stroke="#191970" points="2128.0001,-197.5181 2124.5,-187.5182 2121.0001,-197.5182 2128.0001,-197.5181"/>
</g>
<!-- Node40 -->
<g id="node41" class="node">
<title>Node40</title>
<g id="a_node41"><a xlink:href="../../df/d1f/ArrowDebugHelpers_8h.html" target="_top" xlink:title="ArrowDebugHelpers.h">
<polygon fill="none" stroke="#000000" points="2208,-224.5 2208,-243.5 2331,-243.5 2331,-224.5 2208,-224.5"/>
<text text-anchor="middle" x="2269.5" y="-231.5" font-family="Helvetica,sans-Serif" font-size="10.00" fill="#000000">ArrowDebugHelpers.h</text>
</a>
</g>
</g>
<!-- Node0&#45;&gt;Node40 -->
<g id="edge61" class="edge">
<title>Node0&#45;&gt;Node40</title>
<path fill="none" stroke="#191970" d="M2169.1879,-280.3511C2192.0315,-269.7958 2219.2171,-257.2342 2239.5212,-247.8523"/>
<polygon fill="#191970" stroke="#191970" points="2240.996,-251.0265 2248.6056,-243.6546 2238.0598,-244.672 2240.996,-251.0265"/>
</g>
<!-- Node41 -->
<g id="node42" class="node">
<title>Node41</title>
<polygon fill="none" stroke="#bfbfbf" points="2349.5,-224.5 2349.5,-243.5 2427.5,-243.5 2427.5,-224.5 2349.5,-224.5"/>
<text text-anchor="middle" x="2388.5" y="-231.5" font-family="Helvetica,sans-Serif" font-size="10.00" fill="#000000">arrow/type.h</text>
</g>
<!-- Node0&#45;&gt;Node41 -->
<g id="edge64" class="edge">
<title>Node0&#45;&gt;Node41</title>
<path fill="none" stroke="#191970" d="M2205.5028,-280.4425C2250.0266,-269.1429 2303.6976,-255.5218 2341.3641,-245.9625"/>
<polygon fill="#191970" stroke="#191970" points="2342.2288,-249.3541 2351.0605,-243.5017 2340.5068,-242.5692 2342.2288,-249.3541"/>
</g>
<!-- Node42 -->
<g id="node43" class="node">
<title>Node42</title>
<polygon fill="none" stroke="#bfbfbf" points="2445.5,-224.5 2445.5,-243.5 2505.5,-243.5 2505.5,-224.5 2445.5,-224.5"/>
<text text-anchor="middle" x="2475.5" y="-231.5" font-family="Helvetica,sans-Serif" font-size="10.00" fill="#000000">iostream</text>
</g>
<!-- Node0&#45;&gt;Node42 -->
<g id="edge67" class="edge">
<title>Node0&#45;&gt;Node42</title>
<path fill="none" stroke="#191970" d="M2212.5809,-286.609C2272.8089,-276.3708 2354.6458,-261.6827 2435.4667,-244.1188"/>
<polygon fill="#191970" stroke="#191970" points="2436.2962,-247.5202 2445.3164,-241.9627 2434.7992,-240.6821 2436.2962,-247.5202"/>
</g>
<!-- Node2 -->
<g id="node3" class="node">
<title>Node2</title>
<g id="a_node3"><a xlink:href="../../dd/dc2/BasicOps_8h.html" target="_top" xlink:title="Framework/BasicOps.h">
<polygon fill="none" stroke="#000000" points="667.5,-56.5 667.5,-75.5 795.5,-75.5 795.5,-56.5 667.5,-56.5"/>
<text text-anchor="middle" x="731.5" y="-63.5" font-family="Helvetica,sans-Serif" font-size="10.00" fill="#000000">Framework/BasicOps.h</text>
</a>
</g>
</g>
<!-- Node1&#45;&gt;Node2 -->
<g id="edge2" class="edge">
<title>Node1&#45;&gt;Node2</title>
<path fill="none" stroke="#191970" d="M624.6759,-112.3733C645.4766,-103.3435 676.7917,-89.7494 700.1458,-79.6111"/>
<polygon fill="#191970" stroke="#191970" points="701.8343,-82.6938 709.6135,-75.5011 699.0468,-76.2727 701.8343,-82.6938"/>
</g>
<!-- Node3 -->
<g id="node4" class="node">
<title>Node3</title>
<polygon fill="none" stroke="#bfbfbf" points="454,-56.5 454,-75.5 587,-75.5 587,-56.5 454,-56.5"/>
<text text-anchor="middle" x="520.5" y="-63.5" font-family="Helvetica,sans-Serif" font-size="10.00" fill="#000000">arrow/compute/kernel.h</text>
</g>
<!-- Node1&#45;&gt;Node3 -->
<g id="edge3" class="edge">
<title>Node1&#45;&gt;Node3</title>
<path fill="none" stroke="#191970" d="M588.2167,-112.2455C575.753,-103.7337 557.4549,-91.2375 543.0208,-81.3801"/>
<polygon fill="#191970" stroke="#191970" points="544.8515,-78.392 534.6196,-75.6427 540.9038,-84.1726 544.8515,-78.392"/>
</g>
<!-- Node1&#45;&gt;Node4 -->
<g id="edge4" class="edge">
<title>Node1&#45;&gt;Node4</title>
<path fill="none" stroke="#191970" d="M542.8359,-116.9966C463.2234,-109.9801 317.6677,-95.9668 183.6245,-76.0685"/>
<polygon fill="#191970" stroke="#191970" points="183.9924,-72.5847 173.584,-74.5636 182.9547,-79.5073 183.9924,-72.5847"/>
</g>
<!-- Node5 -->
<g id="node6" class="node">
<title>Node5</title>
<polygon fill="none" stroke="#bfbfbf" points="319.5,-56.5 319.5,-75.5 435.5,-75.5 435.5,-56.5 319.5,-56.5"/>
<text text-anchor="middle" x="377.5" y="-63.5" font-family="Helvetica,sans-Serif" font-size="10.00" fill="#000000">arrow/util/visibility.h</text>
</g>
<!-- Node1&#45;&gt;Node5 -->
<g id="edge5" class="edge">
<title>Node1&#45;&gt;Node5</title>
<path fill="none" stroke="#191970" d="M564.0768,-112.4369C525.8125,-102.9133 466.9663,-88.2672 425.6151,-77.9753"/>
<polygon fill="#191970" stroke="#191970" points="426.3141,-74.5426 415.7647,-75.5237 424.6234,-81.3353 426.3141,-74.5426"/>
</g>
<!-- Node1&#45;&gt;Node6 -->
<g id="edge6" class="edge">
<title>Node1&#45;&gt;Node6</title>
<path fill="none" stroke="#191970" d="M542.9136,-112.6269C479.0321,-102.5781 377.911,-86.6714 311.8796,-76.2844"/>
<polygon fill="#191970" stroke="#191970" points="312.0167,-72.763 301.5943,-74.6665 310.9289,-79.678 312.0167,-72.763"/>
</g>
<!-- Node7 -->
<g id="node8" class="node">
<title>Node7</title>
<polygon fill="none" stroke="#bfbfbf" points="605.5,-56.5 605.5,-75.5 649.5,-75.5 649.5,-56.5 605.5,-56.5"/>
<text text-anchor="middle" x="627.5" y="-63.5" font-family="Helvetica,sans-Serif" font-size="10.00" fill="#000000">string</text>
</g>
<!-- Node1&#45;&gt;Node7 -->
<g id="edge7" class="edge">
<title>Node1&#45;&gt;Node7</title>
<path fill="none" stroke="#191970" d="M606.8547,-112.2455C610.2244,-104.6973 614.993,-94.0158 619.0983,-84.8197"/>
<polygon fill="#191970" stroke="#191970" points="622.3147,-86.2009 623.1952,-75.6427 615.9227,-83.3473 622.3147,-86.2009"/>
</g>
<!-- Node8&#45;&gt;Node7 -->
<g id="edge58" class="edge">
<title>Node8&#45;&gt;Node7</title>
<path fill="none" stroke="#191970" d="M1132.3758,-231.1257C1004.2223,-225.3991 744.6297,-211.0926 710.5,-188 679.0559,-166.7245 693.5176,-142.9291 671.5,-112 664.0415,-101.5227 654.2714,-91.0651 645.8327,-82.7746"/>
<polygon fill="#191970" stroke="#191970" points="648.2112,-80.2063 638.5617,-75.8316 643.3769,-85.269 648.2112,-80.2063"/>
</g>
<!-- Node9 -->
<g id="node10" class="node">
<title>Node9</title>
<g id="a_node10"><a xlink:href="../../de/d33/ASoA_8h.html" target="_top" xlink:title="Framework/ASoA.h">
<polygon fill="none" stroke="#000000" points="1245.5,-168.5 1245.5,-187.5 1353.5,-187.5 1353.5,-168.5 1245.5,-168.5"/>
<text text-anchor="middle" x="1299.5" y="-175.5" font-family="Helvetica,sans-Serif" font-size="10.00" fill="#000000">Framework/ASoA.h</text>
</a>
</g>
</g>
<!-- Node8&#45;&gt;Node9 -->
<g id="edge9" class="edge">
<title>Node8&#45;&gt;Node9</title>
<path fill="none" stroke="#191970" d="M1220.2219,-224.2455C1235.0889,-215.5731 1257.0466,-202.7645 1274.0858,-192.825"/>
<polygon fill="#191970" stroke="#191970" points="1276.0955,-195.7047 1282.9697,-187.6427 1272.5683,-189.6582 1276.0955,-195.7047"/>
</g>
<!-- Node15 -->
<g id="node16" class="node">
<title>Node15</title>
<g id="a_node16"><a xlink:href="../../de/d9b/FunctionalHelpers_8h.html" target="_top" xlink:title="Framework/FunctionalHelpers.h">
<polygon fill="none" stroke="#000000" points="1777.5,-112.5 1777.5,-131.5 1947.5,-131.5 1947.5,-112.5 1777.5,-112.5"/>
<text text-anchor="middle" x="1862.5" y="-119.5" font-family="Helvetica,sans-Serif" font-size="10.00" fill="#000000">Framework/FunctionalHelpers.h</text>
</a>
</g>
</g>
<!-- Node8&#45;&gt;Node15 -->
<g id="edge48" class="edge">
<title>Node8&#45;&gt;Node15</title>
<path fill="none" stroke="#191970" d="M1259.4017,-224.4993C1380.4371,-203.9288 1666.2874,-155.3472 1796.1898,-133.2697"/>
<polygon fill="#191970" stroke="#191970" points="1797.1219,-136.6616 1806.394,-131.5355 1795.949,-129.7605 1797.1219,-136.6616"/>
</g>
<!-- Node16 -->
<g id="node17" class="node">
<title>Node16</title>
<polygon fill="none" stroke="#bfbfbf" points="1947,-56.5 1947,-75.5 2012,-75.5 2012,-56.5 1947,-56.5"/>
<text text-anchor="middle" x="1979.5" y="-63.5" font-family="Helvetica,sans-Serif" font-size="10.00" fill="#000000">functional</text>
</g>
<!-- Node8&#45;&gt;Node16 -->
<g id="edge56" class="edge">
<title>Node8&#45;&gt;Node16</title>
<path fill="none" stroke="#191970" d="M1274.6495,-230.7986C1411.4903,-224.2739 1706.639,-208.3207 1806.5,-188 1882.7991,-172.4739 1923.8103,-192.7612 1972.5,-132 1982.7339,-119.2288 1983.7668,-100.3131 1982.6581,-86.0021"/>
<polygon fill="#191970" stroke="#191970" points="1986.0924,-85.2385 1981.4447,-75.7175 1979.1406,-86.0587 1986.0924,-85.2385"/>
</g>
<!-- Node22 -->
<g id="node23" class="node">
<title>Node22</title>
<polygon fill="none" stroke="#bfbfbf" points="1848,-56.5 1848,-75.5 1929,-75.5 1929,-56.5 1848,-56.5"/>
<text text-anchor="middle" x="1888.5" y="-63.5" font-family="Helvetica,sans-Serif" font-size="10.00" fill="#000000">arrow/table.h</text>
</g>
<!-- Node8&#45;&gt;Node22 -->
<g id="edge54" class="edge">
<title>Node8&#45;&gt;Node22</title>
<path fill="none" stroke="#191970" d="M1274.6431,-229.6197C1453.6981,-217.8735 1911.9361,-183.0644 1956.5,-132 1973.0943,-112.9851 1945.384,-93.0598 1920.5077,-80.143"/>
<polygon fill="#191970" stroke="#191970" points="1921.7267,-76.8415 1911.2106,-75.5521 1918.6273,-83.118 1921.7267,-76.8415"/>
</g>
<!-- Node8&#45;&gt;Node27 -->
<g id="edge59" class="edge">
<title>Node8&#45;&gt;Node27</title>
<path fill="none" stroke="#191970" d="M1274.6939,-232.7658C1424.5736,-229.5812 1768.078,-219.0372 1880.5,-188 1933.3814,-173.4006 1945.7567,-163.7429 1990.5,-132 2010.6174,-117.7278 2030.6596,-97.7494 2043.9176,-83.5198"/>
<polygon fill="#191970" stroke="#191970" points="2046.7259,-85.6352 2050.889,-75.8926 2041.559,-80.9125 2046.7259,-85.6352"/>
</g>
<!-- Node32 -->
<g id="node33" class="node">
<title>Node32</title>
<g id="a_node33"><a xlink:href="../../db/d4f/StructToTuple_8h.html" target="_top" xlink:title="Framework/StructToTuple.h">
<polygon fill="none" stroke="#000000" points="291,-168.5 291,-187.5 438,-187.5 438,-168.5 291,-168.5"/>
<text text-anchor="middle" x="364.5" y="-175.5" font-family="Helvetica,sans-Serif" font-size="10.00" fill="#000000">Framework/StructToTuple.h</text>
</a>
</g>
</g>
<!-- Node8&#45;&gt;Node32 -->
<g id="edge44" class="edge">
<title>Node8&#45;&gt;Node32</title>
<path fill="none" stroke="#191970" d="M1132.3293,-229.2496C977.985,-218.9477 613.129,-194.595 448.1217,-183.5814"/>
<polygon fill="#191970" stroke="#191970" points="448.2348,-180.0813 438.0239,-182.9074 447.7686,-187.0657 448.2348,-180.0813"/>
</g>
<!-- Node33 -->
<g id="node34" class="node">
<title>Node33</title>
<polygon fill="none" stroke="#bfbfbf" points="280,-112.5 280,-131.5 321,-131.5 321,-112.5 280,-112.5"/>
<text text-anchor="middle" x="300.5" y="-119.5" font-family="Helvetica,sans-Serif" font-size="10.00" fill="#000000">tuple</text>
</g>
<!-- Node8&#45;&gt;Node33 -->
<g id="edge60" class="edge">
<title>Node8&#45;&gt;Node33</title>
<path fill="none" stroke="#191970" d="M1132.1497,-229.4404C1030.6776,-222.577 838.9543,-208.209 676.5,-188 525.0829,-169.164 483.4674,-169.1869 330.7682,-131.7307"/>
<polygon fill="#191970" stroke="#191970" points="331.5761,-128.3251 321.0288,-129.3282 329.8995,-135.1214 331.5761,-128.3251"/>
</g>
<!-- Node34 -->
<g id="node35" class="node">
<title>Node34</title>
<g id="a_node35"><a xlink:href="../../d7/dbe/VariantHelpers_8h.html" target="_top" xlink:title="Framework/VariantHelpers.h">
<polygon fill="none" stroke="#000000" points="719,-168.5 719,-187.5 874,-187.5 874,-168.5 719,-168.5"/>
<text text-anchor="middle" x="796.5" y="-175.5" font-family="Helvetica,sans-Serif" font-size="10.00" fill="#000000">Framework/VariantHelpers.h</text>
</a>
</g>
</g>
<!-- Node8&#45;&gt;Node34 -->
<g id="edge49" class="edge">
<title>Node8&#45;&gt;Node34</title>
<path fill="none" stroke="#191970" d="M1133.9967,-224.4369C1062.4394,-214.5912 951.0907,-199.2705 876.0555,-188.9462"/>
<polygon fill="#191970" stroke="#191970" points="876.1005,-185.4195 865.7167,-187.5237 875.1462,-192.3542 876.1005,-185.4195"/>
</g>
<!-- Node35 -->
<g id="node36" class="node">
<title>Node35</title>
<polygon fill="none" stroke="#bfbfbf" points="892.5,-168.5 892.5,-187.5 948.5,-187.5 948.5,-168.5 892.5,-168.5"/>
<text text-anchor="middle" x="920.5" y="-175.5" font-family="Helvetica,sans-Serif" font-size="10.00" fill="#000000">sstream</text>
</g>
<!-- Node8&#45;&gt;Node35 -->
<g id="edge51" class="edge">
<title>Node8&#45;&gt;Node35</title>
<path fill="none" stroke="#191970" d="M1145.0786,-224.4159C1097.3124,-216.2747 1027.8343,-203.7402 958.5037,-188.102"/>
<polygon fill="#191970" stroke="#191970" points="959.2517,-184.6828 948.7241,-185.8749 957.6973,-191.508 959.2517,-184.6828"/>
</g>
<!-- Node36 -->
<g id="node37" class="node">
<title>Node36</title>
<polygon fill="none" stroke="#bfbfbf" points="966.5,-168.5 966.5,-187.5 1034.5,-187.5 1034.5,-168.5 966.5,-168.5"/>
<text text-anchor="middle" x="1000.5" y="-175.5" font-family="Helvetica,sans-Serif" font-size="10.00" fill="#000000">arrow/stl.h</text>
</g>
<!-- Node8&#45;&gt;Node36 -->
<g id="edge52" class="edge">
<title>Node8&#45;&gt;Node36</title>
<path fill="none" stroke="#191970" d="M1168.6031,-224.3733C1134.3052,-214.9118 1081.8417,-200.4391 1044.6583,-190.1816"/>
<polygon fill="#191970" stroke="#191970" points="1045.1744,-186.6933 1034.6037,-187.4079 1043.3128,-193.4413 1045.1744,-186.6933"/>
</g>
<!-- Node37 -->
<g id="node38" class="node">
<title>Node37</title>
<polygon fill="none" stroke="#bfbfbf" points="1053,-168.5 1053,-187.5 1162,-187.5 1162,-168.5 1053,-168.5"/>
<text text-anchor="middle" x="1107.5" y="-175.5" font-family="Helvetica,sans-Serif" font-size="10.00" fill="#000000">arrow/type_traits.h</text>
</g>
<!-- Node8&#45;&gt;Node37 -->
<g id="edge53" class="edge">
<title>Node8&#45;&gt;Node37</title>
<path fill="none" stroke="#191970" d="M1186.7781,-224.2455C1171.9111,-215.5731 1149.9534,-202.7645 1132.9142,-192.825"/>
<polygon fill="#191970" stroke="#191970" points="1134.4317,-189.6582 1124.0303,-187.6427 1130.9045,-195.7047 1134.4317,-189.6582"/>
</g>
<!-- Node8&#45;&gt;Node38 -->
<g id="edge55" class="edge">
<title>Node8&#45;&gt;Node38</title>
<path fill="none" stroke="#191970" d="M1274.6811,-232.9576C1422.4702,-230.1872 1773.1857,-220.4639 2065.5,-188 2066.8068,-187.8549 2068.1287,-187.6996 2069.4608,-187.5357"/>
<polygon fill="#191970" stroke="#191970" points="2070.3608,-190.9456 2079.7979,-186.13 2069.4175,-184.0094 2070.3608,-190.9456"/>
</g>
<!-- Node39 -->
<g id="node40" class="node">
<title>Node39</title>
<polygon fill="none" stroke="#bfbfbf" points="1180,-168.5 1180,-187.5 1227,-187.5 1227,-168.5 1180,-168.5"/>
<text text-anchor="middle" x="1203.5" y="-175.5" font-family="Helvetica,sans-Serif" font-size="10.00" fill="#000000">vector</text>
</g>
<!-- Node8&#45;&gt;Node39 -->
<g id="edge57" class="edge">
<title>Node8&#45;&gt;Node39</title>
<path fill="none" stroke="#191970" d="M1203.5,-224.2455C1203.5,-216.9382 1203.5,-206.6944 1203.5,-197.7046"/>
<polygon fill="#191970" stroke="#191970" points="1207.0001,-197.6426 1203.5,-187.6427 1200.0001,-197.6427 1207.0001,-197.6426"/>
</g>
<!-- Node9&#45;&gt;Node1 -->
<g id="edge34" class="edge">
<title>Node9&#45;&gt;Node1</title>
<path fill="none" stroke="#191970" d="M1245.2441,-169.088C1242.2895,-168.6964 1239.3604,-168.3302 1236.5,-168 1128.9441,-155.5847 813.8097,-135.1777 672.4851,-126.3233"/>
<polygon fill="#191970" stroke="#191970" points="672.4067,-122.8116 662.2077,-125.6805 671.9697,-129.7979 672.4067,-122.8116"/>
</g>
<!-- Node9&#45;&gt;Node3 -->
<g id="edge41" class="edge">
<title>Node9&#45;&gt;Node3</title>
<path fill="none" stroke="#191970" d="M1245.2241,-169.2452C1242.2747,-168.8131 1239.3521,-168.3951 1236.5,-168 1101.7316,-149.3318 1067.255,-150.7644 932.5,-132 809.5116,-114.8741 666.5022,-91.091 585.4282,-77.2448"/>
<polygon fill="#191970" stroke="#191970" points="585.819,-73.7608 575.3719,-75.524 584.6383,-80.6606 585.819,-73.7608"/>
</g>
<!-- Node9&#45;&gt;Node6 -->
<g id="edge39" class="edge">
<title>Node9&#45;&gt;Node6</title>
<path fill="none" stroke="#191970" d="M1245.2522,-169.0146C1242.2955,-168.6419 1239.3637,-168.2998 1236.5,-168 925.7886,-135.4663 838.0348,-205.9366 534.5,-132 513.6293,-126.9162 510.98,-118.481 490.5,-112 457.9437,-101.6975 372.2322,-86.5289 311.6264,-76.4629"/>
<polygon fill="#191970" stroke="#191970" points="312.1885,-73.0084 301.7516,-74.831 311.0471,-79.9148 312.1885,-73.0084"/>
</g>
<!-- Node10 -->
<g id="node11" class="node">
<title>Node10</title>
<g id="a_node11"><a xlink:href="../../dd/dce/Pack_8h.html" target="_top" xlink:title="Framework/Pack.h">
<polygon fill="none" stroke="#000000" points="1725,-56.5 1725,-75.5 1830,-75.5 1830,-56.5 1725,-56.5"/>
<text text-anchor="middle" x="1777.5" y="-63.5" font-family="Helvetica,sans-Serif" font-size="10.00" fill="#000000">Framework/Pack.h</text>
</a>
</g>
</g>
<!-- Node9&#45;&gt;Node10 -->
<g id="edge10" class="edge">
<title>Node9&#45;&gt;Node10</title>
<path fill="none" stroke="#191970" d="M1267.6728,-168.4524C1233.956,-156.8074 1188.4086,-135.719 1210.5,-112 1247.2647,-72.5267 1625.8362,-81.6489 1714.7967,-75.8075"/>
<polygon fill="#191970" stroke="#191970" points="1715.3107,-79.2761 1724.9705,-74.9244 1714.7053,-72.3023 1715.3107,-79.2761"/>
</g>
<!-- Node14 -->
<g id="node15" class="node">
<title>Node14</title>
<g id="a_node15"><a xlink:href="../../d1/d00/CheckTypes_8h.html" target="_top" xlink:title="Framework/CheckTypes.h">
<polygon fill="none" stroke="#000000" points="995.5,-56.5 995.5,-75.5 1135.5,-75.5 1135.5,-56.5 995.5,-56.5"/>
<text text-anchor="middle" x="1065.5" y="-63.5" font-family="Helvetica,sans-Serif" font-size="10.00" fill="#000000">Framework/CheckTypes.h</text>
</a>
</g>
</g>
<!-- Node9&#45;&gt;Node14 -->
<g id="edge14" class="edge">
<title>Node9&#45;&gt;Node14</title>
<path fill="none" stroke="#191970" d="M1245.2146,-169.3114C1242.2677,-168.8622 1239.3482,-168.4224 1236.5,-168 1178.5844,-159.4103 1013.9682,-176.1384 975.5,-132 956.2331,-109.8931 991.202,-90.8577 1023.0135,-78.9886"/>
<polygon fill="#191970" stroke="#191970" points="1024.47,-82.1855 1032.7212,-75.5396 1022.1265,-75.5894 1024.47,-82.1855"/>
</g>
<!-- Node9&#45;&gt;Node15 -->
<g id="edge15" class="edge">
<title>Node9&#45;&gt;Node15</title>
<path fill="none" stroke="#191970" d="M1353.7933,-172.6504C1440.4296,-164.1066 1615.2915,-146.8318 1763.5,-132 1764.7811,-131.8718 1766.0716,-131.7426 1767.3697,-131.6125"/>
<polygon fill="#191970" stroke="#191970" points="1767.8449,-135.0825 1777.4455,-130.6016 1767.146,-128.1175 1767.8449,-135.0825"/>
</g>
<!-- Node17 -->
<g id="node18" class="node">
<title>Node17</title>
<g id="a_node18"><a xlink:href="../../d9/de8/CompilerBuiltins_8h.html" target="_top" xlink:title="Framework/CompilerBuiltins.h">
<polygon fill="none" stroke="#000000" points="813.5,-56.5 813.5,-75.5 977.5,-75.5 977.5,-56.5 813.5,-56.5"/>
<text text-anchor="middle" x="895.5" y="-63.5" font-family="Helvetica,sans-Serif" font-size="10.00" fill="#000000">Framework/CompilerBuiltins.h</text>
</a>
</g>
</g>
<!-- Node9&#45;&gt;Node17 -->
<g id="edge18" class="edge">
<title>Node9&#45;&gt;Node17</title>
<path fill="none" stroke="#191970" d="M1245.2172,-169.2942C1242.2696,-168.8494 1239.3492,-168.4153 1236.5,-168 1116.268,-150.4748 1075.2201,-184.1955 965.5,-132 942.0835,-120.8604 921.3244,-98.9587 908.6115,-83.4451"/>
<polygon fill="#191970" stroke="#191970" points="911.355,-81.2717 902.4108,-75.5925 905.8612,-85.6097 911.355,-81.2717"/>
</g>
<!-- Node18 -->
<g id="node19" class="node">
<title>Node18</title>
<g id="a_node19"><a xlink:href="../../db/d31/Traits_8h.html" target="_top" xlink:title="Framework/Traits.h">
<polygon fill="none" stroke="#000000" points="339,-112.5 339,-131.5 448,-131.5 448,-112.5 339,-112.5"/>
<text text-anchor="middle" x="393.5" y="-119.5" font-family="Helvetica,sans-Serif" font-size="10.00" fill="#000000">Framework/Traits.h</text>
</a>
</g>
</g>
<!-- Node9&#45;&gt;Node18 -->
<g id="edge19" class="edge">
<title>Node9&#45;&gt;Node18</title>
<path fill="none" stroke="#191970" d="M1245.253,-169.0064C1242.2962,-168.6359 1239.364,-168.2965 1236.5,-168 910.7384,-134.2795 827.1763,-155.2431 500.5,-132 486.7974,-131.0251 472.1258,-129.7837 458.176,-128.5099"/>
<polygon fill="#191970" stroke="#191970" points="458.4511,-125.0204 448.1701,-127.5799 457.8032,-131.9904 458.4511,-125.0204"/>
</g>
<!-- Node20 -->
<g id="node21" class="node">
<title>Node20</title>
<g id="a_node21"><a xlink:href="../../d0/d91/Expressions_8h.html" target="_top" xlink:title="Framework/Expressions.h">
<polygon fill="none" stroke="#000000" points="984,-112.5 984,-131.5 1125,-131.5 1125,-112.5 984,-112.5"/>
<text text-anchor="middle" x="1054.5" y="-119.5" font-family="Helvetica,sans-Serif" font-size="10.00" fill="#000000">Framework/Expressions.h</text>
</a>
</g>
</g>
<!-- Node9&#45;&gt;Node20 -->
<g id="edge21" class="edge">
<title>Node9&#45;&gt;Node20</title>
<path fill="none" stroke="#191970" d="M1257.6614,-168.4369C1215.7315,-158.8529 1151.1052,-144.0812 1106.0376,-133.78"/>
<polygon fill="#191970" stroke="#191970" points="1106.6946,-130.34 1096.1661,-131.5237 1105.1347,-137.164 1106.6946,-130.34"/>
</g>
<!-- Node9&#45;&gt;Node22 -->
<g id="edge37" class="edge">
<title>Node9&#45;&gt;Node22</title>
<path fill="none" stroke="#191970" d="M1353.8852,-174.7559C1453.5064,-168.3906 1661.3878,-153.0312 1730.5,-132 1748.7586,-126.4438 1751.1147,-119.8739 1768.5,-112 1795.8305,-99.6219 1827.5593,-87.5553 1851.5245,-78.8885"/>
<polygon fill="#191970" stroke="#191970" points="1852.7236,-82.1768 1860.9562,-75.5078 1850.3616,-75.5873 1852.7236,-82.1768"/>
</g>
<!-- Node23 -->
<g id="node24" class="node">
<title>Node23</title>
<polygon fill="none" stroke="#bfbfbf" points="1560,-56.5 1560,-75.5 1707,-75.5 1707,-56.5 1560,-56.5"/>
<text text-anchor="middle" x="1633.5" y="-63.5" font-family="Helvetica,sans-Serif" font-size="10.00" fill="#000000">gandiva/selection_vector.h</text>
</g>
<!-- Node9&#45;&gt;Node23 -->
<g id="edge42" class="edge">
<title>Node9&#45;&gt;Node23</title>
<path fill="none" stroke="#191970" d="M1247.0539,-168.4834C1203.3989,-158.3532 1152.1635,-139.8996 1177.5,-112 1204.0158,-82.8019 1477.8505,-80.6467 1549.7,-75.8151"/>
<polygon fill="#191970" stroke="#191970" points="1550.0693,-79.2966 1559.7441,-74.9782 1549.488,-72.3207 1550.0693,-79.2966"/>
</g>
<!-- Node28 -->
<g id="node29" class="node">
<title>Node28</title>
<g id="a_node29"><a xlink:href="../../d1/dc1/ArrowCompatibility_8h.html" target="_top" xlink:title="Framework/ArrowCompatibility.h">
<polygon fill="none" stroke="#000000" points="1545.5,-112.5 1545.5,-131.5 1721.5,-131.5 1721.5,-112.5 1545.5,-112.5"/>
<text text-anchor="middle" x="1633.5" y="-119.5" font-family="Helvetica,sans-Serif" font-size="10.00" fill="#000000">Framework/ArrowCompatibility.h</text>
</a>
</g>
</g>
<!-- Node9&#45;&gt;Node28 -->
<g id="edge35" class="edge">
<title>Node9&#45;&gt;Node28</title>
<path fill="none" stroke="#191970" d="M1353.5341,-168.9404C1411.598,-159.2051 1503.9607,-143.7192 1566.5795,-133.2202"/>
<polygon fill="#191970" stroke="#191970" points="1567.4663,-136.6205 1576.7498,-131.515 1566.3087,-129.7168 1567.4663,-136.6205"/>
</g>
<!-- Node29 -->
<g id="node30" class="node">
<title>Node29</title>
<polygon fill="none" stroke="#bfbfbf" points="1219.5,-112.5 1219.5,-131.5 1299.5,-131.5 1299.5,-112.5 1219.5,-112.5"/>
<text text-anchor="middle" x="1259.5" y="-119.5" font-family="Helvetica,sans-Serif" font-size="10.00" fill="#000000">arrow/array.h</text>
</g>
<!-- Node9&#45;&gt;Node29 -->
<g id="edge38" class="edge">
<title>Node9&#45;&gt;Node29</title>
<path fill="none" stroke="#191970" d="M1292.5325,-168.2455C1286.9689,-160.4564 1279.022,-149.3308 1272.3171,-139.9439"/>
<polygon fill="#191970" stroke="#191970" points="1275.0481,-137.7457 1266.3876,-131.6427 1269.352,-141.8144 1275.0481,-137.7457"/>
</g>
<!-- Node30 -->
<g id="node31" class="node">
<title>Node30</title>
<polygon fill="none" stroke="#bfbfbf" points="1318,-112.5 1318,-131.5 1457,-131.5 1457,-112.5 1318,-112.5"/>
<text text-anchor="middle" x="1387.5" y="-119.5" font-family="Helvetica,sans-Serif" font-size="10.00" fill="#000000">arrow/compute/context.h</text>
</g>
<!-- Node9&#45;&gt;Node30 -->
<g id="edge40" class="edge">
<title>Node9&#45;&gt;Node30</title>
<path fill="none" stroke="#191970" d="M1314.8284,-168.2455C1328.3303,-159.6534 1348.2122,-147.0014 1363.7686,-137.1018"/>
<polygon fill="#191970" stroke="#191970" points="1365.7897,-139.9643 1372.3472,-131.6427 1362.0315,-134.0587 1365.7897,-139.9643"/>
</g>
<!-- Node31 -->
<g id="node32" class="node">
<title>Node31</title>
<polygon fill="none" stroke="#bfbfbf" points="1475.5,-112.5 1475.5,-131.5 1527.5,-131.5 1527.5,-112.5 1475.5,-112.5"/>
<text text-anchor="middle" x="1501.5" y="-119.5" font-family="Helvetica,sans-Serif" font-size="10.00" fill="#000000">cassert</text>
</g>
<!-- Node9&#45;&gt;Node31 -->
<g id="edge43" class="edge">
<title>Node9&#45;&gt;Node31</title>
<path fill="none" stroke="#191970" d="M1334.3907,-168.4932C1366.1481,-159.8171 1414.5838,-146.5274 1465.3033,-132.3196"/>
<polygon fill="#191970" stroke="#191970" points="1466.4512,-135.6328 1475.1343,-129.5621 1464.5607,-128.8929 1466.4512,-135.6328"/>
</g>
<!-- Node11 -->
<g id="node12" class="node">
<title>Node11</title>
<polygon fill="none" stroke="#bfbfbf" points="1684,-.5 1684,-19.5 1737,-19.5 1737,-.5 1684,-.5"/>
<text text-anchor="middle" x="1710.5" y="-7.5" font-family="Helvetica,sans-Serif" font-size="10.00" fill="#000000">cstddef</text>
</g>
<!-- Node10&#45;&gt;Node11 -->
<g id="edge11" class="edge">
<title>Node10&#45;&gt;Node11</title>
<path fill="none" stroke="#191970" d="M1765.8295,-56.2455C1755.9339,-47.9746 1741.5373,-35.9416 1729.9099,-26.2232"/>
<polygon fill="#191970" stroke="#191970" points="1731.9542,-23.3703 1722.0368,-19.6427 1727.465,-28.7413 1731.9542,-23.3703"/>
</g>
<!-- Node12 -->
<g id="node13" class="node">
<title>Node12</title>
<polygon fill="none" stroke="#bfbfbf" points="1755,-.5 1755,-19.5 1800,-19.5 1800,-.5 1755,-.5"/>
<text text-anchor="middle" x="1777.5" y="-7.5" font-family="Helvetica,sans-Serif" font-size="10.00" fill="#000000">utility</text>
</g>
<!-- Node10&#45;&gt;Node12 -->
<g id="edge12" class="edge">
<title>Node10&#45;&gt;Node12</title>
<path fill="none" stroke="#191970" d="M1777.5,-56.2455C1777.5,-48.9382 1777.5,-38.6944 1777.5,-29.7046"/>
<polygon fill="#191970" stroke="#191970" points="1781.0001,-29.6426 1777.5,-19.6427 1774.0001,-29.6427 1781.0001,-29.6426"/>
</g>
<!-- Node13 -->
<g id="node14" class="node">
<title>Node13</title>
<polygon fill="none" stroke="#bfbfbf" points="1818.5,-.5 1818.5,-19.5 1864.5,-19.5 1864.5,-.5 1818.5,-.5"/>
<text text-anchor="middle" x="1841.5" y="-7.5" font-family="Helvetica,sans-Serif" font-size="10.00" fill="#000000">cstdio</text>
</g>
<!-- Node10&#45;&gt;Node13 -->
<g id="edge13" class="edge">
<title>Node10&#45;&gt;Node13</title>
<path fill="none" stroke="#191970" d="M1788.6479,-56.2455C1798.0087,-48.0549 1811.5858,-36.1749 1822.6349,-26.5069"/>
<polygon fill="#191970" stroke="#191970" points="1825.2588,-28.8618 1830.4798,-19.6427 1820.6492,-23.5937 1825.2588,-28.8618"/>
</g>
<!-- Node15&#45;&gt;Node10 -->
<g id="edge16" class="edge">
<title>Node15&#45;&gt;Node10</title>
<path fill="none" stroke="#191970" d="M1847.6941,-112.2455C1834.7744,-103.7337 1815.8069,-91.2375 1800.8448,-81.3801"/>
<polygon fill="#191970" stroke="#191970" points="1802.4124,-78.2216 1792.1362,-75.6427 1798.5613,-84.067 1802.4124,-78.2216"/>
</g>
<!-- Node15&#45;&gt;Node16 -->
<g id="edge17" class="edge">
<title>Node15&#45;&gt;Node16</title>
<path fill="none" stroke="#191970" d="M1882.613,-112.3733C1901.3103,-103.4241 1929.3744,-89.9917 1950.4934,-79.8835"/>
<polygon fill="#191970" stroke="#191970" points="1952.1405,-82.9755 1959.6494,-75.5011 1949.1183,-76.6614 1952.1405,-82.9755"/>
</g>
<!-- Node19 -->
<g id="node20" class="node">
<title>Node19</title>
<polygon fill="none" stroke="#bfbfbf" points="0,-56.5 0,-75.5 69,-75.5 69,-56.5 0,-56.5"/>
<text text-anchor="middle" x="34.5" y="-63.5" font-family="Helvetica,sans-Serif" font-size="10.00" fill="#000000">type_traits</text>
</g>
<!-- Node18&#45;&gt;Node19 -->
<g id="edge20" class="edge">
<title>Node18&#45;&gt;Node19</title>
<path fill="none" stroke="#191970" d="M338.8723,-113.2758C336.0414,-112.8403 333.2377,-112.4128 330.5,-112 221.7958,-95.6091 191.4563,-96.488 79.0718,-75.977"/>
<polygon fill="#191970" stroke="#191970" points="79.5007,-72.4972 69.0321,-74.1281 78.2328,-79.3814 79.5007,-72.4972"/>
</g>
<!-- Node20&#45;&gt;Node2 -->
<g id="edge22" class="edge">
<title>Node20&#45;&gt;Node2</title>
<path fill="none" stroke="#191970" d="M999.3413,-112.4369C943.1333,-102.6918 855.9888,-87.5832 796.4718,-77.2645"/>
<polygon fill="#191970" stroke="#191970" points="796.8821,-73.7835 786.4312,-75.5237 795.6863,-80.6806 796.8821,-73.7835"/>
</g>
<!-- Node20&#45;&gt;Node7 -->
<g id="edge32" class="edge">
<title>Node20&#45;&gt;Node7</title>
<path fill="none" stroke="#191970" d="M983.712,-117.9819C906.1313,-112.6356 778.0185,-101.039 659.6652,-75.8939"/>
<polygon fill="#191970" stroke="#191970" points="660.2219,-72.4335 649.7081,-73.741 658.7425,-79.2754 660.2219,-72.4335"/>
</g>
<!-- Node20&#45;&gt;Node10 -->
<g id="edge24" class="edge">
<title>Node20&#45;&gt;Node10</title>
<path fill="none" stroke="#191970" d="M1125.0585,-116.0877C1142.2157,-114.6986 1160.5139,-113.2577 1177.5,-112 1413.6604,-94.5143 1476.2826,-103.2057 1714.9453,-76.0874"/>
<polygon fill="#191970" stroke="#191970" points="1715.4355,-79.5543 1724.9722,-74.9389 1714.6389,-72.5997 1715.4355,-79.5543"/>
</g>
<!-- Node20&#45;&gt;Node14 -->
<g id="edge25" class="edge">
<title>Node20&#45;&gt;Node14</title>
<path fill="none" stroke="#191970" d="M1056.4161,-112.2455C1057.8514,-104.9382 1059.8636,-94.6944 1061.6295,-85.7046"/>
<polygon fill="#191970" stroke="#191970" points="1065.1127,-86.1298 1063.6059,-75.6427 1058.244,-84.7805 1065.1127,-86.1298"/>
</g>
<!-- Node20&#45;&gt;Node17 -->
<g id="edge23" class="edge">
<title>Node20&#45;&gt;Node17</title>
<path fill="none" stroke="#191970" d="M1027.1669,-112.3733C1000.9566,-103.1419 961.2016,-89.1402 932.2332,-78.9375"/>
<polygon fill="#191970" stroke="#191970" points="933.0712,-75.5219 922.4764,-75.5011 930.7458,-82.1244 933.0712,-75.5219"/>
</g>
<!-- Node21 -->
<g id="node22" class="node">
<title>Node21</title>
<polygon fill="none" stroke="#bfbfbf" points="1330,-56.5 1330,-75.5 1431,-75.5 1431,-56.5 1330,-56.5"/>
<text text-anchor="middle" x="1380.5" y="-63.5" font-family="Helvetica,sans-Serif" font-size="10.00" fill="#000000">arrow/type_fwd.h</text>
</g>
<!-- Node20&#45;&gt;Node21 -->
<g id="edge26" class="edge">
<title>Node20&#45;&gt;Node21</title>
<path fill="none" stroke="#191970" d="M1110.171,-112.4369C1168.4482,-102.4261 1259.6757,-86.7551 1319.7761,-76.4311"/>
<polygon fill="#191970" stroke="#191970" points="1320.6187,-79.8377 1329.8818,-74.6951 1319.4336,-72.9387 1320.6187,-79.8377"/>
</g>
<!-- Node20&#45;&gt;Node22 -->
<g id="edge27" class="edge">
<title>Node20&#45;&gt;Node22</title>
<path fill="none" stroke="#191970" d="M1125.162,-117.3677C1151.8953,-115.6421 1182.5982,-113.6927 1210.5,-112 1486.7238,-95.2422 1560.1105,-111.6946 1837.9627,-76.0384"/>
<polygon fill="#191970" stroke="#191970" points="1838.4657,-79.5025 1847.9337,-74.7478 1837.5672,-72.5604 1838.4657,-79.5025"/>
</g>
<!-- Node20&#45;&gt;Node23 -->
<g id="edge28" class="edge">
<title>Node20&#45;&gt;Node23</title>
<path fill="none" stroke="#191970" d="M1125.4438,-113.4938C1130.199,-112.973 1134.9179,-112.4701 1139.5,-112 1318.7022,-93.6145 1366.4512,-94.9165 1549.7755,-76.0447"/>
<polygon fill="#191970" stroke="#191970" points="1550.1614,-79.5235 1559.7477,-75.0121 1549.4404,-72.5607 1550.1614,-79.5235"/>
</g>
<!-- Node24 -->
<g id="node25" class="node">
<title>Node24</title>
<polygon fill="none" stroke="#bfbfbf" points="1449.5,-56.5 1449.5,-75.5 1541.5,-75.5 1541.5,-56.5 1449.5,-56.5"/>
<text text-anchor="middle" x="1495.5" y="-63.5" font-family="Helvetica,sans-Serif" font-size="10.00" fill="#000000">gandiva/node.h</text>
</g>
<!-- Node20&#45;&gt;Node24 -->
<g id="edge29" class="edge">
<title>Node20&#45;&gt;Node24</title>
<path fill="none" stroke="#191970" d="M1125.323,-113.6155C1223.7493,-101.9561 1394.1905,-81.7383 1439.2404,-75.9633"/>
<polygon fill="#191970" stroke="#191970" points="1439.8762,-79.4094 1449.3207,-74.6081 1438.9434,-72.4718 1439.8762,-79.4094"/>
</g>
<!-- Node25 -->
<g id="node26" class="node">
<title>Node25</title>
<polygon fill="none" stroke="#bfbfbf" points="1154,-56.5 1154,-75.5 1243,-75.5 1243,-56.5 1154,-56.5"/>
<text text-anchor="middle" x="1198.5" y="-63.5" font-family="Helvetica,sans-Serif" font-size="10.00" fill="#000000">gandiva/filter.h</text>
</g>
<!-- Node20&#45;&gt;Node25 -->
<g id="edge30" class="edge">
<title>Node20&#45;&gt;Node25</title>
<path fill="none" stroke="#191970" d="M1079.2545,-112.3733C1102.7849,-103.2226 1138.3687,-89.3844 1164.5426,-79.2057"/>
<polygon fill="#191970" stroke="#191970" points="1166.0171,-82.3877 1174.0685,-75.5011 1163.4799,-75.8636 1166.0171,-82.3877"/>
</g>
<!-- Node26 -->
<g id="node27" class="node">
<title>Node26</title>
<polygon fill="none" stroke="#bfbfbf" points="1261,-56.5 1261,-75.5 1312,-75.5 1312,-56.5 1261,-56.5"/>
<text text-anchor="middle" x="1286.5" y="-63.5" font-family="Helvetica,sans-Serif" font-size="10.00" fill="#000000">variant</text>
</g>
<!-- Node20&#45;&gt;Node26 -->
<g id="edge31" class="edge">
<title>Node20&#45;&gt;Node26</title>
<path fill="none" stroke="#191970" d="M1098.7186,-112.4945C1136.7634,-104.1443 1193.3326,-91.3212 1250.9227,-76.3193"/>
<polygon fill="#191970" stroke="#191970" points="1252.1407,-79.6182 1260.9245,-73.6942 1250.3636,-72.8476 1252.1407,-79.6182"/>
</g>
<!-- Node20&#45;&gt;Node27 -->
<g id="edge33" class="edge">
<title>Node20&#45;&gt;Node27</title>
<path fill="none" stroke="#191970" d="M1125.151,-117.1761C1151.883,-115.4285 1182.5879,-113.514 1210.5,-112 1567.4275,-92.64 1663.03,-129.5219 2020.0717,-75.9083"/>
<polygon fill="#191970" stroke="#191970" points="2020.8083,-79.3367 2030.1711,-74.3782 2019.7597,-72.4157 2020.8083,-79.3367"/>
</g>
<!-- Node28&#45;&gt;Node22 -->
<g id="edge36" class="edge">
<title>Node28&#45;&gt;Node22</title>
<path fill="none" stroke="#191970" d="M1677.0463,-112.4369C1721.5744,-102.6582 1790.6952,-87.4787 1837.6928,-77.1577"/>
<polygon fill="#191970" stroke="#191970" points="1838.646,-80.5318 1847.6624,-74.9682 1837.1444,-73.6948 1838.646,-80.5318"/>
</g>
<!-- Node32&#45;&gt;Node18 -->
<g id="edge45" class="edge">
<title>Node32&#45;&gt;Node18</title>
<path fill="none" stroke="#191970" d="M369.5514,-168.2455C373.5019,-160.617 379.1097,-149.7881 383.9058,-140.5267"/>
<polygon fill="#191970" stroke="#191970" points="387.0159,-142.1321 388.5065,-131.6427 380.7999,-138.9131 387.0159,-142.1321"/>
</g>
<!-- Node32&#45;&gt;Node19 -->
<g id="edge47" class="edge">
<title>Node32&#45;&gt;Node19</title>
<path fill="none" stroke="#191970" d="M336.3644,-168.4509C277.0624,-148.3242 139.2052,-101.5363 72.2887,-78.8253"/>
<polygon fill="#191970" stroke="#191970" points="73.1588,-75.4245 62.5644,-75.5249 70.909,-82.0532 73.1588,-75.4245"/>
</g>
<!-- Node32&#45;&gt;Node33 -->
<g id="edge46" class="edge">
<title>Node32&#45;&gt;Node33</title>
<path fill="none" stroke="#191970" d="M353.3521,-168.2455C343.9913,-160.0549 330.4142,-148.1749 319.3651,-138.5069"/>
<polygon fill="#191970" stroke="#191970" points="321.3508,-135.5937 311.5202,-131.6427 316.7412,-140.8618 321.3508,-135.5937"/>
</g>
<!-- Node34&#45;&gt;Node17 -->
<g id="edge50" class="edge">
<title>Node34&#45;&gt;Node17</title>
<path fill="none" stroke="#191970" d="M804.9407,-168.4509C821.6719,-149.5227 859.2465,-107.014 880.3602,-83.1279"/>
<polygon fill="#191970" stroke="#191970" points="883.0802,-85.3354 887.0807,-75.5249 877.8354,-80.6994 883.0802,-85.3354"/>
</g>
</g>
</svg>
