<?xml version="1.0" encoding="UTF-8" standalone="no"?>
<!DOCTYPE svg PUBLIC "-//W3C//DTD SVG 1.1//EN"
 "http://www.w3.org/Graphics/SVG/1.1/DTD/svg11.dtd">
<!-- Generated by graphviz version 2.40.1 (20161225.0304)
 -->
<!-- Title: /home/travis/build/AliceO2Group/AliceO2/Detectors/Base/include/DetectorsBase/MatLayerCylSet.h Pages: 1 -->
<svg width="2573pt" height="363pt"
 viewBox="0.00 0.00 2572.50 363.00" xmlns="http://www.w3.org/2000/svg" xmlns:xlink="http://www.w3.org/1999/xlink">
<g id="graph0" class="graph" transform="scale(1 1) rotate(0) translate(4 359)">
<title>/home/travis/build/AliceO2Group/AliceO2/Detectors/Base/include/DetectorsBase/MatLayerCylSet.h</title>
<!-- Node0 -->
<g id="node1" class="node">
<title>Node0</title>
<polygon fill="#bfbfbf" stroke="#000000" points="498,-302.5 498,-354.5 677,-354.5 677,-302.5 498,-302.5"/>
<text text-anchor="start" x="506" y="-342.5" font-family="Helvetica,sans-Serif" font-size="10.00" fill="#000000">/home/travis/build</text>
<text text-anchor="start" x="506" y="-331.5" font-family="Helvetica,sans-Serif" font-size="10.00" fill="#000000">/AliceO2Group/AliceO2</text>
<text text-anchor="start" x="506" y="-320.5" font-family="Helvetica,sans-Serif" font-size="10.00" fill="#000000">/Detectors/Base/include</text>
<text text-anchor="middle" x="587.5" y="-309.5" font-family="Helvetica,sans-Serif" font-size="10.00" fill="#000000">/DetectorsBase/MatLayerCylSet.h</text>
</g>
<!-- Node1 -->
<g id="node2" class="node">
<title>Node1</title>
<g id="a_node2"><a xlink:href="../../df/d21/GPUCommonDef_8h.html" target="_top" xlink:title="GPUCommonDef.h">
<polygon fill="none" stroke="#000000" points="636,-62 636,-81 743,-81 743,-62 636,-62"/>
<text text-anchor="middle" x="689.5" y="-69" font-family="Helvetica,sans-Serif" font-size="10.00" fill="#000000">GPUCommonDef.h</text>
</a>
</g>
</g>
<!-- Node0&#45;&gt;Node1 -->
<g id="edge1" class="edge">
<title>Node0&#45;&gt;Node1</title>
<path fill="none" stroke="#191970" d="M554.9786,-302.429C508.003,-261.6342 431.5705,-181.3481 477.5,-123 519.6387,-69.4676 560.3113,-103.1381 626.5,-87 631.1782,-85.8594 636.0507,-84.6674 640.9223,-83.4732"/>
<polygon fill="#191970" stroke="#191970" points="641.9808,-86.8174 650.858,-81.0342 640.3119,-80.0192 641.9808,-86.8174"/>
</g>
<!-- Node4 -->
<g id="node5" class="node">
<title>Node4</title>
<g id="a_node5"><a xlink:href="../../da/df3/MatLayerCyl_8h.html" target="_top" xlink:title="Declarations for single cylindrical material layer class. ">
<polygon fill="none" stroke="#000000" points="507,-190.5 507,-209.5 668,-209.5 668,-190.5 507,-190.5"/>
<text text-anchor="middle" x="587.5" y="-197.5" font-family="Helvetica,sans-Serif" font-size="10.00" fill="#000000">DetectorsBase/MatLayerCyl.h</text>
</a>
</g>
</g>
<!-- Node0&#45;&gt;Node4 -->
<g id="edge4" class="edge">
<title>Node0&#45;&gt;Node4</title>
<path fill="none" stroke="#191970" d="M587.5,-302.4961C587.5,-278.0156 587.5,-241.8881 587.5,-219.7068"/>
<polygon fill="#191970" stroke="#191970" points="591.0001,-219.5141 587.5,-209.5142 584.0001,-219.5142 591.0001,-219.5141"/>
</g>
<!-- Node7 -->
<g id="node8" class="node">
<title>Node7</title>
<g id="a_node8"><a xlink:href="../../db/dff/FlatObject_8h.html" target="_top" xlink:title="Definition of FlatObject class. ">
<polygon fill="none" stroke="#000000" points="279,-129 279,-148 354,-148 354,-129 279,-129"/>
<text text-anchor="middle" x="316.5" y="-136" font-family="Helvetica,sans-Serif" font-size="10.00" fill="#000000">FlatObject.h</text>
</a>
</g>
</g>
<!-- Node0&#45;&gt;Node7 -->
<g id="edge51" class="edge">
<title>Node0&#45;&gt;Node7</title>
<path fill="none" stroke="#191970" d="M497.9726,-311.2339C446.4256,-299.7334 388.0796,-283.5494 368.5,-266 336.5824,-237.392 323.8661,-186.3143 319.1112,-158.2745"/>
<polygon fill="#191970" stroke="#191970" points="322.5304,-157.4776 317.5699,-148.1158 315.6096,-158.5277 322.5304,-157.4776"/>
</g>
<!-- Node20 -->
<g id="node21" class="node">
<title>Node20</title>
<g id="a_node21"><a xlink:href="../../d4/d1b/Ray_8h.html" target="_top" xlink:title="DetectorsBase/Ray.h">
<polygon fill="none" stroke="#000000" points="708,-246.5 708,-265.5 825,-265.5 825,-246.5 708,-246.5"/>
<text text-anchor="middle" x="766.5" y="-253.5" font-family="Helvetica,sans-Serif" font-size="10.00" fill="#000000">DetectorsBase/Ray.h</text>
</a>
</g>
</g>
<!-- Node0&#45;&gt;Node20 -->
<g id="edge28" class="edge">
<title>Node0&#45;&gt;Node20</title>
<path fill="none" stroke="#191970" d="M651.8702,-302.4283C679.46,-291.2536 710.5167,-278.6748 733.3379,-269.4316"/>
<polygon fill="#191970" stroke="#191970" points="734.9356,-272.5607 742.8903,-265.5626 732.3078,-266.0727 734.9356,-272.5607"/>
</g>
<!-- Node24 -->
<g id="node25" class="node">
<title>Node24</title>
<g id="a_node25"><a xlink:href="../../dd/d76/Cartesian3D_8h.html" target="_top" xlink:title="MathUtils/Cartesian3D.h">
<polygon fill="none" stroke="#000000" points="1712,-190.5 1712,-209.5 1847,-209.5 1847,-190.5 1712,-190.5"/>
<text text-anchor="middle" x="1779.5" y="-197.5" font-family="Helvetica,sans-Serif" font-size="10.00" fill="#000000">MathUtils/Cartesian3D.h</text>
</a>
</g>
</g>
<!-- Node0&#45;&gt;Node24 -->
<g id="edge52" class="edge">
<title>Node0&#45;&gt;Node24</title>
<path fill="none" stroke="#191970" d="M677.0937,-318.8416C902.4292,-294.55 1489.8371,-231.2262 1701.8011,-208.3761"/>
<polygon fill="#191970" stroke="#191970" points="1702.3426,-211.8381 1711.9099,-207.2864 1701.5923,-204.8784 1702.3426,-211.8381"/>
</g>
<!-- Node2 -->
<g id="node3" class="node">
<title>Node2</title>
<g id="a_node3"><a xlink:href="../../d5/d93/GPUCommonDefSettings_8h.html" target="_top" xlink:title="GPUCommonDefSettings.h">
<polygon fill="none" stroke="#000000" points="692.5,-.5 692.5,-19.5 840.5,-19.5 840.5,-.5 692.5,-.5"/>
<text text-anchor="middle" x="766.5" y="-7.5" font-family="Helvetica,sans-Serif" font-size="10.00" fill="#000000">GPUCommonDefSettings.h</text>
</a>
</g>
</g>
<!-- Node1&#45;&gt;Node2 -->
<g id="edge2" class="edge">
<title>Node1&#45;&gt;Node2</title>
<path fill="none" stroke="#191970" d="M701.5313,-61.8906C713.5107,-52.3227 732.1166,-37.4621 746.3525,-26.0919"/>
<polygon fill="#191970" stroke="#191970" points="748.9239,-28.5175 754.5532,-19.5419 744.5553,-23.0479 748.9239,-28.5175"/>
</g>
<!-- Node3 -->
<g id="node4" class="node">
<title>Node3</title>
<g id="a_node4"><a xlink:href="../../da/d5a/GPUCommonDefAPI_8h.html" target="_top" xlink:title="GPUCommonDefAPI.h">
<polygon fill="none" stroke="#000000" points="550.5,-.5 550.5,-19.5 674.5,-19.5 674.5,-.5 550.5,-.5"/>
<text text-anchor="middle" x="612.5" y="-7.5" font-family="Helvetica,sans-Serif" font-size="10.00" fill="#000000">GPUCommonDefAPI.h</text>
</a>
</g>
</g>
<!-- Node1&#45;&gt;Node3 -->
<g id="edge3" class="edge">
<title>Node1&#45;&gt;Node3</title>
<path fill="none" stroke="#191970" d="M677.4688,-61.8906C665.4893,-52.3227 646.8834,-37.4621 632.6475,-26.0919"/>
<polygon fill="#191970" stroke="#191970" points="634.4447,-23.0479 624.4468,-19.5419 630.0761,-28.5175 634.4447,-23.0479"/>
</g>
<!-- Node4&#45;&gt;Node1 -->
<g id="edge7" class="edge">
<title>Node4&#45;&gt;Node1</title>
<path fill="none" stroke="#191970" d="M598.0262,-190.2336C607.4938,-181.2246 621.5551,-167.2746 632.5,-154 649.8805,-132.92 667.3727,-106.6809 678.3077,-89.5304"/>
<polygon fill="#191970" stroke="#191970" points="681.2954,-91.3541 683.6658,-81.0278 675.3732,-87.6221 681.2954,-91.3541"/>
</g>
<!-- Node5 -->
<g id="node6" class="node">
<title>Node5</title>
<polygon fill="none" stroke="#bfbfbf" points="795,-62 795,-81 842,-81 842,-62 795,-62"/>
<text text-anchor="middle" x="818.5" y="-69" font-family="Helvetica,sans-Serif" font-size="10.00" fill="#000000">cmath</text>
</g>
<!-- Node4&#45;&gt;Node5 -->
<g id="edge5" class="edge">
<title>Node4&#45;&gt;Node5</title>
<path fill="none" stroke="#191970" d="M604.8625,-190.3416C645.0948,-167.9613 744.8863,-112.4496 792.4647,-85.9828"/>
<polygon fill="#191970" stroke="#191970" points="794.2136,-89.0151 801.2511,-81.0952 790.8107,-82.8979 794.2136,-89.0151"/>
</g>
<!-- Node6 -->
<g id="node7" class="node">
<title>Node6</title>
<polygon fill="none" stroke="#bfbfbf" points="424.5,-62 424.5,-81 474.5,-81 474.5,-62 424.5,-62"/>
<text text-anchor="middle" x="449.5" y="-69" font-family="Helvetica,sans-Serif" font-size="10.00" fill="#000000">cstring</text>
</g>
<!-- Node4&#45;&gt;Node6 -->
<g id="edge6" class="edge">
<title>Node4&#45;&gt;Node6</title>
<path fill="none" stroke="#191970" d="M532.0199,-190.4151C509.3352,-183.7941 484.6757,-172.6622 468.5,-154 453.4327,-136.6166 449.6873,-109.651 449.0516,-91.318"/>
<polygon fill="#191970" stroke="#191970" points="452.5507,-91.158 448.9843,-81.1815 445.5509,-91.2046 452.5507,-91.158"/>
</g>
<!-- Node4&#45;&gt;Node7 -->
<g id="edge8" class="edge">
<title>Node4&#45;&gt;Node7</title>
<path fill="none" stroke="#191970" d="M545.4536,-190.4581C496.3926,-179.3243 415.4623,-160.9582 364.1251,-149.3079"/>
<polygon fill="#191970" stroke="#191970" points="364.7971,-145.8715 354.2705,-147.0715 363.2479,-152.6979 364.7971,-145.8715"/>
</g>
<!-- Node12 -->
<g id="node13" class="node">
<title>Node12</title>
<g id="a_node13"><a xlink:href="../../d2/d45/GPUCommonRtypes_8h.html" target="_top" xlink:title="GPUCommonRtypes.h">
<polygon fill="none" stroke="#000000" points="493,-62 493,-81 618,-81 618,-62 493,-62"/>
<text text-anchor="middle" x="555.5" y="-69" font-family="Helvetica,sans-Serif" font-size="10.00" fill="#000000">GPUCommonRtypes.h</text>
</a>
</g>
</g>
<!-- Node4&#45;&gt;Node12 -->
<g id="edge20" class="edge">
<title>Node4&#45;&gt;Node12</title>
<path fill="none" stroke="#191970" d="M532.712,-190.4948C511.8013,-183.9086 490.0035,-172.7814 477.5,-154 469.8649,-142.5313 470.9718,-135.133 477.5,-123 486.5624,-106.1569 503.8147,-93.9063 519.7942,-85.5897"/>
<polygon fill="#191970" stroke="#191970" points="521.5072,-88.6491 528.9841,-81.1427 518.458,-82.3481 521.5072,-88.6491"/>
</g>
<!-- Node17 -->
<g id="node18" class="node">
<title>Node17</title>
<g id="a_node18"><a xlink:href="../../d6/da2/GPUCommonMath_8h.html" target="_top" xlink:title="GPUCommonMath.h">
<polygon fill="none" stroke="#000000" points="795,-129 795,-148 910,-148 910,-129 795,-129"/>
<text text-anchor="middle" x="852.5" y="-136" font-family="Helvetica,sans-Serif" font-size="10.00" fill="#000000">GPUCommonMath.h</text>
</a>
</g>
</g>
<!-- Node4&#45;&gt;Node17 -->
<g id="edge21" class="edge">
<title>Node4&#45;&gt;Node17</title>
<path fill="none" stroke="#191970" d="M628.6155,-190.4581C675.1302,-179.6632 750.9408,-162.0694 801.2673,-150.3899"/>
<polygon fill="#191970" stroke="#191970" points="802.3382,-153.7344 811.2881,-148.0643 800.7557,-146.9156 802.3382,-153.7344"/>
</g>
<!-- Node19 -->
<g id="node20" class="node">
<title>Node19</title>
<g id="a_node20"><a xlink:href="../../db/dba/MatCell_8h.html" target="_top" xlink:title="Declarations for material properties of the cell (voxel) ">
<polygon fill="none" stroke="#000000" points="487,-129 487,-148 624,-148 624,-129 487,-129"/>
<text text-anchor="middle" x="555.5" y="-136" font-family="Helvetica,sans-Serif" font-size="10.00" fill="#000000">DetectorsBase/MatCell.h</text>
</a>
</g>
</g>
<!-- Node4&#45;&gt;Node19 -->
<g id="edge25" class="edge">
<title>Node4&#45;&gt;Node19</title>
<path fill="none" stroke="#191970" d="M582.5,-190.3906C577.9242,-181.5965 571.0219,-168.3312 565.3417,-157.4145"/>
<polygon fill="#191970" stroke="#191970" points="568.2912,-155.5003 560.5705,-148.2449 562.0815,-158.7314 568.2912,-155.5003"/>
</g>
<!-- Node7&#45;&gt;Node1 -->
<g id="edge14" class="edge">
<title>Node7&#45;&gt;Node1</title>
<path fill="none" stroke="#191970" d="M345.724,-128.9468C353.1002,-126.7689 361.0439,-124.6217 368.5,-123 481.6325,-98.3935 512.8046,-108.8588 626.5,-87 631.9614,-85.95 637.6597,-84.7284 643.3003,-83.4406"/>
<polygon fill="#191970" stroke="#191970" points="644.3991,-86.7774 653.3275,-81.0735 642.7908,-79.9647 644.3991,-86.7774"/>
</g>
<!-- Node7&#45;&gt;Node6 -->
<g id="edge11" class="edge">
<title>Node7&#45;&gt;Node6</title>
<path fill="none" stroke="#191970" d="M335.5557,-128.9005C357.9748,-117.6067 395.4054,-98.7506 421.2132,-85.7497"/>
<polygon fill="#191970" stroke="#191970" points="423.1235,-88.7065 430.4797,-81.0817 419.9742,-82.4549 423.1235,-88.7065"/>
</g>
<!-- Node8 -->
<g id="node9" class="node">
<title>Node8</title>
<polygon fill="none" stroke="#bfbfbf" points="0,-62 0,-81 53,-81 53,-62 0,-62"/>
<text text-anchor="middle" x="26.5" y="-69" font-family="Helvetica,sans-Serif" font-size="10.00" fill="#000000">cstddef</text>
</g>
<!-- Node7&#45;&gt;Node8 -->
<g id="edge9" class="edge">
<title>Node7&#45;&gt;Node8</title>
<path fill="none" stroke="#191970" d="M278.6891,-133.4936C228.3229,-126.2328 136.8166,-110.9674 61.5,-87 59.6002,-86.3954 57.665,-85.7197 55.7288,-84.9978"/>
<polygon fill="#191970" stroke="#191970" points="56.7804,-81.6471 46.1987,-81.119 54.1415,-88.1306 56.7804,-81.6471"/>
</g>
<!-- Node9 -->
<g id="node10" class="node">
<title>Node9</title>
<polygon fill="none" stroke="#bfbfbf" points="212.5,-62 212.5,-81 270.5,-81 270.5,-62 212.5,-62"/>
<text text-anchor="middle" x="241.5" y="-69" font-family="Helvetica,sans-Serif" font-size="10.00" fill="#000000">memory</text>
</g>
<!-- Node7&#45;&gt;Node9 -->
<g id="edge10" class="edge">
<title>Node7&#45;&gt;Node9</title>
<path fill="none" stroke="#191970" d="M305.7543,-128.9005C293.836,-118.2535 274.3943,-100.8856 260.0132,-88.0385"/>
<polygon fill="#191970" stroke="#191970" points="262.0151,-85.1337 252.2257,-81.0817 257.3516,-90.354 262.0151,-85.1337"/>
</g>
<!-- Node10 -->
<g id="node11" class="node">
<title>Node10</title>
<polygon fill="none" stroke="#bfbfbf" points="288.5,-62 288.5,-81 340.5,-81 340.5,-62 288.5,-62"/>
<text text-anchor="middle" x="314.5" y="-69" font-family="Helvetica,sans-Serif" font-size="10.00" fill="#000000">cassert</text>
</g>
<!-- Node7&#45;&gt;Node10 -->
<g id="edge12" class="edge">
<title>Node7&#45;&gt;Node10</title>
<path fill="none" stroke="#191970" d="M316.2134,-128.9005C315.9224,-119.149 315.463,-103.7597 315.0931,-91.3695"/>
<polygon fill="#191970" stroke="#191970" points="318.5829,-90.9727 314.786,-81.0817 311.586,-91.1817 318.5829,-90.9727"/>
</g>
<!-- Node11 -->
<g id="node12" class="node">
<title>Node11</title>
<polygon fill="none" stroke="#bfbfbf" points="358.5,-62 358.5,-81 406.5,-81 406.5,-62 358.5,-62"/>
<text text-anchor="middle" x="382.5" y="-69" font-family="Helvetica,sans-Serif" font-size="10.00" fill="#000000">TFile.h</text>
</g>
<!-- Node7&#45;&gt;Node11 -->
<g id="edge13" class="edge">
<title>Node7&#45;&gt;Node11</title>
<path fill="none" stroke="#191970" d="M325.9562,-128.9005C336.3463,-118.353 353.2338,-101.2096 365.8524,-88.3998"/>
<polygon fill="#191970" stroke="#191970" points="368.537,-90.6619 373.0614,-81.0817 363.5502,-85.7495 368.537,-90.6619"/>
</g>
<!-- Node7&#45;&gt;Node12 -->
<g id="edge15" class="edge">
<title>Node7&#45;&gt;Node12</title>
<path fill="none" stroke="#191970" d="M348.0926,-128.9677C354.8207,-126.97 361.8895,-124.8953 368.5,-123 416.7861,-109.1562 472.2928,-93.9598 510.2105,-83.6876"/>
<polygon fill="#191970" stroke="#191970" points="511.1978,-87.0464 519.9367,-81.0562 509.3696,-80.2894 511.1978,-87.0464"/>
</g>
<!-- Node14 -->
<g id="node15" class="node">
<title>Node14</title>
<g id="a_node15"><a xlink:href="../../df/d5b/GPUCommonLogger_8h.html" target="_top" xlink:title="GPUCommonLogger.h">
<polygon fill="none" stroke="#000000" points="71,-62 71,-81 194,-81 194,-62 71,-62"/>
<text text-anchor="middle" x="132.5" y="-69" font-family="Helvetica,sans-Serif" font-size="10.00" fill="#000000">GPUCommonLogger.h</text>
</a>
</g>
</g>
<!-- Node7&#45;&gt;Node14 -->
<g id="edge17" class="edge">
<title>Node7&#45;&gt;Node14</title>
<path fill="none" stroke="#191970" d="M290.1373,-128.9005C258.1649,-117.2584 204.1241,-97.5805 168.3775,-84.5641"/>
<polygon fill="#191970" stroke="#191970" points="169.4078,-81.2145 158.8138,-81.0817 167.0127,-87.792 169.4078,-81.2145"/>
</g>
<!-- Node13 -->
<g id="node14" class="node">
<title>Node13</title>
<polygon fill="none" stroke="#bfbfbf" points="1369,-.5 1369,-19.5 1428,-19.5 1428,-.5 1369,-.5"/>
<text text-anchor="middle" x="1398.5" y="-7.5" font-family="Helvetica,sans-Serif" font-size="10.00" fill="#000000">Rtypes.h</text>
</g>
<!-- Node12&#45;&gt;Node13 -->
<g id="edge16" class="edge">
<title>Node12&#45;&gt;Node13</title>
<path fill="none" stroke="#191970" d="M593.9958,-61.9553C604.4804,-59.6687 615.8766,-57.467 626.5,-56 770.2231,-36.1527 1221.4858,-17.0319 1358.5957,-11.5562"/>
<polygon fill="#191970" stroke="#191970" points="1358.8079,-15.0507 1368.661,-11.1563 1358.5299,-8.0562 1358.8079,-15.0507"/>
</g>
<!-- Node15 -->
<g id="node16" class="node">
<title>Node15</title>
<polygon fill="none" stroke="#bfbfbf" points="137.5,-.5 137.5,-19.5 197.5,-19.5 197.5,-.5 137.5,-.5"/>
<text text-anchor="middle" x="167.5" y="-7.5" font-family="Helvetica,sans-Serif" font-size="10.00" fill="#000000">iostream</text>
</g>
<!-- Node14&#45;&gt;Node15 -->
<g id="edge18" class="edge">
<title>Node14&#45;&gt;Node15</title>
<path fill="none" stroke="#191970" d="M137.9688,-61.8906C143.0246,-53.0068 150.6772,-39.5601 156.9254,-28.5811"/>
<polygon fill="#191970" stroke="#191970" points="160.0498,-30.1672 161.9541,-19.7449 153.966,-26.7048 160.0498,-30.1672"/>
</g>
<!-- Node16 -->
<g id="node17" class="node">
<title>Node16</title>
<polygon fill="none" stroke="#bfbfbf" points="73.5,-.5 73.5,-19.5 119.5,-19.5 119.5,-.5 73.5,-.5"/>
<text text-anchor="middle" x="96.5" y="-7.5" font-family="Helvetica,sans-Serif" font-size="10.00" fill="#000000">cstdio</text>
</g>
<!-- Node14&#45;&gt;Node16 -->
<g id="edge19" class="edge">
<title>Node14&#45;&gt;Node16</title>
<path fill="none" stroke="#191970" d="M126.875,-61.8906C121.6747,-53.0068 113.8034,-39.5601 107.3767,-28.5811"/>
<polygon fill="#191970" stroke="#191970" points="110.2767,-26.6069 102.2043,-19.7449 104.2356,-30.1432 110.2767,-26.6069"/>
</g>
<!-- Node17&#45;&gt;Node1 -->
<g id="edge22" class="edge">
<title>Node17&#45;&gt;Node1</title>
<path fill="none" stroke="#191970" d="M829.1461,-128.9005C801.0648,-117.3579 753.7665,-97.9163 722.0983,-84.8993"/>
<polygon fill="#191970" stroke="#191970" points="723.3904,-81.6463 712.8106,-81.0817 720.7291,-88.1207 723.3904,-81.6463"/>
</g>
<!-- Node17&#45;&gt;Node5 -->
<g id="edge23" class="edge">
<title>Node17&#45;&gt;Node5</title>
<path fill="none" stroke="#191970" d="M847.6286,-128.9005C842.5286,-118.8505 834.3898,-102.8122 828.01,-90.2403"/>
<polygon fill="#191970" stroke="#191970" points="831.0088,-88.4153 823.3623,-81.0817 824.7666,-91.583 831.0088,-88.4153"/>
</g>
<!-- Node18 -->
<g id="node19" class="node">
<title>Node18</title>
<polygon fill="none" stroke="#bfbfbf" points="860.5,-62 860.5,-81 924.5,-81 924.5,-62 860.5,-62"/>
<text text-anchor="middle" x="892.5" y="-69" font-family="Helvetica,sans-Serif" font-size="10.00" fill="#000000">algorithm</text>
</g>
<!-- Node17&#45;&gt;Node18 -->
<g id="edge24" class="edge">
<title>Node17&#45;&gt;Node18</title>
<path fill="none" stroke="#191970" d="M858.231,-128.9005C864.2905,-118.751 873.9961,-102.4941 881.5341,-89.8679"/>
<polygon fill="#191970" stroke="#191970" points="884.6586,-91.462 886.7796,-81.0817 878.6483,-87.8737 884.6586,-91.462"/>
</g>
<!-- Node19&#45;&gt;Node1 -->
<g id="edge26" class="edge">
<title>Node19&#45;&gt;Node1</title>
<path fill="none" stroke="#191970" d="M574.6989,-128.9005C597.3862,-117.5569 635.3313,-98.5844 661.3435,-85.5783"/>
<polygon fill="#191970" stroke="#191970" points="662.9577,-88.6843 670.3367,-81.0817 659.8271,-82.4234 662.9577,-88.6843"/>
</g>
<!-- Node19&#45;&gt;Node12 -->
<g id="edge27" class="edge">
<title>Node19&#45;&gt;Node12</title>
<path fill="none" stroke="#191970" d="M555.5,-128.9005C555.5,-119.149 555.5,-103.7597 555.5,-91.3695"/>
<polygon fill="#191970" stroke="#191970" points="559.0001,-91.0816 555.5,-81.0817 552.0001,-91.0817 559.0001,-91.0816"/>
</g>
<!-- Node20&#45;&gt;Node1 -->
<g id="edge30" class="edge">
<title>Node20&#45;&gt;Node1</title>
<path fill="none" stroke="#191970" d="M762.4686,-246.3402C750.3061,-217.1978 713.8156,-129.7626 697.5163,-90.708"/>
<polygon fill="#191970" stroke="#191970" points="700.5731,-88.9446 693.4915,-81.0641 694.1131,-91.6407 700.5731,-88.9446"/>
</g>
<!-- Node20&#45;&gt;Node4 -->
<g id="edge32" class="edge">
<title>Node20&#45;&gt;Node4</title>
<path fill="none" stroke="#191970" d="M735.7288,-246.3733C705.835,-237.021 660.2907,-222.7725 627.5783,-212.5385"/>
<polygon fill="#191970" stroke="#191970" points="628.4586,-209.1466 617.8697,-209.5011 626.3685,-215.8273 628.4586,-209.1466"/>
</g>
<!-- Node20&#45;&gt;Node12 -->
<g id="edge29" class="edge">
<title>Node20&#45;&gt;Node12</title>
<path fill="none" stroke="#191970" d="M757.9696,-246.3388C737.5524,-223.4931 683.7507,-164.9193 632.5,-123 615.9539,-109.4665 595.8327,-96.1035 580.309,-86.3822"/>
<polygon fill="#191970" stroke="#191970" points="582.1096,-83.3805 571.7619,-81.1054 578.4323,-89.3369 582.1096,-83.3805"/>
</g>
<!-- Node20&#45;&gt;Node17 -->
<g id="edge31" class="edge">
<title>Node20&#45;&gt;Node17</title>
<path fill="none" stroke="#191970" d="M773.5377,-246.3845C787.9005,-226.761 820.788,-181.8274 839.269,-156.5772"/>
<polygon fill="#191970" stroke="#191970" points="842.2831,-158.3851 845.365,-148.2484 836.6345,-154.2507 842.2831,-158.3851"/>
</g>
<!-- Node21 -->
<g id="node22" class="node">
<title>Node21</title>
<g id="a_node22"><a xlink:href="../../d9/d52/Common_2MathUtils_2include_2MathUtils_2Utils_8h.html" target="_top" xlink:title="MathUtils/Utils.h">
<polygon fill="none" stroke="#000000" points="908.5,-190.5 908.5,-209.5 1006.5,-209.5 1006.5,-190.5 908.5,-190.5"/>
<text text-anchor="middle" x="957.5" y="-197.5" font-family="Helvetica,sans-Serif" font-size="10.00" fill="#000000">MathUtils/Utils.h</text>
</a>
</g>
</g>
<!-- Node20&#45;&gt;Node21 -->
<g id="edge33" class="edge">
<title>Node20&#45;&gt;Node21</title>
<path fill="none" stroke="#191970" d="M799.3341,-246.3733C831.3695,-236.9807 880.2487,-222.6496 915.1855,-212.4064"/>
<polygon fill="#191970" stroke="#191970" points="916.4831,-215.6733 925.0944,-209.5011 914.5136,-208.9561 916.4831,-215.6733"/>
</g>
<!-- Node20&#45;&gt;Node24 -->
<g id="edge39" class="edge">
<title>Node20&#45;&gt;Node24</title>
<path fill="none" stroke="#191970" d="M825.3417,-252.7472C998.4342,-243.1784 1505.9678,-215.1212 1701.4747,-204.3133"/>
<polygon fill="#191970" stroke="#191970" points="1701.8741,-207.7967 1711.6657,-203.75 1701.4877,-200.8074 1701.8741,-207.7967"/>
</g>
<!-- Node21&#45;&gt;Node1 -->
<g id="edge36" class="edge">
<title>Node21&#45;&gt;Node1</title>
<path fill="none" stroke="#191970" d="M955.4117,-190.2512C951.3416,-173.7214 940.728,-140.3079 918.5,-123 905.3766,-112.7814 815.8503,-94.65 752.7118,-82.8549"/>
<polygon fill="#191970" stroke="#191970" points="753.2917,-79.4028 742.8208,-81.0185 752.0138,-86.2852 753.2917,-79.4028"/>
</g>
<!-- Node21&#45;&gt;Node5 -->
<g id="edge35" class="edge">
<title>Node21&#45;&gt;Node5</title>
<path fill="none" stroke="#191970" d="M959.9502,-190.3377C963.3493,-174.5234 967.5123,-142.8868 952.5,-123 923.7881,-84.9653 895.563,-105.1512 851.5,-87 850.1466,-86.4425 848.7684,-85.8592 847.381,-85.2594"/>
<polygon fill="#191970" stroke="#191970" points="848.811,-82.0649 838.2551,-81.1582 845.9416,-88.4498 848.811,-82.0649"/>
</g>
<!-- Node21&#45;&gt;Node17 -->
<g id="edge37" class="edge">
<title>Node21&#45;&gt;Node17</title>
<path fill="none" stroke="#191970" d="M941.0938,-190.3906C924.0647,-180.4165 897.2159,-164.6908 877.5349,-153.1633"/>
<polygon fill="#191970" stroke="#191970" points="879.1888,-150.0759 868.791,-148.0419 875.651,-156.1161 879.1888,-150.0759"/>
</g>
<!-- Node22 -->
<g id="node23" class="node">
<title>Node22</title>
<polygon fill="none" stroke="#bfbfbf" points="1004.5,-129 1004.5,-148 1046.5,-148 1046.5,-129 1004.5,-129"/>
<text text-anchor="middle" x="1025.5" y="-136" font-family="Helvetica,sans-Serif" font-size="10.00" fill="#000000">array</text>
</g>
<!-- Node21&#45;&gt;Node22 -->
<g id="edge34" class="edge">
<title>Node21&#45;&gt;Node22</title>
<path fill="none" stroke="#191970" d="M968.125,-190.3906C978.5431,-180.9683 994.6364,-166.4134 1007.1304,-155.1137"/>
<polygon fill="#191970" stroke="#191970" points="1009.6562,-157.5484 1014.7252,-148.2449 1004.9608,-152.3568 1009.6562,-157.5484"/>
</g>
<!-- Node23 -->
<g id="node24" class="node">
<title>Node23</title>
<g id="a_node24"><a xlink:href="../../d6/d84/MathConstants_8h.html" target="_top" xlink:title="useful math constants ">
<polygon fill="none" stroke="#000000" points="1064.5,-129 1064.5,-148 1258.5,-148 1258.5,-129 1064.5,-129"/>
<text text-anchor="middle" x="1161.5" y="-136" font-family="Helvetica,sans-Serif" font-size="10.00" fill="#000000">CommonConstants/MathConstants.h</text>
</a>
</g>
</g>
<!-- Node21&#45;&gt;Node23 -->
<g id="edge38" class="edge">
<title>Node21&#45;&gt;Node23</title>
<path fill="none" stroke="#191970" d="M989.375,-190.3906C1024.5559,-179.7846 1081.3088,-162.6753 1119.9515,-151.0257"/>
<polygon fill="#191970" stroke="#191970" points="1121.2847,-154.2794 1129.8488,-148.0419 1119.2642,-147.5773 1121.2847,-154.2794"/>
</g>
<!-- Node24&#45;&gt;Node13 -->
<g id="edge45" class="edge">
<title>Node24&#45;&gt;Node13</title>
<path fill="none" stroke="#191970" d="M1789.9296,-190.2237C1805.1186,-174.7962 1829.8255,-144.3651 1813.5,-123 1767.3973,-62.6656 1532.6268,-26.8772 1438.0548,-14.7132"/>
<polygon fill="#191970" stroke="#191970" points="1438.3876,-11.2275 1428.0274,-13.4448 1437.5091,-18.1722 1438.3876,-11.2275"/>
</g>
<!-- Node25 -->
<g id="node26" class="node">
<title>Node25</title>
<polygon fill="none" stroke="#bfbfbf" points="2014.5,-123.5 2014.5,-153.5 2178.5,-153.5 2178.5,-123.5 2014.5,-123.5"/>
<text text-anchor="start" x="2022.5" y="-141.5" font-family="Helvetica,sans-Serif" font-size="10.00" fill="#000000">Math/GenVector/Displacement</text>
<text text-anchor="middle" x="2096.5" y="-130.5" font-family="Helvetica,sans-Serif" font-size="10.00" fill="#000000">Vector3D.h</text>
</g>
<!-- Node24&#45;&gt;Node25 -->
<g id="edge40" class="edge">
<title>Node24&#45;&gt;Node25</title>
<path fill="none" stroke="#191970" d="M1828.6834,-190.4581C1876.7689,-181.1292 1951.0264,-166.7228 2009.1635,-155.4438"/>
<polygon fill="#191970" stroke="#191970" points="2009.933,-158.8599 2019.0834,-153.5193 2008.5998,-151.988 2009.933,-158.8599"/>
</g>
<!-- Node26 -->
<g id="node27" class="node">
<title>Node26</title>
<polygon fill="none" stroke="#bfbfbf" points="2197,-129 2197,-148 2386,-148 2386,-129 2197,-129"/>
<text text-anchor="middle" x="2291.5" y="-136" font-family="Helvetica,sans-Serif" font-size="10.00" fill="#000000">Math/GenVector/PositionVector3D.h</text>
</g>
<!-- Node24&#45;&gt;Node26 -->
<g id="edge41" class="edge">
<title>Node24&#45;&gt;Node26</title>
<path fill="none" stroke="#191970" d="M1847.0905,-193.1256C1928.0905,-184.7149 2067.8748,-169.6529 2187.5,-154 2198.1016,-152.6128 2209.296,-151.049 2220.257,-149.462"/>
<polygon fill="#191970" stroke="#191970" points="2220.8459,-152.9132 2230.2339,-148.0025 2219.8326,-145.9869 2220.8459,-152.9132"/>
</g>
<!-- Node27 -->
<g id="node28" class="node">
<title>Node27</title>
<polygon fill="none" stroke="#bfbfbf" points="2404.5,-129 2404.5,-148 2564.5,-148 2564.5,-129 2404.5,-129"/>
<text text-anchor="middle" x="2484.5" y="-136" font-family="Helvetica,sans-Serif" font-size="10.00" fill="#000000">Math/GenVector/Rotation3D.h</text>
</g>
<!-- Node24&#45;&gt;Node27 -->
<g id="edge42" class="edge">
<title>Node24&#45;&gt;Node27</title>
<path fill="none" stroke="#191970" d="M1847.1659,-197.1167C1960.7967,-191.7896 2197.0162,-178.6346 2395.5,-154 2404.9725,-152.8243 2414.9711,-151.3316 2424.7104,-149.7391"/>
<polygon fill="#191970" stroke="#191970" points="2425.4524,-153.1635 2434.7329,-148.0525 2424.2907,-146.2606 2425.4524,-153.1635"/>
</g>
<!-- Node28 -->
<g id="node29" class="node">
<title>Node28</title>
<polygon fill="none" stroke="#bfbfbf" points="1276.5,-129 1276.5,-148 1444.5,-148 1444.5,-129 1276.5,-129"/>
<text text-anchor="middle" x="1360.5" y="-136" font-family="Helvetica,sans-Serif" font-size="10.00" fill="#000000">Math/GenVector/Transform3D.h</text>
</g>
<!-- Node24&#45;&gt;Node28 -->
<g id="edge43" class="edge">
<title>Node24&#45;&gt;Node28</title>
<path fill="none" stroke="#191970" d="M1711.8978,-190.8894C1646.1137,-181.9158 1543.3587,-167.6128 1454.5,-154 1445.6153,-152.6389 1436.2668,-151.1572 1427.0517,-149.6674"/>
<polygon fill="#191970" stroke="#191970" points="1427.5655,-146.2051 1417.1331,-148.053 1426.4409,-153.1141 1427.5655,-146.2051"/>
</g>
<!-- Node29 -->
<g id="node30" class="node">
<title>Node29</title>
<polygon fill="none" stroke="#bfbfbf" points="1463,-129 1463,-148 1636,-148 1636,-129 1463,-129"/>
<text text-anchor="middle" x="1549.5" y="-136" font-family="Helvetica,sans-Serif" font-size="10.00" fill="#000000">Math/GenVector/Translation3D.h</text>
</g>
<!-- Node24&#45;&gt;Node29 -->
<g id="edge44" class="edge">
<title>Node24&#45;&gt;Node29</title>
<path fill="none" stroke="#191970" d="M1743.8149,-190.4581C1703.7807,-179.7533 1638.7429,-162.3628 1595.065,-150.6837"/>
<polygon fill="#191970" stroke="#191970" points="1595.8336,-147.2663 1585.2689,-148.0643 1594.0253,-154.0287 1595.8336,-147.2663"/>
</g>
<!-- Node30 -->
<g id="node31" class="node">
<title>Node30</title>
<polygon fill="none" stroke="#bfbfbf" points="1654.5,-129 1654.5,-148 1736.5,-148 1736.5,-129 1654.5,-129"/>
<text text-anchor="middle" x="1695.5" y="-136" font-family="Helvetica,sans-Serif" font-size="10.00" fill="#000000">TGeoMatrix.h</text>
</g>
<!-- Node24&#45;&gt;Node30 -->
<g id="edge46" class="edge">
<title>Node24&#45;&gt;Node30</title>
<path fill="none" stroke="#191970" d="M1766.375,-190.3906C1753.06,-180.6421 1732.2406,-165.3994 1716.6053,-153.9521"/>
<polygon fill="#191970" stroke="#191970" points="1718.6691,-151.1253 1708.5328,-148.0419 1714.5339,-156.7734 1718.6691,-151.1253"/>
</g>
<!-- Node31 -->
<g id="node32" class="node">
<title>Node31</title>
<polygon fill="none" stroke="#bfbfbf" points="1755,-129 1755,-148 1804,-148 1804,-129 1755,-129"/>
<text text-anchor="middle" x="1779.5" y="-136" font-family="Helvetica,sans-Serif" font-size="10.00" fill="#000000">iosfwd</text>
</g>
<!-- Node24&#45;&gt;Node31 -->
<g id="edge47" class="edge">
<title>Node24&#45;&gt;Node31</title>
<path fill="none" stroke="#191970" d="M1779.5,-190.3906C1779.5,-181.8657 1779.5,-169.1392 1779.5,-158.4235"/>
<polygon fill="#191970" stroke="#191970" points="1783.0001,-158.2448 1779.5,-148.2449 1776.0001,-158.2449 1783.0001,-158.2448"/>
</g>
<!-- Node32 -->
<g id="node33" class="node">
<title>Node32</title>
<g id="a_node33"><a xlink:href="../../d2/dd0/Cartesian2D_8h.html" target="_top" xlink:title="MathUtils/Cartesian2D.h">
<polygon fill="none" stroke="#000000" points="1861,-129 1861,-148 1996,-148 1996,-129 1861,-129"/>
<text text-anchor="middle" x="1928.5" y="-136" font-family="Helvetica,sans-Serif" font-size="10.00" fill="#000000">MathUtils/Cartesian2D.h</text>
</a>
</g>
</g>
<!-- Node24&#45;&gt;Node32 -->
<g id="edge48" class="edge">
<title>Node24&#45;&gt;Node32</title>
<path fill="none" stroke="#191970" d="M1802.7813,-190.3906C1827.821,-180.0554 1867.8225,-163.5447 1895.966,-151.9284"/>
<polygon fill="#191970" stroke="#191970" points="1897.474,-155.0925 1905.3822,-148.0419 1894.8033,-148.622 1897.474,-155.0925"/>
</g>
<!-- Node33 -->
<g id="node34" class="node">
<title>Node33</title>
<polygon fill="none" stroke="#bfbfbf" points="2068.5,-56.5 2068.5,-86.5 2232.5,-86.5 2232.5,-56.5 2068.5,-56.5"/>
<text text-anchor="start" x="2076.5" y="-74.5" font-family="Helvetica,sans-Serif" font-size="10.00" fill="#000000">Math/GenVector/Displacement</text>
<text text-anchor="middle" x="2150.5" y="-63.5" font-family="Helvetica,sans-Serif" font-size="10.00" fill="#000000">Vector2D.h</text>
</g>
<!-- Node32&#45;&gt;Node33 -->
<g id="edge49" class="edge">
<title>Node32&#45;&gt;Node33</title>
<path fill="none" stroke="#191970" d="M1960.3072,-128.9005C1994.3431,-118.6284 2049.107,-102.1006 2091.1492,-89.4122"/>
<polygon fill="#191970" stroke="#191970" points="2092.1642,-92.7619 2100.7264,-86.5218 2090.1416,-86.0604 2092.1642,-92.7619"/>
</g>
<!-- Node34 -->
<g id="node35" class="node">
<title>Node34</title>
<polygon fill="none" stroke="#bfbfbf" points="1861,-62 1861,-81 2050,-81 2050,-62 1861,-62"/>
<text text-anchor="middle" x="1955.5" y="-69" font-family="Helvetica,sans-Serif" font-size="10.00" fill="#000000">Math/GenVector/PositionVector2D.h</text>
</g>
<!-- Node32&#45;&gt;Node34 -->
<g id="edge50" class="edge">
<title>Node32&#45;&gt;Node34</title>
<path fill="none" stroke="#191970" d="M1932.3684,-128.9005C1936.3784,-118.95 1942.7539,-103.1292 1947.797,-90.6147"/>
<polygon fill="#191970" stroke="#191970" points="1951.1472,-91.6651 1951.6387,-81.0817 1944.6546,-89.0486 1951.1472,-91.6651"/>
</g>
</g>
</svg>
