<?xml version="1.0" encoding="UTF-8" standalone="no"?>
<!DOCTYPE svg PUBLIC "-//W3C//DTD SVG 1.1//EN"
 "http://www.w3.org/Graphics/SVG/1.1/DTD/svg11.dtd">
<!-- Generated by graphviz version 2.40.1 (20161225.0304)
 -->
<!-- Title: /home/travis/build/AliceO2Group/AliceO2/GPU/TPCFastTransformation/TPCFastTransformManager.cxx Pages: 1 -->
<!--zoomable 453 -->
<svg id="main" version="1.1" xmlns="http://www.w3.org/2000/svg" xmlns:xlink="http://www.w3.org/1999/xlink" xml:space="preserve" onload="init(evt)">
<style type="text/css"><![CDATA[
.edge:hover path { stroke: red; }
.edge:hover polygon { stroke: red; fill: red; }
]]></style>
<script type="text/javascript"><![CDATA[
var edges = document.getElementsByTagName('g');
if (edges && edges.length) {
  for (var i=0;i<edges.length;i++) {
    if (edges[i].id.substr(0,4)=='edge') {
      edges[i].setAttribute('class','edge');
    }
  }
}
]]></script>
        <defs>
                <circle id="rim" cx="0" cy="0" r="7"/>
                <circle id="rim2" cx="0" cy="0" r="3.5"/>
                <g id="zoomPlus">
                        <use xlink:href="#rim" fill="#404040">
                                <set attributeName="fill" to="#808080" begin="zoomplus.mouseover" end="zoomplus.mouseout"/>
                        </use>
                        <path d="M-4,0h8M0,-4v8" fill="none" stroke="white" stroke-width="1.5" pointer-events="none"/>
                </g>
                <g id="zoomMin">
                        <use xlink:href="#rim" fill="#404040">
                                <set attributeName="fill" to="#808080" begin="zoomminus.mouseover" end="zoomminus.mouseout"/>
                        </use>
                        <path d="M-4,0h8" fill="none" stroke="white" stroke-width="1.5" pointer-events="none"/>
                </g>
                <g id="dirArrow">
                        <path fill="none" stroke="white" stroke-width="1.5" d="M0,-3.0v7 M-2.5,-0.5L0,-3.0L2.5,-0.5"/>
                </g>
               <g id="resetDef">
                       <use xlink:href="#rim2" fill="#404040">
                               <set attributeName="fill" to="#808080" begin="reset.mouseover" end="reset.mouseout"/>
                       </use>
               </g>
        </defs>

<script type="text/javascript">
var viewWidth = 1271;
var viewHeight = 453;
var sectionId = 'dynsection-0';
</script>
<script xlink:href="../../svgpan.js"/>
<svg id="graph" class="graph">
<g id="viewport">
<title>/home/travis/build/AliceO2Group/AliceO2/GPU/TPCFastTransformation/TPCFastTransformManager.cxx</title>
<!-- Node0 -->
<g id="node1" class="node">
<title>Node0</title>
<polygon fill="#bfbfbf" stroke="#000000" points="658,-392.5 658,-444.5 826,-444.5 826,-392.5 658,-392.5"/>
<text text-anchor="start" x="666" y="-432.5" font-family="Helvetica,sans-Serif" font-size="10.00" fill="#000000">/home/travis/build</text>
<text text-anchor="start" x="666" y="-421.5" font-family="Helvetica,sans-Serif" font-size="10.00" fill="#000000">/AliceO2Group/AliceO2</text>
<text text-anchor="start" x="666" y="-410.5" font-family="Helvetica,sans-Serif" font-size="10.00" fill="#000000">/GPU/TPCFastTransformation</text>
<text text-anchor="middle" x="742" y="-399.5" font-family="Helvetica,sans-Serif" font-size="10.00" fill="#000000">/TPCFastTransformManager.cxx</text>
</g>
<!-- Node1 -->
<g id="node2" class="node">
<title>Node1</title>
<g id="a_node2"><a xlink:href="../../d5/d2a/TPCFastTransformManager_8h.html" target="_top" xlink:title="Definition of TPCFastTransformManager class. ">
<polygon fill="none" stroke="#000000" points="628,-224.5 628,-243.5 782,-243.5 782,-224.5 628,-224.5"/>
<text text-anchor="middle" x="705" y="-231.5" font-family="Helvetica,sans-Serif" font-size="10.00" fill="#000000">TPCFastTransformManager.h</text>
</a>
</g>
</g>
<!-- Node0&#45;&gt;Node1 -->
<g id="edge1" class="edge">
<title>Node0&#45;&gt;Node1</title>
<path fill="none" stroke="#191970" d="M826.1002,-407.2739C886.3846,-397.3014 960.1385,-380.4803 979,-356 984.4252,-348.9587 984.0718,-343.2999 979,-336 953.0333,-298.626 829.0098,-263.5648 757.0379,-245.9133"/>
<polygon fill="#191970" stroke="#191970" points="757.7865,-242.4935 747.2434,-243.5397 756.1378,-249.2966 757.7865,-242.4935"/>
</g>
<!-- Node8 -->
<g id="node9" class="node">
<title>Node8</title>
<polygon fill="none" stroke="#bfbfbf" points="565,-168.5 565,-187.5 671,-187.5 671,-168.5 565,-168.5"/>
<text text-anchor="middle" x="618" y="-175.5" font-family="Helvetica,sans-Serif" font-size="10.00" fill="#000000">AliTPCTransform.h</text>
</g>
<!-- Node0&#45;&gt;Node8 -->
<g id="edge12" class="edge">
<title>Node0&#45;&gt;Node8</title>
<path fill="none" stroke="#191970" d="M657.9047,-408.6867C593.2504,-399.2081 511.6014,-382.3603 491,-356 456.751,-312.177 485.6467,-369.2522 580,-244 591.2669,-229.0434 601.6977,-210.4358 608.7692,-196.7944"/>
<polygon fill="#191970" stroke="#191970" points="611.8968,-198.3653 613.2885,-187.8623 605.6508,-195.205 611.8968,-198.3653"/>
</g>
<!-- Node9 -->
<g id="node10" class="node">
<title>Node9</title>
<polygon fill="none" stroke="#bfbfbf" points="500,-336.5 500,-355.5 622,-355.5 622,-336.5 500,-336.5"/>
<text text-anchor="middle" x="561" y="-343.5" font-family="Helvetica,sans-Serif" font-size="10.00" fill="#000000">AliHLTTPCGeometry.h</text>
</g>
<!-- Node0&#45;&gt;Node9 -->
<g id="edge9" class="edge">
<title>Node0&#45;&gt;Node9</title>
<path fill="none" stroke="#191970" d="M676.9106,-392.4283C648.8874,-381.2035 617.3271,-368.5619 594.2227,-359.3074"/>
<polygon fill="#191970" stroke="#191970" points="595.4579,-356.0319 584.8735,-355.5626 592.855,-362.53 595.4579,-356.0319"/>
</g>
<!-- Node10 -->
<g id="node11" class="node">
<title>Node10</title>
<polygon fill="none" stroke="#bfbfbf" points="640,-336.5 640,-355.5 728,-355.5 728,-336.5 640,-336.5"/>
<text text-anchor="middle" x="684" y="-343.5" font-family="Helvetica,sans-Serif" font-size="10.00" fill="#000000">AliTPCParam.h</text>
</g>
<!-- Node0&#45;&gt;Node10 -->
<g id="edge10" class="edge">
<title>Node0&#45;&gt;Node10</title>
<path fill="none" stroke="#191970" d="M721.0607,-392.3258C713.3705,-382.7131 704.8588,-372.0735 697.9339,-363.4174"/>
<polygon fill="#191970" stroke="#191970" points="700.6072,-361.1563 691.6272,-355.534 695.1411,-365.5292 700.6072,-361.1563"/>
</g>
<!-- Node11 -->
<g id="node12" class="node">
<title>Node11</title>
<polygon fill="none" stroke="#bfbfbf" points="745.5,-336.5 745.5,-355.5 856.5,-355.5 856.5,-336.5 745.5,-336.5"/>
<text text-anchor="middle" x="801" y="-343.5" font-family="Helvetica,sans-Serif" font-size="10.00" fill="#000000">AliTPCRecoParam.h</text>
</g>
<!-- Node0&#45;&gt;Node11 -->
<g id="edge11" class="edge">
<title>Node0&#45;&gt;Node11</title>
<path fill="none" stroke="#191970" d="M763.3004,-392.3258C771.1231,-382.7131 779.7815,-372.0735 786.8258,-363.4174"/>
<polygon fill="#191970" stroke="#191970" points="789.644,-365.4995 793.2413,-355.534 784.2146,-361.0811 789.644,-365.4995"/>
</g>
<!-- Node12 -->
<g id="node13" class="node">
<title>Node12</title>
<polygon fill="none" stroke="#bfbfbf" points="874.5,-336.5 874.5,-355.5 969.5,-355.5 969.5,-336.5 874.5,-336.5"/>
<text text-anchor="middle" x="922" y="-343.5" font-family="Helvetica,sans-Serif" font-size="10.00" fill="#000000">AliTPCcalibDB.h</text>
</g>
<!-- Node0&#45;&gt;Node12 -->
<g id="edge13" class="edge">
<title>Node0&#45;&gt;Node12</title>
<path fill="none" stroke="#191970" d="M806.7298,-392.4283C834.5981,-381.2035 865.9841,-368.5619 888.9609,-359.3074"/>
<polygon fill="#191970" stroke="#191970" points="890.2902,-362.5453 898.2584,-355.5626 887.6749,-356.0522 890.2902,-362.5453"/>
</g>
<!-- Node13 -->
<g id="node14" class="node">
<title>Node13</title>
<g id="a_node14"><a xlink:href="../../d4/db1/TPCFastTransform_8h.html" target="_top" xlink:title="Definition of TPCFastTransform class. ">
<polygon fill="none" stroke="#000000" points="307.5,-336.5 307.5,-355.5 420.5,-355.5 420.5,-336.5 307.5,-336.5"/>
<text text-anchor="middle" x="364" y="-343.5" font-family="Helvetica,sans-Serif" font-size="10.00" fill="#000000">TPCFastTransform.h</text>
</a>
</g>
</g>
<!-- Node0&#45;&gt;Node13 -->
<g id="edge14" class="edge">
<title>Node0&#45;&gt;Node13</title>
<path fill="none" stroke="#191970" d="M657.6399,-402.3198C586.6337,-388.7009 486.8537,-369.5632 423.8245,-357.4743"/>
<polygon fill="#191970" stroke="#191970" points="424.1313,-353.9694 413.651,-355.523 422.8127,-360.8441 424.1313,-353.9694"/>
</g>
<!-- Node32 -->
<g id="node33" class="node">
<title>Node32</title>
<g id="a_node33"><a xlink:href="../../d0/d1e/SplineHelper2D_8h.html" target="_top" xlink:title="Definition of SplineHelper2D class. ">
<polygon fill="none" stroke="#000000" points="1015.5,-280.5 1015.5,-299.5 1116.5,-299.5 1116.5,-280.5 1015.5,-280.5"/>
<text text-anchor="middle" x="1066" y="-287.5" font-family="Helvetica,sans-Serif" font-size="10.00" fill="#000000">SplineHelper2D.h</text>
</a>
</g>
</g>
<!-- Node0&#45;&gt;Node32 -->
<g id="edge46" class="edge">
<title>Node0&#45;&gt;Node32</title>
<path fill="none" stroke="#191970" d="M826.1051,-405.1454C893.3413,-393.3581 981.2527,-375.1177 1012,-356 1030.7707,-344.329 1046.0136,-323.8235 1055.4594,-308.7573"/>
<polygon fill="#191970" stroke="#191970" points="1058.6915,-310.1709 1060.8083,-299.7897 1052.6797,-306.585 1058.6915,-310.1709"/>
</g>
<!-- Node2 -->
<g id="node3" class="node">
<title>Node2</title>
<polygon fill="none" stroke="#bfbfbf" points="765.5,-168.5 765.5,-187.5 812.5,-187.5 812.5,-168.5 765.5,-168.5"/>
<text text-anchor="middle" x="789" y="-175.5" font-family="Helvetica,sans-Serif" font-size="10.00" fill="#000000">cmath</text>
</g>
<!-- Node1&#45;&gt;Node2 -->
<g id="edge2" class="edge">
<title>Node1&#45;&gt;Node2</title>
<path fill="none" stroke="#191970" d="M719.6317,-224.2455C732.3994,-215.7337 751.1438,-203.2375 765.9299,-193.3801"/>
<polygon fill="#191970" stroke="#191970" points="768.1569,-196.1019 774.536,-187.6427 764.274,-190.2775 768.1569,-196.1019"/>
</g>
<!-- Node3 -->
<g id="node4" class="node">
<title>Node3</title>
<g id="a_node4"><a xlink:href="../../df/d21/GPUCommonDef_8h.html" target="_top" xlink:title="GPUCommonDef.h">
<polygon fill="none" stroke="#000000" points="636.5,-56.5 636.5,-75.5 743.5,-75.5 743.5,-56.5 636.5,-56.5"/>
<text text-anchor="middle" x="690" y="-63.5" font-family="Helvetica,sans-Serif" font-size="10.00" fill="#000000">GPUCommonDef.h</text>
</a>
</g>
</g>
<!-- Node1&#45;&gt;Node3 -->
<g id="edge3" class="edge">
<title>Node1&#45;&gt;Node3</title>
<path fill="none" stroke="#191970" d="M704.1506,-224.4862C701.7794,-197.9293 695.0505,-122.5651 691.8005,-86.1655"/>
<polygon fill="#191970" stroke="#191970" points="695.253,-85.477 690.8775,-75.8279 688.2808,-86.0996 695.253,-85.477"/>
</g>
<!-- Node6 -->
<g id="node7" class="node">
<title>Node6</title>
<polygon fill="none" stroke="#bfbfbf" points="1022.5,-.5 1022.5,-19.5 1081.5,-19.5 1081.5,-.5 1022.5,-.5"/>
<text text-anchor="middle" x="1052" y="-7.5" font-family="Helvetica,sans-Serif" font-size="10.00" fill="#000000">Rtypes.h</text>
</g>
<!-- Node1&#45;&gt;Node6 -->
<g id="edge6" class="edge">
<title>Node1&#45;&gt;Node6</title>
<path fill="none" stroke="#191970" d="M710.5518,-224.4514C718.9656,-210.6185 736.0913,-184.8237 756,-168 838.8576,-97.9819 957.8033,-46.2224 1016.4862,-23.2093"/>
<polygon fill="#191970" stroke="#191970" points="1017.9864,-26.3816 1026.0471,-19.5059 1015.458,-19.8542 1017.9864,-26.3816"/>
</g>
<!-- Node7 -->
<g id="node8" class="node">
<title>Node7</title>
<polygon fill="none" stroke="#bfbfbf" points="957,-168.5 957,-187.5 1017,-187.5 1017,-168.5 957,-168.5"/>
<text text-anchor="middle" x="987" y="-175.5" font-family="Helvetica,sans-Serif" font-size="10.00" fill="#000000">TString.h</text>
</g>
<!-- Node1&#45;&gt;Node7 -->
<g id="edge7" class="edge">
<title>Node1&#45;&gt;Node7</title>
<path fill="none" stroke="#191970" d="M760.7009,-224.5C807.8695,-216.2181 877.4875,-203.4403 947.0058,-188.1217"/>
<polygon fill="#191970" stroke="#191970" points="947.809,-191.5286 956.8121,-185.9435 946.2911,-184.6952 947.809,-191.5286"/>
</g>
<!-- Node1&#45;&gt;Node8 -->
<g id="edge8" class="edge">
<title>Node1&#45;&gt;Node8</title>
<path fill="none" stroke="#191970" d="M689.8458,-224.2455C676.4973,-215.6534 656.8414,-203.0014 641.4617,-193.1018"/>
<polygon fill="#191970" stroke="#191970" points="643.2836,-190.1121 632.9806,-187.6427 639.4949,-195.9982 643.2836,-190.1121"/>
</g>
<!-- Node4 -->
<g id="node5" class="node">
<title>Node4</title>
<g id="a_node5"><a xlink:href="../../d5/d93/GPUCommonDefSettings_8h.html" target="_top" xlink:title="GPUCommonDefSettings.h">
<polygon fill="none" stroke="#000000" points="693,-.5 693,-19.5 841,-19.5 841,-.5 693,-.5"/>
<text text-anchor="middle" x="767" y="-7.5" font-family="Helvetica,sans-Serif" font-size="10.00" fill="#000000">GPUCommonDefSettings.h</text>
</a>
</g>
</g>
<!-- Node3&#45;&gt;Node4 -->
<g id="edge4" class="edge">
<title>Node3&#45;&gt;Node4</title>
<path fill="none" stroke="#191970" d="M703.4124,-56.2455C715.0057,-47.814 731.9748,-35.4729 745.4678,-25.6598"/>
<polygon fill="#191970" stroke="#191970" points="747.7126,-28.355 753.7413,-19.6427 743.5953,-22.6938 747.7126,-28.355"/>
</g>
<!-- Node5 -->
<g id="node6" class="node">
<title>Node5</title>
<g id="a_node6"><a xlink:href="../../da/d5a/GPUCommonDefAPI_8h.html" target="_top" xlink:title="GPUCommonDefAPI.h">
<polygon fill="none" stroke="#000000" points="551,-.5 551,-19.5 675,-19.5 675,-.5 551,-.5"/>
<text text-anchor="middle" x="613" y="-7.5" font-family="Helvetica,sans-Serif" font-size="10.00" fill="#000000">GPUCommonDefAPI.h</text>
</a>
</g>
</g>
<!-- Node3&#45;&gt;Node5 -->
<g id="edge5" class="edge">
<title>Node3&#45;&gt;Node5</title>
<path fill="none" stroke="#191970" d="M676.5876,-56.2455C664.9943,-47.814 648.0252,-35.4729 634.5322,-25.6598"/>
<polygon fill="#191970" stroke="#191970" points="636.4047,-22.6938 626.2587,-19.6427 632.2874,-28.355 636.4047,-22.6938"/>
</g>
<!-- Node14 -->
<g id="node15" class="node">
<title>Node14</title>
<g id="a_node15"><a xlink:href="../../db/dff/FlatObject_8h.html" target="_top" xlink:title="Definition of FlatObject class. ">
<polygon fill="none" stroke="#000000" points="265.5,-112.5 265.5,-131.5 340.5,-131.5 340.5,-112.5 265.5,-112.5"/>
<text text-anchor="middle" x="303" y="-119.5" font-family="Helvetica,sans-Serif" font-size="10.00" fill="#000000">FlatObject.h</text>
</a>
</g>
</g>
<!-- Node13&#45;&gt;Node14 -->
<g id="edge15" class="edge">
<title>Node13&#45;&gt;Node14</title>
<path fill="none" stroke="#191970" d="M366.6799,-336.0618C369.7828,-323.0585 373.9878,-299.6185 370,-280 364.2742,-251.8309 329.1171,-176.3656 312.1477,-140.9035"/>
<polygon fill="#191970" stroke="#191970" points="315.1882,-139.1501 307.6999,-131.6551 308.8799,-142.1841 315.1882,-139.1501"/>
</g>
<!-- Node24 -->
<g id="node25" class="node">
<title>Node24</title>
<g id="a_node25"><a xlink:href="../../d5/dde/TPCFastTransformGeo_8h.html" target="_top" xlink:title="Definition of TPCFastTransformGeo class. ">
<polygon fill="none" stroke="#000000" points="56,-112.5 56,-131.5 188,-131.5 188,-112.5 56,-112.5"/>
<text text-anchor="middle" x="122" y="-119.5" font-family="Helvetica,sans-Serif" font-size="10.00" fill="#000000">TPCFastTransformGeo.h</text>
</a>
</g>
</g>
<!-- Node13&#45;&gt;Node24 -->
<g id="edge27" class="edge">
<title>Node13&#45;&gt;Node24</title>
<path fill="none" stroke="#191970" d="M307.45,-343.8289C240.9154,-339.9475 136.3894,-329.2445 112,-300 73.7494,-254.1351 98.8405,-176.2875 113.5192,-140.7252"/>
<polygon fill="#191970" stroke="#191970" points="116.7506,-142.0704 117.4908,-131.5014 110.3213,-139.302 116.7506,-142.0704"/>
</g>
<!-- Node25 -->
<g id="node26" class="node">
<title>Node25</title>
<g id="a_node26"><a xlink:href="../../d8/d93/TPCFastSpaceChargeCorrection_8h.html" target="_top" xlink:title="Definition of TPCFastSpaceChargeCorrection class. ">
<polygon fill="none" stroke="#000000" points="121,-280.5 121,-299.5 299,-299.5 299,-280.5 121,-280.5"/>
<text text-anchor="middle" x="210" y="-287.5" font-family="Helvetica,sans-Serif" font-size="10.00" fill="#000000">TPCFastSpaceChargeCorrection.h</text>
</a>
</g>
</g>
<!-- Node13&#45;&gt;Node25 -->
<g id="edge30" class="edge">
<title>Node13&#45;&gt;Node25</title>
<path fill="none" stroke="#191970" d="M337.5265,-336.3733C312.1403,-327.1419 273.6355,-313.1402 245.578,-302.9375"/>
<polygon fill="#191970" stroke="#191970" points="246.7222,-299.6293 236.1281,-299.5011 244.3299,-306.2079 246.7222,-299.6293"/>
</g>
<!-- Node29 -->
<g id="node30" class="node">
<title>Node29</title>
<g id="a_node30"><a xlink:href="../../d6/da2/GPUCommonMath_8h.html" target="_top" xlink:title="GPUCommonMath.h">
<polygon fill="none" stroke="#000000" points="369.5,-224.5 369.5,-243.5 484.5,-243.5 484.5,-224.5 369.5,-224.5"/>
<text text-anchor="middle" x="427" y="-231.5" font-family="Helvetica,sans-Serif" font-size="10.00" fill="#000000">GPUCommonMath.h</text>
</a>
</g>
</g>
<!-- Node13&#45;&gt;Node29 -->
<g id="edge41" class="edge">
<title>Node13&#45;&gt;Node29</title>
<path fill="none" stroke="#191970" d="M374.1237,-336.2073C382.7588,-327.3994 395.0097,-313.7632 403,-300 411.5013,-285.3567 417.8419,-267.178 421.8642,-253.6089"/>
<polygon fill="#191970" stroke="#191970" points="425.2649,-254.4441 424.59,-243.8707 418.524,-252.5572 425.2649,-254.4441"/>
</g>
<!-- Node31 -->
<g id="node32" class="node">
<title>Node31</title>
<polygon fill="none" stroke="#bfbfbf" points="317,-280.5 317,-299.5 361,-299.5 361,-280.5 317,-280.5"/>
<text text-anchor="middle" x="339" y="-287.5" font-family="Helvetica,sans-Serif" font-size="10.00" fill="#000000">string</text>
</g>
<!-- Node13&#45;&gt;Node31 -->
<g id="edge45" class="edge">
<title>Node13&#45;&gt;Node31</title>
<path fill="none" stroke="#191970" d="M359.6453,-336.2455C356.2756,-328.6973 351.507,-318.0158 347.4017,-308.8197"/>
<polygon fill="#191970" stroke="#191970" points="350.5773,-307.3473 343.3048,-299.6427 344.1853,-310.2009 350.5773,-307.3473"/>
</g>
<!-- Node14&#45;&gt;Node3 -->
<g id="edge21" class="edge">
<title>Node14&#45;&gt;Node3</title>
<path fill="none" stroke="#191970" d="M340.7277,-114.4765C345.5241,-113.599 350.3719,-112.7506 355,-112 472.1964,-92.9921 504.6331,-93.5171 626.3126,-76.0631"/>
<polygon fill="#191970" stroke="#191970" points="627.0019,-79.4999 636.3981,-74.6047 626.0001,-72.5719 627.0019,-79.4999"/>
</g>
<!-- Node15 -->
<g id="node16" class="node">
<title>Node15</title>
<polygon fill="none" stroke="#bfbfbf" points="422.5,-56.5 422.5,-75.5 475.5,-75.5 475.5,-56.5 422.5,-56.5"/>
<text text-anchor="middle" x="449" y="-63.5" font-family="Helvetica,sans-Serif" font-size="10.00" fill="#000000">cstddef</text>
</g>
<!-- Node14&#45;&gt;Node15 -->
<g id="edge16" class="edge">
<title>Node14&#45;&gt;Node15</title>
<path fill="none" stroke="#191970" d="M328.0983,-112.3733C351.9555,-103.2226 388.0335,-89.3844 414.571,-79.2057"/>
<polygon fill="#191970" stroke="#191970" points="416.1459,-82.3503 424.2292,-75.5011 413.639,-75.8145 416.1459,-82.3503"/>
</g>
<!-- Node16 -->
<g id="node17" class="node">
<title>Node16</title>
<polygon fill="none" stroke="#bfbfbf" points="0,-56.5 0,-75.5 58,-75.5 58,-56.5 0,-56.5"/>
<text text-anchor="middle" x="29" y="-63.5" font-family="Helvetica,sans-Serif" font-size="10.00" fill="#000000">memory</text>
</g>
<!-- Node14&#45;&gt;Node16 -->
<g id="edge17" class="edge">
<title>Node14&#45;&gt;Node16</title>
<path fill="none" stroke="#191970" d="M265.2377,-115.419C220.5146,-107.4535 143.5585,-93.2111 68.5064,-76.2429"/>
<polygon fill="#191970" stroke="#191970" points="68.9398,-72.752 58.4119,-73.9413 67.3836,-79.5768 68.9398,-72.752"/>
</g>
<!-- Node17 -->
<g id="node18" class="node">
<title>Node17</title>
<polygon fill="none" stroke="#bfbfbf" points="76,-56.5 76,-75.5 126,-75.5 126,-56.5 76,-56.5"/>
<text text-anchor="middle" x="101" y="-63.5" font-family="Helvetica,sans-Serif" font-size="10.00" fill="#000000">cstring</text>
</g>
<!-- Node14&#45;&gt;Node17 -->
<g id="edge18" class="edge">
<title>Node14&#45;&gt;Node17</title>
<path fill="none" stroke="#191970" d="M267.2235,-112.413C235.2365,-103.795 186.8336,-90.641 136.0753,-76.272"/>
<polygon fill="#191970" stroke="#191970" points="136.8114,-72.8428 126.2357,-73.4796 134.9002,-79.5768 136.8114,-72.8428"/>
</g>
<!-- Node18 -->
<g id="node19" class="node">
<title>Node18</title>
<polygon fill="none" stroke="#bfbfbf" points="286,-56.5 286,-75.5 338,-75.5 338,-56.5 286,-56.5"/>
<text text-anchor="middle" x="312" y="-63.5" font-family="Helvetica,sans-Serif" font-size="10.00" fill="#000000">cassert</text>
</g>
<!-- Node14&#45;&gt;Node18 -->
<g id="edge19" class="edge">
<title>Node14&#45;&gt;Node18</title>
<path fill="none" stroke="#191970" d="M304.5677,-112.2455C305.7421,-104.9382 307.3884,-94.6944 308.8332,-85.7046"/>
<polygon fill="#191970" stroke="#191970" points="312.3191,-86.0714 310.4503,-75.6427 305.4078,-84.9606 312.3191,-86.0714"/>
</g>
<!-- Node19 -->
<g id="node20" class="node">
<title>Node19</title>
<polygon fill="none" stroke="#bfbfbf" points="356,-56.5 356,-75.5 404,-75.5 404,-56.5 356,-56.5"/>
<text text-anchor="middle" x="380" y="-63.5" font-family="Helvetica,sans-Serif" font-size="10.00" fill="#000000">TFile.h</text>
</g>
<!-- Node14&#45;&gt;Node19 -->
<g id="edge20" class="edge">
<title>Node14&#45;&gt;Node19</title>
<path fill="none" stroke="#191970" d="M316.4124,-112.2455C328.0057,-103.814 344.9748,-91.4729 358.4678,-81.6598"/>
<polygon fill="#191970" stroke="#191970" points="360.7126,-84.355 366.7413,-75.6427 356.5953,-78.6938 360.7126,-84.355"/>
</g>
<!-- Node20 -->
<g id="node21" class="node">
<title>Node20</title>
<g id="a_node21"><a xlink:href="../../d2/d45/GPUCommonRtypes_8h.html" target="_top" xlink:title="GPUCommonRtypes.h">
<polygon fill="none" stroke="#000000" points="493.5,-56.5 493.5,-75.5 618.5,-75.5 618.5,-56.5 493.5,-56.5"/>
<text text-anchor="middle" x="556" y="-63.5" font-family="Helvetica,sans-Serif" font-size="10.00" fill="#000000">GPUCommonRtypes.h</text>
</a>
</g>
</g>
<!-- Node14&#45;&gt;Node20 -->
<g id="edge22" class="edge">
<title>Node14&#45;&gt;Node20</title>
<path fill="none" stroke="#191970" d="M340.6035,-113.6767C383.5262,-104.176 454.0598,-88.5638 502.6524,-77.8082"/>
<polygon fill="#191970" stroke="#191970" points="503.6634,-81.1692 512.6707,-75.5907 502.1505,-74.3346 503.6634,-81.1692"/>
</g>
<!-- Node21 -->
<g id="node22" class="node">
<title>Node21</title>
<g id="a_node22"><a xlink:href="../../df/d5b/GPUCommonLogger_8h.html" target="_top" xlink:title="GPUCommonLogger.h">
<polygon fill="none" stroke="#000000" points="144.5,-56.5 144.5,-75.5 267.5,-75.5 267.5,-56.5 144.5,-56.5"/>
<text text-anchor="middle" x="206" y="-63.5" font-family="Helvetica,sans-Serif" font-size="10.00" fill="#000000">GPUCommonLogger.h</text>
</a>
</g>
</g>
<!-- Node14&#45;&gt;Node21 -->
<g id="edge24" class="edge">
<title>Node14&#45;&gt;Node21</title>
<path fill="none" stroke="#191970" d="M286.1039,-112.2455C271.082,-103.5731 248.8957,-90.7645 231.679,-80.825"/>
<polygon fill="#191970" stroke="#191970" points="233.1128,-77.6114 222.7025,-75.6427 229.6129,-83.6737 233.1128,-77.6114"/>
</g>
<!-- Node20&#45;&gt;Node6 -->
<g id="edge23" class="edge">
<title>Node20&#45;&gt;Node6</title>
<path fill="none" stroke="#191970" d="M618.7053,-57.057C621.5076,-56.6924 624.2824,-56.3384 627,-56 768.5565,-38.3751 937.131,-21.2849 1012.3529,-13.8621"/>
<polygon fill="#191970" stroke="#191970" points="1012.7258,-17.3424 1022.335,-12.8799 1012.0403,-10.3761 1012.7258,-17.3424"/>
</g>
<!-- Node22 -->
<g id="node23" class="node">
<title>Node22</title>
<polygon fill="none" stroke="#bfbfbf" points="141,-.5 141,-19.5 201,-19.5 201,-.5 141,-.5"/>
<text text-anchor="middle" x="171" y="-7.5" font-family="Helvetica,sans-Serif" font-size="10.00" fill="#000000">iostream</text>
</g>
<!-- Node21&#45;&gt;Node22 -->
<g id="edge25" class="edge">
<title>Node21&#45;&gt;Node22</title>
<path fill="none" stroke="#191970" d="M199.9035,-56.2455C195.0855,-48.5367 188.2249,-37.5598 182.3968,-28.2348"/>
<polygon fill="#191970" stroke="#191970" points="185.2947,-26.2677 177.0267,-19.6427 179.3587,-29.9777 185.2947,-26.2677"/>
</g>
<!-- Node23 -->
<g id="node24" class="node">
<title>Node23</title>
<polygon fill="none" stroke="#bfbfbf" points="219,-.5 219,-19.5 265,-19.5 265,-.5 219,-.5"/>
<text text-anchor="middle" x="242" y="-7.5" font-family="Helvetica,sans-Serif" font-size="10.00" fill="#000000">cstdio</text>
</g>
<!-- Node21&#45;&gt;Node23 -->
<g id="edge26" class="edge">
<title>Node21&#45;&gt;Node23</title>
<path fill="none" stroke="#191970" d="M212.2707,-56.2455C217.2264,-48.5367 224.283,-37.5598 230.2776,-28.2348"/>
<polygon fill="#191970" stroke="#191970" points="233.3376,-29.9471 235.8011,-19.6427 227.4494,-26.1618 233.3376,-29.9471"/>
</g>
<!-- Node24&#45;&gt;Node3 -->
<g id="edge28" class="edge">
<title>Node24&#45;&gt;Node3</title>
<path fill="none" stroke="#191970" d="M188.3799,-116.5074C301.4058,-107.0656 527.7381,-87.748 626.4305,-75.9746"/>
<polygon fill="#191970" stroke="#191970" points="626.9168,-79.4413 636.4182,-74.7537 626.0674,-72.493 626.9168,-79.4413"/>
</g>
<!-- Node24&#45;&gt;Node16 -->
<g id="edge29" class="edge">
<title>Node24&#45;&gt;Node16</title>
<path fill="none" stroke="#191970" d="M105.8006,-112.2455C91.3982,-103.5731 70.1268,-90.7645 53.6201,-80.825"/>
<polygon fill="#191970" stroke="#191970" points="55.386,-77.8028 45.0137,-75.6427 51.775,-83.7996 55.386,-77.8028"/>
</g>
<!-- Node25&#45;&gt;Node3 -->
<g id="edge40" class="edge">
<title>Node25&#45;&gt;Node3</title>
<path fill="none" stroke="#191970" d="M219.2264,-280.2751C241.3846,-257.455 300.2135,-199.9891 360,-168 447.5074,-121.1787 559.7952,-92.2652 628.2476,-77.6742"/>
<polygon fill="#191970" stroke="#191970" points="629.364,-81.0164 638.4337,-75.5399 627.9284,-74.1652 629.364,-81.0164"/>
</g>
<!-- Node25&#45;&gt;Node14 -->
<g id="edge39" class="edge">
<title>Node25&#45;&gt;Node14</title>
<path fill="none" stroke="#191970" d="M215.2665,-280.4862C230.1586,-253.5845 272.7753,-176.5994 292.611,-140.7673"/>
<polygon fill="#191970" stroke="#191970" points="295.7785,-142.272 297.5596,-131.8279 289.6542,-138.8817 295.7785,-142.272"/>
</g>
<!-- Node25&#45;&gt;Node24 -->
<g id="edge38" class="edge">
<title>Node25&#45;&gt;Node24</title>
<path fill="none" stroke="#191970" d="M205.0166,-280.4862C190.9252,-253.5845 150.5997,-176.5994 131.8305,-140.7673"/>
<polygon fill="#191970" stroke="#191970" points="134.8885,-139.0622 127.1479,-131.8279 128.6876,-142.3103 134.8885,-139.0622"/>
</g>
<!-- Node26 -->
<g id="node27" class="node">
<title>Node26</title>
<g id="a_node27"><a xlink:href="../../dd/d27/Spline2D_8h.html" target="_top" xlink:title="Definition of Spline2D class. ">
<polygon fill="none" stroke="#000000" points="502.5,-224.5 502.5,-243.5 571.5,-243.5 571.5,-224.5 502.5,-224.5"/>
<text text-anchor="middle" x="537" y="-231.5" font-family="Helvetica,sans-Serif" font-size="10.00" fill="#000000">Spline2D.h</text>
</a>
</g>
</g>
<!-- Node25&#45;&gt;Node26 -->
<g id="edge31" class="edge">
<title>Node25&#45;&gt;Node26</title>
<path fill="none" stroke="#191970" d="M275.9674,-280.4677C331.0971,-272.2294 412.0099,-259.5092 492.176,-244.0617"/>
<polygon fill="#191970" stroke="#191970" points="493.3068,-247.4076 502.4559,-242.0648 491.972,-240.536 493.3068,-247.4076"/>
</g>
<!-- Node26&#45;&gt;Node3 -->
<g id="edge37" class="edge">
<title>Node26&#45;&gt;Node3</title>
<path fill="none" stroke="#191970" d="M537.878,-224.2302C539.509,-210.5811 544.0118,-185.5142 556,-168 583.2378,-128.2066 631.0019,-97.3492 661.536,-80.4315"/>
<polygon fill="#191970" stroke="#191970" points="663.2821,-83.4664 670.4172,-75.6343 659.9553,-77.3074 663.2821,-83.4664"/>
</g>
<!-- Node26&#45;&gt;Node14 -->
<g id="edge36" class="edge">
<title>Node26&#45;&gt;Node14</title>
<path fill="none" stroke="#191970" d="M525.4029,-224.2753C508.1665,-210.2231 474.3367,-184.1579 442,-168 412.8379,-153.4284 378.009,-141.9119 350.5102,-134.0466"/>
<polygon fill="#191970" stroke="#191970" points="351.3078,-130.6355 340.7348,-131.3151 349.4239,-137.3772 351.3078,-130.6355"/>
</g>
<!-- Node27 -->
<g id="node28" class="node">
<title>Node27</title>
<g id="a_node28"><a xlink:href="../../de/da6/Spline1D_8h.html" target="_top" xlink:title="Definition of Spline1D class. ">
<polygon fill="none" stroke="#000000" points="869.5,-168.5 869.5,-187.5 938.5,-187.5 938.5,-168.5 869.5,-168.5"/>
<text text-anchor="middle" x="904" y="-175.5" font-family="Helvetica,sans-Serif" font-size="10.00" fill="#000000">Spline1D.h</text>
</a>
</g>
</g>
<!-- Node26&#45;&gt;Node27 -->
<g id="edge32" class="edge">
<title>Node26&#45;&gt;Node27</title>
<path fill="none" stroke="#191970" d="M571.5265,-228.7317C638.3315,-218.538 785.2101,-196.126 859.337,-184.8151"/>
<polygon fill="#191970" stroke="#191970" points="859.9403,-188.2636 869.2979,-183.2951 858.8844,-181.3437 859.9403,-188.2636"/>
</g>
<!-- Node27&#45;&gt;Node3 -->
<g id="edge33" class="edge">
<title>Node27&#45;&gt;Node3</title>
<path fill="none" stroke="#191970" d="M899.4502,-168.331C892.142,-153.8621 876.4069,-126.7089 855,-112 825.0136,-91.396 786.0035,-79.9794 753.4435,-73.6746"/>
<polygon fill="#191970" stroke="#191970" points="754.0278,-70.2236 743.5629,-71.8776 752.7751,-77.1106 754.0278,-70.2236"/>
</g>
<!-- Node27&#45;&gt;Node14 -->
<g id="edge34" class="edge">
<title>Node27&#45;&gt;Node14</title>
<path fill="none" stroke="#191970" d="M869.3164,-173.5137C854.7199,-171.6923 837.5464,-169.6365 822,-168 648.756,-149.7639 442.4622,-132.9332 350.8801,-125.7132"/>
<polygon fill="#191970" stroke="#191970" points="351.0547,-122.2162 340.8111,-124.9217 350.5061,-129.1947 351.0547,-122.2162"/>
</g>
<!-- Node28 -->
<g id="node29" class="node">
<title>Node28</title>
<polygon fill="none" stroke="#bfbfbf" points="1027.5,-112.5 1027.5,-131.5 1092.5,-131.5 1092.5,-112.5 1027.5,-112.5"/>
<text text-anchor="middle" x="1060" y="-119.5" font-family="Helvetica,sans-Serif" font-size="10.00" fill="#000000">functional</text>
</g>
<!-- Node27&#45;&gt;Node28 -->
<g id="edge35" class="edge">
<title>Node27&#45;&gt;Node28</title>
<path fill="none" stroke="#191970" d="M930.8174,-168.3733C956.5332,-159.1419 995.538,-145.1402 1023.9599,-134.9375"/>
<polygon fill="#191970" stroke="#191970" points="1025.3032,-138.174 1033.5326,-131.5011 1022.9381,-131.5857 1025.3032,-138.174"/>
</g>
<!-- Node29&#45;&gt;Node2 -->
<g id="edge43" class="edge">
<title>Node29&#45;&gt;Node2</title>
<path fill="none" stroke="#191970" d="M484.7603,-225.0647C561.1829,-213.2424 693.4271,-192.7848 755.28,-183.2163"/>
<polygon fill="#191970" stroke="#191970" points="755.9363,-186.6565 765.2837,-181.6688 754.8661,-179.7388 755.9363,-186.6565"/>
</g>
<!-- Node29&#45;&gt;Node3 -->
<g id="edge42" class="edge">
<title>Node29&#45;&gt;Node3</title>
<path fill="none" stroke="#191970" d="M437.4481,-224.4456C461.8518,-202.4754 525.0824,-147.5281 585,-112 606.8717,-99.0312 633.0658,-87.5495 653.8197,-79.3009"/>
<polygon fill="#191970" stroke="#191970" points="655.186,-82.5249 663.2321,-75.6321 652.6438,-76.0028 655.186,-82.5249"/>
</g>
<!-- Node30 -->
<g id="node31" class="node">
<title>Node30</title>
<polygon fill="none" stroke="#bfbfbf" points="369,-168.5 369,-187.5 433,-187.5 433,-168.5 369,-168.5"/>
<text text-anchor="middle" x="401" y="-175.5" font-family="Helvetica,sans-Serif" font-size="10.00" fill="#000000">algorithm</text>
</g>
<!-- Node29&#45;&gt;Node30 -->
<g id="edge44" class="edge">
<title>Node29&#45;&gt;Node30</title>
<path fill="none" stroke="#191970" d="M422.4711,-224.2455C418.9666,-216.6973 414.0073,-206.0158 409.7377,-196.8197"/>
<polygon fill="#191970" stroke="#191970" points="412.8627,-195.2389 405.477,-187.6427 406.5136,-198.1867 412.8627,-195.2389"/>
</g>
<!-- Node32&#45;&gt;Node2 -->
<g id="edge47" class="edge">
<title>Node32&#45;&gt;Node2</title>
<path fill="none" stroke="#191970" d="M1015.2474,-282.0295C951.6036,-271.7134 848.9652,-253.8917 834,-244 816.8918,-232.6918 804.5334,-212.4258 797.1458,-197.3239"/>
<polygon fill="#191970" stroke="#191970" points="800.1654,-195.5104 792.8282,-187.8673 793.7977,-198.4177 800.1654,-195.5104"/>
</g>
<!-- Node32&#45;&gt;Node3 -->
<g id="edge49" class="edge">
<title>Node32&#45;&gt;Node3</title>
<path fill="none" stroke="#191970" d="M1042.3445,-280.4138C1020.8632,-271.5262 988.4397,-257.6531 961,-244 915.3946,-221.3083 904.0198,-215.2774 861,-188 804.9767,-152.4775 742.2346,-105.8415 710.6061,-81.8193"/>
<polygon fill="#191970" stroke="#191970" points="712.6163,-78.9507 702.5417,-75.6715 708.3724,-84.5176 712.6163,-78.9507"/>
</g>
<!-- Node32&#45;&gt;Node6 -->
<g id="edge50" class="edge">
<title>Node32&#45;&gt;Node6</title>
<path fill="none" stroke="#191970" d="M1116.7324,-283.4075C1175.1021,-272.6475 1263,-245.2754 1263,-178 1263,-178 1263,-178 1263,-122 1263,-45.3549 1153.0369,-21.0023 1091.8774,-13.3851"/>
<polygon fill="#191970" stroke="#191970" points="1092.1181,-9.8898 1081.7836,-12.2243 1091.3182,-16.844 1092.1181,-9.8898"/>
</g>
<!-- Node32&#45;&gt;Node7 -->
<g id="edge51" class="edge">
<title>Node32&#45;&gt;Node7</title>
<path fill="none" stroke="#191970" d="M1048.6246,-280.4802C1035.4107,-272.3988 1017.7294,-259.6358 1007,-244 997.4853,-230.1343 992.3907,-211.6166 989.7302,-197.7251"/>
<polygon fill="#191970" stroke="#191970" points="993.1659,-197.0481 988.0804,-187.7536 986.2597,-198.1908 993.1659,-197.0481"/>
</g>
<!-- Node32&#45;&gt;Node26 -->
<g id="edge53" class="edge">
<title>Node32&#45;&gt;Node26</title>
<path fill="none" stroke="#191970" d="M1015.3548,-285.1012C932.4507,-277.0117 762.6163,-260.1453 619,-244 606.9851,-242.6493 593.9907,-241.1037 581.9651,-239.6381"/>
<polygon fill="#191970" stroke="#191970" points="582.0474,-236.122 571.6955,-238.3776 581.1946,-243.0699 582.0474,-236.122"/>
</g>
<!-- Node32&#45;&gt;Node27 -->
<g id="edge52" class="edge">
<title>Node32&#45;&gt;Node27</title>
<path fill="none" stroke="#191970" d="M1050.1133,-280.4683C1035.1737,-271.3929 1012.2846,-257.1985 993,-244 968.9899,-227.5673 942.284,-207.5136 924.4489,-193.8538"/>
<polygon fill="#191970" stroke="#191970" points="926.517,-191.0289 916.4568,-187.7055 922.2488,-196.5771 926.517,-191.0289"/>
</g>
<!-- Node32&#45;&gt;Node28 -->
<g id="edge62" class="edge">
<title>Node32&#45;&gt;Node28</title>
<path fill="none" stroke="#191970" d="M1094.3428,-280.4422C1145.0471,-261.8098 1242.7024,-218.0447 1206,-168 1193.6285,-151.1312 1141.2582,-137.6134 1102.7637,-129.7046"/>
<polygon fill="#191970" stroke="#191970" points="1103.3062,-126.244 1092.8147,-127.7204 1101.937,-133.1088 1103.3062,-126.244"/>
</g>
<!-- Node33 -->
<g id="node34" class="node">
<title>Node33</title>
<polygon fill="none" stroke="#bfbfbf" points="1149.5,-168.5 1149.5,-187.5 1196.5,-187.5 1196.5,-168.5 1149.5,-168.5"/>
<text text-anchor="middle" x="1173" y="-175.5" font-family="Helvetica,sans-Serif" font-size="10.00" fill="#000000">vector</text>
</g>
<!-- Node32&#45;&gt;Node33 -->
<g id="edge48" class="edge">
<title>Node32&#45;&gt;Node33</title>
<path fill="none" stroke="#191970" d="M1080.8007,-280.4999C1093.5892,-271.8795 1112.1434,-258.3541 1126,-244 1140.1295,-229.3631 1153.2948,-210.1997 1162.0758,-196.2957"/>
<polygon fill="#191970" stroke="#191970" points="1165.1486,-197.9806 1167.4124,-187.6304 1159.1883,-194.3098 1165.1486,-197.9806"/>
</g>
<!-- Node34 -->
<g id="node35" class="node">
<title>Node34</title>
<g id="a_node35"><a xlink:href="../../d2/da7/SplineHelper1D_8h.html" target="_top" xlink:title="Definition of SplineHelper1D class. ">
<polygon fill="none" stroke="#000000" points="1015.5,-224.5 1015.5,-243.5 1116.5,-243.5 1116.5,-224.5 1015.5,-224.5"/>
<text text-anchor="middle" x="1066" y="-231.5" font-family="Helvetica,sans-Serif" font-size="10.00" fill="#000000">SplineHelper1D.h</text>
</a>
</g>
</g>
<!-- Node32&#45;&gt;Node34 -->
<g id="edge54" class="edge">
<title>Node32&#45;&gt;Node34</title>
<path fill="none" stroke="#191970" d="M1066,-280.2455C1066,-272.9382 1066,-262.6944 1066,-253.7046"/>
<polygon fill="#191970" stroke="#191970" points="1069.5001,-253.6426 1066,-243.6427 1062.5001,-253.6427 1069.5001,-253.6426"/>
</g>
<!-- Node34&#45;&gt;Node2 -->
<g id="edge55" class="edge">
<title>Node34&#45;&gt;Node2</title>
<path fill="none" stroke="#191970" d="M1018.6967,-224.4369C962.9852,-213.1739 871.834,-194.7462 822.782,-184.8296"/>
<polygon fill="#191970" stroke="#191970" points="823.1902,-181.3414 812.695,-182.7903 821.8031,-188.2026 823.1902,-181.3414"/>
</g>
<!-- Node34&#45;&gt;Node3 -->
<g id="edge57" class="edge">
<title>Node34&#45;&gt;Node3</title>
<path fill="none" stroke="#191970" d="M1062.4149,-224.0864C1056.774,-209.799 1044.524,-183.4435 1026,-168 947.2921,-102.3811 827.0813,-78.9583 753.8051,-70.6095"/>
<polygon fill="#191970" stroke="#191970" points="754.1039,-67.1216 743.7862,-69.5287 753.3531,-74.0812 754.1039,-67.1216"/>
</g>
<!-- Node34&#45;&gt;Node6 -->
<g id="edge58" class="edge">
<title>Node34&#45;&gt;Node6</title>
<path fill="none" stroke="#191970" d="M1072.4213,-224.2996C1085.2119,-203.7801 1111.8285,-154.3796 1102,-112 1094.7251,-80.631 1076.3897,-47.7827 1064.0626,-28.1034"/>
<polygon fill="#191970" stroke="#191970" points="1066.9229,-26.0804 1058.5685,-19.5646 1061.0362,-29.8681 1066.9229,-26.0804"/>
</g>
<!-- Node34&#45;&gt;Node7 -->
<g id="edge59" class="edge">
<title>Node34&#45;&gt;Node7</title>
<path fill="none" stroke="#191970" d="M1052.2393,-224.2455C1040.3448,-215.814 1022.935,-203.4729 1009.0915,-193.6598"/>
<polygon fill="#191970" stroke="#191970" points="1010.7854,-190.5704 1000.6031,-187.6427 1006.7372,-196.2811 1010.7854,-190.5704"/>
</g>
<!-- Node34&#45;&gt;Node27 -->
<g id="edge60" class="edge">
<title>Node34&#45;&gt;Node27</title>
<path fill="none" stroke="#191970" d="M1038.1512,-224.3733C1011.3297,-215.1016 970.5873,-201.0178 941.0402,-190.804"/>
<polygon fill="#191970" stroke="#191970" points="942.0802,-187.4603 931.4854,-187.5011 939.7931,-194.0762 942.0802,-187.4603"/>
</g>
<!-- Node34&#45;&gt;Node28 -->
<g id="edge61" class="edge">
<title>Node34&#45;&gt;Node28</title>
<path fill="none" stroke="#191970" d="M1065.4884,-224.4509C1064.5099,-206.184 1062.3547,-165.9553 1061.0552,-141.6976"/>
<polygon fill="#191970" stroke="#191970" points="1064.5403,-141.3233 1060.5103,-131.5249 1057.5503,-141.6978 1064.5403,-141.3233"/>
</g>
<!-- Node34&#45;&gt;Node33 -->
<g id="edge56" class="edge">
<title>Node34&#45;&gt;Node33</title>
<path fill="none" stroke="#191970" d="M1084.638,-224.2455C1101.4386,-215.4527 1126.3634,-202.4079 1145.4618,-192.4125"/>
<polygon fill="#191970" stroke="#191970" points="1147.3386,-195.3807 1154.5756,-187.6427 1144.0927,-189.1787 1147.3386,-195.3807"/>
</g>
</g>
</svg>
        <g id="navigator" transform="translate(0 0)" fill="#404254">
                <rect fill="#f2f5e9" fill-opacity="0.5" stroke="#606060" stroke-width=".5" x="0" y="0" width="60" height="60"/>
                <use id="zoomplus" xlink:href="#zoomPlus" x="17" y="9" onmousedown="handleZoom(evt,'in')"/>
                <use id="zoomminus" xlink:href="#zoomMin" x="42" y="9" onmousedown="handleZoom(evt,'out')"/>
                <use id="reset" xlink:href="#resetDef" x="30" y="36" onmousedown="handleReset()"/>
                <g id="arrowUp" xlink:href="#dirArrow" transform="translate(30 24)" onmousedown="handlePan(0,-1)">
                  <use xlink:href="#rim" fill="#404040">
                        <set attributeName="fill" to="#808080" begin="arrowUp.mouseover" end="arrowUp.mouseout"/>
                  </use>
                  <path fill="none" stroke="white" stroke-width="1.5" d="M0,-3.0v7 M-2.5,-0.5L0,-3.0L2.5,-0.5"/>
                </g>
                <g id="arrowRight" xlink:href="#dirArrow" transform="rotate(90) translate(36 -43)" onmousedown="handlePan(1,0)">
                  <use xlink:href="#rim" fill="#404040">
                        <set attributeName="fill" to="#808080" begin="arrowRight.mouseover" end="arrowRight.mouseout"/>
                  </use>
                  <path fill="none" stroke="white" stroke-width="1.5" d="M0,-3.0v7 M-2.5,-0.5L0,-3.0L2.5,-0.5"/>
                </g>
                <g id="arrowDown" xlink:href="#dirArrow" transform="rotate(180) translate(-30 -48)" onmousedown="handlePan(0,1)">
                  <use xlink:href="#rim" fill="#404040">
                        <set attributeName="fill" to="#808080" begin="arrowDown.mouseover" end="arrowDown.mouseout"/>
                  </use>
                  <path fill="none" stroke="white" stroke-width="1.5" d="M0,-3.0v7 M-2.5,-0.5L0,-3.0L2.5,-0.5"/>
                </g>
                <g id="arrowLeft" xlink:href="#dirArrow" transform="rotate(270) translate(-36 17)" onmousedown="handlePan(-1,0)">
                  <use xlink:href="#rim" fill="#404040">
                        <set attributeName="fill" to="#808080" begin="arrowLeft.mouseover" end="arrowLeft.mouseout"/>
                  </use>
                  <path fill="none" stroke="white" stroke-width="1.5" d="M0,-3.0v7 M-2.5,-0.5L0,-3.0L2.5,-0.5"/>
                </g>
        </g>
        <svg viewBox="0 0 15 15" width="100%" height="30px" preserveAspectRatio="xMaxYMin meet">
         <g id="arrow_out" transform="scale(0.3 0.3)">
          <a xlink:href="TPCFastTransformManager_8cxx__incl_org.svg" target="_base">
           <rect id="button" ry="5" rx="5" y="6" x="6" height="38" width="38"
                fill="#f2f5e9" fill-opacity="0.5" stroke="#606060" stroke-width="1.0"/>
           <path id="arrow"
             d="M 11.500037,31.436501 C 11.940474,20.09759 22.043105,11.32322 32.158766,21.979434 L 37.068811,17.246167 C 37.068811,17.246167 37.088388,32 37.088388,32 L 22.160133,31.978069 C 22.160133,31.978069 26.997745,27.140456 26.997745,27.140456 C 18.528582,18.264221 13.291696,25.230495 11.500037,31.436501 z"
             style="fill:#404040;"/>
          </a>
         </g>
        </svg>
</svg>
