<?xml version="1.0" encoding="UTF-8" standalone="no"?>
<!DOCTYPE svg PUBLIC "-//W3C//DTD SVG 1.1//EN"
 "http://www.w3.org/Graphics/SVG/1.1/DTD/svg11.dtd">
<!-- Generated by graphviz version 2.40.1 (20161225.0304)
 -->
<!-- Title: o2::passive::PassiveBase Pages: 1 -->
<svg width="1067pt" height="353pt"
 viewBox="0.00 0.00 1067.00 353.00" xmlns="http://www.w3.org/2000/svg" xmlns:xlink="http://www.w3.org/1999/xlink">
<g id="graph0" class="graph" transform="scale(1 1) rotate(0) translate(4 349)">
<title>o2::passive::PassiveBase</title>
<!-- Node0 -->
<g id="node1" class="node">
<title>Node0</title>
<polygon fill="#bfbfbf" stroke="#000000" points="463,-182.5 463,-250.5 608,-250.5 608,-182.5 463,-182.5"/>
<text text-anchor="middle" x="535.5" y="-238.5" font-family="Helvetica,sans-Serif" font-size="10.00" fill="#000000">o2::passive::PassiveBase</text>
<polyline fill="none" stroke="#000000" points="463,-231.5 608,-231.5 "/>
<text text-anchor="middle" x="535.5" y="-219.5" font-family="Helvetica,sans-Serif" font-size="10.00" fill="#000000"> </text>
<polyline fill="none" stroke="#000000" points="463,-212.5 608,-212.5 "/>
<text text-anchor="start" x="471" y="-200.5" font-family="Helvetica,sans-Serif" font-size="10.00" fill="#000000">+ SetSpecialPhysicsCuts()</text>
<text text-anchor="start" x="471" y="-189.5" font-family="Helvetica,sans-Serif" font-size="10.00" fill="#000000">+ ClassDefOverride()</text>
</g>
<!-- Node2 -->
<g id="node3" class="node">
<title>Node2</title>
<g id="a_node3"><a xlink:href="../../d7/d12/classo2_1_1passive_1_1Absorber.html" target="_top" xlink:title="{o2::passive::Absorber\n||+ Absorber()\l+ Absorber()\l+ ~Absorber()\l+ ConstructGeometry()\l+ createMaterials()\l+ CloneModule()\l}">
<polygon fill="none" stroke="#000000" points="0,-17 0,-129 131,-129 131,-17 0,-17"/>
<text text-anchor="middle" x="65.5" y="-117" font-family="Helvetica,sans-Serif" font-size="10.00" fill="#000000">o2::passive::Absorber</text>
<polyline fill="none" stroke="#000000" points="0,-110 131,-110 "/>
<text text-anchor="middle" x="65.5" y="-98" font-family="Helvetica,sans-Serif" font-size="10.00" fill="#000000"> </text>
<polyline fill="none" stroke="#000000" points="0,-91 131,-91 "/>
<text text-anchor="start" x="8" y="-79" font-family="Helvetica,sans-Serif" font-size="10.00" fill="#000000">+ Absorber()</text>
<text text-anchor="start" x="8" y="-68" font-family="Helvetica,sans-Serif" font-size="10.00" fill="#000000">+ Absorber()</text>
<text text-anchor="start" x="8" y="-57" font-family="Helvetica,sans-Serif" font-size="10.00" fill="#000000">+ ~Absorber()</text>
<text text-anchor="start" x="8" y="-46" font-family="Helvetica,sans-Serif" font-size="10.00" fill="#000000">+ ConstructGeometry()</text>
<text text-anchor="start" x="8" y="-35" font-family="Helvetica,sans-Serif" font-size="10.00" fill="#000000">+ createMaterials()</text>
<text text-anchor="start" x="8" y="-24" font-family="Helvetica,sans-Serif" font-size="10.00" fill="#000000">+ CloneModule()</text>
</a>
</g>
</g>
<!-- Node0&#45;&gt;Node2 -->
<g id="edge2" class="edge">
<title>Node0&#45;&gt;Node2</title>
<path fill="none" stroke="#191970" d="M452.9572,-207.6406C353.433,-195.956 192.8682,-173.6073 139.5,-146 130.8445,-141.5225 122.5479,-135.6859 114.844,-129.2627"/>
<polygon fill="none" stroke="#191970" points="452.6512,-211.1285 462.9885,-208.8065 453.4594,-204.1753 452.6512,-211.1285"/>
</g>
<!-- Node3 -->
<g id="node4" class="node">
<title>Node3</title>
<g id="a_node4"><a xlink:href="../../d9/d93/classo2_1_1passive_1_1Compensator.html" target="_top" xlink:title="{o2::passive::Compensator\n||+ Compensator()\l+ Compensator()\l+ ~Compensator()\l+ ConstructGeometry()\l+ CloneModule()\l}">
<polygon fill="none" stroke="#000000" points="149,-22.5 149,-123.5 292,-123.5 292,-22.5 149,-22.5"/>
<text text-anchor="middle" x="220.5" y="-111.5" font-family="Helvetica,sans-Serif" font-size="10.00" fill="#000000">o2::passive::Compensator</text>
<polyline fill="none" stroke="#000000" points="149,-104.5 292,-104.5 "/>
<text text-anchor="middle" x="220.5" y="-92.5" font-family="Helvetica,sans-Serif" font-size="10.00" fill="#000000"> </text>
<polyline fill="none" stroke="#000000" points="149,-85.5 292,-85.5 "/>
<text text-anchor="start" x="157" y="-73.5" font-family="Helvetica,sans-Serif" font-size="10.00" fill="#000000">+ Compensator()</text>
<text text-anchor="start" x="157" y="-62.5" font-family="Helvetica,sans-Serif" font-size="10.00" fill="#000000">+ Compensator()</text>
<text text-anchor="start" x="157" y="-51.5" font-family="Helvetica,sans-Serif" font-size="10.00" fill="#000000">+ ~Compensator()</text>
<text text-anchor="start" x="157" y="-40.5" font-family="Helvetica,sans-Serif" font-size="10.00" fill="#000000">+ ConstructGeometry()</text>
<text text-anchor="start" x="157" y="-29.5" font-family="Helvetica,sans-Serif" font-size="10.00" fill="#000000">+ CloneModule()</text>
</a>
</g>
</g>
<!-- Node0&#45;&gt;Node3 -->
<g id="edge3" class="edge">
<title>Node0&#45;&gt;Node3</title>
<path fill="none" stroke="#191970" d="M452.9548,-201.2659C406.1666,-190.3501 347.7253,-172.7622 300.5,-146 289.7036,-139.8818 279.1568,-132.0662 269.4483,-123.835"/>
<polygon fill="none" stroke="#191970" points="452.2266,-204.6896 462.7538,-203.4948 453.7793,-197.8639 452.2266,-204.6896"/>
</g>
<!-- Node4 -->
<g id="node5" class="node">
<title>Node4</title>
<g id="a_node5"><a xlink:href="../../d2/d54/classo2_1_1passive_1_1Dipole.html" target="_top" xlink:title="{o2::passive::Dipole\n||+ Dipole()\l+ Dipole()\l+ ~Dipole()\l+ ConstructGeometry()\l+ CloneModule()\l}">
<polygon fill="none" stroke="#000000" points="310,-22.5 310,-123.5 441,-123.5 441,-22.5 310,-22.5"/>
<text text-anchor="middle" x="375.5" y="-111.5" font-family="Helvetica,sans-Serif" font-size="10.00" fill="#000000">o2::passive::Dipole</text>
<polyline fill="none" stroke="#000000" points="310,-104.5 441,-104.5 "/>
<text text-anchor="middle" x="375.5" y="-92.5" font-family="Helvetica,sans-Serif" font-size="10.00" fill="#000000"> </text>
<polyline fill="none" stroke="#000000" points="310,-85.5 441,-85.5 "/>
<text text-anchor="start" x="318" y="-73.5" font-family="Helvetica,sans-Serif" font-size="10.00" fill="#000000">+ Dipole()</text>
<text text-anchor="start" x="318" y="-62.5" font-family="Helvetica,sans-Serif" font-size="10.00" fill="#000000">+ Dipole()</text>
<text text-anchor="start" x="318" y="-51.5" font-family="Helvetica,sans-Serif" font-size="10.00" fill="#000000">+ ~Dipole()</text>
<text text-anchor="start" x="318" y="-40.5" font-family="Helvetica,sans-Serif" font-size="10.00" fill="#000000">+ ConstructGeometry()</text>
<text text-anchor="start" x="318" y="-29.5" font-family="Helvetica,sans-Serif" font-size="10.00" fill="#000000">+ CloneModule()</text>
</a>
</g>
</g>
<!-- Node0&#45;&gt;Node4 -->
<g id="edge4" class="edge">
<title>Node0&#45;&gt;Node4</title>
<path fill="none" stroke="#191970" d="M485.1316,-175.8417C473.6028,-166.2286 461.5063,-155.8924 450.5,-146 442.6619,-138.9551 434.5256,-131.3553 426.6287,-123.8136"/>
<polygon fill="none" stroke="#191970" points="483.0699,-178.6788 493.002,-182.367 487.5377,-173.29 483.0699,-178.6788"/>
</g>
<!-- Node5 -->
<g id="node6" class="node">
<title>Node5</title>
<g id="a_node6"><a xlink:href="../../de/db8/classo2_1_1passive_1_1FrameStructure.html" target="_top" xlink:title="{o2::passive::FrameStructure\n||+ FrameStructure()\l+ FrameStructure()\l+ ~FrameStructure()\l+ CloneModule()\l+ ConstructGeometry()\l+ hasHoles()\l+ setHoles()\l}">
<polygon fill="none" stroke="#000000" points="459.5,-11.5 459.5,-134.5 611.5,-134.5 611.5,-11.5 459.5,-11.5"/>
<text text-anchor="middle" x="535.5" y="-122.5" font-family="Helvetica,sans-Serif" font-size="10.00" fill="#000000">o2::passive::FrameStructure</text>
<polyline fill="none" stroke="#000000" points="459.5,-115.5 611.5,-115.5 "/>
<text text-anchor="middle" x="535.5" y="-103.5" font-family="Helvetica,sans-Serif" font-size="10.00" fill="#000000"> </text>
<polyline fill="none" stroke="#000000" points="459.5,-96.5 611.5,-96.5 "/>
<text text-anchor="start" x="467.5" y="-84.5" font-family="Helvetica,sans-Serif" font-size="10.00" fill="#000000">+ FrameStructure()</text>
<text text-anchor="start" x="467.5" y="-73.5" font-family="Helvetica,sans-Serif" font-size="10.00" fill="#000000">+ FrameStructure()</text>
<text text-anchor="start" x="467.5" y="-62.5" font-family="Helvetica,sans-Serif" font-size="10.00" fill="#000000">+ ~FrameStructure()</text>
<text text-anchor="start" x="467.5" y="-51.5" font-family="Helvetica,sans-Serif" font-size="10.00" fill="#000000">+ CloneModule()</text>
<text text-anchor="start" x="467.5" y="-40.5" font-family="Helvetica,sans-Serif" font-size="10.00" fill="#000000">+ ConstructGeometry()</text>
<text text-anchor="start" x="467.5" y="-29.5" font-family="Helvetica,sans-Serif" font-size="10.00" fill="#000000">+ hasHoles()</text>
<text text-anchor="start" x="467.5" y="-18.5" font-family="Helvetica,sans-Serif" font-size="10.00" fill="#000000">+ setHoles()</text>
</a>
</g>
</g>
<!-- Node0&#45;&gt;Node5 -->
<g id="edge5" class="edge">
<title>Node0&#45;&gt;Node5</title>
<path fill="none" stroke="#191970" d="M535.5,-172.3551C535.5,-160.4205 535.5,-147.2836 535.5,-134.5807"/>
<polygon fill="none" stroke="#191970" points="532.0001,-172.4925 535.5,-182.4925 539.0001,-172.4925 532.0001,-172.4925"/>
</g>
<!-- Node6 -->
<g id="node7" class="node">
<title>Node6</title>
<g id="a_node7"><a xlink:href="../../d2/dc7/classo2_1_1passive_1_1Magnet.html" target="_top" xlink:title="{o2::passive::Magnet\n||+ Magnet()\l+ Magnet()\l+ ~Magnet()\l+ ConstructGeometry()\l+ createMaterials()\l+ CloneModule()\l}">
<polygon fill="none" stroke="#000000" points="630,-17 630,-129 761,-129 761,-17 630,-17"/>
<text text-anchor="middle" x="695.5" y="-117" font-family="Helvetica,sans-Serif" font-size="10.00" fill="#000000">o2::passive::Magnet</text>
<polyline fill="none" stroke="#000000" points="630,-110 761,-110 "/>
<text text-anchor="middle" x="695.5" y="-98" font-family="Helvetica,sans-Serif" font-size="10.00" fill="#000000"> </text>
<polyline fill="none" stroke="#000000" points="630,-91 761,-91 "/>
<text text-anchor="start" x="638" y="-79" font-family="Helvetica,sans-Serif" font-size="10.00" fill="#000000">+ Magnet()</text>
<text text-anchor="start" x="638" y="-68" font-family="Helvetica,sans-Serif" font-size="10.00" fill="#000000">+ Magnet()</text>
<text text-anchor="start" x="638" y="-57" font-family="Helvetica,sans-Serif" font-size="10.00" fill="#000000">+ ~Magnet()</text>
<text text-anchor="start" x="638" y="-46" font-family="Helvetica,sans-Serif" font-size="10.00" fill="#000000">+ ConstructGeometry()</text>
<text text-anchor="start" x="638" y="-35" font-family="Helvetica,sans-Serif" font-size="10.00" fill="#000000">+ createMaterials()</text>
<text text-anchor="start" x="638" y="-24" font-family="Helvetica,sans-Serif" font-size="10.00" fill="#000000">+ CloneModule()</text>
</a>
</g>
</g>
<!-- Node0&#45;&gt;Node6 -->
<g id="edge6" class="edge">
<title>Node0&#45;&gt;Node6</title>
<path fill="none" stroke="#191970" d="M585.8684,-175.8417C597.3972,-166.2286 609.4937,-155.8924 620.5,-146 626.4462,-140.6556 632.5639,-134.9918 638.6186,-129.2764"/>
<polygon fill="none" stroke="#191970" points="583.4623,-173.29 577.998,-182.367 587.9301,-178.6788 583.4623,-173.29"/>
</g>
<!-- Node7 -->
<g id="node8" class="node">
<title>Node7</title>
<g id="a_node8"><a xlink:href="../../d0/d9b/classo2_1_1passive_1_1Pipe.html" target="_top" xlink:title="{o2::passive::Pipe\n||+ Pipe()\l+ Pipe()\l+ ~Pipe()\l+ ConstructGeometry()\l+ CloneModule()\l+ getRmin()\l+ getRmax()\l+ getWidth()\l+ getDz()\l}">
<polygon fill="none" stroke="#000000" points="779,-.5 779,-145.5 910,-145.5 910,-.5 779,-.5"/>
<text text-anchor="middle" x="844.5" y="-133.5" font-family="Helvetica,sans-Serif" font-size="10.00" fill="#000000">o2::passive::Pipe</text>
<polyline fill="none" stroke="#000000" points="779,-126.5 910,-126.5 "/>
<text text-anchor="middle" x="844.5" y="-114.5" font-family="Helvetica,sans-Serif" font-size="10.00" fill="#000000"> </text>
<polyline fill="none" stroke="#000000" points="779,-107.5 910,-107.5 "/>
<text text-anchor="start" x="787" y="-95.5" font-family="Helvetica,sans-Serif" font-size="10.00" fill="#000000">+ Pipe()</text>
<text text-anchor="start" x="787" y="-84.5" font-family="Helvetica,sans-Serif" font-size="10.00" fill="#000000">+ Pipe()</text>
<text text-anchor="start" x="787" y="-73.5" font-family="Helvetica,sans-Serif" font-size="10.00" fill="#000000">+ ~Pipe()</text>
<text text-anchor="start" x="787" y="-62.5" font-family="Helvetica,sans-Serif" font-size="10.00" fill="#000000">+ ConstructGeometry()</text>
<text text-anchor="start" x="787" y="-51.5" font-family="Helvetica,sans-Serif" font-size="10.00" fill="#000000">+ CloneModule()</text>
<text text-anchor="start" x="787" y="-40.5" font-family="Helvetica,sans-Serif" font-size="10.00" fill="#000000">+ getRmin()</text>
<text text-anchor="start" x="787" y="-29.5" font-family="Helvetica,sans-Serif" font-size="10.00" fill="#000000">+ getRmax()</text>
<text text-anchor="start" x="787" y="-18.5" font-family="Helvetica,sans-Serif" font-size="10.00" fill="#000000">+ getWidth()</text>
<text text-anchor="start" x="787" y="-7.5" font-family="Helvetica,sans-Serif" font-size="10.00" fill="#000000">+ getDz()</text>
</a>
</g>
</g>
<!-- Node0&#45;&gt;Node7 -->
<g id="edge7" class="edge">
<title>Node0&#45;&gt;Node7</title>
<path fill="none" stroke="#191970" d="M617.9308,-202.0745C664.9371,-191.3967 723.6333,-173.7774 770.5,-146 773.2944,-144.3438 776.0617,-142.5596 778.7919,-140.6736"/>
<polygon fill="none" stroke="#191970" points="617.0959,-198.6745 608.086,-204.2488 618.6056,-205.5097 617.0959,-198.6745"/>
</g>
<!-- Node8 -->
<g id="node9" class="node">
<title>Node8</title>
<g id="a_node9"><a xlink:href="../../dc/d7a/classo2_1_1passive_1_1Shil.html" target="_top" xlink:title="{o2::passive::Shil\n||+ Shil()\l+ Shil()\l+ ~Shil()\l+ ConstructGeometry()\l+ CloneModule()\l}">
<polygon fill="none" stroke="#000000" points="928,-22.5 928,-123.5 1059,-123.5 1059,-22.5 928,-22.5"/>
<text text-anchor="middle" x="993.5" y="-111.5" font-family="Helvetica,sans-Serif" font-size="10.00" fill="#000000">o2::passive::Shil</text>
<polyline fill="none" stroke="#000000" points="928,-104.5 1059,-104.5 "/>
<text text-anchor="middle" x="993.5" y="-92.5" font-family="Helvetica,sans-Serif" font-size="10.00" fill="#000000"> </text>
<polyline fill="none" stroke="#000000" points="928,-85.5 1059,-85.5 "/>
<text text-anchor="start" x="936" y="-73.5" font-family="Helvetica,sans-Serif" font-size="10.00" fill="#000000">+ Shil()</text>
<text text-anchor="start" x="936" y="-62.5" font-family="Helvetica,sans-Serif" font-size="10.00" fill="#000000">+ Shil()</text>
<text text-anchor="start" x="936" y="-51.5" font-family="Helvetica,sans-Serif" font-size="10.00" fill="#000000">+ ~Shil()</text>
<text text-anchor="start" x="936" y="-40.5" font-family="Helvetica,sans-Serif" font-size="10.00" fill="#000000">+ ConstructGeometry()</text>
<text text-anchor="start" x="936" y="-29.5" font-family="Helvetica,sans-Serif" font-size="10.00" fill="#000000">+ CloneModule()</text>
</a>
</g>
</g>
<!-- Node0&#45;&gt;Node8 -->
<g id="edge8" class="edge">
<title>Node0&#45;&gt;Node8</title>
<path fill="none" stroke="#191970" d="M618.2942,-207.0847C714.9911,-195.0899 868.2586,-172.6823 919.5,-146 930.5444,-140.249 941.011,-132.2949 950.409,-123.7431"/>
<polygon fill="none" stroke="#191970" points="617.7463,-203.6256 608.2477,-208.3187 618.5998,-210.5733 617.7463,-203.6256"/>
</g>
<!-- Node1 -->
<g id="node2" class="node">
<title>Node1</title>
<g id="a_node2"><a xlink:href="../../d4/d06/classFairModule.html" target="_top" xlink:title="{FairModule\n||}">
<polygon fill="none" stroke="#000000" points="501,-287.5 501,-344.5 570,-344.5 570,-287.5 501,-287.5"/>
<text text-anchor="middle" x="535.5" y="-332.5" font-family="Helvetica,sans-Serif" font-size="10.00" fill="#000000">FairModule</text>
<polyline fill="none" stroke="#000000" points="501,-325.5 570,-325.5 "/>
<text text-anchor="middle" x="535.5" y="-313.5" font-family="Helvetica,sans-Serif" font-size="10.00" fill="#000000"> </text>
<polyline fill="none" stroke="#000000" points="501,-306.5 570,-306.5 "/>
<text text-anchor="middle" x="535.5" y="-294.5" font-family="Helvetica,sans-Serif" font-size="10.00" fill="#000000"> </text>
</a>
</g>
</g>
<!-- Node1&#45;&gt;Node0 -->
<g id="edge1" class="edge">
<title>Node1&#45;&gt;Node0</title>
<path fill="none" stroke="#191970" d="M535.5,-277.4268C535.5,-268.6025 535.5,-259.2834 535.5,-250.6596"/>
<polygon fill="none" stroke="#191970" points="532.0001,-277.4873 535.5,-287.4873 539.0001,-277.4873 532.0001,-277.4873"/>
</g>
</g>
</svg>
