<?xml version="1.0" encoding="UTF-8" standalone="no"?>
<!DOCTYPE svg PUBLIC "-//W3C//DTD SVG 1.1//EN"
 "http://www.w3.org/Graphics/SVG/1.1/DTD/svg11.dtd">
<!-- Generated by graphviz version 2.40.1 (20161225.0304)
 -->
<!-- Title: /home/travis/build/AliceO2Group/AliceO2/Detectors/ITSMFT/common/reconstruction/include/ITSMFTReconstruction/GBTLink.h Pages: 1 -->
<!--zoomable 396 -->
<svg id="main" version="1.1" xmlns="http://www.w3.org/2000/svg" xmlns:xlink="http://www.w3.org/1999/xlink" xml:space="preserve" onload="init(evt)">
<style type="text/css"><![CDATA[
.edge:hover path { stroke: red; }
.edge:hover polygon { stroke: red; fill: red; }
]]></style>
<script type="text/javascript"><![CDATA[
var edges = document.getElementsByTagName('g');
if (edges && edges.length) {
  for (var i=0;i<edges.length;i++) {
    if (edges[i].id.substr(0,4)=='edge') {
      edges[i].setAttribute('class','edge');
    }
  }
}
]]></script>
        <defs>
                <circle id="rim" cx="0" cy="0" r="7"/>
                <circle id="rim2" cx="0" cy="0" r="3.5"/>
                <g id="zoomPlus">
                        <use xlink:href="#rim" fill="#404040">
                                <set attributeName="fill" to="#808080" begin="zoomplus.mouseover" end="zoomplus.mouseout"/>
                        </use>
                        <path d="M-4,0h8M0,-4v8" fill="none" stroke="white" stroke-width="1.5" pointer-events="none"/>
                </g>
                <g id="zoomMin">
                        <use xlink:href="#rim" fill="#404040">
                                <set attributeName="fill" to="#808080" begin="zoomminus.mouseover" end="zoomminus.mouseout"/>
                        </use>
                        <path d="M-4,0h8" fill="none" stroke="white" stroke-width="1.5" pointer-events="none"/>
                </g>
                <g id="dirArrow">
                        <path fill="none" stroke="white" stroke-width="1.5" d="M0,-3.0v7 M-2.5,-0.5L0,-3.0L2.5,-0.5"/>
                </g>
               <g id="resetDef">
                       <use xlink:href="#rim2" fill="#404040">
                               <set attributeName="fill" to="#808080" begin="reset.mouseover" end="reset.mouseout"/>
                       </use>
               </g>
        </defs>

<script type="text/javascript">
var viewWidth = 1368;
var viewHeight = 396;
var sectionId = 'dynsection-0';
</script>
<script xlink:href="../../svgpan.js"/>
<svg id="graph" class="graph">
<g id="viewport">
<title>/home/travis/build/AliceO2Group/AliceO2/Detectors/ITSMFT/common/reconstruction/include/ITSMFTReconstruction/GBTLink.h</title>
<!-- Node0 -->
<g id="node1" class="node">
<title>Node0</title>
<polygon fill="#bfbfbf" stroke="#000000" points="414,-324.5 414,-387.5 593,-387.5 593,-324.5 414,-324.5"/>
<text text-anchor="start" x="422" y="-375.5" font-family="Helvetica,sans-Serif" font-size="10.00" fill="#000000">/home/travis/build</text>
<text text-anchor="start" x="422" y="-364.5" font-family="Helvetica,sans-Serif" font-size="10.00" fill="#000000">/AliceO2Group/AliceO2</text>
<text text-anchor="start" x="422" y="-353.5" font-family="Helvetica,sans-Serif" font-size="10.00" fill="#000000">/Detectors/ITSMFT/common</text>
<text text-anchor="start" x="422" y="-342.5" font-family="Helvetica,sans-Serif" font-size="10.00" fill="#000000">/reconstruction/include</text>
<text text-anchor="middle" x="503.5" y="-331.5" font-family="Helvetica,sans-Serif" font-size="10.00" fill="#000000">/ITSMFTReconstruction/GBTLink.h</text>
</g>
<!-- Node1 -->
<g id="node2" class="node">
<title>Node1</title>
<polygon fill="none" stroke="#bfbfbf" points="165.5,-129 165.5,-148 209.5,-148 209.5,-129 165.5,-129"/>
<text text-anchor="middle" x="187.5" y="-136" font-family="Helvetica,sans-Serif" font-size="10.00" fill="#000000">string</text>
</g>
<!-- Node0&#45;&gt;Node1 -->
<g id="edge1" class="edge">
<title>Node0&#45;&gt;Node1</title>
<path fill="none" stroke="#191970" d="M457.5509,-324.3736C388.5989,-276.9146 260.9888,-189.0817 209.6981,-153.7787"/>
<polygon fill="#191970" stroke="#191970" points="211.5358,-150.7947 201.314,-148.008 207.567,-156.5609 211.5358,-150.7947"/>
</g>
<!-- Node2 -->
<g id="node3" class="node">
<title>Node2</title>
<polygon fill="none" stroke="#bfbfbf" points="749.5,-196 749.5,-215 807.5,-215 807.5,-196 749.5,-196"/>
<text text-anchor="middle" x="778.5" y="-203" font-family="Helvetica,sans-Serif" font-size="10.00" fill="#000000">memory</text>
</g>
<!-- Node0&#45;&gt;Node2 -->
<g id="edge2" class="edge">
<title>Node0&#45;&gt;Node2</title>
<path fill="none" stroke="#191970" d="M593.2545,-324.9022C619.1891,-314.5358 647.071,-302.0103 671.5,-288 705.122,-268.7174 739.9179,-239.957 760.3654,-221.9867"/>
<polygon fill="#191970" stroke="#191970" points="762.8173,-224.4899 767.9593,-215.2265 758.1629,-219.2615 762.8173,-224.4899"/>
</g>
<!-- Node3 -->
<g id="node4" class="node">
<title>Node3</title>
<polygon fill="none" stroke="#bfbfbf" points="1078.5,-263 1078.5,-282 1126.5,-282 1126.5,-263 1078.5,-263"/>
<text text-anchor="middle" x="1102.5" y="-270" font-family="Helvetica,sans-Serif" font-size="10.00" fill="#000000">gsl/gsl</text>
</g>
<!-- Node0&#45;&gt;Node3 -->
<g id="edge3" class="edge">
<title>Node0&#45;&gt;Node3</title>
<path fill="none" stroke="#191970" d="M593.2841,-352.4817C705.213,-346.4244 901.6403,-330.2723 1064.5,-288 1067.1249,-287.3187 1069.8094,-286.4973 1072.4775,-285.5926"/>
<polygon fill="#191970" stroke="#191970" points="1073.796,-288.8363 1081.9341,-282.0524 1071.3418,-282.2806 1073.796,-288.8363"/>
</g>
<!-- Node4 -->
<g id="node5" class="node">
<title>Node4</title>
<g id="a_node5"><a xlink:href="../../d0/d35/PayLoadCont_8h.html" target="_top" xlink:title="Declaration of class for continuos buffer of ALPIDE data. ">
<polygon fill="none" stroke="#000000" points="228,-123.5 228,-153.5 351,-153.5 351,-123.5 228,-123.5"/>
<text text-anchor="start" x="236" y="-141.5" font-family="Helvetica,sans-Serif" font-size="10.00" fill="#000000">ITSMFTReconstruction</text>
<text text-anchor="middle" x="289.5" y="-130.5" font-family="Helvetica,sans-Serif" font-size="10.00" fill="#000000">/PayLoadCont.h</text>
</a>
</g>
</g>
<!-- Node0&#45;&gt;Node4 -->
<g id="edge4" class="edge">
<title>Node0&#45;&gt;Node4</title>
<path fill="none" stroke="#191970" d="M472.3826,-324.3736C428.5855,-279.8603 349.8425,-199.8294 311.5762,-160.9372"/>
<polygon fill="#191970" stroke="#191970" points="313.9933,-158.4035 304.4849,-153.73 309.0036,-163.3129 313.9933,-158.4035"/>
</g>
<!-- Node9 -->
<g id="node10" class="node">
<title>Node9</title>
<g id="a_node10"><a xlink:href="../../d4/d20/PayLoadSG_8h.html" target="_top" xlink:title="Declaration of class for scatter&#45;gather buffer. ">
<polygon fill="none" stroke="#000000" points="369,-123.5 369,-153.5 492,-153.5 492,-123.5 369,-123.5"/>
<text text-anchor="start" x="377" y="-141.5" font-family="Helvetica,sans-Serif" font-size="10.00" fill="#000000">ITSMFTReconstruction</text>
<text text-anchor="middle" x="430.5" y="-130.5" font-family="Helvetica,sans-Serif" font-size="10.00" fill="#000000">/PayLoadSG.h</text>
</a>
</g>
</g>
<!-- Node0&#45;&gt;Node9 -->
<g id="edge9" class="edge">
<title>Node0&#45;&gt;Node9</title>
<path fill="none" stroke="#191970" d="M492.8852,-324.3736C478.2563,-280.7877 452.1982,-203.1486 438.8642,-163.4209"/>
<polygon fill="#191970" stroke="#191970" points="442.1117,-162.0966 435.6117,-153.73 435.4755,-164.324 442.1117,-162.0966"/>
</g>
<!-- Node11 -->
<g id="node12" class="node">
<title>Node11</title>
<g id="a_node12"><a xlink:href="../../dd/d86/GBTWord_8h.html" target="_top" xlink:title="ITSMFTReconstruction\l/GBTWord.h">
<polygon fill="none" stroke="#000000" points="0,-56.5 0,-86.5 123,-86.5 123,-56.5 0,-56.5"/>
<text text-anchor="start" x="8" y="-74.5" font-family="Helvetica,sans-Serif" font-size="10.00" fill="#000000">ITSMFTReconstruction</text>
<text text-anchor="middle" x="61.5" y="-63.5" font-family="Helvetica,sans-Serif" font-size="10.00" fill="#000000">/GBTWord.h</text>
</a>
</g>
</g>
<!-- Node0&#45;&gt;Node11 -->
<g id="edge13" class="edge">
<title>Node0&#45;&gt;Node11</title>
<path fill="none" stroke="#191970" d="M413.717,-341.6331C364.884,-331.3474 304.6053,-314.5135 255.5,-288 169.2897,-241.4524 102.2717,-141.0062 74.912,-95.1706"/>
<polygon fill="#191970" stroke="#191970" points="77.9092,-93.3627 69.8286,-86.5104 71.8723,-96.9062 77.9092,-93.3627"/>
</g>
<!-- Node12 -->
<g id="node13" class="node">
<title>Node12</title>
<g id="a_node13"><a xlink:href="../../db/d0e/RUDecodeData_8h.html" target="_top" xlink:title="Declaration of the Readout Unite decoder class. ">
<polygon fill="none" stroke="#000000" points="539,-257.5 539,-287.5 662,-287.5 662,-257.5 539,-257.5"/>
<text text-anchor="start" x="547" y="-275.5" font-family="Helvetica,sans-Serif" font-size="10.00" fill="#000000">ITSMFTReconstruction</text>
<text text-anchor="middle" x="600.5" y="-264.5" font-family="Helvetica,sans-Serif" font-size="10.00" fill="#000000">/RUDecodeData.h</text>
</a>
</g>
</g>
<!-- Node0&#45;&gt;Node12 -->
<g id="edge16" class="edge">
<title>Node0&#45;&gt;Node12</title>
<path fill="none" stroke="#191970" d="M540.1715,-324.4322C551.8856,-314.3484 564.5802,-303.4207 575.2886,-294.2026"/>
<polygon fill="#191970" stroke="#191970" points="577.7457,-296.7057 583.0411,-287.5291 573.1789,-291.4005 577.7457,-296.7057"/>
</g>
<!-- Node17 -->
<g id="node18" class="node">
<title>Node17</title>
<g id="a_node18"><a xlink:href="../../d9/d80/InteractionRecord_8h.html" target="_top" xlink:title="CommonDataFormat/Interaction\lRecord.h">
<polygon fill="none" stroke="#000000" points="1040.5,-56.5 1040.5,-86.5 1214.5,-86.5 1214.5,-56.5 1040.5,-56.5"/>
<text text-anchor="start" x="1048.5" y="-74.5" font-family="Helvetica,sans-Serif" font-size="10.00" fill="#000000">CommonDataFormat/Interaction</text>
<text text-anchor="middle" x="1127.5" y="-63.5" font-family="Helvetica,sans-Serif" font-size="10.00" fill="#000000">Record.h</text>
</a>
</g>
</g>
<!-- Node0&#45;&gt;Node17 -->
<g id="edge48" class="edge">
<title>Node0&#45;&gt;Node17</title>
<path fill="none" stroke="#191970" d="M593.0313,-351.1462C710.1734,-343.4131 907.7991,-325.2061 969.5,-288 1046.3461,-241.6613 1097.0763,-142.2768 1117.4284,-96.064"/>
<polygon fill="#191970" stroke="#191970" points="1120.6804,-97.3614 1121.4161,-86.7922 1114.2499,-94.5957 1120.6804,-97.3614"/>
</g>
<!-- Node26 -->
<g id="node27" class="node">
<title>Node26</title>
<g id="a_node27"><a xlink:href="../../dc/dd8/RUInfo_8h.html" target="_top" xlink:title="ITSMFTReconstruction\l/RUInfo.h">
<polygon fill="none" stroke="#000000" points="141,-56.5 141,-86.5 264,-86.5 264,-56.5 141,-56.5"/>
<text text-anchor="start" x="149" y="-74.5" font-family="Helvetica,sans-Serif" font-size="10.00" fill="#000000">ITSMFTReconstruction</text>
<text text-anchor="middle" x="202.5" y="-63.5" font-family="Helvetica,sans-Serif" font-size="10.00" fill="#000000">/RUInfo.h</text>
</a>
</g>
</g>
<!-- Node0&#45;&gt;Node26 -->
<g id="edge43" class="edge">
<title>Node0&#45;&gt;Node26</title>
<path fill="none" stroke="#191970" d="M413.7174,-332.7034C329.5642,-305.4541 209.0744,-251.1754 156.5,-154 145.4021,-133.4874 160.8318,-110.3043 176.7397,-93.7486"/>
<polygon fill="#191970" stroke="#191970" points="179.2983,-96.1416 183.9889,-86.6417 174.3978,-91.1431 179.2983,-96.1416"/>
</g>
<!-- Node27 -->
<g id="node28" class="node">
<title>Node27</title>
<g id="a_node28"><a xlink:href="../../d4/d78/DataFormats_2Headers_2include_2Headers_2RAWDataHeader_8h.html" target="_top" xlink:title="Headers/RAWDataHeader.h">
<polygon fill="none" stroke="#000000" points="811,-263 811,-282 960,-282 960,-263 811,-263"/>
<text text-anchor="middle" x="885.5" y="-270" font-family="Helvetica,sans-Serif" font-size="10.00" fill="#000000">Headers/RAWDataHeader.h</text>
</a>
</g>
</g>
<!-- Node0&#45;&gt;Node27 -->
<g id="edge46" class="edge">
<title>Node0&#45;&gt;Node27</title>
<path fill="none" stroke="#191970" d="M593.062,-336.423C667.2193,-320.2132 770.1162,-297.7213 832.0107,-284.192"/>
<polygon fill="#191970" stroke="#191970" points="832.9325,-287.5733 841.9544,-282.0185 831.4377,-280.7347 832.9325,-287.5733"/>
</g>
<!-- Node5 -->
<g id="node6" class="node">
<title>Node5</title>
<polygon fill="none" stroke="#bfbfbf" points="320.5,-62 320.5,-81 370.5,-81 370.5,-62 320.5,-62"/>
<text text-anchor="middle" x="345.5" y="-69" font-family="Helvetica,sans-Serif" font-size="10.00" fill="#000000">cstring</text>
</g>
<!-- Node4&#45;&gt;Node5 -->
<g id="edge5" class="edge">
<title>Node4&#45;&gt;Node5</title>
<path fill="none" stroke="#191970" d="M302.2073,-123.2967C310.7629,-113.0605 322.0665,-99.5366 330.9779,-88.8746"/>
<polygon fill="#191970" stroke="#191970" points="333.7861,-90.9724 337.5138,-81.055 328.4151,-86.4832 333.7861,-90.9724"/>
</g>
<!-- Node6 -->
<g id="node7" class="node">
<title>Node6</title>
<polygon fill="none" stroke="#bfbfbf" points="596,-62 596,-81 643,-81 643,-62 596,-62"/>
<text text-anchor="middle" x="619.5" y="-69" font-family="Helvetica,sans-Serif" font-size="10.00" fill="#000000">vector</text>
</g>
<!-- Node4&#45;&gt;Node6 -->
<g id="edge6" class="edge">
<title>Node4&#45;&gt;Node6</title>
<path fill="none" stroke="#191970" d="M351.0586,-124.9876C354.2505,-124.31 357.4123,-123.644 360.5,-123 441.1971,-106.1701 536.3065,-87.5757 585.7729,-77.998"/>
<polygon fill="#191970" stroke="#191970" points="586.7472,-81.3745 595.9008,-76.0396 585.4182,-74.5018 586.7472,-81.3745"/>
</g>
<!-- Node7 -->
<g id="node8" class="node">
<title>Node7</title>
<polygon fill="none" stroke="#bfbfbf" points="389,-62 389,-81 454,-81 454,-62 389,-62"/>
<text text-anchor="middle" x="421.5" y="-69" font-family="Helvetica,sans-Serif" font-size="10.00" fill="#000000">functional</text>
</g>
<!-- Node4&#45;&gt;Node7 -->
<g id="edge7" class="edge">
<title>Node4&#45;&gt;Node7</title>
<path fill="none" stroke="#191970" d="M319.1234,-123.4639C341.3711,-112.1715 371.6384,-96.8086 393.4861,-85.7192"/>
<polygon fill="#191970" stroke="#191970" points="395.2459,-88.7511 402.5788,-81.1039 392.0776,-82.5091 395.2459,-88.7511"/>
</g>
<!-- Node8 -->
<g id="node9" class="node">
<title>Node8</title>
<polygon fill="none" stroke="#bfbfbf" points="453,-.5 453,-19.5 512,-19.5 512,-.5 453,-.5"/>
<text text-anchor="middle" x="482.5" y="-7.5" font-family="Helvetica,sans-Serif" font-size="10.00" fill="#000000">Rtypes.h</text>
</g>
<!-- Node4&#45;&gt;Node8 -->
<g id="edge8" class="edge">
<title>Node4&#45;&gt;Node8</title>
<path fill="none" stroke="#191970" d="M289.244,-123.1887C289.7945,-104.7255 293.5958,-73.9433 311.5,-56 329.8324,-37.6275 398.3707,-23.4796 442.9122,-15.976"/>
<polygon fill="#191970" stroke="#191970" points="443.5481,-19.4185 452.849,-14.3446 442.414,-12.511 443.5481,-19.4185"/>
</g>
<!-- Node9&#45;&gt;Node6 -->
<g id="edge11" class="edge">
<title>Node9&#45;&gt;Node6</title>
<path fill="none" stroke="#191970" d="M472.9153,-123.4639C507.1894,-111.3138 554.7566,-94.4514 586.298,-83.27"/>
<polygon fill="#191970" stroke="#191970" points="587.6826,-86.4927 595.9385,-79.8525 585.3437,-79.895 587.6826,-86.4927"/>
</g>
<!-- Node9&#45;&gt;Node8 -->
<g id="edge12" class="edge">
<title>Node9&#45;&gt;Node8</title>
<path fill="none" stroke="#191970" d="M442.0127,-123.4666C449.1034,-113.5709 457.8816,-100.0734 463.5,-87 471.462,-68.4733 476.5324,-45.9437 479.414,-30.0547"/>
<polygon fill="#191970" stroke="#191970" points="482.9297,-30.2525 481.1353,-19.8108 476.0265,-29.0925 482.9297,-30.2525"/>
</g>
<!-- Node10 -->
<g id="node11" class="node">
<title>Node10</title>
<polygon fill="none" stroke="#bfbfbf" points="681.5,-.5 681.5,-19.5 731.5,-19.5 731.5,-.5 681.5,-.5"/>
<text text-anchor="middle" x="706.5" y="-7.5" font-family="Helvetica,sans-Serif" font-size="10.00" fill="#000000">cstdint</text>
</g>
<!-- Node9&#45;&gt;Node10 -->
<g id="edge10" class="edge">
<title>Node9&#45;&gt;Node10</title>
<path fill="none" stroke="#191970" d="M456.9805,-123.3851C487.8204,-106.0652 540.5418,-77.3285 587.5,-56 615.2042,-43.4167 647.4426,-31.0921 671.3711,-22.372"/>
<polygon fill="#191970" stroke="#191970" points="672.8637,-25.5543 681.08,-18.8653 670.4857,-18.9706 672.8637,-25.5543"/>
</g>
<!-- Node11&#45;&gt;Node8 -->
<g id="edge14" class="edge">
<title>Node11&#45;&gt;Node8</title>
<path fill="none" stroke="#191970" d="M123.2779,-57.5128C126.0526,-56.9817 128.803,-56.4744 131.5,-56 243.5946,-36.2833 377.1917,-21.0206 442.5215,-14.0857"/>
<polygon fill="#191970" stroke="#191970" points="443.2035,-17.5334 452.7821,-13.0056 442.4706,-10.5718 443.2035,-17.5334"/>
</g>
<!-- Node11&#45;&gt;Node10 -->
<g id="edge15" class="edge">
<title>Node11&#45;&gt;Node10</title>
<path fill="none" stroke="#191970" d="M123.2501,-57.3418C126.0323,-56.857 128.7919,-56.4062 131.5,-56 236.691,-40.2234 563.2263,-18.9559 671.3378,-12.1732"/>
<polygon fill="#191970" stroke="#191970" points="671.6331,-15.6616 681.3952,-11.5445 671.1963,-8.6753 671.6331,-15.6616"/>
</g>
<!-- Node12&#45;&gt;Node2 -->
<g id="edge18" class="edge">
<title>Node12&#45;&gt;Node2</title>
<path fill="none" stroke="#191970" d="M640.4467,-257.4639C671.4811,-245.7824 714.0881,-229.7449 743.7279,-218.5884"/>
<polygon fill="#191970" stroke="#191970" points="745.1212,-221.8037 753.2471,-215.0053 742.6552,-215.2525 745.1212,-221.8037"/>
</g>
<!-- Node12&#45;&gt;Node4 -->
<g id="edge32" class="edge">
<title>Node12&#45;&gt;Node4</title>
<path fill="none" stroke="#191970" d="M565.4289,-257.389C508.4643,-232.8448 395.9429,-184.3629 333.6284,-157.5135"/>
<polygon fill="#191970" stroke="#191970" points="335.0117,-154.2985 324.4429,-153.5558 332.2418,-160.7272 335.0117,-154.2985"/>
</g>
<!-- Node13 -->
<g id="node14" class="node">
<title>Node13</title>
<polygon fill="none" stroke="#bfbfbf" points="651.5,-196 651.5,-215 693.5,-215 693.5,-196 651.5,-196"/>
<text text-anchor="middle" x="672.5" y="-203" font-family="Helvetica,sans-Serif" font-size="10.00" fill="#000000">array</text>
</g>
<!-- Node12&#45;&gt;Node13 -->
<g id="edge17" class="edge">
<title>Node12&#45;&gt;Node13</title>
<path fill="none" stroke="#191970" d="M616.8379,-257.2967C628.1648,-246.7564 643.2376,-232.7303 654.8414,-221.9323"/>
<polygon fill="#191970" stroke="#191970" points="657.2956,-224.4296 662.232,-215.055 652.5269,-219.3051 657.2956,-224.4296"/>
</g>
<!-- Node14 -->
<g id="node15" class="node">
<title>Node14</title>
<g id="a_node15"><a xlink:href="../../da/d8d/PixelData_8h.html" target="_top" xlink:title="Transient data classes for single pixel and set of pixels from current chip. ">
<polygon fill="none" stroke="#000000" points="861,-123.5 861,-153.5 984,-153.5 984,-123.5 861,-123.5"/>
<text text-anchor="start" x="869" y="-141.5" font-family="Helvetica,sans-Serif" font-size="10.00" fill="#000000">ITSMFTReconstruction</text>
<text text-anchor="middle" x="922.5" y="-130.5" font-family="Helvetica,sans-Serif" font-size="10.00" fill="#000000">/PixelData.h</text>
</a>
</g>
</g>
<!-- Node12&#45;&gt;Node14 -->
<g id="edge19" class="edge">
<title>Node12&#45;&gt;Node14</title>
<path fill="none" stroke="#191970" d="M635.0562,-257.3417C655.3054,-247.9049 681.0377,-234.9369 702.5,-221 720.78,-209.1297 721.1674,-200.0654 740.5,-190 760.0232,-179.8353 809.0078,-166.1939 851.2444,-155.5044"/>
<polygon fill="#191970" stroke="#191970" points="852.1268,-158.8916 860.9744,-153.0632 850.4233,-152.102 852.1268,-158.8916"/>
</g>
<!-- Node22 -->
<g id="node23" class="node">
<title>Node22</title>
<g id="a_node23"><a xlink:href="../../d8/da2/AlpideCoder_8h.html" target="_top" xlink:title="class for the ALPIDE data decoding/encoding ">
<polygon fill="none" stroke="#000000" points="510,-190.5 510,-220.5 633,-220.5 633,-190.5 510,-190.5"/>
<text text-anchor="start" x="518" y="-208.5" font-family="Helvetica,sans-Serif" font-size="10.00" fill="#000000">ITSMFTReconstruction</text>
<text text-anchor="middle" x="571.5" y="-197.5" font-family="Helvetica,sans-Serif" font-size="10.00" fill="#000000">/AlpideCoder.h</text>
</a>
</g>
</g>
<!-- Node12&#45;&gt;Node22 -->
<g id="edge33" class="edge">
<title>Node12&#45;&gt;Node22</title>
<path fill="none" stroke="#191970" d="M593.9195,-257.2967C590.4341,-249.2443 586.0681,-239.1574 582.1173,-230.0296"/>
<polygon fill="#191970" stroke="#191970" points="585.2388,-228.4301 578.0545,-220.6432 578.8148,-231.2107 585.2388,-228.4301"/>
</g>
<!-- Node14&#45;&gt;Node6 -->
<g id="edge29" class="edge">
<title>Node14&#45;&gt;Node6</title>
<path fill="none" stroke="#191970" d="M860.8182,-124.8608C798.1398,-111.0012 703.3604,-90.0434 653.2753,-78.9685"/>
<polygon fill="#191970" stroke="#191970" points="653.8135,-75.503 643.2937,-76.7613 652.3021,-82.3379 653.8135,-75.503"/>
</g>
<!-- Node14&#45;&gt;Node10 -->
<g id="edge31" class="edge">
<title>Node14&#45;&gt;Node10</title>
<path fill="none" stroke="#191970" d="M891.2711,-123.4428C872.3122,-113.849 847.9143,-100.6842 827.5,-87 809.3953,-74.864 807.548,-68.2201 789.5,-56 772.1663,-44.2635 751.5922,-32.8454 735.2645,-24.3209"/>
<polygon fill="#191970" stroke="#191970" points="736.6916,-21.1191 726.1983,-19.6557 733.4887,-27.3434 736.6916,-21.1191"/>
</g>
<!-- Node15 -->
<g id="node16" class="node">
<title>Node15</title>
<g id="a_node16"><a xlink:href="../../d3/d1e/DataFormats_2Detectors_2ITSMFT_2common_2include_2DataFormatsITSMFT_2Digit_8h.html" target="_top" xlink:title="DataFormatsITSMFT/Digit.h">
<polygon fill="none" stroke="#000000" points="836,-62 836,-81 985,-81 985,-62 836,-62"/>
<text text-anchor="middle" x="910.5" y="-69" font-family="Helvetica,sans-Serif" font-size="10.00" fill="#000000">DataFormatsITSMFT/Digit.h</text>
</a>
</g>
</g>
<!-- Node14&#45;&gt;Node15 -->
<g id="edge20" class="edge">
<title>Node14&#45;&gt;Node15</title>
<path fill="none" stroke="#191970" d="M919.777,-123.2967C918.0707,-113.7699 915.8544,-101.3954 914.0159,-91.1306"/>
<polygon fill="#191970" stroke="#191970" points="917.4196,-90.2813 912.2113,-81.055 910.5292,-91.5154 917.4196,-90.2813"/>
</g>
<!-- Node14&#45;&gt;Node17 -->
<g id="edge23" class="edge">
<title>Node14&#45;&gt;Node17</title>
<path fill="none" stroke="#191970" d="M968.506,-123.4639C998.9957,-113.499 1039.1841,-100.3642 1071.5271,-89.7936"/>
<polygon fill="#191970" stroke="#191970" points="1072.8754,-93.0352 1081.2933,-86.6017 1070.7008,-86.3815 1072.8754,-93.0352"/>
</g>
<!-- Node21 -->
<g id="node22" class="node">
<title>Node21</title>
<polygon fill="none" stroke="#bfbfbf" points="735,-62 735,-81 780,-81 780,-62 735,-62"/>
<text text-anchor="middle" x="757.5" y="-69" font-family="Helvetica,sans-Serif" font-size="10.00" fill="#000000">utility</text>
</g>
<!-- Node14&#45;&gt;Node21 -->
<g id="edge30" class="edge">
<title>Node14&#45;&gt;Node21</title>
<path fill="none" stroke="#191970" d="M884.6374,-123.4296C859.1286,-113.2363 824.746,-99.4192 794.5,-87 792.9055,-86.3453 791.2734,-85.6723 789.626,-84.9906"/>
<polygon fill="#191970" stroke="#191970" points="790.7544,-81.6693 780.1771,-81.0596 788.0655,-88.1323 790.7544,-81.6693"/>
</g>
<!-- Node15&#45;&gt;Node8 -->
<g id="edge21" class="edge">
<title>Node15&#45;&gt;Node8</title>
<path fill="none" stroke="#191970" d="M844.0946,-61.9581C754.0179,-49.0148 595.9189,-26.2973 522.3048,-15.7196"/>
<polygon fill="#191970" stroke="#191970" points="522.471,-12.2076 512.0748,-14.2497 521.4753,-19.1365 522.471,-12.2076"/>
</g>
<!-- Node16 -->
<g id="node17" class="node">
<title>Node16</title>
<polygon fill="none" stroke="#bfbfbf" points="885.5,-.5 885.5,-19.5 935.5,-19.5 935.5,-.5 885.5,-.5"/>
<text text-anchor="middle" x="910.5" y="-7.5" font-family="Helvetica,sans-Serif" font-size="10.00" fill="#000000">climits</text>
</g>
<!-- Node15&#45;&gt;Node16 -->
<g id="edge22" class="edge">
<title>Node15&#45;&gt;Node16</title>
<path fill="none" stroke="#191970" d="M910.5,-61.8906C910.5,-53.3657 910.5,-40.6392 910.5,-29.9235"/>
<polygon fill="#191970" stroke="#191970" points="914.0001,-29.7448 910.5,-19.7449 907.0001,-29.7449 914.0001,-29.7448"/>
</g>
<!-- Node17&#45;&gt;Node8 -->
<g id="edge24" class="edge">
<title>Node17&#45;&gt;Node8</title>
<path fill="none" stroke="#191970" d="M1040.255,-60.9985C1025.0114,-59.2591 1009.2992,-57.5269 994.5,-56 818.7313,-37.8652 608.5874,-20.2663 522.3776,-13.2218"/>
<polygon fill="#191970" stroke="#191970" points="522.5,-9.7203 512.2487,-12.3962 521.9312,-16.6971 522.5,-9.7203"/>
</g>
<!-- Node17&#45;&gt;Node10 -->
<g id="edge27" class="edge">
<title>Node17&#45;&gt;Node10</title>
<path fill="none" stroke="#191970" d="M1040.4617,-58.0889C1035.7397,-57.3781 1031.0623,-56.678 1026.5,-56 923.0644,-40.629 800.6913,-23.2666 741.7328,-14.9531"/>
<polygon fill="#191970" stroke="#191970" points="742.2071,-11.4854 731.8166,-13.5559 741.2304,-18.417 742.2071,-11.4854"/>
</g>
<!-- Node18 -->
<g id="node19" class="node">
<title>Node18</title>
<polygon fill="none" stroke="#bfbfbf" points="1037,-.5 1037,-19.5 1086,-19.5 1086,-.5 1037,-.5"/>
<text text-anchor="middle" x="1061.5" y="-7.5" font-family="Helvetica,sans-Serif" font-size="10.00" fill="#000000">iosfwd</text>
</g>
<!-- Node17&#45;&gt;Node18 -->
<g id="edge25" class="edge">
<title>Node17&#45;&gt;Node18</title>
<path fill="none" stroke="#191970" d="M1111.1854,-56.2977C1101.5467,-47.3163 1089.3309,-35.9334 1079.4241,-26.702"/>
<polygon fill="#191970" stroke="#191970" points="1081.7696,-24.1036 1072.0674,-19.8469 1076.9975,-29.2249 1081.7696,-24.1036"/>
</g>
<!-- Node19 -->
<g id="node20" class="node">
<title>Node19</title>
<polygon fill="none" stroke="#bfbfbf" points="1104,-.5 1104,-19.5 1151,-19.5 1151,-.5 1104,-.5"/>
<text text-anchor="middle" x="1127.5" y="-7.5" font-family="Helvetica,sans-Serif" font-size="10.00" fill="#000000">cmath</text>
</g>
<!-- Node17&#45;&gt;Node19 -->
<g id="edge26" class="edge">
<title>Node17&#45;&gt;Node19</title>
<path fill="none" stroke="#191970" d="M1127.5,-56.2977C1127.5,-48.3834 1127.5,-38.6043 1127.5,-30.0759"/>
<polygon fill="#191970" stroke="#191970" points="1131.0001,-29.8469 1127.5,-19.8469 1124.0001,-29.847 1131.0001,-29.8469"/>
</g>
<!-- Node20 -->
<g id="node21" class="node">
<title>Node20</title>
<g id="a_node21"><a xlink:href="../../d4/dc6/LHCConstants_8h.html" target="_top" xlink:title="Header to collect LHC related constants. ">
<polygon fill="none" stroke="#000000" points="1169.5,-.5 1169.5,-19.5 1359.5,-19.5 1359.5,-.5 1169.5,-.5"/>
<text text-anchor="middle" x="1264.5" y="-7.5" font-family="Helvetica,sans-Serif" font-size="10.00" fill="#000000">CommonConstants/LHCConstants.h</text>
</a>
</g>
</g>
<!-- Node17&#45;&gt;Node20 -->
<g id="edge28" class="edge">
<title>Node17&#45;&gt;Node20</title>
<path fill="none" stroke="#191970" d="M1161.014,-56.4554C1183.2712,-46.464 1212.2647,-33.4487 1233.8985,-23.7372"/>
<polygon fill="#191970" stroke="#191970" points="1235.5803,-26.8187 1243.2699,-19.5303 1232.7135,-20.4327 1235.5803,-26.8187"/>
</g>
<!-- Node22&#45;&gt;Node1 -->
<g id="edge38" class="edge">
<title>Node22&#45;&gt;Node1</title>
<path fill="none" stroke="#191970" d="M509.912,-202.4556C438.412,-197.5725 317.6215,-185.125 218.5,-154 216.8423,-153.4795 215.1642,-152.8792 213.4914,-152.2237"/>
<polygon fill="#191970" stroke="#191970" points="214.7039,-148.9318 204.1468,-148.038 211.8423,-155.3202 214.7039,-148.9318"/>
</g>
<!-- Node22&#45;&gt;Node4 -->
<g id="edge41" class="edge">
<title>Node22&#45;&gt;Node4</title>
<path fill="none" stroke="#191970" d="M509.9624,-190.8794C466.1773,-180.4765 407.2133,-166.4673 361.2819,-155.5546"/>
<polygon fill="#191970" stroke="#191970" points="361.9311,-152.1115 351.3929,-153.2051 360.313,-158.9219 361.9311,-152.1115"/>
</g>
<!-- Node22&#45;&gt;Node6 -->
<g id="edge37" class="edge">
<title>Node22&#45;&gt;Node6</title>
<path fill="none" stroke="#191970" d="M583.1793,-190.0614C590.0773,-180.2235 598.4266,-166.9355 603.5,-154 611.5406,-133.4989 615.6618,-108.4934 617.6902,-91.4219"/>
<polygon fill="#191970" stroke="#191970" points="621.1708,-91.7886 618.7411,-81.4762 614.2096,-91.053 621.1708,-91.7886"/>
</g>
<!-- Node22&#45;&gt;Node8 -->
<g id="edge34" class="edge">
<title>Node22&#45;&gt;Node8</title>
<path fill="none" stroke="#191970" d="M560.9461,-190.1431C554.3136,-180.1183 545.8434,-166.5986 539.5,-154 517.8306,-110.9624 498.5668,-57.6125 488.9599,-29.4794"/>
<polygon fill="#191970" stroke="#191970" points="492.1719,-28.0507 485.6615,-19.6921 485.5384,-30.2862 492.1719,-28.0507"/>
</g>
<!-- Node22&#45;&gt;Node10 -->
<g id="edge36" class="edge">
<title>Node22&#45;&gt;Node10</title>
<path fill="none" stroke="#191970" d="M630.9487,-190.4886C675.1732,-178.7229 728.9656,-162.9009 735.5,-154 743.6534,-142.8937 737.226,-136.6692 735.5,-123 735.2035,-120.652 719.8732,-61.4662 711.6257,-29.7122"/>
<polygon fill="#191970" stroke="#191970" points="714.9428,-28.5608 709.04,-19.7626 708.1678,-30.3214 714.9428,-28.5608"/>
</g>
<!-- Node22&#45;&gt;Node14 -->
<g id="edge42" class="edge">
<title>Node22&#45;&gt;Node14</title>
<path fill="none" stroke="#191970" d="M633.039,-191.8905C636.236,-191.2383 639.4042,-190.6042 642.5,-190 731.9395,-172.5432 757.321,-172.0688 851.0562,-154.0314"/>
<polygon fill="#191970" stroke="#191970" points="851.8109,-157.4504 860.961,-152.1095 850.4774,-150.5785 851.8109,-157.4504"/>
</g>
<!-- Node23 -->
<g id="node24" class="node">
<title>Node23</title>
<polygon fill="none" stroke="#bfbfbf" points="548.5,-129 548.5,-148 594.5,-148 594.5,-129 548.5,-129"/>
<text text-anchor="middle" x="571.5" y="-136" font-family="Helvetica,sans-Serif" font-size="10.00" fill="#000000">cstdio</text>
</g>
<!-- Node22&#45;&gt;Node23 -->
<g id="edge35" class="edge">
<title>Node22&#45;&gt;Node23</title>
<path fill="none" stroke="#191970" d="M571.5,-190.2967C571.5,-180.7699 571.5,-168.3954 571.5,-158.1306"/>
<polygon fill="#191970" stroke="#191970" points="575.0001,-158.0549 571.5,-148.055 568.0001,-158.055 575.0001,-158.0549"/>
</g>
<!-- Node24 -->
<g id="node25" class="node">
<title>Node24</title>
<polygon fill="none" stroke="#bfbfbf" points="651,-129 651,-148 726,-148 726,-129 651,-129"/>
<text text-anchor="middle" x="688.5" y="-136" font-family="Helvetica,sans-Serif" font-size="10.00" fill="#000000">FairLogger.h</text>
</g>
<!-- Node22&#45;&gt;Node24 -->
<g id="edge39" class="edge">
<title>Node22&#45;&gt;Node24</title>
<path fill="none" stroke="#191970" d="M597.7571,-190.4639C617.2113,-179.3234 643.5839,-164.2212 662.8839,-153.1691"/>
<polygon fill="#191970" stroke="#191970" points="664.7904,-156.1106 671.729,-148.1039 661.3118,-150.0361 664.7904,-156.1106"/>
</g>
<!-- Node25 -->
<g id="node26" class="node">
<title>Node25</title>
<polygon fill="none" stroke="#bfbfbf" points="782.5,-129 782.5,-148 842.5,-148 842.5,-129 782.5,-129"/>
<text text-anchor="middle" x="812.5" y="-136" font-family="Helvetica,sans-Serif" font-size="10.00" fill="#000000">iostream</text>
</g>
<!-- Node22&#45;&gt;Node25 -->
<g id="edge40" class="edge">
<title>Node22&#45;&gt;Node25</title>
<path fill="none" stroke="#191970" d="M633.0976,-190.7934C672.1279,-181.1311 723.5447,-167.7684 768.5,-154 771.2588,-153.1551 774.1018,-152.2451 776.9523,-151.3046"/>
<polygon fill="#191970" stroke="#191970" points="778.2183,-154.5711 786.5602,-148.0394 775.9658,-147.9433 778.2183,-154.5711"/>
</g>
<!-- Node26&#45;&gt;Node8 -->
<g id="edge44" class="edge">
<title>Node26&#45;&gt;Node8</title>
<path fill="none" stroke="#191970" d="M264.2938,-57.9274C318.644,-45.9898 396.1474,-28.9667 442.669,-18.7486"/>
<polygon fill="#191970" stroke="#191970" points="443.653,-22.116 452.6693,-16.5521 442.1513,-15.279 443.653,-22.116"/>
</g>
<!-- Node26&#45;&gt;Node10 -->
<g id="edge45" class="edge">
<title>Node26&#45;&gt;Node10</title>
<path fill="none" stroke="#191970" d="M264.143,-62.4567C279.5952,-60.2662 296.1455,-57.9855 311.5,-56 443.7604,-38.8977 601.3197,-21.4144 670.6963,-13.8623"/>
<polygon fill="#191970" stroke="#191970" points="671.4927,-17.2965 681.0563,-12.7371 670.7368,-10.3374 671.4927,-17.2965"/>
</g>
<!-- Node27&#45;&gt;Node10 -->
<g id="edge47" class="edge">
<title>Node27&#45;&gt;Node10</title>
<path fill="none" stroke="#191970" d="M897.5101,-262.9161C936.4252,-230.7548 1053.2144,-124.8366 994.5,-56 978.2535,-36.9526 815.2204,-19.8809 741.8979,-13.1005"/>
<polygon fill="#191970" stroke="#191970" points="742.0355,-9.5986 731.7589,-12.1757 741.3997,-16.5696 742.0355,-9.5986"/>
</g>
</g>
</svg>
        <g id="navigator" transform="translate(0 0)" fill="#404254">
                <rect fill="#f2f5e9" fill-opacity="0.5" stroke="#606060" stroke-width=".5" x="0" y="0" width="60" height="60"/>
                <use id="zoomplus" xlink:href="#zoomPlus" x="17" y="9" onmousedown="handleZoom(evt,'in')"/>
                <use id="zoomminus" xlink:href="#zoomMin" x="42" y="9" onmousedown="handleZoom(evt,'out')"/>
                <use id="reset" xlink:href="#resetDef" x="30" y="36" onmousedown="handleReset()"/>
                <g id="arrowUp" xlink:href="#dirArrow" transform="translate(30 24)" onmousedown="handlePan(0,-1)">
                  <use xlink:href="#rim" fill="#404040">
                        <set attributeName="fill" to="#808080" begin="arrowUp.mouseover" end="arrowUp.mouseout"/>
                  </use>
                  <path fill="none" stroke="white" stroke-width="1.5" d="M0,-3.0v7 M-2.5,-0.5L0,-3.0L2.5,-0.5"/>
                </g>
                <g id="arrowRight" xlink:href="#dirArrow" transform="rotate(90) translate(36 -43)" onmousedown="handlePan(1,0)">
                  <use xlink:href="#rim" fill="#404040">
                        <set attributeName="fill" to="#808080" begin="arrowRight.mouseover" end="arrowRight.mouseout"/>
                  </use>
                  <path fill="none" stroke="white" stroke-width="1.5" d="M0,-3.0v7 M-2.5,-0.5L0,-3.0L2.5,-0.5"/>
                </g>
                <g id="arrowDown" xlink:href="#dirArrow" transform="rotate(180) translate(-30 -48)" onmousedown="handlePan(0,1)">
                  <use xlink:href="#rim" fill="#404040">
                        <set attributeName="fill" to="#808080" begin="arrowDown.mouseover" end="arrowDown.mouseout"/>
                  </use>
                  <path fill="none" stroke="white" stroke-width="1.5" d="M0,-3.0v7 M-2.5,-0.5L0,-3.0L2.5,-0.5"/>
                </g>
                <g id="arrowLeft" xlink:href="#dirArrow" transform="rotate(270) translate(-36 17)" onmousedown="handlePan(-1,0)">
                  <use xlink:href="#rim" fill="#404040">
                        <set attributeName="fill" to="#808080" begin="arrowLeft.mouseover" end="arrowLeft.mouseout"/>
                  </use>
                  <path fill="none" stroke="white" stroke-width="1.5" d="M0,-3.0v7 M-2.5,-0.5L0,-3.0L2.5,-0.5"/>
                </g>
        </g>
        <svg viewBox="0 0 15 15" width="100%" height="30px" preserveAspectRatio="xMaxYMin meet">
         <g id="arrow_out" transform="scale(0.3 0.3)">
          <a xlink:href="GBTLink_8h__incl_org.svg" target="_base">
           <rect id="button" ry="5" rx="5" y="6" x="6" height="38" width="38"
                fill="#f2f5e9" fill-opacity="0.5" stroke="#606060" stroke-width="1.0"/>
           <path id="arrow"
             d="M 11.500037,31.436501 C 11.940474,20.09759 22.043105,11.32322 32.158766,21.979434 L 37.068811,17.246167 C 37.068811,17.246167 37.088388,32 37.088388,32 L 22.160133,31.978069 C 22.160133,31.978069 26.997745,27.140456 26.997745,27.140456 C 18.528582,18.264221 13.291696,25.230495 11.500037,31.436501 z"
             style="fill:#404040;"/>
          </a>
         </g>
        </svg>
</svg>
