<?xml version="1.0" encoding="UTF-8" standalone="no"?>
<!DOCTYPE svg PUBLIC "-//W3C//DTD SVG 1.1//EN"
 "http://www.w3.org/Graphics/SVG/1.1/DTD/svg11.dtd">
<!-- Generated by graphviz version 2.40.1 (20161225.0304)
 -->
<!-- Title: o2::soa::CombinationsBlockStrictlyUpperIndexPolicy&lt; Ts &gt; Pages: 1 -->
<!--zoomable 629 -->
<svg id="main" version="1.1" xmlns="http://www.w3.org/2000/svg" xmlns:xlink="http://www.w3.org/1999/xlink" xml:space="preserve" onload="init(evt)">
<style type="text/css"><![CDATA[
.edge:hover path { stroke: red; }
.edge:hover polygon { stroke: red; fill: red; }
]]></style>
<script type="text/javascript"><![CDATA[
var edges = document.getElementsByTagName('g');
if (edges && edges.length) {
  for (var i=0;i<edges.length;i++) {
    if (edges[i].id.substr(0,4)=='edge') {
      edges[i].setAttribute('class','edge');
    }
  }
}
]]></script>
        <defs>
                <circle id="rim" cx="0" cy="0" r="7"/>
                <circle id="rim2" cx="0" cy="0" r="3.5"/>
                <g id="zoomPlus">
                        <use xlink:href="#rim" fill="#404040">
                                <set attributeName="fill" to="#808080" begin="zoomplus.mouseover" end="zoomplus.mouseout"/>
                        </use>
                        <path d="M-4,0h8M0,-4v8" fill="none" stroke="white" stroke-width="1.5" pointer-events="none"/>
                </g>
                <g id="zoomMin">
                        <use xlink:href="#rim" fill="#404040">
                                <set attributeName="fill" to="#808080" begin="zoomminus.mouseover" end="zoomminus.mouseout"/>
                        </use>
                        <path d="M-4,0h8" fill="none" stroke="white" stroke-width="1.5" pointer-events="none"/>
                </g>
                <g id="dirArrow">
                        <path fill="none" stroke="white" stroke-width="1.5" d="M0,-3.0v7 M-2.5,-0.5L0,-3.0L2.5,-0.5"/>
                </g>
               <g id="resetDef">
                       <use xlink:href="#rim2" fill="#404040">
                               <set attributeName="fill" to="#808080" begin="reset.mouseover" end="reset.mouseout"/>
                       </use>
               </g>
        </defs>

<script type="text/javascript">
var viewWidth = 696;
var viewHeight = 629;
var sectionId = 'dynsection-1';
</script>
<script xlink:href="../../svgpan.js"/>
<svg id="graph" class="graph">
<g id="viewport">
<title>o2::soa::CombinationsBlockStrictlyUpperIndexPolicy&lt; Ts &gt;</title>
<!-- Node3 -->
<g id="node1" class="node">
<title>Node3</title>
<polygon fill="#bfbfbf" stroke="#000000" points="411.6888,-.5 411.6888,-112.5 580.6888,-112.5 580.6888,-.5 411.6888,-.5"/>
<text text-anchor="start" x="419.6888" y="-100.5" font-family="Helvetica,sans-Serif" font-size="10.00" fill="#000000">o2::soa::CombinationsBlock</text>
<text text-anchor="middle" x="496.1888" y="-89.5" font-family="Helvetica,sans-Serif" font-size="10.00" fill="#000000">StrictlyUpperIndexPolicy&lt; Ts &gt;</text>
<polyline fill="none" stroke="#000000" points="411.6888,-82.5 580.6888,-82.5 "/>
<text text-anchor="middle" x="496.1888" y="-70.5" font-family="Helvetica,sans-Serif" font-size="10.00" fill="#000000"> </text>
<polyline fill="none" stroke="#000000" points="411.6888,-63.5 580.6888,-63.5 "/>
<text text-anchor="start" x="419.6888" y="-51.5" font-family="Helvetica,sans-Serif" font-size="10.00" fill="#000000">+ CombinationsBlockStrictly</text>
<text text-anchor="start" x="419.6888" y="-40.5" font-family="Helvetica,sans-Serif" font-size="10.00" fill="#000000">UpperIndexPolicy()</text>
<text text-anchor="start" x="419.6888" y="-29.5" font-family="Helvetica,sans-Serif" font-size="10.00" fill="#000000">+ setRanges()</text>
<text text-anchor="start" x="419.6888" y="-18.5" font-family="Helvetica,sans-Serif" font-size="10.00" fill="#000000">+ moveToEnd()</text>
<text text-anchor="start" x="419.6888" y="-7.5" font-family="Helvetica,sans-Serif" font-size="10.00" fill="#000000">+ addOne()</text>
</g>
<!-- Node4 -->
<g id="node2" class="node">
<title>Node4</title>
<g id="a_node2"><a xlink:href="../../de/dac/structo2_1_1soa_1_1CombinationsIndexPolicyBase.html" target="_top" xlink:title="{o2::soa::CombinationsIndex\lPolicyBase\&lt; Ts... \&gt;\n||+ CombinationsIndexPolicyBase()\l+ moveToEnd()\l+ addOne()\l}">
<polygon fill="none" stroke="#000000" points="199.6888,-160.5 199.6888,-250.5 382.6888,-250.5 382.6888,-160.5 199.6888,-160.5"/>
<text text-anchor="start" x="207.6888" y="-238.5" font-family="Helvetica,sans-Serif" font-size="10.00" fill="#000000">o2::soa::CombinationsIndex</text>
<text text-anchor="middle" x="291.1888" y="-227.5" font-family="Helvetica,sans-Serif" font-size="10.00" fill="#000000">PolicyBase&lt; Ts... &gt;</text>
<polyline fill="none" stroke="#000000" points="199.6888,-220.5 382.6888,-220.5 "/>
<text text-anchor="middle" x="291.1888" y="-208.5" font-family="Helvetica,sans-Serif" font-size="10.00" fill="#000000"> </text>
<polyline fill="none" stroke="#000000" points="199.6888,-201.5 382.6888,-201.5 "/>
<text text-anchor="start" x="207.6888" y="-189.5" font-family="Helvetica,sans-Serif" font-size="10.00" fill="#000000">+ CombinationsIndexPolicyBase()</text>
<text text-anchor="start" x="207.6888" y="-178.5" font-family="Helvetica,sans-Serif" font-size="10.00" fill="#000000">+ moveToEnd()</text>
<text text-anchor="start" x="207.6888" y="-167.5" font-family="Helvetica,sans-Serif" font-size="10.00" fill="#000000">+ addOne()</text>
</a>
</g>
</g>
<!-- Node4&#45;&gt;Node3 -->
<g id="edge1" class="edge">
<title>Node4&#45;&gt;Node3</title>
<path fill="none" stroke="#191970" d="M361.3948,-154.4723C379.9911,-140.9559 400.167,-126.2915 419.107,-112.5254"/>
<polygon fill="none" stroke="#191970" points="359.2832,-151.6801 353.2519,-160.3907 363.3988,-157.3425 359.2832,-151.6801"/>
</g>
<!-- Node5 -->
<g id="node3" class="node">
<title>Node5</title>
<g id="a_node3"><a xlink:href="../../d7/d86/structo2_1_1soa_1_1generate__tuple__type.html" target="_top" xlink:title="{o2::soa::generate_tuple\l_type\&lt; uint64_t, sizeof...(Ts)\&gt;\n||}">
<polygon fill="none" stroke="#000000" points="315.1888,-436.5 315.1888,-504.5 479.1888,-504.5 479.1888,-436.5 315.1888,-436.5"/>
<text text-anchor="start" x="323.1888" y="-492.5" font-family="Helvetica,sans-Serif" font-size="10.00" fill="#000000">o2::soa::generate_tuple</text>
<text text-anchor="middle" x="397.1888" y="-481.5" font-family="Helvetica,sans-Serif" font-size="10.00" fill="#000000">_type&lt; uint64_t, sizeof...(Ts)&gt;</text>
<polyline fill="none" stroke="#000000" points="315.1888,-474.5 479.1888,-474.5 "/>
<text text-anchor="middle" x="397.1888" y="-462.5" font-family="Helvetica,sans-Serif" font-size="10.00" fill="#000000"> </text>
<polyline fill="none" stroke="#000000" points="315.1888,-455.5 479.1888,-455.5 "/>
<text text-anchor="middle" x="397.1888" y="-443.5" font-family="Helvetica,sans-Serif" font-size="10.00" fill="#000000"> </text>
</a>
</g>
</g>
<!-- Node5&#45;&gt;Node3 -->
<g id="edge10" class="edge">
<title>Node5&#45;&gt;Node3</title>
<path fill="none" stroke="#404040" d="M425.9331,-436.4577C436.1712,-422.5723 446.7492,-405.8364 453.1888,-389 486.4674,-301.9942 494.9427,-193.8259 496.6206,-124.958"/>
<polygon fill="none" stroke="#404040" points="496.628,-124.5679 492.7444,-118.492 496.8592,-112.5702 500.7429,-118.6461 496.628,-124.5679"/>
<text text-anchor="middle" x="530.1888" y="-272" font-family="Helvetica,sans-Serif" font-size="10.00" fill="#000000"> +mCurrentIndices</text>
</g>
<!-- Node5&#45;&gt;Node4 -->
<g id="edge2" class="edge">
<title>Node5&#45;&gt;Node4</title>
<path fill="none" stroke="#404040" d="M390.0462,-436.1894C382.0182,-400.6999 367.4117,-344.1176 347.1888,-298 341.8209,-285.7585 335.1068,-273.1708 328.2107,-261.3765"/>
<polygon fill="none" stroke="#404040" points="328.0376,-261.0883 321.5195,-258.0038 321.8597,-250.8007 328.3779,-253.8852 328.0376,-261.0883"/>
<text text-anchor="middle" x="413.6888" y="-341" font-family="Helvetica,sans-Serif" font-size="10.00" fill="#000000"> +mMaxOffset</text>
</g>
<!-- Node9 -->
<g id="node7" class="node">
<title>Node9</title>
<g id="a_node7"><a xlink:href="../../de/dac/structo2_1_1soa_1_1CombinationsIndexPolicyBase.html" target="_top" xlink:title="{o2::soa::CombinationsIndex\lPolicyBase\&lt; Ts \&gt;\n||+ CombinationsIndexPolicyBase()\l+ moveToEnd()\l+ addOne()\l}">
<polygon fill="none" stroke="#000000" points="71.6888,-298.5 71.6888,-388.5 254.6888,-388.5 254.6888,-298.5 71.6888,-298.5"/>
<text text-anchor="start" x="79.6888" y="-376.5" font-family="Helvetica,sans-Serif" font-size="10.00" fill="#000000">o2::soa::CombinationsIndex</text>
<text text-anchor="middle" x="163.1888" y="-365.5" font-family="Helvetica,sans-Serif" font-size="10.00" fill="#000000">PolicyBase&lt; Ts &gt;</text>
<polyline fill="none" stroke="#000000" points="71.6888,-358.5 254.6888,-358.5 "/>
<text text-anchor="middle" x="163.1888" y="-346.5" font-family="Helvetica,sans-Serif" font-size="10.00" fill="#000000"> </text>
<polyline fill="none" stroke="#000000" points="71.6888,-339.5 254.6888,-339.5 "/>
<text text-anchor="start" x="79.6888" y="-327.5" font-family="Helvetica,sans-Serif" font-size="10.00" fill="#000000">+ CombinationsIndexPolicyBase()</text>
<text text-anchor="start" x="79.6888" y="-316.5" font-family="Helvetica,sans-Serif" font-size="10.00" fill="#000000">+ moveToEnd()</text>
<text text-anchor="start" x="79.6888" y="-305.5" font-family="Helvetica,sans-Serif" font-size="10.00" fill="#000000">+ addOne()</text>
</a>
</g>
</g>
<!-- Node5&#45;&gt;Node9 -->
<g id="edge7" class="edge">
<title>Node5&#45;&gt;Node9</title>
<path fill="none" stroke="#404040" d="M334.4811,-436.4663C310.6842,-423.5509 283.037,-408.5458 256.9883,-394.4082"/>
<polygon fill="none" stroke="#404040" points="256.8736,-394.346 249.6921,-394.9995 246.3268,-388.6219 253.5082,-387.9683 256.8736,-394.346"/>
<text text-anchor="middle" x="330.6888" y="-410" font-family="Helvetica,sans-Serif" font-size="10.00" fill="#000000"> +mMaxOffset</text>
</g>
<!-- Node6 -->
<g id="node4" class="node">
<title>Node6</title>
<g id="a_node4"><a xlink:href="../../d7/d86/structo2_1_1soa_1_1generate__tuple__type.html" target="_top" xlink:title="{o2::soa::generate_tuple\l_type\&lt; T, N, REST \&gt;\n||}">
<polygon fill="none" stroke="#000000" points="331.6888,-552.5 331.6888,-620.5 462.6888,-620.5 462.6888,-552.5 331.6888,-552.5"/>
<text text-anchor="start" x="339.6888" y="-608.5" font-family="Helvetica,sans-Serif" font-size="10.00" fill="#000000">o2::soa::generate_tuple</text>
<text text-anchor="middle" x="397.1888" y="-597.5" font-family="Helvetica,sans-Serif" font-size="10.00" fill="#000000">_type&lt; T, N, REST &gt;</text>
<polyline fill="none" stroke="#000000" points="331.6888,-590.5 462.6888,-590.5 "/>
<text text-anchor="middle" x="397.1888" y="-578.5" font-family="Helvetica,sans-Serif" font-size="10.00" fill="#000000"> </text>
<polyline fill="none" stroke="#000000" points="331.6888,-571.5 462.6888,-571.5 "/>
<text text-anchor="middle" x="397.1888" y="-559.5" font-family="Helvetica,sans-Serif" font-size="10.00" fill="#000000"> </text>
</a>
</g>
</g>
<!-- Node6&#45;&gt;Node5 -->
<g id="edge3" class="edge">
<title>Node6&#45;&gt;Node5</title>
<path fill="none" stroke="#ffa500" d="M397.1888,-542.1851C397.1888,-529.8048 397.1888,-516.5422 397.1888,-504.833"/>
<polygon fill="#ffa500" stroke="#ffa500" points="393.6889,-542.3235 397.1888,-552.3236 400.6889,-542.3236 393.6889,-542.3235"/>
<text text-anchor="middle" x="459.1888" y="-526" font-family="Helvetica,sans-Serif" font-size="10.00" fill="#000000"> &lt; uint64_t, sizeof...(Ts)&gt;</text>
</g>
<!-- Node7 -->
<g id="node5" class="node">
<title>Node7</title>
<polygon fill="none" stroke="#bfbfbf" points="140.6888,-436.5 140.6888,-504.5 255.6888,-504.5 255.6888,-436.5 140.6888,-436.5"/>
<text text-anchor="start" x="148.6888" y="-492.5" font-family="Helvetica,sans-Serif" font-size="10.00" fill="#000000">tuple&lt; typename Ts</text>
<text text-anchor="middle" x="198.1888" y="-481.5" font-family="Helvetica,sans-Serif" font-size="10.00" fill="#000000">::iterator... &gt;</text>
<polyline fill="none" stroke="#bfbfbf" points="140.6888,-474.5 255.6888,-474.5 "/>
<text text-anchor="middle" x="198.1888" y="-462.5" font-family="Helvetica,sans-Serif" font-size="10.00" fill="#000000"> </text>
<polyline fill="none" stroke="#bfbfbf" points="140.6888,-455.5 255.6888,-455.5 "/>
<text text-anchor="middle" x="198.1888" y="-443.5" font-family="Helvetica,sans-Serif" font-size="10.00" fill="#000000"> </text>
</g>
<!-- Node7&#45;&gt;Node4 -->
<g id="edge4" class="edge">
<title>Node7&#45;&gt;Node4</title>
<path fill="none" stroke="#404040" d="M233.5179,-436.3069C245.1821,-422.7753 256.799,-406.3191 263.1888,-389 278.2219,-348.2547 285.1868,-299.5556 288.4122,-262.5685"/>
<polygon fill="none" stroke="#404040" points="288.4203,-262.4649 284.9071,-256.1675 289.3689,-250.5025 292.8821,-256.7999 288.4203,-262.4649"/>
<text text-anchor="middle" x="314.1888" y="-341" font-family="Helvetica,sans-Serif" font-size="10.00" fill="#000000"> +mCurrent</text>
</g>
<!-- Node7&#45;&gt;Node9 -->
<g id="edge8" class="edge">
<title>Node7&#45;&gt;Node9</title>
<path fill="none" stroke="#404040" d="M188.8095,-436.4663C185.7405,-425.3304 182.2434,-412.6409 178.8406,-400.2934"/>
<polygon fill="none" stroke="#404040" points="178.8123,-400.1906 173.3619,-395.469 175.624,-388.6219 181.0744,-393.3434 178.8123,-400.1906"/>
<text text-anchor="middle" x="212.1888" y="-410" font-family="Helvetica,sans-Serif" font-size="10.00" fill="#000000"> +mCurrent</text>
</g>
<!-- Node8 -->
<g id="node6" class="node">
<title>Node8</title>
<polygon fill="none" stroke="#bfbfbf" points="53.1888,-442 53.1888,-499 91.1888,-499 91.1888,-442 53.1888,-442"/>
<text text-anchor="middle" x="72.1888" y="-487" font-family="Helvetica,sans-Serif" font-size="10.00" fill="#000000">bool</text>
<polyline fill="none" stroke="#bfbfbf" points="53.1888,-480 91.1888,-480 "/>
<text text-anchor="middle" x="72.1888" y="-468" font-family="Helvetica,sans-Serif" font-size="10.00" fill="#000000"> </text>
<polyline fill="none" stroke="#bfbfbf" points="53.1888,-461 91.1888,-461 "/>
<text text-anchor="middle" x="72.1888" y="-449" font-family="Helvetica,sans-Serif" font-size="10.00" fill="#000000"> </text>
</g>
<!-- Node8&#45;&gt;Node4 -->
<g id="edge5" class="edge">
<title>Node8&#45;&gt;Node4</title>
<path fill="none" stroke="#404040" d="M52.9684,-451.0296C39.2001,-435.6309 21.7999,-412.8215 14.1888,-389 1.8797,-350.4742 -9.4506,-330.8166 14.1888,-298 35.199,-268.8334 117.9176,-243.5983 187.5388,-226.8878"/>
<polygon fill="none" stroke="#404040" points="187.7959,-226.8272 192.7182,-221.5573 199.4759,-224.0741 194.5536,-229.3439 187.7959,-226.8272"/>
<text text-anchor="middle" x="38.1888" y="-341" font-family="Helvetica,sans-Serif" font-size="10.00" fill="#000000"> +mIsEnd</text>
</g>
<!-- Node8&#45;&gt;Node9 -->
<g id="edge9" class="edge">
<title>Node8&#45;&gt;Node9</title>
<path fill="none" stroke="#404040" d="M91.2654,-443.8766C100.671,-430.7502 112.3819,-414.4064 123.6044,-398.7443"/>
<polygon fill="none" stroke="#404040" points="123.8901,-398.3455 124.1333,-391.1385 130.8795,-388.5911 130.6362,-395.7981 123.8901,-398.3455"/>
<text text-anchor="middle" x="142.1888" y="-410" font-family="Helvetica,sans-Serif" font-size="10.00" fill="#000000"> +mIsEnd</text>
</g>
<!-- Node9&#45;&gt;Node4 -->
<g id="edge6" class="edge">
<title>Node9&#45;&gt;Node4</title>
<path fill="none" stroke="#ffa500" d="M212.3265,-290.4249C219,-283.2226 225.7614,-275.9287 232.1888,-269 237.7154,-263.0425 243.5356,-256.7729 249.2796,-250.5879"/>
<polygon fill="#ffa500" stroke="#ffa500" points="209.3681,-288.4682 205.1394,-298.1825 214.503,-293.2255 209.3681,-288.4682"/>
<text text-anchor="middle" x="254.6888" y="-272" font-family="Helvetica,sans-Serif" font-size="10.00" fill="#000000"> &lt; Ts... &gt;</text>
</g>
<!-- Node10 -->
<g id="node8" class="node">
<title>Node10</title>
<polygon fill="none" stroke="#bfbfbf" points="524.6888,-166 524.6888,-245 687.6888,-245 687.6888,-166 524.6888,-166"/>
<text text-anchor="start" x="532.6888" y="-233" font-family="Helvetica,sans-Serif" font-size="10.00" fill="#000000">array&lt; std::vector</text>
<text text-anchor="start" x="532.6888" y="-222" font-family="Helvetica,sans-Serif" font-size="10.00" fill="#000000">&lt; std::pair&lt; uint64</text>
<text text-anchor="middle" x="606.1888" y="-211" font-family="Helvetica,sans-Serif" font-size="10.00" fill="#000000">_t, uint64_t &gt; &gt;, sizeof...(Ts)&gt;</text>
<polyline fill="none" stroke="#bfbfbf" points="524.6888,-204 687.6888,-204 "/>
<text text-anchor="middle" x="606.1888" y="-192" font-family="Helvetica,sans-Serif" font-size="10.00" fill="#000000"> </text>
<polyline fill="none" stroke="#bfbfbf" points="524.6888,-185 687.6888,-185 "/>
<text text-anchor="middle" x="606.1888" y="-173" font-family="Helvetica,sans-Serif" font-size="10.00" fill="#000000"> </text>
</g>
<!-- Node10&#45;&gt;Node3 -->
<g id="edge11" class="edge">
<title>Node10&#45;&gt;Node3</title>
<path fill="none" stroke="#404040" d="M576.9997,-165.9619C567.1317,-152.5953 555.83,-137.2867 544.8679,-122.4379"/>
<polygon fill="none" stroke="#404040" points="544.8589,-122.4258 538.0772,-119.9745 537.7317,-112.7716 544.5133,-115.2229 544.8589,-122.4258"/>
<text text-anchor="middle" x="605.6888" y="-134" font-family="Helvetica,sans-Serif" font-size="10.00" fill="#000000"> +mGroupedIndices</text>
</g>
</g>
</svg>
        <g id="navigator" transform="translate(0 0)" fill="#404254">
                <rect fill="#f2f5e9" fill-opacity="0.5" stroke="#606060" stroke-width=".5" x="0" y="0" width="60" height="60"/>
                <use id="zoomplus" xlink:href="#zoomPlus" x="17" y="9" onmousedown="handleZoom(evt,'in')"/>
                <use id="zoomminus" xlink:href="#zoomMin" x="42" y="9" onmousedown="handleZoom(evt,'out')"/>
                <use id="reset" xlink:href="#resetDef" x="30" y="36" onmousedown="handleReset()"/>
                <g id="arrowUp" xlink:href="#dirArrow" transform="translate(30 24)" onmousedown="handlePan(0,-1)">
                  <use xlink:href="#rim" fill="#404040">
                        <set attributeName="fill" to="#808080" begin="arrowUp.mouseover" end="arrowUp.mouseout"/>
                  </use>
                  <path fill="none" stroke="white" stroke-width="1.5" d="M0,-3.0v7 M-2.5,-0.5L0,-3.0L2.5,-0.5"/>
                </g>
                <g id="arrowRight" xlink:href="#dirArrow" transform="rotate(90) translate(36 -43)" onmousedown="handlePan(1,0)">
                  <use xlink:href="#rim" fill="#404040">
                        <set attributeName="fill" to="#808080" begin="arrowRight.mouseover" end="arrowRight.mouseout"/>
                  </use>
                  <path fill="none" stroke="white" stroke-width="1.5" d="M0,-3.0v7 M-2.5,-0.5L0,-3.0L2.5,-0.5"/>
                </g>
                <g id="arrowDown" xlink:href="#dirArrow" transform="rotate(180) translate(-30 -48)" onmousedown="handlePan(0,1)">
                  <use xlink:href="#rim" fill="#404040">
                        <set attributeName="fill" to="#808080" begin="arrowDown.mouseover" end="arrowDown.mouseout"/>
                  </use>
                  <path fill="none" stroke="white" stroke-width="1.5" d="M0,-3.0v7 M-2.5,-0.5L0,-3.0L2.5,-0.5"/>
                </g>
                <g id="arrowLeft" xlink:href="#dirArrow" transform="rotate(270) translate(-36 17)" onmousedown="handlePan(-1,0)">
                  <use xlink:href="#rim" fill="#404040">
                        <set attributeName="fill" to="#808080" begin="arrowLeft.mouseover" end="arrowLeft.mouseout"/>
                  </use>
                  <path fill="none" stroke="white" stroke-width="1.5" d="M0,-3.0v7 M-2.5,-0.5L0,-3.0L2.5,-0.5"/>
                </g>
        </g>
        <svg viewBox="0 0 15 15" width="100%" height="30px" preserveAspectRatio="xMaxYMin meet">
         <g id="arrow_out" transform="scale(0.3 0.3)">
          <a xlink:href="structo2_1_1soa_1_1CombinationsBlockStrictlyUpperIndexPolicy__coll__graph_org.svg" target="_base">
           <rect id="button" ry="5" rx="5" y="6" x="6" height="38" width="38"
                fill="#f2f5e9" fill-opacity="0.5" stroke="#606060" stroke-width="1.0"/>
           <path id="arrow"
             d="M 11.500037,31.436501 C 11.940474,20.09759 22.043105,11.32322 32.158766,21.979434 L 37.068811,17.246167 C 37.068811,17.246167 37.088388,32 37.088388,32 L 22.160133,31.978069 C 22.160133,31.978069 26.997745,27.140456 26.997745,27.140456 C 18.528582,18.264221 13.291696,25.230495 11.500037,31.436501 z"
             style="fill:#404040;"/>
          </a>
         </g>
        </svg>
</svg>
