<?xml version="1.0" encoding="UTF-8" standalone="no"?>
<!DOCTYPE svg PUBLIC "-//W3C//DTD SVG 1.1//EN"
 "http://www.w3.org/Graphics/SVG/1.1/DTD/svg11.dtd">
<!-- Generated by graphviz version 2.40.1 (20161225.0304)
 -->
<!-- Title: /home/travis/build/AliceO2Group/AliceO2/Detectors/EMCAL/base/src/ClusterFactory.cxx Pages: 1 -->
<svg width="2452pt" height="385pt"
 viewBox="0.00 0.00 2452.02 385.00" xmlns="http://www.w3.org/2000/svg" xmlns:xlink="http://www.w3.org/1999/xlink">
<g id="graph0" class="graph" transform="scale(1 1) rotate(0) translate(4 381)">
<title>/home/travis/build/AliceO2Group/AliceO2/Detectors/EMCAL/base/src/ClusterFactory.cxx</title>
<!-- Node0 -->
<g id="node1" class="node">
<title>Node0</title>
<polygon fill="#bfbfbf" stroke="#000000" points="1098,-324.5 1098,-376.5 1227,-376.5 1227,-324.5 1098,-324.5"/>
<text text-anchor="start" x="1106" y="-364.5" font-family="Helvetica,sans-Serif" font-size="10.00" fill="#000000">/home/travis/build</text>
<text text-anchor="start" x="1106" y="-353.5" font-family="Helvetica,sans-Serif" font-size="10.00" fill="#000000">/AliceO2Group/AliceO2</text>
<text text-anchor="start" x="1106" y="-342.5" font-family="Helvetica,sans-Serif" font-size="10.00" fill="#000000">/Detectors/EMCAL/base</text>
<text text-anchor="middle" x="1162.5" y="-331.5" font-family="Helvetica,sans-Serif" font-size="10.00" fill="#000000">/src/ClusterFactory.cxx</text>
</g>
<!-- Node1 -->
<g id="node2" class="node">
<title>Node1</title>
<polygon fill="none" stroke="#bfbfbf" points="1105.5,-140 1105.5,-159 1147.5,-159 1147.5,-140 1105.5,-140"/>
<text text-anchor="middle" x="1126.5" y="-147" font-family="Helvetica,sans-Serif" font-size="10.00" fill="#000000">array</text>
</g>
<!-- Node0&#45;&gt;Node1 -->
<g id="edge1" class="edge">
<title>Node0&#45;&gt;Node1</title>
<path fill="none" stroke="#191970" d="M1110.4256,-324.4133C1096.9082,-314.9201 1084.0404,-302.8012 1076.5,-288 1055.3484,-246.4808 1089.6645,-193.8726 1111.1845,-167.0144"/>
<polygon fill="#191970" stroke="#191970" points="1113.9397,-169.1752 1117.6354,-159.2458 1108.5543,-164.7033 1113.9397,-169.1752"/>
</g>
<!-- Node2 -->
<g id="node3" class="node">
<title>Node2</title>
<polygon fill="none" stroke="#bfbfbf" points="1478,-140 1478,-159 1535,-159 1535,-140 1478,-140"/>
<text text-anchor="middle" x="1506.5" y="-147" font-family="Helvetica,sans-Serif" font-size="10.00" fill="#000000">gsl/span</text>
</g>
<!-- Node0&#45;&gt;Node2 -->
<g id="edge2" class="edge">
<title>Node0&#45;&gt;Node2</title>
<path fill="none" stroke="#191970" d="M1227.1286,-333.4509C1287.2463,-315.3327 1377.1262,-282.2864 1442.5,-232 1465.6252,-214.2118 1484.9694,-186.1817 1496.1464,-167.8186"/>
<polygon fill="#191970" stroke="#191970" points="1499.1622,-169.5949 1501.2236,-159.2025 1493.1313,-166.0411 1499.1622,-169.5949"/>
</g>
<!-- Node3 -->
<g id="node4" class="node">
<title>Node3</title>
<polygon fill="none" stroke="#bfbfbf" points="908,-6 908,-25 967,-25 967,-6 908,-6"/>
<text text-anchor="middle" x="937.5" y="-13" font-family="Helvetica,sans-Serif" font-size="10.00" fill="#000000">Rtypes.h</text>
</g>
<!-- Node0&#45;&gt;Node3 -->
<g id="edge3" class="edge">
<title>Node0&#45;&gt;Node3</title>
<path fill="none" stroke="#191970" d="M1227.2426,-347.1528C1487.2409,-333.2911 2441.5,-278.2116 2441.5,-216.5 2441.5,-216.5 2441.5,-216.5 2441.5,-149.5 2441.5,-111.8735 2451.5868,-90.8687 2422.5,-67 2370.8121,-24.5847 1286.3031,-33.835 1219.5,-31 1133.1584,-27.3358 1032.0371,-21.37 977.413,-18.0087"/>
<polygon fill="#191970" stroke="#191970" points="977.3233,-14.4965 967.1263,-17.3726 976.8912,-21.4832 977.3233,-14.4965"/>
</g>
<!-- Node4 -->
<g id="node5" class="node">
<title>Node4</title>
<g id="a_node5"><a xlink:href="../../dc/d27/DataFormats_2Detectors_2EMCAL_2include_2DataFormatsEMCAL_2Cluster_8h.html" target="_top" xlink:title="DataFormatsEMCAL/Cluster.h">
<polygon fill="none" stroke="#000000" points="853.5,-207 853.5,-226 1011.5,-226 1011.5,-207 853.5,-207"/>
<text text-anchor="middle" x="932.5" y="-214" font-family="Helvetica,sans-Serif" font-size="10.00" fill="#000000">DataFormatsEMCAL/Cluster.h</text>
</a>
</g>
</g>
<!-- Node0&#45;&gt;Node4 -->
<g id="edge4" class="edge">
<title>Node0&#45;&gt;Node4</title>
<path fill="none" stroke="#191970" d="M1097.8748,-324.634C1074.4793,-314.3392 1048.2358,-301.6817 1025.5,-288 998.2069,-271.5759 969.5494,-248.5317 951.3825,-233.0873"/>
<polygon fill="#191970" stroke="#191970" points="953.2205,-230.0512 943.3588,-226.1783 948.6529,-235.3557 953.2205,-230.0512"/>
</g>
<!-- Node11 -->
<g id="node12" class="node">
<title>Node11</title>
<g id="a_node12"><a xlink:href="../../d3/d6e/DataFormats_2Detectors_2EMCAL_2include_2DataFormatsEMCAL_2Digit_8h.html" target="_top" xlink:title="DataFormatsEMCAL/Digit.h">
<polygon fill="none" stroke="#000000" points="190.5,-207 190.5,-226 338.5,-226 338.5,-207 190.5,-207"/>
<text text-anchor="middle" x="264.5" y="-214" font-family="Helvetica,sans-Serif" font-size="10.00" fill="#000000">DataFormatsEMCAL/Digit.h</text>
</a>
</g>
</g>
<!-- Node0&#45;&gt;Node11 -->
<g id="edge14" class="edge">
<title>Node0&#45;&gt;Node11</title>
<path fill="none" stroke="#191970" d="M1097.6652,-343.8822C1000.3164,-333.6527 810.7067,-312.5921 650.5,-288 532.7602,-269.9267 395.8665,-243.2041 320.854,-228.0668"/>
<polygon fill="#191970" stroke="#191970" points="321.1841,-224.5627 310.6886,-226.0099 319.7957,-231.4237 321.1841,-224.5627"/>
</g>
<!-- Node13 -->
<g id="node14" class="node">
<title>Node13</title>
<g id="a_node14"><a xlink:href="../../dd/dda/DataFormats_2Detectors_2EMCAL_2include_2DataFormatsEMCAL_2Constants_8h.html" target="_top" xlink:title="DataFormatsEMCAL/Constants.h">
<polygon fill="none" stroke="#000000" points="367,-140 367,-159 540,-159 540,-140 367,-140"/>
<text text-anchor="middle" x="453.5" y="-147" font-family="Helvetica,sans-Serif" font-size="10.00" fill="#000000">DataFormatsEMCAL/Constants.h</text>
</a>
</g>
</g>
<!-- Node0&#45;&gt;Node13 -->
<g id="edge47" class="edge">
<title>Node0&#45;&gt;Node13</title>
<path fill="none" stroke="#191970" d="M1097.7014,-332.1297C955.203,-291.7317 617.7235,-196.057 497.2113,-161.8921"/>
<polygon fill="#191970" stroke="#191970" points="497.8127,-158.4247 487.2372,-159.0644 495.9034,-165.1593 497.8127,-158.4247"/>
</g>
<!-- Node17 -->
<g id="node18" class="node">
<title>Node17</title>
<g id="a_node18"><a xlink:href="../../d5/dd3/DataFormats_2Detectors_2EMCAL_2include_2DataFormatsEMCAL_2Cell_8h.html" target="_top" xlink:title="DataFormatsEMCAL/Cell.h">
<polygon fill="none" stroke="#000000" points="382,-207 382,-226 525,-226 525,-207 382,-207"/>
<text text-anchor="middle" x="453.5" y="-214" font-family="Helvetica,sans-Serif" font-size="10.00" fill="#000000">DataFormatsEMCAL/Cell.h</text>
</a>
</g>
</g>
<!-- Node0&#45;&gt;Node17 -->
<g id="edge25" class="edge">
<title>Node0&#45;&gt;Node17</title>
<path fill="none" stroke="#191970" d="M1097.978,-342.876C1015.0767,-332.6335 866.9003,-312.8149 741.5,-288 654.1969,-270.724 553.5764,-244.206 497.3652,-228.7856"/>
<polygon fill="#191970" stroke="#191970" points="497.9698,-225.3218 487.3994,-226.0401 496.1106,-232.0704 497.9698,-225.3218"/>
</g>
<!-- Node19 -->
<g id="node20" class="node">
<title>Node19</title>
<g id="a_node20"><a xlink:href="../../d8/da3/AnalysisCluster_8h.html" target="_top" xlink:title="DataFormatsEMCAL/Analysis\lCluster.h">
<polygon fill="none" stroke="#000000" points="1242,-201.5 1242,-231.5 1399,-231.5 1399,-201.5 1242,-201.5"/>
<text text-anchor="start" x="1250" y="-219.5" font-family="Helvetica,sans-Serif" font-size="10.00" fill="#000000">DataFormatsEMCAL/Analysis</text>
<text text-anchor="middle" x="1320.5" y="-208.5" font-family="Helvetica,sans-Serif" font-size="10.00" fill="#000000">Cluster.h</text>
</a>
</g>
</g>
<!-- Node0&#45;&gt;Node19 -->
<g id="edge29" class="edge">
<title>Node0&#45;&gt;Node19</title>
<path fill="none" stroke="#191970" d="M1201.1322,-324.3338C1216.2967,-313.5761 1233.6019,-300.6811 1248.5,-288 1266.4968,-272.6814 1285.4043,-253.7824 1299.3256,-239.2625"/>
<polygon fill="#191970" stroke="#191970" points="1302.1617,-241.3587 1306.5092,-231.6969 1297.0854,-236.5387 1302.1617,-241.3587"/>
</g>
<!-- Node21 -->
<g id="node22" class="node">
<title>Node21</title>
<g id="a_node22"><a xlink:href="../../dd/d76/Cartesian3D_8h.html" target="_top" xlink:title="MathUtils/Cartesian3D.h">
<polygon fill="none" stroke="#000000" points="1592,-140 1592,-159 1727,-159 1727,-140 1592,-140"/>
<text text-anchor="middle" x="1659.5" y="-147" font-family="Helvetica,sans-Serif" font-size="10.00" fill="#000000">MathUtils/Cartesian3D.h</text>
</a>
</g>
</g>
<!-- Node0&#45;&gt;Node21 -->
<g id="edge62" class="edge">
<title>Node0&#45;&gt;Node21</title>
<path fill="none" stroke="#191970" d="M1227.4232,-335.1844C1271.313,-324.0331 1330.2105,-307.505 1380.5,-288 1477.397,-250.4181 1586.0507,-191.2056 1634.1978,-164.0212"/>
<polygon fill="#191970" stroke="#191970" points="1636.0289,-167.0065 1642.9991,-159.0273 1632.5743,-160.9183 1636.0289,-167.0065"/>
</g>
<!-- Node32 -->
<g id="node33" class="node">
<title>Node32</title>
<g id="a_node33"><a xlink:href="../../dd/da8/EMCAL_2base_2include_2EMCALBase_2Geometry_8h.html" target="_top" xlink:title="EMCALBase/Geometry.h">
<polygon fill="none" stroke="#000000" points="1768,-207 1768,-226 1901,-226 1901,-207 1768,-207"/>
<text text-anchor="middle" x="1834.5" y="-214" font-family="Helvetica,sans-Serif" font-size="10.00" fill="#000000">EMCALBase/Geometry.h</text>
</a>
</g>
</g>
<!-- Node0&#45;&gt;Node32 -->
<g id="edge48" class="edge">
<title>Node0&#45;&gt;Node32</title>
<path fill="none" stroke="#191970" d="M1227.297,-345.2249C1315.8209,-337.1893 1479.1425,-319.401 1615.5,-288 1682.2536,-272.6277 1757.7102,-245.8215 1800.3466,-229.761"/>
<polygon fill="#191970" stroke="#191970" points="1801.8396,-232.938 1809.9467,-226.1169 1799.3554,-226.3936 1801.8396,-232.938"/>
</g>
<!-- Node39 -->
<g id="node40" class="node">
<title>Node39</title>
<g id="a_node40"><a xlink:href="../../d0/d55/ClusterFactory_8h.html" target="_top" xlink:title="EMCALBase/ClusterFactory.h">
<polygon fill="none" stroke="#000000" points="1085.5,-268.5 1085.5,-287.5 1239.5,-287.5 1239.5,-268.5 1085.5,-268.5"/>
<text text-anchor="middle" x="1162.5" y="-275.5" font-family="Helvetica,sans-Serif" font-size="10.00" fill="#000000">EMCALBase/ClusterFactory.h</text>
</a>
</g>
</g>
<!-- Node0&#45;&gt;Node39 -->
<g id="edge63" class="edge">
<title>Node0&#45;&gt;Node39</title>
<path fill="none" stroke="#191970" d="M1162.5,-324.3258C1162.5,-315.5142 1162.5,-305.8397 1162.5,-297.621"/>
<polygon fill="#191970" stroke="#191970" points="1166.0001,-297.534 1162.5,-287.534 1159.0001,-297.534 1166.0001,-297.534"/>
</g>
<!-- Node4&#45;&gt;Node1 -->
<g id="edge5" class="edge">
<title>Node4&#45;&gt;Node1</title>
<path fill="none" stroke="#191970" d="M960.2955,-206.9005C996.1124,-194.5308 1058.1964,-173.0894 1095.5029,-160.2052"/>
<polygon fill="#191970" stroke="#191970" points="1097.0162,-163.3855 1105.3258,-156.8127 1094.7311,-156.7689 1097.0162,-163.3855"/>
</g>
<!-- Node5 -->
<g id="node6" class="node">
<title>Node5</title>
<polygon fill="none" stroke="#bfbfbf" points="542,-73 542,-92 591,-92 591,-73 542,-73"/>
<text text-anchor="middle" x="566.5" y="-80" font-family="Helvetica,sans-Serif" font-size="10.00" fill="#000000">iosfwd</text>
</g>
<!-- Node4&#45;&gt;Node5 -->
<g id="edge6" class="edge">
<title>Node4&#45;&gt;Node5</title>
<path fill="none" stroke="#191970" d="M853.0867,-209.3571C757.0849,-200.008 605.8904,-182.718 586.5,-165 569.21,-149.2013 565.6792,-121.2253 565.4877,-102.2788"/>
<polygon fill="#191970" stroke="#191970" points="568.9909,-102.1515 565.6943,-92.0827 561.9923,-102.0097 568.9909,-102.1515"/>
</g>
<!-- Node6 -->
<g id="node7" class="node">
<title>Node6</title>
<polygon fill="none" stroke="#bfbfbf" points="2369.5,-73 2369.5,-92 2413.5,-92 2413.5,-73 2369.5,-73"/>
<text text-anchor="middle" x="2391.5" y="-80" font-family="Helvetica,sans-Serif" font-size="10.00" fill="#000000">string</text>
</g>
<!-- Node4&#45;&gt;Node6 -->
<g id="edge7" class="edge">
<title>Node4&#45;&gt;Node6</title>
<path fill="none" stroke="#191970" d="M949.229,-206.9039C984.5317,-186.8515 1065.9067,-141.7231 1096.5,-134 1368.9553,-65.22 2087.9611,-166.4481 2360.5,-98 2362.4259,-97.5163 2364.3703,-96.8998 2366.2966,-96.1927"/>
<polygon fill="#191970" stroke="#191970" points="2367.8615,-99.328 2375.6061,-92.0981 2365.0432,-92.9204 2367.8615,-99.328"/>
</g>
<!-- Node7 -->
<g id="node8" class="node">
<title>Node7</title>
<polygon fill="none" stroke="#bfbfbf" points="1204,-140 1204,-159 1251,-159 1251,-140 1204,-140"/>
<text text-anchor="middle" x="1227.5" y="-147" font-family="Helvetica,sans-Serif" font-size="10.00" fill="#000000">vector</text>
</g>
<!-- Node4&#45;&gt;Node7 -->
<g id="edge8" class="edge">
<title>Node4&#45;&gt;Node7</title>
<path fill="none" stroke="#191970" d="M974.453,-206.9717C1033.4817,-193.5652 1139.8702,-169.4024 1193.9607,-157.1174"/>
<polygon fill="#191970" stroke="#191970" points="1194.7642,-160.5241 1203.7406,-154.8962 1193.2138,-153.698 1194.7642,-160.5241"/>
</g>
<!-- Node8 -->
<g id="node9" class="node">
<title>Node8</title>
<g id="a_node9"><a xlink:href="../../df/d5d/common_2include_2CommonDataFormat_2TimeStamp_8h.html" target="_top" xlink:title="CommonDataFormat/TimeStamp.h">
<polygon fill="none" stroke="#000000" points="596,-140 596,-159 783,-159 783,-140 596,-140"/>
<text text-anchor="middle" x="689.5" y="-147" font-family="Helvetica,sans-Serif" font-size="10.00" fill="#000000">CommonDataFormat/TimeStamp.h</text>
</a>
</g>
</g>
<!-- Node4&#45;&gt;Node8 -->
<g id="edge9" class="edge">
<title>Node4&#45;&gt;Node8</title>
<path fill="none" stroke="#191970" d="M897.9421,-206.9717C854.882,-195.0991 781.2267,-174.7909 733.9903,-161.7669"/>
<polygon fill="#191970" stroke="#191970" points="734.9027,-158.3879 724.3321,-159.1039 733.0421,-165.1361 734.9027,-158.3879"/>
</g>
<!-- Node10 -->
<g id="node11" class="node">
<title>Node10</title>
<g id="a_node11"><a xlink:href="../../de/d64/RangeReference_8h.html" target="_top" xlink:title="Class to refer to the 1st entry and N elements of some group in the continuous container. ">
<polygon fill="none" stroke="#000000" points="801.5,-140 801.5,-159 1011.5,-159 1011.5,-140 801.5,-140"/>
<text text-anchor="middle" x="906.5" y="-147" font-family="Helvetica,sans-Serif" font-size="10.00" fill="#000000">CommonDataFormat/RangeReference.h</text>
</a>
</g>
</g>
<!-- Node4&#45;&gt;Node10 -->
<g id="edge12" class="edge">
<title>Node4&#45;&gt;Node10</title>
<path fill="none" stroke="#191970" d="M928.7748,-206.9005C924.9134,-196.95 918.774,-181.1292 913.9177,-168.6147"/>
<polygon fill="#191970" stroke="#191970" points="917.099,-167.1381 910.2183,-159.0817 910.5731,-169.6706 917.099,-167.1381"/>
</g>
<!-- Node9 -->
<g id="node10" class="node">
<title>Node9</title>
<g id="a_node10"><a xlink:href="../../d2/d45/GPUCommonRtypes_8h.html" target="_top" xlink:title="GPUCommonRtypes.h">
<polygon fill="none" stroke="#000000" points="829,-73 829,-92 954,-92 954,-73 829,-73"/>
<text text-anchor="middle" x="891.5" y="-80" font-family="Helvetica,sans-Serif" font-size="10.00" fill="#000000">GPUCommonRtypes.h</text>
</a>
</g>
</g>
<!-- Node8&#45;&gt;Node9 -->
<g id="edge10" class="edge">
<title>Node8&#45;&gt;Node9</title>
<path fill="none" stroke="#191970" d="M718.4417,-139.9005C753.8418,-128.1589 813.8851,-108.2436 853.1145,-95.2318"/>
<polygon fill="#191970" stroke="#191970" points="854.2224,-98.5519 862.612,-92.0817 852.0186,-91.9079 854.2224,-98.5519"/>
</g>
<!-- Node9&#45;&gt;Node3 -->
<g id="edge11" class="edge">
<title>Node9&#45;&gt;Node3</title>
<path fill="none" stroke="#191970" d="M898.0907,-72.9005C905.1273,-62.6515 916.4398,-46.1747 925.1434,-33.4976"/>
<polygon fill="#191970" stroke="#191970" points="928.1468,-35.3067 930.9215,-25.0817 922.376,-31.3446 928.1468,-35.3067"/>
</g>
<!-- Node10&#45;&gt;Node9 -->
<g id="edge13" class="edge">
<title>Node10&#45;&gt;Node9</title>
<path fill="none" stroke="#191970" d="M904.3509,-139.9005C902.1454,-130.0495 898.6519,-114.4451 895.8637,-101.9912"/>
<polygon fill="#191970" stroke="#191970" points="899.2454,-101.0754 893.6451,-92.0817 892.4145,-102.6048 899.2454,-101.0754"/>
</g>
<!-- Node11&#45;&gt;Node3 -->
<g id="edge17" class="edge">
<title>Node11&#45;&gt;Node3</title>
<path fill="none" stroke="#191970" d="M263.7497,-206.9473C262.8701,-191.1534 262.6134,-158.8727 272.5,-134 286.4233,-98.9717 291.3717,-84.9822 324.5,-67 374.7697,-39.7134 770.176,-22.0307 897.8773,-16.9866"/>
<polygon fill="#191970" stroke="#191970" points="898.1432,-20.479 907.999,-16.5912 897.8699,-13.4843 898.1432,-20.479"/>
</g>
<!-- Node11&#45;&gt;Node5 -->
<g id="edge15" class="edge">
<title>Node11&#45;&gt;Node5</title>
<path fill="none" stroke="#191970" d="M265.1517,-206.879C266.8773,-189.4659 273.1171,-152.79 295.5,-134 361.9958,-78.1781 402.2346,-114.358 487.5,-98 502.0479,-95.209 518.0905,-92.0723 531.8967,-89.3545"/>
<polygon fill="#191970" stroke="#191970" points="532.8228,-92.7394 541.9566,-87.3705 531.4683,-85.8717 532.8228,-92.7394"/>
</g>
<!-- Node11&#45;&gt;Node8 -->
<g id="edge18" class="edge">
<title>Node11&#45;&gt;Node8</title>
<path fill="none" stroke="#191970" d="M324.9408,-206.9717C402.4887,-194.7465 536.7726,-173.577 618.9246,-160.626"/>
<polygon fill="#191970" stroke="#191970" points="619.5911,-164.0642 628.924,-159.0496 618.501,-157.1496 619.5911,-164.0642"/>
</g>
<!-- Node12 -->
<g id="node13" class="node">
<title>Node12</title>
<polygon fill="none" stroke="#bfbfbf" points="0,-140 0,-159 47,-159 47,-140 0,-140"/>
<text text-anchor="middle" x="23.5" y="-147" font-family="Helvetica,sans-Serif" font-size="10.00" fill="#000000">cmath</text>
</g>
<!-- Node11&#45;&gt;Node12 -->
<g id="edge16" class="edge">
<title>Node11&#45;&gt;Node12</title>
<path fill="none" stroke="#191970" d="M212.9356,-206.936C170.0833,-198.2463 107.8752,-183.9012 55.5,-165 53.9032,-164.4238 52.2803,-163.7925 50.6551,-163.1246"/>
<polygon fill="#191970" stroke="#191970" points="52.0492,-159.914 41.4914,-159.028 49.1923,-166.3045 52.0492,-159.914"/>
</g>
<!-- Node11&#45;&gt;Node13 -->
<g id="edge19" class="edge">
<title>Node11&#45;&gt;Node13</title>
<path fill="none" stroke="#191970" d="M291.5791,-206.9005C324.4203,-195.2584 379.9296,-175.5805 416.6475,-162.5641"/>
<polygon fill="#191970" stroke="#191970" points="418.2153,-165.7218 426.4711,-159.0817 415.8764,-159.1241 418.2153,-165.7218"/>
</g>
<!-- Node16 -->
<g id="node17" class="node">
<title>Node16</title>
<polygon fill="none" stroke="#bfbfbf" points="65,-134.5 65,-164.5 172,-164.5 172,-134.5 65,-134.5"/>
<text text-anchor="start" x="73" y="-152.5" font-family="Helvetica,sans-Serif" font-size="10.00" fill="#000000">boost/serialization</text>
<text text-anchor="middle" x="118.5" y="-141.5" font-family="Helvetica,sans-Serif" font-size="10.00" fill="#000000">/base_object.hpp</text>
</g>
<!-- Node11&#45;&gt;Node16 -->
<g id="edge24" class="edge">
<title>Node11&#45;&gt;Node16</title>
<path fill="none" stroke="#191970" d="M243.5818,-206.9005C221.9989,-196.9961 187.7424,-181.2756 160.5323,-168.7888"/>
<polygon fill="#191970" stroke="#191970" points="161.7825,-165.5116 151.234,-164.5218 158.8629,-171.8737 161.7825,-165.5116"/>
</g>
<!-- Node13&#45;&gt;Node3 -->
<g id="edge20" class="edge">
<title>Node13&#45;&gt;Node3</title>
<path fill="none" stroke="#191970" d="M459.4684,-139.822C471.0616,-121.9732 498.4982,-84.134 532.5,-67 595.9849,-35.009 808.6463,-21.5322 897.7224,-17.1972"/>
<polygon fill="#191970" stroke="#191970" points="898.1309,-20.6819 907.9543,-16.7133 897.8001,-13.6897 898.1309,-20.6819"/>
</g>
<!-- Node13&#45;&gt;Node5 -->
<g id="edge21" class="edge">
<title>Node13&#45;&gt;Node5</title>
<path fill="none" stroke="#191970" d="M469.6901,-139.9005C488.4863,-128.7559 519.7016,-110.2477 541.5924,-97.2682"/>
<polygon fill="#191970" stroke="#191970" points="543.5233,-100.1924 550.3399,-92.0817 539.9531,-94.1712 543.5233,-100.1924"/>
</g>
<!-- Node14 -->
<g id="node15" class="node">
<title>Node14</title>
<polygon fill="none" stroke="#bfbfbf" points="1011,-73 1011,-92 1076,-92 1076,-73 1011,-73"/>
<text text-anchor="middle" x="1043.5" y="-80" font-family="Helvetica,sans-Serif" font-size="10.00" fill="#000000">exception</text>
</g>
<!-- Node13&#45;&gt;Node14 -->
<g id="edge22" class="edge">
<title>Node13&#45;&gt;Node14</title>
<path fill="none" stroke="#191970" d="M532.9412,-139.9678C550.5678,-137.9293 569.1622,-135.8379 586.5,-134 753.88,-116.257 796.9073,-122.0359 963.5,-98 975.7519,-96.2323 988.9745,-93.8622 1001.0729,-91.508"/>
<polygon fill="#191970" stroke="#191970" points="1001.8004,-94.932 1010.9251,-89.5478 1000.4344,-88.0665 1001.8004,-94.932"/>
</g>
<!-- Node15 -->
<g id="node16" class="node">
<title>Node15</title>
<polygon fill="none" stroke="#bfbfbf" points="428.5,-73 428.5,-92 478.5,-92 478.5,-73 428.5,-73"/>
<text text-anchor="middle" x="453.5" y="-80" font-family="Helvetica,sans-Serif" font-size="10.00" fill="#000000">cstdint</text>
</g>
<!-- Node13&#45;&gt;Node15 -->
<g id="edge23" class="edge">
<title>Node13&#45;&gt;Node15</title>
<path fill="none" stroke="#191970" d="M453.5,-139.9005C453.5,-130.149 453.5,-114.7597 453.5,-102.3695"/>
<polygon fill="#191970" stroke="#191970" points="457.0001,-102.0816 453.5,-92.0817 450.0001,-102.0817 457.0001,-102.0816"/>
</g>
<!-- Node17&#45;&gt;Node3 -->
<g id="edge27" class="edge">
<title>Node17&#45;&gt;Node3</title>
<path fill="none" stroke="#191970" d="M385.8345,-206.9822C332.6239,-196.2609 271.2115,-174.7309 295.5,-134 327.5829,-80.1982 359.6055,-85.3465 419.5,-67 508.8897,-39.6187 792.1289,-22.8579 897.5007,-17.4353"/>
<polygon fill="#191970" stroke="#191970" points="897.9032,-20.9195 907.7128,-16.9168 897.5481,-13.9285 897.9032,-20.9195"/>
</g>
<!-- Node17&#45;&gt;Node13 -->
<g id="edge28" class="edge">
<title>Node17&#45;&gt;Node13</title>
<path fill="none" stroke="#191970" d="M453.5,-206.9005C453.5,-197.149 453.5,-181.7597 453.5,-169.3695"/>
<polygon fill="#191970" stroke="#191970" points="457.0001,-169.0816 453.5,-159.0817 450.0001,-169.0817 457.0001,-169.0816"/>
</g>
<!-- Node18 -->
<g id="node19" class="node">
<title>Node18</title>
<polygon fill="none" stroke="#bfbfbf" points="304.5,-140 304.5,-159 348.5,-159 348.5,-140 304.5,-140"/>
<text text-anchor="middle" x="326.5" y="-147" font-family="Helvetica,sans-Serif" font-size="10.00" fill="#000000">bitset</text>
</g>
<!-- Node17&#45;&gt;Node18 -->
<g id="edge26" class="edge">
<title>Node17&#45;&gt;Node18</title>
<path fill="none" stroke="#191970" d="M435.304,-206.9005C413.8962,-195.6067 378.1542,-176.7506 353.5107,-163.7497"/>
<polygon fill="#191970" stroke="#191970" points="355.1401,-160.6522 344.6622,-159.0817 351.8738,-166.8434 355.1401,-160.6522"/>
</g>
<!-- Node19&#45;&gt;Node1 -->
<g id="edge32" class="edge">
<title>Node19&#45;&gt;Node1</title>
<path fill="none" stroke="#191970" d="M1269.5493,-201.4714C1238.1206,-191.8384 1197.1416,-178.6222 1161.5,-165 1159.8783,-164.3802 1158.223,-163.7254 1156.558,-163.0493"/>
<polygon fill="#191970" stroke="#191970" points="1157.6535,-159.7125 1147.0802,-159.0385 1154.9255,-166.1591 1157.6535,-159.7125"/>
</g>
<!-- Node19&#45;&gt;Node2 -->
<g id="edge31" class="edge">
<title>Node19&#45;&gt;Node2</title>
<path fill="none" stroke="#191970" d="M1365.7355,-201.4455C1395.1532,-191.4866 1434.268,-177.9273 1468.5,-165 1470.3497,-164.3015 1472.2448,-163.5723 1474.1539,-162.8273"/>
<polygon fill="#191970" stroke="#191970" points="1475.6729,-165.9898 1483.6689,-159.039 1473.0835,-159.4863 1475.6729,-165.9898"/>
</g>
<!-- Node19&#45;&gt;Node3 -->
<g id="edge33" class="edge">
<title>Node19&#45;&gt;Node3</title>
<path fill="none" stroke="#191970" d="M1273.9296,-201.4207C1249.6332,-192.5542 1219.96,-180.1125 1195.5,-165 1176.204,-153.0781 1135.3244,-113.2121 1118.5,-98 1103.5736,-84.5041 1102.7129,-77.4238 1085.5,-67 1051.5251,-46.4254 1008.1664,-32.5683 977.177,-24.4584"/>
<polygon fill="#191970" stroke="#191970" points="977.7262,-20.9871 967.1732,-21.927 976.009,-27.7732 977.7262,-20.9871"/>
</g>
<!-- Node20 -->
<g id="node21" class="node">
<title>Node20</title>
<polygon fill="none" stroke="#bfbfbf" points="1269,-140 1269,-159 1344,-159 1344,-140 1269,-140"/>
<text text-anchor="middle" x="1306.5" y="-147" font-family="Helvetica,sans-Serif" font-size="10.00" fill="#000000">FairLogger.h</text>
</g>
<!-- Node19&#45;&gt;Node20 -->
<g id="edge30" class="edge">
<title>Node19&#45;&gt;Node20</title>
<path fill="none" stroke="#191970" d="M1317.3232,-201.2967C1315.3325,-191.7699 1312.7468,-179.3954 1310.6019,-169.1306"/>
<polygon fill="#191970" stroke="#191970" points="1313.968,-168.1277 1308.4966,-159.055 1307.116,-169.5595 1313.968,-168.1277"/>
</g>
<!-- Node19&#45;&gt;Node21 -->
<g id="edge34" class="edge">
<title>Node19&#45;&gt;Node21</title>
<path fill="none" stroke="#191970" d="M1396.5782,-201.4639C1458.6384,-189.1983 1544.9975,-172.1303 1601.5531,-160.9526"/>
<polygon fill="#191970" stroke="#191970" points="1602.2745,-164.3778 1611.4061,-159.0053 1600.9172,-157.5107 1602.2745,-164.3778"/>
</g>
<!-- Node31 -->
<g id="node32" class="node">
<title>Node31</title>
<polygon fill="none" stroke="#bfbfbf" points="1361.5,-140 1361.5,-159 1459.5,-159 1459.5,-140 1361.5,-140"/>
<text text-anchor="middle" x="1410.5" y="-147" font-family="Helvetica,sans-Serif" font-size="10.00" fill="#000000">TLorentzVector.h</text>
</g>
<!-- Node19&#45;&gt;Node31 -->
<g id="edge46" class="edge">
<title>Node19&#45;&gt;Node31</title>
<path fill="none" stroke="#191970" d="M1340.9224,-201.2967C1355.3532,-190.5537 1374.6484,-176.1895 1389.2588,-165.3129"/>
<polygon fill="#191970" stroke="#191970" points="1391.7336,-167.8339 1397.665,-159.055 1387.5536,-162.219 1391.7336,-167.8339"/>
</g>
<!-- Node21&#45;&gt;Node3 -->
<g id="edge40" class="edge">
<title>Node21&#45;&gt;Node3</title>
<path fill="none" stroke="#191970" d="M1613.6618,-139.9938C1601.9127,-137.7891 1589.2697,-135.6175 1577.5,-134 1393.6481,-108.7337 1335.4774,-162.5892 1161.5,-98 1139.4132,-89.8003 1139.7049,-77.2672 1118.5,-67 1072.4038,-44.6807 1014.8915,-30.3847 977.2293,-22.6551"/>
<polygon fill="#191970" stroke="#191970" points="977.6502,-19.1702 967.159,-20.6478 976.2818,-26.0352 977.6502,-19.1702"/>
</g>
<!-- Node21&#45;&gt;Node5 -->
<g id="edge42" class="edge">
<title>Node21&#45;&gt;Node5</title>
<path fill="none" stroke="#191970" d="M1596.0396,-139.9725C1579.3091,-137.7278 1561.2509,-135.5426 1544.5,-134 1223.6821,-104.4565 1142.1826,-115.8122 820.5,-98 742.0062,-93.6536 649.9125,-87.8607 601.0497,-84.7321"/>
<polygon fill="#191970" stroke="#191970" points="601.2181,-81.2358 591.0145,-84.0881 600.7698,-88.2214 601.2181,-81.2358"/>
</g>
<!-- Node22 -->
<g id="node23" class="node">
<title>Node22</title>
<polygon fill="none" stroke="#bfbfbf" points="1170.5,-67.5 1170.5,-97.5 1334.5,-97.5 1334.5,-67.5 1170.5,-67.5"/>
<text text-anchor="start" x="1178.5" y="-85.5" font-family="Helvetica,sans-Serif" font-size="10.00" fill="#000000">Math/GenVector/Displacement</text>
<text text-anchor="middle" x="1252.5" y="-74.5" font-family="Helvetica,sans-Serif" font-size="10.00" fill="#000000">Vector3D.h</text>
</g>
<!-- Node21&#45;&gt;Node22 -->
<g id="edge35" class="edge">
<title>Node21&#45;&gt;Node22</title>
<path fill="none" stroke="#191970" d="M1610.5511,-139.9695C1599.6819,-137.9308 1588.2094,-135.839 1577.5,-134 1477.3536,-116.8033 1449.6061,-114.814 1344.7955,-98.0303"/>
<polygon fill="#191970" stroke="#191970" points="1345.1786,-94.547 1334.7496,-96.4143 1344.0667,-101.4582 1345.1786,-94.547"/>
</g>
<!-- Node23 -->
<g id="node24" class="node">
<title>Node23</title>
<polygon fill="none" stroke="#bfbfbf" points="1506,-73 1506,-92 1695,-92 1695,-73 1506,-73"/>
<text text-anchor="middle" x="1600.5" y="-80" font-family="Helvetica,sans-Serif" font-size="10.00" fill="#000000">Math/GenVector/PositionVector3D.h</text>
</g>
<!-- Node21&#45;&gt;Node23 -->
<g id="edge36" class="edge">
<title>Node21&#45;&gt;Node23</title>
<path fill="none" stroke="#191970" d="M1651.0467,-139.9005C1641.8462,-129.4525 1626.9465,-112.5325 1615.7022,-99.7635"/>
<polygon fill="#191970" stroke="#191970" points="1618.1731,-97.2735 1608.9376,-92.0817 1612.9197,-101.8997 1618.1731,-97.2735"/>
</g>
<!-- Node24 -->
<g id="node25" class="node">
<title>Node24</title>
<polygon fill="none" stroke="#bfbfbf" points="1713.5,-73 1713.5,-92 1873.5,-92 1873.5,-73 1713.5,-73"/>
<text text-anchor="middle" x="1793.5" y="-80" font-family="Helvetica,sans-Serif" font-size="10.00" fill="#000000">Math/GenVector/Rotation3D.h</text>
</g>
<!-- Node21&#45;&gt;Node24 -->
<g id="edge37" class="edge">
<title>Node21&#45;&gt;Node24</title>
<path fill="none" stroke="#191970" d="M1678.6989,-139.9005C1701.3862,-128.5569 1739.3313,-109.5844 1765.3435,-96.5783"/>
<polygon fill="#191970" stroke="#191970" points="1766.9577,-99.6843 1774.3367,-92.0817 1763.8271,-93.4234 1766.9577,-99.6843"/>
</g>
<!-- Node25 -->
<g id="node26" class="node">
<title>Node25</title>
<polygon fill="none" stroke="#bfbfbf" points="1891.5,-73 1891.5,-92 2059.5,-92 2059.5,-73 1891.5,-73"/>
<text text-anchor="middle" x="1975.5" y="-80" font-family="Helvetica,sans-Serif" font-size="10.00" fill="#000000">Math/GenVector/Transform3D.h</text>
</g>
<!-- Node21&#45;&gt;Node25 -->
<g id="edge38" class="edge">
<title>Node21&#45;&gt;Node25</title>
<path fill="none" stroke="#191970" d="M1704.4395,-139.9717C1761.3361,-127.9082 1859.3092,-107.1354 1920.5815,-94.1441"/>
<polygon fill="#191970" stroke="#191970" points="1921.4034,-97.5477 1930.46,-92.0496 1919.9515,-90.7 1921.4034,-97.5477"/>
</g>
<!-- Node26 -->
<g id="node27" class="node">
<title>Node26</title>
<polygon fill="none" stroke="#bfbfbf" points="2078,-73 2078,-92 2251,-92 2251,-73 2078,-73"/>
<text text-anchor="middle" x="2164.5" y="-80" font-family="Helvetica,sans-Serif" font-size="10.00" fill="#000000">Math/GenVector/Translation3D.h</text>
</g>
<!-- Node21&#45;&gt;Node26 -->
<g id="edge39" class="edge">
<title>Node21&#45;&gt;Node26</title>
<path fill="none" stroke="#191970" d="M1703.354,-139.9575C1714.1566,-137.8046 1725.719,-135.6661 1736.5,-134 1883.1793,-111.3321 1921.4109,-117.8354 2068.5,-98 2078.2877,-96.6801 2088.6151,-95.154 2098.7246,-93.585"/>
<polygon fill="#191970" stroke="#191970" points="2099.4001,-97.0218 2108.7333,-92.0076 2098.3103,-90.1071 2099.4001,-97.0218"/>
</g>
<!-- Node27 -->
<g id="node28" class="node">
<title>Node27</title>
<polygon fill="none" stroke="#bfbfbf" points="2269.5,-73 2269.5,-92 2351.5,-92 2351.5,-73 2269.5,-73"/>
<text text-anchor="middle" x="2310.5" y="-80" font-family="Helvetica,sans-Serif" font-size="10.00" fill="#000000">TGeoMatrix.h</text>
</g>
<!-- Node21&#45;&gt;Node27 -->
<g id="edge41" class="edge">
<title>Node21&#45;&gt;Node27</title>
<path fill="none" stroke="#191970" d="M1701.6958,-139.9779C1712.955,-137.7194 1725.1477,-135.526 1736.5,-134 1967.857,-102.9009 2031.0283,-140.8483 2260.5,-98 2264.9417,-97.1706 2269.5441,-96.0787 2274.0772,-94.8576"/>
<polygon fill="#191970" stroke="#191970" points="2275.1763,-98.1831 2283.801,-92.0297 2273.2214,-91.4616 2275.1763,-98.1831"/>
</g>
<!-- Node28 -->
<g id="node29" class="node">
<title>Node28</title>
<g id="a_node29"><a xlink:href="../../d2/dd0/Cartesian2D_8h.html" target="_top" xlink:title="MathUtils/Cartesian2D.h">
<polygon fill="none" stroke="#000000" points="1353,-73 1353,-92 1488,-92 1488,-73 1353,-73"/>
<text text-anchor="middle" x="1420.5" y="-80" font-family="Helvetica,sans-Serif" font-size="10.00" fill="#000000">MathUtils/Cartesian2D.h</text>
</a>
</g>
</g>
<!-- Node21&#45;&gt;Node28 -->
<g id="edge43" class="edge">
<title>Node21&#45;&gt;Node28</title>
<path fill="none" stroke="#191970" d="M1625.5109,-139.9717C1583.2482,-128.124 1511.0198,-107.8758 1464.5499,-94.8487"/>
<polygon fill="#191970" stroke="#191970" points="1465.3323,-91.4332 1454.7588,-92.1039 1463.4428,-98.1734 1465.3323,-91.4332"/>
</g>
<!-- Node29 -->
<g id="node30" class="node">
<title>Node29</title>
<polygon fill="none" stroke="#bfbfbf" points="1435.5,-.5 1435.5,-30.5 1599.5,-30.5 1599.5,-.5 1435.5,-.5"/>
<text text-anchor="start" x="1443.5" y="-18.5" font-family="Helvetica,sans-Serif" font-size="10.00" fill="#000000">Math/GenVector/Displacement</text>
<text text-anchor="middle" x="1517.5" y="-7.5" font-family="Helvetica,sans-Serif" font-size="10.00" fill="#000000">Vector2D.h</text>
</g>
<!-- Node28&#45;&gt;Node29 -->
<g id="edge44" class="edge">
<title>Node28&#45;&gt;Node29</title>
<path fill="none" stroke="#191970" d="M1434.3977,-72.9005C1448.1735,-63.3853 1469.7205,-48.5023 1487.4221,-36.2755"/>
<polygon fill="#191970" stroke="#191970" points="1489.5132,-39.0849 1495.7521,-30.5218 1485.5349,-33.3253 1489.5132,-39.0849"/>
</g>
<!-- Node30 -->
<g id="node31" class="node">
<title>Node30</title>
<polygon fill="none" stroke="#bfbfbf" points="1228,-6 1228,-25 1417,-25 1417,-6 1228,-6"/>
<text text-anchor="middle" x="1322.5" y="-13" font-family="Helvetica,sans-Serif" font-size="10.00" fill="#000000">Math/GenVector/PositionVector2D.h</text>
</g>
<!-- Node28&#45;&gt;Node30 -->
<g id="edge45" class="edge">
<title>Node28&#45;&gt;Node30</title>
<path fill="none" stroke="#191970" d="M1406.459,-72.9005C1390.3762,-61.9052 1363.8094,-43.7422 1344.8684,-30.7927"/>
<polygon fill="#191970" stroke="#191970" points="1346.7455,-27.8362 1336.515,-25.0817 1342.7948,-33.6148 1346.7455,-27.8362"/>
</g>
<!-- Node32&#45;&gt;Node6 -->
<g id="edge50" class="edge">
<title>Node32&#45;&gt;Node6</title>
<path fill="none" stroke="#191970" d="M1901.1712,-214.7865C2014.6472,-210.9668 2239.904,-199.204 2310.5,-165 2326.2078,-157.3895 2357.9564,-122.0441 2376.7016,-100.1597"/>
<polygon fill="#191970" stroke="#191970" points="2379.6098,-102.142 2383.4112,-92.2526 2374.2724,-97.6129 2379.6098,-102.142"/>
</g>
<!-- Node32&#45;&gt;Node7 -->
<g id="edge52" class="edge">
<title>Node32&#45;&gt;Node7</title>
<path fill="none" stroke="#191970" d="M1767.7989,-213.4372C1637.6916,-206.9832 1354.5437,-190.4509 1260.5,-165 1258.5296,-164.4667 1256.5319,-163.8219 1254.5451,-163.1019"/>
<polygon fill="#191970" stroke="#191970" points="1255.4537,-159.6876 1244.8783,-159.0463 1252.7455,-166.1426 1255.4537,-159.6876"/>
</g>
<!-- Node32&#45;&gt;Node13 -->
<g id="edge58" class="edge">
<title>Node32&#45;&gt;Node13</title>
<path fill="none" stroke="#191970" d="M1767.9573,-214.0463C1526.4755,-205.1016 704.3187,-174.2833 586.5,-165 570.3791,-163.7298 553.1989,-162.0054 536.7256,-160.1675"/>
<polygon fill="#191970" stroke="#191970" points="536.9075,-156.6657 526.5756,-159.0115 536.1153,-163.6207 536.9075,-156.6657"/>
</g>
<!-- Node32&#45;&gt;Node14 -->
<g id="edge49" class="edge">
<title>Node32&#45;&gt;Node14</title>
<path fill="none" stroke="#191970" d="M1767.8914,-211.3704C1715.7083,-205.3718 1642.3439,-192.4864 1583.5,-165 1563.4386,-155.6292 1565.0825,-142.1629 1544.5,-134 1366.2284,-63.2987 1304.1482,-126.5135 1114.5,-98 1105.246,-96.6087 1095.3942,-94.7224 1086.0679,-92.7448"/>
<polygon fill="#191970" stroke="#191970" points="1086.7249,-89.3058 1076.2073,-90.5822 1085.2253,-96.1433 1086.7249,-89.3058"/>
</g>
<!-- Node32&#45;&gt;Node21 -->
<g id="edge61" class="edge">
<title>Node32&#45;&gt;Node21</title>
<path fill="none" stroke="#191970" d="M1809.4268,-206.9005C1779.1482,-195.3082 1728.0597,-175.7486 1694.0595,-162.7313"/>
<polygon fill="#191970" stroke="#191970" points="1695.1171,-159.3886 1684.5267,-159.0817 1692.6142,-165.9258 1695.1171,-159.3886"/>
</g>
<!-- Node32&#45;&gt;Node27 -->
<g id="edge54" class="edge">
<title>Node32&#45;&gt;Node27</title>
<path fill="none" stroke="#191970" d="M1901.0622,-212.3952C1955.7487,-206.955 2034.0889,-194.3204 2096.5,-165 2116.2274,-155.7322 2115.1802,-144.09 2134.5,-134 2186.1244,-107.0386 2204.6819,-114.6236 2260.5,-98 2263.6792,-97.0532 2266.9682,-96.0613 2270.2711,-95.0564"/>
<polygon fill="#191970" stroke="#191970" points="2271.5911,-98.3126 2280.1257,-92.0348 2269.539,-91.6201 2271.5911,-98.3126"/>
</g>
<!-- Node33 -->
<g id="node34" class="node">
<title>Node33</title>
<polygon fill="none" stroke="#bfbfbf" points="2358,-140 2358,-159 2399,-159 2399,-140 2358,-140"/>
<text text-anchor="middle" x="2378.5" y="-147" font-family="Helvetica,sans-Serif" font-size="10.00" fill="#000000">tuple</text>
</g>
<!-- Node32&#45;&gt;Node33 -->
<g id="edge51" class="edge">
<title>Node32&#45;&gt;Node33</title>
<path fill="none" stroke="#191970" d="M1901.3512,-212.3642C2019.7945,-204.5999 2261.7185,-186.6564 2343.5,-165 2345.6922,-164.4195 2347.922,-163.7183 2350.1402,-162.9389"/>
<polygon fill="#191970" stroke="#191970" points="2351.6459,-166.1067 2359.6399,-159.1535 2349.0546,-159.6039 2351.6459,-166.1067"/>
</g>
<!-- Node34 -->
<g id="node35" class="node">
<title>Node34</title>
<polygon fill="none" stroke="#bfbfbf" points="1745.5,-140 1745.5,-159 1829.5,-159 1829.5,-140 1745.5,-140"/>
<text text-anchor="middle" x="1787.5" y="-147" font-family="Helvetica,sans-Serif" font-size="10.00" fill="#000000">RStringView.h</text>
</g>
<!-- Node32&#45;&gt;Node34 -->
<g id="edge53" class="edge">
<title>Node32&#45;&gt;Node34</title>
<path fill="none" stroke="#191970" d="M1827.766,-206.9005C1820.5764,-196.6515 1809.0181,-180.1747 1800.1252,-167.4976"/>
<polygon fill="#191970" stroke="#191970" points="1802.8296,-165.2582 1794.2215,-159.0817 1797.099,-169.2783 1802.8296,-165.2582"/>
</g>
<!-- Node35 -->
<g id="node36" class="node">
<title>Node35</title>
<polygon fill="none" stroke="#bfbfbf" points="1848,-140 1848,-159 1915,-159 1915,-140 1848,-140"/>
<text text-anchor="middle" x="1881.5" y="-147" font-family="Helvetica,sans-Serif" font-size="10.00" fill="#000000">TNamed.h</text>
</g>
<!-- Node32&#45;&gt;Node35 -->
<g id="edge55" class="edge">
<title>Node32&#45;&gt;Node35</title>
<path fill="none" stroke="#191970" d="M1841.234,-206.9005C1848.4236,-196.6515 1859.9819,-180.1747 1868.8748,-167.4976"/>
<polygon fill="#191970" stroke="#191970" points="1871.901,-169.2783 1874.7785,-159.0817 1866.1704,-165.2582 1871.901,-169.2783"/>
</g>
<!-- Node36 -->
<g id="node37" class="node">
<title>Node36</title>
<polygon fill="none" stroke="#bfbfbf" points="1933.5,-140 1933.5,-159 2001.5,-159 2001.5,-140 1933.5,-140"/>
<text text-anchor="middle" x="1967.5" y="-147" font-family="Helvetica,sans-Serif" font-size="10.00" fill="#000000">TParticle.h</text>
</g>
<!-- Node32&#45;&gt;Node36 -->
<g id="edge56" class="edge">
<title>Node32&#45;&gt;Node36</title>
<path fill="none" stroke="#191970" d="M1853.5557,-206.9005C1875.9748,-195.6067 1913.4054,-176.7506 1939.2132,-163.7497"/>
<polygon fill="#191970" stroke="#191970" points="1941.1235,-166.7065 1948.4797,-159.0817 1937.9742,-160.4549 1941.1235,-166.7065"/>
</g>
<!-- Node37 -->
<g id="node38" class="node">
<title>Node37</title>
<polygon fill="none" stroke="#bfbfbf" points="2019.5,-140 2019.5,-159 2087.5,-159 2087.5,-140 2019.5,-140"/>
<text text-anchor="middle" x="2053.5" y="-147" font-family="Helvetica,sans-Serif" font-size="10.00" fill="#000000">TVector3.h</text>
</g>
<!-- Node32&#45;&gt;Node37 -->
<g id="edge57" class="edge">
<title>Node32&#45;&gt;Node37</title>
<path fill="none" stroke="#191970" d="M1869.4233,-206.9621C1905.0753,-197.066 1961.9211,-180.8464 2010.5,-165 2012.9424,-164.2033 2015.4548,-163.3602 2017.9804,-162.4952"/>
<polygon fill="#191970" stroke="#191970" points="2019.3862,-165.7113 2027.6668,-159.102 2017.0719,-159.1049 2019.3862,-165.7113"/>
</g>
<!-- Node38 -->
<g id="node39" class="node">
<title>Node38</title>
<g id="a_node39"><a xlink:href="../../d5/d5e/GeometryBase_8h.html" target="_top" xlink:title="EMCALBase/GeometryBase.h">
<polygon fill="none" stroke="#000000" points="2143.5,-140 2143.5,-159 2301.5,-159 2301.5,-140 2143.5,-140"/>
<text text-anchor="middle" x="2222.5" y="-147" font-family="Helvetica,sans-Serif" font-size="10.00" fill="#000000">EMCALBase/GeometryBase.h</text>
</a>
</g>
</g>
<!-- Node32&#45;&gt;Node38 -->
<g id="edge59" class="edge">
<title>Node32&#45;&gt;Node38</title>
<path fill="none" stroke="#191970" d="M1889.6789,-206.9717C1960.1155,-194.8087 2081.8231,-173.7921 2156.9206,-160.8243"/>
<polygon fill="#191970" stroke="#191970" points="2157.9391,-164.2003 2167.1977,-159.0496 2156.7479,-157.3024 2157.9391,-164.2003"/>
</g>
<!-- Node38&#45;&gt;Node6 -->
<g id="edge60" class="edge">
<title>Node38&#45;&gt;Node6</title>
<path fill="none" stroke="#191970" d="M2250.8654,-139.909C2279.0117,-130.1604 2323.2166,-114.2229 2360.5,-98 2361.6794,-97.4868 2362.8779,-96.9513 2364.0842,-96.4007"/>
<polygon fill="#191970" stroke="#191970" points="2365.7755,-99.4718 2373.2936,-92.0067 2362.7611,-93.1541 2365.7755,-99.4718"/>
</g>
<!-- Node39&#45;&gt;Node1 -->
<g id="edge64" class="edge">
<title>Node39&#45;&gt;Node1</title>
<path fill="none" stroke="#191970" d="M1171.9154,-268.3321C1185.1062,-253.5581 1206.2276,-224.5932 1194.5,-201 1186.5512,-185.0088 1171.0031,-172.6559 1156.7785,-164.0618"/>
<polygon fill="#191970" stroke="#191970" points="1158.1458,-160.8149 1147.7152,-158.9565 1154.7103,-166.9139 1158.1458,-160.8149"/>
</g>
<!-- Node39&#45;&gt;Node2 -->
<g id="edge65" class="edge">
<title>Node39&#45;&gt;Node2</title>
<path fill="none" stroke="#191970" d="M1235.9344,-268.4763C1296.9934,-259.7895 1378.5585,-246.18 1408.5,-232 1426.2103,-223.6126 1465.9757,-187.6796 1489.04,-166.0985"/>
<polygon fill="#191970" stroke="#191970" points="1491.5571,-168.5358 1496.4381,-159.1322 1486.7583,-163.4395 1491.5571,-168.5358"/>
</g>
<!-- Node39&#45;&gt;Node3 -->
<g id="edge66" class="edge">
<title>Node39&#45;&gt;Node3</title>
<path fill="none" stroke="#191970" d="M1145.9156,-268.3353C1132.0833,-259.8104 1112.3134,-246.5117 1097.5,-232 1080.1316,-214.9853 985.2836,-82.5853 950.3898,-33.6232"/>
<polygon fill="#191970" stroke="#191970" points="953.0787,-31.3652 944.4271,-25.2495 947.3766,-35.4255 953.0787,-31.3652"/>
</g>
<!-- Node39&#45;&gt;Node4 -->
<g id="edge68" class="edge">
<title>Node39&#45;&gt;Node4</title>
<path fill="none" stroke="#191970" d="M1126.8149,-268.4581C1086.7807,-257.7533 1021.7429,-240.3628 978.065,-228.6837"/>
<polygon fill="#191970" stroke="#191970" points="978.8336,-225.2663 968.2689,-226.0643 977.0253,-232.0287 978.8336,-225.2663"/>
</g>
<!-- Node39&#45;&gt;Node11 -->
<g id="edge69" class="edge">
<title>Node39&#45;&gt;Node11</title>
<path fill="none" stroke="#191970" d="M1085.2343,-275.6658C943.6185,-270.9064 633.0727,-258.2376 372.5,-232 360.1568,-230.7571 347.0607,-229.1357 334.4047,-227.4108"/>
<polygon fill="#191970" stroke="#191970" points="334.7598,-223.9266 324.372,-226.0106 333.7922,-230.8594 334.7598,-223.9266"/>
</g>
<!-- Node39&#45;&gt;Node17 -->
<g id="edge70" class="edge">
<title>Node39&#45;&gt;Node17</title>
<path fill="none" stroke="#191970" d="M1085.2749,-271.3013C950.384,-259.6007 673.0936,-235.548 535.1538,-223.5828"/>
<polygon fill="#191970" stroke="#191970" points="535.3293,-220.085 525.0642,-222.7076 534.7243,-227.0588 535.3293,-220.085"/>
</g>
<!-- Node39&#45;&gt;Node19 -->
<g id="edge71" class="edge">
<title>Node39&#45;&gt;Node19</title>
<path fill="none" stroke="#191970" d="M1187.1875,-268.3906C1209.8578,-259.5664 1244.0937,-246.2404 1272.1942,-235.3026"/>
<polygon fill="#191970" stroke="#191970" points="1273.7995,-238.4336 1281.8489,-231.5446 1271.2603,-231.9103 1273.7995,-238.4336"/>
</g>
<!-- Node39&#45;&gt;Node21 -->
<g id="edge73" class="edge">
<title>Node39&#45;&gt;Node21</title>
<path fill="none" stroke="#191970" d="M1239.7388,-269.5422C1296.4688,-262.3117 1375.0725,-250.159 1442.5,-232 1511.136,-213.5156 1588.1917,-181.345 1629.4917,-163.1181"/>
<polygon fill="#191970" stroke="#191970" points="1630.9975,-166.279 1638.7124,-159.0174 1628.153,-159.8829 1630.9975,-166.279"/>
</g>
<!-- Node39&#45;&gt;Node32 -->
<g id="edge72" class="edge">
<title>Node39&#45;&gt;Node32</title>
<path fill="none" stroke="#191970" d="M1239.5869,-270.9452C1368.9843,-259.103 1628.3726,-235.3643 1757.6268,-223.5353"/>
<polygon fill="#191970" stroke="#191970" points="1758.197,-226.9978 1767.8364,-222.6009 1757.559,-220.0269 1758.197,-226.9978"/>
</g>
<!-- Node40 -->
<g id="node41" class="node">
<title>Node40</title>
<polygon fill="none" stroke="#bfbfbf" points="1106,-207 1106,-226 1185,-226 1185,-207 1106,-207"/>
<text text-anchor="middle" x="1145.5" y="-214" font-family="Helvetica,sans-Serif" font-size="10.00" fill="#000000">fmt/format.h</text>
</g>
<!-- Node39&#45;&gt;Node40 -->
<g id="edge67" class="edge">
<title>Node39&#45;&gt;Node40</title>
<path fill="none" stroke="#191970" d="M1159.8438,-268.3906C1157.4625,-259.776 1153.8952,-246.8708 1150.914,-236.0858"/>
<polygon fill="#191970" stroke="#191970" points="1154.2316,-234.9509 1148.1937,-226.2449 1147.4846,-236.8159 1154.2316,-234.9509"/>
</g>
</g>
</svg>
