<?xml version="1.0" encoding="UTF-8" standalone="no"?>
<!DOCTYPE svg PUBLIC "-//W3C//DTD SVG 1.1//EN"
 "http://www.w3.org/Graphics/SVG/1.1/DTD/svg11.dtd">
<!-- Generated by graphviz version 2.40.1 (20161225.0304)
 -->
<!-- Title: /home/travis/build/AliceO2Group/AliceO2/GPU/GPUTracking/SliceTracker/GPUTPCTrackletConstructor.cxx Pages: 1 -->
<svg width="1672pt" height="621pt"
 viewBox="0.00 0.00 1672.00 621.00" xmlns="http://www.w3.org/2000/svg" xmlns:xlink="http://www.w3.org/1999/xlink">
<g id="graph0" class="graph" transform="scale(1 1) rotate(0) translate(4 617)">
<title>/home/travis/build/AliceO2Group/AliceO2/GPU/GPUTracking/SliceTracker/GPUTPCTrackletConstructor.cxx</title>
<!-- Node0 -->
<g id="node1" class="node">
<title>Node0</title>
<polygon fill="#bfbfbf" stroke="#000000" points="219.5,-560.5 219.5,-612.5 392.5,-612.5 392.5,-560.5 219.5,-560.5"/>
<text text-anchor="start" x="227.5" y="-600.5" font-family="Helvetica,sans-Serif" font-size="10.00" fill="#000000">/home/travis/build</text>
<text text-anchor="start" x="227.5" y="-589.5" font-family="Helvetica,sans-Serif" font-size="10.00" fill="#000000">/AliceO2Group/AliceO2</text>
<text text-anchor="start" x="227.5" y="-578.5" font-family="Helvetica,sans-Serif" font-size="10.00" fill="#000000">/GPU/GPUTracking/SliceTracker</text>
<text text-anchor="middle" x="306" y="-567.5" font-family="Helvetica,sans-Serif" font-size="10.00" fill="#000000">/GPUTPCTrackletConstructor.cxx</text>
</g>
<!-- Node1 -->
<g id="node2" class="node">
<title>Node1</title>
<g id="a_node2"><a xlink:href="../../da/dab/GPUTPCDef_8h.html" target="_top" xlink:title="GPUTPCDef.h">
<polygon fill="none" stroke="#000000" points="326,-168.5 326,-187.5 408,-187.5 408,-168.5 326,-168.5"/>
<text text-anchor="middle" x="367" y="-175.5" font-family="Helvetica,sans-Serif" font-size="10.00" fill="#000000">GPUTPCDef.h</text>
</a>
</g>
</g>
<!-- Node0&#45;&gt;Node1 -->
<g id="edge1" class="edge">
<title>Node0&#45;&gt;Node1</title>
<path fill="none" stroke="#191970" d="M219.4424,-566.1073C166.1636,-547.8316 108,-514.8593 108,-458 108,-458 108,-458 108,-290 108,-248.5164 137.7891,-244.24 174,-224 218.2108,-199.2884 275.3059,-187.7886 315.8994,-182.476"/>
<polygon fill="#191970" stroke="#191970" points="316.3476,-185.9473 325.8463,-181.2544 315.4942,-178.9995 316.3476,-185.9473"/>
</g>
<!-- Node12 -->
<g id="node13" class="node">
<title>Node12</title>
<g id="a_node13"><a xlink:href="../../d3/da7/GPUTPCGrid_8h.html" target="_top" xlink:title="GPUTPCGrid.h">
<polygon fill="none" stroke="#000000" points="414,-224.5 414,-243.5 500,-243.5 500,-224.5 414,-224.5"/>
<text text-anchor="middle" x="457" y="-231.5" font-family="Helvetica,sans-Serif" font-size="10.00" fill="#000000">GPUTPCGrid.h</text>
</a>
</g>
</g>
<!-- Node0&#45;&gt;Node12 -->
<g id="edge12" class="edge">
<title>Node0&#45;&gt;Node12</title>
<path fill="none" stroke="#191970" d="M306,-560.4123C306,-534.4505 306,-493.4714 306,-458 306,-458 306,-458 306,-402 306,-338.8248 361.2607,-345.585 405,-300 419.5813,-284.8034 434.2549,-265.7558 444.2789,-252.0342"/>
<polygon fill="#191970" stroke="#191970" points="447.1466,-254.0414 450.1471,-243.8803 441.4649,-249.9524 447.1466,-254.0414"/>
</g>
<!-- Node13 -->
<g id="node14" class="node">
<title>Node13</title>
<g id="a_node14"><a xlink:href="../../d9/de3/GPUTPCHit_8h.html" target="_top" xlink:title="GPUTPCHit.h">
<polygon fill="none" stroke="#000000" points="0,-448.5 0,-467.5 80,-467.5 80,-448.5 0,-448.5"/>
<text text-anchor="middle" x="40" y="-455.5" font-family="Helvetica,sans-Serif" font-size="10.00" fill="#000000">GPUTPCHit.h</text>
</a>
</g>
</g>
<!-- Node0&#45;&gt;Node13 -->
<g id="edge14" class="edge">
<title>Node0&#45;&gt;Node13</title>
<path fill="none" stroke="#191970" d="M219.4546,-573.1869C178.9044,-564.0119 131.4076,-548.8238 94,-524 75.583,-511.7784 60.2812,-491.3645 50.725,-476.4704"/>
<polygon fill="#191970" stroke="#191970" points="53.5105,-474.3174 45.2998,-467.6214 47.5428,-477.9761 53.5105,-474.3174"/>
</g>
<!-- Node14 -->
<g id="node15" class="node">
<title>Node14</title>
<g id="a_node15"><a xlink:href="../../de/d15/GPUTPCTrackParam_8h.html" target="_top" xlink:title="GPUTPCTrackParam.h">
<polygon fill="none" stroke="#000000" points="372,-336.5 372,-355.5 494,-355.5 494,-336.5 372,-336.5"/>
<text text-anchor="middle" x="433" y="-343.5" font-family="Helvetica,sans-Serif" font-size="10.00" fill="#000000">GPUTPCTrackParam.h</text>
</a>
</g>
</g>
<!-- Node0&#45;&gt;Node14 -->
<g id="edge16" class="edge">
<title>Node0&#45;&gt;Node14</title>
<path fill="none" stroke="#191970" d="M316.0584,-560.4798C322.6496,-544.0477 331.7346,-522.5026 341,-504 367.0493,-451.9809 402.9557,-393.4605 421.2529,-364.4116"/>
<polygon fill="#191970" stroke="#191970" points="424.3499,-366.063 426.7432,-355.742 418.436,-362.3178 424.3499,-366.063"/>
</g>
<!-- Node16 -->
<g id="node17" class="node">
<title>Node16</title>
<g id="a_node17"><a xlink:href="../../d6/da2/GPUCommonMath_8h.html" target="_top" xlink:title="GPUCommonMath.h">
<polygon fill="none" stroke="#000000" points="831.5,-168.5 831.5,-187.5 946.5,-187.5 946.5,-168.5 831.5,-168.5"/>
<text text-anchor="middle" x="889" y="-175.5" font-family="Helvetica,sans-Serif" font-size="10.00" fill="#000000">GPUCommonMath.h</text>
</a>
</g>
</g>
<!-- Node0&#45;&gt;Node16 -->
<g id="edge75" class="edge">
<title>Node0&#45;&gt;Node16</title>
<path fill="none" stroke="#191970" d="M392.7283,-575.8211C552.0136,-555.0239 875,-506.8323 875,-458 875,-458 875,-458 875,-402 875,-290.7468 630.2075,-311.435 699,-224 714.1841,-204.7011 772.9112,-192.5221 821.1032,-185.5802"/>
<polygon fill="#191970" stroke="#191970" points="821.7837,-189.0194 831.2075,-184.1777 820.8213,-182.0859 821.7837,-189.0194"/>
</g>
<!-- Node19 -->
<g id="node20" class="node">
<title>Node19</title>
<g id="a_node20"><a xlink:href="../../d6/d25/GPUTPCTracker_8h.html" target="_top" xlink:title="GPUTPCTracker.h">
<polygon fill="none" stroke="#000000" points="492,-392.5 492,-411.5 592,-411.5 592,-392.5 492,-392.5"/>
<text text-anchor="middle" x="542" y="-399.5" font-family="Helvetica,sans-Serif" font-size="10.00" fill="#000000">GPUTPCTracker.h</text>
</a>
</g>
</g>
<!-- Node0&#45;&gt;Node19 -->
<g id="edge24" class="edge">
<title>Node0&#45;&gt;Node19</title>
<path fill="none" stroke="#191970" d="M319.8802,-560.4229C330.1122,-542.9412 345.2923,-520.2361 363,-504 407.0453,-463.6152 469.8391,-432.4992 508.1508,-415.7544"/>
<polygon fill="#191970" stroke="#191970" points="509.994,-418.7722 517.8042,-411.6133 507.2343,-412.3391 509.994,-418.7722"/>
</g>
<!-- Node31 -->
<g id="node32" class="node">
<title>Node31</title>
<g id="a_node32"><a xlink:href="../../db/d6e/GPUTPCTracklet_8h.html" target="_top" xlink:title="GPUTPCTracklet.h">
<polygon fill="none" stroke="#000000" points="174,-336.5 174,-355.5 278,-355.5 278,-336.5 174,-336.5"/>
<text text-anchor="middle" x="226" y="-343.5" font-family="Helvetica,sans-Serif" font-size="10.00" fill="#000000">GPUTPCTracklet.h</text>
</a>
</g>
</g>
<!-- Node0&#45;&gt;Node31 -->
<g id="edge56" class="edge">
<title>Node0&#45;&gt;Node31</title>
<path fill="none" stroke="#191970" d="M278.9032,-560.4046C269.583,-549.9498 259.9944,-537.2453 254,-524 229.7806,-470.4846 226.0264,-399.7099 225.7455,-365.7866"/>
<polygon fill="#191970" stroke="#191970" points="229.2454,-365.7778 225.7589,-355.7731 222.2455,-365.7684 229.2454,-365.7778"/>
</g>
<!-- Node32 -->
<g id="node33" class="node">
<title>Node32</title>
<g id="a_node33"><a xlink:href="../../de/d72/GPUTPCTrackletConstructor_8h.html" target="_top" xlink:title="GPUTPCTrackletConstructor.h">
<polygon fill="none" stroke="#000000" points="371.5,-504.5 371.5,-523.5 530.5,-523.5 530.5,-504.5 371.5,-504.5"/>
<text text-anchor="middle" x="451" y="-511.5" font-family="Helvetica,sans-Serif" font-size="10.00" fill="#000000">GPUTPCTrackletConstructor.h</text>
</a>
</g>
</g>
<!-- Node0&#45;&gt;Node32 -->
<g id="edge57" class="edge">
<title>Node0&#45;&gt;Node32</title>
<path fill="none" stroke="#191970" d="M358.3483,-560.3258C380.1772,-549.4114 404.6537,-537.1731 422.965,-528.0175"/>
<polygon fill="#191970" stroke="#191970" points="424.553,-531.1367 431.932,-523.534 421.4224,-524.8757 424.553,-531.1367"/>
</g>
<!-- Node38 -->
<g id="node39" class="node">
<title>Node38</title>
<polygon fill="none" stroke="#bfbfbf" points="903,-504.5 903,-523.5 989,-523.5 989,-504.5 903,-504.5"/>
<text text-anchor="middle" x="946" y="-511.5" font-family="Helvetica,sans-Serif" font-size="10.00" fill="#000000">GPUParam.inc</text>
</g>
<!-- Node0&#45;&gt;Node38 -->
<g id="edge74" class="edge">
<title>Node0&#45;&gt;Node38</title>
<path fill="none" stroke="#191970" d="M392.653,-579.035C506.7196,-568.791 713.3631,-548.793 889,-524 890.2591,-523.8223 891.533,-523.6377 892.8172,-523.4473"/>
<polygon fill="#191970" stroke="#191970" points="893.4463,-526.8916 902.7882,-521.8938 892.3686,-519.9751 893.4463,-526.8916"/>
</g>
<!-- Node2 -->
<g id="node3" class="node">
<title>Node2</title>
<g id="a_node3"><a xlink:href="../../d2/d6d/GPUDef_8h.html" target="_top" xlink:title="GPUDef.h">
<polygon fill="none" stroke="#000000" points="917.5,-112.5 917.5,-131.5 980.5,-131.5 980.5,-112.5 917.5,-112.5"/>
<text text-anchor="middle" x="949" y="-119.5" font-family="Helvetica,sans-Serif" font-size="10.00" fill="#000000">GPUDef.h</text>
</a>
</g>
</g>
<!-- Node1&#45;&gt;Node2 -->
<g id="edge2" class="edge">
<title>Node1&#45;&gt;Node2</title>
<path fill="none" stroke="#191970" d="M408.0736,-176.76C497.3845,-173.5824 715.9797,-163.1979 907.2676,-132.0757"/>
<polygon fill="#191970" stroke="#191970" points="907.923,-135.515 917.2197,-130.4335 906.7833,-128.6084 907.923,-135.515"/>
</g>
<!-- Node3 -->
<g id="node4" class="node">
<title>Node3</title>
<g id="a_node4"><a xlink:href="../../df/d21/GPUCommonDef_8h.html" target="_top" xlink:title="GPUCommonDef.h">
<polygon fill="none" stroke="#000000" points="1218.5,-56.5 1218.5,-75.5 1325.5,-75.5 1325.5,-56.5 1218.5,-56.5"/>
<text text-anchor="middle" x="1272" y="-63.5" font-family="Helvetica,sans-Serif" font-size="10.00" fill="#000000">GPUCommonDef.h</text>
</a>
</g>
</g>
<!-- Node2&#45;&gt;Node3 -->
<g id="edge3" class="edge">
<title>Node2&#45;&gt;Node3</title>
<path fill="none" stroke="#191970" d="M980.6316,-114.9081C985.4374,-113.8931 990.3446,-112.892 995,-112 1015.5201,-108.0682 1132.7809,-88.7732 1208.0105,-76.4548"/>
<polygon fill="#191970" stroke="#191970" points="1209.0291,-79.8348 1218.3323,-74.7653 1207.8983,-72.9267 1209.0291,-79.8348"/>
</g>
<!-- Node6 -->
<g id="node7" class="node">
<title>Node6</title>
<g id="a_node7"><a xlink:href="../../d2/d37/GPUDefConstantsAndSettings_8h.html" target="_top" xlink:title="GPUDefConstantsAndSettings.h">
<polygon fill="none" stroke="#000000" points="1029.5,-56.5 1029.5,-75.5 1200.5,-75.5 1200.5,-56.5 1029.5,-56.5"/>
<text text-anchor="middle" x="1115" y="-63.5" font-family="Helvetica,sans-Serif" font-size="10.00" fill="#000000">GPUDefConstantsAndSettings.h</text>
</a>
</g>
</g>
<!-- Node2&#45;&gt;Node6 -->
<g id="edge6" class="edge">
<title>Node2&#45;&gt;Node6</title>
<path fill="none" stroke="#191970" d="M977.5364,-112.3733C1005.0202,-103.1016 1046.7686,-89.0178 1077.0452,-78.804"/>
<polygon fill="#191970" stroke="#191970" points="1078.4794,-82.0141 1086.836,-75.5011 1076.2418,-75.3813 1078.4794,-82.0141"/>
</g>
<!-- Node7 -->
<g id="node8" class="node">
<title>Node7</title>
<g id="a_node8"><a xlink:href="../../dc/de9/GPUDefGPUParameters_8h.html" target="_top" xlink:title="GPUDefGPUParameters.h">
<polygon fill="none" stroke="#000000" points="546,-56.5 546,-75.5 686,-75.5 686,-56.5 546,-56.5"/>
<text text-anchor="middle" x="616" y="-63.5" font-family="Helvetica,sans-Serif" font-size="10.00" fill="#000000">GPUDefGPUParameters.h</text>
</a>
</g>
</g>
<!-- Node2&#45;&gt;Node7 -->
<g id="edge7" class="edge">
<title>Node2&#45;&gt;Node7</title>
<path fill="none" stroke="#191970" d="M917.1815,-113.7733C914.4214,-113.1423 911.6657,-112.5413 909,-112 837.4477,-97.4694 755.2682,-84.9229 696.1863,-76.6205"/>
<polygon fill="#191970" stroke="#191970" points="696.5587,-73.1386 686.1709,-75.2226 695.591,-80.0714 696.5587,-73.1386"/>
</g>
<!-- Node9 -->
<g id="node10" class="node">
<title>Node9</title>
<g id="a_node10"><a xlink:href="../../d3/d4c/GPUDefOpenCL12Templates_8h.html" target="_top" xlink:title="GPUDefOpenCL12Templates.h">
<polygon fill="none" stroke="#000000" points="704,-56.5 704,-75.5 868,-75.5 868,-56.5 704,-56.5"/>
<text text-anchor="middle" x="786" y="-63.5" font-family="Helvetica,sans-Serif" font-size="10.00" fill="#000000">GPUDefOpenCL12Templates.h</text>
</a>
</g>
</g>
<!-- Node2&#45;&gt;Node9 -->
<g id="edge9" class="edge">
<title>Node2&#45;&gt;Node9</title>
<path fill="none" stroke="#191970" d="M920.9793,-112.3733C893.9922,-103.1016 852.9983,-89.0178 823.2689,-78.804"/>
<polygon fill="#191970" stroke="#191970" points="824.2497,-75.4403 813.6551,-75.5011 821.9752,-82.0605 824.2497,-75.4403"/>
</g>
<!-- Node10 -->
<g id="node11" class="node">
<title>Node10</title>
<g id="a_node11"><a xlink:href="../../d2/d45/GPUCommonRtypes_8h.html" target="_top" xlink:title="GPUCommonRtypes.h">
<polygon fill="none" stroke="#000000" points="886.5,-56.5 886.5,-75.5 1011.5,-75.5 1011.5,-56.5 886.5,-56.5"/>
<text text-anchor="middle" x="949" y="-63.5" font-family="Helvetica,sans-Serif" font-size="10.00" fill="#000000">GPUCommonRtypes.h</text>
</a>
</g>
</g>
<!-- Node2&#45;&gt;Node10 -->
<g id="edge10" class="edge">
<title>Node2&#45;&gt;Node10</title>
<path fill="none" stroke="#191970" d="M949,-112.2455C949,-104.9382 949,-94.6944 949,-85.7046"/>
<polygon fill="#191970" stroke="#191970" points="952.5001,-85.6426 949,-75.6427 945.5001,-85.6427 952.5001,-85.6426"/>
</g>
<!-- Node4 -->
<g id="node5" class="node">
<title>Node4</title>
<g id="a_node5"><a xlink:href="../../d5/d93/GPUCommonDefSettings_8h.html" target="_top" xlink:title="GPUCommonDefSettings.h">
<polygon fill="none" stroke="#000000" points="1121,-.5 1121,-19.5 1269,-19.5 1269,-.5 1121,-.5"/>
<text text-anchor="middle" x="1195" y="-7.5" font-family="Helvetica,sans-Serif" font-size="10.00" fill="#000000">GPUCommonDefSettings.h</text>
</a>
</g>
</g>
<!-- Node3&#45;&gt;Node4 -->
<g id="edge4" class="edge">
<title>Node3&#45;&gt;Node4</title>
<path fill="none" stroke="#191970" d="M1258.5876,-56.2455C1246.9943,-47.814 1230.0252,-35.4729 1216.5322,-25.6598"/>
<polygon fill="#191970" stroke="#191970" points="1218.4047,-22.6938 1208.2587,-19.6427 1214.2874,-28.355 1218.4047,-22.6938"/>
</g>
<!-- Node5 -->
<g id="node6" class="node">
<title>Node5</title>
<g id="a_node6"><a xlink:href="../../da/d5a/GPUCommonDefAPI_8h.html" target="_top" xlink:title="GPUCommonDefAPI.h">
<polygon fill="none" stroke="#000000" points="1287,-.5 1287,-19.5 1411,-19.5 1411,-.5 1287,-.5"/>
<text text-anchor="middle" x="1349" y="-7.5" font-family="Helvetica,sans-Serif" font-size="10.00" fill="#000000">GPUCommonDefAPI.h</text>
</a>
</g>
</g>
<!-- Node3&#45;&gt;Node5 -->
<g id="edge5" class="edge">
<title>Node3&#45;&gt;Node5</title>
<path fill="none" stroke="#191970" d="M1285.4124,-56.2455C1297.0057,-47.814 1313.9748,-35.4729 1327.4678,-25.6598"/>
<polygon fill="#191970" stroke="#191970" points="1329.7126,-28.355 1335.7413,-19.6427 1325.5953,-22.6938 1329.7126,-28.355"/>
</g>
<!-- Node8 -->
<g id="node9" class="node">
<title>Node8</title>
<g id="a_node9"><a xlink:href="../../d6/dff/GPUDefMacros_8h.html" target="_top" xlink:title="GPUDefMacros.h">
<polygon fill="none" stroke="#000000" points="567,-.5 567,-19.5 665,-19.5 665,-.5 567,-.5"/>
<text text-anchor="middle" x="616" y="-7.5" font-family="Helvetica,sans-Serif" font-size="10.00" fill="#000000">GPUDefMacros.h</text>
</a>
</g>
</g>
<!-- Node7&#45;&gt;Node8 -->
<g id="edge8" class="edge">
<title>Node7&#45;&gt;Node8</title>
<path fill="none" stroke="#191970" d="M616,-56.2455C616,-48.9382 616,-38.6944 616,-29.7046"/>
<polygon fill="#191970" stroke="#191970" points="619.5001,-29.6426 616,-19.6427 612.5001,-29.6427 619.5001,-29.6426"/>
</g>
<!-- Node11 -->
<g id="node12" class="node">
<title>Node11</title>
<polygon fill="none" stroke="#bfbfbf" points="919.5,-.5 919.5,-19.5 978.5,-19.5 978.5,-.5 919.5,-.5"/>
<text text-anchor="middle" x="949" y="-7.5" font-family="Helvetica,sans-Serif" font-size="10.00" fill="#000000">Rtypes.h</text>
</g>
<!-- Node10&#45;&gt;Node11 -->
<g id="edge11" class="edge">
<title>Node10&#45;&gt;Node11</title>
<path fill="none" stroke="#191970" d="M949,-56.2455C949,-48.9382 949,-38.6944 949,-29.7046"/>
<polygon fill="#191970" stroke="#191970" points="952.5001,-29.6426 949,-19.6427 945.5001,-29.6427 952.5001,-29.6426"/>
</g>
<!-- Node12&#45;&gt;Node1 -->
<g id="edge13" class="edge">
<title>Node12&#45;&gt;Node1</title>
<path fill="none" stroke="#191970" d="M441.3232,-224.2455C427.5144,-215.6534 407.1807,-203.0014 391.2708,-193.1018"/>
<polygon fill="#191970" stroke="#191970" points="392.8368,-189.954 382.4972,-187.6427 389.1387,-195.8974 392.8368,-189.954"/>
</g>
<!-- Node13&#45;&gt;Node1 -->
<g id="edge15" class="edge">
<title>Node13&#45;&gt;Node1</title>
<path fill="none" stroke="#191970" d="M42.1491,-448.4693C46.2968,-429.2151 55,-384.2552 55,-346 55,-346 55,-346 55,-290 55,-255.9282 65.918,-243.2949 94,-224 129.1837,-199.8256 246.9797,-187.052 315.8037,-181.4968"/>
<polygon fill="#191970" stroke="#191970" points="316.302,-184.9685 325.9979,-180.6977 315.755,-177.9899 316.302,-184.9685"/>
</g>
<!-- Node14&#45;&gt;Node1 -->
<g id="edge19" class="edge">
<title>Node14&#45;&gt;Node1</title>
<path fill="none" stroke="#191970" d="M429.2625,-336.4862C418.7391,-309.6994 388.7079,-233.2565 374.5542,-197.2289"/>
<polygon fill="#191970" stroke="#191970" points="377.7752,-195.8556 370.861,-187.8279 371.2599,-198.4152 377.7752,-195.8556"/>
</g>
<!-- Node15 -->
<g id="node16" class="node">
<title>Node15</title>
<g id="a_node16"><a xlink:href="../../df/d00/GPUTPCBaseTrackParam_8h.html" target="_top" xlink:title="GPUTPCBaseTrackParam.h">
<polygon fill="none" stroke="#000000" points="250,-280.5 250,-299.5 396,-299.5 396,-280.5 250,-280.5"/>
<text text-anchor="middle" x="323" y="-287.5" font-family="Helvetica,sans-Serif" font-size="10.00" fill="#000000">GPUTPCBaseTrackParam.h</text>
</a>
</g>
</g>
<!-- Node14&#45;&gt;Node15 -->
<g id="edge17" class="edge">
<title>Node14&#45;&gt;Node15</title>
<path fill="none" stroke="#191970" d="M413.8395,-336.2455C396.4889,-327.4125 370.7099,-314.2887 351.0417,-304.2758"/>
<polygon fill="#191970" stroke="#191970" points="352.4405,-301.0605 341.941,-299.6427 349.2647,-307.2986 352.4405,-301.0605"/>
</g>
<!-- Node14&#45;&gt;Node16 -->
<g id="edge20" class="edge">
<title>Node14&#45;&gt;Node16</title>
<path fill="none" stroke="#191970" d="M477.1463,-336.4907C515.7767,-327.4883 568.263,-313.3937 585,-300 615.3015,-275.7514 596.3056,-246.3972 628,-224 658.3797,-202.5318 754.5116,-189.8314 821.2121,-183.3878"/>
<polygon fill="#191970" stroke="#191970" points="821.6105,-186.8658 831.2387,-182.4445 820.9549,-179.8966 821.6105,-186.8658"/>
</g>
<!-- Node15&#45;&gt;Node1 -->
<g id="edge18" class="edge">
<title>Node15&#45;&gt;Node1</title>
<path fill="none" stroke="#191970" d="M326.7514,-280.4509C333.9927,-262.0186 350.0186,-221.2254 359.5188,-197.043"/>
<polygon fill="#191970" stroke="#191970" points="362.8591,-198.1122 363.2581,-187.5249 356.3439,-195.5526 362.8591,-198.1122"/>
</g>
<!-- Node16&#45;&gt;Node3 -->
<g id="edge21" class="edge">
<title>Node16&#45;&gt;Node3</title>
<path fill="none" stroke="#191970" d="M910.8402,-168.4846C931.411,-159.4207 963.0126,-145.2342 990,-132 1007.1358,-123.5969 1009.9782,-118.282 1028,-112 1044.8422,-106.1292 1141.8901,-88.6231 1208.3984,-76.9799"/>
<polygon fill="#191970" stroke="#191970" points="1209.136,-80.4041 1218.3846,-75.2355 1207.9314,-73.5085 1209.136,-80.4041"/>
</g>
<!-- Node17 -->
<g id="node18" class="node">
<title>Node17</title>
<polygon fill="none" stroke="#bfbfbf" points="852.5,-112.5 852.5,-131.5 899.5,-131.5 899.5,-112.5 852.5,-112.5"/>
<text text-anchor="middle" x="876" y="-119.5" font-family="Helvetica,sans-Serif" font-size="10.00" fill="#000000">cmath</text>
</g>
<!-- Node16&#45;&gt;Node17 -->
<g id="edge22" class="edge">
<title>Node16&#45;&gt;Node17</title>
<path fill="none" stroke="#191970" d="M886.7356,-168.2455C885.0206,-160.8579 882.6088,-150.4689 880.5056,-141.4087"/>
<polygon fill="#191970" stroke="#191970" points="883.9092,-140.5922 878.2385,-131.6427 877.0905,-142.1751 883.9092,-140.5922"/>
</g>
<!-- Node18 -->
<g id="node19" class="node">
<title>Node18</title>
<polygon fill="none" stroke="#bfbfbf" points="1037,-112.5 1037,-131.5 1101,-131.5 1101,-112.5 1037,-112.5"/>
<text text-anchor="middle" x="1069" y="-119.5" font-family="Helvetica,sans-Serif" font-size="10.00" fill="#000000">algorithm</text>
</g>
<!-- Node16&#45;&gt;Node18 -->
<g id="edge23" class="edge">
<title>Node16&#45;&gt;Node18</title>
<path fill="none" stroke="#191970" d="M919.9431,-168.3733C950.0039,-159.021 995.8026,-144.7725 1028.6978,-134.5385"/>
<polygon fill="#191970" stroke="#191970" points="1029.9519,-137.8139 1038.4607,-131.5011 1027.8723,-131.1299 1029.9519,-137.8139"/>
</g>
<!-- Node19&#45;&gt;Node1 -->
<g id="edge25" class="edge">
<title>Node19&#45;&gt;Node1</title>
<path fill="none" stroke="#191970" d="M491.742,-392.7285C413.4744,-377.0983 268.5516,-342.9622 241,-300 211.3209,-253.7204 286.1891,-212.033 332.8915,-191.4825"/>
<polygon fill="#191970" stroke="#191970" points="334.2833,-194.694 342.0995,-187.5415 331.529,-188.2586 334.2833,-194.694"/>
</g>
<!-- Node19&#45;&gt;Node14 -->
<g id="edge51" class="edge">
<title>Node19&#45;&gt;Node14</title>
<path fill="none" stroke="#191970" d="M523.0136,-392.2455C505.8208,-383.4125 480.2762,-370.2887 460.7868,-360.2758"/>
<polygon fill="#191970" stroke="#191970" points="462.263,-357.0993 451.7688,-355.6427 459.0641,-363.3257 462.263,-357.0993"/>
</g>
<!-- Node20 -->
<g id="node21" class="node">
<title>Node20</title>
<polygon fill="none" stroke="#bfbfbf" points="512,-336.5 512,-355.5 572,-355.5 572,-336.5 512,-336.5"/>
<text text-anchor="middle" x="542" y="-343.5" font-family="Helvetica,sans-Serif" font-size="10.00" fill="#000000">iostream</text>
</g>
<!-- Node19&#45;&gt;Node20 -->
<g id="edge26" class="edge">
<title>Node19&#45;&gt;Node20</title>
<path fill="none" stroke="#191970" d="M542,-392.2455C542,-384.9382 542,-374.6944 542,-365.7046"/>
<polygon fill="#191970" stroke="#191970" points="545.5001,-365.6426 542,-355.6427 538.5001,-365.6427 545.5001,-365.6426"/>
</g>
<!-- Node21 -->
<g id="node22" class="node">
<title>Node21</title>
<g id="a_node22"><a xlink:href="../../dd/d7b/GPUTPCHitId_8h.html" target="_top" xlink:title="GPUTPCHitId.h">
<polygon fill="none" stroke="#000000" points="590.5,-336.5 590.5,-355.5 679.5,-355.5 679.5,-336.5 590.5,-336.5"/>
<text text-anchor="middle" x="635" y="-343.5" font-family="Helvetica,sans-Serif" font-size="10.00" fill="#000000">GPUTPCHitId.h</text>
</a>
</g>
</g>
<!-- Node19&#45;&gt;Node21 -->
<g id="edge27" class="edge">
<title>Node19&#45;&gt;Node21</title>
<path fill="none" stroke="#191970" d="M558.1994,-392.2455C572.6018,-383.5731 593.8732,-370.7645 610.3799,-360.825"/>
<polygon fill="#191970" stroke="#191970" points="612.225,-363.7996 618.9863,-355.6427 608.614,-357.8028 612.225,-363.7996"/>
</g>
<!-- Node22 -->
<g id="node23" class="node">
<title>Node22</title>
<g id="a_node23"><a xlink:href="../../df/d4a/GPUTPCSliceData_8h.html" target="_top" xlink:title="GPUTPCSliceData.h">
<polygon fill="none" stroke="#000000" points="697,-336.5 697,-355.5 809,-355.5 809,-336.5 697,-336.5"/>
<text text-anchor="middle" x="753" y="-343.5" font-family="Helvetica,sans-Serif" font-size="10.00" fill="#000000">GPUTPCSliceData.h</text>
</a>
</g>
</g>
<!-- Node19&#45;&gt;Node22 -->
<g id="edge28" class="edge">
<title>Node19&#45;&gt;Node22</title>
<path fill="none" stroke="#191970" d="M578.2722,-392.3733C613.9658,-382.9001 668.5879,-368.4032 707.2451,-358.1435"/>
<polygon fill="#191970" stroke="#191970" points="708.4336,-361.4493 717.2011,-355.5011 706.6379,-354.6835 708.4336,-361.4493"/>
</g>
<!-- Node29 -->
<g id="node30" class="node">
<title>Node29</title>
<g id="a_node30"><a xlink:href="../../d6/d57/GPUProcessor_8h.html" target="_top" xlink:title="GPUProcessor.h">
<polygon fill="none" stroke="#000000" points="1145.5,-168.5 1145.5,-187.5 1238.5,-187.5 1238.5,-168.5 1145.5,-168.5"/>
<text text-anchor="middle" x="1192" y="-175.5" font-family="Helvetica,sans-Serif" font-size="10.00" fill="#000000">GPUProcessor.h</text>
</a>
</g>
</g>
<!-- Node19&#45;&gt;Node29 -->
<g id="edge55" class="edge">
<title>Node19&#45;&gt;Node29</title>
<path fill="none" stroke="#191970" d="M592.0221,-394.5802C647.4393,-386.147 739.3649,-371.5255 818,-356 993.667,-321.3168 1104.2544,-392.0275 1205,-244 1214.4117,-230.1713 1209.2218,-211.1558 1202.8235,-197.0867"/>
<polygon fill="#191970" stroke="#191970" points="1205.7887,-195.1954 1198.1425,-187.8614 1199.5463,-198.3628 1205.7887,-195.1954"/>
</g>
<!-- Node19&#45;&gt;Node31 -->
<g id="edge52" class="edge">
<title>Node19&#45;&gt;Node31</title>
<path fill="none" stroke="#191970" d="M491.9289,-393.1266C436.7348,-383.3454 347.8815,-367.5992 288.2467,-357.0311"/>
<polygon fill="#191970" stroke="#191970" points="288.6598,-353.5498 278.2024,-355.2511 287.4382,-360.4424 288.6598,-353.5498"/>
</g>
<!-- Node22&#45;&gt;Node1 -->
<g id="edge29" class="edge">
<title>Node22&#45;&gt;Node1</title>
<path fill="none" stroke="#191970" d="M734.6123,-336.4147C716.9644,-327.1827 689.5863,-312.776 666,-300 604.7746,-266.8361 593.3601,-250.574 529,-224 493.0323,-209.1491 450.6754,-197.3065 418.2949,-189.3583"/>
<polygon fill="#191970" stroke="#191970" points="418.6947,-185.8545 408.1531,-186.9157 417.0556,-192.6599 418.6947,-185.8545"/>
</g>
<!-- Node22&#45;&gt;Node16 -->
<g id="edge33" class="edge">
<title>Node22&#45;&gt;Node16</title>
<path fill="none" stroke="#191970" d="M742.2664,-336.2669C719.4269,-314.3911 670.3552,-260.4074 699,-224 714.1841,-204.7011 772.9112,-192.5221 821.1032,-185.5802"/>
<polygon fill="#191970" stroke="#191970" points="821.7837,-189.0194 831.2075,-184.1777 820.8213,-182.0859 821.7837,-189.0194"/>
</g>
<!-- Node23 -->
<g id="node24" class="node">
<title>Node23</title>
<g id="a_node24"><a xlink:href="../../d8/dff/GPUTPCRow_8h.html" target="_top" xlink:title="GPUTPCRow.h">
<polygon fill="none" stroke="#000000" points="490.5,-280.5 490.5,-299.5 575.5,-299.5 575.5,-280.5 490.5,-280.5"/>
<text text-anchor="middle" x="533" y="-287.5" font-family="Helvetica,sans-Serif" font-size="10.00" fill="#000000">GPUTPCRow.h</text>
</a>
</g>
</g>
<!-- Node22&#45;&gt;Node23 -->
<g id="edge30" class="edge">
<title>Node22&#45;&gt;Node23</title>
<path fill="none" stroke="#191970" d="M715.1807,-336.3733C677.8062,-326.8598 620.5276,-312.2797 580.1929,-302.0127"/>
<polygon fill="#191970" stroke="#191970" points="580.8802,-298.5761 570.3258,-299.5011 579.1534,-305.3598 580.8802,-298.5761"/>
</g>
<!-- Node24 -->
<g id="node25" class="node">
<title>Node24</title>
<g id="a_node25"><a xlink:href="../../df/d13/GPUParam_8h.html" target="_top" xlink:title="GPUParam.h">
<polygon fill="none" stroke="#000000" points="944.5,-280.5 944.5,-299.5 1021.5,-299.5 1021.5,-280.5 944.5,-280.5"/>
<text text-anchor="middle" x="983" y="-287.5" font-family="Helvetica,sans-Serif" font-size="10.00" fill="#000000">GPUParam.h</text>
</a>
</g>
</g>
<!-- Node22&#45;&gt;Node24 -->
<g id="edge34" class="edge">
<title>Node22&#45;&gt;Node24</title>
<path fill="none" stroke="#191970" d="M792.2771,-336.4369C831.5932,-326.8643 892.1658,-312.1162 934.4674,-301.8166"/>
<polygon fill="#191970" stroke="#191970" points="935.3804,-305.1967 944.2686,-299.4303 933.7244,-298.3954 935.3804,-305.1967"/>
</g>
<!-- Node28 -->
<g id="node29" class="node">
<title>Node28</title>
<g id="a_node29"><a xlink:href="../../d5/da6/GPUMemoryResource_8h.html" target="_top" xlink:title="GPUMemoryResource.h">
<polygon fill="none" stroke="#000000" points="1064.5,-224.5 1064.5,-243.5 1195.5,-243.5 1195.5,-224.5 1064.5,-224.5"/>
<text text-anchor="middle" x="1130" y="-231.5" font-family="Helvetica,sans-Serif" font-size="10.00" fill="#000000">GPUMemoryResource.h</text>
</a>
</g>
</g>
<!-- Node22&#45;&gt;Node28 -->
<g id="edge44" class="edge">
<title>Node22&#45;&gt;Node28</title>
<path fill="none" stroke="#191970" d="M809.0579,-338.0174C884.2592,-327.1103 1010.7513,-307.9937 1031,-300 1061.4914,-287.9628 1092.2231,-265.4869 1111.1799,-250.1399"/>
<polygon fill="#191970" stroke="#191970" points="1113.5455,-252.7254 1119.0181,-243.6534 1109.0826,-247.3326 1113.5455,-252.7254"/>
</g>
<!-- Node23&#45;&gt;Node1 -->
<g id="edge31" class="edge">
<title>Node23&#45;&gt;Node1</title>
<path fill="none" stroke="#191970" d="M532.0855,-280.0328C530.2413,-265.6785 524.7913,-239.2405 509,-224 495.7202,-211.1834 453.2571,-198.3882 418.1974,-189.5586"/>
<polygon fill="#191970" stroke="#191970" points="418.6134,-186.0565 408.0665,-187.0635 416.9393,-192.8534 418.6134,-186.0565"/>
</g>
<!-- Node23&#45;&gt;Node12 -->
<g id="edge32" class="edge">
<title>Node23&#45;&gt;Node12</title>
<path fill="none" stroke="#191970" d="M519.7618,-280.2455C508.319,-271.814 491.5704,-259.4729 478.2525,-249.6598"/>
<polygon fill="#191970" stroke="#191970" points="480.2133,-246.757 470.0865,-243.6427 476.0609,-252.3924 480.2133,-246.757"/>
</g>
<!-- Node24&#45;&gt;Node2 -->
<g id="edge37" class="edge">
<title>Node24&#45;&gt;Node2</title>
<path fill="none" stroke="#191970" d="M992.9362,-280.4913C1001.176,-271.8654 1012.2767,-258.3368 1017,-244 1019.7814,-235.5575 1019.5759,-232.5075 1017,-224 1006.8999,-190.6417 981.8945,-158.2213 965.1872,-139.1901"/>
<polygon fill="#191970" stroke="#191970" points="967.6894,-136.7386 958.3904,-131.6612 962.4935,-141.4293 967.6894,-136.7386"/>
</g>
<!-- Node24&#45;&gt;Node3 -->
<g id="edge35" class="edge">
<title>Node24&#45;&gt;Node3</title>
<path fill="none" stroke="#191970" d="M1021.6858,-285.2817C1076.8851,-278.0006 1174.9058,-262.8734 1205,-244 1259.4848,-209.8301 1269.846,-124.6169 1271.6856,-85.8112"/>
<polygon fill="#191970" stroke="#191970" points="1275.1851,-85.8793 1272.0154,-75.7698 1268.1889,-85.6494 1275.1851,-85.8793"/>
</g>
<!-- Node24&#45;&gt;Node16 -->
<g id="edge36" class="edge">
<title>Node24&#45;&gt;Node16</title>
<path fill="none" stroke="#191970" d="M961.3391,-280.3943C945.945,-272.5788 925.8084,-260.1972 913,-244 902.378,-230.5677 896.1872,-212.0078 892.7625,-197.99"/>
<polygon fill="#191970" stroke="#191970" points="896.116,-196.9384 890.5773,-187.9066 889.2748,-198.421 896.116,-196.9384"/>
</g>
<!-- Node25 -->
<g id="node26" class="node">
<title>Node25</title>
<g id="a_node26"><a xlink:href="../../dd/dc6/GPUSettings_8h.html" target="_top" xlink:title="GPUSettings.h">
<polygon fill="none" stroke="#000000" points="922,-224.5 922,-243.5 1008,-243.5 1008,-224.5 922,-224.5"/>
<text text-anchor="middle" x="965" y="-231.5" font-family="Helvetica,sans-Serif" font-size="10.00" fill="#000000">GPUSettings.h</text>
</a>
</g>
</g>
<!-- Node24&#45;&gt;Node25 -->
<g id="edge38" class="edge">
<title>Node24&#45;&gt;Node25</title>
<path fill="none" stroke="#191970" d="M979.8646,-280.2455C977.49,-272.8579 974.1507,-262.4689 971.2385,-253.4087"/>
<polygon fill="#191970" stroke="#191970" points="974.4917,-252.0919 968.0994,-243.6427 967.8275,-254.234 974.4917,-252.0919"/>
</g>
<!-- Node26 -->
<g id="node27" class="node">
<title>Node26</title>
<g id="a_node27"><a xlink:href="../../d6/d1b/GPUTPCGeometry_8h.html" target="_top" xlink:title="GPUTPCGeometry.h">
<polygon fill="none" stroke="#000000" points="1298.5,-168.5 1298.5,-187.5 1411.5,-187.5 1411.5,-168.5 1298.5,-168.5"/>
<text text-anchor="middle" x="1355" y="-175.5" font-family="Helvetica,sans-Serif" font-size="10.00" fill="#000000">GPUTPCGeometry.h</text>
</a>
</g>
</g>
<!-- Node24&#45;&gt;Node26 -->
<g id="edge40" class="edge">
<title>Node24&#45;&gt;Node26</title>
<path fill="none" stroke="#191970" d="M1021.6253,-287.0774C1072.499,-282.3258 1164.1537,-270.625 1238,-244 1273.2867,-231.2775 1310.4177,-208.489 1333.1466,-193.3051"/>
<polygon fill="#191970" stroke="#191970" points="1335.3739,-196.0232 1341.6785,-187.5083 1331.44,-190.2331 1335.3739,-196.0232"/>
</g>
<!-- Node27 -->
<g id="node28" class="node">
<title>Node27</title>
<g id="a_node28"><a xlink:href="../../d9/d9c/GPUTPCGMPolynomialField_8h.html" target="_top" xlink:title="GPUTPCGMPolynomialField.h">
<polygon fill="none" stroke="#000000" points="708,-224.5 708,-243.5 866,-243.5 866,-224.5 708,-224.5"/>
<text text-anchor="middle" x="787" y="-231.5" font-family="Helvetica,sans-Serif" font-size="10.00" fill="#000000">GPUTPCGMPolynomialField.h</text>
</a>
</g>
</g>
<!-- Node24&#45;&gt;Node27 -->
<g id="edge42" class="edge">
<title>Node24&#45;&gt;Node27</title>
<path fill="none" stroke="#191970" d="M949.3064,-280.3733C916.2913,-270.9404 865.8427,-256.5265 829.9614,-246.2747"/>
<polygon fill="#191970" stroke="#191970" points="830.8307,-242.8831 820.2539,-243.5011 828.9076,-249.6137 830.8307,-242.8831"/>
</g>
<!-- Node25&#45;&gt;Node16 -->
<g id="edge39" class="edge">
<title>Node25&#45;&gt;Node16</title>
<path fill="none" stroke="#191970" d="M951.7618,-224.2455C940.319,-215.814 923.5704,-203.4729 910.2525,-193.6598"/>
<polygon fill="#191970" stroke="#191970" points="912.2133,-190.757 902.0865,-187.6427 908.0609,-196.3924 912.2133,-190.757"/>
</g>
<!-- Node26&#45;&gt;Node3 -->
<g id="edge41" class="edge">
<title>Node26&#45;&gt;Node3</title>
<path fill="none" stroke="#191970" d="M1358.5884,-168.2301C1362.9443,-154.5807 1368.4938,-129.5137 1358,-112 1348.9913,-96.9649 1333.2066,-86.5677 1317.5987,-79.5159"/>
<polygon fill="#191970" stroke="#191970" points="1318.5449,-76.1203 1307.9657,-75.546 1315.8777,-82.5923 1318.5449,-76.1203"/>
</g>
<!-- Node27&#45;&gt;Node1 -->
<g id="edge43" class="edge">
<title>Node27&#45;&gt;Node1</title>
<path fill="none" stroke="#191970" d="M715.2766,-224.4369C630.8049,-213.174 492.5989,-194.7465 418.2235,-184.8298"/>
<polygon fill="#191970" stroke="#191970" points="418.5396,-181.3411 408.1647,-183.4886 417.6144,-188.2797 418.5396,-181.3411"/>
</g>
<!-- Node28&#45;&gt;Node3 -->
<g id="edge45" class="edge">
<title>Node28&#45;&gt;Node3</title>
<path fill="none" stroke="#191970" d="M1128.7415,-224.3245C1127.4631,-210.7874 1126.9032,-185.8529 1137,-168 1160.5237,-126.406 1208.6621,-96.4872 1240.6346,-80.2007"/>
<polygon fill="#191970" stroke="#191970" points="1242.5719,-83.1478 1249.9929,-75.5861 1239.4761,-76.8696 1242.5719,-83.1478"/>
</g>
<!-- Node28&#45;&gt;Node29 -->
<g id="edge46" class="edge">
<title>Node28&#45;&gt;Node29</title>
<path fill="none" stroke="#191970" d="M1140.7996,-224.2455C1149.8678,-216.0549 1163.0206,-204.1749 1173.7245,-194.5069"/>
<polygon fill="#191970" stroke="#191970" points="1176.2491,-196.9429 1181.3242,-187.6427 1171.5571,-191.7482 1176.2491,-196.9429"/>
</g>
<!-- Node29&#45;&gt;Node2 -->
<g id="edge48" class="edge">
<title>Node29&#45;&gt;Node2</title>
<path fill="none" stroke="#191970" d="M1150.5029,-168.4369C1105.8588,-158.1485 1035.2728,-141.8818 990.5919,-131.585"/>
<polygon fill="#191970" stroke="#191970" points="991.1774,-128.1282 980.6468,-129.2931 989.6053,-134.9494 991.1774,-128.1282"/>
</g>
<!-- Node29&#45;&gt;Node3 -->
<g id="edge47" class="edge">
<title>Node29&#45;&gt;Node3</title>
<path fill="none" stroke="#191970" d="M1198.8208,-168.4509C1212.2228,-149.688 1242.1752,-107.7548 1259.3157,-83.758"/>
<polygon fill="#191970" stroke="#191970" points="1262.2322,-85.6966 1265.1965,-75.5249 1256.536,-81.6279 1262.2322,-85.6966"/>
</g>
<!-- Node29&#45;&gt;Node18 -->
<g id="edge50" class="edge">
<title>Node29&#45;&gt;Node18</title>
<path fill="none" stroke="#191970" d="M1170.8555,-168.3733C1151.1108,-159.3838 1121.4302,-145.8706 1099.1945,-135.7471"/>
<polygon fill="#191970" stroke="#191970" points="1100.42,-132.4594 1089.8685,-131.5011 1097.5194,-138.8302 1100.42,-132.4594"/>
</g>
<!-- Node30 -->
<g id="node31" class="node">
<title>Node30</title>
<polygon fill="none" stroke="#bfbfbf" points="1295.5,-112.5 1295.5,-131.5 1348.5,-131.5 1348.5,-112.5 1295.5,-112.5"/>
<text text-anchor="middle" x="1322" y="-119.5" font-family="Helvetica,sans-Serif" font-size="10.00" fill="#000000">cstddef</text>
</g>
<!-- Node29&#45;&gt;Node30 -->
<g id="edge49" class="edge">
<title>Node29&#45;&gt;Node30</title>
<path fill="none" stroke="#191970" d="M1214.3478,-168.3733C1235.4033,-159.3032 1267.1495,-145.6279 1290.7175,-135.4755"/>
<polygon fill="#191970" stroke="#191970" points="1292.1444,-138.6719 1299.9438,-131.5011 1289.375,-132.243 1292.1444,-138.6719"/>
</g>
<!-- Node31&#45;&gt;Node1 -->
<g id="edge54" class="edge">
<title>Node31&#45;&gt;Node1</title>
<path fill="none" stroke="#191970" d="M220.2839,-336.2893C207.9857,-313.9902 182.1423,-258.3989 208,-224 221.0802,-206.5992 274.3692,-193.683 315.6923,-186.038"/>
<polygon fill="#191970" stroke="#191970" points="316.4149,-189.4643 325.6405,-184.2549 315.1799,-182.5741 316.4149,-189.4643"/>
</g>
<!-- Node31&#45;&gt;Node15 -->
<g id="edge53" class="edge">
<title>Node31&#45;&gt;Node15</title>
<path fill="none" stroke="#191970" d="M242.8961,-336.2455C257.918,-327.5731 280.1043,-314.7645 297.321,-304.825"/>
<polygon fill="#191970" stroke="#191970" points="299.3871,-307.6737 306.2975,-299.6427 295.8872,-301.6114 299.3871,-307.6737"/>
</g>
<!-- Node32&#45;&gt;Node1 -->
<g id="edge58" class="edge">
<title>Node32&#45;&gt;Node1</title>
<path fill="none" stroke="#191970" d="M406.8203,-504.4556C340.5565,-487.4965 217.6064,-445.1626 165,-356 143.1937,-319.0404 112.9976,-306.4035 196,-224 212.9008,-207.2212 271.9768,-193.9031 315.9888,-186.0025"/>
<polygon fill="#191970" stroke="#191970" points="316.7253,-189.4269 325.9724,-184.2557 315.5188,-182.5316 316.7253,-189.4269"/>
</g>
<!-- Node32&#45;&gt;Node14 -->
<g id="edge59" class="edge">
<title>Node32&#45;&gt;Node14</title>
<path fill="none" stroke="#191970" d="M449.9807,-504.4862C447.1353,-477.9293 439.0606,-402.5651 435.1606,-366.1655"/>
<polygon fill="#191970" stroke="#191970" points="438.5985,-365.3981 434.053,-355.8279 431.6383,-366.1439 438.5985,-365.3981"/>
</g>
<!-- Node33 -->
<g id="node34" class="node">
<title>Node33</title>
<g id="a_node34"><a xlink:href="../../d9/de5/GPUGeneralKernels_8h.html" target="_top" xlink:title="GPUGeneralKernels.h">
<polygon fill="none" stroke="#000000" points="1328.5,-224.5 1328.5,-243.5 1449.5,-243.5 1449.5,-224.5 1328.5,-224.5"/>
<text text-anchor="middle" x="1389" y="-231.5" font-family="Helvetica,sans-Serif" font-size="10.00" fill="#000000">GPUGeneralKernels.h</text>
</a>
</g>
</g>
<!-- Node32&#45;&gt;Node33 -->
<g id="edge60" class="edge">
<title>Node32&#45;&gt;Node33</title>
<path fill="none" stroke="#191970" d="M484.4449,-504.4087C587.8941,-474.6901 911.8,-381.2534 1179,-300 1238.5754,-281.8836 1307.3853,-260.0918 1349.5407,-246.6422"/>
<polygon fill="#191970" stroke="#191970" points="1350.6856,-249.9508 1359.1469,-243.5746 1348.5561,-243.2826 1350.6856,-249.9508"/>
</g>
<!-- Node35 -->
<g id="node36" class="node">
<title>Node35</title>
<g id="a_node36"><a xlink:href="../../db/df8/GPUConstantMem_8h.html" target="_top" xlink:title="GPUConstantMem.h">
<polygon fill="none" stroke="#000000" points="1332,-448.5 1332,-467.5 1446,-467.5 1446,-448.5 1332,-448.5"/>
<text text-anchor="middle" x="1389" y="-455.5" font-family="Helvetica,sans-Serif" font-size="10.00" fill="#000000">GPUConstantMem.h</text>
</a>
</g>
</g>
<!-- Node32&#45;&gt;Node35 -->
<g id="edge65" class="edge">
<title>Node32&#45;&gt;Node35</title>
<path fill="none" stroke="#191970" d="M530.5113,-510.633C678.653,-504.1311 1006.9182,-488.647 1283,-468 1295.5085,-467.0645 1308.8337,-465.9224 1321.6638,-464.7488"/>
<polygon fill="#191970" stroke="#191970" points="1322.189,-468.2151 1331.822,-463.8042 1321.5408,-461.2452 1322.189,-468.2151"/>
</g>
<!-- Node33&#45;&gt;Node2 -->
<g id="edge61" class="edge">
<title>Node33&#45;&gt;Node2</title>
<path fill="none" stroke="#191970" d="M1328.3308,-225.6618C1276.9172,-217.9462 1201.4829,-205.0908 1137,-188 1081.4432,-173.275 1018.809,-149.862 981.6873,-135.2413"/>
<polygon fill="#191970" stroke="#191970" points="982.9559,-131.9793 972.3699,-131.5449 980.3744,-138.4859 982.9559,-131.9793"/>
</g>
<!-- Node34 -->
<g id="node35" class="node">
<title>Node34</title>
<g id="a_node35"><a xlink:href="../../d4/dc5/GPUDataTypes_8h.html" target="_top" xlink:title="GPUDataTypes.h">
<polygon fill="none" stroke="#000000" points="1470,-168.5 1470,-187.5 1568,-187.5 1568,-168.5 1470,-168.5"/>
<text text-anchor="middle" x="1519" y="-175.5" font-family="Helvetica,sans-Serif" font-size="10.00" fill="#000000">GPUDataTypes.h</text>
</a>
</g>
</g>
<!-- Node33&#45;&gt;Node34 -->
<g id="edge62" class="edge">
<title>Node33&#45;&gt;Node34</title>
<path fill="none" stroke="#191970" d="M1411.3478,-224.3733C1432.4033,-215.3032 1464.1495,-201.6279 1487.7175,-191.4755"/>
<polygon fill="#191970" stroke="#191970" points="1489.1444,-194.6719 1496.9438,-187.5011 1486.375,-188.243 1489.1444,-194.6719"/>
</g>
<!-- Node34&#45;&gt;Node3 -->
<g id="edge63" class="edge">
<title>Node34&#45;&gt;Node3</title>
<path fill="none" stroke="#191970" d="M1512.4979,-168.2774C1502.2496,-153.7385 1480.9208,-126.4951 1456,-112 1419.316,-90.6629 1372.9323,-79.1509 1335.9135,-72.9792"/>
<polygon fill="#191970" stroke="#191970" points="1336.1592,-69.4749 1325.7364,-71.3764 1335.0701,-76.3896 1336.1592,-69.4749"/>
</g>
<!-- Node34&#45;&gt;Node30 -->
<g id="edge64" class="edge">
<title>Node34&#45;&gt;Node30</title>
<path fill="none" stroke="#191970" d="M1485.1345,-168.3733C1449.8393,-158.3401 1394.7206,-142.6718 1358.4818,-132.3704"/>
<polygon fill="#191970" stroke="#191970" points="1359.3693,-128.9842 1348.7934,-129.6164 1357.4553,-135.7174 1359.3693,-128.9842"/>
</g>
<!-- Node35&#45;&gt;Node19 -->
<g id="edge66" class="edge">
<title>Node35&#45;&gt;Node19</title>
<path fill="none" stroke="#191970" d="M1331.7799,-454.2169C1178.4757,-444.081 759.5125,-416.381 602.4957,-405.9997"/>
<polygon fill="#191970" stroke="#191970" points="602.3028,-402.4794 592.0936,-405.312 601.8409,-409.4642 602.3028,-402.4794"/>
</g>
<!-- Node35&#45;&gt;Node24 -->
<g id="edge67" class="edge">
<title>Node35&#45;&gt;Node24</title>
<path fill="none" stroke="#191970" d="M1366.0084,-448.4862C1297.5594,-420.1625 1094.9427,-336.3211 1015.4891,-303.4438"/>
<polygon fill="#191970" stroke="#191970" points="1016.5689,-300.1028 1005.9904,-299.5133 1013.8924,-306.5709 1016.5689,-300.1028"/>
</g>
<!-- Node35&#45;&gt;Node34 -->
<g id="edge68" class="edge">
<title>Node35&#45;&gt;Node34</title>
<path fill="none" stroke="#191970" d="M1415.3145,-448.4947C1452.5136,-433.1657 1516,-399.2099 1516,-346 1516,-346 1516,-346 1516,-290 1516,-257.7 1517.2622,-220.1791 1518.1492,-197.8005"/>
<polygon fill="#191970" stroke="#191970" points="1521.6553,-197.7217 1518.5702,-187.5861 1514.6613,-197.4334 1521.6553,-197.7217"/>
</g>
<!-- Node36 -->
<g id="node37" class="node">
<title>Node36</title>
<g id="a_node37"><a xlink:href="../../d7/d4f/GPUTRDDef_8h.html" target="_top" xlink:title="GPUTRDDef.h">
<polygon fill="none" stroke="#000000" points="1356.5,-392.5 1356.5,-411.5 1439.5,-411.5 1439.5,-392.5 1356.5,-392.5"/>
<text text-anchor="middle" x="1398" y="-399.5" font-family="Helvetica,sans-Serif" font-size="10.00" fill="#000000">GPUTRDDef.h</text>
</a>
</g>
</g>
<!-- Node35&#45;&gt;Node36 -->
<g id="edge69" class="edge">
<title>Node35&#45;&gt;Node36</title>
<path fill="none" stroke="#191970" d="M1390.5677,-448.2455C1391.7421,-440.9382 1393.3884,-430.6944 1394.8332,-421.7046"/>
<polygon fill="#191970" stroke="#191970" points="1398.3191,-422.0714 1396.4503,-411.6427 1391.4078,-420.9606 1398.3191,-422.0714"/>
</g>
<!-- Node37 -->
<g id="node38" class="node">
<title>Node37</title>
<g id="a_node38"><a xlink:href="../../da/d28/GPUO2FakeClasses_8h.html" target="_top" xlink:title="GPUO2FakeClasses.h">
<polygon fill="none" stroke="#000000" points="1544,-224.5 1544,-243.5 1664,-243.5 1664,-224.5 1544,-224.5"/>
<text text-anchor="middle" x="1604" y="-231.5" font-family="Helvetica,sans-Serif" font-size="10.00" fill="#000000">GPUO2FakeClasses.h</text>
</a>
</g>
</g>
<!-- Node35&#45;&gt;Node37 -->
<g id="edge71" class="edge">
<title>Node35&#45;&gt;Node37</title>
<path fill="none" stroke="#191970" d="M1446.1894,-450.7582C1474.3691,-444.5808 1507.1202,-433.1477 1530,-412 1577.0143,-368.5447 1595.0861,-290.6407 1601.218,-254.0366"/>
<polygon fill="#191970" stroke="#191970" points="1604.747,-254.1158 1602.8108,-243.6994 1597.8286,-253.0497 1604.747,-254.1158"/>
</g>
<!-- Node36&#45;&gt;Node3 -->
<g id="edge70" class="edge">
<title>Node36&#45;&gt;Node3</title>
<path fill="none" stroke="#191970" d="M1405.7342,-392.4235C1426.2141,-365.8643 1478.9564,-288.9507 1459,-224 1440.6465,-164.2661 1423.8185,-149.7241 1374,-112 1355.3675,-97.8909 1331.7195,-86.8834 1311.8856,-79.1785"/>
<polygon fill="#191970" stroke="#191970" points="1313.0864,-75.8909 1302.4941,-75.6623 1310.632,-82.4465 1313.0864,-75.8909"/>
</g>
<!-- Node37&#45;&gt;Node3 -->
<g id="edge72" class="edge">
<title>Node37&#45;&gt;Node3</title>
<path fill="none" stroke="#191970" d="M1602.129,-224.4589C1599.0054,-210.6355 1591.5801,-184.8523 1577,-168 1544.9322,-130.9348 1527.6214,-129.9126 1482,-112 1434.5605,-93.3735 1377.98,-81.5299 1335.508,-74.5328"/>
<polygon fill="#191970" stroke="#191970" points="1336.0049,-71.0679 1325.5773,-72.9424 1334.8979,-77.9798 1336.0049,-71.0679"/>
</g>
<!-- Node37&#45;&gt;Node34 -->
<g id="edge73" class="edge">
<title>Node37&#45;&gt;Node34</title>
<path fill="none" stroke="#191970" d="M1589.1941,-224.2455C1576.2744,-215.7337 1557.3069,-203.2375 1542.3448,-193.3801"/>
<polygon fill="#191970" stroke="#191970" points="1543.9124,-190.2216 1533.6362,-187.6427 1540.0613,-196.067 1543.9124,-190.2216"/>
</g>
</g>
</svg>
