<?xml version="1.0" encoding="UTF-8" standalone="no"?>
<!DOCTYPE svg PUBLIC "-//W3C//DTD SVG 1.1//EN"
 "http://www.w3.org/Graphics/SVG/1.1/DTD/svg11.dtd">
<!-- Generated by graphviz version 2.40.1 (20161225.0304)
 -->
<!-- Title: GPUCA_NAMESPACE::gpu::GPUSettingsDeviceProcessing Pages: 1 -->
<svg width="1004pt" height="1013pt"
 viewBox="0.00 0.00 1003.74 1013.00" xmlns="http://www.w3.org/2000/svg" xmlns:xlink="http://www.w3.org/1999/xlink">
<g id="graph0" class="graph" transform="scale(1 1) rotate(0) translate(4 1009)">
<title>GPUCA_NAMESPACE::gpu::GPUSettingsDeviceProcessing</title>
<!-- Node1 -->
<g id="node1" class="node">
<title>Node1</title>
<polygon fill="#bfbfbf" stroke="#000000" points="290.7449,-.5 290.7449,-101.5 472.7449,-101.5 472.7449,-.5 290.7449,-.5"/>
<text text-anchor="start" x="298.7449" y="-89.5" font-family="Helvetica,sans-Serif" font-size="10.00" fill="#000000">GPUCA_NAMESPACE::gpu</text>
<text text-anchor="middle" x="381.7449" y="-78.5" font-family="Helvetica,sans-Serif" font-size="10.00" fill="#000000">::GPUSettingsDeviceProcessing</text>
<polyline fill="none" stroke="#000000" points="290.7449,-71.5 472.7449,-71.5 "/>
<text text-anchor="start" x="298.7449" y="-59.5" font-family="Helvetica,sans-Serif" font-size="10.00" fill="#000000">+ debugLevel</text>
<text text-anchor="start" x="298.7449" y="-48.5" font-family="Helvetica,sans-Serif" font-size="10.00" fill="#000000">+ debugMask</text>
<text text-anchor="start" x="298.7449" y="-37.5" font-family="Helvetica,sans-Serif" font-size="10.00" fill="#000000">+ keepAllMemory</text>
<polyline fill="none" stroke="#000000" points="290.7449,-30.5 472.7449,-30.5 "/>
<text text-anchor="start" x="298.7449" y="-18.5" font-family="Helvetica,sans-Serif" font-size="10.00" fill="#000000">+ GPUSettingsDeviceProcessing()</text>
<text text-anchor="start" x="298.7449" y="-7.5" font-family="Helvetica,sans-Serif" font-size="10.00" fill="#000000">+ SetDefaults()</text>
</g>
<!-- Node2 -->
<g id="node2" class="node">
<title>Node2</title>
<g id="a_node2"><a xlink:href="../../d4/dc3/classfloat.html" target="_top" xlink:title="{float\n||}">
<polygon fill="none" stroke="#000000" points="146.7449,-876 146.7449,-933 184.7449,-933 184.7449,-876 146.7449,-876"/>
<text text-anchor="middle" x="165.7449" y="-921" font-family="Helvetica,sans-Serif" font-size="10.00" fill="#000000">float</text>
<polyline fill="none" stroke="#000000" points="146.7449,-914 184.7449,-914 "/>
<text text-anchor="middle" x="165.7449" y="-902" font-family="Helvetica,sans-Serif" font-size="10.00" fill="#000000"> </text>
<polyline fill="none" stroke="#000000" points="146.7449,-895 184.7449,-895 "/>
<text text-anchor="middle" x="165.7449" y="-883" font-family="Helvetica,sans-Serif" font-size="10.00" fill="#000000"> </text>
</a>
</g>
</g>
<!-- Node2&#45;&gt;Node1 -->
<g id="edge1" class="edge">
<title>Node2&#45;&gt;Node1</title>
<path fill="none" stroke="#404040" d="M149.1143,-875.8169C91.6356,-772.5692 -87.607,-413.1888 52.7449,-171 76.2796,-130.389 191.1064,-95.1131 278.5409,-73.51"/>
<polygon fill="none" stroke="#404040" points="278.7535,-73.4583 283.6364,-68.152 290.4126,-70.6185 285.5296,-75.9248 278.7535,-73.4583"/>
<text text-anchor="middle" x="111.7449" y="-406.5" font-family="Helvetica,sans-Serif" font-size="10.00" fill="#000000"> +memoryScalingFactor</text>
</g>
<!-- Node7 -->
<g id="node7" class="node">
<title>Node7</title>
<g id="a_node7"><a xlink:href="../../d6/d42/classGPUCA__NAMESPACE_1_1gpu_1_1GPUDisplayBackend.html" target="_top" xlink:title="{GPUCA_NAMESPACE::gpu\l::GPUDisplayBackend\n|+ GL_MIN_VERSION_MAJOR\l+ GL_MIN_VERSION_MINOR\l# INIT_WIDTH\l# GL_WINDOW_NAME\l# KEY_LEFT\l# KEY_RIGHT\l# KEY_PAGEUP\l# KEY_PAGEDOWN\l# KEY_SHIFT\l# KEY_ALT\l# KEY_CTRL\l# KEY_F1\l# KEY_F2\l# KEY_F3\l# KEY_F10\l# KEY_F11\l# KEY_F12\l# KEY_HOME\l# KEY_END\l# KEY_INSERT\l# KEY_ESCAPE\l# KEY_ENTER\l|+ GPUDisplayBackend()\l+ ~GPUDisplayBackend()\l+ StartDisplay()\l+ DisplayExit()\l+ SwitchFullscreen()\l+ ToggleMaximized()\l+ SetVSync()\l+ EnableSendKey()\l+ OpenGLPrint()\l# OpenGLMain()\l# HandleKeyRelease()\l# DrawGLScene()\l# HandleSendKey()\l# ReSizeGLScene()\l# InitGL()\l# ExitGL()\l# OpenGLWrapper()\l}">
<polygon fill="none" stroke="#000000" points="613.7449,-171.5 613.7449,-646.5 765.7449,-646.5 765.7449,-171.5 613.7449,-171.5"/>
<text text-anchor="start" x="621.7449" y="-634.5" font-family="Helvetica,sans-Serif" font-size="10.00" fill="#000000">GPUCA_NAMESPACE::gpu</text>
<text text-anchor="middle" x="689.7449" y="-623.5" font-family="Helvetica,sans-Serif" font-size="10.00" fill="#000000">::GPUDisplayBackend</text>
<polyline fill="none" stroke="#000000" points="613.7449,-616.5 765.7449,-616.5 "/>
<text text-anchor="start" x="621.7449" y="-604.5" font-family="Helvetica,sans-Serif" font-size="10.00" fill="#000000">+ GL_MIN_VERSION_MAJOR</text>
<text text-anchor="start" x="621.7449" y="-593.5" font-family="Helvetica,sans-Serif" font-size="10.00" fill="#000000">+ GL_MIN_VERSION_MINOR</text>
<text text-anchor="start" x="621.7449" y="-582.5" font-family="Helvetica,sans-Serif" font-size="10.00" fill="#000000"># INIT_WIDTH</text>
<text text-anchor="start" x="621.7449" y="-571.5" font-family="Helvetica,sans-Serif" font-size="10.00" fill="#000000"># GL_WINDOW_NAME</text>
<text text-anchor="start" x="621.7449" y="-560.5" font-family="Helvetica,sans-Serif" font-size="10.00" fill="#000000"># KEY_LEFT</text>
<text text-anchor="start" x="621.7449" y="-549.5" font-family="Helvetica,sans-Serif" font-size="10.00" fill="#000000"># KEY_RIGHT</text>
<text text-anchor="start" x="621.7449" y="-538.5" font-family="Helvetica,sans-Serif" font-size="10.00" fill="#000000"># KEY_PAGEUP</text>
<text text-anchor="start" x="621.7449" y="-527.5" font-family="Helvetica,sans-Serif" font-size="10.00" fill="#000000"># KEY_PAGEDOWN</text>
<text text-anchor="start" x="621.7449" y="-516.5" font-family="Helvetica,sans-Serif" font-size="10.00" fill="#000000"># KEY_SHIFT</text>
<text text-anchor="start" x="621.7449" y="-505.5" font-family="Helvetica,sans-Serif" font-size="10.00" fill="#000000"># KEY_ALT</text>
<text text-anchor="start" x="621.7449" y="-494.5" font-family="Helvetica,sans-Serif" font-size="10.00" fill="#000000"># KEY_CTRL</text>
<text text-anchor="start" x="621.7449" y="-483.5" font-family="Helvetica,sans-Serif" font-size="10.00" fill="#000000"># KEY_F1</text>
<text text-anchor="start" x="621.7449" y="-472.5" font-family="Helvetica,sans-Serif" font-size="10.00" fill="#000000"># KEY_F2</text>
<text text-anchor="start" x="621.7449" y="-461.5" font-family="Helvetica,sans-Serif" font-size="10.00" fill="#000000"># KEY_F3</text>
<text text-anchor="start" x="621.7449" y="-450.5" font-family="Helvetica,sans-Serif" font-size="10.00" fill="#000000"># KEY_F10</text>
<text text-anchor="start" x="621.7449" y="-439.5" font-family="Helvetica,sans-Serif" font-size="10.00" fill="#000000"># KEY_F11</text>
<text text-anchor="start" x="621.7449" y="-428.5" font-family="Helvetica,sans-Serif" font-size="10.00" fill="#000000"># KEY_F12</text>
<text text-anchor="start" x="621.7449" y="-417.5" font-family="Helvetica,sans-Serif" font-size="10.00" fill="#000000"># KEY_HOME</text>
<text text-anchor="start" x="621.7449" y="-406.5" font-family="Helvetica,sans-Serif" font-size="10.00" fill="#000000"># KEY_END</text>
<text text-anchor="start" x="621.7449" y="-395.5" font-family="Helvetica,sans-Serif" font-size="10.00" fill="#000000"># KEY_INSERT</text>
<text text-anchor="start" x="621.7449" y="-384.5" font-family="Helvetica,sans-Serif" font-size="10.00" fill="#000000"># KEY_ESCAPE</text>
<text text-anchor="start" x="621.7449" y="-373.5" font-family="Helvetica,sans-Serif" font-size="10.00" fill="#000000"># KEY_ENTER</text>
<polyline fill="none" stroke="#000000" points="613.7449,-366.5 765.7449,-366.5 "/>
<text text-anchor="start" x="621.7449" y="-354.5" font-family="Helvetica,sans-Serif" font-size="10.00" fill="#000000">+ GPUDisplayBackend()</text>
<text text-anchor="start" x="621.7449" y="-343.5" font-family="Helvetica,sans-Serif" font-size="10.00" fill="#000000">+ ~GPUDisplayBackend()</text>
<text text-anchor="start" x="621.7449" y="-332.5" font-family="Helvetica,sans-Serif" font-size="10.00" fill="#000000">+ StartDisplay()</text>
<text text-anchor="start" x="621.7449" y="-321.5" font-family="Helvetica,sans-Serif" font-size="10.00" fill="#000000">+ DisplayExit()</text>
<text text-anchor="start" x="621.7449" y="-310.5" font-family="Helvetica,sans-Serif" font-size="10.00" fill="#000000">+ SwitchFullscreen()</text>
<text text-anchor="start" x="621.7449" y="-299.5" font-family="Helvetica,sans-Serif" font-size="10.00" fill="#000000">+ ToggleMaximized()</text>
<text text-anchor="start" x="621.7449" y="-288.5" font-family="Helvetica,sans-Serif" font-size="10.00" fill="#000000">+ SetVSync()</text>
<text text-anchor="start" x="621.7449" y="-277.5" font-family="Helvetica,sans-Serif" font-size="10.00" fill="#000000">+ EnableSendKey()</text>
<text text-anchor="start" x="621.7449" y="-266.5" font-family="Helvetica,sans-Serif" font-size="10.00" fill="#000000">+ OpenGLPrint()</text>
<text text-anchor="start" x="621.7449" y="-255.5" font-family="Helvetica,sans-Serif" font-size="10.00" fill="#000000"># OpenGLMain()</text>
<text text-anchor="start" x="621.7449" y="-244.5" font-family="Helvetica,sans-Serif" font-size="10.00" fill="#000000"># HandleKeyRelease()</text>
<text text-anchor="start" x="621.7449" y="-233.5" font-family="Helvetica,sans-Serif" font-size="10.00" fill="#000000"># DrawGLScene()</text>
<text text-anchor="start" x="621.7449" y="-222.5" font-family="Helvetica,sans-Serif" font-size="10.00" fill="#000000"># HandleSendKey()</text>
<text text-anchor="start" x="621.7449" y="-211.5" font-family="Helvetica,sans-Serif" font-size="10.00" fill="#000000"># ReSizeGLScene()</text>
<text text-anchor="start" x="621.7449" y="-200.5" font-family="Helvetica,sans-Serif" font-size="10.00" fill="#000000"># InitGL()</text>
<text text-anchor="start" x="621.7449" y="-189.5" font-family="Helvetica,sans-Serif" font-size="10.00" fill="#000000"># ExitGL()</text>
<text text-anchor="start" x="621.7449" y="-178.5" font-family="Helvetica,sans-Serif" font-size="10.00" fill="#000000"># OpenGLWrapper()</text>
</a>
</g>
</g>
<!-- Node2&#45;&gt;Node7 -->
<g id="edge7" class="edge">
<title>Node2&#45;&gt;Node7</title>
<path fill="none" stroke="#404040" d="M183.007,-875.6303C216.2448,-823.0431 294.6843,-712.6777 393.7449,-665 435.1509,-645.0714 563.1134,-674.7442 599.7449,-647 601.4396,-645.7164 603.1024,-644.397 604.7339,-643.0436"/>
<polygon fill="none" stroke="#404040" points="604.8232,-642.9632 606.6045,-635.9756 613.7398,-634.9323 611.9585,-641.9199 604.8232,-642.9632"/>
<text text-anchor="middle" x="430.2449" y="-739.5" font-family="Helvetica,sans-Serif" font-size="10.00" fill="#000000"> #mMouseDnX</text>
<text text-anchor="middle" x="430.2449" y="-728.5" font-family="Helvetica,sans-Serif" font-size="10.00" fill="#000000">#mMouseDnY</text>
<text text-anchor="middle" x="430.2449" y="-717.5" font-family="Helvetica,sans-Serif" font-size="10.00" fill="#000000">#mouseMvX</text>
<text text-anchor="middle" x="430.2449" y="-706.5" font-family="Helvetica,sans-Serif" font-size="10.00" fill="#000000">#mouseMvY</text>
</g>
<!-- Node3 -->
<g id="node3" class="node">
<title>Node3</title>
<polygon fill="none" stroke="#bfbfbf" points="179.7449,-380.5 179.7449,-437.5 217.7449,-437.5 217.7449,-380.5 179.7449,-380.5"/>
<text text-anchor="middle" x="198.7449" y="-425.5" font-family="Helvetica,sans-Serif" font-size="10.00" fill="#000000">char</text>
<polyline fill="none" stroke="#bfbfbf" points="179.7449,-418.5 217.7449,-418.5 "/>
<text text-anchor="middle" x="198.7449" y="-406.5" font-family="Helvetica,sans-Serif" font-size="10.00" fill="#000000"> </text>
<polyline fill="none" stroke="#bfbfbf" points="179.7449,-399.5 217.7449,-399.5 "/>
<text text-anchor="middle" x="198.7449" y="-387.5" font-family="Helvetica,sans-Serif" font-size="10.00" fill="#000000"> </text>
</g>
<!-- Node3&#45;&gt;Node1 -->
<g id="edge2" class="edge">
<title>Node3&#45;&gt;Node1</title>
<path fill="none" stroke="#404040" d="M199.4642,-380.2672C199.6038,-334.2279 195.6742,-241.9059 165.7449,-171 161.8037,-161.6628 155.0341,-162.5863 151.7449,-153 146.9851,-139.1272 142.9899,-131.767 151.7449,-120 167.6506,-98.6223 225.0207,-81.3895 278.4791,-69.4925"/>
<polygon fill="none" stroke="#404040" points="278.7933,-69.4246 283.8111,-64.2455 290.5216,-66.8853 285.5039,-72.0644 278.7933,-69.4246"/>
<text text-anchor="middle" x="227.2449" y="-145" font-family="Helvetica,sans-Serif" font-size="10.00" fill="#000000"> +trackletSelectorInPipeline</text>
<text text-anchor="middle" x="227.2449" y="-134" font-family="Helvetica,sans-Serif" font-size="10.00" fill="#000000">+trackletSelectorSlices</text>
<text text-anchor="middle" x="227.2449" y="-123" font-family="Helvetica,sans-Serif" font-size="10.00" fill="#000000">+trackletConstructorInPipeline</text>
</g>
<!-- Node4 -->
<g id="node4" class="node">
<title>Node4</title>
<polygon fill="none" stroke="#bfbfbf" points="293.2449,-380.5 293.2449,-437.5 338.2449,-437.5 338.2449,-380.5 293.2449,-380.5"/>
<text text-anchor="middle" x="315.7449" y="-425.5" font-family="Helvetica,sans-Serif" font-size="10.00" fill="#000000">size_t</text>
<polyline fill="none" stroke="#bfbfbf" points="293.2449,-418.5 338.2449,-418.5 "/>
<text text-anchor="middle" x="315.7449" y="-406.5" font-family="Helvetica,sans-Serif" font-size="10.00" fill="#000000"> </text>
<polyline fill="none" stroke="#bfbfbf" points="293.2449,-399.5 338.2449,-399.5 "/>
<text text-anchor="middle" x="315.7449" y="-387.5" font-family="Helvetica,sans-Serif" font-size="10.00" fill="#000000"> </text>
</g>
<!-- Node4&#45;&gt;Node1 -->
<g id="edge3" class="edge">
<title>Node4&#45;&gt;Node1</title>
<path fill="none" stroke="#404040" d="M309.1246,-380.2033C298.2487,-326.6888 281.1496,-209.2464 316.7449,-120 317.8252,-117.2914 319.0673,-114.6273 320.4437,-112.0143"/>
<polygon fill="none" stroke="#404040" points="320.5543,-111.8324 320.253,-104.6276 326.7877,-101.5784 327.089,-108.7832 320.5543,-111.8324"/>
<text text-anchor="middle" x="375.7449" y="-134" font-family="Helvetica,sans-Serif" font-size="10.00" fill="#000000"> +forceMemoryPoolSize</text>
</g>
<!-- Node5 -->
<g id="node5" class="node">
<title>Node5</title>
<polygon fill="none" stroke="#bfbfbf" points="444.2449,-876 444.2449,-933 473.2449,-933 473.2449,-876 444.2449,-876"/>
<text text-anchor="middle" x="458.7449" y="-921" font-family="Helvetica,sans-Serif" font-size="10.00" fill="#000000">int</text>
<polyline fill="none" stroke="#bfbfbf" points="444.2449,-914 473.2449,-914 "/>
<text text-anchor="middle" x="458.7449" y="-902" font-family="Helvetica,sans-Serif" font-size="10.00" fill="#000000"> </text>
<polyline fill="none" stroke="#bfbfbf" points="444.2449,-895 473.2449,-895 "/>
<text text-anchor="middle" x="458.7449" y="-883" font-family="Helvetica,sans-Serif" font-size="10.00" fill="#000000"> </text>
</g>
<!-- Node5&#45;&gt;Node1 -->
<g id="edge4" class="edge">
<title>Node5&#45;&gt;Node1</title>
<path fill="none" stroke="#404040" d="M458.3602,-875.7443C456.4625,-738.6128 447.669,-156.2143 434.7449,-120 433.8374,-117.457 432.7982,-114.9328 431.6502,-112.437"/>
<polygon fill="none" stroke="#404040" points="431.5891,-112.3211 425.2517,-108.8806 425.9901,-101.7074 432.3275,-105.1479 431.5891,-112.3211"/>
<text text-anchor="middle" x="527.2449" y="-461.5" font-family="Helvetica,sans-Serif" font-size="10.00" fill="#000000"> +platformNum</text>
<text text-anchor="middle" x="527.2449" y="-450.5" font-family="Helvetica,sans-Serif" font-size="10.00" fill="#000000">+nStreams</text>
<text text-anchor="middle" x="527.2449" y="-439.5" font-family="Helvetica,sans-Serif" font-size="10.00" fill="#000000">+memoryAllocationStrategy</text>
<text text-anchor="middle" x="527.2449" y="-428.5" font-family="Helvetica,sans-Serif" font-size="10.00" fill="#000000">+deviceNum</text>
<text text-anchor="middle" x="527.2449" y="-417.5" font-family="Helvetica,sans-Serif" font-size="10.00" fill="#000000">+tpcCompressionGatherMode</text>
<text text-anchor="middle" x="527.2449" y="-406.5" font-family="Helvetica,sans-Serif" font-size="10.00" fill="#000000">+nDeviceHelperThreads</text>
<text text-anchor="middle" x="527.2449" y="-395.5" font-family="Helvetica,sans-Serif" font-size="10.00" fill="#000000">+nThreads</text>
<text text-anchor="middle" x="527.2449" y="-384.5" font-family="Helvetica,sans-Serif" font-size="10.00" fill="#000000">+stuckProtection</text>
<text text-anchor="middle" x="527.2449" y="-373.5" font-family="Helvetica,sans-Serif" font-size="10.00" fill="#000000">+nTPCClustererLanes</text>
<text text-anchor="middle" x="527.2449" y="-362.5" font-family="Helvetica,sans-Serif" font-size="10.00" fill="#000000">+resetTimers</text>
<text text-anchor="middle" x="527.2449" y="-351.5" font-family="Helvetica,sans-Serif" font-size="10.00" fill="#000000">...</text>
</g>
<!-- Node5&#45;&gt;Node7 -->
<g id="edge9" class="edge">
<title>Node5&#45;&gt;Node7</title>
<path fill="none" stroke="#404040" d="M460.8576,-875.5868C465.6354,-818.4788 479.2312,-694.2045 508.7449,-665 538.0507,-636.0013 568.2724,-673.6315 599.7449,-647 601.5786,-645.4484 603.3749,-643.8553 605.1347,-642.2233"/>
<polygon fill="none" stroke="#404040" points="605.1354,-642.2226 606.5598,-635.1535 613.6329,-633.7494 612.2086,-640.8185 605.1354,-642.2226"/>
<text text-anchor="middle" x="554.2449" y="-756" font-family="Helvetica,sans-Serif" font-size="10.00" fill="#000000"> #mMouseWheel</text>
<text text-anchor="middle" x="554.2449" y="-745" font-family="Helvetica,sans-Serif" font-size="10.00" fill="#000000">#mDisplayHeight</text>
<text text-anchor="middle" x="554.2449" y="-734" font-family="Helvetica,sans-Serif" font-size="10.00" fill="#000000">+mSendKey</text>
<text text-anchor="middle" x="554.2449" y="-723" font-family="Helvetica,sans-Serif" font-size="10.00" fill="#000000">#mMaxFPSRate</text>
<text text-anchor="middle" x="554.2449" y="-712" font-family="Helvetica,sans-Serif" font-size="10.00" fill="#000000">+mNeedUpdate</text>
<text text-anchor="middle" x="554.2449" y="-701" font-family="Helvetica,sans-Serif" font-size="10.00" fill="#000000">+mDisplayControl</text>
<text text-anchor="middle" x="554.2449" y="-690" font-family="Helvetica,sans-Serif" font-size="10.00" fill="#000000">#mDisplayWidth</text>
</g>
<!-- Node6 -->
<g id="node6" class="node">
<title>Node6</title>
<polygon fill="none" stroke="#bfbfbf" points="808.7449,-876 808.7449,-933 846.7449,-933 846.7449,-876 808.7449,-876"/>
<text text-anchor="middle" x="827.7449" y="-921" font-family="Helvetica,sans-Serif" font-size="10.00" fill="#000000">bool</text>
<polyline fill="none" stroke="#bfbfbf" points="808.7449,-914 846.7449,-914 "/>
<text text-anchor="middle" x="827.7449" y="-902" font-family="Helvetica,sans-Serif" font-size="10.00" fill="#000000"> </text>
<polyline fill="none" stroke="#bfbfbf" points="808.7449,-895 846.7449,-895 "/>
<text text-anchor="middle" x="827.7449" y="-883" font-family="Helvetica,sans-Serif" font-size="10.00" fill="#000000"> </text>
</g>
<!-- Node6&#45;&gt;Node1 -->
<g id="edge5" class="edge">
<title>Node6&#45;&gt;Node1</title>
<path fill="none" stroke="#404040" d="M837.1841,-875.6651C844.441,-851.9036 853.8609,-817.1674 857.7449,-786 864.3951,-732.635 862.2157,-718.5916 857.7449,-665 839.2364,-443.1377 910.9453,-347.1105 774.7449,-171 739.0775,-124.8811 588.7472,-88.7354 484.7138,-68.6282"/>
<polygon fill="none" stroke="#404040" points="484.6886,-68.6235 478.0454,-71.4286 472.9011,-66.3753 479.5442,-63.5702 484.6886,-68.6235"/>
<text text-anchor="middle" x="927.7449" y="-467" font-family="Helvetica,sans-Serif" font-size="10.00" fill="#000000"> +runCompressionStatistics</text>
<text text-anchor="middle" x="927.7449" y="-456" font-family="Helvetica,sans-Serif" font-size="10.00" fill="#000000">+comparableDebutOutput</text>
<text text-anchor="middle" x="927.7449" y="-445" font-family="Helvetica,sans-Serif" font-size="10.00" fill="#000000">+runMC</text>
<text text-anchor="middle" x="927.7449" y="-434" font-family="Helvetica,sans-Serif" font-size="10.00" fill="#000000">+deviceTimers</text>
<text text-anchor="middle" x="927.7449" y="-423" font-family="Helvetica,sans-Serif" font-size="10.00" fill="#000000">+globalInitMutex</text>
<text text-anchor="middle" x="927.7449" y="-412" font-family="Helvetica,sans-Serif" font-size="10.00" fill="#000000">+mergerSortTracks</text>
<text text-anchor="start" x="859.7449" y="-401" font-family="Helvetica,sans-Serif" font-size="10.00" fill="#000000">+registerStandaloneInput</text>
<text text-anchor="middle" x="927.7449" y="-390" font-family="Helvetica,sans-Serif" font-size="10.00" fill="#000000">Memory</text>
<text text-anchor="middle" x="927.7449" y="-379" font-family="Helvetica,sans-Serif" font-size="10.00" fill="#000000">+fitSlowTracksInOtherPass</text>
<text text-anchor="middle" x="927.7449" y="-368" font-family="Helvetica,sans-Serif" font-size="10.00" fill="#000000">+gpuDeviceOnly</text>
<text text-anchor="middle" x="927.7449" y="-357" font-family="Helvetica,sans-Serif" font-size="10.00" fill="#000000">+runQA</text>
<text text-anchor="middle" x="927.7449" y="-346" font-family="Helvetica,sans-Serif" font-size="10.00" fill="#000000">...</text>
</g>
<!-- Node6&#45;&gt;Node7 -->
<g id="edge10" class="edge">
<title>Node6&#45;&gt;Node7</title>
<path fill="none" stroke="#404040" d="M815.8221,-875.701C806.3528,-851.9602 793.321,-817.2346 784.7449,-786 770.2511,-733.2129 774.2781,-718.2866 761.7449,-665 761.2321,-662.8196 760.7128,-660.6299 760.1876,-658.432"/>
<polygon fill="none" stroke="#404040" points="760.1483,-658.2696 754.8485,-653.3797 757.3239,-646.6068 762.6237,-651.4967 760.1483,-658.2696"/>
<text text-anchor="middle" x="821.2449" y="-739.5" font-family="Helvetica,sans-Serif" font-size="10.00" fill="#000000"> #mMouseDnR</text>
<text text-anchor="middle" x="821.2449" y="-728.5" font-family="Helvetica,sans-Serif" font-size="10.00" fill="#000000">#mMouseDn</text>
<text text-anchor="middle" x="821.2449" y="-717.5" font-family="Helvetica,sans-Serif" font-size="10.00" fill="#000000">#mKeys</text>
<text text-anchor="middle" x="821.2449" y="-706.5" font-family="Helvetica,sans-Serif" font-size="10.00" fill="#000000">#mKeysShift</text>
</g>
<!-- Node7&#45;&gt;Node1 -->
<g id="edge6" class="edge">
<title>Node7&#45;&gt;Node1</title>
<path fill="none" stroke="#404040" d="M613.5553,-188.5687C609.1931,-182.4661 604.5936,-176.5893 599.7449,-171 568.8205,-135.3522 524.5953,-108.2775 484.0505,-88.9502"/>
<polygon fill="none" stroke="#404040" points="483.8913,-88.8764 476.7654,-89.9816 473.0045,-83.8288 480.1304,-82.7237 483.8913,-88.8764"/>
<text text-anchor="middle" x="618.7449" y="-134" font-family="Helvetica,sans-Serif" font-size="10.00" fill="#000000"> +eventDisplay</text>
</g>
<!-- Node8 -->
<g id="node8" class="node">
<title>Node8</title>
<g id="a_node8"><a xlink:href="../../d9/dda/classGPUCA__NAMESPACE_1_1gpu_1_1GPUDisplay.html" target="_top" xlink:title="{GPUCA_NAMESPACE::gpu\l::GPUDisplay\n||+ GPUDisplay()\l+ ~GPUDisplay()\l+ GPUDisplay()\l+ StartDisplay()\l+ ShowNextEvent()\l+ WaitForNextEvent()\l+ SetCollisionFirstCluster()\l+ HandleKeyRelease()\l+ DrawGLScene()\l+ HandleSendKey()\l+ InitGL()\l+ ExitGL()\l+ ReSizeGLScene()\l}">
<polygon fill="none" stroke="#000000" points="511.7449,-804.5 511.7449,-1004.5 659.7449,-1004.5 659.7449,-804.5 511.7449,-804.5"/>
<text text-anchor="start" x="519.7449" y="-992.5" font-family="Helvetica,sans-Serif" font-size="10.00" fill="#000000">GPUCA_NAMESPACE::gpu</text>
<text text-anchor="middle" x="585.7449" y="-981.5" font-family="Helvetica,sans-Serif" font-size="10.00" fill="#000000">::GPUDisplay</text>
<polyline fill="none" stroke="#000000" points="511.7449,-974.5 659.7449,-974.5 "/>
<text text-anchor="middle" x="585.7449" y="-962.5" font-family="Helvetica,sans-Serif" font-size="10.00" fill="#000000"> </text>
<polyline fill="none" stroke="#000000" points="511.7449,-955.5 659.7449,-955.5 "/>
<text text-anchor="start" x="519.7449" y="-943.5" font-family="Helvetica,sans-Serif" font-size="10.00" fill="#000000">+ GPUDisplay()</text>
<text text-anchor="start" x="519.7449" y="-932.5" font-family="Helvetica,sans-Serif" font-size="10.00" fill="#000000">+ ~GPUDisplay()</text>
<text text-anchor="start" x="519.7449" y="-921.5" font-family="Helvetica,sans-Serif" font-size="10.00" fill="#000000">+ GPUDisplay()</text>
<text text-anchor="start" x="519.7449" y="-910.5" font-family="Helvetica,sans-Serif" font-size="10.00" fill="#000000">+ StartDisplay()</text>
<text text-anchor="start" x="519.7449" y="-899.5" font-family="Helvetica,sans-Serif" font-size="10.00" fill="#000000">+ ShowNextEvent()</text>
<text text-anchor="start" x="519.7449" y="-888.5" font-family="Helvetica,sans-Serif" font-size="10.00" fill="#000000">+ WaitForNextEvent()</text>
<text text-anchor="start" x="519.7449" y="-877.5" font-family="Helvetica,sans-Serif" font-size="10.00" fill="#000000">+ SetCollisionFirstCluster()</text>
<text text-anchor="start" x="519.7449" y="-866.5" font-family="Helvetica,sans-Serif" font-size="10.00" fill="#000000">+ HandleKeyRelease()</text>
<text text-anchor="start" x="519.7449" y="-855.5" font-family="Helvetica,sans-Serif" font-size="10.00" fill="#000000">+ DrawGLScene()</text>
<text text-anchor="start" x="519.7449" y="-844.5" font-family="Helvetica,sans-Serif" font-size="10.00" fill="#000000">+ HandleSendKey()</text>
<text text-anchor="start" x="519.7449" y="-833.5" font-family="Helvetica,sans-Serif" font-size="10.00" fill="#000000">+ InitGL()</text>
<text text-anchor="start" x="519.7449" y="-822.5" font-family="Helvetica,sans-Serif" font-size="10.00" fill="#000000">+ ExitGL()</text>
<text text-anchor="start" x="519.7449" y="-811.5" font-family="Helvetica,sans-Serif" font-size="10.00" fill="#000000">+ ReSizeGLScene()</text>
</a>
</g>
</g>
<!-- Node8&#45;&gt;Node7 -->
<g id="edge8" class="edge">
<title>Node8&#45;&gt;Node7</title>
<path fill="none" stroke="#404040" d="M600.6678,-804.2476C607.5409,-761.2316 616.2732,-710.5014 625.7449,-665 626.1979,-662.824 626.6567,-660.6386 627.1209,-658.4448"/>
<polygon fill="none" stroke="#404040" points="627.1362,-658.3731 624.4836,-651.6676 629.653,-646.64 632.3056,-653.3455 627.1362,-658.3731"/>
<text text-anchor="middle" x="654.7449" y="-723" font-family="Helvetica,sans-Serif" font-size="10.00" fill="#000000"> #mDisplay</text>
</g>
<!-- Node9 -->
<g id="node9" class="node">
<title>Node9</title>
<polygon fill="none" stroke="#bfbfbf" points="677.7449,-876 677.7449,-933 721.7449,-933 721.7449,-876 677.7449,-876"/>
<text text-anchor="middle" x="699.7449" y="-921" font-family="Helvetica,sans-Serif" font-size="10.00" fill="#000000">static</text>
<polyline fill="none" stroke="#bfbfbf" points="677.7449,-914 721.7449,-914 "/>
<text text-anchor="middle" x="699.7449" y="-902" font-family="Helvetica,sans-Serif" font-size="10.00" fill="#000000"> </text>
<polyline fill="none" stroke="#bfbfbf" points="677.7449,-895 721.7449,-895 "/>
<text text-anchor="middle" x="699.7449" y="-883" font-family="Helvetica,sans-Serif" font-size="10.00" fill="#000000"> </text>
</g>
<!-- Node9&#45;&gt;Node7 -->
<g id="edge11" class="edge">
<title>Node9&#45;&gt;Node7</title>
<path fill="none" stroke="#404040" d="M696.9743,-875.7995C694.8016,-851.8217 691.9506,-816.7183 690.7449,-786 689.1324,-744.9139 688.251,-701.2899 687.8391,-658.8476"/>
<polygon fill="none" stroke="#404040" points="687.8372,-658.6143 683.7852,-652.6492 687.7329,-646.6147 691.7849,-652.5797 687.8372,-658.6143"/>
<text text-anchor="middle" x="726.2449" y="-778" font-family="Helvetica,sans-Serif" font-size="10.00" fill="#000000"> #KEY_F4</text>
<text text-anchor="middle" x="726.2449" y="-767" font-family="Helvetica,sans-Serif" font-size="10.00" fill="#000000">#KEY_DOWN</text>
<text text-anchor="middle" x="726.2449" y="-756" font-family="Helvetica,sans-Serif" font-size="10.00" fill="#000000">#KEY_UP</text>
<text text-anchor="middle" x="726.2449" y="-745" font-family="Helvetica,sans-Serif" font-size="10.00" fill="#000000">#KEY_F5</text>
<text text-anchor="middle" x="726.2449" y="-734" font-family="Helvetica,sans-Serif" font-size="10.00" fill="#000000">#INIT_HEIGHT</text>
<text text-anchor="middle" x="726.2449" y="-723" font-family="Helvetica,sans-Serif" font-size="10.00" fill="#000000">#KEY_F6</text>
<text text-anchor="middle" x="726.2449" y="-712" font-family="Helvetica,sans-Serif" font-size="10.00" fill="#000000">#KEY_F7</text>
<text text-anchor="middle" x="726.2449" y="-701" font-family="Helvetica,sans-Serif" font-size="10.00" fill="#000000">#KEY_SPACE</text>
<text text-anchor="middle" x="726.2449" y="-690" font-family="Helvetica,sans-Serif" font-size="10.00" fill="#000000">#KEY_F8</text>
<text text-anchor="middle" x="726.2449" y="-679" font-family="Helvetica,sans-Serif" font-size="10.00" fill="#000000">#KEY_F9</text>
<text text-anchor="middle" x="726.2449" y="-668" font-family="Helvetica,sans-Serif" font-size="10.00" fill="#000000">...</text>
</g>
</g>
</svg>
