<?xml version="1.0" encoding="UTF-8" standalone="no"?>
<!DOCTYPE svg PUBLIC "-//W3C//DTD SVG 1.1//EN"
 "http://www.w3.org/Graphics/SVG/1.1/DTD/svg11.dtd">
<!-- Generated by graphviz version 2.40.1 (20161225.0304)
 -->
<!-- Title: /home/travis/build/AliceO2Group/AliceO2/Detectors/FIT/FT0/reconstruction/src/ReadRaw.cxx Pages: 1 -->
<!--zoomable 408 -->
<svg id="main" version="1.1" xmlns="http://www.w3.org/2000/svg" xmlns:xlink="http://www.w3.org/1999/xlink" xml:space="preserve" onload="init(evt)">
<style type="text/css"><![CDATA[
.edge:hover path { stroke: red; }
.edge:hover polygon { stroke: red; fill: red; }
]]></style>
<script type="text/javascript"><![CDATA[
var edges = document.getElementsByTagName('g');
if (edges && edges.length) {
  for (var i=0;i<edges.length;i++) {
    if (edges[i].id.substr(0,4)=='edge') {
      edges[i].setAttribute('class','edge');
    }
  }
}
]]></script>
        <defs>
                <circle id="rim" cx="0" cy="0" r="7"/>
                <circle id="rim2" cx="0" cy="0" r="3.5"/>
                <g id="zoomPlus">
                        <use xlink:href="#rim" fill="#404040">
                                <set attributeName="fill" to="#808080" begin="zoomplus.mouseover" end="zoomplus.mouseout"/>
                        </use>
                        <path d="M-4,0h8M0,-4v8" fill="none" stroke="white" stroke-width="1.5" pointer-events="none"/>
                </g>
                <g id="zoomMin">
                        <use xlink:href="#rim" fill="#404040">
                                <set attributeName="fill" to="#808080" begin="zoomminus.mouseover" end="zoomminus.mouseout"/>
                        </use>
                        <path d="M-4,0h8" fill="none" stroke="white" stroke-width="1.5" pointer-events="none"/>
                </g>
                <g id="dirArrow">
                        <path fill="none" stroke="white" stroke-width="1.5" d="M0,-3.0v7 M-2.5,-0.5L0,-3.0L2.5,-0.5"/>
                </g>
               <g id="resetDef">
                       <use xlink:href="#rim2" fill="#404040">
                               <set attributeName="fill" to="#808080" begin="reset.mouseover" end="reset.mouseout"/>
                       </use>
               </g>
        </defs>

<script type="text/javascript">
var viewWidth = 2015;
var viewHeight = 408;
var sectionId = 'dynsection-0';
</script>
<script xlink:href="../../svgpan.js"/>
<svg id="graph" class="graph">
<g id="viewport">
<title>/home/travis/build/AliceO2Group/AliceO2/Detectors/FIT/FT0/reconstruction/src/ReadRaw.cxx</title>
<!-- Node0 -->
<g id="node1" class="node">
<title>Node0</title>
<polygon fill="#bfbfbf" stroke="#000000" points="1306.5,-347.5 1306.5,-399.5 1483.5,-399.5 1483.5,-347.5 1306.5,-347.5"/>
<text text-anchor="start" x="1314.5" y="-387.5" font-family="Helvetica,sans-Serif" font-size="10.00" fill="#000000">/home/travis/build</text>
<text text-anchor="start" x="1314.5" y="-376.5" font-family="Helvetica,sans-Serif" font-size="10.00" fill="#000000">/AliceO2Group/AliceO2</text>
<text text-anchor="start" x="1314.5" y="-365.5" font-family="Helvetica,sans-Serif" font-size="10.00" fill="#000000">/Detectors/FIT/FT0/reconstruction</text>
<text text-anchor="middle" x="1395" y="-354.5" font-family="Helvetica,sans-Serif" font-size="10.00" fill="#000000">/src/ReadRaw.cxx</text>
</g>
<!-- Node1 -->
<g id="node2" class="node">
<title>Node1</title>
<g id="a_node2"><a xlink:href="../../d4/d78/DataFormats_2Headers_2include_2Headers_2RAWDataHeader_8h.html" target="_top" xlink:title="Headers/RAWDataHeader.h">
<polygon fill="none" stroke="#000000" points="455.5,-179.5 455.5,-198.5 604.5,-198.5 604.5,-179.5 455.5,-179.5"/>
<text text-anchor="middle" x="530" y="-186.5" font-family="Helvetica,sans-Serif" font-size="10.00" fill="#000000">Headers/RAWDataHeader.h</text>
</a>
</g>
</g>
<!-- Node0&#45;&gt;Node1 -->
<g id="edge1" class="edge">
<title>Node0&#45;&gt;Node1</title>
<path fill="none" stroke="#191970" d="M1306.215,-369.8511C1119.2788,-361.6374 697.4651,-340.1159 639,-311 592.3768,-287.7814 556.6182,-235.2263 540.0823,-207.2774"/>
<polygon fill="#191970" stroke="#191970" points="543.0618,-205.4374 535.0487,-198.5062 536.9905,-208.9216 543.0618,-205.4374"/>
</g>
<!-- Node3 -->
<g id="node4" class="node">
<title>Node3</title>
<g id="a_node4"><a xlink:href="../../d9/d80/InteractionRecord_8h.html" target="_top" xlink:title="CommonDataFormat/Interaction\lRecord.h">
<polygon fill="none" stroke="#000000" points="342,-112.5 342,-142.5 516,-142.5 516,-112.5 342,-112.5"/>
<text text-anchor="start" x="350" y="-130.5" font-family="Helvetica,sans-Serif" font-size="10.00" fill="#000000">CommonDataFormat/Interaction</text>
<text text-anchor="middle" x="429" y="-119.5" font-family="Helvetica,sans-Serif" font-size="10.00" fill="#000000">Record.h</text>
</a>
</g>
</g>
<!-- Node0&#45;&gt;Node3 -->
<g id="edge3" class="edge">
<title>Node0&#45;&gt;Node3</title>
<path fill="none" stroke="#191970" d="M1306.3841,-372.3887C1128.0056,-369.1928 731.8376,-356.9832 605,-311 524.0783,-281.663 495.6293,-270.0224 447,-199 437.7218,-185.4494 433.2225,-167.5228 431.0423,-153.0097"/>
<polygon fill="#191970" stroke="#191970" points="434.4707,-152.209 429.7865,-142.7059 427.5221,-153.056 434.4707,-152.209"/>
</g>
<!-- Node7 -->
<g id="node8" class="node">
<title>Node7</title>
<g id="a_node8"><a xlink:href="../../d4/dc6/LHCConstants_8h.html" target="_top" xlink:title="Header to collect LHC related constants. ">
<polygon fill="none" stroke="#000000" points="497,-56.5 497,-75.5 687,-75.5 687,-56.5 497,-56.5"/>
<text text-anchor="middle" x="592" y="-63.5" font-family="Helvetica,sans-Serif" font-size="10.00" fill="#000000">CommonConstants/LHCConstants.h</text>
</a>
</g>
</g>
<!-- Node0&#45;&gt;Node7 -->
<g id="edge76" class="edge">
<title>Node0&#45;&gt;Node7</title>
<path fill="none" stroke="#191970" d="M1483.7734,-365.4422C1571.6824,-356.0614 1698.9286,-338.2792 1740,-311 1769.1631,-291.6301 1783,-280.0097 1783,-245 1783,-245 1783,-245 1783,-189 1783,-64.6429 1636.7406,-131.9858 1514,-112 1158.5017,-54.1144 1061.3361,-100.3858 697.2933,-75.9722"/>
<polygon fill="#191970" stroke="#191970" points="697.4866,-72.4773 687.271,-75.2868 697.0089,-79.461 697.4866,-72.4773"/>
</g>
<!-- Node8 -->
<g id="node9" class="node">
<title>Node8</title>
<g id="a_node9"><a xlink:href="../../d1/dfe/RawEventData_8h.html" target="_top" xlink:title="DataFormatsFT0/RawEventData.h">
<polygon fill="none" stroke="#000000" points="952.5,-235.5 952.5,-254.5 1133.5,-254.5 1133.5,-235.5 952.5,-235.5"/>
<text text-anchor="middle" x="1043" y="-242.5" font-family="Helvetica,sans-Serif" font-size="10.00" fill="#000000">DataFormatsFT0/RawEventData.h</text>
</a>
</g>
</g>
<!-- Node0&#45;&gt;Node8 -->
<g id="edge9" class="edge">
<title>Node0&#45;&gt;Node8</title>
<path fill="none" stroke="#191970" d="M1323.7675,-347.4961C1249.4792,-320.3766 1136.0369,-278.9638 1078.7525,-258.0517"/>
<polygon fill="#191970" stroke="#191970" points="1079.656,-254.6557 1069.0621,-254.5142 1077.2555,-261.2312 1079.656,-254.6557"/>
</g>
<!-- Node9 -->
<g id="node10" class="node">
<title>Node9</title>
<g id="a_node10"><a xlink:href="../../d0/d0a/DataFormats_2Detectors_2FIT_2FT0_2include_2DataFormatsFT0_2Digit_8h.html" target="_top" xlink:title="DataFormatsFT0/Digit.h">
<polygon fill="none" stroke="#000000" points="698,-179.5 698,-198.5 830,-198.5 830,-179.5 698,-179.5"/>
<text text-anchor="middle" x="764" y="-186.5" font-family="Helvetica,sans-Serif" font-size="10.00" fill="#000000">DataFormatsFT0/Digit.h</text>
</a>
</g>
</g>
<!-- Node0&#45;&gt;Node9 -->
<g id="edge61" class="edge">
<title>Node0&#45;&gt;Node9</title>
<path fill="none" stroke="#191970" d="M1306.4451,-372.5775C1119.7315,-369.7109 699.2353,-358.0462 656,-311 633.1441,-286.1295 637.3741,-263.1783 656,-235 666.4302,-219.2206 683.4932,-208.8364 701.0086,-202.0096"/>
<polygon fill="#191970" stroke="#191970" points="702.4826,-205.201 710.7467,-198.5712 700.1519,-198.6004 702.4826,-205.201"/>
</g>
<!-- Node13 -->
<g id="node14" class="node">
<title>Node13</title>
<g id="a_node14"><a xlink:href="../../dc/d44/FIT_2FT0_2include_2DataFormatsFT0_2ChannelData_8h.html" target="_top" xlink:title="DataFormatsFT0/ChannelData.h">
<polygon fill="none" stroke="#000000" points="0,-118 0,-137 172,-137 172,-118 0,-118"/>
<text text-anchor="middle" x="86" y="-125" font-family="Helvetica,sans-Serif" font-size="10.00" fill="#000000">DataFormatsFT0/ChannelData.h</text>
</a>
</g>
</g>
<!-- Node0&#45;&gt;Node13 -->
<g id="edge63" class="edge">
<title>Node0&#45;&gt;Node13</title>
<path fill="none" stroke="#191970" d="M1306.3498,-371.5754C1031.5619,-365.2736 209.6689,-343.7632 163,-311 107.9251,-272.3356 92.0831,-186.2833 87.6556,-147.3333"/>
<polygon fill="#191970" stroke="#191970" points="91.1268,-146.8697 86.6514,-137.2665 84.1614,-147.5646 91.1268,-146.8697"/>
</g>
<!-- Node15 -->
<g id="node16" class="node">
<title>Node15</title>
<polygon fill="none" stroke="#bfbfbf" points="1081,-118 1081,-137 1125,-137 1125,-118 1081,-118"/>
<text text-anchor="middle" x="1103" y="-125" font-family="Helvetica,sans-Serif" font-size="10.00" fill="#000000">bitset</text>
</g>
<!-- Node0&#45;&gt;Node15 -->
<g id="edge70" class="edge">
<title>Node0&#45;&gt;Node15</title>
<path fill="none" stroke="#191970" d="M1306.4618,-371.1528C1146.8046,-364.7794 821.1578,-341.2612 756,-255 718.4829,-205.3318 788.111,-225.3031 839,-199 854.2352,-191.1253 855.9583,-185.0652 872,-179 956.4806,-147.0586 986.2923,-171.4854 1072,-143 1073.6095,-142.4651 1075.2405,-141.86 1076.8685,-141.2068"/>
<polygon fill="#191970" stroke="#191970" points="1078.3168,-144.3931 1085.9935,-137.0911 1075.4388,-138.0121 1078.3168,-144.3931"/>
</g>
<!-- Node16 -->
<g id="node17" class="node">
<title>Node16</title>
<polygon fill="none" stroke="#bfbfbf" points="1183,-118 1183,-137 1243,-137 1243,-118 1183,-118"/>
<text text-anchor="middle" x="1213" y="-125" font-family="Helvetica,sans-Serif" font-size="10.00" fill="#000000">iostream</text>
</g>
<!-- Node0&#45;&gt;Node16 -->
<g id="edge68" class="edge">
<title>Node0&#45;&gt;Node16</title>
<path fill="none" stroke="#191970" d="M1483.5333,-361.7992C1548.5411,-351.4757 1629.5911,-334.4161 1654,-311 1678.9094,-287.1038 1693.2856,-260.4811 1670,-235 1609.9435,-169.2809 1349.567,-240.869 1271,-199 1248.9497,-187.2492 1232.2023,-163.1893 1222.5033,-146.2343"/>
<polygon fill="#191970" stroke="#191970" points="1225.4606,-144.3453 1217.6204,-137.2192 1219.3055,-147.6791 1225.4606,-144.3453"/>
</g>
<!-- Node18 -->
<g id="node19" class="node">
<title>Node18</title>
<polygon fill="none" stroke="#bfbfbf" points="1453,-118 1453,-137 1505,-137 1505,-118 1453,-118"/>
<text text-anchor="middle" x="1479" y="-125" font-family="Helvetica,sans-Serif" font-size="10.00" fill="#000000">cassert</text>
</g>
<!-- Node0&#45;&gt;Node18 -->
<g id="edge66" class="edge">
<title>Node0&#45;&gt;Node18</title>
<path fill="none" stroke="#191970" d="M1483.7515,-368.8706C1569.7479,-362.3075 1691.4002,-346.8137 1721,-311 1742.5187,-284.9638 1739.4087,-263.3206 1721,-235 1675.1013,-164.3876 1570.9689,-139.7867 1515.4506,-131.5051"/>
<polygon fill="#191970" stroke="#191970" points="1515.7378,-128.0114 1505.3507,-130.0993 1514.7727,-134.9446 1515.7378,-128.0114"/>
</g>
<!-- Node20 -->
<g id="node21" class="node">
<title>Node20</title>
<g id="a_node21"><a xlink:href="../../dd/da4/Logger_8h.html" target="_top" xlink:title="Framework/Logger.h">
<polygon fill="none" stroke="#000000" points="1069.5,-179.5 1069.5,-198.5 1184.5,-198.5 1184.5,-179.5 1069.5,-179.5"/>
<text text-anchor="middle" x="1127" y="-186.5" font-family="Helvetica,sans-Serif" font-size="10.00" fill="#000000">Framework/Logger.h</text>
</a>
</g>
</g>
<!-- Node0&#45;&gt;Node20 -->
<g id="edge64" class="edge">
<title>Node0&#45;&gt;Node20</title>
<path fill="none" stroke="#191970" d="M1483.6891,-358.0415C1578.355,-337.8995 1707.4454,-297.6705 1650,-235 1618.8749,-201.0438 1282.8814,-203.0852 1237,-199 1223.3208,-197.782 1208.6864,-196.4629 1194.7017,-195.1945"/>
<polygon fill="#191970" stroke="#191970" points="1194.9321,-191.7011 1184.6565,-194.2821 1194.2989,-198.6724 1194.9321,-191.7011"/>
</g>
<!-- Node22 -->
<g id="node23" class="node">
<title>Node22</title>
<g id="a_node23"><a xlink:href="../../dd/d58/ReadRaw_8h.html" target="_top" xlink:title="read raw data and writes digits ">
<polygon fill="none" stroke="#000000" points="962,-291.5 962,-310.5 1124,-310.5 1124,-291.5 962,-291.5"/>
<text text-anchor="middle" x="1043" y="-298.5" font-family="Helvetica,sans-Serif" font-size="10.00" fill="#000000">FT0Reconstruction/ReadRaw.h</text>
</a>
</g>
</g>
<!-- Node0&#45;&gt;Node22 -->
<g id="edge34" class="edge">
<title>Node0&#45;&gt;Node22</title>
<path fill="none" stroke="#191970" d="M1306.1755,-355.2052C1241.1782,-341.8179 1154.9593,-324.0598 1099.2271,-312.5809"/>
<polygon fill="#191970" stroke="#191970" points="1099.6879,-309.1024 1089.1874,-310.513 1098.2757,-315.9585 1099.6879,-309.1024"/>
</g>
<!-- Node23 -->
<g id="node24" class="node">
<title>Node23</title>
<polygon fill="none" stroke="#bfbfbf" points="1266.5,-235.5 1266.5,-254.5 1349.5,-254.5 1349.5,-235.5 1266.5,-235.5"/>
<text text-anchor="middle" x="1308" y="-242.5" font-family="Helvetica,sans-Serif" font-size="10.00" fill="#000000">TStopwatch.h</text>
</g>
<!-- Node0&#45;&gt;Node23 -->
<g id="edge65" class="edge">
<title>Node0&#45;&gt;Node23</title>
<path fill="none" stroke="#191970" d="M1377.3943,-347.4961C1360.3637,-322.3418 1335.0076,-284.8906 1320.1241,-262.9075"/>
<polygon fill="#191970" stroke="#191970" points="1322.9461,-260.8326 1314.4415,-254.5142 1317.1497,-264.757 1322.9461,-260.8326"/>
</g>
<!-- Node25 -->
<g id="node26" class="node">
<title>Node25</title>
<polygon fill="none" stroke="#bfbfbf" points="1367.5,-235.5 1367.5,-254.5 1422.5,-254.5 1422.5,-235.5 1367.5,-235.5"/>
<text text-anchor="middle" x="1395" y="-242.5" font-family="Helvetica,sans-Serif" font-size="10.00" fill="#000000">fstream</text>
</g>
<!-- Node0&#45;&gt;Node25 -->
<g id="edge67" class="edge">
<title>Node0&#45;&gt;Node25</title>
<path fill="none" stroke="#191970" d="M1395,-347.4961C1395,-323.0156 1395,-286.8881 1395,-264.7068"/>
<polygon fill="#191970" stroke="#191970" points="1398.5001,-264.5141 1395,-254.5142 1391.5001,-264.5142 1398.5001,-264.5141"/>
</g>
<!-- Node28 -->
<g id="node29" class="node">
<title>Node28</title>
<polygon fill="none" stroke="#bfbfbf" points="1440.5,-235.5 1440.5,-254.5 1487.5,-254.5 1487.5,-235.5 1440.5,-235.5"/>
<text text-anchor="middle" x="1464" y="-242.5" font-family="Helvetica,sans-Serif" font-size="10.00" fill="#000000">vector</text>
</g>
<!-- Node0&#45;&gt;Node28 -->
<g id="edge69" class="edge">
<title>Node0&#45;&gt;Node28</title>
<path fill="none" stroke="#191970" d="M1408.9632,-347.4961C1422.3495,-322.5664 1442.2216,-285.5584 1454.0661,-263.5"/>
<polygon fill="#191970" stroke="#191970" points="1457.244,-264.9802 1458.8912,-254.5142 1451.0768,-261.6686 1457.244,-264.9802"/>
</g>
<!-- Node29 -->
<g id="node30" class="node">
<title>Node29</title>
<g id="a_node30"><a xlink:href="../../d5/d65/DigitsTemp_8h.html" target="_top" xlink:title="DataFormatsFT0/DigitsTemp.h">
<polygon fill="none" stroke="#000000" points="266,-235.5 266,-254.5 430,-254.5 430,-235.5 266,-235.5"/>
<text text-anchor="middle" x="348" y="-242.5" font-family="Helvetica,sans-Serif" font-size="10.00" fill="#000000">DataFormatsFT0/DigitsTemp.h</text>
</a>
</g>
</g>
<!-- Node0&#45;&gt;Node29 -->
<g id="edge62" class="edge">
<title>Node0&#45;&gt;Node29</title>
<path fill="none" stroke="#191970" d="M1306.3469,-370.3563C1085.7496,-362.1529 524.1135,-338.7955 444,-311 413.3449,-300.3642 383.4099,-277.1389 365.3315,-261.2803"/>
<polygon fill="#191970" stroke="#191970" points="367.6716,-258.6776 357.8995,-254.5839 362.9859,-263.878 367.6716,-258.6776"/>
</g>
<!-- Node30 -->
<g id="node31" class="node">
<title>Node30</title>
<polygon fill="none" stroke="#bfbfbf" points="1505.5,-235.5 1505.5,-254.5 1570.5,-254.5 1570.5,-235.5 1505.5,-235.5"/>
<text text-anchor="middle" x="1538" y="-242.5" font-family="Helvetica,sans-Serif" font-size="10.00" fill="#000000">TBranch.h</text>
</g>
<!-- Node0&#45;&gt;Node30 -->
<g id="edge75" class="edge">
<title>Node0&#45;&gt;Node30</title>
<path fill="none" stroke="#191970" d="M1423.9382,-347.4961C1452.5557,-321.7803 1495.4756,-283.2125 1519.6839,-261.4589"/>
<polygon fill="#191970" stroke="#191970" points="1522.3135,-263.8014 1527.4123,-254.5142 1517.6347,-258.5947 1522.3135,-263.8014"/>
</g>
<!-- Node31 -->
<g id="node32" class="node">
<title>Node31</title>
<polygon fill="none" stroke="#bfbfbf" points="1589,-235.5 1589,-254.5 1641,-254.5 1641,-235.5 1589,-235.5"/>
<text text-anchor="middle" x="1615" y="-242.5" font-family="Helvetica,sans-Serif" font-size="10.00" fill="#000000">TTree.h</text>
</g>
<!-- Node0&#45;&gt;Node31 -->
<g id="edge74" class="edge">
<title>Node0&#45;&gt;Node31</title>
<path fill="none" stroke="#191970" d="M1439.5203,-347.4961C1484.7008,-321.1066 1553.053,-281.1827 1589.6887,-259.7841"/>
<polygon fill="#191970" stroke="#191970" points="1591.8415,-262.58 1598.7112,-254.5142 1588.3109,-256.5356 1591.8415,-262.58"/>
</g>
<!-- Node32 -->
<g id="node33" class="node">
<title>Node32</title>
<g id="a_node33"><a xlink:href="../../de/da4/Triggers_8h.html" target="_top" xlink:title="Definition of the 32 Central Trigger System (CTS) Trigger Types defined in https://twiki.cern.ch/twiki/pub/ALICE/NoteForFEDevelopers/CTS_CRU_FE_interface.pdf. ">
<polygon fill="none" stroke="#000000" points="172,-291.5 172,-310.5 332,-310.5 332,-291.5 172,-291.5"/>
<text text-anchor="middle" x="252" y="-298.5" font-family="Helvetica,sans-Serif" font-size="10.00" fill="#000000">CommonConstants/Triggers.h</text>
</a>
</g>
</g>
<!-- Node0&#45;&gt;Node32 -->
<g id="edge59" class="edge">
<title>Node0&#45;&gt;Node32</title>
<path fill="none" stroke="#191970" d="M1306.2329,-368.3792C1130.5101,-358.1585 725.916,-334.2101 386,-311 371.8172,-310.0316 356.7938,-308.9576 342.1336,-307.8831"/>
<polygon fill="#191970" stroke="#191970" points="342.2873,-304.385 332.057,-307.1405 341.7727,-311.3661 342.2873,-304.385"/>
</g>
<!-- Node33 -->
<g id="node34" class="node">
<title>Node33</title>
<polygon fill="none" stroke="#bfbfbf" points="1811,-291.5 1811,-310.5 1867,-310.5 1867,-291.5 1811,-291.5"/>
<text text-anchor="middle" x="1839" y="-298.5" font-family="Helvetica,sans-Serif" font-size="10.00" fill="#000000">iomanip</text>
</g>
<!-- Node0&#45;&gt;Node33 -->
<g id="edge71" class="edge">
<title>Node0&#45;&gt;Node33</title>
<path fill="none" stroke="#191970" d="M1483.5783,-361.7915C1565.2685,-350.5052 1689.7501,-332.0704 1797,-311 1798.2411,-310.7562 1799.5012,-310.501 1800.7722,-310.2371"/>
<polygon fill="#191970" stroke="#191970" points="1801.5805,-313.6431 1810.6003,-308.0849 1800.083,-306.8052 1801.5805,-313.6431"/>
</g>
<!-- Node34 -->
<g id="node35" class="node">
<title>Node34</title>
<polygon fill="none" stroke="#bfbfbf" points="1885,-291.5 1885,-310.5 1941,-310.5 1941,-291.5 1885,-291.5"/>
<text text-anchor="middle" x="1913" y="-298.5" font-family="Helvetica,sans-Serif" font-size="10.00" fill="#000000">numeric</text>
</g>
<!-- Node0&#45;&gt;Node34 -->
<g id="edge72" class="edge">
<title>Node0&#45;&gt;Node34</title>
<path fill="none" stroke="#191970" d="M1483.7937,-365.5808C1578.4896,-356.3156 1732.9046,-338.8587 1874.6296,-311.0583"/>
<polygon fill="#191970" stroke="#191970" points="1875.683,-314.4176 1884.8109,-309.0388 1874.321,-307.5514 1875.683,-314.4176"/>
</g>
<!-- Node35 -->
<g id="node36" class="node">
<title>Node35</title>
<polygon fill="none" stroke="#bfbfbf" points="1959,-291.5 1959,-310.5 2007,-310.5 2007,-291.5 1959,-291.5"/>
<text text-anchor="middle" x="1983" y="-298.5" font-family="Helvetica,sans-Serif" font-size="10.00" fill="#000000">TFile.h</text>
</g>
<!-- Node0&#45;&gt;Node35 -->
<g id="edge73" class="edge">
<title>Node0&#45;&gt;Node35</title>
<path fill="none" stroke="#191970" d="M1483.733,-368.5028C1591.8639,-361.2936 1780.0306,-345.1381 1949.1527,-310.8488"/>
<polygon fill="#191970" stroke="#191970" points="1949.8879,-314.2709 1958.9797,-308.8313 1948.4801,-307.4139 1949.8879,-314.2709"/>
</g>
<!-- Node2 -->
<g id="node3" class="node">
<title>Node2</title>
<polygon fill="none" stroke="#bfbfbf" points="258,-56.5 258,-75.5 308,-75.5 308,-56.5 258,-56.5"/>
<text text-anchor="middle" x="283" y="-63.5" font-family="Helvetica,sans-Serif" font-size="10.00" fill="#000000">cstdint</text>
</g>
<!-- Node1&#45;&gt;Node2 -->
<g id="edge2" class="edge">
<title>Node1&#45;&gt;Node2</title>
<path fill="none" stroke="#191970" d="M466.7459,-179.4892C417.6369,-171.1514 354.4144,-158.0351 333,-143 312.39,-128.5297 298.175,-102.5923 290.3117,-84.8533"/>
<polygon fill="#191970" stroke="#191970" points="293.4932,-83.3888 286.4155,-75.5049 287.0319,-86.0818 293.4932,-83.3888"/>
</g>
<!-- Node3&#45;&gt;Node2 -->
<g id="edge7" class="edge">
<title>Node3&#45;&gt;Node2</title>
<path fill="none" stroke="#191970" d="M393.2844,-112.4554C369.3513,-102.374 338.1095,-89.2139 314.9906,-79.4755"/>
<polygon fill="#191970" stroke="#191970" points="316.1993,-76.1868 305.6248,-75.5303 313.4819,-82.6379 316.1993,-76.1868"/>
</g>
<!-- Node4 -->
<g id="node5" class="node">
<title>Node4</title>
<polygon fill="none" stroke="#bfbfbf" points="738.5,-.5 738.5,-19.5 797.5,-19.5 797.5,-.5 738.5,-.5"/>
<text text-anchor="middle" x="768" y="-7.5" font-family="Helvetica,sans-Serif" font-size="10.00" fill="#000000">Rtypes.h</text>
</g>
<!-- Node3&#45;&gt;Node4 -->
<g id="edge4" class="edge">
<title>Node3&#45;&gt;Node4</title>
<path fill="none" stroke="#191970" d="M436.9867,-112.4412C446.6923,-95.7427 464.701,-69.3978 488,-56 528.2328,-32.8646 660.9229,-18.8662 728.1754,-13.0877"/>
<polygon fill="#191970" stroke="#191970" points="728.7109,-16.5551 738.383,-12.2307 728.1252,-9.5797 728.7109,-16.5551"/>
</g>
<!-- Node5 -->
<g id="node6" class="node">
<title>Node5</title>
<polygon fill="none" stroke="#bfbfbf" points="326.5,-56.5 326.5,-75.5 375.5,-75.5 375.5,-56.5 326.5,-56.5"/>
<text text-anchor="middle" x="351" y="-63.5" font-family="Helvetica,sans-Serif" font-size="10.00" fill="#000000">iosfwd</text>
</g>
<!-- Node3&#45;&gt;Node5 -->
<g id="edge5" class="edge">
<title>Node3&#45;&gt;Node5</title>
<path fill="none" stroke="#191970" d="M409.7191,-112.2977C398.1024,-103.1384 383.3182,-91.4816 371.4908,-82.1562"/>
<polygon fill="#191970" stroke="#191970" points="373.5086,-79.2901 363.4888,-75.8469 369.1744,-84.787 373.5086,-79.2901"/>
</g>
<!-- Node6 -->
<g id="node7" class="node">
<title>Node6</title>
<polygon fill="none" stroke="#bfbfbf" points="393.5,-56.5 393.5,-75.5 440.5,-75.5 440.5,-56.5 393.5,-56.5"/>
<text text-anchor="middle" x="417" y="-63.5" font-family="Helvetica,sans-Serif" font-size="10.00" fill="#000000">cmath</text>
</g>
<!-- Node3&#45;&gt;Node6 -->
<g id="edge6" class="edge">
<title>Node3&#45;&gt;Node6</title>
<path fill="none" stroke="#191970" d="M426.0337,-112.2977C424.4721,-104.2945 422.5384,-94.3843 420.8612,-85.7889"/>
<polygon fill="#191970" stroke="#191970" points="424.2718,-84.9915 418.9214,-75.8469 417.4013,-86.3322 424.2718,-84.9915"/>
</g>
<!-- Node3&#45;&gt;Node7 -->
<g id="edge8" class="edge">
<title>Node3&#45;&gt;Node7</title>
<path fill="none" stroke="#191970" d="M468.8743,-112.4554C495.952,-102.239 531.4094,-88.8609 557.3166,-79.0861"/>
<polygon fill="#191970" stroke="#191970" points="558.6201,-82.3352 566.7408,-75.5303 556.149,-75.7858 558.6201,-82.3352"/>
</g>
<!-- Node8&#45;&gt;Node1 -->
<g id="edge23" class="edge">
<title>Node8&#45;&gt;Node1</title>
<path fill="none" stroke="#191970" d="M955.686,-235.4686C860.4794,-225.0757 709.1387,-208.5551 614.8957,-198.2674"/>
<polygon fill="#191970" stroke="#191970" points="615.1475,-194.7741 604.8267,-197.1682 614.3878,-201.7328 615.1475,-194.7741"/>
</g>
<!-- Node8&#45;&gt;Node3 -->
<g id="edge29" class="edge">
<title>Node8&#45;&gt;Node3</title>
<path fill="none" stroke="#191970" d="M959.405,-235.4965C862.9734,-224.3198 714.3713,-206.3585 689,-199 668.757,-193.1289 665.9111,-185.9133 646,-179 605.1984,-164.8334 558.754,-153.2346 519.3309,-144.6555"/>
<polygon fill="#191970" stroke="#191970" points="519.9788,-141.215 509.4671,-142.5398 518.5106,-148.0593 519.9788,-141.215"/>
</g>
<!-- Node8&#45;&gt;Node4 -->
<g id="edge33" class="edge">
<title>Node8&#45;&gt;Node4</title>
<path fill="none" stroke="#191970" d="M1040.306,-235.4801C1037.0091,-221.683 1033.207,-195.9324 1045,-179 1069.3862,-143.9864 1110.1469,-178.379 1134,-143 1141.7021,-131.5762 1142.3327,-122.9724 1134,-112 1094.179,-59.5639 893.8912,-26.8809 807.6242,-15.0308"/>
<polygon fill="#191970" stroke="#191970" points="808.0659,-11.5588 797.6875,-13.689 807.1292,-18.4958 808.0659,-11.5588"/>
</g>
<!-- Node8&#45;&gt;Node9 -->
<g id="edge10" class="edge">
<title>Node8&#45;&gt;Node9</title>
<path fill="none" stroke="#191970" d="M995.3552,-235.4369C947.2053,-225.7724 872.7729,-210.8326 821.4007,-200.5213"/>
<polygon fill="#191970" stroke="#191970" points="821.9415,-197.0601 811.4483,-198.5237 820.5639,-203.9232 821.9415,-197.0601"/>
</g>
<!-- Node8&#45;&gt;Node16 -->
<g id="edge31" class="edge">
<title>Node8&#45;&gt;Node16</title>
<path fill="none" stroke="#191970" d="M1042.943,-235.1189C1043.4007,-220.872 1046.3468,-194.5665 1061,-179 1061.2566,-178.7274 1129.7774,-155.5753 1174.7207,-140.4096"/>
<polygon fill="#191970" stroke="#191970" points="1176.1173,-143.6324 1184.4737,-137.1191 1173.8795,-136.9997 1176.1173,-143.6324"/>
</g>
<!-- Node17 -->
<g id="node18" class="node">
<title>Node17</title>
<g id="a_node18"><a xlink:href="../../df/d27/LookUpTable_8h.html" target="_top" xlink:title="DataFormatsFT0/LookUpTable.h">
<polygon fill="none" stroke="#000000" points="1279.5,-179.5 1279.5,-198.5 1450.5,-198.5 1450.5,-179.5 1279.5,-179.5"/>
<text text-anchor="middle" x="1365" y="-186.5" font-family="Helvetica,sans-Serif" font-size="10.00" fill="#000000">DataFormatsFT0/LookUpTable.h</text>
</a>
</g>
</g>
<!-- Node8&#45;&gt;Node17 -->
<g id="edge24" class="edge">
<title>Node8&#45;&gt;Node17</title>
<path fill="none" stroke="#191970" d="M1097.9879,-235.4369C1154.0219,-225.6918 1240.8966,-210.5832 1300.2293,-200.2645"/>
<polygon fill="#191970" stroke="#191970" points="1300.9865,-203.6854 1310.2389,-198.5237 1299.7871,-196.7889 1300.9865,-203.6854"/>
</g>
<!-- Node8&#45;&gt;Node20 -->
<g id="edge30" class="edge">
<title>Node8&#45;&gt;Node20</title>
<path fill="none" stroke="#191970" d="M1057.6317,-235.2455C1070.3994,-226.7337 1089.1438,-214.2375 1103.9299,-204.3801"/>
<polygon fill="#191970" stroke="#191970" points="1106.1569,-207.1019 1112.536,-198.6427 1102.274,-201.2775 1106.1569,-207.1019"/>
</g>
<!-- Node21 -->
<g id="node22" class="node">
<title>Node21</title>
<polygon fill="none" stroke="#bfbfbf" points="925,-179.5 925,-198.5 975,-198.5 975,-179.5 925,-179.5"/>
<text text-anchor="middle" x="950" y="-186.5" font-family="Helvetica,sans-Serif" font-size="10.00" fill="#000000">cstring</text>
</g>
<!-- Node8&#45;&gt;Node21 -->
<g id="edge32" class="edge">
<title>Node8&#45;&gt;Node21</title>
<path fill="none" stroke="#191970" d="M1026.8006,-235.2455C1012.3982,-226.5731 991.1268,-213.7645 974.6201,-203.825"/>
<polygon fill="#191970" stroke="#191970" points="976.386,-200.8028 966.0137,-198.6427 972.775,-206.7996 976.386,-200.8028"/>
</g>
<!-- Node9&#45;&gt;Node3 -->
<g id="edge11" class="edge">
<title>Node9&#45;&gt;Node3</title>
<path fill="none" stroke="#191970" d="M712.0238,-179.4581C661.103,-170.11 582.4096,-155.6633 520.9151,-144.374"/>
<polygon fill="#191970" stroke="#191970" points="521.2801,-140.8826 510.8125,-142.5193 520.0161,-147.7675 521.2801,-140.8826"/>
</g>
<!-- Node9&#45;&gt;Node4 -->
<g id="edge19" class="edge">
<title>Node9&#45;&gt;Node4</title>
<path fill="none" stroke="#191970" d="M761.7429,-179.0361C758.7817,-163.3517 755.4261,-132.5748 769,-112 788.4834,-82.4678 821.4842,-106.1483 840,-76 853.1413,-54.6028 826.9884,-35.8763 802.6033,-23.8902"/>
<polygon fill="#191970" stroke="#191970" points="803.9741,-20.6679 793.4297,-19.635 801.0285,-27.018 803.9741,-20.6679"/>
</g>
<!-- Node10 -->
<g id="node11" class="node">
<title>Node10</title>
<g id="a_node11"><a xlink:href="../../de/d64/RangeReference_8h.html" target="_top" xlink:title="Class to refer to the 1st entry and N elements of some group in the continuous container. ">
<polygon fill="none" stroke="#000000" points="853,-118 853,-137 1063,-137 1063,-118 853,-118"/>
<text text-anchor="middle" x="958" y="-125" font-family="Helvetica,sans-Serif" font-size="10.00" fill="#000000">CommonDataFormat/RangeReference.h</text>
</a>
</g>
</g>
<!-- Node9&#45;&gt;Node10 -->
<g id="edge12" class="edge">
<title>Node9&#45;&gt;Node10</title>
<path fill="none" stroke="#191970" d="M794.3125,-179.3906C827.6265,-168.8298 881.2808,-151.8208 918.0181,-140.1747"/>
<polygon fill="#191970" stroke="#191970" points="919.4256,-143.4002 927.9004,-137.0419 917.3102,-136.7275 919.4256,-143.4002"/>
</g>
<!-- Node12 -->
<g id="node13" class="node">
<title>Node12</title>
<g id="a_node13"><a xlink:href="../../df/d5d/common_2include_2CommonDataFormat_2TimeStamp_8h.html" target="_top" xlink:title="CommonDataFormat/TimeStamp.h">
<polygon fill="none" stroke="#000000" points="534.5,-118 534.5,-137 721.5,-137 721.5,-118 534.5,-118"/>
<text text-anchor="middle" x="628" y="-125" font-family="Helvetica,sans-Serif" font-size="10.00" fill="#000000">CommonDataFormat/TimeStamp.h</text>
</a>
</g>
</g>
<!-- Node9&#45;&gt;Node12 -->
<g id="edge15" class="edge">
<title>Node9&#45;&gt;Node12</title>
<path fill="none" stroke="#191970" d="M742.75,-179.3906C720.0945,-169.1457 684.0202,-152.8326 658.3709,-141.2339"/>
<polygon fill="#191970" stroke="#191970" points="659.6546,-137.9732 649.1008,-137.0419 656.7703,-144.3514 659.6546,-137.9732"/>
</g>
<!-- Node9&#45;&gt;Node13 -->
<g id="edge17" class="edge">
<title>Node9&#45;&gt;Node13</title>
<path fill="none" stroke="#191970" d="M697.756,-182.9911C577.3166,-172.0663 322.0376,-148.9105 182.3289,-136.2378"/>
<polygon fill="#191970" stroke="#191970" points="182.3366,-132.7242 172.0613,-135.3064 181.7042,-139.6956 182.3366,-132.7242"/>
</g>
<!-- Node14 -->
<g id="node15" class="node">
<title>Node14</title>
<polygon fill="none" stroke="#bfbfbf" points="777.5,-118 777.5,-137 834.5,-137 834.5,-118 777.5,-118"/>
<text text-anchor="middle" x="806" y="-125" font-family="Helvetica,sans-Serif" font-size="10.00" fill="#000000">gsl/span</text>
</g>
<!-- Node9&#45;&gt;Node14 -->
<g id="edge20" class="edge">
<title>Node9&#45;&gt;Node14</title>
<path fill="none" stroke="#191970" d="M770.5625,-179.3906C776.6908,-170.417 785.9985,-156.7879 793.5372,-145.7491"/>
<polygon fill="#191970" stroke="#191970" points="796.5956,-147.4768 799.345,-137.2449 790.815,-143.529 796.5956,-147.4768"/>
</g>
<!-- Node9&#45;&gt;Node15 -->
<g id="edge21" class="edge">
<title>Node9&#45;&gt;Node15</title>
<path fill="none" stroke="#191970" d="M830.2175,-180.2384C913.7983,-169.0043 1049.4449,-150.1245 1072,-143 1073.6568,-142.4767 1075.3342,-141.8742 1077.0065,-141.2171"/>
<polygon fill="#191970" stroke="#191970" points="1078.6575,-144.3126 1086.3497,-137.027 1075.793,-137.9255 1078.6575,-144.3126"/>
</g>
<!-- Node9&#45;&gt;Node16 -->
<g id="edge22" class="edge">
<title>Node9&#45;&gt;Node16</title>
<path fill="none" stroke="#191970" d="M830.0312,-182.2024C904.1962,-174.2397 1028.0575,-159.9574 1134,-143 1146.6151,-140.9808 1160.2932,-138.4275 1172.6669,-135.9788"/>
<polygon fill="#191970" stroke="#191970" points="1173.5885,-139.3637 1182.7021,-133.9607 1172.2083,-132.5011 1173.5885,-139.3637"/>
</g>
<!-- Node11 -->
<g id="node12" class="node">
<title>Node11</title>
<g id="a_node12"><a xlink:href="../../d2/d45/GPUCommonRtypes_8h.html" target="_top" xlink:title="GPUCommonRtypes.h">
<polygon fill="none" stroke="#000000" points="705.5,-56.5 705.5,-75.5 830.5,-75.5 830.5,-56.5 705.5,-56.5"/>
<text text-anchor="middle" x="768" y="-63.5" font-family="Helvetica,sans-Serif" font-size="10.00" fill="#000000">GPUCommonRtypes.h</text>
</a>
</g>
</g>
<!-- Node10&#45;&gt;Node11 -->
<g id="edge13" class="edge">
<title>Node10&#45;&gt;Node11</title>
<path fill="none" stroke="#191970" d="M928.3125,-117.8906C895.6854,-107.3298 843.1374,-90.3208 807.1575,-78.6747"/>
<polygon fill="#191970" stroke="#191970" points="808.0709,-75.2916 797.479,-75.5419 805.9152,-81.9514 808.0709,-75.2916"/>
</g>
<!-- Node11&#45;&gt;Node4 -->
<g id="edge14" class="edge">
<title>Node11&#45;&gt;Node4</title>
<path fill="none" stroke="#191970" d="M768,-56.2455C768,-48.9382 768,-38.6944 768,-29.7046"/>
<polygon fill="#191970" stroke="#191970" points="771.5001,-29.6426 768,-19.6427 764.5001,-29.6427 771.5001,-29.6426"/>
</g>
<!-- Node12&#45;&gt;Node11 -->
<g id="edge16" class="edge">
<title>Node12&#45;&gt;Node11</title>
<path fill="none" stroke="#191970" d="M649.875,-117.8906C673.2996,-107.6005 710.6596,-91.1888 737.0841,-79.5809"/>
<polygon fill="#191970" stroke="#191970" points="738.5307,-82.7683 746.2786,-75.5419 735.7154,-76.3594 738.5307,-82.7683"/>
</g>
<!-- Node13&#45;&gt;Node4 -->
<g id="edge18" class="edge">
<title>Node13&#45;&gt;Node4</title>
<path fill="none" stroke="#191970" d="M99.1911,-117.7491C121.7754,-101.6505 169.8855,-69.9116 216,-56 312.1025,-27.0084 618.5575,-14.7104 728.3734,-11.1592"/>
<polygon fill="#191970" stroke="#191970" points="728.489,-14.6574 738.3732,-10.8426 728.2674,-7.6609 728.489,-14.6574"/>
</g>
<!-- Node17&#45;&gt;Node4 -->
<g id="edge25" class="edge">
<title>Node17&#45;&gt;Node4</title>
<path fill="none" stroke="#191970" d="M1365.4477,-179.3216C1365.6473,-163.1966 1363.6403,-130.7559 1346,-112 1288.8905,-51.2789 1248.5441,-73.2946 1167,-56 1037.1327,-28.4566 879.7479,-16.4391 807.6029,-12.0883"/>
<polygon fill="#191970" stroke="#191970" points="807.7783,-8.5927 797.5904,-11.5011 807.3683,-15.5807 807.7783,-8.5927"/>
</g>
<!-- Node17&#45;&gt;Node16 -->
<g id="edge27" class="edge">
<title>Node17&#45;&gt;Node16</title>
<path fill="none" stroke="#191970" d="M1341.25,-179.3906C1315.7061,-169.0554 1274.8991,-152.5447 1246.189,-140.9284"/>
<polygon fill="#191970" stroke="#191970" points="1247.166,-137.5481 1236.5832,-137.0419 1244.5404,-144.0371 1247.166,-137.5481"/>
</g>
<!-- Node17&#45;&gt;Node18 -->
<g id="edge26" class="edge">
<title>Node17&#45;&gt;Node18</title>
<path fill="none" stroke="#191970" d="M1382.8125,-179.3906C1401.4685,-169.3262 1430.9797,-153.4057 1452.3974,-141.8514"/>
<polygon fill="#191970" stroke="#191970" points="1454.1734,-144.8702 1461.3126,-137.0419 1450.8498,-138.7095 1454.1734,-144.8702"/>
</g>
<!-- Node19 -->
<g id="node20" class="node">
<title>Node19</title>
<polygon fill="none" stroke="#bfbfbf" points="1295.5,-118 1295.5,-137 1336.5,-137 1336.5,-118 1295.5,-118"/>
<text text-anchor="middle" x="1316" y="-125" font-family="Helvetica,sans-Serif" font-size="10.00" fill="#000000">tuple</text>
</g>
<!-- Node17&#45;&gt;Node19 -->
<g id="edge28" class="edge">
<title>Node17&#45;&gt;Node19</title>
<path fill="none" stroke="#191970" d="M1357.3438,-179.3906C1350.0511,-170.2376 1338.8993,-156.2409 1330.0148,-145.09"/>
<polygon fill="#191970" stroke="#191970" points="1332.733,-142.8849 1323.7642,-137.2449 1327.2583,-147.247 1332.733,-142.8849"/>
</g>
<!-- Node22&#45;&gt;Node1 -->
<g id="edge56" class="edge">
<title>Node22&#45;&gt;Node1</title>
<path fill="none" stroke="#191970" d="M961.7782,-297.3269C856.3454,-291.6817 678.6692,-278.9271 618,-255 589.9083,-243.921 562.9457,-221.3479 546.4349,-205.7069"/>
<polygon fill="#191970" stroke="#191970" points="548.8146,-203.1388 539.2101,-198.6661 543.9291,-208.152 548.8146,-203.1388"/>
</g>
<!-- Node22&#45;&gt;Node3 -->
<g id="edge44" class="edge">
<title>Node22&#45;&gt;Node3</title>
<path fill="none" stroke="#191970" d="M961.7171,-293.715C881.3106,-285.73 764.3209,-271.7942 722,-255 694.7225,-244.1755 640.522,-191.5625 614,-179 583.0082,-164.3204 547.0549,-153.123 515.1304,-144.9795"/>
<polygon fill="#191970" stroke="#191970" points="515.9112,-141.5672 505.362,-142.5498 514.2215,-148.3602 515.9112,-141.5672"/>
</g>
<!-- Node22&#45;&gt;Node8 -->
<g id="edge55" class="edge">
<title>Node22&#45;&gt;Node8</title>
<path fill="none" stroke="#191970" d="M1043,-291.2455C1043,-283.9382 1043,-273.6944 1043,-264.7046"/>
<polygon fill="#191970" stroke="#191970" points="1046.5001,-264.6426 1043,-254.6427 1039.5001,-264.6427 1046.5001,-264.6426"/>
</g>
<!-- Node22&#45;&gt;Node9 -->
<g id="edge45" class="edge">
<title>Node22&#45;&gt;Node9</title>
<path fill="none" stroke="#191970" d="M961.7674,-294.4418C874.6984,-286.5707 746.8877,-272.2517 732,-255 719.505,-240.521 732.6847,-220.3148 745.7145,-206.0847"/>
<polygon fill="#191970" stroke="#191970" points="748.2829,-208.4643 752.7738,-198.8683 743.279,-203.5693 748.2829,-208.4643"/>
</g>
<!-- Node22&#45;&gt;Node13 -->
<g id="edge53" class="edge">
<title>Node22&#45;&gt;Node13</title>
<path fill="none" stroke="#191970" d="M961.8411,-298.8888C774.2989,-293.6331 321.8945,-278.6569 257,-255 191.4883,-231.1181 129.8359,-173.3892 101.8081,-144.5249"/>
<polygon fill="#191970" stroke="#191970" points="104.2551,-142.0195 94.8192,-137.2013 99.191,-146.8521 104.2551,-142.0195"/>
</g>
<!-- Node22&#45;&gt;Node15 -->
<g id="edge37" class="edge">
<title>Node22&#45;&gt;Node15</title>
<path fill="none" stroke="#191970" d="M961.8246,-292.9013C884.408,-284.3393 777.7361,-270.0167 765,-255 759.2505,-248.221 759.8127,-242.2183 765,-235 794.2808,-194.2549 825.3226,-217.4052 872,-199 891.9836,-191.1203 895.6553,-185.8939 916,-179 983.3916,-156.1639 1005.0426,-167.0795 1072,-143 1073.4155,-142.4909 1074.8503,-141.9335 1076.2869,-141.3419"/>
<polygon fill="#191970" stroke="#191970" points="1077.9626,-144.4247 1085.613,-137.0951 1075.0616,-138.0541 1077.9626,-144.4247"/>
</g>
<!-- Node22&#45;&gt;Node16 -->
<g id="edge40" class="edge">
<title>Node22&#45;&gt;Node16</title>
<path fill="none" stroke="#191970" d="M1071.3596,-291.4558C1092.3269,-283.5977 1120.945,-271.1353 1143,-255 1170.169,-235.1234 1177.884,-228.5552 1194,-199 1202.8199,-182.8253 1207.721,-162.3294 1210.3258,-147.4325"/>
<polygon fill="#191970" stroke="#191970" points="1213.8238,-147.7147 1211.897,-137.2965 1206.9064,-146.6423 1213.8238,-147.7147"/>
</g>
<!-- Node22&#45;&gt;Node17 -->
<g id="edge54" class="edge">
<title>Node22&#45;&gt;Node17</title>
<path fill="none" stroke="#191970" d="M1072.245,-291.4633C1099.318,-282.4985 1140.6096,-268.4784 1176,-255 1197.5978,-246.7745 1202.3305,-243.0348 1224,-235 1257.2585,-222.6681 1295.5524,-210.2881 1323.8318,-201.4826"/>
<polygon fill="#191970" stroke="#191970" points="1324.8745,-204.8237 1333.3922,-198.523 1322.8044,-198.1368 1324.8745,-204.8237"/>
</g>
<!-- Node22&#45;&gt;Node18 -->
<g id="edge38" class="edge">
<title>Node22&#45;&gt;Node18</title>
<path fill="none" stroke="#191970" d="M1086.1141,-291.4728C1121.0559,-283.2597 1171.3217,-270.3233 1214,-255 1234.2173,-247.7411 1237.488,-241.3788 1258,-235 1345.079,-207.9204 1392.8862,-260.7397 1460,-199 1474.1317,-185.9999 1478.2377,-163.7993 1479.2083,-147.5776"/>
<polygon fill="#191970" stroke="#191970" points="1482.7094,-147.5745 1479.464,-137.489 1475.7117,-147.3971 1482.7094,-147.5745"/>
</g>
<!-- Node22&#45;&gt;Node23 -->
<g id="edge35" class="edge">
<title>Node22&#45;&gt;Node23</title>
<path fill="none" stroke="#191970" d="M1088.254,-291.4369C1134.9014,-281.5793 1207.5195,-266.2336 1256.377,-255.909"/>
<polygon fill="#191970" stroke="#191970" points="1257.3639,-259.2778 1266.4242,-253.7858 1255.9166,-252.4291 1257.3639,-259.2778"/>
</g>
<!-- Node24 -->
<g id="node25" class="node">
<title>Node24</title>
<polygon fill="none" stroke="#bfbfbf" points="774,-235.5 774,-254.5 816,-254.5 816,-235.5 774,-235.5"/>
<text text-anchor="middle" x="795" y="-242.5" font-family="Helvetica,sans-Serif" font-size="10.00" fill="#000000">array</text>
</g>
<!-- Node22&#45;&gt;Node24 -->
<g id="edge36" class="edge">
<title>Node22&#45;&gt;Node24</title>
<path fill="none" stroke="#191970" d="M989.2884,-291.4323C947.1674,-283.5294 886.9343,-271.3514 825.9975,-255.0543"/>
<polygon fill="#191970" stroke="#191970" points="826.7815,-251.6405 816.2142,-252.4033 824.9507,-258.3969 826.7815,-251.6405"/>
</g>
<!-- Node22&#45;&gt;Node25 -->
<g id="edge39" class="edge">
<title>Node22&#45;&gt;Node25</title>
<path fill="none" stroke="#191970" d="M1124.0226,-292.0668C1185.7131,-284.6045 1272.8583,-272.6487 1357.1771,-255.2011"/>
<polygon fill="#191970" stroke="#191970" points="1358.1094,-258.5818 1367.1776,-253.1028 1356.6719,-251.731 1358.1094,-258.5818"/>
</g>
<!-- Node26 -->
<g id="node27" class="node">
<title>Node26</title>
<polygon fill="none" stroke="#bfbfbf" points="834,-235.5 834,-254.5 872,-254.5 872,-235.5 834,-235.5"/>
<text text-anchor="middle" x="853" y="-242.5" font-family="Helvetica,sans-Serif" font-size="10.00" fill="#000000">map</text>
</g>
<!-- Node22&#45;&gt;Node26 -->
<g id="edge41" class="edge">
<title>Node22&#45;&gt;Node26</title>
<path fill="none" stroke="#191970" d="M1006.7625,-291.4498C975.8552,-283.1403 930.0538,-270.4413 881.8843,-255.1473"/>
<polygon fill="#191970" stroke="#191970" points="882.8135,-251.7699 872.2225,-252.0544 880.6794,-258.4366 882.8135,-251.7699"/>
</g>
<!-- Node27 -->
<g id="node28" class="node">
<title>Node27</title>
<polygon fill="none" stroke="#bfbfbf" points="890,-235.5 890,-254.5 934,-254.5 934,-235.5 890,-235.5"/>
<text text-anchor="middle" x="912" y="-242.5" font-family="Helvetica,sans-Serif" font-size="10.00" fill="#000000">string</text>
</g>
<!-- Node22&#45;&gt;Node27 -->
<g id="edge42" class="edge">
<title>Node22&#45;&gt;Node27</title>
<path fill="none" stroke="#191970" d="M1020.4803,-291.3733C999.2628,-282.3032 967.2724,-268.6279 943.5231,-258.4755"/>
<polygon fill="#191970" stroke="#191970" points="944.7967,-255.2136 934.2258,-254.5011 942.0452,-261.6502 944.7967,-255.2136"/>
</g>
<!-- Node22&#45;&gt;Node28 -->
<g id="edge43" class="edge">
<title>Node22&#45;&gt;Node28</title>
<path fill="none" stroke="#191970" d="M1124.1757,-295.7988C1201.0491,-289.8739 1319.7177,-278.1431 1430.3689,-255.0447"/>
<polygon fill="#191970" stroke="#191970" points="1431.3095,-258.4231 1440.3643,-252.9221 1429.8554,-251.5758 1431.3095,-258.4231"/>
</g>
<!-- Node22&#45;&gt;Node29 -->
<g id="edge46" class="edge">
<title>Node22&#45;&gt;Node29</title>
<path fill="none" stroke="#191970" d="M961.9145,-294.4665C831.7887,-283.9815 577.1036,-263.4601 440.2331,-252.4317"/>
<polygon fill="#191970" stroke="#191970" points="440.4315,-248.9365 430.1827,-251.6219 439.8692,-255.9138 440.4315,-248.9365"/>
</g>
<!-- Node22&#45;&gt;Node30 -->
<g id="edge57" class="edge">
<title>Node22&#45;&gt;Node30</title>
<path fill="none" stroke="#191970" d="M1124.2373,-296.168C1213.2052,-290.1084 1360.1902,-277.8468 1495.292,-255.1061"/>
<polygon fill="#191970" stroke="#191970" points="1496.1428,-258.5116 1505.4114,-253.3791 1494.9651,-251.6113 1496.1428,-258.5116"/>
</g>
<!-- Node22&#45;&gt;Node31 -->
<g id="edge58" class="edge">
<title>Node22&#45;&gt;Node31</title>
<path fill="none" stroke="#191970" d="M1124.1613,-298.9125C1227.8203,-295.1605 1412.7045,-284.821 1578.8498,-254.8976"/>
<polygon fill="#191970" stroke="#191970" points="1579.5486,-258.328 1588.7557,-253.086 1578.2892,-251.4422 1579.5486,-258.328"/>
</g>
<!-- Node29&#45;&gt;Node3 -->
<g id="edge47" class="edge">
<title>Node29&#45;&gt;Node3</title>
<path fill="none" stroke="#191970" d="M350.7276,-235.4434C354.8345,-222.0474 363.4812,-197.2795 376,-179 383.3628,-168.2492 393.2254,-157.9229 402.4454,-149.3764"/>
<polygon fill="#191970" stroke="#191970" points="404.8501,-151.9213 409.9701,-142.6457 400.1833,-146.7039 404.8501,-151.9213"/>
</g>
<!-- Node29&#45;&gt;Node4 -->
<g id="edge52" class="edge">
<title>Node29&#45;&gt;Node4</title>
<path fill="none" stroke="#191970" d="M335.5329,-235.3031C298.6677,-205.5269 195.9802,-113.9269 249,-56 281.1668,-20.8561 611.8748,-12.4023 727.9755,-10.5103"/>
<polygon fill="#191970" stroke="#191970" points="728.2614,-14.0064 738.2059,-10.3517 728.1528,-7.0073 728.2614,-14.0064"/>
</g>
<!-- Node29&#45;&gt;Node5 -->
<g id="edge51" class="edge">
<title>Node29&#45;&gt;Node5</title>
<path fill="none" stroke="#191970" d="M344.9237,-235.2474C338.3854,-213.1563 324.3832,-157.6675 333,-112 334.7441,-102.7566 338.2981,-92.9893 341.7909,-84.844"/>
<polygon fill="#191970" stroke="#191970" points="345.0628,-86.1052 346.0415,-75.5556 338.6976,-83.1923 345.0628,-86.1052"/>
</g>
<!-- Node29&#45;&gt;Node9 -->
<g id="edge49" class="edge">
<title>Node29&#45;&gt;Node9</title>
<path fill="none" stroke="#191970" d="M419.0403,-235.4369C493.773,-225.3767 610.9683,-209.6004 687.6433,-199.2788"/>
<polygon fill="#191970" stroke="#191970" points="688.2748,-202.7254 697.7185,-197.9225 687.3409,-195.788 688.2748,-202.7254"/>
</g>
<!-- Node29&#45;&gt;Node12 -->
<g id="edge48" class="edge">
<title>Node29&#45;&gt;Node12</title>
<path fill="none" stroke="#191970" d="M359.7724,-235.3609C377.6212,-221.1774 413.0555,-194.6747 447,-179 486.177,-160.909 533.1098,-147.7766 569.3663,-139.302"/>
<polygon fill="#191970" stroke="#191970" points="570.3242,-142.6734 579.294,-137.035 568.7658,-135.8491 570.3242,-142.6734"/>
</g>
<!-- Node29&#45;&gt;Node13 -->
<g id="edge50" class="edge">
<title>Node29&#45;&gt;Node13</title>
<path fill="none" stroke="#191970" d="M326.5594,-235.3845C280.1933,-214.5905 170.4579,-165.3771 116.7232,-141.2785"/>
<polygon fill="#191970" stroke="#191970" points="117.926,-137.9822 107.3694,-137.0836 115.0616,-144.3693 117.926,-137.9822"/>
</g>
<!-- Node32&#45;&gt;Node2 -->
<g id="edge60" class="edge">
<title>Node32&#45;&gt;Node2</title>
<path fill="none" stroke="#191970" d="M252.5095,-291.1376C253.2314,-278.2161 254.7229,-254.8645 257,-235 263.2025,-180.8908 273.8688,-117.5367 279.415,-85.9807"/>
<polygon fill="#191970" stroke="#191970" points="282.9081,-86.3271 281.209,-75.8695 276.0158,-85.1042 282.9081,-86.3271"/>
</g>
</g>
</svg>
        <g id="navigator" transform="translate(0 0)" fill="#404254">
                <rect fill="#f2f5e9" fill-opacity="0.5" stroke="#606060" stroke-width=".5" x="0" y="0" width="60" height="60"/>
                <use id="zoomplus" xlink:href="#zoomPlus" x="17" y="9" onmousedown="handleZoom(evt,'in')"/>
                <use id="zoomminus" xlink:href="#zoomMin" x="42" y="9" onmousedown="handleZoom(evt,'out')"/>
                <use id="reset" xlink:href="#resetDef" x="30" y="36" onmousedown="handleReset()"/>
                <g id="arrowUp" xlink:href="#dirArrow" transform="translate(30 24)" onmousedown="handlePan(0,-1)">
                  <use xlink:href="#rim" fill="#404040">
                        <set attributeName="fill" to="#808080" begin="arrowUp.mouseover" end="arrowUp.mouseout"/>
                  </use>
                  <path fill="none" stroke="white" stroke-width="1.5" d="M0,-3.0v7 M-2.5,-0.5L0,-3.0L2.5,-0.5"/>
                </g>
                <g id="arrowRight" xlink:href="#dirArrow" transform="rotate(90) translate(36 -43)" onmousedown="handlePan(1,0)">
                  <use xlink:href="#rim" fill="#404040">
                        <set attributeName="fill" to="#808080" begin="arrowRight.mouseover" end="arrowRight.mouseout"/>
                  </use>
                  <path fill="none" stroke="white" stroke-width="1.5" d="M0,-3.0v7 M-2.5,-0.5L0,-3.0L2.5,-0.5"/>
                </g>
                <g id="arrowDown" xlink:href="#dirArrow" transform="rotate(180) translate(-30 -48)" onmousedown="handlePan(0,1)">
                  <use xlink:href="#rim" fill="#404040">
                        <set attributeName="fill" to="#808080" begin="arrowDown.mouseover" end="arrowDown.mouseout"/>
                  </use>
                  <path fill="none" stroke="white" stroke-width="1.5" d="M0,-3.0v7 M-2.5,-0.5L0,-3.0L2.5,-0.5"/>
                </g>
                <g id="arrowLeft" xlink:href="#dirArrow" transform="rotate(270) translate(-36 17)" onmousedown="handlePan(-1,0)">
                  <use xlink:href="#rim" fill="#404040">
                        <set attributeName="fill" to="#808080" begin="arrowLeft.mouseover" end="arrowLeft.mouseout"/>
                  </use>
                  <path fill="none" stroke="white" stroke-width="1.5" d="M0,-3.0v7 M-2.5,-0.5L0,-3.0L2.5,-0.5"/>
                </g>
        </g>
        <svg viewBox="0 0 15 15" width="100%" height="30px" preserveAspectRatio="xMaxYMin meet">
         <g id="arrow_out" transform="scale(0.3 0.3)">
          <a xlink:href="ReadRaw_8cxx__incl_org.svg" target="_base">
           <rect id="button" ry="5" rx="5" y="6" x="6" height="38" width="38"
                fill="#f2f5e9" fill-opacity="0.5" stroke="#606060" stroke-width="1.0"/>
           <path id="arrow"
             d="M 11.500037,31.436501 C 11.940474,20.09759 22.043105,11.32322 32.158766,21.979434 L 37.068811,17.246167 C 37.068811,17.246167 37.088388,32 37.088388,32 L 22.160133,31.978069 C 22.160133,31.978069 26.997745,27.140456 26.997745,27.140456 C 18.528582,18.264221 13.291696,25.230495 11.500037,31.436501 z"
             style="fill:#404040;"/>
          </a>
         </g>
        </svg>
</svg>
