<?xml version="1.0" encoding="UTF-8" standalone="no"?>
<!DOCTYPE svg PUBLIC "-//W3C//DTD SVG 1.1//EN"
 "http://www.w3.org/Graphics/SVG/1.1/DTD/svg11.dtd">
<!-- Generated by graphviz version 2.40.1 (20161225.0304)
 -->
<!-- Title: /home/travis/build/AliceO2Group/AliceO2/Detectors/ITSMFT/common/reconstruction/include/ITSMFTReconstruction/PixelReader.h Pages: 1 -->
<svg width="1294pt" height="262pt"
 viewBox="0.00 0.00 1293.50 262.00" xmlns="http://www.w3.org/2000/svg" xmlns:xlink="http://www.w3.org/1999/xlink">
<g id="graph0" class="graph" transform="scale(1 1) rotate(0) translate(4 258)">
<title>/home/travis/build/AliceO2Group/AliceO2/Detectors/ITSMFT/common/reconstruction/include/ITSMFTReconstruction/PixelReader.h</title>
<!-- Node0 -->
<g id="node1" class="node">
<title>Node0</title>
<polygon fill="#bfbfbf" stroke="#000000" points="476,-190.5 476,-253.5 671,-253.5 671,-190.5 476,-190.5"/>
<text text-anchor="start" x="484" y="-241.5" font-family="Helvetica,sans-Serif" font-size="10.00" fill="#000000">/home/travis/build</text>
<text text-anchor="start" x="484" y="-230.5" font-family="Helvetica,sans-Serif" font-size="10.00" fill="#000000">/AliceO2Group/AliceO2</text>
<text text-anchor="start" x="484" y="-219.5" font-family="Helvetica,sans-Serif" font-size="10.00" fill="#000000">/Detectors/ITSMFT/common</text>
<text text-anchor="start" x="484" y="-208.5" font-family="Helvetica,sans-Serif" font-size="10.00" fill="#000000">/reconstruction/include</text>
<text text-anchor="middle" x="573.5" y="-197.5" font-family="Helvetica,sans-Serif" font-size="10.00" fill="#000000">/ITSMFTReconstruction/PixelReader.h</text>
</g>
<!-- Node1 -->
<g id="node2" class="node">
<title>Node1</title>
<polygon fill="none" stroke="#bfbfbf" points="341,-.5 341,-19.5 400,-19.5 400,-.5 341,-.5"/>
<text text-anchor="middle" x="370.5" y="-7.5" font-family="Helvetica,sans-Serif" font-size="10.00" fill="#000000">Rtypes.h</text>
</g>
<!-- Node0&#45;&gt;Node1 -->
<g id="edge1" class="edge">
<title>Node0&#45;&gt;Node1</title>
<path fill="none" stroke="#191970" d="M475.818,-195.5598C421.6092,-175.3405 358.7818,-141.4327 326.5,-87 319.472,-75.1495 321.3692,-68.7868 326.5,-56 331.1633,-44.3782 340.3188,-34.0324 349.0762,-26.1099"/>
<polygon fill="#191970" stroke="#191970" points="351.4727,-28.6675 356.8664,-19.5484 346.9632,-23.3136 351.4727,-28.6675"/>
</g>
<!-- Node2 -->
<g id="node3" class="node">
<title>Node2</title>
<g id="a_node3"><a xlink:href="../../da/d8d/PixelData_8h.html" target="_top" xlink:title="Transient data classes for single pixel and set of pixels from current chip. ">
<polygon fill="none" stroke="#000000" points="467,-123.5 467,-153.5 590,-153.5 590,-123.5 467,-123.5"/>
<text text-anchor="start" x="475" y="-141.5" font-family="Helvetica,sans-Serif" font-size="10.00" fill="#000000">ITSMFTReconstruction</text>
<text text-anchor="middle" x="528.5" y="-130.5" font-family="Helvetica,sans-Serif" font-size="10.00" fill="#000000">/PixelData.h</text>
</a>
</g>
</g>
<!-- Node0&#45;&gt;Node2 -->
<g id="edge2" class="edge">
<title>Node0&#45;&gt;Node2</title>
<path fill="none" stroke="#191970" d="M556.4874,-190.4322C551.5158,-181.2072 546.1636,-171.2757 541.4844,-162.5932"/>
<polygon fill="#191970" stroke="#191970" points="544.5462,-160.897 536.721,-153.7545 538.3841,-164.218 544.5462,-160.897"/>
</g>
<!-- Node5 -->
<g id="node6" class="node">
<title>Node5</title>
<g id="a_node6"><a xlink:href="../../d9/d80/InteractionRecord_8h.html" target="_top" xlink:title="CommonDataFormat/Interaction\lRecord.h">
<polygon fill="none" stroke="#000000" points="106.5,-56.5 106.5,-86.5 280.5,-86.5 280.5,-56.5 106.5,-56.5"/>
<text text-anchor="start" x="114.5" y="-74.5" font-family="Helvetica,sans-Serif" font-size="10.00" fill="#000000">CommonDataFormat/Interaction</text>
<text text-anchor="middle" x="193.5" y="-63.5" font-family="Helvetica,sans-Serif" font-size="10.00" fill="#000000">Record.h</text>
</a>
</g>
</g>
<!-- Node0&#45;&gt;Node5 -->
<g id="edge28" class="edge">
<title>Node0&#45;&gt;Node5</title>
<path fill="none" stroke="#191970" d="M475.8672,-209.1588C420.558,-199.2448 351.2902,-182.2778 294.5,-154 263.8614,-138.744 234.1884,-112.7374 215.0245,-93.9968"/>
<polygon fill="#191970" stroke="#191970" points="217.2768,-91.2997 207.7269,-86.7117 212.3312,-96.2537 217.2768,-91.2997"/>
</g>
<!-- Node10 -->
<g id="node11" class="node">
<title>Node10</title>
<polygon fill="none" stroke="#bfbfbf" points="605,-62 605,-81 652,-81 652,-62 605,-62"/>
<text text-anchor="middle" x="628.5" y="-69" font-family="Helvetica,sans-Serif" font-size="10.00" fill="#000000">vector</text>
</g>
<!-- Node0&#45;&gt;Node10 -->
<g id="edge29" class="edge">
<title>Node0&#45;&gt;Node10</title>
<path fill="none" stroke="#191970" d="M585.8482,-190.2404C590.2274,-178.8374 595.1469,-165.8658 599.5,-154 607.3923,-132.4866 616.0592,-107.6625 621.8437,-90.9103"/>
<polygon fill="#191970" stroke="#191970" points="625.2466,-91.778 625.1917,-81.1833 618.6276,-89.4998 625.2466,-91.778"/>
</g>
<!-- Node12 -->
<g id="node13" class="node">
<title>Node12</title>
<g id="a_node13"><a xlink:href="../../d7/dcd/MCCompLabel_8h.html" target="_top" xlink:title="SimulationDataFormat\l/MCCompLabel.h">
<polygon fill="none" stroke="#000000" points="663,-123.5 663,-153.5 790,-153.5 790,-123.5 663,-123.5"/>
<text text-anchor="start" x="671" y="-141.5" font-family="Helvetica,sans-Serif" font-size="10.00" fill="#000000">SimulationDataFormat</text>
<text text-anchor="middle" x="726.5" y="-130.5" font-family="Helvetica,sans-Serif" font-size="10.00" fill="#000000">/MCCompLabel.h</text>
</a>
</g>
</g>
<!-- Node0&#45;&gt;Node12 -->
<g id="edge15" class="edge">
<title>Node0&#45;&gt;Node12</title>
<path fill="none" stroke="#191970" d="M631.3427,-190.4322C651.0876,-179.6564 672.5985,-167.9168 690.1652,-158.3298"/>
<polygon fill="#191970" stroke="#191970" points="691.8605,-161.3919 698.9617,-153.5291 688.5071,-155.2474 691.8605,-161.3919"/>
</g>
<!-- Node14 -->
<g id="node15" class="node">
<title>Node14</title>
<g id="a_node15"><a xlink:href="../../db/d14/MCTruthContainer_8h.html" target="_top" xlink:title="Definition of a container to keep Monte Carlo truth external to simulation objects. ">
<polygon fill="none" stroke="#000000" points="820,-123.5 820,-153.5 947,-153.5 947,-123.5 820,-123.5"/>
<text text-anchor="start" x="828" y="-141.5" font-family="Helvetica,sans-Serif" font-size="10.00" fill="#000000">SimulationDataFormat</text>
<text text-anchor="middle" x="883.5" y="-130.5" font-family="Helvetica,sans-Serif" font-size="10.00" fill="#000000">/MCTruthContainer.h</text>
</a>
</g>
</g>
<!-- Node0&#45;&gt;Node14 -->
<g id="edge18" class="edge">
<title>Node0&#45;&gt;Node14</title>
<path fill="none" stroke="#191970" d="M671.1604,-195.6947C718.9088,-182.8334 775.108,-167.6959 817.6922,-156.2257"/>
<polygon fill="#191970" stroke="#191970" points="818.6397,-159.5953 827.3852,-153.6148 816.819,-152.8362 818.6397,-159.5953"/>
</g>
<!-- Node3 -->
<g id="node4" class="node">
<title>Node3</title>
<g id="a_node4"><a xlink:href="../../d3/d1e/DataFormats_2Detectors_2ITSMFT_2common_2include_2DataFormatsITSMFT_2Digit_8h.html" target="_top" xlink:title="DataFormatsITSMFT/Digit.h">
<polygon fill="none" stroke="#000000" points="336,-62 336,-81 485,-81 485,-62 336,-62"/>
<text text-anchor="middle" x="410.5" y="-69" font-family="Helvetica,sans-Serif" font-size="10.00" fill="#000000">DataFormatsITSMFT/Digit.h</text>
</a>
</g>
</g>
<!-- Node2&#45;&gt;Node3 -->
<g id="edge3" class="edge">
<title>Node2&#45;&gt;Node3</title>
<path fill="none" stroke="#191970" d="M502.0185,-123.4639C482.398,-112.3234 455.8,-97.2212 436.3351,-86.1691"/>
<polygon fill="#191970" stroke="#191970" points="437.8385,-82.9979 427.4144,-81.1039 434.3822,-89.0851 437.8385,-82.9979"/>
</g>
<!-- Node2&#45;&gt;Node5 -->
<g id="edge6" class="edge">
<title>Node2&#45;&gt;Node5</title>
<path fill="none" stroke="#191970" d="M466.6654,-126.1331C413.8548,-115.571 337.3581,-100.2716 278.7408,-88.5482"/>
<polygon fill="#191970" stroke="#191970" points="279.2474,-85.0802 268.7551,-86.551 277.8745,-91.9443 279.2474,-85.0802"/>
</g>
<!-- Node8 -->
<g id="node9" class="node">
<title>Node8</title>
<polygon fill="none" stroke="#bfbfbf" points="551.5,-.5 551.5,-19.5 601.5,-19.5 601.5,-.5 551.5,-.5"/>
<text text-anchor="middle" x="576.5" y="-7.5" font-family="Helvetica,sans-Serif" font-size="10.00" fill="#000000">cstdint</text>
</g>
<!-- Node2&#45;&gt;Node8 -->
<g id="edge14" class="edge">
<title>Node2&#45;&gt;Node8</title>
<path fill="none" stroke="#191970" d="M538.5291,-123.2682C544.7252,-113.2934 552.4333,-99.7823 557.5,-87 564.9307,-68.2538 570.0777,-45.7559 573.1221,-29.9341"/>
<polygon fill="#191970" stroke="#191970" points="576.6297,-30.2064 574.9698,-19.7424 569.742,-28.9576 576.6297,-30.2064"/>
</g>
<!-- Node2&#45;&gt;Node10 -->
<g id="edge12" class="edge">
<title>Node2&#45;&gt;Node10</title>
<path fill="none" stroke="#191970" d="M551.1915,-123.2967C567.5283,-112.351 589.4759,-97.6462 605.8119,-86.701"/>
<polygon fill="#191970" stroke="#191970" points="607.8793,-89.5289 614.2388,-81.055 603.983,-83.7135 607.8793,-89.5289"/>
</g>
<!-- Node11 -->
<g id="node12" class="node">
<title>Node11</title>
<polygon fill="none" stroke="#bfbfbf" points="503,-62 503,-81 548,-81 548,-62 503,-62"/>
<text text-anchor="middle" x="525.5" y="-69" font-family="Helvetica,sans-Serif" font-size="10.00" fill="#000000">utility</text>
</g>
<!-- Node2&#45;&gt;Node11 -->
<g id="edge13" class="edge">
<title>Node2&#45;&gt;Node11</title>
<path fill="none" stroke="#191970" d="M527.8193,-123.2967C527.3927,-113.7699 526.8386,-101.3954 526.379,-91.1306"/>
<polygon fill="#191970" stroke="#191970" points="529.8717,-90.8884 525.9278,-81.055 522.8787,-91.2016 529.8717,-90.8884"/>
</g>
<!-- Node3&#45;&gt;Node1 -->
<g id="edge4" class="edge">
<title>Node3&#45;&gt;Node1</title>
<path fill="none" stroke="#191970" d="M404.25,-61.8906C398.4135,-52.917 389.5491,-39.2879 382.3694,-28.2491"/>
<polygon fill="#191970" stroke="#191970" points="385.2245,-26.2194 376.8381,-19.7449 379.3564,-30.0361 385.2245,-26.2194"/>
</g>
<!-- Node4 -->
<g id="node5" class="node">
<title>Node4</title>
<polygon fill="none" stroke="#bfbfbf" points="418.5,-.5 418.5,-19.5 468.5,-19.5 468.5,-.5 418.5,-.5"/>
<text text-anchor="middle" x="443.5" y="-7.5" font-family="Helvetica,sans-Serif" font-size="10.00" fill="#000000">climits</text>
</g>
<!-- Node3&#45;&gt;Node4 -->
<g id="edge5" class="edge">
<title>Node3&#45;&gt;Node4</title>
<path fill="none" stroke="#191970" d="M415.6563,-61.8906C420.4232,-53.0068 427.6385,-39.5601 433.5297,-28.5811"/>
<polygon fill="#191970" stroke="#191970" points="436.6269,-30.2114 438.2711,-19.7449 430.4588,-26.9016 436.6269,-30.2114"/>
</g>
<!-- Node5&#45;&gt;Node1 -->
<g id="edge7" class="edge">
<title>Node5&#45;&gt;Node1</title>
<path fill="none" stroke="#191970" d="M236.7991,-56.4554C266.4615,-46.149 305.3845,-32.6249 333.5788,-22.8286"/>
<polygon fill="#191970" stroke="#191970" points="334.774,-26.1186 343.0713,-19.5303 332.4765,-19.5064 334.774,-26.1186"/>
</g>
<!-- Node6 -->
<g id="node7" class="node">
<title>Node6</title>
<polygon fill="none" stroke="#bfbfbf" points="274,-.5 274,-19.5 323,-19.5 323,-.5 274,-.5"/>
<text text-anchor="middle" x="298.5" y="-7.5" font-family="Helvetica,sans-Serif" font-size="10.00" fill="#000000">iosfwd</text>
</g>
<!-- Node5&#45;&gt;Node6 -->
<g id="edge8" class="edge">
<title>Node5&#45;&gt;Node6</title>
<path fill="none" stroke="#191970" d="M219.1859,-56.4554C235.6297,-46.8241 256.8708,-34.3828 273.2323,-24.7996"/>
<polygon fill="#191970" stroke="#191970" points="275.3688,-27.6045 282.2287,-19.5303 271.831,-21.5643 275.3688,-27.6045"/>
</g>
<!-- Node7 -->
<g id="node8" class="node">
<title>Node7</title>
<polygon fill="none" stroke="#bfbfbf" points="0,-.5 0,-19.5 47,-19.5 47,-.5 0,-.5"/>
<text text-anchor="middle" x="23.5" y="-7.5" font-family="Helvetica,sans-Serif" font-size="10.00" fill="#000000">cmath</text>
</g>
<!-- Node5&#45;&gt;Node7 -->
<g id="edge9" class="edge">
<title>Node5&#45;&gt;Node7</title>
<path fill="none" stroke="#191970" d="M151.9133,-56.4554C122.6729,-45.8773 84.0631,-31.9096 56.8412,-22.0617"/>
<polygon fill="#191970" stroke="#191970" points="57.9601,-18.7445 47.3658,-18.6338 55.5787,-25.327 57.9601,-18.7445"/>
</g>
<!-- Node5&#45;&gt;Node8 -->
<g id="edge10" class="edge">
<title>Node5&#45;&gt;Node8</title>
<path fill="none" stroke="#191970" d="M280.8879,-57.4677C363.1934,-44.2516 482.3634,-25.1159 541.0796,-15.6876"/>
<polygon fill="#191970" stroke="#191970" points="541.9985,-19.085 551.3171,-14.0437 540.8887,-12.1735 541.9985,-19.085"/>
</g>
<!-- Node9 -->
<g id="node10" class="node">
<title>Node9</title>
<g id="a_node10"><a xlink:href="../../d4/dc6/LHCConstants_8h.html" target="_top" xlink:title="Header to collect LHC related constants. ">
<polygon fill="none" stroke="#000000" points="65.5,-.5 65.5,-19.5 255.5,-19.5 255.5,-.5 65.5,-.5"/>
<text text-anchor="middle" x="160.5" y="-7.5" font-family="Helvetica,sans-Serif" font-size="10.00" fill="#000000">CommonConstants/LHCConstants.h</text>
</a>
</g>
</g>
<!-- Node5&#45;&gt;Node9 -->
<g id="edge11" class="edge">
<title>Node5&#45;&gt;Node9</title>
<path fill="none" stroke="#191970" d="M185.3427,-56.2977C180.9051,-48.0277 175.375,-37.7215 170.6596,-28.9339"/>
<polygon fill="#191970" stroke="#191970" points="173.596,-27.0037 165.7837,-19.8469 167.4279,-30.3134 173.596,-27.0037"/>
</g>
<!-- Node13 -->
<g id="node14" class="node">
<title>Node13</title>
<g id="a_node14"><a xlink:href="../../d2/d45/GPUCommonRtypes_8h.html" target="_top" xlink:title="GPUCommonRtypes.h">
<polygon fill="none" stroke="#000000" points="670,-62 670,-81 795,-81 795,-62 670,-62"/>
<text text-anchor="middle" x="732.5" y="-69" font-family="Helvetica,sans-Serif" font-size="10.00" fill="#000000">GPUCommonRtypes.h</text>
</a>
</g>
</g>
<!-- Node12&#45;&gt;Node13 -->
<g id="edge16" class="edge">
<title>Node12&#45;&gt;Node13</title>
<path fill="none" stroke="#191970" d="M727.8615,-123.2967C728.7146,-113.7699 729.8228,-101.3954 730.742,-91.1306"/>
<polygon fill="#191970" stroke="#191970" points="734.2383,-91.3273 731.6443,-81.055 727.2662,-90.7029 734.2383,-91.3273"/>
</g>
<!-- Node13&#45;&gt;Node1 -->
<g id="edge17" class="edge">
<title>Node13&#45;&gt;Node1</title>
<path fill="none" stroke="#191970" d="M691.3038,-61.9731C681.5592,-59.8677 671.1848,-57.7465 661.5,-56 553.3121,-36.4899 522.2086,-41.7551 410.2346,-19.9565"/>
<polygon fill="#191970" stroke="#191970" points="410.7227,-16.4854 400.2339,-17.9803 409.3656,-23.3526 410.7227,-16.4854"/>
</g>
<!-- Node14&#45;&gt;Node8 -->
<g id="edge20" class="edge">
<title>Node14&#45;&gt;Node8</title>
<path fill="none" stroke="#191970" d="M870.8805,-123.279C852.8405,-101.8958 820.1364,-64.6047 804.5,-56 771.7627,-37.9846 667.1975,-21.9758 611.7686,-14.4879"/>
<polygon fill="#191970" stroke="#191970" points="612.0705,-10.9973 601.6963,-13.148 611.1474,-17.9362 612.0705,-10.9973"/>
</g>
<!-- Node14&#45;&gt;Node10 -->
<g id="edge27" class="edge">
<title>Node14&#45;&gt;Node10</title>
<path fill="none" stroke="#191970" d="M819.8315,-125.2946C765.0178,-113.6385 690.333,-96.9899 661.5,-87 659.8553,-86.4301 658.1831,-85.8038 656.5083,-85.1398"/>
<polygon fill="#191970" stroke="#191970" points="657.6294,-81.8114 647.0617,-81.0544 654.8508,-88.2363 657.6294,-81.8114"/>
</g>
<!-- Node14&#45;&gt;Node13 -->
<g id="edge19" class="edge">
<title>Node14&#45;&gt;Node13</title>
<path fill="none" stroke="#191970" d="M849.6127,-123.4639C823.8203,-112.0196 788.6055,-96.3945 763.5429,-85.274"/>
<polygon fill="#191970" stroke="#191970" points="764.7048,-81.9605 754.1447,-81.1039 761.8657,-88.359 764.7048,-81.9605"/>
</g>
<!-- Node15 -->
<g id="node16" class="node">
<title>Node15</title>
<polygon fill="none" stroke="#bfbfbf" points="851.5,-62 851.5,-81 903.5,-81 903.5,-62 851.5,-62"/>
<text text-anchor="middle" x="877.5" y="-69" font-family="Helvetica,sans-Serif" font-size="10.00" fill="#000000">cassert</text>
</g>
<!-- Node14&#45;&gt;Node15 -->
<g id="edge21" class="edge">
<title>Node14&#45;&gt;Node15</title>
<path fill="none" stroke="#191970" d="M882.1385,-123.2967C881.2854,-113.7699 880.1772,-101.3954 879.258,-91.1306"/>
<polygon fill="#191970" stroke="#191970" points="882.7338,-90.7029 878.3557,-81.055 875.7617,-91.3273 882.7338,-90.7029"/>
</g>
<!-- Node16 -->
<g id="node17" class="node">
<title>Node16</title>
<polygon fill="none" stroke="#bfbfbf" points="922,-62 922,-81 987,-81 987,-62 922,-62"/>
<text text-anchor="middle" x="954.5" y="-69" font-family="Helvetica,sans-Serif" font-size="10.00" fill="#000000">stdexcept</text>
</g>
<!-- Node14&#45;&gt;Node16 -->
<g id="edge22" class="edge">
<title>Node14&#45;&gt;Node16</title>
<path fill="none" stroke="#191970" d="M899.611,-123.2967C910.7805,-112.7564 925.644,-98.7303 937.0867,-87.9323"/>
<polygon fill="#191970" stroke="#191970" points="939.5037,-90.4638 944.3746,-81.055 934.6994,-85.3727 939.5037,-90.4638"/>
</g>
<!-- Node17 -->
<g id="node18" class="node">
<title>Node17</title>
<polygon fill="none" stroke="#bfbfbf" points="1005.5,-62 1005.5,-81 1053.5,-81 1053.5,-62 1005.5,-62"/>
<text text-anchor="middle" x="1029.5" y="-69" font-family="Helvetica,sans-Serif" font-size="10.00" fill="#000000">gsl/gsl</text>
</g>
<!-- Node14&#45;&gt;Node17 -->
<g id="edge23" class="edge">
<title>Node14&#45;&gt;Node17</title>
<path fill="none" stroke="#191970" d="M917.1691,-123.2772C939.6613,-113.0779 969.8897,-99.3127 996.5,-87 997.6633,-86.4617 998.849,-85.9117 1000.0463,-85.355"/>
<polygon fill="#191970" stroke="#191970" points="1001.6936,-88.4486 1009.2728,-81.0455 998.7312,-82.1063 1001.6936,-88.4486"/>
</g>
<!-- Node18 -->
<g id="node19" class="node">
<title>Node18</title>
<polygon fill="none" stroke="#bfbfbf" points="1072,-62 1072,-81 1141,-81 1141,-62 1072,-62"/>
<text text-anchor="middle" x="1106.5" y="-69" font-family="Helvetica,sans-Serif" font-size="10.00" fill="#000000">type_traits</text>
</g>
<!-- Node14&#45;&gt;Node18 -->
<g id="edge24" class="edge">
<title>Node14&#45;&gt;Node18</title>
<path fill="none" stroke="#191970" d="M938.9885,-123.4387C974.4688,-113.5859 1021.3802,-100.1455 1062.5,-87 1065.0867,-86.1731 1067.7507,-85.2968 1070.4273,-84.3984"/>
<polygon fill="#191970" stroke="#191970" points="1071.7355,-87.6499 1080.0601,-81.0961 1069.4654,-81.0282 1071.7355,-87.6499"/>
</g>
<!-- Node19 -->
<g id="node20" class="node">
<title>Node19</title>
<polygon fill="none" stroke="#bfbfbf" points="1159.5,-62 1159.5,-81 1209.5,-81 1209.5,-62 1159.5,-62"/>
<text text-anchor="middle" x="1184.5" y="-69" font-family="Helvetica,sans-Serif" font-size="10.00" fill="#000000">cstring</text>
</g>
<!-- Node14&#45;&gt;Node19 -->
<g id="edge25" class="edge">
<title>Node14&#45;&gt;Node19</title>
<path fill="none" stroke="#191970" d="M947.1339,-130.5612C1001.9026,-122.7083 1082.5943,-108.6877 1150.5,-87 1152.4003,-86.3931 1154.3346,-85.7084 1156.2673,-84.9732"/>
<polygon fill="#191970" stroke="#191970" points="1157.8789,-88.0931 1165.7534,-81.0049 1155.1774,-81.6353 1157.8789,-88.0931"/>
</g>
<!-- Node20 -->
<g id="node21" class="node">
<title>Node20</title>
<polygon fill="none" stroke="#bfbfbf" points="1227.5,-62 1227.5,-81 1285.5,-81 1285.5,-62 1227.5,-62"/>
<text text-anchor="middle" x="1256.5" y="-69" font-family="Helvetica,sans-Serif" font-size="10.00" fill="#000000">memory</text>
</g>
<!-- Node14&#45;&gt;Node20 -->
<g id="edge26" class="edge">
<title>Node14&#45;&gt;Node20</title>
<path fill="none" stroke="#191970" d="M947.0986,-133.205C1015.1839,-126.5034 1125.9169,-112.6147 1218.5,-87 1220.9635,-86.3184 1223.4828,-85.5235 1225.9939,-84.6603"/>
<polygon fill="#191970" stroke="#191970" points="1227.372,-87.8815 1235.5028,-81.0888 1224.9106,-81.3285 1227.372,-87.8815"/>
</g>
</g>
</svg>
