<?xml version="1.0" encoding="UTF-8" standalone="no"?>
<!DOCTYPE svg PUBLIC "-//W3C//DTD SVG 1.1//EN"
 "http://www.w3.org/Graphics/SVG/1.1/DTD/svg11.dtd">
<!-- Generated by graphviz version 2.40.1 (20161225.0304)
 -->
<!-- Title: o2::framework::Produces&lt; T &gt; Pages: 1 -->
<svg width="2348pt" height="182pt"
 viewBox="0.00 0.00 2348.00 182.00" xmlns="http://www.w3.org/2000/svg" xmlns:xlink="http://www.w3.org/1999/xlink">
<g id="graph0" class="graph" transform="scale(1 1) rotate(0) translate(4 178)">
<title>o2::framework::Produces&lt; T &gt;</title>
<!-- Node0 -->
<g id="node1" class="node">
<title>Node0</title>
<polygon fill="#bfbfbf" stroke="#000000" points="1095.5,-116.5 1095.5,-173.5 1262.5,-173.5 1262.5,-116.5 1095.5,-116.5"/>
<text text-anchor="middle" x="1179" y="-161.5" font-family="Helvetica,sans-Serif" font-size="10.00" fill="#000000">o2::framework::Produces&lt; T &gt;</text>
<polyline fill="none" stroke="#000000" points="1095.5,-154.5 1262.5,-154.5 "/>
<text text-anchor="middle" x="1179" y="-142.5" font-family="Helvetica,sans-Serif" font-size="10.00" fill="#000000"> </text>
<polyline fill="none" stroke="#000000" points="1095.5,-135.5 1262.5,-135.5 "/>
<text text-anchor="middle" x="1179" y="-123.5" font-family="Helvetica,sans-Serif" font-size="10.00" fill="#000000"> </text>
</g>
<!-- Node1 -->
<g id="node2" class="node">
<title>Node1</title>
<g id="a_node2"><a xlink:href="../../d6/d86/structo2_1_1framework_1_1Produces.html" target="_top" xlink:title="{o2::framework::Produces\l\&lt; aod::EvSels \&gt;\n||}">
<polygon fill="none" stroke="#000000" points="0,-.5 0,-68.5 138,-68.5 138,-.5 0,-.5"/>
<text text-anchor="start" x="8" y="-56.5" font-family="Helvetica,sans-Serif" font-size="10.00" fill="#000000">o2::framework::Produces</text>
<text text-anchor="middle" x="69" y="-45.5" font-family="Helvetica,sans-Serif" font-size="10.00" fill="#000000">&lt; aod::EvSels &gt;</text>
<polyline fill="none" stroke="#000000" points="0,-38.5 138,-38.5 "/>
<text text-anchor="middle" x="69" y="-26.5" font-family="Helvetica,sans-Serif" font-size="10.00" fill="#000000"> </text>
<polyline fill="none" stroke="#000000" points="0,-19.5 138,-19.5 "/>
<text text-anchor="middle" x="69" y="-7.5" font-family="Helvetica,sans-Serif" font-size="10.00" fill="#000000"> </text>
</a>
</g>
</g>
<!-- Node0&#45;&gt;Node1 -->
<g id="edge1" class="edge">
<title>Node0&#45;&gt;Node1</title>
<path fill="none" stroke="#ffa500" d="M1085.2986,-142.2949C885.9197,-136.1889 425.2097,-120.126 270,-98 214.3966,-90.0734 200.2434,-86.8804 147,-69 144.0523,-68.0101 141.0633,-66.9504 138.0597,-65.8391"/>
<polygon fill="#ffa500" stroke="#ffa500" points="1085.3565,-145.7982 1095.4584,-142.6043 1085.5697,-138.8014 1085.3565,-145.7982"/>
<text text-anchor="middle" x="311" y="-90" font-family="Helvetica,sans-Serif" font-size="10.00" fill="#000000"> &lt; aod::EvSels &gt;</text>
</g>
<!-- Node2 -->
<g id="node3" class="node">
<title>Node2</title>
<g id="a_node3"><a xlink:href="../../d6/d86/structo2_1_1framework_1_1Produces.html" target="_top" xlink:title="{o2::framework::Produces\l\&lt; aod::SecVtx2Prong \&gt;\n||}">
<polygon fill="none" stroke="#000000" points="156,-.5 156,-68.5 294,-68.5 294,-.5 156,-.5"/>
<text text-anchor="start" x="164" y="-56.5" font-family="Helvetica,sans-Serif" font-size="10.00" fill="#000000">o2::framework::Produces</text>
<text text-anchor="middle" x="225" y="-45.5" font-family="Helvetica,sans-Serif" font-size="10.00" fill="#000000">&lt; aod::SecVtx2Prong &gt;</text>
<polyline fill="none" stroke="#000000" points="156,-38.5 294,-38.5 "/>
<text text-anchor="middle" x="225" y="-26.5" font-family="Helvetica,sans-Serif" font-size="10.00" fill="#000000"> </text>
<polyline fill="none" stroke="#000000" points="156,-19.5 294,-19.5 "/>
<text text-anchor="middle" x="225" y="-7.5" font-family="Helvetica,sans-Serif" font-size="10.00" fill="#000000"> </text>
</a>
</g>
</g>
<!-- Node0&#45;&gt;Node2 -->
<g id="edge2" class="edge">
<title>Node0&#45;&gt;Node2</title>
<path fill="none" stroke="#ffa500" d="M1085.1016,-142.0415C907.581,-136.0004 528.9887,-120.8576 400,-98 364.0384,-91.6274 325.7272,-78.5083 294.1475,-65.8402"/>
<polygon fill="#ffa500" stroke="#ffa500" points="1085.0969,-145.5433 1095.2094,-142.3831 1085.3333,-138.5473 1085.0969,-145.5433"/>
<text text-anchor="middle" x="459" y="-90" font-family="Helvetica,sans-Serif" font-size="10.00" fill="#000000"> &lt; aod::SecVtx2Prong &gt;</text>
</g>
<!-- Node3 -->
<g id="node4" class="node">
<title>Node3</title>
<g id="a_node4"><a xlink:href="../../d6/d86/structo2_1_1framework_1_1Produces.html" target="_top" xlink:title="{o2::framework::Produces\l\&lt; o2::aod::JetConstituents \&gt;\n||}">
<polygon fill="none" stroke="#000000" points="312.5,-.5 312.5,-68.5 467.5,-68.5 467.5,-.5 312.5,-.5"/>
<text text-anchor="start" x="320.5" y="-56.5" font-family="Helvetica,sans-Serif" font-size="10.00" fill="#000000">o2::framework::Produces</text>
<text text-anchor="middle" x="390" y="-45.5" font-family="Helvetica,sans-Serif" font-size="10.00" fill="#000000">&lt; o2::aod::JetConstituents &gt;</text>
<polyline fill="none" stroke="#000000" points="312.5,-38.5 467.5,-38.5 "/>
<text text-anchor="middle" x="390" y="-26.5" font-family="Helvetica,sans-Serif" font-size="10.00" fill="#000000"> </text>
<polyline fill="none" stroke="#000000" points="312.5,-19.5 467.5,-19.5 "/>
<text text-anchor="middle" x="390" y="-7.5" font-family="Helvetica,sans-Serif" font-size="10.00" fill="#000000"> </text>
</a>
</g>
</g>
<!-- Node0&#45;&gt;Node3 -->
<g id="edge3" class="edge">
<title>Node0&#45;&gt;Node3</title>
<path fill="none" stroke="#ffa500" d="M1084.9372,-140.8571C937.1986,-133.8431 657.551,-118.3807 560,-98 528.5434,-91.428 495.1659,-80.0123 466.392,-68.656"/>
<polygon fill="#ffa500" stroke="#ffa500" points="1085.1884,-144.3727 1095.3421,-141.3474 1085.518,-137.3805 1085.1884,-144.3727"/>
<text text-anchor="middle" x="631" y="-90" font-family="Helvetica,sans-Serif" font-size="10.00" fill="#000000"> &lt; o2::aod::JetConstituents &gt;</text>
</g>
<!-- Node4 -->
<g id="node5" class="node">
<title>Node4</title>
<g id="a_node5"><a xlink:href="../../d6/d86/structo2_1_1framework_1_1Produces.html" target="_top" xlink:title="{o2::framework::Produces\l\&lt; aod::Due \&gt;\n||}">
<polygon fill="none" stroke="#000000" points="486,-.5 486,-68.5 624,-68.5 624,-.5 486,-.5"/>
<text text-anchor="start" x="494" y="-56.5" font-family="Helvetica,sans-Serif" font-size="10.00" fill="#000000">o2::framework::Produces</text>
<text text-anchor="middle" x="555" y="-45.5" font-family="Helvetica,sans-Serif" font-size="10.00" fill="#000000">&lt; aod::Due &gt;</text>
<polyline fill="none" stroke="#000000" points="486,-38.5 624,-38.5 "/>
<text text-anchor="middle" x="555" y="-26.5" font-family="Helvetica,sans-Serif" font-size="10.00" fill="#000000"> </text>
<polyline fill="none" stroke="#000000" points="486,-19.5 624,-19.5 "/>
<text text-anchor="middle" x="555" y="-7.5" font-family="Helvetica,sans-Serif" font-size="10.00" fill="#000000"> </text>
</a>
</g>
</g>
<!-- Node0&#45;&gt;Node4 -->
<g id="edge4" class="edge">
<title>Node0&#45;&gt;Node4</title>
<path fill="none" stroke="#ffa500" d="M1085.0913,-141.5437C974.5872,-135.2992 786.6862,-117.8209 633,-69 630.0364,-68.0586 627.0342,-67.0394 624.0196,-65.9617"/>
<polygon fill="#ffa500" stroke="#ffa500" points="1085.0349,-145.0458 1095.2109,-142.0964 1085.4167,-138.0562 1085.0349,-145.0458"/>
<text text-anchor="middle" x="770" y="-90" font-family="Helvetica,sans-Serif" font-size="10.00" fill="#000000"> &lt; aod::Due &gt;</text>
</g>
<!-- Node5 -->
<g id="node6" class="node">
<title>Node5</title>
<g id="a_node6"><a xlink:href="../../d6/d86/structo2_1_1framework_1_1Produces.html" target="_top" xlink:title="{o2::framework::Produces\l\&lt; aod::FooBars \&gt;\n||}">
<polygon fill="none" stroke="#000000" points="642,-.5 642,-68.5 780,-68.5 780,-.5 642,-.5"/>
<text text-anchor="start" x="650" y="-56.5" font-family="Helvetica,sans-Serif" font-size="10.00" fill="#000000">o2::framework::Produces</text>
<text text-anchor="middle" x="711" y="-45.5" font-family="Helvetica,sans-Serif" font-size="10.00" fill="#000000">&lt; aod::FooBars &gt;</text>
<polyline fill="none" stroke="#000000" points="642,-38.5 780,-38.5 "/>
<text text-anchor="middle" x="711" y="-26.5" font-family="Helvetica,sans-Serif" font-size="10.00" fill="#000000"> </text>
<polyline fill="none" stroke="#000000" points="642,-19.5 780,-19.5 "/>
<text text-anchor="middle" x="711" y="-7.5" font-family="Helvetica,sans-Serif" font-size="10.00" fill="#000000"> </text>
</a>
</g>
</g>
<!-- Node0&#45;&gt;Node5 -->
<g id="edge5" class="edge">
<title>Node0&#45;&gt;Node5</title>
<path fill="none" stroke="#ffa500" d="M1085.2963,-135.5527C1004.7832,-125.38 886.5904,-105.4931 789,-69 786.0875,-67.9109 783.1279,-66.7683 780.1486,-65.5883"/>
<polygon fill="#ffa500" stroke="#ffa500" points="1085.0613,-139.0502 1095.4155,-136.8052 1085.9212,-132.1032 1085.0613,-139.0502"/>
<text text-anchor="middle" x="927.5" y="-90" font-family="Helvetica,sans-Serif" font-size="10.00" fill="#000000"> &lt; aod::FooBars &gt;</text>
</g>
<!-- Node6 -->
<g id="node7" class="node">
<title>Node6</title>
<g id="a_node7"><a xlink:href="../../d6/d86/structo2_1_1framework_1_1Produces.html" target="_top" xlink:title="{o2::framework::Produces\l\&lt; aod::EtaPhiPt \&gt;\n||}">
<polygon fill="none" stroke="#000000" points="798,-.5 798,-68.5 936,-68.5 936,-.5 798,-.5"/>
<text text-anchor="start" x="806" y="-56.5" font-family="Helvetica,sans-Serif" font-size="10.00" fill="#000000">o2::framework::Produces</text>
<text text-anchor="middle" x="867" y="-45.5" font-family="Helvetica,sans-Serif" font-size="10.00" fill="#000000">&lt; aod::EtaPhiPt &gt;</text>
<polyline fill="none" stroke="#000000" points="798,-38.5 936,-38.5 "/>
<text text-anchor="middle" x="867" y="-26.5" font-family="Helvetica,sans-Serif" font-size="10.00" fill="#000000"> </text>
<polyline fill="none" stroke="#000000" points="798,-19.5 936,-19.5 "/>
<text text-anchor="middle" x="867" y="-7.5" font-family="Helvetica,sans-Serif" font-size="10.00" fill="#000000"> </text>
</a>
</g>
</g>
<!-- Node0&#45;&gt;Node6 -->
<g id="edge6" class="edge">
<title>Node0&#45;&gt;Node6</title>
<path fill="none" stroke="#ffa500" d="M1085.3015,-123.481C1058.1196,-116.3383 1028.6037,-107.6992 1002,-98 979.126,-89.6606 954.8485,-78.8839 933.2822,-68.5843"/>
<polygon fill="#ffa500" stroke="#ffa500" points="1084.6425,-126.9258 1095.2006,-126.044 1086.3971,-120.1492 1084.6425,-126.9258"/>
<text text-anchor="middle" x="1047.5" y="-90" font-family="Helvetica,sans-Serif" font-size="10.00" fill="#000000"> &lt; aod::EtaPhiPt &gt;</text>
</g>
<!-- Node7 -->
<g id="node8" class="node">
<title>Node7</title>
<g id="a_node8"><a xlink:href="../../d6/d86/structo2_1_1framework_1_1Produces.html" target="_top" xlink:title="{o2::framework::Produces\l\&lt; aod::Tre \&gt;\n||}">
<polygon fill="none" stroke="#000000" points="954,-.5 954,-68.5 1092,-68.5 1092,-.5 954,-.5"/>
<text text-anchor="start" x="962" y="-56.5" font-family="Helvetica,sans-Serif" font-size="10.00" fill="#000000">o2::framework::Produces</text>
<text text-anchor="middle" x="1023" y="-45.5" font-family="Helvetica,sans-Serif" font-size="10.00" fill="#000000">&lt; aod::Tre &gt;</text>
<polyline fill="none" stroke="#000000" points="954,-38.5 1092,-38.5 "/>
<text text-anchor="middle" x="1023" y="-26.5" font-family="Helvetica,sans-Serif" font-size="10.00" fill="#000000"> </text>
<polyline fill="none" stroke="#000000" points="954,-19.5 1092,-19.5 "/>
<text text-anchor="middle" x="1023" y="-7.5" font-family="Helvetica,sans-Serif" font-size="10.00" fill="#000000"> </text>
</a>
</g>
</g>
<!-- Node0&#45;&gt;Node7 -->
<g id="edge7" class="edge">
<title>Node0&#45;&gt;Node7</title>
<path fill="none" stroke="#ffa500" d="M1128.9704,-110.5917C1122.9034,-106.3687 1116.8025,-102.0981 1111,-98 1097.6117,-88.5442 1083.1598,-78.1815 1069.9135,-68.6205"/>
<polygon fill="#ffa500" stroke="#ffa500" points="1126.9812,-113.4715 1137.1914,-116.3004 1130.9738,-107.7217 1126.9812,-113.4715"/>
<text text-anchor="middle" x="1143" y="-90" font-family="Helvetica,sans-Serif" font-size="10.00" fill="#000000"> &lt; aod::Tre &gt;</text>
</g>
<!-- Node8 -->
<g id="node9" class="node">
<title>Node8</title>
<g id="a_node9"><a xlink:href="../../d6/d86/structo2_1_1framework_1_1Produces.html" target="_top" xlink:title="{o2::framework::Produces\l\&lt; aod::Cents \&gt;\n||}">
<polygon fill="none" stroke="#000000" points="1110,-.5 1110,-68.5 1248,-68.5 1248,-.5 1110,-.5"/>
<text text-anchor="start" x="1118" y="-56.5" font-family="Helvetica,sans-Serif" font-size="10.00" fill="#000000">o2::framework::Produces</text>
<text text-anchor="middle" x="1179" y="-45.5" font-family="Helvetica,sans-Serif" font-size="10.00" fill="#000000">&lt; aod::Cents &gt;</text>
<polyline fill="none" stroke="#000000" points="1110,-38.5 1248,-38.5 "/>
<text text-anchor="middle" x="1179" y="-26.5" font-family="Helvetica,sans-Serif" font-size="10.00" fill="#000000"> </text>
<polyline fill="none" stroke="#000000" points="1110,-19.5 1248,-19.5 "/>
<text text-anchor="middle" x="1179" y="-7.5" font-family="Helvetica,sans-Serif" font-size="10.00" fill="#000000"> </text>
</a>
</g>
</g>
<!-- Node0&#45;&gt;Node8 -->
<g id="edge8" class="edge">
<title>Node0&#45;&gt;Node8</title>
<path fill="none" stroke="#ffa500" d="M1179,-105.9162C1179,-93.7375 1179,-80.4096 1179,-68.6001"/>
<polygon fill="#ffa500" stroke="#ffa500" points="1175.5001,-106.2559 1179,-116.2559 1182.5001,-106.2559 1175.5001,-106.2559"/>
<text text-anchor="middle" x="1218" y="-90" font-family="Helvetica,sans-Serif" font-size="10.00" fill="#000000"> &lt; aod::Cents &gt;</text>
</g>
<!-- Node9 -->
<g id="node10" class="node">
<title>Node9</title>
<g id="a_node10"><a xlink:href="../../d6/d86/structo2_1_1framework_1_1Produces.html" target="_top" xlink:title="{o2::framework::Produces\l\&lt; aod::Uno \&gt;\n||}">
<polygon fill="none" stroke="#000000" points="1266,-.5 1266,-68.5 1404,-68.5 1404,-.5 1266,-.5"/>
<text text-anchor="start" x="1274" y="-56.5" font-family="Helvetica,sans-Serif" font-size="10.00" fill="#000000">o2::framework::Produces</text>
<text text-anchor="middle" x="1335" y="-45.5" font-family="Helvetica,sans-Serif" font-size="10.00" fill="#000000">&lt; aod::Uno &gt;</text>
<polyline fill="none" stroke="#000000" points="1266,-38.5 1404,-38.5 "/>
<text text-anchor="middle" x="1335" y="-26.5" font-family="Helvetica,sans-Serif" font-size="10.00" fill="#000000"> </text>
<polyline fill="none" stroke="#000000" points="1266,-19.5 1404,-19.5 "/>
<text text-anchor="middle" x="1335" y="-7.5" font-family="Helvetica,sans-Serif" font-size="10.00" fill="#000000"> </text>
</a>
</g>
</g>
<!-- Node0&#45;&gt;Node9 -->
<g id="edge9" class="edge">
<title>Node0&#45;&gt;Node9</title>
<path fill="none" stroke="#ffa500" d="M1241.0785,-111.0953C1247.9181,-106.8682 1254.6855,-102.4588 1261,-98 1273.5842,-89.1141 1286.5723,-78.5217 1298.0871,-68.559"/>
<polygon fill="#ffa500" stroke="#ffa500" points="1239.1496,-108.1715 1232.4049,-116.3422 1242.7727,-114.1609 1239.1496,-108.1715"/>
<text text-anchor="middle" x="1309" y="-90" font-family="Helvetica,sans-Serif" font-size="10.00" fill="#000000"> &lt; aod::Uno &gt;</text>
</g>
<!-- Node10 -->
<g id="node11" class="node">
<title>Node10</title>
<g id="a_node11"><a xlink:href="../../d6/d86/structo2_1_1framework_1_1Produces.html" target="_top" xlink:title="{o2::framework::Produces\l\&lt; aod::Cand2Prong \&gt;\n||}">
<polygon fill="none" stroke="#000000" points="1422,-.5 1422,-68.5 1560,-68.5 1560,-.5 1422,-.5"/>
<text text-anchor="start" x="1430" y="-56.5" font-family="Helvetica,sans-Serif" font-size="10.00" fill="#000000">o2::framework::Produces</text>
<text text-anchor="middle" x="1491" y="-45.5" font-family="Helvetica,sans-Serif" font-size="10.00" fill="#000000">&lt; aod::Cand2Prong &gt;</text>
<polyline fill="none" stroke="#000000" points="1422,-38.5 1560,-38.5 "/>
<text text-anchor="middle" x="1491" y="-26.5" font-family="Helvetica,sans-Serif" font-size="10.00" fill="#000000"> </text>
<polyline fill="none" stroke="#000000" points="1422,-19.5 1560,-19.5 "/>
<text text-anchor="middle" x="1491" y="-7.5" font-family="Helvetica,sans-Serif" font-size="10.00" fill="#000000"> </text>
</a>
</g>
</g>
<!-- Node0&#45;&gt;Node10 -->
<g id="edge10" class="edge">
<title>Node0&#45;&gt;Node10</title>
<path fill="none" stroke="#ffa500" d="M1272.4751,-121.6384C1297.2558,-114.731 1323.8341,-106.673 1348,-98 1372.4168,-89.237 1398.5168,-78.1751 1421.6463,-67.749"/>
<polygon fill="#ffa500" stroke="#ffa500" points="1271.4234,-118.2976 1262.7115,-124.327 1273.2819,-125.0464 1271.4234,-118.2976"/>
<text text-anchor="middle" x="1430.5" y="-90" font-family="Helvetica,sans-Serif" font-size="10.00" fill="#000000"> &lt; aod::Cand2Prong &gt;</text>
</g>
<!-- Node11 -->
<g id="node12" class="node">
<title>Node11</title>
<g id="a_node12"><a xlink:href="../../d6/d86/structo2_1_1framework_1_1Produces.html" target="_top" xlink:title="{o2::framework::Produces\l\&lt; aod::TrackSelection \&gt;\n||}">
<polygon fill="none" stroke="#000000" points="1578,-.5 1578,-68.5 1716,-68.5 1716,-.5 1578,-.5"/>
<text text-anchor="start" x="1586" y="-56.5" font-family="Helvetica,sans-Serif" font-size="10.00" fill="#000000">o2::framework::Produces</text>
<text text-anchor="middle" x="1647" y="-45.5" font-family="Helvetica,sans-Serif" font-size="10.00" fill="#000000">&lt; aod::TrackSelection &gt;</text>
<polyline fill="none" stroke="#000000" points="1578,-38.5 1716,-38.5 "/>
<text text-anchor="middle" x="1647" y="-26.5" font-family="Helvetica,sans-Serif" font-size="10.00" fill="#000000"> </text>
<polyline fill="none" stroke="#000000" points="1578,-19.5 1716,-19.5 "/>
<text text-anchor="middle" x="1647" y="-7.5" font-family="Helvetica,sans-Serif" font-size="10.00" fill="#000000"> </text>
</a>
</g>
</g>
<!-- Node0&#45;&gt;Node11 -->
<g id="edge11" class="edge">
<title>Node0&#45;&gt;Node11</title>
<path fill="none" stroke="#ffa500" d="M1272.936,-135.6437C1334.9085,-128.2795 1417.5398,-116.1796 1489,-98 1525.6521,-88.6756 1533.9079,-83.1019 1569,-69 1571.8853,-67.8406 1574.822,-66.6392 1577.7824,-65.4105"/>
<polygon fill="#ffa500" stroke="#ffa500" points="1272.3098,-132.193 1262.7835,-136.8298 1273.1221,-139.1457 1272.3098,-132.193"/>
<text text-anchor="middle" x="1585.5" y="-90" font-family="Helvetica,sans-Serif" font-size="10.00" fill="#000000"> &lt; aod::TrackSelection &gt;</text>
</g>
<!-- Node12 -->
<g id="node13" class="node">
<title>Node12</title>
<g id="a_node13"><a xlink:href="../../d6/d86/structo2_1_1framework_1_1Produces.html" target="_top" xlink:title="{o2::framework::Produces\l\&lt; aod::EtaPhis \&gt;\n||}">
<polygon fill="none" stroke="#000000" points="1734,-.5 1734,-68.5 1872,-68.5 1872,-.5 1734,-.5"/>
<text text-anchor="start" x="1742" y="-56.5" font-family="Helvetica,sans-Serif" font-size="10.00" fill="#000000">o2::framework::Produces</text>
<text text-anchor="middle" x="1803" y="-45.5" font-family="Helvetica,sans-Serif" font-size="10.00" fill="#000000">&lt; aod::EtaPhis &gt;</text>
<polyline fill="none" stroke="#000000" points="1734,-38.5 1872,-38.5 "/>
<text text-anchor="middle" x="1803" y="-26.5" font-family="Helvetica,sans-Serif" font-size="10.00" fill="#000000"> </text>
<polyline fill="none" stroke="#000000" points="1734,-19.5 1872,-19.5 "/>
<text text-anchor="middle" x="1803" y="-7.5" font-family="Helvetica,sans-Serif" font-size="10.00" fill="#000000"> </text>
</a>
</g>
</g>
<!-- Node0&#45;&gt;Node12 -->
<g id="edge12" class="edge">
<title>Node0&#45;&gt;Node12</title>
<path fill="none" stroke="#ffa500" d="M1272.726,-138.6491C1389.0871,-130.2415 1580.6799,-114.5389 1650,-98 1678.3938,-91.2256 1708.3238,-79.8409 1734.1083,-68.5666"/>
<polygon fill="#ffa500" stroke="#ffa500" points="1272.4719,-135.1582 1262.7483,-139.3655 1272.9733,-142.1402 1272.4719,-135.1582"/>
<text text-anchor="middle" x="1728" y="-90" font-family="Helvetica,sans-Serif" font-size="10.00" fill="#000000"> &lt; aod::EtaPhis &gt;</text>
</g>
<!-- Node13 -->
<g id="node14" class="node">
<title>Node13</title>
<g id="a_node14"><a xlink:href="../../d6/d86/structo2_1_1framework_1_1Produces.html" target="_top" xlink:title="{o2::framework::Produces\l\&lt; o2::aod::Jets \&gt;\n||}">
<polygon fill="none" stroke="#000000" points="1890,-.5 1890,-68.5 2028,-68.5 2028,-.5 1890,-.5"/>
<text text-anchor="start" x="1898" y="-56.5" font-family="Helvetica,sans-Serif" font-size="10.00" fill="#000000">o2::framework::Produces</text>
<text text-anchor="middle" x="1959" y="-45.5" font-family="Helvetica,sans-Serif" font-size="10.00" fill="#000000">&lt; o2::aod::Jets &gt;</text>
<polyline fill="none" stroke="#000000" points="1890,-38.5 2028,-38.5 "/>
<text text-anchor="middle" x="1959" y="-26.5" font-family="Helvetica,sans-Serif" font-size="10.00" fill="#000000"> </text>
<polyline fill="none" stroke="#000000" points="1890,-19.5 2028,-19.5 "/>
<text text-anchor="middle" x="1959" y="-7.5" font-family="Helvetica,sans-Serif" font-size="10.00" fill="#000000"> </text>
</a>
</g>
</g>
<!-- Node0&#45;&gt;Node13 -->
<g id="edge13" class="edge">
<title>Node0&#45;&gt;Node13</title>
<path fill="none" stroke="#ffa500" d="M1272.6184,-143.0579C1390.5763,-139.3675 1599.1492,-128.7064 1775,-98 1823.1144,-89.5985 1834.9821,-85.3686 1881,-69 1883.9297,-67.9579 1886.9036,-66.8546 1889.8947,-65.7072"/>
<polygon fill="#ffa500" stroke="#ffa500" points="1272.428,-139.562 1262.5385,-143.3632 1272.6399,-146.5588 1272.428,-139.562"/>
<text text-anchor="middle" x="1869" y="-90" font-family="Helvetica,sans-Serif" font-size="10.00" fill="#000000"> &lt; o2::aod::Jets &gt;</text>
</g>
<!-- Node14 -->
<g id="node15" class="node">
<title>Node14</title>
<g id="a_node15"><a xlink:href="../../d6/d86/structo2_1_1framework_1_1Produces.html" target="_top" xlink:title="{o2::framework::Produces\l\&lt; aod::Mults \&gt;\n||}">
<polygon fill="none" stroke="#000000" points="2046,-.5 2046,-68.5 2184,-68.5 2184,-.5 2046,-.5"/>
<text text-anchor="start" x="2054" y="-56.5" font-family="Helvetica,sans-Serif" font-size="10.00" fill="#000000">o2::framework::Produces</text>
<text text-anchor="middle" x="2115" y="-45.5" font-family="Helvetica,sans-Serif" font-size="10.00" fill="#000000">&lt; aod::Mults &gt;</text>
<polyline fill="none" stroke="#000000" points="2046,-38.5 2184,-38.5 "/>
<text text-anchor="middle" x="2115" y="-26.5" font-family="Helvetica,sans-Serif" font-size="10.00" fill="#000000"> </text>
<polyline fill="none" stroke="#000000" points="2046,-19.5 2184,-19.5 "/>
<text text-anchor="middle" x="2115" y="-7.5" font-family="Helvetica,sans-Serif" font-size="10.00" fill="#000000"> </text>
</a>
</g>
</g>
<!-- Node0&#45;&gt;Node14 -->
<g id="edge14" class="edge">
<title>Node0&#45;&gt;Node14</title>
<path fill="none" stroke="#ffa500" d="M1272.7581,-141.0296C1442.5564,-133.5047 1794.6293,-116.2762 1916,-98 1970.6842,-89.7655 1984.609,-86.7018 2037,-69 2039.9459,-68.0046 2042.9333,-66.9404 2045.9357,-65.8254"/>
<polygon fill="#ffa500" stroke="#ffa500" points="1272.4196,-137.5411 1262.5836,-141.4786 1272.7282,-144.5343 1272.4196,-137.5411"/>
<text text-anchor="middle" x="2016" y="-90" font-family="Helvetica,sans-Serif" font-size="10.00" fill="#000000"> &lt; aod::Mults &gt;</text>
</g>
<!-- Node15 -->
<g id="node16" class="node">
<title>Node15</title>
<g id="a_node16"><a xlink:href="../../d6/d86/structo2_1_1framework_1_1Produces.html" target="_top" xlink:title="{o2::framework::Produces\l\&lt; aod::EtaPhi \&gt;\n||}">
<polygon fill="none" stroke="#000000" points="2202,-.5 2202,-68.5 2340,-68.5 2340,-.5 2202,-.5"/>
<text text-anchor="start" x="2210" y="-56.5" font-family="Helvetica,sans-Serif" font-size="10.00" fill="#000000">o2::framework::Produces</text>
<text text-anchor="middle" x="2271" y="-45.5" font-family="Helvetica,sans-Serif" font-size="10.00" fill="#000000">&lt; aod::EtaPhi &gt;</text>
<polyline fill="none" stroke="#000000" points="2202,-38.5 2340,-38.5 "/>
<text text-anchor="middle" x="2271" y="-26.5" font-family="Helvetica,sans-Serif" font-size="10.00" fill="#000000"> </text>
<polyline fill="none" stroke="#000000" points="2202,-19.5 2340,-19.5 "/>
<text text-anchor="middle" x="2271" y="-7.5" font-family="Helvetica,sans-Serif" font-size="10.00" fill="#000000"> </text>
</a>
</g>
</g>
<!-- Node0&#45;&gt;Node15 -->
<g id="edge15" class="edge">
<title>Node0&#45;&gt;Node15</title>
<path fill="none" stroke="#ffa500" d="M1272.7507,-141.8662C1467.1608,-135.0594 1908.5292,-117.923 2058,-98 2118.8308,-89.8919 2134.6322,-87.9558 2193,-69 2195.9574,-68.0395 2198.9546,-67.0045 2201.9649,-65.9135"/>
<polygon fill="#ffa500" stroke="#ffa500" points="1272.4274,-138.3753 1262.5554,-142.2216 1272.6713,-145.371 1272.4274,-138.3753"/>
<text text-anchor="middle" x="2169.5" y="-90" font-family="Helvetica,sans-Serif" font-size="10.00" fill="#000000"> &lt; aod::EtaPhi &gt;</text>
</g>
</g>
</svg>
