<?xml version="1.0" encoding="UTF-8" standalone="no"?>
<!DOCTYPE svg PUBLIC "-//W3C//DTD SVG 1.1//EN"
 "http://www.w3.org/Graphics/SVG/1.1/DTD/svg11.dtd">
<!-- Generated by graphviz version 2.40.1 (20161225.0304)
 -->
<!-- Title: /home/travis/build/AliceO2Group/AliceO2/Detectors/FIT/FDD/reconstruction/src/Reconstructor.cxx Pages: 1 -->
<svg width="1205pt" height="352pt"
 viewBox="0.00 0.00 1205.38 352.00" xmlns="http://www.w3.org/2000/svg" xmlns:xlink="http://www.w3.org/1999/xlink">
<g id="graph0" class="graph" transform="scale(1 1) rotate(0) translate(4 348)">
<title>/home/travis/build/AliceO2Group/AliceO2/Detectors/FIT/FDD/reconstruction/src/Reconstructor.cxx</title>
<!-- Node0 -->
<g id="node1" class="node">
<title>Node0</title>
<polygon fill="#bfbfbf" stroke="#000000" points="280.3823,-291.5 280.3823,-343.5 460.3823,-343.5 460.3823,-291.5 280.3823,-291.5"/>
<text text-anchor="start" x="288.3823" y="-331.5" font-family="Helvetica,sans-Serif" font-size="10.00" fill="#000000">/home/travis/build</text>
<text text-anchor="start" x="288.3823" y="-320.5" font-family="Helvetica,sans-Serif" font-size="10.00" fill="#000000">/AliceO2Group/AliceO2</text>
<text text-anchor="start" x="288.3823" y="-309.5" font-family="Helvetica,sans-Serif" font-size="10.00" fill="#000000">/Detectors/FIT/FDD/reconstruction</text>
<text text-anchor="middle" x="370.3823" y="-298.5" font-family="Helvetica,sans-Serif" font-size="10.00" fill="#000000">/src/Reconstructor.cxx</text>
</g>
<!-- Node1 -->
<g id="node2" class="node">
<title>Node1</title>
<g id="a_node2"><a xlink:href="../../d9/d80/InteractionRecord_8h.html" target="_top" xlink:title="CommonDataFormat/Interaction\lRecord.h">
<polygon fill="none" stroke="#000000" points="149.3823,-112.5 149.3823,-142.5 323.3823,-142.5 323.3823,-112.5 149.3823,-112.5"/>
<text text-anchor="start" x="157.3823" y="-130.5" font-family="Helvetica,sans-Serif" font-size="10.00" fill="#000000">CommonDataFormat/Interaction</text>
<text text-anchor="middle" x="236.3823" y="-119.5" font-family="Helvetica,sans-Serif" font-size="10.00" fill="#000000">Record.h</text>
</a>
</g>
</g>
<!-- Node0&#45;&gt;Node1 -->
<g id="edge1" class="edge">
<title>Node0&#45;&gt;Node1</title>
<path fill="none" stroke="#191970" d="M314.4835,-291.4054C298.0704,-281.732 281.1248,-269.5148 268.3823,-255 243.3932,-226.5354 237.3558,-181.389 236.1999,-153.1549"/>
<polygon fill="#191970" stroke="#191970" points="239.6928,-152.8011 235.9647,-142.8839 232.6946,-152.9614 239.6928,-152.8011"/>
</g>
<!-- Node7 -->
<g id="node8" class="node">
<title>Node7</title>
<g id="a_node8"><a xlink:href="../../d8/dbe/Reconstructor_8h.html" target="_top" xlink:title="FDDReconstruction/Reconstructor.h">
<polygon fill="none" stroke="#000000" points="276.8823,-235.5 276.8823,-254.5 463.8823,-254.5 463.8823,-235.5 276.8823,-235.5"/>
<text text-anchor="middle" x="370.3823" y="-242.5" font-family="Helvetica,sans-Serif" font-size="10.00" fill="#000000">FDDReconstruction/Reconstructor.h</text>
</a>
</g>
</g>
<!-- Node0&#45;&gt;Node7 -->
<g id="edge7" class="edge">
<title>Node0&#45;&gt;Node7</title>
<path fill="none" stroke="#191970" d="M370.3823,-291.3258C370.3823,-282.5142 370.3823,-272.8397 370.3823,-264.621"/>
<polygon fill="#191970" stroke="#191970" points="373.8824,-264.534 370.3823,-254.534 366.8824,-264.534 373.8824,-264.534"/>
</g>
<!-- Node18 -->
<g id="node19" class="node">
<title>Node18</title>
<polygon fill="none" stroke="#bfbfbf" points="481.8823,-235.5 481.8823,-254.5 556.8823,-254.5 556.8823,-235.5 481.8823,-235.5"/>
<text text-anchor="middle" x="519.3823" y="-242.5" font-family="Helvetica,sans-Serif" font-size="10.00" fill="#000000">FairLogger.h</text>
</g>
<!-- Node0&#45;&gt;Node18 -->
<g id="edge25" class="edge">
<title>Node0&#45;&gt;Node18</title>
<path fill="none" stroke="#191970" d="M424.1747,-291.3258C446.6058,-280.4114 471.7575,-268.1731 490.5739,-259.0175"/>
<polygon fill="#191970" stroke="#191970" points="492.3276,-262.0566 499.7883,-254.534 489.2649,-255.7622 492.3276,-262.0566"/>
</g>
<!-- Node2 -->
<g id="node3" class="node">
<title>Node2</title>
<polygon fill="none" stroke="#bfbfbf" points="462.8823,-.5 462.8823,-19.5 521.8823,-19.5 521.8823,-.5 462.8823,-.5"/>
<text text-anchor="middle" x="492.3823" y="-7.5" font-family="Helvetica,sans-Serif" font-size="10.00" fill="#000000">Rtypes.h</text>
</g>
<!-- Node1&#45;&gt;Node2 -->
<g id="edge2" class="edge">
<title>Node1&#45;&gt;Node2</title>
<path fill="none" stroke="#191970" d="M149.3213,-119.4332C91.3594,-112.0531 22.6177,-98.7273 4.3823,-76 -1.1805,-69.0669 -1.6009,-62.5737 4.3823,-56 34.347,-23.0779 341.3664,-13.2425 452.5011,-10.7481"/>
<polygon fill="#191970" stroke="#191970" points="452.7068,-14.2446 462.6287,-10.5291 452.5554,-7.2462 452.7068,-14.2446"/>
</g>
<!-- Node3 -->
<g id="node4" class="node">
<title>Node3</title>
<polygon fill="none" stroke="#bfbfbf" points="355.8823,-56.5 355.8823,-75.5 404.8823,-75.5 404.8823,-56.5 355.8823,-56.5"/>
<text text-anchor="middle" x="380.3823" y="-63.5" font-family="Helvetica,sans-Serif" font-size="10.00" fill="#000000">iosfwd</text>
</g>
<!-- Node1&#45;&gt;Node3 -->
<g id="edge3" class="edge">
<title>Node1&#45;&gt;Node3</title>
<path fill="none" stroke="#191970" d="M271.6087,-112.4554C295.2139,-102.374 326.0277,-89.2139 348.8299,-79.4755"/>
<polygon fill="#191970" stroke="#191970" points="350.2457,-82.6767 358.0674,-75.5303 347.4963,-76.2393 350.2457,-82.6767"/>
</g>
<!-- Node4 -->
<g id="node5" class="node">
<title>Node4</title>
<polygon fill="none" stroke="#bfbfbf" points="13.8823,-56.5 13.8823,-75.5 60.8823,-75.5 60.8823,-56.5 13.8823,-56.5"/>
<text text-anchor="middle" x="37.3823" y="-63.5" font-family="Helvetica,sans-Serif" font-size="10.00" fill="#000000">cmath</text>
</g>
<!-- Node1&#45;&gt;Node4 -->
<g id="edge4" class="edge">
<title>Node1&#45;&gt;Node4</title>
<path fill="none" stroke="#191970" d="M187.7014,-112.4554C151.3613,-101.2247 102.6585,-86.1733 70.6715,-76.2879"/>
<polygon fill="#191970" stroke="#191970" points="71.4979,-72.88 60.9103,-73.2712 69.431,-79.5679 71.4979,-72.88"/>
</g>
<!-- Node5 -->
<g id="node6" class="node">
<title>Node5</title>
<polygon fill="none" stroke="#bfbfbf" points="79.3823,-56.5 79.3823,-75.5 129.3823,-75.5 129.3823,-56.5 79.3823,-56.5"/>
<text text-anchor="middle" x="104.3823" y="-63.5" font-family="Helvetica,sans-Serif" font-size="10.00" fill="#000000">cstdint</text>
</g>
<!-- Node1&#45;&gt;Node5 -->
<g id="edge5" class="edge">
<title>Node1&#45;&gt;Node5</title>
<path fill="none" stroke="#191970" d="M204.0915,-112.4554C182.7431,-102.509 154.9627,-89.5659 134.149,-79.8686"/>
<polygon fill="#191970" stroke="#191970" points="135.3802,-76.581 124.8376,-75.5303 132.4239,-82.9262 135.3802,-76.581"/>
</g>
<!-- Node6 -->
<g id="node7" class="node">
<title>Node6</title>
<g id="a_node7"><a xlink:href="../../d4/dc6/LHCConstants_8h.html" target="_top" xlink:title="Header to collect LHC related constants. ">
<polygon fill="none" stroke="#000000" points="147.3823,-56.5 147.3823,-75.5 337.3823,-75.5 337.3823,-56.5 147.3823,-56.5"/>
<text text-anchor="middle" x="242.3823" y="-63.5" font-family="Helvetica,sans-Serif" font-size="10.00" fill="#000000">CommonConstants/LHCConstants.h</text>
</a>
</g>
</g>
<!-- Node1&#45;&gt;Node6 -->
<g id="edge6" class="edge">
<title>Node1&#45;&gt;Node6</title>
<path fill="none" stroke="#191970" d="M237.8654,-112.2977C238.6376,-104.3834 239.5916,-94.6043 240.4237,-86.0759"/>
<polygon fill="#191970" stroke="#191970" points="243.934,-86.1396 241.4216,-75.8469 236.9671,-85.4598 243.934,-86.1396"/>
</g>
<!-- Node8 -->
<g id="node9" class="node">
<title>Node8</title>
<polygon fill="none" stroke="#bfbfbf" points="252.8823,-179.5 252.8823,-198.5 299.8823,-198.5 299.8823,-179.5 252.8823,-179.5"/>
<text text-anchor="middle" x="276.3823" y="-186.5" font-family="Helvetica,sans-Serif" font-size="10.00" fill="#000000">vector</text>
</g>
<!-- Node7&#45;&gt;Node8 -->
<g id="edge8" class="edge">
<title>Node7&#45;&gt;Node8</title>
<path fill="none" stroke="#191970" d="M354.0088,-235.2455C339.4515,-226.5731 317.9513,-213.7645 301.2671,-203.825"/>
<polygon fill="#191970" stroke="#191970" points="302.9506,-200.7539 292.5682,-198.6427 299.3679,-206.7676 302.9506,-200.7539"/>
</g>
<!-- Node9 -->
<g id="node10" class="node">
<title>Node9</title>
<g id="a_node10"><a xlink:href="../../d9/dc4/DataFormats_2Detectors_2FIT_2FDD_2include_2DataFormatsFDD_2Digit_8h.html" target="_top" xlink:title="DataFormatsFDD/Digit.h">
<polygon fill="none" stroke="#000000" points="490.8823,-179.5 490.8823,-198.5 625.8823,-198.5 625.8823,-179.5 490.8823,-179.5"/>
<text text-anchor="middle" x="558.3823" y="-186.5" font-family="Helvetica,sans-Serif" font-size="10.00" fill="#000000">DataFormatsFDD/Digit.h</text>
</a>
</g>
</g>
<!-- Node7&#45;&gt;Node9 -->
<g id="edge9" class="edge">
<title>Node7&#45;&gt;Node9</title>
<path fill="none" stroke="#191970" d="M402.7007,-235.3733C434.2329,-225.9807 482.3444,-211.6496 516.7324,-201.4064"/>
<polygon fill="#191970" stroke="#191970" points="517.901,-204.7103 526.4857,-198.5011 515.9026,-198.0016 517.901,-204.7103"/>
</g>
<!-- Node17 -->
<g id="node18" class="node">
<title>Node17</title>
<g id="a_node18"><a xlink:href="../../d8/d0c/RecPoint_8h.html" target="_top" xlink:title="Definition of the FDD RecPoint class. ">
<polygon fill="none" stroke="#000000" points="318.3823,-179.5 318.3823,-198.5 472.3823,-198.5 472.3823,-179.5 318.3823,-179.5"/>
<text text-anchor="middle" x="395.3823" y="-186.5" font-family="Helvetica,sans-Serif" font-size="10.00" fill="#000000">DataFormatsFDD/RecPoint.h</text>
</a>
</g>
</g>
<!-- Node7&#45;&gt;Node17 -->
<g id="edge23" class="edge">
<title>Node7&#45;&gt;Node17</title>
<path fill="none" stroke="#191970" d="M374.737,-235.2455C378.1067,-227.6973 382.8753,-217.0158 386.9806,-207.8197"/>
<polygon fill="#191970" stroke="#191970" points="390.197,-209.2009 391.0775,-198.6427 383.805,-206.3473 390.197,-209.2009"/>
</g>
<!-- Node9&#45;&gt;Node1 -->
<g id="edge13" class="edge">
<title>Node9&#45;&gt;Node1</title>
<path fill="none" stroke="#191970" d="M508.4231,-179.4581C459.5792,-170.1292 384.1505,-155.7228 325.0963,-144.4438"/>
<polygon fill="#191970" stroke="#191970" points="325.4991,-140.9576 315.02,-142.5193 324.1858,-147.8333 325.4991,-140.9576"/>
</g>
<!-- Node9&#45;&gt;Node2 -->
<g id="edge20" class="edge">
<title>Node9&#45;&gt;Node2</title>
<path fill="none" stroke="#191970" d="M497.9539,-179.4142C476.7669,-172.8314 455.1025,-161.7281 442.3823,-143 417.1192,-105.8049 453.1786,-54.1514 476.0438,-27.4846"/>
<polygon fill="#191970" stroke="#191970" points="478.8857,-29.5555 482.9095,-19.7545 473.6519,-24.907 478.8857,-29.5555"/>
</g>
<!-- Node9&#45;&gt;Node3 -->
<g id="edge19" class="edge">
<title>Node9&#45;&gt;Node3</title>
<path fill="none" stroke="#191970" d="M512.3826,-179.46C474.4127,-170.7626 424.4157,-157.1467 409.3823,-143 393.339,-127.9029 386.101,-103.0515 382.8815,-85.677"/>
<polygon fill="#191970" stroke="#191970" points="386.2958,-84.8566 381.294,-75.5168 379.3798,-85.9373 386.2958,-84.8566"/>
</g>
<!-- Node10 -->
<g id="node11" class="node">
<title>Node10</title>
<g id="a_node11"><a xlink:href="../../de/d64/RangeReference_8h.html" target="_top" xlink:title="Class to refer to the 1st entry and N elements of some group in the continuous container. ">
<polygon fill="none" stroke="#000000" points="451.3823,-118 451.3823,-137 661.3823,-137 661.3823,-118 451.3823,-118"/>
<text text-anchor="middle" x="556.3823" y="-125" font-family="Helvetica,sans-Serif" font-size="10.00" fill="#000000">CommonDataFormat/RangeReference.h</text>
</a>
</g>
</g>
<!-- Node9&#45;&gt;Node10 -->
<g id="edge10" class="edge">
<title>Node9&#45;&gt;Node10</title>
<path fill="none" stroke="#191970" d="M558.0698,-179.3906C557.7926,-170.8657 557.3787,-158.1392 557.0302,-147.4235"/>
<polygon fill="#191970" stroke="#191970" points="560.5225,-147.1258 556.6992,-137.2449 553.5262,-147.3534 560.5225,-147.1258"/>
</g>
<!-- Node12 -->
<g id="node13" class="node">
<title>Node12</title>
<g id="a_node13"><a xlink:href="../../df/d5d/common_2include_2CommonDataFormat_2TimeStamp_8h.html" target="_top" xlink:title="CommonDataFormat/TimeStamp.h">
<polygon fill="none" stroke="#000000" points="679.8823,-118 679.8823,-137 866.8823,-137 866.8823,-118 679.8823,-118"/>
<text text-anchor="middle" x="773.3823" y="-125" font-family="Helvetica,sans-Serif" font-size="10.00" fill="#000000">CommonDataFormat/TimeStamp.h</text>
</a>
</g>
</g>
<!-- Node9&#45;&gt;Node12 -->
<g id="edge14" class="edge">
<title>Node9&#45;&gt;Node12</title>
<path fill="none" stroke="#191970" d="M591.9761,-179.3906C629.2906,-168.7169 689.6315,-151.4566 730.3709,-139.8033"/>
<polygon fill="#191970" stroke="#191970" points="731.3726,-143.1572 740.0245,-137.0419 729.4475,-136.4271 731.3726,-143.1572"/>
</g>
<!-- Node13 -->
<g id="node14" class="node">
<title>Node13</title>
<g id="a_node14"><a xlink:href="../../d1/d18/FIT_2FDD_2include_2DataFormatsFDD_2ChannelData_8h.html" target="_top" xlink:title="DataFormatsFDD/ChannelData.h">
<polygon fill="none" stroke="#000000" points="884.8823,-118 884.8823,-137 1059.8823,-137 1059.8823,-118 884.8823,-118"/>
<text text-anchor="middle" x="972.3823" y="-125" font-family="Helvetica,sans-Serif" font-size="10.00" fill="#000000">DataFormatsFDD/ChannelData.h</text>
</a>
</g>
</g>
<!-- Node9&#45;&gt;Node13 -->
<g id="edge16" class="edge">
<title>Node9&#45;&gt;Node13</title>
<path fill="none" stroke="#191970" d="M626.0474,-179.5401C690.4574,-170.4577 790.0868,-156.2072 876.3823,-143 885.39,-141.6214 894.867,-140.1351 904.215,-138.6478"/>
<polygon fill="#191970" stroke="#191970" points="904.9576,-142.0736 914.2796,-137.0385 903.8524,-135.1614 904.9576,-142.0736"/>
</g>
<!-- Node15 -->
<g id="node16" class="node">
<title>Node15</title>
<polygon fill="none" stroke="#bfbfbf" points="1077.8823,-118 1077.8823,-137 1134.8823,-137 1134.8823,-118 1077.8823,-118"/>
<text text-anchor="middle" x="1106.3823" y="-125" font-family="Helvetica,sans-Serif" font-size="10.00" fill="#000000">gsl/span</text>
</g>
<!-- Node9&#45;&gt;Node15 -->
<g id="edge21" class="edge">
<title>Node9&#45;&gt;Node15</title>
<path fill="none" stroke="#191970" d="M625.9171,-185.4941C744.9177,-178.8884 987.145,-163.4077 1069.3823,-143 1072.0164,-142.3463 1074.7059,-141.5325 1077.3729,-140.6224"/>
<polygon fill="#191970" stroke="#191970" points="1078.7042,-143.8606 1086.794,-137.0191 1076.2035,-137.3225 1078.7042,-143.8606"/>
</g>
<!-- Node16 -->
<g id="node17" class="node">
<title>Node16</title>
<polygon fill="none" stroke="#bfbfbf" points="1153.3823,-118 1153.3823,-137 1197.3823,-137 1197.3823,-118 1153.3823,-118"/>
<text text-anchor="middle" x="1175.3823" y="-125" font-family="Helvetica,sans-Serif" font-size="10.00" fill="#000000">bitset</text>
</g>
<!-- Node9&#45;&gt;Node16 -->
<g id="edge22" class="edge">
<title>Node9&#45;&gt;Node16</title>
<path fill="none" stroke="#191970" d="M626.0125,-186.9461C758.6896,-182.3829 1048.5156,-169.6344 1144.3823,-143 1146.0962,-142.5238 1147.8277,-141.9509 1149.5498,-141.31"/>
<polygon fill="#191970" stroke="#191970" points="1151.3814,-144.3279 1159.1233,-137.095 1148.5607,-137.9213 1151.3814,-144.3279"/>
</g>
<!-- Node11 -->
<g id="node12" class="node">
<title>Node11</title>
<g id="a_node12"><a xlink:href="../../d2/d45/GPUCommonRtypes_8h.html" target="_top" xlink:title="GPUCommonRtypes.h">
<polygon fill="none" stroke="#000000" points="493.8823,-56.5 493.8823,-75.5 618.8823,-75.5 618.8823,-56.5 493.8823,-56.5"/>
<text text-anchor="middle" x="556.3823" y="-63.5" font-family="Helvetica,sans-Serif" font-size="10.00" fill="#000000">GPUCommonRtypes.h</text>
</a>
</g>
</g>
<!-- Node10&#45;&gt;Node11 -->
<g id="edge11" class="edge">
<title>Node10&#45;&gt;Node11</title>
<path fill="none" stroke="#191970" d="M556.3823,-117.8906C556.3823,-109.3657 556.3823,-96.6392 556.3823,-85.9235"/>
<polygon fill="#191970" stroke="#191970" points="559.8824,-85.7448 556.3823,-75.7449 552.8824,-85.7449 559.8824,-85.7448"/>
</g>
<!-- Node11&#45;&gt;Node2 -->
<g id="edge12" class="edge">
<title>Node11&#45;&gt;Node2</title>
<path fill="none" stroke="#191970" d="M545.2344,-56.2455C535.8736,-48.0549 522.2965,-36.1749 511.2474,-26.5069"/>
<polygon fill="#191970" stroke="#191970" points="513.2331,-23.5937 503.4025,-19.6427 508.6235,-28.8618 513.2331,-23.5937"/>
</g>
<!-- Node12&#45;&gt;Node11 -->
<g id="edge15" class="edge">
<title>Node12&#45;&gt;Node11</title>
<path fill="none" stroke="#191970" d="M739.4761,-117.8906C701.8144,-107.2169 640.9121,-89.9566 599.7938,-78.3033"/>
<polygon fill="#191970" stroke="#191970" points="600.6259,-74.9013 590.0505,-75.5419 598.7172,-81.6361 600.6259,-74.9013"/>
</g>
<!-- Node13&#45;&gt;Node2 -->
<g id="edge18" class="edge">
<title>Node13&#45;&gt;Node2</title>
<path fill="none" stroke="#191970" d="M933.5085,-117.984C843.6785,-95.9944 622.4788,-41.8465 531.9636,-19.6892"/>
<polygon fill="#191970" stroke="#191970" points="532.6411,-16.2517 522.0956,-17.2736 530.9766,-23.051 532.6411,-16.2517"/>
</g>
<!-- Node14 -->
<g id="node15" class="node">
<title>Node14</title>
<polygon fill="none" stroke="#bfbfbf" points="951.3823,-56.5 951.3823,-75.5 993.3823,-75.5 993.3823,-56.5 951.3823,-56.5"/>
<text text-anchor="middle" x="972.3823" y="-63.5" font-family="Helvetica,sans-Serif" font-size="10.00" fill="#000000">array</text>
</g>
<!-- Node13&#45;&gt;Node14 -->
<g id="edge17" class="edge">
<title>Node13&#45;&gt;Node14</title>
<path fill="none" stroke="#191970" d="M972.3823,-117.8906C972.3823,-109.3657 972.3823,-96.6392 972.3823,-85.9235"/>
<polygon fill="#191970" stroke="#191970" points="975.8824,-85.7448 972.3823,-75.7449 968.8824,-85.7449 975.8824,-85.7448"/>
</g>
<!-- Node17&#45;&gt;Node1 -->
<g id="edge24" class="edge">
<title>Node17&#45;&gt;Node1</title>
<path fill="none" stroke="#191970" d="M370.5386,-179.3906C347.6251,-170.5279 312.971,-157.1239 284.6237,-146.1594"/>
<polygon fill="#191970" stroke="#191970" points="285.8674,-142.8878 275.2781,-142.5446 283.3421,-149.4165 285.8674,-142.8878"/>
</g>
</g>
</svg>
