<?xml version="1.0" encoding="UTF-8" standalone="no"?>
<!DOCTYPE svg PUBLIC "-//W3C//DTD SVG 1.1//EN"
 "http://www.w3.org/Graphics/SVG/1.1/DTD/svg11.dtd">
<!-- Generated by graphviz version 2.40.1 (20161225.0304)
 -->
<!-- Title: /home/travis/build/AliceO2Group/AliceO2/Detectors/Base/src/MatLayerCylSet.cxx Pages: 1 -->
<!--zoomable 430 -->
<svg id="main" version="1.1" xmlns="http://www.w3.org/2000/svg" xmlns:xlink="http://www.w3.org/1999/xlink" xml:space="preserve" onload="init(evt)">
<style type="text/css"><![CDATA[
.edge:hover path { stroke: red; }
.edge:hover polygon { stroke: red; fill: red; }
]]></style>
<script type="text/javascript"><![CDATA[
var edges = document.getElementsByTagName('g');
if (edges && edges.length) {
  for (var i=0;i<edges.length;i++) {
    if (edges[i].id.substr(0,4)=='edge') {
      edges[i].setAttribute('class','edge');
    }
  }
}
]]></script>
        <defs>
                <circle id="rim" cx="0" cy="0" r="7"/>
                <circle id="rim2" cx="0" cy="0" r="3.5"/>
                <g id="zoomPlus">
                        <use xlink:href="#rim" fill="#404040">
                                <set attributeName="fill" to="#808080" begin="zoomplus.mouseover" end="zoomplus.mouseout"/>
                        </use>
                        <path d="M-4,0h8M0,-4v8" fill="none" stroke="white" stroke-width="1.5" pointer-events="none"/>
                </g>
                <g id="zoomMin">
                        <use xlink:href="#rim" fill="#404040">
                                <set attributeName="fill" to="#808080" begin="zoomminus.mouseover" end="zoomminus.mouseout"/>
                        </use>
                        <path d="M-4,0h8" fill="none" stroke="white" stroke-width="1.5" pointer-events="none"/>
                </g>
                <g id="dirArrow">
                        <path fill="none" stroke="white" stroke-width="1.5" d="M0,-3.0v7 M-2.5,-0.5L0,-3.0L2.5,-0.5"/>
                </g>
               <g id="resetDef">
                       <use xlink:href="#rim2" fill="#404040">
                               <set attributeName="fill" to="#808080" begin="reset.mouseover" end="reset.mouseout"/>
                       </use>
               </g>
        </defs>

<script type="text/javascript">
var viewWidth = 2879;
var viewHeight = 430;
var sectionId = 'dynsection-0';
</script>
<script xlink:href="../../svgpan.js"/>
<svg id="graph" class="graph">
<g id="viewport">
<title>/home/travis/build/AliceO2Group/AliceO2/Detectors/Base/src/MatLayerCylSet.cxx</title>
<!-- Node0 -->
<g id="node1" class="node">
<title>Node0</title>
<polygon fill="#bfbfbf" stroke="#000000" points="552.5,-369.5 552.5,-421.5 711.5,-421.5 711.5,-369.5 552.5,-369.5"/>
<text text-anchor="start" x="560.5" y="-409.5" font-family="Helvetica,sans-Serif" font-size="10.00" fill="#000000">/home/travis/build</text>
<text text-anchor="start" x="560.5" y="-398.5" font-family="Helvetica,sans-Serif" font-size="10.00" fill="#000000">/AliceO2Group/AliceO2</text>
<text text-anchor="start" x="560.5" y="-387.5" font-family="Helvetica,sans-Serif" font-size="10.00" fill="#000000">/Detectors/Base/src/MatLayer</text>
<text text-anchor="middle" x="632" y="-376.5" font-family="Helvetica,sans-Serif" font-size="10.00" fill="#000000">CylSet.cxx</text>
</g>
<!-- Node1 -->
<g id="node2" class="node">
<title>Node1</title>
<g id="a_node2"><a xlink:href="../../d9/da9/MatLayerCylSet_8h.html" target="_top" xlink:title="Declarations for the wrapper for the set of cylindrical material layers. ">
<polygon fill="none" stroke="#000000" points="556,-302.5 556,-332.5 708,-332.5 708,-302.5 556,-302.5"/>
<text text-anchor="start" x="564" y="-320.5" font-family="Helvetica,sans-Serif" font-size="10.00" fill="#000000">DetectorsBase/MatLayerCyl</text>
<text text-anchor="middle" x="632" y="-309.5" font-family="Helvetica,sans-Serif" font-size="10.00" fill="#000000">Set.h</text>
</a>
</g>
</g>
<!-- Node0&#45;&gt;Node1 -->
<g id="edge1" class="edge">
<title>Node0&#45;&gt;Node1</title>
<path fill="none" stroke="#191970" d="M632,-369.0928C632,-360.516 632,-351.0289 632,-342.5538"/>
<polygon fill="#191970" stroke="#191970" points="635.5001,-342.5045 632,-332.5046 628.5001,-342.5046 635.5001,-342.5045"/>
</g>
<!-- Node12 -->
<g id="node13" class="node">
<title>Node12</title>
<polygon fill="none" stroke="#bfbfbf" points="0,-62 0,-81 48,-81 48,-62 0,-62"/>
<text text-anchor="middle" x="24" y="-69" font-family="Helvetica,sans-Serif" font-size="10.00" fill="#000000">TFile.h</text>
</g>
<!-- Node0&#45;&gt;Node12 -->
<g id="edge56" class="edge">
<title>Node0&#45;&gt;Node12</title>
<path fill="none" stroke="#191970" d="M552.3147,-391.6706C400.7701,-382.2003 86,-351.085 86,-256 86,-256 86,-256 86,-200 86,-156.7308 57.132,-112.6806 38.7927,-89.0619"/>
<polygon fill="#191970" stroke="#191970" points="41.3523,-86.6595 32.3616,-81.0544 35.8946,-91.0428 41.3523,-86.6595"/>
</g>
<!-- Node15 -->
<g id="node16" class="node">
<title>Node15</title>
<g id="a_node16"><a xlink:href="../../df/d5b/GPUCommonLogger_8h.html" target="_top" xlink:title="GPUCommonLogger.h">
<polygon fill="none" stroke="#000000" points="66.5,-62 66.5,-81 189.5,-81 189.5,-62 66.5,-62"/>
<text text-anchor="middle" x="128" y="-69" font-family="Helvetica,sans-Serif" font-size="10.00" fill="#000000">GPUCommonLogger.h</text>
</a>
</g>
</g>
<!-- Node0&#45;&gt;Node15 -->
<g id="edge55" class="edge">
<title>Node0&#45;&gt;Node15</title>
<path fill="none" stroke="#191970" d="M552.343,-387.1577C423.8313,-371.4625 185,-332.0621 185,-256 185,-256 185,-256 185,-200 185,-157.3679 158.4601,-113.0853 141.5997,-89.2547"/>
<polygon fill="#191970" stroke="#191970" points="144.4151,-87.1752 135.6873,-81.1689 138.7645,-91.307 144.4151,-87.1752"/>
</g>
<!-- Node24 -->
<g id="node25" class="node">
<title>Node24</title>
<g id="a_node25"><a xlink:href="../../d6/d84/MathConstants_8h.html" target="_top" xlink:title="useful math constants ">
<polygon fill="none" stroke="#000000" points="1055,-129 1055,-148 1249,-148 1249,-129 1055,-129"/>
<text text-anchor="middle" x="1152" y="-136" font-family="Helvetica,sans-Serif" font-size="10.00" fill="#000000">CommonConstants/MathConstants.h</text>
</a>
</g>
</g>
<!-- Node0&#45;&gt;Node24 -->
<g id="edge54" class="edge">
<title>Node0&#45;&gt;Node24</title>
<path fill="none" stroke="#191970" d="M686.9384,-369.3732C761.3494,-333.8603 898.1884,-268.1088 1014,-210 1052.6172,-190.6237 1096.9143,-167.5141 1124.6783,-152.9217"/>
<polygon fill="#191970" stroke="#191970" points="1126.5535,-155.89 1133.7728,-148.1355 1123.2935,-149.6955 1126.5535,-155.89"/>
</g>
<!-- Node36 -->
<g id="node37" class="node">
<title>Node36</title>
<g id="a_node37"><a xlink:href="../../d1/d22/TreeStreamRedirector_8h.html" target="_top" xlink:title="CommonUtils/TreeStreamRedirector.h">
<polygon fill="none" stroke="#000000" points="2515,-308 2515,-327 2715,-327 2715,-308 2515,-308"/>
<text text-anchor="middle" x="2615" y="-315" font-family="Helvetica,sans-Serif" font-size="10.00" fill="#000000">CommonUtils/TreeStreamRedirector.h</text>
</a>
</g>
</g>
<!-- Node0&#45;&gt;Node36 -->
<g id="edge57" class="edge">
<title>Node0&#45;&gt;Node36</title>
<path fill="none" stroke="#191970" d="M711.5747,-392.37C1021.2449,-380.1893 2146.4371,-335.9306 2504.6628,-321.84"/>
<polygon fill="#191970" stroke="#191970" points="2504.925,-325.3325 2514.7797,-321.4421 2504.6498,-318.3379 2504.925,-325.3325"/>
</g>
<!-- Node2 -->
<g id="node3" class="node">
<title>Node2</title>
<g id="a_node3"><a xlink:href="../../df/d21/GPUCommonDef_8h.html" target="_top" xlink:title="GPUCommonDef.h">
<polygon fill="none" stroke="#000000" points="493.5,-62 493.5,-81 600.5,-81 600.5,-62 493.5,-62"/>
<text text-anchor="middle" x="547" y="-69" font-family="Helvetica,sans-Serif" font-size="10.00" fill="#000000">GPUCommonDef.h</text>
</a>
</g>
</g>
<!-- Node1&#45;&gt;Node2 -->
<g id="edge2" class="edge">
<title>Node1&#45;&gt;Node2</title>
<path fill="none" stroke="#191970" d="M608.795,-302.2275C581.7823,-283.4016 537.386,-249.0656 510,-210 494.6502,-188.1038 492.9758,-180.2736 488,-154 485.4363,-140.4628 482.2993,-135.5431 488,-123 494.8563,-107.9144 508.5565,-95.5202 521.0303,-86.674"/>
<polygon fill="#191970" stroke="#191970" points="522.9824,-89.5791 529.3709,-81.1269 519.106,-83.7504 522.9824,-89.5791"/>
</g>
<!-- Node5 -->
<g id="node6" class="node">
<title>Node5</title>
<g id="a_node6"><a xlink:href="../../da/df3/MatLayerCyl_8h.html" target="_top" xlink:title="Declarations for single cylindrical material layer class. ">
<polygon fill="none" stroke="#000000" points="551.5,-190.5 551.5,-209.5 712.5,-209.5 712.5,-190.5 551.5,-190.5"/>
<text text-anchor="middle" x="632" y="-197.5" font-family="Helvetica,sans-Serif" font-size="10.00" fill="#000000">DetectorsBase/MatLayerCyl.h</text>
</a>
</g>
</g>
<!-- Node1&#45;&gt;Node5 -->
<g id="edge5" class="edge">
<title>Node1&#45;&gt;Node5</title>
<path fill="none" stroke="#191970" d="M632,-302.1389C632,-280.9692 632,-242.8174 632,-219.6112"/>
<polygon fill="#191970" stroke="#191970" points="635.5001,-219.5594 632,-209.5595 628.5001,-219.5595 635.5001,-219.5594"/>
</g>
<!-- Node8 -->
<g id="node9" class="node">
<title>Node8</title>
<g id="a_node9"><a xlink:href="../../db/dff/FlatObject_8h.html" target="_top" xlink:title="Definition of FlatObject class. ">
<polygon fill="none" stroke="#000000" points="269.5,-129 269.5,-148 344.5,-148 344.5,-129 269.5,-129"/>
<text text-anchor="middle" x="307" y="-136" font-family="Helvetica,sans-Serif" font-size="10.00" fill="#000000">FlatObject.h</text>
</a>
</g>
</g>
<!-- Node1&#45;&gt;Node8 -->
<g id="edge52" class="edge">
<title>Node1&#45;&gt;Node8</title>
<path fill="none" stroke="#191970" d="M555.9143,-311.2691C485.8905,-304.1184 388.5545,-290.145 359,-266 325.6593,-238.7618 313.4936,-186.7476 309.2103,-158.2969"/>
<polygon fill="#191970" stroke="#191970" points="312.6725,-157.7798 307.8902,-148.3257 305.7331,-158.6986 312.6725,-157.7798"/>
</g>
<!-- Node21 -->
<g id="node22" class="node">
<title>Node21</title>
<g id="a_node22"><a xlink:href="../../d4/d1b/Ray_8h.html" target="_top" xlink:title="DetectorsBase/Ray.h">
<polygon fill="none" stroke="#000000" points="736.5,-246.5 736.5,-265.5 853.5,-265.5 853.5,-246.5 736.5,-246.5"/>
<text text-anchor="middle" x="795" y="-253.5" font-family="Helvetica,sans-Serif" font-size="10.00" fill="#000000">DetectorsBase/Ray.h</text>
</a>
</g>
</g>
<!-- Node1&#45;&gt;Node21 -->
<g id="edge29" class="edge">
<title>Node1&#45;&gt;Node21</title>
<path fill="none" stroke="#191970" d="M671.8743,-302.4554C698.952,-292.239 734.4094,-278.8609 760.3166,-269.0861"/>
<polygon fill="#191970" stroke="#191970" points="761.6201,-272.3352 769.7408,-265.5303 759.149,-265.7858 761.6201,-272.3352"/>
</g>
<!-- Node25 -->
<g id="node26" class="node">
<title>Node25</title>
<g id="a_node26"><a xlink:href="../../dd/d76/Cartesian3D_8h.html" target="_top" xlink:title="MathUtils/Cartesian3D.h">
<polygon fill="none" stroke="#000000" points="1602.5,-190.5 1602.5,-209.5 1737.5,-209.5 1737.5,-190.5 1602.5,-190.5"/>
<text text-anchor="middle" x="1670" y="-197.5" font-family="Helvetica,sans-Serif" font-size="10.00" fill="#000000">MathUtils/Cartesian3D.h</text>
</a>
</g>
</g>
<!-- Node1&#45;&gt;Node25 -->
<g id="edge53" class="edge">
<title>Node1&#45;&gt;Node25</title>
<path fill="none" stroke="#191970" d="M708.3266,-308.8599C899.9,-287.1741 1399.4768,-230.6228 1592.4035,-208.7838"/>
<polygon fill="#191970" stroke="#191970" points="1592.9185,-212.2479 1602.4614,-207.6453 1592.1311,-205.2924 1592.9185,-212.2479"/>
</g>
<!-- Node3 -->
<g id="node4" class="node">
<title>Node3</title>
<g id="a_node4"><a xlink:href="../../d5/d93/GPUCommonDefSettings_8h.html" target="_top" xlink:title="GPUCommonDefSettings.h">
<polygon fill="none" stroke="#000000" points="396,-.5 396,-19.5 544,-19.5 544,-.5 396,-.5"/>
<text text-anchor="middle" x="470" y="-7.5" font-family="Helvetica,sans-Serif" font-size="10.00" fill="#000000">GPUCommonDefSettings.h</text>
</a>
</g>
</g>
<!-- Node2&#45;&gt;Node3 -->
<g id="edge3" class="edge">
<title>Node2&#45;&gt;Node3</title>
<path fill="none" stroke="#191970" d="M534.9688,-61.8906C522.9893,-52.3227 504.3834,-37.4621 490.1475,-26.0919"/>
<polygon fill="#191970" stroke="#191970" points="491.9447,-23.0479 481.9468,-19.5419 487.5761,-28.5175 491.9447,-23.0479"/>
</g>
<!-- Node4 -->
<g id="node5" class="node">
<title>Node4</title>
<g id="a_node5"><a xlink:href="../../da/d5a/GPUCommonDefAPI_8h.html" target="_top" xlink:title="GPUCommonDefAPI.h">
<polygon fill="none" stroke="#000000" points="562,-.5 562,-19.5 686,-19.5 686,-.5 562,-.5"/>
<text text-anchor="middle" x="624" y="-7.5" font-family="Helvetica,sans-Serif" font-size="10.00" fill="#000000">GPUCommonDefAPI.h</text>
</a>
</g>
</g>
<!-- Node2&#45;&gt;Node4 -->
<g id="edge4" class="edge">
<title>Node2&#45;&gt;Node4</title>
<path fill="none" stroke="#191970" d="M559.0313,-61.8906C571.0107,-52.3227 589.6166,-37.4621 603.8525,-26.0919"/>
<polygon fill="#191970" stroke="#191970" points="606.4239,-28.5175 612.0532,-19.5419 602.0553,-23.0479 606.4239,-28.5175"/>
</g>
<!-- Node5&#45;&gt;Node2 -->
<g id="edge8" class="edge">
<title>Node5&#45;&gt;Node2</title>
<path fill="none" stroke="#191970" d="M591.209,-190.4886C558.3827,-181.9113 516.1108,-168.4548 506,-154 491.2132,-132.8602 511.336,-105.6083 528.2478,-88.3384"/>
<polygon fill="#191970" stroke="#191970" points="530.9072,-90.6352 535.6553,-81.1638 526.0371,-85.607 530.9072,-90.6352"/>
</g>
<!-- Node6 -->
<g id="node7" class="node">
<title>Node6</title>
<polygon fill="none" stroke="#bfbfbf" points="894.5,-62 894.5,-81 941.5,-81 941.5,-62 894.5,-62"/>
<text text-anchor="middle" x="918" y="-69" font-family="Helvetica,sans-Serif" font-size="10.00" fill="#000000">cmath</text>
</g>
<!-- Node5&#45;&gt;Node6 -->
<g id="edge6" class="edge">
<title>Node5&#45;&gt;Node6</title>
<path fill="none" stroke="#191970" d="M653.7222,-190.4647C697.563,-171.1834 799.7173,-126.0695 885,-87 886.1653,-86.4662 887.3527,-85.9198 888.5515,-85.3662"/>
<polygon fill="#191970" stroke="#191970" points="890.1943,-88.4622 897.784,-81.0697 887.2409,-82.1157 890.1943,-88.4622"/>
</g>
<!-- Node7 -->
<g id="node8" class="node">
<title>Node7</title>
<polygon fill="none" stroke="#bfbfbf" points="425,-62 425,-81 475,-81 475,-62 425,-62"/>
<text text-anchor="middle" x="450" y="-69" font-family="Helvetica,sans-Serif" font-size="10.00" fill="#000000">cstring</text>
</g>
<!-- Node5&#45;&gt;Node7 -->
<g id="edge7" class="edge">
<title>Node5&#45;&gt;Node7</title>
<path fill="none" stroke="#191970" d="M575.905,-190.4514C549.7056,-183.7457 519.4259,-172.5346 497,-154 476.7247,-137.2429 463.4645,-109.3222 456.3517,-90.6656"/>
<polygon fill="#191970" stroke="#191970" points="459.6099,-89.3822 452.9472,-81.1446 453.0187,-91.7392 459.6099,-89.3822"/>
</g>
<!-- Node5&#45;&gt;Node8 -->
<g id="edge9" class="edge">
<title>Node5&#45;&gt;Node8</title>
<path fill="none" stroke="#191970" d="M581.5753,-190.4581C519.7199,-178.7532 415.6227,-159.0548 354.9297,-147.5698"/>
<polygon fill="#191970" stroke="#191970" points="355.325,-144.0825 344.8485,-145.6621 354.0234,-150.9605 355.325,-144.0825"/>
</g>
<!-- Node13 -->
<g id="node14" class="node">
<title>Node13</title>
<g id="a_node14"><a xlink:href="../../d2/d45/GPUCommonRtypes_8h.html" target="_top" xlink:title="GPUCommonRtypes.h">
<polygon fill="none" stroke="#000000" points="618.5,-62 618.5,-81 743.5,-81 743.5,-62 618.5,-62"/>
<text text-anchor="middle" x="681" y="-69" font-family="Helvetica,sans-Serif" font-size="10.00" fill="#000000">GPUCommonRtypes.h</text>
</a>
</g>
</g>
<!-- Node5&#45;&gt;Node13 -->
<g id="edge21" class="edge">
<title>Node5&#45;&gt;Node13</title>
<path fill="none" stroke="#191970" d="M639.4453,-190.2885C645.9922,-181.3165 655.3362,-167.39 661,-154 669.666,-133.5126 675.0656,-108.5046 678.038,-91.4287"/>
<polygon fill="#191970" stroke="#191970" points="681.5054,-91.9113 679.6507,-81.4801 674.5956,-90.7912 681.5054,-91.9113"/>
</g>
<!-- Node18 -->
<g id="node19" class="node">
<title>Node18</title>
<g id="a_node19"><a xlink:href="../../d6/da2/GPUCommonMath_8h.html" target="_top" xlink:title="GPUCommonMath.h">
<polygon fill="none" stroke="#000000" points="823.5,-129 823.5,-148 938.5,-148 938.5,-129 823.5,-129"/>
<text text-anchor="middle" x="881" y="-136" font-family="Helvetica,sans-Serif" font-size="10.00" fill="#000000">GPUCommonMath.h</text>
</a>
</g>
</g>
<!-- Node5&#45;&gt;Node18 -->
<g id="edge22" class="edge">
<title>Node5&#45;&gt;Node18</title>
<path fill="none" stroke="#191970" d="M670.633,-190.4581C714.2481,-179.6857 785.2753,-162.1428 832.5641,-150.4631"/>
<polygon fill="#191970" stroke="#191970" points="833.4073,-153.8601 842.2763,-148.0643 831.7288,-147.0643 833.4073,-153.8601"/>
</g>
<!-- Node20 -->
<g id="node21" class="node">
<title>Node20</title>
<g id="a_node21"><a xlink:href="../../db/dba/MatCell_8h.html" target="_top" xlink:title="Declarations for material properties of the cell (voxel) ">
<polygon fill="none" stroke="#000000" points="515.5,-129 515.5,-148 652.5,-148 652.5,-129 515.5,-129"/>
<text text-anchor="middle" x="584" y="-136" font-family="Helvetica,sans-Serif" font-size="10.00" fill="#000000">DetectorsBase/MatCell.h</text>
</a>
</g>
</g>
<!-- Node5&#45;&gt;Node20 -->
<g id="edge26" class="edge">
<title>Node5&#45;&gt;Node20</title>
<path fill="none" stroke="#191970" d="M624.5,-190.3906C617.4262,-181.3273 606.6458,-167.5149 597.9854,-156.4188"/>
<polygon fill="#191970" stroke="#191970" points="600.5176,-153.9746 591.6057,-148.2449 594.9994,-158.2815 600.5176,-153.9746"/>
</g>
<!-- Node8&#45;&gt;Node2 -->
<g id="edge15" class="edge">
<title>Node8&#45;&gt;Node2</title>
<path fill="none" stroke="#191970" d="M338.5906,-128.9608C345.3189,-126.9636 352.3882,-124.8908 359,-123 407.5356,-109.1204 463.3406,-93.93 501.4638,-83.6689"/>
<polygon fill="#191970" stroke="#191970" points="502.4939,-87.0164 511.2427,-81.0406 500.6769,-80.2563 502.4939,-87.0164"/>
</g>
<!-- Node8&#45;&gt;Node7 -->
<g id="edge12" class="edge">
<title>Node8&#45;&gt;Node7</title>
<path fill="none" stroke="#191970" d="M327.4884,-128.9005C351.8056,-117.5072 392.5486,-98.4178 420.3169,-85.4075"/>
<polygon fill="#191970" stroke="#191970" points="421.9792,-88.4938 429.5496,-81.0817 419.0093,-82.1551 421.9792,-88.4938"/>
</g>
<!-- Node9 -->
<g id="node10" class="node">
<title>Node9</title>
<polygon fill="none" stroke="#bfbfbf" points="207.5,-62 207.5,-81 260.5,-81 260.5,-62 207.5,-62"/>
<text text-anchor="middle" x="234" y="-69" font-family="Helvetica,sans-Serif" font-size="10.00" fill="#000000">cstddef</text>
</g>
<!-- Node8&#45;&gt;Node9 -->
<g id="edge10" class="edge">
<title>Node8&#45;&gt;Node9</title>
<path fill="none" stroke="#191970" d="M296.5409,-128.9005C284.9403,-118.2535 266.0171,-100.8856 252.0195,-88.0385"/>
<polygon fill="#191970" stroke="#191970" points="254.1737,-85.2649 244.4397,-81.0817 249.4404,-90.4221 254.1737,-85.2649"/>
</g>
<!-- Node10 -->
<g id="node11" class="node">
<title>Node10</title>
<polygon fill="none" stroke="#bfbfbf" points="279,-62 279,-81 337,-81 337,-62 279,-62"/>
<text text-anchor="middle" x="308" y="-69" font-family="Helvetica,sans-Serif" font-size="10.00" fill="#000000">memory</text>
</g>
<!-- Node8&#45;&gt;Node10 -->
<g id="edge11" class="edge">
<title>Node8&#45;&gt;Node10</title>
<path fill="none" stroke="#191970" d="M307.1433,-128.9005C307.2888,-119.149 307.5185,-103.7597 307.7034,-91.3695"/>
<polygon fill="#191970" stroke="#191970" points="311.2073,-91.1328 307.857,-81.0817 304.208,-91.0283 311.2073,-91.1328"/>
</g>
<!-- Node11 -->
<g id="node12" class="node">
<title>Node11</title>
<polygon fill="none" stroke="#bfbfbf" points="355,-62 355,-81 407,-81 407,-62 355,-62"/>
<text text-anchor="middle" x="381" y="-69" font-family="Helvetica,sans-Serif" font-size="10.00" fill="#000000">cassert</text>
</g>
<!-- Node8&#45;&gt;Node11 -->
<g id="edge13" class="edge">
<title>Node8&#45;&gt;Node11</title>
<path fill="none" stroke="#191970" d="M317.6024,-128.9005C329.3619,-118.2535 348.5443,-100.8856 362.7336,-88.0385"/>
<polygon fill="#191970" stroke="#191970" points="365.3534,-90.388 370.4173,-81.0817 360.6551,-85.1989 365.3534,-90.388"/>
</g>
<!-- Node8&#45;&gt;Node12 -->
<g id="edge14" class="edge">
<title>Node8&#45;&gt;Node12</title>
<path fill="none" stroke="#191970" d="M269.429,-133.586C219.8777,-126.4698 130.375,-111.4082 57,-87 55.3483,-86.4506 53.6707,-85.8403 51.9918,-85.1887"/>
<polygon fill="#191970" stroke="#191970" points="53.1035,-81.8574 42.533,-81.1386 50.3481,-88.2923 53.1035,-81.8574"/>
</g>
<!-- Node8&#45;&gt;Node13 -->
<g id="edge16" class="edge">
<title>Node8&#45;&gt;Node13</title>
<path fill="none" stroke="#191970" d="M344.7598,-132.5974C402.0267,-123.5244 514.2107,-105.2764 609,-87 615.1795,-85.8085 621.6442,-84.5023 628.0562,-83.1694"/>
<polygon fill="#191970" stroke="#191970" points="628.9765,-86.5524 638.0399,-81.0656 627.5331,-79.7028 628.9765,-86.5524"/>
</g>
<!-- Node8&#45;&gt;Node15 -->
<g id="edge18" class="edge">
<title>Node8&#45;&gt;Node15</title>
<path fill="none" stroke="#191970" d="M281.3537,-128.9005C250.383,-117.3082 198.1268,-97.7486 163.3494,-84.7313"/>
<polygon fill="#191970" stroke="#191970" points="164.1912,-81.3093 153.5988,-81.0817 161.7373,-87.8651 164.1912,-81.3093"/>
</g>
<!-- Node14 -->
<g id="node15" class="node">
<title>Node14</title>
<polygon fill="none" stroke="#bfbfbf" points="2514.5,-.5 2514.5,-19.5 2573.5,-19.5 2573.5,-.5 2514.5,-.5"/>
<text text-anchor="middle" x="2544" y="-7.5" font-family="Helvetica,sans-Serif" font-size="10.00" fill="#000000">Rtypes.h</text>
</g>
<!-- Node13&#45;&gt;Node14 -->
<g id="edge17" class="edge">
<title>Node13&#45;&gt;Node14</title>
<path fill="none" stroke="#191970" d="M743.5693,-62.3312C762.6119,-59.87 783.6274,-57.4828 803,-56 1149.6644,-29.4654 2278.4924,-13.4823 2504.4267,-10.5069"/>
<polygon fill="#191970" stroke="#191970" points="2504.543,-14.0057 2514.4963,-10.375 2504.4513,-7.0063 2504.543,-14.0057"/>
</g>
<!-- Node16 -->
<g id="node17" class="node">
<title>Node16</title>
<polygon fill="none" stroke="#bfbfbf" points="134,-.5 134,-19.5 194,-19.5 194,-.5 134,-.5"/>
<text text-anchor="middle" x="164" y="-7.5" font-family="Helvetica,sans-Serif" font-size="10.00" fill="#000000">iostream</text>
</g>
<!-- Node15&#45;&gt;Node16 -->
<g id="edge19" class="edge">
<title>Node15&#45;&gt;Node16</title>
<path fill="none" stroke="#191970" d="M133.625,-61.8906C138.8253,-53.0068 146.6966,-39.5601 153.1233,-28.5811"/>
<polygon fill="#191970" stroke="#191970" points="156.2644,-30.1432 158.2957,-19.7449 150.2233,-26.6069 156.2644,-30.1432"/>
</g>
<!-- Node17 -->
<g id="node18" class="node">
<title>Node17</title>
<polygon fill="none" stroke="#bfbfbf" points="70,-.5 70,-19.5 116,-19.5 116,-.5 70,-.5"/>
<text text-anchor="middle" x="93" y="-7.5" font-family="Helvetica,sans-Serif" font-size="10.00" fill="#000000">cstdio</text>
</g>
<!-- Node15&#45;&gt;Node17 -->
<g id="edge20" class="edge">
<title>Node15&#45;&gt;Node17</title>
<path fill="none" stroke="#191970" d="M122.5313,-61.8906C117.4754,-53.0068 109.8228,-39.5601 103.5746,-28.5811"/>
<polygon fill="#191970" stroke="#191970" points="106.534,-26.7048 98.5459,-19.7449 100.4502,-30.1672 106.534,-26.7048"/>
</g>
<!-- Node18&#45;&gt;Node2 -->
<g id="edge23" class="edge">
<title>Node18&#45;&gt;Node2</title>
<path fill="none" stroke="#191970" d="M825.5888,-128.9774C770.4897,-119.2809 683.6407,-103.3819 609,-87 603.981,-85.8985 598.7489,-84.6882 593.5449,-83.4446"/>
<polygon fill="#191970" stroke="#191970" points="594.1799,-79.997 583.6357,-81.0318 592.5238,-86.7983 594.1799,-79.997"/>
</g>
<!-- Node18&#45;&gt;Node6 -->
<g id="edge24" class="edge">
<title>Node18&#45;&gt;Node6</title>
<path fill="none" stroke="#191970" d="M886.3012,-128.9005C891.9062,-118.751 900.8839,-102.4941 907.8565,-89.8679"/>
<polygon fill="#191970" stroke="#191970" points="910.9382,-91.5275 912.7086,-81.0817 904.8105,-88.1435 910.9382,-91.5275"/>
</g>
<!-- Node19 -->
<g id="node20" class="node">
<title>Node19</title>
<polygon fill="none" stroke="#bfbfbf" points="812,-62 812,-81 876,-81 876,-62 812,-62"/>
<text text-anchor="middle" x="844" y="-69" font-family="Helvetica,sans-Serif" font-size="10.00" fill="#000000">algorithm</text>
</g>
<!-- Node18&#45;&gt;Node19 -->
<g id="edge25" class="edge">
<title>Node18&#45;&gt;Node19</title>
<path fill="none" stroke="#191970" d="M875.6988,-128.9005C870.0938,-118.751 861.1161,-102.4941 854.1435,-89.8679"/>
<polygon fill="#191970" stroke="#191970" points="857.1895,-88.1435 849.2914,-81.0817 851.0618,-91.5275 857.1895,-88.1435"/>
</g>
<!-- Node20&#45;&gt;Node2 -->
<g id="edge27" class="edge">
<title>Node20&#45;&gt;Node2</title>
<path fill="none" stroke="#191970" d="M578.6988,-128.9005C573.0938,-118.751 564.1161,-102.4941 557.1435,-89.8679"/>
<polygon fill="#191970" stroke="#191970" points="560.1895,-88.1435 552.2914,-81.0817 554.0618,-91.5275 560.1895,-88.1435"/>
</g>
<!-- Node20&#45;&gt;Node13 -->
<g id="edge28" class="edge">
<title>Node20&#45;&gt;Node13</title>
<path fill="none" stroke="#191970" d="M597.8977,-128.9005C613.8164,-117.9052 640.1121,-99.7422 658.8599,-86.7927"/>
<polygon fill="#191970" stroke="#191970" points="660.8892,-89.6448 667.128,-81.0817 656.9108,-83.8852 660.8892,-89.6448"/>
</g>
<!-- Node21&#45;&gt;Node2 -->
<g id="edge31" class="edge">
<title>Node21&#45;&gt;Node2</title>
<path fill="none" stroke="#191970" d="M736.4285,-250.1321C672.2311,-242.8731 574.0811,-229.094 542,-210 504.5915,-187.7353 480.6383,-163.3411 497,-123 502.7477,-108.8284 514.4747,-96.4093 525.1275,-87.3189"/>
<polygon fill="#191970" stroke="#191970" points="527.3396,-90.0314 532.9476,-81.0425 522.958,-84.5723 527.3396,-90.0314"/>
</g>
<!-- Node21&#45;&gt;Node5 -->
<g id="edge33" class="edge">
<title>Node21&#45;&gt;Node5</title>
<path fill="none" stroke="#191970" d="M766.9793,-246.3733C739.9922,-237.1016 698.9983,-223.0178 669.2689,-212.804"/>
<polygon fill="#191970" stroke="#191970" points="670.2497,-209.4403 659.6551,-209.5011 667.9752,-216.0605 670.2497,-209.4403"/>
</g>
<!-- Node21&#45;&gt;Node13 -->
<g id="edge30" class="edge">
<title>Node21&#45;&gt;Node13</title>
<path fill="none" stroke="#191970" d="M789.0314,-246.3402C770.8707,-216.9487 716.0735,-128.2637 692.2562,-89.7172"/>
<polygon fill="#191970" stroke="#191970" points="695.1435,-87.7315 686.9095,-81.0641 689.1885,-91.411 695.1435,-87.7315"/>
</g>
<!-- Node21&#45;&gt;Node18 -->
<g id="edge32" class="edge">
<title>Node21&#45;&gt;Node18</title>
<path fill="none" stroke="#191970" d="M802.0377,-246.3845C816.4005,-226.761 849.288,-181.8274 867.769,-156.5772"/>
<polygon fill="#191970" stroke="#191970" points="870.7831,-158.3851 873.865,-148.2484 865.1345,-154.2507 870.7831,-158.3851"/>
</g>
<!-- Node22 -->
<g id="node23" class="node">
<title>Node22</title>
<g id="a_node23"><a xlink:href="../../d9/d52/Common_2MathUtils_2include_2MathUtils_2Utils_8h.html" target="_top" xlink:title="MathUtils/Utils.h">
<polygon fill="none" stroke="#000000" points="907,-190.5 907,-209.5 1005,-209.5 1005,-190.5 907,-190.5"/>
<text text-anchor="middle" x="956" y="-197.5" font-family="Helvetica,sans-Serif" font-size="10.00" fill="#000000">MathUtils/Utils.h</text>
</a>
</g>
</g>
<!-- Node21&#45;&gt;Node22 -->
<g id="edge34" class="edge">
<title>Node21&#45;&gt;Node22</title>
<path fill="none" stroke="#191970" d="M822.6769,-246.3733C849.3328,-237.1016 889.8238,-223.0178 919.1884,-212.804"/>
<polygon fill="#191970" stroke="#191970" points="920.3891,-216.0921 928.6843,-209.5011 918.0895,-209.4807 920.3891,-216.0921"/>
</g>
<!-- Node21&#45;&gt;Node25 -->
<g id="edge40" class="edge">
<title>Node21&#45;&gt;Node25</title>
<path fill="none" stroke="#191970" d="M853.7699,-252.2387C1007.146,-242.4227 1419.5823,-216.0267 1592.2749,-204.9744"/>
<polygon fill="#191970" stroke="#191970" points="1592.5498,-208.4641 1602.3058,-204.3324 1592.1026,-201.4784 1592.5498,-208.4641"/>
</g>
<!-- Node22&#45;&gt;Node2 -->
<g id="edge37" class="edge">
<title>Node22&#45;&gt;Node2</title>
<path fill="none" stroke="#191970" d="M925.5927,-190.4466C852.8172,-167.5819 668.6171,-109.7098 586.9922,-84.0648"/>
<polygon fill="#191970" stroke="#191970" points="587.9189,-80.6873 577.3296,-81.029 585.8207,-87.3655 587.9189,-80.6873"/>
</g>
<!-- Node22&#45;&gt;Node6 -->
<g id="edge36" class="edge">
<title>Node22&#45;&gt;Node6</title>
<path fill="none" stroke="#191970" d="M973.0567,-190.377C985.3089,-182.4014 1000.8708,-169.8248 1008,-154 1013.6592,-141.4381 1014.9119,-134.9186 1008,-123 995.815,-101.9886 971.4746,-88.8197 951.1763,-81.063"/>
<polygon fill="#191970" stroke="#191970" points="952.202,-77.7134 941.6073,-77.6793 949.8683,-84.313 952.202,-77.7134"/>
</g>
<!-- Node22&#45;&gt;Node18 -->
<g id="edge38" class="edge">
<title>Node22&#45;&gt;Node18</title>
<path fill="none" stroke="#191970" d="M944.2813,-190.3906C932.6812,-180.8786 914.7021,-166.1357 900.8679,-154.7917"/>
<polygon fill="#191970" stroke="#191970" points="902.836,-151.8792 892.884,-148.2449 898.3974,-157.2921 902.836,-151.8792"/>
</g>
<!-- Node23 -->
<g id="node24" class="node">
<title>Node23</title>
<polygon fill="none" stroke="#bfbfbf" points="957,-129 957,-148 999,-148 999,-129 957,-129"/>
<text text-anchor="middle" x="978" y="-136" font-family="Helvetica,sans-Serif" font-size="10.00" fill="#000000">array</text>
</g>
<!-- Node22&#45;&gt;Node23 -->
<g id="edge35" class="edge">
<title>Node22&#45;&gt;Node23</title>
<path fill="none" stroke="#191970" d="M959.4375,-190.3906C962.5513,-181.6862 967.232,-168.6015 971.114,-157.7494"/>
<polygon fill="#191970" stroke="#191970" points="974.4412,-158.8394 974.514,-148.2449 967.8503,-156.4817 974.4412,-158.8394"/>
</g>
<!-- Node22&#45;&gt;Node24 -->
<g id="edge39" class="edge">
<title>Node22&#45;&gt;Node24</title>
<path fill="none" stroke="#191970" d="M986.625,-190.3906C1020.2824,-179.8298 1074.4899,-162.8208 1111.6059,-151.1747"/>
<polygon fill="#191970" stroke="#191970" points="1113.0966,-154.3753 1121.5901,-148.0419 1111.0009,-147.6963 1113.0966,-154.3753"/>
</g>
<!-- Node25&#45;&gt;Node14 -->
<g id="edge46" class="edge">
<title>Node25&#45;&gt;Node14</title>
<path fill="none" stroke="#191970" d="M1737.6509,-198.6968C1934.7166,-194.5949 2496.2411,-180.6138 2525,-154 2559.2856,-122.2717 2553.9001,-61.0579 2548.3046,-29.6463"/>
<polygon fill="#191970" stroke="#191970" points="2551.6783,-28.6639 2546.3067,-19.5318 2544.811,-30.0205 2551.6783,-28.6639"/>
</g>
<!-- Node26 -->
<g id="node27" class="node">
<title>Node26</title>
<polygon fill="none" stroke="#bfbfbf" points="1588,-123.5 1588,-153.5 1752,-153.5 1752,-123.5 1588,-123.5"/>
<text text-anchor="start" x="1596" y="-141.5" font-family="Helvetica,sans-Serif" font-size="10.00" fill="#000000">Math/GenVector/Displacement</text>
<text text-anchor="middle" x="1670" y="-130.5" font-family="Helvetica,sans-Serif" font-size="10.00" fill="#000000">Vector3D.h</text>
</g>
<!-- Node25&#45;&gt;Node26 -->
<g id="edge41" class="edge">
<title>Node25&#45;&gt;Node26</title>
<path fill="none" stroke="#191970" d="M1670,-190.3906C1670,-183.2234 1670,-173.0862 1670,-163.671"/>
<polygon fill="#191970" stroke="#191970" points="1673.5001,-163.5446 1670,-153.5446 1666.5001,-163.5446 1673.5001,-163.5446"/>
</g>
<!-- Node27 -->
<g id="node28" class="node">
<title>Node27</title>
<polygon fill="none" stroke="#bfbfbf" points="1770.5,-129 1770.5,-148 1959.5,-148 1959.5,-129 1770.5,-129"/>
<text text-anchor="middle" x="1865" y="-136" font-family="Helvetica,sans-Serif" font-size="10.00" fill="#000000">Math/GenVector/PositionVector3D.h</text>
</g>
<!-- Node25&#45;&gt;Node27 -->
<g id="edge42" class="edge">
<title>Node25&#45;&gt;Node27</title>
<path fill="none" stroke="#191970" d="M1700.4688,-190.3906C1733.9544,-179.8298 1787.8853,-162.8208 1824.812,-151.1747"/>
<polygon fill="#191970" stroke="#191970" points="1826.261,-154.3877 1834.7452,-148.0419 1824.1555,-147.7118 1826.261,-154.3877"/>
</g>
<!-- Node28 -->
<g id="node29" class="node">
<title>Node28</title>
<polygon fill="none" stroke="#bfbfbf" points="1978,-129 1978,-148 2138,-148 2138,-129 1978,-129"/>
<text text-anchor="middle" x="2058" y="-136" font-family="Helvetica,sans-Serif" font-size="10.00" fill="#000000">Math/GenVector/Rotation3D.h</text>
</g>
<!-- Node25&#45;&gt;Node28 -->
<g id="edge43" class="edge">
<title>Node25&#45;&gt;Node28</title>
<path fill="none" stroke="#191970" d="M1734.2166,-190.4958C1794.8043,-181.4398 1888.148,-167.2585 1969,-154 1977.232,-152.6501 1985.8851,-151.192 1994.429,-149.729"/>
<polygon fill="#191970" stroke="#191970" points="1995.1161,-153.1623 2004.3769,-148.0155 1993.9278,-146.2639 1995.1161,-153.1623"/>
</g>
<!-- Node29 -->
<g id="node30" class="node">
<title>Node29</title>
<polygon fill="none" stroke="#bfbfbf" points="2156,-129 2156,-148 2324,-148 2324,-129 2156,-129"/>
<text text-anchor="middle" x="2240" y="-136" font-family="Helvetica,sans-Serif" font-size="10.00" fill="#000000">Math/GenVector/Transform3D.h</text>
</g>
<!-- Node25&#45;&gt;Node29 -->
<g id="edge44" class="edge">
<title>Node25&#45;&gt;Node29</title>
<path fill="none" stroke="#191970" d="M1737.705,-194.9504C1830.3206,-187.7057 2001.6154,-173.1024 2147,-154 2156.5156,-152.7497 2166.5508,-151.2591 2176.3685,-149.7038"/>
<polygon fill="#191970" stroke="#191970" points="2177.1771,-153.1186 2186.49,-148.0669 2176.0595,-146.2084 2177.1771,-153.1186"/>
</g>
<!-- Node30 -->
<g id="node31" class="node">
<title>Node30</title>
<polygon fill="none" stroke="#bfbfbf" points="2342.5,-129 2342.5,-148 2515.5,-148 2515.5,-129 2342.5,-129"/>
<text text-anchor="middle" x="2429" y="-136" font-family="Helvetica,sans-Serif" font-size="10.00" fill="#000000">Math/GenVector/Translation3D.h</text>
</g>
<!-- Node25&#45;&gt;Node30 -->
<g id="edge45" class="edge">
<title>Node25&#45;&gt;Node30</title>
<path fill="none" stroke="#191970" d="M1737.952,-197.3241C1858.2295,-192.1336 2116.3624,-178.9521 2333,-154 2343.4855,-152.7923 2354.5752,-151.25 2365.3486,-149.6086"/>
<polygon fill="#191970" stroke="#191970" points="2366.212,-153.0162 2375.5507,-148.0122 2365.1298,-146.1003 2366.212,-153.0162"/>
</g>
<!-- Node31 -->
<g id="node32" class="node">
<title>Node31</title>
<polygon fill="none" stroke="#bfbfbf" points="1267,-129 1267,-148 1349,-148 1349,-129 1267,-129"/>
<text text-anchor="middle" x="1308" y="-136" font-family="Helvetica,sans-Serif" font-size="10.00" fill="#000000">TGeoMatrix.h</text>
</g>
<!-- Node25&#45;&gt;Node31 -->
<g id="edge47" class="edge">
<title>Node25&#45;&gt;Node31</title>
<path fill="none" stroke="#191970" d="M1602.4338,-192.9332C1539.0771,-185.618 1441.9425,-172.6301 1359,-154 1354.8861,-153.076 1350.6211,-151.9899 1346.3891,-150.8286"/>
<polygon fill="#191970" stroke="#191970" points="1347.2391,-147.4312 1336.6608,-148.0238 1345.2998,-154.1572 1347.2391,-147.4312"/>
</g>
<!-- Node32 -->
<g id="node33" class="node">
<title>Node32</title>
<polygon fill="none" stroke="#bfbfbf" points="1520.5,-129 1520.5,-148 1569.5,-148 1569.5,-129 1520.5,-129"/>
<text text-anchor="middle" x="1545" y="-136" font-family="Helvetica,sans-Serif" font-size="10.00" fill="#000000">iosfwd</text>
</g>
<!-- Node25&#45;&gt;Node32 -->
<g id="edge48" class="edge">
<title>Node25&#45;&gt;Node32</title>
<path fill="none" stroke="#191970" d="M1650.4688,-190.3906C1629.8292,-180.2359 1597.0724,-164.1196 1573.5398,-152.5416"/>
<polygon fill="#191970" stroke="#191970" points="1574.912,-149.3161 1564.3941,-148.0419 1571.8218,-155.5971 1574.912,-149.3161"/>
</g>
<!-- Node33 -->
<g id="node34" class="node">
<title>Node33</title>
<g id="a_node34"><a xlink:href="../../d2/dd0/Cartesian2D_8h.html" target="_top" xlink:title="MathUtils/Cartesian2D.h">
<polygon fill="none" stroke="#000000" points="1367.5,-129 1367.5,-148 1502.5,-148 1502.5,-129 1367.5,-129"/>
<text text-anchor="middle" x="1435" y="-136" font-family="Helvetica,sans-Serif" font-size="10.00" fill="#000000">MathUtils/Cartesian2D.h</text>
</a>
</g>
</g>
<!-- Node25&#45;&gt;Node33 -->
<g id="edge49" class="edge">
<title>Node25&#45;&gt;Node33</title>
<path fill="none" stroke="#191970" d="M1633.5391,-190.4581C1592.5485,-179.7308 1525.9031,-162.2895 1481.274,-150.61"/>
<polygon fill="#191970" stroke="#191970" points="1482.1068,-147.2101 1471.5464,-148.0643 1480.3345,-153.9821 1482.1068,-147.2101"/>
</g>
<!-- Node34 -->
<g id="node35" class="node">
<title>Node34</title>
<polygon fill="none" stroke="#bfbfbf" points="1450,-56.5 1450,-86.5 1614,-86.5 1614,-56.5 1450,-56.5"/>
<text text-anchor="start" x="1458" y="-74.5" font-family="Helvetica,sans-Serif" font-size="10.00" fill="#000000">Math/GenVector/Displacement</text>
<text text-anchor="middle" x="1532" y="-63.5" font-family="Helvetica,sans-Serif" font-size="10.00" fill="#000000">Vector2D.h</text>
</g>
<!-- Node33&#45;&gt;Node34 -->
<g id="edge50" class="edge">
<title>Node33&#45;&gt;Node34</title>
<path fill="none" stroke="#191970" d="M1448.8977,-128.9005C1462.6735,-119.3853 1484.2205,-104.5023 1501.9221,-92.2755"/>
<polygon fill="#191970" stroke="#191970" points="1504.0132,-95.0849 1510.2521,-86.5218 1500.0349,-89.3253 1504.0132,-95.0849"/>
</g>
<!-- Node35 -->
<g id="node36" class="node">
<title>Node35</title>
<polygon fill="none" stroke="#bfbfbf" points="1242.5,-62 1242.5,-81 1431.5,-81 1431.5,-62 1242.5,-62"/>
<text text-anchor="middle" x="1337" y="-69" font-family="Helvetica,sans-Serif" font-size="10.00" fill="#000000">Math/GenVector/PositionVector2D.h</text>
</g>
<!-- Node33&#45;&gt;Node35 -->
<g id="edge51" class="edge">
<title>Node33&#45;&gt;Node35</title>
<path fill="none" stroke="#191970" d="M1420.959,-128.9005C1404.8762,-117.9052 1378.3094,-99.7422 1359.3684,-86.7927"/>
<polygon fill="#191970" stroke="#191970" points="1361.2455,-83.8362 1351.015,-81.0817 1357.2948,-89.6148 1361.2455,-83.8362"/>
</g>
<!-- Node36&#45;&gt;Node14 -->
<g id="edge58" class="edge">
<title>Node36&#45;&gt;Node14</title>
<path fill="none" stroke="#191970" d="M2610.2719,-307.7029C2601.1471,-287.8658 2582,-241.3177 2582,-200 2582,-200 2582,-200 2582,-138.5 2582,-101.1501 2577.7077,-91.4675 2566,-56 2562.9225,-46.6769 2558.3824,-36.7983 2554.2246,-28.5953"/>
<polygon fill="#191970" stroke="#191970" points="2557.2264,-26.7841 2549.4666,-19.5705 2551.0343,-30.0487 2557.2264,-26.7841"/>
</g>
<!-- Node37 -->
<g id="node38" class="node">
<title>Node37</title>
<polygon fill="none" stroke="#bfbfbf" points="2610.5,-246.5 2610.5,-265.5 2685.5,-265.5 2685.5,-246.5 2610.5,-246.5"/>
<text text-anchor="middle" x="2648" y="-253.5" font-family="Helvetica,sans-Serif" font-size="10.00" fill="#000000">TDirectory.h</text>
</g>
<!-- Node36&#45;&gt;Node37 -->
<g id="edge59" class="edge">
<title>Node36&#45;&gt;Node37</title>
<path fill="none" stroke="#191970" d="M2620.1563,-307.8906C2624.9232,-299.0068 2632.1385,-285.5601 2638.0297,-274.5811"/>
<polygon fill="#191970" stroke="#191970" points="2641.1269,-276.2114 2642.7711,-265.7449 2634.9588,-272.9016 2641.1269,-276.2114"/>
</g>
<!-- Node38 -->
<g id="node39" class="node">
<title>Node38</title>
<g id="a_node39"><a xlink:href="../../d2/dec/TreeStream_8h.html" target="_top" xlink:title="CommonUtils/TreeStream.h">
<polygon fill="none" stroke="#000000" points="2703.5,-246.5 2703.5,-265.5 2854.5,-265.5 2854.5,-246.5 2703.5,-246.5"/>
<text text-anchor="middle" x="2779" y="-253.5" font-family="Helvetica,sans-Serif" font-size="10.00" fill="#000000">CommonUtils/TreeStream.h</text>
</a>
</g>
</g>
<!-- Node36&#45;&gt;Node38 -->
<g id="edge60" class="edge">
<title>Node36&#45;&gt;Node38</title>
<path fill="none" stroke="#191970" d="M2640.625,-307.8906C2668.4263,-297.4652 2712.9844,-280.7559 2743.9994,-269.1252"/>
<polygon fill="#191970" stroke="#191970" points="2745.4206,-272.3303 2753.5549,-265.5419 2742.9627,-265.776 2745.4206,-272.3303"/>
</g>
<!-- Node39 -->
<g id="node40" class="node">
<title>Node39</title>
<polygon fill="none" stroke="#bfbfbf" points="2675,-190.5 2675,-209.5 2735,-209.5 2735,-190.5 2675,-190.5"/>
<text text-anchor="middle" x="2705" y="-197.5" font-family="Helvetica,sans-Serif" font-size="10.00" fill="#000000">TString.h</text>
</g>
<!-- Node38&#45;&gt;Node39 -->
<g id="edge61" class="edge">
<title>Node38&#45;&gt;Node39</title>
<path fill="none" stroke="#191970" d="M2766.1102,-246.2455C2755.0746,-237.8943 2738.9708,-225.7076 2726.0647,-215.9408"/>
<polygon fill="#191970" stroke="#191970" points="2727.8283,-212.8862 2717.7421,-209.6427 2723.6041,-218.4681 2727.8283,-212.8862"/>
</g>
<!-- Node40 -->
<g id="node41" class="node">
<title>Node40</title>
<polygon fill="none" stroke="#bfbfbf" points="2753,-190.5 2753,-209.5 2805,-209.5 2805,-190.5 2753,-190.5"/>
<text text-anchor="middle" x="2779" y="-197.5" font-family="Helvetica,sans-Serif" font-size="10.00" fill="#000000">TTree.h</text>
</g>
<!-- Node38&#45;&gt;Node40 -->
<g id="edge62" class="edge">
<title>Node38&#45;&gt;Node40</title>
<path fill="none" stroke="#191970" d="M2779,-246.2455C2779,-238.9382 2779,-228.6944 2779,-219.7046"/>
<polygon fill="#191970" stroke="#191970" points="2782.5001,-219.6426 2779,-209.6427 2775.5001,-219.6427 2782.5001,-219.6426"/>
</g>
<!-- Node41 -->
<g id="node42" class="node">
<title>Node41</title>
<polygon fill="none" stroke="#bfbfbf" points="2823.5,-190.5 2823.5,-209.5 2870.5,-209.5 2870.5,-190.5 2823.5,-190.5"/>
<text text-anchor="middle" x="2847" y="-197.5" font-family="Helvetica,sans-Serif" font-size="10.00" fill="#000000">vector</text>
</g>
<!-- Node38&#45;&gt;Node41 -->
<g id="edge63" class="edge">
<title>Node38&#45;&gt;Node41</title>
<path fill="none" stroke="#191970" d="M2790.8447,-246.2455C2800.888,-237.9746 2815.4995,-225.9416 2827.3004,-216.2232"/>
<polygon fill="#191970" stroke="#191970" points="2829.7967,-218.7015 2835.291,-209.6427 2825.3467,-213.298 2829.7967,-218.7015"/>
</g>
</g>
</svg>
        <g id="navigator" transform="translate(0 0)" fill="#404254">
                <rect fill="#f2f5e9" fill-opacity="0.5" stroke="#606060" stroke-width=".5" x="0" y="0" width="60" height="60"/>
                <use id="zoomplus" xlink:href="#zoomPlus" x="17" y="9" onmousedown="handleZoom(evt,'in')"/>
                <use id="zoomminus" xlink:href="#zoomMin" x="42" y="9" onmousedown="handleZoom(evt,'out')"/>
                <use id="reset" xlink:href="#resetDef" x="30" y="36" onmousedown="handleReset()"/>
                <g id="arrowUp" xlink:href="#dirArrow" transform="translate(30 24)" onmousedown="handlePan(0,-1)">
                  <use xlink:href="#rim" fill="#404040">
                        <set attributeName="fill" to="#808080" begin="arrowUp.mouseover" end="arrowUp.mouseout"/>
                  </use>
                  <path fill="none" stroke="white" stroke-width="1.5" d="M0,-3.0v7 M-2.5,-0.5L0,-3.0L2.5,-0.5"/>
                </g>
                <g id="arrowRight" xlink:href="#dirArrow" transform="rotate(90) translate(36 -43)" onmousedown="handlePan(1,0)">
                  <use xlink:href="#rim" fill="#404040">
                        <set attributeName="fill" to="#808080" begin="arrowRight.mouseover" end="arrowRight.mouseout"/>
                  </use>
                  <path fill="none" stroke="white" stroke-width="1.5" d="M0,-3.0v7 M-2.5,-0.5L0,-3.0L2.5,-0.5"/>
                </g>
                <g id="arrowDown" xlink:href="#dirArrow" transform="rotate(180) translate(-30 -48)" onmousedown="handlePan(0,1)">
                  <use xlink:href="#rim" fill="#404040">
                        <set attributeName="fill" to="#808080" begin="arrowDown.mouseover" end="arrowDown.mouseout"/>
                  </use>
                  <path fill="none" stroke="white" stroke-width="1.5" d="M0,-3.0v7 M-2.5,-0.5L0,-3.0L2.5,-0.5"/>
                </g>
                <g id="arrowLeft" xlink:href="#dirArrow" transform="rotate(270) translate(-36 17)" onmousedown="handlePan(-1,0)">
                  <use xlink:href="#rim" fill="#404040">
                        <set attributeName="fill" to="#808080" begin="arrowLeft.mouseover" end="arrowLeft.mouseout"/>
                  </use>
                  <path fill="none" stroke="white" stroke-width="1.5" d="M0,-3.0v7 M-2.5,-0.5L0,-3.0L2.5,-0.5"/>
                </g>
        </g>
        <svg viewBox="0 0 15 15" width="100%" height="30px" preserveAspectRatio="xMaxYMin meet">
         <g id="arrow_out" transform="scale(0.3 0.3)">
          <a xlink:href="MatLayerCylSet_8cxx__incl_org.svg" target="_base">
           <rect id="button" ry="5" rx="5" y="6" x="6" height="38" width="38"
                fill="#f2f5e9" fill-opacity="0.5" stroke="#606060" stroke-width="1.0"/>
           <path id="arrow"
             d="M 11.500037,31.436501 C 11.940474,20.09759 22.043105,11.32322 32.158766,21.979434 L 37.068811,17.246167 C 37.068811,17.246167 37.088388,32 37.088388,32 L 22.160133,31.978069 C 22.160133,31.978069 26.997745,27.140456 26.997745,27.140456 C 18.528582,18.264221 13.291696,25.230495 11.500037,31.436501 z"
             style="fill:#404040;"/>
          </a>
         </g>
        </svg>
</svg>
